<svg width="284" height="159" viewBox="0 0 284 159" fill="none" xmlns="http://www.w3.org/2000/svg">
<g clip-path="url(#clip0_22768_3453)">
<rect x="1" width="282" height="158.625" fill="#E8EDFF"/>
<path fill-rule="evenodd" clip-rule="evenodd" d="M206.825 77.3115C236.386 75.6286 240.617 93.2495 239.5 106.653C238.362 120.374 235.368 157.853 235.368 157.853C235.548 158.051 165.147 158.051 165.347 157.853C165.347 157.853 168.161 120.374 169.299 106.653C170.417 93.2495 177.523 75.6088 206.825 77.3115Z" fill="#FF8D7E"/>
<path fill-rule="evenodd" clip-rule="evenodd" d="M229.217 113.166L226.625 146.283C226.24 151.169 225.939 154.923 225.685 158C225.658 158.327 225.369 158.571 225.039 158.544C224.71 158.517 224.464 158.231 224.491 157.904L225.007 151.537C225.228 148.768 225.482 145.555 225.781 141.753L228.211 110.7L228.543 106.585C229.097 99.928 228.199 93.9369 225.487 89.1579C222.162 83.2977 216.245 79.5038 207.299 78.236C206.971 78.1897 206.744 77.8888 206.791 77.5641C206.837 77.2393 207.141 77.0137 207.468 77.0601C216.772 78.3785 223.017 82.3827 226.531 88.5752C229.348 93.5398 230.29 99.6849 229.754 106.476L229.308 112.006C229.279 112.38 229.248 112.766 229.217 113.166Z" fill="#000091"/>
<path fill-rule="evenodd" clip-rule="evenodd" d="M169.299 124.195C169.299 124.175 153.371 126.67 153.371 126.67L151.674 142.45L152.273 154.844C155.706 154.923 159.419 154.685 163.351 153.972C165.826 153.517 168.481 151.418 169.199 149.023C170.377 145.043 170.656 134.075 169.299 124.195Z" fill="white"/>
<path fill-rule="evenodd" clip-rule="evenodd" d="M169.394 123.608L169.323 123.601L169.274 123.601C169.262 123.602 169.259 123.602 169.249 123.603L169.195 123.609L169.032 123.632L166.136 124.077L158.727 125.231L153.277 126.083C153.01 126.125 152.804 126.34 152.775 126.607L151.079 142.387C151.075 142.417 151.075 142.447 151.076 142.478L151.675 154.872C151.69 155.183 151.945 155.43 152.259 155.437C155.94 155.522 159.677 155.242 163.459 154.557C166.228 154.047 169.008 151.742 169.773 149.192L169.812 149.059C171.067 144.603 171.171 133.424 169.892 124.115L169.884 124.116L169.879 124.09C169.858 123.977 169.848 123.96 169.802 123.872L169.681 123.749C169.633 123.701 169.624 123.696 169.596 123.679L169.483 123.633C169.439 123.616 169.427 123.614 169.394 123.608ZM168.785 124.87L168.816 125.113C169.969 134.191 169.822 144.811 168.625 148.855C167.994 150.959 165.582 152.958 163.242 153.388L162.906 153.448C159.546 154.036 156.222 154.297 152.942 154.261L152.844 154.26L152.274 142.468L153.917 127.185L166.073 125.289L168.785 124.87Z" fill="#000091"/>
<path fill-rule="evenodd" clip-rule="evenodd" d="M158.401 158.447L161.594 139.975C161.594 139.975 158.6 136.272 158.84 131.045C158.86 130.709 158.88 130.352 158.92 129.996C158.9 129.917 152.612 127.897 152.253 127.145C152.492 122.888 155.986 111.583 162.133 108.97C164.109 108.059 168.88 106.713 169.858 106.376C174.409 104.852 183.97 102.357 192.273 104C192.273 104 204.968 106.059 207.803 107.722C209.339 108.633 217.024 113.563 218.481 127.204C218.501 127.422 205.208 132.035 205.208 132.035L203.89 158.427" fill="#6A6AF4"/>
<path fill-rule="evenodd" clip-rule="evenodd" d="M177.822 97.7439L177.702 105.01L175.108 105.505C174.668 106.139 169.758 113.583 180.856 114.533C188.102 115.167 196.086 110.95 200.377 105.941L193.272 104.02L191.136 90.5371L177.822 97.7439Z" fill="white"/>
<path fill-rule="evenodd" clip-rule="evenodd" d="M177.535 97.2225L177.501 97.2428C177.332 97.3494 177.227 97.5337 177.223 97.7341L177.112 104.518L174.994 104.922C174.84 104.951 174.703 105.04 174.614 105.168C174.33 105.579 174.002 106.143 173.71 106.814C173.254 107.863 173.006 108.916 173.057 109.93C173.203 112.8 175.651 114.684 180.805 115.125C187.804 115.737 196.067 111.889 200.834 106.325L200.856 106.297C201.109 105.966 200.946 105.479 200.535 105.367L193.803 103.548L191.727 90.4449C191.663 90.039 191.212 89.8189 190.849 90.0157L177.535 97.2225ZM190.676 91.4625L192.68 104.112L192.687 104.15C192.736 104.364 192.899 104.535 193.114 104.593L199.287 106.261L199.217 106.336C194.607 111.198 187.169 114.489 180.909 113.942C176.292 113.546 174.365 112.064 174.253 109.87C174.212 109.062 174.42 108.18 174.81 107.285C174.956 106.948 175.12 106.629 175.292 106.332L175.331 106.266C175.369 106.201 175.406 106.141 175.441 106.085L175.469 106.041L177.815 105.593L177.851 105.585C178.111 105.519 178.297 105.289 178.301 105.02L178.415 98.0994L190.676 91.4625Z" fill="#000091"/>
<rect width="3.32242" height="5.84001" transform="matrix(0.774044 0.633132 -0.639286 0.768969 204.221 60.2742)" fill="#E0840B"/>
<path fill-rule="evenodd" clip-rule="evenodd" d="M209.02 62.9375C212.261 62.9375 214.889 60.3314 214.889 57.1167C214.889 53.9019 212.261 51.2958 209.02 51.2958C205.779 51.2958 203.152 53.9019 203.152 57.1167C203.152 60.3314 205.779 62.9375 209.02 62.9375Z" fill="#000091"/>
<path fill-rule="evenodd" clip-rule="evenodd" d="M202.473 62.5416C198.102 59.6113 193.072 57.3939 187.703 57.8493C171.155 60.0073 167.143 70.3621 171.275 76.7769V76.7769C173.87 69.3722 176.066 66.9171 179.319 65.9866C180.477 71.1936 188.721 79.0736 197.104 81.5682V81.5682C197.124 81.5484 194.868 89.0324 194.15 88.775C193.89 89.171 191.216 92.7545 191.216 92.7545L192.912 101.11L211.775 103.386C212.912 103.683 214.11 102.832 214.15 101.684C214.37 94.576 216.406 72.2034 202.473 62.5416Z" fill="#000091"/>
<path fill-rule="evenodd" clip-rule="evenodd" d="M191.794 90.5173L192.832 91.0519C192.832 91.0519 199.12 93.6653 200.976 87.7257C202.393 83.2116 197.802 82.2018 195.487 81.9642" fill="white"/>
<path fill-rule="evenodd" clip-rule="evenodd" d="M194.891 81.9031C194.925 81.5768 195.22 81.3396 195.549 81.3734C197.259 81.5488 198.801 81.9664 199.967 82.7494C201.636 83.8703 202.269 85.6065 201.548 87.9015C200.795 90.3103 199.287 91.655 197.284 92.0768C196.074 92.3313 194.802 92.231 193.576 91.9128L193.425 91.8722C193.057 91.7709 192.774 91.6718 192.601 91.5996L192.578 91.5898L192.556 91.579L191.518 91.0444C191.225 90.8932 191.111 90.5347 191.263 90.2436C191.41 89.9632 191.75 89.8476 192.037 89.9744L192.07 89.9901L193.084 90.5123L193.14 90.5337C193.166 90.5434 193.197 90.5547 193.233 90.5674L193.271 90.5805C193.45 90.6426 193.655 90.7051 193.88 90.7635C194.941 91.039 196.035 91.1253 197.035 90.9147C198.618 90.5816 199.781 89.5444 200.404 87.549C200.967 85.7581 200.531 84.5629 199.296 83.733C198.329 83.0835 196.956 82.7121 195.425 82.555C195.096 82.5212 194.857 82.2294 194.891 81.9031Z" fill="#000091"/>
<path fill-rule="evenodd" clip-rule="evenodd" d="M171.275 76.7967V76.7967C173.87 69.392 175.946 67.2141 179.199 66.2836C180.337 71.4115 187.523 78.8756 196.884 81.5484C196.784 82.6374 196.904 81.6672 196.625 82.8354C196.246 84.0035 195.826 85.33 195.407 86.4387C193.551 90.5371 191.216 92.7942 191.216 92.7942V92.7942C187.802 96.3777 183.172 98.5556 177.982 97.7043C168.94 96.2193 169.798 83.2511 170.317 80.4595C170.557 79.0538 171.255 76.7967 171.275 76.7967C171.255 76.7967 171.255 76.7967 171.275 76.7967Z" fill="white"/>
<path fill-rule="evenodd" clip-rule="evenodd" d="M178.923 65.7452C175.279 66.8284 173.193 69.516 170.71 76.6017L170.711 76.6023L170.681 76.6841C170.454 77.318 169.943 79.1884 169.75 80.2319L169.727 80.3605C169.291 82.7042 169.262 86.5177 169.98 89.7014C171.046 94.4363 173.582 97.5838 177.884 98.2902L178.037 98.3145C183.026 99.0796 187.789 97.1938 191.536 93.3212L191.643 93.2095L191.702 93.151C191.795 93.0576 191.922 92.9226 192.08 92.7467C192.402 92.3862 192.753 91.9625 193.119 91.4769C194.156 90.1037 195.129 88.5016 195.953 86.6821L195.968 86.6473C196.154 86.1552 196.345 85.6091 196.568 84.9406L196.766 84.3401L197.195 83.0174L197.202 82.9951L197.257 82.77C197.288 82.6507 197.312 82.5623 197.332 82.5003L197.353 82.4366L197.366 82.4099L197.37 82.4003C197.406 82.3192 197.419 82.2672 197.43 82.1749L197.481 81.6022C197.507 81.3185 197.326 81.0564 197.05 80.9776C192.725 79.7429 188.632 77.3869 185.364 74.3998C182.374 71.6676 180.33 68.617 179.784 66.1559C179.71 65.8209 179.366 65.6178 179.034 65.7128L178.923 65.7452ZM178.701 67.0723L178.78 67.043L178.782 67.05C179.561 69.6386 181.64 72.6117 184.552 75.2735L184.703 75.4102C187.928 78.3177 191.902 80.6348 196.123 81.9421L196.246 81.9794L196.245 81.9872L196.227 82.0332C196.218 82.0569 196.209 82.0826 196.2 82.1108L196.19 82.141C196.157 82.2442 196.119 82.384 196.073 82.572L196.048 82.6742L195.558 84.183L195.391 84.6868C195.203 85.2476 195.039 85.7174 194.88 86.1403L194.854 86.2108L194.861 86.1953C194.075 87.9311 193.147 89.4588 192.161 90.7648C191.814 91.2233 191.485 91.6216 191.184 91.9578L191.082 92.0706C191.049 92.1064 191.018 92.1404 190.988 92.1726L190.881 92.2849L190.78 92.3862C187.236 96.1079 182.756 97.8853 178.08 97.1182C174.337 96.5036 172.119 93.7516 171.148 89.4424C170.469 86.4261 170.496 82.7713 170.906 80.5672C171.008 79.9696 171.203 79.164 171.447 78.2903L171.509 78.0713C171.56 77.8908 171.611 77.7168 171.659 77.5575L171.756 77.241L171.821 77.0392L171.826 77.0302C171.831 77.0176 171.836 77.0047 171.841 76.9917L171.974 76.6152C174.138 70.5405 175.898 68.1195 178.701 67.0723Z" fill="#000091"/>
<path fill-rule="evenodd" clip-rule="evenodd" d="M178.255 75.1251C178.392 74.8265 178.747 74.6947 179.048 74.8306C179.339 74.9617 179.473 75.2939 179.359 75.5852L179.345 75.6173L175.267 84.5006L177.138 84.9935C177.446 85.0747 177.634 85.3801 177.571 85.6861L177.563 85.7201C177.481 86.0258 177.173 86.2122 176.864 86.1496L176.83 86.1416L174.275 85.4685C173.929 85.3772 173.743 85.0078 173.87 84.6809L173.884 84.6483L178.255 75.1251Z" fill="#000091"/>
<path fill-rule="evenodd" clip-rule="evenodd" d="M182.28 75.1454C183.542 74.7202 184.617 75.1774 185.44 76.1441C185.641 76.3806 185.813 76.6315 185.956 76.8826C186.043 77.0356 186.104 77.1583 186.137 77.2365C186.267 77.5381 186.126 77.8871 185.822 78.0161C185.529 78.1404 185.191 78.0146 185.051 77.735L185.011 77.6496C184.989 77.6048 184.957 77.5428 184.914 77.468C184.805 77.2773 184.675 77.0863 184.525 76.9104C183.989 76.2809 183.39 76.0261 182.666 76.2702C182.352 76.3757 182.012 76.2095 181.906 75.8989C181.8 75.5883 181.967 75.251 182.28 75.1454Z" fill="#000091"/>
<path fill-rule="evenodd" clip-rule="evenodd" d="M179.229 88.817C179.459 88.5814 179.838 88.5756 180.075 88.8039C180.313 89.0322 180.319 89.4082 180.088 89.6438C179.631 90.1121 179.046 90.3846 178.378 90.4917C177.743 90.5937 177.083 90.5422 176.444 90.3968L176.327 90.369C176.14 90.3229 175.994 90.2778 175.9 90.2437C175.589 90.1311 175.43 89.7901 175.543 89.482C175.652 89.1849 175.976 89.0268 176.278 89.1168L176.363 89.1451C176.376 89.1492 176.391 89.1538 176.408 89.1589C176.497 89.186 176.599 89.2133 176.712 89.239C177.213 89.353 177.726 89.393 178.187 89.3191C178.59 89.2544 178.923 89.1065 179.181 88.8637L179.229 88.817Z" fill="#000091"/>
<path fill-rule="evenodd" clip-rule="evenodd" d="M172.537 73.0751C173.513 72.6485 174.515 72.8756 175.452 73.4796C175.798 73.7027 176.06 73.9266 176.216 74.0867C176.446 74.3223 176.44 74.6983 176.203 74.9266C175.975 75.1458 175.616 75.1491 175.385 74.9406L175.322 74.8804C175.297 74.8568 175.262 74.8248 175.217 74.7865C175.093 74.6808 174.953 74.5744 174.799 74.4756C174.167 74.0678 173.553 73.9289 173.02 74.1621C172.909 74.2106 172.799 74.2758 172.69 74.3592L172.636 74.4025C172.382 74.6122 172.004 74.5777 171.793 74.3254C171.581 74.0732 171.616 73.6987 171.87 73.489C172.082 73.3148 172.304 73.1769 172.537 73.0751Z" fill="#000091"/>
<path fill-rule="evenodd" clip-rule="evenodd" d="M182.016 79.5919C182.18 78.8662 181.929 78.1928 181.456 78.0878C180.982 77.9828 180.466 78.4859 180.302 79.2115C180.139 79.9372 180.39 80.6105 180.863 80.7156C181.336 80.8206 181.853 80.3175 182.016 79.5919Z" fill="#000091"/>
<path fill-rule="evenodd" clip-rule="evenodd" d="M173.832 78.0482C173.996 77.3226 173.745 76.6492 173.272 76.5442C172.798 76.4391 172.282 76.9422 172.118 77.6679C171.955 78.3935 172.206 79.0669 172.679 79.1719C173.152 79.277 173.669 78.7739 173.832 78.0482Z" fill="#000091"/>
<path fill-rule="evenodd" clip-rule="evenodd" d="M178.73 78.4153C177.759 82.623 179.597 86.6813 182.943 87.4346C186.289 88.1878 189.727 85.3173 190.699 81.1097C191.67 76.9021 189.832 72.8437 186.486 72.0905C183.14 71.3373 179.702 74.2077 178.73 78.4153ZM179.896 78.6778C180.734 75.0517 183.598 72.6604 186.218 73.2503C188.838 73.8402 190.37 77.2211 189.532 80.8472C188.695 84.4733 185.831 86.8646 183.211 86.2747C180.591 85.6849 179.059 82.304 179.896 78.6778Z" fill="#E0840B"/>
<path fill-rule="evenodd" clip-rule="evenodd" d="M164.246 75.6665C163.274 79.8741 165.113 83.9325 168.458 84.6857C171.804 85.4389 175.242 82.5685 176.214 78.3608C177.185 74.1532 175.347 70.0948 172.001 69.3416C168.656 68.5884 165.217 71.4589 164.246 75.6665ZM165.412 75.929C166.249 72.3029 169.113 69.9116 171.734 70.5014C174.354 71.0913 175.885 74.4722 175.048 78.0984C174.211 81.7245 171.346 84.1158 168.726 83.5259C166.106 82.936 164.574 79.5551 165.412 75.929Z" fill="#E0840B"/>
<path fill-rule="evenodd" clip-rule="evenodd" d="M175.487 77.0992C175.569 76.7936 175.877 76.6073 176.185 76.6701L176.22 76.6781L179.593 77.569C179.913 77.6535 180.103 77.9789 180.018 78.2958C179.936 78.6015 179.628 78.7878 179.319 78.725L179.285 78.717L175.912 77.826C175.592 77.7416 175.402 77.4162 175.487 77.0992Z" fill="#E0840B"/>
<path fill-rule="evenodd" clip-rule="evenodd" d="M189.817 79.5374C189.929 79.2413 190.254 79.0866 190.555 79.1796L190.588 79.191L197.634 81.8242C197.944 81.9399 198.1 82.2825 197.984 82.5894C197.871 82.8854 197.546 83.0402 197.245 82.9472L197.212 82.9358L190.166 80.3026C189.857 80.1869 189.7 79.8443 189.817 79.5374Z" fill="#E0840B"/>
<path fill-rule="evenodd" clip-rule="evenodd" d="M57.6409 49.7714C57.6409 49.3754 54.4672 44.7623 53.4892 43.218C52.5111 41.6737 54.8664 40.2878 56.4433 42.6042C58.0002 44.9207 59.0581 46.9798 59.0581 46.9798" fill="white"/>
<path fill-rule="evenodd" clip-rule="evenodd" d="M53.7956 40.908C54.8432 40.5135 56.0813 41.011 56.9416 42.2747C57.6314 43.3011 58.2751 44.3508 58.8557 45.368L58.9879 45.6011C59.0953 45.7916 59.1957 45.9725 59.2886 46.1428L59.4288 46.4017L59.5769 46.6816C59.5831 46.6935 59.588 46.703 59.5917 46.7101C59.7418 47.0023 59.6247 47.36 59.33 47.509C59.0463 47.6524 58.7014 47.55 58.5422 47.2812L58.5192 47.2389L58.4284 47.0662C58.4016 47.0157 58.3722 46.9609 58.3404 46.9018L58.2354 46.7082C58.1088 46.4764 57.9678 46.2236 57.8135 45.9533C57.2464 44.9597 56.6175 43.9342 55.9471 42.9366C55.3806 42.1045 54.7091 41.8347 54.2207 42.0186C53.8565 42.1558 53.7387 42.4953 53.9963 42.902L54.1237 43.1014C54.2354 43.2748 54.3716 43.4834 54.5404 43.7398L55.9932 45.9325C57.7392 48.574 58.2398 49.3776 58.2398 49.7714C58.2398 50.0994 57.9717 50.3653 57.641 50.3653C57.3575 50.3653 57.12 50.17 57.058 49.9076L57.0511 49.8751L57.0454 49.862C57.0291 49.8253 57.0049 49.7767 56.9735 49.7175L56.9323 49.6414C56.8339 49.4626 56.6914 49.2229 56.5075 48.9263L56.2639 48.5381C56.0093 48.1364 55.7018 47.6625 55.3236 47.0873L53.4534 44.2612C53.2531 43.9563 53.1016 43.7225 52.9821 43.5339C52.3199 42.4882 52.7289 41.3098 53.7956 40.908Z" fill="#000091"/>
<path fill-rule="evenodd" clip-rule="evenodd" d="M60.7548 56.4832C60.7548 56.4832 57.9603 51.9096 57.7008 50.0287C57.4413 48.1479 57.1419 39.2384 57.5411 38.3475C57.9403 37.4565 59.5971 37.4565 59.637 39.6146C59.6769 41.7726 59.637 46.3858 59.637 46.3858" fill="white"/>
<path fill-rule="evenodd" clip-rule="evenodd" d="M56.994 38.1062C57.3198 37.379 58.1554 37.0182 58.9168 37.2754C59.7234 37.5477 60.2134 38.3965 60.2357 39.6037L60.2434 40.1282C60.2496 40.6655 60.2529 41.3188 60.2535 42.0678L60.2529 43.0275C60.2524 43.3171 60.2515 43.6119 60.2504 43.9099L60.2438 45.2551L60.2358 46.3909C60.233 46.7189 59.9626 46.9825 59.6319 46.9797C59.313 46.977 59.0545 46.7275 59.0389 46.4156L59.039 46.289L59.0471 45.1064L59.0528 43.9058C59.0539 43.6085 59.0548 43.3144 59.0553 43.0255L59.055 41.5808C59.053 40.7912 59.0476 40.1291 59.0383 39.6255C59.0244 38.8762 58.8024 38.4916 58.5309 38.3999C58.3552 38.3406 58.1622 38.4239 58.0884 38.5887C57.8013 39.2294 57.9913 47.7532 58.2941 49.9482C58.3702 50.4998 58.7299 51.4306 59.3013 52.6003C59.4404 52.885 59.5904 53.1805 59.7496 53.4846C60.0262 54.0128 60.3196 54.5462 60.6159 55.0655L60.7939 55.3753C60.8652 55.4984 60.9335 55.6153 60.9983 55.7254L61.2669 56.1753C61.4383 56.4558 61.348 56.8211 61.0652 56.9911C60.7928 57.1548 60.4413 57.0778 60.2625 56.8214L60.2067 56.7316L60.1074 56.5663C60.0011 56.3881 59.8827 56.1869 59.7553 55.9667C59.3912 55.3378 59.0271 54.6822 58.6868 54.0321C58.5226 53.7186 58.3677 53.4133 58.2236 53.1183L58.1158 52.8955C57.554 51.7217 57.2002 50.7806 57.1076 50.1093L57.0895 49.9677C56.9664 48.9372 56.8395 46.4942 56.7809 44.0685L56.7678 43.4742C56.7098 40.5486 56.765 38.6173 56.994 38.1062Z" fill="#000091"/>
<path fill-rule="evenodd" clip-rule="evenodd" d="M58.7588 53.2757C58.1201 51.0583 57.7009 49.2764 57.7807 48.6824C58.0202 46.7421 60.1959 38.0703 60.9544 37.3971C61.7129 36.7239 63.1101 38.2287 62.5313 40.3471L61.0742 46.4848C61.0742 46.4848 63.2898 39.8522 63.8087 39.1592C64.3277 38.4662 66.4236 39.5156 64.8467 43.5149C63.2698 47.4945 63.4495 47.9103 63.4495 47.9103C63.4495 47.9103 65.5852 43.1784 66.204 42.3864C66.8228 41.5945 68.8587 43.5743 66.2239 47.7519L72.6312 61.1755L62.6111 65.3332C62.6111 65.3332 60.176 58.265 58.7588 53.2757" fill="white"/>
<path fill-rule="evenodd" clip-rule="evenodd" d="M60.5551 36.9545C61.2509 36.337 62.1861 36.6622 62.7436 37.4973C63.0086 37.8943 63.1792 38.3771 63.2409 38.9058L63.2439 38.9337L63.2548 38.9155C63.2756 38.8809 63.2954 38.8505 63.3142 38.8241L63.3281 38.805C63.913 38.024 65.0788 38.3259 65.6328 39.2814C65.9911 39.8994 66.1096 40.7289 65.9623 41.7358L65.9509 41.8097L65.9804 41.7892C66.3073 41.5712 66.727 41.5664 67.1 41.7675L67.1446 41.7926C67.5443 42.0282 67.8517 42.4773 68.011 43.0467C68.347 44.2472 68.0313 45.8469 66.9779 47.6605L66.9032 47.7869L73.1724 60.9213C73.3134 61.2166 73.1871 61.5667 72.8954 61.7085L72.8623 61.7234L62.8422 65.8812C62.5336 66.0092 62.1817 65.8614 62.057 65.5584L62.0399 65.5118L61.5982 64.2136C61.4988 63.9195 61.3945 63.6093 61.286 63.2851C60.7173 61.5866 60.1487 59.8496 59.6178 58.174L59.4416 57.6156C59.3836 57.4312 59.3265 57.2485 59.2701 57.0677L59.0662 56.4091C58.7777 55.4724 58.5165 54.5996 58.2864 53.8004L58.0813 53.083C57.4309 50.7902 57.1116 49.2968 57.1824 48.6428L57.1864 48.6103C57.3085 47.6206 57.9001 45.0143 58.5631 42.5284L58.6879 42.0649C59.4718 39.1761 60.0907 37.3667 60.5551 36.9545ZM61.4041 37.8367L61.3819 37.8293C61.3688 37.8257 61.3663 37.8287 61.3537 37.8398C60.8548 38.2826 58.7015 46.3019 58.3834 48.6903L58.3743 48.7609C58.3179 49.1803 58.6463 50.6993 59.2739 52.9009L59.4382 53.4748C59.6837 54.3274 59.9654 55.2663 60.2783 56.2787L60.4144 56.717C60.5265 57.0768 60.6419 57.444 60.7603 57.8178C61.223 59.2781 61.7147 60.7861 62.2101 62.2743L62.6331 63.5378L62.972 64.5395L71.8216 60.8674L65.6827 48.0061C65.6012 47.8353 65.6068 47.637 65.6959 47.4718L65.7163 47.4369C66.801 45.7171 67.1182 44.2974 66.8571 43.3645C66.7954 43.1442 66.7063 42.9814 66.6187 42.8862L66.5972 42.864L66.5429 42.9503C66.3182 43.3155 65.9475 44.0263 65.489 44.9668L65.3772 45.197L65.3041 45.3484C65.0458 45.8849 64.7772 46.4555 64.5107 47.0304L64.1497 47.8151L63.996 48.153C63.7828 48.6255 63.1047 48.6201 62.8991 48.1443C62.8776 48.0945 62.8635 48.0434 62.855 47.9901C62.7792 47.5161 63.1399 46.1987 64.289 43.2986C64.9299 41.6733 64.9607 40.505 64.5946 39.8736C64.4953 39.7024 64.3806 39.6021 64.2841 39.5671L64.2595 39.5594L64.2323 39.608C64.057 39.9363 63.6734 40.9001 63.1876 42.2326L63.0592 42.5866L62.9142 42.9911L62.721 43.5356C62.5587 43.9954 62.3937 44.4692 62.2291 44.947L61.9039 45.8976L61.6426 46.6716C61.4063 47.3791 60.3511 47.0956 60.4838 46.384L60.4913 46.3486L61.9484 40.211L61.9533 40.1918C62.1743 39.3833 62.067 38.6354 61.7451 38.1532C61.6287 37.9789 61.5014 37.8705 61.4041 37.8367Z" fill="#000091"/>
<path fill-rule="evenodd" clip-rule="evenodd" d="M154.688 105.762C154.688 105.762 158.66 103.862 160.217 103.782C161.774 103.703 169.159 104.198 169.858 104.594C170.557 104.99 170.417 106.337 168.64 106.178C166.844 106.04 163.091 105.604 163.091 105.604" fill="white"/>
<path fill-rule="evenodd" clip-rule="evenodd" d="M160.187 103.189L160.31 103.184C162.432 103.112 169.407 103.655 170.155 104.078C170.775 104.43 171.02 105.197 170.722 105.842C170.415 106.504 169.658 106.846 168.664 106.776L168.36 106.751C167.87 106.711 167.247 106.651 166.519 106.577L165.808 106.503C165.33 106.452 164.84 106.399 164.354 106.345L163.022 106.194C162.693 106.156 162.458 105.861 162.497 105.535C162.534 105.221 162.812 104.993 163.126 105.011L164.004 105.11L164.972 105.217C165.134 105.235 165.295 105.253 165.456 105.27L166.397 105.37L167.217 105.453C167.694 105.5 168.112 105.539 168.462 105.568L168.694 105.587C169.268 105.638 169.557 105.512 169.633 105.346C169.674 105.259 169.64 105.155 169.561 105.11C169.078 104.836 162.108 104.299 160.301 104.373L160.248 104.376C159.796 104.399 158.992 104.626 157.972 105.008C157.715 105.104 157.447 105.209 157.172 105.321C156.645 105.534 156.115 105.764 155.607 105.993L155.352 106.109L154.948 106.297C154.65 106.44 154.293 106.316 154.149 106.02C154.005 105.725 154.13 105.37 154.428 105.227L154.614 105.14C154.762 105.071 154.928 104.994 155.111 104.912C155.632 104.677 156.176 104.441 156.718 104.221C157.003 104.106 157.281 103.997 157.549 103.897L157.765 103.817C158.795 103.441 159.612 103.218 160.187 103.189Z" fill="#000091"/>
<path fill-rule="evenodd" clip-rule="evenodd" d="M148.78 105.644C148.78 105.644 153.271 105.168 157.463 104.396Z" fill="white"/>
<path fill-rule="evenodd" clip-rule="evenodd" d="M157.353 103.812C157.678 103.752 157.991 103.965 158.051 104.288C158.112 104.61 157.897 104.92 157.572 104.98C157.312 105.028 157.047 105.076 156.778 105.122C155.165 105.404 153.447 105.659 151.722 105.886L150.939 105.987C150.498 106.042 150.08 106.093 149.692 106.138L148.843 106.234C148.515 106.269 148.22 106.033 148.184 105.707C148.149 105.38 148.388 105.088 148.716 105.053L149.208 104.998L149.719 104.939C150.168 104.886 150.654 104.826 151.17 104.76C153.012 104.523 154.854 104.252 156.571 103.953C156.836 103.906 157.097 103.859 157.353 103.812Z" fill="#000091"/>
<path fill-rule="evenodd" clip-rule="evenodd" d="M154.928 105.069C156.784 104.733 160.876 103.763 161.355 103.881C162.932 104.238 169.858 106.752 170.337 107.406C170.816 108.079 169.479 109.069 167.782 108.415L162.872 106.713C162.872 106.713 168.121 109.069 168.64 109.544C169.159 110.019 168.121 111.623 164.988 109.999C161.854 108.396 161.495 108.495 161.495 108.495C161.495 108.495 165.187 110.613 165.806 111.187C166.425 111.761 164.608 113.226 161.395 110.732L155.107 113.088C153.65 113.028 142.852 109.603 143.53 108.633C144.209 107.663 148.9 101.129 148.9 101.129L154.928 105.069Z" fill="white"/>
<path fill-rule="evenodd" clip-rule="evenodd" d="M161.297 111.403L161.374 111.459C162.786 112.468 164.094 112.865 165.134 112.697C165.644 112.614 166.066 112.391 166.311 112.062L166.339 112.023C166.51 111.773 166.565 111.482 166.496 111.215L166.492 111.201L166.505 111.204C167.259 111.368 167.908 111.329 168.426 111.102L168.472 111.081C169.271 110.704 169.638 109.831 169.167 109.237L169.147 109.212L169.174 109.21C169.529 109.178 169.86 109.085 170.151 108.935C170.932 108.534 171.31 107.742 170.826 107.063C170.51 106.632 169.106 105.988 166.806 105.105L166.472 104.977C164.476 104.22 162.378 103.512 161.531 103.312L161.458 103.296C161.121 103.227 160.446 103.331 158.68 103.693L155.668 104.321C155.457 104.364 155.295 104.396 155.144 104.425L155.056 104.442L149.229 100.633C148.97 100.464 148.626 100.52 148.434 100.756L148.107 101.21L143.467 107.689C143.267 107.97 143.122 108.175 143.038 108.295C142.708 108.767 142.938 109.195 143.397 109.563C143.665 109.777 144.061 110.008 144.584 110.263C145.494 110.707 146.795 111.225 148.318 111.762L148.516 111.831C151.293 112.8 154.281 113.649 155.083 113.681C155.163 113.685 155.244 113.672 155.319 113.644L161.297 111.403ZM149.052 101.941L154.598 105.565C154.727 105.65 154.884 105.681 155.035 105.654L155.418 105.582C155.585 105.55 155.767 105.514 156.014 105.463L158.711 104.9C159.288 104.781 159.718 104.697 160.1 104.627L160.321 104.587C160.584 104.541 160.801 104.508 160.969 104.488C161.052 104.478 161.121 104.471 161.175 104.468L161.234 104.465L161.243 104.465L161.336 104.488C162.136 104.69 163.956 105.303 165.741 105.973L166.131 106.12L166.494 106.26C168.161 106.906 169.483 107.497 169.791 107.704L169.814 107.72L169.8 107.738C169.759 107.782 169.692 107.833 169.6 107.881C169.222 108.075 168.661 108.099 168.065 107.886L167.98 107.855L163.07 106.152C162.36 105.906 161.943 106.909 162.593 107.238L163.529 107.664L164.037 107.897C164.46 108.091 164.877 108.286 165.28 108.475L165.767 108.705C166.354 108.985 166.862 109.233 167.27 109.441L167.481 109.55L167.652 109.64C167.796 109.717 167.919 109.785 168.014 109.84L168.119 109.902L168.109 109.913C168.07 109.947 168.015 109.983 167.942 110.015C167.44 110.236 166.551 110.123 165.346 109.514L164.889 109.282C162.796 108.224 161.84 107.87 161.445 107.902L161.429 107.904C161.384 107.91 161.384 107.91 161.334 107.922C160.835 108.06 160.74 108.714 161.164 108.99L161.243 109.037L161.878 109.405C162.318 109.662 162.757 109.922 163.175 110.174L163.577 110.418L163.895 110.613C164.393 110.921 164.794 111.18 165.065 111.368L165.19 111.457L165.168 111.466C165.106 111.489 165.03 111.51 164.941 111.524C164.182 111.647 163.065 111.274 161.764 110.264L161.73 110.24C161.57 110.132 161.366 110.108 161.183 110.176L155.022 112.485L154.996 112.482C154.13 112.367 151.266 111.54 148.718 110.642L148.434 110.542C147.121 110.072 145.998 109.622 145.197 109.238L145.038 109.161L144.887 109.084C144.62 108.947 144.406 108.822 144.253 108.716L144.22 108.692L145.678 106.648L149.052 101.941Z" fill="#000091"/>
<path fill-rule="evenodd" clip-rule="evenodd" d="M136.245 27.5571C136.245 27.5571 124.209 18.7862 122.712 19.2812L115.985 18.6872C108.141 17.9943 101.214 23.7359 100.496 31.5169L91.7732 74.4802L131.534 79.7071L135.167 39.3176C135.426 39.1988 135.686 39.0602 135.925 38.9018C138.8 36.9813 138.82 32.2098 136.245 27.5571Z" fill="#000091"/>
<path fill-rule="evenodd" clip-rule="evenodd" d="M153.59 102.06L140.137 92.6754L144.069 79.8457C145.606 73.2527 144.289 64.9174 137.123 62.4822C133.67 61.3141 132.512 60.9973 132.113 60.8587V60.8587C132.113 60.8587 109.598 54.8399 106.803 53.7905C104.887 53.0778 96.8232 53.3945 90.9149 58.9778L77.8808 68.8772L71.3338 50.1277L55.8446 56.4238L66.0443 86.5377C66.0443 86.5377 69.3977 98.1992 78.3599 93.8831L92.0926 85.9834C92.1924 90.5173 92.2323 96.8133 89.877 103.387C86.4039 113.068 84.6274 123.265 84.6474 133.52C84.6673 145.855 84.7073 157.239 84.7073 157.239L143.451 157.754C143.451 157.754 133.77 113.721 133.77 109.92C133.73 109.643 133.73 109.346 133.71 109.049C138.68 112.177 144.848 114.949 144.848 114.949L153.59 102.06Z" fill="#EB762F" stroke="#EB762F" stroke-width="2.5" stroke-linecap="round" stroke-linejoin="round"/>
<path fill-rule="evenodd" clip-rule="evenodd" d="M134.227 70.2117C134.543 70.1126 134.879 70.2856 134.979 70.5983L135.483 72.1455C135.888 73.3834 136.379 74.8746 136.511 75.2852L136.617 75.6163C137.118 77.1922 137.472 78.4215 137.749 79.5886C138.483 82.6814 138.619 85.2087 138.064 87.659C137.329 90.9057 135.355 93.9802 131.826 97.2184L131.687 97.3449L135.834 118.459C135.895 118.769 135.701 119.07 135.396 119.148L135.361 119.155C135.048 119.216 134.745 119.022 134.667 118.72L134.659 118.686L130.447 97.2437C130.407 97.0389 130.478 96.8281 130.635 96.6886C134.237 93.4738 136.193 90.5005 136.895 87.3987C137.405 85.1461 137.279 82.7926 136.583 79.8609L136.527 79.6251C136.256 78.5195 135.909 77.3311 135.422 75.8102L135.119 74.878C134.734 73.7009 134.066 71.6726 133.838 70.9575C133.738 70.6448 133.912 70.3109 134.227 70.2117Z" fill="#000091"/>
<path fill-rule="evenodd" clip-rule="evenodd" d="M92.871 86.0625L104.648 78.7964Z" fill="white"/>
<path fill-rule="evenodd" clip-rule="evenodd" d="M104.331 78.292C104.612 78.1188 104.981 78.2041 105.156 78.4827C105.324 78.7509 105.251 79.1005 104.994 79.2807L104.964 79.3007L93.1873 86.5669C92.9065 86.7402 92.5372 86.6548 92.3625 86.3763C92.1943 86.108 92.2679 85.7585 92.5243 85.5782L92.5547 85.5582L104.331 78.292Z" fill="#000091"/>
<path fill-rule="evenodd" clip-rule="evenodd" d="M78.2112 68.686C78.472 68.4842 78.8482 68.5304 79.0516 68.7891L79.1486 68.916L79.1955 68.979C79.3058 69.1278 79.4283 69.2987 79.5599 69.4896C79.935 70.0337 80.3098 70.6311 80.6602 71.2646C81.3563 72.5232 81.8691 73.7656 82.1207 74.9455C82.3747 76.1367 82.3518 77.2229 81.9948 78.1723C81.8793 78.4797 81.5344 78.636 81.2245 78.5214C80.9147 78.4067 80.7571 78.0647 80.8727 77.7573C81.1413 77.0428 81.1595 76.1787 80.949 75.1913C80.725 74.1408 80.2545 73.0009 79.6102 71.8359C79.2799 71.2388 78.9255 70.6739 78.5713 70.1601L78.4676 70.0112C78.4001 69.9152 78.3358 69.8258 78.2754 69.7434L78.1269 69.5449C78.119 69.5347 78.1125 69.5263 78.1072 69.5196C77.9039 69.2609 77.9504 68.8877 78.2112 68.686Z" fill="#000091"/>
<path fill-rule="evenodd" clip-rule="evenodd" d="M126.803 50.9791L126.923 59.6906L131.534 61.0567C131.734 61.8288 129.957 75.0346 118.241 71.649C110.556 69.4316 107.721 60.9775 107.262 54.2261L113.67 56.3446L113.25 40.0106L126.803 50.9791Z" fill="white"/>
<path fill-rule="evenodd" clip-rule="evenodd" d="M112.652 40.0257L113.049 55.5132L107.452 53.6626C107.048 53.529 106.636 53.8446 106.665 54.266C106.925 58.0978 107.877 61.8513 109.513 64.9157C111.473 68.5875 114.326 71.138 118.073 72.2193C123.492 73.785 127.402 72.1138 129.863 68.2279C130.738 66.8456 131.371 65.2603 131.77 63.6557L131.809 63.4947C132.083 62.3437 132.208 61.2724 132.114 60.9091L132.103 60.8718C132.042 60.6876 131.894 60.5435 131.705 60.4875L127.516 59.2463L127.402 50.971C127.4 50.7954 127.319 50.6299 127.182 50.5189L113.629 39.5503C113.232 39.2293 112.639 39.518 112.652 40.0257ZM113.882 41.2884L126.208 51.2642L126.324 59.6986L126.326 59.7355C126.345 59.9795 126.513 60.1889 126.752 60.2597L130.937 61.4996L130.934 61.5363C130.927 61.6171 130.918 61.7059 130.906 61.8009C130.851 62.2563 130.75 62.7998 130.607 63.3714C130.237 64.8608 129.65 66.3302 128.849 67.5961C126.662 71.0492 123.291 72.4898 118.408 71.0788C114.994 70.0938 112.388 67.764 110.571 64.3598L110.487 64.2007C109.127 61.5909 108.274 58.443 107.944 55.1861L107.933 55.0741L113.48 56.908C113.874 57.0382 114.279 56.7411 114.268 56.3294L113.882 41.2884Z" fill="#000091"/>
<path fill-rule="evenodd" clip-rule="evenodd" d="M108.046 43.2656C108.196 42.9731 108.556 42.8566 108.851 43.0053C109.146 43.154 109.263 43.5116 109.114 43.804C108.558 44.8874 108.357 46.3979 108.593 47.9811C109.032 50.9003 110.786 52.9952 112.401 52.8048C112.73 52.766 113.028 52.9987 113.067 53.3245C113.106 53.6502 112.871 53.9457 112.543 53.9844C110.138 54.2678 107.931 51.6309 107.409 48.1555C107.138 46.3391 107.372 44.5809 108.046 43.2656Z" fill="#E0840B"/>
<path fill-rule="evenodd" clip-rule="evenodd" d="M135.212 42.5132C135.362 42.2208 135.722 42.1043 136.017 42.2529C136.312 42.4016 136.429 42.7592 136.28 43.0516C135.724 44.135 135.523 45.6455 135.759 47.2287C136.198 50.1479 137.952 52.2428 139.567 52.0524C139.896 52.0137 140.194 52.2464 140.233 52.5721C140.272 52.8979 140.037 53.1933 139.709 53.232C137.304 53.5154 135.097 50.8785 134.575 47.4031C134.304 45.5868 134.538 43.8285 135.212 42.5132Z" fill="#E0840B"/>
<path fill-rule="evenodd" clip-rule="evenodd" d="M114.215 41.9425C115.242 39.848 114.274 37.2816 112.054 36.2102C109.833 35.1389 107.2 35.9683 106.173 38.0629C105.146 40.1574 106.114 42.7238 108.334 43.7952C110.555 44.8665 113.188 44.0371 114.215 41.9425Z" fill="white"/>
<path fill-rule="evenodd" clip-rule="evenodd" d="M105.642 37.8103C104.463 40.2101 105.557 43.1287 108.065 44.3366C110.573 45.5446 113.567 44.5948 114.746 42.195C115.925 39.7952 114.831 36.8767 112.323 35.6687C109.815 34.4608 106.821 35.4106 105.642 37.8103ZM106.717 38.3282C107.6 36.5318 109.871 35.8112 111.797 36.7388C113.723 37.6664 114.553 39.8807 113.671 41.6771C112.789 43.4735 110.517 44.1942 108.591 43.2665C106.665 42.3389 105.835 40.1246 106.717 38.3282Z" fill="#000091"/>
<path fill-rule="evenodd" clip-rule="evenodd" d="M140.974 40.4517C141.88 38.603 141.024 36.3367 139.061 35.3897C137.098 34.4427 134.772 35.1736 133.865 37.0223C132.959 38.871 133.815 41.1374 135.778 42.0844C137.741 43.0314 140.067 42.3004 140.974 40.4517Z" fill="white"/>
<path fill-rule="evenodd" clip-rule="evenodd" d="M133.333 36.7693C132.275 38.923 133.258 41.5413 135.509 42.6253C137.76 43.7092 140.447 42.8588 141.505 40.7051C142.563 38.5514 141.579 35.9331 139.329 34.8491C137.078 33.7652 134.391 34.6156 133.333 36.7693ZM134.408 37.287C135.17 35.7371 137.135 35.1153 138.803 35.9191C140.472 36.7229 141.191 38.6372 140.43 40.1872C139.669 41.7371 137.704 42.3589 136.035 41.5551C134.366 40.7513 133.647 38.837 134.408 37.287Z" fill="#000091"/>
<path fill-rule="evenodd" clip-rule="evenodd" d="M126.954 53.6396C133.555 52.4894 137.687 44.6688 136.182 36.1717C134.677 27.6746 128.106 21.7187 121.505 22.8688C114.904 24.019 110.772 31.8396 112.277 40.3367C113.782 48.8338 120.353 54.7897 126.954 53.6396Z" fill="white"/>
<path fill-rule="evenodd" clip-rule="evenodd" d="M121.384 22.2692C114.428 23.4747 110.138 31.625 111.705 40.4248C113.271 49.2247 120.12 55.4447 127.075 54.2392C134.031 53.0338 138.321 44.8834 136.754 36.0836C135.188 27.2837 128.339 21.0637 121.384 22.2692ZM121.592 23.4405C127.82 22.3611 134.115 28.078 135.576 36.2878C137.038 44.4975 133.095 51.9885 126.867 53.0679C120.639 54.1473 114.345 48.4304 112.883 40.2207C111.421 32.0109 115.364 24.5199 121.592 23.4405Z" fill="#000091"/>
<path fill-rule="evenodd" clip-rule="evenodd" d="M126.615 34.7031C126.924 34.6249 127.239 34.8005 127.334 35.0981L127.344 35.1316L129.001 41.5692C129.151 42.163 128.716 42.756 128.116 42.7813L125.701 42.8416C125.37 42.8498 125.095 42.5907 125.087 42.2628C125.079 41.9465 125.322 41.6818 125.635 41.6559L125.671 41.654L127.773 41.6016L126.183 35.4256C126.104 35.1191 126.282 34.8074 126.582 34.7127L126.615 34.7031Z" fill="#000091"/>
<path fill-rule="evenodd" clip-rule="evenodd" d="M119.561 31.1144C120.51 30.5894 121.514 30.3975 122.487 30.7718C122.831 30.9038 123.154 31.1042 123.454 31.3744C123.698 31.595 123.717 31.9707 123.494 32.2134C123.272 32.4561 122.893 32.474 122.648 32.2533C122.456 32.0804 122.259 31.958 122.054 31.8794C121.473 31.6559 120.812 31.7823 120.144 32.1518C119.987 32.2389 119.843 32.3323 119.717 32.4251L119.646 32.4789C119.632 32.4894 119.62 32.4987 119.61 32.5069L119.576 32.5354C119.329 32.7531 118.95 32.7306 118.731 32.4851C118.511 32.2397 118.534 31.8643 118.781 31.6466C118.942 31.5058 119.209 31.3094 119.561 31.1144Z" fill="#000091"/>
<path fill-rule="evenodd" clip-rule="evenodd" d="M129.066 30.8816C129.702 30.7392 130.366 30.6993 131.005 30.8291C131.899 31.0107 132.628 31.5103 133.082 32.3696C133.236 32.6602 133.123 33.0192 132.83 33.1715C132.548 33.3182 132.202 33.2197 132.04 32.9528L132.022 32.9212C131.743 32.3945 131.323 32.1061 130.765 31.9929C130.316 31.9018 129.814 31.9319 129.329 32.0404C129.251 32.058 129.178 32.0765 129.113 32.095L129 32.1292L128.984 32.1346C128.673 32.2465 128.33 32.0873 128.217 31.7789C128.104 31.4706 128.264 31.1299 128.575 31.018C128.678 30.9811 128.846 30.9307 129.066 30.8816Z" fill="#000091"/>
<path fill-rule="evenodd" clip-rule="evenodd" d="M124.237 38.0625C124.268 37.2868 123.865 36.6408 123.337 36.6196C122.808 36.5985 122.354 37.2102 122.322 37.9859C122.291 38.7616 122.694 39.4077 123.222 39.4288C123.751 39.45 124.205 38.8383 124.237 38.0625Z" fill="#000091"/>
<path fill-rule="evenodd" clip-rule="evenodd" d="M131.362 39.6145C131.879 39.5813 132.258 38.9264 132.207 38.1517C132.157 37.377 131.697 36.7758 131.18 36.809C130.663 36.8421 130.284 37.497 130.335 38.2717C130.385 39.0464 130.845 39.6476 131.362 39.6145Z" fill="#000091"/>
<path fill-rule="evenodd" clip-rule="evenodd" d="M119.858 42.9586C119.96 46.3468 121.207 48.0452 123.234 48.2233C123.998 48.2904 124.788 48.1296 125.565 47.8245C125.954 47.6715 126.255 47.5172 126.436 47.408C126.805 47.1857 126.822 46.6613 126.47 46.4149L120.801 42.4551C120.397 42.1733 119.843 42.4693 119.858 42.9586ZM121.153 44.1536L124.93 46.7922C124.377 46.9874 123.831 47.0832 123.34 47.04C122.238 46.9432 121.469 46.1531 121.178 44.3199L121.153 44.1536Z" fill="#000091"/>
<path fill-rule="evenodd" clip-rule="evenodd" d="M138.253 40.0366C140.626 39.6905 142.574 42.45 143.125 46.1606C143.646 49.6747 142.24 52.8746 139.805 53.2298L139.762 53.2345L139.718 53.2361H139.638C139.307 53.2361 139.039 52.9702 139.039 52.6422C139.039 52.3258 139.288 52.0673 139.603 52.0492L139.638 52.0482L139.671 52.048L139.68 52.0467C141.269 51.7685 142.351 49.302 141.953 46.422L141.94 46.3337C141.473 43.1887 139.924 40.9937 138.428 41.2119C138.101 41.2597 137.796 41.0353 137.748 40.7107C137.7 40.3862 137.926 40.0844 138.253 40.0366Z" fill="#E0840B"/>
<path fill-rule="evenodd" clip-rule="evenodd" d="M110.728 41.1058C113.167 40.7501 115.438 43.4056 115.959 46.9328C116.48 50.4469 115.074 53.6468 112.639 54.002L112.596 54.0067L112.552 54.0083H112.472C112.141 54.0083 111.873 53.7424 111.873 53.4144C111.873 53.098 112.123 52.8395 112.437 52.8214L112.472 52.8204L112.505 52.8202L112.514 52.8189C114.103 52.5407 115.185 50.0742 114.786 47.1937L114.774 47.1054C114.337 44.1448 112.539 42.0424 110.902 42.2811C110.575 42.3288 110.271 42.1044 110.223 41.7799C110.175 41.4553 110.401 41.1536 110.728 41.1058Z" fill="#E0840B"/>
<path fill-rule="evenodd" clip-rule="evenodd" d="M120.237 19.103L120.217 19.1426C116.165 19.697 111.614 21.5185 109.059 24.1715C106.065 27.3195 105.925 32.9028 107.522 36.5062C108.779 35.635 110.516 35.4766 112.053 36.2092C112.133 36.2488 112.213 36.2884 112.272 36.328C118.221 33.9323 118.3 24.9635 118.3 24.1715C119.618 25.2209 121.314 27.0225 120.855 28.9628L142.053 30.4477C142.053 30.4675 146.405 14.9453 120.237 19.103ZM117.322 24.6665C117.602 24.4487 117.881 24.2705 118.181 24.0923C118.201 24.1121 118.221 24.1319 118.241 24.1319L117.322 24.6665Z" fill="#000091"/>
<path fill-rule="evenodd" clip-rule="evenodd" d="M181.355 152.092H155.666L148.281 119.978C148.121 119.285 147.522 118.79 146.824 118.79H91.7531C90.7751 118.79 90.0765 119.721 90.296 120.691L98.5397 156.566C98.6993 157.259 99.2981 157.754 99.9968 157.754C99.9968 157.754 173.052 157.754 176.205 157.754C182.433 157.754 181.355 152.092 181.355 152.092Z" fill="#6A6AF4"/>
<path fill-rule="evenodd" clip-rule="evenodd" d="M200.018 128.274L201.475 141.083C201.475 141.083 179.938 143.915 170.357 144.746C169.918 144.786 161.834 149.854 162.712 150.27C167.922 152.725 162.053 155.002 168.92 154.091C168.92 154.091 191.116 156.526 211.715 152.784C214.19 152.329 216.845 150.23 217.563 147.835C218.761 143.875 219.04 132.887 217.663 123.027C217.703 122.987 200.018 128.274 200.018 128.274Z" fill="white"/>
<path fill-rule="evenodd" clip-rule="evenodd" d="M217.65 122.433L217.585 122.438C217.572 122.439 217.566 122.44 217.558 122.441L217.508 122.452L217.434 122.472L217.043 122.584L214.412 123.361L208.634 125.081L199.845 127.705L199.811 127.716C199.554 127.81 199.392 128.067 199.423 128.34L200.814 140.571L197.385 141.014L196.693 141.102C193.125 141.558 189.474 142.013 185.953 142.439L184.526 142.61L182.703 142.827C177.487 143.441 173.246 143.899 170.305 144.154C169.91 144.19 167.776 145.481 165.704 146.876L165.361 147.108C164.425 147.748 163.64 148.323 163.089 148.782C162.726 149.085 162.461 149.339 162.295 149.554C162.173 149.713 162.091 149.862 162.06 150.033C162.001 150.351 162.15 150.662 162.454 150.806C163.464 151.282 164.05 151.752 164.336 152.223C164.518 152.522 164.567 152.748 164.587 153.23L164.589 153.298C164.617 154.117 164.787 154.525 165.5 154.759L165.534 154.77C166.119 154.95 167.08 154.926 168.788 154.707L168.927 154.689L169.37 154.734C169.531 154.75 169.707 154.766 169.896 154.783L170.658 154.85C171.499 154.921 172.431 154.992 173.448 155.059L173.667 155.073C184.608 155.781 196.474 155.636 207.638 154.045C209.06 153.842 210.456 153.617 211.823 153.369C214.591 152.859 217.372 150.554 218.137 148.004L218.176 147.872C219.451 143.442 219.555 132.246 218.256 122.945L218.238 122.948L218.238 122.944C218.216 122.73 218.179 122.697 217.986 122.526L217.792 122.454C217.707 122.424 217.693 122.427 217.65 122.433ZM217.162 123.788L217.182 123.945C218.353 133.013 218.205 143.647 216.99 147.664C216.358 149.771 213.946 151.77 211.606 152.2C210.255 152.446 208.875 152.669 207.468 152.869C196.399 154.447 184.61 154.59 173.745 153.888L173.312 153.859C172.244 153.788 171.273 153.712 170.409 153.636L169.788 153.58C169.613 153.564 169.451 153.548 169.304 153.534L168.986 153.501C168.937 153.496 168.889 153.496 168.841 153.502L168.556 153.539C167.079 153.725 166.257 153.745 165.899 153.639L165.843 153.621C165.807 153.608 165.799 153.59 165.794 153.474L165.786 153.258C165.762 152.541 165.685 152.14 165.362 151.609L165.324 151.549C164.973 151.002 164.403 150.504 163.567 150.039L163.504 150.004L163.517 149.992C163.613 149.903 163.727 149.802 163.86 149.692L163.988 149.586C164.566 149.117 165.396 148.519 166.377 147.858C167.243 147.275 168.188 146.67 169.004 146.173L169.165 146.075C169.533 145.852 169.854 145.665 170.1 145.528L170.156 145.498C170.263 145.439 170.352 145.392 170.42 145.359L170.478 145.332L170.923 145.292C174.022 145.013 178.401 144.534 183.736 143.901L185.142 143.733C185.458 143.695 185.777 143.657 186.097 143.618C189.302 143.231 192.612 142.819 195.871 142.405L198.856 142.022L201.554 141.672L201.588 141.667C201.893 141.609 202.106 141.327 202.07 141.017L200.669 128.699L215.699 124.22L217.162 123.788Z" fill="#000091"/>
<path fill-rule="evenodd" clip-rule="evenodd" d="M161.295 152.23C158.9 154.962 156.065 155.754 156.465 153.992C156.604 153.339 162.293 147.597 164.369 146.587C165.966 145.815 168.361 144.984 171.654 144.608" fill="white"/>
<path fill-rule="evenodd" clip-rule="evenodd" d="M157.041 154.162C157.028 154.224 157.024 154.274 157.025 154.31L157.026 154.331L157.038 154.334C157.133 154.351 157.327 154.333 157.591 154.25L157.641 154.233C158.571 153.924 159.787 153.045 160.843 151.84C161.06 151.593 161.438 151.567 161.688 151.782C161.937 151.997 161.964 152.372 161.747 152.62C160.56 153.974 159.172 154.976 158.023 155.36C156.637 155.821 155.565 155.253 155.879 153.869C156.097 152.85 162.13 147.015 164.106 146.054C166.116 145.082 168.611 144.357 171.586 144.018C171.914 143.98 172.211 144.214 172.249 144.54C172.287 144.866 172.051 145.16 171.723 145.198C168.883 145.522 166.519 146.208 164.633 147.121C163.77 147.54 162.017 149.003 160.109 150.849L159.874 151.077C159.174 151.761 158.516 152.438 157.997 153.005L157.792 153.231C157.58 153.47 157.402 153.677 157.268 153.846L157.233 153.892C157.167 153.976 157.115 154.047 157.077 154.103L157.048 154.147C157.044 154.153 157.043 154.15 157.046 154.134L157.041 154.162Z" fill="#000091"/>
<path fill-rule="evenodd" clip-rule="evenodd" d="M165.327 149.933C165.327 149.933 162.952 150.488 161.495 152.052C160.037 153.636 158.92 154.626 159.179 154.962C159.419 155.299 160.976 155.655 161.974 154.745C163.251 153.101 166.884 152.012 166.884 152.012C166.485 152.052 163.97 152.883 162.752 153.913C161.554 154.923 160.916 156.903 164.189 155.438C164.189 155.438 167.543 154.448 168.84 154.032" fill="white"/>
<path fill-rule="evenodd" clip-rule="evenodd" d="M165.19 149.355C165.512 149.28 165.834 149.478 165.91 149.797C165.986 150.117 165.786 150.436 165.464 150.512L165.436 150.519C165.402 150.527 165.349 150.541 165.281 150.561C165.124 150.606 164.948 150.662 164.758 150.73C164.214 150.924 163.671 151.172 163.168 151.476C162.689 151.766 162.272 152.093 161.937 152.452L161.388 153.037C160.909 153.545 160.3 154.188 160.144 154.366L160.055 154.469C160.013 154.518 159.975 154.564 159.941 154.607L159.89 154.671L159.933 154.681C160.029 154.703 160.135 154.718 160.245 154.724L160.311 154.728C160.772 154.742 161.202 154.617 161.523 154.347L161.537 154.334L161.554 154.313C161.61 154.245 161.669 154.177 161.732 154.11L161.787 154.052L161.792 154.046C161.945 153.855 162.12 153.672 162.311 153.506L162.364 153.461C163.443 152.548 165.982 151.505 166.824 151.421C167.533 151.351 167.744 152.338 167.092 152.569L166.843 152.649L166.66 152.711C166.534 152.754 166.399 152.802 166.258 152.855C165.651 153.079 165.046 153.337 164.484 153.623C163.741 154.002 163.14 154.399 162.73 154.797L162.709 154.817L162.683 154.851C162.538 155.042 162.436 155.224 162.395 155.348L162.39 155.365L162.408 155.365C162.693 155.362 163.159 155.234 163.789 154.964L163.943 154.896L163.98 154.881L164.037 154.863L164.823 154.63L166.101 154.248L167.335 153.876C167.894 153.706 168.343 153.567 168.656 153.467C168.971 153.366 169.308 153.537 169.41 153.849C169.512 154.161 169.339 154.496 169.024 154.597L168.53 154.753C168.293 154.826 168.019 154.91 167.713 155.004L166.941 155.237L165.941 155.537L164.397 155.996L164.342 156.02C163.573 156.357 162.958 156.534 162.479 156.552L162.423 156.553C161.84 156.56 161.39 156.307 161.236 155.829L161.225 155.794L161.217 155.796C160.232 156.064 159.139 155.877 158.717 155.34L158.704 155.323C158.468 155.017 158.503 154.683 158.68 154.344L158.702 154.303C158.805 154.115 158.962 153.907 159.189 153.646L159.242 153.584C159.495 153.298 160.761 151.968 161.055 151.649C161.473 151.2 161.976 150.806 162.544 150.462C163.122 150.113 163.737 149.832 164.352 149.612L164.487 149.565C164.794 149.46 165.036 149.391 165.19 149.355Z" fill="#000091"/>
<path fill-rule="evenodd" clip-rule="evenodd" d="M247.324 62.3238C254.853 62.3238 260.957 56.2696 260.957 48.8013C260.957 41.333 254.853 35.2787 247.324 35.2787C239.795 35.2787 233.691 41.333 233.691 48.8013C233.691 56.2696 239.795 62.3238 247.324 62.3238Z" fill="white"/>
<path fill-rule="evenodd" clip-rule="evenodd" d="M247.324 34.6847C239.464 34.6847 233.092 41.0049 233.092 48.8012C233.092 56.5976 239.464 62.9178 247.324 62.9178C255.184 62.9178 261.556 56.5976 261.556 48.8012C261.556 41.0049 255.184 34.6847 247.324 34.6847ZM247.324 35.8726C254.523 35.8726 260.358 41.661 260.358 48.8012C260.358 55.9415 254.523 61.7299 247.324 61.7299C240.126 61.7299 234.29 55.9415 234.29 48.8012C234.29 41.661 240.126 35.8726 247.324 35.8726Z" fill="#6A6AF4"/>
<path fill-rule="evenodd" clip-rule="evenodd" d="M253.035 40.1346C253.219 39.8623 253.591 39.79 253.866 39.973C254.13 40.1492 254.208 40.4979 254.048 40.7666L254.029 40.7973L248.38 49.1326C248.211 49.3824 247.881 49.4656 247.614 49.3319L247.581 49.314L240.954 45.4731C240.668 45.3076 240.572 44.9438 240.739 44.6606C240.9 44.3878 241.246 44.2892 241.526 44.4301L241.558 44.4474L247.7 48.0069L253.035 40.1346Z" fill="#6A6AF4"/>
<path fill-rule="evenodd" clip-rule="evenodd" d="M106.005 157.754H63.3297C62.8107 157.754 62.3716 157.338 62.3716 156.804V148.211C62.3716 147.696 62.7907 147.261 63.3297 147.261H106.005C106.524 147.261 106.963 147.676 106.963 148.211V156.804C106.963 157.338 106.524 157.754 106.005 157.754Z" fill="#000091"/>
<path fill-rule="evenodd" clip-rule="evenodd" d="M101.055 155.358C102.267 155.358 103.25 154.348 103.25 153.101C103.25 151.855 102.267 150.844 101.055 150.844C99.8421 150.844 98.8591 151.855 98.8591 153.101C98.8591 154.348 99.8421 155.358 101.055 155.358Z" fill="white"/>
<path fill-rule="evenodd" clip-rule="evenodd" d="M88.9587 155.358H66.4834C66.0243 155.358 65.645 154.982 65.645 154.527V151.656C65.645 151.201 66.0243 150.824 66.4834 150.824H88.9587C89.4178 150.824 89.797 151.201 89.797 151.656V154.527C89.797 155.002 89.4178 155.358 88.9587 155.358Z" fill="white"/>
<path fill-rule="evenodd" clip-rule="evenodd" d="M113.031 147.221H70.3557C69.8367 147.221 69.3976 146.805 69.3976 146.271V137.678C69.3976 137.163 69.8168 136.728 70.3557 136.728H113.031C113.55 136.728 113.989 137.143 113.989 137.678V146.271C113.989 146.785 113.57 147.221 113.031 147.221Z" fill="#FF8D7E"/>
<path fill-rule="evenodd" clip-rule="evenodd" d="M108.101 144.825C109.313 144.825 110.296 143.815 110.296 142.568C110.296 141.322 109.313 140.311 108.101 140.311C106.888 140.311 105.905 141.322 105.905 142.568C105.905 143.815 106.888 144.825 108.101 144.825Z" fill="white"/>
<path fill-rule="evenodd" clip-rule="evenodd" d="M96.0048 144.825H73.5095C73.0504 144.825 72.6711 144.449 72.6711 143.994V141.123C72.6711 140.668 73.0504 140.291 73.5095 140.291H95.9848C96.4439 140.291 96.8232 140.668 96.8232 141.123V143.994C96.8232 144.469 96.4639 144.825 96.0048 144.825Z" fill="white"/>
</g>
<defs>
<clipPath id="clip0_22768_3453">
<rect width="284" height="158.625" fill="white"/>
</clipPath>
</defs>
</svg>
