<svg width="288" height="159" viewBox="0 0 288 159" fill="none" xmlns="http://www.w3.org/2000/svg">
<g clip-path="url(#clip0_460_5482)">
<rect x="3" width="282" height="158.625" fill="#F6F6F6"/>
<path fill-rule="evenodd" clip-rule="evenodd" d="M46.5937 157.526H92.8901V110.009C92.8901 107.641 90.9315 105.713 88.5253 105.713H38.3491C35.9429 105.713 33.9844 107.641 33.9844 110.009L33.9844 145.096C33.9844 151.963 39.6175 157.526 46.5937 157.526Z" fill="#FFC29E"/>
<path fill-rule="evenodd" clip-rule="evenodd" d="M63.6228 99.9476C63.6228 99.9476 62.056 87.4075 62.5783 81.6974C63.1005 75.9873 65.8052 55.6807 71.6436 45.252C77.4819 34.8233 87.2 40.9006 87.2 40.9006C87.2 40.9006 95.5565 45.1418 91.9752 54.9279C88.3938 64.6956 78.3026 85.4796 75.5047 89.2619C72.7254 93.0441 66.3648 100.554 63.6228 99.9476Z" fill="#E0840B" fill-opacity="0.29"/>
<path fill-rule="evenodd" clip-rule="evenodd" d="M59.6128 81.0367C59.6128 81.0367 60.676 61.391 56.0688 51.9354C51.4615 42.4798 43.8512 34.9704 37.3227 39.7441C30.7942 44.5178 37.8636 58.8573 41.6315 64.3287C45.418 69.8001 59.6128 81.0367 59.6128 81.0367Z" fill="#E0840B" fill-opacity="0.29"/>
<path fill-rule="evenodd" clip-rule="evenodd" d="M62.6716 104.226C59.5939 104.207 44.1866 102.537 40.8477 92.1814C37.6021 82.1015 47.4322 76.4282 53.6249 81.4406C59.799 86.4346 62.6716 104.226 62.6716 104.226Z" fill="#E0840B" fill-opacity="0.29"/>
<path fill-rule="evenodd" clip-rule="evenodd" d="M67.3906 102.904C69.6663 99.5808 77.4445 90.2537 85.3347 91.0799C93.2248 91.9061 92.8891 98.5342 87.144 101.252C81.4176 103.987 67.3906 102.904 67.3906 102.904Z" fill="#E0840B" fill-opacity="0.29"/>
<path fill-rule="evenodd" clip-rule="evenodd" d="M38.8705 133.639C38.8892 130.738 38.5534 127.507 37.8819 124.606C42.6384 122.476 44.8767 117.886 42.6197 115.866C41.37 114.746 38.4415 117.703 36.6135 120.567C35.8487 118.767 34.9161 117.335 33.7783 116.527C29.8052 113.718 29.5254 120.291 30.1223 126.075C29.656 125.708 29.0778 125.359 28.4622 125.212C26.8021 124.826 25.4778 126.919 25.9814 128.664C26.3917 130.114 28.8353 130.555 30.6073 129.49C30.7752 130.481 30.9617 131.381 31.1296 132.06C31.1669 132.244 31.2228 132.428 31.2788 132.593C30.4767 132.226 29.712 132.005 29.2083 132.152C28.2943 132.391 26.3171 133.492 26.6342 134.961C26.9513 136.448 27.884 137.403 29.8985 136.963C30.7938 136.761 31.6332 136.283 32.286 135.788C33.6477 139.625 35.513 143.058 36.8373 142.104C37.9938 141.259 38.6653 138.652 38.8332 135.365C39.169 135.53 39.6539 135.769 40.3441 136.045C42.0415 136.742 42.6384 134.227 41.855 133.382C41.1648 132.703 40.027 132.831 38.8705 133.639Z" fill="white"/>
<path fill-rule="evenodd" clip-rule="evenodd" d="M39.3668 116.393C38.5028 117.152 37.5856 118.202 36.7717 119.339L36.707 119.431L36.7041 119.425C35.9554 117.911 35.0961 116.784 34.1058 116.081C31.9028 114.523 30.3202 115.379 29.6927 117.95L29.6705 118.043C29.2854 119.699 29.2323 122.082 29.4493 124.851L29.4609 124.996L29.3794 124.956C29.1208 124.834 28.8585 124.739 28.5942 124.676C26.5059 124.191 24.8185 126.65 25.4433 128.814L25.4598 128.869C25.9587 130.466 28.214 131.04 30.1307 130.328L30.1848 130.308L30.189 130.33C30.2714 130.771 30.3573 131.193 30.4433 131.58L30.4693 131.696L30.4669 131.695C29.9474 131.548 29.4954 131.511 29.1099 131.607L29.0495 131.624C28.4502 131.78 27.6694 132.184 27.0918 132.68C26.3005 133.36 25.8941 134.182 26.0871 135.076C26.5029 137.026 27.8502 137.975 30.0201 137.5L30.1242 137.475C30.749 137.321 31.3691 137.046 31.9575 136.684L32.0072 136.652L32.0181 136.681C32.6849 138.454 33.4076 139.98 34.1062 141.042C34.5595 141.73 35.004 142.229 35.4516 142.519C36.0291 142.893 36.6422 142.927 37.1682 142.548L37.2116 142.515C38.3645 141.632 39.0726 139.412 39.3287 136.343L39.3387 136.217L39.4114 136.25L39.5815 136.325C39.7532 136.4 39.9316 136.474 40.134 136.555C41.2129 136.998 42.1396 136.503 42.5495 135.496C42.895 134.648 42.8102 133.595 42.2684 133.011L42.2508 132.993L42.2085 132.952C41.512 132.302 40.5284 132.233 39.4994 132.66L39.4237 132.692L39.4224 132.604C39.3685 130.074 39.0634 127.411 38.5392 124.982L38.5243 124.914L38.5536 124.9C43.2237 122.589 45.6141 117.801 42.9963 115.459C42.1192 114.673 40.8748 115.1 39.4662 116.307L39.3668 116.393ZM42.2432 116.274C44.1704 117.998 41.992 122.16 37.6504 124.104C37.4086 124.213 37.2775 124.473 37.3365 124.728C37.986 127.534 38.3299 130.719 38.3111 133.636C38.3082 134.084 38.8227 134.348 39.1946 134.088L39.2519 134.049C40.1853 133.416 40.9846 133.339 41.4325 133.746L41.4489 133.762L41.4419 133.753C41.6604 133.989 41.7095 134.598 41.5106 135.087C41.3224 135.549 41.0346 135.714 40.601 135.552L40.5599 135.536C40.0088 135.316 39.6499 135.151 39.0836 134.872C38.7225 134.695 38.2948 134.94 38.2745 135.337L38.2621 135.562C38.0757 138.728 37.4111 140.998 36.5041 141.661C36.255 141.84 35.7503 141.514 35.0455 140.443C34.3115 139.328 33.524 137.605 32.8145 135.606C32.6886 135.251 32.2467 135.122 31.9444 135.351C31.2549 135.875 30.499 136.262 29.7737 136.425C28.2408 136.761 27.4749 136.221 27.1821 134.848C27.0039 134.023 28.1536 133.02 29.2975 132.699L29.352 132.684C29.6607 132.595 30.2632 132.735 31.043 133.092C31.4881 133.296 31.9651 132.877 31.8098 132.418C31.7583 132.266 31.7192 132.134 31.6914 132.012L31.6735 131.93C31.5011 131.232 31.3185 130.338 31.1594 129.399C31.0943 129.014 30.6543 128.816 30.3159 129.02C28.8254 129.915 26.8147 129.555 26.5206 128.516C26.1042 127.073 27.1953 125.483 28.3339 125.748C28.7973 125.858 29.2927 126.127 29.7729 126.505C30.1602 126.81 30.7294 126.505 30.6792 126.019C30.3435 122.766 30.3523 119.963 30.7808 118.207L30.8119 118.084C31.273 116.31 32.0067 115.953 33.452 116.975C34.4385 117.675 35.3257 118.963 36.0975 120.779C36.2725 121.191 36.8463 121.237 37.0875 120.86L37.2046 120.678C39.1274 117.735 41.5674 115.668 42.2432 116.274Z" fill="#000091"/>
<path fill-rule="evenodd" clip-rule="evenodd" d="M57.2437 132.795C56.4416 132.336 54.9681 132.226 53.5691 132.63C55.7701 128.535 57.3183 123.945 54.9867 123.651C52.4313 123.468 50.4541 125.396 48.9991 127.709C48.2717 126.516 46.91 125.432 45.8841 125.285C44.0002 125.028 42.881 126.02 43.366 127.654C43.739 128.866 45.7162 130.536 47.4137 130.757C46.7608 132.207 46.2945 133.548 45.9774 134.41C44.9328 137.256 44.653 142.287 44.653 142.287C44.653 142.287 45.996 142.067 48.6634 140.029C49.2603 139.588 50.6219 137.33 51.48 136.1C51.9836 136.283 52.7111 136.448 53.737 136.559C58.7546 137.128 58.6054 133.566 57.2437 132.795Z" fill="white"/>
<path fill-rule="evenodd" clip-rule="evenodd" d="M48.9816 126.728L48.9373 126.674C48.0953 125.67 46.9325 124.879 45.9648 124.74C43.6832 124.429 42.2257 125.775 42.829 127.808L42.8462 127.862C43.2773 129.151 44.981 130.616 46.6061 131.135L46.6349 131.144L46.5525 131.339C46.4098 131.68 46.27 132.029 46.1299 132.391L46.0458 132.611C45.9793 132.785 45.9144 132.958 45.8458 133.144L45.4513 134.223C45.1463 135.054 44.8896 136.095 44.6744 137.301C44.4807 138.387 44.3307 139.547 44.2187 140.707L44.1907 141.005C44.173 141.2 44.1571 141.388 44.143 141.566L44.1181 141.897L44.0945 142.257C44.0749 142.609 44.3918 142.888 44.7452 142.83L44.797 142.821C44.8645 142.806 44.9571 142.782 45.0744 142.746C45.3076 142.673 45.5816 142.566 45.8963 142.421C46.7431 142.029 47.7415 141.42 48.8912 140.552L49.0067 140.464C49.3808 140.188 49.8578 139.546 50.7161 138.252L51.4885 137.081L51.7083 136.752L51.7477 136.763C52.2412 136.9 52.8383 137.011 53.5431 137.091L53.6765 137.106C56.1406 137.386 57.7843 136.734 58.3928 135.406C58.9095 134.278 58.4961 132.868 57.5229 132.317L57.4636 132.284C56.7619 131.907 55.7404 131.76 54.6818 131.86L54.5922 131.869L54.6518 131.75C55.5592 129.922 56.2249 128.204 56.5249 126.831L56.5554 126.686C56.9681 124.653 56.5583 123.294 55.0579 123.105L55.0276 123.102C52.7306 122.937 50.7587 124.236 49.0602 126.617L48.9816 126.728ZM54.8746 124.196L54.9304 124.2L54.9158 124.198C55.5644 124.279 55.7731 125.033 55.4308 126.599C55.0944 128.138 54.2377 130.208 53.0747 132.372C52.8432 132.802 53.2519 133.295 53.7268 133.158C54.9431 132.807 56.2763 132.878 56.9626 133.271C57.4254 133.533 57.6587 134.329 57.3727 134.953C56.9991 135.768 55.8668 136.227 53.8943 136.022L53.8012 136.011C52.8786 135.912 52.1726 135.765 51.6745 135.583C51.4341 135.495 51.1639 135.58 51.0188 135.788L50.916 135.937C50.8569 136.023 50.7942 136.115 50.7261 136.217L49.7321 137.721C49.0221 138.787 48.5693 139.397 48.3429 139.577L48.3278 139.588C47.185 140.461 46.2179 141.054 45.4199 141.424L45.3115 141.473L45.2717 141.49L45.2808 141.384C45.2964 141.201 45.3137 141.009 45.3328 140.811C45.4422 139.678 45.5887 138.545 45.7767 137.492C45.9732 136.391 46.204 135.442 46.4691 134.694L46.7705 133.866C46.8886 133.543 46.9893 133.271 47.0937 132.997C47.3673 132.279 47.6363 131.622 47.9255 130.98C48.0768 130.644 47.8573 130.259 47.487 130.211C46.0806 130.028 44.2305 128.562 43.9017 127.494C43.5466 126.297 44.2775 125.622 45.8075 125.831C46.6305 125.949 47.8618 126.913 48.5195 127.992C48.7351 128.346 49.2546 128.35 49.4751 127.999C51.0766 125.452 52.8725 124.087 54.8746 124.196Z" fill="#000091"/>
<path fill-rule="evenodd" clip-rule="evenodd" d="M35.3267 157.673H45.5298C52.6552 157.673 58.4376 151.981 58.4376 144.967V144.49C58.4376 141.828 56.2552 139.68 53.5506 139.68H27.306C24.6013 139.68 22.4189 141.828 22.4189 144.49V144.967C22.4189 151.981 28.2013 157.673 35.3267 157.673Z" fill="#000091"/>
<path fill-rule="evenodd" clip-rule="evenodd" d="M221.557 54.1569C261.866 52.1373 267.611 73.1232 266.118 89.0601C264.589 105.382 259.646 157.765 259.646 157.765C259.888 157.985 163.658 157.985 163.938 157.765C163.938 157.765 168.881 105.382 170.411 89.0601C171.903 73.1232 181.621 52.1373 221.557 54.1569Z" fill="#FF8D7E"/>
<path fill-rule="evenodd" clip-rule="evenodd" d="M221.767 54.1803C221.805 53.8784 222.085 53.6643 222.392 53.7021C234.989 55.252 243.424 59.9708 248.178 67.2884C252.037 73.2281 253.305 80.6063 252.538 88.7807L246.028 157.76C245.999 158.063 245.727 158.286 245.419 158.258C245.111 158.23 244.885 157.962 244.913 157.659L251.423 88.6788C252.169 80.7287 250.942 73.5881 247.235 67.8819C242.672 60.8574 234.537 56.3066 222.253 54.7952C221.946 54.7575 221.729 54.4822 221.767 54.1803Z" fill="white"/>
<path fill-rule="evenodd" clip-rule="evenodd" d="M237.412 135.273C231.909 128.425 226.817 125.891 222.005 125.652C220.214 117.831 218.106 109.973 215.812 103.859C200.423 62.7497 137.059 84.4884 129.748 87.4995C119.75 91.6123 109.323 100.076 101.078 115.481C98.3921 115.481 95.3703 115.775 92.1247 116.27C80.1496 118.07 71.8117 129.031 73.3786 139.129C75.6356 158.554 86.5848 157.912 97.2169 157.232C97.7206 157.544 98.3174 157.728 98.9703 157.728H224.299C224.429 157.728 224.579 157.71 224.709 157.71H233.588C241.31 151.228 243.12 141.865 237.412 135.273Z" fill="#6A6AF4"/>
<path fill-rule="evenodd" clip-rule="evenodd" d="M147.318 70.4609L147.953 84.3414C147.953 84.3414 146.498 95.3393 157.111 96.0553C170.373 96.9366 172.966 86.9302 172.966 86.9302L173.899 73.1783L147.318 70.4609Z" fill="white"/>
<path fill-rule="evenodd" clip-rule="evenodd" d="M146.759 70.4858L147.392 84.32L147.382 84.4058C147.376 84.4737 147.368 84.5578 147.361 84.657C147.231 86.4206 147.404 88.4552 148.128 90.4056C149.458 93.9914 152.335 96.2853 157.073 96.605C163.258 97.0159 167.725 95.1893 170.713 91.8867C171.66 90.8403 172.384 89.7197 172.916 88.5977C173.103 88.2034 173.253 87.8361 173.37 87.5048L173.418 87.3627C173.462 87.2311 173.492 87.1311 173.508 87.0664C173.517 87.0338 173.522 87.0006 173.524 86.967L174.457 73.2151C174.477 72.9194 174.256 72.6611 173.957 72.6305L147.376 69.9132C147.036 69.8784 146.744 70.1495 146.759 70.4858ZM147.906 71.0748L173.304 73.6712L172.411 86.8382L172.4 86.8764C172.377 86.9528 172.348 87.0426 172.312 87.1447C172.208 87.441 172.072 87.7729 171.902 88.1317C171.414 89.1613 170.747 90.1922 169.877 91.154C167.117 94.2043 162.986 95.8937 157.149 95.5059C152.87 95.2172 150.363 93.2186 149.179 90.0278C148.519 88.247 148.357 86.3586 148.477 84.7368L148.49 84.5801L148.507 84.4126C148.512 84.3808 148.513 84.3488 148.512 84.3167L147.906 71.0748Z" fill="#000091"/>
<path fill-rule="evenodd" clip-rule="evenodd" d="M145.621 50.8704C145.621 50.8704 136.033 46.6842 135.772 55.4605C135.492 64.2184 144.185 63.0984 144.185 63.0984" fill="white"/>
<path fill-rule="evenodd" clip-rule="evenodd" d="M140.675 49.3267C141.854 49.2873 143.101 49.487 144.339 49.8429C144.733 49.9562 145.098 50.0777 145.425 50.1994L145.52 50.2351C145.67 50.2922 145.781 50.3377 145.848 50.367C146.13 50.4904 146.258 50.8158 146.133 51.0939C146.012 51.362 145.7 51.4882 145.425 51.3863L145.305 51.3367L145.204 51.2965C145.15 51.2755 145.092 51.2532 145.029 51.2298C144.728 51.1177 144.39 51.0053 144.025 50.9003C142.893 50.5746 141.757 50.3928 140.713 50.4277C138.021 50.5176 136.436 51.9818 136.332 55.4779C136.215 59.1215 137.659 61.1691 140.17 62.0852C141.381 62.5271 142.667 62.6467 143.781 62.5797L143.892 62.5724C143.941 62.5689 143.983 62.5654 144.018 62.5623L144.112 62.5524C144.419 62.5129 144.7 62.7254 144.74 63.0271C144.78 63.3287 144.564 63.6052 144.257 63.6447L144.16 63.6555C144.11 63.6605 144.047 63.6658 143.974 63.6711C142.688 63.7635 141.206 63.6383 139.781 63.1182C136.825 62.0396 135.081 59.5667 135.213 55.4445C135.335 51.3513 137.409 49.4358 140.675 49.3267Z" fill="#000091"/>
<path fill-rule="evenodd" clip-rule="evenodd" d="M182.535 57.8108C182.535 57.8108 193.13 56.4705 190.929 64.8428C188.728 73.2151 180.521 69.7817 180.521 69.7817" fill="white"/>
<path fill-rule="evenodd" clip-rule="evenodd" d="M182.919 57.2222C184.212 57.1277 185.642 57.1764 187.004 57.4755C188.632 57.8327 189.938 58.5104 190.785 59.5899C191.811 60.8983 192.072 62.6929 191.471 64.9809C190.588 68.3399 188.697 70.212 186.124 70.8179C184.606 71.1753 183.005 71.063 181.465 70.663C181.195 70.5928 180.946 70.5181 180.721 70.4426L180.626 70.4102C180.474 70.3572 180.364 70.3149 180.302 70.2888C180.017 70.1698 179.885 69.8464 180.006 69.5664C180.122 69.2965 180.432 69.1655 180.709 69.2631L180.8 69.2988L180.872 69.3261C180.898 69.3356 180.926 69.3455 180.955 69.3558L180.999 69.3714C181.22 69.4483 181.473 69.5256 181.751 69.5979C183.127 69.9554 184.552 70.0553 185.863 69.7465C188.028 69.2367 189.607 67.6742 190.387 64.7049C191.34 61.0819 189.893 59.2383 186.761 58.5507C185.522 58.2788 184.195 58.2337 183.002 58.3208L182.873 58.3309C182.833 58.3343 182.794 58.3378 182.757 58.3412L182.627 58.3547L182.607 58.3572C182.3 58.396 182.02 58.1828 181.98 57.8811C181.941 57.5794 182.157 57.3033 182.464 57.2646L182.542 57.2555C182.623 57.2467 182.732 57.2364 182.867 57.2261L182.919 57.2222Z" fill="#000091"/>
<path fill-rule="evenodd" clip-rule="evenodd" d="M181.733 66.3481C176.342 82.6338 167.016 87.536 156.608 84.9288C146.218 82.3216 139.261 71.746 143.159 56.7456C147.057 41.7452 156.403 30.8391 169.03 34.3092C185.221 38.7524 186.62 51.623 181.733 66.3481Z" fill="white"/>
<path fill-rule="evenodd" clip-rule="evenodd" d="M152.433 38.2043C148.05 42.3545 144.64 48.8267 142.617 56.6094C140.719 63.9125 141.279 70.5158 144.029 75.7384C146.622 80.6649 151.055 84.1041 156.47 85.4629C167.971 88.3439 177.101 82.1209 182.265 66.519C184.911 58.5462 185.527 51.7456 183.821 46.3106C181.923 40.2657 177.187 36.035 169.418 33.8447L169.181 33.779C162.94 32.0639 157.201 33.6902 152.433 38.2043ZM168.88 34.84C176.439 36.9143 180.952 40.9048 182.752 46.6359C184.379 51.8173 183.782 58.4012 181.201 66.1774C176.206 81.2686 167.622 87.1197 156.746 84.3953C151.639 83.1139 147.469 79.8777 145.022 75.2316C142.405 70.2605 141.869 63.934 143.701 56.8824C145.676 49.2838 148.992 42.9915 153.209 38.9982C157.701 34.7454 163.035 33.2338 168.88 34.84Z" fill="#000091"/>
<path fill-rule="evenodd" clip-rule="evenodd" d="M160.317 55.3623C160.424 55.0768 160.745 54.9305 161.035 55.0355C161.315 55.1368 161.463 55.4347 161.378 55.7119L161.367 55.7426L157.154 67.0157L161.249 67.8092C161.541 67.8658 161.735 68.1371 161.695 68.4241L161.69 68.456C161.632 68.7438 161.356 68.9348 161.065 68.8954L161.032 68.8901L156.295 67.972C155.968 67.9087 155.772 67.5815 155.867 67.2723L155.877 67.2414L160.317 55.3623Z" fill="#000091"/>
<path fill-rule="evenodd" clip-rule="evenodd" d="M168.782 50.6359C170.825 49.815 172.639 50.4844 174.122 52.0504C174.475 52.4224 174.781 52.819 175.042 53.2159L175.107 53.3157C175.23 53.509 175.318 53.6629 175.369 53.7621C175.508 54.0337 175.397 54.365 175.121 54.5019C174.855 54.6338 174.533 54.5375 174.386 54.2876L174.332 54.1895L174.307 54.1451C174.25 54.046 174.182 53.9347 174.102 53.8143C173.875 53.4686 173.608 53.1227 173.304 52.8017C172.105 51.5367 170.748 51.0357 169.205 51.6558C168.919 51.7708 168.592 51.6357 168.475 51.354C168.358 51.0724 168.496 50.7509 168.782 50.6359Z" fill="#000091"/>
<path fill-rule="evenodd" clip-rule="evenodd" d="M165.881 73.5776C166.038 73.3156 166.381 73.2286 166.648 73.3832C166.914 73.5378 167.002 73.8755 166.845 74.1375C166.109 75.3647 165.027 76.043 163.721 76.2423C162.72 76.3949 161.671 76.2604 160.648 75.9463L160.499 75.8991C160.136 75.7812 159.855 75.666 159.682 75.5824C159.404 75.4487 159.289 75.1188 159.425 74.8455C159.561 74.5723 159.896 74.4592 160.174 74.593L160.201 74.6057C160.24 74.6232 160.3 74.6496 160.381 74.6823C160.559 74.7544 160.761 74.8269 160.982 74.8947C161.855 75.163 162.743 75.2767 163.549 75.1537C164.536 75.0032 165.322 74.5101 165.881 73.5776Z" fill="#000091"/>
<path fill-rule="evenodd" clip-rule="evenodd" d="M152.374 47.7939C153.784 47.3589 155.251 47.701 156.663 48.5164C157 48.7111 157.308 48.9194 157.582 49.1283L157.699 49.2187C157.806 49.3037 157.887 49.3723 157.938 49.419C158.165 49.6253 158.18 49.9738 157.97 50.1974C157.768 50.4124 157.433 50.4336 157.206 50.2515L157.113 50.1714L157.034 50.1067C156.992 50.0728 156.946 50.0369 156.897 49.9992C156.659 49.8178 156.39 49.636 156.097 49.4665C154.931 48.7932 153.761 48.5205 152.709 48.8451C152.26 48.9835 151.834 49.2307 151.431 49.6019C151.205 49.8097 150.851 49.7981 150.64 49.5759C150.429 49.3538 150.441 49.0052 150.667 48.7974C151.191 48.3145 151.763 47.9823 152.374 47.7939Z" fill="#000091"/>
<path fill-rule="evenodd" clip-rule="evenodd" d="M170.094 60.8394C170.292 59.6177 169.802 58.5248 168.998 58.3984C168.194 58.2719 167.382 59.1597 167.184 60.3813C166.985 61.6029 167.476 62.6958 168.279 62.8223C169.083 62.9488 169.895 62.061 170.094 60.8394Z" fill="#000091"/>
<path fill-rule="evenodd" clip-rule="evenodd" d="M154.249 58.6196C154.448 57.398 153.957 56.3051 153.153 56.1786C152.35 56.0521 151.537 56.9399 151.339 58.1616C151.14 59.3832 151.631 60.4761 152.435 60.6026C153.238 60.7291 154.051 59.8413 154.249 58.6196Z" fill="#000091"/>
<path fill-rule="evenodd" clip-rule="evenodd" d="M200.909 91.2814C199.193 71.2502 198.615 49.585 195.033 43.0119C187.964 30.0311 177.089 30.8574 177.089 30.8574V30.8574C171.549 22.3198 145.137 19.4372 134.878 44.3523C134.262 45.8578 135.102 47.4735 136.575 47.9509C129.953 63.7959 133.218 103.308 133.218 103.308L149.725 105.749L148.998 91.0428C147.487 87.8664 147.953 84.3596 147.953 84.3596L147.748 79.9164C143.906 76.0056 141.667 70.2404 142.115 63.0982C139.56 62.8412 135.549 61.4641 135.736 55.4603C135.978 47.8958 143.141 49.9705 145.099 50.6866C145.566 49.5115 146.051 48.3915 146.592 47.3083C151.535 46.1516 157.224 43.5628 162.484 38.1648L157.672 45.766C157.672 45.766 166.438 46.9594 172.631 42.7916C174.179 48.4466 178.04 55.038 183.86 57.4065C183.841 57.5167 183.823 57.6268 183.804 57.737C184.121 57.737 184.476 57.737 184.849 57.7553C185.781 58.0491 186.751 58.2327 187.777 58.2694V58.2694C190.034 59.0406 191.937 60.8215 190.874 64.8241C188.673 73.1964 180.465 69.7631 180.465 69.7631L180.484 69.6162C178.488 74.5551 176.082 78.2272 173.359 80.816L172.948 86.93C172.948 86.93 172.818 87.4258 172.482 88.1602C172.37 91.2264 172.034 102.279 172.519 105.731C186.826 105.603 201.636 99.7456 200.909 91.2814Z" fill="#000091"/>
<path d="M182.12 131.138C180.959 131.301 180.004 131.106 179.253 130.554C178.511 129.991 178.054 129.121 177.883 127.944C177.791 127.308 177.823 126.694 177.979 126.1C178.134 125.497 178.438 124.982 178.89 124.557C179.343 124.131 179.964 123.863 180.754 123.752C181.487 123.649 182.129 123.731 182.683 123.996C183.235 124.253 183.678 124.629 184.012 125.125C184.356 125.62 184.573 126.181 184.665 126.807C184.69 126.984 184.65 127.142 184.544 127.281C184.448 127.418 184.3 127.501 184.1 127.529L179.261 128.208C179.429 128.823 179.745 129.293 180.209 129.619C180.673 129.935 181.29 130.039 182.061 129.931C182.489 129.871 182.845 129.783 183.129 129.667C183.412 129.542 183.677 129.395 183.924 129.227C183.995 129.179 184.078 129.148 184.173 129.135C184.325 129.113 184.466 129.146 184.595 129.233C184.724 129.319 184.8 129.442 184.824 129.601C184.84 129.713 184.817 129.821 184.754 129.925C184.7 130.019 184.624 130.101 184.528 130.171C184.24 130.393 183.919 130.59 183.566 130.764C183.22 130.927 182.738 131.051 182.12 131.138ZM179.111 127.171L183.321 126.58C183.222 126.099 183.036 125.724 182.764 125.457C182.502 125.189 182.204 125.007 181.869 124.911C181.535 124.815 181.215 124.788 180.911 124.831C180.606 124.874 180.307 124.987 180.014 125.171C179.72 125.355 179.486 125.612 179.31 125.942C179.135 126.271 179.068 126.681 179.111 127.171Z" fill="white"/>
<path d="M174.68 132.182C174.005 132.277 173.356 132.22 172.733 132.012C172.109 131.794 171.581 131.434 171.149 130.933C170.715 130.422 170.442 129.778 170.329 129.003C170.215 128.218 170.294 127.526 170.566 126.925C170.838 126.325 171.243 125.839 171.781 125.468C172.318 125.088 172.924 124.85 173.6 124.756C174.161 124.677 174.638 124.686 175.031 124.784C175.432 124.87 175.763 124.976 176.024 125.102C176.232 125.197 176.351 125.347 176.381 125.552C176.4 125.683 176.366 125.816 176.279 125.953C176.192 126.089 176.072 126.167 175.92 126.189C175.815 126.203 175.707 126.19 175.594 126.149C175.327 126.053 175.069 125.979 174.819 125.929C174.569 125.878 174.258 125.879 173.887 125.931C173.059 126.047 172.446 126.371 172.048 126.903C171.659 127.434 171.519 128.074 171.628 128.821C171.737 129.568 172.054 130.143 172.578 130.546C173.112 130.948 173.793 131.091 174.621 130.975C174.992 130.923 175.291 130.838 175.516 130.721C175.741 130.594 175.968 130.452 176.197 130.296C176.294 130.225 176.394 130.183 176.499 130.168C176.651 130.147 176.789 130.189 176.911 130.296C177.033 130.403 177.104 130.522 177.123 130.653C177.153 130.858 177.082 131.035 176.909 131.183C176.693 131.366 176.405 131.559 176.046 131.761C175.697 131.963 175.242 132.103 174.68 132.182Z" fill="white"/>
<path d="M163.247 133.714C163.066 133.739 162.905 133.7 162.764 133.596C162.622 133.492 162.539 133.351 162.513 133.173L161.638 127.162C161.611 126.976 161.65 126.813 161.756 126.674C161.862 126.535 162.006 126.453 162.187 126.428C162.367 126.402 162.528 126.442 162.67 126.546C162.821 126.649 162.91 126.793 162.937 126.98L163.021 127.555C163.277 127.185 163.591 126.841 163.963 126.522C164.342 126.192 164.85 125.983 165.488 125.893C166.03 125.817 166.51 125.879 166.927 126.077C167.343 126.267 167.682 126.558 167.943 126.95C168.202 127.333 168.369 127.777 168.442 128.281L169.021 132.261C169.047 132.438 169.002 132.597 168.887 132.737C168.78 132.876 168.637 132.958 168.456 132.983C168.276 133.009 168.114 132.969 167.973 132.865C167.832 132.761 167.748 132.62 167.722 132.443L167.164 128.604C167.086 128.071 166.902 127.673 166.611 127.409C166.328 127.134 165.906 127.036 165.345 127.114C164.831 127.186 164.404 127.385 164.062 127.709C163.721 128.033 163.434 128.393 163.2 128.788L163.812 132.991C163.837 133.169 163.793 133.327 163.677 133.468C163.571 133.606 163.428 133.688 163.247 133.714Z" fill="white"/>
<path d="M156.456 134.738C156.047 134.795 155.649 134.765 155.263 134.648C154.887 134.529 154.566 134.331 154.303 134.053C154.047 133.765 153.887 133.401 153.824 132.962C153.727 132.299 153.915 131.72 154.386 131.225C154.866 130.719 155.663 130.388 156.776 130.232L158.503 129.99L158.487 129.878C158.396 129.252 158.174 128.83 157.822 128.613C157.469 128.386 156.968 128.318 156.321 128.408C155.922 128.464 155.575 128.551 155.281 128.669C154.996 128.775 154.726 128.889 154.472 129.011C154.399 129.04 154.338 129.058 154.291 129.065C154.148 129.085 154.017 129.051 153.897 128.963C153.777 128.875 153.707 128.756 153.685 128.607C153.648 128.354 153.746 128.159 153.979 128.022C154.291 127.835 154.641 127.667 155.027 127.518C155.421 127.357 155.87 127.242 156.374 127.171C157.069 127.074 157.655 127.13 158.132 127.339C158.609 127.549 158.983 127.849 159.253 128.24C159.524 128.631 159.692 129.056 159.759 129.513L160.336 133.479C160.362 133.656 160.317 133.815 160.201 133.955C160.095 134.094 159.952 134.176 159.771 134.201C159.59 134.227 159.429 134.187 159.288 134.083C159.147 133.979 159.063 133.838 159.037 133.661L158.984 133.296C158.765 133.594 158.458 133.885 158.063 134.169C157.667 134.453 157.131 134.643 156.456 134.738ZM156.778 133.549C157.225 133.486 157.628 133.32 157.987 133.05C158.346 132.781 158.625 132.494 158.823 132.189L158.652 131.013L157.096 131.231C156.43 131.324 155.914 131.482 155.549 131.705C155.192 131.927 155.044 132.238 155.102 132.64C155.146 132.939 155.288 133.186 155.53 133.38C155.782 133.574 156.198 133.63 156.778 133.549Z" fill="white"/>
<path d="M146.535 136.058C146.354 136.083 146.193 136.044 146.052 135.939C145.91 135.835 145.827 135.695 145.801 135.517L144.926 129.506C144.899 129.319 144.938 129.156 145.045 129.018C145.151 128.879 145.294 128.797 145.475 128.771C145.656 128.746 145.817 128.786 145.958 128.89C146.109 128.992 146.198 129.137 146.225 129.324L146.309 129.898C146.566 129.529 146.88 129.185 147.251 128.866C147.63 128.536 148.138 128.326 148.776 128.237C149.318 128.161 149.798 128.222 150.215 128.421C150.631 128.611 150.97 128.902 151.231 129.294C151.49 129.677 151.657 130.121 151.73 130.625L152.309 134.604C152.335 134.782 152.29 134.941 152.175 135.081C152.069 135.22 151.925 135.302 151.744 135.327C151.564 135.352 151.403 135.313 151.261 135.209C151.12 135.105 151.036 134.964 151.01 134.786L150.452 130.947C150.374 130.415 150.19 130.017 149.899 129.752C149.616 129.477 149.194 129.379 148.633 129.458C148.119 129.53 147.692 129.728 147.351 130.053C147.009 130.377 146.722 130.736 146.488 131.131L147.1 135.335C147.126 135.512 147.081 135.671 146.965 135.811C146.859 135.95 146.716 136.032 146.535 136.058Z" fill="white"/>
<path d="M141.071 136.824C140.89 136.849 140.729 136.81 140.588 136.706C140.446 136.602 140.363 136.461 140.337 136.284L139.462 130.273C139.437 130.095 139.477 129.937 139.583 129.798C139.687 129.65 139.83 129.563 140.011 129.538C140.192 129.513 140.353 129.557 140.496 129.67C140.647 129.773 140.735 129.913 140.761 130.091L140.849 130.693C141.057 130.321 141.327 129.973 141.658 129.65C141.99 129.327 142.403 129.131 142.898 129.062L142.969 129.052C143.15 129.026 143.306 129.066 143.438 129.172C143.58 129.276 143.663 129.417 143.689 129.594C143.715 129.772 143.674 129.925 143.567 130.055C143.459 130.184 143.311 130.262 143.12 130.289L143.049 130.299C142.583 130.364 142.176 130.54 141.83 130.827C141.482 131.105 141.21 131.443 141.016 131.842L141.636 136.102C141.662 136.279 141.617 136.438 141.501 136.578C141.395 136.717 141.252 136.799 141.071 136.824Z" fill="white"/>
<path d="M135.609 137.661C134.448 137.824 133.493 137.629 132.742 137.077C132 136.514 131.544 135.643 131.372 134.466C131.28 133.831 131.312 133.217 131.468 132.623C131.623 132.02 131.927 131.505 132.38 131.08C132.832 130.654 133.453 130.386 134.243 130.275C134.976 130.172 135.619 130.254 136.172 130.519C136.724 130.775 137.167 131.152 137.501 131.648C137.845 132.143 138.063 132.704 138.154 133.33C138.18 133.507 138.14 133.665 138.033 133.804C137.937 133.941 137.789 134.024 137.589 134.052L132.751 134.731C132.918 135.346 133.234 135.816 133.699 136.142C134.162 136.458 134.779 136.562 135.55 136.454C135.978 136.394 136.334 136.306 136.618 136.19C136.901 136.065 137.166 135.918 137.414 135.75C137.484 135.702 137.567 135.671 137.662 135.658C137.815 135.636 137.955 135.669 138.084 135.756C138.214 135.842 138.29 135.965 138.313 136.124C138.329 136.236 138.306 136.344 138.243 136.448C138.189 136.542 138.114 136.624 138.017 136.694C137.729 136.916 137.408 137.113 137.055 137.287C136.71 137.45 136.228 137.574 135.609 137.661ZM132.6 133.694L136.81 133.103C136.711 132.622 136.525 132.247 136.254 131.98C135.991 131.712 135.693 131.53 135.358 131.434C135.024 131.338 134.705 131.311 134.4 131.354C134.096 131.397 133.797 131.51 133.503 131.694C133.209 131.878 132.975 132.135 132.8 132.465C132.624 132.794 132.558 133.204 132.6 133.694Z" fill="white"/>
<path d="M129.515 138.516C129.344 138.54 129.137 138.55 128.893 138.546C128.661 138.55 128.422 138.512 128.178 138.432C127.941 138.341 127.728 138.18 127.54 137.949C127.351 137.718 127.225 137.388 127.162 136.958L126.53 132.615L125.517 132.757C125.336 132.782 125.233 132.706 125.207 132.529C125.193 132.435 125.225 132.35 125.301 132.272L126.971 130.137C126.987 130.115 127.012 130.088 127.046 130.055C127.088 130.011 127.138 129.985 127.195 129.977C127.271 129.966 127.337 129.985 127.393 130.035C127.458 130.083 127.496 130.144 127.507 130.219L127.67 131.34L129.283 131.113C129.445 131.091 129.585 131.123 129.705 131.212C129.824 131.3 129.896 131.423 129.919 131.582C129.941 131.731 129.907 131.869 129.819 131.996C129.729 132.114 129.604 132.184 129.442 132.206L127.829 132.433L128.445 136.664C128.484 136.935 128.565 137.124 128.687 137.231C128.81 137.337 128.944 137.395 129.091 137.403C129.246 137.4 129.381 137.391 129.495 137.375C129.723 137.343 129.887 137.301 129.986 137.249C130.094 137.186 130.209 137.146 130.333 137.128C130.466 137.11 130.592 137.14 130.71 137.219C130.828 137.297 130.898 137.411 130.92 137.561C130.951 137.776 130.866 137.954 130.663 138.097C130.503 138.196 130.326 138.283 130.133 138.357C129.95 138.431 129.744 138.484 129.515 138.516Z" fill="white"/>
<path d="M124.081 139.206C123.9 139.232 123.739 139.192 123.597 139.088C123.456 138.984 123.373 138.843 123.347 138.666L122.023 129.572C121.996 129.385 122.036 129.223 122.142 129.084C122.248 128.945 122.391 128.863 122.572 128.838C122.762 128.811 122.928 128.85 123.069 128.954C123.211 129.058 123.295 129.203 123.322 129.39L124.646 138.484C124.671 138.661 124.631 138.819 124.525 138.958C124.419 139.097 124.271 139.18 124.081 139.206Z" fill="white"/>
<path d="M117.29 140.23C116.881 140.288 116.483 140.258 116.097 140.14C115.721 140.021 115.4 139.823 115.137 139.546C114.881 139.257 114.721 138.894 114.658 138.455C114.561 137.792 114.749 137.212 115.22 136.717C115.7 136.212 116.497 135.881 117.61 135.725L119.337 135.482L119.321 135.37C119.23 134.744 119.008 134.323 118.656 134.105C118.303 133.878 117.802 133.81 117.155 133.901C116.756 133.957 116.409 134.044 116.115 134.161C115.83 134.268 115.56 134.382 115.306 134.504C115.233 134.533 115.172 134.551 115.125 134.558C114.982 134.578 114.851 134.544 114.731 134.455C114.611 134.367 114.541 134.249 114.519 134.099C114.482 133.847 114.58 133.652 114.813 133.515C115.125 133.328 115.475 133.16 115.861 133.01C116.255 132.85 116.704 132.735 117.208 132.664C117.903 132.567 118.489 132.623 118.966 132.832C119.443 133.042 119.817 133.342 120.087 133.733C120.358 134.124 120.526 134.548 120.593 135.006L121.17 138.971C121.196 139.149 121.151 139.308 121.035 139.448C120.929 139.586 120.786 139.668 120.605 139.694C120.424 139.719 120.263 139.68 120.122 139.576C119.981 139.472 119.897 139.331 119.871 139.153L119.818 138.789C119.599 139.087 119.292 139.378 118.897 139.662C118.501 139.946 117.965 140.136 117.29 140.23ZM117.612 139.041C118.059 138.979 118.462 138.812 118.821 138.543C119.18 138.273 119.459 137.986 119.657 137.682L119.486 136.505L117.93 136.723C117.264 136.817 116.748 136.975 116.383 137.198C116.026 137.419 115.878 137.731 115.936 138.133C115.979 138.431 116.122 138.678 116.364 138.873C116.616 139.067 117.032 139.123 117.612 139.041Z" fill="white"/>
<path fill-rule="evenodd" clip-rule="evenodd" d="M190.556 127.672L190.462 117.316L187.776 119.134C187.776 119.134 187.609 119.318 187.87 122.733C188.224 127.231 183.3 126.845 182.927 125.725C182.554 124.605 183.43 118.051 184.643 116.05C185.389 114.783 189.175 112.029 191.899 110.137C193.652 108.926 195.965 108.742 197.886 109.697C201.934 111.68 209.861 118.253 210.943 121.466C211.41 122.825 213.685 130.701 213.685 130.701L216.315 136.485L202.456 142.176L198.558 133.602C192.757 134.685 190.63 127.929 190.63 127.929" fill="white"/>
<path fill-rule="evenodd" clip-rule="evenodd" d="M191.577 109.687C193.507 108.353 196.041 108.163 198.136 109.204C202.768 111.473 210.421 118.162 211.474 121.29L211.524 121.439C211.657 121.843 211.88 122.573 212.18 123.575L212.848 125.831L213.316 127.426L214.213 130.512L216.826 136.26C216.95 136.532 216.831 136.85 216.562 136.98L216.531 136.993L202.672 142.685C202.402 142.796 202.094 142.683 201.96 142.431L201.946 142.402L198.223 134.213L198.194 134.217C195.507 134.554 193.365 133.375 191.753 131.222L191.698 131.147C191.208 130.481 190.804 129.77 190.481 129.059L190.418 128.919C190.258 128.557 190.152 128.271 190.096 128.092C190.083 128.05 190.075 128.009 190.072 127.967L190.071 127.947L190.07 127.945C190.029 127.875 190.004 127.795 189.998 127.709L189.996 127.677L189.912 118.357L188.292 119.454L188.286 119.56C188.268 120.024 188.298 120.93 188.406 122.396L188.428 122.69C188.606 124.954 187.557 126.408 185.816 126.868C184.387 127.246 182.709 126.839 182.395 125.897C181.916 124.458 182.966 117.842 184.124 115.833L184.159 115.774C184.848 114.604 187.545 112.487 191.577 109.687ZM197.634 110.189C195.907 109.33 193.814 109.488 192.222 110.588L191.657 110.982C188.171 113.426 185.716 115.373 185.141 116.303L185.124 116.332C184.624 117.156 184.115 119.023 183.762 121.189L183.715 121.486C183.42 123.397 183.32 125.137 183.459 125.554L183.464 125.561C183.476 125.575 183.509 125.604 183.567 125.642C183.68 125.715 183.844 125.781 184.04 125.828C184.491 125.938 185.033 125.934 185.526 125.804C186.729 125.486 187.427 124.539 187.318 122.854L187.268 122.178C187.154 120.539 187.14 119.617 187.193 119.196L187.196 119.172C187.22 118.996 187.257 118.88 187.361 118.766C187.38 118.744 187.402 118.724 187.425 118.706L187.46 118.68L190.146 116.863C190.507 116.619 190.995 116.859 191.021 117.281L191.022 117.312L191.115 127.654L191.128 127.677C191.138 127.696 191.147 127.715 191.155 127.735L191.189 127.837C191.203 127.876 191.221 127.926 191.243 127.987C191.313 128.174 191.4 128.383 191.502 128.609C191.796 129.255 192.163 129.901 192.604 130.501C194.082 132.511 195.998 133.52 198.454 133.061C198.697 133.016 198.941 133.133 199.054 133.348L199.069 133.377L202.744 141.461L215.57 136.194L213.175 130.926C213.169 130.914 213.164 130.902 213.16 130.89L213.128 130.786L212.72 129.379L212.24 127.731L211.432 124.981C210.942 123.327 210.592 122.172 210.431 121.693L210.412 121.639C209.473 118.848 202.028 112.341 197.634 110.189Z" fill="#000091"/>
<path fill-rule="evenodd" clip-rule="evenodd" d="M193.112 113.424C193.112 113.424 186.863 117.06 186.789 121.246C186.714 125.432 187.833 129.453 190.314 129.563C192.795 129.673 192.03 127.635 192.03 127.635" fill="white"/>
<path fill-rule="evenodd" clip-rule="evenodd" d="M192.827 112.95C193.093 112.795 193.436 112.882 193.593 113.144C193.744 113.396 193.668 113.719 193.425 113.881L193.263 113.979C193.238 113.994 193.211 114.011 193.184 114.028L193.141 114.055C192.932 114.187 192.698 114.341 192.445 114.516C191.724 115.016 191.002 115.58 190.33 116.195C188.483 117.885 187.377 119.619 187.347 121.256C187.269 125.667 188.498 128.931 190.339 129.013C191.188 129.051 191.487 128.852 191.562 128.491C191.596 128.33 191.583 128.139 191.54 127.952L191.527 127.902C191.519 127.871 191.512 127.849 191.508 127.835L191.505 127.826C191.397 127.541 191.546 127.224 191.836 127.119C192.125 127.013 192.447 127.159 192.554 127.445L192.572 127.494C192.59 127.549 192.61 127.62 192.63 127.705C192.707 128.033 192.729 128.374 192.659 128.712C192.467 129.638 191.658 130.174 190.288 130.113C187.569 129.993 186.14 126.198 186.228 121.236C186.264 119.229 187.519 117.263 189.568 115.388C190.28 114.736 191.041 114.142 191.801 113.615L191.997 113.48C192.158 113.372 192.31 113.272 192.453 113.18L192.615 113.079C192.711 113.019 192.783 112.976 192.827 112.95Z" fill="#000091"/>
<path fill-rule="evenodd" clip-rule="evenodd" d="M194.697 116.38C194.697 116.38 189.306 119.924 190.145 122.366C190.966 124.808 192.831 130.114 193.932 130.775C195.89 131.968 196.86 129.49 196.86 129.49" fill="white"/>
<path fill-rule="evenodd" clip-rule="evenodd" d="M194.386 115.922C194.643 115.753 194.99 115.822 195.162 116.075C195.327 116.318 195.269 116.644 195.035 116.819L195.002 116.842L194.895 116.914L194.82 116.966C194.666 117.073 194.494 117.196 194.309 117.334C193.779 117.728 193.25 118.157 192.758 118.608C191.931 119.364 191.298 120.098 190.938 120.764C190.631 121.332 190.545 121.809 190.677 122.193L190.849 122.702C192.225 126.737 193.549 129.9 194.226 130.307C194.944 130.744 195.46 130.574 195.944 129.958C196.06 129.811 196.161 129.65 196.245 129.489L196.275 129.43C196.298 129.384 196.315 129.346 196.327 129.319L196.338 129.292C196.449 129.008 196.773 128.866 197.062 128.976C197.35 129.085 197.494 129.404 197.383 129.688L197.362 129.738C197.334 129.804 197.293 129.891 197.24 129.993C197.126 130.21 196.99 130.427 196.829 130.632C196.029 131.651 194.91 132.019 193.64 131.245C192.569 130.602 191.24 127.375 189.615 122.542C189.371 121.833 189.511 121.059 189.95 120.246C190.379 119.453 191.086 118.633 191.996 117.801C192.518 117.323 193.077 116.87 193.634 116.455L193.798 116.334C193.905 116.256 194.007 116.183 194.104 116.116L194.371 115.932C194.377 115.929 194.381 115.925 194.386 115.922Z" fill="#000091"/>
<path fill-rule="evenodd" clip-rule="evenodd" d="M197.7 119.134C197.7 119.134 191.992 120.016 194.212 125.817C195.667 129.618 196.991 130.995 198.595 131.546C200.199 132.097 201.617 129.71 200.237 128.113L198.651 125.762C198.651 125.762 200.628 128.039 201.356 125.45C201.356 125.45 200.405 130.352 202.718 132.097" fill="white"/>
<path fill-rule="evenodd" clip-rule="evenodd" d="M197.614 118.59C197.919 118.543 198.205 118.748 198.253 119.049C198.3 119.339 198.107 119.611 197.82 119.673L197.747 119.686C197.729 119.689 197.706 119.694 197.679 119.699L197.65 119.706C197.528 119.732 197.39 119.768 197.241 119.813C196.814 119.943 196.388 120.125 195.993 120.363C194.345 121.36 193.73 122.993 194.736 125.623L194.821 125.843C196.09 129.09 197.247 130.499 198.78 131.026C199.864 131.398 200.801 129.615 199.811 128.469L199.79 128.444L199.771 128.417L198.186 126.067C197.803 125.5 198.596 124.898 199.056 125.381L199.11 125.44C199.129 125.461 199.155 125.488 199.187 125.519C199.281 125.613 199.386 125.707 199.497 125.793C199.757 125.995 200.004 126.119 200.187 126.135C200.426 126.157 200.628 125.976 200.817 125.304C201.005 124.635 202.007 124.853 201.912 125.52L201.889 125.651C201.886 125.669 201.883 125.689 201.879 125.712L201.857 125.853C201.843 125.951 201.829 126.057 201.815 126.171C201.703 127.111 201.681 128.095 201.804 129.005C201.969 130.23 202.38 131.148 203.058 131.66C203.304 131.845 203.35 132.19 203.162 132.432C202.974 132.673 202.623 132.719 202.378 132.534C201.816 132.111 201.403 131.531 201.117 130.823L201.094 130.764L201.062 130.83L201.033 130.888C200.505 131.892 199.457 132.425 198.412 132.066C196.47 131.399 195.097 129.691 193.689 126.012C192.489 122.876 193.312 120.692 195.407 119.425C195.888 119.134 196.399 118.917 196.91 118.761L197.03 118.726C197.282 118.653 197.484 118.61 197.614 118.59ZM200.612 127.189L200.586 127.197C200.522 127.213 200.456 127.224 200.388 127.231L200.318 127.236L200.602 127.658L200.602 127.6C200.603 127.484 200.606 127.368 200.61 127.252L200.612 127.189Z" fill="#000091"/>
<path fill-rule="evenodd" clip-rule="evenodd" d="M218.218 118.216C218.069 119.318 220.83 125.909 199.379 140.634L202.177 143.756L221.576 139.129L218.218 118.216Z" fill="#6A6AF4"/>
<path fill-rule="evenodd" clip-rule="evenodd" d="M114.434 151.137C114.434 151.137 122.138 150.696 114.938 153.009C104.604 154.754 95.5017 148.364 92.051 143.866C89.738 140.855 89.4582 136.797 91.3235 133.492C95.0168 125.873 100.743 128.443 100.743 128.443C100.743 128.443 110.499 133.07 115.274 133.217" fill="white"/>
<path fill-rule="evenodd" clip-rule="evenodd" d="M94.1676 128.933C96.1762 127.433 98.3187 127.199 100.252 127.702C100.586 127.788 100.832 127.877 100.986 127.947L101.303 128.094L101.422 128.149C101.739 128.295 102.097 128.456 102.487 128.629L102.619 128.686C103.883 129.243 105.22 129.799 106.569 130.319C107.573 130.705 108.545 131.055 109.473 131.362L109.755 131.454C112.042 132.195 113.937 132.624 115.291 132.666C115.6 132.676 115.843 132.93 115.833 133.234C115.823 133.538 115.565 133.777 115.256 133.767C113.711 133.72 111.625 133.236 109.116 132.406C108.171 132.094 107.181 131.737 106.161 131.345C104.795 130.819 103.441 130.255 102.162 129.692L101.898 129.576C101.596 129.442 101.315 129.315 101.058 129.197L100.666 129.017L100.511 128.944L100.475 128.929C100.459 128.923 100.437 128.914 100.411 128.905L100.384 128.895C100.265 128.852 100.125 128.808 99.9667 128.767C98.3392 128.344 96.5461 128.54 94.844 129.811C93.7395 130.635 92.7434 131.88 91.8893 133.605L91.8286 133.729L91.8127 133.759C90.0533 136.877 90.3201 140.699 92.4976 143.534C94.3716 145.977 97.5583 148.535 101.161 150.284C105.481 152.382 110.108 153.228 114.686 152.492L114.804 152.473L115.078 152.383C115.787 152.149 116.346 151.941 116.76 151.76L116.897 151.698L116.87 151.695C116.728 151.683 116.571 151.673 116.402 151.666L116.208 151.66C115.768 151.648 115.294 151.654 114.835 151.67L114.564 151.681L114.467 151.686C114.158 151.704 113.894 151.472 113.876 151.168C113.858 150.875 114.077 150.623 114.369 150.589L114.416 150.586L114.673 150.574C114.712 150.572 114.753 150.571 114.794 150.569C115.276 150.552 115.772 150.546 116.239 150.559L116.439 150.565C116.865 150.582 117.229 150.616 117.523 150.67C118.109 150.778 118.469 150.948 118.559 151.398C118.716 152.184 117.726 152.693 115.112 153.533C115.086 153.541 115.059 153.547 115.033 153.552C110.156 154.375 105.236 153.492 100.666 151.272C96.909 149.448 93.5853 146.78 91.6046 144.198C89.1842 141.047 88.8664 136.808 90.7758 133.33L90.8259 133.239L90.8815 133.126C91.7888 131.293 92.8656 129.931 94.0825 128.997L94.1676 128.933Z" fill="#000091"/>
<path fill-rule="evenodd" clip-rule="evenodd" d="M101.022 148.144C101.022 148.144 107.551 153.34 117.866 150.274C122.716 148.823 119.209 147.281 119.209 147.281" fill="white"/>
<path fill-rule="evenodd" clip-rule="evenodd" d="M118.698 147.056C118.824 146.778 119.155 146.654 119.437 146.778C119.626 146.861 119.89 147.004 120.159 147.203C120.735 147.631 121.079 148.138 120.978 148.756C120.861 149.476 120.142 150.051 118.803 150.544C118.566 150.632 118.308 150.717 118.028 150.801C112.532 152.435 107.649 151.969 103.559 150.197C102.75 149.847 102.04 149.471 101.434 149.094L101.315 149.019C101.009 148.824 100.793 148.67 100.671 148.572C100.43 148.381 100.393 148.034 100.587 147.798C100.774 147.57 101.107 147.527 101.346 147.694L101.43 147.758C101.45 147.773 101.473 147.79 101.501 147.81L101.53 147.83C101.67 147.93 101.837 148.041 102.032 148.162C102.592 148.511 103.253 148.861 104.009 149.189C107.868 150.86 112.479 151.3 117.703 149.747C117.961 149.67 118.196 149.592 118.41 149.513C118.97 149.306 119.369 149.099 119.618 148.9C119.79 148.763 119.861 148.657 119.873 148.582C119.891 148.476 119.764 148.29 119.485 148.083C119.374 148.001 119.253 147.925 119.131 147.86L119.059 147.821C119.03 147.807 119.007 147.796 118.991 147.789L118.981 147.784C118.699 147.66 118.572 147.334 118.698 147.056Z" fill="#000091"/>
<path fill-rule="evenodd" clip-rule="evenodd" d="M102.478 143.921C104.753 145.059 106.674 147.281 110.778 147.317C116.822 147.372 119.899 147.519 121.41 146.381C122.921 145.243 123.089 143.939 118.165 142.837" fill="white"/>
<path fill-rule="evenodd" clip-rule="evenodd" d="M117.619 142.715C117.688 142.419 117.987 142.233 118.289 142.3L118.516 142.352C120.836 142.891 122.173 143.512 122.675 144.304C123.228 145.175 122.796 146.031 121.75 146.819C120.983 147.397 119.914 147.688 118.28 147.816L117.936 147.841C117.005 147.902 116.124 147.916 114.069 147.9L110.773 147.868C108.367 147.847 106.713 147.223 104.527 145.827L104.232 145.636L103.554 145.194C103.39 145.088 103.254 145.002 103.12 144.919C102.79 144.715 102.502 144.551 102.224 144.412C101.949 144.274 101.839 143.942 101.979 143.671C102.119 143.4 102.456 143.292 102.731 143.43C103.043 143.586 103.359 143.765 103.715 143.986L103.93 144.121C104.005 144.168 104.082 144.218 104.167 144.272L105.023 144.83C107.067 146.15 108.532 146.726 110.664 146.765L114.077 146.799C116.265 146.815 117.101 146.798 118.088 146.726L118.289 146.71C119.668 146.594 120.523 146.356 121.07 145.944C121.715 145.458 121.88 145.13 121.726 144.887C121.418 144.403 120.223 143.863 118.041 143.375C117.739 143.307 117.551 143.012 117.619 142.715Z" fill="#000091"/>
<path fill-rule="evenodd" clip-rule="evenodd" d="M105.462 135.2C105.462 135.2 110.443 138.486 115.908 138.468C121.373 138.449 124.917 140.745 122.66 141.846C120.403 142.929 112.494 143.59 108.932 142.452C105.369 141.314 103.541 139.771 103.541 139.771" fill="white"/>
<path fill-rule="evenodd" clip-rule="evenodd" d="M104.997 134.893C105.163 134.65 105.492 134.578 105.745 134.724L105.896 134.82L105.981 134.872C106.157 134.98 106.363 135.101 106.597 135.231C107.267 135.605 108.021 135.979 108.842 136.328C111.192 137.329 113.596 137.925 115.906 137.917C118.538 137.908 120.951 138.428 122.453 139.256C124.126 140.178 124.501 141.563 122.905 142.341C120.281 143.601 112.196 144.074 108.759 142.976C108.04 142.746 107.359 142.491 106.714 142.213C105.701 141.777 104.827 141.309 104.091 140.839L103.967 140.759C103.587 140.51 103.323 140.313 103.177 140.19C102.942 139.992 102.915 139.644 103.116 139.413C103.317 139.182 103.671 139.155 103.905 139.353L103.944 139.385C103.978 139.412 104.027 139.45 104.092 139.498L104.21 139.584C104.352 139.686 104.516 139.797 104.701 139.915C105.386 140.353 106.207 140.793 107.163 141.204C107.774 141.467 108.421 141.71 109.104 141.928C112.27 142.94 120.055 142.484 122.412 141.353C122.743 141.191 122.811 141.086 122.785 140.993C122.733 140.799 122.432 140.507 121.907 140.218C120.61 139.503 118.441 139.028 116.041 139.019L115.91 139.019C113.426 139.027 110.877 138.395 108.397 137.339C107.538 136.974 106.749 136.582 106.045 136.19L105.865 136.088C105.72 136.005 105.585 135.926 105.463 135.852L105.257 135.726C105.211 135.696 105.175 135.673 105.151 135.657C104.894 135.488 104.825 135.146 104.997 134.893Z" fill="#000091"/>
</g>
<defs>
<clipPath id="clip0_460_5482">
<rect width="287.25" height="158.625" fill="white"/>
</clipPath>
</defs>
</svg>
