<svg width="284" height="159" viewBox="0 0 284 159" fill="none" xmlns="http://www.w3.org/2000/svg">
<g clip-path="url(#clip0_541_9070)">
<rect x="1" width="282" height="158.625" fill="#E8EDFF"/>
<path d="M57.5495 87.5196C57.8745 87.2441 58.1266 86.8939 58.2839 86.4994C58.4412 86.1049 58.4989 85.6782 58.4519 85.2565C56.6059 68.6961 48.9995 51.6489 37.1353 45.3941C24.9413 38.9664 16.6295 56.8074 33.5257 73.386C46.2465 85.8638 53.0398 87.8926 55.6233 88.1337C55.9694 88.1646 56.3183 88.1262 56.6492 88.0207C56.98 87.9152 57.2862 87.7448 57.5495 87.5196Z" fill="#FF8D7E"/>
<path fill-rule="evenodd" clip-rule="evenodd" d="M26.7555 46.3878C27.0225 46.12 27.4575 46.1179 27.7272 46.383L27.2438 46.8679L26.7603 47.3528C26.4906 47.0876 26.4885 46.6556 26.7555 46.3878ZM27.2438 46.8679C26.7603 47.3528 26.7602 47.3527 26.7603 47.3528L26.7748 47.3671C26.7848 47.3769 26.7998 47.3918 26.8198 47.4116C26.8598 47.4512 26.9195 47.5106 26.998 47.5891C27.155 47.746 27.3869 47.9792 27.6855 48.2832C28.2827 48.8911 29.1463 49.7817 30.2097 50.9103C32.3369 53.1679 35.2621 56.3764 38.453 60.1783C44.8442 67.7932 52.2642 77.7454 56.494 87.1873C56.6483 87.5316 57.0544 87.6866 57.4011 87.5334C57.7478 87.3802 57.9038 86.9769 57.7496 86.6326C53.4408 77.0144 45.9218 66.9456 39.5086 59.3045C36.2974 55.4784 33.3541 52.2501 31.2132 49.9779C30.1426 48.8417 29.2724 47.9442 28.6692 47.3302C28.3676 47.0232 28.1327 46.787 27.973 46.6273C27.8931 46.5474 27.832 46.4867 27.7907 46.4457C27.77 46.4253 27.7543 46.4097 27.7437 46.3993L27.7276 46.3834C27.7273 46.3832 27.7272 46.383 27.2438 46.8679Z" fill="#2E186A"/>
<path fill-rule="evenodd" clip-rule="evenodd" d="M31.0506 70.3151L31.0543 70.315L31.0706 70.3145C31.0856 70.3141 31.109 70.3136 31.1403 70.313C31.2031 70.3118 31.298 70.3106 31.423 70.3105C31.6732 70.3102 32.0441 70.3142 32.5198 70.3315C33.4716 70.366 34.8421 70.4538 36.5056 70.6667C39.8351 71.0929 44.3248 72.0189 48.9767 74.0147C49.3251 74.1641 49.7295 74.0048 49.88 73.6589C50.0305 73.313 49.8701 72.9114 49.5218 72.7619C44.7213 70.7023 40.0998 69.7508 36.6813 69.3132C34.9708 69.0943 33.558 69.0036 32.5701 68.9677C32.076 68.9498 31.6878 68.9455 31.4215 68.9458C31.2883 68.946 31.1855 68.9472 31.1152 68.9485C31.08 68.9492 31.0529 68.9498 31.0342 68.9503L31.0124 68.9509L31.0062 68.9511L31.0037 68.9512C31.0035 68.9512 31.0033 68.9512 31.027 69.6331L31.0033 68.9512C30.624 68.9642 30.3272 69.28 30.3403 69.6566C30.3533 70.0332 30.6712 70.3279 31.0504 70.3151L31.0506 70.3151Z" fill="#2E186A"/>
<path fill-rule="evenodd" clip-rule="evenodd" d="M40.9157 48.3481C41.2462 48.1628 41.6653 48.2785 41.8519 48.6067L41.2536 48.9422L40.6554 49.2778C40.4687 48.9496 40.5853 48.5334 40.9157 48.3481ZM41.2536 48.9422C40.6554 49.2778 40.6553 49.2777 40.6554 49.2778L40.6625 49.2904L40.6848 49.3299C40.7046 49.3649 40.7341 49.4175 40.7728 49.4865C40.85 49.6246 40.9635 49.8288 41.1079 50.0918C41.3967 50.618 41.8089 51.3795 42.3013 52.3189C43.2865 54.1984 44.5911 56.7866 45.8703 59.6239C47.1506 62.4635 48.3999 65.5403 49.2793 68.3995C50.1647 71.2786 50.6498 73.8593 50.4665 75.7379C50.4299 76.113 50.7064 76.4465 51.0841 76.4829C51.4618 76.5192 51.7977 76.2446 51.8343 75.8695C52.0449 73.711 51.4899 70.9154 50.5936 68.0009C49.6911 65.0666 48.417 61.9328 47.1246 59.0663C45.8312 56.1975 44.5138 53.5843 43.5203 51.6888C43.0233 50.7408 42.607 49.9715 42.3145 49.4387C42.1683 49.1723 42.053 48.9649 41.9741 48.8239C41.9347 48.7533 41.9043 48.6994 41.8837 48.6629L41.8603 48.6213L41.8521 48.607C41.852 48.6068 41.8519 48.6067 41.2536 48.9422Z" fill="#2E186A"/>
<path d="M72.6198 72.3742C73.536 72.9928 74.5735 73.0997 75.3957 72.6562C91.3116 64.061 104.736 48.0237 104.942 30.7059C105.171 12.9058 82.6631 9.17117 74.5437 36.7491C68.433 57.5014 69.8897 66.8313 70.9845 70.1838C71.2727 71.0718 71.8433 71.8428 72.6106 72.381L72.6198 72.3742Z" fill="#FF8D7E"/>
<path fill-rule="evenodd" clip-rule="evenodd" d="M99.3657 19.3166C99.5445 19.649 99.418 20.0624 99.0833 20.2399C94.5849 22.6256 90.7655 27.0669 87.5662 32.4743C84.3725 37.8721 81.8334 44.1697 79.867 50.1831C77.9017 56.1933 76.5149 61.8994 75.6195 66.1043C75.1719 68.2062 74.8473 69.9314 74.6349 71.13C74.5287 71.7293 74.4505 72.1969 74.3989 72.514C74.3732 72.6725 74.3541 72.7934 74.3415 72.8744C74.3352 72.9148 74.3305 72.9453 74.3274 72.9655L74.324 72.9881L74.323 72.9947C74.3229 72.9949 74.3229 72.9949 73.6433 72.8948C72.9636 72.7946 72.9636 72.7943 72.9637 72.7939L72.9649 72.7857L72.9687 72.7611C72.972 72.7395 72.9769 72.7076 72.9834 72.6657C72.9964 72.5819 73.016 72.4581 73.0423 72.2965C73.0948 71.9734 73.174 71.4995 73.2815 70.8935C73.4963 69.6815 73.8237 67.9409 74.275 65.822C75.1772 61.5854 76.5755 55.8303 78.56 49.7616C80.5433 43.6962 83.1187 37.2973 86.3813 31.783C89.6383 26.2782 93.617 21.5918 98.4359 19.0362C98.7707 18.8586 99.1869 18.9842 99.3657 19.3166ZM73.5424 73.5697C73.167 73.5144 72.9079 73.1674 72.9636 72.7946L73.6433 72.8948L74.3229 72.9949C74.2672 73.3677 73.9178 73.625 73.5424 73.5697Z" fill="#2E186A"/>
<path fill-rule="evenodd" clip-rule="evenodd" d="M104.656 33.101C104.81 33.4454 104.654 33.8486 104.308 34.0018C102.274 34.8999 97.6423 37.0081 92.8332 39.6332C88.0009 42.2709 83.0764 45.3848 80.3908 48.2811C80.1338 48.5584 79.6991 48.5762 79.4199 48.3209C79.1408 48.0656 79.1228 47.634 79.3799 47.3567C82.2324 44.2803 87.3375 41.0757 92.1712 38.4372C97.0281 35.7861 101.699 33.6604 103.749 32.7549C104.096 32.6017 104.502 32.7567 104.656 33.101Z" fill="#2E186A"/>
<path fill-rule="evenodd" clip-rule="evenodd" d="M75.5422 35.8648C75.92 35.9 76.1976 36.2327 76.1622 36.6079C75.8746 39.6527 75.5911 43.8104 75.6965 47.6126C75.7492 49.5144 75.8989 51.3093 76.1879 52.823C76.4805 54.355 76.9017 55.5189 77.4444 56.2253C77.6745 56.5249 77.6166 56.9531 77.3149 57.1816C77.0132 57.4102 76.582 57.3526 76.3518 57.053C75.6118 56.0899 75.1421 54.6712 74.8377 53.0773C74.5299 51.4651 74.3766 49.5908 74.3228 47.6502C74.2152 43.7675 74.5043 39.5472 74.7939 36.4805C74.8294 36.1053 75.1644 35.8297 75.5422 35.8648Z" fill="#2E186A"/>
<path fill-rule="evenodd" clip-rule="evenodd" d="M97.3535 52.892C97.5908 53.1861 97.543 53.6155 97.2469 53.8511C93.9469 56.4765 88.6721 58.9947 84.2783 60.8431C82.0707 61.7718 80.0661 62.5393 78.6134 63.0746C77.8868 63.3423 77.2979 63.5522 76.89 63.6953C76.686 63.7668 76.5273 63.8217 76.4192 63.8588C76.3652 63.8774 76.3239 63.8915 76.2959 63.901L76.264 63.9118L76.2535 63.9153L76.2529 63.9155C76.2527 63.9156 76.2526 63.9156 76.032 63.2694L76.2526 63.9156C75.8932 64.0366 75.5031 63.8453 75.3813 63.4884C75.2595 63.1315 75.4521 62.7441 75.8115 62.6232L75.9122 62.9183C75.8115 62.6232 75.8114 62.6232 75.8115 62.6232L75.8119 62.623L75.8209 62.62L75.8509 62.6098C75.8776 62.6007 75.9176 62.5871 75.9702 62.569C76.0755 62.5329 76.2313 62.479 76.4322 62.4085C76.834 62.2676 77.4162 62.0602 78.1353 61.7952C79.5738 61.2651 81.5584 60.5052 83.7423 59.5865C88.1316 57.74 93.2494 55.2828 96.3876 52.7861C96.6838 52.5505 97.1162 52.5979 97.3535 52.892Z" fill="#2E186A"/>
<path fill-rule="evenodd" clip-rule="evenodd" d="M47.5026 32.3745C47.7379 32.0788 48.17 32.0286 48.4677 32.2623L48.0416 32.7976C48.4677 32.2623 48.4682 32.2627 48.4687 32.2631L48.4703 32.2643L48.4752 32.2682L48.492 32.2816C48.5062 32.293 48.5265 32.3094 48.5526 32.3308C48.6048 32.3736 48.6803 32.4364 48.7772 32.5195C48.971 32.6855 49.2502 32.9325 49.5995 33.2616C50.2981 33.9199 51.2771 34.9072 52.4129 36.2347C54.6844 38.8895 57.5841 42.9061 60.1199 48.3714C65.1967 59.3133 68.794 76.0184 63.035 99.1485C62.9439 99.5143 62.5714 99.7376 62.2031 99.6471C61.8347 99.5566 61.6099 99.1868 61.701 98.8209C67.3847 75.993 63.8188 59.6046 58.8718 48.9425C56.3956 43.6057 53.5683 39.6927 51.3656 37.1183C50.2644 35.8312 49.3196 34.8791 48.6536 34.2516C48.3206 33.9378 48.0574 33.7052 47.8793 33.5525C47.7902 33.4762 47.7224 33.4198 47.6778 33.3833C47.6555 33.365 47.639 33.3517 47.6286 33.3433L47.6174 33.3344L47.6155 33.3329L47.6153 33.3327L47.6151 33.3326C47.3178 33.0988 47.2674 32.67 47.5026 32.3745Z" fill="#2E186A"/>
<path d="M50.0584 34.1925C51.4293 33.3976 51.2155 30.4993 49.5807 27.7191C47.946 24.9388 45.5095 23.3293 44.1385 24.1242C42.7676 24.9191 42.9815 27.8173 44.6162 30.5976C46.2509 33.3779 48.6875 34.9874 50.0584 34.1925Z" fill="#FF8D7E"/>
<path d="M50.4209 34.1639C50.4523 32.5877 47.85 31.2577 44.6086 31.1932C41.3672 31.1287 38.7141 32.3541 38.6828 33.9303C38.6514 35.5064 41.2536 36.8365 44.495 36.901C47.7364 36.9655 50.3895 35.74 50.4209 34.1639Z" fill="#FF8D7E"/>
<path d="M55.6496 31.6769C57.3982 29.3851 57.8995 26.8378 56.7692 25.9875C55.639 25.1371 53.3053 26.3056 51.5567 28.5974C49.8081 30.8892 49.3069 33.4364 50.4371 34.2868C51.5673 35.1372 53.901 33.9687 55.6496 31.6769Z" fill="#FF8D7E"/>
<path d="M52.8412 42.5333C54.1321 41.9505 54.207 39.3561 53.0085 36.7386C51.8101 34.1211 49.7922 32.4717 48.5013 33.0546C47.2105 33.6374 47.1356 36.2318 48.334 38.8492C49.5324 41.4667 51.5504 43.1161 52.8412 42.5333Z" fill="#FF8D7E"/>
<path d="M57.4003 34.6535C57.535 33.3894 55.5374 32.1432 52.9386 31.8701C50.3397 31.597 48.1237 32.4005 47.989 33.6646C47.8543 34.9288 49.8519 36.175 52.4508 36.4481C55.0496 36.7211 57.2656 35.9177 57.4003 34.6535Z" fill="#FF8D7E"/>
<path d="M38.5051 101.309L49.2699 149.162H83.4653L94.2278 101.309C94.8416 98.5799 93.1032 95.8892 90.7166 95.8892H42.0185C39.6296 95.8983 37.8912 98.5799 38.5051 101.309Z" fill="white"/>
<path fill-rule="evenodd" clip-rule="evenodd" d="M42.0181 95.207V95.207H90.7162C92.1893 95.207 93.4194 96.0396 94.175 97.207C94.9303 98.3739 95.245 99.9153 94.898 101.458L94.2274 101.309L94.898 101.458L84.1355 149.311C84.0653 149.623 83.7867 149.844 83.4649 149.844H49.2695C48.9477 149.844 48.6691 149.623 48.5989 149.311L37.8341 101.458L37.8341 101.458C37.4871 99.9152 37.8018 98.3759 38.5576 97.21C39.3138 96.0435 40.5436 95.2126 42.0155 95.207L42.0181 95.207ZM42.0195 96.5717C41.103 96.5757 40.2697 97.0901 39.7132 97.9486C39.156 98.8081 38.9085 99.9743 39.1753 101.161C39.1753 101.161 39.1753 101.161 39.1753 101.161L49.82 148.48H82.9143L93.5568 101.161C93.8236 99.9742 93.5761 98.8056 93.019 97.9448C92.4621 97.0845 91.6297 96.5717 90.7162 96.5717H42.0195Z" fill="#2E186A"/>
<path d="M84.7572 83.978C80.6239 84.1758 71.9688 86.8262 70.415 95.8456" stroke="#2E186A" stroke-width="2.5" stroke-linecap="round" stroke-linejoin="round"/>
<path d="M84.6119 84.2447C85.4089 84.1357 85.785 82.1004 85.452 79.6987C85.119 77.297 84.2029 75.4383 83.406 75.5473C82.609 75.6563 82.2329 77.6916 82.5659 80.0933C82.8989 82.495 83.8149 84.3537 84.6119 84.2447Z" fill="#FF8D7E"/>
<path d="M88.6071 82.727C90.3473 81.3221 91.3802 79.7217 90.9142 79.1525C90.4482 78.5833 88.6597 79.2607 86.9195 80.6656C85.1793 82.0706 84.1463 83.6709 84.6123 84.2401C85.0783 84.8094 86.8668 84.1319 88.6071 82.727Z" fill="#FF8D7E"/>
<path d="M84.6112 84.1451C84.9804 83.4353 83.5214 81.9579 81.3524 80.8452C79.1834 79.7325 77.1257 79.4059 76.7564 80.1157C76.3872 80.8255 77.8462 82.3029 80.0153 83.4156C82.1843 84.5283 84.242 84.8549 84.6112 84.1451Z" fill="#FF8D7E"/>
<path d="M91.754 88.0746C92.1052 87.4292 90.7902 86.0478 88.817 84.9892C86.8438 83.9305 84.9596 83.5956 84.6084 84.241C84.2573 84.8865 85.5723 86.2678 87.5455 87.3265C89.5187 88.3851 91.4029 88.72 91.754 88.0746Z" fill="#FF8D7E"/>
<path d="M84.2913 88.1492C85.2333 86.1225 85.4519 84.2297 84.7797 83.9216C84.1074 83.6135 82.7989 85.0067 81.8569 87.0334C80.915 89.0601 80.6963 90.9529 81.3686 91.261C82.0408 91.5691 83.3494 90.1759 84.2913 88.1492Z" fill="#FF8D7E"/>
<path d="M241.113 69.6207L134.151 70.3993C133.318 70.4057 132.503 70.6452 131.8 71.0904C131.097 71.5356 130.534 72.1685 130.177 72.9165L95.6812 143.154L27.9898 143.219C27.9898 143.219 26.48 153.061 39.1089 153.671L90.5968 153.508H98.7786L208.227 153.396L245.153 75.9017C245.474 75.2284 245.617 74.4854 245.569 73.7423C245.521 72.9992 245.285 72.2802 244.881 71.6526C244.477 71.0251 243.92 70.5095 243.261 70.1542C242.602 69.7988 241.863 69.6153 241.113 69.6207Z" fill="#2E186A"/>
<path fill-rule="evenodd" clip-rule="evenodd" d="M232.875 69.1754C233.7 69.1694 234.514 69.3715 235.24 69.7629C235.965 70.1543 236.579 70.722 237.024 71.4131C237.468 72.1042 237.729 72.896 237.781 73.7144C237.834 74.5328 237.676 75.351 237.324 76.0925L237.324 76.0926L200.954 152.535C200.849 152.758 200.581 152.853 200.357 152.748C200.133 152.643 200.037 152.377 200.143 152.154L236.512 75.7117C236.8 75.1066 236.928 74.4389 236.885 73.7711C236.843 73.1032 236.63 72.457 236.267 71.8931C235.904 71.3291 235.404 70.8657 234.811 70.5464C234.219 70.227 233.555 70.062 232.881 70.0669C232.633 70.0688 232.431 69.8706 232.429 69.6245C232.427 69.3783 232.627 69.1772 232.875 69.1754Z" fill="white"/>
<path d="M106.935 139.826L195.39 139.38C196.912 139.372 198.4 138.941 199.688 138.138C200.976 137.334 202.013 136.189 202.68 134.832L229.315 78.7906C230.459 76.4919 228.683 73.8485 226.006 73.8693L138.348 74.5023C137.675 74.5009 137.014 74.6844 136.439 75.0327C135.864 75.3809 135.398 75.8803 135.091 76.4756L104.255 135.581C104.032 136.031 103.928 136.531 103.954 137.032C103.98 137.533 104.135 138.02 104.403 138.445C104.672 138.87 105.045 139.221 105.488 139.462C105.931 139.704 106.429 139.829 106.935 139.826V139.826Z" fill="white"/>
<path d="M176.384 77.2661C173.358 85.1504 171.726 96.509 171.816 97.0644C171.906 97.6199 180.957 111.858 184.141 115.858C189.41 122.479 198.654 116.518 192.771 106.79C186.886 97.0645 185.145 88.3805 185.145 88.3805L176.384 77.2661Z" fill="#FFC29E" stroke="#2E186A" stroke-width="2" stroke-linecap="round" stroke-linejoin="round"/>
<path d="M260.016 50.6071L242.787 54.4406C232.35 94.6219 208.768 86.1572 208.768 86.1572C205.665 84.207 161.63 72.9151 161.63 72.9151C161.63 72.9151 167.431 46.7213 179.216 39.1586C186.878 34.2414 226.034 16.6542 252.484 4.95313" fill="#FFC29E"/>
<path d="M260.016 50.6071L242.787 54.4406C232.35 94.6219 208.768 86.1572 208.768 86.1572C205.665 84.207 161.63 72.9151 161.63 72.9151C161.63 72.9151 167.431 46.7213 179.216 39.1586C186.878 34.2414 226.034 16.6542 252.484 4.95313" stroke="#2E186A" stroke-width="2" stroke-linecap="round" stroke-linejoin="round"/>
<path d="M221.008 85.4034C225.116 88.5229 228.569 92.2583 233.043 87.4079C237.517 82.5554 238.779 80.3839 235.893 69.5785C233.007 58.7732 227.193 56.8982 222.65 64.2897C218.107 71.6811 221.008 85.4034 221.008 85.4034Z" fill="#FFC29E" stroke="#2E186A" stroke-width="2" stroke-linecap="round" stroke-linejoin="round"/>
<path d="M209.186 99.8795C209.186 99.8795 215.529 104.479 218.908 101.84C222.287 99.2009 226.221 85.8691 225.581 74.0949C224.94 62.3228 214.863 64.463 213.523 70.9128C212.183 77.3626 209.186 99.8774 209.186 99.8774V99.8795Z" fill="#FFC29E" stroke="#2E186A" stroke-width="2" stroke-linecap="round" stroke-linejoin="round"/>
<path d="M201.303 106.465C209.151 107.847 210.298 102.423 211.077 98.3156C211.857 94.2086 213.592 85.368 214.022 81.0835C215.121 70.1591 201.721 71.5664 198.492 79.9142C195.245 88.3079 193.452 105.085 201.3 106.467L201.303 106.465Z" fill="#FFC29E" stroke="#2E186A" stroke-width="2" stroke-linecap="round" stroke-linejoin="round"/>
<path d="M199.942 55.3261L125.013 55.2221C121.943 55.2178 119.452 57.6879 119.447 60.7392L119.389 102.388C119.385 105.44 121.869 107.917 124.939 107.921L199.868 108.025C202.937 108.029 205.429 105.559 205.433 102.508L205.491 60.8586C205.496 57.8073 203.011 55.3303 199.942 55.3261Z" fill="#C1C1FB" stroke="#2E186A" stroke-width="2" stroke-linecap="round" stroke-linejoin="round"/>
<rect x="178.139" y="73.4829" width="20.7385" height="24.4152" rx="4" fill="white"/>
<path d="M195.863 97.9632C195.166 96.368 194.233 94.5848 193.433 94.2508C191.927 93.6202 183.353 91.5593 181.253 92.5741C179.905 93.2256 178.867 93.9793 178.088 94.683C178.088 96.4946 179.557 97.9632 181.368 97.9632H195.863Z" fill="#5D21D1"/>
<path d="M187.174 80.9058L188.092 80.6279L187.599 79.0199L186.681 79.2978L187.174 80.9058Z" fill="#FE7624"/>
<path d="M186.651 79.5721C187.585 79.5721 188.342 78.8196 188.342 77.8913C188.342 76.963 187.585 76.2104 186.651 76.2104C185.717 76.2104 184.96 76.963 184.96 77.8913C184.96 78.8196 185.717 79.5721 186.651 79.5721Z" fill="#2E186A"/>
<path d="M187.386 79.9481C188.873 79.6453 190.828 79.7414 192.202 80.4555C196.363 82.8525 196.342 85.7757 194.525 87.0326C194.662 84.7734 194.349 83.8756 193.59 83.2701C192.704 84.5312 189.627 85.7256 187.124 85.4708C187.124 85.4625 186.888 87.7091 187.107 87.7154C187.132 87.8532 187.445 89.0997 187.445 89.0997L186.85 91.455L180.919 89.8598C180.583 89.8138 180.36 89.4547 180.478 89.1457C181.209 87.2164 182.604 80.9921 187.39 79.9502L187.386 79.9481Z" fill="#2E186A"/>
<path d="M190.923 91.4382L190.694 93.4113L191.383 93.6431C191.48 93.8352 192.398 96.606 189.331 96.4452C187.33 96.3408 184.883 94.0461 184.62 92.6325L185.204 92.62C186.067 92.549 186.634 92.0228 186.886 91.2002L187.573 88.9556L190.923 91.4382Z" fill="white" stroke="#2E186A" stroke-linecap="round" stroke-linejoin="round"/>
<path d="M187.533 88.4335L187.195 88.4627C187.195 88.4627 185.234 88.471 185.397 86.6796C185.521 85.3203 186.859 85.5562 187.498 85.7483" fill="white"/>
<path d="M187.533 88.4335L187.195 88.4627C187.195 88.4627 185.234 88.471 185.397 86.6796C185.521 85.3203 186.859 85.5562 187.498 85.7483" stroke="#2E186A" stroke-width="1.61" stroke-linecap="round" stroke-linejoin="round"/>
<path d="M194.525 87.0303C194.661 84.7711 194.351 83.961 193.59 83.3555C192.717 84.5957 189.971 85.7984 187.184 85.479C187.088 85.7817 187.167 85.5103 187.113 85.8485C187.081 86.2035 187.05 86.6044 187.035 86.9426C187.071 88.2372 187.443 89.0974 187.443 89.0974C187.953 90.4275 188.942 91.5174 190.415 91.8619C192.985 92.4612 194.199 88.9095 194.374 88.1077C194.46 87.711 194.525 87.0303 194.525 87.0303Z" fill="white" stroke="#2E186A" stroke-linecap="round" stroke-linejoin="round"/>
<path d="M192.028 88.7386L192.78 88.8451L192.684 85.8237" stroke="#2E186A" stroke-linecap="round" stroke-linejoin="round"/>
<path d="M190.505 85.5838C190.505 85.5838 191.061 85.0472 191.528 85.4543" stroke="#2E186A" stroke-linecap="round" stroke-linejoin="round"/>
<path d="M191.507 90.0141C191.507 90.0141 190.736 90.1081 190.614 89.5005" stroke="#2E186A" stroke-linecap="round" stroke-linejoin="round"/>
<path d="M193.578 85.9216C193.578 85.9216 194.29 85.6146 194.582 86.1596" stroke="#2E186A" stroke-linecap="round" stroke-linejoin="round"/>
<path d="M190.409 86.8134C190.447 86.6032 190.366 86.4135 190.229 86.3895C190.092 86.3655 189.95 86.5164 189.913 86.7265C189.876 86.9366 189.957 87.1264 190.094 87.1504C190.231 87.1743 190.372 87.0235 190.409 86.8134Z" fill="#2E186A"/>
<path d="M193.975 87.4213C194.012 87.2112 193.931 87.0214 193.794 86.9974C193.657 86.9734 193.516 87.1243 193.478 87.3344C193.441 87.5445 193.522 87.7343 193.659 87.7583C193.796 87.7822 193.938 87.6314 193.975 87.4213Z" fill="#2E186A"/>
<path d="M192.19 86.6142C192.386 85.4742 191.841 84.4298 190.971 84.2813C190.101 84.1328 189.236 84.9366 189.039 86.0766C188.842 87.2165 189.388 88.261 190.258 88.4094C191.128 88.5579 191.993 87.7541 192.19 86.6142Z" stroke="#FE7624" stroke-linecap="round" stroke-linejoin="round"/>
<path d="M196.351 87.4755C196.548 86.3356 196.002 85.2911 195.132 85.1426C194.262 84.9942 193.397 85.798 193.2 86.9379C193.003 88.0779 193.549 89.1223 194.419 89.2708C195.289 89.4192 196.154 88.6155 196.351 87.4755Z" stroke="#FE7624" stroke-linecap="round" stroke-linejoin="round"/>
<path d="M193.198 86.6274L192.202 86.4917" stroke="#FE7624" stroke-linecap="round" stroke-linejoin="round"/>
<path d="M189.111 85.717L186.947 85.646" stroke="#FE7624" stroke-linecap="round" stroke-linejoin="round"/>
<path d="M132.769 61.5752H125.477V68.3987H132.769V61.5752Z" fill="#000091"/>
<path d="M144.239 61.5752H136.946V68.3987H144.239V61.5752Z" fill="#E1000F"/>
<path d="M136.991 61.5752H132.775V68.3987H136.991V61.5752Z" fill="white"/>
<path d="M126.283 79.6904H168.874" stroke="#2E186A" stroke-width="2" stroke-linecap="round" stroke-linejoin="round"/>
<path d="M126.283 88.2158H168.874" stroke="#2E186A" stroke-width="2" stroke-linecap="round" stroke-linejoin="round"/>
<path d="M157.321 102.412C157.302 100.825 157.286 99.2383 157.365 97.6536C157.416 96.6513 157.508 95.6428 157.807 94.6844C157.882 94.4422 157.972 94.1979 158.145 94.0142C158.317 93.8304 158.588 93.7135 158.829 93.7908C159.044 93.8576 159.189 94.0539 159.304 94.2459C159.644 94.8181 159.848 95.4591 160.024 96.1001C160.432 97.5763 160.72 99.0859 160.881 100.61C160.968 101.429 161.018 102.264 160.829 103.064C160.791 103.226 160.739 103.393 160.619 103.51C160.499 103.627 160.298 103.677 160.163 103.577C160.092 103.525 160.052 103.439 160.018 103.358C159.835 102.903 159.783 102.404 159.766 101.913C159.726 100.738 159.888 99.5578 160.239 98.4345C160.415 97.8707 160.652 97.3028 161.087 96.904C161.215 96.7849 161.373 96.6805 161.549 96.6785C161.883 96.6785 162.089 97.0313 162.211 97.3404C162.705 98.5973 162.973 99.9399 163.003 101.291C163.007 101.502 162.963 101.769 162.757 101.815C162.539 101.583 162.436 101.268 162.364 100.959C162.062 99.6538 162.209 98.2528 162.772 97.0376C162.936 96.6847 163.139 96.3423 163.433 96.0855C163.746 96.1836 163.877 96.5448 163.965 96.858C164.229 97.806 164.494 98.7539 164.757 99.7019C165.529 98.8709 166.357 98.0879 167.231 97.3612" stroke="#2E186A" stroke-width="2" stroke-linecap="round" stroke-linejoin="round"/>
<path d="M168.579 96.1042L168.806 95.8975" stroke="#2E186A" stroke-width="2" stroke-linecap="round" stroke-linejoin="round"/>
<path d="M198.658 34.8135C198.658 34.8135 185.172 45.8318 181.488 48.9032C177.806 51.9747 174.496 58.8316 166.431 62.3081C156.906 66.4131 163.545 81.6617 181.19 71.2531C193.666 63.8929 192.674 63.0891 198.123 60.8278C199.94 60.074 201.563 59.7211 203.124 59.8485C209.368 60.358 223.312 59.3766 237.859 47.8551" fill="#FFC29E"/>
<path d="M198.658 34.8135C198.658 34.8135 185.172 45.8318 181.488 48.9032C177.806 51.9747 174.496 58.8316 166.431 62.3081C156.906 66.4131 163.545 81.6617 181.19 71.2531C193.666 63.8929 192.674 63.0891 198.123 60.8278C199.94 60.074 201.563 59.7211 203.124 59.8485C209.368 60.358 223.312 59.3766 237.859 47.8551" stroke="#2E186A" stroke-width="2" stroke-linecap="round" stroke-linejoin="round"/>
<path d="M186.742 146.024H217.712C218.344 146.024 218.951 146.274 219.398 146.718C219.845 147.162 220.096 147.764 220.096 148.392V153.666H184.356V148.392C184.356 148.081 184.418 147.773 184.538 147.486C184.658 147.199 184.834 146.938 185.055 146.718C185.277 146.498 185.539 146.323 185.829 146.204C186.118 146.085 186.428 146.024 186.742 146.024V146.024Z" fill="#FF8D7E"/>
<path fill-rule="evenodd" clip-rule="evenodd" d="M153.488 125.368H166.742V126.83H153.488V125.368ZM160.851 118.057H166.005L160.115 123.906L154.225 118.057H159.379V112.208H160.851V118.057Z" fill="#000091"/>
</g>
<defs>
<clipPath id="clip0_541_9070">
<rect width="284" height="158.625" fill="white"/>
</clipPath>
</defs>
</svg>
