<svg xmlns="http://www.w3.org/2000/svg" width="284" height="159" fill="none" viewBox="0 0 284 159"><g clip-path="url(#a)"><path fill="#e8edff" d="M1 0h282v158.625H1z"/><path fill="#ff8d7e" d="M57.55 87.52a2.6 2.6 0 0 0 .902-2.263C56.606 68.697 49 51.649 37.135 45.394c-12.194-6.428-20.505 11.413-3.61 27.992C46.247 85.864 53.04 87.893 55.624 88.134a2.61 2.61 0 0 0 1.927-.614"/><path fill="#2e186a" fill-rule="evenodd" d="M26.756 46.388a.69.69 0 0 1 .971-.005l-.483.485-.484.485a.68.68 0 0 1-.005-.965m.488.48-.484.485.015.014.045.045.178.177a176.193 176.193 0 0 1 3.212 3.321 219 219 0 0 1 8.243 9.268c6.391 7.615 13.811 17.567 18.041 27.01.154.344.56.499.907.345a.68.68 0 0 0 .349-.9c-4.31-9.619-11.828-19.687-18.241-27.328a220 220 0 0 0-8.296-9.327 178 178 0 0 0-3.24-3.35l-.182-.182-.047-.047-.016-.016z" clip-rule="evenodd"/><path fill="#2e186a" fill-rule="evenodd" d="M31.05 70.315h.021a10 10 0 0 1 .352-.004c.25 0 .621.003 1.097.02.952.035 2.322.123 3.986.336 3.33.426 7.819 1.352 12.47 3.348a.69.69 0 0 0 .904-.356.68.68 0 0 0-.358-.897c-4.8-2.06-9.422-3.011-12.84-3.449a46 46 0 0 0-4.112-.345 31 31 0 0 0-1.536-.018h-.022l-.006.001h-.002l.023.682-.024-.682a.684.684 0 0 0-.663.706c.013.376.331.67.71.658" clip-rule="evenodd"/><path fill="#2e186a" fill-rule="evenodd" d="M40.916 48.348a.69.69 0 0 1 .936.259l-.598.335-.599.336a.68.68 0 0 1 .26-.93m.338.594-.599.336.008.012.022.04q.03.052.088.157l.335.605a139.829 139.829 0 0 1 4.762 9.532c1.28 2.84 2.53 5.916 3.41 8.776.885 2.879 1.37 5.46 1.187 7.338a.684.684 0 0 0 .617.745.686.686 0 0 0 .75-.614c.21-2.158-.344-4.954-1.24-7.868-.903-2.934-2.177-6.068-3.47-8.935a141 141 0 0 0-5.24-10.403l-.024-.042-.008-.014z" clip-rule="evenodd"/><path fill="#ff8d7e" d="M72.62 72.374c.916.619 1.953.726 2.776.282 15.916-8.595 29.34-24.632 29.546-41.95.229-17.8-22.279-21.535-30.398 6.043-6.111 20.752-4.654 30.082-3.56 33.435a4.3 4.3 0 0 0 1.627 2.197z"/><path fill="#2e186a" fill-rule="evenodd" d="M99.366 19.317a.68.68 0 0 1-.283.923c-4.498 2.386-8.317 6.827-11.517 12.234-3.193 5.398-5.733 11.696-7.699 17.71-1.965 6.01-3.352 11.715-4.248 15.92a150 150 0 0 0-.984 5.026 101 101 0 0 0-.308 1.836l-.003.022-.001.007-.68-.1-.68-.101.002-.008.004-.025.073-.465c.053-.323.132-.797.24-1.403.214-1.212.542-2.952.993-5.071.902-4.237 2.3-9.992 4.285-16.06 1.983-6.066 4.559-12.465 7.821-17.979 3.257-5.505 7.236-10.191 12.055-12.747a.69.69 0 0 1 .93.28M73.542 73.57a.683.683 0 0 1-.578-.775l.68.1.679.1a.686.686 0 0 1-.78.575" clip-rule="evenodd"/><path fill="#2e186a" fill-rule="evenodd" d="M104.656 33.101a.68.68 0 0 1-.348.9c-2.034.899-6.666 3.007-11.475 5.632-4.832 2.638-9.757 5.752-12.442 8.648a.69.69 0 0 1-.971.04.68.68 0 0 1-.04-.964c2.852-3.077 7.958-6.281 12.791-8.92 4.857-2.65 9.528-4.777 11.578-5.682a.69.69 0 0 1 .907.346M75.542 35.865a.684.684 0 0 1 .62.743c-.287 3.045-.57 7.202-.466 11.005.053 1.901.203 3.696.492 5.21.293 1.532.714 2.696 1.256 3.402a.68.68 0 0 1-.13.957.69.69 0 0 1-.962-.129c-.74-.963-1.21-2.382-1.514-3.976-.308-1.612-.461-3.486-.515-5.427-.108-3.883.181-8.103.47-11.17a.686.686 0 0 1 .75-.615M97.354 52.892a.68.68 0 0 1-.107.96c-3.3 2.625-8.575 5.143-12.969 6.991a137 137 0 0 1-7.388 2.852l-.594.206-.032.01-.01.004h-.001l-.221-.646.22.647a.69.69 0 0 1-.87-.428.68.68 0 0 1 .43-.865l.1.295-.1-.295.009-.003.03-.01.12-.041.461-.16a135.53 135.53 0 0 0 7.31-2.822c4.39-1.847 9.507-4.304 12.646-6.8a.69.69 0 0 1 .965.105M47.503 32.374a.69.69 0 0 1 .965-.112l-.426.536c.426-.536.426-.535.427-.535l.001.001.005.004.017.014a8 8 0 0 1 .285.238c.194.165.473.412.822.742a38 38 0 0 1 2.814 2.973c2.271 2.654 5.171 6.671 7.707 12.136 5.077 10.942 8.674 27.647 2.915 50.777a.687.687 0 0 1-1.334-.327c5.684-22.828 2.118-39.216-2.83-49.878-2.475-5.337-5.303-9.25-7.505-11.825a37 37 0 0 0-2.712-2.866 22 22 0 0 0-.976-.869l-.05-.04-.01-.009-.003-.001a.68.68 0 0 1-.112-.959" clip-rule="evenodd"/><path fill="#ff8d7e" d="M50.058 34.193c1.371-.795 1.157-3.694-.477-6.474-1.635-2.78-4.072-4.39-5.443-3.595s-1.157 3.693.478 6.474c1.635 2.78 4.072 4.39 5.442 3.595"/><path fill="#ff8d7e" d="M50.42 34.164c.032-1.576-2.57-2.906-5.811-2.97s-5.895 1.16-5.926 2.736 2.57 2.907 5.812 2.971c3.241.064 5.895-1.161 5.926-2.737"/><path fill="#ff8d7e" d="M55.65 31.677c1.748-2.292 2.25-4.84 1.12-5.69-1.131-.85-3.465.319-5.213 2.61s-2.25 4.84-1.12 5.69 3.464-.318 5.213-2.61"/><path fill="#ff8d7e" d="M52.841 42.533c1.291-.583 1.366-3.177.167-5.794-1.198-2.618-3.216-4.267-4.507-3.684-1.29.582-1.365 3.177-.167 5.794 1.198 2.618 3.216 4.267 4.507 3.684"/><path fill="#ff8d7e" d="M57.4 34.654c.135-1.265-1.863-2.51-4.461-2.784-2.6-.273-4.815.53-4.95 1.795s1.863 2.51 4.462 2.783 4.815-.53 4.95-1.794"/><path fill="#fff" d="m38.505 101.309 10.765 47.853h34.195l10.763-47.853c.614-2.73-1.125-5.42-3.511-5.42H42.019c-2.39.01-4.128 2.69-3.514 5.42"/><path fill="#2e186a" fill-rule="evenodd" d="M42.018 95.207h48.698c1.473 0 2.703.833 3.459 2 .755 1.167 1.07 2.708.723 4.251l-.67-.149.67.149-10.763 47.853a.685.685 0 0 1-.67.533H49.27a.685.685 0 0 1-.671-.533l-10.765-47.853c-.347-1.543-.032-3.082.724-4.248s1.986-1.997 3.458-2.003zm.002 1.365c-.917.004-1.75.518-2.307 1.377-.557.86-.805 2.025-.538 3.212L49.82 148.48h33.094l10.643-47.319c.267-1.187.02-2.355-.538-3.216-.557-.86-1.39-1.373-2.303-1.373z" clip-rule="evenodd"/><path stroke="#2e186a" stroke-linecap="round" stroke-linejoin="round" stroke-width="2.5" d="M84.757 83.978c-4.133.198-12.788 2.848-14.342 11.868"/><path fill="#ff8d7e" d="M84.612 84.245c.797-.11 1.173-2.145.84-4.546s-1.25-4.26-2.046-4.152c-.797.11-1.173 2.145-.84 4.546s1.249 4.26 2.046 4.152"/><path fill="#ff8d7e" d="M88.607 82.727c1.74-1.405 2.773-3.005 2.307-3.575-.466-.569-2.254.109-3.995 1.514-1.74 1.405-2.773 3.005-2.307 3.574.466.57 2.255-.108 3.995-1.513"/><path fill="#ff8d7e" d="M84.611 84.145c.37-.71-1.09-2.187-3.259-3.3s-4.226-1.44-4.596-.73c-.369.71 1.09 2.188 3.26 3.3 2.168 1.113 4.226 1.44 4.595.73M91.754 88.075c.351-.646-.964-2.027-2.937-3.086s-3.857-1.393-4.209-.748c-.35.645.964 2.027 2.938 3.085 1.973 1.06 3.857 1.394 4.208.749"/><path fill="#ff8d7e" d="M84.291 88.15c.942-2.028 1.16-3.92.489-4.228-.673-.308-1.981 1.085-2.923 3.111s-1.16 3.92-.488 4.228 1.98-1.085 2.922-3.112"/><path fill="#2e186a" d="m241.113 69.62-106.962.78a4.46 4.46 0 0 0-2.351.69 4.4 4.4 0 0 0-1.623 1.826l-34.496 70.238-67.691.065s-1.51 9.842 11.119 10.452l51.488-.163h8.182l109.448-.112 36.926-77.494a4.381 4.381 0 0 0-.272-4.25 4.4 4.4 0 0 0-1.62-1.498 4.46 4.46 0 0 0-2.148-.533"/><path fill="#fff" fill-rule="evenodd" d="M232.875 69.175a4.9 4.9 0 0 1 2.365.588c.725.391 1.339.959 1.784 1.65a4.82 4.82 0 0 1 .3 4.68l-36.37 76.442a.45.45 0 0 1-.597.213.445.445 0 0 1-.214-.594l36.369-76.442a3.93 3.93 0 0 0-.245-3.819 3.97 3.97 0 0 0-1.456-1.347 4 4 0 0 0-1.93-.48.447.447 0 0 1-.452-.442.45.45 0 0 1 .446-.449" clip-rule="evenodd"/><path fill="#fff" d="m106.935 139.826 88.455-.446a8.2 8.2 0 0 0 4.298-1.242 8.13 8.13 0 0 0 2.992-3.306l26.635-56.041c1.144-2.3-.632-4.942-3.309-4.922l-87.658.633a3.67 3.67 0 0 0-1.909.53 3.63 3.63 0 0 0-1.348 1.444l-30.836 59.105a2.93 2.93 0 0 0 .148 2.864 2.981 2.981 0 0 0 2.532 1.381"/><path fill="#ffc29e" stroke="#2e186a" stroke-linecap="round" stroke-linejoin="round" stroke-width="2" d="M176.384 77.266c-3.026 7.884-4.658 19.243-4.568 19.798.09.556 9.141 14.794 12.325 18.794 5.269 6.621 14.513.66 8.63-9.068-5.885-9.726-7.626-18.41-7.626-18.41z"/><path fill="#ffc29e" d="m260.016 50.607-17.229 3.834c-10.437 40.18-34.019 31.716-34.019 31.716-3.103-1.95-47.138-13.242-47.138-13.242s5.801-26.194 17.586-33.756c7.662-4.918 46.818-22.505 73.268-34.206"/><path stroke="#2e186a" stroke-linecap="round" stroke-linejoin="round" stroke-width="2" d="m260.016 50.607-17.229 3.834c-10.437 40.18-34.019 31.716-34.019 31.716-3.103-1.95-47.138-13.242-47.138-13.242s5.801-26.194 17.586-33.756c7.662-4.918 46.818-22.505 73.268-34.206"/><path fill="#ffc29e" stroke="#2e186a" stroke-linecap="round" stroke-linejoin="round" stroke-width="2" d="M221.008 85.403c4.108 3.12 7.561 6.855 12.035 2.005 4.474-4.853 5.736-7.024 2.85-17.83s-8.7-12.68-13.243-5.288-1.642 21.113-1.642 21.113"/><path fill="#ffc29e" stroke="#2e186a" stroke-linecap="round" stroke-linejoin="round" stroke-width="2" d="M209.186 99.88s6.343 4.599 9.722 1.96 7.313-15.97 6.673-27.745c-.641-11.772-10.718-9.632-12.058-3.182s-4.337 28.964-4.337 28.964z"/><path fill="#ffc29e" stroke="#2e186a" stroke-linecap="round" stroke-linejoin="round" stroke-width="2" d="M201.303 106.465c7.848 1.382 8.995-4.042 9.774-8.15.78-4.106 2.515-12.947 2.945-17.231 1.099-10.925-12.301-9.518-15.53-1.17-3.247 8.394-5.04 25.171 2.808 26.553z"/><path fill="#c1c1fb" stroke="#2e186a" stroke-linecap="round" stroke-linejoin="round" stroke-width="2" d="m199.942 55.326-74.929-.104c-3.07-.004-5.561 2.466-5.566 5.517l-.058 41.649c-.004 3.052 2.48 5.529 5.55 5.533l74.929.104c3.069.004 5.561-2.466 5.565-5.517l.058-41.65c.005-3.05-2.48-5.528-5.549-5.532"/><rect width="20.738" height="24.415" x="178.139" y="73.483" fill="#fff" rx="4"/><path fill="#5d21d1" d="M195.863 97.963c-.697-1.595-1.63-3.378-2.43-3.712-1.506-.63-10.08-2.692-12.18-1.677a13.4 13.4 0 0 0-3.165 2.109 3.28 3.28 0 0 0 3.28 3.28z"/><path fill="#fe7624" d="m187.174 80.906.918-.278-.493-1.608-.918.278z"/><path fill="#2e186a" d="M186.651 79.572c.934 0 1.691-.752 1.691-1.68 0-.929-.757-1.682-1.691-1.682s-1.691.753-1.691 1.681c0 .929.757 1.681 1.691 1.681M187.386 79.948c1.487-.303 3.442-.207 4.816.508 4.161 2.397 4.14 5.32 2.323 6.577.137-2.26-.176-3.157-.935-3.763-.886 1.261-3.963 2.456-6.466 2.2 0-.007-.236 2.24-.017 2.245.025.138.338 1.385.338 1.385l-.595 2.355-5.931-1.595c-.336-.046-.559-.405-.441-.714.731-1.93 2.126-8.154 6.912-9.196z"/><path fill="#fff" stroke="#2e186a" stroke-linecap="round" stroke-linejoin="round" d="m190.923 91.438-.229 1.973.689.232c.097.192 1.015 2.963-2.052 2.802-2.001-.104-4.448-2.399-4.711-3.812l.584-.013c.863-.071 1.43-.597 1.682-1.42l.687-2.244z"/><path fill="#fff" d="m187.533 88.434-.338.029s-1.961.008-1.798-1.783c.124-1.36 1.462-1.124 2.101-.932"/><path stroke="#2e186a" stroke-linecap="round" stroke-linejoin="round" stroke-width="1.61" d="m187.533 88.434-.338.029s-1.961.008-1.798-1.783c.124-1.36 1.462-1.124 2.101-.932"/><path fill="#fff" stroke="#2e186a" stroke-linecap="round" stroke-linejoin="round" d="M194.525 87.03c.136-2.259-.174-3.069-.935-3.674-.873 1.24-3.619 2.442-6.406 2.123-.096.303-.017.031-.071.37-.032.355-.063.755-.078 1.094.036 1.294.408 2.154.408 2.154.51 1.33 1.499 2.42 2.972 2.765 2.57.6 3.784-2.953 3.959-3.754.086-.397.151-1.078.151-1.078"/><path stroke="#2e186a" stroke-linecap="round" stroke-linejoin="round" d="m192.028 88.739.752.106-.096-3.021M190.505 85.584s.556-.537 1.023-.13M191.507 90.014s-.771.094-.893-.513M193.578 85.922s.712-.307 1.004.238"/><path fill="#2e186a" d="M190.409 86.813c.038-.21-.043-.4-.18-.424s-.279.127-.316.338c-.037.21.044.4.181.423.137.024.278-.127.315-.337M193.975 87.421c.037-.21-.044-.4-.181-.424s-.278.127-.316.337.044.4.181.424.279-.127.316-.337"/><path stroke="#fe7624" stroke-linecap="round" stroke-linejoin="round" d="M192.19 86.614c.196-1.14-.349-2.184-1.219-2.333-.87-.148-1.735.656-1.932 1.796s.349 2.184 1.219 2.332c.87.149 1.735-.655 1.932-1.795M196.351 87.476c.197-1.14-.349-2.185-1.219-2.333s-1.735.655-1.932 1.795.349 2.184 1.219 2.333c.87.148 1.735-.656 1.932-1.796M193.198 86.627l-.996-.135M189.111 85.717l-2.164-.071"/><path fill="#000091" d="M132.769 61.575h-7.292V68.4h7.292z"/><path fill="#e1000f" d="M144.239 61.575h-7.293V68.4h7.293z"/><path fill="#fff" d="M136.991 61.575h-4.216V68.4h4.216z"/><path stroke="#2e186a" stroke-linecap="round" stroke-linejoin="round" stroke-width="2" d="M126.283 79.69h42.591M126.283 88.216h42.591M157.321 102.412c-.019-1.587-.035-3.174.044-4.758.051-1.003.143-2.011.442-2.97.075-.242.165-.486.338-.67.172-.184.443-.3.684-.223.215.067.36.263.475.455.34.572.544 1.213.72 1.854.408 1.476.696 2.986.857 4.51.087.819.137 1.654-.052 2.454-.038.162-.09.329-.21.446s-.321.167-.456.067a.5.5 0 0 1-.145-.219c-.183-.455-.235-.954-.252-1.445a10.5 10.5 0 0 1 .473-3.478c.176-.564.413-1.132.848-1.531.128-.12.286-.224.462-.225.334 0 .54.352.662.661.494 1.257.762 2.6.792 3.951.004.211-.04.478-.246.524-.218-.232-.321-.547-.393-.856a6.12 6.12 0 0 1 .408-3.921c.164-.353.367-.696.661-.953.313.099.444.46.532.773l.792 2.844c.772-.831 1.6-1.614 2.474-2.34M168.579 96.104l.227-.207"/><path fill="#ffc29e" d="M198.658 34.814s-13.486 11.018-17.17 14.09c-3.682 3.07-6.992 9.928-15.057 13.404-9.525 4.105-2.886 19.354 14.759 8.945 12.476-7.36 11.484-8.164 16.933-10.425 1.817-.754 3.44-1.107 5.001-.98 6.244.51 20.188-.471 34.735-11.993"/><path stroke="#2e186a" stroke-linecap="round" stroke-linejoin="round" stroke-width="2" d="M198.658 34.814s-13.486 11.018-17.17 14.09c-3.682 3.07-6.992 9.928-15.057 13.404-9.525 4.105-2.886 19.354 14.759 8.945 12.476-7.36 11.484-8.164 16.933-10.425 1.817-.754 3.44-1.107 5.001-.98 6.244.51 20.188-.471 34.735-11.993"/><path fill="#ff8d7e" d="M186.742 146.024h30.97c.632 0 1.239.25 1.686.694s.698 1.046.698 1.674v5.274h-35.74v-5.274a2.35 2.35 0 0 1 .699-1.674 2.39 2.39 0 0 1 1.687-.694"/><path fill="#000091" fill-rule="evenodd" d="M153.488 125.368h13.254v1.462h-13.254zm7.363-7.311h5.154l-5.89 5.849-5.89-5.849h5.154v-5.849h1.472z" clip-rule="evenodd"/></g><defs><clipPath id="a"><path fill="#fff" d="M0 0h284v158.625H0z"/></clipPath></defs></svg>