<svg xmlns="http://www.w3.org/2000/svg" width="189" height="118" fill="none" viewBox="0 0 189 118"><g clip-path="url(#a)"><path fill="#ff8d7e" d="M36.968 45.13h33.271c5.48 0 10.737 2.184 14.612 6.071a20.76 20.76 0 0 1 6.052 14.656v51.572h-74.6V65.857A20.76 20.76 0 0 1 22.357 51.2a20.63 20.63 0 0 1 14.612-6.07"/><path fill="#2e186a" d="M108.55 55.018c-4.982-4.646-23.119-16.724-47.945-.919-9.514 5.369-16.366 14.443-25.943 29.33-14.122 21.953-.483 34.079 7.545 34.079 8.027 0 97.3-.707 97.3-.707s3.475-34.54-30.957-61.783"/><path fill="#fff" d="m71.273 50.627-3.21 3.31S83.35 65.593 88.315 93.68c3.23 18.248 2.127 20.298 2.127 20.298l9.474-.508s-5.278-30.349-1.996-39.953.282-20.388-1.941-22.134c-2.224-1.747-24.705-.757-24.705-.757M97.403 47.172l-16.444 2.044-1.29-6.442-4.674-1.513-.355 6.143"/><path fill="#2e186a" fill-rule="evenodd" d="M74.744 40.892a.45.45 0 0 1 .389-.057l4.674 1.514c.153.05.268.179.3.337l1.209 6.035 16.032-1.993a.446.446 0 0 1 .11.888L81.015 49.66a.446.446 0 0 1-.492-.356l-1.24-6.184-3.876-1.256-.321 5.566a.447.447 0 1 1-.89-.052l.354-6.143a.45.45 0 0 1 .194-.343" clip-rule="evenodd"/><path fill="#fff" d="m74.64 47.404-3.034 3.492s3.419 8.422 17.541 15.359c0 0 7.017-7.432 8.248-19.077"/><path fill="#2e186a" fill-rule="evenodd" d="M97.443 46.733a.447.447 0 0 1 .396.492c-.623 5.9-2.712 10.73-4.642 14.082a35 35 0 0 1-2.58 3.878 25 25 0 0 1-1.06 1.284l-.061.068-.017.018-.005.005-.002.002-.324-.307.324.308a.445.445 0 0 1-.52.094c-7.114-3.494-11.546-7.37-14.205-10.386-1.329-1.508-2.213-2.8-2.768-3.719-.277-.46-.471-.826-.598-1.08a9 9 0 0 1-.184-.397l-.002-.006-.001-.003.412-.17-.413.17a.45.45 0 0 1 .077-.463l3.034-3.493a.445.445 0 0 1 .63-.043.45.45 0 0 1 .043.631l-2.846 3.275.049.1c.116.233.299.578.563 1.016.528.877 1.38 2.124 2.672 3.59 2.545 2.886 6.796 6.622 13.627 10.025a20 20 0 0 0 .869-1.066 34 34 0 0 0 2.513-3.778c1.886-3.276 3.921-7.985 4.528-13.73a.446.446 0 0 1 .49-.397" clip-rule="evenodd"/><path fill="#fff" d="M96.66 48.78s3.667 7.556-1.417 18.143c0 0-1.784-4.772-6.096-.674.008 0 6.69-6.93 7.512-17.468"/><path fill="#2e186a" fill-rule="evenodd" d="m97.061 48.585-.401.196zl.001.002.003.006.01.02.033.073q.041.095.114.273c.095.238.222.587.358 1.037.273.9.579 2.205.722 3.846.288 3.284-.077 7.901-2.657 13.274a.446.446 0 0 1-.819-.036l-.003-.007-.012-.031-.057-.127a5 5 0 0 0-.237-.44c-.217-.355-.535-.766-.958-1.058a2.06 2.06 0 0 0-1.567-.351c-.654.11-1.495.518-2.532 1.502l-.032.028a.9.9 0 0 1-.28.1.446.446 0 0 1-.31-.77l.009-.008.051-.055q.071-.075.207-.23c.18-.204.44-.51.754-.91.63-.8 1.48-1.979 2.354-3.483 1.752-3.01 3.598-7.312 4.002-12.495a.447.447 0 0 1 .846-.161m-5.787 15.744q.293-.099.572-.145c.904-.15 1.647.101 2.22.497.52.36.899.837 1.152 1.233 2.162-4.863 2.456-9.018 2.196-11.993a18.7 18.7 0 0 0-.535-3.126c-.67 4.47-2.324 8.197-3.895 10.897a32 32 0 0 1-1.71 2.637" clip-rule="evenodd"/><path fill="#fff" d="M97.943 99.4c2.427.559 4.366 1.103 4.905 1.509 1.743 1.319 8.974 8.425 9.238 9.583.265 1.159-1.854 1.801-3.605.017l-5.155-4.932s5.252 5.996 5.659 6.913-1.646 2.535-4.681-1.321-3.518-3.892-3.518-3.892 3.47 4.852 3.931 5.953-2.463 2.132-5.147-2.957l-16.05-.704.94-12.774s7.996 1.342 13.483 2.608"/><path fill="#2e186a" fill-rule="evenodd" d="m84.535 96.354-.074.44zl.092.015a341 341 0 0 1 4.598.815c2.67.491 6.023 1.14 8.768 1.771l.05.009c1.218.28 2.32.559 3.189.82.434.13.816.257 1.128.38.302.12.571.248.756.387l.002.001c.9.682 3.165 2.81 5.221 4.894a70 70 0 0 1 2.773 2.951c.375.429.695.817.932 1.139q.18.243.299.446c.074.126.146.269.179.41.101.444-.031.854-.32 1.154-.278.287-.679.453-1.111.503-.707.081-1.563-.135-2.37-.738q.146.19.265.356c.179.247.334.477.407.641.184.414.072.866-.197 1.191-.273.329-.71.544-1.24.568-.865.038-1.958-.423-3.178-1.676.157.269.281.498.351.666.207.495.012.984-.392 1.26-.384.263-.929.331-1.517.191-1.15-.275-2.584-1.358-3.921-3.799l-15.798-.693a.447.447 0 0 1-.425-.48l.94-12.774a.45.45 0 0 1 .519-.408m16.252 10.923c.033-.446.035-.446.036-.446l.004.001h.006l.003.001.009.001.017.002.007.002.045.01a1 1 0 0 1 .081.03q.075.033.167.096c.122.084.298.229.557.484.52.51 1.413 1.5 2.935 3.434 1.485 1.885 2.635 2.308 3.263 2.281.312-.014.501-.135.593-.246.096-.116.088-.21.068-.255-.028-.065-.127-.222-.313-.479a26 26 0 0 0-.684-.891 109 109 0 0 0-1.918-2.323 221 221 0 0 0-1.847-2.157l-.599-.691-.167-.191-.058-.066-.001-.001.335-.296-.335.296a.45.45 0 0 1 .026-.618.445.445 0 0 1 .617-.001l5.156 4.931.001.002.009.008c.795.81 1.631 1.029 2.189.965.284-.033.473-.134.572-.237a.33.33 0 0 0 .091-.331q.002.001-.016-.04a1 1 0 0 0-.062-.117 4 4 0 0 0-.247-.367 17 17 0 0 0-.886-1.082 69 69 0 0 0-2.736-2.91c-2.06-2.088-4.282-4.171-5.124-4.81-.085-.063-.26-.156-.548-.269-.28-.111-.635-.23-1.057-.357a52 52 0 0 0-3.082-.793l-.05-.008c-2.734-.631-6.097-1.282-8.78-1.775a368 368 0 0 0-4.194-.746l-.871 11.824 15.592.684c.158.007.3.097.374.238 1.312 2.488 2.63 3.375 3.462 3.573.421.101.688.023.807-.059.099-.067.096-.12.073-.175-.098-.233-.378-.709-.773-1.326a83 83 0 0 0-1.322-1.983c-.461-.673-.908-1.312-1.24-1.783l-.398-.563-.111-.156-.038-.053v-.001zm0 0-.362.261a.448.448 0 0 1 .395-.707z" clip-rule="evenodd"/><path fill="#2e186a" d="M56.327 117.429s25.727-1.746 28.611-2.492c2.884-.745 1.814-2.858 3.904-3.665s2.756-1.454 2.756-1.454c-2.707-4.333 0-11.513 0-11.513s-.709-.194-2.902-.645c-2.192-.452-1.486-2.717-4.448-2.983-2.961-.265-28.436 2.665-28.436 2.665"/><path fill="#2e186a" fill-rule="evenodd" d="M57.11 89.594a.446.446 0 0 1 .487-.402l-.044.445.044-.445h.008l.015.003a3 3 0 0 1 .226.036c.149.028.358.075.611.152.506.154 1.19.429 1.914.915 1.458.978 3.043 2.79 3.68 6.088a.446.446 0 1 1-.876.17c-.591-3.06-2.036-4.667-3.3-5.515a6.4 6.4 0 0 0-1.677-.802 5 5 0 0 0-.652-.152l-.031-.004h-.006a.447.447 0 0 1-.4-.49" clip-rule="evenodd"/><path fill="#2e186a" d="M89.196 111.572c2.26-.855 2.983-1.541 2.983-1.541-2.931-4.586 0-12.188 0-12.188s-.768-.206-3.141-.684c-.954-.193-1.4-.697-1.802-1.249-4.858 5.528-1.941 15.237-.645 18.757 1.139-1.003.89-2.448 2.605-3.095"/><path fill="#2e186a" fill-rule="evenodd" d="M77.8 70.796a.594.594 0 0 1 .794.28l-.536.258.536-.258.004.008.01.023.043.09.16.342a95.543 95.543 0 0 1 2.353 5.605c1.32 3.457 2.748 7.844 3.094 11.43a.595.595 0 1 1-1.184.115c-.33-3.416-1.706-7.677-3.02-11.118a94 94 0 0 0-2.323-5.53l-.155-.335-.041-.086-.01-.022-.003-.006a.597.597 0 0 1 .278-.796M101.057 71.204c.32.074.52.394.446.715l-.001.007-.005.02-.018.081-.07.32a82.34 82.34 0 0 0-.934 5.322c-.471 3.324-.842 7.475-.478 10.894a.596.596 0 1 1-1.183.126c-.38-3.568.009-7.838.483-11.187a84 84 0 0 1 .949-5.404l.072-.33.019-.086.005-.022.002-.008.58.133-.58-.133a.595.595 0 0 1 .713-.448" clip-rule="evenodd"/><path fill="#6a6af4" d="M157.532 117.284a1.635 1.635 0 0 0 1.592-1.263l8.977-38.117a1.64 1.64 0 0 0-.309-1.396 1.64 1.64 0 0 0-1.283-.622h-57.798a1.63 1.63 0 0 0-1.592 1.263l-8.035 34.12h-20.95s-1.162 6.015 5.608 6.015"/><path fill="#fff" d="M133.422 90.559s2.656-.647 2.824 1.66c.005 0-2.115.852-2.824-1.66"/><path fill="#fff" d="M138.28 96.504a3.5 3.5 0 0 0-.854-.4c.387-.407.605-.945.611-1.507a1.51 1.51 0 0 0-.743-1.362c.253-.757.662-1.849.987-2.236a.448.448 0 0 0-.377-.736.45.45 0 0 0-.304.157c-.471.56-.96 1.938-1.198 2.668h-.049c-.923.17-1.668 1.116-1.663 2.116-.001.297.078.59.229.846a5.7 5.7 0 0 0-2.816 1.64c-1.679 1.79-1.635 4.176.091 5.311s4.494.596 6.172-1.193 1.643-4.168-.086-5.304M72.877 29.645s-5.715.112-4.692 5.241c1.023 5.13 7.338 2.164 7.338 2.164l-.846-7.293z"/><path fill="#2e186a" fill-rule="evenodd" d="M72.868 29.198h.036l1.8.112c.216.014.39.18.416.395l.846 7.293a.45.45 0 0 1-.254.457l-.19-.405.19.405h-.001l-.002.001-.004.002-.008.004-.008.003a5 5 0 0 1-.272.117c-.183.074-.444.174-.76.276-.628.205-1.489.427-2.394.48-.901.053-1.888-.059-2.73-.566-.859-.518-1.51-1.411-1.786-2.798-.272-1.365-.103-2.443.346-3.282.447-.834 1.145-1.385 1.85-1.748a7 7 0 0 1 1.98-.642 8 8 0 0 1 .867-.101l.055-.003h.022l.01.447zm.002.895a3 3 0 0 0-.2.012c-.143.013-.349.035-.594.078a6.1 6.1 0 0 0-1.725.557c-.596.306-1.135.745-1.472 1.375-.334.624-.496 1.484-.257 2.683.235 1.178.758 1.838 1.37 2.207.63.379 1.414.487 2.22.44.8-.047 1.582-.246 2.17-.437.27-.088.495-.173.659-.239l-.764-6.589z" clip-rule="evenodd"/><path fill="#fff" d="M89.155 13.483c1.505-.126 11.824-.777 12.952 7.858s-.089 18.166-1.04 22.516-8.352 15.312-15.042 12.777S76.79 44.11 76.79 44.11l-2.709-13.26s-1.103-16.018 15.075-17.366"/><path fill="#2e186a" fill-rule="evenodd" d="M95.642 14.554c-2.825-.875-5.71-.687-6.45-.626-3.968.331-6.847 1.558-8.943 3.19-2.099 1.635-3.436 3.695-4.286 5.727-.851 2.034-1.211 4.032-1.358 5.524a19 19 0 0 0-.094 1.791 13 13 0 0 0 .013.631l2.7 13.217.004.015.022.08.09.312a28.063 28.063 0 0 0 1.954 4.798c1.458 2.785 3.7 5.794 6.89 7.003 1.535.581 3.127.399 4.699-.306 1.578-.707 3.113-1.932 4.492-3.39a26 26 0 0 0 3.496-4.701c.921-1.58 1.537-3.035 1.761-4.058.944-4.317 2.153-13.794 1.034-22.362-.534-4.088-3.22-5.977-6.024-6.845M76.79 44.109l-.433.11-.004-.02-2.709-13.26-.008-.058.445-.031-.445.03v-.014l-.003-.039-.006-.142a14 14 0 0 1-.008-.528c.002-.453.022-1.098.099-1.875.152-1.553.527-3.644 1.422-5.783.897-2.142 2.317-4.34 4.561-6.087 2.248-1.75 5.296-3.032 9.417-3.375.767-.064 3.794-.265 6.787.662 3.014.934 6.051 3.037 6.645 7.584 1.137 8.701-.088 18.287-1.047 22.67-.252 1.151-.918 2.698-1.861 4.317a27 27 0 0 1-3.62 4.865c-1.426 1.509-3.055 2.82-4.776 3.592-1.727.774-3.568 1.011-5.378.326-3.5-1.327-5.876-4.58-7.364-7.424a29 29 0 0 1-2.02-4.958 17 17 0 0 1-.122-.434l-.002-.008-.002-.007v-.002z" clip-rule="evenodd"/><path fill="#2e186a" d="M101.978 23.452c-8.386.375-13.241-.544-15.93-2.594 1.999 1.206-.25 13.743-12.674 11.814 0 0-2.676-4.175-3.716-8.5-.977-4.07.906-8.34 4.668-10.164 3.145-1.529 5.478-.33 5.478-.33s-3.338-5.7 1.67-10.736A9.12 9.12 0 0 1 88.177.258c6.116.18 8.007 5.368 8.007 5.368S106.69.717 109.216 8.322s-2.136 14.911-7.238 15.13"/><path fill="#2e186a" fill-rule="evenodd" d="M90.204 43.623a.595.595 0 1 0-1.174.19l.587-.093-.587.094v.005l.003.01a2 2 0 0 0 .025.125 3.714 3.714 0 0 0 .53 1.244c.226.336.551.681 1.011.909.467.23 1.031.32 1.692.204a.596.596 0 0 0-.204-1.175c-.435.076-.741.01-.962-.1a1.44 1.44 0 0 1-.551-.505 2.5 2.5 0 0 1-.368-.897zM95.69 33.37a.595.595 0 0 1 .658.525l.902 7.89a.598.598 0 0 1-.738.646l-2.773-.712a.597.597 0 0 1 .295-1.155l1.936.496-.804-7.029a.596.596 0 0 1 .523-.66" clip-rule="evenodd"/><path fill="#2e186a" d="M98.809 35.352c.445 0 .805-.56.805-1.252 0-.69-.36-1.25-.805-1.25s-.806.56-.806 1.25c0 .691.36 1.252.806 1.252M91.05 35.214c.445 0 .806-.56.806-1.25 0-.692-.361-1.252-.806-1.252s-.806.56-.806 1.251.36 1.251.806 1.251"/><path fill="#2e186a" fill-rule="evenodd" d="M90.809 27.386a3.09 3.09 0 0 0-2.934 1.157.593.593 0 0 1-.835.104.6.6 0 0 1-.103-.837 4.29 4.29 0 0 1 4.06-1.602.596.596 0 0 1-.189 1.178M98.451 27.24h.001l.01-.002.054-.012q.076-.016.215-.033c.186-.022.43-.034.68 0 .487.064.929.278 1.119.897a.594.594 0 1 0 1.137-.352c-.374-1.214-1.33-1.626-2.1-1.728a4 4 0 0 0-1.399.072l-.009.002h-.003v.001h-.001l.148.575-.149-.575a.597.597 0 0 0 .297 1.155M.042 117.508c0-.247.2-.448.446-.448h188.023a.447.447 0 0 1 0 .895H.488a.446.446 0 0 1-.446-.447" clip-rule="evenodd"/><path fill="#fff" d="M74.065 45.766s-4.638.411-4.664 4.895 13.355 17.306 13.355 17.306 3.434-5.368 6.392-1.718c.007 0-19.758-15.099-15.083-20.483"/><path fill="#2e186a" fill-rule="evenodd" d="M74.462 45.562a.45.45 0 0 1-.061.497c-.963 1.109-.748 2.804.44 4.962 1.165 2.119 3.163 4.476 5.333 6.692 2.164 2.21 4.477 4.255 6.25 5.75.595.502 1.13.941 1.576 1.303.516.224 1.019.615 1.494 1.2l-.041.034c.017.16.002.487-.305.696a.45.45 0 0 1-.28-.099l-.007-.005-.042-.033a56 56 0 0 1-.787-.62l-.489-.392a1.9 1.9 0 0 0-.648-.123c-.604-.008-1.217.263-1.793.678-.571.412-1.065.938-1.42 1.368a10 10 0 0 0-.518.688l-.026.04-.006.008-.001.002a.446.446 0 0 1-.684.082l.308-.324-.308.324-.01-.01-.03-.028-.112-.109-.427-.417c-.367-.36-.891-.88-1.52-1.519a132 132 0 0 1-4.612-4.915c-1.676-1.888-3.36-3.928-4.627-5.783-.633-.928-1.168-1.818-1.545-2.628-.374-.801-.613-1.564-.609-2.223.014-2.436 1.298-3.791 2.567-4.515a6.8 6.8 0 0 1 2.483-.821l.014-.002h.005l.04.445-.039-.445a.45.45 0 0 1 .437.242m8.23 21.721q.128-.171.303-.383c.38-.462.93-1.05 1.587-1.524.513-.37 1.117-.689 1.776-.802l-.508-.426c-1.785-1.505-4.12-3.57-6.312-5.808-2.187-2.233-4.253-4.66-5.478-6.887-.98-1.78-1.496-3.576-.912-5.037a5.8 5.8 0 0 0-1.185.504c-1.057.603-2.104 1.695-2.116 3.743-.002.462.171 1.08.525 1.84.35.749.855 1.595 1.473 2.5 1.235 1.81 2.891 3.817 4.557 5.695a131 131 0 0 0 4.58 4.88c.625.635 1.146 1.151 1.51 1.51zm6.178-.685h-.002z" clip-rule="evenodd"/><path fill="#fff" d="M89.594 67.967s3.532 9.067 4.293 27.943z"/><path fill="#2e186a" fill-rule="evenodd" d="M89.431 67.55c.23-.09.488.024.578.254l-.415.163.415-.163.001.003.002.006.04.106q.04.11.116.328c.1.29.243.724.416 1.303a66 66 0 0 1 1.307 5.217c.983 4.651 2.06 11.662 2.441 21.125a.447.447 0 1 1-.89.036c-.38-9.412-1.45-16.373-2.423-20.975a65 65 0 0 0-1.289-5.146 33 33 0 0 0-.515-1.58l-.028-.075-.007-.018-.002-.004a.45.45 0 0 1 .253-.58M85.582 31.11a.447.447 0 0 1 .443-.4H94.5c.216 0 .4.156.439.369l-.439.08.439-.08v.002l.001.005.003.018.01.063q.014.082.032.23c.024.196.053.474.069.808.032.663.018 1.56-.176 2.466-.194.903-.574 1.85-1.3 2.573-.736.734-1.789 1.198-3.24 1.198-1.376 0-2.392-.47-3.121-1.198-.718-.718-1.127-1.656-1.362-2.554a10.5 10.5 0 0 1-.312-2.457 12 12 0 0 1 .037-1.098l.002-.018v-.006zl.443.047zm.86.496a11 11 0 0 0-.008.614c.01.62.072 1.436.283 2.243.212.811.564 1.582 1.128 2.147.554.553 1.34.938 2.492.938 1.245 0 2.062-.39 2.612-.939.56-.558.883-1.32 1.056-2.126.172-.804.187-1.616.157-2.235a10 10 0 0 0-.052-.642zM96.435 31.088a.446.446 0 0 1 .443-.4h8.474c.215 0 .4.156.438.369l-.438.08.439-.08v.002l.001.005.003.017.01.064.032.23c.024.196.052.474.068.807.033.664.019 1.56-.176 2.466-.193.904-.573 1.85-1.299 2.574-.737.734-1.789 1.198-3.241 1.198-1.375 0-2.392-.47-3.12-1.199-.718-.717-1.128-1.655-1.362-2.553a10.5 10.5 0 0 1-.312-2.457 12 12 0 0 1 .037-1.099l.002-.017v-.007l.444.048zm.86.495c-.007.165-.012.374-.008.615.009.62.072 1.435.282 2.243.212.81.564 1.582 1.129 2.147.553.553 1.339.938 2.491.938 1.246 0 2.063-.391 2.612-.939.561-.558.884-1.321 1.056-2.127.173-.803.188-1.615.157-2.234a10 10 0 0 0-.051-.643z" clip-rule="evenodd"/><path fill="#2e186a" fill-rule="evenodd" d="M94.479 32.478c0-.247.2-.447.445-.447h1.631a.447.447 0 0 1 0 .894h-1.63a.447.447 0 0 1-.447-.447M74.43 31.136c0-.247.2-.447.447-.447h10.38a.447.447 0 0 1 0 .894h-10.38a.447.447 0 0 1-.446-.447" clip-rule="evenodd"/></g><defs><clipPath id="a"><path fill="#fff" d="M0 0h189v118H0z"/></clipPath></defs></svg>