<svg width="189" height="118" viewBox="0 0 189 118" fill="none" xmlns="http://www.w3.org/2000/svg">
<g clip-path="url(#clip0_2_20586)">
<path d="M36.9676 45.1304H70.2393C75.7197 45.1304 80.9756 47.3141 84.8508 51.201C88.7261 55.088 90.9031 60.3599 90.9031 65.8569V117.429H16.3037V65.8569C16.3037 60.3599 18.4808 55.088 22.356 51.201C26.2312 47.3141 31.4872 45.1304 36.9676 45.1304Z" fill="#FF8D7E"/>
<path d="M108.55 55.018C103.568 50.3716 85.4314 38.2936 60.605 54.0994C51.0907 59.4675 44.239 68.5424 34.6622 83.4298C20.5395 105.382 34.1791 117.508 42.2068 117.508C50.2344 117.508 139.507 116.801 139.507 116.801C139.507 116.801 142.982 82.2607 108.55 55.018Z" fill="#2E186A"/>
<path d="M71.2731 50.6265L68.0635 53.9368C68.0635 53.9368 83.3503 65.5929 88.314 93.6796C91.5444 111.928 90.4414 113.978 90.4414 113.978L99.9155 113.47C99.9155 113.47 94.6366 83.121 97.919 73.5167C101.201 63.9124 98.2015 53.1286 95.9775 51.3825C93.7535 49.6364 71.2731 50.6265 71.2731 50.6265Z" fill="white"/>
<path d="M97.4026 47.1715L80.9592 49.2159L79.6688 42.7742L74.9949 41.2607L74.6396 47.4042" fill="white"/>
<path fill-rule="evenodd" clip-rule="evenodd" d="M74.7437 40.8917C74.8576 40.8135 75.0013 40.7926 75.1326 40.8351L79.8065 42.3486C79.9601 42.3983 80.075 42.5275 80.1068 42.6862L81.3156 48.721L97.3484 46.7277C97.5928 46.6973 97.8156 46.8714 97.8459 47.1166C97.8762 47.3618 97.7026 47.5852 97.4581 47.6156L81.0148 49.6599C80.7832 49.6887 80.5686 49.5335 80.5227 49.3041L79.2838 43.1195L75.4075 41.8642L75.0856 47.4301C75.0713 47.6768 74.8604 47.8651 74.6145 47.8508C74.3686 47.8365 74.1808 47.625 74.1951 47.3783L74.5504 41.2349C74.5584 41.0967 74.6298 40.9699 74.7437 40.8917Z" fill="#2E186A"/>
<path d="M74.6396 47.4041L71.6055 50.8963C71.6055 50.8963 75.0247 59.3182 89.1474 66.2549C89.1474 66.2549 96.1642 58.8231 97.3951 47.1775" fill="white"/>
<path fill-rule="evenodd" clip-rule="evenodd" d="M97.4428 46.7328C97.6878 46.7588 97.8653 46.9791 97.8393 47.2248C97.2156 53.1258 95.1267 57.9552 93.1966 61.3071C92.2311 62.9838 91.304 64.2933 90.6166 65.1854C90.2728 65.6315 89.9889 65.9735 89.7898 66.2051C89.6902 66.3209 89.6119 66.4091 89.5578 66.4689C89.5308 66.4988 89.5099 66.5217 89.4955 66.5373C89.4882 66.5451 89.4826 66.5512 89.4787 66.5554L89.474 66.5603L89.4722 66.5623C89.4721 66.5624 89.4719 66.5626 89.1481 66.255L89.4719 66.5626C89.3378 66.7047 89.1272 66.7428 88.952 66.6567C81.8378 63.1625 77.4055 59.2869 74.747 56.2708C73.4182 54.7632 72.5337 53.4718 71.9794 52.5522C71.7023 52.0924 71.5077 51.7256 71.3814 51.4713C71.3183 51.3442 71.2722 51.2451 71.2414 51.1766C71.226 51.1424 71.2145 51.1157 71.2065 51.0971C71.2025 51.0877 71.1994 51.0804 71.1972 51.075L71.1945 51.0686L71.1936 51.0665L71.1933 51.0657C71.1932 51.0654 71.1931 51.0652 71.6061 50.8965L71.1931 51.0652C71.1296 50.9088 71.1593 50.7299 71.2699 50.6026L74.3041 47.1104C74.4659 46.9241 74.7476 46.9047 74.9333 47.067C75.119 47.2293 75.1384 47.5119 74.9765 47.6981L72.1312 50.973C72.1459 51.0035 72.1621 51.0366 72.1799 51.0724C72.2957 51.3058 72.4786 51.6512 72.7427 52.0893C73.2709 52.9656 74.1239 54.2132 75.4152 55.6782C77.9597 58.5648 82.2107 62.3012 89.0423 65.7039C89.0647 65.6782 89.0887 65.6505 89.1143 65.6208C89.3037 65.4004 89.5775 65.0708 89.9108 64.6383C90.5776 63.773 91.4816 62.4967 92.4242 60.8597C94.3102 57.5843 96.3451 52.8751 96.9523 47.1304C96.9783 46.8848 97.1979 46.7067 97.4428 46.7328Z" fill="#2E186A"/>
<path d="M96.6593 48.7805C96.6593 48.7805 100.327 56.336 95.2425 66.923C95.2425 66.923 93.4586 62.1514 89.1475 66.249C89.1549 66.249 95.8372 59.3183 96.6593 48.7805Z" fill="white"/>
<path fill-rule="evenodd" clip-rule="evenodd" d="M97.061 48.5848L96.66 48.7806C97.061 48.5848 97.0611 48.585 97.0612 48.5853L97.0615 48.586L97.0625 48.5879L97.0653 48.5938C97.0676 48.5986 97.0707 48.6053 97.0747 48.6138C97.0826 48.6309 97.0937 48.6552 97.1076 48.6866C97.1354 48.7496 97.1745 48.8412 97.2219 48.9603C97.3166 49.1984 97.4442 49.5469 97.5803 49.9967C97.8525 50.8962 98.1588 52.202 98.3025 53.8426C98.5901 57.127 98.2253 61.7443 95.645 67.1172C95.5675 67.2786 95.4015 67.378 95.2231 67.37C95.045 67.3619 94.8889 67.2482 94.826 67.081C94.8259 67.0809 94.8259 67.0809 94.8259 67.0809C94.8259 67.0808 94.8259 67.0808 94.8259 67.0807L94.8258 67.0805L94.8257 67.0803L94.8257 67.0802L94.8232 67.0739C94.8207 67.0675 94.8165 67.057 94.8105 67.0427C94.7987 67.0142 94.78 66.9708 94.7543 66.9158C94.7028 66.8056 94.6241 66.6504 94.5171 66.4756C94.3002 66.1213 93.9815 65.7096 93.5593 65.4178C93.1473 65.133 92.6352 64.9599 91.9924 65.067C91.3375 65.1761 90.4972 65.5846 89.4604 66.5685C89.4604 66.5686 89.4603 66.5687 89.4602 66.5687C89.4588 66.5702 89.4542 66.5746 89.4484 66.5799C89.4448 66.5831 89.4348 66.5918 89.4282 66.5972C89.4112 66.6103 89.2763 66.6776 89.1481 66.6964C88.9656 66.6964 88.8014 66.5848 88.7339 66.4147C88.6667 66.2458 88.7083 66.053 88.8387 65.927C88.8404 65.9252 88.8431 65.9225 88.8466 65.9187C88.8576 65.9073 88.875 65.889 88.8984 65.8637C88.9452 65.8133 89.0151 65.7367 89.1051 65.6345C89.285 65.4303 89.5445 65.1248 89.8592 64.7245C90.4888 63.9238 91.3383 62.7453 92.2134 61.2411C93.9646 58.2308 95.811 53.9288 96.2154 48.7457C96.2311 48.5445 96.3791 48.3787 96.5768 48.3411C96.7745 48.3035 96.9729 48.4033 97.061 48.5848ZM91.2744 64.3286C91.4697 64.263 91.6603 64.2154 91.8462 64.1844C92.7503 64.0338 93.4926 64.2852 94.0654 64.6811C94.5862 65.0411 94.9648 65.5177 95.2184 65.9136C97.3798 61.0506 97.6745 56.8961 97.4139 53.9209C97.303 52.6545 97.0913 51.6003 96.879 50.7949C96.2083 55.2659 94.5546 58.9917 92.9838 61.692C92.3831 62.7246 91.7936 63.6086 91.2744 64.3286Z" fill="#2E186A"/>
<path d="M97.9426 99.3997C100.37 99.9588 102.309 100.503 102.848 100.909C104.591 102.228 111.822 109.334 112.086 110.492C112.351 111.651 110.232 112.293 108.481 110.509L103.326 105.577C103.326 105.577 108.578 111.573 108.985 112.49C109.392 113.407 107.339 115.025 104.304 111.169C101.268 107.313 100.786 107.277 100.786 107.277C100.786 107.277 104.256 112.129 104.717 113.23C105.178 114.33 102.254 115.362 99.5704 110.273L83.5195 109.569L84.4605 96.7947C84.4605 96.7947 92.4555 98.1367 97.9426 99.4026" fill="white"/>
<path fill-rule="evenodd" clip-rule="evenodd" d="M84.5348 96.3536L84.4612 96.7948C84.5348 96.3536 84.5348 96.3535 84.5348 96.3536L84.6266 96.369C84.6867 96.3792 84.7754 96.3943 84.8903 96.4139C85.1201 96.4531 85.4544 96.5106 85.8725 96.5835C86.7088 96.7293 87.8811 96.9368 89.225 97.184C91.8949 97.675 95.2484 98.3235 97.9926 98.9551C98.0094 98.957 98.0262 98.9599 98.0431 98.9637C99.2608 99.2442 100.363 99.5226 101.232 99.7833C101.666 99.9135 102.048 100.041 102.36 100.164C102.662 100.284 102.931 100.412 103.116 100.551L103.118 100.552C104.018 101.234 106.283 103.362 108.339 105.446C109.371 106.492 110.362 107.537 111.112 108.397C111.487 108.826 111.807 109.214 112.044 109.536C112.163 109.697 112.265 109.847 112.343 109.982C112.417 110.108 112.489 110.251 112.522 110.392C112.623 110.836 112.491 111.246 112.202 111.546C111.924 111.833 111.523 111.999 111.091 112.049C110.384 112.13 109.528 111.914 108.721 111.311C108.818 111.438 108.907 111.557 108.986 111.667C109.165 111.914 109.32 112.144 109.393 112.308C109.577 112.722 109.465 113.174 109.196 113.499C108.923 113.828 108.486 114.043 107.956 114.067C107.091 114.105 105.998 113.644 104.778 112.391C104.935 112.66 105.059 112.889 105.129 113.057C105.336 113.552 105.141 114.041 104.737 114.317C104.353 114.58 103.808 114.648 103.22 114.508C102.07 114.233 100.636 113.15 99.2987 110.709L83.5007 110.016C83.3802 110.011 83.267 109.957 83.1869 109.866C83.1068 109.776 83.0665 109.657 83.0754 109.536L84.0164 96.7618C84.0257 96.6363 84.0872 96.5206 84.1858 96.4429C84.2844 96.3652 84.4111 96.3328 84.5348 96.3536ZM100.787 107.277C100.82 106.831 100.822 106.831 100.823 106.831L100.827 106.832C100.829 106.832 100.831 106.832 100.833 106.832C100.834 106.832 100.835 106.833 100.836 106.833C100.839 106.833 100.842 106.833 100.845 106.834C100.851 106.835 100.857 106.835 100.862 106.836C100.864 106.837 100.867 106.837 100.869 106.838C100.885 106.84 100.9 106.844 100.914 106.848C100.942 106.856 100.969 106.866 100.995 106.878C101.045 106.9 101.1 106.932 101.162 106.974C101.284 107.058 101.46 107.203 101.719 107.458C102.239 107.968 103.132 108.958 104.654 110.892C106.139 112.777 107.289 113.2 107.917 113.173C108.229 113.159 108.418 113.038 108.51 112.927C108.606 112.811 108.598 112.717 108.578 112.672C108.55 112.607 108.451 112.45 108.265 112.193C108.088 111.949 107.854 111.645 107.581 111.302C107.035 110.616 106.344 109.785 105.663 108.979C104.983 108.174 104.315 107.397 103.816 106.822C103.567 106.534 103.361 106.297 103.217 106.131C103.145 106.049 103.088 105.984 103.05 105.94L102.992 105.874L102.991 105.873L102.991 105.873C102.991 105.873 102.991 105.873 103.326 105.577L102.991 105.873C102.834 105.693 102.845 105.421 103.017 105.255C103.19 105.089 103.461 105.089 103.634 105.254L108.79 110.185L108.791 110.187C108.794 110.189 108.797 110.192 108.8 110.195C109.595 111.005 110.431 111.224 110.989 111.16C111.273 111.127 111.462 111.026 111.561 110.923C111.649 110.832 111.683 110.728 111.652 110.592C111.652 110.592 111.652 110.592 111.652 110.592C111.652 110.592 111.649 110.58 111.636 110.552C111.623 110.522 111.603 110.483 111.574 110.435C111.517 110.337 111.435 110.214 111.327 110.068C111.111 109.774 110.809 109.407 110.441 108.986C109.707 108.146 108.731 107.115 107.705 106.076C105.645 103.988 103.423 101.905 102.581 101.266C102.496 101.203 102.321 101.11 102.033 100.997C101.753 100.886 101.398 100.767 100.976 100.64C100.146 100.391 99.0834 100.122 97.8938 99.8473C97.877 99.8454 97.8602 99.8426 97.8433 99.8387C95.1097 99.208 91.7471 98.5574 89.0642 98.064C87.7235 97.8174 86.554 97.6104 85.7198 97.465C85.3755 97.4049 85.0884 97.3554 84.8699 97.318L83.9988 109.142L99.5906 109.826C99.7487 109.833 99.8913 109.923 99.9653 110.064C101.277 112.552 102.595 113.439 103.427 113.637C103.848 113.738 104.115 113.66 104.234 113.578C104.333 113.511 104.33 113.458 104.307 113.403C104.209 113.17 103.929 112.694 103.534 112.077C103.147 111.473 102.673 110.768 102.212 110.094C101.751 109.421 101.304 108.782 100.972 108.311C100.806 108.075 100.669 107.882 100.574 107.748C100.526 107.68 100.489 107.628 100.463 107.592L100.425 107.539L100.425 107.538L100.425 107.538C100.425 107.538 100.425 107.538 100.787 107.277ZM100.787 107.277L100.425 107.538C100.324 107.397 100.313 107.21 100.398 107.058C100.483 106.907 100.647 106.818 100.82 106.831L100.787 107.277Z" fill="#2E186A"/>
<path d="M56.3269 117.429C56.3269 117.429 82.0541 115.683 84.9381 114.937C87.8221 114.192 86.7518 112.079 88.8419 111.272C90.9321 110.465 91.5981 109.818 91.5981 109.818C88.891 105.485 91.5981 98.3053 91.5981 98.3053C91.5981 98.3053 90.889 98.1115 88.6963 97.6596C86.5035 97.2078 87.2096 94.9428 84.2483 94.6774C81.287 94.412 55.8125 97.342 55.8125 97.342" fill="#2E186A"/>
<path fill-rule="evenodd" clip-rule="evenodd" d="M57.1096 89.5937C57.1336 89.3479 57.3517 89.168 57.5969 89.1921L57.5534 89.6373C57.5969 89.1921 57.5972 89.1921 57.5975 89.1922L57.5982 89.1922L57.6 89.1924L57.6048 89.1929C57.6087 89.1933 57.6137 89.1939 57.6198 89.1946C57.6321 89.1961 57.6489 89.1982 57.67 89.2012C57.7122 89.2071 57.7715 89.2164 57.8459 89.2305C57.9946 89.2586 58.204 89.3056 58.4571 89.3827C58.963 89.5368 59.6469 89.8119 60.3706 90.2975C61.8293 91.2763 63.4137 93.0872 64.0507 96.3861C64.0975 96.6286 63.9395 96.8633 63.6976 96.9103C63.4558 96.9573 63.2218 96.7987 63.175 96.5562C62.584 93.4954 61.1388 91.8894 59.8747 91.0412C59.2371 90.6133 58.6364 90.3724 58.1979 90.2388C57.9789 90.1721 57.8013 90.1324 57.681 90.1097C57.6209 90.0984 57.5752 90.0913 57.546 90.0872C57.5314 90.0851 57.5209 90.0838 57.5148 90.0831L57.509 90.0824L57.5091 90.0824L57.5095 90.0825C57.5093 90.0824 57.509 90.0824 57.5088 90.0824C57.5088 90.0824 57.5089 90.0824 57.509 90.0824L57.5087 90.0824L57.5086 90.0824C57.5086 90.0824 57.5087 90.0824 57.5088 90.0824C57.2643 90.0577 57.0856 89.8392 57.1096 89.5937Z" fill="#2E186A"/>
<path d="M89.1955 111.572C91.4552 110.717 92.1792 110.031 92.1792 110.031C89.2476 105.445 92.1792 97.8429 92.1792 97.8429C92.1792 97.8429 91.4106 97.6371 89.038 97.1585C88.0836 96.9661 87.6376 96.4621 87.2362 95.9104C82.378 101.438 85.2947 111.147 86.591 114.667C87.7297 113.664 87.4815 112.219 89.1955 111.572Z" fill="#2E186A"/>
<path fill-rule="evenodd" clip-rule="evenodd" d="M77.8002 70.796C78.0962 70.6534 78.4514 70.7784 78.5937 71.0753L78.0577 71.3336C78.5937 71.0753 78.5937 71.0754 78.5938 71.0756L78.5977 71.0837L78.6087 71.1069C78.6183 71.1272 78.6325 71.1572 78.651 71.1964C78.6879 71.2749 78.7418 71.3903 78.8106 71.5393C78.9481 71.8374 79.1449 72.2702 79.3829 72.8112C79.8589 73.8927 80.5006 75.408 81.1638 77.144C82.4844 80.601 83.9121 84.9885 84.2585 88.5731C84.2902 88.901 84.0509 89.1925 83.724 89.2243C83.3971 89.2561 83.1065 89.0161 83.0748 88.6882C82.7448 85.2735 81.368 81.0125 80.0532 77.5708C79.3987 75.8575 78.765 74.3609 78.295 73.2929C78.06 72.759 77.8661 72.3327 77.7313 72.0403C77.6638 71.8941 77.6111 71.7814 77.5755 71.7056C77.5576 71.6677 77.544 71.639 77.535 71.6199L77.5248 71.5985L77.5217 71.592C77.5217 71.5919 77.5217 71.5919 77.5225 71.5915L77.5217 71.592C77.3795 71.295 77.5041 70.9387 77.8002 70.796Z" fill="#2E186A"/>
<path fill-rule="evenodd" clip-rule="evenodd" d="M101.057 71.2043C101.377 71.2782 101.577 71.5983 101.503 71.9193L101.502 71.9255L101.497 71.9457C101.493 71.9638 101.487 71.9912 101.479 72.0274C101.463 72.0998 101.439 72.2075 101.409 72.3474C101.35 72.6272 101.265 73.0357 101.166 73.5482C100.967 74.5735 100.709 76.0133 100.475 77.6695C100.004 80.9934 99.6333 85.1445 99.997 88.563C100.032 88.8905 99.7954 89.1844 99.4688 89.2193C99.1422 89.2543 98.8493 89.0171 98.8144 88.6895C98.4348 85.1206 98.823 80.8514 99.2972 77.5018C99.5351 75.8212 99.7963 74.361 99.9982 73.3204C100.099 72.8 100.185 72.3841 100.246 72.0978C100.277 71.9546 100.301 71.8438 100.318 71.7684C100.326 71.7307 100.333 71.7019 100.337 71.6823L100.342 71.66L100.344 71.652C100.344 71.6519 100.344 71.6518 100.924 71.7855L100.344 71.6518C100.418 71.3307 100.737 71.1304 101.057 71.2043Z" fill="#2E186A"/>
<path d="M157.532 117.284C157.9 117.284 158.258 117.16 158.547 116.931C158.836 116.701 159.039 116.381 159.124 116.021L168.101 77.9037C168.158 77.6628 168.16 77.4122 168.106 77.1705C168.053 76.9289 167.945 76.7025 167.792 76.5084C167.639 76.3144 167.444 76.1576 167.222 76.0498C167 75.942 166.756 75.8861 166.509 75.8862H108.711C108.343 75.8861 107.985 76.0107 107.696 76.2399C107.407 76.4692 107.204 76.7896 107.119 77.1492L99.0841 111.269H78.1333C78.1333 111.269 76.9723 117.284 83.7423 117.284" fill="#6A6AF4"/>
<path d="M133.422 90.5587C133.422 90.5587 136.078 89.9116 136.246 92.2183C136.251 92.2183 134.131 93.0712 133.422 90.5587Z" fill="white"/>
<path d="M138.28 96.5037C138.015 96.3325 137.728 96.1981 137.426 96.1041C137.813 95.6973 138.031 95.1586 138.037 94.5966C138.048 94.3235 137.984 94.0526 137.853 93.8129C137.722 93.5732 137.529 93.3736 137.294 93.2352C137.547 92.4777 137.956 91.3862 138.281 90.9985C138.319 90.9537 138.348 90.9018 138.366 90.8458C138.384 90.7899 138.39 90.7309 138.385 90.6723C138.381 90.6138 138.364 90.5567 138.338 90.5045C138.311 90.4522 138.274 90.4058 138.229 90.3678C138.184 90.3298 138.133 90.301 138.077 90.2831C138.021 90.2651 137.962 90.2584 137.904 90.2632C137.846 90.2681 137.789 90.2844 137.737 90.3113C137.685 90.3382 137.638 90.3751 137.6 90.42C137.129 90.9791 136.64 92.3584 136.402 93.0876H136.353C135.43 93.2576 134.685 94.2044 134.69 95.2035C134.689 95.5012 134.768 95.7937 134.919 96.0504C133.841 96.3124 132.863 96.8822 132.103 97.6907C130.424 99.48 130.468 101.866 132.194 103.001C133.92 104.135 136.688 103.597 138.366 101.808C140.044 100.018 140.009 97.64 138.28 96.5037Z" fill="white"/>
<path d="M72.8768 29.645C72.8768 29.645 67.1623 29.7569 68.1851 34.8863C69.2079 40.0158 75.523 37.0499 75.523 37.0499L74.6771 29.7569L72.8768 29.645Z" fill="white"/>
<path fill-rule="evenodd" clip-rule="evenodd" d="M72.8677 29.1976C72.8798 29.1974 72.8919 29.1976 72.904 29.1984L74.7043 29.3102C74.9198 29.3236 75.0948 29.4899 75.1197 29.705L75.9656 36.9981C75.9878 37.1893 75.8855 37.3733 75.7117 37.4549L75.5226 37.0497C75.7117 37.4549 75.7115 37.455 75.7114 37.455L75.7108 37.4553L75.7094 37.456L75.7048 37.4581C75.7027 37.4591 75.7001 37.4603 75.6971 37.4616C75.6946 37.4628 75.6919 37.464 75.6888 37.4654C75.6752 37.4716 75.6557 37.4804 75.6307 37.4914C75.5806 37.5135 75.5084 37.5445 75.4169 37.5817C75.2341 37.6561 74.9733 37.7557 74.6575 37.8585C74.0293 38.063 73.1683 38.2849 72.2633 38.3381C71.362 38.391 70.3753 38.279 69.5331 37.7717C68.6741 37.2542 68.0239 36.3608 67.7474 34.9739C67.4752 33.6088 67.6439 32.5309 68.0934 31.6915C68.54 30.8575 69.2383 30.3067 69.9435 29.9439C70.6473 29.5819 71.3769 29.397 71.9231 29.3017C72.1979 29.2538 72.4302 29.2279 72.5953 29.2139C72.678 29.2069 72.744 29.2029 72.7904 29.2006C72.8136 29.1994 72.8319 29.1987 72.8449 29.1982C72.8514 29.198 72.8566 29.1979 72.8604 29.1978L72.8651 29.1977L72.8667 29.1976L72.8673 29.1976C72.8675 29.1976 72.8677 29.1976 72.8764 29.6448L72.8677 29.1976ZM72.8695 30.0926C72.861 30.0929 72.8493 30.0934 72.8346 30.0941C72.7978 30.096 72.7421 30.0993 72.6704 30.1054C72.527 30.1176 72.321 30.1405 72.0759 30.1832C71.5826 30.2692 70.9475 30.4329 70.3506 30.74C69.755 31.0464 69.2164 31.4852 68.8792 32.1149C68.5449 32.7392 68.3828 33.5987 68.622 34.7984C68.8569 35.9762 69.3797 36.6356 69.9924 37.0047C70.6219 37.3839 71.4057 37.4922 72.2111 37.4449C73.0128 37.3978 73.7944 37.1989 74.3822 37.0075C74.6516 36.9198 74.877 36.8348 75.041 36.769L74.2768 30.18L72.8695 30.0926Z" fill="#2E186A"/>
<path d="M89.1545 13.4827C90.6605 13.3575 100.979 12.7058 102.107 21.3409C103.236 29.976 102.018 39.5072 101.067 43.8568C100.115 48.2064 92.715 59.1692 86.0252 56.6342C79.3355 54.0993 76.7889 44.1088 76.7889 44.1088L74.0803 30.8498C74.0803 30.8498 72.9773 14.8307 89.1545 13.4827Z" fill="white"/>
<path fill-rule="evenodd" clip-rule="evenodd" d="M95.6416 14.554C92.8171 13.6793 89.9313 13.8669 89.1921 13.9284C85.2244 14.259 82.3446 15.4856 80.2486 17.1182C78.1502 18.7526 76.8132 20.8128 75.9629 22.8448C75.1118 24.8785 74.7517 26.8765 74.6053 28.3694C74.5322 29.1149 74.5126 29.7316 74.5112 30.1602C74.5105 30.3744 74.5143 30.5414 74.5183 30.6537C74.5202 30.7099 74.5222 30.7523 74.5237 30.7802C74.5239 30.7841 74.5241 30.7877 74.5243 30.7911L77.2242 44.0075C77.2252 44.0114 77.2265 44.0165 77.2282 44.0227C77.2328 44.0403 77.24 44.0671 77.2498 44.1026C77.2693 44.1736 77.2991 44.2792 77.3395 44.4151C77.4203 44.687 77.5437 45.0801 77.7126 45.5605C78.0508 46.5222 78.57 47.8294 79.294 49.2129C80.7516 51.9982 82.9947 55.0073 86.1835 56.2156C87.7188 56.7974 89.3109 56.6147 90.8826 55.9103C92.4606 55.2031 93.9961 53.9779 95.3749 52.5193C96.7512 51.0633 97.9545 49.3927 98.8715 47.8189C99.7921 46.2388 100.408 44.784 100.632 43.7608C101.576 39.4441 102.785 29.9674 101.666 21.3989C101.132 17.3107 98.4453 15.4222 95.6416 14.554ZM76.7896 44.1087L76.3575 44.2195C76.3557 44.2126 76.3541 44.2055 76.3527 44.1985L73.6441 30.9395C73.6401 30.92 73.6375 30.9003 73.6361 30.8805L74.081 30.8497C73.6361 30.8805 73.6361 30.8802 73.636 30.8799L73.636 30.8789L73.6358 30.8758L73.6351 30.8653C73.6346 30.8564 73.6338 30.8436 73.633 30.8272C73.6312 30.7943 73.629 30.7467 73.6269 30.6852C73.6225 30.5622 73.6185 30.3837 73.6192 30.1573C73.6207 29.7045 73.6413 29.0592 73.7176 28.2818C73.8699 26.729 74.2451 24.638 75.1404 22.4985C76.0365 20.3571 77.4569 18.1598 79.7015 16.4116C81.9485 14.6614 84.9974 13.3802 89.1183 13.0368L89.1183 13.0368C89.8851 12.973 92.9115 12.7722 95.9048 13.6991C98.9189 14.6326 101.956 16.7358 102.55 21.2827C103.687 29.9844 102.462 39.5701 101.503 43.9526C101.251 45.1043 100.585 46.6508 99.6416 48.2703C98.6943 49.8962 97.451 51.6234 96.0221 53.1349C94.5957 54.6439 92.9673 55.9559 91.2465 56.7271C89.5194 57.5012 87.6779 57.7383 85.8683 57.0526C82.3673 55.726 79.9923 52.4724 78.5042 49.6287C77.7553 48.1977 77.2198 46.8489 76.8714 45.8581C76.6971 45.3623 76.5693 44.9551 76.4847 44.6708C76.4424 44.5286 76.411 44.4171 76.3899 44.3404C76.3794 44.3021 76.3714 44.2725 76.3661 44.2522C76.3645 44.2461 76.3631 44.2409 76.3619 44.2365L76.3599 44.2287L76.3582 44.2223L76.3578 44.2205L76.3576 44.2199C76.3576 44.2197 76.3575 44.2195 76.7896 44.1087Z" fill="#2E186A"/>
<path d="M101.978 23.4523C93.592 23.8266 88.7367 22.9081 86.0474 20.8578C88.0469 22.0641 85.7977 34.6014 73.3741 32.6719C73.3741 32.6719 70.6982 28.4968 69.6576 24.1725C68.6809 20.1018 70.5644 15.8312 74.3255 14.0076C77.4712 12.4792 79.8037 13.678 79.8037 13.678C79.8037 13.678 76.4663 7.97749 81.4746 2.94198C82.3508 2.06074 83.3971 1.36816 84.5495 0.906645C85.7018 0.445131 86.9359 0.2244 88.1763 0.257965C94.2922 0.438391 96.1831 5.626 96.1831 5.626C96.1831 5.626 106.689 0.717231 109.216 8.32194C111.743 15.9267 107.08 23.2331 101.978 23.4523Z" fill="#2E186A"/>
<path fill-rule="evenodd" clip-rule="evenodd" d="M90.204 43.6233C90.1512 43.2993 89.8471 43.0789 89.5236 43.1306C89.1993 43.1824 88.9783 43.4882 89.03 43.8135L89.6172 43.7196C89.03 43.8135 89.03 43.8137 89.03 43.814L89.0301 43.8146L89.0304 43.816L89.0309 43.8195L89.0326 43.8291C89.0339 43.8366 89.0356 43.8464 89.0379 43.8583C89.0424 43.882 89.049 43.9143 89.058 43.9538C89.0759 44.0327 89.1037 44.1413 89.1446 44.269C89.2255 44.5214 89.3627 44.8633 89.5878 45.1982C89.8137 45.5343 90.1392 45.8792 90.5993 46.1066C91.0661 46.3373 91.6301 46.4263 92.2907 46.3113C92.6143 46.255 92.8311 45.9462 92.7749 45.6216C92.7188 45.2971 92.4109 45.0797 92.0873 45.136C91.6516 45.2118 91.3459 45.1457 91.125 45.0365C90.8972 44.924 90.7168 44.744 90.5739 44.5313C90.4301 44.3175 90.3355 44.0868 90.2768 43.9038C90.2479 43.8138 90.2289 43.739 90.2175 43.6889C90.2119 43.6639 90.2081 43.6453 90.2061 43.6343C90.205 43.6288 90.2044 43.6253 90.2041 43.6238C90.2041 43.6236 90.2041 43.6234 90.204 43.6233Z" fill="#2E186A"/>
<path fill-rule="evenodd" clip-rule="evenodd" d="M95.6892 33.3706C96.0154 33.3331 96.3103 33.568 96.3477 33.8952L97.2501 41.7847C97.2724 41.9797 97.1976 42.1732 97.0502 42.3022C96.9028 42.4312 96.7015 42.4792 96.512 42.4306L93.7394 41.7193C93.4213 41.6377 93.2293 41.3128 93.3107 40.9937C93.3921 40.6745 93.716 40.482 94.0341 40.5636L95.9701 41.0603L95.1662 34.0312C95.1287 33.7039 95.3629 33.4082 95.6892 33.3706Z" fill="#2E186A"/>
<path d="M98.8087 35.3515C99.2537 35.3515 99.6144 34.7914 99.6144 34.1004C99.6144 33.4095 99.2537 32.8494 98.8087 32.8494C98.3637 32.8494 98.0029 33.4095 98.0029 34.1004C98.0029 34.7914 98.3637 35.3515 98.8087 35.3515Z" fill="#2E186A"/>
<path d="M91.0499 35.2143C91.4949 35.2143 91.8556 34.6541 91.8556 33.9632C91.8556 33.2723 91.4949 32.7122 91.0499 32.7122C90.6049 32.7122 90.2441 33.2723 90.2441 33.9632C90.2441 34.6541 90.6049 35.2143 91.0499 35.2143Z" fill="#2E186A"/>
<path fill-rule="evenodd" clip-rule="evenodd" d="M90.8085 27.3859C90.2611 27.2979 89.7001 27.3588 89.1841 27.5623C88.6681 27.7659 88.2161 28.1046 87.8751 28.5431C87.6731 28.8028 87.2994 28.8492 87.0405 28.6466C86.7815 28.444 86.7353 28.0692 86.9373 27.8095C87.4092 27.2026 88.0348 26.7339 88.7488 26.4522C89.4629 26.1705 90.2392 26.0862 90.9968 26.2081C91.3211 26.2602 91.5418 26.5662 91.4898 26.8914C91.4378 27.2167 91.1328 27.4381 90.8085 27.3859Z" fill="#2E186A"/>
<path fill-rule="evenodd" clip-rule="evenodd" d="M98.4514 27.2404C98.4516 27.2404 98.4518 27.2403 98.4521 27.2402C98.4537 27.2398 98.4572 27.239 98.4626 27.2377C98.4735 27.2352 98.4916 27.2312 98.5161 27.2263C98.5654 27.2165 98.6394 27.2036 98.731 27.1927C98.917 27.1706 99.1609 27.1589 99.411 27.1922C99.8982 27.2571 100.34 27.4708 100.53 28.0899C100.627 28.4046 100.96 28.5808 101.274 28.4835C101.588 28.3862 101.764 28.0522 101.667 27.7375C101.293 26.524 100.337 26.1121 99.5676 26.0097C99.1897 25.9593 98.8408 25.9784 98.5911 26.0081C98.4648 26.0231 98.3602 26.0412 98.2853 26.0561C98.2477 26.0636 98.2174 26.0702 98.1953 26.0754C98.1842 26.0779 98.1751 26.0801 98.1683 26.0818L98.1595 26.084L98.1564 26.0848L98.1552 26.0851L98.1546 26.0852C98.1544 26.0853 98.1541 26.0854 98.303 26.6596L98.1541 26.0854C97.8363 26.1683 97.6456 26.4939 97.7283 26.8127C97.8107 27.1309 98.1342 27.322 98.4514 27.2404ZM98.4512 27.2404C98.4513 27.2404 98.4513 27.2404 98.4514 27.2404L98.4512 27.2404Z" fill="#2E186A"/>
<path fill-rule="evenodd" clip-rule="evenodd" d="M0.0419922 117.508C0.0419922 117.261 0.241665 117.06 0.487974 117.06H188.511C188.757 117.06 188.957 117.261 188.957 117.508C188.957 117.755 188.757 117.955 188.511 117.955H0.487974C0.241665 117.955 0.0419922 117.755 0.0419922 117.508Z" fill="#2E186A"/>
<path d="M74.0649 45.7656C74.0649 45.7656 69.4267 46.1772 69.4014 50.661C69.3761 55.1448 82.7556 67.9669 82.7556 67.9669C82.7556 67.9669 86.1897 62.5989 89.148 66.2491C89.1554 66.2491 69.3895 51.1501 74.0649 45.7656Z" fill="white"/>
<path fill-rule="evenodd" clip-rule="evenodd" d="M74.462 45.5621C74.5446 45.7247 74.5204 45.9214 74.4009 46.059C73.4383 47.1676 73.653 48.8631 74.8404 51.0212C76.006 53.1396 78.0038 55.497 80.1738 57.7127C82.3384 59.9228 84.6507 61.9684 86.4236 63.4629C87.019 63.9649 87.5531 64.4042 87.9996 64.7663C88.516 64.9904 89.0189 65.3806 89.4938 65.9666L89.453 65.9998C89.4697 66.1592 89.4546 66.4871 89.1477 66.6961C89.0449 66.6961 88.9464 66.6605 88.8678 66.597L88.8607 66.5915L88.819 66.5591C88.7817 66.5302 88.7262 66.4871 88.6541 66.4308C88.5098 66.318 88.299 66.1523 88.0323 65.9395C87.8856 65.8224 87.7219 65.6911 87.5431 65.5465C87.3193 65.4633 87.1024 65.4273 86.8948 65.4245C86.2913 65.4162 85.6782 65.6868 85.1024 66.102C84.531 66.5141 84.0369 67.0395 83.6817 67.47C83.5053 67.6838 83.366 67.8707 83.2713 68.0034C83.224 68.0696 83.1879 68.1222 83.1642 68.1575C83.1523 68.1751 83.1435 68.1885 83.1378 68.1971L83.1318 68.2063L83.1306 68.2081C83.1306 68.2082 83.1306 68.2082 83.1305 68.2083C83.0586 68.3206 82.9404 68.3949 82.8082 68.4107C82.6759 68.4265 82.5435 68.3822 82.4472 68.2899L82.7553 67.9665C82.4472 68.2899 82.4471 68.2899 82.447 68.2897L82.4465 68.2893L82.4371 68.2802L82.4079 68.2522C82.3823 68.2275 82.3444 68.1909 82.2951 68.143C82.1964 68.0474 82.052 67.9068 81.8684 67.7264C81.5011 67.3656 80.9769 66.8455 80.348 66.2075C79.0907 64.9319 77.4133 63.1831 75.7356 61.2924C74.0596 59.4036 72.3753 57.3642 71.109 55.5089C70.476 54.5815 69.9411 53.6907 69.5636 52.881C69.1903 52.08 68.9514 51.3173 68.9551 50.658C68.9689 48.2222 70.2528 46.8667 71.5218 46.1426C72.1482 45.7852 72.7696 45.5809 73.2318 45.4655C73.4637 45.4076 73.658 45.3715 73.796 45.3498C73.865 45.3389 73.9202 45.3315 73.9591 45.3268C73.9786 45.3245 73.994 45.3228 74.0051 45.3216C74.0107 45.321 74.0152 45.3206 74.0186 45.3202L74.0228 45.3198L74.0242 45.3197L74.0248 45.3197C74.0251 45.3196 74.0253 45.3196 74.0646 45.7652L74.0253 45.3196C74.2065 45.3035 74.3793 45.3995 74.462 45.5621ZM82.6923 67.283C82.7774 67.1698 82.8787 67.0399 82.9945 66.8996C83.3757 66.4376 83.925 65.8492 84.5818 65.3756C85.0949 65.0056 85.6992 64.6872 86.3581 64.5738C86.1943 64.4374 86.0246 64.2953 85.8497 64.1478C84.0646 62.643 81.7291 60.5773 79.5375 58.3396C77.3514 56.1075 75.2848 53.6805 74.0595 51.4535C73.0798 49.673 72.5645 47.8769 73.1482 46.4162C72.7923 46.5239 72.3765 46.6843 71.9628 46.9203C70.9064 47.523 69.8586 48.6152 69.8471 50.6631C69.8445 51.1247 70.0182 51.7436 70.3717 52.5021C70.7211 53.2517 71.2272 54.0983 71.845 55.0035C73.0803 56.8134 74.7362 58.8204 76.4019 60.6976C78.0659 62.5729 79.7318 64.3098 80.9823 65.5785C81.6074 66.2126 82.1282 66.7293 82.4925 67.0872C82.5655 67.159 82.6323 67.2243 82.6923 67.283ZM88.8695 66.5984C88.8705 66.5991 88.8697 66.5985 88.8681 66.5972L88.8695 66.5984Z" fill="#2E186A"/>
<path d="M89.5938 67.9666C89.5938 67.9666 93.1259 77.0341 93.8871 95.9101L89.5938 67.9666Z" fill="white"/>
<path fill-rule="evenodd" clip-rule="evenodd" d="M89.4313 67.5501C89.6607 67.4602 89.9193 67.5738 90.009 67.8039L89.5936 67.9667C90.009 67.8039 90.009 67.8041 90.0091 67.8043L90.01 67.8066L90.0123 67.8127C90.0143 67.8178 90.0171 67.8251 90.0207 67.8347C90.0279 67.8538 90.0384 67.8818 90.052 67.9187C90.079 67.9925 90.1184 68.1019 90.1684 68.2472C90.2684 68.5377 90.4112 68.9714 90.5845 69.5497C90.931 70.7065 91.3994 72.4418 91.8911 74.7672C92.8745 79.4182 93.9509 86.4291 94.3325 95.8923C94.3425 96.1391 94.151 96.3473 93.9049 96.3573C93.6588 96.3673 93.4512 96.1753 93.4413 95.9284C93.0617 86.5155 91.9915 79.5546 91.0185 74.9528C90.532 72.6519 90.0698 70.9405 89.7302 69.8072C89.5605 69.2406 89.4214 68.8184 89.3253 68.5393C89.2772 68.3997 89.2399 68.2959 89.2149 68.2277C89.2024 68.1936 89.1929 68.1683 89.1867 68.152C89.1836 68.1438 89.1814 68.1379 89.1799 68.1341L89.1784 68.1302L89.1782 68.1295L89.1781 68.1294C89.0886 67.8993 89.2019 67.64 89.4313 67.5501Z" fill="#2E186A"/>
<path fill-rule="evenodd" clip-rule="evenodd" d="M85.582 31.1098C85.6067 30.8828 85.7978 30.7109 86.0254 30.7109H94.4991C94.7148 30.7109 94.8995 30.8658 94.9379 31.0787L94.4991 31.1583C94.9379 31.0787 94.938 31.0789 94.938 31.0791L94.9384 31.0813L94.9393 31.0863C94.94 31.0905 94.941 31.0963 94.9422 31.1038C94.9447 31.1186 94.9482 31.1397 94.9523 31.1668C94.9607 31.2209 94.9719 31.2987 94.984 31.3969C95.0084 31.593 95.0365 31.8713 95.0528 32.2047C95.0851 32.8681 95.071 33.7648 94.8769 34.6707C94.6833 35.5744 94.3031 36.5208 93.5773 37.2441C92.8406 37.9783 91.7882 38.4424 90.3366 38.4424C88.9611 38.4424 87.9447 37.9724 87.2157 37.2436C86.4983 36.5264 86.0885 35.5884 85.8541 34.6899C85.6189 33.7887 85.5519 32.8954 85.5423 32.233C85.5375 31.9005 85.5471 31.6227 85.558 31.427C85.5635 31.329 85.5693 31.2514 85.5739 31.1975C85.5761 31.1705 85.5781 31.1494 85.5795 31.1347C85.5802 31.1273 85.5808 31.1215 85.5812 31.1173L85.5818 31.1123L85.5819 31.1107L85.582 31.1102C85.582 31.11 85.582 31.1098 86.0254 31.1583L85.582 31.1098ZM86.4423 31.6056C86.4354 31.7704 86.4307 31.9794 86.4342 32.22C86.4431 32.8396 86.5062 33.6555 86.717 34.4634C86.9285 35.2741 87.2806 36.0453 87.8454 36.61C88.3987 37.1631 89.1848 37.5477 90.3366 37.5477C91.5824 37.5477 92.399 37.1572 92.9486 36.6095C93.509 36.051 93.8323 35.2881 94.0049 34.4827C94.177 33.6793 94.192 32.8668 94.1619 32.2484C94.1495 31.9936 94.1295 31.7744 94.1105 31.6056H86.4423Z" fill="#2E186A"/>
<path fill-rule="evenodd" clip-rule="evenodd" d="M96.4346 31.0876C96.4593 30.8606 96.6503 30.6887 96.8779 30.6887H105.352C105.567 30.6887 105.752 30.8436 105.79 31.0565L105.352 31.1361C105.79 31.0565 105.79 31.0567 105.791 31.0569L105.791 31.059L105.792 31.0641C105.793 31.0683 105.794 31.0741 105.795 31.0815C105.797 31.0964 105.801 31.1175 105.805 31.1446C105.813 31.1987 105.824 31.2765 105.837 31.3747C105.861 31.5708 105.889 31.8491 105.905 32.1825C105.938 32.8459 105.924 33.7426 105.729 34.6485C105.536 35.5522 105.156 36.4985 104.43 37.2219C103.693 37.9561 102.641 38.4202 101.189 38.4202C99.8136 38.4202 98.7972 37.9502 98.0683 37.2214C97.3509 36.5042 96.9411 35.5662 96.7066 34.6677C96.4715 33.7665 96.4044 32.8732 96.3948 32.2108C96.39 31.8782 96.3996 31.6005 96.4106 31.4048C96.4161 31.3068 96.4219 31.2292 96.4264 31.1752C96.4287 31.1483 96.4306 31.1272 96.4321 31.1124C96.4328 31.1051 96.4334 31.0993 96.4338 31.0951L96.4343 31.0901L96.4345 31.0885L96.4345 31.088C96.4346 31.0877 96.4346 31.0876 96.8779 31.1361L96.4346 31.0876ZM97.2949 31.5834C97.2879 31.7482 97.2832 31.9572 97.2867 32.1978C97.2957 32.8174 97.3587 33.6332 97.5695 34.4412C97.7811 35.2519 98.1332 36.0231 98.698 36.5878C99.2512 37.1409 100.037 37.5255 101.189 37.5255C102.435 37.5255 103.252 37.135 103.801 36.5873C104.362 36.0288 104.685 35.2659 104.857 34.4604C105.03 33.6571 105.045 32.8446 105.014 32.2261C105.002 31.9714 104.982 31.7522 104.963 31.5834H97.2949Z" fill="#2E186A"/>
<path fill-rule="evenodd" clip-rule="evenodd" d="M94.4785 32.4779C94.4785 32.2308 94.6782 32.0305 94.9245 32.0305H96.5553C96.8016 32.0305 97.0013 32.2308 97.0013 32.4779C97.0013 32.7249 96.8016 32.9252 96.5553 32.9252H94.9245C94.6782 32.9252 94.4785 32.7249 94.4785 32.4779Z" fill="#2E186A"/>
<path fill-rule="evenodd" clip-rule="evenodd" d="M74.4307 31.1361C74.4307 30.889 74.6303 30.6887 74.8766 30.6887H85.2576C85.5039 30.6887 85.7036 30.889 85.7036 31.1361C85.7036 31.3831 85.5039 31.5834 85.2576 31.5834H74.8766C74.6303 31.5834 74.4307 31.3831 74.4307 31.1361Z" fill="#2E186A"/>
</g>
<defs>
<clipPath id="clip0_2_20586">
<rect width="189" height="118" fill="white"/>
</clipPath>
</defs>
</svg>
