<svg width="101" height="101" viewBox="0 0 101 101" fill="none" xmlns="http://www.w3.org/2000/svg">
<path d="M67.6589 32.5991C67.6589 32.5991 62.3448 46.4832 50.8991 46.28C37.1764 46.0361 33.6099 32.4609 33.6099 32.4609L67.6589 32.5991Z" fill="#9287B0"/>
<path d="M53.7605 45.4671C53.7605 43.7836 52.3879 42.4188 50.6947 42.4188C49.0015 42.4188 47.6289 43.7836 47.6289 45.4671V54.2057C47.6289 55.8892 49.0015 57.254 50.6947 57.254C52.3879 57.254 53.7605 55.8892 53.7605 54.2057V45.4671Z" fill="#9287B0"/>
<path d="M69.2264 21.298C69.0568 23.7346 68.6357 26.5066 67.7896 29.4451L67.2827 31.1258C66.4386 33.4771 65.339 35.5784 64.0718 37.509C61.5373 41.1202 58.7495 42.8842 56.4685 44.2295C54.441 45.4895 52.7507 46.4975 52.5831 48.4301V48.7654C52.5831 50.8647 54.2734 51.958 56.4685 53.218C58.7495 54.5613 61.5373 56.3253 64.0718 59.9386C68.3803 66.2384 69.3102 73.6316 69.394 78.5862L37.4155 78.6695L31.7539 78.7345L31.9747 78.448C32.083 73.4934 33.0477 66.1449 37.2928 59.9365C39.8272 56.3253 42.6151 54.5613 44.8961 53.216C47.0932 51.8727 48.7815 50.8647 48.7815 48.7634V48.4281C48.6118 46.4954 47.0074 45.4875 44.8961 44.2275C42.6151 42.8842 39.8272 41.1202 37.2928 37.507C36.0256 35.5743 34.9281 33.475 34.0819 31.1238L33.4912 29.4431C32.6471 26.5879 32.224 23.7306 32.0544 21.296H69.2264M69.2264 18.8573H32.0523C31.3717 18.8573 30.7238 19.1377 30.2598 19.6316C29.7959 20.1254 29.5588 20.7899 29.6058 21.4626C29.8122 24.45 30.3416 27.4475 31.1367 30.13C31.1489 30.1686 31.1612 30.2093 31.1755 30.2479L31.7662 31.9285C31.7662 31.9285 31.7703 31.9387 31.7723 31.9427C32.6328 34.3408 33.7671 36.5965 35.2387 38.8381C35.253 38.8584 35.2673 38.8807 35.2817 38.9011C38.0327 42.8212 41.0393 44.7864 43.6411 46.3207C45.4295 47.3876 46.2246 47.9546 46.3309 48.5663V48.7614C46.3309 49.3751 45.7034 49.8567 43.6902 51.0883L43.6289 51.1269C41.0291 52.6592 38.0286 54.6243 35.2817 58.5384C35.2755 58.5465 35.2714 58.5546 35.2653 58.5627C30.9302 64.9012 29.7427 72.3249 29.5445 77.6757C29.2195 78.3484 29.2175 79.143 29.5629 79.8258C29.9798 80.6509 30.828 81.1712 31.756 81.1712C31.7662 81.1712 31.7744 81.1712 31.7846 81.1712L37.4359 81.1061L69.4042 81.0228C70.0603 81.0228 70.6898 80.7586 71.1497 80.2912C71.6096 79.8258 71.861 79.1958 71.8508 78.5435C71.7588 73.1276 70.6858 65.265 66.1034 58.5648C66.0972 58.5567 66.0932 58.5485 66.087 58.5404C63.3339 54.6162 60.3253 52.651 57.7214 51.1187C57.7133 51.1147 57.7051 51.1086 57.6969 51.1045C55.6346 49.9218 55.0378 49.3954 55.0378 48.7654V48.5724C55.1543 47.9505 56.1108 47.3266 57.6356 46.3796L57.746 46.3105C60.3437 44.7782 63.3421 42.8131 66.085 38.9031C66.0993 38.8828 66.1136 38.8604 66.1279 38.8401C67.5995 36.5986 68.7318 34.3428 69.5943 31.9448C69.6086 31.9062 69.6209 31.8655 69.6332 31.8249L70.14 30.1442C70.1441 30.1341 70.1462 30.1239 70.1482 30.1137C70.9515 27.3174 71.4624 24.4276 71.6689 21.5215C71.675 21.4463 71.6791 21.3712 71.6791 21.296C71.6791 19.9486 70.5815 18.8573 69.2264 18.8573Z" fill="#2E2765"/>
<path d="M31.9746 78.4479C31.9746 78.4479 36.8534 66.275 50.576 66.5615C64.2965 66.848 69.396 78.5861 69.396 78.5861L31.9746 78.4479Z" fill="#9287B0"/>
</svg>
