<svg width="101" height="100" viewBox="0 0 101 100" fill="none" xmlns="http://www.w3.org/2000/svg">
<path d="M20.6145 90.3346H84.0639V13.8362H78.8467L79.0455 85.5529L20.6145 85.9167V90.3346Z" fill="#9287B0"/>
<path d="M78.9548 10.2068H17.6333V85.4578H78.9548V10.2068Z" fill="white"/>
<path fill-rule="evenodd" clip-rule="evenodd" d="M17.0931 10.2067C17.0931 9.90768 17.3349 9.66528 17.6332 9.66528H78.9547C79.253 9.66528 79.4948 9.90768 79.4948 10.2067V85.4577C79.4948 85.7567 79.253 85.9991 78.9547 85.9991H17.6332C17.3349 85.9991 17.0931 85.7567 17.0931 85.4577V10.2067ZM18.1733 10.7481V84.9163H78.4146V10.7481H18.1733Z" fill="#2E186A"/>
<path fill-rule="evenodd" clip-rule="evenodd" d="M41.2889 25.0412C41.2889 24.7422 41.5307 24.4998 41.829 24.4998H66.0249C66.3232 24.4998 66.565 24.7422 66.565 25.0412C66.565 25.3402 66.3232 25.5826 66.0249 25.5826H41.829C41.5307 25.5826 41.2889 25.3402 41.2889 25.0412Z" fill="#2E186A"/>
<path d="M33.516 20.8184H29.1867C27.9959 20.8184 27.0306 21.786 27.0306 22.9796V27.3196C27.0306 28.5132 27.9959 29.4808 29.1867 29.4808H33.516C34.7067 29.4808 35.672 28.5132 35.672 27.3196V22.9796C35.672 21.786 34.7067 20.8184 33.516 20.8184Z" fill="white"/>
<path fill-rule="evenodd" clip-rule="evenodd" d="M29.1868 21.3597C28.2944 21.3597 27.5709 22.0849 27.5709 22.9796V27.3195C27.5709 28.2141 28.2944 28.9393 29.1868 28.9393H33.5162C34.4086 28.9393 35.1321 28.2141 35.1321 27.3195V22.9796C35.1321 22.0849 34.4086 21.3597 33.5162 21.3597H29.1868ZM26.4907 22.9796C26.4907 21.4869 27.6978 20.2769 29.1868 20.2769H33.5162C35.0052 20.2769 36.2123 21.4869 36.2123 22.9796V27.3195C36.2123 28.8121 35.0052 30.0221 33.5162 30.0221H29.1868C27.6978 30.0221 26.4907 28.8121 26.4907 27.3195V22.9796Z" fill="#2E186A"/>
<path fill-rule="evenodd" clip-rule="evenodd" d="M39.6723 17.7039C40.2548 18.304 40.2417 19.2637 39.643 19.8476L31.6498 27.6438C31.357 27.9293 30.9616 28.084 30.5534 28.0726C30.1451 28.0613 29.7588 27.8849 29.4823 27.5837L24.5135 22.1696C23.948 21.5535 23.9879 20.5945 24.6025 20.0276C25.2172 19.4608 26.1738 19.5007 26.7393 20.1169L30.6552 24.3837L37.5339 17.6745C38.1325 17.0907 39.0899 17.1038 39.6723 17.7039Z" fill="#FF8D7E"/>
<path fill-rule="evenodd" clip-rule="evenodd" d="M41.2889 39.984C41.2889 39.685 41.5307 39.4426 41.829 39.4426H66.0249C66.3232 39.4426 66.565 39.685 66.565 39.984C66.565 40.283 66.3232 40.5254 66.0249 40.5254H41.829C41.5307 40.5254 41.2889 40.283 41.2889 39.984Z" fill="#2E186A"/>
<path d="M33.516 35.761H29.1867C27.9959 35.761 27.0306 36.7286 27.0306 37.9223V42.2622C27.0306 43.4558 27.9959 44.4235 29.1867 44.4235H33.516C34.7067 44.4235 35.672 43.4558 35.672 42.2622V37.9223C35.672 36.7286 34.7067 35.761 33.516 35.761Z" fill="white"/>
<path fill-rule="evenodd" clip-rule="evenodd" d="M29.1868 36.3024C28.2944 36.3024 27.5709 37.0277 27.5709 37.9223V42.2622C27.5709 43.1568 28.2944 43.8821 29.1868 43.8821H33.5162C34.4086 43.8821 35.1321 43.1568 35.1321 42.2622V37.9223C35.1321 37.0277 34.4086 36.3024 33.5162 36.3024H29.1868ZM26.4907 37.9223C26.4907 36.4296 27.6978 35.2196 29.1868 35.2196H33.5162C35.0052 35.2196 36.2123 36.4296 36.2123 37.9223V42.2622C36.2123 43.7549 35.0052 44.9649 33.5162 44.9649H29.1868C27.6978 44.9649 26.4907 43.7549 26.4907 42.2622V37.9223Z" fill="#2E186A"/>
<path fill-rule="evenodd" clip-rule="evenodd" d="M39.6723 32.6465C40.2548 33.2466 40.2417 34.2063 39.643 34.7902L31.6498 42.5864C31.357 42.8719 30.9616 43.0266 30.5534 43.0153C30.1451 43.0039 29.7588 42.8276 29.4823 42.5263L24.5135 37.1122C23.948 36.4961 23.9879 35.5371 24.6025 34.9702C25.2172 34.4034 26.1738 34.4433 26.7393 35.0595L30.6552 39.3263L37.5339 32.6172C38.1325 32.0333 39.0899 32.0465 39.6723 32.6465Z" fill="#FF8D7E"/>
<path fill-rule="evenodd" clip-rule="evenodd" d="M41.2889 54.9269C41.2889 54.6279 41.5307 54.3855 41.829 54.3855H66.0249C66.3232 54.3855 66.565 54.6279 66.565 54.9269C66.565 55.2259 66.3232 55.4683 66.0249 55.4683H41.829C41.5307 55.4683 41.2889 55.2259 41.2889 54.9269Z" fill="#2E186A"/>
<path d="M33.516 50.7039H29.1867C27.9959 50.7039 27.0306 51.6716 27.0306 52.8652V57.2051C27.0306 58.3988 27.9959 59.3664 29.1867 59.3664H33.516C34.7067 59.3664 35.672 58.3988 35.672 57.2051V52.8652C35.672 51.6716 34.7067 50.7039 33.516 50.7039Z" fill="white"/>
<path fill-rule="evenodd" clip-rule="evenodd" d="M29.1868 51.2453C28.2944 51.2453 27.5709 51.9705 27.5709 52.8652V57.2051C27.5709 58.0997 28.2944 58.825 29.1868 58.825H33.5162C34.4086 58.825 35.1321 58.0997 35.1321 57.2051V52.8652C35.1321 51.9705 34.4086 51.2453 33.5162 51.2453H29.1868ZM26.4907 52.8652C26.4907 51.3725 27.6978 50.1625 29.1868 50.1625H33.5162C35.0052 50.1625 36.2123 51.3725 36.2123 52.8652V57.2051C36.2123 58.6977 35.0052 59.9078 33.5162 59.9078H29.1868C27.6978 59.9078 26.4907 58.6977 26.4907 57.2051V52.8652Z" fill="#2E186A"/>
<path fill-rule="evenodd" clip-rule="evenodd" d="M39.6723 47.5894C40.2548 48.1895 40.2417 49.1492 39.643 49.7331L31.6498 57.5293C31.357 57.8148 30.9616 57.9695 30.5534 57.9581C30.1451 57.9468 29.7588 57.7704 29.4823 57.4692L24.5135 52.0551C23.948 51.439 23.9879 50.48 24.6025 49.9131C25.2172 49.3463 26.1738 49.3862 26.7393 50.0024L30.6552 54.2692L37.5339 47.56C38.1325 46.9762 39.0899 46.9893 39.6723 47.5894Z" fill="#FF8D7E"/>
<path fill-rule="evenodd" clip-rule="evenodd" d="M41.2889 69.8694C41.2889 69.5704 41.5307 69.328 41.829 69.328H66.0249C66.3232 69.328 66.565 69.5704 66.565 69.8694C66.565 70.1684 66.3232 70.4108 66.0249 70.4108H41.829C41.5307 70.4108 41.2889 70.1684 41.2889 69.8694Z" fill="#2E186A"/>
<path d="M33.516 65.6465H29.1867C27.9959 65.6465 27.0306 66.6141 27.0306 67.8078V72.1477C27.0306 73.3413 27.9959 74.309 29.1867 74.309H33.516C34.7067 74.309 35.672 73.3413 35.672 72.1477V67.8078C35.672 66.6141 34.7067 65.6465 33.516 65.6465Z" fill="white"/>
<path fill-rule="evenodd" clip-rule="evenodd" d="M29.1868 66.1879C28.2944 66.1879 27.5709 66.9132 27.5709 67.8078V72.1477C27.5709 73.0423 28.2944 73.7676 29.1868 73.7676H33.5162C34.4086 73.7676 35.1321 73.0423 35.1321 72.1477V67.8078C35.1321 66.9132 34.4086 66.1879 33.5162 66.1879H29.1868ZM26.4907 67.8078C26.4907 66.3151 27.6978 65.1051 29.1868 65.1051H33.5162C35.0052 65.1051 36.2123 66.3151 36.2123 67.8078V72.1477C36.2123 73.6404 35.0052 74.8504 33.5162 74.8504H29.1868C27.6978 74.8504 26.4907 73.6404 26.4907 72.1477V67.8078Z" fill="#2E186A"/>
<path fill-rule="evenodd" clip-rule="evenodd" d="M39.6723 62.532C40.2548 63.1321 40.2417 64.0918 39.643 64.6757L31.6498 72.4719C31.357 72.7574 30.9616 72.9121 30.5534 72.9008C30.1451 72.8894 29.7588 72.7131 29.4823 72.4118L24.5135 66.9977C23.948 66.3816 23.9879 65.4226 24.6025 64.8557C25.2172 64.2889 26.1738 64.3288 26.7393 64.945L30.6552 69.2118L37.5339 62.5027C38.1325 61.9188 39.0899 61.932 39.6723 62.532Z" fill="#FF8D7E"/>
</svg>
