<svg width="101" height="100" viewBox="0 0 101 100" fill="none" xmlns="http://www.w3.org/2000/svg">
<path d="M59.7997 20.4075H27.1239C24.9854 20.4075 23.2517 22.2068 23.2517 24.4263V90.6423C23.2517 92.8618 24.9854 94.6611 27.1239 94.6611H59.7997C61.9383 94.6611 63.6719 92.8618 63.6719 90.6423V24.4263C63.6719 22.2068 61.9383 20.4075 59.7997 20.4075Z" fill="#2E186A"/>
<path d="M54.6241 25.2842H36.8564C33.8068 25.2842 31.3346 27.85 31.3346 31.0151V78.5476C31.3346 81.7126 33.8068 84.2784 36.8564 84.2784H54.6241C57.6737 84.2784 60.1459 81.7126 60.1459 78.5476V31.0151C60.1459 27.85 57.6737 25.2842 54.6241 25.2842Z" fill="white"/>
<path d="M46.3918 92.3543C44.7752 92.3543 43.4606 90.9899 43.4606 89.312C43.4606 87.6342 44.7752 86.2698 46.3918 86.2698C48.0085 86.2698 49.3231 87.6342 49.3231 89.312C49.3231 90.9899 48.0085 92.3543 46.3918 92.3543ZM46.3918 86.9007C45.1101 86.9007 44.0685 87.9838 44.0685 89.312C44.0685 90.6402 45.1121 91.7233 46.3918 91.7233C47.6716 91.7233 48.7152 90.6402 48.7152 89.312C48.7152 87.9838 47.6716 86.9007 46.3918 86.9007Z" fill="#9186AF"/>
<path d="M40.632 23.8676C41.0223 23.8676 41.3387 23.5393 41.3387 23.1342C41.3387 22.7291 41.0223 22.4008 40.632 22.4008C40.2417 22.4008 39.9253 22.7291 39.9253 23.1342C39.9253 23.5393 40.2417 23.8676 40.632 23.8676Z" fill="#9186AF"/>
<path d="M50.7039 22.5052H42.9904C42.7488 22.5052 42.5529 22.7086 42.5529 22.9594V23.309C42.5529 23.5598 42.7488 23.7631 42.9904 23.7631H50.7039C50.9455 23.7631 51.1414 23.5598 51.1414 23.309V22.9594C51.1414 22.7086 50.9455 22.5052 50.7039 22.5052Z" fill="#9186AF"/>
<path d="M29.3675 94.663C27.776 94.663 26.4866 93.3348 26.4866 91.6972V24.0002C26.4866 22.3626 27.776 21.0344 29.3675 21.0344" stroke="#9186AF" stroke-width="2" stroke-linecap="round" stroke-linejoin="round"/>
<path d="M24.8277 54.1875H24.5044C24.2734 54.1875 24.0862 54.3818 24.0862 54.6215V64.5359C24.0862 64.7756 24.2734 64.97 24.5044 64.97H24.8277C25.0587 64.97 25.2459 64.7756 25.2459 64.5359V54.6215C25.2459 54.3818 25.0587 54.1875 24.8277 54.1875Z" fill="#2E186A"/>
<path d="M46.2974 66.5131C52.2254 66.5131 57.031 61.5256 57.031 55.3732C57.031 49.2208 52.2254 44.2333 46.2974 44.2333C40.3694 44.2333 35.5638 49.2208 35.5638 55.3732C35.5638 61.5256 40.3694 66.5131 46.2974 66.5131Z" fill="#FF8D7E"/>
<path d="M50.9806 60.9231C49.7473 60.9231 48.5295 60.6438 47.3272 60.0872C46.1248 59.5285 45.029 58.7388 44.0435 57.714C43.058 56.6913 42.2952 55.5539 41.757 54.3061C41.2187 53.0583 40.9515 51.7923 40.9515 50.5143C40.9515 50.3295 41.0116 50.1768 41.1297 50.0542C41.2478 49.9316 41.3968 49.8693 41.573 49.8693H43.9699C44.1074 49.8693 44.2313 49.9176 44.3397 50.016C44.4482 50.1145 44.512 50.229 44.5314 50.3616L44.9167 52.5117C44.9361 52.6765 44.9322 52.8131 44.9012 52.9256C44.8702 53.0382 44.818 53.1346 44.7386 53.217L43.3039 54.722C43.5014 55.0998 43.7357 55.4675 44.0067 55.8192C44.2778 56.1708 44.5759 56.5124 44.9012 56.84C45.2071 57.1574 45.5266 57.4508 45.8635 57.7221C46.2003 57.9934 46.5546 58.2425 46.9283 58.4676L48.3184 57.0248C48.4075 56.9324 48.5237 56.8641 48.6669 56.8179C48.8102 56.7716 48.9496 56.7596 49.089 56.7797L51.1297 57.2097C51.2671 57.2499 51.3814 57.3242 51.4704 57.4327C51.5595 57.5412 51.604 57.6598 51.604 57.7944V60.2821C51.604 60.4669 51.544 60.6197 51.4259 60.7422C51.3078 60.8648 51.1587 60.9271 50.9825 60.9271L50.9806 60.9231Z" fill="white"/>
<path d="M61.755 15.4583C65.2903 15.4583 68.1558 18.4322 68.1558 22.1014" stroke="#2E186A" stroke-width="2" stroke-linecap="round" stroke-linejoin="round"/>
<path d="M61.7146 10.5513C67.8811 10.5513 72.8802 15.7396 72.8802 22.1396" stroke="#2E186A" stroke-width="2" stroke-linecap="round" stroke-linejoin="round"/>
<path d="M61.7145 5.33691C70.6554 5.33691 77.9042 12.8601 77.9042 22.1396" stroke="#2E186A" stroke-width="2" stroke-linecap="round" stroke-linejoin="round"/>
</svg>
