<svg width="101" height="100" viewBox="0 0 101 100" fill="none" xmlns="http://www.w3.org/2000/svg">
<path d="M22.4392 53.8442C22.4392 53.8442 14.9754 53.9904 16.3117 60.7026C17.6479 67.4148 25.896 63.5344 25.896 63.5344L24.7922 53.9904L22.4392 53.8442Z" fill="white" stroke="#2E186A" stroke-width="2" stroke-linecap="round" stroke-linejoin="round"/>
<path d="M43.7035 32.6826C45.6702 32.5179 59.1495 31.6675 60.6245 42.966C62.0979 54.2661 60.5075 66.741 59.2599 72.4381C58.0123 78.1352 32.211 75.4967 30.7511 74.9892C29.2911 74.4816 27.5501 72.7624 27.5501 72.7624L24.0131 55.4089C24.0131 55.4089 22.5715 34.4455 43.7035 32.6826Z" fill="white"/>
<path d="M26.468 55.2627C27.7139 56.5063 31.057 63.6857 31.8731 67.0334C31.8731 67.0334 40.1497 64.2201 52.0034 64.0487C52.0034 64.0487 58.4671 64.1798 61.0442 64.9528C61.0442 64.9528 60.4856 76.8042 55.2444 82.9416C50.0049 89.0774 38.9221 87.3615 33.7261 83.671C28.5284 79.9805 27.6705 78.2209 26.468 74.2733C25.2656 70.3256 22.0864 55.6072 22.0864 55.6072L26.468 55.2644V55.2627Z" fill="#9287B0"/>
<path d="M23.4568 57.3587C23.4568 57.3587 19.9499 51.9036 18.5969 46.235C17.3243 40.906 19.791 35.3198 24.6994 32.9317C28.8084 30.9335 31.8555 32.5015 31.8555 32.5015C31.8555 32.5015 27.4939 25.0414 34.0379 18.4502C36.3441 16.126 39.5283 14.8471 42.7927 14.9446C50.7816 15.1799 53.25 21.9677 53.25 21.9677C53.25 21.9677 61.8042 6.17707 79.339 15.5227C81.1083 16.4655 83.0985 19.0939 84.0534 20.8619C89.8448 31.5855 70.7564 44.2906 60.8209 45.2956C49.9103 46.3997 43.5219 44.583 40.0099 41.8992C42.6238 43.4772 39.6838 59.8846 23.4568 57.3604V57.3587Z" fill="#2E186A"/>
<path d="M52.3278 59.486L53.5069 69.813L49.8845 68.882" stroke="#2E186A" stroke-width="2" stroke-linecap="round" stroke-linejoin="round"/>
<path d="M56.1207 62.2791C56.7026 62.2791 57.1743 61.5462 57.1743 60.6422C57.1743 59.7382 56.7026 59.0053 56.1207 59.0053C55.5388 59.0053 55.0671 59.7382 55.0671 60.6422C55.0671 61.5462 55.5388 62.2791 56.1207 62.2791Z" fill="#2E186A"/>
<path d="M45.9846 62.0992C46.5665 62.0992 47.0382 61.3664 47.0382 60.4624C47.0382 59.5584 46.5665 58.8255 45.9846 58.8255C45.4027 58.8255 44.931 59.5584 44.931 60.4624C44.931 61.3664 45.4027 62.0992 45.9846 62.0992Z" fill="#2E186A"/>
<path d="M41.4189 51.9132C41.4189 51.9132 42.9826 49.6562 45.9879 50.1083" stroke="#2E186A" stroke-width="2" stroke-linecap="round" stroke-linejoin="round"/>
<path d="M55.6543 49.937C55.6543 49.937 58.5742 49.1757 59.3051 51.5738" stroke="#2E186A" stroke-width="2" stroke-linecap="round" stroke-linejoin="round"/>
<path d="M47.3273 77.3319C48.3775 76.9303 49.2221 76.1185 49.7372 75.1152L50.8493 72.949C50.8493 72.949 43.0126 71.4499 43.0126 71.1491C43.0126 71.1491 43.0126 78.9856 47.3273 77.3319Z" fill="white" stroke="#2E186A" stroke-width="2" stroke-linecap="round" stroke-linejoin="round"/>
<path d="M39.7198 70.3088C46.7929 70.3088 52.5268 64.5468 52.5268 57.4391C52.5268 50.3313 46.7929 44.5693 39.7198 44.5693C32.6467 44.5693 26.9128 50.3313 26.9128 57.4391C26.9128 64.5468 32.6467 70.3088 39.7198 70.3088Z" fill="white" stroke="#2E186A" stroke-width="2" stroke-linecap="round" stroke-linejoin="round"/>
<path d="M33.3513 58.1969H35.0103V57.0088H33.3513V54.8005H35.2377C35.8398 51.5083 37.6426 49.9033 40.5458 49.9033C42.4741 49.9033 43.9474 50.7167 44.9208 52.0074L42.8052 53.6123C42.3286 52.883 41.6228 52.362 40.586 52.362C39.3417 52.362 38.4704 52.9451 38.0774 54.8005H43.0745V57.0088H37.8483V58.1969H43.0745V60.4052H38.0774C38.4504 62.3009 39.3217 62.8857 40.586 62.8857C41.6028 62.8857 42.3068 62.3446 42.8052 61.6354L44.9208 63.2184C43.9458 64.5108 42.4741 65.3444 40.5458 65.3444C37.6426 65.3444 35.8381 63.7394 35.2377 60.4052H33.3513V58.1969Z" fill="#FF8D7E"/>
<path d="M65.4742 70.3088C72.5473 70.3088 78.2812 64.5468 78.2812 57.4391C78.2812 50.3313 72.5473 44.5693 65.4742 44.5693C58.4011 44.5693 52.6672 50.3313 52.6672 57.4391C52.6672 64.5468 58.4011 70.3088 65.4742 70.3088Z" fill="white" stroke="#2E186A" stroke-width="2" stroke-linecap="round" stroke-linejoin="round"/>
<path d="M59.1062 58.1969H60.7652V57.0088H59.1062V54.8005H60.9926C61.5947 51.5083 63.3975 49.9033 66.3007 49.9033C68.229 49.9033 69.7023 50.7167 70.6756 52.0074L68.5601 53.6123C68.0835 52.883 67.3777 52.362 66.3409 52.362C65.0966 52.362 64.2253 52.9451 63.8323 54.8005H68.8293V57.0088H63.6032V58.1969H68.8293V60.4052H63.8323C64.2052 62.3009 65.0765 62.8857 66.3409 62.8857C67.3577 62.8857 68.0617 62.3446 68.5601 61.6354L70.6756 63.2184C69.7006 64.5108 68.229 65.3444 66.3007 65.3444C63.3975 65.3444 61.593 63.7394 60.9926 60.4052H59.1062V58.1969Z" fill="#FF8D7E"/>
</svg>
