<svg width="100" height="101" viewBox="0 0 100 101" fill="none" xmlns="http://www.w3.org/2000/svg">
<path d="M73.6936 77.4116C73.6276 76.6769 73.4138 75.9921 73.0703 75.3707L44.2652 49.8741L38.6898 45.9807L34.8865 47.1349C33.1804 47.6587 31.4106 47.8537 29.6454 47.754L27.3843 47.6088L20.7808 73.2506C21.7134 73.6247 22.5505 74.1168 23.3535 74.6406L46.7401 92.3027L48.2483 93.7086C49.1173 94.5249 50.2296 94.9331 51.3442 94.9331C52.4589 94.9331 53.6372 94.4932 54.5243 93.627C55.0976 93.0714 55.4911 92.3866 55.7026 91.6315C57.1767 91.8424 58.7326 91.4025 59.9155 90.2755C60.6684 89.5567 61.1598 88.6406 61.3554 87.6292C61.6352 87.6632 61.9286 87.6791 62.2243 87.6791C63.6847 87.6451 65.0268 87.0601 66.0254 85.9989C66.7784 85.1984 67.2697 84.2188 67.4358 83.1394C67.8771 83.2188 68.3184 83.2392 68.7801 83.2052C70.2041 83.0896 71.5189 82.4365 72.4516 81.3458C73.3842 80.2506 73.8255 78.8469 73.6959 77.4116H73.6936Z" fill="#9287B0" stroke="#2E2765" stroke-width="2" stroke-miterlimit="10"/>
<path d="M27.5279 45.1939C27.3164 44.8197 26.9547 44.5385 26.5293 44.4252L18.1901 42.2029C17.3211 41.958 16.4203 42.4818 16.1883 43.3639L9.06153 69.9376C8.81586 70.8152 9.34133 71.695 10.2103 71.9399L18.5518 74.1598C18.6814 74.1939 18.8316 74.2097 18.9771 74.2097C19.2569 74.2097 19.5504 74.1304 19.7961 73.9988C20.1213 73.8038 20.3534 73.4932 20.483 73.1326L27.3823 47.6088L27.694 46.4342C27.81 46.0102 27.744 45.568 27.5279 45.1939Z" fill="#2E186A"/>
<path d="M72.6544 46.6791L67.659 46.8741C66.4807 46.924 65.266 46.7744 64.0535 46.4637C60.5777 45.5635 52.4296 43.5181 47.7482 44.0147C46.6085 44.1349 45.0799 44.339 43.8311 44.7993C43.781 44.8152 43.731 44.7993 43.6855 44.8152L42.0477 45.3118C42.0477 45.3118 39.5545 47.0828 36.768 50.2619C35.1552 52.1848 33.8404 54.3549 32.8327 56.7744C32.0797 58.5884 32.537 60.695 33.961 61.9989C36.0742 63.924 39.1883 64.1689 41.5654 62.5703L47.5457 58.5204C49.0198 57.5249 51.0011 57.6202 52.3614 58.7494L73.0251 75.6156L73.7849 77.5136L75.7981 75.5068L76.2462 72.6088L79.1533 71.271" fill="white"/>
<path d="M72.6544 46.6791L67.659 46.8741C66.4807 46.924 65.266 46.7744 64.0535 46.4637C60.5777 45.5635 52.4296 43.5181 47.7482 44.0147C46.6085 44.1349 45.0799 44.339 43.8311 44.7993C43.781 44.8152 43.731 44.7993 43.6855 44.8152L42.0477 45.3118C42.0477 45.3118 39.5545 47.0828 36.768 50.2619C35.1552 52.1848 33.8404 54.3549 32.8327 56.7744C32.0797 58.5884 32.537 60.695 33.961 61.9989C36.0742 63.924 39.1883 64.1689 41.5654 62.5703L47.5457 58.5204C49.0198 57.5249 51.0011 57.6202 52.3614 58.7494L73.0251 75.6156L73.7849 77.5136L75.7981 75.5068L76.2462 72.6088L79.1533 71.271" stroke="#2E186A" stroke-width="2" stroke-linecap="round" stroke-linejoin="round"/>
<path d="M26.5632 80.398C24.9049 78.9059 24.7821 76.3662 26.2402 74.7154L27.0068 73.8651L27.0454 73.8266V73.788L29.0245 71.6157C29.8297 70.7291 30.9284 70.2846 32.018 70.2846C32.9848 70.2846 33.9584 70.6066 34.7272 71.3322C35.5325 72.0601 36.0238 73.0216 36.0625 74.1077C36.1012 75.1939 35.7395 76.203 35.0503 77.0057L32.3046 80.0647C30.7601 81.7177 28.2237 81.8764 26.5655 80.3957L26.5632 80.398Z" fill="white" stroke="#2E186A" stroke-width="2" stroke-linecap="round" stroke-linejoin="round"/>
<path d="M41.6085 79.9308L37.4662 84.5385L37.4321 84.5726L35.4576 86.7676C34.7843 87.5091 33.8926 87.9603 32.8894 87.9966C31.9204 88.076 30.949 87.6995 30.2075 87.0646C29.4636 86.3934 29.011 85.5045 28.9746 84.5045C28.9404 83.5023 29.2726 82.5703 29.9095 81.8311L37.216 73.729C37.8893 72.9875 38.781 72.5363 39.7841 72.5H39.9684C40.9033 72.5 41.7609 72.8311 42.4683 73.466C43.2122 74.1372 43.6649 75.0261 43.7013 76.0261C43.7354 77.0283 43.4033 77.9603 42.7663 78.6995L41.6563 79.8832C41.6563 79.9263 41.613 79.9263 41.613 79.9263L41.6085 79.9308Z" fill="white" stroke="#2E186A" stroke-width="2" stroke-linecap="round" stroke-linejoin="round"/>
<path d="M44.6725 85.8492L40.819 90.1372C40.1935 90.8265 39.3632 91.2483 38.4283 91.2801C37.4934 91.3118 36.6244 91.0034 35.9329 90.4138C35.2414 89.7903 34.8183 88.9626 34.7864 88.0306C34.7546 87.1304 35.0639 86.2324 35.6554 85.5431L39.5406 81.2234C40.1662 80.534 40.9965 80.1531 41.9314 80.0805H42.102C42.9709 80.0805 43.7694 80.3889 44.4268 80.9807C45.8485 82.2211 45.9463 84.4342 44.6702 85.8515L44.6725 85.8492Z" fill="white" stroke="#2E186A" stroke-width="2" stroke-linecap="round" stroke-linejoin="round"/>
<path d="M48.1825 92.2755L46.8086 93.7948C46.2012 94.4796 45.3641 94.8537 44.4906 94.8968C43.5807 94.9331 42.6981 94.6292 42.0566 94.0261L41.4493 93.4569C40.7623 92.8515 40.387 92.017 40.3437 91.1463C40.3073 90.2392 40.6122 89.3594 41.2172 88.72L42.5912 87.2007C43.1985 86.5159 44.0357 86.1417 44.9092 86.0986H45.0957C45.9351 86.0986 46.7289 86.4002 47.3795 86.9694L47.9141 87.4932C49.3222 88.7472 49.4382 90.8719 48.1825 92.2755Z" fill="white" stroke="#2E186A" stroke-width="2" stroke-linecap="round" stroke-linejoin="round"/>
<path d="M72.4086 45.7335C72.2926 45.3095 72.3631 44.8673 72.5747 44.4932C72.7862 44.119 73.1479 43.8583 73.5733 43.7426L81.9284 41.5544C82.7996 41.3254 83.6982 41.8492 83.9302 42.7154C84.2941 42.9648 90.9455 69.3254 90.9455 69.3254C91.1752 70.1939 90.6498 71.0896 89.7808 71.3208L81.4234 73.5113C81.2937 73.5453 81.1436 73.5612 81.0117 73.5612C80.3406 73.5612 79.7492 73.1508 79.5035 72.5159L72.4063 45.7381L72.4086 45.7335Z" fill="#6A6AF0"/>
<path d="M56.5649 73.7245C57.0131 73.7245 67.4337 83.1417 67.4337 83.1417L56.5649 73.7245Z" fill="white"/>
<path d="M56.5649 73.7245C57.0131 73.7245 67.4337 83.1417 67.4337 83.1417" stroke="#2E186A" stroke-width="2" stroke-linecap="round" stroke-linejoin="round"/>
<path d="M52.3159 80.1893C52.764 80.1893 61.6196 87.5998 61.6196 87.5998L52.3159 80.1893Z" fill="white"/>
<path d="M52.3159 80.1893C52.764 80.1893 61.6196 87.5998 61.6196 87.5998" stroke="#2E186A" stroke-width="2" stroke-linecap="round" stroke-linejoin="round"/>
<path d="M48.2915 85.3163C48.7396 85.3163 55.5821 91.3889 55.5821 91.3889L48.2915 85.3163Z" fill="white"/>
<path d="M48.2915 85.3163C48.7396 85.3163 55.5821 91.3889 55.5821 91.3889" stroke="#2E186A" stroke-width="2" stroke-linecap="round" stroke-linejoin="round"/>
</svg>
