<svg width="100" height="100" viewBox="0 0 100 100" fill="none" xmlns="http://www.w3.org/2000/svg">
<g clip-path="url(#clip0_2972_20345)">
<path d="M22.6602 91.1788H72.9486V25.2172H67.725L67.924 86.625L22.6602 86.9893V91.1788Z" fill="#9287B0"/>
<path d="M67.0719 23.0421H20.5405V86.8635H67.0719V23.0421Z" fill="white" stroke="#2E186A" stroke-width="2" stroke-linecap="round" stroke-linejoin="round"/>
<path d="M50.1836 28.2379H56.5643" stroke="#2E186A" stroke-width="2" stroke-linecap="round" stroke-linejoin="round"/>
<path d="M50.2637 31.9065H59.958" stroke="#2E186A" stroke-width="2" stroke-linecap="round" stroke-linejoin="round"/>
<path d="M25.1733 40.0649H49.3291" stroke="#2E186A" stroke-width="2" stroke-linecap="round" stroke-linejoin="round"/>
<path d="M25.2773 45.4862H61.5369" stroke="#2E186A" stroke-width="2" stroke-linecap="round" stroke-linejoin="round"/>
<path d="M25.2773 49.6591H61.5369" stroke="#2E186A" stroke-width="2" stroke-linecap="round" stroke-linejoin="round"/>
<path d="M25.2773 53.8318H61.5369" stroke="#2E186A" stroke-width="2" stroke-linecap="round" stroke-linejoin="round"/>
<path d="M25.2773 58.0046H61.5369" stroke="#2E186A" stroke-width="2" stroke-linecap="round" stroke-linejoin="round"/>
<path d="M25.2773 62.1775H61.5369" stroke="#2E186A" stroke-width="2" stroke-linecap="round" stroke-linejoin="round"/>
<path d="M49.2861 72.1588H61.3207" stroke="#2E186A" stroke-width="2" stroke-linecap="round" stroke-linejoin="round"/>
<path d="M49.3943 81.1819C48.9552 79.5772 49.0093 77.7991 49.5457 76.2334C49.8268 75.4159 50.4411 74.5398 51.1895 74.7198C51.4728 74.787 51.7108 74.9995 51.9206 75.2294C53.2508 76.6931 53.6661 79.1457 52.9134 81.0757C52.8723 81.1798 52.8247 81.2882 52.736 81.3402C52.5132 81.4725 52.2926 81.1603 52.2018 80.8935C51.8103 79.7312 51.7432 78.4258 52.0114 77.2179C52.2904 75.9602 53.2227 74.6569 54.3323 74.9106C55.1239 75.0928 55.6452 76.0491 55.6798 76.975C55.7144 77.901 55.364 78.7901 54.9509 79.5881C55.0763 78.3 55.6084 77.0683 56.4238 76.1727C56.6531 75.9211 56.9278 75.6848 57.2457 75.6783C57.7627 75.6674 58.1304 76.2573 58.3013 76.8146C58.5846 77.7297 58.6041 78.751 58.3553 79.6792C58.3964 79.1913 58.5781 78.7229 58.8636 78.3585C59.1318 78.4561 59.1318 78.879 59.1967 79.1934C59.2616 79.5079 59.7093 79.7442 59.7677 79.4276" fill="white"/>
<path d="M49.3943 81.1819C48.9552 79.5772 49.0093 77.7991 49.5457 76.2334C49.8268 75.4159 50.4411 74.5398 51.1895 74.7198C51.4728 74.787 51.7108 74.9995 51.9206 75.2294C53.2508 76.6931 53.6661 79.1457 52.9134 81.0757C52.8723 81.1798 52.8247 81.2882 52.736 81.3402C52.5132 81.4725 52.2926 81.1603 52.2018 80.8935C51.8103 79.7312 51.7432 78.4258 52.0114 77.2179C52.2904 75.9602 53.2227 74.6569 54.3323 74.9106C55.1239 75.0928 55.6452 76.0491 55.6798 76.975C55.7144 77.901 55.364 78.7901 54.9509 79.5881C55.0763 78.3 55.6084 77.0683 56.4238 76.1727C56.6531 75.9211 56.9278 75.6848 57.2457 75.6783C57.7627 75.6674 58.1304 76.2573 58.3013 76.8146C58.5846 77.7297 58.6041 78.751 58.3553 79.6792C58.3964 79.1913 58.5781 78.7229 58.8636 78.3585C59.1318 78.4561 59.1318 78.879 59.1967 79.1934C59.2616 79.5079 59.7093 79.7442 59.7677 79.4276" stroke="#2E186A" stroke-width="2" stroke-linecap="round" stroke-linejoin="round"/>
<path d="M61.2905 97.5C71.6234 97.5 79.9999 89.102 79.9999 78.7425C79.9999 68.3829 71.6234 59.9849 61.2905 59.9849C50.9576 59.9849 42.5811 68.3829 42.5811 78.7425C42.5811 89.102 50.9576 97.5 61.2905 97.5Z" fill="#1B957E"/>
<path d="M73.0397 73.6463L69.7628 70.3589L58.8075 81.3402L53.478 75.997L50.2012 79.2845L55.5307 84.6277L58.8075 87.913L62.0865 84.6277L73.0397 73.6463Z" fill="white" stroke="#2E186A" stroke-width="2" stroke-linecap="round" stroke-linejoin="round"/>
</g>
<defs>
<clipPath id="clip0_2972_20345">
<rect width="61" height="76" fill="white" transform="translate(19 22)"/>
</clipPath>
</defs>
</svg>
