<svg width="100" height="101" viewBox="0 0 100 101" fill="none" xmlns="http://www.w3.org/2000/svg">
<path d="M73.9637 54.0938V71.8281H73.9524L58.6805 63.3125V71.7812L43.3843 63.3125V95.0312H82.5163V76.5938V71.8281V54.0938H73.9637Z" fill="#FF8D7E" stroke="#2E186A" stroke-width="2" stroke-linecap="round" stroke-linejoin="round"/>
<path d="M61.1563 78.6249H50.355V84.7187H61.1563V78.6249Z" fill="white" stroke="#2E186A" stroke-width="2" stroke-linecap="round" stroke-linejoin="round"/>
<path d="M76.5879 78.6249H65.7866V84.7187H76.5879V78.6249Z" fill="white" stroke="#2E186A" stroke-width="2" stroke-linecap="round" stroke-linejoin="round"/>
<path d="M35.4544 45.9688L17.4844 59.0938V95.0313H35.4544V45.9688Z" fill="white" stroke="#2E186A" stroke-width="2" stroke-linecap="round" stroke-linejoin="round"/>
<path d="M45.7241 53.7813L35.4546 45.9688V95.0313H45.7241V53.7813Z" fill="white" stroke="#2E186A" stroke-width="2" stroke-linecap="round" stroke-linejoin="round"/>
<path d="M30.8782 64.25H21.0347V67.0625H30.8782V64.25Z" fill="#6A6AF2"/>
<path d="M30.8782 70.0312H21.0347V72.8438H30.8782V70.0312Z" fill="#6A6AF2"/>
<path d="M30.8782 75.8125H21.0347V78.625H30.8782V75.8125Z" fill="#6A6AF2"/>
<path d="M30.8782 81.9062H21.0347V94.5625H30.8782V81.9062Z" fill="#6A6AF2"/>
</svg>
