<svg width="101" height="100" viewBox="0 0 101 100" fill="none" xmlns="http://www.w3.org/2000/svg">
<path d="M51.7377 8.66229H50.3115V24.917H51.7377V8.66229Z" fill="#2E186A"/>
<path d="M62.8534 8.66229H51.7358V15.6676H62.8534V8.66229Z" fill="#2E186A"/>
<path d="M92.2189 51.5409H9.54346L18.9524 35.0062H82.81L92.2189 51.5409Z" fill="#FF8B7E"/>
<path d="M62.1697 35.0065L50.8804 23.9086L39.591 35.0065L50.8804 46.1044L62.1697 35.0065Z" fill="#FF8B7E"/>
<path d="M85.9467 51.5408H15.8149V91.3377H85.9467V51.5408Z" fill="#EDEDED"/>
<path d="M62.1697 51.5408L50.8804 40.4429L39.591 51.5408L50.8804 62.6388L62.1697 51.5408Z" fill="#EDEDED"/>
<path d="M58.8639 69.4775H43.1831V91.3378H58.8639V69.4775Z" fill="#00AC8C"/>
<path d="M27.2194 54.9657H19.8062V64.9877H27.2194V54.9657Z" stroke="#2E186A" stroke-width="2" stroke-linecap="round" stroke-linejoin="round"/>
<path d="M40.3332 54.9657H32.9199V64.9877H40.3332V54.9657Z" stroke="#2E186A" stroke-width="2" stroke-linecap="round" stroke-linejoin="round"/>
<path d="M27.2194 69.1609H19.8062V79.1829H27.2194V69.1609Z" stroke="#2E186A" stroke-width="2" stroke-linecap="round" stroke-linejoin="round"/>
<path d="M40.3332 69.1609H32.9199V79.1829H40.3332V69.1609Z" stroke="#2E186A" stroke-width="2" stroke-linecap="round" stroke-linejoin="round"/>
<path d="M68.8424 54.9657H61.4292V64.9877H68.8424V54.9657Z" stroke="#2E186A" stroke-width="2" stroke-linecap="round" stroke-linejoin="round"/>
<path d="M81.9557 54.9657H74.5425V64.9877H81.9557V54.9657Z" stroke="#2E186A" stroke-width="2" stroke-linecap="round" stroke-linejoin="round"/>
<path d="M68.8424 69.1609H61.4292V79.1829H68.8424V69.1609Z" stroke="#2E186A" stroke-width="2" stroke-linecap="round" stroke-linejoin="round"/>
<path d="M81.9557 69.1609H74.5425V79.1829H81.9557V69.1609Z" stroke="#2E186A" stroke-width="2" stroke-linecap="round" stroke-linejoin="round"/>
<path d="M50.8815 63.8091C54.8172 63.8091 58.0077 60.4983 58.0077 56.4141C58.0077 52.33 54.8172 49.0191 50.8815 49.0191C46.9459 49.0191 43.7554 52.33 43.7554 56.4141C43.7554 60.4983 46.9459 63.8091 50.8815 63.8091Z" fill="#00AC8C"/>
</svg>
