<svg width="101" height="100" viewBox="0 0 101 100" fill="none" xmlns="http://www.w3.org/2000/svg">
<path d="M20.1753 90.3346H83.6247V13.8362H78.4075L78.6062 85.5529L20.1753 85.9167V90.3346Z" fill="#9287B0"/>
<path d="M78.5153 10.2068H17.1938V85.4578H78.5153V10.2068Z" fill="white"/>
<path fill-rule="evenodd" clip-rule="evenodd" d="M16.6538 10.2067C16.6538 9.90768 16.8956 9.66528 17.1939 9.66528H78.5154C78.8137 9.66528 79.0555 9.90768 79.0555 10.2067V85.4577C79.0555 85.7567 78.8137 85.9991 78.5154 85.9991H17.1939C16.8956 85.9991 16.6538 85.7567 16.6538 85.4577V10.2067ZM17.734 10.7481V84.9163H77.9753V10.7481H17.734Z" fill="#2E186A"/>
<path fill-rule="evenodd" clip-rule="evenodd" d="M40.8496 25.0412C40.8496 24.7422 41.0914 24.4998 41.3897 24.4998H65.5856C65.8839 24.4998 66.1257 24.7422 66.1257 25.0412C66.1257 25.3402 65.8839 25.5826 65.5856 25.5826H41.3897C41.0914 25.5826 40.8496 25.3402 40.8496 25.0412Z" fill="#2E186A"/>
<path d="M33.0767 20.8184H28.7473C27.5566 20.8184 26.5913 21.786 26.5913 22.9796V27.3196C26.5913 28.5132 27.5566 29.4808 28.7473 29.4808H33.0767C34.2674 29.4808 35.2327 28.5132 35.2327 27.3196V22.9796C35.2327 21.786 34.2674 20.8184 33.0767 20.8184Z" fill="white"/>
<path fill-rule="evenodd" clip-rule="evenodd" d="M28.7474 21.3597C27.8549 21.3597 27.1314 22.0849 27.1314 22.9796V27.3195C27.1314 28.2141 27.8549 28.9393 28.7474 28.9393H33.0767C33.9692 28.9393 34.6927 28.2141 34.6927 27.3195V22.9796C34.6927 22.0849 33.9692 21.3597 33.0767 21.3597H28.7474ZM26.0513 22.9796C26.0513 21.4869 27.2584 20.2769 28.7474 20.2769H33.0767C34.5657 20.2769 35.7728 21.4869 35.7728 22.9796V27.3195C35.7728 28.8121 34.5657 30.0221 33.0767 30.0221H28.7474C27.2584 30.0221 26.0513 28.8121 26.0513 27.3195V22.9796Z" fill="#2E186A"/>
<path fill-rule="evenodd" clip-rule="evenodd" d="M39.233 17.7039C39.8154 18.304 39.8023 19.2637 39.2037 19.8476L31.2104 27.6438C30.9177 27.9293 30.5223 28.084 30.114 28.0726C29.7058 28.0613 29.3195 27.8849 29.043 27.5837L24.0741 22.1696C23.5087 21.5535 23.5485 20.5945 24.1632 20.0276C24.7778 19.4608 25.7345 19.5007 26.3 20.1169L30.2159 24.3837L37.0946 17.6745C37.6932 17.0907 38.6506 17.1038 39.233 17.7039Z" fill="#00AC8C"/>
<path fill-rule="evenodd" clip-rule="evenodd" d="M40.8496 39.984C40.8496 39.685 41.0914 39.4426 41.3897 39.4426H65.5856C65.8839 39.4426 66.1257 39.685 66.1257 39.984C66.1257 40.283 65.8839 40.5254 65.5856 40.5254H41.3897C41.0914 40.5254 40.8496 40.283 40.8496 39.984Z" fill="#2E186A"/>
<path d="M33.0767 35.761H28.7473C27.5566 35.761 26.5913 36.7286 26.5913 37.9223V42.2622C26.5913 43.4558 27.5566 44.4235 28.7473 44.4235H33.0767C34.2674 44.4235 35.2327 43.4558 35.2327 42.2622V37.9223C35.2327 36.7286 34.2674 35.761 33.0767 35.761Z" fill="white"/>
<path fill-rule="evenodd" clip-rule="evenodd" d="M28.7474 36.3024C27.8549 36.3024 27.1314 37.0277 27.1314 37.9223V42.2622C27.1314 43.1568 27.8549 43.8821 28.7474 43.8821H33.0767C33.9692 43.8821 34.6927 43.1568 34.6927 42.2622V37.9223C34.6927 37.0277 33.9692 36.3024 33.0767 36.3024H28.7474ZM26.0513 37.9223C26.0513 36.4296 27.2584 35.2196 28.7474 35.2196H33.0767C34.5657 35.2196 35.7728 36.4296 35.7728 37.9223V42.2622C35.7728 43.7549 34.5657 44.9649 33.0767 44.9649H28.7474C27.2584 44.9649 26.0513 43.7549 26.0513 42.2622V37.9223Z" fill="#2E186A"/>
<path fill-rule="evenodd" clip-rule="evenodd" d="M39.233 32.6465C39.8154 33.2466 39.8023 34.2063 39.2037 34.7902L31.2104 42.5864C30.9177 42.8719 30.5223 43.0266 30.114 43.0153C29.7058 43.0039 29.3195 42.8276 29.043 42.5263L24.0741 37.1122C23.5087 36.4961 23.5485 35.5371 24.1632 34.9702C24.7778 34.4034 25.7345 34.4433 26.3 35.0595L30.2159 39.3263L37.0946 32.6172C37.6932 32.0333 38.6506 32.0465 39.233 32.6465Z" fill="#00AC8C"/>
<path fill-rule="evenodd" clip-rule="evenodd" d="M40.8496 54.9269C40.8496 54.6279 41.0914 54.3855 41.3897 54.3855H65.5856C65.8839 54.3855 66.1257 54.6279 66.1257 54.9269C66.1257 55.2259 65.8839 55.4683 65.5856 55.4683H41.3897C41.0914 55.4683 40.8496 55.2259 40.8496 54.9269Z" fill="#2E186A"/>
<path d="M33.0767 50.7039H28.7473C27.5566 50.7039 26.5913 51.6716 26.5913 52.8652V57.2051C26.5913 58.3988 27.5566 59.3664 28.7473 59.3664H33.0767C34.2674 59.3664 35.2327 58.3988 35.2327 57.2051V52.8652C35.2327 51.6716 34.2674 50.7039 33.0767 50.7039Z" fill="white"/>
<path fill-rule="evenodd" clip-rule="evenodd" d="M28.7474 51.2453C27.8549 51.2453 27.1314 51.9705 27.1314 52.8652V57.2051C27.1314 58.0997 27.8549 58.825 28.7474 58.825H33.0767C33.9692 58.825 34.6927 58.0997 34.6927 57.2051V52.8652C34.6927 51.9705 33.9692 51.2453 33.0767 51.2453H28.7474ZM26.0513 52.8652C26.0513 51.3725 27.2584 50.1625 28.7474 50.1625H33.0767C34.5657 50.1625 35.7728 51.3725 35.7728 52.8652V57.2051C35.7728 58.6977 34.5657 59.9078 33.0767 59.9078H28.7474C27.2584 59.9078 26.0513 58.6977 26.0513 57.2051V52.8652Z" fill="#2E186A"/>
<path fill-rule="evenodd" clip-rule="evenodd" d="M39.233 47.5894C39.8154 48.1895 39.8023 49.1492 39.2037 49.7331L31.2104 57.5293C30.9177 57.8148 30.5223 57.9695 30.114 57.9581C29.7058 57.9468 29.3195 57.7704 29.043 57.4692L24.0741 52.0551C23.5087 51.439 23.5485 50.48 24.1632 49.9131C24.7778 49.3463 25.7345 49.3862 26.3 50.0024L30.2159 54.2692L37.0946 47.56C37.6932 46.9762 38.6506 46.9893 39.233 47.5894Z" fill="#00AC8C"/>
<path fill-rule="evenodd" clip-rule="evenodd" d="M40.8496 69.8694C40.8496 69.5704 41.0914 69.328 41.3897 69.328H65.5856C65.8839 69.328 66.1257 69.5704 66.1257 69.8694C66.1257 70.1684 65.8839 70.4108 65.5856 70.4108H41.3897C41.0914 70.4108 40.8496 70.1684 40.8496 69.8694Z" fill="#2E186A"/>
<path d="M33.0767 65.6465H28.7473C27.5566 65.6465 26.5913 66.6141 26.5913 67.8078V72.1477C26.5913 73.3413 27.5566 74.309 28.7473 74.309H33.0767C34.2674 74.309 35.2327 73.3413 35.2327 72.1477V67.8078C35.2327 66.6141 34.2674 65.6465 33.0767 65.6465Z" fill="white"/>
<path fill-rule="evenodd" clip-rule="evenodd" d="M28.7474 66.1879C27.8549 66.1879 27.1314 66.9132 27.1314 67.8078V72.1477C27.1314 73.0423 27.8549 73.7676 28.7474 73.7676H33.0767C33.9692 73.7676 34.6927 73.0423 34.6927 72.1477V67.8078C34.6927 66.9132 33.9692 66.1879 33.0767 66.1879H28.7474ZM26.0513 67.8078C26.0513 66.3151 27.2584 65.1051 28.7474 65.1051H33.0767C34.5657 65.1051 35.7728 66.3151 35.7728 67.8078V72.1477C35.7728 73.6404 34.5657 74.8504 33.0767 74.8504H28.7474C27.2584 74.8504 26.0513 73.6404 26.0513 72.1477V67.8078Z" fill="#2E186A"/>
<path fill-rule="evenodd" clip-rule="evenodd" d="M39.233 62.532C39.8154 63.1321 39.8023 64.0918 39.2037 64.6757L31.2104 72.4719C30.9177 72.7574 30.5223 72.9121 30.114 72.9008C29.7058 72.8894 29.3195 72.7131 29.043 72.4118L24.0741 66.9977C23.5087 66.3816 23.5485 65.4226 24.1632 64.8557C24.7778 64.2889 25.7345 64.3288 26.3 64.945L30.2159 69.2118L37.0946 62.5027C37.6932 61.9188 38.6506 61.932 39.233 62.532Z" fill="#00AC8C"/>
</svg>
