<svg width="101" height="101" viewBox="0 0 101 101" fill="none" xmlns="http://www.w3.org/2000/svg">
<path d="M22.7418 54.1763C22.7418 54.1763 15.278 54.3225 16.6143 61.0347C17.9505 67.7469 26.1986 63.8665 26.1986 63.8665L25.0948 54.3225L22.7418 54.1763Z" fill="white" stroke="#2E186A" stroke-width="2" stroke-linecap="round" stroke-linejoin="round"/>
<path d="M44.0061 33.0146C45.9729 32.8499 59.4521 31.9996 60.9272 43.298C62.4005 54.5982 60.8101 67.073 59.5625 72.7701C58.3149 78.4672 32.5136 75.8287 31.0537 75.3212C29.5937 74.8137 27.8528 73.0945 27.8528 73.0945L24.3157 55.7409C24.3157 55.7409 22.8741 34.7776 44.0061 33.0146Z" fill="white"/>
<path d="M26.7708 55.5947C28.0167 56.8383 31.3597 64.0177 32.1758 67.3654C32.1758 67.3654 40.4524 64.5521 52.3061 64.3807C52.3061 64.3807 58.7698 64.5118 61.3469 65.2849C61.3469 65.2849 60.7884 77.1362 55.5472 83.2736C50.3076 89.4094 39.2249 87.6935 34.0288 84.003C28.8311 80.3125 27.9732 78.5529 26.7708 74.6053C25.5683 70.6576 22.3892 55.9392 22.3892 55.9392L26.7708 55.5964V55.5947Z" fill="#9287B0"/>
<path d="M23.3941 58.129C23.3941 58.129 19.8871 52.6739 18.5342 47.0054C17.2615 41.6763 19.7283 36.0901 24.6367 33.702C28.7457 31.7038 31.7927 33.2718 31.7927 33.2718C31.7927 33.2718 27.4312 25.8117 33.9752 19.2206C36.2813 16.8963 39.4655 15.6174 42.73 15.7149C50.7189 15.9502 53.1873 22.738 53.1873 22.738C53.1873 22.738 61.7415 6.94739 79.2762 16.293C81.0456 17.2358 83.0357 19.8642 83.9906 21.6322C89.782 32.3559 70.6936 45.061 60.7581 46.0659C49.8476 47.1701 43.4591 45.3534 39.9472 42.6695C42.5611 44.2476 39.6211 60.6549 23.3941 58.1307V58.129Z" fill="#2E186A"/>
<path d="M52.6303 59.818L53.8094 70.1451L50.187 69.214" stroke="#2E186A" stroke-width="2" stroke-linecap="round" stroke-linejoin="round"/>
<path d="M56.4232 62.6111C57.0051 62.6111 57.4768 61.8783 57.4768 60.9743C57.4768 60.0703 57.0051 59.3374 56.4232 59.3374C55.8413 59.3374 55.3696 60.0703 55.3696 60.9743C55.3696 61.8783 55.8413 62.6111 56.4232 62.6111Z" fill="#2E186A"/>
<path d="M46.2875 62.4313C46.8694 62.4313 47.3411 61.6984 47.3411 60.7944C47.3411 59.8904 46.8694 59.1575 46.2875 59.1575C45.7056 59.1575 45.2339 59.8904 45.2339 60.7944C45.2339 61.6984 45.7056 62.4313 46.2875 62.4313Z" fill="#2E186A"/>
<path d="M41.7217 52.2453C41.7217 52.2453 43.2853 49.9883 46.2906 50.4404" stroke="#2E186A" stroke-width="2" stroke-linecap="round" stroke-linejoin="round"/>
<path d="M55.957 50.269C55.957 50.269 58.877 49.5078 59.6078 51.9059" stroke="#2E186A" stroke-width="2" stroke-linecap="round" stroke-linejoin="round"/>
<path d="M47.6301 77.6639C48.6804 77.2623 49.5249 76.4506 50.04 75.4473L51.1521 73.281C51.1521 73.281 43.3154 71.782 43.3154 71.4811C43.3154 71.4811 43.3154 79.3176 47.6301 77.6639Z" fill="white" stroke="#2E186A" stroke-width="2" stroke-linecap="round" stroke-linejoin="round"/>
<path d="M40.0223 70.6409C47.0954 70.6409 52.8293 64.8789 52.8293 57.7711C52.8293 50.6633 47.0954 44.9013 40.0223 44.9013C32.9492 44.9013 27.2153 50.6633 27.2153 57.7711C27.2153 64.8789 32.9492 70.6409 40.0223 70.6409Z" fill="white" stroke="#2E186A" stroke-width="2" stroke-linecap="round" stroke-linejoin="round"/>
<path d="M33.6538 58.5289H35.3128V57.3408H33.6538V55.1325H35.5402C36.1423 51.8403 37.9451 50.2354 40.8483 50.2354C42.7766 50.2354 44.2499 51.0487 45.2232 52.3394L43.1077 53.9444C42.6311 53.215 41.9253 52.694 40.8885 52.694C39.6442 52.694 38.7729 53.2772 38.3799 55.1325H43.377V57.3408H38.1508V58.5289H43.377V60.7372H38.3799C38.7529 62.6329 39.6242 63.2177 40.8885 63.2177C41.9053 63.2177 42.6093 62.6766 43.1077 61.9674L45.2232 63.5505C44.2483 64.8428 42.7766 65.6764 40.8483 65.6764C37.9451 65.6764 36.1406 64.0715 35.5402 60.7372H33.6538V58.5289Z" fill="#1B957E"/>
<path d="M65.7767 70.6409C72.8498 70.6409 78.5837 64.8789 78.5837 57.7711C78.5837 50.6633 72.8498 44.9013 65.7767 44.9013C58.7036 44.9013 52.9697 50.6633 52.9697 57.7711C52.9697 64.8789 58.7036 70.6409 65.7767 70.6409Z" fill="white" stroke="#2E186A" stroke-width="2" stroke-linecap="round" stroke-linejoin="round"/>
<path d="M59.4087 58.5289H61.0677V57.3408H59.4087V55.1325H61.2951C61.8972 51.8403 63.7 50.2354 66.6032 50.2354C68.5315 50.2354 70.0048 51.0487 70.9781 52.3394L68.8626 53.9444C68.386 53.215 67.6802 52.694 66.6433 52.694C65.3991 52.694 64.5278 53.2772 64.1348 55.1325H69.1318V57.3408H63.9057V58.5289H69.1318V60.7372H64.1348C64.5077 62.6329 65.379 63.2177 66.6433 63.2177C67.6601 63.2177 68.3642 62.6766 68.8626 61.9674L70.9781 63.5505C70.0031 64.8428 68.5315 65.6764 66.6032 65.6764C63.7 65.6764 61.8955 64.0715 61.2951 60.7372H59.4087V58.5289Z" fill="#1B957E"/>
</svg>
