<svg xmlns="http://www.w3.org/2000/svg" width="716" height="414" fill="none" viewBox="0 0 716 414"><path fill="#f5f5fe" d="M60.028 198.235C110 29.5 323.165 26.7 399.5 43c377 80.501 244.5 278.5 108 278.5-163.439 0-507.75 80.262-447.472-123.265"/><g clip-path="url(#a)"><path fill="#ff8d7e" d="M76.675 200.32h69.008a42.86 42.86 0 0 1 42.858 42.859v106.64H33.816v-106.64a42.86 42.86 0 0 1 42.859-42.859"/><path fill="#2e186a" d="M225.14 220.765c-10.332-9.607-47.949-34.582-99.44-1.899-19.734 11.1-33.945 29.865-53.808 60.649-29.291 45.393-1.002 70.467 15.648 70.467s201.808-1.462 201.808-1.462 7.208-71.422-64.208-127.755"/><path fill="#fff" d="m147.826 211.685-6.657 6.845s31.706 24.103 42.001 82.18c6.7 37.734 4.412 41.974 4.412 41.974l19.65-1.052s-10.949-62.755-4.141-82.615.586-42.158-4.027-45.769c-4.612-3.61-51.238-1.563-51.238-1.563M202.021 204.541l-34.104 4.227-2.677-13.32-9.694-3.13-.737 12.704"/><path fill="#2e186a" fill-rule="evenodd" d="M155.024 191.555a.93.93 0 0 1 .806-.117l9.694 3.13c.319.103.557.37.623.698l2.507 12.479 33.254-4.122a.924.924 0 1 1 .227 1.836l-34.105 4.227a.924.924 0 0 1-1.02-.736l-2.57-12.788-8.04-2.596-.667 11.509a.925.925 0 0 1-1.847-.107l.737-12.703a.92.92 0 0 1 .401-.71" clip-rule="evenodd"/><path fill="#fff" d="m154.809 205.022-6.293 7.221s7.092 17.415 36.384 31.758c0 0 14.553-15.367 17.106-39.448"/><path fill="#2e186a" fill-rule="evenodd" d="M202.104 203.633c.508.054.876.51.822 1.018-1.294 12.202-5.626 22.188-9.63 29.119a72 72 0 0 1-5.351 8.019 51 51 0 0 1-1.715 2.109c-.206.239-.369.422-.481.546l-.129.141-.035.037-.009.011-.004.004-.672-.636.671.636a.92.92 0 0 1-1.078.195c-14.755-7.226-23.948-15.239-29.462-21.476-2.756-3.117-4.591-5.788-5.741-7.689a32 32 0 0 1-1.24-2.235 17 17 0 0 1-.29-.61l-.073-.164-.019-.046-.005-.013-.002-.005-.001-.001.856-.35-.856.349a.93.93 0 0 1 .159-.957l6.293-7.221a.926.926 0 0 1 1.395 1.215l-5.902 6.772.101.206c.241.482.62 1.196 1.168 2.102 1.095 1.812 2.864 4.392 5.543 7.421 5.277 5.969 14.094 13.695 28.263 20.732l.149-.172c.393-.456.961-1.137 1.653-2.032a71 71 0 0 0 5.212-7.813c3.912-6.773 8.133-16.511 9.392-28.39a.925.925 0 0 1 1.018-.822" clip-rule="evenodd"/><path fill="#fff" d="M200.48 207.868s7.606 15.623-2.939 37.515c0 0-3.7-9.867-12.641-1.394.015 0 13.875-14.331 15.58-36.121"/><path fill="#2e186a" fill-rule="evenodd" d="m201.311 207.463-.831.405c.831-.405.832-.404.832-.404l.001.002.002.003.005.013.02.041.068.151q.088.196.237.565c.197.493.461 1.213.744 2.143.564 1.86 1.199 4.561 1.497 7.953.597 6.791-.16 16.339-5.511 27.449a.925.925 0 0 1-1.699-.075v-.001h-.001l-.005-.013-.026-.065a8.5 8.5 0 0 0-.609-1.172c-.45-.733-1.111-1.584-1.986-2.188-.855-.589-1.917-.947-3.25-.725-1.359.226-3.101 1.07-5.252 3.105l-.025.023-.041.036a1.8 1.8 0 0 1-.581.205.925.925 0 0 1-.642-1.591l.016-.017.108-.114q.147-.156.428-.474a44 44 0 0 0 1.564-1.881 63 63 0 0 0 4.883-7.203c3.632-6.225 7.462-15.121 8.301-25.838a.924.924 0 0 1 1.753-.333m-12.001 32.555q.607-.203 1.186-.298c1.875-.312 3.414.208 4.602 1.027 1.081.744 1.866 1.73 2.392 2.548 4.483-10.055 5.094-18.646 4.553-24.798a38.6 38.6 0 0 0-1.109-6.464c-1.391 9.245-4.821 16.949-8.079 22.533a67 67 0 0 1-3.545 5.452" clip-rule="evenodd"/><path fill="#fff" d="M203.141 312.538c5.035 1.156 9.056 2.282 10.175 3.12 3.613 2.729 18.611 17.421 19.16 19.817s-3.845 3.725-7.477.034l-10.693-10.197s10.893 12.398 11.738 14.295c.845 1.896-3.413 5.241-9.71-2.732-6.296-7.974-7.295-8.048-7.295-8.048s7.197 10.033 8.153 12.309c.955 2.275-5.11 4.409-10.675-6.114l-33.291-1.456 1.952-26.415s16.582 2.775 27.963 5.393"/><path fill="#2e186a" fill-rule="evenodd" d="m175.331 306.239-.153.913zl.19.032.547.093a749.813 749.813 0 0 1 8.99 1.592c5.538 1.016 12.493 2.357 18.185 3.663a1 1 0 0 1 .105.018c2.525.58 4.811 1.155 6.614 1.694.9.27 1.692.533 2.339.788.627.247 1.185.511 1.569.799l.003.002c1.868 1.41 6.564 5.812 10.829 10.121 2.142 2.163 4.195 4.324 5.752 6.101.778.887 1.442 1.69 1.933 2.356.246.333.457.643.62.921.154.262.304.558.37.85a2.54 2.54 0 0 1-.663 2.385c-.577.594-1.407.936-2.304 1.039-1.466.169-3.241-.278-4.916-1.526q.303.397.551.737c.371.51.692.987.844 1.326.381.856.15 1.79-.409 2.462-.567.682-1.474 1.126-2.572 1.174-1.795.079-4.061-.874-6.592-3.464.327.555.583 1.03.728 1.376.431 1.024.024 2.035-.813 2.607-.796.543-1.926.683-3.145.393-2.387-.567-5.361-2.808-8.134-7.855l-32.766-1.432a.925.925 0 0 1-.882-.993l1.952-26.415a.923.923 0 0 1 1.075-.844m33.708 22.588c.069-.922.072-.922.075-.922l.007.001.013.001.007.001.019.002.034.005.016.003a1.156 1.156 0 0 1 .26.083q.156.069.346.199c.254.174.619.473 1.157 1 1.078 1.056 2.93 3.103 6.087 7.102 3.079 3.898 5.464 4.773 6.766 4.716.647-.029 1.04-.278 1.231-.508.199-.239.183-.434.142-.527-.06-.134-.264-.46-.65-.991a56 56 0 0 0-1.419-1.842 217 217 0 0 0-3.978-4.803 506 506 0 0 0-5.073-5.889l-.347-.396-.119-.137-.002-.002.695-.611-.695.611a.925.925 0 0 1 1.333-1.28l10.693 10.197.004.003.017.017c1.649 1.676 3.384 2.128 4.541 1.995.588-.067.98-.276 1.186-.489a.69.69 0 0 0 .189-.684s-.007-.026-.034-.084a3 3 0 0 0-.128-.242 9 9 0 0 0-.513-.759c-.448-.607-1.074-1.366-1.836-2.236-1.522-1.737-3.547-3.868-5.675-6.019-4.273-4.317-8.881-8.624-10.628-9.944-.176-.132-.54-.322-1.137-.558a29 29 0 0 0-2.191-.736c-1.723-.516-3.927-1.072-6.394-1.64a1 1 0 0 1-.105-.018c-5.669-1.304-12.644-2.65-18.208-3.67a773 773 0 0 0-8.699-1.542l-1.807 24.45 32.338 1.414a.93.93 0 0 1 .778.491c2.721 5.146 5.453 6.979 7.179 7.39.873.207 1.428.045 1.674-.123.205-.139.198-.248.151-.362-.202-.481-.784-1.466-1.603-2.742a165 165 0 0 0-2.742-4.1 349 349 0 0 0-3.397-4.852l-.229-.321-.079-.111-.001-.001zm0 0-.751.54a.926.926 0 0 1 .82-1.462z" clip-rule="evenodd"/><path fill="#2e186a" d="M116.826 349.818s53.36-3.61 59.342-5.152c5.981-1.541 3.761-5.911 8.097-7.579s5.716-3.006 5.716-3.006c-5.615-8.96 0-23.806 0-23.806s-1.471-.401-6.019-1.335c-4.548-.935-3.083-5.618-9.225-6.167s-58.978 5.51-58.978 5.51"/><path fill="#2e186a" fill-rule="evenodd" d="M118.449 292.261a.925.925 0 0 1 1.011-.83l-.09.92.091-.92h.005l.01.001.031.004q.04.004.104.014.133.017.365.06c.309.058.743.155 1.268.315 1.049.319 2.468.887 3.969 1.892 3.025 2.023 6.311 5.768 7.632 12.589a.924.924 0 1 1-1.816.352c-1.226-6.329-4.223-9.65-6.845-11.404a13.2 13.2 0 0 0-3.478-1.659c-.454-.138-.822-.22-1.072-.267a6 6 0 0 0-.28-.046l-.064-.009-.012-.001h.001-.002.001-.001a.925.925 0 0 1-.828-1.011" clip-rule="evenodd"/><path fill="#2e186a" d="M184.998 337.707c4.687-1.767 6.189-3.185 6.189-3.185-6.081-9.484 0-25.203 0-25.203s-1.594-.426-6.515-1.415c-1.98-.398-2.905-1.44-3.737-2.581-10.077 11.43-4.027 31.505-1.339 38.785 2.362-2.075 1.847-5.063 5.402-6.401"/><path fill="#2e186a" fill-rule="evenodd" d="M161.364 253.391a1.234 1.234 0 0 1 1.646.578l-1.112.534 1.112-.533.008.016.023.048.088.185.331.709c.285.617.693 1.512 1.187 2.63.987 2.237 2.318 5.37 3.693 8.96 2.739 7.148 5.7 16.221 6.419 23.633a1.232 1.232 0 1 1-2.455.238c-.685-7.061-3.54-15.872-6.267-22.989a195 195 0 0 0-3.647-8.846 163 163 0 0 0-1.492-3.282l-.084-.177-.021-.044-.007-.014.002-.001-.002.001a1.234 1.234 0 0 1 .578-1.646M209.599 254.236c.664.153 1.078.815.926 1.478l-.003.013-.01.042-.038.169-.144.661c-.123.579-.299 1.424-.505 2.484a170 170 0 0 0-1.433 8.521c-.976 6.874-1.745 15.457-.991 22.526a1.233 1.233 0 0 1-2.453.262c-.787-7.38.018-16.208 1.002-23.134a174 174 0 0 1 1.453-8.647c.21-1.076.389-1.936.515-2.528l.149-.681.039-.178.011-.046.004-.016 1.202.276-1.202-.277a1.233 1.233 0 0 1 1.478-.925" clip-rule="evenodd"/><path fill="#6a6af4" d="M326.733 349.52a3.4 3.4 0 0 0 3.303-2.612l18.62-78.819a3.383 3.383 0 0 0-.642-2.885 3.38 3.38 0 0 0-2.66-1.287H225.477a3.395 3.395 0 0 0-3.303 2.612l-16.665 70.552h-43.453s-2.409 12.439 11.633 12.439"/><path fill="#fff" d="M276.728 294.256s5.51-1.338 5.859 3.432c.009 0-4.388 1.764-5.859-3.432"/><path fill="#fff" d="M286.805 306.55a7.3 7.3 0 0 0-1.77-.827 4.6 4.6 0 0 0 1.267-3.117 3.13 3.13 0 0 0-1.542-2.815c.524-1.566 1.372-3.823 2.048-4.625a.93.93 0 0 0 .216-.674.92.92 0 0 0-.324-.63.92.92 0 0 0-.675-.216.94.94 0 0 0-.63.324c-.977 1.156-1.991 4.008-2.485 5.516h-.101c-1.915.351-3.46 2.309-3.451 4.375a3.44 3.44 0 0 0 .475 1.751 11.9 11.9 0 0 0-5.84 3.392c-3.481 3.7-3.391 8.633.188 10.98 3.58 2.346 9.321 1.233 12.802-2.467s3.407-8.618-.178-10.967M151.152 168.3s-11.852.231-9.731 10.838 15.22 4.474 15.22 4.474l-1.755-15.081z"/><path fill="#2e186a" fill-rule="evenodd" d="M151.134 167.375q.038-.001.075.001l3.734.232c.447.027.81.371.862.816l1.754 15.08a.925.925 0 0 1-.526.945l-.392-.838.391.838-.001.001-.003.001-.009.005-.016.007-.018.008-.12.054q-.157.069-.444.186c-.379.154-.92.36-1.575.573-1.303.422-3.088.881-4.965.991-1.87.11-3.916-.122-5.663-1.171-1.782-1.07-3.13-2.917-3.704-5.785-.564-2.823-.214-5.052.718-6.787.926-1.725 2.375-2.864 3.837-3.614 1.46-.749 2.973-1.131 4.106-1.328.57-.099 1.052-.153 1.394-.182q.26-.02.405-.027l.113-.005.032-.001h.014l.019.925zm.004 1.85-.072.004q-.117.004-.341.023c-.297.025-.725.072-1.233.161-1.023.178-2.34.516-3.579 1.151-1.235.634-2.352 1.541-3.051 2.843-.694 1.291-1.03 3.068-.534 5.549.487 2.436 1.572 3.799 2.842 4.562 1.306.784 2.932 1.008 4.602.91 1.663-.097 3.284-.508 4.503-.904a22 22 0 0 0 1.367-.493l-1.585-13.625z" clip-rule="evenodd"/><path fill="#fff" d="M184.915 134.879c3.123-.259 24.525-1.606 26.865 16.249 2.34 17.856-.185 37.565-2.158 46.559-1.974 8.994-17.323 31.663-31.198 26.421s-19.156-25.9-19.156-25.9l-5.618-27.417s-2.288-33.124 31.265-35.912"/><path fill="#2e186a" fill-rule="evenodd" d="M198.368 137.095c-5.858-1.809-11.844-1.421-13.377-1.294-8.229.684-14.202 3.22-18.549 6.596-4.352 3.38-7.125 7.64-8.889 11.842-1.765 4.205-2.512 8.336-2.816 11.424a40 40 0 0 0-.195 3.702 28 28 0 0 0 .026 1.282l.001.023 5.6 27.329.008.031.045.166c.041.146.102.365.186.646a57.815 57.815 0 0 0 4.054 9.921c3.023 5.759 7.676 11.981 14.289 14.48 3.185 1.203 6.487.825 9.747-.632 3.272-1.462 6.457-3.995 9.317-7.011 2.855-3.011 5.35-6.466 7.252-9.72 1.91-3.267 3.187-6.276 3.651-8.391 1.958-8.926 4.467-28.522 2.145-46.24-1.108-8.454-6.68-12.359-12.495-14.154m-39.1 61.113-.897.229-.01-.043-5.617-27.417a1 1 0 0 1-.017-.122l.923-.064-.923.063v-.002l-.001-.007-.001-.022-.004-.078-.013-.294a30 30 0 0 1-.016-1.092c.003-.936.046-2.27.204-3.878.316-3.21 1.094-7.534 2.951-11.958 1.859-4.428 4.805-8.972 9.46-12.587 4.661-3.619 10.984-6.268 19.531-6.978 1.591-.132 7.868-.547 14.076 1.369 6.252 1.93 12.551 6.28 13.783 15.682 2.358 17.993-.184 37.814-2.172 46.876-.522 2.382-1.904 5.58-3.861 8.929-1.964 3.361-4.543 6.933-7.507 10.058-2.958 3.121-6.335 5.834-9.905 7.429-3.582 1.6-7.401 2.09-11.154.672-7.262-2.743-12.188-9.47-15.274-15.351a60 60 0 0 1-3.387-7.796 55 55 0 0 1-.802-2.456 33 33 0 0 1-.196-.683l-.05-.182-.008-.033-.005-.016-.003-.013-.001-.004v-.001s-.001-.001.896-.23" clip-rule="evenodd"/><path fill="#2e186a" d="M211.512 155.494c-17.393.774-27.464-1.125-33.041-5.365 4.147 2.495-.518 28.42-26.286 24.43 0 0-5.55-8.634-7.708-17.575-2.026-8.418 1.881-17.248 9.682-21.019 6.524-3.161 11.362-.682 11.362-.682s-6.922-11.787 3.465-22.2a18.92 18.92 0 0 1 13.9-5.55c12.685.373 16.607 11.1 16.607 11.1s21.79-10.15 27.031 5.575c5.242 15.725-4.43 30.833-15.012 31.286"/><path fill="#2e186a" fill-rule="evenodd" d="M187.091 197.204a1.233 1.233 0 0 0-2.435.393l1.218-.194-1.218.195v.001l.001.003.001.008.003.019.011.061q.014.075.042.197c.037.163.095.388.179.652.168.522.453 1.229.92 1.921.468.695 1.143 1.409 2.098 1.879.968.477 2.138.661 3.508.423a1.233 1.233 0 0 0-.422-2.43c-.904.157-1.538.02-1.996-.206-.472-.233-.847-.605-1.143-1.045a5.2 5.2 0 0 1-.616-1.297 5 5 0 0 1-.147-.557l-.004-.022zM198.467 176.004a1.233 1.233 0 0 1 1.366 1.084l1.872 16.314a1.232 1.232 0 0 1-1.531 1.336l-5.751-1.471a1.232 1.232 0 1 1 .612-2.39l4.015 1.027-1.667-14.534a1.233 1.233 0 0 1 1.084-1.366" clip-rule="evenodd"/><path fill="#2e186a" d="M204.938 180.1c.923 0 1.671-1.159 1.671-2.587s-.748-2.587-1.671-2.587-1.671 1.158-1.671 2.587c0 1.428.748 2.587 1.671 2.587M188.846 179.816c.923 0 1.671-1.158 1.671-2.587s-.748-2.587-1.671-2.587-1.671 1.158-1.671 2.587.748 2.587 1.671 2.587"/><path fill="#2e186a" fill-rule="evenodd" d="M188.346 163.628a6.43 6.43 0 0 0-6.085 2.393 1.233 1.233 0 0 1-1.945-1.517 8.89 8.89 0 0 1 8.42-3.311 1.234 1.234 0 0 1-.39 2.435M204.196 163.328l.001-.001.022-.005.111-.024c.102-.02.256-.047.446-.069a5.8 5.8 0 0 1 1.41-.001c1.01.134 1.926.576 2.322 1.856a1.234 1.234 0 1 0 2.357-.729c-.776-2.509-2.759-3.36-4.354-3.572a8.3 8.3 0 0 0-2.66.096 4 4 0 0 0-.186.04l-.056.013-.018.004-.007.002-.003.001h-.001l.308 1.188-.309-1.188a1.234 1.234 0 0 0 .617 2.389M.088 349.982c0-.511.414-.925.925-.925h389.974a.925.925 0 1 1 0 1.85H1.013a.925.925 0 0 1-.925-.925" clip-rule="evenodd"/><path fill="#fff" d="M153.616 201.634s-9.62.851-9.673 10.122c-.052 9.272 27.698 35.786 27.698 35.786s7.123-11.1 13.258-3.552c.016 0-40.98-31.222-31.283-42.356"/><path fill="#2e186a" fill-rule="evenodd" d="M154.44 201.213a.93.93 0 0 1-.126 1.028c-1.997 2.292-1.552 5.798.911 10.26 2.418 4.381 6.561 9.255 11.062 13.837 4.489 4.57 9.285 8.8 12.962 11.89a219 219 0 0 0 3.269 2.695c1.071.464 2.114 1.271 3.099 2.482l-.084.069c.034.33.003 1.008-.633 1.44a.93.93 0 0 1-.581-.205l-.015-.012-.086-.066-.342-.266a161 161 0 0 1-2.305-1.828 4 4 0 0 0-1.344-.253c-1.252-.017-2.523.543-3.718 1.401-1.185.852-2.21 1.939-2.946 2.829-.366.442-.655.829-.852 1.103q-.147.208-.222.319l-.054.082-.013.019-.002.003-.001.001a.928.928 0 0 1-1.417.169l.639-.669-.639.668-.001-.001-.02-.019-.06-.058-.234-.225a282.378 282.378 0 0 1-4.039-4.002c-2.608-2.638-6.087-6.254-9.566-10.164-3.476-3.906-6.97-8.123-9.596-11.959-1.313-1.918-2.422-3.76-3.205-5.434-.775-1.656-1.27-3.233-1.262-4.597.028-5.037 2.691-7.839 5.323-9.337a14.2 14.2 0 0 1 3.547-1.4 14 14 0 0 1 1.508-.287l.096-.01.028-.003.008-.001h.005l.082.921-.081-.921a.92.92 0 0 1 .905.501m17.071 44.914c.176-.234.386-.502.626-.792.791-.956 1.93-2.172 3.293-3.152 1.064-.765 2.317-1.423 3.684-1.658q-.51-.423-1.055-.88c-3.702-3.112-8.546-7.384-13.092-12.011-4.534-4.615-8.82-9.634-11.362-14.239-2.031-3.681-3.1-7.395-1.89-10.416-.738.223-1.6.554-2.458 1.043-2.191 1.246-4.364 3.504-4.388 7.739-.006.954.354 2.234 1.088 3.802.724 1.551 1.774 3.301 3.056 5.173 2.562 3.742 5.996 7.892 9.451 11.774 3.451 3.878 6.906 7.469 9.5 10.093a291 291 0 0 0 3.132 3.12zm12.812-1.415-.003-.003z" clip-rule="evenodd"/><path fill="#fff" d="M185.825 247.541s7.326 18.75 8.905 57.782z"/><path fill="#2e186a" fill-rule="evenodd" d="M185.488 246.68a.925.925 0 0 1 1.198.525l-.861.336c.861-.336.861-.336.862-.335l.001.004.005.013.018.045.064.174q.086.23.242.679c.207.601.504 1.498.863 2.694.719 2.392 1.69 5.98 2.71 10.788 2.039 9.618 4.272 24.115 5.064 43.683a.925.925 0 0 1-1.849.075c-.787-19.464-3.007-33.858-5.025-43.374-1.009-4.758-1.968-8.296-2.672-10.64a67 67 0 0 0-.84-2.622 31 31 0 0 0-.229-.644l-.058-.156-.014-.037-.003-.009-.001-.001a.925.925 0 0 1 .525-1.198M177.505 171.329a.925.925 0 0 1 .92-.825H196c.447 0 .83.32.91.76l-.91.165.91-.164.001.005.002.01.006.036.021.131q.026.168.065.475c.051.406.109.981.143 1.671.067 1.372.038 3.226-.365 5.099-.401 1.869-1.19 3.825-2.695 5.321-1.528 1.518-3.711 2.478-6.722 2.478-2.853 0-4.961-.972-6.473-2.479-1.488-1.483-2.337-3.422-2.824-5.28-.487-1.864-.627-3.711-.646-5.081-.01-.687.01-1.262.032-1.666a22 22 0 0 1 .048-.641l.001-.01.001-.003zl.92.1zm1.784 1.025a23 23 0 0 0-.017 1.27c.019 1.281.15 2.969.587 4.639.439 1.677 1.169 3.271 2.34 4.439 1.148 1.144 2.778 1.939 5.167 1.939 2.584 0 4.278-.808 5.418-1.94 1.162-1.155 1.833-2.732 2.191-4.398.357-1.661.388-3.341.325-4.62-.026-.527-.067-.98-.106-1.329zM200.014 171.283a.924.924 0 0 1 .919-.825h17.575c.448 0 .831.32.911.76l-.911.165.911-.164.001.005.001.01.007.036.02.131q.028.168.066.475c.051.406.109.981.143 1.671.067 1.372.038 3.226-.365 5.099-.402 1.869-1.19 3.826-2.696 5.321-1.527 1.519-3.71 2.478-6.721 2.478-2.853 0-4.961-.972-6.473-2.479-1.488-1.483-2.338-3.422-2.824-5.28-.488-1.864-.627-3.711-.647-5.081a24 24 0 0 1 .066-2.141l.015-.166.001-.01.001-.003v-.001l.919.099zm1.784 1.025a23 23 0 0 0-.017 1.27c.019 1.282.15 2.969.587 4.639.439 1.677 1.169 3.271 2.34 4.439 1.148 1.144 2.778 1.939 5.167 1.939 2.584 0 4.278-.807 5.418-1.94 1.162-1.155 1.832-2.732 2.19-4.398.357-1.661.389-3.341.326-4.62-.026-.527-.067-.98-.107-1.329z" clip-rule="evenodd"/><path fill="#2e186a" fill-rule="evenodd" d="M195.957 174.157c0-.51.414-.925.925-.925h3.382a.925.925 0 0 1 0 1.85h-3.382a.925.925 0 0 1-.925-.925M154.375 171.383c0-.511.414-.925.925-.925h21.531a.925.925 0 1 1 0 1.85H155.3a.925.925 0 0 1-.925-.925" clip-rule="evenodd"/></g><g filter="url(#b)"><rect width="360.839" height="350.897" x="260.81" y=".103" fill="#fff" rx="8"/><rect width="359.839" height="349.897" x="261.31" y=".603" stroke="#e6e6e6" rx="7.5"/></g><path fill="#161616" d="M282.587 71.56h.989v-6.038l2.146 3.513h.757l2.146-3.513v6.038h.989v-7.364h-1.262L286.1 67.91l-2.251-3.714h-1.262zM294.367 65.416l1.231-1.746h-1.01l-1.094 1.746zm2.02 5.271-.663-.516c-.347.474-.926.79-1.61.79-1.136 0-1.946-.769-1.977-2.041h4.071a2.8 2.8 0 0 0 .063-.558c0-1.304-.936-2.314-2.378-2.314-1.641 0-2.672 1.251-2.672 2.861 0 1.546 1.105 2.861 2.893 2.861.989 0 1.778-.42 2.273-1.083m-2.515-3.882c.937 0 1.473.652 1.505 1.43H292.2c.189-.915.799-1.43 1.672-1.43M298.061 69.782c0 1.294.662 1.883 1.841 1.883.378 0 .663-.042.915-.147v-.8c-.2.085-.442.127-.789.127-.642 0-1.063-.232-1.063-1.063v-2.714h1.841v-.81h-1.841v-1.326h-.904v1.326h-1v.81h1zM302.626 64.88c.347 0 .62-.284.62-.631a.62.62 0 0 0-.62-.621.63.63 0 0 0-.632.62c0 .348.284.632.632.632m-.453 6.68h.894v-5.302h-.894zM309.67 70.687l-.662-.516c-.347.474-.926.79-1.61.79-1.136 0-1.946-.769-1.978-2.041h4.072a2.8 2.8 0 0 0 .063-.558c0-1.304-.937-2.314-2.378-2.314-1.641 0-2.672 1.251-2.672 2.861 0 1.546 1.105 2.861 2.893 2.861.989 0 1.778-.42 2.272-1.083m-2.514-3.882c.936 0 1.473.652 1.505 1.43h-3.178c.19-.915.8-1.43 1.673-1.43M311.07 71.56h.894v-3.64c.327-.536.779-.894 1.473-.894.211 0 .368.021.526.063v-.873a1.5 1.5 0 0 0-.452-.063c-.673 0-1.157.305-1.547.768v-.663h-.894zM320.928 67.657l-1.042-1.262 1.578-.421-.242-.747-1.515.59.095-1.621h-.779l.095 1.63-1.525-.599-.242.747 1.567.42-1.02 1.263.631.453.873-1.368.894 1.367z"/><g clip-path="url(#c)"><g clip-path="url(#d)"><path fill="#eee" d="M282.587 78.03a1 1 0 0 1 1-1h315.577a1 1 0 0 1 1 1v25.301H282.587z"/><g fill="#929292" clip-path="url(#e)"><path d="M293.107 94.042h.989v-3.23h.968c.073 0 .157 0 .231-.01l2.136 3.24h1.167l-2.377-3.43c.789-.315 1.241-.978 1.241-1.862 0-1.262-.915-2.072-2.398-2.072h-1.957zm1.999-6.522c.841 0 1.336.463 1.336 1.21 0 .788-.495 1.24-1.336 1.24h-1.01v-2.45zM304.277 93.169l-.663-.516a1.97 1.97 0 0 1-1.609.79c-1.137 0-1.947-.769-1.978-2.041h4.071a2.7 2.7 0 0 0 .063-.558c0-1.305-.936-2.314-2.377-2.314-1.642 0-2.673 1.251-2.673 2.861 0 1.546 1.105 2.861 2.894 2.861.988 0 1.777-.42 2.272-1.083m-2.514-3.882c.936 0 1.472.652 1.504 1.43h-3.177c.189-.915.799-1.43 1.673-1.43M308.097 93.41c-1.147 0-1.957-.883-1.957-2.019 0-1.126.81-2.02 1.946-2.02.663 0 1.2.316 1.526.779l.705-.537c-.495-.652-1.273-1.084-2.231-1.084-1.757 0-2.882 1.316-2.882 2.862s1.125 2.861 2.882 2.861c.968 0 1.736-.42 2.231-1.083l-.705-.537a1.83 1.83 0 0 1-1.515.779M311.543 94.042h.894v-3.671c.337-.547.81-1 1.589-1 .831 0 1.357.547 1.357 1.494v3.177h.894v-3.209c0-1.504-.884-2.303-2.073-2.303-.789 0-1.336.336-1.767.81v-3.188h-.894zM322.79 93.169l-.663-.516a1.97 1.97 0 0 1-1.609.79c-1.137 0-1.947-.769-1.978-2.041h4.071a2.7 2.7 0 0 0 .063-.558c0-1.305-.936-2.314-2.377-2.314-1.641 0-2.672 1.251-2.672 2.861 0 1.546 1.104 2.861 2.893 2.861.988 0 1.777-.42 2.272-1.083m-2.514-3.882c.936 0 1.472.652 1.504 1.43h-3.177c.189-.915.799-1.43 1.673-1.43M324.19 94.042h.894v-3.64c.326-.536.778-.894 1.473-.894.21 0 .368.02.526.063v-.873a1.5 1.5 0 0 0-.453-.063c-.673 0-1.157.305-1.546.768v-.663h-.894zM330.493 93.41c-1.146 0-1.957-.883-1.957-2.019 0-1.126.811-2.02 1.947-2.02.663 0 1.199.316 1.525.779l.705-.537c-.494-.652-1.273-1.084-2.23-1.084-1.757 0-2.883 1.316-2.883 2.862s1.126 2.861 2.883 2.861c.968 0 1.736-.42 2.23-1.083l-.705-.537a1.83 1.83 0 0 1-1.515.779M333.939 94.042h.895v-3.671c.336-.547.81-1 1.588-1 .831 0 1.357.547 1.357 1.494v3.177h.894v-3.209c0-1.504-.883-2.303-2.072-2.303-.789 0-1.336.336-1.767.81v-3.188h-.895zM345.186 93.169l-.662-.516a1.98 1.98 0 0 1-1.61.79c-1.136 0-1.946-.769-1.978-2.041h4.072a2.8 2.8 0 0 0 .063-.558c0-1.305-.937-2.314-2.378-2.314-1.641 0-2.672 1.251-2.672 2.861 0 1.546 1.105 2.861 2.893 2.861.989 0 1.778-.42 2.272-1.083m-2.514-3.882c.936 0 1.473.652 1.504 1.43h-3.177c.19-.915.8-1.43 1.673-1.43M346.586 94.042h.894v-3.64c.327-.536.779-.894 1.473-.894.211 0 .368.02.526.063v-.873a1.5 1.5 0 0 0-.452-.063c-.673 0-1.157.305-1.547.768v-.663h-.894zM357.296 91.77c0 1.041-.568 1.64-1.452 1.64-.905 0-1.462-.599-1.462-1.64v-3.03h-.895v2.998c0 1.589.916 2.514 2.346 2.514 1.442 0 2.357-.925 2.357-2.514V88.74h-.894zM359.952 94.042h.894v-3.671c.337-.558.821-1 1.589-1 .82 0 1.357.547 1.357 1.494v3.177h.894v-3.209c0-1.504-.883-2.303-2.072-2.303-.789 0-1.336.336-1.768.81v-.6h-.894zM369.322 94.042h.894v-3.671c.305-.547.757-1 1.483-1 .768 0 1.252.505 1.252 1.389v3.282h.894v-3.314c0-.126-.01-.242-.021-.357.347-.621.821-1 1.494-1 .758 0 1.252.505 1.252 1.389v3.282h.894v-3.314c0-1.441-.831-2.198-1.967-2.198-.915 0-1.473.441-1.894 1.02-.326-.673-.957-1.02-1.725-1.02-.736 0-1.262.326-1.662.788v-.578h-.894zM381.96 87.898l1.231-1.746h-1.01l-1.094 1.746zm2.02 5.27-.663-.515c-.347.474-.926.79-1.61.79-1.136 0-1.946-.769-1.978-2.041h4.072a2.8 2.8 0 0 0 .063-.558c0-1.305-.936-2.314-2.378-2.314-1.641 0-2.672 1.251-2.672 2.861 0 1.546 1.105 2.861 2.893 2.861.989 0 1.778-.42 2.273-1.083m-2.515-3.881c.937 0 1.473.652 1.505 1.43h-3.177c.189-.915.799-1.43 1.672-1.43M385.654 92.264c0 1.294.662 1.883 1.841 1.883.378 0 .662-.042.915-.147v-.8c-.2.085-.442.127-.789.127-.642 0-1.063-.232-1.063-1.063V89.55h1.841v-.81h-1.841v-1.326h-.904v1.326h-1v.81h1zM390.219 87.362c.347 0 .62-.284.62-.631a.62.62 0 0 0-.62-.621.63.63 0 0 0-.632.62c0 .348.284.632.632.632m-.453 6.68h.894V88.74h-.894zM397.263 93.169l-.662-.516a1.98 1.98 0 0 1-1.61.79c-1.136 0-1.946-.769-1.978-2.041h4.071c.032-.148.064-.348.064-.558 0-1.305-.937-2.314-2.378-2.314-1.641 0-2.672 1.251-2.672 2.861 0 1.546 1.105 2.861 2.893 2.861.989 0 1.778-.42 2.272-1.083m-2.514-3.882c.936 0 1.473.652 1.504 1.43h-3.177c.19-.915.8-1.43 1.673-1.43M398.663 94.042h.894v-3.64c.326-.536.779-.894 1.473-.894.211 0 .368.02.526.063v-.873a1.5 1.5 0 0 0-.452-.063c-.674 0-1.157.305-1.547.768v-.663h-.894zM402.291 94.158a.663.663 0 0 0 .673-.663.67.67 0 0 0-.673-.673.68.68 0 0 0-.684.673c0 .368.305.663.684.663M405.126 94.158a.663.663 0 0 0 .674-.663.67.67 0 0 0-.674-.673.68.68 0 0 0-.684.673c0 .368.306.663.684.663M407.962 94.158a.663.663 0 0 0 .673-.663.67.67 0 0 0-.673-.673.68.68 0 0 0-.684.673c0 .368.305.663.684.663"/></g></g><path stroke="#3a3a3a" stroke-width=".4" d="M282.587 103.131h317.577"/></g><path fill="#161616" d="M282.587 120.542h2.44v6.459h.989v-6.459h2.441v-.905h-5.87zM290.997 128.285l2.788-6.586h-.947l-1.757 4.156-1.778-4.156h-.989l2.294 5.292-.411.968c-.273.652-.694.852-1.231.852a1.65 1.65 0 0 1-.694-.147v.799c.232.116.495.169.852.169.894 0 1.505-.463 1.873-1.347M294.887 129.589h.895v-3.219c.473.537 1.094.842 1.883.842 1.662 0 2.725-1.315 2.725-2.862 0-1.546-1.063-2.861-2.725-2.861-.789 0-1.41.305-1.883.842v-.632h-.895zm2.673-7.258c1.125 0 1.893.894 1.893 2.019s-.768 2.02-1.893 2.02c-.726 0-1.368-.347-1.778-.989v-2.062a2.06 2.06 0 0 1 1.778-.988M306.597 126.128l-.663-.515a1.98 1.98 0 0 1-1.61.789c-1.136 0-1.946-.768-1.977-2.041h4.071c.032-.147.063-.347.063-.558 0-1.304-.936-2.314-2.377-2.314-1.642 0-2.673 1.252-2.673 2.861 0 1.547 1.105 2.862 2.893 2.862.989 0 1.778-.421 2.273-1.084m-2.514-3.882c.936 0 1.472.653 1.504 1.431h-3.177c.189-.915.799-1.431 1.673-1.431M310.38 124.35c0 1.547 1.062 2.862 2.724 2.862.789 0 1.41-.305 1.884-.842v.631h.894v-7.89h-.894v3.22c-.474-.537-1.095-.842-1.884-.842-1.662 0-2.724 1.315-2.724 2.861m.947 0c0-1.125.757-2.019 1.883-2.019.726 0 1.367.347 1.778.978v2.083a2.06 2.06 0 0 1-1.778.978c-1.126 0-1.883-.894-1.883-2.02M322.48 126.128l-.663-.515a1.98 1.98 0 0 1-1.61.789c-1.136 0-1.946-.768-1.977-2.041h4.071c.032-.147.063-.347.063-.558 0-1.304-.936-2.314-2.377-2.314-1.642 0-2.673 1.252-2.673 2.861 0 1.547 1.105 2.862 2.893 2.862.989 0 1.778-.421 2.273-1.084m-2.514-3.882c.936 0 1.472.653 1.504 1.431h-3.177c.189-.915.799-1.431 1.673-1.431M329.156 126.37c-1.147 0-1.957-.883-1.957-2.02 0-1.125.81-2.019 1.946-2.019.663 0 1.2.315 1.526.778l.705-.537c-.495-.652-1.273-1.083-2.231-1.083-1.757 0-2.882 1.315-2.882 2.861s1.125 2.862 2.882 2.862c.968 0 1.736-.421 2.231-1.084l-.705-.536a1.83 1.83 0 0 1-1.515.778M334.816 121.489c-1.715 0-2.872 1.315-2.872 2.861s1.157 2.862 2.872 2.862c1.704 0 2.872-1.315 2.872-2.862 0-1.546-1.168-2.861-2.872-2.861m.011 4.881c-1.137 0-1.947-.915-1.947-2.02s.81-2.019 1.947-2.019c1.104 0 1.914.915 1.914 2.019 0 1.094-.81 2.02-1.914 2.02M339.126 127.001h.894v-3.671c.336-.558.82-.999 1.588-.999.821 0 1.357.547 1.357 1.493v3.177h.895v-3.208c0-1.505-.884-2.304-2.073-2.304-.789 0-1.336.337-1.767.81v-.6h-.894zM345.965 125.224c0 1.294.663 1.883 1.841 1.883.378 0 .663-.042.915-.148v-.799c-.2.084-.442.126-.789.126-.642 0-1.063-.231-1.063-1.062v-2.715h1.841v-.81h-1.841v-1.325h-.904v1.325h-1v.81h1zM350.077 127.001h.895v-3.64c.326-.536.778-.894 1.472-.894.211 0 .369.021.526.063v-.873a1.5 1.5 0 0 0-.452-.063c-.673 0-1.157.305-1.546.768v-.663h-.895zM355.464 127.149c.683 0 1.378-.305 1.778-.821v.673h.894v-3.555c0-1.168-.8-1.957-2.146-1.957-.926 0-1.673.389-2.136 1.02l.673.516a1.72 1.72 0 0 1 1.431-.737c.758 0 1.284.421 1.284 1.158v.368l-1.789.294c-1.126.19-1.736.758-1.736 1.557 0 .905.705 1.484 1.747 1.484m-.842-1.515c0-.453.326-.779 1.052-.905l1.568-.263v1.042a1.86 1.86 0 0 1-1.631.904c-.621 0-.989-.326-.989-.778M360.235 125.224c0 1.294.663 1.883 1.841 1.883.379 0 .663-.042.915-.148v-.799c-.2.084-.442.126-.789.126-.642 0-1.062-.231-1.062-1.062v-2.715h1.841v-.81h-1.841v-1.325h-.905v1.325h-1v.81h1zM370.023 123.098l-1.041-1.262 1.578-.421-.242-.747-1.515.589.095-1.62h-.779l.095 1.631-1.526-.6-.242.747 1.568.421-1.021 1.262.632.453.873-1.368.894 1.368z"/><path fill="#666" d="M375.82 127.044h3.955v-.842h-2.966v-2.493h2.546v-.831h-2.546v-2.357h2.966v-.842h-3.955zM381.465 127.044h.894v-3.672c.337-.558.821-.999 1.589-.999.82 0 1.357.547 1.357 1.493v3.178h.894v-3.209c0-1.504-.883-2.304-2.072-2.304-.789 0-1.336.337-1.768.81v-.6h-.894zM390.267 126.318c.483.599 1.146.936 1.988.936.989 0 1.778-.621 1.788-1.61 0-1.809-2.661-1.43-2.661-2.619 0-.41.305-.747.873-.747.463 0 .863.252 1.147.652l.62-.526c-.368-.515-1.02-.873-1.778-.873-1.02 0-1.725.684-1.725 1.515 0 1.872 2.651 1.452 2.651 2.64 0 .463-.337.821-.926.821-.536 0-.978-.263-1.346-.726zM396.92 127.191c.683 0 1.378-.305 1.778-.821v.674h.894v-3.556c0-1.168-.8-1.957-2.146-1.957-.926 0-1.673.389-2.136 1.02l.673.516a1.72 1.72 0 0 1 1.431-.736c.757 0 1.284.42 1.284 1.157v.368l-1.789.294c-1.126.19-1.736.758-1.736 1.557 0 .905.705 1.484 1.747 1.484m-.842-1.515c0-.452.326-.779 1.052-.905l1.568-.263v1.042a1.86 1.86 0 0 1-1.631.904c-.621 0-.989-.326-.989-.778M400.535 121.741l2.072 5.303h1.178l2.073-5.303h-.968l-1.694 4.366-1.693-4.366zM409.291 121.531c-1.714 0-2.872 1.315-2.872 2.861s1.158 2.862 2.872 2.862c1.705 0 2.872-1.315 2.872-2.862 0-1.546-1.167-2.861-2.872-2.861m.011 4.881c-1.136 0-1.946-.915-1.946-2.02s.81-2.019 1.946-2.019c1.105 0 1.915.915 1.915 2.019 0 1.095-.81 2.02-1.915 2.02M414.053 120.363a.624.624 0 0 0 .621-.631.62.62 0 0 0-.621-.621.63.63 0 0 0-.631.621c0 .347.284.631.631.631m-.452 6.681h.894v-5.303h-.894zM416.385 127.044h.894v-3.64c.326-.537.779-.895 1.473-.895.211 0 .368.021.526.063v-.873a1.5 1.5 0 0 0-.452-.063c-.673 0-1.157.305-1.547.768v-.663h-.894zM423.402 129.632h.894v-3.22c.474.537 1.094.842 1.883.842 1.663 0 2.725-1.315 2.725-2.862 0-1.546-1.062-2.861-2.725-2.861-.789 0-1.409.305-1.883.842v-.632h-.894zm2.672-7.259c1.126 0 1.894.894 1.894 2.019s-.768 2.02-1.894 2.02c-.726 0-1.367-.347-1.778-.989v-2.062a2.06 2.06 0 0 1 1.778-.988M430.347 127.044h.894v-7.891h-.894zM436.824 124.771c0 1.042-.568 1.641-1.452 1.641-.905 0-1.462-.599-1.462-1.641v-3.03h-.895v2.999c0 1.588.916 2.514 2.346 2.514 1.442 0 2.357-.926 2.357-2.514v-2.999h-.894zM438.892 126.318c.483.599 1.146.936 1.988.936.989 0 1.778-.621 1.788-1.61 0-1.809-2.661-1.43-2.661-2.619 0-.41.305-.747.873-.747.463 0 .863.252 1.147.652l.62-.526c-.368-.515-1.02-.873-1.778-.873-1.02 0-1.725.684-1.725 1.515 0 1.872 2.651 1.452 2.651 2.64 0 .463-.337.821-.926.821-.536 0-.978-.263-1.346-.726z"/><path fill="#666" fill-rule="evenodd" d="M452.312 121.741v.877h-2.192v4.822h4.822v-2.192h.876v2.63a.44.44 0 0 1-.438.438h-5.698a.44.44 0 0 1-.439-.438v-5.698c0-.242.196-.439.439-.439zm4.821-1.315v3.507h-.876v-2.011l-3.416 3.417-.62-.62 3.415-3.416h-2.009v-.877z" clip-rule="evenodd"/><rect width="15.78" height="15.78" x="282.587" y="140.152" fill="#000091" rx="1"/><path fill="#f5f5fe" fill-rule="evenodd" d="m289.547 149.437 4.029-4.03.62.62-4.649 4.65-2.79-2.79.62-.62z" clip-rule="evenodd"/><path fill="#161616" d="M303.627 150.693h1.052l.852-2.167h3.388l.852 2.167h1.052l-2.935-7.364h-1.326zm2.23-3.019 1.368-3.483 1.367 3.483zM312.231 153.281h.894v-3.219c.474.536 1.095.841 1.884.841 1.662 0 2.724-1.315 2.724-2.861s-1.062-2.862-2.724-2.862c-.789 0-1.41.305-1.884.842v-.631h-.894zm2.672-7.259c1.126 0 1.894.894 1.894 2.02s-.768 2.02-1.894 2.02c-.726 0-1.367-.347-1.778-.989v-2.062a2.06 2.06 0 0 1 1.778-.989M319.176 153.281h.894v-3.219c.474.536 1.094.841 1.884.841 1.662 0 2.724-1.315 2.724-2.861s-1.062-2.862-2.724-2.862c-.79 0-1.41.305-1.884.842v-.631h-.894zm2.672-7.259c1.126 0 1.894.894 1.894 2.02s-.768 2.02-1.894 2.02c-.726 0-1.367-.347-1.778-.989v-2.062a2.06 2.06 0 0 1 1.778-.989M326.121 150.693h.894v-3.64c.326-.537.779-.894 1.473-.894.211 0 .368.021.526.063v-.873a1.5 1.5 0 0 0-.452-.063c-.673 0-1.157.305-1.547.768v-.663h-.894zM334.697 149.82l-.663-.516c-.347.474-.925.789-1.609.789-1.136 0-1.947-.768-1.978-2.041h4.071c.032-.147.063-.347.063-.557 0-1.305-.936-2.315-2.377-2.315-1.641 0-2.672 1.252-2.672 2.862 0 1.546 1.104 2.861 2.893 2.861.989 0 1.778-.42 2.272-1.083m-2.514-3.882c.936 0 1.473.652 1.504 1.431h-3.177c.189-.916.8-1.431 1.673-1.431M336.097 150.693h.894v-3.672c.337-.557.821-.999 1.589-.999.82 0 1.357.547 1.357 1.494v3.177h.894v-3.209c0-1.504-.884-2.304-2.073-2.304-.789 0-1.336.337-1.767.81v-.599h-.894zM342.936 148.915c0 1.294.663 1.883 1.841 1.883.379 0 .663-.042.915-.147v-.8c-.2.085-.442.127-.789.127-.642 0-1.062-.232-1.062-1.063v-2.714h1.841v-.81h-1.841v-1.326h-.905v1.326h-1v.81h1zM347.501 144.013a.625.625 0 0 0 .621-.632.62.62 0 0 0-.621-.62.63.63 0 0 0-.631.62c0 .348.284.632.631.632m-.453 6.68h.895v-5.302h-.895zM349.223 149.967c.484.6 1.147.936 1.989.936.989 0 1.778-.62 1.788-1.609 0-1.81-2.661-1.431-2.661-2.62 0-.41.305-.747.873-.747.463 0 .862.253 1.146.653l.621-.526c-.368-.516-1.02-.874-1.778-.874-1.02 0-1.725.684-1.725 1.515 0 1.873 2.651 1.452 2.651 2.641 0 .463-.337.82-.926.82-.536 0-.978-.263-1.346-.725zM353.847 149.967c.483.6 1.146.936 1.988.936.989 0 1.778-.62 1.788-1.609 0-1.81-2.661-1.431-2.661-2.62 0-.41.305-.747.873-.747.463 0 .863.253 1.147.653l.62-.526c-.368-.516-1.02-.874-1.778-.874-1.02 0-1.725.684-1.725 1.515 0 1.873 2.651 1.452 2.651 2.641 0 .463-.337.82-.926.82-.536 0-.978-.263-1.346-.725zM360.5 150.84c.683 0 1.378-.305 1.777-.82v.673h.895v-3.556c0-1.168-.8-1.957-2.146-1.957-.926 0-1.673.39-2.136 1.021l.673.515a1.72 1.72 0 0 1 1.431-.736c.757 0 1.283.421 1.283 1.157v.368l-1.788.295c-1.126.189-1.736.757-1.736 1.557 0 .905.705 1.483 1.747 1.483m-.842-1.515c0-.452.326-.778 1.052-.904l1.567-.263v1.041a1.85 1.85 0 0 1-1.63.905c-.621 0-.989-.326-.989-.779M364.355 151.65c0 1.063 1.031 1.673 2.599 1.673 1.589 0 2.704-.831 2.704-1.946 0-.947-.653-1.631-2.052-1.631h-1.515c-.326 0-.442-.158-.442-.379 0-.199.127-.389.348-.547.221.063.473.106.736.106 1.273 0 2.062-.863 2.062-1.873a1.8 1.8 0 0 0-.221-.884h1.147v-.778h-1.968a2.35 2.35 0 0 0-1.02-.221c-1.262 0-2.062.863-2.062 1.883 0 .589.274 1.126.736 1.473-.41.263-.631.61-.631 1.031 0 .284.127.568.368.757-.526.368-.789.8-.789 1.336m2.389-3.429c-.789 0-1.221-.516-1.221-1.168s.432-1.178 1.221-1.178c.768 0 1.209.526 1.209 1.178 0 .642-.441 1.168-1.209 1.168m-1.515 3.324c0-.421.221-.736.589-1.01h1.715c.946 0 1.23.4 1.23.905 0 .694-.704 1.136-1.82 1.136-1.052 0-1.714-.389-1.714-1.031M375.288 149.82l-.663-.516c-.347.474-.925.789-1.609.789-1.136 0-1.947-.768-1.978-2.041h4.071c.032-.147.063-.347.063-.557 0-1.305-.936-2.315-2.377-2.315-1.641 0-2.672 1.252-2.672 2.862 0 1.546 1.104 2.861 2.893 2.861.989 0 1.778-.42 2.272-1.083m-2.514-3.882c.936 0 1.473.652 1.504 1.431h-3.177c.189-.916.8-1.431 1.673-1.431"/><rect width="15.38" height="15.38" x="392.591" y="140.352" stroke="#161616" stroke-width=".4" rx=".8"/><path fill="#161616" d="M413.431 151.903h.989v-3.23h1.168c1.473 0 2.388-.799 2.388-2.062s-.915-2.072-2.388-2.072h-2.157zm2.178-6.523c.842 0 1.347.463 1.347 1.21 0 .789-.505 1.242-1.347 1.242h-1.189v-2.452zM419.19 151.903h.894v-3.64c.326-.537.778-.894 1.473-.894.21 0 .368.021.526.063v-.873a1.5 1.5 0 0 0-.453-.063c-.673 0-1.157.305-1.546.768v-.663h-.894zM425.472 146.39c-1.715 0-2.872 1.315-2.872 2.862 0 1.546 1.157 2.861 2.872 2.861 1.704 0 2.872-1.315 2.872-2.861s-1.168-2.862-2.872-2.862m.011 4.882c-1.136 0-1.946-.916-1.946-2.02s.81-2.02 1.946-2.02c1.104 0 1.914.915 1.914 2.02 0 1.094-.81 2.02-1.914 2.02M429.005 146.601v.81h1v4.492h.904v-4.492h1.841v-.81h-1.841v-.674c0-.694.4-1.104 1-1.104.305 0 .547.095.747.242l.4-.747a2.33 2.33 0 0 0-1.168-.305c-1.157 0-1.883.81-1.883 1.935v.653zM438.255 151.03l-.663-.516c-.347.474-.926.789-1.609.789-1.137 0-1.947-.768-1.978-2.041h4.071c.032-.147.063-.347.063-.557 0-1.305-.936-2.315-2.377-2.315-1.641 0-2.672 1.252-2.672 2.862 0 1.546 1.104 2.861 2.893 2.861.989 0 1.778-.42 2.272-1.083m-2.514-3.882c.936 0 1.472.652 1.504 1.431h-3.177c.189-.916.799-1.431 1.673-1.431M439.046 151.177c.483.6 1.146.936 1.988.936.989 0 1.778-.62 1.788-1.609 0-1.81-2.661-1.431-2.661-2.62 0-.41.305-.747.873-.747.463 0 .863.253 1.147.653l.62-.526c-.368-.516-1.02-.874-1.778-.874-1.02 0-1.725.684-1.725 1.515 0 1.873 2.651 1.452 2.651 2.641 0 .463-.337.82-.926.82-.536 0-.978-.263-1.346-.726zM443.669 151.177c.484.6 1.146.936 1.988.936.989 0 1.778-.62 1.788-1.609 0-1.81-2.661-1.431-2.661-2.62 0-.41.305-.747.873-.747.463 0 .863.253 1.147.653l.62-.526c-.368-.516-1.02-.874-1.778-.874-1.02 0-1.725.684-1.725 1.515 0 1.873 2.651 1.452 2.651 2.641 0 .463-.336.82-.926.82-.536 0-.978-.263-1.346-.726zM449.353 145.223a.624.624 0 0 0 .621-.632.62.62 0 0 0-.621-.62.63.63 0 0 0-.631.62c0 .348.284.632.631.632m-.452 6.68h.894v-5.302h-.894zM454.105 146.39c-1.715 0-2.872 1.315-2.872 2.862 0 1.546 1.157 2.861 2.872 2.861 1.704 0 2.872-1.315 2.872-2.861s-1.168-2.862-2.872-2.862m.01 4.882c-1.136 0-1.946-.916-1.946-2.02s.81-2.02 1.946-2.02c1.105 0 1.915.915 1.915 2.02 0 1.094-.81 2.02-1.915 2.02M458.414 151.903h.895v-3.672c.336-.557.82-.999 1.588-.999.821 0 1.357.547 1.357 1.494v3.177h.894v-3.209c0-1.504-.883-2.304-2.072-2.304-.789 0-1.336.337-1.767.81v-.599h-.895zM464.948 151.903h.895v-3.672c.336-.557.82-.999 1.588-.999.821 0 1.357.547 1.357 1.494v3.177h.894v-3.209c0-1.504-.883-2.304-2.072-2.304-.789 0-1.336.337-1.767.81v-.599h-.895zM472.924 152.05c.683 0 1.378-.305 1.778-.82v.673h.894v-3.556c0-1.168-.8-1.957-2.146-1.957-.926 0-1.673.39-2.136 1.021l.673.515a1.72 1.72 0 0 1 1.431-.736c.758 0 1.284.421 1.284 1.157v.368l-1.789.295c-1.126.189-1.736.757-1.736 1.557 0 .905.705 1.483 1.747 1.483m-.842-1.515c0-.452.326-.778 1.052-.904l1.568-.263v1.041a1.86 1.86 0 0 1-1.631.905c-.621 0-.989-.326-.989-.779M477.39 151.903h.894v-7.89h-.894zM480.626 145.223a.625.625 0 0 0 .621-.632.62.62 0 0 0-.621-.62.63.63 0 0 0-.631.62c0 .348.284.632.631.632m-.452 6.68h.894v-5.302h-.894zM482.349 151.177c.484.6 1.147.936 1.988.936.989 0 1.778-.62 1.789-1.609 0-1.81-2.662-1.431-2.662-2.62 0-.41.305-.747.873-.747.463 0 .863.253 1.147.653l.621-.526c-.369-.516-1.021-.874-1.778-.874-1.021 0-1.726.684-1.726 1.515 0 1.873 2.651 1.452 2.651 2.641 0 .463-.336.82-.925.82-.537 0-.979-.263-1.347-.726zM489.002 152.05c.684 0 1.378-.305 1.778-.82v.673h.894v-3.556c0-1.168-.8-1.957-2.146-1.957-.926 0-1.673.39-2.136 1.021l.674.515a1.72 1.72 0 0 1 1.43-.736c.758 0 1.284.421 1.284 1.157v.368l-1.789.295c-1.125.189-1.736.757-1.736 1.557 0 .905.705 1.483 1.747 1.483m-.842-1.515c0-.452.326-.778 1.052-.904l1.568-.263v1.041a1.86 1.86 0 0 1-1.631.905c-.621 0-.989-.326-.989-.779M493.773 150.125c0 1.294.663 1.883 1.841 1.883.379 0 .663-.042.915-.147v-.8c-.2.084-.442.127-.789.127-.641 0-1.062-.232-1.062-1.063v-2.714h1.841v-.81h-1.841v-1.326h-.905v1.326h-.999v.81h.999zM498.338 145.223a.625.625 0 0 0 .621-.632.62.62 0 0 0-.621-.62.63.63 0 0 0-.631.62c0 .348.284.632.631.632m-.452 6.68h.894v-5.302h-.894zM503.089 146.39c-1.714 0-2.872 1.315-2.872 2.862 0 1.546 1.158 2.861 2.872 2.861 1.705 0 2.872-1.315 2.872-2.861s-1.167-2.862-2.872-2.862m.011 4.882c-1.136 0-1.946-.916-1.946-2.02s.81-2.02 1.946-2.02c1.104 0 1.915.915 1.915 2.02 0 1.094-.811 2.02-1.915 2.02M507.399 151.903h.894v-3.672c.337-.557.821-.999 1.589-.999.82 0 1.357.547 1.357 1.494v3.177h.894v-3.209c0-1.504-.884-2.304-2.072-2.304-.79 0-1.337.337-1.768.81v-.599h-.894zM282.587 180.96h.989v-6.155l4.166 6.155h1.294v-7.365h-.989v6.155l-4.166-6.155h-1.294zM291.602 174.279a.624.624 0 0 0 .621-.631.62.62 0 0 0-.621-.621.63.63 0 0 0-.631.621c0 .347.284.631.631.631m-.452 6.681h.894v-5.303h-.894zM293.134 175.657l2.073 5.303h1.178l2.073-5.303h-.968l-1.694 4.366-1.694-4.366zM304.184 180.086l-.662-.515a1.98 1.98 0 0 1-1.61.789c-1.136 0-1.946-.768-1.978-2.041h4.071a2.7 2.7 0 0 0 .064-.558c0-1.304-.937-2.314-2.378-2.314-1.641 0-2.672 1.252-2.672 2.861 0 1.547 1.105 2.862 2.893 2.862.989 0 1.778-.421 2.272-1.084m-2.514-3.882c.936 0 1.473.653 1.504 1.431h-3.177c.19-.915.8-1.431 1.673-1.431M306.984 181.107c.684 0 1.378-.305 1.778-.821v.674h.894v-3.556c0-1.168-.799-1.957-2.146-1.957-.925 0-1.672.389-2.135 1.02l.673.516a1.72 1.72 0 0 1 1.431-.736c.757 0 1.283.42 1.283 1.157v.368l-1.788.295c-1.126.189-1.736.757-1.736 1.556 0 .905.705 1.484 1.746 1.484m-.841-1.515c0-.452.326-.779 1.052-.905l1.567-.263v1.042a1.85 1.85 0 0 1-1.63.904c-.621 0-.989-.326-.989-.778M315.143 178.687c0 1.042-.568 1.641-1.452 1.641-.905 0-1.462-.599-1.462-1.641v-3.03h-.894v2.999c0 1.588.915 2.514 2.346 2.514 1.441 0 2.356-.926 2.356-2.514v-2.999h-.894zM319.835 175.657l2.073 5.303h1.178l2.073-5.303h-.968l-1.694 4.366-1.694-4.366zM326.707 174.279a.624.624 0 0 0 .621-.631.62.62 0 0 0-.621-.621.63.63 0 0 0-.631.621c0 .347.284.631.631.631m-.452 6.681h.894v-5.303h-.894zM328.43 180.234c.483.599 1.146.936 1.988.936.989 0 1.778-.621 1.788-1.61 0-1.809-2.661-1.43-2.661-2.619 0-.41.305-.747.873-.747.463 0 .863.252 1.147.652l.62-.526c-.368-.515-1.02-.873-1.778-.873-1.02 0-1.725.684-1.725 1.515 0 1.872 2.651 1.452 2.651 2.64 0 .463-.337.821-.926.821-.536 0-.978-.263-1.346-.726zM336.293 174.816l1.231-1.747h-1.01l-1.094 1.747zm2.02 5.27-.663-.515a1.97 1.97 0 0 1-1.609.789c-1.136 0-1.946-.768-1.978-2.041h4.071a2.7 2.7 0 0 0 .064-.558c0-1.304-.937-2.314-2.378-2.314-1.641 0-2.672 1.252-2.672 2.861 0 1.547 1.104 2.862 2.893 2.862.989 0 1.778-.421 2.272-1.084m-2.514-3.882c.936 0 1.473.653 1.504 1.431h-3.177c.19-.915.8-1.431 1.673-1.431M347.262 180.086l-.663-.515a1.98 1.98 0 0 1-1.61.789c-1.136 0-1.946-.768-1.978-2.041h4.072c.031-.147.063-.347.063-.558 0-1.304-.936-2.314-2.378-2.314-1.641 0-2.672 1.252-2.672 2.861 0 1.547 1.105 2.862 2.893 2.862.989 0 1.778-.421 2.273-1.084m-2.515-3.882c.937 0 1.473.653 1.505 1.431h-3.177c.189-.915.799-1.431 1.672-1.431M348.661 180.96h.895v-3.672c.336-.558.82-.999 1.588-.999.821 0 1.357.547 1.357 1.493v3.178h.894v-3.209c0-1.504-.883-2.304-2.072-2.304-.789 0-1.336.337-1.767.81v-.6h-.895zM357.337 175.657v.81h.999v4.493h.905v-4.493h1.841v-.81h-1.841v-.673c0-.694.399-1.105.999-1.105.305 0 .547.095.747.242l.4-.746a2.3 2.3 0 0 0-1.168-.306c-1.157 0-1.883.81-1.883 1.936v.652zM362.623 174.279a.624.624 0 0 0 .621-.631.62.62 0 0 0-.621-.621.63.63 0 0 0-.631.621c0 .347.284.631.631.631m-.452 6.681h.894v-5.303h-.894zM364.955 180.96h.894v-3.672c.337-.558.821-.999 1.589-.999.821 0 1.357.547 1.357 1.493v3.178h.894v-3.209c0-1.504-.883-2.304-2.072-2.304-.789 0-1.336.337-1.768.81v-.6h-.894zM373.872 178.308c0 1.547 1.063 2.862 2.725 2.862.789 0 1.41-.305 1.883-.842v.632h.894v-7.891h-.894v3.22c-.473-.537-1.094-.842-1.883-.842-1.662 0-2.725 1.315-2.725 2.861m.947 0c0-1.125.758-2.019 1.883-2.019.726 0 1.368.347 1.778.978v2.083a2.06 2.06 0 0 1-1.778.978c-1.125 0-1.883-.894-1.883-2.02M381.648 176.415l1.083-2.82h-1.02l-.894 2.82zM386.161 174.816l1.231-1.747h-1.01l-1.094 1.747zm2.02 5.27-.662-.515a1.98 1.98 0 0 1-1.61.789c-1.136 0-1.946-.768-1.978-2.041h4.072c.031-.147.063-.347.063-.558 0-1.304-.937-2.314-2.378-2.314-1.641 0-2.672 1.252-2.672 2.861 0 1.547 1.105 2.862 2.893 2.862.989 0 1.778-.421 2.272-1.084m-2.514-3.882c.936 0 1.473.653 1.504 1.431h-3.177c.19-.915.8-1.431 1.673-1.431M389.855 179.182c0 1.294.663 1.883 1.841 1.883.379 0 .663-.042.916-.148v-.799c-.2.084-.442.126-.789.126-.642 0-1.063-.231-1.063-1.062v-2.715h1.841v-.81h-1.841v-1.325h-.905v1.325h-.999v.81h.999zM397.63 178.687c0 1.042-.568 1.641-1.452 1.641-.905 0-1.462-.599-1.462-1.641v-3.03h-.895v2.999c0 1.588.916 2.514 2.346 2.514 1.442 0 2.357-.926 2.357-2.514v-2.999h-.894zM399.834 178.308c0 1.547 1.062 2.862 2.725 2.862.789 0 1.409-.305 1.883-.842v.632h.894v-7.891h-.894v3.22c-.474-.537-1.094-.842-1.883-.842-1.663 0-2.725 1.315-2.725 2.861m.947 0c0-1.125.757-2.019 1.883-2.019.726 0 1.367.347 1.778.978v2.083a2.06 2.06 0 0 1-1.778.978c-1.126 0-1.883-.894-1.883-2.02M411.934 180.086l-.663-.515a1.97 1.97 0 0 1-1.609.789c-1.137 0-1.947-.768-1.978-2.041h4.071c.032-.147.063-.347.063-.558 0-1.304-.936-2.314-2.377-2.314-1.642 0-2.672 1.252-2.672 2.861 0 1.547 1.104 2.862 2.893 2.862.988 0 1.777-.421 2.272-1.084m-2.514-3.882c.936 0 1.472.653 1.504 1.431h-3.177c.189-.915.799-1.431 1.673-1.431M412.725 180.234c.483.599 1.146.936 1.988.936.989 0 1.778-.621 1.788-1.61 0-1.809-2.661-1.43-2.661-2.619 0-.41.305-.747.873-.747.463 0 .862.252 1.147.652l.62-.526c-.368-.515-1.02-.873-1.778-.873-1.02 0-1.725.684-1.725 1.515 0 1.872 2.651 1.452 2.651 2.64 0 .463-.337.821-.926.821-.536 0-.978-.263-1.346-.726zM423.633 177.057l-1.042-1.263 1.578-.421-.242-.747-1.515.59.095-1.621h-.778l.094 1.631-1.525-.6-.242.747 1.567.421-1.02 1.263.631.452.873-1.368.895 1.368z"/><g clip-path="url(#f)"><g clip-path="url(#g)"><path fill="#eee" d="M282.587 188.745a1 1 0 0 1 1-1h315.577a1 1 0 0 1 1 1v25.301H282.587z"/><g clip-path="url(#h)"><path fill="#161616" d="M296.978 204.041c-1.662 0-2.851-1.325-2.851-2.967 0-1.641 1.189-2.966 2.851-2.966.989 0 1.799.484 2.294 1.199l.789-.61c-.674-.905-1.757-1.515-3.083-1.515-2.304 0-3.871 1.788-3.871 3.892s1.567 3.893 3.871 3.893c1.326 0 2.409-.6 3.083-1.515l-.789-.61a2.75 2.75 0 0 1-2.294 1.199M301.479 204.756h.894v-3.671c.337-.547.811-1 1.589-1 .831 0 1.357.548 1.357 1.494v3.177h.894v-3.208c0-1.505-.883-2.304-2.072-2.304-.789 0-1.336.337-1.768.81v-3.188h-.894zM310.433 199.244c-1.715 0-2.872 1.315-2.872 2.861s1.157 2.862 2.872 2.862c1.704 0 2.872-1.315 2.872-2.862 0-1.546-1.168-2.861-2.872-2.861m.01 4.881c-1.136 0-1.946-.915-1.946-2.02s.81-2.02 1.946-2.02c1.105 0 1.915.916 1.915 2.02 0 1.094-.81 2.02-1.915 2.02M315.195 198.076a.624.624 0 0 0 .621-.631.62.62 0 0 0-.621-.621.63.63 0 0 0-.631.621c0 .347.284.631.631.631m-.453 6.68h.895v-5.302h-.895zM316.917 204.031c.484.599 1.147.936 1.989.936.989 0 1.778-.621 1.788-1.61 0-1.809-2.661-1.43-2.661-2.619 0-.411.305-.747.873-.747.463 0 .862.252 1.146.652l.621-.526c-.368-.515-1.02-.873-1.778-.873-1.02 0-1.725.684-1.725 1.515 0 1.872 2.651 1.452 2.651 2.64 0 .463-.337.821-.926.821-.536 0-.978-.263-1.346-.726zM322.602 198.076a.624.624 0 0 0 .621-.631.62.62 0 0 0-.621-.621.63.63 0 0 0-.631.621c0 .347.284.631.631.631m-.452 6.68h.894v-5.302h-.894zM324.325 204.031c.484.599 1.146.936 1.988.936.989 0 1.778-.621 1.788-1.61 0-1.809-2.661-1.43-2.661-2.619 0-.411.305-.747.873-.747.463 0 .863.252 1.147.652l.62-.526c-.368-.515-1.02-.873-1.777-.873-1.021 0-1.726.684-1.726 1.515 0 1.872 2.651 1.452 2.651 2.64 0 .463-.336.821-.925.821-.537 0-.979-.263-1.347-.726zM328.948 204.031c.484.599 1.147.936 1.988.936.989 0 1.778-.621 1.789-1.61 0-1.809-2.662-1.43-2.662-2.619 0-.411.305-.747.873-.747.463 0 .863.252 1.147.652l.621-.526c-.369-.515-1.021-.873-1.778-.873-1.021 0-1.726.684-1.726 1.515 0 1.872 2.651 1.452 2.651 2.64 0 .463-.336.821-.925.821-.537 0-.979-.263-1.347-.726zM338.832 203.883l-.663-.515a1.98 1.98 0 0 1-1.61.789c-1.136 0-1.946-.768-1.978-2.041h4.072c.031-.147.063-.347.063-.558 0-1.304-.936-2.314-2.378-2.314-1.641 0-2.672 1.252-2.672 2.861 0 1.547 1.105 2.862 2.893 2.862.989 0 1.778-.421 2.273-1.084m-2.515-3.882c.937 0 1.473.653 1.505 1.431h-3.177c.189-.915.799-1.431 1.672-1.431M339.759 204.756h4.292v-.81h-3.209l3.135-3.682v-.81h-4.144v.81h3.05l-3.124 3.682zM352.03 202.484c0 1.042-.568 1.641-1.452 1.641-.905 0-1.462-.599-1.462-1.641v-3.03h-.895v2.999c0 1.588.916 2.514 2.346 2.514 1.442 0 2.357-.926 2.357-2.514v-2.999h-.894zM354.686 204.756h.895v-3.671c.336-.558.82-1 1.588-1 .821 0 1.357.548 1.357 1.494v3.177h.894v-3.208c0-1.505-.883-2.304-2.072-2.304-.789 0-1.336.337-1.767.81v-.6h-.895zM364.056 204.756h.894v-3.671c.337-.558.821-1 1.589-1 .82 0 1.357.548 1.357 1.494v3.177h.894v-3.208c0-1.505-.884-2.304-2.073-2.304-.789 0-1.336.337-1.767.81v-.6h-.894zM371.042 198.076a.624.624 0 0 0 .621-.631.62.62 0 0 0-.621-.621.63.63 0 0 0-.631.621c0 .347.284.631.631.631m-.452 6.68h.894v-5.302h-.894zM372.574 199.454l2.073 5.302h1.178l2.073-5.302h-.968l-1.694 4.366-1.694-4.366zM383.624 203.883l-.662-.515a1.98 1.98 0 0 1-1.61.789c-1.136 0-1.946-.768-1.978-2.041h4.072c.031-.147.063-.347.063-.558 0-1.304-.937-2.314-2.378-2.314-1.641 0-2.672 1.252-2.672 2.861 0 1.547 1.105 2.862 2.893 2.862.989 0 1.778-.421 2.272-1.084m-2.514-3.882c.936 0 1.473.653 1.505 1.431h-3.178c.19-.915.8-1.431 1.673-1.431M386.424 204.904c.684 0 1.379-.305 1.778-.821v.673h.895v-3.555c0-1.168-.8-1.957-2.147-1.957-.925 0-1.672.389-2.135 1.02l.673.516a1.72 1.72 0 0 1 1.431-.737c.757 0 1.283.421 1.283 1.158v.368l-1.788.294c-1.126.19-1.736.758-1.736 1.557 0 .905.705 1.484 1.746 1.484m-.841-1.515c0-.453.326-.779 1.052-.905l1.567-.263v1.042a1.85 1.85 0 0 1-1.63.904c-.621 0-.989-.326-.989-.778M394.583 202.484c0 1.042-.568 1.641-1.452 1.641-.904 0-1.462-.599-1.462-1.641v-3.03h-.894v2.999c0 1.588.915 2.514 2.346 2.514 1.441 0 2.356-.926 2.356-2.514v-2.999h-.894z"/><path fill="#000091" fill-rule="evenodd" d="m585.042 201.409 2.169-2.17.62.62-2.789 2.79-2.79-2.79.62-.62z" clip-rule="evenodd"/></g></g><path stroke="#3a3a3a" stroke-width=".4" d="M282.587 213.845h317.577"/></g><path fill="#161616" d="M282.587 239.031h2.83c2.304 0 3.871-1.694 3.871-3.682 0-1.989-1.567-3.682-3.871-3.682h-2.83zm2.851-6.46c1.641 0 2.83 1.231 2.83 2.778 0 1.536-1.189 2.777-2.83 2.777h-1.862v-5.555zM292.098 239.178c.684 0 1.378-.305 1.778-.821v.674h.894v-3.556c0-1.168-.8-1.957-2.146-1.957-.926 0-1.673.389-2.136 1.021l.674.515a1.72 1.72 0 0 1 1.43-.736c.758 0 1.284.421 1.284 1.157v.368l-1.789.295c-1.125.189-1.736.757-1.736 1.557 0 .904.705 1.483 1.747 1.483m-.842-1.515c0-.452.326-.778 1.052-.905l1.568-.263v1.042a1.86 1.86 0 0 1-1.631.905c-.621 0-.989-.326-.989-.779M296.869 237.253c0 1.294.663 1.883 1.841 1.883.379 0 .663-.042.915-.147v-.8c-.2.084-.442.126-.789.126-.642 0-1.062-.231-1.062-1.062v-2.714h1.841v-.81h-1.841v-1.326h-.905v1.326h-.999v.81h.999zM305.592 238.158l-.663-.516c-.347.474-.926.789-1.61.789-1.136 0-1.946-.768-1.977-2.041h4.071c.032-.147.063-.347.063-.557 0-1.305-.936-2.315-2.377-2.315-1.642 0-2.673 1.252-2.673 2.862 0 1.546 1.105 2.861 2.893 2.861.989 0 1.778-.421 2.273-1.083m-2.514-3.882c.936 0 1.472.652 1.504 1.43h-3.177c.189-.915.799-1.43 1.673-1.43M309.375 236.38c0 1.546 1.062 2.861 2.724 2.861.789 0 1.41-.305 1.884-.841v.631h.894v-7.89h-.894v3.219c-.474-.537-1.095-.842-1.884-.842-1.662 0-2.724 1.315-2.724 2.862m.947 0c0-1.126.757-2.02 1.883-2.02.726 0 1.367.347 1.778.978v2.083a2.07 2.07 0 0 1-1.778.979c-1.126 0-1.883-.895-1.883-2.02M321.475 238.158l-.663-.516c-.347.474-.926.789-1.61.789-1.136 0-1.946-.768-1.977-2.041h4.071c.032-.147.063-.347.063-.557 0-1.305-.936-2.315-2.377-2.315-1.642 0-2.673 1.252-2.673 2.862 0 1.546 1.105 2.861 2.893 2.861.989 0 1.778-.421 2.273-1.083m-2.514-3.882c.936 0 1.472.652 1.504 1.43h-3.177c.189-.915.799-1.43 1.673-1.43M325.258 236.38c0 1.546 1.062 2.861 2.724 2.861.789 0 1.41-.305 1.884-.841v.631h.894v-7.89h-.894v3.219c-.474-.537-1.095-.842-1.884-.842-1.662 0-2.724 1.315-2.724 2.862m.947 0c0-1.126.757-2.02 1.883-2.02.726 0 1.367.347 1.778.978v2.083a2.07 2.07 0 0 1-1.778.979c-1.126 0-1.883-.895-1.883-2.02M335.338 232.887l1.231-1.746h-1.01l-1.094 1.746zm2.02 5.271-.663-.516c-.347.474-.926.789-1.61.789-1.136 0-1.946-.768-1.977-2.041h4.071c.032-.147.063-.347.063-.557 0-1.305-.936-2.315-2.377-2.315-1.642 0-2.673 1.252-2.673 2.862 0 1.546 1.105 2.861 2.893 2.861.989 0 1.778-.421 2.273-1.083m-2.515-3.882c.937 0 1.473.652 1.505 1.43h-3.177c.189-.915.799-1.43 1.672-1.43M344.26 236.38c0-1.547-1.063-2.862-2.725-2.862-.789 0-1.41.305-1.883.842v-3.219h-.894v7.89h.894v-.631c.473.536 1.094.841 1.883.841 1.662 0 2.725-1.315 2.725-2.861m-2.83-2.02c1.125 0 1.893.894 1.893 2.02s-.768 2.02-1.893 2.02c-.726 0-1.368-.348-1.778-.979v-2.083a2.06 2.06 0 0 1 1.778-.978M349.405 236.758c0 1.042-.568 1.642-1.451 1.642-.905 0-1.463-.6-1.463-1.642v-3.029h-.894v2.998c0 1.588.915 2.514 2.346 2.514 1.441 0 2.357-.926 2.357-2.514v-2.998h-.895zM352.408 237.253c0 1.294.663 1.883 1.841 1.883.379 0 .663-.042.915-.147v-.8c-.2.084-.441.126-.789.126-.641 0-1.062-.231-1.062-1.062v-2.714h1.841v-.81h-1.841v-1.326h-.905v1.326h-.999v.81h.999zM362.197 235.128l-1.042-1.263 1.578-.42-.242-.747-1.515.589.095-1.62h-.779l.095 1.63-1.525-.599-.242.747 1.567.42-1.02 1.263.631.452.873-1.367.894 1.367z"/><g clip-path="url(#i)"><g clip-path="url(#j)"><path fill="#eee" d="M282.587 246.816a1 1 0 0 1 1-1h315.577a1 1 0 0 1 1 1v25.301H282.587z"/><g clip-path="url(#k)"><path fill="#161616" d="M295.4 255.616a.63.63 0 0 0 .621-.631.63.63 0 0 0-.621-.621.63.63 0 0 0-.631.621c0 .347.284.631.631.631m.453 7.375v-5.997h-.895v5.997c0 .873-.431 1.115-1.062 1.115-.347 0-.6-.042-.789-.126v.799c.242.105.526.148.905.148 1.188 0 1.841-.59 1.841-1.936M298.318 255.616a.63.63 0 0 0 .621-.631.63.63 0 0 0-.621-.621.63.63 0 0 0-.631.621c0 .347.284.631.631.631m.452 7.375v-5.997h-.894v5.997c0 .873-.431 1.115-1.062 1.115-.348 0-.6-.042-.789-.126v.799c.242.105.526.148.904.148 1.189 0 1.841-.59 1.841-1.936M299.861 264.369h.905l2.545-9.963h-.904zM304.174 262.296h.894v-3.671c.305-.547.758-.999 1.483-.999.768 0 1.252.504 1.252 1.388v3.282h.895v-3.313c0-.127-.011-.242-.021-.358.347-.621.82-.999 1.493-.999.758 0 1.252.504 1.252 1.388v3.282h.895v-3.313c0-1.442-.832-2.199-1.968-2.199-.915 0-1.473.442-1.893 1.02-.327-.673-.958-1.02-1.726-1.02-.736 0-1.262.326-1.662.789v-.579h-.894zM314.119 262.296h.894v-3.671c.305-.547.757-.999 1.483-.999.768 0 1.252.504 1.252 1.388v3.282h.894v-3.313c0-.127-.01-.242-.021-.358.348-.621.821-.999 1.494-.999.758 0 1.252.504 1.252 1.388v3.282h.894v-3.313c0-1.442-.831-2.199-1.967-2.199-.915 0-1.473.442-1.894 1.02-.326-.673-.957-1.02-1.725-1.02-.736 0-1.262.326-1.662.789v-.579h-.894zM323.264 264.369h.905l2.546-9.963h-.905zM329.06 262.444c.683 0 1.378-.305 1.777-.821v.673h.895v-3.555c0-1.168-.8-1.957-2.146-1.957-.926 0-1.673.389-2.136 1.02l.673.516a1.72 1.72 0 0 1 1.431-.737c.757 0 1.283.421 1.283 1.158v.368l-1.788.294c-1.126.19-1.736.758-1.736 1.557 0 .905.705 1.484 1.747 1.484m-.842-1.515c0-.453.326-.779 1.052-.905l1.567-.263v1.042a1.85 1.85 0 0 1-1.63.904c-.621 0-.989-.326-.989-.778M334.967 262.444c.684 0 1.378-.305 1.778-.821v.673h.894v-3.555c0-1.168-.8-1.957-2.146-1.957-.926 0-1.673.389-2.136 1.02l.674.516c.326-.453.82-.737 1.43-.737.758 0 1.284.421 1.284 1.158v.368l-1.789.294c-1.125.19-1.735.758-1.735 1.557 0 .905.704 1.484 1.746 1.484m-.842-1.515c0-.453.326-.779 1.052-.905l1.568-.263v1.042a1.85 1.85 0 0 1-1.631.904c-.621 0-.989-.326-.989-.778M340.874 262.444c.684 0 1.378-.305 1.778-.821v.673h.894v-3.555c0-1.168-.799-1.957-2.146-1.957-.926 0-1.673.389-2.135 1.02l.673.516c.326-.453.82-.737 1.431-.737.757 0 1.283.421 1.283 1.158v.368l-1.788.294c-1.126.19-1.736.758-1.736 1.557 0 .905.705 1.484 1.746 1.484m-.841-1.515c0-.453.326-.779 1.052-.905l1.567-.263v1.042a1.85 1.85 0 0 1-1.631.904c-.62 0-.988-.326-.988-.778M346.782 262.444c.683 0 1.378-.305 1.777-.821v.673h.895v-3.555c0-1.168-.8-1.957-2.146-1.957-.926 0-1.673.389-2.136 1.02l.673.516a1.72 1.72 0 0 1 1.431-.737c.757 0 1.283.421 1.283 1.158v.368l-1.788.294c-1.126.19-1.736.758-1.736 1.557 0 .905.705 1.484 1.747 1.484m-.842-1.515c0-.453.326-.779 1.052-.905l1.567-.263v1.042a1.85 1.85 0 0 1-1.63.904c-.621 0-.989-.326-.989-.778"/><g clip-path="url(#l)"><path fill="#03053d" d="M580 259.207h8.767v3.945a.44.44 0 0 1-.438.439h-7.89a.44.44 0 0 1-.439-.439zm6.576-3.507h1.753a.44.44 0 0 1 .438.439v2.191H580v-2.191a.44.44 0 0 1 .439-.439h1.753v-.876h.877v.876h2.63v-.876h.877z"/></g></g></g><path stroke="#3a3a3a" stroke-width=".4" d="M282.587 271.917h317.577"/></g><path fill="#000091" d="M282.587 287.897h107.212v27.616H282.587z"/><path fill="#fff" fill-rule="evenodd" d="m305.456 301.266-2.351-2.351.619-.62 3.41 3.41-3.41 3.409-.619-.62 2.351-2.351h-5.336v-.877z" clip-rule="evenodd"/><path fill="#f5f5fe" d="M318.019 304.829c-1.663 0-2.851-1.325-2.851-2.967 0-1.641 1.188-2.966 2.851-2.966.989 0 1.799.484 2.293 1.199l.789-.61c-.673-.905-1.757-1.515-3.082-1.515-2.304 0-3.872 1.788-3.872 3.892s1.568 3.893 3.872 3.893c1.325 0 2.409-.6 3.082-1.515l-.789-.61a2.75 2.75 0 0 1-2.293 1.199M322.52 305.544h.894v-3.64c.326-.536.778-.894 1.473-.894.21 0 .368.021.526.063v-.873a1.5 1.5 0 0 0-.453-.063c-.673 0-1.157.305-1.546.768v-.663h-.894zM329.076 299.401l1.23-1.747h-1.009l-1.095 1.747zm2.019 5.27-.662-.515a1.98 1.98 0 0 1-1.61.789c-1.136 0-1.946-.768-1.978-2.041h4.072c.031-.147.063-.347.063-.558 0-1.304-.937-2.314-2.378-2.314-1.641 0-2.672 1.252-2.672 2.861 0 1.547 1.105 2.862 2.893 2.862.989 0 1.778-.421 2.272-1.084m-2.514-3.882c.936 0 1.473.653 1.505 1.431h-3.178c.19-.915.8-1.431 1.673-1.431M337.188 304.671l-.663-.515a1.98 1.98 0 0 1-1.61.789c-1.136 0-1.946-.768-1.977-2.041h4.071c.031-.147.063-.347.063-.558 0-1.304-.936-2.314-2.378-2.314-1.641 0-2.672 1.252-2.672 2.861 0 1.547 1.105 2.862 2.893 2.862.989 0 1.778-.421 2.273-1.084m-2.515-3.882c.937 0 1.473.653 1.505 1.431h-3.177c.189-.915.799-1.431 1.672-1.431M338.587 305.544h.895v-3.64c.326-.536.778-.894 1.473-.894.21 0 .368.021.526.063v-.873a1.5 1.5 0 0 0-.453-.063c-.673 0-1.157.305-1.546.768v-.663h-.895zM345.604 305.544h.895v-7.89h-.895zM348.777 301l1.083-2.82h-1.02l-.894 2.82zM353.017 300.032c-1.715 0-2.872 1.315-2.872 2.861s1.157 2.862 2.872 2.862c1.704 0 2.872-1.315 2.872-2.862 0-1.546-1.168-2.861-2.872-2.861m.01 4.881c-1.136 0-1.946-.915-1.946-2.02s.81-2.02 1.946-2.02c1.105 0 1.915.916 1.915 2.02 0 1.094-.81 2.02-1.915 2.02M356.55 300.242v.81h.999v4.492h.905v-4.492h1.841v-.81h-1.841v-.673c0-.694.4-1.105 1-1.105.305 0 .547.095.747.242l.399-.747a2.33 2.33 0 0 0-1.167-.305c-1.158 0-1.884.81-1.884 1.936v.652zM360.834 300.242v.81h1v4.492h.904v-4.492h1.841v-.81h-1.841v-.673c0-.694.4-1.105 1-1.105.305 0 .547.095.747.242l.399-.747a2.3 2.3 0 0 0-1.167-.305c-1.158 0-1.883.81-1.883 1.936v.652zM365.443 305.544h.894v-3.64c.326-.536.778-.894 1.473-.894.21 0 .368.021.526.063v-.873a1.5 1.5 0 0 0-.453-.063c-.673 0-1.157.305-1.546.768v-.663h-.894zM374.019 304.671l-.663-.515a1.98 1.98 0 0 1-1.61.789c-1.136 0-1.946-.768-1.978-2.041h4.072c.031-.147.063-.347.063-.558 0-1.304-.936-2.314-2.378-2.314-1.641 0-2.672 1.252-2.672 2.861 0 1.547 1.105 2.862 2.893 2.862.989 0 1.778-.421 2.273-1.084m-2.515-3.882c.937 0 1.473.653 1.505 1.431h-3.177c.189-.915.799-1.431 1.672-1.431"/><path fill="#161616" d="m282.942 29.995 4.622 11.556h2.047l4.622-11.556h-1.651l-3.995 9.987-3.995-9.987zM299.047 32.9c-2.691 0-4.506 2.064-4.506 4.49s1.815 4.49 4.506 4.49c2.675 0 4.507-2.063 4.507-4.49s-1.832-4.49-4.507-4.49m.017 7.66c-1.783 0-3.054-1.436-3.054-3.17s1.271-3.169 3.054-3.169c1.733 0 3.004 1.436 3.004 3.17 0 1.717-1.271 3.17-3.004 3.17M306.16 38.76c0 2.031 1.04 2.956 2.889 2.956.594 0 1.04-.066 1.436-.231V40.23c-.314.132-.694.198-1.238.198-1.007 0-1.668-.363-1.668-1.667V34.5h2.889v-1.27h-2.889v-2.08h-1.419v2.08h-1.569v1.27h1.569zM312.613 41.55h1.403V35.84c.512-.842 1.222-1.403 2.311-1.403.331 0 .578.033.826.099v-1.37a2.3 2.3 0 0 0-.71-.1c-1.057 0-1.816.48-2.427 1.206v-1.04h-1.403zM326.07 40.18l-1.04-.808c-.544.742-1.452 1.238-2.525 1.238-1.783 0-3.054-1.205-3.104-3.203h6.389c.049-.231.099-.545.099-.875 0-2.047-1.47-3.632-3.731-3.632-2.575 0-4.193 1.965-4.193 4.49 0 2.427 1.733 4.49 4.54 4.49 1.551 0 2.789-.66 3.565-1.7m-3.945-6.091c1.469 0 2.311 1.023 2.361 2.245H319.5c.297-1.436 1.255-2.245 2.625-2.245M341.35 37.39c0-2.426-1.667-4.49-4.276-4.49-1.238 0-2.212.48-2.955 1.321V29.17h-1.403v12.38h1.403v-.99c.743.842 1.717 1.32 2.955 1.32 2.609 0 4.276-2.063 4.276-4.49m-4.441-3.169c1.767 0 2.972 1.403 2.972 3.17s-1.205 3.17-2.972 3.17c-1.139 0-2.146-.546-2.79-1.536v-3.269a3.24 3.24 0 0 1 2.79-1.535M351.026 40.18l-1.04-.808c-.545.742-1.453 1.238-2.526 1.238-1.783 0-3.054-1.205-3.103-3.203h6.388c.05-.231.099-.545.099-.875 0-2.047-1.469-3.632-3.73-3.632-2.576 0-4.193 1.965-4.193 4.49 0 2.427 1.733 4.49 4.539 4.49 1.552 0 2.79-.66 3.566-1.7m-3.945-6.091c1.469 0 2.311 1.023 2.36 2.245h-4.985c.297-1.436 1.254-2.245 2.625-2.245M352.267 40.412c.759.94 1.799 1.469 3.12 1.469 1.551 0 2.79-.974 2.806-2.526 0-2.84-4.177-2.245-4.177-4.11 0-.644.479-1.172 1.371-1.172.726 0 1.353.396 1.799 1.023l.974-.825c-.578-.81-1.601-1.37-2.79-1.37-1.601 0-2.707 1.072-2.707 2.377 0 2.938 4.16 2.278 4.16 4.143 0 .727-.528 1.288-1.453 1.288-.842 0-1.535-.413-2.113-1.14zM364.177 32.9c-2.691 0-4.506 2.064-4.506 4.49s1.815 4.49 4.506 4.49c2.675 0 4.507-2.063 4.507-4.49s-1.832-4.49-4.507-4.49m.017 7.66c-1.783 0-3.054-1.436-3.054-3.17s1.271-3.169 3.054-3.169c1.733 0 3.004 1.436 3.004 3.17 0 1.717-1.271 3.17-3.004 3.17M371.65 31.068a.98.98 0 0 0 .974-.99.976.976 0 0 0-.974-.974.99.99 0 0 0-.991.974c0 .544.446.99.991.99m-.71 10.483h1.403v-8.32h-1.403zM375.309 41.55h1.403v-5.76c.528-.876 1.288-1.569 2.493-1.569 1.287 0 2.129.859 2.129 2.344v4.986h1.403v-5.035c0-2.361-1.386-3.616-3.252-3.616-1.238 0-2.096.529-2.773 1.272v-.941h-1.403zM397.407 40.18l-1.04-.808c-.545.742-1.453 1.238-2.526 1.238-1.783 0-3.054-1.205-3.103-3.203h6.388c.05-.231.099-.545.099-.875 0-2.047-1.469-3.632-3.73-3.632-2.576 0-4.194 1.965-4.194 4.49 0 2.427 1.734 4.49 4.54 4.49 1.552 0 2.79-.66 3.566-1.7m-3.946-6.091c1.47 0 2.312 1.023 2.361 2.245h-4.985c.297-1.436 1.254-2.245 2.624-2.245M399.603 41.55h1.404v-5.76c.528-.876 1.287-1.569 2.492-1.569 1.288 0 2.13.859 2.13 2.344v4.986h1.403v-5.035c0-2.361-1.387-3.616-3.252-3.616-1.238 0-2.097.529-2.773 1.272v-.941h-1.404zM414.306 41.55h1.403V35.84c.512-.842 1.222-1.403 2.311-1.403.331 0 .578.033.826.099v-1.37a2.3 2.3 0 0 0-.71-.1c-1.057 0-1.816.48-2.427 1.206v-1.04h-1.403zM427.763 40.18l-1.04-.808c-.544.742-1.452 1.238-2.525 1.238-1.783 0-3.054-1.205-3.104-3.203h6.389c.049-.231.099-.545.099-.875 0-2.047-1.47-3.632-3.731-3.632-2.575 0-4.193 1.965-4.193 4.49 0 2.427 1.733 4.49 4.54 4.49 1.551 0 2.789-.66 3.565-1.7m-3.945-6.091c1.469 0 2.311 1.023 2.361 2.245h-4.986c.297-1.436 1.255-2.245 2.625-2.245M433.757 40.56c-1.799 0-3.07-1.387-3.07-3.17 0-1.766 1.271-3.169 3.054-3.169 1.04 0 1.882.495 2.394 1.222l1.106-.842c-.776-1.024-1.998-1.7-3.5-1.7-2.757 0-4.523 2.063-4.523 4.49s1.766 4.49 4.523 4.49c1.519 0 2.724-.66 3.5-1.7l-1.106-.842a2.87 2.87 0 0 1-2.378 1.221M439.165 41.55h1.403V35.84c.512-.842 1.222-1.403 2.311-1.403.331 0 .578.033.826.099v-1.37a2.3 2.3 0 0 0-.71-.1c-1.057 0-1.816.48-2.427 1.206v-1.04h-1.403zM451.65 37.985c0 1.634-.892 2.575-2.278 2.575-1.42 0-2.295-.94-2.295-2.575V33.23h-1.403v4.704c0 2.493 1.436 3.946 3.681 3.946 2.262 0 3.698-1.453 3.698-3.946v-4.704h-1.403zM456.362 38.76c0 2.031 1.04 2.956 2.888 2.956.595 0 1.04-.066 1.437-.231V40.23c-.314.132-.694.198-1.238.198-1.007 0-1.668-.363-1.668-1.667V34.5h2.889v-1.27h-2.889v-2.08h-1.419v2.08h-1.569v1.27h1.569zM470.049 40.18l-1.04-.808c-.544.742-1.452 1.238-2.525 1.238-1.783 0-3.054-1.205-3.104-3.203h6.389c.049-.231.099-.545.099-.875 0-2.047-1.469-3.632-3.731-3.632-2.575 0-4.193 1.965-4.193 4.49 0 2.427 1.733 4.49 4.54 4.49 1.551 0 2.79-.66 3.565-1.7m-3.945-6.091c1.469 0 2.311 1.023 2.361 2.245h-4.986c.297-1.436 1.255-2.245 2.625-2.245M472.246 41.55h1.403v-5.76c.479-.86 1.189-1.569 2.328-1.569 1.205 0 1.964.792 1.964 2.18v5.15h1.403v-5.2c0-.198-.016-.38-.033-.562.545-.974 1.288-1.568 2.345-1.568 1.188 0 1.964.792 1.964 2.18v5.15h1.403v-5.2c0-2.262-1.304-3.45-3.087-3.45-1.436 0-2.311.693-2.971 1.6-.512-1.056-1.503-1.6-2.708-1.6-1.155 0-1.981.511-2.608 1.237v-.907h-1.403zM495.247 40.18l-1.04-.808c-.545.742-1.453 1.238-2.526 1.238-1.783 0-3.054-1.205-3.103-3.203h6.388c.05-.231.099-.545.099-.875 0-2.047-1.469-3.632-3.73-3.632-2.576 0-4.194 1.965-4.194 4.49 0 2.427 1.734 4.49 4.54 4.49 1.552 0 2.79-.66 3.566-1.7m-3.946-6.091c1.47 0 2.312 1.023 2.361 2.245h-4.985c.297-1.436 1.254-2.245 2.624-2.245M497.443 41.55h1.404v-5.76c.528-.876 1.287-1.569 2.492-1.569 1.288 0 2.13.859 2.13 2.344v4.986h1.403v-5.035c0-2.361-1.387-3.616-3.252-3.616-1.238 0-2.097.529-2.773 1.272v-.941h-1.404zM508.175 38.76c0 2.031 1.04 2.956 2.889 2.956.595 0 1.04-.066 1.436-.231V40.23c-.313.132-.693.198-1.238.198-1.007 0-1.667-.363-1.667-1.667V34.5h2.889v-1.27h-2.889v-2.08h-1.42v2.08h-1.568v1.27h1.568z"/><g filter="url(#m)"><rect width="164.404" height="55.161" x="527.554" y="41.725" fill="#fff" rx="8"/><rect width="163.404" height="54.161" x="528.054" y="42.225" stroke="#e6e6e6" rx="7.5"/></g><g clip-path="url(#n)"><path fill="#000091" d="M645.247 65.602c-.669-.294-1.141-.63-1.141-1.184s.371-.973 1.141-1.05c.077-.006.15-.016.234-.016.91 0 1.677.576 2.282 1.286l1.957-1.643c-.84-1.087-2.471-1.91-4.263-1.91-.074 0-.14.007-.21.007-2.335.083-3.983 1.536-3.983 3.453 0 2.527 2.324 3.127 3.983 3.75.917.347 1.634.7 1.634 1.397 0 .696-.49 1.196-1.445 1.196-.063 0-.126-.01-.189-.013-1.026-.067-1.834-.657-2.513-1.473l-1.957 1.686c1.075 1.217 2.499 1.994 4.473 2.054.081 0 .154.01.235.01 2.212 0 4.193-1.287 4.242-3.64 0-2.744-2.835-3.204-4.477-3.92zM562.542 75.782h2.159v.436h-1.62v1.227h1.389v.433h-1.389v1.297h1.62v.437h-2.159v-3.834zM565.566 76.855h.49v.313c.234-.247.535-.42.966-.42.651 0 1.134.417 1.134 1.2v1.67h-.49v-1.653c0-.494-.294-.777-.742-.777-.42 0-.683.23-.868.52v1.91h-.49v-2.763M569.245 77.275h-.546v-.42h.546v-.69h.493v.69h1.005v.42h-1.005v1.413c0 .434.231.554.581.554.189 0 .322-.024.431-.067v.417a1.4 1.4 0 0 1-.501.076c-.644 0-1.004-.306-1.004-.98zM571.436 76.855h.49v.343c.213-.24.476-.4.843-.4.091 0 .179.01.249.034v.453a1 1 0 0 0-.287-.033c-.378 0-.627.186-.805.466v1.894h-.49v-2.76zM574.82 79.722c-.977 0-1.582-.684-1.582-1.49 0-.807.563-1.49 1.459-1.49.788 0 1.299.51 1.299 1.2 0 .11-.018.22-.035.296h-2.226c.017.664.458 1.064 1.081 1.064.375 0 .69-.164.879-.41l.36.266c-.269.344-.7.564-1.242.564zm-1.047-1.84h1.736c-.017-.407-.329-.744-.812-.744s-.822.267-.924.744M576.51 79.192l1.708-1.917h-1.666v-.42h2.265v.42l-1.712 1.917h1.754v.42h-2.345v-.42zM582.324 76.745c.43 0 .77.16 1.029.436v-1.676h.49v4.107h-.49v-.33c-.259.28-.599.436-1.029.436-.907 0-1.488-.683-1.488-1.49s.581-1.49 1.488-1.49zm.056 2.54c.402 0 .759-.187.973-.51V77.69a1.15 1.15 0 0 0-.973-.51c-.616 0-1.029.467-1.029 1.05 0 .584.413 1.05 1.029 1.05zM584.648 78.918c0-.417.333-.713.949-.81l.976-.153v-.19c0-.384-.287-.604-.7-.604a.95.95 0 0 0-.78.384l-.368-.27c.252-.327.662-.53 1.166-.53.735 0 1.172.41 1.172 1.016v1.85h-.49v-.343c-.217.267-.584.42-.973.42-.57 0-.955-.3-.955-.773zm1.036.39c.385 0 .7-.177.893-.47v-.543l-.858.136c-.395.067-.574.237-.574.47 0 .234.2.407.539.407M587.987 76.855h.49v.313c.234-.247.535-.42.966-.42.651 0 1.134.417 1.134 1.2v1.67h-.49v-1.653c0-.494-.294-.777-.742-.777-.42 0-.683.23-.868.52v1.91h-.49v-2.763M591.532 78.955c.2.24.441.376.735.376.322 0 .508-.186.508-.426 0-.62-1.449-.4-1.449-1.374 0-.433.385-.786.941-.786.413 0 .77.186.973.453l-.339.273c-.154-.206-.375-.34-.627-.34-.311 0-.476.177-.476.39 0 .62 1.453.42 1.453 1.364-.007.513-.438.836-.977.836-.458 0-.822-.176-1.085-.486l.347-.28zM595.48 75.508h.49v4.107h-.49zM597.752 75.782l-.49 1.466h-.556l.591-1.466zM599.498 79.722c-.976 0-1.581-.684-1.581-1.49 0-.807.563-1.49 1.459-1.49.788 0 1.299.51 1.299 1.2 0 .11-.018.22-.035.296h-2.226c.017.664.458 1.064 1.081 1.064.375 0 .689-.164.879-.41l.36.266c-.27.344-.7.564-1.242.564zm-1.046-1.84h1.736c-.017-.407-.329-.744-.812-.744s-.822.267-.924.744M601.444 76.855h.49v.313a1.27 1.27 0 0 1 .966-.42c.651 0 1.134.417 1.134 1.2v1.67h-.49v-1.653c0-.494-.294-.777-.742-.777-.42 0-.682.23-.868.52v1.91h-.49v-2.763M604.993 78.955c.2.24.441.376.735.376.322 0 .508-.186.508-.426 0-.62-1.449-.4-1.449-1.374 0-.433.385-.786.941-.786.413 0 .77.186.973.453l-.339.273c-.154-.206-.375-.34-.627-.34-.311 0-.476.177-.476.39 0 .62 1.453.42 1.453 1.364-.007.513-.438.836-.977.836-.458 0-.822-.176-1.085-.486l.347-.28zM608.746 79.722c-.977 0-1.582-.684-1.582-1.49 0-.807.563-1.49 1.459-1.49.788 0 1.299.51 1.299 1.2 0 .11-.018.22-.035.296h-2.226c.017.664.458 1.064 1.081 1.064.375 0 .69-.164.879-.41l.36.266c-.269.344-.7.564-1.242.564zm-1.047-1.84h1.736c-.017-.407-.329-.744-.812-.744s-.822.267-.924.744M610.593 75.808c0-.177.154-.323.347-.323a.33.33 0 0 1 .339.323c0 .177-.15.327-.339.327s-.347-.147-.347-.327m.098 1.047h.49v2.76h-.49zM612.256 79.415a.49.49 0 0 1-.2-.393c0-.22.119-.4.347-.537a.94.94 0 0 1-.403-.767c0-.53.438-.98 1.127-.98.214 0 .403.044.557.114h1.074v.406h-.626a.9.9 0 0 1 .119.46c0 .527-.431.974-1.127.974a1.7 1.7 0 0 1-.403-.054c-.119.084-.189.18-.189.284 0 .116.063.196.242.196h.826c.763 0 1.12.357 1.12.85 0 .58-.609 1.014-1.477 1.014s-1.421-.317-1.421-.87c0-.28.143-.504.43-.697zm.983 1.177c.609 0 .994-.23.994-.59 0-.264-.154-.47-.672-.47h-.892c-.249.143-.368.306-.368.526 0 .334.361.537.938.537zm.553-2.874c0-.34-.241-.613-.661-.613s-.669.273-.669.613.235.607.669.607.661-.273.661-.607M615.297 76.855h.49v.313a1.27 1.27 0 0 1 .966-.42c.651 0 1.134.417 1.134 1.2v1.67h-.49v-1.653c0-.494-.294-.777-.742-.777-.42 0-.682.23-.868.52v1.91h-.49v-2.763M620.142 79.722c-.977 0-1.582-.684-1.582-1.49 0-.807.563-1.49 1.459-1.49.788 0 1.299.51 1.299 1.2 0 .11-.018.22-.035.296h-2.226c.017.664.458 1.064 1.081 1.064.375 0 .69-.164.879-.41l.36.266c-.269.344-.7.564-1.242.564zm-1.047-1.84h1.736c-.017-.407-.329-.744-.812-.744s-.822.267-.924.744M622.091 76.855h.49v.3c.217-.24.507-.41.906-.41s.763.18.942.53c.231-.3.535-.53 1.036-.53.619 0 1.074.393 1.074 1.143v1.723h-.49v-1.706c0-.46-.269-.724-.682-.724-.368 0-.627.197-.816.52q.01.088.011.187v1.723h-.49v-1.706c0-.46-.266-.724-.683-.724-.395 0-.644.237-.812.52v1.91h-.49v-2.76zM628.797 79.722c-.977 0-1.582-.684-1.582-1.49 0-.807.563-1.49 1.459-1.49.788 0 1.299.51 1.299 1.2 0 .11-.018.22-.035.296h-2.226c.017.664.458 1.064 1.081 1.064.375 0 .69-.164.879-.41l.36.266c-.269.344-.7.564-1.242.564zm-1.047-1.84h1.736c-.017-.407-.329-.744-.812-.744s-.822.267-.924.744M630.743 76.855h.49v.313a1.27 1.27 0 0 1 .966-.42c.651 0 1.134.417 1.134 1.2v1.67h-.49v-1.653c0-.494-.294-.777-.742-.777-.42 0-.682.23-.868.52v1.91h-.49v-2.763M634.421 77.275h-.546v-.42h.546v-.69h.494v.69h1.004v.42h-1.004v1.413c0 .434.231.554.581.554.189 0 .322-.024.43-.067v.417a1.4 1.4 0 0 1-.5.076c-.644 0-1.005-.306-1.005-.98zM638.142 78.955c.199.24.441.376.735.376.322 0 .507-.186.507-.426 0-.62-1.449-.4-1.449-1.374 0-.433.385-.786.942-.786.413 0 .77.186.973.453l-.34.273c-.154-.206-.374-.34-.626-.34-.312 0-.476.177-.476.39 0 .62 1.452.42 1.452 1.364-.007.513-.437.836-.976.836-.459 0-.823-.176-1.085-.486l.346-.28zM642.612 76.855h.49v1.56c0 .827-.501 1.307-1.288 1.307-.788 0-1.281-.48-1.281-1.307v-1.56h.49v1.577c0 .543.304.853.798.853.493 0 .794-.313.794-.853v-1.577zM644.008 76.855h.49v.33c.259-.28.598-.437 1.029-.437.906 0 1.487.683 1.487 1.49s-.581 1.49-1.487 1.49c-.431 0-.77-.16-1.029-.437v1.677h-.49v-4.113m.49.843v1.073c.224.334.574.514.973.514.616 0 1.036-.467 1.036-1.05 0-.584-.42-1.05-1.036-1.05-.403 0-.753.186-.973.513M649.107 79.722c-.976 0-1.582-.684-1.582-1.49 0-.807.564-1.49 1.46-1.49.787 0 1.298.51 1.298 1.2 0 .11-.017.22-.035.296h-2.226c.018.663.459 1.064 1.082 1.064.374 0 .689-.164.878-.41l.361.266c-.27.343-.7.564-1.243.564zm-1.046-1.84h1.736c-.018-.407-.329-.744-.812-.744s-.823.267-.924.743m.707-1.467.598-.91h.553l-.672.91h-.479M651.054 76.855h.49v.343c.213-.24.476-.4.843-.4.091 0 .179.01.249.034v.453a1 1 0 0 0-.287-.033c-.378 0-.627.186-.805.466v1.894h-.49v-2.76zM653.182 75.808c0-.177.154-.323.346-.323a.33.33 0 0 1 .34.323.335.335 0 0 1-.34.327c-.189 0-.346-.147-.346-.327m.098 1.047h.49v2.76h-.49zM656.076 79.722c-.976 0-1.582-.684-1.582-1.49 0-.807.564-1.49 1.46-1.49.787 0 1.298.51 1.298 1.2 0 .11-.017.22-.035.296h-2.226c.018.664.459 1.064 1.082 1.064.374 0 .689-.164.878-.41l.361.266c-.27.344-.7.564-1.243.564zm-1.046-1.84h1.736c-.018-.407-.329-.744-.812-.744s-.823.267-.924.744M659.996 76.855h.49v1.56c0 .827-.501 1.307-1.288 1.307-.788 0-1.281-.48-1.281-1.307v-1.56h.49v1.577c0 .543.304.853.798.853.493 0 .794-.313.794-.853v-1.577zM661.393 76.855h.49v.343c.213-.24.476-.4.843-.4.091 0 .179.01.249.034v.453a1 1 0 0 0-.287-.033c-.378 0-.627.186-.805.466v1.894h-.49v-2.76zM555.759 62.165l2.957.28c.91-.864 2.051-1.354 3.658-1.354 3.727 0 5.964 2.774 5.964 6.037s-2.237 6.037-5.964 6.037c-1.607 0-2.748-.487-3.658-1.354v6.367h-2.957zm2.957 3.21v3.506c.791 1.067 1.887 1.62 3.238 1.62 2.002 0 3.307-1.42 3.307-3.373s-1.305-3.373-3.307-3.373c-1.376 0-2.492.576-3.238 1.62M569.878 69.701c0-1.686 1.375-2.95 3.892-3.35l3.587-.576v-.29c0-1.177-.931-1.93-2.282-1.93-1.141 0-2.026.51-2.656 1.33l-2.167-1.577c1.05-1.377 2.772-2.22 4.918-2.22 3.402 0 5.148 1.93 5.148 4.393v7.234h-2.957v-1.087c-.746.867-2.142 1.42-3.518 1.42-2.352 0-3.962-1.287-3.962-3.35zm4.567 1.11c1.351 0 2.331-.6 2.912-1.486v-1.577l-2.796.443c-1.236.2-1.747.687-1.747 1.377 0 .753.63 1.243 1.631 1.243M583.461 61.535h2.958v1.11c.77-.753 1.771-1.33 3.097-1.33.396 0 .746.067 1.026.157v2.77a5.3 5.3 0 0 0-1.306-.157c-1.445 0-2.376.753-2.817 1.463v7.167h-2.958zM600.492 69.211l2.307 1.687c-1.096 1.377-2.818 2.263-4.963 2.263-4.053 0-6.479-2.773-6.479-6.036 0-3.264 2.426-6.034 6.479-6.034 2.142 0 3.867.887 4.963 2.264l-2.307 1.686c-.56-.776-1.491-1.286-2.702-1.286-1.932 0-3.356 1.42-3.356 3.373s1.421 3.373 3.402 3.373c1.165 0 2.096-.51 2.656-1.286zM616.337 67.128c0 3.35-2.611 6.037-6.429 6.037s-6.43-2.684-6.43-6.037 2.608-6.037 6.426-6.037 6.43 2.684 6.43 6.037zm-3.076 0c0-1.953-1.421-3.373-3.308-3.373s-3.402 1.42-3.402 3.373 1.446 3.373 3.402 3.373 3.308-1.443 3.308-3.373M626.539 61.535h2.982v6.213c0 3.35-2.051 5.413-5.498 5.413s-5.474-2.063-5.474-5.413v-6.213h2.982v6.346c0 1.62.885 2.617 2.516 2.617s2.492-1 2.492-2.617zM632.574 61.535h2.957v1.11c.77-.753 1.771-1.33 3.098-1.33.395 0 .745.067 1.025.157v2.77a5.3 5.3 0 0 0-1.305-.157c-1.446 0-2.377.753-2.818 1.463v7.167h-2.957zM659.95 61.535h2.982v6.213c0 3.35-2.051 5.413-5.498 5.413s-5.474-2.063-5.474-5.413v-6.213h2.982v6.346c0 1.62.885 2.617 2.516 2.617s2.492-1 2.492-2.617zM665.984 61.535h2.958v.91c.91-.867 2.051-1.354 3.657-1.354 3.728 0 5.964 2.774 5.964 6.037s-2.236 6.037-5.964 6.037c-1.606 0-2.747-.487-3.657-1.354v6.367h-2.958zm2.958 3.84v3.506c.791 1.067 1.886 1.62 3.237 1.62 2.002 0 3.308-1.42 3.308-3.373s-1.306-3.373-3.308-3.373c-1.375 0-2.492.576-3.237 1.62"/><path fill="#e1000f" d="M545.413 70.578h-5.012c-.819 0-1.484.633-1.484 1.413s.665 1.414 1.484 1.414h3.531v3.363c0 .78.665 1.41 1.484 1.413.41 0 .781-.156 1.047-.413.269-.257.434-.61.434-1v-4.776c0-.39-.165-.744-.434-1a1.5 1.5 0 0 0-1.05-.414"/><path fill="#000091" d="M551.324 65.815h-5.005c-.819 0-1.48.63-1.48 1.41s.661 1.41 1.48 1.41h3.525v3.357c0 .78.661 1.41 1.48 1.41.41 0 .777-.157 1.047-.414a1.37 1.37 0 0 0 .434-.996v-4.767c0-.39-.165-.743-.434-.997a1.5 1.5 0 0 0-1.047-.413"/><path fill="#e1000f" d="M557.243 61.038h-5.015c-.819 0-1.484.633-1.484 1.413s.665 1.414 1.484 1.414h3.531v3.363c0 .78.665 1.413 1.484 1.413.41 0 .781-.16 1.047-.413.269-.257.434-.61.434-1v-4.777c0-.39-.168-.743-.434-1a1.5 1.5 0 0 0-1.047-.413"/></g><g filter="url(#o)"><rect width="134.659" height="54.839" x="542.427" y="111.194" fill="#fff" rx="8"/><rect width="133.659" height="53.839" x="542.927" y="111.694" stroke="#e6e6e6" rx="7.5"/></g><g clip-path="url(#p)"><path fill="#000" d="M661.676 128.279h-81.755v21.474h81.707v-21.474z"/><path fill="#fff" d="M591.043 145.783c-3.756 0-6.5-2.726-6.5-6.6s2.744-6.648 6.5-6.648 6.5 2.726 6.5 6.648c0 3.874-2.744 6.6-6.5 6.6m0-10.091c-1.83 0-2.648 1.435-2.648 3.443s.866 3.396 2.648 3.396c1.83 0 2.696-1.626 2.696-3.396 0-1.961-.866-3.443-2.696-3.443m33.704 10.091a11.94 11.94 0 0 1-6.019-1.483l1.252-2.534a11.1 11.1 0 0 0 4.959 1.147c1.445 0 1.926-.334 1.926-.956 0-.67-.529-.861-2.118-1.291-3.467-.909-5.682-1.674-5.682-4.353s2.359-3.778 5.73-3.778c1.829 0 3.659.431 5.296 1.244l-1.204 2.63a10.6 10.6 0 0 0-4.188-1.004c-1.541 0-1.926.239-1.926.813s.433.717 2.985 1.482c2.552.766 4.766 1.579 4.766 4.113.049 2.918-2.551 3.97-5.777 3.97m18.922-5.548h-8.57c.144 1.722 1.588 2.392 2.937 2.392.433 0 .914-.048 1.3-.192a2.9 2.9 0 0 0 1.155-.717l2.696 1.961c-.674.669-1.444 1.195-2.359 1.53a7.8 7.8 0 0 1-2.744.526c-4.141 0-6.741-2.582-6.741-6.6 0-3.922 2.744-6.648 6.404-6.648 3.803 0 6.018 3.013 6.018 6.648 0 .383-.048.718-.096 1.1m-6.163-4.83c-.626 0-1.204.239-1.637.669s-.674 1.005-.722 1.626h4.911a2.53 2.53 0 0 0-.819-1.673 2.22 2.22 0 0 0-1.733-.622m13.963 10.378c-1.108 0-2.167-.335-3.033-1.004v5.021h-3.756v-17.026h3.756v.813c.866-.717 1.925-1.1 3.033-1.052 3.081 0 5.585 2.057 5.585 6.792 0 3.778-2.07 6.456-5.585 6.456m-.722-10.139c-.434 0-.915.048-1.3.239-.386.191-.771.478-1.011.813v4.783c.288.382.722.669 1.155.861a2.8 2.8 0 0 0 1.396.239c1.445 0 2.215-1.1 2.215-3.252 0-2.583-1.011-3.683-2.455-3.683m-39.434 8.226v-5.548c0-3.587-1.637-5.835-5.296-5.835a5.1 5.1 0 0 0-3.37 1.1v-.86h-3.804v11.095c0 .478.193.957.578 1.339.337.335.818.526 1.348.526.481 0 .963-.191 1.348-.526a1.84 1.84 0 0 0 .53-1.291v-5.309c0-2.2.866-2.869 2.455-2.869 1.541 0 2.456.669 2.456 2.965v5.261c0 .478.192.956.529 1.339.337.335.819.526 1.349.526.481 0 .963-.191 1.348-.526a2.7 2.7 0 0 0 .529-1.387m3.9-7.27c.53 0 1.06-.239 1.445-.621.385-.383.626-.909.626-1.435s-.193-1.052-.626-1.435a2 2 0 0 0-.674-.43 2.2 2.2 0 0 0-.771-.144c-.529 0-1.059.192-1.444.574-.385.383-.626.909-.626 1.435 0 .287.048.526.144.765.097.239.241.478.434.67.385.43.915.621 1.492.621m1.878.718h-3.707v6.552c0 .478.192.957.529 1.291.337.335.819.574 1.348.574.482 0 .963-.191 1.349-.574.337-.334.577-.813.577-1.291v-.048c-.048-.048-.096-6.504-.096-6.504"/><path fill="#e1000f" d="M579.92 128.279h-21.811v21.474h21.811z"/><path fill="#fff" d="M576.743 138.227a1.13 1.13 0 0 0-.819-.335h-2.696a.44.44 0 0 1-.337-.144c-.048-.047-.096-.095-.096-.143-.097-.191-.048-.383.096-.526l2.6-2.535a1.33 1.33 0 0 0 .385-.957c0-.334-.144-.669-.385-.956a1.35 1.35 0 0 0-.963-.383c-.337 0-.722.144-.963.383l-2.6 2.535a.44.44 0 0 1-.53.095q-.288-.143-.288-.43v-2.678c0-.287-.145-.622-.337-.813a1.14 1.14 0 0 0-.771-.335c-.289 0-.578.143-.818.335a1.24 1.24 0 0 0-.337.813v2.678q0 .287-.289.43c-.193.096-.385.048-.53-.095l-2.6-2.535a1.35 1.35 0 0 0-.963-.383c-.337 0-.674.144-.963.383a1.33 1.33 0 0 0-.385.956c0 .335.144.67.385.957l2.552 2.535c.144.143.193.335.096.526-.048.191-.24.287-.433.287h-2.744a1.26 1.26 0 0 0-.819.335 1.12 1.12 0 0 0-.337.765c0 .287.144.574.337.765s.53.335.819.335h2.744q.29 0 .433.287c.097.191.048.382-.096.526l-2.504 2.535c-.24.239-.385.574-.385.956 0 .335.145.67.385.957.241.239.578.382.963.382.337 0 .674-.143.963-.382l2.6-2.535a.44.44 0 0 1 .53-.096c.192.048.289.239.289.431v2.678c0 .287.096.574.337.813.192.191.481.335.818.335.289 0 .578-.144.819-.335.192-.191.337-.478.337-.813v-2.678q0-.288.289-.431a.67.67 0 0 1 .529.096l2.6 2.535c.241.239.578.382.963.382.337 0 .723-.143.963-.382a1.33 1.33 0 0 0 .386-.957c0-.335-.145-.669-.386-.956l-2.6-2.535c-.144-.144-.192-.335-.096-.478.048-.192.241-.287.433-.287h2.697c.289 0 .626-.144.818-.335.434-.431.434-1.1 0-1.531zm-6.789 2.726a.94.94 0 0 1-.289.669.95.95 0 0 1-.674.287.95.95 0 0 1-.674-.287.94.94 0 0 1-.289-.669v-4.161c0-.239.096-.478.289-.67a.96.96 0 0 1 .674-.287c.241 0 .482.096.674.287a.94.94 0 0 1 .289.67z"/></g><g filter="url(#q)"><rect width="120" height="69" x="549.958" y="180.906" fill="#fff" rx="8"/><rect width="119" height="68" x="550.458" y="181.406" stroke="#e6e6e6" rx="7.5"/><path fill="#283276" d="M600.428 223.686a3.536 3.536 0 0 1-3.539 3.526 3.523 3.523 0 0 1-3.538-3.526 3.535 3.535 0 0 1 3.538-3.526 3.535 3.535 0 0 1 3.539 3.526"/><path fill="#f29fc5" d="M577.157 210.559a3.536 3.536 0 0 1-3.539 3.526 3.523 3.523 0 0 1-3.538-3.526 3.535 3.535 0 0 1 3.538-3.526 3.523 3.523 0 0 1 3.539 3.526"/><path fill="#008ecf" d="M593.755 219.834a3.536 3.536 0 0 1-3.539 3.526c-1.942 0-3.539-1.572-3.539-3.526a3.535 3.535 0 0 1 3.539-3.526c1.962.019 3.539 1.59 3.539 3.526"/><path fill="#f29fc5" d="M585.216 224.088a3.536 3.536 0 0 1-3.539 3.526c-1.943 0-3.539-1.571-3.539-3.526a3.536 3.536 0 0 1 3.539-3.526c1.962.019 3.539 1.591 3.539 3.526"/><path fill="#283276" d="M585.216 232.385a3.535 3.535 0 0 1-3.539 3.526c-1.943 0-3.539-1.571-3.539-3.526a3.536 3.536 0 0 1 3.539-3.526c1.962.02 3.539 1.591 3.539 3.526M600.428 206.171a3.536 3.536 0 0 1-3.539 3.526 3.523 3.523 0 0 1-3.538-3.526 3.535 3.535 0 0 1 3.538-3.526 3.535 3.535 0 0 1 3.539 3.526M593.755 210.559a3.536 3.536 0 0 1-3.539 3.526c-1.942 0-3.539-1.572-3.539-3.526a3.535 3.535 0 0 1 3.539-3.526 3.523 3.523 0 0 1 3.539 3.526M576.638 220.16a3.536 3.536 0 0 1-3.539 3.526 3.523 3.523 0 0 1-3.538-3.526 3.535 3.535 0 0 1 3.538-3.526 3.523 3.523 0 0 1 3.539 3.526M569.907 205.404a3.51 3.51 0 0 1-2.673 4.197c-1.904.421-3.789-.767-4.212-2.664a3.51 3.51 0 0 1 2.673-4.197c1.904-.421 3.789.767 4.212 2.664"/><path fill="#e1000f" d="M569.561 213.012a2.01 2.01 0 0 1-2.27 1.705 2.007 2.007 0 0 1-1.711-2.261 2.009 2.009 0 0 1 3.981.556M589.812 227.518c-.173 1.265-1.346 2.127-2.615 1.955a2.3 2.3 0 0 1-1.962-2.606c.173-1.265 1.346-2.127 2.615-1.955a2.3 2.3 0 0 1 1.962 2.606M596.659 212.935a1.376 1.376 0 0 1-1.577 1.169 1.4 1.4 0 0 1-1.193-1.571 1.376 1.376 0 0 1 1.577-1.169c.77.115 1.308.804 1.193 1.571M582.908 206.4a2.013 2.013 0 0 1-2.27 1.706 2.007 2.007 0 0 1-1.711-2.261 2.013 2.013 0 0 1 2.269-1.706 2.01 2.01 0 0 1 1.712 2.261"/><path fill="#f29fc5" d="M588.677 203.794a2.01 2.01 0 0 1-2.269 1.706 2.01 2.01 0 0 1-1.712-2.261 2.014 2.014 0 0 1 2.27-1.706c1.115.153 1.884 1.169 1.711 2.261"/><path fill="#ffe000" d="M575.619 225.812a2.013 2.013 0 0 1-2.27 1.706 2.007 2.007 0 0 1-1.711-2.261 2.013 2.013 0 0 1 2.269-1.706 1.994 1.994 0 0 1 1.712 2.261M595.389 216.825a2.009 2.009 0 0 1-3.981-.556 2.013 2.013 0 0 1 2.27-1.705c1.096.134 1.865 1.15 1.711 2.261"/><path fill="#283276" d="M593.082 226.119a1.99 1.99 0 0 1-.635 2.76 2.006 2.006 0 0 1-2.769-.633 1.99 1.99 0 0 1 .634-2.759 2.024 2.024 0 0 1 2.77.632"/><path fill="#ffe000" d="M577.734 202.606a2.013 2.013 0 0 1-2.269 1.706 2.007 2.007 0 0 1-1.712-2.261 2.013 2.013 0 0 1 2.269-1.706 2.01 2.01 0 0 1 1.712 2.261"/><path fill="#008ecf" d="M585.388 197.605a3.707 3.707 0 0 1-3.711 3.698c-2.039 0-3.712-1.648-3.712-3.698a3.707 3.707 0 0 1 3.712-3.699 3.695 3.695 0 0 1 3.711 3.699M569.964 223.667a3.535 3.535 0 0 1-3.538 3.526 3.507 3.507 0 0 1-3.52-3.526 3.535 3.535 0 0 1 3.539-3.526 3.52 3.52 0 0 1 3.519 3.526M587.37 214.2c0 3.392-2.751 6.132-6.155 6.132s-6.154-2.74-6.154-6.132 2.75-6.133 6.154-6.133c3.385-.019 6.155 2.741 6.155 6.133"/><path fill="#283276" d="M608.698 202.07h6.231v1.552h-4.404v3.143h3.769v1.533h-3.769v4.906h-1.827zM616.391 205.193h1.634v.901c.558-.613 1.27-1.073 2.251-1.073.25 0 .5.038.711.115v1.61a3.6 3.6 0 0 0-.846-.115c-1.019 0-1.693.536-2.116 1.226v5.347h-1.634zM621.968 211.115c0-1.207.942-2.089 2.654-2.376l2.596-.422v-.422c0-.977-.731-1.59-1.769-1.59-.885 0-1.558.402-2.02 1.054l-1.23-.939c.711-.958 1.865-1.552 3.307-1.552 2.174 0 3.366 1.264 3.366 3.047v5.289h-1.635v-.901c-.577.709-1.577 1.15-2.577 1.15-1.615 0-2.692-.92-2.692-2.338m2.981.996c1 0 1.788-.479 2.269-1.245v-1.38l-2.173.364c-1 .173-1.423.613-1.423 1.207 0 .614.5 1.054 1.327 1.054M631.18 205.193h1.635v.786c.615-.632 1.404-1.092 2.558-1.092 1.769 0 3.135 1.188 3.135 3.507v4.809h-1.654v-4.752c0-1.265-.712-2.031-1.847-2.031-1.096 0-1.75.69-2.173 1.379v5.404h-1.654zM646.912 210.923l1.289.978c-.731.977-1.924 1.628-3.404 1.628-2.693 0-4.385-1.993-4.385-4.33 0-2.338 1.692-4.331 4.385-4.331 1.461 0 2.673.632 3.404 1.629l-1.289.977a2.57 2.57 0 0 0-2.115-1.073c-1.558 0-2.674 1.207-2.674 2.778 0 1.591 1.116 2.779 2.674 2.779a2.51 2.51 0 0 0 2.115-1.035M653.643 213.529c-2.769 0-4.423-1.993-4.423-4.33 0-2.396 1.538-4.331 4.077-4.331 2.212 0 3.654 1.514 3.654 3.545 0 .364-.038.728-.115.977h-5.943c.115 1.744 1.173 2.664 2.731 2.664.981 0 1.788-.422 2.289-1.092l1.192.958c-.731.977-1.962 1.609-3.462 1.609m-2.635-5.365h4.328c-.039-.997-.75-1.917-2.039-1.917-1.212 0-2.039.671-2.289 1.917M607.505 216.384h9.02v1.667h-3.596v9.467h-1.827v-9.467h-3.597zM617.314 219.489h1.635v.901c.557-.614 1.269-1.074 2.25-1.074.25 0 .5.039.711.115v1.61a3.6 3.6 0 0 0-.846-.115c-1.019 0-1.692.537-2.115 1.227v5.346h-1.635zM622.872 225.429c0-1.207.942-2.088 2.654-2.376l2.596-.422v-.421c0-.977-.73-1.591-1.769-1.591-.885 0-1.558.403-2.019 1.054l-1.231-.939c.711-.958 1.865-1.552 3.308-1.552 2.173 0 3.365 1.265 3.365 3.047v5.289h-1.634v-.901c-.577.709-1.577 1.15-2.577 1.15-1.597-.019-2.693-.92-2.693-2.338m2.981.978c1 0 1.789-.479 2.269-1.246v-1.38l-2.173.364c-1 .173-1.423.614-1.423 1.208.019.632.5 1.054 1.327 1.054M632.853 219.489l2.366 6.247 2.346-6.247h1.789l-3.058 8.029h-2.173l-3.039-8.029zM640.219 225.429c0-1.207.943-2.088 2.654-2.376l2.597-.422v-.421c0-.977-.731-1.591-1.77-1.591-.884 0-1.558.403-2.019 1.054l-1.231-.939c.712-.958 1.866-1.552 3.308-1.552 2.173 0 3.366 1.265 3.366 3.047v5.289h-1.635v-.901c-.577.709-1.577 1.15-2.577 1.15-1.616-.019-2.693-.92-2.693-2.338m2.981.978c1 0 1.789-.479 2.27-1.246v-1.38l-2.174.364c-1 .173-1.423.614-1.423 1.208 0 .632.5 1.054 1.327 1.054M651.316 219.489h-1.634v8.01h1.634zM655.644 215.58h-1.635v11.919h1.635zM649.528 217.055c0-.536.442-.977.981-.977s.981.441.981.977a.984.984 0 0 1-.981.978.996.996 0 0 1-.981-.978"/></g><g filter="url(#r)"><rect width="128" height="57" x="545.958" y="263.917" fill="#fff" rx="8"/><rect width="127" height="56" x="546.458" y="264.417" stroke="#e6e6e6" rx="7.5"/><g clip-path="url(#s)"><path fill="#000" d="M610.535 291.507a6.4 6.4 0 0 0 2.484-.434 6.3 6.3 0 0 0 2.11-1.354 6.1 6.1 0 0 0 1.394-2.054c.317-.77.471-1.594.453-2.423a6.23 6.23 0 0 0-1.998-4.243 6.54 6.54 0 0 0-4.443-1.732c-1.654 0-3.245.62-4.444 1.732a6.23 6.23 0 0 0-1.998 4.243 6 6 0 0 0 .456 2.422 6.1 6.1 0 0 0 1.394 2.053 6.3 6.3 0 0 0 2.108 1.353 6.4 6.4 0 0 0 2.484.437m0-10.005c2.102 0 3.628 1.57 3.628 3.74s-1.526 3.735-3.628 3.735-3.624-1.57-3.624-3.735 1.512-3.74 3.624-3.74M621.673 283.262l5.02 7.917h3.345V279.3h-2.747v7.916l-5.016-7.916h-3.345v11.879h2.743zM609.01 294.314l-4.593 11.879h2.91l1.13-3.001h4.492l1.131 3.001h2.909l-4.601-11.879zm3.063 6.558h-2.747l1.375-3.674zM621.818 296.366c.76 0 1.488.455 2.227 1.387l.117.142 2.015-1.78-.108-.11a5.4 5.4 0 0 0-1.893-1.496 5.5 5.5 0 0 0-2.375-.531c-2.277 0-3.994 1.508-3.994 3.516 0 2.356 1.883 3.163 3.396 3.812 1.059.454 1.978.852 1.978 1.622 0 .73-.49 1.152-1.347 1.152a3.3 3.3 0 0 1-1.407-.395 3.2 3.2 0 0 1-1.086-.959l-.116-.146-1.999 1.8.103.126a5.5 5.5 0 0 0 2.023 1.541c.79.35 1.653.513 2.52.475 2.385 0 4.077-1.501 4.11-3.65 0-2.401-1.899-3.208-3.42-3.857-1.048-.446-1.954-.811-1.954-1.623a1.085 1.085 0 0 1 .382-.763 1.12 1.12 0 0 1 .828-.263M626.834 296.78h3.649v9.413h2.743v-9.413h3.649v-2.466h-10.041zM638.641 306.193h7.239v-2.283h-4.492v-2.632h3.819v-2.28h-3.819v-2.401h4.492v-2.283h-7.239zM654.67 300.977a3.3 3.3 0 0 0 1.372-1.262 3.2 3.2 0 0 0 .448-1.787c0-2.231-1.662-3.614-4.376-3.614h-3.79v11.879h2.747v-4.668h.964l3.162 4.668h3.246zm-.989-3.082c0 .856-.524 1.347-1.434 1.347h-1.176v-2.645h1.176c.885 0 1.434.499 1.434 1.298"/><path fill="#34cb6a" d="M562.443 293.333v3.654l12.252 4.445v-2.989l-8.919-3.281 8.919-3.285v-2.985z"/><path fill="#000" d="M562.443 288.551v3.654l12.252 4.441v-2.985l-8.919-3.285 8.919-3.281v-2.989z"/><path fill="#000" d="M562.443 298.102v3.654l12.252 4.445v-2.989l-8.919-3.285 8.919-3.281v-2.985z"/><path fill="#34cb6a" d="M562.443 283.781v3.654l12.252 4.441v-2.985l-8.919-3.285 8.919-3.281v-2.985z"/><path fill="#000" d="M598.94 279.284h-3.74l-3.026 7.937-3.021-7.937h-3.74l-4.555 11.956h3.063l3.362-8.704 3.362 8.7v.004h3.063l3.362-8.704 3.362 8.704h3.063zM598.94 294.298h-3.74l-3.026 7.933-3.021-7.933h-3.74l-4.555 11.952h3.063l3.362-8.7 3.362 8.7h3.063l3.362-8.7 3.362 8.7h3.063z"/></g></g><defs><clipPath id="a"><path fill="#fff" d="M0 107h392v244H0z"/></clipPath><clipPath id="c"><path fill="#fff" d="M282.587 77.03h317.578v26.3H282.587z"/></clipPath><clipPath id="d"><path fill="#fff" d="M282.587 78.03a1 1 0 0 1 1-1h315.577a1 1 0 0 1 1 1v25.301H282.587z"/></clipPath><clipPath id="e"><path fill="#fff" d="M293.107 82.291h296.537v21.04H293.107z"/></clipPath><clipPath id="f"><path fill="#fff" d="M282.587 187.745h317.578v26.3H282.587z"/></clipPath><clipPath id="g"><path fill="#fff" d="M282.587 188.745a1 1 0 0 1 1-1h315.577a1 1 0 0 1 1 1v25.301H282.587z"/></clipPath><clipPath id="h"><path fill="#fff" d="M293.107 193.005h307.058v21.04H293.107z"/></clipPath><clipPath id="i"><path fill="#fff" d="M282.587 245.816h317.578v26.3H282.587z"/></clipPath><clipPath id="j"><path fill="#fff" d="M282.587 246.816a1 1 0 0 1 1-1h315.577a1 1 0 0 1 1 1v25.301H282.587z"/></clipPath><clipPath id="k"><path fill="#fff" d="M293.107 251.077h296.537v21.04H293.107z"/></clipPath><clipPath id="l"><path fill="#fff" d="M579.124 254.385h10.52v10.52h-10.52z"/></clipPath><clipPath id="n"><path fill="#fff" d="M538.917 61.038h140v20h-140z"/></clipPath><clipPath id="p"><path fill="#fff" d="M557.917 127.896h104v22h-104z"/></clipPath><clipPath id="s"><path fill="#fff" d="M562.443 278.972h96v27.55h-96z"/></clipPath><filter id="b" width="380.84" height="370.897" x="250.81" y=".103" color-interpolation-filters="sRGB" filterUnits="userSpaceOnUse"><feFlood flood-opacity="0" result="BackgroundImageFix"/><feColorMatrix in="SourceAlpha" result="hardAlpha" values="0 0 0 0 0 0 0 0 0 0 0 0 0 0 0 0 0 0 127 0"/><feOffset dy="10"/><feGaussianBlur stdDeviation="5"/><feColorMatrix values="0 0 0 0 0 0 0 0 0 0 0 0 0 0 0 0 0 0 0.16 0"/><feBlend in2="BackgroundImageFix" result="effect1_dropShadow_2_22706"/><feBlend in="SourceGraphic" in2="effect1_dropShadow_2_22706" result="shape"/></filter><filter id="m" width="184.404" height="75.161" x="517.554" y="41.725" color-interpolation-filters="sRGB" filterUnits="userSpaceOnUse"><feFlood flood-opacity="0" result="BackgroundImageFix"/><feColorMatrix in="SourceAlpha" result="hardAlpha" values="0 0 0 0 0 0 0 0 0 0 0 0 0 0 0 0 0 0 127 0"/><feOffset dy="10"/><feGaussianBlur stdDeviation="5"/><feColorMatrix values="0 0 0 0 0 0 0 0 0 0 0 0 0 0 0 0 0 0 0.16 0"/><feBlend in2="BackgroundImageFix" result="effect1_dropShadow_2_22706"/><feBlend in="SourceGraphic" in2="effect1_dropShadow_2_22706" result="shape"/></filter><filter id="o" width="154.659" height="74.839" x="532.427" y="111.194" color-interpolation-filters="sRGB" filterUnits="userSpaceOnUse"><feFlood flood-opacity="0" result="BackgroundImageFix"/><feColorMatrix in="SourceAlpha" result="hardAlpha" values="0 0 0 0 0 0 0 0 0 0 0 0 0 0 0 0 0 0 127 0"/><feOffset dy="10"/><feGaussianBlur stdDeviation="5"/><feColorMatrix values="0 0 0 0 0 0 0 0 0 0 0 0 0 0 0 0 0 0 0.16 0"/><feBlend in2="BackgroundImageFix" result="effect1_dropShadow_2_22706"/><feBlend in="SourceGraphic" in2="effect1_dropShadow_2_22706" result="shape"/></filter><filter id="q" width="140" height="89" x="539.958" y="180.906" color-interpolation-filters="sRGB" filterUnits="userSpaceOnUse"><feFlood flood-opacity="0" result="BackgroundImageFix"/><feColorMatrix in="SourceAlpha" result="hardAlpha" values="0 0 0 0 0 0 0 0 0 0 0 0 0 0 0 0 0 0 127 0"/><feOffset dy="10"/><feGaussianBlur stdDeviation="5"/><feColorMatrix values="0 0 0 0 0 0 0 0 0 0 0 0 0 0 0 0 0 0 0.16 0"/><feBlend in2="BackgroundImageFix" result="effect1_dropShadow_2_22706"/><feBlend in="SourceGraphic" in2="effect1_dropShadow_2_22706" result="shape"/></filter><filter id="r" width="148" height="77" x="535.958" y="263.917" color-interpolation-filters="sRGB" filterUnits="userSpaceOnUse"><feFlood flood-opacity="0" result="BackgroundImageFix"/><feColorMatrix in="SourceAlpha" result="hardAlpha" values="0 0 0 0 0 0 0 0 0 0 0 0 0 0 0 0 0 0 127 0"/><feOffset dy="10"/><feGaussianBlur stdDeviation="5"/><feColorMatrix values="0 0 0 0 0 0 0 0 0 0 0 0 0 0 0 0 0 0 0.16 0"/><feBlend in2="BackgroundImageFix" result="effect1_dropShadow_2_22706"/><feBlend in="SourceGraphic" in2="effect1_dropShadow_2_22706" result="shape"/></filter></defs></svg>