<svg xmlns="http://www.w3.org/2000/svg" width="212" height="145" fill="none" viewBox="0 0 212 145"><path fill="#6a6af4" d="m184.701 74.523-.003-.003V53.57a3.34 3.34 0 0 0-3.342-3.343H45.097a3.34 3.34 0 0 0-3.341 3.343v74.375h139.602a3.343 3.343 0 0 0 3.342-3.342l.003-28.745"/><path fill="#2e186a" fill-rule="evenodd" d="M41.756 57.119c0-.252.204-.456.455-.456h136.544a.456.456 0 0 1 0 .912H42.211a.456.456 0 0 1-.455-.456" clip-rule="evenodd"/><path fill="#2e186a" fill-rule="evenodd" d="M174.909 50.683c0-.251.204-.456.455-.456a3.846 3.846 0 0 1 3.846 3.847v70.731c0 2.097-1.7 3.798-3.797 3.798a.456.456 0 1 1 0-.912 2.886 2.886 0 0 0 2.886-2.886v-70.73a2.935 2.935 0 0 0-2.935-2.936.456.456 0 0 1-.455-.456" clip-rule="evenodd"/><path fill="#2e186a" d="M49.95 55.546a1.765 1.765 0 1 0 0-3.53 1.765 1.765 0 0 0 0 3.53M55.831 55.546a1.765 1.765 0 1 0 0-3.53 1.765 1.765 0 0 0 0 3.53M61.71 55.546a1.765 1.765 0 1 0 0-3.53 1.765 1.765 0 0 0 0 3.53"/><path fill="#ff8d7e" d="m63.767 99.409-18.916-2.303s-5.22-1.331-7.376.59c-2.53.011-4.694 1.008-6.537 2.565-1.502-.328-5.246-.76-6.065 2.824-.799 3.501-1.42 8.564-1.658 10.656-1.017 3.223-1.448 5.643-1.448 5.643l-14.99-.067c-4.737.272-7.663 6.025-6.536 12.85 1.103 6.672 5.672 11.9 10.303 11.876l29.583.07.072-.151 8.425-24.801c-1.148-1.226-2.357-2.522-2.39-3.675-.12-4.192 2.537-8.972 2.537-8.972s2.55.073 9.9.368c7.352.295 5.098-7.475 5.098-7.475z"/><path fill="#fff" fill-rule="evenodd" d="m46.351 96.844-.116.441.117-.44a.456.456 0 0 1-.233.88l-.016-.003-.083-.015a3 3 0 0 0-.344-.027c-.3-.005-.728.031-1.224.206-.978.343-2.29 1.246-3.391 3.589a117 117 0 0 0-2.773 6.433 117 117 0 0 0-1.022 2.664l-.056.152-.014.039-.004.012-.429-.154-.429-.154.005-.014.015-.04.056-.155a103 103 0 0 1 1.031-2.687 118 118 0 0 1 2.795-6.484c1.19-2.53 2.672-3.625 3.914-4.061a4.4 4.4 0 0 1 1.542-.258 3.5 3.5 0 0 1 .6.062l.052.013h.005zm-9.588 13.777-.429-.154a.456.456 0 1 0 .858.308zM37.475 97.695l-.257-.376-.001.001-.003.002-.006.004-.019.014-.064.048a5 5 0 0 0-.222.186c-.188.166-.451.42-.767.782-.633.724-1.476 1.877-2.356 3.619-.876 1.734-1.539 3.464-1.983 4.759a40 40 0 0 0-.661 2.126l-.008.031-.003.009v.003l.44.115-.44-.115a.456.456 0 0 0 .881.231v-.002l.002-.007.008-.027.03-.111q.04-.148.123-.427c.11-.368.273-.896.49-1.531.436-1.269 1.084-2.958 1.935-4.643" clip-rule="evenodd"/><path fill="#fff" d="m72.197 94.716-3.16 8.954-28.42 25.87-3.931-3.427-2.888-3.224 28.88-26.262z"/><path fill="#2e186a" d="m70.706 98.942 1.491-4.226-4.739.952z"/><path fill="#2e186a" fill-rule="evenodd" d="M67.182 100.707a.455.455 0 0 1-.04.643l-25.679 22.636a.456.456 0 0 1-.602-.684l25.678-22.635a.455.455 0 0 1 .643.04M65.251 98.7a.456.456 0 0 1-.043.643l-25.973 22.668a.456.456 0 0 1-.6-.687L64.61 98.656a.456.456 0 0 1 .642.044" clip-rule="evenodd"/><path fill="#6a6af4" d="m38.513 121.514-4.633 1.256-1.227 4.642 3.404 3.385 4.633-1.257 1.227-4.641z"/><path fill="#2e186a" d="M37.284 127.674a1.519 1.519 0 1 0 0-3.038 1.519 1.519 0 0 0 0 3.038"/><path fill="#ff8d7e" d="M45.93 125.438s.343-.931 2.696-6.274c2.352-5.344 6.077-9.853 10.684-8.578s.93 8.578.93 8.578-5.464 14.926-7.743 17.426-5.219 7.672-12.79 7.365M147.929 120.608c1.488 5.599 10.567 5.769 9.71-2.983-.006-3.89 7.143-4.821 10.57-.742q0 0 .003.005 0-.002-.003-.005s.851.404 1.791 5.41c1.233 6.474-3.709 15.597-9.949 9.733-5.787-2.901-9.563 4.396-2.716 10.517 5.558 4.968 16.846 1.913 21.231-4.799l27 1.044c5.992.024 10.291-29.841 1.191-30.87l-17.807-.807s-11.587-12.913-14.737-13.963-4.684 2.306-4.684 2.306-6.326-6.3-9.522-6.18c-4.462.168-3.767 3.379-3.767 3.379s-6.709-2.334-6.532 3.851c.085 3.025 3.388 6.393 6.71 9.026q-.147.036-.293.076c-8.284 2.312-9.777 9.052-8.195 15.004zm20.312-3.687q.014.02.029.034zm.04.046c.009.01.012.014 0 0"/><path fill="#fff" fill-rule="evenodd" d="M155.37 104.913c2.84-.793 5.912-.693 8.619.059a.457.457 0 0 1-.244.878c-2.564-.712-5.467-.803-8.129-.059q-.38.106-.738.224a.457.457 0 0 1-.283-.867q.38-.123.774-.235zM155.165 91.66a.455.455 0 0 1 .635-.106c4.025 2.876 8.214 6.927 11.388 10.246a144 144 0 0 1 3.87 4.213 102 102 0 0 1 1.388 1.604l.075.089.02.023.006.007v.001l-.349.292-.35.292-.006-.007-.018-.022-.074-.087-.287-.338a134 134 0 0 0-4.934-5.437c-3.162-3.307-7.304-7.308-11.258-10.134a.455.455 0 0 1-.106-.636m17.325 16.719a.456.456 0 0 1-.642-.058l.35-.292.349-.292a.455.455 0 0 1-.057.642M168.954 94.189a.456.456 0 0 1 .644.021l-.333.312-.333.31a.456.456 0 0 1 .022-.643m.311.333-.333.31.117.126.333.357 1.199 1.294c1 1.081 2.348 2.547 3.744 4.086a271 271 0 0 1 4.026 4.524c1.197 1.383 2.111 2.498 2.473 3.056a.455.455 0 1 0 .765-.495c-.403-.623-1.363-1.787-2.549-3.158a275 275 0 0 0-4.04-4.54 576 576 0 0 0-5.285-5.746l-.117-.126zM180.807 132.227a.456.456 0 0 1 .427.483c-.117 1.92-.753 3.276-1.715 4.814a.455.455 0 1 1-.772-.483c.921-1.473 1.473-2.679 1.578-4.387a.455.455 0 0 1 .482-.427" clip-rule="evenodd"/><path fill="#fff" d="M91.826 99.86V84.024a7.79 7.79 0 0 0 4.491-7.056c0-3.932-2.912-7.175-6.695-7.712v6.942a1.123 1.123 0 0 1-2.245 0v-6.936c-3.762.555-6.653 3.788-6.653 7.706 0 3.124 1.84 5.81 4.492 7.055V99.86a7.79 7.79 0 0 0-4.492 7.056c0 3.918 2.89 7.151 6.653 7.705v-6.935a1.123 1.123 0 0 1 2.245 0v6.941c3.783-.536 6.695-3.78 6.695-7.711 0-3.124-1.84-5.81-4.491-7.056"/><path fill="#ff8d7e" d="M112.372 76.897h-1.41v26.53h1.41z"/><path fill="#ff8d7e" d="M113.939 69.206h-4.288l-1.636 8.332h7.56z"/><path fill="#2e186a" d="M119.073 96.547h-14.8v1.502h14.8z"/><path fill="#2e186a" d="M107.504 97.297h8.073v14.823a4.04 4.04 0 0 1-4.036 4.037 4.04 4.04 0 0 1-4.036-4.037z"/><path fill="#fff" d="m134.022 67.778 4.563 8.329.32 38.434h-9.502l-.305-38.392z"/><path fill="#ff8d7e" d="m136.174 71.708-2.152-3.93-2.452 4.167z"/><path fill="#2e186a" d="M88.484 82.12a1.367 1.367 0 1 0 0-2.734 1.367 1.367 0 0 0 0 2.734M88.484 103.997a1.367 1.367 0 1 0 0-2.734 1.367 1.367 0 0 0 0 2.734"/><path fill="#2e186a" fill-rule="evenodd" d="M135.679 75.613a.456.456 0 0 1 .457.454l.152 36.687a.456.456 0 0 1-.911.003l-.152-36.687a.456.456 0 0 1 .454-.457M132.033 75.613a.456.456 0 0 1 .458.454l.152 36.687a.456.456 0 0 1-.912.003l-.152-36.687a.456.456 0 0 1 .454-.457" clip-rule="evenodd"/><path fill="#fff" d="M125.399 131.299h26.5v-6.654h-26.5l-6.081 3.327zM151.899 121.316a5.396 5.396 0 0 1 5.392 5.394v2.984a5.395 5.395 0 0 1-5.392 5.393v-13.771"/><path fill="#2e186a" fill-rule="evenodd" d="M125.84 123.148a.456.456 0 0 1 .568.305l2.638 8.72a.455.455 0 1 1-.872.264l-2.638-8.72a.456.456 0 0 1 .304-.569M129.144 123.148a.456.456 0 0 1 .568.304l2.64 8.721a.457.457 0 0 1-.873.264l-2.64-8.72a.46.46 0 0 1 .305-.569M132.449 123.148a.456.456 0 0 1 .568.305l2.638 8.72a.455.455 0 1 1-.872.264l-2.639-8.72a.46.46 0 0 1 .305-.569M135.752 123.148a.456.456 0 0 1 .568.305l2.639 8.72a.456.456 0 0 1-.873.264l-2.638-8.72a.456.456 0 0 1 .304-.569M139.056 123.148a.456.456 0 0 1 .568.305l2.638 8.72a.455.455 0 1 1-.872.264l-2.638-8.72a.456.456 0 0 1 .304-.569M142.359 123.148a.457.457 0 0 1 .569.305l2.638 8.72a.455.455 0 1 1-.872.264l-2.639-8.72a.457.457 0 0 1 .304-.569M154.196 128.202c0-.252.204-.456.455-.456h2.639a.456.456 0 0 1 0 .911h-2.639a.455.455 0 0 1-.455-.455" clip-rule="evenodd"/><path fill="#ff8d7e" d="M120.325 22.222c-1.913-1.012-4.385-1.634-7.624-1.7 2.306-5.65 8.049-12.609 8.049-12.609s7.839-5.446-10.49-7.868C96.543-.762 91.125 9.5 91.125 9.5S77.87 26.45 80.06 41.438c-2.075 4.497-3.497 13.836 1.652 20.984 2.94 4.535 7.07.462 4.765-5.226-1.826-3.835 0-7.226 0-7.226s3.459 5.15 9.683 6.841 8.837-1.384 8.837-1.384 4.475.248 4.159-2.066c2.425 1.76 6.356 1.68 9.239-.905 2.881-2.584 4.892-5.252 2.587-6.983-2.306-1.729-4.066-.071-5.764 1.845-2.101 2.37-5.225-2.396-5.43-4.394-.406-3.949-1.333-8.979.511-9.44.529-.131 1.322-.427 2.2-.722 1.447-3.991 4.875-7.803 7.827-10.54"/><path fill="#fff" fill-rule="evenodd" d="m93.88 46.38-.437.13zv.003l.006.016.022.068q.03.091.094.268a14.881 14.881 0 0 0 2.24 3.95c1.718 2.153 4.486 4.286 8.754 4.286a.456.456 0 1 1 0 .911c-4.621 0-7.629-2.325-9.466-4.63a15.8 15.8 0 0 1-2.382-4.2 9 9 0 0 1-.131-.38l-.007-.022-.002-.006-.001-.002v-.001l.436-.131M101.229 42.513a26 26 0 0 0-.454-.044v.009l-.002.02-.005.071q-.005.09-.009.258c-.002.22.004.534.039.92.071.773.26 1.838.729 3.02.944 2.374 3.012 5.18 7.452 7.013a.455.455 0 1 0 .348-.842c-4.201-1.736-6.095-4.352-6.953-6.509a10 10 0 0 1-.668-2.765 8 8 0 0 1-.028-1.042l.003-.052.001-.011.001-.002a.456.456 0 0 0-.907-.089z" clip-rule="evenodd"/><path fill="#2e186a" d="M128.811 49.684a3.19 3.19 0 1 0-.002-6.38 3.19 3.19 0 0 0 .002 6.38"/><path fill="#fff" d="M143.164 48.848v-4.71h-3.519a11 11 0 0 0-1.481-3.596l2.482-2.482-3.33-3.33-2.465 2.466a11 11 0 0 0-3.612-1.523v-3.46h-4.708v3.425a11 11 0 0 0-3.671 1.498l-2.406-2.406-3.33 3.33 2.389 2.39a11 11 0 0 0-1.54 3.688h-3.367v4.71h3.367c.289 1.336.817 2.58 1.54 3.689l-2.389 2.39 3.33 3.33 2.406-2.407a11 11 0 0 0 3.671 1.498v3.426h4.708v-3.46a11 11 0 0 0 3.612-1.523l2.465 2.466 3.33-3.33-2.482-2.483a11 11 0 0 0 1.481-3.596zm-14.353 4.482a6.836 6.836 0 0 1-6.835-6.837 6.836 6.836 0 1 1 6.835 6.837"/><path fill="#ff8d7e" d="M120.325 22.222c-2.952 2.737-6.38 6.55-7.827 10.54 2.182-.732 4.904-1.455 5.48.353.806 2.537.691 6.572 4.611 5.65s3.1-11.325 1.026-13.862a10.6 10.6 0 0 0-3.289-2.681z"/></svg>