<svg xmlns="http://www.w3.org/2000/svg" width="575" height="280" fill="none" viewBox="0 0 575 280"><path fill="#6a6af4" d="M356.546 58H115.682a5.08 5.08 0 0 0-5.063 5.063v143.094a5.08 5.08 0 0 0 5.063 5.062h94.589L193.119 279.5h95.5l-18.683-68.284h86.61a5.075 5.075 0 0 0 5.073-5.059V63.063A5.07 5.07 0 0 0 356.546 58"/><path fill="#fff" d="M239.119 245c5.799 0 10.5-4.701 10.5-10.5s-4.701-10.5-10.5-10.5-10.5 4.701-10.5 10.5 4.701 10.5 10.5 10.5"/><path fill="#2e186a" fill-rule="evenodd" d="M261.666 210.035c.73-.165 1.46.27 1.631.972l13.286 54.389c.171.702-.281 1.404-1.011 1.569s-1.46-.27-1.631-.972l-13.286-54.389c-.171-.702.282-1.404 1.011-1.569" clip-rule="evenodd"/><path fill="#fff" d="M334.853 67H127.385c-2.632 0-4.766 2.145-4.766 4.79v121.42c0 2.645 2.134 4.79 4.766 4.79h207.468c2.632 0 4.766-2.145 4.766-4.79V71.79c0-2.645-2.134-4.79-4.766-4.79"/><path fill="#2e186a" d="M263.028 266.89H98.209c-1.983 0-3.59 1.72-3.59 3.843v2.314c0 2.122 1.607 3.843 3.59 3.843h164.819c1.983 0 3.591-1.721 3.591-3.843v-2.314c0-2.123-1.608-3.843-3.591-3.843m-200.996 0H38.205c-1.98 0-3.586 1.72-3.586 3.843v2.314c0 2.122 1.605 3.843 3.586 3.843h23.827c1.981 0 3.587-1.721 3.587-3.843v-2.314c0-2.123-1.606-3.843-3.587-3.843"/><path fill="#fcfcfc" d="M169.662 237.89h14.916c2.131 0 4.175.888 5.682 2.47s2.356 3.729 2.359 5.967v20.563h-31v-20.563c.002-2.239.851-4.386 2.359-5.968s3.553-2.47 5.684-2.469"/><path fill="#2e186a" fill-rule="evenodd" d="M169.931 239.03c-1.927 0-3.775.802-5.139 2.23-1.364 1.429-2.131 3.367-2.133 5.388v20.101h29.92v-20.1c-.003-2.021-.77-3.959-2.133-5.388s-3.21-2.231-5.137-2.231zm.001-2.14h15.377c2.467 0 4.834 1.027 6.579 2.857 1.745 1.829 2.728 4.311 2.731 6.899v21.173c0 .591-.457 1.071-1.02 1.071h-31.96c-.564 0-1.02-.48-1.02-1.071v-21.173c.003-2.589.985-5.071 2.732-6.901 1.746-1.829 4.113-2.856 6.58-2.855z" clip-rule="evenodd"/><path stroke="#2e186a" stroke-linecap="round" stroke-linejoin="round" stroke-width="2" d="M181.619 244c1.59 0 3.115.632 4.24 1.757a6 6 0 0 1 1.76 4.243"/><path fill="#ff8d7e" d="M108.697 191.848c3.871 3.524 9.152-4.991 9.152-4.991s9.033-.874 13.894-14.432-.211-26.431-.211-26.431 8.605.969 13.347 9.193c7.547 11.464 20.372 9.075 15.767-2.081-6.597-18.528-25.671-27.806-36.637-29.724-24.874-23.104-73.174-20.376-73.174-20.376s-25.903-3.13-42.02 23.043c-19.047 36.664 1.072 29.233 1.072 29.233s20.221-1.671 33.613 1.294c-6.887 10.285-7.933 18.539-5.91 25.571 2.022 7.031 20.18 21.754 26.91 15.746s-.871-10.931-4.52-15.635c-3.648-4.703 7.318-10.809 10.536-13.601s24.406 11.036 35.53 33.682c11.123 22.646 28.249 30.67 36.346 29.427s12.364-9.427 2.86-17.235-37.706-45.603-37.706-45.603"/><path fill="#2e186a" fill-rule="evenodd" d="M118.987 152.114a.95.95 0 0 1 1.377.163l-.766.642c.766-.642.766-.642.767-.641l.001.001.002.004.009.012.031.042.112.153c.094.133.23.328.396.578.333.502.792 1.232 1.307 2.158a36.7 36.7 0 0 1 3.188 7.68c1.815 6.38 2.232 14.962-3.434 23.541a.95.95 0 0 1-1.364.258 1.063 1.063 0 0 1-.245-1.433c5.233-7.924 4.863-15.812 3.166-21.776a34.5 34.5 0 0 0-3.003-7.231 31 31 0 0 0-1.221-2.018q-.233-.347-.358-.521l-.093-.129-.022-.029-.004-.006-.001-.001m.155-1.447a1.067 1.067 0 0 0-.155 1.447Zm-17.963 9.993a.99.99 0 0 1 1.432.207l25.955 35.861c.341.47.253 1.141-.198 1.498a.993.993 0 0 1-1.432-.207l-25.955-35.861a1.1 1.1 0 0 1 .198-1.498m89.444 57.595c.509.274.751.923.54 1.451l-3.114 7.786c-.211.527-.795.732-1.304.458-.508-.274-.75-.924-.539-1.451l3.114-7.786c.211-.527.795-.733 1.303-.458m-10.174-1.276c.673-.176 1.259.097 1.309.609l.734 7.556c.05.511-.455 1.068-1.128 1.244s-1.258-.098-1.308-.609l-.735-7.556c-.049-.512.456-1.069 1.128-1.244m8.846 14.75c-.227-.503.053-1.122.627-1.382l7.943-3.595c.574-.26 1.224-.062 1.452.441s-.053 1.121-.627 1.381l-7.943 3.595c-.574.26-1.224.063-1.452-.44M13.619 277.89c0-.553.458-1 1.024-1h431.951c.566 0 1.025.447 1.025 1s-.459 1-1.025 1H14.644a1.013 1.013 0 0 1-1.025-1" clip-rule="evenodd"/><path fill="#fcfcfc" d="M381.619 223c-6.401-1.939-16.402-7.183-26.275-21.105-9.873-13.921-2.694-23.943 7.074-16.196 9.769 7.748 19.201 37.301 19.201 37.301"/><path fill="#2e186a" fill-rule="evenodd" d="M353.411 186.188c-1.494 2.748-1.091 8.271 3.762 15.11 8.794 12.393 17.645 17.754 23.829 20.055a198 198 0 0 0-5.252-13.695c-1.779-4.151-3.853-8.524-6.08-12.328-2.239-3.827-4.581-6.988-6.87-8.801-2.323-1.842-4.375-2.532-5.953-2.476-1.533.055-2.716.811-3.436 2.135m29.198 36.787.96-.316-.007-.023-.021-.065-.082-.253a182 182 0 0 0-1.527-4.426 199 199 0 0 0-4.33-11.051c-1.797-4.195-3.91-8.652-6.196-12.558-2.273-3.884-4.77-7.315-7.362-9.37-2.558-2.027-5.063-2.987-7.268-2.909-2.249.081-4.073 1.245-5.133 3.194-2.066 3.799-1.122 10.233 3.891 17.298 9.994 14.085 20.173 19.458 26.786 21.461a1 1 0 0 0 1.011-.266c.262-.272.354-.67.238-1.032z" clip-rule="evenodd"/><path fill="#fcfcfc" d="M382.721 223c-3.816-8.747-10.904-24.893-12.001-40.243-1.51-21.109 14.219-26.037 18.921-11.218 7.025 22.234-6.92 51.461-6.92 51.461"/><path fill="#2e186a" fill-rule="evenodd" d="M378.932 164.658c-3.569 1.744-6.925 7.675-6.218 18.039.95 13.934 6.689 28.58 10.437 37.651.293-.728.643-1.626 1.029-2.67a116 116 0 0 0 3.798-12.347c2.469-10.012 4.062-22.629.801-33.451-1.071-3.537-2.728-5.76-4.477-6.882-1.724-1.106-3.614-1.198-5.37-.34m4.212 58.301.905.444.003-.006.008-.018.007-.015.023-.052.113-.256c.098-.225.24-.555.417-.981.355-.853.853-2.093 1.429-3.65a118 118 0 0 0 3.868-12.576c2.499-10.132 4.202-23.21.772-34.592v-.001c-1.169-3.862-3.063-6.572-5.336-8.031-2.299-1.474-4.904-1.609-7.272-.452-4.68 2.287-8.095 9.356-7.364 20.072 1.049 15.386 7.756 31.509 11.404 40.275l.104.252c.156.375.509.621.902.628a1 1 0 0 0 .922-.596z" clip-rule="evenodd"/><path fill="#fcfcfc" d="M409.888 202.173c9.885-14.122 2.694-24.294-7.073-16.437-9.766 7.858-14.266 21.993-19.196 37.264-.014 0 16.384-6.705 26.269-20.827"/><path fill="#2e186a" fill-rule="evenodd" d="M414.561 186.167c2.134 3.761 1.159 10.129-4.02 17.121-5.204 7.024-12.101 12.18-17.664 15.571a77 77 0 0 1-7.02 3.803c-.885.42-1.597.734-2.089.945-.246.105-.438.184-.568.238l-.149.06-.031.012a1.1 1.1 0 0 1-.413.083 1.45 1.45 0 0 1-.63-1.219l-.358-.116.145-.424c2.485-7.273 4.901-14.345 7.93-20.552 3.09-6.333 6.854-11.845 12.068-15.808 2.638-2.006 5.224-2.955 7.5-2.876 2.321.08 4.204 1.232 5.299 3.162m-30.218 34.952c2.28-6.654 4.508-12.975 7.233-18.559 3.019-6.186 6.61-11.387 11.468-15.08 2.397-1.822 4.515-2.504 6.144-2.448 1.583.055 2.805.805 3.549 2.116 1.543 2.719 1.127 8.186-3.886 14.953-4.989 6.734-11.643 11.724-17.08 15.039a75 75 0 0 1-7.428 3.979m-1.329 2.8h.002z" clip-rule="evenodd"/><path fill="#fcfcfc" d="M382.619 227.998c-.337-.442 1.236-7.312-11.91-15.518-13.145-8.207-16.171-5.554-17.855-2.556s5.956 10.094 14.149 14.195c8.194 4.102 15.616 3.879 15.616 3.879"/><path fill="#2e186a" fill-rule="evenodd" d="M357.67 205c3.011-.014 7.398 1.586 14.191 5.881 6.901 4.363 10.043 8.438 11.477 11.585.717 1.572.994 2.884 1.114 3.842.054.434.075.793.089 1.043l.004.067.013.19a1.04 1.04 0 0 1-.949 1.389l-.032-1.04.031 1.04h-.003l-.007.001h-.021l-.076.001h-.278a24 24 0 0 1-1.028-.033 35 35 0 0 1-3.663-.4 39.5 39.5 0 0 1-11.518-3.729c-4.308-2.184-8.478-5.167-11.37-8.029-1.441-1.426-2.61-2.866-3.306-4.202-.671-1.289-1.042-2.762-.345-4.018.461-.832 1.066-1.739 1.984-2.433.941-.712 2.14-1.148 3.693-1.155m24.75 21.893a8 8 0 0 0-.036-.328c-.097-.784-.326-1.887-.941-3.236-1.229-2.695-4.05-6.488-10.696-10.69-6.754-4.27-10.699-5.569-13.067-5.557-1.137.005-1.89.313-2.446.732-.577.437-1.013 1.05-1.42 1.783-.171.309-.208.934.372 2.048.556 1.067 1.558 2.333 2.924 3.684 2.722 2.694 6.711 5.555 10.846 7.652 4.104 2.08 8.019 3.065 10.907 3.53 1.443.232 2.626.333 3.442.376z" clip-rule="evenodd"/><path fill="#fcfcfc" d="M383.619 227.998c.337-.442-1.237-7.312 11.909-15.518 13.146-8.207 16.171-5.554 17.856-2.556 1.684 2.998-5.957 10.094-14.15 14.195s-15.615 3.879-15.615 3.879"/><path fill="#2e186a" fill-rule="evenodd" d="M408.558 207.082c-2.368-.012-6.314 1.287-13.068 5.557-6.646 4.202-9.467 7.995-10.695 10.69-.616 1.349-.844 2.452-.942 3.236a10 10 0 0 0-.036.328l.115-.006c.817-.043 2-.144 3.442-.376a37.5 37.5 0 0 0 10.907-3.53c4.136-2.097 8.124-4.958 10.846-7.652 1.366-1.351 2.368-2.617 2.924-3.684.581-1.114.543-1.739.372-2.048-.407-.733-.842-1.346-1.42-1.783-.555-.419-1.308-.727-2.445-.732m-25.898 20.875-.031 1.04a1.04 1.04 0 0 1-.95-1.389c.003-.041.008-.1.013-.19l.004-.067c.015-.25.036-.609.09-1.043.119-.958.397-2.27 1.113-3.842 1.434-3.147 4.576-7.222 11.477-11.585 6.793-4.295 11.18-5.895 14.192-5.881 1.552.007 2.751.443 3.692 1.155.918.694 1.524 1.601 1.985 2.433.696 1.256.326 2.729-.346 4.018-.696 1.336-1.864 2.776-3.306 4.202-2.892 2.862-7.062 5.845-11.37 8.029a39.5 39.5 0 0 1-11.518 3.729 35 35 0 0 1-3.662.4 24 24 0 0 1-1.307.033l-.075-.001h-.022l-.007-.001h-.003zm-.987-.293v-.002z" clip-rule="evenodd"/><path fill="#ffc29e" d="m371.205 278-15.586-17.453L369.407 229h28.908l13.304 32.09L396.514 278z"/><g filter="url(#a)"><rect width="392.079" height="169.055" x="171.619" fill="#fff" rx="8"/><rect width="391.079" height="168.055" x="172.119" y=".5" stroke="#e6e6e6" rx="7.5"/></g><rect width="362.974" height="107.392" x="184.984" y="44.8" fill="#f6f6f6" rx="6"/><path fill="#161616" d="M433.053 64.665c1.296 0 2.112.576 2.7 1.428l-.852.66c-.492-.732-1.068-1.104-1.836-1.104-1.536 0-2.292 1.272-2.352 3.348.6-.6 1.392-.936 2.316-.936 1.584 0 2.664 1.188 2.664 2.664 0 1.524-1.08 2.82-2.892 2.82-1.968 0-3.204-1.392-3.204-4.308 0-2.724 1.068-4.572 3.456-4.572m-.192 4.368c-.84 0-1.596.36-2.1 1.08.18 1.776.948 2.448 2.016 2.448 1.128 0 1.788-.792 1.788-1.8 0-.972-.72-1.728-1.704-1.728m-10.183 4.272v-.972l2.844-2.928c.984-1.032 1.428-1.5 1.428-2.388 0-.876-.636-1.38-1.488-1.38-.888 0-1.464.444-1.956 1.26l-.888-.54c.684-1.068 1.62-1.692 2.928-1.692 1.404 0 2.52.912 2.52 2.28 0 1.14-.744 1.992-1.752 3.048l-2.304 2.34h4.284v.972zm-4.353-8.64c2.112 0 3.144 1.944 3.144 4.44s-1.032 4.44-3.144 4.44c-2.088 0-3.132-1.944-3.132-4.44s1.044-4.44 3.132-4.44m.012 1.008c-1.344 0-2.04 1.464-2.04 3.432s.696 3.432 2.04 3.432c1.332 0 2.016-1.464 2.016-3.432s-.684-3.432-2.016-3.432m-9.98 7.632v-.972l2.844-2.928c.984-1.032 1.428-1.5 1.428-2.388 0-.876-.636-1.38-1.488-1.38-.888 0-1.464.444-1.956 1.26l-.888-.54c.684-1.068 1.62-1.692 2.928-1.692 1.404 0 2.52.912 2.52 2.28 0 1.14-.744 1.992-1.752 3.048l-2.304 2.34h4.284v.972zm-5.652.132a.766.766 0 0 1-.78-.756c0-.42.348-.768.78-.768s.768.348.768.768-.336.756-.768.756m-5.454-2.16v-3.096h-1.14v-.924h1.14v-1.512h1.032v1.512h2.1v.924h-2.1v3.096c0 .948.48 1.212 1.212 1.212.396 0 .672-.048.9-.144v.912c-.288.12-.612.168-1.044.168-1.344 0-2.1-.672-2.1-2.148m-8.176 4.98v-9h1.02v.72c.54-.612 1.248-.96 2.148-.96 1.896 0 3.108 1.5 3.108 3.264s-1.212 3.264-3.108 3.264c-.9 0-1.608-.348-2.148-.96v3.672zm3.048-8.28c-.84 0-1.572.408-2.028 1.128v2.352c.468.732 1.2 1.128 2.028 1.128 1.284 0 2.16-1.02 2.16-2.304s-.876-2.304-2.16-2.304m-4.645 4.333c-.564.755-1.464 1.235-2.592 1.235-2.04 0-3.3-1.5-3.3-3.264 0-1.836 1.176-3.264 3.048-3.264 1.644 0 2.712 1.152 2.712 2.64 0 .24-.036.468-.072.636h-4.644c.036 1.452.96 2.328 2.256 2.328.78 0 1.44-.36 1.836-.9zm-2.868-4.429c-.996 0-1.692.588-1.908 1.632h3.624c-.036-.888-.648-1.632-1.716-1.632m-8.406 4.596.72-.612c.42.528.924.828 1.536.828.672 0 1.056-.408 1.056-.936 0-1.356-3.024-.876-3.024-3.012 0-.948.804-1.728 1.968-1.728.864 0 1.608.408 2.028.996l-.708.6c-.324-.456-.78-.744-1.308-.744-.648 0-.996.384-.996.852 0 1.356 3.036.924 3.036 2.988-.012 1.128-.912 1.836-2.04 1.836-.96 0-1.716-.384-2.268-1.068m-10.046.828v-.972l2.844-2.928c.984-1.032 1.428-1.5 1.428-2.388 0-.876-.636-1.38-1.488-1.38-.888 0-1.464.444-1.956 1.26l-.888-.54c.684-1.068 1.62-1.692 2.928-1.692 1.404 0 2.52.912 2.52 2.28 0 1.14-.744 1.992-1.752 3.048l-2.304 2.34h4.284v.972zm-8.887-4.104c-.588 0-1.056-.48-1.056-1.056 0-.564.468-1.032 1.056-1.032.564 0 1.056.468 1.056 1.032 0 .576-.492 1.056-1.056 1.056m0 4.248a1.047 1.047 0 0 1-1.056-1.044c0-.564.468-1.044 1.056-1.044.564 0 1.056.48 1.056 1.044 0 .576-.492 1.044-1.056 1.044m-7.387-7.152h-1.464l1.248-1.992h1.656zm2.052 6.024c-.564.756-1.5 1.224-2.64 1.224-2.148 0-3.36-1.5-3.36-3.264 0-1.788 1.128-3.264 3.108-3.264 1.68 0 2.784 1.14 2.784 2.724 0 .336-.048.648-.096.852h-4.236c.144 1.128.84 1.584 1.788 1.584.66 0 1.236-.288 1.56-.72zm-2.928-4.056c-.78 0-1.296.432-1.464 1.224h2.784c-.024-.612-.468-1.224-1.32-1.224m-7.272 2.832v-2.472h-1.128v-1.368h1.128v-1.512h1.536v1.512h1.848v1.368h-1.848v2.472c0 .672.36.936.96.936.42 0 .696-.048.9-.132v1.332c-.3.132-.66.192-1.164.192-1.512 0-2.232-.852-2.232-2.328m-2.968-4.896a1.01 1.01 0 0 1-.996-.996c0-.54.456-.996.996-.996s.984.456.984.996-.444.996-.984.996M338 73.305v-6.048h1.524v6.048zm-5.081.18c-1.212 0-2.04-.696-2.04-1.812 0-.912.708-1.596 2.004-1.812l1.848-.312v-.156c0-.636-.48-1.044-1.176-1.044-.588 0-1.044.276-1.368.72l-1.116-.852c.54-.744 1.428-1.2 2.532-1.2 1.752 0 2.652 1.044 2.652 2.376v3.912h-1.524v-.588c-.384.468-1.104.768-1.812.768m-.528-1.884c0 .408.324.672.84.672.696 0 1.2-.324 1.5-.804v-.852l-1.44.24c-.636.108-.9.372-.9.744m-8.57 1.704v-9h1.524v3.432c.42-.408.984-.72 1.788-.72 1.308 0 2.352.9 2.352 2.688v3.6h-1.536v-3.54c0-.804-.444-1.308-1.2-1.308-.768 0-1.176.516-1.404.9v3.948zm-3.224-2.615v-3.433h1.536v3.36c0 1.812-1.056 2.928-2.832 2.928s-2.82-1.116-2.82-2.928v-3.36h1.536v3.432c0 .876.456 1.416 1.296 1.416.828 0 1.284-.54 1.284-1.416m-8.685-3.672c1.968 0 3.312 1.452 3.312 3.264s-1.344 3.264-3.312 3.264-3.312-1.452-3.312-3.264 1.344-3.264 3.312-3.264m.024 5.088c.972 0 1.704-.78 1.704-1.824 0-1.056-.732-1.824-1.704-1.824-1.008 0-1.752.768-1.752 1.824s.744 1.824 1.752 1.824m-8.894.325 1.008-.913c.372.468.816.804 1.392.804.492 0 .744-.288.744-.648 0-1.056-2.892-.66-2.892-2.784 0-1.068.9-1.872 2.16-1.872.924 0 1.764.444 2.196 1.032l-1.008.888c-.312-.384-.708-.696-1.176-.696-.48 0-.708.264-.708.576 0 1.032 2.892.672 2.892 2.76-.024 1.272-1.044 1.968-2.184 1.968-1.08 0-1.848-.432-2.424-1.116m-7.455-1.332v-2.472h-1.128v-1.368h1.128v-1.512h1.536v1.512h1.848v1.368h-1.848v2.472c0 .672.36.936.96.936.42 0 .696-.048.9-.132v1.332c-.3.132-.66.192-1.164.192-1.512 0-2.232-.852-2.232-2.328m-5.464 2.388c-1.212 0-2.04-.696-2.04-1.812 0-.912.708-1.596 2.004-1.812l1.848-.312v-.156c0-.636-.48-1.044-1.176-1.044-.588 0-1.044.276-1.368.72l-1.116-.852c.54-.744 1.428-1.2 2.532-1.2 1.752 0 2.652 1.044 2.652 2.376v3.912h-1.524v-.588c-.384.468-1.104.768-1.812.768m-.528-1.884c0 .408.324.672.84.672.696 0 1.2-.324 1.5-.804v-.852l-1.44.24c-.636.108-.9.372-.9.744m-5.759 1.704v-6.048h1.524v.6c.396-.408.912-.72 1.596-.72.204 0 .384.036.528.084v1.5a2.6 2.6 0 0 0-.672-.084c-.744 0-1.224.408-1.452.792v3.876zm-4.749-2.208v-2.472h-1.128v-1.368h1.128v-1.512h1.536v1.512h1.848v1.368h-1.848v2.472c0 .672.36.936.96.936.42 0 .696-.048.9-.132v1.332c-.3.132-.66.192-1.164.192-1.512 0-2.232-.852-2.232-2.328m-7.778 2.208v-6.048h1.524v.48c.42-.408.984-.72 1.788-.72 1.308 0 2.352.9 2.352 2.688v3.6h-1.536v-3.54c0-.804-.456-1.308-1.2-1.308-.768 0-1.176.516-1.404.9v3.948zm-4.702-6.288c1.968 0 3.312 1.452 3.312 3.264s-1.344 3.264-3.312 3.264-3.312-1.452-3.312-3.264 1.344-3.264 3.312-3.264m.024 5.088c.972 0 1.704-.78 1.704-1.824 0-1.056-.732-1.824-1.704-1.824-1.008 0-1.752.768-1.752 1.824s.744 1.824 1.752 1.824m-6.363 0c.6 0 1.08-.276 1.368-.696l1.188.912c-.564.744-1.452 1.224-2.556 1.224-2.088 0-3.336-1.5-3.336-3.264s1.248-3.264 3.336-3.264c1.104 0 1.992.48 2.556 1.224l-1.188.912c-.288-.42-.768-.696-1.392-.696-.996 0-1.728.768-1.728 1.824 0 1.068.732 1.824 1.752 1.824m-7.52.216c-.564.756-1.5 1.224-2.64 1.224-2.148 0-3.36-1.5-3.36-3.264 0-1.788 1.128-3.264 3.108-3.264 1.68 0 2.784 1.14 2.784 2.724 0 .336-.048.648-.096.852h-4.236c.144 1.128.84 1.584 1.788 1.584.66 0 1.236-.288 1.56-.72zm-2.928-4.056c-.78 0-1.296.432-1.464 1.224h2.784c-.024-.612-.468-1.224-1.32-1.224m-10.947 2.016c0-1.764 1.164-3.264 3.072-3.264.816 0 1.404.252 1.872.72v-3.432h1.536v9h-1.536v-.48c-.468.468-1.056.72-1.872.72-1.908 0-3.072-1.5-3.072-3.264m1.596 0c0 1.056.66 1.824 1.692 1.824.684 0 1.248-.288 1.656-.84v-1.968c-.408-.552-.972-.84-1.656-.84-1.032 0-1.692.768-1.692 1.824m-9.147.816v-2.472h-1.128v-1.368h1.128v-1.512h1.536v1.512h1.848v1.368h-1.848v2.472c0 .672.36.936.96.936.42 0 .696-.048.9-.132v1.332c-.3.132-.66.192-1.164.192-1.512 0-2.232-.852-2.232-2.328m-3.701-.407v-3.433h1.536v3.36c0 1.812-1.056 2.928-2.832 2.928s-2.82-1.116-2.82-2.928v-3.36h1.536v3.432c0 .876.456 1.416 1.296 1.416.828 0 1.284-.54 1.284-1.416m-5.379-.408c0 1.764-1.152 3.264-3.072 3.264-.828 0-1.416-.264-1.884-.732v.492h-1.524v-9h1.524v3.444c.468-.468 1.056-.732 1.884-.732 1.92 0 3.072 1.5 3.072 3.264m-3.288-1.824c-.708 0-1.296.312-1.668.864v1.92c.408.564.984.864 1.668.864 1.032 0 1.704-.768 1.704-1.824s-.672-1.824-1.704-1.824m-6.625-2.16h-1.464l1.248-1.992h1.656zm2.052 6.024c-.564.756-1.5 1.224-2.64 1.224-2.148 0-3.36-1.5-3.36-3.264 0-1.788 1.128-3.264 3.108-3.264 1.68 0 2.784 1.14 2.784 2.724 0 .336-.048.648-.096.852h-4.236c.144 1.128.84 1.584 1.788 1.584.66 0 1.236-.288 1.56-.72zm-2.928-4.056c-.78 0-1.296.432-1.464 1.224h2.784c-.024-.612-.468-1.224-1.32-1.224m-11.879 5.04v-8.4h3.3c2.664 0 4.464 1.932 4.464 4.2s-1.8 4.2-4.464 4.2zm3.324-6.852h-1.62v5.304h1.62c1.56 0 2.688-1.164 2.688-2.652 0-1.5-1.128-2.652-2.688-2.652m195.678 33.856c-.564.756-1.464 1.236-2.592 1.236-2.04 0-3.3-1.5-3.3-3.264 0-1.836 1.176-3.264 3.048-3.264 1.644 0 2.712 1.152 2.712 2.64 0 .24-.036.468-.072.636h-4.644c.036 1.452.96 2.328 2.256 2.328.78 0 1.44-.36 1.836-.9zm-2.868-4.428c-.996 0-1.692.588-1.908 1.632h3.624c-.036-.888-.648-1.632-1.716-1.632m-9.603 6.516c0-.612.3-1.104.9-1.524a1.1 1.1 0 0 1-.42-.864c0-.48.252-.876.72-1.176a2.09 2.09 0 0 1-.84-1.68c0-1.164.912-2.148 2.352-2.148.444 0 .84.096 1.164.252h2.244v.888h-1.308c.168.3.252.648.252 1.008 0 1.152-.9 2.136-2.352 2.136-.3 0-.588-.048-.84-.12-.252.18-.396.396-.396.624 0 .252.132.432.504.432h1.728c1.596 0 2.34.78 2.34 1.86 0 1.272-1.272 2.22-3.084 2.22-1.788 0-2.964-.696-2.964-1.908m2.724-3.912c.876 0 1.38-.6 1.38-1.332 0-.744-.504-1.344-1.38-1.344-.9 0-1.392.6-1.392 1.344s.492 1.332 1.392 1.332m-1.728 3.792c0 .732.756 1.176 1.956 1.176 1.272 0 2.076-.504 2.076-1.296 0-.576-.324-1.032-1.404-1.032h-1.956c-.42.312-.672.672-.672 1.152m-5.394-.804c-1.188 0-1.992-.66-1.992-1.692 0-.912.696-1.56 1.98-1.776l2.04-.336v-.42c0-.84-.6-1.32-1.464-1.32-.696 0-1.26.324-1.632.84l-.768-.588c.528-.72 1.38-1.164 2.436-1.164 1.536 0 2.448.9 2.448 2.232v4.056h-1.02v-.768c-.456.588-1.248.936-2.028.936m-.96-1.728c0 .516.42.888 1.128.888.804 0 1.464-.384 1.86-1.032v-1.188l-1.788.3c-.828.144-1.2.516-1.2 1.032m-6.629.732.72-.612c.42.528.924.828 1.536.828.672 0 1.056-.408 1.056-.936 0-1.356-3.024-.876-3.024-3.012 0-.948.804-1.728 1.968-1.728.864 0 1.608.408 2.028.996l-.708.6c-.324-.456-.78-.744-1.308-.744-.648 0-.996.384-.996.852 0 1.356 3.036.924 3.036 2.988-.012 1.128-.912 1.836-2.04 1.836-.96 0-1.716-.384-2.268-1.068m-5.273 0 .72-.612c.42.528.924.828 1.536.828.672 0 1.056-.408 1.056-.936 0-1.356-3.024-.876-3.024-3.012 0-.948.804-1.728 1.968-1.728.864 0 1.608.408 2.028.996l-.708.6c-.324-.456-.78-.744-1.308-.744-.648 0-.996.384-.996.852 0 1.356 3.036.924 3.036 2.988-.012 1.128-.912 1.836-2.04 1.836-.96 0-1.716-.384-2.268-1.068m-1.965-6.792a.72.72 0 0 1-.72-.72.72.72 0 0 1 .72-.708.71.71 0 0 1 .708.708c0 .396-.312.72-.708.72m-.516 7.62v-6.048h1.02v6.048zm-4.691-2.028v-3.096h-1.14v-.924h1.14v-1.512h1.032v1.512h2.1v.924h-2.1v3.096c0 .948.48 1.212 1.212 1.212.396 0 .672-.048.9-.144v.912c-.288.12-.612.168-1.044.168-1.344 0-2.1-.672-2.1-2.148m-7.801 2.028v-6.048h1.02v.684c.492-.54 1.116-.924 2.016-.924 1.356 0 2.364.912 2.364 2.628v3.66h-1.02v-3.624c0-1.08-.612-1.704-1.548-1.704-.876 0-1.428.504-1.812 1.14v4.188zm-1.597-.996c-.564.756-1.464 1.236-2.592 1.236-2.04 0-3.3-1.5-3.3-3.264 0-1.836 1.176-3.264 3.048-3.264 1.644 0 2.712 1.152 2.712 2.64 0 .24-.036.468-.072.636h-4.644c.036 1.452.96 2.328 2.256 2.328.78 0 1.44-.36 1.836-.9zm-2.868-4.428c-.996 0-1.692.588-1.908 1.632h3.624c-.036-.888-.648-1.632-1.716-1.632m-6.914 5.424v-6.048h1.02v.756c.444-.528.996-.876 1.764-.876.192 0 .372.024.516.072v.996a2.2 2.2 0 0 0-.6-.072c-.792 0-1.308.408-1.68 1.02v4.152zm-7.922 2.952v-9h1.02v.72c.54-.612 1.248-.96 2.148-.96 1.896 0 3.108 1.5 3.108 3.264s-1.212 3.264-3.108 3.264c-.9 0-1.608-.348-2.148-.96v3.672zm3.048-8.28c-.84 0-1.572.408-2.028 1.128v2.352c.468.732 1.2 1.128 2.028 1.128 1.284 0 2.16-1.02 2.16-2.304s-.876-2.304-2.16-2.304m-10.97 8.28v-9h1.02v.72c.54-.612 1.248-.96 2.148-.96 1.896 0 3.108 1.5 3.108 3.264s-1.212 3.264-3.108 3.264c-.9 0-1.608-.348-2.148-.96v3.672zm3.048-8.28c-.84 0-1.572.408-2.028 1.128v2.352c.468.732 1.2 1.128 2.028 1.128 1.284 0 2.16-1.02 2.16-2.304s-.876-2.304-2.16-2.304m-12.863 5.328 3.348-8.4h1.512l3.348 8.4h-1.2l-.972-2.472h-3.864l-.972 2.472zm2.544-3.444h3.12l-1.56-3.972zm-10.939-.66c-.588 0-1.056-.48-1.056-1.056 0-.564.468-1.032 1.056-1.032.564 0 1.056.468 1.056 1.032 0 .576-.492 1.056-1.056 1.056m0 4.248a1.047 1.047 0 0 1-1.056-1.044c0-.564.468-1.044 1.056-1.044.564 0 1.056.48 1.056 1.044 0 .576-.492 1.044-1.056 1.044m-8.703-2.352v-2.472h-1.128v-1.368h1.128v-1.512h1.536v1.512h1.848v1.368h-1.848v2.472c0 .672.36.936.96.936.42 0 .696-.048.9-.132v1.332c-.3.132-.66.192-1.164.192-1.512 0-2.232-.852-2.232-2.328m-5.465 2.388c-1.212 0-2.04-.696-2.04-1.812 0-.912.708-1.596 2.004-1.812l1.848-.312v-.156c0-.636-.48-1.044-1.176-1.044-.588 0-1.044.276-1.368.72l-1.116-.852c.54-.744 1.428-1.2 2.532-1.2 1.752 0 2.652 1.044 2.652 2.376v3.912h-1.524v-.588c-.384.468-1.104.768-1.812.768m-.528-1.884c0 .408.324.672.84.672.696 0 1.2-.324 1.5-.804v-.852l-1.44.24c-.636.108-.9.372-.9.744m-5.758 1.704v-6.048h1.524v.6c.396-.408.912-.72 1.596-.72.204 0 .384.036.528.084v1.5a2.6 2.6 0 0 0-.672-.084c-.744 0-1.224.408-1.452.792v3.876zm-4.749-2.208v-2.472h-1.128v-1.368h1.128v-1.512h1.536v1.512h1.848v1.368h-1.848v2.472c0 .672.36.936.96.936.42 0 .696-.048.9-.132v1.332c-.3.132-.66.192-1.164.192-1.512 0-2.232-.852-2.232-2.328m-7.778 2.208v-6.048h1.524v.48c.42-.408.984-.72 1.788-.72 1.308 0 2.352.9 2.352 2.688v3.6h-1.536v-3.54c0-.804-.456-1.308-1.2-1.308-.768 0-1.176.516-1.404.9v3.948zm-4.703-6.288c1.968 0 3.312 1.452 3.312 3.264s-1.344 3.264-3.312 3.264-3.312-1.452-3.312-3.264 1.344-3.264 3.312-3.264m.024 5.088c.972 0 1.704-.78 1.704-1.824 0-1.056-.732-1.824-1.704-1.824-1.008 0-1.752.768-1.752 1.824s.744 1.824 1.752 1.824m-6.363 0c.6 0 1.08-.276 1.368-.696l1.188.912c-.564.744-1.452 1.224-2.556 1.224-2.088 0-3.336-1.5-3.336-3.264s1.248-3.264 3.336-3.264c1.104 0 1.992.48 2.556 1.224l-1.188.912c-.288-.42-.768-.696-1.392-.696-.996 0-1.728.768-1.728 1.824 0 1.068.732 1.824 1.752 1.824m-9.362-1.415v-3.433h1.536v3.36c0 1.812-1.056 2.928-2.832 2.928s-2.82-1.116-2.82-2.928v-3.36h1.536v3.432c0 .876.456 1.416 1.296 1.416.828 0 1.284-.54 1.284-1.416m-12.29-.408c0-1.764 1.164-3.264 3.072-3.264.816 0 1.404.252 1.872.72v-3.432h1.536v9h-1.536v-.48c-.468.468-1.056.72-1.872.72-1.908 0-3.072-1.5-3.072-3.264m1.596 0c0 1.056.66 1.824 1.692 1.824.684 0 1.248-.288 1.656-.84v-1.968c-.408-.552-.972-.84-1.656-.84-1.032 0-1.692.768-1.692 1.824m-5.78 2.04c-.564.756-1.5 1.224-2.64 1.224-2.148 0-3.36-1.5-3.36-3.264 0-1.788 1.128-3.264 3.108-3.264 1.68 0 2.784 1.14 2.784 2.724 0 .336-.048.648-.096.852h-4.236c.144 1.128.84 1.584 1.788 1.584.66 0 1.236-.288 1.56-.72zm-2.928-4.056c-.78 0-1.296.432-1.464 1.224h2.784c-.024-.612-.468-1.224-1.32-1.224m-7.257 5.04v-6.048h1.524v.6c.396-.408.912-.72 1.596-.72.204 0 .384.036.528.084v1.5a2.6 2.6 0 0 0-.672-.084c-.744 0-1.224.408-1.452.792v3.876zm-3.223-2.615v-3.433h1.536v3.36c0 1.812-1.056 2.928-2.832 2.928s-2.82-1.116-2.82-2.928v-3.36h1.536v3.432c0 .876.456 1.416 1.296 1.416.828 0 1.284-.54 1.284-1.416m-8.721.408v-2.472h-1.128v-1.368h1.128v-1.512h1.536v1.512h1.848v1.368h-1.848v2.472c0 .672.36.936.96.936.42 0 .696-.048.9-.132v1.332c-.3.132-.66.192-1.164.192-1.512 0-2.232-.852-2.232-2.328m-5.465 2.388c-1.212 0-2.04-.696-2.04-1.812 0-.912.708-1.596 2.004-1.812l1.848-.312v-.156c0-.636-.48-1.044-1.176-1.044-.588 0-1.044.276-1.368.72l-1.116-.852c.54-.744 1.428-1.2 2.532-1.2 1.752 0 2.652 1.044 2.652 2.376v3.912h-1.524v-.588c-.384.468-1.104.768-1.812.768m-.528-1.884c0 .408.324.672.84.672.696 0 1.2-.324 1.5-.804v-.852l-1.44.24c-.636.108-.9.372-.9.744m-10.884 1.704v-8.4h2.184l3.756 6.072v-6.072h1.704v8.4h-2.184l-3.756-6.072v6.072zm82.979 24.459c-.588 0-1.056-.48-1.056-1.056 0-.564.468-1.032 1.056-1.032.564 0 1.056.468 1.056 1.032 0 .576-.492 1.056-1.056 1.056m0 4.248a1.047 1.047 0 0 1-1.056-1.044c0-.564.468-1.044 1.056-1.044.564 0 1.056.48 1.056 1.044 0 .576-.492 1.044-1.056 1.044m-9.968-1.02 1.008-.912c.372.468.816.804 1.392.804.492 0 .744-.288.744-.648 0-1.056-2.892-.66-2.892-2.784 0-1.068.9-1.872 2.16-1.872.924 0 1.764.444 2.196 1.032l-1.008.888c-.312-.384-.708-.696-1.176-.696-.48 0-.708.264-.708.576 0 1.032 2.892.672 2.892 2.76-.024 1.272-1.044 1.968-2.184 1.968-1.08 0-1.848-.432-2.424-1.116m-1.973-6.228a1.01 1.01 0 0 1-.996-.996c0-.54.456-.996.996-.996s.984.456.984.996-.444.996-.984.996m-.768 7.104v-6.048h1.524v6.048zm-3.223-2.616v-3.432h1.536v3.36c0 1.812-1.056 2.928-2.832 2.928s-2.82-1.116-2.82-2.928v-3.36h1.536v3.432c0 .876.456 1.416 1.296 1.416.828 0 1.284-.54 1.284-1.416m-12.291-.408c0-1.764 1.152-3.264 3.072-3.264.816 0 1.404.264 1.872.732v-.492h1.536v9h-1.536v-3.444c-.468.468-1.056.732-1.872.732-1.92 0-3.072-1.5-3.072-3.264m1.584 0c0 1.056.66 1.824 1.692 1.824.708 0 1.296-.312 1.668-.864v-1.92c-.408-.564-.984-.864-1.668-.864-1.032 0-1.692.768-1.692 1.824m-2.486 2.04c-.564.756-1.5 1.224-2.64 1.224-2.148 0-3.36-1.5-3.36-3.264 0-1.788 1.128-3.264 3.108-3.264 1.68 0 2.784 1.14 2.784 2.724 0 .336-.048.648-.096.852h-4.236c.144 1.128.84 1.584 1.788 1.584.66 0 1.236-.288 1.56-.72zm-2.928-4.056c-.78 0-1.296.432-1.464 1.224h2.784c-.024-.612-.468-1.224-1.32-1.224m-7.257 5.04v-6.048h1.524v.6c.396-.408.912-.72 1.596-.72.204 0 .384.036.528.084v1.5a2.6 2.6 0 0 0-.672-.084c-.744 0-1.224.408-1.452.792v3.876zm-6.458-2.616v-3.432h1.536v3.36c0 1.812-1.056 2.928-2.832 2.928s-2.82-1.116-2.82-2.928v-3.36h1.536v3.432c0 .876.456 1.416 1.296 1.416.828 0 1.284-.54 1.284-1.416m-9.065 2.796c-1.212 0-2.04-.696-2.04-1.812 0-.912.708-1.596 2.004-1.812l1.848-.312v-.156c0-.636-.48-1.044-1.176-1.044-.588 0-1.044.276-1.368.72l-1.116-.852c.54-.744 1.428-1.2 2.532-1.2 1.752 0 2.652 1.044 2.652 2.376v3.912h-1.524v-.588c-.384.468-1.104.768-1.812.768m-.528-1.884c0 .408.324.672.84.672.696 0 1.2-.324 1.5-.804v-.852l-1.44.24c-.636.108-.9.372-.9.744m-2.475.72c-.564.756-1.5 1.224-2.64 1.224-2.148 0-3.36-1.5-3.36-3.264 0-1.788 1.128-3.264 3.108-3.264 1.68 0 2.784 1.14 2.784 2.724 0 .336-.048.648-.096.852h-4.236c.144 1.128.84 1.584 1.788 1.584.66 0 1.236-.288 1.56-.72zm-2.928-4.056c-.78 0-1.296.432-1.464 1.224h2.784c-.024-.612-.468-1.224-1.32-1.224m-9.938-1.008h1.632l1.572 4.32 1.56-4.32h1.644l-2.208 6.048h-2.004zm-1.719-1.056a1.01 1.01 0 0 1-.996-.996c0-.54.456-.996.996-.996s.984.456.984.996-.444.996-.984.996m-.768 7.104v-6.048h1.524v6.048zm-9.79 0v-8.4h2.184l3.756 6.072v-6.072h1.704v8.4h-2.184l-3.756-6.072v6.072z"/><rect width="46.447" height="21.592" x="289.608" y="116" fill="#ececfe" rx="10.796"/><path fill="#000091" d="M317.78 132.592v-9h1.02v.72c.54-.612 1.248-.96 2.148-.96 1.896 0 3.108 1.5 3.108 3.264s-1.212 3.264-3.108 3.264c-.9 0-1.608-.348-2.148-.96v3.672zm3.048-8.28c-.84 0-1.572.408-2.028 1.128v2.352c.468.732 1.2 1.128 2.028 1.128 1.284 0 2.16-1.02 2.16-2.304s-.876-2.304-2.16-2.304m-8.143 5.496c-1.188 0-1.992-.66-1.992-1.692 0-.912.696-1.56 1.98-1.776l2.04-.336v-.42c0-.84-.6-1.32-1.464-1.32-.696 0-1.26.324-1.632.84l-.768-.588c.528-.72 1.38-1.164 2.436-1.164 1.536 0 2.448.9 2.448 2.232v4.056h-1.02v-.768c-.456.588-1.248.936-2.028.936m-.96-1.728c0 .516.42.888 1.128.888.804 0 1.464-.384 1.86-1.032v-1.188l-1.788.3c-.828.144-1.2.516-1.2 1.032m-5.701.744a3.13 3.13 0 0 0 2.616-1.368l.9.696c-.768 1.044-2.004 1.728-3.516 1.728-2.628 0-4.416-2.04-4.416-4.44s1.788-4.44 4.416-4.44c1.512 0 2.748.696 3.516 1.728l-.9.696a3.13 3.13 0 0 0-2.616-1.368c-1.896 0-3.252 1.512-3.252 3.384s1.356 3.384 3.252 3.384"/><rect width="184.21" height="21.448" x="342.056" y="116.072" fill="#ececfe" rx="10.724"/><path fill="#000091" d="M513.246 126.82c0-2.124-.744-3.816-2.028-5.088l.744-.612c1.38 1.308 2.304 3.276 2.304 5.7s-.912 4.392-2.304 5.7l-.744-.612c1.284-1.272 2.028-2.952 2.028-5.088m-4.804 2.58c.744 0 1.356-.36 1.728-.888l.804.612c-.564.756-1.44 1.236-2.544 1.236-2.004 0-3.288-1.5-3.288-3.264s1.284-3.264 3.288-3.264c1.092 0 1.98.492 2.544 1.236l-.804.612a2.09 2.09 0 0 0-1.74-.888c-1.296 0-2.22 1.02-2.22 2.304 0 1.296.924 2.304 2.232 2.304m-7.878.888c-1.188 0-1.992-.66-1.992-1.692 0-.912.696-1.56 1.98-1.776l2.04-.336v-.42c0-.84-.6-1.32-1.464-1.32-.696 0-1.26.324-1.632.84l-.768-.588c.528-.72 1.38-1.164 2.436-1.164 1.536 0 2.448.9 2.448 2.232v4.056h-1.02v-.768c-.456.588-1.248.936-2.028.936m-.96-1.728c0 .516.42.888 1.128.888.804 0 1.464-.384 1.86-1.032v-1.188l-1.788.3c-.828.144-1.2.516-1.2 1.032m-2.342-1.464c0 1.764-1.212 3.264-3.108 3.264-.9 0-1.608-.348-2.148-.96v.72h-1.02v-9h1.02v3.672c.54-.612 1.248-.96 2.148-.96 1.896 0 3.108 1.5 3.108 3.264m-3.228-2.304c-.84 0-1.584.408-2.028 1.116v2.376c.468.72 1.2 1.116 2.028 1.116 1.284 0 2.16-1.02 2.16-2.304s-.876-2.304-2.16-2.304m-8.142 5.496c-1.188 0-1.992-.66-1.992-1.692 0-.912.696-1.56 1.98-1.776l2.04-.336v-.42c0-.84-.6-1.32-1.464-1.32-.696 0-1.26.324-1.632.84l-.768-.588c.528-.72 1.38-1.164 2.436-1.164 1.536 0 2.448.9 2.448 2.232v4.056h-1.02v-.768c-.456.588-1.248.936-2.028.936m-.96-1.728c0 .516.42.888 1.128.888.804 0 1.464-.384 1.86-1.032v-1.188l-1.788.3c-.828.144-1.2.516-1.2 1.032m-5.184 1.56v-6.048h1.02v.756c.444-.528.996-.876 1.764-.876.192 0 .372.024.516.072v.996a2.2 2.2 0 0 0-.6-.072c-.792 0-1.308.408-1.68 1.02v4.152zm-5.257-6.048h1.14v-.744c0-1.284.828-2.208 2.148-2.208.552 0 .996.156 1.332.348l-.456.852a1.4 1.4 0 0 0-.852-.276c-.684 0-1.14.468-1.14 1.26v.768h2.1v.924h-2.1v5.124h-1.032v-5.124h-1.14zm-6.661 6.048v-6.048h1.02v.684c.492-.54 1.116-.924 2.016-.924 1.356 0 2.364.912 2.364 2.628v3.66h-1.02v-3.624c0-1.08-.612-1.704-1.548-1.704-.876 0-1.428.504-1.812 1.14v4.188zm-3.545 0v-8.4h1.128v8.4zm-3.663-3.3c0 2.124.708 3.792 2.016 5.088l-.744.612c-1.428-1.332-2.304-3.3-2.304-5.7 0-2.436.96-4.416 2.304-5.7l.744.612c-1.26 1.248-2.016 2.964-2.016 5.088m-9.659 2.472.72-.612c.42.528.924.828 1.536.828.672 0 1.056-.408 1.056-.936 0-1.356-3.024-.876-3.024-3.012 0-.948.804-1.728 1.968-1.728.864 0 1.608.408 2.028.996l-.708.6c-.324-.456-.78-.744-1.308-.744-.648 0-.996.384-.996.852 0 1.356 3.036.924 3.036 2.988-.012 1.128-.912 1.836-2.04 1.836-.96 0-1.716-.384-2.268-1.068m-6.805.828v-6.048h1.02v.684c.492-.54 1.116-.924 2.016-.924 1.356 0 2.364.912 2.364 2.628v3.66h-1.02v-3.624c0-1.08-.612-1.704-1.548-1.704-.876 0-1.428.504-1.812 1.14v4.188zm-4.916-6.288c1.944 0 3.276 1.5 3.276 3.264s-1.332 3.264-3.276 3.264c-1.956 0-3.276-1.5-3.276-3.264s1.32-3.264 3.276-3.264m.012 5.568c1.26 0 2.184-1.056 2.184-2.304 0-1.26-.924-2.304-2.184-2.304-1.296 0-2.22 1.044-2.22 2.304s.924 2.304 2.22 2.304m-5.431-6.9a.72.72 0 0 1-.72-.72.72.72 0 0 1 .72-.708.71.71 0 0 1 .708.708c0 .396-.312.72-.708.72m-.516 7.62v-6.048h1.02v6.048zm-4.691-2.028v-3.096h-1.14v-.924h1.14v-1.512h1.032v1.512h2.1v.924h-2.1v3.096c0 .948.48 1.212 1.212 1.212.396 0 .672-.048.9-.144v.912c-.288.12-.612.168-1.044.168-1.344 0-2.1-.672-2.1-2.148m-5.443 2.196c-1.188 0-1.992-.66-1.992-1.692 0-.912.696-1.56 1.98-1.776l2.04-.336v-.42c0-.84-.6-1.32-1.464-1.32-.696 0-1.26.324-1.632.84l-.768-.588c.528-.72 1.38-1.164 2.436-1.164 1.536 0 2.448.9 2.448 2.232v4.056h-1.02v-.768c-.456.588-1.248.936-2.028.936m-.96-1.728c0 .516.42.888 1.128.888.804 0 1.464-.384 1.86-1.032v-1.188l-1.788.3c-.828.144-1.2.516-1.2 1.032m-12.027 1.56v-6.048h1.02v.66c.456-.528 1.056-.9 1.896-.9.876 0 1.596.396 1.968 1.164.48-.66 1.116-1.164 2.16-1.164 1.296 0 2.244.864 2.244 2.508v3.78h-1.02v-3.744c0-1.008-.564-1.584-1.428-1.584-.768 0-1.308.432-1.704 1.14.012.132.024.264.024.408v3.78h-1.02v-3.744c0-1.008-.552-1.584-1.428-1.584-.828 0-1.344.516-1.692 1.14v4.188zm-4.77 0v-6.048h1.02v.756c.444-.528.996-.876 1.764-.876.192 0 .372.024.516.072v.996a2.2 2.2 0 0 0-.6-.072c-.792 0-1.308.408-1.68 1.02v4.152zm-4.916-6.288c1.944 0 3.276 1.5 3.276 3.264s-1.332 3.264-3.276 3.264c-1.956 0-3.276-1.5-3.276-3.264s1.32-3.264 3.276-3.264m.012 5.568c1.26 0 2.184-1.056 2.184-2.304 0-1.26-.924-2.304-2.184-2.304-1.296 0-2.22 1.044-2.22 2.304s.924 2.304 2.22 2.304m-7.947-5.328h1.14v-.744c0-1.284.828-2.208 2.148-2.208.552 0 .996.156 1.332.348l-.456.852a1.4 1.4 0 0 0-.852-.276c-.684 0-1.14.468-1.14 1.26v.768h2.1v.924h-2.1v5.124h-1.032v-5.124h-1.14zm-8.41 5.22.72-.612c.42.528.924.828 1.536.828.672 0 1.056-.408 1.056-.936 0-1.356-3.024-.876-3.024-3.012 0-.948.804-1.728 1.968-1.728.864 0 1.608.408 2.028.996l-.708.6c-.324-.456-.78-.744-1.308-.744-.648 0-.996.384-.996.852 0 1.356 3.036.924 3.036 2.988-.012 1.128-.912 1.836-2.04 1.836-.96 0-1.716-.384-2.268-1.068m-.902-.168c-.564.756-1.464 1.236-2.592 1.236-2.04 0-3.3-1.5-3.3-3.264 0-1.836 1.176-3.264 3.048-3.264 1.644 0 2.712 1.152 2.712 2.64 0 .24-.036.468-.072.636h-4.644c.036 1.452.96 2.328 2.256 2.328.78 0 1.44-.36 1.836-.9zm-2.868-4.428c-.996 0-1.692.588-1.908 1.632h3.624c-.036-.888-.648-1.632-1.716-1.632m-6.914 5.424v-6.048h1.02v.756c.444-.528.996-.876 1.764-.876.192 0 .372.024.516.072v.996a2.2 2.2 0 0 0-.6-.072c-.792 0-1.308.408-1.68 1.02v4.152zm-4.691-2.028v-3.096h-1.14v-.924h1.14v-1.512h1.032v1.512h2.1v.924h-2.1v3.096c0 .948.48 1.212 1.212 1.212.396 0 .672-.048.9-.144v.912c-.288.12-.612.168-1.044.168-1.344 0-2.1-.672-2.1-2.148m-3.425-.564v-3.456h1.02v3.42c0 1.812-1.044 2.868-2.688 2.868-1.632 0-2.676-1.056-2.676-2.868v-3.42h1.02v3.456c0 1.188.636 1.872 1.668 1.872 1.008 0 1.656-.684 1.656-1.872m-9.307 2.76c-1.188 0-1.992-.66-1.992-1.692 0-.912.696-1.56 1.98-1.776l2.04-.336v-.42c0-.84-.6-1.32-1.464-1.32-.696 0-1.26.324-1.632.84l-.768-.588c.528-.72 1.38-1.164 2.436-1.164 1.536 0 2.448.9 2.448 2.232v4.056h-1.02v-.768c-.456.588-1.248.936-2.028.936m-.96-1.728c0 .516.42.888 1.128.888.804 0 1.464-.384 1.86-1.032v-1.188l-1.788.3c-.828.144-1.2.516-1.2 1.032"/><rect width="122.674" height="22" x="422.958" y="15" fill="#e6eefe" rx="4"/><path fill="#3558a2" fill-rule="evenodd" d="M435.458 20.5a.5.5 0 0 1 .5.5v1.5h2a.5.5 0 0 1 .5.5v7a.5.5 0 0 1-.5.5h-9a.5.5 0 0 1-.5-.5v-7a.5.5 0 0 1 .5-.5h2V21a.5.5 0 0 1 .5-.5zm2 7h-8v2h8zm-3.5-2h-1v1h1zm1-4h-3v1h3z" clip-rule="evenodd"/><path fill="#3558a2" d="M537.928 30.2v-8.4h1.704v8.4zm-6.205-8.64c2.64 0 4.452 2.04 4.452 4.44s-1.812 4.44-4.452 4.44c-2.652 0-4.464-2.04-4.464-4.44s1.812-4.44 4.464-4.44m0 7.284c1.572 0 2.7-1.236 2.7-2.844s-1.128-2.844-2.7-2.844c-1.584 0-2.712 1.236-2.712 2.844s1.128 2.844 2.712 2.844m-9.955 1.356v-8.4h1.704v6.852h3.192V30.2zm-7.278 0v-8.4h2.772c1.848 0 2.976.948 2.976 2.508 0 1.548-1.128 2.496-2.976 2.496h-1.068V30.2zm2.844-6.984h-1.14v2.172h1.14c.72 0 1.152-.42 1.152-1.104 0-.636-.432-1.068-1.152-1.068m-13.66 6.984v-8.4h2.124l2.052 3.528 2.052-3.528h2.124v8.4h-1.704v-6.024l-1.872 3.144h-1.2l-1.872-3.144V30.2zm-6.996 0v-8.4h4.896v1.416h-3.192v1.992h2.712v1.416h-2.712v2.16h3.192V30.2zm-2.839-4.944h-1.416l1.08-3.456h1.728zm-9.923 4.944v-8.4h3.3c2.664 0 4.464 1.932 4.464 4.2s-1.8 4.2-4.464 4.2zm3.324-6.852h-1.62v5.304h1.62c1.56 0 2.688-1.164 2.688-2.652 0-1.5-1.128-2.652-2.688-2.652M473.686 30.2v-8.4h4.896v1.416h-3.192v1.992h2.712v1.416h-2.712v2.16h3.192V30.2zm-8.028 0v-8.4h2.568c1.848 0 2.988.948 2.988 2.508 0 1.02-.492 1.776-1.356 2.172l2.628 3.72h-2.004l-2.244-3.396h-.876V30.2zm2.664-6.984h-.96v2.172h.96c.72 0 1.14-.42 1.14-1.104 0-.636-.42-1.068-1.14-1.068m-9.179 6.984v-8.4h4.896v1.416h-3.192v1.992h2.712v1.416h-2.712V30.2zm-6.516 0v-8.4h4.896v1.416h-3.192v1.992h2.712v1.416h-2.712V30.2zm-6.205-8.64c2.64 0 4.452 2.04 4.452 4.44s-1.812 4.44-4.452 4.44c-2.652 0-4.464-2.04-4.464-4.44s1.812-4.44 4.464-4.44m0 7.284c1.572 0 2.7-1.236 2.7-2.844s-1.128-2.844-2.7-2.844c-1.584 0-2.712 1.236-2.712 2.844s1.128 2.844 2.712 2.844"/><path fill="#161616" d="M332.052 27.852c-.658.882-1.75 1.428-3.08 1.428-2.506 0-3.92-1.75-3.92-3.808 0-2.086 1.316-3.808 3.626-3.808 1.96 0 3.248 1.33 3.248 3.178 0 .392-.056.756-.112.994h-4.942c.168 1.316.98 1.848 2.086 1.848.77 0 1.442-.336 1.82-.84zm-3.416-4.732c-.91 0-1.512.504-1.708 1.428h3.248c-.028-.714-.546-1.428-1.54-1.428M320.169 29v-7.056h1.778v.7c.462-.476 1.064-.84 1.862-.84.238 0 .448.042.616.098v1.75a3 3 0 0 0-.784-.098c-.868 0-1.428.476-1.694.924V29zm-6.392-7.056h1.316v-.742c0-1.498.994-2.702 2.758-2.702.644 0 1.19.154 1.638.392l-.756 1.484c-.21-.154-.49-.28-.854-.28-.602 0-.994.42-.994 1.064v.784h2.156v1.596h-2.156V29h-1.792v-5.46h-1.316zm-5.961 0h1.316v-.742c0-1.498.994-2.702 2.758-2.702.644 0 1.19.154 1.638.392l-.756 1.484c-.21-.154-.49-.28-.854-.28-.602 0-.994.42-.994 1.064v.784h2.156v1.596h-2.156V29h-1.792v-5.46h-1.316zm-4.535-.28c2.296 0 3.864 1.694 3.864 3.808s-1.568 3.808-3.864 3.808-3.864-1.694-3.864-3.808 1.568-3.808 3.864-3.808m.028 5.936c1.134 0 1.988-.91 1.988-2.128 0-1.232-.854-2.128-1.988-2.128-1.176 0-2.044.896-2.044 2.128s.868 2.128 2.044 2.128m-5.624-4.368h-1.652l1.26-4.032h2.016zM292.825 29V18.5h1.778V29zm-5.385-1.148c-.658.882-1.75 1.428-3.08 1.428-2.506 0-3.92-1.75-3.92-3.808 0-2.086 1.316-3.808 3.626-3.808 1.96 0 3.248 1.33 3.248 3.178 0 .392-.056.756-.112.994h-4.942c.168 1.316.98 1.848 2.086 1.848.77 0 1.442-.336 1.82-.84zm-3.416-4.732c-.91 0-1.512.504-1.708 1.428h3.248c-.028-.714-.546-1.428-1.54-1.428m-12.771 2.352c0-2.058 1.358-3.808 3.584-3.808.952 0 1.638.294 2.184.84V18.5h1.792V29h-1.792v-.56c-.546.546-1.232.84-2.184.84-2.226 0-3.584-1.75-3.584-3.808m1.862 0c0 1.232.77 2.128 1.974 2.128.798 0 1.456-.336 1.932-.98v-2.296c-.476-.644-1.134-.98-1.932-.98-1.204 0-1.974.896-1.974 2.128M259.356 29v-7.056h1.778v.56a2.87 2.87 0 0 1 2.086-.84c1.526 0 2.744 1.05 2.744 3.136V29h-1.792v-4.13c0-.938-.532-1.526-1.4-1.526-.896 0-1.372.602-1.638 1.05V29zm-5.485-7.336c2.296 0 3.864 1.694 3.864 3.808s-1.568 3.808-3.864 3.808-3.864-1.694-3.864-3.808 1.568-3.808 3.864-3.808m.028 5.936c1.134 0 1.988-.91 1.988-2.128 0-1.232-.854-2.128-1.988-2.128-1.176 0-2.044.896-2.044 2.128s.868 2.128 2.044 2.128m-6.403-6.888c-.63 0-1.162-.532-1.162-1.162s.532-1.162 1.162-1.162 1.148.532 1.148 1.162-.518 1.162-1.148 1.162M246.6 29v-7.056h1.778V29zm-5.54-2.576V23.54h-1.316v-1.596h1.316V20.18h1.792v1.764h2.156v1.596h-2.156v2.884c0 .784.42 1.092 1.12 1.092.49 0 .812-.056 1.05-.154v1.554c-.35.154-.77.224-1.358.224-1.764 0-2.604-.994-2.604-2.716m-9.553 6.02v-10.5h1.778v.574c.546-.546 1.232-.854 2.198-.854 2.24 0 3.584 1.75 3.584 3.808s-1.344 3.808-3.584 3.808c-.966 0-1.652-.308-2.198-.854v4.018zm3.724-9.1c-.826 0-1.498.364-1.946 1.022v2.212c.476.672 1.134 1.022 1.946 1.022 1.204 0 1.988-.896 1.988-2.128s-.784-2.128-1.988-2.128m-6.738-2.632c-.63 0-1.162-.532-1.162-1.162s.532-1.162 1.162-1.162 1.148.532 1.148 1.162-.518 1.162-1.148 1.162M227.597 29v-7.056h1.778V29zm-5.688 0v-7.056h1.778v.7c.462-.476 1.064-.84 1.862-.84.238 0 .448.042.616.098v1.75a3 3 0 0 0-.784-.098c-.868 0-1.428.476-1.694.924V29zm-4.309-1.4c.7 0 1.26-.322 1.596-.812l1.386 1.064c-.658.868-1.694 1.428-2.982 1.428-2.436 0-3.892-1.75-3.892-3.808s1.456-3.808 3.892-3.808c1.288 0 2.324.56 2.982 1.428l-1.386 1.064c-.336-.49-.896-.812-1.624-.812-1.162 0-2.016.896-2.016 2.128 0 1.246.854 2.128 2.044 2.128m-10.375.378 1.176-1.064c.434.546.952.938 1.624.938.574 0 .868-.336.868-.756 0-1.232-3.374-.77-3.374-3.248 0-1.246 1.05-2.184 2.52-2.184 1.078 0 2.058.518 2.562 1.204l-1.176 1.036c-.364-.448-.826-.812-1.372-.812-.56 0-.826.308-.826.672 0 1.204 3.374.784 3.374 3.22-.028 1.484-1.218 2.296-2.548 2.296-1.26 0-2.156-.504-2.828-1.302m-.9-.126c-.658.882-1.75 1.428-3.08 1.428-2.506 0-3.92-1.75-3.92-3.808 0-2.086 1.316-3.808 3.626-3.808 1.96 0 3.248 1.33 3.248 3.178 0 .392-.056.756-.112.994h-4.942c.168 1.316.98 1.848 2.086 1.848.77 0 1.442-.336 1.82-.84zm-3.416-4.732c-.91 0-1.512.504-1.708 1.428h3.248c-.028-.714-.546-1.428-1.54-1.428M189.051 29v-9.8h3.85c3.108 0 5.208 2.254 5.208 4.9s-2.1 4.9-5.208 4.9zm3.878-7.994h-1.89v6.188h1.89c1.82 0 3.136-1.358 3.136-3.094 0-1.75-1.316-3.094-3.136-3.094"/><defs><filter id="a" width="412.079" height="189.055" x="161.619" y="0" color-interpolation-filters="sRGB" filterUnits="userSpaceOnUse"><feFlood flood-opacity="0" result="BackgroundImageFix"/><feColorMatrix in="SourceAlpha" result="hardAlpha" values="0 0 0 0 0 0 0 0 0 0 0 0 0 0 0 0 0 0 127 0"/><feOffset dy="10"/><feGaussianBlur stdDeviation="5"/><feColorMatrix values="0 0 0 0 0 0 0 0 0 0 0 0 0 0 0 0 0 0 0.16 0"/><feBlend in2="BackgroundImageFix" result="effect1_dropShadow_21940_45965"/><feBlend in="SourceGraphic" in2="effect1_dropShadow_21940_45965" result="shape"/></filter></defs></svg>