<svg xmlns="http://www.w3.org/2000/svg" width="506" height="618" fill="none" viewBox="0 0 506 618"><g clip-path="url(#a)"><g filter="url(#b)"><path fill="#fff" d="M431.266 25.668H29.916a4.63 4.63 0 0 0-4.633 4.63v135.226a4.63 4.63 0 0 0 4.634 4.63h401.349a4.63 4.63 0 0 0 4.634-4.63V30.298a4.63 4.63 0 0 0-4.634-4.63"/><path stroke="#e6e6e6" d="M29.917 26.168h401.35a4.13 4.13 0 0 1 4.132 4.13v135.227a4.13 4.13 0 0 1-4.132 4.129H29.917a4.13 4.13 0 0 1-4.134-4.129V30.298l.006-.213a4.13 4.13 0 0 1 4.128-3.917Z"/></g><path fill="#161616" d="M44.375 62.304h2.371v-4.751h1.218l3.125 4.751h2.789l-3.657-5.202c1.205-.555 1.888-1.612 1.888-3.038 0-2.18-1.589-3.51-4.158-3.51h-3.577zm3.706-9.768c1.003 0 1.589.606 1.589 1.494 0 .955-.586 1.545-1.589 1.545h-1.335v-3.039zm14.736 8.392-1.521-1.208c-.45.606-1.251 1.006-2.174 1.006-1.318 0-2.287-.64-2.49-2.214h5.898c.068-.286.135-.72.135-1.19 0-2.215-1.538-3.81-3.875-3.81-2.755 0-4.327 2.067-4.327 4.567s1.69 4.566 4.676 4.566c1.588 0 2.89-.656 3.673-1.713zm-4.078-5.673c1.188 0 1.803.854 1.837 1.713H56.7c.236-1.107.952-1.713 2.04-1.713m5.15 5.825c.801.955 1.871 1.56 3.375 1.56 1.588 0 3.007-.971 3.041-2.751 0-2.921-4.027-2.416-4.027-3.86 0-.437.316-.804.986-.804s1.205.438 1.638.972l1.403-1.241c-.602-.82-1.769-1.444-3.058-1.444-1.752 0-3.008 1.124-3.008 2.618 0 2.971 4.027 2.416 4.027 3.893 0 .505-.35.905-1.036.905-.8 0-1.42-.471-1.938-1.124zm8.367 5.353h2.123v-4.82c.653.657 1.47 1.024 2.624 1.024 2.675 0 4.276-2.1 4.276-4.567s-1.605-4.566-4.276-4.566c-1.154 0-1.971.37-2.624 1.023v-.69h-2.123zM76.7 55.524c1.437 0 2.372 1.073 2.372 2.55 0 1.478-.935 2.55-2.372 2.55-.969 0-1.752-.42-2.321-1.224v-2.65c.535-.787 1.335-1.225 2.321-1.225m10.612-2.017c-2.738 0-4.608 2.033-4.608 4.567 0 2.533 1.87 4.566 4.608 4.566s4.613-2.033 4.613-4.566-1.87-4.567-4.613-4.567m.034 7.117c-1.403 0-2.44-1.073-2.44-2.55 0-1.478 1.037-2.55 2.44-2.55s2.371 1.072 2.371 2.55-1.019 2.55-2.371 2.55m6.512 1.679h2.123v-5.522c.316-.538.885-1.258 1.955-1.258s1.672.707 1.672 1.83v4.95h2.14v-5.033c0-2.5-1.453-3.758-3.273-3.758-1.12 0-1.904.437-2.49 1.005v-.673h-2.122v8.46zm9.559-1.224c.8.955 1.87 1.56 3.374 1.56 1.588 0 3.007-.971 3.041-2.751 0-2.921-4.027-2.416-4.027-3.86 0-.437.316-.804.986-.804s1.204.438 1.638.972l1.403-1.241c-.602-.82-1.769-1.444-3.058-1.444-1.753 0-3.008 1.124-3.008 2.618 0 2.971 4.027 2.416 4.027 3.893 0 .505-.349.905-1.036.905-.8 0-1.42-.471-1.938-1.124zm10.678 1.477c.986 0 1.989-.421 2.524-1.073v.82h2.123v-5.47c0-1.865-1.251-3.326-3.691-3.326-1.537 0-2.771.64-3.525 1.68l1.554 1.19c.451-.622 1.087-1.005 1.904-1.005.969 0 1.639.572 1.639 1.46v.219l-2.574.438c-1.803.303-2.789 1.258-2.789 2.533 0 1.562 1.154 2.534 2.839 2.534zm-.737-2.635c0-.522.367-.888 1.251-1.04l2.005-.336v1.191c-.417.673-1.12 1.124-2.089 1.124-.72 0-1.171-.37-1.171-.939zm16.829-1.847c0-2.467-1.605-4.567-4.275-4.567-1.155 0-1.972.37-2.625 1.023v-4.819h-2.123V62.3h2.123v-.69c.653.656 1.47 1.023 2.625 1.023 2.674 0 4.275-2.1 4.275-4.567zm-4.575-2.55c1.437 0 2.372 1.072 2.372 2.55s-.935 2.55-2.372 2.55c-.952 0-1.752-.42-2.321-1.208v-2.685c.519-.77 1.336-1.208 2.321-1.208m6.517 6.78h2.123V49.716h-2.123zm12.418-1.376-1.52-1.208c-.451.606-1.252 1.006-2.174 1.006-1.319 0-2.288-.64-2.49-2.214h5.898c.067-.286.135-.72.135-1.19 0-2.215-1.538-3.81-3.876-3.81-2.755 0-4.326 2.067-4.326 4.567s1.689 4.566 4.676 4.566c1.588 0 2.889-.656 3.673-1.713zm-4.077-5.673c1.187 0 1.802.854 1.836 1.713h-3.875c.236-1.107.952-1.713 2.039-1.713m9.899 2.82c0 2.466 1.622 4.566 4.276 4.566 1.137 0 1.954-.354 2.607-1.006v.673h2.14V49.721h-2.14v4.802c-.653-.657-1.47-1.006-2.607-1.006-2.658 0-4.276 2.1-4.276 4.566zm2.224 0c0-1.478.919-2.55 2.355-2.55.952 0 1.74.403 2.304 1.173v2.753c-.568.77-1.352 1.174-2.304 1.174-1.436 0-2.355-1.073-2.355-2.55m17.094 2.853-1.52-1.208c-.451.606-1.251 1.006-2.174 1.006-1.319 0-2.287-.64-2.49-2.214h5.898c.067-.286.135-.72.135-1.19 0-2.215-1.538-3.81-3.876-3.81-2.755 0-4.326 2.067-4.326 4.567s1.689 4.566 4.68 4.566c1.588 0 2.89-.656 3.673-1.713zm-4.077-5.673c1.188 0 1.807.854 1.836 1.713h-3.875c.232-1.107.952-1.713 2.039-1.713m10.501 7.049h2.123v-5.522c.316-.538.818-1.258 1.791-1.258s1.504.64 1.504 1.663v5.117h2.14v-5.202c0-.134 0-.252-.017-.37.332-.572.834-1.208 1.752-1.208s1.504.64 1.504 1.663v5.117h2.14v-5.202c0-2.382-1.369-3.59-3.109-3.59-1.42 0-2.22.64-2.822 1.377-.552-.905-1.487-1.376-2.557-1.376s-1.753.42-2.321.972v-.64h-2.123v8.46zm17.722.253c.986 0 1.989-.421 2.524-1.073v.82h2.123v-5.47c0-1.865-1.251-3.326-3.69-3.326-1.538 0-2.772.64-3.526 1.68l1.554 1.19c.451-.622 1.087-1.005 1.904-1.005.969 0 1.635.572 1.635 1.46v.219l-2.574.438c-1.803.303-2.789 1.258-2.789 2.533 0 1.562 1.15 2.534 2.839 2.534m-.733-2.635c0-.522.367-.888 1.251-1.04l2.006-.336v1.191c-.417.673-1.117 1.124-2.09 1.124-.716 0-1.167-.37-1.167-.939m6.972 3.859c0 1.78 1.588 2.72 4.276 2.72s4.41-1.445 4.41-3.326c0-1.578-1.15-2.718-3.273-2.718h-2.123c-.383 0-.569-.169-.569-.505 0-.186.101-.37.283-.54.248.051.518.068.8.068 2.174 0 3.408-1.342 3.408-3.005 0-.286-.034-.555-.118-.82h1.487V53.84h-3.075c-.485-.22-1.053-.337-1.702-.337-2.106 0-3.374 1.326-3.374 2.971 0 .939.4 1.78 1.137 2.332-.636.471-.918 1.006-.918 1.679 0 .438.185.888.518 1.225-.754.555-1.171 1.224-1.171 2.066zm3.842-5.909c-.918 0-1.47-.555-1.47-1.393 0-.837.552-1.376 1.47-1.376s1.453.539 1.453 1.376c0 .838-.569 1.393-1.453 1.393m-1.837 5.606c0-.522.249-.888.569-1.19h2.607c1.02 0 1.403.454 1.403 1.09 0 .837-.783 1.41-2.321 1.41-1.537 0-2.254-.506-2.254-1.31zm10.207-.921c.986 0 1.989-.421 2.524-1.073v.82h2.123v-5.47c0-1.865-1.256-3.326-3.695-3.326-1.537 0-2.771.64-3.525 1.68l1.554 1.19c.451-.622 1.087-1.005 1.904-1.005.969 0 1.634.572 1.634 1.46v.219l-2.573.438c-1.803.303-2.789 1.258-2.789 2.533 0 1.562 1.15 2.534 2.839 2.534zm-.733-2.635c0-.522.367-.888 1.251-1.04l2.006-.336v1.191c-.417.673-1.117 1.124-2.09 1.124-.716 0-1.167-.37-1.167-.939m7.073 1.158c.8.955 1.87 1.56 3.374 1.56 1.588 0 3.008-.971 3.042-2.751 0-2.921-4.028-2.416-4.028-3.86 0-.437.316-.804.986-.804s1.205.438 1.639.972l1.403-1.241c-.603-.82-1.774-1.444-3.059-1.444-1.752 0-3.007 1.124-3.007 2.618 0 2.971 4.027 2.416 4.027 3.893 0 .505-.35.905-1.036.905-.801 0-1.42-.471-1.938-1.124zm9.44-8.712c.75 0 1.369-.64 1.369-1.393 0-.754-.619-1.394-1.369-1.394s-1.386.64-1.386 1.394.636 1.393 1.386 1.393m-1.07 9.936h2.123v-8.46h-2.123zm4.663 0h2.123v-5.522c.316-.538.885-1.258 1.955-1.258s1.668.707 1.668 1.83v4.95h2.14v-5.033c0-2.5-1.453-3.758-3.273-3.758-1.121 0-1.904.437-2.49 1.005v-.673h-2.123z"/><path fill="#e6eefe" d="M415.659 44.27H260.627c-.931 0-1.685.754-1.685 1.684V68.39c0 .93.754 1.683 1.685 1.683h155.032c.931 0 1.685-.753 1.685-1.683V45.954c0-.93-.754-1.684-1.685-1.684"/><mask id="c" width="17" height="16" x="264" y="49" maskUnits="userSpaceOnUse" style="mask-type:luminance"><path fill="#fff" d="M280.248 49.43h-15.493v15.48h15.493z"/></mask><g mask="url(#c)"><path fill="#3558a2" fill-rule="evenodd" d="M275.084 50.074c.358 0 .644.29.644.644v1.936h2.583c.358 0 .644.29.644.644v9.031c0 .358-.29.644-.644.644h-11.623a.644.644 0 0 1-.644-.644v-9.031c0-.358.291-.644.644-.644h2.583v-1.936c0-.358.29-.644.644-.644zm2.582 9.032h-10.329v2.58h10.329zm-4.52-2.58h-1.293v1.292h1.293zm1.293-5.16h-3.875v1.292h3.875z" clip-rule="evenodd"/></g><path fill="#3558a2" d="M407.398 62.59V51.753h2.199V62.59zm-8.012-11.148c3.408 0 5.75 2.63 5.75 5.728s-2.338 5.728-5.75 5.728-5.762-2.63-5.762-5.728 2.337-5.728 5.762-5.728m0 9.398c2.031 0 3.488-1.595 3.488-3.67s-1.457-3.67-3.488-3.67-3.5 1.595-3.5 3.67 1.457 3.67 3.5 3.67m-12.856 1.75V51.753h2.199v8.838h4.119v2h-6.323zm-9.394 0V51.753h3.58c2.385 0 3.842 1.225 3.842 3.237s-1.457 3.22-3.842 3.22h-1.377v4.38zm3.669-9.01h-1.47v2.803h1.47c.931 0 1.487-.543 1.487-1.423 0-.82-.556-1.376-1.487-1.376zm-17.638 9.01V51.753h2.742l2.65 4.55 2.65-4.55h2.742V62.59h-2.199v-7.773l-2.418 4.057h-1.55l-2.418-4.057v7.773zm-9.031 0V51.753h6.323v1.827h-4.12v2.571h3.5v1.827h-3.5v2.786h4.12v1.826zm-3.665-6.38h-1.828l1.394-4.457h2.233zm-12.815 6.38V51.753h4.263c3.442 0 5.763 2.492 5.763 5.417s-2.325 5.416-5.763 5.416h-4.263zm4.293-8.842h-2.094v6.843h2.094c2.013 0 3.471-1.502 3.471-3.421 0-1.92-1.458-3.422-3.471-3.422m-17.503 8.842V51.753h6.323v1.827h-4.12v2.571h3.501v1.827h-3.501v2.786h4.12v1.826zm-10.367 0V51.753h3.315c2.385 0 3.859 1.225 3.859 3.237 0 1.317-.636 2.29-1.752 2.802l3.395 4.798h-2.587l-2.898-4.38h-1.133v4.38zm3.442-9.01h-1.239v2.803h1.239c.931 0 1.47-.543 1.47-1.423 0-.82-.544-1.376-1.47-1.376zm-11.854 9.01V51.753h6.322v1.827h-4.119v2.571h3.5v1.827h-3.5v4.612zm-8.413 0V51.753h6.323v1.827h-4.119v2.571h3.5v1.827h-3.5v4.612zm-8.012-11.148c3.408 0 5.75 2.63 5.75 5.728s-2.338 5.728-5.75 5.728-5.763-2.63-5.763-5.728 2.338-5.728 5.763-5.728m0 9.398c2.031 0 3.488-1.595 3.488-3.67s-1.457-3.67-3.488-3.67-3.5 1.595-3.5 3.67 1.457 3.67 3.5 3.67"/><path fill="#161616" d="M44.375 100.636h6.516v-1.763H46.28v-9.987h-1.905zm8.888 0h6.516v-1.629h-4.608v-3.543h3.943v-1.629H55.17V90.51h4.608v-1.628h-6.516zm8.594-1.628c1.036 1.258 2.321 1.965 4.158 1.965 2.09 0 3.707-1.326 3.74-3.426 0-3.96-5.446-3.358-5.446-5.774 0-.888.653-1.511 1.672-1.511.952 0 1.752.555 2.439 1.51l1.42-1.274c-.936-1.175-2.19-1.949-3.876-1.949-2.123 0-3.61 1.477-3.61 3.274 0 3.927 5.447 3.342 5.447 5.775 0 .989-.67 1.645-1.82 1.645-1.02 0-1.955-.555-2.721-1.528zm20.452.151c-2.44 0-4.192-1.932-4.192-4.398s1.753-4.398 4.192-4.398c1.47 0 2.658.72 3.39 1.78l1.539-1.19c-1.087-1.444-2.806-2.4-4.93-2.4-3.672 0-6.162 2.854-6.162 6.212 0 3.359 2.49 6.212 6.163 6.212 2.123 0 3.842-.955 4.929-2.399l-1.538-1.19c-.737 1.055-1.92 1.78-3.391 1.78zm7.367 1.477h6.517v-1.763H91.58v-9.987h-1.904zM102.71 87.88l2.157-2.264h-2.039l-1.888 2.264zm-4.141 12.756h6.517v-1.629h-4.613v-3.543h3.943v-1.629h-3.943V90.51h4.613v-1.628h-6.517zm8.589-1.628c1.036 1.258 2.321 1.965 4.158 1.965 2.089 0 3.707-1.326 3.741-3.426 0-3.96-5.447-3.358-5.447-5.774 0-.888.653-1.511 1.672-1.511.952 0 1.753.555 2.439 1.51l1.42-1.274c-.935-1.175-2.186-1.949-3.876-1.949-2.123 0-3.61 1.477-3.61 3.274 0 3.927 5.447 3.342 5.447 5.775 0 .989-.67 1.645-1.82 1.645-1.019 0-1.954-.555-2.721-1.528zm-61.009 26.711 5.181-8.905v-1.166h-6.96v1.166h5.586l-5.3 8.905zm7.03-4.776h2.751c1.403 0 2.22.778 2.22 1.94 0 1.225-.93 1.957-2.19 1.957-1.087 0-1.917-.459-2.536-1.583l-1.133.703c.8 1.339 1.963 2.041 3.681 2.041 2.005 0 3.492-1.237 3.492-3.164 0-1.785-1.116-3.081-3.48-3.081H54.54l.173-2.95h4.28v-1.166h-5.514l-.3 5.294zm10.952.501v1.178h3.868v-1.178zm9.285 4.275h1.348v-4.414h1.588c2.005 0 3.252-1.095 3.252-2.82 0-1.726-1.247-2.833-3.252-2.833h-2.936v10.072zm2.966-8.922c1.145 0 1.832.631 1.832 1.654 0 1.077-.687 1.696-1.832 1.696h-1.618v-3.35zm3.008 8.922h1.432l1.158-2.962h4.613l1.159 2.962h1.432l-3.994-10.071h-1.803l-3.993 10.071zm3.033-4.128 1.862-4.76 1.861 4.76zm8.741 4.129h1.348v-4.415h1.318c.101 0 .215 0 .316-.013l2.907 4.432h1.588l-3.235-4.689c1.074-.433 1.689-1.338 1.689-2.546 0-1.725-1.247-2.832-3.265-2.832h-2.662v10.071zm2.717-8.923c1.145 0 1.82.632 1.82 1.654 0 1.078-.675 1.696-1.82 1.696h-1.374v-3.35zm6.453 8.922h1.348v-10.071h-1.348zm3.774-1.384c.872 1.094 1.963 1.654 3.438 1.654 1.777 0 3.109-1.107 3.109-2.849 0-3.35-4.739-2.833-4.739-5.093 0-.862.631-1.481 1.617-1.481.86 0 1.563.475 2.149 1.321l1.015-.892c-.746-.993-1.774-1.641-3.181-1.641-1.748 0-2.978 1.224-2.978 2.719 0 3.324 4.756 2.832 4.756 5.109 0 .921-.645 1.595-1.761 1.595-.931 0-1.731-.476-2.418-1.368l-1.002.922zm15.726-8.977c-2.49 0-3.737 2.331-3.737 5.324s1.247 5.324 3.737 5.324c2.489 0 3.753-2.332 3.753-5.324s-1.23-5.324-3.753-5.324m.017 1.212c1.588 0 2.405 1.755 2.405 4.116s-.817 4.116-2.405 4.116c-1.589 0-2.435-1.755-2.435-4.116s.83-4.116 2.435-4.116m8.024 9.436c2.848 0 4.137-2.214 4.137-5.48 0-3.497-1.474-5.164-3.825-5.164-2.178 0-3.45 1.553-3.45 3.38s1.289 3.194 3.164 3.194c1.116 0 2.059-.404 2.776-1.136-.059 2.504-.974 4.027-2.806 4.027-.931 0-1.618-.446-2.19-1.321l-1.033.791c.687 1.023 1.677 1.713 3.223 1.713zm-1.803-7.311c0-1.208.801-2.159 2.132-2.159 1.259 0 2.203.804 2.418 2.921-.586.88-1.504 1.309-2.519 1.309-1.176 0-2.035-.905-2.035-2.071z"/><path fill="#666" d="M48.022 138.484c-2.017 0-3.18 1.195-3.18 2.635 0 1.006.514 1.797 1.474 2.213-1.247.447-1.946 1.423-1.946 2.719 0 1.743 1.373 3.077 3.652 3.077s3.653-1.339 3.653-3.077c0-1.296-.704-2.272-1.947-2.719.944-.416 1.462-1.207 1.462-2.213 0-1.44-1.158-2.635-3.163-2.635zm.017 4.36c-1.116 0-1.845-.648-1.845-1.612 0-.963.729-1.624 1.845-1.624s1.82.661 1.82 1.624-.746 1.612-1.82 1.612m0 5.147c-1.403 0-2.334-.803-2.334-1.999 0-1.195.931-2.041 2.334-2.041s2.304.85 2.304 2.041-.93 1.999-2.304 1.999m9.436.851h1.23v-2.315l1.062-1.052 2.447 3.367h1.504l-3.079-4.23 3.02-3.022h-1.562l-3.396 3.397v-6.936h-1.23v10.791zm7.861-.001h1.217v-5.02c.417-.75 1.032-1.368 2.018-1.368 1.045 0 1.702.69 1.702 1.898v4.486h1.217v-4.532a4 4 0 0 0-.03-.489c.473-.85 1.117-1.367 2.035-1.367 1.032 0 1.702.69 1.702 1.898v4.486h1.218V144.3c0-1.969-1.134-3.005-2.68-3.005-1.246 0-2.005.606-2.578 1.398-.442-.922-1.301-1.398-2.346-1.398s-1.719.447-2.262 1.078v-.791h-1.218v7.251zm14.078-3.955c0-2.547.901-4.605 2.405-6.099l-.889-.732c-1.605 1.54-2.75 3.914-2.75 6.835s1.044 5.235 2.75 6.834l.89-.732c-1.564-1.553-2.406-3.552-2.406-6.098zm2.894 2.962c.657.821 1.562 1.28 2.704 1.28 1.344 0 2.418-.85 2.435-2.201 0-2.475-3.623-1.957-3.623-3.582 0-.56.417-1.022 1.188-1.022.632 0 1.175.345 1.563.892l.847-.72c-.502-.707-1.39-1.195-2.418-1.195-1.39 0-2.347.934-2.347 2.07 0 2.559 3.61 1.987 3.61 3.611 0 .632-.459 1.124-1.26 1.124-.728 0-1.33-.362-1.832-.993l-.859.732zm8.202-2.963c0 2.559-.89 4.575-2.418 6.099l.889.732c1.66-1.57 2.75-3.927 2.75-6.835s-1.103-5.265-2.75-6.835l-.89.733c1.534 1.523 2.419 3.552 2.419 6.098zm6.369.333c0 2.113 1.445 3.914 3.707 3.914 1.074 0 1.921-.417 2.561-1.149v.863h1.218v-10.791h-1.218v4.402c-.644-.732-1.491-1.149-2.561-1.149-2.262 0-3.707 1.797-3.707 3.914zm1.289 0c0-1.54 1.032-2.761 2.561-2.761.99 0 1.862.476 2.418 1.338v2.85a2.81 2.81 0 0 1-2.418 1.338c-1.533 0-2.561-1.225-2.561-2.761zm13.792.518c0 1.422-.775 2.243-1.976 2.243s-1.988-.821-1.988-2.243v-4.146h-1.218v4.099c0 2.172 1.247 3.439 3.193 3.439 1.947 0 3.206-1.267 3.206-3.439v-4.099h-1.217zm7.477 3.106h1.217v-10.791h-1.217zm4.402-9.137a.853.853 0 0 0 .847-.863.84.84 0 0 0-.847-.85.86.86 0 0 0-.86.85c0 .463.388.863.86.863m-.615 9.136h1.217v-7.251h-1.217zm10.207-1.195-.902-.707c-.472.648-1.259 1.078-2.19 1.078-1.546 0-2.65-1.052-2.692-2.791h5.539a4 4 0 0 0 .084-.761c0-1.785-1.276-3.165-3.235-3.165-2.232 0-3.635 1.713-3.635 3.914s1.504 3.914 3.939 3.914c1.348 0 2.418-.577 3.092-1.482m-3.425-5.307c1.276 0 2.005.893 2.047 1.957h-4.326c.257-1.25 1.087-1.957 2.275-1.957zm10.24 3.397c0 1.422-.775 2.243-1.975 2.243s-1.989-.821-1.989-2.243v-4.146h-1.217v4.099c0 2.172 1.247 3.439 3.193 3.439s3.206-1.267 3.206-3.439v-4.099h-1.218zm6.862-.518c0 2.113 1.445 3.914 3.707 3.914 1.075 0 1.921-.417 2.562-1.149v.863h1.217v-10.791h-1.217v4.402c-.645-.732-1.487-1.149-2.562-1.149-2.262 0-3.707 1.797-3.707 3.914zm1.289 0c0-1.54 1.032-2.761 2.562-2.761.985 0 1.862.476 2.418 1.338v2.85a2.8 2.8 0 0 1-2.418 1.338c-1.534 0-2.562-1.225-2.562-2.761zm15.178 2.428-.901-.707c-.472.648-1.26 1.078-2.191 1.078-1.546 0-2.649-1.052-2.691-2.791h5.539c.042-.202.088-.475.088-.761 0-1.785-1.276-3.165-3.235-3.165-2.232 0-3.635 1.713-3.635 3.914s1.504 3.914 3.939 3.914c1.343 0 2.417-.577 3.091-1.482zm-3.42-5.307c1.272 0 2.005.893 2.047 1.957h-4.326c.257-1.25 1.087-1.957 2.279-1.957m9.187 6.503h1.218v-4.979c.442-.732 1.057-1.225 2.005-1.225.286 0 .501.03.716.089v-1.196a2 2 0 0 0-.615-.088c-.918 0-1.576.417-2.106 1.052v-.905h-1.218zm11.673-1.196-.902-.707c-.472.648-1.259 1.078-2.19 1.078-1.546 0-2.65-1.052-2.692-2.791h5.539c.043-.202.089-.475.089-.761 0-1.785-1.277-3.165-3.235-3.165-2.233 0-3.636 1.713-3.636 3.914s1.504 3.914 3.939 3.914c1.344 0 2.418-.577 3.092-1.482zm-3.425-5.307c1.276 0 2.005.893 2.047 1.957h-4.326c.257-1.25 1.087-1.957 2.275-1.957zm8.623 5.64c-1.563 0-2.662-1.208-2.662-2.761s1.099-2.761 2.65-2.761a2.5 2.5 0 0 1 2.076 1.065l.961-.732c-.674-.893-1.731-1.482-3.037-1.482-2.393 0-3.922 1.797-3.922 3.914s1.533 3.914 3.922 3.914c1.318 0 2.363-.576 3.037-1.481l-.961-.733a2.49 2.49 0 0 1-2.064 1.065zm4.689.863h1.217v-5.021c.459-.749 1.104-1.368 2.161-1.368 1.133 0 1.845.749 1.845 2.041v4.343h1.218v-4.389c0-2.058-1.205-3.153-2.823-3.153-1.074 0-1.82.459-2.405 1.107v-4.36h-1.218v10.791zm15.308-1.196-.902-.707c-.472.648-1.259 1.078-2.19 1.078-1.546 0-2.65-1.052-2.692-2.791h5.539c.042-.202.089-.475.089-.761 0-1.785-1.277-3.165-3.236-3.165-2.232 0-3.635 1.713-3.635 3.914s1.504 3.914 3.939 3.914c1.344 0 2.418-.577 3.092-1.482zm-3.421-5.307c1.276 0 2.005.893 2.047 1.957h-4.326c.257-1.25 1.087-1.957 2.279-1.957m5.329 6.503h1.218v-4.979c.442-.732 1.061-1.225 2.005-1.225.286 0 .501.03.716.089v-1.196a2 2 0 0 0-.615-.088c-.918 0-1.576.417-2.106 1.052v-.905h-1.218zm8.577-.863c-1.563 0-2.663-1.208-2.663-2.761s1.104-2.761 2.65-2.761c.901 0 1.63.434 2.077 1.065l.96-.732c-.674-.893-1.731-1.482-3.037-1.482-2.393 0-3.926 1.797-3.926 3.914s1.533 3.914 3.926 3.914c1.318 0 2.363-.576 3.037-1.481l-.96-.733a2.49 2.49 0 0 1-2.064 1.065zm4.692.863h1.218v-5.021c.459-.749 1.103-1.368 2.161-1.368 1.133 0 1.849.749 1.849 2.041v4.343h1.217v-4.389c0-2.058-1.2-3.153-2.818-3.153-1.074 0-1.82.459-2.405 1.107v-4.36h-1.218v10.791zm15.308-1.196-.901-.707c-.472.648-1.26 1.078-2.191 1.078-1.546 0-2.649-1.052-2.691-2.791h5.543c.042-.202.085-.475.085-.761 0-1.785-1.273-3.165-3.236-3.165-2.232 0-3.635 1.713-3.635 3.914s1.504 3.914 3.939 3.914c1.348 0 2.418-.577 3.092-1.482zm-3.424-5.307c1.276 0 2.005.893 2.047 1.957h-4.326c.257-1.25 1.086-1.957 2.274-1.957z"/><g filter="url(#d)"><path fill="#fff" d="M431.266 184.345H29.916a4.63 4.63 0 0 0-4.633 4.63v136.518a4.63 4.63 0 0 0 4.634 4.63h401.349a4.63 4.63 0 0 0 4.634-4.63V188.975a4.63 4.63 0 0 0-4.634-4.63"/><path stroke="#e6e6e6" d="M29.917 184.845h401.35a4.13 4.13 0 0 1 4.132 4.13v136.519a4.13 4.13 0 0 1-4.132 4.129H29.917a4.13 4.13 0 0 1-4.134-4.129V188.975c0-2.28 1.85-4.13 4.134-4.13Z"/></g><path fill="#161616" d="m46.148 284.46 5.181-8.906v-1.166H44.37v1.166h5.586l-5.3 8.906zm7.03-4.777h2.751c1.403 0 2.22.778 2.22 1.944s-.93 1.957-2.19 1.957c-1.087 0-1.917-.459-2.536-1.582l-1.133.703c.8 1.338 1.963 2.045 3.681 2.045 2.005 0 3.492-1.237 3.492-3.165 0-1.784-1.116-3.076-3.48-3.076H54.54l.173-2.951h4.28v-1.165h-5.514l-.3 5.294zm10.952.505v1.178h3.868v-1.178zm9.285 4.272h1.348v-4.419h1.588c2.005 0 3.252-1.095 3.252-2.82 0-1.726-1.247-2.833-3.252-2.833h-2.936zm2.966-8.918c1.145 0 1.832.635 1.832 1.654 0 1.077-.687 1.696-1.832 1.696h-1.618v-3.355h1.618zm3.008 8.918h1.432l1.158-2.963h4.613l1.159 2.963h1.432l-3.994-10.072h-1.803l-3.993 10.072zm3.033-4.129 1.862-4.76 1.861 4.76zm8.741 4.129h1.348v-4.419h1.318c.101 0 .215 0 .316-.013l2.907 4.432h1.588l-3.235-4.693c1.074-.433 1.689-1.338 1.689-2.546 0-1.726-1.247-2.833-3.265-2.833h-2.662v10.072zm2.717-8.918c1.145 0 1.82.635 1.82 1.654 0 1.077-.675 1.696-1.82 1.696h-1.374v-3.355h1.374zm6.453 8.918h1.348v-10.072h-1.348zm3.774-1.381c.872 1.095 1.963 1.654 3.438 1.654 1.777 0 3.109-1.107 3.109-2.849 0-3.35-4.739-2.832-4.739-5.092 0-.863.631-1.482 1.617-1.482.86 0 1.563.476 2.149 1.322l1.015-.893c-.746-.993-1.774-1.641-3.181-1.641-1.748 0-2.978 1.225-2.978 2.719 0 3.325 4.756 2.832 4.756 5.109 0 .922-.645 1.595-1.761 1.595-.931 0-1.731-.475-2.418-1.368l-1.002.922zm14.837 1.381h1.276v-10.072h-1.289l-3.294 1.827.657.922 2.65-1.44zm6.365 0h1.276v-10.072h-1.289l-3.294 1.827.657.922 2.65-1.44z"/><path fill="#666" d="M48.022 297.224c-2.017 0-3.18 1.196-3.18 2.635 0 1.006.514 1.797 1.474 2.214-1.247.446-1.946 1.422-1.946 2.718 0 1.743 1.373 3.081 3.652 3.081s3.653-1.338 3.653-3.081c0-1.296-.704-2.272-1.947-2.718.944-.417 1.462-1.208 1.462-2.214 0-1.439-1.158-2.635-3.163-2.635zm.017 4.36c-1.116 0-1.845-.648-1.845-1.611 0-.964.729-1.625 1.845-1.625s1.82.661 1.82 1.625c0 .963-.746 1.611-1.82 1.611m0 5.152c-1.403 0-2.334-.804-2.334-1.999s.931-2.041 2.334-2.041 2.304.85 2.304 2.041-.93 1.999-2.304 1.999m9.436.846h1.23v-2.315l1.062-1.052 2.447 3.367h1.504l-3.079-4.23 3.02-3.022h-1.562l-3.396 3.397v-6.936h-1.23v10.791zm7.861 0h1.217v-5.021c.417-.745 1.032-1.368 2.018-1.368 1.045 0 1.702.69 1.702 1.898v4.487h1.217v-4.533c0-.173-.012-.333-.03-.488.473-.85 1.117-1.368 2.035-1.368 1.032 0 1.702.69 1.702 1.898v4.486h1.218v-4.532c0-1.97-1.134-3.01-2.68-3.01-1.246 0-2.005.602-2.578 1.398-.442-.922-1.301-1.398-2.346-1.398s-1.719.447-2.262 1.078v-.791h-1.218v7.251zm14.078-3.952c0-2.547.901-4.605 2.405-6.103l-.889-.732c-1.605 1.54-2.75 3.914-2.75 6.835s1.044 5.235 2.75 6.834l.89-.732c-1.564-1.553-2.406-3.552-2.406-6.098zm2.894 2.963c.657.82 1.562 1.279 2.704 1.279 1.344 0 2.418-.85 2.435-2.201 0-2.475-3.623-1.957-3.623-3.581 0-.56.417-1.019 1.188-1.019.632 0 1.175.345 1.563.892l.847-.719c-.502-.703-1.39-1.196-2.418-1.196-1.39 0-2.347.935-2.347 2.071 0 2.559 3.61 1.986 3.61 3.611 0 .635-.459 1.124-1.26 1.124-.728 0-1.33-.362-1.832-.994l-.859.733zm8.202-2.963c0 2.559-.89 4.575-2.418 6.098l.889.732c1.66-1.569 2.75-3.926 2.75-6.834 0-2.909-1.103-5.265-2.75-6.835l-.89.732c1.534 1.524 2.419 3.552 2.419 6.103zm6.369.328c0 2.117 1.445 3.914 3.707 3.914 1.074 0 1.921-.417 2.561-1.153v.863h1.218v-10.791h-1.218v4.402c-.644-.732-1.491-1.149-2.561-1.149-2.262 0-3.707 1.797-3.707 3.914m1.289 0c0-1.54 1.032-2.761 2.561-2.761.99 0 1.862.476 2.418 1.339v2.849a2.81 2.81 0 0 1-2.418 1.338c-1.533 0-2.561-1.225-2.561-2.761zm13.792.518c0 1.422-.775 2.243-1.976 2.243s-1.988-.821-1.988-2.243v-4.146h-1.218v4.099c0 2.172 1.247 3.439 3.193 3.439 1.947 0 3.206-1.267 3.206-3.439v-4.099h-1.217zm7.477 3.106h1.217v-10.791h-1.217zm4.402-9.133a.853.853 0 0 0 .847-.863.84.84 0 0 0-.847-.85.86.86 0 0 0-.86.85c0 .463.388.863.86.863m-.615 9.133h1.217v-7.252h-1.217zm10.207-1.191-.902-.707c-.472.648-1.259 1.081-2.19 1.081-1.546 0-2.65-1.052-2.692-2.79h5.539c.042-.202.084-.476.084-.762 0-1.784-1.276-3.165-3.235-3.165-2.232 0-3.635 1.713-3.635 3.914s1.504 3.914 3.939 3.914c1.348 0 2.418-.576 3.092-1.481zm-3.425-5.312c1.276 0 2.005.893 2.047 1.957h-4.326c.257-1.25 1.087-1.957 2.275-1.957zm10.24 3.397c0 1.422-.775 2.243-1.975 2.243s-1.989-.821-1.989-2.243v-4.146h-1.217v4.099c0 2.172 1.247 3.439 3.193 3.439s3.206-1.267 3.206-3.439v-4.099h-1.218zm6.862-.518c0 2.117 1.445 3.914 3.707 3.914 1.075 0 1.921-.417 2.562-1.153v.863h1.217v-10.791h-1.217v4.402c-.645-.732-1.487-1.149-2.562-1.149-2.262 0-3.707 1.797-3.707 3.914m1.289 0c0-1.54 1.032-2.761 2.562-2.761.985 0 1.862.476 2.418 1.339v2.849a2.8 2.8 0 0 1-2.418 1.338c-1.534 0-2.562-1.225-2.562-2.761zm15.178 2.433-.901-.707c-.472.648-1.26 1.081-2.191 1.081-1.546 0-2.649-1.052-2.691-2.79h5.539c.042-.202.088-.476.088-.762 0-1.784-1.276-3.165-3.235-3.165-2.232 0-3.635 1.713-3.635 3.914s1.504 3.914 3.939 3.914c1.343 0 2.417-.576 3.091-1.481zm-3.42-5.312c1.272 0 2.005.893 2.047 1.957h-4.326c.257-1.25 1.087-1.957 2.279-1.957m9.187 6.503h1.218v-4.979c.442-.732 1.057-1.225 2.005-1.225.286 0 .501.03.716.088v-1.195a2.1 2.1 0 0 0-.615-.088c-.918 0-1.576.417-2.106 1.052v-.905h-1.218zm11.673-1.191-.902-.707c-.472.648-1.259 1.081-2.19 1.081-1.546 0-2.65-1.052-2.692-2.79h5.539c.043-.202.089-.476.089-.762 0-1.784-1.277-3.165-3.235-3.165-2.233 0-3.636 1.713-3.636 3.914s1.504 3.914 3.939 3.914c1.344 0 2.418-.576 3.092-1.481zm-3.425-5.312c1.276 0 2.005.893 2.047 1.957h-4.326c.257-1.25 1.087-1.957 2.275-1.957zm8.623 5.64c-1.563 0-2.662-1.208-2.662-2.761s1.099-2.761 2.65-2.761a2.5 2.5 0 0 1 2.076 1.065l.961-.732c-.674-.892-1.731-1.482-3.037-1.482-2.393 0-3.922 1.797-3.922 3.914s1.533 3.914 3.922 3.914c1.318 0 2.363-.576 3.037-1.481l-.961-.732a2.48 2.48 0 0 1-2.064 1.064zm4.689.863h1.217v-5.021c.459-.745 1.104-1.368 2.161-1.368 1.133 0 1.845.749 1.845 2.045v4.344h1.218v-4.39c0-2.058-1.205-3.152-2.823-3.152-1.074 0-1.82.459-2.405 1.107v-4.36h-1.218v10.79zm15.308-1.191-.902-.707c-.472.648-1.259 1.081-2.19 1.081-1.546 0-2.65-1.052-2.692-2.79h5.539a4 4 0 0 0 .089-.762c0-1.784-1.277-3.165-3.236-3.165-2.232 0-3.635 1.713-3.635 3.914s1.504 3.914 3.939 3.914c1.344 0 2.418-.576 3.092-1.481zm-3.421-5.312c1.276 0 2.005.893 2.047 1.957h-4.326c.257-1.25 1.087-1.957 2.279-1.957m5.329 6.503h1.218v-4.979c.442-.732 1.061-1.225 2.005-1.225.286 0 .501.03.716.088v-1.195a2.1 2.1 0 0 0-.615-.088c-.918 0-1.576.417-2.106 1.052v-.905h-1.218zm8.577-.863c-1.563 0-2.663-1.208-2.663-2.761s1.104-2.761 2.65-2.761c.901 0 1.63.434 2.077 1.065l.96-.732c-.674-.892-1.731-1.482-3.037-1.482-2.393 0-3.926 1.797-3.926 3.914s1.533 3.914 3.926 3.914c1.318 0 2.363-.576 3.037-1.481l-.96-.732a2.48 2.48 0 0 1-2.064 1.064zm4.692.863h1.218v-5.021c.459-.745 1.103-1.368 2.161-1.368 1.133 0 1.849.749 1.849 2.045v4.344h1.217v-4.39c0-2.058-1.2-3.152-2.818-3.152-1.074 0-1.82.459-2.405 1.107v-4.36h-1.218v10.79zm15.308-1.191-.901-.707c-.472.648-1.26 1.081-2.191 1.081-1.546 0-2.649-1.052-2.691-2.79h5.543c.042-.202.085-.476.085-.762 0-1.784-1.273-3.165-3.236-3.165-2.232 0-3.635 1.713-3.635 3.914s1.504 3.914 3.939 3.914c1.348 0 2.418-.576 3.092-1.481zm-3.424-5.312c1.276 0 2.005.893 2.047 1.957h-4.326c.257-1.25 1.086-1.957 2.274-1.957z"/><path fill="#161616" d="M44.375 257.752c1.036 1.258 2.32 1.965 4.157 1.965 2.09 0 3.707-1.325 3.74-3.426 0-3.96-5.446-3.358-5.446-5.774 0-.888.653-1.511 1.672-1.511.953 0 1.753.556 2.44 1.511l1.42-1.275c-.936-1.174-2.191-1.949-3.876-1.949-2.123 0-3.61 1.478-3.61 3.275 0 3.926 5.446 3.341 5.446 5.774 0 .989-.67 1.646-1.82 1.646-1.019 0-1.954-.556-2.72-1.528zm17.924.252-1.251-1.006c-.519.707-1.37 1.158-2.389 1.158-1.622 0-2.738-.956-2.856-2.803h6.213c.068-.253.118-.636.118-1.023 0-2.15-1.504-3.746-3.825-3.746-2.67 0-4.275 2.033-4.275 4.567 0 2.533 1.718 4.566 4.625 4.566 1.571 0 2.856-.652 3.644-1.713zm-4.027-5.976c1.352 0 2.106.972 2.14 2.033h-4.529c.265-1.309 1.137-2.033 2.389-2.033m10.008 6.056c-1.638 0-2.805-1.258-2.805-2.937 0-1.68 1.171-2.938 2.789-2.938.969 0 1.735.471 2.203 1.124l1.352-1.04c-.767-1.039-2.022-1.713-3.56-1.713-2.822 0-4.595 2.1-4.595 4.567s1.769 4.566 4.595 4.566c1.555 0 2.79-.669 3.56-1.713l-1.352-1.039a2.65 2.65 0 0 1-2.19 1.123zm5.86-1.641c0 2.062 1.036 3.106 3.008 3.106.653 0 1.12-.084 1.52-.253v-1.527c-.299.117-.686.185-1.25.185-.936 0-1.538-.371-1.538-1.511v-3.96h2.788v-1.562H75.88v-2.117h-1.736v2.117h-1.588v1.562h1.588v3.96zm14.015 1.561-1.252-1.006c-.518.707-1.369 1.158-2.388 1.158-1.622 0-2.738-.956-2.856-2.803h6.213c.068-.253.118-.636.118-1.023 0-2.15-1.504-3.746-3.825-3.746-2.67 0-4.275 2.033-4.275 4.567 0 2.533 1.718 4.566 4.625 4.566 1.571 0 2.856-.652 3.644-1.713zm-4.028-5.976c1.353 0 2.107.972 2.14 2.033H81.74c.265-1.309 1.137-2.033 2.388-2.033m11.715 3.725c0 1.46-.784 2.331-2.073 2.331s-2.09-.871-2.09-2.331v-4.836h-1.735v4.751c0 2.534 1.454 4.045 3.825 4.045s3.808-1.511 3.808-4.045v-4.751h-1.735zm4.351 3.628h1.719v-5.64c.434-.72 1.137-1.292 2.203-1.292.35 0 .619.05.885.118v-1.696a2.5 2.5 0 0 0-.738-.118c-1.036 0-1.769.471-2.354 1.124v-.956h-1.719v8.46zm10.54-4.23c0 2.466 1.655 4.566 4.309 4.566 1.205 0 2.107-.437 2.806-1.191v.859h1.752v-12.588h-1.752v4.983c-.704-.753-1.605-1.191-2.806-1.191-2.658 0-4.309 2.1-4.309 4.566zm1.82 0c0-1.662 1.087-2.938 2.704-2.938 1.053 0 1.972.489 2.591 1.41v3.056c-.569.892-1.504 1.41-2.591 1.41-1.622 0-2.704-1.276-2.704-2.938m10.662-2.875 1.819-4.646h-1.954l-1.454 4.646zm5.421 7.353c1.036 0 2.089-.472 2.687-1.208v.955h1.719v-5.589c0-1.864-1.251-3.207-3.526-3.207-1.504 0-2.704.64-3.458 1.646l1.285.989c.484-.686 1.204-1.107 2.123-1.107 1.087 0 1.853.64 1.853 1.679v.438l-2.721.454c-1.786.304-2.772 1.225-2.772 2.5 0 1.494 1.138 2.45 2.806 2.45zm-1.07-2.517c0-.64.434-1.09 1.487-1.275l2.27-.387v1.46c-.501.808-1.318 1.309-2.371 1.309-.868 0-1.386-.455-1.386-1.107m12.119.972c-1.638 0-2.805-1.258-2.805-2.937 0-1.68 1.171-2.938 2.788-2.938.969 0 1.736.471 2.204 1.124l1.352-1.04c-.767-1.039-2.022-1.713-3.56-1.713-2.822 0-4.596 2.1-4.596 4.567s1.77 4.566 4.596 4.566c1.555 0 2.789-.669 3.56-1.713l-1.352-1.039a2.65 2.65 0 0 1-2.187 1.123m5.855-1.641c0 2.062 1.037 3.106 3.008 3.106.653 0 1.121-.084 1.521-.253v-1.527c-.299.117-.683.185-1.251.185-.935 0-1.538-.371-1.538-1.511v-3.96h2.789v-1.562h-2.789v-2.117h-1.735v2.117h-1.588v1.562h1.588v3.96zm7.448-7.403c.636 0 1.171-.539 1.171-1.174 0-.636-.535-1.174-1.171-1.174s-1.167.538-1.167 1.174.535 1.174 1.167 1.174m-.868 10.341h1.723v-8.46h-1.723zm3.299-8.46 3.172 8.459h2.287l3.189-8.459h-1.87l-2.456 6.578-2.473-6.578h-1.853zm11.078-1.881c.636 0 1.171-.539 1.171-1.174 0-.636-.535-1.174-1.171-1.174s-1.166.538-1.166 1.174.535 1.174 1.166 1.174m-.872 10.341h1.723v-8.46h-1.723zm5.039-2.938c0 2.062 1.036 3.106 3.007 3.106.653 0 1.121-.084 1.521-.253v-1.527c-.299.117-.686.185-1.255.185-.935 0-1.538-.371-1.538-1.511v-3.96h2.789v-1.562H172.4v-2.117h-1.735v2.117h-1.588v1.562h1.588zm10.961-6.864 1.971-2.787h-1.904l-1.736 2.787zm3.058 8.425-1.251-1.006c-.518.707-1.369 1.158-2.389 1.158-1.622 0-2.738-.956-2.856-2.803h6.214c.067-.253.118-.636.118-1.023 0-2.151-1.504-3.746-3.825-3.746-2.675 0-4.276 2.033-4.276 4.567 0 2.533 1.723 4.566 4.629 4.566 1.572 0 2.857-.652 3.64-1.713zm-4.027-5.976c1.352 0 2.106.972 2.14 2.033h-4.529c.266-1.309 1.138-2.033 2.389-2.033m11.487 1.174c.683 0 1.235-.568 1.235-1.258a1.22 1.22 0 0 0-1.235-1.225c-.682 0-1.255.556-1.255 1.225s.552 1.258 1.255 1.258m0 6.376c.683 0 1.235-.555 1.235-1.241s-.552-1.242-1.235-1.242c-.682 0-1.255.568-1.255 1.242a1.25 1.25 0 0 0 1.255 1.241m7.566-1.826c1.036 1.258 2.321 1.965 4.162 1.965 2.089 0 3.707-1.325 3.741-3.426 0-3.96-5.447-3.358-5.447-5.774 0-.888.649-1.511 1.672-1.511.952 0 1.753.556 2.439 1.511l1.42-1.275c-.935-1.174-2.191-1.949-3.876-1.949-2.123 0-3.61 1.478-3.61 3.275 0 3.926 5.447 3.341 5.447 5.774 0 .989-.67 1.646-1.82 1.646-1.019 0-1.954-.556-2.721-1.528l-1.403 1.292zm17.928.252-1.255-1.006c-.518.707-1.369 1.158-2.389 1.158-1.621 0-2.738-.956-2.856-2.803h6.214c.067-.253.118-.636.118-1.023 0-2.15-1.504-3.746-3.825-3.746-2.675 0-4.276 2.033-4.276 4.567 0 2.533 1.719 4.566 4.625 4.566 1.572 0 2.857-.652 3.644-1.713m-4.027-5.976c1.352 0 2.106.972 2.14 2.033h-4.528c.265-1.309 1.133-2.033 2.388-2.033m6.113 7.353h1.718v-5.64c.434-.72 1.138-1.292 2.208-1.292.349 0 .619.05.884.118v-1.696a2.5 2.5 0 0 0-.737-.118c-1.036 0-1.769.471-2.355 1.124v-.956h-1.718zm5.83-8.46 3.172 8.459h2.287l3.189-8.459h-1.871l-2.455 6.578-2.473-6.578h-1.854zm11.078-1.881c.637 0 1.167-.539 1.167-1.174 0-.636-.535-1.174-1.167-1.174-.631 0-1.171.538-1.171 1.174s.535 1.174 1.171 1.174m-.872 10.341h1.723v-8.46h-1.723zm8.48-1.297c-1.634 0-2.805-1.258-2.805-2.937 0-1.68 1.171-2.938 2.788-2.938.969 0 1.736.471 2.203 1.124l1.353-1.04c-.767-1.039-2.022-1.713-3.556-1.713-2.822 0-4.596 2.1-4.596 4.567s1.77 4.566 4.596 4.566c1.555 0 2.789-.669 3.556-1.713l-1.353-1.039a2.65 2.65 0 0 1-2.19 1.123zm12.612-.08-1.255-1.006c-.518.707-1.369 1.158-2.389 1.158-1.617 0-2.738-.956-2.856-2.803h6.214c.067-.253.118-.636.118-1.023 0-2.15-1.504-3.746-3.825-3.746-2.675 0-4.276 2.033-4.276 4.567 0 2.533 1.719 4.566 4.625 4.566 1.572 0 2.856-.652 3.644-1.713m-4.023-5.976c1.352 0 2.106.972 2.14 2.033h-4.528c.265-1.309 1.137-2.033 2.388-2.033m5.182 6.157c.783.956 1.836 1.528 3.256 1.528 1.571 0 2.906-.989 2.923-2.651 0-2.904-4.124-2.336-4.124-4.028 0-.568.4-1.04 1.201-1.04.699 0 1.285.421 1.735 1.023l1.171-1.023c-.602-.803-1.689-1.41-2.923-1.41-1.689 0-2.856 1.107-2.856 2.5 0 2.988 4.124 2.366 4.124 4.079 0 .635-.451 1.14-1.268 1.14s-1.504-.454-2.056-1.157l-1.188 1.039zm13.707-9.145c.636 0 1.171-.539 1.171-1.174 0-.636-.535-1.174-1.171-1.174s-1.167.538-1.167 1.174.535 1.174 1.167 1.174m-.868 10.341h1.719v-8.46h-1.719zm4.537-.001h1.723v-5.706c.4-.72 1.037-1.461 2.107-1.461 1.069 0 1.769.741 1.769 1.982v5.185h1.735v-5.252c0-.168 0-.32-.017-.471.451-.804 1.1-1.444 2.107-1.444 1.086 0 1.769.741 1.769 1.982v5.185h1.735v-5.252c0-2.336-1.352-3.544-3.108-3.544-1.454 0-2.288.691-2.941 1.528-.535-1.006-1.504-1.528-2.658-1.528s-1.904.472-2.506 1.124v-.787h-1.723v8.459zm15.595 0h1.723v-5.706c.4-.72 1.036-1.461 2.106-1.461s1.769.741 1.769 1.982v5.185h1.74v-5.252c0-.168 0-.32-.017-.471.451-.804 1.1-1.444 2.106-1.444 1.087 0 1.77.741 1.77 1.982v5.185h1.739v-5.252c0-2.336-1.352-3.544-3.108-3.544-1.454 0-2.288.691-2.941 1.528-.535-1.006-1.504-1.528-2.658-1.528s-1.904.472-2.506 1.124v-.787h-1.723zm19.508-8.796c-2.721 0-4.579 2.067-4.579 4.567s1.854 4.566 4.579 4.566c2.726 0 4.575-2.062 4.575-4.566s-1.837-4.567-4.575-4.567m.013 7.5c-1.618 0-2.789-1.309-2.789-2.937 0-1.629 1.171-2.938 2.789-2.938 1.617 0 2.755 1.292 2.755 2.938 0 1.645-1.167 2.937-2.755 2.937m15.565-2.933c0-2.466-1.652-4.567-4.293-4.567-1.217 0-2.123.438-2.839 1.208v-5h-1.719v12.588h1.719v-.875c.716.774 1.622 1.208 2.839 1.208 2.641 0 4.293-2.096 4.293-4.566zm-4.508-2.938c1.622 0 2.705 1.275 2.705 2.938 0 1.662-1.087 2.937-2.705 2.937-1.086 0-2.005-.505-2.624-1.426v-3.022a3.05 3.05 0 0 1 2.624-1.427m7.537-3.173c.636 0 1.171-.539 1.171-1.174 0-.636-.535-1.174-1.171-1.174-.637 0-1.167.538-1.167 1.174s.535 1.174 1.167 1.174m-.868 10.341h1.718v-8.46h-1.718zm4.532-.001h1.719v-12.588h-1.719zm5.405-10.34c.636 0 1.167-.539 1.167-1.174 0-.636-.535-1.174-1.167-1.174a1.19 1.19 0 0 0-1.171 1.174c0 .635.535 1.174 1.171 1.174m-.868 10.341h1.723v-8.46h-1.723zm12.137-1.377-1.256-1.006c-.518.707-1.369 1.158-2.388 1.158-1.618 0-2.738-.956-2.856-2.803h6.213c.068-.253.118-.636.118-1.023 0-2.15-1.504-3.746-3.825-3.746-2.675 0-4.275 2.033-4.275 4.567 0 2.533 1.718 4.566 4.625 4.566 1.571 0 2.856-.652 3.644-1.713m-4.027-5.976c1.352 0 2.106.972 2.139 2.033h-4.528c.265-1.309 1.137-2.033 2.389-2.033m6.116 7.353h1.719v-5.64c.434-.72 1.137-1.292 2.207-1.292.35 0 .619.05.885.118v-1.696a2.5 2.5 0 0 0-.733-.118c-1.037 0-1.774.471-2.355 1.124v-.956h-1.719v8.46zm5.868-1.196c.783.956 1.836 1.528 3.256 1.528 1.571 0 2.906-.989 2.923-2.651 0-2.904-4.124-2.336-4.124-4.028 0-.568.401-1.04 1.201-1.04.703 0 1.289.421 1.74 1.023l1.166-1.023c-.602-.803-1.685-1.41-2.923-1.41-1.685 0-2.856 1.107-2.856 2.5 0 2.988 4.128 2.366 4.128 4.079 0 .635-.451 1.14-1.272 1.14s-1.504-.454-2.056-1.157zM48.7 221.642v-10.841h-1.92v10.942c0 1.46-.704 1.915-1.786 1.915-.236 0-.434-.017-.62-.068v1.713c.22.051.519.068.868.068 2.22 0 3.459-1.158 3.459-3.729m8.732-11.178c-3.673 0-6.163 2.853-6.163 6.212s2.49 6.212 6.163 6.212 6.163-2.854 6.163-6.212c0-3.359-2.507-6.212-6.163-6.212m0 10.61c-2.44 0-4.191-1.932-4.191-4.398s1.752-4.398 4.19-4.398c2.44 0 4.176 1.932 4.176 4.398s-1.736 4.398-4.175 4.398m8.771 1.477h6.516v-1.763h-4.608v-9.987h-1.904v11.75zm8.892 0H77v-11.75h-1.904zm8.762-9.991h3.758v9.987h1.92v-9.987h3.758v-1.764h-9.44v1.764zm16.399-2.096c-3.673 0-6.163 2.853-6.163 6.212s2.49 6.212 6.163 6.212 6.163-2.854 6.163-6.212c0-3.359-2.506-6.212-6.163-6.212m0 10.61c-2.439 0-4.191-1.932-4.191-4.398s1.752-4.398 4.191-4.398 4.175 1.932 4.175 4.398-1.736 4.398-4.175 4.398m8.771 1.477h1.904v-11.75h-1.904zm4.258-9.991h3.758v9.987h1.921v-9.987h3.757v-1.764h-9.44v1.764z"/><path fill="#feecc2" d="M174.33 206.306a5.163 5.163 0 0 1 5.164-5.16h237.479a5.163 5.163 0 0 1 5.165 5.16v15.479a5.163 5.163 0 0 1-5.165 5.16H179.498a5.163 5.163 0 0 1-5.164-5.16v-15.479z"/><mask id="e" width="16" height="16" x="180" y="206" maskUnits="userSpaceOnUse" style="mask-type:luminance"><path fill="#fff" d="M195.637 206.306h-15.494v15.479h15.494z"/></mask><g mask="url(#e)"><path fill="#716043" fill-rule="evenodd" d="M190.472 206.95c.358 0 .645.29.645.644v1.936h2.582c.358 0 .644.29.644.644v9.031c0 .358-.29.644-.644.644h-11.622a.644.644 0 0 1-.645-.644v-9.031c0-.358.291-.644.645-.644h2.582v-1.936c0-.358.291-.644.644-.644zm2.582 9.032h-10.329v2.579h10.329zm-4.52-2.58h-1.293v1.292h1.293zm1.294-5.16h-3.876v1.292h3.876z" clip-rule="evenodd"/></g><path fill="#716043" d="M408.068 220.817V209.98h6.323v1.827h-4.12v2.571h3.501v1.826h-3.501v2.787h4.12v1.826zm-4.895-11.763h-2.001l1.753-2.092h2.262zm-4.136 11.763V209.98h6.323v1.826h-4.12v2.572h3.5v1.826h-3.5v2.787h4.12v1.826zm-13.059 0V209.98h2.818l4.849 7.832v-7.832h2.199v10.837h-2.818l-4.849-7.832v7.832zm-12.924 0 4.107-10.837h2.881l4.107 10.837h-2.338l-1.036-2.815h-4.339l-1.036 2.815zm4.061-4.688h2.974l-1.487-4.07zm-12.634-4.15v-1.999h8.893v1.999h-3.349v8.838h-2.199v-8.838h-3.349zm-11.946 8.838V209.98h2.818l4.848 7.832v-7.832h2.199v10.837h-2.818l-4.848-7.832v7.832zm-8.013-11.144c3.408 0 5.751 2.63 5.751 5.728s-2.338 5.727-5.751 5.727c-3.412 0-5.762-2.63-5.762-5.727s2.338-5.728 5.762-5.728m0 9.397c2.031 0 3.488-1.595 3.488-3.669 0-2.075-1.457-3.67-3.488-3.67s-3.5 1.595-3.5 3.67c0 2.074 1.457 3.669 3.5 3.669m-14.457 1.747V209.98h3.581c2.384 0 3.842 1.225 3.842 3.236s-1.458 3.22-3.842 3.22h-1.377v4.381zm3.674-9.006h-1.47v2.803h1.47c.931 0 1.487-.543 1.487-1.423 0-.821-.556-1.376-1.487-1.376zm-13.758 7.508 1.596-1.469c.649.837 1.517 1.33 2.401 1.33.885 0 1.395-.463 1.395-1.237 0-2-4.929-1.457-4.929-5.127 0-1.717 1.424-3.143 3.501-3.143 1.626 0 2.864.728 3.795 1.826l-1.613 1.456c-.636-.82-1.348-1.363-2.17-1.363-.775 0-1.284.496-1.284 1.144 0 1.966 4.928 1.41 4.928 5.127-.029 2.045-1.613 3.265-3.61 3.265-1.828 0-3.054-.665-4.014-1.809zm-12.233 1.498V209.98h6.323v1.827h-4.12v2.571h3.5v1.826h-3.5v2.787h4.12v1.826zm-10.367 0V209.98h3.315c2.384 0 3.859 1.225 3.859 3.236 0 1.318-.636 2.29-1.753 2.803l3.396 4.798h-2.587l-2.898-4.381h-1.133v4.381zm3.441-9.006h-1.238v2.803h1.238c.931 0 1.471-.543 1.471-1.423 0-.821-.544-1.376-1.471-1.376zm-8.53 4.953v-6.78h2.199v6.595c0 2.849-1.672 4.55-4.402 4.55s-4.385-1.705-4.385-4.55v-6.595h2.199v6.78c0 1.456.821 2.307 2.198 2.307s2.187-.851 2.187-2.307zm-17.377-4.785v-1.999h8.893v1.999h-3.349v8.838h-2.199v-8.838h-3.349zm-10.72 8.838 4.107-10.837h2.881l4.108 10.837h-2.338l-1.037-2.815h-4.339l-1.036 2.815zm4.061-4.688h2.974l-1.487-4.07zm-14.757 4.688V209.98h4.263c3.442 0 5.763 2.491 5.763 5.416s-2.326 5.417-5.763 5.417h-4.263zm4.293-8.838h-2.094v6.843h2.094c2.013 0 3.471-1.502 3.471-3.421s-1.458-3.422-3.471-3.422m-9.681 8.838V209.98h2.199v10.837zm-12.3 0V209.98h4.263c3.442 0 5.763 2.491 5.763 5.416s-2.326 5.417-5.763 5.417h-4.263zm4.293-8.838h-2.094v6.843h2.094c2.013 0 3.471-1.502 3.471-3.421s-1.458-3.422-3.471-3.422m-17.352 8.838V209.98h2.819l4.848 7.832v-7.832h2.199v10.837H229.8l-4.849-7.832v7.832zm-12.928 0 4.107-10.837h2.882l4.107 10.837h-2.338l-1.036-2.815h-4.339l-1.036 2.815zm4.061-4.688h2.974l-1.487-4.07zm-9.255 2.941c1.238 0 2.216-.601 2.835-1.485l1.735 1.33c-.99 1.346-2.603 2.213-4.57 2.213-3.425 0-5.763-2.63-5.763-5.727s2.338-5.728 5.763-5.728c1.967 0 3.58.883 4.57 2.196l-1.735 1.347c-.619-.884-1.597-1.485-2.835-1.485-2.047 0-3.501 1.595-3.501 3.67 0 2.074 1.458 3.669 3.501 3.669"/><path fill="#6a6af4" d="M228.144 616.329H42.353v-93.124c0-32.33 26.23-58.537 58.591-58.537h127.2z"/><path fill="#ff8c7e" d="M290.889 541.929c-7.881-11.03-20.557-41.585-33.788-60.061-.257-15.42 3.227-52.86-76.259-44.876-46.295 7.681-53.338 25.98-45.196 42.793-14.52 7.807-38.439 24.532-59.333 57.246-32.663 51.138-1.12 79.391 17.453 79.391s230.153-1.557 230.153-1.557 24.639-52.145-33.026-72.936z"/><path fill="#fff" d="m172.742 460.699-4.613 3.346s30.705 31.939 44.471 96.958c6.555 30.95 5.076 30.802 5.076 30.802l9.537-.239s-10.822-56.265-3.13-78.642c7.692-22.373 7.895-35.319 2.68-51.669-2.006-6.288-54.017-.552-54.017-.552z"/><path fill="#fff" d="m181.449 438.882-.83 14.313-7.09 8.136s20.962 12.945 41.038 35.764c0 0 8.472-8.85 11.353-35.979l-30.519-3.704-3.017-15.008-10.935-3.526z"/><path fill="#2e186a" d="M214.567 498.358h-.025a1.27 1.27 0 0 1-.923-.429c-19.706-22.399-40.545-35.395-40.751-35.525a1.26 1.26 0 0 1-.586-.884 1.27 1.27 0 0 1 .295-1.019l6.803-7.811.805-13.884c.021-.391.223-.749.547-.968a1.25 1.25 0 0 1 1.104-.16l10.936 3.527c.434.139.762.505.851.951l2.835 14.112 29.613 3.589a1.264 1.264 0 0 1 1.104 1.385c-2.89 27.242-11.336 36.346-11.694 36.72-.24.248-.568.392-.914.392zm-39.125-37.297c4.734 3.119 22.187 15.181 39.07 34.065.822-1.154 2.145-3.262 3.585-6.553 2.128-4.861 4.937-13.337 6.433-26.354l-29.281-3.553a1.26 1.26 0 0 1-1.087-1.005l-2.869-14.284-8.673-2.799-.738 12.685a1.3 1.3 0 0 1-.307.757l-6.129 7.037zm26.29 89.85a1.69 1.69 0 0 1-1.677-1.52c-1.537-15.803-12.848-39.481-12.961-39.716a1.683 1.683 0 0 1 .787-2.248 1.687 1.687 0 0 1 2.25.787c.029.059 2.949 6.153 6.019 14.158 4.146 10.803 6.589 19.785 7.259 26.691a1.69 1.69 0 0 1-1.513 1.839q-.081.008-.164.009m27.128-1.907c-.851 0-1.579-.64-1.672-1.507-.737-6.889-.354-15.681 1.137-26.135 1.104-7.756 2.448-13.598 2.46-13.653a1.685 1.685 0 0 1 3.286.758c-.05.227-5.219 22.874-3.53 38.677a1.684 1.684 0 0 1-1.495 1.852c-.059.008-.123.008-.182.008z"/><path fill="#fff" d="M227.213 582.231s13.509-.854 18.017.77 24.824 11.397 26.361 13.316c1.542 1.919-.366 5.614-5.303 3.182-4.937-2.429-15.161-7.912-15.161-7.912"/><path fill="#2e186a" d="M269.245 601.569c-.948 0-2.11-.248-3.513-.938-4.903-2.412-15.098-7.874-15.203-7.929a1.262 1.262 0 1 1 1.192-2.226c.101.054 10.262 5.496 15.123 7.891 2.047 1.006 3.282.736 3.753.147a1.13 1.13 0 0 0 .005-1.41c-1.399-1.574-20.654-11.064-25.806-12.916-3.492-1.258-13.821-.93-17.507-.694a1.261 1.261 0 1 1-.16-2.517c.56-.034 13.825-.85 18.526.841 3.796 1.368 25.006 11.326 26.922 13.716a3.666 3.666 0 0 1-.008 4.567c-.354.442-1.395 1.477-3.328 1.477z"/><path fill="#fff" d="M236.699 581.532c5.683 1.183 10.212 2.332 11.463 3.19 4.073 2.791 20.986 17.811 21.605 20.261.62 2.449-4.338 3.808-8.433.038l-12.06-10.425s12.288 12.676 13.235 14.616c.948 1.94-3.846 5.37-10.948-2.794-7.098-8.165-8.227-8.228-8.227-8.228s8.118 10.256 9.196 12.579-5.763 4.512-12.039-6.249l-37.525-1.494 2.199-27.007s18.699 2.841 31.534 5.513"/><path fill="#2e186a" d="M250.378 613.939c-2.785 0-6.846-2.016-10.616-8.186l-36.842-1.469a1.257 1.257 0 0 1-1.209-1.364l2.199-27.006c.029-.349.202-.669.476-.888s.627-.312.973-.257c.185.029 18.88 2.875 31.602 5.526 8.989 1.873 11.108 2.828 11.921 3.384 3.509 2.403 21.336 17.907 22.116 20.992.324 1.284-.236 2.538-1.47 3.266-1.546.918-4.028.993-6.513-.236.308.404.527.728.636.947.594 1.208.114 2.643-1.167 3.489-1.773 1.174-4.958 1.162-8.808-1.919 0 0 0 .009.004.013.573 1.229.063 2.563-1.234 3.24-.556.291-1.26.463-2.068.463zm-46.043-12.125 36.211 1.443a1.26 1.26 0 0 1 1.04.627c3.947 6.763 7.595 7.47 8.619 7.525.632.034.99-.109 1.133-.206-.901-1.772-5.83-8.236-8.994-12.234a1.27 1.27 0 0 1-.13-1.364 1.25 1.25 0 0 1 1.192-.678c.455.026 1.664.093 9.111 8.662 3.627 4.175 6.593 5.134 8.156 4.642.505-.16.682-.425.691-.505-.531-1.061-7.031-8.093-13-14.251a1.257 1.257 0 0 1-.008-1.746 1.26 1.26 0 0 1 1.744-.089l12.06 10.425c2.426 2.235 5.004 2.34 6.07 1.705.375-.223.333-.392.312-.48-.843-2.222-16.85-16.62-21.096-19.528-.443-.303-2.406-1.204-11.008-2.997-10.678-2.222-25.616-4.591-30.123-5.294l-1.984 24.343z"/><path fill="#ff8c7e" d="M161.722 616.018c14.933.126 32.335-2.664 35.835-3.123 6.904-.909 5.013-6.103 10.089-7.382s6.808-2.588 6.808-2.588c-5.077-10.783 3.222-26.628 3.222-26.628s-1.592-.648-6.555-2.311-2.683-6.7-9.499-8.126c-6.816-1.431-62.614-6.195-62.614-6.195"/><path fill="#2e186a" d="M208.383 606.308c5.489-1.342 7.36-2.723 7.36-2.723-5.523-11.434 3.412-28.189 3.412-28.189s-1.723-.69-7.098-2.466c-2.166-.716-3.059-2.003-3.838-3.392-12.827 11.422-8.775 34.696-6.748 43.197 2.927-1.999 2.75-5.412 6.912-6.427m-50.419-44.203a1.26 1.26 0 0 1-1.255-1.144c-1.319-13.927-11.45-16.073-11.551-16.094a1.261 1.261 0 1 1 .489-2.475c.122.026 12.081 2.555 13.581 18.333a1.26 1.26 0 0 1-1.138 1.376c-.042 0-.08.004-.122.004zm142.766 42.419c12.388 0 22.431-10.034 22.431-22.411s-10.043-22.411-22.431-22.411-22.432 10.034-22.432 22.411 10.043 22.411 22.432 22.411"/><path fill="#fff" d="M287.056 582.681s-2.089 9.55-5.118 13.177c-3.033 3.628 3.374 6.865 6.652 4.626s6.247-5.846 5.75-8.969"/><path fill="#2e186a" d="M286.02 602.474c-1.955 0-3.93-.816-5.059-2.058-1.441-1.582-1.437-3.636.004-5.366 2.797-3.345 4.836-12.545 4.857-12.638a1.263 1.263 0 1 1 2.468.539c-.088.404-2.19 9.894-5.383 13.715-.64.766-.666 1.398-.076 2.05 1.053 1.157 3.589 1.721 5.042.724 2.802-1.911 5.628-5.147 5.215-7.731a1.263 1.263 0 0 1 2.494-.396c.628 3.939-2.995 7.963-6.285 10.21-.964.661-2.119.947-3.281.947z"/><path fill="#fff" d="M296.155 586.069s.282 10.846.628 15.985c.345 5.138 5.282 5.525 6.259 2.828.974-2.698.08-18.813.08-18.813s.283 10.846.628 15.985 4.992 4.991 6.016 2.853c.724-1.511 0-18.842 0-18.842s.282 10.846.627 15.984c.346 5.139 4.992 4.992 6.016 2.854 1.023-2.138 3.913-27.032.316-30.315-1.42-4.36-28.064-13.716-28.666 4.55 0 0 1.803 17.773 2.152 22.911.346 5.139 5.527 4.087 6.551 1.949"/><path fill="#2e186a" d="M300.557 607.794q-.302.002-.611-.042c-1.061-.147-2.249-.728-3.13-1.873-1.112.897-2.729 1.351-4.204 1.069-1.015-.193-3.408-1.052-3.66-4.806-.342-5.059-2.128-22.693-2.149-22.869a1 1 0 0 1-.004-.169c.223-6.742 3.922-10.963 10.418-11.881 3.761-.53 8.484.084 12.957 1.692 1.534.551 6.454 2.487 7.625 4.958.83.863 2.51 3.598 1.769 16.384-.379 6.549-1.34 13.796-2.013 15.201-.733 1.537-2.608 2.391-4.457 2.037a4.38 4.38 0 0 1-2.54-1.464c-.881 1.17-2.507 1.772-4.108 1.464a4.37 4.37 0 0 1-2.552-1.485c-.691 1.115-1.947 1.793-3.337 1.793zm-4.402-22.987c.682 0 1.247.543 1.264 1.229 0 .109.282 10.879.623 15.933.148 2.21 1.26 3.144 2.254 3.283.556.08 1.297-.084 1.554-.799.32-.88.409-3.856.375-7.382-.215-5.105-.366-10.892-.37-10.972a1.26 1.26 0 0 1 1.213-1.292 1.253 1.253 0 0 1 1.314 1.191c.084 1.536.345 6.561.375 11.165.076 1.797.16 3.493.248 4.806.118 1.722.814 2.833 1.913 3.043.687.131 1.432-.143 1.685-.614.236-.842.261-5.084.152-10.189-.156-4.188-.253-8.043-.257-8.106a1.265 1.265 0 0 1 2.527-.088c.105 2.495.219 5.66.278 8.72.101 2.639.219 5.336.346 7.23.118 1.722.813 2.833 1.912 3.043.704.135 1.466-.156 1.702-.648.375-.829 1.356-7.062 1.773-14.33.544-9.423-.29-13.704-1.171-14.503a1.26 1.26 0 0 1-.349-.543c-.544-1.671-9.95-6.397-17.954-5.265-5.261.745-8.037 3.901-8.244 9.381.135 1.351 1.812 17.95 2.144 22.869.101 1.473.645 2.311 1.614 2.5 1.036.198 2.237-.387 2.531-1.01q.031-.064.068-.122-.12-.556-.164-1.195c-.346-5.105-.628-15.93-.632-16.039a1.263 1.263 0 0 1 1.23-1.296zm-32.323-6.057h-.029a1.26 1.26 0 0 1-1.234-1.287c.333-15.156 8.319-22.479 14.963-25.951 7.135-3.728 14.094-3.888 14.389-3.893h.021c.687 0 1.252.552 1.264 1.242a1.26 1.26 0 0 1-1.243 1.284c-.067 0-6.731.168-13.34 3.648-8.733 4.6-13.287 12.584-13.531 23.724a1.264 1.264 0 0 1-1.264 1.233zm-5.08-15.079h-.034a1.263 1.263 0 0 1-1.23-1.292c.009-.353.287-8.75 6.542-14.671 4.116-3.897 9.803-5.766 16.901-5.572a1.26 1.26 0 0 1 1.226 1.296c-.022.699-.603 1.263-1.298 1.225-8.442-.24-14.504 2.643-18.017 8.568-2.662 4.495-2.826 9.167-2.826 9.213a1.266 1.266 0 0 1-1.264 1.229zm-1.647-81.824q.011.615.03 1.179c-3.417 18.669-11.21 15.142-19.226 29.894a4 4 0 0 0-.169.345c10.982-4.297 21.012-11.81 25.958-21.388 0 0-3.088-5.943-6.593-10.034zm-121.627-2.42c-5.24 2.824-11.462 6.755-18.497 12.239 5.876 3.367 46.948 27.419 67.21 22.179-14.192-.008-40.237-16.413-48.713-34.418m37.453-49.156c-2.304 0-4.769-.412-6.782-1.725-2.376-1.553-3.728-4.062-4.023-7.458-.329-3.779.602-6.784 2.759-8.927 3.964-3.939 10.599-3.383 10.877-3.354.033 0 .067.009.101.013l4.158.724a1.26 1.26 0 0 1 1.044 1.237l.08 17.104c0 .543-.341 1.027-.859 1.199-.223.076-3.572 1.187-7.355 1.187m1.744-18.981c-1.719 0-5.624.282-8.016 2.668-1.597 1.591-2.275 3.919-2.014 6.915.227 2.618 1.171 4.436 2.881 5.556 3.421 2.239 8.964 1.081 11.083.517l-.067-15.096-3.054-.534a11 11 0 0 0-.813-.026"/><path fill="#2e186a" d="M223.936 446.958c-5.607 0-11.901-.652-17.238-1.389-10.43-1.443-20.321-3.653-21.711-4.305-2.784-1.3-5.704-4.777-5.826-4.928a1.25 1.25 0 0 1-.286-.686l-3.017-31.418c-.004-.058-.008-.113-.004-.172.017-.396.451-9.76 5.78-19.116 4.949-8.695 15.186-18.93 35.89-18.303 4.933.148 29.555 1.949 30.023 22.866.463 20.82-5.047 42.675-8.379 52.304-.522 1.515-1.795 2.706-3.774 3.544-2.768 1.17-6.884 1.603-11.454 1.603zm-42.584-11.948c.716.808 2.843 3.098 4.705 3.969 2.039.926 37.609 8.653 48.389 4.036 1.268-.543 2.051-1.225 2.329-2.025 3.273-9.469 8.695-30.958 8.24-51.42-.417-18.636-23.038-20.261-27.571-20.395-15.565-.467-26.863 5.231-33.569 16.948-4.802 8.392-5.438 17.053-5.489 17.971l2.97 30.924z"/><path fill="#9388b1" d="M183.98 404.611c2.022 2.454 4.339 15.576 5.165 21.662 0 0 15.632-3.295 37.267-1.191 0 0 11.753 1.544 16.294 3.434 0 0-3.361 20.854-14.12 30.647-10.759 9.794-30.612 4.503-39.349-3.081-8.741-7.583-9.958-10.87-11.369-18.101s-4.293-33.913-4.293-33.913l10.409.539z"/><path fill="#2e186a" d="M173.71 407.814s-4.25-10.753-4.642-21.123c-.37-9.747 5.915-18.636 15.367-21.077 7.912-2.045 12.714 1.759 12.714 1.759s-5.047-14.553 8.745-23.757a21.35 21.35 0 0 1 16.597-3.047c13.943 3.215 15.906 15.929 15.906 15.929s20.541-24.557 48.057-2.091c2.776 2.268 5.354 7.554 6.411 10.976 6.42 20.752-31.535 36.223-49.333 34.489-19.541-1.902-30.119-7.318-35.351-13.232 4.036 3.67-6.862 31.279-34.471 21.174m52.964 29.304c-.202 0-.405-.037-.594-.109l-6.26-2.365a1.684 1.684 0 1 1 1.192-3.152l3.973 1.502-.051-16.056c0-.93.75-1.688 1.681-1.688h.004c.927 0 1.681.75 1.685 1.68l.059 18.501a1.69 1.69 0 0 1-.724 1.389 1.7 1.7 0 0 1-.961.298zm8.916-19.494c.179-1.598-.516-2.988-1.552-3.103s-2.02 1.087-2.199 2.685.517 2.988 1.553 3.104c1.035.115 2.02-1.087 2.198-2.686m-17.929-2.246c.179-1.598-.516-2.988-1.552-3.103s-2.02 1.087-2.199 2.685.517 2.988 1.552 3.104c1.036.115 2.021-1.087 2.199-2.686"/><path fill="#2e186a" d="M207.836 406.269a1.68 1.68 0 0 1-1.264-2.79c.16-.181 3.989-4.448 10.186-2.807a1.683 1.683 0 1 1-.864 3.253c-4.195-1.115-6.761 1.742-6.786 1.772a1.7 1.7 0 0 1-1.268.572zm30.346 2.505a1.685 1.685 0 0 1-1.655-1.372c-.215-1.141-.851-1.789-2.073-2.113-1.108-.295-2.203-.152-2.211-.152a1.683 1.683 0 0 1-.472-3.333 9.7 9.7 0 0 1 3.42.198c2.536.627 4.183 2.323 4.647 4.777a1.683 1.683 0 0 1-1.656 1.995m-21.909 36.206a6 6 0 0 1-2.873-.715c-2.603-1.41-3.509-4.339-3.606-4.672a1.686 1.686 0 0 1 3.236-.938c.16.53.825 2.032 1.988 2.655.682.366 1.483.4 2.439.11a1.685 1.685 0 1 1 .986 3.224 7.4 7.4 0 0 1-2.174.34z"/><path fill="#6a6af4" d="M200.632 616.329h130.575v-8.585a4.63 4.63 0 0 0-4.634-4.63H205.401a4.76 4.76 0 0 0-4.764 4.76v8.455z"/><path fill="#2e186a" d="M501.619 617.777H26.876a1.262 1.262 0 1 1 0-2.525h474.747a1.262 1.262 0 1 1 0 2.525z"/><path fill="#6a6af4" d="M505.313 434.707c-.016-3.275-2.578-5.918-5.716-5.909l-187.131.576c-.118 0-.232.013-.346.022l-14.887.046c-3.138.008-5.67 2.672-5.653 5.942l.708 137.104c.017 3.274 2.578 5.917 5.716 5.909l13.59-.316a5.4 5.4 0 0 0 1.647.249l187.11-4.47c3.138-.008 5.67-2.672 5.653-5.942l-.686-133.215z"/><path fill="#2e186a" d="M308.367 578.439q-.094.002-.19-.008c-2.792-.312-7.485-2.029-7.527-10.008l-.674-130.745c-.034-6.431 5.307-8.291 8.134-8.375.918-.038 1.706.703 1.736 1.633.029.926-.7 1.7-1.626 1.734-.818.033-4.9.433-4.874 4.991l.674 130.745c.012 2.651.497 6.228 4.532 6.679a1.682 1.682 0 0 1-.185 3.354m34.955 24.675H452.35v12.407H338.558v-7.643a4.765 4.765 0 0 1 4.764-4.76z"/><path fill="#6a6af4" d="M455.037 615.521h-47.925c-2.414 0-4.419-1.885-4.588-4.314l-7.068-102.201c-.186-2.681 1.921-4.958 4.587-4.958h33.22a4.605 4.605 0 0 1 4.494 3.661l21.775 102.202c.615 2.887-1.567 5.61-4.495 5.61"/><path fill="#2e186a" d="M414.437 618c-.847 0-1.58-.64-1.672-1.498l-12.166-110.615a1.68 1.68 0 0 1 1.491-1.856 1.68 1.68 0 0 1 1.858 1.49l12.166 110.615a1.68 1.68 0 0 1-1.492 1.856c-.063.008-.126.008-.185.008"/><path fill="#2e186a" d="M400.018 576.267a1.69 1.69 0 0 1-1.681-1.557c-.185-2.495-4.57-61.214-4.57-65.751 0-6.599 5.779-6.599 8.884-6.599h30.165c.257 0 .502.059.721.16 2.157.118 5.059 1.237 5.868 4.996.922 4.28 14.171 66.012 14.171 66.012l-3.295.707-14.17-66.012c-.573-2.66-3.105-2.361-3.392-2.319a1.7 1.7 0 0 1-1.04-.177h-29.028c-4.752 0-5.514.766-5.514 3.232 0 4.415 4.515 64.893 4.562 65.503a1.69 1.69 0 0 1-1.555 1.805c-.042 0-.084.005-.126.005z"/><path fill="#2e186a" d="M428.09 560.919h-.093c-6.655-.051-12.317-5.164-12.62-11.406-.144-2.933.905-5.719 2.948-7.849 2.178-2.268 5.333-3.564 8.661-3.564h.093c6.656.046 12.317 5.164 12.621 11.405.143 2.933-.906 5.719-2.949 7.849-2.178 2.268-5.333 3.565-8.661 3.565m-1.104-19.453c-2.413 0-4.68.922-6.226 2.53a7.18 7.18 0 0 0-2.018 5.353c.22 4.487 4.381 8.165 9.281 8.199h.067c2.414 0 4.68-.922 6.23-2.53a7.15 7.15 0 0 0 2.018-5.353c-.219-4.486-4.381-8.165-9.28-8.199z"/><path fill="#ff8c7e" d="M362.99 302.515c-14.15 11.418-23.198 28.883-23.198 48.47 0 34.393 27.908 62.275 62.332 62.275s62.332-27.882 62.332-62.275h-62.332z"/><path fill="#fbb78e" d="M404.361 282.372c-14.824 0-28.434 5.172-39.134 13.804l39.134 48.471h62.332c0-34.393-27.907-62.275-62.332-62.275"/><path fill="#2e186a" d="M352.109 339.942h-45.162a1.26 1.26 0 0 1-1.263-1.263 1.26 1.26 0 0 1 1.263-1.262h45.162a1.261 1.261 0 1 1 0 2.525m-25.38 7.087h-19.782a1.26 1.26 0 0 1-1.263-1.263 1.26 1.26 0 0 1 1.263-1.262h19.782a1.262 1.262 0 1 1 0 2.525m162.733-39.527H444.3a1.262 1.262 0 1 1 0-2.525h45.162a1.262 1.262 0 1 1 0 2.525m-.371 7.083h-19.782a1.262 1.262 0 1 1 0-2.525h19.782a1.262 1.262 0 1 1 0 2.525"/></g><defs><filter id="b" width="430.617" height="164.486" x="15.283" y="25.668" color-interpolation-filters="sRGB" filterUnits="userSpaceOnUse"><feFlood flood-opacity="0" result="BackgroundImageFix"/><feColorMatrix in="SourceAlpha" result="hardAlpha" values="0 0 0 0 0 0 0 0 0 0 0 0 0 0 0 0 0 0 127 0"/><feOffset dy="10"/><feGaussianBlur stdDeviation="5"/><feColorMatrix values="0 0 0 0 0 0 0 0 0 0 0 0 0 0 0 0 0 0 0.16 0"/><feBlend in2="BackgroundImageFix" result="effect1_dropShadow_22286_46702"/><feBlend in="SourceGraphic" in2="effect1_dropShadow_22286_46702" result="shape"/></filter><filter id="d" width="430.617" height="165.778" x="15.283" y="184.345" color-interpolation-filters="sRGB" filterUnits="userSpaceOnUse"><feFlood flood-opacity="0" result="BackgroundImageFix"/><feColorMatrix in="SourceAlpha" result="hardAlpha" values="0 0 0 0 0 0 0 0 0 0 0 0 0 0 0 0 0 0 127 0"/><feOffset dy="10"/><feGaussianBlur stdDeviation="5"/><feColorMatrix values="0 0 0 0 0 0 0 0 0 0 0 0 0 0 0 0 0 0 0.16 0"/><feBlend in2="BackgroundImageFix" result="effect1_dropShadow_22286_46702"/><feBlend in="SourceGraphic" in2="effect1_dropShadow_22286_46702" result="shape"/></filter><clipPath id="a"><path fill="#fff" d="M0 0h506v618H0z"/></clipPath></defs></svg>