<svg width="196" height="256" viewBox="0 0 196 256" fill="none" xmlns="http://www.w3.org/2000/svg">
<g clip-path="url(#clip0_18_310)">
<rect width="196" height="256" fill="#F6F6F6"/>
<path fill-rule="evenodd" clip-rule="evenodd" d="M35.3705 255.13H82.2756V198.835C82.2756 196.029 80.2913 193.745 77.8535 193.745H27.0176C24.5797 193.745 22.5954 196.029 22.5954 198.835V240.404C22.5954 248.539 28.3027 255.13 35.3705 255.13Z" fill="#FFC29E"/>
<path fill-rule="evenodd" clip-rule="evenodd" d="M52.6251 186.916C52.6251 186.916 51.0377 172.059 51.5668 165.294C52.096 158.529 54.8362 134.471 60.7513 122.116C66.6664 109.761 76.5123 116.961 76.5123 116.961C76.5123 116.961 84.9787 121.986 81.3502 133.579C77.7218 145.152 67.4979 169.775 64.6632 174.256C61.8474 178.737 55.4032 187.633 52.6251 186.916Z" fill="#E0840B" fill-opacity="0.29"/>
<path fill-rule="evenodd" clip-rule="evenodd" d="M48.5614 164.51C48.5614 164.51 49.6386 141.236 44.9708 130.033C40.3029 118.831 32.5925 109.934 25.9782 115.59C19.3638 121.246 26.5262 138.234 30.3436 144.716C34.1799 151.198 48.5614 164.51 48.5614 164.51Z" fill="#E0840B" fill-opacity="0.29"/>
<path fill-rule="evenodd" clip-rule="evenodd" d="M51.6612 191.983C48.543 191.962 32.9331 189.982 29.5504 177.714C26.2621 165.772 36.2214 159.051 42.4956 164.989C48.7508 170.906 51.6612 191.983 51.6612 191.983Z" fill="#E0840B" fill-opacity="0.29"/>
<path fill-rule="evenodd" clip-rule="evenodd" d="M56.4424 190.417C58.7479 186.48 66.6284 175.43 74.6223 176.409C82.6162 177.388 82.2761 185.24 76.4554 188.46C70.6537 191.701 56.4424 190.417 56.4424 190.417Z" fill="#E0840B" fill-opacity="0.29"/>
<path fill-rule="evenodd" clip-rule="evenodd" d="M27.5469 226.83C27.5658 223.393 27.2256 219.565 26.5453 216.128C31.3643 213.605 33.6321 208.167 31.3454 205.774C30.0793 204.447 27.1123 207.949 25.2602 211.343C24.4854 209.211 23.5405 207.514 22.3877 206.557C18.3624 203.229 18.079 211.016 18.6837 217.868C18.2112 217.433 17.6254 217.02 17.0018 216.846C15.3198 216.389 13.9781 218.869 14.4883 220.935C14.9041 222.654 17.3797 223.176 19.175 221.914C19.3451 223.089 19.5341 224.155 19.7042 224.959C19.742 225.177 19.7987 225.395 19.8554 225.59C19.0428 225.155 18.2679 224.894 17.7577 225.068C16.8317 225.351 14.8285 226.656 15.1498 228.396C15.471 230.158 16.4159 231.289 18.4569 230.767C19.364 230.528 20.2144 229.962 20.8759 229.375C22.2554 233.921 24.1453 237.989 25.487 236.858C26.6587 235.857 27.339 232.768 27.5091 228.875C27.8493 229.071 28.3406 229.353 29.0399 229.68C30.7596 230.506 31.3643 227.526 30.5706 226.526C29.8714 225.721 28.7186 225.873 27.5469 226.83Z" fill="white"/>
<path fill-rule="evenodd" clip-rule="evenodd" d="M28.0493 206.398C27.1739 207.298 26.2447 208.541 25.4201 209.889L25.3545 209.997L25.3516 209.99C24.593 208.197 23.7224 206.861 22.7192 206.028C20.4872 204.183 18.8838 205.197 18.248 208.243L18.2255 208.353C17.8353 210.315 17.7816 213.138 18.0014 216.419L18.0132 216.59L17.9306 216.543C17.6686 216.399 17.4029 216.286 17.1351 216.212C15.0193 215.637 13.3098 218.55 13.9427 221.114L13.9595 221.179C14.4649 223.071 16.7499 223.751 18.6918 222.908L18.7466 222.883L18.7508 222.909C18.8343 223.432 18.9214 223.932 19.0085 224.391L19.0348 224.528L19.0324 224.527C18.506 224.352 18.0482 224.309 17.6575 224.423L17.5964 224.443C16.9891 224.628 16.1981 225.106 15.6129 225.694C14.8112 226.5 14.3995 227.473 14.595 228.532C15.0162 230.842 16.3812 231.967 18.5797 231.404L18.6852 231.375C19.3182 231.192 19.9464 230.866 20.5426 230.437L20.5929 230.4L20.604 230.434C21.2796 232.534 22.0117 234.343 22.7196 235.6C23.1788 236.416 23.6291 237.007 24.0827 237.35C24.6677 237.793 25.2889 237.834 25.8218 237.384L25.8658 237.346C27.0339 236.299 27.7512 233.669 28.0107 230.034L28.0208 229.885L28.0945 229.924L28.2668 230.013C28.4408 230.101 28.6216 230.189 28.8266 230.284C29.9197 230.81 30.8586 230.223 31.2738 229.031C31.6239 228.025 31.538 226.778 30.9891 226.086L30.9713 226.064L30.9284 226.016C30.2227 225.246 29.2262 225.165 28.1836 225.67L28.107 225.708L28.1056 225.604C28.051 222.607 27.7419 219.451 27.2109 216.574L27.1957 216.493L27.2254 216.477C31.9569 213.739 34.3788 208.066 31.7266 205.291C30.8379 204.36 29.5771 204.866 28.15 206.296L28.0493 206.398ZM30.9639 206.256C32.9165 208.3 30.7095 213.231 26.3107 215.534C26.0658 215.662 25.9329 215.971 25.9927 216.273C26.6507 219.597 26.9991 223.37 26.9801 226.826C26.9772 227.357 27.4984 227.67 27.8752 227.362L27.9333 227.315C28.8789 226.565 29.6888 226.474 30.1425 226.957L30.1592 226.975L30.1521 226.965C30.3735 227.244 30.4232 227.966 30.2217 228.545C30.031 229.093 29.7394 229.288 29.3001 229.096L29.2585 229.077C28.7002 228.817 28.3365 228.621 27.7628 228.291C27.3969 228.08 26.9636 228.372 26.943 228.842L26.9305 229.108C26.7416 232.859 26.0683 235.549 25.1494 236.334C24.897 236.546 24.3857 236.159 23.6716 234.89C22.9279 233.569 22.1301 231.528 21.4113 229.16C21.2837 228.739 20.836 228.586 20.5297 228.858C19.8311 229.479 19.0653 229.937 18.3304 230.131C16.7774 230.528 16.0014 229.889 15.7048 228.262C15.5243 227.284 16.6891 226.096 17.8481 225.716L17.9032 225.699C18.2159 225.592 18.8264 225.759 19.6164 226.182C20.0674 226.423 20.5507 225.927 20.3934 225.384C20.3412 225.203 20.3015 225.046 20.2734 224.902L20.2552 224.805C20.0805 223.978 19.8956 222.919 19.7344 221.807C19.6684 221.351 19.2226 221.116 18.8798 221.357C17.3697 222.418 15.3325 221.991 15.0346 220.76C14.6127 219.051 15.7182 217.167 16.8717 217.481C17.3412 217.612 17.8431 217.93 18.3297 218.378C18.7221 218.739 19.2987 218.378 19.2479 217.802C18.9077 213.948 18.9167 210.627 19.3509 208.547L19.3823 208.402C19.8495 206.299 20.5928 205.876 22.0571 207.087C23.0566 207.917 23.9555 209.443 24.7374 211.594C24.9147 212.082 25.4961 212.137 25.7405 211.69L25.8591 211.475C27.8071 207.988 30.2792 205.539 30.9639 206.256Z" fill="#000091"/>
<path fill-rule="evenodd" clip-rule="evenodd" d="M46.1616 225.83C45.349 225.286 43.8561 225.155 42.4387 225.634C44.6687 220.783 46.2372 215.345 43.875 214.997C41.2859 214.78 39.2827 217.063 37.8087 219.804C37.0716 218.39 35.6921 217.107 34.6527 216.933C32.744 216.628 31.6101 217.803 32.1014 219.739C32.4794 221.175 34.4826 223.154 36.2023 223.415C35.5409 225.133 35.0684 226.721 34.7472 227.744C33.6889 231.115 33.4054 237.075 33.4054 237.075C33.4054 237.075 34.7661 236.814 37.4685 234.4C38.0732 233.878 39.4528 231.202 40.3221 229.745C40.8324 229.962 41.5694 230.158 42.6088 230.289C47.6924 230.963 47.5412 226.743 46.1616 225.83Z" fill="white"/>
<path fill-rule="evenodd" clip-rule="evenodd" d="M37.7906 218.642L37.7457 218.579C36.8927 217.389 35.7146 216.451 34.7342 216.287C32.4226 215.918 30.9459 217.514 31.5571 219.922L31.5746 219.986C32.0113 221.513 33.7374 223.249 35.3839 223.863L35.413 223.874L35.3296 224.105C35.185 224.509 35.0434 224.922 34.9015 225.352L34.8162 225.611C34.7488 225.818 34.6831 226.023 34.6136 226.243L34.2139 227.522C33.9048 228.507 33.6448 229.739 33.4268 231.168C33.2305 232.455 33.0785 233.829 32.9651 235.203L32.9367 235.557C32.9188 235.788 32.9027 236.01 32.8884 236.222L32.8632 236.613L32.8392 237.04C32.8194 237.457 33.1405 237.788 33.4985 237.719L33.551 237.708C33.6194 237.691 33.7132 237.662 33.8321 237.619C34.0683 237.532 34.3459 237.406 34.6648 237.234C35.5227 236.769 36.5342 236.049 37.699 235.019L37.816 234.915C38.1951 234.588 38.6783 233.828 39.548 232.295L40.3305 230.908L40.5531 230.518L40.5931 230.531C41.0931 230.693 41.698 230.824 42.412 230.92L42.5472 230.937C45.0438 231.269 46.709 230.496 47.3256 228.923C47.849 227.587 47.4303 225.917 46.4443 225.264L46.3841 225.225C45.6732 224.777 44.6382 224.603 43.5657 224.723L43.475 224.733L43.5353 224.592C44.4547 222.427 45.1291 220.39 45.4331 218.764L45.464 218.593C45.8821 216.184 45.4669 214.574 43.9468 214.35L43.9161 214.346C41.5889 214.151 39.5911 215.689 37.8702 218.51L37.7906 218.642ZM43.7609 215.643L43.8174 215.647L43.8027 215.645C44.4597 215.741 44.6712 216.634 44.3244 218.49C43.9836 220.313 43.1156 222.766 41.9373 225.329C41.7028 225.839 42.1168 226.423 42.598 226.26C43.8303 225.844 45.181 225.929 45.8764 226.394C46.3453 226.704 46.5816 227.647 46.2918 228.387C45.9133 229.352 44.7661 229.897 42.7677 229.653L42.6734 229.641C41.7387 229.523 41.0234 229.348 40.5187 229.133C40.2752 229.029 40.0014 229.129 39.8544 229.376L39.7503 229.552C39.6904 229.654 39.6268 229.764 39.5579 229.884L38.5507 231.666C37.8314 232.929 37.3727 233.652 37.1433 233.864L37.128 233.878C35.9702 234.912 34.9903 235.615 34.1819 236.053L34.0721 236.111L34.0318 236.132L34.041 236.005C34.0567 235.788 34.0743 235.562 34.0937 235.327C34.2045 233.985 34.3529 232.643 34.5434 231.394C34.7424 230.09 34.9763 228.966 35.2449 228.08L35.5503 227.099C35.6699 226.716 35.7719 226.395 35.8777 226.07C36.1548 225.219 36.4274 224.441 36.7204 223.68C36.8737 223.281 36.6514 222.825 36.2762 222.768C34.8513 222.552 32.9769 220.815 32.6437 219.55C32.2839 218.132 33.0245 217.332 34.5745 217.58C35.4084 217.719 36.6559 218.862 37.3222 220.14C37.5406 220.559 38.067 220.563 38.2904 220.148C39.9129 217.131 41.7324 215.514 43.7609 215.643Z" fill="#000091"/>
<path fill-rule="evenodd" clip-rule="evenodd" d="M23.9564 255.304H34.2936C41.5127 255.304 47.3711 248.56 47.3711 240.251V239.686C47.3711 236.532 45.16 233.987 42.4198 233.987H15.8302C13.0899 233.987 10.8789 236.532 10.8789 239.686V240.251C10.8789 248.56 16.7373 255.304 23.9564 255.304Z" fill="#000091"/>
<path fill-rule="evenodd" clip-rule="evenodd" d="M212.635 132.666C253.474 130.273 259.295 155.136 257.783 174.017C256.233 193.354 251.225 255.413 251.225 255.413C251.471 255.674 153.975 255.674 154.259 255.413C154.259 255.413 159.267 193.354 160.816 174.017C162.328 155.136 172.174 130.273 212.635 132.666Z" fill="#FF8D7E"/>
<path fill-rule="evenodd" clip-rule="evenodd" d="M228.699 228.766C223.124 220.652 217.964 217.651 213.089 217.368C211.275 208.101 209.139 198.791 206.815 191.548C191.224 142.845 127.027 168.6 119.619 172.167C109.489 177.039 98.9252 187.067 90.5723 205.317C87.8509 205.317 84.7894 205.665 81.5012 206.252C69.3686 208.384 60.9211 221.37 62.5086 233.334C64.7952 256.347 75.8884 255.586 86.6604 254.781C87.1706 255.151 87.7754 255.369 88.4368 255.369H215.413C215.545 255.369 215.697 255.347 215.829 255.347H224.824C232.648 247.668 234.481 236.575 228.699 228.766Z" fill="#6A6AF4"/>
<path fill-rule="evenodd" clip-rule="evenodd" d="M137.421 151.981L138.063 168.426C138.063 168.426 136.589 181.455 147.342 182.303C160.779 183.347 163.405 171.493 163.405 171.493L164.35 155.2L137.421 151.981Z" fill="white"/>
<path fill-rule="evenodd" clip-rule="evenodd" d="M136.854 152.01L137.494 168.4L137.485 168.502C137.478 168.582 137.471 168.682 137.463 168.799C137.331 170.889 137.508 173.299 138.241 175.61C139.588 179.858 142.503 182.576 147.303 182.954C153.569 183.441 158.095 181.277 161.122 177.365C162.082 176.125 162.816 174.797 163.355 173.468C163.544 173.001 163.696 172.566 163.814 172.173L163.863 172.005C163.908 171.849 163.938 171.73 163.955 171.654C163.963 171.615 163.969 171.576 163.971 171.536L164.916 155.244C164.936 154.894 164.712 154.588 164.409 154.551L137.479 151.332C137.134 151.291 136.838 151.612 136.854 152.01ZM138.016 152.708L163.748 155.784L162.844 171.383L162.832 171.429C162.809 171.519 162.779 171.625 162.743 171.746C162.637 172.097 162.5 172.491 162.328 172.916C161.833 174.136 161.158 175.357 160.276 176.496C157.48 180.11 153.294 182.112 147.38 181.652C143.045 181.31 140.505 178.942 139.306 175.162C138.637 173.052 138.473 170.815 138.595 168.894L138.608 168.708L138.625 168.51C138.63 168.472 138.631 168.434 138.63 168.396L138.016 152.708Z" fill="#000091"/>
<path fill-rule="evenodd" clip-rule="evenodd" d="M135.701 128.772C135.701 128.772 125.987 123.812 125.722 134.21C125.439 144.585 134.245 143.258 134.245 143.258" fill="white"/>
<path fill-rule="evenodd" clip-rule="evenodd" d="M130.69 126.943C131.884 126.896 133.148 127.133 134.402 127.554C134.801 127.688 135.171 127.832 135.502 127.977L135.598 128.019C135.75 128.086 135.862 128.14 135.931 128.175C136.217 128.321 136.346 128.707 136.219 129.036C136.096 129.354 135.781 129.503 135.502 129.383L135.38 129.324L135.278 129.276C135.223 129.251 135.164 129.225 135.101 129.197C134.796 129.064 134.454 128.931 134.084 128.807C132.936 128.421 131.786 128.206 130.728 128.247C128.001 128.354 126.394 130.088 126.289 134.23C126.171 138.547 127.634 140.973 130.178 142.058C131.404 142.581 132.707 142.723 133.837 142.644L133.949 142.635C133.999 142.631 134.041 142.627 134.076 142.623L134.172 142.611C134.482 142.565 134.767 142.816 134.808 143.174C134.848 143.531 134.63 143.859 134.319 143.906L134.22 143.918C134.169 143.924 134.106 143.931 134.032 143.937C132.729 144.046 131.228 143.898 129.784 143.282C126.789 142.004 125.022 139.074 125.156 134.191C125.279 129.341 127.38 127.072 130.69 126.943Z" fill="#000091"/>
<path fill-rule="evenodd" clip-rule="evenodd" d="M173.1 136.994C173.1 136.994 183.834 135.406 181.604 145.325C179.374 155.244 171.059 151.176 171.059 151.176" fill="white"/>
<path fill-rule="evenodd" clip-rule="evenodd" d="M173.49 136.296C174.8 136.184 176.248 136.242 177.628 136.596C179.277 137.02 180.6 137.823 181.458 139.101C182.498 140.652 182.763 142.778 182.153 145.488C181.259 149.468 179.343 151.686 176.736 152.404C175.199 152.827 173.576 152.694 172.016 152.22C171.742 152.137 171.49 152.048 171.262 151.959L171.166 151.921C171.012 151.858 170.901 151.808 170.837 151.777C170.549 151.636 170.415 151.253 170.537 150.921C170.656 150.601 170.969 150.446 171.25 150.562L171.342 150.604L171.416 150.636C171.442 150.647 171.469 150.659 171.499 150.671L171.544 150.69C171.768 150.781 172.024 150.873 172.305 150.958C173.7 151.382 175.144 151.5 176.472 151.134C178.666 150.53 180.265 148.679 181.055 145.161C182.02 140.869 180.555 138.685 177.381 137.87C176.127 137.548 174.782 137.495 173.573 137.598L173.443 137.61C173.401 137.614 173.362 137.618 173.325 137.622L173.194 137.638L173.172 137.641C172.862 137.687 172.578 137.434 172.538 137.077C172.498 136.72 172.717 136.393 173.028 136.347L173.107 136.336C173.189 136.325 173.3 136.313 173.437 136.301L173.49 136.296Z" fill="#000091"/>
<path fill-rule="evenodd" clip-rule="evenodd" d="M172.288 147.108C166.826 166.402 157.377 172.21 146.832 169.121C136.306 166.033 129.257 153.503 133.206 135.732C137.156 117.961 146.624 105.04 159.418 109.151C175.822 114.415 177.239 129.663 172.288 147.108Z" fill="white"/>
<path fill-rule="evenodd" clip-rule="evenodd" d="M142.603 113.765C138.161 118.682 134.706 126.35 132.657 135.57C130.734 144.222 131.302 152.046 134.087 158.233C136.715 164.07 141.206 168.144 146.692 169.754C158.345 173.167 167.595 165.794 172.827 147.311C175.508 137.865 176.132 129.808 174.403 123.369C172.48 116.208 167.682 111.195 159.81 108.6L159.571 108.523C153.247 106.491 147.433 108.417 142.603 113.765ZM159.266 109.78C166.924 112.237 171.496 116.965 173.319 123.754C174.968 129.893 174.364 137.693 171.749 146.906C166.688 164.785 157.991 171.717 146.972 168.489C141.798 166.971 137.572 163.137 135.094 157.633C132.443 151.743 131.899 144.248 133.756 135.894C135.756 126.892 139.116 119.437 143.389 114.706C147.94 109.667 153.344 107.877 159.266 109.78Z" fill="#000091"/>
<path fill-rule="evenodd" clip-rule="evenodd" d="M150.59 134.093C150.698 133.755 151.024 133.582 151.317 133.706C151.601 133.826 151.751 134.179 151.664 134.507L151.654 134.544L147.385 147.899L151.534 148.839C151.83 148.907 152.026 149.228 151.986 149.568L151.98 149.606C151.922 149.947 151.643 150.173 151.347 150.126L151.315 150.12L146.514 149.032C146.183 148.957 145.985 148.57 146.081 148.203L146.092 148.167L150.59 134.093Z" fill="#000091"/>
<path fill-rule="evenodd" clip-rule="evenodd" d="M159.166 128.494C161.236 127.521 163.074 128.314 164.577 130.17C164.933 130.61 165.244 131.08 165.508 131.55L165.574 131.669C165.699 131.898 165.788 132.08 165.839 132.197C165.98 132.519 165.868 132.912 165.588 133.074C165.319 133.23 164.993 133.116 164.843 132.82L164.789 132.704L164.763 132.651C164.706 132.534 164.637 132.402 164.556 132.259C164.326 131.85 164.055 131.44 163.747 131.06C162.533 129.561 161.158 128.967 159.594 129.702C159.304 129.838 158.974 129.678 158.855 129.345C158.737 129.011 158.876 128.63 159.166 128.494Z" fill="#000091"/>
<path fill-rule="evenodd" clip-rule="evenodd" d="M156.227 155.673C156.387 155.363 156.734 155.26 157.004 155.443C157.273 155.626 157.363 156.026 157.204 156.337C156.458 157.791 155.362 158.594 154.039 158.83C153.025 159.011 151.962 158.852 150.926 158.48L150.774 158.424C150.406 158.284 150.122 158.148 149.947 158.048C149.665 157.89 149.549 157.499 149.687 157.175C149.824 156.852 150.164 156.718 150.445 156.876L150.473 156.891C150.512 156.912 150.573 156.943 150.655 156.982C150.835 157.067 151.04 157.153 151.263 157.234C152.148 157.552 153.047 157.686 153.865 157.54C154.864 157.362 155.661 156.778 156.227 155.673Z" fill="#000091"/>
<path fill-rule="evenodd" clip-rule="evenodd" d="M142.543 125.127C143.971 124.611 145.458 125.017 146.888 125.983C147.23 126.213 147.542 126.46 147.819 126.708L147.937 126.815C148.046 126.915 148.128 126.997 148.18 127.052C148.41 127.296 148.425 127.709 148.212 127.974C148.008 128.229 147.669 128.254 147.438 128.038L147.344 127.943L147.264 127.867C147.221 127.826 147.175 127.784 147.125 127.739C146.884 127.524 146.611 127.309 146.314 127.108C145.133 126.311 143.948 125.987 142.882 126.372C142.427 126.536 141.996 126.829 141.587 127.269C141.359 127.515 141 127.501 140.786 127.238C140.572 126.975 140.584 126.562 140.813 126.315C141.344 125.743 141.924 125.35 142.543 125.127Z" fill="#000091"/>
<path fill-rule="evenodd" clip-rule="evenodd" d="M160.494 140.582C160.695 139.135 160.198 137.84 159.384 137.69C158.57 137.54 157.747 138.592 157.546 140.04C157.345 141.487 157.842 142.782 158.656 142.931C159.47 143.081 160.293 142.03 160.494 140.582Z" fill="#000091"/>
<path fill-rule="evenodd" clip-rule="evenodd" d="M144.442 137.952C144.643 136.505 144.146 135.21 143.332 135.06C142.518 134.911 141.695 135.962 141.494 137.41C141.292 138.857 141.79 140.152 142.604 140.302C143.418 140.451 144.241 139.4 144.442 137.952Z" fill="#000091"/>
<path fill-rule="evenodd" clip-rule="evenodd" d="M191.715 176.648C189.976 152.916 189.39 127.249 185.762 119.462C178.6 104.083 167.582 105.062 167.582 105.062V105.062C161.969 94.9471 135.209 91.532 124.815 121.05C124.192 122.833 125.042 124.747 126.535 125.313C119.826 144.085 123.134 190.896 123.134 190.896L139.858 193.789L139.121 176.365C137.591 172.602 138.063 168.447 138.063 168.447L137.855 163.183C133.962 158.55 131.694 151.72 132.148 143.258C129.559 142.954 125.496 141.323 125.685 134.21C125.93 125.248 133.187 127.706 135.172 128.554C135.644 127.162 136.135 125.835 136.684 124.552C141.691 123.181 147.455 120.114 152.785 113.719L147.909 122.724C147.909 122.724 156.791 124.138 163.065 119.201C164.634 125.9 168.546 133.709 174.442 136.515C174.423 136.646 174.404 136.776 174.385 136.907C174.706 136.907 175.066 136.907 175.444 136.929C176.388 137.277 177.371 137.494 178.411 137.538V137.538C180.697 138.451 182.625 140.561 181.548 145.303C179.318 155.222 171.002 151.154 171.002 151.154L171.021 150.98C168.999 156.832 166.561 161.182 163.802 164.249L163.387 171.493C163.387 171.493 163.254 172.08 162.914 172.95C162.801 176.583 162.461 189.677 162.952 193.767C177.447 193.615 192.452 186.676 191.715 176.648Z" fill="#000091"/>
<path d="M172.68 223.867C171.504 224.06 170.536 223.829 169.776 223.175C169.024 222.508 168.561 221.477 168.388 220.083C168.294 219.33 168.326 218.602 168.485 217.899C168.642 217.184 168.95 216.574 169.408 216.07C169.867 215.566 170.496 215.248 171.296 215.117C172.039 214.995 172.69 215.092 173.25 215.406C173.81 215.71 174.258 216.156 174.597 216.744C174.946 217.33 175.166 217.994 175.258 218.736C175.284 218.946 175.244 219.133 175.136 219.298C175.039 219.46 174.889 219.559 174.686 219.592L169.784 220.396C169.953 221.124 170.274 221.682 170.745 222.067C171.214 222.442 171.84 222.565 172.62 222.437C173.054 222.366 173.415 222.262 173.703 222.124C173.989 221.976 174.258 221.802 174.508 221.603C174.58 221.546 174.664 221.509 174.76 221.494C174.915 221.468 175.057 221.507 175.188 221.61C175.319 221.713 175.396 221.858 175.419 222.046C175.436 222.179 175.413 222.307 175.349 222.43C175.294 222.541 175.218 222.638 175.12 222.722C174.828 222.984 174.503 223.218 174.145 223.424C173.795 223.617 173.307 223.765 172.68 223.867ZM169.631 219.167L173.897 218.468C173.796 217.897 173.608 217.453 173.333 217.137C173.067 216.82 172.765 216.604 172.426 216.49C172.087 216.376 171.764 216.344 171.455 216.395C171.147 216.446 170.844 216.58 170.546 216.798C170.249 217.016 170.011 217.321 169.834 217.711C169.656 218.102 169.589 218.587 169.631 219.167Z" fill="white"/>
<path d="M165.142 225.104C164.458 225.216 163.8 225.149 163.17 224.902C162.537 224.645 162.002 224.218 161.564 223.624C161.125 223.019 160.848 222.256 160.734 221.338C160.618 220.408 160.698 219.588 160.974 218.876C161.249 218.165 161.66 217.59 162.205 217.15C162.749 216.699 163.363 216.418 164.047 216.306C164.616 216.213 165.1 216.224 165.498 216.339C165.904 216.442 166.239 216.567 166.504 216.716C166.714 216.828 166.835 217.006 166.865 217.25C166.884 217.405 166.85 217.563 166.762 217.724C166.674 217.885 166.553 217.978 166.398 218.004C166.292 218.021 166.182 218.005 166.068 217.956C165.798 217.842 165.536 217.756 165.283 217.695C165.029 217.635 164.715 217.636 164.339 217.698C163.5 217.835 162.879 218.22 162.475 218.85C162.082 219.48 161.94 220.237 162.05 221.122C162.16 222.007 162.481 222.689 163.013 223.166C163.554 223.642 164.244 223.811 165.082 223.674C165.458 223.612 165.761 223.512 165.989 223.373C166.216 223.222 166.446 223.055 166.679 222.87C166.777 222.786 166.879 222.736 166.985 222.718C167.139 222.693 167.278 222.743 167.402 222.87C167.526 222.996 167.598 223.137 167.617 223.292C167.647 223.535 167.575 223.745 167.4 223.92C167.181 224.137 166.89 224.365 166.526 224.606C166.172 224.845 165.711 225.011 165.142 225.104Z" fill="white"/>
<path d="M153.559 226.919C153.376 226.949 153.213 226.902 153.069 226.779C152.926 226.655 152.841 226.489 152.815 226.278L151.929 219.157C151.902 218.936 151.941 218.743 152.049 218.578C152.156 218.414 152.302 218.317 152.485 218.287C152.668 218.257 152.831 218.303 152.974 218.427C153.127 218.548 153.217 218.72 153.245 218.941L153.33 219.622C153.59 219.184 153.908 218.776 154.284 218.398C154.668 218.008 155.183 217.759 155.829 217.653C156.379 217.563 156.865 217.636 157.288 217.872C157.709 218.096 158.052 218.441 158.316 218.906C158.579 219.359 158.748 219.885 158.822 220.483L159.409 225.197C159.435 225.407 159.39 225.595 159.273 225.761C159.165 225.926 159.02 226.023 158.837 226.053C158.654 226.083 158.49 226.036 158.347 225.913C158.204 225.79 158.119 225.623 158.093 225.413L157.527 220.864C157.449 220.234 157.262 219.762 156.967 219.449C156.681 219.123 156.253 219.007 155.685 219.1C155.164 219.185 154.731 219.42 154.385 219.804C154.04 220.188 153.748 220.615 153.511 221.082L154.131 226.062C154.157 226.273 154.112 226.461 153.995 226.627C153.887 226.791 153.742 226.889 153.559 226.919Z" fill="white"/>
<path d="M146.679 228.131C146.264 228.199 145.861 228.164 145.47 228.025C145.089 227.884 144.765 227.649 144.497 227.32C144.238 226.979 144.077 226.548 144.012 226.028C143.914 225.242 144.104 224.556 144.582 223.97C145.068 223.37 145.875 222.978 147.003 222.793L148.753 222.506L148.736 222.374C148.644 221.632 148.419 221.133 148.063 220.875C147.705 220.606 147.198 220.525 146.542 220.633C146.138 220.699 145.786 220.802 145.489 220.941C145.2 221.068 144.926 221.203 144.669 221.347C144.594 221.382 144.533 221.403 144.485 221.411C144.34 221.435 144.207 221.394 144.086 221.29C143.965 221.186 143.893 221.045 143.871 220.868C143.834 220.569 143.933 220.338 144.169 220.175C144.486 219.954 144.84 219.755 145.231 219.578C145.63 219.388 146.085 219.251 146.596 219.167C147.3 219.052 147.893 219.118 148.377 219.367C148.86 219.615 149.239 219.971 149.513 220.434C149.787 220.897 149.958 221.4 150.025 221.942L150.61 226.64C150.636 226.85 150.591 227.038 150.473 227.204C150.366 227.369 150.221 227.466 150.038 227.496C149.854 227.526 149.691 227.479 149.548 227.356C149.405 227.233 149.32 227.066 149.294 226.856L149.24 226.424C149.019 226.777 148.707 227.121 148.307 227.458C147.906 227.795 147.363 228.019 146.679 228.131ZM147.005 226.723C147.458 226.648 147.867 226.452 148.23 226.132C148.594 225.813 148.876 225.473 149.077 225.113L148.904 223.718L147.327 223.977C146.653 224.087 146.13 224.275 145.76 224.539C145.399 224.801 145.248 225.17 145.307 225.646C145.351 226 145.496 226.293 145.741 226.524C145.996 226.753 146.417 226.819 147.005 226.723Z" fill="white"/>
<path d="M136.627 229.696C136.444 229.726 136.281 229.679 136.138 229.556C135.995 229.432 135.91 229.266 135.884 229.055L134.998 221.934C134.97 221.713 135.01 221.52 135.117 221.355C135.225 221.191 135.37 221.094 135.553 221.064C135.736 221.034 135.9 221.08 136.043 221.204C136.196 221.325 136.286 221.497 136.314 221.718L136.398 222.399C136.658 221.961 136.977 221.553 137.353 221.175C137.737 220.785 138.252 220.536 138.898 220.431C139.447 220.34 139.933 220.413 140.356 220.649C140.778 220.873 141.12 221.218 141.385 221.683C141.648 222.136 141.817 222.662 141.891 223.26L142.478 227.974C142.504 228.184 142.458 228.372 142.341 228.538C142.234 228.703 142.089 228.8 141.905 228.83C141.722 228.86 141.559 228.814 141.416 228.69C141.273 228.567 141.188 228.4 141.162 228.19L140.596 223.641C140.517 223.011 140.331 222.539 140.036 222.226C139.75 221.9 139.322 221.784 138.753 221.877C138.233 221.962 137.799 222.197 137.454 222.581C137.108 222.966 136.817 223.392 136.58 223.86L137.2 228.84C137.226 229.05 137.18 229.238 137.063 229.404C136.956 229.568 136.811 229.666 136.627 229.696Z" fill="white"/>
<path d="M131.092 230.603C130.909 230.633 130.746 230.587 130.603 230.463C130.459 230.34 130.375 230.173 130.348 229.963L129.462 222.841C129.436 222.631 129.477 222.444 129.584 222.279C129.69 222.104 129.835 222.001 130.018 221.971C130.201 221.941 130.365 221.993 130.51 222.128C130.663 222.249 130.752 222.415 130.778 222.626L130.867 223.339C131.078 222.898 131.351 222.487 131.687 222.104C132.023 221.721 132.442 221.489 132.943 221.407L133.015 221.395C133.199 221.365 133.357 221.412 133.49 221.537C133.634 221.661 133.718 221.827 133.745 222.038C133.771 222.248 133.729 222.43 133.621 222.583C133.512 222.736 133.361 222.829 133.168 222.86L133.096 222.872C132.624 222.95 132.212 223.158 131.861 223.498C131.508 223.827 131.233 224.228 131.036 224.701L131.664 229.747C131.691 229.957 131.645 230.145 131.528 230.311C131.421 230.476 131.275 230.573 131.092 230.603Z" fill="white"/>
<path d="M125.558 231.595C124.382 231.788 123.414 231.557 122.654 230.903C121.902 230.236 121.439 229.205 121.266 227.81C121.172 227.058 121.204 226.33 121.363 225.626C121.52 224.912 121.827 224.302 122.286 223.798C122.745 223.294 123.374 222.976 124.174 222.845C124.916 222.723 125.568 222.819 126.128 223.134C126.687 223.437 127.136 223.883 127.475 224.471C127.824 225.058 128.044 225.722 128.136 226.463C128.162 226.674 128.122 226.861 128.014 227.025C127.916 227.188 127.766 227.286 127.564 227.32L122.662 228.123C122.831 228.852 123.152 229.41 123.623 229.795C124.092 230.17 124.717 230.293 125.498 230.165C125.932 230.094 126.293 229.99 126.581 229.852C126.867 229.704 127.136 229.53 127.386 229.33C127.458 229.274 127.542 229.237 127.638 229.221C127.793 229.196 127.935 229.235 128.066 229.338C128.197 229.44 128.274 229.586 128.297 229.774C128.314 229.907 128.29 230.035 128.227 230.158C128.172 230.269 128.096 230.366 127.998 230.45C127.706 230.712 127.381 230.946 127.023 231.152C126.673 231.345 126.185 231.492 125.558 231.595ZM122.509 226.895L126.775 226.195C126.674 225.625 126.486 225.181 126.211 224.865C125.945 224.547 125.643 224.332 125.304 224.218C124.965 224.104 124.642 224.072 124.333 224.123C124.025 224.173 123.722 224.308 123.424 224.526C123.127 224.744 122.889 225.048 122.712 225.439C122.534 225.829 122.466 226.315 122.509 226.895Z" fill="white"/>
<path d="M119.383 232.607C119.21 232.636 119 232.648 118.753 232.643C118.518 232.648 118.276 232.603 118.028 232.508C117.789 232.4 117.573 232.21 117.382 231.936C117.19 231.663 117.063 231.271 117 230.762L116.359 225.616L115.333 225.785C115.149 225.815 115.045 225.725 115.019 225.514C115.005 225.404 115.037 225.303 115.114 225.211L116.805 222.681C116.822 222.655 116.847 222.623 116.882 222.583C116.925 222.531 116.975 222.5 117.033 222.491C117.11 222.478 117.177 222.501 117.233 222.56C117.299 222.617 117.338 222.689 117.349 222.778L117.514 224.106L119.148 223.838C119.312 223.811 119.454 223.85 119.576 223.954C119.697 224.058 119.769 224.205 119.793 224.393C119.815 224.57 119.781 224.733 119.691 224.884C119.6 225.023 119.473 225.106 119.309 225.133L117.675 225.401L118.299 230.414C118.339 230.735 118.421 230.958 118.545 231.085C118.669 231.211 118.805 231.279 118.954 231.289C119.111 231.286 119.247 231.275 119.363 231.256C119.594 231.218 119.76 231.168 119.861 231.106C119.969 231.032 120.087 230.984 120.212 230.964C120.347 230.942 120.474 230.977 120.594 231.071C120.714 231.164 120.785 231.299 120.807 231.476C120.838 231.731 120.752 231.943 120.546 232.112C120.384 232.229 120.205 232.331 120.009 232.42C119.823 232.507 119.615 232.569 119.383 232.607Z" fill="white"/>
<path d="M113.878 233.426C113.695 233.456 113.532 233.409 113.388 233.286C113.245 233.163 113.161 232.996 113.134 232.786L111.794 222.012C111.766 221.791 111.806 221.598 111.914 221.434C112.021 221.269 112.166 221.172 112.349 221.142C112.542 221.11 112.71 221.156 112.853 221.279C112.997 221.403 113.082 221.575 113.11 221.796L114.45 232.57C114.476 232.78 114.436 232.967 114.328 233.132C114.221 233.296 114.071 233.394 113.878 233.426Z" fill="white"/>
<path d="M106.998 234.639C106.583 234.707 106.181 234.671 105.79 234.532C105.408 234.392 105.084 234.157 104.817 233.828C104.558 233.486 104.396 233.056 104.331 232.536C104.233 231.75 104.423 231.064 104.901 230.477C105.387 229.878 106.194 229.486 107.322 229.301L109.072 229.014L109.055 228.881C108.963 228.14 108.739 227.64 108.382 227.382C108.024 227.114 107.517 227.033 106.862 227.141C106.457 227.207 106.106 227.31 105.808 227.449C105.519 227.575 105.246 227.71 104.988 227.854C104.914 227.889 104.852 227.91 104.804 227.918C104.66 227.942 104.527 227.902 104.405 227.797C104.284 227.693 104.213 227.552 104.191 227.375C104.153 227.077 104.253 226.846 104.488 226.683C104.805 226.462 105.159 226.262 105.55 226.085C105.949 225.896 106.404 225.759 106.915 225.675C107.619 225.56 108.213 225.626 108.696 225.874C109.179 226.122 109.558 226.478 109.832 226.941C110.106 227.405 110.277 227.907 110.344 228.45L110.929 233.147C110.955 233.358 110.91 233.546 110.793 233.712C110.685 233.876 110.54 233.973 110.357 234.003C110.174 234.033 110.01 233.987 109.867 233.864C109.724 233.74 109.639 233.573 109.613 233.363L109.559 232.932C109.338 233.284 109.027 233.629 108.626 233.966C108.225 234.302 107.682 234.527 106.998 234.639ZM107.324 233.23C107.777 233.156 108.186 232.959 108.549 232.64C108.913 232.321 109.195 231.981 109.396 231.62L109.223 230.226L107.647 230.484C106.972 230.595 106.449 230.782 106.079 231.046C105.718 231.309 105.567 231.678 105.626 232.154C105.67 232.508 105.815 232.8 106.06 233.031C106.315 233.26 106.736 233.327 107.324 233.23Z" fill="white"/>
<path fill-rule="evenodd" clip-rule="evenodd" d="M181.227 219.761L181.132 207.493L178.411 209.646C178.411 209.646 178.241 209.864 178.506 213.91C178.865 219.239 173.875 218.782 173.498 217.455C173.12 216.128 174.008 208.363 175.236 205.992C175.992 204.491 179.828 201.228 182.588 198.988C184.364 197.552 186.707 197.334 188.654 198.466C192.755 200.815 200.786 208.602 201.882 212.409C202.355 214.018 204.661 223.35 204.661 223.35L207.325 230.202L193.284 236.945L189.334 226.787C183.457 228.07 181.302 220.065 181.302 220.065" fill="white"/>
<path fill-rule="evenodd" clip-rule="evenodd" d="M182.262 198.454C184.216 196.874 186.784 196.648 188.906 197.881C193.599 200.57 201.352 208.495 202.419 212.2L202.47 212.377C202.605 212.855 202.831 213.72 203.135 214.907L203.812 217.58L204.285 219.47L205.194 223.126L207.842 229.935C207.968 230.258 207.847 230.635 207.574 230.788L207.543 230.804L193.502 237.547C193.229 237.678 192.916 237.545 192.781 237.247L192.766 237.212L188.994 227.51L188.965 227.515C186.243 227.914 184.072 226.517 182.44 223.967L182.383 223.878C181.887 223.089 181.478 222.246 181.15 221.404L181.087 221.239C180.925 220.809 180.818 220.47 180.761 220.258C180.747 220.209 180.74 220.16 180.737 220.11L180.736 220.087L180.734 220.085C180.693 220.001 180.667 219.906 180.661 219.805L180.66 219.767L180.575 208.726L178.932 210.025L178.927 210.151C178.909 210.7 178.939 211.774 179.048 213.511L179.071 213.859C179.251 216.541 178.188 218.264 176.425 218.809C174.977 219.256 173.276 218.774 172.959 217.658C172.473 215.953 173.536 208.115 174.71 205.735L174.745 205.665C175.443 204.279 178.176 201.771 182.262 198.454ZM188.399 199.048C186.648 198.031 184.527 198.217 182.915 199.521L182.342 199.988C178.811 202.883 176.323 205.19 175.741 206.291L175.723 206.326C175.217 207.302 174.701 209.514 174.343 212.081L174.296 212.432C173.997 214.695 173.896 216.757 174.036 217.252L174.042 217.26C174.054 217.276 174.087 217.311 174.146 217.356C174.261 217.442 174.427 217.52 174.626 217.577C175.082 217.706 175.632 217.702 176.131 217.548C177.349 217.172 178.057 216.049 177.946 214.053L177.896 213.252C177.78 211.31 177.766 210.217 177.819 209.719L177.822 209.691C177.847 209.482 177.884 209.345 177.99 209.209C178.01 209.184 178.031 209.16 178.054 209.139L178.09 209.108L180.811 206.955C181.177 206.665 181.672 206.95 181.698 207.451L181.699 207.487L181.794 219.739L181.807 219.767C181.817 219.789 181.826 219.812 181.833 219.836L181.868 219.956C181.882 220.002 181.9 220.062 181.924 220.134C181.994 220.355 182.082 220.603 182.186 220.87C182.484 221.636 182.855 222.402 183.302 223.113C184.8 225.494 186.74 226.689 189.229 226.145C189.475 226.092 189.722 226.231 189.837 226.485L189.852 226.52L193.576 236.098L206.57 229.857L204.143 223.616C204.138 223.602 204.133 223.588 204.128 223.573L204.096 223.45L203.683 221.783L203.196 219.83L202.377 216.572C201.881 214.613 201.526 213.245 201.363 212.677L201.345 212.614C200.392 209.307 192.85 201.598 188.399 199.048Z" fill="#000091"/>
<path fill-rule="evenodd" clip-rule="evenodd" d="M183.816 202.881C183.816 202.881 177.485 207.188 177.409 212.147C177.334 217.107 178.468 221.87 180.981 222.001C183.495 222.131 182.72 219.717 182.72 219.717" fill="white"/>
<path fill-rule="evenodd" clip-rule="evenodd" d="M183.527 202.319C183.797 202.136 184.144 202.239 184.304 202.549C184.457 202.848 184.38 203.23 184.133 203.422L183.969 203.538C183.944 203.557 183.917 203.576 183.889 203.596L183.846 203.628C183.634 203.784 183.397 203.967 183.141 204.174C182.41 204.766 181.679 205.435 180.998 206.163C179.127 208.166 178.006 210.22 177.976 212.159C177.896 217.385 179.141 221.253 181.007 221.349C181.867 221.394 182.17 221.159 182.246 220.731C182.28 220.541 182.268 220.314 182.223 220.092L182.211 220.033C182.203 219.997 182.196 219.97 182.191 219.954L182.188 219.943C182.079 219.605 182.229 219.23 182.523 219.105C182.817 218.98 183.143 219.153 183.251 219.491L183.269 219.549C183.287 219.614 183.308 219.699 183.329 219.8C183.406 220.188 183.428 220.593 183.357 220.992C183.163 222.089 182.344 222.725 180.955 222.653C178.2 222.51 176.753 218.014 176.842 212.136C176.879 209.758 178.15 207.429 180.226 205.207C180.947 204.436 181.718 203.731 182.488 203.107L182.687 202.947C182.85 202.819 183.004 202.7 183.149 202.592L183.313 202.472C183.41 202.401 183.483 202.35 183.527 202.319Z" fill="#000091"/>
<path fill-rule="evenodd" clip-rule="evenodd" d="M185.422 206.383C185.422 206.383 179.961 210.581 180.811 213.474C181.643 216.368 183.533 222.654 184.648 223.437C186.632 224.851 187.615 221.914 187.615 221.914" fill="white"/>
<path fill-rule="evenodd" clip-rule="evenodd" d="M185.107 205.841C185.368 205.641 185.72 205.721 185.894 206.021C186.061 206.31 186.002 206.696 185.765 206.903L185.732 206.93L185.623 207.016L185.547 207.077C185.391 207.204 185.217 207.35 185.029 207.513C184.493 207.979 183.956 208.489 183.458 209.022C182.62 209.918 181.979 210.788 181.614 211.576C181.303 212.25 181.216 212.815 181.349 213.27L181.524 213.872C182.918 218.653 184.259 222.4 184.946 222.882C185.672 223.4 186.196 223.198 186.686 222.469C186.803 222.294 186.905 222.104 186.99 221.914L187.021 221.844C187.044 221.789 187.062 221.744 187.074 221.712L187.085 221.68C187.198 221.343 187.526 221.176 187.818 221.305C188.11 221.435 188.256 221.813 188.143 222.149L188.122 222.209C188.094 222.286 188.053 222.389 187.999 222.511C187.884 222.768 187.746 223.025 187.583 223.267C186.772 224.474 185.638 224.91 184.352 223.994C183.267 223.232 181.92 219.409 180.274 213.684C180.027 212.843 180.168 211.926 180.613 210.963C181.048 210.024 181.764 209.052 182.686 208.066C183.215 207.5 183.781 206.963 184.346 206.471L184.512 206.328C184.62 206.236 184.724 206.15 184.821 206.07L185.093 205.852C185.098 205.848 185.103 205.844 185.107 205.841Z" fill="#000091"/>
<path fill-rule="evenodd" clip-rule="evenodd" d="M188.465 209.646C188.465 209.646 182.682 210.69 184.931 217.564C186.405 222.066 187.746 223.698 189.372 224.35C190.997 225.003 192.433 222.175 191.035 220.283L189.428 217.498C189.428 217.498 191.432 220.196 192.169 217.129C192.169 217.129 191.205 222.937 193.548 225.003" fill="white"/>
<path fill-rule="evenodd" clip-rule="evenodd" d="M188.377 209.001C188.686 208.946 188.976 209.189 189.025 209.545C189.071 209.888 188.876 210.211 188.585 210.284L188.512 210.299C188.493 210.303 188.47 210.309 188.442 210.316L188.413 210.323C188.289 210.355 188.15 210.397 187.999 210.451C187.566 210.605 187.134 210.819 186.735 211.102C185.065 212.283 184.442 214.218 185.461 217.334L185.547 217.593C186.833 221.441 188.004 223.11 189.558 223.734C190.656 224.175 191.605 222.062 190.603 220.706L190.582 220.675L190.562 220.644L188.956 217.86C188.568 217.188 189.372 216.474 189.838 217.047L189.892 217.117C189.912 217.142 189.938 217.173 189.97 217.21C190.066 217.321 190.172 217.432 190.285 217.535C190.548 217.774 190.798 217.921 190.984 217.94C191.225 217.965 191.431 217.751 191.622 216.955C191.812 216.163 192.827 216.422 192.731 217.211L192.708 217.366C192.705 217.388 192.701 217.412 192.698 217.439L192.676 217.606C192.661 217.722 192.647 217.848 192.633 217.982C192.52 219.096 192.498 220.262 192.622 221.34C192.789 222.791 193.206 223.879 193.893 224.485C194.141 224.704 194.189 225.114 193.998 225.4C193.808 225.686 193.452 225.74 193.203 225.521C192.634 225.019 192.216 224.332 191.926 223.494L191.902 223.424L191.87 223.503L191.841 223.571C191.306 224.761 190.244 225.392 189.185 224.967C187.217 224.177 185.827 222.152 184.4 217.794C183.185 214.079 184.018 211.492 186.141 209.99C186.628 209.645 187.146 209.388 187.664 209.204L187.785 209.162C188.041 209.076 188.245 209.025 188.377 209.001ZM191.415 219.189L191.388 219.197C191.323 219.216 191.256 219.23 191.188 219.238L191.117 219.245L191.404 219.744L191.405 219.675C191.405 219.538 191.408 219.4 191.412 219.263L191.415 219.189Z" fill="#000091"/>
<path fill-rule="evenodd" clip-rule="evenodd" d="M209.253 208.558C209.101 209.863 211.898 217.672 190.166 235.117L193 238.815L212.654 233.334L209.253 208.558Z" fill="#6A6AF4"/>
<path fill-rule="evenodd" clip-rule="evenodd" d="M104.103 247.56C104.103 247.56 111.908 247.038 104.614 249.778C94.1441 251.845 84.9219 244.275 81.4257 238.946C79.0823 235.379 78.7989 230.571 80.6887 226.656C84.4305 217.629 90.2322 220.674 90.2322 220.674C90.2322 220.674 100.116 226.156 104.954 226.33" fill="white"/>
<path fill-rule="evenodd" clip-rule="evenodd" d="M83.5702 221.255C85.6052 219.478 87.7759 219.201 89.7351 219.796C90.0728 219.899 90.322 220.004 90.4784 220.086L90.7998 220.262L90.9197 220.326C91.2417 220.499 91.6034 220.69 91.9993 220.894L92.1325 220.963C93.4133 221.622 94.768 222.281 96.1346 222.896C97.1516 223.354 98.1368 223.769 99.0764 224.133L99.3621 224.242C101.679 225.12 103.599 225.628 104.972 225.678C105.285 225.689 105.53 225.99 105.521 226.35C105.511 226.71 105.249 226.993 104.936 226.982C103.371 226.926 101.258 226.352 98.7154 225.37C97.7573 224.999 96.755 224.577 95.7218 224.112C94.3369 223.489 92.966 222.822 91.6696 222.154L91.4023 222.016C91.0965 221.858 90.8118 221.707 90.5508 221.568L90.1544 221.354L89.9971 221.268L89.961 221.25C89.9441 221.243 89.9225 221.233 89.8962 221.222L89.8684 221.21C89.7475 221.159 89.6059 221.107 89.4456 221.058C87.7966 220.557 85.98 220.789 84.2556 222.295C83.1365 223.272 82.1273 224.746 81.262 226.79L81.2005 226.937L81.1844 226.973C79.4018 230.666 79.6721 235.194 81.8782 238.553C83.7769 241.447 87.0055 244.478 90.6556 246.55C95.0325 249.036 99.7205 250.038 104.358 249.166L104.478 249.143L104.755 249.037C105.474 248.76 106.04 248.513 106.46 248.298L106.599 248.225L106.571 248.222C106.427 248.207 106.268 248.196 106.097 248.188L105.901 248.18C105.455 248.166 104.975 248.173 104.51 248.192L104.235 248.205L104.136 248.211C103.824 248.232 103.556 247.958 103.538 247.598C103.52 247.251 103.741 246.951 104.037 246.912L104.085 246.907L104.346 246.893C104.385 246.891 104.426 246.89 104.468 246.888C104.956 246.867 105.459 246.861 105.932 246.875L106.135 246.883C106.566 246.903 106.935 246.943 107.233 247.007C107.826 247.135 108.191 247.336 108.282 247.87C108.441 248.801 107.438 249.404 104.79 250.399C104.764 250.409 104.737 250.416 104.71 250.422C99.7684 251.397 94.7846 250.35 90.1539 247.721C86.3476 245.56 82.9803 242.398 80.9736 239.34C78.5213 235.606 78.1993 230.585 80.1339 226.464L80.1846 226.357L80.2409 226.223C81.1601 224.05 82.2511 222.437 83.484 221.331L83.5702 221.255Z" fill="#000091"/>
<path fill-rule="evenodd" clip-rule="evenodd" d="M90.5155 244.014C90.5155 244.014 97.1298 250.17 107.58 246.538C112.494 244.819 108.941 242.992 108.941 242.992" fill="white"/>
<path fill-rule="evenodd" clip-rule="evenodd" d="M108.424 242.726C108.552 242.397 108.887 242.249 109.173 242.396C109.364 242.494 109.631 242.663 109.904 242.9C110.488 243.407 110.836 244.008 110.734 244.74C110.615 245.593 109.887 246.273 108.53 246.858C108.29 246.962 108.029 247.063 107.745 247.162C102.177 249.098 97.2299 248.546 93.0854 246.447C92.266 246.032 91.5467 245.587 90.9323 245.14L90.8119 245.051C90.5022 244.821 90.2836 244.638 90.1593 244.522C89.9158 244.295 89.878 243.884 90.0749 243.604C90.2642 243.335 90.6015 243.284 90.8436 243.482L90.9289 243.557C90.9487 243.575 90.9726 243.595 91.0006 243.619L91.03 243.643C91.1716 243.761 91.3412 243.893 91.5381 244.036C92.1062 244.45 92.7759 244.864 93.542 245.252C97.4509 247.232 102.123 247.753 107.416 245.913C107.677 245.822 107.915 245.73 108.132 245.636C108.7 245.392 109.104 245.146 109.356 244.911C109.53 244.748 109.602 244.622 109.614 244.533C109.632 244.408 109.504 244.188 109.221 243.942C109.109 243.845 108.986 243.755 108.863 243.678L108.789 243.632C108.76 243.615 108.737 243.602 108.721 243.594L108.71 243.588C108.424 243.441 108.296 243.055 108.424 242.726Z" fill="#000091"/>
<path fill-rule="evenodd" clip-rule="evenodd" d="M91.9896 239.011C94.2952 240.36 96.2417 242.992 100.399 243.036C106.522 243.101 109.64 243.275 111.171 241.926C112.702 240.578 112.872 239.033 107.883 237.728" fill="white"/>
<path fill-rule="evenodd" clip-rule="evenodd" d="M107.33 237.583C107.399 237.232 107.703 237.012 108.009 237.092L108.239 237.153C110.589 237.791 111.943 238.527 112.453 239.465C113.013 240.497 112.575 241.511 111.516 242.444C110.738 243.13 109.655 243.475 108 243.626L107.651 243.655C106.708 243.727 105.815 243.744 103.733 243.726L100.394 243.688C97.9561 243.662 96.2808 242.924 94.0657 241.269L93.7667 241.044L93.08 240.52C92.9141 240.394 92.776 240.292 92.6402 240.194C92.3059 239.952 92.0142 239.758 91.7328 239.593C91.4536 239.43 91.3423 239.037 91.4842 238.716C91.626 238.394 91.9673 238.266 92.2465 238.43C92.5619 238.614 92.8822 238.827 93.2436 239.089L93.4614 239.248C93.5365 239.304 93.6152 239.363 93.7007 239.427L94.5684 240.089C96.6394 241.652 98.1236 242.335 100.284 242.381L103.741 242.421C105.958 242.44 106.805 242.42 107.805 242.334L108.008 242.316C109.406 242.179 110.273 241.896 110.827 241.408C111.48 240.832 111.648 240.444 111.491 240.157C111.179 239.582 109.968 238.943 107.757 238.364C107.452 238.284 107.261 237.935 107.33 237.583Z" fill="#000091"/>
<path fill-rule="evenodd" clip-rule="evenodd" d="M95.0133 228.679C95.0133 228.679 100.059 232.573 105.596 232.551C111.133 232.53 114.724 235.249 112.437 236.554C110.151 237.837 102.138 238.62 98.5284 237.272C94.9188 235.923 93.0668 234.096 93.0668 234.096" fill="white"/>
<path fill-rule="evenodd" clip-rule="evenodd" d="M94.5423 228.316C94.7102 228.028 95.043 227.943 95.2997 228.116L95.4525 228.229L95.5389 228.291C95.7175 228.419 95.9262 228.562 96.1629 228.716C96.8419 229.159 97.6059 229.603 98.437 230.016C100.818 231.202 103.254 231.908 105.594 231.899C108.261 231.888 110.705 232.504 112.228 233.485C113.922 234.577 114.302 236.217 112.686 237.14C110.027 238.632 101.835 239.193 98.3532 237.892C97.625 237.62 96.9344 237.317 96.2816 236.988C95.2554 236.472 94.3692 235.917 93.6243 235.36L93.4987 235.265C93.1134 234.971 92.8461 234.737 92.6977 234.591C92.46 234.356 92.4325 233.944 92.6363 233.671C92.84 233.397 93.1979 233.366 93.4357 233.6L93.4751 233.638C93.5093 233.669 93.5594 233.714 93.6253 233.772L93.7441 233.873C93.8888 233.994 94.0548 234.125 94.2419 234.265C94.9361 234.784 95.768 235.305 96.736 235.793C97.3551 236.104 98.0109 236.392 98.7033 236.651C101.91 237.849 109.798 237.309 112.185 235.969C112.521 235.777 112.59 235.653 112.564 235.543C112.511 235.313 112.206 234.967 111.674 234.624C110.36 233.778 108.162 233.214 105.731 233.204L105.598 233.204C103.082 233.214 100.499 232.465 97.9869 231.214C97.1167 230.781 96.3167 230.317 95.604 229.852L95.4216 229.732C95.2741 229.633 95.1379 229.54 95.0135 229.452L94.8057 229.302C94.7584 229.268 94.7222 229.24 94.6975 229.221C94.4374 229.021 94.3679 228.615 94.5423 228.316Z" fill="#000091"/>
</g>
<defs>
<clipPath id="clip0_18_310">
<rect width="196" height="256" fill="white"/>
</clipPath>
</defs>
</svg>
