<svg preserveAspectRatio="none" width="100%" height="100%" overflow="visible" style="display: block;" viewBox="0 0 54.0006 28" fill="none" xmlns="http://www.w3.org/2000/svg">
<g id="&#240;&#159;&#142;&#168; Mineure (indice -main)">
<path fill-rule="evenodd" clip-rule="evenodd" d="M47 8C47 7.44772 47.4477 7 48 7H52C52.5523 7 53 7.44772 53 8C53 8.55228 52.5523 9 52 9H48C47.4477 9 47 8.55228 47 8Z" fill="#6A6AF4"/>
<path fill-rule="evenodd" clip-rule="evenodd" d="M37 8C37 7.44772 37.4477 7 38 7H42C42.5523 7 43 7.44772 43 8C43 8.55228 42.5523 9 42 9H38C37.4477 9 37 8.55228 37 8Z" fill="#6A6AF4"/>
<path fill-rule="evenodd" clip-rule="evenodd" d="M47 13C47 12.4477 47.4477 12 48 12H52C52.5523 12 53 12.4477 53 13C53 13.5523 52.5523 14 52 14H48C47.4477 14 47 13.5523 47 13Z" fill="#6A6AF4"/>
<path fill-rule="evenodd" clip-rule="evenodd" d="M37 13C37 12.4477 37.4477 12 38 12H42C42.5523 12 43 12.4477 43 13C43 13.5523 42.5523 14 42 14H38C37.4477 14 37 13.5523 37 13Z" fill="#6A6AF4"/>
<path fill-rule="evenodd" clip-rule="evenodd" d="M11 1C11 0.447715 11.4477 0 12 0H16C16.5523 0 17 0.447715 17 1C17 1.55228 16.5523 2 16 2H12C11.4477 2 11 1.55228 11 1Z" fill="#6A6AF4"/>
<path fill-rule="evenodd" clip-rule="evenodd" d="M0 1C0 0.447715 0.447715 0 1 0H5C5.55228 0 6 0.447715 6 1C6 1.55228 5.55228 2 5 2H1C0.447715 2 0 1.55228 0 1Z" fill="#6A6AF4"/>
<path fill-rule="evenodd" clip-rule="evenodd" d="M11 6C11 5.44772 11.4477 5 12 5H16C16.5523 5 17 5.44772 17 6C17 6.55228 16.5523 7 16 7H12C11.4477 7 11 6.55228 11 6Z" fill="#6A6AF4"/>
<path fill-rule="evenodd" clip-rule="evenodd" d="M0 6C0 5.44772 0.447715 5 1 5H5C5.55228 5 6 5.44772 6 6C6 6.55228 5.55228 7 5 7H1C0.447715 7 0 6.55228 0 6Z" fill="#6A6AF4"/>
<path fill-rule="evenodd" clip-rule="evenodd" d="M22 1C22 0.447715 22.4477 0 23 0H27C27.5523 0 28 0.447715 28 1C28 1.55228 27.5523 2 27 2H23C22.4477 2 22 1.55228 22 1Z" fill="#6A6AF4"/>
<path fill-rule="evenodd" clip-rule="evenodd" d="M22 6C22 5.44772 22.4477 5 23 5H27C27.5523 5 28 5.44772 28 6C28 6.55228 27.5523 7 27 7H23C22.4477 7 22 6.55228 22 6Z" fill="#6A6AF4"/>
<path fill-rule="evenodd" clip-rule="evenodd" d="M38 20.0149V25.9808C38 25.9808 38 25.9807 38 25.9808C38.0017 25.985 38.0048 25.9899 38.0082 25.9935C38.0111 25.9965 38.0128 25.9973 38.0131 25.9974C38.0134 25.9975 38.0146 25.998 38.0171 25.9986C38.0196 25.9991 38.0252 26 38.0345 26H41.9365C41.9402 25.998 41.9447 25.9952 41.9499 25.9916C41.9588 25.9854 41.9682 25.9778 41.9772 25.9689C41.9862 25.9601 41.9936 25.9514 41.9992 25.9436C41.9995 25.9433 41.9997 25.9429 42 25.9425V20.0192C42 20.0192 42 20.0193 42 20.0192C41.9983 20.015 41.9952 20.0101 41.9918 20.0065C41.9889 20.0035 41.9872 20.0027 41.9869 20.0026C41.9866 20.0025 41.9854 20.002 41.9829 20.0014C41.9804 20.0009 41.9748 20 41.9655 20H38.0345C38.0345 20 38.0346 20 38.0345 20C38.0338 20 38.0281 20.0005 38.0192 20.0039C38.011 20.0072 38.0044 20.0113 38 20.0149ZM42.0007 20.0213C42.0008 20.0215 42.0007 20.0213 42.0007 20.0213ZM41.9266 26.0047C41.9262 26.0049 41.9266 26.0047 41.9266 26.0047ZM36 20.0127C36 18.7697 37.0519 18 38.0345 18H41.9655C43.1829 18 44 18.9995 44 20.0127V25.9873C44 26.5733 43.7113 27.0702 43.3763 27.3981C43.0399 27.7274 42.5419 28 41.9655 28H38.0345C36.8171 28 36 27.0005 36 25.9873V20.0127Z" fill="#6A6AF4"/>
<path fill-rule="evenodd" clip-rule="evenodd" d="M48 20.0142V25.9812C48.0001 25.9813 47.9999 25.981 48 25.9812C48.0018 25.9855 48.005 25.9907 48.0084 25.9943C48.0098 25.9958 48.011 25.9967 48.0116 25.9972L48.0126 25.9977C48.0126 25.9978 48.0135 25.9982 48.0158 25.9986C48.018 25.9991 48.0232 26 48.0322 26H51.9546C51.9653 26 51.9762 25.9987 51.9868 25.9962C51.9868 25.9932 51.9868 25.9903 51.9868 25.9873V20.0188C51.9867 20.0187 51.9868 20.019 51.9868 20.0188C51.985 20.0145 51.9818 20.0093 51.9784 20.0057C51.977 20.0042 51.9758 20.0033 51.9752 20.0028L51.9742 20.0023C51.9742 20.0022 51.9733 20.0018 51.971 20.0014C51.9688 20.0009 51.9636 20 51.9546 20H48.0322C48.0323 20 48.0322 20 48.0322 20C48.0322 20 48.0271 20.0003 48.0185 20.0037C48.0106 20.0068 48.0042 20.0108 48 20.0142ZM51.9875 20.0208C51.9875 20.021 51.9874 20.0208 51.9875 20.0208ZM46 20.0127C46 18.7717 47.0486 18 48.0322 18H51.9546C53.1726 18 53.9868 19.0016 53.9868 20.0127V25.9084C54.0663 26.5206 53.7924 27.0536 53.442 27.3974C53.0659 27.7663 52.5324 28 51.9546 28H48.0322C46.8142 28 46 26.9984 46 25.9873V20.0127Z" fill="#6A6AF4"/>
</g>
</svg>
