<svg preserveAspectRatio="none" width="100%" height="100%" overflow="visible" style="display: block;" viewBox="0 0 56 48" fill="none" xmlns="http://www.w3.org/2000/svg">
<g id="&#240;&#159;&#142;&#168; Mineure (indice -main)">
<path fill-rule="evenodd" clip-rule="evenodd" d="M7.3966 0.00625008C7.59563 0.00208418 7.79685 0 8 0L8.30325 0.00156283C8.40382 0.00260461 8.50389 0.00416713 8.6034 0.00625008L9.1937 0.0249904L9.76945 0.0562063C10.0534 0.0749307 10.3314 0.0983278 10.6026 0.126389L11.1355 0.188729C14.014 0.565779 16 1.50656 16 3V9C16 9.55229 15.5523 10 15 10C14.4872 10 14.0645 9.61396 14.0067 9.11662L14 9V5.1261C13.2189 5.43756 12.2433 5.66616 11.1355 5.81127L10.6026 5.87361C10.3314 5.90167 10.0534 5.92507 9.76945 5.94379L9.1937 5.97501L8.6034 5.99375C8.40437 5.99792 8.20315 6 8 6C7.79685 6 7.59563 5.99792 7.3966 5.99375L6.8063 5.97501L6.23055 5.94379C5.94656 5.92507 5.66858 5.90167 5.39743 5.87361L4.86447 5.81127C1.98596 5.43422 0 4.49344 0 3C0 1.50656 1.98596 0.565779 4.86447 0.188729L5.39743 0.126389C5.66858 0.0983278 5.94656 0.0749307 6.23055 0.0562063L6.8063 0.0249904L7.3966 0.00625008ZM14 3L13.9782 2.98601C13.7511 2.85733 13.4307 2.72702 13.0337 2.60663L12.8288 2.54731C11.5811 2.20214 9.85359 2 8.00052 2C6.14744 2 4.41991 2.20214 3.17219 2.54731C2.7501 2.66408 2.4018 2.79269 2.1441 2.92159L2 3L2.17017 3.0913C2.38114 3.1944 2.64975 3.29706 2.96737 3.39337L3.17219 3.45269C4.41991 3.79786 6.14744 4 8.00052 4C9.85359 4 11.5811 3.79786 12.8288 3.45269C13.2509 3.33592 13.5992 3.20731 13.8569 3.07841L14 3Z" fill="var(--fill-0, #6A6AF4)"/>
<path d="M47.7317 37.8039C46.6723 36.6592 45.2227 36 43.6751 36C41.2002 36 39.1014 37.6722 38.3231 40H37L36.8834 40.0067C36.386 40.0645 36 40.4872 36 41C36 41.5523 36.4477 42 37 42H38C38 42.3406 38.0269 42.6747 38.0785 43H37L36.8834 43.0067C36.386 43.0645 36 43.4872 36 44C36 44.5523 36.4477 45 37 45H38.7594C39.7396 46.7919 41.5715 48 43.6751 48C45.087 48 46.4199 47.4516 47.4512 46.4792C47.846 46.1069 47.874 45.4744 47.5138 45.0665C47.1535 44.6585 46.5414 44.6295 46.1466 45.0018C45.4673 45.6423 44.5979 46 43.6751 46C42.7284 46 41.8618 45.6228 41.2017 45H43L43.1166 44.9933C43.614 44.9355 44 44.5128 44 44C44 43.4477 43.5523 43 43 43H40.0532C39.9764 42.6806 39.9355 42.3455 39.9355 42H43L43.1166 41.9933C43.614 41.9355 44 41.5128 44 41C44 40.4477 43.5523 40 43 40H40.4356C41.0832 38.8029 42.2939 38 43.6751 38C44.6867 38 45.6335 38.4306 46.3329 39.1862C46.7023 39.5854 47.3148 39.5995 47.7011 39.2178C48.0874 38.8361 48.1011 38.2031 47.7317 37.8039Z" fill="var(--fill-0, #6A6AF4)"/>
<path d="M1 8C1.51284 8 1.93551 8.35095 1.99327 8.80307L2 8.90909V27.0909C2 27.593 1.55228 28 1 28C0.487164 28 0.0644928 27.6491 0.00672773 27.1969L0 27.0909V8.90909C0 8.40701 0.447715 8 1 8Z" fill="var(--fill-0, #6A6AF4)"/>
<path d="M1 32C1.55228 32 2 31.5523 2 31C2 30.4477 1.55228 30 1 30C0.447715 30 0 30.4477 0 31C0 31.5523 0.447715 32 1 32Z" fill="var(--fill-0, #6A6AF4)"/>
<path fill-rule="evenodd" clip-rule="evenodd" d="M48 16C47.7968 16 47.5956 16.0021 47.3966 16.0063L46.8063 16.025L46.2306 16.0562C45.9466 16.0749 45.6686 16.0983 45.3974 16.1264L44.8645 16.1887C41.986 16.5658 40 17.5066 40 19C40 20.4934 41.986 21.4342 44.8645 21.8113L45.3974 21.8736C45.6686 21.9017 45.9466 21.9251 46.2306 21.9438L46.8063 21.975L47.3966 21.9937C47.5956 21.9979 47.7968 22 48 22C48.2032 22 48.4044 21.9979 48.6034 21.9937L49.1937 21.975L49.7694 21.9438C50.0534 21.9251 50.3314 21.9017 50.6026 21.8736L51.1355 21.8113C52.2433 21.6662 53.2189 21.4376 54 21.1261V25L54.0067 25.1166C54.0645 25.614 54.4872 26 55 26C55.5523 26 56 25.5523 56 25V19C56 17.5066 54.014 16.5658 51.1355 16.1887L50.6026 16.1264C50.3314 16.0983 50.0534 16.0749 49.7694 16.0562L49.1937 16.025L48.6034 16.0063C48.5039 16.0042 48.4038 16.0026 48.3032 16.0016L48 16ZM53.8569 19.0784L54 19L53.9782 18.986C53.7511 18.8573 53.4307 18.727 53.0337 18.6066L52.8288 18.5473C51.5811 18.2021 49.8536 18 48.0005 18C46.1474 18 44.4199 18.2021 43.1722 18.5473C42.7501 18.6641 42.4018 18.7927 42.1441 18.9216L42 19L42.1702 19.0913C42.3811 19.1944 42.6497 19.2971 42.9674 19.3934L43.1722 19.4527C44.4199 19.7979 46.1474 20 48.0005 20C49.8536 20 51.5811 19.7979 52.8288 19.4527C53.2509 19.3359 53.5992 19.2073 53.8569 19.0784Z" fill="var(--fill-0, #6A6AF4)"/>
<path d="M41.9933 22.8834C41.9355 22.386 41.5128 22 41 22C40.4477 22 40 22.4477 40 23V27L40.0067 27.1166C40.0645 27.614 40.4872 28 41 28C41.5523 28 42 27.5523 42 27V23L41.9933 22.8834Z" fill="var(--fill-0, #6A6AF4)"/>
</g>
</svg>
