<svg preserveAspectRatio="none" width="100%" height="100%" overflow="visible" style="display: block;" viewBox="0 0 58 58" fill="none" xmlns="http://www.w3.org/2000/svg">
<g id="&#240;&#159;&#145;&#129;&#239;&#184;&#143; Masquer si besoin - D&#195;&#169;corative">
<path id="Path" fill-rule="evenodd" clip-rule="evenodd" d="M57 58C56.4486 58 56 57.5514 56 57C56 56.4486 56.4486 56 57 56C57.5514 56 58 56.4486 58 57C58 57.5514 57.5514 58 57 58Z" fill="var(--fill-0, #ECECFE)"/>
<path id="Path_2" fill-rule="evenodd" clip-rule="evenodd" d="M55 2C54.4486 2 54 1.5514 54 1C54 0.448553 54.4486 0 55 0C55.5514 0 56 0.448553 56 1C56 1.5514 55.5514 2 55 2Z" fill="var(--fill-0, #ECECFE)"/>
<path id="Path_3" fill-rule="evenodd" clip-rule="evenodd" d="M1 58C0.4486 58 0 57.5514 0 57C0 56.4486 0.4486 56 1 56C1.5514 56 2 56.4486 2 57C2 57.5514 1.5514 58 1 58Z" fill="var(--fill-0, #ECECFE)"/>
</g>
</svg>
