<svg xmlns="http://www.w3.org/2000/svg" width="60" height="60" fill="none"><path fill="#ECECFE" fill-rule="evenodd" d="M4.5 25.5c.412 0 .75-.337.75-.75A.752.752 0 0 0 4.5 24a.752.752 0 0 0-.75.75c0 .413.338.75.75.75ZM34.5 4.5c.413 0 .75-.338.75-.75A.752.752 0 0 0 34.5 3a.752.752 0 0 0-.75.75c0 .412.337.75.75.75ZM49.5 46.5c.413 0 .75-.337.75-.75a.752.752 0 0 0-.75-.75.752.752 0 0 0-.75.75c0 .413.337.75.75.75ZM55.5 22.5c.413 0 .75-.337.75-.75a.752.752 0 0 0-.75-.75.752.752 0 0 0-.75.75c0 .413.337.75.75.75ZM27 54.75c.413 0 .75-.337.75-.75a.752.752 0 0 0-.75-.75.752.752 0 0 0-.75.75c0 .413.337.75.75.75Z" clip-rule="evenodd"/><path fill="#6A6AF4" fill-rule="evenodd" d="M30 19.718a7.991 7.991 0 0 0-7.94 8.906 7.995 7.995 0 0 0 7.94 7.08 7.991 7.991 0 0 0 7.993-7.994A7.991 7.991 0 0 0 30 19.718Zm-9.438 9.008.003.037c.523 4.743 4.546 8.44 9.435 8.44a9.491 9.491 0 0 0 9.493-9.493A9.491 9.491 0 0 0 30 18.218a9.491 9.491 0 0 0-9.438 10.508Z" clip-rule="evenodd"/><path fill="#6A6AF4" fill-rule="evenodd" d="M30 37.203c-6.824 0-12.36 5.531-12.36 12.361a.75.75 0 0 1-1.5 0c0-7.659 6.208-13.86 13.86-13.86 7.652 0 13.86 6.208 13.86 13.86a.75.75 0 1 1-1.5 0c0-6.823-5.536-12.36-12.36-12.36Z" clip-rule="evenodd"/><path fill="#6A6AF4" d="M43.046 16.262a1.5 1.5 0 1 0 0-3 1.5 1.5 0 0 0 0 3Z"/><path fill="#000091" fill-rule="evenodd" d="M48.033 25.716a.75.75 0 0 1 .744.756l-.053 6.596a.75.75 0 0 1-1.5-.012l.053-6.596a.75.75 0 0 1 .756-.744ZM10.933 9.22A.75.75 0 0 1 11.47 9l36.683.214a.75.75 0 0 1 .746.756l-.1 13.197a.75.75 0 1 1-1.5-.01l.094-12.447-35.17-.206.206 22.55a.75.75 0 0 1-1.5.015l-.214-23.312a.75.75 0 0 1 .22-.536Z" clip-rule="evenodd"/><path fill="#000091" fill-rule="evenodd" d="M11.14 32.539a.75.75 0 0 1 .538-.227h6.596a.75.75 0 1 1 0 1.5h-6.28l-4.967 5.102h7.3a.75.75 0 0 1 0 1.5H5.25a.75.75 0 0 1-.537-1.273l6.428-6.602Z" clip-rule="evenodd"/><path fill="#000091" d="M14.996 39.664a.669.669 0 1 1-1.338 0 .669.669 0 0 1 1.338 0Z"/><path fill="#000091" d="M14.996 39.664a.669.669 0 1 1-1.338 0 .669.669 0 0 1 1.338 0Z"/><path fill="#000091" d="M14.996 39.664a.669.669 0 1 1-1.338 0 .669.669 0 0 1 1.338 0Z"/><path fill="#000091" d="M14.996 39.664a.669.669 0 1 1-1.338 0 .669.669 0 0 1 1.338 0Z"/><path fill="#000091" d="M14.996 39.664a.669.669 0 1 1-1.338 0 .669.669 0 0 1 1.338 0Z"/><path fill="#000091" fill-rule="evenodd" d="M16.875 39.664a.75.75 0 0 1 .75-.75h.823a.75.75 0 1 1 0 1.5h-.823a.75.75 0 0 1-.75-.75ZM40.628 33.062a.75.75 0 0 1 .75-.75h6.596a.75.75 0 0 1 .523.213l6.776 6.602a.75.75 0 0 1-.523 1.287H41.552a.75.75 0 0 1 0-1.5h11.354l-5.237-5.102h-6.29a.75.75 0 0 1-.75-.75ZM14.4 13.262a.75.75 0 0 1 .75-.75h19.8a.75.75 0 0 1 0 1.5h-19.8a.75.75 0 0 1-.75-.75ZM14.4 16.566a.75.75 0 0 1 .75-.75h6.602a.75.75 0 1 1 0 1.5H15.15a.75.75 0 0 1-.75-.75ZM14.4 19.864a.75.75 0 0 1 .75-.75h3.298a.75.75 0 0 1 0 1.5H15.15a.75.75 0 0 1-.75-.75Z" clip-rule="evenodd"/></svg>