<svg xmlns="http://www.w3.org/2000/svg" width="80" height="80" fill="none"><path fill="#ECECFE" fill-rule="evenodd" d="M73 33a1.001 1.001 0 0 1 0-2 1.001 1.001 0 0 1 0 2ZM12 43a1.001 1.001 0 0 1 0-2 1.001 1.001 0 0 1 0 2ZM8 6a1.001 1.001 0 0 1 0-2 1.001 1.001 0 0 1 0 2ZM23 74a1.001 1.001 0 0 1 0-2 1.001 1.001 0 0 1 0 2ZM44 8a1.001 1.001 0 0 1 0-2 1.001 1.001 0 0 1 0 2ZM71 72a1.001 1.001 0 0 1 0-2 1.001 1.001 0 0 1 0 2Z" clip-rule="evenodd"/><path fill="#6A6AF4" fill-rule="evenodd" d="M66 14c0 .61-.182 1.179-.496 1.652C66.693 16.34 67.5 17.526 67.5 19a1 1 0 1 1-2 0c0-1.002-.908-2-2.5-2-1.57 0-2.5 1.074-2.5 2a1 1 0 1 1-2 0c0-1.413.808-2.622 2.007-3.33A3 3 0 1 1 66 14Zm-4 0a1 1 0 1 1 2 0 1 1 0 0 1-2 0ZM27 19c0 .61-.182 1.179-.496 1.652C27.693 21.34 28.5 22.526 28.5 24a1 1 0 1 1-2 0c0-1.002-.908-2-2.5-2-1.57 0-2.5 1.074-2.5 2a1 1 0 1 1-2 0c0-1.413.808-2.622 2.007-3.33A3 3 0 1 1 27 19Zm-4 0a1 1 0 1 1 2 0 1 1 0 0 1-2 0ZM37.5 36c0 1.025.385 1.96 1.02 2.667C36.432 39.663 35 41.672 35 44a1 1 0 1 0 2 0c0-2.075 1.876-4 4.5-4 2.637 0 4.5 1.838 4.5 4a1 1 0 1 0 2 0c0-2.4-1.431-4.373-3.508-5.346A4 4 0 1 0 37.5 36Zm4-2a2 2 0 1 0 0 4h.004a2 2 0 0 0-.004-4ZM47 63c0 .61-.182 1.179-.496 1.653C47.693 65.34 48.5 66.526 48.5 68a1 1 0 1 1-2 0c0-1-.907-1.999-2.496-2h-.008c-1.568.002-2.496 1.074-2.496 2a1 1 0 1 1-2 0c0-1.413.808-2.622 2.007-3.33A3 3 0 1 1 47 63Zm-4 0a1 1 0 1 1 1 1h-.002A1 1 0 0 1 43 63ZM67 41a3 3 0 0 0-2.493 4.67c-1.199.708-2.007 1.917-2.007 3.33a1 1 0 1 0 2 0c0-.926.93-2 2.5-2 1.592 0 2.5.998 2.5 2a1 1 0 1 0 2 0c0-1.474-.807-2.66-1.996-3.347A3 3 0 0 0 67 41Zm-1 3a1 1 0 1 1 2 0 1 1 0 0 1-2 0ZM17 58c0 .61-.182 1.179-.496 1.653C17.693 60.34 18.5 61.526 18.5 63a1 1 0 1 1-2 0c0-1.002-.908-2-2.5-2-1.57 0-2.5 1.074-2.5 2a1 1 0 1 1-2 0c0-1.413.808-2.622 2.007-3.33A3 3 0 1 1 17 58Zm-4 0a1 1 0 1 1 2 0 1 1 0 0 1-2 0Z" clip-rule="evenodd"/><path fill="#6A6AF4" d="M12 26a1 1 0 1 0 0-2 1 1 0 0 0 0 2Z"/><path fill="#000091" fill-rule="evenodd" d="M67 39a7 7 0 1 0 0 14 7 7 0 0 0 0-14Zm-9 7a9 9 0 1 1 18 0 9 9 0 0 1-18 0ZM13.434 27.176a1 1 0 0 1 1.39.258c.976 1.419 2.422 2.521 4.123 3.372a1 1 0 1 1-.894 1.788c-1.9-.95-3.653-2.247-4.877-4.027a1 1 0 0 1 .258-1.391ZM24 14a7 7 0 1 0 0 14 7 7 0 0 0 0-14Zm-9 7a9 9 0 1 1 18 0 9 9 0 0 1-18 0ZM14 53a7 7 0 1 0 0 14 7 7 0 0 0 0-14Zm-9 7a9 9 0 1 1 18 0 9 9 0 0 1-18 0ZM54 16c0-4.952 4.048-9 9-9 1.36 0 2.712.338 3.847.906a1 1 0 1 1-.894 1.788A6.735 6.735 0 0 0 63 9c-3.848 0-7 3.152-7 7s3.152 7 7 7 7-3.152 7-7a1 1 0 1 1 2 0c0 4.952-4.048 9-9 9s-9-4.048-9-9Z" clip-rule="evenodd"/><path fill="#000091" fill-rule="evenodd" d="M68.2 10.2a1 1 0 0 1 1.4-.2c.101.076.184.156.243.217.057.059.111.12.15.163l.004.006.096.105.017.017A1 1 0 0 1 68.9 12.1a2.089 2.089 0 0 1-.243-.217 5.269 5.269 0 0 1-.15-.163l-.004-.006a3.499 3.499 0 0 0-.096-.105l-.017-.017a1 1 0 0 1-.19-1.392ZM35 65c0-4.952 4.048-9 9-9s9 4.048 9 9-4.048 9-9 9a8.733 8.733 0 0 1-3.847-.906 1 1 0 1 1 .894-1.788A6.736 6.736 0 0 0 44 72c3.848 0 7-3.152 7-7s-3.152-7-7-7-7 3.152-7 7a1 1 0 1 1-2 0Z" clip-rule="evenodd"/><path fill="#000091" fill-rule="evenodd" d="M37.2 69.4a1 1 0 0 1 1.4-.2c.101.076.184.156.243.217.057.059.111.12.15.163a3.532 3.532 0 0 0 .1.11l.017.018A1 1 0 0 1 37.9 71.3a2.089 2.089 0 0 1-.243-.217 5.269 5.269 0 0 1-.154-.169 3.408 3.408 0 0 0-.096-.105l-.017-.017a1 1 0 0 1-.19-1.392ZM41.5 30a9.5 9.5 0 1 0 0 19 9.5 9.5 0 0 0 0-19ZM30 39.5C30 33.149 35.149 28 41.5 28S53 33.149 53 39.5 47.851 51 41.5 51 30 45.851 30 39.5Z" clip-rule="evenodd"/><path fill="#000091" fill-rule="evenodd" d="M57.707 21.293a1 1 0 0 1 0 1.414l-9 9a1 1 0 0 1-1.414-1.414l9-9a1 1 0 0 1 1.414 0ZM51.026 42.775a1 1 0 0 1 1.199-.75l6.5 1.5a1 1 0 0 1-.45 1.95l-6.5-1.5a1 1 0 0 1-.75-1.2ZM42.917 49.503a1 1 0 0 1 1.08.914l.5 6a1 1 0 0 1-1.993.166l-.5-6a1 1 0 0 1 .913-1.08ZM28.793 26.793a1 1 0 0 1 1.414 0l4.5 4.5a1 1 0 0 1-1.414 1.414l-4.5-4.5a1 1 0 0 1 0-1.414ZM33.304 45.906a1 1 0 0 1-.21 1.398l-11.5 8.5a1 1 0 0 1-1.188-1.608l11.5-8.5a1 1 0 0 1 1.398.21Z" clip-rule="evenodd"/></svg>