<svg xmlns="http://www.w3.org/2000/svg" width="80" height="80" fill="none"><path fill="#ECECFE" fill-rule="evenodd" d="M70 69a1.001 1.001 0 0 1 0-2 1.001 1.001 0 0 1 0 2ZM68 13a1.001 1.001 0 0 1 0-2 1.001 1.001 0 0 1 0 2ZM14 69a1.001 1.001 0 0 1 0-2 1.001 1.001 0 0 1 0 2ZM10 17a1.001 1.001 0 0 1 0-2 1.001 1.001 0 0 1 0 2Z" clip-rule="evenodd"/><path fill="#6A6AF4" fill-rule="evenodd" d="M16 33a3 3 0 1 1 6 0 3 3 0 0 1-6 0Zm4 0a1 1 0 1 0-2 0 1 1 0 0 0 2 0Z" clip-rule="evenodd"/><path fill="#6A6AF4" d="M19 34a1 1 0 0 1 .993.883L20 35v4a1 1 0 0 1-1.993.117L18 39v-4a1 1 0 0 1 1-1Z"/><path fill="#6A6AF4" fill-rule="evenodd" d="M38 29a3 3 0 1 1 6 0 3 3 0 0 1-6 0Zm4 0a1 1 0 1 0-2 0 1 1 0 0 0 2 0Z" clip-rule="evenodd"/><path fill="#6A6AF4" d="M41 30a1 1 0 0 1 .993.883L42 31v4a1 1 0 0 1-1.993.117L40 35v-4a1 1 0 0 1 1-1Z"/><path fill="#6A6AF4" fill-rule="evenodd" d="M56 17a3 3 0 1 1 6 0 3 3 0 0 1-6 0Zm4 0a1 1 0 1 0-2 0 1 1 0 0 0 2 0Z" clip-rule="evenodd"/><path fill="#6A6AF4" d="M59 18a1 1 0 0 1 .993.883L60 19v4a1 1 0 0 1-1.993.117L58 23v-4a1 1 0 0 1 1-1Z"/><path fill="#6A6AF4" fill-rule="evenodd" d="M48 39a3 3 0 1 1 6 0 3 3 0 0 1-6 0Zm4 0a1 1 0 1 0-2 0 1 1 0 0 0 2 0Z" clip-rule="evenodd"/><path fill="#6A6AF4" d="M51 40a1 1 0 0 1 .993.883L52 41v4a1 1 0 0 1-1.993.117L50 45v-4a1 1 0 0 1 1-1Z"/><path fill="#6A6AF4" fill-rule="evenodd" d="M34 49a3 3 0 1 1 6 0 3 3 0 0 1-6 0Zm4 0a1 1 0 1 0-2 0 1 1 0 0 0 2 0Z" clip-rule="evenodd"/><path fill="#6A6AF4" d="M37 50a1 1 0 0 1 .993.883L38 51v4a1 1 0 0 1-1.993.117L36 55v-4a1 1 0 0 1 1-1Z"/><path fill="#6A6AF4" fill-rule="evenodd" d="M50 59a3 3 0 1 1 6 0 3 3 0 0 1-6 0Zm4 0a1 1 0 1 0-2 0 1 1 0 0 0 2 0Z" clip-rule="evenodd"/><path fill="#6A6AF4" d="M53 60a1 1 0 0 1 .993.883L54 61v4a1 1 0 0 1-1.993.117L52 65v-4a1 1 0 0 1 1-1Z"/><path fill="#000091" fill-rule="evenodd" d="m63.04 24 2.668.11a1 1 0 0 1 .483.147c1.287.792 1.775 2.404 1.149 3.741l-.084.166-.787 1.437-.027.29a2.933 2.933 0 0 1-.082.458l-.07.227-.572 1.591.047 2.74a2.91 2.91 0 0 1-.955 2.21l-.149.129-1.163.934c-.18.144-.378.268-.587.368l-.12.052-1.074 1.336.07.061c.33.306.59.684.753 1.115l.064.187.16.527.199.245.654.94c.516.749.645 1.671.392 2.505l-.058.165.326.375c.448.523.7 1.173.714 1.853l-.003.205-.056 1.025c-.028.47-.17.92-.405 1.318l-.06.093.08.134c.245.443.372.945.361 1.46l-.01.16.15.016a3.033 3.033 0 0 1 2.25 1.514l.084.162.336.702a2.888 2.888 0 0 1-.203 2.852l-.016.022-.001.125a2.928 2.928 0 0 1-.953 2.028l-.15.13-2.053 1.641-.099.07-.46.283-.01.066a2.9 2.9 0 0 1-.126.444l-.09.214a3.001 3.001 0 0 1-1.532 1.481l-.187.074-1.817.646a3.439 3.439 0 0 1-.459.122l-.145.023-1.345.185c-.38.053-.776.034-1.15-.056a1 1 0 0 1 .354-1.965l.114.02c.087.021.18.031.272.03l.137-.01 1.352-.186a.99.99 0 0 0 .137-.029l.082-.025 1.795-.638c.26-.093.472-.284.579-.515a.913.913 0 0 0 .083-.314l.002-.108a1 1 0 0 1 .375-.824l.098-.069.842-.522 1.998-1.597a.928.928 0 0 0 .359-.743l-.011-.12a1 1 0 0 1 .109-.635l.07-.112.134-.18a.898.898 0 0 0 .156-.829l-.046-.118-.333-.696c-.206-.426-.7-.652-1.186-.545l-.12.033-.258.088a1 1 0 0 1-.765-.049l-.115-.066-.242-.162a1 1 0 0 1-.276-1.385l.07-.094a.912.912 0 0 0 .002-1.186l-.088-.09-.144-.133a1 1 0 0 1-.014-1.46l.095-.08a.982.982 0 0 0 .382-.593l.014-.115.055-1.015a.914.914 0 0 0-.154-.552l-.073-.096-.77-.886a1 1 0 0 1-.114-1.151l.07-.106a.913.913 0 0 0 .09-.959l-.066-.111-.602-.872-.278-.336a1 1 0 0 1-.14-.223l-.046-.123-.216-.716a.993.993 0 0 0-.622-.634l-.117-.035a1 1 0 0 1-.611-1.5l.07-.098 1.993-2.478a1 1 0 0 1 .374-.287l.112-.042c.089-.027.173-.065.249-.111l.108-.075 1.16-.933a.929.929 0 0 0 .353-.622l.005-.12-.05-2.926a.996.996 0 0 1 .025-.239l.034-.116.63-1.755.03-.104.017-.107.046-.486a1 1 0 0 1 .06-.264l.058-.123.886-1.622a.918.918 0 0 0-.093-1.007l-.092-.101-2.357-.096a1 1 0 0 1-.956-.923L62 24.959a1 1 0 0 1 .923-.956L63.04 24ZM40.927 12.087c1.166-.28 2.395.128 3.129 1.034l.117.156.323.455.176.016a3.004 3.004 0 0 1 2.464 1.894l.012.038c.328.142.62.333.873.568l.037.038.053.016c.066.022.13.045.193.071l.187.084.824.396c.26.127.497.287.707.475l.06.059.068-.015a3.092 3.092 0 0 1 2.403.42l.172.12c.525.4.894.944 1.065 1.554l.052.218.72.489a1 1 0 0 1 .268.27l.064.11 1 2a1 1 0 0 1-1.73.995l-.059-.1-.883-1.768-.885-.6a1 1 0 0 1-.431-.704l-.016-.247a.937.937 0 0 0-.373-.622 1.1 1.1 0 0 0-.771-.213l-.135.024-.672.155a1 1 0 0 1-1.002-.342l-.073-.103a1.007 1.007 0 0 0-.32-.318l-.102-.058-.825-.396a1.068 1.068 0 0 0-.18-.07l-.093-.02a1 1 0 0 1-.514-.267l-.08-.087a1.034 1.034 0 0 0-.459-.321l-.14-.04a1 1 0 0 1-.706-.564l-.042-.112-.114-.356a1.003 1.003 0 0 0-.867-.686l-.127-.007h-.32a1 1 0 0 1-.741-.328l-.076-.094-.618-.873c-.214-.304-.612-.47-1.005-.425l-.131.023-3.284.825a1.026 1.026 0 0 0-.618.433l-.062.11-.719 1.519a.93.93 0 0 0-.084.33v.113l.132 1.987a1 1 0 0 1-.243.723l-.093.094-.928.817a.995.995 0 0 1-.223.149l-.124.05-3.46 1.144a.987.987 0 0 0-.669.708l-.02.123-.018.222a1 1 0 0 1-1.068.912l-.115-.015-1.822-.347a.998.998 0 0 1-.442-.204l-.09-.084-1.402-1.45a1.08 1.08 0 0 0-.699-.32l-.126.002-1.63.08c-.322.017-.606.165-.787.404a.91.91 0 0 0-.186.662l.021.116.52 2.041.691 1.596a1 1 0 0 1-.978 1.396l-.111-.013-.544-.095a1.102 1.102 0 0 0-.471.017l-.114.036-.156.059a1 1 0 0 1-.957-.137l-.097-.084-.74-.724a1.091 1.091 0 0 0-.709-.298h-.139l-3.998.347c-.08.006-.16.022-.238.047l-.12.045-2.898 1.303c-.44.199-.661.64-.563 1.066l.031.106.442 1.225c.055.151.154.291.289.406l.107.08a1 1 0 0 1 .444.92l-.017.121a.926.926 0 0 0 .126.684l.075.128.137.213c.022.03.042.06.062.086l.107.137.084.092.059.052c.015.01.026.016.03.016a1 1 0 1 1 0 2c-.928 0-1.662-.633-2.274-1.704a2.887 2.887 0 0 1-.413-1.24l-.013-.238-.008-.008a2.969 2.969 0 0 1-.596-.869l-.08-.196-.442-1.227c-.501-1.393.118-2.907 1.425-3.592l.167-.081 2.91-1.31c.266-.115.53-.192.799-.232l.202-.023 4.017-.348c.836-.051 1.639.207 2.248.728l.148.136.288.283-.078-.184-.052-.15-.54-2.123a2.907 2.907 0 0 1 .512-2.479 3.036 3.036 0 0 1 2.066-1.172l.209-.019 1.59-.077c.794-.075 1.635.221 2.255.777l.15.144 1.182 1.224.555.106.031-.077a2.998 2.998 0 0 1 1.628-1.557l.188-.069 3.262-1.078.405-.358-.099-1.5a2.933 2.933 0 0 1 .187-1.225l.082-.194.723-1.527a3.005 3.005 0 0 1 1.798-1.569l.2-.057 3.296-.828ZM20.392 42.206a1 1 0 0 1 1.402.186l-.096-.13.194.08.398.144 1.07.357.172.064.07.03.997.491a1 1 0 0 1 .516.613l.027.116a.89.89 0 0 0 .055.192l.044.092a1 1 0 0 1-.114 1.132l-.087.09a.964.964 0 0 0-.325.723c.001.115.026.23.072.338l.052.106a1 1 0 0 1 .126.635l-.041.195-.01.069-.608 5.104a.902.902 0 0 0 .02.33l.034.106a1 1 0 0 1 .017.68l-.02.066-.014.062-.733 3.863a1 1 0 0 1-.144.358l-.078.104-1.32 1.549c-.187.22-.26.5-.208.772a.96.96 0 0 0 .397.594l.11.067.849.451a1 1 0 0 1 .33.283l.062.092.405.687c.086.146.215.272.368.36l.12.059 1.984.822a1 1 0 0 1 .232.135l.1.09.596.609c.165.17.396.28.642.308l.123.007h.88a1 1 0 0 1 .379.075l.116.056.59.336c.084.048.171.084.263.108l.14.028 3.475.451c.305.043.613-.046.841-.24l.062-.056.055-.059a1 1 0 0 1 .846-.35l.12.018.337.07.162.049.804.317a1 1 0 0 1 .54.509l.047.12c.068.217.22.41.424.535l.106.057.972.456c.163.074.352.107.537.096l.137-.017.832-.164a1 1 0 0 1 .241-.018l.121.013 1.74.304.217.019c.064 0 .128-.005.188-.016l.087-.018 2.184-.56c.27-.071.5-.243.629-.464a.921.921 0 0 0 .118-.597l-.026-.12-.53-1.8a1 1 0 0 1 .018-.62l.05-.118.546-1.066a1 1 0 0 1 1.828.804l-.047.107-.365.71.42 1.42a2.917 2.917 0 0 1-.193 2.119l-.095.174a3.02 3.02 0 0 1-1.657 1.33l-.193.057-2.179.558a2.914 2.914 0 0 1-.66.094l-.198.003-.386-.033-1.652-.285-.658.13a3.158 3.158 0 0 1-1.695-.144l-.2-.084-.978-.458a3.014 3.014 0 0 1-1.344-1.237l-.046-.088-.126-.05a3.071 3.071 0 0 1-2.05.596l-.198-.02-3.463-.45a3.066 3.066 0 0 1-.927-.272l-.213-.112-.356-.203h-.617c-.758 0-1.492-.28-2.05-.777l-.147-.141-.45-.462-1.797-.744c-.537-.223-1-.597-1.328-1.069l-.116-.181-.262-.444-.603-.32a2.985 2.985 0 0 1-1.478-1.836l-.048-.199c-.159-.81.03-1.638.517-2.298l.128-.162 1.149-1.348.684-3.598.012-.053-.013-.05a2.886 2.886 0 0 1-.073-.807l.018-.204.609-5.126-.008-.018a2.913 2.913 0 0 1-.196-.823l-.011-.212a2.923 2.923 0 0 1 .375-1.472l.013-.024-.325-.16-1.14-.382-.49-.176c-.504-.19-.735-.323-.942-.593a1 1 0 0 1 .186-1.402ZM35 36a1 1 0 0 1 .117 1.993L35 38h-2a1 1 0 0 1-.117-1.993L33 36h2ZM55 30a1 1 0 0 1 .117 1.993L55 32h-2a1 1 0 0 1-.117-1.993L53 30h2ZM49 50a1 1 0 0 1 .117 1.993L49 52h-2a1 1 0 0 1-.117-1.993L47 50h2Z" clip-rule="evenodd"/></svg>