<svg xmlns="http://www.w3.org/2000/svg" width="60" height="60" fill="none"><path fill="#ECECFE" fill-rule="evenodd" d="M11.25 10.5a.75.75 0 1 1 .002-1.502.75.75 0 0 1-.002 1.502ZM3.75 52.5a.75.75 0 1 1 .002-1.502.75.75 0 0 1-.002 1.502ZM56.25 48a.75.75 0 1 1 .002-1.502A.75.75 0 0 1 56.25 48ZM44.25 9a.75.75 0 1 1 .002-1.502A.75.75 0 0 1 44.25 9Z" clip-rule="evenodd"/><path fill="#6A6AF4" d="M31.611 7.5c12.427 0 22.5 10.074 22.5 22.5a.75.75 0 0 1-1.5 0c0-11.598-9.402-21-21-21s-21 9.402-21 21 9.402 21 21 21c8.366 0 15.83-4.937 19.184-12.444a.75.75 0 1 1 1.37.612A22.502 22.502 0 0 1 31.61 52.5c-12.426 0-22.5-10.074-22.5-22.5s10.074-22.5 22.5-22.5Z"/><path fill="#6A6AF4" d="M53.361 36.444a.806.806 0 1 1-1.611 0 .806.806 0 0 1 1.611 0ZM10.87 15.774a.75.75 0 0 0-1.051.143 19.193 19.193 0 0 0-3.93 11.666.75.75 0 0 0 1.5 0c0-3.942 1.286-7.687 3.623-10.758a.75.75 0 0 0-.142-1.05Z"/><path fill="#000091" fill-rule="evenodd" d="M41.997 26.188C41.465 19.799 37.891 16.5 31.5 16.5c-6.39 0-9.965 3.3-10.497 9.688a.75.75 0 0 0 .861.803l1.386-.213v.328c-.537.103-.933.246-1.21.453C21.337 28.084 21 28.922 21 30c0 1.914 1.086 3 3 3a.75.75 0 0 0 .234-.037 8.47 8.47 0 0 0 3.537 3.608.752.752 0 0 0-.021.179 2.995 2.995 0 0 1-3 3h-1.5l-.169.003a4.5 4.5 0 0 0-4.331 4.497.75.75 0 0 0 1.5 0 3 3 0 0 1 3-3h1.5l.169-.003a4.475 4.475 0 0 0 1.758-.43c.804 1.266 2.287 1.653 4.255 1.16a.75.75 0 0 0-.364-1.455c-1.402.351-2.221.161-2.658-.568a4.487 4.487 0 0 0 1.32-2.784c.721.215 1.483.33 2.27.33.787 0 1.549-.115 2.27-.33a4.5 4.5 0 0 0 4.311 4.077l.169.003h1.5a3 3 0 0 1 3 3 .75.75 0 0 0 1.5 0 4.5 4.5 0 0 0-4.331-4.497l-.169-.003h-1.5a3 3 0 0 1-3-3 .752.752 0 0 0-.021-.179 8.47 8.47 0 0 0 3.537-3.608A.747.747 0 0 0 39 33c1.914 0 3-1.086 3-3 0-1.078-.337-1.916-1.04-2.44-.38-.284-.98-.447-1.86-.553a.755.755 0 0 0-.097-.007h-.001a.746.746 0 0 0-.75.705.753.753 0 0 0-.002.057v1.113l-.003.207C38.144 32.929 35.154 36 31.5 36c-3.72 0-6.75-3.182-6.75-7.125v-2.328l6.864-1.056.088-.019a.75.75 0 0 0 .469-.387l.75-1.5.034-.08a.75.75 0 0 0-.37-.926l-.08-.034a.75.75 0 0 0-.926.37l-.577 1.152-8.397 1.292.014-.097C23.354 20.363 26.253 18 31.5 18l.27.002c4.988.079 7.79 2.363 8.571 7.01l.039.247-4.948-1.237-.086-.016a.75.75 0 0 0-.278 1.472l6 1.5.088.016a.75.75 0 0 0 .841-.806ZM23.25 28.643a1.05 1.05 0 0 0-.313.119c-.282.21-.437.597-.437 1.238 0 .954.32 1.39 1.134 1.481a8.965 8.965 0 0 1-.381-2.384l-.003-.222v-.232ZM40.5 30c0 .954-.32 1.39-1.133 1.481a8.98 8.98 0 0 0 .383-2.606v-.232c.159.041.265.083.313.119.281.21.437.597.437 1.238Z" clip-rule="evenodd"/></svg>