<svg xmlns="http://www.w3.org/2000/svg" width="80" height="80" fill="none"><path fill="#ECECFE" fill-rule="evenodd" d="M70 69a1.001 1.001 0 0 1 0-2 1.001 1.001 0 0 1 0 2ZM68 13a1.001 1.001 0 0 1 0-2 1.001 1.001 0 0 1 0 2ZM14 69a1.001 1.001 0 0 1 0-2 1.001 1.001 0 0 1 0 2Z" clip-rule="evenodd"/><path fill="#6A6AF4" fill-rule="evenodd" d="M19.397 12.006c.199-.004.4-.006.603-.006l.303.002c.1 0 .2.002.3.004l.59.019.576.031c.284.019.562.042.834.07l.532.063C26.015 12.566 28 13.507 28 15v6a1 1 0 0 1-1.993.117L26 21v-3.874c-.781.312-1.757.54-2.864.685l-.533.063c-.272.028-.55.051-.834.07l-.575.031-.59.019a29.297 29.297 0 0 1-1.207 0l-.59-.019-.576-.031a22.32 22.32 0 0 1-.834-.07l-.532-.063C13.986 17.434 12 16.493 12 15c0-1.493 1.986-2.434 4.864-2.811l.533-.063c.272-.028.55-.051.834-.07l.575-.031.59-.019ZM26 15l-.022-.014a4.812 4.812 0 0 0-.944-.38l-.205-.059C23.58 14.202 21.854 14 20 14c-1.853 0-3.58.202-4.828.547-.422.117-.77.246-1.028.375L14 15l.17.091c.211.103.48.206.797.302l.205.06C16.42 15.798 18.147 16 20 16c1.854 0 3.581-.202 4.829-.547.422-.117.77-.246 1.028-.375L26 15Z" clip-rule="evenodd"/><path fill="#6A6AF4" d="M59.732 49.804C58.672 48.659 57.222 48 55.675 48c-2.475 0-4.574 1.672-5.352 4H49l-.117.007A1 1 0 0 0 49 54h1c0 .34.027.675.078 1H49l-.117.007A1 1 0 0 0 49 57h1.76c.98 1.792 2.812 3 4.915 3a5.486 5.486 0 0 0 3.776-1.52 1.024 1.024 0 0 0 .063-1.413.946.946 0 0 0-1.367-.065c-.68.64-1.55.998-2.472.998a3.593 3.593 0 0 1-2.473-1H55l.117-.007A1 1 0 0 0 55 55h-2.947a4.275 4.275 0 0 1-.117-1H55l.117-.007A1 1 0 0 0 55 52h-2.564c.647-1.197 1.858-2 3.24-2 1.01 0 1.957.43 2.657 1.186.37.4.982.413 1.368.032.386-.382.4-1.015.03-1.414ZM13 20c.513 0 .935.35.993.803l.007.106v18.182c0 .502-.448.909-1 .909-.513 0-.935-.35-.993-.803L12 39.09V20.909c0-.502.448-.909 1-.909ZM13 44a1 1 0 1 0 0-2 1 1 0 0 0 0 2Z"/><path fill="#6A6AF4" fill-rule="evenodd" d="M60 28c-.203 0-.404.002-.603.006l-.59.019-.576.031a22.32 22.32 0 0 0-.834.07l-.532.063C53.986 28.566 52 29.507 52 31c0 1.493 1.986 2.434 4.864 2.811l.533.063c.272.028.55.051.834.07l.575.031.59.019a28.602 28.602 0 0 0 1.207 0l.59-.019.576-.031c.284-.019.562-.042.834-.07l.532-.063c1.108-.145 2.084-.373 2.865-.685V37l.007.117A1 1 0 0 0 68 37v-6c0-1.493-1.986-2.434-4.864-2.811l-.533-.063a22.32 22.32 0 0 0-.834-.07l-.575-.031-.59-.019-.3-.004L60 28Zm5.857 3.078L66 31l-.022-.014a4.812 4.812 0 0 0-.944-.38l-.205-.059C63.58 30.202 61.854 30 60 30c-1.854 0-3.581.202-4.829.547-.422.117-.77.246-1.028.375L54 31l.17.091c.211.103.48.206.797.302l.205.06c1.248.345 2.975.547 4.829.547 1.853 0 3.58-.202 4.828-.547.422-.117.77-.246 1.028-.375Z" clip-rule="evenodd"/><path fill="#6A6AF4" d="M53.993 34.883A1 1 0 0 0 52 35v4l.007.117A1 1 0 0 0 54 39v-4l-.007-.117Z"/><path fill="#000091" fill-rule="evenodd" d="m36.662 22-.668.012-.33.01-.65.03-.637.042c-.314.023-.624.051-.927.084l-.598.07-.293.04-.572.087C28.423 22.962 26 24.217 26 25.999v4.573l.005.148c.002.036.006.072.01.108-.01.056-.015.114-.015.172v4.572l.005.148c.002.036.006.072.01.108-.01.056-.015.113-.015.172v4.572l.005.148c.002.036.006.072.01.108-.01.055-.015.113-.015.171v4.572l.005.148c.01.14.032.277.067.412a30.767 30.767 0 0 0-.45-.037l-.636-.042-.65-.03a35.17 35.17 0 0 0-.33-.01L23.338 46h-.676l-.668.012-.33.01-.65.03-.636.042c-.315.023-.625.051-.928.084l-.598.07-.293.04-.572.087C14.423 46.962 12 48.217 12 49.999v4.572l.005.148c.002.037.006.073.01.109-.01.056-.015.113-.015.172v4.571l.005.148c.13 1.963 2.833 3.367 6.646 3.963l.58.083c.196.026.395.05.596.071l.61.059c.823.07 1.68.105 2.563.105.882 0 1.74-.036 2.563-.105l.61-.059c.201-.022.4-.045.596-.071l.58-.083c3.738-.585 6.41-1.945 6.635-3.847.954.109 1.95.165 2.966.165 2.49 0 5.54-.318 7.234-.796A12 12 0 0 0 55 66c6.627 0 12-5.373 12-12 0-6.628-5.373-12-12-12-2.612 0-5.03.834-7 2.251V41l-.007-.117a.844.844 0 0 0-.008-.054c.01-.085.015-.17.015-.256V36l-.007-.117a1.004 1.004 0 0 0-.008-.055c.01-.084.015-.17.015-.256V31l-.007-.117a1.004 1.004 0 0 0-.008-.055c.01-.084.015-.17.015-.256V26c0-1.735-2.297-2.972-5.708-3.578l-.563-.092c-.19-.03-.384-.057-.58-.082l-.599-.07c-.303-.033-.613-.06-.927-.084l-.637-.042-.65-.03a35.17 35.17 0 0 0-.33-.01L37.338 22h-.676Zm7.398 27.06c-.813.259-1.725.467-2.711.621l-.58.084c-.196.025-.395.049-.596.07l-.61.059c-.823.07-1.68.105-2.563.105-.882 0-1.74-.035-2.563-.105l-.443-.042c.004.048.006.098.006.147v2.594c.954.119 1.96.18 2.99.18 2.035 0 4.461-.233 6.147-.593.167-1.095.481-2.142.923-3.12Zm-1.051 5.408c-1.774.33-4.059.532-6.019.532-1.03 0-2.038-.057-3.004-.17l.003.02.003.02.001.013L34 55v2.605c.942.116 1.934.176 2.95.176 2.201 0 4.898-.268 6.461-.654a11.988 11.988 0 0 1-.402-2.66ZM28 30.572v-2.127c.963.488 2.231.869 3.708 1.131l.563.093c.19.029.384.056.58.081l.599.07c.303.033.613.061.927.085l.637.041.65.03c.11.004.22.008.33.01l.668.012c.112.002.225.002.338.002l.338-.002.668-.012.33-.01.65-.03.637-.041c.314-.024.624-.052.927-.084l.598-.07.293-.04.572-.087c1.596-.263 2.964-.66 3.987-1.178v2.126l-.007.06c-.08.36-.832.933-2.246 1.418-1.752.6-4.163.95-6.747.95-2.584 0-4.995-.35-6.747-.95C28.756 31.537 28 30.924 28 30.572Zm.773-3.9C28.276 26.438 28 26.204 28 26c0-.203.276-.437.773-.671l.266-.117c.095-.039.195-.078.301-.116l.335-.115c.117-.038.24-.075.367-.112l.397-.109.21-.053.439-.102a21 21 0 0 1 .466-.098l.49-.091.515-.085.266-.039.546-.073.565-.063.584-.054c.197-.016.397-.03.6-.044l.614-.031.627-.02c.106-.003.212-.004.318-.005L37 24c.215 0 .428.002.639.007l.627.02.615.031c.202.013.402.028.6.044l.583.054.565.063.547.073.525.08.254.044.491.091.236.048.453.1c.147.034.289.07.426.105l.397.11c.064.017.127.036.188.055l.35.113c.168.058.323.116.465.174l.266.117c.497.234.773.468.773.671 0 .204-.276.438-.773.672l-.266.117a7.764 7.764 0 0 1-.301.116l-.335.114c-.117.038-.24.076-.367.113l-.397.109-.21.053-.439.102a21 21 0 0 1-.466.098l-.49.091-.515.084a28.46 28.46 0 0 1-.266.04l-.546.072-.565.064-.584.054c-.197.016-.397.03-.6.043l-.614.032-.627.02a30.662 30.662 0 0 1-1.278 0l-.627-.02-.615-.032a30.436 30.436 0 0 1-.6-.043l-.583-.054-.565-.064-.547-.072-.525-.08a27.36 27.36 0 0 1-.254-.044l-.491-.091a23.9 23.9 0 0 1-.236-.048l-.453-.1c-.147-.035-.289-.07-.426-.105l-.397-.11a13.643 13.643 0 0 1-.188-.055l-.35-.114a8.225 8.225 0 0 1-.465-.173l-.266-.117Zm-.773 8.9v-2.328c1.165.655 2.773 1.145 4.651 1.438l.58.083c.196.026.395.05.596.071l.61.059c.823.07 1.68.105 2.563.105.882 0 1.74-.035 2.563-.105l.61-.059c.201-.021.4-.045.596-.07l.58-.084c1.878-.293 3.486-.783 4.651-1.438v2.328l-.007.06c-.08.36-.832.933-2.246 1.418-1.752.6-4.163.95-6.747.95-2.584 0-4.995-.35-6.747-.95C28.756 36.536 28 35.924 28 35.572Zm4 21.671c-1.165.656-2.773 1.145-4.651 1.438l-.58.084c-.196.026-.395.05-.596.07l-.61.06c-.823.069-1.68.105-2.563.105-.882 0-1.74-.036-2.563-.106l-.61-.058c-.201-.022-.4-.045-.596-.071l-.58-.084c-1.878-.293-3.486-.782-4.651-1.438v2.328c0 .353.755.965 2.253 1.479 1.752.6 4.163.95 6.747.95 2.584 0 4.995-.35 6.747-.95 1.414-.485 2.167-1.058 2.246-1.418l.007-.06v-2.329Zm-4-19c1.165.656 2.773 1.146 4.651 1.44l.58.082c.196.026.395.05.596.071l.61.059c.823.07 1.68.105 2.563.105.882 0 1.74-.035 2.563-.105l.61-.059c.201-.021.4-.045.596-.07l.58-.084c1.878-.293 3.486-.783 4.651-1.438v2.328l-.007.06c-.08.36-.832.933-2.246 1.418-1.752.6-4.163.95-6.747.95-2.584 0-4.995-.35-6.747-.95C28.756 41.536 28 40.924 28 40.572v-2.328Zm18 7.328v-2.327c-1.165.655-2.773 1.145-4.651 1.438l-.58.083c-.196.026-.395.05-.596.071l-.61.059c-.823.07-1.68.105-2.563.105-.882 0-1.74-.035-2.563-.105l-.61-.059c-.201-.021-.4-.045-.596-.07l-.58-.084c-1.878-.293-3.486-.783-4.651-1.438v2.327c0 .252.386.637 1.153 1.023 1.057.235 1.982.537 2.732.902 1.496.323 3.261.503 5.115.503 2.584 0 4.995-.35 6.747-.95 1.414-.485 2.167-1.058 2.246-1.417L46 45.57Zm-14.501 3.898c-1.118-.239-2.113-.554-2.938-.939a15.69 15.69 0 0 0-.115-.023l-.49-.091c-.085-.015-.17-.03-.255-.043l-.526-.081-.546-.073-.565-.063-.584-.054c-.197-.016-.397-.03-.6-.043l-.614-.032-.627-.02A29.987 29.987 0 0 0 23 48l-.32.002c-.107 0-.213.002-.319.005l-.627.02-.615.032c-.202.012-.402.027-.6.043l-.583.054-.565.063-.546.073-.266.04-.514.084-.491.091a21 21 0 0 0-.466.098l-.44.102-.21.053-.396.11c-.128.036-.25.073-.367.111l-.335.115a7.767 7.767 0 0 0-.301.116l-.266.117c-.497.234-.773.468-.773.671 0 .204.276.438.773.672l.266.117c.142.058.297.116.465.173l.35.114.188.056.397.109c.137.035.279.07.426.105l.453.1.236.048.49.091.255.043.526.08.546.073.565.064.584.054c.197.016.397.03.6.043l.614.032.627.02a30.662 30.662 0 0 0 1.278 0l.627-.02.615-.032c.202-.012.402-.027.6-.043l.583-.054.565-.064.546-.072.266-.04.514-.084.491-.091a21 21 0 0 0 .466-.098l.44-.102.21-.053.396-.11c.128-.036.25-.074.367-.111l.335-.115c.106-.038.206-.077.301-.116l.266-.117c.497-.234.773-.468.773-.672 0-.163-.177-.345-.501-.53ZM32 54.571v-2.125c-1.023.518-2.39.915-3.987 1.178l-.572.087-.293.04-.598.07c-.303.032-.613.06-.928.084l-.636.041-.65.03c-.11.004-.22.008-.33.01l-.668.013L23 54c-.113 0-.226 0-.338-.002l-.668-.011a35.17 35.17 0 0 1-.33-.011l-.65-.03-.636-.041a29.802 29.802 0 0 1-.928-.084l-.598-.07c-.197-.026-.39-.053-.582-.082l-.562-.093c-1.477-.262-2.745-.643-3.708-1.13v2.125c0 .353.755.965 2.253 1.479 1.752.6 4.163.95 6.747.95 2.584 0 4.995-.35 6.747-.95 1.414-.485 2.167-1.059 2.246-1.418l.007-.061Zm23-10.572c5.523 0 10 4.478 10 10 0 5.524-4.477 10-10 10s-10-4.476-10-10c0-5.522 4.477-10 10-10Z" clip-rule="evenodd"/><path fill="#000091" d="M61.421 40.093a1 1 0 1 0-.842 1.814C65.064 43.99 68 48.355 68 53.001a1 1 0 0 0 2 0c0-5.444-3.405-10.505-8.579-12.908Z"/></svg>