<svg width="103" height="35" viewBox="0 0 103 35" fill="none" xmlns="http://www.w3.org/2000/svg">
<path d="M32.1865 22V11.66H35.0365V13.12C35.3498 12.6667 35.7698 12.2767 36.2965 11.95C36.8298 11.6233 37.4998 11.46 38.3065 11.46C38.8398 11.46 39.3798 11.6 39.9265 11.88C40.4798 12.16 40.9098 12.5733 41.2165 13.12C41.5498 12.6467 41.9865 12.2533 42.5265 11.94C43.0665 11.62 43.6732 11.46 44.3465 11.46C44.8532 11.46 45.3665 11.5767 45.8865 11.81C46.4132 12.0433 46.8498 12.43 47.1965 12.97C47.5498 13.51 47.7265 14.2467 47.7265 15.18V22H44.7965V15.54C44.7965 14.9133 44.6232 14.4733 44.2765 14.22C43.9298 13.9667 43.5498 13.84 43.1365 13.84C42.8832 13.84 42.6198 13.8933 42.3465 14C42.0798 14.1 41.8532 14.2633 41.6665 14.49C41.4865 14.7167 41.3965 15.0133 41.3965 15.38V22H38.4865V15.28C38.4865 14.8133 38.3065 14.4567 37.9465 14.21C37.5932 13.9633 37.2265 13.84 36.8465 13.84C36.4465 13.84 36.0532 13.9667 35.6665 14.22C35.2865 14.4733 35.0965 14.86 35.0965 15.38V22H32.1865ZM53.0576 22.2C52.0643 22.2 51.2343 21.9267 50.5676 21.38C49.9009 20.8333 49.5676 20.0533 49.5676 19.04C49.5676 17.9067 49.9876 17.0467 50.8276 16.46C51.6743 15.8667 53.0143 15.56 54.8476 15.54L56.1376 15.52V14.9C56.1376 14.4267 55.9976 14.0633 55.7176 13.81C55.4443 13.55 55.0143 13.4233 54.4276 13.43C54.0076 13.4367 53.6043 13.5367 53.2176 13.73C52.8376 13.9233 52.5743 14.26 52.4276 14.74H50.0076C50.0609 13.62 50.5109 12.7933 51.3576 12.26C52.2043 11.7267 53.2743 11.46 54.5676 11.46C56.1476 11.46 57.2709 11.7533 57.9376 12.34C58.6043 12.92 58.9376 13.7167 58.9376 14.73V22H56.4976L56.2576 20.22C55.9043 20.9667 55.4609 21.4833 54.9276 21.77C54.4009 22.0567 53.7776 22.2 53.0576 22.2ZM54.0376 20.28C54.3909 20.28 54.7243 20.2 55.0376 20.04C55.3576 19.8733 55.6209 19.66 55.8276 19.4C56.0343 19.1333 56.1376 18.85 56.1376 18.55V17.02L55.0876 17.04C54.6009 17.0467 54.1476 17.1033 53.7276 17.21C53.3076 17.3167 52.9676 17.4967 52.7076 17.75C52.4543 17.9967 52.3276 18.33 52.3276 18.75C52.3276 19.23 52.4909 19.6067 52.8176 19.88C53.1509 20.1467 53.5576 20.28 54.0376 20.28ZM67.3728 13.69H65.0728L65.0928 19.2C65.0928 19.58 65.1661 19.82 65.3128 19.92C65.4594 20.0133 65.6928 20.06 66.0128 20.06H67.4028V21.86C67.2628 21.92 67.0528 21.9767 66.7728 22.03C66.4928 22.0833 66.0994 22.11 65.5928 22.11C64.6861 22.11 63.9828 21.9933 63.4828 21.76C62.9894 21.5267 62.6461 21.2 62.4528 20.78C62.2594 20.36 62.1628 19.8733 62.1628 19.32V13.69H60.4828V11.66H62.2628L62.9928 8.54H65.0728V11.65H67.3728V13.69ZM73.7845 11.46C74.6645 11.46 75.4178 11.6367 76.0445 11.99C76.6778 12.3433 77.1711 12.82 77.5245 13.42C77.8845 14.0133 78.0911 14.68 78.1445 15.42L75.7145 15.44C75.6478 15.0267 75.4645 14.63 75.1645 14.25C74.8711 13.87 74.4278 13.68 73.8345 13.68C73.1345 13.68 72.5711 13.9433 72.1445 14.47C71.7178 14.99 71.5045 15.78 71.5045 16.84C71.5045 17.86 71.7145 18.6633 72.1345 19.25C72.5545 19.8367 73.1378 20.13 73.8845 20.13C74.2645 20.13 74.5845 20.0367 74.8445 19.85C75.1111 19.6567 75.3145 19.4267 75.4545 19.16C75.6011 18.8867 75.6945 18.63 75.7345 18.39H78.1045C78.0778 19.0767 77.8878 19.71 77.5345 20.29C77.1878 20.87 76.6945 21.3333 76.0545 21.68C75.4211 22.0267 74.6645 22.2 73.7845 22.2C72.8245 22.2 71.9678 21.9867 71.2145 21.56C70.4611 21.1333 69.8678 20.5233 69.4345 19.73C69.0011 18.93 68.7845 17.98 68.7845 16.88C68.7845 15.8067 68.9911 14.8633 69.4045 14.05C69.8178 13.2367 70.3978 12.6033 71.1445 12.15C71.8978 11.69 72.7778 11.46 73.7845 11.46ZM80.1748 22V7.14H83.0748V13.15C83.2348 12.9167 83.4415 12.68 83.6948 12.44C83.9481 12.2 84.2648 12 84.6448 11.84C85.0248 11.68 85.4881 11.6 86.0348 11.6C86.6948 11.6 87.2981 11.73 87.8448 11.99C88.3915 12.2433 88.8281 12.6133 89.1548 13.1C89.4815 13.5867 89.6448 14.18 89.6448 14.88V22H86.7248V15.31C86.7248 14.8433 86.5548 14.4867 86.2148 14.24C85.8748 13.9867 85.4681 13.86 84.9948 13.86C84.5148 13.86 84.0748 13.99 83.6748 14.25C83.2815 14.5033 83.0848 14.8867 83.0848 15.4V22H80.1748ZM94.9717 22.2C93.9783 22.2 93.1483 21.9267 92.4817 21.38C91.815 20.8333 91.4817 20.0533 91.4817 19.04C91.4817 17.9067 91.9017 17.0467 92.7417 16.46C93.5883 15.8667 94.9283 15.56 96.7617 15.54L98.0517 15.52V14.9C98.0517 14.4267 97.9117 14.0633 97.6317 13.81C97.3583 13.55 96.9283 13.4233 96.3417 13.43C95.9217 13.4367 95.5183 13.5367 95.1317 13.73C94.7517 13.9233 94.4883 14.26 94.3417 14.74H91.9217C91.975 13.62 92.425 12.7933 93.2717 12.26C94.1183 11.7267 95.1883 11.46 96.4817 11.46C98.0617 11.46 99.185 11.7533 99.8517 12.34C100.518 12.92 100.852 13.7167 100.852 14.73V22H98.4117L98.1717 20.22C97.8183 20.9667 97.375 21.4833 96.8417 21.77C96.315 22.0567 95.6917 22.2 94.9717 22.2ZM95.9517 20.28C96.305 20.28 96.6383 20.2 96.9517 20.04C97.2717 19.8733 97.535 19.66 97.7417 19.4C97.9483 19.1333 98.0517 18.85 98.0517 18.55V17.02L97.0017 17.04C96.515 17.0467 96.0617 17.1033 95.6417 17.21C95.2217 17.3167 94.8817 17.4967 94.6217 17.75C94.3683 17.9967 94.2417 18.33 94.2417 18.75C94.2417 19.23 94.405 19.6067 94.7317 19.88C95.065 20.1467 95.4717 20.28 95.9517 20.28Z" fill="#161717"/>
<g clip-path="url(#clip0)">
<path d="M7.41982 23.691C7.41982 23.691 7.42502 23.6858 7.44065 23.6806C7.41461 23.5817 6.84707 21.1189 7.44065 18.0469C7.85719 15.8756 8.8621 13.392 11.0542 11.2312C11.8143 10.4814 12.6214 9.86701 13.4389 9.37757C12.0955 3.87399 7.41982 1.0415 7.41982 1.0415C7.41982 1.0415 1.0415 4.90494 1.0415 12.3715C1.0415 19.8276 7.41982 23.691 7.41982 23.691Z" fill="#00FFB0"/>
<path d="M23.92 6.65421C23.7034 6.60318 18.9006 5.52381 14.064 7.8575C12.3083 2.84232 8.14966 0.267044 7.95909 0.151454C7.6269 -0.0500489 7.21088 -0.0484869 6.88024 0.151974C6.5996 0.321716 0 4.41217 0 12.3707C0 20.3236 6.5996 24.4135 6.88076 24.5838C6.99375 24.6525 7.11663 24.6884 7.2416 24.7103C7.46705 24.7608 8.62243 25.0008 10.2865 25.0008C13.0899 25.0008 17.3021 24.3135 20.7995 20.8646C26.5015 15.2418 24.7713 7.74034 24.6947 7.42377C24.6026 7.04159 24.3032 6.74428 23.92 6.65421ZM2.08271 12.3707C2.08271 6.84217 5.97166 3.40101 7.42279 2.30967C8.54798 3.149 11.1222 5.38167 12.2287 8.9176C12.2261 8.91916 12.224 8.92124 12.2214 8.9228C11.9209 9.12899 11.632 9.3508 11.3482 9.5799C11.2774 9.63717 11.2071 9.69549 11.1373 9.75381C10.8572 9.98967 10.5823 10.2323 10.3214 10.49C10.1137 10.6947 9.91944 10.9024 9.73096 11.1117C9.67525 11.1737 9.62162 11.2362 9.56747 11.2987C9.43157 11.4554 9.30036 11.6131 9.17435 11.772C9.12593 11.8329 9.07647 11.8938 9.0296 11.9552C8.86715 12.1677 8.71043 12.3811 8.56516 12.5962C8.55214 12.6155 8.54017 12.6352 8.52715 12.655C8.51049 12.6795 8.49591 12.704 8.47977 12.729V7.94913C8.47977 7.37431 8.01324 6.90778 7.43841 6.90778C6.86306 6.90778 6.39706 7.37431 6.39706 7.94913V10.0428L5.47337 9.14982C5.05891 8.74994 4.39921 8.76087 4.00089 9.17481C3.60049 9.58823 3.61195 10.2474 4.02536 10.6473L6.39706 12.9398V15.0637L5.53377 14.0754C5.15524 13.6422 4.49814 13.598 4.06494 13.9765C3.63173 14.355 3.58747 15.0127 3.96549 15.4459L6.35592 18.1826C6.35384 18.194 6.35176 18.2055 6.35019 18.2169C6.34134 18.27 6.33145 18.3237 6.32312 18.3762C6.2924 18.5731 6.26532 18.7668 6.24293 18.9573C6.23721 19.0042 6.23304 19.05 6.22783 19.0963C6.21169 19.2442 6.19711 19.39 6.18514 19.5342C6.17993 19.5957 6.17525 19.6566 6.17108 19.7175C6.16119 19.8565 6.15338 19.9924 6.14713 20.1268C6.14505 20.1721 6.14192 20.2179 6.14036 20.2621C6.13359 20.434 6.12995 20.6011 6.12891 20.7641C6.12839 20.8115 6.12891 20.8562 6.12891 20.9026C6.12891 21.0229 6.12995 21.14 6.13255 21.2551C6.13307 21.2811 6.13255 21.3092 6.13359 21.3353C4.40806 19.6847 2.08271 16.6653 2.08271 12.3707ZM19.3375 19.3817C15.9551 22.7166 11.6679 23.0087 9.34982 22.8749C10.1985 21.7877 11.5096 20.1872 13.1128 18.4804C13.7209 18.231 15.8021 17.4437 18.3513 17.2177C18.9241 17.1667 19.3474 16.6616 19.2963 16.0884C19.2458 15.5156 18.7522 15.0928 18.167 15.1433C17.4901 15.2032 16.8471 15.2985 16.2472 15.4115C17.3407 14.4373 18.4961 13.51 19.6827 12.7118C20.1601 12.3905 20.2867 11.7438 19.9654 11.2664C19.6452 10.7894 18.9964 10.6624 18.5205 10.9842C16.795 12.1453 15.1481 13.5397 13.6569 14.9627C13.6501 14.7403 13.6381 14.5118 13.6142 14.2723C13.5574 13.7005 13.0544 13.2819 12.4749 13.3392C11.9022 13.3965 11.4851 13.9062 11.5419 14.4784C11.6986 16.0514 11.3388 17.1256 11.205 17.4609C10.0001 18.7668 8.97598 19.9903 8.20016 20.9614C8.20016 20.9448 8.19912 20.9296 8.19912 20.913C8.19912 20.8906 8.19964 20.8666 8.19964 20.8443C8.19964 20.6771 8.20329 20.5043 8.21006 20.3262C8.2111 20.3022 8.2111 20.2788 8.21214 20.2543C8.21995 20.0669 8.23349 19.8727 8.25015 19.6743C8.25327 19.6347 8.25692 19.5952 8.26108 19.5551C8.27983 19.353 8.30274 19.1468 8.33242 18.9355C8.33554 18.9125 8.33971 18.8891 8.34335 18.8662C8.36782 18.697 8.39854 18.5236 8.43082 18.3497C8.45269 18.2778 8.46675 18.2034 8.47248 18.1258C8.51465 17.9175 8.5636 17.7061 8.61827 17.4927C8.62972 17.4484 8.6417 17.4041 8.65368 17.3599C8.71512 17.1318 8.78228 16.9017 8.85934 16.6695C8.86507 16.6512 8.87236 16.633 8.87861 16.6148C8.95306 16.393 9.03689 16.1701 9.12749 15.9462C9.14311 15.9072 9.15821 15.8681 9.17435 15.8286C9.27016 15.5984 9.37586 15.3678 9.49041 15.1366C9.51279 15.0918 9.53622 15.0465 9.55913 15.0017C9.68045 14.7643 9.80958 14.5263 9.95225 14.29C9.95797 14.2806 9.96474 14.2712 9.97047 14.2618C10.11 14.0322 10.2621 13.8042 10.4229 13.5771C10.4521 13.536 10.4802 13.4944 10.5104 13.4532C10.6755 13.2267 10.852 13.0023 11.0405 12.78C11.0759 12.7383 11.1128 12.6967 11.1493 12.655C11.3492 12.4254 11.558 12.1974 11.7845 11.974C12.1157 11.6475 12.465 11.3408 12.8316 11.056C12.8748 11.0222 12.9206 10.992 12.9639 10.9592C13.105 10.8524 13.2466 10.7457 13.3924 10.6457C13.5835 10.5145 13.7777 10.389 13.976 10.2698C13.976 10.2698 13.9771 10.2693 13.9771 10.2688C17.474 8.15324 21.2838 8.37349 22.7859 8.57239C23.0317 10.3687 23.3045 15.4693 19.3375 19.3817Z" fill="#333333"/>
</g>
<path d="M59.056 28.864L57.504 33H56.66L55.104 28.864H56.16L57.064 31.5H57.096L57.988 28.864H59.056ZM60.4446 31.2C60.4419 31.5173 60.5179 31.7693 60.6726 31.956C60.8272 32.1427 61.0446 32.236 61.3246 32.236C61.5246 32.236 61.6966 32.1933 61.8406 32.108C61.9846 32.0227 62.0926 31.8827 62.1646 31.688H63.2166C63.1632 31.9867 63.0432 32.24 62.8566 32.448C62.6699 32.6533 62.4446 32.8107 62.1806 32.92C61.9166 33.0267 61.6406 33.08 61.3526 33.08C60.9419 33.08 60.5819 32.9947 60.2726 32.824C59.9632 32.6507 59.7219 32.4067 59.5486 32.092C59.3752 31.7773 59.2886 31.4067 59.2886 30.98C59.2886 30.5667 59.3672 30.1947 59.5246 29.864C59.6819 29.5307 59.9099 29.268 60.2086 29.076C60.5072 28.8813 60.8686 28.784 61.2926 28.784C61.7139 28.784 62.0672 28.8733 62.3526 29.052C62.6406 29.228 62.8566 29.4747 63.0006 29.792C63.1472 30.1067 63.2206 30.4707 63.2206 30.884V31.2H60.4446ZM60.4406 30.504H62.1286C62.1286 30.2533 62.0592 30.04 61.9206 29.864C61.7819 29.688 61.5726 29.6 61.2926 29.6C61.1112 29.6 60.9566 29.644 60.8286 29.732C60.7032 29.82 60.6072 29.9333 60.5406 30.072C60.4739 30.208 60.4406 30.352 60.4406 30.504ZM64.0471 33V28.864H65.1711V29.844C65.2671 29.5533 65.4297 29.304 65.6591 29.096C65.8884 28.888 66.1884 28.784 66.5591 28.784C66.6017 28.784 66.6271 28.7867 66.6351 28.792V29.908C66.6217 29.9027 66.5977 29.8987 66.5631 29.896C66.2217 29.8667 65.9524 29.888 65.7551 29.96C65.5577 30.0293 65.4177 30.1333 65.3351 30.272C65.2524 30.408 65.2111 30.5627 65.2111 30.736V33H64.0471ZM68.9016 33.08C68.611 33.08 68.3336 33.0333 68.0696 32.94C67.8056 32.844 67.5803 32.6947 67.3936 32.492C67.207 32.2893 67.0896 32.024 67.0416 31.696H68.0536C68.1043 31.9173 68.2163 32.0707 68.3896 32.156C68.5656 32.2387 68.7336 32.28 68.8936 32.28C69.1176 32.28 69.2976 32.2453 69.4336 32.176C69.5723 32.104 69.6416 31.9947 69.6416 31.848C69.6416 31.736 69.6003 31.6467 69.5176 31.58C69.4376 31.5133 69.3043 31.4627 69.1176 31.428L68.3896 31.276C68.0243 31.1987 67.7296 31.068 67.5056 30.884C67.2843 30.6973 67.1723 30.4333 67.1696 30.092C67.167 29.7187 67.3136 29.408 67.6096 29.16C67.9083 28.9093 68.3403 28.784 68.9056 28.784C69.415 28.784 69.8216 28.8973 70.1256 29.124C70.4323 29.348 70.5883 29.6627 70.5936 30.068H69.6176C69.5883 29.908 69.5083 29.7853 69.3776 29.7C69.2496 29.612 69.0883 29.568 68.8936 29.568C68.691 29.568 68.5243 29.604 68.3936 29.676C68.263 29.748 68.1976 29.8573 68.1976 30.004C68.1976 30.1133 68.251 30.2 68.3576 30.264C68.4643 30.3253 68.6296 30.3787 68.8536 30.424L69.5256 30.576C69.8323 30.6507 70.0656 30.76 70.2256 30.904C70.3883 31.048 70.4976 31.2 70.5536 31.36C70.6123 31.5173 70.6416 31.6587 70.6416 31.784C70.6416 32.1973 70.4803 32.5173 70.1576 32.744C69.835 32.968 69.4163 33.08 68.9016 33.08ZM72.6529 27.22V28.272H71.5169V27.22H72.6529ZM72.6449 28.864V33H71.5289V28.864H72.6449ZM75.4949 33.08C75.0896 33.08 74.7363 32.9933 74.4349 32.82C74.1363 32.6467 73.9043 32.4013 73.7389 32.084C73.5736 31.7667 73.4909 31.3907 73.4909 30.956C73.4909 30.5213 73.5723 30.1413 73.7349 29.816C73.9003 29.4907 74.1323 29.2373 74.4309 29.056C74.7323 28.8747 75.0883 28.784 75.4989 28.784C75.9043 28.784 76.2563 28.8733 76.5549 29.052C76.8536 29.2307 77.0843 29.4827 77.2469 29.808C77.4096 30.1307 77.4909 30.5133 77.4909 30.956C77.4909 31.372 77.4123 31.74 77.2549 32.06C77.0976 32.3773 76.8696 32.6267 76.5709 32.808C76.2723 32.9893 75.9136 33.08 75.4949 33.08ZM75.4989 32.212C75.7016 32.212 75.8656 32.152 75.9909 32.032C76.1163 31.912 76.2069 31.7547 76.2629 31.56C76.3216 31.3627 76.3509 31.148 76.3509 30.916C76.3509 30.6973 76.3243 30.492 76.2709 30.3C76.2203 30.1053 76.1323 29.948 76.0069 29.828C75.8843 29.7053 75.7149 29.644 75.4989 29.644C75.2909 29.644 75.1229 29.7013 74.9949 29.816C74.8696 29.9307 74.7776 30.084 74.7189 30.276C74.6629 30.468 74.6349 30.6813 74.6349 30.916C74.6349 31.132 74.6603 31.34 74.7109 31.54C74.7643 31.7373 74.8536 31.8987 74.9789 32.024C75.1069 32.1493 75.2803 32.212 75.4989 32.212ZM78.2814 33V28.864H79.4294V29.448C79.5228 29.2987 79.6641 29.1587 79.8534 29.028C80.0428 28.8947 80.3014 28.828 80.6294 28.828C80.8801 28.828 81.1148 28.8773 81.3334 28.976C81.5548 29.0747 81.7334 29.2307 81.8694 29.444C82.0081 29.6547 82.0774 29.9307 82.0774 30.272V33H80.9054V30.416C80.9054 30.192 80.8388 30.024 80.7054 29.912C80.5721 29.8 80.4108 29.744 80.2214 29.744C80.0268 29.744 79.8481 29.7947 79.6854 29.896C79.5254 29.9973 79.4454 30.1493 79.4454 30.352V33H78.2814ZM87.0346 33.08C86.7626 33.08 86.5386 33.0347 86.3626 32.944C86.1866 32.8507 86.0466 32.7333 85.9426 32.592C85.8386 32.4507 85.7626 32.304 85.7146 32.152L85.5786 33H84.7346V27.056H85.9066V29.424C86.0052 29.248 86.1626 29.0973 86.3786 28.972C86.5972 28.8467 86.8546 28.784 87.1506 28.784C87.6626 28.784 88.0652 28.9693 88.3586 29.34C88.6519 29.7107 88.7986 30.2333 88.7986 30.908C88.7986 31.564 88.6492 32.0907 88.3506 32.488C88.0519 32.8827 87.6132 33.08 87.0346 33.08ZM86.7786 32.24C87.0319 32.24 87.2412 32.1373 87.4066 31.932C87.5719 31.724 87.6546 31.3773 87.6546 30.892C87.6546 30.4627 87.5746 30.1453 87.4146 29.94C87.2572 29.7347 87.0426 29.632 86.7706 29.632C86.1999 29.632 85.9119 30.052 85.9066 30.892C85.9066 31.38 85.9786 31.7267 86.1226 31.932C86.2666 32.1373 86.4852 32.24 86.7786 32.24ZM90.5461 31.2C90.5435 31.5173 90.6195 31.7693 90.7741 31.956C90.9288 32.1427 91.1461 32.236 91.4261 32.236C91.6261 32.236 91.7981 32.1933 91.9421 32.108C92.0861 32.0227 92.1941 31.8827 92.2661 31.688H93.3181C93.2648 31.9867 93.1448 32.24 92.9581 32.448C92.7715 32.6533 92.5461 32.8107 92.2821 32.92C92.0181 33.0267 91.7421 33.08 91.4541 33.08C91.0435 33.08 90.6835 32.9947 90.3741 32.824C90.0648 32.6507 89.8235 32.4067 89.6501 32.092C89.4768 31.7773 89.3901 31.4067 89.3901 30.98C89.3901 30.5667 89.4688 30.1947 89.6261 29.864C89.7835 29.5307 90.0115 29.268 90.3101 29.076C90.6088 28.8813 90.9701 28.784 91.3941 28.784C91.8155 28.784 92.1688 28.8733 92.4541 29.052C92.7421 29.228 92.9581 29.4747 93.1021 29.792C93.2488 30.1067 93.3221 30.4707 93.3221 30.884V31.2H90.5461ZM90.5421 30.504H92.2301C92.2301 30.2533 92.1608 30.04 92.0221 29.864C91.8835 29.688 91.6741 29.6 91.3941 29.6C91.2128 29.6 91.0581 29.644 90.9301 29.732C90.8048 29.82 90.7088 29.9333 90.6421 30.072C90.5755 30.208 90.5421 30.352 90.5421 30.504ZM96.5356 29.676H95.6156L95.6236 31.88C95.6236 32.032 95.653 32.128 95.7116 32.168C95.7703 32.2053 95.8636 32.224 95.9916 32.224H96.5476V32.944C96.4916 32.968 96.4076 32.9907 96.2956 33.012C96.1836 33.0333 96.0263 33.044 95.8236 33.044C95.461 33.044 95.1796 32.9973 94.9796 32.904C94.7823 32.8107 94.645 32.68 94.5676 32.512C94.4903 32.344 94.4516 32.1493 94.4516 31.928V29.676H93.7796V28.864H94.4916L94.7836 27.616H95.6156V28.86H96.5356V29.676ZM98.5908 33.08C98.1935 33.08 97.8615 32.9707 97.5948 32.752C97.3281 32.5333 97.1948 32.2213 97.1948 31.816C97.1948 31.3627 97.3628 31.0187 97.6988 30.784C98.0375 30.5467 98.5735 30.424 99.3068 30.416L99.8228 30.408V30.16C99.8228 29.9707 99.7668 29.8253 99.6548 29.724C99.5455 29.62 99.3735 29.5693 99.1388 29.572C98.9708 29.5747 98.8095 29.6147 98.6548 29.692C98.5028 29.7693 98.3975 29.904 98.3388 30.096H97.3708C97.3921 29.648 97.5721 29.3173 97.9108 29.104C98.2495 28.8907 98.6775 28.784 99.1948 28.784C99.8268 28.784 100.276 28.9013 100.543 29.136C100.809 29.368 100.943 29.6867 100.943 30.092V33H99.9668L99.8708 32.288C99.7295 32.5867 99.5521 32.7933 99.3388 32.908C99.1281 33.0227 98.8788 33.08 98.5908 33.08ZM98.9828 32.312C99.1241 32.312 99.2575 32.28 99.3828 32.216C99.5108 32.1493 99.6161 32.064 99.6988 31.96C99.7815 31.8533 99.8228 31.74 99.8228 31.62V31.008L99.4028 31.016C99.2081 31.0187 99.0268 31.0413 98.8588 31.084C98.6908 31.1267 98.5548 31.1987 98.4508 31.3C98.3495 31.3987 98.2988 31.532 98.2988 31.7C98.2988 31.892 98.3641 32.0427 98.4948 32.152C98.6281 32.2587 98.7908 32.312 98.9828 32.312Z" fill="#161717"/>
<defs>
<clipPath id="clip0">
<rect width="25" height="25" fill="white"/>
</clipPath>
</defs>
</svg>
