<svg width="179" height="66" viewBox="0 0 179 66" fill="none" xmlns="http://www.w3.org/2000/svg">
<g clip-path="url(#clip0_8381_108185)">
<path d="M21.0127 46.341C32.6177 46.341 42.0254 42.498 42.0254 37.7574C42.0254 33.0168 32.6177 29.1738 21.0127 29.1738C9.4077 29.1738 0 33.0168 0 37.7574C0 42.498 9.4077 46.341 21.0127 46.341Z" fill="#A558A0"/>
<path d="M21.0126 0.5C17.1223 0.502689 13.3922 2.0489 10.6418 4.79891C7.89138 7.54891 6.3457 11.2778 6.34436 15.1662C6.34436 24.6985 15.6529 33.835 19.4342 37.1629C19.8718 37.5458 20.4336 37.7568 21.0152 37.7568C21.5968 37.7568 22.1586 37.5458 22.5962 37.1629C26.3927 33.7792 35.686 24.6985 35.686 15.1662C35.6847 11.2769 34.1383 7.54727 31.3868 4.79711C28.6353 2.04696 24.9038 0.501345 21.0126 0.5V0.5ZM21.0126 21.1879C19.6868 21.1869 18.391 20.793 17.2891 20.056C16.1871 19.3191 15.3285 18.2721 14.8219 17.0474C14.3152 15.8228 14.1831 14.4755 14.4424 13.1759C14.7017 11.8763 15.3406 10.6827 16.2785 9.74594C17.2164 8.80922 18.4111 8.17147 19.7115 7.9133C21.012 7.65513 22.3599 7.78814 23.5847 8.29551C24.8095 8.80288 25.8564 9.66183 26.5929 10.7638C27.3294 11.8657 27.7225 13.1612 27.7225 14.4864C27.7232 15.3671 27.55 16.2392 27.213 17.0529C26.876 17.8666 26.3817 18.6059 25.7584 19.2284C25.1351 19.8509 24.3951 20.3444 23.5808 20.6806C22.7664 21.0168 21.8937 21.1892 21.0126 21.1879Z" fill="#161616"/>
<path d="M61.6068 65.3483C61.0823 65.3752 60.5579 65.2931 60.0667 65.1071C59.5756 64.9211 59.1284 64.6352 58.7534 64.2676C58.3785 63.9 58.0839 63.4586 57.8884 62.9714C57.6929 62.4842 57.6006 61.9617 57.6174 61.437C57.6174 59.2657 58.998 57.5257 61.3023 57.5257C61.7346 57.4984 62.1678 57.5621 62.574 57.7124C62.9802 57.8627 63.3504 58.0965 63.6607 58.3985C63.9711 58.7006 64.2147 59.0642 64.3758 59.4661C64.5369 59.868 64.612 60.2992 64.5963 60.7318C64.5991 61.0275 64.565 61.3223 64.4948 61.6095H59.1452C59.2467 63.1923 60.211 64.009 61.6068 64.009C62.0033 64.0184 62.3963 63.9336 62.7537 63.7616C63.111 63.5897 63.4225 63.3354 63.6624 63.0198L64.7435 63.8822C64.3727 64.3558 63.8955 64.7354 63.3505 64.9901C62.8055 65.2449 62.2081 65.3676 61.6068 65.3483ZM59.2162 60.5035H63.1142C63.1132 60.2667 63.064 60.0325 62.9698 59.8151C62.8755 59.5978 62.7381 59.4019 62.5658 59.2392C62.3936 59.0765 62.1901 58.9504 61.9676 58.8687C61.7452 58.7869 61.5085 58.7511 61.2718 58.7635C60.773 58.7419 60.2844 58.909 59.9034 59.2315C59.5224 59.554 59.277 60.0082 59.2162 60.5035Z" fill="black"/>
<path d="M65.4744 65.0599L68.0933 61.3211L65.6469 57.8105H67.3574L69.0678 60.3014L70.7834 57.8105H72.4938L70.0322 61.3211L72.6512 65.0599H70.9559L69.0272 62.3306L67.1594 65.0599H65.4744Z" fill="black"/>
<path d="M78.3813 54.9941H80.4674L83.2589 59.7121L86.0809 54.9941H88.167V65.0591H86.5124V57.2669L83.8782 61.6094H82.6702L80.0258 57.2364V65.0591H78.3813V54.9941Z" fill="black"/>
<path d="M90.4003 63.1767C90.4003 62.086 91.2479 61.2946 92.7858 61.0308L95.1307 60.6452V60.2698C95.1319 60.0673 95.0902 59.8668 95.0084 59.6815C94.9266 59.4962 94.8065 59.3303 94.6559 59.1947C94.5054 59.0591 94.3279 58.9569 94.135 58.8947C93.9422 58.8326 93.7384 58.8119 93.5369 58.8341C93.1775 58.828 92.8222 58.9115 92.5031 59.0771C92.1841 59.2428 91.9114 59.4853 91.7098 59.7828L90.5982 58.9356C90.947 58.4809 91.3992 58.1158 91.9174 57.8705C92.4355 57.6253 93.0046 57.5069 93.5775 57.5253C95.5367 57.5253 96.6229 58.6769 96.6229 60.2698V65.0588H95.1408V64.2471C94.8502 64.5719 94.4932 64.8306 94.0939 65.0057C93.6946 65.1807 93.2623 65.268 92.8264 65.2617C91.3595 65.2617 90.4003 64.4551 90.4003 63.1767ZM93.0903 64.0695C93.4974 64.0772 93.8993 63.9776 94.2557 63.7808C94.6121 63.584 94.9103 63.2969 95.1205 62.9484V61.7106L93.1664 62.0403C92.2579 62.1976 91.8874 62.5882 91.8874 63.1361C91.8874 63.684 92.3391 64.0695 93.0903 64.0695Z" fill="black"/>
<path d="M99.3636 59.1758H97.9983V57.8365H99.3636V56.0254H100.861V57.8365H103.262V59.1758H100.861V62.5696C100.861 63.5487 101.368 63.8633 102.186 63.8633C102.551 63.8787 102.916 63.8253 103.262 63.706V65.0148C102.844 65.1747 102.399 65.2489 101.952 65.233C100.257 65.233 99.3636 64.3401 99.3636 62.5696V59.1758Z" fill="black"/>
<path d="M110.169 62.99L111.337 63.8828C110.981 64.3505 110.52 64.7272 109.991 64.9821C109.461 65.2369 108.879 65.3627 108.292 65.3489C107.778 65.3489 107.269 65.2478 106.794 65.0512C106.319 64.8546 105.888 64.5665 105.524 64.2033C105.161 63.8401 104.873 63.409 104.676 62.9344C104.48 62.4599 104.378 61.9513 104.378 61.4376C104.378 60.924 104.48 60.4154 104.676 59.9408C104.873 59.4663 105.161 59.0351 105.524 58.6719C105.888 58.3087 106.319 58.0206 106.794 57.824C107.269 57.6275 107.778 57.5263 108.292 57.5263C108.879 57.5134 109.461 57.6395 109.99 57.8943C110.519 58.1491 110.981 58.5253 111.337 58.9924L110.169 59.8853C109.955 59.5832 109.67 59.3378 109.339 59.1699C109.008 59.002 108.642 58.9167 108.271 58.9214C107.659 58.9993 107.095 59.2978 106.687 59.761C106.279 60.2243 106.054 60.8203 106.054 61.4376C106.054 62.0549 106.279 62.651 106.687 63.1142C107.095 63.5774 107.659 63.8759 108.271 63.9538C108.642 63.9594 109.009 63.8745 109.34 63.7065C109.67 63.5386 109.955 63.2926 110.169 62.99Z" fill="black"/>
<path d="M112.89 54.2734H114.372V58.5145C114.663 58.1962 115.019 57.9434 115.415 57.7729C115.812 57.6023 116.24 57.5179 116.671 57.5253C118.285 57.5253 119.493 58.6008 119.493 60.701V65.0588H117.97V60.7619C117.97 59.6103 117.341 58.9204 116.301 58.9204C115.892 58.9313 115.494 59.0533 115.15 59.2731C114.806 59.493 114.528 59.8025 114.347 60.1683V65.0588H112.865L112.89 54.2734Z" fill="black"/>
<path d="M121.381 63.1767C121.381 62.086 122.229 61.2946 123.767 61.0308L126.112 60.6452V60.2698C126.113 60.0673 126.071 59.8668 125.989 59.6815C125.908 59.4962 125.788 59.3303 125.637 59.1947C125.487 59.0591 125.309 58.9569 125.116 58.8947C124.923 58.8326 124.719 58.8119 124.518 58.8341C124.159 58.828 123.803 58.9115 123.484 59.0771C123.165 59.2428 122.892 59.4853 122.691 59.7828L121.579 58.9356C121.928 58.4809 122.38 58.1158 122.898 57.8705C123.417 57.6253 123.986 57.5069 124.559 57.5253C126.518 57.5253 127.604 58.6769 127.604 60.2698V65.0588H126.122V64.2471C125.831 64.5719 125.474 64.8306 125.075 65.0057C124.676 65.1807 124.243 65.268 123.807 65.2617C122.356 65.2617 121.381 64.4551 121.381 63.1767ZM124.071 64.0695C124.478 64.0767 124.88 63.9769 125.236 63.7801C125.593 63.5834 125.891 63.2966 126.102 62.9484V61.7106L124.148 62.0403C123.239 62.1976 122.863 62.5882 122.863 63.1361C122.863 63.684 123.335 64.0695 124.071 64.0695Z" fill="black"/>
<path d="M57.6276 3.29492H61.0535V17.0581H67.4639V20.1628H57.6276V3.29492Z" fill="#161616"/>
<path d="M69.9509 16.8868C69.9509 15.0554 71.3721 13.6857 73.9758 13.2494L77.686 12.6254V12.3109C77.686 11.0325 76.7217 10.2157 75.3259 10.2157C74.7847 10.2131 74.2511 10.3436 73.7723 10.5957C73.2934 10.8479 72.884 11.2139 72.58 11.6615L70.3417 9.94685C70.932 9.16738 71.7014 8.54145 72.5849 8.12202C73.4683 7.70258 74.4398 7.50197 75.4173 7.53715C78.9346 7.53715 80.7466 9.63739 80.7466 12.3109V20.164H77.7013V18.987C77.2349 19.481 76.6701 19.8717 76.0432 20.1339C75.4164 20.396 74.7415 20.5238 74.0621 20.5089C71.6106 20.5292 69.9509 19.1291 69.9509 16.8868ZM74.6762 18.0942C75.2759 18.1155 75.8704 17.9774 76.3992 17.694C76.928 17.4106 77.372 16.992 77.686 16.4809V14.7662L74.793 15.2482C73.519 15.4663 72.9861 15.999 72.9861 16.7701C72.9861 17.5412 73.6358 18.0942 74.6762 18.0942Z" fill="#161616"/>
<path d="M97.6024 20.6459C96.904 20.6783 96.2065 20.5646 95.5545 20.3122C94.9025 20.0597 94.3104 19.674 93.8161 19.1798V20.164H90.7708V2.09375H93.8161V9.00832C94.3102 8.51343 94.9021 8.12698 95.554 7.87366C96.206 7.62035 96.9036 7.50573 97.6024 7.53713C101.46 7.53713 103.774 10.5505 103.774 14.0915C103.774 17.6325 101.46 20.6459 97.6024 20.6459ZM93.8161 12.1688V16.0244C94.1885 16.5667 94.6891 17.0088 95.2735 17.3115C95.8578 17.6141 96.5078 17.7679 97.1659 17.7593C99.2418 17.7593 100.592 16.2374 100.592 14.0966C100.592 11.9558 99.2418 10.4338 97.1659 10.4338C96.5065 10.4174 95.8536 10.5679 95.268 10.8712C94.6823 11.1745 94.1829 11.6209 93.8161 12.1688Z" fill="#161616"/>
<path d="M119.011 14.0902C119.011 15.8541 118.31 17.5458 117.062 18.793C115.814 20.0403 114.122 20.741 112.357 20.741C110.592 20.741 108.9 20.0403 107.652 18.793C106.404 17.5458 105.703 15.8541 105.703 14.0902C105.703 12.3263 106.404 10.6347 107.652 9.38742C108.9 8.14016 110.592 7.43945 112.357 7.43945C114.122 7.43945 115.814 8.14016 117.062 9.38742C118.31 10.6347 119.011 12.3263 119.011 14.0902ZM115.829 14.0902C115.829 11.9697 114.357 10.4275 112.403 10.4275C111.927 10.422 111.455 10.5141 111.016 10.6981C110.577 10.8822 110.18 11.1542 109.85 11.4975C109.521 11.8408 109.265 12.2479 109.099 12.6939C108.933 13.1398 108.86 13.6151 108.885 14.0902C108.861 14.565 108.934 15.0396 109.101 15.485C109.267 15.9303 109.523 16.3369 109.852 16.6796C110.182 17.0223 110.578 17.2939 111.017 17.4777C111.456 17.6614 111.927 17.7534 112.403 17.7479C114.357 17.7479 115.829 16.1905 115.829 14.0902Z" fill="#161616"/>
<path d="M121.813 8.01812H124.858V8.98199C125.329 8.51137 125.89 8.14069 126.507 7.89223C127.125 7.64377 127.786 7.52266 128.452 7.53618C131.076 7.53618 133.177 9.34725 133.177 12.9339V20.163H130.091V13.0607C130.091 11.4475 129.172 10.4329 127.68 10.4329C127.089 10.4475 126.514 10.6236 126.017 10.942C125.519 11.2604 125.118 11.7089 124.858 12.2389V20.163H121.813V8.01812Z" fill="#161616"/>
<path d="M136.659 8.01803H139.704V8.98191C140.175 8.51176 140.736 8.14139 141.353 7.89296C141.971 7.64453 142.632 7.52316 143.297 7.53609C145.922 7.53609 148.023 9.34717 148.023 12.9338V20.1629H144.937V13.0606C144.937 11.4474 144.018 10.4328 142.526 10.4328C141.935 10.4479 141.359 10.6247 140.862 10.944C140.364 11.2634 139.964 11.7129 139.704 12.2439V20.1629H136.659V8.01803Z" fill="#161616"/>
<path d="M157.392 20.6459C153.073 20.6459 150.642 17.6376 150.642 14.0915C150.642 10.5454 152.905 7.53711 156.885 7.53711C160.26 7.53711 162.468 9.83013 162.468 13.0109C162.467 13.5862 162.402 14.1595 162.275 14.7206H153.789C154.078 16.9831 155.479 17.9014 157.382 17.9014C157.981 17.9163 158.575 17.7937 159.119 17.5431C159.662 17.2924 160.141 16.9204 160.519 16.4555L162.711 18.1905C162.082 18.9907 161.272 19.6304 160.347 20.0572C159.422 20.4839 158.41 20.6857 157.392 20.6459ZM153.87 12.529H159.453C159.446 12.1932 159.373 11.8621 159.238 11.5549C159.102 11.2476 158.907 10.9703 158.663 10.7391C158.419 10.5078 158.132 10.3272 157.818 10.2078C157.504 10.0883 157.17 10.0324 156.834 10.0432C155.245 10.0432 154.21 10.9107 153.87 12.5036V12.529Z" fill="#161616"/>
<path d="M56.3029 41.2364C56.3029 39.405 57.7291 38.0353 60.3278 37.599L64.043 36.975V36.6605C64.043 35.3821 63.0787 34.5653 61.6829 34.5653C61.1407 34.5614 60.606 34.6913 60.1261 34.9436C59.6462 35.1958 59.2361 35.5625 58.932 36.0111L56.6886 34.2965C57.2789 33.517 58.0483 32.8911 58.9317 32.4716C59.8152 32.0522 60.7867 31.8516 61.7641 31.8868C65.2865 31.8868 67.0934 33.987 67.0934 36.6605V44.5136H64.0481V43.3366C63.5818 43.8306 63.0169 44.2213 62.3901 44.4835C61.7632 44.7456 61.0883 44.8734 60.409 44.8586C57.9676 44.8788 56.3029 43.4787 56.3029 41.2364ZM61.0282 42.4438C61.6285 42.465 62.2237 42.3269 62.7532 42.0435C63.2828 41.7601 63.7278 41.3416 64.043 40.8305V39.1159L61.15 39.5978C59.871 39.8159 59.3431 40.3486 59.3431 41.1197C59.3431 41.8908 59.9928 42.4438 61.0282 42.4438Z" fill="#161616"/>
<path d="M70.6006 26.4434H73.6459V44.5136H70.6006V26.4434Z" fill="#161616"/>
<path d="M78.0972 35.1176H75.8335V32.3681H78.0972V29.3242H81.2085V32.3681H84.9238V35.1176H81.2085V40.0689C81.2085 41.4184 81.9343 41.951 83.1372 41.951C83.7509 41.9803 84.3644 41.8908 84.9441 41.6872V44.3607C84.2015 44.6514 83.406 44.7828 82.6093 44.7463C79.564 44.7463 78.1226 43.0367 78.1226 40.0689L78.0972 35.1176Z" fill="#161616"/>
<path d="M93.2883 44.9955C88.969 44.9955 86.5378 41.9872 86.5378 38.4411C86.5378 34.895 88.8218 31.8867 92.7807 31.8867C96.156 31.8867 98.3638 34.1797 98.3638 37.3605C98.3628 37.9358 98.2981 38.5091 98.171 39.0702H89.6694C89.9587 41.3327 91.3596 42.251 93.2629 42.251C93.861 42.2667 94.4546 42.1444 94.9977 41.8937C95.5408 41.6429 96.0188 41.2704 96.3945 40.8051L98.5922 42.5401C97.964 43.3379 97.1561 43.976 96.2345 44.4027C95.3128 44.8294 94.3034 45.0325 93.2883 44.9955ZM89.7659 36.8786H95.349C95.3392 36.5424 95.2626 36.2114 95.1237 35.905C94.9847 35.5986 94.7862 35.3229 94.5396 35.094C94.2931 34.865 94.0034 34.6873 93.6875 34.5713C93.3716 34.4553 93.0358 34.4032 92.6995 34.4182C91.1413 34.3928 90.1059 35.2603 89.7659 36.8532V36.8786Z" fill="#161616"/>
<path d="M101.363 32.3693H104.409V33.5767C104.814 33.1262 105.308 32.7649 105.86 32.516C106.412 32.267 107.011 32.1359 107.616 32.1309C107.977 32.1297 108.335 32.1862 108.677 32.2983V35.3117C108.236 35.198 107.783 35.1417 107.327 35.1443C106.744 35.1283 106.167 35.2667 105.654 35.5456C105.142 35.8244 104.712 36.2338 104.409 36.7321V44.5142H101.363V32.3693Z" fill="#161616"/>
<path d="M111.154 32.3696H114.199V33.3335C114.669 32.8635 115.229 32.4931 115.846 32.2447C116.463 31.9963 117.123 31.8748 117.788 31.8876C120.417 31.8876 122.513 33.6987 122.513 37.2854V44.5145H119.427V37.4122C119.427 35.799 118.514 34.7844 117.016 34.7844C116.426 34.7988 115.852 34.9748 115.355 35.2933C114.858 35.6117 114.458 36.0604 114.199 36.5904V44.5145H111.154V32.3696Z" fill="#161616"/>
<path d="M125.325 41.2364C125.325 39.405 126.751 38.0353 129.355 37.599L133.065 36.975V36.6605C133.065 35.3821 132.101 34.5653 130.705 34.5653C130.163 34.5614 129.628 34.6913 129.148 34.9436C128.668 35.1958 128.258 35.5625 127.954 36.0111L125.711 34.2965C126.301 33.517 127.07 32.8911 127.954 32.4716C128.837 32.0522 129.809 31.8516 130.786 31.8868C134.309 31.8868 136.116 33.987 136.116 36.6605V44.5136H133.07V43.3366C132.604 43.8306 132.039 44.2213 131.412 44.4835C130.785 44.7456 130.11 44.8734 129.431 44.8586C126.99 44.8788 125.325 43.4787 125.325 41.2364ZM130.05 42.4438C130.651 42.465 131.246 42.3269 131.775 42.0435C132.305 41.7601 132.75 41.3416 133.065 40.8305V39.1159L130.172 39.5978C128.893 39.8159 128.365 40.3486 128.365 41.1197C128.365 41.8908 129.015 42.4438 130.05 42.4438Z" fill="#161616"/>
<path d="M139.623 32.3696H142.668V33.3335C143.139 32.8633 143.7 32.493 144.317 32.2445C144.935 31.9961 145.596 31.8747 146.262 31.8877C148.891 31.8877 150.987 33.6987 150.987 37.2854V44.5145H147.901V37.4122C147.901 35.799 146.982 34.7844 145.49 34.7844C144.899 34.7995 144.323 34.9763 143.826 35.2956C143.328 35.6149 142.928 36.0645 142.668 36.5954V44.5145H139.623V32.3696Z" fill="#161616"/>
<path d="M163.056 40.7092L165.442 42.5405C164.84 43.3251 164.061 43.9564 163.168 44.3831C162.275 44.8098 161.295 45.0197 160.306 44.9959C156.113 44.9959 153.606 41.9876 153.606 38.4415C153.606 34.8955 156.113 31.8871 160.306 31.8871C161.299 31.8598 162.284 32.0687 163.18 32.4964C164.077 32.9242 164.859 33.5586 165.462 34.3476L163.077 36.1789C162.764 35.7312 162.345 35.3686 161.856 35.1241C161.368 34.8795 160.826 34.7608 160.28 34.7788C158.28 34.7788 156.808 36.3007 156.808 38.4415C156.808 40.5823 158.28 42.1043 160.326 42.1043C160.861 42.1145 161.39 41.9924 161.866 41.7491C162.343 41.5057 162.751 41.1485 163.056 40.7092Z" fill="#161616"/>
<path d="M173.131 44.9955C168.817 44.9955 166.386 41.9872 166.386 38.4411C166.386 34.895 168.65 31.8867 172.629 31.8867C176.004 31.8867 178.212 34.1797 178.212 37.3605C178.211 37.9358 178.146 38.5091 178.019 39.0702H169.523C169.812 41.3327 171.213 42.251 173.116 42.251C173.714 42.2667 174.308 42.1444 174.851 41.8937C175.394 41.6429 175.872 41.2704 176.248 40.8051L178.445 42.5401C177.816 43.339 177.006 43.9778 176.083 44.4045C175.159 44.8312 174.148 45.0337 173.131 44.9955ZM169.614 36.8786H175.197C175.191 36.542 175.117 36.21 174.981 35.9021C174.845 35.5941 174.648 35.3163 174.404 35.085C174.159 34.8536 173.871 34.6732 173.555 34.5544C173.24 34.4355 172.905 34.3806 172.568 34.3928C170.989 34.3928 169.949 35.2603 169.614 36.8532V36.8786Z" fill="#161616"/>
</g>
<defs>
<clipPath id="clip0_8381_108185">
<rect width="178.75" height="65" fill="white" transform="translate(0 0.5)"/>
</clipPath>
</defs>
</svg>
