<svg width="101" height="101" viewBox="0 0 101 101" fill="none" xmlns="http://www.w3.org/2000/svg">
<g clip-path="url(#clip0)">
<path d="M29.9749 95.7114C29.9749 95.7114 29.996 95.6903 30.0591 95.6693C29.9539 95.2696 27.661 85.3199 30.0591 72.909C31.7419 64.1372 35.8017 54.1033 44.6577 45.3736C47.7288 42.3445 50.9893 39.8623 54.2919 37.885C48.8647 15.6505 29.9749 4.20728 29.9749 4.20728C29.9749 4.20728 4.20654 19.8156 4.20654 49.9804C4.20654 80.1031 29.9749 95.7114 29.9749 95.7114Z" fill="#00FFB0"/>
<path d="M96.6367 26.88C95.7616 26.6739 76.3585 22.3133 56.8187 31.7413C49.7256 11.48 32.9246 1.07589 32.1547 0.608904C30.8127 -0.205166 29.1319 -0.198856 27.7962 0.611008C26.6624 1.29676 0 17.8222 0 49.9748C0 82.1043 26.6624 98.6277 27.7983 99.3155C28.2548 99.5932 28.7512 99.7383 29.256 99.8267C30.1669 100.031 34.8346 101 41.5575 101C52.883 101 69.9007 98.2238 84.0301 84.2899C107.066 61.5738 100.076 31.268 99.7667 29.9891C99.3944 28.4451 98.1849 27.244 96.6367 26.88ZM8.41416 49.9748C8.41416 27.6394 24.1255 13.7371 29.9881 9.32809C34.5338 12.719 44.9337 21.739 49.4038 36.0241C49.3932 36.0304 49.3848 36.0389 49.3743 36.0452C48.1606 36.8782 46.9931 37.7743 45.8467 38.6998C45.5606 38.9312 45.2766 39.1668 44.9947 39.4024C43.863 40.3553 42.7524 41.3356 41.6985 42.3768C40.8592 43.2035 40.0746 44.0428 39.3131 44.8885C39.088 45.1388 38.8713 45.3912 38.6526 45.6436C38.1035 46.2768 37.5734 46.9142 37.0644 47.5558C36.8688 47.8019 36.6689 48.048 36.4796 48.2962C35.8233 49.1544 35.1901 50.0169 34.6032 50.8857C34.5507 50.9635 34.5023 51.0434 34.4497 51.1234C34.3824 51.2222 34.3235 51.3211 34.2583 51.4221V32.1116C34.2583 29.7892 32.3735 27.9045 30.0512 27.9045C27.7268 27.9045 25.8441 29.7892 25.8441 32.1116V40.5699L22.1124 36.9623C20.438 35.3468 17.7728 35.391 16.1636 37.0633C14.546 38.7335 14.5923 41.3966 16.2625 43.0121L25.8441 52.274V60.8543L22.3564 56.8618C20.8272 55.1117 18.1725 54.9329 16.4223 56.4622C14.6722 57.9914 14.4934 60.6482 16.0206 62.3983L25.6779 73.4546C25.6695 73.5008 25.6611 73.5471 25.6548 73.5934C25.619 73.808 25.5791 74.0246 25.5454 74.2371C25.4213 75.0322 25.3119 75.8147 25.2215 76.5846C25.1983 76.774 25.1815 76.9591 25.1604 77.1463C25.0952 77.7437 25.0363 78.3327 24.988 78.9154C24.9669 79.1636 24.948 79.4097 24.9312 79.6558C24.8912 80.2175 24.8596 80.7665 24.8344 81.3092C24.826 81.4922 24.8134 81.6773 24.8071 81.8561C24.7797 82.5503 24.765 83.2255 24.7608 83.8839C24.7587 84.0754 24.7608 84.2563 24.7608 84.4435C24.7608 84.9294 24.765 85.4027 24.7755 85.8676C24.7776 85.9727 24.7755 86.0863 24.7797 86.1915C17.8086 79.5233 8.41416 67.3248 8.41416 49.9748ZM78.1234 78.299C64.4588 91.7722 47.1382 92.9523 37.7733 92.4117C41.2021 88.0195 46.4988 81.5532 52.9756 74.6578C55.4325 73.6502 63.8404 70.4696 74.1393 69.5567C76.4532 69.3506 78.1634 67.3101 77.9572 64.9941C77.7532 62.6802 75.759 60.9721 73.3946 61.1762C70.66 61.4181 68.0622 61.803 65.6389 62.2595C70.0563 58.3238 74.7241 54.5774 79.518 51.3526C81.447 50.0548 81.9582 47.4422 80.6603 45.5132C79.3666 43.5864 76.7456 43.0731 74.8229 44.3731C67.8518 49.064 61.1983 54.6973 55.1738 60.4463C55.1464 59.548 55.098 58.6246 55.0013 57.657C54.772 55.3473 52.74 53.656 50.3987 53.8874C48.0848 54.1188 46.3999 56.1782 46.6292 58.49C47.2624 64.8448 45.8088 69.1844 45.2682 70.5391C40.4006 75.8147 36.2629 80.7581 33.1287 84.6812C33.1287 84.6139 33.1245 84.5529 33.1245 84.4855C33.1245 84.3951 33.1266 84.2983 33.1266 84.2079C33.1266 83.5326 33.1413 82.8343 33.1686 82.1149C33.1728 82.0181 33.1728 81.9234 33.177 81.8246C33.2086 81.0673 33.2633 80.2827 33.3306 79.4812C33.3432 79.3214 33.3579 79.1615 33.3748 78.9995C33.4505 78.1833 33.5431 77.3503 33.663 76.4963C33.6756 76.4037 33.6924 76.3091 33.7071 76.2165C33.806 75.5329 33.9301 74.8324 34.0605 74.1298C34.1489 73.8395 34.2057 73.5387 34.2288 73.2253C34.3992 72.3839 34.5969 71.5298 34.8178 70.6674C34.8641 70.4886 34.9125 70.3098 34.9608 70.131C35.2091 69.2096 35.4804 68.2799 35.7917 67.3417C35.8149 67.2681 35.8443 67.1944 35.8696 67.1208C36.1704 66.2247 36.5091 65.3244 36.8751 64.4199C36.9382 64.2621 36.9992 64.1043 37.0644 63.9445C37.4514 63.0147 37.8785 62.0828 38.3412 61.1488C38.4317 60.9679 38.5263 60.7849 38.6189 60.604C39.109 59.6448 39.6307 58.6835 40.2071 57.7285C40.2302 57.6906 40.2576 57.6528 40.2807 57.6149C40.8444 56.6872 41.4587 55.7659 42.1087 54.8487C42.2265 54.6826 42.3401 54.5143 42.4621 54.3481C43.1289 53.433 43.842 52.5264 44.6035 51.6282C44.7465 51.4599 44.8959 51.2916 45.0431 51.1234C45.8509 50.1957 46.6944 49.2743 47.6094 48.3719C48.9473 47.053 50.3588 45.814 51.8397 44.6634C52.0142 44.5267 52.1994 44.4046 52.374 44.2721C52.944 43.8409 53.5162 43.4097 54.1052 43.0058C54.8772 42.4757 55.6618 41.9687 56.4632 41.487L56.4653 41.4849C56.4653 41.4849 56.4674 41.4849 56.4674 41.4828C70.5948 32.9361 85.9864 33.8259 92.0551 34.6295C93.048 41.8867 94.1503 62.493 78.1234 78.299Z" fill="#333333"/>
</g>
<defs>
<clipPath id="clip0">
<rect width="101" height="101" fill="white"/>
</clipPath>
</defs>
</svg>
