<svg width="173" height="66" viewBox="0 0 173 66" fill="none" xmlns="http://www.w3.org/2000/svg">
<rect x="0.5" y="0.5" width="171.714" height="65" fill="white"/>
<rect x="0.5" y="0.5" width="171.714" height="65" stroke="#E3E3FD"/>
<path d="M55.9871 25.1263H53.8551L53.3371 25.7773C53.2461 25.8683 53.2761 25.9653 53.3671 25.9953L54.0671 26.3033L56.0471 25.3793C56.0745 25.3662 56.0966 25.3441 56.1097 25.3167C56.1229 25.2893 56.1262 25.2582 56.1192 25.2286C56.1122 25.199 56.0952 25.1727 56.0712 25.1541C56.0471 25.1355 56.0174 25.1257 55.9871 25.1263Z" fill="#4A835B"/>
<path d="M51.7714 26.287C52.0018 26.0559 52.0013 25.6817 51.7702 25.4512C51.5391 25.2207 51.1649 25.2212 50.9344 25.4523C50.7039 25.6834 50.7044 26.0576 50.9356 26.2881C51.1667 26.5186 51.5409 26.5181 51.7714 26.287Z" fill="white"/>
<path d="M48.0731 35.5883H45.4491C44.8615 35.9211 44.2494 36.2086 43.6181 36.4483C43.5531 36.4763 43.5271 36.4893 43.5581 36.5793L45.9031 43.0853H47.1841L45.0351 37.1573H45.0931C46.4931 37.1573 49.8341 36.8083 51.6421 33.8873C51.2279 34.437 50.6871 34.8786 50.0658 35.1747C49.4445 35.4709 48.7609 35.6127 48.0731 35.5883ZM48.4451 31.6973C48.5891 31.4793 48.7261 31.2383 48.8561 31.0123C48.7961 30.9803 48.7421 30.9423 48.6821 31.0053C47.7715 32.0494 46.6395 32.8774 45.3685 33.4288C44.0976 33.9803 42.7197 34.2415 41.3351 34.1933H38.2511C38.1581 34.1933 38.0811 34.1093 38.1511 34.0183C40.1821 31.2494 42.5222 28.7211 45.1261 26.4823L39.9601 30.8263C39.5303 31.2045 38.9756 31.4101 38.4031 31.4033H31.9031C31.7191 31.4033 31.7801 31.5363 31.8101 31.6273C32.061 32.4296 32.5723 33.1253 33.2631 33.6042C33.9539 34.0831 34.7848 34.3179 35.6241 34.2713L34.1031 35.8623C34.0431 35.9223 34.0431 36.1113 34.1941 36.1113H39.9941C41.6675 36.1897 43.3317 35.8223 44.8166 35.0465C46.3014 34.2708 47.5536 33.1157 48.4451 31.6973ZM46.7301 38.2553L48.4681 43.0853H49.7511L47.9151 37.9853C47.5268 38.1026 47.1308 38.1928 46.7301 38.2553ZM56.0031 25.1263H53.8671L53.3491 25.7743C53.2581 25.8673 53.2891 25.9613 53.3791 25.9913L54.0791 26.2973L56.0611 25.3783C56.0887 25.3657 56.1112 25.3439 56.1246 25.3166C56.138 25.2894 56.1416 25.2583 56.1348 25.2287C56.128 25.1991 56.1112 25.1727 56.0872 25.1541C56.0632 25.1354 56.0335 25.1256 56.0031 25.1263ZM51.7711 26.2873C51.6883 26.3695 51.583 26.4254 51.4684 26.4478C51.3539 26.4702 51.2353 26.4583 51.1276 26.4134C51.0199 26.3685 50.9278 26.2928 50.8631 26.1957C50.7983 26.0986 50.7638 25.9845 50.7638 25.8678C50.7638 25.7511 50.7983 25.6371 50.8631 25.54C50.9278 25.4429 51.0199 25.3671 51.1276 25.3223C51.2353 25.2774 51.3539 25.2654 51.4684 25.2879C51.583 25.3103 51.6883 25.3661 51.7711 25.4483C51.5711 25.2502 51.3007 25.1395 51.0192 25.1405C50.7377 25.1415 50.4681 25.2541 50.2695 25.4536C50.071 25.6531 49.9596 25.9232 49.9599 26.2047C49.9603 26.4862 50.0722 26.7561 50.2713 26.9551C50.4703 27.1542 50.7402 27.2662 51.0217 27.2665C51.3032 27.2668 51.5733 27.1555 51.7729 26.9569C51.9724 26.7583 52.085 26.4887 52.0859 26.2072C52.0869 25.9257 51.9762 25.6553 51.7781 25.4553C51.8871 25.5668 51.9475 25.7169 51.9462 25.8728C51.9449 26.0287 51.8819 26.1777 51.7711 26.2873Z" fill="#00985F"/>
<path d="M51.7446 26.1956C51.9394 26.0007 51.9394 25.6848 51.7446 25.4899C51.5497 25.295 51.2338 25.295 51.0389 25.4899C50.844 25.6848 50.844 26.0007 51.0389 26.1956C51.2338 26.3905 51.5497 26.3905 51.7446 26.1956Z" fill="white"/>
<path d="M51.64 33.8873C52.884 31.5215 53.7095 28.9584 54.08 26.3113L53.38 26.0013C53.289 25.9713 53.259 25.8773 53.35 25.7843L53.868 25.1413C53.5203 24.6137 53.0442 24.1831 52.4845 23.89C51.9248 23.5968 51.2997 23.4507 50.668 23.4653C49.7092 23.4527 48.7687 23.7279 47.968 24.2553C46.9798 24.9526 46.0295 25.702 45.121 26.5003C42.5169 28.7325 40.1766 31.2552 38.146 34.0193C38.081 34.1103 38.158 34.1943 38.246 34.1943H41.335C42.7211 34.2405 44.1 33.9772 45.3715 33.4237C46.6431 32.8702 47.7753 32.0403 48.686 30.9943C48.7068 30.9691 48.7365 30.9529 48.769 30.9492C48.8014 30.9454 48.8341 30.9545 48.86 30.9743C48.8886 30.9957 48.9085 31.0268 48.9158 31.0618C48.9232 31.0968 48.9176 31.1332 48.9 31.1643C48.2155 32.9481 47.016 34.4881 45.454 35.5883H48.078C48.7647 35.6116 49.4469 35.4692 50.0669 35.1731C50.6869 34.877 51.2265 34.436 51.64 33.8873ZM50.266 26.9573C50.1165 26.8088 50.0145 26.6192 49.9729 26.4126C49.9313 26.2061 49.952 25.9918 50.0324 25.797C50.1127 25.6022 50.2491 25.4356 50.4242 25.3184C50.5993 25.2012 50.8053 25.1386 51.016 25.1386C51.2267 25.1386 51.4327 25.2012 51.6078 25.3184C51.7829 25.4356 51.9193 25.6022 51.9996 25.797C52.08 25.9918 52.1007 26.2061 52.0591 26.4126C52.0175 26.6192 51.9155 26.8088 51.766 26.9573C51.5666 27.1549 51.2972 27.2657 51.0165 27.2657C50.7358 27.2657 50.4654 27.1549 50.266 26.9573ZM52.722 34.5333C51.8581 35.9152 50.578 36.9873 49.066 37.5953L51.035 43.0853H56.765C55.619 39.7723 54.392 36.5163 53.235 33.5623C53.079 33.8833 52.906 34.2363 52.722 34.5333ZM31.5 43.0853H37.3L39.176 37.3313H33.517C32.876 39.0753 32.197 40.9933 31.5 43.0853ZM39.135 29.8013L42.482 27.0243C43.035 25.5323 43.604 24.0553 44.199 22.7813C44.499 23.4603 44.778 24.1463 45.073 24.8693C46.365 23.8023 47.213 23.2263 47.255 23.1983L47.274 23.1883C47.8013 22.834 48.3806 22.5641 48.991 22.3883C48.229 20.7223 47.691 19.5463 47.432 19.0233H40.935C40.394 20.2443 38.375 24.4293 36.013 30.0083H38.403C38.6644 30.0346 38.9261 29.9607 39.135 29.8013Z" fill="#E0001A"/>
<path d="M63.982 39.7093C63.6891 39.7465 63.3917 39.7177 63.1114 39.625C62.8311 39.5323 62.5751 39.3782 62.362 39.1738C62.149 38.9694 61.9844 38.7199 61.8802 38.4437C61.7761 38.1675 61.735 37.8715 61.76 37.5773V28.6133H57.052V38.2133C57.052 41.7463 58.628 43.4833 61.952 43.4833" fill="#E0001A"/>
<path d="M66.293 38.6753C65.6824 39.2995 64.8528 39.6614 63.98 39.6843C63.6864 39.7213 63.3883 39.6921 63.1075 39.5988C62.8267 39.5055 62.5704 39.3505 62.3574 39.1451C62.1443 38.9398 61.98 38.6893 61.8765 38.4121C61.7729 38.1349 61.7328 37.8381 61.759 37.5433V28.4433H57.052V38.1903C57.052 41.7383 58.615 43.4813 61.952 43.4813C62.8713 43.55 63.7941 43.4083 64.6505 43.0669C65.5068 42.7256 66.274 42.1936 66.894 41.5113L67.186 43.0893H71.004V28.4393H66.293V38.6753ZM81.254 39.4083C78.899 39.4083 77.674 37.9413 77.674 35.7083C77.674 33.5683 78.898 32.2523 81.223 32.2523C82.3415 32.233 83.4396 32.5527 84.373 33.1693L85.047 29.1613C83.4782 28.4691 81.7751 28.1347 80.061 28.1823C75.32 28.1823 72.719 30.9053 72.719 35.8913C72.719 40.9073 75.166 43.4773 79.939 43.4773C81.8259 43.5049 83.6889 43.0524 85.353 42.1623L84.68 38.4303C83.638 39.0382 82.4599 39.3745 81.254 39.4083ZM95.844 28.1823C94.319 28.0928 92.8102 28.5361 91.576 29.4363V23.0363H86.693V43.0853H91.575V32.9853C91.8597 32.6771 92.2032 32.4289 92.5854 32.2556C92.9675 32.0823 93.3805 31.9874 93.8 31.9763C94.0894 31.9407 94.3832 31.9716 94.6588 32.0667C94.9345 32.1618 95.1848 32.3186 95.3907 32.5251C95.5966 32.7316 95.7527 32.9823 95.847 33.2583C95.9413 33.5342 95.9714 33.828 95.935 34.1173V43.0853H100.817V33.4743C100.817 29.9263 99.178 28.1823 95.844 28.1823ZM127.963 28.1823C127.044 28.1037 126.119 28.2338 125.258 28.5628C124.396 28.8918 123.62 29.4113 122.987 30.0823L122.661 28.4363H118.776V43.0853H123.658V32.9853C123.943 32.6771 124.286 32.4289 124.668 32.2556C125.051 32.0823 125.464 31.9874 125.883 31.9763C126.172 31.9409 126.466 31.9719 126.742 32.0671C127.017 32.1623 127.267 32.319 127.473 32.5255C127.679 32.732 127.835 32.9827 127.929 33.2585C128.023 33.5344 128.053 33.8281 128.017 34.1173V43.0853H132.899V33.4743C132.899 29.9263 131.266 28.1823 127.963 28.1823ZM102.471 36.3823C102.471 41.3383 104.306 43.4823 107.856 43.4823C108.711 43.5532 109.569 43.4102 110.355 43.0663C111.141 42.7224 111.828 42.1883 112.356 41.5123L112.601 43.0903H116.514V29.0993C114.353 28.4239 112.094 28.114 109.831 28.1823C105.084 28.1823 102.471 31.0883 102.471 36.3813V36.3823ZM111.627 38.6763C111.334 38.9967 110.978 39.252 110.58 39.4258C110.183 39.5996 109.753 39.688 109.319 39.6853C108.035 39.6853 107.324 38.4923 107.324 36.1983C107.324 33.3843 108.1 31.9773 109.624 31.9773C110.297 31.9623 110.969 32.0342 111.624 32.1913L111.627 38.6763Z" fill="#E0001A"/>
</svg>
