<svg width="173" height="66" viewBox="0 0 173 66" fill="none" xmlns="http://www.w3.org/2000/svg">
<rect x="0.5" y="0.5" width="171.714" height="65" fill="white"/>
<rect x="0.5" y="0.5" width="171.714" height="65" stroke="#E3E3FD"/>
<path d="M53.624 28.3223C58.9628 28.3223 62.6521 32.0269 62.6523 36.8613V36.9102C62.6523 41.7455 58.963 45.5 53.624 45.5H46.9902V35.1436H50.7363V42.0889H53.624C56.6824 42.0888 58.7441 40.0029 58.7441 36.96V36.9102C58.7441 33.8673 56.6823 31.7325 53.624 31.7324H46.9902V28.3223H53.624ZM80.5029 45.5H76.5967L75.0439 41.6768H67.8594L66.3066 45.5H62.4971L69.7773 28.3301H73.2227L80.5029 45.5ZM113.246 31.6885H104.146V35.1719H112.154V38.5332H104.146V42.1387H113.367V45.5H100.434V28.3281H113.246V31.6885ZM124.585 28.3281C126.743 28.3282 128.417 28.9413 129.534 30.0693C130.481 31.0256 130.99 32.3749 130.99 33.9951V34.043C130.99 36.8144 129.511 38.5576 127.351 39.3672L131.5 45.5H127.132L123.492 40.0049H120.556V45.5H116.818V28.3281H124.585ZM85.9668 35.1162H92.8584V28.3281H96.5957V45.4854H92.8584V38.5986H85.9668V45.4854H82.2305V28.3281H85.9668V35.1162ZM69.1943 38.3643H73.708L71.4521 32.835L69.1943 38.3643ZM120.556 36.6689H124.341C126.161 36.6689 127.205 35.6872 127.205 34.2402V34.1904C127.205 32.5721 126.089 31.7384 124.269 31.7383H120.556V36.6689Z" fill="#2E186A"/>
<path d="M43.2451 31.7334H39.5V28.3232H43.2451V31.7334ZM43.2451 21.5V24.9102H39.5V21.5H43.2451ZM50.7363 24.9102H46.9912V21.5H50.7363V24.9102Z" fill="#ED153E"/>
</svg>
