<svg width="173" height="66" viewBox="0 0 173 66" fill="none" xmlns="http://www.w3.org/2000/svg">
<rect x="0.5" y="0.5" width="171.714" height="65" fill="white"/>
<rect x="0.5" y="0.5" width="171.714" height="65" stroke="#E3E3FD"/>
<path fill-rule="evenodd" clip-rule="evenodd" d="M57.5451 39.8785H67.7906V36.6042H61.4532V33.858H67.1041V30.7949H61.4532V28.0487H67.7906V24.7743H57.5451V39.8785ZM80.5183 33.3827C79.0396 35.7592 77.6136 36.7098 75.7124 36.7098C73.2831 36.7098 71.9099 35.0198 71.9099 32.0624C71.9099 29.2633 73.1774 27.8902 75.1843 27.8902C76.5046 27.8902 77.5608 28.4712 77.9305 30.4252H81.8386C81.4161 26.7284 79.0396 24.4047 75.2371 24.4047C70.8537 24.4047 67.9491 27.5206 67.9491 32.2736C67.9491 37.0795 70.8537 40.1954 75.6068 40.1954C78.7227 40.1954 80.8352 38.8751 82.2083 37.1323H87.5423V39.8785H91.3975V24.7215H85.9579L80.5183 33.3827ZM87.5423 34.122H84.1095L87.5423 28.524V34.122ZM49.2008 24.7215H43.4972V39.8785H49.2008C53.7427 39.8785 56.6473 36.9211 56.6473 32.2736C56.6473 27.6262 53.7427 24.7215 49.2008 24.7215ZM49.148 36.6042H47.4052V27.9959H49.148C51.4189 27.9959 52.6864 29.5802 52.6864 32.2736C52.6864 35.0198 51.4189 36.6042 49.148 36.6042ZM136.235 24.4047C131.64 24.4047 128.577 27.5206 128.577 32.2736C128.577 37.0267 131.64 40.1426 136.235 40.1426C140.829 40.1426 143.893 37.0267 143.893 32.2736C143.893 27.5206 140.829 24.4047 136.235 24.4047ZM136.235 36.7098C133.964 36.7098 132.538 35.1783 132.538 32.3264C132.538 29.4746 133.964 27.9431 136.235 27.9431C138.506 27.9431 139.932 29.4746 139.932 32.3264C139.932 35.1783 138.506 36.7098 136.235 36.7098ZM92.401 27.9959H96.2034V39.8785H100.112V27.9959H103.914V24.7215H92.3482V27.9959H92.401ZM153.874 24.7215V33.0658L148.857 24.7215H144.79V39.8785H148.54V31.2174L153.768 39.9313H157.624V24.7215H153.874ZM123.032 24.7215H119.124V39.8785H128.894V36.6042H123.032V24.7215ZM114.107 30.5308H108.825V24.7215H104.97V39.8785H108.878V33.8052H114.159V39.9313H118.068V24.7215H114.159L114.107 30.5308ZM32.5123 21.5C24.0624 21.5 13.5 30.2668 13.5 37.5548C13.5 41.3045 16.4047 43.2057 20.2071 43.2057C23.0061 43.2057 26.3861 42.2023 29.6604 40.1954V25.6721C28.8155 27.1509 24.6961 33.1714 21.4218 36.3401C19.7318 37.9773 18.4115 38.6639 17.3025 38.6639C16.035 38.6639 15.4012 37.8189 15.4012 36.4986C15.4012 30.6365 25.2771 22.9787 31.8257 22.9787C34.5191 22.9787 36.2619 24.1934 36.2619 26.5171C36.2619 28.6296 34.836 31.323 32.3538 33.8052V38.2942C36.6844 34.9142 39.2194 30.5308 39.2194 27.0452C39.1666 23.4012 36.3147 21.5 32.5123 21.5Z" fill="#3643BA"/>
</svg>
