<svg width="173" height="66" viewBox="0 0 173 66" fill="none" xmlns="http://www.w3.org/2000/svg">
<rect x="0.5" y="0.5" width="171.714" height="65" fill="white"/>
<rect x="0.5" y="0.5" width="171.714" height="65" stroke="#E3E3FD"/>
<path d="M51.6289 33.5186C58.2198 33.5186 60.4745 37.3121 60.4746 39.8174C60.4746 41.4007 59.8016 42.168 58.4385 42.168C56.3739 42.1622 52.2108 42.1279 50.5723 42.1279C49.4284 42.1221 49.0022 41.4699 49.002 40.8975C49.002 40.1731 49.5334 39.6368 50.5273 39.5996C52.2764 39.5338 54.3802 39.4681 55.502 39.3994C56.7174 39.3278 56.8905 38.4429 56.2715 37.793C55.269 36.7539 53.3406 36.2331 50.876 36.4307C48.5219 36.6226 45.54 37.9428 45.54 41.1865C45.5404 45.481 52.4272 46.8749 58.4473 45.5693C59.3018 45.3833 59.873 45.6497 60.0576 46.3623C60.2649 47.1554 59.6252 47.6687 58.9209 47.9121C51.4837 50.4944 41.3379 48.3725 41.3379 41.4209C41.3379 36.5192 45.6655 33.5186 51.6289 33.5186ZM121.461 33.5186C128.052 33.5186 130.304 37.3121 130.304 39.8174C130.304 41.4007 129.633 42.168 128.268 42.168C126.203 42.1622 122.043 42.1279 120.404 42.1279C119.26 42.1221 118.834 41.4699 118.834 40.8975C118.834 40.1731 119.365 39.6368 120.359 39.5996C122.109 39.5338 124.213 39.4681 125.332 39.3994C126.55 39.3276 126.723 38.4428 126.104 37.793C125.104 36.7539 123.175 36.2331 120.708 36.4307C118.357 36.6226 115.373 37.9428 115.373 41.1865C115.373 45.481 122.262 46.8749 128.279 45.5693C129.134 45.3833 129.705 45.6497 129.887 46.3623C130.094 47.1553 129.455 47.6687 128.751 47.9121C121.317 50.4947 111.17 48.3727 111.17 41.4209C111.17 36.5192 115.498 33.5186 121.461 33.5186ZM93.3193 33.5098C95.276 33.4836 97.2274 33.7192 99.123 34.209C100.168 34.4867 100.689 35.002 100.476 35.8037C100.277 36.5594 99.4811 36.7053 98.6719 36.5908C89.474 35.2767 86.376 38.366 86.376 41.1719C86.376 44.1553 89.9938 46.0391 93.2822 46.0391C95.7951 46.039 98.2199 45.1833 99.2168 43.8779C99.7137 43.2252 99.6943 42.4632 98.2266 42.3887C97.1362 42.3314 94.7733 42.2194 92.9189 42.1221C91.701 42.0591 91.3488 41.4012 91.3486 40.8916C91.3486 40.3047 91.6752 39.5947 92.9814 39.5947C95.6735 39.589 99.8821 39.5537 101.245 39.5537C102.673 39.5538 103.522 40.1985 103.517 41.8789C103.517 45.183 100.163 48.9629 93.2764 48.9629C87.1086 48.9629 82.1622 46.4602 82.1621 41.3066C82.1621 36.4908 87.1259 33.5098 93.3193 33.5098ZM109.285 38.0039C109.322 38.0114 109.357 38.0287 109.386 38.0537C109.414 38.0789 109.437 38.1113 109.449 38.1475C109.462 38.1835 109.464 38.2222 109.457 38.2598C109.284 41.9819 108.938 45.7186 108.818 46.9326C108.691 48.3784 107.978 48.748 107.242 48.748C106.507 48.7479 105.783 48.3523 105.655 46.9209C105.556 45.8184 105.201 42.6744 105.067 38.8838C105.067 38.8291 105.085 38.776 105.119 38.7334C105.153 38.6906 105.202 38.6607 105.255 38.6494L109.174 38.0107C109.21 37.9988 109.248 37.9965 109.285 38.0039ZM64.7002 33.8652C65.2596 33.8639 65.8009 34.067 66.2227 34.4375L74.4121 41.458C74.9289 41.9104 75.5373 42.2546 76.0371 42.0312C76.5367 41.8079 76.5735 41.2661 76.6416 40.7451C76.7552 39.8802 77.2688 36.4702 77.3994 35.4854C77.5159 34.595 77.9736 33.8682 78.8652 33.8682C79.6233 33.8683 80.2566 34.4233 80.2539 35.4365V46.374C80.2539 48.4582 79.0215 48.745 78.3428 48.7451C78.0372 48.7608 77.7316 48.7123 77.4453 48.6035C77.1591 48.4947 76.8979 48.3275 76.6787 48.1123C76.6787 48.1123 69.7892 41.8338 68.9541 41.1035C68.1192 40.3734 67.5712 40.0296 66.9834 40.2129C66.3334 40.4162 66.2286 40.9486 66.1094 41.627C66.0157 42.211 65.1631 47.4424 65.1631 47.4424C65.139 47.8023 64.9775 48.1391 64.7129 48.3818C64.4483 48.6244 64.1007 48.7548 63.7432 48.7451C63.5639 48.7458 63.3865 48.7089 63.2217 48.6377C63.0568 48.5664 62.9074 48.4625 62.7842 48.3311C62.6609 48.1996 62.5661 48.0431 62.5049 47.873C62.4438 47.7031 62.4178 47.5222 62.4287 47.3418V36.3613C62.4289 34.5895 63.5418 33.8653 64.7002 33.8652ZM107.254 33.5098C107.561 33.4903 107.869 33.5365 108.157 33.6445C108.446 33.7526 108.709 33.9207 108.929 34.1377C109.149 34.3547 109.321 34.6159 109.435 34.9043C109.548 35.1927 109.6 35.5024 109.588 35.8125C109.571 35.9072 109.571 36.1044 109.571 36.2988C109.569 36.3539 109.548 36.407 109.512 36.4482C109.475 36.4894 109.426 36.5168 109.372 36.5254L105.283 37.1953C105.25 37.2014 105.215 37.1997 105.182 37.1914C105.148 37.183 105.117 37.1679 105.09 37.1465C105.063 37.1251 105.041 37.0979 105.025 37.0674C105.01 37.0368 105.001 37.0031 104.999 36.9688C104.973 36.4107 104.953 35.9642 104.953 35.8008C104.938 35.4935 104.987 35.1862 105.098 34.8994C105.208 34.6126 105.378 34.352 105.595 34.1357C105.812 33.9196 106.072 33.7524 106.357 33.6445C106.643 33.5367 106.949 33.4904 107.254 33.5098ZM85.8135 16.5C103.142 16.5 118.982 21.4448 131.125 29.6191C119.05 25.5706 104.931 23.0596 85.8135 23.0596C66.6965 23.0596 52.5774 25.5706 40.5 29.6191C52.6427 21.4448 68.4855 16.5 85.8135 16.5Z" fill="#00AAFF"/>
</svg>
