<?xml version="1.0" encoding="UTF-8"?>
<svg id="Calque_1" xmlns="http://www.w3.org/2000/svg" version="1.1" viewBox="0 0 172 66">
  <!-- Generator: Adobe Illustrator 30.5.1, SVG Export Plug-In . SVG Version: 2.1.4 Build 3)  -->
  <defs>
    <style>
      .st0 {
        fill: none;
        stroke: #e3e3fd;
      }

      .st1 {
        fill: #ffde17;
      }

      .st2 {
        fill: #293068;
      }

      .st3 {
        fill: #a2d3f3;
      }

      .st4 {
        fill: #5488c7;
      }
    </style>
  </defs>
  <rect class="st0" x=".5" y=".5" width="171" height="65"/>
  <g>
    <path class="st2" d="M117.1,40.5c0-1.7.7-3.3,1.9-4.5,1.2-1.2,2.8-1.9,4.5-1.9s3.3.7,4.5,1.9,1.9,2.8,1.9,4.5-.7,3.3-1.9,4.5-2.8,1.9-4.5,1.9-2.5-.4-3.6-1.1v4.7h-2.8v-10ZM119.9,40.5c0,1,.4,1.9,1.1,2.5.7.6,1.6,1.1,2.5,1.1s1.9-.4,2.5-1.1c.7-.7,1.1-1.6,1.1-2.5s-.4-1.9-1.1-2.5c-.7-.7-1.6-1.1-2.5-1.1s-1.9.4-2.5,1.1c-.6.7-1.1,1.6-1.1,2.5Z"/>
    <path class="st2" d="M70.2,36.1c-1.2-1.2-2.8-1.9-4.5-1.9s-3.3.7-4.5,1.9l-1.9,2c0-2.1-1-4.1-2.5-5.6s-3.7-2.5-6-2.5-4.4.9-6,2.5c-1.6,1.6-2.7,3.7-2.7,6s.9,4.4,2.5,6c1.6,1.6,3.7,2.5,6,2.5s4.4-.9,6-2.5l2.6-2.6v8.7h2.8v-4.7c1.1.7,2.3,1.1,3.6,1.1s3.3-.7,4.5-1.9c1.2-1.2,1.9-2.8,1.9-4.5s-.7-3.3-1.9-4.5M46.6,42.5c-1.1-1.1-1.7-2.5-1.7-4s.6-3,1.7-4c1.1-1.1,2.5-1.7,4-1.7s3,.6,4,1.7c1.1,1.1,1.7,2.5,1.7,4s-.6,2.9-1.7,4-2.5,1.7-4,1.7-3-.6-4-1.7ZM68.2,43.1c-.7.7-1.6,1.1-2.5,1.1s-1.9-.4-2.5-1.1c-.6-.7-1.1-1.6-1.1-2.5s.4-1.9,1-2.5c.7-.7,1.6-1.1,2.5-1.1s1.9.4,2.5,1.1c.7.7,1.1,1.6,1.1,2.5s-.4,1.9-1.1,2.5"/>
    <path class="st2" d="M110.9,44.1c-1,0-1.9-.4-2.5-1.1-.3-.3-.6-.7-.8-1.1h7l2.6-2.6c-.2-1.2-.8-2.4-1.8-3.3-1.2-1.2-2.8-1.9-4.5-1.9s-3.3.7-4.5,1.9c-1.2,1.2-1.9,2.8-1.9,4.5s.7,3.3,1.9,4.5c1.2,1.2,2.8,1.9,4.5,1.9s3.3-.7,4.5-1.9l-2-2c-.7.7-1.6,1.1-2.5,1.1ZM108.3,38c.7-.7,1.6-1.1,2.5-1.1s1.9.4,2.5,1.1c.3.3.6.7.8,1.1h-6.6c.2-.4.4-.8.8-1.1Z"/>
    <path class="st1" d="M73.9,15.5h-7.1v7.1h7.1v-7.1Z"/>
    <path class="st4" d="M59.3,20.9h-5.4v5.4h5.4v-5.4Z"/>
    <path class="st3" d="M67.7,25.9h-4.1v4.1h4.1v-4.1Z"/>
    <path class="st2" d="M97.2,36c-1.2-1.2-2.8-1.9-4.5-1.9s-3.3.7-4.5,1.9l-7,7.1c-.7.7-1.6,1.1-2.5,1.1s-1.9-.4-2.5-1.1c-.7-.7-1.1-1.6-1.1-2.5s.4-1.9,1.1-2.5c.7-.7,1.6-1.1,2.5-1.1s1.9.4,2.5,1.1c0,.1.2.3.4.4l2-2c-.1-.1-.2-.3-.4-.4-1.2-1.2-2.8-1.9-4.5-1.9s-3.3.7-4.5,1.9c-1.2,1.2-1.9,2.8-1.9,4.5s.7,3.3,1.9,4.5c1.2,1.2,2.8,1.9,4.5,1.9s3.3-.7,4.5-1.9l3.3-3.3c.2,1.2.8,2.4,1.8,3.3,1,.9,2.8,1.9,4.5,1.9s3.3-.7,4.5-1.9c1.2-1.2,1.9-2.8,1.9-4.5s-.7-3.3-1.9-4.5M95.2,43c-.7.7-1.6,1.1-2.5,1.1s-1.9-.4-2.5-1.1c-.7-.7-1.1-1.6-1.1-2.5s.4-1.9,1-2.5c.7-.7,1.6-1.1,2.5-1.1s1.9.4,2.5,1.1c.7.7,1.1,1.6,1.1,2.5s-.4,1.9-1.1,2.5"/>
  </g>
</svg>