<svg width="172" height="66" viewBox="0 0 172 66" fill="none" xmlns="http://www.w3.org/2000/svg">
<rect x="0.5" y="0.5" width="171" height="65" fill="white"/>
<rect x="0.5" y="0.5" width="171" height="65" stroke="#E3E3FD"/>
<g clip-path="url(#clip0_22115_43121)">
<path d="M68.4001 42.5999C68.4001 44.6999 66.7001 46.5 64.5001 46.5C62.4001 46.5 60.6001 44.7999 60.6001 42.5999C60.6001 40.4999 62.3001 38.7 64.5001 38.7C66.7001 38.8 68.4001 40.4999 68.4001 42.5999Z" fill="#283276"/>
<path d="M43.0002 28.2C43.0002 30.3 41.3002 32.1 39.1002 32.1C36.9002 32.1 35.2002 30.4 35.2002 28.2C35.2002 26.1 36.9002 24.3 39.1002 24.3C41.3002 24.3 43.0002 26.1 43.0002 28.2Z" fill="#F29FC5"/>
<path d="M61.2 38.4C61.2 40.5 59.5 42.3 57.3 42.3C55.1 42.3 53.5 40.5 53.5 38.4C53.5 36.3 55.2 34.5 57.4 34.5C59.6 34.5 61.2 36.3 61.2 38.4Z" fill="#008ECF"/>
<path d="M51.8 43.0999C51.8 45.1999 50.1 47 47.9 47C45.7 47 44 45.2999 44 43.0999C44 40.9999 45.7 39.2 47.9 39.2C50.1 39.2 51.8 40.8999 51.8 43.0999Z" fill="#F29FC5"/>
<path d="M51.8 52.0999C51.8 54.1999 50.1 56 47.9 56C45.8 56 44 54.2999 44 52.0999C44 49.9999 45.7 48.2 47.9 48.2C50.1 48.3 51.8 49.9999 51.8 52.0999Z" fill="#283276"/>
<path d="M68.4001 23.4C68.4001 25.5 66.7001 27.3 64.5001 27.3C62.4001 27.3 60.6001 25.6 60.6001 23.4C60.6001 21.3 62.3001 19.5 64.5001 19.5C66.7001 19.6 68.4001 21.3 68.4001 23.4Z" fill="#283276"/>
<path d="M61.2 28.2C61.2 30.3 59.5 32.1 57.3 32.1C55.1 32.1 53.5 30.4 53.5 28.2C53.5 26.1 55.2 24.3 57.4 24.3C59.6 24.3 61.2 26.1 61.2 28.2Z" fill="#283276"/>
<path d="M42.5002 38.7001C42.5002 40.8001 40.8002 42.6 38.6002 42.6C36.4002 42.6 34.7002 40.9001 34.7002 38.7001C34.7002 36.6001 36.4002 34.8 38.6002 34.8C40.8002 34.8 42.5002 36.6001 42.5002 38.7001Z" fill="#283276"/>
<path d="M35.1001 22.6C35.6001 24.7 34.3001 26.7 32.2001 27.2C30.1001 27.7 28.1001 26.4 27.6001 24.3C27.2001 22.2 28.5001 20.1 30.5001 19.7C32.6001 19.2 34.7001 20.5 35.1001 22.6Z" fill="#283276"/>
<path d="M34.8 30.9C34.6 32.1 33.5 32.9 32.3 32.8C31.1 32.6 30.3 31.5 30.4 30.3C30.6 29.1 31.7 28.3 32.9 28.4C34.1 28.6 34.9 29.7 34.8 30.9Z" fill="#E1000F"/>
<path d="M56.8998 46.8001C56.6998 48.2001 55.3998 49.1001 53.9998 48.9001C52.5998 48.7001 51.6998 47.4001 51.8998 46.0001C52.0998 44.6001 53.3998 43.7001 54.7998 43.9001C56.0998 44.1001 56.9998 45.4001 56.8998 46.8001Z" fill="#E1000F"/>
<path d="M64.3 30.8C64.2 31.6 63.4 32.2 62.6 32.1C61.8 32 61.2 31.2 61.3 30.4C61.4 29.6 62.2 29 63 29.1C63.9 29.2 64.4 30 64.3 30.8Z" fill="#E1000F"/>
<path d="M49.3 23.6999C49.1 24.8999 48 25.6999 46.8 25.5999C45.6 25.3999 44.8 24.3 44.9 23.0999C45.1 21.8999 46.2 21.0999 47.4 21.1999C48.7 21.3999 49.5 22.4999 49.3 23.6999Z" fill="#E1000F"/>
<path d="M55.5998 20.8C55.3998 22 54.2998 22.8 53.0998 22.7C51.8998 22.5 51.0998 21.4 51.1998 20.2C51.3998 19 52.4998 18.2 53.6998 18.3C54.9998 18.5 55.7998 19.6 55.5998 20.8Z" fill="#F29FC5"/>
<path d="M41.4001 44.9C41.2001 46.1 40.1001 46.9 38.9001 46.8C37.7001 46.6 36.9001 45.5 37.0001 44.3C37.2001 43.1 38.3001 42.3 39.5001 42.4C40.7001 42.6 41.5001 43.8 41.4001 44.9Z" fill="#FFE000"/>
<path d="M62.9001 35.1C62.7001 36.3 61.6001 37.1 60.4001 37C59.2001 36.8 58.4001 35.7 58.5001 34.5C58.7001 33.3 59.8001 32.5 61.0001 32.6C62.3001 32.8 63.1001 33.9 62.9001 35.1Z" fill="#FFE000"/>
<path d="M60.3999 45.3001C60.9999 46.3001 60.6999 47.7001 59.6999 48.3001C58.6999 48.9001 57.2999 48.6001 56.6999 47.6001C56.0999 46.6001 56.3999 45.2001 57.3999 44.6001C58.3999 43.9001 59.7999 44.3001 60.3999 45.3001Z" fill="#283276"/>
<path d="M43.6999 19.5C43.4999 20.7 42.3999 21.5 41.1999 21.4C39.9999 21.2 39.1999 20.1 39.2999 18.9C39.4999 17.7 40.5999 16.9 41.7999 17C42.9999 17.2 43.7999 18.3 43.6999 19.5Z" fill="#FFE000"/>
<path d="M52 14C52 16.2 50.2 18 48 18C45.8 18 44 16.2 44 14C44 11.8 45.8 10 48 10C50.2 10 52 11.8 52 14Z" fill="#008ECF"/>
<path d="M35.2 42.5999C35.2 44.6999 33.5 46.5 31.3 46.5C29.1 46.5 27.5 44.6999 27.5 42.5999C27.5 40.4999 29.2 38.7 31.4 38.7C33.6 38.7 35.2 40.4999 35.2 42.5999Z" fill="#008ECF"/>
<path d="M54.1998 32.2C54.1998 35.9 51.1998 38.9 47.4998 38.9C43.7998 38.9 40.7998 35.9 40.7998 32.2C40.7998 28.5 43.7998 25.5 47.4998 25.5C51.1998 25.5 54.1998 28.5 54.1998 32.2Z" fill="#008ECF"/>
<path d="M77.5 18.9H84.3V20.6H79.5V24.1H83.6V25.8H79.5V31.1H77.5V18.9Z" fill="#283276"/>
<path d="M85.8999 22.4H87.6999V23.4C88.2999 22.7 89.0999 22.2 90.1999 22.2C90.4999 22.2 90.6999 22.3 90.9999 22.3V24.1C90.6999 24 90.3999 24 90.0999 24C88.9999 24 88.2999 24.6 87.7999 25.3V31.2H85.9999V22.4H85.8999Z" fill="#283276"/>
<path d="M91.8999 28.9C91.8999 27.6 92.8999 26.6 94.7999 26.3L97.5999 25.8V25.3C97.5999 24.2 96.7999 23.6 95.6999 23.6C94.6999 23.6 93.9999 24 93.4999 24.7L92.1999 23.7C92.9999 22.7 94.1999 22 95.7999 22C98.1999 22 99.4999 23.4 99.4999 25.3V31.1H97.6999V30.1C97.0999 30.9 95.9999 31.4 94.8999 31.4C93.0999 31.4 91.8999 30.4 91.8999 28.9ZM95.1999 29.9C96.2999 29.9 97.1999 29.4 97.6999 28.5V27L95.2999 27.4C94.1999 27.6 93.6999 28.1 93.6999 28.7C93.7999 29.5 94.2999 29.9 95.1999 29.9Z" fill="#283276"/>
<path d="M102 22.4H103.8V23.3C104.5 22.6 105.3 22.1 106.6 22.1C108.5 22.1 110 23.4 110 25.9V31.2H108.2V26C108.2 24.6 107.4 23.8 106.2 23.8C105 23.8 104.3 24.5 103.8 25.3V31.2H102V22.4Z" fill="#283276"/>
<path d="M119.2 28.6L120.6 29.7C119.8 30.8 118.5 31.5 116.9 31.5C114 31.5 112.1 29.3 112.1 26.8C112.1 24.3 113.9 22.1 116.9 22.1C118.5 22.1 119.8 22.8 120.6 23.9L119.2 25C118.7 24.3 117.9 23.8 116.9 23.8C115.2 23.8 114 25.1 114 26.8C114 28.5 115.2 29.8 116.9 29.8C117.9 29.8 118.7 29.3 119.2 28.6Z" fill="#283276"/>
<path d="M126.5 31.5C123.5 31.5 121.7 29.3 121.7 26.8C121.7 24.2 123.4 22.1 126.2 22.1C128.6 22.1 130.2 23.8 130.2 26C130.2 26.4 130.1 26.8 130.1 27.1H123.5C123.6 29 124.8 30 126.5 30C127.6 30 128.5 29.5 129 28.8L130.3 29.8C129.5 30.8 128.2 31.5 126.5 31.5ZM123.6 25.6H128.3C128.3 24.5 127.5 23.5 126.1 23.5C124.8 23.5 123.9 24.3 123.6 25.6Z" fill="#283276"/>
<path d="M76.2002 34.6H86.0002V36.4H82.1002V46.8H80.1002V36.4H76.2002V34.6Z" fill="#283276"/>
<path d="M86.8999 38H88.6999V39C89.2999 38.3 90.0999 37.8 91.1999 37.8C91.4999 37.8 91.6999 37.9 91.9999 37.9V39.7001C91.6999 39.6001 91.3999 39.6 91.0999 39.6C89.9999 39.6 89.2999 40.2 88.7999 40.9V46.8H86.9999V38H86.8999Z" fill="#283276"/>
<path d="M92.8999 44.5C92.8999 43.2 93.8999 42.2 95.7999 41.9L98.5999 41.4V41C98.5999 39.9 97.7999 39.2999 96.6999 39.2999C95.6999 39.2999 94.9999 39.7 94.4999 40.4L93.1999 39.4C93.9999 38.4 95.1999 37.7 96.7999 37.7C99.1999 37.7 100.5 39.1 100.5 41V46.7999H98.6999V45.7999C98.0999 46.5999 96.9999 47.0999 95.8999 47.0999C94.0999 47.0999 92.8999 46.1 92.8999 44.5ZM96.1999 45.5999C97.2999 45.5999 98.1999 45.1 98.6999 44.2V42.7L96.2999 43.0999C95.1999 43.2999 94.6999 43.8 94.6999 44.4C94.6999 45.1 95.2999 45.5999 96.1999 45.5999Z" fill="#283276"/>
<path d="M103.8 38L106.4 44.8L109 38H110.9L107.6 46.8H105.2L101.9 38H103.8Z" fill="#283276"/>
<path d="M111.9 44.5C111.9 43.2 112.9 42.2 114.8 41.9L117.6 41.4V41C117.6 39.9 116.8 39.2999 115.7 39.2999C114.7 39.2999 114 39.7 113.5 40.4L112.2 39.4C113 38.4 114.2 37.7 115.8 37.7C118.2 37.7 119.5 39.1 119.5 41V46.7999H117.7V45.7999C117.1 46.5999 116 47.0999 114.9 47.0999C113 47.0999 111.9 46.1 111.9 44.5ZM115.1 45.5999C116.2 45.5999 117.1 45.1 117.6 44.2V42.7L115.2 43.0999C114.1 43.2999 113.6 43.8 113.6 44.4C113.7 45.1 114.2 45.5999 115.1 45.5999Z" fill="#283276"/>
<path d="M124 38H122.2V46.8H124V38Z" fill="#283276"/>
<path d="M128.7 33.7H126.9V46.7999H128.7V33.7Z" fill="#283276"/>
<path d="M122 35.2999C122 34.6999 122.5 34.2 123.1 34.2C123.7 34.2 124.2 34.6999 124.2 35.2999C124.2 35.8999 123.7 36.4 123.1 36.4C122.5 36.4 122 35.8999 122 35.2999Z" fill="#283276"/>
</g>
<defs>
<clipPath id="clip0_22115_43121">
<rect width="117" height="46" fill="white" transform="translate(27.5 10)"/>
</clipPath>
</defs>
</svg>
