<svg width="172" height="66" viewBox="0 0 172 66" fill="none" xmlns="http://www.w3.org/2000/svg">
<rect x="0.5" y="0.5" width="171" height="65" fill="white"/>
<rect x="0.5" y="0.5" width="171" height="65" stroke="#E3E3FD"/>
<g clip-path="url(#clip0_22115_43160)">
<path d="M73.7653 44.4613L70.8368 53.3584L66.45 53.4115L62.0455 39.9405C61.7651 39.0877 61.9274 37.6595 63.0699 37.5769L65.7445 37.3792L68.6375 46.2762L71.501 37.3998H76.0413L78.9019 46.3322L81.7772 37.4116L86.2998 37.4441L81.0864 53.4056L76.7173 53.3495L73.7594 44.4613H73.7653Z" fill="black"/>
<path d="M48.7936 34.7587L48.767 24.5898C48.767 23.7252 48.215 22.5449 47.347 22.2911C44.3802 21.4235 41.4163 23.6603 41.3927 26.7116L41.3337 34.7292L36.9971 34.6967L37.0089 14.3C37.0089 13.2023 38.172 12.4763 39.0812 12.4999L41.3839 12.559L41.3248 21.3586C42.7684 19.1129 45.3131 18.2483 47.9699 18.4106C50.8807 18.5877 52.8172 20.4881 53.0475 23.4508L53.08 34.7026L48.7965 34.7587H48.7936Z" fill="black"/>
<path d="M135 53.2432L129.855 53.4203L125.238 47.2381L123.493 49.1621L123.404 53.3878H119.156V32.8288C119.156 32.1442 120.054 31.256 120.623 31.2589L123.44 31.2855L123.463 42.8708L128.098 37.385L133.37 37.4529L128.051 43.8239L135.003 53.2403L135 53.2432Z" fill="black"/>
<path d="M61.9213 31.3888C64.2977 32.0439 66.4941 31.4242 68.5458 29.8985L70.2816 32.8613C66.8572 35.2545 62.7331 35.8476 58.9988 34.1951C56.2858 32.9941 54.5854 30.4209 54.3109 27.7473C54.0127 24.8318 54.9249 21.9193 57.3604 20.1281C60.0467 18.1569 63.8372 17.7526 66.8218 19.2959C69.8565 20.8688 70.8868 24.4866 70.2609 27.5408L58.6976 27.529C58.7714 29.1844 59.9847 30.8487 61.9213 31.3829V31.3888ZM66.1487 24.7522C66.0129 22.5655 64.1826 21.1786 62.0512 21.5711C60.3951 21.875 58.9988 23.0583 58.8954 24.7699L66.1487 24.7522Z" fill="black"/>
<path d="M78.2732 34.9565C76.5551 35.2988 74.7159 35.1808 73.1749 34.0889C72.2923 33.4633 71.6812 31.9584 71.6812 30.7927L71.6753 14.2647C71.6753 13.4738 72.5521 12.5649 73.2783 12.562L75.885 12.5472L75.8909 29.8898C75.9824 30.2793 76.3219 31.2678 76.6791 31.321L78.2082 31.5511L78.2761 34.9565H78.2732Z" fill="black"/>
<path d="M86.1463 34.9594C84.2658 35.284 82.4089 35.1837 80.8975 34.0181C79.9882 33.3158 79.4952 31.7134 79.4923 30.5006L79.4805 14.2912C79.4805 13.403 80.3868 12.5443 81.2015 12.5472L83.7698 12.562L83.7639 29.5445C83.7639 30.0049 83.9351 30.9432 84.2776 31.1498C84.62 31.3564 85.3521 31.4951 86.0754 31.6662L86.1463 34.9565V34.9594Z" fill="black"/>
<path d="M102.185 44.6119L106.465 44.6207C106.371 49.9884 101.84 53.6505 96.5524 53.4941C91.5545 53.3436 87.336 49.7317 87.3271 44.6207L91.5516 44.606C91.6549 47.5215 93.8926 49.3864 96.6439 49.4897C99.5576 49.5989 102.079 47.6926 102.191 44.6119H102.185Z" fill="black"/>
<path d="M102.279 34.8148C102.052 31.8609 99.8081 29.8454 96.859 29.8632C93.9099 29.8809 91.7313 31.678 91.5217 34.744L87.312 34.7263C87.4006 29.3733 91.7992 25.903 96.859 25.8794C101.957 25.8529 106.303 29.4028 106.459 34.6968L102.276 34.8148H102.279Z" fill="black"/>
<path d="M107.673 53.4056L107.667 38.9845C107.667 38.3736 108.6 37.4441 109.131 37.4382L111.797 37.4175L111.888 40.6281C113.179 38.3234 115.086 36.9041 117.908 37.2582L117.884 41.2331C114.77 40.755 112.08 42.8383 112.042 45.8719L111.942 53.3702L107.676 53.4026L107.673 53.4056Z" fill="black"/>
</g>
<defs>
<clipPath id="clip0_22115_43160">
<rect width="98" height="41" fill="white" transform="translate(37 12.5)"/>
</clipPath>
</defs>
</svg>
