<svg width="173" height="66" viewBox="0 0 173 66" fill="none" xmlns="http://www.w3.org/2000/svg">
<rect x="0.5" y="0.5" width="171.714" height="65" fill="white"/>
<rect x="0.5" y="0.5" width="171.714" height="65" stroke="#E3E3FD"/>
<g clip-path="url(#clip0_10582_255569)">
<path d="M56.0737 16.4704C56.1736 16.5949 56.0737 16.6197 55.7241 16.57C54.5755 16.4456 53.4269 16.6197 52.4032 17.1672C49.7814 18.6104 48.0335 21.1983 48.0335 24.2341V31.5995C46.2607 30.9277 44.7376 30.1065 43.2144 29.1112L41.0171 27.6431H36.248C37.5963 28.7628 38.9447 29.7333 40.343 30.7037C42.74 32.2714 45.2619 33.7644 48.0086 34.5109V47.4502C46.6602 47.2014 45.4617 46.853 44.2632 46.3554C40.3929 44.6384 37.3217 41.528 35.6737 37.6462C34.0007 33.4658 34.0756 28.7628 36.0232 24.682C37.5214 21.5467 39.9934 18.9837 43.0397 17.3663C47.0847 15.2263 51.8289 14.9277 56.0737 16.4704Z" fill="black"/>
<path d="M52.8525 34.9339C53.6266 34.6353 54.3507 34.486 55.0748 34.1625C56.4481 33.5404 57.6217 32.7193 58.5955 31.5746C59.5693 30.43 60.8677 28.2154 61.3921 26.2496C61.9164 24.2838 61.7416 21.7706 60.7678 19.7302C59.794 17.6897 60.3434 19.1579 60.2685 18.7846C63.5394 21.2729 65.7368 24.8064 66.4109 28.8375C67.3098 33.8141 65.7867 38.8655 62.3409 42.5233C59.819 45.1858 56.523 46.9774 52.8775 47.5V34.9588L52.8525 34.9339Z" fill="black"/>
<path d="M58.6454 28.1407C57.3719 30.4051 55.3494 31.923 52.7026 31.9728V22.8406C52.7026 21.2232 53.3518 18.8344 54.7751 18.1376C56.0236 17.5155 57.5467 17.9137 58.4206 18.9837C60.3433 21.2978 60.0436 25.528 58.6204 28.1656L58.6454 28.1407Z" fill="black"/>
<path d="M80.993 31.8484L81.018 25.6026L85.088 31.8484L87.1355 31.8235V22.1687H85.1879V28.5389L81.0679 22.1687H79.0454V31.8733L80.993 31.8484Z" fill="black"/>
<path d="M94.052 30.1065C93.3529 30.43 92.5039 30.4798 91.7798 30.1314C91.1306 29.8328 90.806 29.161 90.6811 28.4891L88.6836 28.7131C88.7585 30.3056 89.8072 31.5995 91.3803 31.8981C92.454 32.1221 93.5526 32.0972 94.6513 31.7986C96.0246 31.4253 96.8236 30.2061 96.7737 28.8375C96.7487 27.867 96.2743 27.0459 95.4004 26.5731C94.7761 26.2496 94.102 26.0754 93.4028 25.8764L91.5301 25.304C91.1805 25.2045 90.9808 24.9059 90.9808 24.5824C90.9808 23.8359 92.0545 23.5622 93.0033 23.6369C93.7774 23.6866 94.3267 24.2341 94.4016 25.0303L96.4491 24.9308C96.4491 23.7364 95.7499 22.7659 94.6263 22.318C93.0782 21.7208 90.7561 21.8204 89.6075 23.0894C88.6586 24.1345 88.7835 25.7022 89.8572 26.6229C90.3066 26.9961 90.831 27.2201 91.3803 27.3942L93.7524 28.0412C94.102 28.1407 94.4765 28.3149 94.6263 28.6633C94.851 29.2107 94.5514 29.8328 94.0021 30.0816L94.052 30.1065Z" fill="black"/>
<path d="M124.689 28.6384C124.689 29.2356 124.44 29.8079 123.915 30.0817C123.216 30.4549 122.317 30.43 121.618 30.007C121.094 29.6835 120.844 29.1112 120.844 28.4891V22.1439C120.819 22.1439 118.772 22.1439 118.772 22.1439V28.3149C118.772 30.1314 119.571 31.5249 121.394 31.8733C122.392 32.0723 123.366 32.0474 124.34 31.8484C126.263 31.4254 126.737 29.8577 126.737 28.0163V22.1439H124.714V28.6135L124.689 28.6384Z" fill="black"/>
<path d="M109.658 22.1687V23.8608L112.579 23.8857V31.8733L114.627 31.8484V23.8608H117.548L117.523 22.1687H109.658Z" fill="black"/>
<path d="M130.857 31.8733L132.904 31.8235V23.8608H135.851V22.1687H127.96V23.8608L130.857 23.8857V31.8733Z" fill="black"/>
<path d="M100.294 31.8484L102.342 31.8235V23.8608H105.263V22.1687H97.373V23.8608H100.294V31.8484Z" fill="black"/>
<path d="M76.4735 22.1687H74.426V31.8733H76.4735V22.1687Z" fill="black"/>
<path d="M108.509 22.1687H106.487V31.8733H108.509V22.1687Z" fill="black"/>
<path d="M111.306 42.7722V40.2341H116.1V38.6415L111.306 38.6166V36.5762H116.45V34.909H109.308V44.4145H116.649L116.624 42.7722H111.306Z" fill="black"/>
<path d="M123.866 41.1796C123.866 42.1003 123.341 42.797 122.417 42.8717C121.893 42.9215 121.319 42.8717 120.844 42.5731C120.42 42.2994 120.145 41.7768 120.145 41.2294V34.9339C120.12 34.9339 118.123 34.9339 118.123 34.9339V40.8064C118.172 41.4285 118.172 42.0257 118.397 42.598C118.722 43.444 119.446 44.1159 120.37 44.3647C122.267 44.8872 124.914 44.6633 125.638 42.6975C125.838 42.1501 125.838 41.6026 125.888 41.0303V34.9588H123.915V41.2045L123.866 41.1796Z" fill="black"/>
<path d="M100.244 34.909V36.5762H103.091V44.4145L105.113 44.3896V36.5762H107.96L107.935 34.9339L100.244 34.909Z" fill="black"/>
<path d="M134.802 41.7271C134.403 41.0801 133.928 40.6322 133.204 40.2092C134.677 40.1096 135.726 39.0894 135.726 37.6462C135.776 36.1034 134.627 34.9837 133.079 34.9837H127.761C127.761 34.9588 127.761 44.4145 127.761 44.4145H129.783V40.5327H130.707C131.281 40.5327 131.706 40.8561 132.006 41.304L134.128 44.4393H136.5L134.802 41.7519V41.7271ZM129.808 38.9152V36.5762H132.505C133.204 36.5762 133.678 37.0241 133.703 37.6462C133.703 38.2683 133.329 38.8406 132.605 38.8655L129.808 38.9152Z" fill="black"/>
<path d="M97.7225 38.9401L95.7998 38.3927L94.5514 37.9697C94.2517 37.8701 94.0769 37.5964 94.0769 37.3227C94.0769 36.5016 95.4503 36.1283 96.5239 36.5016C97.0733 36.7006 97.4228 37.1734 97.4728 37.7706L99.4703 37.6213C99.4204 36.4767 98.7962 35.5062 97.6975 35.0832C96.3991 34.6104 94.876 34.6104 93.6275 35.1827C92.7036 35.6058 92.1543 36.4767 92.1543 37.3974C92.1543 38.3429 92.6787 39.1641 93.5276 39.612L95.1007 40.1843L97.0733 40.7566C97.4478 40.8561 97.7225 41.1796 97.7474 41.5031C97.7474 41.8515 97.6476 42.1998 97.3479 42.4487C96.5489 43.021 95.3254 43.0708 94.5264 42.4487C94.0769 42.1252 93.9521 41.6026 93.8023 41.0801L91.8796 41.2543C91.9296 42.8966 93.1281 44.1905 94.7511 44.4145C96.5489 44.6633 98.7962 44.4642 99.4953 42.7224C99.8948 41.7519 99.8449 40.7566 99.2955 39.9852C98.921 39.4378 98.3717 39.0645 97.7474 38.8904L97.7225 38.9401Z" fill="black"/>
<path d="M85.4626 34.9339L81.5674 44.3896H83.7148L84.5387 42.2745H88.4839L89.3329 44.4145H91.5302C91.5302 44.3896 87.585 34.9339 87.585 34.9339H85.4626ZM85.1879 40.6571L86.5113 37.2481L87.8597 40.6571H85.1879Z" fill="black"/>
<path d="M81.9668 37.6213C81.9668 36.0785 80.7932 34.9588 79.2451 34.9339H74.426C74.426 34.909 74.426 44.3896 74.426 44.3896H76.4236V40.8313H79.0953C79.9692 40.7815 80.7183 40.458 81.2926 39.8608C81.817 39.2138 82.0167 38.4176 81.9668 37.5964V37.6213ZM78.7208 39.1641L76.4485 39.2138V36.5513L78.6209 36.5762C79.345 36.5762 79.9193 37.1236 79.9193 37.7955C79.9193 38.4922 79.4698 39.1392 78.6958 39.1392L78.7208 39.1641Z" fill="black"/>
</g>
<defs>
<clipPath id="clip0_10582_255569">
<rect width="102" height="32" fill="white" transform="translate(34.5 15.5)"/>
</clipPath>
</defs>
</svg>
