<svg width="172" height="66" viewBox="0 0 172 66" fill="none" xmlns="http://www.w3.org/2000/svg">
<rect x="0.5" y="0.5" width="171" height="65" fill="white"/>
<rect x="0.5" y="0.5" width="171" height="65" stroke="#E3E3FD"/>
<g clip-path="url(#clip0_22115_43133)">
<path d="M41.0151 44.0001H23.7496C22.3325 44.0001 21.0081 42.9625 21.0067 41.4973L21 24.5227C21 23.3426 22.0676 22.0635 23.3086 22.0595L40.6924 22.0133C42.3355 21.8694 43.6921 22.9505 43.7714 24.5742L43.7849 41.1475C43.7849 42.6999 42.7173 44.0001 41.0164 44.0001H41.0151Z" fill="#010101"/>
<path d="M127.17 28.1329C125.512 27.5759 123.143 27.8874 121.894 29.2061C121.313 29.8186 121.086 30.6846 121.143 31.4872C121.311 33.8857 125.086 33.2706 125.947 34.0454C126.296 34.3596 126.159 34.8876 125.847 35.1807C125.078 35.9041 123.361 35.8922 122.79 35.2546C122.517 34.9497 122.415 34.5286 122.514 34.0745L120.277 34.0771C119.902 35.5701 120.746 36.9905 122.355 37.3601C123.783 37.6875 125.336 37.5858 126.671 36.873C128.095 36.1126 128.821 34.6104 128.432 33.1637C128.289 32.6356 127.786 32.237 127.301 32.006C126.68 31.7116 126.005 31.6509 125.334 31.5162L123.977 31.243C123.715 31.1902 123.549 30.9974 123.514 30.8021C123.396 30.1434 124.293 29.6193 125.48 29.7078C126.169 29.7592 126.653 30.2252 126.522 30.9262L128.75 30.946C129.067 29.7658 128.444 28.558 127.173 28.1316L127.17 28.1329Z" fill="#040404"/>
<path d="M131.157 37.339L138.363 37.3364L138.775 35.4395L133.903 35.4289L134.286 33.6257L138.348 33.6033L138.71 31.808L134.685 31.7829L135.062 30.0022L139.963 29.9903L140.362 28.0881L133.178 28.0868L131.157 37.339Z" fill="#040404"/>
<path d="M97.9893 37.3364L105.197 37.3377L105.61 35.4329L100.712 35.4342L101.098 33.6284L105.152 33.6099L105.517 31.8041L101.524 31.8028L101.907 29.9956L106.823 29.9917L107.216 28.0881L99.9927 28.0895L97.9893 37.3364Z" fill="#040404"/>
<path d="M88.0601 30.0061L92.4863 30.0365L90.335 33.6099L89.4611 37.3443L91.8127 37.3404L93.4329 30.0193L96.4407 29.985L96.8172 28.0881L88.4728 28.0868L88.0601 30.0061Z" fill="#040404"/>
<path d="M57.4861 34.2448C57.3799 34.7292 57.1446 35.1741 56.7332 35.4474C56.2935 35.7378 55.6333 35.6942 55.3873 35.2348C55.2044 34.8929 55.3079 34.5246 55.3577 34.1365L53.0491 34.1392C52.6928 35.3906 53.0665 36.8796 54.2955 37.2981C55.6199 37.7495 57.1715 37.5845 58.2754 36.7436C59.1197 36.0995 59.5433 35.2005 59.8377 34.2263L61.1406 28.0907H58.8334L57.4861 34.2461V34.2448Z" fill="#040404"/>
<path d="M82.3858 28.1092L77.4325 28.0841L75.417 37.339L81.005 37.3126C82.0578 37.3073 83.0259 36.8875 83.6793 36.1496C84.3301 35.413 84.6205 34.4085 84.2507 33.5227C83.9173 32.7215 81.9932 32.6211 83.1697 32.2C83.8528 31.9558 84.4363 31.4212 84.6111 30.8919C84.8477 30.1751 84.8504 29.453 84.3718 28.9025C83.9065 28.3666 83.1388 28.1145 82.3885 28.1105L82.3858 28.1092ZM82.0268 34.7253C81.7848 35.1754 81.286 35.4592 80.7603 35.4645L78.1491 35.4896L78.5767 33.4924L81.2174 33.5069C81.5226 33.5557 81.7889 33.664 81.9421 33.8422C82.1465 34.0798 82.1505 34.3781 82.0268 34.7253ZM82.2958 30.9064C82.1438 31.3697 81.6719 31.6813 81.1744 31.6865L78.9599 31.7103L79.3418 29.9111L81.6369 29.9348C81.8736 29.9375 82.09 30.0615 82.2084 30.2068C82.3482 30.3797 82.3926 30.612 82.2958 30.9077V30.9064Z" fill="#040404"/>
<path d="M70.6585 28.0946C68.7358 27.5838 66.6154 27.9772 65.1431 29.2906C63.6695 30.6054 62.9892 32.5538 63.2003 34.4177C63.4006 36.1853 64.8097 37.335 66.6222 37.5013C68.6807 37.6888 70.6115 37.0525 71.8888 35.4236C72.9429 34.0798 73.3799 32.4125 73.1164 30.7862C72.9066 29.4899 71.991 28.4484 70.6585 28.0946ZM67.3939 35.6282C66.446 35.5582 65.7173 34.9523 65.5774 34.089C65.3704 32.8099 65.7589 31.4568 66.7472 30.5618C67.4854 29.8939 68.518 29.6153 69.4565 29.9005C70.1489 30.1104 70.6034 30.6173 70.758 31.2826C71.238 33.3313 69.6904 35.7972 67.3926 35.6269L67.3939 35.6282Z" fill="#040404"/>
<path d="M112.951 28.1L107.529 37.2981L109.974 37.3377L111.082 35.3418L114.91 35.3589L115.219 37.3377L117.623 37.3113L116.03 28.092L112.951 28.1013V28.1ZM112.102 33.5016L113.626 30.7467L114.002 29.9678L114.627 33.5003H112.101L112.102 33.5016Z" fill="#040404"/>
<path d="M148.124 33.268C149.097 33.1558 149.948 32.6753 150.516 31.8965C151.099 31.0952 151.145 29.9995 150.703 29.123C150.165 28.4683 149.356 28.1264 148.465 28.1211L143.535 28.0868L141.502 37.3338L143.824 37.343L144.507 34.1881L146.541 34.2356C147.06 34.2475 147.448 34.5986 147.473 35.1016L147.589 37.3443L150.173 37.3298L149.715 34.4574C149.456 33.9623 148.92 33.7142 148.338 33.6865C148.202 33.6865 148.073 33.6416 148.026 33.5782C147.965 33.4964 147.988 33.2852 148.125 33.2693L148.124 33.268ZM147.164 32.2859L144.904 32.3453L145.416 29.9626L147.577 29.9903C147.887 29.9943 148.295 30.0959 148.465 30.3995C148.698 30.8127 148.593 31.3104 148.338 31.6879C148.127 31.9994 147.649 32.2727 147.163 32.2859H147.164Z" fill="#040404"/>
<path d="M38.9712 34.6685L34.7332 34.7517C34.5772 34.7543 34.4293 34.6474 34.358 34.5418L30.3096 28.4511C30.249 28.36 30.2316 28.1237 30.358 28.1237L34.4441 28.1132C34.6014 28.1132 34.7143 28.2544 34.8138 28.36L38.9699 34.6699L38.9712 34.6685Z" fill="#50DB68"/>
<path d="M35.5362 39.6068C35.5954 39.6966 35.5336 39.7877 35.4865 39.8088C35.4125 39.8418 35.3561 39.8299 35.2619 39.76L25.5905 32.5538L25.4628 32.4271C25.4131 32.3782 25.4453 32.2185 25.569 32.2185L30.6071 32.2251L35.5376 39.6055L35.5362 39.6068Z" fill="#50DB68"/>
<path d="M39.3198 26.4262L37.4361 29.3699C37.389 29.4425 37.1847 29.6629 37.0892 29.5125L34.9971 26.215L39.1316 26.1727C39.2217 26.1727 39.2889 26.2071 39.3171 26.2348C39.3454 26.2625 39.3588 26.3641 39.3198 26.4275V26.4262Z" fill="#50DB68"/>
</g>
<defs>
<clipPath id="clip0_22115_43133">
<rect width="130" height="22" fill="white" transform="translate(21 22)"/>
</clipPath>
</defs>
</svg>
