<svg width="173" height="66" viewBox="0 0 173 66" fill="none" xmlns="http://www.w3.org/2000/svg">
<rect x="0.5" y="0.5" width="171.714" height="65" fill="white"/>
<rect x="0.5" y="0.5" width="171.714" height="65" stroke="#E3E3FD"/>
<path d="M68.7236 51.5098C69.4745 49.7813 72.0306 49.718 73.3857 50.7227L72.9062 51.4521C71.9698 50.7494 70.254 50.6243 69.665 51.8076C69.4069 52.3696 69.5399 53.1214 70.0225 53.5107C70.7426 54.0982 71.8581 54.0018 72.6494 53.583V52.9795H71.2588V52.125H73.542V54.0928C72.5428 54.7307 71.2453 55.0034 70.1191 54.6016C69.8167 54.5038 69.538 54.3435 69.3008 54.1309C69.0636 53.9182 68.8726 53.6583 68.7412 53.3672C68.6098 53.0761 68.5402 52.7602 68.5371 52.4404C68.534 52.1206 68.5979 51.8035 68.7236 51.5098ZM83.2383 50.0635C84.9827 50.0635 85.9599 51.1739 85.96 52.4219C85.96 53.8062 84.8432 54.7803 83.2383 54.7803C81.4648 54.7801 80.5176 53.6557 80.5176 52.4219C80.5176 51.1571 81.4941 50.0637 83.2383 50.0635ZM88.2363 52.6436C88.2363 53.4614 88.6424 53.9189 89.4922 53.9189C90.317 53.9189 90.7578 53.5121 90.7578 52.6436V50.1562H91.71V52.7217C91.714 54.2013 90.6753 54.7803 89.4961 54.7803C88.1776 54.7801 87.2844 54.0845 87.2842 52.7217V50.1562H88.2363V52.6436ZM75.0928 50.1562C76.3041 50.1787 78.1342 49.8749 79.0469 50.6816C79.4362 51.0091 79.5227 51.728 79.3496 52.2129C79.1765 52.6976 78.7364 52.9785 78.248 53.1162L79.5918 54.6904H78.8008C78.5357 54.6904 78.3526 54.6427 78.1963 54.4502L77.2041 53.2324H76.0449V54.6904H75.0928V50.1562ZM93.2646 50.1562C95.6034 50.0495 97.4509 50.0271 97.4512 51.7217C97.447 53.481 95.3947 53.3594 94.2168 53.3369V54.6904H93.2646V50.1562ZM102.51 51.0303H99.5527V51.9385H102.266V52.8125H99.5527V53.8164H102.594V54.6904H98.9287C98.8854 54.6943 98.8418 54.6885 98.8008 54.6738C98.7596 54.659 98.7216 54.6354 98.6904 54.6045C98.6593 54.5737 98.6355 54.5362 98.6201 54.4951C98.6047 54.4539 98.5983 54.4092 98.6016 54.3652V50.1562H102.51V51.0303ZM83.2412 50.9268C82.3035 50.9269 81.5078 51.4565 81.5078 52.4219C81.5078 53.3465 82.2505 53.9174 83.2412 53.9189C84.1665 53.9189 84.9688 53.3958 84.9688 52.4219C84.9687 51.5435 84.2851 50.9268 83.2412 50.9268ZM94.2168 51.0039V52.4629C94.5808 52.4629 94.9559 52.4713 95.3115 52.4629C95.9547 52.4545 96.4587 52.2899 96.459 51.707C96.459 51.0423 95.6688 51.0166 95.3896 51.0039C95.0396 50.9913 94.6575 50.9871 94.2168 51.0039ZM76.0449 52.3887C76.2551 52.3999 76.5997 52.3961 76.8008 52.3975C77.2808 52.3792 77.8725 52.4541 78.2549 52.124C78.3681 52.0121 78.4344 51.8608 78.4404 51.7012C78.4464 51.5415 78.3917 51.3858 78.2871 51.2656C78.029 51.0239 77.6664 51.017 77.3105 51.0029C76.9282 51.0029 76.444 50.9945 76.0449 51.0029V52.3887ZM87.3027 36.3857C90.7163 36.3858 92.7383 38.499 92.7383 41.0947C92.7381 43.6903 90.7105 45.8027 87.3027 45.8027C83.8949 45.8027 81.8606 43.6946 81.8604 41.0947C81.8604 38.4947 83.8892 36.3857 87.3027 36.3857ZM98.1377 36.3857C99.3518 36.3857 100.955 36.7812 101.943 37.4023L101.084 38.8486C100.197 38.2653 99.1622 37.9479 98.1025 37.9336C96.9988 37.9337 95.9775 38.2569 95.9775 38.9961C95.9776 40.7416 102.151 39.7398 102.151 42.9609C102.151 44.7401 100.256 45.8027 97.9912 45.8027C96.5428 45.8027 94.7232 45.2854 93.5928 44.5098L94.5244 43.1123C95.5938 43.849 96.8577 44.2478 98.1533 44.2568C99.1218 44.2568 100.256 43.9289 100.256 43.1602C100.256 41.2771 94.0547 42.4532 94.0547 39.2812C94.0548 37.5977 95.8505 36.3858 98.1377 36.3857ZM52.3223 43.9473H57.46L56.5947 45.624H51.1514C51.0646 45.6307 50.9771 45.6182 50.8955 45.5879C50.8139 45.5575 50.7394 45.51 50.6777 45.4482C50.6161 45.3864 50.5686 45.3116 50.5381 45.2295C50.5076 45.1473 50.4947 45.0592 50.501 44.9717V36.5576H52.3223V43.9473ZM68.9258 45.6182H67.8779C67.1704 45.6182 66.9186 45.5834 66.6465 45.041L66.0889 43.9375H60.4502L59.6133 45.624H57.6514L62.3584 36.4805H64.2188L68.9258 45.6182ZM75.8662 36.5088C77.9483 36.5088 79.3354 36.8065 80.1602 37.6328C80.4087 37.8931 80.6018 38.2019 80.7275 38.54C80.8533 38.8784 80.9094 39.2397 80.8916 39.6006C80.8915 42.2172 78.8624 42.9296 75.9697 42.9297C75.5748 42.9339 74.8372 42.9246 74.3711 42.9189V45.624H72.5488V36.5703C73.5062 36.5464 74.7972 36.5088 75.8662 36.5088ZM111.502 38.2412H108.032V45.624H106.211V38.2412H102.806V36.5576H111.502V38.2412ZM120.469 38.2432H114.468V40.1611H119.969V41.8389H114.468V43.9473H120.635V45.624H113.297C113.21 45.6307 113.123 45.6182 113.041 45.5879C112.959 45.5576 112.885 45.51 112.823 45.4482C112.762 45.3863 112.713 45.3117 112.683 45.2295C112.652 45.1473 112.64 45.0592 112.646 44.9717L112.653 36.5566H120.469V38.2432ZM87.3027 38.0332C85.2373 38.0332 83.7637 39.2396 83.7637 41.0947C83.7639 42.9496 85.236 44.1592 87.3027 44.1592C89.3695 44.1592 90.8408 42.9537 90.8408 41.0986C90.8408 39.2435 89.3737 38.0332 87.3027 38.0332ZM61.2764 42.3057H65.2734L63.2764 38.3213L61.2764 42.3057ZM75.8076 38.1826C75.4085 38.1826 74.8302 38.1828 74.3711 38.1982V41.2402C74.8302 41.2501 75.4085 41.2559 75.8076 41.2559C76.9755 41.2559 78.0398 41.2205 78.6162 40.6445C78.746 40.5123 78.8475 40.3544 78.9131 40.1807C78.9787 40.007 79.0078 39.8213 78.998 39.6357C79.0012 39.3261 78.8913 39.0256 78.6895 38.792C78.1187 38.2173 77.2937 38.1826 75.8076 38.1826ZM94.3809 27.1934C93.584 28.5847 91.8397 29.4494 90.3506 29.4775L74.999 29.7588L96.2217 23.9736L94.3809 27.1934ZM110.217 17.1543C110.344 17.1555 110.468 17.2034 110.563 17.2881C110.659 17.3728 110.722 17.4891 110.74 17.6162C110.758 17.7434 110.73 17.8733 110.661 17.9814C110.592 18.0896 110.487 18.1693 110.364 18.2061L68.0371 29.748C67.978 29.7648 67.9147 29.761 67.8584 29.7363C67.8021 29.7116 67.7556 29.6674 67.7275 29.6123C67.6996 29.5573 67.6913 29.494 67.7041 29.4336C67.717 29.3732 67.75 29.3189 67.7979 29.2803L86.8223 17.1543H110.217ZM100.925 10.5C102.225 10.5 103.086 11.9951 102.373 13.2402L101.185 15.3125H86.8223L77.4453 11.0195C77.3878 10.996 77.3401 10.9534 77.3105 10.8984C77.2809 10.8433 77.2712 10.7793 77.2832 10.7178C77.2953 10.6562 77.3287 10.6003 77.377 10.5605C77.4251 10.5211 77.4857 10.4997 77.5479 10.5H100.925Z" fill="#003DA5"/>
</svg>
