<svg width="173" height="66" viewBox="0 0 173 66" fill="none" xmlns="http://www.w3.org/2000/svg">
<rect x="0.5" y="0.5" width="171.714" height="65" fill="white"/>
<rect x="0.5" y="0.5" width="171.714" height="65" stroke="#E3E3FD"/>
<path d="M53.6631 21.5C60.8318 21.5 65.825 26.602 65.8252 32.7773C65.8252 39.3441 60.379 43.8682 53.6631 43.8682C46.9428 43.8681 41.4941 39.2786 41.4941 32.7773C41.4943 26.602 46.4268 21.5 53.6631 21.5ZM25.9951 24.5215V40.415H39.627V42.3633H23.5V24.5215H25.9951ZM80.3145 24.5215C84.1732 24.5216 86.3204 26.4962 86.5645 29.6836C86.5851 30.7711 86.1878 33.8117 82.1006 34.9023C83.6887 37.3172 87.5427 42.3275 87.5703 42.3633H84.3398L78.9531 34.8789H71.6328V42.3633H69.0693V24.5215H80.3145ZM106.711 26.4629H93.4922V32.208H103.421V34.1797H93.4922V40.415H106.711V42.3633H90.7578V24.5215H106.711V26.4629ZM129.62 42.3633H126.585L124.244 37.7451H113.363L111.043 42.3633H107.977L117.048 24.5215H120.54L129.62 42.3633ZM133.493 40.415H147.127V42.3633H130.999V24.5215H133.493V40.415ZM53.7705 23.7275C48.3751 23.7275 44.4443 27.9442 44.4443 32.7842C44.4446 37.6306 48.5698 41.6533 53.5762 41.6533C58.5804 41.6533 62.9001 37.6305 62.9004 32.7842C62.9004 27.9442 59.0322 23.7276 53.7705 23.7275ZM114.512 35.5088H123.112L118.787 26.9863L114.512 35.5088ZM71.6328 32.7705H79.9639C81.3241 32.7705 82.6935 32.5166 83.4141 31.3242C83.8541 30.6031 84.0248 29.5441 83.7588 28.7373C83.3566 27.5601 82.2398 26.6329 80.2549 26.6328H71.6328V32.7705ZM36.8877 30.833H35.0381L37.543 24.5215H40.2451L36.8877 30.833ZM96.8887 24.0635L99.0479 21.6367H103.669L96.8887 24.0635Z" fill="#161616"/>
</svg>
