<?xml version="1.0" encoding="UTF-8"?>
<svg id="Calque_1" xmlns="http://www.w3.org/2000/svg" xmlns:xlink="http://www.w3.org/1999/xlink" version="1.1" viewBox="0 0 172 66">
  <!-- Generator: Adobe Illustrator 30.5.1, SVG Export Plug-In . SVG Version: 2.1.4 Build 3)  -->
  <defs>
    <style>
      .st0, .st1 {
        fill: none;
      }

      .st2 {
        fill: #303585;
      }

      .st1 {
        stroke: #e3e3fd;
      }

      .st3 {
        fill: #e22423;
      }

      .st4 {
        fill: #fff;
      }

      .st5 {
        fill: #fffefe;
      }

      .st6 {
        clip-path: url(#clippath);
      }
    </style>
    <clipPath id="clippath">
      <rect class="st0" x="45" y="9.5" width="82" height="47"/>
    </clipPath>
  </defs>
  <rect class="st4" x=".5" y=".5" width="171" height="65"/>
  <rect class="st1" x=".5" y=".5" width="171" height="65"/>
  <g class="st6">
    <g>
      <path class="st2" d="M121.3,25.7c-3.3-3.3-7.7-5.2-12.4-5.1v.7c4.1,0,8.1,1.4,11.2,4.3,1.8,1.7,3.3,3.7,4.2,6,1.8,4.9,1.2,10-1.7,14.3-3.9,5.8-10.9,8.5-17.6,6.9-2.3-.5-4.4-1.6-6.3-3-1.1-.9-2.1-1.8-2.9-2.9h-.9c2.2,3.1,5.4,5.3,9,6.4,7.7,2.3,15.9-1,20-8,3.7-6.3,2.6-14.4-2.6-19.6h0Z"/>
      <path class="st2" d="M112.3,46.9v-20.8h-13.9l-.4.4-.8.8c-2.5,2.7-4,6.1-3.9,9.8h-1.8c0-4.2,1.6-8,4.3-10.9h-50.9s0,20.7,0,20.7h67.3ZM59.2,35.1c-.2,1.2-.9,2.3-1.9,2.9-.8.4-1.5.7-2.4.7h-2.4v3.8c0,.9-.9,1.5-1.7,1.5-.8,0-1.6-.7-1.6-1.6v-11c0-.9.7-1.6,1.5-1.6h4.2c1.1,0,2.1.3,2.9.9,1.3,1,1.8,2.8,1.5,4.4h0ZM75.2,43.3c-.4.5-.9.7-1.5.7-.5,0-1.1-.4-1.3-1l-1.1-2.5h-4.1l-1.1,2.6c-.3.7-1,1-1.7,1-1,0-1.7-1-1.5-2.1l4.9-11.4c.3-.6,1-.9,1.6-.8.6,0,1.1.5,1.4,1.1l4.6,10.8c.3.6.3,1.2-.1,1.8ZM90.5,40.2c-.2,2.8-2.7,4-5.3,4-2.1,0-4.3-.7-5.6-2.5-.4-.6-.4-1.4,0-1.9.6-.7,1.7-.8,2.4,0,1.1,1.2,2.8,1.7,4.4,1.2.4-.1.7-.5.7-.8.1-1.1-1.1-1.4-2.1-1.8l-2.4-.9c-.7-.2-1.2-.7-1.7-1.2-.6-.6-.9-1.4-1-2.3,0-1.4.5-2.7,1.7-3.4,2.3-1.4,6.3-1.1,8.2,1,.3.3.5.8.4,1.2,0,.4-.3.9-.7,1.1-.6.4-1.4.4-1.9-.1-.8-.7-1.7-1.1-2.8-1.1-.8,0-1.6.3-1.6,1.1.1,1.3,4.5,1.3,6.4,3.6.7.8.9,1.8.8,2.9h0ZM95.7,39.6c.7-.6,1.7-.5,2.3.2,1.1,1.2,2.8,1.6,4.3,1.1.4-.1.7-.5.7-.8,0-.9-.9-1.3-1.8-1.6l-2.4-.8c-.8-.3-1.6-.7-2.2-1.4-.7-.7-.9-1.6-.9-2.6,0-1.1.4-2,1.2-2.8.5-.4,1.1-.8,1.7-1,1.7-.5,3.5-.4,5.1.2,1.4.5,3,1.8,2.2,3.2-.3.4-.7.7-1.2.7-.6,0-1-.2-1.4-.5-1.5-1.4-4.3-1.1-4.2.2,0,.6,1,.9,1.7,1.1l2.3.8c.7.2,1.3.6,1.8,1,1,.8,1.5,2,1.5,3.3,0,2.6-2,3.9-4.4,4.2-1.1.1-2.3,0-3.4-.3-1.3-.4-2.4-1.1-3.2-2.1-.5-.7-.4-1.5.2-2.1Z"/>
      <path class="st2" d="M68.2,37.4h1.7s-.8-2.1-.8-2.1l-.9,2.1Z"/>
      <path class="st2" d="M54.5,32.8h-2v2.9h2.2c.4,0,.8-.3,1-.6.2-.6.2-1.1,0-1.7-.3-.4-.7-.6-1.1-.6h0Z"/>
      <path class="st5" d="M111.1,55.3c-.3,0-.3.6-.1.9,0,.2.4.2.5,0,0-.3,0-.5,0-.7,0-.1-.2-.1-.3-.1Z"/>
      <path class="st5" d="M118.4,53.6c-.1,0-.4.1-.4.3s0,.2.1.2c0,0,.4-.1.4-.3,0,0,0-.2,0-.2Z"/>
      <path class="st5" d="M118.1,53.2c0,0,0-.1,0-.2-.1,0-.4,0-.4.2,0,0,0,.2,0,.2,0,0,.4-.1.4-.3h0Z"/>
      <path class="st5" d="M121.2,50.8c-.1,0-.3,0-.4.2,0,.3.2.6.5.7.2,0,.3,0,.4-.2,0-.2-.2-.7-.5-.7Z"/>
      <path class="st5" d="M94.1,48.3l-.6.5c0,.2.2.3.3.3.3,0,.7-.4.6-.6,0-.1-.2-.3-.3-.2h0Z"/>
      <path class="st5" d="M103.9,54.8c-.3,0-.5.6-.4.9,0,.2.4.2.5,0,.2-.2.2-.5.2-.7,0-.2-.2-.2-.3-.2Z"/>
      <path class="st5" d="M95,50.1c.1-.2.2-.3.2-.5l-.5.2c0,.1.1.2.2.2Z"/>
      <path class="st5" d="M115.2,54.4c0,0-.4,0-.4,0,0,0,0,.3.1.4,0,0,.4-.1.4-.2,0-.1,0-.2,0-.2h0Z"/>
      <path class="st5" d="M100.6,54.1v-.6c0,0-.3.4-.3.4.1,0,.2.1.3.1Z"/>
      <path class="st5" d="M100.3,18.6l.6,1.6.5-.2c.4-.2.3-.8,0-1.3-.2-.4-.7-.3-1.1,0h0Z"/>
      <path class="st5" d="M103.4,13.9c.2-.1,0-.6-.1-.6h-.8c0,.1.1.8.1.8.3,0,.5,0,.8-.2h0Z"/>
      <path class="st5" d="M97.3,12.7c.4-.3,0-1.3-.5-1.5-.3,0-.6,0-.8.2l.7,1.5c.2,0,.4-.1.6-.3h0Z"/>
      <path class="st5" d="M123,19.3h0s0,0,0,0h0s0,0,0,0Z"/>
      <path class="st5" d="M95.6,17.4l-.8-.6.3,1c.2-.1.4-.2.5-.4h0Z"/>
      <path class="st5" d="M115.1,17.8l-.6.8c.2,0,.4.1.6.2v-1h0Z"/>
      <path class="st5" d="M88.7,16.4l.4.9.4-.4-.8-.5Z"/>
      <path class="st5" d="M121.1,15.8l-.8.7c.2.2.3.2.5.3l.2-1h0Z"/>
      <path class="st5" d="M85.3,19.9c-.2.1-.3.3-.5.5l.6.4c.1-.2.3-.4.4-.6,0-.2-.3-.5-.5-.4h0Z"/>
      <path class="st5" d="M100.4,14.1l-.7.2.3.7c.3-.1.5-.1.7-.3.1,0,0-.3,0-.4,0-.1-.2-.3-.3-.2h0Z"/>
      <path class="st5" d="M97.7,15.2c-.3,0-.5.2-.7.3l.3.6c.3-.2.5-.2.7-.4.2-.2,0-.6-.3-.6Z"/>
      <g>
        <path class="st3" d="M111.1,55c-.4,0-.6.3-.6.7s0,.6.3.9h.9c.3-.2.3-.6.2-.9,0-.4-.4-.7-.8-.6ZM111.5,56.1c0,.2-.4.2-.5,0-.2-.3-.2-.8.1-.9.1,0,.3,0,.3.1,0,.2.2.5,0,.7Z"/>
        <path class="st3" d="M106,54.9l-.2,1-.4-1c0-.1-.3-.1-.4-.1l-.3,1.5c0,.1.2.1.3.1l.2-.9.3,1.1h.4l.3-1.5c0,0-.2,0-.3,0h0Z"/>
        <path class="st3" d="M107.2,55.3c.1,0,.3,0,.3.2.1,0,.2,0,.3-.1,0-.3-.3-.4-.5-.4-.2,0-.5,0-.7.3-.2.4-.2.8,0,1.2h1c0-.1,0-.2,0-.2,0,0-.2-.2-.2,0,0,.1-.2.2-.3.2-.3,0-.3-.3-.3-.7,0-.2.1-.2.3-.3Z"/>
        <polygon class="st3" points="108 55.4 108.5 55.5 108.4 56.5 108.8 56.5 108.8 55.5 109.2 55.5 109.2 55.1 108 55.1 108 55.4"/>
        <path class="st3" d="M110.1,56.4c0-.2,0-.6,0-.9l.2-.2s0-.2,0-.2h-.7c0,0,0,.2,0,.2,0,0,.1.1.2.2v.9c0,0-.1.1-.1.1h.8c0,0-.1-.1-.1-.1h0Z"/>
        <path class="st3" d="M113,54.7v.8c.1,0-.5-.7-.5-.7,0,0-.4,0-.4.1l.3,1.5c0,0,.3,0,.3,0l-.2-.9.7.8c0,.1.3,0,.4,0l-.3-1.5c-.1,0-.2,0-.3,0Z"/>
        <polygon class="st3" points="113 54.7 113 54.7 113 54.7 113 54.7"/>
        <path class="st3" d="M96.9,50.8h0s-.6.6-.6.6l.2-1c0-.1-.2-.3-.3-.3l-1,1.2c0,0,.2.2.3.2l.7-.7-.2,1.1c0,0,.2.3.3.2l1-1.1c0,0-.2-.2-.3-.2Z"/>
        <path class="st3" d="M116.9,53.3h0c-.1,0-.2,0-.3.1l.4.9c0,.2,0,.3-.1.4-.2,0-.3,0-.4-.2l-.4-.8c-.1,0-.3,0-.3.1l.4.9c.1.3.4.4.7.3.3,0,.6-.4.5-.7l-.4-1.1Z"/>
        <path class="st3" d="M122.4,49.1h0c0,0-.3.2-.2.2l.7.7c.1.1.1.3,0,.4,0,0-.2,0-.4,0l-.7-.7c0,0-.3.1-.3.2.3.3.6.6.9.8.3.2.6,0,.8-.2.2-.2.3-.6,0-.8l-.8-.7Z"/>
        <path class="st3" d="M124.3,48.7h0l-.4.5c0,0-.3-.1-.2-.2,0-.2.4-.3.3-.5,0,0-.2-.1-.2-.1l-.3.4c0,0-.3,0-.2-.2l.4-.5c0,0-.2-.3-.2-.2l-.7.8,1.2,1,.7-.8c0,0-.2-.3-.2-.2Z"/>
        <path class="st3" d="M97.4,51.3h0c-.2,0-.4.2-.4.4,0,.4.3.5.4.7,0,0,0,.2-.1.2-.2,0-.3-.2-.4-.4,0-.1-.3,0-.3,0,0,.4.4.8.8.7.3,0,.4-.2.4-.4,0-.4-.6-.7-.3-.9.2-.1.3.2.4.3,0,0,.3,0,.3,0,0-.4-.4-.7-.8-.7Z"/>
        <path class="st3" d="M103.1,54.5c0-.1,0-.2,0-.3l-1-.4-.5,1.5c.1,0,.2.1.4.1,0-.2,0-.4.2-.6l.5.2c0-.1,0-.2,0-.3-.2,0-.4,0-.5-.2,0,0,0-.3,0-.2h0s.6.2.6.2Z"/>
        <path class="st3" d="M120.9,52.4h0s-.1,0-.2,0l-.5-.8c0,0,0-.2,0-.3,0,0,0-.1-.1-.1-.2.1-.4.2-.5.4,0,.2.2.2.3.2.2.2.4.5.5.7,0,0,0,.2,0,.2,0,0,.1.2.3,0l.5-.4c0,0,0-.2,0-.2Z"/>
        <path class="st3" d="M99.1,52.3h0s-.8,1.4-.8,1.4l.8.5c0,0,.2-.2.1-.3l-.5-.3.6-1.1c0-.1-.2-.2-.3-.2Z"/>
        <polygon class="st3" points="120 52.9 120 52.9 120 52.9 120 52.9"/>
        <path class="st3" d="M119.5,53.2l-.7-1c-.1,0-.2.1-.3.2l.9,1.3.8-.5c0-.1,0-.2-.2-.3l-.5.3Z"/>
        <path class="st3" d="M118.4,53.3h0c0-.2,0-.4,0-.5,0-.1-.3-.2-.4-.1l-.8.4.7,1.4.8-.4c.2-.1.3-.3.2-.5,0-.2-.2-.3-.4-.3ZM117.7,53.5h0c0,0,0-.2,0-.2,0-.1.2-.3.4-.2,0,0,0,0,0,.2,0,.1-.3.3-.4.3ZM118,54c0,0-.1-.1-.1-.2,0-.1.3-.3.4-.3,0,0,.1.1,0,.2,0,.1-.4.3-.4.3Z"/>
        <path class="st3" d="M122.3,51.7h0s-.3.1-.3.1c.2-.4,0-.8-.2-1.1-.3-.3-.8-.3-1.1,0-.3.3-.2.7,0,1,.3.4.6.3,1,.3.1,0,.4.2.6,0,0,0,.2-.1.1-.2,0,0,0-.1-.1-.1ZM121.7,51.5c0,.1-.2.3-.4.2-.3-.1-.5-.4-.5-.7,0-.2.2-.2.4-.2.3,0,.6.5.5.7Z"/>
        <path class="st3" d="M94.4,49.2c.3-.2.4-.7.2-1h0s-.4-.5-.4-.5l-1.2,1c.1.2.3.5.5.7.3.2.6.1.9-.1ZM93.8,49.1c-.1,0-.3-.2-.3-.3l.6-.5c.1,0,.3.1.3.2.1.3-.3.6-.6.6h0Z"/>
        <path class="st3" d="M104.3,54.6h0c-.2-.2-.6-.2-.9,0-.3.3-.4.7-.2,1.1.1.3.5.4.7.4.3,0,.5-.3.6-.6,0-.4,0-.7-.3-.9ZM104,55.7c-.1.2-.4.1-.5,0-.1-.3,0-.8.4-.9.1,0,.3,0,.3.2,0,.2,0,.5-.2.7Z"/>
        <path class="st3" d="M95.4,49.2h0s-1.4.7-1.4.7c0,.1.1.2.2.2,0,0,.2,0,.3,0s.3.2.4.4v.3c-.1,0,.1.2.1.2l.7-1.4c0-.1-.2-.3-.3-.4ZM95,50.1c-.1,0-.2-.1-.2-.2l.5-.2c0,.2-.1.3-.2.5Z"/>
        <path class="st3" d="M115,54h0s-.7.2-.7.2l.5,1.5c.1,0,.2,0,.3-.1l-.2-.5.4-.2c.3-.1.3-.5.2-.7-.1-.2-.4-.3-.6-.2ZM114.9,54.9h0c0,0-.2-.3-.1-.4,0,0,.3-.2.4,0,0,0,.1.1,0,.2,0,.1-.3.3-.4.2Z"/>
        <path class="st3" d="M99.5,54.3c0,.1.2.2.3.2s.1-.1.2-.2c.1,0,.5.1.5.2,0,.2,0,.3,0,.3,0,0,.2.1.3.1l.2-1.6c-.1,0-.3-.1-.4-.2l-1.1,1.2ZM100.6,54.1c-.2,0-.2,0-.3-.1l.4-.4v.6Z"/>
        <path class="st3" d="M127,19.3l-1.4-1.2-2,2.1,1.5,1.3c.2-.2.3-.3.4-.5l-1-.9.4-.4.8.7.4-.4-.8-.8.4-.4,1,.9c.1-.1.2-.2.3-.3,0,0,0-.1,0-.2h0Z"/>
        <path class="st3" d="M100.8,12.1h0l-.2-.6-1.3.4c0-.1-.2-.3-.2-.5l1-.4c0-.2,0-.4-.2-.5l-1.1.4-.2-.5,1.3-.4v-.4h-.7l-1.4.5.9,2.7,1.9-.6Z"/>
        <polygon class="st3" points="108 15 108 13.2 109.1 15 109.8 14.9 109.8 12.1 109.2 12.1 109.2 13.9 108.1 12.1 107.4 12.1 107.4 15 108 15"/>
        <path class="st3" d="M117.8,19.5c0,.1-.3.4-.2.5l.4.2c0,.1-.2.3-.3.3-.3,0-.7-.2-.7-.5,0-.5.4-1.4,1-1.2.3,0,.5.3.4.6h.6c0-.3,0-.6-.3-.8-.4-.4-1-.6-1.5-.3-.9.4-1.3,2-.6,2.5.3.2.7.3,1.1.1v.3c-.1,0,.4.2.4.2l.7-1.5-1-.5Z"/>
        <polygon class="st3" points="118.1 21.4 118.1 21.4 118.1 21.4 118.1 21.4"/>
        <path class="st3" d="M120.6,21.7h0s.3-.5.3-.5l-.9-.6c0-.2.2-.3.3-.4l1.1.7c.1-.2.3-.3.3-.5l-1.7-1.1-1.6,2.4,1.7,1.1.3-.5-1.1-.7.3-.5,1,.6Z"/>
        <path class="st3" d="M95.9,24l1.5-1.3h0c-.1-.2-.2-.3-.4-.5l-1,.8-.3-.4.9-.7-.4-.4-.9.7-.3-.4,1-.9c0-.2-.2-.4-.4-.4l-1.5,1.2,1.9,2.2Z"/>
        <path class="st3" d="M104.3,16.6l-1.9.5.8,2.8,1.9-.5c0-.2,0-.4-.2-.6l-1.3.3v-.6c-.1,0,1-.3,1-.3l-.2-.6h0s-1.1.3-1.1.3c0-.2-.1-.3-.2-.5l1.2-.3c0-.2,0-.4-.1-.6Z"/>
        <path class="st3" d="M95.1,14.5c0-.2-.2-.4-.3-.5l-1.1.7-.3-.4.9-.6-.3-.5-1,.6-.3-.5,1.1-.7c0-.2-.1-.4-.3-.5l-1.7,1,1.6,2.4,1.7-1Z"/>
        <path class="st3" d="M107,15c0-.2,0-.4,0-.6h-1.3c0,0,0-.2,0-.4h1.1c0-.1,0-.7,0-.7h-1.1c0,0,0-.2,0-.4l1.3-.2c0-.2,0-.4,0-.6l-2,.2.4,2.8,2-.2Z"/>
        <path class="st3" d="M107,15h0s0,0,0,0h0Z"/>
        <path class="st3" d="M118.1,16.2c-.4,0-.7-.3-.8-.6-.2,0-.4.1-.6.2.2.5.7.8,1.2,1,.4,0,.8,0,1-.3.2-.3.3-.7,0-1-.3-.4-1-.5-.9-.8,0-.1,0-.2.2-.2.3,0,.6.2.8.5.2,0,.4-.1.6-.2-.2-.6-.9-.9-1.5-.9-.3,0-.5.3-.6.5-.1.3,0,.6.1.8.3.3.9.4.8.7,0,0-.1.2-.2.2Z"/>
        <path class="st3" d="M123,22.5c.2,0,.4,0,.7,0,0-.6-.4-.9-.8-1.2-.3-.2-.7-.2-.9,0-.2.2-.5.5-.4.8.1.6.8.9.5,1.2,0,.1-.3.1-.4,0-.3-.2-.4-.4-.4-.8h-.6c0,.7.4,1.2,1,1.4.3.1.6.1.9-.1.2-.1.4-.4.3-.8,0-.6-.8-.8-.6-1.2,0-.1.2-.2.3-.1h0c.3.1.4.4.4.7Z"/>
        <path class="st3" d="M116,15.2h0c0,.1-.1.2-.3.2-.4,0-.6-.2-.8-.5l-.5.3c.2.7,1.4,1.1,1.9.8.4-.2.6-.9.3-1.2-.3-.4-1.1-.4-1-.8,0,0,0-.2.2-.2.3,0,.6.2.8.5l.6-.3c-.4-.8-1.6-1.1-2.1-.4-.2.3-.2.6,0,.9.3.5,1.2.5,1.1.9Z"/>
        <path class="st3" d="M106.1,17c.3,0,.5,0,.8.2.2-.1.3-.3.4-.5-.5-.4-1.4-.4-1.9,0-.3.2-.3.7-.1,1,.3.7,1.7.2,1.5.8,0,.4-.7.4-1.1,0l-.4.4c.4.6,1.5.5,2,0,.4-.4.3-1.1-.2-1.4-.5-.2-1.2,0-1.2-.4,0-.1,0-.2.2-.3Z"/>
        <path class="st3" d="M109.1,16.8h0c-.1.3,0,.7.2.9.4.3,1.1.2,1.2.6,0,.1,0,.3-.2.3-.3,0-.7,0-.9-.4l-.5.4c.4.6,1.5.7,2,.3.4-.3.4-1,0-1.3-.4-.3-1-.2-1.2-.5,0,0,0-.2,0-.3.3-.2.6,0,.9.1.2,0,.4-.1.5-.3-.5-.7-1.8-.7-2.1,0Z"/>
        <path class="st3" d="M90.6,16.2h0c.5.6,1.3.6,1.9,0,.3-.3.4-.7.3-1.1h-.6c0,.5,0,.7-.3.8-.5.3-.9-.2-1.2-.8-.1-.2,0-.5.2-.7.2-.2.4-.2.7,0,.1-.2.2-.4.3-.5-.4-.3-.9-.2-1.3,0-.4.3-.6.7-.5,1.2,0,.4.3.7.6,1Z"/>
        <path class="st3" d="M98.8,21.9h0s-1.2-1.9-1.2-1.9l.6-.4c0-.2-.2-.3-.3-.5l-1.9,1.2c.1.2.2.4.3.5.2-.1.4-.3.7-.4l1.2,1.9c.3-.1.4-.2.6-.4Z"/>
        <polygon class="st3" points="110.9 15.1 111.6 15.1 111.8 12.9 112.6 13 112.6 12.4 110.4 12.1 110.4 12.7 111.2 12.8 110.9 15.1"/>
        <polygon class="st3" points="112.6 19.4 113 17.2 113.8 17.3 113.9 16.8 111.7 16.4 111.6 17 112.3 17.1 111.9 19.3 112.6 19.4"/>
        <path class="st3" d="M113.9,15.5h0s0-.5,0-.5c-.1,0-.3,0-.4,0l.3-1.7h.4s0-.5,0-.5l-1.4-.2v.5c0,0,.3,0,.3,0l-.3,1.7c-.1,0-.3,0-.4,0,0,.2,0,.3,0,.5l1.4.2Z"/>
        <path class="st3" d="M94.5,19.8l-.4-.5-.9.7-1.5-1.7c-.2.1-.4.3-.5.5h0s1.9,2.2,1.9,2.2l1.3-1.1Z"/>
        <polygon class="st3" points="87.9 19.5 86.2 17.9 85.7 18.4 87.9 20.4 89.1 19.1 88.7 18.7 87.9 19.5"/>
        <path class="st3" d="M92.8,17.2c-.1,0-.2.3,0,.5,0,.2.2.2.4.2v.6c.2,0,.3-.1.4-.3,0-.3,0-.7-.2-.9-.1-.1-.4-.2-.5,0Z"/>
        <path class="st3" d="M100.7,17.8h0l-1.2.5,1.1,2.7,1.2-.5c.5-.3.8-.8.6-1.4,0-.4-.3-.7-.5-1-.3-.3-.7-.4-1.1-.2ZM101.5,19.9h0s-.5.2-.5.2l-.6-1.6c.4-.3.8-.4,1.1,0,.3.5.4,1.1,0,1.3Z"/>
        <path class="st3" d="M103,15.7h0s-.2-1-.2-1h.4c0,0,.7.8.7.8l.7-.2-.8-.9c.3-.3.4-.8.2-1.2-.2-.4-.6-.5-1-.4l-1.3.3.7,2.8c.2,0,.4,0,.6-.1ZM103.2,13.3h0c.2,0,.3.5.1.6-.2.1-.5.1-.8.2v-.7c-.1,0,.6-.1.6-.1Z"/>
        <path class="st3" d="M97.4,13.3h0c.4-.2.7-.5.7-1,0-.5-.2-.9-.5-1.3-.4-.4-.9-.5-1.4-.3l-1.1.5,1.2,2.6,1.1-.5ZM96.8,11.3h0c.4.1.9,1.1.5,1.4-.2.1-.4.2-.6.3l-.7-1.5c.3-.1.5-.3.8-.2Z"/>
        <path class="st3" d="M122,19h0c.2.2.5.4.9.3,0,.1,0,.2,0,.3l.4.3.9-1.3-1-.7-.3.4c.2.1.3.2.4.3-.2.3-.5.3-.8,0-.2-.1-.3-.4-.3-.6.2-.6.8-1.2,1.3-.9.2.2.3.4.3.7h.6c0-.6-.2-1-.7-1.3-.5-.2-1-.2-1.4.2-.7.5-1.1,1.6-.5,2.2ZM123,19.3h0s0,0,0,0h0s0,0,0,0Z"/>
        <path class="st3" d="M96.7,18.3l.6-.4-2.4-1.9-.7.5h0s.8,2.9.8,2.9l.6-.4-.2-.7.8-.5.6.4ZM95.1,17.8l-.3-1,.8.6c-.1.2-.3.2-.5.4Z"/>
        <path class="st3" d="M115.1,20.1l.7.2v-3c0,0-.9-.2-.9-.2l-1.7,2.4.7.2.4-.6.9.3v.7ZM114.6,18.6l.6-.8v1c-.2,0-.3,0-.6-.2Z"/>
        <path class="st3" d="M88.6,15.7l-.6.5,1.3,2.7.5-.4-.3-.7.7-.6.6.3.5-.5-2.7-1.5ZM89.1,17.3l-.4-.8.8.5-.4.4Z"/>
        <path class="st3" d="M119.4,17.4l.5-.5.8.4v.7c0,.1.3.2.5.3l.6-2.9-.7-.4-2.2,2,.6.3ZM121.1,15.8h0l-.2,1c-.2-.1-.4-.2-.5-.3l.8-.7Z"/>
        <path class="st3" d="M85.9,21.3l.4-.6c.3-.4.2-.9-.2-1.2-.4-.4-1-.3-1.3,0l-.9,1.1,2.3,1.7c.2-.2.3-.3.4-.5h0s-.8-.6-.8-.6ZM84.8,20.5c.2-.2.3-.4.5-.5.2-.1.6.1.5.4,0,.2-.3.4-.4.6l-.6-.4Z"/>
        <path class="st3" d="M100.2,13.5l-1.4.5,1,2.7.6-.2-.3-1,.7-.3c.5-.2.7-.7.5-1.1-.2-.5-.6-.8-1.1-.6ZM100.7,14.3c0,.1,0,.3,0,.4-.2.1-.4.2-.7.3l-.3-.7.7-.2c.2,0,.3.1.3.2h0Z"/>
        <path class="st3" d="M98.8,15.4h0c0-.3-.2-.6-.5-.7-.3-.2-.6-.2-.9,0l-1.3.6,1.3,2.6c.2-.1.4-.2.6-.3l-.4-.9.8-.4c.3-.2.4-.5.3-.8ZM98,15.7c-.2.2-.4.2-.7.4l-.3-.6c.2-.1.4-.3.7-.3.2,0,.4.4.3.6Z"/>
        <path class="st3" d="M97.2,27.3l.8-.8.4-.4c2.9-2.5,6.6-3.9,10.4-3.9v-1.6h0c0,0,0-.1-.1-.1-4.9,0-9.6,2.1-12.9,5.7-2.7,3-4.3,6.8-4.3,10.9h1.8c0-3.7,1.4-7.1,3.9-9.8Z"/>
      </g>
    </g>
  </g>
</svg>