<svg width="172" height="66" viewBox="0 0 172 66" fill="none" xmlns="http://www.w3.org/2000/svg">
<rect x="0.5" y="0.5" width="171" height="65" fill="white"/>
<rect x="0.5" y="0.5" width="171" height="65" stroke="#E3E3FD"/>
<g clip-path="url(#clip0_22115_43171)">
<path d="M22.7979 38.2053L23.9603 39.405L34.3387 28.7469L38.4295 33.0185L33.8388 37.7301L34.9602 38.8946L40.7758 32.9633L34.3518 26.4211L22.7979 38.2053Z" fill="#000100"/>
<path d="M28.8385 26.6335L18.4371 37.2281L14.3184 32.9849L18.96 28.2415C18.5177 27.8198 18.2661 27.3948 17.763 27.1405L12 33.005L18.4404 39.5789L29.9812 27.8064L28.8385 26.6335Z" fill="#000100"/>
<path d="M34.2756 31.8262L22.5771 43.8181L23.7475 45.0004L35.446 33.0085L34.2756 31.8262Z" fill="#000100"/>
<path d="M29.0385 21.0012L17.3169 32.9625L18.4718 34.1345L30.1935 22.1732L29.0385 21.0012Z" fill="#000100"/>
<path d="M100.637 28.024L100.632 34.8171L95.6156 27.9922L93.9204 27.9972L93.9303 37.9743L95.6912 37.9559L95.7126 31.0273L100.829 37.9861C101.408 37.9626 101.869 38.0496 102.39 37.9208V27.9939L100.639 28.0223L100.637 28.024Z" fill="#000100"/>
<path d="M159.992 32.3391L155.924 32.3475L155.911 33.9169L158.302 33.9253L158.283 35.8411C157.192 36.6091 155.789 36.7563 154.597 36.159C153.507 35.6118 152.92 34.4942 152.849 33.2677C152.774 31.9627 153.274 30.6509 154.388 29.9599C155.735 29.1266 157.419 29.4328 158.563 30.5455L159.679 29.1869C157.657 27.2359 154.078 27.3949 152.307 29.4512C151.356 30.5538 150.924 31.9024 150.993 33.3564C151.103 35.652 152.626 37.5594 154.832 38.058C156.703 38.4228 158.558 37.9442 160 36.681L159.992 32.3391Z" fill="#000100"/>
<path d="M84.6172 33.7195L89.3526 33.7162V32.1016L84.6188 32.1216V29.5818L89.9609 29.5751L89.956 27.9889L82.8447 27.9906L82.8497 37.9828L90.0514 37.9844L90.0563 36.3849L84.6188 36.3932L84.6172 33.7195Z" fill="#000100"/>
<path d="M74.1042 36.3246L74.0977 27.9755L72.3268 27.9905L72.3252 37.9861L79.1076 37.9794L79.101 36.3213L74.1042 36.3246Z" fill="#000100"/>
<path d="M130.669 36.3163L130.656 28.0006H128.893L128.888 37.9861L135.68 37.9761L135.671 36.3146L130.669 36.3163Z" fill="#000100"/>
<path d="M145.521 34.1176C145.465 34.8873 145.215 35.6569 144.564 36.107C143.78 36.6491 142.671 36.6508 141.877 36.1104C141.262 35.6904 140.906 34.9375 140.902 34.1745L140.874 27.9955H139.09L139.135 34.3519C139.145 35.7038 139.806 36.9854 140.981 37.6363C142.325 38.3809 144.036 38.3842 145.396 37.6648C146.585 37.0356 147.251 35.7373 147.259 34.382L147.297 27.9988L145.521 28.0156V34.1193V34.1176Z" fill="#000100"/>
<path d="M122.188 28.029L117.643 27.9855L117.664 37.9743L119.434 37.9576V34.6899L121.591 34.6865C123.697 34.6849 125.348 33.2727 125.226 31.1177C125.185 29.4194 123.883 28.0407 122.188 28.024V28.029ZM123.418 31.3887C123.404 32.309 122.766 33.0267 121.91 33.0385L119.432 33.0702V29.6285L121.958 29.6704C122.832 29.6854 123.472 30.4367 123.416 31.3887H123.418Z" fill="#000100"/>
<path d="M56.5981 27.9922H48.7009L48.6943 29.6503L51.7608 29.657V37.9609C52.3873 37.9793 52.9216 38.0396 53.5448 37.9308L53.5382 29.6553L56.6047 29.6469L56.5981 27.9905V27.9922Z" fill="#000100"/>
<path d="M62.8198 27.9353L58.5859 37.961L60.434 37.9509L61.3745 35.6336L65.9586 35.6403L66.9238 37.9794L68.7982 37.9493L64.5611 27.9253L62.8182 27.937L62.8198 27.9353ZM62.0372 34.0056L63.6666 30.1121L65.2648 33.9889L62.0372 34.0073V34.0056Z" fill="#000100"/>
<path d="M113.939 27.9922H106.074V29.6453L109.126 29.6754V37.9626C109.742 37.9827 110.278 38.0362 110.898 37.9308L110.895 29.6637L113.94 29.6453V27.9922H113.939Z" fill="#000100"/>
</g>
<defs>
<clipPath id="clip0_22115_43171">
<rect width="148" height="24" fill="white" transform="translate(12 21)"/>
</clipPath>
</defs>
</svg>
