<svg width="172" height="66" viewBox="0 0 172 66" fill="none" xmlns="http://www.w3.org/2000/svg">
<rect x="0.5" y="0.5" width="171" height="65" fill="white"/>
<rect x="0.5" y="0.5" width="171" height="65" stroke="#E3E3FD"/>
<path d="M102.686 27.0962C107.662 27.0962 111.721 31.2276 111.721 36.2915C111.721 41.3554 107.662 45.4868 102.686 45.4868C97.71 45.4868 93.6509 41.3554 93.6509 36.2915C93.6509 31.2275 97.6837 27.0962 102.686 27.0962ZM34.5396 45.4595L32.5493 42.2886L42.1606 27.1763H46.1685L34.5396 45.4595ZM140.871 27.1763L140.897 27.2026C146.083 27.5225 149.566 32.2935 148.937 37.4907H134.612C135.031 40.3692 137.414 42.3687 140.243 42.3687C142.678 42.5017 144.878 41.0623 145.768 38.7173L148.623 39.8892C148.073 41.2484 147.287 42.3945 146.213 43.354C144.485 44.8465 142.363 45.4595 140.137 45.4595C135.345 45.4593 131.443 41.7013 131.259 36.7974C131.05 31.094 135.188 26.8299 140.871 27.1763ZM53.8413 27.1226C59.3674 27.1759 63.1394 31.9476 62.4585 37.438H48.1587C48.5517 40.2896 50.9612 42.3147 53.7896 42.3413C56.2251 42.3679 58.4247 41.0888 59.3413 38.6636L62.1968 39.8364C60.7039 43.4612 57.6912 45.4065 53.8413 45.4331C49.913 45.4596 46.4036 43.0075 45.2251 39.1431C44.5704 37.0376 44.6758 34.7987 45.4614 32.7466C46.7971 29.2021 50.1488 27.0694 53.8413 27.1226ZM69.5034 28.1626C70.9177 27.2298 72.6466 26.9097 74.3228 27.3628V30.6675C73.0918 30.2943 71.8605 30.2684 70.6558 30.6948C68.875 31.4144 67.6705 33.0398 67.6704 35.0386V45.0864H64.4487V28.5093L67.7222 27.4692V30.2417C68.1674 29.4155 68.7703 28.7223 69.5298 28.1626H69.5034ZM116.854 30.3218C118.609 27.4701 121.935 26.5098 124.973 27.5757H125C127.802 28.5618 129.478 31.4943 129.531 34.5327V45.0864H126.256V34.7993C126.178 31.9743 123.795 29.9222 121.019 30.3218C118.714 30.6416 117.012 32.4002 116.829 34.7456V45.0864H113.607V27.4966H116.854V30.3218ZM79.5337 45.0601H76.313V28.5894L79.5337 27.5493V45.0601ZM88.2026 27.5229H93.1528V30.5874H88.2026V39.0903C88.2027 39.6765 88.2814 40.2364 88.5171 40.7427L88.4907 40.7153C89.1979 42.2878 91.4769 41.9952 93.1792 41.9419V45.0337H90.6128C88.9628 45.0337 86.841 44.3404 85.9243 42.8745C85.2697 41.8085 84.9293 40.5826 84.9292 39.2769V30.5347H81.2632V27.4692H84.9556V21.606L88.2026 20.5132V27.5229ZM102.686 30.3745C99.4647 30.3745 96.8716 33.0133 96.8716 36.2915C96.8716 39.5697 99.4647 42.2085 102.686 42.2085C105.907 42.2084 108.5 39.5697 108.5 36.2915C108.5 33.0133 105.907 30.3746 102.686 30.3745ZM34.2778 38.77H30.2964L22.9897 27.2026L26.9448 27.1763L34.2778 38.77ZM53.7632 30.2417C51.118 30.1617 48.8656 32.0009 48.2632 34.6128H59.106C58.5298 31.9742 56.3298 30.2417 53.7632 30.2417ZM140.111 30.2144C137.501 30.2411 135.334 31.9886 134.723 34.5854H145.533C144.956 31.8937 142.704 30.2144 140.111 30.2144ZM77.9106 20.8599C79.0103 20.8601 79.9271 21.7925 79.9272 22.9116C79.9272 24.0309 79.0104 24.9641 77.9106 24.9644C76.8107 24.9644 75.894 24.031 75.894 22.9116C75.8942 21.7923 76.7846 20.8599 77.9106 20.8599Z" fill="black"/>
</svg>
