<svg width="61" height="55" viewBox="0 0 61 55" fill="none" xmlns="http://www.w3.org/2000/svg">
<path fill-rule="evenodd" clip-rule="evenodd" d="M25.5513 44.7393C25.5839 44.7528 25.6307 44.7712 25.6914 44.7935L25.7229 44.8049C25.9113 44.8729 26.1336 44.9416 26.3874 45.006C27.0544 45.1754 27.8085 45.2838 28.6363 45.3014C28.9186 45.3074 29.1369 45.524 29.1134 45.7748C29.1059 45.8555 29.0855 45.9837 29.0458 46.1447C28.9802 46.4112 28.8817 46.6783 28.7419 46.9315L28.7164 46.9768C28.2759 47.7421 27.5397 48.2089 26.4995 48.1739L26.4657 48.1723L26.4912 48.1715C25.2904 48.2255 24.7107 47.5114 24.6482 46.4465C24.628 46.1031 24.6607 45.7442 24.7274 45.388C24.7407 45.3175 24.7545 45.2509 24.7688 45.1878L24.7905 45.0962L24.8084 45.0261C24.8703 44.7503 25.2025 44.5997 25.4866 44.7116L25.5513 44.7393ZM25.664 45.7193L25.6528 45.8005C25.6266 46.0079 25.6166 46.2113 25.6278 46.4014C25.6655 47.0435 25.8928 47.3235 26.4417 47.2988L26.4684 47.2983L26.495 47.299C27.1531 47.3332 27.5767 47.0622 27.8617 46.546L27.8986 46.4761C27.9461 46.3819 27.9868 46.2839 28.0211 46.1842L28.0324 46.1497L27.9077 46.1404C27.2651 46.0886 26.6669 45.9867 26.1186 45.8474C25.9904 45.8149 25.8688 45.7813 25.7539 45.7469L25.664 45.7193Z" fill="#2E186A"/>
<path fill-rule="evenodd" clip-rule="evenodd" d="M6.24197 39.1954C6.24197 39.1954 1.288 41.0316 3.93666 44.7038C6.58532 48.376 11.0815 44.1355 11.0815 44.1355L7.84425 38.7291L6.24197 39.1954Z" fill="white"/>
<path fill-rule="evenodd" clip-rule="evenodd" d="M8.27784 38.5233L11.5151 43.9297C11.6144 44.0954 11.5837 44.2992 11.4389 44.4358L11.3584 44.5093C11.2793 44.5799 11.1704 44.6728 11.0346 44.7823C10.7204 45.0358 10.3702 45.2889 9.99145 45.5259C8.84188 46.245 7.67727 46.6693 6.54886 46.636C5.36011 46.6009 4.32518 46.0497 3.52492 44.9402C2.01456 42.8462 2.57531 41.0597 4.38697 39.7168C4.74975 39.4478 5.13632 39.2186 5.52305 39.0275L5.62025 38.9802C5.80838 38.8902 5.9581 38.8275 6.0545 38.7918C6.06635 38.7874 6.07839 38.7834 6.09059 38.7799L7.69286 38.3136C7.91913 38.2477 8.16577 38.3362 8.27784 38.5233ZM7.60691 39.2582L6.41731 39.6044L6.34429 39.6341L6.32152 39.6437C6.22507 39.6845 6.11668 39.734 5.99941 39.7919C5.66323 39.958 5.32688 40.1575 5.01493 40.3887C3.55178 41.4733 3.13929 42.7875 4.3508 44.4672C4.98099 45.3409 5.72389 45.7365 6.58201 45.7619C7.45594 45.7877 8.43697 45.4302 9.42856 44.81C9.77193 44.5952 10.0912 44.3643 10.377 44.1338L10.4773 44.0517L7.60691 39.2582Z" fill="#2E186A"/>
<path fill-rule="evenodd" clip-rule="evenodd" d="M14.9071 21.6503C16.4439 20.98 26.6461 20.1202 28.9188 23.7779C32.859 30.1315 35.0826 37.8985 35.7366 41.5708C36.3906 45.243 18.4549 49.7313 17.3432 49.775C16.2314 49.8187 14.6128 49.2067 14.6128 49.2067L7.69684 39.7492C7.71319 39.7492 1.23871 27.6542 14.9071 21.6503Z" fill="white"/>
<path fill-rule="evenodd" clip-rule="evenodd" d="M21.6669 20.6542C25.3876 20.849 28.1734 21.7459 29.315 23.5121L29.3491 23.5659C32.7096 28.9845 35.2941 36.291 36.2221 41.5017C36.5651 43.4278 33.2919 45.3595 27.5567 47.3788L27.3822 47.4401C23.5552 48.7771 18.2789 50.1753 17.3659 50.2112C17.0763 50.2226 16.7547 50.1973 16.4047 50.1414C16.0707 50.088 15.7195 50.0082 15.361 49.9089C15.1647 49.8546 14.9759 49.7971 14.7985 49.7391L14.6934 49.7042C14.568 49.6619 14.4752 49.6286 14.4223 49.6086C14.3326 49.5747 14.2562 49.5177 14.203 49.4449L7.28703 39.9874L7.2726 39.9665C7.26348 39.9524 7.25536 39.9382 7.2482 39.9238L7.23672 39.8985L7.18379 39.7902C7.1283 39.6747 7.06958 39.5471 7.00593 39.4015C6.82122 38.9788 6.63847 38.5035 6.46777 37.9785C5.49544 34.9878 5.32945 31.8546 6.48948 28.9046C7.72557 25.7611 10.3834 23.1499 14.6913 21.2577C15.6964 20.8193 18.8854 20.5085 21.6669 20.6542ZM28.5921 24.1525L28.4915 23.9893C27.5843 22.5292 25.0616 21.7078 21.6101 21.5271C18.9826 21.3896 15.9425 21.6858 15.1245 22.0426C11.0446 23.8347 8.56566 26.27 7.41596 29.1938C6.33353 31.9466 6.4902 34.904 7.41069 37.7353C7.5594 38.1926 7.71743 38.6095 7.87714 38.9834L7.92073 39.0843C7.97035 39.1978 8.01655 39.2992 8.0603 39.3916L8.13274 39.5414L14.9414 48.8521L15.0411 48.8865C15.2307 48.9504 15.4372 49.0144 15.6526 49.074C15.9751 49.1633 16.2882 49.2345 16.5785 49.2809C16.8624 49.3262 17.1143 49.3461 17.3234 49.3378C18.0932 49.3076 23.2967 47.9286 27.0248 46.6261L27.3399 46.5152C32.4444 44.7028 35.4792 42.9035 35.254 41.6389C34.352 36.5745 31.8438 29.4581 28.5921 24.1525Z" fill="#2E186A"/>
<path fill-rule="evenodd" clip-rule="evenodd" d="M9.31548 39.0935C10.4763 39.5452 14.5964 43.0135 16.0189 44.8059C16.0189 44.8059 20.8093 41.1919 28.6899 38.3066C28.6899 38.3066 33.0389 36.8639 34.9681 36.7182C34.9681 36.7182 37.6985 43.8732 35.802 48.7404C33.9054 53.6076 26.0576 55.196 21.6104 54.2196C17.1633 53.2578 16.1333 52.4126 14.2858 50.3579C12.4546 48.3032 6.47063 40.3176 6.47063 40.3176L9.31548 39.0935Z" fill="#968BB4"/>
<path fill-rule="evenodd" clip-rule="evenodd" d="M22.8883 36.9637C22.6499 36.4246 22.7699 35.8775 23.1563 35.7418C23.5427 35.606 24.0492 35.933 24.2876 36.472C24.526 37.0111 24.406 37.5582 24.0196 37.6939C23.6332 37.8297 23.1267 37.5027 22.8883 36.9637Z" fill="#2E186A"/>
<path fill-rule="evenodd" clip-rule="evenodd" d="M28.1293 35.2972C27.9893 35.0905 27.6878 35.024 27.4559 35.1487C27.2326 35.2689 27.1551 35.5225 27.2747 35.7257L27.2893 35.7489L30.4781 40.4587L28.3379 41.2545C28.0969 41.3442 27.9784 41.5854 28.0638 41.8023L28.0741 41.8263C28.1747 42.0412 28.4453 42.1468 28.6887 42.0707L28.7156 42.0615L31.3806 41.0706C31.6479 40.9712 31.7591 40.6895 31.6263 40.4643L31.6117 40.4412L28.1293 35.2972Z" fill="#2E186A"/>
<path fill-rule="evenodd" clip-rule="evenodd" d="M29.7164 35.1957C29.478 34.6566 29.598 34.1096 29.9844 33.9738C30.3708 33.8381 30.8773 34.165 31.1157 34.7041C31.3541 35.2432 31.2342 35.7902 30.8478 35.926C30.4613 36.0617 29.9548 35.7348 29.7164 35.1957Z" fill="#2E186A"/>
<path fill-rule="evenodd" clip-rule="evenodd" d="M21.9581 31.344C21.8972 31.1088 21.6338 30.9621 21.3699 31.0164C20.4524 31.2051 19.7345 31.6168 19.2016 32.1814C18.938 32.4606 18.737 32.7588 18.5894 33.0579C18.499 33.2411 18.4452 33.3884 18.4199 33.4827C18.3568 33.7175 18.5193 33.9534 18.7827 34.0096C19.0368 34.0638 19.292 33.9311 19.3664 33.711L19.3804 33.6653C19.3839 33.6547 19.3888 33.6406 19.3951 33.6233C19.4182 33.5601 19.4487 33.4883 19.4873 33.41C19.5992 33.1833 19.7525 32.9558 19.9522 32.7443C20.353 32.3198 20.8883 32.0127 21.5904 31.8683C21.8544 31.814 22.019 31.5793 21.9581 31.344Z" fill="#2E186A"/>
<path fill-rule="evenodd" clip-rule="evenodd" d="M29.4071 28.7931C28.8348 28.6913 28.2518 28.7988 27.6895 29.033C27.4453 29.1347 27.2574 29.2375 27.1429 29.3119C26.924 29.4541 26.8759 29.7276 27.0355 29.9227C27.1889 30.1103 27.4785 30.1572 27.6951 30.034L27.7612 29.9941C27.7758 29.9856 27.7938 29.9754 27.8149 29.9639C27.9008 29.9168 27.9984 29.8694 28.1047 29.8251C28.4948 29.6627 28.882 29.5913 29.2151 29.6506C29.4744 29.6967 29.7032 29.8218 29.9083 30.0529C30.0763 30.2423 30.3847 30.2744 30.5972 30.1247C30.8097 29.9749 30.8458 29.7 30.6778 29.5106C30.3285 29.1169 29.8951 28.8799 29.4071 28.7931Z" fill="#2E186A"/>
<path fill-rule="evenodd" clip-rule="evenodd" d="M7.71407 41.3812C7.71407 41.3812 3.93729 38.9767 1.55023 35.9311C-0.689682 33.0749 -0.509834 29.1841 2.13882 26.6048C4.36238 24.4481 7.02738 24.0983 7.02738 24.0983C7.02738 24.0983 2.64566 20.2075 6.0137 15.078C7.19088 13.2711 9.18554 11.9741 11.4745 11.5078C17.0661 10.3566 20.0091 14.1454 20.0091 14.1454C20.0091 14.1454 23.1155 3.0267 36.9801 5.95575C38.3861 6.2472 40.2337 7.54414 41.2146 8.49134C47.1823 14.1746 36.1953 25.0893 29.4755 27.3188C22.0855 29.767 17.7855 29.1112 14.7281 28.3389C16.8863 28.6449 19.2243 39.0642 7.71407 41.3812Z" fill="#2E186A"/>
<circle cx="49.7911" cy="14.2159" r="10.7712" fill="#FF8D7E" fill-opacity="0.3"/>
<g clip-path="url(#clip0_12568_47203)">
<path d="M56.7635 15.1136C56.7635 11.2358 53.6039 8.09984 49.7286 8.15802C46.0199 8.2133 42.9805 11.2504 42.9081 14.974C42.8574 17.5936 44.2496 19.8903 46.3401 21.1194C46.9746 21.4918 47.3773 22.1623 47.3773 22.9012V25.6605H52.2942V22.9012C52.2942 22.1638 52.6955 21.4932 53.3301 21.1209C55.3843 19.9136 56.765 17.6765 56.765 15.1136H56.7635Z" fill="#FF8D7E"/>
<path d="M47.4208 25.2125H52.3377V26.5594C52.3377 27.9223 51.2367 29.0278 49.8792 29.0278C48.5218 29.0278 47.4208 27.9223 47.4208 26.5594V25.2125Z" fill="#2E186A"/>
<path d="M48.7306 24.3139V17.042C48.7306 16.5974 48.3547 16.2355 47.8886 16.2355C47.4245 16.2355 47.0467 16.5956 47.0467 17.042V17.1302C47.0467 17.5748 47.4226 17.9368 47.8886 17.9368H51.5903C52.0544 17.9368 52.4323 17.5767 52.4323 17.1302V17.042C52.4323 16.5974 52.0564 16.2355 51.5903 16.2355H51.5519C51.0878 16.2355 50.71 16.5956 50.71 17.042V24.3139" stroke="white" stroke-width="1.4" stroke-linecap="round" stroke-linejoin="round"/>
<path d="M49.8792 5.35224V1.76099" stroke="#FF8D7E" stroke-width="1.4" stroke-linecap="round" stroke-linejoin="round"/>
<path d="M55.9899 7.40748L58.5193 4.86786" stroke="#FF8D7E" stroke-width="1.4" stroke-linecap="round" stroke-linejoin="round"/>
<path d="M41.6854 4.86786L44.2148 7.40748" stroke="#FF8D7E" stroke-width="1.4" stroke-linecap="round" stroke-linejoin="round"/>
</g>
<defs>
<clipPath id="clip0_12568_47203">
<rect width="20.8693" height="29.6209" fill="white" transform="translate(39.5379 0.0786133)"/>
</clipPath>
</defs>
</svg>
