<svg width="120" height="60" viewBox="0 0 120 60" fill="none" xmlns="http://www.w3.org/2000/svg">
<path fill-rule="evenodd" clip-rule="evenodd" d="M65.16 23.8354C64.0909 24.7865 45.7484 37.4186 45.7484 37.4186L34.3647 21.6756C34.3647 21.6756 32.5136 19.278 31.0486 19.0006C29.0688 18.634 23.5354 19.7535 23.6838 22.3592C23.6343 23.1815 28.5838 22.4583 29.1381 26.4213L30.8209 27.9668C30.8209 27.9668 35.6614 38.6174 37.9877 43.8089C42.363 53.3003 51.6778 50.1993 54.3109 48.3168C60.0027 44.2449 69.3967 38.231 69.3967 38.231L65.16 23.8354Z" fill="white"/>
<path fill-rule="evenodd" clip-rule="evenodd" d="M26.4118 19.305C24.5039 19.98 23.3343 21.0135 23.3851 22.3356L23.3862 22.361L23.3871 22.3413C23.3726 22.5808 23.5133 22.7531 23.7427 22.8704C23.8807 22.941 24.057 22.9974 24.3138 23.0597L24.4273 23.0861C24.6355 23.1329 25.1294 23.2396 25.2825 23.2753C25.6818 23.3685 26.0165 23.4628 26.3349 23.5776C27.7721 24.0963 28.6341 24.9645 28.8437 26.4625L28.8472 26.4828C28.86 26.5432 28.8913 26.5983 28.937 26.6403L30.5753 28.145L32.373 32.1051C32.7994 33.0452 33.2237 33.981 33.6405 34.9009L35.7026 39.4585C36.5074 41.2403 37.1881 42.7515 37.7164 43.9306C39.7287 48.296 42.92 50.4127 46.786 50.6248C49.6235 50.7806 52.719 49.8199 54.4831 48.5587L54.8446 48.301C56.0401 47.4517 57.4349 46.4884 58.9956 45.4315L59.5026 45.0887C59.6325 45.0011 59.7633 44.913 59.895 44.8244L60.4264 44.4674C62.2967 43.2132 64.273 41.9097 66.2543 40.6183L67.1209 40.0544C67.5406 39.7818 67.9418 39.5219 68.3212 39.2767L69.5564 38.4814C69.6677 38.4101 69.7186 38.2739 69.6812 38.147L65.4445 23.7514C65.383 23.5424 65.1251 23.4685 64.9624 23.6133L64.9324 23.6391C64.394 24.0933 61.0194 26.4749 55.7684 30.1248L54.3163 31.1333C52.7295 32.2344 51.074 33.3806 49.4091 34.5311L45.8185 37.0091L34.6049 21.5013L34.5734 21.4608L34.522 21.3964L34.5023 21.3721C34.4255 21.2775 34.3376 21.1723 34.2397 21.0591C33.9603 20.7358 33.6569 20.4124 33.3395 20.1098C32.8721 19.6642 32.4145 19.3021 31.9768 19.0522C31.6722 18.8782 31.381 18.7611 31.1034 18.7085C30.0006 18.5043 28.0533 18.7349 26.4704 19.2845L26.4118 19.305ZM30.9943 19.2929C31.1993 19.3317 31.431 19.4249 31.6826 19.5686C32.0724 19.7912 32.4945 20.1252 32.9299 20.5403C33.2323 20.8285 33.5229 21.1383 33.7906 21.448L33.8685 21.5389C33.9063 21.5834 33.9422 21.6262 33.9761 21.6673L34.0598 21.7698L34.1294 21.8574L45.5075 37.5929C45.5984 37.7186 45.7697 37.7524 45.9009 37.6735L45.9723 37.625L48.9574 35.5656L51.3195 33.9327C52.5378 33.0898 53.7408 32.2563 54.9049 31.4483L57.715 29.4944C61.4407 26.8989 63.9689 25.1143 64.9521 24.376L64.9989 24.3407L69.0486 38.1011L67.9992 38.7773C67.4467 39.1343 66.8483 39.5224 66.2136 39.9356L65.6469 40.3049C63.6643 41.5987 61.6913 42.9017 59.829 44.1527L59.5637 44.3311C59.3658 44.4642 59.17 44.5962 58.9763 44.7271L58.3047 45.182C56.7268 46.2536 55.326 47.2251 54.1379 48.0751C52.4808 49.2598 49.5174 50.1794 46.8186 50.0313C43.1697 49.8311 40.1748 47.8447 38.257 43.6844L36.7378 40.3077L35.2845 37.0917L33.6781 33.5446L31.0909 27.8438L31.0802 27.8225C31.0647 27.7947 31.0449 27.7695 31.0214 27.7479L29.4158 26.2732L29.4071 26.2204C29.1242 24.5741 28.1133 23.5875 26.5364 23.0185C26.2162 22.9029 25.8848 22.8079 25.5005 22.7161L25.3797 22.6878C25.1623 22.6382 24.6093 22.519 24.4943 22.4917L24.4222 22.4742C24.2257 22.4255 24.0951 22.383 24.013 22.3411L23.9912 22.3293L23.979 22.3219L23.98 22.3423C23.9226 21.3337 24.9263 20.4498 26.6652 19.8461C28.1575 19.328 30.0035 19.1094 30.9943 19.2929Z" fill="#2E186A"/>
<path fill-rule="evenodd" clip-rule="evenodd" d="M25.9307 5.29849C25.8614 4.99136 25.3368 4.80311 25.0398 4.7833C24.1984 4.26811 22.2384 3.64394 18.7244 5.54618C15.3093 7.39888 12.8246 7.2998 11.3497 5.82359C11.0725 5.54618 10.5974 5.80377 10.6964 6.19016L11.815 10.8467C11.904 11.2331 12.102 11.5898 12.3693 11.8771C13.478 13.066 16.2298 13.8288 20.1993 11.6789C22.2582 10.5594 24.1489 10.4801 25.4556 10.6783L30.989 36.0613L32.6124 35.7244L25.9307 5.29849Z" fill="#FF8D7E"/>
<path fill-rule="evenodd" clip-rule="evenodd" d="M28.1083 26.0151C28.1083 26.0151 27.2372 25.708 27.3758 27.0554C27.5144 28.3929 28.7715 29.4035 30.3751 28.4325C31.9688 27.4616 31.7412 26.8771 30.8998 26.4907C30.0584 26.1043 28.5636 26.8771 28.5636 26.8771" fill="white"/>
<path fill-rule="evenodd" clip-rule="evenodd" d="M27.64 25.7308C27.8011 25.6763 27.9623 25.6772 28.1135 25.7093C28.1534 25.7178 28.1852 25.7269 28.2074 25.7348C28.3621 25.7893 28.4433 25.959 28.3888 26.1139C28.3363 26.2632 28.1767 26.3441 28.0267 26.3008L28.0073 26.2948C28.0041 26.294 27.9983 26.2925 27.9903 26.2908C27.9344 26.279 27.8754 26.2786 27.83 26.294C27.7028 26.3369 27.62 26.5227 27.6716 27.0247C27.8053 28.315 28.9424 28.9529 30.2212 28.1787L30.2987 28.1308C30.9317 27.7349 31.2317 27.4157 31.2561 27.2077C31.2716 27.0762 31.1306 26.9235 30.7764 26.7608C30.5987 26.6792 30.3513 26.6596 30.0512 26.7C29.7997 26.7339 29.5255 26.8075 29.2453 26.9092C29.1037 26.9606 28.97 27.0156 28.8487 27.0706L28.8003 27.0928C28.7773 27.1035 28.7561 27.1136 28.7368 27.123L28.7004 27.1411C28.5546 27.2165 28.3755 27.1593 28.3002 27.0135C28.225 26.8676 28.2821 26.6883 28.4278 26.613L28.4514 26.601C28.487 26.5833 28.5385 26.5586 28.6038 26.529C28.7385 26.468 28.8861 26.4072 29.0429 26.3503C29.36 26.2353 29.6735 26.1511 29.972 26.1109C30.3738 26.0568 30.7288 26.0849 31.024 26.2205C31.5861 26.4786 31.8999 26.8185 31.846 27.2771C31.7927 27.7305 31.3602 28.1806 30.5293 28.6869C28.8632 29.6956 27.2579 28.7951 27.0808 27.0858C27.0036 26.3356 27.2084 25.8766 27.64 25.7308Z" fill="#2E186A"/>
<path fill-rule="evenodd" clip-rule="evenodd" d="M27.0194 24.3109C27.0194 24.3109 25.7722 24.4001 26.0098 25.9258C26.2473 27.4516 27.9796 28.1352 29.7911 26.8571C31.5927 25.5791 31.2958 24.9252 30.2861 24.5685C29.2764 24.2118 27.5837 25.2521 27.5837 25.2521" fill="white"/>
<path fill-rule="evenodd" clip-rule="evenodd" d="M26.9985 24.0146C27.1621 24.0029 27.3042 24.1261 27.3159 24.2899C27.3272 24.4477 27.2131 24.5856 27.0582 24.6058L27.0409 24.6075C27.0254 24.6086 26.9862 24.6146 26.9318 24.6287C26.8382 24.653 26.7447 24.6914 26.6591 24.7458C26.3586 24.937 26.2098 25.2788 26.3034 25.8802C26.5183 27.2603 28.0633 27.7128 29.6197 26.6148C30.4092 26.0546 30.7784 25.6205 30.7968 25.3474C30.8085 25.1737 30.6249 25.0034 30.1875 24.8489C29.9762 24.7743 29.6952 24.773 29.3617 24.8408C29.0747 24.8991 28.7632 25.0052 28.4436 25.1454C28.2626 25.2248 28.0906 25.31 27.9336 25.3951L27.8708 25.4296C27.8509 25.4407 27.832 25.4514 27.8141 25.4617L27.7393 25.5055C27.5996 25.5914 27.4167 25.5477 27.3309 25.4078C27.2451 25.2679 27.2888 25.0849 27.4285 24.999L27.4527 24.9843C27.4975 24.9575 27.5646 24.9191 27.6507 24.8724C27.8215 24.7799 28.0081 24.6874 28.2051 24.601C28.5605 24.4451 28.9104 24.3259 29.2435 24.2582C29.6733 24.1708 30.0576 24.1726 30.3852 24.2883C31.0451 24.5215 31.424 24.8729 31.3894 25.3874C31.3553 25.8941 30.8879 26.4437 29.9625 27.1002C28.073 28.4333 26.0056 27.8278 25.7166 25.9717C25.5871 25.14 25.8379 24.5639 26.3405 24.2441C26.4824 24.1539 26.6325 24.0923 26.7827 24.0533C26.8745 24.0294 26.949 24.0181 26.9985 24.0146Z" fill="#2E186A"/>
<path fill-rule="evenodd" clip-rule="evenodd" d="M27.8412 21.5071C27.8412 21.5071 24.7627 22.805 25.0101 24.41C25.2576 26.0051 27.1483 26.6689 29.0291 25.3314C30.9098 23.9939 30.603 23.3202 29.5537 22.9437C28.5044 22.5672 26.7325 23.657 26.7325 23.657" fill="white"/>
<path fill-rule="evenodd" clip-rule="evenodd" d="M27.7259 21.2332C27.877 21.1695 28.0512 21.2405 28.1148 21.3918C28.1762 21.5376 28.1125 21.7049 27.9723 21.7738L27.8887 21.8109L27.8429 21.8317C27.7492 21.8748 27.6445 21.9254 27.5315 21.9831C27.2089 22.1478 26.8864 22.3354 26.5868 22.5416C25.6964 23.1547 25.2147 23.7884 25.3035 24.3644C25.526 25.7986 27.2203 26.2531 28.857 25.0891C29.6852 24.5002 30.0733 24.0451 30.0939 23.7561C30.1072 23.569 29.9138 23.3887 29.4534 23.2235C29.2304 23.1435 28.9333 23.1422 28.5802 23.2147C28.2814 23.2761 27.9574 23.3869 27.6248 23.533C27.4356 23.6161 27.2557 23.7054 27.0915 23.7945C27.0571 23.8132 27.025 23.831 26.9953 23.8478L26.9069 23.8989C26.8983 23.904 26.892 23.9078 26.888 23.9103C26.7482 23.9962 26.5653 23.9525 26.4795 23.8127C26.3936 23.6728 26.4373 23.4898 26.577 23.4038L26.6329 23.3704C26.6719 23.3476 26.722 23.3192 26.782 23.2863L26.8083 23.272C26.9863 23.1754 27.1808 23.0789 27.3861 22.9887C27.7541 22.827 28.1162 22.7032 28.4608 22.6324C28.9113 22.5399 29.313 22.5416 29.6539 22.6639C30.3362 22.9088 30.7239 23.2702 30.6863 23.7983C30.6492 24.3199 30.1637 24.8891 29.201 25.5737C27.2361 26.9711 25.0144 26.3751 24.7166 24.4554C24.5818 23.5811 25.1885 22.7828 26.2502 22.0519C26.5731 21.8296 26.9174 21.6293 27.2617 21.4535C27.3821 21.392 27.4941 21.3379 27.595 21.2916L27.6812 21.2526C27.6998 21.2444 27.7147 21.2379 27.7259 21.2332Z" fill="#2E186A"/>
<path fill-rule="evenodd" clip-rule="evenodd" d="M23.6839 22.3592C23.9611 24.1624 26.0992 24.9054 28.2275 23.4094C30.3557 21.9035 29.9994 21.1307 28.8115 20.7146C27.6236 20.2984 26.0695 21.844 26.0695 21.844" fill="white"/>
<path fill-rule="evenodd" clip-rule="evenodd" d="M28.0575 20.3729C28.3579 20.324 28.644 20.3411 28.9095 20.4341C29.6667 20.6993 30.0971 21.097 30.0593 21.6728C30.0214 22.25 29.4785 22.8882 28.398 23.6527C26.1929 25.2028 23.7183 24.5386 23.3903 22.4044C23.3653 22.2422 23.4765 22.0904 23.6386 22.0655C23.8007 22.0405 23.9524 22.1518 23.9773 22.314C24.2307 23.9627 26.1796 24.4857 28.0559 23.1667L28.1457 23.1026C29.0281 22.4653 29.4448 21.9656 29.4666 21.6338C29.482 21.3989 29.2477 21.1823 28.7133 20.9951C28.5473 20.937 28.3603 20.9259 28.1527 20.9596C27.7922 21.0183 27.3894 21.2081 26.9779 21.4892C26.7956 21.6138 26.6242 21.7477 26.4692 21.8815C26.426 21.9188 26.3866 21.9539 26.3515 21.9862L26.2824 22.0513C26.281 22.0527 26.2798 22.0539 26.2787 22.0549C26.1624 22.1706 25.9744 22.17 25.8588 22.0535C25.7432 21.9371 25.7438 21.7489 25.8601 21.6332L25.8947 21.5996C25.9388 21.5575 26.0017 21.5 26.0812 21.4314C26.2522 21.2838 26.441 21.1364 26.643 20.9983C27.1201 20.6723 27.5964 20.4479 28.0575 20.3729Z" fill="#2E186A"/>
<path fill-rule="evenodd" clip-rule="evenodd" d="M29.2963 19.6248C29.2963 19.6248 26.8711 16.7813 27.8016 15.1862C28.7321 13.601 29.2369 16.4643 30.108 16.6525C30.9791 16.8408 34.3645 21.6657 34.3645 21.6657" fill="white"/>
<path fill-rule="evenodd" clip-rule="evenodd" d="M27.5458 15.0356C27.8456 14.5249 28.194 14.3075 28.5816 14.4562C28.8365 14.5541 29.0293 14.775 29.2842 15.1833L29.3091 15.2234C29.3263 15.2514 29.344 15.2804 29.3629 15.3118L29.538 15.6057C29.8382 16.1048 30.0151 16.3202 30.1609 16.3595L30.171 16.362C30.6003 16.4548 31.3 17.1749 32.3267 18.4512L32.3669 18.5012C32.4884 18.6527 32.613 18.8103 32.7402 18.9734C33.1274 19.47 33.5243 19.9982 33.9131 20.5294L34.0424 20.7065C34.1593 20.8673 34.2689 21.0191 34.3696 21.1597L34.6078 21.4949C34.7021 21.6292 34.6697 21.8146 34.5355 21.9089C34.4013 22.0033 34.216 21.9709 34.1218 21.8365L33.9702 21.6227L33.7991 21.3838C33.7393 21.3006 33.6766 21.2139 33.6116 21.1243L33.5623 21.0565C33.1361 20.4708 32.6978 19.8852 32.272 19.3391C32.1715 19.2103 32.0728 19.085 31.976 18.9636L31.8356 18.7886C30.9651 17.7106 30.286 17.0093 30.0544 16.9452L30.0456 16.943C29.6728 16.8625 29.4475 16.6049 29.0556 15.9563L28.893 15.6833C28.859 15.6263 28.8306 15.5793 28.8036 15.5355L28.7635 15.4713C28.5866 15.1923 28.4579 15.0454 28.3689 15.0113C28.3501 15.0041 28.3421 15.0049 28.313 15.0231C28.245 15.0655 28.1573 15.1674 28.0583 15.3361C27.8437 15.704 27.8329 16.1971 28.0081 16.7949C28.1434 17.2567 28.3826 17.757 28.6963 18.2705C28.8776 18.5674 29.0723 18.85 29.2669 19.1082L29.3239 19.1832C29.3518 19.2195 29.3786 19.2539 29.4044 19.2864L29.4542 19.3489C29.4875 19.3901 29.5108 19.4181 29.5225 19.4318C29.6289 19.5566 29.6141 19.7442 29.4894 19.8508C29.3695 19.9533 29.1915 19.9435 29.0834 19.8317L29.0707 19.8177C29.0576 19.8023 29.0355 19.7758 29.0055 19.7389L28.9922 19.7224C28.9319 19.6476 28.8648 19.5618 28.7927 19.4661C28.5872 19.1933 28.3817 18.8951 28.1896 18.5806C27.8509 18.0261 27.5901 17.4808 27.4381 16.9622C27.2212 16.2219 27.2356 15.5675 27.5458 15.0356Z" fill="#2E186A"/>
<path fill-rule="evenodd" clip-rule="evenodd" d="M119.703 58.8783C118.139 55.6385 106.804 48.0197 106.804 48.0197L97.8163 58.8783H119.703Z" fill="white"/>
<path fill-rule="evenodd" clip-rule="evenodd" d="M106.576 47.8301L97.5876 58.6887C97.4273 58.8825 97.565 59.1756 97.8163 59.1756H119.703C119.922 59.1756 120.065 58.9464 119.97 58.749C119.431 57.6324 117.824 56.0154 115.375 53.9958L115.3 53.9345C114.744 53.477 114.15 53.0042 113.525 52.5188C112.091 51.4061 110.555 50.2781 109.019 49.1927L108.623 48.914C108.3 48.687 107.993 48.4734 107.705 48.2749L107.289 47.9899L106.97 47.773C106.843 47.6879 106.673 47.7126 106.576 47.8301ZM98.4482 58.5811L106.861 48.4171L107.097 48.5782L107.455 48.8242C107.832 49.0849 108.242 49.3709 108.677 49.6783C110.206 50.759 111.735 51.8818 113.161 52.9886C113.782 53.4707 114.371 53.94 114.923 54.3938L115.136 54.5693C117.13 56.2232 118.536 57.598 119.188 58.5811H98.4482Z" fill="#2E186A"/>
<path fill-rule="evenodd" clip-rule="evenodd" d="M99.1129 40.2027C93.5893 35.9821 75.128 24.6876 73.0195 23.4788C70.327 21.9333 63.3484 22.8844 53.9049 28.5317L55.0135 40.2126L40.7394 58.8783H99.2515L107.675 48.0197L99.1129 40.2027Z" fill="#FFC29E"/>
<path fill-rule="evenodd" clip-rule="evenodd" d="M81.097 24.6578L76.7019 29.9187C74.3262 32.7622 74.6231 37.0323 77.4443 39.4398C77.4938 39.4794 77.5433 39.5191 77.5928 39.5587C79.8695 41.4114 82.8788 40.6584 84.809 39.8361C85.9375 39.3606 86.9175 38.568 87.6401 37.5772L91.8471 31.7912L81.097 24.6578Z" fill="white"/>
<path fill-rule="evenodd" clip-rule="evenodd" d="M80.8691 24.4672L76.474 29.7281C73.9831 32.7093 74.3188 37.1633 77.2515 39.666L77.4072 39.7908C78.5154 40.6926 79.8519 41.0669 81.3445 40.9975C82.5168 40.9429 83.7284 40.6195 84.9253 40.1096C86.0924 39.6177 87.1188 38.7959 87.8799 37.7525L92.0871 31.9661C92.1866 31.8293 92.1521 31.637 92.0111 31.5435L81.261 24.4101C81.1349 24.3264 80.9661 24.351 80.8691 24.4672ZM81.154 25.0524L91.4241 31.8673L87.3997 37.4023C86.7019 38.3591 85.7613 39.1122 84.6935 39.5622C83.5556 40.0469 82.4099 40.3528 81.3167 40.4037C79.9839 40.4656 78.8075 40.1434 77.8286 39.3673L77.6295 39.2077C74.9537 36.924 74.646 32.8423 76.9294 30.1094L81.154 25.0524Z" fill="#2E186A"/>
<path fill-rule="evenodd" clip-rule="evenodd" d="M97.5687 23.9147C97.5687 23.9147 100.568 25.163 98.9645 27.6597C97.3609 30.1564 94.6387 27.2733 94.6387 27.2733L96.5987 23.5977L97.5687 23.9147Z" fill="white"/>
<path fill-rule="evenodd" clip-rule="evenodd" d="M96.3366 23.4577L94.3766 27.1334C94.3165 27.2461 94.3351 27.3847 94.4227 27.4775L94.4715 27.5275C94.5194 27.5755 94.5853 27.6387 94.6675 27.7131C94.8577 27.8854 95.0698 28.0576 95.2991 28.2187C95.9951 28.7076 96.7002 28.996 97.3834 28.9734C98.1031 28.9495 98.7297 28.5748 99.2142 27.8205C100.129 26.3968 99.7892 25.1822 98.6923 24.2691C98.4726 24.0863 98.2386 23.9304 98.0045 23.8005L97.9456 23.7684C97.8317 23.7072 97.7411 23.6646 97.6827 23.6403C97.6755 23.6373 97.6682 23.6346 97.6608 23.6322L96.6907 23.3151C96.5538 23.2704 96.4044 23.3305 96.3366 23.4577ZM96.7432 23.9575L97.4634 24.1929L97.5076 24.2131L97.5214 24.2196C97.5798 24.2474 97.6454 24.281 97.7164 24.3204C97.92 24.4334 98.1236 24.569 98.3125 24.7262C99.1984 25.4636 99.4481 26.3571 98.7146 27.499C98.333 28.0931 97.8833 28.3621 97.3637 28.3793C96.8346 28.3968 96.2406 28.1538 95.6403 27.7321C95.4324 27.5861 95.2391 27.4291 95.066 27.2724L95.0053 27.2166L96.7432 23.9575Z" fill="#2E186A"/>
<path fill-rule="evenodd" clip-rule="evenodd" d="M92.3221 11.9861C91.3916 11.5304 85.2148 10.9458 83.8388 13.4326C81.4532 17.7523 80.107 23.033 79.711 25.5297C79.3151 28.0264 90.1741 31.0779 90.8472 31.1076C91.5203 31.1373 92.5003 30.7212 92.5003 30.7212L96.6875 24.2912C96.6776 24.2912 100.598 16.068 92.3221 11.9861Z" fill="white"/>
<path fill-rule="evenodd" clip-rule="evenodd" d="M88.23 11.3091C85.9774 11.4416 84.2907 12.0513 83.5995 13.2522L83.5788 13.2887C81.5443 16.9727 79.9795 21.9403 79.4176 25.483C79.2099 26.7925 81.1917 28.1059 84.6641 29.4788L84.7697 29.5204C87.0867 30.4294 90.2813 31.38 90.834 31.4044C91.0094 31.4122 91.2041 31.395 91.416 31.357C91.6182 31.3207 91.8308 31.2664 92.0479 31.1989C92.1667 31.162 92.2811 31.1229 92.3885 31.0835L92.4521 31.0597C92.528 31.031 92.5842 31.0083 92.6162 30.9947C92.6705 30.9717 92.7168 30.9329 92.749 30.8834L96.9362 24.4534L96.945 24.4392C96.9505 24.4297 96.9554 24.42 96.9597 24.4102L96.9667 24.393L96.9987 24.3194C97.0323 24.2408 97.0679 24.1541 97.1064 24.0551C97.2183 23.7677 97.3289 23.4446 97.4322 23.0876C98.0209 21.0543 98.1214 18.9241 97.4191 16.9184C96.6707 14.7812 95.0615 13.0059 92.4533 11.7194C91.8448 11.4214 89.914 11.2101 88.23 11.3091ZM84.0377 13.6875L84.0986 13.5765C84.6479 12.5838 86.1752 12.0254 88.2649 11.9026C89.8557 11.809 91.6963 12.0104 92.1916 12.253C94.6617 13.4714 96.1626 15.1272 96.8587 17.115C97.514 18.9866 97.4192 20.9973 96.8619 22.9222C96.7718 23.2332 96.6761 23.5166 96.5795 23.7708L96.5531 23.8394C96.523 23.9166 96.495 23.9854 96.4686 24.0483L96.4247 24.1502L92.3024 30.4804L92.2421 30.5037C92.1273 30.5472 92.0023 30.5907 91.8718 30.6312C91.6766 30.6919 91.487 30.7403 91.3112 30.7718C91.1393 30.8027 90.9868 30.8162 90.8603 30.8106C90.3942 30.79 87.2437 29.8525 84.9866 28.9669L84.7958 28.8915C81.7053 27.6593 79.8679 26.436 80.0043 25.5762C80.5503 22.133 82.0689 17.2947 84.0377 13.6875Z" fill="#2E186A"/>
<path fill-rule="evenodd" clip-rule="evenodd" d="M95.708 23.8454C95.0052 24.1525 92.5106 26.5105 91.6494 27.7291C91.6494 27.7291 88.7491 25.2721 83.9778 23.3104C83.9778 23.3104 81.3447 22.3295 80.1767 22.2305C80.1767 22.2305 78.5236 27.0951 79.6718 30.4042C80.8201 33.7133 85.5715 34.7932 88.264 34.1294C90.9565 33.4755 91.5801 32.9008 92.6987 31.5039C93.8074 30.1069 97.4304 24.6776 97.4304 24.6776L95.708 23.8454Z" fill="#968BB4"/>
<path fill-rule="evenodd" clip-rule="evenodd" d="M96.6778 25.4009C96.6778 25.4009 98.9645 23.7661 100.41 21.6955C101.766 19.7536 101.657 17.1083 100.053 15.3547C98.7071 13.8884 97.0936 13.6506 97.0936 13.6506C97.0936 13.6506 99.7465 11.0053 97.7073 7.51783C96.9946 6.2893 95.7869 5.40754 94.4011 5.0905C91.0157 4.30781 89.2339 6.88375 89.2339 6.88375C89.2339 6.88375 87.3531 -0.675668 78.9589 1.31574C78.1076 1.51389 76.989 2.39566 76.3951 3.03964C72.782 6.90357 79.434 14.3243 83.5024 15.8401C87.9767 17.5046 90.5801 17.0588 92.4312 16.5337C91.1246 16.7417 89.709 23.8256 96.6778 25.4009Z" fill="#2E186A"/>
<path fill-rule="evenodd" clip-rule="evenodd" d="M84.3175 21.2646C84.4022 21.124 84.5848 21.0788 84.7252 21.1636C84.8604 21.2453 84.9073 21.4177 84.8349 21.5559L84.826 21.5717L82.8954 24.7738L84.1912 25.3149C84.3371 25.3758 84.4088 25.5398 84.3572 25.6873L84.3509 25.7036C84.29 25.8497 84.1261 25.9215 83.9788 25.8697L83.9625 25.8635L82.349 25.1898C82.1871 25.1222 82.1199 24.9307 82.2002 24.7776L82.2091 24.7619L84.3175 21.2646Z" fill="#2E186A"/>
<path fill-rule="evenodd" clip-rule="evenodd" d="M83.3564 21.1954C83.5008 20.8289 83.4281 20.457 83.1942 20.3647C82.9602 20.2724 82.6536 20.4947 82.5092 20.8612C82.3649 21.2277 82.4375 21.5996 82.6715 21.6919C82.9054 21.7842 83.2121 21.5619 83.3564 21.1954Z" fill="#2E186A"/>
<path fill-rule="evenodd" clip-rule="evenodd" d="M87.4902 22.3974C87.6346 22.0309 87.5619 21.659 87.328 21.5667C87.094 21.4744 86.7873 21.6967 86.643 22.0632C86.4987 22.4297 86.5713 22.8016 86.8053 22.8939C87.0392 22.9862 87.3459 22.7639 87.4902 22.3974Z" fill="#2E186A"/>
<path fill-rule="evenodd" clip-rule="evenodd" d="M88.0539 18.5771C88.0908 18.4172 88.2502 18.3174 88.41 18.3544C88.9655 18.4827 89.4001 18.7626 89.7228 19.1464C89.8824 19.3362 90.004 19.539 90.0934 19.7424C90.1482 19.8669 90.1807 19.9671 90.1961 20.0312C90.2342 20.1908 90.1359 20.3512 89.9764 20.3894C89.8226 20.4263 89.6681 20.336 89.623 20.1864L89.6145 20.1553C89.6124 20.1481 89.6094 20.1386 89.6056 20.1268C89.5916 20.0838 89.5732 20.035 89.5498 19.9818C89.482 19.8276 89.3892 19.673 89.2683 19.5291C89.0257 19.2405 88.7016 19.0318 88.2765 18.9336C88.1167 18.8967 88.017 18.7371 88.0539 18.5771Z" fill="#2E186A"/>
<path fill-rule="evenodd" clip-rule="evenodd" d="M83.5438 16.8423C83.8903 16.7731 84.2433 16.8461 84.5837 17.0053C84.7316 17.0745 84.8453 17.1444 84.9147 17.195C85.0472 17.2917 85.0763 17.4776 84.9797 17.6103C84.8868 17.7378 84.7115 17.7697 84.5803 17.686L84.5403 17.6588C84.5314 17.653 84.5206 17.6461 84.5078 17.6383C84.4558 17.6063 84.3967 17.574 84.3323 17.5439C84.0961 17.4335 83.8617 17.385 83.6601 17.4252C83.503 17.4566 83.3645 17.5417 83.2404 17.6988C83.1386 17.8276 82.9519 17.8494 82.8232 17.7476C82.6946 17.6458 82.6728 17.4589 82.7745 17.3301C82.9859 17.0624 83.2483 16.9013 83.5438 16.8423Z" fill="#2E186A"/>
<path fill-rule="evenodd" clip-rule="evenodd" d="M85.8781 27.6839C85.8584 27.6931 85.83 27.7056 85.7932 27.7207L85.7742 27.7285C85.6601 27.7748 85.5255 27.8214 85.3719 27.8652C84.968 27.9804 84.5114 28.0541 84.0103 28.0661C83.8394 28.0702 83.7072 28.2174 83.7214 28.3879C83.726 28.4428 83.7383 28.53 83.7623 28.6394C83.8021 28.8206 83.8617 29.0022 83.9463 29.1743L83.9618 29.2052C84.2285 29.7254 84.6742 30.0428 85.304 30.0191L85.3245 30.018L85.309 30.0174C86.036 30.0541 86.387 29.5686 86.4249 28.8446C86.4371 28.6112 86.4173 28.3671 86.3769 28.1249C86.3689 28.077 86.3605 28.0317 86.3518 27.9888L86.3387 27.9266L86.3279 27.8789C86.2904 27.6914 86.0893 27.589 85.9172 27.6651L85.8781 27.6839ZM85.8096 28.3499L85.8163 28.4051C85.8322 28.5461 85.8382 28.6844 85.8315 28.8136C85.8086 29.2501 85.671 29.4405 85.3387 29.4237L85.3225 29.4233L85.3064 29.4239C84.908 29.4471 84.6515 29.2629 84.479 28.9119L84.4566 28.8644C84.4279 28.8003 84.4032 28.7337 84.3825 28.6659L84.3756 28.6424L84.4511 28.6361C84.8402 28.6009 85.2024 28.5316 85.5343 28.437C85.6119 28.4148 85.6855 28.392 85.7551 28.3686L85.8096 28.3499Z" fill="#2E186A"/>
<path fill-rule="evenodd" clip-rule="evenodd" d="M86.2745 52.6168L96.9454 54.0237L99.3311 58.8784H113.843C113.843 58.8784 101.301 48.317 97.3711 47.1677C92.9562 45.4933 88.5314 47.0884 87.7692 47.99C86.9278 48.9907 84.2254 51.5567 82.8 51.7648C81.3746 51.9728 79.6918 51.5072 79.7215 52.3691C79.7314 52.7654 79.5532 54.0336 81.6814 53.8652C83.2553 53.7463 84.8689 53.6076 86.2745 52.6168Z" fill="white"/>
<path fill-rule="evenodd" clip-rule="evenodd" d="M91.1499 46.3199C93.1959 45.9673 95.3635 46.1087 97.3858 46.8558L97.466 46.8858L97.4992 46.8957C98.9477 47.3369 101.501 48.9429 104.887 51.4319L105.202 51.6645C105.667 52.0085 106.143 52.366 106.63 52.7357C108.232 53.9536 109.879 55.2531 111.489 56.5574L111.791 56.802C112.255 57.1793 112.69 57.5356 113.09 57.8656L113.619 58.3041L114.034 58.6509C114.241 58.8257 114.125 59.1612 113.86 59.1751L113.843 59.1755H99.3309C99.2244 59.1755 99.1266 59.1185 99.0738 59.027L99.0645 59.0095L96.7488 54.2975L86.3485 52.9263L86.3196 52.946C85.6863 53.3678 84.9874 53.6525 84.1861 53.8396L84.1057 53.858L84.0255 53.8756C83.4006 54.0104 82.8276 54.0757 81.7727 54.1562L81.7047 54.1614C80.4308 54.2622 79.7277 53.8844 79.5027 53.1545C79.4396 52.9498 79.4238 52.781 79.4242 52.5176L79.4247 52.3852L79.4245 52.3793C79.4097 51.9484 79.6749 51.6873 80.1196 51.5866L80.1753 51.5747C80.3983 51.5298 80.6255 51.5188 81.0956 51.5222L81.6397 51.5281C81.8806 51.5298 82.0392 51.5275 82.2189 51.5193C82.4143 51.5104 82.5919 51.4947 82.757 51.4706C83.331 51.3868 84.2505 50.8247 85.3144 49.9454L85.4239 49.8542C86.246 49.1638 87.0903 48.3356 87.5424 47.798C88.0283 47.2232 89.4841 46.607 91.1499 46.3199ZM97.2655 47.4456C95.3225 46.7087 93.2273 46.565 91.2504 46.9057C89.7095 47.1713 88.3709 47.7379 87.996 48.1813L87.9304 48.2583C87.4328 48.8345 86.5763 49.6675 85.7487 50.3569L85.6923 50.4037C84.5471 51.3502 83.5592 51.9542 82.8425 52.0588C82.6796 52.0826 82.5085 52.0989 82.325 52.1091L82.2456 52.1131C82.064 52.1214 81.9051 52.124 81.6765 52.1228L81.1031 52.1167C80.6507 52.1134 80.4463 52.1239 80.265 52.1632L80.2504 52.1664C80.0649 52.2084 80.0178 52.2494 80.0177 52.3493L80.0184 52.3903L80.0181 52.475C80.0162 52.7083 80.0263 52.8376 80.07 52.9792C80.2025 53.4092 80.6262 53.6422 81.6128 53.5721L81.7877 53.5588C82.8208 53.4791 83.3667 53.4139 83.976 53.2778C84.7665 53.1011 85.4399 52.828 86.043 52.4154L86.1065 52.3714L86.1188 52.3634L86.1349 52.3541L86.1514 52.346L86.1681 52.339L86.1851 52.3331L86.2024 52.3282L86.2113 52.3261L86.2373 52.3217L86.2549 52.3201L86.2725 52.3195L86.2955 52.3203L86.3129 52.3221L96.9838 53.7289C97.0757 53.741 97.1563 53.7953 97.2022 53.875L97.2115 53.8924L99.5156 58.581H113.022L112.45 58.109C112.185 57.8904 111.905 57.6614 111.613 57.4234L111.416 57.2634C109.715 55.8811 107.967 54.4989 106.27 53.2091C105.786 52.8409 105.311 52.4849 104.849 52.1425L104.639 51.9875C101.262 49.5 98.7021 47.8844 97.3295 47.4655L97.2874 47.4529C97.28 47.4507 97.2727 47.4483 97.2655 47.4456Z" fill="#2E186A"/>
<path fill-rule="evenodd" clip-rule="evenodd" d="M88.3232 49.268C88.3232 49.268 85.8881 51.735 85.9574 52.5474C86.0267 53.3598 87.1353 55.0441 87.9668 55.0441C88.7983 55.0441 90.0456 54.9846 90.0456 54.9846" fill="white"/>
<path fill-rule="evenodd" clip-rule="evenodd" d="M88.5319 49.0565C88.6439 49.1673 88.6495 49.3452 88.5478 49.4625L88.5274 49.4841L88.4353 49.5789L88.3647 49.6527C88.304 49.7163 88.239 49.7852 88.1705 49.8587C87.8963 50.1527 87.6223 50.4598 87.367 50.764C87.2577 50.8943 87.1541 51.0214 87.0571 51.1445L86.9998 51.218C86.5144 51.8437 86.2374 52.3361 86.2533 52.5221C86.3205 53.3099 87.3921 54.7468 87.9669 54.7468L88.1314 54.7461C88.2838 54.7449 88.4527 54.742 88.6354 54.7376L88.8526 54.732C88.9263 54.7299 89.0012 54.7276 89.0771 54.7251L89.4862 54.7107C89.5743 54.7073 89.6602 54.7039 89.7431 54.7004L90.0315 54.6877C90.1953 54.6799 90.3344 54.8065 90.3422 54.9705C90.35 55.1345 90.2236 55.2737 90.0597 55.2815L89.8505 55.2909C89.6874 55.2979 89.5113 55.3049 89.3287 55.3114L88.9818 55.3229C88.9062 55.3252 88.8316 55.3273 88.7584 55.3292L88.5128 55.335C88.3116 55.3391 88.1285 55.3413 87.9669 55.3413C87.0261 55.3413 85.7519 53.6329 85.6615 52.5727C85.6273 52.1718 85.9422 51.612 86.5306 50.8534C86.6487 50.7012 86.7763 50.5436 86.9122 50.3817C87.1748 50.0688 87.4555 49.7543 87.7362 49.4532L87.8186 49.3651C87.859 49.3223 87.8979 49.2812 87.9352 49.2421L88.0669 49.1052L88.112 49.0591C88.2272 48.9423 88.4153 48.9412 88.5319 49.0565Z" fill="#2E186A"/>
<path fill-rule="evenodd" clip-rule="evenodd" d="M90.2932 49.9418C90.2932 49.9418 88.4223 51.9233 88.452 52.6465C88.4718 53.3698 89.4023 54.955 90.3526 55.1928C91.3029 55.4305 92.8174 54.9451 92.8174 54.9451" fill="white"/>
<path fill-rule="evenodd" clip-rule="evenodd" d="M90.4971 49.7257C90.6164 49.8385 90.6217 50.0266 90.509 50.1459L90.4326 50.2283L90.3347 50.3357C90.3004 50.3736 90.2646 50.4136 90.2274 50.4555C90.015 50.6947 89.8026 50.9451 89.6049 51.194C89.494 51.3337 89.3908 51.469 89.2969 51.5987L89.2474 51.6678C88.9245 52.1235 88.7424 52.4819 88.7488 52.6384C88.7685 53.3548 89.7073 54.7249 90.4246 54.9044C90.632 54.9563 90.8922 54.9718 91.1919 54.954C91.4947 54.9359 91.8225 54.885 92.155 54.8115C92.3044 54.7784 92.4446 54.743 92.5713 54.7077L92.6452 54.6866L92.7224 54.6634C92.7241 54.6628 92.7256 54.6624 92.7268 54.662C92.883 54.6119 93.0502 54.6981 93.1002 54.8544C93.1502 55.0107 93.0642 55.1781 92.908 55.2281L92.8376 55.2497C92.8139 55.2567 92.7862 55.2647 92.7549 55.2735L92.7307 55.2803C92.5941 55.3184 92.4436 55.3564 92.2832 55.3919C91.9223 55.4717 91.5649 55.5272 91.2272 55.5474C90.872 55.5686 90.5541 55.5495 90.2805 55.4811C89.2852 55.2321 88.1816 53.6215 88.1553 52.6587C88.141 52.3117 88.3798 51.8521 88.816 51.2498C88.9154 51.1126 89.0238 50.9704 89.1399 50.8242C89.3451 50.5658 89.5643 50.3073 89.7835 50.0605L89.8583 49.9768C89.8948 49.9362 89.9297 49.8977 89.9629 49.8613L90.0773 49.7376C90.19 49.6183 90.3779 49.613 90.4971 49.7257Z" fill="#2E186A"/>
<path fill-rule="evenodd" clip-rule="evenodd" d="M92.2928 50.7739C92.2928 50.7739 90.3824 52.5969 91.3623 53.6075C92.6789 54.7865 93.6886 55.0342 94.3023 55.0342C94.9754 55.0342 96.1732 53.8651 96.1732 53.8651" fill="white"/>
<path fill-rule="evenodd" clip-rule="evenodd" d="M92.0881 50.5588C92.2069 50.4456 92.3948 50.4501 92.508 50.5689C92.6212 50.6877 92.6167 50.8758 92.498 50.9891L92.4808 51.0058L92.4522 51.0345L92.4034 51.0847C92.3779 51.1113 92.3509 51.14 92.3226 51.1708C92.1877 51.3178 92.0526 51.4795 91.9271 51.6502C91.6823 51.983 91.5057 52.3069 91.426 52.5972C91.3364 52.924 91.3747 53.1787 91.5564 53.3799L91.5695 53.3939L91.61 53.43C92.6458 54.3447 93.5365 54.725 94.2678 54.7367L94.3025 54.737C94.4262 54.737 94.6238 54.6618 94.8633 54.5193C95.004 54.4357 95.1544 54.3321 95.3105 54.2132C95.4717 54.0904 95.63 53.9582 95.7781 53.8259L95.8378 53.7721C95.8569 53.7548 95.875 53.7381 95.8923 53.722L95.9661 53.6523C96.0835 53.5377 96.2715 53.5401 96.386 53.6576C96.5005 53.7751 96.4982 53.9633 96.3807 54.0779L96.3237 54.1322L96.2677 54.1842C96.2383 54.2113 96.2068 54.2398 96.1734 54.2696C96.0145 54.4114 95.8447 54.5532 95.6703 54.6861C95.4973 54.818 95.3286 54.9341 95.1666 55.0304C94.8432 55.2227 94.5577 55.3314 94.3025 55.3314C93.4126 55.3314 92.3738 54.8968 91.218 53.8765L91.1646 53.829L91.1495 53.8145C90.79 53.4438 90.709 52.9659 90.8533 52.4398C90.9553 52.0679 91.1646 51.6842 91.4488 51.2977C91.5881 51.1085 91.7366 50.9306 91.8853 50.7686L91.9443 50.7052C92.0062 50.6394 92.0556 50.5899 92.0881 50.5588Z" fill="#2E186A"/>
<path fill-rule="evenodd" clip-rule="evenodd" d="M93.0962 52.3761C93.1415 52.2184 93.306 52.1272 93.4636 52.1725C93.6044 52.213 93.6921 52.3486 93.677 52.4894L93.6752 52.5026L93.6759 52.5032L93.6775 52.5076C93.688 52.5408 93.7145 52.5852 93.7657 52.6405C93.9447 52.8341 94.3139 53.0434 94.9211 53.2467C95.4559 53.4257 96.1451 53.5886 97.0035 53.7303C97.1653 53.757 97.2749 53.91 97.2482 54.0719C97.2215 54.2339 97.0687 54.3435 96.9068 54.3168L96.7315 54.2872C95.9239 54.1475 95.262 53.9876 94.7327 53.8104C93.4799 53.3911 93.0164 52.89 93.086 52.4243C93.0887 52.4063 93.0922 52.3902 93.0962 52.3761Z" fill="#2E186A"/>
<path fill-rule="evenodd" clip-rule="evenodd" d="M69.6438 51.7647C66.6147 43.5712 59.3391 44.3935 59.3391 44.3935V40.2026H48.4801V44.3935C48.4801 44.3935 41.2044 43.5712 38.1754 51.7548C38.1754 51.7548 31.5134 50.4668 28.2963 58.7891H79.5327C76.3057 50.4668 69.6438 51.7647 69.6438 51.7647Z" fill="white"/>
<path fill-rule="evenodd" clip-rule="evenodd" d="M48.4798 39.9054L48.4624 39.9059C48.3065 39.9149 48.1829 40.0443 48.1829 40.2026L48.1828 44.0771L48.1764 44.0769C47.6174 44.0571 46.9321 44.0971 46.1637 44.2348C44.9109 44.4593 43.6762 44.9077 42.5203 45.6324L42.458 45.6718C40.5532 46.8854 39.0216 48.7583 37.9954 51.3915L37.9815 51.4273L37.944 51.4232C37.3082 51.3557 36.543 51.3689 35.6978 51.5182C34.4977 51.7303 33.3199 52.19 32.2172 52.9526C30.4767 54.1565 29.0432 56.0327 28.0191 58.6818C27.9438 58.8766 28.0874 59.0863 28.2961 59.0863H79.5325C79.7413 59.0863 79.8849 58.8764 79.8094 58.6816C78.7839 56.037 77.3511 54.1636 75.6128 52.9612C74.509 52.1977 73.3301 51.7378 72.1287 51.5261C71.2821 51.3769 70.5152 51.3642 69.8775 51.4325L69.8371 51.4369L69.8233 51.4012C68.7861 48.7363 67.2323 46.849 65.2986 45.635C64.1425 44.9092 62.9076 44.4601 61.6546 44.2352L61.5726 44.2208C60.8646 44.0991 60.2297 44.0607 59.7023 44.0751L59.6357 44.0771L59.6358 40.2026C59.6358 40.0385 59.5029 39.9054 59.3389 39.9054H48.4798ZM48.7768 40.4998H59.0419L59.042 44.3935C59.042 44.5649 59.1861 44.6995 59.3548 44.6903L59.4441 44.6826C59.4611 44.6813 59.4807 44.68 59.5027 44.6787C60.0465 44.6458 60.7488 44.6765 61.5499 44.8203C62.7316 45.0324 63.8952 45.4556 64.9831 46.1386C66.8676 47.3217 68.3743 49.1876 69.3652 51.8678C69.4136 51.9987 69.5459 52.0775 69.6826 52.0594L69.7571 52.047L69.8121 52.0391C69.8508 52.0338 69.8938 52.0286 69.9407 52.0235C70.526 51.9609 71.2379 51.9727 72.0259 52.1116C73.1462 52.309 74.2451 52.7376 75.2753 53.4502L75.3317 53.4896C76.8309 54.5443 78.0938 56.1441 79.0451 58.3783L79.0928 58.4919H28.7354L28.7462 58.4658C29.7125 56.1532 31.0093 54.5108 32.555 53.4417C33.5842 52.7299 34.682 52.3014 35.8011 52.1037C36.5878 51.9647 37.298 51.9524 37.8815 52.0144C37.9395 52.0205 37.9913 52.027 38.0366 52.0335L38.1075 52.0445L38.1189 52.0466C38.2616 52.0742 38.4032 51.9944 38.4537 51.858C39.4446 49.1811 40.9512 47.3176 42.8357 46.1362C43.9234 45.4543 45.0869 45.0317 46.2685 44.8199C47.0438 44.681 47.7266 44.6478 48.2628 44.6757L48.3568 44.6813C48.4005 44.6843 48.4307 44.687 48.4466 44.6888L48.4642 44.6903C48.6328 44.6995 48.7769 44.5649 48.7769 44.3935L48.7768 40.4998Z" fill="#2E186A"/>
<path fill-rule="evenodd" clip-rule="evenodd" d="M65.506 53.5085C63.2293 47.3559 57.7552 47.9702 57.7552 47.9702V38.9543H49.5986V47.9702C49.5986 47.9702 44.1245 47.346 41.8478 53.5085C41.8478 53.5085 36.839 52.5375 34.4236 58.7991H72.94C70.5148 52.5375 65.506 53.5085 65.506 53.5085Z" fill="white"/>
<path fill-rule="evenodd" clip-rule="evenodd" d="M49.5983 38.6571L49.5808 38.6576C49.4249 38.6666 49.3013 38.796 49.3013 38.9543V47.6561L49.2978 47.656C48.886 47.6465 48.3914 47.6789 47.8413 47.7772C46.8912 47.9471 45.9547 48.2869 45.0777 48.8364L45.021 48.8722C43.6077 49.7751 42.4662 51.1573 41.6911 53.0883L41.6536 53.1829L41.681 53.1857C41.1967 53.1341 40.615 53.144 39.9729 53.2573C39.0616 53.418 38.1673 53.7669 37.3302 54.3457C36.0082 55.2596 34.921 56.6838 34.1463 58.692C34.0712 58.8867 34.2148 59.0963 34.4233 59.0963H72.9398C73.1485 59.0963 73.2921 58.8864 73.2166 58.6916C72.4406 56.6881 71.3542 55.2659 70.0346 54.3517C69.1952 53.7702 68.2983 53.4196 67.3846 53.2579L67.3106 53.2452C66.7207 53.1474 66.1836 53.1367 65.7287 53.18L65.6994 53.1829L65.6941 53.1693C64.9084 51.1732 63.7347 49.7553 62.2755 48.8407C61.3973 48.2903 60.4593 47.9496 59.5079 47.7789L59.4364 47.7664C58.9148 47.6775 58.4456 47.6479 58.0519 47.6565V38.9543C58.0519 38.7902 57.9189 38.6571 57.7549 38.6571H49.5983ZM49.8955 39.2516H57.4582V47.9702C57.4582 48.1474 57.6122 48.2853 57.7882 48.2655L57.8222 48.2624C57.8379 48.2612 57.8577 48.2598 57.8817 48.2583C58.2847 48.2341 58.8069 48.2571 59.4033 48.3641C60.2836 48.522 61.1504 48.8368 61.9605 49.3446C63.3649 50.2248 64.4881 51.6135 65.2275 53.6117C65.2759 53.7424 65.408 53.8212 65.5446 53.8032L65.6016 53.7938L65.6501 53.7869C65.676 53.7835 65.7044 53.7801 65.7353 53.7768C66.1682 53.7307 66.6963 53.7398 67.2815 53.8433C68.1142 53.9906 68.9309 54.3099 69.6968 54.8405L69.7497 54.8775C70.8399 55.6491 71.7626 56.8102 72.4653 58.4249L72.4985 58.5018H34.8644L34.8981 58.4235C35.6112 56.7793 36.553 55.6056 37.6679 54.8348C38.4316 54.3068 39.2459 53.9892 40.0762 53.8427C40.6597 53.7398 41.1864 53.7308 41.6184 53.7768L41.6768 53.7835C41.686 53.7846 41.6949 53.7858 41.7036 53.7869L41.7637 53.7956L41.7912 53.8003C41.934 53.8279 42.0758 53.7481 42.1262 53.6115C42.8657 51.6101 43.9888 50.2202 45.3931 49.3402C46.2018 48.8335 47.0671 48.5196 47.946 48.3624C48.5192 48.2599 49.0245 48.2351 49.4219 48.2553L49.5172 48.2612L49.5824 48.267C49.7512 48.2763 49.8955 48.1417 49.8955 47.9702V39.2516Z" fill="#2E186A"/>
<path fill-rule="evenodd" clip-rule="evenodd" d="M61.8634 55.0242C60.2597 50.6947 56.419 51.1306 56.419 51.1306V39.41H50.6875V51.1306C50.6875 51.1306 46.8369 50.6947 45.2432 55.0242C45.2432 55.0242 41.7192 54.3406 40.0265 58.7395H67.0998C65.3873 54.3406 61.8634 55.0242 61.8634 55.0242Z" fill="white"/>
<path fill-rule="evenodd" clip-rule="evenodd" d="M50.6873 39.1128L50.6699 39.1133C50.514 39.1223 50.3903 39.2517 50.3903 39.41V50.8205L50.3466 50.8207C50.081 50.8227 49.7748 50.8483 49.4399 50.9081C48.7624 51.0291 48.0945 51.271 47.4688 51.6622L47.4165 51.6953C46.4259 52.3303 45.6241 53.2951 45.0759 54.6341L45.0487 54.7011L45.0384 54.7003C44.1181 54.6229 43.0474 54.8286 42.0227 55.5344C41.076 56.1864 40.2995 57.2025 39.7491 58.6327C39.6742 58.8274 39.8178 59.0368 40.0262 59.0368H67.0996C67.3086 59.0368 67.4522 58.8265 67.3763 58.6316C66.8233 57.211 66.0485 56.199 65.1067 55.5466L65.0532 55.51C64.0543 54.8358 63.0151 54.6307 62.1148 54.6966L62.0568 54.7012L62.0297 54.6345C61.4711 53.277 60.6536 52.304 59.6441 51.6692C59.017 51.2749 58.3474 51.031 57.6683 50.9089L57.6057 50.898C57.2945 50.8455 57.0092 50.8226 56.7597 50.8207L56.7157 50.8205V39.41C56.7157 39.2459 56.5828 39.1128 56.4187 39.1128H50.6873ZM50.9841 39.7072H56.1216V51.1306C56.1216 51.3021 56.2658 51.4367 56.4345 51.4274L56.4786 51.4235C56.4882 51.4228 56.5 51.422 56.514 51.4211C56.7911 51.4043 57.1514 51.42 57.5632 51.494C58.171 51.6033 58.7691 51.8211 59.328 52.1726C60.2958 52.7811 61.0712 53.7417 61.5845 55.1275C61.6329 55.2583 61.7651 55.337 61.9016 55.3189L61.9547 55.3103C61.9747 55.3074 62.0013 55.3041 62.0341 55.3006C62.8524 55.2134 63.832 55.3866 64.7685 56.0354L64.8135 56.0669C65.5301 56.5765 66.143 57.3311 66.621 58.3708L66.6534 58.4422H40.4703L40.4733 58.4355C40.9637 57.3322 41.6045 56.5439 42.3593 56.0241C43.2713 55.3959 44.2249 55.2202 45.028 55.2962L45.108 55.3047C45.1247 55.3067 45.139 55.3086 45.1511 55.3103L45.1863 55.316C45.3292 55.3438 45.4711 55.2637 45.5215 55.127C46.0333 53.7365 46.8108 52.7744 47.7833 52.1664C48.3409 51.8177 48.9377 51.6016 49.5441 51.4933C49.9355 51.4234 50.2805 51.406 50.5516 51.419L50.6168 51.4228L50.6713 51.4274C50.84 51.4366 50.9841 51.3021 50.9841 51.1306V39.7072Z" fill="#2E186A"/>
<path fill-rule="evenodd" clip-rule="evenodd" d="M48.3411 43.7495L49.42 47.9602C49.4794 48.1782 49.7863 48.1683 49.8358 47.9503L50.796 45.8994C50.796 45.8994 52.0531 50.3975 53.8448 50.5163C55.6365 50.6352 57.3886 45.8301 57.3886 45.8301L58.2003 48.0197C58.2696 48.2277 58.5765 48.2079 58.6161 47.9899L59.7148 43.8387C59.7148 43.8387 60.675 36.8143 53.7359 37.3493C46.7968 37.8843 48.3411 43.7495 48.3411 43.7495Z" fill="#E0840B"/>
<path fill-rule="evenodd" clip-rule="evenodd" d="M45.4211 24.6776C45.4211 24.6776 40.1153 31.8704 40.7983 38.3004H52.5087V24.519L45.4211 24.6776Z" fill="#E0840B"/>
<path fill-rule="evenodd" clip-rule="evenodd" d="M62.1007 24.6776C62.1007 24.6776 67.4065 31.8704 66.7235 38.3004H55.0132V24.519L62.1007 24.6776Z" fill="#E0840B"/>
<path fill-rule="evenodd" clip-rule="evenodd" d="M58.537 38.3004C63.031 30.2159 62.546 23.7859 61.2295 19.3969C59.9129 15.0079 56.8344 10.0938 53.9043 10.0938C50.9742 10.0938 47.8957 14.998 46.5792 19.3969C45.2626 23.7958 44.7083 30.206 49.2023 38.3004L47.9452 41.0051H59.7941L58.537 38.3004Z" fill="white"/>
<path fill-rule="evenodd" clip-rule="evenodd" d="M53.9046 9.79651C52.4079 9.79651 50.8472 10.9401 49.3974 12.92C48.1079 14.681 46.9805 17.0212 46.295 19.3116C45.5133 21.9233 45.1806 24.6064 45.4161 27.4871L45.4252 27.5956C45.7199 30.9979 46.8058 34.5289 48.8136 38.2096L48.8696 38.3119L47.6762 40.8798C47.5846 41.0768 47.7284 41.3024 47.9455 41.3024H59.7944L59.8114 41.3019C60.0189 41.2905 60.1528 41.0716 60.0637 40.8798L58.8701 38.312L58.9276 38.2074C60.9584 34.4892 62.0593 30.92 62.3583 27.4886C62.6106 24.5934 62.2891 21.8949 61.5142 19.3114C60.8282 17.0246 59.7005 14.6848 58.4118 12.9238L58.3246 12.8059C56.8989 10.8962 55.371 9.79651 53.9046 9.79651ZM53.9047 10.391C56.3968 10.391 59.4837 14.6094 60.9454 19.4823C61.6996 21.9966 62.0121 24.6203 61.7667 27.437C61.4687 30.8567 60.3522 34.4242 58.2778 38.1559L58.2686 38.174C58.2313 38.2533 58.2308 38.3456 58.2681 38.4258L59.3286 40.7078H48.4113L49.472 38.4258C49.5121 38.3395 49.5085 38.2392 49.4623 38.156C47.3904 34.4242 46.2878 30.8611 46.0081 27.4386C45.779 24.6358 46.1026 22.0262 46.864 19.4822C48.3232 14.6064 51.4101 10.391 53.9047 10.391Z" fill="#2E186A"/>
<path fill-rule="evenodd" clip-rule="evenodd" d="M53.9045 26.7186C55.7523 26.7186 57.2503 24.9354 57.2503 22.7357C57.2503 20.5361 55.7523 18.7529 53.9045 18.7529C52.0566 18.7529 50.5587 20.5361 50.5587 22.7357C50.5587 24.9354 52.0566 26.7186 53.9045 26.7186Z" fill="#E0840B"/>
<path fill-rule="evenodd" clip-rule="evenodd" d="M53.9041 28.5217C54.2103 28.5217 54.4585 28.2245 54.4585 27.8579C54.4585 27.4913 54.2103 27.1941 53.9041 27.1941C53.598 27.1941 53.3498 27.4913 53.3498 27.8579C53.3498 28.2245 53.598 28.5217 53.9041 28.5217Z" fill="#E0840B"/>
<path fill-rule="evenodd" clip-rule="evenodd" d="M56.0524 28.5217C56.3586 28.5217 56.6068 28.2245 56.6068 27.8579C56.6068 27.4913 56.3586 27.1941 56.0524 27.1941C55.7463 27.1941 55.4981 27.4913 55.4981 27.8579C55.4981 28.2245 55.7463 28.5217 56.0524 28.5217Z" fill="#E0840B"/>
<path fill-rule="evenodd" clip-rule="evenodd" d="M51.588 28.5217C51.8941 28.5217 52.1423 28.2245 52.1423 27.8579C52.1423 27.4913 51.8941 27.1941 51.588 27.1941C51.2818 27.1941 51.0336 27.4913 51.0336 27.8579C51.0336 28.2245 51.2818 28.5217 51.588 28.5217Z" fill="#E0840B"/>
<path fill-rule="evenodd" clip-rule="evenodd" d="M53.9043 25.3613C55.2984 25.3613 56.4285 24.0128 56.4285 22.3494C56.4285 20.686 55.2984 19.3375 53.9043 19.3375C52.5102 19.3375 51.3801 20.686 51.3801 22.3494C51.3801 24.0128 52.5102 25.3613 53.9043 25.3613Z" fill="white"/>
<path fill-rule="evenodd" clip-rule="evenodd" d="M54.4985 9.77672V5.06075C54.4985 5.05084 54.4985 5.03102 54.4985 5.02112C54.5876 4.90223 54.6371 4.75361 54.6371 4.59509C54.6371 4.18889 54.3105 3.86194 53.9046 3.86194C53.4988 3.86194 53.1721 4.18889 53.1721 4.59509C53.1721 4.75361 53.2216 4.90223 53.3107 5.02112C53.3107 5.03102 53.3107 5.05084 53.3107 5.06075V9.76681C52.0832 10.0145 50.8558 11.0449 49.7273 12.4319C50.9943 12.1347 52.4693 11.9762 54.1719 12.0753C55.6963 12.1644 57.0425 12.3725 58.2304 12.6598C57.0821 11.1737 55.7854 10.0541 54.4985 9.77672Z" fill="#E0840B"/>
<path fill-rule="evenodd" clip-rule="evenodd" d="M59.2467 15.3051C57.8181 14.8097 56.1772 14.3837 53.9669 14.2945C51.7179 14.2054 49.9998 14.7205 48.6002 15.2853C47.9825 16.4544 47.4999 17.6135 47.1041 18.852C48.7933 18.0098 50.8492 17.1182 54.0151 17.1776C57.0266 17.2371 59.0922 17.9108 60.6655 18.634C60.2795 17.4748 59.8161 16.4048 59.2467 15.3051Z" fill="#E0840B"/>
<path fill-rule="evenodd" clip-rule="evenodd" d="M58.1832 38.2707C58.3929 37.8843 58.5836 37.5078 58.7647 37.1313C57.7828 36.7152 56.3815 36.3784 53.8838 36.3982C51.3576 36.3784 49.9467 36.7251 48.9648 37.1511C49.146 37.5276 49.3366 37.9041 49.5464 38.2806C49.5464 38.2806 51.7675 37.8348 53.8838 37.8546C55.962 37.8249 58.1832 38.2707 58.1832 38.2707Z" fill="#E0840B"/>
<rect x="73.524" y="54.0236" width="11.4727" height="2.55614" fill="#E0840B"/>
<path fill-rule="evenodd" clip-rule="evenodd" d="M82.6805 53.6273C82.8926 53.6273 83.0657 53.7942 83.076 54.0038L83.0765 54.0236V56.5798C83.0765 56.7986 82.8992 56.9761 82.6805 56.9761C82.4684 56.9761 82.2953 56.8092 82.285 56.5995L82.2845 56.5798V54.0236C82.2845 53.8047 82.4618 53.6273 82.6805 53.6273Z" fill="#2E186A"/>
<path fill-rule="evenodd" clip-rule="evenodd" d="M66.7039 55.6584V56.9563H61.0516C60.8833 56.6591 60.5666 56.451 60.2003 56.451C59.6658 56.451 59.2302 56.8869 59.2302 57.4219C59.2302 57.9569 59.6658 58.3929 60.2003 58.3929C60.5666 58.3929 60.8833 58.1848 61.0516 57.8876H66.7039V58.7198H91.4114V55.6485H66.7039V55.6584Z" fill="#2E186A"/>
<path fill-rule="evenodd" clip-rule="evenodd" d="M87.0065 55.2621C87.2185 55.2621 87.3917 55.4289 87.402 55.6386L87.4024 55.6584V58.7297C87.4024 58.9486 87.2252 59.126 87.0065 59.126C86.7944 59.126 86.6213 58.9592 86.611 58.7495L86.6105 58.7297V55.6584C86.6105 55.4395 86.7878 55.2621 87.0065 55.2621Z" fill="#2E186A"/>
</svg>
