<svg width="95" height="61" viewBox="0 0 95 61" fill="none" xmlns="http://www.w3.org/2000/svg">
<path fill-rule="evenodd" clip-rule="evenodd" d="M66.0719 42.6683H2.18773C1.26701 42.6683 0.519409 41.9684 0.519409 41.0955V9.01953H67.7481V41.0955C67.7402 41.9684 66.9926 42.6683 66.0719 42.6683Z" fill="white"/>
<path fill-rule="evenodd" clip-rule="evenodd" d="M67.7481 8.78369H0.519409C0.389023 8.78369 0.283325 8.88931 0.283325 9.0196V41.0956C0.283325 42.1004 1.13791 42.9043 2.18773 42.9043H66.0719C67.12 42.9043 67.9751 42.1025 67.9842 41.0977L67.9842 9.0196C67.9842 8.88931 67.8785 8.78369 67.7481 8.78369ZM0.755492 9.25543H67.512V41.0956C67.5053 41.8334 66.8664 42.4324 66.0719 42.4324H2.18773L2.16099 42.4322C1.37828 42.419 0.755492 41.8249 0.755492 41.0956V9.25543Z" fill="#2E186A"/>
<path fill-rule="evenodd" clip-rule="evenodd" d="M0.314778 9.56218L0.236084 1.89508C0.236084 0.935705 0.991551 0.165063 1.92015 0.165063L66.308 0.0864258C67.2366 0.0864258 67.992 0.864932 67.992 1.81644V9.56218H0.314778Z" fill="#2E186A"/>
<path fill-rule="evenodd" clip-rule="evenodd" d="M29.1327 1.3446C29.8034 1.3446 30.4325 1.66129 30.84 2.20125L30.8457 2.20908L30.851 2.21713L32.8983 5.44945H67.992C68.1177 5.44945 68.2205 5.54767 68.2277 5.6715L68.2281 5.68536C68.2281 5.811 68.1298 5.9137 68.0059 5.92088L67.992 5.92128H32.7684C32.6929 5.92128 32.6222 5.8852 32.578 5.82484L32.5689 5.81153L30.458 2.47886L30.4429 2.45917C30.1307 2.06148 29.664 1.82656 29.1653 1.81675L29.1327 1.81643H15.369C14.8581 1.81643 14.3779 2.05283 14.0589 2.45917L14.0437 2.47886L11.9328 5.81153C11.8926 5.87499 11.8248 5.91525 11.7505 5.92065L11.7345 5.92127L0.268712 5.97632C0.138328 5.97694 0.0321233 5.87183 0.0314969 5.74154C0.0308929 5.61591 0.128681 5.51274 0.252574 5.50497L0.266443 5.5045L11.603 5.45008L13.6508 2.21713C13.6525 2.21441 13.6543 2.21172 13.6561 2.20908L13.6617 2.20125C14.062 1.67093 14.6759 1.35599 15.3331 1.34491L15.369 1.3446H29.1327Z" fill="white"/>
<path fill-rule="evenodd" clip-rule="evenodd" d="M35.0191 1.36816C35.5796 1.36816 36.0442 1.7966 36.0576 2.33516L36.0578 2.35899V5.36292C36.0578 5.49321 35.9521 5.59883 35.8218 5.59883C35.696 5.59883 35.5933 5.50062 35.5861 5.37678L35.5857 5.36292V2.35899C35.5857 2.0826 35.3438 1.84987 35.0386 1.84029L35.0191 1.83999H29.1013C28.9709 1.83999 28.8652 1.73436 28.8652 1.60407C28.8652 1.47844 28.9635 1.37574 29.0874 1.36856L29.1013 1.36816H35.0191Z" fill="white"/>
<path fill-rule="evenodd" clip-rule="evenodd" d="M3.04549 3.95533C3.61049 3.95533 4.06852 3.49764 4.06852 2.93305C4.06852 2.36846 3.61049 1.91077 3.04549 1.91077C2.48049 1.91077 2.02246 2.36846 2.02246 2.93305C2.02246 3.49764 2.48049 3.95533 3.04549 3.95533Z" fill="white"/>
<path fill-rule="evenodd" clip-rule="evenodd" d="M6.41359 3.95533C6.97859 3.95533 7.43662 3.49764 7.43662 2.93305C7.43662 2.36846 6.97859 1.91077 6.41359 1.91077C5.84859 1.91077 5.39056 2.36846 5.39056 2.93305C5.39056 3.49764 5.84859 3.95533 6.41359 3.95533Z" fill="white"/>
<path fill-rule="evenodd" clip-rule="evenodd" d="M9.78963 3.95533C10.3546 3.95533 10.8127 3.49764 10.8127 2.93305C10.8127 2.36846 10.3546 1.91077 9.78963 1.91077C9.22463 1.91077 8.7666 2.36846 8.7666 2.93305C8.7666 3.49764 9.22463 3.95533 9.78963 3.95533Z" fill="white"/>
<path fill-rule="evenodd" clip-rule="evenodd" d="M27.8454 3.28111C27.9279 3.18678 28.0689 3.17388 28.1669 3.24925L28.1785 3.25872L29.115 4.07654C29.2131 4.16228 29.2232 4.31132 29.1374 4.40942C29.0549 4.50375 28.9138 4.51665 28.8158 4.44128L28.8042 4.43181L27.8678 3.61399C27.7696 3.52825 27.7596 3.37922 27.8454 3.28111Z" fill="white"/>
<path fill-rule="evenodd" clip-rule="evenodd" d="M28.8162 3.26306C28.9163 3.17957 29.0652 3.19297 29.1487 3.293C29.229 3.38917 29.2197 3.53042 29.1299 3.61536L29.1188 3.62528L28.1665 4.41951C28.0665 4.503 27.9176 4.4896 27.834 4.38958C27.7537 4.2934 27.763 4.15216 27.8528 4.06721L27.864 4.05729L28.8162 3.26306Z" fill="white"/>
<path fill-rule="evenodd" clip-rule="evenodd" d="M33.5176 3.05103C33.6434 3.05192 33.7454 3.15085 33.7518 3.27473L33.7521 3.2886L33.7442 4.40524C33.7433 4.53553 33.6368 4.6404 33.5064 4.63949C33.3807 4.6386 33.2786 4.53967 33.2723 4.41578L33.272 4.40192L33.2799 3.28528C33.2808 3.15499 33.3873 3.05011 33.5176 3.05103Z" fill="white"/>
<path fill-rule="evenodd" clip-rule="evenodd" d="M34.0747 3.60938C34.2051 3.60938 34.3108 3.715 34.3108 3.84529C34.3108 3.97092 34.2125 4.07362 34.0886 4.0808L34.0747 4.0812H32.9494C32.819 4.0812 32.7133 3.97558 32.7133 3.84529C32.7133 3.71965 32.8116 3.61695 32.9355 3.60978L32.9494 3.60938H34.0747Z" fill="white"/>
<path fill-rule="evenodd" clip-rule="evenodd" d="M65.2692 6.71558C65.3996 6.71558 65.5053 6.8212 65.5053 6.95149C65.5053 7.07712 65.407 7.17982 65.2831 7.187L65.2692 7.1874H63.9865C63.8561 7.1874 63.7504 7.08178 63.7504 6.95149C63.7504 6.82585 63.8487 6.72315 63.9726 6.71598L63.9865 6.71558H65.2692Z" fill="white"/>
<path fill-rule="evenodd" clip-rule="evenodd" d="M65.2692 7.42334C65.3996 7.42334 65.5053 7.52896 65.5053 7.65925C65.5053 7.78489 65.407 7.88759 65.2831 7.89476L65.2692 7.89516H63.9865C63.8561 7.89516 63.7504 7.78954 63.7504 7.65925C63.7504 7.53361 63.8487 7.43092 63.9726 7.42374L63.9865 7.42334H65.2692Z" fill="white"/>
<path fill-rule="evenodd" clip-rule="evenodd" d="M65.2692 8.13892C65.3996 8.13892 65.5053 8.24454 65.5053 8.37483C65.5053 8.50046 65.407 8.60316 65.2831 8.61034L65.2692 8.61074H63.9865C63.8561 8.61074 63.7504 8.50512 63.7504 8.37483C63.7504 8.24919 63.8487 8.14649 63.9726 8.13932L63.9865 8.13892H65.2692Z" fill="white"/>
<path fill-rule="evenodd" clip-rule="evenodd" d="M61.7359 7.2503C61.7044 7.14807 61.6178 7.0773 61.5076 7.0773H60.9883L60.8309 6.58189C60.7994 6.48752 60.705 6.41675 60.6027 6.41675C60.5003 6.41675 60.4059 6.47966 60.3744 6.58189L60.217 7.0773H59.6977C59.5954 7.0773 59.5009 7.14021 59.4694 7.24244C59.438 7.3368 59.4694 7.44689 59.556 7.5098L59.9731 7.81649L59.8157 8.3119C59.7842 8.40626 59.8157 8.51635 59.9023 8.57926C59.9416 8.61072 59.9888 8.62645 60.0439 8.62645C60.099 8.62645 60.1384 8.61072 60.1856 8.57926L60.6184 8.26472L61.0433 8.50849C61.1299 8.55567 61.2322 8.54781 61.3109 8.4849C61.3896 8.42199 61.4132 8.31976 61.3896 8.2254L61.2322 7.75358L61.6257 7.52553C61.7201 7.46262 61.7595 7.35253 61.7359 7.2503Z" fill="white"/>
<path fill-rule="evenodd" clip-rule="evenodd" d="M57.2581 8.55564H12.0796C11.8593 8.55564 11.6862 8.38264 11.6862 8.16246V7.47046C11.6862 7.25027 11.8593 7.07727 12.0796 7.07727H57.2581C57.4785 7.07727 57.6516 7.25027 57.6516 7.47046V8.16246C57.6516 8.38264 57.4785 8.55564 57.2581 8.55564Z" fill="white"/>
<path fill-rule="evenodd" clip-rule="evenodd" d="M4.15286 6.84053C4.24893 6.75244 4.39828 6.75886 4.48642 6.85486C4.57118 6.94717 4.5685 7.0887 4.48276 7.17775L4.47208 7.18818L3.89909 7.71344L4.49497 8.25534C4.5877 8.33966 4.59777 8.48085 4.52039 8.57725L4.51069 8.5886C4.42631 8.68125 4.28501 8.69132 4.18854 8.614L4.17718 8.6043L3.39024 7.8887C3.29141 7.79883 3.28744 7.64599 3.37859 7.55108L3.38952 7.5404L4.15286 6.84053Z" fill="white"/>
<path fill-rule="evenodd" clip-rule="evenodd" d="M5.46928 7.49402C5.59966 7.49402 5.70536 7.59964 5.70536 7.72993C5.70536 7.85557 5.60708 7.95826 5.48315 7.96544L5.46928 7.96584H3.54913C3.41875 7.96584 3.31305 7.86022 3.31305 7.72993C3.31305 7.60429 3.41133 7.50159 3.53526 7.49442L3.54913 7.49402H5.46928Z" fill="white"/>
<path fill-rule="evenodd" clip-rule="evenodd" d="M7.91664 6.85397C8.00187 6.7621 8.14326 6.75334 8.23901 6.83155L8.25027 6.84135L9.00574 7.54122C9.10339 7.63169 9.10632 7.7839 9.01507 7.8781L9.00413 7.8887L8.21718 8.6043C8.12075 8.69199 7.97144 8.68496 7.88368 8.5886C7.7993 8.49594 7.80256 8.35443 7.88867 8.26572L7.8994 8.25534L8.49615 7.71257L7.92926 7.18736C7.83732 7.10218 7.82856 6.96091 7.90683 6.86522L7.91664 6.85397Z" fill="white"/>
<path fill-rule="evenodd" clip-rule="evenodd" d="M8.84526 7.49402C8.97564 7.49402 9.08134 7.59964 9.08134 7.72993C9.08134 7.85557 8.98306 7.95826 8.85913 7.96544L8.84526 7.96584H6.93298C6.8026 7.96584 6.6969 7.86022 6.6969 7.72993C6.6969 7.60429 6.79518 7.50159 6.91911 7.49442L6.93298 7.49402H8.84526Z" fill="white"/>
<path fill-rule="evenodd" clip-rule="evenodd" d="M63.2512 3.11545C63.2765 2.98762 63.4006 2.90445 63.5286 2.92968C63.6519 2.95401 63.7337 3.07025 63.7168 3.19313L63.7145 3.20681L63.6461 3.5529L64.0208 3.59511C64.1457 3.60915 64.2368 3.71823 64.2301 3.84209L64.229 3.85591C64.2149 3.98076 64.1058 4.07184 63.9818 4.06512L63.968 4.06397L63.3384 3.9932C63.2059 3.97831 63.113 3.85725 63.1309 3.72707L63.1332 3.71309L63.2512 3.11545Z" fill="white"/>
<path fill-rule="evenodd" clip-rule="evenodd" d="M64.1468 2.90737C64.2523 2.83079 64.3999 2.85416 64.4765 2.95957C64.5502 3.06093 64.5314 3.20123 64.4361 3.27995L64.4243 3.28909L63.5036 3.95751C63.3981 4.03409 63.2505 4.01071 63.1738 3.90531C63.1001 3.80395 63.1189 3.66365 63.2143 3.58493L63.2261 3.57579L64.1468 2.90737Z" fill="white"/>
<path fill-rule="evenodd" clip-rule="evenodd" d="M64.9796 1.8991C64.9942 1.77431 65.1038 1.68371 65.2277 1.69096L65.2415 1.69217L65.8475 1.76294C65.98 1.77842 66.0723 1.89997 66.0539 2.03011L66.0515 2.04409L65.9256 2.66532C65.8997 2.79302 65.7751 2.87557 65.6473 2.84971C65.5241 2.82477 65.4429 2.70813 65.4604 2.58533L65.4628 2.57166L65.5377 2.20171L65.1867 2.1608C65.0618 2.14622 64.9712 2.03675 64.9784 1.91291L64.9796 1.8991Z" fill="white"/>
<path fill-rule="evenodd" clip-rule="evenodd" d="M65.6881 1.81501C65.7932 1.73784 65.941 1.76039 66.0182 1.86537C66.0924 1.96631 66.0744 2.10672 65.9795 2.18597L65.9678 2.19518L65.0471 2.87145C64.942 2.94862 64.7942 2.92607 64.717 2.82109C64.6428 2.72015 64.6608 2.57975 64.7557 2.50049L64.7674 2.49128L65.6881 1.81501Z" fill="white"/>
<path fill-rule="evenodd" clip-rule="evenodd" d="M21.8849 31.1559H9.6558C9.17576 31.1559 8.79016 30.7706 8.79016 30.2909V23.5438C8.79016 23.0642 9.17576 22.6788 9.6558 22.6788H21.8849C22.365 22.6788 22.7506 23.0642 22.7506 23.5438V30.2909C22.7506 30.7706 22.365 31.1559 21.8849 31.1559Z" fill="#FFC29E"/>
<path fill-rule="evenodd" clip-rule="evenodd" d="M55.7314 20.2961H9.38826C9.14431 20.2961 8.95544 20.0996 8.95544 19.8636V16.5845C8.95544 16.3407 9.15218 16.152 9.38826 16.152H55.7314C55.9754 16.152 56.1643 16.3486 56.1643 16.5845V19.8636C56.1643 20.0996 55.9675 20.2961 55.7314 20.2961Z" fill="white"/>
<path fill-rule="evenodd" clip-rule="evenodd" d="M55.7314 15.916H9.38826C9.01972 15.916 8.71936 16.2124 8.71936 16.5844V19.8636C8.71936 20.2319 9.01596 20.532 9.38826 20.532H55.7314C56.0979 20.532 56.4003 20.2298 56.4003 19.8636V16.5844C56.4003 16.2162 56.1037 15.916 55.7314 15.916ZM9.38826 16.3878H55.7314C55.8416 16.3878 55.9282 16.4754 55.9282 16.5844V19.8636C55.9282 19.9692 55.8371 20.0602 55.7314 20.0602H9.38826C9.27807 20.0602 9.19153 19.9726 9.19153 19.8636V16.5844C9.19153 16.4743 9.27917 16.3878 9.38826 16.3878Z" fill="#6A6AF4"/>
<rect x="44.1161" y="16.0812" width="12.0009" height="4.20708" fill="#6A6AF4"/>
<path fill-rule="evenodd" clip-rule="evenodd" d="M51.6078 20.0996C51.5685 20.0996 51.537 20.0838 51.5134 20.0681L50.4274 19.1245C50.2936 19.1952 50.1598 19.2503 50.0103 19.2739C49.9159 19.2896 49.8136 19.3053 49.7192 19.3053C49.0266 19.3053 48.4286 18.8178 48.2948 18.1415C48.2161 17.764 48.2948 17.3709 48.5073 17.0484C48.7197 16.726 49.0502 16.5058 49.4359 16.4272C49.5303 16.4115 49.6326 16.3958 49.727 16.3958C50.4195 16.3958 51.0176 16.8833 51.1514 17.5596C51.238 17.9921 51.1278 18.4403 50.8445 18.7785L51.8675 19.667C51.9069 19.7064 51.9226 19.7614 51.9069 19.8243C51.899 19.8715 51.8675 19.9266 51.8282 19.9659L51.7967 20.0052C51.7495 20.0602 51.6708 20.0996 51.6078 20.0996ZM49.7191 16.9541C49.6562 16.9541 49.6011 16.9619 49.5382 16.9698C49.3021 17.017 49.1053 17.1507 48.9716 17.3551C48.8378 17.5517 48.7906 17.7955 48.8378 18.0235C48.9243 18.4403 49.2863 18.7391 49.7113 18.7391C49.7742 18.7391 49.8293 18.7313 49.8923 18.7234C50.1284 18.6762 50.3251 18.5425 50.4589 18.3381C50.5927 18.1415 50.6399 17.8977 50.5927 17.6697C50.514 17.2529 50.1441 16.9541 49.7191 16.9541Z" fill="white"/>
<path fill-rule="evenodd" clip-rule="evenodd" d="M23.7894 19.1166H10.8048C10.6395 19.1166 10.4979 18.9829 10.4979 18.8099V17.5832C10.4979 17.418 10.6316 17.2765 10.8048 17.2765H23.7894C23.9546 17.2765 24.0963 17.4102 24.0963 17.5832V18.8099C24.0963 18.975 23.9546 19.1166 23.7894 19.1166Z" fill="#FF8D7E"/>
<path fill-rule="evenodd" clip-rule="evenodd" d="M22.2706 33.5543H9.05776C8.8925 33.5543 8.75085 33.4206 8.75085 33.2476V32.8544C8.75085 32.6893 8.88464 32.5477 9.05776 32.5477H22.2706C22.4358 32.5477 22.5775 32.6814 22.5775 32.8544V33.2476C22.5696 33.4206 22.4358 33.5543 22.2706 33.5543Z" fill="#FFC29E"/>
<path fill-rule="evenodd" clip-rule="evenodd" d="M38.7571 31.1559H26.5279C26.0479 31.1559 25.6623 30.7706 25.6623 30.2909V23.5438C25.6623 23.0642 26.0479 22.6788 26.5279 22.6788H38.7571C39.2371 22.6788 39.6227 23.0642 39.6227 23.5438V30.2909C39.6227 30.7706 39.2371 31.1559 38.7571 31.1559Z" fill="#FF8D7E"/>
<path fill-rule="evenodd" clip-rule="evenodd" d="M39.1348 33.5543H25.9298C25.7646 33.5543 25.6229 33.4206 25.6229 33.2476V32.8544C25.6229 32.6893 25.7567 32.5477 25.9298 32.5477H39.1348C39.3 32.5477 39.4417 32.6814 39.4417 32.8544V33.2476C39.4417 33.4206 39.3079 33.5543 39.1348 33.5543Z" fill="#FF8D7E"/>
<path fill-rule="evenodd" clip-rule="evenodd" d="M55.6291 31.1559H43.3921C42.9121 31.1559 42.5265 30.7706 42.5265 30.2909V23.5438C42.5265 23.0642 42.9121 22.6788 43.3921 22.6788H55.6212C56.1013 22.6788 56.4869 23.0642 56.4869 23.5438V30.2909C56.4948 30.7706 56.1013 31.1559 55.6291 31.1559Z" fill="#FFC29E"/>
<path fill-rule="evenodd" clip-rule="evenodd" d="M56.0068 33.5543H42.8019C42.6366 33.5543 42.495 33.4206 42.495 33.2476V32.8544C42.495 32.6893 42.6288 32.5477 42.8019 32.5477H56.0068C56.1721 32.5477 56.3137 32.6814 56.3137 32.8544V33.2476C56.3137 33.4206 56.1721 33.5543 56.0068 33.5543Z" fill="#FFC29E"/>
<path fill-rule="evenodd" clip-rule="evenodd" d="M22.7506 37.5647V42.4402H8.79016V37.5647C8.79016 37.085 9.17576 36.6997 9.6558 36.6997H21.8849C22.365 36.6997 22.7506 37.085 22.7506 37.5647Z" fill="#FFC29E"/>
<path fill-rule="evenodd" clip-rule="evenodd" d="M39.6227 37.5647V42.4402H25.6623V37.5647C25.6623 37.085 26.0479 36.6997 26.5279 36.6997H38.7571C39.2371 36.6997 39.6227 37.085 39.6227 37.5647Z" fill="#FFC29E"/>
<path fill-rule="evenodd" clip-rule="evenodd" d="M56.4948 37.5647V42.4402H42.5265V37.5647C42.5265 37.085 42.9121 36.6997 43.3921 36.6997H55.6212C56.1013 36.6997 56.4948 37.085 56.4948 37.5647Z" fill="#FFC29E"/>
<path fill-rule="evenodd" clip-rule="evenodd" d="M73.5793 30.2987C73.422 29.8505 72.6114 29.7089 69.1488 30.684C64.3249 32.0444 61.0669 32.6185 61.4132 33.3655C63.0422 34.1912 73.3433 31.6434 73.5793 30.2987Z" fill="#2E186A"/>
<path fill-rule="evenodd" clip-rule="evenodd" d="M70.8093 26.3433L63.05 29.4494C63.05 29.4494 63.3962 31.4232 63.7504 33.452C66.1584 33.1925 69.7075 32.3118 71.8166 31.4547C71.3365 29.0405 70.8093 26.3433 70.8093 26.3433Z" fill="white"/>
<path fill-rule="evenodd" clip-rule="evenodd" d="M70.7215 26.1242L62.9622 29.2304C62.8631 29.2701 62.8035 29.3709 62.8154 29.4758L62.833 29.5789L63.5178 33.4925C63.5392 33.615 63.652 33.6999 63.7757 33.6865C66.2006 33.4252 69.7717 32.5404 71.9055 31.6731C72.0104 31.6305 72.0702 31.5196 72.0481 31.4086L71.7648 29.9791C71.6294 29.2939 71.4896 28.5843 71.3497 27.8726L71.041 26.298C71.0126 26.1528 70.859 26.0692 70.7215 26.1242ZM63.3155 29.5971L70.6323 26.6681L70.9246 28.1576C71.0644 28.8689 71.2038 29.5761 71.3384 30.2568L71.5467 31.3082L71.5207 31.3184C69.5037 32.1052 66.3314 32.8947 64.0424 33.1805L63.9447 33.1923L63.3155 29.5971Z" fill="#2E186A"/>
<path fill-rule="evenodd" clip-rule="evenodd" d="M93.67 55.3524C93.308 50.1388 87.524 42.5975 85.3914 39.7115C82.8574 36.283 78.8833 33.9868 74.1223 33.5778C73.8548 31.7377 73.5793 30.2279 73.5793 30.2279C73.6895 31.549 63.0658 34.1991 61.4053 33.3655L61.5863 34.6473C60.7128 34.8675 59.7527 35.1584 58.6353 35.5516C53.1739 37.4782 42.5816 51.0352 42.5816 51.0352C42.5816 51.0352 40.3939 44.933 31.7296 48.1729C25.859 50.7679 30.1006 59.8269 30.1006 59.8269L89.6094 59.701C91.9702 59.701 93.8353 57.7037 93.67 55.3524Z" fill="#6A6AF4"/>
<path fill-rule="evenodd" clip-rule="evenodd" d="M79.124 49.7326C80.3026 49.5947 81.5557 49.5904 82.7359 49.8089C84.1409 50.0689 85.2807 50.6232 86.0518 51.5357C86.1359 51.6353 86.1233 51.7841 86.0237 51.8682C85.9241 51.9522 85.7751 51.9396 85.691 51.8401C84.9997 51.0218 83.9566 50.5147 82.6499 50.2728C81.5231 50.0642 80.3145 50.0684 79.1789 50.2012L79.0675 50.2148C78.9588 50.2285 78.8579 50.2426 78.7657 50.2569L78.6672 50.2726L78.5732 50.2889C78.5666 50.2902 78.5617 50.2911 78.5585 50.2917C78.55 50.2933 78.5414 50.2945 78.5327 50.2952C77.4642 50.3825 74.8522 50.971 71.1895 51.9138L70.8048 52.0131C70.6756 52.0466 70.5455 52.0804 70.4144 52.1145L70.2172 52.166C68.7492 52.5494 67.228 52.9584 65.7303 53.3691L64.8062 53.6236C64.5256 53.7012 64.2587 53.7754 64.0071 53.8455L63.2638 54.0538C63.1383 54.0893 63.0078 54.0164 62.9724 53.891C62.9381 53.7701 63.0047 53.6446 63.122 53.604L63.1738 53.5889L63.8802 53.3911C64.2999 53.274 64.7626 53.1458 65.2598 53.009C66.7551 52.5977 68.2799 52.1863 69.7576 51.7985L70.0978 51.7095C70.296 51.6577 70.4922 51.6066 70.6864 51.5564L71.2922 51.4002C74.7983 50.501 77.305 49.9369 78.426 49.831L78.4817 49.826L78.5158 49.8198C78.5531 49.8132 78.5966 49.8059 78.646 49.798C78.7862 49.7757 78.9464 49.7534 79.124 49.7326Z" fill="white"/>
<path fill-rule="evenodd" clip-rule="evenodd" d="M75.3408 44.9024C75.4491 44.839 75.5873 44.8716 75.6562 44.9745L75.6638 44.9867L78.5126 49.8465C78.5785 49.9589 78.5407 50.1034 78.4282 50.1693C78.3198 50.2327 78.1817 50.2 78.1128 50.0971L78.1052 50.0849L75.2564 45.2252C75.1905 45.1128 75.2283 44.9682 75.3408 44.9024Z" fill="white"/>
<path fill-rule="evenodd" clip-rule="evenodd" d="M42.5413 50.8106C42.6698 50.7884 42.792 50.8745 42.8142 51.0029L42.8199 51.0384C42.8266 51.0835 42.8347 51.1473 42.8429 51.2283L42.8453 51.2531C42.8898 51.7155 42.89 52.2611 42.8168 52.8573C42.7143 53.6925 42.4793 54.5116 42.0818 55.2808C41.2534 56.8837 39.8023 58.1193 37.6191 58.8398C37.4953 58.8807 37.3618 58.8135 37.3209 58.6898C37.28 58.5661 37.3473 58.4327 37.4711 58.3918C39.537 57.71 40.8906 56.5574 41.6622 55.0643C42.0324 54.3479 42.2521 53.5823 42.3482 52.7998C42.4169 52.24 42.4167 51.7284 42.3753 51.2982L42.3692 51.2386C42.3661 51.2101 42.363 51.1835 42.3598 51.1591L42.3525 51.106C42.3509 51.0953 42.3497 51.0877 42.3489 51.0833C42.3267 50.9549 42.4128 50.8328 42.5413 50.8106Z" fill="white"/>
<path fill-rule="evenodd" clip-rule="evenodd" d="M42.9192 50.8189C42.9648 50.6969 43.1008 50.6349 43.2229 50.6805L43.2837 50.7041L43.3338 50.7241C43.3601 50.7347 43.3882 50.7462 43.418 50.7586L43.4483 50.7713C43.6242 50.8452 43.8198 50.933 44.0303 51.0346C44.6315 51.3247 45.2328 51.6673 45.7953 52.0615C47.6702 53.3756 48.6887 54.94 48.3538 56.7402C48.33 56.8683 48.2067 56.9528 48.0785 56.929C47.9503 56.9052 47.8657 56.782 47.8896 56.6539C48.1827 55.0782 47.2642 53.6674 45.5241 52.4478C44.9844 52.0695 44.4047 51.7392 43.825 51.4594C43.6424 51.3714 43.4717 51.2941 43.3165 51.2279L43.2089 51.1828C43.1909 51.1753 43.1736 51.1683 43.1571 51.1616L43.0577 51.1225C42.9356 51.0769 42.8735 50.941 42.9192 50.8189Z" fill="white"/>
<path fill-rule="evenodd" clip-rule="evenodd" d="M56.5449 45.4523C56.5838 45.328 56.7163 45.2588 56.8407 45.2977C56.9651 45.3367 57.0344 45.469 56.9954 45.5934L56.9699 45.6778C56.9283 45.8198 56.8689 46.0382 56.8069 46.2864C56.6958 46.731 56.5874 47.2228 56.4892 47.7468C56.2204 49.1818 56.0681 50.6339 56.0835 52.0186C56.103 53.7612 56.3887 55.2834 56.9867 56.5052C57.6811 57.9241 58.7789 58.9014 60.3404 59.373C60.4652 59.4107 60.5358 59.5424 60.498 59.6671C60.4603 59.7918 60.3286 59.8624 60.2037 59.8247C58.5127 59.3139 57.313 58.2459 56.5625 56.7125C55.9297 55.4196 55.6315 53.8309 55.6114 52.0238C55.5956 50.6051 55.751 49.1232 56.0251 47.66L56.0542 47.507C56.2241 46.6285 56.4194 45.8526 56.5449 45.4523Z" fill="white"/>
<path fill-rule="evenodd" clip-rule="evenodd" d="M74.2634 34.3726C74.3761 34.3071 74.5206 34.3453 74.5861 34.458C74.6062 34.4925 74.6309 34.5468 74.654 34.6196C74.7568 34.9433 74.7367 35.3332 74.5178 35.7554C74.2243 36.3212 73.6064 36.8686 72.6007 37.3817C72.4846 37.4409 72.3424 37.3949 72.2831 37.2788C72.2238 37.1628 72.2699 37.0207 72.386 36.9614C73.3106 36.4898 73.8554 36.0071 74.0985 35.5384C74.257 35.2327 74.2705 34.9717 74.204 34.7623C74.1985 34.7449 74.1928 34.7295 74.1873 34.7162L74.1779 34.6951C74.1124 34.5824 74.1506 34.438 74.2634 34.3726Z" fill="white"/>
<path fill-rule="evenodd" clip-rule="evenodd" d="M73.5126 34.1238C73.5368 33.9958 73.6603 33.9116 73.7884 33.9358C73.9165 33.96 74.0008 34.0834 73.9766 34.2114C73.9691 34.2508 73.9519 34.3133 73.9211 34.3955C73.8725 34.5253 73.8028 34.668 73.7083 34.82C73.4445 35.2444 73.0378 35.6646 72.4608 36.0527C71.4118 36.7582 69.9107 37.2839 67.8825 37.5625C67.7534 37.5803 67.6342 37.49 67.6165 37.3609C67.5987 37.2319 67.689 37.1128 67.8182 37.0951C69.7788 36.8257 71.212 36.3239 72.1971 35.6613C72.719 35.3103 73.0787 34.9386 73.3072 34.5711C73.385 34.4459 73.441 34.3312 73.4789 34.2301L73.4893 34.2013C73.5034 34.1612 73.5105 34.1348 73.5126 34.1238Z" fill="white"/>
<path fill-rule="evenodd" clip-rule="evenodd" d="M60.9961 56.3276C60.9961 56.3276 59.3435 56.7994 58.2654 57.4757C57.1872 58.1519 55.7235 59.1192 55.7944 59.3551C55.8573 59.5988 57.0299 59.8741 57.7381 59.5202C59.3356 58.0182 61.4682 57.688 61.4682 57.688C61.24 57.6408 59.4536 58.3957 58.6667 58.8675C57.1872 59.764 57.1872 59.7876 59.4379 59.7954L66.4574 59.7011C66.6306 55.8557 63.2074 53.8269 63.2074 53.8269C63.2074 53.8269 59.9494 53.7325 57.7224 55.0615C56.4003 55.8557 54.4802 57.2397 54.3779 57.7273C54.2913 58.1441 54.6848 58.1834 55.1727 58.089C55.1727 58.089 54.0867 59.127 55.8652 59.0563" fill="white"/>
<path fill-rule="evenodd" clip-rule="evenodd" d="M63.1378 54.0617L63.0622 54.0613C62.9674 54.0613 62.8541 54.063 62.7246 54.067C62.4605 54.0751 62.1758 54.0919 61.8762 54.1193C61.0649 54.1936 60.2622 54.3338 59.5145 54.555C58.8904 54.7397 58.3283 54.9747 57.844 55.2637L57.753 55.3187C56.2648 56.2236 54.6772 57.4502 54.609 57.7753L54.602 57.8108C54.5933 57.8604 54.6003 57.8645 54.6354 57.8764C54.7258 57.9069 54.8986 57.9018 55.1278 57.8574C55.3548 57.8135 55.5006 58.0864 55.345 58.2504L55.3175 58.2781C55.3113 58.2846 55.3039 58.2924 55.2957 58.3015C55.2627 58.3375 55.2296 58.3773 55.1992 58.4189C55.1414 58.498 55.1014 58.5728 55.0865 58.6321C55.073 58.6857 55.078 58.701 55.1194 58.7274C55.2278 58.7965 55.47 58.8359 55.8558 58.8206C55.8698 58.82 55.8835 58.8207 55.8969 58.8225L55.8986 58.8227L55.9104 58.8125C56.0351 58.7052 56.1938 58.5838 56.3888 58.4416L56.4606 58.3894C56.8993 58.072 57.4756 57.6926 58.1399 57.2759C58.4101 57.1064 58.7261 56.9419 59.079 56.7827C59.4847 56.5998 59.918 56.433 60.3512 56.2855L60.4627 56.2479C60.5539 56.2176 60.6406 56.1896 60.7218 56.1642L60.796 56.1412L60.9312 56.1007C61.0566 56.065 61.1873 56.1375 61.2231 56.2628C61.2576 56.3836 61.1914 56.5093 61.0742 56.5502L60.9345 56.5923L60.9095 56.6C60.7871 56.6378 60.6506 56.682 60.5035 56.7321C60.0836 56.8751 59.6638 57.0366 59.2732 57.2128C58.9386 57.3637 58.641 57.5186 58.3909 57.6755L58.2029 57.7939C57.6465 58.146 57.1604 58.4678 56.7794 58.7414L56.7375 58.7716C56.4844 58.9547 56.2888 59.1094 56.1601 59.2295C56.1372 59.2508 56.1168 59.2707 56.099 59.2891L56.086 59.3025L56.0991 59.3085L56.1166 59.316C56.2295 59.3635 56.3858 59.404 56.5573 59.4282C56.9036 59.4771 57.2513 59.4548 57.5164 59.3588L57.5252 59.3554L57.5285 59.3519C57.5687 59.3095 57.6191 59.266 57.6817 59.2184L57.7058 59.2003C57.7539 59.1645 57.8054 59.1283 57.8675 59.0869L57.895 59.0686L57.9454 59.0275C58.1366 58.8738 58.3375 58.7298 58.5471 58.5955L58.6173 58.551C59.2321 58.1667 59.8892 57.8795 60.5462 57.6748C60.7135 57.6227 60.8723 57.5786 61.0206 57.542L61.0587 57.5328L61.0781 57.5268C61.2751 57.4669 61.419 57.4413 61.5059 57.4551L61.5161 57.457C61.7686 57.5092 61.7645 57.8667 61.5191 57.9184L61.4503 57.9306L61.4004 57.9403C61.3829 57.9438 61.3645 57.9475 61.3453 57.9516L61.2605 57.9701L61.1912 57.9862L61.1504 57.9995L61.1204 58.0096C60.9184 58.0777 60.656 58.1794 60.3688 58.3005L60.2683 58.3432C59.6987 58.5874 59.1298 58.865 58.7891 59.0693L58.5561 59.211C58.4264 59.2903 58.3252 59.3531 58.2428 59.4057L58.1757 59.4489L58.1407 59.478L58.1099 59.5041L58.0784 59.5311L58.1162 59.534L58.1738 59.5377C58.3698 59.5493 58.6037 59.5546 59.033 59.5576L59.4348 59.5596L66.2275 59.4683L66.2277 59.4641C66.2401 57.9266 65.6663 56.5863 64.6929 55.4458L64.6571 55.4041C64.3115 55.005 63.941 54.6604 63.5709 54.3717C63.4418 54.271 63.3223 54.1846 63.2154 54.1127L63.1732 54.0846L63.1378 54.0617ZM55.5699 59.4285L55.5647 59.4103C55.5549 59.3727 55.5518 59.3354 55.5556 59.2977L55.5562 59.2928C55.2613 59.2808 55.0408 59.2297 54.8846 59.1369L54.8654 59.1251C54.6416 58.9824 54.5681 58.7569 54.6287 58.5167C54.641 58.4676 54.6585 58.419 54.6805 58.3706L54.684 58.3631L54.6623 58.3611C54.6073 58.3552 54.5559 58.3452 54.508 58.3309L54.4843 58.3234C54.2097 58.2307 54.0821 57.9906 54.1468 57.6789C54.2584 57.1469 55.9182 55.8701 57.6013 54.859C58.1227 54.5479 58.7206 54.2979 59.3804 54.1026C60.1607 53.8717 60.9931 53.7263 61.8332 53.6495L61.9449 53.6397C62.4235 53.5992 62.8324 53.5866 63.1393 53.5899L63.2142 53.5911C63.2543 53.5923 63.2934 53.6036 63.3278 53.624L63.3757 53.6535C63.4033 53.671 63.438 53.6936 63.4792 53.7213C63.595 53.7992 63.7235 53.8921 63.8615 53.9998C64.2546 54.3065 64.6473 54.6717 65.0142 55.0954C66.1308 56.3853 66.7736 57.9279 66.6933 59.7117C66.6879 59.8319 66.5931 59.928 66.4744 59.9364L66.4606 59.937L59.4371 60.0314L58.9903 60.0293C57.9069 60.022 57.6563 59.9977 57.5103 59.8574L57.5048 59.852L57.4994 59.8534C56.744 60.0361 55.6983 59.8367 55.5699 59.4285Z" fill="#2E186A"/>
<path fill-rule="evenodd" clip-rule="evenodd" d="M60.2865 55.1673C60.415 55.1448 60.5373 55.2307 60.5597 55.359C60.5822 55.4874 60.4962 55.6096 60.3678 55.632C59.8223 55.7273 58.6978 56.2604 57.4203 57.0004L57.3729 57.0279C56.8433 57.3358 56.3296 57.6556 55.924 57.9285L55.8738 57.9624C55.4974 58.2178 55.2359 58.4239 55.2129 58.4647C55.1146 58.6383 55.1283 58.6951 55.2254 58.7342C55.4035 58.8058 55.7541 58.7747 56.1787 58.622C56.3014 58.5778 56.4366 58.6414 56.4808 58.764C56.525 58.8866 56.4613 59.0218 56.3386 59.0659C55.8153 59.2542 55.3551 59.295 55.0491 59.1719C54.6645 59.0172 54.5729 58.6369 54.8019 58.2325C54.9329 58.0008 55.8903 57.3482 57.0581 56.6651L57.2361 56.5617C58.5408 55.8091 59.6749 55.274 60.2865 55.1673Z" fill="#2E186A"/>
<path fill-rule="evenodd" clip-rule="evenodd" d="M71.7222 24.9671C68.8734 30.2829 64.8758 31.1715 62.3024 30.5031C58.714 29.5909 57.3998 23.2764 60.2485 17.9526C63.0973 12.6368 67.213 11.4022 70.8959 13.3681C74.563 15.334 74.563 19.6512 71.7222 24.9671Z" fill="white"/>
<path fill-rule="evenodd" clip-rule="evenodd" d="M60.0404 17.8413C58.6571 20.4264 58.1748 23.379 58.6291 25.9237C59.0789 28.4431 60.4003 30.263 62.2442 30.7318C63.7212 31.1154 65.4091 30.9591 67.011 30.192C68.8973 29.2888 70.5823 27.5939 71.9303 25.0785C74.8969 19.5274 74.7062 15.2276 71.1169 13.2202L71.0071 13.1601C66.9922 11.0169 62.8153 12.6633 60.0404 17.8413ZM70.7843 13.576C74.1935 15.4037 74.4035 19.4489 71.5139 24.856C70.2116 27.2861 68.5987 28.9086 66.807 29.7665C65.3062 30.4851 63.7327 30.6309 62.3618 30.2748C60.7217 29.8579 59.5142 28.1948 59.0939 25.8408C58.6584 23.4012 59.1231 20.5561 60.4567 18.0639C63.0892 13.1515 66.9381 11.5957 70.6715 13.517L70.7843 13.576Z" fill="#2E186A"/>
<path fill-rule="evenodd" clip-rule="evenodd" d="M70.3844 21.9868C70.3844 21.9868 73.7604 21.7352 72.9026 24.4324C72.0448 27.1297 69.5109 25.8636 69.5109 25.8636" fill="white"/>
<path fill-rule="evenodd" clip-rule="evenodd" d="M70.4336 21.7479C70.8372 21.7314 71.3137 21.7647 71.7752 21.89C72.9894 22.2197 73.5831 23.0716 73.1276 24.5038C72.7957 25.5474 72.1923 26.1368 71.4024 26.3286C70.8878 26.4535 70.3472 26.4001 69.8262 26.2371L69.7642 26.2172C69.6037 26.1642 69.4807 26.1123 69.4053 26.0746C69.2887 26.0163 69.2414 25.8746 69.2997 25.7581C69.3558 25.6459 69.4894 25.5979 69.6034 25.6465L69.6446 25.6658C69.6602 25.6729 69.6807 25.6818 69.7056 25.6922C69.7827 25.7243 69.8705 25.7566 69.9672 25.7869C70.4135 25.9264 70.8722 25.9718 71.2909 25.8701C71.9163 25.7182 72.3944 25.2513 72.6776 24.3609C73.0438 23.2093 72.6262 22.61 71.6514 22.3453C71.2621 22.2396 70.85 22.2074 70.5002 22.2177L70.4172 22.2211C70.4104 22.2215 70.4053 22.2218 70.4019 22.222C70.2719 22.2317 70.1586 22.1343 70.1489 22.0043C70.1392 21.8744 70.2368 21.7612 70.3668 21.7515L70.409 21.749C70.4165 21.7487 70.4247 21.7483 70.4336 21.7479Z" fill="#2E186A"/>
<path fill-rule="evenodd" clip-rule="evenodd" d="M61.1953 21.0302C61.2948 20.6119 61.1561 20.2207 60.8855 20.1564C60.6149 20.0921 60.3148 20.3791 60.2153 20.7974C60.1158 21.2157 60.2545 21.6069 60.5251 21.6712C60.7957 21.7355 61.0958 21.4485 61.1953 21.0302Z" fill="#2E186A"/>
<path fill-rule="evenodd" clip-rule="evenodd" d="M65.3606 21.5775C65.4601 21.1592 65.3214 20.7679 65.0508 20.7036C64.7802 20.6394 64.4801 20.9263 64.3806 21.3446C64.2811 21.7629 64.4198 22.1542 64.6904 22.2185C64.961 22.2827 65.261 21.9958 65.3606 21.5775Z" fill="#2E186A"/>
<path fill-rule="evenodd" clip-rule="evenodd" d="M62.8983 19.4272C62.9526 19.3087 63.0927 19.2567 63.2113 19.3109C63.3256 19.3632 63.3781 19.4952 63.3331 19.6108L63.3277 19.6236L61.2325 24.1967L62.6244 24.4763C62.7477 24.501 62.8291 24.6176 62.8117 24.7404L62.8093 24.754C62.7846 24.8772 62.668 24.9586 62.5451 24.9412L62.5314 24.9389L60.8473 24.6007C60.7027 24.5717 60.621 24.4195 60.6736 24.2843L60.6792 24.2712L62.8983 19.4272Z" fill="#2E186A"/>
<path fill-rule="evenodd" clip-rule="evenodd" d="M64.5836 18.6527C65.2566 18.3257 65.9301 18.5227 66.5427 19.0296C66.6791 19.1425 66.802 19.2629 66.91 19.3835L66.9412 19.4188C66.9906 19.4754 67.0268 19.5207 67.0487 19.5504C67.1262 19.6552 67.104 19.8029 66.9991 19.8803C66.8983 19.9547 66.7577 19.9371 66.6782 19.8424L66.6493 19.8054L66.6428 19.7974C66.6189 19.7677 66.5906 19.7343 66.5582 19.6981C66.465 19.5941 66.3586 19.4899 66.2416 19.3931C65.7562 18.9915 65.2631 18.8472 64.7901 19.077C64.6729 19.134 64.5316 19.0852 64.4746 18.968C64.4176 18.8509 64.4664 18.7097 64.5836 18.6527Z" fill="#2E186A"/>
<path fill-rule="evenodd" clip-rule="evenodd" d="M64.1124 25.8714C63.9147 26.133 63.6729 26.2925 63.3922 26.3684C63.0657 26.4566 62.7064 26.428 62.3582 26.3247C62.2876 26.3037 62.2237 26.2813 62.1679 26.2592L62.1363 26.2463L62.1053 26.2327C61.9772 26.1714 61.8243 26.2363 61.7794 26.3709L61.7718 26.3953C61.7623 26.4271 61.7513 26.4704 61.7405 26.5235C61.6923 26.7612 61.6864 27.0124 61.7524 27.2553C61.9163 27.8586 62.4677 28.2067 63.4354 28.1754C63.4531 28.1748 63.4706 28.1722 63.4877 28.1678C64.4102 27.9258 64.9389 27.2791 65.0114 26.5423C65.0413 26.238 64.9817 25.9551 64.84 25.7871C64.6378 25.5474 64.3361 25.5881 64.1252 25.8548L64.1124 25.8714ZM64.505 26.1358L64.5065 26.1391C64.5382 26.2152 64.5562 26.3465 64.5415 26.4961L64.5386 26.5224C64.4762 27.047 64.0964 27.5083 63.4028 27.7019L63.3935 27.7045L63.3499 27.7054C62.6368 27.7146 62.3074 27.4971 62.2081 27.1317L62.2 27.0991C62.1774 27.0007 62.1718 26.8959 62.1793 26.7911L62.1815 26.764L62.2238 26.7769C62.6486 26.903 63.0918 26.9383 63.5154 26.8238C63.8834 26.7244 64.2058 26.5163 64.4641 26.1884L64.4982 26.1441L64.505 26.1358Z" fill="#2E186A"/>
<path fill-rule="evenodd" clip-rule="evenodd" d="M59.7319 17.6704C60.251 17.5072 60.7889 17.6351 61.3051 17.9391C61.4279 18.0114 61.5402 18.0888 61.6399 18.1664L61.6745 18.1936C61.7178 18.2283 61.7501 18.2563 61.7704 18.2751C61.866 18.3637 61.8717 18.5129 61.7831 18.6085C61.6979 18.7004 61.5565 18.7092 61.4607 18.631L61.4333 18.6069L61.4265 18.601C61.4048 18.5825 61.3792 18.5615 61.3499 18.5387C61.2654 18.473 61.1697 18.407 61.0654 18.3456C60.6532 18.1028 60.2412 18.0049 59.8737 18.1205C59.722 18.1681 59.5776 18.2523 59.4401 18.3783C59.344 18.4663 59.1947 18.4598 59.1065 18.3638C59.0184 18.2677 59.0249 18.1185 59.1211 18.0305C59.3089 17.8584 59.5137 17.739 59.7319 17.6704Z" fill="#2E186A"/>
<path fill-rule="evenodd" clip-rule="evenodd" d="M83.4555 9.52281C82.9597 9.60144 82.4482 9.73513 81.9524 9.90813C78.2695 11.2135 76.1448 14.705 77.2071 17.7089C78.2616 20.6735 82.0232 22.0497 85.6668 20.8308C86.2334 22.8675 86.3357 26.359 82.7787 30.4638C82.1649 31.1716 82.9282 32.2174 83.786 31.8478C87.2171 30.3616 91.8443 27.7744 93.3788 24.1493C95.7633 18.4953 95.4957 6.28296 83.4555 9.52281Z" fill="#2E186A"/>
<path fill-rule="evenodd" clip-rule="evenodd" d="M75.7985 18.3223L75.7828 18.2594C75.5546 17.5123 75.9717 16.7181 76.7193 16.4822L77.5456 16.2306C78.2931 16.0025 79.088 16.4193 79.324 17.1663L79.3398 17.2293C79.568 17.9763 79.1509 18.7705 78.4033 19.0064L77.577 19.2581C76.8216 19.4861 76.0267 19.0694 75.7985 18.3223Z" fill="#E0840B"/>
<path fill-rule="evenodd" clip-rule="evenodd" d="M76.3179 16.2698C75.6884 14.3196 73.4613 12.0234 66.9611 10.6158C66.8903 10.608 66.8116 10.6158 66.7251 10.6316C63.4278 9.93168 58.1159 11.7718 58.2182 17.9605C58.2418 19.1243 58.533 20.2095 59.0209 21.2004C59.2727 20.1073 59.674 19.0064 60.2406 17.9527C61.6414 15.3262 63.3569 13.6984 65.1748 12.9592C64.7734 15.0824 65.5997 18.4481 70.2899 22.1755C70.2978 22.1912 70.3057 22.2069 70.3214 22.2305L70.3765 21.9867C70.3765 21.9867 72.0999 21.8609 72.7688 22.7731C72.7767 22.7888 72.7845 22.7967 72.7924 22.8124C72.8003 22.8203 72.8081 22.8281 72.8081 22.8439C72.816 22.8596 72.8239 22.8675 72.8318 22.8832C72.8396 22.8911 72.8475 22.9068 72.8475 22.9146C72.8554 22.9304 72.8632 22.9461 72.8711 22.954C72.879 22.9697 72.8868 22.9854 72.8947 23.0011C72.9026 23.0169 72.9104 23.0326 72.9183 23.0562C72.9262 23.0719 72.9262 23.0798 72.9341 23.0955C72.9419 23.1112 72.9419 23.1191 72.9498 23.1348C72.9577 23.1506 72.9577 23.1663 72.9655 23.182C72.9655 23.1977 72.9734 23.2056 72.9734 23.2213C72.9813 23.2371 72.9813 23.2528 72.9891 23.2685C72.9891 23.2764 72.997 23.2921 72.997 23.3C73.0128 23.3629 73.0206 23.4258 73.0206 23.4966C73.0206 23.5044 73.0206 23.5123 73.0206 23.528C73.0206 23.5516 73.0206 23.5673 73.0206 23.5909C73.0206 23.5988 73.0206 23.6145 73.0206 23.6224C73.0206 23.646 73.0206 23.6696 73.0206 23.6932C73.0206 23.701 73.0206 23.7167 73.0206 23.7246C73.0206 23.7482 73.0206 23.7718 73.0128 23.7954C73.0049 23.8583 72.997 23.9212 72.9891 23.9841C72.9655 24.1257 72.9341 24.2751 72.879 24.4402C72.4776 25.6984 71.7064 26.0916 71.006 26.1545C71.0139 26.123 71.1083 27.7272 71.0847 27.7508C72.0133 27.4363 73.0206 26.8308 74.0987 25.8085C77.2544 22.8281 77.6479 19.0143 76.3179 16.2698Z" fill="#2E186A"/>
<path fill-rule="evenodd" clip-rule="evenodd" d="M34.6098 46.2147C34.6098 46.2147 33.1382 44.351 34.1377 43.9893C36.3726 43.1793 42.4399 54.2042 35.9398 54.5581C35.6171 54.5738 32.4457 55.1872 30.5649 52.6C29.1484 50.4375 29.0461 48.1335 30.0455 46.8517C31.0528 45.5699 34.6098 46.2147 34.6098 46.2147Z" fill="white"/>
<path fill-rule="evenodd" clip-rule="evenodd" d="M34.0572 43.7676C33.4944 43.9713 33.4375 44.5003 33.7069 45.1609C33.7816 45.344 33.8802 45.5355 33.9969 45.7315L34.0372 45.7983L34.0782 45.8642L34.1037 45.9042L34.0622 45.8994C33.4318 45.8265 32.7873 45.7958 32.1824 45.8312C31.1007 45.8944 30.2896 46.1592 29.8599 46.7061C28.7555 48.1224 28.9434 50.5553 30.3674 52.7293L30.3739 52.7388C30.9426 53.521 31.6572 54.0716 32.4835 54.4192C33.4928 54.8439 34.5129 54.9312 35.555 54.8357L35.6514 54.8263C35.7464 54.8163 35.9051 54.7981 35.9437 54.7945L35.9526 54.7938C37.5759 54.7054 38.5773 53.9657 38.9415 52.7093C39.2492 51.6478 39.0834 50.2583 38.5362 48.7566C37.4793 45.8564 35.3263 43.3077 34.0572 43.7676ZM35.9705 54.3201L35.9151 54.3235C35.8523 54.3289 35.6382 54.3536 35.5689 54.3604C34.5771 54.4579 33.6101 54.3813 32.6667 53.9844L32.618 53.9636C31.906 53.6546 31.2893 53.1785 30.7898 52.5075L30.759 52.4657L30.7625 52.4709C29.4392 50.4508 29.268 48.2329 30.2318 46.9968C30.5548 46.5857 31.2516 46.3583 32.21 46.3022C32.784 46.2686 33.4026 46.2981 34.008 46.3681C34.1398 46.3833 34.2618 46.3995 34.372 46.4157L34.4894 46.4338L34.5677 46.4469C34.7773 46.4849 34.9238 46.2492 34.8031 46.0792L34.7631 46.0268L34.7295 45.9818C34.712 45.958 34.6934 45.9324 34.674 45.9052C34.5815 45.7752 34.4888 45.6349 34.4027 45.4903C34.2972 45.3131 34.2091 45.1419 34.1442 44.9829L34.1238 44.9313C33.9647 44.5181 33.9974 44.2911 34.2181 44.2112C35.1215 43.8838 37.1202 46.25 38.0925 48.9181C38.6086 50.3342 38.763 51.629 38.488 52.578C38.1847 53.6243 37.3729 54.2323 35.9705 54.3201Z" fill="#2E186A"/>
<path fill-rule="evenodd" clip-rule="evenodd" d="M36.5142 40.9304L30.5335 32.0837C30.2344 31.6433 29.5576 31.777 29.4475 32.3039L27.4329 42.4559C27.3463 42.8884 27.8342 43.203 28.1962 42.9513L30.9112 41.0405L33.4609 51.0903C33.5553 51.4677 33.9409 51.6958 34.3187 51.6014L34.7357 51.4992C35.1135 51.4048 35.3417 51.0195 35.2473 50.642L32.7448 40.7652L35.9791 41.6853C36.4198 41.8032 36.7739 41.3078 36.5142 40.9304Z" fill="#2E186A"/>
<path fill-rule="evenodd" clip-rule="evenodd" d="M30.9112 46.4901C32.6346 45.8924 35.5227 46.3485 36.1916 47.3944C36.8605 48.4403 36.2073 48.2515 36.2073 48.2515C36.2073 48.2515 36.9707 48.7548 36.9864 49.2188C37.0021 49.6827 36.8998 50.0523 36.8998 50.0523C36.8998 50.0523 37.5294 50.0838 37.3405 50.7915C37.1517 51.4914 37.0651 51.7116 37.0651 51.7116C37.0651 51.7116 37.1989 53.072 36.0814 53.1585C34.964 53.245 32.6818 53.9842 31.6824 53.1742C30.683 52.3642 29.1878 47.0877 30.9112 46.4901Z" fill="white"/>
<path fill-rule="evenodd" clip-rule="evenodd" d="M32.0502 51.2645C32.97 51.0014 34.121 50.8893 35.1546 50.9402C36.2199 50.9926 36.977 51.1968 37.1672 51.577C37.5083 52.2787 37.3202 52.6467 36.4033 53.0962C36.0608 53.2593 35.4947 53.3392 34.7506 53.3616C34.2915 53.3754 33.8014 53.3658 33.3235 53.3415L33.2289 53.3364C33.1828 53.3339 33.1386 53.3313 33.0964 53.3286L32.9488 53.3187L32.8989 53.315C32.7689 53.3045 32.6721 53.1907 32.6825 53.0609C32.693 52.931 32.8068 52.8342 32.9368 52.8447L33.0467 52.8526L33.1678 52.8603C33.2243 52.8637 33.2844 52.867 33.3475 52.8703C33.8137 52.894 34.2917 52.9033 34.7363 52.89L34.8262 52.8869C35.4627 52.8629 35.947 52.7908 36.1977 52.6714L36.278 52.6317C36.9047 52.3179 36.9468 52.2033 36.7437 51.7856C36.716 51.7302 36.5554 51.642 36.2877 51.5698C35.9884 51.4891 35.5867 51.4339 35.1313 51.4114C34.147 51.363 33.0473 51.4701 32.1802 51.7181C32.0548 51.754 31.9241 51.6815 31.8882 51.5563C31.8523 51.431 31.9248 51.3004 32.0502 51.2645Z" fill="#2E186A"/>
<path fill-rule="evenodd" clip-rule="evenodd" d="M32.1673 49.2239C32.9603 49.1042 33.7607 49.0406 34.5109 49.0631C34.9328 49.0757 35.3259 49.1158 35.6852 49.1865L35.7468 49.199L35.7839 49.2057C36.6264 49.3613 37.2729 49.8232 37.519 50.39L37.5305 50.417C37.7867 51.0428 37.4718 51.6145 36.7496 51.7094C36.6203 51.7264 36.5017 51.6355 36.4847 51.5063C36.4677 51.3771 36.5587 51.2587 36.688 51.2417C37.0979 51.1878 37.2344 50.9399 37.0935 50.5957C36.9214 50.1753 36.4056 49.801 35.7009 49.6701L35.6551 49.6619C35.3072 49.5888 34.9187 49.5474 34.4967 49.5347C33.7785 49.5131 33.005 49.5746 32.2378 49.6904C32.0291 49.7219 31.8349 49.7555 31.6591 49.7892L31.6012 49.8004C31.5568 49.8091 31.5159 49.8174 31.4786 49.8252L31.3657 49.8496C31.2386 49.8789 31.1119 49.7998 31.0825 49.6729C31.0542 49.5505 31.1268 49.4283 31.2459 49.3934L31.2722 49.3869L31.3262 49.3751C31.3705 49.3656 31.4206 49.3552 31.4761 49.3442L31.5101 49.3374C31.7075 49.2987 31.9282 49.26 32.1673 49.2239Z" fill="#2E186A"/>
<path fill-rule="evenodd" clip-rule="evenodd" d="M31.3628 47.635C32.3584 47.4004 33.3766 47.3005 34.3337 47.4131C34.816 47.4699 35.2677 47.5803 35.6832 47.7502C36.0005 47.8804 36.2686 48.0194 36.4904 48.1669C37.3124 48.7134 37.4698 49.3494 37.2034 49.9095C37.1605 49.9998 37.116 50.0668 37.0818 50.1082C36.9988 50.2086 36.85 50.2228 36.7495 50.1398C36.6528 50.06 36.636 49.9194 36.7087 49.8195L36.7178 49.8077C36.7288 49.7944 36.7521 49.7592 36.7769 49.707C36.8413 49.5717 36.8648 49.4218 36.8255 49.2627C36.7686 49.0329 36.5844 48.7961 36.2289 48.5598C36.0343 48.4304 35.7936 48.3055 35.5041 48.1867C35.1305 48.034 34.7202 47.9337 34.2785 47.8817C33.3837 47.7765 32.4177 47.8712 31.4712 48.0942C31.2559 48.1449 31.0572 48.1989 30.8787 48.2531L30.8258 48.2694C30.7701 48.2866 30.72 48.3029 30.6759 48.3177L30.5917 48.3469C30.4694 48.3921 30.3336 48.3297 30.2884 48.2075C30.2432 48.0853 30.3056 47.9496 30.4279 47.9044L30.4601 47.8929L30.4973 47.88C30.5515 47.8615 30.6145 47.8409 30.6856 47.8188C30.8876 47.756 31.1149 47.6934 31.3628 47.635Z" fill="#2E186A"/>
<path fill-rule="evenodd" clip-rule="evenodd" d="M34.1644 46.0437C34.2155 45.9238 34.3541 45.868 34.4741 45.9191C34.5108 45.9347 34.5471 45.9504 34.5828 45.9662C35.5246 46.3817 36.1081 46.8355 36.3919 47.3153C36.6069 47.6787 36.6326 48.0209 36.5402 48.3057C36.5205 48.3664 36.4991 48.4124 36.4812 48.4425C36.4147 48.5546 36.2699 48.5916 36.1577 48.5252C36.0497 48.4612 36.0114 48.3246 36.0681 48.2145L36.0751 48.2019C36.0759 48.2005 36.0826 48.186 36.091 48.1601C36.1434 47.9988 36.1282 47.7967 35.9855 47.5555C35.7581 47.1712 35.2511 46.7768 34.3921 46.3978C34.3583 46.3829 34.3239 46.368 34.2891 46.3532C34.1691 46.3021 34.1133 46.1635 34.1644 46.0437Z" fill="#2E186A"/>
</svg>
