<svg width="120" height="78" viewBox="0 0 120 78" fill="none" xmlns="http://www.w3.org/2000/svg">
<path fill-rule="evenodd" clip-rule="evenodd" d="M26.3124 48.2231C26.4984 48.2231 26.6492 48.3738 26.6492 48.5597C26.6492 48.739 26.509 48.8855 26.3322 48.8957L26.3124 48.8963H14.2451V77.4181C14.2451 77.5974 14.1049 77.7439 13.9281 77.7541L13.9083 77.7547C13.729 77.7547 13.5824 77.6146 13.5721 77.4379L13.5716 77.4181V48.5597C13.5716 48.3804 13.7118 48.2339 13.8885 48.2237L13.9083 48.2231H26.3124Z" fill="#2E186A"/>
<path fill-rule="evenodd" clip-rule="evenodd" d="M108.48 48.2231C108.659 48.2231 108.806 48.3632 108.816 48.5399L108.817 48.5597V77.4181C108.817 77.604 108.666 77.7547 108.48 77.7547C108.301 77.7547 108.154 77.6146 108.144 77.4379L108.143 77.4181V48.8963H65.2731C65.0938 48.8963 64.9472 48.7562 64.9369 48.5795L64.9364 48.5597C64.9364 48.3804 65.0766 48.2339 65.2533 48.2237L65.2731 48.2231H108.48Z" fill="#2E186A"/>
<path fill-rule="evenodd" clip-rule="evenodd" d="M64.434 48.2231C64.62 48.2231 64.7708 48.3738 64.7708 48.5597C64.7708 48.739 64.6306 48.8855 64.4538 48.8957L64.434 48.8963H20.812C20.626 48.8963 20.4752 48.7456 20.4752 48.5597C20.4752 48.3804 20.6154 48.2339 20.7922 48.2237L20.812 48.2231H64.434Z" fill="#2E186A"/>
<path fill-rule="evenodd" clip-rule="evenodd" d="M39.4687 35.3536L39.3452 34.815H39.334C36.3255 34.7926 38.4023 30.2484 40.0075 28.139C39.4687 25.85 38.7839 23.0899 38.2675 21.261C37.3471 18.0183 35.1918 17.2217 33.5865 17.6817L31.2965 18.0632L31.1282 18.4222L32.2619 18.1754C32.3854 18.3998 33.8559 21.5751 30.2863 22.3942C27.9401 22.9328 25.2348 21.0253 24.0112 19.2974L24.1572 19.275L22.1254 19.6228C22.0356 19.6116 21.957 19.6116 21.8784 19.6004C19.869 19.5555 16.5575 26.815 15.7718 31.0338C16.8157 30.6972 19.1618 30.3493 22.1478 30.7421C22.2376 30.5625 22.5519 30.0352 22.9785 29.2834C23.0234 29.3732 23.0795 29.4517 23.1244 29.5303C23.3714 29.9454 24.2021 31.3143 24.2021 31.3143L36.5501 32.6495L35.9888 33.6818L34.2825 35.2526L39.4687 35.3536Z" fill="#2E186A"/>
<path fill-rule="evenodd" clip-rule="evenodd" d="M24.6873 11.2988C24.8415 11.1948 25.0508 11.2355 25.1548 11.3896C25.2588 11.5438 25.2181 11.753 25.0639 11.8569C24.6071 12.1648 24.4419 12.5726 24.6362 13.1957C24.8326 13.8346 25.1714 14.1173 25.6368 14.169C25.977 14.2068 26.3486 14.1191 26.683 13.9734C26.8535 13.8991 27.052 13.977 27.1263 14.1474C27.2006 14.3178 27.1226 14.5162 26.9521 14.5905C26.5194 14.779 26.043 14.8914 25.5624 14.8381C24.8291 14.7566 24.2673 14.2878 23.9928 13.3947C23.7063 12.4759 23.9938 11.7662 24.6873 11.2988Z" fill="#2E186A"/>
<path fill-rule="evenodd" clip-rule="evenodd" d="M27.1802 15.2187C27.2515 15.0471 27.4486 14.9657 27.6204 15.0371C27.786 15.1059 27.8676 15.2915 27.8092 15.4586L27.8021 15.4771L26.3091 19.0676C26.2682 19.166 26.1832 19.2389 26.0806 19.2648L26.0584 19.2696L24.6255 19.5299L24.6525 19.5625C26.0802 21.2622 28.3895 22.4492 30.1638 22.0789L30.2221 22.0662C31.6487 21.7388 32.2667 21.0284 32.3343 20.0389C32.3593 19.6733 32.3055 19.2877 32.1952 18.908C32.1658 18.807 32.1335 18.7103 32.0997 18.6202L32.0775 18.5625L31.2111 18.7512C30.9464 18.8088 30.7281 18.5474 30.8256 18.3L30.8327 18.2832L31.495 16.8245C31.5719 16.6552 31.7715 16.5803 31.9409 16.6571C32.1042 16.7312 32.1797 16.9194 32.116 17.0845L32.1084 17.1027L31.7232 17.9506L32.2015 17.8465C32.3402 17.8163 32.4822 17.8764 32.5575 17.995L32.5682 18.0132C32.6435 18.15 32.7558 18.4238 32.8419 18.7202C32.9728 19.1703 33.0372 19.6323 33.0062 20.0848C32.9182 21.3728 32.0863 22.3291 30.3729 22.7223C28.1256 23.2382 25.2759 21.6502 23.7476 19.4919C23.6092 19.2965 23.7137 19.0258 23.9423 18.9705L23.9622 18.9663L25.7575 18.6399L27.1802 15.2187Z" fill="#2E186A"/>
<path fill-rule="evenodd" clip-rule="evenodd" d="M28.3467 6.01519C28.2091 6.08154 27.9371 6.21406 27.8977 6.23303L27.7705 6.29367C27.6777 6.33738 27.5982 6.37346 27.5248 6.40497L27.4633 6.43092C25.4944 7.24569 24.8348 10.0881 25.8843 12.9287C27.0516 16.0881 29.9724 18.0128 32.7762 16.9297C34.17 16.3913 34.8724 15.112 35.029 13.3795C35.1309 12.2525 34.9808 10.9685 34.7551 10.1655L34.7402 10.1138C33.8888 7.227 32.7601 5.75526 31.3281 5.41643C30.445 5.20747 29.6291 5.4093 28.4588 5.96172L28.3467 6.01519ZM34.094 10.3035C34.3053 11.025 34.4542 12.2572 34.3582 13.3189C34.2223 14.8224 33.646 15.872 32.5334 16.3017C30.1323 17.2292 27.5665 15.5385 26.5161 12.6955C25.5777 10.1556 26.1466 7.70445 27.721 7.05293L27.7892 7.02416C27.8816 6.98451 27.9807 6.93926 28.0982 6.88344L28.6849 6.59963C29.7605 6.08598 30.467 5.90449 31.173 6.07154C32.3096 6.34048 33.2842 7.59926 34.0704 10.2242L34.094 10.3035Z" fill="#2E186A"/>
<path fill-rule="evenodd" clip-rule="evenodd" d="M31.5323 13.7658C32.1048 13.8668 32.5426 13.7097 32.7783 13.5863C32.8906 13.5302 33.014 13.5975 33.0365 13.7209C33.0926 14.0688 33.0814 14.6746 32.3181 14.8542C31.5211 15.0449 31.3527 14.3493 31.319 13.9566C31.319 13.8443 31.42 13.7434 31.5323 13.7658Z" fill="#2E186A"/>
<path fill-rule="evenodd" clip-rule="evenodd" d="M31.5747 8.63583C31.7433 8.57475 31.9289 8.65657 31.9988 8.81921L32.006 8.83761L33.2184 12.1812C33.2838 12.3616 33.1853 12.5585 33.005 12.6163L32.9854 12.622L32.1098 12.8464C31.9297 12.8926 31.7462 12.784 31.7 12.6039C31.6554 12.4303 31.7548 12.2535 31.9235 12.1997L31.9425 12.1943L32.4587 12.062L31.3728 9.06699C31.3117 8.89845 31.3936 8.71294 31.5563 8.64311L31.5747 8.63583Z" fill="#2E186A"/>
<path fill-rule="evenodd" clip-rule="evenodd" d="M29.0944 9.48933C29.4413 9.12474 29.883 8.96562 30.3683 9.18394C30.5379 9.26023 30.6136 9.4595 30.5372 9.62903C30.4636 9.7925 30.2756 9.86863 30.1102 9.80545L30.0919 9.79786C29.912 9.71694 29.7527 9.77435 29.5824 9.95331C29.5348 10.0033 29.4921 10.058 29.4556 10.1125L29.4395 10.1372C29.4324 10.1483 29.4268 10.1575 29.4228 10.1644L29.4167 10.1752C29.33 10.3396 29.1263 10.4027 28.9618 10.316C28.7973 10.2294 28.7342 10.0258 28.8209 9.86131C28.8733 9.76199 28.9639 9.62638 29.0944 9.48933Z" fill="#2E186A"/>
<path fill-rule="evenodd" clip-rule="evenodd" d="M31.82 7.55949C32.2183 7.22191 32.6925 7.11054 33.1625 7.41253C33.3189 7.51306 33.3642 7.72132 33.2636 7.8777C33.1668 8.02828 32.97 8.07584 32.8158 7.98939L32.7982 7.97882C32.6229 7.86618 32.4523 7.90627 32.2556 8.07294C32.2083 8.11308 32.165 8.15678 32.1275 8.2002L32.1044 8.22774C32.0982 8.23538 32.0935 8.24138 32.0905 8.24544L32.088 8.24884C31.9808 8.40071 31.7707 8.43693 31.6187 8.32972C31.4668 8.22251 31.4305 8.01248 31.5378 7.86061C31.595 7.77966 31.6899 7.66979 31.82 7.55949Z" fill="#2E186A"/>
<path fill-rule="evenodd" clip-rule="evenodd" d="M31.0243 11.531C31.1883 11.4973 31.2786 11.2633 31.2261 11.0084C31.1737 10.7535 30.9982 10.5741 30.8342 10.6079C30.6703 10.6416 30.5799 10.8756 30.6324 11.1305C30.6849 11.3855 30.8604 11.5648 31.0243 11.531Z" fill="#2E186A"/>
<path fill-rule="evenodd" clip-rule="evenodd" d="M33.887 10.9604C34.051 10.9266 34.1413 10.6926 34.0889 10.4377C34.0364 10.1828 33.8609 10.0035 33.6969 10.0372C33.533 10.0709 33.4426 10.3049 33.4951 10.5599C33.5476 10.8148 33.7231 10.9941 33.887 10.9604Z" fill="#2E186A"/>
<path fill-rule="evenodd" clip-rule="evenodd" d="M29.3562 8.23155C28.1669 8.43334 27.4502 9.8452 27.7079 11.3623C27.9657 12.8794 29.1087 13.9757 30.298 13.7739C31.4873 13.5721 32.2041 12.1603 31.9463 10.6432C31.6885 9.1261 30.5456 8.02977 29.3562 8.23155ZM29.4408 8.72938C30.3173 8.58068 31.2327 9.45874 31.4483 10.7277C31.664 11.9966 31.0899 13.1274 30.2134 13.2761C29.337 13.4248 28.4216 12.5467 28.2059 11.2778C27.9903 10.0089 28.5644 8.87808 29.4408 8.72938Z" fill="#FF8D7E"/>
<path fill-rule="evenodd" clip-rule="evenodd" d="M34.2735 7.28881C33.0841 7.49059 32.3674 8.90245 32.6252 10.4195C32.8829 11.9366 34.0259 13.0329 35.2152 12.8312C36.4045 12.6294 37.1213 11.2175 36.8635 9.70043C36.6057 8.18335 35.4628 7.08702 34.2735 7.28881ZM34.358 7.78663C35.2345 7.63793 36.1499 8.51599 36.3656 9.78492C36.5812 11.0539 36.0071 12.1846 35.1306 12.3333C34.2542 12.482 33.3388 11.604 33.1231 10.335C32.9075 9.0661 33.4816 7.93533 34.358 7.78663Z" fill="#FF8D7E"/>
<path fill-rule="evenodd" clip-rule="evenodd" d="M32.7217 9.51184C32.8589 9.48679 32.9905 9.57766 33.0155 9.71482C33.0395 9.84601 32.9574 9.97203 32.8301 10.0047L32.8125 10.0085L31.645 10.2217C31.5078 10.2468 31.3762 10.1559 31.3512 10.0187C31.3272 9.88755 31.4093 9.76153 31.5366 9.72889L31.5542 9.72503L32.7217 9.51184Z" fill="#FF8D7E"/>
<path fill-rule="evenodd" clip-rule="evenodd" d="M27.792 10.2055C27.9241 10.1609 28.0675 10.2318 28.1121 10.3639C28.1548 10.4903 28.0917 10.6268 27.9705 10.6775L27.9536 10.6839L25.3268 11.5703C25.1946 11.6149 25.0513 11.5439 25.0067 11.4118C24.964 11.2855 25.0271 11.1489 25.1483 11.0982L25.1652 11.0919L27.792 10.2055Z" fill="#FF8D7E"/>
<path fill-rule="evenodd" clip-rule="evenodd" d="M24.7746 11.6564C24.7858 11.6564 24.7858 11.6452 24.797 11.6452C24.9766 11.7013 25.2011 11.6677 25.5042 11.533C26.9747 10.8598 27.5136 9.18798 27.7156 8.13328L34.7203 6.3156C35.2142 6.19218 35.4724 5.63117 35.2479 5.17114C33.1038 0.772813 29.4107 3.27492 26.9523 5.77703C25.0327 5.74337 22.5968 7.68447 22.0804 9.24408C21.4518 11.1179 21.6763 13.8107 22.9785 15.5386C24.3704 17.0646 25.6389 17.5695 26.7615 17.4909C26.7278 17.4573 27.5023 15.5162 27.6707 15.2132C27.3901 14.9215 27.1431 14.5849 26.9186 14.2483C26.6941 14.3605 24.9093 15.202 24.3143 13.3058C24.0561 12.4979 24.3368 11.9818 24.7746 11.6564Z" fill="#2E186A"/>
<path fill-rule="evenodd" clip-rule="evenodd" d="M16.0911 30.6182C17.5185 30.2472 19.6193 30.1241 21.8502 30.3852C22.033 30.4066 22.1582 30.5676 22.1474 30.7402L22.147 30.7439L22.9479 30.8511L23.0418 30.8635C24.034 30.9944 25.0646 31.1253 26.0798 31.2474L26.4498 31.2916C26.6946 31.3206 26.9354 31.3487 27.1718 31.3758L27.6407 31.429C29.3119 31.6161 30.6628 31.7409 31.5824 31.7859C31.7682 31.7949 31.9114 31.9528 31.9023 32.1385C31.8932 32.3242 31.7353 32.4674 31.5495 32.4583L31.38 32.4494C30.4139 32.3954 29.0456 32.2656 27.3729 32.0763L27.2721 32.0649C26.8608 32.0181 26.4357 31.9683 25.9994 31.9158C25.1086 31.8086 24.2063 31.6948 23.3284 31.5801L22.6756 31.4941L21.6525 31.3559C21.4793 31.3319 21.3603 31.1828 21.3618 31.0195L21.3621 31.01L21.2627 31.0009C19.407 30.8316 17.6855 30.9359 16.4572 31.2214L16.435 31.2266L16.4319 31.2361C16.1448 32.1041 16.064 32.7765 16.1943 33.199L16.2035 33.2274C16.4015 33.8211 17.1288 34.3836 17.8069 34.4818C18.6557 34.6045 19.5528 34.7026 20.4922 34.7775C23.5007 35.0175 26.7111 35.0114 29.7577 34.8536L30.026 34.8393C30.4221 34.8175 30.7871 34.7945 31.1171 34.7713L31.4572 34.7464L31.8386 34.7153C32.0238 34.6985 32.1876 34.835 32.2044 35.0201C32.2206 35.1987 32.0943 35.3573 31.9191 35.3834L31.8941 35.3863L31.6475 35.4068C31.5744 35.4126 31.4946 35.4188 31.4081 35.4252L31.1646 35.4429C30.8311 35.4663 30.4626 35.4895 30.063 35.5115C26.9094 35.6846 23.5701 35.6984 20.4386 35.4486C19.4854 35.3725 18.5742 35.2729 17.7104 35.1481C16.7894 35.0146 15.8464 34.2854 15.5652 33.4422C15.3524 32.8168 15.4684 31.9382 15.8582 30.8321C15.8955 30.7265 15.9827 30.6463 16.0911 30.6182Z" fill="#2E186A"/>
<path fill-rule="evenodd" clip-rule="evenodd" d="M33.8719 31.9521L34.0726 31.9825L34.4613 32.0434L34.8001 32.0979L34.9854 32.1287C35.6703 32.2443 36.1553 32.3458 36.4557 32.4479C36.6541 32.5153 36.7805 32.5805 36.8644 32.6943C37.0551 32.9485 37.0296 33.249 36.8105 33.4586C36.6664 33.5966 36.4497 33.6869 36.1905 33.7361C35.6851 33.8321 35.0932 33.7613 34.7007 33.5194C34.5424 33.4218 34.4932 33.2144 34.5908 33.0562C34.6848 32.9038 34.8807 32.8526 35.0364 32.9361L35.0542 32.9464C35.2888 33.0909 35.7126 33.1416 36.0648 33.0747C36.0839 33.0711 36.1022 33.0672 36.1198 33.0631L36.1469 33.0563L36.1338 33.0524C35.8954 32.983 35.5326 32.9072 35.0552 32.8238L34.8732 32.7926C34.7742 32.7758 34.6721 32.759 34.5624 32.7413L33.8839 32.6344C32.9348 32.49 31.9669 32.4476 31.1539 32.4633L31.0608 32.4654C30.9965 32.467 30.9523 32.4686 30.9303 32.4696C30.7445 32.4781 30.587 32.3344 30.5785 32.1487C30.5703 31.9696 30.7036 31.8168 30.8797 31.7985L30.9059 31.7968L31.0439 31.7924C31.8796 31.7714 32.8773 31.8091 33.8719 31.9521Z" fill="#2E186A"/>
<path fill-rule="evenodd" clip-rule="evenodd" d="M30.467 31.7069L30.5191 31.7096L30.9326 31.7371L31.2184 31.7572C31.4558 31.7743 31.6899 31.7922 31.9129 31.8106L32.173 31.8327C32.4227 31.8546 32.6404 31.876 32.82 31.8967L32.9459 31.9119C33.1162 31.9335 33.241 31.9542 33.3243 31.9761L33.3601 31.9862C33.6096 32.0606 34.1801 32.3039 34.748 32.5754L34.8789 32.6385C35.7095 33.0424 36.1955 33.3266 36.3172 33.5525C36.5383 33.9524 36.3915 34.3297 35.9502 34.411C35.7014 34.4569 35.3383 34.4167 34.8165 34.3022C34.6348 34.2623 34.5199 34.0828 34.5598 33.9013C34.5996 33.7197 34.7792 33.6048 34.9609 33.6446C35.1543 33.6871 35.3203 33.7172 35.4569 33.7354L35.5202 33.7433L35.4824 33.7201L35.4111 33.6777L35.3273 33.6295C35.1386 33.5227 34.9045 33.4008 34.6446 33.2734L34.5042 33.2052C33.9293 32.9287 33.3311 32.674 33.1528 32.6271C33.1 32.6132 32.9829 32.5946 32.8181 32.5744L32.698 32.5604C32.4887 32.537 32.2266 32.5123 31.9233 32.487L31.8576 32.4815C31.6371 32.4634 31.405 32.4456 31.1697 32.4287L30.7732 32.401L30.445 32.3795C30.2593 32.368 30.1182 32.2082 30.1298 32.0226C30.1409 31.8437 30.2899 31.7062 30.467 31.7069Z" fill="#2E186A"/>
<path fill-rule="evenodd" clip-rule="evenodd" d="M32.3438 32.9443C32.396 32.7728 32.5727 32.6733 32.7448 32.7149L32.7689 32.7216L32.8712 32.7535L33.0317 32.8054C33.0694 32.8178 33.1084 32.8307 33.1485 32.8442C33.4356 32.9405 33.7228 33.0441 33.992 33.1515C34.1326 33.2076 34.2648 33.2635 34.3893 33.3197L34.4718 33.358C35.2717 33.7353 35.7558 34.1209 35.6235 34.5175C35.5396 34.7689 35.1858 34.9668 34.7996 35.0229L34.7743 35.0263L34.7713 35.0387C34.7256 35.2069 34.5835 35.328 34.3921 35.3923L34.3668 35.4004C34.188 35.4546 33.9432 35.4727 33.6309 35.4573L33.5751 35.4543L31.5882 35.387C31.4023 35.3807 31.2568 35.225 31.2631 35.0392C31.2691 34.86 31.4142 34.7183 31.5912 34.714L31.611 34.7141L33.6066 34.7819L33.6473 34.7841L33.7194 34.7871L33.5477 34.7263L32.9265 34.4991L32.8106 34.4572L32.7544 34.4404L32.6396 34.4068L32.5245 34.3739C32.4491 34.3526 32.3781 34.3331 32.3126 34.3154L32.1678 34.2772C31.8255 34.1903 31.8308 33.7024 32.175 33.623L32.1968 33.6184C32.3311 33.5926 32.4624 33.6191 32.8745 33.7646L33.0317 33.8207L33.1243 33.8488C33.216 33.877 33.3067 33.9057 33.3957 33.9349L33.528 33.979C33.8775 34.0976 34.1694 34.2138 34.3891 34.3272L34.4265 34.3468L34.4325 34.3488C34.5442 34.3803 34.6778 34.3743 34.8096 34.3354L34.8182 34.3326L34.8145 34.3298C34.6538 34.2122 34.4272 34.0813 34.1635 33.9571L34.1102 33.9324C33.9973 33.8814 33.874 33.8294 33.7423 33.7768C33.486 33.6745 33.2102 33.575 32.9342 33.4824L32.8217 33.445L32.6298 33.3833C32.6015 33.3744 32.5806 33.368 32.5682 33.3642C32.3902 33.3102 32.2898 33.1222 32.3438 32.9443Z" fill="#2E186A"/>
<path fill-rule="evenodd" clip-rule="evenodd" d="M53.9133 20.7495C54.1696 20.6804 54.3809 20.6482 54.5569 20.6664C54.8869 20.7005 55.1109 20.9391 55.0431 21.2933C54.9649 21.6839 54.3553 22.1054 52.9514 22.9319C52.5958 23.1388 52.1821 23.3085 51.7215 23.4458C51.1956 23.6026 50.6356 23.71 50.0762 23.7775C49.8808 23.8011 49.6991 23.8181 49.5356 23.8296L49.3874 23.8387C49.3615 23.84 49.3403 23.8409 49.3242 23.8414C49.1383 23.8474 48.9828 23.7016 48.9768 23.5158C48.971 23.3366 49.1065 23.1856 49.2828 23.1697L49.3999 23.1637C49.4271 23.1621 49.4567 23.1602 49.4885 23.158C49.6411 23.1473 49.8116 23.1314 49.9954 23.1092C50.5197 23.0459 51.0434 22.9455 51.529 22.8007C51.9418 22.6776 52.3074 22.5277 52.6111 22.351L52.8706 22.197C53.2648 21.9612 53.5814 21.7618 53.8421 21.5816C53.911 21.5339 53.9745 21.4886 54.0323 21.4457L54.0962 21.3974L54.0886 21.3995C54.0262 21.4163 53.9605 21.4358 53.8915 21.4579L53.7913 21.4911C53.6502 21.5396 53.4154 21.6254 53.4161 21.6251C53.2397 21.6839 53.049 21.5886 52.9902 21.4123C52.9335 21.2422 53.0201 21.0589 53.1846 20.9933L53.3866 20.9198C53.4707 20.8897 53.5652 20.8564 53.6279 20.8357C53.7274 20.8028 53.8223 20.774 53.9133 20.7495Z" fill="#2E186A"/>
<path fill-rule="evenodd" clip-rule="evenodd" d="M51.8297 19.0852C52.0574 19.0732 52.2526 19.1586 52.3524 19.333L52.3655 19.3578L52.3899 19.3495C52.7812 19.2211 53.2146 19.2356 53.4005 19.4399L53.4155 19.4574L53.4249 19.4697C53.4696 19.5312 53.4969 19.5914 53.5084 19.653L53.5094 19.6591L53.5246 19.6549C53.5662 19.644 53.6075 19.6348 53.6486 19.6275L53.6896 19.6208C54.2653 19.5354 54.7178 19.8642 54.6171 20.4375C54.5753 20.6566 54.1768 21.043 53.4417 21.6577L53.2661 21.8037C52.5436 22.4008 51.8333 22.9302 51.4715 23.128C50.849 23.464 50.0174 23.7359 48.9898 23.9182L48.9451 23.9259L41.7408 33.9784C41.2767 34.6279 40.2109 35.1598 39.3726 35.1414L39.3382 35.1403L39.2954 35.1396C38.3199 35.1163 37.7134 34.6461 37.5314 33.8297L37.5231 33.7906C37.3842 33.1084 37.5399 32.2165 37.9289 31.192C38.5892 29.4528 39.9062 27.4567 40.7282 26.8988L40.7357 26.8937L40.7933 26.8443C41.7726 26.0019 42.9462 24.9107 44.2089 23.6847L44.681 23.2241C45.5736 22.3488 46.4587 21.4566 46.779 21.1191C47.0535 20.8298 47.5049 20.6102 48.0934 20.4318C48.404 20.3377 48.7342 20.2613 49.064 20.2009C49.16 20.1833 49.2504 20.1681 49.3337 20.1552L49.4418 20.1391L49.4629 20.1361L49.5197 20.1124C49.6615 20.0513 49.8615 19.956 50.1036 19.8349L50.2293 19.7716C50.3793 19.6957 50.5351 19.6153 50.6905 19.534L51.0711 19.3329C51.3805 19.1783 51.6292 19.0958 51.8297 19.0852ZM51.6169 19.8248L51.6058 19.8291C51.5393 19.8554 51.464 19.8892 51.3811 19.9306L51.2383 20.0065C51.2012 20.0262 51.1619 20.047 51.1206 20.0687C50.9635 20.1514 50.8043 20.2341 50.6492 20.3134L50.4495 20.4146L50.2634 20.5072C50.0116 20.631 49.8109 20.7235 49.6716 20.7779C49.652 20.7855 49.6318 20.7913 49.6112 20.7952L49.4821 20.8135L49.3895 20.8279C49.3255 20.8382 49.2572 20.8499 49.1855 20.863C48.8788 20.9193 48.5725 20.9901 48.2889 21.076C47.8034 21.2232 47.4413 21.3994 47.2677 21.5824L47.1021 21.7546C46.68 22.1896 45.867 23.0056 45.0629 23.7925L44.7779 24.0706C43.4364 25.3758 42.1901 26.5351 41.1583 27.4184C41.1469 27.4282 41.1349 27.4371 41.1223 27.4453C40.4457 27.8835 39.1803 29.7934 38.5586 31.4309C38.2107 32.3471 38.0749 33.125 38.1831 33.6563C38.2897 34.18 38.6265 34.4502 39.3078 34.4665L39.3603 34.4675C39.9639 34.4945 40.8197 34.0791 41.1732 33.6136L41.193 33.5867L48.4784 23.4212C48.5305 23.3484 48.6094 23.2994 48.6978 23.285C49.7402 23.1147 50.5629 22.8533 51.1499 22.5364C51.4608 22.3665 52.1465 21.8554 52.8369 21.2848L52.9506 21.1903C53.2313 20.9557 53.4837 20.7347 53.6732 20.5571L53.7302 20.5032C53.803 20.4337 53.8631 20.3733 53.9086 20.3241L53.9422 20.2867L53.9291 20.2842C53.8924 20.2781 53.8445 20.2784 53.7885 20.2867C53.4783 20.3328 53.0875 20.5806 52.7655 20.9873C52.7389 21.021 52.7071 21.0482 52.6722 21.0687L52.657 21.0769L52.6355 21.1022C52.4671 21.2954 52.242 21.4904 51.9718 21.6873L51.9132 21.7295C51.7023 21.8798 51.4778 22.0225 51.2534 22.1536L51.1619 22.2063C51.1324 22.2231 51.1039 22.2391 51.0765 22.2544L50.9677 22.3135C50.961 22.3171 50.9552 22.3201 50.9505 22.3226C50.7855 22.4083 50.5822 22.3442 50.4964 22.1792C50.4106 22.0143 50.4748 21.811 50.6398 21.7253L50.7127 21.6861L50.7885 21.644C50.828 21.6218 50.8698 21.5979 50.9135 21.5723C51.1216 21.4508 51.3295 21.3187 51.5222 21.1813C51.795 20.9869 52.0129 20.7989 52.1525 20.6308L52.2622 20.4977C52.4136 20.3124 52.5344 20.1575 52.6273 20.0285L52.6706 19.9674L52.662 19.9693C52.5343 20.0005 52.4208 20.0544 52.3429 20.1237L52.3402 20.1262L52.3351 20.1333C52.317 20.1576 52.2979 20.1818 52.2777 20.206L52.2467 20.2423C52.0603 20.4557 51.7957 20.6719 51.4706 20.8912C51.2875 21.0148 51.0942 21.1332 50.8996 21.244L50.8135 21.2924L50.7922 21.3054C50.629 21.4037 50.4925 21.4722 50.4118 21.4899L50.3973 21.4927C50.0237 21.5501 49.8577 21.0473 50.1789 20.8677L50.2709 20.8203L50.348 20.7796C50.3748 20.7653 50.4026 20.7502 50.4313 20.7345L50.4751 20.7103L50.5127 20.689L50.5288 20.6789C50.588 20.6406 50.6522 20.5977 50.7191 20.5516L50.7596 20.5235C51.0569 20.316 51.3495 20.0867 51.5327 19.9135C51.5606 19.8878 51.5874 19.8598 51.6121 19.8307L51.6169 19.8248Z" fill="#2E186A"/>
<path fill-rule="evenodd" clip-rule="evenodd" d="M26.1538 18.5113C27.0274 16.9548 26.6399 15.0786 25.2882 14.3206C23.9366 13.5626 22.1326 14.2098 21.2589 15.7662C20.3853 17.3226 20.7728 19.1988 22.1245 19.9569C23.4762 20.7149 25.2801 20.0677 26.1538 18.5113Z" fill="#2E186A"/>
<path fill-rule="evenodd" clip-rule="evenodd" d="M29.0914 20.4023C29.3116 19.1323 28.5939 17.9475 27.4882 17.7559C26.3826 17.5644 25.3078 18.4386 25.0875 19.7086C24.8673 20.9785 25.585 22.1634 26.6906 22.3549C27.7963 22.5465 28.8711 21.6723 29.0914 20.4023Z" fill="#2E186A"/>
<path fill-rule="evenodd" clip-rule="evenodd" d="M30.6193 24.2188C31.2751 23.2708 31.1371 22.0395 30.311 21.4686C29.4849 20.8977 28.2836 21.2034 27.6278 22.1514C26.9721 23.0994 27.1101 24.3307 27.9362 24.9016C28.7622 25.4725 29.9635 25.1668 30.6193 24.2188Z" fill="#2E186A"/>
<path fill-rule="evenodd" clip-rule="evenodd" d="M31.8568 27.0806C32.5882 26.4673 32.7484 25.4544 32.2144 24.8182C31.6805 24.1821 30.6547 24.1636 29.9233 24.7769C29.1919 25.3902 29.0318 26.4031 29.5657 27.0393C30.0996 27.6754 31.1254 27.6939 31.8568 27.0806Z" fill="#2E186A"/>
<path fill-rule="evenodd" clip-rule="evenodd" d="M31.2292 29.721C31.9813 30.1137 32.0935 30.6522 32.0374 31.0674C32.015 31.2694 32.2507 31.3928 32.3966 31.2581C33.2498 30.4839 34.5631 28.9916 33.4855 27.7911C32.9804 27.2189 32.0599 27.1515 31.3751 27.6901C30.6791 28.2287 30.5557 29.3619 31.2292 29.721Z" fill="#2E186A"/>
<path fill-rule="evenodd" clip-rule="evenodd" d="M25.9943 17.7143C26.1312 17.5076 26.4099 17.4511 26.6166 17.588C26.8166 17.7205 26.876 17.9856 26.7555 18.1898L26.7429 18.2101L25.5305 20.039C25.3936 20.2456 25.1149 20.3021 24.9082 20.1652C24.7082 20.0327 24.6487 19.7676 24.7693 19.5634L24.7819 19.5432L25.9943 17.7143Z" fill="#FF8D7E"/>
<path fill-rule="evenodd" clip-rule="evenodd" d="M28.8568 20.8964C29.0582 20.7517 29.3388 20.7977 29.4835 20.999C29.6235 21.1938 29.585 21.4627 29.3998 21.6109L29.3808 21.6253L27.8654 22.7137C27.664 22.8583 27.3834 22.8124 27.2387 22.6111C27.0987 22.4163 27.1372 22.1474 27.3224 21.9992L27.3414 21.9847L28.8568 20.8964Z" fill="#FF8D7E"/>
<path fill-rule="evenodd" clip-rule="evenodd" d="M30.2609 24.1098C30.4846 24.0029 30.7527 24.0975 30.8597 24.3211C30.9634 24.5377 30.8778 24.7959 30.669 24.9091L30.6484 24.9196L30.132 25.1664C29.9083 25.2734 29.6402 25.1788 29.5332 24.9552C29.4295 24.7386 29.5151 24.4803 29.7239 24.3672L29.7445 24.3567L30.2609 24.1098Z" fill="#FF8D7E"/>
<path fill-rule="evenodd" clip-rule="evenodd" d="M31.8029 26.8848C32.0248 26.7739 32.2945 26.8638 32.4054 27.0855C32.5128 27.3002 32.4318 27.56 32.225 27.6768L32.2046 27.6876L31.6882 27.9457C31.4664 28.0565 31.1967 27.9667 31.0858 27.745C30.9783 27.5302 31.0594 27.2705 31.2662 27.1537L31.2866 27.1428L31.8029 26.8848Z" fill="#FF8D7E"/>
<path fill-rule="evenodd" clip-rule="evenodd" d="M22.7172 64.0488L19.821 76.9969C19.7742 77.2065 19.933 77.4058 20.1478 77.407L30.2732 77.4631C30.4437 77.464 30.588 77.3375 30.6092 77.1684C30.8268 75.4338 30.0476 74.1161 28.6418 73.1864C28.2147 72.9039 27.7592 72.6783 27.3038 72.5033L27.261 72.487C27.1763 72.455 27.0976 72.4269 27.0256 72.4025L29.2611 65.1299C29.3214 64.9337 29.1935 64.7297 28.9906 64.6984L23.0972 63.7896C22.922 63.7625 22.7559 63.8759 22.7172 64.0488ZM23.3057 64.5028L28.5029 65.3043L26.2824 72.5283C26.2256 72.7132 26.336 72.9078 26.5239 72.954L26.543 72.9589C26.5695 72.966 26.6108 72.9777 26.6651 72.9942C26.7843 73.0306 26.9179 73.0762 27.0621 73.1317C27.4747 73.2902 27.8872 73.4945 28.2702 73.7478L28.3153 73.7779C29.4065 74.5148 30.0225 75.4907 29.968 76.7645L29.9668 76.7882L20.5694 76.7361L23.3057 64.5028Z" fill="#2E186A"/>
<path fill-rule="evenodd" clip-rule="evenodd" d="M36.5469 63.7235L33.5497 77.1429C33.5029 77.3525 33.6618 77.5517 33.8766 77.5528L44.3612 77.6089C44.5318 77.6099 44.6762 77.483 44.6972 77.3137C44.9067 75.6223 44.2006 74.3041 42.8884 73.3407C42.4313 73.0051 41.9295 72.7352 41.4155 72.5234L41.3467 72.4955C41.233 72.4499 41.1231 72.409 41.0182 72.3727L40.9786 72.3592L43.2929 64.8497C43.3532 64.6537 43.2258 64.4497 43.0231 64.418L36.9277 63.4643C36.7522 63.4368 36.5856 63.5503 36.5469 63.7235ZM37.1354 64.1781L42.5346 65.0229L40.2357 72.4832C40.1811 72.6605 40.2803 72.8472 40.4549 72.9029L40.5124 72.9187C40.556 72.9308 40.6149 72.9484 40.6869 72.9717C40.8323 73.0189 40.991 73.0767 41.1588 73.1458C41.6256 73.3381 42.0803 73.5827 42.4897 73.8833L42.5346 73.9166C43.5461 74.6753 44.1074 75.651 44.0566 76.8953L44.0547 76.9341L34.298 76.8819L37.1354 64.1781Z" fill="#2E186A"/>
<path fill-rule="evenodd" clip-rule="evenodd" d="M39.4687 35.7687L26.6364 36.2927C26.5915 36.4498 19.9252 35.7687 18.7241 44.4419C18.7241 47.8977 20.116 48.4363 19.9252 48.7617C21.5641 48.9749 23.5173 49.0422 25.5491 49.0086L21.3508 70.0577H32.1048L35.102 57.0535L33.3171 70.125H44.0599L44.9691 40.1221C44.9691 40.1221 44.9691 35.3872 39.4687 35.7687Z" fill="#FF8D7E"/>
<path fill-rule="evenodd" clip-rule="evenodd" d="M74.859 62.1968L74.839 62.2038C74.7082 62.2544 74.6217 62.3814 74.624 62.5231L74.7657 71.4167L74.7098 71.4333C74.4626 71.5068 74.1879 71.5991 73.8925 71.7119C73.0493 72.0338 72.206 72.4554 71.4171 72.9898C69.8331 74.0626 68.6705 75.4506 68.1177 77.193C68.0488 77.4101 68.2111 77.6316 68.439 77.6313L80.1135 77.6201C80.2851 77.62 80.4292 77.4908 80.4479 77.3202L82.3113 60.3328C82.3379 60.091 82.1069 59.9017 81.8749 59.9752L74.859 62.1968ZM81.5854 60.773L79.8112 76.9473L68.9163 76.9577L68.9184 76.9525C69.4687 75.5731 70.4672 74.4463 71.7949 73.5471C72.5375 73.0441 73.3351 72.6453 74.1328 72.3408C74.4118 72.2343 74.6704 72.1473 74.9018 72.0786L74.979 72.056C75.0036 72.0489 75.0272 72.0423 75.0497 72.0361L75.1527 72.0087C75.167 72.0051 75.1773 72.0026 75.1834 72.0012L75.2032 71.9959C75.3468 71.953 75.4457 71.8195 75.4433 71.668L75.3014 62.7629L81.5854 60.773Z" fill="#2E186A"/>
<path fill-rule="evenodd" clip-rule="evenodd" d="M62.5281 62.645L62.5074 62.6488C62.3715 62.6783 62.2667 62.789 62.2459 62.928L60.9424 71.6422L60.8684 71.6644C60.6774 71.7221 60.4668 71.7926 60.2406 71.8767C59.6121 72.1105 58.9688 72.4091 58.3422 72.7796C56.5623 73.8321 55.2401 75.2614 54.6472 77.1254C54.5781 77.3427 54.7404 77.5643 54.9685 77.564L65.9357 77.5528C66.0929 77.5527 66.229 77.4439 66.2638 77.2907L69.7325 62.0087C69.785 61.7773 69.5878 61.5656 69.3531 61.6015L62.5281 62.645ZM68.9663 62.3417L65.6663 76.8798L55.4471 76.8904L55.47 76.8347C56.0721 75.3843 57.2009 74.2367 58.6852 73.359C59.2751 73.0102 59.8825 72.7283 60.4756 72.5077C60.6646 72.4374 60.8414 72.3774 61.0033 72.3271L61.0633 72.3088C61.1541 72.2813 61.2276 72.2607 61.2815 72.2466L61.3233 72.236L61.344 72.2302C61.4664 72.1919 61.5571 72.0868 61.5762 71.9588L62.8753 63.2728L68.9663 62.3417Z" fill="#2E186A"/>
<path fill-rule="evenodd" clip-rule="evenodd" d="M100.229 42.9833C98.3994 43.3984 95.043 40.4026 95.043 40.4026L77.9354 36.6887L77.5201 39.1347L74.1637 39.045C65.6548 38.6635 64.2965 45.0702 64.2965 45.0702L57.303 72.3803L67.6978 72.4251L72.9962 53.1376L70.594 72.2344L81.1683 72.3915L83.2338 52.7449C85.7259 52.1726 93.8194 50.2764 95.8961 49.1656C97.9953 48.3914 100.319 45.7322 100.229 42.9833Z" fill="#24348C"/>
<path fill-rule="evenodd" clip-rule="evenodd" d="M80.1383 13.602C80.3094 13.5291 80.5072 13.6087 80.5801 13.7797C80.653 13.9507 80.5734 14.1485 80.4023 14.2213C78.9112 14.8563 78.4094 15.7207 78.3956 17.012C78.3945 17.1132 78.348 17.2085 78.2689 17.2716C75.5864 19.4104 73.7182 21.7963 72.5621 24.3506C72.4673 24.5602 72.1946 24.615 72.026 24.4583L71.5667 24.0326C69.8384 22.4356 68.2899 21.0578 67.8289 20.7431L67.8141 20.7331C67.5706 20.5709 67.4105 20.5742 67.0414 20.7229L66.8221 20.8138C66.7506 20.8427 66.7057 20.8589 66.6449 20.8782C66.34 20.9751 66.0674 20.9729 65.7941 20.8317L65.5272 20.6968C65.4448 20.6554 65.3688 20.6176 65.2991 20.583L65.2288 20.5483L65.2022 20.6133L65.1858 20.6523C65.0375 21.0013 64.8503 21.3503 64.6196 21.6779C64.2334 22.2263 63.7668 22.6571 63.2114 22.9241L63.1764 22.9404C63.2347 23.0953 63.3204 23.2786 63.4387 23.4909L63.4666 23.5404C63.6213 23.8121 63.6435 24.0711 63.5785 24.3794L63.5699 24.4182C63.5637 24.4451 63.5583 24.4674 63.5513 24.4943L63.5165 24.6217C63.4095 25.0064 63.4121 25.1598 63.5958 25.4132L63.7099 25.566C63.8815 25.7929 64.1952 26.1997 64.6302 26.7603L66.482 29.1368L68.2016 31.3356L69.4004 32.8657L69.4424 32.9113C69.6187 33.1048 70.0634 33.6169 70.2802 33.8512L70.3328 33.9072C70.808 34.4039 71.2397 34.7402 71.6602 34.9056C71.8333 34.9737 71.9184 35.1692 71.8503 35.3421C71.7821 35.5151 71.5866 35.6002 71.4135 35.5321C70.9011 35.3305 70.4161 34.9593 69.8996 34.428L69.846 34.3725C69.6301 34.1469 69.069 33.4985 68.93 33.3485L68.8938 33.3102L68.7915 33.1807L66.5106 30.2671L64.0037 27.0513C63.546 26.4611 63.2354 26.0572 63.0972 25.8716L63.0729 25.8387C62.7296 25.3812 62.7077 25.0355 62.8566 24.4813L62.9002 24.3218C62.9054 24.3019 62.9093 24.2855 62.9137 24.2669C62.954 24.0919 62.9475 23.9897 62.8812 23.8734C62.709 23.5708 62.5897 23.3097 62.5143 23.0893C62.4653 22.9461 62.4419 22.8424 62.435 22.7778C62.4182 22.6215 62.512 22.4744 62.6608 22.4235C63.2154 22.2337 63.6835 21.8376 64.0688 21.2904C64.2699 21.0049 64.4351 20.697 64.5658 20.3892C64.6115 20.2816 64.6495 20.1821 64.6801 20.0935L64.6972 20.0425L64.7135 19.9905C64.7698 19.7931 64.9883 19.6916 65.1756 19.7758L65.2577 19.8141L65.3822 19.8739C65.5613 19.9607 65.7978 20.0784 66.1012 20.2325C66.1925 20.2797 66.2799 20.2835 66.4118 20.2454L66.4408 20.2366C66.4959 20.2191 66.5372 20.2034 66.6361 20.1622L66.7084 20.132C67.3173 19.8757 67.6921 19.8427 68.1877 20.173L68.2353 20.2056C68.7464 20.5658 70.163 21.8228 71.804 23.3353L72.1463 23.6515L72.1763 23.59C73.3563 21.1849 75.1557 18.9356 77.648 16.9071L77.7262 16.8436L77.7277 16.8101C77.7948 15.3833 78.4444 14.3404 80.0827 13.6259L80.1383 13.602Z" fill="#2E186A"/>
<path fill-rule="evenodd" clip-rule="evenodd" d="M87.9534 12.7234L88.1165 12.7373C90.705 12.9681 92.2957 13.5971 92.9817 14.614C93.5605 15.4722 93.4594 16.522 92.8227 17.6894L92.8132 17.7066L92.842 17.7252C95.5553 19.4913 98.0976 21.8937 100.123 24.9914L100.198 25.1065C102.503 28.6783 102.579 31.7842 100.938 33.862L100.92 33.8841L101.34 42.3719C101.346 42.4845 101.294 42.5918 101.205 42.6585L101.186 42.6713C100.174 43.3249 99.3874 43.466 98.5718 43.1576L98.5145 43.1353C98.0971 42.9689 97.7237 42.7233 97.0047 42.1799L96.539 41.828C95.7661 41.2465 95.424 41.0092 94.8108 40.6334C94.6523 40.5363 94.6025 40.329 94.6998 40.1705C94.797 40.012 95.0043 39.9623 95.1629 40.0595L95.3493 40.1747C95.9343 40.5396 96.3109 40.8107 97.194 41.4787L97.4977 41.7083C98.1388 42.1897 98.4646 42.3972 98.8101 42.5279C99.3511 42.7325 99.8693 42.6677 100.591 42.2471L100.657 42.2078L100.241 33.7881C100.237 33.7109 100.26 33.6351 100.305 33.5731L100.319 33.5549C101.861 31.7205 101.833 28.8827 99.6319 25.4715C97.5773 22.2917 94.9626 19.8557 92.1804 18.1009C92.0246 18.0027 91.9767 17.7975 92.0729 17.6404C92.7398 16.5522 92.8735 15.658 92.4232 14.9904C91.8656 14.1636 90.3993 13.598 87.8987 13.3944C87.7133 13.3793 87.5753 13.2168 87.5904 13.0316C87.605 12.8529 87.7566 12.7182 87.9336 12.7224L87.9534 12.7234Z" fill="#2E186A"/>
<path fill-rule="evenodd" clip-rule="evenodd" d="M83.7614 33.5022L83.6828 35.4209L81.2132 35.7687L81.3479 32.5822" fill="#FF8D7E"/>
<path fill-rule="evenodd" clip-rule="evenodd" d="M88.9588 15.4601C88.9588 15.4601 88.869 15.4601 88.7006 15.4601L88.9363 15.7406C88.9363 15.7406 86.2983 17.3675 83.7614 20.2511C83.7614 20.2511 82.2572 18.6578 81.5837 16.066C80.955 16.9187 80.2815 19.7911 81.1683 22.3942C81.5387 23.4601 81.651 26.2988 81.6398 29.4068L84.2553 29.2161C84.289 28.8234 84.3114 28.4307 84.3451 28.038C85.0411 19.6901 90.3507 16.4475 90.3507 16.4475L88.9588 15.4601Z" fill="#E0840B"/>
<path fill-rule="evenodd" clip-rule="evenodd" d="M58.9116 16.9098C59.1047 17.2917 59.5835 17.728 60.3263 18.1806L60.3629 18.2026L60.3422 18.2334C60.3193 18.2683 60.2967 18.3044 60.2746 18.3418C59.8731 19.0214 59.773 19.8308 60.1603 20.7119C60.4356 21.3432 62.2941 23.0688 62.9565 23.1438C63.3803 23.1917 64.1648 23.0085 64.7386 22.6987C65.5481 22.2617 65.9552 21.6004 65.6819 20.7939C65.354 19.8027 64.8673 19.1921 63.9799 18.5407L63.7791 18.3964C63.7313 18.3628 63.6817 18.3285 63.6189 18.2858L63.0657 17.9156L62.7807 17.7359C62.7133 17.6937 62.6432 17.6499 62.5698 17.6043C62.2225 17.3884 61.8726 17.1755 61.5349 16.976L61.3159 16.8477L61.1566 16.7556C60.4457 16.3472 59.9361 16.0908 59.6523 16.0199C59.053 15.8676 58.6202 16.2958 58.8986 16.8832L58.9116 16.9098ZM59.5738 16.7071L59.567 16.6972L59.5699 16.6982C59.8255 16.7894 60.328 17.052 60.9772 17.4296L61.1197 17.5129C61.1437 17.527 61.1679 17.5413 61.1923 17.5556C61.4697 17.7194 61.756 17.8929 62.0424 18.0696L62.2142 18.176C62.311 18.2362 62.402 18.2931 62.4888 18.3476L62.7036 18.4832L63.2438 18.845C63.3609 18.9246 63.4298 18.9736 63.5333 19.0485L63.631 19.1201C64.3801 19.6787 64.7685 20.1772 65.0432 21.0075C65.1926 21.4485 64.9713 21.8079 64.4185 22.1064C63.9589 22.3545 63.3094 22.5062 63.0322 22.4748C62.6425 22.4307 60.9656 20.8737 60.7773 20.442C60.4839 19.7745 60.5564 19.1889 60.8546 18.6841C60.9121 18.5868 60.9735 18.5015 61.0341 18.4294L61.0684 18.39C61.0783 18.379 61.0865 18.3702 61.0928 18.3637L61.1029 18.3537C61.2699 18.1975 61.2358 17.9238 61.0355 17.8133C60.2701 17.3911 59.7761 16.9959 59.5738 16.7071Z" fill="#2E186A"/>
<path fill-rule="evenodd" clip-rule="evenodd" d="M61.5414 18.0998C61.7716 17.9618 62.1314 18.0502 62.9847 18.3412L63.0326 18.3576C63.1043 18.3822 63.1778 18.4078 63.253 18.4344C63.43 18.497 63.6103 18.5629 63.7883 18.6296L64.0606 18.7329L64.2745 18.816C64.4475 18.8845 64.5321 19.0801 64.4637 19.2529C64.3952 19.4258 64.1995 19.5104 64.0266 19.442L63.819 19.3613C63.789 19.3498 63.7579 19.3379 63.7257 19.3257C63.4957 19.2381 63.2588 19.1506 63.0283 19.069C62.9552 19.0432 62.8837 19.0183 62.8143 18.9945L62.651 18.9394C62.4223 18.8635 62.2252 18.8037 62.0687 18.7637L62.0041 18.7477L61.9632 18.7383C61.9759 18.775 61.9933 18.8149 62.0159 18.8573L62.03 18.8829C62.1859 19.1576 62.4842 19.4234 62.8726 19.5955C63.0659 19.6811 63.1319 19.92 63.015 20.092L62.9871 20.1303C62.9779 20.1432 62.9661 20.1605 62.952 20.1818C62.9095 20.2463 62.8668 20.3189 62.827 20.3972C62.7078 20.6317 62.6431 20.8618 62.6556 21.0576C62.6609 21.1391 62.6794 21.2133 62.7122 21.2814L62.7272 21.3102C62.8178 21.4725 62.7595 21.6776 62.597 21.7681C62.4346 21.8586 62.2295 21.8003 62.1389 21.6379C62.0461 21.4715 61.9956 21.2907 61.9835 21.1006C61.962 20.7646 62.0576 20.4247 62.2265 20.0923L62.2584 20.0311L62.2555 20.0294C61.9155 19.8187 61.6436 19.5479 61.4676 19.2552L61.4442 19.2152C61.199 18.7832 61.179 18.3266 61.5192 18.1131L61.5414 18.0998Z" fill="#2E186A"/>
<path fill-rule="evenodd" clip-rule="evenodd" d="M62.9943 23.7181C62.5565 23.0561 62.4892 22.7531 62.4892 22.7531C64.0944 22.3941 64.8914 20.0266 64.8914 20.0266C64.8914 20.0266 65.2058 20.1052 65.913 20.5091C66.2048 20.6662 66.463 20.5427 66.6651 20.5091C66.9457 22.7307 64.1057 24.4586 63.1178 24.9411C63.0056 24.4698 63.3311 24.2118 62.9943 23.7181Z" fill="#2E186A"/>
<path fill-rule="evenodd" clip-rule="evenodd" d="M75.684 29.0944L75.7013 29.0791C75.9793 28.8458 76.7389 28.8229 78.7371 28.8459C79.4417 28.8556 80.1677 28.9183 80.8791 29.0167C81.0905 29.0459 81.2893 29.0768 81.4727 29.1081L81.6261 29.135C81.6891 29.1463 81.7465 29.157 81.7978 29.167L81.9117 29.1898C82.0937 29.2283 82.2099 29.407 82.1713 29.5889C82.1341 29.7642 81.9665 29.8785 81.7915 29.8519L81.7049 29.8348C81.6481 29.8236 81.5818 29.811 81.5066 29.7975C81.2911 29.7587 81.0492 29.7198 80.7868 29.6835C80.101 29.5887 79.4019 29.5283 78.7285 29.519L78.2367 29.5145C77.7585 29.5116 77.3877 29.5145 77.0399 29.5259L76.9267 29.53C76.706 29.5388 76.5206 29.5513 76.3747 29.5676L76.3026 29.5764L76.3108 29.5806C76.3954 29.6217 76.5026 29.6593 76.6211 29.6866L76.657 29.6944C76.8391 29.7323 76.956 29.9106 76.918 30.0926C76.8801 30.2746 76.7017 30.3914 76.5197 30.3535C76.1945 30.2858 75.9035 30.1581 75.718 29.9899C75.4381 29.7361 75.3958 29.371 75.684 29.0944Z" fill="#2E186A"/>
<path fill-rule="evenodd" clip-rule="evenodd" d="M79.4069 28.982L79.4335 28.9799C79.6802 28.9641 80.3504 29.0143 81.3828 29.1141L81.7332 29.1486C82.0133 29.1765 82.2988 29.206 82.5809 29.2359L83.3498 29.3191C83.5346 29.3398 83.6677 29.5063 83.6471 29.6911C83.6271 29.8692 83.4715 29.9993 83.2947 29.9898L83.2625 29.9868L82.7894 29.9352C82.4193 29.8954 82.0379 29.8556 81.6662 29.8184L81.11 29.7643C80.2457 29.6829 79.6401 29.6397 79.4819 29.6512L79.4731 29.652C79.2747 29.6718 78.5682 29.847 77.9097 30.0435L77.7772 30.0835C77.4729 30.1765 77.2021 30.2673 76.9915 30.3478L76.9111 30.3792C76.8856 30.3894 76.8612 30.3994 76.8382 30.4091L76.8234 30.4153L76.8321 30.4159C76.933 30.4219 77.0553 30.4235 77.1975 30.42L77.2937 30.4169C77.4795 30.4096 77.636 30.5544 77.6433 30.7401C77.6505 30.9259 77.5057 31.0823 77.3199 31.0896L77.2162 31.093C76.7771 31.1045 76.4707 31.0737 76.2649 30.9823C75.8752 30.8092 75.8314 30.4247 76.0998 30.0843C76.2599 29.8821 76.7856 29.6783 77.6618 29.415L77.8104 29.3708C78.481 29.1737 79.162 29.0065 79.4069 28.982Z" fill="#2E186A"/>
<path fill-rule="evenodd" clip-rule="evenodd" d="M80.2338 30.1153C80.2577 30.2997 80.1275 30.4685 79.9431 30.4924L79.8356 30.5072L79.7265 30.5231C79.6697 30.5316 79.6096 30.5408 79.5468 30.5508C79.2482 30.5985 78.9498 30.6533 78.6726 30.7142C78.5325 30.745 78.4014 30.7767 78.281 30.809C77.9863 30.8881 77.7253 30.9829 77.5309 31.0771L77.4849 31.1L77.5075 31.1118C77.6373 31.1758 77.7722 31.2044 77.8915 31.1895L77.8987 31.1883L77.911 31.1842C78.1377 31.1091 78.4326 31.0419 78.7836 30.9806L78.8501 30.9691C79.0144 30.9413 79.1851 30.9156 79.3583 30.8921L79.4138 30.8846L79.6409 30.8437C80.0362 30.7749 80.1634 30.7706 80.2837 30.8102L80.3126 30.8205C80.6455 30.9485 80.577 31.4382 80.2218 31.47L80.1151 31.4803L79.9496 31.4978C79.9107 31.5021 79.8704 31.5066 79.8289 31.5114C79.7443 31.5212 79.6598 31.5316 79.5758 31.5424L79.5261 31.549L79.3335 31.5847L78.7969 31.6858C78.7276 31.6986 78.6695 31.7091 78.6172 31.7182L78.4803 31.7409L78.5062 31.7448C78.5437 31.7503 78.5833 31.7554 78.625 31.7602L78.6674 31.765L78.6894 31.7681L83.6286 32.632C83.8118 32.6641 83.9344 32.8385 83.9023 33.0216C83.8714 33.1982 83.708 33.3184 83.5321 33.298L83.5125 33.2952L78.582 32.4328L78.5425 32.4284C78.2289 32.3918 77.9906 32.3365 77.8198 32.2595L77.7919 32.2465C77.5965 32.1514 77.4632 32.0035 77.4441 31.8208L77.4426 31.804L77.4242 31.7986C77.0608 31.6863 76.746 31.447 76.6714 31.203L76.6658 31.1827C76.5548 30.7389 77.1725 30.4096 78.1062 30.1589C78.2372 30.1237 78.3782 30.0896 78.5279 30.0567C78.7777 30.0018 79.0417 29.952 79.3076 29.9077L79.4407 29.886C79.5058 29.8756 79.5681 29.866 79.6272 29.8572L79.8566 29.8247C80.0411 29.8009 80.21 29.931 80.2338 30.1153Z" fill="#2E186A"/>
<path fill-rule="evenodd" clip-rule="evenodd" d="M83.7614 33.5471C83.0991 33.3002 82.8858 33.0983 82.8858 33.0983C83.7502 31.7518 82.8858 29.519 82.8858 29.519C82.8858 29.519 83.1103 29.4629 83.8063 29.317C84.087 29.2609 84.2217 29.1151 84.3339 28.9468C85.7708 30.5737 84.9064 33.4236 84.5247 34.4559C84.188 34.1642 84.2666 33.7378 83.7614 33.5471Z" fill="#2E186A"/>
<path fill-rule="evenodd" clip-rule="evenodd" d="M93.0468 26.7715C93.232 26.754 93.3963 26.8899 93.4138 27.075C93.4307 27.2535 93.3049 27.4125 93.1298 27.4393L93.0917 27.4441C93.0525 27.4501 92.9841 27.4657 92.8955 27.4959C92.7141 27.5577 92.5317 27.6557 92.361 27.7979C92.007 28.0926 91.7471 28.5382 91.6244 29.1784C91.5894 29.361 91.413 29.4806 91.2303 29.4457C91.0476 29.4107 90.9279 29.2343 90.9629 29.0517C91.1147 28.2598 91.4553 27.6758 91.9298 27.2806C92.1674 27.0828 92.4223 26.9458 92.6783 26.8586C92.8361 26.8049 92.9637 26.7794 93.0468 26.7715Z" fill="#2E186A"/>
<path fill-rule="evenodd" clip-rule="evenodd" d="M87.1849 21.4399C87.3463 21.5173 87.4179 21.7066 87.3512 21.8702L87.3408 21.8934L87.2875 22.0071L87.2298 22.133C87.1852 22.2311 87.1371 22.3388 87.0863 22.4549C86.8926 22.8978 86.6989 23.3721 86.5182 23.8581C86.3321 24.3586 86.1707 24.8433 86.041 25.3011C85.8766 25.8817 85.768 26.4029 85.7242 26.8479C85.706 27.0329 85.5412 27.1682 85.3561 27.15C85.171 27.1318 85.0357 26.967 85.0539 26.782C85.1021 26.2924 85.2185 25.7338 85.393 25.1178C85.5279 24.6414 85.6949 24.1399 85.8868 23.6236C86.0722 23.1249 86.2707 22.6391 86.4692 22.1853L86.5453 22.013C86.5699 21.9578 86.5937 21.9048 86.6167 21.8543L86.7356 21.5979C86.816 21.4302 87.0171 21.3595 87.1849 21.4399Z" fill="#2E186A"/>
<path fill-rule="evenodd" clip-rule="evenodd" d="M80.2277 21.539C80.4088 21.4969 80.5899 21.6095 80.632 21.7906L80.6542 21.89L80.6815 22.0174C80.6911 22.0628 80.701 22.1111 80.7114 22.1621L80.7505 22.3601C80.7961 22.5961 80.8412 22.849 80.8839 23.1144C81.0059 23.8731 81.0909 24.6232 81.1224 25.3272C81.1473 25.8851 81.1375 26.3963 81.0878 26.8515C81.0676 27.0363 80.9013 27.1698 80.7164 27.1496C80.5315 27.1294 80.398 26.9632 80.4182 26.7784C80.4639 26.3607 80.4731 25.883 80.4495 25.3572C80.4193 24.6818 80.3371 23.9564 80.2189 23.2212C80.1715 22.9262 80.121 22.6472 80.0703 22.3907L80.0318 22.2008L79.9885 21.9988C79.9827 21.9727 79.9785 21.9539 79.976 21.9431C79.9338 21.762 80.0465 21.5811 80.2277 21.539Z" fill="#2E186A"/>
<path fill-rule="evenodd" clip-rule="evenodd" d="M85.1906 28.2637L85.2177 28.2616C85.6225 28.2353 86.9357 28.3388 88.9607 28.54L89.4001 28.584C89.6062 28.6049 89.817 28.6264 90.0321 28.6487C90.7197 28.7198 91.4259 28.7951 92.1228 28.8711L93.1725 28.9869L93.633 29.0387C93.8178 29.0597 93.9505 29.2265 93.9295 29.4112C93.9085 29.5959 93.7416 29.7286 93.5568 29.7076L92.4659 29.586C91.775 29.5099 91.0692 29.4339 90.3766 29.3614L89.4874 29.2695L88.5856 29.1795C86.7619 29.0014 85.5417 28.9081 85.2508 28.9342C84.9845 28.9581 84.8898 29.0184 84.7457 29.2167L84.7006 29.2803C84.485 29.5858 84.3149 29.7323 83.9767 29.8035L83.6924 29.8642L83.4865 29.9094L83.5046 29.9732C83.5168 30.0171 83.5289 30.0621 83.5407 30.1083L83.5583 30.1782C83.696 30.737 83.7682 31.3028 83.7389 31.8389C83.7184 32.2151 83.6479 32.5613 83.52 32.8703L83.493 32.9326L83.5253 32.9502C83.6362 33.0094 83.7718 33.0716 83.9348 33.1356L83.9845 33.1548C84.2971 33.2763 84.4391 33.4412 84.5943 33.7615L84.6374 33.8522L84.66 33.8979C84.7534 34.0794 84.8381 34.1524 85.0616 34.212L85.0891 34.2191C85.3449 34.283 86.3788 34.3913 87.9514 34.5241L88.3991 34.5613C88.6586 34.5826 88.9294 34.6044 89.2102 34.6266L89.8636 34.6775C90.3789 34.7172 90.909 34.7568 91.4435 34.7959L92.5384 34.8748L93.4606 34.9392C93.6462 34.9518 93.7864 35.1124 93.7737 35.2979C93.7611 35.4833 93.6004 35.6234 93.4149 35.6108L92.2907 35.5321L91.3943 35.4673C90.6294 35.4114 89.8737 35.3543 89.1571 35.2977L88.6078 35.2538C88.474 35.2429 88.3429 35.2322 88.2146 35.2216L87.5453 35.1651C86.114 35.0414 85.2123 34.9438 84.9258 34.8722C84.4609 34.7561 84.231 34.5463 84.0467 34.1773L84.0017 34.0834C83.9109 33.8909 83.8688 33.8356 83.7585 33.7895L83.7423 33.783C83.4529 33.6726 83.2245 33.5612 83.0498 33.4533C82.9344 33.3821 82.8588 33.3228 82.8161 33.2802C82.705 33.1691 82.6855 32.996 82.7691 32.8631C82.9466 32.5806 83.0434 32.2221 83.0664 31.8023C83.0915 31.3415 83.0274 30.8386 82.9043 30.3392C82.8675 30.1897 82.8281 30.0521 82.7889 29.9298L82.7693 29.8702L82.7517 29.8186C82.7453 29.8004 82.741 29.7887 82.7392 29.7838C82.6686 29.597 82.7753 29.3902 82.9685 29.3393L83.0563 29.3176L83.1649 29.2921C83.3338 29.253 83.5559 29.2041 83.838 29.1447C83.9588 29.1193 84.0129 29.0802 84.1158 28.9401L84.1801 28.85C84.4381 28.4862 84.693 28.3083 85.1906 28.2637Z" fill="#2E186A"/>
<path fill-rule="evenodd" clip-rule="evenodd" d="M72.119 24.0906C72.2293 23.941 72.4402 23.9091 72.5899 24.0194L72.6356 24.0538C72.6711 24.0807 72.7121 24.1124 72.758 24.1485C72.8886 24.251 73.0337 24.3693 73.1898 24.502C73.6355 24.8809 74.0811 25.3001 74.498 25.7489C74.8872 26.168 75.232 26.5927 75.5203 27.0191C75.6245 27.1732 75.584 27.3824 75.4299 27.4865C75.2758 27.5906 75.0664 27.5501 74.9623 27.3961C74.6947 27.0004 74.3714 26.6022 74.0044 26.207C73.607 25.7791 73.1802 25.3776 72.7535 25.0149C72.6229 24.9038 72.5006 24.8036 72.3891 24.715L72.2926 24.6394L72.1902 24.5613C72.0405 24.451 72.0086 24.2403 72.119 24.0906Z" fill="#2E186A"/>
<path fill-rule="evenodd" clip-rule="evenodd" d="M92.1693 17.4908C90.8783 19.6451 88.2179 22.0463 87.5444 22.3492V22.3604C89.4751 22.4502 93.9878 19.9593 94.7511 19.5217C93.8082 18.8261 92.8091 17.9172 92.1693 17.4908Z" fill="#2E186A"/>
<path fill-rule="evenodd" clip-rule="evenodd" d="M78.4293 18.0182C78.4181 17.704 78.3844 17.3338 78.3844 16.9523H78.3732C77.8231 17.3899 76.97 17.8274 76.4873 18.2763C77.071 19.4095 78.2497 21.1262 79.5406 21.9228C79.1702 21.1038 78.5191 20.0378 78.4293 18.0182Z" fill="#2E186A"/>
<path fill-rule="evenodd" clip-rule="evenodd" d="M88.5726 9.1656L88.6118 9.16707C88.6692 9.17012 88.7469 9.17769 88.8396 9.19225C89.0317 9.22243 89.2245 9.27384 89.4079 9.35294C90.0871 9.64583 90.4522 10.2354 90.2768 11.1053C90.1537 11.7205 89.792 12.0941 89.2735 12.2168C88.9079 12.3033 88.5017 12.2601 88.0874 12.1359C87.9093 12.0825 87.8082 11.8948 87.8616 11.7168C87.9151 11.5387 88.1028 11.4377 88.281 11.4911C89.0115 11.7102 89.4917 11.5966 89.6165 10.9728C89.7247 10.4358 89.5447 10.1451 89.1411 9.97108C89.0145 9.91649 88.8751 9.8793 88.735 9.8573C88.6981 9.8515 88.6633 9.84712 88.6314 9.84396L88.5879 9.84027L88.5591 9.83868C88.3732 9.83496 88.2255 9.68127 88.2292 9.4954C88.2329 9.30954 88.3867 9.16188 88.5726 9.1656Z" fill="#2E186A"/>
<path fill-rule="evenodd" clip-rule="evenodd" d="M79.6222 7.01122C79.647 6.82698 79.8166 6.69773 80.0009 6.72253C80.1852 6.74733 80.3145 6.9168 80.2897 7.10104C80.0881 8.59829 80.127 10.317 80.3353 12.0654C80.3573 12.25 80.2254 12.4175 80.0407 12.4395C79.856 12.4615 79.6885 12.3296 79.6665 12.145C79.4521 10.345 79.4119 8.57276 79.6222 7.01122Z" fill="#2E186A"/>
<path fill-rule="evenodd" clip-rule="evenodd" d="M87.9825 12.6327C88.1618 12.627 88.3128 12.7623 88.3288 12.9386L88.33 12.9583L88.3821 14.5767L89.2005 15.5071C89.3334 15.6583 89.3042 15.8897 89.1423 16.004L89.1244 16.0158L89.0396 16.0698L88.9529 16.1263C88.8939 16.1652 88.8295 16.2083 88.7599 16.2558L88.7175 16.2847C88.3883 16.5104 88.0209 16.7778 87.6249 17.0856C86.4923 17.9659 85.3594 18.992 84.3027 20.1525C84.2094 20.255 84.117 20.3582 84.0255 20.4622C83.8946 20.611 83.6641 20.6151 83.5279 20.4711L83.4854 20.425C83.398 20.3281 83.2708 20.1754 83.1158 19.9698C82.8149 19.5707 82.5146 19.108 82.2345 18.5862C81.891 17.946 81.6018 17.2601 81.3845 16.5325C81.3313 16.3544 81.4326 16.1669 81.6108 16.1137C81.789 16.0605 81.9766 16.1618 82.0298 16.3399C82.2337 17.0223 82.5053 17.6664 82.8281 18.268C83.0911 18.7581 83.3727 19.192 83.6536 19.5646C83.6781 19.597 83.702 19.6283 83.7255 19.6585L83.7794 19.7271L83.8046 19.6994C84.8502 18.5509 85.9672 17.5321 87.0871 16.6514L87.2115 16.5541C87.6184 16.2379 87.9966 15.9626 88.3365 15.7296L88.4383 15.6601L87.7966 14.9306C87.7508 14.8784 87.7223 14.8136 87.7148 14.745L87.7129 14.7192L87.6568 12.98C87.6508 12.7942 87.7967 12.6387 87.9825 12.6327Z" fill="#2E186A"/>
<path fill-rule="evenodd" clip-rule="evenodd" d="M87.7061 9.4807C87.6077 9.47279 87.5108 9.50843 87.441 9.57821L87.4253 9.59449C87.1273 9.91528 86.5349 11.1676 86.2573 12.0074L86.2491 12.0324L86.2147 12.023C85.9204 11.9417 85.5823 11.8606 85.2047 11.785C84.2196 11.588 83.1433 11.4626 82.0047 11.4432L81.8916 11.4462L81.7422 11.4517C81.7071 11.4531 81.6708 11.4547 81.6335 11.4564C81.3662 11.4687 81.0989 11.4857 80.8482 11.5085C80.44 11.5455 80.1162 11.5936 79.8946 11.6588C79.7457 11.7026 79.6461 11.8424 79.6533 11.9973L79.6571 12.0637C79.6598 12.1045 79.6637 12.1566 79.6691 12.2191C79.684 12.3905 79.7051 12.5811 79.7338 12.786C79.8158 13.3726 79.9417 13.9597 80.1218 14.5109C80.3476 15.2022 80.6433 15.789 81.0234 16.2383C81.6387 16.9657 82.5941 17.3001 83.6863 17.2663C84.627 17.2371 85.6026 16.9277 86.2574 16.4639L86.3585 16.3907C87.3805 15.6448 87.6772 15.2268 87.9863 14.2266L88.0162 14.128C88.1103 13.8076 88.2517 13.234 88.4298 12.4629L88.4968 12.1707C88.5948 11.7418 88.6966 11.2858 88.7975 10.8268L88.9298 10.2207L88.985 9.96529C89.0276 9.76647 88.8855 9.57555 88.6827 9.55924L87.7061 9.4807ZM87.8308 10.1661L88.2452 10.1994L88.1773 10.5106C88.0896 10.9112 88.0007 11.3117 87.914 11.696L87.8052 12.1739L87.7068 12.5984C87.5543 13.2493 87.4338 13.729 87.3569 13.9821L87.3298 14.0697C87.061 14.9273 86.834 15.2209 85.8661 15.9159C85.3245 16.2996 84.4774 16.5682 83.6654 16.5934C82.7625 16.6214 82.0052 16.3563 81.5377 15.8037C81.2211 15.4294 80.963 14.9173 80.762 14.302C80.5956 13.7924 80.4777 13.2429 80.4008 12.6929L80.391 12.6212C80.3784 12.5266 80.3676 12.4356 80.3583 12.3489L80.3481 12.2475C80.5024 12.2217 80.6922 12.1986 80.9091 12.1789C81.1486 12.1572 81.4064 12.1408 81.6643 12.1289L81.8196 12.1224L81.9987 12.1164L81.9933 12.1163C83.0892 12.135 84.1254 12.2557 85.0725 12.4452C85.4338 12.5174 85.7562 12.5947 86.0352 12.6718L86.1528 12.7051C86.1897 12.7158 86.2242 12.726 86.2563 12.7358L86.3691 12.7715C86.557 12.8357 86.7594 12.7242 86.8055 12.5312C86.9482 11.934 87.5128 10.6652 87.8087 10.2002L87.8308 10.1661Z" fill="#2E186A"/>
<path fill-rule="evenodd" clip-rule="evenodd" d="M88.4199 10.3885C88.4199 10.3885 89.2057 9.16549 89.52 7.89761C89.8119 6.69704 89.2506 5.4516 88.1393 4.91303C87.2076 4.46422 86.5228 4.81204 86.5228 4.81204C86.5228 4.81204 87.5107 3.14023 86.0289 1.65916C85.5126 1.14303 84.7941 0.851305 84.0533 0.873745C82.246 0.929846 81.6959 2.44458 81.6959 2.44458C81.6959 2.44458 79.7651 -1.10101 75.8138 0.997168C75.4097 1.21035 74.9606 1.7938 74.7474 2.19773C73.4452 4.59886 77.7445 7.4488 79.9896 7.68442C82.448 7.93127 83.8961 7.52734 84.6819 6.92145C84.0982 7.26927 84.7605 10.9495 88.4199 10.3885Z" fill="#2E186A"/>
<path fill-rule="evenodd" clip-rule="evenodd" d="M81.4847 10.7326C81.5053 10.5479 81.6719 10.4148 81.8568 10.4355C82.035 10.4553 82.1651 10.6109 82.1557 10.7876L82.1541 10.8073L81.9504 12.6305L82.2835 12.5427C82.4569 12.497 82.6344 12.5951 82.6895 12.7633L82.6951 12.7823C82.7408 12.9556 82.6427 13.1331 82.4744 13.188L82.4554 13.1936L81.6471 13.4068C81.4247 13.4655 81.2124 13.2893 81.2249 13.0635L81.2265 13.044L81.4847 10.7326Z" fill="#2E186A"/>
<path fill-rule="evenodd" clip-rule="evenodd" d="M80.854 10.972C80.9842 10.972 81.0897 10.8062 81.0897 10.6017C81.0897 10.3972 80.9842 10.2314 80.854 10.2314C80.7238 10.2314 80.6183 10.3972 80.6183 10.6017C80.6183 10.8062 80.7238 10.972 80.854 10.972Z" fill="#2E186A"/>
<path fill-rule="evenodd" clip-rule="evenodd" d="M83.043 10.9158C83.1731 10.9158 83.2787 10.7501 83.2787 10.5456C83.2787 10.3411 83.1731 10.1753 83.043 10.1753C82.9128 10.1753 82.8072 10.3411 82.8072 10.5456C82.8072 10.7501 82.9128 10.9158 83.043 10.9158Z" fill="#2E186A"/>
<path fill-rule="evenodd" clip-rule="evenodd" d="M83.2071 8.32758C83.6228 8.26627 83.9828 8.37196 84.2731 8.58415C84.3544 8.64358 84.4244 8.70741 84.4836 8.77206C84.5214 8.81337 84.5489 8.84827 84.5663 8.87355C84.6718 9.02664 84.6332 9.23624 84.48 9.34171C84.3325 9.44326 84.1326 9.41122 84.0238 9.272L84.0117 9.25547C83.9956 9.23223 83.9489 9.18117 83.8756 9.12759C83.7287 9.02026 83.5543 8.96566 83.3413 8.98897L83.3054 8.99358C83.1214 9.02072 82.9502 8.89362 82.9231 8.70971C82.8959 8.5258 83.0231 8.35471 83.2071 8.32758Z" fill="#2E186A"/>
<path fill-rule="evenodd" clip-rule="evenodd" d="M80.5731 8.29707C80.7396 8.25689 80.9067 8.25768 81.0643 8.2818L81.1031 8.2883C81.127 8.29266 81.1466 8.29697 81.1615 8.30075C81.3417 8.34656 81.4507 8.52975 81.4049 8.70992C81.3607 8.88366 81.1887 8.99114 81.0149 8.95753L80.9884 8.95172C80.9827 8.95061 80.9739 8.94902 80.9624 8.94726C80.884 8.93527 80.8 8.93487 80.7313 8.95147C80.6546 8.96997 80.6132 9.00196 80.5879 9.07412L80.5824 9.0915C80.5303 9.26996 80.3433 9.37244 80.1648 9.32039C79.9862 9.26834 79.8837 9.08146 79.9358 8.903C80.0324 8.57188 80.2685 8.37061 80.5731 8.29707Z" fill="#2E186A"/>
<path fill-rule="evenodd" clip-rule="evenodd" d="M83.3053 13.5783C83.3345 13.3947 83.507 13.2695 83.6907 13.2986C83.8744 13.3278 83.9997 13.5003 83.9705 13.6839C83.9652 13.717 83.9547 13.7646 83.9371 13.8224C83.9084 13.9169 83.8686 14.0115 83.8146 14.1021C83.6116 14.4432 83.2661 14.6314 82.8118 14.5453C82.6291 14.5106 82.5091 14.3345 82.5437 14.1518C82.5771 13.9757 82.7422 13.8578 82.9178 13.8807L82.9373 13.8838C83.0914 13.913 83.1684 13.8711 83.2358 13.758C83.2597 13.7178 83.2788 13.6723 83.2927 13.6266L83.2994 13.6034C83.3012 13.5967 83.3025 13.5911 83.3035 13.5869L83.3053 13.5783Z" fill="#2E186A"/>
<path fill-rule="evenodd" clip-rule="evenodd" d="M114.803 35.1292H3.87277C3.68678 35.1292 3.53601 35.2799 3.53601 35.4658V77.3957C3.53601 77.5816 3.68678 77.7324 3.87277 77.7324H114.803C114.989 77.7324 115.139 77.5816 115.139 77.3957V35.4658C115.139 35.2799 114.989 35.1292 114.803 35.1292ZM114.466 35.8023V77.059H4.20954V35.8023H114.466Z" fill="#2E186A"/>
<rect x="3.55159" y="35.376" width="111.46" height="5.39693" fill="#2E186A"/>
<path fill-rule="evenodd" clip-rule="evenodd" d="M119.63 77.1264C119.816 77.1264 119.966 77.2771 119.966 77.463C119.966 77.6423 119.826 77.7888 119.649 77.7991L119.63 77.7996H0.404116C0.218126 77.7996 0.0673523 77.6489 0.0673523 77.463C0.0673523 77.2837 0.207549 77.1372 0.384328 77.127L0.404116 77.1264H119.63Z" fill="#2E186A"/>
</svg>
