<svg width="121" height="62" viewBox="0 0 121 62" fill="none" xmlns="http://www.w3.org/2000/svg">
<path fill-rule="evenodd" clip-rule="evenodd" d="M9.6816 14.9926C9.6816 14.9926 6.34955 27.1574 20.7003 33.6162L26.0416 29.4872C26.0416 29.4872 26.1846 15.2363 9.6816 14.9926Z" fill="white"/>
<path fill-rule="evenodd" clip-rule="evenodd" d="M9.68487 14.7775C9.58712 14.776 9.50075 14.8411 9.47486 14.9356L9.4621 14.9849L9.45909 14.9971C9.44717 15.0454 9.43397 15.1021 9.4198 15.167C9.37962 15.3513 9.33954 15.5649 9.30221 15.8058C9.10457 17.0808 9.05951 18.5472 9.26157 20.1257C9.53812 22.2862 10.2516 24.3983 11.4967 26.3806C13.3752 29.3714 16.3585 31.8978 20.6125 33.8124C20.6847 33.8448 20.7687 33.8349 20.8314 33.7865L26.1727 29.6574C26.2248 29.6172 26.2556 29.5552 26.2562 29.4893L26.2558 29.4162C26.2553 29.3781 26.2542 29.3317 26.2523 29.2773C26.2475 29.1329 26.2384 28.9685 26.2241 28.7858C26.1842 28.2767 26.1114 27.7145 25.9976 27.1126C25.6762 25.4126 25.0933 23.7161 24.1833 22.131C23.0172 20.0996 21.3933 18.3986 19.2487 17.1392C16.7252 15.6574 13.5574 14.8347 9.68487 14.7775ZM9.8497 15.2107L9.90586 15.2119C13.6032 15.2962 16.6241 16.0965 19.032 17.5104C21.1098 18.7305 22.6814 20.3769 23.8116 22.3456C24.6958 23.8858 25.2632 25.5373 25.5762 27.1928C25.687 27.7787 25.7578 28.3255 25.7965 28.8196C25.8089 28.9782 25.8172 29.1221 25.8221 29.25L25.825 29.3338L25.8262 29.3823L20.6714 33.3671L20.5391 33.3065C16.4934 31.4404 13.6555 29.0104 11.8598 26.1515C10.6495 24.2245 9.95612 22.1719 9.6872 20.0711C9.49063 18.5354 9.53446 17.1091 9.72624 15.8719L9.743 15.7667C9.77121 15.5947 9.80066 15.4388 9.83016 15.3001L9.84466 15.2333L9.8497 15.2107Z" fill="#2E186A"/>
<path fill-rule="evenodd" clip-rule="evenodd" d="M22.4305 2.86353C22.4305 2.86353 39.8488 12.0607 31.2612 32.756L21.7155 33.6951C21.7155 33.7022 6.86426 20.4764 22.4305 2.86353Z" fill="white"/>
<path fill-rule="evenodd" clip-rule="evenodd" d="M22.2701 2.72088C18.5981 6.87558 16.4133 11.0031 15.5421 15.0672C14.8036 18.5123 15.0265 21.8202 16.0315 24.9527C16.8127 27.3872 18.0177 29.5772 19.4676 31.4877C19.9755 32.157 20.4783 32.744 20.9525 33.243L21.0285 33.3225C21.1534 33.4522 21.2689 33.568 21.3733 33.669L21.4436 33.7364C21.4625 33.7544 21.4804 33.7711 21.497 33.7866L21.5755 33.858L21.5895 33.869L21.6067 33.8805C21.6113 33.8832 21.6177 33.8861 21.6366 33.895L21.6492 33.8995L21.6942 33.909L21.735 33.8935L21.7365 33.9091L31.2822 32.97C31.3609 32.9623 31.429 32.9118 31.4593 32.8386C33.8548 27.0656 34.3906 21.8392 33.3556 17.1496C32.5198 13.3623 30.701 10.0866 28.1948 7.30717C26.9579 5.93544 25.6329 4.77391 24.3075 3.81737C23.8653 3.49821 23.4528 3.22387 23.0796 2.99382L23.0239 2.95965C22.9014 2.88478 22.7911 2.81962 22.694 2.7641L22.6201 2.72228L22.5306 2.67322C22.4432 2.62706 22.3356 2.64674 22.2701 2.72088ZM22.3754 3.25215L22.4773 3.13533L22.5458 3.17487C22.6231 3.21975 22.7081 3.27042 22.8006 3.32691C23.1792 3.55824 23.6016 3.83791 24.0568 4.16644C25.3588 5.10605 26.6612 6.24775 27.8765 7.59559C30.3355 10.3227 32.118 13.5331 32.9367 17.2425L32.9667 17.3807C33.9315 21.9003 33.4127 26.9343 31.1335 32.5027L31.1121 32.5545L21.7892 33.4717L21.7383 33.4238L21.7009 33.3881C21.5729 33.2652 21.4256 33.1173 21.2631 32.9464C20.7994 32.4584 20.307 31.8834 19.809 31.2272C18.3868 29.3532 17.205 27.2055 16.4399 24.8209C15.4571 21.7579 15.2394 18.5263 15.9615 15.1576C16.7995 11.2486 18.8809 7.26984 22.3754 3.25215Z" fill="#2E186A"/>
<path fill-rule="evenodd" clip-rule="evenodd" d="M46.0839 11.014C46.0839 11.014 53.0554 21.5158 41.4504 32.161L35.0866 29.9244C35.0866 29.9244 30.4818 16.4406 46.0839 11.014Z" fill="white"/>
<path fill-rule="evenodd" clip-rule="evenodd" d="M46.0138 10.8108C42.323 12.0945 39.5567 13.8912 37.622 16.1168C35.9809 18.0045 34.9808 20.1491 34.5243 22.4624C34.1697 24.2594 34.1607 26.054 34.3987 27.7625C34.4781 28.3322 34.5801 28.8536 34.6943 29.3178L34.7115 29.387C34.7502 29.5407 34.7877 29.678 34.823 29.7979L34.8335 29.8334C34.8443 29.8695 34.8543 29.902 34.8634 29.9306L34.884 29.9941C34.9053 30.0564 34.9539 30.1056 35.0159 30.1274L41.3797 32.3639C41.4543 32.3901 41.5372 32.3731 41.5955 32.3196C45.4661 28.7692 47.5609 24.9989 48.1814 21.1393C48.6474 18.2404 48.2574 15.5095 47.3226 13.0724C47.0922 12.4716 46.8451 11.9362 46.5977 11.4727C46.5187 11.3247 46.4447 11.1936 46.3771 11.0799L46.3284 10.999C46.2987 10.9505 46.2765 10.9157 46.2627 10.8949C46.2085 10.8133 46.1062 10.7787 46.0138 10.8108ZM45.9382 11.2934L45.993 11.2739L46.0282 11.3332C46.0871 11.4335 46.1512 11.5478 46.2195 11.6757C46.4588 12.1239 46.6984 12.6432 46.9222 13.2267C47.8315 15.5974 48.2108 18.2533 47.7579 21.0709L47.7393 21.1837C47.1246 24.8319 45.1498 28.405 41.5297 31.795L41.4003 31.9153L35.2587 29.7568L35.2445 29.7099L35.2223 29.6341C35.1922 29.5297 35.1603 29.4121 35.1276 29.2818C35.0101 28.815 34.9048 28.2852 34.8237 27.703C34.5919 26.0393 34.6007 24.292 34.9452 22.5459C35.3877 20.3038 36.3556 18.2282 37.9455 16.3994C39.7914 14.276 42.4241 12.5476 45.9382 11.2934Z" fill="#2E186A"/>
<path fill-rule="evenodd" clip-rule="evenodd" d="M53.2341 20.204C53.2341 20.204 52.4905 35.0355 37.4962 33.7165L34.0569 28.7058C34.0569 28.6986 37.675 15.5301 53.2341 20.204Z" fill="white"/>
<path fill-rule="evenodd" clip-rule="evenodd" d="M43.6262 19.35C41.2706 19.8882 39.2931 20.9942 37.6634 22.5435C36.4194 23.7261 35.4466 25.098 34.7129 26.5431L34.6738 26.6206C34.2213 27.524 33.8426 28.5538 33.8426 28.7058C33.8426 28.7494 33.8557 28.7919 33.8804 28.8277L37.3197 33.8385C37.3559 33.8913 37.4139 33.9252 37.4776 33.9308C41.1742 34.256 44.2185 33.6306 46.6643 32.1904C48.7167 30.9819 50.2851 29.239 51.4302 27.1037C52.238 25.5972 52.789 23.985 53.131 22.3731C53.2508 21.8089 53.3358 21.2847 53.3921 20.8138L53.4034 20.7168C53.4159 20.6063 53.4259 20.5049 53.4339 20.4132L53.4393 20.3483L53.4459 20.2572C53.4473 20.2368 53.4481 20.2226 53.4485 20.2148C53.4535 20.1159 53.3904 20.0264 53.2958 19.998C49.615 18.8923 46.4016 18.7159 43.6262 19.35ZM52.9566 20.346L53.0078 20.361L52.9995 20.454C52.9906 20.5476 52.9796 20.6506 52.9662 20.7626C52.9114 21.2211 52.8284 21.7325 52.7115 22.2836C52.3774 23.8582 51.8393 25.4325 51.0524 26.9C49.9426 28.9696 48.4271 30.6536 46.4471 31.8195L46.3759 31.8611C44.0688 33.1976 41.2066 33.7928 37.7289 33.5201L37.6157 33.5109L34.2917 28.6683L34.306 28.6229L34.3292 28.551C34.3615 28.4523 34.3999 28.3419 34.4443 28.2212C34.603 27.7894 34.8061 27.315 35.0573 26.8136C35.7744 25.3819 36.7314 24.0224 37.9587 22.8556C39.5343 21.3577 41.4437 20.2898 43.7216 19.7693C46.3675 19.1648 49.4348 19.3183 52.9566 20.346Z" fill="#2E186A"/>
<path fill-rule="evenodd" clip-rule="evenodd" d="M38.0184 3.76672C38.0184 3.76672 50.8461 15.6664 38.4403 34.3259L25.6984 33.48C25.6984 33.48 17.9117 15.9029 38.0184 3.76672Z" fill="white"/>
<path fill-rule="evenodd" clip-rule="evenodd" d="M37.9075 3.58245C33.4092 6.29758 30.0738 9.41615 27.7857 12.8616C25.5511 16.2264 24.3751 19.8049 24.076 23.477C23.8499 26.2528 24.135 28.8864 24.7488 31.2617C24.9056 31.8684 25.0732 32.4134 25.2415 32.89L25.2645 32.9546C25.3206 33.1116 25.3733 33.2508 25.4212 33.3715L25.453 33.4505C25.4643 33.478 25.4746 33.5029 25.484 33.5251L25.5021 33.5672C25.5345 33.6402 25.6045 33.6893 25.684 33.6945L38.4259 34.5404C38.5025 34.5455 38.576 34.5091 38.6185 34.4451C42.4134 28.7373 44.1128 23.2994 44.0598 18.1831C44.0184 14.1902 42.9209 10.6187 41.1177 7.51661C40.4737 6.4089 39.7836 5.44052 39.093 4.61741C38.8508 4.32872 38.6256 4.07863 38.4231 3.86787L38.3463 3.78874C38.3137 3.75548 38.2831 3.72475 38.2546 3.69657L38.1872 3.63092C38.1774 3.62149 38.1696 3.61413 38.1639 3.60885C38.0938 3.54385 37.9893 3.53309 37.9075 3.58245ZM37.8634 4.11241L37.9873 4.03667L38.0643 4.11487C38.0804 4.13137 38.097 4.1485 38.114 4.16625C38.31 4.3702 38.5287 4.61314 38.7646 4.89428C39.44 5.69925 40.1159 6.64767 40.7469 7.73319C42.5146 10.7742 43.5902 14.2741 43.6307 18.1876L43.6317 18.3385C43.6489 23.2719 42.0059 28.5182 38.3733 34.0375L38.3299 34.103L25.8445 33.2742L25.8333 33.2464C25.7836 33.1228 25.7281 32.9768 25.6682 32.8094C25.4965 32.3295 25.3246 31.7752 25.164 31.1538C24.5615 28.8225 24.2816 26.2363 24.5035 23.5121C24.7969 19.9104 25.9499 16.402 28.1427 13.1C30.3496 9.7768 33.5522 6.75728 37.8634 4.11241Z" fill="#2E186A"/>
<path fill-rule="evenodd" clip-rule="evenodd" d="M33.8853 12.7775C33.8853 12.7775 14.7224 21.4943 25.3264 33.1431L34.0569 33.0068C34.0569 33.0068 44.4178 25.5158 33.8853 12.7775Z" fill="white"/>
<path fill-rule="evenodd" clip-rule="evenodd" d="M33.7966 12.5816L33.7435 12.6062L33.661 12.6453C33.5521 12.6973 33.4259 12.7591 33.2839 12.8305L33.1545 12.896C32.7837 13.0851 32.377 13.3033 31.9426 13.5496C30.5559 14.336 29.1691 15.2469 27.8738 16.2722C25.1173 18.4541 23.153 20.8485 22.331 23.4242C21.3019 26.6484 22.1376 29.9591 25.1679 33.288C25.2093 33.3335 25.2682 33.359 25.3297 33.3581L34.0602 33.2219C34.1041 33.2212 34.1468 33.207 34.1824 33.1813L34.2174 33.1552L34.2383 33.1393C34.2817 33.106 34.3318 33.0664 34.388 33.0205C34.5475 32.8904 34.7247 32.7356 34.9152 32.5565C35.4583 32.046 36.0009 31.4416 36.5074 30.7457C37.9702 28.7354 38.8426 26.3814 38.8255 23.7069C38.8037 20.276 37.3067 16.5785 34.0504 12.6402C33.9887 12.5655 33.8847 12.5415 33.7966 12.5816ZM33.8256 13.043L33.9098 13.1463C36.9741 16.9244 38.3758 20.4506 38.3965 23.7096C38.4129 26.2847 37.5727 28.5517 36.1607 30.4922C35.6709 31.1653 35.1461 31.7498 34.6217 32.2428C34.4528 32.4016 34.2952 32.5401 34.1525 32.6579L34.0949 32.705L34.0328 32.7547C34.0197 32.765 34.0072 32.7748 33.9953 32.784L33.9837 32.7929L25.42 32.9265L25.4847 32.9981C22.5546 29.7792 21.7591 26.6273 22.7395 23.5553C23.531 21.0754 25.444 18.7435 28.1397 16.6098C29.4162 15.5993 30.785 14.7002 32.1538 13.924L32.3039 13.8393C32.7011 13.6168 33.0731 13.419 33.4129 13.2469L33.4762 13.2149C33.5738 13.1659 33.6635 13.1215 33.7451 13.0819L33.8256 13.043Z" fill="#2E186A"/>
<path fill-rule="evenodd" clip-rule="evenodd" d="M5.44138 23.1574C5.44138 23.1574 11.5263 37.2506 26.5062 35.7452L29.3592 33.2649C29.3521 33.2649 20.9361 18.2972 5.44138 23.1574Z" fill="white"/>
<path fill-rule="evenodd" clip-rule="evenodd" d="M16.8661 23.2322C19.7463 24.149 22.3413 25.7657 24.643 27.8842C25.9484 29.0857 27.0777 30.3732 28.0285 31.6619C28.3604 32.1117 28.6459 32.5289 28.8863 32.905L28.9109 32.9436C28.9593 33.0198 29.0035 33.0907 29.0439 33.1565L29.0829 33.2206L26.4174 35.5379L26.4849 35.5313C22.8456 35.897 19.5489 35.3568 16.5786 34.0441C14.0932 32.9457 11.9074 31.3397 10.0093 29.3587C8.68985 27.9816 7.58644 26.5057 6.69039 25.0301C6.37701 24.514 6.11205 24.0351 5.8944 23.6058L5.87397 23.5653C5.83367 23.4853 5.79675 23.4104 5.7632 23.3408L5.73918 23.2907L5.74864 23.2879C9.71488 22.0912 13.4211 22.1356 16.8661 23.2322ZM29.5133 33.1035L29.4692 33.0295L29.4301 32.965C29.383 32.8878 29.3308 32.8038 29.2728 32.7125L29.2476 32.6729C29.0021 32.2889 28.7112 31.8639 28.3735 31.4061C27.4072 30.0965 26.2601 28.7886 24.9332 27.5674C22.5883 25.4091 19.9406 23.7595 16.996 22.8222C13.3974 21.6768 9.52002 21.6528 5.37742 22.9522C5.25585 22.9904 5.19401 23.1257 5.24462 23.2429L5.26199 23.2821L5.29003 23.3438C5.29692 23.3588 5.30426 23.3746 5.31204 23.3913L5.35978 23.4922C5.39889 23.5739 5.44261 23.663 5.49097 23.759L5.51199 23.8006C5.73447 24.2395 6.00473 24.728 6.32398 25.2537C7.23545 26.7548 8.35741 28.2555 9.69994 29.6566C11.6349 31.6761 13.8657 33.3152 16.4055 34.4377C19.4431 35.7801 22.8141 36.3325 26.5278 35.9593C26.5718 35.9548 26.6134 35.9368 26.6469 35.9078L29.4999 33.4275L29.5089 33.4192C29.6402 33.2925 29.5612 33.0699 29.3836 33.0512L29.3723 33.0503L29.3593 33.0499C29.4227 33.0499 29.4716 33.0732 29.5024 33.0952L29.5133 33.1035Z" fill="#2E186A"/>
<path fill-rule="evenodd" clip-rule="evenodd" d="M45.219 32.4333H15.066C14.494 32.4333 14.0292 32.8993 14.0292 33.4728V37.2649C14.0292 37.8384 14.494 38.3043 15.066 38.3043H16.7893L21.9304 60.9423H38.2403L43.3814 38.3043H45.2261C45.7982 38.3043 46.2629 37.8384 46.2629 37.2649V33.4728C46.2558 32.8993 45.791 32.4333 45.219 32.4333Z" fill="#24348C"/>
<path fill-rule="evenodd" clip-rule="evenodd" d="M42.8306 38.0822C42.949 38.0822 43.0451 38.1784 43.0451 38.2972C43.0451 38.4117 42.9558 38.5054 42.8432 38.5119L42.8306 38.5123H17.3826C17.2641 38.5123 17.168 38.416 17.168 38.2972C17.168 38.1827 17.2573 38.0891 17.37 38.0825L17.3826 38.0822H42.8306Z" fill="white"/>
<path fill-rule="evenodd" clip-rule="evenodd" d="M24.0897 58.5267C24.1755 59.1217 24.4973 59.946 25.2767 60.6485L25.434 60.9998L36.3168 60.8994C46.3916 57.4873 64.0887 53.9675 64.0887 53.9675L45.3405 42.2041C45.3405 42.2041 33.9143 44.8063 29.5454 47.3439C25.1837 49.8887 23.675 55.645 24.0897 58.5267Z" fill="white"/>
<path fill-rule="evenodd" clip-rule="evenodd" d="M45.2927 41.9945L44.9705 42.0694C44.8408 42.0999 44.6969 42.134 44.5399 42.1716L44.2071 42.2519C43.6979 42.3754 43.1452 42.5128 42.5582 42.6629C40.5081 43.1868 38.4579 43.7564 36.5436 44.3521L36.198 44.4604C33.4552 45.3261 31.2527 46.1707 29.7726 46.9704C29.6563 47.0332 29.5446 47.0957 29.4376 47.1579C27.3802 48.3583 25.8119 50.3335 24.8278 52.7271C23.9899 54.7652 23.6499 56.9782 23.8772 58.5575L23.8833 58.5979C24 59.3388 24.3921 60.1106 25.0592 60.7404L25.099 60.7776L25.238 61.088C25.2729 61.1659 25.3505 61.2157 25.4357 61.2149L36.3185 61.1146C36.3412 61.1144 36.3637 61.1105 36.3852 61.1033C36.6808 61.0031 36.9852 60.9022 37.2981 60.8004L37.5839 60.7081C40.1757 59.8751 43.3024 58.9989 46.8498 58.096C50.5396 57.1569 54.4872 56.2381 58.441 55.3756L59.2572 55.1984C60.4315 54.9446 61.5308 54.7123 62.5347 54.5043L63.2627 54.3543L64.1302 54.1786C64.3207 54.1407 64.3669 53.8887 64.2022 53.7853L45.4541 42.0219C45.406 41.9917 45.348 41.9819 45.2927 41.9945ZM45.3017 42.4337L63.5179 53.8633L62.7034 54.0303L62.1094 54.1534C61.0834 54.367 59.9643 54.6047 58.7722 54.8634L58.6395 54.8923C54.6811 55.753 50.7226 56.671 47.0152 57.6104L46.7443 57.6792C43.0572 58.6176 39.8225 59.5276 37.1659 60.3913L37.0316 60.4351C36.8532 60.4934 36.6776 60.5515 36.5049 60.6093L36.2804 60.6848L25.572 60.7836L25.4722 60.5606C25.46 60.5332 25.4422 60.5088 25.4199 60.4887C24.7721 59.9048 24.4003 59.1788 24.3019 58.496C24.0862 56.9978 24.4145 54.8614 25.2246 52.891C26.175 50.5794 27.684 48.6787 29.6532 47.5299C29.7559 47.4702 29.8638 47.4098 29.9763 47.349L30.0679 47.3C31.5648 46.5056 33.803 45.6584 36.5847 44.7897L36.6709 44.7628C38.5093 44.1908 40.475 43.6425 42.4453 43.1358L42.6643 43.0797C43.3796 42.8968 44.0437 42.7328 44.6397 42.59L45.0249 42.4984L45.3017 42.4337Z" fill="#2E186A"/>
<path fill-rule="evenodd" clip-rule="evenodd" d="M25.8055 60.9354C20.9147 60.0966 22.309 46.3475 30.5318 34.2042C34.2143 28.197 35.2797 26.5698 38.1112 25.6379C39.2195 25.2723 40.4065 25.2723 41.6649 25.8314C46.1482 27.8171 50.9031 29.8816 47.7141 30.792C44.525 31.7024 37.0029 37.9031 37.0029 37.9031C37.0029 37.9031 37.0744 45.9533 36.674 48.8923C36.4094 50.8852 35.8874 52.8923 35.3655 54.3475" fill="white"/>
<path fill-rule="evenodd" clip-rule="evenodd" d="M38.0443 25.4335C39.2517 25.0353 40.4718 25.0792 41.7025 25.613L42.6133 26.0163C45.4584 27.2794 46.9156 27.9937 47.9071 28.6847L47.937 28.7056C48.5904 29.165 48.9447 29.569 48.9674 29.9667C48.9938 30.4281 48.5926 30.7586 47.8074 30.9888L47.773 30.9988C46.7427 31.2929 45.1575 32.1839 43.1801 33.5274C42.7457 33.8225 42.2968 34.1365 41.836 34.4669C40.7373 35.2548 39.6208 36.0993 38.5452 36.9439L38.3489 37.0984C38.1128 37.2847 37.8906 37.4616 37.6843 37.6273L37.4499 37.8162L37.2183 38.0043L37.22 38.2901L37.2214 38.5994C37.2271 40.2107 37.2162 42.0239 37.1773 43.7635L37.1681 44.1499C37.1161 46.22 37.0279 47.8396 36.896 48.8511L36.8868 48.9207C36.6377 50.7972 36.1414 52.8202 35.5675 54.4203C35.5274 54.532 35.4045 54.59 35.293 54.5499C35.1816 54.5097 35.1237 54.3865 35.1638 54.2747C35.7174 52.7312 36.199 50.7809 36.4482 48.9623L36.4706 48.7957C36.6046 47.7683 36.6937 46.0814 36.7445 43.9215L36.752 43.5856C36.7879 41.902 36.7979 40.1569 36.7923 38.6009L36.7886 37.905C36.788 37.84 36.8167 37.7782 36.8668 37.7369L37.1145 37.5349L37.2501 37.4252C37.5387 37.1923 37.8621 36.9344 38.2143 36.6574L38.2807 36.6053C39.3609 35.7571 40.4821 34.909 41.5864 34.1171C42.0501 33.7846 42.5019 33.4685 42.9394 33.1713L43.1196 33.0494C45.0099 31.776 46.5362 30.9221 47.5896 30.6045L47.7179 30.5669C48.3088 30.3895 48.5504 30.1878 48.5391 29.9913C48.5265 29.7696 48.2423 29.4456 47.6907 29.0577L47.6325 29.0172C46.7116 28.3813 45.3444 27.7048 42.7743 26.5585L41.5782 26.028C40.429 25.5174 39.3022 25.4714 38.1783 25.8421C36.786 26.3004 35.8601 26.9235 34.8419 28.1127L34.8042 28.157C33.8967 29.2272 33.0596 30.4972 30.9173 33.9865L30.7148 34.3167L30.7095 34.3249C26.8613 40.0079 24.2835 46.4164 23.4633 51.8412C22.6949 56.9228 23.6124 60.341 25.8418 60.7233C25.9586 60.7433 26.0371 60.8545 26.0171 60.9716C25.9971 61.0886 25.8862 61.1673 25.7695 61.1473C23.2179 60.7097 22.2395 57.0649 23.0391 51.7767C23.8609 46.3419 26.4193 39.9475 30.2384 34.2556L30.3526 34.0861L30.6794 33.5536C32.7197 30.2341 33.5509 28.9767 34.4487 27.9123L34.4773 27.8784C35.5612 26.6004 36.5593 25.9223 38.0443 25.4335Z" fill="#2E186A"/>
<path fill-rule="evenodd" clip-rule="evenodd" d="M95.2282 60.7919L78.332 33.9246L45.3547 42.0106V42.0034L39.4414 43.2937L43.3812 59.0572L51.5969 57.0643C52.7267 59.2579 53.5561 60.7776 53.5561 60.7776H95.2282V60.7919Z" fill="#FFC29E"/>
<path fill-rule="evenodd" clip-rule="evenodd" d="M68.4858 27.0644C68.4858 27.0644 71.8035 26.9138 71.4031 29.9246C71.0027 32.9353 67.2273 31.4515 67.2273 31.4515L67.4418 27.1934L68.4858 27.0644Z" fill="white"/>
<path fill-rule="evenodd" clip-rule="evenodd" d="M68.4806 26.8493L68.4762 26.8495C68.4707 26.8497 68.4652 26.8502 68.4597 26.8509L67.4157 26.9799C67.3123 26.9927 67.233 27.0782 67.2278 27.1825L67.0132 31.4406C67.0086 31.5329 67.0633 31.6179 67.1492 31.6516L67.1783 31.6628C67.2121 31.6754 67.26 31.6924 67.3204 31.7126C67.4533 31.757 67.6018 31.8013 67.7626 31.8426C68.296 31.9796 68.8349 32.0527 69.3432 32.0272C70.5905 31.9648 71.4343 31.3183 71.6159 29.953C71.8135 28.4671 71.1842 27.5458 70.0374 27.1101C69.7237 26.9908 69.3904 26.9165 69.054 26.8777C68.8458 26.8537 68.6654 26.8462 68.5263 26.8482L68.4806 26.8493ZM69.0051 27.305C69.3085 27.34 69.6078 27.4068 69.8854 27.5123C70.8554 27.8808 71.3604 28.6202 71.1907 29.8961C71.0389 31.0376 70.3769 31.5449 69.3219 31.5977C68.8624 31.6206 68.3642 31.5531 67.8692 31.4259L67.8194 31.4129C67.7044 31.3824 67.5967 31.3504 67.4979 31.3183L67.4498 31.3024L67.6472 27.3847L68.5029 27.2789L68.511 27.2787C68.6345 27.2758 68.805 27.282 69.0051 27.305Z" fill="#2E186A"/>
<path fill-rule="evenodd" clip-rule="evenodd" d="M58.4397 18.3045C57.5602 18.2901 51.5539 18.2973 51.2179 23.3439C50.8889 28.3905 51.9472 33.8672 52.6622 36.3546C53.3773 38.8421 64.7606 36.9281 65.3898 36.6629C66.0262 36.3977 66.7484 35.5876 66.7484 35.5876L67.8209 27.8027C67.8281 27.8027 67.871 18.4765 58.4397 18.3045Z" fill="white"/>
<path fill-rule="evenodd" clip-rule="evenodd" d="M56.9637 18.1624C56.1219 18.2567 55.3041 18.4371 54.5487 18.7253C52.4858 19.5123 51.1847 20.9772 51.0088 23.2604L51.0038 23.3298C50.852 25.6591 50.9824 28.2259 51.336 30.8378L51.3618 31.0254C51.6448 33.0548 52.0512 35.0056 52.4561 36.4142C52.6535 37.1009 53.4686 37.5035 54.7913 37.6963L54.8342 37.7024C55.9205 37.8557 57.3377 37.8675 58.9869 37.7612L59.0724 37.7556C61.6028 37.587 64.9675 37.0741 65.4729 36.8611C65.5463 36.8305 65.6222 36.7928 65.7 36.7488C65.8881 36.6422 66.0841 36.5002 66.2846 36.3313C66.4403 36.2001 66.59 36.0601 66.7286 35.92L66.7755 35.8722C66.7982 35.8489 66.8196 35.8265 66.8396 35.8052L66.8776 35.7646C66.8915 35.7496 66.9018 35.7382 66.9083 35.7309L66.9185 35.7186C66.9411 35.6891 66.9557 35.6541 66.9609 35.617L67.9789 28.2276L67.9887 28.259C68.0387 28.4256 68.0541 28.5888 68.0523 28.4165L68.0348 27.6928C68.033 27.6158 68.0292 27.5259 68.0231 27.4257L68.0208 27.3876C67.9997 27.0634 67.9596 26.6997 67.8961 26.3082C67.7151 25.1931 67.383 24.0731 66.8618 23.0223C66.1896 21.6673 65.2501 20.5288 64.0057 19.6831C62.538 18.6856 60.6946 18.1305 58.4436 18.0894C58.0089 18.0823 57.5293 18.099 56.9637 18.1624ZM51.4243 23.479L51.4319 23.3582C51.5744 21.2193 52.7631 19.8667 54.7013 19.1273C55.4198 18.8532 56.2031 18.6804 57.0114 18.5898C57.5567 18.5288 58.0189 18.5126 58.4363 18.5195C60.6058 18.559 62.3681 19.0898 63.765 20.0391C64.9447 20.8408 65.8368 21.9219 66.4777 23.2138C66.9782 24.2227 67.2982 25.3021 67.4727 26.3773C67.534 26.7546 67.5725 27.1047 67.5927 27.4155L67.595 27.4516L67.6005 27.5539C67.6016 27.5756 67.6025 27.5966 67.6033 27.6169L67.606 27.7029L67.5904 27.0873C67.5848 26.7862 67.6289 27.5876 67.821 27.5876L67.8082 27.588C67.7067 27.594 67.6226 27.6711 67.6085 27.7732L66.5451 35.4914L66.5088 35.5299C66.4828 35.5573 66.4545 35.5864 66.4241 35.6171C66.294 35.7485 66.1536 35.8799 66.0086 36.0021C65.8268 36.1553 65.6513 36.2824 65.489 36.3743C65.4256 36.4102 65.365 36.4403 65.3075 36.4643L65.2889 36.4714C65.0963 36.5391 64.2468 36.7039 63.2413 36.8581L63.204 36.8638C61.8574 37.069 60.3981 37.2362 59.044 37.3264C55.4767 37.564 53.1383 37.2339 52.8684 36.2951L52.8315 36.1654C52.4323 34.7439 52.0338 32.7942 51.7612 30.78C51.4173 28.2401 51.2868 25.7449 51.4243 23.479Z" fill="#2E186A"/>
<path fill-rule="evenodd" clip-rule="evenodd" d="M67.4632 34.3546L68.7717 39.4944C69.6226 51.1933 53.4271 51.9389 54.4425 37.8313L63.9953 39.0356L64.7461 35.2435L67.4632 34.3546Z" fill="white"/>
<path fill-rule="evenodd" clip-rule="evenodd" d="M64.6795 35.0391L64.6659 35.0441C64.599 35.071 64.5498 35.1302 64.5357 35.2017L63.8237 38.7972L54.4692 37.618C54.3472 37.6026 54.2373 37.6929 54.2285 37.8159C53.9858 41.188 54.7032 43.9136 56.2043 45.8212C57.5533 47.5356 59.4807 48.4934 61.539 48.5553C63.5533 48.6158 65.5108 47.8084 66.9062 46.3002C68.4299 44.6533 69.1907 42.2984 68.9856 39.4788C68.9847 39.4661 68.9827 39.4536 68.9795 39.4413L67.671 34.3015C67.6404 34.181 67.5145 34.1116 67.3966 34.1502L64.6795 35.0391ZM67.312 34.6303L68.559 39.5284L68.5578 39.5101C68.7545 42.2143 68.0317 44.4512 66.5917 46.0077C65.2812 47.4241 63.4434 48.1822 61.5519 48.1254C59.6195 48.0673 57.811 47.1686 56.5411 45.5548L56.4984 45.5C55.1393 43.7393 54.4649 41.2414 54.6377 38.1394L54.6416 38.0731L63.9686 39.249L63.9814 39.2503C64.0881 39.2573 64.1847 39.184 64.2057 39.0775L64.932 35.4088L67.312 34.6303Z" fill="#2E186A"/>
<path fill-rule="evenodd" clip-rule="evenodd" d="M65.5471 27.5732C65.5471 27.5732 64.9393 31.6664 64.6676 33.1718C64.6676 33.1718 60.9137 32.1611 55.6439 32.4263C55.6439 32.4263 52.7766 32.67 51.654 33.0858C51.654 33.0858 52.2403 38.3188 54.7429 40.8851C57.2455 43.4514 62.1149 42.3761 64.3172 40.5912C66.5195 38.8062 66.8484 38.0034 67.2703 36.2184C67.6922 34.4335 68.6789 27.8241 68.6789 27.8241L65.5471 27.5732Z" fill="#968BB4"/>
<path fill-rule="evenodd" clip-rule="evenodd" d="M68.5145 28.7704C68.5145 28.7704 70.0089 25.6736 70.4451 23.1217C70.8598 20.7274 69.6014 18.3188 67.3562 17.4084C65.4756 16.6414 64.8607 16.8923 64.8607 16.8923C64.8607 16.8923 65.9761 14.8994 63.0731 11.9675C62.0506 10.9353 60.6348 10.3618 59.1833 10.3976C55.6296 10.4908 54.5213 13.5016 54.5213 13.5016C54.5213 13.5016 50.7316 6.48367 42.9235 10.6127C42.1369 11.0285 41.2432 12.1898 40.8213 12.9783C38.2329 17.731 46.706 23.3941 51.1249 23.8528C55.98 24.3546 59.026 23.7525 60.5061 22.4622C59.405 23.2364 61.3856 30.3618 68.5145 28.7704Z" fill="#2E186A"/>
<path fill-rule="evenodd" clip-rule="evenodd" d="M55.3859 30.1328C55.5389 30.1402 55.658 30.2668 55.6582 30.4187L55.6578 30.433L55.4561 34.627L56.6421 34.2397C56.7876 34.1922 56.9437 34.268 56.9978 34.4096L57.0027 34.4236C57.0501 34.5694 56.9745 34.7259 56.8332 34.7801L56.8193 34.785L55.2391 35.3011C55.053 35.3619 54.8638 35.2217 54.8645 35.028L54.8648 35.0147L55.0865 30.4054C55.0939 30.252 55.2201 30.1326 55.3717 30.1324L55.3859 30.1328Z" fill="#2E186A"/>
<path fill-rule="evenodd" clip-rule="evenodd" d="M58.0791 26.3754C58.8023 26.2186 59.4379 26.3724 59.9648 26.7233C60.0984 26.8122 60.2147 26.9076 60.3138 27.0037L60.343 27.0326C60.3892 27.079 60.4229 27.1171 60.444 27.1436C60.5424 27.2675 60.5221 27.4479 60.3985 27.5466C60.275 27.6453 60.0951 27.6249 59.9966 27.501C59.9861 27.4878 59.9589 27.4575 59.916 27.4158C59.841 27.3431 59.7515 27.2696 59.6484 27.201C59.2426 26.9309 58.7611 26.8143 58.2 26.9359C58.0456 26.9694 57.8934 26.871 57.86 26.7163C57.8266 26.5615 57.9247 26.4089 58.0791 26.3754Z" fill="#2E186A"/>
<path fill-rule="evenodd" clip-rule="evenodd" d="M53.3392 25.302C53.6165 25.2452 53.9034 25.2604 54.1783 25.3188L54.2228 25.3287C54.2938 25.3451 54.3491 25.3613 54.3854 25.3737C54.5348 25.4251 54.6145 25.5881 54.5632 25.7379C54.5136 25.8831 54.3594 25.9625 54.214 25.9207L54.1831 25.911C54.1787 25.9097 54.1736 25.9082 54.1678 25.9065C54.1363 25.8976 54.1 25.8884 54.0596 25.8798C53.8551 25.8363 53.6429 25.8251 53.4539 25.8639C53.1855 25.9189 52.9957 26.0664 52.8863 26.3504C52.8294 26.4982 52.6638 26.5717 52.5165 26.5146C52.3691 26.4576 52.2958 26.2916 52.3527 26.1438C52.5358 25.6684 52.8881 25.3946 53.3392 25.302Z" fill="#2E186A"/>
<path fill-rule="evenodd" clip-rule="evenodd" d="M60.5707 35.9102C60.3204 35.5661 57.8821 37.2794 58.8331 37.4371C59.7841 37.5948 61.1069 36.6485 60.5707 35.9102Z" fill="#2E186A"/>
<path fill-rule="evenodd" clip-rule="evenodd" d="M50.3453 35.5948L59.605 32.455C59.605 32.455 60.842 31.9819 60.7991 30.369C60.7562 28.7561 58.7327 28.154 58.7327 28.154L48.8581 26.7561L50.3453 35.5948Z" fill="#FF8D7E"/>
<path fill-rule="evenodd" clip-rule="evenodd" d="M40.4352 35.5948L49.6949 32.455C49.6949 32.455 50.9319 31.9819 50.889 30.369C50.8461 28.7561 48.8225 28.154 48.8225 28.154L38.9479 26.7561L40.4352 35.5948Z" fill="#FF8D7E"/>
<path fill-rule="evenodd" clip-rule="evenodd" d="M48.7654 35.8887C51.2889 35.8887 53.3345 33.8379 53.3345 31.3081C53.3345 28.7782 51.2889 26.7274 48.7654 26.7274C46.242 26.7274 44.1964 28.7782 44.1964 31.3081C44.1964 33.8379 46.242 35.8887 48.7654 35.8887Z" fill="#2E186A"/>
<path fill-rule="evenodd" clip-rule="evenodd" d="M38.7834 35.9533C41.3069 35.9533 43.3525 33.9025 43.3525 31.3726C43.3525 28.8428 41.3069 26.792 38.7834 26.792C36.26 26.792 34.2144 28.8428 34.2144 31.3726C34.2144 33.9025 36.26 35.9533 38.7834 35.9533Z" fill="#2E186A"/>
<path fill-rule="evenodd" clip-rule="evenodd" d="M40.7642 26.1253C41.894 24.1038 46.8635 23.43 47.7859 23.5733C48.7082 23.7095 47.8002 25.602 43.8317 25.9533C43.8317 25.9533 42.6162 25.9748 41.9941 26.5124" fill="white"/>
<path fill-rule="evenodd" clip-rule="evenodd" d="M44.297 23.8298L44.3855 23.8063C45.7167 23.4577 47.2169 23.2765 47.7979 23.3577L47.8169 23.3605C48.153 23.4102 48.3565 23.6495 48.3287 23.9718C48.3048 24.2497 48.1113 24.5568 47.784 24.8443C47.0331 25.5042 45.6942 25.996 43.91 26.162L43.8504 26.1675L43.7759 26.1706C43.7679 26.171 43.7592 26.1715 43.7499 26.1721C43.6786 26.1763 43.5989 26.1831 43.5129 26.1929C43.2679 26.221 43.0232 26.2681 42.797 26.3379C42.5224 26.4228 42.2959 26.5353 42.134 26.6753C42.0442 26.7528 41.9088 26.7427 41.8314 26.6528C41.7541 26.5628 41.7641 26.427 41.8538 26.3495C42.0665 26.1657 42.3441 26.0278 42.6707 25.9269C42.9248 25.8484 43.1947 25.7965 43.4641 25.7656L43.5431 25.7572C43.5946 25.7521 43.6438 25.748 43.6902 25.7449L43.7547 25.741L43.8195 25.7383L43.8708 25.7337C45.5517 25.5772 46.7967 25.1253 47.478 24.5411L47.5013 24.5209C47.7528 24.2998 47.8884 24.0847 47.9013 23.9347C47.9089 23.8463 47.8725 23.8035 47.7528 23.7858C47.2485 23.7074 45.7554 23.8876 44.4507 24.2338L44.4082 24.2452C42.6848 24.7088 41.4197 25.392 40.9512 26.2304C40.8933 26.334 40.7626 26.3709 40.6592 26.3129C40.5558 26.2548 40.519 26.1238 40.5769 26.0202C41.1183 25.0514 42.4704 24.3211 44.297 23.8298Z" fill="#2E186A"/>
<path fill-rule="evenodd" clip-rule="evenodd" d="M42.3587 25.4586C44.4466 24.455 48.8941 26.7848 49.5662 27.4299C50.2455 28.0751 48.4079 29.093 44.9686 27.093C44.9686 27.093 43.9604 26.412 43.1452 26.4909" fill="white"/>
<path fill-rule="evenodd" clip-rule="evenodd" d="M42.2661 25.2647C43.2665 24.7838 44.7911 24.9685 46.5677 25.6242L46.6533 25.6561C47.9526 26.1455 49.2988 26.8753 49.7139 27.2738C49.9612 27.5086 49.9906 27.822 49.7821 28.0695C49.6027 28.2825 49.2678 28.4214 48.8346 28.4673C47.841 28.5724 46.4643 28.2017 44.9135 27.3093L44.8611 27.279L44.8136 27.2485L44.7744 27.2239C44.7536 27.2111 44.7311 27.1975 44.7069 27.1833C44.5915 27.1152 44.464 27.047 44.3289 26.9835C44.0463 26.8507 43.7696 26.7567 43.5164 26.7184C43.3904 26.6993 43.2732 26.6945 43.166 26.7049C43.0481 26.7163 42.9433 26.6297 42.9319 26.5115C42.9205 26.3933 43.0069 26.2882 43.1248 26.2768C43.2692 26.2628 43.4214 26.269 43.5804 26.2931C43.88 26.3385 44.1941 26.4451 44.511 26.594C44.659 26.6636 44.798 26.738 44.9244 26.8126L44.9779 26.8445C45.0164 26.8679 45.0477 26.8877 45.0708 26.9028L45.0814 26.9099L45.1268 26.9362C46.5882 27.7771 47.8655 28.1263 48.7589 28.0426L48.7895 28.0395C49.1227 28.0043 49.3576 27.9068 49.4544 27.7919C49.5112 27.7245 49.506 27.6688 49.4181 27.5853L49.3926 27.5616C48.9905 27.1991 47.6958 26.5036 46.4606 26.0431L46.4195 26.0278C44.7434 25.4093 43.3172 25.2365 42.4516 25.6525C42.3448 25.7039 42.2167 25.6587 42.1655 25.5516C42.1142 25.4445 42.1593 25.316 42.2661 25.2647Z" fill="#2E186A"/>
<path fill-rule="evenodd" clip-rule="evenodd" d="M40.128 25.4586C42.2159 24.455 46.6634 26.7848 47.3355 27.4299C48.0148 28.0751 46.1771 29.093 42.7378 27.093C42.7378 27.093 41.7296 26.412 40.9145 26.4909" fill="white"/>
<path fill-rule="evenodd" clip-rule="evenodd" d="M40.035 25.2647C41.0354 24.7838 42.5599 24.9685 44.3365 25.6242L44.4221 25.6561C45.7215 26.1455 47.0677 26.8753 47.4828 27.2738C47.7301 27.5086 47.7595 27.822 47.551 28.0695C47.3716 28.2825 47.0366 28.4214 46.6034 28.4673C45.6099 28.5724 44.2332 28.2017 42.6823 27.3093L42.63 27.279L42.5825 27.2485L42.5432 27.2239C42.5224 27.2111 42.4999 27.1975 42.4758 27.1833C42.3603 27.1152 42.2329 27.047 42.0977 26.9835C41.8152 26.8507 41.5384 26.7567 41.2852 26.7184C41.1593 26.6993 41.042 26.6945 40.9349 26.7049C40.817 26.7163 40.7121 26.6297 40.7008 26.5115C40.6894 26.3933 40.7758 26.2882 40.8937 26.2768C41.038 26.2628 41.1902 26.269 41.3493 26.2931C41.6488 26.3385 41.9629 26.4451 42.2799 26.594C42.4279 26.6636 42.5669 26.738 42.6933 26.8126L42.7468 26.8445C42.7853 26.8679 42.8165 26.8877 42.8396 26.9028L42.8503 26.9099L42.8957 26.9362C44.357 27.7771 45.6344 28.1263 46.5278 28.0426L46.5584 28.0395C46.8916 28.0043 47.1265 27.9068 47.2232 27.7919C47.2801 27.7245 47.2749 27.6688 47.1869 27.5853L47.1615 27.5616C46.7593 27.1991 45.4647 26.5036 44.2295 26.0431L44.1883 26.0278C42.5122 25.4093 41.086 25.2365 40.2205 25.6525C40.1136 25.7039 39.9855 25.6587 39.9343 25.5516C39.8831 25.4445 39.9282 25.316 40.035 25.2647Z" fill="#2E186A"/>
<path fill-rule="evenodd" clip-rule="evenodd" d="M38.29 25.5804C40.3779 24.5769 44.8254 26.9066 45.4975 27.5518C46.1768 28.1969 44.3392 29.2148 40.8999 27.2148C40.8999 27.2148 39.8917 26.5338 39.0765 26.6127" fill="white"/>
<path fill-rule="evenodd" clip-rule="evenodd" d="M38.1974 25.3866C39.1978 24.9058 40.7224 25.0905 42.499 25.7461L42.5846 25.778C43.8839 26.2674 45.2301 26.9973 45.6452 27.3957C45.8925 27.6306 45.9219 27.944 45.7134 28.1914C45.534 28.4044 45.1991 28.5434 44.7659 28.5892C43.7723 28.6944 42.3956 28.3236 40.8448 27.4313L40.7924 27.401L40.7449 27.3704L40.7057 27.3459C40.6849 27.3331 40.6624 27.3195 40.6383 27.3052C40.5228 27.2372 40.3953 27.169 40.2602 27.1054C39.9776 26.9726 39.7009 26.8787 39.4477 26.8403C39.3217 26.8212 39.2045 26.8165 39.0973 26.8269C38.9794 26.8383 38.8746 26.7517 38.8632 26.6335C38.8518 26.5152 38.9382 26.4101 39.0561 26.3987C39.2005 26.3848 39.3527 26.3909 39.5118 26.415C39.8113 26.4604 40.1254 26.567 40.4423 26.716C40.5903 26.7856 40.7293 26.86 40.8557 26.9345L40.9092 26.9665C40.9478 26.9899 40.979 27.0096 41.0021 27.0248L41.0127 27.0318L41.0581 27.0581C42.5195 27.899 43.7968 28.2482 44.6902 28.1645L44.7208 28.1615C45.054 28.1262 45.2889 28.0288 45.3857 27.9139C45.4425 27.8464 45.4373 27.7907 45.3494 27.7072L45.3239 27.6835C44.9218 27.321 43.6271 26.6256 42.3919 26.165L42.3508 26.1497C40.6747 25.5312 39.2485 25.3584 38.3829 25.7745C38.2761 25.8258 38.148 25.7806 38.0968 25.6735C38.0455 25.5664 38.0906 25.438 38.1974 25.3866Z" fill="#2E186A"/>
<path fill-rule="evenodd" clip-rule="evenodd" d="M108.02 12.3258C106.275 11.5158 104.159 12.1753 103.287 13.8026L98.031 23.6162L101.313 8.36886C101.699 6.59108 100.455 4.85631 98.5459 4.49789C96.6367 4.13947 94.7776 5.29359 94.3915 7.07137L90.4874 22.8993L90.9236 4.53373C90.9808 2.72011 89.4506 1.20757 87.4986 1.15022C85.5537 1.09287 83.9234 2.52657 83.8662 4.34019L83.2799 22.8205L79.8906 7.07854C79.5045 5.30076 77.6454 4.14664 75.7363 4.50506C73.8271 4.86348 72.583 6.59108 72.9691 8.37603L76.2511 23.6233L70.9956 13.8097C70.1233 12.1825 68.0068 11.523 66.2621 12.333C64.5174 13.1431 63.8095 15.1144 64.6819 16.7416L75.4646 36.8707L99.6613 35.3151L109.615 16.7416C110.473 15.1072 109.765 13.1359 108.02 12.3258Z" fill="white"/>
<path fill-rule="evenodd" clip-rule="evenodd" d="M83.6519 4.33343L83.1211 21.0633L80.1004 7.0332C79.6932 5.15842 77.7576 3.9387 75.7573 4.28284L75.6985 4.29343L75.6378 4.30529C73.6424 4.71138 72.3519 6.53708 72.7595 8.42165L75.7205 22.1779L71.1847 13.708C70.2681 11.9983 68.0651 11.2938 66.2275 12.1127L66.1735 12.1372C64.3168 12.9993 63.5613 15.1056 64.493 16.8435L75.2756 36.9724C75.3154 37.0466 75.3946 37.0907 75.4784 37.0853L99.6751 35.5297C99.749 35.525 99.8153 35.4823 99.8503 35.4169L109.804 16.8434C110.711 15.1146 109.98 13.0338 108.165 12.1568L108.112 12.1314L108.056 12.1062C106.219 11.2876 104.015 11.9892 103.098 13.7008L98.5616 22.1707L101.523 8.41426C101.93 6.5374 100.64 4.70426 98.6456 4.29834L98.587 4.28686L98.5264 4.27595C96.5268 3.93198 94.5895 5.14911 94.182 7.02565L90.7485 20.9452L91.1381 4.53889C91.1985 2.62548 89.6064 1.02819 87.5666 0.937573L87.5065 0.935351C85.4458 0.874583 83.7129 2.39706 83.6519 4.33343ZM87.4923 1.36522L87.5492 1.36733C89.3416 1.44696 90.7339 2.82667 90.7104 4.47689L90.273 22.8942C90.2669 23.1512 90.6342 23.2005 90.6957 22.951L94.5998 7.12303C94.9621 5.45512 96.7095 4.37196 98.5064 4.70931L98.5619 4.72017C100.327 5.07939 101.459 6.68747 101.103 8.32315L97.8214 23.5708C97.769 23.8144 98.1025 23.9374 98.2201 23.7179L103.476 13.9043C104.293 12.3795 106.286 11.7579 107.93 12.521L107.98 12.545L108.028 12.5685C109.591 13.3535 110.209 15.1484 109.425 16.6415L99.5287 35.1082L75.5883 36.6472L64.8709 16.6399C64.0584 15.1242 64.7171 13.2874 66.3523 12.5282L66.4032 12.505C68.0377 11.7767 69.9984 12.4037 70.8067 13.9116L76.0622 23.7251C76.1797 23.9446 76.5133 23.8215 76.4608 23.578L73.1788 8.3307C72.8198 6.671 73.9784 5.05392 75.7758 4.71648L75.8315 4.70647C77.6097 4.40054 79.3241 5.48092 79.6811 7.12433L83.0703 22.8659C83.1236 23.1139 83.4863 23.0809 83.4943 22.8273L84.0807 4.34706C84.134 2.65475 85.6632 1.31129 87.4923 1.36522Z" fill="#2E186A"/>
<path fill-rule="evenodd" clip-rule="evenodd" d="M97.0944 35.989L102.75 23.5231C103.601 21.6449 102.979 19.2722 101.363 18.2184C99.7472 17.1647 97.7451 17.8242 96.8942 19.7023L93.5193 27.1288L95.3211 18.7991C95.7716 16.7274 94.6919 14.5768 92.9186 13.989C91.1453 13.4012 89.3435 14.6055 88.9001 16.6772L87.1126 24.9281L86.1687 16.713C85.9256 14.5697 84.2524 13.0213 82.4434 13.2507C80.6343 13.4801 79.3616 15.4012 79.6047 17.5374L80.5771 26.0177L78.4463 20.5052C77.6813 18.5267 75.7149 17.6019 74.056 18.4478C72.3972 19.2937 71.6678 21.5804 72.4329 23.5589L77.2236 35.9604" fill="#24348C"/>
<path fill-rule="evenodd" clip-rule="evenodd" d="M102.157 33.1932H71.9111C71.3391 33.1932 70.8743 33.6592 70.8743 34.2327V38.0391C70.8743 38.6126 71.3391 39.0785 71.9111 39.0785H73.7702L78.9113 60.9567H95.2641L100.405 39.0785H102.143C102.715 39.0785 103.18 38.6126 103.18 38.0391V34.2327C103.194 33.6592 102.729 33.1932 102.157 33.1932Z" fill="#FF8D7E"/>
<path fill-rule="evenodd" clip-rule="evenodd" d="M99.5686 39.0571C99.687 39.0571 99.7831 39.1534 99.7831 39.2722C99.7831 39.3867 99.6938 39.4803 99.5812 39.4869L99.5686 39.4872H74.4494C74.331 39.4872 74.2349 39.391 74.2349 39.2722C74.2349 39.1577 74.3242 39.064 74.4368 39.0575L74.4494 39.0571H99.5686Z" fill="#2E186A"/>
<path fill-rule="evenodd" clip-rule="evenodd" d="M93.734 52.4979C92.64 51.1431 91.0312 48.928 92.118 48.4621C93.2049 47.9962 93.1906 49.1718 94.828 50.2901C96.4726 51.4083 98.0028 51.6234 99.633 53.6592" fill="white"/>
<path fill-rule="evenodd" clip-rule="evenodd" d="M92.0336 48.2644C92.5156 48.0577 92.868 48.1149 93.2122 48.4214C93.2916 48.4921 93.3698 48.5736 93.47 48.6879L93.5327 48.7604C93.5913 48.8294 93.7748 49.0451 93.8421 49.1214C94.1444 49.4645 94.4313 49.7372 94.7942 50.0031C94.8446 50.04 94.8961 50.0764 94.9483 50.1121L95.0171 50.1585C95.4101 50.4217 95.7329 50.6007 96.4476 50.9691L96.7165 51.1078C97.0613 51.2864 97.268 51.3985 97.5026 51.5362C98.3928 52.0588 99.1006 52.651 99.8002 53.5246C99.8744 53.6172 99.8596 53.7526 99.7672 53.8269C99.6748 53.9013 99.5398 53.8865 99.4657 53.7939C98.8143 52.9805 98.1606 52.428 97.3385 51.9385L97.2407 51.881C97.0239 51.7549 96.8204 51.6454 96.4835 51.4712L96.128 51.2879C95.4436 50.9334 95.1276 50.7537 94.7072 50.4678C94.6506 50.4292 94.5953 50.39 94.5411 50.3503C94.1676 50.0767 93.8689 49.7963 93.5624 49.4533L93.4892 49.3703C93.3877 49.2533 93.1891 49.0194 93.1898 49.0202L93.1497 48.974C93.0594 48.871 92.9916 48.8002 92.9274 48.743C92.7074 48.5471 92.5317 48.5186 92.2023 48.6598C91.8695 48.8025 91.8931 49.2617 92.2987 50.0479C92.6368 50.7034 93.1871 51.4789 93.9006 52.3626C93.9752 52.4549 93.961 52.5904 93.8689 52.6651C93.7768 52.7398 93.6417 52.7256 93.5672 52.6333L93.4748 52.5184C92.789 51.661 92.2573 50.9041 91.9176 50.2455C91.6898 49.8039 91.56 49.4253 91.5439 49.1098C91.5236 48.715 91.6855 48.4136 92.0336 48.2644Z" fill="#2E186A"/>
<path fill-rule="evenodd" clip-rule="evenodd" d="M92.8402 51.4226C90.0444 49.8957 85.9759 49.8097 85.0034 49.8527C83.5376 49.9173 84.4385 52.885 91.6461 53.5875C91.6461 53.5875 93.5409 53.8241 94.4276 54.756" fill="white"/>
<path fill-rule="evenodd" clip-rule="evenodd" d="M84.9939 49.6379L85.0716 49.6348C85.8392 49.6082 87.062 49.6683 88.2674 49.836C90.0583 50.0851 91.6685 50.5379 92.9427 51.2338C93.0467 51.2906 93.0851 51.4212 93.0285 51.5255C92.9718 51.6298 92.8415 51.6683 92.7375 51.6115C91.5353 50.9549 90.0028 50.5188 88.2927 50.2739L88.2085 50.262C86.9874 50.0921 85.7479 50.0351 85.0127 50.0676C84.7561 50.0789 84.6292 50.1897 84.6237 50.3713C84.6162 50.6176 84.8133 50.9635 85.2144 51.3199C86.3093 52.2927 88.5071 53.0655 91.6725 53.3741L91.7116 53.3794C91.7394 53.3834 91.7756 53.3889 91.8196 53.3962C91.9335 53.415 92.0601 53.4391 92.1963 53.4689C92.5859 53.5543 92.9757 53.6691 93.3413 53.8182C93.8537 54.0271 94.2776 54.2869 94.5827 54.6075C94.6645 54.6935 94.6613 54.8296 94.5755 54.9116C94.4898 54.9936 94.354 54.9903 94.2723 54.9044C94.0149 54.634 93.6406 54.4045 93.1797 54.2166C92.839 54.0777 92.472 53.9696 92.1047 53.8891C91.9921 53.8645 91.8867 53.844 91.7905 53.8274L91.7498 53.8206C91.7201 53.8157 91.6932 53.8115 91.6692 53.8079L91.6252 53.8015C88.3832 53.4856 86.1024 52.6836 84.9298 51.6418C84.4425 51.2088 84.1829 50.7532 84.1949 50.3582C84.2077 49.9362 84.5257 49.6585 84.9939 49.6379Z" fill="#2E186A"/>
<path fill-rule="evenodd" clip-rule="evenodd" d="M94.1413 55.394C92.5897 52.0965 85.0747 50.9281 83.6161 51.0428C82.1574 51.1575 83.1656 54.2973 89.3363 55.2793C89.3363 55.2793 91.2383 55.4514 92.1536 56.3546" fill="white"/>
<path fill-rule="evenodd" clip-rule="evenodd" d="M83.5994 50.8284C84.5406 50.7544 86.909 51.122 88.9066 51.7332C91.6394 52.5693 93.6099 53.7602 94.3355 55.3023C94.386 55.4097 94.3402 55.5379 94.233 55.5885C94.1259 55.6392 93.998 55.5932 93.9475 55.4858C93.2881 54.0845 91.4079 52.9482 88.7814 52.1445L88.6639 52.109C86.7387 51.5335 84.4953 51.1894 83.633 51.2572C83.0962 51.2994 83.0693 51.9185 83.7736 52.6907C84.7271 53.7359 86.6221 54.6179 89.2891 55.0539L89.3636 55.0659L89.4083 55.0706C89.426 55.0726 89.4464 55.075 89.4694 55.0779L89.506 55.0826C89.6223 55.0978 89.7516 55.118 89.8908 55.1438C90.2887 55.2174 90.6869 55.3213 91.0606 55.4612C91.5698 55.6519 91.9938 55.8951 92.3042 56.2014C92.3886 56.2847 92.3897 56.4208 92.3066 56.5055C92.2235 56.5901 92.0877 56.5912 92.0032 56.5079C91.7417 56.2498 91.3678 56.0354 90.9105 55.8642C90.5627 55.7339 90.1879 55.6361 89.8129 55.5667C89.6979 55.5454 89.5901 55.5282 89.4919 55.5147L89.4504 55.5091C89.4276 55.5061 89.4065 55.5034 89.387 55.5011L89.3172 55.4935L89.3028 55.4917C86.5046 55.0464 84.4929 54.1165 83.457 52.9809C83.0219 52.5039 82.7947 52.016 82.8126 51.6057C82.8318 51.1638 83.1343 50.865 83.5994 50.8284Z" fill="#2E186A"/>
<path fill-rule="evenodd" clip-rule="evenodd" d="M94.7205 58.0894C93.2475 54.756 85.8326 53.179 84.3668 53.2578C82.901 53.3367 83.6375 56.8134 89.7796 57.946C89.7796 57.946 91.6745 58.161 92.5683 59.0858" fill="white"/>
<path fill-rule="evenodd" clip-rule="evenodd" d="M84.3557 53.0431C85.2752 52.9936 87.6211 53.4729 89.6139 54.1916C92.2967 55.1592 94.2284 56.4441 94.917 58.0022C94.9649 58.1108 94.916 58.2379 94.8077 58.286C94.6994 58.3341 94.5727 58.285 94.5247 58.1765C93.8969 56.7557 92.0502 55.5274 89.4687 54.5964C87.525 53.8953 85.2312 53.4267 84.3786 53.4725C83.8267 53.5022 83.7438 54.2168 84.3918 55.0771C85.2628 56.2337 87.0922 57.2186 89.7383 57.7194L89.8121 57.7332L89.8559 57.7388C89.8732 57.7412 89.8933 57.744 89.916 57.7474L89.952 57.7529C90.0665 57.7705 90.1937 57.7933 90.3306 57.8218C90.7222 57.9033 91.114 58.0146 91.4816 58.1609C91.9927 58.3642 92.4163 58.6192 92.7226 58.9361C92.8051 59.0214 92.8029 59.1576 92.7179 59.2402C92.6328 59.3229 92.497 59.3207 92.4145 59.2354C92.1564 58.9683 91.7826 58.7434 91.3233 58.5607C90.9811 58.4245 90.6124 58.3198 90.2434 58.2429C90.1302 58.2194 90.0243 58.2 89.9276 58.1844L89.8868 58.178C89.857 58.1734 89.8299 58.1694 89.8058 58.1661L89.7558 58.1597L89.7411 58.1575C86.9537 57.6435 85.0006 56.5993 84.0494 55.3363C83.6534 54.8105 83.4669 54.2774 83.5177 53.8395C83.5714 53.3761 83.8892 53.0681 84.3557 53.0431Z" fill="#2E186A"/>
<path fill-rule="evenodd" clip-rule="evenodd" d="M95.8075 60.5338C94.2059 57.4657 87.0341 55.351 85.6541 55.5158C84.2741 55.6807 85.4253 58.161 91.9893 60.1323" fill="white"/>
<path fill-rule="evenodd" clip-rule="evenodd" d="M85.6287 55.3023C86.4295 55.2067 88.6784 55.7693 90.7292 56.6135C93.309 57.6756 95.2483 58.9988 95.9976 60.4341C96.0525 60.5393 96.012 60.6693 95.907 60.7243C95.8021 60.7794 95.6724 60.7387 95.6175 60.6335C94.9279 59.3126 93.0598 58.038 90.5662 57.0114L90.4467 56.9626C88.4919 56.1716 86.3727 55.6466 85.6795 55.7294C85.4394 55.7581 85.3435 55.8537 85.3529 56.0172C85.3664 56.2541 85.5797 56.6014 85.99 56.9904C87.0501 57.9953 89.1215 59.0466 92.0508 59.9264C92.1643 59.9604 92.2288 60.0803 92.1948 60.1941C92.1608 60.3079 92.0412 60.3725 91.9277 60.3384C88.9396 59.441 86.8111 58.3607 85.6953 57.303C85.213 56.8458 84.9457 56.4104 84.9245 56.0419C84.9011 55.6325 85.1785 55.3561 85.6287 55.3023Z" fill="#2E186A"/>
<path fill-rule="evenodd" clip-rule="evenodd" d="M99.2683 53.1288C96.4439 51.8242 93.8269 50.6915 92.5542 51.8027C91.2242 52.9711 89.7369 56.8636 91.7319 59.7238" fill="white"/>
<path fill-rule="evenodd" clip-rule="evenodd" d="M91.9819 60.1324C105.482 63.8242 104.602 52.1037 92.9257 51.3726L91.9819 60.1324Z" fill="white"/>
<path fill-rule="evenodd" clip-rule="evenodd" d="M92.9394 51.1579C95.7239 51.3323 98.0642 52.1366 99.7321 53.3972C101.254 54.5477 102.114 56.0184 102.11 57.4117C102.105 58.8472 101.189 60.0294 99.5397 60.6262C97.7265 61.2823 95.1328 61.2169 91.9257 60.3399C91.8114 60.3086 91.744 60.1904 91.7752 60.0758C91.8064 59.9612 91.9243 59.8937 92.0386 59.9249C95.1675 60.7806 97.6747 60.8438 99.3941 60.2217C100.881 59.6836 101.677 58.6566 101.681 57.4104C101.685 56.1649 100.896 54.8152 99.4739 53.7406C97.8761 52.533 95.6165 51.7565 92.9126 51.5872C92.7944 51.5798 92.7045 51.4777 92.7119 51.3591C92.719 51.2448 92.814 51.157 92.9268 51.1575L92.9394 51.1579Z" fill="#2E186A"/>
</svg>
