<svg width="201" height="111" viewBox="0 0 201 111" fill="none" xmlns="http://www.w3.org/2000/svg">
<path fill-rule="evenodd" clip-rule="evenodd" d="M86.021 110.427H19.7768V63.1246C19.7768 52.897 28.0012 44.6003 38.1398 44.6003H86.021V110.427Z" fill="#6A6AF4"/>
<path fill-rule="evenodd" clip-rule="evenodd" d="M91.3147 110.121C91.3147 110.121 90.3906 75.4828 90.5754 67.5191C90.7735 58.4501 85.2289 49.6607 83.2883 48.0493C81.5853 46.6377 68.8989 47.8363 65.7966 48.1559C66.7207 51.2322 68.7141 55.6002 72.8461 61.4598C73.6382 62.392 74.417 63.444 75.1563 64.6026C78.5886 70.0227 81.1761 78.053 80.7933 89.9186C82.1002 102.81 81.0177 109.961 81.0177 109.961L91.3147 110.121Z" fill="white"/>
<path fill-rule="evenodd" clip-rule="evenodd" d="M130.087 56.1062L121.81 28.473C120.595 25.7829 119.5 26.9415 119.037 26.1025C117.981 24.1449 117.559 23.2793 117.559 23.2793C113.678 26.5953 105.942 25.1437 105.942 25.1437C105.942 25.1437 105.876 25.8628 105.823 28.0469C105.77 30.2309 103.354 29.9113 103.632 32.8144L107.262 52.4306L97.1761 50.2599C95.7504 42.3895 89.0705 29.2054 64.6613 35.7975C50.5359 40.8447 49.9418 48.7684 53.889 55.5735C52.0276 55.8665 47.4996 58.4367 37.9418 72.0602C24.1728 91.6631 24.8329 109.961 51.6052 110.427C56.1068 110.507 104.239 110.36 104.239 110.36L102.747 80.6231C134.298 83.6195 133.401 70.036 130.087 56.1062ZM80.9913 109.934C80.9913 109.934 82.0738 102.783 80.7669 89.8919C80.8593 86.8156 80.7669 84.0057 80.5028 81.4355C80.5028 81.4088 80.5028 81.3822 80.4896 81.3423C80.4632 81.1025 80.4368 80.8628 80.4104 80.6231C80.4104 80.5832 80.3972 80.5299 80.3972 80.49C80.3708 80.2636 80.3444 80.0372 80.318 79.8241C80.3048 79.7708 80.3048 79.7176 80.2916 79.6643C80.2652 79.4512 80.2256 79.2381 80.1992 79.0251C80.186 78.9585 80.186 78.9052 80.1728 78.8386C80.1464 78.6389 80.1068 78.4258 80.0804 78.226C80.0672 78.1594 80.054 78.1062 80.054 78.0396C80.0144 77.8398 79.988 77.6401 79.9484 77.4536C79.9352 77.387 79.922 77.3205 79.9088 77.2672C79.8692 77.0807 79.8296 76.881 79.8032 76.6946C79.79 76.628 79.7768 76.5614 79.7636 76.5081C79.724 76.3217 79.6844 76.1352 79.6448 75.9488C79.6316 75.8822 79.6184 75.8289 79.6052 75.7623C79.5656 75.5759 79.5259 75.3895 79.4731 75.2163C79.4599 75.1498 79.4467 75.0965 79.4335 75.0299C79.3939 74.8435 79.3411 74.6703 79.3015 74.4972C79.2883 74.4439 79.2751 74.3774 79.2619 74.3241C79.2091 74.151 79.1695 73.9645 79.1167 73.7914C79.1035 73.7381 79.0903 73.6849 79.0771 73.6316C79.0243 73.4585 78.9715 73.2854 78.9319 73.1122C78.9187 73.059 78.9055 73.0057 78.8923 72.9657C78.8395 72.7926 78.7867 72.6195 78.7339 72.4464C78.7207 72.3931 78.7075 72.3531 78.6943 72.3132C78.6415 72.1401 78.5887 71.9669 78.5226 71.7938C78.5094 71.7539 78.4962 71.7139 78.483 71.674C78.417 71.5008 78.3642 71.3277 78.2982 71.1546C78.285 71.1146 78.2718 71.088 78.2586 71.0614C78.1926 70.8883 78.1266 70.7018 78.0606 70.5287C78.0474 70.5021 78.0474 70.4754 78.0342 70.4621C77.9682 70.2757 77.9022 70.1025 77.823 69.9161C77.823 69.9028 77.8098 69.8895 77.8098 69.8762C77.0177 67.8919 76.12 66.1607 75.1563 64.6292C75.0639 64.496 74.9847 64.3495 74.8923 64.2163C74.8923 64.203 74.8791 64.1897 74.8791 64.1897C74.7999 64.0699 74.7075 63.9367 74.6283 63.8168C74.6151 63.8035 74.6019 63.7769 74.5887 63.7636C74.5094 63.6437 74.4302 63.5238 74.3378 63.404C74.3246 63.3774 74.3114 63.364 74.2982 63.3374C74.219 63.2176 74.1266 63.0977 74.0474 62.9912C74.0342 62.9778 74.021 62.9645 74.0078 62.9379C73.9154 62.818 73.8362 62.6982 73.7438 62.5916C73.7438 62.5783 73.7306 62.5783 73.7306 62.565C73.4401 62.1921 73.1497 61.8192 72.8593 61.473C68.7273 55.6001 66.7471 51.2321 65.8098 48.1691C68.9121 47.8495 81.5986 46.6643 83.3015 48.0626C84.1068 48.7284 85.5193 50.6062 86.8791 53.2297C86.9451 53.3495 86.9979 53.4561 87.0639 53.5759V53.5892C87.3015 54.0686 87.5392 54.5614 87.7768 55.0807C87.7768 55.0807 87.7768 55.0807 87.7768 55.0941C87.8296 55.2139 87.8824 55.3338 87.9352 55.4669C87.9484 55.4803 87.9484 55.4936 87.9616 55.5202C88.0144 55.6401 88.054 55.7466 88.1068 55.8665C88.12 55.8798 88.12 55.9064 88.1332 55.9197C88.186 56.0396 88.2388 56.1594 88.2916 56.2926C88.2916 56.3059 88.3048 56.3059 88.3048 56.3192C88.4104 56.5856 88.5293 56.8653 88.6349 57.1449C88.6349 57.1449 88.6349 57.1449 88.6349 57.1582C88.6877 57.2914 88.7273 57.4246 88.7801 57.5577C88.7933 57.5844 88.7933 57.611 88.8065 57.6376C88.8461 57.7442 88.8857 57.8507 88.9253 57.9706C88.9385 58.0105 88.9517 58.0372 88.9649 58.0771C89.0045 58.1837 89.0441 58.2902 89.0705 58.3967C89.0837 58.4367 89.0969 58.4633 89.1101 58.5033C89.1497 58.6231 89.1893 58.743 89.2289 58.8628C89.2421 58.8895 89.2421 58.9028 89.2553 58.9294C89.3477 59.2224 89.4269 59.5021 89.5194 59.795C89.5326 59.8217 89.5326 59.8616 89.5458 59.8883C89.5722 59.9948 89.6118 60.1146 89.6382 60.2212C89.6514 60.2611 89.6646 60.3144 89.6778 60.3544C89.7042 60.4609 89.7306 60.5541 89.757 60.6607C89.7702 60.7139 89.7834 60.7539 89.7966 60.8071C89.823 60.9137 89.8494 61.0069 89.8758 61.1134C89.889 61.1534 89.9022 61.2067 89.9154 61.2466C89.9418 61.3665 89.9682 61.4863 89.9946 61.5929C90.0078 61.6195 90.0078 61.6594 90.021 61.6861C90.0474 61.8326 90.087 61.9924 90.1134 62.1389C90.1134 62.1655 90.1266 62.1788 90.1266 62.2054C90.153 62.3253 90.1794 62.4585 90.1926 62.5783C90.2058 62.6316 90.2058 62.6716 90.219 62.7248C90.2322 62.8314 90.2586 62.9246 90.2718 63.0311C90.285 63.0844 90.285 63.1376 90.2982 63.1909C90.3114 63.2841 90.3246 63.3907 90.3378 63.4839C90.351 63.5372 90.351 63.5904 90.3642 63.657C90.3774 63.7636 90.3906 63.8568 90.4038 63.9633C90.417 64.0166 90.417 64.0699 90.4302 64.1231C90.4434 64.243 90.4566 64.3761 90.4698 64.496C90.4698 64.5226 90.4698 64.5493 90.483 64.5759C90.4962 64.7224 90.5094 64.8822 90.5226 65.042C90.5226 65.082 90.5359 65.1219 90.5359 65.1752C90.5491 65.2817 90.5491 65.4016 90.5623 65.5081C90.5623 65.5614 90.5755 65.6147 90.5755 65.6812C90.5755 65.7745 90.5887 65.881 90.5887 65.9742C90.5887 66.0275 90.5887 66.0941 90.6019 66.1473C90.6019 66.2406 90.6151 66.3471 90.6151 66.4403C90.6151 66.4936 90.6151 66.5602 90.6151 66.6134C90.6151 66.72 90.6151 66.8265 90.6151 66.9331C90.6151 66.9863 90.6151 67.0396 90.6151 67.0795C90.6151 67.2393 90.6151 67.3858 90.6151 67.5456C90.6151 67.6255 90.6151 67.7188 90.6151 67.812C90.6151 67.8386 90.6151 67.8519 90.6151 67.8786C90.6151 67.9718 90.6151 68.065 90.6151 68.1582C90.6151 68.1716 90.6151 68.1715 90.6151 68.1849C90.6151 68.2781 90.6151 68.3713 90.6151 68.4645C90.6151 68.4912 90.6151 68.5178 90.6151 68.5311C90.6151 68.6376 90.6151 68.7442 90.6151 68.8507C90.6151 68.864 90.6151 68.8774 90.6151 68.8907C90.6151 68.9972 90.6151 69.0904 90.6151 69.197C90.6151 69.2236 90.6151 69.2502 90.6151 69.2769C90.6151 69.3967 90.6151 69.5166 90.6151 69.6364C90.6151 69.6498 90.6151 69.6764 90.6151 69.6897C90.6151 69.7962 90.6151 69.9028 90.6151 70.0226C90.6151 70.0493 90.6151 70.0759 90.6151 70.1025C90.6151 70.2357 90.6151 70.3556 90.6151 70.4887C90.6151 70.5154 90.6151 70.5287 90.6151 70.5553C90.6151 70.6752 90.6151 70.795 90.6151 70.9149C90.6151 70.9415 90.6151 70.9682 90.6151 70.9948C90.6151 71.128 90.6151 71.2611 90.6151 71.4076C90.6151 71.4343 90.6151 71.4742 90.6151 71.5008C90.6151 71.634 90.6151 71.7539 90.6151 71.887C90.6151 71.9137 90.6151 71.927 90.6151 71.9536C90.6151 72.1001 90.6151 72.2466 90.6151 72.4064C90.6151 72.4464 90.6151 72.473 90.6151 72.513C90.6151 72.6461 90.6151 72.7926 90.6151 72.9391C90.6151 72.9524 90.6151 72.9791 90.6151 72.9924C90.6151 73.1522 90.6151 73.312 90.6151 73.4718C90.6151 73.5117 90.6151 73.5384 90.6151 73.5783C90.6151 73.7381 90.6151 73.8979 90.6151 74.0711C90.6151 74.2309 90.6151 74.404 90.6151 74.5771C90.6151 74.6171 90.6151 74.657 90.6151 74.697C90.6151 75.0432 90.6283 75.3895 90.6283 75.7357C90.6283 75.7757 90.6283 75.8156 90.6283 75.8556C90.6283 76.0287 90.6283 76.2018 90.6283 76.3749C90.6283 76.4016 90.6283 76.4282 90.6283 76.4415C90.6283 76.6013 90.6283 76.7745 90.6283 76.9343C90.6283 76.9742 90.6283 77.0008 90.6283 77.0408C90.6283 77.2272 90.6283 77.4137 90.6415 77.6134C90.6415 77.6268 90.6415 77.6401 90.6415 77.6401C90.6415 77.8132 90.6415 77.9996 90.6547 78.1728C90.6547 78.2127 90.6547 78.2527 90.6547 78.2926C90.6547 78.4791 90.6547 78.6655 90.6679 78.8519C90.6679 78.8919 90.6679 78.9185 90.6679 78.9585C90.6679 79.1183 90.6679 79.2914 90.6811 79.4512C90.6811 79.4912 90.6811 79.5311 90.6811 79.5711C90.6811 79.7708 90.6811 79.9573 90.6943 80.157C90.6943 80.1837 90.6943 80.2103 90.6943 80.2502C90.6943 80.4234 90.6943 80.6098 90.7075 80.7829C90.7075 80.8229 90.7075 80.8495 90.7075 80.8895C90.7075 81.0892 90.7075 81.2757 90.7207 81.4754C90.7207 81.5154 90.7207 81.5553 90.7207 81.5953C90.7207 81.7817 90.7207 81.9682 90.7339 82.1546C90.7339 82.1812 90.7339 82.1946 90.7339 82.2212C90.7339 82.4209 90.7471 82.634 90.7471 82.8338C90.7471 82.8737 90.7471 82.9137 90.7471 82.9536C90.7471 83.1268 90.7471 83.3132 90.7603 83.4863C90.7603 83.513 90.7603 83.5529 90.7603 83.5795C90.7603 83.7926 90.7735 84.0057 90.7735 84.2054C90.7735 84.2321 90.7735 84.2587 90.7735 84.2854C90.9979 96.4306 91.3675 110.121 91.3675 110.121L80.9913 109.934Z" fill="#FF8D7E"/>
<path fill-rule="evenodd" clip-rule="evenodd" d="M101.889 51.2588C100.292 50.5929 98.5491 50.3665 97.1629 50.1401C97.4666 51.7915 97.5458 53.2297 97.5062 54.2019C97.2025 61.22 94.1002 63.9367 93.4534 66.5203C101.823 63.4041 102.47 55.174 101.889 51.2588Z" fill="#2E186A"/>
<path fill-rule="evenodd" clip-rule="evenodd" d="M53.7966 55.3872C51.6315 56.346 48.648 57.6644 46.1266 61.5397C49.6645 60.0749 61.823 71.0482 70.4434 68.5579C66.4434 68.1451 57.7305 62.3388 53.7966 55.3872Z" fill="#2E186A"/>
<path fill-rule="evenodd" clip-rule="evenodd" d="M73.0002 68.6901C73.2549 68.5667 73.5589 68.6676 73.6925 68.9152L73.7202 68.9719L73.8274 69.2016L73.9251 69.4142C74.0855 69.765 74.2627 70.1614 74.4528 70.5976L74.5006 70.7075C75.0954 72.0775 75.6901 73.5444 76.2455 75.0501C76.8217 76.6125 77.3225 78.1289 77.726 79.5675C78.2471 81.4254 78.5924 83.1052 78.7315 84.5673C78.7593 84.8602 78.5466 85.1204 78.2563 85.1485C77.966 85.1766 77.708 84.9619 77.6802 84.6691C77.5479 83.2785 77.215 81.6587 76.7098 79.8576C76.3146 78.4486 75.8226 76.9588 75.2556 75.4216C74.7078 73.9362 74.1205 72.4875 73.5332 71.1348L73.3934 70.8147C73.2408 70.4673 73.0976 70.1481 72.9661 69.8604L72.8279 69.5606L72.753 69.401C72.6267 69.1358 72.7374 68.8175 73.0002 68.6901Z" fill="#2E186A"/>
<path fill-rule="evenodd" clip-rule="evenodd" d="M92.5472 66.9207C92.8295 66.9375 93.0469 67.1751 93.0441 67.4573L93.0313 67.717C93.0223 67.9098 93.0132 68.1335 93.0048 68.3855C92.9073 71.2877 92.9705 74.535 93.3132 77.5955C93.5138 79.3877 93.8019 80.995 94.186 82.3696C94.2652 82.6528 94.1018 82.947 93.8211 83.0269C93.5404 83.1067 93.2487 82.9419 93.1695 82.6587C92.7682 81.2228 92.4703 79.5605 92.2637 77.7151C91.9238 74.6788 91.8539 71.4771 91.9416 68.5893L91.9551 68.1824C91.961 68.0197 91.9671 67.8698 91.9733 67.7336L91.9889 67.421C92.0056 67.1362 92.2412 66.917 92.5209 66.9198L92.5472 66.9207Z" fill="#2E186A"/>
<path fill-rule="evenodd" clip-rule="evenodd" d="M106.998 52.1315C107.155 51.9774 107.406 51.9803 107.558 52.1382C107.647 52.2294 107.706 52.346 107.762 52.5065L107.781 52.5655C107.821 52.688 107.86 52.8386 107.906 53.0372L107.963 53.2906C108.014 53.5291 108.119 54.0217 108.143 54.1329C108.342 55.0495 108.523 55.7525 108.759 56.4465C109.627 58.9963 110.933 60.4005 112.959 60.3678C113.177 60.3642 113.357 60.5402 113.361 60.7608C113.364 60.9814 113.19 61.1631 112.971 61.1667C110.521 61.2063 108.976 59.5454 108.01 56.7058C107.773 56.0076 107.59 55.3085 107.395 54.4205L107.169 53.3699L107.137 53.2266C107.089 53.0178 107.05 52.8731 107.014 52.7719C107.004 52.7409 106.994 52.7159 106.985 52.6973L106.979 52.6845C106.977 52.68 106.979 52.6834 106.992 52.6965C106.839 52.5387 106.842 52.2857 106.998 52.1315Z" fill="#2E186A"/>
<path fill-rule="evenodd" clip-rule="evenodd" d="M99.4071 86.2031L89.7437 88.2007L89.1497 78.3459" fill="white"/>
<path fill-rule="evenodd" clip-rule="evenodd" d="M89.1256 77.947C89.3361 77.9341 89.5182 78.0896 89.5429 78.2982L89.545 78.3216L90.1112 87.7167L99.3276 85.8116C99.5342 85.7689 99.7362 85.8969 99.7897 86.0999L99.7951 86.1228C99.8374 86.3312 99.7105 86.535 99.5092 86.589L99.4866 86.5943L89.8232 88.5919C89.5948 88.6391 89.3775 88.4783 89.3505 88.248L89.3484 88.2248L88.7543 78.3701C88.7411 78.1498 88.9073 77.9604 89.1256 77.947Z" fill="#2E186A"/>
<path fill-rule="evenodd" clip-rule="evenodd" d="M96.1992 85.3641C96.0672 86.7225 95.2751 89.5857 96.3048 91.4767C96.8064 92.3956 97.0573 94.26 97.0573 94.26L103.143 95.8048C103.658 97.8024 104.793 101.651 105.651 101.598C106.866 101.518 106.219 93.8472 106.047 91.49C105.968 90.2782 105.123 86.4029 104.437 84.4319C103.539 81.8617 99.4599 74.0312 91.1431 76.8944L85.1365 78.3726" fill="white"/>
<path fill-rule="evenodd" clip-rule="evenodd" d="M91.1309 76.477C94.9435 75.2023 98.1943 75.9908 100.833 78.3252C102.698 79.9747 104.114 82.304 104.81 84.2994L104.854 84.4276C105.503 86.3494 106.338 90.0768 106.439 91.416L106.525 92.5699C106.547 92.8813 106.567 93.1645 106.587 93.452L106.611 93.8175C106.665 94.6612 106.706 95.4433 106.734 96.1888L106.742 96.4284C106.789 97.8523 106.777 99.0311 106.694 99.9233L106.682 100.045C106.554 101.282 106.297 101.956 105.676 101.996C105.008 102.038 104.502 101.21 103.898 99.6126C103.542 98.6705 103.185 97.5061 102.871 96.3292L102.819 96.1346L96.9606 94.6474C96.812 94.6097 96.699 94.4891 96.6691 94.339L96.6648 94.3137L96.6452 94.1801L96.6273 94.067C96.6146 93.9889 96.6004 93.9056 96.5848 93.8181C96.5176 93.4438 96.4371 93.0698 96.3438 92.723C96.2317 92.3065 96.109 91.9601 95.9804 91.7118L95.9577 91.669C95.5504 90.921 95.3797 90.0154 95.3882 88.9474C95.3935 88.2843 95.4606 87.6335 95.5936 86.7606L95.726 85.9187L95.7562 85.7167C95.7786 85.5612 95.7943 85.4357 95.805 85.3251C95.8264 85.1055 96.0202 84.9449 96.2378 84.9665C96.4555 84.988 96.6147 85.1835 96.5933 85.4031L96.5855 85.4788C96.5743 85.5821 96.5596 85.6954 96.5406 85.8276L96.4932 86.1402C96.4632 86.3309 96.4074 86.6818 96.3918 86.7823L96.3623 86.9759C96.2441 87.7664 96.185 88.3606 96.1803 88.9538C96.173 89.8672 96.3101 90.6244 96.6211 91.2262L96.6517 91.2839C96.8243 91.6001 96.9745 92.0167 97.1082 92.5137C97.2081 92.8851 97.2933 93.2806 97.3642 93.6758C97.3766 93.7449 97.3881 93.8115 97.3987 93.8752L97.4088 93.9372L103.24 95.4173C103.372 95.4508 103.477 95.5503 103.519 95.6796L103.526 95.7042C103.859 96.9965 104.252 98.3048 104.639 99.328L104.697 99.4815C104.912 100.034 105.118 100.477 105.307 100.786C105.402 100.941 105.49 101.058 105.565 101.132L105.591 101.156L105.611 101.173L105.62 101.157C105.642 101.121 105.666 101.071 105.689 101.009L105.701 100.977C105.789 100.726 105.859 100.343 105.905 99.848C105.989 98.9485 105.997 97.7179 105.942 96.2184L105.93 95.8999C105.903 95.2582 105.866 94.5862 105.82 93.8688L105.796 93.5062C105.782 93.2917 105.767 93.0796 105.751 92.8561L105.646 91.43C105.532 90.0951 104.689 86.36 104.063 84.5646C103.408 82.6896 102.063 80.4757 100.311 78.926C97.851 76.7499 94.8546 76.0388 91.271 77.2724L91.2541 77.2778L91.237 77.2825L85.2304 78.7607C85.0179 78.813 84.8036 78.6816 84.7517 78.4672C84.7017 78.2605 84.8211 78.0522 85.0202 77.9906L85.0426 77.9844L91.0327 76.5101L91.1309 76.477Z" fill="#2E186A"/>
<path fill-rule="evenodd" clip-rule="evenodd" d="M104.252 91.3569C104.252 91.3569 103.605 96.9235 101.757 97.3497C99.9088 97.7758 99.8032 96.2044 99.8032 96.2044" fill="white"/>
<path fill-rule="evenodd" clip-rule="evenodd" d="M104.298 90.96C104.508 90.9848 104.66 91.1702 104.647 91.38L104.644 91.4126L104.636 91.4753C104.629 91.5321 104.62 91.5977 104.61 91.6714L104.587 91.833C104.562 91.9989 104.534 92.1772 104.501 92.3656C104.378 93.0839 104.222 93.8027 104.03 94.4762L103.988 94.6228C103.468 96.3886 102.799 97.5191 101.845 97.739C100.791 97.9822 100.057 97.6797 99.6644 97.0187C99.5635 96.8484 99.4948 96.6689 99.4513 96.4896C99.4247 96.38 99.412 96.291 99.408 96.2313C99.3932 96.0112 99.5581 95.8206 99.7764 95.8057C99.9868 95.7913 100.17 95.9455 100.196 96.1539L100.198 96.1773C100.199 96.1937 100.206 96.238 100.221 96.2998C100.246 96.4061 100.287 96.5122 100.344 96.6085C100.557 96.9681 100.944 97.1272 101.669 96.9601C102.25 96.826 102.822 95.8266 103.269 94.256C103.452 93.6129 103.602 92.9211 103.721 92.2288L103.751 92.0503C103.775 91.9044 103.796 91.7659 103.815 91.6362L103.837 91.479L103.859 91.3103C103.884 91.0912 104.081 90.9343 104.298 90.96Z" fill="#2E186A"/>
<path fill-rule="evenodd" clip-rule="evenodd" d="M102.034 91.157C102.034 91.157 101.044 96.0577 99.1695 96.3507C97.2949 96.6437 97.2949 95.0722 97.2949 95.0722" fill="white"/>
<path fill-rule="evenodd" clip-rule="evenodd" d="M102.113 90.7655C102.328 90.8095 102.466 91.0205 102.422 91.2367L102.409 91.3C102.398 91.3495 102.386 91.4066 102.371 91.4707C102.329 91.653 102.279 91.8558 102.221 92.074C102.055 92.6981 101.858 93.3225 101.628 93.9078L101.571 94.0488C100.94 95.6059 100.191 96.5953 99.2301 96.7454C98.1898 96.908 97.4852 96.5783 97.1273 95.9222C97.0266 95.7377 96.963 95.5435 96.9278 95.3497C96.9063 95.2317 96.8989 95.1361 96.8989 95.0722C96.8989 94.8515 97.0762 94.6727 97.2949 94.6727C97.5058 94.6727 97.6782 94.839 97.6903 95.0487L97.6916 95.0887C97.693 95.1128 97.6974 95.1535 97.7069 95.2055C97.7277 95.32 97.765 95.4339 97.8212 95.537C98.0151 95.8923 98.3907 96.0681 99.1089 95.9558C99.7161 95.8609 100.347 94.9986 100.891 93.6134C101.109 93.0596 101.298 92.4636 101.456 91.8672L101.496 91.7133C101.529 91.5876 101.558 91.4683 101.584 91.3567L101.615 91.2215L101.646 91.0771C101.69 90.8609 101.899 90.7214 102.113 90.7655Z" fill="#2E186A"/>
<path fill-rule="evenodd" clip-rule="evenodd" d="M99.3015 90.8641C99.3015 90.8641 98.0077 96.737 95.9351 94.513C93.8625 92.289 94.0737 91.1437 94.0737 91.1437C94.0737 91.1437 95.077 89.5324 96.6744 92.1026" fill="white"/>
<path fill-rule="evenodd" clip-rule="evenodd" d="M94.0424 90.5891C94.8706 89.884 95.9468 90.1797 97.01 91.8904C97.1262 92.0774 97.0701 92.3239 96.8848 92.4411C96.6995 92.5583 96.4551 92.5018 96.3389 92.3148C95.8624 91.5481 95.4397 91.1624 95.0922 91.0669C94.8854 91.0101 94.713 91.0638 94.5533 91.1998C94.5234 91.2252 94.4974 91.2505 94.4757 91.2737L94.4648 91.2855L94.4657 91.3007C94.4675 91.3252 94.4704 91.353 94.4747 91.3841L94.4795 91.4163C94.505 91.5773 94.5595 91.7685 94.651 91.9901C94.9113 92.6206 95.4147 93.3713 96.2237 94.2394C96.6415 94.6876 96.939 94.7153 97.2783 94.4367C97.6246 94.1524 97.9715 93.571 98.287 92.7893C98.4643 92.3503 98.6206 91.8772 98.7538 91.4037L98.7923 91.2646C98.8169 91.1739 98.8395 91.0875 98.86 91.0061L98.8914 90.8785L98.9149 90.7775C98.9624 90.5621 99.1739 90.4263 99.3874 90.4741C99.5933 90.5203 99.7259 90.7204 99.6925 90.9277L99.6866 90.9575L99.6613 91.0661C99.6558 91.0889 99.6499 91.1132 99.6436 91.1389L99.6111 91.268C99.5827 91.3787 99.5509 91.4972 99.5158 91.622C99.3752 92.1216 99.21 92.6216 99.0206 93.0907C98.6589 93.9867 98.2534 94.6663 97.7784 95.0564C97.1098 95.6054 96.3432 95.5341 95.6466 94.7867C94.7756 93.852 94.219 93.0221 93.9198 92.2973C93.7207 91.815 93.6559 91.4346 93.674 91.1622L93.6764 91.1313C93.6787 91.1069 93.6815 91.0867 93.6844 91.0707C93.6936 91.0212 93.7119 90.9739 93.7384 90.9313C93.7973 90.8368 93.8975 90.7125 94.0424 90.5891Z" fill="#2E186A"/>
<path fill-rule="evenodd" clip-rule="evenodd" d="M60.1992 79.5179C66.6283 78.2261 79.4731 75.4961 80.5292 75.5494C83.4599 75.6692 86.7207 76.2418 87.6712 76.3484C89.8758 76.6014 90.8263 76.668 90.8263 76.668C89.2553 81.5421 93.5193 88.2273 93.5193 88.2273C93.5193 88.2273 92.8857 88.5602 90.9055 89.4392C88.9253 90.3181 90.0078 94.1934 87.2355 95.0191C86.1266 95.352 64.8725 106.472 59.3807 107.604" fill="#FF8D7E"/>
<path fill-rule="evenodd" clip-rule="evenodd" d="M89.4402 91.3303C84.7669 87.5083 83.1959 77.8933 85.1629 75.7892C85.2421 75.1233 86.7603 76.2419 87.6712 76.3485C89.8758 76.6015 90.8263 76.6681 90.8263 76.6681C89.9286 79.4381 90.9319 82.794 91.9484 85.1778C92.5425 86.6027 93.1629 87.7214 93.4666 88.2407C93.2949 88.334 92.5821 88.6802 90.8923 89.426C89.9286 89.8654 89.7306 90.5979 89.4402 91.3303Z" fill="#2E186A"/>
<path fill-rule="evenodd" clip-rule="evenodd" d="M52.3908 76.5021C53.8067 76.026 55.6868 75.7462 57.3389 75.8973C59.6291 76.1068 61.3532 77.0976 62.186 79.0254C62.2734 79.2277 62.1817 79.4631 61.9812 79.5513C61.7807 79.6394 61.5473 79.5469 61.4599 79.3446C60.7577 77.7193 59.2947 76.8785 57.2674 76.6931C55.7333 76.5528 53.9601 76.8167 52.6413 77.2602C52.4338 77.3299 52.2095 77.2168 52.1403 77.0075C52.0711 76.7982 52.1833 76.5719 52.3908 76.5021Z" fill="#2E186A"/>
<path fill-rule="evenodd" clip-rule="evenodd" d="M69.5348 77.0846C79.7583 75.0467 85.899 74.4681 86.9325 76.0485C86.9404 76.0606 86.9476 76.0731 86.9542 76.086L86.9635 76.1056L91.8216 87.0789C91.8686 87.1853 91.8672 87.3066 91.8186 87.4113L91.8038 87.4402L91.7173 87.6007L91.6537 87.7202C91.5992 87.8232 91.5407 87.9348 91.4791 88.0538C91.2325 88.53 90.9859 89.0271 90.7561 89.5196C90.6399 89.7686 90.5308 90.0105 90.4301 90.2434C90.0484 91.1261 89.8058 91.8364 89.7457 92.2854L89.7411 92.3222C89.5374 94.0768 88.8971 94.7813 85.7757 96.4184L83.5913 97.562L82.8776 97.9336C82.0526 98.3618 81.2487 98.7742 80.4058 99.2003C77.4317 100.704 74.4631 102.129 71.4566 103.469C68.1731 104.933 65.0086 106.222 62.0025 107.297C57.8437 108.784 54.0932 109.824 50.8352 110.342C50.6192 110.377 50.4164 110.228 50.3823 110.01C50.3482 109.792 50.4957 109.587 50.7118 109.553C53.9156 109.043 57.6214 108.015 61.7378 106.544C64.7237 105.476 67.87 104.195 71.1364 102.738C74.1302 101.403 77.0875 99.9841 80.0509 98.486C80.8912 98.0612 81.6927 97.65 82.5154 97.223L85.4892 95.6681C88.2681 94.2079 88.769 93.675 88.9437 92.3166L88.9543 92.2297C89.0173 91.6823 89.282 90.9 89.7041 89.9239C89.808 89.6838 89.9202 89.4349 90.0395 89.1793C90.2744 88.6759 90.5257 88.1692 90.777 87.6839L90.8865 87.4738L91.0184 87.2244L86.2557 76.4667L86.2486 76.4572C85.854 75.9634 83.9663 75.8102 80.9527 76.0811L80.7658 76.0983C77.9075 76.3676 74.1407 76.9809 69.6883 77.8685C68.1627 78.1726 66.5759 78.5051 64.9421 78.8617C62.1864 79.4631 59.4206 80.105 56.7644 80.7492L55.9434 80.9493C55.141 81.1458 54.4001 81.3299 53.7313 81.4984L53.2822 81.6119L52.6146 81.7826C52.4027 81.8375 52.1869 81.7087 52.1325 81.495C52.08 81.289 52.1968 81.0791 52.3951 81.0152L52.4255 81.0066L53.4062 80.7567L54.2335 80.5492C54.7595 80.4179 55.3225 80.2789 55.9182 80.1333L56.0815 80.0934C58.8945 79.4073 61.8399 78.7212 64.7746 78.0807C66.4129 77.7232 68.0043 77.3896 69.5348 77.0846Z" fill="#2E186A"/>
<path fill-rule="evenodd" clip-rule="evenodd" d="M86.5094 48.7684L72.0804 49.421L70.9319 43.6679L66.4566 38.634C66.4566 38.634 66.2586 44.3871 66.1134 49.128C66.8791 51.3386 68.6481 54.3883 70.7471 57.7975C74.0738 59.5687 78.219 61.7926 83.7768 65.6679C85.2553 63.2042 86.6019 54.4149 86.5094 48.7684Z" fill="white"/>
<path fill-rule="evenodd" clip-rule="evenodd" d="M66.0609 38.6202L65.9837 40.8937C65.949 41.9264 65.9143 42.9706 65.8804 44.0039L65.7596 47.7606C65.7449 48.2289 65.7309 48.6811 65.7176 49.1157C65.7161 49.1647 65.7235 49.2136 65.7396 49.2598L65.7818 49.38C66.486 51.3547 67.8909 53.9157 70.4107 58.0083C70.4478 58.0686 70.5001 58.1178 70.5623 58.1509L71.2714 58.5296C76.0908 61.1117 79.1887 62.9545 83.5516 65.9966C83.7393 66.1275 83.9975 66.0718 84.1156 65.8749C85.6088 63.3867 87.0013 54.6177 86.9055 48.7619L86.9044 48.7388C86.8888 48.5248 86.707 48.3596 86.4918 48.3694L72.4016 49.0066L71.3202 43.5891C71.3062 43.5192 71.274 43.4543 71.2268 43.4013L66.7515 38.3674C66.5134 38.0996 66.0733 38.2607 66.0609 38.6202ZM66.8185 39.6394L70.5649 43.8536L71.6922 49.4999L71.6975 49.5228C71.7446 49.7037 71.9109 49.8286 72.0982 49.8201L86.1175 49.186L86.118 49.2973C86.1244 54.7114 84.9269 62.3646 83.6472 65.0657L83.6374 65.0859L83.5306 65.0119C79.3327 62.1075 76.2404 60.2832 71.4775 57.7353L71.0268 57.4947L70.7199 56.994C68.4817 53.3324 67.2002 50.9698 66.5484 49.1687L66.5116 49.0656L66.6057 46.0753L66.6891 43.513L66.8185 39.6394Z" fill="#2E186A"/>
<path fill-rule="evenodd" clip-rule="evenodd" d="M64.9121 31.9355C64.9121 31.9355 59.8428 32.0288 60.7405 36.6099C61.6514 41.191 67.2619 38.5409 67.2619 38.5409L66.5094 32.0288L64.9121 31.9355Z" fill="white"/>
<path fill-rule="evenodd" clip-rule="evenodd" d="M64.935 31.5366C64.925 31.536 64.9149 31.5358 64.9049 31.536L64.851 31.5375C64.6975 31.5435 64.4671 31.5639 64.1826 31.6086C63.6505 31.6923 63.1177 31.8353 62.6162 32.0534C60.8251 32.8325 59.8936 34.3479 60.352 36.6872C60.7595 38.7369 62.0752 39.6767 63.9337 39.7022C64.7167 39.7129 65.5442 39.5616 66.3677 39.3035C66.6097 39.2276 66.8364 39.147 67.0437 39.0656L67.1314 39.0307C67.2713 38.9742 67.3729 38.9295 67.4299 38.9025C67.5842 38.8296 67.6751 38.6653 67.6553 38.4945L66.9028 31.9824C66.8806 31.7897 66.7243 31.641 66.5323 31.6298L64.935 31.5366ZM64.9067 32.335L66.1546 32.4078L66.8342 38.2898L66.8369 38.2888C66.6251 38.3743 66.3882 38.4601 66.1327 38.5402C65.3823 38.7754 64.633 38.9125 63.9445 38.903C62.4367 38.8823 61.4572 38.1828 61.1288 36.531C60.7479 34.5872 61.4621 33.4254 62.9298 32.787C63.3642 32.598 63.8341 32.4719 64.3046 32.3979C64.4696 32.372 64.6224 32.3545 64.7588 32.3439L64.85 32.3376L64.9067 32.335Z" fill="#2E186A"/>
<path fill-rule="evenodd" clip-rule="evenodd" d="M79.3676 17.4997C80.7009 17.3932 89.8626 16.8072 90.8659 24.5179C91.8692 32.2286 90.7867 40.7382 89.9418 44.6269C89.0969 48.5155 71.5524 46.7177 70.5623 46.3714C69.5722 46.0252 68.3841 44.8533 68.3841 44.8533L65.9814 33.0143C65.9814 33.001 64.9913 18.6983 79.3676 17.4997Z" fill="white"/>
<path fill-rule="evenodd" clip-rule="evenodd" d="M65.5823 32.9687L65.5854 33.0142C65.5854 33.0411 65.5881 33.0679 65.5934 33.0943L67.9961 44.9333C68.0119 45.0114 68.0506 45.083 68.1072 45.1388L68.1858 45.2142L68.263 45.2863C68.3036 45.3237 68.3472 45.3632 68.3934 45.4045C68.6131 45.6006 68.8496 45.7967 69.0947 45.9805C69.3865 46.1993 69.6716 46.3861 69.9452 46.5316C70.1135 46.6211 70.276 46.694 70.4326 46.7488C71.2272 47.0267 76.318 47.472 80.189 47.4863L80.3059 47.4866C86.2045 47.4951 89.892 46.7223 90.3287 44.7123L90.378 44.4815C90.853 42.2228 91.2721 39.1699 91.492 36.0337C91.7759 31.9839 91.7222 28.0287 91.2586 24.4658C90.793 20.8879 88.6359 18.7163 85.3573 17.6955C84.1717 17.3264 82.9022 17.1297 81.6043 17.0679C80.7343 17.0265 80.0059 17.0479 79.3363 17.1014C73.134 17.6184 69.203 20.5317 67.1352 25.0495C66.4165 26.6199 65.9692 28.2952 65.7407 29.9922C65.5927 31.0915 65.5532 32.0515 65.5759 32.8012L65.5784 32.8754C65.5796 32.9096 65.581 32.9407 65.5823 32.9687ZM81.5669 17.866C82.8027 17.9249 84.0079 18.1116 85.1237 18.459C88.1278 19.3943 90.0519 21.3314 90.4733 24.5698C90.9293 28.0747 90.9823 31.9775 90.7019 35.9773C90.4771 39.1839 90.0417 42.3009 89.555 44.5412C89.2472 45.958 85.7286 46.6954 80.3071 46.6876L80.0777 46.6867C76.306 46.6643 71.3704 46.2311 70.692 45.9938C70.5758 45.9532 70.4493 45.8964 70.3145 45.8247C70.0807 45.7005 69.8286 45.5352 69.5672 45.3392C69.3416 45.1701 69.1222 44.988 68.9182 44.806L68.8362 44.732L68.747 44.6495L66.375 32.9597L66.37 32.846C66.3438 32.1292 66.3792 31.187 66.5256 30.0997C66.7442 28.4768 67.1712 26.8771 67.8544 25.3845C69.8054 21.1218 73.491 18.3904 79.4002 17.8978C80.0378 17.8468 80.7343 17.8264 81.5669 17.866Z" fill="#2E186A"/>
<path fill-rule="evenodd" clip-rule="evenodd" d="M67.6448 32.9077C68.4896 33.76 70.7603 38.6607 71.3147 40.938C71.3147 40.938 76.9385 39.0203 85.0045 38.9005C85.0045 38.9005 89.4005 38.9937 91.1563 39.513C91.1563 39.513 90.7735 47.5966 87.2091 51.7915C83.6448 55.9731 76.12 54.8012 72.582 52.2842C69.0441 49.7673 68.4632 48.5687 67.6448 45.8653C66.8263 43.162 64.6613 33.1208 64.6613 33.1208L67.6448 32.9077Z" fill="#968BB4"/>
<path fill-rule="evenodd" clip-rule="evenodd" d="M82.483 45.8918C82.483 45.8918 84.6348 45.4524 85.5193 46.3313L82.483 45.8918Z" fill="white"/>
<path fill-rule="evenodd" clip-rule="evenodd" d="M82.7834 45.4406C83.2623 45.3796 83.7581 45.3608 84.2288 45.4106C84.8857 45.48 85.4244 45.6763 85.7973 46.0468C85.9531 46.2016 85.955 46.4546 85.8015 46.6118C85.648 46.7689 85.3972 46.7709 85.2414 46.616C85.0193 46.3953 84.6412 46.2575 84.1463 46.2053C83.7445 46.1628 83.3062 46.1794 82.8827 46.2334C82.8117 46.2424 82.746 46.2519 82.6865 46.2615L82.5792 46.2801C82.5717 46.2815 82.5658 46.2826 82.5616 46.2835C82.3472 46.3273 82.1383 46.1875 82.0949 45.9712C82.0515 45.7549 82.1901 45.5441 82.4044 45.5004L82.49 45.4843C82.5651 45.4711 82.6644 45.4558 82.7834 45.4406Z" fill="#2E186A"/>
<path fill-rule="evenodd" clip-rule="evenodd" d="M65.3478 34.6389C65.3478 34.6389 62.9583 30.9101 62.0474 27.0481C61.1761 23.4125 62.8527 19.6038 66.1926 17.9658C68.9913 16.6074 71.0639 17.6728 71.0639 17.6728C71.0639 17.6728 68.0936 12.5856 72.5425 8.08442C74.1134 6.49967 76.2785 5.62074 78.4963 5.68733C83.922 5.84713 85.6118 10.4815 85.6118 10.4815C85.6118 10.4815 91.4204 -0.292094 103.341 6.08684C104.542 6.72607 105.902 8.52389 106.549 9.73575C110.483 17.0602 97.5062 25.7297 90.7603 26.4089C83.3412 27.168 78.9979 25.9161 76.6085 24.0917C78.3775 25.1571 76.3841 36.3568 65.3478 34.6389Z" fill="#2E186A"/>
<path fill-rule="evenodd" clip-rule="evenodd" d="M85.1844 35.3871C85.394 35.3632 85.5838 35.5089 85.6192 35.7159L85.6225 35.7391L86.4145 42.7972C86.4449 43.0678 86.2048 43.2866 85.9444 43.2342L85.9221 43.229L83.4666 42.5898C83.2548 42.5347 83.1274 42.3168 83.1821 42.1031C83.2348 41.8971 83.4375 41.7703 83.6418 41.8109L83.6645 41.8161L85.5628 42.3103L84.8354 35.829C84.8117 35.6176 84.9561 35.4261 85.1613 35.3904L85.1844 35.3871Z" fill="#2E186A"/>
<path fill-rule="evenodd" clip-rule="evenodd" d="M87.8032 37.7019C88.1969 37.7019 88.5161 37.2011 88.5161 36.5832C88.5161 35.9654 88.1969 35.4646 87.8032 35.4646C87.4095 35.4646 87.0903 35.9654 87.0903 36.5832C87.0903 37.2011 87.4095 37.7019 87.8032 37.7019Z" fill="#2E186A"/>
<path fill-rule="evenodd" clip-rule="evenodd" d="M80.9121 37.5686C81.3058 37.5686 81.625 37.0678 81.625 36.4499C81.625 35.8321 81.3058 35.3313 80.9121 35.3313C80.5184 35.3313 80.1992 35.8321 80.1992 36.4499C80.1992 37.0678 80.5184 37.5686 80.9121 37.5686Z" fill="#2E186A"/>
<path fill-rule="evenodd" clip-rule="evenodd" d="M78.2296 29.6554C78.9828 29.0989 79.9028 28.8225 80.9706 28.9834C81.1869 29.016 81.3361 29.2193 81.3038 29.4376C81.2715 29.6558 81.0699 29.8063 80.8536 29.7737C80.007 29.6461 79.2919 29.8609 78.6977 30.3C78.5302 30.4238 78.3859 30.5563 78.2659 30.6878L78.2273 30.731C78.1917 30.7716 78.1654 30.8042 78.1484 30.8267L78.1345 30.8458C78.0093 31.0267 77.7624 31.0709 77.583 30.9446C77.4037 30.8183 77.3598 30.5692 77.4851 30.3883C77.5225 30.3343 77.5885 30.2504 77.6831 30.1467C77.8365 29.9785 78.0186 29.8114 78.2296 29.6554Z" fill="#2E186A"/>
<path fill-rule="evenodd" clip-rule="evenodd" d="M87.6235 28.8382C88.0305 28.7739 88.4627 28.7718 88.8795 28.8758C89.5827 29.0511 90.1116 29.5054 90.3466 30.2727C90.4112 30.4836 90.2941 30.7073 90.0851 30.7724C89.8761 30.8375 89.6544 30.7194 89.5898 30.5086C89.4417 30.0252 89.1364 29.7629 88.6894 29.6515C88.3899 29.5768 88.0577 29.5784 87.746 29.6276L87.6967 29.6358C87.6588 29.6425 87.6285 29.6487 87.6072 29.6535L87.586 29.6587C87.3743 29.7142 87.1581 29.5861 87.103 29.3726C87.048 29.159 87.175 28.9409 87.3867 28.8854C87.4361 28.8724 87.517 28.855 87.6235 28.8382Z" fill="#2E186A"/>
<path fill-rule="evenodd" clip-rule="evenodd" d="M105.084 20.2964L107.315 29.3521L117.11 26.4223" fill="white"/>
<path fill-rule="evenodd" clip-rule="evenodd" d="M104.988 19.9086C105.193 19.8573 105.4 19.9768 105.462 20.1774L105.468 20.2L107.599 28.8501L116.998 26.0392C117.2 25.9787 117.412 26.0888 117.483 26.2864L117.49 26.3087C117.55 26.5127 117.441 26.7267 117.245 26.798L117.223 26.8053L107.427 29.7351C107.218 29.7975 107 29.6781 106.937 29.4709L106.93 29.4484L104.699 20.3927C104.647 20.1786 104.776 19.9618 104.988 19.9086Z" fill="#2E186A"/>
<path fill-rule="evenodd" clip-rule="evenodd" d="M108.226 21.0022C107.117 21.7346 102.972 23.7189 100.886 23.6656C99.8692 23.639 98.153 24.2782 98.153 24.2782L94.0738 19.6704C92.1332 20.1232 88.318 20.869 87.9748 20.0966C87.4864 19.0046 94.351 16.1014 96.4501 15.1826C97.5194 14.7031 101.229 13.6777 103.236 13.3847C105.836 12.9985 115.328 12.7588 116.635 21.2951L118.034 26.5688L108.714 29.352" fill="white"/>
<path fill-rule="evenodd" clip-rule="evenodd" d="M103.178 12.9895C105.288 12.6761 108.118 12.8016 110.545 13.6149C114.038 14.7853 116.371 17.2142 117.008 21.1155L117.023 21.2118L118.417 26.4655C118.47 26.6669 118.361 26.8744 118.169 26.9444L118.147 26.9518L108.826 29.7351C108.617 29.7978 108.396 29.677 108.334 29.4655C108.274 29.2614 108.384 29.0475 108.58 28.9763L108.602 28.969L117.552 26.296L116.252 21.3985C116.25 21.3915 116.249 21.3845 116.247 21.3774L116.243 21.3561C115.684 17.7026 113.558 15.4663 110.296 14.3731C108.037 13.6162 105.379 13.4876 103.391 13.7659L103.292 13.7801C101.451 14.0489 97.8014 15.0283 96.6449 15.5326L95.3247 16.109C95.184 16.1708 95.048 16.2308 94.9105 16.2917L94.5903 16.4341C93.9047 16.7401 93.2718 17.0304 92.6689 17.3176C92.1254 17.5765 91.6225 17.8253 91.1631 18.0637L90.9905 18.1539C90.1111 18.6163 89.4206 19.0284 88.952 19.3783C88.6932 19.5716 88.5098 19.7407 88.4101 19.8747C88.4006 19.8875 88.3922 19.8995 88.3848 19.9107L88.3699 19.9345L88.3933 19.944C88.4906 19.9803 88.638 20.0073 88.8281 20.0211C89.2106 20.0488 89.7375 20.022 90.3792 19.9462C91.4323 19.8217 92.7352 19.5727 93.9846 19.2812C94.1166 19.2504 94.2545 19.29 94.3506 19.3847L94.3692 19.4043L98.2722 23.813L98.3007 23.8035C98.4829 23.742 98.6764 23.6805 98.8763 23.6218L98.9969 23.587C99.2761 23.5076 99.5479 23.4397 99.8064 23.3868C100.196 23.307 100.542 23.2638 100.837 23.2653L100.896 23.2662C101.77 23.2885 103.162 22.9103 104.775 22.2577L104.994 22.1677C106.214 21.6606 107.441 21.0431 108.009 20.6679C108.192 20.5471 108.437 20.5987 108.557 20.7833C108.677 20.9679 108.626 21.2155 108.443 21.3364C107.791 21.7666 106.405 22.459 105.069 22.9993C103.394 23.6773 101.941 24.0762 100.931 24.066L100.875 24.065C100.637 24.0587 100.326 24.0957 99.9639 24.1699C99.7263 24.2185 99.4731 24.2817 99.2117 24.356C99.0204 24.4104 98.8337 24.4681 98.6569 24.5263L98.552 24.5612C98.5086 24.5759 98.4678 24.5899 98.4298 24.6031L98.2902 24.653C98.1461 24.7067 97.985 24.6712 97.8763 24.564L97.8576 24.5443L93.934 20.1123L93.8789 20.1251C92.7395 20.3834 91.5749 20.6026 90.5931 20.725L90.4714 20.7398C88.8243 20.9345 87.8828 20.8662 87.6138 20.2609C87.2546 19.4579 88.3462 18.6321 90.7282 17.3909L90.8007 17.3532C91.2687 17.1103 91.7795 16.8576 92.3307 16.5951L92.6141 16.4609C93.1853 16.192 93.7844 15.919 94.4297 15.6321L95.0937 15.339L96.3699 14.7822C97.6346 14.2437 101.292 13.2648 103.178 12.9895Z" fill="#2E186A"/>
<path fill-rule="evenodd" clip-rule="evenodd" d="M97.4137 16.6875C97.4137 16.6875 92.9385 19.7638 93.4005 21.5749C93.8626 23.3727 95.2619 22.7735 95.2619 22.7735" fill="white"/>
<path fill-rule="evenodd" clip-rule="evenodd" d="M97.741 16.4624C97.8642 16.6448 97.8175 16.8933 97.6368 17.0175L97.5239 17.0971L97.4699 17.1357C97.3345 17.2332 97.1833 17.345 97.0203 17.4693C96.5548 17.8244 96.0894 18.2075 95.6563 18.6032C95.1168 19.096 94.6672 19.5728 94.3387 20.0159C93.8843 20.6287 93.6967 21.1327 93.7839 21.4745C93.9213 22.009 94.1403 22.2907 94.4122 22.4065C94.5997 22.4863 94.8127 22.4861 95.0149 22.4341C95.0347 22.4291 95.0528 22.4238 95.0692 22.4187L95.1072 22.4056C95.3085 22.3194 95.541 22.4141 95.6265 22.6172C95.712 22.8203 95.618 23.0549 95.4167 23.1411C95.3712 23.1606 95.3012 23.1851 95.2105 23.2084C94.8553 23.2997 94.474 23.3001 94.1042 23.1426C93.5912 22.9242 93.2133 22.4383 93.017 21.6744C92.8547 21.0382 93.1199 20.3255 93.7044 19.5373C94.0675 19.0476 94.5504 18.5355 95.1246 18.0109C95.5767 17.5979 96.0597 17.2003 96.5426 16.832L96.6671 16.7377C96.7484 16.6765 96.8266 16.6186 96.9011 16.5642L97.0668 16.4445L97.1907 16.3572C97.3715 16.233 97.6179 16.2801 97.741 16.4624Z" fill="#2E186A"/>
<path fill-rule="evenodd" clip-rule="evenodd" d="M98.5755 18.5251C98.5755 18.5251 94.8263 21.6147 95.4204 23.3726C96.0144 25.1305 97.361 24.4247 97.361 24.4247" fill="white"/>
<path fill-rule="evenodd" clip-rule="evenodd" d="M98.8822 18.2725C99.0153 18.4368 98.9971 18.6758 98.8449 18.8181L98.8222 18.8378L98.7474 18.901L98.6948 18.9462C98.5876 19.0388 98.4679 19.1451 98.3389 19.2633C97.9701 19.6014 97.6013 19.9668 97.2581 20.3449C96.8135 20.8348 96.4463 21.3088 96.1839 21.7487C95.8084 22.378 95.6761 22.8912 95.7952 23.2438C95.9559 23.7192 96.1702 23.982 96.4175 24.0961C96.6181 24.1888 96.8451 24.1834 97.0651 24.1137L97.1057 24.1C97.1365 24.0891 97.1591 24.0795 97.1719 24.0735L97.1784 24.0703C97.3725 23.9685 97.6115 24.0448 97.7124 24.2406C97.8132 24.4364 97.7377 24.6776 97.5436 24.7793C97.4909 24.8069 97.409 24.8422 97.3026 24.8759C96.9122 24.9997 96.4927 25.0096 96.0879 24.8227C95.6293 24.611 95.2726 24.1736 95.0455 23.5016C94.8337 22.875 95.0211 22.148 95.5052 21.3366C95.7984 20.8453 96.1965 20.3313 96.6739 19.8053C97.0349 19.4075 97.4206 19.0255 97.8062 18.672L97.9195 18.569C97.9934 18.5023 98.0639 18.4399 98.1305 18.3819L98.2086 18.3143L98.3249 18.2159C98.4943 18.0763 98.7438 18.1016 98.8822 18.2725Z" fill="#2E186A"/>
<path fill-rule="evenodd" clip-rule="evenodd" d="M100.067 20.7625C100.067 20.7625 95.6184 24.5445 98.4698 25.3436C101.321 26.1426 102.193 25.4368 102.193 25.4368C102.193 25.4368 103.13 23.8387 100.186 23.6123" fill="white"/>
<path fill-rule="evenodd" clip-rule="evenodd" d="M99.812 20.4571C99.9793 20.3149 100.229 20.3364 100.37 20.5051C100.511 20.6738 100.49 20.9259 100.322 21.0681L100.254 21.1274L100.219 21.1582C100.135 21.2333 100.041 21.3195 99.9388 21.4154C99.6478 21.6894 99.3568 21.9846 99.0863 22.2889C98.7605 22.6552 98.4875 23.0091 98.2852 23.3375L98.2374 23.4165C97.7214 24.2863 97.7951 24.74 98.5758 24.9587C100.115 25.3902 101.147 25.4096 101.765 25.2018C101.805 25.1881 101.841 25.1743 101.871 25.1609L101.886 25.154L101.891 25.1417C101.946 24.9894 101.957 24.8373 101.907 24.7045L101.895 24.6764C101.75 24.3526 101.229 24.0934 100.156 24.0108C99.9378 23.994 99.7745 23.8021 99.7911 23.5821C99.8078 23.3621 99.998 23.1973 100.216 23.2141C101.548 23.3165 102.329 23.7054 102.617 24.3464C102.777 24.7038 102.758 25.0716 102.636 25.413C102.6 25.5128 102.563 25.5899 102.533 25.6403C102.509 25.6817 102.478 25.7183 102.441 25.7484C102.36 25.8139 102.22 25.8908 102.015 25.9598C101.236 26.2223 100.046 26.1999 98.3639 25.7286C96.9304 25.327 96.805 24.2267 97.6124 22.9159C97.842 22.543 98.1423 22.1538 98.4967 21.7553C98.7843 21.4319 99.0913 21.1204 99.3983 20.8313L99.5032 20.7334C99.5373 20.702 99.5704 20.6716 99.6025 20.6425L99.7506 20.5102C99.7775 20.4867 99.7982 20.4688 99.812 20.4571Z" fill="#2E186A"/>
<path fill-rule="evenodd" clip-rule="evenodd" d="M104.635 30.111C106.509 32.6147 119.196 30.7236 121.282 27.4876C120.278 26.1026 119.486 26.8883 119.038 26.0759C117.981 24.1183 117.559 23.2527 117.559 23.2527C115.354 25.1437 111.896 25.4767 109.321 25.4234C107.79 25.4101 106.523 25.2503 105.929 25.1704C105.915 25.3701 105.863 26.1692 105.81 28.0202C105.797 29.0989 105.203 29.5784 104.635 30.111Z" fill="#2E186A"/>
<path fill-rule="evenodd" clip-rule="evenodd" d="M173.902 73.0991H122.576C121.902 73.0991 121.321 73.5652 121.163 74.2311L114.021 104.701H95.4204C95.4204 104.701 94.3907 110.068 100.397 110.068H165.929C166.602 110.068 167.183 109.602 167.341 108.936L175.315 74.8969C175.526 73.9781 174.84 73.0991 173.902 73.0991Z" fill="#6A6AF4"/>
<path fill-rule="evenodd" clip-rule="evenodd" d="M169.665 86.1766C166.417 86.1766 163.869 83.38 164.133 80.1173C164.331 77.7068 164.358 76.2153 164.608 75.0967C164.952 73.5519 167.896 71.4344 171.341 68.8775C173.15 67.5458 174.404 66.294 175.104 65.1354C175.803 63.9768 176.16 62.5519 176.16 60.8473C176.16 58.7432 175.5 57.0785 174.166 55.8667C172.846 54.6548 171.236 54.0555 169.348 54.0555C165.599 54.0555 163.09 56.0531 161.797 60.0616C160.939 62.725 158.285 64.3497 155.539 63.9635C151.882 63.4441 149.704 59.6088 151.064 56.1463C152.292 53.0168 154.047 50.4599 156.331 48.4623C160.12 45.1596 164.767 43.5083 170.232 43.5083C175.816 43.5083 180.503 45.133 184.278 48.3691C188.054 51.6185 189.955 55.7335 189.955 60.7141C189.955 66.8933 186.813 72.0604 180.516 76.2153C177.783 78.0398 176.12 79.4647 175.539 80.4901C175.341 80.8364 175.183 81.2759 175.051 81.8219C174.47 84.3654 172.252 86.1766 169.665 86.1766ZM170.417 102.863H169.915C166.391 102.863 163.526 99.9732 163.526 96.4175C163.526 92.8618 166.391 89.972 169.915 89.972H170.417C173.942 89.972 176.807 92.8618 176.807 96.4175C176.807 99.9865 173.955 102.863 170.417 102.863Z" fill="#FF8D7E"/>
<path fill-rule="evenodd" clip-rule="evenodd" d="M39.2883 31.6427C38.5622 31.9623 37.7306 31.5894 37.4797 30.8303C37.2949 30.271 37.1629 29.9381 37.1101 29.6717C37.0441 29.2989 37.4929 28.5398 38.0078 27.6342C38.285 27.1681 38.4434 26.7686 38.483 26.4357C38.5358 26.1161 38.4698 25.7565 38.3114 25.3836C38.1134 24.9175 37.8098 24.6112 37.4005 24.478C36.9913 24.3316 36.582 24.3582 36.1596 24.5446C35.3279 24.9042 34.9583 25.5967 35.0507 26.6088C35.1167 27.288 34.6811 27.9006 34.0342 28.087C33.1761 28.3267 32.318 27.6875 32.2916 26.7819C32.2652 25.9696 32.4104 25.2238 32.7273 24.5579C33.2553 23.4526 34.1266 22.6403 35.3411 22.1076C36.582 21.5616 37.7702 21.4684 38.9319 21.8279C40.0804 22.1875 40.8989 22.9066 41.3741 24.0119C41.9682 25.3836 41.757 26.8352 40.7537 28.3667C40.318 29.0325 40.0936 29.5119 40.054 29.7916C40.0408 29.8848 40.054 30.0047 40.0672 30.1378C40.186 30.7771 39.8692 31.3897 39.2883 31.6427ZM41.0441 35.2783L40.9253 35.3316C40.1464 35.6778 39.2355 35.3049 38.8923 34.5192C38.549 33.7335 38.9187 32.8146 39.6976 32.4684L39.8164 32.4151C40.5953 32.0688 41.5061 32.4417 41.8494 33.2274C42.1926 34.0132 41.8362 34.932 41.0441 35.2783Z" fill="#FF8D7E"/>
<path fill-rule="evenodd" clip-rule="evenodd" d="M46.3114 14.5966C45.2421 14.5434 44.45 13.5712 44.5953 12.5058C44.7009 11.7201 44.7405 11.2274 44.8461 10.8545C44.9913 10.3485 45.9946 9.70923 47.1827 8.92352C47.8032 8.51068 48.2388 8.12449 48.4896 7.76492C48.7405 7.39204 48.8857 6.93926 48.9121 6.36662C48.9517 5.67412 48.7669 5.1148 48.3444 4.68865C47.9352 4.2625 47.4071 4.03611 46.7867 3.99616C45.5457 3.92957 44.6877 4.54216 44.186 5.83393C43.856 6.69955 42.9451 7.17896 42.0474 7.00584C40.8593 6.76613 40.1992 5.46105 40.7141 4.3424C41.1761 3.3303 41.7966 2.51795 42.5887 1.90536C43.8956 0.89325 45.4533 0.427149 47.2619 0.533686C49.0969 0.640224 50.6151 1.25281 51.8032 2.39809C52.9913 3.54337 53.5457 4.92836 53.4533 6.56637C53.3477 8.6039 52.2124 10.2419 50.0606 11.5071C49.1233 12.0531 48.5557 12.4925 48.3444 12.8255C48.2784 12.932 48.2124 13.0785 48.1596 13.2516C47.9352 14.0906 47.1695 14.6366 46.3114 14.5966ZM46.2586 20.11L46.087 20.0966C44.9253 20.0301 44.0276 19.0313 44.0936 17.8594C44.1596 16.6874 45.1497 15.7819 46.3114 15.8485L46.483 15.8618C47.6448 15.9284 48.5424 16.9271 48.4764 18.0991C48.4236 19.271 47.4203 20.1765 46.2586 20.11Z" fill="#FF8D7E"/>
</svg>
