<svg width="217" height="131" viewBox="0 0 217 131" fill="none" xmlns="http://www.w3.org/2000/svg">
<path d="M180.607 67.1411C165.554 -2.22628 106.453 -2.3572 85.4128 4.73366C-18.502 39.754 19.6332 120.798 57.4653 120.142C102.764 119.356 198.765 150.812 180.607 67.1411Z" fill="#F5F5FE"/>
<path d="M110.86 84.2082L104.997 113.171L107.946 128.133L120.474 127.955C120.474 127.955 126.699 99.2637 126.334 98.3235C125.969 97.3832 118.887 83.476 118.887 83.476L110.86 84.2082Z" fill="white"/>
<path fill-rule="evenodd" clip-rule="evenodd" d="M119.288 83.2273C119.208 83.0695 119.039 82.9766 118.863 82.9926L110.797 83.7266C110.607 83.7439 110.45 83.8846 110.412 84.0725L104.52 113.102C104.509 113.158 104.509 113.216 104.52 113.272L107.483 128.268C107.524 128.474 107.705 128.621 107.914 128.618L120.503 128.44C120.705 128.437 120.878 128.296 120.921 128.098L120.497 128.006C120.921 128.098 120.921 128.098 120.921 128.098L120.939 128.016C120.951 127.961 120.968 127.88 120.991 127.775C121.037 127.564 121.104 127.255 121.189 126.86C121.359 126.072 121.602 124.945 121.893 123.589C122.474 120.878 123.244 117.253 124.004 113.598C124.763 109.944 125.511 106.258 126.047 103.426C126.314 102.01 126.53 100.804 126.667 99.92C126.735 99.479 126.785 99.1123 126.812 98.8378C126.825 98.7013 126.833 98.5801 126.835 98.4804C126.835 98.4308 126.834 98.3799 126.83 98.3316C126.826 98.2902 126.818 98.2206 126.79 98.1488C126.689 97.8889 126.161 96.8145 125.449 95.3895C124.73 93.949 123.806 92.1174 122.893 90.3159C121.98 88.5143 121.079 86.7421 120.406 85.4205C120.07 84.7596 119.79 84.2114 119.595 83.8283C119.497 83.6368 119.421 83.4866 119.368 83.3842L119.288 83.2275C119.288 83.2274 119.288 83.2273 118.902 83.4251L119.288 83.2273ZM118.65 83.8842C118.696 83.9755 118.755 84.0894 118.823 84.2235C119.018 84.6065 119.298 85.1546 119.634 85.8152C120.307 87.1366 121.208 88.9081 122.12 90.7091C123.033 92.5101 123.956 94.34 124.674 95.7782C125.366 97.1631 125.852 98.1556 125.968 98.4291C125.968 98.4389 125.968 98.4521 125.968 98.469C125.967 98.5335 125.961 98.6273 125.949 98.7531C125.925 99.0034 125.878 99.3512 125.81 99.7867C125.675 100.656 125.462 101.851 125.195 103.264C124.661 106.088 123.914 109.768 123.155 113.421C122.396 117.073 121.626 120.697 121.045 123.407C120.755 124.762 120.512 125.889 120.342 126.677C120.259 127.062 120.193 127.366 120.147 127.577L108.263 127.745L105.387 113.189L111.197 84.5624L118.65 83.8842ZM125.966 98.4062C125.966 98.4063 125.966 98.4075 125.967 98.4097C125.966 98.4073 125.966 98.4061 125.966 98.4062Z" fill="#2E186A"/>
<path d="M166.222 36.998C197.173 35.2024 201.591 53.9201 200.438 68.1394L195.465 129.438C195.653 129.639 121.762 129.639 121.982 129.438L126.955 68.1394C128.108 53.9201 135.562 35.2024 166.222 36.998Z" fill="#FF8D7E"/>
<path fill-rule="evenodd" clip-rule="evenodd" d="M166.147 37.2503C166.113 37.4872 166.28 37.7067 166.52 37.7405C176.921 39.2027 182.851 43.7675 186.078 49.4291C189.32 55.1156 189.869 61.9697 189.366 68.0498L184.275 129.606C184.256 129.844 184.436 130.053 184.678 130.073C184.919 130.092 185.131 129.915 185.151 129.676L190.242 68.1203L189.804 68.085L190.242 68.1203C190.751 61.9588 190.208 54.9049 186.844 49.0042C183.467 43.0788 177.28 38.3776 166.644 36.8823C166.404 36.8485 166.181 37.0133 166.147 37.2503Z" fill="#2E186A"/>
<path d="M113.187 130.074L118.658 103.756C118.658 103.756 115.526 99.8269 115.768 94.2863C115.784 93.9205 115.815 93.5494 115.861 93.173C115.831 93.0979 109.248 90.9463 108.879 90.1536C109.129 85.644 112.786 73.6503 119.229 70.8634C121.298 69.9031 126.307 68.462 127.314 68.1198C132.072 66.5011 142.091 63.8644 150.8 65.6C150.8 65.6 164.094 67.7804 167.078 69.5522C168.696 70.5139 176.74 75.7469 178.275 90.2215C178.298 90.4438 164.369 95.3563 164.369 95.3563L162.212 129.922" fill="#6A6AF4"/>
<path d="M135.553 58.6744V65.9813L132.813 66.5007C132.341 67.1831 127.02 75.5885 138.742 76.6143C146.386 77.2836 154.817 72.7775 159.349 67.4363L151.843 65.3775L149.585 50.9543L135.553 58.6744Z" fill="white"/>
<path fill-rule="evenodd" clip-rule="evenodd" d="M149.792 50.9984C149.665 50.9367 149.515 50.9399 149.39 51.0072L135.31 58.6148C135.17 58.6903 135.083 58.8349 135.083 58.992V65.8359L132.688 66.2816C132.576 66.3026 132.477 66.3662 132.411 66.4588C132.28 66.6457 131.841 67.3151 131.444 68.2343C131.048 69.1499 130.679 70.3461 130.72 71.5747C130.761 72.8199 131.226 74.0947 132.484 75.1137C133.724 76.1196 135.695 76.8424 138.681 77.099C146.523 77.7732 155.113 73.249 159.73 67.9053C159.827 67.7932 159.859 67.6401 159.815 67.4994C159.771 67.3588 159.657 67.2501 159.513 67.2113L152.252 65.2558L150.031 51.3176C150.009 51.1793 149.92 51.0602 149.792 50.9984ZM149.266 52.0555L151.435 65.6643C151.462 65.8315 151.585 65.9678 151.751 66.0124L158.609 67.8595C154.037 72.8134 146.008 76.8654 138.757 76.242C135.862 75.9932 134.089 75.3015 133.037 74.4491C132.002 73.6098 131.626 72.5822 131.591 71.5463C131.556 70.4938 131.875 69.43 132.246 68.5718C132.542 67.8877 132.861 67.3552 133.031 67.0933L135.6 66.6151C135.806 66.5768 135.955 66.3993 135.955 66.1925V59.2469L149.266 52.0555Z" fill="#2E186A"/>
<path d="M150.128 48.6765L151.354 48.9549C151.354 48.9549 158.53 49.9769 158.854 43.4143C159.101 38.4363 154.087 38.6114 151.65 38.986" fill="white"/>
<path fill-rule="evenodd" clip-rule="evenodd" d="M157.847 40.7828C158.259 41.3724 158.514 42.2044 158.455 43.3884L158.455 43.3885C158.377 44.9627 157.893 46.0452 157.239 46.7976C156.582 47.5544 155.726 48.0097 154.855 48.2778C153.983 48.5462 153.113 48.6215 152.456 48.628C152.129 48.6313 151.857 48.6174 151.67 48.603C151.576 48.5958 151.503 48.5884 151.454 48.583C151.432 48.5805 151.414 48.5783 151.403 48.5769L150.185 48.3002C149.947 48.2461 149.709 48.392 149.654 48.626C149.599 48.86 149.748 49.0935 149.986 49.1476L151.223 49.4289C151.235 49.4316 151.247 49.4338 151.26 49.4356L151.323 49.0052C151.26 49.4356 151.26 49.4356 151.26 49.4356L151.261 49.4357L151.262 49.436L151.268 49.4367C151.273 49.4373 151.279 49.4382 151.287 49.4392C151.303 49.4412 151.325 49.444 151.354 49.4472C151.412 49.4537 151.496 49.4621 151.601 49.4701C151.81 49.4862 152.108 49.5013 152.465 49.4977C153.176 49.4907 154.139 49.4098 155.12 49.1078C156.102 48.8054 157.119 48.276 157.912 47.3623C158.71 46.4442 159.253 45.1704 159.339 43.4308M157.847 40.7828C157.434 40.1921 156.835 39.8023 156.128 39.5563L157.847 40.7828ZM156.128 39.5563C154.694 39.0572 152.905 39.1804 151.691 39.3671L156.128 39.5563ZM156.424 38.7365C154.773 38.1618 152.8 38.3162 151.554 38.5078C151.313 38.5449 151.147 38.7674 151.185 39.0047C151.223 39.242 151.449 39.4043 151.691 39.3671M156.424 38.7365C157.26 39.0274 158.033 39.5124 158.577 40.2906L156.424 38.7365ZM158.577 40.2906C159.121 41.07 159.405 42.1011 159.339 43.4307L158.577 40.2906Z" fill="#2E186A"/>
<path d="M125.431 40.0398C126.099 31.7706 127.646 28.982 130.719 27.17C144.729 20.1921 150.483 23.9055 152.936 38.1169C153.135 39.2692 152.983 38.2407 153.003 39.4982C152.939 40.7945 152.848 42.2724 152.724 43.5111C151.929 48.201 150.137 51.1307 150.137 51.1307C147.6 55.6953 143.439 59.1536 137.902 59.652C128.238 60.5162 125.648 47.0141 125.427 44.0167C125.318 42.5302 125.427 40.0283 125.427 40.0283C125.427 40.0283 125.427 40.0398 125.431 40.0398Z" fill="white" stroke="#2E186A" stroke-width="2" stroke-linecap="round" stroke-linejoin="round"/>
<path fill-rule="evenodd" clip-rule="evenodd" d="M142.357 18.3861L147.174 17.884C155.817 17.0053 163.449 24.2861 164.241 34.1528L169.981 71.4592C164.615 68.3711 159.204 68.3209 157.621 68.9988C156.675 69.4005 153.728 70.3796 150.077 71.5596L149.672 52.3742C149.804 51.9976 151.155 49.2438 151.265 48.8672C153.174 49.2798 154.41 48.8149 156.191 47.8357C158.633 46.48 159.16 45.0992 158.017 42.463C157.665 41.6345 157.159 40.9817 156.521 40.4796C156.499 40.4796 156.499 40.4545 156.477 40.4545C156.389 40.3792 156.279 40.3039 156.191 40.2537C156.147 40.2285 156.125 40.2034 156.081 40.1783C155.993 40.1281 155.883 40.0528 155.773 40.0026C155.751 40.0026 155.729 39.9775 155.707 39.9775C155.575 39.9273 155.444 39.8519 155.312 39.8017C155.29 39.8017 155.268 39.7766 155.246 39.7766C155.136 39.7264 155.004 39.7013 154.872 39.6511C154.85 39.6511 154.85 39.6511 154.828 39.6511C154.542 39.5758 154.234 39.5256 153.948 39.5256C153.948 39.5256 153.948 39.5256 153.926 39.5256C153.156 39.5005 152.364 39.6762 151.595 40.0779C151.573 40.103 151.529 40.103 151.507 40.1281C151.419 40.1783 151.331 40.2285 151.265 40.2788C144.711 37.2409 144.579 26.5205 144.579 25.5163C143.127 26.8469 141.917 28.3031 141.807 30.9392L127.401 32.0941C126.39 34.1026 125.851 39.0053 125.368 41.4406C125.197 41.3755 125.093 42.8537 125.024 45.1539C124.801 52.6191 124.943 68.7434 124.338 68.8778C124.14 67.0199 122.893 34.6299 123.575 32.3954L118.472 32.7971C118.45 32.8222 113.655 13.1891 142.357 18.3861Z" fill="#2E186A"/>
<path d="M124.544 69.0841V67.8463V65.5771V45.7728L125.162 44.3287L129.281 55.8812L135.872 60.0071V66.4023L124.544 69.0841Z" fill="#2E186A"/>
<path fill-rule="evenodd" clip-rule="evenodd" d="M132.794 35.9132C132.542 35.8729 132.303 36.0288 132.26 36.2614L130.239 47.0561C130.215 47.1804 130.253 47.3079 130.341 47.4044C130.428 47.5009 130.558 47.5565 130.694 47.5564L133.653 47.555C133.908 47.5549 134.114 47.3635 134.114 47.1275C134.114 46.8914 133.907 46.7002 133.652 46.7003L131.243 46.7015L133.17 36.4073C133.214 36.1747 133.045 35.9535 132.794 35.9132Z" fill="#2E186A"/>
<path fill-rule="evenodd" clip-rule="evenodd" d="M140.558 36.7321L140.558 36.7323L140.556 36.7302C140.554 36.7278 140.55 36.7238 140.544 36.7182C140.532 36.7069 140.514 36.6895 140.49 36.667C140.442 36.622 140.369 36.5572 140.274 36.482C140.085 36.3304 139.816 36.1425 139.496 35.9873C138.859 35.6786 138.084 35.5227 137.263 35.9562C137.048 36.0701 136.759 36.0216 136.617 35.8479C136.476 35.6742 136.536 35.441 136.752 35.3271C137.984 34.6761 139.168 34.9502 139.977 35.3427C140.38 35.5381 140.707 35.7685 140.932 35.9476C141.044 36.0378 141.133 36.1165 141.195 36.1736C141.226 36.2021 141.25 36.2254 141.267 36.2421C141.275 36.2505 141.282 36.2572 141.287 36.2622L141.293 36.2683L141.295 36.2703L141.295 36.271L141.296 36.2713C141.296 36.2714 141.296 36.2716 140.927 36.5017L141.296 36.2716C141.454 36.4359 141.416 36.6721 141.212 36.7992C141.009 36.9263 140.716 36.8962 140.558 36.7321Z" fill="#2E186A"/>
<path fill-rule="evenodd" clip-rule="evenodd" d="M138.676 50.4934C138.45 50.4137 138.202 50.534 138.123 50.7623C137.824 51.6266 137.143 51.9231 136.454 51.9995C136.108 52.0379 135.777 52.0166 135.53 51.9842C135.408 51.9682 135.308 51.9498 135.24 51.9357C135.207 51.9287 135.181 51.9228 135.165 51.9189C135.156 51.9169 135.151 51.9155 135.147 51.9146L135.144 51.9139C134.913 51.852 134.675 51.9911 134.614 52.2247C134.552 52.4584 134.69 52.6982 134.922 52.7603L135.033 52.3372C134.922 52.7603 134.922 52.7604 134.922 52.7604L134.924 52.7608L134.926 52.7616L134.935 52.7638C134.942 52.7656 134.952 52.768 134.964 52.7709C134.988 52.7767 135.022 52.7846 135.065 52.7935C135.151 52.8112 135.272 52.8335 135.419 52.8527C135.71 52.8908 136.114 52.9183 136.549 52.87C137.422 52.7731 138.491 52.3544 138.942 51.0513C139.021 50.823 138.902 50.5732 138.676 50.4934Z" fill="#2E186A"/>
<path fill-rule="evenodd" clip-rule="evenodd" d="M129.121 36.5322L129.123 36.5335L129.123 36.5335M129.123 36.5336C129.123 36.5335 129.123 36.5335 129.123 36.5335L129.123 36.5336C129.123 36.5336 129.123 36.5336 129.123 36.5336C129.316 36.6349 129.568 36.5826 129.686 36.4167C129.804 36.2506 129.743 36.0334 129.55 35.9317L129.337 36.2324C129.55 35.9317 129.55 35.9316 129.55 35.9315L129.55 35.9313L129.549 35.9309L129.547 35.9296L129.539 35.9259C129.533 35.9229 129.525 35.9188 129.515 35.9137C129.495 35.9036 129.466 35.8896 129.43 35.8728C129.357 35.8393 129.254 35.7941 129.126 35.7452C128.873 35.6482 128.516 35.5336 128.11 35.47C127.294 35.3424 126.217 35.4181 125.457 36.3177C125.324 36.4752 125.364 36.6958 125.547 36.8104C125.73 36.9251 125.986 36.8903 126.119 36.7328C126.624 36.1344 127.321 36.0637 127.964 36.1642C128.286 36.2147 128.579 36.3077 128.794 36.3898C128.9 36.4306 128.985 36.4678 129.042 36.4943C129.071 36.5076 129.092 36.518 129.106 36.5248C129.113 36.5282 129.118 36.5307 129.121 36.5322" fill="#2E186A"/>
<path d="M136.62 41.9863C136.593 41.2014 136.982 40.5509 137.489 40.5334C137.996 40.5158 138.429 41.1379 138.456 41.9228C138.483 42.7077 138.094 43.3582 137.587 43.3757C137.08 43.3933 136.647 42.7712 136.62 41.9863Z" fill="#2E186A"/>
<path d="M126.855 42.2687C126.828 41.4838 127.217 40.8333 127.724 40.8158C128.231 40.7983 128.664 41.4203 128.691 42.2052C128.718 42.9901 128.329 43.6406 127.822 43.6582C127.315 43.6757 126.882 43.0536 126.855 42.2687Z" fill="#2E186A"/>
<path d="M128.775 109.202C128.775 109.202 122.598 109.3 118.523 111.478C116.092 112.777 112.94 114.562 112.778 115.348C112.473 116.819 116.309 115.357 116.917 115.173" fill="white"/>
<path fill-rule="evenodd" clip-rule="evenodd" d="M128.775 109.126C128.771 108.896 128.579 108.713 128.345 108.717L128.352 109.133C128.345 108.717 128.345 108.717 128.345 108.717L128.343 108.717L128.339 108.717L128.325 108.717C128.313 108.717 128.294 108.718 128.271 108.718C128.224 108.72 128.155 108.722 128.067 108.726C127.89 108.733 127.635 108.746 127.316 108.768C126.679 108.813 125.788 108.896 124.771 109.049C122.746 109.355 120.18 109.945 118.122 111.093C116.932 111.757 115.556 112.55 114.455 113.28C113.905 113.645 113.413 114.001 113.044 114.324C112.86 114.485 112.698 114.645 112.573 114.8C112.454 114.948 112.339 115.127 112.3 115.324C112.248 115.585 112.272 115.855 112.436 116.079C112.595 116.296 112.833 116.397 113.049 116.443C113.464 116.532 114.002 116.46 114.494 116.355C115.287 116.185 116.17 115.874 116.628 115.712C116.747 115.67 116.838 115.638 116.89 115.622C117.113 115.552 117.236 115.317 117.164 115.098C117.093 114.879 116.854 114.758 116.632 114.829C116.552 114.854 116.434 114.895 116.288 114.947C115.812 115.114 115.04 115.385 114.314 115.541C113.831 115.644 113.45 115.676 113.228 115.629C113.163 115.615 113.134 115.599 113.125 115.592C113.122 115.579 113.119 115.547 113.131 115.484L113.131 115.484C113.131 115.484 113.135 115.47 113.151 115.441C113.168 115.409 113.196 115.368 113.237 115.317C113.32 115.214 113.443 115.09 113.607 114.946C113.934 114.66 114.391 114.328 114.928 113.971C116.001 113.259 117.353 112.479 118.539 111.818L118.539 111.818C120.464 110.744 122.909 110.173 124.899 109.873C125.889 109.723 126.757 109.642 127.376 109.599C127.686 109.577 127.933 109.565 128.102 109.558C128.187 109.554 128.252 109.552 128.295 109.551C128.317 109.551 128.333 109.55 128.344 109.55L128.356 109.55L128.359 109.55C128.593 109.546 128.779 109.356 128.775 109.126ZM113.127 115.599C113.127 115.599 113.127 115.598 113.126 115.596C113.126 115.598 113.127 115.599 113.127 115.599Z" fill="#2E186A"/>
<path d="M113.286 118.258C113.444 117.556 119.436 111.478 121.624 110.416C123.041 109.732 126.27 108.344 129.182 108.337L129.295 108.323C139.934 107.323 160.732 104.572 160.732 104.572L159.194 90.992C159.194 90.992 177.815 85.3888 177.806 85.4176C179.238 95.8869 178.943 107.529 177.692 111.723C176.935 114.258 174.14 116.484 171.532 116.96C149.833 120.927 126.438 118.346 126.438 118.346C126.333 118.359 121.436 119.818 121.436 119.818C118.422 121.166 118.544 119.738 119.476 118.638C119.333 118.772 119.201 118.916 119.081 119.07C118.037 120.022 116.402 119.647 116.146 119.292C115.89 118.938 117.041 117.899 118.56 116.25L118.378 116.384C115.864 119.279 112.866 120.134 113.286 118.258Z" fill="white"/>
<path fill-rule="evenodd" clip-rule="evenodd" d="M158.751 90.5405C158.751 90.5405 158.751 90.5405 158.875 90.9561L158.751 90.5405C158.552 90.6011 158.424 90.7965 158.447 91.0049L159.929 104.202C159.795 104.219 159.632 104.241 159.44 104.266C158.854 104.344 158.005 104.455 156.953 104.593C154.85 104.867 151.935 105.243 148.69 105.65C142.198 106.466 134.39 107.405 129.108 107.906C129.103 107.907 129.098 107.907 129.094 107.908L129.008 107.919C126.015 107.935 122.743 109.361 121.334 110.047L121.333 110.047C120.737 110.339 119.921 110.952 119.054 111.684C118.176 112.426 117.215 113.317 116.319 114.195C115.424 115.072 114.589 115.941 113.967 116.636C113.656 116.984 113.395 117.293 113.203 117.541C113.108 117.664 113.026 117.778 112.963 117.878C112.909 117.963 112.839 118.084 112.811 118.209C112.749 118.489 112.739 118.763 112.815 119.01C112.895 119.27 113.062 119.471 113.293 119.595C113.718 119.822 114.279 119.749 114.807 119.569C115.059 119.484 115.328 119.365 115.609 119.216C115.608 119.338 115.637 119.472 115.725 119.594C115.805 119.706 115.913 119.787 116.01 119.846C116.112 119.907 116.229 119.959 116.353 120.001C116.6 120.086 116.902 120.144 117.226 120.155C117.583 120.167 117.984 120.122 118.377 119.983C118.388 120.142 118.435 120.301 118.536 120.447C118.786 120.804 119.229 120.885 119.677 120.841C120.135 120.796 120.731 120.614 121.485 120.275L121.667 120.221C121.801 120.181 121.991 120.123 122.22 120.055C122.678 119.917 123.29 119.734 123.905 119.551C124.52 119.367 125.138 119.183 125.608 119.044C125.843 118.975 126.041 118.917 126.183 118.876C126.249 118.857 126.301 118.842 126.34 118.832C126.385 118.836 126.449 118.843 126.531 118.852C126.708 118.87 126.97 118.896 127.31 118.927C127.991 118.991 128.987 119.076 130.249 119.167C132.773 119.348 136.363 119.548 140.627 119.623C149.154 119.773 160.394 119.425 171.22 117.428C172.601 117.174 174.01 116.458 175.171 115.482C176.331 114.507 177.274 113.246 177.68 111.873L177.68 111.873C178.321 109.707 178.704 105.684 178.755 100.922C178.806 96.1456 178.523 90.5799 177.808 85.3065L177.756 85.3136C177.679 85.1127 177.503 84.951 177.427 84.9335C177.395 84.9312 177.348 84.9322 177.333 84.9336C177.311 84.936 177.294 84.9396 177.29 84.9405L177.289 84.9406C177.277 84.9431 177.266 84.9459 177.261 84.9474C177.247 84.9509 177.23 84.9555 177.212 84.9606C177.175 84.971 177.122 84.9865 177.054 85.0063C176.918 85.0462 176.718 85.1054 176.465 85.1809C175.959 85.332 175.236 85.5493 174.369 85.8107C172.634 86.3336 170.321 87.0334 168.007 87.7341C165.693 88.4348 163.379 89.1364 161.644 89.6628C160.776 89.9261 160.053 90.1455 159.546 90.2991L158.751 90.5405ZM126.308 118.392L126.356 117.96C126.322 117.956 126.289 117.957 126.255 117.961C126.221 117.965 126.185 117.975 126.179 117.976L126.178 117.976C126.162 117.98 126.143 117.986 126.121 117.992C126.077 118.004 126.018 118.021 125.946 118.041C125.801 118.083 125.601 118.142 125.366 118.211C124.894 118.35 124.275 118.535 123.659 118.718C123.044 118.902 122.432 119.085 121.974 119.223C121.855 119.258 121.747 119.291 121.652 119.319L121.212 119.451L121.212 119.452L121.211 119.452C121.211 119.452 121.211 119.452 121.335 119.868L121.211 119.452C121.193 119.457 121.176 119.464 121.158 119.471C120.426 119.802 119.922 119.944 119.594 119.977C119.348 120.001 119.263 119.959 119.242 119.946C119.237 119.929 119.22 119.852 119.284 119.67C119.357 119.464 119.507 119.213 119.715 118.964C119.863 118.788 119.848 118.527 119.682 118.369C119.516 118.21 119.256 118.21 119.089 118.368C118.942 118.509 118.804 118.66 118.678 118.82C118.269 119.182 117.737 119.303 117.255 119.287C117.011 119.279 116.794 119.235 116.632 119.18C116.589 119.165 116.551 119.15 116.52 119.135C116.594 119.006 116.731 118.827 116.939 118.587C117.186 118.302 117.495 117.973 117.855 117.591C118.138 117.29 118.452 116.956 118.793 116.583C118.944 116.418 118.945 116.166 118.797 115.999C118.648 115.833 118.398 115.807 118.22 115.94L118.039 116.075C118.013 116.094 117.99 116.115 117.969 116.14C116.753 117.552 115.443 118.437 114.531 118.747C114.054 118.909 113.792 118.879 113.697 118.828C113.669 118.813 113.652 118.796 113.639 118.754C113.623 118.7 113.611 118.595 113.649 118.416C113.652 118.41 113.664 118.386 113.691 118.343C113.734 118.276 113.798 118.186 113.885 118.073C114.058 117.849 114.304 117.557 114.608 117.217C115.215 116.539 116.035 115.684 116.921 114.817C117.806 113.949 118.752 113.073 119.608 112.349C120.474 111.618 121.219 111.069 121.71 110.828C123.114 110.145 126.248 108.794 129.037 108.787C129.055 108.787 129.073 108.786 129.091 108.783L129.196 108.77C134.492 108.268 142.308 107.327 148.797 106.512C152.044 106.104 154.96 105.728 157.064 105.454C158.116 105.316 158.965 105.205 159.552 105.127C159.845 105.088 160.072 105.058 160.226 105.038L160.461 105.007L160.461 105.007C160.461 105.007 160.462 105.007 160.405 104.576L160.462 105.007C160.694 104.975 160.86 104.762 160.833 104.527L159.344 91.2672L159.795 91.1303C160.302 90.9767 161.025 90.7573 161.893 90.4941C163.628 89.9677 165.942 89.2661 168.256 88.5655C170.569 87.8648 172.882 87.1651 174.617 86.6424C175.484 86.381 176.206 86.164 176.711 86.0132C176.825 85.979 176.928 85.9483 177.019 85.9213C177.679 90.9998 177.942 96.3239 177.893 100.913C177.842 105.666 177.457 109.584 176.854 111.625C176.507 112.794 175.684 113.92 174.618 114.816C173.553 115.712 172.277 116.351 171.065 116.574C160.317 118.556 149.14 118.904 140.642 118.755C136.396 118.68 132.822 118.481 130.31 118.301C129.055 118.211 128.065 118.126 127.389 118.063C127.052 118.031 126.793 118.006 126.618 117.988C126.531 117.979 126.465 117.972 126.421 117.967C126.399 117.965 126.383 117.963 126.372 117.962L126.356 117.96L126.356 117.96C126.356 117.96 126.356 117.96 126.308 118.392ZM119.237 119.941C119.237 119.941 119.237 119.942 119.238 119.942C119.237 119.941 119.237 119.941 119.237 119.941Z" fill="#2E186A"/>
<path d="M119.07 119.395C120.456 117.648 124.408 116.483 124.408 116.483C123.961 116.525 121.251 117.419 119.932 118.522" fill="white"/>
<path fill-rule="evenodd" clip-rule="evenodd" d="M124.4 116.359C124.359 116.133 124.164 115.978 123.951 116C123.794 116.016 123.516 116.098 123.206 116.205C122.879 116.319 122.474 116.477 122.044 116.67C121.195 117.05 120.204 117.584 119.537 118.196C119.488 118.24 119.452 118.294 119.427 118.352C119.138 118.602 118.879 118.872 118.672 119.158C118.531 119.354 118.564 119.635 118.746 119.787C118.928 119.938 119.191 119.903 119.332 119.707C119.911 118.907 121.071 118.197 122.153 117.676C122.683 117.421 123.174 117.22 123.533 117.082C123.713 117.014 123.858 116.962 123.959 116.927C124.009 116.909 124.048 116.896 124.074 116.887C124.087 116.883 124.096 116.88 124.103 116.877L124.109 116.875L124.111 116.875C124.317 116.808 124.442 116.585 124.4 116.359Z" fill="#2E186A"/>
<path d="M122.467 114.056C122.467 114.056 120.061 114.678 118.584 116.483L122.467 114.056Z" fill="white"/>
<path fill-rule="evenodd" clip-rule="evenodd" d="M122.941 113.936C122.888 113.682 122.657 113.524 122.426 113.583L122.523 114.042C122.426 113.583 122.426 113.583 122.426 113.583L122.425 113.583L122.423 113.584L122.416 113.586C122.41 113.587 122.402 113.589 122.391 113.592C122.37 113.598 122.341 113.606 122.303 113.617C122.227 113.64 122.119 113.673 121.985 113.719C121.717 113.81 121.346 113.952 120.925 114.152C120.088 114.551 119.029 115.197 118.212 116.179C118.052 116.371 118.064 116.669 118.239 116.845C118.414 117.021 118.685 117.007 118.845 116.815C119.548 115.971 120.485 115.39 121.266 115.017C121.654 114.833 121.996 114.703 122.24 114.619C122.362 114.577 122.459 114.547 122.524 114.528C122.557 114.519 122.582 114.512 122.598 114.507C122.606 114.505 122.612 114.503 122.616 114.502L122.619 114.502L122.62 114.502C122.62 114.501 122.62 114.501 122.62 114.501M122.941 113.936C122.994 114.19 122.851 114.443 122.62 114.501L122.941 113.936Z" fill="#2E186A"/>
<path d="M33.576 78.1369H98.9749C99.8395 78.1369 100.577 78.7863 100.775 79.7041L110.243 123.768H151.026C151.026 123.768 152.152 129.589 145.589 129.589H95.7655L95.7929 129.517H43.7271C42.8625 129.517 42.1246 128.868 41.9272 127.95L31.7688 80.6406C31.4936 79.3621 32.3755 78.1369 33.576 78.1369Z" fill="#2E186A"/>
<path d="M66.7195 103.025C66.7195 102.059 65.9757 101.15 65.0549 100.978C64.134 100.806 63.3783 101.464 63.3724 102.431C63.3805 102.975 63.5993 103.495 63.9853 103.89C63.6837 103.98 63.3964 104.11 63.1314 104.276C61.3998 105.377 61.3596 107.677 63.0406 109.413C64.7217 111.149 67.4857 111.665 69.2158 110.567C70.9459 109.469 70.9876 107.167 69.308 105.429C68.5459 104.648 67.5676 104.097 66.4904 103.842C66.64 103.594 66.719 103.313 66.7195 103.025Z" fill="white"/>
<path d="M68.1143 98.61C68.1143 98.61 65.3742 97.9424 65.2025 100.322C65.1979 100.322 67.3833 101.2 68.1143 98.61Z" fill="white"/>
<path d="M64.8011 101.922C64.8403 101.922 64.8794 101.916 64.9169 101.904C65.019 101.874 65.1047 101.805 65.1552 101.713C65.2056 101.621 65.2168 101.514 65.1862 101.414C65.1202 101.199 64.5318 99.3092 63.9744 98.6633C63.9401 98.6238 63.8982 98.5912 63.851 98.5675C63.8038 98.5438 63.7523 98.5294 63.6994 98.5251C63.6465 98.5208 63.5933 98.5268 63.5427 98.5426C63.4922 98.5584 63.4453 98.5838 63.4049 98.6173C63.3644 98.6508 63.331 98.6918 63.3067 98.7379C63.2825 98.784 63.2677 98.8343 63.2633 98.886C63.259 98.9376 63.265 98.9896 63.2812 99.039C63.2974 99.0884 63.3234 99.1342 63.3577 99.1737C63.7401 99.6144 64.2504 101.103 64.4147 101.639C64.4393 101.72 64.4903 101.792 64.5599 101.843C64.6295 101.894 64.7141 101.921 64.8011 101.922Z" fill="white"/>
<path fill-rule="evenodd" clip-rule="evenodd" d="M216.613 129.832C216.613 129.698 216.419 129.589 216.18 129.589H18.0774C17.8382 129.589 17.6443 129.698 17.6443 129.832C17.6443 129.966 17.8382 130.074 18.0774 130.074H216.18C216.419 130.074 216.613 129.966 216.613 129.832Z" fill="#2E186A"/>
<g filter="url(#filter0_d_17550_12903)">
<rect x="42.793" y="44.7413" width="62.2035" height="9.90214" rx="2" fill="white"/>
<path d="M52.5769 52.1679L48.2515 52.1679C48.0876 52.1679 47.9304 52.1027 47.8145 51.9866C47.6986 51.8706 47.6335 51.7131 47.6335 51.549C47.6335 51.3849 47.6986 51.2275 47.8145 51.1114C47.9304 50.9953 48.0876 50.9301 48.2515 50.9301L52.5769 50.9301L52.5769 46.9074C52.5769 46.8253 52.5443 46.7466 52.4864 46.6886C52.4284 46.6305 52.3499 46.5979 52.2679 46.5979L48.2515 46.5979C47.9237 46.5979 47.6094 46.7283 47.3776 46.9605C47.1458 47.1926 47.0156 47.5074 47.0156 47.8357L47.0156 51.549C47.0156 51.8773 47.1458 52.1921 47.3776 52.4242C47.6094 52.6564 47.9237 52.7868 48.2515 52.7868L52.2679 52.7868C52.3499 52.7868 52.4284 52.7542 52.4864 52.6961C52.5443 52.6381 52.5769 52.5594 52.5769 52.4773L52.5769 52.1679ZM52.2679 51.2396L48.2515 51.2396C48.1695 51.2396 48.0909 51.2722 48.033 51.3302C47.975 51.3882 47.9425 51.4669 47.9425 51.549C47.9425 51.6311 47.975 51.7098 48.033 51.7678C48.0909 51.8258 48.1695 51.8584 48.2515 51.8584L52.2679 51.8584L52.2679 51.2396Z" fill="#22967E"/>
<path d="M55.6602 51.7553H56.3621V50.2799H57.4793V49.6957H56.3621V48.8738H57.677V48.2896H55.6602V51.7553Z" fill="#22967E"/>
<path d="M59.3247 49.161C58.514 49.161 57.9604 49.76 57.9604 50.5077C57.9604 51.2553 58.514 51.8543 59.3247 51.8543C60.1355 51.8543 60.6891 51.2553 60.6891 50.5077C60.6891 49.76 60.1355 49.161 59.3247 49.161ZM59.3346 51.2602C58.9194 51.2602 58.6129 50.9433 58.6129 50.5077C58.6129 50.072 58.9194 49.7551 59.3346 49.7551C59.735 49.7551 60.0366 50.072 60.0366 50.5077C60.0366 50.9384 59.735 51.2602 59.3346 51.2602Z" fill="#22967E"/>
<path d="M61.2617 51.7553H61.8895V50.1561C61.9834 49.9977 62.1812 49.8294 62.4877 49.8294C62.6014 49.8294 62.6854 49.8442 62.7645 49.864V49.2451C62.7052 49.2253 62.631 49.2105 62.547 49.2105C62.2652 49.2105 62.0527 49.3392 61.8895 49.5075V49.26H61.2617V51.7553Z" fill="#22967E"/>
<path d="M63.2699 51.7553H63.8977V50.1264C63.9917 49.968 64.14 49.7551 64.4267 49.7551C64.7085 49.7551 64.8716 49.9432 64.8716 50.2452V51.7553H65.5043V50.2205C65.5043 50.1809 65.5043 50.1462 65.4994 50.1116C65.5983 49.9432 65.7466 49.7551 66.0184 49.7551C66.3002 49.7551 66.4633 49.9432 66.4633 50.2452V51.7553H67.0961V50.2205C67.0961 49.5174 66.6907 49.161 66.1766 49.161C65.7564 49.161 65.5192 49.3491 65.3412 49.5669C65.1781 49.2996 64.9012 49.161 64.5849 49.161C64.2784 49.161 64.0658 49.2847 63.8977 49.4481V49.26H63.2699V51.7553Z" fill="#22967E"/>
<path d="M68.5145 51.8296C68.8062 51.8296 69.1028 51.7058 69.261 51.5127V51.7553H69.8888V50.1413C69.8888 49.5917 69.518 49.161 68.7963 49.161C68.3415 49.161 67.9757 49.3491 67.7533 49.6561L68.213 50.0076C68.3465 49.8244 68.5343 49.7105 68.7765 49.7105C69.0633 49.7105 69.261 49.8789 69.261 50.1413V50.2056L68.4997 50.3344C67.9658 50.4235 67.6742 50.7057 67.6742 51.082C67.6742 51.5424 68.0153 51.8296 68.5145 51.8296ZM68.297 51.0523C68.297 50.8988 68.4058 50.7899 68.6678 50.7453L69.261 50.6463V50.9978C69.1374 51.1959 68.9298 51.3295 68.6431 51.3295C68.4305 51.3295 68.297 51.2206 68.297 51.0523Z" fill="#22967E"/>
<path d="M70.7659 50.8443C70.7659 51.4533 71.0625 51.8048 71.6853 51.8048C71.893 51.8048 72.0413 51.7801 72.1648 51.7256V51.176C72.0808 51.2107 71.9671 51.2305 71.7941 51.2305C71.5469 51.2305 71.3986 51.1216 71.3986 50.8443V49.8244H72.1599V49.26H71.3986V48.6361H70.7659V49.26H70.3012V49.8244H70.7659V50.8443Z" fill="#22967E"/>
<path d="M73.0385 48.8243C73.261 48.8243 73.4439 48.6361 73.4439 48.4133C73.4439 48.1906 73.261 48.0024 73.0385 48.0024C72.8161 48.0024 72.6282 48.1906 72.6282 48.4133C72.6282 48.6361 72.8161 48.8243 73.0385 48.8243ZM72.7221 51.7553H73.3499V49.26H72.7221V51.7553Z" fill="#22967E"/>
<path d="M75.2892 49.161C74.4785 49.161 73.9248 49.76 73.9248 50.5077C73.9248 51.2553 74.4785 51.8543 75.2892 51.8543C76.0999 51.8543 76.6535 51.2553 76.6535 50.5077C76.6535 49.76 76.0999 49.161 75.2892 49.161ZM75.2991 51.2602C74.8838 51.2602 74.5773 50.9433 74.5773 50.5077C74.5773 50.072 74.8838 49.7551 75.2991 49.7551C75.6995 49.7551 76.001 50.072 76.001 50.5077C76.001 50.9384 75.6995 51.2602 75.2991 51.2602Z" fill="#22967E"/>
<path d="M77.2262 51.7553H77.854V50.1264C77.9479 49.968 78.116 49.7551 78.4323 49.7551C78.7388 49.7551 78.9267 49.963 78.9267 50.2948V51.7553H79.5594V50.27C79.5594 49.5323 79.1293 49.161 78.5905 49.161C78.2593 49.161 78.027 49.2897 77.854 49.458V49.26H77.2262V51.7553Z" fill="#22967E"/>
<path d="M82.3066 51.8296C82.5983 51.8296 82.8949 51.7058 83.0531 51.5127V51.7553H83.6809V50.1413C83.6809 49.5917 83.3101 49.161 82.5884 49.161C82.1336 49.161 81.7678 49.3491 81.5454 49.6561L82.0051 50.0076C82.1386 49.8244 82.3264 49.7105 82.5686 49.7105C82.8553 49.7105 83.0531 49.8789 83.0531 50.1413V50.2056L82.2918 50.3344C81.7579 50.4235 81.4663 50.7057 81.4663 51.082C81.4663 51.5424 81.8073 51.8296 82.3066 51.8296ZM82.0891 51.0523C82.0891 50.8988 82.1979 50.7899 82.4599 50.7453L83.0531 50.6463V50.9978C82.9295 51.1959 82.7219 51.3295 82.4352 51.3295C82.2226 51.3295 82.0891 51.2206 82.0891 51.0523Z" fill="#22967E"/>
<path d="M84.1823 51.3939C84.4196 51.6761 84.7359 51.8543 85.1808 51.8543C85.6504 51.8543 86.0706 51.5672 86.0805 51.0424C86.0805 50.1809 84.8892 50.3294 84.8892 49.9036C84.8892 49.7749 84.9831 49.666 85.1808 49.666C85.3736 49.666 85.5367 49.7947 85.6653 49.9531L86.0805 49.5868C85.9025 49.3442 85.5565 49.161 85.1759 49.161C84.6568 49.161 84.2861 49.4927 84.2861 49.9333C84.2861 50.8097 85.4774 50.6463 85.4774 51.082C85.4774 51.2305 85.3736 51.3493 85.1709 51.3493C84.9337 51.3493 84.7508 51.2107 84.5975 51.0176L84.1823 51.3939Z" fill="#22967E"/>
<path d="M86.4077 51.3939C86.645 51.6761 86.9614 51.8543 87.4063 51.8543C87.8759 51.8543 88.2961 51.5672 88.306 51.0424C88.306 50.1809 87.1146 50.3294 87.1146 49.9036C87.1146 49.7749 87.2086 49.666 87.4063 49.666C87.5991 49.666 87.7622 49.7947 87.8907 49.9531L88.306 49.5868C88.128 49.3442 87.782 49.161 87.4013 49.161C86.8823 49.161 86.5115 49.4927 86.5115 49.9333C86.5115 50.8097 87.7029 50.6463 87.7029 51.082C87.7029 51.2305 87.5991 51.3493 87.3964 51.3493C87.1591 51.3493 86.9762 51.2107 86.823 51.0176L86.4077 51.3939Z" fill="#22967E"/>
<path d="M90.0612 49.161C89.2505 49.161 88.6969 49.76 88.6969 50.5077C88.6969 51.2553 89.2505 51.8543 90.0612 51.8543C90.8719 51.8543 91.4256 51.2553 91.4256 50.5077C91.4256 49.76 90.8719 49.161 90.0612 49.161ZM90.0711 51.2602C89.6559 51.2602 89.3494 50.9433 89.3494 50.5077C89.3494 50.072 89.6559 49.7551 90.0711 49.7551C90.4715 49.7551 90.7731 50.072 90.7731 50.5077C90.7731 50.9384 90.4715 51.2602 90.0711 51.2602Z" fill="#22967E"/>
<path d="M93.2186 51.2602C92.7985 51.2602 92.4969 50.9483 92.4969 50.5077C92.4969 50.072 92.7985 49.7551 93.2087 49.7551C93.4658 49.7551 93.6635 49.869 93.7822 50.0423L94.2716 49.666C94.0392 49.359 93.6734 49.161 93.2186 49.161C92.3585 49.161 91.8444 49.7798 91.8444 50.5077C91.8444 51.2355 92.3585 51.8543 93.2186 51.8543C93.6734 51.8543 94.0392 51.6563 94.2716 51.3493L93.7822 50.9731C93.6635 51.1463 93.4658 51.2602 93.2186 51.2602Z" fill="#22967E"/>
<path d="M95.0566 48.8243C95.279 48.8243 95.4619 48.6361 95.4619 48.4133C95.4619 48.1906 95.279 48.0024 95.0566 48.0024C94.8341 48.0024 94.6463 48.1906 94.6463 48.4133C94.6463 48.6361 94.8341 48.8243 95.0566 48.8243ZM94.7402 51.7553H95.368V49.26H94.7402V51.7553Z" fill="#22967E"/>
<path d="M97.5693 48.8639L98.1625 48.042H97.4803L96.9662 48.8639H97.5693ZM98.4146 51.3493L97.9647 50.9929C97.8313 51.1711 97.594 51.2899 97.3221 51.2899C96.9316 51.2899 96.6449 51.1018 96.5855 50.6364H98.3305C98.3503 50.5522 98.3701 50.4235 98.3701 50.2849C98.3701 49.6313 97.9153 49.161 97.2232 49.161C96.4076 49.161 95.9429 49.7699 95.9429 50.5077C95.9429 51.2355 96.4422 51.8543 97.327 51.8543C97.7967 51.8543 98.1822 51.6613 98.4146 51.3493ZM97.2084 49.6759C97.5594 49.6759 97.7423 49.9284 97.7522 50.1809H96.6053C96.6745 49.8541 96.8871 49.6759 97.2084 49.6759Z" fill="#22967E"/>
<path d="M101.258 51.3493L100.808 50.9929C100.675 51.1711 100.437 51.2899 100.165 51.2899C99.775 51.2899 99.4882 51.1018 99.4289 50.6364H101.174C101.194 50.5522 101.213 50.4235 101.213 50.2849C101.213 49.6313 100.759 49.161 100.067 49.161C99.251 49.161 98.7863 49.7699 98.7863 50.5077C98.7863 51.2355 99.2856 51.8543 100.17 51.8543C100.64 51.8543 101.026 51.6613 101.258 51.3493ZM100.052 49.6759C100.403 49.6759 100.586 49.9284 100.596 50.1809H99.4487C99.5179 49.8541 99.7305 49.6759 100.052 49.6759Z" fill="#22967E"/>
</g>
<g filter="url(#filter1_d_17550_12903)">
<rect x="18.5635" y="59.1819" width="51.0811" height="9.90214" rx="2" fill="#FFF4F2"/>
<g clip-path="url(#clip0_17550_12903)">
<path d="M26.4935 64.4424L26.4935 65.3708L24.6398 65.3708L24.6398 64.4424L22.4771 64.4424L22.4771 66.6085C22.4771 66.6906 22.5096 66.7693 22.5676 66.8273C22.6255 66.8854 22.7041 66.918 22.786 66.918L28.3473 66.918C28.4292 66.918 28.5078 66.8854 28.5658 66.8273C28.6237 66.7693 28.6562 66.6906 28.6562 66.6085L28.6562 64.4424L26.4935 64.4424ZM25.8756 63.8235L25.2577 63.8235L25.2577 64.7519L25.8756 64.7519L25.8756 63.8235ZM27.1115 61.9669L27.1115 61.0386C27.1115 60.9565 27.0789 60.8778 27.021 60.8198C26.963 60.7617 26.8844 60.7291 26.8025 60.7291L24.3308 60.7291C24.2489 60.7291 24.1703 60.7617 24.1124 60.8198C24.0544 60.8778 24.0219 60.9565 24.0219 61.0386L24.0219 61.9669L22.786 61.9669C22.7041 61.9669 22.6255 61.9995 22.5676 62.0575C22.5096 62.1156 22.4771 62.1943 22.4771 62.2763L22.4771 63.8235L24.6398 63.8235L24.6398 63.2047L26.4935 63.2047L26.4935 63.8235L28.6562 63.8235L28.6562 62.2763C28.6562 62.1943 28.6237 62.1156 28.5658 62.0575C28.5078 61.9995 28.4292 61.9669 28.3473 61.9669L27.1115 61.9669ZM26.4935 61.348L26.4935 61.9669L24.6398 61.9669L24.6398 61.348L26.4935 61.348Z" fill="#D07C75"/>
</g>
<path d="M32.9737 62.6312C31.8812 62.6312 31.1348 63.4728 31.1348 64.4631C31.1348 65.4533 31.8812 66.295 32.9737 66.295C34.0612 66.295 34.8077 65.4533 34.8077 64.4631C34.8077 63.4728 34.0612 62.6312 32.9737 62.6312ZM32.9737 65.6365C32.3212 65.6365 31.8565 65.1265 31.8565 64.4631C31.8565 63.7996 32.3212 63.2897 32.9737 63.2897C33.6213 63.2897 34.0859 63.7996 34.0859 64.4631C34.0859 65.1265 33.6213 65.6365 32.9737 65.6365Z" fill="#D07C75"/>
<path d="M35.1286 63.7006V64.265H35.5932V66.1959H36.226V64.265H36.9872V63.7006H36.226V63.4233C36.226 63.1956 36.3644 63.0471 36.5769 63.0471C36.7055 63.0471 36.8043 63.0916 36.8785 63.1461L37.1454 62.6213C36.9872 62.5371 36.7945 62.4826 36.5671 62.4826C35.9442 62.4826 35.5932 62.9084 35.5932 63.4382V63.7006H35.1286Z" fill="#D07C75"/>
<path d="M37.2333 63.7006V64.265H37.698V66.1959H38.3307V64.265H39.092V63.7006H38.3307V63.4233C38.3307 63.1956 38.4692 63.0471 38.6817 63.0471C38.8102 63.0471 38.9091 63.0916 38.9833 63.1461L39.2502 62.6213C39.092 62.5371 38.8992 62.4826 38.6718 62.4826C38.049 62.4826 37.698 62.9084 37.698 63.4382V63.7006H37.2333Z" fill="#D07C75"/>
<path d="M39.4901 66.1959H40.1179V64.5967C40.2118 64.4383 40.4096 64.27 40.7161 64.27C40.8298 64.27 40.9138 64.2848 40.9929 64.3046V63.6857C40.9336 63.6659 40.8594 63.6511 40.7754 63.6511C40.4936 63.6511 40.281 63.7798 40.1179 63.9481V63.7006H39.4901V66.1959Z" fill="#D07C75"/>
<path d="M43.6858 65.7899L43.236 65.4335C43.1025 65.6117 42.8652 65.7305 42.5934 65.7305C42.2028 65.7305 41.9161 65.5424 41.8568 65.077H43.6018C43.6216 64.9928 43.6413 64.8641 43.6413 64.7255C43.6413 64.0719 43.1866 63.6016 42.4945 63.6016C41.6788 63.6016 41.2142 64.2106 41.2142 64.9483C41.2142 65.6761 41.7135 66.295 42.5983 66.295C43.0679 66.295 43.4535 66.1019 43.6858 65.7899ZM42.4797 64.1165C42.8306 64.1165 43.0135 64.369 43.0234 64.6215H41.8766C41.9458 64.2947 42.1583 64.1165 42.4797 64.1165Z" fill="#D07C75"/>
<path d="M45.4092 64.9483C45.4092 65.6761 45.8887 66.295 46.6747 66.295C47.0109 66.295 47.2531 66.191 47.4459 65.9979V66.1959H48.0786V62.4826H47.4459V63.8986C47.2531 63.7055 47.0109 63.6016 46.6747 63.6016C45.8887 63.6016 45.4092 64.2205 45.4092 64.9483ZM46.0667 64.9483C46.0667 64.5126 46.3386 64.1957 46.7637 64.1957C47.0455 64.1957 47.2778 64.3145 47.4459 64.5423V65.3543C47.2778 65.582 47.0455 65.7008 46.7637 65.7008C46.3386 65.7008 46.0667 65.384 46.0667 64.9483Z" fill="#D07C75"/>
<path d="M49.1665 64.1561L49.7399 62.7302H49.0281L48.5832 64.1561H49.1665Z" fill="#D07C75"/>
<path d="M52.2498 65.7899L51.7999 65.4335C51.6665 65.6117 51.4292 65.7305 51.1573 65.7305C50.7668 65.7305 50.4801 65.5424 50.4207 65.077H52.1657C52.1855 64.9928 52.2053 64.8641 52.2053 64.7255C52.2053 64.0719 51.7505 63.6016 51.0584 63.6016C50.2428 63.6016 49.7781 64.2106 49.7781 64.9483C49.7781 65.6761 50.2774 66.295 51.1622 66.295C51.6319 66.295 52.0174 66.1019 52.2498 65.7899ZM51.0436 64.1165C51.3946 64.1165 51.5775 64.369 51.5874 64.6215H50.4405C50.5097 64.2947 50.7223 64.1165 51.0436 64.1165Z" fill="#D07C75"/>
<path d="M52.8188 66.1959H53.4466V64.567C53.5405 64.4086 53.6888 64.1957 53.9755 64.1957C54.2573 64.1957 54.4204 64.3838 54.4204 64.6859V66.1959H55.0531V64.6611C55.0531 64.6215 55.0531 64.5868 55.0482 64.5522C55.1471 64.3838 55.2954 64.1957 55.5672 64.1957C55.849 64.1957 56.0121 64.3838 56.0121 64.6859V66.1959H56.6449V64.6611C56.6449 63.9581 56.2395 63.6016 55.7254 63.6016C55.3053 63.6016 55.068 63.7897 54.89 64.0076C54.7269 63.7402 54.4501 63.6016 54.1337 63.6016C53.8272 63.6016 53.6146 63.7254 53.4466 63.8887V63.7006H52.8188V66.1959Z" fill="#D07C75"/>
<path d="M57.3614 67.4139H57.9892V65.9929C58.182 66.186 58.4242 66.295 58.7653 66.295C59.5562 66.295 60.0308 65.6761 60.0308 64.9483C60.0308 64.2205 59.5562 63.6016 58.7653 63.6016C58.4242 63.6016 58.182 63.7105 57.9892 63.9036V63.7006H57.3614V67.4139ZM58.6763 64.1957C59.1015 64.1957 59.3783 64.5126 59.3783 64.9483C59.3783 65.384 59.1015 65.7008 58.6763 65.7008C58.3896 65.7008 58.1573 65.5771 57.9892 65.3394V64.5571C58.1474 64.3244 58.3847 64.1957 58.6763 64.1957Z" fill="#D07C75"/>
<path d="M60.6055 66.1959H61.2333V62.4826H60.6055V66.1959Z" fill="#D07C75"/>
<path d="M63.1725 63.6016C62.3618 63.6016 61.8082 64.2007 61.8082 64.9483C61.8082 65.6959 62.3618 66.295 63.1725 66.295C63.9832 66.295 64.5369 65.6959 64.5369 64.9483C64.5369 64.2007 63.9832 63.6016 63.1725 63.6016ZM63.1824 65.7008C62.7672 65.7008 62.4607 65.384 62.4607 64.9483C62.4607 64.5126 62.7672 64.1957 63.1824 64.1957C63.5828 64.1957 63.8844 64.5126 63.8844 64.9483C63.8844 65.379 63.5828 65.7008 63.1824 65.7008Z" fill="#D07C75"/>
<path d="M65.4259 63.2649C65.6483 63.2649 65.8312 63.0768 65.8312 62.854C65.8312 62.6312 65.6483 62.443 65.4259 62.443C65.2034 62.443 65.0156 62.6312 65.0156 62.854C65.0156 63.0768 65.2034 63.2649 65.4259 63.2649ZM65.1095 66.1959H65.7373V63.7006H65.1095V66.1959Z" fill="#D07C75"/>
</g>
<defs>
<filter id="filter0_d_17550_12903" x="24.793" y="26.7413" width="98.2031" height="45.9021" filterUnits="userSpaceOnUse" color-interpolation-filters="sRGB">
<feFlood flood-opacity="0" result="BackgroundImageFix"/>
<feColorMatrix in="SourceAlpha" type="matrix" values="0 0 0 0 0 0 0 0 0 0 0 0 0 0 0 0 0 0 127 0" result="hardAlpha"/>
<feMorphology radius="6" operator="dilate" in="SourceAlpha" result="effect1_dropShadow_17550_12903"/>
<feOffset/>
<feGaussianBlur stdDeviation="6"/>
<feColorMatrix type="matrix" values="0 0 0 0 0.475 0 0 0 0 0.475 0 0 0 0 0.475 0 0 0 0.4 0"/>
<feBlend mode="normal" in2="BackgroundImageFix" result="effect1_dropShadow_17550_12903"/>
<feBlend mode="normal" in="SourceGraphic" in2="effect1_dropShadow_17550_12903" result="shape"/>
</filter>
<filter id="filter1_d_17550_12903" x="0.563477" y="41.1819" width="87.0811" height="45.9021" filterUnits="userSpaceOnUse" color-interpolation-filters="sRGB">
<feFlood flood-opacity="0" result="BackgroundImageFix"/>
<feColorMatrix in="SourceAlpha" type="matrix" values="0 0 0 0 0 0 0 0 0 0 0 0 0 0 0 0 0 0 127 0" result="hardAlpha"/>
<feMorphology radius="6" operator="dilate" in="SourceAlpha" result="effect1_dropShadow_17550_12903"/>
<feOffset/>
<feGaussianBlur stdDeviation="6"/>
<feColorMatrix type="matrix" values="0 0 0 0 0.475 0 0 0 0 0.475 0 0 0 0 0.475 0 0 0 0.4 0"/>
<feBlend mode="normal" in2="BackgroundImageFix" result="effect1_dropShadow_17550_12903"/>
<feBlend mode="normal" in="SourceGraphic" in2="effect1_dropShadow_17550_12903" result="shape"/>
</filter>
<clipPath id="clip0_17550_12903">
<rect width="7.41499" height="7.42661" fill="white" transform="matrix(-1 -8.75597e-08 -8.72861e-08 1 29.2744 60.4197)"/>
</clipPath>
</defs>
</svg>
