<svg xmlns="http://www.w3.org/2000/svg" width="212" height="145" fill="none" xmlns:v="https://vecta.io/nano"><style><![CDATA[.B{fill:#2e186a}.C{fill:#fff}.D{fill-rule:evenodd}.E{fill:#ff8d7e}]]></style><path d="M184.694 74.524l-.003-.003V53.57c0-1.846-1.496-3.342-3.341-3.342H45.09c-1.845 0-3.341 1.496-3.341 3.342v74.375h137 2.602a3.34 3.34 0 0 0 3.342-3.342l.003-28.745" fill="#6a6af4"/><g class="B D"><path d="M41.749 57.119c0-.252.204-.456.456-.456h136.544c.251 0 .455.204.455.456s-.204.456-.455.456H42.204c-.252 0-.456-.204-.456-.456z"/><path d="M174.902 50.683c0-.252.204-.456.456-.456 2.124 0 3.845 1.722 3.845 3.847v70.731a3.8 3.8 0 0 1-3.797 3.798c-.251 0-.455-.204-.455-.456s.204-.456.455-.456c1.594 0 2.886-1.292 2.886-2.886V54.074c0-1.621-1.313-2.935-2.934-2.935-.252 0-.456-.204-.456-.456z"/></g><use href="#B" class="B"/><use href="#B" x="5.881" class="B"/><use href="#B" x="11.761" class="B"/><path d="M63.761 99.409l-18.916-2.303s-5.22-1.331-7.376.59c-2.53.012-4.695 1.009-6.537 2.566-1.502-.328-5.246-.759-6.065 2.824-.799 3.501-1.42 8.565-1.659 10.657-1.016 3.222-1.447 5.642-1.447 5.642l-14.99-.067c-4.737.272-7.663 6.026-6.536 12.85 1.103 6.673 5.672 11.9 10.303 11.876l29.583.07.071-.151 8.425-24.801c-1.148-1.226-2.357-2.522-2.391-3.675-.12-4.192 2.538-8.972 2.538-8.972l9.9.368c7.351.295 5.097-7.475 5.097-7.475l-.002.002z" class="E"/><path d="M46.345 96.844s.001 0-.116.441l.117-.441c.243.065.388.314.323.558s-.312.387-.555.324l-.101-.019c-.077-.012-.194-.025-.344-.028a3.53 3.53 0 0 0-1.224.206c-.978.344-2.289 1.246-3.391 3.589l-2.773 6.433-.807 2.085-.215.579-.055.152-.014.039-.004.012-.429-.154-.429-.154h0l.005-.014.014-.04.056-.155.218-.586.813-2.101 2.795-6.484c1.19-2.53 2.672-3.625 3.914-4.061a4.43 4.43 0 0 1 1.542-.257 3.52 3.52 0 0 1 .465.038l.134.024.04.009.017.004h.002.001zm-9.588 13.777l-.429-.154c-.085.237.038.498.275.583s.498-.038.583-.275l-.429-.154zm9.355-12.895h0zm-8.386.345h0 .001m-.001 0h0m-.258-.376l-.257-.376h0l-.001.001-.002.002-.006.004-.019.014-.064.048-.223.186a8.61 8.61 0 0 0-.767.782c-.632.724-1.475 1.877-2.355 3.618-.876 1.735-1.539 3.465-1.983 4.76l-.502 1.567-.127.442-.032.117-.008.031-.002.008-.001.004.441.115-.441-.115c-.064.243.082.492.325.556s.492-.082.556-.325v-.002l.002-.007.007-.027.03-.111.123-.427.491-1.531c.435-1.269 1.083-2.958 1.934-4.643" class="C D"/><path d="M72.19 94.716l-3.161 8.954-28.42 25.87-3.931-3.427-2.887-3.224 28.88-26.262 9.519-1.911z" class="C"/><g class="B"><path d="M70.699 98.943l1.491-4.227-4.739.953 3.247 3.274z"/><path d="M67.175 100.707c.166.189.148.477-.041.644l-25.678 22.635c-.189.166-.477.148-.643-.041s-.148-.476.041-.643l25.678-22.635c.189-.167.477-.148.643.04zm-1.93-2.006c.165.19.146.478-.044.643l-25.973 22.667c-.19.165-.477.146-.643-.044s-.146-.477.044-.643l25.973-22.667c.19-.166.477-.146.643.044z" class="D"/></g><path d="M38.506 121.514l-4.633 1.256-1.227 4.642 3.404 3.385 4.633-1.257 1.227-4.641-3.404-3.385z" fill="#6a6af4"/><path d="M37.277 127.675a1.52 1.52 0 0 0 1.519-1.52 1.52 1.52 0 0 0-1.519-1.519 1.52 1.52 0 0 0-1.519 1.519 1.52 1.52 0 0 0 1.519 1.52z" class="B"/><path d="M45.923 125.438s.343-.931 2.696-6.274 6.077-9.853 10.684-8.578.931 8.578.931 8.578-5.465 14.926-7.743 17.426-5.219 7.672-12.791 7.365m108.222-23.347c1.488 5.599 10.567 5.769 9.71-2.983-.006-3.89 7.144-4.821 10.57-.742 0 0 .851.404 1.791 5.41 1.233 6.474-3.709 15.597-9.949 9.733-5.787-2.901-9.563 4.396-2.716 10.517 5.558 4.968 16.846 1.913 21.231-4.799l27 1.044c5.992.024 10.291-29.841 1.191-30.87l-17.807-.807s-11.587-12.913-14.737-13.963-4.684 2.306-4.684 2.306-6.326-6.3-9.522-6.18c-4.462.169-3.767 3.379-3.767 3.379s-6.709-2.334-6.532 3.851c.085 3.025 3.388 6.393 6.71 9.026l-.293.076c-8.284 2.312-9.777 9.052-8.194 15.004l-.002-.002zm20.312-3.687c.009.012.02.025.029.034-.008-.009-.017-.02-.029-.034zm.04.046h0z" class="E"/><path d="M155.363 104.913c2.84-.793 5.912-.693 8.619.059.242.068.384.319.317.561s-.319.385-.561.317c-2.564-.712-5.467-.803-8.129-.059l-.738.224c-.239.078-.496-.053-.574-.292s.052-.496.291-.575l.774-.235h.001 0zm-.205-13.253c.146-.205.431-.252.635-.106 4.025 2.876 8.214 6.927 11.388 10.246a144.23 144.23 0 0 1 3.87 4.213l1.097 1.262.291.342.076.089.019.023.006.007v.001s.001 0-.349.292l-.35.292-.006-.007-.018-.022c-.017-.019-.041-.049-.074-.087l-.287-.338-1.088-1.251c-.936-1.061-2.267-2.534-3.846-4.186-3.162-3.307-7.304-7.308-11.258-10.134-.205-.146-.252-.431-.106-.636zm17.325 16.719c-.193.161-.481.135-.642-.058l.35-.292.35-.292c.161.193.135.481-.058.642zm-3.536-14.191c.183-.172.472-.162.644.022l-.333.311-.333.311c-.172-.184-.162-.472.022-.644zm.311.333l-.333.311.117.125.333.357 1.199 1.294 3.744 4.086 4.026 4.524 2.473 3.056c.136.211.418.272.63.135s.272-.419.135-.63c-.403-.623-1.363-1.787-2.549-3.158l-4.04-4.54-3.75-4.092-1.201-1.296-.334-.358-.117-.126-.333.311zm11.542 37.706c.251.015.443.232.427.483-.117 1.92-.753 3.276-1.715 4.814-.133.213-.414.278-.628.145s-.278-.415-.144-.628c.921-1.473 1.473-2.679 1.578-4.387.015-.251.231-.442.482-.427z" class="C D"/><path d="M91.819 99.86V84.024c2.65-1.246 4.491-3.932 4.491-7.055 0-3.932-2.912-7.176-6.695-7.712v6.942c0 .62-.503 1.123-1.122 1.123s-1.123-.503-1.123-1.123v-6.935c-3.762.555-6.653 3.787-6.653 7.706 0 3.124 1.839 5.81 4.491 7.055V99.86c-2.65 1.246-4.491 3.932-4.491 7.056 0 3.918 2.89 7.151 6.653 7.705v-6.935c0-.62.503-1.123 1.123-1.123s1.122.503 1.122 1.123v6.941c3.784-.536 6.695-3.78 6.695-7.711 0-3.124-1.839-5.81-4.491-7.056z" class="C"/><g class="E"><path d="M112.365 76.897h-1.41v26.53h1.41v-26.53z"/><path d="M113.932 69.206h-4.287l-1.636 8.332h7.559l-1.636-8.332z"/></g><g class="B"><path d="M119.066 96.547h-14.8v1.503h14.8v-1.503z"/><path d="M107.497 97.297h8.073v14.823a4.04 4.04 0 0 1-4.036 4.037 4.04 4.04 0 0 1-4.036-4.037V97.297h-.001z"/></g><path d="M134.015 67.778l4.563 8.329.32 38.434h-5.175-4.327l-.305-38.392 4.924-8.371z" class="C"/><path d="M136.167 71.708l-2.152-3.93-2.451 4.167 4.603-.237z" class="E"/><g class="B"><path d="M88.477 82.12c.755 0 1.367-.612 1.367-1.367s-.612-1.367-1.367-1.367-1.367.612-1.367 1.367.612 1.367 1.367 1.367zm0 21.877c.755 0 1.367-.612 1.367-1.367a1.37 1.37 0 0 0-1.367-1.368 1.37 1.37 0 0 0-1.367 1.368c0 .755.612 1.367 1.367 1.367z"/><g class="D"><use href="#C"/><use href="#C" x="-3.645"/></g></g><g class="C"><path d="M125.392 131.299h26.5v-6.654h-26.5l-6.081 3.327 6.081 3.327z"/><path d="M151.892 121.316a5.4 5.4 0 0 1 5.392 5.394v2.984c0 2.976-2.416 5.393-5.392 5.393v-13.769-.002z"/></g><g class="B D"><path d="M125.833 123.149c.241-.073.495.063.568.304l2.639 8.72c.072.241-.064.496-.305.568s-.495-.063-.568-.304l-2.638-8.72c-.073-.241.063-.496.304-.568zm3.304 0c.24-.073.495.063.568.304l2.64 8.72c.073.241-.064.496-.304.568s-.496-.063-.569-.304l-2.639-8.72c-.073-.241.063-.496.304-.568z"/><use href="#D"/><path d="M135.745 123.149c.241-.073.496.063.568.304l2.639 8.72c.073.241-.064.496-.304.568s-.496-.063-.569-.304l-2.638-8.72c-.073-.241.063-.496.304-.568z"/><use href="#D" x="6.607"/><path d="M142.352 123.149c.241-.073.496.063.569.304l2.638 8.72c.073.241-.063.496-.304.568s-.495-.063-.568-.304l-2.639-8.72c-.073-.241.064-.496.304-.568zm11.837 5.053c0-.252.204-.456.456-.456h2.638c.252 0 .456.204.456.456s-.204.456-.456.456h-2.638c-.252 0-.456-.205-.456-.456z"/></g><path d="M120.318 22.222c-1.913-1.012-4.385-1.633-7.624-1.7 2.306-5.65 8.049-12.608 8.049-12.608s7.839-5.447-10.489-7.868C96.537-.762 91.119 9.5 91.119 9.5S77.862 26.448 80.052 41.437c-2.075 4.497-3.496 13.836 1.653 20.984 2.939 4.535 7.07.462 4.765-5.226-1.826-3.835 0-7.226 0-7.226s3.459 5.15 9.683 6.841 8.837-1.384 8.837-1.384 4.475.248 4.159-2.066c2.426 1.759 6.356 1.679 9.239-.906s4.893-5.252 2.587-6.982-4.066-.071-5.764 1.844c-2.101 2.37-5.225-2.396-5.43-4.394-.406-3.949-1.332-8.979.512-9.439.528-.132 1.321-.428 2.199-.723 1.447-3.991 4.876-7.803 7.827-10.541v.002z" class="E"/><path d="M93.873 46.379l-.436.131.436-.131h0l.001.003.027.084.095.268.409.976a14.88 14.88 0 0 0 1.831 2.973c1.717 2.154 4.485 4.287 8.753 4.287.252 0 .456.204.456.456s-.204.456-.456.456c-4.62 0-7.629-2.326-9.466-4.63a15.8 15.8 0 0 1-1.945-3.157 14.1 14.1 0 0 1-.437-1.044l-.105-.297-.026-.081-.007-.022-.002-.006-.001-.002v-.001a36.78 36.78 0 0 1 .436-.131m7.786-3.998l-.453-.044v.001.002l-.001.006c0 .005-.001.012-.002.02l-.004.071-.009.257a8.72 8.72 0 0 0 .039.921 10.91 10.91 0 0 0 .729 3.019c.944 2.374 3.012 5.18 7.452 7.014.232.096.499-.015.595-.247s-.015-.499-.248-.595c-4.201-1.735-6.095-4.352-6.953-6.508-.431-1.084-.603-2.062-.668-2.765a8.19 8.19 0 0 1-.035-.825c.001-.096.005-.169.007-.217l.004-.052.001-.013c.024-.25-.159-.473-.409-.498s-.473.158-.498.409l.453.045z" class="C D"/><path d="M128.804 49.684a3.19 3.19 0 1 0 0-6.381 3.19 3.19 0 1 0 0 6.381z" class="B"/><path d="M143.157 48.848v-4.71h-3.519a11 11 0 0 0-1.481-3.596l2.482-2.482-3.329-3.33-2.466 2.466a11.01 11.01 0 0 0-3.611-1.522v-3.461h-4.709v3.426a11.01 11.01 0 0 0-3.671 1.498l-2.406-2.407-3.329 3.33 2.389 2.39a11.01 11.01 0 0 0-1.54 3.689h-3.368v4.71h3.368a10.99 10.99 0 0 0 1.54 3.689l-2.389 2.39 3.329 3.33 2.406-2.407a11 11 0 0 0 3.671 1.498v3.426h4.709v-3.461a11.01 11.01 0 0 0 3.611-1.522l2.466 2.466 3.329-3.33-2.482-2.482a11.03 11.03 0 0 0 1.481-3.596h3.519zm-14.353 4.482a6.84 6.84 0 0 1-6.835-6.837 6.84 6.84 0 0 1 6.835-6.837 6.84 6.84 0 0 1 6.835 6.837 6.84 6.84 0 0 1-6.835 6.837z" class="C"/><path d="M120.318 22.222c-2.951 2.738-6.38 6.55-7.827 10.541 2.183-.732 4.904-1.456 5.48.352.807 2.537.691 6.572 4.611 5.65s3.1-11.324 1.026-13.862c-.862-1.051-1.934-1.964-3.289-2.681h-.001z" class="E"/><defs ><path id="B" d="M49.943 55.547c.975 0 1.765-.79 1.765-1.765s-.79-1.765-1.765-1.765-1.765.79-1.765 1.765.79 1.765 1.765 1.765z"/><path id="C" d="M135.672 75.613c.251-.001.456.202.457.454l.152 36.687c.001.251-.202.456-.454.457s-.456-.202-.457-.454l-.152-36.687c-.001-.252.202-.457.454-.458z"/><path id="D" d="M132.442 123.149c.241-.073.495.063.568.304l2.638 8.72c.073.241-.063.496-.304.568s-.495-.063-.568-.304l-2.638-8.72c-.073-.241.063-.496.304-.568z"/></defs></svg>