<svg width="212" height="145" viewBox="0 0 212 145" fill="none" xmlns="http://www.w3.org/2000/svg">
<path d="M184.694 74.5235L184.691 74.5205V53.57C184.691 51.7241 183.195 50.2277 181.35 50.2277H45.0903C43.2449 50.2277 41.7488 51.7241 41.7488 53.57V127.945H178.749H181.351C183.197 127.945 184.693 126.449 184.693 124.603L184.696 95.8584" fill="#6A6AF4"/>
<path fill-rule="evenodd" clip-rule="evenodd" d="M41.7488 57.119C41.7488 56.8673 41.9528 56.6632 42.2044 56.6632H178.748C178.999 56.6632 179.203 56.8673 179.203 57.119C179.203 57.3707 178.999 57.5748 178.748 57.5748H42.2044C41.9528 57.5748 41.7488 57.3707 41.7488 57.119Z" fill="#2E186A"/>
<path fill-rule="evenodd" clip-rule="evenodd" d="M174.902 50.6834C174.902 50.4317 175.106 50.2277 175.358 50.2277C177.482 50.2277 179.203 51.9495 179.203 54.0744V124.805C179.203 126.902 177.503 128.603 175.406 128.603C175.155 128.603 174.951 128.399 174.951 128.147C174.951 127.895 175.155 127.691 175.406 127.691C177 127.691 178.292 126.399 178.292 124.805V54.0744C178.292 52.4529 176.979 51.1392 175.358 51.1392C175.106 51.1392 174.902 50.9352 174.902 50.6834Z" fill="#2E186A"/>
<path d="M49.9432 55.5466C50.9179 55.5466 51.7081 54.7562 51.7081 53.7812C51.7081 52.8063 50.9179 52.0159 49.9432 52.0159C48.9684 52.0159 48.1782 52.8063 48.1782 53.7812C48.1782 54.7562 48.9684 55.5466 49.9432 55.5466Z" fill="#2E186A"/>
<path d="M55.8243 55.5466C56.799 55.5466 57.5892 54.7562 57.5892 53.7812C57.5892 52.8063 56.799 52.0159 55.8243 52.0159C54.8495 52.0159 54.0593 52.8063 54.0593 53.7812C54.0593 54.7562 54.8495 55.5466 55.8243 55.5466Z" fill="#2E186A"/>
<path d="M61.7039 55.5466C62.6787 55.5466 63.4689 54.7562 63.4689 53.7812C63.4689 52.8063 62.6787 52.0159 61.7039 52.0159C60.7292 52.0159 59.939 52.8063 59.939 53.7812C59.939 54.7562 60.7292 55.5466 61.7039 55.5466Z" fill="#2E186A"/>
<path d="M63.7605 99.4089L44.8443 97.1057C44.8443 97.1057 39.6239 95.7748 37.4686 97.6952C34.9382 97.7073 32.7737 98.704 30.9313 100.261C29.4292 99.933 25.6851 99.5016 24.8664 103.085C24.0675 106.586 23.4463 111.65 23.2078 113.742C22.1917 116.964 21.7603 119.384 21.7603 119.384L6.77041 119.317C2.033 119.589 -0.892373 125.343 0.234641 132.167C1.33735 138.84 5.90616 144.067 10.5372 144.043L40.1206 144.113C40.1206 144.113 40.1449 144.06 40.192 143.962L48.6172 119.161C47.469 117.935 46.2599 116.639 46.2265 115.486C46.1065 111.294 48.7646 106.514 48.7646 106.514C48.7646 106.514 51.3133 106.587 58.6647 106.882C66.0161 107.177 63.7621 99.4074 63.7621 99.4074L63.7605 99.4089Z" fill="#FF8D7E"/>
<path fill-rule="evenodd" clip-rule="evenodd" d="M46.3445 96.8443C46.3449 96.8444 46.3452 96.8445 46.2281 97.285L46.3452 96.8445C46.5884 96.9092 46.7331 97.1589 46.6684 97.4021C46.604 97.6445 46.356 97.7891 46.1137 97.7262C46.1134 97.7261 46.113 97.726 46.1124 97.7259C46.1099 97.7253 46.1044 97.724 46.0961 97.7222C46.0794 97.7187 46.0515 97.7132 46.0132 97.7074C45.9366 97.6957 45.8194 97.6825 45.6695 97.6798C45.3698 97.6746 44.9414 97.7115 44.4453 97.8857C43.4673 98.2292 42.1561 99.1317 41.0539 101.475C39.9374 103.849 38.9699 106.175 38.2811 107.908C37.9369 108.774 37.6626 109.492 37.4744 109.993C37.3804 110.243 37.3079 110.439 37.259 110.572C37.2345 110.639 37.216 110.69 37.2036 110.724L37.1896 110.763L37.1852 110.775L36.7563 110.621C36.3275 110.467 36.3275 110.467 36.3275 110.467L36.3276 110.467L36.3325 110.453L36.347 110.413C36.3597 110.378 36.3786 110.326 36.4035 110.258C36.4531 110.123 36.5264 109.925 36.6214 109.672C36.8112 109.167 37.0876 108.444 37.4342 107.571C38.1273 105.827 39.1024 103.483 40.2293 101.087C41.4191 98.5573 42.9012 97.4619 44.1434 97.0257C44.7574 96.81 45.2959 96.7616 45.6855 96.7684C45.8803 96.7719 46.0383 96.7891 46.1509 96.8063C46.2072 96.8149 46.2522 96.8235 46.2849 96.8304C46.3013 96.8339 46.3146 96.837 46.3247 96.8394C46.3297 96.8406 46.334 96.8416 46.3374 96.8425L46.3419 96.8437L46.3437 96.8441L46.3445 96.8443ZM36.7563 110.621L36.3275 110.467C36.2424 110.704 36.3654 110.965 36.6022 111.05C36.839 111.135 37.1 111.012 37.1852 110.775L36.7563 110.621ZM46.1116 97.7256C46.1116 97.7256 46.1116 97.7256 46.1116 97.7256V97.7256Z" fill="white"/>
<path fill-rule="evenodd" clip-rule="evenodd" d="M37.7259 98.0713C37.7259 98.0713 37.7259 98.0713 37.7259 98.0713L37.7262 98.0711L37.7268 98.0708M37.7259 98.0713L37.7262 98.0711C37.7266 98.0709 37.7269 98.0707 37.7272 98.0704M37.4686 97.6952C37.2117 97.3188 37.2115 97.3189 37.2113 97.319L37.2109 97.3193L37.2099 97.32L37.2077 97.3215L37.2014 97.3259C37.1965 97.3294 37.1901 97.334 37.1823 97.3397C37.1666 97.3511 37.1452 97.3671 37.1184 97.3879C37.0648 97.4296 36.9897 97.4907 36.8958 97.5738C36.7079 97.7401 36.4449 97.9941 36.1289 98.3558C35.4967 99.0795 34.6535 100.233 33.7736 101.974C32.8977 103.709 32.2346 105.439 31.7908 106.734C31.5687 107.382 31.401 107.922 31.2886 108.301C31.2323 108.491 31.1899 108.64 31.1614 108.743C31.1472 108.794 31.1364 108.833 31.1292 108.86C31.1255 108.874 31.1228 108.884 31.1209 108.891L31.1187 108.899L31.1179 108.903C31.1179 108.903 31.1178 108.903 31.5586 109.018L31.1179 108.903C31.0541 109.146 31.1998 109.395 31.4433 109.459C31.6867 109.523 31.9357 109.377 31.9994 109.134L31.9999 109.132L32.0017 109.125C32.0033 109.119 32.0057 109.11 32.0091 109.098C32.0157 109.073 32.0259 109.036 32.0395 108.987C32.0667 108.889 32.1076 108.744 32.1623 108.56C32.2716 108.192 32.4355 107.664 32.6529 107.029C33.0881 105.76 33.7358 104.071 34.5869 102.386" fill="white"/>
<path d="M72.1903 94.7159L69.0295 103.67L40.6097 129.54L36.6788 126.113L33.7914 122.889L62.6715 96.6272L72.1903 94.7159Z" fill="white"/>
<path d="M70.6988 98.9425L72.1903 94.7159L67.4514 95.6685L70.6988 98.9425Z" fill="#2E186A"/>
<path fill-rule="evenodd" clip-rule="evenodd" d="M67.175 100.707C67.3414 100.896 67.3233 101.184 67.1344 101.351L41.4562 123.986C41.2674 124.152 40.9794 124.134 40.813 123.945C40.6466 123.757 40.6648 123.469 40.8536 123.302L66.5319 100.667C66.7207 100.5 67.0086 100.519 67.175 100.707Z" fill="#2E186A"/>
<path fill-rule="evenodd" clip-rule="evenodd" d="M65.2445 98.7006C65.41 98.8902 65.3904 99.1782 65.2007 99.3436L39.2278 122.011C39.0382 122.176 38.7503 122.157 38.5849 121.967C38.4194 121.777 38.439 121.49 38.6286 121.324L64.6016 98.6568C64.7912 98.4913 65.0791 98.5109 65.2445 98.7006Z" fill="#2E186A"/>
<path d="M38.506 121.514L33.8734 122.77L32.6461 127.412L36.0499 130.797L40.6825 129.54L41.9098 124.899L38.506 121.514Z" fill="#6A6AF4"/>
<path d="M37.2772 127.675C38.116 127.675 38.7961 126.994 38.7961 126.155C38.7961 125.316 38.116 124.636 37.2772 124.636C36.4383 124.636 35.7583 125.316 35.7583 126.155C35.7583 126.994 36.4383 127.675 37.2772 127.675Z" fill="#2E186A"/>
<path d="M45.9227 125.438C45.9227 125.438 46.266 124.507 48.6187 119.164C50.9715 113.821 54.6958 109.311 59.3026 110.586C63.9094 111.861 60.2337 119.164 60.2337 119.164C60.2337 119.164 54.7687 134.09 52.4904 136.59C50.212 139.09 47.2715 144.262 39.6998 143.955" fill="#FF8D7E"/>
<path d="M147.922 120.608C149.41 126.207 158.489 126.377 157.632 117.625C157.626 113.735 164.776 112.804 168.202 116.883C168.202 116.883 168.202 116.885 168.205 116.888C168.205 116.886 168.204 116.885 168.202 116.883C168.202 116.883 169.053 117.287 169.993 122.293C171.226 128.767 166.284 137.89 160.044 132.026C154.257 129.125 150.481 136.422 157.328 142.543C162.886 147.511 174.174 144.456 178.559 137.744L205.559 138.788C211.551 138.812 215.85 108.947 206.75 107.918L188.943 107.111C188.943 107.111 177.356 94.1978 174.206 93.148C171.056 92.0982 169.522 95.4542 169.522 95.4542C169.522 95.4542 163.196 89.1539 160 89.2739C155.538 89.4425 156.233 92.6527 156.233 92.6527C156.233 92.6527 149.524 90.3192 149.701 96.504C149.786 99.5289 153.089 102.897 156.411 105.53C156.314 105.554 156.215 105.579 156.118 105.606C147.834 107.918 146.341 114.658 147.924 120.61L147.922 120.608ZM168.234 116.921C168.243 116.933 168.254 116.946 168.263 116.955C168.255 116.946 168.246 116.935 168.234 116.921ZM168.274 116.967C168.283 116.977 168.286 116.981 168.274 116.967V116.967Z" fill="#FF8D7E"/>
<path fill-rule="evenodd" clip-rule="evenodd" d="M155.363 104.913C158.203 104.12 161.275 104.22 163.982 104.972C164.224 105.04 164.366 105.291 164.299 105.533C164.231 105.776 163.98 105.918 163.738 105.85C161.174 105.138 158.271 105.047 155.609 105.791C155.356 105.862 155.11 105.936 154.871 106.015C154.632 106.093 154.375 105.962 154.297 105.723C154.218 105.484 154.349 105.227 154.588 105.148C154.841 105.066 155.099 104.988 155.362 104.913L155.363 104.913L155.363 104.913Z" fill="white"/>
<path fill-rule="evenodd" clip-rule="evenodd" d="M155.158 91.66C155.304 91.4552 155.589 91.4078 155.793 91.5541C159.818 94.4301 164.007 98.4807 167.181 101.8C168.77 103.462 170.109 104.945 171.051 106.013C171.522 106.547 171.894 106.977 172.148 107.275C172.275 107.423 172.373 107.538 172.439 107.617C172.472 107.656 172.498 107.686 172.515 107.706L172.534 107.729L172.54 107.736L172.54 107.737C172.54 107.737 172.541 107.737 172.191 108.029C171.841 108.321 171.841 108.321 171.841 108.321L171.835 108.314L171.817 108.292C171.8 108.273 171.776 108.243 171.743 108.205C171.678 108.128 171.582 108.014 171.456 107.867C171.204 107.573 170.835 107.146 170.368 106.616C169.432 105.555 168.101 104.082 166.522 102.43C163.36 99.123 159.218 95.1216 155.264 92.2958C155.059 92.1495 155.012 91.8648 155.158 91.66ZM172.483 108.379C172.29 108.54 172.002 108.514 171.841 108.321L172.191 108.029L172.541 107.737C172.702 107.93 172.676 108.218 172.483 108.379Z" fill="white"/>
<path fill-rule="evenodd" clip-rule="evenodd" d="M168.947 94.1884C169.13 94.0165 169.419 94.0263 169.591 94.2102L169.258 94.5214L168.925 94.8326C168.753 94.6487 168.763 94.3603 168.947 94.1884ZM169.258 94.5214C168.925 94.8326 168.925 94.8327 168.925 94.8327L169.042 94.958C169.118 95.0401 169.231 95.1608 169.375 95.3153C169.662 95.6243 170.075 96.0685 170.574 96.609C171.574 97.6899 172.922 99.1556 174.318 100.695C175.714 102.234 177.156 103.846 178.344 105.219C179.541 106.602 180.455 107.716 180.817 108.275C180.953 108.486 181.235 108.547 181.447 108.41C181.658 108.273 181.719 107.991 181.582 107.78C181.179 107.157 180.219 105.993 179.033 104.622C177.839 103.241 176.391 101.624 174.993 100.082C173.595 98.5403 172.244 97.0724 171.243 95.99C170.743 95.4488 170.33 95.004 170.042 94.6944C169.898 94.5396 169.785 94.4186 169.708 94.3362L169.591 94.2103C169.591 94.2102 169.591 94.2102 169.258 94.5214Z" fill="white"/>
<path fill-rule="evenodd" clip-rule="evenodd" d="M180.8 132.227C181.051 132.242 181.243 132.459 181.227 132.71C181.11 134.63 180.474 135.986 179.512 137.524C179.379 137.737 179.098 137.802 178.884 137.669C178.671 137.535 178.606 137.254 178.74 137.041C179.661 135.568 180.213 134.362 180.318 132.654C180.333 132.403 180.549 132.212 180.8 132.227Z" fill="white"/>
<path d="M91.8189 99.8602V84.0235C94.4694 82.7777 96.3103 80.0917 96.3103 76.9681C96.3103 73.0362 93.3986 69.7926 89.615 69.2563V76.1978C89.615 76.8177 89.1123 77.3205 88.4926 77.3205C87.8729 77.3205 87.3701 76.8177 87.3701 76.1978V69.2624C83.6078 69.817 80.7174 73.0499 80.7174 76.9681C80.7174 80.0917 82.5568 82.7777 85.2088 84.0235V99.8602C82.5583 101.106 80.7174 103.792 80.7174 106.916C80.7174 110.834 83.6078 114.067 87.3701 114.621V107.686C87.3701 107.066 87.8729 106.563 88.4926 106.563C89.1123 106.563 89.615 107.066 89.615 107.686V114.627C93.3986 114.091 96.3103 110.847 96.3103 106.916C96.3103 103.792 94.4709 101.106 91.8189 99.8602Z" fill="white"/>
<path d="M112.365 76.8966H110.955V103.427H112.365V76.8966Z" fill="#FF8D7E"/>
<path d="M113.932 69.2062H109.645L108.009 77.5378H115.568L113.932 69.2062Z" fill="#FF8D7E"/>
<path d="M119.066 96.5466H104.266V98.0492H119.066V96.5466Z" fill="#2E186A"/>
<path d="M107.497 97.2971H115.57V112.12C115.57 114.349 113.761 116.157 111.534 116.157C109.306 116.157 107.498 114.348 107.498 112.12V97.2971H107.497Z" fill="#2E186A"/>
<path d="M134.015 67.7781L138.578 76.1066L138.898 114.541H133.723H129.396L129.091 76.1492L134.015 67.7781Z" fill="white"/>
<path d="M136.167 71.7084L134.015 67.7781L131.564 71.9454L136.167 71.7084Z" fill="#FF8D7E"/>
<path d="M88.4773 82.1198C89.2323 82.1198 89.8443 81.5076 89.8443 80.7525C89.8443 79.9973 89.2323 79.3851 88.4773 79.3851C87.7224 79.3851 87.1104 79.9973 87.1104 80.7525C87.1104 81.5076 87.7224 82.1198 88.4773 82.1198Z" fill="#2E186A"/>
<path d="M88.4773 103.997C89.2323 103.997 89.8443 103.385 89.8443 102.63C89.8443 101.875 89.2323 101.262 88.4773 101.262C87.7224 101.262 87.1104 101.875 87.1104 102.63C87.1104 103.385 87.7224 103.997 88.4773 103.997Z" fill="#2E186A"/>
<path fill-rule="evenodd" clip-rule="evenodd" d="M135.672 75.6128C135.923 75.6118 136.128 75.815 136.129 76.0667L136.281 112.754C136.282 113.005 136.079 113.21 135.827 113.211C135.576 113.212 135.371 113.009 135.37 112.757L135.218 76.0705C135.217 75.8187 135.42 75.6138 135.672 75.6128Z" fill="#2E186A"/>
<path fill-rule="evenodd" clip-rule="evenodd" d="M132.027 75.6128C132.278 75.6118 132.483 75.815 132.484 76.0667L132.636 112.754C132.637 113.005 132.434 113.21 132.182 113.211C131.931 113.212 131.726 113.009 131.725 112.757L131.573 76.0705C131.572 75.8187 131.775 75.6138 132.027 75.6128Z" fill="#2E186A"/>
<path d="M125.392 131.299H151.892V124.645H125.392L119.311 127.972L125.392 131.299Z" fill="white"/>
<path d="M151.892 121.316C154.868 121.316 157.284 123.734 157.284 126.71V129.694C157.284 132.67 154.868 135.087 151.892 135.087V121.318V121.316Z" fill="white"/>
<path fill-rule="evenodd" clip-rule="evenodd" d="M125.833 123.149C126.074 123.076 126.328 123.212 126.401 123.453L129.04 132.173C129.112 132.414 128.976 132.669 128.735 132.741C128.494 132.814 128.24 132.678 128.167 132.437L125.529 123.717C125.456 123.476 125.592 123.221 125.833 123.149Z" fill="#2E186A"/>
<path fill-rule="evenodd" clip-rule="evenodd" d="M129.137 123.149C129.377 123.076 129.632 123.212 129.705 123.453L132.345 132.173C132.418 132.414 132.281 132.669 132.041 132.741C131.8 132.814 131.545 132.678 131.472 132.437L128.833 123.717C128.76 123.476 128.896 123.221 129.137 123.149Z" fill="#2E186A"/>
<path fill-rule="evenodd" clip-rule="evenodd" d="M132.442 123.149C132.683 123.076 132.937 123.212 133.01 123.453L135.648 132.173C135.721 132.414 135.585 132.669 135.344 132.741C135.103 132.814 134.849 132.678 134.776 132.437L132.138 123.717C132.065 123.476 132.201 123.221 132.442 123.149Z" fill="#2E186A"/>
<path fill-rule="evenodd" clip-rule="evenodd" d="M135.745 123.149C135.986 123.076 136.241 123.212 136.313 123.453L138.952 132.173C139.025 132.414 138.888 132.669 138.648 132.741C138.407 132.814 138.152 132.678 138.079 132.437L135.441 123.717C135.368 123.476 135.504 123.221 135.745 123.149Z" fill="#2E186A"/>
<path fill-rule="evenodd" clip-rule="evenodd" d="M139.049 123.149C139.29 123.076 139.544 123.212 139.617 123.453L142.255 132.173C142.328 132.414 142.192 132.669 141.951 132.741C141.71 132.814 141.456 132.678 141.383 132.437L138.745 123.717C138.672 123.476 138.808 123.221 139.049 123.149Z" fill="#2E186A"/>
<path fill-rule="evenodd" clip-rule="evenodd" d="M142.352 123.149C142.593 123.076 142.848 123.212 142.921 123.453L145.559 132.173C145.632 132.414 145.496 132.669 145.255 132.741C145.014 132.814 144.76 132.678 144.687 132.437L142.048 123.717C141.975 123.476 142.112 123.221 142.352 123.149Z" fill="#2E186A"/>
<path fill-rule="evenodd" clip-rule="evenodd" d="M154.189 128.202C154.189 127.95 154.393 127.746 154.645 127.746H157.283C157.535 127.746 157.739 127.95 157.739 128.202C157.739 128.453 157.535 128.658 157.283 128.658H154.645C154.393 128.658 154.189 128.453 154.189 128.202Z" fill="#2E186A"/>
<path d="M120.318 22.2217C118.405 21.2099 115.933 20.5885 112.694 20.5217C115 14.8716 120.743 7.9134 120.743 7.9134C120.743 7.9134 128.582 2.46688 110.254 0.0451922C96.5365 -0.761531 91.1187 9.4995 91.1187 9.4995C91.1187 9.4995 77.8618 26.4483 80.0521 41.4372C77.9773 45.9342 76.5556 55.2731 81.7046 62.4211C84.6436 66.9561 88.775 62.883 86.4693 57.1949C84.6436 53.3603 86.4693 49.9693 86.4693 49.9693C86.4693 49.9693 89.9279 55.1196 96.1523 56.8105C102.377 58.5015 104.989 55.4265 104.989 55.4265C104.989 55.4265 109.464 55.6741 109.148 53.3603C111.574 55.1196 115.504 55.0391 118.387 52.4548C121.269 49.8706 123.28 47.2028 120.974 45.4724C118.668 43.7434 116.908 45.401 115.21 47.3167C113.109 49.6868 109.985 44.9209 109.78 42.9231C109.374 38.9745 108.448 33.9443 110.292 33.4839C110.82 33.3518 111.613 33.0555 112.491 32.7608C113.938 28.7697 117.367 24.9579 120.318 22.2202V22.2217Z" fill="#FF8D7E"/>
<path fill-rule="evenodd" clip-rule="evenodd" d="M93.873 46.3792C93.8731 46.3793 93.8731 46.3794 93.8731 46.3795L93.4366 46.51C93.8731 46.3795 93.8731 46.3793 93.8731 46.3792L93.8732 46.3796L93.8742 46.3828C93.8751 46.386 93.8768 46.3913 93.8791 46.3987C93.8837 46.4134 93.891 46.4361 93.9011 46.4665C93.9213 46.5272 93.9525 46.6181 93.9957 46.735C94.0822 46.9687 94.2163 47.3055 94.4049 47.711C94.7825 48.5232 95.3754 49.6047 96.236 50.6841C97.9532 52.8381 100.721 54.9707 104.989 54.9707C105.241 54.9707 105.445 55.1748 105.445 55.4265C105.445 55.6782 105.241 55.8823 104.989 55.8823C100.369 55.8823 97.3604 53.5566 95.5234 51.2524C94.6069 50.1027 93.9782 48.9551 93.5785 48.0954C93.3784 47.665 93.235 47.3052 93.1411 47.0513C93.0941 46.9243 93.0594 46.8237 93.0362 46.7538C93.0246 46.7188 93.0159 46.6916 93.0099 46.6725C93.0069 46.663 93.0045 46.6555 93.0029 46.6501L93.0009 46.6437L93.0003 46.6417L93.0001 46.641C93 46.6407 93 46.6405 93.4366 46.51" fill="white"/>
<path fill-rule="evenodd" clip-rule="evenodd" d="M101.222 42.5128C100.769 42.4681 100.769 42.4684 100.769 42.4687L100.769 42.4695L100.769 42.4716L100.768 42.4778C100.768 42.4828 100.767 42.4896 100.766 42.498C100.765 42.5149 100.763 42.5387 100.762 42.569C100.758 42.6296 100.754 42.7163 100.753 42.8264C100.75 43.0466 100.756 43.3608 100.792 43.7474C100.863 44.5198 101.051 45.5851 101.521 46.766C102.465 49.1404 104.533 51.9464 108.973 53.78C109.205 53.8761 109.472 53.7654 109.568 53.5327C109.664 53.3 109.553 53.0336 109.32 52.9375C105.119 51.2024 103.225 48.5854 102.367 46.4291C101.936 45.3446 101.764 44.3675 101.699 43.6639C101.667 43.3124 101.662 43.0303 101.664 42.8385C101.665 42.7427 101.669 42.6696 101.671 42.6218C101.673 42.5979 101.674 42.5804 101.675 42.5696C101.675 42.5642 101.676 42.5604 101.676 42.5584L101.676 42.5567C101.7 42.3065 101.517 42.0839 101.267 42.0592C101.017 42.0346 100.794 42.2176 100.769 42.4681L101.222 42.5128Z" fill="white"/>
<path d="M128.804 49.6837C130.566 49.6837 131.994 48.2553 131.994 46.4933C131.994 44.7313 130.566 43.3029 128.804 43.3029C127.042 43.3029 125.614 44.7313 125.614 46.4933C125.614 48.2553 127.042 49.6837 128.804 49.6837Z" fill="#2E186A"/>
<path d="M143.157 48.8481V44.1384H139.638C139.357 42.841 138.85 41.6271 138.157 40.5423L140.639 38.0599L137.31 34.7297L134.844 37.1954C133.757 36.4875 132.539 35.9648 131.233 35.6731V32.2123H126.524V35.6382C125.198 35.9147 123.959 36.4312 122.853 37.1362L120.447 34.7297L117.118 38.0599L119.507 40.4497C118.785 41.5587 118.255 42.803 117.967 44.1384H114.599V48.8481H117.967C118.255 50.1835 118.784 51.4278 119.507 52.5368L117.118 54.9266L120.447 58.2568L122.853 55.8503C123.959 56.5553 125.197 57.0718 126.524 57.3483V60.7742H131.233V57.3134C132.539 57.0217 133.757 56.4991 134.844 55.7911L137.31 58.2568L140.639 54.9266L138.157 52.4442C138.848 51.3594 139.357 50.1471 139.638 48.8481H143.157ZM128.804 53.3299C125.029 53.3299 121.969 50.2686 121.969 46.4933C121.969 42.7179 125.029 39.6566 128.804 39.6566C132.578 39.6566 135.639 42.7179 135.639 46.4933C135.639 50.2686 132.578 53.3299 128.804 53.3299Z" fill="white"/>
<path d="M120.318 22.2217C117.367 24.9594 113.938 28.7712 112.491 32.7623C114.674 32.03 117.395 31.3068 117.971 33.1147C118.778 35.6519 118.662 39.687 122.582 38.7648C126.501 37.8426 125.682 27.4403 123.608 24.9032C122.746 23.8518 121.674 22.9388 120.319 22.2217H120.318Z" fill="#FF8D7E"/>
</svg>
