<svg width="189" height="119" viewBox="0 0 189 119" fill="none" xmlns="http://www.w3.org/2000/svg">
<g clip-path="url(#clip0_17550_7538)">
<path d="M36.9685 45.4602H70.2403C75.7207 45.4602 80.9766 47.6439 84.8518 51.5309C88.727 55.4179 90.9041 60.6897 90.9041 66.1868V117.759H16.3047V66.1868C16.3047 60.6897 18.4818 55.4179 22.357 51.5309C26.2322 47.6439 31.4881 45.4602 36.9685 45.4602Z" fill="#FF8D7E"/>
<path d="M108.55 55.3476C103.568 50.7012 85.4318 38.6232 60.6055 54.429C51.0912 59.7971 44.2394 68.872 34.6627 83.7594C20.54 105.712 34.1796 117.837 42.2073 117.837C50.2349 117.837 139.507 117.131 139.507 117.131C139.507 117.131 142.983 82.5903 108.55 55.3476Z" fill="#2E186A"/>
<path d="M71.2736 50.9562L68.064 54.2665C68.064 54.2665 83.3508 65.9226 88.3145 94.0093C91.5449 112.258 90.4419 114.308 90.4419 114.308L99.916 113.799C99.916 113.799 94.6371 83.4507 97.9195 73.8464C101.202 64.2421 98.202 53.4583 95.978 51.7122C93.754 49.9661 71.2736 50.9562 71.2736 50.9562Z" fill="white"/>
<path d="M97.4036 47.5013L80.9602 49.5456L79.6698 43.1039L74.9959 41.5905L74.6406 47.7339" fill="white"/>
<path fill-rule="evenodd" clip-rule="evenodd" d="M74.7437 41.2213C74.8576 41.1431 75.0013 41.1222 75.1326 41.1648L79.8065 42.6783C79.9601 42.728 80.075 42.8571 80.1068 43.0158L81.3156 49.0506L97.3484 47.0573C97.5928 47.0269 97.8156 47.2011 97.8459 47.4462C97.8762 47.6914 97.7026 47.9148 97.4581 47.9452L81.0148 49.9895C80.7832 50.0183 80.5686 49.8632 80.5227 49.6337L79.2838 43.4491L75.4075 42.1939L75.0856 47.7598C75.0713 48.0064 74.8604 48.1948 74.6145 48.1805C74.3686 48.1662 74.1808 47.9546 74.1951 47.708L74.5504 41.5646C74.5584 41.4263 74.6298 41.2996 74.7437 41.2213Z" fill="#2E186A"/>
<path d="M74.6406 47.7339L71.6064 51.2261C71.6064 51.2261 75.0256 59.6479 89.1484 66.5846C89.1484 66.5846 96.1652 59.1529 97.3961 47.5072" fill="white"/>
<path fill-rule="evenodd" clip-rule="evenodd" d="M97.4433 47.0624C97.6882 47.0885 97.8658 47.3087 97.8398 47.5544C97.2161 53.4554 95.1272 58.2849 93.197 61.6368C92.2316 63.3134 91.3044 64.6229 90.6171 65.515C90.2733 65.9611 89.9893 66.3031 89.7902 66.5347C89.6907 66.6505 89.6123 66.7387 89.5583 66.7986C89.5313 66.8285 89.5104 66.8513 89.4959 66.867C89.4887 66.8748 89.4831 66.8808 89.4792 66.885L89.4745 66.89L89.4727 66.8919C89.4725 66.8921 89.4724 66.8922 89.1486 66.5846L89.4724 66.8922C89.3383 67.0343 89.1277 67.0724 88.9525 66.9864C81.8383 63.4921 77.406 59.6166 74.7475 56.6004C73.4186 55.0929 72.5342 53.8015 71.9799 52.8818C71.7028 52.4221 71.5082 52.0553 71.3819 51.801C71.3188 51.6738 71.2727 51.5748 71.2419 51.5063C71.2265 51.472 71.2149 51.4454 71.207 51.4267C71.203 51.4174 71.1999 51.41 71.1977 51.4047L71.195 51.3982L71.1941 51.3961L71.1938 51.3954C71.1937 51.3951 71.1936 51.3948 71.6066 51.2261L71.1936 51.3948C71.1301 51.2384 71.1598 51.0595 71.2704 50.9322L74.3046 47.44C74.4664 47.2537 74.7481 47.2343 74.9338 47.3967C75.1195 47.559 75.1388 47.8415 74.977 48.0278L72.1317 51.3027C72.1464 51.3331 72.1626 51.3663 72.1803 51.4021C72.2962 51.6354 72.4791 51.9808 72.7432 52.419C73.2714 53.2952 74.1244 54.5428 75.4157 56.0078C77.9601 58.8945 82.2112 62.6308 89.0428 66.0336C89.0652 66.0078 89.0892 65.9801 89.1148 65.9504C89.3042 65.7301 89.578 65.4005 89.9113 64.9679C90.5781 64.1026 91.482 62.8263 92.4247 61.1893C94.3107 57.914 96.3456 53.2047 96.9528 47.4601C96.9788 47.2144 97.1984 47.0364 97.4433 47.0624Z" fill="#2E186A"/>
<path d="M96.6603 49.1102C96.6603 49.1102 100.328 56.6657 95.2435 67.2526C95.2435 67.2526 93.4596 62.481 89.1484 66.5786C89.1559 66.5786 95.8382 59.6479 96.6603 49.1102Z" fill="white"/>
<path fill-rule="evenodd" clip-rule="evenodd" d="M97.061 48.9144L96.66 49.1102C97.061 48.9144 97.0611 48.9146 97.0612 48.9149L97.0615 48.9156L97.0625 48.9175L97.0653 48.9234C97.0676 48.9282 97.0707 48.9349 97.0747 48.9434C97.0826 48.9605 97.0937 48.9848 97.1076 49.0162C97.1354 49.0792 97.1745 49.1707 97.2219 49.2898C97.3166 49.528 97.4442 49.8765 97.5803 50.3263C97.8525 51.2258 98.1588 52.5315 98.3025 54.1722C98.5901 57.4565 98.2253 62.0739 95.645 67.4468C95.5675 67.6082 95.4015 67.7076 95.2231 67.6996C95.045 67.6915 94.8889 67.5778 94.826 67.4106C94.8259 67.4105 94.8259 67.4105 94.8259 67.4105C94.8259 67.4104 94.8259 67.4104 94.8259 67.4103L94.8258 67.4101L94.8257 67.4099L94.8257 67.4097L94.8232 67.4035C94.8207 67.3971 94.8165 67.3866 94.8105 67.3723C94.7987 67.3438 94.78 67.3004 94.7543 67.2454C94.7028 67.1352 94.6241 66.98 94.5171 66.8052C94.3002 66.4509 93.9815 66.0392 93.5593 65.7474C93.1473 65.4626 92.6352 65.2895 91.9924 65.3966C91.3375 65.5057 90.4972 65.9142 89.4604 66.8981C89.4604 66.8982 89.4603 66.8983 89.4602 66.8983C89.4588 66.8998 89.4542 66.9042 89.4484 66.9095C89.4448 66.9127 89.4348 66.9214 89.4282 66.9268C89.4112 66.9399 89.2763 67.0072 89.1481 67.026C88.9656 67.026 88.8014 66.9144 88.7339 66.7443C88.6667 66.5754 88.7083 66.3826 88.8387 66.2566C88.8404 66.2548 88.8431 66.252 88.8466 66.2483C88.8576 66.2369 88.875 66.2185 88.8984 66.1933C88.9452 66.1429 89.0151 66.0663 89.1051 65.9641C89.285 65.7599 89.5445 65.4544 89.8592 65.0541C90.4888 64.2534 91.3383 63.0749 92.2134 61.5707C93.9646 58.5604 95.811 54.2584 96.2154 49.0753C96.2311 48.8741 96.3791 48.7083 96.5768 48.6707C96.7745 48.6331 96.9729 48.7329 97.061 48.9144ZM91.2744 64.6582C91.4697 64.5926 91.6603 64.545 91.8462 64.514C92.7503 64.3634 93.4926 64.6148 94.0654 65.0107C94.5862 65.3707 94.9648 65.8473 95.2184 66.2432C97.3798 61.3802 97.6745 57.2257 97.4139 54.2505C97.303 52.9841 97.0913 51.9299 96.879 51.1245C96.2083 55.5954 94.5546 59.3213 92.9838 62.0216C92.3831 63.0542 91.7936 63.9382 91.2744 64.6582Z" fill="#2E186A"/>
<path d="M97.9431 99.7293C100.371 100.288 102.309 100.833 102.849 101.238C104.591 102.558 111.822 109.663 112.087 110.822C112.351 111.98 110.233 112.623 108.482 110.838L103.326 105.907C103.326 105.907 108.578 111.903 108.986 112.82C109.393 113.737 107.34 115.355 104.304 111.499C101.269 107.643 100.787 107.607 100.787 107.607C100.787 107.607 104.257 112.459 104.718 113.559C105.178 114.66 102.254 115.692 99.5709 110.602L83.52 109.899L84.461 97.1243C84.461 97.1243 92.456 98.4663 97.9431 99.7322" fill="white"/>
<path fill-rule="evenodd" clip-rule="evenodd" d="M84.5343 96.6831L84.4607 97.1243C84.5343 96.6831 84.5343 96.6831 84.5343 96.6831L84.6261 96.6986C84.6862 96.7087 84.775 96.7238 84.8898 96.7434C85.1196 96.7827 85.4539 96.8401 85.872 96.913C86.7084 97.0588 87.8806 97.2664 89.2245 97.5135C91.8944 98.0046 95.2479 98.653 97.9921 99.2846C98.0089 99.2865 98.0257 99.2894 98.0426 99.2933C99.2603 99.5738 100.362 99.8521 101.231 100.113C101.666 100.243 102.048 100.371 102.359 100.494C102.662 100.613 102.931 100.741 103.116 100.88L103.117 100.881C104.018 101.563 106.282 103.692 108.339 105.776C109.371 106.822 110.361 107.867 111.112 108.726C111.487 109.155 111.807 109.544 112.044 109.866C112.162 110.027 112.264 110.177 112.343 110.311C112.417 110.437 112.489 110.581 112.521 110.722C112.622 111.165 112.491 111.576 112.201 111.875C111.923 112.163 111.523 112.328 111.091 112.378C110.383 112.46 109.528 112.244 108.72 111.64C108.817 111.768 108.906 111.887 108.986 111.996C109.165 112.243 109.32 112.474 109.393 112.638C109.576 113.051 109.465 113.503 109.196 113.828C108.922 114.158 108.485 114.373 107.955 114.396C107.09 114.434 105.997 113.973 104.777 112.721C104.935 112.989 105.058 113.219 105.128 113.386C105.336 113.881 105.14 114.37 104.736 114.647C104.352 114.91 103.808 114.977 103.22 114.837C102.069 114.563 100.635 113.479 99.2982 111.038L83.5002 110.346C83.3797 110.34 83.2665 110.286 83.1864 110.196C83.1063 110.105 83.0661 109.986 83.0749 109.866L84.016 97.0913C84.0252 96.9659 84.0867 96.8501 84.1853 96.7724C84.284 96.6948 84.4106 96.6623 84.5343 96.6831ZM100.787 107.607C100.82 107.161 100.821 107.161 100.823 107.161L100.826 107.161C100.828 107.161 100.83 107.162 100.832 107.162C100.833 107.162 100.835 107.162 100.836 107.162C100.839 107.163 100.842 107.163 100.845 107.163C100.851 107.164 100.856 107.165 100.862 107.166C100.864 107.166 100.866 107.167 100.869 107.167C100.884 107.17 100.899 107.174 100.913 107.178C100.942 107.185 100.969 107.196 100.994 107.207C101.045 107.23 101.1 107.261 101.161 107.304C101.284 107.388 101.46 107.532 101.719 107.787C102.239 108.298 103.132 109.288 104.654 111.221C106.138 113.107 107.288 113.53 107.916 113.502C108.228 113.488 108.417 113.368 108.51 113.257C108.605 113.141 108.598 113.047 108.578 113.002C108.549 112.937 108.451 112.779 108.265 112.523C108.087 112.279 107.854 111.975 107.581 111.632C107.035 110.946 106.344 110.114 105.663 109.309C104.982 108.504 104.314 107.727 103.816 107.151C103.567 106.864 103.361 106.626 103.216 106.461C103.144 106.378 103.088 106.313 103.049 106.269L102.992 106.203L102.991 106.202L102.991 106.202C102.991 106.202 102.991 106.202 103.326 105.907L102.991 106.202C102.833 106.022 102.845 105.75 103.017 105.584C103.189 105.418 103.461 105.418 103.634 105.583L108.789 110.514L108.791 110.516C108.794 110.519 108.796 110.522 108.799 110.524C109.594 111.335 110.431 111.554 110.989 111.489C111.272 111.457 111.461 111.356 111.561 111.253C111.649 111.162 111.683 111.058 111.652 110.922C111.652 110.922 111.652 110.922 111.652 110.922C111.652 110.922 111.648 110.909 111.635 110.881C111.622 110.851 111.602 110.813 111.574 110.764C111.516 110.667 111.434 110.544 111.326 110.397C111.11 110.104 110.808 109.737 110.441 109.316C109.707 108.476 108.731 107.445 107.705 106.405C105.644 104.317 103.423 102.234 102.581 101.596C102.496 101.532 102.32 101.44 102.032 101.326C101.753 101.216 101.397 101.096 100.976 100.97C100.145 100.721 99.0829 100.452 97.8933 100.177C97.8765 100.175 97.8597 100.172 97.8428 100.168C95.1092 99.5375 91.7466 98.887 89.0637 98.3935C87.723 98.147 86.5535 97.9399 85.7193 97.7945C85.375 97.7345 85.0879 97.685 84.8694 97.6475L83.9983 109.472L99.5901 110.156C99.7482 110.163 99.8909 110.253 99.9649 110.393C101.277 112.882 102.594 113.768 103.426 113.967C103.847 114.067 104.115 113.989 104.233 113.908C104.332 113.84 104.329 113.788 104.306 113.733C104.209 113.5 103.928 113.024 103.533 112.407C103.147 111.803 102.673 111.097 102.212 110.424C101.75 109.751 101.304 109.111 100.972 108.64C100.806 108.405 100.669 108.211 100.573 108.077C100.526 108.01 100.488 107.957 100.463 107.922L100.425 107.868L100.424 107.868L100.424 107.868C100.424 107.868 100.424 107.868 100.787 107.607ZM100.787 107.607L100.424 107.868C100.323 107.726 100.313 107.539 100.398 107.388C100.482 107.237 100.647 107.148 100.82 107.161L100.787 107.607Z" fill="#2E186A"/>
<path d="M56.3269 117.758C56.3269 117.758 82.0541 116.012 84.9381 115.267C87.8221 114.521 86.7518 112.408 88.8419 111.602C90.9321 110.795 91.5981 110.148 91.5981 110.148C88.891 105.815 91.5981 98.6348 91.5981 98.6348C91.5981 98.6348 90.889 98.4409 88.6963 97.9891C86.5035 97.5373 87.2096 95.2723 84.2483 95.0069C81.287 94.7415 55.8125 97.6715 55.8125 97.6715" fill="#2E186A"/>
<path fill-rule="evenodd" clip-rule="evenodd" d="M57.1096 89.9233C57.1336 89.6775 57.3517 89.4976 57.5969 89.5217L57.5534 89.9669C57.5969 89.5217 57.5972 89.5217 57.5975 89.5217L57.5982 89.5218L57.6 89.522L57.6048 89.5225C57.6087 89.5229 57.6137 89.5235 57.6198 89.5242C57.6321 89.5257 57.6489 89.5278 57.67 89.5308C57.7122 89.5367 57.7715 89.546 57.8459 89.5601C57.9946 89.5881 58.204 89.6352 58.4571 89.7123C58.963 89.8664 59.6469 90.1415 60.3706 90.6271C61.8293 91.6059 63.4137 93.4168 64.0507 96.7156C64.0975 96.9582 63.9395 97.1929 63.6976 97.2399C63.4558 97.2868 63.2218 97.1283 63.175 96.8858C62.584 93.825 61.1388 92.219 59.8747 91.3707C59.2371 90.9429 58.6364 90.7019 58.1979 90.5684C57.9789 90.5017 57.8013 90.462 57.681 90.4393C57.6209 90.428 57.5752 90.4209 57.546 90.4168C57.5314 90.4147 57.5209 90.4134 57.5148 90.4127L57.509 90.412L57.5091 90.412L57.5095 90.4121C57.5093 90.412 57.509 90.412 57.5088 90.412C57.5088 90.412 57.5089 90.412 57.509 90.412L57.5087 90.412L57.5086 90.412C57.5086 90.412 57.5087 90.412 57.5088 90.412C57.2643 90.3873 57.0856 90.1688 57.1096 89.9233Z" fill="#2E186A"/>
<path d="M89.1955 111.901C91.4552 111.047 92.1792 110.361 92.1792 110.361C89.2476 105.774 92.1792 98.1725 92.1792 98.1725C92.1792 98.1725 91.4106 97.9668 89.038 97.4881C88.0836 97.2958 87.6376 96.7918 87.2362 96.2401C82.378 101.768 85.2947 111.476 86.591 114.997C87.7297 113.993 87.4815 112.548 89.1955 111.901Z" fill="#2E186A"/>
<path fill-rule="evenodd" clip-rule="evenodd" d="M77.8006 71.1257C78.0967 70.9831 78.4519 71.1081 78.5941 71.4051L78.0582 71.6634C78.5941 71.4051 78.5942 71.4052 78.5943 71.4053L78.5982 71.4134L78.6092 71.4366C78.6188 71.457 78.633 71.4869 78.6515 71.5261C78.6884 71.6046 78.7423 71.72 78.8111 71.869C78.9486 72.1671 79.1454 72.6 79.3834 73.1409C79.8594 74.2224 80.5011 75.7377 81.1643 77.4737C82.4849 80.9307 83.9126 85.3182 84.259 88.9028C84.2907 89.2307 84.0514 89.5222 83.7245 89.554C83.3976 89.5858 83.1069 89.3458 83.0753 89.0179C82.7453 85.6032 81.3685 81.3422 80.0537 77.9005C79.3992 76.1872 78.7655 74.6906 78.2954 73.6226C78.0605 73.0887 77.8666 72.6624 77.7317 72.37C77.6643 72.2238 77.6116 72.1111 77.576 72.0353C77.5581 71.9974 77.5445 71.9687 77.5355 71.9496L77.5253 71.9282L77.5222 71.9217C77.5222 71.9217 77.5222 71.9217 77.523 71.9213L77.5222 71.9217C77.3799 71.6247 77.5046 71.2684 77.8006 71.1257Z" fill="#2E186A"/>
<path fill-rule="evenodd" clip-rule="evenodd" d="M101.057 71.5339C101.377 71.6078 101.577 71.928 101.503 72.249L101.502 72.2551L101.497 72.2754C101.493 72.2935 101.487 72.3209 101.479 72.357C101.463 72.4294 101.439 72.5371 101.409 72.677C101.35 72.9568 101.265 73.3654 101.166 73.8779C100.967 74.9032 100.709 76.3429 100.475 77.9991C100.004 81.323 99.6333 85.4741 99.997 88.8926C100.032 89.2202 99.7954 89.514 99.4688 89.549C99.1422 89.5839 98.8493 89.3467 98.8144 89.0192C98.4348 85.4503 98.823 81.181 99.2972 77.8314C99.5351 76.1509 99.7963 74.6906 99.9982 73.65C100.099 73.1296 100.185 72.7138 100.246 72.4275C100.277 72.2843 100.301 72.1734 100.318 72.0981C100.326 72.0604 100.333 72.0316 100.337 72.012L100.342 71.9896L100.344 71.9816C100.344 71.9815 100.344 71.9814 100.924 72.1152L100.344 71.9814C100.418 71.6604 100.737 71.4601 101.057 71.5339Z" fill="#2E186A"/>
<path d="M157.532 117.614C157.9 117.614 158.258 117.489 158.547 117.26C158.836 117.031 159.039 116.711 159.124 116.351L168.102 78.2334C168.159 77.9925 168.16 77.7419 168.107 77.5002C168.053 77.2586 167.946 77.0322 167.793 76.8382C167.639 76.6441 167.444 76.4873 167.222 76.3795C167 76.2718 166.756 76.2158 166.51 76.2159H108.712C108.343 76.2158 107.986 76.3404 107.697 76.5696C107.408 76.7989 107.204 77.1193 107.12 77.4789L99.0846 111.599H78.1338C78.1338 111.599 76.9728 117.614 83.7428 117.614" fill="#6A6AF4"/>
<path d="M133.422 90.8883C133.422 90.8883 136.079 90.2412 136.247 92.548C136.251 92.548 134.131 93.4009 133.422 90.8883Z" fill="white"/>
<path d="M138.281 96.8335C138.016 96.6622 137.729 96.5278 137.427 96.4338C137.814 96.027 138.032 95.4883 138.038 94.9263C138.049 94.6532 137.985 94.3824 137.854 94.1426C137.723 93.9029 137.53 93.7033 137.295 93.5649C137.548 92.8074 137.957 91.7159 138.282 91.3282C138.32 91.2834 138.349 91.2315 138.367 91.1755C138.385 91.1196 138.391 91.0606 138.386 91.0021C138.382 90.9435 138.365 90.8864 138.338 90.8342C138.312 90.7819 138.275 90.7355 138.23 90.6975C138.185 90.6595 138.134 90.6307 138.078 90.6128C138.022 90.5948 137.963 90.5881 137.905 90.593C137.847 90.5978 137.79 90.6141 137.738 90.641C137.685 90.6679 137.639 90.7048 137.601 90.7497C137.13 91.3089 136.641 92.6881 136.403 93.4173H136.354C135.431 93.5873 134.686 94.5341 134.691 95.5332C134.69 95.831 134.769 96.1234 134.919 96.3802C133.842 96.6421 132.864 97.2119 132.104 98.0204C130.425 99.8097 130.469 102.196 132.195 103.33C133.92 104.465 136.689 103.927 138.367 102.137C140.045 100.348 140.01 97.9697 138.281 96.8335Z" fill="white"/>
<path d="M72.8768 29.9747C72.8768 29.9747 67.1623 30.0866 68.1851 35.216C69.2079 40.3455 75.523 37.3796 75.523 37.3796L74.6771 30.0866L72.8768 29.9747Z" fill="white"/>
<path fill-rule="evenodd" clip-rule="evenodd" d="M72.8682 29.5275C72.8803 29.5273 72.8924 29.5275 72.9045 29.5283L74.7048 29.6401C74.9203 29.6535 75.0953 29.8198 75.1202 30.0349L75.9661 37.328C75.9883 37.5192 75.886 37.7031 75.7122 37.7848L75.5231 37.3796C75.7122 37.7848 75.712 37.7848 75.7118 37.7849L75.7113 37.7852L75.7099 37.7859L75.7053 37.788C75.7032 37.789 75.7006 37.7901 75.6976 37.7915C75.6951 37.7927 75.6924 37.7939 75.6893 37.7953C75.6757 37.8015 75.6562 37.8103 75.6311 37.8213C75.5811 37.8434 75.5089 37.8744 75.4174 37.9116C75.2345 37.986 74.9738 38.0856 74.658 38.1884C74.0298 38.3929 73.1687 38.6148 72.2638 38.668C71.3625 38.7209 70.3758 38.6089 69.5336 38.1016C68.6746 37.5841 68.0244 36.6907 67.7479 35.3038C67.4757 33.9387 67.6444 32.8608 68.0939 32.0214C68.5405 31.1874 69.2388 30.6366 69.944 30.2738C70.6478 29.9118 71.3774 29.7269 71.9236 29.6316C72.1983 29.5837 72.4307 29.5578 72.5958 29.5438C72.6785 29.5368 72.7445 29.5328 72.7909 29.5305C72.8141 29.5293 72.8324 29.5286 72.8454 29.5281C72.8519 29.5279 72.8571 29.5278 72.8609 29.5277L72.8656 29.5275L72.8672 29.5275L72.8678 29.5275C72.868 29.5275 72.8682 29.5275 72.8769 29.9747L72.8682 29.5275ZM72.87 30.4225C72.8615 30.4228 72.8498 30.4233 72.8351 30.424C72.7983 30.4259 72.7426 30.4292 72.6709 30.4353C72.5275 30.4475 72.3214 30.4704 72.0764 30.5131C71.5831 30.5991 70.948 30.7628 70.351 31.0699C69.7554 31.3763 69.2169 31.8151 68.8797 32.4448C68.5454 33.0691 68.3833 33.9286 68.6225 35.1283C68.8574 36.3061 69.3801 36.9655 69.9928 37.3346C70.6224 37.7138 71.4062 37.8221 72.2116 37.7748C73.0132 37.7277 73.7949 37.5287 74.3827 37.3374C74.6521 37.2497 74.8775 37.1647 75.0415 37.0989L74.2773 30.5099L72.87 30.4225Z" fill="#2E186A"/>
<path d="M89.1555 13.8125C90.6614 13.6872 100.98 13.0356 102.108 21.6707C103.237 30.3058 102.019 39.837 101.068 44.1866C100.116 48.5362 92.7159 59.4989 86.0262 56.964C79.3365 54.4291 76.7899 44.4386 76.7899 44.4386L74.0813 31.1796C74.0813 31.1796 72.9782 15.1605 89.1555 13.8125Z" fill="white"/>
<path fill-rule="evenodd" clip-rule="evenodd" d="M95.6416 14.8839C92.8171 14.0092 89.9313 14.1968 89.1921 14.2583C85.2244 14.5889 82.3446 15.8155 80.2486 17.4481C78.1502 19.0825 76.8132 21.1427 75.9629 23.1746C75.1118 25.2084 74.7517 27.2064 74.6053 28.6993C74.5322 29.4447 74.5126 30.0615 74.5112 30.4901C74.5105 30.7043 74.5143 30.8713 74.5183 30.9836C74.5202 31.0397 74.5222 31.0822 74.5237 31.11C74.5239 31.114 74.5241 31.1176 74.5243 31.121L77.2242 44.3374C77.2252 44.3413 77.2265 44.3464 77.2282 44.3526C77.2328 44.3702 77.24 44.397 77.2498 44.4325C77.2693 44.5035 77.2991 44.6091 77.3395 44.745C77.4203 45.0169 77.5437 45.41 77.7126 45.8904C78.0508 46.8521 78.57 48.1593 79.294 49.5428C80.7516 52.3281 82.9947 55.3372 86.1835 56.5455C87.7188 57.1273 89.3109 56.9446 90.8826 56.2402C92.4606 55.533 93.9961 54.3077 95.3749 52.8492C96.7512 51.3932 97.9545 49.7226 98.8715 48.1488C99.7921 46.5687 100.408 45.1138 100.632 44.0907C101.576 39.774 102.785 30.2972 101.666 21.7288C101.132 17.6406 98.4453 15.7521 95.6416 14.8839ZM76.7896 44.4386L76.3575 44.5494C76.3557 44.5424 76.3541 44.5354 76.3527 44.5284L73.6441 31.2694C73.6401 31.2499 73.6375 31.2302 73.6361 31.2104L74.081 31.1796C73.6361 31.2104 73.6361 31.2101 73.636 31.2098L73.636 31.2088L73.6358 31.2057L73.6351 31.1952C73.6346 31.1863 73.6338 31.1735 73.633 31.1571C73.6312 31.1242 73.629 31.0766 73.6269 31.0151C73.6225 30.8921 73.6185 30.7136 73.6192 30.4872C73.6207 30.0344 73.6413 29.3891 73.7176 28.6117C73.8699 27.0589 74.2451 24.9679 75.1404 22.8284C76.0365 20.687 77.4569 18.4897 79.7015 16.7414C81.9485 14.9913 84.9974 13.7101 89.1183 13.3667L89.1183 13.3667C89.8851 13.3029 92.9115 13.1021 95.9048 14.029C98.9189 14.9625 101.956 17.0657 102.55 21.6126C103.687 30.3143 102.462 39.9 101.503 44.2825C101.251 45.4342 100.585 46.9807 99.6416 48.6002C98.6943 50.2261 97.451 51.9532 96.0221 53.4648C94.5957 54.9738 92.9673 56.2858 91.2465 57.057C89.5194 57.8311 87.6779 58.0682 85.8683 57.3825C82.3673 56.0559 79.9923 52.8023 78.5042 49.9586C77.7553 48.5276 77.2198 47.1788 76.8714 46.188C76.6971 45.6922 76.5693 45.285 76.4847 45.0007C76.4424 44.8585 76.411 44.747 76.3899 44.6703C76.3794 44.632 76.3714 44.6024 76.3661 44.5821C76.3645 44.576 76.3631 44.5708 76.3619 44.5664L76.3599 44.5586L76.3582 44.5522L76.3578 44.5504L76.3576 44.5498C76.3576 44.5496 76.3575 44.5494 76.7896 44.4386Z" fill="#2E186A"/>
<path d="M101.979 23.7821C93.593 24.1564 88.7377 23.2379 86.0484 21.1876C88.0479 22.3939 85.7987 34.9312 73.3751 33.0017C73.3751 33.0017 70.6992 28.8266 69.6586 24.5023C68.6819 20.4316 70.5654 16.161 74.3265 14.3374C77.4722 12.809 79.8047 14.0078 79.8047 14.0078C79.8047 14.0078 76.4672 8.30727 81.4756 3.27175C82.3518 2.39051 83.3981 1.69793 84.5504 1.23642C85.7028 0.774904 86.9369 0.554173 88.1772 0.587738C94.2931 0.768164 96.1841 5.95577 96.1841 5.95577C96.1841 5.95577 106.69 1.047 109.217 8.65172C111.744 16.2564 107.081 23.5629 101.979 23.7821Z" fill="#2E186A"/>
<path fill-rule="evenodd" clip-rule="evenodd" d="M90.2045 43.9531C90.1517 43.6291 89.8476 43.4087 89.5241 43.4604C89.1998 43.5122 88.9788 43.818 89.0304 44.1433L89.6177 44.0494C89.0304 44.1433 89.0305 44.1436 89.0305 44.1439L89.0306 44.1445L89.0309 44.1459L89.0314 44.1493L89.0331 44.1589C89.0344 44.1664 89.0361 44.1762 89.0384 44.1881C89.0429 44.2119 89.0495 44.2442 89.0585 44.2837C89.0764 44.3625 89.1042 44.4712 89.1451 44.5988C89.226 44.8512 89.3632 45.1931 89.5883 45.528C89.8142 45.8641 90.1397 46.209 90.5997 46.4364C91.0666 46.6672 91.6306 46.7561 92.2912 46.6411C92.6148 46.5848 92.8316 46.276 92.7754 45.9515C92.7192 45.6269 92.4114 45.4095 92.0878 45.4658C91.6521 45.5417 91.3464 45.4756 91.1255 45.3664C90.8977 45.2538 90.7173 45.0738 90.5744 44.8612C90.4306 44.6473 90.3359 44.4167 90.2773 44.2336C90.2484 44.1436 90.2294 44.0688 90.218 44.0187C90.2124 43.9937 90.2086 43.9751 90.2065 43.9641C90.2055 43.9587 90.2049 43.9551 90.2046 43.9536C90.2046 43.9534 90.2045 43.9533 90.2045 43.9531Z" fill="#2E186A"/>
<path fill-rule="evenodd" clip-rule="evenodd" d="M95.6896 33.7005C96.0159 33.6629 96.3108 33.8978 96.3482 34.2251L97.2506 42.1146C97.2729 42.3095 97.1981 42.503 97.0507 42.632C96.9033 42.761 96.702 42.809 96.5124 42.7604L93.7399 42.0491C93.4218 41.9675 93.2298 41.6426 93.3112 41.3235C93.3925 41.0044 93.7164 40.8118 94.0346 40.8934L95.9706 41.3901L95.1667 34.361C95.1292 34.0338 95.3634 33.738 95.6896 33.7005Z" fill="#2E186A"/>
<path d="M98.8092 35.6812C99.2542 35.6812 99.6149 35.1211 99.6149 34.4302C99.6149 33.7393 99.2542 33.1791 98.8092 33.1791C98.3642 33.1791 98.0034 33.7393 98.0034 34.4302C98.0034 35.1211 98.3642 35.6812 98.8092 35.6812Z" fill="#2E186A"/>
<path d="M91.0509 35.5441C91.4959 35.5441 91.8566 34.984 91.8566 34.293C91.8566 33.6021 91.4959 33.042 91.0509 33.042C90.6059 33.042 90.2451 33.6021 90.2451 34.293C90.2451 34.984 90.6059 35.5441 91.0509 35.5441Z" fill="#2E186A"/>
<path fill-rule="evenodd" clip-rule="evenodd" d="M90.8095 27.7156C90.2621 27.6276 89.7011 27.6885 89.1851 27.892C88.6691 28.0956 88.217 28.4343 87.8761 28.8728C87.6741 29.1325 87.3004 29.1789 87.0415 28.9763C86.7825 28.7737 86.7363 28.3989 86.9383 28.1392C87.4102 27.5323 88.0358 27.0636 88.7498 26.7819C89.4639 26.5002 90.2402 26.4159 90.9978 26.5378C91.3221 26.5899 91.5428 26.8959 91.4908 27.2211C91.4388 27.5464 91.1338 27.7678 90.8095 27.7156Z" fill="#2E186A"/>
<path fill-rule="evenodd" clip-rule="evenodd" d="M98.4514 27.5703C98.4516 27.5702 98.4518 27.5702 98.4521 27.5701C98.4537 27.5697 98.4572 27.5689 98.4626 27.5676C98.4735 27.5651 98.4916 27.5611 98.5161 27.5562C98.5654 27.5464 98.6394 27.5335 98.731 27.5226C98.917 27.5005 99.1609 27.4888 99.411 27.5221C99.8982 27.587 100.34 27.8007 100.53 28.4198C100.627 28.7345 100.96 28.9107 101.274 28.8134C101.588 28.7161 101.764 28.3821 101.667 28.0674C101.293 26.8539 100.337 26.442 99.5676 26.3396C99.1897 26.2892 98.8408 26.3083 98.5911 26.338C98.4648 26.353 98.3602 26.3711 98.2853 26.386C98.2477 26.3935 98.2174 26.4001 98.1953 26.4053C98.1842 26.4078 98.1751 26.41 98.1683 26.4117L98.1595 26.4139L98.1564 26.4147L98.1552 26.415L98.1546 26.4151C98.1544 26.4152 98.1541 26.4153 98.303 26.9895L98.1541 26.4153C97.8363 26.4982 97.6456 26.8238 97.7283 27.1426C97.8107 27.4607 98.1342 27.6519 98.4514 27.5703ZM98.4512 27.5703C98.4513 27.5703 98.4513 27.5703 98.4514 27.5703L98.4512 27.5703Z" fill="#2E186A"/>
<path fill-rule="evenodd" clip-rule="evenodd" d="M0.0424805 117.837C0.0424805 117.59 0.242153 117.39 0.488463 117.39H188.512C188.758 117.39 188.958 117.59 188.958 117.837C188.958 118.084 188.758 118.285 188.512 118.285H0.488463C0.242153 118.285 0.0424805 118.084 0.0424805 117.837Z" fill="#2E186A"/>
<path d="M74.0649 46.0954C74.0649 46.0954 69.4267 46.5069 69.4014 50.9907C69.3761 55.4745 82.7556 68.2967 82.7556 68.2967C82.7556 68.2967 86.1897 62.9287 89.148 66.5789C89.1554 66.5789 69.3895 51.4798 74.0649 46.0954Z" fill="white"/>
<path fill-rule="evenodd" clip-rule="evenodd" d="M74.4624 45.8919C74.545 46.0545 74.5209 46.2512 74.4014 46.3888C73.4388 47.4974 73.6535 49.1929 74.8409 51.351C76.0065 53.4694 78.0043 55.8267 80.1743 58.0424C82.3389 60.2525 84.6512 62.2981 86.4241 63.7927C87.0195 64.2946 87.5536 64.734 88.0001 65.0961C88.5165 65.3202 89.0194 65.7104 89.4943 66.2963L89.4535 66.3295C89.4702 66.489 89.4551 66.8168 89.1482 67.0258C89.0454 67.0258 88.9469 66.9903 88.8683 66.9268L88.8612 66.9212L88.8195 66.8889C88.7822 66.8599 88.7267 66.8169 88.6546 66.7605C88.5103 66.6478 88.2995 66.482 88.0328 66.2693C87.886 66.1522 87.7224 66.0208 87.5436 65.8763C87.3198 65.7931 87.1029 65.7571 86.8953 65.7543C86.2918 65.746 85.6787 66.0166 85.1029 66.4318C84.5314 66.8439 84.0373 67.3693 83.6822 67.7998C83.5058 68.0135 83.3664 68.2005 83.2717 68.3332C83.2244 68.3994 83.1884 68.4519 83.1647 68.4873C83.1528 68.5049 83.1439 68.5182 83.1383 68.5268L83.1323 68.5361L83.1311 68.5379C83.1311 68.5379 83.1311 68.538 83.131 68.5381C83.0591 68.6504 82.9408 68.7246 82.8087 68.7405C82.6764 68.7563 82.544 68.712 82.4477 68.6197L82.7558 68.2963C82.4477 68.6197 82.4476 68.6196 82.4475 68.6195L82.447 68.619L82.4375 68.61L82.4084 68.5819C82.3828 68.5572 82.3449 68.5206 82.2956 68.4728C82.1969 68.3772 82.0525 68.2366 81.8689 68.0562C81.5016 67.6954 80.9774 67.1753 80.3485 66.5373C79.0911 65.2617 77.4137 63.5128 75.7361 61.6221C74.0601 59.7333 72.3758 57.694 71.1095 55.8387C70.4765 54.9113 69.9416 54.0205 69.5641 53.2107C69.1908 52.4097 68.9519 51.6471 68.9556 50.9878C68.9693 48.5519 70.2532 47.1964 71.5223 46.4724C72.1487 46.115 72.7701 45.9106 73.2323 45.7953C73.4642 45.7374 73.6585 45.7013 73.7964 45.6795C73.8655 45.6686 73.9206 45.6613 73.9596 45.6566C73.9791 45.6542 73.9945 45.6525 74.0056 45.6514C74.0112 45.6508 74.0157 45.6503 74.019 45.65L74.0233 45.6496L74.0247 45.6495L74.0253 45.6494C74.0255 45.6494 74.0258 45.6494 74.0651 46.095L74.0258 45.6494C74.207 45.6333 74.3798 45.7293 74.4624 45.8919ZM82.6928 67.6128C82.7779 67.4996 82.8792 67.3697 82.995 67.2294C83.3761 66.7674 83.9255 66.179 84.5823 65.7053C85.0953 65.3354 85.6997 65.017 86.3586 64.9036C86.1948 64.7672 86.0251 64.6251 85.8502 64.4776C84.0651 62.9728 81.7296 60.9071 79.538 58.6694C77.3519 56.4373 75.2853 54.0103 74.06 51.7832C73.0803 50.0028 72.565 48.2067 73.1487 46.746C72.7928 46.8537 72.377 47.014 71.9633 47.2501C70.9069 47.8528 69.8591 48.9449 69.8476 50.9929C69.845 51.4545 70.0187 52.0734 70.3722 52.8318C70.7216 53.5815 71.2277 54.4281 71.8455 55.3333C73.0808 57.1432 74.7367 59.1501 76.4023 61.0273C78.0664 62.9026 79.7323 64.6396 80.9828 65.9083C81.6078 66.5424 82.1287 67.0591 82.493 67.417C82.566 67.4887 82.6328 67.5541 82.6928 67.6128ZM88.87 66.9281C88.871 66.9289 88.8701 66.9282 88.8686 66.927L88.87 66.9281Z" fill="#2E186A"/>
<path d="M89.5942 68.2964C89.5942 68.2964 93.1264 77.3639 93.8876 96.24L89.5942 68.2964Z" fill="white"/>
<path fill-rule="evenodd" clip-rule="evenodd" d="M89.4317 67.88C89.6612 67.7901 89.9198 67.9037 90.0095 68.1338L89.5941 68.2966C90.0095 68.1338 90.0095 68.134 90.0096 68.1342L90.0105 68.1365L90.0128 68.1425C90.0148 68.1477 90.0176 68.155 90.0212 68.1646C90.0284 68.1837 90.0389 68.2117 90.0524 68.2486C90.0795 68.3224 90.1188 68.4318 90.1689 68.5771C90.2689 68.8676 90.4117 69.3013 90.585 69.8796C90.9315 71.0364 91.3999 72.7717 91.8916 75.0971C92.8749 79.7481 93.9514 86.759 94.333 96.2222C94.3429 96.469 94.1515 96.6772 93.9054 96.6872C93.6593 96.6972 93.4517 96.5052 93.4418 96.2583C93.0622 86.8454 91.992 79.8845 91.019 75.2827C90.5325 72.9817 90.0703 71.2704 89.7307 70.1371C89.561 69.5705 89.4219 69.1483 89.3258 68.8692C89.2777 68.7296 89.2404 68.6258 89.2154 68.5576C89.2028 68.5235 89.1934 68.4982 89.1872 68.4819C89.1841 68.4737 89.1819 68.4678 89.1804 68.464L89.1789 68.4601L89.1787 68.4594L89.1786 68.4593C89.0891 68.2292 89.2024 67.9699 89.4317 67.88Z" fill="#2E186A"/>
<path fill-rule="evenodd" clip-rule="evenodd" d="M85.583 31.4396C85.6077 31.2127 85.7988 31.0408 86.0264 31.0408H94.5C94.7157 31.0408 94.9005 31.1956 94.9389 31.4085L94.5 31.4881C94.9389 31.4085 94.9389 31.4087 94.939 31.4089L94.9394 31.4111L94.9402 31.4162C94.941 31.4203 94.942 31.4262 94.9432 31.4336C94.9457 31.4484 94.9491 31.4696 94.9533 31.4966C94.9616 31.5507 94.9729 31.6285 94.985 31.7267C95.0093 31.9229 95.0375 32.2012 95.0537 32.5345C95.0861 33.198 95.072 34.0946 94.8779 35.0005C94.6842 35.9042 94.3041 36.8506 93.5782 37.574C92.8416 38.3082 91.7891 38.7722 90.3375 38.7722C88.9621 38.7722 87.9457 38.3023 87.2167 37.5735C86.4993 36.8562 86.0895 35.9183 85.8551 35.0198C85.6199 34.1185 85.5529 33.2252 85.5433 32.5629C85.5384 32.2303 85.5481 31.9526 85.559 31.7568C85.5645 31.6589 85.5703 31.5812 85.5748 31.5273C85.5771 31.5003 85.5791 31.4792 85.5805 31.4645C85.5812 31.4571 85.5818 31.4513 85.5822 31.4472L85.5827 31.4421L85.5829 31.4406L85.583 31.44C85.583 31.4398 85.583 31.4396 86.0264 31.4881L85.583 31.4396ZM86.4433 31.9354C86.4363 32.1003 86.4317 32.3092 86.4351 32.5499C86.4441 33.1694 86.5072 33.9853 86.718 34.7932C86.9295 35.6039 87.2816 36.3752 87.8464 36.9398C88.3996 37.4929 89.1858 37.8776 90.3375 37.8776C91.5834 37.8776 92.4 37.487 92.9495 36.9393C93.5099 36.3808 93.8332 35.618 94.0058 34.8125C94.178 34.0092 94.193 33.1966 94.1628 32.5782C94.1504 32.3234 94.1305 32.1042 94.1115 31.9354H86.4433Z" fill="#2E186A"/>
<path fill-rule="evenodd" clip-rule="evenodd" d="M96.4356 31.4174C96.4602 31.1905 96.6513 31.0186 96.8789 31.0186H105.353C105.568 31.0186 105.753 31.1734 105.791 31.3863L105.353 31.4659C105.791 31.3863 105.791 31.3865 105.792 31.3867L105.792 31.3889L105.793 31.3939C105.794 31.3981 105.795 31.404 105.796 31.4114C105.798 31.4262 105.802 31.4473 105.806 31.4744C105.814 31.5285 105.825 31.6063 105.838 31.7045C105.862 31.9007 105.89 32.179 105.906 32.5123C105.939 33.1758 105.925 34.0724 105.73 34.9783C105.537 35.882 105.157 36.8284 104.431 37.5518C103.694 38.286 102.642 38.75 101.19 38.75C99.8146 38.75 98.7982 38.2801 98.0693 37.5513C97.3518 36.834 96.9421 35.896 96.7076 34.9975C96.4724 34.0963 96.4054 33.203 96.3958 32.5406C96.391 32.2081 96.4006 31.9304 96.4116 31.7346C96.417 31.6367 96.4229 31.559 96.4274 31.5051C96.4297 31.4781 96.4316 31.457 96.433 31.4423C96.4337 31.4349 96.4343 31.4291 96.4348 31.4249L96.4353 31.4199L96.4355 31.4183L96.4355 31.4178C96.4355 31.4176 96.4356 31.4174 96.8789 31.4659L96.4356 31.4174ZM97.2958 31.9132C97.2889 32.0781 97.2842 32.287 97.2877 32.5276C97.2967 33.1472 97.3597 33.9631 97.5705 34.771C97.7821 35.5817 98.1342 36.353 98.6989 36.9176C99.2522 37.4707 100.038 37.8553 101.19 37.8553C102.436 37.8553 103.253 37.4648 103.802 36.9171C104.362 36.3586 104.686 35.5958 104.858 34.7903C105.031 33.987 105.046 33.1744 105.015 32.556C105.003 32.3012 104.983 32.082 104.964 31.9132H97.2958Z" fill="#2E186A"/>
<path fill-rule="evenodd" clip-rule="evenodd" d="M94.4795 32.8076C94.4795 32.5606 94.6792 32.3603 94.9255 32.3603H96.5563C96.8026 32.3603 97.0023 32.5606 97.0023 32.8076C97.0023 33.0547 96.8026 33.255 96.5563 33.255H94.9255C94.6792 33.255 94.4795 33.0547 94.4795 32.8076Z" fill="#2E186A"/>
<path fill-rule="evenodd" clip-rule="evenodd" d="M74.4307 31.4659C74.4307 31.2188 74.6303 31.0186 74.8766 31.0186H85.2576C85.5039 31.0186 85.7036 31.2188 85.7036 31.4659C85.7036 31.7129 85.5039 31.9132 85.2576 31.9132H74.8766C74.6303 31.9132 74.4307 31.7129 74.4307 31.4659Z" fill="#2E186A"/>
</g>
<defs>
<clipPath id="clip0_17550_7538">
<rect width="189" height="118" fill="white" transform="translate(0 0.329834)"/>
</clipPath>
</defs>
</svg>
