<svg width="134" height="105" viewBox="0 0 134 105" fill="none" xmlns="http://www.w3.org/2000/svg">
<g clip-path="url(#clip0_12847_55660)">
<path d="M14.4239 104.277C14.4239 104.277 -22.7614 69.2461 22.2822 23.0129C52.8811 -8.39464 113.878 -6.95775 128.801 23.0129C143.722 52.9835 121.787 104.772 121.787 104.772L14.4255 104.277H14.4239Z" fill="#F5F5FE"/>
<path d="M35.2232 104.331V15.3702C35.2232 15.1094 35.3398 14.8972 35.4856 14.8972H111.702C111.846 14.8972 111.964 15.1094 111.964 15.3702V104.331" fill="white"/>
<path d="M35.2232 104.331V15.3702C35.2232 15.1094 35.3398 14.8972 35.4856 14.8972H111.702C111.846 14.8972 111.964 15.1094 111.964 15.3702V104.331" stroke="#2E186A" stroke-linecap="round" stroke-linejoin="round"/>
<path d="M61.8977 22.1869H42.2924V28.5047H61.8977V22.1869Z" fill="#DFDFEF"/>
<path d="M83.6094 22.1869H64.0041V28.5047H83.6094V22.1869Z" fill="#DFDFEF"/>
<path d="M105.321 22.1869H85.7158V28.5047H105.321V22.1869Z" fill="#DFDFEF"/>
<path d="M61.8977 30.4486H42.2924V36.7664H61.8977V30.4486Z" fill="#DFDFEF"/>
<path d="M83.6094 30.4486H64.0041V36.7664H83.6094V30.4486Z" fill="#DFDFEF"/>
<path d="M105.321 30.4486H85.7158V36.7664H105.321V30.4486Z" fill="#E0840B"/>
<path d="M61.8977 38.7103H42.2924V45.0281H61.8977V38.7103Z" fill="#DFDFEF"/>
<path d="M83.6094 38.7103H64.0041V45.0281H83.6094V38.7103Z" fill="#DFDFEF"/>
<path d="M105.321 38.7103H85.7158V45.0281H105.321V38.7103Z" fill="#6A6AF4"/>
<path d="M61.8977 46.972H42.2924V53.2898H61.8977V46.972Z" fill="#DFDFEF"/>
<path d="M83.6094 46.972H64.0041V53.2898H83.6094V46.972Z" fill="#DFDFEF"/>
<path d="M105.321 46.972H85.7158V53.2898H105.321V46.972Z" fill="#E0840B"/>
<path d="M61.8977 55.2338H42.2924V61.5516H61.8977V55.2338Z" fill="#DFDFEF"/>
<path d="M83.6094 55.2338H64.0041V61.5516H83.6094V55.2338Z" fill="#DFDFEF"/>
<path d="M105.321 55.2338H85.7158V61.5516H105.321V55.2338Z" fill="#DFDFEF"/>
<path d="M61.8977 63.4955H42.2924V69.8133H61.8977V63.4955Z" fill="#DFDFEF"/>
<path d="M83.6094 63.4955H64.0041V69.8133H83.6094V63.4955Z" fill="#DFDFEF"/>
<path d="M105.321 63.4955H85.7158V69.8133H105.321V63.4955Z" fill="#E0840B"/>
<path d="M61.8977 71.7572H42.2924V78.075H61.8977V71.7572Z" fill="#DFDFEF"/>
<path d="M84.4196 72.5673H64.8142V78.885H84.4196V72.5673Z" fill="#DFDFEF"/>
<path d="M105.321 71.7572H85.7158V78.075H105.321V71.7572Z" fill="#E0840B"/>
<path d="M61.8977 80.0189H42.2924V86.3367H61.8977V80.0189Z" fill="#DFDFEF"/>
<path d="M83.6094 80.0189H64.0041V86.3367H83.6094V80.0189Z" fill="#DFDFEF"/>
<path d="M105.321 80.0189H85.7158V86.3367H105.321V80.0189Z" fill="#6A6AF4"/>
<path d="M61.8977 88.2808H42.2924V94.5985H61.8977V88.2808Z" fill="#DFDFEF"/>
<path d="M83.6094 88.2808H64.0041V94.5985H83.6094V88.2808Z" fill="#DFDFEF"/>
<path d="M105.321 88.2808H85.7158V94.5985H105.321V88.2808Z" fill="#DFDFEF"/>
<path d="M118.641 89.1911C118.476 89.0501 118.392 88.8363 118.415 88.6209C118.876 84.4511 120.779 80.1583 123.747 78.5837C126.796 76.9654 128.878 81.4575 124.649 85.6321C121.467 88.7731 119.769 89.285 119.123 89.345C118.948 89.3612 118.774 89.3045 118.641 89.1911Z" fill="#FF8D7E"/>
<path d="M126.221 78.9546C126.221 78.9546 120.884 84.2389 118.748 89.0371" stroke="#2E186A" stroke-linecap="round" stroke-linejoin="round"/>
<path d="M125.275 84.6876C125.275 84.6876 123.081 84.6131 120.717 85.6337" stroke="#2E186A" stroke-linecap="round" stroke-linejoin="round"/>
<path d="M122.716 79.4763C122.716 79.4763 120.045 84.2082 120.241 86.2396" stroke="#2E186A" stroke-linecap="round" stroke-linejoin="round"/>
<path d="M122.598 87.2698C122.598 87.2698 120.597 87.1953 119.293 87.9971" stroke="#2E186A" stroke-linecap="round" stroke-linejoin="round"/>
<path d="M114.871 85.3777C114.643 85.5333 114.382 85.5608 114.176 85.449C110.195 83.2848 106.838 79.2462 106.784 74.8854C106.729 70.403 112.356 69.4634 114.388 76.4081C115.916 81.634 115.552 83.983 115.278 84.8253C115.203 85.0537 115.056 85.2514 114.871 85.3777Z" fill="#FF8D7E"/>
<path d="M114.615 85.5089C114.615 85.5089 112.993 74.5873 108.333 72.0974" stroke="#2E186A" stroke-linecap="round" stroke-linejoin="round"/>
<path d="M107.016 75.5576C108.037 76.0112 111.669 77.6895 113.055 79.1944" stroke="#2E186A" stroke-linecap="round" stroke-linejoin="round"/>
<path d="M114.156 76.3546C114.301 77.8936 114.445 80.5746 113.802 81.4153" stroke="#2E186A" stroke-linecap="round" stroke-linejoin="round"/>
<path d="M114.017 83.0839C114.017 83.0839 110.43 81.8689 108.818 80.5795" stroke="#2E186A" stroke-linecap="round" stroke-linejoin="round"/>
<path d="M115.639 91.9483C115.639 91.9483 114.724 88.6744 111.938 88.4379" stroke="#2E186A" stroke-linecap="round" stroke-linejoin="round"/>
<path d="M112.386 87.3236C112.469 86.7191 112.375 86.2068 112.175 86.1794C111.976 86.1519 111.747 86.6197 111.664 87.2241C111.58 87.8286 111.675 88.3409 111.874 88.3683C112.073 88.3958 112.303 87.928 112.386 87.3236Z" fill="#E0840B"/>
<path d="M111.874 88.3723C111.991 88.2286 111.733 87.8253 111.298 87.4714C110.862 87.1176 110.415 86.9472 110.298 87.0909C110.181 87.2346 110.439 87.6379 110.874 87.9918C111.31 88.3457 111.757 88.516 111.874 88.3723Z" fill="#E0840B"/>
<path d="M113.024 88.145C113.567 87.865 113.931 87.493 113.839 87.3141C113.746 87.1353 113.232 87.2173 112.69 87.4973C112.147 87.7774 111.783 88.1494 111.875 88.3282C111.968 88.5071 112.482 88.425 113.024 88.145Z" fill="#E0840B"/>
<path d="M111.135 89.1521C111.629 88.8854 111.957 88.5372 111.869 88.3743C111.781 88.2113 111.31 88.2954 110.816 88.562C110.322 88.8286 109.994 89.1769 110.082 89.3398C110.17 89.5028 110.641 89.4187 111.135 89.1521Z" fill="#E0840B"/>
<path d="M112.723 90.2149C112.891 90.1371 112.836 89.6614 112.601 89.1523C112.365 88.6433 112.038 88.2937 111.869 88.3715C111.701 88.4493 111.756 88.925 111.992 89.4341C112.228 89.9431 112.555 90.2927 112.723 90.2149Z" fill="#E0840B"/>
<path d="M121.018 75.4119C121.018 75.4119 114.573 80.5066 117.436 92.0795" stroke="#2E186A" stroke-linecap="round" stroke-linejoin="round"/>
<path d="M121.879 74.8635C122.288 74.1635 122.341 73.4337 121.998 73.2334C121.655 73.0331 121.045 73.4382 120.637 74.1382C120.228 74.8382 120.175 75.568 120.518 75.7683C120.861 75.9686 121.47 75.5635 121.879 74.8635Z" fill="#E0840B"/>
<path d="M121.905 76.4469C122.715 76.4307 123.366 76.0957 123.358 75.6986C123.35 75.3014 122.687 74.9925 121.876 75.0086C121.066 75.0248 120.415 75.3598 120.423 75.757C120.431 76.1541 121.094 76.463 121.905 76.4469Z" fill="#E0840B"/>
<path d="M120.42 75.7728C120.702 75.5588 120.577 74.9177 120.139 74.3408C119.702 73.7639 119.119 73.4697 118.836 73.6836C118.554 73.8976 118.679 74.5387 119.116 75.1156C119.554 75.6925 120.137 75.9867 120.42 75.7728Z" fill="#E0840B"/>
<path d="M120.942 76.9316C121.242 76.2728 121.223 75.6198 120.901 75.4731C120.578 75.3265 120.074 75.7417 119.774 76.4006C119.474 77.0595 119.493 77.7125 119.816 77.8591C120.138 78.0058 120.643 77.5905 120.942 76.9316Z" fill="#E0840B"/>
<path d="M119.921 76.3219C120.571 76.2531 121.07 75.9392 121.037 75.6207C121.003 75.3022 120.449 75.0997 119.799 75.1684C119.15 75.2371 118.65 75.5511 118.684 75.8696C118.718 76.1881 119.272 76.3906 119.921 76.3219Z" fill="#E0840B"/>
<path d="M123.403 92.6659L120.712 104.717H112.159L109.467 92.6659C109.313 91.9774 109.748 91.3003 110.346 91.3003H122.525C123.123 91.3003 123.557 91.9758 123.403 92.6659Z" fill="white" stroke="#2E186A" stroke-linecap="round" stroke-linejoin="round"/>
<path d="M13.8193 72.1461L54.7702 72.4458C55.4215 72.4506 56.0129 72.8281 56.2916 73.4161L69.4985 100.49L95.4148 100.515C95.4148 100.515 95.9932 104.308 91.1583 104.543L71.446 104.48L71.5027 104.595L26.4105 104.438L12.2736 74.5663C11.7389 73.4355 12.5701 72.1363 13.821 72.1444L13.8193 72.1461Z" fill="#6A6AF4"/>
<path d="M29.3497 104.031L15.425 74.5663C14.8903 73.4355 15.7215 72.1363 16.9724 72.1444" stroke="white" stroke-linecap="round" stroke-linejoin="round"/>
<path d="M65.1902 99.2056L31.3248 99.0339C30.1371 99.0274 29.0548 98.3486 28.5347 97.2811L18.335 75.6791C17.8976 74.793 18.5781 73.7741 19.6021 73.7822L53.1645 74.0284C53.6975 74.0316 54.182 74.3281 54.4121 74.7898L66.2174 97.5727C66.5885 98.3292 66.0343 99.2121 65.1918 99.2072L65.1902 99.2056Z" fill="white"/>
<path d="M37.498 104.521H18.2443V103.865C18.2443 101.94 19.8079 100.377 21.7328 100.377H34.0096C35.9345 100.377 37.498 101.94 37.498 103.865V104.521Z" fill="#E0840B"/>
<path d="M12.5604 104.561H121.767" stroke="#2E186A" stroke-linecap="round" stroke-linejoin="round"/>
</g>
<defs>
<clipPath id="clip0_12847_55660">
<rect width="134" height="105" fill="white" transform="translate(0 -0.00634766)"/>
</clipPath>
</defs>
</svg>
