<svg xmlns="http://www.w3.org/2000/svg" width="285" height="159" fill="none" viewBox="0 0 285 159"><g clip-path="url(#a)"><path fill="#e8edff" d="M2 0h282v158.625H2z"/><path fill="#ff8d7e" fill-rule="evenodd" d="M207.554 77.312c29.665-1.683 33.912 15.938 32.79 29.341-1.142 13.721-4.146 51.2-4.146 51.2.18.198-70.468.198-70.268 0 0 0 2.824-37.479 3.966-51.2 1.122-13.403 8.253-31.044 37.658-29.342" clip-rule="evenodd"/><path fill="#000091" fill-rule="evenodd" d="m230.025 113.166-2.601 33.116c-.387 4.887-.689 8.641-.943 11.718a.6.6 0 0 1-.648.544.596.596 0 0 1-.55-.64l.517-6.367c.222-2.769.477-5.982.777-9.784l2.439-31.053.333-4.115c.556-6.657-.346-12.648-3.067-17.427-3.337-5.86-9.274-9.654-18.252-10.922a.595.595 0 0 1-.51-.672.6.6 0 0 1 .68-.504c9.337 1.318 15.603 5.323 19.129 11.515 2.827 4.965 3.773 11.11 3.235 17.901l-.447 5.53z" clip-rule="evenodd"/><path fill="#fff" fill-rule="evenodd" d="M169.895 124.195c0-.02-15.984 2.475-15.984 2.475l-1.703 15.779.601 12.394c3.445.08 7.171-.158 11.117-.871 2.484-.455 5.148-2.554 5.869-4.949 1.182-3.98 1.462-14.948.1-24.828" clip-rule="evenodd"/><path fill="#000091" fill-rule="evenodd" d="m169.99 123.608-.071-.007h-.049l-.025.002-.054.006-.163.023-2.907.445-7.435 1.154-5.469.852a.6.6 0 0 0-.504.524l-1.702 15.779a1 1 0 0 0-.003.092l.601 12.394a.597.597 0 0 0 .586.565 56 56 0 0 0 11.239-.88c2.779-.51 5.57-2.815 6.337-5.365l.039-.133c1.259-4.456 1.364-15.635.081-24.944l-.009.001-.005-.026c-.021-.113-.031-.131-.077-.218l-.121-.123a.3.3 0 0 0-.086-.07l-.113-.046c-.044-.018-.056-.019-.09-.025m-.61 1.262.031.243c1.156 9.078 1.009 19.698-.192 23.742-.634 2.104-3.053 4.103-5.402 4.533l-.338.06a54.6 54.6 0 0 1-9.998.813l-.098-.002-.572-11.792 1.649-15.282 12.198-1.896z" clip-rule="evenodd"/><path fill="#6a6af4" fill-rule="evenodd" d="m158.958 158.447 3.205-18.472s-3.004-3.703-2.764-8.93c.02-.336.04-.693.08-1.049-.02-.079-6.329-2.099-6.69-2.851.24-4.257 3.746-15.562 9.915-18.175 1.983-.911 6.771-2.257 7.752-2.594 4.567-1.524 14.162-4.019 22.494-2.376 0 0 12.74 2.059 15.584 3.722 1.543.911 9.254 5.841 10.717 19.482.02.218-13.321 4.831-13.321 4.831l-1.322 26.392" clip-rule="evenodd"/><path fill="#fff" fill-rule="evenodd" d="m178.448 97.744-.12 7.266-2.604.495c-.441.634-5.368 8.078 5.769 9.028 7.271.634 15.283-3.583 19.59-8.592l-7.131-1.921-2.144-13.483z" clip-rule="evenodd"/><path fill="#000091" fill-rule="evenodd" d="m178.161 97.223-.035.02a.59.59 0 0 0-.278.491l-.113 6.784-2.124.404a.6.6 0 0 0-.382.246 10 10 0 0 0-.907 1.646c-.458 1.049-.707 2.102-.655 3.116.146 2.87 2.602 4.754 7.774 5.195 7.024.612 15.317-3.236 20.1-8.8l.023-.028a.592.592 0 0 0-.323-.93l-6.756-1.819-2.082-13.103a.603.603 0 0 0-.882-.43zm13.187-5.76 2.011 12.649.007.038a.6.6 0 0 0 .428.443l6.195 1.668-.07.075c-4.626 4.862-12.091 8.153-18.373 7.606-4.633-.396-6.567-1.878-6.679-4.072-.041-.808.168-1.69.558-2.585a9 9 0 0 1 .484-.953l.039-.066.111-.181.028-.044 2.355-.448.036-.008a.594.594 0 0 0 .451-.565l.114-6.92z" clip-rule="evenodd"/><path fill="#e0840b" d="m204.939 60.274 2.58 2.103-3.746 4.49-2.58-2.102z"/><path fill="#000091" fill-rule="evenodd" d="M209.756 62.938c3.253 0 5.889-2.607 5.889-5.821 0-3.215-2.636-5.821-5.889-5.821-3.252 0-5.889 2.606-5.889 5.82s2.637 5.822 5.889 5.822M203.186 62.542c-4.386-2.93-9.434-5.148-14.822-4.693-16.606 2.158-20.632 12.513-16.485 18.928 2.604-7.405 4.807-9.86 8.072-10.79 1.162 5.207 9.434 13.087 17.847 15.581.02-.02-2.243 7.464-2.964 7.207-.261.396-2.945 3.98-2.945 3.98l1.703 8.355 18.929 2.276c1.141.297 2.343-.554 2.383-1.702.221-7.108 2.264-29.48-11.718-39.142" clip-rule="evenodd"/><path fill="#fff" fill-rule="evenodd" d="m192.47 90.517 1.041.535s6.31 2.613 8.173-3.326c1.422-4.515-3.185-5.524-5.509-5.762" clip-rule="evenodd"/><path fill="#000091" fill-rule="evenodd" d="M195.578 81.903a.6.6 0 0 1 .66-.53c1.716.176 3.264.593 4.434 1.376 1.674 1.121 2.309 2.857 1.586 5.153-.755 2.408-2.268 3.753-4.279 4.175-1.214.254-2.49.154-3.72-.164l-.153-.04a7 7 0 0 1-.826-.273l-.023-.01-.022-.011-1.042-.535a.59.59 0 0 1-.256-.8.604.604 0 0 1 .777-.27l.033.016 1.018.522.056.022.093.033.038.014q.271.093.611.182c1.064.276 2.162.362 3.166.152 1.589-.334 2.756-1.37 3.382-3.366.564-1.791.127-2.986-1.113-3.816-.97-.65-2.348-1.021-3.884-1.178a.596.596 0 0 1-.536-.652" clip-rule="evenodd"/><path fill="#fff" fill-rule="evenodd" d="M171.878 76.797c2.604-7.405 4.687-9.583 7.952-10.514 1.142 5.128 8.353 12.593 17.747 15.265-.1 1.09.021.12-.26 1.287-.38 1.168-.801 2.495-1.222 3.604-1.863 4.098-4.206 6.355-4.206 6.355-3.425 3.584-8.073 5.761-13.28 4.91-9.074-1.485-8.213-14.453-7.692-17.245.24-1.405.941-3.662.961-3.662q-.03 0 0 0" clip-rule="evenodd"/><path fill="#000091" fill-rule="evenodd" d="M179.553 65.745c-3.656 1.083-5.75 3.771-8.242 10.857h.002l-.03.082c-.229.634-.741 2.505-.935 3.548l-.023.129c-.438 2.343-.466 6.157.254 9.34 1.07 4.735 3.615 7.883 7.932 8.59l.153.023c5.007.766 9.786-1.12 13.547-4.993l.108-.111.059-.059q.14-.14.379-.404c.323-.36.675-.784 1.043-1.27a25.3 25.3 0 0 0 2.844-4.795l.014-.035c.187-.492.379-1.038.603-1.706l.198-.6.431-1.323.006-.023.056-.225q.046-.178.075-.27l.022-.063.013-.027.004-.01a.7.7 0 0 0 .059-.225l.051-.573a.59.59 0 0 0-.432-.624c-4.34-1.235-8.447-3.591-11.727-6.578-3-2.732-5.051-5.783-5.599-8.244a.6.6 0 0 0-.754-.443zm-.223 1.327.08-.029.002.007c.782 2.589 2.868 5.562 5.791 8.224l.151.136c3.236 2.908 7.224 5.225 11.46 6.532l.123.038-.001.007-.018.046-.027.078-.01.03a8 8 0 0 0-.117.431l-.025.102-.492 1.509-.167.504c-.189.56-.354 1.03-.513 1.453l-.027.07.008-.015a24 24 0 0 1-2.71 4.57c-.348.458-.678.857-.98 1.193l-.102.113-.095.102-.108.112-.1.101c-3.558 3.722-8.053 5.5-12.746 4.732-3.756-.614-5.981-3.366-6.955-7.676-.682-3.016-.655-6.67-.244-8.875.103-.597.298-1.403.543-2.277l.062-.219c.052-.18.103-.354.151-.513l.097-.317.066-.202.004-.009.015-.038.134-.377c2.172-6.074 3.938-8.495 6.75-9.543" clip-rule="evenodd"/><path fill="#000091" fill-rule="evenodd" d="M178.883 75.125a.604.604 0 0 1 .796-.294.59.59 0 0 1 .312.754l-.014.032-4.092 8.884 1.877.492a.593.593 0 0 1 .434.693l-.008.034a.6.6 0 0 1-.7.43l-.035-.008-2.564-.673a.592.592 0 0 1-.406-.788l.014-.033zM182.922 75.145c1.266-.425 2.346.032 3.171 1a4.9 4.9 0 0 1 .7 1.092.59.59 0 0 1-.316.78.604.604 0 0 1-.774-.282l-.04-.085a3.675 3.675 0 0 0-.488-.74c-.538-.63-1.139-.884-1.866-.64a.6.6 0 0 1-.762-.371.59.59 0 0 1 .375-.754M179.86 88.817a.606.606 0 0 1 .85-.013.59.59 0 0 1 .013.84c-.459.468-1.046.74-1.716.848-.638.102-1.3.05-1.941-.095l-.118-.028a5 5 0 0 1-.428-.125.59.59 0 0 1-.358-.762.6.6 0 0 1 .737-.365l.085.028.045.014q.136.04.306.08c.502.114 1.017.154 1.48.08.404-.065.738-.212.997-.455zM173.145 73.075c.978-.427 1.984-.2 2.925.404.347.224.61.448.767.608a.59.59 0 0 1-.014.84.606.606 0 0 1-.821.013l-.063-.06-.105-.093a4 4 0 0 0-.419-.311c-.635-.408-1.25-.547-1.785-.314a1.6 1.6 0 0 0-.332.197l-.054.043a.606.606 0 0 1-.846-.077.59.59 0 0 1 .078-.836 2.8 2.8 0 0 1 .669-.414M182.657 79.592c.164-.726-.088-1.4-.563-1.504s-.993.398-1.157 1.124c-.164.725.088 1.398.563 1.504.475.105.993-.398 1.157-1.124M174.444 78.048c.165-.725-.087-1.399-.562-1.504s-.994.398-1.158 1.124c-.164.725.088 1.399.563 1.504s.993-.398 1.157-1.124" clip-rule="evenodd"/><path fill="#e0840b" fill-rule="evenodd" d="M179.365 78.42c-.977 4.209.864 8.267 4.219 9.018s6.805-2.122 7.783-6.332c.977-4.21-.864-8.268-4.219-9.019s-6.806 2.123-7.783 6.332m1.169.26c.843-3.627 3.717-6.02 6.344-5.433 2.628.589 4.161 3.97 3.319 7.597s-3.717 6.022-6.344 5.434-4.161-3.97-3.319-7.597M164.829 75.67c-.978 4.21.863 8.268 4.218 9.02 3.356.75 6.806-2.123 7.783-6.333s-.863-8.268-4.218-9.02c-3.355-.75-6.806 2.123-7.783 6.333m1.169.262c.843-3.628 3.717-6.022 6.344-5.434s4.161 3.97 3.319 7.597-3.717 6.022-6.344 5.434-4.161-3.97-3.319-7.597" clip-rule="evenodd"/><path fill="#e0840b" fill-rule="evenodd" d="M176.105 77.1a.6.6 0 0 1 .701-.43l.035.008 3.385.891a.593.593 0 0 1-.275 1.156l-.034-.008-3.386-.891a.594.594 0 0 1-.426-.727M190.486 79.537a.603.603 0 0 1 .741-.358l.033.012 7.071 2.633a.59.59 0 0 1 .35.765.6.6 0 0 1-.74.358l-.034-.011-7.071-2.634a.59.59 0 0 1-.35-.765" clip-rule="evenodd"/><path fill="#fff" fill-rule="evenodd" d="M57.844 49.771c0-.396-3.185-5.009-4.166-6.553-.982-1.545 1.382-2.93 2.964-.614 1.562 2.316 2.624 4.376 2.624 4.376" clip-rule="evenodd"/><path fill="#000091" fill-rule="evenodd" d="M53.985 40.908c1.05-.395 2.293.103 3.157 1.367a50 50 0 0 1 1.92 3.093l.133.233q.162.285.302.542l.14.259.15.28.014.028a.59.59 0 0 1-.262.799.605.605 0 0 1-.791-.228l-.023-.042-.091-.173-.089-.164-.105-.194a48.885 48.885 0 0 0-2.296-3.772c-.569-.832-1.243-1.102-1.733-.917-.365.137-.483.476-.225.883l.128.2c.112.173.249.381.418.638l1.458 2.192c1.752 2.642 2.255 3.445 2.255 3.84 0 .327-.27.593-.601.593a.6.6 0 0 1-.586-.458l-.006-.032-.006-.013a3 3 0 0 0-.072-.145l-.042-.076a17 17 0 0 0-.426-.715l-.244-.388a107 107 0 0 0-.944-1.45l-1.877-2.827a55 55 0 0 1-.473-.727c-.664-1.046-.254-2.224.817-2.626" clip-rule="evenodd"/><path fill="#fff" fill-rule="evenodd" d="M60.969 56.483s-2.805-4.573-3.065-6.454-.561-10.79-.16-11.682c.4-.89 2.063-.89 2.103 1.267.04 2.159 0 6.772 0 6.772" clip-rule="evenodd"/><path fill="#000091" fill-rule="evenodd" d="M57.195 38.106a1.57 1.57 0 0 1 1.93-.83c.809.272 1.3 1.12 1.323 2.328l.008.524c.006.537.009 1.19.01 1.94v.96l-.003.882-.007 1.345-.008 1.136a.6.6 0 0 1-.606.589.6.6 0 0 1-.595-.564v-.127l.008-1.183.006-1.2.002-.88V41.58c-.002-.79-.008-1.452-.017-1.956-.014-.749-.237-1.133-.509-1.225a.36.36 0 0 0-.444.189c-.288.64-.097 9.164.206 11.36.077.55.438 1.482 1.011 2.651q.21.428.45.884c.278.529.572 1.062.87 1.581l.178.31.205.35.27.45a.59.59 0 0 1-.203.816.605.605 0 0 1-.805-.17l-.056-.09-.1-.165a53 53 0 0 1-1.426-2.534 37 37 0 0 1-.464-.914l-.108-.223c-.564-1.173-.92-2.114-1.012-2.786l-.018-.141c-.124-1.03-.251-3.474-.31-5.9l-.013-.594c-.059-2.925-.003-4.857.227-5.368" clip-rule="evenodd"/><path fill="#fff" fill-rule="evenodd" d="M58.966 53.276c-.641-2.218-1.062-4-.982-4.594.24-1.94 2.424-10.612 3.185-11.285s2.164.831 1.583 2.95l-1.463 6.138s2.224-6.633 2.745-7.326 2.624.357 1.041 4.356c-1.582 3.98-1.402 4.395-1.402 4.395s2.143-4.732 2.764-5.524 2.664 1.188.02 5.366l6.43 13.423-10.055 4.158s-2.444-7.068-3.866-12.057" clip-rule="evenodd"/><path fill="#000091" fill-rule="evenodd" d="M60.768 36.954c.699-.617 1.637-.292 2.197.543.265.397.437.88.499 1.409l.003.028.01-.019q.032-.051.06-.091l.014-.02c.587-.78 1.757-.478 2.313.477.36.618.478 1.448.33 2.455l-.01.074.029-.02c.328-.219.749-.224 1.123-.023l.045.025c.401.236.71.685.87 1.255.337 1.2.02 2.8-1.037 4.613l-.075.127L73.43 60.92a.59.59 0 0 1-.278.787l-.033.015-10.056 4.158a.603.603 0 0 1-.788-.323l-.017-.046-.443-1.299-.313-.928a335 335 0 0 1-1.674-5.111l-.177-.559-.172-.547-.205-.659c-.29-.937-.551-1.81-.782-2.609l-.206-.717c-.653-2.293-.973-3.786-.902-4.44l.004-.033c.122-.99.716-3.596 1.381-6.082l.126-.463c.786-2.889 1.407-4.698 1.873-5.11m.852.883-.022-.008c-.013-.004-.016 0-.028.01-.5.443-2.662 8.463-2.981 10.851l-.01.07c-.056.42.274 1.94.904 4.14l.164.575c.247.852.53 1.791.844 2.803l.136.439q.169.54.347 1.1a326 326 0 0 0 1.455 4.457l.425 1.264.34 1.001 8.88-3.672-6.16-12.861a.59.59 0 0 1 .013-.534l.02-.035c1.09-1.72 1.407-3.14 1.145-4.073a1.2 1.2 0 0 0-.239-.478l-.021-.022-.055.086c-.225.365-.597 1.076-1.058 2.017l-.112.23-.073.151c-.26.537-.529 1.107-.796 1.682l-.362.785-.155.338a.604.604 0 0 1-1.145-.163c-.076-.474.286-1.791 1.44-4.692.642-1.625.673-2.793.306-3.425-.1-.17-.215-.271-.312-.306l-.024-.008-.028.049c-.175.328-.56 1.292-1.048 2.625l-.129.354-.145.404-.194.544c-.163.46-.329.934-.494 1.412l-.326.95-.262.775c-.237.707-1.296.424-1.163-.288l.007-.035 1.462-6.138.006-.02c.221-.808.114-1.556-.21-2.038-.116-.174-.244-.283-.342-.316" clip-rule="evenodd"/><path fill="#fff" fill-rule="evenodd" d="M155.232 105.762s3.987-1.9 5.549-1.98c1.562-.079 8.974.416 9.675.812s.561 1.742-1.222 1.584c-1.803-.139-5.569-.574-5.569-.574" clip-rule="evenodd"/><path fill="#000091" fill-rule="evenodd" d="m160.75 103.189.124-.005c2.129-.072 9.129.47 9.879.894.622.352.868 1.119.569 1.764-.308.662-1.067 1.004-2.065.934l-.305-.025c-.492-.04-1.117-.1-1.848-.174l-.713-.075c-.48-.05-.972-.104-1.46-.158l-1.336-.15a.595.595 0 0 1-.527-.659.6.6 0 0 1 .631-.524l.882.099.971.107.485.053.945.1.823.083c.478.047.898.086 1.25.115l.232.018c.576.052.866-.075.943-.24a.184.184 0 0 0-.073-.236c-.484-.274-7.479-.811-9.292-.737l-.054.003c-.453.023-1.26.25-2.284.632a31 31 0 0 0-.803.313c-.528.213-1.061.443-1.57.672l-.256.116-.405.188a.603.603 0 0 1-.802-.277.59.59 0 0 1 .28-.793l.187-.087q.223-.104.498-.228a47 47 0 0 1 1.613-.691q.43-.173.834-.324l.217-.08c1.033-.376 1.853-.599 2.43-.628" clip-rule="evenodd"/><path fill="#fff" fill-rule="evenodd" d="M149.303 105.644s4.507-.476 8.713-1.248Z" clip-rule="evenodd"/><path fill="#000091" fill-rule="evenodd" d="M157.907 103.812a.594.594 0 1 1 .219 1.168q-.391.072-.797.143c-1.618.281-3.342.536-5.073.763l-.786.101q-.666.083-1.251.151l-.852.096a.6.6 0 0 1-.661-.527.595.595 0 0 1 .533-.654l.494-.055.512-.059q.678-.08 1.457-.179c1.848-.237 3.696-.508 5.419-.807z" clip-rule="evenodd"/><path fill="#fff" fill-rule="evenodd" d="M155.473 105.069c1.863-.336 5.969-1.306 6.45-1.188 1.582.357 8.533 2.871 9.014 3.525.481.673-.862 1.663-2.564 1.009l-4.928-1.702s5.268 2.356 5.789 2.831-.521 2.079-3.665.455c-3.145-1.603-3.506-1.504-3.506-1.504s3.706 2.118 4.327 2.692-1.202 2.039-4.427-.455l-6.31 2.356c-1.462-.06-12.298-3.485-11.617-4.455s5.388-7.504 5.388-7.504z" clip-rule="evenodd"/><path fill="#000091" fill-rule="evenodd" d="m161.864 111.403.077.056c1.418 1.009 2.73 1.406 3.774 1.238.512-.083.935-.306 1.181-.635l.028-.039a.99.99 0 0 0 .158-.808l-.004-.014.013.003c.756.164 1.407.125 1.928-.102l.046-.021c.802-.377 1.169-1.25.698-1.844l-.021-.025.027-.002c.356-.032.689-.125.98-.275.784-.401 1.163-1.193.678-1.872-.317-.431-1.726-1.075-4.034-1.958l-.336-.128c-2.003-.757-4.107-1.465-4.958-1.665l-.073-.016c-.338-.069-1.016.035-2.788.397l-3.022.628-.526.104-.089.017-5.847-3.809a.606.606 0 0 0-.798.123l-.328.454-4.656 6.479-.431.606c-.331.472-.101.9.361 1.268q.403.32 1.19.7c.914.444 2.219.962 3.747 1.499l.199.069c2.787.969 5.785 1.818 6.59 1.85a.6.6 0 0 0 .237-.037zm-12.287-9.462 5.565 3.624a.6.6 0 0 0 .439.089l.384-.072c.167-.032.35-.068.598-.119l2.706-.563c.58-.119 1.011-.203 1.394-.273l.222-.04q.396-.069.65-.099.125-.015.207-.02l.06-.003h.009l.092.023c.803.202 2.63.815 4.421 1.485l.392.147.363.14c1.674.646 3.001 1.237 3.309 1.444l.024.016-.015.018a.7.7 0 0 1-.2.143c-.379.194-.942.218-1.541.005l-.085-.031-4.928-1.703c-.712-.246-1.131.757-.478 1.086l.939.426.51.233c.424.194.843.389 1.247.578l.489.23c.59.28 1.099.528 1.508.736l.212.109.172.09q.219.117.363.2l.105.062-.01.011a.6.6 0 0 1-.168.102c-.503.221-1.396.108-2.605-.501l-.458-.232c-2.101-1.058-3.06-1.412-3.456-1.38l-.017.002c-.044.006-.044.006-.094.018a.592.592 0 0 0-.171 1.068l.08.047.636.368c.442.257.883.517 1.302.769l.404.244.319.195c.499.308.902.567 1.174.755l.125.089-.022.009a1.2 1.2 0 0 1-.228.058c-.761.123-1.882-.25-3.188-1.26l-.034-.024a.6.6 0 0 0-.549-.064l-6.183 2.309-.026-.003c-.869-.115-3.743-.942-6.3-1.84l-.285-.1c-1.317-.47-2.445-.92-3.248-1.304l-.159-.077-.152-.077a6 6 0 0 1-.636-.368l-.034-.024 1.463-2.044zM136.724 27.557s-12.079-8.77-13.581-8.276l-6.75-.594c-7.872-.693-14.823 5.049-15.544 12.83L92.096 74.48l39.901 5.227 3.645-40.39a5.6 5.6 0 0 0 .761-.415c2.885-1.92 2.905-6.692.321-11.345" clip-rule="evenodd"/><path fill="#eb762f" fill-rule="evenodd" stroke="#eb762f" stroke-linecap="round" stroke-linejoin="round" stroke-width="2.5" d="m154.131 102.06-13.501-9.385 3.946-12.83c1.543-6.592.221-14.928-6.97-17.363-3.466-1.168-4.627-1.485-5.028-1.623v0s-22.595-6.02-25.399-7.068c-1.923-.713-10.015-.396-15.944 5.187l-13.08 9.9-6.57-18.75-15.544 6.296 10.236 30.114s3.365 11.661 12.359 7.345l13.78-7.9c.1 4.534.14 10.83-2.223 17.403a88.5 88.5 0 0 0-5.248 30.134c.02 12.335.06 23.719.06 23.719l58.95.515s-9.714-44.033-9.714-47.834c-.041-.277-.041-.574-.061-.871 4.988 3.128 11.178 5.9 11.178 5.9z" clip-rule="evenodd"/><path fill="#000091" fill-rule="evenodd" d="M134.7 70.212c.316-.1.654.074.754.386l.506 1.548c.406 1.237.899 2.729 1.031 3.14l.107.33c.503 1.576.858 2.806 1.136 3.973.737 3.093.873 5.62.316 8.07-.738 3.247-2.719 6.321-6.26 9.56l-.139.126 4.162 21.114a.595.595 0 0 1-.441.689l-.034.007a.6.6 0 0 1-.697-.435l-.008-.034-4.226-21.442a.59.59 0 0 1 .187-.555c3.615-3.215 5.578-6.188 6.283-9.29.512-2.253.386-4.606-.313-7.538l-.057-.236c-.271-1.105-.62-2.294-1.108-3.815l-.304-.932c-.387-1.177-1.057-3.205-1.286-3.92a.59.59 0 0 1 .391-.746" clip-rule="evenodd"/><path fill="#fff" fill-rule="evenodd" d="m93.198 86.063 11.818-7.267Z" clip-rule="evenodd"/><path fill="#000091" fill-rule="evenodd" d="M104.698 78.292a.605.605 0 0 1 .828.19.59.59 0 0 1-.162.799l-.031.02-11.818 7.266a.605.605 0 0 1-.828-.19.59.59 0 0 1 .163-.799l.03-.02zM78.486 68.686a.606.606 0 0 1 .844.103l.097.127.047.063q.166.224.366.51c.376.545.752 1.142 1.104 1.775.698 1.26 1.213 2.502 1.465 3.681.255 1.192.232 2.278-.126 3.227a.603.603 0 0 1-.773.35.59.59 0 0 1-.353-.765c.27-.714.288-1.578.077-2.566-.225-1.05-.697-2.19-1.344-3.355a20 20 0 0 0-1.042-1.676l-.104-.149-.193-.268-.15-.198-.019-.025a.59.59 0 0 1 .104-.834" clip-rule="evenodd"/><path fill="#fff" fill-rule="evenodd" d="m127.25 50.979.12 8.712 4.627 1.366c.2.772-1.583 13.978-13.341 10.592-7.711-2.218-10.556-10.672-11.016-17.423l6.429 2.118-.42-16.333z" clip-rule="evenodd"/><path fill="#000091" fill-rule="evenodd" d="m113.049 40.026.398 15.487-5.617-1.85a.6.6 0 0 0-.79.603c.262 3.832 1.217 7.585 2.858 10.65 1.967 3.671 4.83 6.222 8.591 7.303 5.438 1.566 9.362-.105 11.831-3.991.879-1.382 1.514-2.968 1.914-4.572l.04-.161c.274-1.151.4-2.223.305-2.586l-.011-.037a.6.6 0 0 0-.399-.385l-4.204-1.24-.114-8.276a.6.6 0 0 0-.221-.452L114.029 39.55c-.398-.32-.994-.032-.98.476m1.234 1.262 12.37 9.976.116 8.435.002.036a.6.6 0 0 0 .427.525l4.2 1.24-.003.036q-.01.122-.028.265a13 13 0 0 1-.3 1.57c-.371 1.49-.96 2.96-1.764 4.225-2.195 3.453-5.578 4.894-10.478 3.483-3.426-.985-6.041-3.315-7.865-6.72l-.084-.158c-1.365-2.61-2.221-5.758-2.552-9.015l-.011-.112 5.567 1.834a.6.6 0 0 0 .791-.579z" clip-rule="evenodd"/><path fill="#e0840b" fill-rule="evenodd" d="M108.426 43.266a.604.604 0 0 1 .808-.26.59.59 0 0 1 .263.798c-.557 1.083-.759 2.594-.522 4.177.44 2.92 2.2 5.014 3.822 4.824a.6.6 0 0 1 .667.52.595.595 0 0 1-.525.66c-2.413.283-4.629-2.354-5.153-5.83-.271-1.816-.037-3.574.64-4.89M135.688 42.513a.604.604 0 0 1 .808-.26.59.59 0 0 1 .263.798c-.557 1.084-.759 2.594-.522 4.178.44 2.919 2.2 5.014 3.821 4.823a.6.6 0 0 1 .668.52.595.595 0 0 1-.526.66c-2.413.283-4.628-2.353-5.152-5.829-.271-1.816-.037-3.575.64-4.89" clip-rule="evenodd"/><path fill="#fff" fill-rule="evenodd" d="M114.617 41.942c1.031-2.094.06-4.66-2.169-5.732-2.228-1.071-4.87-.242-5.901 1.853s-.06 4.66 2.169 5.732c2.228 1.071 4.87.242 5.901-1.853" clip-rule="evenodd"/><path fill="#000091" fill-rule="evenodd" d="M106.017 37.813c-1.185 2.402-.09 5.32 2.425 6.527 2.516 1.206 5.52.253 6.705-2.148 1.184-2.402.09-5.32-2.426-6.526-2.515-1.207-5.52-.254-6.704 2.147m1.078.517c.887-1.797 3.166-2.52 5.098-1.594 1.932.927 2.762 3.141 1.876 4.939-.887 1.797-3.167 2.52-5.098 1.594s-2.763-3.14-1.876-4.938" clip-rule="evenodd"/><path fill="#fff" fill-rule="evenodd" d="M141.47 40.451c.91-1.848.05-4.115-1.92-5.062s-4.304-.216-5.213 1.633c-.91 1.849-.051 4.115 1.919 5.062s4.304.216 5.214-1.633" clip-rule="evenodd"/><path fill="#000091" fill-rule="evenodd" d="M133.805 36.772c-1.063 2.155-.079 4.773 2.179 5.856 2.257 1.082 4.953.23 6.017-1.926 1.063-2.155.078-4.774-2.179-5.856s-4.954-.23-6.017 1.926m1.079.517c.765-1.551 2.737-2.175 4.41-1.372s2.394 2.717 1.629 4.268-2.737 2.174-4.411 1.372c-1.674-.803-2.393-2.717-1.628-4.268" clip-rule="evenodd"/><path fill="#fff" fill-rule="evenodd" d="M127.4 53.64c6.625-1.15 10.771-8.971 9.261-17.468s-8.104-14.453-14.729-13.303c-6.624 1.15-10.77 8.97-9.26 17.468s8.104 14.452 14.728 13.302" clip-rule="evenodd"/><path fill="#000091" fill-rule="evenodd" d="M121.803 22.263c-6.976 1.202-11.274 9.352-9.698 18.155 1.577 8.804 8.449 15.03 15.425 13.827s11.274-9.352 9.698-18.155c-1.577-8.804-8.449-15.03-15.425-13.827m.21 1.172c6.246-1.077 12.562 4.645 14.033 12.858 1.47 8.213-2.48 15.704-8.726 16.78s-12.562-4.645-14.033-12.858 2.48-15.704 8.726-16.78" clip-rule="evenodd"/><path fill="#000091" fill-rule="evenodd" d="M127.061 34.703a.6.6 0 0 1 .721.395l.01.034 1.663 6.437c.151.594-.286 1.187-.888 1.212l-2.424.06a.597.597 0 0 1-.615-.578.596.596 0 0 1 .55-.607l.035-.002 2.11-.053-1.595-6.176a.593.593 0 0 1 .399-.712zM119.982 31.114c.952-.525 1.959-.717 2.936-.342q.518.198.97.602a.59.59 0 0 1 .041.84.606.606 0 0 1-.849.04 1.9 1.9 0 0 0-.596-.375c-.583-.223-1.247-.097-1.917.273q-.238.132-.429.273l-.071.054-.036.028-.034.028a.607.607 0 0 1-.849-.05.59.59 0 0 1 .051-.838c.161-.141.429-.338.783-.533M129.52 30.881c.639-.142 1.304-.182 1.946-.052.898.181 1.629.681 2.085 1.54a.59.59 0 0 1-.253.802.606.606 0 0 1-.794-.218l-.018-.032c-.279-.527-.701-.815-1.261-.928-.45-.091-.954-.061-1.44.047q-.12.027-.218.055l-.113.034-.016.006a.603.603 0 0 1-.77-.356.59.59 0 0 1 .36-.761c.103-.037.272-.087.492-.137M124.674 38.062c.032-.775-.373-1.421-.903-1.442-.531-.022-.987.59-1.018 1.366s.372 1.422.903 1.443c.531.02.986-.59 1.018-1.367M131.824 39.614c.519-.033.898-.688.848-1.462-.051-.775-.513-1.376-1.031-1.343-.519.033-.899.688-.848 1.463.051.774.512 1.376 1.031 1.342M120.28 42.958c.103 3.389 1.353 5.087 3.388 5.265.766.067 1.56-.094 2.339-.399.39-.153.693-.307.874-.416a.59.59 0 0 0 .034-.993l-5.689-3.96c-.405-.282-.961.014-.946.503m1.299 1.195 3.791 2.639c-.555.195-1.103.291-1.596.248-1.105-.097-1.877-.887-2.17-2.72z" clip-rule="evenodd"/><path fill="#e0840b" fill-rule="evenodd" d="M138.739 40.037c2.381-.346 4.336 2.413 4.889 6.124.523 3.514-.888 6.714-3.332 7.069l-.043.005-.044.001h-.08a.597.597 0 0 1-.601-.594c0-.316.25-.575.565-.593h.036l.032-.001.009-.001c1.595-.278 2.681-2.745 2.281-5.625l-.012-.088c-.469-3.145-2.023-5.34-3.525-5.122a.6.6 0 0 1-.682-.501.596.596 0 0 1 .507-.674M111.117 41.106c2.448-.356 4.727 2.3 5.249 5.827.523 3.514-.888 6.714-3.331 7.069l-.044.005-.044.001h-.08a.597.597 0 0 1-.601-.594c0-.316.25-.575.566-.593h.068l.009-.002c1.595-.278 2.681-2.745 2.281-5.626l-.013-.088c-.438-2.96-2.243-5.063-3.885-4.824a.6.6 0 0 1-.682-.501.595.595 0 0 1 .507-.674" clip-rule="evenodd"/><path fill="#000091" fill-rule="evenodd" d="m120.659 19.103-.02.04c-4.066.554-8.633 2.375-11.197 5.028-3.005 3.148-3.145 8.732-1.542 12.335 1.262-.871 3.004-1.03 4.547-.297.08.04.16.08.22.119 5.969-2.396 6.049-11.365 6.049-12.157 1.322 1.05 3.025 2.851 2.564 4.792l21.273 1.485c0 .02 4.366-15.503-21.894-11.345m-2.924 5.563c.28-.217.561-.396.861-.574.02.02.04.04.06.04z" clip-rule="evenodd"/><path fill="#6a6af4" fill-rule="evenodd" d="M181.994 152.092h-25.78l-7.411-32.114a1.51 1.51 0 0 0-1.462-1.188H92.076c-.981 0-1.682.931-1.462 1.901l8.273 35.875a1.51 1.51 0 0 0 1.462 1.188h76.477c6.249 0 5.168-5.662 5.168-5.662" clip-rule="evenodd"/><path fill="#fff" fill-rule="evenodd" d="m200.723 128.274 1.462 12.809s-21.613 2.832-31.228 3.663c-.44.04-8.553 5.108-7.671 5.524 5.228 2.455-.661 4.732 6.229 3.821 0 0 22.274 2.435 42.946-1.307 2.484-.455 5.148-2.554 5.869-4.949 1.202-3.96 1.482-14.948.1-24.808.04-.04-17.707 5.247-17.707 5.247" clip-rule="evenodd"/><path fill="#000091" fill-rule="evenodd" d="m218.417 122.433-.065.005-.027.003-.051.011-.074.02-.392.112-2.64.778-5.799 1.719-8.819 2.624-.035.011a.594.594 0 0 0-.389.624l1.396 12.231-3.441.443-.694.088c-3.582.456-7.245.911-10.779 1.337l-1.431.171-1.83.217c-5.234.614-9.49 1.072-12.442 1.328-.396.035-2.538 1.326-4.617 2.721l-.344.233c-.939.639-1.727 1.214-2.28 1.673-.365.303-.63.557-.797.772a1.1 1.1 0 0 0-.236.479.7.7 0 0 0 .396.773c1.013.476 1.601.946 1.889 1.417.182.299.231.525.251 1.007l.003.068c.028.819.198 1.227.913 1.461l.035.011c.587.18 1.551.156 3.265-.063l.14-.018.445.045q.242.024.527.049l.764.067c.844.072 1.78.142 2.8.209l.22.014c10.98.708 22.888.563 34.091-1.028q2.142-.304 4.199-.676c2.779-.51 5.569-2.815 6.337-5.365l.039-.132c1.279-4.43 1.384-15.626.08-24.927l-.018.003v-.004c-.022-.214-.059-.247-.253-.418l-.194-.072c-.086-.029-.1-.027-.143-.021m-.49 1.355.021.157c1.174 9.068 1.026 19.702-.194 23.719-.634 2.107-3.054 4.106-5.403 4.537q-2.033.368-4.152.668c-11.108 1.578-22.938 1.722-33.842 1.019l-.434-.029a146 146 0 0 1-2.914-.222l-.622-.057-.486-.046-.32-.033a.6.6 0 0 0-.145.002l-.286.036c-1.482.186-2.307.206-2.667.1l-.055-.018c-.037-.013-.045-.03-.05-.146l-.007-.217c-.025-.717-.102-1.118-.426-1.648l-.038-.061c-.353-.547-.925-1.045-1.764-1.51l-.063-.035.014-.012a9 9 0 0 1 .343-.3l.13-.106c.579-.469 1.412-1.067 2.397-1.727a70 70 0 0 1 2.636-1.686l.162-.098c.369-.223.691-.41.938-.547l.056-.03q.162-.089.264-.139l.059-.027.446-.04c3.111-.279 7.505-.758 12.858-1.391l1.411-.168.959-.115c3.216-.387 6.538-.799 9.808-1.213l2.996-.382 2.707-.351.035-.005a.594.594 0 0 0 .483-.65l-1.406-12.318 15.083-4.479z" clip-rule="evenodd"/><path fill="#fff" fill-rule="evenodd" d="M161.863 152.23c-2.404 2.732-5.248 3.524-4.847 1.762.14-.653 5.848-6.395 7.932-7.404 1.602-.773 4.006-1.604 7.311-1.98" clip-rule="evenodd"/><path fill="#000091" fill-rule="evenodd" d="M157.594 154.162a1 1 0 0 0-.016.148l.002.021.012.003c.095.017.289-.001.554-.084l.051-.016c.933-.31 2.153-1.189 3.213-2.394a.607.607 0 0 1 .848-.058.59.59 0 0 1 .059.838c-1.191 1.354-2.584 2.357-3.738 2.74-1.39.461-2.466-.106-2.151-1.491.219-1.019 6.274-6.854 8.257-7.815 2.016-.972 4.52-1.697 7.506-2.036a.6.6 0 0 1 .665.522.595.595 0 0 1-.528.658c-2.85.324-5.222 1.011-7.115 1.923-.866.419-2.625 1.882-4.54 3.728l-.236.228a50 50 0 0 0-1.883 1.928l-.205.227c-.214.238-.392.446-.527.615l-.035.045a3 3 0 0 0-.156.211l-.029.044q-.006.01-.002-.013z" clip-rule="evenodd"/><path fill="#fff" fill-rule="evenodd" d="M165.909 149.934s-2.383.554-3.846 2.118c-1.462 1.584-2.584 2.574-2.323 2.91.24.337 1.803.693 2.804-.217 1.282-1.644 4.928-2.733 4.928-2.733-.401.04-2.925.872-4.147 1.901-1.201 1.01-1.842 2.99 1.443 1.525 0 0 3.365-.99 4.667-1.406" clip-rule="evenodd"/><path fill="#000091" fill-rule="evenodd" d="M165.772 149.355a.6.6 0 0 1 .723.442.594.594 0 0 1-.448.715l-.028.007-.156.042a9 9 0 0 0-.524.169 9 9 0 0 0-1.596.746c-.481.29-.899.617-1.235.976l-.551.585c-.481.508-1.092 1.151-1.248 1.329l-.09.103-.115.138-.05.064.043.01q.145.034.313.043l.066.004c.463.014.894-.111 1.216-.381l.015-.013.017-.021q.084-.102.178-.203l.055-.058.006-.006c.153-.191.329-.374.52-.54l.053-.045c1.083-.913 3.631-1.956 4.476-2.04.711-.07.923.917.269 1.148l-.25.08-.183.062q-.19.065-.404.144c-.609.224-1.217.482-1.78.768-.745.379-1.349.776-1.761 1.174l-.021.02-.026.034a2 2 0 0 0-.288.497l-.005.017h.017c.287-.003.754-.131 1.386-.401l.155-.068.037-.015.057-.018.789-.233 1.283-.382 1.237-.372c.561-.17 1.012-.309 1.326-.409a.6.6 0 0 1 .757.382.593.593 0 0 1-.387.748l-.496.156-.82.251-.775.233-1.003.3-1.549.459-.055.024c-.773.337-1.39.514-1.87.532l-.057.001c-.585.007-1.036-.246-1.191-.724l-.01-.035-.008.002c-.99.268-2.086.081-2.51-.456l-.013-.017c-.237-.306-.201-.64-.024-.979l.022-.041c.104-.188.261-.396.489-.657l.054-.062c.253-.286 1.524-1.616 1.819-1.935a7 7 0 0 1 1.494-1.187 10 10 0 0 1 1.814-.85l.136-.047c.308-.105.551-.174.705-.21" clip-rule="evenodd"/><path fill="#fff" fill-rule="evenodd" d="M248.195 62.324c7.555 0 13.68-6.054 13.68-13.523s-6.125-13.522-13.68-13.522c-7.556 0-13.681 6.054-13.681 13.522s6.125 13.523 13.681 13.523" clip-rule="evenodd"/><path fill="#6a6af4" fill-rule="evenodd" d="M248.195 34.685c-7.888 0-14.282 6.32-14.282 14.116s6.394 14.117 14.282 14.117 14.282-6.32 14.282-14.117c0-7.796-6.394-14.116-14.282-14.116m0 1.188c7.224 0 13.08 5.788 13.08 12.928s-5.856 12.929-13.08 12.929-13.08-5.789-13.08-12.929 5.856-12.928 13.08-12.928" clip-rule="evenodd"/><path fill="#6a6af4" fill-rule="evenodd" d="M253.926 40.135a.605.605 0 0 1 .834-.162.59.59 0 0 1 .183.794l-.02.03-5.668 8.336c-.17.25-.5.332-.769.199l-.033-.018-6.65-3.841a.59.59 0 0 1-.216-.812.605.605 0 0 1 .79-.231l.032.017 6.163 3.56z" clip-rule="evenodd"/><path fill="#000091" fill-rule="evenodd" d="M106.379 157.754H63.553a.956.956 0 0 1-.961-.95v-8.593c0-.515.42-.95.961-.95h42.826c.521 0 .961.416.961.95v8.593c0 .534-.44.95-.961.95" clip-rule="evenodd"/><path fill="#fff" fill-rule="evenodd" d="M101.41 155.358c1.217 0 2.204-1.01 2.204-2.257 0-1.246-.987-2.257-2.204-2.257-1.216 0-2.203 1.011-2.203 2.257s.987 2.257 2.203 2.257M89.272 155.358H66.717a.84.84 0 0 1-.841-.831v-2.871c0-.455.38-.832.841-.832h22.555c.46 0 .841.377.841.832v2.871c0 .475-.38.831-.841.831" clip-rule="evenodd"/><path fill="#ff8d7e" fill-rule="evenodd" d="M113.43 147.221H70.604a.956.956 0 0 1-.961-.95v-8.593c0-.515.42-.95.961-.95h42.826c.52 0 .961.416.961.95v8.593c0 .515-.421.95-.961.95" clip-rule="evenodd"/><path fill="#fff" fill-rule="evenodd" d="M108.482 144.825c1.217 0 2.203-1.01 2.203-2.257 0-1.246-.986-2.257-2.203-2.257s-2.204 1.011-2.204 2.257.987 2.257 2.204 2.257M96.343 144.825H73.768a.84.84 0 0 1-.841-.831v-2.871c0-.455.38-.831.841-.831h22.555c.46 0 .84.376.84.831v2.871c0 .475-.36.831-.82.831" clip-rule="evenodd"/></g><defs><clipPath id="a"><path fill="#fff" d="M0 0h285v158.625H0z"/></clipPath></defs></svg>