<svg width="285" height="159" viewBox="0 0 285 159" fill="none" xmlns="http://www.w3.org/2000/svg">
<g clip-path="url(#clip0_541_7488)">
<rect x="2" width="282" height="158.625" fill="#E8EDFF"/>
<path fill-rule="evenodd" clip-rule="evenodd" d="M207.554 77.3115C237.219 75.6286 241.466 93.2496 240.344 106.653C239.202 120.374 236.198 157.853 236.198 157.853C236.378 158.051 165.73 158.051 165.93 157.853C165.93 157.853 168.754 120.374 169.896 106.653C171.018 93.2496 178.149 75.6088 207.554 77.3115Z" fill="#FF8D7E"/>
<path fill-rule="evenodd" clip-rule="evenodd" d="M230.025 113.166L227.424 146.282C227.037 151.169 226.735 154.923 226.481 158C226.454 158.327 226.164 158.571 225.833 158.544C225.502 158.517 225.256 158.23 225.283 157.904L225.8 151.537C226.022 148.768 226.277 145.555 226.577 141.753L229.016 110.7L229.349 106.585C229.905 99.928 229.003 93.9369 226.282 89.1578C222.945 83.2976 217.008 79.5037 208.03 78.236C207.701 78.1896 207.473 77.8887 207.52 77.564C207.567 77.2393 207.871 77.0136 208.2 77.06C217.537 78.3784 223.803 82.3826 227.329 88.5752C230.156 93.5397 231.102 99.6848 230.564 106.476L230.117 112.006C230.087 112.38 230.056 112.766 230.025 113.166Z" fill="#000091"/>
<path fill-rule="evenodd" clip-rule="evenodd" d="M169.895 124.195C169.895 124.175 153.911 126.67 153.911 126.67L152.208 142.449L152.809 154.843C156.254 154.923 159.98 154.685 163.926 153.972C166.41 153.517 169.074 151.418 169.795 149.023C170.977 145.043 171.257 134.075 169.895 124.195Z" fill="white"/>
<path fill-rule="evenodd" clip-rule="evenodd" d="M169.99 123.608L169.919 123.601L169.87 123.601C169.858 123.602 169.855 123.602 169.845 123.603L169.791 123.609L169.628 123.632L166.721 124.077L159.286 125.231L153.817 126.083C153.549 126.125 153.342 126.34 153.313 126.607L151.611 142.386C151.608 142.417 151.607 142.447 151.608 142.478L152.209 154.872C152.224 155.183 152.48 155.43 152.795 155.437C156.489 155.522 160.24 155.242 164.034 154.557C166.813 154.047 169.604 151.742 170.371 149.192L170.41 149.059C171.669 144.603 171.774 133.424 170.491 124.115L170.482 124.116L170.477 124.09C170.456 123.977 170.446 123.959 170.4 123.872L170.279 123.749C170.231 123.701 170.221 123.695 170.193 123.679L170.08 123.633C170.036 123.615 170.024 123.614 169.99 123.608ZM169.38 124.87L169.411 125.113C170.567 134.191 170.42 144.811 169.219 148.855C168.585 150.959 166.166 152.958 163.817 153.388L163.479 153.448C160.108 154.036 156.772 154.297 153.481 154.261L153.383 154.259L152.811 142.467L154.46 127.185L166.658 125.289L169.38 124.87Z" fill="#000091"/>
<path fill-rule="evenodd" clip-rule="evenodd" d="M158.958 158.447L162.163 139.975C162.163 139.975 159.159 136.272 159.399 131.045C159.419 130.709 159.439 130.352 159.479 129.996C159.459 129.917 153.15 127.897 152.789 127.145C153.029 122.888 156.535 111.583 162.704 108.97C164.687 108.059 169.475 106.713 170.456 106.376C175.023 104.852 184.618 102.357 192.95 104C192.95 104 205.69 106.059 208.534 107.722C210.077 108.633 217.788 113.563 219.251 127.204C219.271 127.422 205.93 132.035 205.93 132.035L204.608 158.427" fill="#6A6AF4"/>
<path fill-rule="evenodd" clip-rule="evenodd" d="M178.448 97.7439L178.328 105.01L175.724 105.505C175.283 106.139 170.356 113.583 181.493 114.533C188.764 115.167 196.776 110.95 201.083 105.941L193.952 104.02L191.808 90.5371L178.448 97.7439Z" fill="white"/>
<path fill-rule="evenodd" clip-rule="evenodd" d="M178.161 97.2225L178.126 97.2428C177.956 97.3494 177.851 97.5337 177.848 97.7341L177.735 104.518L175.611 104.922C175.456 104.951 175.319 105.04 175.229 105.168C174.944 105.579 174.615 106.143 174.322 106.814C173.864 107.863 173.615 108.916 173.667 109.93C173.813 112.8 176.269 114.684 181.441 115.125C188.465 115.737 196.758 111.889 201.541 106.325L201.564 106.297C201.817 105.966 201.654 105.479 201.241 105.367L194.485 103.548L192.403 90.4449C192.338 90.039 191.886 89.8189 191.521 90.0157L178.161 97.2225ZM191.348 91.4625L193.359 104.112L193.366 104.15C193.414 104.364 193.579 104.535 193.794 104.593L199.989 106.261L199.919 106.336C195.293 111.198 187.828 114.489 181.546 113.942C176.913 113.546 174.979 112.064 174.867 109.87C174.826 109.062 175.035 108.18 175.425 107.285C175.572 106.948 175.737 106.629 175.909 106.332L175.948 106.266C175.987 106.201 176.024 106.141 176.059 106.085L176.087 106.041L178.442 105.593L178.478 105.585C178.738 105.519 178.925 105.289 178.929 105.02L179.043 98.0994L191.348 91.4625Z" fill="#000091"/>
<rect width="3.32944" height="5.84842" transform="matrix(0.775133 0.631798 -0.640615 0.767862 204.939 60.2742)" fill="#E0840B"/>
<path fill-rule="evenodd" clip-rule="evenodd" d="M209.756 62.9376C213.009 62.9376 215.645 60.3315 215.645 57.1167C215.645 53.902 213.009 51.2959 209.756 51.2959C206.504 51.2959 203.867 53.902 203.867 57.1167C203.867 60.3315 206.504 62.9376 209.756 62.9376Z" fill="#000091"/>
<path fill-rule="evenodd" clip-rule="evenodd" d="M203.186 62.5416C198.8 59.6113 193.752 57.3939 188.364 57.8493C171.758 60.0073 167.732 70.3621 171.879 76.7769V76.7769C174.483 69.3722 176.686 66.9171 179.951 65.9866C181.113 71.1936 189.385 79.0736 197.798 81.5682V81.5682C197.818 81.5484 195.555 89.0324 194.834 88.775C194.573 89.171 191.889 92.7545 191.889 92.7545L193.592 101.11L212.521 103.386C213.662 103.683 214.864 102.832 214.904 101.684C215.125 94.576 217.168 72.2034 203.186 62.5416Z" fill="#000091"/>
<path fill-rule="evenodd" clip-rule="evenodd" d="M192.47 90.5172L193.511 91.0518C193.511 91.0518 199.821 93.6652 201.684 87.7256C203.106 83.2114 198.499 82.2017 196.175 81.9641" fill="white"/>
<path fill-rule="evenodd" clip-rule="evenodd" d="M195.578 81.903C195.612 81.5767 195.908 81.3396 196.238 81.3733C197.954 81.5488 199.502 81.9663 200.672 82.7494C202.346 83.8702 202.981 85.6064 202.258 87.9015C201.503 90.3103 199.99 91.655 197.979 92.0767C196.765 92.3313 195.489 92.231 194.259 91.9127L194.106 91.8721C193.737 91.7708 193.454 91.6717 193.28 91.5996L193.257 91.5897L193.235 91.5789L192.193 91.0444C191.899 90.8932 191.784 90.5346 191.937 90.2435C192.084 89.9632 192.426 89.8476 192.714 89.9744L192.747 89.9901L193.765 90.5123L193.821 90.5337C193.847 90.5434 193.878 90.5547 193.914 90.5674L193.952 90.5805C194.132 90.6425 194.337 90.705 194.563 90.7635C195.627 91.0389 196.725 91.1252 197.729 90.9147C199.318 90.5815 200.485 89.5443 201.111 87.549C201.675 85.758 201.238 84.5628 199.998 83.7329C199.028 83.0835 197.65 82.712 196.114 82.5549C195.784 82.5212 195.544 82.2293 195.578 81.903Z" fill="#000091"/>
<path fill-rule="evenodd" clip-rule="evenodd" d="M171.878 76.7966V76.7966C174.482 69.3919 176.565 67.214 179.83 66.2834C180.972 71.4113 188.183 78.8755 197.577 81.5483C197.477 82.6373 197.598 81.6671 197.317 82.8352C196.937 84.0034 196.516 85.3299 196.095 86.4386C194.232 90.537 191.889 92.794 191.889 92.794V92.794C188.464 96.3776 183.816 98.5555 178.609 97.7041C169.535 96.2192 170.396 83.251 170.917 80.4594C171.157 79.0537 171.858 76.7966 171.878 76.7966C171.858 76.7966 171.858 76.7966 171.878 76.7966Z" fill="white"/>
<path fill-rule="evenodd" clip-rule="evenodd" d="M179.553 65.7452C175.897 66.8284 173.803 69.5161 171.311 76.6018L171.313 76.6023L171.283 76.6842C171.054 77.318 170.542 79.1885 170.348 80.232L170.325 80.3606C169.887 82.7043 169.859 86.5177 170.579 89.7015C171.649 94.4363 174.194 97.5839 178.511 98.2903L178.664 98.3145C183.671 99.0796 188.45 97.1939 192.211 93.3213L192.319 93.2096L192.378 93.1511C192.471 93.0576 192.599 92.9227 192.757 92.7467C193.08 92.3863 193.432 91.9625 193.8 91.4769C194.84 90.1038 195.817 88.5016 196.644 86.6822L196.658 86.6473C196.845 86.1553 197.037 85.6092 197.261 84.9406L197.459 84.3402L197.89 83.0175L197.896 82.9951L197.952 82.77C197.983 82.6508 198.007 82.5624 198.027 82.5004L198.049 82.4366L198.062 82.41L198.066 82.4003C198.102 82.3192 198.115 82.2673 198.125 82.1749L198.176 81.6023C198.203 81.3186 198.021 81.0565 197.744 80.9777C193.404 79.7429 189.297 77.387 186.017 74.3999C183.017 71.6677 180.966 68.6171 180.418 66.1559C180.343 65.821 179.998 65.6179 179.664 65.7129L179.553 65.7452ZM179.33 67.0723L179.41 67.0431L179.412 67.05C180.194 69.6387 182.28 72.6118 185.203 75.2735L185.354 75.4102C188.59 78.3177 192.578 80.6349 196.814 81.9421L196.937 81.9795L196.936 81.9872L196.918 82.0333C196.909 82.057 196.9 82.0826 196.891 82.1109L196.881 82.1411C196.849 82.2443 196.81 82.3841 196.764 82.572L196.739 82.6742L196.247 84.183L196.08 84.6869C195.891 85.2476 195.726 85.7175 195.567 86.1403L195.54 86.2109L195.548 86.1954C194.759 87.9312 193.827 89.4589 192.838 90.7649C192.49 91.2234 192.16 91.6216 191.858 91.9579L191.756 92.0706C191.723 92.1064 191.691 92.1404 191.661 92.1726L191.553 92.285L191.453 92.3863C187.895 96.1079 183.4 97.8854 178.707 97.1183C174.951 96.5036 172.726 93.7517 171.752 89.4424C171.07 86.4261 171.097 82.7714 171.508 80.5673C171.611 79.9696 171.806 79.1641 172.051 78.2904L172.113 78.0713C172.165 77.8909 172.216 77.7168 172.264 77.5576L172.361 77.241L172.427 77.0393L172.431 77.0303C172.437 77.0177 172.442 77.0048 172.446 76.9918L172.58 76.6153C174.752 70.5405 176.518 68.1196 179.33 67.0723Z" fill="#000091"/>
<path fill-rule="evenodd" clip-rule="evenodd" d="M178.883 75.1251C179.021 74.8265 179.377 74.6947 179.679 74.8306C179.971 74.9617 180.105 75.2939 179.991 75.5852L179.977 75.6173L175.885 84.5006L177.762 84.9935C178.071 85.0747 178.26 85.3801 178.196 85.6861L178.188 85.7201C178.106 86.0258 177.797 86.2122 177.488 86.1496L177.453 86.1416L174.889 85.4685C174.541 85.3772 174.355 85.0078 174.483 84.6809L174.497 84.6483L178.883 75.1251Z" fill="#000091"/>
<path fill-rule="evenodd" clip-rule="evenodd" d="M182.922 75.1454C184.188 74.7202 185.268 75.1774 186.093 76.1441C186.295 76.3806 186.467 76.6315 186.611 76.8826C186.699 77.0356 186.759 77.1583 186.793 77.2365C186.924 77.5381 186.782 77.8871 186.477 78.0161C186.182 78.1404 185.844 78.0146 185.703 77.735L185.663 77.6496C185.641 77.6048 185.608 77.5428 185.565 77.468C185.456 77.2773 185.325 77.0863 185.175 76.9104C184.637 76.2809 184.036 76.0261 183.309 76.2702C182.995 76.3757 182.654 76.2095 182.547 75.8989C182.44 75.5883 182.608 75.251 182.922 75.1454Z" fill="#000091"/>
<path fill-rule="evenodd" clip-rule="evenodd" d="M179.86 88.8171C180.091 88.5815 180.471 88.5756 180.71 88.8039C180.948 89.0322 180.954 89.4083 180.723 89.6438C180.264 90.1121 179.677 90.3846 179.007 90.4918C178.369 90.5937 177.707 90.5423 177.066 90.3969L176.948 90.3691C176.761 90.3229 176.615 90.2779 176.52 90.2437C176.208 90.1312 176.048 89.7902 176.162 89.482C176.271 89.1849 176.596 89.0269 176.899 89.1169L176.984 89.1452C176.997 89.1492 177.012 89.1539 177.029 89.159C177.119 89.186 177.222 89.2134 177.335 89.2391C177.837 89.3531 178.352 89.3931 178.815 89.3191C179.219 89.2545 179.553 89.1066 179.812 88.8637L179.86 88.8171Z" fill="#000091"/>
<path fill-rule="evenodd" clip-rule="evenodd" d="M173.145 73.0751C174.123 72.6485 175.129 72.8755 176.07 73.4795C176.417 73.7027 176.68 73.9265 176.837 74.0867C177.068 74.3222 177.062 74.6983 176.823 74.9266C176.595 75.1457 176.235 75.149 176.002 74.9405L175.939 74.8804C175.914 74.8568 175.879 74.8248 175.834 74.7865C175.71 74.6807 175.569 74.5743 175.415 74.4756C174.78 74.0677 174.165 73.9288 173.63 74.162C173.518 74.2106 173.408 74.2757 173.298 74.3591L173.244 74.4024C172.989 74.6121 172.61 74.5776 172.398 74.3254C172.185 74.0731 172.22 73.6986 172.476 73.4889C172.688 73.3147 172.911 73.1768 173.145 73.0751Z" fill="#000091"/>
<path fill-rule="evenodd" clip-rule="evenodd" d="M182.657 79.5919C182.821 78.8662 182.569 78.1928 182.094 78.0878C181.619 77.9828 181.101 78.4859 180.937 79.2115C180.773 79.9372 181.025 80.6105 181.5 80.7156C181.975 80.8206 182.493 80.3175 182.657 79.5919Z" fill="#000091"/>
<path fill-rule="evenodd" clip-rule="evenodd" d="M174.444 78.0482C174.609 77.3225 174.357 76.6491 173.882 76.5441C173.407 76.4391 172.888 76.9422 172.724 77.6678C172.56 78.3934 172.812 79.0668 173.287 79.1719C173.762 79.2769 174.28 78.7738 174.444 78.0482Z" fill="#000091"/>
<path fill-rule="evenodd" clip-rule="evenodd" d="M179.365 78.4191C178.388 82.6287 180.229 86.6871 183.584 87.4383C186.939 88.1895 190.389 85.3158 191.367 81.1062C192.344 76.8966 190.503 72.8382 187.148 72.087C183.793 71.3358 180.342 74.2095 179.365 78.4191ZM180.534 78.6809C181.377 75.0531 184.251 72.6592 186.878 73.2475C189.506 73.8357 191.039 77.2166 190.197 80.8444C189.355 84.4721 186.48 86.8661 183.853 86.2778C181.226 85.6895 179.692 82.3087 180.534 78.6809Z" fill="#E0840B"/>
<path fill-rule="evenodd" clip-rule="evenodd" d="M164.829 75.6701C163.851 79.8797 165.692 83.9381 169.047 84.6893C172.403 85.4405 175.853 82.5668 176.83 78.3572C177.808 74.1476 175.967 70.0891 172.612 69.3379C169.257 68.5868 165.806 71.4605 164.829 75.6701ZM165.998 75.9319C166.841 72.3041 169.715 69.9102 172.342 70.4984C174.97 71.0867 176.503 74.4676 175.661 78.0954C174.819 81.7231 171.944 84.117 169.317 83.5288C166.69 82.9405 165.156 79.5596 165.998 75.9319Z" fill="#E0840B"/>
<path fill-rule="evenodd" clip-rule="evenodd" d="M176.105 77.0992C176.188 76.7936 176.497 76.6073 176.806 76.6701L176.841 76.6781L180.226 77.569C180.547 77.6535 180.737 77.9789 180.652 78.2958C180.57 78.6015 180.26 78.7878 179.951 78.725L179.917 78.717L176.531 77.826C176.211 77.7416 176.02 77.4162 176.105 77.0992Z" fill="#E0840B"/>
<path fill-rule="evenodd" clip-rule="evenodd" d="M190.486 79.5373C190.599 79.2413 190.925 79.0865 191.227 79.1795L191.26 79.1909L198.331 81.8241C198.642 81.9398 198.798 82.2824 198.681 82.5894C198.569 82.8854 198.242 83.0402 197.941 82.9471L197.907 82.9358L190.836 80.3025C190.526 80.1869 190.369 79.8443 190.486 79.5373Z" fill="#E0840B"/>
<path fill-rule="evenodd" clip-rule="evenodd" d="M57.8439 49.7712C57.8439 49.3752 54.659 44.7621 53.6775 43.2177C52.696 41.6734 55.0596 40.2875 56.642 42.604C58.2044 44.9204 59.266 46.9795 59.266 46.9795" fill="white"/>
<path fill-rule="evenodd" clip-rule="evenodd" d="M53.9847 40.9079C55.0359 40.5134 56.2784 41.0109 57.1417 42.2746C57.834 43.301 58.4799 44.3507 59.0625 45.3679L59.1952 45.601C59.303 45.7914 59.4037 45.9724 59.497 46.1427L59.6377 46.4016L59.7863 46.6815C59.7925 46.6933 59.7975 46.7029 59.8011 46.7099C59.9518 47.0022 59.8343 47.3599 59.5386 47.5088C59.2538 47.6523 58.9077 47.5498 58.7479 47.2811L58.7249 47.2388L58.6338 47.0661C58.6069 47.0156 58.5774 46.9607 58.5455 46.9017L58.4401 46.7081C58.313 46.4762 58.1715 46.2235 58.0167 45.9532C57.4476 44.9596 56.8165 43.9341 56.1437 42.9365C55.5753 42.1044 54.9014 41.8345 54.4113 42.0185C54.0458 42.1556 53.9275 42.4952 54.186 42.9019L54.3139 43.1013C54.426 43.2747 54.5627 43.4833 54.7321 43.7397L56.19 45.9324C57.9421 48.5739 58.4445 49.3774 58.4445 49.7713C58.4445 50.0993 58.1754 50.3652 57.8436 50.3652C57.5591 50.3652 57.3208 50.1698 57.2585 49.9074L57.2516 49.875L57.2459 49.8619C57.2295 49.8252 57.2053 49.7766 57.1738 49.7173L57.1324 49.6412C57.0337 49.4625 56.8906 49.2228 56.7061 48.9262L56.4617 48.538C56.2061 48.1363 55.8975 47.6623 55.518 47.0871L53.6413 44.2611C53.4403 43.9561 53.2882 43.7224 53.1683 43.5338C52.5037 42.4881 52.9142 41.3097 53.9847 40.9079Z" fill="#000091"/>
<path fill-rule="evenodd" clip-rule="evenodd" d="M60.9685 56.483C60.9685 56.483 58.1642 51.9095 57.9038 50.0286C57.6435 48.1477 57.343 39.2383 57.7436 38.3473C58.1442 37.4564 59.8068 37.4564 59.8468 39.6145C59.8869 41.7725 59.8468 46.3856 59.8468 46.3856" fill="white"/>
<path fill-rule="evenodd" clip-rule="evenodd" d="M57.1947 38.1062C57.5217 37.3789 58.3602 37.0182 59.1243 37.2753C59.9337 37.5476 60.4254 38.3964 60.4478 39.6036L60.4556 40.1282C60.4618 40.6654 60.465 41.3188 60.4656 42.0677L60.4651 43.0274C60.4646 43.317 60.4637 43.6119 60.4626 43.9098L60.456 45.255L60.4479 46.3908C60.4451 46.7188 60.1737 46.9825 59.8419 46.9796C59.5218 46.9769 59.2624 46.7274 59.2468 46.4155L59.2469 46.2889L59.255 45.1064L59.2608 43.9057C59.2619 43.6084 59.2627 43.3143 59.2632 43.0255L59.263 41.5807C59.261 40.7911 59.2555 40.1291 59.2462 39.6254C59.2323 38.8762 59.0094 38.4915 58.737 38.3998C58.5607 38.3405 58.367 38.4239 58.2929 38.5886C58.0048 39.2294 58.1955 47.7531 58.4994 49.9481C58.5758 50.4997 58.9367 51.4306 59.5102 52.6002C59.6497 52.8849 59.8002 53.1804 59.96 53.4845C60.2376 54.0128 60.532 54.5462 60.8294 55.0655L61.008 55.3752C61.0795 55.4983 61.1481 55.6153 61.2131 55.7254L61.4826 56.1752C61.6547 56.4558 61.564 56.821 61.2802 56.991C61.0069 57.1548 60.6541 57.0778 60.4747 56.8213L60.4187 56.7316L60.3191 56.5662C60.2124 56.388 60.0936 56.1868 59.9657 55.9667C59.6004 55.3377 59.235 54.6821 58.8934 54.0321C58.7287 53.7186 58.5733 53.4133 58.4286 53.1182L58.3205 52.8954C57.7567 51.7216 57.4016 50.7805 57.3087 50.1092L57.2905 49.9676C57.167 48.9372 57.0396 46.4941 56.9808 44.0684L56.9677 43.4741C56.9095 40.5485 56.9649 38.6172 57.1947 38.1062Z" fill="#000091"/>
<path fill-rule="evenodd" clip-rule="evenodd" d="M58.9659 53.2756C58.3249 51.0582 57.9043 49.2763 57.9844 48.6823C58.2247 46.742 60.4081 38.0701 61.1692 37.397C61.9304 36.7238 63.3325 38.2285 62.7517 40.347L61.2894 46.4846C61.2894 46.4846 63.5128 39.852 64.0336 39.1591C64.5544 38.4661 66.6576 39.5155 65.0752 43.5148C63.4928 47.4944 63.6731 47.9101 63.6731 47.9101C63.6731 47.9101 65.8163 43.1782 66.4373 42.3863C67.0582 41.5943 69.1014 43.5742 66.4573 47.7518L72.8872 61.1753L62.8318 65.3331C62.8318 65.3331 60.388 58.2649 58.9659 53.2756" fill="white"/>
<path fill-rule="evenodd" clip-rule="evenodd" d="M60.7684 36.9544C61.4666 36.3369 62.4051 36.6621 62.9645 37.4972C63.2305 37.8941 63.4017 38.3769 63.4636 38.9056L63.4666 38.9336L63.4775 38.9153C63.4984 38.8808 63.5183 38.8504 63.5371 38.8239L63.551 38.8049C64.1381 38.0238 65.3079 38.3258 65.8638 39.2812C66.2234 39.8992 66.3424 40.7288 66.1945 41.7356L66.1831 41.8096L66.2127 41.7891C66.5408 41.5711 66.9619 41.5663 67.3363 41.7674L67.381 41.7925C67.7821 42.0281 68.0906 42.4771 68.2505 43.0466C68.5877 44.247 68.2708 45.8468 67.2137 47.6603L67.1388 47.7868L73.4301 60.9212C73.5715 61.2164 73.4448 61.5666 73.1521 61.7084L73.1189 61.7233L63.0635 65.8811C62.7538 66.0091 62.4007 65.8613 62.2755 65.5582L62.2583 65.5117L61.815 64.2135C61.7153 63.9194 61.6107 63.6092 61.5017 63.285C60.9311 61.5865 60.3605 59.8495 59.8277 58.1739L59.6509 57.6155C59.5927 57.4311 59.5354 57.2484 59.4788 57.0676L59.2741 56.409C58.9847 55.4723 58.7226 54.5994 58.4916 53.8003L58.2858 53.0829C57.6332 50.7901 57.3126 49.2967 57.3838 48.6427L57.3877 48.6101C57.5103 47.6204 58.1039 45.0141 58.7693 42.5283L58.8945 42.0648C59.6812 39.176 60.3023 37.3666 60.7684 36.9544ZM61.6203 37.8366L61.598 37.8291C61.5849 37.8255 61.5823 37.8285 61.5697 37.8397C61.0691 38.2824 58.9081 46.3018 58.5889 48.6902L58.5798 48.7608C58.5233 49.1801 58.8528 50.6992 59.4826 52.9007L59.6474 53.4747C59.8938 54.3273 60.1765 55.2662 60.4906 56.2785L60.6271 56.7168C60.7396 57.0767 60.8554 57.4439 60.9743 57.8177C61.4386 59.278 61.932 60.7859 62.4291 62.2742L62.8536 63.5377L63.1937 64.5394L72.0745 60.8673L65.914 48.0059C65.8322 47.8351 65.8378 47.6369 65.9272 47.4716L65.9477 47.4368C67.0361 45.717 67.3545 44.2973 67.0925 43.3644C67.0306 43.1441 66.9411 42.9813 66.8533 42.886L66.8317 42.8639L66.7772 42.9501C66.5517 43.3154 66.1797 44.0262 65.7195 44.9667L65.6074 45.1969L65.534 45.3483C65.2748 45.8848 65.0052 46.4554 64.7379 47.0302L64.3755 47.8149L64.2213 48.1529C64.0073 48.6253 63.3268 48.62 63.1205 48.1441C63.099 48.0944 63.0848 48.0432 63.0763 47.9899C63.0002 47.516 63.3622 46.1986 64.5154 43.2985C65.1585 41.6732 65.1894 40.5049 64.822 39.8735C64.7224 39.7023 64.6073 39.602 64.5104 39.567L64.4857 39.5592L64.4585 39.6079C64.2825 39.9362 63.8976 40.9 63.4101 42.2325L63.2813 42.5865L63.1357 42.9909L62.9418 43.5354C62.779 43.9953 62.6134 44.4691 62.4482 44.9469L62.1219 45.8975L61.8596 46.6715C61.6225 47.379 60.5636 47.0955 60.6968 46.3839L60.7043 46.3485L62.1665 40.2109L62.1715 40.1917C62.3932 39.3831 62.2855 38.6353 61.9625 38.1531C61.8457 37.9788 61.7179 37.8704 61.6203 37.8366Z" fill="#000091"/>
<path fill-rule="evenodd" clip-rule="evenodd" d="M155.232 105.762C155.232 105.762 159.219 103.862 160.781 103.782C162.343 103.703 169.755 104.198 170.456 104.594C171.157 104.99 171.017 106.336 169.234 106.178C167.431 106.039 163.665 105.604 163.665 105.604" fill="white"/>
<path fill-rule="evenodd" clip-rule="evenodd" d="M160.75 103.189L160.874 103.184C163.003 103.112 170.003 103.654 170.753 104.078C171.375 104.43 171.621 105.197 171.322 105.842C171.014 106.504 170.255 106.846 169.257 106.776L168.952 106.751C168.46 106.711 167.835 106.651 167.104 106.577L166.391 106.502C165.911 106.452 165.419 106.398 164.931 106.344L163.595 106.194C163.265 106.156 163.029 105.861 163.068 105.535C163.105 105.221 163.384 104.993 163.699 105.011L164.581 105.11L165.552 105.217C165.714 105.235 165.876 105.253 166.037 105.27L166.982 105.37L167.805 105.453C168.283 105.5 168.703 105.539 169.055 105.568L169.287 105.586C169.863 105.638 170.153 105.511 170.23 105.346C170.27 105.259 170.237 105.155 170.157 105.11C169.673 104.836 162.678 104.299 160.865 104.373L160.811 104.376C160.358 104.399 159.551 104.626 158.527 105.008C158.269 105.104 158.001 105.209 157.724 105.321C157.196 105.534 156.663 105.764 156.154 105.993L155.898 106.109L155.493 106.297C155.194 106.44 154.835 106.316 154.691 106.02C154.546 105.725 154.672 105.37 154.971 105.227L155.158 105.14C155.306 105.071 155.473 104.994 155.656 104.912C156.179 104.677 156.725 104.441 157.269 104.221C157.555 104.106 157.834 103.997 158.103 103.897L158.32 103.817C159.353 103.441 160.173 103.218 160.75 103.189Z" fill="#000091"/>
<path fill-rule="evenodd" clip-rule="evenodd" d="M149.303 105.644C149.303 105.644 153.81 105.168 158.016 104.396Z" fill="white"/>
<path fill-rule="evenodd" clip-rule="evenodd" d="M157.907 103.812C158.233 103.752 158.547 103.965 158.607 104.288C158.668 104.61 158.452 104.92 158.126 104.98C157.865 105.028 157.6 105.076 157.329 105.123C155.711 105.404 153.987 105.659 152.256 105.886L151.47 105.987C151.027 106.042 150.608 106.093 150.219 106.138L149.367 106.234C149.037 106.269 148.741 106.033 148.706 105.707C148.67 105.38 148.909 105.088 149.239 105.053L149.733 104.998L150.245 104.939C150.696 104.886 151.184 104.826 151.702 104.76C153.55 104.523 155.398 104.252 157.121 103.953C157.388 103.906 157.65 103.859 157.907 103.812Z" fill="#000091"/>
<path fill-rule="evenodd" clip-rule="evenodd" d="M155.473 105.069C157.336 104.733 161.442 103.763 161.923 103.881C163.505 104.238 170.456 106.752 170.937 107.406C171.418 108.079 170.075 109.069 168.373 108.415L163.445 106.713C163.445 106.713 168.713 109.069 169.234 109.544C169.755 110.019 168.713 111.623 165.569 109.999C162.424 108.396 162.063 108.495 162.063 108.495C162.063 108.495 165.769 110.613 166.39 111.187C167.011 111.761 165.188 113.226 161.963 110.732L155.653 113.088C154.191 113.028 143.355 109.603 144.036 108.633C144.717 107.663 149.424 101.129 149.424 101.129L155.473 105.069Z" fill="white"/>
<path fill-rule="evenodd" clip-rule="evenodd" d="M161.864 111.403L161.941 111.459C163.359 112.468 164.671 112.865 165.715 112.697C166.227 112.614 166.65 112.391 166.896 112.062L166.924 112.023C167.096 111.773 167.151 111.482 167.082 111.215L167.078 111.201L167.091 111.204C167.847 111.368 168.498 111.329 169.019 111.102L169.065 111.081C169.867 110.704 170.234 109.831 169.763 109.237L169.742 109.212L169.769 109.21C170.125 109.178 170.458 109.085 170.749 108.935C171.533 108.534 171.912 107.742 171.427 107.063C171.11 106.632 169.701 105.988 167.393 105.105L167.057 104.977C165.054 104.22 162.95 103.512 162.099 103.312L162.026 103.296C161.688 103.227 161.01 103.331 159.238 103.693L156.216 104.321C156.004 104.364 155.841 104.396 155.69 104.425L155.601 104.442L149.754 100.633C149.494 100.464 149.149 100.52 148.956 100.756L148.628 101.21L143.972 107.689C143.771 107.97 143.626 108.175 143.541 108.295C143.21 108.767 143.44 109.195 143.902 109.563C144.17 109.777 144.568 110.008 145.092 110.263C146.006 110.707 147.311 111.225 148.839 111.762L149.038 111.831C151.825 112.8 154.823 113.649 155.628 113.681C155.709 113.685 155.79 113.672 155.865 113.644L161.864 111.403ZM149.577 101.941L155.142 105.565C155.271 105.65 155.428 105.681 155.581 105.654L155.965 105.582C156.132 105.55 156.315 105.514 156.563 105.463L159.269 104.9C159.849 104.781 160.28 104.697 160.663 104.627L160.885 104.587C161.149 104.541 161.366 104.508 161.535 104.488C161.618 104.478 161.688 104.471 161.742 104.468L161.802 104.465L161.811 104.465L161.903 104.488C162.706 104.69 164.533 105.303 166.324 105.973L166.716 106.12L167.079 106.26C168.753 106.906 170.08 107.497 170.388 107.704L170.412 107.72L170.397 107.738C170.357 107.782 170.289 107.833 170.197 107.881C169.818 108.075 169.255 108.099 168.656 107.886L168.571 107.855L163.643 106.152C162.931 105.906 162.512 106.909 163.165 107.238L164.104 107.664L164.614 107.897C165.038 108.091 165.457 108.286 165.861 108.475L166.35 108.705C166.94 108.985 167.449 109.233 167.858 109.441L168.07 109.55L168.242 109.64C168.387 109.717 168.51 109.785 168.605 109.84L168.71 109.902L168.7 109.913C168.662 109.947 168.606 109.983 168.532 110.015C168.029 110.236 167.136 110.123 165.927 109.514L165.469 109.282C163.368 108.224 162.409 107.87 162.013 107.902L161.996 107.904C161.952 107.91 161.952 107.91 161.902 107.922C161.4 108.06 161.305 108.714 161.731 108.99L161.811 109.037L162.447 109.405C162.889 109.662 163.33 109.922 163.749 110.174L164.153 110.418L164.472 110.613C164.971 110.921 165.374 111.18 165.646 111.368L165.771 111.457L165.749 111.466C165.687 111.489 165.611 111.51 165.521 111.524C164.76 111.647 163.639 111.274 162.333 110.264L162.299 110.24C162.138 110.132 161.934 110.108 161.75 110.176L155.567 112.485L155.541 112.482C154.672 112.367 151.798 111.54 149.241 110.642L148.956 110.542C147.639 110.072 146.511 109.622 145.708 109.238L145.549 109.161L145.397 109.084C145.128 108.947 144.914 108.822 144.761 108.716L144.727 108.692L146.19 106.648L149.577 101.941Z" fill="#000091"/>
<path fill-rule="evenodd" clip-rule="evenodd" d="M136.724 27.5572C136.724 27.5572 124.645 18.7863 123.143 19.2813L116.393 18.6873C108.521 17.9943 101.57 23.736 100.849 31.5169L92.0957 74.4803L131.997 79.7072L135.642 39.3176C135.903 39.1988 136.163 39.0603 136.403 38.9019C139.288 36.9814 139.308 32.2099 136.724 27.5572Z" fill="#000091"/>
<path fill-rule="evenodd" clip-rule="evenodd" d="M154.131 102.06L140.63 92.6753L144.576 79.8457C146.119 73.2527 144.797 64.9174 137.606 62.4821C134.14 61.314 132.979 60.9972 132.578 60.8586V60.8586C132.578 60.8586 109.983 54.8398 107.179 53.7905C105.256 53.0777 97.1639 53.3945 91.2348 58.9777L78.1548 68.8771L71.5848 50.1277L56.041 56.4237L66.2767 86.5377C66.2767 86.5377 69.6418 98.1992 78.6356 93.883L92.4166 85.9833C92.5168 90.5172 92.5568 96.8132 90.1932 103.386C86.7079 113.068 84.9252 123.264 84.9452 133.52C84.9652 145.855 85.0053 157.239 85.0053 157.239L143.955 157.754C143.955 157.754 134.241 113.721 134.241 109.92C134.2 109.643 134.2 109.346 134.18 109.049C139.168 112.177 145.358 114.949 145.358 114.949L154.131 102.06Z" fill="#EB762F" stroke="#EB762F" stroke-width="2.5" stroke-linecap="round" stroke-linejoin="round"/>
<path fill-rule="evenodd" clip-rule="evenodd" d="M134.7 70.2118C135.016 70.1126 135.354 70.2857 135.454 70.5984L135.96 72.1456C136.366 73.3835 136.859 74.8746 136.991 75.2853L137.098 75.6164C137.601 77.1923 137.956 78.4216 138.234 79.5887C138.971 82.6815 139.107 85.2088 138.55 87.659C137.812 90.9058 135.831 93.9803 132.29 97.2184L132.151 97.345L136.313 118.459C136.374 118.769 136.178 119.07 135.872 119.148L135.838 119.155C135.524 119.216 135.219 119.022 135.141 118.72L135.133 118.686L130.907 97.2437C130.866 97.0389 130.938 96.8282 131.094 96.6886C134.709 93.4738 136.672 90.5006 137.377 87.3987C137.889 85.1462 137.763 82.7927 137.064 79.8609L137.007 79.6252C136.736 78.5196 136.387 77.3311 135.899 75.8103L135.595 74.878C135.208 73.701 134.538 71.6726 134.309 70.9575C134.208 70.6448 134.384 70.311 134.7 70.2118Z" fill="#000091"/>
<path fill-rule="evenodd" clip-rule="evenodd" d="M93.1982 86.0625L105.016 78.7964Z" fill="white"/>
<path fill-rule="evenodd" clip-rule="evenodd" d="M104.698 78.2921C104.98 78.1188 105.351 78.2042 105.526 78.4827C105.695 78.7509 105.621 79.1005 105.364 79.2808L105.333 79.3008L93.5151 86.5669C93.2333 86.7402 92.8627 86.6549 92.6874 86.3763C92.5186 86.1081 92.5924 85.7585 92.8498 85.5783L92.8803 85.5582L104.698 78.2921Z" fill="#000091"/>
<path fill-rule="evenodd" clip-rule="evenodd" d="M78.4863 68.6859C78.748 68.4842 79.1256 68.5304 79.3297 68.789L79.427 68.916L79.4741 68.9789C79.5848 69.1277 79.7077 69.2986 79.8398 69.4896C80.2162 70.0337 80.5923 70.631 80.9439 71.2645C81.6425 72.5232 82.1571 73.7656 82.4095 74.9454C82.6644 76.1366 82.6414 77.2228 82.2833 78.1723C82.1673 78.4796 81.8212 78.6359 81.5103 78.5213C81.1993 78.4067 81.0412 78.0646 81.1572 77.7572C81.4267 77.0427 81.445 76.1786 81.2337 75.1912C81.0089 74.1408 80.5368 73.0008 79.8902 71.8359C79.5588 71.2387 79.2031 70.6738 78.8477 70.1601L78.7436 70.0112C78.6759 69.9152 78.6114 69.8257 78.5507 69.7433L78.4017 69.5448C78.3938 69.5347 78.3872 69.5262 78.382 69.5196C78.1779 69.2609 78.2246 68.8876 78.4863 68.6859Z" fill="#000091"/>
<path fill-rule="evenodd" clip-rule="evenodd" d="M127.25 50.979L127.37 59.6905L131.997 61.0566C132.197 61.8288 130.414 75.0346 118.656 71.649C110.945 69.4315 108.1 60.9774 107.64 54.226L114.069 56.3445L113.649 40.0105L127.25 50.979Z" fill="white"/>
<path fill-rule="evenodd" clip-rule="evenodd" d="M113.049 40.0256L113.447 55.5131L107.83 53.6625C107.425 53.529 107.012 53.8445 107.04 54.266C107.302 58.0977 108.257 61.8513 109.898 64.9156C111.865 68.5874 114.728 71.138 118.489 72.2193C123.927 73.785 127.851 72.1137 130.32 68.2279C131.199 66.8455 131.834 65.2603 132.234 63.6557L132.274 63.4946C132.548 62.3436 132.674 61.2724 132.579 60.9091L132.568 60.8717C132.507 60.6875 132.359 60.5434 132.169 60.4875L127.965 59.2462L127.851 50.9709C127.848 50.7953 127.768 50.6298 127.63 50.5188L114.029 39.5503C113.631 39.2292 113.035 39.518 113.049 40.0256ZM114.283 41.2883L126.653 51.2641L126.769 59.6986L126.771 59.7354C126.79 59.9794 126.959 60.1888 127.198 60.2596L131.398 61.4995L131.395 61.5362C131.388 61.6171 131.379 61.7059 131.367 61.8008C131.311 62.2562 131.21 62.7997 131.067 63.3713C130.696 64.8607 130.107 66.3302 129.303 67.596C127.108 71.0491 123.725 72.4897 118.825 71.0787C115.399 70.0937 112.784 67.7639 110.96 64.3598L110.876 64.2007C109.511 61.5908 108.655 58.4429 108.324 55.186L108.313 55.074L113.88 56.908C114.275 57.0382 114.681 56.741 114.671 56.3294L114.283 41.2883Z" fill="#000091"/>
<path fill-rule="evenodd" clip-rule="evenodd" d="M108.426 43.2656C108.576 42.9731 108.938 42.8566 109.234 43.0053C109.53 43.154 109.648 43.5116 109.497 43.804C108.94 44.8874 108.738 46.3979 108.975 47.9811C109.415 50.9003 111.175 52.9952 112.797 52.8048C113.126 52.766 113.425 52.9987 113.464 53.3245C113.503 53.6502 113.268 53.9457 112.939 53.9844C110.526 54.2678 108.31 51.6309 107.786 48.1555C107.515 46.3391 107.749 44.5809 108.426 43.2656Z" fill="#E0840B"/>
<path fill-rule="evenodd" clip-rule="evenodd" d="M135.688 42.5131C135.838 42.2207 136.2 42.1042 136.496 42.2529C136.792 42.4016 136.909 42.7591 136.759 43.0515C136.202 44.135 136 45.6455 136.237 47.2287C136.677 50.1479 138.437 52.2427 140.058 52.0523C140.388 52.0136 140.687 52.2463 140.726 52.572C140.765 52.8978 140.53 53.1932 140.2 53.2319C137.787 53.5153 135.572 50.8785 135.048 47.4031C134.777 45.5867 135.011 43.8285 135.688 42.5131Z" fill="#E0840B"/>
<path fill-rule="evenodd" clip-rule="evenodd" d="M114.617 41.9424C115.648 39.8479 114.677 37.2815 112.448 36.2101C110.22 35.1388 107.578 35.9682 106.547 38.0627C105.516 40.1573 106.487 42.7237 108.716 43.7951C110.944 44.8664 113.586 44.037 114.617 41.9424Z" fill="white"/>
<path fill-rule="evenodd" clip-rule="evenodd" d="M106.017 37.8134C104.832 40.2149 105.927 43.1335 108.442 44.3397C110.958 45.5459 113.962 44.5933 115.147 42.1918C116.331 39.7903 115.237 36.8717 112.721 35.6655C110.206 34.4593 107.201 35.4119 106.017 37.8134ZM107.095 38.3305C107.982 36.5328 110.261 35.81 112.193 36.7363C114.125 37.6626 114.955 39.877 114.069 41.6747C113.182 43.4724 110.902 44.1952 108.971 43.2689C107.039 42.3426 106.208 40.1282 107.095 38.3305Z" fill="#000091"/>
<path fill-rule="evenodd" clip-rule="evenodd" d="M141.47 40.4514C142.38 38.6027 141.52 36.3364 139.55 35.3894C137.581 34.4424 135.246 35.1733 134.337 37.022C133.427 38.8707 134.286 41.1371 136.256 42.0841C138.226 43.0311 140.56 42.3001 141.47 40.4514Z" fill="white"/>
<path fill-rule="evenodd" clip-rule="evenodd" d="M133.805 36.7718C132.742 38.9271 133.726 41.5455 135.984 42.6278C138.241 43.7102 140.937 42.8573 142.001 40.702C143.064 38.5467 142.079 35.9284 139.822 34.846C137.565 33.7637 134.868 34.6166 133.805 36.7718ZM134.884 37.2888C135.649 35.7377 137.621 35.1141 139.294 35.9167C140.968 36.7193 141.688 38.6337 140.923 40.1848C140.157 41.7359 138.186 42.3595 136.512 41.5569C134.838 40.7543 134.119 38.8399 134.884 37.2888Z" fill="#000091"/>
<path fill-rule="evenodd" clip-rule="evenodd" d="M127.4 53.6394C134.025 52.4893 138.171 44.6686 136.661 36.1715C135.151 27.6744 128.557 21.7185 121.932 22.8687C115.308 24.0188 111.162 31.8394 112.672 40.3365C114.182 48.8336 120.776 54.7895 127.4 53.6394Z" fill="white"/>
<path fill-rule="evenodd" clip-rule="evenodd" d="M121.803 22.2627C114.827 23.4647 110.529 31.615 112.105 40.4184C113.682 49.2217 120.554 55.4474 127.53 54.2454C134.506 53.0434 138.804 44.8931 137.228 36.0898C135.651 27.2864 128.779 21.0608 121.803 22.2627ZM122.013 23.4347C128.259 22.3584 134.575 28.0804 136.046 36.2934C137.516 44.5063 133.566 51.9973 127.32 53.0735C121.074 54.1497 114.758 48.4278 113.287 40.2148C111.816 32.0018 115.767 24.5109 122.013 23.4347Z" fill="#000091"/>
<path fill-rule="evenodd" clip-rule="evenodd" d="M127.061 34.7029C127.371 34.6247 127.687 34.8003 127.782 35.0979L127.792 35.1315L129.455 41.569C129.606 42.1628 129.169 42.7558 128.567 42.7811L126.143 42.8414C125.812 42.8497 125.536 42.5905 125.528 42.2626C125.519 41.9464 125.763 41.6816 126.078 41.6557L126.113 41.6538L128.223 41.6014L126.628 35.4254C126.549 35.1189 126.726 34.8072 127.027 34.7126L127.061 34.7029Z" fill="#000091"/>
<path fill-rule="evenodd" clip-rule="evenodd" d="M119.982 31.1143C120.934 30.5892 121.941 30.3973 122.918 30.7717C123.263 30.9037 123.587 31.1041 123.888 31.3742C124.134 31.5949 124.152 31.9705 123.929 32.2133C123.705 32.456 123.325 32.4739 123.08 32.2532C122.887 32.0802 122.689 31.9578 122.484 31.8793C121.901 31.6558 121.237 31.7822 120.567 32.1517C120.409 32.2387 120.265 32.3322 120.138 32.425L120.067 32.4788C120.053 32.4893 120.041 32.4986 120.031 32.5068L119.997 32.5353C119.748 32.753 119.369 32.7304 119.148 32.485C118.928 32.2396 118.951 31.8642 119.199 31.6465C119.36 31.5056 119.628 31.3092 119.982 31.1143Z" fill="#000091"/>
<path fill-rule="evenodd" clip-rule="evenodd" d="M129.52 30.8814C130.159 30.7391 130.824 30.6992 131.466 30.8289C132.364 31.0105 133.095 31.5101 133.551 32.3695C133.705 32.66 133.592 33.019 133.298 33.1714C133.015 33.318 132.667 33.2196 132.504 32.9526L132.486 32.9211C132.207 32.3944 131.785 32.106 131.225 31.9928C130.775 31.9016 130.271 31.9318 129.785 32.0403C129.705 32.0579 129.633 32.0764 129.567 32.0949L129.454 32.1291L129.438 32.1345C129.126 32.2464 128.781 32.0872 128.668 31.7788C128.555 31.4705 128.716 31.1298 129.028 31.0178C129.131 30.9809 129.3 30.9306 129.52 30.8814Z" fill="#000091"/>
<path fill-rule="evenodd" clip-rule="evenodd" d="M124.674 38.0624C124.706 37.2867 124.301 36.6407 123.771 36.6195C123.24 36.5984 122.784 37.2101 122.753 37.9858C122.721 38.7615 123.125 39.4075 123.656 39.4287C124.187 39.4498 124.642 38.8381 124.674 38.0624Z" fill="#000091"/>
<path fill-rule="evenodd" clip-rule="evenodd" d="M131.824 39.6144C132.343 39.5813 132.722 38.9264 132.672 38.1517C132.621 37.3769 132.159 36.7758 131.641 36.8089C131.122 36.842 130.742 37.4969 130.793 38.2717C130.844 39.0464 131.305 39.6476 131.824 39.6144Z" fill="#000091"/>
<path fill-rule="evenodd" clip-rule="evenodd" d="M120.28 42.9584C120.383 46.3467 121.633 48.045 123.668 48.2231C124.434 48.2902 125.228 48.1294 126.007 47.8243C126.397 47.6713 126.7 47.517 126.881 47.4078C127.251 47.1855 127.269 46.6611 126.915 46.4147L121.226 42.4549C120.821 42.1731 120.265 42.4692 120.28 42.9584ZM121.579 44.1534L125.37 46.792C124.815 46.9872 124.267 47.083 123.774 47.0398C122.669 46.9431 121.897 46.1529 121.604 44.3198L121.579 44.1534Z" fill="#000091"/>
<path fill-rule="evenodd" clip-rule="evenodd" d="M138.739 40.0366C141.12 39.6905 143.075 42.45 143.628 46.1606C144.151 49.6747 142.74 52.8746 140.296 53.2298L140.253 53.2345L140.209 53.2361H140.129C139.797 53.2361 139.528 52.9702 139.528 52.6422C139.528 52.3258 139.778 52.0673 140.093 52.0492L140.129 52.0482L140.161 52.048L140.17 52.0467C141.765 51.7685 142.851 49.302 142.451 46.422L142.439 46.3337C141.97 43.1887 140.416 40.9937 138.914 41.2119C138.586 41.2597 138.28 41.0353 138.232 40.7107C138.184 40.3862 138.411 40.0844 138.739 40.0366Z" fill="#E0840B"/>
<path fill-rule="evenodd" clip-rule="evenodd" d="M111.117 41.1057C113.565 40.7499 115.844 43.4055 116.366 46.9327C116.889 50.4468 115.478 53.6467 113.035 54.0019L112.991 54.0066L112.947 54.0082H112.867C112.535 54.0082 112.266 53.7423 112.266 53.4142C112.266 53.0979 112.516 52.8394 112.832 52.8213L112.867 52.8203L112.9 52.8201L112.909 52.8188C114.504 52.5406 115.59 50.0741 115.19 47.1935L115.177 47.1052C114.739 44.1446 112.934 42.0423 111.292 42.281C110.964 42.3287 110.658 42.1043 110.61 41.7798C110.562 41.4552 110.789 41.1534 111.117 41.1057Z" fill="#E0840B"/>
<path fill-rule="evenodd" clip-rule="evenodd" d="M120.659 19.1029L120.639 19.1425C116.573 19.6969 112.006 21.5184 109.442 24.1714C106.437 27.3194 106.297 32.9027 107.9 36.506C109.162 35.6349 110.904 35.4765 112.447 36.2091C112.527 36.2487 112.607 36.2883 112.667 36.3279C118.636 33.9322 118.716 24.9633 118.716 24.1714C120.038 25.2207 121.741 27.0224 121.28 28.9627L142.553 30.4476C142.553 30.4674 146.919 14.9452 120.659 19.1029ZM117.735 24.6664C118.015 24.4486 118.296 24.2704 118.596 24.0922C118.616 24.112 118.636 24.1318 118.656 24.1318L117.735 24.6664Z" fill="#000091"/>
<path fill-rule="evenodd" clip-rule="evenodd" d="M181.994 152.092H156.214L148.803 119.978C148.643 119.285 148.042 118.79 147.341 118.79H92.0762C91.0947 118.79 90.3936 119.721 90.6139 120.691L98.8866 156.566C99.0468 157.259 99.6477 157.754 100.349 157.754C100.349 157.754 173.661 157.754 176.826 157.754C183.075 157.754 181.994 152.092 181.994 152.092Z" fill="#6A6AF4"/>
<path fill-rule="evenodd" clip-rule="evenodd" d="M200.723 128.274L202.185 141.083C202.185 141.083 180.572 143.915 170.957 144.746C170.517 144.786 162.404 149.854 163.286 150.27C168.514 152.725 162.625 155.002 169.515 154.091C169.515 154.091 191.789 156.526 212.461 152.784C214.945 152.329 217.609 150.23 218.33 147.835C219.532 143.875 219.812 132.887 218.43 123.027C218.47 122.987 200.723 128.274 200.723 128.274Z" fill="white"/>
<path fill-rule="evenodd" clip-rule="evenodd" d="M218.417 122.433L218.352 122.438C218.339 122.439 218.333 122.44 218.325 122.441L218.274 122.452L218.2 122.472L217.808 122.584L215.168 123.362L209.369 125.081L200.55 127.705L200.515 127.716C200.257 127.81 200.095 128.067 200.126 128.34L201.522 140.571L198.081 141.014L197.387 141.102C193.805 141.558 190.142 142.013 186.608 142.439L185.177 142.61L183.347 142.827C178.113 143.441 173.857 143.899 170.905 144.155C170.509 144.19 168.367 145.481 166.288 146.876L165.944 147.109C165.005 147.748 164.217 148.323 163.664 148.782C163.299 149.085 163.034 149.339 162.867 149.554C162.744 149.713 162.663 149.862 162.631 150.033C162.572 150.351 162.721 150.662 163.027 150.806C164.04 151.282 164.628 151.752 164.916 152.223C165.098 152.522 165.147 152.748 165.167 153.23L165.17 153.298C165.198 154.117 165.368 154.525 166.083 154.759L166.118 154.77C166.705 154.95 167.669 154.926 169.383 154.707L169.523 154.689L169.968 154.734C170.129 154.75 170.305 154.766 170.495 154.783L171.259 154.85C172.103 154.922 173.039 154.992 174.059 155.059L174.279 155.073C185.259 155.781 197.167 155.636 208.37 154.045C209.797 153.842 211.198 153.617 212.569 153.369C215.348 152.859 218.138 150.554 218.906 148.004L218.945 147.872C220.224 143.442 220.329 132.246 219.025 122.945L219.007 122.948L219.007 122.944C218.985 122.73 218.948 122.697 218.754 122.526L218.56 122.454C218.474 122.425 218.46 122.427 218.417 122.433ZM217.927 123.788L217.948 123.945C219.122 133.013 218.974 143.647 217.754 147.664C217.12 149.771 214.7 151.77 212.351 152.201C210.996 152.446 209.611 152.669 208.199 152.869C197.091 154.447 185.261 154.591 174.357 153.888L173.923 153.859C172.852 153.788 171.877 153.712 171.009 153.637L170.387 153.58C170.211 153.564 170.049 153.548 169.901 153.534L169.581 153.501C169.533 153.496 169.484 153.496 169.436 153.503L169.15 153.539C167.668 153.725 166.843 153.745 166.483 153.639L166.428 153.621C166.391 153.608 166.383 153.591 166.378 153.475L166.371 153.258C166.346 152.541 166.269 152.14 165.945 151.61L165.907 151.549C165.554 151.002 164.982 150.504 164.143 150.039L164.08 150.004L164.094 149.992C164.19 149.903 164.305 149.802 164.437 149.692L164.567 149.586C165.146 149.117 165.979 148.519 166.964 147.859C167.832 147.275 168.781 146.67 169.6 146.173L169.762 146.075C170.131 145.852 170.453 145.665 170.7 145.528L170.756 145.498C170.863 145.439 170.953 145.392 171.02 145.359L171.079 145.332L171.525 145.292C174.636 145.013 179.03 144.534 184.383 143.901L185.794 143.733C186.112 143.695 186.431 143.657 186.753 143.618C189.969 143.231 193.291 142.819 196.561 142.405L199.557 142.023L202.264 141.672L202.299 141.667C202.605 141.609 202.818 141.327 202.782 141.017L201.376 128.699L216.459 124.22L217.927 123.788Z" fill="#000091"/>
<path fill-rule="evenodd" clip-rule="evenodd" d="M161.863 152.23C159.459 154.962 156.615 155.754 157.016 153.992C157.156 153.339 162.864 147.597 164.948 146.588C166.55 145.815 168.954 144.984 172.259 144.608" fill="white"/>
<path fill-rule="evenodd" clip-rule="evenodd" d="M157.594 154.162C157.582 154.224 157.578 154.274 157.578 154.31L157.58 154.331L157.592 154.334C157.687 154.351 157.881 154.333 158.146 154.25L158.197 154.234C159.13 153.924 160.35 153.045 161.41 151.84C161.628 151.593 162.007 151.567 162.258 151.782C162.508 151.997 162.535 152.372 162.317 152.62C161.126 153.974 159.733 154.977 158.579 155.36C157.189 155.821 156.113 155.254 156.428 153.869C156.647 152.85 162.702 147.015 164.685 146.054C166.701 145.082 169.205 144.357 172.191 144.018C172.52 143.98 172.818 144.214 172.856 144.54C172.894 144.866 172.658 145.16 172.328 145.198C169.478 145.522 167.106 146.209 165.213 147.121C164.347 147.54 162.588 149.003 160.673 150.849L160.437 151.077C159.735 151.761 159.074 152.438 158.554 153.005L158.349 153.232C158.135 153.47 157.957 153.678 157.822 153.847L157.787 153.892C157.721 153.976 157.668 154.047 157.631 154.103L157.602 154.147C157.598 154.153 157.597 154.15 157.6 154.134L157.594 154.162Z" fill="#000091"/>
<path fill-rule="evenodd" clip-rule="evenodd" d="M165.909 149.934C165.909 149.934 163.526 150.488 162.063 152.052C160.601 153.636 159.479 154.626 159.74 154.962C159.98 155.299 161.543 155.655 162.544 154.745C163.826 153.101 167.472 152.012 167.472 152.012C167.071 152.052 164.547 152.884 163.325 153.913C162.124 154.923 161.483 156.903 164.768 155.438C164.768 155.438 168.133 154.448 169.435 154.032" fill="white"/>
<path fill-rule="evenodd" clip-rule="evenodd" d="M165.772 149.355C166.095 149.28 166.419 149.478 166.495 149.797C166.571 150.117 166.371 150.436 166.047 150.512L166.019 150.519C165.985 150.527 165.932 150.541 165.863 150.561C165.706 150.606 165.529 150.662 165.339 150.73C164.793 150.924 164.248 151.172 163.743 151.476C163.262 151.766 162.844 152.093 162.508 152.452L161.957 153.037C161.476 153.545 160.865 154.188 160.709 154.366L160.619 154.469C160.577 154.518 160.539 154.564 160.504 154.607L160.454 154.671L160.497 154.681C160.593 154.703 160.699 154.718 160.81 154.724L160.876 154.728C161.339 154.742 161.77 154.617 162.092 154.347L162.107 154.334L162.124 154.313C162.18 154.245 162.239 154.177 162.302 154.11L162.357 154.052L162.363 154.046C162.516 153.855 162.692 153.672 162.883 153.506L162.936 153.461C164.019 152.548 166.567 151.505 167.412 151.421C168.123 151.351 168.335 152.338 167.681 152.569L167.431 152.649L167.248 152.711C167.121 152.754 166.986 152.802 166.844 152.855C166.235 153.079 165.627 153.337 165.064 153.623C164.319 154.002 163.715 154.399 163.303 154.797L163.282 154.817L163.256 154.851C163.111 155.042 163.009 155.224 162.968 155.348L162.963 155.365L162.98 155.365C163.267 155.362 163.734 155.234 164.366 154.964L164.521 154.896L164.558 154.881L164.615 154.863L165.404 154.63L166.687 154.248L167.924 153.876C168.485 153.706 168.936 153.567 169.25 153.467C169.566 153.366 169.905 153.537 170.007 153.849C170.109 154.161 169.936 154.496 169.62 154.597L169.124 154.753C168.886 154.826 168.611 154.91 168.304 155.004L167.529 155.237L166.526 155.537L164.977 155.996L164.922 156.02C164.149 156.357 163.532 156.534 163.052 156.552L162.995 156.553C162.41 156.56 161.959 156.307 161.804 155.829L161.794 155.794L161.786 155.796C160.796 156.064 159.7 155.877 159.276 155.34L159.263 155.323C159.026 155.017 159.062 154.683 159.239 154.344L159.261 154.303C159.365 154.115 159.522 153.907 159.75 153.646L159.804 153.584C160.057 153.298 161.328 151.968 161.623 151.649C162.042 151.2 162.547 150.806 163.117 150.462C163.697 150.113 164.314 149.832 164.931 149.612L165.067 149.565C165.375 149.46 165.618 149.391 165.772 149.355Z" fill="#000091"/>
<path fill-rule="evenodd" clip-rule="evenodd" d="M248.195 62.3237C255.75 62.3237 261.875 56.2695 261.875 48.8011C261.875 41.3328 255.75 35.2786 248.195 35.2786C240.639 35.2786 234.514 41.3328 234.514 48.8011C234.514 56.2695 240.639 62.3237 248.195 62.3237Z" fill="white"/>
<path fill-rule="evenodd" clip-rule="evenodd" d="M248.195 34.6846C240.307 34.6846 233.913 41.0048 233.913 48.8011C233.913 56.5975 240.307 62.9177 248.195 62.9177C256.083 62.9177 262.477 56.5975 262.477 48.8011C262.477 41.0048 256.083 34.6846 248.195 34.6846ZM248.195 35.8725C255.419 35.8725 261.275 41.6608 261.275 48.8011C261.275 55.9414 255.419 61.7297 248.195 61.7297C240.971 61.7297 235.115 55.9414 235.115 48.8011C235.115 41.6608 240.971 35.8725 248.195 35.8725Z" fill="#6A6AF4"/>
<path fill-rule="evenodd" clip-rule="evenodd" d="M253.926 40.1345C254.111 39.8622 254.485 39.7899 254.76 39.9729C255.025 40.1491 255.103 40.4979 254.943 40.7666L254.923 40.7972L249.255 49.1325C249.085 49.3823 248.755 49.4655 248.486 49.3318L248.453 49.314L241.803 45.473C241.516 45.3075 241.42 44.9437 241.587 44.6605C241.748 44.3878 242.096 44.2892 242.377 44.43L242.409 44.4473L248.572 48.0068L253.926 40.1345Z" fill="#6A6AF4"/>
<path fill-rule="evenodd" clip-rule="evenodd" d="M106.379 157.754H63.5533C63.0325 157.754 62.5918 157.338 62.5918 156.804V148.211C62.5918 147.696 63.0124 147.261 63.5533 147.261H106.379C106.9 147.261 107.34 147.677 107.34 148.211V156.804C107.34 157.338 106.9 157.754 106.379 157.754Z" fill="#000091"/>
<path fill-rule="evenodd" clip-rule="evenodd" d="M101.41 155.358C102.627 155.358 103.614 154.348 103.614 153.101C103.614 151.855 102.627 150.844 101.41 150.844C100.194 150.844 99.207 151.855 99.207 153.101C99.207 154.348 100.194 155.358 101.41 155.358Z" fill="white"/>
<path fill-rule="evenodd" clip-rule="evenodd" d="M89.2717 155.358H66.7173C66.2566 155.358 65.876 154.982 65.876 154.527V151.656C65.876 151.201 66.2566 150.824 66.7173 150.824H89.2717C89.7324 150.824 90.113 151.201 90.113 151.656V154.527C90.113 155.002 89.7324 155.358 89.2717 155.358Z" fill="white"/>
<path fill-rule="evenodd" clip-rule="evenodd" d="M113.43 147.221H70.604C70.0833 147.221 69.6426 146.805 69.6426 146.271V137.678C69.6426 137.163 70.0632 136.728 70.604 136.728H113.43C113.95 136.728 114.391 137.144 114.391 137.678V146.271C114.391 146.786 113.97 147.221 113.43 147.221Z" fill="#FF8D7E"/>
<path fill-rule="evenodd" clip-rule="evenodd" d="M108.482 144.825C109.699 144.825 110.685 143.815 110.685 142.568C110.685 141.322 109.699 140.311 108.482 140.311C107.265 140.311 106.278 141.322 106.278 142.568C106.278 143.815 107.265 144.825 108.482 144.825Z" fill="white"/>
<path fill-rule="evenodd" clip-rule="evenodd" d="M96.3426 144.825H73.768C73.3073 144.825 72.9268 144.449 72.9268 143.994V141.123C72.9268 140.668 73.3073 140.292 73.768 140.292H96.3225C96.7832 140.292 97.1638 140.668 97.1638 141.123V143.994C97.1638 144.469 96.8033 144.825 96.3426 144.825Z" fill="white"/>
</g>
<defs>
<clipPath id="clip0_541_7488">
<rect width="285" height="158.625" fill="white"/>
</clipPath>
</defs>
</svg>
