<svg width="288" height="159" viewBox="0 0 288 159" fill="none" xmlns="http://www.w3.org/2000/svg">
<g clip-path="url(#clip0_460_3761)">
<rect x="3" width="282" height="158.625" fill="#F6F6F6"/>
<path fill-rule="evenodd" clip-rule="evenodd" d="M219.152 73.3079C217.332 73.3079 215.591 73.6584 213.988 74.2817L187.988 83.4938L162.383 78.5469H149.799C149.839 71.3408 147.108 60.3175 116.933 65.8097C101.479 68.5168 100.213 75.236 103.517 81.702L38.5564 77.242C37.6066 77.0472 34.7177 76.9693 34.7177 76.9693C27.0997 77.4368 21.0449 83.8833 21.0449 91.7905C21.0449 99.2498 26.4468 105.424 33.4712 106.475L33.2337 111.968L87.3512 113.194L84.2842 158.476L177.56 157.541L167.983 105.093L216.857 102.853L216.639 100.749C217.451 100.886 218.282 100.964 219.133 100.964C226.889 100.964 233.181 94.7703 233.181 87.1358C233.221 79.5012 226.929 73.3079 219.152 73.3079Z" fill="#FF8D7E"/>
<path fill-rule="evenodd" clip-rule="evenodd" d="M116.735 79.7539L112.56 81.4288C112.56 81.4288 126.035 88.3038 126.866 115.96C128.429 133.741 127.993 157.989 127.993 157.989L137.214 157.891C137.214 157.891 134.78 106.416 138.837 97.4964C142.893 88.5765 140.895 84.4865 138.876 82.6169C136.838 80.7472 116.735 79.7539 116.735 79.7539Z" fill="white"/>
<path fill-rule="evenodd" clip-rule="evenodd" d="M116.358 68.6724V78.5272C116.318 80.1437 117.011 81.6823 118.277 82.734C120.652 84.701 125.816 88.2651 131.277 94.4C131.277 94.4 139.806 88.2262 138.915 78.6051L116.358 68.6724Z" fill="white"/>
<path fill-rule="evenodd" clip-rule="evenodd" d="M115.764 68.6723V78.5271C115.721 80.282 116.469 81.959 117.822 83.1189L117.911 83.1941C118.25 83.4685 121.815 86.2581 123.235 87.4488C125.945 89.7209 128.426 92.0838 130.831 94.785C131.034 95.0132 131.381 95.0504 131.629 94.8707L131.715 94.8071C131.775 94.7617 131.851 94.7019 131.944 94.6279L131.984 94.5953C132.257 94.3756 132.56 94.1165 132.885 93.819C133.812 92.9716 134.737 91.9838 135.602 90.8636C138.398 87.2393 139.927 83.1007 139.506 78.552C139.487 78.3416 139.354 78.158 139.158 78.0717L116.6 68.139C116.208 67.9661 115.764 68.2489 115.764 68.6723ZM116.952 69.5741L138.351 78.9969L138.358 79.0843C138.618 83.1431 137.199 86.862 134.656 90.1571C133.836 91.2206 132.956 92.1594 132.077 92.9632L131.976 93.0553C131.775 93.2367 131.584 93.4014 131.406 93.5492L131.348 93.5968L131.234 93.4703C129.023 91.0383 126.742 88.8726 124.279 86.7905L123.867 86.4443C122.318 85.1574 118.845 82.4404 118.66 82.2871C117.537 81.355 116.916 79.9886 116.952 78.5414L116.952 69.5741Z" fill="#000091"/>
<path fill-rule="evenodd" clip-rule="evenodd" d="M149.857 77.865V78.5272C149.857 79.871 149.739 81.0785 149.699 82.0329C149.402 88.6547 146.157 92.1798 144.871 94.8091C152.727 93.3873 160.859 85.0127 162.462 78.5272C160.839 77.0665 152.727 76.3264 149.857 77.865Z" fill="#000091"/>
<path fill-rule="evenodd" clip-rule="evenodd" d="M116.022 96.2694C113.707 95.2177 105.931 88.7128 102.982 80.3966C100.43 79.0333 93.9397 79.7539 91.8818 80.9224C99.9549 97.3601 116.022 96.2889 116.022 96.2694Z" fill="#000091"/>
<path fill-rule="evenodd" clip-rule="evenodd" d="M119.138 94.4806C119.563 94.3781 119.991 94.6337 120.095 95.0515L120.219 95.5561L120.458 96.5505C120.505 96.7487 120.553 96.9541 120.603 97.1664L120.678 97.4899C121.114 99.3667 121.551 101.345 121.958 103.335C122.211 104.571 122.445 105.773 122.656 106.93L122.718 107.275C123.36 110.845 123.749 113.802 123.818 115.954C123.832 116.384 123.489 116.744 123.052 116.758C122.615 116.771 122.25 116.434 122.236 116.004L122.228 115.78C122.144 113.772 121.78 111.027 121.193 107.734L121.16 107.547C120.935 106.297 120.682 104.991 120.406 103.643C120.033 101.819 119.635 100.004 119.235 98.2694L119.06 97.5162C118.999 97.2528 118.939 96.9999 118.881 96.7586L118.646 95.7784L118.558 95.4229C118.454 95.0051 118.714 94.5832 119.138 94.4806Z" fill="#000091"/>
<path fill-rule="evenodd" clip-rule="evenodd" d="M142.564 93.9305C142.991 94.0206 143.263 94.4347 143.172 94.8554L143.066 95.354L142.945 95.9432C142.903 96.1512 142.859 96.3707 142.814 96.6009L142.786 96.7403C142.496 98.2147 142.206 99.8025 141.935 101.443C141.613 103.395 141.34 105.291 141.133 107.079L141.091 107.447C140.696 110.978 140.587 113.866 140.829 115.868C140.881 116.295 140.571 116.683 140.137 116.734C139.703 116.784 139.309 116.479 139.257 116.052C138.989 113.833 139.118 110.712 139.56 106.902C139.771 105.088 140.047 103.168 140.373 101.193C140.646 99.5362 140.939 97.9331 141.232 96.444L141.341 95.8959C141.385 95.6763 141.428 95.4679 141.468 95.2714L141.624 94.5291C141.716 94.1084 142.136 93.8404 142.564 93.9305Z" fill="#000091"/>
<path fill-rule="evenodd" clip-rule="evenodd" d="M114.855 61.7192C114.855 61.7192 109.255 61.8361 110.244 66.7635C111.253 71.7104 117.447 68.8474 117.447 68.8474L116.616 61.8166L114.855 61.7192Z" fill="white"/>
<path fill-rule="evenodd" clip-rule="evenodd" d="M114.888 61.1356L114.863 61.1348L114.832 61.1351L114.764 61.1378C114.69 61.1414 114.599 61.1479 114.491 61.1581C114.274 61.1789 114.039 61.211 113.792 61.2568C113.099 61.3851 112.429 61.5978 111.822 61.9178C110.055 62.8494 109.184 64.4966 109.662 66.8765C110.129 69.1653 111.648 70.2262 113.768 70.2549C114.652 70.2668 115.582 70.1004 116.506 69.817C116.771 69.7356 117.02 69.6492 117.249 69.5618L117.45 69.4823C117.563 69.4368 117.647 69.4003 117.699 69.376C117.93 69.2692 118.066 69.0291 118.036 68.7796L117.205 61.7488C117.172 61.4666 116.937 61.2489 116.649 61.233L114.888 61.1356ZM114.847 62.3037L116.084 62.372L116.805 68.4775L116.715 68.5117C116.54 68.5765 116.351 68.6405 116.153 68.7014C115.338 68.9511 114.526 69.0965 113.784 69.0865C112.19 69.0649 111.175 68.3557 110.826 66.6482C110.454 64.7926 111.06 63.6448 112.382 62.9478C112.871 62.6901 113.43 62.513 114.012 62.4051C114.352 62.342 114.636 62.3128 114.827 62.3046L114.847 62.3037Z" fill="#000091"/>
<path fill-rule="evenodd" clip-rule="evenodd" d="M130.823 46.1583C132.307 46.0415 142.418 45.4183 143.526 53.7345C144.634 62.0507 143.447 71.2238 142.497 75.4111C141.547 79.5984 122.176 77.6703 121.088 77.2808C119.999 76.8913 118.693 75.6448 118.693 75.6448L116.042 62.8687C116.022 62.8881 114.954 47.4632 130.823 46.1583Z" fill="white"/>
<path fill-rule="evenodd" clip-rule="evenodd" d="M130.775 45.5758C123.603 46.1656 119.152 49.568 116.927 54.7838C116.151 56.6006 115.707 58.5105 115.521 60.3926C115.455 61.0543 115.427 61.6675 115.427 62.2098C115.427 62.3775 115.43 62.5297 115.435 62.6606L115.441 62.8031L115.447 62.8868L115.452 62.9366L115.457 62.9728L118.112 75.7617C118.136 75.8769 118.194 75.9823 118.28 76.0642L118.343 76.123C118.408 76.1829 118.497 76.2627 118.606 76.3571C118.854 76.5723 119.122 76.7876 119.399 76.9896C119.718 77.2225 120.03 77.4231 120.331 77.5822C120.522 77.6828 120.706 77.7659 120.885 77.8298C121.775 78.1483 127.512 78.6402 131.843 78.6464L132.237 78.646C138.61 78.6217 142.57 77.7697 143.076 75.5383C144.427 69.5842 145.061 60.7602 144.115 53.6584C143.592 49.7343 141.165 47.3453 137.491 46.2257C136.168 45.8224 134.752 45.6075 133.306 45.5396C132.336 45.4941 131.517 45.5174 130.775 45.5758ZM133.25 46.7069C134.602 46.7703 135.921 46.9706 137.14 47.342C140.402 48.3363 142.481 50.3821 142.937 53.8103C143.864 60.7651 143.24 69.4548 141.918 75.2837C141.597 76.6974 137.737 77.4864 131.845 77.4779L131.464 77.4761C127.318 77.4431 121.985 76.9801 121.29 76.7316C121.169 76.6882 121.036 76.6281 120.893 76.5527C120.648 76.423 120.382 76.2523 120.105 76.0507C119.857 75.8697 119.615 75.6746 119.39 75.4795L119.299 75.4002L119.237 75.345L116.629 62.7784L116.623 62.6726L116.619 62.5565C116.616 62.4539 116.614 62.3371 116.614 62.2095C116.614 61.7041 116.641 61.1287 116.702 60.506C116.878 58.7334 117.296 56.9359 118.021 55.2363C120.081 50.4093 124.158 47.2926 130.872 46.7405C131.565 46.6859 132.336 46.664 133.25 46.7069Z" fill="#000091"/>
<path fill-rule="evenodd" clip-rule="evenodd" d="M117.922 62.771C118.871 63.6864 121.404 68.9643 122.037 71.4378C122.037 71.4378 128.33 69.3733 137.352 69.237C137.352 69.237 142.26 69.3344 144.238 69.8992C144.238 69.8992 143.823 78.6244 139.826 83.1428C135.849 87.6612 127.419 86.3953 123.462 83.6881C119.505 80.981 118.852 79.6761 117.941 76.7742C117.031 73.8723 114.617 63.0437 114.617 63.0437L117.922 62.771Z" fill="#968BB4"/>
<path fill-rule="evenodd" clip-rule="evenodd" d="M115.33 64.6407C115.33 64.6407 112.698 60.6286 111.689 56.4608C110.739 52.5462 112.579 48.4367 116.279 46.6644C119.366 45.1843 121.661 46.3528 121.661 46.3528C121.661 46.3528 118.377 40.8606 123.304 36.0111C125.045 34.2972 127.419 33.3624 129.873 33.4403C135.868 33.6156 137.728 38.6014 137.728 38.6014C137.728 38.6014 144.159 26.9743 157.318 33.8688C158.643 34.5699 160.147 36.498 160.859 37.8029C165.213 45.6906 150.867 55.0391 143.407 55.7792C135.215 56.5971 130.407 55.2533 127.776 53.2862C129.734 54.4158 127.538 66.4909 115.33 64.6407Z" fill="#000091"/>
<path fill-rule="evenodd" clip-rule="evenodd" d="M131.152 74.5051C131.571 74.4388 131.965 74.7085 132.052 75.1122L132.064 75.1755C132.072 75.2122 132.088 75.2739 132.112 75.3529C132.167 75.527 132.242 75.7007 132.337 75.8575C132.62 76.3213 132.996 76.5343 133.616 76.4442L133.675 76.4349C134.105 76.361 134.515 76.6447 134.59 77.0686C134.665 77.4925 134.377 77.896 133.947 77.9698C132.596 78.2016 131.588 77.6555 130.98 76.6595C130.813 76.3857 130.689 76.098 130.599 75.8108C130.544 75.6355 130.512 75.4933 130.497 75.3981C130.427 74.9733 130.721 74.5735 131.152 74.5051Z" fill="#000091"/>
<path fill-rule="evenodd" clip-rule="evenodd" d="M137.202 65.1131C137.623 65.0653 138.005 65.3521 138.074 65.7592L138.079 65.7977L138.969 73.3933C139.032 73.9237 138.547 74.3531 138.023 74.2456L137.987 74.2374L135.276 73.5558C134.853 73.4493 134.597 73.025 134.705 72.6081C134.81 72.2043 135.218 71.9556 135.629 72.0372L135.668 72.0462L137.265 72.4477L136.506 65.9763C136.458 65.5619 136.749 65.1859 137.163 65.1185L137.202 65.1131Z" fill="#000091"/>
<path fill-rule="evenodd" clip-rule="evenodd" d="M140.063 66.6855C140.5 66.6855 140.854 66.1449 140.854 65.478C140.854 64.8111 140.5 64.2705 140.063 64.2705C139.626 64.2705 139.271 64.8111 139.271 65.478C139.271 66.1449 139.626 66.6855 140.063 66.6855Z" fill="#000091"/>
<path fill-rule="evenodd" clip-rule="evenodd" d="M132.445 66.5493C132.882 66.5493 133.236 66.0087 133.236 65.3418C133.236 64.6749 132.882 64.1343 132.445 64.1343C132.008 64.1343 131.653 64.6749 131.653 65.3418C131.653 66.0087 132.008 66.5493 132.445 66.5493Z" fill="#000091"/>
<path fill-rule="evenodd" clip-rule="evenodd" d="M129.35 59.0043C130.25 58.3562 131.358 58.034 132.641 58.2222C133.073 58.2857 133.372 58.6821 133.307 59.1077C133.243 59.5332 132.84 59.8267 132.408 59.7633C131.565 59.6396 130.867 59.8427 130.285 60.2618C130.121 60.3798 129.98 60.506 129.864 60.6303C129.835 60.6615 129.809 60.6904 129.788 60.7163L129.751 60.7613C129.502 61.1148 129.009 61.2024 128.65 60.9571C128.291 60.7118 128.202 60.2263 128.451 59.8729C128.501 59.8023 128.583 59.6999 128.698 59.5764C128.881 59.3801 129.098 59.1856 129.35 59.0043Z" fill="#000091"/>
<path fill-rule="evenodd" clip-rule="evenodd" d="M139.905 58.0439C140.397 57.9675 140.92 57.9645 141.433 58.0885C142.328 58.3048 143.015 58.8798 143.313 59.8346C143.442 60.2458 143.207 60.6818 142.789 60.8083C142.372 60.9348 141.929 60.7041 141.8 60.2928C141.675 59.8934 141.437 59.6938 141.056 59.6016C140.777 59.5342 140.453 59.5361 140.151 59.583C140.12 59.5877 140.092 59.5926 140.067 59.5974L140.006 59.61C139.583 59.7187 139.151 59.4694 139.041 59.0531C138.93 58.6369 139.183 58.2112 139.606 58.1025L139.662 58.089C139.725 58.0749 139.806 58.0591 139.905 58.0439Z" fill="#000091"/>
<path fill-rule="evenodd" clip-rule="evenodd" d="M250.356 96.9317L254.195 92.1991C254.195 92.1991 255.56 85.7331 256.51 83.4739C257.46 81.2147 260.923 79.4034 259.834 82.6754C258.726 85.9473 259.122 87.3106 259.122 87.3106C259.122 87.3106 264.069 82.13 266.146 78.2154C268.264 74.2034 269.649 78.157 269.649 78.157C269.649 78.157 272.379 77.0468 272.182 78.8776C272.182 78.8776 274.774 78.8386 273.507 81.0589C273.507 81.0589 276.436 79.754 275.822 82.2859C276.06 85.2462 270.737 94.2246 265.652 96.7175L263.634 99.4831L261.2 103.145" fill="white"/>
<path fill-rule="evenodd" clip-rule="evenodd" d="M267.992 75.8331C268.705 75.8242 269.263 76.2715 269.716 76.9738C269.81 77.1187 269.895 77.2689 269.971 77.4207L269.976 77.431L269.983 77.4291C270.244 77.3551 270.503 77.2989 270.754 77.2675L270.862 77.2555C271.829 77.1614 272.576 77.4933 272.748 78.3025L272.757 78.3444L272.82 78.3557C272.918 78.3741 273.015 78.3968 273.11 78.4243L273.205 78.4535C274.032 78.7232 274.503 79.3012 274.445 80.1111L274.438 80.1793L274.543 80.1644L274.649 80.1525C275.943 80.0276 276.746 80.7706 276.428 82.2947L276.42 82.3335L276.421 82.3576C276.483 83.9943 275.24 86.9337 273.302 89.8881L273.23 89.9962C271.093 93.2262 268.527 95.8805 266.125 97.1352L266.05 97.1735L264.123 99.8141L261.696 103.465C261.523 103.725 261.176 103.805 260.905 103.652L260.875 103.634C260.61 103.464 260.529 103.122 260.684 102.855L260.703 102.825L263.137 99.1635L263.151 99.1425L265.17 96.3769C265.226 96.2997 265.301 96.2372 265.387 96.1948C267.625 95.0977 270.141 92.5233 272.236 89.3583L272.368 89.1565C274.184 86.3641 275.332 83.5981 275.23 82.3321C275.226 82.2713 275.23 82.21 275.245 82.1506L275.267 82.0563C275.425 81.3592 275.302 81.2636 274.765 81.3155C274.576 81.3337 274.363 81.3809 274.145 81.4484C274.041 81.4808 273.942 81.5156 273.853 81.5501L273.752 81.5915C273.23 81.8242 272.709 81.2652 272.989 80.7732L273.044 80.6759C273.437 79.9521 273.32 79.722 272.832 79.5627C272.699 79.5196 272.551 79.4907 272.4 79.4748C272.345 79.469 272.293 79.4654 272.247 79.4635L272.19 79.4621C271.834 79.4674 271.553 79.1648 271.591 78.8161C271.632 78.437 271.517 78.366 270.979 78.4184C270.774 78.4384 270.546 78.4856 270.312 78.5519C270.225 78.5765 270.143 78.6024 270.065 78.6285L269.989 78.6547C269.951 78.6683 269.921 78.6795 269.9 78.6876L269.875 78.6973C269.57 78.8213 269.224 78.6764 269.1 78.3801L269.068 78.295C269.051 78.2516 269.026 78.1924 268.994 78.1215C268.914 77.9426 268.82 77.7641 268.714 77.6007C268.459 77.206 268.202 76.9992 268.007 77.0016C267.696 77.0055 267.231 77.4275 266.672 78.4862C266.272 79.2401 265.756 80.0647 265.139 80.9502C264.663 81.6331 264.131 82.3447 263.554 83.0776C262.679 84.1887 261.743 85.2943 260.807 86.3442C260.588 86.5892 260.38 86.8195 260.185 87.0332L259.845 87.4017L259.555 87.7111C259.239 88.0416 258.678 87.9076 258.551 87.4715C258.535 87.4152 258.516 87.3277 258.5 87.2079C258.359 86.201 258.54 84.6499 259.27 82.4939C259.386 82.146 259.443 81.8663 259.45 81.661C259.452 81.5881 259.448 81.5346 259.442 81.4985L259.437 81.4762L259.418 81.4769C259.362 81.4806 259.285 81.4974 259.193 81.53L259.152 81.545C258.396 81.8357 257.446 82.7756 257.059 83.6976C256.869 84.1489 256.648 84.8138 256.403 85.6554L256.371 85.7662C256.213 86.3152 256.048 86.9287 255.878 87.5953C255.614 88.6278 255.351 89.7353 255.101 90.8429L255.006 91.267C254.965 91.4498 254.926 91.6249 254.89 91.7909L254.776 92.3183C254.76 92.3931 254.73 92.464 254.686 92.5271L254.659 92.5639L250.82 97.2966C250.616 97.5487 250.242 97.59 249.986 97.3886C249.74 97.1951 249.691 96.8477 249.87 96.5971L249.892 96.5675L253.643 91.9435L253.786 91.2873C253.835 91.067 253.887 90.8336 253.942 90.5893C254.194 89.4719 254.46 88.3544 254.727 87.3103L254.821 86.9463C254.96 86.4084 255.097 85.907 255.229 85.4481L255.295 85.2185C255.538 84.3918 255.76 83.7291 255.962 83.2508C256.471 82.0394 257.658 80.865 258.72 80.4565C259.389 80.1993 260.017 80.2518 260.389 80.7611C260.73 81.2265 260.709 81.9233 260.397 82.8604C260.004 84.0227 259.785 84.9734 259.694 85.7268L259.681 85.8331L259.914 85.5734C260.836 84.5401 261.757 83.4522 262.616 82.3617C263.18 81.6457 263.698 80.952 264.16 80.2889C264.718 79.4894 265.186 78.746 265.552 78.072L265.62 77.9464C266.358 76.5466 267.133 75.8439 267.992 75.8331Z" fill="#000091"/>
<path fill-rule="evenodd" clip-rule="evenodd" d="M263.613 86.3177C263.613 86.3177 268.778 81.3319 269.629 78.1768L263.613 86.3177Z" fill="white"/>
<path fill-rule="evenodd" clip-rule="evenodd" d="M269.055 78.0268C269.139 77.7149 269.464 77.5292 269.781 77.612C270.098 77.6948 270.286 78.0147 270.202 78.3266C269.969 79.1911 269.448 80.19 268.686 81.3083C268.241 81.9612 267.721 82.6444 267.141 83.3479C266.46 84.1726 265.732 84.9829 265.004 85.7454L264.725 86.0349C264.635 86.1277 264.548 86.2168 264.464 86.302L264.256 86.5108L264.029 86.7347C263.795 86.9607 263.419 86.9571 263.189 86.7268C262.969 86.5056 262.964 86.1558 263.17 85.9283L263.453 85.6476L263.613 85.4872C263.776 85.3216 263.953 85.1403 264.139 84.9452C264.848 84.2018 265.558 83.412 266.219 82.6111C266.778 81.9336 267.277 81.2784 267.7 80.6575C268.395 79.6372 268.861 78.7432 269.055 78.0268Z" fill="#000091"/>
<path fill-rule="evenodd" clip-rule="evenodd" d="M265.632 87.8952C266.107 87.233 270.42 83.5521 271.746 78.8584L265.632 87.8952Z" fill="white"/>
<path fill-rule="evenodd" clip-rule="evenodd" d="M266.094 88.2616C265.899 88.5002 265.547 88.5514 265.289 88.3725C265.022 88.1864 264.958 87.8218 265.147 87.5582L265.178 87.5159C265.24 87.4361 265.323 87.3423 265.451 87.2064L266.192 86.439C266.248 86.3804 266.303 86.3236 266.358 86.266C267.112 85.4732 267.762 84.7307 268.387 83.9184C269.713 82.1948 270.678 80.4566 271.174 78.7019C271.262 78.391 271.589 78.209 271.905 78.2954C272.221 78.3819 272.406 78.704 272.318 79.0148C271.792 80.878 270.798 82.6914 269.447 84.4753L269.334 84.6239C268.31 85.9539 266.116 88.2662 266.114 88.2374L266.116 88.2327L266.094 88.2616Z" fill="#000091"/>
<path fill-rule="evenodd" clip-rule="evenodd" d="M267.689 89.5701C268.718 88.2067 271.825 86.6097 273.606 81.2344L267.689 89.5701Z" fill="white"/>
<path fill-rule="evenodd" clip-rule="evenodd" d="M268.712 87.7273L268.832 87.6154C269.564 86.9301 270.104 86.3573 270.65 85.6521C271.633 84.3813 272.432 82.894 273.041 81.0537C273.143 80.7469 273.478 80.5793 273.79 80.6793C274.101 80.7794 274.272 81.1092 274.17 81.416C273.519 83.3821 272.658 84.9859 271.595 86.36C271.006 87.1213 270.426 87.7358 269.653 88.4596L268.542 89.4935C268.277 89.7457 268.297 89.7455 268.166 89.9189C267.97 90.178 267.599 90.232 267.335 90.0395C267.072 89.8471 267.017 89.4811 267.213 89.2221C267.354 89.0349 267.525 88.846 267.751 88.6236L267.897 88.4815L268.712 87.7273Z" fill="#000091"/>
<path fill-rule="evenodd" clip-rule="evenodd" d="M147.616 157.891L163.432 98.3729C165.213 93.8934 167.805 89.2971 172.554 88.148C183.615 85.4603 201.185 83.1817 214.344 82.7727C217.945 82.6558 221.388 84.2334 223.604 87.0184L240.324 106.397L252.196 91.829L266.384 100.749L246.023 128.268C242.204 132.086 236.03 132.358 231.895 128.892L223.584 121.179L226.612 157.891H174.928H164.577H147.616Z" fill="#000091"/>
<path fill-rule="evenodd" clip-rule="evenodd" d="M202.215 84.2725L197.723 72.957L184.03 81.5459L185.257 89.9984C190.362 104.138 203.204 86.7654 202.215 84.2725Z" fill="white"/>
<path fill-rule="evenodd" clip-rule="evenodd" d="M197.404 72.4643L183.711 81.0532C183.515 81.1765 183.41 81.4015 183.443 81.6286L184.669 90.0811C184.675 90.1196 184.684 90.1575 184.698 90.1941C185.961 93.6943 187.797 95.6081 190.099 95.9954C192.065 96.326 194.219 95.5133 196.388 93.8317C200.03 91.0086 203.444 85.7647 202.767 84.06L198.276 72.7444C198.14 72.4016 197.719 72.2665 197.404 72.4643ZM184.672 81.8363L197.433 73.8319L201.662 84.4854C201.713 84.6157 201.648 85.0309 201.425 85.6058C201.172 86.2565 200.748 87.0512 200.2 87.8923C198.985 89.759 197.337 91.6094 195.654 92.9138C193.723 94.4106 191.873 95.1085 190.3 94.8437L190.235 94.8324C188.488 94.508 187.009 92.9805 185.898 90.0246L185.836 89.8571L184.672 81.8363Z" fill="#000091"/>
<path fill-rule="evenodd" clip-rule="evenodd" d="M175.66 52.975C175.66 52.975 187.988 58.993 183.061 66.2965C183.061 66.2965 180.844 69.3737 178.727 69.0231C178.727 69.0231 179.994 66.4718 178.114 65.4201C178.114 65.4201 178.312 72.6456 172.198 71.7887C172.198 71.7887 174.058 68.3999 173.088 64.641C171.03 56.8117 172.415 51.8648 175.66 52.975Z" fill="#000091"/>
<path fill-rule="evenodd" clip-rule="evenodd" d="M200.849 61.9337C200.849 61.9337 201.641 47.6968 186.999 46.7036C185.633 46.6062 176.294 46.1582 175.384 53.8317C174.77 58.9539 175.107 64.4266 175.68 68.6529C175.68 68.6724 176.63 76.638 180.271 80.7474C183.912 84.8568 190.976 83.7467 194.498 81.1954C198.02 78.644 198.594 77.4365 199.385 74.7488C200.177 72.0612 200.849 61.9532 200.849 61.9532V61.9337Z" fill="white"/>
<path fill-rule="evenodd" clip-rule="evenodd" d="M174.763 54.0258C174.256 58.5016 174.411 63.5638 175.053 68.4433L175.088 68.7026L175.093 68.7735C175.148 69.3919 175.53 71.4619 176.013 73.2313L176.037 73.3195C176.924 76.5295 178.159 79.253 179.823 81.1312C181.646 83.1884 184.366 84.1488 187.447 84.053C190.148 83.969 192.931 83.0556 194.849 81.6657L195.154 81.4432C198.231 79.1781 199.055 77.9678 199.955 74.9113C200.268 73.8465 200.574 71.6928 200.875 68.7338C201.012 67.3812 201.14 65.941 201.255 64.4936L201.314 63.7361C201.333 63.4985 201.35 63.2693 201.366 63.0496L201.441 61.9912L201.446 61.8518C201.467 61.1363 201.422 60.1716 201.258 59.0452C201.008 57.3307 200.53 55.6335 199.767 54.0419C197.578 49.4741 193.466 46.5564 187.039 46.1205C186.381 46.0735 185.6 46.0603 184.699 46.1138C183.364 46.193 182.057 46.4086 180.837 46.7975C177.447 47.8783 175.225 50.1229 174.793 53.7638L174.763 54.0258ZM186.955 47.2862C192.943 47.6924 196.683 50.3459 198.693 54.5405C199.402 56.0184 199.849 57.6051 200.083 59.2113C200.225 60.1856 200.271 61.0266 200.263 61.6635L200.259 61.8425L200.255 61.9315L200.194 62.803C200.178 63.0167 200.162 63.2403 200.144 63.4725L200.103 64.0091C199.99 65.4497 199.865 66.8901 199.73 68.2491L199.693 68.6177C199.406 71.4538 199.11 73.5488 198.828 74.539L198.815 74.5861C197.959 77.493 197.265 78.4649 194.146 80.7247C192.424 81.9715 189.875 82.8084 187.41 82.8851C184.66 82.9706 182.285 82.132 180.718 80.3633C179.195 78.6449 178.026 76.0677 177.183 73.0131L177.118 72.7745C176.655 71.0388 176.296 69.0473 176.275 68.6818L176.274 68.6528C176.274 68.6269 176.272 68.601 176.268 68.5754C175.606 63.6959 175.438 58.6154 175.943 54.156L175.973 53.8994C176.346 50.756 178.223 48.8594 181.203 47.9093C182.318 47.5537 183.529 47.354 184.771 47.2803C185.614 47.2302 186.344 47.2426 186.955 47.2862Z" fill="#000091"/>
<path fill-rule="evenodd" clip-rule="evenodd" d="M180.689 64.9134C180.722 64.5923 181.013 64.358 181.339 64.3902C181.653 64.4211 181.886 64.6885 181.873 64.9954L181.87 65.0297L181.244 71.198L182.906 70.7566C183.211 70.6755 183.525 70.8441 183.624 71.1356L183.634 71.1685C183.716 71.4689 183.545 71.7778 183.249 71.8749L183.215 71.8848L180.722 72.547C180.332 72.6506 179.957 72.3493 179.974 71.9584L179.977 71.9247L180.689 64.9134Z" fill="#000091"/>
<path fill-rule="evenodd" clip-rule="evenodd" d="M179.93 63.7218C179.942 63.1088 179.624 62.6055 179.22 62.5977C178.816 62.5898 178.478 63.0803 178.466 63.6933C178.453 64.3063 178.771 64.8096 179.175 64.8175C179.58 64.8253 179.917 64.3348 179.93 63.7218Z" fill="#000091"/>
<path fill-rule="evenodd" clip-rule="evenodd" d="M186.34 65.0429C186.739 64.9762 186.977 64.4321 186.873 63.8277C186.768 63.2232 186.361 62.7872 185.962 62.8539C185.563 62.9206 185.325 63.4646 185.429 64.0691C185.533 64.6735 185.941 65.1095 186.34 65.0429Z" fill="#000091"/>
<path fill-rule="evenodd" clip-rule="evenodd" d="M185.148 57.8573C186.318 57.6026 187.351 57.8461 188.206 58.4046C188.421 58.5452 188.609 58.6962 188.77 58.8486L188.84 58.9168C188.904 58.9816 188.953 59.0357 188.985 59.0755C189.19 59.3275 189.148 59.6952 188.892 59.8968C188.646 60.0906 188.291 60.0603 188.082 59.8336L188.044 59.7891C188.025 59.7681 187.992 59.7336 187.945 59.6893C187.834 59.5843 187.702 59.4779 187.55 59.3783C186.947 58.985 186.236 58.8173 185.405 58.9983C185.084 59.0679 184.768 58.869 184.697 58.5539C184.626 58.2389 184.828 57.927 185.148 57.8573Z" fill="#000091"/>
<path fill-rule="evenodd" clip-rule="evenodd" d="M176.864 57.7409C177.419 57.6751 177.996 57.7221 178.558 57.839L178.669 57.863C178.846 57.9029 178.984 57.9417 179.074 57.9711C179.385 58.0732 179.553 58.404 179.449 58.7102C179.349 59.0054 179.033 59.1698 178.732 59.0896L178.627 59.0587L178.604 59.0522C178.518 59.0286 178.42 59.0047 178.312 58.9822C177.867 58.8897 177.414 58.8527 177.006 58.901C176.456 58.9662 176.066 59.1753 175.836 59.5607C175.671 59.8391 175.307 59.9328 175.024 59.7697C174.741 59.6067 174.646 59.2488 174.812 58.9703C175.25 58.2344 175.975 57.8462 176.864 57.7409Z" fill="#000091"/>
<path fill-rule="evenodd" clip-rule="evenodd" d="M188.482 52.6046C188.482 52.6046 184.94 71.9247 197.841 72.6063C197.841 72.6063 205.36 73.1711 206.785 70.425C206.785 70.425 201.146 68.1463 201.522 65.0692C201.522 65.0692 208.21 70.9704 212.978 65.7898C212.978 65.7898 204.094 65.225 204.074 57.3957C204.054 51.7866 189.986 47.8914 188.482 52.6046Z" fill="#000091"/>
<path fill-rule="evenodd" clip-rule="evenodd" d="M211.95 52.9553L204.114 52.5658C202.789 47.5215 199.009 40.4907 188.225 40.3155C171.367 40.0428 172.475 56.0714 172.475 56.0714L211.693 57.9411C213.098 58.019 214.285 56.9479 214.344 55.5846C214.423 54.2018 213.355 53.0332 211.95 52.9553Z" fill="#FF8D7E"/>
<path fill-rule="evenodd" clip-rule="evenodd" d="M187.778 72.2749C187.877 71.9672 188.21 71.7964 188.523 71.8934C188.835 71.9905 189.009 72.3186 188.91 72.6264C188.876 72.7334 188.808 72.8957 188.699 73.0952C188.522 73.4171 188.288 73.7372 187.988 74.0356C187.062 74.9561 185.727 75.4684 183.958 75.3711C183.631 75.3531 183.38 75.0773 183.398 74.7552C183.417 74.433 183.697 74.1864 184.024 74.2044C185.452 74.2829 186.456 73.8975 187.144 73.2135C187.36 72.9983 187.529 72.7681 187.654 72.5398C187.719 72.421 187.758 72.3321 187.774 72.2871L187.778 72.2749Z" fill="#000091"/>
<path fill-rule="evenodd" clip-rule="evenodd" d="M169.726 117.682C169.75 117.361 170.035 117.119 170.362 117.144C170.677 117.167 170.917 117.429 170.912 117.736L170.91 117.77L168.852 145.068C168.828 145.39 168.543 145.631 168.216 145.607C167.901 145.583 167.662 145.321 167.667 145.014L167.668 144.98L169.726 117.682Z" fill="white"/>
<path fill-rule="evenodd" clip-rule="evenodd" d="M239.237 106.377C239.522 106.217 239.885 106.314 240.048 106.593C240.205 106.863 240.119 107.204 239.859 107.372L239.75 107.437C239.728 107.451 239.703 107.467 239.674 107.485C239.541 107.57 239.391 107.671 239.229 107.788C238.765 108.126 238.299 108.523 237.866 108.977C236.388 110.527 235.652 112.312 236.021 114.317C236.079 114.635 235.865 114.939 235.543 114.996C235.22 115.054 234.911 114.843 234.853 114.525C234.408 112.107 235.287 109.973 237.001 108.177C237.486 107.668 238.005 107.225 238.525 106.848L238.639 106.766C238.9 106.581 239.106 106.451 239.237 106.377Z" fill="white"/>
<path fill-rule="evenodd" clip-rule="evenodd" d="M234.755 106.068C236.013 105.513 237.336 105.491 238.566 105.782C238.855 105.851 239.072 105.921 239.201 105.972C239.505 106.093 239.652 106.434 239.529 106.733C239.41 107.021 239.084 107.166 238.789 107.068L238.691 107.033C238.678 107.028 238.663 107.023 238.647 107.018C238.543 106.984 238.423 106.951 238.288 106.919C237.292 106.683 236.225 106.7 235.24 107.134C234.007 107.678 233.021 108.835 232.38 110.784C232.279 111.091 231.944 111.259 231.633 111.16C231.321 111.06 231.15 110.731 231.251 110.424C231.991 108.173 233.201 106.754 234.755 106.068Z" fill="white"/>
<path fill-rule="evenodd" clip-rule="evenodd" d="M44.6908 115.414L28.1885 100.515C28.1885 100.515 32.8186 91.2253 46.254 84.7982C53.6148 81.2731 83.6316 88.4208 88.9148 90.6021C94.1781 92.7834 101.104 112.746 101.104 112.746L92.0213 115.843C92.0213 115.843 87.6682 125.678 88.0441 127.158C88.7565 130.041 89.6667 158.203 89.6667 158.203H42.2175L44.6908 115.414Z" fill="#6A6AF4"/>
<path fill-rule="evenodd" clip-rule="evenodd" d="M87.0077 99.2709C87.2578 99.0622 87.6324 99.0927 87.8444 99.3389L87.912 99.4197C87.9533 99.4702 88.0057 99.5357 88.0683 99.6158C88.2387 99.8343 88.4278 100.091 88.6308 100.384C89.2078 101.216 89.7838 102.176 90.321 103.253C91.6967 106.01 92.5845 109.043 92.7508 112.282C92.9623 116.399 91.9838 120.568 89.589 124.701C89.4266 124.982 89.0641 125.079 88.7793 124.92C88.4945 124.76 88.3953 124.403 88.5577 124.123C90.8388 120.185 91.7653 116.238 91.5651 112.341C91.4075 109.273 90.564 106.391 89.2554 103.768C88.7441 102.743 88.1966 101.83 87.6501 101.042L87.5255 100.865C87.403 100.692 87.2873 100.536 87.1797 100.396L87.0646 100.249L86.9386 100.094C86.7266 99.8482 86.7576 99.4795 87.0077 99.2709Z" fill="white"/>
<path fill-rule="evenodd" clip-rule="evenodd" d="M54.5142 108.251C54.7308 108.009 55.1059 107.985 55.352 108.198C55.5886 108.403 55.6198 108.753 55.4293 108.995L55.4054 109.023L47.7083 117.631C47.488 117.878 47.1074 117.896 46.8642 117.679L46.8368 117.652L44.1853 114.965C43.9569 114.733 43.9625 114.363 44.1977 114.139C44.4235 113.923 44.7788 113.919 45.009 114.124L45.0371 114.151L47.2411 116.385L54.5142 108.251Z" fill="white"/>
<path fill-rule="evenodd" clip-rule="evenodd" d="M47.9354 148.406C47.9354 148.406 44.8882 152.886 39.9019 154.191C36.9339 154.97 32.9962 155.885 32.2839 155.242C30.9384 154.035 35.2124 152.224 35.8456 151.892" fill="white"/>
<path fill-rule="evenodd" clip-rule="evenodd" d="M48.2657 147.921C48.5381 148.1 48.6111 148.463 48.4287 148.731L48.3858 148.793C48.3458 148.849 48.2902 148.925 48.2193 149.019C48.0534 149.238 47.858 149.481 47.6338 149.742C46.9952 150.486 46.2511 151.229 45.4071 151.923C43.7889 153.254 41.9997 154.246 40.0548 154.755L39.3596 154.936C35.0583 156.041 32.6896 156.401 31.884 155.674C31.2572 155.111 31.3054 154.379 31.8423 153.724C32.2219 153.261 32.846 152.808 33.6764 152.337C33.9976 152.154 34.3301 151.98 34.6973 151.798L35.5173 151.401C35.541 151.389 35.5584 151.381 35.5671 151.376C35.8566 151.225 36.216 151.333 36.3698 151.618C36.5236 151.903 36.4136 152.257 36.1241 152.408L36.0612 152.44C35.8888 152.525 35.4694 152.725 35.384 152.767C34.9732 152.967 34.6121 153.154 34.2699 153.349C33.5568 153.754 33.0306 154.136 32.7663 154.458L32.7215 154.514C32.5865 154.686 32.5926 154.729 32.685 154.811C32.8091 154.923 33.7618 154.909 35.1458 154.674C36.3879 154.462 37.9075 154.109 39.7494 153.626C41.5115 153.165 43.1518 152.255 44.6458 151.026C45.4339 150.378 46.1305 149.683 46.7271 148.988C46.9091 148.776 47.07 148.578 47.2089 148.397L47.3264 148.242C47.345 148.217 47.3623 148.193 47.3784 148.171L47.4422 148.081C47.6246 147.813 47.9933 147.741 48.2657 147.921Z" fill="#000091"/>
<path fill-rule="evenodd" clip-rule="evenodd" d="M36.3602 149.4C32.2643 148.835 29.1775 150.588 30.8396 151.97C31.453 152.496 40.654 153.1 43.2065 152.224C45.1852 151.561 45.7194 150.919 48.8656 148.348L45.8777 146.731L42.5139 147.705L36.3602 149.4Z" fill="white"/>
<path fill-rule="evenodd" clip-rule="evenodd" d="M31.2188 151.521L31.2077 151.51C31.2052 151.506 31.207 151.506 31.2123 151.507L31.2375 151.515C31.3048 151.537 31.3978 151.561 31.5132 151.586L31.564 151.596C31.8371 151.653 32.205 151.71 32.6465 151.764L32.7422 151.775C33.6902 151.887 34.8998 151.979 36.1489 152.032L36.5817 152.049C39.4538 152.151 41.9073 152.029 42.9678 151.686L43.0715 151.651C43.7113 151.434 44.1769 151.223 44.6404 150.939L44.7392 150.878C45.1034 150.647 45.4923 150.358 46.0486 149.908L46.4204 149.603C46.9689 149.151 48.0425 148.261 48.486 147.898C48.7383 147.692 49.1125 147.726 49.3219 147.975C49.5314 148.223 49.4966 148.591 49.2444 148.798L46.8812 150.747L46.7139 150.882C46.1168 151.362 45.6928 151.672 45.2668 151.932C44.7557 152.245 44.2424 152.482 43.5838 152.713L43.4016 152.775L43.3269 152.8C40.7889 153.599 31.3909 153.218 30.4561 152.417C29.2767 151.436 29.7102 150.168 31.1704 149.434C32.4548 148.789 34.4109 148.541 36.4422 148.821C36.7669 148.866 36.9932 149.161 36.9477 149.481C36.9022 149.8 36.6021 150.023 36.2775 149.978C34.474 149.73 32.7618 149.947 31.7101 150.475C30.9287 150.868 30.8129 151.167 31.2035 151.508L31.2188 151.521Z" fill="#000091"/>
<path fill-rule="evenodd" clip-rule="evenodd" d="M48.3712 148.952C49.5584 147.53 50.3103 146.284 50.6863 145.154C50.6863 145.154 51.458 142.875 51.1612 141.785C49.7167 136.487 47.8172 126.204 40.9906 117.187L43.4244 114.246L29.3757 101.567C27.6344 104.099 25.9723 106.494 24.5872 108.52C22.2128 111.948 22.4304 116.485 25.1215 119.679L41.2677 138.824L40.2387 141.999C38.7151 142.7 34.8171 144.687 34.8171 144.687C30.6025 146.167 32.878 147.394 34.8567 147.277C36.8354 147.16 39.8232 145.797 40.2387 145.485C40.2387 145.485 36.0043 147.608 33.432 147.218C31.7501 147.257 30.6618 148.893 30.741 149.4C30.8201 149.906 32.6801 149.848 35.3711 150.023C38.0622 150.198 40.6741 148.679 40.6741 148.679" fill="white"/>
<path fill-rule="evenodd" clip-rule="evenodd" d="M49.6952 138.464L49.5209 137.786C49.1209 136.241 48.7639 134.95 48.3631 133.633C47.1899 129.776 45.8148 126.318 44.0438 123.043C42.9933 121.1 41.822 119.263 40.5138 117.536C40.3595 117.332 40.3576 117.054 40.5051 116.849L40.5296 116.817L42.6098 114.304L29.4801 102.455L25.0769 108.849C22.8739 112.029 23.0515 116.228 25.5024 119.216L25.5774 119.306L41.7236 138.451C41.8443 138.594 41.8881 138.784 41.8433 138.964L41.8324 139.002L40.8035 142.176C40.7532 142.331 40.6393 142.459 40.4893 142.528L40.1435 142.69C39.7403 142.881 39.2188 143.135 38.6017 143.44L37.9912 143.743L37.1474 144.165C36.9565 144.261 36.7639 144.358 36.5707 144.455L35.0892 145.205C35.0655 145.217 35.041 145.228 35.0158 145.237L34.834 145.302C34.0053 145.606 33.452 145.9 33.1721 146.158C33.1066 146.219 33.0665 146.267 33.0458 146.3L33.0426 146.306L33.0446 146.308C33.1121 146.38 33.2852 146.476 33.5365 146.553L33.5878 146.568C33.7555 146.616 33.9408 146.652 34.1333 146.674L34.2003 146.681L34.2877 146.679C34.6905 146.665 35.1404 146.607 35.6295 146.506L35.743 146.482C36.4324 146.333 37.1715 146.108 37.932 145.828C38.4477 145.638 38.9422 145.435 39.397 145.231L39.5502 145.162C39.5994 145.14 39.6466 145.118 39.6919 145.097L39.9024 144.997C39.9324 144.982 39.9546 144.971 39.9685 144.964C40.613 144.641 41.173 145.518 40.5977 145.95C39.7723 146.569 36.6171 147.758 34.8914 147.86C34.6829 147.872 34.474 147.872 34.2688 147.86L34.1307 147.85L34.0378 147.85C33.8291 147.847 33.6285 147.834 33.4363 147.809L33.4011 147.804L33.377 147.805C32.8333 147.836 32.3209 148.088 31.9023 148.49L31.8504 148.541C31.6659 148.728 31.5155 148.932 31.4191 149.117L31.3999 149.155L31.4234 149.16C31.449 149.166 31.4765 149.171 31.5058 149.176L31.5511 149.184C31.8751 149.239 32.3089 149.275 33.1001 149.316L34.276 149.375C34.6934 149.396 35.0521 149.416 35.4095 149.44C36.5436 149.514 37.7673 149.269 38.9773 148.812C39.352 148.671 39.6969 148.52 40.0032 148.369L40.1245 148.308C40.1629 148.288 40.1991 148.269 40.2331 148.251L40.3713 148.176C40.6535 148.012 41.0175 148.104 41.1843 148.382C41.3511 148.659 41.2575 149.018 40.9752 149.182L40.8998 149.225C40.8125 149.273 40.6896 149.337 40.5346 149.414C40.195 149.581 39.8149 149.748 39.4022 149.903C38.0453 150.415 36.6608 150.692 35.3311 150.606L34.8567 150.577C34.6948 150.567 34.5275 150.558 34.3498 150.549L32.9502 150.479C32.1933 150.438 31.7529 150.402 31.3897 150.343L31.3496 150.336C30.6518 150.218 30.2357 150.015 30.1535 149.488C30.0288 148.691 30.8672 147.585 31.9985 147.012L32.0697 146.977L32.0598 146.964C32.0498 146.95 32.0401 146.936 32.0308 146.922L32.0039 146.88C31.6899 146.362 31.8437 145.782 32.3603 145.306C32.7872 144.912 33.4976 144.538 34.5109 144.174L34.5783 144.15L35.4472 143.709L36.0298 143.415C36.3206 143.268 36.6099 143.123 36.8942 142.981L37.8837 142.487C38.4822 142.191 38.9991 141.938 39.4177 141.737L39.7508 141.579L40.6024 138.951L24.6637 120.052C21.8322 116.692 21.5774 111.93 24.0191 108.303L27.0548 103.892C27.949 102.594 28.7249 101.47 28.8833 101.239C29.0795 100.954 29.48 100.899 29.7479 101.112L29.776 101.136L43.8248 113.815C44.0472 114.016 44.08 114.347 43.9066 114.585L43.8839 114.615L41.7402 117.205L41.8463 117.348C42.976 118.888 44.0028 120.509 44.937 122.209L45.0919 122.494C46.9033 125.844 48.3063 129.372 49.5005 133.298L49.6101 133.661C49.9543 134.811 50.2709 135.958 50.6163 137.285L50.904 138.405L51.4349 140.499C51.5494 140.945 51.643 141.3 51.7337 141.633C51.8521 142.068 51.8461 142.616 51.7506 143.268C51.7002 143.613 51.6257 143.975 51.5335 144.346C51.4717 144.595 51.4055 144.833 51.3393 145.052L51.2812 145.239C51.2682 145.28 51.2576 145.312 51.2496 145.336C50.8444 146.553 50.0485 147.862 48.829 149.323C48.6208 149.572 48.2467 149.608 47.9935 149.403C47.7402 149.198 47.7036 148.83 47.9118 148.581C49.0125 147.262 49.7258 146.103 50.091 145.061L50.1429 144.906L50.1857 144.77C50.1908 144.753 50.196 144.736 50.2013 144.719C50.2623 144.517 50.3234 144.297 50.3803 144.068C50.464 143.732 50.5311 143.405 50.5756 143.101C50.6501 142.593 50.6546 142.184 50.587 141.936L50.5034 141.626C50.4181 141.306 50.3264 140.953 50.2153 140.517L49.6952 138.464Z" fill="#000091"/>
<rect width="3.35936" height="5.83127" transform="matrix(-0.95796 0.286901 -0.295345 -0.955391 70.1904 43.3301)" fill="#FF8D7E"/>
<path fill-rule="evenodd" clip-rule="evenodd" d="M65.1507 39.7311C68.4182 39.7311 71.067 37.1239 71.067 33.9078C71.067 30.6916 68.4182 28.0845 65.1507 28.0845C61.8832 28.0845 59.2344 30.6916 59.2344 33.9078C59.2344 37.1239 61.8832 39.7311 65.1507 39.7311Z" fill="#000091"/>
<path fill-rule="evenodd" clip-rule="evenodd" d="M67.723 41.0167C72.927 39.965 79.7733 40.2961 84.6013 42.7695C99.1646 51.0857 99.1052 61.2132 92.7338 65.5758C93.2087 57.7465 92.1204 54.6304 89.4689 52.527C86.3624 56.8896 75.5982 61.0379 66.8128 60.1615C66.8128 60.1226 65.9818 67.9129 66.7534 67.9519C66.8326 68.4193 67.9407 72.7429 67.9407 72.7429L65.863 80.9033L45.0867 75.3722C43.8995 75.2164 43.1278 73.9699 43.5433 72.8987C46.076 66.2185 50.9634 44.6392 67.723 41.0167Z" fill="#000091"/>
<path fill-rule="evenodd" clip-rule="evenodd" d="M80.1094 80.8642L79.3179 87.7197L81.7319 88.5182C82.0683 89.1804 85.2936 98.8015 74.5492 98.2367C67.5446 97.8667 58.9769 89.9205 58.0469 85.0126L60.0849 84.9736C63.1123 84.7204 65.091 82.9092 65.9815 80.0462L68.3955 72.2559L80.1094 80.8642Z" fill="white"/>
<path fill-rule="evenodd" clip-rule="evenodd" d="M65.4137 79.8759L65.3845 79.9682C64.5352 82.603 62.7461 84.1329 60.1264 84.3833L60.0519 84.3899L58.0354 84.4285C57.6687 84.4355 57.3961 84.7649 57.4634 85.1198C57.9493 87.6842 60.3458 90.9935 63.6336 93.7699C67.1254 96.7185 71.0884 98.6391 74.5174 98.8203C79.5265 99.0836 82.2077 97.2277 82.8778 93.9531C83.1137 92.8003 83.0784 91.549 82.8465 90.2914L82.8157 90.1305C82.6562 89.3282 82.4188 88.564 82.2629 88.2571L82.2442 88.2232C82.172 88.1018 82.0574 88.0096 81.921 87.9645L79.9618 87.3165L80.6992 80.9303C80.7231 80.7238 80.6337 80.5205 80.4645 80.3962L68.7506 71.7878C68.4212 71.5457 67.9476 71.6985 67.8277 72.0855L65.4137 79.8759ZM68.7168 73.2212L79.4811 81.1316L78.7281 87.6539L78.7251 87.6895C78.7112 87.9498 78.875 88.1898 79.1288 88.2737L81.2827 88.9862L81.2919 89.0118C81.3227 89.0993 81.3574 89.2042 81.3921 89.3175C81.5006 89.6729 81.6002 90.0762 81.6783 90.5C81.8854 91.6233 81.9167 92.7314 81.7139 93.7224C81.1651 96.4045 79.0234 97.8869 74.5809 97.6534C71.451 97.4881 67.7169 95.6784 64.4066 92.8831L64.2987 92.7915C61.5755 90.4672 59.5281 87.7767 58.8232 85.6399L58.8047 85.5826L60.0964 85.5579L60.1352 85.556C63.3366 85.2882 65.565 83.3814 66.549 80.2174L68.7168 73.2212Z" fill="#000091"/>
<path fill-rule="evenodd" clip-rule="evenodd" d="M68.2567 70.464L67.0695 70.5614C67.0695 70.5614 60.2034 70.6003 60.7772 64.3875C61.2125 59.6743 65.9021 60.4923 68.138 61.1545" fill="white"/>
<path fill-rule="evenodd" clip-rule="evenodd" d="M63.6644 60.1825C65.0559 59.9036 66.6605 60.1064 68.3095 60.5948C68.6234 60.6877 68.8013 61.0136 68.7069 61.3226C68.6124 61.6316 68.2813 61.8067 67.9674 61.7138C66.4897 61.2761 65.0596 61.0954 63.9013 61.3275C62.4187 61.6247 61.5419 62.5669 61.3689 64.4402C61.1338 66.985 62.1884 68.5192 64.1437 69.3568C64.7748 69.6272 65.4576 69.8024 66.1429 69.8994C66.3853 69.9337 66.6108 69.9556 66.8133 69.9675L66.9137 69.9727L67.047 69.9766L68.2079 69.8815C68.5229 69.8556 68.801 70.0769 68.8448 70.3811L68.8487 70.4152C68.875 70.7253 68.6502 70.999 68.3411 71.0422L68.3065 71.046L67.1192 71.1434L67.0963 71.1448L67.0709 71.1454L66.9873 71.1445C66.9334 71.1433 66.8673 71.1408 66.7899 71.1367L66.7421 71.134C66.508 71.1202 66.25 71.0951 65.9739 71.056C65.1906 70.9452 64.4073 70.7442 63.6699 70.4283C61.2692 69.3999 59.9023 67.4114 60.1865 64.3344C60.4075 61.9418 61.6734 60.5815 63.6644 60.1825Z" fill="#000091"/>
<path fill-rule="evenodd" clip-rule="evenodd" d="M92.7337 65.5951C93.2085 57.7658 92.1203 54.9418 89.4688 52.8579C86.4018 57.1621 76.8051 61.3299 67.0303 60.2198C66.694 61.2715 66.971 60.3367 66.7731 61.5052C66.6544 62.7322 66.5555 64.115 66.4961 65.303C66.6148 69.8019 67.9208 72.7817 67.9208 72.7817C69.7016 77.3975 73.1643 81.1759 78.3287 82.3639C87.3318 84.4478 91.586 72.1196 92.1994 69.354C92.516 67.9517 92.7337 65.5951 92.7337 65.5951Z" fill="white"/>
<path fill-rule="evenodd" clip-rule="evenodd" d="M88.9827 52.5223C87.5079 54.592 84.4111 56.6346 80.561 58.0203C76.3478 59.5367 71.614 60.1521 67.0982 59.6392C66.8155 59.6071 66.5494 59.777 66.464 60.0442L66.3083 60.5288L66.2836 60.6124C66.263 60.688 66.2544 60.7435 66.2556 60.8142L66.257 60.8509C66.2575 60.8609 66.2588 60.8764 66.2592 60.88L66.2574 60.9153L66.2502 60.9888C66.2395 61.0831 66.2194 61.2205 66.1874 61.409L66.182 61.4497C66.0653 62.6565 65.9644 64.0461 65.9031 65.2741C65.9023 65.2888 65.9022 65.3034 65.9025 65.318C65.9552 67.3152 66.2358 69.1686 66.6674 70.8344C66.8073 71.3745 66.9548 71.8611 67.1025 72.2902L67.164 72.4654C67.2265 72.6405 67.2806 72.7823 67.3239 72.8894L67.3657 72.989C69.3487 78.1289 73.1255 81.7668 78.1935 82.9327C82.4708 83.9227 86.0562 81.983 88.8954 78.0137C90.769 75.3946 92.2081 71.9493 92.7519 69.599L92.7792 69.4785C92.9208 68.8515 93.0518 68.0111 93.1705 67.0505C93.2038 66.7809 93.2344 66.5162 93.2618 66.2629L93.3032 65.8679C93.3125 65.7759 93.3197 65.7018 93.3247 65.6482C93.7847 58.0684 92.8646 54.7791 89.8391 52.4012C89.5715 52.1909 89.1793 52.2464 88.9827 52.5223ZM67.445 60.8651L67.4496 60.8509L67.5953 60.8648C72.1068 61.2753 76.7826 60.6244 80.9686 59.1178L81.1168 59.064C84.7632 57.73 87.7776 55.822 89.5008 53.7769L89.5611 53.7042L89.6299 53.7669C91.8667 55.8366 92.5482 58.8448 92.1408 65.5602L92.1008 65.9549C92.0754 66.197 92.047 66.4517 92.0158 66.7126L91.9918 66.9094C91.8826 67.7931 91.7628 68.5699 91.6376 69.1462L91.6197 69.2271C91.1293 71.4379 89.7322 74.814 87.9246 77.341C85.3365 80.9591 82.1952 82.6586 78.4643 81.795C73.8069 80.7236 70.326 77.3708 68.4754 72.5742L68.4308 72.4664L68.4098 72.4139C68.3733 72.3215 68.3332 72.2153 68.2903 72.0958L68.2642 72.0225C68.1138 71.5963 67.9618 71.1021 67.8177 70.5457L67.7727 70.3689C67.4024 68.889 67.1571 67.2539 67.0957 65.4989L67.0898 65.3103L67.1034 65.0495C67.1595 64.0059 67.2423 62.8658 67.3375 61.8379L67.3617 61.5808L67.3942 61.3826C67.4326 61.1385 67.4453 61.0093 67.4455 60.8948L67.445 60.8651Z" fill="#000091"/>
<path fill-rule="evenodd" clip-rule="evenodd" d="M86.2638 60.8235C86.5798 60.8137 86.8458 61.0488 86.8737 61.3548L86.8758 61.3891L87.2122 71.8671C87.2235 72.2182 86.9206 72.4968 86.5702 72.4679L86.535 72.464L83.9033 72.0939C83.5787 72.0483 83.3532 71.7523 83.3996 71.4329C83.4443 71.1248 83.7255 70.9075 84.0365 70.9332L84.0712 70.9371L86.0031 71.2088L85.6892 61.426C85.6792 61.115 85.9181 60.8531 86.229 60.8256L86.2638 60.8235Z" fill="#000091"/>
<path fill-rule="evenodd" clip-rule="evenodd" d="M78.99 59.5827C79.8892 59.0348 80.8438 58.8188 81.7761 59.1729C82.0741 59.2861 82.3562 59.4561 82.6188 59.6835C82.865 59.8967 82.8891 60.2658 82.6726 60.5081C82.456 60.7505 82.081 60.7741 81.8348 60.561C81.6759 60.4235 81.5142 60.326 81.3486 60.2631C80.8296 60.066 80.2296 60.2017 79.615 60.5763C79.4625 60.6692 79.3225 60.7692 79.1994 60.8686L79.1295 60.9265C79.0964 60.9546 79.0732 60.9756 79.0608 60.9876C78.8266 61.2134 78.4507 61.2096 78.2213 60.9791C77.9919 60.7486 77.9958 60.3786 78.23 60.1528C78.3861 60.0023 78.6465 59.7921 78.99 59.5827Z" fill="#000091"/>
<path fill-rule="evenodd" clip-rule="evenodd" d="M78.9225 73.592C79.2437 73.5275 79.5572 73.7317 79.6227 74.0478C79.7518 74.6716 80.1383 75.0358 80.7545 75.2287C81.1715 75.3592 81.628 75.3904 82.0185 75.3634L82.0937 75.357C82.419 75.317 82.7157 75.5441 82.7564 75.8643C82.797 76.1845 82.5663 76.4765 82.241 76.5165L82.1972 76.5213C82.1712 76.5238 82.1392 76.5265 82.1017 76.5291C81.5745 76.5656 80.9777 76.5248 80.3947 76.3423C79.3961 76.0297 78.682 75.3569 78.4593 74.2811C78.3939 73.9649 78.6013 73.6564 78.9225 73.592Z" fill="#000091"/>
<path fill-rule="evenodd" clip-rule="evenodd" d="M89.7009 61.0258C90.2897 60.8657 90.8975 60.8032 91.486 60.9C92.3278 61.0383 93.0197 61.4938 93.4556 62.3024C93.6093 62.5874 93.4991 62.9411 93.2095 63.0924C92.9199 63.2436 92.5606 63.1352 92.4069 62.8501C92.1519 62.377 91.7817 62.1333 91.2905 62.0526C90.8972 61.9879 90.4533 62.0336 90.017 62.1522C89.9335 62.1749 89.856 62.1988 89.7859 62.2228L89.6773 62.262L89.6467 62.2743C89.3462 62.4034 88.9963 62.2683 88.8652 61.9725C88.734 61.6768 88.8712 61.3324 89.1717 61.2033L89.2332 61.178C89.3453 61.1336 89.5044 61.0793 89.7009 61.0258Z" fill="#000091"/>
<path fill-rule="evenodd" clip-rule="evenodd" d="M81.509 65.3804C81.6396 64.6495 81.3528 63.9889 80.8685 63.9051C80.3841 63.8213 79.8856 64.3459 79.755 65.0768C79.6244 65.8078 79.9112 66.4684 80.3955 66.5522C80.8799 66.636 81.3784 66.1114 81.509 65.3804Z" fill="#000091"/>
<path fill-rule="evenodd" clip-rule="evenodd" d="M90.7443 66.9302C90.8749 66.1993 90.5882 65.5387 90.1038 65.4549C89.6195 65.3711 89.121 65.8957 88.9904 66.6267C88.8598 67.3576 89.1465 68.0182 89.6309 68.102C90.1152 68.1858 90.6137 67.6612 90.7443 66.9302Z" fill="#000091"/>
<path fill-rule="evenodd" clip-rule="evenodd" d="M72.9547 62.2026C72.2055 66.4532 74.2737 70.4008 77.6764 70.9698C81.079 71.5388 84.3806 68.489 85.1297 64.2385C85.8789 59.988 83.8107 56.0403 80.4081 55.4713C77.0054 54.9023 73.7039 57.9521 72.9547 62.2026ZM74.1223 62.3977C74.7694 58.7261 77.528 56.1778 80.2046 56.6254C82.8813 57.073 84.6094 60.3716 83.9623 64.0432C83.3152 67.7148 80.5566 70.2631 77.8799 69.8154C75.2032 69.3678 73.4751 66.0693 74.1223 62.3977Z" fill="#FF8D7E"/>
<path fill-rule="evenodd" clip-rule="evenodd" d="M87.5211 65.1841C86.7719 69.4346 88.8401 73.3823 92.2428 73.9513C95.6454 74.5202 98.947 71.4705 99.6961 67.22C100.445 62.9694 98.3771 59.0217 94.9745 58.4528C91.5718 57.8838 88.2703 60.9335 87.5211 65.1841ZM88.6887 65.3793C89.3358 61.7077 92.0944 59.1594 94.7711 59.607C97.4478 60.0546 99.1759 63.3532 98.5287 67.0248C97.8816 70.6963 95.123 73.2446 92.4464 72.797C89.7697 72.3494 88.0416 69.0509 88.6887 65.3793Z" fill="#FF8D7E"/>
<path fill-rule="evenodd" clip-rule="evenodd" d="M84.0124 63.6465C84.0551 63.3382 84.3348 63.1191 84.646 63.1429L84.6807 63.1465L88.1632 63.614C88.4881 63.6576 88.7155 63.9521 88.6712 64.2718C88.6285 64.5801 88.3487 64.7993 88.0375 64.7755L88.0028 64.7718L84.5203 64.3044C84.1955 64.2608 83.9681 63.9662 84.0124 63.6465Z" fill="#FF8D7E"/>
<path fill-rule="evenodd" clip-rule="evenodd" d="M66.2192 60.2004L73.7976 60.4536C74.1253 60.4645 74.3819 60.7348 74.3708 61.0573C74.3601 61.3683 74.1043 61.6143 73.7923 61.6216L73.7574 61.6214L66.1789 61.3683C65.8513 61.3573 65.5947 61.087 65.6058 60.7645C65.6165 60.4535 65.8723 60.2076 66.1843 60.2002L66.2192 60.2004Z" fill="#FF8D7E"/>
<path fill-rule="evenodd" clip-rule="evenodd" d="M42.5724 104.215L52.8221 100.827L47.1234 89.667L35.6865 95.5292L42.5724 104.215Z" fill="white"/>
<path fill-rule="evenodd" clip-rule="evenodd" d="M48.0332 90.7188C48.0332 90.7188 51.5553 95.6851 52.6634 97.2626C54.4442 99.814 53.9495 102.735 50.9815 101.586" fill="white"/>
<path fill-rule="evenodd" clip-rule="evenodd" d="M47.6933 90.2395C47.9518 90.0619 48.3039 90.115 48.4974 90.3545L48.5284 90.3962L53.1525 96.9316C54.1125 98.307 54.5096 99.8551 54.1724 100.978C53.7681 102.323 52.4512 102.783 50.7641 102.13C50.459 102.012 50.309 101.673 50.429 101.372C50.549 101.072 50.8936 100.924 51.1987 101.042C52.2882 101.464 52.8468 101.269 53.0339 100.646C53.2517 99.9212 52.9618 98.756 52.2259 97.6688L50.0259 94.5525L47.5464 91.053C47.3587 90.7884 47.4245 90.4242 47.6933 90.2395Z" fill="#000091"/>
<path fill-rule="evenodd" clip-rule="evenodd" d="M45.4023 94.3413C45.4023 94.3413 51.7342 101.586 52.1893 103.67C52.6444 105.754 50.0127 107.04 47.8361 103.787" fill="white"/>
<path fill-rule="evenodd" clip-rule="evenodd" d="M45.0151 93.8982C45.2636 93.6877 45.6384 93.7155 45.8522 93.9601L46.148 94.3019L46.3079 94.4883C46.499 94.7115 46.7053 94.9542 46.9236 95.2134C47.726 96.1657 48.5284 97.1455 49.2781 98.0993C49.4453 98.3121 49.6083 98.5215 49.7666 98.7272L49.9234 98.9317C51.5692 101.086 52.5738 102.651 52.7695 103.547C53.0585 104.871 52.351 106.055 51.1181 106.302C49.8569 106.555 48.4544 105.773 47.3403 104.108C47.1599 103.839 47.2357 103.476 47.5095 103.299C47.7833 103.121 48.1514 103.196 48.3317 103.466C49.2035 104.768 50.1603 105.302 50.8808 105.157C51.4405 105.045 51.764 104.503 51.6088 103.793C51.4652 103.135 50.4966 101.627 48.9745 99.6339C48.7709 99.3674 48.5588 99.0939 48.3391 98.8143C47.5984 97.8721 46.8042 96.9022 46.0098 95.9594L45.5659 95.4354L45.1062 94.8997L44.9522 94.7221C44.7384 94.4775 44.7666 94.1086 45.0151 93.8982Z" fill="#000091"/>
<path fill-rule="evenodd" clip-rule="evenodd" d="M42.8891 96.2695C42.8891 96.2695 48.9043 103.261 48.1722 105.618C47.3807 108.267 43.5618 102.911 42.1768 101.372" fill="white"/>
<path fill-rule="evenodd" clip-rule="evenodd" d="M42.5053 95.8235C42.7459 95.623 43.1015 95.6435 43.3168 95.8643L43.3499 95.9011L43.5392 96.1251L43.794 96.4323C43.919 96.5844 44.0514 96.7473 44.1899 96.9199C44.8232 97.709 45.4565 98.5407 46.0486 99.3777C46.4489 99.9435 46.8167 100.493 47.1453 101.021C48.4553 103.123 49.0728 104.716 48.7416 105.783C48.4324 106.817 47.6287 107.164 46.6951 106.763C46.0806 106.499 45.3868 105.923 44.5621 105.057C44.2725 104.753 43.97 104.416 43.643 104.036L43.3562 103.697C42.8269 103.066 41.9163 101.964 41.7323 101.76C41.5149 101.518 41.5376 101.149 41.783 100.935C42.0283 100.721 42.4035 100.743 42.6209 100.985L42.7038 101.079C43.0816 101.518 44.2239 102.904 44.5485 103.281C44.8286 103.606 45.0887 103.897 45.3361 104.16L45.4282 104.258C46.1493 105.015 46.7447 105.509 47.1699 105.692L47.2247 105.715C47.4659 105.813 47.506 105.776 47.6044 105.447C47.7969 104.827 47.2577 103.436 46.1332 101.631C45.8174 101.125 45.4621 100.594 45.0743 100.045C44.4971 99.2295 43.8777 98.4161 43.2583 97.6442L43.0212 97.3509C42.9191 97.2254 42.8213 97.1065 42.7285 96.9948L42.4359 96.6469C42.2241 96.4007 42.2552 96.032 42.5053 95.8235Z" fill="#000091"/>
<path fill-rule="evenodd" clip-rule="evenodd" d="M48.0336 90.7188L51.2787 92.2574C51.3579 92.2964 51.4568 92.3353 51.5557 92.3743C53.574 93.017 54.3259 92.3548 54.6029 91.5563C54.8799 90.7383 54.6029 89.8424 53.95 89.2582C50.1509 85.7914 40.5344 84.7787 40.5344 84.7787C38.1995 84.506 32.0655 87.0379 33.1736 92.1211C34.2817 97.2043 37.9225 103.67 41.3456 105.559C44.749 107.429 45.5801 105.228 42.1965 101.392C42.1569 101.333 39.6835 98.295 39.6835 98.295" fill="white"/>
<path fill-rule="evenodd" clip-rule="evenodd" d="M35.2085 85.9725C36.8601 84.7641 39.0787 84.0548 40.5208 84.1897L40.7729 84.2177L40.9986 84.2454C41.0791 84.2556 41.1649 84.2667 41.2557 84.2789L41.5732 84.3226C42.0055 84.3837 42.4734 84.4564 42.9694 84.5415C44.7424 84.8457 46.5161 85.2439 48.1761 85.7486C50.8536 86.5626 52.9775 87.5742 54.3491 88.8258C55.183 89.572 55.5147 90.7111 55.1645 91.7451C54.7067 93.0647 53.4531 93.5683 51.4543 92.9556L51.3728 92.9302L51.3351 92.9168L51.1876 92.8579C51.1276 92.8334 51.0847 92.8146 51.0422 92.7942L47.7758 91.2452C47.4805 91.1052 47.3564 90.756 47.4987 90.4653C47.6357 90.1853 47.9697 90.0617 48.258 90.178L48.2911 90.1924L51.5702 91.7473C51.5887 91.7558 51.6102 91.7651 51.6377 91.7764L51.756 91.8239L51.811 91.8412C53.2029 92.2709 53.7868 92.0505 54.0274 91.4053L54.0396 91.3715C54.2361 90.7912 54.0443 90.1324 53.5462 89.6866C52.3279 88.5749 50.3482 87.6319 47.8257 86.8651C46.219 86.3766 44.4926 85.989 42.7656 85.6927C42.2212 85.5994 41.712 85.5213 41.2487 85.4575L41.096 85.4368C40.9496 85.4172 40.8171 85.4004 40.6996 85.3861L40.4642 85.3589C39.3422 85.2279 37.3687 85.848 35.9168 86.9103C34.1404 88.2102 33.3062 89.9453 33.7538 91.9985C34.8866 97.1949 38.5316 103.337 41.6348 105.049C42.9789 105.788 43.6583 105.783 43.7415 105.468C43.9026 104.858 43.2247 103.449 41.748 101.775L41.7242 101.746L41.6833 101.692L40.052 99.6828L39.2201 98.6603C39.0151 98.4085 39.0563 98.0408 39.3122 97.839C39.5582 97.645 39.913 97.675 40.1222 97.9015L40.2546 98.0623L42.5576 100.898L42.6512 101.016L42.7207 101.095C44.3572 102.974 45.1524 104.628 44.9028 105.713L44.8905 105.762C44.713 106.435 44.1494 106.816 43.394 106.821C42.7534 106.825 41.9628 106.568 41.0551 106.069C37.6054 104.165 33.7906 97.7374 32.593 92.2437C32.039 89.702 33.0849 87.5264 35.2085 85.9725Z" fill="#000091"/>
<path fill-rule="evenodd" clip-rule="evenodd" d="M221.229 97.0875L210.802 94.3608L215.768 82.8506L227.542 88.0117L221.229 97.0875Z" fill="white"/>
<path fill-rule="evenodd" clip-rule="evenodd" d="M214.917 83.9604C214.917 83.9604 211.712 89.141 210.722 90.777C209.1 93.4257 209.792 96.3276 212.681 94.9838" fill="white"/>
<path fill-rule="evenodd" clip-rule="evenodd" d="M215.226 83.4618C215.496 83.6234 215.588 83.9628 215.442 84.2338L215.232 84.576L213.515 87.3555L211.465 90.6938L211.231 91.0791C210.527 92.2285 210.296 93.4482 210.567 94.1766C210.796 94.7891 211.368 94.9489 212.428 94.4559C212.724 94.318 213.078 94.4428 213.218 94.7345C213.358 95.0263 213.231 95.3746 212.935 95.5124C211.293 96.2761 209.945 95.8998 209.453 94.5794C209.049 93.4979 209.328 91.9636 210.163 90.5609L210.768 89.5664L212.169 87.2874L214.41 83.6569C214.581 83.3813 214.946 83.294 215.226 83.4618Z" fill="#000091"/>
<path fill-rule="evenodd" clip-rule="evenodd" d="M217.786 87.4082C217.786 87.4082 211.929 95.0428 211.612 97.1461C211.296 99.2495 213.987 100.379 215.966 96.9903" fill="white"/>
<path fill-rule="evenodd" clip-rule="evenodd" d="M218.144 86.9418C218.406 87.1362 218.458 87.5026 218.26 87.7601L217.997 88.1066L217.703 88.4982C217.6 88.6353 217.494 88.7786 217.383 88.9277L217.3 89.0405C216.578 90.0166 215.857 91.0211 215.184 91.9976C215.022 92.234 214.863 92.4663 214.71 92.6939L214.596 92.8637C213.185 94.9749 212.301 96.5623 212.2 97.2316C212.092 97.9503 212.449 98.4713 213.011 98.5491C213.737 98.6494 214.658 98.0573 215.451 96.699C215.615 96.4193 215.978 96.3228 216.262 96.4836C216.546 96.6444 216.644 97.0015 216.481 97.2813C215.468 99.015 214.119 99.8822 212.846 99.7063C211.603 99.5344 210.825 98.3967 211.026 97.0604C211.163 96.1479 212.078 94.5036 213.605 92.2213C213.796 91.9351 213.995 91.6417 214.202 91.3419C214.797 90.4771 215.43 89.5921 216.067 88.724L216.34 88.3531C216.481 88.1614 216.617 87.9785 216.747 87.8054L217.129 87.2968L217.313 87.056C217.51 86.7984 217.883 86.7473 218.144 86.9418Z" fill="#000091"/>
<path fill-rule="evenodd" clip-rule="evenodd" d="M220.418 89.1997C220.418 89.1997 214.878 96.5421 215.728 98.8597C216.698 101.45 220.161 95.8799 221.427 94.244" fill="white"/>
<path fill-rule="evenodd" clip-rule="evenodd" d="M220.771 88.7305C221.025 88.9155 221.085 89.261 220.916 89.5176L220.88 89.5671L220.694 89.8185L220.505 90.0788C220.396 90.2302 220.28 90.3925 220.159 90.5647C219.605 91.352 219.051 92.1819 218.535 93.015C218.185 93.5807 217.864 94.1286 217.579 94.6516L217.478 94.839C216.503 96.6672 216.064 98.0564 216.285 98.6576L216.31 98.7236C216.415 98.9894 216.465 98.9957 216.693 98.8922C217.073 98.7191 217.602 98.242 218.231 97.5113C218.499 97.1994 218.781 96.8468 219.086 96.4462L219.228 96.2589C219.651 95.6911 220.767 94.1326 220.955 93.8897C221.153 93.633 221.526 93.5835 221.786 93.7791C222.047 93.9746 222.098 94.3412 221.899 94.5979L221.776 94.7633C221.42 95.2475 220.512 96.5136 220.155 96.9898L220.132 97.0211C219.777 97.4909 219.45 97.9021 219.137 98.2664L218.992 98.4331C218.32 99.1933 217.733 99.7063 217.191 99.9529C216.316 100.351 215.534 100.031 215.17 99.0581C214.778 97.9912 215.32 96.3275 216.533 94.0997C216.828 93.5564 217.16 92.9899 217.522 92.4066C217.992 91.6474 218.491 90.8928 218.994 90.1693L219.183 89.8995C219.332 89.6883 219.472 89.4913 219.603 89.3107L219.857 88.9634L219.941 88.8512C220.136 88.5921 220.508 88.5381 220.771 88.7305Z" fill="#000091"/>
<path fill-rule="evenodd" clip-rule="evenodd" d="M214.917 83.9605L211.791 85.6938C211.712 85.7328 211.613 85.7912 211.534 85.8302C209.575 86.6092 208.763 85.986 208.447 85.2069C208.11 84.4084 208.348 83.4931 208.942 82.8698C212.523 79.1694 222.041 77.5724 222.041 77.5724C224.356 77.1634 230.648 79.3057 229.856 84.4474C229.065 89.589 225.859 96.2692 222.555 98.3532C219.27 100.418 218.301 98.2753 221.447 94.2437C221.486 94.1853 223.762 90.9913 223.762 90.9913" fill="white"/>
<path fill-rule="evenodd" clip-rule="evenodd" d="M227.436 78.4384C229.657 79.8579 230.839 81.9638 230.443 84.5349C229.584 90.1133 226.197 96.7502 222.874 98.8456C221.999 99.3956 221.225 99.6988 220.585 99.7324C219.83 99.7721 219.244 99.4259 219.025 98.7661C218.676 97.7178 219.341 96.0338 220.835 94.0699L220.966 93.8997L223.276 90.6559C223.464 90.3917 223.834 90.3277 224.102 90.5129C224.361 90.6911 224.431 91.0348 224.268 91.2959L223.886 91.8346L221.94 94.5679L221.917 94.5997C220.544 96.3589 219.954 97.8046 220.153 98.4028C220.256 98.7123 220.937 98.6765 222.234 97.8612C225.22 95.9781 228.457 89.6372 229.269 84.3599C229.589 82.2839 228.647 80.6056 226.79 79.4185C225.301 78.4668 223.335 77.9691 222.203 78.1381L221.985 78.1757L221.776 78.2145C221.701 78.2287 221.621 78.2442 221.536 78.2608L221.237 78.3207C220.83 78.4038 220.389 78.5001 219.922 78.6099C218.252 79.0018 216.582 79.4828 215.028 80.0552C212.502 80.9857 210.54 82.0653 209.374 83.2695C208.914 83.7528 208.762 84.4295 208.998 84.99C209.263 85.6428 209.87 85.8464 211.239 85.3165L211.287 85.2977L211.471 85.1989L211.512 85.1778L214.626 83.4515C214.901 83.299 215.246 83.3856 215.415 83.6433L215.434 83.6738C215.589 83.9445 215.501 84.2849 215.239 84.4512L215.208 84.4696L212.082 86.2029L211.993 86.2495L211.853 86.3252C211.834 86.3351 211.817 86.3436 211.799 86.3528C211.785 86.3597 211.77 86.3661 211.756 86.3719C209.765 87.1635 208.429 86.7361 207.898 85.4308C207.479 84.436 207.74 83.2766 208.511 82.4669C209.83 81.1046 211.933 79.9478 214.612 78.9608C216.217 78.3696 217.932 77.8755 219.646 77.4732C220.246 77.3325 220.803 77.2132 221.304 77.1149L221.628 77.0526L221.935 76.9973C223.37 76.7439 225.681 77.3163 227.436 78.4384Z" fill="#000091"/>
</g>
<defs>
<clipPath id="clip0_460_3761">
<rect width="287.25" height="158.625" fill="white"/>
</clipPath>
</defs>
</svg>
