<svg xmlns="http://www.w3.org/2000/svg" width="288" height="159" fill="none" viewBox="0 0 288 159"><g clip-path="url(#a)"><path fill="#f6f6f6" d="M3 0h282v158.625H3z"/><path fill="#ff8d7e" fill-rule="evenodd" d="M219.152 73.308c-1.82 0-3.561.35-5.164.974l-26 9.212-25.605-4.947h-12.584c.04-7.206-2.691-18.23-32.866-12.737-15.454 2.707-16.72 9.426-13.416 15.892l-64.96-4.46c-.95-.195-3.84-.273-3.84-.273-7.617.468-13.672 6.914-13.672 14.822 0 7.459 5.402 13.633 12.426 14.684l-.237 5.493 54.117 1.226-3.067 45.282 93.276-.935-9.577-52.448 48.874-2.24-.218-2.104c.812.137 1.643.215 2.494.215 7.756 0 14.048-6.194 14.048-13.828.04-7.635-6.252-13.828-14.029-13.828" clip-rule="evenodd"/><path fill="#fff" fill-rule="evenodd" d="m116.735 79.754-4.175 1.675s13.475 6.875 14.306 34.531c1.563 17.781 1.127 42.029 1.127 42.029l9.221-.098s-2.434-51.475 1.623-60.395c4.056-8.92 2.058-13.01.039-14.88-2.038-1.869-22.141-2.862-22.141-2.862" clip-rule="evenodd"/><path fill="#fff" fill-rule="evenodd" d="M116.358 68.672v9.855a5.28 5.28 0 0 0 1.919 4.207c2.375 1.967 7.539 5.531 13 11.666 0 0 8.529-6.174 7.638-15.795z" clip-rule="evenodd"/><path fill="#000091" fill-rule="evenodd" d="M115.764 68.672v9.855a5.85 5.85 0 0 0 2.058 4.592l.089.075c.339.275 3.904 3.064 5.324 4.255 2.71 2.272 5.191 4.635 7.596 7.336a.6.6 0 0 0 .798.086l.086-.064q.09-.067.229-.18l.04-.032q.411-.33.901-.776a23.4 23.4 0 0 0 2.717-2.955c2.796-3.625 4.325-7.763 3.904-12.312a.58.58 0 0 0-.348-.48L116.6 68.139a.593.593 0 0 0-.836.533m1.188.902 21.399 9.423.007.087c.26 4.06-1.159 7.778-3.702 11.073a22 22 0 0 1-2.579 2.806l-.101.092q-.302.273-.57.494l-.058.048-.114-.127a73 73 0 0 0-6.955-6.68l-.412-.346c-1.549-1.287-5.022-4.004-5.207-4.157a4.7 4.7 0 0 1-1.708-3.746zM149.857 77.865v.662c0 1.344-.118 2.552-.158 3.506-.297 6.622-3.542 10.147-4.828 12.776 7.856-1.422 15.988-9.796 17.591-16.282-1.623-1.46-9.735-2.2-12.605-.662M116.022 96.27c-2.315-1.052-10.091-7.557-13.04-15.873-2.552-1.364-9.042-.643-11.1.525 8.073 16.438 24.14 15.367 24.14 15.347M119.138 94.48a.79.79 0 0 1 .957.572l.124.504.239.995.145.615.075.324c.436 1.877.873 3.855 1.28 5.845.253 1.236.487 2.438.698 3.595l.062.345c.642 3.57 1.031 6.527 1.1 8.679a.785.785 0 0 1-.766.804.787.787 0 0 1-.816-.754l-.008-.224c-.084-2.008-.448-4.753-1.035-8.046l-.033-.187c-.225-1.25-.478-2.556-.754-3.904a222 222 0 0 0-1.171-5.374l-.175-.753-.179-.757-.235-.98-.088-.356a.78.78 0 0 1 .58-.942M142.564 93.93a.78.78 0 0 1 .608.925l-.106.499-.121.59-.131.657-.028.14a158 158 0 0 0-.851 4.702 119 119 0 0 0-.802 5.636l-.042.368c-.395 3.531-.504 6.419-.262 8.421a.78.78 0 0 1-.692.866.79.79 0 0 1-.88-.682c-.268-2.219-.139-5.34.303-9.15.211-1.814.487-3.734.813-5.709.273-1.657.566-3.26.859-4.749l.109-.548.127-.625.156-.742a.79.79 0 0 1 .94-.599" clip-rule="evenodd"/><path fill="#fff" fill-rule="evenodd" d="M114.855 61.72s-5.6.116-4.611 5.043c1.009 4.947 7.203 2.084 7.203 2.084l-.831-7.03z" clip-rule="evenodd"/><path fill="#000091" fill-rule="evenodd" d="m114.888 61.136-.025-.001h-.031l-.068.003q-.111.005-.273.02-.327.03-.699.099a7 7 0 0 0-1.97.66c-1.767.932-2.638 2.58-2.16 4.96.467 2.288 1.986 3.35 4.106 3.378.884.012 1.814-.155 2.738-.438q.398-.123.743-.255l.201-.08q.17-.069.249-.106a.58.58 0 0 0 .337-.596l-.831-7.031a.59.59 0 0 0-.556-.516zm-.041 1.168 1.237.068.721 6.106-.09.034q-.264.097-.562.19c-.815.25-1.627.395-2.369.385-1.594-.022-2.609-.731-2.958-2.439-.372-1.855.234-3.003 1.556-3.7a5.8 5.8 0 0 1 1.63-.543c.34-.063.624-.092.815-.1z" clip-rule="evenodd"/><path fill="#fff" fill-rule="evenodd" d="M130.823 46.158c1.484-.117 11.595-.74 12.703 7.576 1.108 8.317-.079 17.49-1.029 21.677s-20.321 2.26-21.409 1.87c-1.089-.39-2.395-1.636-2.395-1.636l-2.651-12.776c-.02.02-1.088-15.406 14.781-16.71" clip-rule="evenodd"/><path fill="#000091" fill-rule="evenodd" d="M130.775 45.576c-7.172.59-11.623 3.992-13.848 9.208-.776 1.817-1.22 3.727-1.406 5.609a18 18 0 0 0-.094 1.817c0 .167.003.32.008.45l.006.143.006.084.005.05.005.036 2.655 12.789a.6.6 0 0 0 .168.302l.063.059q.098.092.263.234c.248.215.516.43.793.633.319.233.631.433.932.592q.286.151.554.248c.89.318 6.627.81 10.958.816h.394c6.373-.024 10.333-.876 10.839-3.108 1.351-5.954 1.985-14.778 1.039-21.88-.523-3.924-2.95-6.313-6.624-7.432-1.323-.404-2.739-.618-4.185-.686a20 20 0 0 0-2.531.036m2.475 1.13c1.352.064 2.671.265 3.89.636 3.262.994 5.341 3.04 5.797 6.468.927 6.955.303 15.645-1.019 21.474-.321 1.413-4.181 2.202-10.073 2.194l-.381-.002c-4.146-.033-9.479-.496-10.174-.744a3 3 0 0 1-.397-.18c-.245-.129-.511-.3-.788-.501-.248-.181-.49-.376-.715-.572l-.091-.079-.062-.055-2.608-12.567-.006-.105-.004-.117q-.005-.154-.005-.346c0-.506.027-1.081.088-1.704.176-1.773.594-3.57 1.319-5.27 2.06-4.827 6.137-7.943 12.851-8.495a19 19 0 0 1 2.378-.034" clip-rule="evenodd"/><path fill="#968bb4" fill-rule="evenodd" d="M117.922 62.771c.949.915 3.482 6.193 4.115 8.667 0 0 6.293-2.065 15.315-2.201 0 0 4.908.097 6.886.662 0 0-.415 8.725-4.412 13.244-3.977 4.518-12.407 3.252-16.364.545s-4.61-4.012-5.521-6.914-3.324-13.73-3.324-13.73z" clip-rule="evenodd"/><path fill="#000091" fill-rule="evenodd" d="M115.33 64.64s-2.632-4.011-3.641-8.18c-.95-3.914.89-8.023 4.59-9.796 3.087-1.48 5.382-.311 5.382-.311s-3.284-5.492 1.643-10.342a8.96 8.96 0 0 1 6.569-2.57c5.995.175 7.855 5.16 7.855 5.16s6.431-11.627 19.59-4.732c1.325.7 2.829 2.629 3.541 3.934 4.354 7.888-9.992 17.236-17.452 17.976-8.192.818-13-.526-15.631-2.493 1.958 1.13-.238 13.205-12.446 11.355M131.152 74.505a.79.79 0 0 1 .9.607l.012.064a2.343 2.343 0 0 0 .273.682c.283.463.659.676 1.279.586l.059-.01a.79.79 0 0 1 .915.635.78.78 0 0 1-.643.9c-1.351.233-2.359-.313-2.967-1.31a3.8 3.8 0 0 1-.483-1.26.78.78 0 0 1 .655-.894M137.202 65.113a.79.79 0 0 1 .872.646l.005.039.89 7.595c.063.53-.422.96-.946.853l-.036-.009-2.711-.681a.78.78 0 0 1-.571-.948.793.793 0 0 1 .924-.57l.039.008 1.597.402-.759-6.472a.78.78 0 0 1 .657-.858zM140.063 66.686c.437 0 .791-.541.791-1.208s-.354-1.207-.791-1.207-.792.54-.792 1.207.355 1.208.792 1.208M132.445 66.55c.437 0 .791-.541.791-1.208s-.354-1.208-.791-1.208-.792.54-.792 1.208.355 1.207.792 1.207" clip-rule="evenodd"/><path fill="#000091" fill-rule="evenodd" d="M129.35 59.004c.9-.648 2.008-.97 3.291-.782a.78.78 0 0 1 .666.886.79.79 0 0 1-.899.655c-.843-.123-1.541.08-2.123.499a3 3 0 0 0-.497.454l-.037.045a.8.8 0 0 1-1.101.196.77.77 0 0 1-.199-1.084c.05-.07.132-.173.247-.297.183-.196.4-.39.652-.572M139.905 58.044a3.9 3.9 0 0 1 1.528.045c.895.216 1.582.79 1.88 1.746a.777.777 0 0 1-.524.973.794.794 0 0 1-.989-.515c-.125-.4-.363-.6-.744-.691a2.4 2.4 0 0 0-.989-.005l-.061.013a.79.79 0 0 1-.965-.557.777.777 0 0 1 .565-.95l.056-.014q.094-.022.243-.045" clip-rule="evenodd"/><path fill="#fff" fill-rule="evenodd" d="m250.356 96.932 3.839-4.733s1.365-6.466 2.315-8.725c.95-2.26 4.413-4.07 3.324-.799-1.108 3.272-.712 4.636-.712 4.636s4.947-5.181 7.024-9.096c2.118-4.012 3.503-.058 3.503-.058s2.73-1.11 2.533.72c0 0 2.592-.038 1.325 2.182 0 0 2.929-1.305 2.315 1.227.238 2.96-5.085 11.939-10.17 14.432l-2.018 2.765-2.434 3.662" clip-rule="evenodd"/><path fill="#000091" fill-rule="evenodd" d="M267.992 75.833c.713-.009 1.271.439 1.724 1.14q.141.22.255.448l.005.01.007-.002q.393-.112.771-.162l.108-.011c.967-.095 1.714.237 1.886 1.046l.009.042.063.012q.147.027.29.068l.095.03c.827.27 1.298.847 1.24 1.657l-.007.068.105-.015.106-.011c1.294-.125 2.097.618 1.779 2.142l-.008.038.001.025c.062 1.636-1.181 4.576-3.119 7.53l-.072.108c-2.137 3.23-4.703 5.885-7.105 7.14l-.075.038-1.927 2.64-2.427 3.651a.6.6 0 0 1-.791.187l-.03-.018a.58.58 0 0 1-.191-.779l.019-.03 2.434-3.662.014-.02 2.019-2.766a.6.6 0 0 1 .217-.182c2.238-1.097 4.754-3.672 6.849-6.837l.132-.202c1.816-2.792 2.964-5.558 2.862-6.824a.6.6 0 0 1 .015-.181l.022-.095c.158-.697.035-.792-.502-.74a3 3 0 0 0-.62.132 5 5 0 0 0-.292.102l-.101.041c-.522.233-1.043-.326-.763-.818l.055-.097c.393-.724.276-.954-.212-1.113a2.2 2.2 0 0 0-.585-.1h-.057a.588.588 0 0 1-.599-.647c.041-.379-.074-.45-.612-.398-.205.02-.433.068-.667.134q-.13.037-.247.076l-.076.027-.089.033-.025.01a.597.597 0 0 1-.775-.318l-.032-.085a3.86 3.86 0 0 0-.354-.694c-.255-.395-.512-.602-.707-.6-.311.004-.776.426-1.335 1.485-.4.754-.916 1.579-1.533 2.464a46 46 0 0 1-1.585 2.128 71 71 0 0 1-3.369 3.955l-.34.369-.29.31a.598.598 0 0 1-1.004-.24 2 2 0 0 1-.051-.264c-.141-1.007.04-2.558.77-4.714.116-.348.173-.628.18-.833a1 1 0 0 0-.008-.162l-.005-.023h-.019a1 1 0 0 0-.225.054l-.041.015c-.756.29-1.706 1.23-2.093 2.153-.19.45-.411 1.116-.656 1.957l-.032.111a63 63 0 0 0-.493 1.83c-.264 1.032-.527 2.14-.777 3.247l-.095.424-.116.524-.114.527a.6.6 0 0 1-.09.21l-.027.036-3.839 4.733a.6.6 0 0 1-.834.092.58.58 0 0 1-.116-.792l.022-.03 3.751-4.623.143-.657.156-.698c.252-1.117.518-2.235.785-3.279l.094-.364q.21-.808.408-1.498l.066-.23c.243-.826.465-1.489.667-1.967.509-1.212 1.696-2.386 2.758-2.794.669-.258 1.297-.205 1.669.304.341.466.32 1.162.008 2.1-.393 1.162-.612 2.112-.703 2.866l-.013.106.233-.26a69 69 0 0 0 2.702-3.211 44 44 0 0 0 1.544-2.073 24 24 0 0 0 1.392-2.217l.068-.126c.738-1.4 1.513-2.102 2.372-2.113" clip-rule="evenodd"/><path fill="#fff" fill-rule="evenodd" d="M263.613 86.318s5.165-4.986 6.016-8.141z" clip-rule="evenodd"/><path fill="#000091" fill-rule="evenodd" d="M269.055 78.027a.594.594 0 0 1 .726-.415.583.583 0 0 1 .421.715c-.233.864-.754 1.863-1.516 2.981a28 28 0 0 1-1.545 2.04 45 45 0 0 1-2.137 2.397l-.279.29-.261.267-.208.209-.227.224a.6.6 0 0 1-.84-.008.58.58 0 0 1-.019-.799l.283-.28.16-.16q.246-.25.526-.543a44 44 0 0 0 2.08-2.334 27 27 0 0 0 1.481-1.954c.695-1.02 1.161-1.914 1.355-2.63" clip-rule="evenodd"/><path fill="#fff" fill-rule="evenodd" d="M265.632 87.895c.475-.662 4.788-4.343 6.114-9.037z" clip-rule="evenodd"/><path fill="#000091" fill-rule="evenodd" d="M266.094 88.262a.6.6 0 0 1-.805.11.58.58 0 0 1-.142-.814l.031-.042c.062-.08.145-.174.273-.31l.741-.767.166-.173a29 29 0 0 0 2.029-2.348c1.326-1.723 2.291-3.461 2.787-5.216a.595.595 0 0 1 .731-.407.583.583 0 0 1 .413.72c-.526 1.863-1.52 3.676-2.871 5.46l-.113.149c-1.024 1.33-3.218 3.642-3.22 3.613l.002-.004z" clip-rule="evenodd"/><path fill="#fff" fill-rule="evenodd" d="M267.689 89.57c1.029-1.363 4.136-2.96 5.917-8.336z" clip-rule="evenodd"/><path fill="#000091" fill-rule="evenodd" d="m268.712 87.727.12-.112c.732-.685 1.272-1.258 1.818-1.963.983-1.27 1.782-2.758 2.391-4.598a.596.596 0 0 1 .749-.375c.311.1.482.43.38.737-.651 1.966-1.512 3.57-2.575 4.944-.589.761-1.169 1.376-1.942 2.1l-1.111 1.034c-.265.252-.245.252-.376.425a.6.6 0 0 1-.831.12.58.58 0 0 1-.122-.817c.141-.187.312-.376.538-.598l.146-.142zM147.616 157.891l15.816-59.518c1.781-4.48 4.373-9.076 9.122-10.225 11.061-2.688 28.631-4.966 41.79-5.375 3.601-.117 7.044 1.46 9.26 4.245l16.72 19.379 11.872-14.568 14.188 8.92-20.361 27.519c-3.819 3.818-9.993 4.09-14.128.624l-8.311-7.713 3.028 36.712h-78.996" clip-rule="evenodd"/><path fill="#fff" fill-rule="evenodd" d="m202.215 84.273-4.492-11.316-13.693 8.589 1.227 8.452c5.105 14.14 17.947-3.233 16.958-5.726" clip-rule="evenodd"/><path fill="#000091" fill-rule="evenodd" d="m197.404 72.464-13.693 8.59a.58.58 0 0 0-.268.575l1.226 8.452a.6.6 0 0 0 .029.113c1.263 3.5 3.099 5.414 5.401 5.801 1.966.331 4.12-.482 6.289-2.163 3.642-2.823 7.056-8.067 6.379-9.772l-4.491-11.316a.598.598 0 0 0-.872-.28m-12.732 9.372 12.761-8.004 4.229 10.653c.051.13-.014.546-.237 1.12-.253.651-.677 1.446-1.225 2.287-1.215 1.867-2.863 3.717-4.546 5.022-1.931 1.497-3.781 2.195-5.354 1.93l-.065-.012c-1.747-.324-3.226-1.851-4.337-4.807l-.062-.168zM175.66 52.975s12.328 6.018 7.401 13.321c0 0-2.217 3.078-4.334 2.727 0 0 1.267-2.551-.613-3.603 0 0 .198 7.226-5.916 6.369 0 0 1.86-3.39.89-7.148-2.058-7.83-.673-12.776 2.572-11.666" clip-rule="evenodd"/><path fill="#fff" fill-rule="evenodd" d="M200.849 61.934s.792-14.237-13.85-15.23c-1.366-.098-10.705-.546-11.615 7.128-.614 5.122-.277 10.595.296 14.82 0 .02.95 7.986 4.591 12.095s10.705 3 14.227.448 4.096-3.758 4.887-6.446c.792-2.688 1.464-12.796 1.464-12.796z" clip-rule="evenodd"/><path fill="#000091" fill-rule="evenodd" d="M174.763 54.026c-.507 4.476-.352 9.538.29 14.417l.035.26.005.07c.055.619.437 2.689.92 4.458l.024.089c.887 3.21 2.122 5.933 3.786 7.811 1.823 2.057 4.543 3.018 7.624 2.922 2.701-.084 5.484-.997 7.402-2.387l.305-.223c3.077-2.265 3.901-3.475 4.801-6.532.313-1.064.619-3.218.92-6.177.137-1.353.265-2.793.38-4.24l.059-.758q.028-.357.052-.686l.075-1.059.005-.14c.021-.715-.024-1.68-.188-2.806-.25-1.714-.728-3.412-1.491-5.003-2.189-4.568-6.301-7.486-12.728-7.922a18 18 0 0 0-2.34-.006c-1.335.079-2.642.295-3.862.684-3.39 1.08-5.612 3.325-6.044 6.966zm12.192-6.74c5.988.406 9.728 3.06 11.738 7.255.709 1.477 1.156 3.064 1.39 4.67.142.975.188 1.816.18 2.453l-.004.178-.004.09-.061.871-.05.67-.041.536c-.113 1.44-.238 2.881-.373 4.24l-.037.369c-.287 2.836-.583 4.93-.865 5.921l-.013.047c-.856 2.907-1.55 3.879-4.669 6.139-1.722 1.247-4.271 2.083-6.736 2.16-2.75.086-5.125-.753-6.692-2.522-1.523-1.718-2.692-4.295-3.535-7.35l-.065-.239c-.463-1.735-.822-3.727-.843-4.092l-.001-.03a1 1 0 0 0-.006-.077c-.662-4.88-.83-9.96-.325-14.419l.03-.257c.373-3.143 2.25-5.04 5.23-5.99 1.115-.355 2.326-.555 3.568-.629.843-.05 1.573-.037 2.184.006" clip-rule="evenodd"/><path fill="#000091" fill-rule="evenodd" d="M180.689 64.913a.59.59 0 0 1 .65-.523c.314.031.547.299.534.605l-.003.035-.626 6.168 1.662-.441a.596.596 0 0 1 .718.379l.01.032c.082.3-.089.61-.385.707l-.034.01-2.493.662a.592.592 0 0 1-.748-.589l.003-.033zM179.93 63.722c.012-.613-.306-1.117-.71-1.124s-.742.482-.754 1.095.305 1.117.709 1.124c.405.008.742-.482.755-1.095M186.34 65.043c.399-.067.637-.61.533-1.215-.105-.605-.512-1.04-.911-.974s-.637.61-.533 1.215.512 1.04.911.974M185.148 57.857c1.17-.254 2.203-.01 3.058.548.215.14.403.291.564.444l.07.068q.096.099.145.158a.58.58 0 0 1-.093.822.6.6 0 0 1-.81-.063l-.038-.045a2.846 2.846 0 0 0-.494-.41c-.603-.394-1.314-.562-2.145-.38a.594.594 0 0 1-.708-.445.584.584 0 0 1 .451-.697M176.864 57.74a5.3 5.3 0 0 1 1.694.099l.111.024c.177.04.315.079.405.108a.58.58 0 0 1 .375.74.595.595 0 0 1-.717.379l-.105-.031-.023-.007a5 5 0 0 0-.292-.07 4.2 4.2 0 0 0-1.306-.081c-.55.065-.94.274-1.17.66a.6.6 0 0 1-.812.209.58.58 0 0 1-.212-.8c.438-.736 1.163-1.124 2.052-1.23" clip-rule="evenodd"/><path fill="#000091" fill-rule="evenodd" d="M188.482 52.605s-3.542 19.32 9.359 20.001c0 0 7.519.565 8.944-2.181 0 0-5.639-2.279-5.263-5.356 0 0 6.688 5.901 11.456.72 0 0-8.884-.564-8.904-8.393-.02-5.61-14.088-9.505-15.592-4.791" clip-rule="evenodd"/><path fill="#ff8d7e" fill-rule="evenodd" d="m211.95 52.955-7.836-.39c-1.325-5.043-5.105-12.074-15.889-12.25-16.858-.272-15.75 15.756-15.75 15.756l39.218 1.87c1.405.078 2.592-.993 2.651-2.356.079-1.383-.989-2.552-2.394-2.63" clip-rule="evenodd"/><path fill="#000091" fill-rule="evenodd" d="M187.778 72.275a.596.596 0 0 1 .745-.382.58.58 0 0 1 .387.733 3 3 0 0 1-.211.47 4.1 4.1 0 0 1-.711.94c-.926.92-2.261 1.432-4.03 1.335a.59.59 0 0 1-.56-.616.59.59 0 0 1 .626-.55c1.428.078 2.432-.308 3.12-.992.216-.215.385-.445.51-.673.065-.119.104-.208.12-.253z" clip-rule="evenodd"/><path fill="#fff" fill-rule="evenodd" d="M169.726 117.682a.59.59 0 0 1 .636-.538.59.59 0 0 1 .55.592l-.002.034-2.058 27.298a.59.59 0 0 1-.636.539.59.59 0 0 1-.549-.593l.001-.034zM239.237 106.377a.6.6 0 0 1 .811.216.58.58 0 0 1-.189.779l-.109.065-.076.048a10.132 10.132 0 0 0-1.808 1.492c-1.478 1.55-2.214 3.335-1.845 5.34a.585.585 0 0 1-.478.679.59.59 0 0 1-.69-.471c-.445-2.418.434-4.552 2.148-6.348a11 11 0 0 1 1.524-1.329l.114-.082c.261-.185.467-.315.598-.389" clip-rule="evenodd"/><path fill="#fff" fill-rule="evenodd" d="M234.755 106.068c1.258-.555 2.581-.577 3.811-.286.289.069.506.139.635.19a.58.58 0 0 1 .328.761.6.6 0 0 1-.74.335l-.098-.035-.044-.015a5 5 0 0 0-.359-.099c-.996-.236-2.063-.219-3.048.215-1.233.544-2.219 1.701-2.86 3.65a.596.596 0 0 1-.747.376.583.583 0 0 1-.382-.736c.74-2.251 1.95-3.67 3.504-4.356" clip-rule="evenodd"/><path fill="#6a6af4" fill-rule="evenodd" d="M44.69 115.414 28.19 100.515s4.63-9.29 18.065-15.717c7.36-3.525 37.378 3.623 42.66 5.804 5.264 2.181 12.19 22.144 12.19 22.144l-9.083 3.097s-4.353 9.835-3.977 11.315c.713 2.883 1.623 31.045 1.623 31.045h-47.45z" clip-rule="evenodd"/><path fill="#fff" fill-rule="evenodd" d="M87.008 99.27a.6.6 0 0 1 .836.069l.068.08q.062.077.156.197.257.328.563.768a23 23 0 0 1 1.69 2.869c1.376 2.757 2.264 5.79 2.43 9.029.211 4.117-.767 8.286-3.162 12.419a.6.6 0 0 1-.81.219.58.58 0 0 1-.221-.797c2.28-3.938 3.207-7.885 3.007-11.782-.157-3.068-1.001-5.95-2.31-8.573a22 22 0 0 0-1.605-2.726l-.125-.177a15 15 0 0 0-.345-.469l-.115-.147-.126-.155a.577.577 0 0 1 .069-.823M54.514 108.251a.6.6 0 0 1 .838-.053.58.58 0 0 1 .077.797l-.024.028-7.697 8.608a.6.6 0 0 1-.844.048l-.027-.027-2.652-2.687a.58.58 0 0 1 .013-.826.6.6 0 0 1 .811-.015l.028.027 2.204 2.234zM47.935 148.406s-3.047 4.48-8.033 5.785c-2.968.779-6.906 1.694-7.618 1.051-1.346-1.207 2.928-3.018 3.562-3.35" clip-rule="evenodd"/><path fill="#000091" fill-rule="evenodd" d="M48.266 147.921a.58.58 0 0 1 .163.81l-.043.062q-.06.084-.167.226-.249.33-.585.723a18 18 0 0 1-2.227 2.181c-1.618 1.331-3.407 2.323-5.352 2.832l-.695.181c-4.302 1.105-6.67 1.465-7.476.738-.627-.563-.579-1.295-.042-1.95.38-.463 1.004-.916 1.834-1.387.322-.183.654-.357 1.021-.539l.82-.397.05-.025a.6.6 0 0 1 .803.242.58.58 0 0 1-.246.79l-.063.032c-.172.085-.592.285-.677.327-.41.2-.772.387-1.114.582-.713.405-1.24.787-1.504 1.109l-.044.056c-.136.172-.13.215-.037.297.124.112 1.077.098 2.46-.137 1.243-.212 2.762-.565 4.604-1.048 1.762-.461 3.403-1.371 4.897-2.6a17 17 0 0 0 2.563-2.629l.117-.155.052-.071.064-.09a.6.6 0 0 1 .824-.16" clip-rule="evenodd"/><path fill="#fff" fill-rule="evenodd" d="M36.36 149.4c-4.096-.565-7.183 1.188-5.52 2.57.613.526 9.814 1.13 12.366.254 1.98-.663 2.513-1.305 5.66-3.876l-2.988-1.617-3.364.974z" clip-rule="evenodd"/><path fill="#000091" fill-rule="evenodd" d="m31.219 151.521-.011-.011q-.004-.005.004-.003l.026.008q.101.033.275.071l.051.01c.273.057.641.114 1.083.168l.095.011a48 48 0 0 0 3.407.257l.433.017c2.872.102 5.325-.02 6.386-.363l.103-.035c.64-.217 1.106-.428 1.57-.712l.098-.061c.364-.231.753-.52 1.31-.97l.371-.305c.549-.452 1.622-1.342 2.066-1.705a.6.6 0 0 1 .836.077.58.58 0 0 1-.078.823l-2.363 1.949-.167.135c-.597.48-1.021.79-1.447 1.05a8.4 8.4 0 0 1-1.683.781l-.182.062-.075.025c-2.538.799-11.936.418-12.87-.383-1.18-.981-.747-2.249.713-2.983 1.285-.645 3.24-.893 5.272-.613.325.045.551.34.506.66a.59.59 0 0 1-.67.497c-1.804-.248-3.516-.031-4.568.497-.781.393-.897.692-.507 1.033z" clip-rule="evenodd"/><path fill="#fff" fill-rule="evenodd" d="M48.371 148.952c1.187-1.422 1.94-2.668 2.315-3.798 0 0 .772-2.279.475-3.369-1.444-5.298-3.344-15.581-10.17-24.598l2.433-2.941-14.048-12.679c-1.742 2.532-3.404 4.927-4.789 6.953a9.155 9.155 0 0 0 .535 11.159l16.146 19.145-1.03 3.175c-1.523.701-5.42 2.688-5.42 2.688-4.215 1.48-1.94 2.707.039 2.59s4.966-1.48 5.382-1.792c0 0-4.235 2.123-6.807 1.733-1.682.039-2.77 1.675-2.691 2.182s1.94.448 4.63.623 5.303-1.344 5.303-1.344" clip-rule="evenodd"/><path fill="#000091" fill-rule="evenodd" d="m49.695 138.464-.174-.678a100 100 0 0 0-1.158-4.153c-1.173-3.857-2.548-7.315-4.32-10.59a43 43 0 0 0-3.53-5.507.58.58 0 0 1-.008-.687l.025-.032 2.08-2.513-13.13-11.849-4.403 6.394a8.58 8.58 0 0 0 .425 10.367l.075.09 16.147 19.145c.12.143.164.333.12.513l-.012.038-1.029 3.174a.59.59 0 0 1-.314.352l-.345.162c-.404.191-.925.445-1.542.75l-.61.303-.845.422-.576.29-1.482.75a1 1 0 0 1-.073.032l-.182.065c-.829.304-1.382.598-1.662.856a.8.8 0 0 0-.126.142l-.003.006.002.002c.067.072.24.168.491.245l.052.015c.167.048.353.084.545.106l.067.007.088-.002a8 8 0 0 0 1.342-.173l.113-.024c.69-.149 1.428-.374 2.189-.654a23 23 0 0 0 1.465-.597l.153-.069.142-.065.21-.1.066-.033c.645-.323 1.205.554.63.986-.826.619-3.98 1.808-5.707 1.91a5 5 0 0 1-.622 0l-.138-.01h-.093a5 5 0 0 1-.602-.041l-.035-.005-.024.001c-.544.031-1.056.283-1.475.685l-.052.051a2.5 2.5 0 0 0-.43.576l-.02.038.023.005.083.016.045.008c.324.055.758.091 1.55.132l1.175.059c.417.021.776.041 1.133.065 1.135.074 2.358-.171 3.568-.628.375-.141.72-.292 1.026-.443l.121-.061.11-.057.137-.075a.6.6 0 0 1 .813.206.58.58 0 0 1-.209.8l-.075.043q-.132.073-.365.189c-.34.167-.72.334-1.133.489-1.357.512-2.741.789-4.07.703l-.475-.029-.507-.028-1.4-.07c-.757-.041-1.197-.077-1.56-.136l-.04-.007c-.698-.118-1.114-.321-1.197-.848-.124-.797.714-1.903 1.846-2.476l.07-.035-.01-.013-.028-.042-.027-.042c-.314-.518-.16-1.098.356-1.574.427-.394 1.138-.768 2.15-1.132l.068-.024.87-.441.582-.294q.436-.22.864-.434l.99-.494c.598-.296 1.115-.549 1.534-.75l.333-.158.851-2.628-15.938-18.899a9.73 9.73 0 0 1-.645-11.749l3.036-4.411 1.828-2.653a.6.6 0 0 1 .865-.127l.028.024 14.049 12.679a.577.577 0 0 1 .082.77l-.023.03-2.144 2.59.106.143a44 44 0 0 1 3.091 4.861l.155.285c1.811 3.35 3.214 6.878 4.409 10.804l.11.363c.343 1.15.66 2.297 1.005 3.624l.288 1.12.53 2.094c.115.446.209.801.3 1.134.118.435.112.983.017 1.635q-.077.52-.218 1.078a15 15 0 0 1-.194.706l-.058.187-.031.097c-.406 1.217-1.202 2.526-2.421 3.987a.6.6 0 0 1-.836.08.58.58 0 0 1-.081-.822c1.1-1.319 1.814-2.478 2.179-3.52l.052-.155.043-.136.015-.051c.061-.202.122-.422.18-.651.083-.336.15-.663.195-.967.074-.508.079-.917.011-1.165l-.084-.31c-.085-.32-.177-.673-.288-1.109z" clip-rule="evenodd"/><path fill="#ff8d7e" d="m70.19 43.33-3.217.964-1.723-5.571 3.218-.964z"/><path fill="#000091" fill-rule="evenodd" d="M65.15 39.731c3.268 0 5.917-2.607 5.917-5.823s-2.649-5.824-5.916-5.824-5.917 2.608-5.917 5.824 2.65 5.823 5.917 5.823M67.723 41.017c5.204-1.052 12.05-.72 16.878 1.752 14.564 8.317 14.504 18.444 8.133 22.807.475-7.83-.614-10.946-3.265-13.049-3.107 4.363-13.87 8.51-22.656 7.634 0-.038-.831 7.752-.06 7.79.08.468 1.188 4.792 1.188 4.792l-2.078 8.16-20.776-5.53c-1.187-.157-1.96-1.403-1.544-2.474 2.533-6.68 7.42-28.26 24.18-31.882" clip-rule="evenodd"/><path fill="#fff" fill-rule="evenodd" d="m80.11 80.864-.792 6.856 2.414.798c.336.662 3.562 10.284-7.183 9.719-7.004-.37-15.572-8.316-16.502-13.224l2.038-.04c3.027-.253 5.006-2.064 5.896-4.927l2.415-7.79z" clip-rule="evenodd"/><path fill="#000091" fill-rule="evenodd" d="m65.414 79.876-.03.092c-.849 2.635-2.638 4.165-5.258 4.415l-.074.007-2.017.038a.587.587 0 0 0-.572.692c.486 2.564 2.883 5.873 6.17 8.65 3.492 2.949 7.455 4.87 10.884 5.05 5.01.264 7.69-1.592 8.36-4.867.237-1.153.201-2.404-.03-3.662l-.031-.16c-.16-.803-.397-1.567-.553-1.874l-.019-.034a.6.6 0 0 0-.323-.258l-1.96-.648.738-6.387a.58.58 0 0 0-.234-.534L68.75 71.788a.597.597 0 0 0-.923.297zm3.303-6.655 10.764 7.91-.753 6.523-.003.035c-.014.26.15.5.404.585l2.154.712.009.026c.03.087.065.192.1.305.109.356.208.76.286 1.183.207 1.123.239 2.231.036 3.222-.549 2.683-2.69 4.165-7.133 3.931-3.13-.165-6.864-1.975-10.174-4.77l-.108-.091c-2.724-2.325-4.77-5.015-5.476-7.152l-.018-.057 1.291-.025.04-.002c3.2-.268 5.429-2.175 6.413-5.339z" clip-rule="evenodd"/><path fill="#fff" fill-rule="evenodd" d="m68.257 70.464-1.187.097s-6.867.04-6.293-6.174c.435-4.713 5.125-3.895 7.361-3.233" clip-rule="evenodd"/><path fill="#000091" fill-rule="evenodd" d="M63.664 60.183c1.392-.28 2.996-.077 4.645.412a.583.583 0 0 1 .398.728.595.595 0 0 1-.74.39c-1.477-.437-2.907-.618-4.066-.386-1.482.298-2.36 1.24-2.532 3.113-.235 2.545.82 4.08 2.775 4.917.63.27 1.314.445 1.999.542q.365.052.67.069l.1.005.134.004 1.16-.096a.59.59 0 0 1 .638.5l.004.034a.586.586 0 0 1-.508.627l-.034.004-1.188.097-.023.002h-.109l-.197-.008-.048-.003a10 10 0 0 1-.768-.078 9 9 0 0 1-2.304-.628c-2.4-1.028-3.768-3.017-3.483-6.094.22-2.392 1.486-3.753 3.477-4.152" clip-rule="evenodd"/><path fill="#fff" fill-rule="evenodd" d="M92.734 65.595c.475-7.83-.614-10.653-3.265-12.737-3.067 4.304-12.664 8.472-22.439 7.362-.336 1.052-.059.117-.257 1.285a86 86 0 0 0-.277 3.798c.119 4.499 1.425 7.479 1.425 7.479 1.78 4.615 5.243 8.394 10.408 9.582 9.003 2.084 13.257-10.244 13.87-13.01.317-1.402.535-3.759.535-3.759" clip-rule="evenodd"/><path fill="#000091" fill-rule="evenodd" d="M88.983 52.522c-1.475 2.07-4.572 4.113-8.422 5.498-4.213 1.517-8.947 2.132-13.463 1.62a.594.594 0 0 0-.634.404l-.156.485-.024.083a.7.7 0 0 0-.028.202l.001.037.002.029-.002.035-.007.074q-.014.14-.063.42l-.005.04a86 86 0 0 0-.28 3.869c.053 1.997.334 3.85.765 5.516q.212.811.436 1.456l.061.175q.095.263.16.424l.042.1c1.983 5.14 5.76 8.778 10.828 9.944 4.277.99 7.862-.95 10.701-4.92 1.874-2.618 3.313-6.064 3.857-8.414l.027-.12c.142-.627.273-1.468.392-2.428q.05-.407.09-.788l.042-.395.022-.22c.46-7.58-.46-10.869-3.486-13.247a.6.6 0 0 0-.856.121m-21.538 8.343.005-.014.145.014c4.512.41 9.188-.24 13.374-1.747l.148-.054c3.646-1.334 6.66-3.242 8.384-5.287l.06-.073.069.063c2.237 2.07 2.918 5.078 2.51 11.793l-.04.395q-.037.365-.084.758l-.024.196c-.11.884-.23 1.66-.354 2.237l-.018.081c-.49 2.21-1.888 5.587-3.695 8.114-2.588 3.618-5.73 5.318-9.46 4.454-4.658-1.071-8.139-4.424-9.99-9.22l-.044-.109-.021-.052a11 11 0 0 1-.12-.318l-.026-.074c-.15-.426-.302-.92-.446-1.476l-.045-.177a23.5 23.5 0 0 1-.677-4.87l-.006-.189.013-.26a86 86 0 0 1 .235-3.212l.024-.257.032-.198c.039-.245.051-.374.051-.488z" clip-rule="evenodd"/><path fill="#000091" fill-rule="evenodd" d="M86.264 60.824a.59.59 0 0 1 .61.53l.002.035.336 10.478a.59.59 0 0 1-.642.6l-.035-.003-2.632-.37a.586.586 0 0 1-.503-.661.59.59 0 0 1 .636-.5l.035.004 1.932.272-.314-9.783a.59.59 0 0 1 .54-.6zM78.99 59.583c.9-.548 1.854-.764 2.786-.41q.448.17.843.51c.246.214.27.583.054.825a.6.6 0 0 1-.838.053 1.6 1.6 0 0 0-.486-.298c-.52-.197-1.12-.061-1.734.313a4 4 0 0 0-.416.293l-.07.057-.068.062a.6.6 0 0 1-.84-.009.58.58 0 0 1 .009-.826c.156-.15.416-.36.76-.57M78.923 73.592a.593.593 0 0 1 .7.456c.129.624.515.988 1.131 1.18.417.131.874.162 1.264.135l.076-.006a.59.59 0 0 1 .662.507c.041.32-.19.612-.515.652l-.044.005-.095.008a4.7 4.7 0 0 1-1.707-.187c-.999-.312-1.713-.985-1.936-2.06a.585.585 0 0 1 .463-.69M89.7 61.026c.59-.16 1.197-.223 1.786-.126.842.138 1.534.594 1.97 1.402a.58.58 0 0 1-.246.79.6.6 0 0 1-.803-.242 1.46 1.46 0 0 0-1.117-.797c-.393-.065-.837-.02-1.273.1a4 4 0 0 0-.231.07l-.109.039-.03.012a.597.597 0 0 1-.782-.302.58.58 0 0 1 .307-.769l.061-.025c.112-.044.271-.099.468-.152M81.509 65.38c.13-.73-.156-1.391-.64-1.475-.485-.084-.983.44-1.114 1.172-.13.73.156 1.391.64 1.475.485.084.983-.44 1.114-1.172M90.744 66.93c.13-.73-.156-1.391-.64-1.475s-.983.44-1.114 1.172c-.13.73.157 1.391.64 1.475.485.084.984-.44 1.114-1.172" clip-rule="evenodd"/><path fill="#ff8d7e" fill-rule="evenodd" d="M72.955 62.203c-.75 4.25 1.319 8.198 4.721 8.767s6.705-2.481 7.454-6.731c.749-4.251-1.32-8.199-4.722-8.768s-6.704 2.481-7.453 6.732m1.167.195c.647-3.672 3.406-6.22 6.083-5.773s4.404 3.747 3.757 7.418-3.405 6.22-6.082 5.772-4.405-3.746-3.758-7.417M87.521 65.184c-.75 4.25 1.32 8.198 4.722 8.767 3.402.57 6.704-2.48 7.453-6.731s-1.319-8.198-4.721-8.767c-3.403-.57-6.705 2.48-7.454 6.731m1.168.195c.647-3.671 3.405-6.22 6.082-5.772s4.405 3.746 3.758 7.418c-.647 3.671-3.406 6.22-6.083 5.772s-4.404-3.746-3.757-7.418" clip-rule="evenodd"/><path fill="#ff8d7e" fill-rule="evenodd" d="M84.012 63.647a.59.59 0 0 1 .634-.504l.035.004 3.482.467a.586.586 0 0 1 .508.658.59.59 0 0 1-.634.503l-.034-.003-3.483-.468a.586.586 0 0 1-.508-.657M66.22 60.2l7.578.254c.327.01.584.28.573.603a.59.59 0 0 1-.579.565h-.035l-7.578-.254a.59.59 0 0 1-.573-.604.59.59 0 0 1 .578-.564z" clip-rule="evenodd"/><path fill="#fff" fill-rule="evenodd" d="m42.572 104.215 10.25-3.388-5.699-11.16-11.436 5.862z" clip-rule="evenodd"/><path fill="#fff" fill-rule="evenodd" d="M48.033 90.719s3.522 4.966 4.63 6.544c1.781 2.551 1.287 5.472-1.681 4.323" clip-rule="evenodd"/><path fill="#000091" fill-rule="evenodd" d="M47.693 90.24a.6.6 0 0 1 .804.115l.031.041 4.625 6.536c.96 1.375 1.357 2.923 1.02 4.046-.405 1.345-1.722 1.805-3.409 1.152a.58.58 0 0 1-.335-.758c.12-.3.465-.448.77-.33 1.09.422 1.648.227 1.835-.396.218-.725-.072-1.89-.808-2.977l-2.2-3.117-2.48-3.499a.58.58 0 0 1 .147-.813" clip-rule="evenodd"/><path fill="#fff" fill-rule="evenodd" d="M45.402 94.341s6.332 7.245 6.787 9.329-2.176 3.37-4.353.117" clip-rule="evenodd"/><path fill="#000091" fill-rule="evenodd" d="M45.015 93.898a.6.6 0 0 1 .837.062l.296.342.16.186a117 117 0 0 1 3.459 4.24l.156.204c1.646 2.154 2.65 3.719 2.846 4.615.29 1.324-.418 2.508-1.65 2.755-1.262.253-2.665-.529-3.779-2.194a.58.58 0 0 1 .17-.809.6.6 0 0 1 .822.167c.871 1.302 1.828 1.836 2.549 1.691.56-.112.883-.654.728-1.364-.144-.658-1.112-2.166-2.635-4.16q-.305-.4-.635-.819c-.74-.942-1.535-1.912-2.33-2.855l-.443-.524-.46-.535-.154-.178a.58.58 0 0 1 .063-.824" clip-rule="evenodd"/><path fill="#fff" fill-rule="evenodd" d="M42.89 96.27s6.014 6.991 5.282 9.348c-.791 2.649-4.61-2.707-5.995-4.246" clip-rule="evenodd"/><path fill="#000091" fill-rule="evenodd" d="M42.505 95.824a.6.6 0 0 1 .812.04l.033.037.19.224.254.307a54 54 0 0 1 2.255 2.946c.4.566.768 1.115 1.096 1.643 1.31 2.102 1.928 3.695 1.597 4.762-.31 1.034-1.113 1.381-2.047.98-.614-.264-1.308-.84-2.133-1.706a27 27 0 0 1-.919-1.021l-.287-.339c-.53-.631-1.44-1.733-1.624-1.937a.58.58 0 0 1 .051-.825.6.6 0 0 1 .838.05l.083.094c.378.439 1.52 1.825 1.844 2.202.28.325.54.616.788.879l.092.098c.721.757 1.317 1.251 1.742 1.434l.055.023c.24.098.281.061.38-.268.192-.62-.347-2.011-1.472-3.816a34 34 0 0 0-1.059-1.586 50 50 0 0 0-1.816-2.4l-.237-.294q-.153-.19-.293-.356l-.292-.348a.58.58 0 0 1 .07-.824" clip-rule="evenodd"/><path fill="#fff" fill-rule="evenodd" d="m48.034 90.719 3.245 1.538c.079.04.178.078.277.117 2.018.643 2.77-.02 3.047-.818.277-.818 0-1.714-.653-2.298-3.8-3.467-13.416-4.48-13.416-4.48-2.334-.272-8.468 2.26-7.36 7.343s4.749 11.549 8.172 13.438c3.403 1.87 4.234-.331.85-4.167-.04-.059-2.512-3.097-2.512-3.097" clip-rule="evenodd"/><path fill="#000091" fill-rule="evenodd" d="M35.209 85.973c1.651-1.209 3.87-1.918 5.312-1.783l.252.028.226.027.257.034.317.044q.65.09 1.396.219c1.773.304 3.547.702 5.207 1.207 2.678.814 4.801 1.825 6.173 3.077.834.746 1.166 1.885.816 2.92-.458 1.319-1.712 1.822-3.71 1.21l-.082-.026-.038-.013-.147-.06a3 3 0 0 1-.146-.063l-3.266-1.549a.58.58 0 0 1-.277-.78.597.597 0 0 1 .759-.287l.033.014 3.28 1.555.067.03.118.047.055.017c1.392.43 1.976.21 2.216-.436l.013-.034c.196-.58.004-1.239-.494-1.684-1.218-1.112-3.198-2.055-5.72-2.822a42 42 0 0 0-5.06-1.172 47 47 0 0 0-1.517-.236l-.153-.02q-.22-.03-.396-.05l-.236-.028c-1.122-.131-3.095.489-4.547 1.551-1.777 1.3-2.61 3.035-2.163 5.089 1.133 5.196 4.778 11.338 7.88 13.05 1.345.739 2.024.734 2.108.419.16-.61-.517-2.019-1.994-3.693l-.024-.029-.04-.054-1.632-2.01-.832-1.022a.58.58 0 0 1 .092-.821.6.6 0 0 1 .81.063l.133.16 2.303 2.836.093.118.07.079c1.636 1.879 2.431 3.533 2.182 4.618l-.012.049c-.178.673-.742 1.054-1.497 1.059-.64.004-1.431-.253-2.339-.752-3.45-1.904-7.264-8.332-8.462-13.825-.554-2.542.492-4.718 2.615-6.272" clip-rule="evenodd"/><path fill="#fff" fill-rule="evenodd" d="m221.229 97.088-10.427-2.727 4.966-11.51 11.774 5.16z" clip-rule="evenodd"/><path fill="#fff" fill-rule="evenodd" d="M214.917 83.96s-3.205 5.181-4.195 6.817c-1.622 2.649-.93 5.55 1.959 4.207" clip-rule="evenodd"/><path fill="#000091" fill-rule="evenodd" d="M215.226 83.462c.27.161.362.5.216.772l-.21.342-1.717 2.78-2.05 3.338-.234.385c-.704 1.15-.935 2.37-.664 3.098.229.612.801.772 1.861.279a.597.597 0 0 1 .79.278.58.58 0 0 1-.283.778c-1.642.764-2.99.388-3.482-.933-.404-1.081-.125-2.615.71-4.018l.605-.995 1.401-2.279 2.241-3.63a.6.6 0 0 1 .816-.195" clip-rule="evenodd"/><path fill="#fff" fill-rule="evenodd" d="M217.786 87.408s-5.857 7.635-6.174 9.738c-.316 2.103 2.375 3.233 4.354-.156" clip-rule="evenodd"/><path fill="#000091" fill-rule="evenodd" d="M218.144 86.942c.262.194.314.56.116.818l-.263.347-.294.391-.32.43-.083.112a95.056 95.056 0 0 0-2.59 3.653l-.114.17c-1.411 2.112-2.295 3.7-2.396 4.369-.108.718.249 1.24.811 1.317.726.1 1.647-.492 2.44-1.85a.6.6 0 0 1 .811-.215.58.58 0 0 1 .219.797c-1.013 1.734-2.362 2.601-3.635 2.425-1.243-.172-2.021-1.31-1.82-2.646.137-.912 1.052-2.556 2.579-4.839q.286-.43.597-.88c.595-.864 1.228-1.749 1.865-2.617l.273-.37q.212-.29.407-.549l.382-.508.184-.241a.6.6 0 0 1 .831-.114" clip-rule="evenodd"/><path fill="#fff" fill-rule="evenodd" d="M220.418 89.2s-5.54 7.342-4.69 9.66c.97 2.59 4.433-2.98 5.699-4.616" clip-rule="evenodd"/><path fill="#000091" fill-rule="evenodd" d="M220.771 88.73c.254.185.314.531.145.788l-.036.05-.186.25-.189.26a52 52 0 0 0-1.97 2.937 35 35 0 0 0-.956 1.637l-.101.187c-.975 1.828-1.414 3.217-1.193 3.819l.025.066c.105.265.155.272.383.168.38-.173.909-.65 1.538-1.38.268-.313.55-.665.855-1.066l.142-.187c.423-.568 1.539-2.126 1.727-2.37a.6.6 0 0 1 .831-.11.58.58 0 0 1 .113.819l-.123.165c-.356.484-1.264 1.75-1.621 2.227l-.023.031c-.355.47-.682.881-.995 1.245l-.145.167c-.672.76-1.259 1.273-1.801 1.52-.875.398-1.657.078-2.021-.895-.392-1.067.15-2.73 1.363-4.958q.444-.817.989-1.693c.47-.76.969-1.514 1.472-2.238l.189-.27q.224-.316.42-.588l.254-.348.084-.112a.6.6 0 0 1 .83-.12" clip-rule="evenodd"/><path fill="#fff" fill-rule="evenodd" d="m214.917 83.96-3.126 1.734c-.079.039-.178.097-.257.136-1.959.78-2.771.156-3.087-.623-.337-.799-.099-1.714.495-2.337 3.581-3.7 13.099-5.298 13.099-5.298 2.315-.409 8.607 1.734 7.815 6.875-.791 5.142-3.997 11.822-7.301 13.906-3.285 2.065-4.254-.078-1.108-4.11.039-.058 2.315-3.252 2.315-3.252" clip-rule="evenodd"/><path fill="#000091" fill-rule="evenodd" d="M227.436 78.438c2.221 1.42 3.403 3.526 3.007 6.097-.859 5.578-4.246 12.215-7.569 14.31-.875.55-1.649.854-2.289.887-.755.04-1.341-.306-1.56-.966-.349-1.048.316-2.732 1.81-4.696l.131-.17 2.31-3.244a.6.6 0 0 1 .826-.143.577.577 0 0 1 .166.783l-.382.539-1.946 2.733-.023.032c-1.373 1.759-1.963 3.205-1.764 3.803.103.31.784.273 2.081-.542 2.986-1.883 6.223-8.224 7.035-13.501.32-2.076-.622-3.754-2.479-4.942-1.489-.951-3.455-1.449-4.587-1.28l-.218.038-.209.038-.24.047-.299.06c-.407.083-.848.18-1.315.289-1.67.392-3.34.873-4.894 1.445-2.526.93-4.488 2.01-5.654 3.214-.46.484-.612 1.16-.376 1.721.265.653.872.856 2.241.327l.048-.02.184-.098.041-.021 3.114-1.727a.6.6 0 0 1 .789.192l.019.03a.58.58 0 0 1-.195.778l-.031.019-3.126 1.733-.089.046-.14.076-.054.028-.043.019c-1.991.791-3.327.364-3.858-.941-.419-.995-.158-2.154.613-2.964 1.319-1.362 3.422-2.52 6.101-3.506a43 43 0 0 1 5.034-1.488c.6-.14 1.157-.26 1.658-.358l.324-.062.307-.056c1.435-.253 3.746.32 5.501 1.441" clip-rule="evenodd"/></g><defs><clipPath id="a"><path fill="#fff" d="M0 0h287.25v158.625H0z"/></clipPath></defs></svg>