<svg width="284" height="159" viewBox="0 0 284 159" fill="none" xmlns="http://www.w3.org/2000/svg">
<g clip-path="url(#clip0_541_7336)">
<rect x="1" width="282" height="158.625" fill="#E8EDFF"/>
<g clip-path="url(#clip1_541_7336)">
<path d="M207.127 158.009L187.173 94.4826C185.822 90.8419 183.083 87.8769 179.549 86.2297L152.286 74.087L118.552 70.8169L90.2193 82.7349C82.8366 85.8403 76.8781 91.5644 73.501 98.7954C73.501 98.7954 49.7198 138.54 54.3086 158.627L207.129 158.009H207.127Z" fill="#FF8D7E"/>
<path d="M131.379 141.897C131.428 141.992 131.364 153.409 131.377 158.175H153.877V141.833L158.491 76.8518L151.078 73.5124L116.636 71.4141L110.454 74.2237C110.454 74.2237 134.779 108.005 131.377 141.897H131.379Z" fill="white"/>
<path d="M154.97 128.749C150.408 129.481 146.114 129.556 142.504 129.352C138.015 129.099 134.082 128.406 131.172 127.744C131.29 128.747 131.39 129.754 131.469 130.765C134.361 131.383 138.052 131.98 142.25 132.221C143.522 132.294 144.78 132.332 146.026 132.332C149.027 132.332 151.945 132.118 154.769 131.699L154.97 128.749Z" fill="#9388B1"/>
<path d="M145.805 125.071C148.995 125.071 152.122 124.872 155.172 124.485L155.373 121.533C148.734 122.439 142.553 122.278 137.524 121.754C134.926 121.482 132.501 121.102 130.298 120.679C130.484 121.683 130.655 122.691 130.808 123.708C132.766 124.058 134.883 124.37 137.131 124.606C140.062 124.915 142.956 125.071 145.805 125.071Z" fill="#6A6AF4"/>
<path d="M135.014 113.18C132.64 112.956 130.405 112.643 128.347 112.291C128.627 113.298 128.894 114.316 129.146 115.344C130.875 115.614 132.715 115.853 134.651 116.038C137.458 116.308 140.232 116.441 142.963 116.441C147.189 116.441 151.311 116.119 155.287 115.477C155.456 115.449 155.625 115.417 155.795 115.389L155.998 112.409C148.183 113.811 140.849 113.732 135.016 113.18H135.014Z" fill="#6A6AF4"/>
<path d="M143.375 108.972C147.428 108.972 151.808 108.605 156.323 107.647L156.528 104.65C147.911 106.616 139.75 106.281 133.515 105.363C130.615 104.937 127.95 104.364 125.6 103.757C125.987 104.822 126.367 105.904 126.734 107.005C128.661 107.452 130.757 107.866 132.999 108.197C136.066 108.652 139.577 108.972 143.375 108.972Z" fill="#6A6AF4"/>
<path d="M135.014 144.845C132.64 144.62 130.405 144.307 128.347 143.956C128.627 144.963 128.894 145.981 129.146 147.009C130.875 147.278 132.715 147.518 134.651 147.703C137.458 147.973 140.232 148.105 142.963 148.105C147.189 148.105 151.311 147.783 155.287 147.141C155.456 147.113 155.625 147.082 155.795 147.053L155.998 144.073C148.183 145.476 140.849 145.397 135.016 144.845H135.014Z" fill="#6A6AF4"/>
<path d="M143.375 140.636C147.428 140.636 151.808 140.269 156.323 139.311L156.528 136.314C147.911 138.28 139.75 137.945 133.515 137.027C130.615 136.601 127.95 136.028 125.6 135.421C125.987 136.486 126.367 137.568 126.734 138.669C128.661 139.116 130.757 139.53 132.999 139.861C136.066 140.316 139.577 140.636 143.375 140.636Z" fill="#6A6AF4"/>
<path d="M157.098 96.3187C147.715 98.6211 138.427 98.2505 131.351 97.2565C128.022 96.7886 124.954 96.1596 122.256 95.4951C122.73 96.5621 123.2 97.6571 123.665 98.7802C125.91 99.28 128.352 99.7423 130.946 100.105C134.839 100.652 138.645 100.927 142.333 100.927C145.181 100.927 147.958 100.764 150.647 100.437C152.782 100.177 154.863 99.8097 156.889 99.3436L157.096 96.3169L157.098 96.3187Z" fill="#6A6AF4"/>
<path d="M157.606 88.8986C147.585 91.2553 137.67 90.7143 130.165 89.5463C125.531 88.8256 121.407 87.8223 118.051 86.8452C118.632 87.9459 119.227 89.1064 119.827 90.3194C122.547 91.0325 125.697 91.7401 129.13 92.2979C133.832 93.0597 138.421 93.4416 142.846 93.4416C145.249 93.4416 147.602 93.3293 149.898 93.1028C152.47 92.8501 154.972 92.4551 157.399 91.9179L157.606 88.8968V88.8986Z" fill="#6A6AF4"/>
<path d="M157.966 83.6314L158.173 80.6009C140.071 85.8664 121.688 81.2485 113.22 78.4258C113.88 79.4852 114.631 80.7263 115.444 82.1339C118.704 83.0848 123.056 84.1649 128.032 84.9117C131.669 85.4564 135.866 85.8533 140.387 85.8533C145.909 85.8533 151.911 85.2618 157.966 83.6314Z" fill="#6A6AF4"/>
<path d="M124.646 54.6294L122.665 67.051L116.456 72.0525C116.456 72.0525 125.082 84.914 136.811 87.8416C140.785 88.8336 147.044 87.7554 149.089 84.2233C151.057 80.8259 151.684 76.0265 152.06 70.3267C152.25 67.4441 124.646 54.6294 124.646 54.6294Z" fill="white"/>
<path d="M124.276 53.9374C124.494 53.8221 124.755 53.815 124.979 53.9191L124.645 54.629C124.961 53.9583 124.979 53.9216 124.98 53.9197L124.981 53.9203C124.982 53.9207 124.983 53.9208 124.985 53.9215C124.988 53.9231 124.994 53.9258 125 53.9289C125.014 53.9351 125.034 53.9442 125.06 53.9564C125.113 53.9809 125.19 54.0173 125.292 54.0647C125.495 54.1596 125.792 54.2994 126.17 54.4778C126.926 54.8346 128.006 55.3474 129.3 55.9717C131.889 57.22 135.341 58.9156 138.789 60.7023C142.232 62.4869 145.688 64.3709 148.277 65.9953C149.569 66.8053 150.67 67.5659 151.45 68.229C151.838 68.5589 152.172 68.8868 152.413 69.2033C152.632 69.4911 152.878 69.9046 152.847 70.3777C152.472 76.0594 151.844 81.037 149.773 84.6135C148.598 86.6416 146.282 87.8759 143.868 88.4874C141.438 89.1032 138.745 89.1316 136.619 88.6006C130.551 87.0862 125.34 83.0238 121.678 79.4038C119.84 77.5861 118.374 75.8621 117.367 74.5918C116.863 73.9563 116.473 73.4335 116.209 73.0679C116.076 72.8851 115.975 72.7414 115.907 72.6426C115.872 72.5932 115.846 72.555 115.828 72.5288C115.819 72.5157 115.812 72.5053 115.807 72.4982C115.805 72.4948 115.803 72.4922 115.802 72.4902C115.801 72.4893 115.8 72.4884 115.8 72.4878L115.799 72.4866C115.574 72.1502 115.643 71.6983 115.959 71.4437L121.932 66.6305L123.866 54.5066C123.905 54.2636 124.057 54.0529 124.276 53.9374ZM123.444 67.1733C123.413 67.3642 123.312 67.5369 123.161 67.6586L117.524 72.1995C117.776 72.5463 118.14 73.0339 118.607 73.623C119.584 74.8556 121.007 76.53 122.791 78.2936C126.375 81.8362 131.341 85.6685 137.003 87.0817L137.356 87.1624C139.152 87.5387 141.412 87.4931 143.478 86.9697C145.699 86.407 147.534 85.3364 148.405 83.8327V83.832C150.263 80.6239 150.891 76.0216 151.268 70.3287C151.258 70.3045 151.228 70.2455 151.153 70.147C151.01 69.9591 150.772 69.7155 150.424 69.4193C149.73 68.8299 148.705 68.1163 147.435 67.3196C144.902 65.7305 141.492 63.8701 138.059 62.0909C134.63 60.3136 131.192 58.6256 128.611 57.3811C127.321 56.759 126.246 56.248 125.493 55.8927C125.411 55.8543 125.334 55.8179 125.26 55.7832L123.444 67.1733Z" fill="#000091"/>
<path d="M159.43 28.6686C157.499 17.9972 144.207 19.388 142.269 19.6276C124.403 21.8457 123.562 36.7775 123.683 40.9704L122.906 41.0659C122.906 41.0659 122.992 41.7809 123.145 42.9377C120.832 43.4974 116.669 45.3131 118.027 51.0522C119.058 55.4023 122.328 55.7954 125.028 55.2881C125.389 57.2105 125.758 58.854 126.098 59.8236C127.474 63.7264 128.411 65.4523 133.765 68.9227C139.12 72.3949 150.267 73.6322 155.232 67.2548C159.83 61.3492 160.201 50.7096 160.231 49.1691C160.679 43.2597 160.7 35.6937 159.43 28.6667V28.6686Z" fill="white"/>
<path d="M142.172 18.8504C143.164 18.7277 147.091 18.3039 151.045 19.2972C155.028 20.2976 159.161 22.7824 160.203 28.5185C160.204 28.5218 160.205 28.525 160.206 28.5283C161.489 35.6304 161.468 43.254 161.019 49.1979C161.003 50.012 160.898 53.0895 160.22 56.7179C159.542 60.3458 158.271 64.6311 155.856 67.7335C153.172 71.18 148.868 72.5101 144.655 72.5657C140.573 72.6196 136.425 71.4845 133.602 69.7482L133.333 69.5786C130.633 67.8286 128.975 66.4741 127.82 65.0206C126.658 63.5586 126.045 62.0452 125.353 60.0826V60.0813C125.039 59.1847 124.712 57.7866 124.395 56.1763C123.161 56.3206 121.805 56.2596 120.575 55.7051C119.081 55.0317 117.897 53.6896 117.313 51.4512L117.259 51.2315C116.527 48.1386 117.271 45.9742 118.631 44.5199C119.716 43.3588 121.13 42.7183 122.275 42.3645C122.239 42.0876 122.208 41.8522 122.185 41.665C122.164 41.5028 122.149 41.3768 122.138 41.2911C122.133 41.2483 122.129 41.2153 122.126 41.1932C122.125 41.1822 122.124 41.1738 122.123 41.1681C122.123 41.1653 122.122 41.1628 122.122 41.1614V41.1595C122.07 40.7311 122.377 40.3417 122.809 40.2887L122.886 40.2789C122.891 37.8687 123.261 33.4353 125.534 29.1904C128.082 24.4328 132.981 19.9914 142.171 18.8504H142.172ZM150.658 20.8161C147 19.8971 143.314 20.2878 142.367 20.4048C133.691 21.482 129.236 25.6152 126.927 29.926C124.592 34.2865 124.412 38.9098 124.471 40.9484C124.482 41.3499 124.186 41.694 123.785 41.7464C123.823 42.0393 123.87 42.4074 123.927 42.8364C123.979 43.2324 123.722 43.6039 123.331 43.6986C122.236 43.9637 120.794 44.5088 119.787 45.5854C118.826 46.6136 118.168 48.2269 118.795 50.8729L118.888 51.2321C119.382 52.9707 120.266 53.8452 121.227 54.2785C122.299 54.7618 123.604 54.7583 124.881 54.5184C125.087 54.4797 125.3 54.524 125.473 54.6414C125.646 54.7589 125.764 54.94 125.803 55.1445C126.164 57.0683 126.524 58.6577 126.842 59.5648C127.526 61.5049 128.07 62.8059 129.059 64.05C130.054 65.3026 131.542 66.5463 134.196 68.2666L134.196 68.2672C136.726 69.9076 140.693 71.051 144.634 70.999C148.574 70.947 152.326 69.7067 154.608 66.7758C156.79 63.9725 158.004 59.9854 158.669 56.4321C159.329 52.8996 159.427 49.9014 159.442 49.1538C159.442 49.1393 159.443 49.1248 159.444 49.1104C159.889 43.2397 159.907 35.7446 158.653 28.8049V28.8043C157.76 23.8793 154.286 21.7274 150.658 20.8161Z" fill="#000091"/>
<path d="M138.166 56.8603C138.108 56.4315 138.411 56.0378 138.843 55.9806L146.615 54.9505C147.047 54.8933 147.443 55.1949 147.501 55.6236C147.558 56.0523 147.255 56.446 146.824 56.5034L139.052 57.5329C138.62 57.5901 138.223 57.2892 138.166 56.8603Z" fill="#000091"/>
<path d="M151.188 43.5752C151.618 43.5074 152.022 43.7986 152.091 44.2258L153.739 54.5193C153.779 54.7737 153.691 55.0319 153.503 55.2096C153.315 55.3871 153.051 55.4614 152.798 55.4085L149.091 54.6355C148.665 54.5466 148.391 54.1312 148.481 53.7078C148.57 53.2845 148.989 53.0136 149.415 53.1025L152.001 53.6417L150.533 44.4718C150.464 44.0445 150.757 43.6432 151.188 43.5752Z" fill="#000091"/>
<path d="M155.969 46.3767C156.558 46.351 157.002 45.5959 156.963 44.6901C156.923 43.7844 156.413 43.0709 155.825 43.0966C155.236 43.1223 154.791 43.8773 154.831 44.7831C154.871 45.6889 155.38 46.4023 155.969 46.3767Z" fill="#000091"/>
<path d="M145.524 46.3264C146.112 46.3007 146.557 45.5456 146.517 44.6398C146.477 43.7341 145.968 43.0206 145.379 43.0463C144.791 43.072 144.346 43.827 144.386 44.7328C144.426 45.6386 144.935 46.352 145.524 46.3264Z" fill="#000091"/>
<path d="M141.876 40.9888C142.793 40.4178 144.156 39.9251 145.902 40.2269C146.331 40.3011 146.618 40.7065 146.544 41.1327C146.469 41.5589 146.06 41.8446 145.631 41.7703C144.346 41.5481 143.375 41.9055 142.715 42.3162C142.382 42.5239 142.128 42.7456 141.961 42.9129C141.878 42.9961 141.816 43.0645 141.778 43.1094C141.76 43.1315 141.747 43.1479 141.74 43.1571C141.738 43.1588 141.736 43.1602 141.735 43.1614L141.736 43.162L141.735 43.1626C141.735 43.1626 141.735 43.1625 141.735 43.162L141.733 43.1657C141.475 43.5117 140.984 43.5869 140.633 43.3327C140.281 43.0776 140.204 42.5873 140.461 42.2379L140.954 42.5953C140.471 42.2444 140.462 42.2377 140.462 42.2373L140.463 42.2367L140.466 42.2312C140.468 42.2284 140.471 42.2251 140.474 42.2214C140.479 42.2138 140.487 42.2041 140.496 42.1926C140.514 42.1694 140.539 42.1383 140.571 42.1008C140.634 42.026 140.725 41.9248 140.842 41.8077C141.076 41.5741 141.422 41.272 141.876 40.9888Z" fill="#000091"/>
<path d="M152.699 37.1898C152.283 37.3152 151.843 37.083 151.716 36.6702C151.588 36.2568 151.822 35.8188 152.238 35.6917L152.445 36.3606C152.241 35.7006 152.239 35.6913 152.239 35.6911H152.239L152.241 35.6905C152.242 35.6901 152.244 35.6897 152.246 35.6892C152.249 35.6883 152.252 35.6874 152.257 35.6862C152.266 35.6836 152.278 35.6798 152.292 35.6758C152.321 35.6678 152.361 35.6577 152.41 35.6458C152.509 35.622 152.646 35.592 152.813 35.565C153.142 35.5117 153.603 35.4663 154.106 35.5105C155.13 35.6006 156.42 36.0861 156.98 37.6574C157.126 38.0651 156.911 38.5129 156.5 38.6573C156.089 38.8017 155.638 38.5883 155.493 38.1806C155.209 37.3825 154.615 37.128 153.967 37.0711C153.634 37.0419 153.312 37.0718 153.067 37.1115C152.946 37.131 152.848 37.1521 152.784 37.1678C152.752 37.1755 152.728 37.1816 152.714 37.1855L152.7 37.1898V37.1892L152.699 37.1898Z" fill="#000091"/>
<path d="M162.984 25.1364C161.951 22.9294 160.685 22.2986 159.563 22.3061C159.522 21.9074 159.452 21.505 159.364 21.1063C158.587 17.5966 156.346 14.5941 153.27 12.7635H153.276C153.276 12.7635 149.503 8.74834 137.598 9.60003C125.692 10.4517 125.383 17.2409 125.383 17.2409C119.976 20.8742 116.063 25.4246 115.771 29.3199C114.957 40.2253 119.568 42.874 121.472 43.501C121.679 43.4093 121.882 43.3326 122.082 43.2596C122.144 43.4393 122.206 43.5871 122.266 43.6882C129.769 43.1809 130.168 32.6687 132.542 27.6166C132.796 27.0775 133.457 26.8734 133.976 27.1673C137.308 29.0429 141.844 29.655 147.219 28.9156C153.029 28.1163 155.627 25.4246 156.786 23.2926C156.824 23.3319 156.862 23.3693 156.899 23.4105C156.952 23.4685 157.005 23.5284 157.057 23.5865C157.082 23.6145 157.106 23.6408 157.131 23.6688C157.176 23.7212 157.219 23.7755 157.264 23.8279C157.294 23.8654 157.326 23.9009 157.356 23.9402C157.396 23.9889 157.434 24.0395 157.473 24.09C157.507 24.1349 157.541 24.178 157.575 24.2229C157.608 24.2697 157.642 24.3165 157.676 24.3652C157.712 24.4157 157.748 24.4681 157.783 24.5186C157.814 24.5636 157.844 24.6085 157.872 24.6515C157.91 24.7096 157.947 24.7676 157.985 24.8275C158.011 24.8687 158.036 24.9099 158.062 24.9529C158.101 25.0184 158.141 25.0839 158.179 25.1513C158.199 25.1888 158.222 25.2262 158.243 25.2655C158.284 25.3404 158.323 25.4153 158.363 25.4901C158.38 25.5238 158.399 25.5575 158.416 25.5912C158.459 25.6754 158.5 25.7597 158.54 25.8458C158.933 26.6788 159.236 27.6166 159.428 28.6741C160.056 32.1464 160.367 35.7516 160.468 39.222C160.609 39.2388 160.752 39.1958 160.895 39.0816C163.268 37.1948 165.437 30.3869 162.982 25.142L162.984 25.1364Z" fill="#000091"/>
<path d="M149.338 39.3355L149.404 39.341C149.725 39.3799 149.993 39.6112 150.073 39.9272L149.308 40.1182C150.034 39.937 150.071 39.9285 150.073 39.9285L150.074 39.9297C150.074 39.9305 150.074 39.9316 150.074 39.9327C150.075 39.935 150.075 39.9379 150.076 39.9413C150.078 39.9483 150.08 39.9578 150.083 39.9695C150.088 39.9928 150.096 40.0252 150.105 40.0662C150.122 40.1482 150.145 40.2647 150.169 40.4107C150.218 40.7022 150.272 41.114 150.298 41.6071C150.349 42.5876 150.289 43.9221 149.819 45.2778C149.345 46.6453 148.454 48.0312 146.864 49.0751C145.282 50.1141 143.069 50.7742 140.018 50.8076C140.011 50.8077 140.004 50.8077 139.996 50.8076C136.811 50.7542 134.742 49.3425 133.486 47.1676C132.269 45.0617 131.841 42.2904 131.719 39.5031C131.709 39.2844 131.792 39.0715 131.948 38.9162C132.103 38.7611 132.317 38.6776 132.538 38.6861L149.338 39.3355ZM133.343 40.2846C133.51 42.6705 133.94 44.8055 134.854 46.3885C135.835 48.0859 137.393 49.1936 140.013 49.2403C142.842 49.2077 144.731 48.5977 145.994 47.7685C147.251 46.9431 147.949 45.8608 148.328 44.768C148.711 43.6634 148.768 42.5452 148.723 41.6885C148.706 41.3729 148.676 41.0972 148.645 40.8764L133.343 40.2846Z" fill="#E0840B"/>
<path d="M132.228 38.736C132.635 38.5835 133.09 38.7884 133.244 39.1932C133.398 39.598 133.192 40.0498 132.784 40.2023L124.331 43.3657C123.923 43.518 123.468 43.3138 123.315 42.9091C123.161 42.5043 123.367 42.0519 123.775 41.8994L132.228 38.736Z" fill="#E0840B"/>
<path d="M151.819 43.255C152.254 43.2477 152.614 43.5924 152.621 44.0249C152.629 44.4574 152.281 44.8144 151.845 44.8217L149.496 44.8608C149.06 44.8681 148.701 44.5235 148.693 44.091C148.686 43.6585 149.033 43.3016 149.469 43.2942L151.819 43.255Z" fill="#E0840B"/>
<path d="M166.381 38.9409C166.615 38.9331 166.841 39.0291 166.997 39.2028C167.153 39.3764 167.223 39.61 167.188 39.8399C166.987 41.1751 166.923 42.3861 166.819 43.5454C166.719 44.6716 166.579 45.768 166.193 46.7136C165.791 47.6975 165.125 48.5105 164.026 49.0722C162.959 49.6169 161.532 49.9006 159.638 49.9541C155.533 50.0689 153.26 47.5341 152.06 45.1188C151.461 43.9142 151.111 42.7123 150.91 41.8178C150.81 41.3687 150.746 40.9923 150.706 40.726C150.687 40.5929 150.673 40.4869 150.664 40.4127C150.66 40.3755 150.657 40.3459 150.655 40.3252C150.654 40.3149 150.653 40.3067 150.653 40.3007C150.653 40.2978 150.652 40.2952 150.652 40.2933C150.652 40.2925 150.652 40.2915 150.652 40.2909V40.2897C150.652 40.2893 150.666 40.288 151.437 40.2199L150.652 40.2891C150.632 40.0746 150.703 39.8616 150.846 39.7003C150.99 39.5392 151.194 39.4438 151.411 39.4366L166.381 38.9409ZM152.347 40.9733C152.375 41.1251 152.41 41.2941 152.451 41.4769C152.634 42.2928 152.949 43.3673 153.475 44.426C154.524 46.5377 156.34 48.479 159.594 48.388C161.378 48.3376 162.536 48.0713 163.304 47.6793C164.038 47.3042 164.457 46.7929 164.731 46.1243C165.02 45.4173 165.147 44.5321 165.248 43.4071C165.323 42.5611 165.384 41.5841 165.505 40.5369L152.347 40.9733Z" fill="#E0840B"/>
<path d="M207.528 150.018L206.132 146.87L171.429 139.972L175.991 150.018H207.528Z" fill="#4D4190"/>
<path d="M188.834 158.175V147.895L155.936 115.26L154.039 148.147L154.05 158.175H188.834Z" fill="#FF8D7E"/>
<path d="M97.0673 79.4902C97.4841 79.3642 97.9253 79.5978 98.0522 80.0116C99.4486 84.5659 101.359 89.0571 103.127 93.6312C103.439 94.402 103.757 94.6675 104.08 94.6979L104.146 94.701L104.207 94.7034C104.228 94.705 104.249 94.7075 104.269 94.7108C105.915 94.9693 107.52 95.1418 109.146 95.3166C110.756 95.4897 112.388 95.6653 114.067 95.928C114.185 95.9378 114.289 95.9635 114.358 95.9837C114.455 96.0121 114.549 96.0478 114.63 96.081C114.79 96.1467 114.946 96.2239 115.031 96.2652C115.299 96.396 115.471 96.6665 115.472 96.9635C115.474 97.2604 115.307 97.5329 115.04 97.6672H115.039L115.039 97.6678C115.006 97.6846 114.972 97.7006 114.939 97.7174C113.455 98.4641 111.972 99.2119 110.489 99.9591C109.242 100.587 107.996 101.215 106.749 101.843C107.127 102.392 107.452 102.887 107.846 103.405L108.098 103.727L108.104 103.736C109.37 105.357 110.282 106.986 111.319 108.705H111.318C111.547 109.055 111.66 109.399 111.742 109.647C111.81 109.849 111.86 109.994 111.927 110.122L112.001 110.247L112.029 110.292C113.425 112.722 114.898 114.962 116.338 117.276C117.68 119.434 118.979 121.634 120.094 124.026L120.314 124.507L120.327 124.537C121.323 127.016 122.181 129.536 122.584 132.224L122.659 132.764L122.66 132.775C122.927 135.167 123.016 137.509 123.077 139.811C123.138 142.122 123.171 144.382 123.324 146.657C123.353 147.088 123.024 147.462 122.589 147.491C122.154 147.52 121.778 147.193 121.749 146.761C121.593 144.445 121.56 142.138 121.499 139.852C121.439 137.561 121.352 135.278 121.093 132.958C120.754 130.264 119.907 127.719 118.864 125.126C117.747 122.649 116.412 120.377 114.995 118.1C113.583 115.829 112.072 113.529 110.658 111.068H110.658C110.437 110.722 110.326 110.384 110.245 110.141C110.155 109.872 110.095 109.705 109.986 109.542C109.979 109.532 109.972 109.521 109.966 109.51C108.897 107.74 108.052 106.227 106.865 104.706L106.604 104.371C106.006 103.584 105.475 102.741 104.943 102.012C104.807 101.827 104.76 101.591 104.814 101.368C104.869 101.146 105.018 100.957 105.224 100.854C106.741 100.09 108.258 99.3261 109.775 98.5619C110.633 98.1296 111.492 97.6975 112.35 97.2652C111.222 97.1166 110.104 96.9954 108.976 96.8741C107.371 96.7016 105.746 96.5263 104.074 96.2652C102.715 96.2268 102.021 95.1047 101.658 94.2028C101.656 94.1995 101.655 94.1957 101.654 94.1924C99.9114 89.6844 97.9604 85.0933 96.5422 80.4681C96.4153 80.0543 96.6505 79.6162 97.0673 79.4902Z" fill="#000091"/>
<path d="M173.766 84.466C173.834 84.0388 174.237 83.7474 174.668 83.8149C175.098 83.8825 175.392 84.2835 175.324 84.7108C174.631 89.0608 174.263 93.7243 172.835 98.167C172.763 98.3931 172.591 98.5743 172.368 98.6597C171.202 99.1062 169.951 99.5063 168.726 99.8977C167.496 100.291 166.292 100.676 165.178 101.101C164.713 101.299 164.249 101.471 163.803 101.633C163.804 101.639 163.805 101.646 163.806 101.653C164.672 101.885 165.546 102.103 166.429 102.323C168.076 102.733 169.751 103.152 171.399 103.687L171.231 104.196C171.218 104.19 171.205 104.183 171.192 104.177C171.162 104.165 171.131 104.154 171.102 104.146L171.154 104.432L171.592 104.576C171.585 104.559 171.577 104.541 171.568 104.524C171.523 104.435 171.422 104.29 171.231 104.196L171.399 103.687C171.788 103.813 172.015 104.212 171.923 104.608C171.428 106.748 170.516 108.738 169.646 110.643C168.698 112.875 167.962 115.112 167.215 117.384C166.475 119.637 165.722 121.925 164.749 124.218C164.623 124.602 164.621 124.843 164.621 125.35C164.621 125.44 164.605 125.53 164.574 125.615C162.995 129.979 161.621 134.096 161.105 138.539L161.104 138.546C160.758 141.297 160.759 144.028 160.647 146.812C160.629 147.244 160.262 147.58 159.827 147.563C159.391 147.546 159.052 147.181 159.07 146.749C159.179 144.048 159.181 141.19 159.538 138.351C160.072 133.761 161.481 129.536 163.043 125.212C163.044 124.738 163.059 124.303 163.258 123.707C163.264 123.687 163.272 123.668 163.28 123.649C164.231 121.413 164.968 119.174 165.716 116.899C166.46 114.633 167.216 112.331 168.196 110.025L168.204 110.006C168.947 108.38 169.66 106.811 170.14 105.183C170.099 105.089 170.08 105.003 170.073 104.942C170.071 104.933 170.071 104.924 170.07 104.915C168.751 104.519 167.409 104.182 166.045 103.843C164.401 103.433 162.725 103.019 161.075 102.494C160.765 102.395 160.548 102.116 160.529 101.792C160.51 101.469 160.694 101.168 160.991 101.034C161.579 100.77 162.192 100.548 162.789 100.333C163.394 100.116 163.985 99.9053 164.574 99.6542L164.602 99.6425C165.767 99.1971 167.018 98.7977 168.243 98.4063C169.347 98.0535 170.429 97.7066 171.445 97.3311C172.73 93.1528 173.067 88.8549 173.766 84.466Z" fill="#000091"/>
<path d="M130.806 158.175L130.828 150.406C130.828 150.406 131.72 141.368 130.629 131.322C129.54 121.277 128.013 113.946 128.013 113.946L83.6338 150.404V158.172H130.802L130.806 158.175Z" fill="#FF8D7E"/>
<path d="M87.3954 150.019L87.1189 148.884L80.1162 150.019H87.3954Z" fill="#4D4190"/>
<path d="M74.0668 99.9912C74.4166 99.7334 74.9109 99.8061 75.1706 100.153L74.537 100.62C75.1291 100.184 75.1679 100.156 75.1706 100.154L75.1712 100.155C75.1718 100.155 75.1732 100.157 75.1743 100.158C75.1766 100.161 75.1799 100.166 75.1842 100.172C75.1927 100.183 75.205 100.2 75.2211 100.222C75.254 100.266 75.3027 100.332 75.3654 100.418C75.4906 100.589 75.6731 100.842 75.9046 101.167C76.3678 101.819 77.0264 102.764 77.8115 103.942C79.3812 106.298 81.4595 109.589 83.4909 113.333C85.5211 117.074 87.5135 121.282 88.9028 125.467C90.2887 129.642 91.0946 133.854 90.6963 137.582C90.6503 138.012 90.2618 138.324 89.8285 138.279C89.3954 138.233 89.0818 137.847 89.1278 137.417C89.4924 134.005 88.7578 130.036 87.4039 125.958C86.0535 121.889 84.1065 117.77 82.1023 114.077C80.0994 110.386 78.0478 107.135 76.4963 104.807C75.7209 103.643 75.0711 102.711 74.6159 102.071C74.3884 101.751 74.2093 101.504 74.0877 101.338C74.027 101.254 73.9807 101.191 73.9497 101.149C73.9342 101.128 73.9222 101.112 73.9145 101.102C73.9107 101.097 73.9077 101.093 73.9059 101.09C73.9051 101.089 73.9044 101.088 73.9041 101.088L73.9035 101.087C73.6438 100.74 73.717 100.249 74.0668 99.9912Z" fill="#000091"/>
<path d="M144.085 157.408L201.91 157.137L201.846 143.553L144.021 143.824L144.085 157.408Z" fill="#000091"/>
<path d="M175.608 153.786L201.011 153.667L200.976 146.374L175.574 146.493L175.608 153.786Z" fill="white"/>
<path d="M172.167 153.802L174.545 153.791L174.51 146.498L172.132 146.509L172.167 153.802Z" fill="#000091"/>
<path d="M158.726 150.428C158.726 149.445 157.925 148.651 156.941 148.651C155.957 148.651 155.156 149.445 155.156 150.428C155.156 151.411 155.956 152.206 156.941 152.206C157.925 152.206 158.726 151.411 158.726 150.428ZM160.303 150.428C160.303 152.274 158.799 153.773 156.941 153.773C155.082 153.773 153.578 152.274 153.578 150.428C153.578 148.583 155.082 147.084 156.941 147.084C158.799 147.084 160.303 148.583 160.303 150.428Z" fill="white"/>
<path d="M194.929 146.664C195.364 146.662 195.719 147.011 195.721 147.443L195.747 152.862C195.749 153.295 195.398 153.647 194.963 153.649C194.527 153.651 194.172 153.302 194.17 152.87L194.144 147.451C194.142 147.018 194.493 146.666 194.929 146.664Z" fill="#000091"/>
<path d="M192.131 146.676C192.567 146.674 192.921 147.023 192.923 147.456L192.95 152.875C192.952 153.307 192.6 153.66 192.165 153.662C191.729 153.664 191.374 153.315 191.372 152.882L191.346 147.463C191.344 147.031 191.695 146.678 192.131 146.676Z" fill="#000091"/>
<path d="M189.333 146.689C189.769 146.687 190.124 147.037 190.126 147.469L190.152 152.888C190.154 153.321 189.802 153.673 189.367 153.675C188.931 153.677 188.576 153.328 188.574 152.896L188.548 147.476C188.546 147.044 188.897 146.692 189.333 146.689Z" fill="#000091"/>
<path d="M154.039 144.351H208.595V130.076H154.039V144.351Z" fill="#000091"/>
<path d="M178.549 140.152H203.952V132.86H178.549V140.152Z" fill="white"/>
<path d="M175.105 140.152H177.483V132.86H175.105V140.152Z" fill="#000091"/>
<path d="M165.195 136.366C165.195 135.383 164.395 134.589 163.41 134.589C162.426 134.589 161.626 135.383 161.626 136.366C161.626 137.349 162.426 138.144 163.41 138.144C164.395 138.144 165.195 137.349 165.195 136.366ZM166.773 136.366C166.773 138.211 165.269 139.71 163.41 139.71C161.552 139.71 160.048 138.211 160.048 136.366C160.048 134.521 161.552 133.022 163.41 133.022C165.269 133.022 166.773 134.521 166.773 136.366Z" fill="white"/>
<path d="M185.479 139.234V133.815C185.479 133.382 185.833 133.031 186.268 133.031C186.704 133.031 187.057 133.382 187.057 133.815V139.234C187.057 139.666 186.704 140.017 186.268 140.017C185.833 140.017 185.48 139.666 185.479 139.234Z" fill="#000091"/>
<path d="M199.917 139.234V133.815C199.917 133.382 200.27 133.031 200.706 133.031C201.142 133.031 201.495 133.382 201.495 133.815V139.234C201.495 139.666 201.142 140.017 200.706 140.017C200.27 140.017 199.917 139.666 199.917 139.234Z" fill="#000091"/>
<path d="M182.682 139.234V133.815C182.682 133.382 183.035 133.031 183.471 133.031C183.906 133.031 184.259 133.382 184.259 133.815V139.234C184.259 139.666 183.906 140.017 183.471 140.017C183.035 140.017 182.682 139.666 182.682 139.234Z" fill="#000091"/>
<path d="M179.884 139.234V133.815C179.884 133.382 180.237 133.031 180.673 133.031C181.108 133.031 181.462 133.382 181.462 133.815V139.234C181.462 139.666 181.108 140.017 180.673 140.017C180.237 140.017 179.884 139.666 179.884 139.234Z" fill="#000091"/>
<path d="M130.512 143.828L72.6875 143.556L72.6232 157.14L130.448 157.411L130.512 143.828Z" fill="#000091"/>
<path d="M98.9593 146.497L73.5566 146.377L73.5221 153.67L98.9248 153.789L98.9593 146.497Z" fill="white"/>
<path d="M102.403 146.515L100.024 146.503L99.9899 153.796L102.368 153.807L102.403 146.515Z" fill="#000091"/>
<path d="M119.367 150.429C119.367 149.446 118.567 148.652 117.582 148.652C116.598 148.652 115.798 149.446 115.798 150.429C115.798 151.412 116.598 152.207 117.582 152.207C118.567 152.207 119.367 151.412 119.367 150.429ZM120.945 150.429C120.945 152.274 119.441 153.773 117.582 153.773C115.724 153.773 114.22 152.274 114.22 150.429C114.22 148.584 115.724 147.085 117.582 147.085C119.441 147.085 120.945 148.583 120.945 150.429Z" fill="white"/>
<path d="M79.5945 146.664C80.03 146.666 80.3817 147.018 80.3797 147.451L80.3532 152.87C80.3511 153.302 79.9962 153.651 79.5606 153.649C79.125 153.647 78.7734 153.295 78.7754 152.862L78.8019 147.443C78.804 147.011 79.1588 146.662 79.5945 146.664Z" fill="#000091"/>
<path d="M82.3923 146.677C82.8279 146.679 83.1796 147.031 83.1775 147.464L83.151 152.883C83.1489 153.315 82.7941 153.665 82.3584 153.663C81.9228 153.66 81.5713 153.308 81.5733 152.876L81.5998 147.456C81.6018 147.024 81.9567 146.675 82.3923 146.677Z" fill="#000091"/>
<path d="M85.1902 146.69C85.6258 146.692 85.9774 147.044 85.9754 147.477L85.9489 152.896C85.9468 153.329 85.5919 153.678 85.1563 153.676C84.7207 153.674 84.3691 153.321 84.3711 152.889L84.3976 147.47C84.3997 147.037 84.7545 146.688 85.1902 146.69Z" fill="#000091"/>
<path d="M120.483 130.074H65.9277V144.349H120.483V130.074Z" fill="#000091"/>
<path d="M95.9762 132.857H70.5732V140.15H95.9762V132.857Z" fill="white"/>
<path d="M99.4172 132.857H97.0391V140.15H99.4172V132.857Z" fill="#000091"/>
<path d="M112.897 136.365C112.896 135.382 112.096 134.588 111.112 134.588C110.127 134.588 109.327 135.382 109.327 136.365C109.327 137.348 110.127 138.143 111.112 138.143C112.096 138.143 112.897 137.348 112.897 136.365ZM114.474 136.365C114.474 138.211 112.97 139.71 111.112 139.71C109.253 139.71 107.749 138.211 107.749 136.365C107.749 134.52 109.253 133.022 111.112 133.021C112.97 133.021 114.474 134.52 114.474 136.365Z" fill="white"/>
<path d="M87.4658 139.233V133.814C87.4658 133.381 87.819 133.031 88.2547 133.031C88.6904 133.031 89.0436 133.381 89.0436 133.814V139.233C89.0436 139.666 88.6904 140.017 88.2547 140.017C87.819 140.017 87.4659 139.666 87.4658 139.233Z" fill="#000091"/>
<path d="M73.0293 139.233V133.814C73.0293 133.381 73.3825 133.031 73.8182 133.031C74.2539 133.031 74.6071 133.381 74.6071 133.814V139.233C74.607 139.666 74.2538 140.017 73.8182 140.017C73.3825 140.017 73.0293 139.666 73.0293 139.233Z" fill="#000091"/>
<path d="M90.2637 139.233V133.814C90.2637 133.381 90.6169 133.031 91.0526 133.031C91.4883 133.031 91.8414 133.381 91.8414 133.814V139.233C91.8414 139.666 91.4882 140.017 91.0526 140.017C90.6169 140.017 90.2637 139.666 90.2637 139.233Z" fill="#000091"/>
<path d="M93.0605 139.233V133.814C93.0605 133.381 93.4137 133.031 93.8494 133.031C94.2851 133.031 94.6383 133.381 94.6383 133.814V139.233C94.6383 139.666 94.2851 140.017 93.8494 140.017C93.4138 140.017 93.0606 139.666 93.0605 139.233Z" fill="#000091"/>
<path d="M265.85 110.262L198.278 110.262V157.68H265.85V110.262Z" fill="white"/>
<path d="M236.982 109.811V157.949H235.404V109.811H236.982Z" fill="#000091"/>
<path d="M257.671 114.731C258.107 114.731 258.46 115.082 258.46 115.515C258.46 115.947 258.107 116.298 257.671 116.298H227.097C226.661 116.298 226.308 115.947 226.308 115.515C226.308 115.082 226.661 114.731 227.097 114.731H257.671Z" fill="#000091"/>
<path d="M265.239 131.767C265.674 131.767 266.027 132.118 266.027 132.55C266.027 132.983 265.674 133.334 265.239 133.334H245.595C245.159 133.334 244.806 132.983 244.806 132.55C244.806 132.118 245.159 131.767 245.595 131.767H265.239Z" fill="#000091"/>
<path d="M262.333 147.661C262.769 147.661 263.122 148.011 263.122 148.444C263.122 148.877 262.769 149.227 262.333 149.227H224.039C223.603 149.227 223.25 148.877 223.25 148.444C223.25 148.011 223.603 147.661 224.039 147.661H262.333Z" fill="#000091"/>
<path d="M229.39 127.508C229.825 127.508 230.179 127.859 230.179 128.292C230.179 128.724 229.825 129.075 229.39 129.075H209.592C209.156 129.075 208.803 128.724 208.803 128.292C208.803 127.859 209.156 127.508 209.592 127.508H229.39Z" fill="#000091"/>
<path d="M210.355 120.055C210.791 120.055 211.144 120.405 211.144 120.838C211.144 121.271 210.791 121.621 210.355 121.621H198.355C197.92 121.621 197.566 121.271 197.566 120.838C197.566 120.405 197.92 120.055 198.355 120.055H210.355Z" fill="#000091"/>
<path d="M221.745 141.957C222.181 141.957 222.534 142.308 222.534 142.74C222.534 143.173 222.181 143.524 221.745 143.524H198.278C197.842 143.524 197.489 143.173 197.489 142.74C197.489 142.308 197.842 141.957 198.278 141.957H221.745Z" fill="#000091"/>
<path d="M198.177 120.913C193.133 122.89 198.329 126.199 198.329 126.199C198.329 126.199 199.629 122.45 206.278 120.928C205.413 120.928 198.177 120.913 198.177 120.913Z" fill="white"/>
<path d="M198.26 120.129C198.313 120.13 198.391 120.13 198.491 120.13C198.691 120.13 198.977 120.131 199.323 120.132C200.014 120.133 200.946 120.135 201.905 120.137C203.822 120.14 205.846 120.144 206.278 120.144C206.679 120.144 207.017 120.443 207.062 120.839C207.108 121.235 206.847 121.602 206.456 121.691C203.265 122.421 201.41 123.672 200.363 124.693C199.837 125.206 199.508 125.668 199.314 125.991C199.217 126.152 199.153 126.279 199.116 126.36C199.097 126.4 199.085 126.43 199.078 126.446C199.077 126.449 199.076 126.452 199.075 126.455C198.996 126.682 198.817 126.86 198.588 126.939C198.36 127.018 198.107 126.988 197.904 126.858L198.33 126.199L197.903 126.858L197.903 126.858C197.902 126.857 197.901 126.857 197.901 126.856C197.899 126.855 197.898 126.854 197.896 126.853C197.892 126.851 197.887 126.847 197.881 126.843C197.869 126.835 197.852 126.825 197.83 126.81C197.788 126.782 197.728 126.741 197.655 126.689C197.51 126.585 197.311 126.436 197.088 126.25C196.653 125.887 196.089 125.349 195.691 124.709C195.295 124.073 194.99 123.21 195.334 122.298C195.672 121.405 196.542 120.711 197.888 120.184L197.958 120.16C198.03 120.139 198.104 120.129 198.179 120.129H198.26ZM199.075 126.455V126.456L199.074 126.457C199.074 126.458 199.074 126.459 199.074 126.46L199.073 126.46C199.073 126.46 199.074 126.457 199.075 126.455ZM198.332 121.696C197.262 122.139 196.914 122.575 196.812 122.848C196.712 123.112 196.76 123.446 197.033 123.885C197.294 124.304 197.694 124.703 198.064 125.017C198.324 124.614 198.708 124.111 199.258 123.575C199.891 122.957 200.738 122.302 201.859 121.703C200.915 121.701 200.001 121.7 199.319 121.699C198.974 121.698 198.688 121.697 198.488 121.697C198.428 121.697 198.376 121.696 198.332 121.696Z" fill="#000091"/>
<path d="M266.048 132.472C271.092 134.448 265.895 137.758 265.895 137.758C265.895 137.758 264.595 134.008 257.946 132.487C258.812 132.487 266.048 132.472 266.048 132.472Z" fill="white"/>
<path d="M265.15 138.017C265.15 138.015 265.148 138.01 265.146 138.005C265.14 137.989 265.128 137.959 265.109 137.919C265.072 137.838 265.008 137.711 264.911 137.55C264.717 137.227 264.387 136.765 263.861 136.252C262.814 135.231 260.959 133.98 257.769 133.25C257.378 133.161 257.117 132.794 257.162 132.398C257.208 132.003 257.545 131.703 257.946 131.703C258.378 131.703 260.402 131.7 262.32 131.696C263.278 131.694 264.21 131.692 264.902 131.691C265.248 131.69 265.534 131.689 265.733 131.689C265.833 131.689 265.911 131.689 265.965 131.688H266.046L266.121 131.692C266.195 131.698 266.268 131.716 266.337 131.743C267.683 132.27 268.553 132.964 268.89 133.857C269.235 134.769 268.93 135.632 268.534 136.268C268.136 136.908 267.571 137.446 267.136 137.809C266.914 137.995 266.714 138.144 266.569 138.248C266.496 138.3 266.437 138.341 266.394 138.369C266.373 138.384 266.356 138.394 266.344 138.403C266.338 138.406 266.333 138.41 266.329 138.412C266.327 138.414 266.325 138.415 266.324 138.415C266.323 138.416 266.323 138.416 266.322 138.417L266.321 138.417C266.118 138.547 265.865 138.577 265.636 138.498C265.408 138.419 265.228 138.241 265.149 138.014L265.15 138.015L265.15 138.017ZM265.737 133.256C265.537 133.256 265.251 133.257 264.905 133.258C264.224 133.259 263.309 133.26 262.366 133.262C263.487 133.862 264.334 134.517 264.967 135.134C265.517 135.67 265.9 136.173 266.16 136.576C266.531 136.262 266.931 135.864 267.192 135.444C267.465 135.006 267.513 134.671 267.413 134.407C267.31 134.134 266.963 133.698 265.892 133.255C265.848 133.255 265.796 133.256 265.737 133.256Z" fill="#000091"/>
<path d="M216.015 142.774C216.015 142.774 204.305 144.972 204.597 151.825C204.597 151.825 195.212 148.399 198.377 142.774H216.015Z" fill="white"/>
<path d="M216.015 141.991C216.422 141.991 216.762 142.299 216.8 142.701C216.838 143.104 216.561 143.468 216.161 143.543L216.162 143.544H216.161C216.16 143.544 216.158 143.544 216.156 143.545C216.152 143.545 216.144 143.547 216.135 143.549C216.115 143.553 216.085 143.559 216.045 143.567C215.964 143.584 215.844 143.61 215.69 143.645C215.382 143.716 214.94 143.825 214.408 143.977C213.343 144.282 211.935 144.757 210.543 145.433C207.683 146.824 205.261 148.881 205.385 151.792C205.396 152.053 205.274 152.303 205.061 152.457C204.848 152.612 204.572 152.65 204.324 152.56L204.597 151.825L204.324 152.56L204.323 152.559C204.322 152.559 204.321 152.559 204.32 152.558C204.319 152.558 204.316 152.557 204.314 152.556C204.308 152.554 204.3 152.551 204.29 152.547C204.269 152.539 204.241 152.528 204.204 152.514C204.13 152.485 204.025 152.443 203.893 152.388C203.63 152.278 203.261 152.116 202.829 151.903C201.969 151.48 200.841 150.847 199.805 150.019C198.778 149.197 197.783 148.138 197.278 146.845C196.757 145.512 196.784 143.999 197.688 142.392L197.746 142.303C197.893 142.108 198.127 141.991 198.377 141.991H216.015ZM198.862 143.557C198.395 144.591 198.44 145.487 198.749 146.278C199.113 147.209 199.872 148.061 200.794 148.798C201.709 149.53 202.729 150.105 203.53 150.5C203.648 150.558 203.761 150.612 203.867 150.661C204.33 147.407 207.236 145.297 209.849 144.026C210.196 143.858 210.542 143.702 210.884 143.557H198.862Z" fill="#000091"/>
<path d="M49.7969 157.697V103.419H36.1434V157.697H49.7969Z" fill="#000091"/>
<path d="M46.2705 133.312V108.039H38.9405V133.312H46.2705Z" fill="white"/>
<path d="M46.2705 136.738V134.372H38.9405V136.738H46.2705Z" fill="#000091"/>
<path d="M44.251 148.371C44.2509 147.388 43.4504 146.594 42.4662 146.594C41.4819 146.594 40.6814 147.388 40.6813 148.371C40.6813 149.354 41.4819 150.149 42.4662 150.149C43.4505 150.149 44.251 149.354 44.251 148.371ZM45.8288 148.371C45.8288 150.217 44.3248 151.716 42.4662 151.716C40.6076 151.716 39.1035 150.217 39.1035 148.371C39.1036 146.526 40.6076 145.027 42.4662 145.027C44.3247 145.027 45.8287 146.526 45.8288 148.371Z" fill="white"/>
<path d="M45.4316 113.268C45.8673 113.268 46.2205 113.618 46.2205 114.051C46.2205 114.484 45.8673 114.834 45.4316 114.834H39.9852C39.5495 114.834 39.1963 114.484 39.1963 114.051C39.1963 113.618 39.5495 113.268 39.9852 113.268H45.4316Z" fill="#000091"/>
<path d="M45.4316 116.051C45.8673 116.051 46.2205 116.402 46.2205 116.835C46.2205 117.267 45.8673 117.618 45.4316 117.618H39.9852C39.5495 117.618 39.1963 117.267 39.1963 116.835C39.1963 116.402 39.5495 116.051 39.9852 116.051H45.4316Z" fill="#000091"/>
<path d="M45.4316 118.834C45.8673 118.834 46.2205 119.185 46.2205 119.618C46.2205 120.05 45.8673 120.401 45.4316 120.401H39.9852C39.5495 120.401 39.1963 120.05 39.1963 119.618C39.1963 119.185 39.5495 118.834 39.9852 118.834H45.4316Z" fill="#000091"/>
<path d="M63.3936 157.753V103.475H49.7401V157.753H63.3936Z" fill="#000091"/>
<path d="M59.8672 133.368V108.095H52.5372V133.368H59.8672Z" fill="white"/>
<path d="M59.8691 136.792V134.426H52.5391V136.792H59.8691Z" fill="#000091"/>
<path d="M57.8477 148.427C57.8476 147.444 57.0471 146.65 56.0628 146.65C55.0786 146.65 54.2781 147.444 54.278 148.427C54.278 149.41 55.0785 150.205 56.0628 150.205C57.0471 150.205 57.8477 149.41 57.8477 148.427ZM59.4255 148.427C59.4255 150.273 57.9214 151.772 56.0628 151.772C54.2042 151.772 52.7002 150.273 52.7002 148.427C52.7003 146.582 54.2043 145.084 56.0628 145.083C57.9214 145.083 59.4254 146.582 59.4255 148.427Z" fill="white"/>
<path d="M58.9434 124.903C59.3791 124.903 59.7323 125.254 59.7323 125.687C59.7323 126.119 59.3791 126.47 58.9434 126.47H53.4988C53.0632 126.47 52.71 126.119 52.71 125.687C52.71 125.254 53.0632 124.903 53.4988 124.903H58.9434Z" fill="#000091"/>
<path d="M58.9434 110.541C59.3791 110.541 59.7323 110.891 59.7323 111.324C59.7323 111.756 59.3791 112.107 58.9434 112.107H53.4988C53.0632 112.107 52.71 111.756 52.71 111.324C52.71 110.891 53.0632 110.541 53.4988 110.541H58.9434Z" fill="#000091"/>
<path d="M58.9434 127.687C59.3791 127.687 59.7323 128.037 59.7323 128.47C59.7323 128.902 59.3791 129.253 58.9434 129.253H53.4988C53.0632 129.253 52.71 128.902 52.71 128.47C52.71 128.037 53.0632 127.687 53.4988 127.687H58.9434Z" fill="#000091"/>
<path d="M58.9434 130.47C59.3791 130.47 59.7323 130.82 59.7323 131.253C59.7323 131.686 59.3791 132.036 58.9434 132.036H53.4988C53.0632 132.036 52.71 131.686 52.71 131.253C52.71 130.82 53.0632 130.47 53.4988 130.47H58.9434Z" fill="#000091"/>
<path d="M36.335 157.753V103.475H22.6815L22.6815 157.753H36.335Z" fill="#000091"/>
<path d="M32.8086 133.368V108.095H25.4786V133.368H32.8086Z" fill="white"/>
<path d="M32.8086 136.792V134.426H25.4786V136.792H32.8086Z" fill="#000091"/>
<path d="M30.7891 148.427C30.789 147.444 29.9885 146.65 29.0042 146.65C28.02 146.65 27.2195 147.444 27.2194 148.427C27.2194 149.41 28.0199 150.205 29.0042 150.205C29.9886 150.205 30.7891 149.41 30.7891 148.427ZM32.3669 148.427C32.3669 150.273 30.8629 151.772 29.0042 151.772C27.1456 151.772 25.6416 150.273 25.6416 148.427C25.6417 146.582 27.1457 145.084 29.0042 145.083C30.8628 145.083 32.3668 146.582 32.3669 148.427Z" fill="white"/>
<path d="M31.8848 124.903C32.3205 124.903 32.6737 125.254 32.6737 125.687C32.6737 126.119 32.3205 126.47 31.8848 126.47H26.4403C26.0046 126.47 25.6514 126.119 25.6514 125.687C25.6514 125.254 26.0046 124.903 26.4403 124.903H31.8848Z" fill="#000091"/>
<path d="M31.8848 110.541C32.3205 110.541 32.6737 110.891 32.6737 111.324C32.6737 111.756 32.3205 112.107 31.8848 112.107H26.4403C26.0046 112.107 25.6514 111.756 25.6514 111.324C25.6514 110.891 26.0046 110.541 26.4403 110.541H31.8848Z" fill="#000091"/>
<path d="M31.8848 127.687C32.3205 127.687 32.6737 128.037 32.6737 128.47C32.6737 128.902 32.3205 129.253 31.8848 129.253H26.4403C26.0046 129.253 25.6514 128.902 25.6514 128.47C25.6514 128.037 26.0046 127.687 26.4403 127.687H31.8848Z" fill="#000091"/>
<path d="M31.8848 130.47C32.3205 130.47 32.6737 130.82 32.6737 131.253C32.6737 131.686 32.3205 132.036 31.8848 132.036H26.4403C26.0046 132.036 25.6514 131.686 25.6514 131.253C25.6514 130.82 26.0046 130.47 26.4403 130.47H31.8848Z" fill="#000091"/>
</g>
</g>
<defs>
<clipPath id="clip0_541_7336">
<rect width="284" height="158.625" fill="white"/>
</clipPath>
<clipPath id="clip1_541_7336">
<rect width="246.133" height="149.147" fill="white" transform="translate(22.6816 9.47852)"/>
</clipPath>
</defs>
</svg>
