<svg xmlns="http://www.w3.org/2000/svg" width="284" height="159" fill="none" viewBox="0 0 284 159"><g clip-path="url(#a)"><path fill="#e8edff" d="M1 0h282v158.625H1z"/><g clip-path="url(#b)"><path fill="#ff8d7e" d="m207.127 158.009-19.954-63.526a14.8 14.8 0 0 0-7.624-8.253l-27.263-12.143-33.734-3.27-28.333 11.918a32.23 32.23 0 0 0-16.718 16.06S49.72 138.54 54.309 158.627l152.82-.618z"/><path fill="#fff" d="M131.379 141.897c.049.095-.015 11.512-.002 16.278h22.5v-16.342l4.614-64.981-7.413-3.34-34.442-2.098-6.182 2.81s24.325 33.781 20.923 67.673z"/><path fill="#9388b1" d="M154.97 128.749c-4.562.732-8.856.807-12.466.603a69 69 0 0 1-11.332-1.608 78 78 0 0 1 .297 3.021 71.5 71.5 0 0 0 10.781 1.456q1.907.11 3.776.111c3.001 0 5.919-.214 8.743-.633z"/><path fill="#6a6af4" d="M145.805 125.071c3.19 0 6.317-.199 9.367-.586l.201-2.952c-6.639.906-12.82.745-17.849.221a86 86 0 0 1-7.226-1.075q.28 1.505.51 3.029c1.958.35 4.075.662 6.323.898a83 83 0 0 0 8.674.465M135.014 113.18a89 89 0 0 1-6.667-.889q.42 1.51.799 3.053a93 93 0 0 0 5.505.694c2.807.27 5.581.403 8.312.403 4.226 0 8.348-.322 12.324-.964.169-.028.338-.06.508-.088l.203-2.98c-7.815 1.402-15.149 1.323-20.982.771zM143.375 108.972c4.053 0 8.433-.367 12.948-1.325l.205-2.997c-8.617 1.966-16.778 1.631-23.013.713a76 76 0 0 1-7.915-1.606q.582 1.597 1.134 3.248c1.927.447 4.023.861 6.265 1.192a71 71 0 0 0 10.376.775M135.014 144.845a90 90 0 0 1-6.667-.889q.42 1.51.799 3.053c1.729.269 3.569.509 5.505.694a87 87 0 0 0 8.312.402c4.226 0 8.348-.322 12.324-.964q.253-.043.508-.088l.203-2.98c-7.815 1.403-15.149 1.324-20.982.772zM143.375 140.636c4.053 0 8.433-.367 12.948-1.325l.205-2.997c-8.617 1.966-16.778 1.631-23.013.713a76 76 0 0 1-7.915-1.606q.582 1.597 1.134 3.248c1.927.447 4.023.861 6.265 1.192a71 71 0 0 0 10.376.775M157.098 96.319c-9.383 2.302-18.671 1.931-25.747.938a91 91 0 0 1-9.095-1.762q.711 1.6 1.409 3.285c2.245.5 4.687.962 7.281 1.325 3.893.547 7.699.822 11.387.822 2.848 0 5.625-.163 8.314-.49a60 60 0 0 0 6.242-1.093l.207-3.027zM157.606 88.899c-10.021 2.356-19.936 1.815-27.441.647a97 97 0 0 1-12.114-2.7c.581 1.1 1.176 2.26 1.776 3.473 2.72.713 5.87 1.421 9.303 1.979 4.702.762 9.291 1.144 13.716 1.144q3.606 0 7.052-.34a63 63 0 0 0 7.501-1.184l.207-3.021zM157.966 83.631l.207-3.03c-18.102 5.265-36.485.648-44.953-2.175.66 1.06 1.411 2.3 2.224 3.708 3.26.95 7.612 2.03 12.588 2.778 3.637.544 7.834.941 12.355.941 5.522 0 11.524-.591 17.579-2.222"/><path fill="#fff" d="m124.646 54.63-1.981 12.421-6.209 5.001s8.626 12.862 20.355 15.79c3.974.992 10.233-.087 12.278-3.619 1.968-3.397 2.595-8.196 2.971-13.896.19-2.883-27.414-15.698-27.414-15.698"/><path fill="#000091" d="M124.276 53.937a.8.8 0 0 1 .703-.018l-.334.71.335-.71.001.001.004.002.015.007.06.027.232.109a407.41 407.41 0 0 1 4.008 1.907 378 378 0 0 1 9.489 4.73c3.443 1.785 6.899 3.669 9.488 5.293 1.292.81 2.393 1.57 3.173 2.234.388.33.722.658.963.974.219.288.465.702.434 1.175-.375 5.681-1.003 10.659-3.074 14.236-1.175 2.028-3.491 3.262-5.905 3.873-2.43.616-5.123.645-7.249.114-6.068-1.515-11.279-5.577-14.941-9.197a54 54 0 0 1-4.311-4.812 43 43 0 0 1-1.46-1.95l-.079-.113-.021-.03-.005-.009-.002-.002-.001-.001a.78.78 0 0 1 .16-1.043l5.973-4.814 1.934-12.123a.79.79 0 0 1 .41-.57m-.832 13.236a.79.79 0 0 1-.283.486l-5.637 4.54c.252.347.616.835 1.083 1.424a53 53 0 0 0 4.184 4.67c3.584 3.543 8.55 7.375 14.212 8.789l.353.08c1.796.377 4.056.331 6.122-.192 2.221-.563 4.056-1.634 4.927-3.137v-.001c1.858-3.208 2.486-7.81 2.863-13.503a1 1 0 0 0-.115-.182c-.143-.188-.381-.431-.729-.728-.694-.59-1.719-1.303-2.989-2.1-2.533-1.588-5.943-3.449-9.376-5.228a375 375 0 0 0-9.448-4.71 414 414 0 0 0-3.118-1.488l-.233-.11z"/><path fill="#fff" d="M159.43 28.669c-1.931-10.672-15.223-9.281-17.161-9.041-17.866 2.218-18.707 17.15-18.586 21.342l-.777.096s.086.715.239 1.872c-2.313.56-6.476 2.375-5.118 8.114 1.031 4.35 4.301 4.743 7.001 4.236.361 1.923.73 3.566 1.07 4.536 1.376 3.902 2.313 5.628 7.667 9.099 5.355 3.472 16.502 4.71 21.467-1.668 4.598-5.906 4.969-16.545 4.999-18.086.448-5.91.469-13.475-.801-20.502z"/><path fill="#000091" d="M142.172 18.85c.992-.122 4.919-.546 8.873.447 3.983 1 8.116 3.485 9.158 9.221l.003.01c1.283 7.102 1.262 14.726.813 20.67a48.6 48.6 0 0 1-.799 7.52c-.678 3.628-1.949 7.913-4.364 11.016-2.684 3.446-6.988 4.776-11.201 4.832-4.082.054-8.23-1.082-11.053-2.818l-.269-.17c-2.7-1.75-4.358-3.104-5.513-4.557-1.162-1.462-1.775-2.976-2.467-4.938v-.002c-.314-.896-.641-2.294-.958-3.905-1.234.145-2.59.084-3.82-.47-1.494-.674-2.678-2.016-3.262-4.255l-.054-.22c-.732-3.092.012-5.257 1.372-6.711 1.085-1.161 2.499-1.802 3.644-2.156-.036-.276-.067-.512-.09-.699l-.047-.374-.015-.123-.001-.007v-.002a.784.784 0 0 1 .687-.87l.077-.01c.005-2.41.375-6.844 2.648-11.089 2.548-4.757 7.447-9.199 16.637-10.34zm8.486 1.966c-3.658-.919-7.344-.528-8.291-.411-8.676 1.077-13.131 5.21-15.44 9.521-2.335 4.36-2.515 8.984-2.456 11.022a.785.785 0 0 1-.686.798c.038.293.085.661.142 1.09a.784.784 0 0 1-.596.863c-1.095.265-2.537.81-3.544 1.886-.961 1.029-1.619 2.642-.992 5.288l.093.36c.494 1.738 1.378 2.612 2.339 3.046 1.072.483 2.377.48 3.654.24a.785.785 0 0 1 .922.626c.361 1.923.721 3.513 1.039 4.42.684 1.94 1.228 3.24 2.217 4.485.995 1.253 2.483 2.496 5.137 4.217 2.53 1.64 6.497 2.784 10.438 2.732 3.94-.052 7.692-1.292 9.974-4.223 2.182-2.803 3.396-6.79 4.061-10.344a47 47 0 0 0 .775-7.322c.445-5.87.463-13.365-.791-20.305-.893-4.926-4.367-7.078-7.995-7.989"/><path fill="#000091" d="M138.166 56.86a.783.783 0 0 1 .677-.88l7.772-1.03a.79.79 0 0 1 .886.674.785.785 0 0 1-.677.88l-7.772 1.029a.787.787 0 0 1-.886-.673M151.188 43.575a.79.79 0 0 1 .903.65l1.648 10.294a.78.78 0 0 1-.236.69.79.79 0 0 1-.705.2l-3.707-.773a.784.784 0 1 1 .324-1.534l2.586.54-1.468-9.17a.783.783 0 0 1 .655-.897M155.969 46.377c.589-.026 1.033-.781.994-1.687-.04-.906-.55-1.62-1.138-1.593-.589.025-1.034.78-.994 1.686s.549 1.62 1.138 1.594M145.524 46.326c.588-.025 1.033-.78.993-1.686s-.549-1.62-1.138-1.594-1.033.781-.993 1.687.549 1.619 1.138 1.593M141.876 40.989c.917-.571 2.28-1.064 4.026-.762.429.074.716.48.642.906a.79.79 0 0 1-.913.637c-1.285-.222-2.256.136-2.916.546a4.3 4.3 0 0 0-.937.793l-.038.048-.005.004.001.001h-.001l-.002.004a.793.793 0 0 1-1.1.167.78.78 0 0 1-.172-1.095l.493.357c-.483-.35-.492-.357-.492-.358h.001l.003-.006.008-.01.022-.028.075-.092c.063-.075.154-.176.271-.293.234-.234.58-.536 1.034-.82M152.699 37.19a.79.79 0 0 1-.983-.52.78.78 0 0 1 .522-.978l.207.669-.206-.67h.002l.005-.002.011-.003.035-.01.118-.03a5.298 5.298 0 0 1 1.696-.135c1.024.09 2.314.575 2.874 2.146a.78.78 0 0 1-.48 1 .79.79 0 0 1-1.007-.476c-.284-.798-.878-1.053-1.526-1.11-.333-.03-.655 0-.9.04a4 4 0 0 0-.353.075z"/><path fill="#000091" d="M162.984 25.136c-1.033-2.207-2.299-2.837-3.421-2.83a11 11 0 0 0-.199-1.2c-.777-3.51-3.018-6.512-6.094-8.343h.006s-3.773-4.015-15.678-3.163-12.215 7.64-12.215 7.64c-5.407 3.634-9.32 8.185-9.612 12.08-.814 10.905 3.797 13.554 5.701 14.181.207-.092.41-.168.61-.241.062.18.124.327.184.428 7.503-.507 7.902-11.02 10.276-16.071.254-.54.915-.744 1.434-.45 3.332 1.876 7.868 2.488 13.243 1.749 5.81-.8 8.408-3.491 9.567-5.623q.057.057.113.117l.158.177.074.082q.066.08.133.159.046.054.092.112.06.074.117.15l.102.133.101.142q.054.076.107.154a6 6 0 0 1 .202.309q.038.06.077.125.06.097.117.198.031.056.064.114l.12.225.053.101q.064.126.124.255c.393.833.696 1.77.888 2.828.628 3.472.939 7.078 1.04 10.548a.56.56 0 0 0 .427-.14c2.373-1.887 4.542-8.695 2.087-13.94z"/><path fill="#e0840b" d="m149.338 39.336.066.005c.321.039.589.27.669.586l-.765.191.765-.19.001.002v.003l.002.008.007.028.022.097q.027.124.064.345c.049.291.103.703.129 1.196.051.98-.009 2.315-.479 3.67a7.32 7.32 0 0 1-2.955 3.798c-1.582 1.04-3.795 1.7-6.846 1.733h-.022c-3.185-.054-5.254-1.465-6.51-3.64-1.217-2.106-1.645-4.878-1.767-7.665a.78.78 0 0 1 .229-.587.8.8 0 0 1 .59-.23zm-15.995.949c.167 2.386.597 4.52 1.511 6.104.981 1.697 2.539 2.805 5.159 2.851 2.829-.032 4.718-.642 5.981-1.471a5.76 5.76 0 0 0 2.334-3.001c.383-1.105.44-2.223.395-3.08a10 10 0 0 0-.078-.812z"/><path fill="#e0840b" d="M132.228 38.736a.79.79 0 0 1 1.016.457.78.78 0 0 1-.46 1.01l-8.453 3.163a.79.79 0 0 1-1.016-.457.78.78 0 0 1 .46-1.01zM151.819 43.255a.786.786 0 0 1 .802.77.786.786 0 0 1-.776.797l-2.349.039a.787.787 0 0 1-.803-.77.787.787 0 0 1 .776-.797z"/><path fill="#e0840b" d="M166.381 38.94a.8.8 0 0 1 .616.263.78.78 0 0 1 .191.637c-.201 1.335-.265 2.546-.369 3.705-.1 1.127-.24 2.223-.626 3.169-.402.983-1.068 1.797-2.167 2.358-1.067.545-2.494.829-4.388.882-4.105.115-6.378-2.42-7.578-4.835a14.8 14.8 0 0 1-1.15-3.301 16 16 0 0 1-.246-1.405l-.009-.088-.002-.024-.001-.008v-.003l.785-.07-.785.07a.78.78 0 0 1 .194-.59.8.8 0 0 1 .565-.263zm-14.034 2.033q.042.229.104.504c.183.816.498 1.89 1.024 2.949 1.049 2.112 2.865 4.053 6.119 3.962 1.784-.05 2.942-.317 3.71-.709.734-.375 1.153-.886 1.427-1.555.289-.707.416-1.592.517-2.717.075-.846.136-1.823.257-2.87z"/><path fill="#4d4190" d="m207.528 150.018-1.396-3.148-34.703-6.898 4.562 10.046z"/><path fill="#ff8d7e" d="M188.834 158.175v-10.28l-32.898-32.635-1.897 32.887.011 10.028z"/><path fill="#000091" d="M97.067 79.49a.79.79 0 0 1 .985.522c1.397 4.554 3.307 9.045 5.075 13.62.312.77.63 1.035.953 1.066l.066.003.061.002.062.008c1.646.258 3.251.43 4.877.606 1.61.173 3.242.348 4.921.611.118.01.222.035.291.056.097.028.191.064.272.097.16.066.316.143.401.184a.782.782 0 0 1 .009 1.402h-.001q-.05.027-.1.05l-4.45 2.242-3.74 1.884c.378.549.703 1.044 1.097 1.562l.252.322.006.009c1.266 1.621 2.178 3.25 3.215 4.969h-.001c.229.35.342.694.424.942.068.202.118.347.185.475l.074.125.028.045c1.396 2.43 2.869 4.67 4.309 6.984 1.342 2.158 2.641 4.358 3.756 6.75l.22.481.013.03c.996 2.479 1.854 4.999 2.257 7.687l.075.54.001.011c.267 2.392.356 4.734.417 7.036.061 2.311.094 4.571.247 6.846a.786.786 0 0 1-.735.834.787.787 0 0 1-.84-.73c-.156-2.316-.189-4.623-.25-6.909-.06-2.291-.147-4.574-.406-6.894-.339-2.694-1.186-5.239-2.229-7.832-1.117-2.477-2.452-4.749-3.869-7.026-1.412-2.271-2.923-4.571-4.337-7.032-.221-.346-.332-.684-.413-.927-.09-.269-.15-.436-.259-.599l-.02-.032c-1.069-1.77-1.914-3.283-3.101-4.804l-.261-.335c-.598-.787-1.129-1.63-1.661-2.359a.778.778 0 0 1 .281-1.158l4.551-2.292 2.575-1.297c-1.128-.148-2.246-.27-3.374-.39-1.605-.173-3.23-.349-4.902-.61-1.359-.038-2.053-1.16-2.416-2.062l-.004-.01c-1.743-4.509-3.694-9.1-5.112-13.725a.783.783 0 0 1 .525-.978M173.766 84.466a.787.787 0 0 1 .902-.651c.43.067.724.469.656.896-.693 4.35-1.061 9.013-2.489 13.456a.78.78 0 0 1-.467.493c-1.166.446-2.417.846-3.642 1.238-1.23.393-2.434.778-3.548 1.203-.465.198-.929.37-1.375.532l.003.02c.866.232 1.74.45 2.623.67 1.647.41 3.322.829 4.97 1.364l-.168.509-.039-.019a1 1 0 0 0-.09-.031l.052.286.438.144-.024-.052a.75.75 0 0 0-.337-.328l.168-.509a.78.78 0 0 1 .524.921c-.495 2.14-1.407 4.13-2.277 6.035-.948 2.232-1.684 4.469-2.431 6.741-.74 2.253-1.493 4.541-2.466 6.834-.126.384-.128.625-.128 1.132q0 .136-.047.265c-1.579 4.364-2.953 8.481-3.469 12.924l-.001.007c-.346 2.751-.345 5.482-.457 8.266a.787.787 0 0 1-.82.751.785.785 0 0 1-.757-.814c.109-2.701.111-5.559.468-8.398.534-4.59 1.943-8.815 3.505-13.139.001-.474.016-.909.215-1.505l.022-.058c.951-2.236 1.688-4.475 2.436-6.75.744-2.266 1.5-4.568 2.48-6.874l.008-.019c.743-1.626 1.456-3.195 1.936-4.823a.9.9 0 0 1-.067-.241l-.003-.027c-1.319-.396-2.661-.733-4.025-1.072-1.644-.41-3.32-.824-4.97-1.349a.782.782 0 0 1-.084-1.46 25 25 0 0 1 1.798-.701c.605-.217 1.196-.428 1.785-.679l.028-.011c1.165-.446 2.416-.845 3.641-1.237 1.104-.353 2.186-.7 3.202-1.075 1.285-4.178 1.622-8.476 2.321-12.865"/><path fill="#ff8d7e" d="m130.806 158.175.022-7.769s.892-9.038-.199-19.084c-1.089-10.045-2.616-17.376-2.616-17.376l-44.38 36.458v7.768h47.169z"/><path fill="#4d4190" d="m87.395 150.019-.276-1.135-7.003 1.135z"/><path fill="#000091" d="M74.067 99.991a.793.793 0 0 1 1.104.162l-.634.467.634-.466v.001l.003.003.01.014.037.05.144.196c.126.171.308.424.54.749a123.1 123.1 0 0 1 7.586 12.166c2.03 3.741 4.022 7.949 5.412 12.134 1.386 4.175 2.192 8.387 1.793 12.115a.789.789 0 0 1-1.568-.165c.364-3.412-.37-7.381-1.724-11.459-1.35-4.069-3.297-8.188-5.302-11.881a122 122 0 0 0-7.486-12.006 65 65 0 0 0-.71-.981l-.002-.002v-.001a.78.78 0 0 1 .163-1.096M144.085 157.408l57.825-.271-.064-13.584-57.825.271z"/><path fill="#fff" d="m175.608 153.786 25.403-.119-.035-7.293-25.402.119z"/><path fill="#000091" d="m172.167 153.802 2.378-.011-.035-7.293-2.378.011z"/><path fill="#fff" d="M158.726 150.428c0-.983-.801-1.777-1.785-1.777s-1.785.794-1.785 1.777.8 1.778 1.785 1.778 1.785-.795 1.785-1.778m1.577 0a3.354 3.354 0 0 1-3.362 3.345 3.354 3.354 0 0 1-3.363-3.345 3.354 3.354 0 0 1 3.363-3.344 3.353 3.353 0 0 1 3.362 3.344"/><path fill="#000091" d="M194.929 146.664a.786.786 0 0 1 .792.779l.026 5.419a.785.785 0 0 1-.784.787.786.786 0 0 1-.793-.779l-.026-5.419a.785.785 0 0 1 .785-.787M192.131 146.676a.786.786 0 0 1 .792.78l.027 5.419a.787.787 0 0 1-.785.787.786.786 0 0 1-.793-.78l-.026-5.419a.786.786 0 0 1 .785-.787M189.333 146.689a.787.787 0 0 1 .793.78l.026 5.419a.786.786 0 0 1-.785.787.786.786 0 0 1-.793-.779l-.026-5.42a.787.787 0 0 1 .785-.787M154.039 144.351h54.556v-14.275h-54.556z"/><path fill="#fff" d="M178.549 140.152h25.403v-7.292h-25.403z"/><path fill="#000091" d="M175.105 140.152h2.378v-7.292h-2.378z"/><path fill="#fff" d="M165.195 136.366c0-.983-.8-1.777-1.785-1.777a1.78 1.78 0 0 0-1.784 1.777c0 .983.8 1.778 1.784 1.778.985 0 1.785-.795 1.785-1.778m1.578 0a3.354 3.354 0 0 1-3.363 3.344 3.353 3.353 0 0 1-3.362-3.344 3.353 3.353 0 0 1 3.362-3.344 3.354 3.354 0 0 1 3.363 3.344"/><path fill="#000091" d="M185.479 139.234v-5.419c0-.433.354-.784.789-.784s.789.351.789.784v5.419a.786.786 0 0 1-.789.783.787.787 0 0 1-.789-.783M199.917 139.234v-5.419c0-.433.353-.784.789-.784s.789.351.789.784v5.419a.786.786 0 0 1-.789.783.786.786 0 0 1-.789-.783M182.682 139.234v-5.419c0-.433.353-.784.789-.784.435 0 .788.351.788.784v5.419a.786.786 0 0 1-.788.783.786.786 0 0 1-.789-.783M179.884 139.234v-5.419c0-.433.353-.784.789-.784.435 0 .789.351.789.784v5.419a.787.787 0 0 1-.789.783.786.786 0 0 1-.789-.783M130.512 143.828l-57.824-.272-.065 13.584 57.825.271z"/><path fill="#fff" d="m98.96 146.497-25.403-.12-.035 7.293 25.403.119z"/><path fill="#000091" d="m102.403 146.515-2.379-.012-.034 7.293 2.378.011z"/><path fill="#fff" d="M119.367 150.429c0-.983-.8-1.777-1.785-1.777a1.78 1.78 0 0 0-1.784 1.777c0 .983.8 1.778 1.784 1.778.985 0 1.785-.795 1.785-1.778m1.578 0a3.354 3.354 0 0 1-3.363 3.344 3.353 3.353 0 0 1-3.362-3.344 3.353 3.353 0 0 1 3.362-3.344 3.353 3.353 0 0 1 3.363 3.344"/><path fill="#000091" d="M79.595 146.664a.786.786 0 0 1 .785.787l-.027 5.419a.786.786 0 0 1-.792.779.786.786 0 0 1-.786-.787l.027-5.419a.786.786 0 0 1 .792-.779M82.392 146.677a.786.786 0 0 1 .785.787l-.026 5.419a.787.787 0 0 1-.793.78.787.787 0 0 1-.785-.787l.027-5.42a.786.786 0 0 1 .792-.779M85.19 146.69a.786.786 0 0 1 .785.787l-.026 5.419a.786.786 0 0 1-.793.78.787.787 0 0 1-.785-.787l.027-5.419a.786.786 0 0 1 .792-.78M120.483 130.074H65.928v14.275h54.555z"/><path fill="#fff" d="M95.976 132.857H70.573v7.293h25.403z"/><path fill="#000091" d="M99.417 132.857H97.04v7.293h2.378z"/><path fill="#fff" d="M112.897 136.365a1.78 1.78 0 0 0-1.785-1.777 1.78 1.78 0 0 0-1.785 1.777c0 .983.8 1.778 1.785 1.778s1.785-.795 1.785-1.778m1.577 0a3.354 3.354 0 0 1-3.362 3.345 3.354 3.354 0 0 1-3.363-3.345c0-1.845 1.504-3.343 3.363-3.344a3.353 3.353 0 0 1 3.362 3.344"/><path fill="#000091" d="M87.466 139.233v-5.419c0-.433.353-.783.789-.783.435 0 .789.35.789.783v5.419a.786.786 0 0 1-.79.784.787.787 0 0 1-.788-.784M73.03 139.233v-5.419c0-.433.352-.783.788-.783s.79.35.79.783v5.419a.787.787 0 0 1-.79.784.786.786 0 0 1-.789-.784M90.264 139.233v-5.419c0-.433.353-.783.789-.783.435 0 .788.35.788.783v5.419a.786.786 0 0 1-.788.784.786.786 0 0 1-.79-.784M93.06 139.233v-5.419c0-.433.354-.783.79-.783.435 0 .788.35.788.783v5.419a.786.786 0 0 1-.789.784.787.787 0 0 1-.788-.784"/><path fill="#fff" d="M265.85 110.262h-67.572v47.418h67.572z"/><path fill="#000091" d="M236.982 109.811v48.138h-1.578v-48.138z"/><path fill="#000091" d="M257.671 114.731c.436 0 .789.351.789.784a.786.786 0 0 1-.789.783h-30.574a.786.786 0 0 1-.789-.783c0-.433.353-.784.789-.784zM265.239 131.767c.435 0 .788.351.788.783a.786.786 0 0 1-.788.784h-19.644a.786.786 0 0 1-.789-.784c0-.432.353-.783.789-.783zM262.333 147.661c.436 0 .789.35.789.783a.785.785 0 0 1-.789.783h-38.294a.785.785 0 0 1-.789-.783c0-.433.353-.783.789-.783zM229.39 127.508c.435 0 .789.351.789.784a.787.787 0 0 1-.789.783h-19.798a.786.786 0 0 1-.789-.783c0-.433.353-.784.789-.784zM210.355 120.055c.436 0 .789.35.789.783a.785.785 0 0 1-.789.783h-12a.786.786 0 0 1-.789-.783c0-.433.354-.783.789-.783zM221.745 141.957c.436 0 .789.351.789.783a.786.786 0 0 1-.789.784h-23.467a.786.786 0 0 1-.789-.784c0-.432.353-.783.789-.783z"/><path fill="#fff" d="M198.177 120.913c-5.044 1.977.152 5.286.152 5.286s1.3-3.749 7.949-5.271c-.865 0-8.101-.015-8.101-.015"/><path fill="#000091" d="m198.26 120.129.231.001.832.002 2.582.005 4.373.007a.782.782 0 0 1 .178 1.547c-3.191.73-5.046 1.981-6.093 3.002a6.6 6.6 0 0 0-1.049 1.298 4 4 0 0 0-.198.369q-.028.061-.038.086l-.003.009a.79.79 0 0 1-1.171.403l.426-.659-.427.659-.002-.002-.005-.003-.015-.01-.051-.033-.175-.121a10 10 0 0 1-.567-.439c-.435-.363-.999-.901-1.397-1.541-.396-.636-.701-1.499-.357-2.411.338-.893 1.208-1.587 2.554-2.114l.07-.024a.8.8 0 0 1 .221-.031zm.815 6.326v.001l-.001.001v.003h-.001zm-.743-4.759c-1.07.443-1.418.879-1.52 1.152-.1.264-.052.598.221 1.037.261.419.661.818 1.031 1.132.26-.403.644-.906 1.194-1.442.633-.618 1.48-1.273 2.601-1.872l-2.54-.004-.831-.002z"/><path fill="#fff" d="M266.048 132.472c5.044 1.976-.153 5.286-.153 5.286s-1.3-3.75-7.949-5.271c.866 0 8.102-.015 8.102-.015"/><path fill="#000091" d="m265.15 138.017-.004-.012-.037-.086a4 4 0 0 0-.198-.369 6.6 6.6 0 0 0-1.05-1.298c-1.047-1.021-2.902-2.272-6.092-3.002a.784.784 0 0 1-.607-.852.79.79 0 0 1 .784-.695l4.374-.007 2.582-.005.831-.002.232-.001h.081l.075.004a.8.8 0 0 1 .216.051c1.346.527 2.216 1.221 2.553 2.114.345.912.04 1.775-.356 2.411-.398.64-.963 1.178-1.398 1.541a10 10 0 0 1-.742.56l-.05.034-.015.009-.005.003-.002.002h-.001a.793.793 0 0 1-1.172-.403l.001.001zm.587-4.761-.832.002-2.539.004c1.121.6 1.968 1.255 2.601 1.872.55.536.933 1.039 1.193 1.442.371-.314.771-.712 1.032-1.132.273-.438.321-.773.221-1.037-.103-.273-.45-.709-1.521-1.152z"/><path fill="#fff" d="M216.015 142.774s-11.71 2.198-11.418 9.051c0 0-9.385-3.426-6.22-9.051z"/><path fill="#000091" d="M216.015 141.991c.407 0 .747.308.785.71a.783.783 0 0 1-.639.842l.001.001h-.001l-.005.001-.021.004-.09.018a22 22 0 0 0-1.637.41c-1.065.305-2.473.78-3.865 1.456-2.86 1.391-5.282 3.448-5.158 6.359a.78.78 0 0 1-.324.665.79.79 0 0 1-.737.103l.273-.735-.273.735-.001-.001-.003-.001-.006-.002-.024-.009-.086-.033-.311-.126c-.263-.11-.632-.272-1.064-.485-.86-.423-1.988-1.056-3.024-1.884-1.027-.822-2.022-1.881-2.527-3.174-.521-1.333-.494-2.846.41-4.453l.058-.089a.79.79 0 0 1 .631-.312zm-17.153 1.566c-.467 1.034-.422 1.93-.113 2.721.364.931 1.123 1.783 2.045 2.52.915.732 1.935 1.307 2.736 1.702q.178.087.337.161c.463-3.254 3.369-5.364 5.982-6.635a23 23 0 0 1 1.035-.469zM49.797 157.697v-54.278H36.143v54.278z"/><path fill="#fff" d="M46.27 133.312v-25.273h-7.33v25.273z"/><path fill="#000091" d="M46.27 136.738v-2.366h-7.33v2.366z"/><path fill="#fff" d="M44.251 148.371c0-.983-.8-1.777-1.785-1.777a1.78 1.78 0 0 0-1.785 1.777c0 .983.8 1.778 1.785 1.778s1.785-.795 1.785-1.778m1.578 0a3.354 3.354 0 0 1-3.363 3.345 3.354 3.354 0 0 1-3.363-3.345 3.354 3.354 0 0 1 3.363-3.344 3.354 3.354 0 0 1 3.363 3.344"/><path fill="#000091" d="M45.432 113.268c.435 0 .788.35.788.783a.786.786 0 0 1-.788.783h-5.447a.786.786 0 0 1-.789-.783c0-.433.354-.783.79-.783zM45.432 116.051c.435 0 .788.351.788.784a.786.786 0 0 1-.788.783h-5.447a.786.786 0 0 1-.789-.783c0-.433.354-.784.79-.784zM45.432 118.834c.435 0 .788.351.788.784a.786.786 0 0 1-.788.783h-5.447a.786.786 0 0 1-.789-.783c0-.433.354-.784.79-.784zM63.394 157.753v-54.278H49.74v54.278z"/><path fill="#fff" d="M59.867 133.368v-25.273h-7.33v25.273z"/><path fill="#000091" d="M59.87 136.792v-2.366h-7.33v2.366z"/><path fill="#fff" d="M57.848 148.427c0-.983-.8-1.777-1.785-1.777a1.78 1.78 0 0 0-1.785 1.777c0 .983.8 1.778 1.785 1.778s1.785-.795 1.785-1.778m1.578 0a3.354 3.354 0 0 1-3.363 3.345 3.354 3.354 0 0 1-3.363-3.345 3.354 3.354 0 0 1 3.363-3.344 3.354 3.354 0 0 1 3.362 3.344"/><path fill="#000091" d="M58.943 124.903c.436 0 .79.351.79.784a.786.786 0 0 1-.79.783H53.5a.786.786 0 0 1-.789-.783c0-.433.353-.784.789-.784zM58.943 110.541c.436 0 .79.35.79.783a.786.786 0 0 1-.79.783H53.5a.786.786 0 0 1-.789-.783c0-.433.353-.783.789-.783zM58.943 127.687c.436 0 .79.35.79.783a.786.786 0 0 1-.79.783H53.5a.786.786 0 0 1-.789-.783c0-.433.353-.783.789-.783zM58.943 130.47c.436 0 .79.35.79.783a.786.786 0 0 1-.79.783H53.5a.786.786 0 0 1-.789-.783c0-.433.353-.783.789-.783zM36.335 157.753v-54.278H22.681v54.278z"/><path fill="#fff" d="M32.809 133.368v-25.273h-7.33v25.273z"/><path fill="#000091" d="M32.809 136.792v-2.366h-7.33v2.366z"/><path fill="#fff" d="M30.79 148.427c-.001-.983-.802-1.777-1.786-1.777a1.78 1.78 0 0 0-1.785 1.777c0 .983.8 1.778 1.785 1.778s1.785-.795 1.785-1.778m1.577 0a3.354 3.354 0 0 1-3.363 3.345 3.354 3.354 0 0 1-3.362-3.345 3.354 3.354 0 0 1 3.362-3.344 3.354 3.354 0 0 1 3.363 3.344"/><path fill="#000091" d="M31.885 124.903c.436 0 .789.351.789.784a.786.786 0 0 1-.79.783H26.44a.786.786 0 0 1-.789-.783c0-.433.354-.784.79-.784zM31.885 110.541c.436 0 .789.35.789.783a.786.786 0 0 1-.79.783H26.44a.786.786 0 0 1-.789-.783c0-.433.354-.783.79-.783zM31.885 127.687c.436 0 .789.35.789.783a.786.786 0 0 1-.79.783H26.44a.786.786 0 0 1-.789-.783c0-.433.354-.783.79-.783zM31.885 130.47c.436 0 .789.35.789.783a.786.786 0 0 1-.79.783H26.44a.786.786 0 0 1-.789-.783c0-.433.354-.783.79-.783z"/></g></g><defs><clipPath id="a"><path fill="#fff" d="M0 0h284v158.625H0z"/></clipPath><clipPath id="b"><path fill="#fff" d="M22.682 9.479h246.133v149.147H22.682z"/></clipPath></defs></svg>