<svg width="280" height="159" viewBox="0 0 280 159" fill="none" xmlns="http://www.w3.org/2000/svg">
<g clip-path="url(#clip0_541_26409)">
<rect width="282" height="158.625" fill="#E8EDFF"/>
<path fill-rule="evenodd" clip-rule="evenodd" d="M205.368 77.3113C234.721 75.6284 238.922 93.2493 237.813 106.653C236.683 120.374 233.71 157.853 233.71 157.853C233.888 158.051 163.984 158.051 164.182 157.853C164.182 157.853 166.977 120.374 168.106 106.653C169.216 93.2493 176.272 75.6086 205.368 77.3113Z" fill="#FF8D7E"/>
<path fill-rule="evenodd" clip-rule="evenodd" d="M227.602 113.166L225.029 146.283C224.646 151.169 224.347 154.923 224.096 158.001C224.069 158.327 223.782 158.571 223.454 158.544C223.127 158.517 222.884 158.231 222.91 157.904L223.422 151.537C223.642 148.768 223.894 145.555 224.19 141.753L226.604 110.7L226.934 106.585C227.483 99.9282 226.592 93.9371 223.899 89.1581C220.597 83.2979 214.722 79.504 205.839 78.2362C205.514 78.1898 205.288 77.889 205.334 77.5642C205.381 77.2395 205.682 77.0139 206.007 77.0602C215.246 78.3787 221.446 82.3829 224.935 88.5754C227.732 93.5399 228.668 99.6851 228.136 106.476L227.693 112.006C227.664 112.38 227.634 112.766 227.602 113.166Z" fill="#000091"/>
<path fill-rule="evenodd" clip-rule="evenodd" d="M168.107 124.195C168.107 124.175 152.291 126.67 152.291 126.67L150.606 142.449L151.201 154.843C154.61 154.923 158.297 154.685 162.201 153.972C164.659 153.517 167.295 151.418 168.008 149.023C169.178 145.043 169.455 134.075 168.107 124.195Z" fill="white"/>
<path fill-rule="evenodd" clip-rule="evenodd" d="M168.201 123.608L168.131 123.601L168.082 123.601C168.07 123.602 168.067 123.602 168.058 123.603L168.004 123.609L167.842 123.632L164.966 124.077L157.609 125.231L152.198 126.083C151.933 126.125 151.728 126.34 151.7 126.607L150.015 142.386C150.012 142.417 150.011 142.447 150.012 142.478L150.607 154.872C150.622 155.183 150.875 155.43 151.187 155.437C154.842 155.522 158.553 155.242 162.308 154.557C165.057 154.047 167.818 151.742 168.578 149.192L168.616 149.059C169.862 144.603 169.966 133.424 168.696 124.115L168.687 124.116L168.683 124.09C168.662 123.977 168.652 123.959 168.606 123.872L168.486 123.749C168.439 123.701 168.429 123.695 168.402 123.679L168.29 123.633C168.246 123.615 168.234 123.614 168.201 123.608ZM167.597 124.87L167.628 125.113C168.772 134.191 168.626 144.811 167.438 148.855C166.811 150.959 164.417 152.958 162.092 153.388L161.759 153.448C158.423 154.036 155.122 154.297 151.865 154.261L151.768 154.259L151.202 142.467L152.834 127.185L164.904 125.289L167.597 124.87Z" fill="#000091"/>
<path fill-rule="evenodd" clip-rule="evenodd" d="M157.285 158.447L160.456 139.975C160.456 139.975 157.483 136.272 157.721 131.045C157.741 130.709 157.761 130.352 157.8 129.996C157.781 129.917 151.537 127.897 151.181 127.145C151.419 122.888 154.887 111.583 160.991 108.97C162.954 108.059 167.691 106.713 168.662 106.376C173.181 104.852 182.674 102.357 190.919 104C190.919 104 203.525 106.059 206.339 107.722C207.865 108.633 215.496 113.563 216.943 127.204C216.962 127.422 203.763 132.035 203.763 132.035L202.454 158.427" fill="#6A6AF4"/>
<path fill-rule="evenodd" clip-rule="evenodd" d="M176.57 97.7439L176.451 105.01L173.874 105.505C173.438 106.139 168.563 113.583 179.583 114.533C186.777 115.167 194.705 110.95 198.966 105.941L191.91 104.02L189.79 90.5371L176.57 97.7439Z" fill="white"/>
<path fill-rule="evenodd" clip-rule="evenodd" d="M176.285 97.2222L176.251 97.2425C176.083 97.3492 175.979 97.5335 175.975 97.7339L175.864 104.517L173.762 104.921C173.609 104.951 173.473 105.04 173.384 105.168C173.102 105.579 172.776 106.143 172.487 106.814C172.034 107.862 171.787 108.915 171.839 109.93C171.984 112.8 174.414 114.683 179.531 115.125C186.481 115.737 194.687 111.888 199.419 106.325L199.442 106.297C199.692 105.965 199.531 105.478 199.123 105.367L192.438 103.548L190.377 90.4447C190.313 90.0387 189.866 89.8186 189.505 90.0155L176.285 97.2222ZM189.333 91.4622L191.323 104.112L191.33 104.15C191.378 104.364 191.541 104.535 191.754 104.593L197.884 106.261L197.814 106.336C193.237 111.198 185.85 114.489 179.635 113.941C175.05 113.546 173.137 112.063 173.026 109.87C172.986 109.062 173.192 108.18 173.579 107.284C173.724 106.948 173.887 106.628 174.058 106.332L174.096 106.266C174.134 106.201 174.171 106.141 174.206 106.084L174.233 106.041L176.563 105.593L176.599 105.585C176.857 105.519 177.041 105.288 177.046 105.019L177.159 98.0992L189.333 91.4622Z" fill="#000091"/>
<rect width="3.30842" height="5.82324" transform="matrix(0.771845 0.635811 -0.636613 0.771184 202.783 60.2744)" fill="#E0840B"/>
<path fill-rule="evenodd" clip-rule="evenodd" d="M207.549 62.9376C210.767 62.9376 213.376 60.3315 213.376 57.1167C213.376 53.902 210.767 51.2959 207.549 51.2959C204.331 51.2959 201.722 53.902 201.722 57.1167C201.722 60.3315 204.331 62.9376 207.549 62.9376Z" fill="#000091"/>
<path fill-rule="evenodd" clip-rule="evenodd" d="M201.048 62.5418C196.707 59.6116 191.713 57.3941 186.381 57.8495C169.951 60.0076 165.967 70.3623 170.07 76.7771V76.7771C172.646 69.3724 174.826 66.9173 178.057 65.9868C179.207 71.1939 187.392 79.0738 195.716 81.5685V81.5685C195.736 81.5487 193.497 89.0326 192.783 88.7752C192.525 89.1712 189.87 92.7548 189.87 92.7548L191.554 101.11L210.284 103.387C211.414 103.684 212.603 102.832 212.642 101.684C212.861 94.5763 214.882 72.2036 201.048 62.5418Z" fill="#000091"/>
<path fill-rule="evenodd" clip-rule="evenodd" d="M190.444 90.5174L191.475 91.052C191.475 91.052 197.718 93.6654 199.561 87.7258C200.969 83.2117 196.41 82.2019 194.111 81.9644" fill="white"/>
<path fill-rule="evenodd" clip-rule="evenodd" d="M193.52 81.903C193.553 81.5767 193.846 81.3396 194.172 81.3733C195.87 81.5488 197.402 81.9663 198.559 82.7494C200.216 83.8702 200.845 85.6064 200.129 87.9015C199.382 90.3103 197.885 91.655 195.895 92.0767C194.694 92.3313 193.431 92.231 192.214 91.9127L192.063 91.8721C191.698 91.7708 191.417 91.6717 191.245 91.5996L191.223 91.5897L191.201 91.5789L190.17 91.0444C189.879 90.8932 189.765 90.5346 189.917 90.2435C190.062 89.9632 190.401 89.8476 190.686 89.9744L190.718 89.9901L191.725 90.5123L191.781 90.5337C191.807 90.5434 191.837 90.5547 191.873 90.5674L191.91 90.5805C192.088 90.6425 192.291 90.705 192.515 90.7635C193.568 91.0389 194.655 91.1252 195.648 90.9147C197.22 90.5815 198.375 89.5443 198.994 87.549C199.552 85.758 199.119 84.5628 197.893 83.7329C196.933 83.0835 195.57 82.712 194.05 82.5549C193.723 82.5212 193.486 82.2293 193.52 81.903Z" fill="#000091"/>
<path fill-rule="evenodd" clip-rule="evenodd" d="M170.069 76.7969V76.7969C172.646 69.3921 174.707 67.2142 177.938 66.2837C179.067 71.4116 186.202 78.8757 195.498 81.5486C195.399 82.6375 195.518 81.6674 195.24 82.8355C194.864 84.0036 194.447 85.3301 194.031 86.4389C192.188 90.5372 189.869 92.7943 189.869 92.7943V92.7943C186.48 96.3779 181.882 98.5557 176.729 97.7044C167.75 96.2195 168.602 83.2513 169.118 80.4596C169.356 79.0539 170.049 76.7969 170.069 76.7969C170.049 76.7969 170.049 76.7969 170.069 76.7969Z" fill="white"/>
<path fill-rule="evenodd" clip-rule="evenodd" d="M177.663 65.7452C174.045 66.8284 171.973 69.5161 169.507 76.6018L169.509 76.6023L169.479 76.6842C169.253 77.318 168.746 79.1885 168.554 80.232L168.531 80.3606C168.099 82.7043 168.071 86.5177 168.783 89.7015C169.842 94.4363 172.36 97.5839 176.631 98.2903L176.783 98.3145C181.738 99.0796 186.466 97.1939 190.188 93.3213L190.294 93.2096L190.353 93.1511C190.444 93.0576 190.571 92.9227 190.727 92.7467C191.048 92.3863 191.395 91.9625 191.759 91.4769C192.789 90.1038 193.755 88.5016 194.574 86.6822L194.588 86.6473C194.773 86.1553 194.963 85.6092 195.184 84.9406L195.38 84.3402L195.806 83.0175L195.813 82.9951L195.868 82.77C195.898 82.6508 195.923 82.5624 195.942 82.5004L195.964 82.4366L195.976 82.41L195.981 82.4003C196.016 82.3192 196.029 82.2673 196.039 82.1749L196.09 81.6023C196.116 81.3186 195.936 81.0565 195.662 80.9777C191.368 79.7429 187.304 77.387 184.058 74.3999C181.09 71.6677 179.06 68.6171 178.518 66.1559C178.444 65.821 178.103 65.6179 177.773 65.7129L177.663 65.7452ZM177.442 67.0723L177.521 67.0431L177.523 67.05C178.296 69.6387 180.361 72.6118 183.253 75.2735L183.402 75.4102C186.605 78.3177 190.55 80.6349 194.742 81.9421L194.864 81.9795L194.863 81.9872L194.845 82.0333C194.836 82.057 194.827 82.0826 194.818 82.1109L194.809 82.1411C194.776 82.2443 194.738 82.3841 194.692 82.572L194.667 82.6742L194.181 84.183L194.015 84.6869C193.829 85.2476 193.665 85.7175 193.508 86.1403L193.482 86.2109L193.489 86.1954C192.708 87.9312 191.786 89.4589 190.807 90.7649C190.464 91.2234 190.137 91.6216 189.838 91.9579L189.737 92.0706C189.704 92.1064 189.673 92.1404 189.643 92.1726L189.537 92.285L189.437 92.3863C185.917 96.1079 181.469 97.8854 176.826 97.1183C173.109 96.5036 170.907 93.7517 169.943 89.4424C169.269 86.4261 169.296 82.7714 169.702 80.5673C169.804 79.9696 169.998 79.1641 170.24 78.2904L170.301 78.0713C170.352 77.8909 170.403 77.7168 170.45 77.5576L170.546 77.241L170.611 77.0393L170.616 77.0303C170.621 77.0177 170.626 77.0048 170.631 76.9918L170.763 76.6153C172.912 70.5405 174.66 68.1196 177.442 67.0723Z" fill="#000091"/>
<path fill-rule="evenodd" clip-rule="evenodd" d="M177.001 75.1248C177.137 74.8263 177.489 74.6945 177.788 74.8304C178.076 74.9615 178.209 75.2937 178.097 75.5849L178.083 75.6171L174.034 84.5004L175.891 84.9933C176.197 85.0745 176.384 85.3799 176.321 85.6858L176.313 85.7198C176.232 86.0256 175.926 86.212 175.62 86.1494L175.586 86.1414L173.049 85.4682C172.704 85.3769 172.52 85.0076 172.646 84.6806L172.66 84.6481L177.001 75.1248Z" fill="#000091"/>
<path fill-rule="evenodd" clip-rule="evenodd" d="M180.997 75.1452C182.25 74.72 183.318 75.1771 184.135 76.1438C184.335 76.3803 184.505 76.6312 184.647 76.8824C184.734 77.0353 184.794 77.158 184.827 77.2362C184.956 77.5379 184.816 77.8869 184.514 78.0158C184.223 78.1401 183.888 78.0144 183.748 77.7348L183.709 77.6494C183.687 77.6046 183.655 77.5425 183.612 77.4678C183.504 77.277 183.375 77.086 183.226 76.9101C182.694 76.2806 182.099 76.0259 181.38 76.2699C181.069 76.3755 180.731 76.2093 180.626 75.8987C180.52 75.5881 180.686 75.2507 180.997 75.1452Z" fill="#000091"/>
<path fill-rule="evenodd" clip-rule="evenodd" d="M177.966 88.8168C178.195 88.5813 178.571 88.5754 178.807 88.8037C179.043 89.032 179.049 89.408 178.82 89.6436C178.366 90.1119 177.785 90.3844 177.122 90.4916C176.491 90.5935 175.836 90.5421 175.201 90.3966L175.085 90.3689C174.9 90.3227 174.755 90.2777 174.661 90.2435C174.353 90.131 174.194 89.7899 174.307 89.4818C174.415 89.1847 174.737 89.0266 175.036 89.1166L175.121 89.1449C175.134 89.149 175.149 89.1536 175.165 89.1588C175.254 89.1858 175.356 89.2131 175.467 89.2388C175.965 89.3528 176.474 89.3928 176.932 89.3189C177.332 89.2542 177.662 89.1064 177.919 88.8635L177.966 88.8168Z" fill="#000091"/>
<path fill-rule="evenodd" clip-rule="evenodd" d="M171.323 73.0751C172.291 72.6485 173.287 72.8755 174.217 73.4795C174.561 73.7027 174.821 73.9265 174.976 74.0867C175.205 74.3222 175.199 74.6983 174.963 74.9266C174.736 75.1457 174.38 75.149 174.15 74.9405L174.088 74.8804C174.063 74.8568 174.028 74.8248 173.984 74.7865C173.861 74.6807 173.721 74.5743 173.569 74.4756C172.941 74.0677 172.332 73.9288 171.803 74.162C171.692 74.2106 171.583 74.2757 171.475 74.3591L171.421 74.4024C171.168 74.6121 170.794 74.5776 170.584 74.3254C170.374 74.0731 170.408 73.6986 170.661 73.4889C170.871 73.3147 171.092 73.1768 171.323 73.0751Z" fill="#000091"/>
<path fill-rule="evenodd" clip-rule="evenodd" d="M180.735 79.5919C180.897 78.8662 180.648 78.1928 180.178 78.0878C179.708 77.9828 179.195 78.4859 179.032 79.2115C178.87 79.9372 179.119 80.6105 179.589 80.7156C180.059 80.8206 180.572 80.3175 180.735 79.5919Z" fill="#000091"/>
<path fill-rule="evenodd" clip-rule="evenodd" d="M172.609 78.0484C172.771 77.3228 172.522 76.6494 172.052 76.5444C171.582 76.4393 171.069 76.9424 170.907 77.6681C170.744 78.3937 170.993 79.0671 171.463 79.1721C171.933 79.2771 172.446 78.774 172.609 78.0484Z" fill="#000091"/>
<path fill-rule="evenodd" clip-rule="evenodd" d="M177.463 78.4081C176.503 82.6117 178.336 86.67 181.663 87.4273C184.99 88.1846 188.404 85.3207 189.364 81.1171C190.324 76.9135 188.491 72.8552 185.164 72.0979C181.837 71.3406 178.423 74.2045 177.463 78.4081ZM178.622 78.672C179.45 75.0491 182.294 72.6632 184.9 73.2563C187.505 73.8494 189.032 77.2304 188.205 80.8532C187.378 84.476 184.533 86.862 181.928 86.2689C179.322 85.6758 177.795 82.2948 178.622 78.672Z" fill="#E0840B"/>
<path fill-rule="evenodd" clip-rule="evenodd" d="M163.08 75.6596C162.12 79.8632 163.953 83.9215 167.28 84.6788C170.607 85.4361 174.022 82.5721 174.982 78.3685C175.942 74.1649 174.108 70.1066 170.781 69.3493C167.454 68.592 164.04 71.4559 163.08 75.6596ZM164.24 75.9234C165.067 72.3006 167.911 69.9147 170.517 70.5078C173.122 71.1009 174.65 74.4818 173.822 78.1047C172.995 81.7275 170.151 84.1134 167.545 83.5203C164.939 82.9272 163.412 79.5462 164.24 75.9234Z" fill="#E0840B"/>
<path fill-rule="evenodd" clip-rule="evenodd" d="M174.251 77.0995C174.332 76.7938 174.638 76.6076 174.944 76.6703L174.978 76.6783L178.328 77.5693C178.645 77.6537 178.834 77.9791 178.749 78.2961C178.668 78.6018 178.362 78.788 178.056 78.7252L178.022 78.7172L174.672 77.8263C174.355 77.7419 174.166 77.4165 174.251 77.0995Z" fill="#E0840B"/>
<path fill-rule="evenodd" clip-rule="evenodd" d="M188.48 79.5375C188.591 79.2415 188.914 79.0867 189.213 79.1798L189.246 79.1911L196.242 81.8244C196.549 81.94 196.705 82.2826 196.589 82.5896C196.477 82.8856 196.154 83.0404 195.856 82.9474L195.823 82.936L188.827 80.3028C188.519 80.1871 188.364 79.8445 188.48 79.5375Z" fill="#E0840B"/>
<path fill-rule="evenodd" clip-rule="evenodd" d="M57.2351 49.7716C57.2351 49.3757 54.0837 44.7625 53.1126 43.2182C52.1414 41.6739 54.4801 40.288 56.0459 42.6045C57.5918 44.9209 58.6423 46.98 58.6423 46.98" fill="white"/>
<path fill-rule="evenodd" clip-rule="evenodd" d="M53.417 40.9081C54.4572 40.5136 55.6866 41.0111 56.5408 42.2749C57.2258 43.3013 57.8649 44.3509 58.4414 45.3681L58.5727 45.6012C58.6794 45.7917 58.779 45.9727 58.8714 46.1429L59.0106 46.4018L59.1576 46.6817C59.1638 46.6936 59.1686 46.7031 59.1723 46.7102C59.3214 47.0025 59.2051 47.3601 58.9125 47.5091C58.6307 47.6525 58.2883 47.5501 58.1301 47.2813L58.1073 47.2391L58.0172 47.0664C57.9906 47.0159 57.9614 46.961 57.9298 46.9019L57.8255 46.7084C57.6998 46.4765 57.5598 46.2237 57.4066 45.9534C56.8435 44.9598 56.2191 43.9343 55.5533 42.9367C54.9909 42.1046 54.3241 41.8348 53.8392 42.0187C53.4775 42.1559 53.3605 42.4954 53.6163 42.9021L53.7428 43.1015C53.8537 43.2749 53.989 43.4835 54.1566 43.7399L55.5991 45.9327C57.3328 48.5742 57.8299 49.3777 57.8299 49.7715C57.8299 50.0995 57.5637 50.3655 57.2353 50.3655C56.9538 50.3655 56.718 50.1701 56.6564 49.9077L56.6496 49.8752L56.6439 49.8621C56.6277 49.8255 56.6038 49.7768 56.5725 49.7176L56.5317 49.6415C56.4339 49.4627 56.2924 49.2231 56.1098 48.9264L55.8679 48.5383C55.6151 48.1365 55.3097 47.6626 54.9342 47.0874L53.0772 44.2613C52.8783 43.9564 52.7279 43.7227 52.6093 43.5341C51.9517 42.4883 52.3578 41.3099 53.417 40.9081Z" fill="#000091"/>
<path fill-rule="evenodd" clip-rule="evenodd" d="M60.3271 56.4835C60.3271 56.4835 57.5523 51.91 57.2946 50.0291C57.037 48.1482 56.7397 39.2388 57.1361 38.3478C57.5325 37.4569 59.1775 37.4569 59.2172 39.6149C59.2568 41.773 59.2172 46.3861 59.2172 46.3861" fill="white"/>
<path fill-rule="evenodd" clip-rule="evenodd" d="M56.5925 38.1064C56.916 37.3792 57.7457 37.0184 58.5017 37.2755C59.3026 37.5479 59.7892 38.3967 59.8114 39.6039L59.819 40.1284C59.8252 40.6656 59.8284 41.319 59.829 42.068L59.8284 43.0277C59.8279 43.3173 59.8271 43.6121 59.826 43.9101L59.8194 45.2553L59.8114 46.391C59.8086 46.7191 59.5401 46.9827 59.2118 46.9799C58.8951 46.9772 58.6384 46.7277 58.623 46.4158L58.6231 46.2892L58.6311 45.1066L58.6368 43.9059C58.6379 43.6087 58.6387 43.3146 58.6392 43.0257L58.639 41.581C58.637 40.7913 58.6316 40.1293 58.6224 39.6257C58.6086 38.8764 58.3881 38.4918 58.1185 38.4001C57.9441 38.3408 57.7524 38.4241 57.6791 38.5889C57.3941 39.2296 57.5828 47.7534 57.8835 49.9484C57.959 50.5 58.3161 51.4308 58.8836 52.6004C59.0217 52.8851 59.1706 53.1807 59.3287 53.4848C59.6033 54.013 59.8947 54.5464 60.1889 55.0657L60.3656 55.3755C60.4364 55.4986 60.5042 55.6155 60.5686 55.7256L60.8353 56.1755C61.0055 56.456 60.9158 56.8213 60.635 56.9913C60.3645 57.155 60.0155 57.078 59.838 56.8216L59.7825 56.7318L59.684 56.5665C59.5784 56.3883 59.4608 56.1871 59.3343 55.9669C58.9728 55.3379 58.6113 54.6824 58.2733 54.0323C58.1103 53.7188 57.9565 53.4135 57.8134 53.1185L57.7064 52.8957C57.1485 51.7219 56.7972 50.7808 56.7053 50.1095L56.6873 49.9678C56.5651 48.9374 56.439 46.4943 56.3809 44.0687L56.3679 43.4744C56.3103 40.5487 56.3651 38.6174 56.5925 38.1064Z" fill="#000091"/>
<path fill-rule="evenodd" clip-rule="evenodd" d="M58.3451 53.2764C57.7109 51.0589 57.2946 49.277 57.3739 48.683C57.6118 46.7427 59.7721 38.0709 60.5253 37.3977C61.2784 36.7246 62.6658 38.2293 62.091 40.3477L60.6442 46.4854C60.6442 46.4854 62.8442 39.8528 63.3595 39.1598C63.8748 38.4669 65.9559 39.5162 64.3901 43.5155C62.8244 47.4951 63.0027 47.9109 63.0027 47.9109C63.0027 47.9109 65.1234 43.179 65.7379 42.387C66.3523 41.5951 68.3739 43.5749 65.7577 47.7525L72.1198 61.1761L62.1703 65.3338C62.1703 65.3338 59.7523 58.2657 58.3451 53.2764" fill="white"/>
<path fill-rule="evenodd" clip-rule="evenodd" d="M60.1291 36.9548C60.82 36.3374 61.7486 36.6626 62.3022 37.4977C62.5653 37.8946 62.7347 38.3774 62.796 38.9061L62.7989 38.9341L62.8098 38.9158C62.8304 38.8813 62.8501 38.8508 62.8687 38.8244L62.8825 38.8054C63.4633 38.0243 64.6209 38.3263 65.171 39.2817C65.5267 39.8997 65.6445 40.7293 65.4981 41.7361L65.4869 41.8101L65.5162 41.7896C65.8408 41.5716 66.2575 41.5668 66.6279 41.7678L66.6721 41.793C67.069 42.0286 67.3742 42.4776 67.5325 43.0471C67.8661 44.2475 67.5526 45.8473 66.5066 47.6608L66.4325 47.7873L72.6576 60.9217C72.7975 61.2169 72.6721 61.5671 72.3825 61.7089L72.3496 61.7238L62.4001 65.8816C62.0937 66.0096 61.7442 65.8618 61.6204 65.5587L61.6034 65.5122L61.1648 64.214C61.0661 63.9199 60.9625 63.6097 60.8548 63.2855C60.2902 61.587 59.7255 59.8499 59.1984 58.1744L59.0234 57.616C58.9659 57.4316 58.9091 57.2489 58.8532 57.068L58.6506 56.4095C58.3642 55.4728 58.1049 54.5999 57.8764 53.8008L57.6726 53.0834C57.0269 50.7906 56.7098 49.2972 56.7801 48.6432L56.7841 48.6106C56.9054 47.6209 57.4927 45.0146 58.1511 42.5288L58.275 42.0653C59.0534 39.1765 59.6679 37.367 60.1291 36.9548ZM60.9721 37.837L60.9501 37.8296C60.937 37.826 60.9345 37.829 60.9221 37.8401C60.4267 38.2829 58.2885 46.3023 57.9726 48.6907L57.9636 48.7613C57.9076 49.1806 58.2337 50.6996 58.8569 52.9012L59.02 53.4752C59.2638 54.3278 59.5435 55.2667 59.8543 56.279L59.9893 56.7173C60.1006 57.0771 60.2152 57.4443 60.3329 57.8182C60.7923 59.2785 61.2805 60.7864 61.7724 62.2747L62.1924 63.5382L62.529 64.5399L71.3163 60.8678L65.2206 48.0064C65.1396 47.8356 65.1452 47.6374 65.2337 47.4721L65.2539 47.4373C66.3309 45.7175 66.6459 44.2978 66.3867 43.3649C66.3254 43.1446 66.2369 42.9818 66.15 42.8865L66.1286 42.8643L66.0747 42.9506C65.8516 43.3158 65.4835 44.0267 65.0282 44.9672L64.9172 45.1974L64.8446 45.3488C64.5881 45.8853 64.3214 46.4559 64.0568 47.0307L63.6983 47.8154L63.5457 48.1534C63.334 48.6258 62.6607 48.6204 62.4565 48.1446C62.4352 48.0949 62.4212 48.0437 62.4127 47.9904C62.3375 47.5165 62.6956 46.1991 63.8367 43.299C64.473 41.6736 64.5036 40.5054 64.1401 39.8739C64.0416 39.7028 63.9276 39.6025 63.8318 39.5675L63.8073 39.5597L63.7804 39.6084C63.6063 39.9367 63.2254 40.9005 62.743 42.2329L62.6156 42.587L62.4715 42.9914L62.2797 43.5359C62.1186 43.9958 61.9548 44.4696 61.7913 44.9474L61.4684 45.898L61.2089 46.672C60.9742 47.3795 59.9265 47.096 60.0583 46.3843L60.0657 46.349L61.5126 40.2114L61.5175 40.1921C61.7368 39.3836 61.6303 38.6358 61.3107 38.1536C61.1951 37.9793 61.0687 37.8709 60.9721 37.837Z" fill="#000091"/>
<path fill-rule="evenodd" clip-rule="evenodd" d="M153.599 105.763C153.599 105.763 157.543 103.862 159.089 103.783C160.635 103.704 167.968 104.199 168.662 104.595C169.355 104.991 169.217 106.337 167.453 106.178C165.669 106.04 161.943 105.604 161.943 105.604" fill="white"/>
<path fill-rule="evenodd" clip-rule="evenodd" d="M159.058 103.189L159.181 103.184C161.288 103.112 168.214 103.655 168.957 104.079C169.572 104.43 169.816 105.197 169.519 105.842C169.215 106.504 168.463 106.846 167.476 106.776L167.174 106.752C166.687 106.711 166.069 106.652 165.346 106.577L164.64 106.503C164.165 106.452 163.679 106.399 163.196 106.345L161.874 106.194C161.547 106.156 161.314 105.861 161.352 105.535C161.389 105.221 161.665 104.993 161.977 105.011L162.849 105.11L163.81 105.218C163.97 105.235 164.131 105.253 164.29 105.27L165.225 105.37L166.039 105.453C166.513 105.5 166.928 105.539 167.276 105.568L167.506 105.587C168.076 105.638 168.362 105.512 168.438 105.346C168.479 105.259 168.446 105.155 168.367 105.11C167.888 104.837 160.966 104.299 159.172 104.373L159.119 104.376C158.67 104.399 157.872 104.626 156.859 105.008C156.604 105.104 156.338 105.209 156.065 105.321C155.542 105.535 155.015 105.764 154.511 105.993L154.258 106.109L153.857 106.297C153.561 106.44 153.206 106.316 153.063 106.021C152.92 105.725 153.045 105.37 153.34 105.228L153.525 105.14C153.672 105.071 153.837 104.995 154.018 104.912C154.535 104.677 155.076 104.442 155.614 104.222C155.898 104.106 156.173 103.997 156.439 103.897L156.654 103.817C157.676 103.441 158.488 103.219 159.058 103.189Z" fill="#000091"/>
<path fill-rule="evenodd" clip-rule="evenodd" d="M147.732 105.644C147.732 105.644 152.192 105.169 156.354 104.396Z" fill="white"/>
<path fill-rule="evenodd" clip-rule="evenodd" d="M156.245 103.812C156.568 103.752 156.879 103.965 156.939 104.288C156.998 104.61 156.785 104.92 156.463 104.98C156.205 105.028 155.942 105.076 155.674 105.123C154.073 105.404 152.367 105.659 150.654 105.886L149.877 105.987C149.438 106.042 149.023 106.093 148.638 106.138L147.795 106.234C147.469 106.269 147.176 106.033 147.141 105.707C147.106 105.38 147.343 105.088 147.669 105.053L148.158 104.998L148.664 104.939C149.11 104.886 149.593 104.826 150.105 104.76C151.935 104.523 153.763 104.252 155.468 103.953C155.732 103.906 155.991 103.859 156.245 103.812Z" fill="#000091"/>
<path fill-rule="evenodd" clip-rule="evenodd" d="M153.837 105.07C155.68 104.733 159.743 103.763 160.219 103.882C161.785 104.238 168.662 106.753 169.138 107.406C169.613 108.079 168.285 109.069 166.601 108.416L161.725 106.713C161.725 106.713 166.938 109.069 167.453 109.544C167.968 110.02 166.938 111.623 163.826 110C160.714 108.396 160.357 108.495 160.357 108.495C160.357 108.495 164.024 110.614 164.639 111.188C165.253 111.762 163.449 113.227 160.258 110.732L154.015 113.088C152.568 113.029 141.846 109.604 142.52 108.634C143.194 107.663 147.851 101.13 147.851 101.13L153.837 105.07Z" fill="white"/>
<path fill-rule="evenodd" clip-rule="evenodd" d="M160.161 111.404L160.237 111.459C161.64 112.468 162.938 112.865 163.971 112.697C164.478 112.614 164.897 112.391 165.14 112.062L165.168 112.023C165.338 111.773 165.392 111.483 165.324 111.216L165.32 111.201L165.333 111.204C166.081 111.368 166.725 111.33 167.24 111.102L167.285 111.081C168.079 110.704 168.443 109.832 167.976 109.237L167.956 109.213L167.983 109.21C168.335 109.178 168.664 109.085 168.953 108.936C169.728 108.534 170.103 107.742 169.623 107.063C169.309 106.632 167.915 105.988 165.632 105.105L165.299 104.978C163.318 104.22 161.235 103.512 160.393 103.312L160.321 103.296C159.987 103.228 159.316 103.331 157.563 103.693L154.572 104.321C154.362 104.364 154.202 104.396 154.051 104.425L153.964 104.442L148.178 100.634C147.921 100.465 147.58 100.52 147.389 100.756L147.064 101.21L142.457 107.689C142.258 107.97 142.114 108.175 142.031 108.295C141.703 108.768 141.931 109.195 142.387 109.563C142.653 109.777 143.047 110.008 143.566 110.263C144.469 110.707 145.761 111.226 147.273 111.762L147.47 111.831C150.227 112.8 153.194 113.649 153.991 113.682C154.071 113.685 154.15 113.672 154.225 113.644L160.161 111.404ZM148.003 101.941L153.509 105.566C153.637 105.65 153.793 105.681 153.944 105.654L154.324 105.583C154.489 105.551 154.67 105.514 154.915 105.464L157.593 104.901C158.166 104.782 158.594 104.697 158.972 104.627L159.192 104.588C159.453 104.542 159.668 104.508 159.835 104.488C159.917 104.478 159.986 104.471 160.04 104.468L160.099 104.466L160.108 104.466L160.199 104.488C160.994 104.69 162.801 105.303 164.574 105.973L164.961 106.121L165.321 106.26C166.977 106.906 168.29 107.497 168.595 107.704L168.619 107.72L168.604 107.738C168.564 107.782 168.497 107.834 168.406 107.881C168.031 108.075 167.473 108.099 166.882 107.887L166.797 107.855L161.921 106.152C161.217 105.906 160.802 106.909 161.448 107.239L162.378 107.664L162.882 107.897C163.301 108.092 163.716 108.286 164.116 108.475L164.599 108.705C165.183 108.985 165.687 109.234 166.092 109.442L166.301 109.55L166.471 109.641C166.615 109.718 166.736 109.785 166.831 109.841L166.935 109.903L166.925 109.913C166.887 109.947 166.832 109.983 166.759 110.016C166.261 110.236 165.378 110.124 164.181 109.514L163.728 109.282C161.649 108.225 160.7 107.87 160.308 107.903L160.292 107.904C160.247 107.91 160.247 107.91 160.198 107.923C159.702 108.06 159.608 108.715 160.029 108.99L160.108 109.037L160.738 109.405C161.175 109.662 161.611 109.923 162.026 110.174L162.426 110.418L162.741 110.613C163.235 110.921 163.634 111.18 163.902 111.369L164.027 111.457L164.005 111.466C163.943 111.489 163.868 111.51 163.779 111.524C163.026 111.647 161.917 111.275 160.625 110.264L160.591 110.24C160.432 110.132 160.23 110.108 160.048 110.176L153.93 112.485L153.905 112.482C153.044 112.367 150.201 111.54 147.671 110.643L147.389 110.542C146.085 110.073 144.97 109.623 144.174 109.238L144.017 109.161L143.867 109.085C143.601 108.947 143.389 108.823 143.237 108.716L143.204 108.692L144.652 106.649L148.003 101.941Z" fill="#000091"/>
<path fill-rule="evenodd" clip-rule="evenodd" d="M135.285 27.5574C135.285 27.5574 123.334 18.7865 121.848 19.2815L115.168 18.6875C107.379 17.9946 100.502 23.7362 99.7882 31.5172L91.127 74.4805L130.608 79.7074L134.215 39.3179C134.473 39.1991 134.73 39.0605 134.968 38.9021C137.822 36.9816 137.842 32.2101 135.285 27.5574Z" fill="#000091"/>
<path fill-rule="evenodd" clip-rule="evenodd" d="M152.509 102.06L139.15 92.6755L143.055 79.8459C144.581 73.2529 143.273 64.9176 136.157 62.4824C132.728 61.3142 131.579 60.9975 131.183 60.8589V60.8589C131.183 60.8589 108.826 54.84 106.051 53.7907C104.148 53.078 96.1412 53.3947 90.2745 58.978L77.3322 68.8774L70.8313 50.1279L55.4512 56.4239L65.5791 86.5379C65.5791 86.5379 68.9088 98.1994 77.8079 93.8833L91.4439 85.9836C91.543 90.5175 91.5826 96.8135 89.2439 103.387C85.7952 113.068 84.0313 123.265 84.0511 133.52C84.0709 145.855 84.1106 157.239 84.1106 157.239L142.44 157.754C142.44 157.754 132.828 113.722 132.828 109.92C132.788 109.643 132.788 109.346 132.768 109.049C137.703 112.177 143.828 114.949 143.828 114.949L152.509 102.06Z" fill="#EB762F" stroke="#EB762F" stroke-width="2.5" stroke-linecap="round" stroke-linejoin="round"/>
<path fill-rule="evenodd" clip-rule="evenodd" d="M133.283 70.2115C133.596 70.1124 133.93 70.2855 134.029 70.5981L134.529 72.1453C134.932 73.3832 135.419 74.8744 135.55 75.285L135.655 75.6161C136.153 77.192 136.505 78.4214 136.78 79.5884C137.509 82.6812 137.643 85.2085 137.092 87.6588C136.362 90.9055 134.402 93.98 130.899 97.2182L130.761 97.3447L134.879 118.458C134.939 118.769 134.746 119.07 134.443 119.147L134.409 119.155C134.098 119.216 133.797 119.022 133.719 118.72L133.712 118.686L129.53 97.2435C129.49 97.0387 129.56 96.828 129.715 96.6884C133.292 93.4736 135.235 90.5003 135.932 87.3985C136.438 85.1459 136.313 82.7924 135.622 79.8607L135.566 79.625C135.297 78.5193 134.952 77.3309 134.469 75.81L134.169 74.8778C133.786 73.7008 133.123 71.6724 132.896 70.9573C132.797 70.6446 132.97 70.3107 133.283 70.2115Z" fill="#000091"/>
<path fill-rule="evenodd" clip-rule="evenodd" d="M92.2168 86.0625L103.91 78.7964Z" fill="white"/>
<path fill-rule="evenodd" clip-rule="evenodd" d="M103.597 78.2918C103.876 78.1186 104.243 78.2039 104.416 78.4825C104.583 78.7507 104.51 79.1003 104.256 79.2805L104.225 79.3005L92.5318 86.5667C92.2529 86.74 91.8863 86.6546 91.7128 86.3761C91.5458 86.1078 91.6189 85.7583 91.8735 85.578L91.9037 85.558L103.597 78.2918Z" fill="#000091"/>
<path fill-rule="evenodd" clip-rule="evenodd" d="M77.6606 68.6862C77.9196 68.4844 78.2932 68.5306 78.4951 68.7893L78.5914 68.9162L78.638 68.9792C78.7475 69.1279 78.8692 69.2989 78.9998 69.4898C79.3723 70.0339 79.7445 70.6313 80.0924 71.2648C80.7836 72.5234 81.2927 73.7658 81.5426 74.9457C81.7948 76.1369 81.772 77.223 81.4176 78.1725C81.3029 78.4799 80.9604 78.6361 80.6527 78.5215C80.3451 78.4069 80.1886 78.0648 80.3034 77.7575C80.5701 77.043 80.5882 76.1789 80.3791 75.1915C80.1567 74.141 79.6895 73.0011 79.0498 71.8361C78.7218 71.2389 78.3699 70.6741 78.0182 70.1603L77.9152 70.0114C77.8482 69.9154 77.7844 69.826 77.7243 69.7435L77.5769 69.5451C77.5691 69.5349 77.5626 69.5265 77.5574 69.5198C77.3554 69.2611 77.4017 68.8879 77.6606 68.6862Z" fill="#000091"/>
<path fill-rule="evenodd" clip-rule="evenodd" d="M125.91 50.9793L126.029 59.6907L130.608 61.0569C130.806 61.829 129.042 75.0348 117.408 71.6492C109.777 69.4318 106.963 60.9777 106.507 54.2263L112.869 56.3448L112.453 40.0107L125.91 50.9793Z" fill="white"/>
<path fill-rule="evenodd" clip-rule="evenodd" d="M111.858 40.0258L112.253 55.5134L106.695 53.6628C106.294 53.5292 105.885 53.8448 105.914 54.2662C106.172 58.098 107.117 61.8515 108.741 64.9159C110.687 68.5877 113.521 71.1382 117.242 72.2195C122.622 73.7852 126.505 72.1139 128.948 68.2281C129.817 66.8458 130.446 65.2605 130.842 63.6559L130.881 63.4949C131.153 62.3439 131.277 61.2726 131.184 60.9093L131.173 60.872C131.112 60.6878 130.965 60.5437 130.778 60.4877L126.618 59.2464L126.505 50.9712C126.502 50.7956 126.422 50.63 126.286 50.519L112.829 39.5505C112.435 39.2295 111.845 39.5182 111.858 40.0258ZM113.08 41.2885L125.319 51.2644L125.435 59.6988L125.436 59.7357C125.455 59.9797 125.622 60.1891 125.859 60.2598L130.015 61.4997L130.012 61.5365C130.005 61.6173 129.996 61.7061 129.984 61.8011C129.929 62.2565 129.829 62.8 129.687 63.3716C129.32 64.861 128.737 66.3304 127.941 67.5962C125.77 71.0494 122.423 72.49 117.574 71.0789C114.184 70.094 111.596 67.7642 109.792 64.36L109.709 64.2009C108.358 61.5911 107.511 58.4432 107.184 55.1863L107.173 55.0742L112.681 56.9082C113.072 57.0384 113.474 56.7413 113.463 56.3296L113.08 41.2885Z" fill="#000091"/>
<path fill-rule="evenodd" clip-rule="evenodd" d="M107.285 43.2653C107.434 42.9729 107.792 42.8564 108.085 43.0051C108.378 43.1538 108.494 43.5113 108.345 43.8037C107.794 44.8872 107.594 46.3977 107.829 47.9809C108.264 50.9 110.006 52.9949 111.61 52.8045C111.936 52.7658 112.232 52.9985 112.271 53.3242C112.309 53.65 112.076 53.9454 111.75 53.9841C109.363 54.2675 107.171 51.6307 106.652 48.1552C106.384 46.3389 106.616 44.5807 107.285 43.2653Z" fill="#E0840B"/>
<path fill-rule="evenodd" clip-rule="evenodd" d="M134.26 42.5134C134.409 42.2209 134.767 42.1044 135.059 42.2531C135.352 42.4018 135.469 42.7594 135.32 43.0518C134.768 44.1352 134.569 45.6457 134.803 47.2289C135.239 50.1481 136.98 52.243 138.585 52.0526C138.911 52.0139 139.206 52.2465 139.245 52.5723C139.284 52.898 139.051 53.1935 138.725 53.2322C136.337 53.5156 134.146 50.8787 133.627 47.4033C133.358 45.5869 133.59 43.8287 134.26 42.5134Z" fill="#E0840B"/>
<path fill-rule="evenodd" clip-rule="evenodd" d="M113.41 41.9427C114.43 39.8481 113.469 37.2817 111.264 36.2104C109.059 35.139 106.444 35.9685 105.425 38.063C104.405 40.1575 105.366 42.724 107.571 43.7953C109.776 44.8667 112.39 44.0372 113.41 41.9427Z" fill="white"/>
<path fill-rule="evenodd" clip-rule="evenodd" d="M104.891 37.8045C103.724 40.2007 104.816 43.1193 107.31 44.3307C109.804 45.5422 112.777 44.5981 113.944 42.2018C115.111 39.8056 114.019 36.887 111.525 35.6756C109.031 34.4641 106.058 35.4082 104.891 37.8045ZM105.96 38.3238C106.834 36.5301 109.089 35.8138 111.005 36.7441C112.92 37.6744 113.748 39.8887 112.875 41.6825C112.001 43.4762 109.745 44.1925 107.83 43.2622C105.915 42.3319 105.087 40.1176 105.96 38.3238Z" fill="#000091"/>
<path fill-rule="evenodd" clip-rule="evenodd" d="M139.98 40.4521C140.88 38.6034 140.03 36.3371 138.081 35.3901C136.132 34.4431 133.822 35.1741 132.922 37.0228C132.022 38.8715 132.872 41.1378 134.821 42.0848C136.77 43.0318 139.08 42.3008 139.98 40.4521Z" fill="white"/>
<path fill-rule="evenodd" clip-rule="evenodd" d="M132.388 36.7638C131.341 38.9144 132.323 41.5327 134.561 42.6198C136.798 43.7069 139.467 42.8616 140.514 40.7111C141.562 38.5605 140.58 35.9422 138.342 34.8551C136.104 33.768 133.436 34.6133 132.388 36.7638ZM133.458 37.2831C134.211 35.7354 136.162 35.1174 137.822 35.9235C139.481 36.7296 140.199 38.6439 139.445 40.1916C138.692 41.7393 136.741 42.3572 135.081 41.5512C133.422 40.7451 132.704 38.8307 133.458 37.2831Z" fill="#000091"/>
<path fill-rule="evenodd" clip-rule="evenodd" d="M126.059 53.6399C132.614 52.4897 136.717 44.6691 135.223 36.172C133.728 27.6749 127.204 21.719 120.649 22.8691C114.094 24.0193 109.991 31.8399 111.486 40.337C112.98 48.8341 119.505 54.79 126.059 53.6399Z" fill="white"/>
<path fill-rule="evenodd" clip-rule="evenodd" d="M120.544 22.2823C113.629 23.4948 109.356 31.6451 110.903 40.4379C112.45 49.2308 119.25 55.4394 126.165 54.2269C133.081 53.0143 137.354 44.8641 135.807 36.0712C134.259 27.2784 127.46 21.0698 120.544 22.2823ZM120.75 23.4525C126.942 22.3667 133.192 28.0732 134.636 36.2766C136.079 44.4799 132.151 51.971 125.959 53.0567C119.767 54.1424 113.518 48.436 112.074 40.2326C110.631 32.0292 114.558 24.5382 120.75 23.4525Z" fill="#000091"/>
<path fill-rule="evenodd" clip-rule="evenodd" d="M125.724 34.7032C126.031 34.6249 126.343 34.8005 126.437 35.0981L126.447 35.1317L128.093 41.5692C128.241 42.1631 127.809 42.7561 127.214 42.7814L124.816 42.8416C124.487 42.8499 124.215 42.5908 124.206 42.2628C124.198 41.9466 124.439 41.6819 124.751 41.656L124.786 41.6541L126.874 41.6016L125.295 35.4256C125.216 35.1192 125.392 34.8075 125.69 34.7128L125.724 34.7032Z" fill="#000091"/>
<path fill-rule="evenodd" clip-rule="evenodd" d="M118.719 31.1148C119.662 30.5897 120.658 30.3978 121.625 30.7722C121.966 30.9042 122.287 31.1046 122.585 31.3747C122.828 31.5954 122.846 31.971 122.625 32.2138C122.404 32.4565 122.028 32.4744 121.785 32.2537C121.594 32.0807 121.398 31.9583 121.195 31.8798C120.618 31.6563 119.962 31.7827 119.299 32.1522C119.143 32.2392 119 32.3327 118.874 32.4255L118.803 32.4793C118.79 32.4897 118.778 32.4991 118.768 32.5073L118.734 32.5358C118.489 32.7534 118.113 32.7309 117.895 32.4855C117.677 32.2401 117.7 31.8647 117.945 31.647C118.104 31.5061 118.37 31.3097 118.719 31.1148Z" fill="#000091"/>
<path fill-rule="evenodd" clip-rule="evenodd" d="M128.156 30.8817C128.788 30.7393 129.447 30.6994 130.082 30.8292C130.97 31.0108 131.694 31.5104 132.145 32.3698C132.297 32.6603 132.185 33.0193 131.894 33.1716C131.614 33.3183 131.27 33.2198 131.109 32.9529L131.091 32.9213C130.815 32.3946 130.397 32.1063 129.843 31.993C129.398 31.9019 128.899 31.9321 128.418 32.0405C128.34 32.0581 128.268 32.0766 128.203 32.0952L128.091 32.1294L128.075 32.1347C127.766 32.2467 127.425 32.0874 127.313 31.7791C127.201 31.4707 127.361 31.13 127.669 31.0181C127.771 30.9812 127.938 30.9308 128.156 30.8817Z" fill="#000091"/>
<path fill-rule="evenodd" clip-rule="evenodd" d="M123.362 38.0627C123.394 37.2869 122.993 36.6409 122.468 36.6198C121.943 36.5986 121.492 37.2103 121.461 37.986C121.43 38.7618 121.83 39.4078 122.355 39.4289C122.88 39.4501 123.331 38.8384 123.362 38.0627Z" fill="#000091"/>
<path fill-rule="evenodd" clip-rule="evenodd" d="M130.437 39.6147C130.951 39.5815 131.326 38.9266 131.276 38.1519C131.226 37.3772 130.769 36.776 130.256 36.8091C129.742 36.8423 129.367 37.4972 129.417 38.2719C129.467 39.0466 129.924 39.6478 130.437 39.6147Z" fill="#000091"/>
<path fill-rule="evenodd" clip-rule="evenodd" d="M119.013 42.9587C119.115 46.3469 120.352 48.0453 122.366 48.2234C123.124 48.2904 123.909 48.1297 124.68 47.8245C125.066 47.6715 125.365 47.5172 125.545 47.4081C125.911 47.1857 125.929 46.6614 125.578 46.4149L119.95 42.4552C119.549 42.1734 118.998 42.4694 119.013 42.9587ZM120.299 44.1537L124.05 46.7923C123.5 46.9874 122.959 47.0832 122.471 47.0401C121.377 46.9433 120.613 46.1531 120.324 44.32L120.299 44.1537Z" fill="#000091"/>
<path fill-rule="evenodd" clip-rule="evenodd" d="M137.28 40.0371C139.636 39.691 141.57 42.4505 142.117 46.1611C142.635 49.6752 141.238 52.8751 138.82 53.2303L138.777 53.235L138.734 53.2366H138.654C138.326 53.2366 138.06 52.9707 138.06 52.6426C138.06 52.3263 138.307 52.0678 138.62 52.0497L138.654 52.0487L138.687 52.0485L138.696 52.0472C140.274 51.769 141.348 49.3025 140.953 46.4224L140.94 46.3342C140.477 43.1892 138.938 40.9942 137.453 41.2124C137.128 41.2601 136.826 41.0357 136.778 40.7112C136.73 40.3866 136.955 40.0849 137.28 40.0371Z" fill="#E0840B"/>
<path fill-rule="evenodd" clip-rule="evenodd" d="M109.948 41.1062C112.369 40.7504 114.625 43.406 115.141 46.9332C115.659 50.4473 114.263 53.6472 111.845 54.0024L111.802 54.0071L111.758 54.0087H111.679C111.351 54.0087 111.085 53.7428 111.085 53.4147C111.085 53.0984 111.332 52.8398 111.644 52.8218L111.679 52.8208L111.712 52.8206L111.72 52.8193C113.299 52.5411 114.373 50.0746 113.977 47.194L113.965 47.1057C113.531 44.1451 111.746 42.0428 110.121 42.2815C109.796 42.3292 109.494 42.1048 109.446 41.7803C109.398 41.4557 109.623 41.1539 109.948 41.1062Z" fill="#E0840B"/>
<path fill-rule="evenodd" clip-rule="evenodd" d="M119.389 19.1031L119.369 19.1427C115.346 19.6971 110.827 21.5186 108.29 24.1716C105.317 27.3196 105.178 32.9029 106.764 36.5063C108.013 35.6351 109.737 35.4768 111.263 36.2093C111.342 36.2489 111.422 36.2885 111.481 36.3281C117.387 33.9324 117.467 24.9636 117.467 24.1716C118.775 25.221 120.46 27.0227 120.004 28.9629L141.052 30.4479C141.052 30.4677 145.373 14.9454 119.389 19.1031ZM116.496 24.6666C116.773 24.4488 117.051 24.2706 117.348 24.0924C117.368 24.1122 117.387 24.132 117.407 24.132L116.496 24.6666Z" fill="#000091"/>
<path fill-rule="evenodd" clip-rule="evenodd" d="M180.078 152.092H154.57L147.237 119.978C147.078 119.285 146.484 118.79 145.79 118.79H91.1072C90.1361 118.79 89.4424 119.721 89.6604 120.691L97.8459 156.566C98.0045 157.259 98.5991 157.754 99.2928 157.754C99.2928 157.754 171.833 157.754 174.965 157.754C181.148 157.754 180.078 152.092 180.078 152.092Z" fill="#6A6AF4"/>
<path fill-rule="evenodd" clip-rule="evenodd" d="M198.609 128.274L200.056 141.084C200.056 141.084 178.671 143.915 169.157 144.746C168.721 144.786 160.694 149.854 161.566 150.27C166.739 152.725 160.912 155.002 167.73 154.091C167.73 154.091 189.77 156.527 210.224 152.785C212.681 152.329 215.317 150.231 216.031 147.835C217.22 143.875 217.498 132.887 216.13 123.027C216.17 122.987 198.609 128.274 198.609 128.274Z" fill="white"/>
<path fill-rule="evenodd" clip-rule="evenodd" d="M216.117 122.433L216.052 122.438C216.04 122.439 216.034 122.44 216.026 122.442L215.976 122.453L215.902 122.472L215.515 122.585L212.902 123.362L207.164 125.081L198.438 127.705L198.404 127.716C198.148 127.81 197.987 128.067 198.018 128.34L199.4 140.571L195.995 141.014L195.308 141.102C191.764 141.558 188.139 142.014 184.643 142.439L183.226 142.61L181.416 142.827C176.237 143.441 172.026 143.899 169.105 144.155C168.713 144.19 166.594 145.481 164.537 146.876L164.196 147.109C163.267 147.748 162.488 148.323 161.94 148.783C161.579 149.085 161.317 149.339 161.152 149.554C161.03 149.713 160.949 149.862 160.918 150.033C160.859 150.352 161.007 150.662 161.31 150.806C162.312 151.282 162.894 151.753 163.179 152.224C163.359 152.523 163.408 152.748 163.427 153.231L163.43 153.298C163.458 154.117 163.626 154.525 164.334 154.76L164.368 154.771C164.949 154.95 165.903 154.927 167.599 154.708L167.737 154.69L168.177 154.734C168.337 154.75 168.511 154.766 168.699 154.784L169.456 154.851C170.29 154.922 171.216 154.992 172.226 155.059L172.443 155.074C183.308 155.781 195.09 155.637 206.176 154.045C207.588 153.843 208.973 153.617 210.331 153.369C213.08 152.86 215.841 150.555 216.601 148.004L216.639 147.872C217.905 143.443 218.009 132.246 216.719 122.945L216.701 122.948L216.7 122.945C216.679 122.73 216.642 122.698 216.451 122.527L216.258 122.455C216.174 122.425 216.159 122.427 216.117 122.433ZM215.632 123.788L215.652 123.945C216.814 133.013 216.668 143.647 215.461 147.664C214.834 149.771 212.439 151.77 210.115 152.201C208.774 152.446 207.404 152.669 206.006 152.869C195.015 154.447 183.31 154.591 172.521 153.888L172.091 153.86C171.031 153.788 170.067 153.712 169.208 153.637L168.592 153.581C168.418 153.564 168.257 153.549 168.111 153.534L167.795 153.501C167.747 153.496 167.699 153.496 167.651 153.503L167.369 153.54C165.902 153.725 165.085 153.745 164.73 153.639L164.675 153.621C164.639 153.608 164.631 153.591 164.626 153.475L164.618 153.258C164.594 152.541 164.518 152.141 164.197 151.61L164.159 151.549C163.81 151.002 163.245 150.504 162.414 150.039L162.352 150.005L162.365 149.992C162.46 149.903 162.574 149.802 162.705 149.692L162.833 149.586C163.407 149.117 164.23 148.52 165.205 147.859C166.065 147.276 167.003 146.67 167.813 146.173L167.974 146.075C168.339 145.852 168.658 145.665 168.902 145.529L168.957 145.498C169.064 145.439 169.152 145.393 169.219 145.36L169.277 145.332L169.719 145.293C172.796 145.014 177.144 144.534 182.441 143.901L183.838 143.733C184.152 143.695 184.468 143.657 184.786 143.618C187.968 143.231 191.255 142.819 194.491 142.405L197.456 142.023L200.134 141.673L200.168 141.667C200.471 141.609 200.682 141.327 200.647 141.017L199.256 128.699L214.18 124.22L215.632 123.788Z" fill="#000091"/>
<path fill-rule="evenodd" clip-rule="evenodd" d="M160.159 152.23C157.781 154.963 154.966 155.755 155.363 153.993C155.502 153.339 161.15 147.598 163.211 146.588C164.797 145.816 167.175 144.984 170.446 144.608" fill="white"/>
<path fill-rule="evenodd" clip-rule="evenodd" d="M155.935 154.162C155.923 154.224 155.918 154.274 155.919 154.31L155.92 154.331L155.933 154.334C156.026 154.351 156.219 154.333 156.481 154.25L156.531 154.234C157.455 153.924 158.662 153.045 159.71 151.84C159.926 151.593 160.302 151.567 160.549 151.782C160.797 151.997 160.823 152.372 160.608 152.62C159.429 153.974 158.052 154.977 156.91 155.36C155.534 155.821 154.47 155.254 154.781 153.869C154.997 152.85 160.988 147.015 162.951 146.054C164.946 145.082 167.423 144.357 170.378 144.018C170.704 143.98 170.999 144.214 171.036 144.54C171.074 144.866 170.84 145.16 170.514 145.198C167.693 145.522 165.347 146.209 163.473 147.121C162.617 147.54 160.876 149.003 158.981 150.849L158.748 151.077C158.053 151.761 157.4 152.438 156.885 153.005L156.681 153.232C156.47 153.47 156.294 153.678 156.161 153.847L156.125 153.892C156.06 153.976 156.008 154.047 155.971 154.103L155.942 154.147C155.938 154.153 155.937 154.15 155.941 154.134L155.935 154.162Z" fill="#000091"/>
<path fill-rule="evenodd" clip-rule="evenodd" d="M164.162 149.934C164.162 149.934 161.804 150.488 160.357 152.052C158.91 153.636 157.8 154.626 158.058 154.962C158.296 155.299 159.842 155.655 160.833 154.745C162.101 153.101 165.708 152.012 165.708 152.012C165.312 152.052 162.815 152.884 161.606 153.913C160.416 154.923 159.782 156.903 163.033 155.438C163.033 155.438 166.362 154.448 167.651 154.032" fill="white"/>
<path fill-rule="evenodd" clip-rule="evenodd" d="M164.026 149.356C164.346 149.281 164.666 149.479 164.741 149.798C164.816 150.117 164.618 150.437 164.298 150.512L164.271 150.519C164.237 150.528 164.185 150.542 164.116 150.561C163.961 150.606 163.786 150.662 163.597 150.73C163.057 150.925 162.518 151.173 162.018 151.477C161.543 151.767 161.129 152.093 160.796 152.453L160.251 153.037C159.776 153.545 159.171 154.189 159.016 154.366L158.927 154.469C158.885 154.519 158.848 154.565 158.814 154.607L158.764 154.671L158.806 154.682C158.902 154.703 159.007 154.718 159.116 154.725L159.182 154.728C159.639 154.743 160.066 154.617 160.385 154.347L160.399 154.335L160.416 154.314C160.472 154.245 160.53 154.178 160.593 154.111L160.647 154.053L160.652 154.046C160.804 153.855 160.978 153.673 161.168 153.506L161.22 153.461C162.291 152.549 164.812 151.505 165.649 151.422C166.353 151.352 166.562 152.339 165.915 152.57L165.668 152.65L165.486 152.711C165.361 152.755 165.227 152.803 165.086 152.855C164.484 153.079 163.883 153.337 163.325 153.624C162.588 154.003 161.991 154.4 161.583 154.797L161.562 154.818L161.537 154.851C161.393 155.043 161.292 155.225 161.251 155.349L161.246 155.366L161.264 155.366C161.547 155.363 162.01 155.235 162.635 154.964L162.788 154.897L162.825 154.881L162.881 154.863L163.662 154.63L164.931 154.249L166.156 153.877C166.711 153.706 167.157 153.567 167.468 153.467C167.78 153.366 168.115 153.538 168.216 153.85C168.317 154.162 168.146 154.497 167.833 154.597L167.342 154.753C167.107 154.827 166.835 154.911 166.531 155.004L165.765 155.238L164.772 155.537L163.239 155.996L163.185 156.021C162.42 156.358 161.81 156.534 161.335 156.552L161.278 156.554C160.7 156.561 160.253 156.307 160.1 155.83L160.09 155.794L160.082 155.797C159.103 156.064 158.018 155.878 157.598 155.341L157.586 155.323C157.351 155.018 157.386 154.684 157.562 154.344L157.583 154.303C157.687 154.115 157.842 153.908 158.067 153.646L158.12 153.585C158.371 153.298 159.628 151.969 159.92 151.649C160.336 151.2 160.835 150.807 161.399 150.463C161.973 150.113 162.584 149.832 163.194 149.613L163.328 149.565C163.633 149.46 163.874 149.392 164.026 149.356Z" fill="#000091"/>
<path fill-rule="evenodd" clip-rule="evenodd" d="M245.583 62.324C253.059 62.324 259.12 56.2697 259.12 48.8014C259.12 41.3331 253.059 35.2788 245.583 35.2788C238.107 35.2788 232.046 41.3331 232.046 48.8014C232.046 56.2697 238.107 62.324 245.583 62.324Z" fill="white"/>
<path fill-rule="evenodd" clip-rule="evenodd" d="M245.583 34.6851C237.778 34.6851 231.451 41.0053 231.451 48.8016C231.451 56.598 237.778 62.9181 245.583 62.9181C253.387 62.9181 259.714 56.598 259.714 48.8016C259.714 41.0053 253.387 34.6851 245.583 34.6851ZM245.583 35.873C252.73 35.873 258.525 41.6613 258.525 48.8016C258.525 55.9419 252.73 61.7302 245.583 61.7302C238.435 61.7302 232.64 55.9419 232.64 48.8016C232.64 41.6613 238.435 35.873 245.583 35.873Z" fill="#6A6AF4"/>
<path fill-rule="evenodd" clip-rule="evenodd" d="M251.253 40.1347C251.436 39.8625 251.806 39.7901 252.078 39.9732C252.341 40.1494 252.418 40.4981 252.26 40.7668L252.24 40.7975L246.631 49.1328C246.463 49.3825 246.136 49.4657 245.871 49.3321L245.838 49.3142L239.258 45.4733C238.974 45.3078 238.879 44.944 239.044 44.6608C239.204 44.388 239.547 44.2894 239.826 44.4303L239.858 44.4476L245.956 48.0071L251.253 40.1347Z" fill="#6A6AF4"/>
<path fill-rule="evenodd" clip-rule="evenodd" d="M105.259 157.754H62.884C62.3687 157.754 61.9326 157.338 61.9326 156.804V148.211C61.9326 147.696 62.3488 147.261 62.884 147.261H105.259C105.774 147.261 106.21 147.677 106.21 148.211V156.804C106.21 157.338 105.774 157.754 105.259 157.754Z" fill="#000091"/>
<path fill-rule="evenodd" clip-rule="evenodd" d="M100.343 155.358C101.547 155.358 102.523 154.348 102.523 153.101C102.523 151.855 101.547 150.844 100.343 150.844C99.1392 150.844 98.1631 151.855 98.1631 153.101C98.1631 154.348 99.1392 155.358 100.343 155.358Z" fill="white"/>
<path fill-rule="evenodd" clip-rule="evenodd" d="M88.3331 155.359H66.016C65.5602 155.359 65.1836 154.982 65.1836 154.527V151.656C65.1836 151.201 65.5602 150.825 66.016 150.825H88.3331C88.7889 150.825 89.1655 151.201 89.1655 151.656V154.527C89.1655 155.002 88.7889 155.359 88.3331 155.359Z" fill="white"/>
<path fill-rule="evenodd" clip-rule="evenodd" d="M112.235 147.221H69.8605C69.3452 147.221 68.9092 146.806 68.9092 146.271V137.678C68.9092 137.164 69.3254 136.728 69.8605 136.728H112.235C112.751 136.728 113.187 137.144 113.187 137.678V146.271C113.187 146.786 112.77 147.221 112.235 147.221Z" fill="#FF8D7E"/>
<path fill-rule="evenodd" clip-rule="evenodd" d="M107.339 144.826C108.543 144.826 109.52 143.815 109.52 142.569C109.52 141.322 108.543 140.312 107.339 140.312C106.135 140.312 105.159 141.322 105.159 142.569C105.159 143.815 106.135 144.826 107.339 144.826Z" fill="white"/>
<path fill-rule="evenodd" clip-rule="evenodd" d="M95.3295 144.825H72.9926C72.5367 144.825 72.1602 144.449 72.1602 143.994V141.123C72.1602 140.668 72.5367 140.292 72.9926 140.292H95.3097C95.7655 140.292 96.1421 140.668 96.1421 141.123V143.994C96.1421 144.469 95.7853 144.825 95.3295 144.825Z" fill="white"/>
</g>
<defs>
<clipPath id="clip0_541_26409">
<rect width="282" height="158.625" fill="white"/>
</clipPath>
</defs>
</svg>
