<svg xmlns="http://www.w3.org/2000/svg" width="280" height="159" fill="none" viewBox="0 0 280 159"><g clip-path="url(#a)"><path fill="#e8edff" d="M0 0h282v158.625H0z"/><path fill="#ff8d7e" fill-rule="evenodd" d="M205.368 77.311c29.353-1.683 33.554 15.938 32.445 29.342-1.13 13.721-4.103 51.2-4.103 51.2.178.198-69.726.198-69.528 0 0 0 2.795-37.479 3.924-51.2 1.11-13.404 8.166-31.044 37.262-29.342" clip-rule="evenodd"/><path fill="#000091" fill-rule="evenodd" d="m227.602 113.166-2.573 33.117c-.383 4.886-.682 8.64-.933 11.718a.595.595 0 0 1-1.186-.097l.512-6.367c.22-2.769.472-5.982.768-9.784l2.414-31.053.33-4.115c.549-6.657-.342-12.648-3.035-17.427-3.302-5.86-9.177-9.654-18.06-10.922a.595.595 0 1 1 .168-1.176c9.239 1.319 15.439 5.323 18.928 11.515 2.797 4.965 3.733 11.11 3.201 17.901l-.443 5.53z" clip-rule="evenodd"/><path fill="#fff" fill-rule="evenodd" d="M168.107 124.195c0-.02-15.816 2.475-15.816 2.475l-1.685 15.779.595 12.394c3.409.08 7.096-.158 11-.871 2.458-.455 5.094-2.554 5.807-4.949 1.17-3.98 1.447-14.948.099-24.828" clip-rule="evenodd"/><path fill="#000091" fill-rule="evenodd" d="m168.201 123.608-.07-.007h-.049l-.024.002-.054.006-.162.023-2.876.445-7.357 1.154-5.411.852a.594.594 0 0 0-.498.524l-1.685 15.779a1 1 0 0 0-.003.092l.595 12.394a.594.594 0 0 0 .58.565 54.7 54.7 0 0 0 11.121-.88c2.749-.51 5.51-2.815 6.27-5.365l.038-.133c1.246-4.456 1.35-15.635.08-24.944l-.009.001-.004-.026c-.021-.113-.031-.131-.077-.218l-.12-.123a.3.3 0 0 0-.084-.07l-.112-.046c-.044-.018-.056-.019-.089-.025m-.604 1.262.031.243c1.144 9.078.998 19.698-.19 23.742-.627 2.104-3.021 4.103-5.346 4.533l-.333.06a53.5 53.5 0 0 1-9.894.813l-.097-.002-.566-11.792 1.632-15.282 12.07-1.896z" clip-rule="evenodd"/><path fill="#6a6af4" fill-rule="evenodd" d="m157.285 158.447 3.171-18.472s-2.973-3.703-2.735-8.93c.02-.336.04-.693.079-1.049-.019-.079-6.263-2.099-6.619-2.851.238-4.257 3.706-15.562 9.81-18.175 1.963-.911 6.7-2.257 7.671-2.594 4.519-1.524 14.012-4.019 22.257-2.376 0 0 12.606 2.059 15.42 3.722 1.526.911 9.157 5.841 10.604 19.482.019.218-13.18 4.831-13.18 4.831l-1.309 26.392" clip-rule="evenodd"/><path fill="#fff" fill-rule="evenodd" d="m176.57 97.744-.119 7.266-2.577.495c-.436.634-5.311 8.078 5.709 9.028 7.194.634 15.122-3.583 19.383-8.592l-7.056-1.921-2.12-13.483z" clip-rule="evenodd"/><path fill="#000091" fill-rule="evenodd" d="m176.285 97.222-.034.02a.6.6 0 0 0-.276.492l-.111 6.783-2.102.404a.6.6 0 0 0-.378.247 10 10 0 0 0-.897 1.646c-.453 1.048-.7 2.101-.648 3.116.145 2.87 2.575 4.753 7.692 5.195 6.95.612 15.156-3.237 19.888-8.8l.023-.028a.594.594 0 0 0-.319-.93l-6.685-1.819-2.061-13.103a.595.595 0 0 0-.872-.43zm13.048-5.76 1.99 12.65.007.038a.6.6 0 0 0 .424.443l6.13 1.668-.07.075c-4.577 4.862-11.964 8.153-18.179 7.605-4.585-.395-6.498-1.878-6.609-4.071-.04-.808.166-1.69.553-2.586.145-.336.308-.656.479-.952l.038-.066q.057-.097.11-.182l.027-.043 2.33-.448.036-.008a.595.595 0 0 0 .447-.566l.113-6.92z" clip-rule="evenodd"/><path fill="#e0840b" d="m202.783 60.274 2.553 2.104-3.707 4.49-2.553-2.103z"/><path fill="#000091" fill-rule="evenodd" d="M207.549 62.938a5.824 5.824 0 0 0 5.827-5.821 5.824 5.824 0 0 0-5.827-5.821 5.824 5.824 0 0 0-5.827 5.82 5.824 5.824 0 0 0 5.827 5.822M201.048 62.542c-4.341-2.93-9.335-5.148-14.667-4.693-16.43 2.159-20.414 12.513-16.311 18.928 2.576-7.405 4.756-9.86 7.987-10.79 1.15 5.207 9.335 13.087 17.659 15.582.02-.02-2.219 7.464-2.933 7.206-.258.396-2.913 3.98-2.913 3.98l1.684 8.355 18.73 2.277c1.13.297 2.319-.555 2.358-1.703.219-7.108 2.24-29.48-11.594-39.142" clip-rule="evenodd"/><path fill="#fff" fill-rule="evenodd" d="m190.444 90.517 1.031.535s6.243 2.613 8.086-3.326c1.408-4.514-3.151-5.524-5.45-5.762" clip-rule="evenodd"/><path fill="#000091" fill-rule="evenodd" d="M193.52 81.903a.594.594 0 0 1 .652-.53c1.698.176 3.23.593 4.387 1.376 1.657 1.121 2.286 2.857 1.57 5.153-.747 2.408-2.244 3.753-4.234 4.175-1.201.254-2.464.154-3.681-.164l-.151-.04a7 7 0 0 1-.818-.273l-.022-.01-.022-.011-1.031-.535a.593.593 0 0 1 .516-1.07l.032.016 1.007.522.056.022.092.033.037.014q.268.093.605.182c1.053.276 2.14.362 3.133.152 1.572-.334 2.727-1.37 3.346-3.366.558-1.791.125-2.986-1.101-3.816-.96-.65-2.323-1.021-3.843-1.178a.593.593 0 0 1-.53-.652" clip-rule="evenodd"/><path fill="#fff" fill-rule="evenodd" d="M170.069 76.797c2.577-7.405 4.638-9.583 7.869-10.513 1.129 5.128 8.264 12.592 17.56 15.265-.099 1.088.02.118-.258 1.286-.376 1.169-.793 2.495-1.209 3.604-1.843 4.098-4.162 6.355-4.162 6.355-3.389 3.584-7.987 5.762-13.14 4.91-8.979-1.484-8.127-14.453-7.611-17.244.238-1.406.931-3.663.951-3.663q-.03 0 0 0" clip-rule="evenodd"/><path fill="#000091" fill-rule="evenodd" d="M177.663 65.745c-3.618 1.083-5.69 3.771-8.156 10.857h.002l-.03.082c-.226.634-.733 2.505-.925 3.548l-.023.129c-.432 2.343-.46 6.157.252 9.34 1.059 4.735 3.577 7.883 7.848 8.59l.152.023c4.955.766 9.683-1.12 13.405-4.993l.106-.111.059-.059q.138-.14.374-.404c.321-.36.668-.784 1.032-1.27a25.3 25.3 0 0 0 2.815-4.795l.014-.035c.185-.492.375-1.038.596-1.706l.196-.6.426-1.323.007-.023.055-.225q.045-.178.074-.27l.022-.063.012-.027.005-.01a.7.7 0 0 0 .058-.225l.051-.573a.594.594 0 0 0-.428-.624c-4.294-1.235-8.358-3.591-11.604-6.578-2.968-2.732-4.998-5.783-5.54-8.244a.594.594 0 0 0-.745-.443zm-.221 1.327.079-.029.002.007c.773 2.589 2.838 5.562 5.73 8.224l.149.136c3.203 2.908 7.148 5.225 11.34 6.532l.122.038-.001.007-.018.046-.027.078-.009.03a7 7 0 0 0-.117.431l-.025.102-.486 1.509-.166.504c-.186.56-.35 1.03-.507 1.453l-.026.07.007-.015a24 24 0 0 1-2.682 4.57c-.343.458-.67.857-.969 1.193l-.101.113-.094.102-.106.112-.1.101c-3.52 3.722-7.968 5.5-12.611 4.732-3.717-.614-5.919-3.366-6.883-7.676-.674-3.016-.647-6.67-.241-8.875.102-.597.296-1.403.538-2.277l.061-.219c.051-.18.102-.354.149-.513l.096-.317.065-.202.005-.009.015-.038.132-.377c2.149-6.074 3.897-8.495 6.679-9.543" clip-rule="evenodd"/><path fill="#000091" fill-rule="evenodd" d="M177.001 75.125a.594.594 0 0 1 1.096.46l-.014.032-4.049 8.883 1.857.493a.594.594 0 0 1 .43.693l-.008.034a.594.594 0 0 1-.693.43l-.034-.009-2.537-.673a.594.594 0 0 1-.403-.787l.014-.033zM180.997 75.145c1.253-.425 2.321.032 3.138.999a4.8 4.8 0 0 1 .692 1.092.594.594 0 0 1-1.079.499l-.039-.086a3.642 3.642 0 0 0-.483-.74c-.532-.628-1.127-.883-1.846-.64a.594.594 0 1 1-.383-1.124M177.966 88.817a.595.595 0 0 1 .854.827c-.454.468-1.035.74-1.698.848-.631.102-1.286.05-1.921-.095l-.116-.028a5 5 0 0 1-.424-.126.594.594 0 0 1 .375-1.126l.085.028.044.014q.135.04.302.08c.498.114 1.007.154 1.465.08.4-.065.73-.213.987-.456zM171.323 73.075c.968-.427 1.964-.2 2.894.404.344.224.604.448.759.608a.596.596 0 0 1-.826.854l-.062-.06a3.5 3.5 0 0 0-.519-.405c-.628-.408-1.237-.547-1.766-.314a1.6 1.6 0 0 0-.328.197l-.054.043a.595.595 0 0 1-.76-.913 2.8 2.8 0 0 1 .662-.414M180.735 79.592c.162-.726-.087-1.4-.557-1.504s-.983.398-1.146 1.124c-.162.725.087 1.398.557 1.504.47.105.983-.398 1.146-1.124M172.609 78.048c.162-.725-.087-1.399-.557-1.504s-.983.398-1.145 1.124.086 1.4.556 1.504.983-.398 1.146-1.124" clip-rule="evenodd"/><path fill="#e0840b" fill-rule="evenodd" d="M177.463 78.408c-.96 4.204.873 8.262 4.2 9.02s6.741-2.107 7.701-6.31c.96-4.204-.873-8.263-4.2-9.02s-6.741 2.106-7.701 6.31m1.159.264c.828-3.623 3.672-6.009 6.278-5.416s4.132 3.974 3.305 7.597-3.672 6.009-6.277 5.416-4.133-3.974-3.306-7.597M163.08 75.66c-.96 4.203.873 8.261 4.2 9.019 3.327.757 6.742-2.107 7.702-6.31.96-4.204-.874-8.262-4.201-9.02s-6.741 2.107-7.701 6.31m1.16.263c.827-3.622 3.671-6.008 6.277-5.415 2.605.593 4.133 3.974 3.305 7.597s-3.671 6.008-6.277 5.415-4.133-3.974-3.305-7.597" clip-rule="evenodd"/><path fill="#e0840b" fill-rule="evenodd" d="M174.251 77.1a.594.594 0 0 1 .693-.43l.034.008 3.35.891a.593.593 0 0 1-.272 1.156l-.034-.008-3.35-.89a.593.593 0 0 1-.421-.727M188.48 79.538a.594.594 0 0 1 .733-.358l.033.011 6.996 2.633a.594.594 0 0 1-.386 1.123l-.033-.011-6.996-2.633a.593.593 0 0 1-.347-.766" clip-rule="evenodd"/><path fill="#fff" fill-rule="evenodd" d="M57.235 49.772c0-.396-3.151-5.01-4.122-6.554s1.367-2.93 2.933-.614c1.546 2.317 2.596 4.376 2.596 4.376" clip-rule="evenodd"/><path fill="#000091" fill-rule="evenodd" d="M53.417 40.908c1.04-.394 2.27.103 3.124 1.367a50 50 0 0 1 1.9 3.093l.132.233q.16.286.298.542l.14.259.147.28.014.028a.594.594 0 0 1-1.042.571l-.023-.042-.09-.173-.087-.164-.105-.194a48.93 48.93 0 0 0-2.272-3.772c-.562-.831-1.229-1.101-1.714-.917-.361.137-.478.476-.223.883l.127.2c.11.173.246.382.414.638l1.442 2.193c1.734 2.641 2.23 3.445 2.23 3.839a.594.594 0 0 1-1.173.136l-.006-.033-.006-.013a2 2 0 0 0-.072-.144l-.04-.077a17 17 0 0 0-.422-.715l-.242-.388c-.253-.401-.558-.875-.934-1.45l-1.857-2.827c-.199-.305-.35-.538-.468-.727-.657-1.046-.251-2.224.808-2.626" clip-rule="evenodd"/><path fill="#fff" fill-rule="evenodd" d="M60.327 56.484s-2.775-4.574-3.032-6.455c-.258-1.88-.555-10.79-.159-11.681s2.041-.891 2.081 1.267 0 6.771 0 6.771" clip-rule="evenodd"/><path fill="#000091" fill-rule="evenodd" d="M56.593 38.106a1.546 1.546 0 0 1 1.909-.83c.8.272 1.287 1.12 1.31 2.328l.007.524c.006.538.01 1.191.01 1.94v.96l-.003.882-.007 1.345-.008 1.136a.594.594 0 0 1-1.188.025v-.127l.008-1.182.006-1.201.002-.88V41.58c-.002-.79-.007-1.452-.017-1.955-.013-.75-.234-1.134-.504-1.226a.356.356 0 0 0-.439.189c-.285.64-.096 9.164.204 11.36.076.551.433 1.482 1 2.651q.209.427.446.885c.274.528.566 1.061.86 1.58l.177.31q.105.186.203.35l.266.45a.594.594 0 0 1-.997.647l-.056-.09-.098-.166a52.778 52.778 0 0 1-1.41-2.534 37 37 0 0 1-.46-.914l-.108-.222c-.558-1.174-.909-2.115-1-2.787l-.019-.141c-.122-1.03-.248-3.474-.306-5.9l-.013-.594c-.058-2.925-.003-4.857.224-5.368" clip-rule="evenodd"/><path fill="#fff" fill-rule="evenodd" d="M58.345 53.276c-.634-2.217-1.05-3.999-.971-4.593.238-1.94 2.398-10.612 3.151-11.285s2.14.831 1.566 2.95l-1.447 6.137s2.2-6.632 2.715-7.325c.516-.693 2.597.356 1.031 4.356-1.566 3.98-1.387 4.395-1.387 4.395s2.12-4.732 2.735-5.524 2.636 1.188.02 5.365l6.362 13.424-9.95 4.158s-2.418-7.068-3.825-12.058" clip-rule="evenodd"/><path fill="#000091" fill-rule="evenodd" d="M60.13 36.955c.69-.618 1.619-.292 2.172.543.263.397.433.88.494 1.408l.003.028.01-.018q.032-.052.06-.092l.014-.019c.58-.78 1.738-.479 2.288.477.356.618.473 1.447.327 2.454l-.011.074.03-.02c.324-.218.74-.223 1.11-.022l.045.025c.397.236.702.685.86 1.254.334 1.2.02 2.8-1.025 4.614l-.075.126 6.226 13.135a.594.594 0 0 1-.276.787l-.032.015-9.95 4.158a.595.595 0 0 1-.78-.323l-.017-.047-.438-1.298q-.149-.442-.31-.928a337 337 0 0 1-1.657-5.112l-.175-.558-.17-.548-.202-.658c-.287-.937-.546-1.81-.775-2.61l-.203-.717c-.646-2.292-.963-3.786-.893-4.44l.004-.032c.121-.99.709-3.596 1.367-6.082l.124-.464c.778-2.889 1.393-4.698 1.854-5.11m.842.882-.022-.007c-.013-.004-.016-.001-.028.01-.495.443-2.633 8.462-2.95 10.85l-.008.071c-.056.42.27 1.939.893 4.14l.163.574c.244.853.523 1.792.834 2.804l.135.438q.167.54.344 1.101c.46 1.46.948 2.968 1.44 4.457l.42 1.263.336 1.002 8.787-3.672-6.095-12.862a.6.6 0 0 1 .013-.534l.02-.035c1.077-1.72 1.392-3.14 1.133-4.072a1.2 1.2 0 0 0-.237-.479l-.021-.022-.054.087c-.223.365-.591 1.076-1.047 2.016l-.11.23-.073.152c-.257.536-.524 1.107-.788 1.682l-.359.784-.152.338a.595.595 0 0 1-1.133-.163c-.075-.474.283-1.79 1.424-4.691.636-1.625.667-2.794.303-3.425-.098-.171-.212-.272-.308-.306l-.025-.008-.027.048c-.174.329-.555 1.293-1.037 2.625l-.127.354-.145.404-.191.545c-.161.46-.325.934-.489 1.411l-.323.951-.26.774c-.234.708-1.282.424-1.15-.288l.008-.035 1.447-6.138.005-.019c.219-.808.112-1.556-.207-2.038-.116-.175-.242-.283-.339-.317" clip-rule="evenodd"/><path fill="#fff" fill-rule="evenodd" d="M153.599 105.763s3.944-1.901 5.49-1.98 8.879.416 9.573.812c.693.396.555 1.742-1.209 1.583-1.784-.138-5.51-.574-5.51-.574" clip-rule="evenodd"/><path fill="#000091" fill-rule="evenodd" d="m159.058 103.189.123-.005c2.107-.072 9.033.471 9.776.895a1.37 1.37 0 0 1 .562 1.763c-.304.662-1.056 1.004-2.043.934l-.302-.024c-.487-.041-1.105-.1-1.828-.175l-.706-.074-1.444-.158-1.322-.151a.594.594 0 0 1 .103-1.183l.872.099.961.108.48.052.935.1.814.083c.474.047.889.086 1.237.115l.23.019c.57.051.856-.075.932-.241a.183.183 0 0 0-.071-.236c-.479-.273-7.401-.811-9.195-.737l-.053.003c-.449.023-1.247.25-2.26.632a29 29 0 0 0-.794.313c-.523.214-1.05.443-1.554.672l-.253.116-.401.188a.595.595 0 0 1-.517-1.069l.185-.088.493-.228a46 46 0 0 1 1.596-.69q.426-.174.825-.325l.215-.08c1.022-.376 1.834-.598 2.404-.628" clip-rule="evenodd"/><path fill="#fff" fill-rule="evenodd" d="M147.732 105.644s4.46-.475 8.622-1.248Z" clip-rule="evenodd"/><path fill="#000091" fill-rule="evenodd" d="M156.245 103.812a.595.595 0 0 1 .218 1.168q-.387.072-.789.143a122 122 0 0 1-5.02.763l-.777.101q-.66.083-1.239.151l-.843.096a.594.594 0 1 1-.126-1.181l.489-.055.506-.059c.446-.053.929-.113 1.441-.179 1.83-.237 3.658-.508 5.363-.807z" clip-rule="evenodd"/><path fill="#fff" fill-rule="evenodd" d="M153.837 105.07c1.843-.337 5.906-1.307 6.382-1.188 1.566.356 8.443 2.871 8.919 3.524.475.673-.853 1.663-2.537 1.01l-4.876-1.703s5.213 2.356 5.728 2.831-.515 2.079-3.627.456c-3.112-1.604-3.469-1.505-3.469-1.505s3.667 2.119 4.282 2.693c.614.574-1.19 2.039-4.381-.456l-6.243 2.356c-1.447-.059-12.169-3.484-11.495-4.454.674-.971 5.331-7.504 5.331-7.504z" clip-rule="evenodd"/><path fill="#000091" fill-rule="evenodd" d="m160.161 111.404.076.055c1.403 1.009 2.701 1.406 3.734 1.238.507-.083.926-.306 1.169-.635l.028-.039c.17-.25.224-.54.156-.807l-.004-.015.013.003c.748.164 1.392.126 1.907-.102l.045-.021c.794-.377 1.158-1.249.691-1.844l-.02-.024.027-.003c.352-.032.681-.125.97-.274.775-.402 1.15-1.194.67-1.873-.314-.431-1.708-1.075-3.991-1.958l-.333-.127c-1.981-.758-4.064-1.466-4.906-1.666l-.072-.016c-.334-.068-1.005.035-2.758.397l-2.991.628c-.21.043-.37.075-.521.104l-.087.017-5.786-3.808a.595.595 0 0 0-.789.122l-.325.454-4.607 6.479c-.199.281-.343.486-.426.606-.328.473-.1.9.356 1.268q.4.32 1.179.7c.903.444 2.195.963 3.707 1.499l.197.069c2.757.969 5.724 1.818 6.521 1.851q.12.004.234-.038zm-12.158-9.463 5.506 3.625a.6.6 0 0 0 .435.088l.38-.071c.165-.032.346-.069.591-.119l2.678-.563a65 65 0 0 1 1.379-.274l.22-.039q.392-.07.643-.1.124-.015.205-.02l.059-.002h.009l.091.022c.795.202 2.602.815 4.375 1.485l.387.148.36.139c1.656.646 2.969 1.237 3.274 1.444l.024.016-.015.018a.7.7 0 0 1-.198.143c-.375.194-.933.218-1.524.006l-.085-.032-4.876-1.703c-.704-.246-1.119.757-.473 1.087l.93.425.504.233c.419.195.834.389 1.234.578l.483.23c.584.28 1.088.529 1.493.737l.209.108.17.091q.217.116.36.2l.104.062-.01.01a.7.7 0 0 1-.166.103c-.498.22-1.381.108-2.578-.502l-.453-.232c-2.079-1.057-3.028-1.412-3.42-1.379l-.016.001c-.045.006-.045.006-.094.019a.593.593 0 0 0-.169 1.067l.079.047.63.368c.437.257.873.518 1.288.769l.4.244.315.195c.494.308.893.567 1.161.756l.125.088-.022.009a1.2 1.2 0 0 1-.226.058c-.753.123-1.862-.249-3.154-1.26l-.034-.024a.6.6 0 0 0-.543-.064l-6.118 2.309-.025-.003c-.861-.115-3.704-.942-6.234-1.839l-.282-.101c-1.304-.469-2.419-.919-3.215-1.304l-.157-.077-.15-.076a6 6 0 0 1-.63-.369l-.033-.024 1.448-2.043zM135.285 27.557s-11.951-8.77-13.437-8.275l-6.68-.594c-7.789-.693-14.666 5.048-15.38 12.83L91.127 74.48l39.481 5.226 3.607-40.39c.258-.118.515-.257.753-.415 2.854-1.92 2.874-6.692.317-11.345" clip-rule="evenodd"/><path fill="#eb762f" fill-rule="evenodd" stroke="#eb762f" stroke-linecap="round" stroke-linejoin="round" stroke-width="2.5" d="m152.509 102.06-13.359-9.385 3.905-12.83c1.526-6.592.218-14.927-6.898-17.363-3.429-1.168-4.578-1.484-4.974-1.623v0s-22.357-6.019-25.132-7.068c-1.903-.713-9.91-.396-15.776 5.187l-12.943 9.9-6.5-18.75-15.38 6.296 10.127 30.114s3.33 11.661 12.229 7.345l13.636-7.9c.099 4.534.139 10.83-2.2 17.404a89.3 89.3 0 0 0-5.193 30.133c.02 12.335.06 23.719.06 23.719l58.329.515s-9.612-44.032-9.612-47.834c-.04-.277-.04-.574-.06-.871 4.935 3.128 11.06 5.9 11.06 5.9z" clip-rule="evenodd"/><path fill="#000091" fill-rule="evenodd" d="M133.283 70.212c.313-.1.647.073.746.386l.5 1.547c.403 1.238.89 2.73 1.021 3.14l.105.331c.498 1.576.85 2.805 1.125 3.972.729 3.093.863 5.62.312 8.07-.73 3.248-2.69 6.322-6.193 9.56l-.138.127 4.118 21.113a.594.594 0 0 1-.436.689l-.034.008a.595.595 0 0 1-.69-.435l-.007-.034-4.182-21.443a.6.6 0 0 1 .185-.555c3.577-3.214 5.52-6.188 6.217-9.29.506-2.252.381-4.606-.31-7.537l-.056-.236c-.269-1.106-.614-2.294-1.097-3.815l-.3-.932c-.383-1.177-1.046-3.206-1.273-3.92a.594.594 0 0 1 .387-.746" clip-rule="evenodd"/><path fill="#fff" fill-rule="evenodd" d="m92.217 86.063 11.693-7.267Z" clip-rule="evenodd"/><path fill="#000091" fill-rule="evenodd" d="M103.597 78.292a.595.595 0 0 1 .659.989l-.031.02-11.693 7.266a.595.595 0 0 1-.658-.989l.03-.02zM77.66 68.686a.595.595 0 0 1 .835.103l.096.127.047.063q.165.224.362.51c.372.545.745 1.142 1.092 1.776.692 1.258 1.2 2.5 1.45 3.68.253 1.192.23 2.278-.124 3.228a.595.595 0 0 1-1.115-.416c.267-.714.285-1.578.076-2.565-.222-1.051-.69-2.19-1.33-3.356a20 20 0 0 0-1.03-1.676l-.104-.149q-.1-.144-.19-.267l-.148-.199-.02-.025a.593.593 0 0 1 .104-.834" clip-rule="evenodd"/><path fill="#fff" fill-rule="evenodd" d="m125.91 50.98.119 8.71 4.579 1.367c.198.772-1.566 13.978-13.2 10.592-7.631-2.217-10.445-10.671-10.901-17.423l6.362 2.119-.416-16.334z" clip-rule="evenodd"/><path fill="#000091" fill-rule="evenodd" d="m111.858 40.026.395 15.487-5.558-1.85a.594.594 0 0 0-.781.603c.258 3.832 1.203 7.586 2.827 10.65 1.946 3.672 4.78 6.222 8.501 7.304 5.38 1.565 9.263-.106 11.706-3.992.869-1.382 1.498-2.968 1.894-4.572l.039-.161c.272-1.151.396-2.222.303-2.586l-.011-.037a.6.6 0 0 0-.395-.384l-4.16-1.242-.113-8.275a.6.6 0 0 0-.219-.452l-13.457-10.968a.595.595 0 0 0-.971.475m1.222 1.262 12.239 9.976.116 8.435.001.037a.595.595 0 0 0 .423.524l4.156 1.24-.003.036q-.01.122-.028.265a13 13 0 0 1-.297 1.57c-.367 1.49-.95 2.96-1.746 4.225-2.171 3.453-5.518 4.894-10.367 3.483-3.39-.985-5.978-3.315-7.782-6.719l-.083-.16c-1.351-2.609-2.198-5.757-2.525-9.014l-.011-.112 5.508 1.834a.594.594 0 0 0 .782-.578z" clip-rule="evenodd"/><path fill="#e0840b" fill-rule="evenodd" d="M107.285 43.265a.595.595 0 0 1 1.06.539c-.551 1.083-.751 2.594-.516 4.177.435 2.919 2.177 5.014 3.781 4.823a.595.595 0 1 1 .14 1.18c-2.387.283-4.579-2.353-5.098-5.829-.268-1.816-.036-3.574.633-4.89M134.26 42.513a.594.594 0 0 1 1.06.539c-.552 1.083-.751 2.594-.517 4.177.436 2.92 2.177 5.014 3.782 4.824a.594.594 0 1 1 .14 1.18c-2.388.283-4.579-2.354-5.098-5.83-.269-1.816-.037-3.574.633-4.89" clip-rule="evenodd"/><path fill="#fff" fill-rule="evenodd" d="M113.41 41.943c1.02-2.095.059-4.661-2.146-5.733-2.205-1.071-4.82-.242-5.839 1.853s-.059 4.661 2.146 5.732 4.819.242 5.839-1.852" clip-rule="evenodd"/><path fill="#000091" fill-rule="evenodd" d="M104.891 37.805c-1.167 2.396-.075 5.314 2.419 6.526s5.467.267 6.634-2.13c1.167-2.395.075-5.314-2.419-6.525s-5.467-.268-6.634 2.128m1.069.519c.874-1.794 3.129-2.51 5.045-1.58s2.743 3.145 1.87 4.938c-.874 1.794-3.13 2.51-5.045 1.58s-2.743-3.144-1.87-4.938" clip-rule="evenodd"/><path fill="#fff" fill-rule="evenodd" d="M139.98 40.452c.9-1.849.05-4.115-1.899-5.062s-4.259-.216-5.159 1.633-.05 4.115 1.899 5.062 4.259.216 5.159-1.633" clip-rule="evenodd"/><path fill="#000091" fill-rule="evenodd" d="M132.388 36.764c-1.047 2.15-.065 4.769 2.173 5.856s4.906.242 5.953-1.909.066-4.769-2.172-5.856-4.906-.242-5.954 1.909m1.07.52c.753-1.549 2.704-2.167 4.364-1.36s2.377 2.72 1.623 4.268-2.704 2.165-4.364 1.36c-1.659-.807-2.377-2.721-1.623-4.269" clip-rule="evenodd"/><path fill="#fff" fill-rule="evenodd" d="M126.059 53.64c6.555-1.15 10.658-8.97 9.164-17.468-1.495-8.497-8.019-14.453-14.574-13.303s-10.658 8.97-9.163 17.468 8.019 14.453 14.573 13.303" clip-rule="evenodd"/><path fill="#000091" fill-rule="evenodd" d="M120.544 22.282c-6.915 1.213-11.188 9.363-9.641 18.156s8.347 15.001 15.262 13.789c6.916-1.213 11.189-9.363 9.642-18.156s-8.347-15.001-15.263-13.789m.206 1.17c6.192-1.085 12.442 4.621 13.886 12.825s-2.485 15.694-8.677 16.78c-6.192 1.085-12.441-4.621-13.885-12.824-1.443-8.204 2.484-15.695 8.676-16.78" clip-rule="evenodd"/><path fill="#000091" fill-rule="evenodd" d="M125.724 34.703a.594.594 0 0 1 .713.395l.01.034 1.646 6.437c.148.594-.284 1.187-.879 1.212l-2.398.06a.595.595 0 0 1-.065-1.185l.035-.002 2.088-.052-1.579-6.176a.593.593 0 0 1 .395-.713zM118.719 31.115c.943-.525 1.939-.717 2.906-.343q.512.198.96.603a.593.593 0 1 1-.8.879 1.9 1.9 0 0 0-.59-.374c-.577-.224-1.233-.097-1.896.272q-.235.132-.425.273l-.071.054-.035.028-.034.029a.595.595 0 0 1-.789-.889c.159-.14.425-.337.774-.532M128.156 30.882c.632-.143 1.291-.183 1.926-.053.888.182 1.612.681 2.063 1.54a.594.594 0 0 1-1.036.584l-.018-.032c-.276-.526-.694-.815-1.248-.928-.445-.091-.944-.06-1.425.048q-.117.026-.215.054l-.112.034-.016.006a.595.595 0 0 1-.406-1.117 4 4 0 0 1 .487-.136M123.362 38.063c.032-.776-.369-1.422-.894-1.443s-.976.59-1.007 1.366.369 1.422.894 1.443.976-.59 1.007-1.366M130.437 39.615c.514-.034.889-.688.839-1.463s-.507-1.376-1.02-1.343c-.514.033-.889.688-.839 1.463s.507 1.376 1.02 1.343M119.013 42.959c.102 3.388 1.339 5.086 3.353 5.264.758.067 1.543-.093 2.314-.398.386-.154.685-.308.865-.417a.593.593 0 0 0 .033-.993l-5.628-3.96a.595.595 0 0 0-.937.504m1.286 1.195 3.751 2.638c-.55.195-1.091.291-1.579.248-1.094-.097-1.858-.887-2.147-2.72z" clip-rule="evenodd"/><path fill="#e0840b" fill-rule="evenodd" d="M137.28 40.037c2.356-.346 4.29 2.413 4.837 6.124.518 3.514-.879 6.714-3.297 7.07l-.043.004-.043.002h-.08a.594.594 0 0 1-.034-1.187l.034-.001h.033l.009-.002c1.578-.278 2.652-2.744 2.257-5.625l-.013-.088c-.463-3.145-2.002-5.34-3.487-5.122a.595.595 0 1 1-.173-1.175M109.948 41.106c2.421-.356 4.677 2.3 5.193 5.827.518 3.514-.878 6.714-3.296 7.07l-.043.004-.044.002h-.079a.594.594 0 0 1-.035-1.187l.035-.001h.033l.008-.002c1.579-.278 2.653-2.744 2.257-5.625l-.012-.088c-.434-2.96-2.219-5.063-3.844-4.824a.595.595 0 1 1-.173-1.176" clip-rule="evenodd"/><path fill="#000091" fill-rule="evenodd" d="m119.389 19.103-.02.04c-4.023.554-8.542 2.376-11.079 5.029-2.973 3.148-3.112 8.73-1.526 12.334 1.249-.87 2.973-1.03 4.499-.297.079.04.159.08.218.12 5.906-2.397 5.986-11.365 5.986-12.157 1.308 1.049 2.993 2.85 2.537 4.79l21.048 1.486c0 .02 4.321-15.503-21.663-11.345m-2.893 5.564c.277-.218.555-.396.852-.575.02.02.039.04.059.04z" clip-rule="evenodd"/><path fill="#6a6af4" fill-rule="evenodd" d="M180.078 152.092H154.57l-7.333-32.114c-.159-.693-.753-1.188-1.447-1.188H91.107c-.97 0-1.665.931-1.447 1.901l8.186 35.875c.158.693.753 1.188 1.447 1.188h75.672c6.183 0 5.113-5.662 5.113-5.662" clip-rule="evenodd"/><path fill="#fff" fill-rule="evenodd" d="m198.609 128.274 1.447 12.81s-21.385 2.831-30.899 3.662c-.436.04-8.463 5.108-7.591 5.524 5.173 2.455-.654 4.732 6.164 3.821 0 0 22.04 2.436 42.494-1.306 2.457-.456 5.093-2.554 5.807-4.95 1.189-3.96 1.467-14.948.099-24.808.04-.04-17.521 5.247-17.521 5.247" clip-rule="evenodd"/><path fill="#000091" fill-rule="evenodd" d="m216.117 122.433-.065.005-.026.004-.05.011-.074.019-.387.113-2.613.777-5.738 1.719-8.726 2.624-.034.011a.594.594 0 0 0-.386.624l1.382 12.231-3.405.443-.687.088c-3.544.456-7.169.912-10.665 1.337l-1.417.171-1.81.217c-5.179.614-9.39 1.072-12.311 1.328-.392.035-2.511 1.326-4.568 2.721l-.341.233c-.929.639-1.708 1.214-2.256 1.674-.361.302-.623.556-.788.771a1.1 1.1 0 0 0-.234.479.7.7 0 0 0 .392.773c1.002.476 1.584.947 1.869 1.418.18.299.229.524.248 1.007l.003.067c.028.819.196 1.227.904 1.462l.034.011c.581.179 1.535.156 3.231-.063l.138-.018.44.044.522.05.757.067q1.253.107 2.77.208l.217.015c10.865.707 22.647.563 33.733-1.029a109 109 0 0 0 4.155-.676c2.749-.509 5.51-2.814 6.27-5.365l.038-.132c1.266-4.429 1.37-15.626.08-24.927l-.018.003-.001-.003c-.021-.215-.058-.247-.249-.418l-.193-.072c-.084-.03-.099-.028-.141-.022m-.485 1.355.02.157c1.162 9.068 1.016 19.702-.191 23.719-.627 2.107-3.022 4.106-5.346 4.537a108 108 0 0 1-4.109.668c-10.991 1.578-22.696 1.722-33.485 1.019l-.43-.028c-1.06-.072-2.024-.148-2.883-.223l-.616-.056-.481-.047-.316-.033a.6.6 0 0 0-.144.002l-.282.037c-1.467.185-2.284.205-2.639.099l-.055-.018c-.036-.013-.044-.03-.049-.146l-.008-.217c-.024-.717-.1-1.117-.421-1.648l-.038-.061c-.349-.547-.914-1.045-1.745-1.51l-.062-.034.013-.013q.143-.134.34-.3l.128-.106c.574-.469 1.397-1.066 2.372-1.727a71 71 0 0 1 2.608-1.686l.161-.098c.365-.223.684-.41.928-.546l.055-.031q.161-.089.262-.138l.058-.028.442-.039c3.077-.279 7.425-.759 12.722-1.392l1.397-.168.948-.115c3.182-.387 6.469-.799 9.705-1.213l2.965-.382 2.678-.35.034-.006a.595.595 0 0 0 .479-.65l-1.391-12.318 14.924-4.479z" clip-rule="evenodd"/><path fill="#fff" fill-rule="evenodd" d="M160.159 152.23c-2.378 2.733-5.193 3.525-4.796 1.763.139-.654 5.787-6.395 7.848-7.405 1.586-.772 3.964-1.604 7.235-1.98" clip-rule="evenodd"/><path fill="#000091" fill-rule="evenodd" d="M155.935 154.162a.7.7 0 0 0-.016.148l.001.021.013.003c.093.017.286-.001.548-.084l.05-.016c.924-.31 2.131-1.189 3.179-2.394a.594.594 0 1 1 .898.78c-1.179 1.354-2.556 2.357-3.698 2.74-1.376.461-2.44-.106-2.129-1.491.216-1.019 6.207-6.854 8.17-7.815 1.995-.972 4.472-1.697 7.427-2.036a.593.593 0 1 1 .136 1.18c-2.821.324-5.167 1.011-7.041 1.923-.856.419-2.597 1.882-4.492 3.728l-.233.228a50 50 0 0 0-1.863 1.928l-.204.227c-.211.238-.387.446-.52.615l-.036.045a4 4 0 0 0-.154.211l-.029.044q-.006.01-.001-.013z" clip-rule="evenodd"/><path fill="#fff" fill-rule="evenodd" d="M164.162 149.934s-2.358.554-3.805 2.118c-1.447 1.584-2.557 2.574-2.299 2.91.238.337 1.784.693 2.775-.217 1.268-1.644 4.875-2.733 4.875-2.733-.396.04-2.893.872-4.102 1.901-1.19 1.01-1.824 2.99 1.427 1.525 0 0 3.329-.99 4.618-1.406" clip-rule="evenodd"/><path fill="#000091" fill-rule="evenodd" d="M164.026 149.356a.595.595 0 1 1 .272 1.156l-.027.007-.155.042q-.234.067-.519.169a9 9 0 0 0-1.579.747 5.7 5.7 0 0 0-1.222.976l-.545.584c-.475.508-1.08 1.152-1.235 1.329l-.089.103-.113.138-.05.064.042.011q.145.032.31.043l.066.003c.457.015.884-.111 1.203-.381l.014-.012.017-.021a4 4 0 0 1 .177-.203l.054-.058.005-.007q.23-.288.516-.54l.052-.045c1.071-.912 3.592-1.956 4.429-2.039.704-.07.913.917.266 1.148l-.247.08-.182.061q-.188.066-.4.144a16 16 0 0 0-1.761.769c-.737.379-1.334.776-1.742 1.173l-.021.021-.025.033a2 2 0 0 0-.286.498l-.005.017h.018c.283-.003.746-.131 1.371-.402l.153-.067.037-.016.056-.018.781-.233 1.269-.381 1.225-.372c.555-.171 1.001-.31 1.312-.41a.595.595 0 0 1 .365 1.13l-.491.156q-.354.111-.811.251l-.766.234-.993.299-1.533.459-.054.025c-.765.337-1.375.513-1.85.531l-.057.002c-.578.007-1.025-.247-1.178-.724l-.01-.036-.008.003c-.979.267-2.064.081-2.484-.456l-.012-.018c-.235-.305-.2-.639-.024-.979l.021-.041c.104-.188.259-.395.484-.657l.053-.061c.251-.287 1.508-1.616 1.8-1.936a7 7 0 0 1 1.479-1.186 10 10 0 0 1 1.795-.85l.134-.048c.305-.105.546-.173.698-.209" clip-rule="evenodd"/><path fill="#fff" fill-rule="evenodd" d="M245.583 62.324c7.476 0 13.537-6.054 13.537-13.523s-6.061-13.522-13.537-13.522-13.537 6.054-13.537 13.522c0 7.469 6.061 13.523 13.537 13.523" clip-rule="evenodd"/><path fill="#6a6af4" fill-rule="evenodd" d="M245.583 34.685c-7.805 0-14.132 6.32-14.132 14.117 0 7.796 6.327 14.116 14.132 14.116s14.131-6.32 14.131-14.116c0-7.797-6.327-14.117-14.131-14.117m0 1.188c7.147 0 12.942 5.788 12.942 12.929 0 7.14-5.795 12.928-12.942 12.928s-12.943-5.788-12.943-12.928 5.795-12.929 12.943-12.929" clip-rule="evenodd"/><path fill="#6a6af4" fill-rule="evenodd" d="M251.253 40.135a.595.595 0 0 1 1.007.632l-.02.03-5.609 8.336a.595.595 0 0 1-.76.2l-.033-.019-6.58-3.84a.594.594 0 0 1 .568-1.044l.032.018 6.098 3.56z" clip-rule="evenodd"/><path fill="#000091" fill-rule="evenodd" d="M105.259 157.754H62.884a.95.95 0 0 1-.951-.95v-8.593a.95.95 0 0 1 .951-.95h42.375c.515 0 .951.416.951.95v8.593c0 .534-.436.95-.951.95" clip-rule="evenodd"/><path fill="#fff" fill-rule="evenodd" d="M100.343 155.358c1.204 0 2.18-1.01 2.18-2.257 0-1.246-.976-2.257-2.18-2.257s-2.18 1.011-2.18 2.257.976 2.257 2.18 2.257M88.333 155.359H66.016a.84.84 0 0 1-.832-.832v-2.871c0-.455.376-.831.832-.831h22.317c.456 0 .832.376.832.831v2.871a.825.825 0 0 1-.832.832" clip-rule="evenodd"/><path fill="#ff8d7e" fill-rule="evenodd" d="M112.235 147.221H69.861a.95.95 0 0 1-.952-.95v-8.593c0-.514.416-.95.951-.95h42.375c.516 0 .952.416.952.95v8.593c0 .515-.417.95-.952.95" clip-rule="evenodd"/><path fill="#fff" fill-rule="evenodd" d="M107.339 144.826c1.204 0 2.181-1.011 2.181-2.257s-.977-2.257-2.181-2.257-2.18 1.01-2.18 2.257c0 1.246.976 2.257 2.18 2.257M95.33 144.825H72.992a.837.837 0 0 1-.833-.831v-2.871c0-.455.377-.831.833-.831H95.31c.456 0 .832.376.832.831v2.871a.81.81 0 0 1-.812.831" clip-rule="evenodd"/></g><defs><clipPath id="a"><path fill="#fff" d="M0 0h282v158.625H0z"/></clipPath></defs></svg>