<svg xmlns="http://www.w3.org/2000/svg" width="284" height="159" fill="none" viewBox="0 0 284 159"><g clip-path="url(#a)"><path fill="#e8edff" d="M1 0h282v158.625H1z"/><g clip-path="url(#b)"><path fill="#fff" stroke="#2e186a" stroke-linecap="round" stroke-linejoin="round" stroke-width="2.5" d="M199.075 170.628c.245.097.951.439 1.828.875h7.393l-.034-.052q.048.028.098.052h5.585c.086-.352.053-.774-.124-1.258a1.5 1.5 0 0 0-.171-.328l-.245-.301c2.894 1.452 4.168.088 4.48-.494q.036-.07.067-.14.01-.023.017-.047c.011-.031.025-.061.034-.093l.015-.056.021-.084q.005-.03.009-.06.007-.039.011-.078l.004-.06.002-.076q0-.031-.002-.062a1 1 0 0 0-.006-.075.4.4 0 0 0-.009-.061q-.005-.037-.013-.075l-.015-.061-.021-.073q-.008-.031-.02-.062l-.029-.073a1 1 0 0 0-.026-.061q-.016-.036-.036-.073l-.031-.062-.044-.072q-.017-.03-.037-.06-.024-.037-.051-.073-.019-.028-.041-.058l-.058-.074-.045-.058q-.032-.04-.068-.077a2 2 0 0 0-.126-.138l-.045-.046a2 2 0 0 0-.107-.103l-.028-.028-.146-.131-.047-.039q-.053-.046-.109-.091l-.064-.051q-.05-.04-.103-.08-.036-.027-.073-.054l-.103-.077-.079-.056-.104-.072-.086-.058-.107-.071-.09-.058-.109-.071-.096-.06-.112-.069-.098-.059q-.059-.036-.118-.071-.05-.03-.099-.058l-.122-.071q-.052-.03-.104-.06l-.125-.071q-.054-.03-.107-.06l-.13-.07-.107-.06-.135-.073q-.054-.028-.107-.058l-.143-.074q-.052-.029-.105-.056l-.019-.01.93.304c1.912.028 2.727-2.685.084-3.891-4.193-1.913-7.47-3.577-9.383-5.367 0 0-16.419-5.061-17.023 5.588-.22 3.85 4.998 7.216 10.207 8.978z"/><path fill="#fff" d="m189.563 164.409-15.792 1.421s-6.98-9.296.856-15.787l15.047 1.056c1.7-.664 5.153-.52 7.402-1.011 2.63-.575 10.011.974 11.993.379 3.107-.933 4.274 4.705-2.828 5.279l-.387.043s-4.033-.612-6.505 2.335-4.424 2.206-4.424 2.206"/><path stroke="#2e186a" stroke-linecap="round" stroke-linejoin="round" stroke-width="2.5" d="m189.563 164.409-15.792 1.421s-6.98-9.296.856-15.787l15.047 1.056c1.7-.664 5.153-.52 7.402-1.011 2.63-.575 10.011.974 11.993.379 3.107-.933 4.274 4.705-2.828 5.279l-.387.043s-4.033-.612-6.505 2.335-4.424 2.206-4.424 2.206"/><path fill="#4d4190" d="M81.62 73.713 57.724 83.757a27.18 27.18 0 0 0-14.1 13.536s-22.699 29.94-14.89 46.49h129.371l-18.617-50.125a12.46 12.46 0 0 0-6.428-6.956l-22.992-10.235-28.448-2.756z"/><path fill="#4d4190" d="m91.96 171.503.476-37.883s.768-6.213-.17-13.118-2.253-11.944-2.253-11.944L51.796 133.62v37.883z"/><path fill="#fff" d="M95.503 109.418c4.911.465 11.086.532 17.669-.645l.285-4.017c-3.803.807-7.491 1.115-10.903 1.115-3.204 0-6.166-.271-8.75-.654a66 66 0 0 1-5.284-1.006 95 95 0 0 1 1.361 4.457c1.738.297 3.62.56 5.623.75zM94.238 102.829c5.255.772 12.134 1.056 19.397-.6l1.665-23.432-6.25-2.815-29.045-1.769-5.212 2.368s.916 1.273 2.331 3.543c7.142 2.377 22.647 6.27 37.909 1.832l-.174 2.555c-5.105 1.374-10.167 1.872-14.824 1.872-3.812 0-7.352-.334-10.42-.793a82 82 0 0 1-10.616-2.34c.689 1.19 1.43 2.519 2.198 3.971a82 82 0 0 0 10.218 2.277c6.329.983 14.688 1.439 23.14-.547l-.175 2.546a54 54 0 0 1-6.325.998q-2.907.285-5.946.286c-3.731 0-7.601-.321-11.567-.965a84 84 0 0 1-7.847-1.667 116 116 0 0 1 2.05 4.364 78 78 0 0 0 7.668 1.483c5.967.838 13.801 1.15 21.714-.791l-.175 2.551a52 52 0 0 1-5.264.922c-2.269.276-4.61.412-7.012.412-3.11 0-6.32-.231-9.604-.692a79 79 0 0 1-6.14-1.118q.842 2.031 1.631 4.194c1.982.513 4.229.994 6.674 1.355M111.42 135.744l-.011-2.176.124-1.757a53.3 53.3 0 0 1-8.981.749 60 60 0 0 1-9.963-.846q-.06.954-.153 1.908c.056.108.082.866.084 2.14q1.443.197 2.98.344c4.475.423 9.997.513 15.918-.362zM111.712 129.312l.304-4.268a50 50 0 0 1-7.226.514 55 55 0 0 1-3.185-.094 60.6 60.6 0 0 1-9.011-1.209q.153 2.495.101 5.015.758.131 1.543.248c4.79.703 10.925 1 17.474-.204zM112.192 122.56l.255-3.607a63 63 0 0 1-7.845.487c-2.401 0-4.843-.131-7.315-.392a75 75 0 0 1-5.332-.758v-.001q.257 1.702.434 3.43a58 58 0 0 0 9.431 1.327c3.009.17 6.579.108 10.374-.487zM97.618 116.644c4.229.441 9.424.577 15.006-.179l.368-5.179q-.197.035-.396.069a65 65 0 0 1-10.393.812q-3.456 0-7.008-.339a79 79 0 0 1-4.641-.585q0-.005-.002-.009.547 2.223.974 4.511v-.002c1.858.356 3.904.676 6.094.905zM77.807 81.24l-.054-.09zM90.226 109.952l-.005-.019q.002.011.005.019"/><path fill="#fff" d="M78.544 82.473q-.05-.085-.099-.17zM88.051 102.842l-.013-.036zM111.526 156.034l-.023-4.205c-3.012.431-6.12.648-9.3.648a74 74 0 0 1-9.972-.684l-.1 4.063q1.026.19 2.107.347c4.743.697 10.811.995 17.288-.169M111.458 142.981l-.025-4.766c-2.99.423-6.075.636-9.228.636-2.303 0-4.642-.114-7.009-.34a74 74 0 0 1-2.687-.306 612 612 0 0 1-.075 4.64q.883.156 1.805.293c4.728.694 10.768.993 17.221-.159zM111.558 162.411l-.021-3.914c-3.123.534-6.15.749-8.984.749a61.131 61.131 0 0 1-10.481-.935l-.103 4.059c1.13.162 2.308.306 3.534.421 4.508.428 10.083.516 16.057-.382zM111.49 149.356l-.021-3.911a53.4 53.4 0 0 1-8.917.737c-3.204 0-6.166-.271-8.75-.653a72 72 0 0 1-1.421-.226c-.028 1.278-.058 2.633-.092 4.05q1.548.216 3.211.377c4.492.425 10.042.515 15.99-.374"/><path fill="#9388b1" d="M92.262 121.691q.15 1.268.251 2.547l.08.017a67 67 0 0 0-.206-2.536q-.062-.015-.125-.028M112.162 125.024l.171-2.486-.141.021-.176 2.484q.072-.01.146-.021z"/><path fill="#9388b1" d="M104.787 125.556c2.48 0 4.891-.174 7.226-.513l.177-2.484c-3.795.595-7.365.656-10.374.487a58 58 0 0 1-9.431-1.327q.127 1.262.206 2.536a60.6 60.6 0 0 0 9.011 1.209q1.608.093 3.185.094zM112.5 118.945l.171-2.487-.047.005-.177 2.488z"/><path fill="#9388b1" d="M97.287 119.048c2.472.261 4.914.392 7.315.392 2.672 0 5.292-.164 7.845-.487l.176-2.488c-5.581.758-10.775.622-15.005.179a72 72 0 0 1-6.095-.905v.002q.119.633.226 1.267v.006q.107.636.202 1.275v.001c1.652.295 3.437.558 5.333.758zM113.025 111.279l.173-2.512s-.019.004-.027.004l-.178 2.512.034-.006zM95.195 111.826c2.367.225 4.706.339 7.008.339 3.565 0 7.041-.27 10.393-.811q.198-.032.396-.07l.178-2.512c-6.58 1.178-12.755 1.111-17.669.646a75 75 0 0 1-5.623-.75q.174.628.341 1.263.002.011.006.019a94 94 0 0 1 .327 1.288c1.458.227 3.01.429 4.641.584zM113.472 104.753l.173-2.525-.01.001-.18 2.527zM88.038 102.806"/><path fill="#9388b1" d="M93.802 105.217c2.587.383 5.546.654 8.75.654 3.413 0 7.101-.31 10.903-1.115l.18-2.527c-7.263 1.656-14.142 1.372-19.397.6a63 63 0 0 1-6.674-1.355q.24.659.474 1.33.006.018.014.036.237.68.467 1.37c1.623.377 3.393.724 5.283 1.005zM102.205 138.853c3.153 0 6.239-.213 9.228-.637l-.013-2.472c-5.921.875-11.443.785-15.918.362a76 76 0 0 1-2.98-.344c0 .676-.004 1.497-.015 2.447q1.303.173 2.688.306c2.366.226 4.705.34 7.008.34zM102.552 132.558c2.834 0 5.86-.215 8.981-.748l.179-2.499c-6.549 1.205-12.684.907-17.474.203a55 55 0 0 1-1.543-.248 56 56 0 0 1-.105 2.445q.596.1 1.212.192c2.587.382 5.546.653 8.75.653zM102.205 152.477c3.178 0 6.286-.217 9.3-.648l-.013-2.473c-5.948.887-11.496.799-15.99.374a74 74 0 0 1-3.21-.377l-.059 2.441c.956.128 1.941.244 2.964.343q3.552.34 7.008.34M102.553 146.182c2.815 0 5.818-.211 8.917-.737l-.013-2.464c-6.453 1.152-12.493.853-17.22.159a62 62 0 0 1-1.806-.293q-.023 1.174-.051 2.454.697.12 1.42.226c2.587.382 5.547.653 8.751.653zM102.553 159.246c2.836 0 5.861-.215 8.984-.749l-.013-2.463c-6.477 1.164-12.545.866-17.288.17q-1.079-.161-2.106-.348l-.062 2.456q.848.15 1.73.282c2.587.383 5.547.653 8.751.653zM101.674 99.09c2.4 0 4.743-.138 7.012-.412a50 50 0 0 0 5.264-.922l.175-2.551c-7.913 1.94-15.745 1.63-21.714.791a78 78 0 0 1-7.669-1.483q.281.633.56 1.28l.076.179q.279.647.552 1.31c1.892.422 3.953.81 6.14 1.118 3.282.46 6.494.692 9.604.692zM102.108 92.783c2.025 0 4.011-.096 5.946-.286a54 54 0 0 0 6.325-.998l.174-2.546c-8.451 1.986-16.811 1.53-23.14.547a82 82 0 0 1-10.218-2.277c.49.927.993 1.905 1.498 2.928 2.294.601 4.95 1.198 7.847 1.667 3.966.642 7.834.965 11.568.965M78.997 83.25q-.231-.4-.454-.779.222.378.454.778M78.444 82.303"/><path fill="#9388b1" d="M100.033 86.385c4.657 0 9.719-.498 14.824-1.872l.174-2.555c-15.264 4.438-30.767.545-37.909-1.832q.301.481.629 1.022l.054.09q.308.508.638 1.065l.1.17q.222.378.454.778a81 81 0 0 0 10.616 2.34c3.067.46 6.606.794 10.42.794"/><path fill="#fff" d="m86.759 60.069-1.67 10.47-5.237 4.215s7.274 10.841 17.166 13.308c3.352.837 8.63-.072 10.354-3.049 1.66-2.863 2.189-6.909 2.506-11.713.161-2.428-23.118-13.23-23.118-13.23z"/><path fill="#2e2765" d="M86.514 59.324a.8.8 0 0 1 .58.038h.002l.003.001.013.006.05.023.195.092a355.768 355.768 0 0 1 3.382 1.608 319 319 0 0 1 8.006 3.988c2.904 1.505 5.822 3.095 8.01 4.466 1.09.684 2.024 1.33 2.689 1.894.33.28.62.563.83.84.189.248.42.627.391 1.072-.316 4.786-.846 9.01-2.609 12.052-1.014 1.75-3.006 2.803-5.056 3.323-2.068.523-4.359.548-6.175.096-5.148-1.284-9.562-4.727-12.656-7.784a46 46 0 0 1-3.647-4.067 37 37 0 0 1-1.235-1.65l-.067-.097-.018-.026-.007-.009v-.001a.78.78 0 0 1 .16-1.043l5-4.027 1.624-10.173.025-.106a.79.79 0 0 1 .51-.516m-.647 11.337a.78.78 0 0 1-.282.486L80.922 74.9c.207.283.489.658.84 1.102a44 44 0 0 0 3.52 3.926c3.016 2.98 7.185 6.192 11.927 7.375 1.536.383 3.561.372 5.401-.094 1.858-.47 3.368-1.36 4.078-2.586 1.547-2.67 2.078-6.51 2.397-11.296a1 1 0 0 0-.069-.103 4 4 0 0 0-.598-.594c-.578-.49-1.436-1.088-2.506-1.759-2.131-1.336-5.003-2.902-7.897-4.402a318 318 0 0 0-7.964-3.968 352 352 0 0 0-2.63-1.254l-.049-.023z"/><path fill="#fff" d="M116.09 38.187c-1.627-8.994-12.836-7.823-14.471-7.62-15.067 1.87-15.775 14.454-15.674 17.989l-.657.08s.074.603.201 1.577c-1.95.472-5.462 2.003-4.315 6.84.87 3.667 3.628 3.997 5.903 3.57.304 1.622.616 3.007.903 3.822 1.16 3.29 1.95 4.744 6.466 7.67s13.917 3.97 18.104-1.405c3.878-4.977 4.191-13.944 4.216-15.243.377-4.981.396-11.358-.676-17.28"/><path fill="#2e2765" d="M101.948 29.741c1.247-.127 4.165-.31 7.103.428 3.388.85 6.927 2.974 7.815 7.879 1.086 6.002 1.066 12.443.687 17.46-.015.713-.105 3.3-.675 6.344-.573 3.064-1.649 6.699-3.704 9.337-2.295 2.945-5.968 4.073-9.543 4.12s-7.212-.98-9.617-2.538c-2.28-1.478-3.692-2.628-4.679-3.869-.993-1.25-1.516-2.542-2.1-4.198-.262-.743-.53-1.884-.791-3.197-1.024.106-2.145.042-3.172-.42-1.34-.604-2.385-1.825-2.866-3.855-.627-2.642.008-4.51 1.186-5.77.903-.966 2.068-1.51 3.028-1.819l-.062-.487-.04-.315-.01-.083-.002-.021-.001-.006v-.002a.783.783 0 0 1 .645-.864c.015-2.065.35-5.756 2.247-9.296 2.167-4.045 6.334-7.813 14.124-8.78zm6.716 1.946c-3.063-.769-6.153-.442-6.947-.343-7.277.903-10.999 4.363-12.927 7.961-1.954 3.648-2.105 7.52-2.056 9.229a.78.78 0 0 1-.567.772l.104.806a.784.784 0 0 1-.595.862c-.914.222-2.103.673-2.928 1.555-.78.833-1.327 2.15-.806 4.344.388 1.638 1.158 2.416 1.982 2.787.871.392 1.942.393 3.006.194l.077-.011a.793.793 0 0 1 .845.637c.305 1.623.607 2.954.872 3.706l.211.588c.484 1.315.92 2.254 1.638 3.157.828 1.04 2.069 2.08 4.304 3.528 2.11 1.368 5.431 2.327 8.733 2.283 3.302-.043 6.423-1.082 8.316-3.511 1.822-2.34 2.842-5.676 3.401-8.665a39.5 39.5 0 0 0 .65-6.114l.002-.044c.374-4.943.39-11.249-.666-17.083-.74-4.088-3.618-5.876-6.649-6.638"/><path fill="#2e2765" d="M109.121 50.63a.79.79 0 0 1 .903.65l1.391 8.677a.78.78 0 0 1-.235.69.8.8 0 0 1-.706.2l-3.127-.652a.783.783 0 1 1 .324-1.533l2.005.418-1.21-7.553a.784.784 0 0 1 .655-.897M113.174 53.113c.496-.021.871-.657.838-1.42-.034-.764-.463-1.365-.96-1.343s-.87.658-.837 1.42c.034.764.463 1.365.959 1.343M104.365 53.071c.496-.021.871-.657.837-1.42-.034-.764-.463-1.365-.959-1.343s-.871.658-.837 1.42c.033.764.463 1.365.959 1.343M99.237 45.196c.833-.424 2.046-.747 3.525-.357.421.11.672.54.561.958a.79.79 0 0 1-.966.556c-1.027-.27-1.838-.05-2.4.237a3.5 3.5 0 0 0-.655.43 3 3 0 0 0-.194.18l-.002.003v-.001l-.001.002-.053.054a.793.793 0 0 1-1.058.018.78.78 0 0 1-.075-1.105l.57.492-.57-.493.002-.002.003-.003.008-.009a2 2 0 0 1 .095-.098c.061-.06.147-.142.257-.234.22-.184.54-.418.953-.628M110.49 43.878a4.6 4.6 0 0 1 1.121-.047c.894.078 2.036.505 2.53 1.892a.783.783 0 0 1-.482 1 .79.79 0 0 1-1.006-.478c-.218-.612-.663-.808-1.18-.854a3 3 0 0 0-1.013.093l-.01.003h.002a.783.783 0 1 1-.463-1.498l.17.547-.169-.547.001-.001h.001l.004-.001.042-.013.104-.026c.085-.02.204-.047.348-.07M107.509 63.512c-2.729 2.97-4.25.315-5.545-1.624a.644.644 0 0 1 .699-.981c2.445.64 5.767 1.603 4.846 2.605"/><path fill="#2e2765" d="M119.089 35.21c-.871-1.859-1.939-2.392-2.884-2.385a9 9 0 0 0-.168-1.012c-.655-2.957-2.545-5.488-5.138-7.032h.005s-3.181-3.383-13.222-2.666-10.3 6.438-10.3 6.438c-4.562 3.063-7.861 6.898-8.107 10.18-.687 9.192 3.202 11.426 4.807 11.952q.26-.113.514-.203c.052.15.105.276.156.36 6.329-.428 6.665-9.287 8.665-13.547a.866.866 0 0 1 1.209-.38c2.81 1.582 6.635 2.099 11.167 1.473 4.899-.673 7.091-2.943 8.069-4.74q.048.05.094.099.067.073.133.15l.062.068.113.135q.04.046.077.093.05.062.097.127l.085.112.086.12q.046.063.09.13l.075.112.096.147.064.105.099.168.055.097.101.188.045.086q.055.106.105.215c.331.702.588 1.491.749 2.383.529 2.926.792 5.965.877 8.89q.18.025.36-.117c2.001-1.59 3.831-7.329 1.761-11.75z"/><path fill="#eb762f" d="M107.586 47.052a.79.79 0 0 1 .734.595l.001.001.001.003.002.008.005.025q.008.03.019.084.024.106.056.295c.042.25.088.602.11 1.023.043.836-.007 1.978-.411 3.14a6.3 6.3 0 0 1-2.542 3.262c-1.359.892-3.249 1.452-5.839 1.48H99.7c-2.73-.046-4.514-1.259-5.595-3.13-1.041-1.801-1.403-4.162-1.507-6.515a.78.78 0 0 1 .23-.587.8.8 0 0 1 .59-.23zm-13.361 1.052c.147 1.947.508 3.674 1.249 4.955.804 1.393 2.078 2.303 4.242 2.342 2.368-.028 3.936-.538 4.976-1.22a4.73 4.73 0 0 0 1.919-2.465c.316-.912.364-1.837.327-2.55a8 8 0 0 0-.052-.573z"/><path fill="#eb762f" d="M93.11 46.557a.79.79 0 0 1 1.016.457.78.78 0 0 1-.46 1.01l-7.13 2.667a.79.79 0 0 1-1.016-.458.78.78 0 0 1 .46-1.009zM109.673 50.359a.786.786 0 0 1 .802.77.787.787 0 0 1-.776.797l-1.984.032a.787.787 0 0 1-.802-.772.786.786 0 0 1 .776-.795z"/><path fill="#eb762f" d="M121.949 46.722a.785.785 0 0 1 .807.899c-.169 1.12-.222 2.133-.31 3.116-.085.949-.204 1.889-.537 2.705a3.85 3.85 0 0 1-1.886 2.051c-.923.471-2.148.711-3.753.756-3.528.1-5.48-2.082-6.504-4.142a12.6 12.6 0 0 1-.979-2.81 13 13 0 0 1-.175-.93q-.024-.171-.035-.267l-.007-.064a.786.786 0 0 1 .753-.896zm-11.68 1.954q.025.131.057.28c.153.681.417 1.577.855 2.458.873 1.755 2.368 3.345 5.044 3.27 1.496-.043 2.453-.266 3.077-.584a2.28 2.28 0 0 0 1.145-1.248c.236-.577.342-1.306.427-2.254.06-.67.109-1.447.201-2.28z"/><path fill="#4d4190" d="m155.478 137.811 4.355 7.885 27.027 4.479-1.156 17.291-44.886-13.644-14.606-21.824z"/><path fill="#4d4190" d="M140.89 171.503v-38.055l-27.791-22.277-1.603 22.449.165 37.883z"/><path stroke="#2e2765" stroke-linecap="round" stroke-linejoin="round" stroke-width="2.5" d="M63.695 81.654c1.673 4.236 3.174 8.342 4.863 12.634 1.877.374 3.566.56 5.443.747 1.502.373 3.003.373 4.357.718m0 0c-2.24 1.128-.021-.003 0 0m0 0-6.72 3.382-.957.482a344 344 0 0 1 3.151 4.934c1.106 1.495 1.857 3.174 2.795 4.667 2.252 3.546 4.505 6.906 6.194 10.638.75 1.866.938 4.106 1.689 5.972.75 14.557.938 28.927 1.192 43.426"/><path fill="#eb762f" stroke="#eb762f" stroke-linecap="round" stroke-linejoin="round" stroke-width="2.5" d="m89.604 171.503-10.629-98.77-22.147 9.331-1.042 89.439z"/><path stroke="#2e2765" stroke-linecap="round" stroke-linejoin="round" stroke-width="2.5" d="M128.841 85.32c-.597 3.743-1.16 7.476-1.911 11.208-3.191.933-6.006 2.24-9.246 3.253m0 0c1.404-.506 2.422.661 0 0m0 0c2.677.853 5.68 1.413 8.298 2.262m0 0c-.413 1.114-.345-.093 0 0m0 0c-.366.644-.366 1.204-.554 1.764-1.501 3.732-2.815 7.278-3.941 11.197-.188.56-.563.933-.751 1.493-1.314 4.666-3.19 9.145-3.941 13.81-.563 13.064-.751 25.941-1.014 38.947"/><path fill="#4d4190" d="m48.365 138.853 6.362 7.217 28.437 6.406v14.794l-25.223-.072c-10.81-.032-20.665-6.152-25.436-15.795l-3.77-7.62z"/><path fill="#2e2765" d="M47.55 130.276a.79.79 0 0 1 .986-.52c.416.126.65.563.523.977l-.001.007-.01.036q-.016.052-.042.159a9 9 0 0 0-.13.628 11.5 11.5 0 0 0-.158 2.209c.045 1.792.531 4.041 2.262 6.004 1.859 2.108 3.769 3.88 5.216 5.127a51 51 0 0 0 2.244 1.825l.02.015 21.243 3.466a.783.783 0 1 1-.255 1.546l-21.436-3.498a.8.8 0 0 1-.34-.142l.468-.631-.469.631-.001-.001-.002-.002-.01-.008-.037-.027-.138-.103q-.182-.137-.514-.397a54 54 0 0 1-1.806-1.49c-1.485-1.279-3.45-3.102-5.37-5.279-2.046-2.32-2.6-4.965-2.652-6.996-.026-1.016.073-1.89.18-2.511a11 11 0 0 1 .205-.942l.017-.057.005-.017zl.74.224z"/><path fill="#fff" d="M96.21 159.469c4.826.045 4.475-2.28 2.848-2.795-2.033-.646-10.656-1.223-10.656-1.223s5.847-2.066 5.892-5.867-1.584-3.397-3.129-1.051-8.996 3.434-8.996 3.434l-2.877-1.088s-7.971.539-6.669 9.031c.38 5.015 4.537 6.898 4.537 6.898 1.22.612 5.77 3.437 16.338 1.717 0 0 4.74-1.329.428-2.143a21 21 0 0 0-3.273-.341"/><path fill="#2e186a" d="M77.489 166.095h-.002l.029.014c.624.313 1.979 1.124 4.476 1.667s6.16.82 11.332-.017h.002l.13-.04c.113-.035.27-.086.444-.15.206-.075.415-.161.603-.25a8 8 0 0 0-.724-.167 20 20 0 0 0-3.15-.328.787.787 0 0 1-.765-.807.787.787 0 0 1 .813-.759c1.074.032 2.231.134 3.397.355q.844.158 1.369.369c.326.132.675.325.89.641a1.09 1.09 0 0 1 .038 1.181c-.157.276-.405.473-.6.603-.406.274-.94.491-1.328.633a12 12 0 0 1-.667.221l-.045.012-.012.004-.004.001h-.002l-.215-.753.215.754a1 1 0 0 1-.087.019c-5.372.875-9.253.6-11.971.008-2.724-.592-4.254-1.5-4.85-1.799h-.001l-.04-.019-.158-.082a8 8 0 0 1-.53-.314 9.5 9.5 0 0 1-1.604-1.303c-1.183-1.195-2.42-3.077-2.632-5.793-.338-2.229-.077-4.002.557-5.401.636-1.405 1.623-2.375 2.639-3.039 1.01-.66 2.054-1.022 2.837-1.219a10 10 0 0 1 1.248-.229l.081-.007.032-.003h.003c.001 0 .002.008.048.675l-.046-.675a.8.8 0 0 1 .334.049l2.68 1.014.11-.017a35.744 35.744 0 0 0 3.516-.769c1.005-.277 2.033-.618 2.89-1.023.886-.417 1.474-.849 1.736-1.248.41-.622.85-1.155 1.3-1.53.421-.353.993-.683 1.628-.597.71.097 1.13.648 1.349 1.239s.313 1.389.301 2.377c-.027 2.312-1.8 3.98-3.307 4.998q-.233.156-.463.297c.541.045 1.127.096 1.73.153 1.208.112 2.488.246 3.597.393 1.086.144 2.074.308 2.658.494.553.175 1.045.517 1.345.985.311.482.414 1.109.121 1.71-.279.573-.85.98-1.579 1.239-.737.261-1.72.403-2.982.391a.786.786 0 0 1-.781-.791.787.787 0 0 1 .796-.776c1.151.011 1.934-.121 2.437-.3.51-.18.656-.378.689-.445.019-.039.032-.088-.03-.185-.073-.112-.236-.253-.496-.335v-.001c-.432-.137-1.285-.287-2.387-.433a96 96 0 0 0-3.537-.386 193 193 0 0 0-4.173-.342l-.275-.019-.072-.005-.018-.002h-.006a.782.782 0 0 1-.211-1.519h-.001l.001-.001.009-.003.042-.015.17-.066a13.677 13.677 0 0 0 2.528-1.333c1.427-.965 2.6-2.231 2.618-3.721.01-.912-.082-1.489-.204-1.818a.9.9 0 0 0-.108-.217c-.054.017-.176.068-.374.233-.29.242-.632.639-.994 1.189-.51.774-1.433 1.359-2.38 1.805-.973.459-2.097.83-3.147 1.118a37 37 0 0 1-3.676.804l-.248.04-.083.012-.005.001h-.002l-.115-.775.114.776a.8.8 0 0 1-.395-.044l-2.699-1.021-.123.016a8 8 0 0 0-.805.161c-.671.169-1.538.473-2.358 1.009-.815.533-1.577 1.29-2.068 2.374-.46 1.016-.707 2.371-.483 4.185l.05.369.007.059c.173 2.284 1.2 3.843 2.187 4.839.495.501.98.858 1.337 1.088a6 6 0 0 0 .553.317z"/><path fill="#2e186a" d="M93.83 158.578c1.09-.024 2.214-.018 3.208.063.968.079 1.913.235 2.585.565.589.288 1.173.735 1.333 1.393.187.768-.28 1.372-.826 1.738-.547.368-1.343.637-2.338.812-1.01.177-2.283.268-3.834.239a.786.786 0 0 1-.774-.798.786.786 0 0 1 .804-.768c1.478.028 2.646-.06 3.53-.216.897-.157 1.444-.376 1.729-.567a1 1 0 0 0 .14-.111c-.053-.06-.177-.177-.463-.317-.386-.19-1.074-.331-2.015-.408-.915-.074-1.976-.082-3.044-.059-1.066.023-2.122.076-3.027.121-.886.044-1.67.082-2.138.066a.786.786 0 0 1-.761-.81.787.787 0 0 1 .815-.756c.386.013 1.084-.019 2.005-.065.901-.044 1.98-.099 3.071-.122"/><path fill="#6a6af2" d="m151.517 121.138.962 50.559 16.618.636 2.763-42.394zM241.047 171.503l-2.812-46.901-22.129 2.428 8.803 44.473z"/><path fill="#6a6af2" d="M160.113 125.653q-.115.699-.171 1.377c-.57 6.866 3.17 11.897 3.17 11.897l.41 32.578h56.132l1.193-40.819s17.709-5.431 17.69-5.707c-1.229-18.047-11.068-24.93-13.05-26.2-3.656-2.344-20.225-5.69-20.225-5.69-10.839-2.572-23.529.214-29.578 2.006-1.28.378-7.632 1.927-10.272 3.02-8.216 3.149-13.379 17.865-13.91 23.452.432 1.003 8.577 3.989 8.613 4.084z"/><path fill="#fff" d="m186.565 84.108-.345 9.003-3.436.51c-.622.819-7.643 10.921 6.899 12.744 9.486 1.189 20.193-3.96 26.092-10.326l-9.245-2.895-2.123-17.878-17.84 8.844z"/><path fill="#2e186a" d="M204.054 74.565a.8.8 0 0 1 .728.011.78.78 0 0 1 .408.598l2.064 17.376 8.759 2.742a.784.784 0 0 1 .343 1.277c-6.03 6.507-16.977 11.801-26.772 10.573-3.718-.466-6.183-1.475-7.726-2.837-1.571-1.388-2.109-3.075-2.1-4.693.008-1.588.54-3.103 1.083-4.245a13.7 13.7 0 0 1 1.312-2.218.8.8 0 0 1 .514-.304l2.789-.413.321-8.354a.78.78 0 0 1 .484-.692zm-16.719 10.04-.327 8.535a.785.785 0 0 1-.671.746l-3.104.46c-.228.333-.606.932-.965 1.689-.494 1.04-.926 2.318-.932 3.586-.007 1.237.388 2.469 1.571 3.514 1.211 1.069 3.321 2.007 6.875 2.453 8.731 1.094 18.632-3.385 24.54-9.183l-8.029-2.514a.79.79 0 0 1-.547-.655l-1.991-16.772z"/><path fill="#fc7624" d="m216.28 31.498-3.902-1.988-3.519 6.83 3.902 1.987z"/><path fill="#2e186a" d="M217.549 32.939c4.263 0 7.719-3.437 7.719-7.676s-3.456-7.676-7.719-7.676c-4.264 0-7.72 3.436-7.72 7.676s3.456 7.676 7.72 7.676M210.766 32.917c-6.44-2.555-13.549-4.002-20.31-1.897-20.64 7.426-22.858 21.879-15.713 28.983 1.227-10.258 3.356-14.043 7.258-16.154 2.96 6.379 15.811 14.223 27.267 15.087 0 0 .004.004.004.002.011-.04-.76 10.247-1.745 10.098-.224.595-2.647 5.948-2.647 5.948l.753 11.061 24.869-2.346c1.548.064 2.839-1.373 2.565-2.855-1.711-9.253-1.65-39.397-22.303-47.927z"/><path fill="#fff" d="m205.012 71.93 1.499.407s8.81 1.617 9.527-6.565c.545-6.205-5.653-6.224-8.678-5.871"/><path fill="#2e186a" d="M207.267 59.122c1.54-.18 4.012-.285 6.062.527 1.044.413 2.013 1.078 2.675 2.12.663 1.044.967 2.39.819 4.071-.192 2.194-.936 3.797-1.996 4.94-1.054 1.136-2.368 1.762-3.615 2.099-1.244.335-2.45.391-3.336.366a12 12 0 0 1-1.386-.117l-.086-.014-.025-.004-.007-.001-.003-.001h-.001l.142-.77-.143.77-.064-.015-1.5-.407a.783.783 0 1 1 .416-1.511l1.463.396.047.008q.085.014.253.034c.223.026.547.055.938.066.789.022 1.83-.03 2.878-.312 1.045-.282 2.068-.786 2.868-1.648.793-.855 1.419-2.118 1.586-4.015.124-1.42-.142-2.406-.583-3.1-.442-.695-1.109-1.176-1.925-1.5-1.668-.66-3.809-.598-5.293-.425a.79.79 0 0 1-.876-.687.785.785 0 0 1 .692-.87"/><path fill="#fff" d="M174.74 60.003c1.228-10.258 3.283-13.657 7.185-15.768 2.913 6.279 14.27 13.89 27.057 14.69.192 1.435.051.157.017 1.722-.142 1.616-.326 3.445-.54 4.981-1.215 5.793-3.581 9.358-3.581 9.358v.007c-3.371 5.562-8.702 9.667-15.601 10.024-12.04.621-14.608-16.311-14.736-20.053-.063-1.855.194-4.964.194-4.964l.003.003z"/><path fill="#2e186a" d="M181.548 43.547a.8.8 0 0 1 .627-.055.79.79 0 0 1 .467.415c1.362 2.936 4.777 6.305 9.508 9.05 4.561 2.649 10.258 4.665 16.298 5.145l.585.041.07.007a.785.785 0 0 1 .662.672l.09.661c.01.083.037.262-.019.463-.012.045-.008.015-.014.067-.01.085-.025.268-.033.65q0 .027-.003.052c-.143 1.62-.328 3.465-.545 5.02q-.004.027-.009.053a33.2 33.2 0 0 1-2.3 7.017 26 26 0 0 1-.977 1.917 17 17 0 0 1-.384.642q-.008.017-.016.033c-3.47 5.724-9.011 10.029-16.236 10.402-6.499.335-10.375-4.105-12.591-8.842-2.08-4.446-2.815-9.363-2.954-11.564l-.02-.403c-.033-.964.017-2.235.073-3.247a78 78 0 0 1 .12-1.77l.002-.028v-.009l.018-.112.003-.01c.616-5.1 1.445-8.59 2.649-11.089 1.233-2.556 2.846-4.05 4.929-5.178m.055 1.784c-1.475.928-2.627 2.133-3.561 4.071-1.098 2.277-1.907 5.589-2.518 10.694l-.01.062-.002.039-.029.373c-.023.318-.052.76-.08 1.26-.056 1.005-.103 2.217-.072 3.107.061 1.796.721 6.855 2.828 11.36 2.109 4.508 5.537 8.223 11.078 7.937 6.558-.339 11.668-4.227 14.941-9.605q.019-.038.042-.074l.003-.006.017-.025.07-.112c.062-.101.155-.255.27-.458.231-.408.555-1.015.916-1.8a31.6 31.6 0 0 0 2.187-6.666c.209-1.507.389-3.301.53-4.899.009-.375.023-.608.042-.764q.012-.092.027-.165c-6.288-.506-12.197-2.603-16.929-5.35-4.501-2.613-8.017-5.863-9.75-8.979"/><path fill="#2e186a" d="M183.23 55.898a.79.79 0 0 1 .935-.602c.427.09.699.506.608.93l-2.699 12.583 2.528.098c.436.016.775.38.758.812a.786.786 0 0 1-.819.753l-3.464-.133a.79.79 0 0 1-.592-.301.78.78 0 0 1-.149-.644zM189.081 54.656c1.574-.944 3.038-.456 4 .17a6.3 6.3 0 0 1 1.507 1.4l.024.032.008.01.003.004.001.001-.557.397.557-.396a.78.78 0 0 1-.183 1.093.79.79 0 0 1-1.111-.197l-.055-.069a5 5 0 0 0-.229-.26 4.7 4.7 0 0 0-.83-.705c-.677-.441-1.46-.654-2.319-.139a.79.79 0 0 1-1.083-.266.78.78 0 0 1 .267-1.075M189.57 73.956a.79.79 0 0 1 1.024-.44c.405.16.603.615.443 1.017-.677 1.698-2.139 2.19-3.285 2.272a6.3 6.3 0 0 1-2.052-.207l-.039-.01-.012-.004-.005-.002h-.002c0-.004.015-.05.232-.75l-.233.75a.783.783 0 1 1 .466-1.498l.018.006.086.022a4.696 4.696 0 0 0 1.429.13c.807-.057 1.56-.358 1.93-1.286M179.462 56.43l-.015-.01-.077-.047a4.694 4.694 0 0 0-1.332-.53c-.79-.174-1.598-.099-2.218.686a.793.793 0 0 1-1.108.132.78.78 0 0 1-.133-1.1c1.136-1.436 2.679-1.494 3.801-1.247a6.3 6.3 0 0 1 1.791.71q.074.042.117.07l.034.022.01.007.006.003h.001l-.43.64.43-.64a.78.78 0 0 1 .218 1.087.79.79 0 0 1-1.094.216zM190.285 60.192c.004-.977-.508-1.771-1.143-1.773-.636-.003-1.154.787-1.158 1.764-.003.977.509 1.772 1.144 1.774s1.154-.788 1.157-1.765M178.066 60.076c.003-.977-.509-1.771-1.144-1.774-.635-.002-1.154.788-1.157 1.765s.508 1.771 1.143 1.774c.636.002 1.154-.788 1.158-1.765"/><path fill="#fc7624" d="M192.93 51.286c-1.715-.013-3.333.883-4.553 2.456-1.22 1.574-2.008 3.79-2.028 6.277s.732 4.716 1.927 6.309c1.194 1.592 2.797 2.514 4.512 2.528 1.715.013 3.332-.883 4.552-2.456 1.221-1.574 2.009-3.79 2.029-6.277s-.732-4.716-1.927-6.309-2.797-2.514-4.512-2.528m.012-1.566c2.316.018 4.346 1.267 5.765 3.158s2.263 4.46 2.24 7.258c-.022 2.796-.908 5.351-2.357 7.22s-3.499 3.085-5.815 3.066c-2.316-.018-4.346-1.267-5.765-3.159s-2.261-4.46-2.239-7.257.907-5.352 2.356-7.22c1.45-1.869 3.499-3.085 5.815-3.066M173.525 51.818c-1.715-.013-3.332.883-4.552 2.456s-2.008 3.79-2.028 6.277.732 4.715 1.927 6.308 2.798 2.515 4.512 2.529c1.715.014 3.333-.883 4.553-2.456s2.008-3.79 2.028-6.276c.02-2.488-.732-4.716-1.927-6.31-1.195-1.592-2.798-2.514-4.513-2.528m.013-1.566c2.316.018 4.346 1.267 5.765 3.159s2.262 4.46 2.24 7.257c-.023 2.797-.907 5.352-2.356 7.22-1.449 1.869-3.499 3.085-5.815 3.066-2.316-.018-4.346-1.267-5.765-3.16-1.419-1.89-2.262-4.459-2.24-7.256.023-2.797.907-5.352 2.356-7.22 1.449-1.869 3.499-3.085 5.815-3.066"/><path fill="#fc7624" d="M185.645 58.668a.786.786 0 0 1 .755.816.787.787 0 0 1-.821.75l-4.578-.19a.786.786 0 0 1-.755-.816.787.787 0 0 1 .821-.75zM200.254 57.674l9.773 1.422c.431.062.729.46.666.888a.79.79 0 0 1-.895.662l-9.773-1.423a.784.784 0 0 1-.666-.888.79.79 0 0 1 .895-.661"/><path fill="#eb762f" stroke="#eb762f" stroke-linecap="round" stroke-linejoin="round" stroke-width="2.5" d="M78.916 34.296S76.274 15.513 92.498 11.55c27.162-6.634 28.592 20.14 28.592 20.14z"/><path fill="#ff8e50" stroke="#eb762f" stroke-linecap="round" stroke-linejoin="round" stroke-width="2.5" d="M78.916 34.296s-3.12-23.123 13.582-22.746c10.484.236 12.627 20.375 12.627 20.375l-26.21 2.37z"/><path fill="#eb762f" stroke="#eb762f" stroke-linecap="round" stroke-linejoin="round" stroke-width="2.5" d="M73.712 35.027c-.882 1.368.556 3.03 2.052 2.376 2.256-.987 5.807-1.805 11.374-1.805 14.057 0 10.484 3.316 27.162 2.843 16.68-.475 9.02-7.247 9.02-7.247l-2.464-1.885-42.478 2.639s-2.712.046-4.668 3.08zM139.062 171.503l-9.88-88.972-16.892-7.652.679 96.624zM224.03 171.503l-2.346-76.638-14.13-3.08-6.064 79.718zM162.168 171.503h22.838l-5.131-80.294-17.035 4.427z"/></g></g><defs><clipPath id="a"><path fill="#fff" d="M0 0h284v158.625H0z"/></clipPath><clipPath id="b"><path fill="#fff" d="M27.1 10.027h213.947v162.307H27.1z"/></clipPath></defs></svg>