<svg width="284" height="159" viewBox="0 0 284 159" fill="none" xmlns="http://www.w3.org/2000/svg">
<g clip-path="url(#clip0_533_8802)">
<rect x="1" width="282" height="158.625" fill="#E8EDFF"/>
<g clip-path="url(#clip1_533_8802)">
<path d="M199.075 170.628C199.32 170.725 200.026 171.067 200.903 171.503H208.296C208.286 171.486 208.273 171.468 208.262 171.451C208.294 171.47 208.326 171.486 208.36 171.503H213.945C214.031 171.151 213.998 170.729 213.821 170.245C213.78 170.133 213.724 170.025 213.65 169.917L213.405 169.616C216.299 171.068 217.573 169.704 217.885 169.122C217.909 169.075 217.932 169.029 217.952 168.982C217.96 168.967 217.964 168.95 217.969 168.935C217.98 168.904 217.994 168.874 218.003 168.842C218.009 168.823 218.012 168.805 218.018 168.786C218.026 168.758 218.033 168.73 218.039 168.702C218.042 168.681 218.046 168.663 218.048 168.642C218.052 168.616 218.057 168.59 218.059 168.564C218.061 168.543 218.061 168.523 218.063 168.504C218.063 168.478 218.065 168.454 218.065 168.428C218.065 168.407 218.065 168.387 218.063 168.366C218.063 168.342 218.061 168.316 218.057 168.291C218.056 168.271 218.052 168.25 218.048 168.23C218.044 168.206 218.041 168.179 218.035 168.155C218.031 168.135 218.025 168.114 218.02 168.094C218.014 168.069 218.007 168.045 217.999 168.021C217.994 168 217.986 167.98 217.979 167.959C217.969 167.935 217.96 167.911 217.95 167.886C217.943 167.866 217.934 167.845 217.924 167.825C217.913 167.801 217.902 167.776 217.888 167.752C217.879 167.732 217.868 167.711 217.857 167.69C217.843 167.666 217.828 167.642 217.813 167.618C217.802 167.597 217.789 167.578 217.776 167.558C217.761 167.534 217.742 167.509 217.725 167.485C217.712 167.467 217.699 167.446 217.684 167.427C217.665 167.403 217.646 167.377 217.626 167.353C217.611 167.334 217.596 167.315 217.581 167.295C217.56 167.269 217.536 167.243 217.513 167.218C217.498 167.2 217.483 167.183 217.466 167.164C217.44 167.136 217.414 167.108 217.387 167.08C217.372 167.065 217.357 167.048 217.342 167.034C217.309 167 217.273 166.964 217.235 166.931C217.226 166.922 217.217 166.912 217.207 166.903C217.16 166.86 217.111 166.817 217.061 166.772C217.046 166.759 217.029 166.746 217.014 166.733C216.978 166.703 216.943 166.671 216.905 166.642C216.884 166.625 216.862 166.608 216.841 166.591C216.807 166.565 216.774 166.537 216.738 166.511C216.714 166.492 216.689 166.476 216.665 166.457C216.631 166.431 216.597 166.406 216.562 166.38C216.535 166.362 216.509 166.343 216.483 166.324C216.449 166.3 216.415 166.276 216.379 166.252C216.351 166.233 216.321 166.212 216.293 166.194C216.257 166.169 216.224 166.147 216.186 166.123C216.156 166.104 216.126 166.084 216.096 166.065C216.06 166.041 216.023 166.018 215.987 165.994C215.955 165.974 215.923 165.955 215.891 165.934C215.854 165.912 215.816 165.888 215.779 165.865C215.747 165.845 215.713 165.826 215.681 165.806C215.642 165.781 215.602 165.759 215.563 165.735C215.529 165.716 215.497 165.695 215.464 165.677C215.422 165.653 215.383 165.63 215.342 165.606C215.308 165.585 215.272 165.567 215.238 165.546C215.197 165.522 215.156 165.499 215.113 165.475C215.077 165.455 215.041 165.436 215.006 165.415C214.962 165.391 214.919 165.369 214.876 165.345C214.84 165.324 214.805 165.305 214.769 165.285C214.724 165.261 214.679 165.236 214.634 165.212C214.598 165.193 214.563 165.175 214.527 165.154C214.48 165.13 214.431 165.104 214.384 165.08C214.349 165.061 214.315 165.042 214.279 165.024C214.274 165.02 214.266 165.016 214.26 165.014L215.19 165.318C217.102 165.346 217.917 162.633 215.274 161.427C211.081 159.514 207.804 157.85 205.891 156.06C205.891 156.06 189.472 150.999 188.868 161.648C188.648 165.498 193.866 168.864 199.075 170.626V170.628Z" fill="white" stroke="#2E186A" stroke-width="2.5" stroke-linecap="round" stroke-linejoin="round"/>
<path d="M189.563 164.409L173.771 165.83C173.771 165.83 166.791 156.534 174.627 150.043L189.674 151.099C191.374 150.435 194.827 150.579 197.076 150.088C199.706 149.513 207.087 151.062 209.069 150.467C212.176 149.534 213.343 155.172 206.241 155.746L205.854 155.789C205.854 155.789 201.821 155.177 199.349 158.124C196.877 161.071 194.925 160.33 194.925 160.33" fill="white"/>
<path d="M189.563 164.409L173.771 165.83C173.771 165.83 166.791 156.534 174.627 150.043L189.674 151.099C191.374 150.435 194.827 150.579 197.076 150.088C199.706 149.513 207.087 151.062 209.069 150.467C212.176 149.534 213.343 155.172 206.241 155.746L205.854 155.789C205.854 155.789 201.821 155.177 199.349 158.124C196.877 161.071 194.925 160.33 194.925 160.33" stroke="#2E186A" stroke-width="2.5" stroke-linecap="round" stroke-linejoin="round"/>
<path d="M81.6193 73.7128L57.7246 83.757C51.499 86.3735 46.4746 91.1978 43.6255 97.293C43.6255 97.293 20.9264 127.233 28.7342 143.783C34.2748 143.783 158.106 143.783 158.106 143.783L139.489 93.6575C138.35 90.5894 136.04 88.0886 133.061 86.702L110.069 76.4674L81.6212 73.7109L81.6193 73.7128Z" fill="#4D4190"/>
<path d="M91.9595 171.503L92.4362 133.62C92.4362 133.62 93.2038 127.407 92.2654 120.502C91.327 113.597 90.0131 108.558 90.0131 108.558L51.7959 133.62L51.7959 171.503H91.9595Z" fill="#4D4190"/>
<path d="M95.5025 109.418C100.414 109.883 106.589 109.95 113.172 108.773L113.457 104.756C109.654 105.563 105.966 105.871 102.554 105.871C99.3502 105.871 96.3884 105.6 93.804 105.217C91.9139 104.937 90.144 104.588 88.5205 104.211C89.0029 105.663 89.459 107.153 89.8813 108.668C91.6193 108.965 93.5018 109.228 95.5044 109.418H95.5025Z" fill="white"/>
<path d="M94.2375 102.829C99.4928 103.601 106.372 103.885 113.635 102.229L115.3 78.7967L109.05 75.9824L80.0051 74.2131L74.793 76.5814C74.793 76.5814 75.7089 77.8542 77.1241 80.1236C84.2656 82.5012 99.7706 86.3942 115.033 81.9563L114.859 84.5112C109.754 85.8847 104.692 86.383 100.035 86.383C96.2233 86.383 92.6835 86.049 89.6148 85.5899C85.418 84.9609 81.7487 84.0502 78.9991 83.2496C79.6879 84.4402 80.4293 85.769 81.1969 87.221C84.0291 88.044 87.507 88.8894 91.4147 89.4978C97.7436 90.4813 106.103 90.9367 114.555 88.951L114.38 91.4966C112.335 91.9482 110.225 92.2823 108.055 92.495C106.118 92.6854 104.134 92.7806 102.109 92.7806C98.378 92.7806 94.5078 92.4596 90.5419 91.8157C87.6459 91.3473 84.9882 90.7501 82.6947 90.1491C83.376 91.5246 84.0629 92.9803 84.7442 94.5125C87.019 95.0705 89.6073 95.6005 92.4132 95.9961C98.3798 96.8341 106.214 97.1457 114.127 95.2048L113.952 97.756C112.243 98.1479 110.488 98.4577 108.688 98.6779C106.419 98.9542 104.078 99.0904 101.676 99.0904C98.5657 99.0904 95.3562 98.859 92.0716 98.398C89.885 98.0901 87.8242 97.7019 85.9323 97.2801C86.4916 98.6332 87.0378 100.033 87.5633 101.474C89.5453 101.987 91.792 102.468 94.2375 102.829Z" fill="white"/>
<path d="M111.42 135.744L111.409 133.568L111.533 131.811C108.41 132.345 105.386 132.56 102.552 132.56C99.3481 132.56 96.3864 132.289 93.8019 131.907C93.3909 131.845 92.9874 131.782 92.5895 131.714C92.5482 132.351 92.4994 132.985 92.4355 133.622C92.4919 133.73 92.5181 134.488 92.52 135.762C93.481 135.893 94.4757 136.009 95.5005 136.106C99.975 136.529 105.497 136.619 111.418 135.744H111.42Z" fill="white"/>
<path d="M111.712 129.312L112.016 125.044C109.681 125.384 107.267 125.558 104.79 125.558C103.741 125.558 102.678 125.526 101.605 125.464C98.1043 125.263 95.0206 124.768 92.5938 124.255C92.6951 125.918 92.7308 127.59 92.6951 129.27C93.2 129.357 93.7142 129.441 94.2379 129.518C99.0277 130.221 105.163 130.518 111.712 129.314V129.312Z" fill="white"/>
<path d="M112.192 122.56L112.447 118.953C109.893 119.276 107.272 119.44 104.602 119.44C102.201 119.44 99.7592 119.309 97.2873 119.048C95.3917 118.848 93.6049 118.585 91.9551 118.29C91.9551 118.29 91.9551 118.29 91.9551 118.289C92.1259 119.423 92.2723 120.567 92.3886 121.719C94.8305 122.269 98.0963 122.837 101.82 123.046C104.829 123.216 108.399 123.154 112.194 122.559L112.192 122.56Z" fill="white"/>
<path d="M97.6182 116.644C101.847 117.085 107.042 117.221 112.624 116.465L112.992 111.286C112.86 111.309 112.729 111.333 112.596 111.355C109.244 111.897 105.768 112.167 102.203 112.167C99.9005 112.167 97.5619 112.053 95.1952 111.828C93.5642 111.671 92.012 111.471 90.5536 111.243C90.5536 111.24 90.5536 111.236 90.5518 111.234C90.9159 112.716 91.2425 114.22 91.5259 115.745C91.5259 115.745 91.5259 115.745 91.5259 115.743C93.384 116.099 95.4298 116.419 97.6201 116.648L97.6182 116.644Z" fill="white"/>
<path d="M77.807 81.2395C77.7883 81.2096 77.7697 81.1798 77.7529 81.1499C77.7716 81.1798 77.7883 81.2096 77.807 81.2395Z" fill="white"/>
<path d="M90.2263 109.952C90.2263 109.952 90.2226 109.939 90.2207 109.933C90.2207 109.941 90.2245 109.946 90.2263 109.952Z" fill="white"/>
<path d="M78.5441 82.4731C78.5105 82.4171 78.4789 82.3592 78.4453 82.3032C78.4789 82.3592 78.5105 82.4152 78.5441 82.4731Z" fill="white"/>
<path d="M88.0512 102.842C88.0475 102.831 88.0418 102.817 88.0381 102.806C88.0418 102.817 88.0456 102.831 88.0512 102.842Z" fill="white"/>
<path d="M111.526 156.034L111.503 151.829C108.491 152.26 105.383 152.477 102.203 152.477C99.9003 152.477 97.5617 152.363 95.1949 152.137C94.1739 152.04 93.1866 151.922 92.2313 151.793C92.1994 153.109 92.1656 154.466 92.1318 155.856C92.815 155.981 93.517 156.099 94.2377 156.203C98.9806 156.9 105.049 157.198 111.526 156.034Z" fill="white"/>
<path d="M111.458 142.981L111.433 138.215C108.443 138.638 105.358 138.851 102.205 138.851C99.9017 138.851 97.5631 138.737 95.1964 138.511C94.2729 138.424 93.3777 138.319 92.5087 138.205C92.4937 139.523 92.4674 141.087 92.4336 142.845C93.0229 142.949 93.6235 143.046 94.2392 143.138C98.967 143.832 105.007 144.131 111.46 142.979L111.458 142.981Z" fill="white"/>
<path d="M111.558 162.411L111.537 158.497C108.414 159.031 105.387 159.246 102.553 159.246C99.3487 159.246 96.387 158.975 93.8025 158.592C93.2131 158.505 92.6369 158.411 92.072 158.311C92.0382 159.643 92.0044 161 91.9688 162.37C93.0986 162.532 94.2773 162.676 95.5029 162.791C100.011 163.219 105.586 163.307 111.56 162.409L111.558 162.411Z" fill="white"/>
<path d="M111.49 149.356L111.469 145.445C108.368 145.971 105.365 146.182 102.552 146.182C99.348 146.182 96.3863 145.911 93.8018 145.529C93.3195 145.458 92.8465 145.381 92.381 145.303C92.3529 146.581 92.3228 147.936 92.2891 149.353C93.3214 149.496 94.3912 149.623 95.5004 149.73C99.9918 150.155 105.542 150.245 111.49 149.356Z" fill="white"/>
<path d="M92.2617 121.691C92.3612 122.536 92.4457 123.385 92.5132 124.238C92.5395 124.244 92.5677 124.249 92.5939 124.255C92.5414 123.406 92.4719 122.56 92.3875 121.719C92.3462 121.709 92.303 121.7 92.2617 121.691Z" fill="#9388B1"/>
<path d="M112.162 125.024L112.333 122.538C112.286 122.546 112.239 122.551 112.192 122.559L112.016 125.043C112.064 125.035 112.113 125.03 112.162 125.022V125.024Z" fill="#9388B1"/>
<path d="M104.787 125.556C107.267 125.556 109.678 125.382 112.013 125.043L112.19 122.559C108.395 123.154 104.825 123.215 101.816 123.046C98.0943 122.837 94.8285 122.269 92.3848 121.719C92.4692 122.56 92.5387 123.406 92.5912 124.255C95.018 124.768 98.1018 125.263 101.602 125.464C102.674 125.526 103.736 125.558 104.787 125.558V125.556Z" fill="#9388B1"/>
<path d="M112.5 118.945L112.671 116.458C112.656 116.46 112.639 116.462 112.624 116.463L112.447 118.951C112.464 118.949 112.483 118.947 112.5 118.945Z" fill="#9388B1"/>
<path d="M97.2874 119.048C99.7592 119.309 102.201 119.44 104.602 119.44C107.274 119.44 109.894 119.276 112.447 118.953L112.623 116.465C107.042 117.223 101.848 117.087 97.6177 116.644C95.4274 116.415 93.3816 116.096 91.5234 115.739C91.5234 115.739 91.5234 115.739 91.5234 115.741C91.6023 116.163 91.6773 116.585 91.7487 117.008C91.7487 117.008 91.7487 117.012 91.7487 117.014C91.82 117.438 91.8876 117.863 91.9514 118.289C91.9514 118.289 91.9514 118.289 91.9514 118.29C93.603 118.585 95.388 118.848 97.2836 119.048H97.2874Z" fill="#9388B1"/>
<path d="M90.2215 109.931C90.1107 109.508 89.9962 109.088 89.8799 108.668C89.9962 109.086 90.1107 109.508 90.2215 109.931Z" fill="#9388B1"/>
<path d="M113.025 111.279L113.198 108.767C113.198 108.767 113.179 108.771 113.171 108.771L112.993 111.283C113.004 111.281 113.016 111.279 113.027 111.277L113.025 111.279Z" fill="#9388B1"/>
<path d="M90.5513 111.23C90.4462 110.801 90.3373 110.376 90.2266 109.952C90.3373 110.376 90.4462 110.803 90.5513 111.23Z" fill="#9388B1"/>
<path d="M95.1952 111.826C97.5619 112.051 99.9005 112.165 102.203 112.165C105.768 112.165 109.244 111.895 112.596 111.354C112.729 111.333 112.859 111.309 112.992 111.284L113.17 108.772C106.59 109.95 100.415 109.883 95.5011 109.418C93.4984 109.228 91.6141 108.967 89.8779 108.668C89.9943 109.086 90.1088 109.508 90.2195 109.931C90.2195 109.939 90.2233 109.944 90.2251 109.95C90.3359 110.374 90.4447 110.801 90.5499 111.228C90.5499 111.232 90.5499 111.236 90.5517 111.238C92.0101 111.465 93.5623 111.667 95.1933 111.822L95.1952 111.826Z" fill="#9388B1"/>
<path d="M113.472 104.753L113.645 102.228C113.645 102.228 113.637 102.228 113.635 102.229L113.455 104.756C113.455 104.756 113.466 104.754 113.472 104.753Z" fill="#9388B1"/>
<path d="M88.5191 104.211C88.3652 103.75 88.2094 103.295 88.0518 102.842C88.2094 103.295 88.3671 103.752 88.5191 104.211Z" fill="#9388B1"/>
<path d="M88.0383 102.806C87.8825 102.358 87.723 101.916 87.5635 101.475C87.7249 101.916 87.8825 102.358 88.0383 102.806Z" fill="#9388B1"/>
<path d="M93.8023 105.217C96.3886 105.6 99.3485 105.871 102.552 105.871C105.965 105.871 109.653 105.561 113.455 104.756L113.635 102.229C106.372 103.885 99.493 103.601 94.2377 102.829C91.7921 102.47 89.5436 101.987 87.5635 101.474C87.7249 101.914 87.8825 102.356 88.0383 102.804C88.0421 102.815 88.0458 102.829 88.0515 102.84C88.2091 103.293 88.3668 103.75 88.5188 104.21C90.1423 104.587 91.9122 104.934 93.8023 105.215V105.217Z" fill="#9388B1"/>
<path d="M102.205 138.853C105.358 138.853 108.444 138.64 111.433 138.216L111.42 135.744C105.499 136.619 99.9769 136.529 95.5024 136.106C94.4757 136.009 93.4809 135.891 92.5219 135.762C92.5219 136.438 92.5181 137.259 92.5068 138.209C93.3758 138.323 94.2711 138.427 95.1945 138.515C97.5613 138.741 99.8999 138.855 102.203 138.855L102.205 138.853Z" fill="#9388B1"/>
<path d="M102.552 132.558C105.386 132.558 108.412 132.343 111.533 131.81L111.712 129.311C105.163 130.516 99.0276 130.218 94.2378 129.514C93.7141 129.438 93.1998 129.354 92.6949 129.266C92.6781 130.08 92.6424 130.895 92.5898 131.711C92.9877 131.778 93.3913 131.841 93.8023 131.903C96.3887 132.285 99.3485 132.556 102.552 132.556V132.558Z" fill="#9388B1"/>
<path d="M102.205 152.477C105.383 152.477 108.491 152.26 111.505 151.829L111.492 149.356C105.544 150.243 99.9962 150.155 95.5029 149.73C94.3937 149.625 93.322 149.496 92.2916 149.353C92.2728 150.148 92.254 150.963 92.2334 151.794C93.1887 151.922 94.1741 152.038 95.197 152.137C97.5638 152.363 99.9024 152.477 102.205 152.477Z" fill="#9388B1"/>
<path d="M102.553 146.182C105.368 146.182 108.371 145.971 111.47 145.445L111.457 142.981C105.004 144.133 98.964 143.834 94.2361 143.14C93.6205 143.05 93.0199 142.951 92.4306 142.847C92.4155 143.629 92.3987 144.448 92.3799 145.301C92.8454 145.381 93.3183 145.456 93.8007 145.527C96.387 145.909 99.3469 146.18 102.551 146.18L102.553 146.182Z" fill="#9388B1"/>
<path d="M102.553 159.246C105.389 159.246 108.414 159.031 111.537 158.497L111.524 156.034C105.047 157.198 98.9791 156.9 94.2362 156.204C93.5154 156.097 92.8154 155.98 92.1303 155.856C92.1097 156.665 92.089 157.484 92.0684 158.312C92.6333 158.411 93.2095 158.507 93.7989 158.594C96.3852 158.977 99.3451 159.247 102.549 159.247L102.553 159.246Z" fill="#9388B1"/>
<path d="M85.9307 97.2801C85.7487 96.8378 85.5628 96.4011 85.3789 95.97C85.5647 96.4029 85.7487 96.8378 85.9307 97.2801Z" fill="#9388B1"/>
<path d="M101.674 99.0904C104.074 99.0904 106.417 98.9523 108.686 98.6779C110.487 98.4596 112.242 98.1498 113.95 97.756L114.125 95.2048C106.212 97.1457 98.3797 96.8341 92.4112 95.9961C89.6052 95.6023 87.017 95.0705 84.7422 94.5125C84.9299 94.9342 85.1157 95.3616 85.3015 95.7927C85.3278 95.8524 85.3522 95.9121 85.3785 95.9719C85.5643 96.403 85.7482 96.8397 85.9303 97.282C87.8222 97.7038 89.883 98.0919 92.0696 98.3999C95.3522 98.8608 98.5636 99.0923 101.674 99.0923V99.0904Z" fill="#9388B1"/>
<path d="M81.1973 87.2229C81.6871 88.1504 82.1901 89.1283 82.695 90.1511C82.1883 89.1283 81.6871 88.1504 81.1973 87.2229Z" fill="#9388B1"/>
<path d="M102.108 92.7825C104.133 92.7825 106.119 92.6873 108.054 92.4969C110.223 92.2842 112.333 91.9501 114.379 91.4985L114.553 88.9529C106.102 90.9386 97.742 90.4833 91.4131 89.4997C87.5054 88.8913 84.0275 88.0459 81.1953 87.2229C81.6852 88.1504 82.1882 89.1283 82.6931 90.1511C84.9866 90.752 87.6424 91.3492 90.5403 91.8176C94.5062 92.4596 98.3745 92.7825 102.108 92.7825Z" fill="#9388B1"/>
<path d="M77.1221 80.1255C77.3229 80.4465 77.5331 80.788 77.7508 81.1482C77.5312 80.788 77.321 80.4465 77.1221 80.1255Z" fill="#9388B1"/>
<path d="M78.9972 83.2494C78.8433 82.9825 78.6912 82.725 78.543 82.4712C78.6912 82.7231 78.8433 82.9825 78.9972 83.2494Z" fill="#9388B1"/>
<path d="M78.4438 82.3034C78.2242 81.932 78.0121 81.5775 77.8057 81.2378C78.0102 81.5756 78.2242 81.932 78.4438 82.3034Z" fill="#9388B1"/>
<path d="M100.033 86.3849C104.69 86.3849 109.752 85.8866 114.857 84.5131L115.031 81.9582C99.7667 86.3961 84.2636 82.5031 77.1221 80.1255C77.3229 80.4465 77.5331 80.788 77.7508 81.1482C77.7696 81.1781 77.7865 81.2079 77.8053 81.2378C78.0098 81.5756 78.2238 81.932 78.4434 82.3034C78.4772 82.3594 78.5091 82.4154 78.5429 82.4732C78.6912 82.7252 78.8432 82.9846 78.9971 83.2515C81.7467 84.054 85.416 84.9628 89.6128 85.5918C92.6796 86.0509 96.2194 86.3849 100.033 86.3849Z" fill="#9388B1"/>
<path d="M86.7585 60.0686L85.0881 70.5383L79.8516 74.7542C79.8516 74.7542 87.1264 85.5953 97.0176 88.0625C100.37 88.8986 105.648 87.9897 107.372 85.013C109.032 82.1502 109.561 78.1041 109.878 73.3004C110.039 70.8724 86.7604 60.0705 86.7604 60.0705L86.7585 60.0686Z" fill="white"/>
<path d="M86.5143 59.324C86.7085 59.2613 86.9149 59.2783 87.0937 59.3619L87.0943 59.3613H87.0955C87.0963 59.3616 87.0972 59.3625 87.0986 59.3631C87.1015 59.3645 87.1059 59.3666 87.1115 59.3692C87.1229 59.3745 87.14 59.3822 87.1621 59.3925C87.2064 59.4132 87.272 59.4437 87.3575 59.4837C87.5287 59.5637 87.7799 59.6814 88.0989 59.8319C88.7367 60.1328 89.6472 60.5651 90.7392 61.0914C92.923 62.1439 95.8357 63.5735 98.7446 65.0802C101.649 66.5849 104.567 68.1748 106.755 69.5465C107.845 70.2302 108.779 70.8754 109.444 71.4399C109.774 71.7205 110.064 72.0029 110.274 72.2796C110.463 72.5276 110.694 72.9072 110.665 73.3524C110.349 78.1381 109.819 82.3622 108.056 85.4041C107.042 87.1545 105.05 88.2074 103 88.7265C100.932 89.25 98.6413 89.2755 96.8254 88.8226C91.6771 87.5385 87.263 84.0963 84.1686 81.0388C82.6137 79.5025 81.374 78.0454 80.5225 76.9716C80.0964 76.4344 79.7667 75.9917 79.5425 75.6822C79.4306 75.5277 79.3451 75.4061 79.2867 75.3223C79.2576 75.2804 79.2349 75.2475 79.2196 75.225C79.212 75.2139 79.2058 75.2054 79.2017 75.1993L79.1955 75.1901L79.1949 75.1889C78.9692 74.8525 79.0383 74.4007 79.3545 74.1461L84.3554 70.1193L85.9794 59.9463L86.004 59.8399C86.0785 59.5977 86.2676 59.4037 86.5143 59.324ZM85.8672 70.6609C85.8367 70.8518 85.7361 71.025 85.5849 71.1468L80.9218 74.9001C81.129 75.1826 81.4105 75.5584 81.7625 76.0022C82.5841 77.0383 83.7815 78.4458 85.2817 79.9281C88.2975 82.9079 92.4665 86.12 97.2093 87.3031C98.7454 87.6862 100.77 87.6749 102.61 87.2088C104.468 86.7384 105.978 85.8487 106.688 84.6226C108.235 81.9534 108.766 78.1125 109.085 73.3273C109.073 73.3057 109.052 73.2715 109.016 73.2239C108.903 73.0757 108.709 72.8773 108.418 72.6302C107.84 72.1393 106.982 71.5418 105.912 70.8714C103.781 69.5349 100.909 67.9687 98.0148 66.4694C95.1242 64.9722 92.2267 63.5495 90.0508 62.5007C88.9631 61.9765 88.0561 61.5461 87.4216 61.2468C87.4049 61.239 87.3885 61.2312 87.3722 61.2235L85.8672 70.6609Z" fill="#2E2765"/>
<path d="M116.09 38.1869C114.463 29.1934 103.254 30.3635 101.619 30.5669C86.5516 32.4369 85.844 45.0211 85.9453 48.5558L85.2884 48.6361C85.2884 48.6361 85.3616 49.2389 85.4892 50.2131C83.5392 50.6852 80.0275 52.2156 81.1743 57.0529C82.0433 60.7201 84.8023 61.0504 87.0771 60.6231C87.3811 62.2448 87.6927 63.6296 87.9799 64.4452C89.1398 67.7354 89.93 69.1892 94.4458 72.1155C98.9616 75.0418 108.363 76.085 112.55 70.7102C116.428 65.7329 116.741 56.7655 116.766 55.4666C117.143 50.4855 117.162 44.1085 116.09 38.1869Z" fill="white"/>
<path d="M101.948 29.741C103.195 29.6136 106.113 29.431 109.051 30.1688C112.439 31.0198 115.978 33.1426 116.866 38.048C117.952 44.0502 117.932 50.4907 117.553 55.5078C117.538 56.2208 117.448 58.8071 116.878 61.8522C116.305 64.9159 115.229 68.551 113.174 71.1892C110.879 74.1343 107.206 75.262 103.631 75.309C100.057 75.3561 96.4194 74.3298 94.0142 72.7712C91.7337 71.2933 90.3219 70.143 89.3351 68.9022C88.3415 67.6527 87.8187 66.3604 87.2347 64.7041V64.7034C86.9734 63.9614 86.7044 62.8196 86.444 61.5065C85.4199 61.6129 84.2986 61.5487 83.2724 61.0866C81.9313 60.4827 80.8868 59.2618 80.4059 57.2324C79.7795 54.5901 80.4141 52.722 81.5917 51.4626C82.4953 50.4963 83.6602 49.9514 84.6203 49.6432C84.596 49.4538 84.5749 49.2903 84.558 49.1561C84.5409 49.0194 84.5275 48.9132 84.5186 48.8409C84.5141 48.8048 84.5104 48.7769 84.5081 48.7583C84.507 48.749 84.5062 48.7417 84.5057 48.7369C84.5054 48.7346 84.5052 48.7326 84.505 48.7314V48.7295C84.4548 48.3149 84.7404 47.9375 85.1497 47.8654C85.1652 45.8004 85.5 42.1089 87.3968 38.5688C89.5643 34.5237 93.7308 30.7562 101.521 29.7894L101.948 29.741ZM108.664 31.6871C105.601 30.918 102.511 31.2451 101.717 31.3438C94.4396 32.247 90.7182 35.7069 88.7903 39.3051C86.8358 42.9528 86.6846 46.8242 86.7336 48.5337C86.7438 48.8942 86.5056 49.2075 86.1673 49.306C86.1961 49.5323 86.231 49.8035 86.2714 50.112C86.3232 50.508 86.0667 50.8796 85.676 50.9743C84.7619 51.1956 83.5725 51.6469 82.7479 52.5287C81.9689 53.3619 81.4215 54.6782 81.9418 56.8732C82.3298 58.5109 83.0995 59.2889 83.9238 59.6601C84.795 60.0524 85.8662 60.0534 86.9303 59.8535L87.0073 59.8425C87.1885 59.8266 87.3705 59.8737 87.5219 59.9765C87.6949 60.094 87.8139 60.2749 87.8523 60.4796C88.1566 62.1029 88.4594 63.4336 88.7244 64.1863L88.9351 64.7738C89.4189 66.0891 89.8555 67.0284 90.5733 67.931C91.4005 68.9711 92.6415 70.0108 94.8765 71.4591C96.987 72.8268 100.308 73.7858 103.61 73.7424C106.912 73.6989 110.033 72.6604 111.926 70.2308C113.748 67.8917 114.768 64.5548 115.327 61.5658C115.882 58.5981 115.965 56.0788 115.977 55.4521L115.979 55.4075C116.353 50.465 116.369 44.1594 115.313 38.3253C114.573 34.2374 111.695 32.4486 108.664 31.6871Z" fill="#2E2765"/>
<path d="M109.121 50.6302C109.551 50.5623 109.956 50.8535 110.024 51.2807L111.415 59.9568C111.456 60.2113 111.368 60.4693 111.18 60.6471C110.992 60.8248 110.728 60.8994 110.474 60.8466L107.347 60.1954C106.92 60.1066 106.647 59.691 106.737 59.2677C106.826 58.8443 107.245 58.573 107.671 58.6618L109.676 59.0798L108.466 51.5267C108.398 51.0995 108.691 50.6982 109.121 50.6302Z" fill="#2E2765"/>
<path d="M113.174 53.1132C113.67 53.0915 114.045 52.4555 114.012 51.6924C113.978 50.9294 113.549 50.3284 113.052 50.35C112.556 50.3716 112.182 51.0077 112.215 51.7707C112.249 52.5338 112.678 53.1348 113.174 53.1132Z" fill="#2E2765"/>
<path d="M104.365 53.0712C104.861 53.0495 105.236 52.4135 105.202 51.6504C105.168 50.8874 104.739 50.2864 104.243 50.308C103.747 50.3296 103.372 50.9657 103.406 51.7287C103.439 52.4918 103.869 53.0928 104.365 53.0712Z" fill="#2E2765"/>
<path d="M99.237 45.196C100.07 44.7722 101.283 44.4487 102.762 44.8386C103.183 44.9495 103.434 45.3788 103.323 45.7969C103.211 46.215 102.779 46.4642 102.357 46.3532C101.33 46.0826 100.519 46.3039 99.9563 46.5901C99.6708 46.7352 99.4492 46.8973 99.3017 47.0209C99.2286 47.0822 99.1752 47.1332 99.1421 47.1659C99.1256 47.1823 99.114 47.1941 99.1082 47.2002L99.1057 47.2026V47.202C99.1051 47.2027 99.1049 47.2035 99.1045 47.2039L99.0515 47.2583C98.7595 47.5296 98.3022 47.5428 97.9945 47.2761C97.6663 46.9916 97.6328 46.4968 97.9193 46.1709L98.4882 46.6635C97.9626 46.2079 97.9227 46.1731 97.9199 46.1702V46.1696C97.9203 46.1692 97.9207 46.1683 97.9212 46.1678C97.922 46.1668 97.9232 46.1659 97.9242 46.1647C97.9264 46.1623 97.9293 46.1594 97.9323 46.1562C97.9381 46.1497 97.9455 46.1418 97.9544 46.1323C97.9724 46.1131 97.9967 46.0879 98.0272 46.0576C98.0881 45.9972 98.174 45.9162 98.2842 45.8239C98.5037 45.6399 98.8242 45.4059 99.237 45.196Z" fill="#2E2765"/>
<path d="M110.49 43.8778C110.774 43.8317 111.174 43.7923 111.611 43.8307C112.505 43.909 113.647 44.3365 114.141 45.7229C114.286 46.1308 114.07 46.5788 113.659 46.7229C113.249 46.8669 112.798 46.6528 112.653 46.2449C112.435 45.6327 111.99 45.4366 111.473 45.3912C111.206 45.3678 110.944 45.3918 110.744 45.4243C110.646 45.4402 110.567 45.4576 110.515 45.4702C110.489 45.4764 110.47 45.4813 110.46 45.4843L110.45 45.4873L110.451 45.4867H110.452V45.4861C110.035 45.6124 109.595 45.3808 109.467 44.9677C109.339 44.5542 109.573 44.1157 109.989 43.9886L110.159 44.5357C110 44.0217 109.99 43.9905 109.99 43.9886L109.991 43.988H109.992C109.993 43.9876 109.995 43.9872 109.996 43.9867L110.038 43.9745C110.064 43.9674 110.099 43.9586 110.142 43.9482C110.227 43.9275 110.346 43.9011 110.49 43.8778Z" fill="#2E2765"/>
<path d="M107.509 63.512C104.78 66.4812 103.259 63.8274 101.964 61.8883C101.634 61.3938 102.086 60.7574 102.663 60.9067C105.108 61.5468 108.43 62.5098 107.509 63.512Z" fill="#2E2765"/>
<path d="M119.089 35.2101C118.218 33.3513 117.15 32.8176 116.205 32.825C116.169 32.4891 116.111 32.1494 116.037 31.8135C115.382 28.8555 113.492 26.3248 110.899 24.7814H110.904C110.904 24.7814 107.723 21.3979 97.6815 22.1145C87.6402 22.8331 87.3811 28.5531 87.3811 28.5531C82.8203 31.6157 79.5207 35.4508 79.2749 38.7336C78.5879 47.9249 82.4768 50.1588 84.0816 50.6851C84.2561 50.6086 84.4269 50.5433 84.5958 50.4817C84.6484 50.6329 84.701 50.7579 84.7516 50.8419C91.0805 50.4145 91.4165 41.5554 93.4172 37.2947C93.6312 36.8412 94.1886 36.6695 94.6259 36.9159C97.4356 38.4966 101.261 39.0135 105.793 38.3883C110.692 37.7146 112.884 35.4452 113.862 33.648C113.894 33.6816 113.926 33.7134 113.956 33.7469C114.001 33.7955 114.044 33.8459 114.089 33.8963C114.11 33.9186 114.131 33.9429 114.151 33.9653C114.189 34.0101 114.226 34.0549 114.264 34.0997C114.29 34.1314 114.316 34.1613 114.341 34.193C114.375 34.234 114.406 34.277 114.438 34.3199C114.467 34.3572 114.495 34.3945 114.523 34.4319C114.551 34.4711 114.581 34.5121 114.609 34.5513C114.639 34.5942 114.671 34.6372 114.699 34.6819C114.724 34.7193 114.75 34.7566 114.774 34.7939C114.806 34.8424 114.838 34.8928 114.87 34.9414C114.893 34.9768 114.913 35.0123 114.934 35.0459C114.968 35.1019 115 35.1578 115.033 35.2138C115.052 35.2456 115.069 35.2773 115.088 35.3109C115.122 35.3725 115.155 35.4359 115.189 35.4994C115.204 35.5274 115.219 35.5554 115.234 35.5852C115.27 35.6561 115.306 35.7271 115.339 35.7998C115.67 36.5016 115.927 37.291 116.088 38.1831C116.617 41.1093 116.88 44.1476 116.965 47.0739C117.085 47.0888 117.205 47.0515 117.325 46.9563C119.326 45.3663 121.156 39.6275 119.086 35.2064L119.089 35.2101Z" fill="#2E2765"/>
<path d="M107.586 47.0522C107.944 47.0661 108.238 47.316 108.32 47.6471L108.321 47.6483C108.321 47.6491 108.322 47.6503 108.322 47.6513C108.322 47.6534 108.323 47.6563 108.324 47.6593C108.325 47.6655 108.327 47.6738 108.329 47.6838C108.334 47.7042 108.341 47.7322 108.348 47.7676C108.364 47.8384 108.383 47.9383 108.404 48.0632C108.446 48.3127 108.492 48.6648 108.514 49.0858C108.557 49.9219 108.507 51.0636 108.103 52.2259C107.696 53.3999 106.928 54.5916 105.561 55.4884C104.202 56.3802 102.312 56.9399 99.7224 56.9681C99.7151 56.9682 99.7076 56.9682 99.7003 56.9681C96.9703 56.9223 95.1856 55.709 94.1047 53.8385C93.0637 52.0369 92.702 49.6764 92.5984 47.3227C92.5888 47.1039 92.6721 46.891 92.8277 46.7358C92.9832 46.5807 93.1972 46.4972 93.4175 46.5057L107.586 47.0522ZM94.2249 48.1042C94.3715 50.0514 94.7334 51.7779 95.4735 53.0588C96.2785 54.4518 97.5524 55.3617 99.7163 55.4008C102.084 55.3735 103.652 54.8635 104.692 54.1812C105.726 53.5027 106.299 52.6147 106.611 51.7155C106.927 50.8044 106.975 49.8788 106.938 49.1666C106.927 48.9504 106.907 48.757 106.886 48.5932L94.2249 48.1042Z" fill="#EB762F"/>
<path d="M93.1093 46.5573C93.5169 46.4048 93.972 46.6096 94.1256 47.0144C94.2791 47.4192 94.0728 47.8711 93.6652 48.0236L86.5368 50.6906C86.1292 50.8429 85.6741 50.6382 85.5205 50.2334C85.367 49.8286 85.5732 49.3768 85.9809 49.2243L93.1093 46.5573Z" fill="#EB762F"/>
<path d="M109.673 50.359C110.109 50.352 110.468 50.697 110.475 51.1295C110.482 51.5619 110.134 51.9185 109.699 51.9257L107.715 51.9575C107.279 51.9644 106.92 51.619 106.913 51.1864C106.906 50.754 107.254 50.3979 107.689 50.3908L109.673 50.359Z" fill="#EB762F"/>
<path d="M121.949 46.7221C122.183 46.7144 122.409 46.8104 122.565 46.984C122.72 47.1577 122.79 47.3912 122.756 47.6211C122.587 48.7415 122.534 49.7544 122.446 50.7367C122.361 51.6857 122.242 52.626 121.909 53.4417C121.56 54.2958 120.979 55.005 120.023 55.493C119.1 55.964 117.875 56.204 116.27 56.2494C112.742 56.3492 110.79 54.1666 109.766 52.1069C109.255 51.0801 108.958 50.0569 108.787 49.2967C108.701 48.9148 108.646 48.5948 108.612 48.3677C108.596 48.2542 108.585 48.1634 108.577 48.0997C108.574 48.0741 108.572 48.0528 108.57 48.036C108.565 48.0032 108.561 47.9697 108.561 47.9357C108.554 47.5084 108.893 47.1545 109.323 47.1401L121.949 46.7221ZM110.269 48.6756C110.287 48.7635 110.304 48.8575 110.326 48.9558C110.479 49.6374 110.743 50.5327 111.181 51.4136C112.054 53.1695 113.549 54.759 116.225 54.6834C117.721 54.641 118.678 54.4181 119.302 54.0995C119.893 53.798 120.227 53.3909 120.447 52.8523C120.683 52.2754 120.789 51.5458 120.874 50.5978C120.934 49.9272 120.983 49.1507 121.075 48.3182L110.269 48.6756Z" fill="#EB762F"/>
<path d="M155.478 137.811L159.833 145.696L186.86 150.175L185.704 167.466L140.818 153.822L126.212 131.998L155.478 137.811Z" fill="#4D4190"/>
<path d="M140.89 171.503V133.448L113.099 111.171L111.496 133.62L111.661 171.503H140.89Z" fill="#4D4190"/>
<path d="M63.6953 81.6538C65.3676 85.8902 66.8691 89.996 68.5583 94.2884C70.4352 94.6616 72.1244 94.8483 74.0013 95.0349C75.5028 95.4082 77.0043 95.4082 78.3576 95.7534M78.3576 95.7534C76.1184 96.8806 78.3369 95.7497 78.3576 95.7534ZM78.3576 95.7534C76.1184 96.8806 73.8793 98.0079 71.6383 99.1351L70.6811 99.6166C71.7472 101.251 72.7945 102.899 73.8324 104.551C74.9379 106.046 75.6886 107.725 76.6271 109.218C78.8794 112.764 81.1316 116.124 82.8208 119.856C83.5716 121.722 83.7593 123.962 84.51 125.828C85.2608 140.385 85.4485 154.755 85.7018 169.254" stroke="#2E2765" stroke-width="2.5" stroke-linecap="round" stroke-linejoin="round"/>
<path d="M89.6039 171.503L78.9751 72.7332L56.8278 82.0645L55.7861 171.503H89.6039Z" fill="#EB762F" stroke="#EB762F" stroke-width="2.5" stroke-linecap="round" stroke-linejoin="round"/>
<path d="M128.841 85.3193C128.244 89.0631 127.681 92.7956 126.93 96.5281C123.739 97.4612 120.924 98.7676 117.684 99.781M117.684 99.781C119.088 99.2752 120.106 100.442 117.684 99.781ZM117.684 99.781C120.361 100.634 123.364 101.194 125.982 102.043M125.982 102.043C125.569 103.157 125.637 101.95 125.982 102.043ZM125.982 102.043C125.616 102.687 125.616 103.247 125.428 103.807C123.927 107.539 122.613 111.085 121.487 115.004C121.299 115.564 120.924 115.937 120.736 116.497C119.422 121.163 117.546 125.642 116.795 130.307C116.232 143.371 116.044 156.248 115.781 169.254" stroke="#2E2765" stroke-width="2.5" stroke-linecap="round" stroke-linejoin="round"/>
<path d="M48.3648 138.853L54.7274 146.07L83.1642 152.476V167.27L57.9407 167.198C47.1317 167.166 37.2761 161.046 32.505 151.403L28.7344 143.783L48.3648 138.853Z" fill="#4D4190"/>
<path d="M47.5501 130.276C47.6775 129.862 48.1189 129.629 48.5356 129.756C48.9516 129.882 49.1854 130.319 49.0588 130.733C49.0585 130.734 49.0586 130.736 49.0576 130.74C49.0555 130.747 49.0518 130.759 49.0471 130.776C49.0376 130.81 49.0233 130.864 49.0058 130.935C48.9708 131.078 48.9229 131.292 48.8764 131.563C48.7831 132.107 48.6954 132.878 48.718 133.772C48.7633 135.564 49.2493 137.813 50.9799 139.776C52.8385 141.884 54.7488 143.656 56.1964 144.903C56.9195 145.526 57.5255 146.016 57.9492 146.349C58.161 146.516 58.3274 146.643 58.4398 146.728C58.4465 146.733 58.4532 146.738 58.4595 146.743L79.7034 150.209C80.1333 150.279 80.4243 150.682 80.3537 151.108C80.283 151.535 79.8776 151.825 79.4477 151.755L58.0115 148.257C57.8885 148.237 57.7722 148.188 57.6719 148.115L58.1397 147.484L57.6713 148.115L57.67 148.114C57.6693 148.114 57.6687 148.112 57.6676 148.112C57.6652 148.11 57.6619 148.107 57.6577 148.104C57.6492 148.098 57.6366 148.089 57.6207 148.077C57.589 148.054 57.5429 148.019 57.4833 147.974C57.3636 147.883 57.1892 147.75 56.9693 147.577C56.5296 147.231 55.9056 146.726 55.1628 146.087C53.6783 144.808 51.7123 142.985 49.7928 140.808H49.7922C47.7467 138.488 47.1922 135.843 47.1408 133.812C47.1151 132.796 47.2143 131.922 47.3208 131.301C47.3741 130.989 47.4295 130.739 47.4724 130.564C47.4939 130.477 47.5125 130.408 47.526 130.359C47.5328 130.335 47.5386 130.316 47.5427 130.302C47.5447 130.295 47.5463 130.289 47.5476 130.285L47.5501 130.277V130.277C47.5502 130.276 47.5502 130.276 48.2903 130.501L47.5501 130.276Z" fill="#2E2765"/>
<path d="M96.2102 159.469C101.036 159.514 100.685 157.189 99.0575 156.674C97.0248 156.028 88.4024 155.451 88.4024 155.451C88.4024 155.451 94.2489 153.385 94.2939 149.584C94.339 145.782 92.7098 146.187 91.1652 148.533C89.6205 150.879 82.1692 151.967 82.1692 151.967L79.2919 150.879C79.2919 150.879 71.3208 151.418 72.6234 159.91C73.0025 164.925 77.1598 166.808 77.1598 166.808C78.3798 167.42 82.9294 170.245 93.4981 168.525C93.4981 168.525 98.2373 167.196 93.9261 166.382C92.8093 166.171 91.6944 166.072 90.6528 166.041" fill="white"/>
<path d="M77.4887 166.095H77.4875C77.497 166.1 77.5065 166.104 77.5158 166.109C78.14 166.422 79.4949 167.233 81.9922 167.776C84.4884 168.319 88.1522 168.596 93.3238 167.759C93.3245 167.759 93.3256 167.759 93.3263 167.759C93.3562 167.75 93.4006 167.736 93.4563 167.719C93.5688 167.684 93.7255 167.633 93.9001 167.569C94.1056 167.494 94.3154 167.408 94.5028 167.319C94.3126 167.265 94.0747 167.207 93.7793 167.152C92.7117 166.95 91.639 166.854 90.6293 166.824C90.1939 166.81 89.8512 166.449 89.8644 166.017C89.8778 165.585 90.2419 165.244 90.6773 165.258C91.7509 165.29 92.9081 165.392 94.0739 165.613C94.6384 165.719 95.0922 165.841 95.4427 165.982C95.7694 166.114 96.1182 166.307 96.3327 166.623C96.451 166.797 96.5259 167.007 96.5262 167.239C96.5265 167.464 96.4563 167.656 96.3715 167.804C96.2141 168.08 95.9658 168.277 95.7712 168.407C95.3645 168.681 94.8308 168.898 94.4431 169.04C94.2407 169.113 94.0607 169.173 93.9309 169.213C93.8659 169.234 93.813 169.25 93.7756 169.261C93.7569 169.266 93.7418 169.27 93.7312 169.273C93.726 169.275 93.7219 169.276 93.7189 169.277C93.7174 169.278 93.7161 169.278 93.7152 169.278H93.7133L93.4982 168.525L93.7127 169.279C93.6843 169.287 93.6555 169.293 93.6264 169.298C88.2542 170.173 84.3732 169.898 81.655 169.306C78.9309 168.714 77.4006 167.806 76.8046 167.507H76.804C76.7931 167.502 76.7795 167.496 76.7633 167.488C76.7249 167.469 76.6718 167.441 76.6062 167.406C76.4749 167.336 76.2927 167.232 76.0755 167.092C75.6417 166.813 75.063 166.386 74.4718 165.789C73.2888 164.594 72.0523 162.712 71.8395 159.996C71.5025 157.767 71.7627 155.994 72.3967 154.595C73.0334 153.19 74.0204 152.22 75.0358 151.556C76.0457 150.896 77.0904 150.534 77.8733 150.337C78.2667 150.238 78.5998 150.179 78.8379 150.144C78.9571 150.127 79.0532 150.115 79.1214 150.108C79.1553 150.105 79.1824 150.102 79.2021 150.101L79.2341 150.098C79.2351 150.098 79.2359 150.098 79.2366 150.098H79.2378C79.2383 150.098 79.2389 150.106 79.2847 150.773L79.2385 150.098C79.3522 150.09 79.4666 150.107 79.5731 150.147L82.2535 151.161C82.2861 151.155 82.3226 151.15 82.3626 151.144C82.5636 151.11 82.8542 151.06 83.2082 150.992C83.9175 150.856 84.8761 150.65 85.8781 150.375C86.884 150.098 87.9118 149.757 88.7698 149.352C89.655 148.935 90.243 148.503 90.5054 148.104C90.9155 147.482 91.3556 146.949 91.8046 146.574C92.2264 146.221 92.798 145.891 93.4329 145.977C94.1435 146.074 94.563 146.625 94.782 147.216C95.0011 147.807 95.0951 148.605 95.0834 149.593C95.056 151.905 93.2822 153.573 91.7756 154.591C91.621 154.695 91.466 154.794 91.3134 154.888C91.8541 154.933 92.4402 154.984 93.0422 155.041C94.2515 155.153 95.5311 155.287 96.6396 155.434C97.7264 155.578 98.7139 155.742 99.2984 155.928H99.2978C99.8515 156.103 100.343 156.445 100.643 156.913C100.954 157.395 101.057 158.022 100.764 158.623C100.485 159.196 99.9148 159.603 99.185 159.862C98.4478 160.123 97.4648 160.265 96.2033 160.253C95.7676 160.249 95.4177 159.895 95.4218 159.462C95.426 159.03 95.7825 158.682 96.2181 158.686C97.3692 158.697 98.1517 158.565 98.655 158.386C99.1652 158.206 99.3111 158.008 99.344 157.941C99.3629 157.902 99.3755 157.853 99.3132 157.756C99.2411 157.644 99.078 157.503 98.8183 157.421L98.8177 157.42C98.3859 157.283 97.5329 157.133 96.4313 156.987C95.3516 156.844 94.0945 156.713 92.8942 156.601C91.6953 156.489 90.5587 156.397 89.7214 156.333C89.3031 156.301 88.9597 156.276 88.7211 156.259C88.6019 156.251 88.5088 156.244 88.4457 156.24C88.4141 156.237 88.3897 156.236 88.3735 156.235C88.3656 156.234 88.3597 156.234 88.3557 156.233H88.3495C87.9766 156.208 87.6722 155.927 87.621 155.559C87.5698 155.191 87.786 154.838 88.1381 154.714H88.1375C88.1376 154.714 88.1385 154.714 88.1393 154.713C88.141 154.713 88.1439 154.712 88.148 154.71C88.1567 154.707 88.171 154.702 88.1899 154.695C88.2277 154.681 88.2851 154.658 88.3594 154.629C88.5083 154.569 88.7245 154.479 88.9849 154.359C89.5078 154.118 90.1996 153.761 90.8875 153.296C92.3153 152.331 93.4879 151.065 93.5056 149.575C93.5164 148.663 93.4236 148.086 93.3016 147.757C93.2577 147.638 93.2196 147.574 93.1944 147.54C93.1404 147.557 93.0181 147.608 92.8203 147.773C92.5309 148.015 92.1877 148.412 91.8255 148.962C91.3156 149.736 90.393 150.321 89.4466 150.767C88.4732 151.226 87.3488 151.597 86.299 151.885C85.2451 152.175 84.2438 152.388 83.5077 152.53C83.139 152.6 82.8351 152.654 82.6227 152.689C82.5166 152.706 82.433 152.72 82.3755 152.729C82.347 152.733 82.3249 152.736 82.3096 152.738C82.302 152.74 82.2959 152.741 82.2917 152.741C82.2897 152.742 82.288 152.742 82.2868 152.742H82.2849L82.1697 151.967L82.2843 152.743C82.151 152.762 82.0146 152.747 81.8886 152.699L79.1904 151.678C79.1547 151.683 79.113 151.688 79.0665 151.694C78.8738 151.722 78.5947 151.771 78.2616 151.855C77.5907 152.024 76.7235 152.328 75.9036 152.864C75.0889 153.397 74.3274 154.154 73.8358 155.238C73.3753 156.254 73.1287 157.609 73.3526 159.423L73.4038 159.792L73.4105 159.851C73.5832 162.135 74.6102 163.694 75.5966 164.69C76.0921 165.191 76.5766 165.548 76.934 165.778C77.1123 165.893 77.258 165.975 77.3556 166.028C77.4042 166.054 77.4408 166.072 77.4635 166.083C77.4748 166.089 77.4828 166.093 77.4869 166.095C77.4876 166.095 77.4883 166.095 77.4887 166.095Z" fill="#2E186A"/>
<path d="M93.8303 158.578C94.9207 158.554 96.0442 158.56 97.0383 158.641C98.0059 158.72 98.9515 158.876 99.6231 159.206C100.212 159.494 100.796 159.941 100.956 160.599C101.143 161.367 100.676 161.971 100.13 162.337C99.5828 162.705 98.787 162.974 97.792 163.149C96.7828 163.326 95.5087 163.417 93.9579 163.388C93.5224 163.38 93.1762 163.022 93.1844 162.59C93.1928 162.157 93.5526 161.814 93.9881 161.822C95.4665 161.85 96.6342 161.762 97.5172 161.606C98.4146 161.449 98.962 161.23 99.2466 161.039C99.316 160.993 99.3597 160.955 99.3871 160.928C99.3341 160.868 99.2095 160.751 98.9242 160.611C98.5383 160.421 97.8499 160.28 96.9089 160.203C95.9941 160.129 94.9331 160.121 93.8649 160.144C92.7986 160.167 91.7434 160.22 90.8375 160.265C89.9515 160.309 89.1688 160.347 88.7001 160.331C88.2648 160.316 87.9242 159.954 87.9389 159.521C87.9538 159.089 88.3189 158.75 88.7543 158.765C89.1397 158.778 89.8383 158.746 90.7592 158.7C91.6603 158.656 92.7381 158.601 93.8303 158.578Z" fill="#2E186A"/>
<path d="M151.517 121.138L152.479 171.697L169.097 172.333L171.86 129.939L151.517 121.138Z" fill="#6A6AF2"/>
<path d="M241.047 171.503L238.235 124.602L216.106 127.03L224.909 171.503H241.047Z" fill="#6A6AF2"/>
<path d="M160.113 125.653C160.036 126.119 159.98 126.578 159.942 127.03C159.372 133.896 163.112 138.927 163.112 138.927L163.522 171.505H219.654L220.847 130.686C220.847 130.686 238.556 125.255 238.537 124.979C237.308 106.932 227.469 100.049 225.487 98.7786C221.831 96.4345 205.262 93.0883 205.262 93.0883C194.423 90.5166 181.733 93.303 175.684 95.0946C174.404 95.4734 168.052 97.0224 165.412 98.1142C157.196 101.264 152.033 115.98 151.502 121.567C151.934 122.57 160.079 125.556 160.115 125.651L160.113 125.653Z" fill="#6A6AF2"/>
<path d="M186.565 84.108L186.22 93.1108L182.784 93.6203C182.162 94.4396 175.141 104.542 189.683 106.365C199.169 107.554 209.876 102.405 215.775 96.039L206.53 93.1444L204.407 75.2656L186.567 84.1098L186.565 84.108Z" fill="white"/>
<path d="M204.054 74.5649C204.284 74.4509 204.556 74.4553 204.782 74.5765C205.008 74.6977 205.16 74.9205 205.19 75.1738L207.254 92.5497L216.013 95.292C216.27 95.3726 216.468 95.578 216.537 95.8367C216.607 96.0955 216.539 96.372 216.356 96.5692C210.326 103.076 199.379 108.37 189.584 107.142C185.866 106.676 183.401 105.667 181.858 104.305C180.287 102.917 179.749 101.23 179.758 99.612C179.766 98.0239 180.298 96.5088 180.841 95.3667C181.387 94.218 181.972 93.387 182.153 93.1489C182.277 92.9847 182.462 92.8757 182.667 92.8453L185.456 92.4316L185.777 84.0781C185.789 83.7728 185.978 83.5034 186.261 83.3859L204.054 74.5649ZM187.335 84.6044L187.008 93.1403C186.994 93.5167 186.712 93.8301 186.337 93.8857L183.233 94.3453C183.005 94.679 182.627 95.2782 182.268 96.035C181.774 97.0743 181.342 98.3529 181.336 99.6205C181.329 100.858 181.724 102.09 182.907 103.135C184.118 104.204 186.228 105.142 189.782 105.588C198.513 106.682 208.414 102.203 214.322 96.4046L206.293 93.8912C205.997 93.7985 205.783 93.5424 205.746 93.2364L203.755 76.4638L187.335 84.6044Z" fill="#2E186A"/>
<path d="M216.28 31.4978L212.378 29.5098L208.859 36.3395L212.761 38.3275L216.28 31.4978Z" fill="#FC7624"/>
<path d="M217.549 32.9388C221.812 32.9388 225.268 29.5021 225.268 25.2628C225.268 21.0235 221.812 17.5869 217.549 17.5869C213.285 17.5869 209.829 21.0235 209.829 25.2628C209.829 29.5021 213.285 32.9388 217.549 32.9388Z" fill="#2E186A"/>
<path d="M210.766 32.9165C204.326 30.3616 197.217 28.9152 190.456 31.0204C169.816 38.4462 167.598 52.8985 174.743 60.0034C175.97 49.7445 178.099 45.9598 182.001 43.849C184.961 50.2279 197.812 58.0718 209.268 58.9359C209.268 58.9359 209.272 58.9396 209.272 58.9377C209.283 58.8986 208.512 69.1854 207.527 69.0361C207.303 69.6314 204.88 74.9839 204.88 74.9839L205.633 86.0452L230.502 83.6993C232.05 83.7628 233.341 82.3257 233.067 80.8439C231.356 71.591 231.417 41.4472 210.764 32.9165H210.766Z" fill="#2E186A"/>
<path d="M205.012 71.9307L206.511 72.3375C206.511 72.3375 215.321 73.9537 216.038 65.772C216.583 59.5667 210.385 59.548 207.36 59.9007" fill="white"/>
<path d="M207.267 59.1224C208.807 58.9428 211.279 58.8375 213.329 59.6493C214.373 60.0625 215.342 60.7273 216.004 61.7692C216.667 62.8133 216.971 64.1582 216.823 65.8401C216.631 68.0336 215.887 69.6368 214.827 70.78C213.773 71.9157 212.459 72.542 211.212 72.8785C209.968 73.2143 208.762 73.2701 207.876 73.2451C207.431 73.2325 207.06 73.199 206.799 73.1686C206.668 73.1533 206.563 73.1387 206.49 73.1276C206.453 73.122 206.424 73.1176 206.404 73.1141C206.394 73.1124 206.385 73.1109 206.379 73.1098C206.376 73.1093 206.374 73.109 206.372 73.1086C206.371 73.1084 206.37 73.1081 206.369 73.108H206.368L206.51 72.3375L206.367 73.108C206.346 73.104 206.324 73.0991 206.303 73.0933L204.803 72.6863C204.383 72.5723 204.135 72.1416 204.25 71.7243C204.364 71.3071 204.798 71.0609 205.219 71.1748L206.682 71.5713C206.694 71.5733 206.71 71.5763 206.729 71.5793C206.785 71.5878 206.871 71.6 206.982 71.6129C207.205 71.6389 207.529 71.6679 207.92 71.679C208.709 71.7013 209.75 71.6497 210.798 71.3669C211.843 71.0848 212.866 70.5812 213.666 69.7189C214.459 68.8641 215.085 67.6007 215.252 65.7037C215.376 64.2831 215.11 63.2982 214.669 62.6046C214.227 61.909 213.56 61.4277 212.744 61.1046C211.076 60.4441 208.935 60.5056 207.451 60.6787C207.018 60.7291 206.626 60.4217 206.575 59.992C206.524 59.5625 206.834 59.173 207.267 59.1224Z" fill="#2E186A"/>
<path d="M174.74 60.0034C175.968 49.7446 178.023 46.3461 181.925 44.2354C184.838 50.5135 196.195 58.1241 208.982 58.9247C209.174 60.3598 209.033 59.0815 208.999 60.6472C208.857 62.2634 208.673 64.0924 208.459 65.6283C207.244 71.4212 204.878 74.9857 204.878 74.9857V74.9932C201.507 80.5546 196.176 84.6604 189.277 85.0169C177.237 85.6383 174.669 68.7058 174.541 64.9639C174.478 63.1088 174.735 59.9997 174.735 59.9997C174.735 59.9997 174.735 59.9997 174.738 60.0034H174.74Z" fill="white"/>
<path d="M181.548 43.5474C181.74 43.4436 181.967 43.4234 182.175 43.4917C182.382 43.5599 182.551 43.7105 182.642 43.9072C184.004 46.8425 187.419 50.2117 192.15 52.9578C196.711 55.6058 202.408 57.622 208.448 58.1015L209.033 58.1431L209.103 58.1504C209.447 58.2025 209.719 58.4741 209.765 58.8218C209.812 59.1682 209.841 59.3733 209.855 59.4833C209.865 59.5662 209.892 59.7446 209.836 59.946C209.824 59.9907 209.828 59.9611 209.822 60.0133C209.812 60.0977 209.797 60.2811 209.789 60.6638C209.788 60.681 209.788 60.6982 209.786 60.7152C209.643 62.3358 209.458 64.1801 209.241 65.7353C209.238 65.7528 209.236 65.7706 209.232 65.7879C208.611 68.7515 207.695 71.1468 206.932 72.8049C206.55 73.6342 206.205 74.2802 205.955 74.7222C205.829 74.9433 205.727 75.1136 205.655 75.2302C205.619 75.2882 205.591 75.333 205.571 75.3642C205.565 75.375 205.561 75.3867 205.555 75.3973C202.085 81.1213 196.544 85.4258 189.319 85.7991C182.82 86.1345 178.944 81.6945 176.728 76.9566C174.648 72.5105 173.913 67.5937 173.774 65.3932L173.754 64.9905C173.721 64.0256 173.771 62.7547 173.827 61.7428C173.856 61.233 173.886 60.7818 173.91 60.4582C173.921 60.2964 173.931 60.1663 173.938 60.0763C173.942 60.0313 173.945 59.9961 173.947 59.9723C173.948 59.9606 173.948 59.9516 173.949 59.9454C173.949 59.9423 173.949 59.9397 173.949 59.938V59.9356L173.967 59.8236C173.968 59.8203 173.969 59.8171 173.97 59.8138C174.586 54.7134 175.415 51.2238 176.619 48.7253C177.852 46.1687 179.465 44.6747 181.548 43.5474ZM181.603 45.3313C180.128 46.2586 178.976 47.4642 178.042 49.4022C176.944 51.6795 176.135 54.9906 175.524 60.0959C175.522 60.1169 175.518 60.1374 175.514 60.1577C175.513 60.1697 175.513 60.1828 175.512 60.1969C175.505 60.2842 175.495 60.4116 175.483 60.5702C175.46 60.8875 175.431 61.3297 175.403 61.8291C175.347 62.8354 175.3 64.0472 175.331 64.9373C175.392 66.7333 176.052 71.7924 178.159 76.2963C180.268 80.8047 183.696 84.5202 189.237 84.2342C195.795 83.8954 200.905 80.0067 204.178 74.6286C204.191 74.6035 204.204 74.5783 204.22 74.5546L204.223 74.5491C204.227 74.5439 204.233 74.5357 204.24 74.524C204.255 74.5001 204.279 74.4625 204.31 74.412C204.372 74.311 204.465 74.1572 204.58 73.9536C204.811 73.5463 205.135 72.9393 205.496 72.1538C206.218 70.5849 207.09 68.3079 207.683 65.4875C207.892 63.981 208.072 62.1865 208.213 60.5892C208.222 60.2136 208.236 59.981 208.255 59.8254C208.263 59.7638 208.272 59.7093 208.282 59.6596C201.994 59.1536 196.085 57.0572 191.353 54.3103C186.852 51.6972 183.336 48.4466 181.603 45.3313Z" fill="#2E186A"/>
<path d="M183.23 55.8984C183.321 55.4755 183.739 55.2057 184.165 55.2956C184.592 55.3857 184.864 55.8021 184.773 56.2252L182.074 68.8093L184.602 68.9066C185.038 68.9233 185.377 69.2871 185.36 69.7194C185.344 70.1517 184.977 70.4887 184.541 70.4721L181.077 70.3393C180.844 70.3304 180.628 70.22 180.485 70.0376C180.342 69.8552 180.287 69.6197 180.336 69.3938L183.23 55.8984Z" fill="#2E186A"/>
<path d="M189.081 54.6561C190.655 53.7119 192.119 54.2 193.081 54.8256C193.558 55.1367 193.939 55.4953 194.199 55.7705C194.329 55.9094 194.433 56.0304 194.504 56.1187C194.54 56.1629 194.568 56.1994 194.588 56.2258C194.598 56.2391 194.606 56.2501 194.612 56.2583C194.615 56.2623 194.618 56.2653 194.62 56.2681C194.621 56.2694 194.622 56.2707 194.623 56.2717L194.624 56.273V56.2736C194.624 56.2738 194.624 56.2743 194.067 56.6701L194.624 56.2742C194.878 56.6261 194.796 57.1156 194.441 57.3672C194.087 57.6188 193.594 57.5374 193.341 57.1854C193.339 57.1828 193.335 57.1775 193.33 57.1701C193.318 57.1554 193.3 57.1319 193.275 57.101C193.224 57.0385 193.146 56.9469 193.046 56.8403C192.843 56.6243 192.557 56.358 192.216 56.1359C191.539 55.695 190.756 55.4817 189.897 55.997C189.524 56.2207 189.039 56.1016 188.814 55.7314C188.589 55.3611 188.709 54.8798 189.081 54.6561Z" fill="#2E186A"/>
<path d="M189.57 73.9564C189.731 73.5542 190.189 73.3572 190.594 73.5164C190.999 73.6756 191.197 74.1307 191.037 74.5329C190.36 76.2305 188.898 76.7237 187.752 76.8045C187.182 76.8447 186.661 76.7892 186.287 76.7262C186.098 76.6944 185.942 76.6598 185.832 76.6326C185.776 76.619 185.732 76.6072 185.7 76.5983C185.684 76.5938 185.671 76.5901 185.661 76.5873C185.656 76.5859 185.652 76.5846 185.649 76.5836C185.647 76.5831 185.645 76.5827 185.644 76.5824C185.644 76.5822 185.643 76.5819 185.642 76.5818L185.642 76.5812C185.642 76.578 185.657 76.5313 185.874 75.8327L185.641 76.5812C185.225 76.4534 184.992 76.0147 185.12 75.6014C185.249 75.1881 185.691 74.9566 186.107 75.0843C186.11 75.0852 186.116 75.0873 186.125 75.0898C186.143 75.0947 186.172 75.1022 186.211 75.1118C186.289 75.131 186.406 75.1572 186.551 75.1816C186.844 75.231 187.234 75.2708 187.64 75.2421C188.447 75.1853 189.2 74.8843 189.57 73.9564Z" fill="#2E186A"/>
<path d="M179.462 56.4292C179.459 56.4274 179.454 56.4241 179.447 56.4194C179.431 56.4095 179.405 56.3938 179.37 56.3735C179.301 56.3328 179.196 56.2745 179.065 56.2101C178.798 56.0796 178.436 55.9313 178.038 55.8435C177.248 55.6693 176.44 55.7444 175.82 56.5289C175.551 56.8691 175.054 56.9283 174.712 56.6611C174.369 56.3939 174.31 55.9016 174.579 55.5614C175.715 54.1252 177.258 54.0666 178.38 54.3142C178.938 54.4372 179.422 54.6386 179.762 54.805C179.933 54.8889 180.073 54.9659 180.171 55.0234C180.22 55.0523 180.26 55.0761 180.288 55.0938C180.302 55.1027 180.313 55.1103 180.322 55.1159C180.326 55.1185 180.33 55.1208 180.332 55.1226L180.338 55.1263H180.339C180.339 55.1264 180.339 55.1268 179.909 55.7658L180.339 55.1269C180.701 55.3672 180.799 55.8535 180.557 56.2131C180.315 56.5728 179.825 56.6694 179.463 56.4292V56.4298L179.462 56.4292Z" fill="#2E186A"/>
<path d="M190.285 60.1922C190.289 59.2151 189.777 58.421 189.142 58.4186C188.506 58.4162 187.988 59.2063 187.984 60.1834C187.981 61.1605 188.493 61.9546 189.128 61.957C189.763 61.9595 190.282 61.1693 190.285 60.1922Z" fill="#2E186A"/>
<path d="M178.066 60.076C178.069 59.0989 177.557 58.3048 176.922 58.3024C176.287 58.3 175.768 59.0901 175.765 60.0672C175.761 61.0443 176.273 61.8384 176.908 61.8408C177.544 61.8432 178.062 61.0531 178.066 60.076Z" fill="#2E186A"/>
<path d="M192.93 51.2862C191.215 51.2726 189.597 52.1689 188.377 53.742C187.157 55.3156 186.369 57.5317 186.349 60.019C186.329 62.5062 187.081 64.7347 188.276 66.3275C189.47 67.9198 191.073 68.8419 192.788 68.8556C194.503 68.8693 196.12 67.9729 197.34 66.3999C198.561 64.8263 199.349 62.6101 199.369 60.1229C199.389 57.6357 198.637 55.4072 197.442 53.8143C196.247 52.2221 194.645 51.2999 192.93 51.2862ZM192.942 49.7196C195.258 49.7381 197.288 50.9867 198.707 52.8783C200.126 54.7694 200.97 57.3384 200.947 60.1355C200.925 62.9325 200.039 65.4872 198.59 67.3554C197.141 69.2242 195.091 70.4407 192.775 70.4222C190.459 70.4037 188.429 69.1546 187.01 67.263C185.592 65.3719 184.749 62.8032 184.771 60.0064C184.794 57.2093 185.678 54.6541 187.127 52.7858C188.577 50.9171 190.626 49.7012 192.942 49.7196Z" fill="#FC7624"/>
<path d="M173.525 51.8184C171.81 51.8047 170.193 52.7009 168.973 54.2739C167.753 55.8474 166.965 58.0636 166.945 60.5508C166.925 63.038 167.677 65.2665 168.872 66.8595C170.067 68.4518 171.67 69.374 173.384 69.3878C175.099 69.4016 176.717 68.5052 177.937 66.9323C179.157 65.3588 179.945 63.1427 179.965 60.6555C179.985 58.1682 179.233 55.9397 178.038 54.3468C176.843 52.7544 175.24 51.8322 173.525 51.8184ZM173.538 50.2518C175.854 50.2704 177.884 51.5192 179.303 53.4108C180.722 55.302 181.565 57.8711 181.543 60.6681C181.52 63.4651 180.636 66.0198 179.187 67.8879C177.738 69.7566 175.688 70.973 173.372 70.9544C171.056 70.9358 169.026 69.6865 167.607 67.7948C166.188 65.9036 165.345 63.335 165.367 60.5381C165.39 57.741 166.274 55.1859 167.723 53.3177C169.172 51.4491 171.222 50.2332 173.538 50.2518Z" fill="#FC7624"/>
<path d="M185.645 58.6683C186.08 58.6864 186.418 59.0518 186.4 59.4841C186.381 59.9162 186.014 60.2519 185.579 60.2338L181.001 60.0434C180.566 60.0252 180.228 59.6598 180.246 59.2277C180.264 58.7956 180.632 58.4599 181.067 58.478L185.645 58.6683Z" fill="#FC7624"/>
<path d="M200.254 57.6739L210.027 59.0955C210.458 59.1584 210.756 59.5562 210.693 59.9841C210.629 60.4122 210.229 60.7084 209.798 60.6457L200.025 59.2234C199.594 59.1606 199.296 58.7628 199.359 58.3349C199.422 57.907 199.823 57.6112 200.254 57.6739Z" fill="#FC7624"/>
<path d="M78.9164 34.2955C78.9164 34.2955 76.2737 15.5135 92.4976 11.5514C119.66 4.91687 121.09 31.6902 121.09 31.6902L78.9164 34.2955Z" fill="#EB762F" stroke="#EB762F" stroke-width="2.5" stroke-linecap="round" stroke-linejoin="round"/>
<path d="M78.9163 34.2955C78.9163 34.2955 75.7969 11.1725 92.4975 11.5495C102.982 11.7865 105.125 31.9253 105.125 31.9253L78.9144 34.2955H78.9163Z" fill="#FF8E50" stroke="#EB762F" stroke-width="2.5" stroke-linecap="round" stroke-linejoin="round"/>
<path d="M73.7122 35.0271C72.83 36.395 74.2677 38.0579 75.7636 37.4028C78.0196 36.4156 81.5707 35.5981 87.1376 35.5981C101.195 35.5981 97.6219 38.9145 114.3 38.4405C130.98 37.9664 123.32 31.1938 123.32 31.1938L120.856 29.3088L78.3781 31.9477C78.3781 31.9477 75.666 31.9944 73.7103 35.0289L73.7122 35.0271Z" fill="#EB762F" stroke="#EB762F" stroke-width="2.5" stroke-linecap="round" stroke-linejoin="round"/>
<path d="M139.062 171.503L129.182 82.5308L112.29 74.8792L112.969 171.503H139.062Z" fill="#EB762F" stroke="#EB762F" stroke-width="2.5" stroke-linecap="round" stroke-linejoin="round"/>
<path d="M224.03 171.503L221.684 94.865L207.554 91.7856L201.49 171.503H224.03Z" fill="#EB762F" stroke="#EB762F" stroke-width="2.5" stroke-linecap="round" stroke-linejoin="round"/>
<path d="M162.168 171.503H185.006L179.875 91.209L162.84 95.6358L162.168 171.503Z" fill="#EB762F" stroke="#EB762F" stroke-width="2.5" stroke-linecap="round" stroke-linejoin="round"/>
</g>
</g>
<defs>
<clipPath id="clip0_533_8802">
<rect width="284" height="158.625" fill="white"/>
</clipPath>
<clipPath id="clip1_533_8802">
<rect width="213.947" height="162.307" fill="white" transform="translate(27.0996 10.0266)"/>
</clipPath>
</defs>
</svg>
