<svg width="532" height="310" viewBox="0 0 532 310" fill="none" xmlns="http://www.w3.org/2000/svg">
<g clip-path="url(#clip0_2_22337)">
<path d="M109.971 171.677C110.638 171.108 111.156 170.384 111.478 169.568C111.801 168.753 111.92 167.871 111.823 166.999C108.034 132.77 92.4231 97.534 68.0731 84.6057C43.0461 71.32 25.987 108.196 60.6646 142.464C86.7727 168.255 100.715 172.448 106.018 172.946C106.728 173.01 107.444 172.931 108.123 172.713C108.802 172.495 109.431 172.143 109.971 171.677Z" fill="#FF8D7E"/>
<path fill-rule="evenodd" clip-rule="evenodd" d="M46.7685 86.6597C47.3165 86.1062 48.2094 86.1018 48.7628 86.6499L47.7706 87.6521L46.7784 88.6543C46.2249 88.1062 46.2205 87.2133 46.7685 86.6597ZM47.7706 87.6521C46.7784 88.6543 46.7782 88.6541 46.7784 88.6543L46.8082 88.6839C46.8286 88.7042 46.8595 88.7349 46.9005 88.7759C46.9825 88.8577 47.1051 88.9805 47.2662 89.1427C47.5884 89.4671 48.0645 89.9491 48.6773 90.5774C49.9029 91.8339 51.6754 93.6747 53.858 96.0076C58.2236 100.674 64.2274 107.306 70.7764 115.164C83.8937 130.904 99.1225 151.474 107.804 170.99C108.12 171.702 108.954 172.022 109.665 171.706C110.377 171.389 110.697 170.556 110.381 169.844C101.537 149.964 86.1054 129.152 72.943 113.358C66.3522 105.45 60.3114 98.7769 55.9175 94.0804C53.7202 91.7319 51.9342 89.8768 50.6962 88.6077C50.0772 87.9731 49.5951 87.4849 49.2672 87.1548C49.1033 86.9897 48.9778 86.8641 48.893 86.7795C48.8507 86.7372 48.8184 86.7051 48.7966 86.6834L48.7636 86.6506C48.7631 86.6501 48.7628 86.6499 47.7706 87.6521Z" fill="#2E186A"/>
<path fill-rule="evenodd" clip-rule="evenodd" d="M55.5848 136.116L55.5924 136.116L55.6258 136.115C55.6567 136.114 55.7045 136.113 55.7689 136.112C55.8976 136.11 56.0924 136.107 56.3491 136.107C56.8626 136.106 57.6237 136.115 58.6002 136.15C60.5536 136.222 63.3664 136.403 66.7806 136.843C73.6141 137.724 82.8288 139.638 92.3763 143.763C93.0913 144.072 93.9213 143.743 94.2302 143.028C94.5391 142.313 94.2099 141.483 93.4949 141.174C83.6424 136.917 74.1573 134.95 67.1412 134.046C63.6306 133.593 60.731 133.406 58.7033 133.331C57.6892 133.294 56.8926 133.286 56.3459 133.286C56.0726 133.286 55.8617 133.289 55.7173 133.292C55.6451 133.293 55.5895 133.294 55.5511 133.295L55.5063 133.297L55.4937 133.297L55.4885 133.297C55.4881 133.297 55.4876 133.297 55.5362 134.707L55.4876 133.297C54.7093 133.324 54.1 133.977 54.1268 134.755C54.1537 135.534 54.8062 136.143 55.5843 136.116L55.5848 136.116Z" fill="#2E186A"/>
<path fill-rule="evenodd" clip-rule="evenodd" d="M75.8317 90.7119C76.5099 90.3288 77.3702 90.5681 77.7532 91.2463L76.5252 91.9399L75.2973 92.6335C74.9143 91.9552 75.1536 91.0949 75.8317 90.7119ZM76.5252 91.9399C75.2973 92.6335 75.2972 92.6333 75.2973 92.6335L75.312 92.6596L75.3578 92.7411C75.3984 92.8137 75.459 92.9222 75.5383 93.0649C75.6968 93.3503 75.9298 93.7723 76.2261 94.3161C76.8188 95.4036 77.6648 96.9777 78.6755 98.9194C80.6975 102.804 83.375 108.154 86.0005 114.018C88.6281 119.888 91.1922 126.247 92.997 132.157C94.8143 138.108 95.8099 143.442 95.4336 147.325C95.3585 148.101 95.926 148.79 96.7013 148.865C97.4765 148.94 98.1658 148.373 98.2409 147.597C98.6732 143.136 97.5341 137.357 95.6945 131.333C93.8423 125.268 91.2273 118.791 88.5748 112.866C85.9202 106.936 83.2165 101.535 81.1773 97.617C80.1573 95.6574 79.3028 94.0674 78.7026 92.9661C78.4025 92.4154 78.1659 91.9868 78.0039 91.6953C77.923 91.5495 77.8607 91.4379 77.8184 91.3625L77.7702 91.2767L77.7536 91.247C77.7533 91.2466 77.7532 91.2463 76.5252 91.9399Z" fill="#2E186A"/>
<path d="M140.902 140.372C142.783 141.65 144.912 141.871 146.6 140.955C179.265 123.189 206.817 90.0403 207.24 54.2452C207.71 17.4534 161.515 9.73403 144.851 66.7364C132.309 109.63 135.299 128.915 137.546 135.844C138.137 137.68 139.309 139.273 140.883 140.386L140.902 140.372Z" fill="#FF8D7E"/>
<path fill-rule="evenodd" clip-rule="evenodd" d="M195.796 30.7047C196.163 31.3918 195.904 32.2463 195.217 32.6132C185.984 37.5442 178.145 46.7242 171.579 57.901C165.024 69.0581 159.813 82.0748 155.777 94.5044C151.744 106.927 148.897 118.721 147.06 127.413C146.141 131.757 145.475 135.323 145.039 137.801C144.821 139.039 144.66 140.006 144.555 140.661C144.502 140.989 144.463 141.239 144.437 141.406C144.424 141.49 144.414 141.553 144.408 141.594L144.401 141.641L144.399 141.655C144.399 141.655 144.399 141.655 143.004 141.448C141.609 141.241 141.609 141.241 141.609 141.24L141.611 141.223L141.619 141.172C141.626 141.127 141.636 141.061 141.649 140.975C141.676 140.802 141.716 140.546 141.77 140.212C141.878 139.544 142.041 138.564 142.261 137.312C142.702 134.807 143.374 131.209 144.3 126.829C146.152 118.072 149.022 106.177 153.095 93.6332C157.165 81.0963 162.451 67.8699 169.147 56.4721C175.832 45.0941 183.998 35.4075 193.888 30.1251C194.575 29.7581 195.429 30.0177 195.796 30.7047ZM142.797 142.843C142.026 142.729 141.494 142.012 141.609 141.241L143.004 141.448L144.399 141.655C144.284 142.426 143.567 142.958 142.797 142.843Z" fill="#2E186A"/>
<path fill-rule="evenodd" clip-rule="evenodd" d="M206.653 59.1962C206.97 59.9079 206.649 60.7415 205.938 61.058C201.764 62.9144 192.258 67.272 182.388 72.6978C172.47 78.1499 162.363 84.5861 156.851 90.5728C156.323 91.1458 155.431 91.1826 154.858 90.655C154.285 90.1273 154.249 89.2351 154.776 88.6621C160.631 82.3033 171.108 75.6796 181.029 70.2259C190.997 64.7462 200.583 60.3524 204.791 58.4807C205.503 58.1642 206.337 58.4845 206.653 59.1962Z" fill="#2E186A"/>
<path fill-rule="evenodd" clip-rule="evenodd" d="M146.901 64.9091C147.676 64.9818 148.246 65.6695 148.173 66.445C147.583 72.7384 147.001 81.3321 147.218 89.1912C147.326 93.1222 147.633 96.8321 148.226 99.9608C148.827 103.127 149.691 105.533 150.805 106.993C151.277 107.612 151.158 108.497 150.539 108.97C149.92 109.442 149.035 109.323 148.563 108.704C147.044 106.713 146.08 103.781 145.455 100.486C144.823 97.154 144.509 93.28 144.398 89.2688C144.177 81.2436 144.771 72.5203 145.365 66.1816C145.438 65.4061 146.126 64.8364 146.901 64.9091Z" fill="#2E186A"/>
<path fill-rule="evenodd" clip-rule="evenodd" d="M191.666 100.103C192.153 100.711 192.055 101.599 191.448 102.086C184.675 107.512 173.849 112.717 164.831 116.538C160.3 118.457 156.186 120.044 153.204 121.15C151.713 121.703 150.504 122.137 149.667 122.433C149.248 122.581 148.923 122.694 148.701 122.771C148.59 122.809 148.505 122.838 148.448 122.858L148.382 122.881L148.361 122.888L148.359 122.888C148.359 122.888 148.359 122.888 147.906 121.553L148.359 122.888C147.621 123.138 146.821 122.743 146.571 122.005C146.321 121.268 146.716 120.467 147.454 120.217L147.66 120.827C147.454 120.217 147.453 120.217 147.454 120.217L147.454 120.217L147.473 120.21L147.534 120.189C147.589 120.171 147.671 120.142 147.779 120.105C147.995 120.03 148.315 119.919 148.728 119.773C149.552 119.482 150.747 119.053 152.223 118.506C155.175 117.41 159.248 115.839 163.731 113.94C172.739 110.124 183.243 105.045 189.684 99.8842C190.292 99.3972 191.179 99.4952 191.666 100.103Z" fill="#2E186A"/>
<path fill-rule="evenodd" clip-rule="evenodd" d="M89.3518 57.6955C89.8348 57.0844 90.7217 56.9806 91.3327 57.4637L90.4581 58.5701C91.3327 57.4637 91.3336 57.4644 91.3347 57.4653L91.338 57.4679L91.348 57.4759L91.3824 57.5035C91.4116 57.5271 91.4533 57.561 91.5068 57.6052C91.614 57.6937 91.769 57.8236 91.9678 57.9952C92.3655 58.3385 92.9386 58.8489 93.6555 59.5292C95.0892 60.8897 97.0986 62.9306 99.4297 65.6744C104.092 71.1617 110.043 79.4639 115.248 90.7603C125.667 113.377 133.05 147.905 121.231 195.714C121.044 196.47 120.279 196.932 119.523 196.745C118.767 196.558 118.306 195.793 118.493 195.037C130.158 147.853 122.839 113.979 112.686 91.9407C107.604 80.9099 101.801 72.8219 97.2803 67.5008C95.0201 64.8404 93.081 62.8725 91.7141 61.5753C91.0307 60.9268 90.4905 60.4461 90.1249 60.1305C89.9421 59.9727 89.803 59.8562 89.7114 59.7807C89.6657 59.7429 89.6318 59.7153 89.6103 59.698L89.5875 59.6796L89.5836 59.6765L89.5831 59.6762L89.5828 59.6759C88.9725 59.1927 88.869 58.3062 89.3518 57.6955Z" fill="#2E186A"/>
<path d="M94.5981 61.454C97.4118 59.8109 96.9728 53.8204 93.6177 48.0736C90.2626 42.3269 85.2618 39.0002 82.4481 40.6432C79.6345 42.2862 80.0734 48.2768 83.4285 54.0235C86.7836 59.7703 91.7844 63.097 94.5981 61.454Z" fill="#FF8D7E"/>
<path d="M95.3421 61.3906C95.4069 58.1328 90.0664 55.3844 83.4138 55.252C76.7611 55.1197 71.3155 57.6533 71.2507 60.9112C71.1859 64.169 76.5263 66.9174 83.179 67.0498C89.8317 67.1822 95.2773 64.6485 95.3421 61.3906Z" fill="#FF8D7E"/>
<path d="M106.073 56.2531C109.662 51.516 110.691 46.251 108.371 44.4933C106.051 42.7356 101.262 45.1508 97.6729 49.8879C94.0841 54.6249 93.0553 59.89 95.375 61.6477C97.6946 63.4054 102.484 60.9902 106.073 56.2531Z" fill="#FF8D7E"/>
<path d="M100.309 78.6926C102.958 77.4879 103.112 72.1255 100.652 66.7153C98.1924 61.305 94.0508 57.8958 91.4015 59.1005C88.7522 60.3051 88.5984 65.6676 91.0581 71.0778C93.5177 76.488 97.6594 79.8973 100.309 78.6926Z" fill="#FF8D7E"/>
<path d="M109.665 62.406C109.941 59.7931 105.842 57.2172 100.508 56.6528C95.1737 56.0884 90.6257 57.7491 90.3492 60.362C90.0727 62.975 94.1726 65.5508 99.5065 66.1153C104.84 66.6797 109.389 65.019 109.665 62.406Z" fill="#FF8D7E"/>
<path d="M70.8838 200.18L92.9775 299.089H163.16L185.249 200.18C186.509 194.539 182.941 188.977 178.043 188.977H78.0948C73.1919 188.996 69.624 194.539 70.8838 200.18Z" fill="white"/>
<path fill-rule="evenodd" clip-rule="evenodd" d="M78.0954 187.567V187.567H178.043C181.067 187.567 183.591 189.288 185.142 191.701C186.692 194.113 187.338 197.299 186.626 200.488L185.25 200.181L186.626 200.488L164.537 299.397C164.393 300.042 163.821 300.5 163.161 300.5H92.9781C92.3177 300.5 91.7457 300.042 91.6018 299.397L69.5081 200.488L69.5081 200.488C68.7959 197.299 69.4418 194.117 70.9931 191.707C72.545 189.296 75.0691 187.579 78.09 187.567L78.0954 187.567ZM78.0983 190.388C76.2172 190.396 74.507 191.459 73.3647 193.234C72.2212 195.01 71.7131 197.421 72.2607 199.873C72.2607 199.873 72.2607 199.873 72.2607 199.873L94.108 297.679H162.031L183.873 199.873C184.421 197.421 183.913 195.005 182.769 193.226C181.627 191.448 179.918 190.388 178.043 190.388H78.0983Z" fill="#2E186A"/>
<path d="M165.812 164.356C157.329 164.765 139.565 170.244 136.376 188.886" stroke="#2E186A" stroke-width="2.5" stroke-linecap="round" stroke-linejoin="round"/>
<path d="M165.513 164.908C167.148 164.682 167.92 160.475 167.237 155.511C166.553 150.547 164.673 146.705 163.037 146.931C161.402 147.156 160.63 151.363 161.313 156.327C161.997 161.291 163.877 165.133 165.513 164.908Z" fill="#FF8D7E"/>
<path d="M173.713 161.771C177.284 158.867 179.404 155.559 178.448 154.382C177.492 153.206 173.821 154.606 170.249 157.51C166.678 160.414 164.558 163.722 165.514 164.898C166.47 166.075 170.141 164.675 173.713 161.771Z" fill="#FF8D7E"/>
<path d="M165.512 164.701C166.27 163.234 163.275 160.18 158.823 157.88C154.372 155.58 150.149 154.905 149.391 156.372C148.633 157.839 151.627 160.893 156.079 163.193C160.531 165.493 164.754 166.168 165.512 164.701Z" fill="#FF8D7E"/>
<path d="M180.172 172.823C180.892 171.489 178.193 168.633 174.144 166.445C170.094 164.257 166.227 163.565 165.506 164.899C164.785 166.233 167.484 169.088 171.534 171.276C175.584 173.464 179.451 174.157 180.172 172.823Z" fill="#FF8D7E"/>
<path d="M164.854 172.977C166.788 168.788 167.236 164.876 165.857 164.239C164.477 163.602 161.791 166.482 159.858 170.671C157.925 174.86 157.476 178.772 158.856 179.409C160.235 180.046 162.921 177.166 164.854 172.977Z" fill="#FF8D7E"/>
<path d="M486.716 134.681L267.188 136.29C265.477 136.303 263.804 136.798 262.361 137.719C260.919 138.639 259.764 139.947 259.031 141.493L188.232 286.671L49.3019 286.806C49.3019 286.806 46.2032 307.147 72.1226 308.41L177.796 308.072H194.589L419.221 307.841L495.008 147.663C495.665 146.272 495.959 144.736 495.861 143.2C495.763 141.664 495.277 140.178 494.449 138.881C493.621 137.584 492.477 136.518 491.124 135.784C489.772 135.049 488.255 134.67 486.716 134.681Z" fill="#2E186A"/>
<path fill-rule="evenodd" clip-rule="evenodd" d="M469.807 133.76C471.502 133.747 473.172 134.165 474.661 134.974C476.151 135.783 477.41 136.956 478.323 138.385C479.235 139.813 479.77 141.45 479.878 143.141C479.985 144.833 479.662 146.524 478.938 148.057L478.938 148.057L404.294 306.06C404.077 306.521 403.528 306.717 403.068 306.5C402.607 306.283 402.411 305.733 402.628 305.273L477.272 147.27C477.863 146.019 478.127 144.639 478.039 143.259C477.951 141.878 477.514 140.542 476.77 139.377C476.025 138.211 474.997 137.253 473.782 136.593C472.566 135.933 471.203 135.592 469.82 135.602C469.311 135.606 468.896 135.197 468.892 134.688C468.888 134.179 469.298 133.763 469.807 133.76Z" fill="white"/>
<path d="M211.329 279.791L392.875 278.87C395.997 278.852 399.052 277.963 401.696 276.302C404.34 274.64 406.467 272.274 407.837 269.469L462.502 153.634C464.851 148.883 461.206 143.419 455.712 143.462L275.802 144.77C274.42 144.767 273.064 145.147 271.884 145.867C270.704 146.586 269.746 147.619 269.116 148.849L205.829 271.016C205.371 271.947 205.158 272.98 205.212 274.016C205.265 275.053 205.582 276.058 206.133 276.937C206.684 277.816 207.451 278.54 208.36 279.04C209.27 279.539 210.292 279.798 211.329 279.791Z" fill="white"/>
<path d="M353.867 150.484C347.655 166.78 344.306 190.258 344.491 191.406C344.677 192.554 363.251 221.983 369.786 230.252C380.602 243.938 399.573 231.616 387.499 211.509C375.42 191.406 371.847 173.457 371.847 173.457L353.867 150.484Z" fill="#FFC29E" stroke="#2E186A" stroke-width="2" stroke-linecap="round" stroke-linejoin="round"/>
<path d="M525.511 95.3799L490.15 103.304C468.73 186.356 420.33 168.86 420.33 168.86C413.963 164.829 323.584 141.49 323.584 141.49C323.584 141.49 335.491 87.3482 359.678 71.7165C375.404 61.5528 455.768 25.201 510.053 1.01538" fill="#FFC29E"/>
<path d="M525.511 95.3799L490.15 103.304C468.73 186.356 420.33 168.86 420.33 168.86C413.963 164.829 323.584 141.49 323.584 141.49C323.584 141.49 335.491 87.3482 359.678 71.7165C375.404 61.5528 455.768 25.201 510.053 1.01538" stroke="#2E186A" stroke-width="2" stroke-linecap="round" stroke-linejoin="round"/>
<path d="M445.452 167.302C453.884 173.75 460.971 181.471 470.153 171.446C479.335 161.416 481.925 156.927 476.002 134.593C470.079 112.259 458.147 108.383 448.823 123.661C439.499 138.939 445.452 167.302 445.452 167.302Z" fill="#FFC29E" stroke="#2E186A" stroke-width="2" stroke-linecap="round" stroke-linejoin="round"/>
<path d="M421.188 197.224C421.188 197.224 434.206 206.731 441.142 201.276C448.078 195.821 456.152 168.265 454.837 143.928C453.522 119.596 432.839 124.019 430.089 137.351C427.339 150.682 421.188 197.219 421.188 197.219V197.224Z" fill="#FFC29E" stroke="#2E186A" stroke-width="2" stroke-linecap="round" stroke-linejoin="round"/>
<path d="M405.009 210.836C421.118 213.693 423.472 202.48 425.071 193.991C426.67 185.502 430.231 167.229 431.115 158.373C433.369 135.793 405.867 138.702 399.241 155.956C392.577 173.306 388.896 207.983 405.005 210.84L405.009 210.836Z" fill="#FFC29E" stroke="#2E186A" stroke-width="2" stroke-linecap="round" stroke-linejoin="round"/>
<path d="M402.216 105.134L248.432 104.92C242.133 104.911 237.019 110.016 237.01 116.323L236.89 202.41C236.881 208.717 241.981 213.837 248.28 213.845L402.065 214.06C408.364 214.069 413.478 208.964 413.487 202.657L413.607 116.57C413.615 110.263 408.516 105.143 402.216 105.134Z" fill="#C1C1FB" stroke="#2E186A" stroke-width="2" stroke-linecap="round" stroke-linejoin="round"/>
<rect x="357.466" y="142.663" width="42.5637" height="50.4651" rx="4" fill="white"/>
<path d="M393.844 193.263C392.413 189.966 390.499 186.28 388.857 185.589C385.766 184.286 368.17 180.026 363.859 182.124C361.092 183.47 358.962 185.028 357.363 186.483V189.263C357.363 191.472 359.154 193.263 361.363 193.263H393.844Z" fill="#5D21D1"/>
<path d="M376.01 158.006L377.895 157.432L376.885 154.108L375 154.683L376.01 158.006Z" fill="#FE7624"/>
<path d="M374.937 155.249C376.854 155.249 378.408 153.694 378.408 151.775C378.408 149.856 376.854 148.301 374.937 148.301C373.021 148.301 371.467 149.856 371.467 151.775C371.467 153.694 373.021 155.249 374.937 155.249Z" fill="#2E186A"/>
<path d="M376.446 156.026C379.498 155.4 383.512 155.599 386.331 157.075C394.87 162.029 394.827 168.071 391.098 170.67C391.379 166 390.736 164.144 389.18 162.893C387.361 165.499 381.046 167.968 375.907 167.441C375.907 167.424 375.425 172.068 375.873 172.081C375.925 172.366 376.567 174.942 376.567 174.942L375.347 179.81L363.174 176.513C362.484 176.418 362.027 175.676 362.268 175.037C363.768 171.049 366.631 158.184 376.455 156.03L376.446 156.026Z" fill="#2E186A"/>
<path d="M383.705 179.776L383.236 183.854L384.65 184.333C384.848 184.731 386.732 190.458 380.438 190.125C376.33 189.909 371.308 185.166 370.769 182.245L371.967 182.219C373.739 182.072 374.903 180.984 375.42 179.284L376.83 174.645L383.705 179.776Z" fill="white" stroke="#2E186A" stroke-linecap="round" stroke-linejoin="round"/>
<path d="M376.748 173.566L376.054 173.626C376.054 173.626 372.027 173.643 372.364 169.94C372.618 167.131 375.364 167.619 376.674 168.016" fill="white"/>
<path d="M376.748 173.566L376.054 173.626C376.054 173.626 372.027 173.643 372.364 169.94C372.618 167.131 375.364 167.619 376.674 168.016" stroke="#2E186A" stroke-width="1.61" stroke-linecap="round" stroke-linejoin="round"/>
<path d="M391.098 170.665C391.378 165.996 390.74 164.321 389.18 163.07C387.387 165.633 381.752 168.119 376.032 167.459C375.834 168.085 375.998 167.523 375.886 168.223C375.821 168.956 375.756 169.785 375.726 170.484C375.799 173.16 376.562 174.938 376.562 174.938C377.61 177.687 379.64 179.94 382.662 180.652C387.938 181.891 390.43 174.55 390.788 172.892C390.964 172.072 391.098 170.665 391.098 170.665Z" fill="white" stroke="#2E186A" stroke-linecap="round" stroke-linejoin="round"/>
<path d="M385.973 174.195L387.516 174.416L387.318 168.171" stroke="#2E186A" stroke-linecap="round" stroke-linejoin="round"/>
<path d="M382.848 167.674C382.848 167.674 383.99 166.565 384.947 167.407" stroke="#2E186A" stroke-linecap="round" stroke-linejoin="round"/>
<path d="M384.904 176.833C384.904 176.833 383.322 177.027 383.072 175.771" stroke="#2E186A" stroke-linecap="round" stroke-linejoin="round"/>
<path d="M389.154 168.374C389.154 168.374 390.616 167.739 391.215 168.866" stroke="#2E186A" stroke-linecap="round" stroke-linejoin="round"/>
<path d="M382.651 170.217C382.727 169.782 382.561 169.39 382.28 169.341C381.998 169.291 381.708 169.603 381.632 170.037C381.556 170.471 381.722 170.864 382.003 170.913C382.284 170.963 382.574 170.651 382.651 170.217Z" fill="#2E186A"/>
<path d="M389.97 171.474C390.046 171.039 389.88 170.647 389.598 170.598C389.317 170.548 389.027 170.86 388.951 171.294C388.874 171.729 389.041 172.121 389.322 172.17C389.603 172.22 389.893 171.908 389.97 171.474Z" fill="#2E186A"/>
<path d="M386.304 169.805C386.708 167.448 385.588 165.29 383.803 164.983C382.017 164.676 380.242 166.337 379.838 168.693C379.434 171.05 380.554 173.208 382.34 173.515C384.125 173.822 385.9 172.161 386.304 169.805Z" stroke="#FE7624" stroke-linecap="round" stroke-linejoin="round"/>
<path d="M394.845 171.585C395.249 169.229 394.129 167.07 392.344 166.763C390.558 166.456 388.783 168.117 388.379 170.474C387.975 172.83 389.095 174.989 390.881 175.296C392.666 175.602 394.441 173.941 394.845 171.585Z" stroke="#FE7624" stroke-linecap="round" stroke-linejoin="round"/>
<path d="M388.374 169.832L386.331 169.552" stroke="#FE7624" stroke-linecap="round" stroke-linejoin="round"/>
<path d="M379.985 167.95L375.545 167.804" stroke="#FE7624" stroke-linecap="round" stroke-linejoin="round"/>
<path d="M264.351 118.051H249.384V132.155H264.351V118.051Z" fill="#000091"/>
<path d="M287.892 118.051H272.925V132.155H287.892V118.051Z" fill="#E1000F"/>
<path d="M273.015 118.051H264.364V132.155H273.015V118.051Z" fill="white"/>
<path d="M251.04 155.495H338.452" stroke="#2E186A" stroke-width="2" stroke-linecap="round" stroke-linejoin="round"/>
<path d="M251.04 173.116H338.452" stroke="#2E186A" stroke-width="2" stroke-linecap="round" stroke-linejoin="round"/>
<path d="M314.743 202.459C314.704 199.179 314.67 195.899 314.834 192.623C314.937 190.552 315.127 188.467 315.739 186.486C315.894 185.986 316.08 185.481 316.433 185.101C316.786 184.721 317.343 184.479 317.838 184.639C318.278 184.777 318.575 185.183 318.812 185.58C319.511 186.762 319.929 188.087 320.291 189.412C321.127 192.464 321.718 195.584 322.05 198.734C322.227 200.426 322.33 202.152 321.942 203.805C321.864 204.142 321.757 204.487 321.511 204.729C321.265 204.971 320.851 205.074 320.576 204.867C320.429 204.759 320.347 204.582 320.278 204.414C319.903 203.473 319.795 202.442 319.761 201.427C319.679 198.998 320.011 196.559 320.731 194.237C321.093 193.072 321.58 191.898 322.472 191.074C322.735 190.828 323.059 190.612 323.421 190.608C324.106 190.608 324.528 191.337 324.778 191.976C325.792 194.574 326.343 197.349 326.404 200.141C326.412 200.577 326.322 201.13 325.899 201.225C325.451 200.746 325.24 200.094 325.093 199.455C324.472 196.758 324.774 193.862 325.929 191.35C326.266 190.621 326.684 189.913 327.287 189.382C327.93 189.585 328.197 190.332 328.378 190.979C328.921 192.938 329.464 194.898 330.003 196.857C331.589 195.139 333.288 193.521 335.081 192.019" stroke="#2E186A" stroke-width="2" stroke-linecap="round" stroke-linejoin="round"/>
<path d="M337.848 189.421L338.314 188.994" stroke="#2E186A" stroke-width="2" stroke-linecap="round" stroke-linejoin="round"/>
<path d="M399.582 62.7354C399.582 62.7354 371.903 85.5097 364.342 91.8582C356.785 98.2067 349.992 112.38 333.438 119.566C313.889 128.05 327.516 159.568 363.73 138.054C389.335 122.841 387.301 121.18 398.483 116.506C402.212 114.948 405.544 114.218 408.747 114.482C421.562 115.535 450.181 113.506 480.037 89.6917" fill="#FFC29E"/>
<path d="M399.582 62.7354C399.582 62.7354 371.903 85.5097 364.342 91.8582C356.785 98.2067 349.992 112.38 333.438 119.566C313.889 128.05 327.516 159.568 363.73 138.054C389.335 122.841 387.301 121.18 398.483 116.506C402.212 114.948 405.544 114.218 408.747 114.482C421.562 115.535 450.181 113.506 480.037 89.6917" stroke="#2E186A" stroke-width="2" stroke-linecap="round" stroke-linejoin="round"/>
<path d="M375.123 292.602H438.686C439.984 292.603 441.229 293.119 442.146 294.037C443.064 294.955 443.579 296.2 443.579 297.498V308.398H370.228V297.498C370.228 296.855 370.355 296.218 370.601 295.624C370.847 295.03 371.207 294.491 371.662 294.036C372.116 293.581 372.656 293.221 373.25 292.975C373.844 292.729 374.48 292.602 375.123 292.602Z" fill="#FF8D7E"/>
<path fill-rule="evenodd" clip-rule="evenodd" d="M306.801 250.183H333.801V253.183H306.801V250.183ZM321.801 235.183H332.301L320.301 247.183L308.301 235.183H318.801V223.183H321.801V235.183Z" fill="#000091"/>
</g>
<defs>
<clipPath id="clip0_2_22337">
<rect width="531" height="310" fill="white" transform="translate(0.5)"/>
</clipPath>
</defs>
</svg>
