<svg xmlns="http://www.w3.org/2000/svg" width="586" height="298" fill="none" viewBox="0 0 586 298"><path fill="#2e186a" d="m543.867 173.029-156.008 1.144a6.47 6.47 0 0 0-5.797 3.697l-50.314 103.171-98.73.096s-2.203 14.456 16.217 15.353l75.098-.24-.219.436 171.788-.6 53.858-113.831a6.46 6.46 0 0 0-.397-6.241 6.47 6.47 0 0 0-5.496-2.985"/><path fill="#fff" fill-rule="evenodd" d="M531.85 172.374a7.11 7.11 0 0 1 6.052 3.287 7.12 7.12 0 0 1 .438 6.873v.001L485.294 294.82a.656.656 0 0 1-1.184-.559l53.046-112.286a5.82 5.82 0 0 0-.357-5.609 5.81 5.81 0 0 0-4.939-2.682.655.655 0 0 1-.01-1.31" clip-rule="evenodd"/><path fill="#fff" d="m348.163 276.152 129.016-.655a11.91 11.91 0 0 0 10.633-6.681l38.847-82.318c1.67-3.377-.921-7.26-4.825-7.229l-127.853.93a5.32 5.32 0 0 0-4.752 2.898l-44.975 86.819a4.32 4.32 0 0 0 .216 4.208 4.33 4.33 0 0 0 3.693 2.028"/><path fill="#ff8d7e" d="M458.554 280.602h63.564a4.9 4.9 0 0 1 4.893 4.896v10.9h-73.352v-10.9a4.9 4.9 0 0 1 4.895-4.896"/><path fill="#2e186a" fill-rule="evenodd" d="M585.5 295.815a.655.655 0 0 1-.652.657L6.158 298a.655.655 0 0 1-.006-1.31l578.691-1.527a.654.654 0 0 1 .657.652" clip-rule="evenodd"/><path fill="#ff8d7e" d="M32.483 237.961a2.5 2.5 0 0 0 .86-2.172c-1.76-15.892-9.007-32.25-20.312-38.253-11.62-6.168-19.54 10.953-3.44 26.862 12.122 11.974 18.595 13.921 21.057 14.152a2.47 2.47 0 0 0 1.835-.589"/><path fill="#2e186a" fill-rule="evenodd" d="M3.14 198.49a.655.655 0 0 1 .926-.005l-.461.466-.46.465a.655.655 0 0 1-.005-.926m.465.461-.46.465.013.014.043.042.17.171q.226.226.655.666a167 167 0 0 1 2.405 2.521 209 209 0 0 1 7.855 8.894c6.09 7.307 13.16 16.857 17.19 25.918a.654.654 0 1 0 1.197-.532c-4.106-9.23-11.27-18.892-17.381-26.225a212 212 0 0 0-7.905-8.95c-1.02-1.09-1.85-1.951-2.424-2.541a112 112 0 0 0-.882-.893l-.015-.015z" clip-rule="evenodd"/><path fill="#2e186a" fill-rule="evenodd" d="M7.233 221.451h.019l.066-.002.27-.002c.238-.001.592.003 1.045.02.907.033 2.213.117 3.798.321 3.172.409 7.45 1.298 11.883 3.213a.654.654 0 1 0 .52-1.202c-4.575-1.976-8.978-2.889-12.236-3.309a44 44 0 0 0-3.917-.332 30 30 0 0 0-1.387-.018l-.077.001-.02.001h-.009l.022.655-.022-.655a.655.655 0 0 0 .045 1.309" clip-rule="evenodd"/><path fill="#2e186a" fill-rule="evenodd" d="M16.633 200.371a.654.654 0 0 1 .892.248l-.57.322-.57.322a.655.655 0 0 1 .248-.892m.322.57-.57.322.006.012.022.038.083.151q.112.2.32.58a134 134 0 0 1 4.538 9.148c1.22 2.725 2.41 5.677 3.248 8.421.844 2.763 1.306 5.239 1.131 7.042a.655.655 0 1 0 1.304.126c.2-2.071-.329-4.754-1.183-7.551-.86-2.815-2.074-5.823-3.305-8.574a136 136 0 0 0-4.994-9.983l-.022-.04-.008-.013zm.429 29.047a.655.655 0 0 0 .049 1.309" clip-rule="evenodd"/><path fill="#ff8d7e" d="M46.843 223.427c.873.593 1.862.696 2.645.27 15.166-8.248 27.957-23.638 28.153-40.256.219-17.081-21.228-20.665-28.965 5.799-5.822 19.914-4.434 28.868-3.391 32.085a4.13 4.13 0 0 0 1.55 2.108z"/><path fill="#2e186a" fill-rule="evenodd" d="M72.329 172.512c.17.319.05.715-.27.886-4.285 2.289-7.925 6.551-10.973 11.74-3.044 5.18-5.463 11.223-7.337 16.994-1.872 5.767-3.194 11.243-4.047 15.278a145 145 0 0 0-.938 4.823 95 95 0 0 0-.28 1.674l-.013.087-.003.022-.002.006-.647-.095-.648-.097.002-.008.003-.024.014-.091.056-.355c.05-.31.126-.764.228-1.346.205-1.163.517-2.833.947-4.867.86-4.065 2.192-9.588 4.083-15.412 1.89-5.82 4.344-11.961 7.453-17.252 3.103-5.283 6.894-9.78 11.486-12.232a.654.654 0 0 1 .886.269m-24.606 52.062a.655.655 0 0 1-.552-.744l.648.097.648.096a.655.655 0 0 1-.744.551" clip-rule="evenodd"/><path fill="#2e186a" fill-rule="evenodd" d="M77.37 185.739a.655.655 0 0 1-.333.865c-1.937.862-6.35 2.885-10.933 5.404-4.605 2.531-9.297 5.519-11.856 8.299a.655.655 0 1 1-.964-.888c2.718-2.952 7.583-6.027 12.189-8.559 4.628-2.544 9.078-4.584 11.032-5.453a.655.655 0 0 1 .864.332m-27.741 2.653c.36.034.625.353.59.713-.273 2.922-.543 6.911-.443 10.56.05 1.825.193 3.548.468 5 .28 1.47.68 2.587 1.198 3.265a.655.655 0 1 1-1.041.794c-.706-.924-1.153-2.285-1.443-3.815-.293-1.547-.44-3.346-.49-5.208-.103-3.726.172-7.776.448-10.718a.654.654 0 0 1 .713-.591m20.784 16.339a.656.656 0 0 1-.102.921c-3.144 2.519-8.17 4.936-12.357 6.709a129 129 0 0 1-7.04 2.737q-.293.104-.449.157l-.117.041-.03.01-.01.004h-.001l-.21-.62.21.62a.655.655 0 0 1-.42-1.24l.095.283-.096-.283v-.001l.01-.003.028-.009.113-.039.44-.154a125 125 0 0 0 6.966-2.709c4.183-1.771 9.06-4.129 12.05-6.525a.655.655 0 0 1 .92.101M58.67 235.033a.655.655 0 0 1-.597.708c-5.029.428-8.4 3.597-10.541 6.745a24.3 24.3 0 0 0-2.823 5.654 15 15 0 0 0-.152.477l-.007.022v.006h-.001l-.63-.177-.63-.176a.655.655 0 0 0 1.26.353m-.63-.177-.63-.177v-.004l.003-.008.009-.031.034-.113a16 16 0 0 1 .134-.415 25.6 25.6 0 0 1 2.98-5.971c2.256-3.316 5.934-6.838 11.513-7.313a.655.655 0 0 1 .707.597" clip-rule="evenodd"/><path fill="#ff8d7e" d="M58.27 234.818c.759-.104 1.117-2.058.8-4.362-.318-2.305-1.19-4.089-1.95-3.984-.76.104-1.118 2.058-.8 4.362.317 2.305 1.19 4.089 1.95 3.984"/><path fill="#ff8d7e" d="M62.076 233.362c1.658-1.348 2.643-2.884 2.199-3.43s-2.149.104-3.807 1.452-2.642 2.884-2.198 3.43 2.148-.104 3.806-1.452"/><path fill="#ff8d7e" d="M58.269 234.722c.352-.681-1.038-2.099-3.105-3.166-2.067-1.068-4.028-1.382-4.38-.701-.351.682 1.039 2.099 3.106 3.167 2.066 1.068 4.027 1.381 4.379.7m6.806 3.771c.334-.619-.919-1.945-2.799-2.961s-3.676-1.337-4.01-.718c-.335.62.918 1.945 2.799 2.961s3.675 1.337 4.01.718"/><path fill="#ff8d7e" d="M57.963 238.565c.898-1.945 1.106-3.762.466-4.057s-1.888 1.041-2.785 2.986-1.106 3.761-.466 4.057c.64.295 1.888-1.042 2.785-2.986"/><path fill="#2e186a" fill-rule="evenodd" d="M22.91 185.043a.655.655 0 0 1 .92-.108l-.406.514c.406-.514.407-.513.407-.513l.002.001.004.004.016.013.058.047q.076.061.214.181c.185.159.45.396.784.712a37 37 0 0 1 2.68 2.853c2.165 2.548 4.928 6.402 7.344 11.647 4.838 10.5 8.266 26.531 2.778 48.727a.654.654 0 1 1-1.271-.315c5.416-21.906 2.018-37.632-2.696-47.864-2.36-5.121-5.053-8.876-7.152-11.347a36 36 0 0 0-2.585-2.751 22 22 0 0 0-.93-.833l-.046-.038-.01-.009-.003-.001v-.001a.654.654 0 0 1-.107-.919" clip-rule="evenodd"/><path fill="#ff8d7e" d="M25.346 186.788c1.306-.763 1.102-3.544-.455-6.212s-3.88-4.213-5.186-3.45-1.102 3.544.455 6.212 3.88 4.212 5.186 3.45"/><path fill="#ff8d7e" d="M25.692 186.758c.03-1.512-2.45-2.788-5.538-2.849s-5.617 1.114-5.647 2.627 2.449 2.788 5.538 2.85c3.088.061 5.616-1.115 5.647-2.628"/><path fill="#ff8d7e" d="M30.674 184.373c1.666-2.199 2.144-4.644 1.067-5.46s-3.301.306-4.967 2.505-2.144 4.644-1.067 5.46 3.3-.306 4.967-2.505"/><path fill="#ff8d7e" d="M27.997 194.791c1.23-.559 1.302-3.049.16-5.561s-3.065-4.094-4.295-3.535-1.301 3.049-.16 5.561 3.065 4.094 4.295 3.535"/><path fill="#ff8d7e" d="M32.34 187.23c.13-1.213-1.774-2.409-4.25-2.671s-4.589.509-4.717 1.722 1.775 2.409 4.252 2.671 4.587-.509 4.716-1.722"/><path fill="#fff" d="m14.336 251.194 10.257 45.921h32.584l10.255-45.921c.585-2.619-1.071-5.201-3.345-5.201H17.684c-2.276.009-3.933 2.582-3.348 5.201"/><path fill="#2e186a" fill-rule="evenodd" d="M17.684 245.338h46.403c1.404 0 2.576.799 3.296 1.919s1.02 2.599.689 4.08l-.64-.143.64.143-10.255 45.92a.655.655 0 0 1-.64.513H24.595a.655.655 0 0 1-.639-.513l-10.257-45.92c-.331-1.481-.031-2.958.689-4.077s1.892-1.916 3.295-1.922zm.002 1.31c-.874.004-1.668.497-2.198 1.321-.53.825-.767 1.944-.512 3.083l10.143 45.408h31.534l10.14-45.408c.255-1.139.02-2.261-.512-3.086-.53-.826-1.323-1.318-2.194-1.318z" clip-rule="evenodd"/><g filter="url(#a)"><rect width="375.999" height="222.48" x="77.559" y="13.786" fill="#fff" rx="8"/><rect width="374.999" height="221.48" x="78.059" y="14.286" stroke="#e6e6e6" rx="7.5"/></g><rect width="160" height="20" x="96.67" y="31" fill="#e6eefe" rx="4"/><path fill="#3558a2" d="M103.67 37a1 1 0 1 1-2 0 1 1 0 0 1 2 0m-1.5 6v3h-1v-6a1.5 1.5 0 0 1 2.553-1.068l1.187 1.121 1.156-1.156.708.707-1.844 1.843-.76-.717V46h-1v-3zm2.5-5.5h4.5V42h-4.5v1h2.183l1.411 3h1.106l-1.412-3h1.712a.5.5 0 0 0 .5-.5V37a.5.5 0 0 0-.5-.5h-5zm12.236 8.5v-8.4h4.896v1.416h-3.192v1.992h2.712v1.416h-2.712v2.16h3.192V46zm6.996 0v-8.4h2.124l2.052 3.528 2.052-3.528h2.124V46h-1.704v-6.024l-1.872 3.144h-1.2l-1.872-3.144V46zm10.816 0v-8.4h2.772c1.848 0 2.976.948 2.976 2.508 0 1.548-1.128 2.496-2.976 2.496h-1.068V46zm2.844-6.984h-1.14v2.172h1.14c.72 0 1.152-.42 1.152-1.104 0-.636-.432-1.068-1.152-1.068M141.996 46v-8.4h1.704v6.852h3.192V46zm9.955-8.64c2.64 0 4.452 2.04 4.452 4.44s-1.812 4.44-4.452 4.44c-2.652 0-4.464-2.04-4.464-4.44s1.812-4.44 4.464-4.44m0 7.284c1.572 0 2.7-1.236 2.7-2.844s-1.128-2.844-2.7-2.844c-1.584 0-2.712 1.236-2.712 2.844s1.128 2.844 2.712 2.844M158.156 46v-8.4h1.704V46zm12.782-2.376h-2.364V46h-1.296v-2.376h-2.376v-1.296h2.376v-2.376h1.296v2.376h2.364zM175.992 46v-8.4h4.896v1.416h-3.192v1.992h2.712v1.416h-2.712V46zm10.236-8.64c2.64 0 4.452 2.04 4.452 4.44s-1.812 4.44-4.452 4.44c-2.652 0-4.464-2.04-4.464-4.44s1.812-4.44 4.464-4.44m0 7.284c1.572 0 2.7-1.236 2.7-2.844s-1.128-2.844-2.7-2.844c-1.584 0-2.712 1.236-2.712 2.844s1.128 2.844 2.712 2.844M192.433 46v-8.4h2.568c1.848 0 2.988.948 2.988 2.508 0 1.02-.492 1.776-1.356 2.172l2.628 3.72h-2.004l-2.244-3.396h-.876V46zm2.664-6.984h-.96v2.172h.96c.72 0 1.14-.42 1.14-1.104 0-.636-.42-1.068-1.14-1.068M200.461 46v-8.4h2.124l2.052 3.528 2.052-3.528h2.124V46h-1.704v-6.024l-1.872 3.144h-1.2l-1.872-3.144V46zm9.76 0 3.18-8.4h2.232l3.18 8.4h-1.812l-.804-2.184h-3.36L212.033 46zm3.144-3.636h2.304l-1.152-3.156zm5.157-3.216V37.6h6.888v1.548h-2.592V46h-1.704v-6.852zM227.027 46v-8.4h1.704V46zm7.916-8.64c2.64 0 4.452 2.04 4.452 4.44s-1.812 4.44-4.452 4.44c-2.652 0-4.464-2.04-4.464-4.44s1.812-4.44 4.464-4.44m0 7.284c1.572 0 2.7-1.236 2.7-2.844s-1.128-2.844-2.7-2.844c-1.584 0-2.712 1.236-2.712 2.844s1.128 2.844 2.712 2.844M241.148 46v-8.4h2.184l3.756 6.072V37.6h1.704V46h-2.184l-3.756-6.072V46z"/><path fill="#666" d="M97.906 74v-8.4h1.704v6.852h3.192V74zm11.795-.984c-.564.756-1.5 1.224-2.64 1.224-2.148 0-3.36-1.5-3.36-3.264 0-1.788 1.128-3.264 3.108-3.264 1.68 0 2.784 1.14 2.784 2.724 0 .336-.048.648-.096.852h-4.236c.144 1.128.84 1.584 1.788 1.584.66 0 1.236-.288 1.56-.72zm-2.928-4.056c-.78 0-1.296.432-1.464 1.224h2.784c-.024-.612-.468-1.224-1.32-1.224m10.447 3.84c.6 0 1.08-.276 1.368-.696l1.188.912c-.564.744-1.452 1.224-2.556 1.224-2.088 0-3.336-1.5-3.336-3.264s1.248-3.264 3.336-3.264c1.104 0 1.992.48 2.556 1.224l-1.188.912c-.288-.42-.768-.696-1.392-.696-.996 0-1.728.768-1.728 1.824 0 1.068.732 1.824 1.752 1.824m9.028.216c-.564.756-1.5 1.224-2.64 1.224-2.148 0-3.36-1.5-3.36-3.264 0-1.788 1.128-3.264 3.108-3.264 1.68 0 2.784 1.14 2.784 2.724 0 .336-.048.648-.096.852h-4.236c.144 1.128.84 1.584 1.788 1.584.66 0 1.236-.288 1.56-.72zm-2.928-4.056c-.78 0-1.296.432-1.464 1.224h2.784c-.024-.612-.468-1.224-1.32-1.224m4.309 5.04v-6.048h1.524v.48c.42-.408.984-.72 1.788-.72 1.308 0 2.352.9 2.352 2.688V74h-1.536v-3.54c0-.804-.456-1.308-1.2-1.308-.768 0-1.176.516-1.404.9V74zm7.778-2.208V69.32h-1.128v-1.368h1.128V66.44h1.536v1.512h1.848v1.368h-1.848v2.472c0 .672.36.936.96.936.42 0 .696-.048.9-.132v1.332c-.3.132-.66.192-1.164.192-1.512 0-2.232-.852-2.232-2.328M140.156 74v-6.048h1.524v.6c.396-.408.912-.72 1.596-.72.204 0 .384.036.528.084v1.5a2.6 2.6 0 0 0-.672-.084c-.744 0-1.224.408-1.452.792V74zm10.185-.984c-.564.756-1.5 1.224-2.64 1.224-2.148 0-3.36-1.5-3.36-3.264 0-1.788 1.128-3.264 3.108-3.264 1.68 0 2.784 1.14 2.784 2.724 0 .336-.048.648-.096.852h-4.236c.144 1.128.84 1.584 1.788 1.584.66 0 1.236-.288 1.56-.72zm-2.928-4.056c-.78 0-1.296.432-1.464 1.224h2.784c-.024-.612-.468-1.224-1.32-1.224m7.112 2.016c0-1.764 1.164-3.264 3.072-3.264.816 0 1.404.252 1.872.72V65h1.536v9h-1.536v-.48c-.468.468-1.056.72-1.872.72-1.908 0-3.072-1.5-3.072-3.264m1.596 0c0 1.056.66 1.824 1.692 1.824.684 0 1.248-.288 1.656-.84v-1.968c-.408-.552-.972-.84-1.656-.84-1.032 0-1.692.768-1.692 1.824m12.279 2.04c-.564.756-1.5 1.224-2.64 1.224-2.148 0-3.36-1.5-3.36-3.264 0-1.788 1.128-3.264 3.108-3.264 1.68 0 2.784 1.14 2.784 2.724 0 .336-.048.648-.096.852h-4.236c.144 1.128.84 1.584 1.788 1.584.66 0 1.236-.288 1.56-.72zm-2.928-4.056c-.78 0-1.296.432-1.464 1.224h2.784c-.024-.612-.468-1.224-1.32-1.224m6.8-1.008h1.128v-.636c0-1.284.852-2.316 2.364-2.316.552 0 1.02.132 1.404.336l-.648 1.272c-.18-.132-.42-.24-.732-.24-.516 0-.852.36-.852.912v.672h1.848v1.368h-1.848V74H173.4v-4.68h-1.128zm8.206-.24c1.968 0 3.312 1.452 3.312 3.264s-1.344 3.264-3.312 3.264-3.312-1.452-3.312-3.264 1.344-3.264 3.312-3.264m.024 5.088c.972 0 1.704-.78 1.704-1.824 0-1.056-.732-1.824-1.704-1.824-1.008 0-1.752.768-1.752 1.824s.744 1.824 1.752 1.824m4.678 1.2v-6.048h1.524v.6c.396-.408.912-.72 1.596-.72.204 0 .384.036.528.084v1.5a2.6 2.6 0 0 0-.672-.084c-.744 0-1.224.408-1.452.792V74zm4.875 0v-6.048h1.524v.456c.408-.396.924-.696 1.668-.696.768 0 1.44.336 1.836.984.432-.528 1.008-.984 2.028-.984 1.248 0 2.232.864 2.232 2.568V74h-1.536v-3.66c0-.732-.396-1.188-1.08-1.188-.66 0-1.02.456-1.26.864.012.084.012.168.012.264V74h-1.536v-3.66c0-.732-.396-1.188-1.08-1.188-.696 0-1.056.516-1.284.9V74zm12.731.18c-1.212 0-2.04-.696-2.04-1.812 0-.912.708-1.596 2.004-1.812l1.848-.312v-.156c0-.636-.48-1.044-1.176-1.044-.588 0-1.044.276-1.368.72l-1.116-.852c.54-.744 1.428-1.2 2.532-1.2 1.752 0 2.652 1.044 2.652 2.376V74h-1.524v-.588c-.384.468-1.104.768-1.812.768m-.528-1.884c0 .408.324.672.84.672.696 0 1.2-.324 1.5-.804v-.852l-1.44.24c-.636.108-.9.372-.9.744m5.993-.504V69.32h-1.128v-1.368h1.128V66.44h1.536v1.512h1.848v1.368h-1.848v2.472c0 .672.36.936.96.936.42 0 .696-.048.9-.132v1.332c-.3.132-.66.192-1.164.192-1.512 0-2.232-.852-2.232-2.328m5.517-4.896a1.01 1.01 0 0 1-.996-.996c0-.54.456-.996.996-.996s.984.456.984.996-.444.996-.984.996M213 74v-6.048h1.524V74zm6.231-6.288c1.968 0 3.312 1.452 3.312 3.264s-1.344 3.264-3.312 3.264-3.312-1.452-3.312-3.264 1.344-3.264 3.312-3.264m.024 5.088c.972 0 1.704-.78 1.704-1.824 0-1.056-.732-1.824-1.704-1.824-1.008 0-1.752.768-1.752 1.824s.744 1.824 1.752 1.824m4.678 1.2v-6.048h1.524v.48c.42-.408.984-.72 1.788-.72 1.308 0 2.352.9 2.352 2.688V74h-1.536v-3.54c0-.804-.456-1.308-1.2-1.308-.768 0-1.176.516-1.404.9V74zm10.797 2.952v-9h1.02v.72c.54-.612 1.248-.96 2.148-.96 1.896 0 3.108 1.5 3.108 3.264s-1.212 3.264-3.108 3.264c-.9 0-1.608-.348-2.148-.96v3.672zm3.048-8.28c-.84 0-1.572.408-2.028 1.128v2.352c.468.732 1.2 1.128 2.028 1.128 1.284 0 2.16-1.02 2.16-2.304s-.876-2.304-2.16-2.304M242.652 74v-6.048h1.02v.756c.444-.528.996-.876 1.764-.876.192 0 .372.024.516.072v.996a2.2 2.2 0 0 0-.6-.072c-.792 0-1.308.408-1.68 1.02V74zm7.167-6.288c1.944 0 3.276 1.5 3.276 3.264s-1.332 3.264-3.276 3.264c-1.956 0-3.276-1.5-3.276-3.264s1.32-3.264 3.276-3.264m.012 5.568c1.26 0 2.184-1.056 2.184-2.304 0-1.26-.924-2.304-2.184-2.304-1.296 0-2.22 1.044-2.22 2.304s.924 2.304 2.22 2.304m4.903 3.672v-9h1.02v.72c.54-.612 1.248-.96 2.148-.96 1.896 0 3.108 1.5 3.108 3.264s-1.212 3.264-3.108 3.264c-.9 0-1.608-.348-2.148-.96v3.672zm3.048-8.28c-.84 0-1.572.408-2.028 1.128v2.352c.468.732 1.2 1.128 2.028 1.128 1.284 0 2.16-1.02 2.16-2.304s-.876-2.304-2.16-2.304m7.693-.96c1.944 0 3.276 1.5 3.276 3.264s-1.332 3.264-3.276 3.264c-1.956 0-3.276-1.5-3.276-3.264s1.32-3.264 3.276-3.264m.012 5.568c1.26 0 2.184-1.056 2.184-2.304 0-1.26-.924-2.304-2.184-2.304-1.296 0-2.22 1.044-2.22 2.304s.924 2.304 2.22 2.304m4.091-.108.72-.612c.42.528.924.828 1.536.828.672 0 1.056-.408 1.056-.936 0-1.356-3.024-.876-3.024-3.012 0-.948.804-1.728 1.968-1.728.864 0 1.608.408 2.028.996l-.708.6c-.324-.456-.78-.744-1.308-.744-.648 0-.996.384-.996.852 0 1.356 3.036.924 3.036 2.988-.012 1.128-.912 1.836-2.04 1.836-.96 0-1.716-.384-2.268-1.068m11.274-.168c-.564.756-1.464 1.236-2.592 1.236-2.04 0-3.3-1.5-3.3-3.264 0-1.836 1.176-3.264 3.048-3.264 1.644 0 2.712 1.152 2.712 2.64 0 .24-.036.468-.072.636h-4.644c.036 1.452.96 2.328 2.256 2.328.78 0 1.44-.36 1.836-.9zm-2.868-4.428c-.996 0-1.692.588-1.908 1.632h3.624c-.036-.888-.648-1.632-1.716-1.632m9.344 5.592c-1.188 0-1.992-.66-1.992-1.692 0-.912.696-1.56 1.98-1.776l2.04-.336v-.42c0-.84-.6-1.32-1.464-1.32-.696 0-1.26.324-1.632.84l-.768-.588c.528-.72 1.38-1.164 2.436-1.164 1.536 0 2.448.9 2.448 2.232V74h-1.02v-.768c-.456.588-1.248.936-2.028.936m-.96-1.728c0 .516.42.888 1.128.888.804 0 1.464-.384 1.86-1.032v-1.188l-1.788.3c-.828.144-1.2.516-1.2 1.032m8.838.84c.744 0 1.356-.36 1.728-.888l.804.612c-.564.756-1.44 1.236-2.544 1.236-2.004 0-3.288-1.5-3.288-3.264s1.284-3.264 3.288-3.264c1.092 0 1.98.492 2.544 1.236l-.804.612a2.09 2.09 0 0 0-1.74-.888c-1.296 0-2.22 1.02-2.22 2.304 0 1.296.924 2.304 2.232 2.304m4.255-1.308v-3.096h-1.14v-.924h1.14V66.44h1.032v1.512h2.1v.924h-2.1v3.096c0 .948.48 1.212 1.212 1.212.396 0 .672-.048.9-.144v.912c-.288.12-.612.168-1.044.168-1.344 0-2.1-.672-2.1-2.148m8.868-.564v-3.456h1.02v3.42c0 1.812-1.044 2.868-2.688 2.868-1.632 0-2.676-1.056-2.676-2.868v-3.42h1.02v3.456c0 1.188.636 1.872 1.668 1.872 1.008 0 1.656-.684 1.656-1.872m8.406 1.596c-.564.756-1.464 1.236-2.592 1.236-2.04 0-3.3-1.5-3.3-3.264 0-1.836 1.176-3.264 3.048-3.264 1.644 0 2.712 1.152 2.712 2.64 0 .24-.036.468-.072.636h-4.644c.036 1.452.96 2.328 2.256 2.328.78 0 1.44-.36 1.836-.9zm-2.868-4.428c-.996 0-1.692.588-1.908 1.632h3.624c-.036-.888-.648-1.632-1.716-1.632M318.332 74v-9h1.02v9zm3.176 0v-9h1.02v9zm8.552-.996c-.564.756-1.464 1.236-2.592 1.236-2.04 0-3.3-1.5-3.3-3.264 0-1.836 1.176-3.264 3.048-3.264 1.644 0 2.712 1.152 2.712 2.64 0 .24-.036.468-.072.636h-4.644c.036 1.452.96 2.328 2.256 2.328.78 0 1.44-.36 1.836-.9zm-2.868-4.428c-.996 0-1.692.588-1.908 1.632h3.624c-.036-.888-.648-1.632-1.716-1.632M331.656 74v-6.048h1.02v.66c.456-.528 1.056-.9 1.896-.9.876 0 1.596.396 1.968 1.164.48-.66 1.116-1.164 2.16-1.164 1.296 0 2.244.864 2.244 2.508V74h-1.02v-3.744c0-1.008-.564-1.584-1.428-1.584-.768 0-1.308.432-1.704 1.14.012.132.024.264.024.408V74h-1.02v-3.744c0-1.008-.552-1.584-1.428-1.584-.828 0-1.344.516-1.692 1.14V74zm16.72-.996c-.564.756-1.464 1.236-2.592 1.236-2.04 0-3.3-1.5-3.3-3.264 0-1.836 1.176-3.264 3.048-3.264 1.644 0 2.712 1.152 2.712 2.64 0 .24-.036.468-.072.636h-4.644c.036 1.452.96 2.328 2.256 2.328.78 0 1.44-.36 1.836-.9zm-2.868-4.428c-.996 0-1.692.588-1.908 1.632h3.624c-.036-.888-.648-1.632-1.716-1.632M349.973 74v-6.048h1.02v.684c.492-.54 1.116-.924 2.016-.924 1.356 0 2.364.912 2.364 2.628V74h-1.02v-3.624c0-1.08-.612-1.704-1.548-1.704-.876 0-1.428.504-1.812 1.14V74zm7.801-2.028v-3.096h-1.14v-.924h1.14V66.44h1.032v1.512h2.1v.924h-2.1v3.096c0 .948.48 1.212 1.212 1.212.396 0 .672-.048.9-.144v.912c-.288.12-.612.168-1.044.168-1.344 0-2.1-.672-2.1-2.148m10.709 1.308c.744 0 1.356-.36 1.728-.888l.804.612c-.564.756-1.44 1.236-2.544 1.236-2.004 0-3.288-1.5-3.288-3.264s1.284-3.264 3.288-3.264c1.092 0 1.98.492 2.544 1.236l-.804.612a2.09 2.09 0 0 0-1.74-.888c-1.296 0-2.22 1.02-2.22 2.304 0 1.296.924 2.304 2.232 2.304m9.073-.276c-.564.756-1.464 1.236-2.592 1.236-2.04 0-3.3-1.5-3.3-3.264 0-1.836 1.176-3.264 3.048-3.264 1.644 0 2.712 1.152 2.712 2.64 0 .24-.036.468-.072.636h-4.644c.036 1.452.96 2.328 2.256 2.328.78 0 1.44-.36 1.836-.9zm-2.868-4.428c-.996 0-1.692.588-1.908 1.632h3.624c-.036-.888-.648-1.632-1.716-1.632m4.777 3.396v-3.096h-1.14v-.924h1.14V66.44h1.032v1.512h2.1v.924h-2.1v3.096c0 .948.48 1.212 1.212 1.212.396 0 .672-.048.9-.144v.912c-.288.12-.612.168-1.044.168-1.344 0-2.1-.672-2.1-2.148m5.086 0v-3.096h-1.14v-.924h1.14V66.44h1.032v1.512h2.1v.924h-2.1v3.096c0 .948.48 1.212 1.212 1.212.396 0 .672-.048.9-.144v.912c-.288.12-.612.168-1.044.168-1.344 0-2.1-.672-2.1-2.148m9.95 1.032c-.564.756-1.464 1.236-2.592 1.236-2.04 0-3.3-1.5-3.3-3.264 0-1.836 1.176-3.264 3.048-3.264 1.644 0 2.712 1.152 2.712 2.64 0 .24-.036.468-.072.636h-4.644c.036 1.452.96 2.328 2.256 2.328.78 0 1.44-.36 1.836-.9zm-2.868-4.428c-.996 0-1.692.588-1.908 1.632h3.624c-.036-.888-.648-1.632-1.716-1.632m10.459-.864c1.944 0 3.276 1.5 3.276 3.264s-1.332 3.264-3.276 3.264c-1.956 0-3.276-1.5-3.276-3.264s1.32-3.264 3.276-3.264m.012 5.568c1.26 0 2.184-1.056 2.184-2.304 0-1.26-.924-2.304-2.184-2.304-1.296 0-2.22 1.044-2.22 2.304s.924 2.304 2.22 2.304m4.018-5.328h1.14v-.744c0-1.284.828-2.208 2.148-2.208.552 0 .996.156 1.332.348l-.456.852a1.4 1.4 0 0 0-.852-.276c-.684 0-1.14.468-1.14 1.26v.768h2.1v.924h-2.1V74h-1.032v-5.124h-1.14zm4.887 0h1.14v-.744c0-1.284.828-2.208 2.148-2.208.552 0 .996.156 1.332.348l-.456.852a1.4 1.4 0 0 0-.852-.276c-.684 0-1.14.468-1.14 1.26v.768h2.1v.924h-2.1V74h-1.032v-5.124h-1.14zM416.266 74v-6.048h1.02v.756c.444-.528.996-.876 1.764-.876.192 0 .372.024.516.072v.996a2.2 2.2 0 0 0-.6-.072c-.792 0-1.308.408-1.68 1.02V74zm9.782-.996c-.564.756-1.464 1.236-2.592 1.236-2.04 0-3.3-1.5-3.3-3.264 0-1.836 1.176-3.264 3.048-3.264 1.644 0 2.712 1.152 2.712 2.64 0 .24-.036.468-.072.636H421.2c.036 1.452.96 2.328 2.256 2.328.78 0 1.44-.36 1.836-.9zm-2.868-4.428c-.996 0-1.692.588-1.908 1.632h3.624c-.036-.888-.648-1.632-1.716-1.632"/><path fill="#417dc4" d="m96.91 104 4.24-11.2h2.976l4.24 11.2h-2.416l-1.072-2.912h-4.48L99.326 104zm4.192-4.848h3.072l-1.536-4.208zm8.017 3.68 1.344-1.216c.496.624 1.088 1.072 1.856 1.072.656 0 .992-.384.992-.864 0-1.408-3.856-.88-3.856-3.712 0-1.424 1.2-2.496 2.88-2.496 1.232 0 2.352.592 2.928 1.376l-1.344 1.184c-.416-.512-.944-.928-1.568-.928-.64 0-.944.352-.944.768 0 1.376 3.856.896 3.856 3.68-.032 1.696-1.392 2.624-2.912 2.624-1.44 0-2.464-.576-3.232-1.488m7.204 0 1.344-1.216c.496.624 1.088 1.072 1.856 1.072.656 0 .992-.384.992-.864 0-1.408-3.856-.88-3.856-3.712 0-1.424 1.2-2.496 2.88-2.496 1.232 0 2.352.592 2.928 1.376l-1.344 1.184c-.416-.512-.944-.928-1.568-.928-.64 0-.944.352-.944.768 0 1.376 3.856.896 3.856 3.68-.032 1.696-1.392 2.624-2.912 2.624-1.44 0-2.464-.576-3.232-1.488m9.04-8.304c-.72 0-1.328-.608-1.328-1.328s.608-1.328 1.328-1.328 1.312.608 1.312 1.328-.592 1.328-1.312 1.328M124.339 104v-8.064h2.032V104zm3.655-1.168 1.344-1.216c.496.624 1.088 1.072 1.856 1.072.656 0 .992-.384.992-.864 0-1.408-3.856-.88-3.856-3.712 0-1.424 1.2-2.496 2.88-2.496 1.232 0 2.352.592 2.928 1.376l-1.344 1.184c-.416-.512-.944-.928-1.568-.928-.64 0-.944.352-.944.768 0 1.376 3.856.896 3.856 3.68-.032 1.696-1.392 2.624-2.912 2.624-1.44 0-2.464-.576-3.232-1.488m8.654-1.776V97.76h-1.504v-1.824h1.504V93.92h2.048v2.016h2.464v1.824h-2.464v3.296c0 .896.48 1.248 1.28 1.248.56 0 .928-.064 1.2-.176v1.776c-.4.176-.88.256-1.552.256-2.016 0-2.976-1.136-2.976-3.104m8.604 3.184c-1.616 0-2.72-.928-2.72-2.416 0-1.216.944-2.128 2.672-2.416l2.464-.416v-.208c0-.848-.64-1.392-1.568-1.392-.784 0-1.392.368-1.824.96l-1.488-1.136c.72-.992 1.904-1.6 3.376-1.6 2.336 0 3.536 1.392 3.536 3.168V104h-2.032v-.784c-.512.624-1.472 1.024-2.416 1.024m-.704-2.512c0 .544.432.896 1.12.896.928 0 1.6-.432 2-1.072v-1.136l-1.92.32c-.848.144-1.2.496-1.2.992m7.479 2.272v-8.064h2.032v.64c.56-.544 1.312-.96 2.384-.96 1.744 0 3.136 1.2 3.136 3.584v4.8h-2.048v-4.72c0-1.072-.608-1.744-1.6-1.744-1.024 0-1.568.688-1.872 1.2V104zm10.371-2.944V97.76h-1.504v-1.824h1.504V93.92h2.048v2.016h2.464v1.824h-2.464v3.296c0 .896.48 1.248 1.28 1.248.56 0 .928-.064 1.2-.176v1.776c-.4.176-.88.256-1.552.256-2.016 0-2.976-1.136-2.976-3.104m7.948-1.472c0 2.624.88 4.672 2.624 6.416l-1.44 1.2c-2-1.808-3.2-4.4-3.2-7.616 0-3.248 1.312-5.84 3.2-7.584l1.44 1.2c-1.68 1.664-2.624 3.776-2.624 6.384m10.745 3.104c-.752 1.008-2 1.632-3.52 1.632-2.864 0-4.48-2-4.48-4.352 0-2.384 1.504-4.352 4.144-4.352 2.24 0 3.712 1.52 3.712 3.632 0 .448-.064.864-.128 1.136h-5.648c.192 1.504 1.12 2.112 2.384 2.112.88 0 1.648-.384 2.08-.96zm-3.904-5.408c-1.04 0-1.728.576-1.952 1.632h3.712c-.032-.816-.624-1.632-1.76-1.632m6.709 2.336c0-2.624-.88-4.688-2.64-6.416l1.44-1.2c1.984 1.792 3.2 4.384 3.2 7.616 0 3.248-1.296 5.824-3.2 7.584l-1.44-1.2c1.712-1.664 2.64-3.776 2.64-6.384m7.789.352c0-2.352 1.552-4.352 4.096-4.352 1.088 0 1.872.336 2.496.96V92h2.048v12h-2.048v-.64c-.624.624-1.408.96-2.496.96-2.544 0-4.096-2-4.096-4.352m2.128 0c0 1.408.88 2.432 2.256 2.432.912 0 1.664-.384 2.208-1.12v-2.624c-.544-.736-1.296-1.12-2.208-1.12-1.376 0-2.256 1.024-2.256 2.432m16.372 2.72c-.752 1.008-2 1.632-3.52 1.632-2.864 0-4.48-2-4.48-4.352 0-2.384 1.504-4.352 4.144-4.352 2.24 0 3.712 1.52 3.712 3.632 0 .448-.064.864-.128 1.136h-5.648c.192 1.504 1.12 2.112 2.384 2.112.88 0 1.648-.384 2.08-.96zm-3.904-5.408c-1.04 0-1.728.576-1.952 1.632h3.712c-.032-.816-.624-1.632-1.76-1.632m9.258 8.128c0-.8.4-1.44 1.12-1.968a1.68 1.68 0 0 1-.496-1.168c0-.64.272-1.152.88-1.6-.704-.528-1.088-1.328-1.088-2.224 0-1.568 1.216-2.832 3.232-2.832.624 0 1.168.112 1.632.32h2.944v1.728h-1.424c.08.256.112.512.112.784 0 1.584-1.184 2.864-3.264 2.864-.272 0-.528-.016-.768-.064-.176.16-.272.336-.272.512 0 .32.176.48.544.48h2.032c2.032 0 3.136 1.088 3.136 2.592 0 1.792-1.712 3.168-4.224 3.168-2.576 0-4.096-.896-4.096-2.592m3.68-5.632c.848 0 1.392-.528 1.392-1.328s-.544-1.312-1.392-1.312c-.88 0-1.408.528-1.408 1.312 0 .8.528 1.328 1.408 1.328m-1.76 5.344c0 .768.736 1.248 2.16 1.248 1.472 0 2.224-.544 2.224-1.344 0-.608-.368-1.04-1.344-1.04h-2.496c-.304.288-.544.64-.544 1.136m14.835-2.432c-.752 1.008-2 1.632-3.52 1.632-2.864 0-4.48-2-4.48-4.352 0-2.384 1.504-4.352 4.144-4.352 2.24 0 3.712 1.52 3.712 3.632 0 .448-.064.864-.128 1.136h-5.648c.192 1.504 1.12 2.112 2.384 2.112.88 0 1.648-.384 2.08-.96zm-3.904-5.408c-1.04 0-1.728.576-1.952 1.632h3.712c-.032-.816-.624-1.632-1.76-1.632m4.933 5.552 1.344-1.216c.496.624 1.088 1.072 1.856 1.072.656 0 .992-.384.992-.864 0-1.408-3.856-.88-3.856-3.712 0-1.424 1.2-2.496 2.88-2.496 1.232 0 2.352.592 2.928 1.376l-1.344 1.184c-.416-.512-.944-.928-1.568-.928-.64 0-.944.352-.944.768 0 1.376 3.856.896 3.856 3.68-.032 1.696-1.392 2.624-2.912 2.624-1.44 0-2.464-.576-3.232-1.488m8.653-1.776V97.76h-1.504v-1.824h1.504V93.92h2.048v2.016h2.464v1.824h-2.464v3.296c0 .896.48 1.248 1.28 1.248.56 0 .928-.064 1.2-.176v1.776c-.4.176-.88.256-1.552.256-2.016 0-2.976-1.136-2.976-3.104m7.356-6.528c-.72 0-1.328-.608-1.328-1.328s.608-1.328 1.328-1.328 1.312.608 1.312 1.328-.592 1.328-1.312 1.328M248.308 104v-8.064h2.032V104zm8.309-8.384c2.624 0 4.416 1.936 4.416 4.352s-1.792 4.352-4.416 4.352-4.416-1.936-4.416-4.352 1.792-4.352 4.416-4.352m.032 6.784c1.296 0 2.272-1.04 2.272-2.432 0-1.408-.976-2.432-2.272-2.432-1.344 0-2.336 1.024-2.336 2.432s.992 2.432 2.336 2.432m6.237 1.6v-8.064h2.032v.64c.56-.544 1.312-.96 2.384-.96 1.744 0 3.136 1.2 3.136 3.584v4.8h-2.048v-4.72c0-1.072-.608-1.744-1.6-1.744-1.024 0-1.568.688-1.872 1.2V104zm16.444.24c-1.616 0-2.72-.928-2.72-2.416 0-1.216.944-2.128 2.672-2.416l2.464-.416v-.208c0-.848-.64-1.392-1.568-1.392-.784 0-1.392.368-1.824.96l-1.488-1.136c.72-.992 1.904-1.6 3.376-1.6 2.336 0 3.536 1.392 3.536 3.168V104h-2.032v-.784c-.512.624-1.472 1.024-2.416 1.024m-.704-2.512c0 .544.432.896 1.12.896.928 0 1.6-.432 2-1.072v-1.136l-1.92.32c-.848.144-1.2.496-1.2.992m6.903-1.76c0-2.352 1.552-4.352 4.096-4.352 1.088 0 1.872.336 2.496.96V92h2.048v12h-2.048v-.64c-.624.624-1.408.96-2.496.96-2.544 0-4.096-2-4.096-4.352m2.128 0c0 1.408.88 2.432 2.256 2.432.912 0 1.664-.384 2.208-1.12v-2.624c-.544-.736-1.296-1.12-2.208-1.12-1.376 0-2.256 1.024-2.256 2.432m8.948 4.032v-8.064h2.032v.608c.544-.528 1.232-.928 2.224-.928 1.024 0 1.92.448 2.448 1.312.576-.704 1.344-1.312 2.704-1.312 1.664 0 2.976 1.152 2.976 3.424V104h-2.048v-4.88c0-.976-.528-1.584-1.44-1.584-.88 0-1.36.608-1.68 1.152.016.112.016.224.016.352V104h-2.048v-4.88c0-.976-.528-1.584-1.44-1.584-.928 0-1.408.688-1.712 1.2V104zm15.727-9.472c-.72 0-1.328-.608-1.328-1.328s.608-1.328 1.328-1.328 1.312.608 1.312 1.328-.592 1.328-1.312 1.328M311.308 104v-8.064h2.032V104zm4.469 0v-8.064h2.032v.64c.56-.544 1.312-.96 2.384-.96 1.744 0 3.136 1.2 3.136 3.584v4.8h-2.048v-4.72c0-1.072-.608-1.744-1.6-1.744-1.024 0-1.568.688-1.872 1.2V104zm10.883-9.472c-.72 0-1.328-.608-1.328-1.328s.608-1.328 1.328-1.328 1.312.608 1.312 1.328-.592 1.328-1.312 1.328M325.636 104v-8.064h2.032V104zm3.655-1.168 1.344-1.216c.496.624 1.088 1.072 1.856 1.072.656 0 .992-.384.992-.864 0-1.408-3.856-.88-3.856-3.712 0-1.424 1.2-2.496 2.88-2.496 1.232 0 2.352.592 2.928 1.376l-1.344 1.184c-.416-.512-.944-.928-1.568-.928-.64 0-.944.352-.944.768 0 1.376 3.856.896 3.856 3.68-.032 1.696-1.392 2.624-2.912 2.624-1.44 0-2.464-.576-3.232-1.488m8.654-1.776V97.76h-1.504v-1.824h1.504V93.92h2.048v2.016h2.464v1.824h-2.464v3.296c0 .896.48 1.248 1.28 1.248.56 0 .928-.064 1.2-.176v1.776c-.4.176-.88.256-1.552.256-2.016 0-2.976-1.136-2.976-3.104m6.332 2.944v-8.064h2.032v.8c.528-.544 1.216-.96 2.128-.96.272 0 .512.048.704.112v2a3.5 3.5 0 0 0-.896-.112c-.992 0-1.632.544-1.936 1.056V104zm8.381.24c-1.616 0-2.72-.928-2.72-2.416 0-1.216.944-2.128 2.672-2.416l2.464-.416v-.208c0-.848-.64-1.392-1.568-1.392-.784 0-1.392.368-1.824.96l-1.488-1.136c.72-.992 1.904-1.6 3.376-1.6 2.336 0 3.536 1.392 3.536 3.168V104h-2.032v-.784c-.512.624-1.472 1.024-2.416 1.024m-.704-2.512c0 .544.432.896 1.12.896.928 0 1.6-.432 2-1.072v-1.136l-1.92.32c-.848.144-1.2.496-1.2.992m7.991-.672V97.76h-1.504v-1.824h1.504V93.92h2.048v2.016h2.464v1.824h-2.464v3.296c0 .896.48 1.248 1.28 1.248.56 0 .928-.064 1.2-.176v1.776c-.4.176-.88.256-1.552.256-2.016 0-2.976-1.136-2.976-3.104m7.356-6.528c-.72 0-1.328-.608-1.328-1.328s.608-1.328 1.328-1.328 1.312.608 1.312 1.328-.592 1.328-1.312 1.328M366.277 104v-8.064h2.032V104zm3.316-8.064h2.176l2.096 5.76 2.08-5.76h2.192L375.193 104h-2.672zm17.154 6.752c-.752 1.008-2 1.632-3.52 1.632-2.864 0-4.48-2-4.48-4.352 0-2.384 1.504-4.352 4.144-4.352 2.24 0 3.712 1.52 3.712 3.632 0 .448-.064.864-.128 1.136h-5.648c.192 1.504 1.12 2.112 2.384 2.112.88 0 1.648-.384 2.08-.96zm-3.904-5.408c-1.04 0-1.728.576-1.952 1.632h3.712c-.032-.816-.624-1.632-1.76-1.632m9.483 2.688c0-2.352 1.552-4.352 4.096-4.352 1.088 0 1.872.336 2.496.96V92h2.048v12h-2.048v-.64c-.624.624-1.408.96-2.496.96-2.544 0-4.096-2-4.096-4.352m2.128 0c0 1.408.88 2.432 2.256 2.432.912 0 1.664-.384 2.208-1.12v-2.624c-.544-.736-1.296-1.12-2.208-1.12-1.376 0-2.256 1.024-2.256 2.432m14.26.544v-4.576h2.048v4.48c0 2.416-1.408 3.904-3.776 3.904s-3.76-1.488-3.76-3.904v-4.48h2.048v4.576c0 1.168.608 1.888 1.728 1.888 1.104 0 1.712-.72 1.712-1.888M97.886 131.936v-12h2.032v.656c.624-.624 1.408-.976 2.512-.976 2.56 0 4.096 2 4.096 4.352s-1.536 4.352-4.096 4.352c-1.104 0-1.888-.352-2.512-.976v4.592zm4.256-10.4c-.944 0-1.712.416-2.224 1.168v2.528c.544.768 1.296 1.168 2.224 1.168 1.376 0 2.272-1.024 2.272-2.432s-.896-2.432-2.272-2.432m13.746 5.152c-.752 1.008-2 1.632-3.52 1.632-2.864 0-4.48-2-4.48-4.352 0-2.384 1.504-4.352 4.144-4.352 2.24 0 3.712 1.52 3.712 3.632 0 .448-.064.864-.128 1.136h-5.648c.192 1.504 1.12 2.112 2.384 2.112.88 0 1.648-.384 2.08-.96zm-3.904-5.408c-1.04 0-1.728.576-1.952 1.632h3.712c-.032-.816-.624-1.632-1.76-1.632m5.746 6.72v-8.064h2.032v.8c.528-.544 1.216-.96 2.128-.96.272 0 .512.048.704.112v2a3.5 3.5 0 0 0-.896-.112c-.992 0-1.632.544-1.936 1.056V128zm5.796-1.168 1.344-1.216c.496.624 1.088 1.072 1.856 1.072.656 0 .992-.384.992-.864 0-1.408-3.856-.88-3.856-3.712 0-1.424 1.2-2.496 2.88-2.496 1.232 0 2.352.592 2.928 1.376l-1.344 1.184c-.416-.512-.944-.928-1.568-.928-.64 0-.944.352-.944.768 0 1.376 3.856.896 3.856 3.68-.032 1.696-1.392 2.624-2.912 2.624-1.44 0-2.464-.576-3.232-1.488m11.825-7.216c2.624 0 4.416 1.936 4.416 4.352s-1.792 4.352-4.416 4.352-4.416-1.936-4.416-4.352 1.792-4.352 4.416-4.352m.032 6.784c1.296 0 2.272-1.04 2.272-2.432 0-1.408-.976-2.432-2.272-2.432-1.344 0-2.336 1.024-2.336 2.432s.992 2.432 2.336 2.432m6.237 1.6v-8.064h2.032v.64c.56-.544 1.312-.96 2.384-.96 1.744 0 3.136 1.2 3.136 3.584v4.8h-2.048v-4.72c0-1.072-.608-1.744-1.6-1.744-1.024 0-1.568.688-1.872 1.2V128zm9.86 0v-8.064h2.032v.64c.56-.544 1.312-.96 2.384-.96 1.744 0 3.136 1.2 3.136 3.584v4.8h-2.048v-4.72c0-1.072-.608-1.744-1.6-1.744-1.024 0-1.568.688-1.872 1.2V128zm17.283-1.312c-.752 1.008-2 1.632-3.52 1.632-2.864 0-4.48-2-4.48-4.352 0-2.384 1.504-4.352 4.144-4.352 2.24 0 3.712 1.52 3.712 3.632 0 .448-.064.864-.128 1.136h-5.648c.192 1.504 1.12 2.112 2.384 2.112.88 0 1.648-.384 2.08-.96zm-3.904-5.408c-1.04 0-1.728.576-1.952 1.632h3.712c-.032-.816-.624-1.632-1.76-1.632m5.746 6.72v-12h2.032v12zm9.213 0v-11.2h2.272v4.464h5.648V116.8h2.272V128h-2.272v-4.672h-5.648V128zm11.934 3.152L195.368 116h2.064l-3.616 15.152zm7.503-3.152v-11.2h6.528v1.888h-4.256v2.656h3.616v1.888h-3.616V128z"/><path fill="#3a3a3a" d="m104.67 154.819-4.243-4.243a6 6 0 1 1 8.486 0zm3.3-5.185a4.667 4.667 0 1 0-6.6 0l3.3 3.3zm-3.3-1.967a1.334 1.334 0 1 1 0-2.667 1.334 1.334 0 0 1 0 2.667M120.002 154v-8.4h4.512v.96h-3.384v2.688h2.904v.948h-2.904v2.844h3.384v.96zm6.439 0v-6.048h1.02v.684c.492-.54 1.116-.924 2.016-.924 1.356 0 2.364.912 2.364 2.628V154h-1.02v-3.624c0-1.08-.612-1.704-1.548-1.704-.876 0-1.428.504-1.812 1.14V154zm7.801-2.028v-3.096h-1.14v-.924h1.14v-1.512h1.032v1.512h2.1v.924h-2.1v3.096c0 .948.48 1.212 1.212 1.212.396 0 .672-.048.9-.144v.912c-.288.12-.612.168-1.044.168-1.344 0-2.1-.672-2.1-2.148m4.692 2.028v-6.048h1.02v.756c.444-.528.996-.876 1.764-.876.192 0 .372.024.516.072v.996a2.2 2.2 0 0 0-.6-.072c-.792 0-1.308.408-1.68 1.02V154zm9.782-.996c-.564.756-1.464 1.236-2.592 1.236-2.04 0-3.3-1.5-3.3-3.264 0-1.836 1.176-3.264 3.048-3.264 1.644 0 2.712 1.152 2.712 2.64 0 .24-.036.468-.072.636h-4.644c.036 1.452.96 2.328 2.256 2.328.78 0 1.44-.36 1.836-.9zm-2.868-4.428c-.996 0-1.692.588-1.908 1.632h3.624c-.036-.888-.648-1.632-1.716-1.632m4.464 8.376v-9h1.02v.72c.54-.612 1.248-.96 2.148-.96 1.896 0 3.108 1.5 3.108 3.264s-1.212 3.264-3.108 3.264c-.9 0-1.608-.348-2.148-.96v3.672zm3.048-8.28c-.84 0-1.572.408-2.028 1.128v2.352c.468.732 1.2 1.128 2.028 1.128 1.284 0 2.16-1.02 2.16-2.304s-.876-2.304-2.16-2.304m4.874 5.328v-6.048h1.02v.756c.444-.528.996-.876 1.764-.876.192 0 .372.024.516.072v.996a2.2 2.2 0 0 0-.6-.072c-.792 0-1.308.408-1.68 1.02V154zm5.286-7.62a.72.72 0 0 1-.72-.72.72.72 0 0 1 .72-.708.71.71 0 0 1 .708.708c0 .396-.312.72-.708.72m-.516 7.62v-6.048h1.02V154zm2.481-.828.72-.612c.42.528.924.828 1.536.828.672 0 1.056-.408 1.056-.936 0-1.356-3.024-.876-3.024-3.012 0-.948.804-1.728 1.968-1.728.864 0 1.608.408 2.028.996l-.708.6c-.324-.456-.78-.744-1.308-.744-.648 0-.996.384-.996.852 0 1.356 3.036.924 3.036 2.988-.012 1.128-.912 1.836-2.04 1.836-.96 0-1.716-.384-2.268-1.068m11.274-.168c-.564.756-1.464 1.236-2.592 1.236-2.04 0-3.3-1.5-3.3-3.264 0-1.836 1.176-3.264 3.048-3.264 1.644 0 2.712 1.152 2.712 2.64 0 .24-.036.468-.072.636h-4.644c.036 1.452.96 2.328 2.256 2.328.78 0 1.44-.36 1.836-.9zm-2.868-4.428c-.996 0-1.692.588-1.908 1.632h3.624c-.036-.888-.648-1.632-1.716-1.632m8.251.768a.776.776 0 0 1-.78-.768c0-.42.348-.756.78-.756s.768.336.768.756-.336.768-.768.768m0 4.788a.766.766 0 0 1-.78-.756c0-.42.348-.768.78-.768s.768.348.768.768-.336.756-.768.756m6.169-.132v-8.4h2.46c1.68 0 2.724.924 2.724 2.364s-1.044 2.352-2.724 2.352h-1.332V154zm2.484-7.44h-1.356v2.796h1.356c.96 0 1.536-.516 1.536-1.416 0-.852-.576-1.38-1.536-1.38m5.564 7.608c-1.188 0-1.992-.66-1.992-1.692 0-.912.696-1.56 1.98-1.776l2.04-.336v-.42c0-.84-.6-1.32-1.464-1.32-.696 0-1.26.324-1.632.84l-.768-.588c.528-.72 1.38-1.164 2.436-1.164 1.536 0 2.448.9 2.448 2.232V154h-1.02v-.768c-.456.588-1.248.936-2.028.936m-.96-1.728c0 .516.42.888 1.128.888.804 0 1.464-.384 1.86-1.032v-1.188l-1.788.3c-.828.144-1.2.516-1.2 1.032m6.054 1.56v-6.048h1.02v.756c.444-.528.996-.876 1.764-.876.192 0 .372.024.516.072v.996a2.2 2.2 0 0 0-.6-.072c-.792 0-1.308.408-1.68 1.02V154zm5.286-7.62a.72.72 0 0 1-.72-.72.72.72 0 0 1 .72-.708.71.71 0 0 1 .708.708c0 .396-.312.72-.708.72m-.516 7.62v-6.048h1.02V154zm2.48-.828.72-.612c.42.528.924.828 1.536.828.672 0 1.056-.408 1.056-.936 0-1.356-3.024-.876-3.024-3.012 0-.948.804-1.728 1.968-1.728.864 0 1.608.408 2.028.996l-.708.6c-.324-.456-.78-.744-1.308-.744-.648 0-.996.384-.996.852 0 1.356 3.036.924 3.036 2.988-.012 1.128-.912 1.836-2.04 1.836-.96 0-1.716-.384-2.268-1.068m10.427.828h-1.248l4.44-7.428h-4.68v-.972h5.832v.972zm5.893-3.984.252-4.416h4.62v.972h-3.588l-.144 2.46h1.212c1.98 0 2.916 1.08 2.916 2.568 0 1.608-1.248 2.64-2.928 2.64-1.44 0-2.412-.588-3.084-1.704l.948-.588c.516.936 1.212 1.32 2.124 1.32 1.056 0 1.836-.612 1.836-1.632 0-.972-.684-1.62-1.86-1.62zm9.512-4.656c2.112 0 3.144 1.944 3.144 4.44s-1.032 4.44-3.144 4.44c-2.088 0-3.132-1.944-3.132-4.44s1.044-4.44 3.132-4.44m.012 1.008c-1.344 0-2.04 1.464-2.04 3.432s.696 3.432 2.04 3.432c1.332 0 2.016-1.464 2.016-3.432s-.684-3.432-2.016-3.432m6.369 7.632v-7.308l-2.22 1.2-.552-.768 2.76-1.524h1.08v8.4zm5.879.24c-1.296 0-2.124-.576-2.7-1.428l.864-.66c.48.732 1.056 1.104 1.836 1.104 1.536 0 2.304-1.272 2.352-3.36-.6.612-1.392.948-2.328.948-1.572 0-2.652-1.188-2.652-2.664 0-1.524 1.068-2.82 2.892-2.82 1.968 0 3.204 1.392 3.204 4.308 0 2.724-1.08 4.572-3.468 4.572m-1.512-6.096c0 .972.72 1.728 1.704 1.728.852 0 1.62-.36 2.112-1.092-.18-1.764-.972-2.436-2.028-2.436-1.116 0-1.788.792-1.788 1.8M104.67 174.819l-4.243-4.243a6 6 0 1 1 8.486 0zm3.3-5.185a4.667 4.667 0 1 0-6.6 0l3.3 3.3zm-3.3-1.967a1.334 1.334 0 1 1 0-2.667 1.334 1.334 0 0 1 0 2.667M120.002 174v-8.4h4.512v.96h-3.384v2.688h2.904v.948h-2.904V174zm8.52-6.288c1.944 0 3.276 1.5 3.276 3.264s-1.332 3.264-3.276 3.264c-1.956 0-3.276-1.5-3.276-3.264s1.32-3.264 3.276-3.264m.012 5.568c1.26 0 2.184-1.056 2.184-2.304 0-1.26-.924-2.304-2.184-2.304-1.296 0-2.22 1.044-2.22 2.304s.924 2.304 2.22 2.304m4.903.72v-6.048h1.02v.756c.444-.528.996-.876 1.764-.876.192 0 .372.024.516.072v.996a2.2 2.2 0 0 0-.6-.072c-.792 0-1.308.408-1.68 1.02V174zm4.77 0v-6.048h1.02v.66c.456-.528 1.056-.9 1.896-.9.876 0 1.596.396 1.968 1.164.48-.66 1.116-1.164 2.16-1.164 1.296 0 2.244.864 2.244 2.508V174h-1.02v-3.744c0-1.008-.564-1.584-1.428-1.584-.768 0-1.308.432-1.704 1.14.012.132.024.264.024.408V174h-1.02v-3.744c0-1.008-.552-1.584-1.428-1.584-.828 0-1.344.516-1.692 1.14V174zm12.988.168c-1.188 0-1.992-.66-1.992-1.692 0-.912.696-1.56 1.98-1.776l2.04-.336v-.42c0-.84-.6-1.32-1.464-1.32-.696 0-1.26.324-1.632.84l-.768-.588c.528-.72 1.38-1.164 2.436-1.164 1.536 0 2.448.9 2.448 2.232V174h-1.02v-.768c-.456.588-1.248.936-2.028.936m-.96-1.728c0 .516.42.888 1.128.888.804 0 1.464-.384 1.86-1.032v-1.188l-1.788.3c-.828.144-1.2.516-1.2 1.032m6.402-.468v-3.096h-1.14v-.924h1.14v-1.512h1.032v1.512h2.1v.924h-2.1v3.096c0 .948.48 1.212 1.212 1.212.396 0 .672-.048.9-.144v.912c-.288.12-.612.168-1.044.168-1.344 0-2.1-.672-2.1-2.148m5.207-5.592a.72.72 0 0 1-.72-.72.72.72 0 0 1 .72-.708.71.71 0 0 1 .708.708c0 .396-.312.72-.708.72m-.516 7.62v-6.048h1.02V174zm5.936-6.288c1.944 0 3.276 1.5 3.276 3.264s-1.332 3.264-3.276 3.264c-1.956 0-3.276-1.5-3.276-3.264s1.32-3.264 3.276-3.264m.012 5.568c1.26 0 2.184-1.056 2.184-2.304 0-1.26-.924-2.304-2.184-2.304-1.296 0-2.22 1.044-2.22 2.304s.924 2.304 2.22 2.304m4.904.72v-6.048h1.02v.684c.492-.54 1.116-.924 2.016-.924 1.356 0 2.364.912 2.364 2.628V174h-1.02v-3.624c0-1.08-.612-1.704-1.548-1.704-.876 0-1.428.504-1.812 1.14V174zm11.239-4.656a.776.776 0 0 1-.78-.768c0-.42.348-.756.78-.756s.768.336.768.756-.336.768-.768.768m0 4.788a.766.766 0 0 1-.78-.756c0-.42.348-.768.78-.768s.768.348.768.768-.336.756-.768.756m5.533-1.284.84-.768c.576.744 1.248 1.14 2.028 1.14.936 0 1.476-.564 1.476-1.332 0-1.896-3.984-1.488-3.984-4.26 0-1.248 1.032-2.268 2.496-2.268 1.176 0 2.04.54 2.664 1.368l-.852.744c-.492-.708-1.08-1.104-1.8-1.104-.828 0-1.356.516-1.356 1.236 0 1.884 3.972 1.452 3.972 4.248 0 1.452-1.116 2.376-2.604 2.376-1.236 0-2.148-.468-2.88-1.38m8.918 1.32c-1.188 0-1.992-.66-1.992-1.692 0-.912.696-1.56 1.98-1.776l2.04-.336v-.42c0-.84-.6-1.32-1.464-1.32-.696 0-1.26.324-1.632.84l-.768-.588c.528-.72 1.38-1.164 2.436-1.164 1.536 0 2.448.9 2.448 2.232V174h-1.02v-.768c-.456.588-1.248.936-2.028.936m-.96-1.728c0 .516.42.888 1.128.888.804 0 1.464-.384 1.86-1.032v-1.188l-1.788.3c-.828.144-1.2.516-1.2 1.032m6.571-6.06a.72.72 0 0 1-.72-.72.72.72 0 0 1 .72-.708.71.71 0 0 1 .708.708c0 .396-.312.72-.708.72m-.516 7.62v-6.048h1.02V174zm3.176 0v-6.048h1.02v.684c.492-.54 1.116-.924 2.016-.924 1.356 0 2.364.912 2.364 2.628V174h-1.02v-3.624c0-1.08-.612-1.704-1.548-1.704-.876 0-1.428.504-1.812 1.14V174zm7.801-2.028v-3.096h-1.14v-.924h1.14v-1.512h1.032v1.512h2.1v.924h-2.1v3.096c0 .948.48 1.212 1.212 1.212.396 0 .672-.048.9-.144v.912c-.288.12-.612.168-1.044.168-1.344 0-2.1-.672-2.1-2.148m3.464-1.536h3.24v.984h-3.24zm8.737-5.076c2.616 0 4.404 2.04 4.404 4.44s-1.788 4.44-4.404 4.44c-2.628 0-4.416-2.04-4.416-4.44s1.788-4.44 4.416-4.44m0 7.824c1.884 0 3.24-1.512 3.24-3.384s-1.356-3.384-3.24-3.384c-1.896 0-3.252 1.512-3.252 3.384s1.356 3.384 3.252 3.384m10.307-1.776v-3.456h1.02v3.42c0 1.812-1.044 2.868-2.688 2.868-1.632 0-2.676-1.056-2.676-2.868v-3.42h1.02v3.456c0 1.188.636 1.872 1.668 1.872 1.008 0 1.656-.684 1.656-1.872m8.406 1.596c-.564.756-1.464 1.236-2.592 1.236-2.04 0-3.3-1.5-3.3-3.264 0-1.836 1.176-3.264 3.048-3.264 1.644 0 2.712 1.152 2.712 2.64 0 .24-.036.468-.072.636h-4.644c.036 1.452.96 2.328 2.256 2.328.78 0 1.44-.36 1.836-.9zm-2.868-4.428c-.996 0-1.692.588-1.908 1.632h3.624c-.036-.888-.648-1.632-1.716-1.632m4.465 5.424v-6.048h1.02v.684c.492-.54 1.116-.924 2.016-.924 1.356 0 2.364.912 2.364 2.628V174h-1.02v-3.624c0-1.08-.612-1.704-1.548-1.704-.876 0-1.428.504-1.812 1.14V174zm12.788.24c-1.296 0-2.124-.576-2.7-1.428l.864-.66c.48.732 1.056 1.104 1.836 1.104 1.536 0 2.304-1.272 2.352-3.36-.6.612-1.392.948-2.328.948-1.572 0-2.652-1.188-2.652-2.664 0-1.524 1.068-2.82 2.892-2.82 1.968 0 3.204 1.392 3.204 4.308 0 2.724-1.08 4.572-3.468 4.572m-1.512-6.096c0 .972.72 1.728 1.704 1.728.852 0 1.62-.36 2.112-1.092-.18-1.764-.972-2.436-2.028-2.436-1.116 0-1.788.792-1.788 1.8m11.843 3.54c0 1.524-1.236 2.556-2.928 2.556-1.452 0-2.412-.588-3.084-1.704l.948-.588c.516.924 1.188 1.32 2.124 1.32 1.044 0 1.824-.612 1.824-1.632 0-.948-.672-1.608-1.776-1.608h-1.428v-.972h1.26c.96 0 1.572-.576 1.572-1.392 0-.852-.636-1.332-1.5-1.332-.756 0-1.344.384-1.74 1.116l-.9-.552c.6-.984 1.488-1.536 2.712-1.536 1.452 0 2.532.876 2.532 2.208 0 .816-.384 1.512-1.104 1.908.972.396 1.488 1.236 1.488 2.208m.972-.108v-.972l3.948-5.004h1.308v5.004h.972v.972h-.972V174h-1.08v-2.424zm1.152-.972h3.024v-3.828zm9.199-5.244c2.112 0 3.144 1.944 3.144 4.44s-1.032 4.44-3.144 4.44c-2.088 0-3.132-1.944-3.132-4.44s1.044-4.44 3.132-4.44m.012 1.008c-1.344 0-2.04 1.464-2.04 3.432s.696 3.432 2.04 3.432c1.332 0 2.016-1.464 2.016-3.432s-.684-3.432-2.016-3.432m7.265-1.008c2.112 0 3.144 1.944 3.144 4.44s-1.032 4.44-3.144 4.44c-2.088 0-3.132-1.944-3.132-4.44s1.044-4.44 3.132-4.44m.012 1.008c-1.344 0-2.04 1.464-2.04 3.432s.696 3.432 2.04 3.432c1.332 0 2.016-1.464 2.016-3.432s-.684-3.432-2.016-3.432"/><path fill="#000091" d="M96.67 185h183v32h-183z"/><g clip-path="url(#b)"><path fill="#fff" d="M122.67 195c.368 0 .667.299.667.667v10.671a.667.667 0 0 1-.662.662h-12.011a.66.66 0 0 1-.661-.662v-.671h12v-7.8l-5.333 4.8-6.667-6v-1c0-.368.299-.667.667-.667zm-8.667 8v1.334h-5.333V203zm-2-3.333V201h-3.333v-1.333zm9.711-3.333h-10.088l5.044 4.539z"/></g><path fill="#fff" d="M139.65 204.644c.96 0 1.716-.468 2.196-1.152l1.344 1.032c-.768 1.044-2.016 1.716-3.54 1.716-2.652 0-4.464-2.04-4.464-4.44s1.812-4.44 4.464-4.44c1.524 0 2.772.684 3.54 1.704l-1.344 1.044c-.48-.684-1.236-1.152-2.196-1.152-1.584 0-2.712 1.236-2.712 2.844s1.128 2.844 2.712 2.844m6.402 1.536c-1.212 0-2.04-.696-2.04-1.812 0-.912.708-1.596 2.004-1.812l1.848-.312v-.156c0-.636-.48-1.044-1.176-1.044-.588 0-1.044.276-1.368.72l-1.116-.852c.54-.744 1.428-1.2 2.532-1.2 1.752 0 2.652 1.044 2.652 2.376V206h-1.524v-.588c-.384.468-1.104.768-1.812.768m-.528-1.884c0 .408.324.672.84.672.696 0 1.2-.324 1.5-.804v-.852l-1.44.24c-.636.108-.9.372-.9.744m5.609 1.704v-6.048h1.524v.48c.42-.408.984-.72 1.788-.72 1.308 0 2.352.9 2.352 2.688v3.6h-1.536v-3.54c0-.804-.456-1.308-1.2-1.308-.768 0-1.176.516-1.404.9V206zm6.962-3.024c0-1.764 1.164-3.264 3.072-3.264.816 0 1.404.252 1.872.72V197h1.536v9h-1.536v-.48c-.468.468-1.056.72-1.872.72-1.908 0-3.072-1.5-3.072-3.264m1.596 0c0 1.056.66 1.824 1.692 1.824.684 0 1.248-.288 1.656-.84v-1.968c-.408-.552-.972-.84-1.656-.84-1.032 0-1.692.768-1.692 1.824m7.479-4.08a1.01 1.01 0 0 1-.996-.996c0-.54.456-.996.996-.996s.984.456.984.996-.444.996-.984.996m-.768 7.104v-6.048h1.524V206zm2.92-3.024c0-1.764 1.164-3.264 3.072-3.264.816 0 1.404.252 1.872.72V197h1.536v9h-1.536v-.48c-.468.468-1.056.72-1.872.72-1.908 0-3.072-1.5-3.072-3.264m1.596 0c0 1.056.66 1.824 1.692 1.824.684 0 1.248-.288 1.656-.84v-1.968c-.408-.552-.972-.84-1.656-.84-1.032 0-1.692.768-1.692 1.824m8.415 3.204c-1.212 0-2.04-.696-2.04-1.812 0-.912.708-1.596 2.004-1.812l1.848-.312v-.156c0-.636-.48-1.044-1.176-1.044-.588 0-1.044.276-1.368.72l-1.116-.852c.54-.744 1.428-1.2 2.532-1.2 1.752 0 2.652 1.044 2.652 2.376V206h-1.524v-.588c-.384.468-1.104.768-1.812.768m-.528-1.884c0 .408.324.672.84.672.696 0 1.2-.324 1.5-.804v-.852l-1.44.24c-.636.108-.9.372-.9.744m5.993-.504v-2.472h-1.128v-1.368h1.128v-1.512h1.536v1.512h1.848v1.368h-1.848v2.472c0 .672.36.936.96.936.42 0 .696-.048.9-.132v1.332c-.3.132-.66.192-1.164.192-1.512 0-2.232-.852-2.232-2.328m8.721-.408v-3.432h1.536v3.36c0 1.812-1.056 2.928-2.832 2.928s-2.82-1.116-2.82-2.928v-3.36h1.536v3.432c0 .876.456 1.416 1.296 1.416.828 0 1.284-.54 1.284-1.416m3.223 2.616v-6.048h1.524v.6c.396-.408.912-.72 1.596-.72.204 0 .384.036.528.084v1.5a2.6 2.6 0 0 0-.672-.084c-.744 0-1.224.408-1.452.792V206zm10.185-.984c-.564.756-1.5 1.224-2.64 1.224-2.148 0-3.36-1.5-3.36-3.264 0-1.788 1.128-3.264 3.108-3.264 1.68 0 2.784 1.14 2.784 2.724 0 .336-.048.648-.096.852h-4.236c.144 1.128.84 1.584 1.788 1.584.66 0 1.236-.288 1.56-.72zm-2.928-4.056c-.78 0-1.296.432-1.464 1.224h2.784c-.024-.612-.468-1.224-1.32-1.224m7.016 4.164 1.008-.912c.372.468.816.804 1.392.804.492 0 .744-.288.744-.648 0-1.056-2.892-.66-2.892-2.784 0-1.068.9-1.872 2.16-1.872.924 0 1.764.444 2.196 1.032l-1.008.888c-.312-.384-.708-.696-1.176-.696-.48 0-.708.264-.708.576 0 1.032 2.892.672 2.892 2.76-.024 1.272-1.044 1.968-2.184 1.968-1.08 0-1.848-.432-2.424-1.116m6.78-6.228a1.01 1.01 0 0 1-.996-.996c0-.54.456-.996.996-.996s.984.456.984.996-.444.996-.984.996m-.768 7.104v-6.048h1.524V206zm3.352 0v-6.048h1.524v.456c.408-.396.924-.696 1.668-.696.768 0 1.44.336 1.836.984.432-.528 1.008-.984 2.028-.984 1.248 0 2.232.864 2.232 2.568V206h-1.536v-3.66c0-.732-.396-1.188-1.08-1.188-.66 0-1.02.456-1.26.864.012.084.012.168.012.264V206h-1.536v-3.66c0-.732-.396-1.188-1.08-1.188-.696 0-1.056.516-1.284.9V206zm11.027 2.952v-9h1.524v.492c.468-.468 1.056-.732 1.884-.732 1.92 0 3.072 1.5 3.072 3.264s-1.152 3.264-3.072 3.264c-.828 0-1.416-.264-1.884-.732v3.444zm3.192-7.8c-.708 0-1.284.312-1.668.876v1.896c.408.576.972.876 1.668.876 1.032 0 1.704-.768 1.704-1.824s-.672-1.824-1.704-1.824m4.683 4.848v-9h1.524v9zm4.12-7.104a1.01 1.01 0 0 1-.996-.996c0-.54.456-.996.996-.996s.984.456.984.996-.444.996-.984.996m-.768 7.104v-6.048h1.524V206zm2.607-6.048h1.128v-.636c0-1.284.852-2.316 2.364-2.316.552 0 1.02.132 1.404.336l-.648 1.272c-.18-.132-.42-.24-.732-.24-.516 0-.852.36-.852.912v.672h1.848v1.368h-1.848V206h-1.536v-4.68h-1.128zm6.422-1.056a1.01 1.01 0 0 1-.996-.996c0-.54.456-.996.996-.996s.984.456.984.996-.444.996-.984.996m-.768 7.104v-6.048h1.524V206zm6.868-7.008h-1.464l1.248-1.992h1.656zm2.052 6.024c-.564.756-1.5 1.224-2.64 1.224-2.148 0-3.36-1.5-3.36-3.264 0-1.788 1.128-3.264 3.108-3.264 1.68 0 2.784 1.14 2.784 2.724 0 .336-.048.648-.096.852h-4.236c.144 1.128.84 1.584 1.788 1.584.66 0 1.236-.288 1.56-.72zm-2.928-4.056c-.78 0-1.296.432-1.464 1.224h2.784c-.024-.612-.468-1.224-1.32-1.224m9.83 4.056c-.564.756-1.5 1.224-2.64 1.224-2.148 0-3.36-1.5-3.36-3.264 0-1.788 1.128-3.264 3.108-3.264 1.68 0 2.784 1.14 2.784 2.724 0 .336-.048.648-.096.852h-4.236c.144 1.128.84 1.584 1.788 1.584.66 0 1.236-.288 1.56-.72zm-2.928-4.056c-.78 0-1.296.432-1.464 1.224h2.784c-.024-.612-.468-1.224-1.32-1.224"/><defs><clipPath id="b"><path fill="#fff" d="M108.67 193h16v16h-16z"/></clipPath><filter id="a" width="395.998" height="242.48" x="67.559" y="13.786" color-interpolation-filters="sRGB" filterUnits="userSpaceOnUse"><feFlood flood-opacity="0" result="BackgroundImageFix"/><feColorMatrix in="SourceAlpha" result="hardAlpha" values="0 0 0 0 0 0 0 0 0 0 0 0 0 0 0 0 0 0 127 0"/><feOffset dy="10"/><feGaussianBlur stdDeviation="5"/><feColorMatrix values="0 0 0 0 0 0 0 0 0 0 0 0 0 0 0 0 0 0 0.16 0"/><feBlend in2="BackgroundImageFix" result="effect1_dropShadow_7818_58381"/><feBlend in="SourceGraphic" in2="effect1_dropShadow_7818_58381" result="shape"/></filter></defs></svg>