<svg width="212" height="145" viewBox="0 0 212 145" fill="none" xmlns="http://www.w3.org/2000/svg">
<path d="M184.701 74.5234L184.698 74.5204V53.5699C184.698 51.724 183.202 50.2275 181.356 50.2275H45.0972C43.2517 50.2275 41.7556 51.724 41.7556 53.5699V127.945H178.756H181.358C183.203 127.945 184.7 126.448 184.7 124.603L184.703 95.8583" fill="#6A6AF4"/>
<path fill-rule="evenodd" clip-rule="evenodd" d="M41.7556 57.1189C41.7556 56.8671 41.9596 56.6631 42.2113 56.6631H178.755C179.006 56.6631 179.21 56.8671 179.21 57.1189C179.21 57.3706 179.006 57.5746 178.755 57.5746H42.2113C41.9596 57.5746 41.7556 57.3706 41.7556 57.1189Z" fill="#2E186A"/>
<path fill-rule="evenodd" clip-rule="evenodd" d="M174.909 50.6833C174.909 50.4316 175.113 50.2275 175.364 50.2275C177.489 50.2275 179.21 51.9493 179.21 54.0743V124.805C179.21 126.902 177.51 128.603 175.413 128.603C175.161 128.603 174.957 128.399 174.957 128.147C174.957 127.895 175.161 127.691 175.413 127.691C177.007 127.691 178.299 126.399 178.299 124.805V54.0743C178.299 52.4528 176.985 51.1391 175.364 51.1391C175.113 51.1391 174.909 50.935 174.909 50.6833Z" fill="#2E186A"/>
<path d="M49.95 55.5464C50.9248 55.5464 51.7149 54.756 51.7149 53.781C51.7149 52.806 50.9248 52.0156 49.95 52.0156C48.9753 52.0156 48.1851 52.806 48.1851 53.781C48.1851 54.756 48.9753 55.5464 49.95 55.5464Z" fill="#2E186A"/>
<path d="M55.8311 55.5464C56.8059 55.5464 57.5961 54.756 57.5961 53.781C57.5961 52.806 56.8059 52.0156 55.8311 52.0156C54.8564 52.0156 54.0662 52.806 54.0662 53.781C54.0662 54.756 54.8564 55.5464 55.8311 55.5464Z" fill="#2E186A"/>
<path d="M61.7107 55.5464C62.6855 55.5464 63.4757 54.756 63.4757 53.781C63.4757 52.806 62.6855 52.0156 61.7107 52.0156C60.736 52.0156 59.9458 52.806 59.9458 53.781C59.9458 54.756 60.736 55.5464 61.7107 55.5464Z" fill="#2E186A"/>
<path d="M63.7674 99.4088L44.8512 97.1056C44.8512 97.1056 39.6308 95.7747 37.4755 97.6951C34.945 97.7072 32.7806 98.7038 30.9382 100.261C29.436 99.9329 25.6919 99.5015 24.8733 103.085C24.0743 106.586 23.4531 111.649 23.2146 113.741C22.1985 116.964 21.7671 119.384 21.7671 119.384L6.77724 119.317C2.03984 119.589 -0.885537 125.342 0.241477 132.167C1.34419 138.839 5.913 144.067 10.5441 144.043L40.1274 144.113C40.1274 144.113 40.1517 144.06 40.1988 143.962L48.6241 119.161C47.4758 117.935 46.2668 116.639 46.2334 115.486C46.1134 111.294 48.7714 106.514 48.7714 106.514C48.7714 106.514 51.3201 106.587 58.6715 106.882C66.0229 107.177 63.7689 99.4073 63.7689 99.4073L63.7674 99.4088Z" fill="#FF8D7E"/>
<path fill-rule="evenodd" clip-rule="evenodd" d="M46.3513 96.8443C46.3517 96.8444 46.3521 96.8445 46.2349 97.285L46.3521 96.8445C46.5953 96.9092 46.74 97.1589 46.6753 97.4021C46.6108 97.6445 46.3628 97.7891 46.1205 97.7262C46.1202 97.7261 46.1198 97.726 46.1193 97.7259C46.1167 97.7253 46.1113 97.724 46.1029 97.7222C46.0863 97.7187 46.0583 97.7132 46.02 97.7074C45.9435 97.6957 45.8262 97.6825 45.6763 97.6798C45.3766 97.6746 44.9482 97.7115 44.4521 97.8857C43.4741 98.2292 42.1629 99.1317 41.0607 101.475C39.9443 103.849 38.9767 106.175 38.288 107.908C37.9437 108.774 37.6694 109.492 37.4813 109.993C37.3872 110.243 37.3147 110.439 37.2658 110.572C37.2414 110.639 37.2228 110.69 37.2104 110.724L37.1965 110.763L37.192 110.775L36.7631 110.621C36.3343 110.467 36.3343 110.467 36.3344 110.467L36.3344 110.467L36.3393 110.453L36.3538 110.413C36.3666 110.378 36.3855 110.326 36.4103 110.258C36.46 110.123 36.5333 109.925 36.6282 109.672C36.818 109.167 37.0944 108.444 37.4411 107.571C38.1341 105.827 39.1092 103.483 40.2361 101.087C41.426 98.5573 42.908 97.4619 44.1502 97.0257C44.7643 96.81 45.3027 96.7616 45.6923 96.7684C45.8871 96.7719 46.0452 96.7891 46.1577 96.8063C46.214 96.8149 46.2591 96.8235 46.2918 96.8304C46.3081 96.8339 46.3214 96.837 46.3315 96.8394C46.3366 96.8406 46.3408 96.8416 46.3442 96.8425L46.3488 96.8437L46.3506 96.8441L46.3513 96.8443ZM36.7631 110.621L36.3344 110.467C36.2492 110.704 36.3722 110.965 36.609 111.05C36.8459 111.135 37.1069 111.012 37.192 110.775L36.7631 110.621ZM46.1184 97.7256C46.1184 97.7256 46.1184 97.7256 46.1184 97.7256V97.7256Z" fill="white"/>
<path fill-rule="evenodd" clip-rule="evenodd" d="M37.7327 98.0714C37.7327 98.0714 37.7327 98.0714 37.7327 98.0714L37.733 98.0712L37.7335 98.0708M37.7327 98.0714L37.733 98.0712C37.7333 98.071 37.7336 98.0707 37.7339 98.0705M37.4753 97.6952C37.2184 97.3188 37.2182 97.319 37.218 97.3191L37.2176 97.3194L37.2167 97.32L37.2144 97.3216L37.2081 97.326C37.2032 97.3295 37.1968 97.334 37.189 97.3397C37.1733 97.3511 37.1519 97.3671 37.1251 97.388C37.0716 97.4296 36.9964 97.4908 36.9025 97.5739C36.7146 97.7402 36.4517 97.9941 36.1356 98.3559C35.5034 99.0796 34.6603 100.233 33.7803 101.975C32.9044 103.709 32.2413 105.439 31.7975 106.734C31.5754 107.382 31.4077 107.922 31.2953 108.301C31.2391 108.491 31.1966 108.64 31.1682 108.743C31.1539 108.794 31.1432 108.833 31.1359 108.86C31.1322 108.874 31.1295 108.884 31.1276 108.891L31.1254 108.9L31.1246 108.903C31.1246 108.903 31.1246 108.903 31.5654 109.018L31.1246 108.903C31.0609 109.146 31.2065 109.395 31.45 109.459C31.6934 109.523 31.9424 109.377 32.0062 109.134L32.0066 109.132L32.0084 109.125C32.01 109.119 32.0124 109.11 32.0158 109.098C32.0225 109.073 32.0326 109.036 32.0462 108.987C32.0734 108.889 32.1144 108.745 32.169 108.56C32.2783 108.192 32.4422 107.664 32.6596 107.029C33.0949 105.76 33.7426 104.071 34.5937 102.386" fill="white"/>
<path d="M72.1973 94.7158L69.0365 103.67L40.6166 129.54L36.6857 126.113L33.7983 122.889L62.6784 96.627L72.1973 94.7158Z" fill="white"/>
<path d="M70.7059 98.9424L72.1974 94.7158L67.4585 95.6684L70.7059 98.9424Z" fill="#2E186A"/>
<path fill-rule="evenodd" clip-rule="evenodd" d="M67.1819 100.707C67.3483 100.896 67.3301 101.184 67.1413 101.35L41.463 123.986C41.2742 124.152 40.9863 124.134 40.8199 123.945C40.6535 123.756 40.6717 123.468 40.8605 123.302L66.5387 100.667C66.7275 100.5 67.0155 100.518 67.1819 100.707Z" fill="#2E186A"/>
<path fill-rule="evenodd" clip-rule="evenodd" d="M65.2515 98.7003C65.4169 98.89 65.3973 99.1779 65.2077 99.3434L39.2347 122.011C39.0451 122.176 38.7573 122.157 38.5918 121.967C38.4264 121.777 38.446 121.489 38.6356 121.324L64.6085 98.6565C64.7982 98.4911 65.086 98.5107 65.2515 98.7003Z" fill="#2E186A"/>
<path d="M38.5129 121.514L33.8803 122.77L32.6531 127.412L36.0569 130.797L40.6895 129.54L41.9168 124.899L38.5129 121.514Z" fill="#6A6AF4"/>
<path d="M37.284 127.674C38.1229 127.674 38.8029 126.994 38.8029 126.155C38.8029 125.316 38.1229 124.636 37.284 124.636C36.4452 124.636 35.7651 125.316 35.7651 126.155C35.7651 126.994 36.4452 127.674 37.284 127.674Z" fill="#2E186A"/>
<path d="M45.9297 125.438C45.9297 125.438 46.2729 124.507 48.6257 119.164C50.9784 113.82 54.7028 109.311 59.3095 110.586C63.9163 111.861 60.2406 119.164 60.2406 119.164C60.2406 119.164 54.7757 134.09 52.4973 136.59C50.219 139.09 47.2784 144.262 39.7068 143.955" fill="#FF8D7E"/>
<path d="M147.929 120.608C149.417 126.207 158.496 126.377 157.639 117.625C157.633 113.735 164.782 112.804 168.209 116.883C168.209 116.883 168.209 116.885 168.212 116.888C168.212 116.886 168.211 116.885 168.209 116.883C168.209 116.883 169.06 117.287 170 122.293C171.233 128.767 166.291 137.89 160.051 132.026C154.264 129.125 150.488 136.422 157.335 142.543C162.893 147.511 174.181 144.456 178.566 137.744L205.566 138.788C211.558 138.812 215.857 108.947 206.757 107.918L188.95 107.111C188.95 107.111 177.363 94.1978 174.213 93.148C171.063 92.0982 169.529 95.4542 169.529 95.4542C169.529 95.4542 163.203 89.1539 160.007 89.2739C155.545 89.4425 156.24 92.6527 156.24 92.6527C156.24 92.6527 149.531 90.3192 149.708 96.504C149.793 99.5289 153.096 102.897 156.418 105.53C156.321 105.554 156.222 105.579 156.125 105.606C147.841 107.918 146.348 114.658 147.93 120.61L147.929 120.608ZM168.241 116.921C168.25 116.933 168.261 116.946 168.27 116.955C168.262 116.946 168.253 116.935 168.241 116.921ZM168.281 116.967C168.29 116.977 168.293 116.981 168.281 116.967V116.967Z" fill="#FF8D7E"/>
<path fill-rule="evenodd" clip-rule="evenodd" d="M155.37 104.913C158.21 104.12 161.282 104.22 163.989 104.972C164.231 105.04 164.373 105.291 164.306 105.533C164.238 105.776 163.987 105.918 163.745 105.85C161.181 105.138 158.278 105.047 155.616 105.791C155.363 105.862 155.117 105.936 154.878 106.015C154.639 106.093 154.382 105.962 154.303 105.723C154.225 105.484 154.356 105.227 154.595 105.148C154.848 105.066 155.106 104.988 155.369 104.913L155.37 104.913L155.37 104.913Z" fill="white"/>
<path fill-rule="evenodd" clip-rule="evenodd" d="M155.165 91.6601C155.311 91.4553 155.596 91.4079 155.8 91.5542C159.825 94.4302 164.014 98.4808 167.188 101.8C168.777 103.462 170.116 104.945 171.058 106.013C171.529 106.547 171.901 106.977 172.155 107.275C172.282 107.423 172.38 107.538 172.446 107.617C172.479 107.656 172.505 107.686 172.521 107.706L172.541 107.729L172.547 107.736L172.547 107.737C172.547 107.737 172.547 107.737 172.198 108.029C171.848 108.321 171.848 108.321 171.848 108.321L171.842 108.314L171.824 108.292C171.807 108.273 171.783 108.244 171.75 108.205C171.685 108.128 171.589 108.014 171.463 107.867C171.211 107.573 170.842 107.147 170.375 106.616C169.439 105.555 168.108 104.082 166.529 102.43C163.367 99.1231 159.225 95.1217 155.271 92.2959C155.066 92.1496 155.018 91.8649 155.165 91.6601ZM172.49 108.379C172.297 108.54 172.009 108.514 171.848 108.321L172.198 108.029L172.547 107.737C172.709 107.93 172.683 108.218 172.49 108.379Z" fill="white"/>
<path fill-rule="evenodd" clip-rule="evenodd" d="M168.954 94.1885C169.137 94.0166 169.426 94.0263 169.598 94.2102L169.265 94.5215L168.932 94.8327C168.76 94.6488 168.77 94.3604 168.954 94.1885ZM169.265 94.5215C168.932 94.8327 168.932 94.8327 168.932 94.8328L169.049 94.958C169.125 95.0401 169.238 95.1608 169.382 95.3154C169.669 95.6244 170.081 96.0686 170.581 96.609C171.581 97.69 172.929 99.1557 174.325 100.695C175.721 102.234 177.163 103.846 178.351 105.219C179.548 106.602 180.462 107.717 180.824 108.275C180.96 108.487 181.242 108.547 181.454 108.41C181.665 108.274 181.726 107.991 181.589 107.78C181.186 107.157 180.226 105.993 179.04 104.622C177.846 103.242 176.398 101.624 175 100.082C173.602 98.5403 172.251 97.0724 171.25 95.9901C170.75 95.4489 170.337 95.004 170.049 94.6944C169.905 94.5396 169.792 94.4186 169.715 94.3363L169.598 94.2104C169.598 94.2103 169.598 94.2102 169.265 94.5215Z" fill="white"/>
<path fill-rule="evenodd" clip-rule="evenodd" d="M180.807 132.227C181.058 132.243 181.25 132.459 181.234 132.71C181.117 134.63 180.481 135.986 179.519 137.524C179.386 137.738 179.105 137.802 178.891 137.669C178.678 137.535 178.613 137.254 178.747 137.041C179.668 135.568 180.22 134.362 180.325 132.654C180.34 132.403 180.556 132.212 180.807 132.227Z" fill="white"/>
<path d="M91.8257 99.8602V84.0235C94.4761 82.7777 96.317 80.0917 96.317 76.9681C96.317 73.0362 93.4053 69.7926 89.6217 69.2563V76.1978C89.6217 76.8177 89.119 77.3205 88.4993 77.3205C87.8796 77.3205 87.3768 76.8177 87.3768 76.1978V69.2624C83.6146 69.817 80.7241 73.0499 80.7241 76.9681C80.7241 80.0917 82.5635 82.7777 85.2155 84.0235V99.8602C82.565 101.106 80.7241 103.792 80.7241 106.916C80.7241 110.834 83.6146 114.067 87.3768 114.621V107.686C87.3768 107.066 87.8796 106.563 88.4993 106.563C89.119 106.563 89.6217 107.066 89.6217 107.686V114.627C93.4053 114.091 96.317 110.847 96.317 106.916C96.317 103.792 94.4776 101.106 91.8257 99.8602Z" fill="white"/>
<path d="M112.372 76.8967H110.962V103.427H112.372V76.8967Z" fill="#FF8D7E"/>
<path d="M113.939 69.2061H109.651L108.015 77.5376H115.575L113.939 69.2061Z" fill="#FF8D7E"/>
<path d="M119.073 96.5466H104.273V98.0492H119.073V96.5466Z" fill="#2E186A"/>
<path d="M107.504 97.2971H115.577V112.12C115.577 114.349 113.768 116.157 111.541 116.157C109.313 116.157 107.505 114.348 107.505 112.12V97.2971H107.504Z" fill="#2E186A"/>
<path d="M134.022 67.7781L138.585 76.1066L138.905 114.541H133.73H129.403L129.098 76.1492L134.022 67.7781Z" fill="white"/>
<path d="M136.174 71.7084L134.022 67.7781L131.57 71.9454L136.174 71.7084Z" fill="#FF8D7E"/>
<path d="M88.4842 82.1199C89.2392 82.1199 89.8512 81.5077 89.8512 80.7526C89.8512 79.9974 89.2392 79.3853 88.4842 79.3853C87.7292 79.3853 87.1172 79.9974 87.1172 80.7526C87.1172 81.5077 87.7292 82.1199 88.4842 82.1199Z" fill="#2E186A"/>
<path d="M88.4842 103.997C89.2392 103.997 89.8512 103.385 89.8512 102.63C89.8512 101.875 89.2392 101.262 88.4842 101.262C87.7292 101.262 87.1172 101.875 87.1172 102.63C87.1172 103.385 87.7292 103.997 88.4842 103.997Z" fill="#2E186A"/>
<path fill-rule="evenodd" clip-rule="evenodd" d="M135.679 75.6128C135.93 75.6118 136.135 75.815 136.136 76.0667L136.288 112.754C136.289 113.005 136.086 113.21 135.834 113.211C135.583 113.212 135.378 113.009 135.377 112.757L135.225 76.0705C135.224 75.8187 135.427 75.6138 135.679 75.6128Z" fill="#2E186A"/>
<path fill-rule="evenodd" clip-rule="evenodd" d="M132.033 75.6128C132.285 75.6118 132.49 75.815 132.491 76.0667L132.643 112.754C132.644 113.005 132.44 113.21 132.189 113.211C131.937 113.212 131.732 113.009 131.731 112.757L131.579 76.0705C131.578 75.8187 131.781 75.6138 132.033 75.6128Z" fill="#2E186A"/>
<path d="M125.399 131.299H151.899V124.645H125.399L119.318 127.972L125.399 131.299Z" fill="white"/>
<path d="M151.899 121.316C154.875 121.316 157.291 123.734 157.291 126.71V129.694C157.291 132.67 154.875 135.087 151.899 135.087V121.318V121.316Z" fill="white"/>
<path fill-rule="evenodd" clip-rule="evenodd" d="M125.84 123.148C126.081 123.075 126.335 123.212 126.408 123.453L129.046 132.173C129.119 132.414 128.983 132.668 128.742 132.741C128.501 132.814 128.247 132.678 128.174 132.437L125.536 123.717C125.463 123.476 125.599 123.221 125.84 123.148Z" fill="#2E186A"/>
<path fill-rule="evenodd" clip-rule="evenodd" d="M129.144 123.148C129.384 123.075 129.639 123.212 129.712 123.452L132.352 132.173C132.424 132.414 132.288 132.668 132.047 132.741C131.807 132.814 131.552 132.678 131.479 132.437L128.839 123.717C128.767 123.476 128.903 123.221 129.144 123.148Z" fill="#2E186A"/>
<path fill-rule="evenodd" clip-rule="evenodd" d="M132.449 123.148C132.689 123.075 132.944 123.212 133.017 123.453L135.655 132.173C135.728 132.414 135.592 132.668 135.351 132.741C135.11 132.814 134.856 132.678 134.783 132.437L132.144 123.717C132.072 123.476 132.208 123.221 132.449 123.148Z" fill="#2E186A"/>
<path fill-rule="evenodd" clip-rule="evenodd" d="M135.752 123.148C135.993 123.075 136.247 123.212 136.32 123.453L138.959 132.173C139.032 132.414 138.895 132.668 138.655 132.741C138.414 132.814 138.159 132.678 138.086 132.437L135.448 123.717C135.375 123.476 135.511 123.221 135.752 123.148Z" fill="#2E186A"/>
<path fill-rule="evenodd" clip-rule="evenodd" d="M139.056 123.148C139.297 123.075 139.551 123.212 139.624 123.453L142.262 132.173C142.335 132.414 142.199 132.668 141.958 132.741C141.717 132.814 141.463 132.678 141.39 132.437L138.752 123.717C138.679 123.476 138.815 123.221 139.056 123.148Z" fill="#2E186A"/>
<path fill-rule="evenodd" clip-rule="evenodd" d="M142.359 123.148C142.6 123.075 142.855 123.212 142.928 123.453L145.566 132.173C145.639 132.414 145.503 132.668 145.262 132.741C145.021 132.814 144.766 132.678 144.694 132.437L142.055 123.717C141.982 123.476 142.119 123.221 142.359 123.148Z" fill="#2E186A"/>
<path fill-rule="evenodd" clip-rule="evenodd" d="M154.196 128.202C154.196 127.95 154.4 127.746 154.651 127.746H157.29C157.541 127.746 157.745 127.95 157.745 128.202C157.745 128.453 157.541 128.657 157.29 128.657H154.651C154.4 128.657 154.196 128.453 154.196 128.202Z" fill="#2E186A"/>
<path d="M120.325 22.2217C118.412 21.2099 115.94 20.5885 112.701 20.5217C115.007 14.8716 120.75 7.9134 120.75 7.9134C120.75 7.9134 128.589 2.46688 110.26 0.0451922C96.5434 -0.761531 91.1255 9.4995 91.1255 9.4995C91.1255 9.4995 77.8687 26.4483 80.0589 41.4372C77.9841 45.9342 76.5624 55.2731 81.7114 62.4211C84.6505 66.9561 88.7819 62.883 86.4762 57.1949C84.6505 53.3603 86.4762 49.9693 86.4762 49.9693C86.4762 49.9693 89.9347 55.1196 96.1591 56.8105C102.383 58.5015 104.996 55.4265 104.996 55.4265C104.996 55.4265 109.471 55.6741 109.155 53.3603C111.58 55.1196 115.511 55.0391 118.394 52.4548C121.275 49.8706 123.286 47.2028 120.981 45.4724C118.675 43.7434 116.915 45.401 115.217 47.3167C113.116 49.6868 109.992 44.9209 109.787 42.9231C109.381 38.9745 108.454 33.9443 110.298 33.4839C110.827 33.3518 111.62 33.0555 112.498 32.7608C113.945 28.7697 117.373 24.9579 120.325 22.2202V22.2217Z" fill="#FF8D7E"/>
<path fill-rule="evenodd" clip-rule="evenodd" d="M93.8798 46.3792C93.8798 46.3793 93.8798 46.3794 93.8799 46.3795L93.4433 46.51C93.8799 46.3795 93.8798 46.3793 93.8798 46.3792L93.8799 46.3796L93.8809 46.3828C93.8819 46.386 93.8835 46.3913 93.8858 46.3987C93.8904 46.4134 93.8977 46.4361 93.9078 46.4665C93.928 46.5272 93.9592 46.6181 94.0025 46.735C94.0889 46.9687 94.2231 47.3055 94.4116 47.711C94.7892 48.5232 95.3821 49.6047 96.2427 50.6841C97.9599 52.8381 100.728 54.9707 104.996 54.9707C105.248 54.9707 105.452 55.1748 105.452 55.4265C105.452 55.6782 105.248 55.8823 104.996 55.8823C100.375 55.8823 97.3671 53.5566 95.5301 51.2524C94.6136 50.1027 93.985 48.9551 93.5853 48.0954C93.3851 47.665 93.2417 47.3052 93.1478 47.0513C93.1008 46.9243 93.0661 46.8237 93.0429 46.7538C93.0313 46.7188 93.0226 46.6916 93.0166 46.6725C93.0136 46.663 93.0113 46.6555 93.0096 46.6501L93.0077 46.6437L93.007 46.6417L93.0068 46.641C93.0068 46.6407 93.0067 46.6405 93.4433 46.51" fill="white"/>
<path fill-rule="evenodd" clip-rule="evenodd" d="M101.229 42.5129C100.776 42.4682 100.775 42.4685 100.775 42.4689L100.775 42.4697L100.775 42.4718L100.775 42.4779C100.774 42.4829 100.774 42.4897 100.773 42.4981C100.772 42.5151 100.77 42.5388 100.768 42.5691C100.765 42.6297 100.761 42.7164 100.759 42.8266C100.757 43.0467 100.763 43.361 100.798 43.7475C100.869 44.5199 101.058 45.5852 101.527 46.7661C102.471 49.1405 104.539 51.9465 108.979 53.7802C109.212 53.8762 109.478 53.7655 109.574 53.5328C109.67 53.3002 109.56 53.0337 109.327 52.9376C105.126 51.2025 103.232 48.5855 102.374 46.4292C101.943 45.3447 101.77 44.3676 101.706 43.6641C101.673 43.3126 101.668 43.0304 101.671 42.8386C101.672 42.7428 101.675 42.6697 101.678 42.6219C101.679 42.5981 101.681 42.5805 101.681 42.5697C101.682 42.5643 101.682 42.5606 101.682 42.5585L101.683 42.5568C101.707 42.3066 101.524 42.084 101.274 42.0594C101.023 42.0347 100.8 42.2177 100.776 42.4682L101.229 42.5129Z" fill="white"/>
<path d="M128.811 49.6838C130.572 49.6838 132 48.2554 132 46.4934C132 44.7314 130.572 43.303 128.811 43.303C127.049 43.303 125.621 44.7314 125.621 46.4934C125.621 48.2554 127.049 49.6838 128.811 49.6838Z" fill="#2E186A"/>
<path d="M143.164 48.8482V44.1385H139.645C139.364 42.8411 138.856 41.6272 138.164 40.5425L140.646 38.06L137.316 34.7298L134.851 37.1956C133.764 36.4876 132.546 35.965 131.239 35.6733V32.2124H126.531V35.6383C125.205 35.9148 123.965 36.4314 122.86 37.1363L120.454 34.7298L117.124 38.06L119.513 40.4498C118.792 41.5588 118.262 42.8031 117.973 44.1385H114.606V48.8482H117.973C118.262 50.1836 118.79 51.4279 119.513 52.537L117.124 54.9267L120.454 58.2569L122.86 55.8505C123.965 56.5554 125.203 57.0719 126.531 57.3484V60.7743H131.239V57.3135C132.546 57.0218 133.764 56.4992 134.851 55.7912L137.316 58.2569L140.646 54.9267L138.164 52.4443C138.855 51.3595 139.364 50.1472 139.645 48.8482H143.164ZM128.811 53.33C125.036 53.33 121.976 50.2687 121.976 46.4934C121.976 42.718 125.036 39.6567 128.811 39.6567C132.585 39.6567 135.646 42.718 135.646 46.4934C135.646 50.2687 132.585 53.33 128.811 53.33Z" fill="white"/>
<path d="M120.325 22.2217C117.373 24.9594 113.945 28.7712 112.498 32.7623C114.68 32.03 117.402 31.3068 117.978 33.1147C118.784 35.6519 118.669 39.687 122.589 38.7648C126.508 37.8426 125.689 27.4403 123.615 24.9032C122.753 23.8518 121.681 22.9388 120.326 22.2217H120.325Z" fill="#FF8D7E"/>
</svg>
