<svg xmlns="http://www.w3.org/2000/svg" width="549" height="320" fill="none" viewBox="0 0 549 320"><rect width="111" height="249" x="265.923" y="36.962" fill="#e3e3fd" rx="20"/><path fill="#2e186a" d="M369.406 31.962h-87.963a18.96 18.96 0 0 0-13.449 5.607 19.2 19.2 0 0 0-5.571 13.535v119.512h6.923v-119.4c0-5.574 4.616-10.092 10.347-10.092h19.682v4.212a2.53 2.53 0 0 0 1.578 2.319c.307.122.634.183.965.178h36.39a2.5 2.5 0 0 0 1.785-.712 2.54 2.54 0 0 0 .762-1.773v-4.224h19.678c5.715 0 10.346 4.518 10.346 10.092v124.746h6.812V49.768c0-8.129-6.804-14.779-15.174-14.779-.306 0-.599-.122-.816-.34a1.166 1.166 0 0 1 0-1.642c.217-.218.51-.34.816-.34 9.639 0 17.482 7.672 17.482 17.101v126.194h8.424V51.104c0-5.076-2.004-9.944-5.57-13.534a18.96 18.96 0 0 0-13.447-5.608M269.423 170.962h-7v100h7z"/><path fill="#2e186a" d="M370.423 143.962v52.734l7 1.266v-54z"/><path fill="#2e186a" d="M377.423 266.583v-77.536l-6.798-1.085v81.698c0 5.539-4.606 10.028-10.325 10.028h-80.674c-5.458 0-9.926-4.116-10.294-9.328h-6.909c.553 10.001 9.085 18.602 19.191 18.602l82.029-.658a1.15 1.15 0 0 1 .883-1.131c5.569-1.334 9.427-5.158 11.465-11.362a29.8 29.8 0 0 0 1.432-9.228"/><path fill="#2e186a" d="M379.931 143.962v123.047a31.7 31.7 0 0 1-1.52 10.032c-1.873 5.739-5.293 9.802-9.988 11.921h.83a19.18 19.18 0 0 0 13.554-5.61 19.14 19.14 0 0 0 5.616-13.539V143.962zM363.456 289.187c.064.221.217.417.434.557s.486.217.762.218q.146.002.288-.027a22 22 0 0 0 3.483-.973h-5a.7.7 0 0 0 .033.225"/><path fill="#2e186a" fill-rule="evenodd" d="M446.423 288.11a1.156 1.156 0 0 1-1.153 1.16l-414.697 2.689a1.156 1.156 0 0 1-1.163-1.149 1.156 1.156 0 0 1 1.152-1.159l414.697-2.689a1.156 1.156 0 0 1 1.164 1.148" clip-rule="evenodd"/><path fill="#ff8d7e" fill-rule="evenodd" d="m197.803 206.75-.237-.237c-5.828-5.237-11.42-11.735-16.854-14.294-1.418-7.325-7.561-15.516-32.212-10.987-15.516 3.82-18.942 9.53-17.209 15.122-5.316 3.189-16.185 10.986-25.911 26.069-13.468 20.91 30.007 53.949 37.686 53.949s61.746-21.107 61.746-21.107l3.19-9.609c4.528-13.861.591-29.14-10.199-38.906" clip-rule="evenodd"/><path fill="#2f4077" fill-rule="evenodd" d="M180.712 192.179c.591 3.032.355 5.907.276 7.64-.315 7.324-4.214 10.79-5.041 13.507 5.316-3.19 10.278-10.514 12.68-15.279-1.575-1.457-5.276-4.568-7.915-5.868M150.39 213.877c-2.638-1.22-16.933-9.451-19.217-17.878-2.717 1.457-6.064 3.584-8.663 6.734 3.032 1.851 20.162 12.011 27.723 11.459.118 0 .197 0 .315-.039-.079-.079-.118-.197-.158-.276" clip-rule="evenodd"/><path fill="#fff" fill-rule="evenodd" d="m145.546 192.179-3.071 3.151s14.61 11.105 19.335 37.843c3.072 17.366 4.686 33.709 4.686 33.709l9.057-.473s-7.679-43.277-4.528-52.413c3.15-9.136.275-19.414-1.851-21.068-2.166-1.694-23.628-.749-23.628-.749M142.672 173.316s-5.277 1.418-3.151 5.907c2.127 4.49 7.286.315 7.286.315l-2.442-6.537z" clip-rule="evenodd"/><path fill="#2f4077" fill-rule="evenodd" d="m144.149 171.841-1.693.315-.091.02-.117.034a8.098 8.098 0 0 0-2.06.981c-2.181 1.456-3.071 3.718-1.734 6.539.922 1.946 2.469 2.844 4.32 2.749 1.076-.055 2.166-.432 3.244-1.02a10.6 10.6 0 0 0 1.532-1.001c.395-.32.541-.856.363-1.332l-2.441-6.537a1.18 1.18 0 0 0-1.323-.748m-.544 2.504 1.775 4.75-.127.079a9 9 0 0 1-.367.211c-.793.433-1.567.701-2.232.735-.908.046-1.558-.331-2.065-1.401-.784-1.656-.371-2.707.911-3.563.327-.218.684-.4 1.041-.543l.068-.027q.166-.064.271-.098l.061-.019z" clip-rule="evenodd"/><path fill="#fff" fill-rule="evenodd" d="M154.052 154.651c1.379-.473 10.79-3.426 13.823 4.292 3.032 7.719 4.056 16.815 4.174 21.068s-18.666 6.892-19.808 6.813c-1.142-.118-2.678-1.024-2.678-1.024l-5.552-11.656c.039.039-4.647-14.531 10.041-19.493" clip-rule="evenodd"/><path fill="#2f4077" fill-rule="evenodd" d="M156.137 152.878c-.89.176-1.662.388-2.309.602l-.159.053c-5.586 1.887-9.011 5.257-10.569 9.654-1.13 3.191-1.178 6.542-.591 9.694q.121.643.254 1.165l.055.212.023.084.002.009q.029.148.101.301l5.553 11.656c.101.212.263.39.466.509l.14.081c.252.142.6.32 1.004.5.361.16.716.296 1.06.4q.5.152.952.201l.041.003c1.022.071 6.337-.761 10.403-1.732l.335-.081c6.611-1.619 10.409-3.438 10.332-6.211-.174-6.261-1.653-14.841-4.256-21.467-1.525-3.882-4.605-5.737-8.563-5.965-1.404-.081-2.845.049-4.274.332m4.138 2.026c3.104.179 5.344 1.529 6.5 4.471 2.493 6.345 3.926 14.662 4.093 20.668.004.137-.104.344-.403.628-.385.365-.998.754-1.811 1.144-1.541.738-3.712 1.441-6.318 2.079-1.961.48-4.095.905-6.133 1.24l-.683.11-.409.062c-1.298.195-2.402.325-2.718.338l-.053.001.022.003a3 3 0 0 1-.512-.112 7 7 0 0 1-.785-.298l-.169-.077a14 14 0 0 1-.329-.161l-.101-.053-5.341-11.213-.047-.174-.024-.093a16 16 0 0 1-.222-1.02c-.518-2.778-.476-5.731.495-8.471 1.316-3.714 4.198-6.549 9.103-8.206a17 17 0 0 1 2.167-.575c1.246-.247 2.492-.359 3.678-.291" clip-rule="evenodd"/><path fill="#fff" fill-rule="evenodd" d="m149.09 183.241-.354 5.867-2.875 3.308s8.546 5.277 16.776 14.61c0 0 6.694-7.088 7.876-18.154z" clip-rule="evenodd"/><path fill="#2f4077" fill-rule="evenodd" d="m147.911 183.167-.33 5.467-2.611 3.005a1.18 1.18 0 0 0 .208 1.739l.063.041q.072.045.274.175l.314.205q.332.219.73.492l.465.323a76 76 0 0 1 3.08 2.277 86 86 0 0 1 10.781 9.948q.438.48.866.966c.46.521 1.268.535 1.745.03l.1-.109c.286-.313.715-.826 1.243-1.526a35 35 0 0 0 2.865-4.5c2.068-3.851 3.493-8.11 3.984-12.705a1.18 1.18 0 0 0-.875-1.268l-21.422-5.631a1.182 1.182 0 0 0-1.48 1.071m2.272 1.58 19.03 5.002-.007.057c-.549 3.869-1.813 7.48-3.583 10.777a32.6 32.6 0 0 1-2.671 4.195l-.232.304-.111.141.022.025a88.6 88.6 0 0 0-11.077-10.223 77 77 0 0 0-3.658-2.682l-.256-.175 1.988-2.287c.171-.197.272-.444.287-.704z" clip-rule="evenodd"/><path fill="#869ece" fill-rule="evenodd" d="M145.861 173.592c1.142.669 4.805 5.119 5.986 7.324 0 0 5.552-3.465 14.176-5.749 0 0 4.726-1.063 6.734-.985 0 0 1.654 8.467-1.102 13.744s-11.145 6.064-15.555 4.41c-4.45-1.654-5.356-2.756-6.931-5.316s-6.458-12.404-6.458-12.404z" clip-rule="evenodd"/><path fill="#2f4077" fill-rule="evenodd" d="M143.814 175.995s-3.426-3.23-5.395-7.01c-1.851-3.544-1.063-7.915 2.008-10.475 2.56-2.126 5.001-1.575 5.001-1.575s-4.41-4.489-.905-10.317a8.7 8.7 0 0 1 5.591-4.017c5.71-1.221 8.664 3.111 8.664 3.111s3.308-12.641 17.405-9.136c1.418.354 3.308 1.851 4.293 2.953 5.985 6.577-5.356 18.863-12.247 21.344-7.561 2.678-12.405 2.52-15.358 1.26 2.126.709 2.914 12.798-9.057 13.862M164.469 170.989c.59-.22 1.244.062 1.494.631l.026.064 2.638 7.088a1.182 1.182 0 0 1-1.055 1.593l-.069.001-2.756-.04a1.182 1.182 0 0 1-.036-2.361l.069-.001 1.031.014-2.037-5.47a1.18 1.18 0 0 1 .631-1.493zM168.407 172.45c.422-.104.637-.702.481-1.335-.157-.634-.626-1.063-1.048-.958s-.638.702-.481 1.335c.156.634.625 1.063 1.048.958M161.668 174.04c.434-.023.758-.57.722-1.222-.035-.651-.416-1.16-.85-1.137-.434.024-.758.571-.722 1.222.035.652.416 1.161.85 1.137" clip-rule="evenodd"/><path fill="#2f4077" fill-rule="evenodd" d="M159.444 167.017a1.182 1.182 0 0 1 .154 2.357l-.069.004c-.646.023-1.145.251-1.546.626a2.3 2.3 0 0 0-.44.545l-.014.03a1.182 1.182 0 1 1-2.149-.982l.052-.107a4.818 4.818 0 0 1 .937-1.211c.798-.747 1.828-1.217 3.075-1.262M167.923 162.789c.868.001 1.661.288 2.283.911a1.18 1.18 0 0 1-1.614 1.724l-.056-.053c-.15-.15-.341-.219-.617-.22-.334 0-.742.105-1.163.285q-.235.103-.43.211l-.134.078a1.182 1.182 0 0 1-1.281-1.985c.199-.129.513-.303.912-.474.692-.298 1.396-.479 2.1-.477M165.591 181.274l-4.135.276a1.181 1.181 0 0 0-.889 1.856c.075.108.194.248.36.406.248.235.552.464.916.672.758.432 1.691.728 2.805.838q.072.006.145.005c1.298-.032 2.1-.826 2.19-1.931a3 3 0 0 0-.1-1.02 3 3 0 0 0-.119-.367 1.18 1.18 0 0 0-1.173-.735M153.229 213.118a1.18 1.18 0 0 1 1.481.66l.031.084.14.413.153.468.165.522.058.186a79 79 0 0 1 1.136 4.056c.621 2.47 1.1 4.891 1.383 7.171q.075.602.131 1.187a1.182 1.182 0 0 1-2.353.222 37 37 0 0 0-.122-1.118c-.27-2.175-.732-4.503-1.331-6.886a76 76 0 0 0-.989-3.567l-.113-.367a52 52 0 0 0-.214-.681l-.281-.845a1.18 1.18 0 0 1 .725-1.505M173.788 212.556c.643.113 1.073.725.96 1.368l-.03.183-.066.427-.018.123c-.088.6-.177 1.28-.259 2.024-.349 3.156-.485 6.393-.285 9.398q.046.704.118 1.378a1.181 1.181 0 0 1-2.349.25 35 35 0 0 1-.127-1.471c-.21-3.163-.069-6.531.295-9.814.074-.677.154-1.303.234-1.869l.073-.491.087-.545a1.18 1.18 0 0 1 1.367-.961M140.982 225.123a1.182 1.182 0 0 1 1.623 1.716l-.055.051-6.3 5.592a1.18 1.18 0 0 1-1.407.12c-3.483-2.16-6.359-2.085-8.698-.711a6.5 6.5 0 0 0-.92.65l-.099.086a4 4 0 0 0-.133.124l-.034.036a1.182 1.182 0 0 1-1.748-1.59c.096-.105.257-.263.481-.454a9 9 0 0 1 1.256-.889c2.851-1.675 6.347-1.879 10.247.223l.127.069z" clip-rule="evenodd"/><path fill="#2f4077" fill-rule="evenodd" d="M133.848 230.739c.311-.546.991-.75 1.548-.476l16.28 9.233q.158.088.21.115a1.18 1.18 0 0 1-1.036 2.122l-.116-.059c-.347-.189-1.774-.994-4.087-2.305l-7.866-4.466-4.49-2.553a1.18 1.18 0 0 1-.443-1.611M186.691 222.919a1.18 1.18 0 0 1 1.529.537l.03.063 3.15 7.088a1.18 1.18 0 0 1-2.129 1.022l-.03-.063-3.15-7.088a1.18 1.18 0 0 1 .6-1.559M150.587 265.227s-15.633-5.671-35.008-17.366c-19.335-11.696-31.661 6.419-26.463 13.783 4.608 6.536 30.361 28.943 30.361 28.943l87.698-.63s20.595-22.603 23.824-26.108c10.948-11.971 1.891-18.272-10.12-19.217-11.302-.867-41.86 18.508-45.601 21.028z" clip-rule="evenodd"/><path fill="#6a6af4" fill-rule="evenodd" d="M204.222 230.378H147.87c-.748 0-1.378.512-1.536 1.221l-7.639 32.33h-14.177s-1.299 6.616 6.183 6.616h7.954c.158.039.276.078.473.078h56.351c.749 0 1.379-.511 1.536-1.22l8.742-37.056c.276-1.024-.512-1.969-1.535-1.969" clip-rule="evenodd"/><path fill="#2e186a" fill-rule="evenodd" d="M204.422 83.91a.985.985 0 0 1-.972 1l-2 .052a.99.99 0 0 1-1.027-.948.986.986 0 0 1 .973-1l2-.052c.552-.014 1.012.41 1.026.948M197.423 84.09a1.153 1.153 0 0 1-1.13 1.176l-2.337.045a1.153 1.153 0 0 1-1.175-1.13 1.154 1.154 0 0 1 1.133-1.174l2.332-.045a1.153 1.153 0 0 1 1.177 1.128m-6.96.13c.01.636-.498 1.16-1.135 1.17l-2.129.033-2.494.04a1.153 1.153 0 1 1-.037-2.304l4.623-.073a1.153 1.153 0 0 1 1.172 1.133m-9.24.15a1.15 1.15 0 0 1-1.131 1.174q-2.371.046-4.627.107a1.154 1.154 0 0 1-1.186-1.12 1.153 1.153 0 0 1 1.122-1.183q2.267-.06 4.646-.108a1.15 1.15 0 0 1 1.176 1.13m-9.268.24a1.15 1.15 0 0 1-1.105 1.198q-2.357.097-4.585.235a1.154 1.154 0 0 1-1.224-1.078 1.154 1.154 0 0 1 1.08-1.222q2.256-.14 4.634-.237a1.15 1.15 0 0 1 1.2 1.103m-9.238.532a1.15 1.15 0 0 1-1.04 1.255q-2.342.219-4.537.52a1.153 1.153 0 1 1-.316-2.282q2.252-.309 4.637-.532a1.153 1.153 0 0 1 1.256 1.04m-9.176 1.172a1.15 1.15 0 0 1-.906 1.355 58 58 0 0 0-4.409 1.052 1.154 1.154 0 0 1-1.424-.795 1.15 1.15 0 0 1 .796-1.422q2.222-.625 4.586-1.094a1.154 1.154 0 0 1 1.357.904m-8.938 2.342a1.15 1.15 0 0 1-.654 1.493 39 39 0 0 0-4.085 1.868 1.153 1.153 0 1 1-1.082-2.035 42 42 0 0 1 4.326-1.978 1.155 1.155 0 0 1 1.495.652m-8.278 4.093c.365.521.239 1.24-.283 1.605a37 37 0 0 0-3.509 2.785 1.151 1.151 0 1 1-1.54-1.715 40 40 0 0 1 3.725-2.958 1.155 1.155 0 0 1 1.607.283m-7.057 5.942a1.15 1.15 0 0 1 .087 1.627 50 50 0 0 0-2.865 3.504 1.154 1.154 0 0 1-1.85-1.376 52 52 0 0 1 2.999-3.668 1.155 1.155 0 0 1 1.629-.087m-83.785 8.235c0 .636-.515 1.153-1.152 1.154a25.4 25.4 0 0 0-5.81.683 1.153 1.153 0 1 1-.533-2.241 27.5 27.5 0 0 1 6.34-.746 1.153 1.153 0 0 1 1.155 1.15m78.091-.969c.537.341.697 1.053.355 1.59a76 76 0 0 0-2.326 3.923 1.155 1.155 0 0 1-1.568.451 1.15 1.15 0 0 1-.451-1.566 78 78 0 0 1 2.397-4.043 1.156 1.156 0 0 1 1.593-.355m-74.292 1.406a1.154 1.154 0 0 1 1.387-.859 27.6 27.6 0 0 1 6.004 2.165c.57.283.802.975.517 1.544-.284.57-.976.801-1.547.518a25.286 25.286 0 0 0-5.502-1.984 1.15 1.15 0 0 1-.859-1.384m-15.743 1.853a1.15 1.15 0 0 1-.514 1.546 25.4 25.4 0 0 0-4.889 3.206 1.155 1.155 0 0 1-1.625-.144 1.15 1.15 0 0 1 .144-1.622 27.6 27.6 0 0 1 5.335-3.499 1.154 1.154 0 0 1 1.549.513m26.854 3.085a1.155 1.155 0 0 1 1.625-.148 27.505 27.505 0 0 1 4.4 4.617 1.15 1.15 0 0 1-.23 1.613c-.508.382-1.232.28-1.615-.229a25.3 25.3 0 0 0-4.032-4.231 1.15 1.15 0 0 1-.148-1.622m58.57 1.677c.572.281.808.971.527 1.542a118 118 0 0 0-1.934 4.135 1.154 1.154 0 0 1-2.108-.935q.977-2.197 1.971-4.216a1.155 1.155 0 0 1 1.544-.526m-95.08 2.62a1.15 1.15 0 0 1 .233 1.612 25.3 25.3 0 0 0-2.936 5.052 1.154 1.154 0 0 1-2.117-.919 27.6 27.6 0 0 1 3.205-5.512 1.154 1.154 0 0 1 1.614-.233m44.235 5.082a1.154 1.154 0 0 1 1.52.593q.639 1.46 1.108 2.989l.002.005v.002l.01.032q.014.042.037.119.046.155.128.447c.108.389.257.955.426 1.679a1.154 1.154 0 0 1-2.248.522 39 39 0 0 0-.518-1.99l-.03-.099-.007-.022v-.005h-.001l-.004-.012a25 25 0 0 0-1.017-2.743 1.15 1.15 0 0 1 .594-1.517m47.011.69c.591.239.874.911.634 1.501a165 165 0 0 0-.861 2.159 83 83 0 0 1-.859 2.108c-.249.586-.926.86-1.513.612a1.15 1.15 0 0 1-.612-1.51q.428-1.009.834-2.048l1.075.419-1.075-.419q.436-1.115.874-2.189c.24-.59.913-.873 1.503-.633m-96.576 5.144c.627.112 1.044.711.931 1.337a25.2 25.2 0 0 0-.363 5.83 1.153 1.153 0 0 1-2.304.124 27.5 27.5 0 0 1 .396-6.362 1.153 1.153 0 0 1 1.34-.929m93.084 3.184c.571.282.805.973.522 1.544a73 73 0 0 1-2.13 3.985 1.154 1.154 0 0 1-2.001-1.148 70 70 0 0 0 2.063-3.859c.283-.57.975-.804 1.546-.522m-40.722.525a1.154 1.154 0 0 1 1.31.971c.207 1.399.392 2.974.519 4.69a1.153 1.153 0 0 1-2.302.169 62 62 0 0 0-.5-4.522 1.15 1.15 0 0 1 .973-1.308m36.41 7.25c.53.353.674 1.068.321 1.597a66 66 0 0 1-2.638 3.676 1.154 1.154 0 0 1-1.828-1.406 63 63 0 0 0 2.545-3.547 1.155 1.155 0 0 1 1.6-.32m-88.648 1.184c.612-.18 1.253.17 1.432.78a25.2 25.2 0 0 0 2.287 5.376 1.154 1.154 0 0 1-2.005 1.14 27.5 27.5 0 0 1-2.495-5.866c-.18-.611.17-1.251.781-1.43m53.086.789c.637 0 1.153.516 1.152 1.153a60 60 0 0 1-.188 4.727 1.154 1.154 0 0 1-2.3-.183c.125-1.569.18-3.09.181-4.547 0-.636.518-1.151 1.155-1.15m30.259 5.156c.476.424.517 1.152.093 1.627a61 61 0 0 1-3.152 3.271 1.155 1.155 0 0 1-1.631-.029 1.15 1.15 0 0 1 .03-1.629 58 58 0 0 0 3.031-3.148 1.155 1.155 0 0 1 1.629-.092m-30.815 4.083c.628.103 1.054.695.951 1.323-.25 1.521-.57 3.07-.974 4.637a1.153 1.153 0 0 1-2.235-.574c.386-1.497.693-2.979.932-4.436a1.153 1.153 0 0 1 1.326-.95m-46.979.777a1.154 1.154 0 0 1 1.63.058q.998 1.07 2.117 2.022l.033.029q.795.73 1.633 1.417a1.15 1.15 0 0 1 .158 1.621 1.154 1.154 0 0 1-1.624.159 41 41 0 0 1-1.712-1.486 28 28 0 0 1-2.293-2.192 1.15 1.15 0 0 1 .058-1.628m71.5 1.439a1.15 1.15 0 0 1-.155 1.621 57 57 0 0 1-3.614 2.748 1.151 1.151 0 1 1-1.325-1.886 55 55 0 0 0 3.47-2.638 1.154 1.154 0 0 1 1.624.155M31.53 156.88a1.155 1.155 0 0 1 1.598-.33 43 43 0 0 0 3.741 2.193c.565.295.784.99.49 1.554a1.155 1.155 0 0 1-1.557.489 46 46 0 0 1-3.942-2.311 1.15 1.15 0 0 1-.33-1.595m57.02.267c.322.548.139 1.254-.41 1.577a57 57 0 0 1-4.013 2.144 1.152 1.152 0 1 1-1.006-2.074 54 54 0 0 0 3.849-2.056 1.154 1.154 0 0 1 1.58.409m-19.454 1.543c.6.216.91.876.694 1.475a48 48 0 0 1-1.322 3.279 53 53 0 0 0 2.304-.433 1.153 1.153 0 1 1 .476 2.255 56 56 0 0 1-4.482.755 1.153 1.153 0 0 1-1.002-1.915 1.15 1.15 0 0 1 .112-.551 46 46 0 0 0 1.744-4.172 1.154 1.154 0 0 1 1.476-.693m11.52 2.499a1.15 1.15 0 0 1-.658 1.491 56 56 0 0 1-4.3 1.468A1.151 1.151 0 1 1 75 161.94a54 54 0 0 0 4.124-1.408 1.154 1.154 0 0 1 1.493.657m-41.308.007c.24-.59.912-.874 1.502-.635a47 47 0 0 0 4.103 1.445 1.153 1.153 0 1 1-.669 2.206 50 50 0 0 1-4.3-1.516 1.15 1.15 0 0 1-.636-1.5m8.455 2.776a1.153 1.153 0 0 1 1.365-.892 52 52 0 0 0 4.3.706 1.152 1.152 0 1 1-.278 2.287 53 53 0 0 1-4.494-.738 1.15 1.15 0 0 1-.893-1.363m15.571 1.237a1.15 1.15 0 0 1-1.1 1.202 55 55 0 0 1-4.55.019 1.153 1.153 0 1 1 .086-2.302q2.167.08 4.36-.018a1.153 1.153 0 0 1 1.204 1.099m1.98 1.925a1.15 1.15 0 0 1 .386 1.583 47 47 0 0 1-2.667 3.916 1.155 1.155 0 0 1-1.617.223 1.15 1.15 0 0 1-.223-1.613 44 44 0 0 0 2.535-3.724 1.155 1.155 0 0 1 1.585-.385m-5.393 7.503a1.15 1.15 0 0 1 .063 1.628 50 50 0 0 1-3.385 3.32 1.155 1.155 0 0 1-1.628-.09 1.15 1.15 0 0 1 .09-1.627 48 48 0 0 0 3.23-3.168 1.155 1.155 0 0 1 1.63-.063m-6.756 6.33a1.15 1.15 0 0 1-.234 1.612 58 58 0 0 1-3.899 2.667 1.152 1.152 0 1 1-1.227-1.951 56 56 0 0 0 3.745-2.562 1.155 1.155 0 0 1 1.615.234m-7.735 5.075a1.15 1.15 0 0 1-.479 1.557 71 71 0 0 1-4.225 2.059 1.152 1.152 0 1 1-.944-2.102 69 69 0 0 0 4.088-1.992 1.155 1.155 0 0 1 1.56.478m-8.375 3.92a1.15 1.15 0 0 1-.67 1.486 88 88 0 0 1-4.441 1.545 1.152 1.152 0 1 1-.702-2.194 87 87 0 0 0 4.325-1.505 1.153 1.153 0 0 1 1.488.668m-8.83 2.947a1.15 1.15 0 0 1-.817 1.41q-2.19.585-4.515 1.102a1.152 1.152 0 1 1-.5-2.249q2.278-.506 4.42-1.078c.615-.165 1.247.2 1.412.815m-8.975 2.094a1.15 1.15 0 0 1-.928 1.34q-2.267.413-4.656.762a1.152 1.152 0 1 1-.335-2.279q2.351-.344 4.577-.75a1.154 1.154 0 0 1 1.342.927m-9.164 1.424a1.15 1.15 0 0 1-1.015 1.275q-1.177.135-2.38.254a1.153 1.153 0 1 1-.228-2.292q1.187-.118 2.346-.251a1.154 1.154 0 0 1 1.277 1.014" clip-rule="evenodd"/><path fill="#2e186a" fill-rule="evenodd" d="M5.418 197.235c.059.766-.451 1.439-1.14 1.504-.839.079-1.677.149-2.509.219h-.003c-.688.057-1.288-.517-1.34-1.283-.051-.766.465-1.434 1.153-1.491.835-.07 1.662-.139 2.488-.217.688-.065 1.293.503 1.351 1.268M196.593 70.524a1.17 1.17 0 0 1 1.129-.555l44.66 4.95a1.168 1.168 0 0 1 .678 2.008l-25.958 24.712a1.17 1.17 0 0 1-1.802-.23l-7.286-11.755-6.064 2.421a1.17 1.17 0 0 1-1.573-1.352l2.317-9.87-6.074-9.073a1.17 1.17 0 0 1-.027-1.256m3.37 2.045 4.958 7.408c.18.269.241.6.167.916l-1.921 8.18 4.89-1.953a1.17 1.17 0 0 1 1.429.47l7.044 11.365 23.098-21.99z" clip-rule="evenodd"/><path fill="#2e186a" fill-rule="evenodd" d="M239.42 77.094c.046.673-.427 1.259-1.057 1.308l-32.714 2.557c-.629.049-1.177-.457-1.223-1.13s.427-1.258 1.056-1.307l32.715-2.557c.629-.049 1.177.456 1.223 1.13" clip-rule="evenodd"/><path fill="#2e186a" fill-rule="evenodd" d="M239.351 76.712a1.167 1.167 0 0 1-.659 1.489l-27.746 10.687a1.12 1.12 0 0 1-1.451-.676 1.165 1.165 0 0 1 .659-1.489L237.9 76.036a1.12 1.12 0 0 1 1.451.676" clip-rule="evenodd"/><g filter="url(#a)"><rect width="147.464" height="101" x="279.268" y=".962" fill="#fff" rx="8"/><rect width="146.464" height="100" x="279.768" y="1.462" stroke="#e6e6e6" rx="7.5"/></g><path fill="#283276" d="M341.938 61.636a4.09 4.09 0 0 1-4.087 4.087 4.076 4.076 0 0 1-4.087-4.087 4.09 4.09 0 0 1 4.087-4.088 4.09 4.09 0 0 1 4.087 4.088"/><path fill="#f29fc5" d="M315.06 46.42a4.09 4.09 0 0 1-4.087 4.087 4.077 4.077 0 0 1-4.088-4.087 4.09 4.09 0 0 1 4.088-4.088 4.077 4.077 0 0 1 4.087 4.087"/><path fill="#008ecf" d="M334.23 57.17a4.09 4.09 0 0 1-4.087 4.088 4.09 4.09 0 0 1-4.087-4.088 4.09 4.09 0 0 1 4.087-4.087c2.266.023 4.087 1.844 4.087 4.087"/><path fill="#f29fc5" d="M324.367 62.102a4.09 4.09 0 0 1-4.087 4.087 4.09 4.09 0 0 1-4.087-4.087 4.09 4.09 0 0 1 4.087-4.087c2.266.022 4.087 1.843 4.087 4.087"/><path fill="#283276" d="M324.367 71.72a4.09 4.09 0 0 1-4.087 4.088 4.09 4.09 0 0 1-4.087-4.088 4.09 4.09 0 0 1 4.087-4.087c2.266.022 4.087 1.844 4.087 4.087M341.938 41.333a4.09 4.09 0 0 1-4.087 4.087 4.076 4.076 0 0 1-4.087-4.087 4.09 4.09 0 0 1 4.087-4.088 4.09 4.09 0 0 1 4.087 4.088M334.23 46.42a4.09 4.09 0 0 1-4.087 4.087 4.09 4.09 0 0 1-4.087-4.087 4.09 4.09 0 0 1 4.087-4.088 4.076 4.076 0 0 1 4.087 4.087M314.46 57.548a4.09 4.09 0 0 1-4.087 4.087 4.076 4.076 0 0 1-4.087-4.087 4.09 4.09 0 0 1 4.087-4.087 4.076 4.076 0 0 1 4.087 4.087M306.686 40.444a4.07 4.07 0 0 1-3.088 4.865 4.07 4.07 0 0 1-4.865-3.088 4.07 4.07 0 0 1 3.088-4.864 4.07 4.07 0 0 1 4.865 3.087"/><path fill="#e1000f" d="M306.286 49.263a2.326 2.326 0 0 1-2.621 1.977 2.325 2.325 0 0 1-1.977-2.622 2.326 2.326 0 0 1 2.621-1.977 2.327 2.327 0 0 1 1.977 2.622M329.676 66.078c-.2 1.466-1.555 2.466-3.021 2.266s-2.465-1.555-2.266-3.021c.2-1.466 1.555-2.466 3.021-2.266 1.467.2 2.466 1.555 2.266 3.021M337.584 49.174a1.59 1.59 0 0 1-1.821 1.355 1.623 1.623 0 0 1-1.378-1.822 1.59 1.59 0 0 1 1.822-1.355c.888.134 1.51.934 1.377 1.822M321.702 41.6a2.326 2.326 0 0 1-2.621 1.976 2.326 2.326 0 0 1-1.977-2.621 2.326 2.326 0 0 1 2.621-1.977 2.326 2.326 0 0 1 1.977 2.621"/><path fill="#f29fc5" d="M328.366 38.578a2.327 2.327 0 0 1-2.622 1.977 2.325 2.325 0 0 1-1.976-2.621 2.326 2.326 0 0 1 2.621-1.977c1.288.178 2.177 1.355 1.977 2.621"/><path fill="#ffe000" d="M313.283 64.101a2.326 2.326 0 0 1-2.621 1.977 2.326 2.326 0 0 1-1.977-2.621 2.326 2.326 0 0 1 2.621-1.977 2.31 2.31 0 0 1 1.977 2.621M336.118 53.683a2.326 2.326 0 0 1-2.621 1.977 2.326 2.326 0 0 1-1.977-2.621 2.326 2.326 0 0 1 2.621-1.977c1.266.155 2.155 1.333 1.977 2.621"/><path fill="#283276" d="M333.452 64.456a2.31 2.31 0 0 1-.733 3.2 2.31 2.31 0 0 1-3.198-.734 2.31 2.31 0 0 1 .733-3.199 2.33 2.33 0 0 1 3.198.733"/><path fill="#ffe000" d="M315.726 37.2a2.326 2.326 0 0 1-2.621 1.978 2.327 2.327 0 0 1-1.977-2.621 2.326 2.326 0 0 1 2.621-1.977 2.325 2.325 0 0 1 1.977 2.62"/><path fill="#008ecf" d="M324.567 31.403a4.29 4.29 0 0 1-4.287 4.288 4.29 4.29 0 0 1-4.287-4.288 4.29 4.29 0 0 1 4.287-4.287 4.275 4.275 0 0 1 4.287 4.287M306.752 61.613a4.09 4.09 0 0 1-4.087 4.087c-2.266 0-4.065-1.821-4.065-4.087a4.09 4.09 0 0 1 4.087-4.087c2.266 0 4.065 1.844 4.065 4.087M326.855 50.64a7.1 7.1 0 0 1-7.108 7.108 7.1 7.1 0 0 1-7.108-7.108 7.1 7.1 0 0 1 7.108-7.108c3.91-.023 7.108 3.176 7.108 7.108"/><path fill="#283276" d="M351.49 36.58h7.197v1.798H353.6v3.643h4.354v1.777H353.6v5.687h-2.11zM360.375 40.2h1.888v1.044c.644-.711 1.466-1.244 2.599-1.244.289 0 .578.044.822.133v1.866a4.2 4.2 0 0 0-.977-.133c-1.178 0-1.955.622-2.444 1.421v6.198h-1.888zM366.817 47.064c0-1.4 1.088-2.422 3.065-2.755l2.999-.488v-.49c0-1.132-.844-1.843-2.044-1.843-1.021 0-1.799.467-2.332 1.222l-1.422-1.089c.822-1.11 2.155-1.799 3.821-1.799 2.51 0 3.887 1.466 3.887 3.532v6.131h-1.888v-1.044c-.666.822-1.821 1.333-2.976 1.333-1.866 0-3.11-1.066-3.11-2.71m3.443 1.155c1.155 0 2.066-.556 2.621-1.444v-1.6l-2.51.423c-1.155.2-1.644.71-1.644 1.4 0 .71.578 1.22 1.533 1.22M377.457 40.2h1.888v.91c.71-.733 1.621-1.266 2.954-1.266 2.044 0 3.621 1.377 3.621 4.065v5.576h-1.911v-5.51c0-1.465-.821-2.354-2.132-2.354-1.266 0-2.021.8-2.51 1.6v6.264h-1.91zM395.627 46.842l1.488 1.133c-.844 1.132-2.221 1.888-3.931 1.888-3.11 0-5.065-2.31-5.065-5.02s1.955-5.02 5.065-5.02c1.688 0 3.087.732 3.931 1.887l-1.488 1.133a2.96 2.96 0 0 0-2.443-1.244c-1.8 0-3.088 1.4-3.088 3.221 0 1.844 1.288 3.221 3.088 3.221a2.9 2.9 0 0 0 2.443-1.2M403.402 49.863c-3.199 0-5.109-2.31-5.109-5.02 0-2.777 1.777-5.02 4.709-5.02 2.555 0 4.221 1.754 4.221 4.109 0 .422-.045.844-.134 1.133h-6.863c.133 2.021 1.355 3.087 3.154 3.087 1.133 0 2.066-.489 2.643-1.266l1.377 1.11c-.844 1.134-2.265 1.867-3.998 1.867m-3.043-6.22h4.998c-.045-1.155-.867-2.221-2.355-2.221-1.399 0-2.354.777-2.643 2.22M350.112 53.172h10.418v1.933h-4.154v10.973h-2.11V55.105h-4.154zM361.441 56.77h1.888v1.045c.644-.711 1.466-1.244 2.599-1.244.289 0 .578.044.822.133v1.866a4.2 4.2 0 0 0-.978-.133c-1.177 0-1.954.622-2.443 1.421v6.198h-1.888zM367.861 63.657c0-1.4 1.088-2.421 3.065-2.755l2.999-.488v-.489c0-1.133-.844-1.844-2.044-1.844-1.021 0-1.799.467-2.332 1.222l-1.422-1.088c.822-1.111 2.155-1.8 3.821-1.8 2.51 0 3.887 1.466 3.887 3.532v6.131h-1.888v-1.044c-.666.822-1.821 1.333-2.976 1.333-1.844-.022-3.11-1.067-3.11-2.71m3.443 1.133c1.155 0 2.066-.556 2.621-1.444v-1.6l-2.51.422c-1.155.2-1.644.711-1.644 1.4.022.733.578 1.222 1.533 1.222M379.389 56.77l2.733 7.242 2.71-7.241h2.065l-3.532 9.307h-2.51l-3.509-9.307zM387.897 63.657c0-1.4 1.088-2.421 3.065-2.755l2.999-.488v-.489c0-1.133-.844-1.844-2.043-1.844-1.022 0-1.8.467-2.333 1.222l-1.421-1.088c.821-1.111 2.154-1.8 3.82-1.8 2.51 0 3.887 1.466 3.887 3.532v6.131h-1.888v-1.044c-.666.822-1.821 1.333-2.976 1.333-1.866-.022-3.11-1.067-3.11-2.71m3.443 1.133c1.155 0 2.066-.556 2.621-1.444v-1.6l-2.51.422c-1.155.2-1.644.711-1.644 1.4 0 .733.578 1.222 1.533 1.222M400.714 56.77h-1.888v9.286h1.888zM405.712 52.24h-1.888v13.816h1.888zM398.648 53.95c0-.622.511-1.133 1.133-1.133s1.133.51 1.133 1.133c0 .622-.511 1.133-1.133 1.133a1.15 1.15 0 0 1-1.133-1.133"/><g filter="url(#b)"><rect width="142.527" height="82.424" x="395.923" y="121.339" fill="#fff" rx="8"/><rect width="141.527" height="81.424" x="396.423" y="121.839" stroke="#e6e6e6" rx="7.5"/></g><g fill="#000" clip-path="url(#c)"><path d="m422.006 140.551-.018 9.697c1.502-2.852 4.911-3.939 7.958-3.161 2.756.697 3.772 3.038 3.896 5.678v11.588h-4.178l-.062-.15v-10.678c-.133-2.243-1.387-3.082-3.569-2.72-2.455.415-3.895 2.685-4.019 5.043-.123 2.358.115 5.599 0 8.346l-.061.15h-4.161l-.062-.062v-21.885c0-.698.61-1.493 1.255-1.705l.477-.141zM464.855 140.551v18.573c.088.839.291 1.608 1.219 1.793.927.186.741.027 1.157.009v3.727c-1.546.185-3.18.141-4.567-.627-1.608-.901-1.934-2.729-2.049-4.434v-17.195c.062-.698.441-1.272 1.051-1.625l.689-.221zM456.931 140.551v18.361c.062.636.124 1.396.707 1.793.583.398 1.104.239 1.669.221v3.727c-1.616.186-3.4.141-4.805-.768-1.404-.91-1.749-3.065-1.81-4.717.035-5.687-.071-11.384.053-17.063a1.94 1.94 0 0 1 1.21-1.421l.477-.142h2.499zM467.399 167.32l-5.274 17.072-4.328-.044-2.968-9.697-3.003 9.697-4.39.026-4.514-14.722c-.291-1.087.495-2.226 1.617-2.332.698-.062 1.475.044 2.182 0l2.923 9.777 2.889-9.777h4.566l2.924 9.777 2.88-9.786h4.496zM504.948 160.626v12.665l4.769-5.971h5.238l-5.379 6.88 7.066 10.192h-5.149l-4.744-6.694-1.801 2.269v4.425h-4.284v-22.044c0-.698.927-1.713 1.634-1.713h2.65zM451.296 156.598h-11.783c.177 2.464 2.005 4.213 4.425 4.487 1.475.168 3.375-.353 4.638-1.122.132-.079.971-.733 1.015-.697l1.59 3.046a10.76 10.76 0 0 1-4.522 2.173c-6.775 1.449-12.357-3.25-11.43-10.236.671-5.052 5.053-8.063 10.052-7.304 3.206.486 5.362 2.932 5.936 6.05.221 1.201.176 2.393.062 3.603zm-4.195-2.914c.044-1.572-.875-3.082-2.465-3.445-.963-.22-2.12-.088-2.985.389-.866.477-1.793 1.802-2.005 3.056zM487.741 164.353h-4.196c.027-2.305-1.546-4.398-3.754-5.034s-2.447-.301-3.524.07c-2.085.716-3.542 2.756-3.525 4.964h-4.195c-.036-4.699 3.506-8.744 8.161-9.353s3.348-.08 4.911.503c3.631 1.343 6.201 4.946 6.122 8.85M472.742 175.066c-.017 2.393 1.696 4.575 4.037 5.096 1.581.353 3.251.114 4.584-.831 1.352-.953 2.209-2.596 2.191-4.265h4.196c.079 4.204-2.898 8.028-6.934 9.105-2.138.565-4.585.424-6.616-.459-3.401-1.475-5.689-4.928-5.653-8.646zM499.356 167.143v4.196c-2.04-.371-3.974.459-5.061 2.208-1.086 1.748-.857 2.11-.954 3.276v7.56h-4.284v-15.314c0-.724.928-1.758 1.678-1.758h2.438c-.017 1.36.062 2.729-.088 4.089l.088.062c.495-1.66 1.705-3.241 3.321-3.948a5.1 5.1 0 0 1 2.871-.371z"/></g><g filter="url(#d)"><rect width="213" height="72" x="290.923" y="227.962" fill="#fff" rx="8"/><rect width="212" height="71" x="291.423" y="228.462" stroke="#e6e6e6" rx="7.5"/></g><g clip-path="url(#e)"><path fill="#000091" d="M442.057 260.704c-.821-.366-1.402-.787-1.402-1.479s.456-1.217 1.402-1.312c.095-.009.185-.021.288-.021 1.118 0 2.06.721 2.804 1.608l2.403-2.054c-1.032-1.358-3.035-2.388-5.237-2.388-.09 0-.172.009-.258.009-2.868.104-4.893 1.921-4.893 4.316 0 3.159 2.855 3.909 4.893 4.688 1.127.433 2.008.875 2.008 1.746s-.602 1.496-1.776 1.496c-.077 0-.155-.013-.232-.017-1.26-.083-2.253-.821-3.087-1.842l-2.404 2.109c1.32 1.52 3.07 2.491 5.495 2.566.099 0 .19.013.288.013 2.718 0 5.152-1.609 5.212-4.55 0-3.429-3.483-4.004-5.5-4.9zM340.448 273.429h2.653v.546h-1.991v1.533h1.707v.542h-1.707v1.621h1.991v.546h-2.653v-4.792zM344.163 274.771h.602v.391c.288-.308.658-.525 1.187-.525.8 0 1.393.521 1.393 1.5v2.088h-.602v-2.067c0-.616-.361-.971-.912-.971-.516 0-.838.288-1.066.65v2.388h-.602v-3.454M348.682 275.296h-.671v-.525h.671v-.863h.606v.863h1.234v.525h-1.234v1.767c0 .541.284.691.714.691.232 0 .396-.029.529-.083v.521a1.7 1.7 0 0 1-.615.096c-.791 0-1.234-.384-1.234-1.225zM351.374 274.771h.602v.429c.262-.3.585-.5 1.036-.5a1 1 0 0 1 .306.042v.566a1.3 1.3 0 0 0-.353-.041c-.464 0-.77.233-.989.583v2.367h-.602v-3.45zM355.532 278.354c-1.2 0-1.944-.854-1.944-1.862s.693-1.863 1.793-1.863c.968 0 1.596.638 1.596 1.5 0 .138-.022.275-.043.371h-2.735c.021.829.563 1.329 1.329 1.329.46 0 .847-.204 1.079-.512l.443.333c-.331.429-.86.704-1.527.704zm-1.286-2.3h2.133c-.021-.508-.404-.929-.998-.929-.593 0-1.01.333-1.135.929M357.609 277.692l2.098-2.396h-2.047v-.525h2.783v.525l-2.103 2.396h2.154v.525h-2.881v-.525zM364.751 274.633c.529 0 .946.2 1.265.546v-2.096h.602v5.134h-.602v-.413c-.319.35-.736.546-1.265.546-1.113 0-1.827-.854-1.827-1.863s.714-1.862 1.827-1.862zm.069 3.175c.495 0 .933-.233 1.196-.637v-1.354a1.4 1.4 0 0 0-1.196-.638c-.757 0-1.264.583-1.264 1.313 0 .729.507 1.312 1.264 1.312zM367.606 277.35c0-.521.409-.892 1.166-1.013l1.199-.191v-.238c0-.479-.352-.754-.86-.754-.408 0-.739.183-.959.479l-.451-.337c.31-.409.813-.663 1.432-.663.903 0 1.44.513 1.44 1.271v2.313h-.602v-.43c-.266.334-.718.525-1.195.525-.701 0-1.174-.375-1.174-.966zm1.273.487c.473 0 .86-.22 1.097-.587v-.679l-1.054.171c-.486.083-.705.295-.705.587s.245.508.662.508M371.709 274.771h.602v.391c.288-.308.658-.525 1.187-.525.8 0 1.393.521 1.393 1.5v2.088h-.602v-2.067c0-.616-.361-.971-.912-.971-.516 0-.838.288-1.066.65v2.388h-.602v-3.454M376.064 277.396c.246.3.542.471.903.471.396 0 .624-.234.624-.534 0-.775-1.78-.5-1.78-1.716 0-.542.473-.984 1.156-.984.508 0 .946.234 1.196.567l-.417.342c-.189-.259-.46-.425-.77-.425-.383 0-.585.22-.585.487 0 .775 1.785.525 1.785 1.704-.009.642-.538 1.046-1.2 1.046-.563 0-1.01-.221-1.333-.608l.426-.35zM380.915 273.087h.602v5.134h-.602zM383.706 273.429l-.602 1.834h-.684l.727-1.834zM385.851 278.354c-1.199 0-1.943-.854-1.943-1.862s.692-1.863 1.793-1.863c.967 0 1.595.638 1.595 1.5 0 .138-.021.275-.043.371h-2.735c.022.829.564 1.329 1.329 1.329.46 0 .847-.204 1.079-.512l.443.333c-.331.429-.86.704-1.526.704zm-1.285-2.3h2.132c-.021-.508-.404-.929-.997-.929-.594 0-1.011.333-1.135.929M388.242 274.771h.602v.391c.288-.308.658-.525 1.187-.525.8 0 1.393.521 1.393 1.5v2.088h-.602v-2.067c0-.616-.361-.971-.911-.971-.516 0-.839.288-1.067.65v2.388h-.602v-3.454M392.603 277.396c.245.3.541.471.903.471.395 0 .623-.234.623-.534 0-.775-1.78-.5-1.78-1.716 0-.542.473-.984 1.157-.984.507 0 .946.234 1.195.567l-.417.342c-.189-.259-.46-.425-.77-.425-.383 0-.585.22-.585.487 0 .775 1.785.525 1.785 1.704-.009.642-.538 1.046-1.2 1.046-.563 0-1.01-.221-1.333-.608l.426-.35zM397.212 278.354c-1.2 0-1.943-.854-1.943-1.862s.692-1.863 1.793-1.863c.967 0 1.595.638 1.595 1.5 0 .138-.022.275-.043.371h-2.735c.022.829.563 1.329 1.329 1.329.46 0 .847-.204 1.079-.512l.443.333c-.331.429-.86.704-1.526.704zm-1.286-2.3h2.133c-.021-.508-.404-.929-.997-.929-.594 0-1.011.333-1.136.929M399.482 273.463c0-.221.19-.405.426-.405.237 0 .417.184.417.405 0 .22-.185.408-.417.408a.42.42 0 0 1-.426-.408m.121 1.308h.602v3.45h-.602zM401.525 277.971a.61.61 0 0 1-.245-.492c0-.275.146-.5.426-.671a1.18 1.18 0 0 1-.495-.958c0-.662.537-1.225 1.385-1.225.262 0 .494.054.683.142h1.32v.508h-.769c.099.171.146.371.146.575 0 .658-.529 1.217-1.385 1.217-.176 0-.344-.029-.494-.067-.146.104-.232.225-.232.354 0 .146.077.246.296.246h1.015c.938 0 1.376.446 1.376 1.063 0 .725-.748 1.266-1.815 1.266s-1.745-.396-1.745-1.087c0-.35.176-.629.529-.871zm1.208 1.471c.748 0 1.221-.288 1.221-.738 0-.329-.189-.587-.825-.587h-1.097c-.305.179-.451.383-.451.658 0 .417.443.671 1.152.671zm.68-3.592c0-.425-.297-.767-.813-.767s-.821.342-.821.767.288.758.821.758.813-.341.813-.758M405.262 274.771h.602v.391c.288-.308.658-.525 1.187-.525.799 0 1.393.521 1.393 1.5v2.088h-.602v-2.067c0-.616-.361-.971-.912-.971-.516 0-.838.288-1.066.65v2.388h-.602v-3.454M411.213 278.354c-1.2 0-1.944-.854-1.944-1.862s.692-1.863 1.793-1.863c.968 0 1.595.638 1.595 1.5 0 .138-.021.275-.043.371h-2.734c.021.829.563 1.329 1.328 1.329.46 0 .847-.204 1.08-.512l.443.333c-.332.429-.86.704-1.527.704zm-1.286-2.3h2.133c-.022-.508-.404-.929-.998-.929-.593 0-1.01.333-1.135.929M413.608 274.771h.602v.375c.266-.3.623-.513 1.114-.513.49 0 .937.225 1.156.663.284-.375.658-.663 1.273-.663.761 0 1.32.492 1.32 1.429v2.155h-.602v-2.134c0-.575-.331-.904-.838-.904-.452 0-.77.246-1.002.65.008.075.013.15.013.233v2.155h-.602v-2.134c0-.575-.327-.904-.839-.904-.486 0-.791.296-.997.65v2.388h-.602v-3.45zM421.847 278.354c-1.2 0-1.944-.854-1.944-1.862s.693-1.863 1.793-1.863c.968 0 1.596.638 1.596 1.5 0 .138-.022.275-.043.371h-2.735c.021.829.563 1.329 1.329 1.329.46 0 .847-.204 1.079-.512l.443.333c-.331.429-.86.704-1.527.704zm-1.286-2.3h2.133c-.021-.508-.404-.929-.998-.929-.593 0-1.01.333-1.135.929M424.237 274.771h.602v.391c.288-.308.658-.525 1.187-.525.8 0 1.393.521 1.393 1.5v2.088h-.602v-2.067c0-.616-.361-.971-.911-.971-.516 0-.839.288-1.067.65v2.388h-.602v-3.454M428.757 275.296h-.671v-.525h.671v-.863h.606v.863h1.234v.525h-1.234v1.767c0 .541.284.691.714.691.232 0 .395-.029.529-.083v.521a1.7 1.7 0 0 1-.615.096c-.791 0-1.234-.384-1.234-1.225zM433.328 277.396c.245.3.541.471.903.471.395 0 .623-.234.623-.534 0-.775-1.78-.5-1.78-1.716 0-.542.473-.984 1.157-.984.507 0 .946.234 1.195.567l-.417.342c-.189-.259-.46-.425-.77-.425-.382 0-.585.22-.585.487 0 .775 1.785.525 1.785 1.704-.009.642-.538 1.046-1.2 1.046-.563 0-1.01-.221-1.333-.608l.426-.35zM438.819 274.771h.602v1.95c0 1.033-.615 1.633-1.583 1.633-.967 0-1.573-.6-1.573-1.633v-1.95h.602v1.971c0 .679.374 1.066.98 1.066s.976-.391.976-1.066v-1.971zM440.535 274.771h.602v.412c.318-.35.735-.546 1.264-.546 1.114 0 1.827.855 1.827 1.863s-.713 1.862-1.827 1.862c-.529 0-.946-.2-1.264-.545v2.095h-.602v-5.141m.602 1.054v1.342c.275.416.705.641 1.195.641.757 0 1.273-.583 1.273-1.312s-.516-1.313-1.273-1.313c-.494 0-.924.234-1.195.642M446.8 278.354c-1.2 0-1.944-.854-1.944-1.862s.692-1.863 1.793-1.863c.968 0 1.595.638 1.595 1.5 0 .138-.021.275-.043.371h-2.734c.021.829.563 1.329 1.328 1.329.46 0 .847-.204 1.08-.512l.442.333c-.331.429-.86.704-1.526.704zm-1.286-2.3h2.133c-.022-.508-.405-.929-.998-.929s-1.01.333-1.135.929m.868-1.833.736-1.138h.679l-.825 1.138h-.59M449.19 274.771h.602v.429c.263-.3.585-.5 1.037-.5.112 0 .219.012.305.042v.566a1.3 1.3 0 0 0-.353-.041c-.464 0-.769.233-.989.583v2.367h-.602v-3.45zM451.805 273.463c0-.221.189-.405.425-.405.237 0 .417.184.417.405 0 .22-.184.408-.417.408a.42.42 0 0 1-.425-.408m.12 1.308h.602v3.45h-.602zM455.361 278.354c-1.2 0-1.944-.854-1.944-1.862s.693-1.863 1.794-1.863c.967 0 1.595.638 1.595 1.5 0 .138-.022.275-.043.371h-2.735c.022.829.563 1.329 1.329 1.329.46 0 .847-.204 1.079-.512l.443.333c-.331.429-.86.704-1.527.704zm-1.286-2.3h2.133c-.021-.508-.404-.929-.997-.929-.594 0-1.011.333-1.136.929M460.177 274.771h.602v1.95c0 1.033-.615 1.633-1.583 1.633-.967 0-1.573-.6-1.573-1.633v-1.95h.602v1.971c0 .679.374 1.066.98 1.066s.976-.391.976-1.066v-1.971zM461.893 274.771h.602v.429c.262-.3.584-.5 1.036-.5.112 0 .219.012.305.042v.566a1.3 1.3 0 0 0-.352-.041c-.465 0-.77.233-.989.583v2.367h-.602v-3.45zM332.114 256.408l3.634.35c1.118-1.079 2.52-1.691 4.493-1.691 4.58 0 7.327 3.466 7.327 7.545 0 4.08-2.747 7.546-7.327 7.546-1.973 0-3.375-.608-4.493-1.691v7.958h-3.634zm3.634 4.013v4.383c.972 1.333 2.317 2.025 3.977 2.025 2.46 0 4.064-1.775 4.064-4.217s-1.604-4.216-4.064-4.216c-1.69 0-3.061.721-3.977 2.025M349.46 265.829c0-2.108 1.69-3.687 4.782-4.187l4.408-.721v-.363c0-1.47-1.144-2.412-2.804-2.412-1.402 0-2.49.637-3.264 1.662l-2.661-1.971c1.29-1.72 3.405-2.775 6.041-2.775 4.18 0 6.325 2.413 6.325 5.492v9.042h-3.633v-1.358c-.916 1.083-2.632 1.774-4.322 1.774-2.889 0-4.867-1.608-4.867-4.187zm5.612 1.388c1.66 0 2.864-.75 3.578-1.859v-1.971l-3.436.555c-1.518.25-2.146.858-2.146 1.72 0 .942.774 1.555 2.004 1.555M366.149 255.621h3.633v1.387c.946-.941 2.176-1.662 3.806-1.662.486 0 .916.083 1.26.196v3.462a6.4 6.4 0 0 0-1.604-.196c-1.776 0-2.92.942-3.462 1.83v8.958h-3.633zM387.073 265.217l2.833 2.108c-1.346 1.721-3.461 2.829-6.097 2.829-4.979 0-7.959-3.467-7.959-7.546s2.98-7.541 7.959-7.541c2.632 0 4.751 1.108 6.097 2.829l-2.833 2.108c-.688-.971-1.832-1.608-3.32-1.608-2.374 0-4.124 1.775-4.124 4.216s1.746 4.217 4.18 4.217c1.432 0 2.576-.637 3.264-1.608zM406.539 262.612c0 4.188-3.208 7.546-7.899 7.546s-7.899-3.354-7.899-7.546c0-4.191 3.203-7.545 7.895-7.545 4.691 0 7.899 3.354 7.899 7.545zm-3.78 0c0-2.441-1.746-4.216-4.063-4.216-2.318 0-4.18 1.775-4.18 4.216s1.776 4.217 4.18 4.217 4.063-1.804 4.063-4.217M419.073 255.621h3.664v7.767c0 4.187-2.52 6.766-6.755 6.766-4.236 0-6.726-2.579-6.726-6.766v-7.767h3.664v7.933c0 2.025 1.088 3.271 3.092 3.271s3.061-1.25 3.061-3.271zM426.486 255.621h3.634v1.387c.946-.941 2.176-1.662 3.805-1.662.486 0 .916.083 1.26.196v3.462a6.4 6.4 0 0 0-1.604-.196c-1.776 0-2.919.942-3.461 1.83v8.958h-3.634zM460.121 255.621h3.664v7.767c0 4.187-2.52 6.766-6.756 6.766-4.235 0-6.725-2.579-6.725-6.766v-7.767h3.664v7.933c0 2.025 1.088 3.271 3.091 3.271s3.062-1.25 3.062-3.271zM467.534 255.621h3.634v1.137c1.118-1.083 2.519-1.691 4.493-1.691 4.58 0 7.327 3.466 7.327 7.545 0 4.08-2.747 7.546-7.327 7.546-1.974 0-3.375-.608-4.493-1.691v7.958h-3.634zm3.634 4.8v4.383c.971 1.333 2.317 2.025 3.977 2.025 2.46 0 4.064-1.775 4.064-4.217s-1.604-4.216-4.064-4.216c-1.69 0-3.061.721-3.977 2.025"/><path fill="#e1000f" d="M319.404 266.925h-6.158c-1.006 0-1.823.792-1.823 1.767s.817 1.766 1.823 1.766h4.339v4.205c0 .975.817 1.762 1.823 1.766.503 0 .959-.196 1.286-.516.331-.321.533-.763.533-1.25v-5.971c0-.488-.202-.929-.533-1.25a1.84 1.84 0 0 0-1.29-.517"/><path fill="#000091" d="M326.666 260.971h-6.149c-1.006 0-1.819.787-1.819 1.762s.813 1.763 1.819 1.763h4.33v4.196c0 .975.813 1.762 1.819 1.762a1.84 1.84 0 0 0 1.286-.516c.331-.321.533-.759.533-1.246v-5.959c0-.487-.202-.929-.533-1.245a1.84 1.84 0 0 0-1.286-.517"/><path fill="#e1000f" d="M333.938 255h-6.162c-1.006 0-1.823.792-1.823 1.767s.817 1.766 1.823 1.766h4.339v4.205c0 .975.817 1.766 1.823 1.766.503 0 .959-.2 1.285-.516.332-.321.534-.763.534-1.25v-5.971a1.75 1.75 0 0 0-.534-1.25 1.83 1.83 0 0 0-1.285-.517"/></g><g filter="url(#f)"><rect width="175" height="94" x="205.923" y="116.962" fill="#fff" rx="8"/><rect width="174" height="93" x="206.423" y="117.462" stroke="#e6e6e6" rx="7.5"/></g><g clip-path="url(#g)"><g clip-path="url(#h)"><path fill="#a558a0" d="M236.83 182.695c9.613 0 17.406-3.164 17.406-7.066s-7.793-7.065-17.406-7.065c-9.614 0-17.407 3.163-17.407 7.065s7.793 7.066 17.407 7.066"/><path fill="#161616" d="M236.83 144.962a12.2 12.2 0 0 0-8.592 3.539 12.04 12.04 0 0 0-3.56 8.533c0 7.847 7.712 15.367 10.844 18.107a2 2 0 0 0 2.619 0c3.145-2.786 10.844-10.26 10.844-18.107a12.03 12.03 0 0 0-3.562-8.535 12.2 12.2 0 0 0-8.593-3.537m0 17.029a5.6 5.6 0 0 1-3.085-.932 5.5 5.5 0 0 1-2.044-2.476 5.48 5.48 0 0 1-.314-3.187 5.5 5.5 0 0 1 1.521-2.823 5.57 5.57 0 0 1 2.844-1.509 5.6 5.6 0 0 1 3.208.315 5.54 5.54 0 0 1 2.492 2.031 5.49 5.49 0 0 1-.691 6.968 5.58 5.58 0 0 1-3.931 1.613M267.161 147.263h2.838v11.329h5.311v2.555h-8.149zM277.37 158.45c0-1.508 1.177-2.635 3.334-2.994l3.074-.514v-.259c0-1.052-.799-1.724-1.956-1.724a2.733 2.733 0 0 0-2.274 1.19l-1.854-1.412a5.04 5.04 0 0 1 1.858-1.502 5.1 5.1 0 0 1 2.346-.481c2.914 0 4.415 1.729 4.415 3.929v6.464h-2.523v-.968a4.03 4.03 0 0 1-3.014 1.252c-2.031.017-3.406-1.136-3.406-2.981m3.914.994a2.83 2.83 0 0 0 2.494-1.328v-1.412l-2.397.397c-1.055.18-1.497.618-1.497 1.253s.538 1.09 1.4 1.09M300.276 161.544a4.18 4.18 0 0 1-3.136-1.207v.81h-2.523v-14.874h2.523v5.692a4.182 4.182 0 0 1 3.136-1.211c3.196 0 5.113 2.48 5.113 5.395s-1.917 5.395-5.113 5.395m-3.136-6.978v3.174a3.324 3.324 0 0 0 2.775 1.428c1.719 0 2.838-1.253 2.838-3.015s-1.119-3.015-2.838-3.015a3.237 3.237 0 0 0-2.775 1.428M318.011 156.149a5.46 5.46 0 0 1-1.614 3.871 5.53 5.53 0 0 1-3.898 1.604 5.53 5.53 0 0 1-3.898-1.604 5.46 5.46 0 0 1-1.614-3.871c0-1.452.581-2.844 1.614-3.871a5.53 5.53 0 0 1 3.898-1.603 5.53 5.53 0 0 1 3.898 1.603 5.46 5.46 0 0 1 1.614 3.871m-2.636 0c0-1.745-1.219-3.015-2.838-3.015a2.9 2.9 0 0 0-2.114.881 2.85 2.85 0 0 0-.8 2.134 2.86 2.86 0 0 0 1.766 2.788c.363.152.754.227 1.148.223 1.619 0 2.838-1.282 2.838-3.011M320.332 151.15h2.523v.794a4.106 4.106 0 0 1 2.977-1.19c2.173 0 3.914 1.491 3.914 4.443v5.95h-2.556v-5.846c0-1.328-.761-2.163-1.998-2.163a2.7 2.7 0 0 0-1.377.419 2.65 2.65 0 0 0-.96 1.068v6.522h-2.523zM332.63 151.15h2.523v.794a4.11 4.11 0 0 1 2.977-1.19c2.174 0 3.914 1.49 3.914 4.443v5.95h-2.556v-5.846c0-1.328-.761-2.163-1.997-2.163-.49.013-.967.158-1.379.421a2.67 2.67 0 0 0-.959 1.07v6.518h-2.523zM349.806 161.544c-3.578 0-5.592-2.476-5.592-5.395s1.875-5.395 5.171-5.395c2.796 0 4.625 1.887 4.625 4.505 0 .474-.054.946-.159 1.408h-7.03c.239 1.862 1.4 2.618 2.977 2.618a3.241 3.241 0 0 0 2.598-1.19l1.816 1.428a5.361 5.361 0 0 1-4.406 2.021m-2.918-6.681h4.625a2.07 2.07 0 0 0-.654-1.474 2.1 2.1 0 0 0-1.516-.572c-1.316 0-2.173.714-2.455 2.025zM266.064 178.494c0-1.508 1.181-2.635 3.334-2.994l3.078-.514v-.259c0-1.052-.799-1.724-1.955-1.724a2.73 2.73 0 0 0-2.279 1.19l-1.858-1.412a5 5 0 0 1 1.858-1.502 5.1 5.1 0 0 1 2.346-.481c2.918 0 4.415 1.728 4.415 3.929v6.464h-2.523v-.968a4.03 4.03 0 0 1-3.015 1.252c-2.022.017-3.401-1.136-3.401-2.981m3.914.994c.498.017.991-.097 1.429-.33a2.8 2.8 0 0 0 1.069-.998v-1.412l-2.397.397c-1.059.179-1.497.618-1.497 1.253s.539 1.09 1.396 1.09M277.908 166.317h2.523v14.874h-2.523zM284.118 173.458h-1.875v-2.264h1.875v-2.505h2.578v2.505h3.077v2.264h-3.077v4.075c0 1.111.601 1.55 1.597 1.55a4 4 0 0 0 1.497-.218v2.201a4.75 4.75 0 0 1-1.934.317c-2.523 0-3.717-1.407-3.717-3.85zM296.702 181.588c-3.578 0-5.592-2.476-5.592-5.395s1.892-5.395 5.172-5.395c2.796 0 4.625 1.887 4.625 4.506a6.4 6.4 0 0 1-.16 1.407h-7.042c.239 1.862 1.4 2.618 2.976 2.618a3.24 3.24 0 0 0 2.595-1.19l1.82 1.428a5.3 5.3 0 0 1-1.953 1.533c-.764.351-1.6.519-2.441.488m-2.918-6.681h4.625a2.08 2.08 0 0 0-1.376-1.899 2.1 2.1 0 0 0-.818-.126c-1.291-.021-2.149.693-2.431 2.004zM303.392 171.194h2.523v.994a3.627 3.627 0 0 1 2.657-1.19c.298-.001.595.046.879.138v2.48a4.4 4.4 0 0 0-1.119-.137 2.75 2.75 0 0 0-2.417 1.307v6.405h-2.523zM311.502 171.194h2.523v.794a4.1 4.1 0 0 1 2.973-1.19c2.178 0 3.914 1.49 3.914 4.443v5.95h-2.556v-5.846c0-1.328-.757-2.163-1.997-2.163a2.7 2.7 0 0 0-1.377.419 2.66 2.66 0 0 0-.957 1.068v6.522h-2.523zM323.241 178.494c0-1.508 1.182-2.635 3.339-2.994l3.073-.514v-.259c0-1.052-.798-1.724-1.955-1.724a2.73 2.73 0 0 0-2.279 1.19l-1.858-1.412a5.04 5.04 0 0 1 1.858-1.502 5.1 5.1 0 0 1 2.347-.481c2.918 0 4.414 1.728 4.414 3.929v6.464h-2.522v-.968a4.05 4.05 0 0 1-3.015 1.252c-2.022.017-3.402-1.136-3.402-2.981m3.915.994c.497.017.99-.097 1.429-.33a2.8 2.8 0 0 0 1.068-.998v-1.412l-2.396.397c-1.06.179-1.497.618-1.497 1.253s.538 1.09 1.396 1.09M335.086 171.194h2.523v.794a4.1 4.1 0 0 1 2.976-1.19c2.178 0 3.915 1.49 3.915 4.443v5.95h-2.556v-5.846c0-1.328-.761-2.163-1.998-2.163a2.69 2.69 0 0 0-2.337 1.491v6.518h-2.523zM354.498 178.06l1.976 1.507a5.2 5.2 0 0 1-1.883 1.517 5.24 5.24 0 0 1-2.372.504c-3.473 0-5.55-2.476-5.55-5.395s2.077-5.395 5.55-5.395a5.2 5.2 0 0 1 2.382.501 5.2 5.2 0 0 1 1.89 1.524l-1.976 1.508a2.71 2.71 0 0 0-2.317-1.153c-1.656 0-2.876 1.253-2.876 3.015s1.22 3.015 2.914 3.015a2.689 2.689 0 0 0 2.262-1.148M362.844 181.588c-3.574 0-5.588-2.476-5.588-5.395s1.876-5.395 5.172-5.395c2.796 0 4.625 1.887 4.625 4.506a6.4 6.4 0 0 1-.16 1.407h-7.038c.239 1.862 1.4 2.618 2.977 2.618a3.25 3.25 0 0 0 1.437-.294c.45-.206.846-.513 1.157-.896l1.82 1.428a5.34 5.34 0 0 1-1.957 1.535 5.4 5.4 0 0 1-2.445.486m-2.914-6.681h4.625a2.07 2.07 0 0 0-.657-1.477 2.1 2.1 0 0 0-1.521-.569c-1.307 0-2.169.714-2.447 2.025z"/></g></g><defs><clipPath id="c"><path fill="#fff" d="M417.687 140.551h99v44h-99z"/></clipPath><clipPath id="e"><path fill="#fff" d="M311.423 255h172v25h-172z"/></clipPath><clipPath id="g"><path fill="#fff" d="M219.423 144.962h148v38h-148z"/></clipPath><clipPath id="h"><path fill="#fff" d="M219.423 144.962h148v38h-148z"/></clipPath><filter id="a" width="167.464" height="121" x="269.268" y=".962" color-interpolation-filters="sRGB" filterUnits="userSpaceOnUse"><feFlood flood-opacity="0" result="BackgroundImageFix"/><feColorMatrix in="SourceAlpha" result="hardAlpha" values="0 0 0 0 0 0 0 0 0 0 0 0 0 0 0 0 0 0 127 0"/><feOffset dy="10"/><feGaussianBlur stdDeviation="5"/><feColorMatrix values="0 0 0 0 0 0 0 0 0 0 0 0 0 0 0 0 0 0 0.16 0"/><feBlend in2="BackgroundImageFix" result="effect1_dropShadow_2_22895"/><feBlend in="SourceGraphic" in2="effect1_dropShadow_2_22895" result="shape"/></filter><filter id="b" width="162.527" height="102.424" x="385.923" y="121.339" color-interpolation-filters="sRGB" filterUnits="userSpaceOnUse"><feFlood flood-opacity="0" result="BackgroundImageFix"/><feColorMatrix in="SourceAlpha" result="hardAlpha" values="0 0 0 0 0 0 0 0 0 0 0 0 0 0 0 0 0 0 127 0"/><feOffset dy="10"/><feGaussianBlur stdDeviation="5"/><feColorMatrix values="0 0 0 0 0 0 0 0 0 0 0 0 0 0 0 0 0 0 0.16 0"/><feBlend in2="BackgroundImageFix" result="effect1_dropShadow_2_22895"/><feBlend in="SourceGraphic" in2="effect1_dropShadow_2_22895" result="shape"/></filter><filter id="d" width="233" height="92" x="280.923" y="227.962" color-interpolation-filters="sRGB" filterUnits="userSpaceOnUse"><feFlood flood-opacity="0" result="BackgroundImageFix"/><feColorMatrix in="SourceAlpha" result="hardAlpha" values="0 0 0 0 0 0 0 0 0 0 0 0 0 0 0 0 0 0 127 0"/><feOffset dy="10"/><feGaussianBlur stdDeviation="5"/><feColorMatrix values="0 0 0 0 0 0 0 0 0 0 0 0 0 0 0 0 0 0 0.16 0"/><feBlend in2="BackgroundImageFix" result="effect1_dropShadow_2_22895"/><feBlend in="SourceGraphic" in2="effect1_dropShadow_2_22895" result="shape"/></filter><filter id="f" width="195" height="114" x="195.923" y="116.962" color-interpolation-filters="sRGB" filterUnits="userSpaceOnUse"><feFlood flood-opacity="0" result="BackgroundImageFix"/><feColorMatrix in="SourceAlpha" result="hardAlpha" values="0 0 0 0 0 0 0 0 0 0 0 0 0 0 0 0 0 0 127 0"/><feOffset dy="10"/><feGaussianBlur stdDeviation="5"/><feColorMatrix values="0 0 0 0 0 0 0 0 0 0 0 0 0 0 0 0 0 0 0.16 0"/><feBlend in2="BackgroundImageFix" result="effect1_dropShadow_2_22895"/><feBlend in="SourceGraphic" in2="effect1_dropShadow_2_22895" result="shape"/></filter></defs></svg>