<svg xmlns="http://www.w3.org/2000/svg" width="638" height="374" fill="none" viewBox="0 0 638 374"><path fill="#f5f5fe" d="M627.82 218.21C574.935 50.366 361.753 51.255 285.712 68.874c-375.55 87.013-239.643 282.69-103.164 280.328 163.415-2.829 509.063 71.462 445.272-130.992"/><g clip-path="url(#a)"><path fill="#fff" d="m363.804 261.215-14.232 70.198 7.158 36.262 30.413-.43s15.112-69.54 14.225-71.819c-.886-2.279-18.079-35.986-18.079-35.986z"/><path fill="#2e186a" fill-rule="evenodd" d="M384.264 258.838a1.05 1.05 0 0 0-1.032-.569l-19.58 1.779a1.05 1.05 0 0 0-.935.838l-14.302 70.358a1.1 1.1 0 0 0-.001.415l7.193 36.345a1.05 1.05 0 0 0 1.047.848l30.56-.431c.489-.007.909-.35 1.013-.829l-1.028-.224 1.029.224.043-.2.127-.583.48-2.217a4077 4077 0 0 0 6.833-32.144c1.843-8.857 3.659-17.791 4.959-24.656.65-3.431 1.173-6.354 1.505-8.496a51 51 0 0 0 .353-2.623c.032-.331.052-.625.056-.866a4 4 0 0 0-.012-.361c-.009-.1-.03-.269-.098-.443-.245-.63-1.526-3.234-3.253-6.688-1.747-3.491-3.991-7.93-6.206-12.297a6767 6767 0 0 0-6.037-11.865l-1.969-3.859-.55-1.076zl-.936.479zm-1.549 1.592.42.822 1.969 3.858c1.633 3.203 3.82 7.496 6.035 11.861s4.456 8.801 6.2 12.286c1.679 3.357 2.859 5.762 3.14 6.425v.097a9 9 0 0 1-.046.689 47 47 0 0 1-.337 2.505c-.327 2.107-.845 5.003-1.493 8.428-1.297 6.845-3.11 15.764-4.952 24.618a4126 4126 0 0 1-7.302 34.309l-28.848.407-6.982-35.278 14.104-69.384zm17.76 35.197.001.008z" clip-rule="evenodd"/><path fill="#ff8d7e" d="M498.197 146.791c75.135-4.352 85.86 41.014 83.06 75.478L569.186 370.84c.456.487-178.915.487-178.381 0l12.071-148.571c2.8-34.464 20.894-79.83 95.321-75.478"/><path fill="#2e186a" fill-rule="evenodd" d="M498.017 147.402a1.05 1.05 0 0 0 .905 1.188c25.247 3.544 39.644 14.608 47.478 28.33 7.868 13.783 9.201 30.395 7.981 45.132l-12.358 149.194a1.055 1.055 0 0 0 .976 1.132 1.06 1.06 0 0 0 1.15-.961l12.358-149.195-1.063-.085 1.063.085c1.236-14.933-.083-32.03-8.248-46.331-8.199-14.362-23.216-25.756-49.036-29.381a1.065 1.065 0 0 0-1.206.892" clip-rule="evenodd"/><path fill="#3558a2" d="m369.454 372.381 13.282-63.788s-7.604-9.523-7.018-22.952q.06-1.33.227-2.698c-.073-.182-16.052-5.397-16.949-7.318.607-10.93 9.485-40 25.125-46.754 5.022-2.328 17.183-5.82 19.626-6.65 11.55-3.923 35.873-10.314 57.013-6.107 0 0 32.272 5.285 39.516 9.579 3.926 2.331 23.454 15.014 27.181 50.096.056.539-33.759 12.446-33.759 12.446l-5.234 83.778"/><path fill="#fff" d="M423.749 199.328v17.71l-6.652 1.259c-1.146 1.654-14.062 22.026 14.393 24.512 18.555 1.623 39.023-9.299 50.023-22.244l-18.221-4.99-5.481-34.958z"/><path fill="#2e186a" fill-rule="evenodd" d="M458.315 180.724a1.07 1.07 0 0 0-.975.021l-34.182 18.439a1.04 1.04 0 0 0-.55.914v16.588l-5.813 1.08a1.06 1.06 0 0 0-.672.429c-.32.453-1.384 2.076-2.349 4.304-.961 2.219-1.858 5.118-1.758 8.096.101 3.018 1.23 6.108 4.282 8.578 3.012 2.438 7.796 4.189 15.045 4.811 19.036 1.634 39.888-9.331 51.095-22.283.235-.271.313-.642.206-.983a1.05 1.05 0 0 0-.732-.699l-17.625-4.739-5.393-33.783a1.05 1.05 0 0 0-.579-.773m-1.279 2.562 5.266 32.984c.065.405.365.735.767.843l16.648 4.477c-11.098 12.007-30.589 21.828-48.19 20.317-7.029-.603-11.333-2.279-13.885-4.345-2.514-2.035-3.426-4.525-3.51-7.036-.086-2.551.689-5.129 1.589-7.209a25 25 0 0 1 1.906-3.584l6.236-1.159c.5-.093.862-.523.862-1.024v-16.834z" clip-rule="evenodd"/><path fill="#fff" d="m459.13 175.096 2.975.675s17.421 2.477 18.209-13.429c.599-12.065-11.574-11.641-17.489-10.733"/><path fill="#2e186a" fill-rule="evenodd" d="M477.868 155.964c.999 1.429 1.619 3.446 1.477 6.315-.189 3.816-1.366 6.44-2.953 8.263-1.595 1.835-3.674 2.938-5.787 3.588-2.116.65-4.228.833-5.824.849a23 23 0 0 1-1.909-.061 17 17 0 0 1-.648-.063l-2.955-.671a1.075 1.075 0 0 0-1.289.79 1.053 1.053 0 0 0 .805 1.264l3.004.682q.043.01.088.016l.154-1.043-.153 1.043h.001l.005.001.013.002.046.006.164.019q.214.025.598.056c.509.039 1.231.075 2.098.067 1.727-.018 4.063-.214 6.444-.946 2.384-.733 4.853-2.016 6.779-4.23 1.936-2.225 3.256-5.313 3.464-9.529m-3.622-6.418c-1.002-1.432-2.457-2.377-4.172-2.973Zm-4.172-2.973c-3.481-1.209-7.824-.911-10.772-.458Zm.717-1.987c-4.008-1.393-8.797-1.018-11.821-.554-.587.09-.987.629-.896 1.204.092.576.642.969 1.228.879m11.489-1.529c2.029.705 3.906 1.881 5.226 3.767Zm5.226 3.767c1.321 1.889 2.011 4.388 1.851 7.611Z" clip-rule="evenodd"/><path fill="#fff" stroke="#2e186a" stroke-linecap="round" stroke-linejoin="round" stroke-width="2" d="M399.178 154.163c1.621-20.042 5.375-26.801 12.834-31.193 34.011-16.912 47.979-7.912 53.935 26.533.483 2.792.113.3.162 3.348-.155 3.142-.377 6.723-.677 9.726-1.932 11.367-6.282 18.467-6.282 18.467-6.158 11.064-16.258 19.446-29.699 20.654-23.459 2.094-29.748-30.631-30.284-37.896-.264-3.603 0-9.667 0-9.667s0 .028.011.028"/><path fill="#2f4077" fill-rule="evenodd" d="m440.266 101.681 11.692-1.217c20.982-2.13 39.509 15.517 41.431 39.431l13.935 90.42c-13.028-7.485-26.162-7.606-30.006-5.963-2.295.973-9.45 3.346-18.312 6.206l-.983-46.5c.32-.912 3.599-7.587 3.866-8.5 4.634 1 7.634-.126 11.959-2.5 5.926-3.286 7.208-6.632 4.431-13.022-.854-2.008-2.082-3.59-3.63-4.807-.054 0-.054-.061-.107-.061a5 5 0 0 0-.694-.486c-.107-.061-.16-.122-.267-.183-.213-.122-.48-.304-.747-.426-.054 0-.107-.061-.161-.061-.32-.122-.64-.304-.961-.426-.053 0-.106-.061-.16-.061-.267-.121-.587-.182-.907-.304h-.107c-.694-.182-1.442-.304-2.136-.304h-.053c-1.869-.061-3.791.365-5.66 1.339-.053.06-.16.06-.213.121a6 6 0 0 0-.587.365c-15.911-7.363-16.231-33.346-16.231-35.78-3.524 3.225-6.46 6.755-6.727 13.144l-34.971 2.799c-2.456 4.868-3.763 16.751-4.937 22.653-.415-.157-.667 3.425-.834 9-.543 18.094-.197 57.175-1.666 57.5-.481-4.503-3.508-83.007-1.853-88.423l-12.386.974c-.054.061-11.693-47.524 57.982-34.928" clip-rule="evenodd"/><path fill="#2f4077" d="M397.023 224.558v-56.5l1.5-3.5 10 28 16 10v15.5z"/><path fill="#2e186a" fill-rule="evenodd" d="M417.049 144.162c-.61-.098-1.19.28-1.296.843l-4.907 26.164a.98.98 0 0 0 .248.844c.213.234.527.369.858.368l7.182-.003c.619 0 1.121-.464 1.12-1.036s-.502-1.036-1.121-1.036l-5.85.003 4.679-24.95c.106-.564-.303-1.1-.913-1.197m18.847 1.984.001.001-.005-.005-.029-.03-.131-.123a10.3 10.3 0 0 0-2.413-1.648c-1.546-.748-3.429-1.126-5.42-.075-.523.276-1.225.158-1.568-.263-.344-.421-.198-.986.326-1.262 2.99-1.578 5.865-.914 7.83.038a12.5 12.5 0 0 1 2.956 2.014 6 6 0 0 1 .223.214l.015.015.004.005.002.002h.001l-.896.559.896-.558c.383.398.292.971-.202 1.279-.495.308-1.206.235-1.59-.163m-4.567 33.354a1.05 1.05 0 0 0-1.342.652c-.727 2.094-2.38 2.813-4.052 2.998a9.6 9.6 0 0 1-2.242-.037 10 10 0 0 1-.704-.117q-.123-.026-.184-.041l-.042-.011-.007-.001a1.053 1.053 0 0 0-1.288.753 1.063 1.063 0 0 0 .748 1.298l.27-1.025-.269 1.025.003.001.007.002.021.006.07.017q.09.022.246.054c.208.044.502.097.858.144a11.7 11.7 0 0 0 2.744.042c2.12-.235 4.714-1.25 5.81-4.408a1.063 1.063 0 0 0-.647-1.352m-23.196-33.838.007.003m0 0c.468.246 1.079.119 1.365-.283.287-.403.14-.929-.328-1.176l-.519.729.518-.729-.001-.001-.002-.001-.005-.003-.018-.009-.059-.029a12 12 0 0 0-.943-.409 12.4 12.4 0 0 0-2.468-.667c-1.98-.309-4.596-.125-6.44 2.055-.323.382-.225.916.219 1.194s1.065.194 1.388-.188c1.227-1.45 2.918-1.622 4.478-1.378a10.1 10.1 0 0 1 2.808.892" clip-rule="evenodd"/><path fill="#2e186a" d="M426.338 158.881c-.066-1.902.879-3.479 2.109-3.522 1.231-.042 2.282 1.466 2.348 3.368s-.879 3.479-2.109 3.522c-1.231.042-2.282-1.466-2.348-3.368m-23.703.685c-.066-1.903.878-3.479 2.109-3.522s2.282 1.465 2.348 3.368-.879 3.479-2.109 3.521c-1.231.043-2.282-1.465-2.348-3.367"/><path fill="#fff" d="M407.296 321.793s-14.996.237-24.889 5.518c-5.899 3.146-13.552 7.473-13.944 9.379-.74 3.565 8.57.02 10.046-.425"/><path fill="#2e186a" fill-rule="evenodd" d="M407.296 321.609a1.02 1.02 0 0 0-1.045-.992l.017 1.009-.017-1.009h-.013l-.035.001-.131.003a51 51 0 0 0-2.318.12c-1.547.108-3.709.31-6.179.682-4.916.74-11.144 2.17-16.141 4.954-2.887 1.608-6.228 3.53-8.901 5.301-1.334.884-2.529 1.747-3.424 2.528-.447.39-.841.778-1.144 1.155-.289.358-.568.792-.663 1.271-.125.632-.069 1.285.331 1.828.386.527.964.771 1.486.882 1.009.216 2.316.043 3.509-.213 1.924-.412 4.068-1.166 5.18-1.557.29-.102.51-.179.637-.219.541-.171.838-.739.665-1.27a1.03 1.03 0 0 0-1.293-.653c-.194.061-.48.162-.835.286-1.154.405-3.029 1.063-4.792 1.44-1.172.251-2.095.329-2.634.214a.7.7 0 0 1-.252-.09.7.7 0 0 1 .016-.261v-.001s.008-.033.048-.104c.042-.076.108-.176.208-.3q.302-.376.899-.898c.795-.694 1.903-1.5 3.207-2.364 2.604-1.725 5.887-3.616 8.766-5.218 4.673-2.604 10.609-3.988 15.439-4.716a77 77 0 0 1 6.013-.663 61 61 0 0 1 2.231-.116l.118-.003.029-.001h.008a1.02 1.02 0 0 0 1.01-1.026m-37.986 15.688-.004-.008z" clip-rule="evenodd"/><path fill="#fff" d="M369.695 343.742c.383-1.703 14.93-16.434 20.24-19.007 3.439-1.657 11.279-5.021 18.348-5.039l.273-.035c25.827-2.423 76.315-9.091 76.315-9.091l-3.734-32.913s45.203-13.581 45.181-13.511c3.475 25.375 2.759 53.592-.277 63.757-1.839 6.143-8.623 11.539-14.954 12.692-52.674 9.616-109.466 3.361-109.466 3.361-.256.031-12.143 3.566-12.143 3.566-7.317 3.269-7.019-.192-4.758-2.86a9.4 9.4 0 0 0-.959 1.049c-2.533 2.308-6.503 1.399-7.124.538-.621-.86 2.172-3.377 5.861-7.374l-.442.325c-6.103 7.018-13.382 9.088-12.361 4.542"/><path fill="#2e186a" fill-rule="evenodd" d="m480.062 276.563.301 1.007-.302-1.007c-.484.146-.795.62-.738 1.125l3.598 31.985-1.188.157a4340 4340 0 0 1-26.095 3.355c-15.759 1.976-34.714 4.253-47.535 5.467l-.035.004-.208.027c-7.266.039-15.209 3.495-18.629 5.158l-.003.001c-1.447.708-3.427 2.192-5.532 3.968-2.13 1.796-4.464 3.957-6.638 6.084-2.175 2.127-4.2 4.231-5.71 5.918-.754.842-1.39 1.59-1.854 2.191-.231.3-.431.576-.583.818-.131.206-.302.499-.369.801-.151.679-.175 1.344.009 1.943a2.36 2.36 0 0 0 1.16 1.418c1.031.55 2.394.372 3.676-.063a13 13 0 0 0 1.946-.856c-.003.295.07.619.283.917.193.271.456.468.692.609.248.148.531.274.832.377.6.207 1.333.346 2.119.373a7.6 7.6 0 0 0 2.794-.418c.027.386.14.773.387 1.125.606.867 1.681 1.061 2.77.955 1.112-.109 2.557-.55 4.388-1.37l.442-.133 1.342-.402 4.089-1.222c1.493-.445 2.993-.891 4.135-1.227.572-.168 1.052-.309 1.396-.408l.38-.108.465.049c.429.044 1.065.107 1.891.183 1.653.154 4.071.362 7.134.581 6.127.439 14.841.923 25.194 1.104 20.698.364 47.984-.479 74.264-5.318 3.352-.617 6.774-2.351 9.591-4.716 2.816-2.363 5.104-5.421 6.091-8.749h.001c1.554-5.249 2.485-15.001 2.608-26.542.124-11.576-.564-25.066-2.299-37.847l-.126.017c-.187-.487-.614-.879-.799-.921a2 2 0 0 0-.228 0c-.053.006-.095.015-.105.017h-.001l-.07.017-.117.031-.384.111-1.429.423c-1.228.367-2.983.893-5.088 1.527a11024 11024 0 0 0-15.444 4.662c-5.617 1.698-11.235 3.399-15.448 4.674l-5.091 1.543zm-78.756 67.503.115-1.046a1 1 0 0 0-.243.002c-.084.01-.171.033-.186.037h-.001l-.139.038q-.162.044-.426.12a1363 1363 0 0 0-5.55 1.641c-1.494.445-2.979.889-4.091 1.222l-.783.235-1.066.319-.002.001.299 1.008-.299-1.008a1 1 0 0 0-.13.048c-1.776.801-3.002 1.147-3.797 1.224-.596.059-.803-.041-.854-.075-.011-.04-.053-.226.103-.667.176-.499.539-1.109 1.045-1.712a1.055 1.055 0 0 0-.081-1.443 1.04 1.04 0 0 0-1.438 0q-.538.511-1 1.094c-.992.877-2.282 1.172-3.453 1.133a5.3 5.3 0 0 1-1.512-.261 3 3 0 0 1-.272-.108c.18-.312.512-.747 1.016-1.329.6-.691 1.35-1.487 2.225-2.414.686-.729 1.45-1.538 2.277-2.443a1.054 1.054 0 0 0 .008-1.414 1.04 1.04 0 0 0-1.4-.144l-.44.326a1 1 0 0 0-.169.158c-2.952 3.424-6.131 5.567-8.345 6.319-1.159.393-1.794.32-2.024.197-.069-.037-.11-.078-.142-.181-.039-.129-.067-.383.024-.817.009-.017.037-.072.103-.177q.154-.246.47-.655c.42-.544 1.018-1.25 1.756-2.074 1.473-1.645 3.465-3.716 5.614-5.819s4.444-4.226 6.523-5.979c2.103-1.774 3.91-3.104 5.102-3.687 3.409-1.657 11.017-4.931 17.788-4.948a1 1 0 0 0 .131-.009l.254-.033c12.857-1.217 31.83-3.497 47.581-5.472 7.882-.988 14.961-1.9 20.069-2.565 2.554-.333 4.616-.604 6.039-.791l1.638-.217.568-.075.002-.001-.137-1.043.138 1.043a1.05 1.05 0 0 0 .902-1.161l-3.614-32.139 1.095-.332 5.09-1.542c4.213-1.276 9.83-2.976 15.447-4.674s11.231-3.394 15.441-4.661c2.105-.634 3.858-1.16 5.083-1.525l.75-.223c1.602 12.309 2.239 25.213 2.12 36.335-.124 11.521-1.058 21.017-2.522 25.963-.841 2.834-2.839 5.563-5.427 7.735-2.585 2.17-5.683 3.72-8.626 4.261-26.091 4.805-53.224 5.647-73.85 5.285a471 471 0 0 1-25.082-1.1 340 340 0 0 1-7.09-.577c-.82-.076-1.449-.138-1.872-.182l-.479-.049-.12-.013-.037-.004-.002-.001zm-17.166 3.756.003.003z" clip-rule="evenodd"/><path fill="#fff" d="M383.735 346.499c3.366-4.236 12.959-7.059 12.959-7.059-1.085.102-7.663 2.269-10.866 4.941"/><path fill="#2e186a" fill-rule="evenodd" d="M396.675 339.139c-.101-.548-.573-.924-1.092-.87-.38.039-1.055.237-1.808.498a36 36 0 0 0-2.82 1.126c-2.062.922-4.467 2.215-6.087 3.699a1.1 1.1 0 0 0-.265.377c-.702.608-1.33 1.26-1.833 1.954-.343.474-.263 1.157.179 1.524.443.368 1.079.282 1.422-.192 1.405-1.94 4.221-3.66 6.849-4.924a44 44 0 0 1 4.383-1.816l.278-.096.071-.023.017-.005.004-.002c.499-.161.802-.702.702-1.25" clip-rule="evenodd"/><path fill="#fff" d="M391.981 333.558s-5.839 1.506-9.424 5.882Z"/><path fill="#2e186a" fill-rule="evenodd" d="M393.133 333.267c-.13-.615-.69-.998-1.25-.856l.235 1.113-.236-1.113-.002.001-.006.001-.017.004-.059.016-.215.061c-.184.054-.447.135-.772.246-.649.222-1.551.564-2.573 1.051-2.03.966-4.603 2.532-6.586 4.912a1.22 1.22 0 0 0 .066 1.614.98.98 0 0 0 1.472-.072c1.705-2.046 3.981-3.455 5.877-4.358a23 23 0 0 1 2.364-.965 17 17 0 0 1 .869-.271l.043-.011.009-.003h.001m.78-1.37c.129.614-.22 1.228-.78 1.37Z" clip-rule="evenodd"/><path fill="#2e186a" d="M176.196 246.5h158.757c2.099 0 3.89 1.574 4.369 3.798l22.984 106.798h99.002s2.732 14.109-13.199 14.109H327.162l.066-.174h-126.39c-2.099 0-3.89-1.574-4.369-3.799l-24.66-114.664c-.668-3.099 1.473-6.068 4.387-6.068"/><path fill="#fff" d="M256.653 306.823c0-2.343-1.805-4.547-4.041-4.963-2.235-.416-4.069 1.179-4.084 3.522a5.16 5.16 0 0 0 1.488 3.536 8.4 8.4 0 0 0-2.073.937c-4.203 2.668-4.301 8.243-.22 12.45s10.79 5.459 14.99 2.797 4.301-8.242.224-12.453a14.1 14.1 0 0 0-6.84-3.847c.363-.6.555-1.283.556-1.979m3.387-10.702s-6.652-1.618-7.068 4.149c-.011 0 5.294 2.129 7.068-4.149"/><path fill="#fff" d="M251.996 304.147a.99.99 0 0 0 .859-.504.94.94 0 0 0 .076-.726c-.161-.52-1.589-5.101-2.942-6.667a.98.98 0 0 0-.668-.335 1 1 0 0 0-.715.224.96.96 0 0 0-.343.651.94.94 0 0 0 .229.697c.928 1.068 2.167 4.677 2.566 5.975.06.197.183.371.352.494a1 1 0 0 0 .586.191"/><path fill="#2e186a" fill-rule="evenodd" d="M620.523 371.793c0-.325-.471-.588-1.051-.588H138.574c-.58 0-1.051.263-1.051.588s.471.588 1.051.588h480.898c.58 0 1.051-.263 1.051-.588" clip-rule="evenodd"/></g><path fill="#fff" d="M21.997 180h209v23h-209z"/><g filter="url(#b)"><rect width="341.993" height="212.948" x="10" y="57.226" fill="#fff" rx="8"/><rect width="340.993" height="211.948" x="10.5" y="57.726" stroke="#e6e6e6" rx="7.5"/></g><path fill="#f6f6f6" d="M26.997 109h250v32h-250z"/><path fill="#161616" d="M88.788 127.088c-.564.756-1.5 1.224-2.64 1.224-2.148 0-3.36-1.5-3.36-3.264 0-1.788 1.128-3.264 3.108-3.264 1.68 0 2.784 1.14 2.784 2.724 0 .336-.048.648-.096.852h-4.236c.144 1.128.84 1.584 1.788 1.584.66 0 1.236-.288 1.56-.72zm-2.928-4.056c-.78 0-1.296.432-1.464 1.224h2.784c-.024-.612-.468-1.224-1.32-1.224m-8.63 4.164 1.008-.912c.373.468.817.804 1.392.804.493 0 .745-.288.745-.648 0-1.056-2.892-.66-2.892-2.784 0-1.068.9-1.872 2.16-1.872.924 0 1.763.444 2.195 1.032l-1.007.888c-.312-.384-.709-.696-1.177-.696-.48 0-.707.264-.707.576 0 1.032 2.891.672 2.891 2.76-.023 1.272-1.043 1.968-2.183 1.968-1.08 0-1.849-.432-2.424-1.116m-1.974-6.228a1.01 1.01 0 0 1-.996-.996c0-.54.456-.996.996-.996s.984.456.984.996-.444.996-.984.996m-.768 7.104v-6.048h1.524v6.048zm-4.875 0v-6.048h1.524v.6c.396-.408.912-.72 1.596-.72.204 0 .384.036.528.084v1.5a2.6 2.6 0 0 0-.672-.084c-.744 0-1.224.408-1.452.792v3.876zm-7.874 2.952v-9h1.523v.492c.468-.468 1.056-.732 1.884-.732 1.92 0 3.072 1.5 3.072 3.264s-1.152 3.264-3.072 3.264c-.828 0-1.416-.264-1.884-.732v3.444zm3.191-7.8c-.708 0-1.284.312-1.668.876v1.896c.408.576.972.876 1.668.876 1.032 0 1.704-.768 1.704-1.824s-.672-1.824-1.704-1.824m-4.573 3.864c-.564.756-1.5 1.224-2.64 1.224-2.148 0-3.36-1.5-3.36-3.264 0-1.788 1.128-3.264 3.108-3.264 1.68 0 2.784 1.14 2.784 2.724 0 .336-.048.648-.096.852h-4.236c.144 1.128.84 1.584 1.788 1.584.66 0 1.236-.288 1.56-.72zm-2.928-4.056c-.78 0-1.296.432-1.464 1.224h2.784c-.024-.612-.468-1.224-1.32-1.224m-7.257 5.04v-6.048h1.524v.6c.396-.408.912-.72 1.596-.72.204 0 .384.036.528.084v1.5a2.6 2.6 0 0 0-.672-.084c-.744 0-1.224.408-1.452.792v3.876zm-4.749-2.208v-2.472h-1.128v-1.368h1.128v-1.512h1.536v1.512h1.848v1.368H46.96v2.472c0 .672.36.936.96.936.42 0 .696-.048.9-.132V128c-.3.132-.66.192-1.164.192-1.512 0-2.232-.852-2.232-2.328m-7.778 2.208v-6.048h1.523v.48a2.46 2.46 0 0 1 1.789-.72c1.308 0 2.352.9 2.352 2.688v3.6h-1.537v-3.54c0-.804-.456-1.308-1.2-1.308-.767 0-1.175.516-1.404.9v3.948zm-6.649 0v-8.4h4.896v1.416H32.7v1.992h2.712v1.416H32.7v2.16h3.192v1.416z"/><path fill="#f6f6f6" d="M276.997 109h50v32h-50z"/><path fill="#161616" d="m312.235 128.504 1.008-.912c.372.468.816.804 1.392.804.492 0 .744-.288.744-.648 0-1.056-2.892-.66-2.892-2.784 0-1.068.9-1.872 2.16-1.872.924 0 1.764.444 2.196 1.032l-1.008.888c-.312-.384-.708-.696-1.176-.696-.48 0-.708.264-.708.576 0 1.032 2.892.672 2.892 2.76-.024 1.272-1.044 1.968-2.184 1.968-1.08 0-1.848-.432-2.424-1.116m-.771-.108c-.564.756-1.5 1.224-2.64 1.224-2.148 0-3.36-1.5-3.36-3.264 0-1.788 1.128-3.264 3.108-3.264 1.68 0 2.784 1.14 2.784 2.724 0 .336-.048.648-.096.852h-4.236c.144 1.128.84 1.584 1.788 1.584.66 0 1.236-.288 1.56-.72zm-2.928-4.056c-.78 0-1.296.432-1.464 1.224h2.784c-.024-.612-.468-1.224-1.32-1.224m-7.257 5.04v-6.048h1.524v.6c.396-.408.912-.72 1.596-.72.204 0 .384.036.528.084v1.5a2.6 2.6 0 0 0-.672-.084c-.744 0-1.224.408-1.452.792v3.876zm-5.478-6.048h1.128v-.636c0-1.284.852-2.316 2.364-2.316.552 0 1.02.132 1.404.336l-.648 1.272c-.18-.132-.42-.24-.732-.24-.516 0-.852.36-.852.912v.672h1.848v1.368h-1.848v4.68h-1.536v-4.68h-1.128zm-5.11 0h1.128v-.636c0-1.284.852-2.316 2.364-2.316.552 0 1.02.132 1.404.336l-.648 1.272c-.18-.132-.42-.24-.732-.24-.516 0-.852.36-.852.912v.672h1.848v1.368h-1.848v4.68h-1.536v-4.68h-1.128zm-5.23-2.592c2.64 0 4.452 2.04 4.452 4.44s-1.812 4.44-4.452 4.44c-2.652 0-4.464-2.04-4.464-4.44s1.812-4.44 4.464-4.44m0 7.284c1.572 0 2.7-1.236 2.7-2.844s-1.128-2.844-2.7-2.844c-1.584 0-2.712 1.236-2.712 2.844s1.128 2.844 2.712 2.844"/><path stroke="#929292" d="M26.997 140.5h300"/><path fill="#000091" d="m174.432 162.59 1.176-1.064c.434.546.952.938 1.624.938.574 0 .868-.336.868-.756 0-1.232-3.374-.77-3.374-3.248 0-1.246 1.05-2.184 2.52-2.184 1.078 0 2.058.518 2.562 1.204l-1.176 1.036c-.364-.448-.826-.812-1.372-.812-.56 0-.826.308-.826.672 0 1.204 3.374.784 3.374 3.22-.028 1.484-1.218 2.296-2.548 2.296-1.26 0-2.156-.504-2.828-1.302m-5.312 1.232c-1.414 0-2.38-.812-2.38-2.114 0-1.064.826-1.862 2.338-2.114l2.156-.364v-.182c0-.742-.56-1.218-1.372-1.218-.686 0-1.218.322-1.596.84l-1.302-.994c.63-.868 1.666-1.4 2.954-1.4 2.044 0 3.094 1.218 3.094 2.772v4.564h-1.778v-.686c-.448.546-1.288.896-2.114.896m-.616-2.198c0 .476.378.784.98.784.812 0 1.4-.378 1.75-.938v-.994l-1.68.28c-.742.126-1.05.434-1.05.868m-5.282 1.988v-10.5H165v10.5zm-3.014-8.288c-.63 0-1.162-.532-1.162-1.162s.532-1.162 1.162-1.162 1.148.532 1.148 1.162-.518 1.162-1.148 1.162m-.896 8.288v-7.056h1.778v7.056zm-7.552 0v-9.8h1.988v7.994h3.724v1.806zm-11.166-1.022 1.176-1.064c.434.546.952.938 1.624.938.574 0 .868-.336.868-.756 0-1.232-3.374-.77-3.374-3.248 0-1.246 1.05-2.184 2.52-2.184 1.078 0 2.058.518 2.562 1.204l-1.176 1.036c-.364-.448-.826-.812-1.372-.812-.56 0-.826.308-.826.672 0 1.204 3.374.784 3.374 3.22-.028 1.484-1.218 2.296-2.548 2.296-1.26 0-2.156-.504-2.828-1.302m-.899-.126c-.658.882-1.75 1.428-3.08 1.428-2.506 0-3.92-1.75-3.92-3.808 0-2.086 1.316-3.808 3.626-3.808 1.96 0 3.248 1.33 3.248 3.178 0 .392-.056.756-.112.994h-4.942c.168 1.316.98 1.848 2.086 1.848.77 0 1.442-.336 1.82-.84zm-3.416-4.732c-.91 0-1.512.504-1.708 1.428h3.248c-.028-.714-.546-1.428-1.54-1.428m-12.772 2.352c0-2.058 1.358-3.808 3.584-3.808.952 0 1.638.294 2.184.84v-4.004h1.792v10.5h-1.792v-.56c-.546.546-1.232.84-2.184.84-2.226 0-3.584-1.75-3.584-3.808m1.862 0c0 1.232.77 2.128 1.974 2.128.798 0 1.456-.336 1.932-.98v-2.296c-.476-.644-1.134-.98-1.932-.98-1.204 0-1.974.896-1.974 2.128m-10.672.952v-2.884h-1.316v-1.596h1.316v-1.764h1.792v1.764h2.156v1.596h-2.156v2.884c0 .784.42 1.092 1.12 1.092.49 0 .812-.056 1.05-.154v1.554c-.35.154-.77.224-1.358.224-1.764 0-2.604-.994-2.604-2.716m-9.074 2.576v-7.056h1.778v.56a2.87 2.87 0 0 1 2.086-.84c1.526 0 2.744 1.05 2.744 3.136v4.2h-1.792v-4.13c0-.938-.532-1.526-1.4-1.526-.896 0-1.372.602-1.638 1.05v4.606zm-5.928.21c-1.414 0-2.38-.812-2.38-2.114 0-1.064.826-1.862 2.338-2.114l2.155-.364v-.182c0-.742-.56-1.218-1.372-1.218-.686 0-1.218.322-1.596.84l-1.302-.994c.63-.868 1.666-1.4 2.954-1.4 2.044 0 3.094 1.218 3.094 2.772v4.564h-1.778v-.686c-.448.546-1.288.896-2.114.896m-.616-2.198c0 .476.378.784.979.784.812 0 1.4-.378 1.75-.938v-.994l-1.68.28c-.742.126-1.05.434-1.05.868m-6.717 1.988v-7.056h1.779v.7c.462-.476 1.064-.84 1.862-.84.238 0 .448.042.616.098v1.75a3 3 0 0 0-.784-.098c-.868 0-1.428.476-1.694.924v4.522zm-3.76-3.052v-4.004h1.793v3.92c0 2.114-1.232 3.416-3.304 3.416s-3.29-1.302-3.29-3.416v-3.92h1.792v4.004c0 1.022.532 1.652 1.512 1.652.966 0 1.498-.63 1.498-1.652m-10.576 3.262c-1.415 0-2.38-.812-2.38-2.114 0-1.064.826-1.862 2.338-2.114l2.155-.364v-.182c0-.742-.56-1.218-1.372-1.218-.686 0-1.218.322-1.596.84l-1.302-.994c.63-.868 1.666-1.4 2.955-1.4 2.044 0 3.094 1.218 3.094 2.772v4.564h-1.779v-.686c-.448.546-1.288.896-2.114.896m-.617-2.198c0 .476.379.784.98.784.813 0 1.4-.378 1.75-.938v-.994l-1.68.28c-.742.126-1.05.434-1.05.868m-6.911-.588v-2.884H69.18v-1.596h1.316v-1.764h1.792v1.764h2.156v1.596h-2.156v2.884c0 .784.42 1.092 1.12 1.092.49 0 .812-.056 1.05-.154v1.554c-.35.154-.77.224-1.358.224-1.764 0-2.604-.994-2.604-2.716m-7.571 1.554 1.176-1.064c.434.546.952.938 1.624.938.574 0 .868-.336.868-.756 0-1.232-3.374-.77-3.374-3.248 0-1.246 1.05-2.184 2.52-2.184 1.078 0 2.058.518 2.562 1.204l-1.176 1.036c-.364-.448-.826-.812-1.372-.812-.56 0-.826.308-.826.672 0 1.204 3.374.784 3.374 3.22-.028 1.484-1.218 2.296-2.548 2.296-1.26 0-2.156-.504-2.828-1.302m-.9-.126c-.658.882-1.75 1.428-3.08 1.428-2.506 0-3.92-1.75-3.92-3.808 0-2.086 1.316-3.808 3.626-3.808 1.96 0 3.248 1.33 3.248 3.178 0 .392-.056.756-.112.994h-4.942c.168 1.316.98 1.848 2.086 1.848.77 0 1.442-.336 1.82-.84zm-3.416-4.732c-.91 0-1.512.504-1.708 1.428h3.248c-.028-.714-.546-1.428-1.54-1.428m-8.467 5.88v-7.056h1.778v.7c.462-.476 1.064-.84 1.862-.84.238 0 .448.042.616.098v1.75a3 3 0 0 0-.784-.098c-.868 0-1.428.476-1.694.924v4.522zm-5.385-1.148c-.658.882-1.75 1.428-3.08 1.428-2.506 0-3.92-1.75-3.92-3.808 0-2.086 1.316-3.808 3.626-3.808 1.96 0 3.248 1.33 3.248 3.178 0 .392-.056.756-.112.994h-4.942c.168 1.316.98 1.848 2.086 1.848.77 0 1.442-.336 1.82-.84zm-3.416-4.732c-.91 0-1.512.504-1.708 1.428h3.248c-.028-.714-.546-1.428-1.54-1.428m-10.344 5.88v-9.8h1.988v7.994h3.724v1.806z"/><path fill="#666" d="M156.437 180.532v-.972l2.844-2.928c.984-1.032 1.428-1.5 1.428-2.388 0-.876-.636-1.38-1.488-1.38-.888 0-1.464.444-1.956 1.26l-.888-.54c.684-1.068 1.62-1.692 2.928-1.692 1.404 0 2.52.912 2.52 2.28 0 1.14-.744 1.992-1.752 3.048l-2.304 2.34h4.284v.972zm-3.374 0v-7.308l-2.22 1.2-.552-.768 2.76-1.524h1.08v8.4zm-6.381-8.64c2.112 0 3.144 1.944 3.144 4.44s-1.032 4.44-3.144 4.44c-2.088 0-3.132-1.944-3.132-4.44s1.044-4.44 3.132-4.44m.012 1.008c-1.344 0-2.04 1.464-2.04 3.432s.696 3.432 2.04 3.432c1.332 0 2.016-1.464 2.016-3.432s-.684-3.432-2.016-3.432m-7.29-1.008c2.112 0 3.144 1.944 3.144 4.44s-1.032 4.44-3.144 4.44c-2.088 0-3.132-1.944-3.132-4.44s1.044-4.44 3.132-4.44m.012 1.008c-1.344 0-2.04 1.464-2.04 3.432s.696 3.432 2.04 3.432c1.332 0 2.016-1.464 2.016-3.432s-.684-3.432-2.016-3.432m-7.289-1.008c2.112 0 3.144 1.944 3.144 4.44s-1.032 4.44-3.144 4.44c-2.088 0-3.132-1.944-3.132-4.44s1.044-4.44 3.132-4.44m.012 1.008c-1.344 0-2.04 1.464-2.04 3.432s.696 3.432 2.04 3.432c1.332 0 2.016-1.464 2.016-3.432s-.684-3.432-2.016-3.432m-9.979 7.632v-.972l2.844-2.928c.984-1.032 1.428-1.5 1.428-2.388 0-.876-.636-1.38-1.488-1.38-.888 0-1.464.444-1.956 1.26l-.888-.54c.684-1.068 1.62-1.692 2.928-1.692 1.404 0 2.52.912 2.52 2.28 0 1.14-.744 1.992-1.752 3.048l-2.304 2.34h4.284v.972zm-1.273-2.316c0 1.524-1.236 2.556-2.928 2.556-1.452 0-2.412-.588-3.084-1.704l.948-.588c.516.924 1.188 1.32 2.124 1.32 1.044 0 1.824-.612 1.824-1.632 0-.948-.672-1.608-1.776-1.608h-1.428v-.972h1.26c.96 0 1.572-.576 1.572-1.392 0-.852-.636-1.332-1.5-1.332-.756 0-1.344.384-1.74 1.116l-.9-.552c.6-.984 1.488-1.536 2.712-1.536 1.452 0 2.532.876 2.532 2.208 0 .816-.384 1.512-1.104 1.908.972.396 1.488 1.236 1.488 2.208m-12.614 2.316v-.972l2.844-2.928c.984-1.032 1.428-1.5 1.428-2.388 0-.876-.636-1.38-1.488-1.38-.888 0-1.464.444-1.956 1.26l-.888-.54c.684-1.068 1.62-1.692 2.928-1.692 1.404 0 2.52.912 2.52 2.28 0 1.14-.744 1.992-1.752 3.048l-2.304 2.34h4.284v.972zm-7.008 0v-.972l2.844-2.928c.984-1.032 1.428-1.5 1.428-2.388 0-.876-.636-1.38-1.488-1.38-.888 0-1.464.444-1.956 1.26l-.888-.54c.684-1.068 1.62-1.692 2.928-1.692 1.404 0 2.52.912 2.52 2.28 0 1.14-.744 1.992-1.752 3.048l-2.304 2.34h4.284v.972zm-6.635-3.984.253-4.416h4.62v.972h-3.588l-.144 2.46h1.212c1.98 0 2.916 1.08 2.916 2.568 0 1.608-1.248 2.64-2.928 2.64-1.44 0-2.412-.588-3.084-1.704l.948-.588c.516.936 1.212 1.32 2.124 1.32 1.056 0 1.836-.612 1.836-1.632 0-.972-.684-1.62-1.86-1.62zm-4.364-4.656c1.296 0 2.112.576 2.7 1.428l-.852.66c-.492-.732-1.068-1.104-1.836-1.104-1.536 0-2.292 1.272-2.352 3.348.6-.6 1.392-.936 2.316-.936 1.584 0 2.664 1.188 2.664 2.664 0 1.524-1.08 2.82-2.892 2.82-1.968 0-3.204-1.392-3.204-4.308 0-2.724 1.068-4.572 3.456-4.572m-.192 4.368c-.84 0-1.596.36-2.1 1.08.18 1.776.948 2.448 2.016 2.448 1.128 0 1.788-.792 1.788-1.8 0-.972-.72-1.728-1.704-1.728m-6.504 4.272v-7.308l-2.22 1.2-.552-.768 2.76-1.524h1.08v8.4zm-6.788.24c-1.296 0-2.124-.576-2.7-1.428l.864-.66c.48.732 1.055 1.104 1.835 1.104 1.536 0 2.304-1.272 2.352-3.36-.6.612-1.391.948-2.328.948-1.572 0-2.652-1.188-2.652-2.664 0-1.524 1.069-2.82 2.892-2.82 1.968 0 3.204 1.392 3.204 4.308 0 2.724-1.08 4.572-3.468 4.572m-1.513-6.096c0 .972.72 1.728 1.704 1.728.853 0 1.62-.36 2.112-1.092-.18-1.764-.971-2.436-2.027-2.436-1.117 0-1.789.792-1.789 1.8m-5.191-2.784c1.68 0 2.652.996 2.652 2.196 0 .84-.432 1.5-1.224 1.848 1.044.372 1.632 1.188 1.632 2.268 0 1.452-1.14 2.568-3.06 2.568-1.908 0-3.06-1.116-3.06-2.568 0-1.08.588-1.896 1.632-2.268-.804-.348-1.236-1.008-1.236-1.848 0-1.2.972-2.196 2.664-2.196m.012 3.636c.9 0 1.524-.552 1.524-1.344 0-.804-.624-1.356-1.524-1.356-.936 0-1.548.552-1.548 1.356s.612 1.344 1.548 1.344m0 4.296c1.152 0 1.932-.684 1.932-1.668 0-.996-.78-1.704-1.932-1.704-1.176 0-1.956.708-1.956 1.704s.78 1.668 1.956 1.668m-13.974-6.66v-1.032h6.696v1.032h-2.784v7.368H58.9v-7.368zm-5.943 7.368v-8.4h4.512v.96H51.3v2.688h2.904v.948H51.3v2.844h3.384v.96zm-7.688 0v-8.4h2.232c1.692 0 2.736.924 2.736 2.364 0 1.008-.516 1.764-1.416 2.124l2.712 3.912h-1.332l-2.436-3.696c-.084.012-.18.012-.264.012h-1.104v3.684zm2.28-7.44h-1.152v2.796h1.152c.96 0 1.524-.516 1.524-1.416 0-.852-.564-1.38-1.524-1.38m-6.076 7.44v-8.4h1.127v8.4zm-7.691-1.152.84-.768c.576.744 1.248 1.14 2.028 1.14.936 0 1.476-.564 1.476-1.332 0-1.896-3.984-1.488-3.984-4.26 0-1.248 1.032-2.268 2.496-2.268 1.176 0 2.04.54 2.664 1.368l-.852.744c-.492-.708-1.08-1.104-1.8-1.104-.828 0-1.356.516-1.356 1.236 0 1.884 3.972 1.452 3.972 4.248 0 1.452-1.116 2.376-2.604 2.376-1.236 0-2.148-.468-2.88-1.38m250.063-8.174v-.972l3.006-2.928c1.041-1.032 1.51-1.5 1.51-2.388 0-.876-.672-1.38-1.573-1.38-.939 0-1.548.444-2.068 1.26l-.938-.54c.723-1.068 1.712-1.692 3.095-1.692 1.484 0 2.664.912 2.664 2.28 0 1.14-.787 1.992-1.852 3.048l-2.436 2.34h4.529v.972z"/><path stroke="#929292" d="M26.997 192.272h300"/><path fill="#000091" d="M113.705 214.236c-.658.882-1.75 1.428-3.08 1.428-2.506 0-3.92-1.75-3.92-3.808 0-2.086 1.316-3.808 3.626-3.808 1.96 0 3.248 1.33 3.248 3.178 0 .392-.056.756-.112.994h-4.942c.168 1.316.98 1.848 2.086 1.848.77 0 1.442-.336 1.82-.84zm-3.416-4.732c-.91 0-1.512.504-1.708 1.428h3.248c-.028-.714-.546-1.428-1.54-1.428m-12.336 9.324v-10.5h1.778v.574c.546-.546 1.232-.854 2.198-.854 2.24 0 3.584 1.75 3.584 3.808s-1.344 3.808-3.584 3.808c-.966 0-1.652-.308-2.198-.854v4.018zm3.724-9.1c-.826 0-1.498.364-1.946 1.022v2.212c.476.672 1.134 1.022 1.946 1.022 1.204 0 1.988-.896 1.988-2.128s-.784-2.128-1.988-2.128m-7.484 2.604v-4.004h1.792v3.92c0 2.114-1.232 3.416-3.304 3.416s-3.29-1.302-3.29-3.416v-3.92h1.792v4.004c0 1.022.532 1.652 1.512 1.652.966 0 1.498-.63 1.498-1.652m-10.134-4.284c2.296 0 3.864 1.694 3.864 3.808s-1.568 3.808-3.864 3.808-3.864-1.694-3.864-3.808 1.568-3.808 3.864-3.808m.028 5.936c1.134 0 1.988-.91 1.988-2.128 0-1.232-.854-2.128-1.988-2.128-1.176 0-2.044.896-2.044 2.128s.868 2.128 2.044 2.128m-8.775 1.4v-7.056h1.778v.7c.462-.476 1.064-.84 1.862-.84.238 0 .448.042.616.098v1.75a3 3 0 0 0-.784-.098c-.868 0-1.428.476-1.694.924v4.522zm-6.242-1.582c.923 0 1.721-.322 2.281-.854v-1.708H68.86v-1.694h4.48v4.116c-.91 1.218-2.436 2.002-4.27 2.002-3.178 0-5.348-2.38-5.348-5.18s2.114-5.18 5.208-5.18c1.778 0 3.234.798 4.13 1.988l-1.568 1.218c-.56-.798-1.442-1.344-2.562-1.344-1.848 0-3.164 1.442-3.164 3.318s1.386 3.318 3.304 3.318m-14.588 1.792c-1.414 0-2.38-.812-2.38-2.114 0-1.064.826-1.862 2.338-2.114l2.156-.364v-.182c0-.742-.56-1.218-1.372-1.218-.686 0-1.218.322-1.596.84l-1.302-.994c.63-.868 1.666-1.4 2.954-1.4 2.044 0 3.094 1.218 3.094 2.772v4.564h-1.778v-.686c-.448.546-1.288.896-2.114.896m-.616-2.198c0 .476.378.784.98.784.812 0 1.4-.378 1.75-.938v-.994l-1.68.28c-.742.126-1.05.434-1.05.868m-6.718 1.988v-7.056h1.778v.7c.462-.476 1.064-.84 1.862-.84.238 0 .448.042.616.098v1.75a3 3 0 0 0-.784-.098c-.868 0-1.428.476-1.694.924v4.522zm-3.014-8.288c-.63 0-1.162-.532-1.162-1.162s.532-1.162 1.162-1.162 1.148.532 1.148 1.162-.518 1.162-1.148 1.162m-.896 8.288v-7.056h1.778v7.056zm-12.241 0v-9.8h2.478l2.394 4.116 2.394-4.116h2.478v9.8h-1.988v-7.028l-2.184 3.668h-1.4l-2.184-3.668v7.028z"/><path fill="#666" d="M160.91 233.708c-1.296 0-2.124-.576-2.7-1.428l.864-.66c.48.732 1.056 1.104 1.836 1.104 1.536 0 2.304-1.272 2.352-3.36-.6.612-1.392.948-2.328.948-1.572 0-2.652-1.188-2.652-2.664 0-1.524 1.068-2.82 2.892-2.82 1.968 0 3.204 1.392 3.204 4.308 0 2.724-1.08 4.572-3.468 4.572m-1.512-6.096c0 .972.72 1.728 1.704 1.728.852 0 1.62-.36 2.112-1.092-.18-1.764-.972-2.436-2.028-2.436-1.116 0-1.788.792-1.788 1.8m-5.192-2.784c1.68 0 2.652.996 2.652 2.196 0 .84-.432 1.5-1.224 1.848 1.044.372 1.632 1.188 1.632 2.268 0 1.452-1.14 2.568-3.06 2.568-1.908 0-3.06-1.116-3.06-2.568 0-1.08.588-1.896 1.632-2.268-.804-.348-1.236-1.008-1.236-1.848 0-1.2.972-2.196 2.664-2.196m.012 3.636c.9 0 1.524-.552 1.524-1.344 0-.804-.624-1.356-1.524-1.356-.936 0-1.548.552-1.548 1.356s.612 1.344 1.548 1.344m0 4.296c1.152 0 1.932-.684 1.932-1.668 0-.996-.78-1.704-1.932-1.704-1.176 0-1.956.708-1.956 1.704s.78 1.668 1.956 1.668m-7.267-7.932c2.112 0 3.144 1.944 3.144 4.44s-1.032 4.44-3.144 4.44c-2.088 0-3.132-1.944-3.132-4.44s1.044-4.44 3.132-4.44m.012 1.008c-1.344 0-2.04 1.464-2.04 3.432s.696 3.432 2.04 3.432c1.332 0 2.016-1.464 2.016-3.432s-.684-3.432-2.016-3.432m-7.289-1.008c2.112 0 3.144 1.944 3.144 4.44s-1.032 4.44-3.144 4.44c-2.088 0-3.132-1.944-3.132-4.44s1.044-4.44 3.132-4.44m.012 1.008c-1.344 0-2.04 1.464-2.04 3.432s.696 3.432 2.04 3.432c1.332 0 2.016-1.464 2.016-3.432s-.684-3.432-2.016-3.432m-7.289-1.008c2.112 0 3.144 1.944 3.144 4.44s-1.032 4.44-3.144 4.44c-2.088 0-3.132-1.944-3.132-4.44s1.044-4.44 3.132-4.44m.012 1.008c-1.344 0-2.04 1.464-2.04 3.432s.696 3.432 2.04 3.432c1.332 0 2.016-1.464 2.016-3.432s-.684-3.432-2.016-3.432m-9.98 7.632v-.972l2.844-2.928c.984-1.032 1.428-1.5 1.428-2.388 0-.876-.636-1.38-1.488-1.38-.888 0-1.464.444-1.956 1.26l-.888-.54c.684-1.068 1.62-1.692 2.928-1.692 1.404 0 2.52.912 2.52 2.28 0 1.14-.744 1.992-1.752 3.048l-2.304 2.34h4.284v.972zm-1.272-2.316c0 1.524-1.236 2.556-2.928 2.556-1.452 0-2.412-.588-3.084-1.704l.948-.588c.516.924 1.188 1.32 2.124 1.32 1.044 0 1.824-.612 1.824-1.632 0-.948-.672-1.608-1.776-1.608h-1.428v-.972h1.26c.96 0 1.572-.576 1.572-1.392 0-.852-.636-1.332-1.5-1.332-.756 0-1.344.384-1.74 1.116l-.9-.552c.6-.984 1.488-1.536 2.712-1.536 1.452 0 2.532.876 2.532 2.208 0 .816-.384 1.512-1.104 1.908.972.396 1.488 1.236 1.488 2.208m-9.924-6.324c2.112 0 3.144 1.944 3.144 4.44s-1.032 4.44-3.144 4.44c-2.088 0-3.132-1.944-3.132-4.44s1.044-4.44 3.132-4.44m.012 1.008c-1.344 0-2.04 1.464-2.04 3.432s.696 3.432 2.04 3.432c1.332 0 2.016-1.464 2.016-3.432s-.684-3.432-2.016-3.432m-7.698 7.872c-1.296 0-2.124-.576-2.7-1.428l.864-.66c.48.732 1.056 1.104 1.836 1.104 1.536 0 2.304-1.272 2.352-3.36-.6.612-1.392.948-2.328.948-1.572 0-2.652-1.188-2.652-2.664 0-1.524 1.068-2.82 2.892-2.82 1.968 0 3.204 1.392 3.204 4.308 0 2.724-1.08 4.572-3.468 4.572m-1.512-6.096c0 .972.72 1.728 1.704 1.728.852 0 1.62-.36 2.112-1.092-.18-1.764-.972-2.436-2.028-2.436-1.116 0-1.788.792-1.788 1.8m-7.627 1.872.252-4.416h4.62v.972h-3.588l-.144 2.46h1.212c1.98 0 2.916 1.08 2.916 2.568 0 1.608-1.248 2.64-2.928 2.64-1.44 0-2.412-.588-3.084-1.704l.948-.588c.516.936 1.212 1.32 2.124 1.32 1.056 0 1.836-.612 1.836-1.632 0-.972-.684-1.62-1.86-1.62zm-4.365-4.656c1.296 0 2.112.576 2.7 1.428l-.852.66c-.492-.732-1.068-1.104-1.836-1.104-1.536 0-2.292 1.272-2.352 3.348.6-.6 1.392-.936 2.316-.936 1.584 0 2.664 1.188 2.664 2.664 0 1.524-1.08 2.82-2.892 2.82-1.968 0-3.204-1.392-3.204-4.308 0-2.724 1.068-4.572 3.456-4.572m-.192 4.368c-.84 0-1.596.36-2.1 1.08.18 1.776.948 2.448 2.016 2.448 1.128 0 1.788-.792 1.788-1.8 0-.972-.72-1.728-1.704-1.728m-6.503 4.272v-7.308l-2.22 1.2-.552-.768 2.76-1.524h1.08v8.4zm-6.043-8.64c1.296 0 2.112.576 2.7 1.428l-.852.66c-.492-.732-1.068-1.104-1.836-1.104-1.536 0-2.292 1.272-2.352 3.348.6-.6 1.392-.936 2.316-.936 1.584 0 2.664 1.188 2.664 2.664 0 1.524-1.08 2.82-2.892 2.82-1.968 0-3.204-1.392-3.204-4.308 0-2.724 1.068-4.572 3.456-4.572m-.192 4.368c-.84 0-1.596.36-2.1 1.08.18 1.776.948 2.448 2.016 2.448 1.128 0 1.788-.792 1.788-1.8 0-.972-.72-1.728-1.704-1.728m-8.333 4.272h-1.248l4.44-7.428h-4.68v-.972h5.832v.972zM56.115 226.1v-1.032h6.696v1.032h-2.784v7.368H58.9V226.1zm-5.943 7.368v-8.4h4.512v.96H51.3v2.688h2.904v.948H51.3v2.844h3.384v.96zm-7.688 0v-8.4h2.232c1.692 0 2.736.924 2.736 2.364 0 1.008-.516 1.764-1.416 2.124l2.712 3.912h-1.332l-2.436-3.696c-.084.012-.18.012-.264.012h-1.104v3.684zm2.28-7.44h-1.152v2.796h1.152c.96 0 1.524-.516 1.524-1.416 0-.852-.564-1.38-1.524-1.38m-6.076 7.44v-8.4h1.127v8.4zm-7.691-1.152.84-.768c.576.744 1.248 1.14 2.028 1.14.936 0 1.476-.564 1.476-1.332 0-1.896-3.984-1.488-3.984-4.26 0-1.248 1.032-2.268 2.496-2.268 1.176 0 2.04.54 2.664 1.368l-.852.744c-.492-.708-1.08-1.104-1.8-1.104-.828 0-1.356.516-1.356 1.236 0 1.884 3.972 1.452 3.972 4.248 0 1.452-1.116 2.376-2.604 2.376-1.236 0-2.148-.468-2.88-1.38m253-17.516c1.647 0 2.6.996 2.6 2.196 0 .84-.424 1.5-1.2 1.848 1.023.372 1.6 1.188 1.6 2.268 0 1.452-1.118 2.568-3 2.568-1.871 0-3-1.116-3-2.568 0-1.08.576-1.896 1.6-2.268-.789-.348-1.212-1.008-1.212-1.848 0-1.2.953-2.196 2.612-2.196m.011 3.636c.883 0 1.494-.552 1.494-1.344 0-.804-.611-1.356-1.494-1.356-.917 0-1.517.552-1.517 1.356s.6 1.344 1.517 1.344m0 4.296c1.13 0 1.894-.684 1.894-1.668 0-.996-.764-1.704-1.894-1.704-1.153 0-1.917.708-1.917 1.704s.764 1.668 1.917 1.668"/><path stroke="#929292" d="M26.997 245.208h300"/><path fill="#3a3a3a" d="m208.515 90.504 1.176-1.064c.434.546.952.938 1.624.938.574 0 .868-.336.868-.756 0-1.232-3.374-.77-3.374-3.248 0-1.246 1.05-2.184 2.52-2.184 1.078 0 2.058.518 2.562 1.204l-1.176 1.036c-.364-.448-.826-.812-1.372-.812-.56 0-.826.308-.826.672 0 1.204 3.374.784 3.374 3.22-.028 1.484-1.218 2.296-2.548 2.296-1.26 0-2.156-.504-2.828-1.302m-.9-.126c-.658.882-1.75 1.428-3.08 1.428-2.506 0-3.92-1.75-3.92-3.808 0-2.086 1.316-3.808 3.626-3.808 1.96 0 3.248 1.33 3.248 3.178 0 .392-.056.756-.112.994h-4.942c.168 1.316.98 1.848 2.086 1.848.77 0 1.442-.336 1.82-.84zm-3.416-4.732c-.91 0-1.512.504-1.708 1.428h3.248c-.028-.714-.546-1.428-1.54-1.428m-8.467 5.88V84.47h1.778v.7c.462-.476 1.064-.84 1.862-.84.238 0 .448.042.616.098v1.75a3 3 0 0 0-.784-.098c-.868 0-1.428.476-1.694.924v4.522zm-3.014-8.288c-.63 0-1.162-.532-1.162-1.162s.532-1.162 1.162-1.162 1.148.532 1.148 1.162-.518 1.162-1.148 1.162m-.896 8.288V84.47h1.778v7.056zm-5.928.21c-1.414 0-2.38-.812-2.38-2.114 0-1.064.826-1.862 2.338-2.114l2.156-.364v-.182c0-.742-.56-1.218-1.372-1.218-.686 0-1.218.322-1.596.84l-1.302-.994c.63-.868 1.666-1.4 2.954-1.4 2.044 0 3.094 1.218 3.094 2.772v4.564h-1.778v-.686c-.448.546-1.288.896-2.114.896m-.616-2.198c0 .476.378.784.98.784.812 0 1.4-.378 1.75-.938v-.994l-1.68.28c-.742.126-1.05.434-1.05.868m-9.999 1.988V84.47h1.778v.56a2.87 2.87 0 0 1 2.086-.84c1.526 0 2.744 1.05 2.744 3.136v4.2h-1.792v-4.13c0-.938-.532-1.526-1.4-1.526-.896 0-1.372.602-1.638 1.05v4.606zm-1.611-1.148c-.658.882-1.75 1.428-3.08 1.428-2.506 0-3.92-1.75-3.92-3.808 0-2.086 1.316-3.808 3.626-3.808 1.96 0 3.248 1.33 3.248 3.178 0 .392-.056.756-.112.994h-4.942c.168 1.316.98 1.848 2.086 1.848.77 0 1.442-.336 1.82-.84zm-3.416-4.732c-.91 0-1.512.504-1.708 1.428h3.248c-.028-.714-.546-1.428-1.54-1.428m-8.484 3.304v-2.884h-1.316V84.47h1.316v-1.764h1.792v1.764h2.156v1.596h-2.156v2.884c0 .784.42 1.092 1.12 1.092.49 0 .812-.056 1.05-.154v1.554c-.35.154-.77.224-1.358.224-1.764 0-2.604-.994-2.604-2.716m-6.6 2.576V84.47h1.778v.7c.462-.476 1.064-.84 1.862-.84.238 0 .448.042.616.098v1.75a3 3 0 0 0-.784-.098c-.868 0-1.428.476-1.694.924v4.522zm-5.928.21c-1.414 0-2.38-.812-2.38-2.114 0-1.064.826-1.862 2.338-2.114l2.156-.364v-.182c0-.742-.56-1.218-1.372-1.218-.686 0-1.218.322-1.596.84l-1.302-.994c.63-.868 1.666-1.4 2.954-1.4 2.044 0 3.094 1.218 3.094 2.772v4.564h-1.778v-.686c-.448.546-1.288.896-2.114.896m-.616-2.198c0 .476.378.784.98.784.812 0 1.4-.378 1.75-.938v-.994l-1.68.28c-.742.126-1.05.434-1.05.868m-10.395 5.432v-10.5h1.778v.574c.546-.546 1.232-.854 2.198-.854 2.24 0 3.584 1.75 3.584 3.808s-1.344 3.808-3.584 3.808c-.966 0-1.652-.308-2.198-.854v4.018zm3.724-9.1c-.826 0-1.498.364-1.946 1.022v2.212c.476.672 1.134 1.022 1.946 1.022 1.204 0 1.988-.896 1.988-2.128s-.784-2.128-1.988-2.128m-14.512 4.634 1.176-1.064c.434.546.952.938 1.624.938.574 0 .868-.336.868-.756 0-1.232-3.374-.77-3.374-3.248 0-1.246 1.05-2.184 2.52-2.184 1.078 0 2.058.518 2.562 1.204l-1.176 1.036c-.364-.448-.826-.812-1.372-.812-.56 0-.826.308-.826.672 0 1.204 3.374.784 3.374 3.22-.028 1.484-1.218 2.296-2.548 2.296-1.26 0-2.156-.504-2.828-1.302m-.9-.126c-.658.882-1.75 1.428-3.08 1.428-2.506 0-3.92-1.75-3.92-3.808 0-2.086 1.316-3.808 3.626-3.808 1.96 0 3.248 1.33 3.248 3.178 0 .392-.056.756-.112.994h-4.942c.168 1.316.98 1.848 2.086 1.848.77 0 1.442-.336 1.82-.84zm-3.416-4.732c-.91 0-1.512.504-1.708 1.428h3.248c-.028-.714-.546-1.428-1.54-1.428m-10.067 4.858 1.176-1.064c.434.546.952.938 1.624.938.574 0 .868-.336.868-.756 0-1.232-3.374-.77-3.374-3.248 0-1.246 1.05-2.184 2.52-2.184 1.078 0 2.058.518 2.562 1.204l-1.176 1.036c-.364-.448-.826-.812-1.372-.812-.56 0-.826.308-.826.672 0 1.204 3.374.784 3.374 3.22-.028 1.484-1.218 2.296-2.548 2.296-1.26 0-2.156-.504-2.828-1.302m-2.303-7.266c-.63 0-1.162-.532-1.162-1.162s.532-1.162 1.162-1.162 1.148.532 1.148 1.162-.518 1.162-1.148 1.162m-.896 8.288V84.47h1.778v7.056zm-5.687 0V84.47h1.778v.7c.462-.476 1.064-.84 1.862-.84.238 0 .448.042.616.098v1.75a3 3 0 0 0-.784-.098c-.868 0-1.428.476-1.694.924v4.522zm-9.188 3.444v-10.5h1.778v.574c.546-.546 1.232-.854 2.198-.854 2.24 0 3.584 1.75 3.584 3.808s-1.344 3.808-3.584 3.808c-.966 0-1.652-.308-2.198-.854v4.018zm3.724-9.1c-.826 0-1.498.364-1.946 1.022v2.212c.476.672 1.134 1.022 1.946 1.022 1.204 0 1.988-.896 1.988-2.128s-.784-2.128-1.988-2.128m-5.335 4.508c-.658.882-1.75 1.428-3.08 1.428-2.506 0-3.92-1.75-3.92-3.808 0-2.086 1.316-3.808 3.626-3.808 1.96 0 3.248 1.33 3.248 3.178 0 .392-.056.756-.112.994h-4.942c.168 1.316.98 1.848 2.086 1.848.77 0 1.442-.336 1.82-.84zm-3.416-4.732c-.91 0-1.512.504-1.708 1.428h3.248c-.028-.714-.546-1.428-1.54-1.428m-8.467 5.88V84.47h1.778v.7c.462-.476 1.064-.84 1.862-.84.238 0 .448.042.616.098v1.75a3 3 0 0 0-.784-.098c-.868 0-1.428.476-1.694.924v4.522zm-5.54-2.576v-2.884h-1.316V84.47h1.316v-1.764h1.792v1.764h2.156v1.596h-2.156v2.884c0 .784.42 1.092 1.12 1.092.49 0 .812-.056 1.05-.154v1.554c-.35.154-.77.224-1.358.224-1.764 0-2.604-.994-2.604-2.716m-9.075 2.576V84.47h1.778v.56a2.87 2.87 0 0 1 2.086-.84c1.526 0 2.744 1.05 2.744 3.136v4.2h-1.792v-4.13c0-.938-.532-1.526-1.4-1.526-.896 0-1.372.602-1.638 1.05v4.606zm-1.611-1.148c-.658.882-1.75 1.428-3.08 1.428-2.506 0-3.92-1.75-3.92-3.808 0-2.086 1.316-3.808 3.626-3.808 1.96 0 3.248 1.33 3.248 3.178 0 .392-.056.756-.112.994h-4.942c.168 1.316.98 1.848 2.086 1.848.77 0 1.442-.336 1.82-.84zm-3.416-4.732c-.91 0-1.512.504-1.708 1.428h3.248c-.028-.714-.546-1.428-1.54-1.428M47.98 90.504l1.176-1.064c.434.546.952.938 1.624.938.574 0 .868-.336.868-.756 0-1.232-3.374-.77-3.374-3.248 0-1.246 1.05-2.184 2.52-2.184 1.078 0 2.058.518 2.562 1.204L52.18 86.43c-.364-.448-.826-.812-1.372-.812-.56 0-.826.308-.826.672 0 1.204 3.374.784 3.374 3.22-.028 1.484-1.218 2.296-2.548 2.296-1.26 0-2.156-.504-2.828-1.302m-.9-.126c-.658.882-1.75 1.428-3.08 1.428-2.506 0-3.92-1.75-3.92-3.808 0-2.086 1.316-3.808 3.626-3.808 1.96 0 3.248 1.33 3.248 3.178 0 .392-.056.756-.112.994H41.9c.168 1.316.98 1.848 2.086 1.848.77 0 1.442-.336 1.82-.84zm-3.416-4.732c-.91 0-1.512.504-1.708 1.428h3.248c-.028-.714-.546-1.428-1.54-1.428m-15.225 5.88v-9.8h2.477l2.394 4.116 2.395-4.116h2.477v9.8h-1.988v-7.028l-2.184 3.668h-1.4l-2.183-3.668v7.028z"/><g filter="url(#c)"><rect width="156.886" height="20" x="129.292" y="43" fill="#e6eefe" rx="4"/><path fill="#3558a2" d="M136.292 49a1 1 0 1 1-2 0 1 1 0 0 1 2 0m-1.5 6v3h-1v-6a1.5 1.5 0 0 1 2.553-1.069l1.187 1.122 1.157-1.157.707.707-1.844 1.844-.76-.718V58h-1v-3zm2.5-5.5h4.5V54h-4.5v1h2.183l1.411 3h1.106l-1.412-3h1.712a.5.5 0 0 0 .5-.5V49a.5.5 0 0 0-.5-.5h-5zm135.242 7.7v-8.4h2.184l3.756 6.072V48.8h1.704v8.4h-2.184l-3.756-6.072V57.2zm-6.205-8.64c2.64 0 4.452 2.04 4.452 4.44s-1.812 4.44-4.452 4.44c-2.652 0-4.464-2.04-4.464-4.44s1.812-4.44 4.464-4.44m0 7.284c1.572 0 2.7-1.236 2.7-2.844s-1.128-2.844-2.7-2.844c-1.584 0-2.712 1.236-2.712 2.844s1.128 2.844 2.712 2.844m-7.916 1.356v-8.4h1.704v8.4zm-8.504-6.852V48.8h6.888v1.548h-2.592V57.2h-1.704v-6.852zm-8.302 6.852 3.18-8.4h2.232l3.18 8.4h-1.812l-.804-2.184h-3.36l-.804 2.184zm3.144-3.636h2.304l-1.152-3.156zM231.847 57.2v-8.4h2.124l2.052 3.528 2.052-3.528h2.124v8.4h-1.704v-6.024l-1.872 3.144h-1.2l-1.872-3.144V57.2zm-8.028 0v-8.4h2.568c1.848 0 2.988.948 2.988 2.508 0 1.02-.492 1.776-1.356 2.172l2.628 3.72h-2.004l-2.244-3.396h-.876V57.2zm2.664-6.984h-.96v2.172h.96c.72 0 1.14-.42 1.14-1.104 0-.636-.42-1.068-1.14-1.068m-8.869-1.656c2.64 0 4.452 2.04 4.452 4.44s-1.812 4.44-4.452 4.44c-2.652 0-4.464-2.04-4.464-4.44s1.812-4.44 4.464-4.44m0 7.284c1.572 0 2.7-1.236 2.7-2.844s-1.128-2.844-2.7-2.844c-1.584 0-2.712 1.236-2.712 2.844s1.128 2.844 2.712 2.844M207.378 57.2v-8.4h4.896v1.416h-3.192v1.992h2.712v1.416h-2.712V57.2zm-5.053-2.376h-2.364V57.2h-1.296v-2.376h-2.376v-1.296h2.376v-2.376h1.296v2.376h2.364zM189.542 57.2v-8.4h1.704v8.4zm-6.205-8.64c2.64 0 4.452 2.04 4.452 4.44s-1.812 4.44-4.452 4.44c-2.652 0-4.464-2.04-4.464-4.44s1.812-4.44 4.464-4.44m0 7.284c1.572 0 2.7-1.236 2.7-2.844s-1.128-2.844-2.7-2.844c-1.584 0-2.712 1.236-2.712 2.844s1.128 2.844 2.712 2.844m-9.955 1.356v-8.4h1.704v6.852h3.192V57.2zm-7.278 0v-8.4h2.772c1.848 0 2.976.948 2.976 2.508 0 1.548-1.128 2.496-2.976 2.496h-1.068V57.2zm2.844-6.984h-1.14v2.172h1.14c.72 0 1.152-.42 1.152-1.104 0-.636-.432-1.068-1.152-1.068m-13.66 6.984v-8.4h2.124l2.052 3.528 2.052-3.528h2.124v8.4h-1.704v-6.024l-1.872 3.144h-1.2l-1.872-3.144V57.2zm-6.996 0v-8.4h4.896v1.416h-3.192v1.992h2.712v1.416h-2.712v2.16h3.192V57.2z"/></g><g filter="url(#d)"><rect width="97.8" height="20" x="261.196" y="18" fill="#c3fad5" rx="4"/><path fill="#297254" fill-rule="evenodd" d="M276.196 31h-7.5a.5.5 0 0 0 0 1h7.5v1h-7.5a1.5 1.5 0 0 1-1.5-1.5V24a1 1 0 0 1 1-1h8zm-2.5-4.5v-1h-4v1z" clip-rule="evenodd"/><path fill="#297254" d="M345.353 32.2v-8.4h2.184l3.756 6.072V23.8h1.704v8.4h-2.184l-3.756-6.072V32.2zm-6.205-8.64c2.64 0 4.452 2.04 4.452 4.44s-1.812 4.44-4.452 4.44c-2.652 0-4.464-2.04-4.464-4.44s1.812-4.44 4.464-4.44m0 7.284c1.572 0 2.7-1.236 2.7-2.844s-1.128-2.844-2.7-2.844c-1.584 0-2.712 1.236-2.712 2.844s1.128 2.844 2.712 2.844m-7.917 1.356v-8.4h1.704v8.4zm-8.504-6.852V23.8h6.888v1.548h-2.592V32.2h-1.704v-6.852zm-8.301 6.852 3.18-8.4h2.232l3.18 8.4h-1.812l-.804-2.184h-3.36l-.804 2.184zm3.144-3.636h2.304l-1.152-3.156zM304.665 32.2v-8.4h2.124l2.052 3.528 2.052-3.528h2.124v8.4h-1.704v-6.024l-1.872 3.144h-1.2l-1.872-3.144V32.2zm-8.027 0v-8.4h2.568c1.848 0 2.988.948 2.988 2.508 0 1.02-.492 1.776-1.356 2.172l2.628 3.72h-2.004l-2.244-3.396h-.876V32.2zm2.664-6.984h-.96v2.172h.96c.72 0 1.14-.42 1.14-1.104 0-.636-.42-1.068-1.14-1.068m-8.869-1.656c2.64 0 4.452 2.04 4.452 4.44s-1.812 4.44-4.452 4.44c-2.652 0-4.464-2.04-4.464-4.44s1.812-4.44 4.464-4.44m0 7.284c1.572 0 2.7-1.236 2.7-2.844s-1.128-2.844-2.7-2.844c-1.584 0-2.712 1.236-2.712 2.844s1.128 2.844 2.712 2.844M280.196 32.2v-8.4h4.896v1.416H281.9v1.992h2.712v1.416H281.9V32.2z"/></g><defs><filter id="b" width="361.993" height="232.948" x="0" y="57.226" color-interpolation-filters="sRGB" filterUnits="userSpaceOnUse"><feFlood flood-opacity="0" result="BackgroundImageFix"/><feColorMatrix in="SourceAlpha" result="hardAlpha" values="0 0 0 0 0 0 0 0 0 0 0 0 0 0 0 0 0 0 127 0"/><feOffset dy="10"/><feGaussianBlur stdDeviation="5"/><feColorMatrix values="0 0 0 0 0 0 0 0 0 0 0 0 0 0 0 0 0 0 0.16 0"/><feBlend in2="BackgroundImageFix" result="effect1_dropShadow_21940_46604"/><feBlend in="SourceGraphic" in2="effect1_dropShadow_21940_46604" result="shape"/></filter><filter id="c" width="192.886" height="60" x="111.292" y="23" color-interpolation-filters="sRGB" filterUnits="userSpaceOnUse"><feFlood flood-opacity="0" result="BackgroundImageFix"/><feColorMatrix in="SourceAlpha" result="hardAlpha" values="0 0 0 0 0 0 0 0 0 0 0 0 0 0 0 0 0 0 127 0"/><feMorphology in="SourceAlpha" operator="dilate" radius="6" result="effect1_dropShadow_21940_46604"/><feOffset/><feGaussianBlur stdDeviation="6"/><feColorMatrix values="0 0 0 0 0.475 0 0 0 0 0.475 0 0 0 0 0.475 0 0 0 0.4 0"/><feBlend in2="BackgroundImageFix" result="effect1_dropShadow_21940_46604"/><feBlend in="SourceGraphic" in2="effect1_dropShadow_21940_46604" result="shape"/></filter><filter id="d" width="133.8" height="60" x="243.196" y="-2" color-interpolation-filters="sRGB" filterUnits="userSpaceOnUse"><feFlood flood-opacity="0" result="BackgroundImageFix"/><feColorMatrix in="SourceAlpha" result="hardAlpha" values="0 0 0 0 0 0 0 0 0 0 0 0 0 0 0 0 0 0 127 0"/><feMorphology in="SourceAlpha" operator="dilate" radius="6" result="effect1_dropShadow_21940_46604"/><feOffset/><feGaussianBlur stdDeviation="6"/><feColorMatrix values="0 0 0 0 0.475 0 0 0 0 0.475 0 0 0 0 0.475 0 0 0 0.4 0"/><feBlend in2="BackgroundImageFix" result="effect1_dropShadow_21940_46604"/><feBlend in="SourceGraphic" in2="effect1_dropShadow_21940_46604" result="shape"/></filter><clipPath id="a"><path fill="#fff" d="M620.523 93.558h-483v280h483z"/></clipPath></defs></svg>