<svg xmlns="http://www.w3.org/2000/svg" width="581" height="283" fill="none" viewBox="0 0 581 283"><g clip-path="url(#a)"><path fill="#6a6af2" d="M488.164 173.604c.026 2.392-4.232 13.708-11.616 14.84.317 1.994 8.697 51.416 9.895 58.909 1.194 7.496 3.59 16.095 13.74 14.469.073-9.594.695-76.083.695-76.083l-2.27-12.988z"/><path fill="#6a6af2" d="M495.883 263.027c1.366.211 2.862.188 4.48-.073.553-.088.957-.562.965-1.125.069-9.482.687-75.413.694-76.079 0-.068-.003-.141-.015-.21l-2.27-12.988a1.145 1.145 0 0 0-1.221-.945l-10.444.853a1.15 1.15 0 0 0-1.053 1.156c.019 1.818-3.889 12.655-10.642 13.692-.302.046-.573.21-.752.459a1.16 1.16 0 0 0-.206.857c.11.681 1.118 6.651 2.511 14.917 2.625 15.548 6.593 39.044 7.379 43.992.596 3.738 1.504 7.982 3.705 11.132 1.721 2.46 4.022 3.918 6.865 4.358zm3.159-2.216c-3.609.349-6.284-.788-8.15-3.459-1.946-2.782-2.797-6.9-3.32-10.179-.79-4.959-4.758-28.463-7.384-44.015-1.068-6.337-1.961-11.614-2.331-13.83 6.517-1.886 10.589-10.845 11.329-14.656l8.471-.693 2.072 11.856c-.027 2.919-.587 62.838-.683 74.976z"/><path fill="#6a6af2" d="M481.138 140.963c-1.06-6.655.523-13.329 4.469-18.79 3.941-5.46 9.768-9.054 16.404-10.117 13.698-2.201 26.63 7.19 28.824 20.932 1.061 6.654-.526 13.328-4.468 18.789s-9.769 9.054-16.404 10.118a25.1 25.1 0 0 1-7.842.03 24.5 24.5 0 0 1-4.426-1.113l1.916 12-12.135 1.948-4.338-27.204a25.4 25.4 0 0 1-2-6.593m26.532 6.574c5.807-.93 9.772-6.425 8.845-12.249-.748-4.696-4.457-8.193-8.91-8.882a10.6 10.6 0 0 0-3.305.011 10.6 10.6 0 0 0-6.952 4.286 10.65 10.65 0 0 0-1.893 7.964 10.64 10.64 0 0 0 4.274 6.972 10.57 10.57 0 0 0 7.941 1.898"/><path fill="#6a6af2" d="M452.512 120c13.699-2.197 26.63 7.194 28.821 20.932.328 2.066.393 4.114.225 6.111l4.461 27.954-12.253 1.967-1.923-12.058a25 25 0 0 1-11.383 4.933 25 25 0 0 1-7.795.027c-10.509-1.627-19.262-9.877-21.029-20.959-2.19-13.742 7.174-26.707 20.872-28.907zm-6.555 26.607c.931 5.824 6.41 9.804 12.214 8.87a10.6 10.6 0 0 0 6.952-4.289 10.65 10.65 0 0 0 1.893-7.964c-.748-4.695-4.457-8.193-8.91-8.882a10.7 10.7 0 0 0-3.304.012c-5.808.93-9.776 6.429-8.845 12.249z"/><path fill="#6a6af2" d="M485.205 174.079c.722 2.281 7.846 10.022 15.21 8.79.317 1.994 8.486 53.195 9.681 60.691s1.595 16.417-8.551 18.043c-3.053-9.092-25.082-71.946-25.082-71.946l-1.885-13.049z"/><path fill="#6a6af2" d="M501.37 262.736c.114.019.236.019.354 0 12.276-1.971 10.334-14.155 9.502-19.359-1.195-7.497-9.364-58.694-9.681-60.692a1.14 1.14 0 0 0-1.32-.949c-6.926 1.16-13.443-6.463-13.932-8.005a1.14 1.14 0 0 0-1.354-.77l-10.627 2.53a1.15 1.15 0 0 0-.87 1.282l1.885 13.049a1 1 0 0 0 .053.214c.221.628 22.063 62.95 25.078 71.931.141.417.496.704.912.769m-1.912-78.608 9.509 59.609c.523 3.275.996 7.454.011 10.707-.946 3.126-3.133 5.043-6.67 5.839-3.907-11.495-23.734-68.073-24.73-70.905l-1.717-11.901 8.727-2.074c1.827 3.038 8.04 9.123 14.87 8.725"/><path fill="#6a6af2" d="M490.968 196.672c-3.013 0-5.456-2.45-5.456-5.472s2.443-5.472 5.456-5.472 5.457 2.45 5.457 5.472-2.443 5.472-5.457 5.472"/><path fill="#fff" d="m476.526 254.551-21.964-106.153-12.745 2.652 21.964 106.153c.729 3.528 4.174 5.797 7.696 5.066 3.519-.73 5.781-4.186 5.053-7.718z"/><path fill="#2e186a" d="M471.13 263.49c.194-.027.385-.057.58-.099a7.6 7.6 0 0 0 4.842-3.303 7.64 7.64 0 0 0 1.095-5.77l-21.964-106.154a1.14 1.14 0 0 0-1.35-.891l-12.745 2.652a1.15 1.15 0 0 0-.889 1.358l21.964 106.153a7.6 7.6 0 0 0 3.293 4.856 7.6 7.6 0 0 0 5.178 1.198zm-17.454-113.737 21.731 105.028a5.36 5.36 0 0 1-.767 4.044 5.32 5.32 0 0 1-3.396 2.316 5.34 5.34 0 0 1-4.033-.77 5.34 5.34 0 0 1-2.309-3.405l-21.731-105.028z"/><path fill="#2e186a" d="m457.141 153.935-15.493 3.226s-6.471-31.272-9.15-44.233c-2.682-12.961-.851-15.984 4.854-17.174 5.705-1.187 8.425 3.241 11.104 16.202z"/><path fill="#2e186a" d="m433.468 150.242 2.24-.467-6.762-32.68c-1.477-7.14.588-7.569 1.267-7.711l9.6-1.997-.465-2.246-9.601 1.997c-4.983 1.037-3.522 8.105-3.041 10.424z"/><path fill="#2e186a" d="M435.055 153.621a3.643 3.643 0 0 0 3.087-4.351c-.404-1.967-2.339-3.237-4.293-2.824a3.65 3.65 0 0 0-2.82 4.305 3.644 3.644 0 0 0 4.022 2.874zm-.637-4.948a1.337 1.337 0 0 1 1.484 1.06 1.343 1.343 0 0 1-1.042 1.588 1.343 1.343 0 0 1-1.587-1.044 1.35 1.35 0 0 1 1.141-1.608z"/><path fill="#fd7624" d="M541.837 132.437c.942-1.615 3.361-1.252 3.796.566l5.369 22.551a41.2 41.2 0 0 1 .675 15.567l-14.526 98.025c-.794 5.346-5.755 9.031-11.085 8.239l-7.38-1.098c-5.331-.796-9.005-5.771-8.215-11.117l14.526-98.025a41.1 41.1 0 0 1 5.159-14.695l11.677-20.01z"/><path fill="#2e186a" d="m532.736 148.034 9.1-15.597c.943-1.615 3.362-1.252 3.797.566l4.171 17.519c-4.526-1.684-12.524-4.137-17.068-2.488"/><path fill="#fff" d="M536.639 167.355c-2.942-3.444-7.628-3.562-11.119-3.03q.27-1.223.614-2.423c3.797-.432 8.582-.023 11.936 3.613 4.938-2.897 10.459-1.095 14.034.769a44 44 0 0 1-.156 2.552c-3.121-1.787-8.57-4.01-13.042-1.148l-16.107 108.687a1.1 1.1 0 0 1-.198.486l-2.019-.303a1.15 1.15 0 0 1-.049-.524l16.106-108.686z"/><path fill="#6a6af2" d="M546.694 246.687a1.15 1.15 0 0 0 .908-1.848l-35.632-46.828a1.14 1.14 0 0 0-1.606-.214 1.15 1.15 0 0 0-.214 1.611l35.632 46.827c.225.295.565.452.912.452m-2.415 13.676c.248 0 .5-.08.709-.244a1.15 1.15 0 0 0 .191-1.611l-34.262-43.537a1.143 1.143 0 0 0-1.606-.191 1.15 1.15 0 0 0-.191 1.611l34.262 43.536c.225.287.561.436.901.436zm-2.545 14.642a1.15 1.15 0 0 0 .9-1.86l-34.361-43.636a1.14 1.14 0 0 0-1.606-.191 1.15 1.15 0 0 0-.191 1.611l34.361 43.636c.225.287.561.436.901.436zm-9.159 6.505c.237 0 .477-.073.679-.226a1.154 1.154 0 0 0 .241-1.607l-24.36-32.998a1.15 1.15 0 0 0-1.603-.241 1.155 1.155 0 0 0-.24 1.607l24.36 32.998c.225.302.572.463.919.463zm-13.737 0c.237 0 .473-.073.679-.222a1.154 1.154 0 0 0 .245-1.607l-12.15-16.543a1.143 1.143 0 0 0-1.599-.245 1.155 1.155 0 0 0-.244 1.607l12.15 16.543c.225.306.572.467.923.467zm30.527-50.513c.248 0 .496-.08.709-.244.496-.395.58-1.114.191-1.612l-36.574-46.536a1.144 1.144 0 1 0-1.797 1.419l36.574 46.537c.225.287.561.436.901.436z"/><path fill="#6a6af2" d="M506.628 268.116c.317 0 .634-.13.859-.39l45.408-51.66a1.145 1.145 0 0 0-.103-1.619 1.14 1.14 0 0 0-1.615.103l-45.407 51.661a1.143 1.143 0 0 0 .103 1.618c.217.192.488.287.755.287m3.434 13.394c.32 0 .641-.134.866-.398l38.158-44.39a1.145 1.145 0 1 0-1.732-1.5l-38.158 44.39a1.153 1.153 0 0 0 .118 1.619c.217.187.481.279.748.279m12.593 0c.294 0 .591-.115.813-.341l21.513-21.797a1.146 1.146 0 0 0-.008-1.622 1.14 1.14 0 0 0-1.618.008l-21.513 21.797a1.146 1.146 0 0 0 .813 1.955m-11.077-82.714c.331 0 .656-.142.885-.418l14.87-18.069a1.15 1.15 0 0 0-.153-1.615 1.14 1.14 0 0 0-1.61.153l-14.87 18.07a1.15 1.15 0 0 0 .153 1.615c.213.176.473.264.728.264zm-1.111 16.068c.328 0 .653-.142.878-.41l30.213-36.154a1.154 1.154 0 0 0-.141-1.619 1.145 1.145 0 0 0-1.614.142l-30.214 36.154a1.154 1.154 0 0 0 .142 1.619c.213.18.477.268.732.268zm-2.393 19.363c.329 0 .657-.142.882-.413l45.728-55.273a1.15 1.15 0 0 0-.149-1.615 1.14 1.14 0 0 0-1.61.149l-45.728 55.273a1.148 1.148 0 0 0 .877 1.879m.222 15.935c.332 0 .66-.146.889-.421l47.937-58.962a1.15 1.15 0 0 0-.164-1.615 1.14 1.14 0 0 0-1.61.164L507.41 248.29c-.4.49-.324 1.213.164 1.615.214.172.47.257.722.257"/><path fill="#6a6af2" d="M555.852 188.903c.248 0 .5-.08.714-.248a1.15 1.15 0 0 0 .183-1.615l-7.22-9.108a1.143 1.143 0 0 0-1.61-.183 1.15 1.15 0 0 0-.183 1.614l7.22 9.108c.225.287.56.432.896.432m-1.527 13.394c.248 0 .496-.08.706-.245.496-.39.584-1.113.195-1.611l-16.58-21.192a1.14 1.14 0 0 0-1.606-.195 1.15 1.15 0 0 0-.195 1.611l16.58 21.192c.225.287.561.44.9.44m-2.289 14.159a1.148 1.148 0 0 0 .897-1.86l-28.626-36.197a1.14 1.14 0 0 0-1.606-.187 1.147 1.147 0 0 0-.187 1.611l28.626 36.197c.225.287.561.436.896.436"/><path fill="#2e186a" d="M453.97 264.673c.336 0 .672-.15.897-.433l57.046-71.9a1.15 1.15 0 0 0-.183-1.615 1.143 1.143 0 0 0-1.61.184l-57.046 71.9a1.15 1.15 0 0 0 .183 1.615c.21.168.461.249.713.249m1.908 16.837c.339 0 .675-.153.904-.44l54.028-69.351a1.15 1.15 0 0 0-.198-1.611 1.14 1.14 0 0 0-1.607.198l-54.028 69.352a1.148 1.148 0 0 0 .901 1.856zm15.263-1.148c.344 0 .683-.153.908-.448l38.025-49.651a1.153 1.153 0 0 0-.21-1.611 1.146 1.146 0 0 0-1.607.21l-38.024 49.652a1.153 1.153 0 0 0 .21 1.611c.206.16.454.237.698.237m13.355 0c.355 0 .703-.164.928-.471l23.616-32.519a1.147 1.147 0 0 0-.252-1.603 1.14 1.14 0 0 0-1.599.252l-23.616 32.52a1.147 1.147 0 0 0 .923 1.825zm-32.129-33.606c.329 0 .657-.142.882-.417l54.821-66.497a1.146 1.146 0 1 0-1.763-1.462l-54.821 66.497a1.146 1.146 0 0 0 .881 1.879"/><path fill="#2e186a" d="M506.246 264.29a1.148 1.148 0 0 0 .882-1.879l-61.561-74.579a1.14 1.14 0 0 0-1.61-.153 1.15 1.15 0 0 0-.152 1.615l61.56 74.579c.225.275.553.417.881.417m-.381 17.22c.26 0 .519-.088.733-.264a1.154 1.154 0 0 0 .149-1.619l-58.267-70.182a1.146 1.146 0 0 0-1.614-.149 1.153 1.153 0 0 0-.149 1.619l58.267 70.182c.225.272.553.413.881.413m-16.027 0c.252 0 .508-.084.718-.253a1.15 1.15 0 0 0 .171-1.614l-38.814-48.301a1.14 1.14 0 0 0-1.61-.172 1.15 1.15 0 0 0-.172 1.614l38.814 48.301c.226.283.558.429.893.429zm-15.263-1.148a1.15 1.15 0 0 0 .916-1.837l-21.57-28.872a1.146 1.146 0 1 0-1.832 1.377l21.571 28.873c.225.302.568.459.915.459m36.182-75.551c.279 0 .557-.103.779-.306a1.155 1.155 0 0 0 .061-1.622l-22.212-23.975a1.146 1.146 0 0 0-1.618-.061 1.155 1.155 0 0 0-.061 1.623l22.212 23.974c.225.245.53.367.839.367m.259-12.754c.279 0 .557-.104.778-.306.462-.433.489-1.16.061-1.623l-14.961-16.149a1.146 1.146 0 0 0-1.618-.061 1.154 1.154 0 0 0-.061 1.623l14.962 16.148c.225.245.53.368.839.368m-1.11 26.611c.259 0 .523-.088.736-.268a1.154 1.154 0 0 0 .142-1.619l-33.278-39.713a1.145 1.145 0 0 0-1.614-.142 1.153 1.153 0 0 0-.141 1.619l33.277 39.713c.226.272.55.41.878.41m-1.476 14.889c.251 0 .507-.084.721-.256a1.15 1.15 0 0 0 .168-1.615l-44.214-54.603a1.14 1.14 0 0 0-1.61-.169 1.15 1.15 0 0 0-.168 1.615l44.214 54.604c.225.279.557.424.889.424m-.417 15.935a1.15 1.15 0 0 0 .87-1.894l-59.389-69.474a1.144 1.144 0 0 0-1.614-.126 1.153 1.153 0 0 0-.126 1.618l59.389 69.474c.226.264.546.402.87.402"/><path fill="#2e186a" d="M447.774 204.367c.336 0 .664-.145.889-.424l18.163-22.509a1.15 1.15 0 0 0-.172-1.615 1.143 1.143 0 0 0-1.61.172L446.881 202.5a1.15 1.15 0 0 0 .889 1.871zm-2.401-12.31c.332 0 .664-.146.889-.425l13.745-17.033a1.15 1.15 0 0 0-.172-1.615 1.14 1.14 0 0 0-1.61.173l-13.745 17.032a1.151 1.151 0 0 0 .889 1.872zm3.252 26.167c.332 0 .664-.146.889-.425l29.343-36.365a1.15 1.15 0 0 0-.171-1.615 1.144 1.144 0 0 0-1.611.172l-29.343 36.365a1.15 1.15 0 0 0 .889 1.872zm2.4 13.749c.332 0 .664-.145.889-.424l39.989-49.556a1.15 1.15 0 0 0-.172-1.615 1.14 1.14 0 0 0-1.61.172l-39.989 49.556a1.15 1.15 0 0 0 .889 1.871z"/><path fill="#2e186a" d="M455.878 280.362c.046 0 .095 0 .145-.008.626-.08 1.072-.65.996-1.282l-12.249-98.507a1.147 1.147 0 0 0-1.278-.999 1.15 1.15 0 0 0-.996 1.282l12.249 98.508a1.144 1.144 0 0 0 1.133 1.006m49.987 1.148c.599 0 1.103-.467 1.141-1.075l6.273-99.204a1.143 1.143 0 1 0-2.282-.145l-6.273 99.203a1.146 1.146 0 0 0 1.069 1.217h.072z"/><path fill="#2e186a" d="M564.738 169.709H437.157c-3.029 0-5.483 2.46-5.483 5.499s2.454 5.499 5.483 5.499h127.581a5.487 5.487 0 0 0 5.453-4.925c.34-3.245-2.198-6.073-5.453-6.073"/><path fill="#2e186a" d="M455.878 281.403h84.741c.557 0 1.03-.402 1.13-.949l17.697-101.385a1.146 1.146 0 1 0-2.255-.394l-17.534 100.436h-83.779c-.633 0-1.145.512-1.145 1.148s.512 1.148 1.145 1.148z"/><path fill="#2e186a" d="M495.863 281.51c.336 0 .668-.145.893-.429l10.764-13.393a1.15 1.15 0 0 0-.171-1.615 1.144 1.144 0 0 0-1.611.172l-10.764 13.394a1.15 1.15 0 0 0 .172 1.615c.21.172.465.252.717.252z"/><path fill="#ff8a7e" d="M64.9 207.861a1.15 1.15 0 0 1-1.011-1.688c.053-.103 5.43-10.466 4.407-24.035a1.15 1.15 0 0 1 1.056-1.232 1.15 1.15 0 0 1 1.23 1.06c1.071 14.258-4.435 24.843-4.671 25.283a1.15 1.15 0 0 1-1.011.608z"/><path fill="#ff8a7e" d="M202.211 217.91q-.103-.001-.21-.019L69.715 193.407a1.15 1.15 0 0 1 .412-2.261l132.286 24.483a1.151 1.151 0 0 1-.206 2.281zm-1.202 6.544q-.103-.001-.21-.02L68.513 199.951a1.15 1.15 0 0 1 .412-2.261l132.286 24.483a1.15 1.15 0 0 1-.206 2.281zm.602-3.272a1.4 1.4 0 0 1-.21-.019L69.116 196.679a1.15 1.15 0 0 1 .412-2.261l132.285 24.483a1.151 1.151 0 0 1-.206 2.281z"/><path fill="#2e186a" d="m65.827 176.394 150.289 27.816-6.552 35.612-150.288-27.817c-2.626-.486-4.389-2.854-3.942-5.288.446-2.434 2.938-4.014 5.563-3.528l140.784 26.056 3.308-17.978-140.783-26.056c-2.626-.486-4.389-2.855-3.942-5.289.446-2.434 2.938-4.014 5.563-3.528"/><path fill="#fff" d="M116.096 231.124s-89.14-19.669-88.637-18.674 1.748 58.315 1.748 58.315 105.064 3.295 103.423 0-16.534-39.641-16.534-39.641"/><path fill="#2e186a" d="M199.139 260.938c-.049 0-.099 0-.152-.012l-155.555-20.71a1.15 1.15 0 0 1 .302-2.277l155.554 20.71a1.15 1.15 0 0 1-.149 2.289m0-3.444q-.087 0-.168-.012L40.875 233.929a1.15 1.15 0 0 1 .336-2.273l158.096 23.553a1.149 1.149 0 0 1-.164 2.285zm-1.145 6.888c-.042 0-.088 0-.134-.008l-151.407-17.4a1.147 1.147 0 0 1 .26-2.281l151.407 17.401a1.148 1.148 0 0 1-.13 2.288zm.001 4.209q-.058.001-.115-.004L43.47 253.189a1.147 1.147 0 0 1 .226-2.285l154.409 15.399a1.147 1.147 0 0 1-.11 2.288m-7.251 3.444q-.05.001-.107-.004L40.085 258.248A1.144 1.144 0 0 1 39.051 257a1.14 1.14 0 0 1 1.244-1.037l150.552 13.784a1.148 1.148 0 0 1-.099 2.292z"/><path fill="#2e186a" d="M30.176 264.803c-1.106 0-2.098-.084-2.926-.238a1.147 1.147 0 0 1 .42-2.257c3.78.708 11.897-.345 17.311-4.841 3.782-3.142 5.709-7.439 5.72-12.774.027-10.772-7.937-16.948-23.036-17.859a1.146 1.146 0 0 1-1.072-1.213c.038-.631.584-1.125 1.214-1.075 2.358.141 8.623.52 14.309 3.176 7.14 3.333 10.898 9.207 10.879 16.983-.016 6.046-2.221 10.937-6.552 14.534-4.888 4.064-11.593 5.571-16.267 5.571z"/><path fill="#6a6af2" d="m211.064 264.83-179.51 1.553v-45.545l183.375 35.359a7.373 7.373 0 0 0 8.513-5.331c1.126-4.167-1.53-8.415-5.762-9.207L27.208 205.86c-4.213-.773-8.094 2.472-8.094 6.766v67.721l192.03-.425c4.171-.008 7.536-3.417 7.506-7.6-.031-4.171-3.431-7.527-7.59-7.492z"/><path fill="#2e186a" d="M579.185 282.662H1.475a1.145 1.145 0 0 1-1.145-1.148c0-.635.511-1.148 1.145-1.148h577.71c.634 0 1.145.513 1.145 1.148s-.511 1.148-1.145 1.148"/></g><g filter="url(#b)"><rect width="409" height="244.005" x="85.72" y=".681" fill="#fff" rx="8"/></g><rect width="97.8" height="20" x="100.816" y="16.864" fill="#c3fad5" rx="4"/><path fill="#297254" fill-rule="evenodd" d="M115.816 29.864h-7.5a.5.5 0 0 0 0 1h7.5v1h-7.5a1.5 1.5 0 0 1-1.5-1.5v-7.5a1 1 0 0 1 1-1h8zm-2.5-4.5v-1h-4v1z" clip-rule="evenodd"/><path fill="#297254" d="M184.973 31.064v-8.4h2.184l3.756 6.072v-6.072h1.704v8.4h-2.184l-3.756-6.072v6.072zm-6.205-8.64c2.64 0 4.452 2.04 4.452 4.44s-1.812 4.44-4.452 4.44c-2.652 0-4.464-2.04-4.464-4.44s1.812-4.44 4.464-4.44m0 7.284c1.572 0 2.7-1.236 2.7-2.844s-1.128-2.844-2.7-2.844c-1.584 0-2.712 1.236-2.712 2.844s1.128 2.844 2.712 2.844m-7.916 1.356v-8.4h1.704v8.4zm-8.505-6.852v-1.548h6.888v1.548h-2.592v6.852h-1.704v-6.852zm-8.301 6.852 3.18-8.4h2.232l3.18 8.4h-1.812l-.804-2.184h-3.36l-.804 2.184zm3.144-3.636h2.304l-1.152-3.156zm-12.905 3.636v-8.4h2.124l2.052 3.528 2.052-3.528h2.124v8.4h-1.704V25.04l-1.872 3.144h-1.2l-1.872-3.144v6.024zm-8.027 0v-8.4h2.568c1.848 0 2.988.948 2.988 2.508 0 1.02-.492 1.776-1.356 2.172l2.628 3.72h-2.004l-2.244-3.396h-.876v3.396zm2.664-6.984h-.96v2.172h.96c.72 0 1.14-.42 1.14-1.104 0-.636-.42-1.068-1.14-1.068m-8.869-1.656c2.64 0 4.452 2.04 4.452 4.44s-1.812 4.44-4.452 4.44c-2.652 0-4.464-2.04-4.464-4.44s1.812-4.44 4.464-4.44m0 7.284c1.572 0 2.7-1.236 2.7-2.844s-1.128-2.844-2.7-2.844c-1.584 0-2.712 1.236-2.712 2.844s1.128 2.844 2.712 2.844m-10.237 1.356v-8.4h4.896v1.416h-3.192v1.992h2.712v1.416h-2.712v3.576z"/><path fill="#666" d="M334.279 57.912v-6.048h1.02v.684c.492-.54 1.116-.924 2.016-.924 1.356 0 2.364.912 2.364 2.628v3.66h-1.02v-3.624c0-1.08-.612-1.704-1.548-1.704-.876 0-1.428.504-1.812 1.14v4.188zm-4.915-6.288c1.944 0 3.276 1.5 3.276 3.264s-1.332 3.264-3.276 3.264c-1.956 0-3.276-1.5-3.276-3.264s1.32-3.264 3.276-3.264m.012 5.568c1.26 0 2.184-1.056 2.184-2.304 0-1.26-.924-2.304-2.184-2.304-1.296 0-2.22 1.044-2.22 2.304s.924 2.304 2.22 2.304m-5.432-6.9a.72.72 0 0 1-.72-.72.72.72 0 0 1 .72-.708.71.71 0 0 1 .708.708c0 .396-.312.72-.708.72m-.516 7.62v-6.048h1.02v6.048zm-4.691-2.028v-3.096h-1.14v-.924h1.14v-1.512h1.032v1.512h2.1v.924h-2.1v3.096c0 .948.48 1.212 1.212 1.212.396 0 .672-.048.9-.144v.912c-.288.12-.612.168-1.044.168-1.344 0-2.1-.672-2.1-2.148m-5.442 2.196c-1.188 0-1.992-.66-1.992-1.692 0-.912.696-1.56 1.98-1.776l2.04-.336v-.42c0-.84-.6-1.32-1.464-1.32-.696 0-1.26.324-1.632.84l-.768-.588c.528-.72 1.38-1.164 2.436-1.164 1.536 0 2.448.9 2.448 2.232v4.056h-1.02v-.768c-.456.588-1.248.936-2.028.936m-.96-1.728c0 .516.42.888 1.128.888.804 0 1.464-.384 1.86-1.032V55.02l-1.788.3c-.828.144-1.2.516-1.2 1.032m-12.028 1.56v-6.048h1.02v.66c.456-.528 1.056-.9 1.896-.9.876 0 1.596.396 1.968 1.164.48-.66 1.116-1.164 2.16-1.164 1.296 0 2.244.864 2.244 2.508v3.78h-1.02v-3.744c0-1.008-.564-1.584-1.428-1.584-.768 0-1.308.432-1.704 1.14.012.132.024.264.024.408v3.78h-1.02v-3.744c0-1.008-.552-1.584-1.428-1.584-.828 0-1.344.516-1.692 1.14v4.188zm-4.77 0v-6.048h1.02v.756c.444-.528.996-.876 1.764-.876.192 0 .372.024.516.072v.996a2.2 2.2 0 0 0-.6-.072c-.792 0-1.308.408-1.68 1.02v4.152zm-4.915-6.288c1.944 0 3.276 1.5 3.276 3.264s-1.332 3.264-3.276 3.264c-1.956 0-3.276-1.5-3.276-3.264s1.32-3.264 3.276-3.264m.012 5.568c1.26 0 2.184-1.056 2.184-2.304 0-1.26-.924-2.304-2.184-2.304-1.296 0-2.22 1.044-2.22 2.304s.924 2.304 2.22 2.304m-7.947-5.328h1.14v-.744c0-1.284.828-2.208 2.148-2.208.552 0 .996.156 1.332.348l-.456.852a1.4 1.4 0 0 0-.852-.276c-.684 0-1.14.468-1.14 1.26v.768h2.1v.924h-2.1v5.124h-1.032v-5.124h-1.14zm-4.039 5.052c-.564.756-1.464 1.236-2.592 1.236-2.04 0-3.3-1.5-3.3-3.264 0-1.836 1.176-3.264 3.048-3.264 1.644 0 2.712 1.152 2.712 2.64 0 .24-.036.468-.072.636H273.8c.036 1.452.96 2.328 2.256 2.328.78 0 1.44-.36 1.836-.9zm-2.868-4.428c-.996 0-1.692.588-1.908 1.632h3.624c-.036-.888-.648-1.632-1.716-1.632m-7.082 3.396v-3.096h-1.14v-.924h1.14v-1.512h1.032v1.512h2.1v.924h-2.1v3.096c0 .948.48 1.212 1.212 1.212.396 0 .672-.048.9-.144v.912c-.288.12-.612.168-1.044.168-1.344 0-2.1-.672-2.1-2.148m-5.086 0v-3.096h-1.14v-.924h1.14v-1.512h1.032v1.512h2.1v.924h-2.1v3.096c0 .948.48 1.212 1.212 1.212.396 0 .672-.048.9-.144v.912c-.288.12-.612.168-1.044.168-1.344 0-2.1-.672-2.1-2.148m-1.909 1.032c-.564.756-1.464 1.236-2.592 1.236-2.04 0-3.3-1.5-3.3-3.264 0-1.836 1.176-3.264 3.048-3.264 1.644 0 2.712 1.152 2.712 2.64 0 .24-.036.468-.072.636h-4.644c.036 1.452.96 2.328 2.256 2.328.78 0 1.44-.36 1.836-.9zm-2.868-4.428c-.996 0-1.692.588-1.908 1.632h3.624c-.036-.888-.648-1.632-1.716-1.632m-6.205 4.704c.744 0 1.356-.36 1.728-.888l.804.612c-.564.756-1.44 1.236-2.544 1.236-2.004 0-3.288-1.5-3.288-3.264s1.284-3.264 3.288-3.264c1.092 0 1.98.492 2.544 1.236l-.804.612a2.09 2.09 0 0 0-1.74-.888c-1.296 0-2.22 1.02-2.22 2.304 0 1.296.924 2.304 2.232 2.304m-7.615-.276c-.564.756-1.464 1.236-2.592 1.236-2.04 0-3.3-1.5-3.3-3.264 0-1.836 1.176-3.264 3.048-3.264 1.644 0 2.712 1.152 2.712 2.64 0 .24-.036.468-.072.636h-4.644c.036 1.452.96 2.328 2.256 2.328.78 0 1.44-.36 1.836-.9zm-2.868-4.428c-.996 0-1.692.588-1.908 1.632h3.624c-.036-.888-.648-1.632-1.716-1.632m-8.407 4.596.72-.612c.42.528.924.828 1.536.828.672 0 1.056-.408 1.056-.936 0-1.356-3.024-.876-3.024-3.012 0-.948.804-1.728 1.968-1.728.864 0 1.608.408 2.028.996l-.708.6c-.324-.456-.78-.744-1.308-.744-.648 0-.996.384-.996.852 0 1.356 3.036.924 3.036 2.988-.012 1.128-.912 1.836-2.04 1.836-.96 0-1.716-.384-2.268-1.068m-4.103-5.46c1.944 0 3.276 1.5 3.276 3.264s-1.332 3.264-3.276 3.264c-1.956 0-3.276-1.5-3.276-3.264s1.32-3.264 3.276-3.264m.012 5.568c1.26 0 2.184-1.056 2.184-2.304 0-1.26-.924-2.304-2.184-2.304-1.296 0-2.22 1.044-2.22 2.304s.924 2.304 2.22 2.304m-10.753 3.672v-9h1.02v.72c.54-.612 1.248-.96 2.148-.96 1.896 0 3.108 1.5 3.108 3.264s-1.212 3.264-3.108 3.264c-.9 0-1.608-.348-2.148-.96v3.672zm3.048-8.28c-.84 0-1.572.408-2.028 1.128v2.352c.468.732 1.2 1.128 2.028 1.128 1.284 0 2.16-1.02 2.16-2.304s-.876-2.304-2.16-2.304m-7.963-.96c1.944 0 3.276 1.5 3.276 3.264s-1.332 3.264-3.276 3.264c-1.956 0-3.276-1.5-3.276-3.264s1.32-3.264 3.276-3.264m.012 5.568c1.26 0 2.184-1.056 2.184-2.304 0-1.26-.924-2.304-2.184-2.304-1.296 0-2.22 1.044-2.22 2.304s.924 2.304 2.22 2.304m-7.179.72v-6.048h1.02v.756c.444-.528.996-.876 1.764-.876.192 0 .372.024.516.072v.996a2.2 2.2 0 0 0-.6-.072c-.792 0-1.308.408-1.68 1.02v4.152zm-7.921 2.952v-9h1.02v.72c.54-.612 1.248-.96 2.148-.96 1.896 0 3.108 1.5 3.108 3.264s-1.212 3.264-3.108 3.264c-.9 0-1.608-.348-2.148-.96v3.672zm3.048-8.28c-.84 0-1.572.408-2.028 1.128v2.352c.468.732 1.2 1.128 2.028 1.128 1.284 0 2.16-1.02 2.16-2.304s-.876-2.304-2.16-2.304m-16.136 5.328 3.18-8.4h2.232l3.18 8.4h-1.812l-.804-2.184h-3.36l-.804 2.184zm3.144-3.636h2.304l-1.152-3.156zm-12.904 3.636v-8.4h2.124l2.052 3.528 2.052-3.528h2.124v8.4h-1.704v-6.024l-1.872 3.144h-1.2l-1.872-3.144v6.024zm-5.14-1.356c.96 0 1.716-.468 2.196-1.152l1.344 1.032c-.768 1.044-2.016 1.716-3.54 1.716-2.652 0-4.464-2.04-4.464-4.44s1.812-4.44 4.464-4.44c1.524 0 2.772.684 3.54 1.704l-1.344 1.044c-.48-.684-1.236-1.152-2.196-1.152-1.584 0-2.712 1.236-2.712 2.844s1.128 2.844 2.712 2.844m-16.987 1.356 3.18-8.4h2.232l3.18 8.4h-1.812l-.804-2.184h-3.36l-.804 2.184zm3.144-3.636h2.304l-1.152-3.156zm-8.966 3.636v-8.4h1.704v6.852h3.192v1.548zm-10.231 0v-8.4h4.896v1.416h-3.192v1.992h2.712v1.416h-2.712v2.16h3.192v1.416zm-9.527 0v-8.4h3.3c2.664 0 4.464 1.932 4.464 4.2s-1.8 4.2-4.464 4.2zm3.324-6.852h-1.62v5.304h1.62c1.56 0 2.688-1.164 2.688-2.652 0-1.5-1.128-2.652-2.688-2.652m-16.568 6.852 3.18-8.4h2.232l3.18 8.4h-1.812l-.804-2.184h-3.36l-.804 2.184zm3.144-3.636h2.304l-1.152-3.156zm-7.818 3.636v-8.4h4.896v1.416h-3.192v1.992h2.712v1.416h-2.712v3.576zm-5.14-1.356c.96 0 1.716-.468 2.196-1.152l1.344 1.032c-.768 1.044-2.016 1.716-3.54 1.716-2.652 0-4.464-2.04-4.464-4.44s1.812-4.44 4.464-4.44c1.524 0 2.772.684 3.54 1.704l-1.344 1.044c-.48-.684-1.236-1.152-2.196-1.152-1.584 0-2.712 1.236-2.712 2.844s1.128 2.844 2.712 2.844"/><path fill="#4b9f6c" d="M427.75 82.384v-11.2h6.528v1.888h-4.256v2.656h3.616v1.888h-3.616v2.88h4.256v1.888zm-5.562 0v-11.2h2.272v11.2zm-10.704 0v-11.2h3.424c2.464 0 3.984 1.264 3.984 3.344 0 1.36-.656 2.368-1.808 2.896l3.504 4.96h-2.672l-2.992-4.528h-1.168v4.528zm3.552-9.312h-1.28v2.896h1.28c.96 0 1.52-.56 1.52-1.472 0-.848-.56-1.424-1.52-1.424m-12.88 9.312v-11.2h6.528v1.888h-4.256v2.656h3.616v1.888h-3.616v2.88h4.256v1.888zm-7.567-1.808c1.056 0 1.968-.368 2.608-.976v-1.952h-2.848v-1.936h5.12v4.704c-1.04 1.392-2.784 2.288-4.88 2.288-3.632 0-6.112-2.72-6.112-5.92s2.416-5.92 5.952-5.92c2.032 0 3.696.912 4.72 2.272l-1.792 1.392c-.64-.912-1.648-1.536-2.928-1.536-2.112 0-3.616 1.648-3.616 3.792s1.584 3.792 3.776 3.792m-18.636 1.808v-11.2h2.912l5.008 8.096v-8.096h2.272v11.2h-2.912l-5.008-8.096v8.096zm-13.346 0 4.24-11.2h2.976l4.24 11.2h-2.416l-1.072-2.912h-4.48l-1.072 2.912zm4.192-4.848h3.072l-1.536-4.208zm-11.955 4.848v-11.2h2.272v9.136h4.256v2.064zm-5.255-4.192v-7.008h2.272V78c0 2.944-1.728 4.704-4.544 4.704-2.8 0-4.528-1.76-4.528-4.704v-6.816h2.272v7.008c0 1.504.848 2.384 2.272 2.384 1.392 0 2.256-.88 2.256-2.384m-14.878-7.328c3.52 0 5.936 2.72 5.936 5.92s-2.416 5.92-5.936 5.92c-3.536 0-5.952-2.72-5.952-5.92s2.416-5.92 5.952-5.92m0 9.712c2.096 0 3.6-1.648 3.6-3.792s-1.504-3.792-3.6-3.792c-2.112 0-3.616 1.648-3.616 3.792s1.504 3.792 3.616 3.792m-15.117 1.808v-11.2h3.296c2.336 0 3.76 1.152 3.76 3.04 0 .912-.416 1.696-1.2 2.208 1.184.528 1.84 1.488 1.84 2.656 0 2.048-1.584 3.296-4.16 3.296zm3.344-9.312h-1.072V75.6h1.072c.864 0 1.376-.464 1.376-1.28 0-.784-.512-1.248-1.376-1.248m.32 4.416h-1.392v3.008h1.392c1.056 0 1.696-.56 1.696-1.504 0-.96-.64-1.504-1.696-1.504m-21.461 4.896v-11.2h2.912l5.008 8.096v-8.096h2.272v11.2h-2.912l-5.008-8.096v8.096zm-9.328 0v-11.2h6.528v1.888h-4.256v2.656h3.616v1.888h-3.616v2.88h4.256v1.888zm-15.016 0v-11.2h3.424c2.464 0 3.984 1.264 3.984 3.344 0 1.36-.656 2.368-1.808 2.896l3.504 4.96h-2.672l-2.992-4.528h-1.168v4.528zm3.552-9.312h-1.28v2.896h1.28c.96 0 1.52-.56 1.52-1.472 0-.848-.56-1.424-1.52-1.424m-8.807 5.12v-7.008h2.272V78c0 2.944-1.728 4.704-4.544 4.704-2.8 0-4.528-1.76-4.528-4.704v-6.816h2.272v7.008c0 1.504.848 2.384 2.272 2.384 1.392 0 2.256-.88 2.256-2.384m-14.878-7.328c3.52 0 5.936 2.72 5.936 5.92s-2.416 5.92-5.936 5.92c-3.536 0-5.952-2.72-5.952-5.92s2.416-5.92 5.952-5.92m0 9.712c2.096 0 3.6-1.648 3.6-3.792s-1.504-3.792-3.6-3.792c-2.112 0-3.616 1.648-3.616 3.792s1.504 3.792 3.616 3.792m-15.816-7.328v-2.064h9.184v2.064h-3.456v9.136h-2.272v-9.136zm-8.415 4.944v-7.008h2.272V78c0 2.944-1.728 4.704-4.544 4.704-2.8 0-4.528-1.76-4.528-4.704v-6.816h2.272v7.008c0 1.504.848 2.384 2.272 2.384 1.392 0 2.256-.88 2.256-2.384m-19.308 4.192v-11.2h4.4c3.552 0 5.952 2.576 5.952 5.6s-2.4 5.6-5.952 5.6zm4.432-9.136h-2.16v7.072h2.16c2.08 0 3.584-1.552 3.584-3.536 0-2-1.504-3.536-3.584-3.536m-19.159 7.584 1.648-1.52c.672.864 1.568 1.376 2.48 1.376.896 0 1.44-.48 1.44-1.28 0-2.064-5.088-1.504-5.088-5.296 0-1.776 1.472-3.248 3.616-3.248 1.68 0 2.96.752 3.92 1.888l-1.664 1.504c-.656-.848-1.392-1.408-2.24-1.408-.8 0-1.328.512-1.328 1.184 0 2.032 5.088 1.456 5.088 5.296-.032 2.112-1.664 3.376-3.728 3.376-1.888 0-3.152-.688-4.144-1.872m-8.32 1.552v-11.2h6.528v1.888h-4.256v2.656h3.616v1.888h-3.616v2.88h4.256v1.888zm-5.254-4.192v-7.008h2.272V78c0 2.944-1.728 4.704-4.544 4.704-2.8 0-4.528-1.76-4.528-4.704v-6.816h2.272v7.008c0 1.504.848 2.384 2.272 2.384 1.392 0 2.256-.88 2.256-2.384m-10.479 3.904c.864.784 1.632 1.072 2.352 1.072.24 0 .56-.032.8-.128v1.92c-.368.144-.688.208-1.184.208-1.248 0-2.4-.512-3.504-1.472l-1.328-1.184a6 6 0 0 1-1.536.192c-3.536 0-5.952-2.72-5.952-5.92s2.416-5.92 5.952-5.92c3.52 0 5.936 2.72 5.936 5.92 0 1.872-.832 3.584-2.208 4.672zm-4.4-1.52c2.096 0 3.6-1.648 3.6-3.792s-1.504-3.792-3.6-3.792c-2.112 0-3.616 1.648-3.616 3.792s1.504 3.792 3.616 3.792m-10.554 1.808v-11.2h2.272v11.2zm-13.485 0v-11.2h2.913l5.008 8.096v-8.096h2.272v11.2h-2.912l-5.009-8.096v8.096zm-13.484 0v-11.2h2.272v4.464h5.648v-4.464h2.272v11.2h-2.272v-4.672h-5.648v4.672zm-6.852-1.808c1.28 0 2.288-.624 2.928-1.536l1.792 1.376c-1.024 1.392-2.688 2.288-4.72 2.288-3.536 0-5.952-2.72-5.952-5.92s2.416-5.92 5.952-5.92c2.032 0 3.696.912 4.72 2.272l-1.792 1.392c-.64-.912-1.648-1.536-2.928-1.536-2.112 0-3.616 1.648-3.616 3.792s1.504 3.792 3.616 3.792m-14.07 1.808v-11.2h6.528v1.888h-4.256v2.656h3.616v1.888h-3.616v2.88h4.256v1.888zm-11.34-9.136v-2.064H110v2.064h-3.456v9.136h-2.272v-9.136z"/><path fill="#000091" d="M100.816 95.168h151.856v31.952H100.816z"/><path fill="#fff" d="m236.064 113.292 1.008-.912c.372.468.816.804 1.392.804.492 0 .744-.288.744-.648 0-1.056-2.892-.66-2.892-2.784 0-1.068.9-1.872 2.16-1.872.924 0 1.764.444 2.196 1.032l-1.008.888c-.312-.384-.708-.696-1.176-.696-.48 0-.708.264-.708.576 0 1.032 2.892.672 2.892 2.76-.024 1.272-1.044 1.968-2.184 1.968-1.08 0-1.848-.432-2.424-1.116m-2.647-1.74v-3.432h1.536v3.36c0 1.812-1.056 2.928-2.832 2.928s-2.82-1.116-2.82-2.928v-3.36h1.536v3.432c0 .876.456 1.416 1.296 1.416.828 0 1.284-.54 1.284-1.416m-8.686-3.672c1.968 0 3.312 1.452 3.312 3.264s-1.344 3.264-3.312 3.264-3.312-1.452-3.312-3.264 1.344-3.264 3.312-3.264m.024 5.088c.972 0 1.704-.78 1.704-1.824 0-1.056-.732-1.824-1.704-1.824-1.008 0-1.752.768-1.752 1.824s.744 1.824 1.752 1.824m-10.202-4.848h1.632l1.572 4.32 1.56-4.32h1.644l-2.208 6.048h-2.004zm-3.406 2.244h3.24v1.476h-3.24zm-5.978 3.804V112.8l3.072-3.312h-2.976v-1.368h4.884v1.368l-3.072 3.312h3.156v1.368zm-1.059-.984c-.564.756-1.5 1.224-2.64 1.224-2.148 0-3.36-1.5-3.36-3.264 0-1.788 1.128-3.264 3.108-3.264 1.68 0 2.784 1.14 2.784 2.724 0 .336-.048.648-.096.852h-4.236c.144 1.128.84 1.584 1.788 1.584.66 0 1.236-.288 1.56-.72zm-2.928-4.056c-.78 0-1.296.432-1.464 1.224h2.784c-.024-.612-.468-1.224-1.32-1.224m-10.947 2.016c0-1.764 1.164-3.264 3.072-3.264.816 0 1.404.252 1.872.72v-3.432h1.536v9h-1.536v-.48c-.468.468-1.056.72-1.872.72-1.908 0-3.072-1.5-3.072-3.264m1.596 0c0 1.056.66 1.824 1.692 1.824.684 0 1.248-.288 1.656-.84v-1.968c-.408-.552-.972-.84-1.656-.84-1.032 0-1.692.768-1.692 1.824m-8.559 3.024v-6.048h1.524v.48c.42-.408.984-.72 1.788-.72 1.308 0 2.352.9 2.352 2.688v3.6H187.4v-3.54c0-.804-.456-1.308-1.2-1.308-.768 0-1.176.516-1.404.9v3.948zm-1.38-.984c-.564.756-1.5 1.224-2.64 1.224-2.148 0-3.36-1.5-3.36-3.264 0-1.788 1.128-3.264 3.108-3.264 1.68 0 2.784 1.14 2.784 2.724 0 .336-.048.648-.096.852h-4.236c.144 1.128.84 1.584 1.788 1.584.66 0 1.236-.288 1.56-.72zm-2.928-4.056c-.78 0-1.296.432-1.464 1.224h2.784c-.024-.612-.468-1.224-1.32-1.224m-7.258 5.04v-6.048h1.524v.6c.396-.408.912-.72 1.596-.72.204 0 .384.036.528.084v1.5a2.6 2.6 0 0 0-.672-.084c-.744 0-1.224.408-1.452.792v3.876zm-9.247-.876 1.008-.912c.372.468.816.804 1.392.804.492 0 .744-.288.744-.648 0-1.056-2.892-.66-2.892-2.784 0-1.068.9-1.872 2.16-1.872.924 0 1.764.444 2.196 1.032l-1.008.888c-.312-.384-.708-.696-1.176-.696-.48 0-.708.264-.708.576 0 1.032 2.892.672 2.892 2.76-.024 1.272-1.044 1.968-2.184 1.968-1.08 0-1.848-.432-2.424-1.116m-7.696-2.148c0-1.764 1.164-3.264 3.072-3.264.816 0 1.404.252 1.872.72v-3.432h1.536v9h-1.536v-.48c-.468.468-1.056.72-1.872.72-1.908 0-3.072-1.5-3.072-3.264m1.596 0c0 1.056.66 1.824 1.692 1.824.684 0 1.248-.288 1.656-.84v-1.968c-.408-.552-.972-.84-1.656-.84-1.032 0-1.692.768-1.692 1.824m-8.559 3.024v-6.048h1.524v.48c.42-.408.984-.72 1.788-.72 1.308 0 2.352.9 2.352 2.688v3.6h-1.536v-3.54c0-.804-.456-1.308-1.2-1.308-.768 0-1.176.516-1.404.9v3.948zm-1.381-.984c-.564.756-1.5 1.224-2.64 1.224-2.148 0-3.36-1.5-3.36-3.264 0-1.788 1.128-3.264 3.108-3.264 1.68 0 2.784 1.14 2.784 2.724 0 .336-.048.648-.096.852h-4.236c.144 1.128.84 1.584 1.788 1.584.66 0 1.236-.288 1.56-.72zm-2.928-4.056c-.78 0-1.296.432-1.464 1.224h2.784c-.024-.612-.468-1.224-1.32-1.224m-7.258 5.04v-6.048h1.524v.6c.396-.408.912-.72 1.596-.72.204 0 .384.036.528.084v1.5a2.6 2.6 0 0 0-.672-.084c-.744 0-1.224.408-1.452.792v3.876zm-7.875 2.952v-9h1.524v.492c.468-.468 1.056-.732 1.884-.732 1.92 0 3.072 1.5 3.072 3.264s-1.152 3.264-3.072 3.264c-.828 0-1.416-.264-1.884-.732v3.444zm3.192-7.8c-.708 0-1.284.312-1.668.876v1.896c.408.576.972.876 1.668.876 1.032 0 1.704-.768 1.704-1.824s-.672-1.824-1.704-1.824m-7.807 3.864c-.564.756-1.5 1.224-2.64 1.224-2.148 0-3.36-1.5-3.36-3.264 0-1.788 1.128-3.264 3.108-3.264 1.68 0 2.784 1.14 2.784 2.724 0 .336-.048.648-.096.852h-4.236c.144 1.128.84 1.584 1.788 1.584.66 0 1.236-.288 1.56-.72zm-2.928-4.056c-.78 0-1.296.432-1.464 1.224h2.784c-.024-.612-.468-1.224-1.32-1.224m-4.711 4.344c0 1.86-.864 2.784-2.616 2.784-.276 0-.504 0-.672-.048v-1.5q.18.036.432.036c.756 0 1.152-.324 1.152-1.188v-7.788h1.704z"/><path stroke="#ddd" d="M100.816 142.62h380"/><path fill="#3a3a3a" d="M108.844 224.348a.766.766 0 0 1-.78-.756c0-.42.348-.768.78-.768s.768.348.768.768-.336.756-.768.756m-3.234 0a.766.766 0 0 1-.78-.756c0-.42.348-.768.78-.768s.768.348.768.768-.336.756-.768.756m-3.234 0a.766.766 0 0 1-.78-.756c0-.42.348-.768.78-.768s.768.348.768.768-.336.756-.768.756m349.636-20.96.72-.612c.42.528.924.828 1.536.828.672 0 1.056-.408 1.056-.936 0-1.356-3.024-.876-3.024-3.012 0-.948.804-1.728 1.968-1.728.864 0 1.608.408 2.028.996l-.708.6c-.324-.456-.78-.744-1.308-.744-.648 0-.996.384-.996.852 0 1.356 3.036.924 3.036 2.988-.012 1.128-.912 1.836-2.04 1.836-.96 0-1.716-.384-2.268-1.068m-.901-.168c-.564.756-1.464 1.236-2.592 1.236-2.04 0-3.3-1.5-3.3-3.264 0-1.836 1.176-3.264 3.048-3.264 1.644 0 2.712 1.152 2.712 2.64 0 .24-.036.468-.072.636h-4.644c.036 1.452.96 2.328 2.256 2.328.78 0 1.44-.36 1.836-.9zm-2.868-4.428c-.996 0-1.692.588-1.908 1.632h3.624c-.036-.888-.648-1.632-1.716-1.632m-7.082 3.396v-3.096h-1.14v-.924h1.14v-1.512h1.032v1.512h2.1v.924h-2.1v3.096c0 .948.48 1.212 1.212 1.212.396 0 .672-.048.9-.144v.912c-.288.12-.612.168-1.044.168-1.344 0-2.1-.672-2.1-2.148m-5.814-4.98h-.924l1.26-1.992h1.38l1.248 1.992h-.912l-1.02-1.512zm.372 7.176c-1.188 0-1.992-.66-1.992-1.692 0-.912.696-1.56 1.98-1.776l2.04-.336v-.42c0-.84-.6-1.32-1.464-1.32-.696 0-1.26.324-1.632.84l-.768-.588c.528-.72 1.38-1.164 2.436-1.164 1.536 0 2.448.9 2.448 2.232v4.056h-1.02v-.768c-.456.588-1.248.936-2.028.936m-.96-1.728c0 .516.42.888 1.128.888.804 0 1.464-.384 1.86-1.032v-1.188l-1.788.3c-.828.144-1.2.516-1.2 1.032m-8.501 4.512v-9h1.02v.72c.54-.612 1.248-.96 2.148-.96 1.896 0 3.108 1.5 3.108 3.264s-1.212 3.264-3.108 3.264c-.9 0-1.608-.348-2.148-.96v3.672zm3.048-8.28c-.84 0-1.572.408-2.028 1.128v2.352c.468.732 1.2 1.128 2.028 1.128 1.284 0 2.16-1.02 2.16-2.304s-.876-2.304-2.16-2.304m-7.879 4.332c-.564.756-1.464 1.236-2.592 1.236-2.04 0-3.3-1.5-3.3-3.264 0-1.836 1.176-3.264 3.048-3.264 1.644 0 2.712 1.152 2.712 2.64 0 .24-.036.468-.072.636h-4.644c.036 1.452.96 2.328 2.256 2.328.78 0 1.44-.36 1.836-.9zm-2.868-4.428c-.996 0-1.692.588-1.908 1.632h3.624c-.036-.888-.648-1.632-1.716-1.632m-10.934 2.4c0-1.764 1.212-3.264 3.108-3.264.9 0 1.608.348 2.148.96v-3.672h1.02v9h-1.02v-.72c-.54.612-1.248.96-2.148.96-1.896 0-3.108-1.5-3.108-3.264m1.08 0c0 1.284.864 2.304 2.148 2.304.84 0 1.584-.408 2.028-1.116v-2.376c-.468-.72-1.2-1.116-2.028-1.116-1.284 0-2.148 1.02-2.148 2.304m-5.395 2.028c-.564.756-1.464 1.236-2.592 1.236-2.04 0-3.3-1.5-3.3-3.264 0-1.836 1.176-3.264 3.048-3.264 1.644 0 2.712 1.152 2.712 2.64 0 .24-.036.468-.072.636h-4.644c.036 1.452.96 2.328 2.256 2.328.78 0 1.44-.36 1.836-.9zm-2.868-4.428c-.996 0-1.692.588-1.908 1.632h3.624c-.036-.888-.648-1.632-1.716-1.632m-8.407 4.596.72-.612c.42.528.924.828 1.536.828.672 0 1.056-.408 1.056-.936 0-1.356-3.024-.876-3.024-3.012 0-.948.804-1.728 1.968-1.728.864 0 1.608.408 2.028.996l-.708.6c-.324-.456-.78-.744-1.308-.744-.648 0-.996.384-.996.852 0 1.356 3.036.924 3.036 2.988-.012 1.128-.912 1.836-2.04 1.836-.96 0-1.716-.384-2.268-1.068m-4.445.996c-1.188 0-1.992-.66-1.992-1.692 0-.912.696-1.56 1.98-1.776l2.04-.336v-.42c0-.84-.6-1.32-1.464-1.32-.696 0-1.26.324-1.632.84l-.768-.588c.528-.72 1.38-1.164 2.436-1.164 1.536 0 2.448.9 2.448 2.232v4.056h-1.02v-.768c-.456.588-1.248.936-2.028.936m-.96-1.728c0 .516.42.888 1.128.888.804 0 1.464-.384 1.86-1.032v-1.188l-1.788.3c-.828.144-1.2.516-1.2 1.032m-2.342-1.464c0 1.764-1.212 3.264-3.108 3.264-.9 0-1.608-.348-2.148-.96v.72h-1.02v-9h1.02v3.672c.54-.612 1.248-.96 2.148-.96 1.896 0 3.108 1.5 3.108 3.264m-3.228-2.304c-.84 0-1.584.408-2.028 1.116v2.376c.468.72 1.2 1.116 2.028 1.116 1.284 0 2.16-1.02 2.16-2.304s-.876-2.304-2.16-2.304m-11.257-1.68-1.404-1.992h1.14l1.248 1.992zm-.12 7.176c-1.188 0-1.992-.66-1.992-1.692 0-.912.696-1.56 1.98-1.776l2.04-.336v-.42c0-.84-.6-1.32-1.464-1.32-.696 0-1.26.324-1.632.84l-.768-.588c.528-.72 1.38-1.164 2.436-1.164 1.536 0 2.448.9 2.448 2.232v4.056h-1.02v-.768c-.456.588-1.248.936-2.028.936m-.96-1.728c0 .516.42.888 1.128.888.804 0 1.464-.384 1.86-1.032v-1.188l-1.788.3c-.828.144-1.2.516-1.2 1.032m-9.887.732.72-.612c.42.528.924.828 1.536.828.672 0 1.056-.408 1.056-.936 0-1.356-3.024-.876-3.024-3.012 0-.948.804-1.728 1.968-1.728.864 0 1.608.408 2.028.996l-.708.6c-.324-.456-.78-.744-1.308-.744-.648 0-.996.384-.996.852 0 1.356 3.036.924 3.036 2.988-.012 1.128-.912 1.836-2.04 1.836-.96 0-1.716-.384-2.268-1.068m-4.043-1.2v-3.096h-1.14v-.924h1.14v-1.512h1.032v1.512h2.1v.924h-2.1v3.096c0 .948.48 1.212 1.212 1.212.396 0 .672-.048.9-.144v.912c-.288.12-.612.168-1.044.168-1.344 0-2.1-.672-2.1-2.148m-3.008-5.592a.72.72 0 0 1-.72-.72.72.72 0 0 1 .72-.708.71.71 0 0 1 .708.708c0 .396-.312.72-.708.72m-.516 7.62v-6.048h1.02v6.048zm-3.029-2.592v-3.456h1.02v3.42c0 1.812-1.044 2.868-2.688 2.868-1.632 0-2.676-1.056-2.676-2.868v-3.42h1.02v3.456c0 1.188.636 1.872 1.668 1.872 1.008 0 1.656-.684 1.656-1.872m-12.638-.432c0-1.764 1.212-3.264 3.108-3.264.9 0 1.608.348 2.148.96v-3.672h1.02v9h-1.02v-.72c-.54.612-1.248.96-2.148.96-1.896 0-3.108-1.5-3.108-3.264m1.08 0c0 1.284.864 2.304 2.148 2.304.84 0 1.584-.408 2.028-1.116v-2.376c-.468-.72-1.2-1.116-2.028-1.116-1.284 0-2.148 1.02-2.148 2.304m-5.539-3.264c1.944 0 3.276 1.5 3.276 3.264s-1.332 3.264-3.276 3.264c-1.956 0-3.276-1.5-3.276-3.264s1.32-3.264 3.276-3.264m.012 5.568c1.26 0 2.184-1.056 2.184-2.304 0-1.26-.924-2.304-2.184-2.304-1.296 0-2.22 1.044-2.22 2.304s.924 2.304 2.22 2.304m-7.178.72v-6.048h1.02v.756c.444-.528.996-.876 1.764-.876.192 0 .372.024.516.072v.996a2.2 2.2 0 0 0-.6-.072c-.792 0-1.308.408-1.68 1.02v4.152zm-7.922 2.952v-9h1.02v.72c.54-.612 1.248-.96 2.148-.96 1.896 0 3.108 1.5 3.108 3.264s-1.212 3.264-3.108 3.264c-.9 0-1.608-.348-2.148-.96v3.672zm3.048-8.28c-.84 0-1.572.408-2.028 1.128v2.352c.468.732 1.2 1.128 2.028 1.128 1.284 0 2.16-1.02 2.16-2.304s-.876-2.304-2.16-2.304m-12.251 4.5.72-.612c.42.528.924.828 1.536.828.672 0 1.056-.408 1.056-.936 0-1.356-3.024-.876-3.024-3.012 0-.948.804-1.728 1.968-1.728.864 0 1.608.408 2.028.996l-.708.6c-.324-.456-.78-.744-1.308-.744-.648 0-.996.384-.996.852 0 1.356 3.036.924 3.036 2.988-.012 1.128-.912 1.836-2.04 1.836-.96 0-1.716-.384-2.268-1.068m-.901-.168c-.564.756-1.464 1.236-2.592 1.236-2.04 0-3.3-1.5-3.3-3.264 0-1.836 1.176-3.264 3.048-3.264 1.644 0 2.712 1.152 2.712 2.64 0 .24-.036.468-.072.636h-4.644c.036 1.452.96 2.328 2.256 2.328.78 0 1.44-.36 1.836-.9zm-2.868-4.428c-.996 0-1.692.588-1.908 1.632h3.624c-.036-.888-.648-1.632-1.716-1.632m-10.935 2.4c0-1.764 1.212-3.264 3.108-3.264.9 0 1.608.348 2.148.96v-3.672h1.02v9h-1.02v-.72c-.54.612-1.248.96-2.148.96-1.896 0-3.108-1.5-3.108-3.264m1.08 0c0 1.284.864 2.304 2.148 2.304.84 0 1.584-.408 2.028-1.116v-2.376c-.468-.72-1.2-1.116-2.028-1.116-1.284 0-2.148 1.02-2.148 2.304m-11.251 3.024v-6.048h1.02v.684c.492-.54 1.116-.924 2.016-.924 1.356 0 2.364.912 2.364 2.628v3.66h-1.02v-3.624c0-1.08-.612-1.704-1.548-1.704-.876 0-1.428.504-1.812 1.14v4.188zm-4.916-6.288c1.944 0 3.276 1.5 3.276 3.264s-1.332 3.264-3.276 3.264c-1.956 0-3.276-1.5-3.276-3.264s1.32-3.264 3.276-3.264m.012 5.568c1.26 0 2.184-1.056 2.184-2.304 0-1.26-.924-2.304-2.184-2.304-1.296 0-2.22 1.044-2.22 2.304s.924 2.304 2.22 2.304m-5.432-6.9a.72.72 0 0 1-.72-.72.72.72 0 0 1 .72-.708.71.71 0 0 1 .708.708c0 .396-.312.72-.708.72m-.516 7.62v-6.048h1.02v6.048zm-4.691-2.028v-3.096h-1.14v-.924h1.14v-1.512h1.032v1.512h2.1v.924h-2.1v3.096c0 .948.48 1.212 1.212 1.212.396 0 .672-.048.9-.144v.912c-.288.12-.612.168-1.044.168-1.344 0-2.1-.672-2.1-2.148m-5.442 2.196c-1.188 0-1.992-.66-1.992-1.692 0-.912.696-1.56 1.98-1.776l2.04-.336v-.42c0-.84-.6-1.32-1.464-1.32-.696 0-1.26.324-1.632.84l-.768-.588c.528-.72 1.38-1.164 2.436-1.164 1.536 0 2.448.9 2.448 2.232v4.056h-1.02v-.768c-.456.588-1.248.936-2.028.936m-.96-1.728c0 .516.42.888 1.128.888.804 0 1.464-.384 1.86-1.032v-1.188l-1.788.3c-.828.144-1.2.516-1.2 1.032m-4.533.84c.744 0 1.356-.36 1.728-.888l.804.612c-.564.756-1.44 1.236-2.544 1.236-2.004 0-3.288-1.5-3.288-3.264s1.284-3.264 3.288-3.264c1.092 0 1.98.492 2.544 1.236l-.804.612a2.09 2.09 0 0 0-1.74-.888c-1.296 0-2.22 1.02-2.22 2.304 0 1.296.924 2.304 2.232 2.304m-5.444-6.9a.72.72 0 0 1-.72-.72.72.72 0 0 1 .72-.708.71.71 0 0 1 .708.708c0 .396-.312.72-.708.72m-.516 7.62v-6.048h1.02v6.048zm-4.769 0v-6.048h1.02v.756c.444-.528.996-.876 1.764-.876.192 0 .372.024.516.072v.996a2.2 2.2 0 0 0-.6-.072c-.792 0-1.308.408-1.68 1.02v4.152zm-1.658-3.024c0 1.764-1.212 3.264-3.108 3.264-.9 0-1.608-.348-2.148-.96v.72h-1.02v-9h1.02v3.672c.54-.612 1.248-.96 2.148-.96 1.896 0 3.108 1.5 3.108 3.264m-3.228-2.304c-.84 0-1.584.408-2.028 1.116v2.376c.468.72 1.2 1.116 2.028 1.116 1.284 0 2.16-1.02 2.16-2.304s-.876-2.304-2.16-2.304m-8.142 5.496c-1.188 0-1.992-.66-1.992-1.692 0-.912.696-1.56 1.98-1.776l2.04-.336v-.42c0-.84-.6-1.32-1.464-1.32-.696 0-1.26.324-1.632.84l-.768-.588c.528-.72 1.38-1.164 2.436-1.164 1.536 0 2.448.9 2.448 2.232v4.056h-1.02v-.768c-.456.588-1.248.936-2.028.936m-.96-1.728c0 .516.42.888 1.128.888.804 0 1.464-.384 1.86-1.032v-1.188l-1.788.3c-.828.144-1.2.516-1.2 1.032m-5.789-4.488h1.14v-.744c0-1.284.828-2.208 2.148-2.208.552 0 .996.156 1.332.348l-.456.852a1.4 1.4 0 0 0-.852-.276c-.684 0-1.14.468-1.14 1.26v.768h2.1v.924h-2.1v5.124h-1.032v-5.124h-1.14zm-7.536 6.216c-1.188 0-1.992-.66-1.992-1.692 0-.912.696-1.56 1.98-1.776l2.04-.336v-.42c0-.84-.6-1.32-1.464-1.32-.696 0-1.26.324-1.632.84l-.768-.588c.528-.72 1.38-1.164 2.436-1.164 1.536 0 2.448.9 2.448 2.232v4.056h-1.02v-.768c-.456.588-1.248.936-2.028.936m-.96-1.728c0 .516.42.888 1.128.888.804 0 1.464-.384 1.86-1.032v-1.188l-1.788.3c-.828.144-1.2.516-1.2 1.032m-3.86 1.56v-9h1.02v9zm-4.831-.996c-.564.756-1.464 1.236-2.592 1.236-2.04 0-3.3-1.5-3.3-3.264 0-1.836 1.176-3.264 3.048-3.264 1.644 0 2.712 1.152 2.712 2.64 0 .24-.036.468-.072.636h-4.644c.036 1.452.96 2.328 2.256 2.328.78 0 1.44-.36 1.836-.9zm-2.868-4.428c-.996 0-1.692.588-1.908 1.632h3.624c-.036-.888-.648-1.632-1.716-1.632m-10.934 2.4c0-1.764 1.212-3.264 3.108-3.264.9 0 1.608.348 2.148.96v-3.672h1.02v9h-1.02v-.72c-.54.612-1.248.96-2.148.96-1.896 0-3.108-1.5-3.108-3.264m1.08 0c0 1.284.864 2.304 2.148 2.304.84 0 1.584-.408 2.028-1.116v-2.376c-.468-.72-1.2-1.116-2.028-1.116-1.284 0-2.148 1.02-2.148 2.304m-11.252 3.024v-6.048h1.02v.684c.492-.54 1.116-.924 2.016-.924 1.356 0 2.364.912 2.364 2.628v3.66h-1.02v-3.624c0-1.08-.612-1.704-1.548-1.704-.876 0-1.428.504-1.812 1.14v4.188zm-4.915-6.288c1.944 0 3.276 1.5 3.276 3.264s-1.332 3.264-3.276 3.264c-1.956 0-3.276-1.5-3.276-3.264s1.32-3.264 3.276-3.264m.012 5.568c1.26 0 2.184-1.056 2.184-2.304 0-1.26-.924-2.304-2.184-2.304-1.296 0-2.22 1.044-2.22 2.304s.924 2.304 2.22 2.304m-5.433-6.9a.72.72 0 0 1-.72-.72.72.72 0 0 1 .72-.708.71.71 0 0 1 .708.708c0 .396-.312.72-.708.72m-.516 7.62v-6.048H174v6.048zm-4.691-2.028v-3.096h-1.14v-.924h1.14v-1.512h1.032v1.512h2.1v.924h-2.1v3.096c0 .948.48 1.212 1.212 1.212.396 0 .672-.048.9-.144v.912c-.288.12-.612.168-1.044.168-1.344 0-2.1-.672-2.1-2.148m-5.442 2.196c-1.188 0-1.992-.66-1.992-1.692 0-.912.696-1.56 1.98-1.776l2.04-.336v-.42c0-.84-.6-1.32-1.464-1.32-.696 0-1.26.324-1.632.84l-.768-.588c.528-.72 1.38-1.164 2.436-1.164 1.536 0 2.448.9 2.448 2.232v4.056h-1.02v-.768c-.456.588-1.248.936-2.028.936m-.96-1.728c0 .516.42.888 1.128.888.804 0 1.464-.384 1.86-1.032v-1.188l-1.788.3c-.828.144-1.2.516-1.2 1.032m-6.629.732.72-.612c.42.528.924.828 1.536.828.672 0 1.056-.408 1.056-.936 0-1.356-3.024-.876-3.024-3.012 0-.948.804-1.728 1.968-1.728.864 0 1.608.408 2.028.996l-.708.6c-.324-.456-.78-.744-1.308-.744-.648 0-.996.384-.996.852 0 1.356 3.036.924 3.036 2.988-.012 1.128-.912 1.836-2.04 1.836-.96 0-1.716-.384-2.268-1.068m-1.965-6.792a.72.72 0 0 1-.72-.72.72.72 0 0 1 .72-.708.71.71 0 0 1 .708.708c0 .396-.312.72-.708.72m-.516 7.62v-6.048h1.02v6.048zm-11.343 0v-6.048h1.02v.66c.456-.528 1.056-.9 1.896-.9.876 0 1.596.396 1.968 1.164.48-.66 1.116-1.164 2.16-1.164 1.296 0 2.244.864 2.244 2.508v3.78h-1.02v-3.744c0-1.008-.564-1.584-1.428-1.584-.768 0-1.308.432-1.704 1.14.012.132.024.264.024.408v3.78h-1.02v-3.744c0-1.008-.552-1.584-1.428-1.584-.828 0-1.344.516-1.692 1.14v4.188zm-2.66-7.62a.72.72 0 0 1-.72-.72.72.72 0 0 1 .72-.708.71.71 0 0 1 .708.708c0 .396-.312.72-.708.72m-.516 7.62v-6.048h1.02v6.048zm-4.691-2.028v-3.096h-1.14v-.924h1.14v-1.512h1.032v1.512h2.1v.924h-2.1v3.096c0 .948.48 1.212 1.212 1.212.396 0 .672-.048.9-.144v.912c-.288.12-.612.168-1.044.168-1.344 0-2.1-.672-2.1-2.148m-8.176 4.98v-9h1.02v.72c.54-.612 1.248-.96 2.148-.96 1.896 0 3.108 1.5 3.108 3.264s-1.212 3.264-3.108 3.264c-.9 0-1.608-.348-2.148-.96v3.672zm3.048-8.28c-.84 0-1.572.408-2.028 1.128v2.352c.468.732 1.2 1.128 2.028 1.128 1.284 0 2.16-1.02 2.16-2.304s-.876-2.304-2.16-2.304m-9.143-3.312c2.616 0 4.404 2.04 4.404 4.44s-1.788 4.44-4.404 4.44c-2.628 0-4.416-2.04-4.416-4.44s1.788-4.44 4.416-4.44m0 7.824c1.884 0 3.24-1.512 3.24-3.384s-1.356-3.384-3.24-3.384c-1.896 0-3.252 1.512-3.252 3.384s1.356 3.384 3.252 3.384m-9.866.948a.766.766 0 0 1-.78-.756c0-.42.348-.768.78-.768s.768.348.768.768-.336.756-.768.756m-7.87-.132v-.972l2.844-2.928c.984-1.032 1.428-1.5 1.428-2.388 0-.876-.636-1.38-1.488-1.38-.888 0-1.464.444-1.956 1.26l-.888-.54c.684-1.068 1.62-1.692 2.928-1.692 1.404 0 2.52.912 2.52 2.28 0 1.14-.744 1.992-1.752 3.048l-2.304 2.34h4.284v.972zm252.272-20.828.72-.612c.42.528.924.828 1.536.828.672 0 1.056-.408 1.056-.936 0-1.356-3.024-.876-3.024-3.012 0-.948.804-1.728 1.968-1.728.864 0 1.608.408 2.028.996l-.708.6c-.324-.456-.78-.744-1.308-.744-.648 0-.996.384-.996.852 0 1.356 3.036.924 3.036 2.988-.012 1.128-.912 1.836-2.04 1.836-.96 0-1.716-.384-2.268-1.068m-.901-.168c-.564.756-1.464 1.236-2.592 1.236-2.04 0-3.3-1.5-3.3-3.264 0-1.836 1.176-3.264 3.048-3.264 1.644 0 2.712 1.152 2.712 2.64 0 .24-.036.468-.072.636h-4.644c.036 1.452.96 2.328 2.256 2.328.78 0 1.44-.36 1.836-.9zm-2.868-4.428c-.996 0-1.692.588-1.908 1.632h3.624c-.036-.888-.648-1.632-1.716-1.632m-7.082 3.396v-3.096h-1.14v-.924h1.14v-1.512h1.032v1.512h2.1v.924h-2.1v3.096c0 .948.48 1.212 1.212 1.212.396 0 .672-.048.9-.144v.912c-.288.12-.612.168-1.044.168-1.344 0-2.1-.672-2.1-2.148m-5.814-4.98h-.924l1.26-1.992h1.38l1.248 1.992h-.912l-1.02-1.512zm.372 7.176c-1.188 0-1.992-.66-1.992-1.692 0-.912.696-1.56 1.98-1.776l2.04-.336v-.42c0-.84-.6-1.32-1.464-1.32-.696 0-1.26.324-1.632.84l-.768-.588c.528-.72 1.38-1.164 2.436-1.164 1.536 0 2.448.9 2.448 2.232v4.056h-1.02v-.768c-.456.588-1.248.936-2.028.936m-.96-1.728c0 .516.42.888 1.128.888.804 0 1.464-.384 1.86-1.032v-1.188l-1.788.3c-.828.144-1.2.516-1.2 1.032m-8.501 4.512v-9h1.02v.72c.54-.612 1.248-.96 2.148-.96 1.896 0 3.108 1.5 3.108 3.264s-1.212 3.264-3.108 3.264c-.9 0-1.608-.348-2.148-.96v3.672zm3.048-8.28c-.84 0-1.572.408-2.028 1.128v2.352c.468.732 1.2 1.128 2.028 1.128 1.284 0 2.16-1.02 2.16-2.304s-.876-2.304-2.16-2.304m-7.879 4.332c-.564.756-1.464 1.236-2.592 1.236-2.04 0-3.3-1.5-3.3-3.264 0-1.836 1.176-3.264 3.048-3.264 1.644 0 2.712 1.152 2.712 2.64 0 .24-.036.468-.072.636h-4.644c.036 1.452.96 2.328 2.256 2.328.78 0 1.44-.36 1.836-.9zm-2.868-4.428c-.996 0-1.692.588-1.908 1.632h3.624c-.036-.888-.648-1.632-1.716-1.632m-10.934 2.4c0-1.764 1.212-3.264 3.108-3.264.9 0 1.608.348 2.148.96v-3.672h1.02v9h-1.02v-.72c-.54.612-1.248.96-2.148.96-1.896 0-3.108-1.5-3.108-3.264m1.08 0c0 1.284.864 2.304 2.148 2.304.84 0 1.584-.408 2.028-1.116v-2.376c-.468-.72-1.2-1.116-2.028-1.116-1.284 0-2.148 1.02-2.148 2.304m-5.395 2.028c-.564.756-1.464 1.236-2.592 1.236-2.04 0-3.3-1.5-3.3-3.264 0-1.836 1.176-3.264 3.048-3.264 1.644 0 2.712 1.152 2.712 2.64 0 .24-.036.468-.072.636h-4.644c.036 1.452.96 2.328 2.256 2.328.78 0 1.44-.36 1.836-.9zm-2.868-4.428c-.996 0-1.692.588-1.908 1.632h3.624c-.036-.888-.648-1.632-1.716-1.632m-8.407 4.596.72-.612c.42.528.924.828 1.536.828.672 0 1.056-.408 1.056-.936 0-1.356-3.024-.876-3.024-3.012 0-.948.804-1.728 1.968-1.728.864 0 1.608.408 2.028.996l-.708.6c-.324-.456-.78-.744-1.308-.744-.648 0-.996.384-.996.852 0 1.356 3.036.924 3.036 2.988-.012 1.128-.912 1.836-2.04 1.836-.96 0-1.716-.384-2.268-1.068m-4.445.996c-1.188 0-1.992-.66-1.992-1.692 0-.912.696-1.56 1.98-1.776l2.04-.336v-.42c0-.84-.6-1.32-1.464-1.32-.696 0-1.26.324-1.632.84l-.768-.588c.528-.72 1.38-1.164 2.436-1.164 1.536 0 2.448.9 2.448 2.232v4.056h-1.02v-.768c-.456.588-1.248.936-2.028.936m-.96-1.728c0 .516.42.888 1.128.888.804 0 1.464-.384 1.86-1.032v-1.188l-1.788.3c-.828.144-1.2.516-1.2 1.032m-2.342-1.464c0 1.764-1.212 3.264-3.108 3.264-.9 0-1.608-.348-2.148-.96v.72h-1.02v-9h1.02v3.672c.54-.612 1.248-.96 2.148-.96 1.896 0 3.108 1.5 3.108 3.264m-3.228-2.304c-.84 0-1.584.408-2.028 1.116v2.376c.468.72 1.2 1.116 2.028 1.116 1.284 0 2.16-1.02 2.16-2.304s-.876-2.304-2.16-2.304m-11.256-1.68-1.404-1.992h1.14l1.248 1.992zm-.12 7.176c-1.188 0-1.992-.66-1.992-1.692 0-.912.696-1.56 1.98-1.776l2.04-.336v-.42c0-.84-.6-1.32-1.464-1.32-.696 0-1.26.324-1.632.84l-.768-.588c.528-.72 1.38-1.164 2.436-1.164 1.536 0 2.448.9 2.448 2.232v4.056h-1.02v-.768c-.456.588-1.248.936-2.028.936m-.96-1.728c0 .516.42.888 1.128.888.804 0 1.464-.384 1.86-1.032v-1.188l-1.788.3c-.828.144-1.2.516-1.2 1.032m-9.888.732.72-.612c.42.528.924.828 1.536.828.672 0 1.056-.408 1.056-.936 0-1.356-3.024-.876-3.024-3.012 0-.948.804-1.728 1.968-1.728.864 0 1.608.408 2.028.996l-.708.6c-.324-.456-.78-.744-1.308-.744-.648 0-.996.384-.996.852 0 1.356 3.036.924 3.036 2.988-.012 1.128-.912 1.836-2.04 1.836-.96 0-1.716-.384-2.268-1.068m-6.804.828v-6.048h1.02v.684c.492-.54 1.116-.924 2.016-.924 1.356 0 2.364.912 2.364 2.628v3.66h-1.02v-3.624c0-1.08-.612-1.704-1.548-1.704-.876 0-1.428.504-1.812 1.14v4.188zm-4.916-6.288c1.944 0 3.276 1.5 3.276 3.264s-1.332 3.264-3.276 3.264c-1.956 0-3.276-1.5-3.276-3.264s1.32-3.264 3.276-3.264m.012 5.568c1.26 0 2.184-1.056 2.184-2.304 0-1.26-.924-2.304-2.184-2.304-1.296 0-2.22 1.044-2.22 2.304s.924 2.304 2.22 2.304m-5.432-6.9a.72.72 0 0 1-.72-.72.72.72 0 0 1 .72-.708.71.71 0 0 1 .708.708c0 .396-.312.72-.708.72m-.516 7.62v-6.048h1.02v6.048zm-4.691-2.028v-3.096h-1.14v-.924h1.14v-1.512h1.032v1.512h2.1v.924h-2.1v3.096c0 .948.48 1.212 1.212 1.212.396 0 .672-.048.9-.144v.912c-.288.12-.612.168-1.044.168-1.344 0-2.1-.672-2.1-2.148m-5.442 2.196c-1.188 0-1.992-.66-1.992-1.692 0-.912.696-1.56 1.98-1.776l2.04-.336v-.42c0-.84-.6-1.32-1.464-1.32-.696 0-1.26.324-1.632.84l-.768-.588c.528-.72 1.38-1.164 2.436-1.164 1.536 0 2.448.9 2.448 2.232v4.056h-1.02v-.768c-.456.588-1.248.936-2.028.936m-.96-1.728c0 .516.42.888 1.128.888.804 0 1.464-.384 1.86-1.032v-1.188l-1.788.3c-.828.144-1.2.516-1.2 1.032m-4.533.84c.744 0 1.356-.36 1.728-.888l.804.612c-.564.756-1.44 1.236-2.544 1.236-2.004 0-3.288-1.5-3.288-3.264s1.284-3.264 3.288-3.264c1.092 0 1.98.492 2.544 1.236l-.804.612a2.09 2.09 0 0 0-1.74-.888c-1.296 0-2.22 1.02-2.22 2.304 0 1.296.924 2.304 2.232 2.304m-5.444-6.9a.72.72 0 0 1-.72-.72.72.72 0 0 1 .72-.708.71.71 0 0 1 .708.708c0 .396-.312.72-.708.72m-.516 7.62v-6.048h1.02v6.048zm-4.769 0v-6.048h1.02v.756c.444-.528.996-.876 1.764-.876.192 0 .372.024.516.072v.996a2.2 2.2 0 0 0-.6-.072c-.792 0-1.308.408-1.68 1.02v4.152zm-1.658-3.024c0 1.764-1.212 3.264-3.108 3.264-.9 0-1.608-.348-2.148-.96v.72h-1.02v-9h1.02v3.672c.54-.612 1.248-.96 2.148-.96 1.896 0 3.108 1.5 3.108 3.264m-3.228-2.304c-.84 0-1.584.408-2.028 1.116v2.376c.468.72 1.2 1.116 2.028 1.116 1.284 0 2.16-1.02 2.16-2.304s-.876-2.304-2.16-2.304m-8.142 5.496c-1.188 0-1.992-.66-1.992-1.692 0-.912.696-1.56 1.98-1.776l2.04-.336v-.42c0-.84-.6-1.32-1.464-1.32-.696 0-1.26.324-1.632.84l-.768-.588c.528-.72 1.38-1.164 2.436-1.164 1.536 0 2.448.9 2.448 2.232v4.056h-1.02v-.768c-.456.588-1.248.936-2.028.936m-.96-1.728c0 .516.42.888 1.128.888.804 0 1.464-.384 1.86-1.032v-1.188l-1.788.3c-.828.144-1.2.516-1.2 1.032m-5.789-4.488h1.14v-.744c0-1.284.828-2.208 2.148-2.208.552 0 .996.156 1.332.348l-.456.852a1.4 1.4 0 0 0-.852-.276c-.684 0-1.14.468-1.14 1.26v.768h2.1v.924h-2.1v5.124h-1.032v-5.124h-1.14zm-4.039 5.052c-.564.756-1.464 1.236-2.592 1.236-2.04 0-3.299-1.5-3.299-3.264 0-1.836 1.175-3.264 3.047-3.264 1.644 0 2.712 1.152 2.712 2.64 0 .24-.036.468-.072.636h-4.644c.036 1.452.96 2.328 2.256 2.328.78 0 1.44-.36 1.836-.9zm-2.868-4.428c-.996 0-1.692.588-1.908 1.632h3.624c-.036-.888-.648-1.632-1.716-1.632m-10.934 2.4c0-1.764 1.212-3.264 3.108-3.264.9 0 1.608.348 2.148.96v-3.672h1.02v9h-1.02v-.72c-.54.612-1.248.96-2.148.96-1.896 0-3.108-1.5-3.108-3.264m1.08 0c0 1.284.864 2.304 2.148 2.304.84 0 1.584-.408 2.028-1.116v-2.376c-.468-.72-1.2-1.116-2.028-1.116-1.284 0-2.148 1.02-2.148 2.304m-11.252 3.024v-6.048h1.02v.684c.492-.54 1.116-.924 2.016-.924 1.356 0 2.364.912 2.364 2.628v3.66h-1.02v-3.624c0-1.08-.612-1.704-1.548-1.704-.876 0-1.428.504-1.812 1.14v4.188zm-4.915-6.288c1.944 0 3.276 1.5 3.276 3.264s-1.332 3.264-3.276 3.264c-1.956 0-3.276-1.5-3.276-3.264s1.32-3.264 3.276-3.264m.012 5.568c1.26 0 2.184-1.056 2.184-2.304 0-1.26-.924-2.304-2.184-2.304-1.296 0-2.22 1.044-2.22 2.304s.924 2.304 2.22 2.304m-5.432-6.9a.72.72 0 0 1-.72-.72.72.72 0 0 1 .72-.708.71.71 0 0 1 .708.708c0 .396-.312.72-.708.72m-.516 7.62v-6.048h1.02v6.048zm-4.691-2.028v-3.096h-1.14v-.924h1.14v-1.512h1.032v1.512h2.1v.924h-2.1v3.096c0 .948.48 1.212 1.212 1.212.396 0 .672-.048.9-.144v.912c-.288.12-.612.168-1.044.168-1.344 0-2.1-.672-2.1-2.148m-5.442 2.196c-1.188 0-1.992-.66-1.992-1.692 0-.912.696-1.56 1.98-1.776l2.04-.336v-.42c0-.84-.6-1.32-1.464-1.32-.696 0-1.26.324-1.632.84l-.768-.588c.528-.72 1.38-1.164 2.436-1.164 1.536 0 2.448.9 2.448 2.232v4.056h-1.02v-.768c-.456.588-1.248.936-2.028.936m-.96-1.728c0 .516.42.888 1.128.888.804 0 1.464-.384 1.86-1.032v-1.188l-1.788.3c-.828.144-1.2.516-1.2 1.032m-6.63.732.72-.612c.42.528.924.828 1.536.828.672 0 1.056-.408 1.056-.936 0-1.356-3.024-.876-3.024-3.012 0-.948.804-1.728 1.968-1.728.864 0 1.608.408 2.028.996l-.708.6c-.324-.456-.78-.744-1.308-.744-.648 0-.996.384-.996.852 0 1.356 3.036.924 3.036 2.988-.012 1.128-.912 1.836-2.04 1.836-.96 0-1.716-.384-2.268-1.068m-1.964-6.792a.72.72 0 0 1-.72-.72.72.72 0 0 1 .72-.708.71.71 0 0 1 .708.708c0 .396-.312.72-.708.72m-.516 7.62v-6.048h1.02v6.048zm-3.176 0v-9h1.02v9zm-5.094.168c-1.188 0-1.992-.66-1.992-1.692 0-.912.696-1.56 1.98-1.776l2.04-.336v-.42c0-.84-.6-1.32-1.464-1.32-.696 0-1.26.324-1.632.84l-.768-.588c.528-.72 1.38-1.164 2.436-1.164 1.536 0 2.448.9 2.448 2.232v4.056h-1.02v-.768c-.456.588-1.248.936-2.028.936m-.96-1.728c0 .516.42.888 1.128.888.804 0 1.464-.384 1.86-1.032v-1.188l-1.788.3c-.828.144-1.2.516-1.2 1.032m-4.538-5.448h-.996l1.248-1.992h1.152zm2.304 6.012c-.564.756-1.464 1.236-2.592 1.236-2.04 0-3.3-1.5-3.3-3.264 0-1.836 1.176-3.264 3.048-3.264 1.644 0 2.712 1.152 2.712 2.64 0 .24-.036.468-.072.636h-4.644c.036 1.452.96 2.328 2.256 2.328.78 0 1.44-.36 1.836-.9zm-2.868-4.428c-.996 0-1.692.588-1.908 1.632h3.624c-.036-.888-.648-1.632-1.716-1.632m-9.873 5.424v-8.4h2.232c1.692 0 2.736.924 2.736 2.364 0 1.008-.516 1.764-1.416 2.124l2.712 3.912h-1.332l-2.436-3.696c-.084.012-.18.012-.264.012h-1.104v3.684zm2.28-7.44h-1.152v2.796h1.152c.96 0 1.524-.516 1.524-1.416 0-.852-.564-1.38-1.524-1.38m-8.45 7.572a.766.766 0 0 1-.78-.756c0-.42.348-.768.78-.768s.768.348.768.768-.336.756-.768.756m-3.838-.132v-7.308l-2.22 1.2-.552-.768 2.76-1.524h1.08v8.4zm151.631-20v-6.048h1.524v.48c.42-.408.984-.72 1.788-.72 1.308 0 2.352.9 2.352 2.688v3.6h-1.536v-3.54c0-.804-.456-1.308-1.2-1.308-.768 0-1.176.516-1.404.9v3.948zm-4.702-6.288c1.968 0 3.312 1.452 3.312 3.264s-1.344 3.264-3.312 3.264-3.312-1.452-3.312-3.264 1.344-3.264 3.312-3.264m.024 5.088c.972 0 1.704-.78 1.704-1.824 0-1.056-.732-1.824-1.704-1.824-1.008 0-1.752.768-1.752 1.824s.744 1.824 1.752 1.824m-5.488-5.904a1.01 1.01 0 0 1-.996-.996c0-.54.456-.996.996-.996s.984.456.984.996-.444.996-.984.996m-.768 7.104v-6.048h1.524v6.048zm-4.749-2.208v-2.472h-1.128v-1.368h1.128v-1.512h1.536v1.512h1.848v1.368h-1.848v2.472c0 .672.36.936.96.936.42 0 .696-.048.9-.132v1.332c-.3.132-.66.192-1.164.192-1.512 0-2.232-.852-2.232-2.328m-5.465 2.388c-1.212 0-2.04-.696-2.04-1.812 0-.912.708-1.596 2.004-1.812l1.848-.312v-.156c0-.636-.48-1.044-1.176-1.044-.588 0-1.044.276-1.368.72l-1.116-.852c.54-.744 1.428-1.2 2.532-1.2 1.752 0 2.652 1.044 2.652 2.376v3.912h-1.524v-.588c-.384.468-1.104.768-1.812.768m-.528-1.884c0 .408.324.672.84.672.696 0 1.2-.324 1.5-.804v-.852l-1.44.24c-.636.108-.9.372-.9.744m-12.203 1.704v-6.048h1.524v.456c.408-.396.924-.696 1.668-.696.768 0 1.44.336 1.836.984.432-.528 1.008-.984 2.028-.984 1.248 0 2.232.864 2.232 2.568v3.72h-1.536v-3.66c0-.732-.396-1.188-1.08-1.188-.66 0-1.02.456-1.26.864.012.084.012.168.012.264v3.72h-1.536v-3.66c0-.732-.396-1.188-1.08-1.188-.696 0-1.056.516-1.284.9v3.948zm-4.875 0v-6.048h1.524v.6c.396-.408.912-.72 1.596-.72.204 0 .384.036.528.084v1.5a2.6 2.6 0 0 0-.672-.084c-.744 0-1.224.408-1.452.792v3.876zm-4.702-6.288c1.968 0 3.312 1.452 3.312 3.264s-1.344 3.264-3.312 3.264-3.312-1.452-3.312-3.264 1.344-3.264 3.312-3.264m.024 5.088c.972 0 1.704-.78 1.704-1.824 0-1.056-.732-1.824-1.704-1.824-1.008 0-1.752.768-1.752 1.824s.744 1.824 1.752 1.824m-8.23-4.848h1.128v-.636c0-1.284.852-2.316 2.364-2.316.552 0 1.02.132 1.404.336l-.648 1.272c-.18-.132-.42-.24-.732-.24-.516 0-.852.36-.852.912v.672h1.848v1.368h-1.848v4.68h-1.536v-4.68h-1.128zm-7.572 6.228c-1.212 0-2.04-.696-2.04-1.812 0-.912.708-1.596 2.004-1.812l1.848-.312v-.156c0-.636-.48-1.044-1.176-1.044-.588 0-1.044.276-1.368.72l-1.116-.852c.54-.744 1.428-1.2 2.532-1.2 1.752 0 2.652 1.044 2.652 2.376v3.912h-1.524v-.588c-.384.468-1.104.768-1.812.768m-.528-1.884c0 .408.324.672.84.672.696 0 1.2-.324 1.5-.804v-.852l-1.44.24c-.636.108-.9.372-.9.744m-4.527 1.704v-9h1.524v9zm-4.616-.984c-.564.756-1.5 1.224-2.64 1.224-2.148 0-3.36-1.5-3.36-3.264 0-1.788 1.128-3.264 3.108-3.264 1.68 0 2.784 1.14 2.784 2.724 0 .336-.048.648-.096.852h-4.236c.144 1.128.84 1.584 1.788 1.584.66 0 1.236-.288 1.56-.72zm-2.928-4.056c-.78 0-1.296.432-1.464 1.224h2.784c-.024-.612-.468-1.224-1.32-1.224m-10.947 2.016c0-1.764 1.164-3.264 3.072-3.264.816 0 1.404.252 1.872.72v-3.432h1.536v9h-1.536v-.48c-.468.468-1.056.72-1.872.72-1.908 0-3.072-1.5-3.072-3.264m1.596 0c0 1.056.66 1.824 1.692 1.824.684 0 1.248-.288 1.656-.84v-1.968c-.408-.552-.972-.84-1.656-.84-1.032 0-1.692.768-1.692 1.824m-11.793 3.024v-6.048h1.524v.48c.42-.408.984-.72 1.788-.72 1.308 0 2.352.9 2.352 2.688v3.6h-1.536v-3.54c0-.804-.456-1.308-1.2-1.308-.768 0-1.176.516-1.404.9v3.948zm-4.701-6.288c1.968 0 3.312 1.452 3.312 3.264s-1.344 3.264-3.312 3.264-3.312-1.452-3.312-3.264 1.344-3.264 3.312-3.264m.024 5.088c.972 0 1.704-.78 1.704-1.824 0-1.056-.732-1.824-1.704-1.824-1.008 0-1.752.768-1.752 1.824s.744 1.824 1.752 1.824m-5.489-5.904a1.01 1.01 0 0 1-.996-.996c0-.54.456-.996.996-.996s.984.456.984.996-.444.996-.984.996m-.768 7.104v-6.048h1.524v6.048zm-4.748-2.208v-2.472h-1.128v-1.368h1.128v-1.512h1.536v1.512h1.848v1.368h-1.848v2.472c0 .672.36.936.96.936.42 0 .696-.048.9-.132v1.332c-.3.132-.66.192-1.164.192-1.512 0-2.232-.852-2.232-2.328m-8.189 5.16v-9h1.524v.492c.468-.468 1.056-.732 1.884-.732 1.92 0 3.072 1.5 3.072 3.264s-1.152 3.264-3.072 3.264c-.828 0-1.416-.264-1.884-.732v3.444zm3.192-7.8c-.708 0-1.284.312-1.668.876v1.896c.408.576.972.876 1.668.876 1.032 0 1.704-.768 1.704-1.824s-.672-1.824-1.704-1.824m-5.776-2.256a1.01 1.01 0 0 1-.996-.996c0-.54.456-.996.996-.996s.984.456.984.996-.444.996-.984.996m-.768 7.104v-6.048h1.524v6.048zm-4.874 0v-6.048h1.524v.6c.396-.408.912-.72 1.596-.72.204 0 .384.036.528.084v1.5a2.6 2.6 0 0 0-.672-.084c-.744 0-1.224.408-1.452.792v3.876zm-3.694-1.2c.6 0 1.08-.276 1.368-.696l1.188.912c-.564.744-1.452 1.224-2.556 1.224-2.088 0-3.336-1.5-3.336-3.264s1.248-3.264 3.336-3.264c1.104 0 1.992.48 2.556 1.224l-1.188.912c-.288-.42-.768-.696-1.392-.696-.996 0-1.728.768-1.728 1.824 0 1.068.732 1.824 1.752 1.824m-8.893.324 1.008-.912c.372.468.816.804 1.392.804.492 0 .744-.288.744-.648 0-1.056-2.892-.66-2.892-2.784 0-1.068.9-1.872 2.16-1.872.924 0 1.764.444 2.196 1.032l-1.008.888c-.312-.384-.708-.696-1.176-.696-.48 0-.708.264-.708.576 0 1.032 2.892.672 2.892 2.76-.024 1.272-1.044 1.968-2.184 1.968-1.08 0-1.848-.432-2.424-1.116m-.771-.108c-.564.756-1.5 1.224-2.64 1.224-2.148 0-3.36-1.5-3.36-3.264 0-1.788 1.128-3.264 3.108-3.264 1.68 0 2.784 1.14 2.784 2.724 0 .336-.048.648-.096.852h-4.236c.144 1.128.84 1.584 1.788 1.584.66 0 1.236-.288 1.56-.72zm-2.928-4.056c-.78 0-1.296.432-1.464 1.224h2.784c-.024-.612-.468-1.224-1.32-1.224m-11.879 5.04v-8.4h3.3c2.664 0 4.464 1.932 4.464 4.2s-1.8 4.2-4.464 4.2zm3.324-6.852h-1.62v5.304h1.62c1.56 0 2.688-1.164 2.688-2.652 0-1.5-1.128-2.652-2.688-2.652"/><mask id="c" fill="#fff"><path d="M244.612 139.248a22.57 22.57 0 0 1 14.732-24.022 22.6 22.6 0 0 1 9.986-1.22l-.296 2.858a19.7 19.7 0 0 0-20.689 13.294 19.7 19.7 0 0 0-.881 8.734z"/></mask><path stroke="#6a6af4" stroke-width="6" d="M244.612 139.248a22.57 22.57 0 0 1 14.732-24.022 22.6 22.6 0 0 1 9.986-1.22l-.296 2.858a19.7 19.7 0 0 0-20.689 13.294 19.7 19.7 0 0 0-.881 8.734z" mask="url(#c)"/><mask id="d" fill="#fff"><path d="M254.664 137.696a12.41 12.41 0 0 1 3.525-9.969 12.4 12.4 0 0 1 9.932-3.628l-.278 3.077a9.3 9.3 0 0 0-7.458 2.724 9.32 9.32 0 0 0-2.648 7.486z"/></mask><path stroke="#6a6af4" stroke-width="6" d="M254.664 137.696a12.41 12.41 0 0 1 3.525-9.969 12.4 12.4 0 0 1 9.932-3.628l-.278 3.077a9.3 9.3 0 0 0-7.458 2.724 9.32 9.32 0 0 0-2.648 7.486z" mask="url(#d)"/><g filter="url(#e)"><path fill="#131313" d="m306.646 155.832-36.587-19.917a2.363 2.363 0 0 0-3.369 1.342 2.3 2.3 0 0 0-.027 1.351l10.97 38.741c.103.367.315.694.608.938s.653.395 1.035.432a1.93 1.93 0 0 0 1.899-1.02l6.089-11.469 11.672 14.421a2.76 2.76 0 0 0 1.901.922 2.8 2.8 0 0 0 2.011-.69l1.263-1.104a2.78 2.78 0 0 0 .942-1.898 2.73 2.73 0 0 0-.677-1.994l-11.224-13.919 12.925-2.594a1.93 1.93 0 0 0 1.531-1.583 1.89 1.89 0 0 0-.962-1.959"/></g><defs><filter id="b" width="429" height="264.005" x="75.72" y=".681" color-interpolation-filters="sRGB" filterUnits="userSpaceOnUse"><feFlood flood-opacity="0" result="BackgroundImageFix"/><feColorMatrix in="SourceAlpha" result="hardAlpha" values="0 0 0 0 0 0 0 0 0 0 0 0 0 0 0 0 0 0 127 0"/><feOffset dy="10"/><feGaussianBlur stdDeviation="5"/><feColorMatrix values="0 0 0 0 0 0 0 0 0 0 0 0 0 0 0 0 0 0 0.16 0"/><feBlend in2="BackgroundImageFix" result="effect1_dropShadow_21940_46684"/><feBlend in="SourceGraphic" in2="effect1_dropShadow_21940_46684" result="shape"/></filter><filter id="e" width="53.056" height="57.948" x="260.576" y="131.63" color-interpolation-filters="sRGB" filterUnits="userSpaceOnUse"><feFlood flood-opacity="0" result="BackgroundImageFix"/><feColorMatrix in="SourceAlpha" result="hardAlpha" values="0 0 0 0 0 0 0 0 0 0 0 0 0 0 0 0 0 0 127 0"/><feOffset dy="2"/><feGaussianBlur stdDeviation="3"/><feColorMatrix values="0 0 0 0 0 0 0 0 0 0 0 0 0 0 0.0705882 0 0 0 0.16 0"/><feBlend in2="BackgroundImageFix" result="effect1_dropShadow_21940_46684"/><feBlend in="SourceGraphic" in2="effect1_dropShadow_21940_46684" result="shape"/></filter><clipPath id="a"><path fill="#fff" d="M.33 95.662h580v187H.33z"/></clipPath></defs></svg>