<svg xmlns="http://www.w3.org/2000/svg" width="543" height="372" fill="none" viewBox="0 0 543 372"><path fill="#ff8d7e" d="M82.638 180.766c-68.444-3.979-78.214 37.487-75.664 68.988C9.6 282.015 16.53 370.165 16.53 370.165c-.412.446 162.579.446 162.088 0 0 0-6.534-88.15-9.148-120.411-2.55-31.501-19.033-72.967-86.832-68.988"/><path fill="#5d21d1" d="m166.22 184.5 4.399 1.548-3.061 28.367-2.939 1.085s5.642-25.332 1.601-31"/><path fill="#2e186a" fill-rule="evenodd" d="M82.607 181.473a1.127 1.127 0 0 0-1.273-.962c-23.128 3.312-36.604 13.746-43.963 26.917-7.323 13.107-8.5 28.765-7.392 42.425.819 10.195 2.221 28.444 3.757 48.418 1.975 25.703 4.17 54.261 5.624 72.188.05.623.594 1.088 1.214 1.037a1.13 1.13 0 0 0 1.03-1.222c-1.456-17.947-3.647-46.465-5.621-72.145-1.535-19.973-2.938-38.229-3.76-48.459v-.001c-1.091-13.447.1-28.584 7.11-41.13 6.974-12.482 19.794-22.559 42.318-25.784a1.133 1.133 0 0 0 .956-1.282" clip-rule="evenodd"/><path fill="#fff" d="M170.714 291.5c0-.06 36.974 5.798 36.974 5.798l3.931 37.079-1.395 29.092c-8.612.19-17.222-.502-25.695-2.065-5.742-1.057-11.895-5.991-13.559-11.607-2.744-9.294-3.405-35.094-.256-58.297"/><path fill="#2e186a" fill-rule="evenodd" d="M168.796 291.481c.185-.472.646-.888.813-.946.075-.016.191-.031.23-.034.062-.003.111 0 .124 0h.001a3 3 0 0 1 .189.02l.329.046c.279.04.685.1 1.2.177 1.029.154 2.499.377 4.261.647 3.524.539 8.222 1.263 12.92 1.989s9.396 1.453 12.92 2l4.257.66 1.615.251-.178 1.115.178-1.115c.512.08.906.488.961.995l3.996 36.947q.01.087.005.174l-1.417 28.988a1.14 1.14 0 0 1-1.119 1.073 132 132 0 0 1-26.351-2.075c-3.142-.567-6.342-2.159-8.973-4.323-2.629-2.163-4.775-4.967-5.701-8.031v-.001c-1.444-4.792-2.307-13.67-2.424-24.155-.117-10.524.518-22.786 2.127-34.407zm37.634 6.904 3.894 36-1.362 27.846c-8.32.112-16.632-.577-24.818-2.058-2.695-.486-5.54-1.879-7.918-3.835-2.38-1.958-4.207-4.41-4.973-6.943m35.177-51.01-.747-.115-4.257-.661c-3.523-.546-8.221-1.274-12.918-2-4.698-.726-9.395-1.45-12.917-1.988a1173 1173 0 0 0-4.713-.715c-1.48 11.164-2.066 22.866-1.954 32.952.117 10.463.983 19.069 2.329 23.537" clip-rule="evenodd"/><path fill="#6a6af4" d="m195.375 371.5-7.445-43s6.952-8.628 6.402-20.783a29 29 0 0 0-.207-2.443c.068-.165 14.661-4.887 15.494-6.626-.554-9.896-8.662-36.217-22.974-42.334-4.59-2.106-15.704-5.268-17.941-6.023-10.545-3.573-32.788-9.354-52.112-5.538 0 0-29.5 4.786-36.117 8.673-3.593 2.11-21.44 13.592-24.856 45.36-.053.487 30.86 11.265 30.86 11.265l3.106 61.449"/><path fill="#fff" d="m149.917 229.309.293 16.91 6.011 1.123c1.037 1.496 12.428 18.78-13.322 21.013-16.798 1.459-35.317-8.352-45.28-19.981l16.489-4.489 4.975-31.385z"/><path fill="#2e186a" fill-rule="evenodd" d="M118.625 211.616a1.14 1.14 0 0 0-.614.843l-4.841 31.068-15.725 4.353c-.37.102-.663.39-.777.761-.113.372-.03.777.22 1.073 10.102 11.991 28.879 22.152 46.052 20.635 6.521-.575 10.864-2.131 13.629-4.301 2.812-2.207 3.9-4.977 4.035-7.698.132-2.67-.651-5.256-1.493-7.224a23.6 23.6 0 0 0-2.075-3.841 1.12 1.12 0 0 0-.717-.472l-5.088-.966-.276-16.203a1.14 1.14 0 0 0-.583-.977l-30.712-17.028a1.11 1.11 0 0 0-1.035-.023m30.096 18.728.281 16.469c.009.54.392.998.916 1.098l5.521 1.048a22 22 0 0 1 1.612 3.07c.774 1.811 1.419 4.028 1.31 6.208-.105 2.128-.925 4.254-3.167 6.014-2.289 1.796-6.146 3.277-12.449 3.833-15.652 1.383-32.986-7.533-42.965-18.494l14.682-4.064c.426-.118.744-.478.813-.92l4.706-30.197z" clip-rule="evenodd"/><path fill="#fe7624" d="m93.375 139.234 6.846-3.619 6.371 12.053-6.846 3.619z"/><path fill="#2e186a" d="M91.119 139.5c-7.456 0-13.5-6.045-13.5-13.5 0-7.456 6.044-13.5 13.5-13.5s13.5 6.044 13.5 13.5c0 7.455-6.044 13.5-13.5 13.5m11.718 2.45c11.351-4.663 23.915-7.383 35.942-3.813 36.743 12.665 40.998 38.168 28.51 50.893-2.413-18.112-6.271-24.757-13.213-28.398-5.1 11.343-27.687 25.506-47.97 27.293 0-.071 1.582 18.101 3.322 17.816.411 1.045 8.305 15.213 8.305 15.213l-2.265 13.546-53.18-3.589c-2.74.15-5.066-2.364-4.613-4.99 2.81-16.392 8.762-68.432 45.162-83.971"/><path fill="#fff" d="m114.619 210.499-2.676.735s-15.77 3.001-17.246-11.182c-1.12-10.76 9.999-10.929 15.434-10.385"/><path fill="#2e186a" fill-rule="evenodd" d="M95.023 193.298c-1.114 1.754-1.616 4.017-1.321 6.866.385 3.723 1.719 6.411 3.578 8.308 1.848 1.887 4.14 2.917 6.321 3.46 2.178.542 4.287.611 5.838.549a23 23 0 0 0 1.882-.153q.344-.045.536-.076l.148-.025.042-.008.012-.002.004-.001h.002l-.219-1.073.22 1.073a1 1 0 0 0 .091-.022l2.641-.729c.601-.166.949-.771.777-1.352s-.798-.917-1.399-.751l-2.589.715-.101.017q-.155.025-.457.064c-.401.051-.981.109-1.684.137-1.412.056-3.285-.01-5.18-.482-1.891-.471-3.763-1.334-5.242-2.845-1.469-1.499-2.627-3.713-2.97-7.021v-.001c-.257-2.484.198-4.243.998-5.504.803-1.264 2.023-2.137 3.498-2.727 3.004-1.199 6.851-1.134 9.492-.868.622.063 1.178-.374 1.243-.974.065-.601-.387-1.139-1.008-1.202-2.722-.273-7.043-.394-10.59 1.023-1.8.718-3.452 1.853-4.563 3.604" clip-rule="evenodd"/><path fill="#fff" d="M168.147 188.49c-2.439-18.288-6.199-24.31-13.237-27.99-5.076 11.275-25.243 25.123-48.132 26.855-.309 2.569-.088.284 0 3.075.294 2.886.668 6.143 1.084 8.885 2.29 10.315 6.633 16.624 6.633 16.624 6.168 9.854 15.813 17.063 28.183 17.544 21.583.832 25.789-29.458 25.935-36.142.068-3.317-.462-8.862-.462-8.862z"/><path fill="#2e186a" fill-rule="evenodd" d="M154.46 159.562c-.298.102-.54.322-.669.608-2.393 5.321-8.457 11.428-16.854 16.437-8.366 4.99-18.912 8.807-30.107 9.655a1.136 1.136 0 0 0-1.045.994l-.09.734-.053.442-.003.026c-.018.156-.046.405.031.683l.014.045c.008.026.011.033.022.119.021.164.05.501.071 1.184l.006.078c.293 2.883.667 6.149 1.086 8.908q.005.038.014.075c1.161 5.237 2.844 9.46 4.24 12.378a45 45 0 0 0 1.781 3.37 28 28 0 0 0 .694 1.122l.042.063.002.003c6.287 10.042 16.192 17.499 28.968 17.996 11.435.441 18.17-7.423 21.997-15.864 3.829-8.448 4.931-17.816 5.005-21.254v-.001c.036-1.706-.083-3.957-.206-5.755-.063-.905-.127-1.705-.176-2.279l-.059-.678-.017-.183-.006-.065-.843.079.843-.08a1 1 0 0 0-.025-.149c-1.216-9.081-2.774-15.251-4.964-19.638-2.23-4.467-5.098-7.05-8.795-8.985a1.14 1.14 0 0 0-.904-.068m12.429 29.166.011.126c.014.156.035.383.059.665.048.565.111 1.353.172 2.243.123 1.79.235 3.955.202 5.554-.07 3.223-1.134 12.274-4.806 20.374-3.674 8.107-9.776 14.92-19.827 14.532-11.845-.46-21.138-7.362-27.132-16.946l-.027-.041-.001-.001-.006-.01-.032-.047-.072-.111-.058-.09a26 26 0 0 1-.499-.817 42 42 0 0 1-1.691-3.2c-1.333-2.787-2.947-6.834-4.065-11.858-.406-2.686-.772-5.877-1.062-8.722a15 15 0 0 0-.088-1.361 3 3 0 0 0-.059-.337l.028-.241c11.241-1.014 21.775-4.884 30.176-9.895 8.064-4.811 14.282-10.746 17.219-16.342 2.807 1.659 4.999 3.837 6.785 7.416 2.03 4.066 3.554 9.973 4.763 19.05z" clip-rule="evenodd"/><path fill="#6a6af4" d="M178.602 198.769c-.258-6.001-3.991-10.802-8.976-13.269a10 10 0 0 1-1.436 1.732c.121 8.278-.525 23.317-1.226 27.701.369-.101.738-.217 1.078-.341-.299 2.659-1.108 5.723-3.065 7.944-1.687 1.912-4.021 2.978-7.075 3.244a3.75 3.75 0 0 0-1.962-.922 3.73 3.73 0 0 0-2.139.32 3.8 3.8 0 0 0-1.616 1.459 3.89 3.89 0 0 0 .105 4.207 3.8 3.8 0 0 0 1.687 1.373c.682.282 1.43.355 2.152.21a3.77 3.77 0 0 0 1.914-1.021c4.634-.334 8.348-2.048 11.077-5.12 4.176-4.733 4.723-11.435 4.642-15.246a16 16 0 0 0 3.728-5.603 16.2 16.2 0 0 0 1.112-6.668"/><path fill="#2e186a" fill-rule="evenodd" d="M151.128 180.528c-.581.141-.946.757-.814 1.377l4.891 23.045-4.563.249c-.595.032-1.052.573-1.022 1.208s.537 1.123 1.132 1.091l5.843-.319a1.06 1.06 0 0 0 .805-.454c.192-.271.262-.618.192-.95l-5.174-24.378c-.132-.62-.709-1.009-1.29-.869m-16.509 3.972c-1.001-.999-1.001-1-1-1Zm7.518 28.173a1.113 1.113 0 0 0-.345 1.537c1.373 2.163 3.715 2.916 5.507 3.167a13.3 13.3 0 0 0 3.28.039l.06-.008.018-.002.006-.001.003-.001-.163-1.102.164 1.102a1.113 1.113 0 1 0-.326-2.204l-.006.001-.034.004-.152.017a11 11 0 0 1-2.54-.051c-1.535-.216-3.077-.807-3.932-2.154a1.117 1.117 0 0 0-1.54-.344m15.04-32.146.717 1.126zc-.584.431-.733 1.288-.333 1.915.4.626 1.196.787 1.78.359m.001-.001.004-.003.035-.025.159-.107c.144-.093.359-.226.629-.373a9.3 9.3 0 0 1 2.118-.849c1.642-.414 3.405-.277 4.77 1.543.444.593 1.251.686 1.802.209s.638-1.345.194-1.937c-2.215-2.953-5.17-3.046-7.352-2.496a11.7 11.7 0 0 0-2.692 1.074 12 12 0 0 0-1.02.624l-.065.045-.019.014-.007.005-.002.002-.001.001m1.447 2.273" clip-rule="evenodd"/><path fill="#2e186a" d="M140.674 190.569c-.035-1.736.847-3.161 1.969-3.183 1.122-.023 2.06 1.366 2.095 3.101.035 1.736-.847 3.161-1.969 3.183s-2.06-1.366-2.095-3.101m20.368.081c-.029-1.736.857-3.157 1.979-3.176s2.055 1.372 2.085 3.107-.857 3.157-1.98 3.176-2.055-1.372-2.084-3.107"/><path fill="#fe7624" fill-rule="evenodd" d="M143.861 200.662c-2.11 2.906-4.99 4.637-8.12 4.703-3.129.065-6.079-1.543-8.309-4.359-2.231-2.816-3.69-6.791-3.783-11.26-.094-4.469 1.197-8.501 3.308-11.408s4.99-4.638 8.12-4.703 6.08 1.543 8.31 4.358c2.23 2.817 3.689 6.791 3.783 11.26.093 4.47-1.198 8.502-3.309 11.409m1.827 1.327c2.426-3.342 3.842-7.867 3.739-12.783s-1.707-9.378-4.271-12.614c-2.564-3.238-6.138-5.298-10.126-5.215-3.989.084-7.474 2.292-9.9 5.634-2.426 3.341-3.842 7.866-3.739 12.782s1.707 9.378 4.271 12.615 6.138 5.298 10.127 5.214c3.988-.083 7.473-2.292 9.899-5.633m32.454-.824c-2.11 2.906-4.99 4.637-8.12 4.703-3.13.065-6.08-1.543-8.31-4.359s-3.69-6.791-3.783-11.26c-.094-4.469 1.198-8.501 3.308-11.409 2.11-2.906 4.99-4.637 8.12-4.702s6.08 1.543 8.31 4.358c2.23 2.817 3.689 6.791 3.783 11.26.094 4.47-1.198 8.502-3.308 11.409m1.827 1.326c2.425-3.341 3.841-7.866 3.738-12.782s-1.707-9.378-4.27-12.614c-2.564-3.238-6.138-5.298-10.127-5.215s-7.474 2.292-9.9 5.634c-2.426 3.341-3.841 7.866-3.738 12.782s1.707 9.378 4.27 12.615c2.564 3.237 6.138 5.298 10.127 5.214s7.474-2.292 9.9-5.634" clip-rule="evenodd"/><path fill="#fe7624" fill-rule="evenodd" d="M157.617 187.686c-.036-.692-.602-1.222-1.265-1.185l-8.598.49c-.662.038-1.17.629-1.134 1.322.037.692.603 1.222 1.265 1.185l8.598-.49c.662-.038 1.17-.629 1.134-1.322m-34.013-1.236c-.101-.615-.695-1.034-1.327-.936l-17.682 2.744a1.13 1.13 0 0 0-.962 1.291c.101.615.695 1.034 1.327.936l17.682-2.744c.632-.098 1.063-.676.962-1.291" clip-rule="evenodd"/><path fill="#fff" d="m98.438 300.88-3.362 30.161s49.661 6.688 71.776 8.633c.993.087 19.66 12.013 17.609 12.997-11.998 5.772 1.513 11.158-14.333 8.993 0 0-51.2 5.738-98.687-3.077-5.709-1.06-11.824-6.006-13.482-11.638-2.739-9.315-3.385-35.199-.25-58.449-.02-.072 40.729 12.38 40.729 12.38"/><path fill="#2e186a" fill-rule="evenodd" d="M56.832 288.491c.184-.494.605-.918.812-.98.093-.011.23-.013.275-.01a1 1 0 0 1 .126.018h.001l.078.017.112.031.352.101c.3.088.739.219 1.294.385 1.112.333 2.7.812 4.606 1.389a9604 9604 0 0 1 13.978 4.245l13.98 4.257 4.607 1.405 1.746.533h.001l-.322 1.084.323-1.084c.517.158.849.668.788 1.211l-3.233 28.953 1.085.145a3856 3856 0 0 0 25.363 3.283c15.154 1.909 33.045 4.057 44.059 5.024.202.018.379.087.449.114.102.04.211.089.319.142.219.105.491.25.799.422.62.346 1.436.83 2.37 1.405a166 166 0 0 1 6.522 4.249c2.271 1.558 4.478 3.164 5.997 4.456.747.634 1.392 1.246 1.787 1.771.181.24.418.599.49 1.02.041.236.04.553-.115.874a1.4 1.4 0 0 1-.658.649c-2.871 1.378-4.041 2.652-4.554 3.636-.44.843-.468 1.56-.5 2.371l-.022.483c-.027.463-.088 1.106-.444 1.68-.392.631-1.014.994-1.772 1.186-.729.184-1.672.234-2.876.184-1.191-.05-2.706-.201-4.634-.461l-.015.001-.442.047c-.39.04-.965.097-1.714.167-1.497.14-3.686.33-6.46.53-5.549.4-13.438.841-22.813 1.007-18.739.332-43.447-.434-67.249-4.845-3.067-.569-6.19-2.165-8.76-4.335-2.566-2.169-4.66-4.981-5.567-8.053-1.415-4.804-2.258-13.711-2.37-24.226-.112-10.555.511-22.851 2.084-34.497zm113.204 73.048-.123-1.125-.002.001-.033.003-.108.012-.433.045c-.382.04-.951.097-1.692.166-1.483.138-3.657.327-6.415.526-5.515.397-13.364.836-22.692 1.002-18.663.33-43.208-.436-66.806-4.809-2.63-.488-5.408-1.885-7.73-3.846-2.323-1.963-4.108-4.422-4.857-6.963-1.319-4.478-2.165-13.11-2.276-23.604-.108-10.065.461-21.732 1.892-32.869l.486.145c1.109.332 2.695.81 4.6 1.387 3.81 1.153 8.891 2.697 13.974 4.244l13.979 4.257 4.607 1.405.854.26-3.25 29.119c-.07.613.36 1.168.963 1.249l.148-1.122-.147 1.122h.002l.56.075 1.612.215a3852 3852 0 0 0 25.379 3.286c15.097 1.901 32.955 4.046 44.025 5.023q.042.018.114.052.244.118.682.362c.581.325 1.368.791 2.288 1.357a164 164 0 0 1 6.429 4.189c2.255 1.546 4.385 3.1 5.814 4.315q.686.585 1.081.994c-2.538 1.356-3.934 2.755-4.671 4.168-.697 1.335-.737 2.602-.763 3.42q-.006.198-.014.359c-.025.432-.075.561-.104.607a.2.2 0 0 1-.062.056 1.2 1.2 0 0 1-.358.138c-.418.106-1.109.166-2.242.119-1.119-.047-2.599-.194-4.562-.461a1 1 0 0 0-.272-.004zm-3.548-20.823.015.006z" clip-rule="evenodd"/><path fill="#fff" d="M188.424 356.932c5.483 6.628 12.024 8.577 11.108 4.288-.346-1.606-13.401-15.528-18.184-17.933-3.686-1.867-9.18-3.899-16.729-4.787"/><path fill="#2e186a" fill-rule="evenodd" d="M162.626 338.526c-.07.634.38 1.205 1.005 1.277 7.571.862 13.054 2.83 16.704 4.619l.004.002c1.078.525 2.73 1.744 4.671 3.391 1.913 1.624 4.025 3.594 6.004 5.547s3.812 3.875 5.167 5.402a36 36 0 0 1 1.611 1.919q.287.377.424.596.06.098.076.13c.074.368.045.565.021.645-.015.048-.023.052-.043.063l-.004.002c-.146.078-.672.167-1.73-.195-2.004-.685-4.912-2.654-7.621-5.822a1.13 1.13 0 0 0-1.607-.117 1.166 1.166 0 0 0-.115 1.63c2.887 3.377 6.115 5.644 8.614 6.498 1.193.408 2.51.593 3.528.046.559-.3.963-.792 1.155-1.421.182-.596.156-1.247.013-1.896l-.001-.003c-.069-.312-.242-.607-.362-.799a11 11 0 0 0-.548-.774 39 39 0 0 0-1.716-2.047c-1.396-1.572-3.265-3.533-5.271-5.512-2.007-1.98-4.163-3.992-6.132-5.663-1.941-1.648-3.784-3.039-5.146-3.702-3.872-1.898-9.604-3.942-17.441-4.835a1.143 1.143 0 0 0-1.26 1.019" clip-rule="evenodd"/><path fill="#fff" d="M179.583 351.5s5.382 1.359 8.688 5.275 5.823 6.38 5.272 7.214c-.551.833-4.071 1.706-6.319-.523-2.895-4.067-11.153-6.779-11.153-6.779.926.1 6.613 2.174 9.353 4.722 2.741 2.548 4.155 7.413-3.266 3.804 0 0-7.626-2.453-10.539-3.509"/><path fill="#2e186a" fill-rule="evenodd" d="m179.361 352.808.007.002.037.009.156.044c.139.04.346.102.607.19.522.174 1.254.446 2.083.831 1.675.779 3.673 1.988 5.167 3.731.767.896 1.469 1.689 2.097 2.399.757.856 1.407 1.591 1.933 2.236.369.452.631.804.799 1.073l-.046.017a4.3 4.3 0 0 1-1.288.235c-1.001.035-2.091-.234-2.927-1.012a10 10 0 0 0-.824-.965 10 10 0 0 0-1.05-1.132c-1.494-1.368-3.713-2.554-5.603-3.396a34 34 0 0 0-2.592-1.031c-.686-.238-1.318-.424-1.683-.463-.559-.059-1.07.346-1.179.936-.11.59.217 1.173.755 1.347l.317-1.119-.108 1.163h-.001l.027.005.082.016q.105.024.272.071c.223.062.509.153.845.269.672.233 1.52.562 2.425.965 1.838.819 3.797 1.892 5.021 3.013.317.291.611.616.868.95.223.29.416.587.571.873.297.552.364.908.37 1.065-.06.016-.165.033-.331.031-.632-.009-1.758-.292-3.559-1.155a1 1 0 0 0-.136-.054l-.311 1.121.311-1.121-.33-.105-.895-.285a875 875 0 0 1-2.911-.936c-2.255-.729-4.852-1.582-6.279-2.092-.572-.205-1.191.126-1.383.738-.191.613.118 1.275.69 1.48 1.462.523 4.09 1.385 6.339 2.112a731 731 0 0 0 3.816 1.224l.263.084c1.846.879 3.282 1.313 4.358 1.327.554.007 1.102-.095 1.566-.399.495-.324.798-.815.917-1.366q.017-.077.029-.155c.802.272 1.61.358 2.332.333a6.3 6.3 0 0 0 1.923-.359c.274-.1.537-.224.768-.371.219-.14.473-.341.663-.624.279-.416.312-.878.258-1.244a3 3 0 0 0-.317-.914c-.268-.515-.697-1.091-1.185-1.689a90 90 0 0 0-2.044-2.363c-.632-.715-1.32-1.493-2.022-2.313-1.784-2.083-4.093-3.453-5.907-4.295a23 23 0 0 0-2.302-.92 18 18 0 0 0-.885-.269l-.054-.015-.016-.004-.005-.001-.003-.001-.248 1.139.248-1.139c-.588-.146-1.176.245-1.312.874s.228 1.257.815 1.404zm6.197 10.384c-1.37-1.379-3.446-2.609-5.427-3.564a40 40 0 0 0-4.239-1.742l-.064-.021-.015-.005-.003-.001" clip-rule="evenodd"/><path fill="#ffc29e" d="M350.981 275.5h-128.64a3.6 3.6 0 0 0-2.259.794 3.7 3.7 0 0 0-1.282 2.044l-17.395 74.547h-51.59S146.82 368.5 164.241 368.5h166.761a3.62 3.62 0 0 0 2.259-.796 3.7 3.7 0 0 0 1.283-2.043l19.978-85.629a3.73 3.73 0 0 0-.689-3.133 3.65 3.65 0 0 0-1.268-1.03 3.6 3.6 0 0 0-1.584-.369"/><path fill="#fff" fill-rule="evenodd" d="M232.47 275.5a4.96 4.96 0 0 0-3.033 1.011 4.8 4.8 0 0 0-1.744 2.633l-.001.005-22.04 88.951a1.13 1.13 0 0 0 .849 1.367 1.156 1.156 0 0 0 1.395-.833l22.039-88.947.001-.002c.139-.55.463-1.039.92-1.388a2.62 2.62 0 0 1 1.601-.534c.638.004 1.158-.5 1.162-1.125a1.144 1.144 0 0 0-1.149-1.138" clip-rule="evenodd"/><path fill="#fff" d="M283.619 332.5a9 9 0 1 1 0-18 9 9 0 0 1 0 18m36 1.243a8.76 8.76 0 0 0-8.088 5.408 8.76 8.76 0 0 0 1.901 9.542 8.755 8.755 0 0 0 13.472-1.329 8.757 8.757 0 0 0-7.285-13.621m0-2.243a10.998 10.998 0 0 1 10.788 13.145 11 11 0 0 1-8.642 8.643 10.998 10.998 0 0 1-13.146-10.788 11.014 11.014 0 0 1 11-11"/><path fill="#fe7624" d="M331.973 369.5h14.291c3.012 0 5.9-1.174 8.029-3.262a11.03 11.03 0 0 0 3.326-7.876V331.5h-37v26.862c0 2.954 1.196 5.787 3.325 7.876a11.47 11.47 0 0 0 8.029 3.262"/><path fill="#2e186a" fill-rule="evenodd" d="M456.619 370c0-.829-.674-1.5-1.506-1.5H2.124c-.831 0-1.505.671-1.505 1.5 0 .828.674 1.5 1.505 1.5h452.989c.832 0 1.506-.672 1.506-1.5" clip-rule="evenodd"/><path fill="#6a6af4" d="M117.617 204.474a16.4 16.4 0 0 0-1.938-7.95 16.1 16.1 0 0 0-5.522-5.974l-1.948-51.531s-.15-1.519-3.745-1.519c-4.495 0-3.775 7.218-3.775 3.537l1.456 47.017h-1.228a15.86 15.86 0 0 0-8.671 3.06 16.2 16.2 0 0 0-5.585 7.393 16.45 16.45 0 0 0-.66 9.29 16.3 16.3 0 0 0 4.483 8.128 15.93 15.93 0 0 0 8.15 4.29c3.071.591 6.246.257 9.132-.961a16.06 16.06 0 0 0 7.108-5.895 16.4 16.4 0 0 0 2.743-8.888z"/><path fill="#fff" d="M98.624 194.717h-.343c-4.282.211-7.605 4.316-7.415 9.169.183 4.723 3.618 8.411 7.747 8.411h.347c4.282-.211 7.602-4.317 7.415-9.169-.183-4.719-3.618-8.407-7.75-8.407zm0-2.214c5.371 0 9.758 4.631 9.985 10.54.235 6.054-4.043 11.198-9.537 11.457h-.459c-5.371 0-9.758-4.631-9.985-10.544-.235-6.05 4.047-11.198 9.541-11.456h.455z"/><g filter="url(#a)"><path fill="#fff" d="M221 8.5a8 8 0 0 1 8-8h266a8 8 0 0 1 8 8v303.108a8 8 0 0 1-8 8H229a8 8 0 0 1-8-8z"/><path stroke="#e6e6e6" d="M229 1h266a7.5 7.5 0 0 1 7.5 7.5v303.108a7.5 7.5 0 0 1-7.5 7.5H229a7.5 7.5 0 0 1-7.5-7.5V8.5A7.5 7.5 0 0 1 229 1Z"/><path fill="#000" d="m425.175 42.09 1.176-1.065c.434.546.952.938 1.624.938.574 0 .868-.336.868-.756 0-1.232-3.374-.77-3.374-3.248 0-1.246 1.05-2.184 2.52-2.184 1.078 0 2.058.518 2.562 1.204l-1.176 1.036c-.364-.448-.826-.812-1.372-.812-.56 0-.826.308-.826.672 0 1.204 3.374.784 3.374 3.22-.028 1.484-1.218 2.296-2.548 2.296-1.26 0-2.156-.504-2.828-1.302m-4.924-1.553V37.65h-1.316v-1.596h1.316V34.29h1.792v1.765h2.156v1.596h-2.156v2.883c0 .785.42 1.093 1.12 1.093.49 0 .812-.056 1.05-.154v1.554c-.35.154-.77.224-1.358.224-1.764 0-2.604-.995-2.604-2.717m-6.376 2.787c-1.414 0-2.38-.812-2.38-2.114 0-1.064.826-1.862 2.338-2.114l2.156-.364v-.182c0-.742-.56-1.218-1.372-1.218-.686 0-1.218.322-1.596.84l-1.302-.994c.63-.868 1.666-1.4 2.954-1.4 2.044 0 3.094 1.218 3.094 2.772v4.564h-1.778v-.686c-.448.546-1.288.896-2.114.896m-.616-2.198c0 .476.378.784.98.784.812 0 1.4-.378 1.75-.938v-.994l-1.68.28c-.742.126-1.05.434-1.05.868m-11.064-1.539c0-2.058 1.358-3.808 3.584-3.808.952 0 1.638.294 2.184.84v-4.004h1.792v10.5h-1.792v-.56c-.546.546-1.232.84-2.184.84-2.226 0-3.584-1.75-3.584-3.808m1.862 0c0 1.232.77 2.128 1.974 2.128.798 0 1.456-.336 1.932-.98v-2.296c-.476-.644-1.134-.98-1.932-.98-1.204 0-1.974.896-1.974 2.128m-4.372-4.76c-.63 0-1.162-.532-1.162-1.163 0-.63.532-1.162 1.162-1.162s1.148.532 1.148 1.162-.518 1.163-1.148 1.163m-.896 8.288v-7.056h1.778v7.056zm-9.691-3.528c0-2.058 1.358-3.808 3.584-3.808.952 0 1.638.294 2.184.84v-4.004h1.792v10.5h-1.792v-.56c-.546.546-1.232.84-2.184.84-2.226 0-3.584-1.75-3.584-3.808m1.862 0c0 1.232.77 2.128 1.974 2.128.798 0 1.456-.336 1.932-.98v-2.296c-.476-.644-1.134-.98-1.932-.98-1.204 0-1.974.896-1.974 2.128m-9.985 3.527v-7.056h1.778v.56a2.87 2.87 0 0 1 2.086-.84c1.526 0 2.744 1.05 2.744 3.136v4.2h-1.792v-4.13c0-.938-.532-1.526-1.4-1.526-.896 0-1.372.602-1.638 1.05v4.606zm-5.928.21c-1.414 0-2.38-.812-2.38-2.114 0-1.064.826-1.862 2.338-2.114l2.156-.364v-.182c0-.742-.56-1.218-1.372-1.218-.686 0-1.218.322-1.596.84l-1.302-.994c.63-.868 1.666-1.4 2.954-1.4 2.044 0 3.094 1.218 3.094 2.772v4.564h-1.778v-.686c-.448.546-1.288.896-2.114.896m-.616-2.198c0 .476.378.784.98.784.812 0 1.4-.378 1.75-.938v-.994l-1.68.28c-.742.126-1.05.434-1.05.868m-5.559.588c.7 0 1.26-.322 1.596-.812l1.386 1.064c-.658.868-1.694 1.428-2.982 1.428-2.436 0-3.892-1.75-3.892-3.808s1.456-3.808 3.892-3.808c1.288 0 2.324.56 2.982 1.428l-1.386 1.064c-.336-.49-.896-.812-1.624-.812-1.162 0-2.016.896-2.016 2.128 0 1.246.854 2.128 2.044 2.128m-14.176.379 1.176-1.065c.434.546.952.938 1.624.938.574 0 .868-.336.868-.756 0-1.232-3.374-.77-3.374-3.248 0-1.246 1.05-2.184 2.52-2.184 1.078 0 2.058.518 2.562 1.204l-1.176 1.036c-.364-.448-.826-.812-1.372-.812-.56 0-.826.308-.826.672 0 1.204 3.374.784 3.374 3.22-.028 1.484-1.218 2.296-2.548 2.296-1.26 0-2.156-.504-2.828-1.302m-.899-.126c-.658.882-1.75 1.428-3.08 1.428-2.506 0-3.92-1.75-3.92-3.808 0-2.086 1.316-3.808 3.626-3.808 1.96 0 3.248 1.33 3.248 3.178 0 .392-.056.756-.112.994h-4.942c.168 1.316.98 1.848 2.086 1.848.77 0 1.442-.336 1.82-.84zm-3.416-4.732c-.91 0-1.512.504-1.708 1.428h3.248c-.028-.714-.546-1.428-1.54-1.428m-12.772 2.353c0-2.058 1.358-3.808 3.584-3.808.952 0 1.638.294 2.184.84v-4.004h1.792v10.5h-1.792v-.56c-.546.546-1.232.84-2.184.84-2.226 0-3.584-1.75-3.584-3.808m1.862 0c0 1.232.77 2.128 1.974 2.128.798 0 1.456-.336 1.932-.98v-2.296c-.476-.644-1.134-.98-1.932-.98-1.204 0-1.974.896-1.974 2.128m-10.819 3.528v-7.056h1.778v.7c.462-.477 1.064-.84 1.862-.84.238 0 .448.042.616.098v1.75a3 3 0 0 0-.784-.099c-.868 0-1.428.477-1.694.925v4.521zm-1.611-1.149c-.658.882-1.75 1.428-3.08 1.428-2.506 0-3.92-1.75-3.92-3.808 0-2.086 1.316-3.808 3.626-3.808 1.96 0 3.248 1.33 3.248 3.178 0 .392-.056.756-.112.994h-4.942c.168 1.316.98 1.848 2.086 1.848.77 0 1.442-.336 1.82-.84zm-3.416-4.732c-.91 0-1.512.504-1.708 1.428h3.248c-.028-.714-.546-1.428-1.54-1.428m-10.067 4.859 1.176-1.065c.434.546.952.938 1.624.938.574 0 .868-.336.868-.756 0-1.232-3.374-.77-3.374-3.248 0-1.246 1.05-2.184 2.52-2.184 1.078 0 2.058.518 2.562 1.204l-1.176 1.036c-.364-.448-.826-.812-1.372-.812-.56 0-.826.308-.826.672 0 1.204 3.374.784 3.374 3.22-.028 1.484-1.218 2.296-2.548 2.296-1.26 0-2.156-.504-2.828-1.302m-4.637-6.314c2.296 0 3.864 1.694 3.864 3.808s-1.568 3.808-3.864 3.808-3.864-1.694-3.864-3.808 1.568-3.808 3.864-3.808m.028 5.936c1.134 0 1.988-.91 1.988-2.128 0-1.232-.854-2.128-1.988-2.128-1.176 0-2.044.896-2.044 2.128s.868 2.128 2.044 2.128m-12.644 4.844v-10.5h1.778v.574c.546-.546 1.232-.854 2.198-.854 2.24 0 3.584 1.75 3.584 3.808s-1.344 3.808-3.584 3.808c-.966 0-1.652-.308-2.198-.854v4.018zm3.724-9.1c-.826 0-1.498.364-1.946 1.022v2.212c.476.672 1.134 1.022 1.946 1.022 1.204 0 1.988-.896 1.988-2.128s-.784-2.128-1.988-2.128m-9.21-1.68c2.296 0 3.864 1.694 3.864 3.808s-1.568 3.808-3.864 3.808-3.864-1.694-3.864-3.808 1.568-3.808 3.864-3.808m.028 5.936c1.134 0 1.988-.91 1.988-2.128 0-1.232-.854-2.128-1.988-2.128-1.176 0-2.044.896-2.044 2.128s.868 2.128 2.044 2.128m-8.775 1.401v-7.056h1.778v.7c.462-.477 1.064-.84 1.862-.84.238 0 .448.042.616.098v1.75a3 3 0 0 0-.784-.099c-.868 0-1.428.477-1.694.925v4.521zm-9.187 3.443v-10.5h1.778v.574c.546-.546 1.232-.854 2.198-.854 2.24 0 3.584 1.75 3.584 3.808s-1.344 3.808-3.584 3.808c-.966 0-1.652-.308-2.198-.854v4.018zm3.724-9.1c-.826 0-1.498.364-1.946 1.022v2.212c.476.672 1.134 1.022 1.946 1.022 1.204 0 1.988-.896 1.988-2.128s-.784-2.128-1.988-2.128m-14.512 4.635 1.176-1.065c.434.546.952.938 1.624.938.574 0 .868-.336.868-.756 0-1.232-3.374-.77-3.374-3.248 0-1.246 1.05-2.184 2.52-2.184 1.078 0 2.058.518 2.562 1.204l-1.176 1.036c-.364-.448-.826-.812-1.372-.812-.56 0-.826.308-.826.672 0 1.204 3.374.784 3.374 3.22-.028 1.484-1.218 2.296-2.548 2.296-1.26 0-2.156-.504-2.828-1.302m-3.089-2.029v-4.005h1.792v3.92c0 2.114-1.232 3.416-3.304 3.416s-3.29-1.302-3.29-3.416v-3.92h1.792v4.004c0 1.022.532 1.652 1.512 1.652.966 0 1.498-.63 1.498-1.652m-10.134-4.284c2.296 0 3.864 1.694 3.864 3.808s-1.568 3.808-3.864 3.808-3.864-1.694-3.864-3.808 1.568-3.808 3.864-3.808m.028 5.936c1.134 0 1.988-.91 1.988-2.128 0-1.232-.854-2.128-1.988-2.128-1.176 0-2.044.896-2.044 2.128s.868 2.128 2.044 2.128M237 36.055h1.904l1.834 5.04 1.82-5.04h1.918l-2.576 7.056h-2.338zm242.559-15.519V17.65h-1.316v-1.596h1.316V14.29h1.792v1.764h2.156v1.596h-2.156v2.884c0 .785.42 1.093 1.12 1.093.49 0 .812-.056 1.05-.154v1.553c-.35.154-.77.224-1.358.224-1.764 0-2.604-.994-2.604-2.716m-9.075 2.577v-7.056h1.778v.56a2.87 2.87 0 0 1 2.086-.84c1.526 0 2.744 1.05 2.744 3.136v4.2H475.3v-4.13c0-.938-.532-1.526-1.4-1.526-.896 0-1.372.602-1.638 1.05v4.606zm-1.611-1.148c-.658.882-1.75 1.428-3.08 1.428-2.506 0-3.92-1.75-3.92-3.808 0-2.086 1.316-3.808 3.626-3.808 1.96 0 3.248 1.33 3.248 3.178 0 .392-.056.756-.112.994h-4.942c.168 1.316.98 1.848 2.086 1.848.77 0 1.442-.336 1.82-.84zm-3.416-4.732c-.91 0-1.512.504-1.708 1.428h3.248c-.028-.714-.546-1.428-1.54-1.428m-6.094-2.407c-.63 0-1.162-.533-1.162-1.162 0-.63.532-1.163 1.162-1.163s1.148.532 1.148 1.162-.518 1.162-1.148 1.162m-.896 8.288v-7.056h1.778v7.055zm-5.928.21c-1.414 0-2.38-.812-2.38-2.114 0-1.064.826-1.862 2.338-2.114l2.156-.364v-.182c0-.742-.56-1.218-1.372-1.218-.686 0-1.218.322-1.596.84l-1.302-.994c.63-.868 1.666-1.4 2.954-1.4 2.044 0 3.094 1.218 3.094 2.772v4.564h-1.778v-.686c-.448.546-1.288.896-2.114.896m-.616-2.198c0 .476.378.784.98.784.812 0 1.4-.378 1.75-.938v-.994l-1.68.28c-.742.126-1.05.434-1.05.868m-6.718 1.989v-7.056h1.778v.7c.462-.477 1.064-.84 1.862-.84.238 0 .448.041.616.098v1.75a3 3 0 0 0-.784-.098c-.868 0-1.428.476-1.694.924v4.522zm-5.687 0v-7.056h1.778v.7c.462-.477 1.064-.84 1.862-.84.238 0 .448.041.616.098v1.75a3 3 0 0 0-.784-.098c-.868 0-1.428.476-1.694.924v4.522zm-3.76-3.052v-4.005h1.792v3.92c0 2.114-1.232 3.416-3.304 3.416s-3.29-1.302-3.29-3.416v-3.92h1.792v4.004c0 1.022.532 1.652 1.512 1.652.966 0 1.498-.63 1.498-1.652m-10.134-4.284c2.296 0 3.864 1.694 3.864 3.808s-1.568 3.808-3.864 3.808-3.864-1.694-3.864-3.808 1.568-3.808 3.864-3.808m.028 5.936c1.134 0 1.988-.91 1.988-2.128 0-1.232-.854-2.128-1.988-2.128-1.176 0-2.044.896-2.044 2.128s.868 2.128 2.044 2.128m-12.644 4.844v-10.5h1.778v.574c.546-.546 1.232-.854 2.198-.854 2.24 0 3.584 1.75 3.584 3.808s-1.344 3.808-3.584 3.808c-.966 0-1.652-.308-2.198-.854v4.018zm3.724-9.1c-.826 0-1.498.364-1.946 1.022v2.212c.476.672 1.134 1.022 1.946 1.022 1.204 0 1.988-.896 1.988-2.128s-.784-2.128-1.988-2.128m-16.125 5.656v-7.056h1.778v.56a2.87 2.87 0 0 1 2.086-.84c1.526 0 2.744 1.05 2.744 3.136v4.2h-1.792v-4.13c0-.938-.532-1.526-1.4-1.526-.896 0-1.372.602-1.638 1.05v4.606zm-5.485-7.336c2.296 0 3.864 1.694 3.864 3.808s-1.568 3.808-3.864 3.808-3.864-1.694-3.864-3.808 1.568-3.808 3.864-3.808m.028 5.936c1.134 0 1.988-.91 1.988-2.128 0-1.232-.854-2.128-1.988-2.128-1.176 0-2.044.896-2.044 2.128s.868 2.128 2.044 2.128m-6.403-6.887c-.63 0-1.162-.533-1.162-1.162 0-.63.532-1.163 1.162-1.163s1.148.532 1.148 1.162-.518 1.162-1.148 1.162m-.896 8.288v-7.056h1.778v7.055zm-5.54-2.575V17.65h-1.316v-1.596h1.316V14.29h1.792v1.764h2.156v1.596h-2.156v2.884c0 .785.42 1.093 1.12 1.093.49 0 .812-.056 1.05-.154v1.553c-.35.154-.77.224-1.358.224-1.764 0-2.604-.994-2.604-2.716m-6.376 2.787c-1.414 0-2.38-.812-2.38-2.114 0-1.064.826-1.862 2.338-2.114l2.156-.364v-.182c0-.742-.56-1.218-1.372-1.218-.686 0-1.218.322-1.596.84l-1.302-.994c.63-.868 1.666-1.4 2.954-1.4 2.044 0 3.094 1.218 3.094 2.772v4.564h-1.778v-.686c-.448.546-1.288.896-2.114.896m-.616-2.198c0 .476.378.784.98.784.812 0 1.4-.378 1.75-.938v-.994l-1.68.28c-.742.126-1.05.434-1.05.868m-14.237 1.988v-7.056h1.778v.532c.476-.462 1.078-.812 1.946-.812.896 0 1.68.392 2.142 1.148.504-.616 1.176-1.148 2.366-1.148 1.456 0 2.604 1.008 2.604 2.996v4.34h-1.792v-4.27c0-.854-.462-1.386-1.26-1.386-.77 0-1.19.532-1.47 1.008.014.098.014.196.014.308v4.34h-1.792v-4.27c0-.854-.462-1.386-1.26-1.386-.812 0-1.232.602-1.498 1.05v4.606zm-5.687.001v-7.056h1.778v.7c.462-.477 1.064-.84 1.862-.84.238 0 .448.041.616.098v1.75a3 3 0 0 0-.784-.098c-.868 0-1.428.476-1.694.924v4.522zm-5.486-7.337c2.296 0 3.864 1.694 3.864 3.808s-1.568 3.808-3.864 3.808-3.864-1.694-3.864-3.808 1.568-3.808 3.864-3.808m.028 5.936c1.134 0 1.988-.91 1.988-2.128 0-1.232-.854-2.128-1.988-2.128-1.176 0-2.044.896-2.044 2.128s.868 2.128 2.044 2.128m-9.602-5.655h1.316v-.742c0-1.498.994-2.702 2.758-2.702.644 0 1.19.154 1.638.392l-.756 1.484c-.21-.154-.49-.28-.854-.28-.602 0-.994.42-.994 1.064v.784h2.156v1.596h-2.156v5.46h-1.792v-5.46h-1.316zm-4.517 5.907c-.658.882-1.75 1.428-3.08 1.428-2.506 0-3.92-1.75-3.92-3.808 0-2.086 1.316-3.808 3.626-3.808 1.96 0 3.248 1.33 3.248 3.178 0 .392-.056.756-.112.994h-4.942c.168 1.316.98 1.848 2.086 1.848.77 0 1.442-.336 1.82-.84zm-3.416-4.732c-.91 0-1.512.504-1.708 1.428h3.248c-.028-.714-.546-1.428-1.54-1.428m-12.771 2.353c0-2.058 1.358-3.808 3.584-3.808.952 0 1.638.294 2.184.84v-4.004h1.792v10.5h-1.792v-.56c-.546.546-1.232.84-2.184.84-2.226 0-3.584-1.75-3.584-3.808m1.862 0c0 1.232.77 2.128 1.974 2.128.798 0 1.456-.336 1.932-.98v-2.296c-.476-.644-1.134-.98-1.932-.98-1.204 0-1.974.896-1.974 2.128m-12.146 2.506 1.176-1.065c.434.546.952.938 1.624.938.574 0 .868-.336.868-.756 0-1.232-3.374-.77-3.374-3.248 0-1.246 1.05-2.184 2.52-2.184 1.078 0 2.058.518 2.562 1.204l-1.176 1.036c-.364-.448-.826-.812-1.372-.812-.56 0-.826.308-.826.672 0 1.204 3.374.784 3.374 3.22-.028 1.484-1.218 2.296-2.548 2.296-1.26 0-2.156-.504-2.828-1.302m-.9-.126c-.658.882-1.75 1.428-3.08 1.428-2.506 0-3.92-1.75-3.92-3.808 0-2.086 1.316-3.808 3.626-3.808 1.96 0 3.248 1.33 3.248 3.178 0 .392-.056.756-.112.994h-4.942c.168 1.316.98 1.848 2.086 1.848.77 0 1.442-.336 1.82-.84zm-3.416-4.732c-.91 0-1.512.504-1.708 1.428h3.248c-.028-.714-.546-1.428-1.54-1.428m-8.467 5.881v-7.056h1.778v.7c.462-.477 1.064-.84 1.862-.84.238 0 .448.041.616.098v1.75a3 3 0 0 0-.784-.098c-.868 0-1.428.476-1.694.924v4.522zm-5.54-2.576V17.65h-1.316v-1.596h1.316V14.29h1.792v1.764h2.156v1.596h-2.156v2.884c0 .785.42 1.093 1.12 1.093.49 0 .812-.056 1.05-.154v1.553c-.35.154-.77.224-1.358.224-1.764 0-2.604-.994-2.604-2.716m-9.075 2.577v-7.056h1.778v.56a2.87 2.87 0 0 1 2.086-.84c1.526 0 2.744 1.05 2.744 3.136v4.2h-1.792v-4.13c0-.938-.532-1.526-1.4-1.526-.896 0-1.372.602-1.638 1.05v4.606zm-1.611-1.148c-.658.882-1.75 1.428-3.08 1.428-2.506 0-3.92-1.75-3.92-3.808 0-2.086 1.316-3.808 3.626-3.808 1.96 0 3.248 1.33 3.248 3.178 0 .392-.056.756-.112.994h-4.942c.168 1.316.98 1.848 2.086 1.848.77 0 1.442-.336 1.82-.84zm-3.416-4.732c-.91 0-1.512.504-1.708 1.428h3.248c-.028-.714-.546-1.428-1.54-1.428m-7.116 4.48c.7 0 1.26-.322 1.596-.812l1.386 1.064c-.658.868-1.694 1.428-2.982 1.428-2.436 0-3.892-1.75-3.892-3.808s1.456-3.808 3.892-3.808c1.288 0 2.324.56 2.982 1.428l-1.386 1.064c-.336-.49-.896-.812-1.624-.812-1.162 0-2.016.896-2.016 2.128 0 1.246.854 2.128 2.044 2.128m-14.176.379 1.176-1.065c.434.546.952.938 1.624.938.574 0 .868-.336.868-.756 0-1.232-3.374-.77-3.374-3.248 0-1.246 1.05-2.184 2.52-2.184 1.078 0 2.058.518 2.562 1.204l-1.176 1.036c-.364-.448-.826-.812-1.372-.812-.56 0-.826.308-.826.672 0 1.204 3.374.784 3.374 3.22-.028 1.484-1.218 2.296-2.548 2.296-1.26 0-2.156-.504-2.828-1.302m-.9-.126c-.658.882-1.75 1.428-3.08 1.428-2.506 0-3.92-1.75-3.92-3.808 0-2.086 1.316-3.808 3.626-3.808 1.96 0 3.248 1.33 3.248 3.178 0 .392-.056.756-.112.994h-4.942c.168 1.316.98 1.848 2.086 1.848.77 0 1.442-.336 1.82-.84zm-3.416-4.732c-.91 0-1.512.504-1.708 1.428h3.248c-.028-.714-.546-1.428-1.54-1.428m-8.56 4.299c1.12 0 2.002-.547 2.562-1.344l1.568 1.204c-.896 1.218-2.352 2.002-4.13 2.002-3.094 0-5.208-2.38-5.208-5.18s2.114-5.18 5.208-5.18c1.778 0 3.234.797 4.13 1.988l-1.568 1.218c-.56-.798-1.442-1.344-2.562-1.344-1.848 0-3.164 1.441-3.164 3.318 0 1.875 1.316 3.317 3.164 3.317m12.401 81.395c-.376.504-.976.824-1.728.824-1.36 0-2.2-1-2.2-2.176 0-1.224.784-2.177 2.032-2.177 1.096 0 1.808.769 1.808 1.761 0 .16-.024.312-.048.424h-3.096c.024.968.64 1.552 1.504 1.552.52 0 .96-.24 1.224-.6zm-1.912-2.953c-.664 0-1.128.393-1.272 1.089h2.416c-.024-.592-.432-1.088-1.144-1.088m-4.61 3.615v-4.032h.68v.504c.296-.352.664-.584 1.176-.584.128 0 .248.016.344.048v.664a1.5 1.5 0 0 0-.4-.048c-.528 0-.872.272-1.12.68v2.768zm-3.505-4.032h.76v-.496c0-.856.552-1.472 1.432-1.472.368 0 .664.104.888.232l-.304.568a.93.93 0 0 0-.568-.184c-.456 0-.76.312-.76.84v.512h1.4v.616h-1.4v3.416h-.688v-3.416h-.76zm-3.257 0h.76v-.496c0-.856.552-1.472 1.432-1.472.368 0 .664.104.888.232l-.304.568a.93.93 0 0 0-.568-.184c-.456 0-.76.312-.76.84v.512h1.4v.616h-1.4v3.416h-.688v-3.416h-.76zm-2.687-.159c1.296 0 2.184 1 2.184 2.176s-.888 2.176-2.184 2.176c-1.304 0-2.184-1-2.184-2.176s.88-2.177 2.184-2.177m.008 3.712c.84 0 1.456-.704 1.456-1.536 0-.84-.616-1.536-1.456-1.536-.864 0-1.48.696-1.48 1.536s.616 1.536 1.48 1.536m237.744-14.183c-.376.503-.976.823-1.728.823-1.36 0-2.2-1-2.2-2.175 0-1.225.784-2.177 2.032-2.177 1.096 0 1.808.769 1.808 1.76 0 .16-.024.313-.048.424h-3.096c.024.969.64 1.553 1.504 1.553.52 0 .96-.24 1.224-.6zm-1.912-2.953c-.664 0-1.128.392-1.272 1.088h2.416c-.024-.591-.432-1.087-1.144-1.087m-4.609 3.615v-4.032h.68v.504c.296-.352.664-.584 1.176-.584.128 0 .248.016.344.048v.664a1.5 1.5 0 0 0-.4-.048c-.528 0-.872.272-1.12.68v2.768zm-3.128-1.352v-2.064h-.76v-.616h.76v-1.008h.688v1.008h1.4v.616h-1.4v2.064c0 .632.32.808.808.808.264 0 .448-.032.6-.096v.608c-.192.08-.408.112-.696.112-.896 0-1.4-.448-1.4-1.432m-3.447-2.839c1.296 0 2.184 1 2.184 2.175 0 1.177-.888 2.177-2.184 2.177-1.304 0-2.184-1-2.184-2.177 0-1.175.88-2.175 2.184-2.175m.008 3.712c.84 0 1.456-.705 1.456-1.537 0-.84-.616-1.535-1.456-1.535-.864 0-1.48.695-1.48 1.535s.616 1.537 1.48 1.537m-6.667-3.553h.736l1.288 3.32 1.288-3.32h.736l-1.576 4.032h-.896zm-4.727 4.032v-4.032h.68v.504c.296-.352.664-.584 1.176-.584.128 0 .248.016.344.048v.664a1.5 1.5 0 0 0-.4-.048c-.528 0-.872.272-1.12.68v2.768zm-1.065-.663c-.376.503-.976.823-1.728.823-1.36 0-2.2-1-2.2-2.175 0-1.225.784-2.177 2.032-2.177 1.096 0 1.808.769 1.808 1.76 0 .16-.024.313-.048.424h-3.096c.024.969.64 1.553 1.504 1.553.52 0 .96-.24 1.224-.6zm-1.912-2.953c-.664 0-1.128.392-1.272 1.088h2.416c-.024-.591-.432-1.087-1.144-1.087m-6.402 4.344c0-.409.2-.737.6-1.017a.73.73 0 0 1-.28-.576c0-.32.168-.584.48-.784a1.39 1.39 0 0 1-.56-1.12c0-.776.608-1.431 1.568-1.431.296 0 .56.063.776.167h1.496v.592h-.872c.112.2.168.432.168.672 0 .769-.6 1.424-1.568 1.424-.2 0-.392-.031-.56-.08-.168.12-.264.264-.264.416 0 .169.088.289.336.289h1.152c1.064 0 1.56.52 1.56 1.24 0 .847-.848 1.48-2.056 1.48-1.192 0-1.976-.464-1.976-1.272m1.816-2.609c.584 0 .92-.4.92-.887 0-.496-.336-.896-.92-.896-.6 0-.928.4-.928.895 0 .496.328.888.928.888m-1.152 2.529c0 .487.504.783 1.304.783.848 0 1.384-.336 1.384-.864 0-.383-.216-.687-.936-.687h-1.304c-.28.207-.448.447-.448.767m-3.596-.535c-.792 0-1.328-.44-1.328-1.129 0-.608.464-1.04 1.32-1.183l1.36-.225v-.28c0-.56-.4-.88-.976-.88-.464 0-.84.216-1.088.56l-.512-.392c.352-.48.92-.776 1.624-.776 1.024 0 1.632.6 1.632 1.489v2.704h-.68v-.512c-.304.392-.832.624-1.352.624m-.64-1.153c0 .344.28.593.752.593a1.41 1.41 0 0 0 1.24-.689v-.791l-1.192.2c-.552.096-.8.344-.8.688m-3.583-.313v-2.064h-.76v-.616h.76v-1.008h.688v1.008h1.4v.616h-1.4v2.064c0 .632.32.808.808.808.264 0 .448-.032.6-.096v.608c-.192.08-.408.112-.696.112-.896 0-1.4-.448-1.4-1.432m-3.599 1.352v-4.032h.68v.504c.296-.352.664-.584 1.176-.584.128 0 .248.016.344.048v.664a1.5 1.5 0 0 0-.4-.048c-.528 0-.872.272-1.12.68v2.768zm-3.397.113c-.792 0-1.328-.44-1.328-1.129 0-.608.464-1.04 1.32-1.183l1.36-.225v-.28c0-.56-.4-.88-.976-.88-.464 0-.84.216-1.088.56l-.512-.392c.352-.48.92-.776 1.624-.776 1.024 0 1.632.6 1.632 1.489v2.704h-.68v-.512c-.304.392-.832.624-1.352.624m-.64-1.153c0 .344.28.593.752.593a1.41 1.41 0 0 0 1.24-.689v-.791l-1.192.2c-.552.096-.8.344-.8.688m-5.666 3.008v-6h.68v.48a1.83 1.83 0 0 1 1.432-.64c1.264 0 2.072 1 2.072 2.175 0 1.177-.808 2.177-2.072 2.177a1.83 1.83 0 0 1-1.432-.64v2.447zm2.032-5.52a1.57 1.57 0 0 0-1.352.751v1.569c.312.488.8.752 1.352.752.856 0 1.44-.68 1.44-1.537 0-.855-.584-1.535-1.44-1.535m-8.556 3.551v-.616l2.376-2.8h-2.32v-.616h3.152v.616l-2.384 2.8h2.44v.616zm-.705-.663c-.376.503-.976.823-1.728.823-1.36 0-2.2-1-2.2-2.175 0-1.225.784-2.177 2.032-2.177 1.096 0 1.808.769 1.808 1.76 0 .16-.024.313-.048.424h-3.096c.024.969.64 1.553 1.504 1.553.52 0 .96-.24 1.224-.6zm-1.912-2.953c-.664 0-1.128.392-1.272 1.088h2.416c-.024-.591-.432-1.087-1.144-1.087m-4.721 2.263v-2.064h-.76v-.616h.76v-1.008h.688v1.008h1.4v.616h-1.4v2.064c0 .632.32.808.808.808.264 0 .448-.032.6-.096v.608c-.192.08-.408.112-.696.112-.896 0-1.4-.448-1.4-1.432m-2.005-3.728a.48.48 0 0 1-.48-.48.48.48 0 0 1 .48-.472c.264 0 .472.216.472.472 0 .264-.208.48-.472.48m-.344 5.08v-4.032h.68v4.032zm-3.397.113c-.792 0-1.328-.44-1.328-1.129 0-.608.464-1.04 1.32-1.183l1.36-.225v-.28c0-.56-.4-.88-.976-.88-.464 0-.84.216-1.088.56l-.512-.392c.352-.48.92-.776 1.624-.776 1.024 0 1.632.6 1.632 1.489v2.704h-.68v-.512c-.304.392-.832.624-1.352.624m-.64-1.153c0 .344.28.593.752.593a1.41 1.41 0 0 0 1.24-.689v-.791l-1.192.2c-.552.096-.8.344-.8.688m-5.424 1.039v-6h.68v2.424c.328-.36.744-.616 1.344-.616.904 0 1.576.608 1.576 1.752v2.44h-.68v-2.416c0-.72-.4-1.136-1.032-1.136-.592 0-.952.344-1.208.76v2.792zm-2.021-1.727v-2.305h.68v2.28c0 1.208-.696 1.912-1.792 1.912-1.088 0-1.784-.704-1.784-1.912v-2.28h.68v2.304c0 .792.424 1.248 1.112 1.248.672 0 1.104-.456 1.104-1.248m-6.085-2.463c1.296 0 2.184 1 2.184 2.175 0 1.177-.888 2.177-2.184 2.177-1.304 0-2.184-1-2.184-2.177 0-1.175.88-2.175 2.184-2.175m.008 3.712c.84 0 1.456-.705 1.456-1.537 0-.84-.616-1.535-1.456-1.535-.864 0-1.48.695-1.48 1.535s.616 1.537 1.48 1.537m-5.78-.072.48-.409c.28.353.616.553 1.024.553.448 0 .704-.273.704-.625 0-.904-2.016-.584-2.016-2.008 0-.632.536-1.151 1.312-1.151.576 0 1.072.272 1.352.663l-.472.4c-.216-.303-.52-.496-.872-.496-.432 0-.664.257-.664.569 0 .904 2.024.615 2.024 1.992-.008.751-.608 1.224-1.36 1.224-.64 0-1.144-.257-1.512-.713m-5.703.001.48-.409c.28.353.616.553 1.024.553.448 0 .704-.273.704-.625 0-.904-2.016-.584-2.016-2.008 0-.632.536-1.151 1.312-1.151.576 0 1.072.272 1.352.663l-.472.4c-.216-.303-.52-.496-.872-.496-.432 0-.664.257-.664.569 0 .904 2.024.615 2.024 1.992-.008.751-.608 1.224-1.36 1.224-.64 0-1.144-.257-1.512-.713m-1.573-1.175v-2.305h.68v2.28c0 1.208-.696 1.912-1.792 1.912-1.088 0-1.784-.704-1.784-1.912v-2.28h.68v2.304c0 .792.424 1.248 1.112 1.248.672 0 1.104-.456 1.104-1.248m-6.085-2.463c1.296 0 2.184 1 2.184 2.175 0 1.177-.888 2.177-2.184 2.177-1.304 0-2.184-1-2.184-2.177 0-1.175.88-2.175 2.184-2.175m.008 3.712c.84 0 1.456-.705 1.456-1.537 0-.84-.616-1.535-1.456-1.535-.864 0-1.48.695-1.48 1.535s.616 1.537 1.48 1.537m-6.667-3.553h.736l1.288 3.32 1.288-3.32h.736l-1.576 4.032h-.896zm-3.321-1.048a.48.48 0 0 1-.48-.48.48.48 0 0 1 .48-.472c.264 0 .472.216.472.472 0 .264-.208.48-.472.48m-.344 5.08v-4.032h.68v4.032zm-2.02-1.727v-2.305h.68v2.28c0 1.208-.696 1.912-1.792 1.912-1.088 0-1.784-.704-1.784-1.912v-2.28h.68v2.304c0 .792.424 1.248 1.112 1.248.672 0 1.104-.456 1.104-1.248m-8.433-.287c0-1.177.808-2.177 2.072-2.177.6 0 1.072.233 1.432.648v-.488h.68v6h-.68V89.1c-.36.416-.832.648-1.432.648-1.264 0-2.072-1-2.072-2.175m.712 0c0 .855.584 1.535 1.432 1.535.568 0 1.056-.272 1.36-.751v-1.569a1.57 1.57 0 0 0-1.36-.752c-.848 0-1.432.68-1.432 1.537m-5.841-2.658-.936-1.328h.76l.832 1.328zm-.08 4.784c-.792 0-1.328-.44-1.328-1.128 0-.608.464-1.04 1.32-1.184l1.36-.224v-.28c0-.56-.4-.88-.976-.88-.464 0-.84.216-1.088.56l-.512-.392c.352-.48.92-.776 1.624-.776 1.024 0 1.632.6 1.632 1.488v2.704h-.68v-.512c-.304.392-.832.624-1.352.624m-.64-1.152c0 .344.28.592.752.592a1.41 1.41 0 0 0 1.24-.688v-.792l-1.192.2c-.552.096-.8.344-.8.688m-6.598 1.04h-.792l1.488-2.088-1.376-1.944h.776l1.048 1.488 1.048-1.488h.784l-1.384 1.944 1.488 2.088h-.776l-1.152-1.632zm-2.214-1.727v-2.305h.68v2.28c0 1.208-.696 1.912-1.792 1.912-1.088 0-1.784-.704-1.784-1.912v-2.28h.68v2.304c0 .792.424 1.248 1.112 1.248.672 0 1.104-.456 1.104-1.248m-3.81 1.065c-.376.503-.976.823-1.728.823-1.36 0-2.2-1-2.2-2.175 0-1.225.784-2.177 2.032-2.177 1.096 0 1.808.769 1.808 1.76 0 .16-.024.313-.048.424h-3.096c.024.969.64 1.553 1.504 1.553.52 0 .96-.24 1.224-.6zm-1.912-2.953c-.664 0-1.128.392-1.272 1.088h2.416c-.024-.591-.432-1.087-1.144-1.087m-4.136 3.136c.496 0 .904-.24 1.152-.593l.536.409c-.376.503-.96.823-1.696.823-1.336 0-2.192-1-2.192-2.175 0-1.177.856-2.177 2.192-2.177.728 0 1.32.329 1.696.825l-.536.407a1.4 1.4 0 0 0-1.16-.591c-.864 0-1.48.68-1.48 1.535 0 .865.616 1.537 1.488 1.537m-8.379.479v-.616l2.376-2.8h-2.32v-.616h3.152v.616l-2.384 2.8h2.44v.616zm-.706-.663c-.376.503-.976.823-1.728.823-1.36 0-2.2-1-2.2-2.175 0-1.225.784-2.177 2.032-2.177 1.096 0 1.808.769 1.808 1.76 0 .16-.024.313-.048.424h-3.096c.024.969.64 1.553 1.504 1.553.52 0 .96-.24 1.224-.6zm-1.912-2.953c-.664 0-1.128.392-1.272 1.088h2.416c-.024-.591-.432-1.087-1.144-1.087m-5.603 3.064.48-.409c.28.353.616.553 1.024.553.448 0 .704-.273.704-.625 0-.904-2.016-.584-2.016-2.008 0-.632.536-1.151 1.312-1.151.576 0 1.072.272 1.352.663l-.472.4c-.216-.303-.52-.496-.872-.496-.432 0-.664.257-.664.569 0 .904 2.024.615 2.024 1.992-.008.751-.608 1.224-1.36 1.224-.64 0-1.144-.257-1.512-.713m-3.516.001.48-.409c.28.353.616.553 1.024.553.448 0 .704-.273.704-.625 0-.904-2.016-.584-2.016-2.008 0-.632.536-1.151 1.312-1.151.576 0 1.072.272 1.352.663l-.472.4c-.216-.303-.52-.496-.872-.496-.432 0-.664.257-.664.569 0 .904 2.024.615 2.024 1.992-.008.751-.608 1.224-1.36 1.224-.64 0-1.144-.257-1.512-.713m-1.31-4.528a.48.48 0 0 1-.48-.48.48.48 0 0 1 .48-.472c.264 0 .472.216.472.472 0 .264-.208.48-.472.48m-.344 5.08v-4.032h.68v4.032zm-3.979-.551.48-.409c.28.353.616.553 1.024.553.448 0 .704-.273.704-.625 0-.904-2.016-.584-2.016-2.008 0-.632.536-1.151 1.312-1.151.576 0 1.072.272 1.352.663l-.472.4c-.216-.303-.52-.496-.872-.496-.432 0-.664.257-.664.569 0 .904 2.024.615 2.024 1.992-.008.751-.608 1.224-1.36 1.224-.64 0-1.144-.257-1.512-.713m-1.31-4.528a.48.48 0 0 1-.48-.48.48.48 0 0 1 .48-.472c.264 0 .472.216.472.472 0 .264-.208.48-.472.48m-.344 5.08v-4.032h.68v4.032zm-3.277-4.191c1.296 0 2.184 1 2.184 2.175 0 1.177-.888 2.177-2.184 2.177-1.304 0-2.184-1-2.184-2.177 0-1.175.88-2.175 2.184-2.175m.008 3.712c.84 0 1.456-.705 1.456-1.537 0-.84-.616-1.535-1.456-1.535-.864 0-1.48.695-1.48 1.535s.616 1.537 1.48 1.537m-6.817.479v-6h.68v2.424c.328-.36.744-.616 1.344-.616.904 0 1.576.608 1.576 1.752v2.44h-.68v-2.416c0-.72-.4-1.136-1.032-1.136-.592 0-.952.344-1.208.76v2.792zm-3.422-.544c.752 0 1.368-.368 1.744-.912l.6.464c-.512.696-1.336 1.152-2.344 1.152-1.752 0-2.944-1.36-2.944-2.96s1.192-2.96 2.944-2.96c1.008 0 1.832.464 2.344 1.152l-.6.464a2.09 2.09 0 0 0-1.744-.912c-1.264 0-2.168 1.008-2.168 2.256s.904 2.256 2.168 2.256m-6.577.632a.51.51 0 0 1-.52-.504c0-.28.232-.512.52-.512a.51.51 0 0 1 .512.512c0 .28-.224.504-.512.504m-1.386-.751c-.376.503-.976.823-1.728.823-1.36 0-2.2-1-2.2-2.175 0-1.225.784-2.177 2.032-2.177 1.096 0 1.808.769 1.808 1.76 0 .16-.024.313-.048.424h-3.096c.024.969.64 1.553 1.504 1.553.52 0 .96-.24 1.224-.6zm-1.912-2.953c-.664 0-1.128.392-1.272 1.088h2.416c-.024-.591-.432-1.087-1.144-1.087m-5.604 3.064.48-.409c.28.353.616.553 1.024.553.448 0 .704-.273.704-.625 0-.904-2.016-.584-2.016-2.008 0-.632.536-1.151 1.312-1.151.576 0 1.072.272 1.352.663l-.472.4c-.216-.303-.52-.496-.872-.496-.432 0-.664.257-.664.569 0 .904 2.024.615 2.024 1.992-.008.751-.608 1.224-1.36 1.224-.64 0-1.144-.257-1.512-.713m-1.31-4.528a.48.48 0 0 1-.48-.48.48.48 0 0 1 .48-.472c.264 0 .472.216.472.472 0 .264-.208.48-.472.48m-.344 5.08v-4.032h.68v4.032zm-3.179 0v-4.032h.68v.504c.296-.352.664-.584 1.176-.584.128 0 .248.016.344.048v.664a1.5 1.5 0 0 0-.4-.048c-.528 0-.872.272-1.12.68v2.768zm-5.281 1.969v-6h.68v.48a1.83 1.83 0 0 1 1.432-.64c1.264 0 2.072 1 2.072 2.175 0 1.177-.808 2.177-2.072 2.177a1.83 1.83 0 0 1-1.432-.64v2.447zm2.032-5.52a1.57 1.57 0 0 0-1.352.751v1.569c.312.488.8.752 1.352.752.856 0 1.44-.68 1.44-1.537 0-.855-.584-1.535-1.44-1.535m-3.097 2.888c-.376.503-.976.823-1.728.823-1.36 0-2.2-1-2.2-2.175 0-1.225.784-2.177 2.032-2.177 1.096 0 1.808.769 1.808 1.76 0 .16-.024.313-.048.424h-3.096c.024.969.64 1.553 1.504 1.553.52 0 .96-.24 1.224-.6zm-1.912-2.953c-.664 0-1.128.392-1.272 1.088h2.416c-.024-.591-.432-1.087-1.144-1.087m-4.609 3.615v-4.032h.68v.504c.296-.352.664-.584 1.176-.584.128 0 .248.016.344.048v.664a1.5 1.5 0 0 0-.4-.048c-.528 0-.872.272-1.12.68v2.768zm-3.128-1.352v-2.064h-.76v-.616h.76v-1.008h.688v1.008h1.4v.616h-1.4v2.064c0 .632.32.808.808.808.264 0 .448-.032.6-.096v.608c-.192.08-.408.112-.696.112-.896 0-1.4-.448-1.4-1.432m-5.2 1.353v-4.032h.68v.456c.328-.36.744-.617 1.344-.617.904 0 1.576.609 1.576 1.752v2.44h-.68v-2.416c0-.72-.408-1.136-1.032-1.136-.584 0-.952.337-1.208.76v2.793zm-1.065-.664c-.376.503-.976.823-1.728.823-1.36 0-2.2-1-2.2-2.175 0-1.225.784-2.177 2.032-2.177 1.096 0 1.808.769 1.808 1.76 0 .16-.024.313-.048.424h-3.096c.024.969.64 1.553 1.504 1.553.52 0 .96-.24 1.224-.6zm-1.912-2.953c-.664 0-1.128.392-1.272 1.088h2.416c-.024-.591-.432-1.087-1.144-1.087m218.342-11.048c-.376.503-.976.823-1.728.823-1.36 0-2.2-1-2.2-2.175 0-1.225.784-2.177 2.032-2.177 1.096 0 1.808.769 1.808 1.76 0 .16-.024.313-.048.424h-3.096c.024.969.64 1.553 1.504 1.553.52 0 .96-.24 1.224-.6zm-1.912-2.953c-.664 0-1.128.392-1.272 1.088h2.416c-.024-.591-.432-1.087-1.144-1.087m-4.61 3.615v-4.032h.68v.504c.296-.352.664-.584 1.176-.584.128 0 .248.016.344.048v.664a1.5 1.5 0 0 0-.4-.048c-.528 0-.872.272-1.12.68v2.768zm-3.127-1.352v-2.064h-.76v-.616h.76v-1.008h.688v1.008h1.4v.616h-1.4v2.064c0 .632.32.808.808.808.264 0 .448-.032.6-.096v.608c-.192.08-.408.112-.696.112-.896 0-1.4-.448-1.4-1.432m-3.447-2.839c1.296 0 2.184 1 2.184 2.175 0 1.177-.888 2.177-2.184 2.177-1.304 0-2.184-1-2.184-2.177 0-1.175.88-2.175 2.184-2.175m.008 3.712c.84 0 1.456-.705 1.456-1.537 0-.84-.616-1.535-1.456-1.535-.864 0-1.48.695-1.48 1.535s.616 1.537 1.48 1.537m-6.667-3.553h.736l1.288 3.32 1.288-3.32h.736l-1.576 4.032h-.896zm-2.613 3.369c-.376.503-.976.823-1.728.823-1.36 0-2.2-1-2.2-2.175 0-1.225.784-2.177 2.032-2.177 1.096 0 1.808.769 1.808 1.76 0 .16-.024.313-.048.424h-3.096c.024.969.64 1.553 1.504 1.553.52 0 .96-.24 1.224-.6zm-1.912-2.953c-.664 0-1.128.392-1.272 1.088h2.416c-.024-.591-.432-1.087-1.144-1.087m-7.289 1.599c0-1.176.808-2.176 2.072-2.176.6 0 1.072.232 1.432.64v-2.448h.68v6h-.68v-.48a1.83 1.83 0 0 1-1.432.64c-1.264 0-2.072-1-2.072-2.176m.72 0c0 .856.576 1.536 1.432 1.536a1.57 1.57 0 0 0 1.352-.744V72.78a1.58 1.58 0 0 0-1.352-.744c-.856 0-1.432.68-1.432 1.536m-5.133-2.657h-.664l.832-1.328h.768zm1.536 4.008c-.376.504-.976.824-1.728.824-1.36 0-2.2-1-2.2-2.176 0-1.224.784-2.176 2.032-2.176 1.096 0 1.808.768 1.808 1.76 0 .16-.024.312-.048.424h-3.096c.024.968.64 1.552 1.504 1.552.52 0 .96-.24 1.224-.6zM421 71.971c-.664 0-1.128.392-1.272 1.088h2.416c-.024-.592-.432-1.088-1.144-1.088m-4.721 2.264v-2.064h-.76v-.616h.76v-1.008h.688v1.008h1.4v.616h-1.4v2.064c0 .632.32.808.808.808.264 0 .448-.032.6-.096v.608c-.192.08-.408.112-.696.112-.896 0-1.4-.448-1.4-1.432m-2.005-3.728a.48.48 0 0 1-.48-.48.48.48 0 0 1 .48-.472c.264 0 .472.216.472.472 0 .264-.208.48-.472.48m-.344 5.08v-4.032h.68v4.032zm-7.562.001v-4.032h.68v.44c.304-.352.704-.6 1.264-.6.584 0 1.064.263 1.312.775.32-.44.744-.776 1.44-.776.864 0 1.496.577 1.496 1.672v2.52h-.68v-2.496c0-.671-.376-1.055-.952-1.055-.512 0-.872.287-1.136.76.008.087.016.175.016.271v2.52h-.68v-2.496c0-.671-.368-1.055-.952-1.055-.552 0-.896.343-1.128.76v2.791zm-1.774-5.081a.48.48 0 0 1-.48-.48.48.48 0 0 1 .48-.472c.264 0 .472.216.472.472 0 .264-.208.48-.472.48m-.344 5.08v-4.032h.68v4.032zm-3.986 0h-.792l1.488-2.088-1.376-1.944h.776l1.048 1.488 1.048-1.488h.784l-1.384 1.944 1.488 2.088h-.776l-1.152-1.632zm-3.424-4.191c1.296 0 2.184 1 2.184 2.175 0 1.177-.888 2.177-2.184 2.177-1.304 0-2.184-1-2.184-2.177 0-1.175.88-2.175 2.184-2.175m.008 3.712c.84 0 1.456-.705 1.456-1.537 0-.84-.616-1.535-1.456-1.535-.864 0-1.48.695-1.48 1.535s.616 1.537 1.48 1.537m-4.785.479v-4.032h.68v.504c.296-.352.664-.584 1.176-.584.128 0 .248.016.344.048v.664a1.5 1.5 0 0 0-.4-.048c-.528 0-.872.272-1.12.68v2.768zm-5.281 1.969v-6h.68v.48a1.83 1.83 0 0 1 1.432-.64c1.264 0 2.072 1 2.072 2.175 0 1.177-.808 2.177-2.072 2.177a1.83 1.83 0 0 1-1.432-.64v2.447zm2.032-5.52a1.57 1.57 0 0 0-1.352.751v1.569c.312.488.8.752 1.352.752.856 0 1.44-.68 1.44-1.537 0-.855-.584-1.535-1.44-1.535m-7.505-1.121-.936-1.328h.76l.832 1.328zm-.08 4.784c-.792 0-1.328-.44-1.328-1.128 0-.608.464-1.04 1.32-1.184l1.36-.224v-.28c0-.56-.4-.88-.976-.88-.464 0-.84.216-1.088.56l-.512-.392c.352-.48.92-.776 1.624-.776 1.024 0 1.632.6 1.632 1.488v2.704h-.68v-.512c-.304.392-.832.624-1.352.624m-.64-1.152c0 .344.28.592.752.592a1.41 1.41 0 0 0 1.24-.688v-.792l-1.192.2c-.552.096-.8.344-.8.688m-6.591.489.48-.409c.28.353.616.553 1.024.553.448 0 .704-.273.704-.625 0-.904-2.016-.584-2.016-2.008 0-.632.536-1.151 1.312-1.151.576 0 1.072.272 1.352.663l-.472.4c-.216-.303-.52-.496-.872-.496-.432 0-.664.257-.664.569 0 .904 2.024.615 2.024 1.992-.008.751-.608 1.224-1.36 1.224-.64 0-1.144-.257-1.512-.713m-2.137-4.12h-.664l.832-1.328h.768zm1.536 4.008c-.376.504-.976.824-1.728.824-1.36 0-2.2-1-2.2-2.176 0-1.224.784-2.176 2.032-2.176 1.096 0 1.808.768 1.808 1.76 0 .16-.024.312-.048.424h-3.096c.024.968.64 1.552 1.504 1.552.52 0 .96-.24 1.224-.6zm-1.912-2.952c-.664 0-1.128.392-1.272 1.088h2.416c-.024-.592-.432-1.088-1.144-1.088m-5.604 3.065.48-.409c.28.353.616.553 1.024.553.448 0 .704-.273.704-.625 0-.904-2.016-.584-2.016-2.008 0-.632.536-1.151 1.312-1.151.576 0 1.072.272 1.352.663l-.472.4c-.216-.303-.52-.496-.872-.496-.432 0-.664.257-.664.569 0 .904 2.024.615 2.024 1.992-.008.751-.608 1.224-1.36 1.224-.64 0-1.144-.257-1.512-.713m-1.31-4.528a.48.48 0 0 1-.48-.48.48.48 0 0 1 .48-.472c.264 0 .472.216.472.472 0 .264-.208.48-.472.48m-.344 5.08v-4.032h.68v4.032zm-2.117 0v-6h.68v6zm-3.397.113c-.792 0-1.328-.44-1.328-1.129 0-.608.464-1.04 1.32-1.183l1.36-.225v-.28c0-.56-.4-.88-.976-.88-.464 0-.84.216-1.088.56l-.512-.392c.352-.48.92-.776 1.624-.776 1.024 0 1.632.6 1.632 1.489v2.704h-.68v-.512c-.304.392-.832.624-1.352.624m-.64-1.153c0 .344.28.593.752.593a1.41 1.41 0 0 0 1.24-.689v-.791l-1.192.2c-.552.096-.8.344-.8.688m-3.021.56c.496 0 .904-.24 1.152-.593l.536.409c-.376.503-.96.823-1.696.823-1.336 0-2.192-1-2.192-2.175 0-1.177.856-2.177 2.192-2.177.728 0 1.32.329 1.696.825l-.536.407a1.4 1.4 0 0 0-1.16-.591c-.864 0-1.48.68-1.48 1.535 0 .865.616 1.537 1.488 1.537m-5.173-3.712c1.296 0 2.184 1 2.184 2.175 0 1.177-.888 2.177-2.184 2.177-1.304 0-2.184-1-2.184-2.177 0-1.175.88-2.175 2.184-2.175m.008 3.712c.84 0 1.456-.705 1.456-1.537 0-.84-.616-1.535-1.456-1.535-.864 0-1.48.695-1.48 1.535s.616 1.537 1.48 1.537m-3.965.479v-6h.68v6zm-5.284-1.352v-2.064h-.76v-.616h.76v-1.008h.688v1.008h1.4v.616h-1.4v2.064c0 .632.32.808.808.808.264 0 .448-.032.6-.096v.608c-.192.08-.408.112-.696.112-.896 0-1.4-.448-1.4-1.432m-5.2 1.353v-4.032h.68v.456c.328-.36.744-.617 1.344-.617.904 0 1.576.609 1.576 1.752v2.44h-.68v-2.416c0-.72-.408-1.136-1.032-1.136-.584 0-.952.337-1.208.76v2.793zm-3.277-4.192c1.296 0 2.184 1 2.184 2.175 0 1.177-.888 2.177-2.184 2.177-1.304 0-2.184-1-2.184-2.177 0-1.175.88-2.175 2.184-2.175m.008 3.712c.84 0 1.456-.705 1.456-1.537 0-.84-.616-1.535-1.456-1.535-.864 0-1.48.695-1.48 1.535s.616 1.537 1.48 1.537m-5.78-.072.48-.409c.28.353.616.553 1.024.553.448 0 .704-.273.704-.625 0-.904-2.016-.584-2.016-2.008 0-.632.536-1.151 1.312-1.151.576 0 1.072.272 1.352.663l-.472.4c-.216-.303-.52-.496-.872-.496-.432 0-.664.257-.664.569 0 .904 2.024.615 2.024 1.992-.008.751-.608 1.224-1.36 1.224-.64 0-1.144-.257-1.512-.713m-4.852-.8v-2.064h-.76v-.616h.76v-1.008h.688v1.008h1.4v.616h-1.4v2.064c0 .632.32.808.808.808.264 0 .448-.032.6-.096v.608c-.192.08-.408.112-.696.112-.896 0-1.4-.448-1.4-1.432m-1.273.689c-.376.503-.976.823-1.728.823-1.36 0-2.2-1-2.2-2.175 0-1.225.784-2.177 2.032-2.177 1.096 0 1.808.769 1.808 1.76 0 .16-.024.313-.048.424h-3.096c.024.969.64 1.553 1.504 1.553.52 0 .96-.24 1.224-.6zm-1.912-2.953c-.664 0-1.128.392-1.272 1.088h2.416c-.024-.591-.432-1.087-1.144-1.087m-4.893 2.952c-.376.503-.976.823-1.728.823-1.36 0-2.2-1-2.2-2.175 0-1.225.784-2.177 2.032-2.177 1.096 0 1.808.769 1.808 1.76 0 .16-.024.313-.048.424h-3.096c.024.969.64 1.553 1.504 1.553.52 0 .96-.24 1.224-.6zm-1.912-2.953c-.664 0-1.128.392-1.272 1.088h2.416c-.024-.591-.432-1.087-1.144-1.087m-4.609 3.615v-4.032h.68v.504c.296-.352.664-.584 1.176-.584.128 0 .248.016.344.048v.664a1.5 1.5 0 0 0-.4-.048c-.528 0-.872.272-1.12.68v2.768zm-3.505-4.032h.76v-.496c0-.856.552-1.472 1.432-1.472.368 0 .664.104.888.232l-.304.568a.93.93 0 0 0-.568-.184c-.456 0-.76.312-.76.84v.512h1.4v.616h-1.4v3.416h-.688v-3.416h-.76zm-3.258 0h.76v-.496c0-.856.552-1.472 1.432-1.472.368 0 .664.104.888.232l-.304.568a.93.93 0 0 0-.568-.184c-.456 0-.76.312-.76.84v.512h1.4v.616h-1.4v3.416h-.688v-3.416h-.76zm-2.686-.159c1.296 0 2.184 1 2.184 2.175 0 1.177-.888 2.177-2.184 2.177-1.304 0-2.184-1-2.184-2.177 0-1.175.88-2.175 2.184-2.175m.008 3.712c.84 0 1.456-.705 1.456-1.537 0-.84-.616-1.535-1.456-1.535-.864 0-1.48.695-1.48 1.535s.616 1.537 1.48 1.537m-5.069-.184c-.376.503-.976.823-1.728.823-1.36 0-2.2-1-2.2-2.175 0-1.225.784-2.177 2.032-2.177 1.096 0 1.808.769 1.808 1.76 0 .16-.024.313-.048.424h-3.096c.024.969.64 1.553 1.504 1.553.52 0 .96-.24 1.224-.6zm-1.912-2.953c-.664 0-1.128.392-1.272 1.088h2.416c-.024-.591-.432-1.087-1.144-1.087m-4.609 3.615v-4.032h.68v.504c.296-.352.664-.584 1.176-.584.128 0 .248.016.344.048v.664a1.5 1.5 0 0 0-.4-.048c-.528 0-.872.272-1.12.68v2.768zm-3.128-1.352v-2.064h-.76v-.616h.76v-1.008h.688v1.008h1.4v.616h-1.4v2.064c0 .632.32.808.808.808.264 0 .448-.032.6-.096v.608c-.192.08-.408.112-.696.112-.896 0-1.4-.448-1.4-1.432m-3.447-2.839c1.296 0 2.184 1 2.184 2.175 0 1.177-.888 2.177-2.184 2.177-1.304 0-2.184-1-2.184-2.177 0-1.175.88-2.175 2.184-2.175m.008 3.712c.84 0 1.456-.705 1.456-1.537 0-.84-.616-1.535-1.456-1.535-.864 0-1.48.695-1.48 1.535s.616 1.537 1.48 1.537m-6.667-3.553h.736l1.288 3.32 1.288-3.32h.736l-1.576 4.032h-.896zm-4.168 3.553c.496 0 .904-.24 1.152-.593l.536.409c-.376.503-.96.823-1.696.823-1.336 0-2.192-1-2.192-2.175 0-1.177.856-2.177 2.192-2.177.728 0 1.32.329 1.696.825l-.536.407a1.4 1.4 0 0 0-1.16-.591c-.864 0-1.48.68-1.48 1.535 0 .865.616 1.537 1.488 1.537m-2.905-.184c-.376.503-.976.823-1.728.823-1.36 0-2.2-1-2.2-2.175 0-1.225.784-2.177 2.032-2.177 1.096 0 1.808.769 1.808 1.76 0 .16-.024.313-.048.424h-3.096c.024.969.64 1.553 1.504 1.553.52 0 .96-.24 1.224-.6zm-1.912-2.953c-.664 0-1.128.392-1.272 1.088h2.416c-.024-.591-.432-1.087-1.144-1.087m-6.491-.417h.736l1.288 3.32 1.288-3.32h.736l-1.576 4.032h-.896zm-2.749 4.145c-.792 0-1.328-.44-1.328-1.129 0-.608.464-1.04 1.32-1.183l1.36-.225v-.28c0-.56-.4-.88-.976-.88-.464 0-.84.216-1.088.56l-.512-.392c.352-.48.92-.776 1.624-.776 1.024 0 1.632.6 1.632 1.489v2.704h-.68v-.512c-.304.392-.832.624-1.352.624m-.64-1.153c0 .344.28.593.752.593a1.41 1.41 0 0 0 1.24-.689v-.791l-1.192.2c-.552.096-.8.344-.8.688m-7.581 1.04v-4.032h.68v.456c.328-.36.744-.617 1.344-.617.904 0 1.576.609 1.576 1.752v2.44h-.68v-2.416c0-.72-.408-1.136-1.032-1.136-.584 0-.952.337-1.208.76v2.793zm-1.065-.664c-.376.503-.976.823-1.728.823-1.36 0-2.2-1-2.2-2.175 0-1.225.784-2.177 2.032-2.177 1.096 0 1.808.769 1.808 1.76 0 .16-.024.313-.048.424h-3.096c.024.969.64 1.553 1.504 1.553.52 0 .96-.24 1.224-.6zm-1.912-2.953c-.664 0-1.128.392-1.272 1.088h2.416c-.024-.591-.432-1.087-1.144-1.087m-3.445-1.465a.48.48 0 0 1-.48-.48.48.48 0 0 1 .48-.472c.264 0 .472.216.472.472 0 .264-.208.48-.472.48m-.344 5.08v-4.032h.68v4.032zm-2.117 0v-6h.68v6zm238.367-13.999v-4.032h.68v.456c.328-.36.744-.617 1.344-.617.904 0 1.576.608 1.576 1.752v2.44h-.68v-2.416c0-.72-.408-1.136-1.032-1.136-.584 0-.952.337-1.208.76v2.792zm-1.064-.664c-.376.504-.976.824-1.728.824-1.36 0-2.2-1-2.2-2.176 0-1.225.784-2.177 2.032-2.177 1.096 0 1.808.768 1.808 1.76 0 .16-.024.313-.048.425h-3.096c.024.968.64 1.552 1.504 1.552.52 0 .96-.24 1.224-.6zm-1.912-2.953c-.664 0-1.128.393-1.272 1.089h2.416c-.024-.593-.432-1.089-1.144-1.089m-7.807 3.065.48-.409c.28.352.616.552 1.024.552.448 0 .704-.272.704-.623 0-.904-2.016-.584-2.016-2.008 0-.633.536-1.153 1.312-1.153.576 0 1.072.272 1.352.664l-.472.4c-.216-.303-.52-.495-.872-.495-.432 0-.664.255-.664.568 0 .904 2.024.616 2.024 1.992-.008.752-.608 1.224-1.36 1.224-.64 0-1.144-.256-1.512-.712m-4.537.552v-4.032h.68v.456c.328-.36.744-.617 1.344-.617.904 0 1.576.608 1.576 1.752v2.44h-.68v-2.416c0-.72-.408-1.136-1.032-1.136-.584 0-.952.337-1.208.76v2.792zm-3.277-4.192c1.296 0 2.184 1 2.184 2.175 0 1.177-.888 2.177-2.184 2.177-1.304 0-2.184-1-2.184-2.176s.88-2.177 2.184-2.177m.008 3.712c.84 0 1.456-.704 1.456-1.536 0-.84-.616-1.537-1.456-1.537-.864 0-1.48.697-1.48 1.537s.616 1.535 1.48 1.535m-3.621-4.599a.48.48 0 0 1-.48-.48.48.48 0 0 1 .48-.472c.264 0 .472.216.472.472 0 .264-.208.48-.472.48m-.344 5.08v-4.032h.68v4.032zm-3.128-1.352v-2.064h-.76v-.616h.76v-1.008h.688v1.008h1.4v.616h-1.4v2.064c0 .632.32.808.808.808.264 0 .448-.032.6-.096v.608c-.192.08-.408.112-.696.112-.896 0-1.4-.448-1.4-1.432m-3.628 1.465c-.792 0-1.328-.44-1.328-1.129 0-.607.464-1.04 1.32-1.183l1.36-.224v-.28c0-.56-.4-.88-.976-.88-.464 0-.84.215-1.088.56l-.512-.392c.352-.48.92-.776 1.624-.776 1.024 0 1.632.6 1.632 1.487v2.704h-.68v-.512c-.304.392-.832.624-1.352.624m-.64-1.153c0 .345.28.593.752.593a1.41 1.41 0 0 0 1.24-.688v-.792l-1.192.2c-.552.096-.8.343-.8.688m-8.018 1.041v-4.032h.68v.44c.304-.352.704-.6 1.264-.6.584 0 1.064.264 1.312.776.32-.44.744-.776 1.44-.776.864 0 1.496.575 1.496 1.672v2.52h-.68v-2.496c0-.672-.376-1.056-.952-1.056-.512 0-.872.288-1.136.76.008.087.016.175.016.272v2.52h-.68v-2.496c0-.672-.368-1.056-.952-1.056-.552 0-.896.343-1.128.76v2.791zm-3.18-.001v-4.032h.68v.504c.296-.352.664-.584 1.176-.584.128 0 .248.016.344.048v.664a1.5 1.5 0 0 0-.4-.048c-.528 0-.872.272-1.12.68v2.768zm-3.277-4.191c1.296 0 2.184 1 2.184 2.175 0 1.177-.888 2.177-2.184 2.177-1.304 0-2.184-1-2.184-2.176s.88-2.177 2.184-2.177m.008 3.712c.84 0 1.456-.704 1.456-1.536 0-.84-.616-1.537-1.456-1.537-.864 0-1.48.697-1.48 1.537s.616 1.535 1.48 1.535m-5.298-3.551h.76v-.496c0-.856.552-1.472 1.432-1.472.368 0 .664.104.888.232l-.304.568a.93.93 0 0 0-.568-.184c-.456 0-.76.312-.76.84v.512h1.4v.616h-1.4v3.416h-.688v-3.416h-.76zm-5.607 3.481.48-.409c.28.352.616.552 1.024.552.448 0 .704-.272.704-.623 0-.904-2.016-.584-2.016-2.008 0-.633.536-1.153 1.312-1.153.576 0 1.072.272 1.352.664l-.472.4c-.216-.303-.52-.495-.872-.495-.432 0-.664.255-.664.568 0 .904 2.024.616 2.024 1.992-.008.752-.608 1.224-1.36 1.224-.64 0-1.144-.256-1.512-.712m-.602-.112c-.376.504-.976.824-1.728.824-1.36 0-2.2-1-2.2-2.176 0-1.225.784-2.177 2.032-2.177 1.096 0 1.808.768 1.808 1.76 0 .16-.024.313-.048.425h-3.096c.024.968.64 1.552 1.504 1.552.52 0 .96-.24 1.224-.6zm-1.912-2.953c-.664 0-1.128.393-1.272 1.089h2.416c-.024-.593-.432-1.089-1.144-1.089m-7.289 1.6c0-1.176.808-2.176 2.072-2.176.6 0 1.072.232 1.432.64v-2.448h.68v6h-.68v-.48a1.83 1.83 0 0 1-1.432.64c-1.264 0-2.072-1-2.072-2.176m.72 0c0 .856.576 1.536 1.432 1.536a1.57 1.57 0 0 0 1.352-.744V58.78a1.58 1.58 0 0 0-1.352-.744c-.856 0-1.432.68-1.432 1.536m-5.66.663v-2.064h-.76v-.616h.76v-1.008h.688v1.008h1.4v.616h-1.4v2.064c0 .632.32.808.808.808.264 0 .448-.032.6-.096v.608c-.192.08-.408.112-.696.112-.896 0-1.4-.448-1.4-1.432m-5.2 1.353v-4.032h.68v.456c.328-.36.744-.617 1.344-.617.904 0 1.576.608 1.576 1.752v2.44h-.68v-2.416c0-.72-.408-1.136-1.032-1.136-.584 0-.952.337-1.208.76v2.792zm-1.065-.664c-.376.504-.976.824-1.728.824-1.36 0-2.2-1-2.2-2.176 0-1.225.784-2.177 2.032-2.177 1.096 0 1.808.768 1.808 1.76 0 .16-.024.313-.048.425h-3.096c.024.968.64 1.552 1.504 1.552.52 0 .96-.24 1.224-.6zm-1.912-2.953c-.664 0-1.128.393-1.272 1.089h2.416c-.024-.593-.432-1.089-1.144-1.089m-5.604 3.065.48-.409c.28.352.616.552 1.024.552.448 0 .704-.272.704-.623 0-.904-2.016-.584-2.016-2.008 0-.633.536-1.153 1.312-1.153.576 0 1.072.272 1.352.664l-.472.4c-.216-.303-.52-.495-.872-.495-.432 0-.664.255-.664.568 0 .904 2.024.616 2.024 1.992-.008.752-.608 1.224-1.36 1.224-.64 0-1.144-.256-1.512-.712m-2.736-3.64c1.296 0 2.184 1 2.184 2.175 0 1.177-.888 2.177-2.184 2.177-1.304 0-2.184-1-2.184-2.176s.88-2.177 2.184-2.177m.008 3.712c.84 0 1.456-.704 1.456-1.536 0-.84-.616-1.537-1.456-1.537-.864 0-1.48.697-1.48 1.537s.616 1.535 1.48 1.535m-7.168 2.45v-6h.68v.48a1.83 1.83 0 0 1 1.432-.64c1.264 0 2.072 1 2.072 2.175 0 1.177-.808 2.177-2.072 2.177a1.83 1.83 0 0 1-1.432-.64v2.448zm2.032-5.52c-.56 0-1.048.271-1.352.752v1.568c.312.487.8.752 1.352.752.856 0 1.44-.68 1.44-1.536 0-.857-.584-1.537-1.44-1.537m-5.309-.639c1.296 0 2.184 1 2.184 2.175 0 1.177-.888 2.177-2.184 2.177-1.304 0-2.184-1-2.184-2.176s.88-2.177 2.184-2.177m.008 3.712c.84 0 1.456-.704 1.456-1.536 0-.84-.616-1.537-1.456-1.537-.864 0-1.48.697-1.48 1.537s.616 1.535 1.48 1.535m-4.785.481v-4.032h.68v.504c.296-.352.664-.584 1.176-.584.128 0 .248.016.344.048v.664a1.5 1.5 0 0 0-.4-.048c-.528 0-.872.272-1.12.68v2.768zm-5.282 1.969v-6h.68v.48a1.83 1.83 0 0 1 1.432-.64c1.264 0 2.072 1 2.072 2.175 0 1.177-.808 2.177-2.072 2.177a1.83 1.83 0 0 1-1.432-.64v2.448zm2.032-5.52c-.56 0-1.048.271-1.352.752v1.568c.312.487.8.752 1.352.752.856 0 1.44-.68 1.44-1.536 0-.857-.584-1.537-1.44-1.537m-8.167 3.001.48-.409c.28.352.616.552 1.024.552.448 0 .704-.272.704-.623 0-.904-2.016-.584-2.016-2.008 0-.633.536-1.153 1.312-1.153.576 0 1.072.272 1.352.664l-.472.4c-.216-.303-.52-.495-.872-.495-.432 0-.664.255-.664.568 0 .904 2.024.616 2.024 1.992-.008.752-.608 1.224-1.36 1.224-.64 0-1.144-.256-1.512-.712m-2.696-.801v-2.064h-.76v-.616h.76v-1.008h.688v1.008h1.4v.616h-1.4v2.064c0 .632.32.808.808.808.264 0 .448-.032.6-.096v.608c-.192.08-.408.112-.696.112-.896 0-1.4-.448-1.4-1.432m-5.2 1.353v-4.032h.68v.456c.328-.36.744-.617 1.344-.617.904 0 1.576.608 1.576 1.752v2.44h-.68v-2.416c0-.72-.408-1.136-1.032-1.136-.584 0-.952.337-1.208.76v2.792zm-3.397.112c-.792 0-1.328-.44-1.328-1.129 0-.607.464-1.04 1.32-1.183l1.36-.224v-.28c0-.56-.4-.88-.976-.88-.464 0-.84.215-1.088.56l-.512-.392c.352-.48.92-.776 1.624-.776 1.024 0 1.632.6 1.632 1.487v2.704h-.68v-.512c-.304.392-.832.624-1.352.624m-.64-1.153c0 .345.28.593.752.593a1.41 1.41 0 0 0 1.24-.688v-.792l-1.192.2c-.552.096-.8.343-.8.688m-5.259-2.992h.736l1.288 3.32 1.288-3.32h.736l-1.576 4.032h-.896zm-1.165-1.048a.48.48 0 0 1-.48-.48.48.48 0 0 1 .48-.472c.264 0 .472.216.472.472 0 .264-.208.48-.472.48m-.344 5.08v-4.032h.68v4.032zm-2.02-1.727v-2.305h.68v2.28c0 1.208-.696 1.912-1.792 1.912-1.088 0-1.784-.704-1.784-1.912v-2.28h.68v2.304c0 .792.424 1.248 1.112 1.248.672 0 1.104-.456 1.104-1.248m-6.787 1.177.48-.409c.28.352.616.552 1.024.552.448 0 .704-.272.704-.623 0-.904-2.016-.584-2.016-2.008 0-.633.536-1.153 1.312-1.153.576 0 1.072.272 1.352.664l-.472.4c-.216-.303-.52-.495-.872-.495-.432 0-.664.255-.664.568 0 .904 2.024.616 2.024 1.992-.008.752-.608 1.224-1.36 1.224-.64 0-1.144-.256-1.512-.712m-6.693.552v-4.032h.68v.456c.328-.36.744-.617 1.344-.617.904 0 1.576.608 1.576 1.752v2.44h-.68v-2.416c0-.72-.408-1.136-1.032-1.136-.584 0-.952.337-1.208.76v2.792zm-3.277-4.192c1.296 0 2.184 1 2.184 2.175 0 1.177-.888 2.177-2.184 2.177-1.304 0-2.184-1-2.184-2.176s.88-2.177 2.184-2.177m.008 3.712c.84 0 1.456-.704 1.456-1.536 0-.84-.616-1.537-1.456-1.537-.864 0-1.48.697-1.48 1.537s.616 1.535 1.48 1.535m-3.621-4.599a.48.48 0 0 1-.48-.48.48.48 0 0 1 .48-.472c.264 0 .472.216.472.472 0 .264-.208.48-.472.48m-.344 5.08v-4.032h.68v4.032zm-3.128-1.352v-2.064h-.76v-.616h.76v-1.008h.688v1.008h1.4v.616h-1.4v2.064c0 .632.32.808.808.808.264 0 .448-.032.6-.096v.608c-.192.08-.408.112-.696.112-.896 0-1.4-.448-1.4-1.432m-3.628 1.465c-.792 0-1.328-.44-1.328-1.129 0-.607.464-1.04 1.32-1.183l1.36-.224v-.28c0-.56-.4-.88-.976-.88-.464 0-.84.215-1.088.56l-.512-.392c.352-.48.92-.776 1.624-.776 1.024 0 1.632.6 1.632 1.487v2.704h-.68v-.512c-.304.392-.832.624-1.352.624m-.64-1.153c0 .345.28.593.752.593a1.41 1.41 0 0 0 1.24-.688v-.792l-1.192.2c-.552.096-.8.343-.8.688m-8.018 1.041v-4.032h.68v.44c.304-.352.704-.6 1.264-.6.584 0 1.064.264 1.312.776.32-.44.744-.776 1.44-.776.864 0 1.496.575 1.496 1.672v2.52h-.68v-2.496c0-.672-.376-1.056-.952-1.056-.512 0-.872.288-1.136.76.008.087.016.175.016.272v2.52h-.68v-2.496c0-.672-.368-1.056-.952-1.056-.552 0-.896.343-1.128.76v2.791zm-3.18-.001v-4.032h.68v.504c.296-.352.664-.584 1.176-.584.128 0 .248.016.344.048v.664a1.5 1.5 0 0 0-.4-.048c-.528 0-.872.272-1.12.68v2.768zm-3.277-4.191c1.296 0 2.184 1 2.184 2.175 0 1.177-.888 2.177-2.184 2.177-1.304 0-2.184-1-2.184-2.176s.88-2.177 2.184-2.177m.008 3.712c.84 0 1.456-.704 1.456-1.536 0-.84-.616-1.537-1.456-1.537-.864 0-1.48.697-1.48 1.537s.616 1.535 1.48 1.535m-5.298-3.551h.76v-.496c0-.856.552-1.472 1.432-1.472.368 0 .664.104.888.232l-.304.568a.93.93 0 0 0-.568-.184c-.456 0-.76.312-.76.84v.512h1.4v.616h-1.4v3.416h-.688v-3.416h-.76zm-2.693 3.369c-.376.504-.976.824-1.728.824-1.36 0-2.2-1-2.2-2.176 0-1.225.784-2.177 2.032-2.177 1.096 0 1.808.768 1.808 1.76 0 .16-.024.313-.048.425h-3.096c.024.968.64 1.552 1.504 1.552.52 0 .96-.24 1.224-.6zm-1.912-2.953c-.664 0-1.128.393-1.272 1.089h2.416c-.024-.593-.432-1.089-1.144-1.089m-7.289 1.6c0-1.176.808-2.176 2.072-2.176.6 0 1.072.232 1.432.64v-2.448h.68v6h-.68v-.48a1.83 1.83 0 0 1-1.432.64c-1.264 0-2.072-1-2.072-2.176m.72 0c0 .856.576 1.536 1.432 1.536a1.57 1.57 0 0 0 1.352-.744V58.78a1.58 1.58 0 0 0-1.352-.744c-.856 0-1.432.68-1.432 1.536m-6.511 1.464.48-.409c.28.352.616.552 1.024.552.448 0 .704-.272.704-.623 0-.904-2.016-.584-2.016-2.008 0-.633.536-1.153 1.312-1.153.576 0 1.072.272 1.352.664l-.472.4c-.216-.303-.52-.495-.872-.495-.432 0-.664.255-.664.568 0 .904 2.024.616 2.024 1.992-.008.752-.608 1.224-1.36 1.224-.64 0-1.144-.256-1.512-.712m-.601-.112c-.376.504-.976.824-1.728.824-1.36 0-2.2-1-2.2-2.176 0-1.225.784-2.177 2.032-2.177 1.096 0 1.808.768 1.808 1.76 0 .16-.025.313-.049.425h-3.096c.024.968.641 1.552 1.505 1.552.52 0 .959-.24 1.223-.6zm-1.913-2.953c-.664 0-1.128.393-1.272 1.089h2.416c-.024-.593-.432-1.089-1.144-1.089m-4.609 3.616v-4.032h.68v.504c.296-.352.664-.584 1.176-.584.128 0 .248.016.344.048v.664a1.5 1.5 0 0 0-.4-.048c-.528 0-.872.272-1.12.68v2.768zm-3.127-1.352v-2.064h-.76v-.616h.76v-1.008h.688v1.008h1.4v.616h-1.4v2.064c0 .632.32.808.808.808.264 0 .448-.032.6-.096v.608c-.192.08-.408.112-.696.112-.896 0-1.4-.448-1.4-1.432m-5.201 1.353v-4.032h.68v.456c.328-.36.744-.617 1.344-.617.904 0 1.576.608 1.576 1.752v2.44h-.68v-2.416c0-.72-.408-1.136-1.032-1.136-.584 0-.952.337-1.208.76v2.792zm-1.065-.664c-.376.504-.976.824-1.728.824-1.36 0-2.2-1-2.2-2.176 0-1.225.784-2.177 2.032-2.177 1.096 0 1.808.768 1.808 1.76 0 .16-.024.313-.048.425h-3.096c.024.968.64 1.552 1.504 1.552.52 0 .96-.24 1.224-.6zm-1.912-2.953c-.664 0-1.128.393-1.272 1.089h2.416c-.024-.593-.432-1.089-1.144-1.089m-4.136 3.137c.496 0 .904-.24 1.152-.592l.536.407c-.376.505-.96.825-1.696.825-1.336 0-2.192-1-2.192-2.176s.856-2.177 2.192-2.177c.728 0 1.32.328 1.696.824l-.536.408a1.4 1.4 0 0 0-1.16-.592c-.864 0-1.48.68-1.48 1.537 0 .863.616 1.535 1.488 1.535m-7.991-.071.48-.409c.28.352.616.552 1.024.552.448 0 .704-.272.704-.623 0-.904-2.016-.584-2.016-2.008 0-.633.536-1.153 1.312-1.153.576 0 1.072.272 1.352.664l-.472.4c-.216-.303-.52-.495-.872-.495-.432 0-.664.255-.664.568 0 .904 2.024.616 2.024 1.992-.008.752-.608 1.224-1.36 1.224-.64 0-1.144-.256-1.512-.712m-.601-.112c-.376.504-.976.824-1.728.824-1.36 0-2.2-1-2.2-2.176 0-1.225.784-2.177 2.032-2.177 1.096 0 1.808.768 1.808 1.76 0 .16-.024.313-.048.425h-3.096c.024.968.64 1.552 1.504 1.552.52 0 .96-.24 1.224-.6zm-1.912-2.953c-.664 0-1.128.393-1.272 1.089h2.416c-.024-.593-.432-1.089-1.144-1.089m-5.637 3.616v-5.6h.752V60.9h2.256v.688z"/><path stroke="#000091" stroke-width=".5" d="M237.25 112.998h249.5v59.48h-249.5z"/><rect width="15" height="15" x="249" y="135.238" fill="#000091" rx="3"/><path fill="#000" d="m370.689 122.948-2.88 4.02v2.98h-1.42v-2.95l-2.89-4.05h1.73l1.87 2.64 1.87-2.64zm-12.205 7v-7h2.14c1.54 0 2.49.79 2.49 2.09 0 .85-.41 1.48-1.13 1.81l2.19 3.1h-1.67l-1.87-2.83h-.73v2.83zm2.22-5.82h-.8v1.81h.8c.6 0 .95-.35.95-.92 0-.53-.35-.89-.95-.89m-8.909 5.82v-7h2.14c1.54 0 2.49.79 2.49 2.09 0 .85-.41 1.48-1.13 1.81l2.19 3.1h-1.67l-1.87-2.83h-.73v2.83zm2.22-5.82h-.8v1.81h.8c.6 0 .95-.35.95-.92 0-.53-.35-.89-.95-.89m-8.05 5.82v-7h4.08v1.18h-2.66v1.66h2.26v1.18h-2.26v1.8h2.66v1.18zm-5.43 0v-7h4.08v1.18h-2.66v1.66h2.26v1.18h-2.26v2.98zm-9.204-.97 1.03-.95c.42.54.98.86 1.55.86.56 0 .9-.3.9-.8 0-1.29-3.18-.94-3.18-3.31 0-1.11.92-2.03 2.26-2.03 1.05 0 1.85.47 2.45 1.18l-1.04.94c-.41-.53-.87-.88-1.4-.88-.5 0-.83.32-.83.74 0 1.27 3.18.91 3.18 3.31-.02 1.32-1.04 2.11-2.33 2.11-1.18 0-1.97-.43-2.59-1.17m-5.2.97v-7h4.08v1.18h-2.66v1.66h2.26v1.18h-2.26v1.8h2.66v1.18zm-5.43 0v-7h1.42v5.71h2.66v1.29zm-3.284-2.62v-4.38h1.42v4.26c0 1.84-1.08 2.94-2.84 2.94-1.75 0-2.83-1.1-2.83-2.94v-4.26h1.42v4.38c0 .94.53 1.49 1.42 1.49.87 0 1.41-.55 1.41-1.49m-6.114 2.04c0 1.55-.72 2.32-2.18 2.32-.23 0-.42 0-.56-.04v-1.25q.15.03.36.03c.63 0 .96-.27.96-.99v-6.49h1.42zm-10.055.58v-7h4.08v1.18h-2.66v1.66h2.26v1.18h-2.26v1.8h2.66v1.18zm-5.83 0v-7h4.08v1.18h-2.66v1.66h2.26v1.18h-2.26v1.8h2.66v1.18zm-4.282-1.13c.8 0 1.43-.39 1.83-.96l1.12.86c-.64.87-1.68 1.43-2.95 1.43-2.21 0-3.72-1.7-3.72-3.7s1.51-3.7 3.72-3.7c1.27 0 2.31.57 2.95 1.42l-1.12.87c-.4-.57-1.03-.96-1.83-.96-1.32 0-2.26 1.03-2.26 2.37s.94 2.37 2.26 2.37m-3.67-5.87-2.88 4.02v2.98h-1.42v-2.95l-2.89-4.05h1.73l1.87 2.64 1.87-2.64zm-10.466 7v-7h1.42v5.71h2.66v1.29zm132.526 13.732.56-.512c.384.496.832.759 1.352.759.624 0 .984-.375.984-.887 0-1.264-2.656-.992-2.656-2.84 0-.833.688-1.512 1.664-1.512.784 0 1.36.36 1.776.912l-.568.495c-.328-.472-.72-.736-1.2-.736-.552 0-.904.344-.904.824 0 1.257 2.648.968 2.648 2.833 0 .968-.744 1.584-1.736 1.584-.824 0-1.432-.312-1.92-.92m-2.107.767v-5.6h.752v5.6zm-5.125 0v-5.6h1.488c1.128 0 1.824.616 1.824 1.576 0 .672-.344 1.176-.944 1.416l1.808 2.608h-.888l-1.624-2.464c-.056.008-.12.008-.176.008h-.736v2.456zm1.52-4.96h-.768v1.864h.768c.64 0 1.016-.344 1.016-.944 0-.568-.376-.92-1.016-.92m-8.098 4.96 2.232-5.6h1.008l2.232 5.6h-.8l-.648-1.648h-2.576l-.648 1.648zm1.696-2.296h2.08l-1.04-2.648zm-5.032 2.296v-5.6h1.64c1.12 0 1.816.616 1.816 1.576s-.696 1.568-1.816 1.568h-.888v2.456zm1.656-4.96h-.904v1.864h.904c.64 0 1.024-.344 1.024-.944 0-.568-.384-.92-1.024-.92m-7.097-.799c1.12 0 1.768.664 1.768 1.464 0 .56-.288.999-.816 1.232.696.248 1.088.792 1.088 1.512 0 .968-.76 1.712-2.04 1.712-1.272 0-2.04-.744-2.04-1.712 0-.72.392-1.264 1.088-1.512-.536-.233-.824-.672-.824-1.232 0-.8.648-1.464 1.776-1.464m.008 2.423c.6 0 1.016-.368 1.016-.896 0-.535-.416-.903-1.016-.903-.624 0-1.032.368-1.032.903 0 .537.408.896 1.032.896m0 2.865c.768 0 1.288-.456 1.288-1.112 0-.664-.52-1.137-1.288-1.137-.784 0-1.304.473-1.304 1.137s.52 1.112 1.304 1.112m-4.844-5.288c1.408 0 2.096 1.296 2.096 2.96s-.688 2.96-2.096 2.96c-1.392 0-2.088-1.296-2.088-2.96s.696-2.96 2.088-2.96m.008.671c-.896 0-1.36.977-1.36 2.289s.464 2.288 1.36 2.288c.888 0 1.344-.976 1.344-2.288s-.456-2.289-1.344-2.289m-4.859-.671c1.408 0 2.096 1.296 2.096 2.96s-.688 2.96-2.096 2.96c-1.392 0-2.088-1.296-2.088-2.96s.696-2.96 2.088-2.96m.008.671c-.896 0-1.36.977-1.36 2.289s.464 2.288 1.36 2.288c.888 0 1.344-.976 1.344-2.288s-.456-2.289-1.344-2.289m-6.35 2.432.168-2.944h3.08v.648h-2.392l-.096 1.64h.808c1.32 0 1.944.72 1.944 1.712 0 1.072-.832 1.76-1.952 1.76-.96 0-1.608-.392-2.056-1.136l.632-.392c.344.624.808.88 1.416.88.704 0 1.224-.408 1.224-1.088 0-.648-.456-1.08-1.24-1.08zm-3.929 2.656h-.832l2.96-4.952h-3.12v-.648h3.888v.648zm-4.864 1.28h-.632l.68-2.12h.776zm-2.039-3.344v-3.536h.752v3.488c0 1.44-.856 2.272-2.168 2.272s-2.176-.832-2.176-2.272v-3.488h.752v3.536c0 .968.56 1.52 1.424 1.52.856 0 1.416-.552 1.416-1.52m-7.955 2.064v-5.6h3.008v.64h-2.256v1.792h1.936v.632h-1.936v1.896h2.256v.64zm-2.532 0v-5.6h.752v5.6zm-6.679 0v-5.6h.752v2.408h3.4v-2.408h.752v5.6h-.752v-2.512h-3.4v2.512zm-5.64-4.912v-.688h4.464v.688h-1.856v4.912h-.752v-4.912zm-6.071 4.912v-5.6h.984l3.168 4.68v-4.68h.752v5.6h-.984l-3.168-4.68v4.68zm-4.232-5.759c1.744 0 2.936 1.36 2.936 2.96s-1.192 2.96-2.936 2.96c-1.752 0-2.944-1.36-2.944-2.96s1.192-2.96 2.944-2.96m0 5.216c1.256 0 2.16-1.008 2.16-2.256 0-1.249-.904-2.257-2.16-2.257-1.264 0-2.168 1.008-2.168 2.257 0 1.248.904 2.256 2.168 2.256m-7.12.543v-5.6h1.64c1.12 0 1.816.616 1.816 1.576s-.696 1.568-1.816 1.568h-.888v2.456zm1.656-4.96h-.904v1.864h.904c.64 0 1.024-.344 1.024-.944 0-.568-.384-.92-1.024-.92m-8.32 4.96v-5.6h3.008v.64h-2.256v1.792h1.936v.632h-1.936v1.896h2.256v.64zm-6.398 0v-5.6h2.152c1.752 0 2.944 1.288 2.944 2.8s-1.192 2.8-2.944 2.8zm2.168-4.912h-1.416v4.224h1.416c1.248 0 2.152-.944 2.152-2.112 0-1.176-.904-2.112-2.152-2.112m-8.832 4.912v-5.6h3.008v.64h-2.256v1.792h1.936v.632h-1.936v1.896h2.256v.64zm-2.365-2.064v-3.536h.752v3.488c0 1.44-.856 2.272-2.168 2.272s-2.176-.832-2.176-2.272v-3.488h.752v3.536c0 .968.56 1.52 1.424 1.52.856 0 1.416-.552 1.416-1.52m-8.448 2.064v-5.6h1.488c1.128 0 1.824.616 1.824 1.576 0 .672-.344 1.176-.944 1.416l1.808 2.608h-.888l-1.624-2.464c-.056.008-.12.008-.176.008h-.736v2.456zm1.52-4.96h-.768v1.864h.768c.64 0 1.016-.344 1.016-.944 0-.568-.376-.92-1.016-.92m-7.241 5.121c-.864 0-1.416-.384-1.8-.952l.576-.441c.32.488.704.736 1.224.736 1.024 0 1.536-.847 1.568-2.239-.4.408-.928.632-1.552.632-1.048 0-1.768-.792-1.768-1.776 0-1.017.712-1.88 1.928-1.88 1.312 0 2.136.927 2.136 2.871 0 1.816-.72 3.049-2.312 3.049m-1.008-4.065c0 .649.48 1.153 1.136 1.153.568 0 1.08-.241 1.408-.729-.12-1.176-.648-1.623-1.352-1.623-.744 0-1.192.528-1.192 1.199m-5.085 1.248.168-2.944h3.08v.648h-2.392l-.096 1.64h.808c1.32 0 1.944.72 1.944 1.712 0 1.072-.832 1.76-1.952 1.76-.96 0-1.608-.392-2.056-1.136l.632-.392c.344.624.808.88 1.416.88.704 0 1.224-.408 1.224-1.088 0-.648-.456-1.08-1.24-1.08zM277 161.568h65.133v.74H277zm61.063-1.99.6-.51c.35.44.77.69 1.28.69.56 0 .88-.34.88-.78 0-1.13-2.52-.73-2.52-2.51 0-.79.67-1.44 1.64-1.44.72 0 1.34.34 1.69.83l-.59.5c-.27-.38-.65-.62-1.09-.62-.54 0-.83.32-.83.71 0 1.13 2.53.77 2.53 2.49-.01.94-.76 1.53-1.7 1.53-.8 0-1.43-.32-1.89-.89m-1.965-1.47v-2.88h.85v2.85c0 1.51-.87 2.39-2.24 2.39-1.36 0-2.23-.88-2.23-2.39v-2.85h.85v2.88c0 .99.53 1.56 1.39 1.56.84 0 1.38-.57 1.38-1.56m-6.157 2.16v-7.5h.85v7.5z"/><path fill="#000" d="M323.339 162.728v-7.5h.85v.6c.45-.51 1.04-.8 1.79-.8 1.58 0 2.59 1.25 2.59 2.72s-1.01 2.72-2.59 2.72c-.75 0-1.34-.29-1.79-.8v3.06zm2.54-6.9c-.7 0-1.31.34-1.69.94v1.96c.39.61 1 .94 1.69.94 1.07 0 1.8-.85 1.8-1.92s-.73-1.92-1.8-1.92m-9.21 4.439v-5.04h.85v.63c.37-.44.83-.73 1.47-.73.16 0 .31.02.43.06v.83c-.15-.04-.3-.06-.5-.06-.66 0-1.09.34-1.4.85v3.46zm-2.216-6.349c-.33 0-.6-.27-.6-.6a.6.6 0 0 1 .6-.59c.33 0 .59.27.59.59 0 .33-.26.6-.59.6m-.43 6.35v-5.04h.85v5.04zm-4.096-5.24c1.62 0 2.73 1.25 2.73 2.72s-1.11 2.72-2.73 2.72c-1.63 0-2.73-1.25-2.73-2.72s1.1-2.72 2.73-2.72m.01 4.64c1.05 0 1.82-.88 1.82-1.92 0-1.05-.77-1.92-1.82-1.92-1.08 0-1.85.87-1.85 1.92s.77 1.92 1.85 1.92m-8.334-4.44h.92l1.61 4.15 1.61-4.15h.92l-1.97 5.04h-1.12zm-3.437 5.18c-.99 0-1.66-.55-1.66-1.41 0-.76.58-1.3 1.65-1.48l1.7-.28v-.35c0-.7-.5-1.1-1.22-1.1-.58 0-1.05.27-1.36.7l-.64-.49c.44-.6 1.15-.97 2.03-.97 1.28 0 2.04.75 2.04 1.86v3.38h-.85v-.64c-.38.49-1.04.78-1.69.78m-.8-1.44c0 .43.35.74.94.74.67 0 1.22-.32 1.55-.86v-.99l-1.49.25c-.69.12-1 .43-1 .86m-5.524.61.6-.51c.35.44.77.69 1.28.69.56 0 .88-.34.88-.78 0-1.13-2.52-.73-2.52-2.51 0-.79.67-1.44 1.64-1.44.72 0 1.34.34 1.69.83l-.59.5c-.27-.38-.65-.62-1.09-.62-.54 0-.83.32-.83.71 0 1.13 2.53.77 2.53 2.49-.01.94-.76 1.53-1.7 1.53-.8 0-1.43-.32-1.89-.89m-8.366.69v-5.04h.85v.57c.41-.45.93-.77 1.68-.77 1.13 0 1.97.76 1.97 2.19v3.05h-.85v-3.02c0-.9-.51-1.42-1.29-1.42-.73 0-1.19.42-1.51.95v3.49zm-5.366 0v-7h3.76v.8h-2.82v2.24h2.42v.79h-2.42v2.37h2.82v.8z"/><path stroke="#000091" stroke-width=".5" d="M237.25 181.978h249.5v57.94h-249.5z"/><rect width="14" height="14" x="249.5" y="203.948" stroke="#929292" rx="2.5"/><path fill="#000" d="M391.604 198.927v-7h1.82l3.13 5.06v-5.06h1.42v7h-1.82l-3.13-5.06v5.06zm-5.171-7.199c2.2 0 3.71 1.7 3.71 3.7s-1.51 3.7-3.71 3.7c-2.21 0-3.72-1.7-3.72-3.7s1.51-3.7 3.72-3.7m0 6.07c1.31 0 2.25-1.03 2.25-2.37s-.94-2.37-2.25-2.37c-1.32 0-2.26 1.03-2.26 2.37s.94 2.37 2.26 2.37m-6.597 1.129v-7h1.42v7zm-7.087-5.71v-1.29h5.74v1.29h-2.16v5.71h-1.42v-5.71zm-6.918 5.71 2.65-7h1.86l2.65 7h-1.51l-.67-1.82h-2.8l-.67 1.82zm2.62-3.03h1.92l-.96-2.63zm-10.754 3.03v-7h1.77l1.71 2.94 1.71-2.94h1.77v7h-1.42v-5.02l-1.56 2.62h-1l-1.56-2.62v5.02zm-6.689 0v-7h2.14c1.54 0 2.49.79 2.49 2.09 0 .85-.41 1.48-1.13 1.81l2.19 3.1h-1.67l-1.87-2.83h-.73v2.83zm2.22-5.82h-.8v1.81h.8c.6 0 .95-.35.95-.92 0-.53-.35-.89-.95-.89m-7.391-1.379c2.2 0 3.71 1.7 3.71 3.7s-1.51 3.7-3.71 3.7c-2.21 0-3.72-1.7-3.72-3.7s1.51-3.7 3.72-3.7m0 6.07c1.31 0 2.25-1.03 2.25-2.37s-.94-2.37-2.25-2.37c-1.32 0-2.26 1.03-2.26 2.37s.94 2.37 2.26 2.37m-8.53 1.129v-7h4.08v1.18h-2.66v1.66h2.26v1.18h-2.26v2.98zm-8.526 0v-7h4.08v1.18h-2.66v1.66h2.26v1.18h-2.26v1.8h2.66v1.18zm-7.939 0v-7h2.75c2.22 0 3.72 1.61 3.72 3.5s-1.5 3.5-3.72 3.5zm2.77-5.71h-1.35v4.42h1.35c1.3 0 2.24-.97 2.24-2.21 0-1.25-.94-2.21-2.24-2.21m-11.296 5.71v-7h4.08v1.18h-2.66v1.66h2.26v1.18h-2.26v1.8h2.66v1.18zm-6.689 0v-7h2.14c1.54 0 2.49.79 2.49 2.09 0 .85-.41 1.48-1.13 1.81l2.19 3.1h-1.67l-1.87-2.83h-.73v2.83zm2.22-5.82h-.8v1.81h.8c.6 0 .95-.35.95-.92 0-.53-.35-.89-.95-.89m-9.307.11v-1.29h5.74v1.29h-2.16v5.71h-1.42v-5.71zm-7.708 5.71v-7h1.82l3.13 5.06v-5.06h1.42v7h-1.82l-3.13-5.06v5.06zm-5.83 0v-7h4.08v1.18h-2.66v1.66h2.26v1.18h-2.26v1.8h2.66v1.18zm-4.282-1.129c.8 0 1.43-.39 1.83-.96l1.12.86c-.64.87-1.68 1.43-2.95 1.43-2.21 0-3.72-1.7-3.72-3.7s1.51-3.7 3.72-3.7c1.27 0 2.31.57 2.95 1.42l-1.12.87c-.4-.57-1.03-.96-1.83-.96-1.32 0-2.26 1.03-2.26 2.37s.94 2.37 2.26 2.37m116.439 13.321.56-.512c.384.496.832.76 1.352.76.624 0 .984-.376.984-.888 0-1.264-2.656-.992-2.656-2.84 0-.832.688-1.512 1.664-1.512.784 0 1.36.36 1.776.912l-.568.496c-.328-.472-.72-.736-1.2-.736-.552 0-.904.344-.904.824 0 1.256 2.648.968 2.648 2.832 0 .968-.744 1.584-1.736 1.584-.824 0-1.432-.312-1.92-.92m-2.107.768v-5.6h.752v5.6zm-5.125 0v-5.6h1.488c1.128 0 1.824.616 1.824 1.576 0 .672-.344 1.176-.944 1.416l1.808 2.608h-.888l-1.624-2.464c-.056.008-.12.008-.176.008h-.736v2.456zm1.52-4.96h-.768v1.864h.768c.64 0 1.016-.344 1.016-.944 0-.568-.376-.92-1.016-.92m-8.098 4.96 2.232-5.6h1.008l2.232 5.6h-.8l-.648-1.648h-2.576l-.648 1.648zm1.696-2.296h2.08l-1.04-2.648zm-5.032 2.296v-5.6h1.64c1.12 0 1.816.616 1.816 1.576s-.696 1.568-1.816 1.568h-.888v2.456zm1.656-4.96h-.904v1.864h.904c.64 0 1.024-.344 1.024-.944 0-.568-.384-.92-1.024-.92m-7.377 5.12c-.864 0-1.416-.384-1.8-.952l.576-.44c.32.488.704.736 1.224.736 1.024 0 1.536-.848 1.568-2.24-.4.408-.928.632-1.552.632-1.048 0-1.768-.792-1.768-1.776 0-1.016.712-1.88 1.928-1.88 1.312 0 2.136.928 2.136 2.872 0 1.816-.72 3.048-2.312 3.048m-1.008-4.064c0 .648.48 1.152 1.136 1.152.568 0 1.08-.24 1.408-.728-.12-1.176-.648-1.624-1.352-1.624-.744 0-1.192.528-1.192 1.2m-3.486-1.856c1.408 0 2.096 1.296 2.096 2.96s-.688 2.96-2.096 2.96c-1.392 0-2.088-1.296-2.088-2.96s.696-2.96 2.088-2.96m.008.672c-.896 0-1.36.976-1.36 2.288s.464 2.288 1.36 2.288c.888 0 1.344-.976 1.344-2.288s-.456-2.288-1.344-2.288m-4.859-.672c1.408 0 2.096 1.296 2.096 2.96s-.688 2.96-2.096 2.96c-1.392 0-2.088-1.296-2.088-2.96s.696-2.96 2.088-2.96m.008.672c-.896 0-1.36.976-1.36 2.288s.464 2.288 1.36 2.288c.888 0 1.344-.976 1.344-2.288s-.456-2.288-1.344-2.288m-6.35 2.432.168-2.944h3.08v.648h-2.392l-.096 1.64h.808c1.32 0 1.944.72 1.944 1.712 0 1.072-.832 1.76-1.952 1.76-.96 0-1.608-.392-2.056-1.136l.632-.392c.344.624.808.88 1.416.88.704 0 1.224-.408 1.224-1.088 0-.648-.456-1.08-1.24-1.08zm-3.928 2.656h-.832l2.96-4.952h-3.12v-.648h3.888v.648zm-4.865 1.28h-.632l.68-2.12h.776zm-.108-6.88-2.264 3.088v2.512h-.752v-2.512l-2.272-3.088h.912l1.736 2.352 1.736-2.352zm-11.136 5.6v-5.6h.752v2.408h3.4v-2.408h.752v5.6h-.752v-2.512h-3.4v2.512zm-3.591-.544c.752 0 1.368-.368 1.744-.912l.6.464c-.512.696-1.336 1.152-2.344 1.152-1.752 0-2.944-1.36-2.944-2.96s1.192-2.96 2.944-2.96c1.008 0 1.832.464 2.344 1.152l-.6.464a2.09 2.09 0 0 0-1.744-.912c-1.264 0-2.168 1.008-2.168 2.256s.904 2.256 2.168 2.256m-4.995.544v-5.6h.752v5.6zm-4.188 0v-5.6h.752v4.912h2.256v.688zm-3.59-.544c.752 0 1.368-.368 1.744-.912l.6.464c-.512.696-1.336 1.152-2.344 1.152-1.752 0-2.944-1.36-2.944-2.96s1.192-2.96 2.944-2.96c1.008 0 1.832.464 2.344 1.152l-.6.464a2.09 2.09 0 0 0-1.744-.912c-1.264 0-2.168 1.008-2.168 2.256s.904 2.256 2.168 2.256m-9.128.544v-5.6h3.008v.64h-2.256v1.792h1.936v.632h-1.936v1.896h2.256v.64zm-6.399 0v-5.6h2.152c1.752 0 2.944 1.288 2.944 2.8s-1.192 2.8-2.944 2.8zm2.168-4.912h-1.416v4.224h1.416c1.248 0 2.152-.944 2.152-2.112 0-1.176-.904-2.112-2.152-2.112m-8.832 4.912v-5.6h3.008v.64h-2.256v1.792h1.936v.632h-1.936v1.896h2.256v.64zm-2.365-2.064v-3.536h.752v3.488c0 1.44-.856 2.272-2.168 2.272s-2.176-.832-2.176-2.272v-3.488h.752v3.536c0 .968.56 1.52 1.424 1.52.856 0 1.416-.552 1.416-1.52m-8.447 2.064v-5.6h1.488c1.128 0 1.824.616 1.824 1.576 0 .672-.344 1.176-.944 1.416l1.808 2.608h-.888l-1.624-2.464c-.056.008-.12.008-.176.008h-.736v2.456zm1.52-4.96h-.768v1.864h.768c.64 0 1.016-.344 1.016-.944 0-.568-.376-.92-1.016-.92m-8.538 2.304.169-2.944h3.08v.648h-2.392l-.096 1.64h.808c1.32 0 1.944.72 1.944 1.712 0 1.072-.833 1.76-1.953 1.76-.96 0-1.607-.392-2.055-1.136l.631-.392c.344.624.809.88 1.417.88.704 0 1.224-.408 1.224-1.088 0-.648-.457-1.08-1.24-1.08zm-1.175 1.112c0 1.016-.824 1.704-1.952 1.704-.968 0-1.608-.392-2.056-1.136l.632-.392c.344.616.792.88 1.416.88.696 0 1.216-.408 1.216-1.088 0-.632-.448-1.072-1.184-1.072h-.952v-.648h.84c.64 0 1.048-.384 1.048-.928 0-.568-.424-.888-1-.888-.504 0-.896.256-1.16.744l-.6-.368c.4-.656.992-1.024 1.808-1.024.968 0 1.688.584 1.688 1.472 0 .544-.256 1.008-.736 1.272.648.264.992.824.992 1.472M277 229.008h65.133v.74H277zm61.063-1.99.6-.51c.35.44.77.69 1.28.69.56 0 .88-.34.88-.78 0-1.13-2.52-.73-2.52-2.51 0-.79.67-1.44 1.64-1.44.72 0 1.34.34 1.69.83l-.59.5c-.27-.38-.65-.62-1.09-.62-.54 0-.83.32-.83.71 0 1.13 2.53.77 2.53 2.49-.01.94-.76 1.53-1.7 1.53-.8 0-1.43-.32-1.89-.89m-1.965-1.471v-2.88h.85v2.85c0 1.51-.87 2.39-2.24 2.39-1.36 0-2.23-.88-2.23-2.39v-2.85h.85v2.88c0 .99.53 1.56 1.39 1.56.84 0 1.38-.57 1.38-1.56m-6.157 2.161v-7.5h.85v7.5z"/><path fill="#000" d="M323.339 230.168v-7.5h.85v.6c.45-.51 1.04-.8 1.79-.8 1.58 0 2.59 1.25 2.59 2.72s-1.01 2.72-2.59 2.72c-.75 0-1.34-.29-1.79-.8v3.06zm2.54-6.9c-.7 0-1.31.34-1.69.94v1.96c.39.61 1 .94 1.69.94 1.07 0 1.8-.85 1.8-1.92s-.73-1.92-1.8-1.92m-9.21 4.439v-5.04h.85v.63c.37-.44.83-.73 1.47-.73.16 0 .31.02.43.06v.83c-.15-.04-.3-.06-.5-.06-.66 0-1.09.34-1.4.85v3.46zm-2.216-6.35c-.33 0-.6-.27-.6-.6a.6.6 0 0 1 .6-.59c.33 0 .59.27.59.59 0 .33-.26.6-.59.6m-.43 6.35v-5.04h.85v5.04zm-4.096-5.239c1.62 0 2.73 1.25 2.73 2.72s-1.11 2.72-2.73 2.72c-1.63 0-2.73-1.25-2.73-2.72s1.1-2.72 2.73-2.72m.01 4.64c1.05 0 1.82-.88 1.82-1.92 0-1.05-.77-1.92-1.82-1.92-1.08 0-1.85.87-1.85 1.92s.77 1.92 1.85 1.92m-8.334-4.441h.92l1.61 4.15 1.61-4.15h.92l-1.97 5.04h-1.12zm-3.437 5.181c-.99 0-1.66-.55-1.66-1.41 0-.76.58-1.3 1.65-1.48l1.7-.28v-.35c0-.7-.5-1.1-1.22-1.1-.58 0-1.05.27-1.36.7l-.64-.49c.44-.6 1.15-.97 2.03-.97 1.28 0 2.04.75 2.04 1.86v3.38h-.85v-.64c-.38.49-1.04.78-1.69.78m-.8-1.44c0 .43.35.74.94.74.67 0 1.22-.32 1.55-.86v-.99l-1.49.25c-.69.12-1 .43-1 .86m-5.524.61.6-.51c.35.44.77.69 1.28.69.56 0 .88-.34.88-.78 0-1.13-2.52-.73-2.52-2.51 0-.79.67-1.44 1.64-1.44.72 0 1.34.34 1.69.83l-.59.5c-.27-.38-.65-.62-1.09-.62-.54 0-.83.32-.83.71 0 1.13 2.53.77 2.53 2.49-.01.94-.76 1.53-1.7 1.53-.8 0-1.43-.32-1.89-.89m-8.366.69v-5.04h.85v.57c.41-.45.93-.77 1.68-.77 1.13 0 1.97.76 1.97 2.19v3.05h-.85v-3.02c0-.9-.51-1.42-1.29-1.42-.73 0-1.19.42-1.51.95v3.49zm-5.366 0v-7h3.76v.8h-2.82v2.24h2.42v.79h-2.42v2.37h2.82v.8z"/><path stroke="#000091" stroke-width=".5" d="M237.25 249.417h249.5v57.94h-249.5z"/><rect width="14" height="14" x="249.5" y="271.387" stroke="#929292" rx="2.5"/><path fill="#000" d="M348.706 260.657v-1.29h5.74v1.29h-2.16v5.71h-1.42v-5.71zm-6.918 5.71 2.65-7h1.86l2.65 7h-1.51l-.67-1.82h-2.8l-.67 1.82zm2.62-3.03h1.92l-.96-2.63zm-8.732 3.03v-7h2.14c1.54 0 2.49.79 2.49 2.09 0 .85-.41 1.48-1.13 1.81l2.19 3.1h-1.67l-1.87-2.83h-.73v2.83zm2.22-5.82h-.8v1.81h.8c.6 0 .95-.35.95-.92 0-.53-.35-.89-.95-.89m-9.307.11v-1.29h5.74v1.29h-2.16v5.71h-1.42v-5.71zm-5.74 4.74 1.03-.95c.42.54.98.86 1.55.86.56 0 .9-.3.9-.8 0-1.29-3.18-.94-3.18-3.31 0-1.11.92-2.03 2.26-2.03 1.05 0 1.85.47 2.45 1.18l-1.04.94c-.41-.53-.87-.88-1.4-.88-.5 0-.83.32-.83.74 0 1.27 3.18.91 3.18 3.31-.02 1.32-1.04 2.11-2.33 2.11-1.18 0-1.97-.43-2.59-1.17m-8.575 0 1.03-.95c.42.54.98.86 1.55.86.56 0 .9-.3.9-.8 0-1.29-3.18-.94-3.18-3.31 0-1.11.92-2.03 2.26-2.03 1.05 0 1.85.47 2.45 1.18l-1.04.94c-.41-.53-.87-.88-1.4-.88-.5 0-.83.32-.83.74 0 1.27 3.18.91 3.18 3.31-.02 1.32-1.04 2.11-2.33 2.11-1.18 0-1.97-.43-2.59-1.17m-2.653-1.65v-4.38h1.42v4.26c0 1.84-1.08 2.94-2.84 2.94-1.75 0-2.83-1.1-2.83-2.94v-4.26h1.42v4.38c0 .94.53 1.49 1.42 1.49.87 0 1.41-.55 1.41-1.49m-10.193 2.62v-7h2.31c1.54 0 2.48.79 2.48 2.09 0 1.29-.94 2.08-2.48 2.08h-.89v2.83zm2.37-5.82h-.95v1.81h.95c.6 0 .96-.35.96-.92 0-.53-.36-.89-.96-.89m-11.384 5.82v-7h1.77l1.71 2.94 1.71-2.94h1.77v7h-1.42v-5.02l-1.56 2.62h-1l-1.56-2.62v5.02zm-8.341 0 2.65-7h1.86l2.65 7h-1.51l-.67-1.82h-2.8l-.67 1.82zm2.62-3.03h1.92l-.96-2.63zm-5.973 1.9c.8 0 1.43-.39 1.83-.96l1.12.86c-.64.87-1.68 1.43-2.95 1.43-2.21 0-3.72-1.7-3.72-3.7s1.51-3.7 3.72-3.7c1.27 0 2.31.57 2.95 1.42l-1.12.87c-.4-.57-1.03-.96-1.83-.96-1.32 0-2.26 1.03-2.26 2.37s.94 2.37 2.26 2.37m111.673 13.322.56-.512c.384.496.832.76 1.352.76.624 0 .984-.376.984-.888 0-1.264-2.656-.992-2.656-2.84 0-.832.688-1.512 1.664-1.512.784 0 1.36.36 1.776.912l-.568.496c-.328-.472-.72-.736-1.2-.736-.552 0-.904.344-.904.824 0 1.256 2.648.968 2.648 2.832 0 .968-.744 1.584-1.736 1.584-.824 0-1.432-.312-1.92-.92m-2.107.768v-5.6h.752v5.6zm-5.125 0v-5.6h1.488c1.128 0 1.824.616 1.824 1.576 0 .672-.344 1.176-.944 1.416l1.808 2.608h-.888l-1.624-2.464c-.056.008-.12.008-.176.008h-.736v2.456zm1.52-4.96h-.768v1.864h.768c.64 0 1.016-.344 1.016-.944 0-.568-.376-.92-1.016-.92m-8.099 4.96 2.232-5.6h1.008l2.232 5.6h-.8l-.648-1.648h-2.576l-.648 1.648zm1.696-2.296h2.08l-1.04-2.648zm-5.031 2.296v-5.6h1.64c1.12 0 1.816.616 1.816 1.576s-.696 1.568-1.816 1.568h-.888v2.456zm1.656-4.96h-.904v1.864h.904c.64 0 1.024-.344 1.024-.944 0-.568-.384-.92-1.024-.92m-7.106-.8c1.408 0 2.096 1.296 2.096 2.96s-.688 2.96-2.096 2.96c-1.392 0-2.088-1.296-2.088-2.96s.696-2.96 2.088-2.96m.008.672c-.896 0-1.36.976-1.36 2.288s.464 2.288 1.36 2.288c.888 0 1.344-.976 1.344-2.288s-.456-2.288-1.344-2.288m-6.653 5.088v-.648l1.896-1.952c.656-.688.952-1 .952-1.592 0-.584-.424-.92-.992-.92-.592 0-.976.296-1.304.84l-.592-.36c.456-.712 1.08-1.128 1.952-1.128.936 0 1.68.608 1.68 1.52 0 .76-.496 1.328-1.168 2.032l-1.536 1.56h2.856v.648zm-2.901-5.76c1.408 0 2.096 1.296 2.096 2.96s-.688 2.96-2.096 2.96c-1.392 0-2.088-1.296-2.088-2.96s.696-2.96 2.088-2.96m.008.672c-.896 0-1.36.976-1.36 2.288s.464 2.288 1.36 2.288c.888 0 1.344-.976 1.344-2.288s-.456-2.288-1.344-2.288m-6.35 2.432.168-2.944h3.08v.648h-2.392l-.096 1.64h.808c1.32 0 1.944.72 1.944 1.712 0 1.072-.832 1.76-1.952 1.76-.96 0-1.608-.392-2.056-1.136l.632-.392c.344.624.808.88 1.416.88.704 0 1.224-.408 1.224-1.088 0-.648-.456-1.08-1.24-1.08zm-3.929 2.656h-.832l2.96-4.952h-3.12v-.648h3.888v.648zm-4.864 1.28h-.632l.68-2.12h.776zm-5.005-2.048.56-.512c.384.496.832.76 1.352.76.624 0 .984-.376.984-.888 0-1.264-2.656-.992-2.656-2.84 0-.832.688-1.512 1.664-1.512.784 0 1.36.36 1.776.912l-.568.496c-.328-.472-.72-.736-1.2-.736-.552 0-.904.344-.904.824 0 1.256 2.648.968 2.648 2.832 0 .968-.744 1.584-1.736 1.584-.824 0-1.432-.312-1.92-.92m-6.107.768 2.232-5.6h1.008l2.232 5.6h-.8l-.648-1.648h-2.576l-.648 1.648zm1.696-2.296h2.08l-1.04-2.648zm-5.344 2.296v-5.6h.752v4.912h2.256v.688zm-2.531 0v-5.6h.752v5.6zm-4.188 0v-5.6h.752v4.912h2.256v.688zm-7.283-.768.56-.512c.384.496.832.76 1.352.76.624 0 .984-.376.984-.888 0-1.264-2.656-.992-2.656-2.84 0-.832.688-1.512 1.664-1.512.784 0 1.36.36 1.776.912l-.568.496c-.328-.472-.72-.736-1.2-.736-.552 0-.904.344-.904.824 0 1.256 2.648.968 2.648 2.832 0 .968-.744 1.584-1.736 1.584-.824 0-1.432-.312-1.92-.92m-4.084.768v-5.6h3.008v.64h-2.256v1.792h1.936v.632h-1.936v1.896h2.256v.64zm-6.398 0v-5.6h2.152c1.752 0 2.944 1.288 2.944 2.8s-1.192 2.8-2.944 2.8zm2.168-4.912h-1.416v4.224h1.416c1.248 0 2.152-.944 2.152-2.112 0-1.176-.904-2.112-2.152-2.112m-8.832 4.912v-5.6h3.008v.64h-2.256v1.792h1.936v.632h-1.936v1.896h2.256v.64zm-2.366-2.064v-3.536h.752v3.488c0 1.44-.856 2.272-2.168 2.272s-2.176-.832-2.176-2.272v-3.488h.752v3.536c0 .968.56 1.52 1.424 1.52.856 0 1.416-.552 1.416-1.52m-8.447 2.064v-5.6h1.488c1.128 0 1.824.616 1.824 1.576 0 .672-.344 1.176-.944 1.416l1.808 2.608h-.888l-1.624-2.464c-.056.008-.12.008-.176.008h-.736v2.456zm1.52-4.96h-.768v1.864h.768c.64 0 1.016-.344 1.016-.944 0-.568-.376-.92-1.016-.92m-8.817 4.96v-.648l1.896-1.952c.656-.688.952-1 .952-1.592 0-.584-.424-.92-.992-.92-.592 0-.976.296-1.304.84l-.592-.36c.456-.712 1.08-1.128 1.952-1.128.936 0 1.68.608 1.68 1.52 0 .76-.496 1.328-1.168 2.032l-1.536 1.56h2.856v.648zm-2.25 0v-4.872l-1.48.8-.368-.512 1.84-1.016h.72v5.6zM277 296.448h65.133v.74H277zm61.063-1.991.6-.51c.35.44.77.69 1.28.69.56 0 .88-.34.88-.78 0-1.13-2.52-.73-2.52-2.51 0-.79.67-1.44 1.64-1.44.72 0 1.34.34 1.69.83l-.59.5c-.27-.38-.65-.62-1.09-.62-.54 0-.83.32-.83.71 0 1.13 2.53.77 2.53 2.49-.01.94-.76 1.53-1.7 1.53-.8 0-1.43-.32-1.89-.89m-1.965-1.47v-2.88h.85v2.85c0 1.51-.87 2.39-2.24 2.39-1.36 0-2.23-.88-2.23-2.39v-2.85h.85v2.88c0 .99.53 1.56 1.39 1.56.84 0 1.38-.57 1.38-1.56m-6.157 2.16v-7.5h.85v7.5z"/><path fill="#000" d="M323.339 297.607v-7.5h.85v.6c.45-.51 1.04-.8 1.79-.8 1.58 0 2.59 1.25 2.59 2.72s-1.01 2.72-2.59 2.72c-.75 0-1.34-.29-1.79-.8v3.06zm2.54-6.9c-.7 0-1.31.34-1.69.94v1.96c.39.61 1 .94 1.69.94 1.07 0 1.8-.85 1.8-1.92s-.73-1.92-1.8-1.92m-9.21 4.44v-5.04h.85v.63c.37-.44.83-.73 1.47-.73.16 0 .31.02.43.06v.83c-.15-.04-.3-.06-.5-.06-.66 0-1.09.34-1.4.85v3.46zm-2.216-6.35c-.33 0-.6-.27-.6-.6a.6.6 0 0 1 .6-.59c.33 0 .59.27.59.59 0 .33-.26.6-.59.6m-.43 6.35v-5.04h.85v5.04zm-4.096-5.24c1.62 0 2.73 1.25 2.73 2.72s-1.11 2.72-2.73 2.72c-1.63 0-2.73-1.25-2.73-2.72s1.1-2.72 2.73-2.72m.01 4.64c1.05 0 1.82-.88 1.82-1.92 0-1.05-.77-1.92-1.82-1.92-1.08 0-1.85.87-1.85 1.92s.77 1.92 1.85 1.92m-8.334-4.44h.92l1.61 4.15 1.61-4.15h.92l-1.97 5.04h-1.12zm-3.437 5.18c-.99 0-1.66-.55-1.66-1.41 0-.76.58-1.3 1.65-1.48l1.7-.28v-.35c0-.7-.5-1.1-1.22-1.1-.58 0-1.05.27-1.36.7l-.64-.49c.44-.6 1.15-.97 2.03-.97 1.28 0 2.04.75 2.04 1.86v3.38h-.85v-.64c-.38.49-1.04.78-1.69.78m-.8-1.44c0 .43.35.74.94.74.67 0 1.22-.32 1.55-.86v-.99l-1.49.25c-.69.12-1 .43-1 .86m-5.524.61.6-.51c.35.44.77.69 1.28.69.56 0 .88-.34.88-.78 0-1.13-2.52-.73-2.52-2.51 0-.79.67-1.44 1.64-1.44.72 0 1.34.34 1.69.83l-.59.5c-.27-.38-.65-.62-1.09-.62-.54 0-.83.32-.83.71 0 1.13 2.53.77 2.53 2.49-.01.94-.76 1.53-1.7 1.53-.8 0-1.43-.32-1.89-.89m-8.366.69v-5.04h.85v.57c.41-.45.93-.77 1.68-.77 1.13 0 1.97.76 1.97 2.19v3.05h-.85v-3.02c0-.9-.51-1.42-1.29-1.42-.73 0-1.19.42-1.51.95v3.49zm-5.366 0v-7h3.76v.8h-2.82v2.24h2.42v.79h-2.42v2.37h2.82v.8z"/></g><path fill="#fff" d="m261.849 139.836-6.438 7.143-4.184-3.732 1.332-1.493 2.699 2.408 5.105-5.666z"/><path fill="#24348c" d="M217.466 182.501c-6.325 0-12.391 2.476-16.863 6.882-4.472 4.407-6.984 10.383-6.984 16.615 0 .336 0 .668.026.997l-.026-.027v22.435h21.788c.679.057 1.365.095 2.059.095 3.157.039 6.291-.54 9.219-1.703a23.9 23.9 0 0 0 7.841-5.073 23.5 23.5 0 0 0 5.248-7.661 23.2 23.2 0 0 0 0-18.123 23.5 23.5 0 0 0-5.248-7.66 23.9 23.9 0 0 0-7.841-5.074 24.2 24.2 0 0 0-9.219-1.703"/><path fill="#fff" d="M208.098 210.5c1.555 0 2.521-1.29 2.521-3 0-1.711-1.007-3-2.48-3s-2.52 1.238-2.52 3c0 1.761 1.014 3 2.479 3m8 0c1.555 0 2.521-1.077 2.521-2.506s-.999-2.494-2.48-2.494-2.52 1.034-2.52 2.505c0 1.472 1.006 2.495 2.479 2.495m8.503 0c1.243 0 2.018-1.29 2.018-3 0-1.711-.808-3-1.982-3-1.175 0-2.018 1.238-2.018 3 0 1.761.808 3 1.982 3"/><path fill="#ff8d7e" d="M540.407 111.5a1.12 1.12 0 0 0 1.12-1.122V73.974a1.2 1.2 0 0 0-.082-.422 37 37 0 0 0-6.684-20.29 36.97 36.97 0 0 0-16.778-13.21 36.93 36.93 0 0 0-21.276-1.723 36.96 36.96 0 0 0-18.681 10.34 37 37 0 0 0-9.855 18.951 37.04 37.04 0 0 0 2.257 21.246 37 37 0 0 0 13.617 16.454 36.95 36.95 0 0 0 20.435 6.176z"/><path fill="#fff" d="M504.497 38.738a35.7 35.7 0 0 0-25.267 10.475 35.77 35.77 0 0 0-10.466 25.288A35.78 35.78 0 0 0 479.23 99.79a35.7 35.7 0 0 0 25.267 10.474h35.8V73.98l-.07.074a35.78 35.78 0 0 0-10.622-25.002 35.72 35.72 0 0 0-25.112-10.317zm-.004-2.239c9.873 0 19.357 3.85 26.441 10.732a38 38 0 0 1 11.507 26.13q.086.304.086.619v36.284a2.236 2.236 0 0 1-2.233 2.236h-35.801a37.95 37.95 0 0 1-26.846-11.13 38 38 0 0 1-11.12-26.869c0-10.077 4-19.742 11.12-26.868a37.95 37.95 0 0 1 26.846-11.13z"/><path fill="#fff" d="M502.805 84.99c-.284 0-.566-.058-.828-.17a2.2 2.2 0 0 1-.701-.485 2.23 2.23 0 0 1-.62-1.575c.026-1.911.064-3.18.116-3.77.08-.825.3-1.63.649-2.377a6.2 6.2 0 0 1 1.22-1.85c.452-.44 1.519-1.148 3.205-2.111a29 29 0 0 0 3.779-2.455 7.8 7.8 0 0 0 1.899-2.64c.443-1.007.672-2.1.672-3.205q0-3.514-2.481-5.521a9.04 9.04 0 0 0-5.858-2.007q-6.715 0-8.819 6.98a2.37 2.37 0 0 1-1.035 1.358 2.27 2.27 0 0 1-1.659.283 2.3 2.3 0 0 1-.865-.397 2.35 2.35 0 0 1-.636-.72 2.4 2.4 0 0 1-.215-1.888q2.92-9.94 13.472-9.94 6.021 0 9.722 3.375t3.705 8.652q0 6.882-7.708 10.985-3.357 1.815-4.104 2.852-.746 1.035-.746 3.227v1.17a2.23 2.23 0 0 1-.625 1.58 2.2 2.2 0 0 1-.706.483 2.1 2.1 0 0 1-.833.165m3.179 7.45c0 .809-.312 1.584-.868 2.157a2.95 2.95 0 0 1-2.098.903h-.149a2.95 2.95 0 0 1-2.099-.903 3.1 3.1 0 0 1-.867-2.156 3.1 3.1 0 0 1 .874-2.144 2.95 2.95 0 0 1 2.092-.896h.149a2.95 2.95 0 0 1 2.092.896c.555.57.869 1.34.874 2.144"/><defs><filter id="a" width="302" height="339.108" x="211" y=".5" color-interpolation-filters="sRGB" filterUnits="userSpaceOnUse"><feFlood flood-opacity="0" result="BackgroundImageFix"/><feColorMatrix in="SourceAlpha" result="hardAlpha" values="0 0 0 0 0 0 0 0 0 0 0 0 0 0 0 0 0 0 127 0"/><feOffset dy="10"/><feGaussianBlur stdDeviation="5"/><feColorMatrix values="0 0 0 0 0 0 0 0 0 0 0 0 0 0 0 0 0 0 0.16 0"/><feBlend in2="BackgroundImageFix" result="effect1_dropShadow_21940_46156"/><feBlend in="SourceGraphic" in2="effect1_dropShadow_21940_46156" result="shape"/></filter></defs></svg>