
<svg width="549" height="320" viewBox="0 0 549 320" fill="none" xmlns="http://www.w3.org/2000/svg">
<rect x="265.923" y="36.9619" width="111" height="249" rx="20" fill="#E3E3FD"/>
<path d="M369.406 31.9619H281.443C276.399 31.9619 271.561 33.9786 267.994 37.5685C264.427 41.1583 262.423 46.0271 262.423 51.1038V170.616H269.346V51.2161C269.346 45.6419 273.962 41.1245 279.693 41.1245H299.375V45.3361C299.378 45.6684 299.446 45.9967 299.576 46.3023C299.706 46.6079 299.894 46.8847 300.13 47.1168C300.367 47.3488 300.646 47.5316 300.953 47.6545C301.26 47.7774 301.587 47.838 301.918 47.8329H338.308C338.638 47.838 338.965 47.7778 339.271 47.6557C339.577 47.5335 339.856 47.3519 340.093 47.1211C340.329 46.8903 340.518 46.6149 340.649 46.3107C340.78 46.0064 340.85 45.6792 340.855 45.3477V41.1245H360.533C366.248 41.1245 370.879 45.6419 370.879 51.2161V175.962H377.691V49.7684C377.691 41.6393 370.887 34.989 362.517 34.989C362.211 34.989 361.918 34.8667 361.701 34.6489C361.485 34.4311 361.364 34.1357 361.364 33.8277C361.364 33.5197 361.485 33.2243 361.701 33.0066C361.918 32.7888 362.211 32.6664 362.517 32.6664C372.156 32.6664 379.999 40.3387 379.999 49.7684V175.962H388.423V51.1038C388.423 46.0278 386.419 41.1595 382.853 37.5698C379.287 33.9801 374.45 31.9629 369.406 31.9619V31.9619Z" fill="#2E186A"/>
<path d="M269.423 170.962H262.423V270.962H269.423V170.962Z" fill="#2E186A"/>
<path d="M370.423 143.962V196.696L377.423 197.962V143.962H370.423Z" fill="#2E186A"/>
<path d="M377.423 266.583C377.423 266.583 377.423 266.553 377.423 266.541V189.047L370.625 187.962V269.66C370.625 275.199 366.019 279.688 360.3 279.688H279.626C274.168 279.688 269.7 275.572 269.332 270.36H262.423C262.976 280.361 271.508 288.962 281.614 288.962L363.643 288.304C363.641 288.043 363.727 287.79 363.888 287.584C364.048 287.379 364.273 287.234 364.526 287.173C370.095 285.839 373.953 282.015 375.991 275.811C376.95 272.83 377.433 269.715 377.423 266.583Z" fill="#2E186A"/>
<path d="M379.931 143.962V267.009C379.967 270.413 379.453 273.8 378.411 277.041C376.538 282.78 373.118 286.843 368.423 288.962H369.253C374.337 288.961 379.212 286.943 382.807 283.352C386.402 279.762 388.422 274.892 388.423 269.813V143.962H379.931Z" fill="#2E186A"/>
<path d="M363.456 289.187C363.52 289.408 363.673 289.604 363.89 289.744C364.107 289.885 364.376 289.961 364.652 289.962C364.749 289.963 364.846 289.954 364.94 289.935C366.136 289.703 367.303 289.377 368.423 288.962H363.423C363.422 289.038 363.433 289.114 363.456 289.187Z" fill="#2E186A"/>
<path fill-rule="evenodd" clip-rule="evenodd" d="M446.423 288.11C446.426 288.748 445.91 289.267 445.27 289.27L30.5731 291.959C29.9335 291.962 29.4127 291.448 29.4097 290.81C29.4068 290.173 29.9229 289.654 30.5624 289.651L445.259 286.962C445.899 286.959 446.42 287.473 446.423 288.11Z" fill="#2E186A"/>
<path fill-rule="evenodd" clip-rule="evenodd" d="M197.803 206.75C197.724 206.671 197.645 206.592 197.566 206.513C191.738 201.276 186.146 194.778 180.712 192.219C179.294 184.894 173.151 176.703 148.5 181.232C132.984 185.052 129.558 190.762 131.291 196.354C125.975 199.543 115.106 207.34 105.38 222.423C91.9119 243.333 135.387 276.372 143.066 276.372C150.744 276.372 204.812 255.265 204.812 255.265L208.002 245.656C212.53 231.795 208.593 216.516 197.803 206.75Z" fill="#FF8D7E"/>
<path fill-rule="evenodd" clip-rule="evenodd" d="M180.712 192.179C181.303 195.211 181.067 198.086 180.988 199.819C180.673 207.143 176.774 210.609 175.947 213.326C181.263 210.136 186.225 202.812 188.627 198.047C187.052 196.59 183.351 193.479 180.712 192.179Z" fill="#2F4077"/>
<path fill-rule="evenodd" clip-rule="evenodd" d="M150.39 213.877C147.752 212.657 133.457 204.426 131.173 195.999C128.456 197.456 125.109 199.583 122.51 202.733C125.542 204.584 142.672 214.744 150.233 214.192C150.351 214.192 150.43 214.192 150.548 214.153C150.469 214.074 150.43 213.956 150.39 213.877Z" fill="#2F4077"/>
<path fill-rule="evenodd" clip-rule="evenodd" d="M145.546 192.179L142.475 195.33C142.475 195.33 157.085 206.435 161.81 233.173C164.882 250.539 166.496 266.882 166.496 266.882L175.553 266.409C175.553 266.409 167.874 223.132 171.025 213.996C174.175 204.86 171.3 194.582 169.174 192.928C167.008 191.234 145.546 192.179 145.546 192.179Z" fill="white"/>
<path fill-rule="evenodd" clip-rule="evenodd" d="M142.672 173.316C142.672 173.316 137.395 174.734 139.521 179.223C141.648 183.713 146.807 179.538 146.807 179.538L144.365 173.001L142.672 173.316Z" fill="white"/>
<path fill-rule="evenodd" clip-rule="evenodd" d="M144.149 171.841L142.456 172.156C142.425 172.162 142.395 172.168 142.365 172.176L142.248 172.21C142.097 172.256 141.897 172.325 141.66 172.42C141.161 172.621 140.661 172.875 140.188 173.191C138.007 174.647 137.117 176.909 138.454 179.73C139.376 181.676 140.923 182.574 142.774 182.479C143.85 182.424 144.94 182.047 146.018 181.459C146.695 181.09 147.226 180.72 147.55 180.458C147.945 180.138 148.091 179.602 147.913 179.126L145.472 172.589C145.271 172.051 144.713 171.736 144.149 171.841ZM143.605 174.345L145.38 179.095L145.253 179.174C145.134 179.246 145.012 179.317 144.886 179.385C144.093 179.818 143.319 180.086 142.654 180.12C141.746 180.166 141.096 179.789 140.589 178.719C139.805 177.063 140.218 176.012 141.5 175.156C141.827 174.938 142.184 174.756 142.541 174.613L142.609 174.586C142.719 174.543 142.811 174.511 142.88 174.488L142.941 174.469L143.605 174.345Z" fill="#2F4077"/>
<path fill-rule="evenodd" clip-rule="evenodd" d="M154.052 154.651C155.431 154.178 164.842 151.225 167.875 158.943C170.907 166.662 171.931 175.758 172.049 180.011C172.167 184.264 153.383 186.903 152.241 186.824C151.099 186.706 149.563 185.8 149.563 185.8L144.011 174.144C144.05 174.183 139.364 159.613 154.052 154.651Z" fill="white"/>
<path fill-rule="evenodd" clip-rule="evenodd" d="M156.137 152.878C155.247 153.054 154.475 153.266 153.828 153.48L153.669 153.533C148.083 155.42 144.658 158.79 143.1 163.187C141.97 166.378 141.922 169.729 142.509 172.881C142.589 173.311 142.675 173.697 142.763 174.046L142.818 174.258L142.841 174.342L142.843 174.351C142.862 174.449 142.896 174.55 142.944 174.652L148.497 186.308C148.598 186.52 148.76 186.698 148.963 186.817L149.103 186.898C149.355 187.04 149.703 187.218 150.107 187.398C150.468 187.558 150.823 187.694 151.167 187.798C151.5 187.899 151.817 187.967 152.119 187.999L152.16 188.002C153.182 188.073 158.497 187.241 162.563 186.27L162.898 186.189C169.509 184.57 173.307 182.751 173.23 179.978C173.056 173.717 171.577 165.137 168.974 158.511C167.449 154.629 164.369 152.774 160.411 152.546C159.007 152.465 157.566 152.595 156.137 152.878ZM160.275 154.904C163.379 155.083 165.619 156.433 166.775 159.375C169.268 165.72 170.701 174.037 170.868 180.043C170.872 180.18 170.764 180.387 170.465 180.671C170.08 181.036 169.467 181.425 168.654 181.815C167.113 182.553 164.942 183.256 162.336 183.894C160.375 184.374 158.241 184.799 156.203 185.134L155.52 185.244L155.111 185.306C153.813 185.501 152.709 185.631 152.393 185.644L152.34 185.645L152.362 185.648C152.223 185.634 152.049 185.596 151.85 185.536C151.609 185.463 151.343 185.361 151.065 185.238L150.896 185.161C150.784 185.108 150.674 185.054 150.567 185L150.466 184.947L145.125 173.734L145.078 173.56C145.07 173.53 145.062 173.499 145.054 173.467C144.977 173.164 144.902 172.826 144.832 172.447C144.314 169.669 144.356 166.716 145.327 163.976C146.643 160.262 149.525 157.427 154.43 155.77C155.019 155.568 155.746 155.364 156.597 155.195C157.843 154.948 159.089 154.836 160.275 154.904Z" fill="#2F4077"/>
<path fill-rule="evenodd" clip-rule="evenodd" d="M149.09 183.241L148.736 189.108L145.861 192.416V192.416C145.861 192.416 154.407 197.693 162.637 207.026C162.637 207.026 169.331 199.938 170.513 188.872L149.09 183.241Z" fill="white"/>
<path fill-rule="evenodd" clip-rule="evenodd" d="M147.911 183.167L147.581 188.634L144.97 191.639C144.508 192.17 144.613 192.978 145.178 193.378L145.241 193.419C145.288 193.449 145.381 193.507 145.515 193.594L145.829 193.799C146.05 193.945 146.294 194.109 146.559 194.291L147.024 194.614C147.97 195.275 149.003 196.035 150.104 196.891C153.78 199.748 157.456 203.077 160.885 206.839C161.177 207.159 161.465 207.481 161.751 207.805C162.211 208.326 163.019 208.34 163.496 207.835L163.596 207.726C163.882 207.413 164.311 206.9 164.839 206.2C165.817 204.902 166.794 203.397 167.704 201.7C169.772 197.849 171.197 193.59 171.688 188.995C171.75 188.415 171.378 187.876 170.813 187.727L149.391 182.096C148.67 181.907 147.956 182.423 147.911 183.167ZM150.183 184.747L169.213 189.749L169.206 189.806C168.657 193.675 167.393 197.286 165.623 200.583C164.772 202.168 163.861 203.572 162.952 204.778L162.72 205.082L162.609 205.223L162.631 205.248C159.106 201.379 155.33 197.961 151.554 195.025C150.231 193.997 149.001 193.101 147.896 192.343L147.64 192.168L149.628 189.881C149.799 189.684 149.9 189.437 149.915 189.177L150.183 184.747Z" fill="#2F4077"/>
<path fill-rule="evenodd" clip-rule="evenodd" d="M145.861 173.592C147.003 174.261 150.666 178.711 151.847 180.916C151.847 180.916 157.399 177.451 166.023 175.167C166.023 175.167 170.749 174.104 172.757 174.182C172.757 174.182 174.411 182.649 171.655 187.926C168.898 193.203 160.51 193.99 156.1 192.336C151.65 190.682 150.744 189.58 149.169 187.02C147.594 184.46 142.711 174.616 142.711 174.616L145.861 173.592Z" fill="#869ECE"/>
<path fill-rule="evenodd" clip-rule="evenodd" d="M143.814 175.995C143.814 175.995 140.388 172.765 138.419 168.985C136.568 165.441 137.356 161.07 140.427 158.51C142.987 156.384 145.428 156.935 145.428 156.935C145.428 156.935 141.018 152.446 144.523 146.618C145.743 144.57 147.791 143.113 150.114 142.601C155.824 141.38 158.778 145.712 158.778 145.712C158.778 145.712 162.086 133.071 176.183 136.576C177.601 136.93 179.491 138.427 180.476 139.529C186.461 146.106 175.12 158.392 168.229 160.873C160.668 163.551 155.824 163.393 152.871 162.133C154.997 162.842 155.785 174.931 143.814 175.995Z" fill="#2F4077"/>
<path fill-rule="evenodd" clip-rule="evenodd" d="M164.469 170.989C165.059 170.769 165.713 171.051 165.963 171.62L165.989 171.684L168.627 178.772C168.909 179.529 168.366 180.331 167.572 180.365L167.503 180.366L164.747 180.326C164.094 180.317 163.573 179.78 163.582 179.128C163.591 178.499 164.09 177.992 164.711 177.965L164.78 177.964L165.811 177.978L163.774 172.508C163.555 171.918 163.836 171.265 164.405 171.015L164.469 170.989Z" fill="#2F4077"/>
<path fill-rule="evenodd" clip-rule="evenodd" d="M168.407 172.45C168.829 172.346 169.044 171.748 168.888 171.115C168.731 170.481 168.262 170.052 167.84 170.157C167.418 170.261 167.202 170.859 167.359 171.492C167.515 172.126 167.984 172.555 168.407 172.45Z" fill="#2F4077"/>
<path fill-rule="evenodd" clip-rule="evenodd" d="M161.668 174.04C162.102 174.017 162.426 173.47 162.39 172.818C162.355 172.167 161.974 171.658 161.54 171.681C161.106 171.705 160.782 172.252 160.818 172.903C160.853 173.555 161.234 174.064 161.668 174.04Z" fill="#2F4077"/>
<path fill-rule="evenodd" clip-rule="evenodd" d="M159.444 167.017C160.096 166.994 160.644 167.504 160.667 168.156C160.69 168.784 160.217 169.316 159.598 169.374L159.529 169.378C158.883 169.401 158.384 169.629 157.983 170.004C157.751 170.221 157.604 170.433 157.543 170.549L157.529 170.579C157.258 171.172 156.557 171.434 155.964 171.163C155.37 170.892 155.109 170.191 155.38 169.597L155.432 169.49C155.483 169.393 155.552 169.275 155.64 169.141C155.835 168.846 156.076 168.553 156.369 168.279C157.167 167.532 158.197 167.062 159.444 167.017Z" fill="#2F4077"/>
<path fill-rule="evenodd" clip-rule="evenodd" d="M167.923 162.789C168.791 162.79 169.584 163.077 170.206 163.7C170.668 164.161 170.668 164.909 170.206 165.371C169.763 165.814 169.056 165.831 168.592 165.424L168.536 165.371C168.386 165.221 168.195 165.152 167.919 165.151C167.585 165.151 167.177 165.256 166.756 165.436C166.6 165.504 166.455 165.576 166.326 165.647L166.192 165.725C165.643 166.079 164.912 165.921 164.558 165.373C164.205 164.824 164.362 164.093 164.911 163.74C165.11 163.611 165.424 163.437 165.823 163.266C166.515 162.968 167.219 162.787 167.923 162.789Z" fill="#2F4077"/>
<path fill-rule="evenodd" clip-rule="evenodd" d="M165.591 181.274L161.456 181.55C160.538 181.611 160.039 182.652 160.567 183.406C160.642 183.514 160.761 183.654 160.927 183.812C161.175 184.047 161.479 184.276 161.843 184.484C162.601 184.916 163.534 185.212 164.648 185.322C164.696 185.326 164.744 185.328 164.793 185.327C166.091 185.295 166.893 184.501 166.983 183.396C167.012 183.045 166.969 182.705 166.883 182.376C166.842 182.221 166.8 182.097 166.764 182.009C166.573 181.537 166.1 181.24 165.591 181.274Z" fill="#2F4077"/>
<path fill-rule="evenodd" clip-rule="evenodd" d="M153.229 213.118C153.823 212.91 154.471 213.204 154.71 213.778L154.741 213.862L154.881 214.275L155.034 214.743C155.087 214.909 155.142 215.083 155.199 215.265L155.257 215.451C155.644 216.702 156.031 218.069 156.393 219.507C157.014 221.977 157.493 224.398 157.776 226.678C157.826 227.08 157.87 227.475 157.907 227.865C157.968 228.514 157.491 229.091 156.842 229.152C156.192 229.214 155.616 228.737 155.554 228.087C155.52 227.721 155.479 227.348 155.432 226.969C155.162 224.794 154.7 222.466 154.101 220.083C153.786 218.828 153.45 217.628 153.112 216.516L152.999 216.149C152.925 215.907 152.853 215.68 152.785 215.468L152.504 214.623C152.289 214.007 152.613 213.333 153.229 213.118Z" fill="#2F4077"/>
<path fill-rule="evenodd" clip-rule="evenodd" d="M173.788 212.556C174.431 212.669 174.861 213.281 174.748 213.924L174.718 214.107L174.652 214.534L174.634 214.657C174.546 215.257 174.457 215.937 174.375 216.681C174.026 219.837 173.89 223.074 174.09 226.079C174.121 226.548 174.16 227.008 174.208 227.457C174.277 228.105 173.807 228.687 173.158 228.756C172.51 228.825 171.928 228.356 171.859 227.707C171.807 227.226 171.765 226.736 171.732 226.236C171.522 223.073 171.663 219.705 172.027 216.422C172.101 215.745 172.181 215.119 172.261 214.553L172.334 214.062L172.421 213.517C172.533 212.874 173.145 212.444 173.788 212.556Z" fill="#2F4077"/>
<path fill-rule="evenodd" clip-rule="evenodd" d="M140.982 225.123C141.47 224.69 142.217 224.734 142.65 225.222C143.066 225.691 143.041 226.4 142.605 226.839L142.55 226.89L136.25 232.482C135.859 232.829 135.287 232.878 134.843 232.602C131.36 230.442 128.484 230.517 126.145 231.891C125.79 232.099 125.482 232.322 125.225 232.541L125.126 232.627C125.068 232.679 125.023 232.721 124.993 232.751L124.959 232.787C124.52 233.269 123.773 233.305 123.29 232.866C122.807 232.427 122.772 231.68 123.211 231.197C123.307 231.092 123.468 230.934 123.692 230.743C124.051 230.437 124.47 230.135 124.948 229.854C127.799 228.179 131.295 227.975 135.195 230.077L135.322 230.146L140.982 225.123Z" fill="#2F4077"/>
<path fill-rule="evenodd" clip-rule="evenodd" d="M133.848 230.739C134.159 230.193 134.839 229.989 135.396 230.263L151.676 239.496C151.781 239.554 151.851 239.593 151.886 239.611C152.463 239.915 152.685 240.629 152.381 241.206C152.088 241.762 151.415 241.988 150.85 241.733L150.734 241.674C150.387 241.485 148.96 240.68 146.647 239.369L138.781 234.903L134.291 232.35C133.724 232.027 133.525 231.306 133.848 230.739Z" fill="#2F4077"/>
<path fill-rule="evenodd" clip-rule="evenodd" d="M186.691 222.919C187.266 222.663 187.935 222.904 188.22 223.456L188.25 223.519L191.4 230.607C191.665 231.203 191.397 231.901 190.801 232.166C190.226 232.422 189.556 232.181 189.271 231.629L189.241 231.566L186.091 224.478C185.826 223.882 186.094 223.184 186.691 222.919Z" fill="#2F4077"/>
<path fill-rule="evenodd" clip-rule="evenodd" d="M150.587 265.227C150.587 265.227 134.954 259.556 115.579 247.861C96.2437 236.165 83.918 254.28 89.1161 261.644C93.7235 268.18 119.477 290.587 119.477 290.587L207.175 289.957C207.175 289.957 227.77 267.354 230.999 263.849C241.947 251.878 232.89 245.577 220.879 244.632C209.577 243.765 179.019 263.14 175.278 265.66L150.587 265.227Z" fill="#2F4077"/>
<path fill-rule="evenodd" clip-rule="evenodd" d="M204.222 230.378H147.87C147.122 230.378 146.492 230.89 146.334 231.599L138.695 263.929H124.518C124.518 263.929 123.219 270.545 130.701 270.545C132.63 270.545 135.465 270.545 138.655 270.545C138.813 270.584 138.931 270.623 139.128 270.623H195.479C196.228 270.623 196.858 270.112 197.015 269.403L205.757 232.347C206.033 231.323 205.245 230.378 204.222 230.378Z" fill="#6A6AF4"/>
<path fill-rule="evenodd" clip-rule="evenodd" d="M204.422 83.91C204.437 84.4477 204.002 84.8953 203.45 84.9096L201.45 84.9616C200.897 84.9759 200.438 84.5516 200.423 84.0139C200.408 83.4761 200.844 83.0286 201.396 83.0142L203.396 82.9623C203.948 82.9479 204.408 83.3722 204.422 83.91Z" fill="#2E186A"/>
<path fill-rule="evenodd" clip-rule="evenodd" d="M197.423 84.0903C197.436 84.7264 196.93 85.2526 196.293 85.2656C195.506 85.2817 194.727 85.2967 193.956 85.3109C193.319 85.3227 192.793 84.8165 192.781 84.1804C192.77 83.5443 193.277 83.0192 193.914 83.0074C194.683 82.9932 195.46 82.9782 196.246 82.9622C196.883 82.9491 197.41 83.4542 197.423 84.0903ZM190.463 84.2195C190.473 84.8556 189.965 85.3795 189.328 85.3897C188.61 85.4012 187.901 85.4123 187.199 85.4233C186.358 85.4365 185.527 85.4496 184.705 85.4628C184.068 85.4731 183.543 84.9658 183.533 84.3296C183.523 83.6935 184.031 83.1695 184.668 83.1592C185.489 83.146 186.322 83.1329 187.164 83.1197C187.866 83.1087 188.575 83.0975 189.291 83.0861C189.928 83.0759 190.452 83.5833 190.463 84.2195ZM181.223 84.3695C181.236 85.0056 180.73 85.5314 180.092 85.5439C178.511 85.575 176.969 85.6098 175.465 85.6513C174.828 85.6689 174.297 85.1676 174.279 84.5316C174.262 83.8956 174.764 83.3658 175.401 83.3483C176.913 83.3065 178.461 83.2716 180.047 83.2404C180.684 83.2279 181.211 83.7334 181.223 84.3695ZM171.955 84.6092C171.982 85.2448 171.487 85.7815 170.85 85.8078C169.278 85.8728 167.751 85.9497 166.265 86.0427C165.629 86.0825 165.081 85.6 165.041 84.965C165.002 84.33 165.485 83.783 166.121 83.7433C167.625 83.6492 169.169 83.5714 170.755 83.5059C171.392 83.4795 171.929 83.9735 171.955 84.6092ZM162.717 85.1424C162.777 85.7758 162.311 86.3375 161.677 86.3971C160.115 86.5436 158.604 86.7151 157.14 86.9172C156.509 87.0043 155.926 86.564 155.839 85.9337C155.752 85.3035 156.193 84.722 156.824 84.6349C158.326 84.4277 159.87 84.2525 161.461 84.1032C162.095 84.0437 162.658 84.5089 162.717 85.1424ZM153.541 86.3141C153.666 86.938 153.26 87.5447 152.635 87.6693C151.112 87.9728 149.644 88.321 148.226 88.721C147.612 88.894 146.975 88.5378 146.802 87.9256C146.628 87.3133 146.985 86.6768 147.598 86.5039C149.08 86.0859 150.608 85.724 152.184 85.4099C152.808 85.2854 153.416 85.6902 153.541 86.3141ZM144.603 88.656C144.835 89.2484 144.542 89.9167 143.949 90.1487C142.539 90.7003 141.179 91.32 139.864 92.0169C139.302 92.3152 138.603 92.1015 138.304 91.5396C138.006 90.9776 138.22 90.2803 138.782 89.9819C140.179 89.2417 141.619 88.5855 143.108 88.0035C143.701 87.7715 144.37 88.0636 144.603 88.656ZM136.325 92.749C136.69 93.2701 136.564 93.9884 136.042 94.3535C134.839 95.1948 133.671 96.1201 132.533 97.1388C132.059 97.5636 131.33 97.5239 130.904 97.0503C130.479 96.5767 130.519 95.8484 130.993 95.4236C132.198 94.3444 133.438 93.3615 134.718 92.4664C135.24 92.1014 135.959 92.228 136.325 92.749ZM129.268 98.6913C129.742 99.1164 129.781 99.8448 129.355 100.318C128.381 101.4 127.428 102.566 126.49 103.822C126.11 104.333 125.387 104.438 124.876 104.058C124.365 103.678 124.259 102.956 124.64 102.446C125.617 101.137 126.615 99.9163 127.639 98.7785C128.064 98.3052 128.794 98.2661 129.268 98.6913ZM45.4827 106.926C45.4836 107.562 44.9678 108.079 44.3306 108.08C43.3557 108.081 42.3793 108.139 41.4062 108.253C40.4331 108.368 39.47 108.538 38.5216 108.763C37.9017 108.911 37.2797 108.528 37.1324 107.909C36.9852 107.29 37.3683 106.669 37.9882 106.522C39.0232 106.276 40.0742 106.09 41.1361 105.965C42.198 105.84 43.2636 105.777 44.3274 105.776C44.9646 105.775 45.4818 106.29 45.4827 106.926ZM123.574 105.957C124.111 106.298 124.271 107.01 123.929 107.547C123.144 108.781 122.369 110.088 121.603 111.47C121.294 112.027 120.592 112.229 120.035 111.921C119.477 111.613 119.276 110.912 119.584 110.355C120.371 108.934 121.17 107.588 121.981 106.312C122.323 105.775 123.036 105.616 123.574 105.957ZM49.282 107.363C49.4275 106.743 50.0484 106.359 50.6687 106.504C51.7044 106.747 52.7278 107.05 53.7335 107.413C54.7393 107.775 55.7204 108.195 56.6726 108.669C57.2428 108.952 57.4747 109.644 57.1905 110.213C56.9062 110.783 56.2135 111.014 55.6433 110.731C54.7708 110.296 53.8717 109.912 52.9501 109.58C52.0284 109.247 51.0906 108.97 50.1416 108.747C49.5212 108.602 49.1364 107.982 49.282 107.363ZM33.539 109.216C33.8248 109.784 33.5948 110.477 33.0254 110.762C32.1541 111.199 31.3066 111.686 30.4876 112.223C29.6686 112.76 28.8837 113.343 28.1362 113.968C27.6477 114.376 26.9201 114.312 26.511 113.824C26.102 113.337 26.1665 112.61 26.655 112.202C27.4707 111.52 28.3273 110.884 29.221 110.298C30.1147 109.711 31.0395 109.179 31.9904 108.703C32.5598 108.417 33.2532 108.647 33.539 109.216ZM60.3929 112.301C60.8005 111.812 61.528 111.746 62.0176 112.153C62.8352 112.832 63.6148 113.56 64.3519 114.334C65.089 115.107 65.7785 115.921 66.4178 116.77C66.8006 117.278 66.6981 118.001 66.1888 118.383C65.6795 118.765 64.9563 118.663 64.5734 118.154C63.9876 117.376 63.3558 116.631 62.6803 115.922C62.0049 115.213 61.2905 114.546 60.5413 113.923C60.0516 113.516 59.9852 112.79 60.3929 112.301ZM118.963 113.978C119.535 114.259 119.771 114.949 119.49 115.52C118.841 116.838 118.197 118.215 117.556 119.655C117.298 120.236 116.616 120.498 116.034 120.24C115.451 119.982 115.189 119.301 115.448 118.72C116.099 117.255 116.756 115.85 117.419 114.504C117.7 113.933 118.392 113.698 118.963 113.978ZM23.8825 116.598C24.3928 116.979 24.4973 117.701 24.1159 118.21C23.5322 118.99 22.9928 119.805 22.5009 120.651C22.009 121.497 21.5681 122.369 21.1796 123.262C20.9256 123.845 20.246 124.113 19.6616 123.859C19.0773 123.605 18.8094 122.927 19.0634 122.343C19.4874 121.369 19.9686 120.418 20.5054 119.494C21.0421 118.571 21.6308 117.682 22.2677 116.831C22.6492 116.321 23.3721 116.217 23.8825 116.598ZM68.1178 121.68C68.7015 121.425 69.3818 121.69 69.6374 122.273C70.0635 123.245 70.4341 124.243 70.7465 125.262C70.747 125.264 70.7475 125.265 70.7479 125.267L70.7487 125.269L70.7587 125.301C70.7672 125.329 70.7793 125.369 70.7947 125.42C70.8254 125.523 70.8691 125.673 70.9231 125.867C71.031 126.256 71.1801 126.822 71.3486 127.546C71.4928 128.166 71.1067 128.785 70.4861 128.929C69.8655 129.073 69.2454 128.687 69.1011 128.068C68.9404 127.378 68.7995 126.842 68.6996 126.483C68.6497 126.303 68.61 126.167 68.5834 126.078C68.57 126.033 68.56 126 68.5535 125.979L68.5465 125.957L68.5451 125.952C68.5451 125.952 68.545 125.952 68.545 125.952L68.545 125.952C68.5438 125.948 68.5426 125.944 68.5414 125.94C68.2549 125.005 67.9148 124.089 67.5238 123.197C67.2682 122.615 67.5342 121.935 68.1178 121.68ZM115.129 122.37C115.72 122.609 116.003 123.281 115.763 123.871C115.476 124.577 115.188 125.297 114.902 126.03C114.623 126.743 114.336 127.446 114.043 128.138C113.794 128.724 113.117 128.998 112.53 128.75C111.944 128.502 111.669 127.825 111.918 127.24C112.203 126.567 112.481 125.885 112.752 125.192L113.827 125.611L112.752 125.192C113.043 124.449 113.334 123.719 113.626 123.003C113.866 122.413 114.539 122.13 115.129 122.37ZM18.5533 127.514C19.1804 127.626 19.5973 128.225 19.4844 128.851C19.3117 129.81 19.1942 130.779 19.1334 131.756C19.0726 132.732 19.0688 133.709 19.1212 134.681C19.1555 135.316 18.6675 135.859 18.0313 135.893C17.395 135.927 16.8515 135.44 16.8172 134.805C16.76 133.744 16.7641 132.678 16.8305 131.613C16.8969 130.547 17.0251 129.489 17.2135 128.443C17.3264 127.817 17.9262 127.401 18.5533 127.514ZM111.637 130.698C112.208 130.98 112.442 131.671 112.159 132.242C111.479 133.614 110.768 134.942 110.029 136.227C109.711 136.779 109.006 136.969 108.454 136.652C107.901 136.334 107.711 135.63 108.028 135.079C108.744 133.836 109.432 132.55 110.091 131.22C110.374 130.65 111.066 130.416 111.637 130.698ZM70.9148 131.223C71.5451 131.13 72.1316 131.565 72.2248 132.194C72.4321 133.593 72.6173 135.168 72.7436 136.884C72.7903 137.519 72.313 138.071 71.6775 138.118C71.0421 138.164 70.4891 137.688 70.4424 137.053C70.3206 135.398 70.142 133.88 69.9423 132.531C69.8491 131.902 70.2845 131.316 70.9148 131.223ZM107.325 138.473C107.855 138.826 107.999 139.541 107.646 140.07C106.796 141.344 105.916 142.569 105.008 143.746C104.619 144.25 103.894 144.344 103.39 143.955C102.885 143.567 102.791 142.843 103.18 142.34C104.055 141.205 104.905 140.024 105.725 138.793C106.079 138.264 106.795 138.12 107.325 138.473ZM18.6773 139.657C19.2887 139.477 19.9298 139.827 20.1094 140.437C20.3842 141.371 20.7135 142.291 21.0965 143.191C21.4796 144.092 21.9137 144.967 22.3961 145.813C22.7113 146.366 22.518 147.069 21.9643 147.384C21.4106 147.699 20.7062 147.506 20.3909 146.953C19.8646 146.03 19.3908 145.075 18.9728 144.092C18.5548 143.109 18.1954 142.106 17.8956 141.087C17.716 140.476 18.066 139.836 18.6773 139.657ZM71.763 140.446C72.4001 140.446 72.9161 140.962 72.9155 141.599C72.9139 143.111 72.8569 144.693 72.7266 146.326C72.6761 146.96 72.1202 147.433 71.485 147.383C70.8499 147.332 70.376 146.777 70.4266 146.143C70.5517 144.574 70.6066 143.053 70.6081 141.596C70.6088 140.96 71.1258 140.445 71.763 140.446ZM102.022 145.602C102.498 146.026 102.539 146.754 102.115 147.229C101.092 148.373 100.04 149.463 98.9628 150.5C98.5041 150.942 97.7737 150.929 97.3315 150.471C96.8892 150.013 96.9026 149.283 97.3613 148.842C98.3968 147.845 99.4085 146.796 100.393 145.694C100.818 145.22 101.547 145.178 102.022 145.602ZM71.2067 149.685C71.8354 149.788 72.2614 150.38 72.1582 151.008C71.9082 152.529 71.5876 154.078 71.1838 155.645C71.0249 156.261 70.396 156.632 69.7789 156.473C69.1619 156.315 68.7904 155.687 68.9492 155.071C69.335 153.574 69.6418 152.092 69.8813 150.635C69.9845 150.007 70.5779 149.582 71.2067 149.685ZM24.2283 150.462C24.6948 150.028 25.4248 150.054 25.8588 150.52C26.523 151.233 27.2295 151.908 27.9755 152.542C27.9866 152.552 27.9976 152.562 28.0083 152.571C28.5381 153.058 29.0824 153.53 29.6405 153.988C30.1327 154.392 30.2037 155.118 29.7991 155.609C29.3945 156.101 28.6675 156.172 28.1753 155.768C27.5903 155.288 27.0192 154.792 26.4628 154.282C25.6549 153.594 24.8895 152.862 24.1697 152.09C23.7357 151.624 23.7619 150.895 24.2283 150.462ZM95.7277 151.901C96.1334 152.391 96.0639 153.117 95.5725 153.522C94.3914 154.496 93.1858 155.412 91.9589 156.27C91.4372 156.636 90.7178 156.509 90.352 155.989C89.9862 155.468 90.1126 154.749 90.6344 154.384C91.8118 153.56 92.9693 152.681 94.1036 151.746C94.595 151.341 95.3221 151.41 95.7277 151.901ZM31.53 156.88C31.88 156.348 32.5954 156.201 33.1278 156.55C34.3292 157.339 35.5782 158.071 36.8691 158.743C37.4339 159.038 37.6529 159.733 37.3582 160.297C37.0634 160.861 36.3666 161.08 35.8017 160.786C34.4436 160.078 33.1276 159.307 31.86 158.475C31.3277 158.126 31.1799 157.411 31.53 156.88ZM88.5493 157.147C88.8723 157.695 88.689 158.401 88.1398 158.724C86.82 159.499 85.4811 160.213 84.1271 160.868C83.5536 161.145 82.8636 160.906 82.5859 160.333C82.3082 159.761 82.5479 159.072 83.1214 158.794C84.4199 158.166 85.704 157.481 86.97 156.738C87.5192 156.415 88.2263 156.598 88.5493 157.147ZM69.0963 158.69C69.6957 158.906 70.0063 159.566 69.79 160.165C69.3955 161.257 68.956 162.351 68.4676 163.444C69.2361 163.317 70.0044 163.173 70.7717 163.011C71.3952 162.88 72.0072 163.278 72.1387 163.901C72.2702 164.523 71.8714 165.134 71.248 165.266C69.7557 165.58 68.26 165.831 66.7655 166.021C66.1335 166.102 65.5558 165.655 65.4753 165.024C65.431 164.677 65.5463 164.347 65.7642 164.106C65.7552 163.922 65.7904 163.733 65.8755 163.555C66.5389 162.167 67.1172 160.773 67.6196 159.383C67.8358 158.784 68.497 158.474 69.0963 158.69ZM80.6167 161.189C80.8471 161.782 80.5524 162.45 79.9583 162.68C78.5355 163.231 77.1008 163.72 75.6586 164.148C75.0478 164.33 74.4055 163.982 74.2239 163.372C74.0423 162.763 74.3901 162.121 75.0009 161.94C76.3837 161.529 77.7594 161.06 79.1238 160.532C79.7178 160.302 80.3862 160.596 80.6167 161.189ZM39.3077 161.196C39.5472 160.606 40.22 160.322 40.8104 160.561C42.1455 161.102 43.5148 161.584 44.9127 162.006C45.5225 162.191 45.8673 162.834 45.6828 163.443C45.4982 164.052 44.8542 164.396 44.2444 164.212C42.7802 163.769 41.3445 163.263 39.9433 162.696C39.3528 162.457 39.0683 161.785 39.3077 161.196ZM47.763 163.972C47.8933 163.349 48.5045 162.949 49.1282 163.08C50.5411 163.374 51.9759 163.61 53.4274 163.786C54.0599 163.862 54.5106 164.436 54.4339 165.068C54.3573 165.699 53.7824 166.149 53.1499 166.073C51.6336 165.89 50.134 165.643 48.6564 165.335C48.0327 165.205 47.6327 164.594 47.763 163.972ZM63.3342 165.209C63.3629 165.844 62.8703 166.383 62.2337 166.411C60.7097 166.48 59.1917 166.486 57.6847 166.43C57.0479 166.406 56.5509 165.872 56.5746 165.236C56.5982 164.6 57.1335 164.104 57.7703 164.128C59.214 164.181 60.6687 164.176 62.1296 164.11C62.7661 164.081 63.3054 164.573 63.3342 165.209ZM65.3134 167.134C65.8578 167.464 66.0306 168.173 65.6995 168.717C64.8957 170.036 64.0092 171.344 63.0326 172.633C62.6482 173.14 61.9247 173.24 61.4165 172.856C60.9084 172.472 60.8081 171.75 61.1926 171.243C62.1213 170.017 62.9642 168.774 63.7282 167.519C64.0593 166.976 64.769 166.803 65.3134 167.134ZM59.921 174.637C60.3887 175.069 60.417 175.798 59.9842 176.265C58.937 177.395 57.8105 178.504 56.5995 179.585C56.1247 180.009 55.3953 179.969 54.9705 179.495C54.5457 179.021 54.5863 178.292 55.0612 177.868C56.2182 176.835 57.2928 175.777 58.2907 174.7C58.7234 174.233 59.4534 174.205 59.921 174.637ZM53.1647 180.967C53.5461 181.476 53.4415 182.198 52.9311 182.579C51.7035 183.495 50.4051 184.385 49.0322 185.246C48.4926 185.585 47.7805 185.422 47.4416 184.884C47.1026 184.345 47.2652 183.634 47.8048 183.295C49.126 182.467 50.373 181.611 51.55 180.733C52.0604 180.353 52.7833 180.457 53.1647 180.967ZM45.4297 186.042C45.7282 186.604 45.5139 187.301 44.951 187.599C43.6048 188.312 42.1974 188.999 40.7262 189.658C40.1449 189.919 39.4622 189.659 39.2014 189.079C38.9406 188.498 39.2005 187.817 39.7818 187.556C41.2079 186.917 42.5697 186.253 43.8699 185.564C44.4328 185.266 45.1311 185.48 45.4297 186.042ZM37.0548 189.962C37.2808 190.557 36.9809 191.222 36.3852 191.448C34.9584 191.988 33.4785 192.504 31.9438 192.993C31.3369 193.187 30.6877 192.853 30.4937 192.247C30.2998 191.641 30.6347 190.992 31.2416 190.799C32.7384 190.321 34.1796 189.819 35.5671 189.294C36.1628 189.068 36.8289 189.367 37.0548 189.962ZM28.2247 192.909C28.3893 193.524 28.0237 194.155 27.4082 194.319C25.9484 194.709 24.4438 195.077 22.893 195.421C22.271 195.559 21.6547 195.168 21.5164 194.547C21.3781 193.926 21.7702 193.31 22.3921 193.172C23.9119 192.835 25.3848 192.475 26.8122 192.094C27.4277 191.929 28.0601 192.294 28.2247 192.909ZM19.2503 195.003C19.3646 195.629 18.9492 196.229 18.3224 196.343C16.8107 196.618 15.2588 196.873 13.6656 197.105C13.0351 197.198 12.4493 196.762 12.357 196.132C12.2648 195.503 12.7011 194.918 13.3315 194.826C14.8987 194.597 16.424 194.347 17.9083 194.076C18.5351 193.962 19.1359 194.377 19.2503 195.003ZM10.0862 196.427C10.1587 197.059 9.70425 197.63 9.07123 197.702C8.28702 197.792 7.49349 197.877 6.69054 197.956C6.0565 198.019 5.49149 197.557 5.42858 196.924C5.36566 196.291 5.82865 195.726 6.4627 195.664C7.25426 195.585 8.03626 195.502 8.80881 195.413C9.44183 195.341 10.0137 195.795 10.0862 196.427Z" fill="#2E186A"/>
<path fill-rule="evenodd" clip-rule="evenodd" d="M5.41829 197.235C5.47676 198.001 4.96654 198.674 4.27868 198.739C3.43914 198.818 2.60062 198.888 1.7693 198.958L1.76636 198.958C1.07796 199.015 0.478041 198.441 0.426411 197.675C0.37478 196.909 0.890988 196.241 1.57939 196.184C2.41373 196.114 3.24085 196.045 4.06695 195.967C4.7548 195.902 5.35982 196.47 5.41829 197.235Z" fill="#2E186A"/>
<path fill-rule="evenodd" clip-rule="evenodd" d="M196.593 70.5236C196.829 70.1353 197.269 69.9189 197.722 69.9691L242.382 74.9194C242.834 74.9695 243.216 75.2767 243.361 75.7071C243.507 76.1375 243.389 76.6131 243.06 76.9265L217.102 101.639C216.846 101.882 216.495 101.997 216.146 101.952C215.796 101.908 215.485 101.708 215.3 101.409L208.014 89.6544L201.95 92.0752C201.545 92.2368 201.083 92.16 200.753 91.8759C200.422 91.5918 200.277 91.1475 200.377 90.7234L202.694 80.8534L196.62 71.7798C196.367 71.402 196.357 70.912 196.593 70.5236ZM199.963 72.5687L204.921 79.9766C205.101 80.2457 205.162 80.5775 205.088 80.8928L203.167 89.0725L208.057 87.1203C208.585 86.9098 209.187 87.108 209.486 87.5903L216.53 98.9546L239.628 76.9654L199.963 72.5687Z" fill="#2E186A"/>
<path fill-rule="evenodd" clip-rule="evenodd" d="M239.42 77.0943C239.466 77.7671 238.993 78.3525 238.363 78.4017L205.649 80.9586C205.02 81.0078 204.472 80.5023 204.426 79.8295C204.38 79.1567 204.853 78.5714 205.482 78.5222L238.197 75.9652C238.826 75.916 239.374 76.4215 239.42 77.0943Z" fill="#2E186A"/>
<path fill-rule="evenodd" clip-rule="evenodd" d="M239.351 76.7121C239.569 77.3099 239.274 77.9765 238.692 78.2009L210.946 88.8879C210.363 89.1122 209.714 88.8095 209.495 88.2117C209.276 87.6139 209.571 86.9474 210.154 86.723L237.9 76.036C238.483 75.8116 239.132 76.1143 239.351 76.7121Z" fill="#2E186A"/>
<g filter="url(#filter0_d_2_22895)">
<rect x="279.268" y="0.961914" width="147.464" height="101" rx="8" fill="white"/>
<rect x="279.768" y="1.46191" width="146.464" height="100" rx="7.5" stroke="#E6E6E6"/>
</g>
<path d="M341.938 61.6356C341.938 63.8791 340.117 65.7228 337.851 65.7228C335.585 65.7228 333.764 63.9013 333.764 61.6356C333.764 59.392 335.585 57.5483 337.851 57.5483C340.117 57.5483 341.938 59.392 341.938 61.6356Z" fill="#283276"/>
<path d="M315.06 46.4195C315.06 48.663 313.238 50.5067 310.973 50.5067C308.707 50.5067 306.885 48.6852 306.885 46.4195C306.885 44.176 308.707 42.3323 310.973 42.3323C313.238 42.3323 315.06 44.1538 315.06 46.4195Z" fill="#F29FC5"/>
<path d="M334.23 57.1705C334.23 59.414 332.409 61.2577 330.143 61.2577C327.899 61.2577 326.056 59.4362 326.056 57.1705C326.056 54.9269 327.877 53.0833 330.143 53.0833C332.409 53.1055 334.23 54.9269 334.23 57.1705Z" fill="#008ECF"/>
<path d="M324.367 62.1019C324.367 64.3454 322.546 66.1891 320.28 66.1891C318.037 66.1891 316.193 64.3676 316.193 62.1019C316.193 59.8583 318.014 58.0146 320.28 58.0146C322.546 58.0369 324.367 59.8583 324.367 62.1019Z" fill="#F29FC5"/>
<path d="M324.367 71.7203C324.367 73.9638 322.546 75.8075 320.28 75.8075C318.037 75.8075 316.193 73.986 316.193 71.7203C316.193 69.4767 318.014 67.6331 320.28 67.6331C322.546 67.6553 324.367 69.4767 324.367 71.7203Z" fill="#283276"/>
<path d="M341.938 41.3326C341.938 43.5761 340.117 45.4198 337.851 45.4198C335.585 45.4198 333.764 43.5983 333.764 41.3326C333.764 39.0891 335.585 37.2454 337.851 37.2454C340.117 37.2454 341.938 39.0891 341.938 41.3326Z" fill="#283276"/>
<path d="M334.23 46.4195C334.23 48.663 332.409 50.5067 330.143 50.5067C327.899 50.5067 326.056 48.6852 326.056 46.4195C326.056 44.176 327.877 42.3323 330.143 42.3323C332.409 42.3323 334.23 44.1538 334.23 46.4195Z" fill="#283276"/>
<path d="M314.46 57.5482C314.46 59.7917 312.639 61.6354 310.373 61.6354C308.107 61.6354 306.286 59.8139 306.286 57.5482C306.286 55.3046 308.107 53.4609 310.373 53.4609C312.639 53.4609 314.46 55.2824 314.46 57.5482Z" fill="#283276"/>
<path d="M306.686 40.4442C307.174 42.6433 305.797 44.8202 303.598 45.3088C301.399 45.7975 299.222 44.4203 298.733 42.2212C298.245 40.0221 299.622 37.8452 301.821 37.3565C304.02 36.8678 306.197 38.2451 306.686 40.4442Z" fill="#283276"/>
<path d="M306.286 49.2627C306.108 50.5288 304.931 51.4174 303.665 51.2396C302.398 51.0619 301.51 49.8846 301.688 48.6185C301.865 47.3523 303.043 46.4638 304.309 46.6415C305.575 46.8192 306.463 47.9965 306.286 49.2627Z" fill="#E1000F"/>
<path d="M329.676 66.0782C329.476 67.5442 328.121 68.5438 326.655 68.3439C325.189 68.144 324.19 66.789 324.389 65.3229C324.589 63.8568 325.944 62.8573 327.41 63.0572C328.877 63.2571 329.876 64.6121 329.676 66.0782Z" fill="#E1000F"/>
<path d="M337.584 49.174C337.451 50.0625 336.651 50.6623 335.763 50.529C334.874 50.3957 334.274 49.596 334.385 48.7075C334.519 47.819 335.318 47.2192 336.207 47.3525C337.095 47.4858 337.717 48.2855 337.584 49.174Z" fill="#E1000F"/>
<path d="M321.702 41.5991C321.524 42.8653 320.347 43.7538 319.081 43.5761C317.815 43.3984 316.926 42.2211 317.104 40.9549C317.281 39.6888 318.459 38.8002 319.725 38.978C320.991 39.1557 321.88 40.333 321.702 41.5991Z" fill="#E1000F"/>
<path d="M328.366 38.5781C328.188 39.8443 327.011 40.7328 325.744 40.5551C324.478 40.3774 323.59 39.2001 323.768 37.9339C323.945 36.6678 325.123 35.7792 326.389 35.957C327.677 36.1347 328.566 37.312 328.366 38.5781Z" fill="#F29FC5"/>
<path d="M313.283 64.1011C313.105 65.3672 311.928 66.2557 310.662 66.078C309.396 65.9003 308.507 64.723 308.685 63.4569C308.863 62.1907 310.04 61.3022 311.306 61.4799C312.595 61.6576 313.461 62.8349 313.283 64.1011Z" fill="#FFE000"/>
<path d="M336.118 53.6831C335.941 54.9492 334.763 55.8378 333.497 55.6601C332.231 55.4824 331.342 54.3051 331.52 53.0389C331.698 51.7728 332.875 50.8842 334.141 51.0619C335.407 51.2174 336.296 52.3947 336.118 53.6831Z" fill="#FFE000"/>
<path d="M333.452 64.4564C334.141 65.5449 333.808 66.9665 332.719 67.6551C331.631 68.3437 330.209 68.0105 329.521 66.9221C328.832 65.8337 329.165 64.412 330.254 63.7234C331.342 63.057 332.764 63.368 333.452 64.4564Z" fill="#283276"/>
<path d="M315.726 37.2009C315.549 38.4671 314.371 39.3556 313.105 39.1779C311.839 39.0002 310.951 37.8229 311.128 36.5567C311.306 35.2906 312.483 34.4021 313.749 34.5798C315.016 34.7575 315.904 35.9348 315.726 37.2009Z" fill="#FFE000"/>
<path d="M324.567 31.4033C324.567 33.7579 322.657 35.6905 320.28 35.6905C317.925 35.6905 315.993 33.7802 315.993 31.4033C315.993 29.0488 317.903 27.1162 320.28 27.1162C322.657 27.1162 324.567 29.0265 324.567 31.4033Z" fill="#008ECF"/>
<path d="M306.752 61.6131C306.752 63.8566 304.931 65.7003 302.665 65.7003C300.399 65.7003 298.6 63.8788 298.6 61.6131C298.6 59.3696 300.422 57.5259 302.687 57.5259C304.953 57.5259 306.752 59.3696 306.752 61.6131Z" fill="#008ECF"/>
<path d="M326.855 50.6398C326.855 54.5715 323.679 57.748 319.747 57.748C315.815 57.748 312.639 54.5715 312.639 50.6398C312.639 46.7081 315.815 43.5316 319.747 43.5316C323.657 43.5094 326.855 46.7081 326.855 50.6398Z" fill="#008ECF"/>
<path d="M351.49 36.5791H358.687V38.3784H353.6V42.0213H357.954V43.7984H353.6V49.4849H351.49V36.5791Z" fill="#283276"/>
<path d="M360.375 40.1997H362.263V41.2437C362.907 40.5329 363.729 39.9998 364.862 39.9998C365.151 39.9998 365.44 40.0442 365.684 40.133V41.9989C365.395 41.9323 365.084 41.8657 364.707 41.8657C363.529 41.8657 362.752 42.4876 362.263 43.2873V49.4848H360.375V40.1997Z" fill="#283276"/>
<path d="M366.817 47.0638C366.817 45.6643 367.905 44.6425 369.882 44.3093L372.881 43.8206V43.3319C372.881 42.1991 372.037 41.4883 370.837 41.4883C369.816 41.4883 369.038 41.9547 368.505 42.71L367.083 41.6215C367.905 40.5109 369.238 39.8223 370.904 39.8223C373.414 39.8223 374.791 41.2883 374.791 43.3542V49.485H372.903V48.441C372.237 49.2629 371.082 49.7738 369.927 49.7738C368.061 49.7738 366.817 48.7075 366.817 47.0638ZM370.26 48.2188C371.415 48.2188 372.326 47.6635 372.881 46.775V45.1756L370.371 45.5977C369.216 45.7976 368.727 46.3085 368.727 46.9971C368.727 47.7079 369.305 48.2188 370.26 48.2188Z" fill="#283276"/>
<path d="M377.457 40.1996H379.345V41.1104C380.055 40.3774 380.966 39.8442 382.299 39.8442C384.343 39.8442 385.92 41.2215 385.92 43.9092V49.4847H384.009V43.9759C384.009 42.5098 383.188 41.6213 381.877 41.6213C380.611 41.6213 379.856 42.421 379.367 43.2206V49.4847H377.457V40.1996Z" fill="#283276"/>
<path d="M395.627 46.8416L397.115 47.9745C396.271 49.1074 394.894 49.8626 393.184 49.8626C390.074 49.8626 388.119 47.5524 388.119 44.8424C388.119 42.1324 390.074 39.8223 393.184 39.8223C394.872 39.8223 396.271 40.5553 397.115 41.7104L395.627 42.8433C395.116 42.1324 394.272 41.5993 393.184 41.5993C391.384 41.5993 390.096 42.9987 390.096 44.8202C390.096 46.6639 391.384 48.0411 393.184 48.0411C394.25 48.0633 395.116 47.5524 395.627 46.8416Z" fill="#283276"/>
<path d="M403.402 49.8626C400.203 49.8626 398.293 47.5524 398.293 44.8424C398.293 42.0658 400.07 39.8223 403.002 39.8223C405.557 39.8223 407.223 41.5771 407.223 43.9317C407.223 44.3537 407.178 44.7758 407.089 45.0646H400.226C400.359 47.086 401.581 48.1522 403.38 48.1522C404.513 48.1522 405.446 47.6635 406.023 46.886L407.4 47.9967C406.556 49.1296 405.135 49.8626 403.402 49.8626ZM400.359 43.6429H405.357C405.312 42.4878 404.49 41.4216 403.002 41.4216C401.603 41.4216 400.648 42.1991 400.359 43.6429Z" fill="#283276"/>
<path d="M350.112 53.1724H360.53V55.1049H356.376V66.0782H354.266V55.1049H350.112V53.1724Z" fill="#283276"/>
<path d="M361.441 56.7707H363.329V57.8147C363.973 57.1039 364.795 56.5708 365.928 56.5708C366.217 56.5708 366.506 56.6152 366.75 56.7041V58.57C366.461 58.5033 366.15 58.4367 365.772 58.4367C364.595 58.4367 363.818 59.0587 363.329 59.8583V66.0558H361.441V56.7707Z" fill="#283276"/>
<path d="M367.861 63.6568C367.861 62.2573 368.949 61.2355 370.926 60.9023L373.925 60.4137V59.925C373.925 58.7921 373.081 58.0813 371.881 58.0813C370.86 58.0813 370.082 58.5477 369.549 59.303L368.127 58.2145C368.949 57.1039 370.282 56.4153 371.948 56.4153C374.458 56.4153 375.835 57.8814 375.835 59.9472V66.078H373.947V65.034C373.281 65.8559 372.126 66.3668 370.971 66.3668C369.127 66.3446 367.861 65.3005 367.861 63.6568ZM371.304 64.7896C372.459 64.7896 373.37 64.2343 373.925 63.3458V61.7464L371.415 62.1685C370.26 62.3684 369.771 62.8793 369.771 63.5679C369.793 64.301 370.349 64.7896 371.304 64.7896Z" fill="#283276"/>
<path d="M379.389 56.7708L382.122 64.0122L384.832 56.7708H386.897L383.365 66.0781H380.855L377.346 56.7708H379.389Z" fill="#283276"/>
<path d="M387.897 63.6568C387.897 62.2573 388.985 61.2355 390.962 60.9023L393.961 60.4137V59.925C393.961 58.7921 393.117 58.0813 391.918 58.0813C390.896 58.0813 390.118 58.5477 389.585 59.303L388.164 58.2145C388.985 57.1039 390.318 56.4153 391.984 56.4153C394.494 56.4153 395.871 57.8814 395.871 59.9472V66.078H393.983V65.034C393.317 65.8559 392.162 66.3668 391.007 66.3668C389.141 66.3446 387.897 65.3005 387.897 63.6568ZM391.34 64.7896C392.495 64.7896 393.406 64.2343 393.961 63.3458V61.7464L391.451 62.1685C390.296 62.3684 389.807 62.8793 389.807 63.5679C389.807 64.301 390.385 64.7896 391.34 64.7896Z" fill="#283276"/>
<path d="M400.714 56.7708H398.826V66.0558H400.714V56.7708Z" fill="#283276"/>
<path d="M405.712 52.2393H403.824V66.0558H405.712V52.2393Z" fill="#283276"/>
<path d="M398.648 53.9498C398.648 53.3278 399.159 52.8169 399.781 52.8169C400.403 52.8169 400.914 53.3278 400.914 53.9498C400.914 54.5717 400.403 55.0826 399.781 55.0826C399.159 55.0826 398.648 54.5495 398.648 53.9498Z" fill="#283276"/>
<g filter="url(#filter1_d_2_22895)">
<rect x="395.923" y="121.339" width="142.527" height="82.4238" rx="8" fill="white"/>
<rect x="396.423" y="121.839" width="141.527" height="81.4238" rx="7.5" stroke="#E6E6E6"/>
</g>
<g clip-path="url(#clip0_2_22895)">
<path d="M422.006 140.551L421.988 150.248C423.49 147.396 426.899 146.309 429.946 147.087C432.702 147.784 433.718 150.125 433.842 152.765V164.353H429.664L429.602 164.203V153.525C429.469 151.282 428.215 150.443 426.033 150.805C423.578 151.22 422.138 153.49 422.014 155.848C421.891 158.206 422.129 161.447 422.014 164.194L421.953 164.344H417.792L417.73 164.282V142.397C417.73 141.699 418.34 140.904 418.985 140.692L419.462 140.551H422.006Z" fill="black"/>
<path d="M464.855 140.551V159.124C464.943 159.963 465.146 160.732 466.074 160.917C467.001 161.103 466.815 160.944 467.231 160.926V164.653C465.685 164.838 464.051 164.794 462.664 164.026C461.056 163.125 460.73 161.297 460.615 159.592V142.397C460.677 141.699 461.056 141.125 461.666 140.772L462.355 140.551H464.855Z" fill="black"/>
<path d="M456.931 140.551V158.912C456.993 159.548 457.055 160.308 457.638 160.705C458.221 161.103 458.742 160.944 459.307 160.926V164.653C457.691 164.839 455.907 164.794 454.502 163.885C453.098 162.975 452.753 160.82 452.692 159.168C452.727 153.481 452.621 147.784 452.745 142.105C452.877 141.461 453.336 140.913 453.955 140.684L454.432 140.542H456.931V140.551Z" fill="black"/>
<path d="M467.399 167.32L462.125 184.392L457.797 184.348L454.829 174.651L451.826 184.348L447.436 184.374L442.922 169.652C442.631 168.565 443.417 167.426 444.539 167.32C445.237 167.258 446.014 167.364 446.721 167.32L449.644 177.097L452.533 167.32H457.099L460.023 177.097L462.903 167.311H467.399V167.32Z" fill="black"/>
<path d="M504.948 160.626V173.291L509.717 167.32H514.955L509.576 174.2L516.642 184.392H511.493L506.749 177.698L504.948 179.967V184.392H500.664V162.348C500.664 161.65 501.591 160.635 502.298 160.635H504.948V160.626Z" fill="black"/>
<path d="M451.296 156.598H439.513C439.69 159.062 441.518 160.811 443.938 161.085C445.413 161.253 447.313 160.732 448.576 159.963C448.708 159.884 449.547 159.23 449.591 159.266L451.181 162.312C449.892 163.372 448.302 164.132 446.659 164.485C439.884 165.934 434.302 161.235 435.229 154.249C435.9 149.197 440.282 146.186 445.281 146.945C448.487 147.431 450.643 149.877 451.217 152.995C451.438 154.196 451.393 155.388 451.279 156.598H451.296ZM447.101 153.684C447.145 152.112 446.226 150.602 444.636 150.239C443.673 150.019 442.516 150.151 441.651 150.628C440.785 151.105 439.858 152.43 439.646 153.684H447.101Z" fill="black"/>
<path d="M487.741 164.353H483.545C483.572 162.048 481.999 159.955 479.791 159.319C477.583 158.683 477.344 159.018 476.267 159.389C474.182 160.105 472.725 162.145 472.742 164.353H468.547C468.511 159.654 472.053 155.609 476.708 155C481.363 154.391 480.056 154.92 481.619 155.503C485.25 156.846 487.82 160.449 487.741 164.353Z" fill="black"/>
<path d="M472.742 175.066C472.725 177.459 474.438 179.641 476.779 180.162C478.36 180.515 480.03 180.276 481.363 179.331C482.715 178.378 483.572 176.735 483.554 175.066H487.75C487.829 179.27 484.852 183.094 480.816 184.171C478.678 184.736 476.231 184.595 474.2 183.712C470.799 182.237 468.511 178.784 468.547 175.066H472.742Z" fill="black"/>
<path d="M499.356 167.143V171.339C497.316 170.968 495.382 171.798 494.295 173.547C493.209 175.295 493.438 175.657 493.341 176.823V184.383H489.057V169.069C489.057 168.345 489.985 167.311 490.735 167.311H493.173C493.156 168.671 493.235 170.04 493.085 171.4L493.173 171.462C493.668 169.802 494.878 168.221 496.494 167.514C497.404 167.117 498.376 166.984 499.365 167.143H499.356Z" fill="black"/>
</g>
<g filter="url(#filter2_d_2_22895)">
<rect x="290.923" y="227.962" width="213" height="72" rx="8" fill="white"/>
<rect x="291.423" y="228.462" width="212" height="71" rx="7.5" stroke="#E6E6E6"/>
</g>
<g clip-path="url(#clip1_2_22895)">
<path d="M442.057 260.704C441.236 260.338 440.655 259.917 440.655 259.225C440.655 258.533 441.111 258.008 442.057 257.913C442.152 257.904 442.242 257.892 442.345 257.892C443.463 257.892 444.405 258.613 445.149 259.5L447.552 257.446C446.52 256.088 444.517 255.058 442.315 255.058C442.225 255.058 442.143 255.067 442.057 255.067C439.189 255.171 437.164 256.988 437.164 259.383C437.164 262.542 440.019 263.292 442.057 264.071C443.184 264.504 444.065 264.946 444.065 265.817C444.065 266.688 443.463 267.313 442.289 267.313C442.212 267.313 442.134 267.3 442.057 267.296C440.797 267.213 439.804 266.475 438.97 265.454L436.566 267.563C437.886 269.083 439.636 270.054 442.061 270.129C442.16 270.129 442.251 270.142 442.349 270.142C445.067 270.142 447.501 268.533 447.561 265.592C447.561 262.163 444.078 261.588 442.061 260.692L442.057 260.704Z" fill="#000091"/>
<path d="M340.448 273.429H343.101V273.975H341.11V275.508H342.817V276.05H341.11V277.671H343.101V278.217H340.448V273.425V273.429Z" fill="#000091"/>
<path d="M344.163 274.771H344.765V275.162C345.053 274.854 345.423 274.637 345.952 274.637C346.752 274.637 347.345 275.158 347.345 276.137V278.225H346.743V276.158C346.743 275.542 346.382 275.187 345.831 275.187C345.315 275.187 344.993 275.475 344.765 275.837V278.225H344.163V274.775V274.771Z" fill="#000091"/>
<path d="M348.682 275.296H348.011V274.771H348.682V273.908H349.288V274.771H350.522V275.296H349.288V277.063C349.288 277.604 349.572 277.754 350.002 277.754C350.234 277.754 350.398 277.725 350.531 277.671V278.192C350.363 278.258 350.17 278.288 349.916 278.288C349.125 278.288 348.682 277.904 348.682 277.063V275.296Z" fill="#000091"/>
<path d="M351.374 274.771H351.976V275.2C352.238 274.9 352.561 274.7 353.012 274.7C353.124 274.7 353.232 274.712 353.318 274.742V275.308C353.21 275.279 353.107 275.267 352.965 275.267C352.501 275.267 352.195 275.5 351.976 275.85V278.217H351.374V274.767V274.771Z" fill="#000091"/>
<path d="M355.532 278.354C354.332 278.354 353.588 277.5 353.588 276.492C353.588 275.483 354.281 274.629 355.381 274.629C356.349 274.629 356.977 275.267 356.977 276.129C356.977 276.267 356.955 276.404 356.934 276.5H354.199C354.22 277.329 354.762 277.829 355.528 277.829C355.988 277.829 356.375 277.625 356.607 277.317L357.05 277.65C356.719 278.079 356.19 278.354 355.523 278.354H355.532ZM354.246 276.054H356.379C356.358 275.546 355.975 275.125 355.381 275.125C354.788 275.125 354.371 275.458 354.246 276.054Z" fill="#000091"/>
<path d="M357.609 277.692L359.707 275.296H357.66V274.771H360.443V275.296L358.34 277.692H360.494V278.217H357.613V277.692H357.609Z" fill="#000091"/>
<path d="M364.751 274.633C365.28 274.633 365.697 274.833 366.016 275.179V273.083H366.618V278.217H366.016V277.804C365.697 278.154 365.28 278.35 364.751 278.35C363.638 278.35 362.924 277.496 362.924 276.487C362.924 275.479 363.638 274.625 364.751 274.625V274.633ZM364.82 277.808C365.315 277.808 365.753 277.575 366.016 277.171V275.817C365.74 275.404 365.31 275.179 364.82 275.179C364.063 275.179 363.556 275.762 363.556 276.492C363.556 277.221 364.063 277.804 364.82 277.804V277.808Z" fill="#000091"/>
<path d="M367.606 277.35C367.606 276.829 368.015 276.458 368.772 276.337L369.971 276.146V275.908C369.971 275.429 369.619 275.154 369.111 275.154C368.703 275.154 368.372 275.337 368.152 275.633L367.701 275.296C368.011 274.887 368.514 274.633 369.133 274.633C370.036 274.633 370.573 275.146 370.573 275.904V278.217H369.971V277.787C369.705 278.121 369.253 278.312 368.776 278.312C368.075 278.312 367.602 277.937 367.602 277.346L367.606 277.35ZM368.879 277.837C369.352 277.837 369.739 277.617 369.976 277.25V276.571L368.922 276.742C368.436 276.825 368.217 277.037 368.217 277.329C368.217 277.621 368.462 277.837 368.879 277.837Z" fill="#000091"/>
<path d="M371.709 274.771H372.311V275.162C372.599 274.854 372.969 274.637 373.498 274.637C374.298 274.637 374.891 275.158 374.891 276.137V278.225H374.289V276.158C374.289 275.542 373.928 275.187 373.377 275.187C372.861 275.187 372.539 275.475 372.311 275.837V278.225H371.709V274.775V274.771Z" fill="#000091"/>
<path d="M376.064 277.396C376.31 277.696 376.606 277.867 376.967 277.867C377.363 277.867 377.591 277.633 377.591 277.333C377.591 276.558 375.811 276.833 375.811 275.617C375.811 275.075 376.284 274.633 376.967 274.633C377.475 274.633 377.913 274.867 378.163 275.2L377.746 275.542C377.557 275.283 377.286 275.117 376.976 275.117C376.593 275.117 376.391 275.337 376.391 275.604C376.391 276.379 378.176 276.129 378.176 277.308C378.167 277.95 377.638 278.354 376.976 278.354C376.413 278.354 375.966 278.133 375.643 277.746L376.069 277.396H376.064Z" fill="#000091"/>
<path d="M380.915 273.087H381.517V278.221H380.915V273.087Z" fill="#000091"/>
<path d="M383.706 273.429L383.104 275.263H382.42L383.147 273.429H383.706Z" fill="#000091"/>
<path d="M385.851 278.354C384.652 278.354 383.908 277.5 383.908 276.492C383.908 275.483 384.6 274.629 385.701 274.629C386.668 274.629 387.296 275.267 387.296 276.129C387.296 276.267 387.275 276.404 387.253 276.5H384.518C384.54 277.329 385.082 277.829 385.847 277.829C386.307 277.829 386.694 277.625 386.926 277.317L387.369 277.65C387.038 278.079 386.509 278.354 385.843 278.354H385.851ZM384.566 276.054H386.698C386.677 275.546 386.294 275.125 385.701 275.125C385.107 275.125 384.69 275.458 384.566 276.054Z" fill="#000091"/>
<path d="M388.242 274.771H388.844V275.162C389.132 274.854 389.502 274.637 390.031 274.637C390.831 274.637 391.424 275.158 391.424 276.137V278.225H390.822V276.158C390.822 275.542 390.461 275.187 389.911 275.187C389.395 275.187 389.072 275.475 388.844 275.837V278.225H388.242V274.775V274.771Z" fill="#000091"/>
<path d="M392.603 277.396C392.848 277.696 393.144 277.867 393.506 277.867C393.901 277.867 394.129 277.633 394.129 277.333C394.129 276.558 392.349 276.833 392.349 275.617C392.349 275.075 392.822 274.633 393.506 274.633C394.013 274.633 394.452 274.867 394.701 275.2L394.284 275.542C394.095 275.283 393.824 275.117 393.514 275.117C393.131 275.117 392.929 275.337 392.929 275.604C392.929 276.379 394.714 276.129 394.714 277.308C394.705 277.95 394.176 278.354 393.514 278.354C392.951 278.354 392.504 278.133 392.181 277.746L392.607 277.396H392.603Z" fill="#000091"/>
<path d="M397.212 278.354C396.012 278.354 395.269 277.5 395.269 276.492C395.269 275.483 395.961 274.629 397.062 274.629C398.029 274.629 398.657 275.267 398.657 276.129C398.657 276.267 398.635 276.404 398.614 276.5H395.879C395.901 277.329 396.442 277.829 397.208 277.829C397.668 277.829 398.055 277.625 398.287 277.317L398.73 277.65C398.399 278.079 397.87 278.354 397.204 278.354H397.212ZM395.926 276.054H398.059C398.038 275.546 397.655 275.125 397.062 275.125C396.468 275.125 396.051 275.458 395.926 276.054Z" fill="#000091"/>
<path d="M399.482 273.463C399.482 273.242 399.672 273.058 399.908 273.058C400.145 273.058 400.325 273.242 400.325 273.463C400.325 273.683 400.14 273.871 399.908 273.871C399.676 273.871 399.482 273.688 399.482 273.463ZM399.603 274.771H400.205V278.221H399.603V274.771Z" fill="#000091"/>
<path d="M401.525 277.971C401.361 277.846 401.28 277.663 401.28 277.479C401.28 277.204 401.426 276.979 401.706 276.808C401.396 276.583 401.211 276.233 401.211 275.85C401.211 275.188 401.748 274.625 402.596 274.625C402.858 274.625 403.09 274.679 403.279 274.767H404.599V275.275H403.83C403.929 275.446 403.976 275.646 403.976 275.85C403.976 276.508 403.447 277.067 402.591 277.067C402.415 277.067 402.247 277.038 402.097 277C401.951 277.104 401.865 277.225 401.865 277.354C401.865 277.5 401.942 277.6 402.161 277.6H403.176C404.114 277.6 404.552 278.046 404.552 278.663C404.552 279.388 403.804 279.929 402.737 279.929C401.671 279.929 400.992 279.533 400.992 278.842C400.992 278.492 401.168 278.213 401.521 277.971H401.525ZM402.733 279.442C403.481 279.442 403.954 279.154 403.954 278.704C403.954 278.375 403.765 278.117 403.129 278.117H402.032C401.727 278.296 401.581 278.5 401.581 278.775C401.581 279.192 402.024 279.446 402.733 279.446V279.442ZM403.413 275.85C403.413 275.425 403.116 275.083 402.6 275.083C402.084 275.083 401.779 275.425 401.779 275.85C401.779 276.275 402.067 276.608 402.6 276.608C403.133 276.608 403.413 276.267 403.413 275.85Z" fill="#000091"/>
<path d="M405.262 274.771H405.864V275.162C406.152 274.854 406.522 274.637 407.051 274.637C407.85 274.637 408.444 275.158 408.444 276.137V278.225H407.842V276.158C407.842 275.542 407.481 275.187 406.93 275.187C406.414 275.187 406.092 275.475 405.864 275.837V278.225H405.262V274.775V274.771Z" fill="#000091"/>
<path d="M411.213 278.354C410.013 278.354 409.269 277.5 409.269 276.492C409.269 275.483 409.961 274.629 411.062 274.629C412.03 274.629 412.657 275.267 412.657 276.129C412.657 276.267 412.636 276.404 412.614 276.5H409.88C409.901 277.329 410.443 277.829 411.208 277.829C411.668 277.829 412.055 277.625 412.288 277.317L412.731 277.65C412.399 278.079 411.871 278.354 411.204 278.354H411.213ZM409.927 276.054H412.06C412.038 275.546 411.656 275.125 411.062 275.125C410.469 275.125 410.052 275.458 409.927 276.054Z" fill="#000091"/>
<path d="M413.608 274.771H414.21V275.146C414.476 274.846 414.833 274.633 415.324 274.633C415.814 274.633 416.261 274.858 416.48 275.296C416.764 274.921 417.138 274.633 417.753 274.633C418.514 274.633 419.073 275.125 419.073 276.062V278.217H418.471V276.083C418.471 275.508 418.14 275.179 417.633 275.179C417.181 275.179 416.863 275.425 416.631 275.829C416.639 275.904 416.644 275.979 416.644 276.062V278.217H416.042V276.083C416.042 275.508 415.715 275.179 415.203 275.179C414.717 275.179 414.412 275.475 414.206 275.829V278.217H413.604V274.767L413.608 274.771Z" fill="#000091"/>
<path d="M421.847 278.354C420.647 278.354 419.903 277.5 419.903 276.492C419.903 275.483 420.596 274.629 421.696 274.629C422.664 274.629 423.292 275.267 423.292 276.129C423.292 276.267 423.27 276.404 423.249 276.5H420.514C420.535 277.329 421.077 277.829 421.843 277.829C422.303 277.829 422.69 277.625 422.922 277.317L423.365 277.65C423.034 278.079 422.505 278.354 421.838 278.354H421.847ZM420.561 276.054H422.694C422.673 275.546 422.29 275.125 421.696 275.125C421.103 275.125 420.686 275.458 420.561 276.054Z" fill="#000091"/>
<path d="M424.237 274.771H424.839V275.162C425.127 274.854 425.497 274.637 426.026 274.637C426.826 274.637 427.419 275.158 427.419 276.137V278.225H426.817V276.158C426.817 275.542 426.456 275.187 425.906 275.187C425.39 275.187 425.067 275.475 424.839 275.837V278.225H424.237V274.775V274.771Z" fill="#000091"/>
<path d="M428.757 275.296H428.086V274.771H428.757V273.908H429.363V274.771H430.597V275.296H429.363V277.063C429.363 277.604 429.647 277.754 430.077 277.754C430.309 277.754 430.472 277.725 430.606 277.671V278.192C430.438 278.258 430.245 278.288 429.991 278.288C429.2 278.288 428.757 277.904 428.757 277.063V275.296Z" fill="#000091"/>
<path d="M433.328 277.396C433.573 277.696 433.869 277.867 434.231 277.867C434.626 277.867 434.854 277.633 434.854 277.333C434.854 276.558 433.074 276.833 433.074 275.617C433.074 275.075 433.547 274.633 434.231 274.633C434.738 274.633 435.177 274.867 435.426 275.2L435.009 275.542C434.82 275.283 434.549 275.117 434.239 275.117C433.857 275.117 433.654 275.337 433.654 275.604C433.654 276.379 435.439 276.129 435.439 277.308C435.43 277.95 434.901 278.354 434.239 278.354C433.676 278.354 433.229 278.133 432.906 277.746L433.332 277.396H433.328Z" fill="#000091"/>
<path d="M438.819 274.771H439.421V276.721C439.421 277.754 438.806 278.354 437.838 278.354C436.871 278.354 436.265 277.754 436.265 276.721V274.771H436.867V276.742C436.867 277.421 437.241 277.808 437.847 277.808C438.453 277.808 438.823 277.417 438.823 276.742V274.771H438.819Z" fill="#000091"/>
<path d="M440.535 274.771H441.137V275.183C441.455 274.833 441.872 274.637 442.401 274.637C443.515 274.637 444.228 275.492 444.228 276.5C444.228 277.508 443.515 278.362 442.401 278.362C441.872 278.362 441.455 278.162 441.137 277.817V279.912H440.535V274.779V274.771ZM441.137 275.825V277.167C441.412 277.583 441.842 277.808 442.332 277.808C443.089 277.808 443.605 277.225 443.605 276.496C443.605 275.767 443.089 275.183 442.332 275.183C441.838 275.183 441.408 275.417 441.137 275.825Z" fill="#000091"/>
<path d="M446.8 278.354C445.6 278.354 444.856 277.5 444.856 276.492C444.856 275.483 445.548 274.629 446.649 274.629C447.617 274.629 448.244 275.267 448.244 276.129C448.244 276.267 448.223 276.404 448.201 276.5H445.467C445.488 277.329 446.03 277.829 446.795 277.829C447.255 277.829 447.642 277.625 447.875 277.317L448.317 277.65C447.986 278.079 447.457 278.354 446.791 278.354H446.8ZM445.514 276.054H447.647C447.625 275.546 447.242 275.125 446.649 275.125C446.056 275.125 445.639 275.458 445.514 276.054ZM446.382 274.221L447.118 273.083H447.797L446.972 274.221H446.387H446.382Z" fill="#000091"/>
<path d="M449.19 274.771H449.792V275.2C450.055 274.9 450.377 274.7 450.829 274.7C450.941 274.7 451.048 274.712 451.134 274.742V275.308C451.027 275.279 450.923 275.267 450.781 275.267C450.317 275.267 450.012 275.5 449.792 275.85V278.217H449.19V274.767V274.771Z" fill="#000091"/>
<path d="M451.805 273.463C451.805 273.242 451.994 273.058 452.23 273.058C452.467 273.058 452.647 273.242 452.647 273.463C452.647 273.683 452.463 273.871 452.23 273.871C451.998 273.871 451.805 273.688 451.805 273.463ZM451.925 274.771H452.527V278.221H451.925V274.771Z" fill="#000091"/>
<path d="M455.361 278.354C454.161 278.354 453.417 277.5 453.417 276.492C453.417 275.483 454.11 274.629 455.211 274.629C456.178 274.629 456.806 275.267 456.806 276.129C456.806 276.267 456.784 276.404 456.763 276.5H454.028C454.05 277.329 454.591 277.829 455.357 277.829C455.817 277.829 456.204 277.625 456.436 277.317L456.879 277.65C456.548 278.079 456.019 278.354 455.352 278.354H455.361ZM454.075 276.054H456.208C456.187 275.546 455.804 275.125 455.211 275.125C454.617 275.125 454.2 275.458 454.075 276.054Z" fill="#000091"/>
<path d="M460.177 274.771H460.779V276.721C460.779 277.754 460.164 278.354 459.196 278.354C458.229 278.354 457.623 277.754 457.623 276.721V274.771H458.225V276.742C458.225 277.421 458.599 277.808 459.205 277.808C459.811 277.808 460.181 277.417 460.181 276.742V274.771H460.177Z" fill="#000091"/>
<path d="M461.893 274.771H462.495V275.2C462.757 274.9 463.079 274.7 463.531 274.7C463.643 274.7 463.75 274.712 463.836 274.742V275.308C463.729 275.279 463.625 275.267 463.484 275.267C463.019 275.267 462.714 275.5 462.495 275.85V278.217H461.893V274.767V274.771Z" fill="#000091"/>
<path d="M332.114 256.408L335.748 256.758C336.866 255.679 338.268 255.067 340.241 255.067C344.821 255.067 347.568 258.533 347.568 262.612C347.568 266.692 344.821 270.158 340.241 270.158C338.268 270.158 336.866 269.55 335.748 268.467V276.425H332.114V256.408ZM335.748 260.421V264.804C336.72 266.137 338.065 266.829 339.725 266.829C342.185 266.829 343.789 265.054 343.789 262.612C343.789 260.171 342.185 258.396 339.725 258.396C338.035 258.396 336.664 259.117 335.748 260.421Z" fill="#000091"/>
<path d="M349.46 265.829C349.46 263.721 351.15 262.142 354.242 261.642L358.65 260.921V260.558C358.65 259.088 357.506 258.146 355.846 258.146C354.444 258.146 353.356 258.783 352.582 259.808L349.921 257.837C351.211 256.117 353.326 255.062 355.962 255.062C360.142 255.062 362.287 257.475 362.287 260.554V269.596H358.654V268.238C357.738 269.321 356.022 270.012 354.332 270.012C351.443 270.012 349.465 268.404 349.465 265.825L349.46 265.829ZM355.072 267.217C356.732 267.217 357.936 266.467 358.65 265.358V263.387L355.214 263.942C353.696 264.192 353.068 264.8 353.068 265.662C353.068 266.604 353.842 267.217 355.072 267.217Z" fill="#000091"/>
<path d="M366.149 255.621H369.782V257.008C370.728 256.067 371.958 255.346 373.588 255.346C374.074 255.346 374.504 255.429 374.848 255.542V259.004C374.388 258.892 373.902 258.808 373.244 258.808C371.468 258.808 370.324 259.75 369.782 260.638V269.596H366.149V255.621Z" fill="#000091"/>
<path d="M387.073 265.217L389.906 267.325C388.56 269.046 386.445 270.154 383.809 270.154C378.83 270.154 375.85 266.687 375.85 262.608C375.85 258.529 378.83 255.067 383.809 255.067C386.441 255.067 388.56 256.175 389.906 257.896L387.073 260.004C386.385 259.033 385.241 258.396 383.753 258.396C381.379 258.396 379.629 260.171 379.629 262.612C379.629 265.054 381.375 266.829 383.809 266.829C385.241 266.829 386.385 266.192 387.073 265.221V265.217Z" fill="#000091"/>
<path d="M406.539 262.612C406.539 266.8 403.331 270.158 398.64 270.158C393.949 270.158 390.741 266.804 390.741 262.612C390.741 258.421 393.944 255.067 398.636 255.067C403.327 255.067 406.535 258.421 406.535 262.612H406.539ZM402.759 262.612C402.759 260.171 401.013 258.396 398.696 258.396C396.378 258.396 394.516 260.171 394.516 262.612C394.516 265.054 396.292 266.829 398.696 266.829C401.099 266.829 402.759 265.025 402.759 262.612Z" fill="#000091"/>
<path d="M419.073 255.621H422.737V263.388C422.737 267.575 420.217 270.154 415.982 270.154C411.746 270.154 409.256 267.575 409.256 263.388V255.621H412.92V263.554C412.92 265.579 414.008 266.825 416.012 266.825C418.015 266.825 419.073 265.575 419.073 263.554V255.621Z" fill="#000091"/>
<path d="M426.486 255.621H430.12V257.008C431.066 256.067 432.296 255.346 433.925 255.346C434.411 255.346 434.841 255.429 435.185 255.542V259.004C434.725 258.892 434.239 258.808 433.581 258.808C431.805 258.808 430.662 259.75 430.12 260.638V269.596H426.486V255.621Z" fill="#000091"/>
<path d="M460.121 255.621H463.785V263.388C463.785 267.575 461.265 270.154 457.029 270.154C452.794 270.154 450.304 267.575 450.304 263.388V255.621H453.968V263.554C453.968 265.579 455.056 266.825 457.059 266.825C459.063 266.825 460.121 265.575 460.121 263.554V255.621Z" fill="#000091"/>
<path d="M467.534 255.621H471.168V256.758C472.286 255.675 473.687 255.067 475.661 255.067C480.241 255.067 482.988 258.533 482.988 262.612C482.988 266.692 480.241 270.158 475.661 270.158C473.687 270.158 472.286 269.55 471.168 268.467V276.425H467.534V255.621ZM471.168 260.421V264.804C472.139 266.137 473.485 266.829 475.145 266.829C477.605 266.829 479.209 265.054 479.209 262.612C479.209 260.171 477.605 258.396 475.145 258.396C473.455 258.396 472.084 259.117 471.168 260.421Z" fill="#000091"/>
<path d="M319.404 266.925H313.246C312.24 266.925 311.423 267.717 311.423 268.692C311.423 269.667 312.24 270.458 313.246 270.458H317.585V274.663C317.585 275.638 318.402 276.425 319.408 276.429C319.911 276.429 320.367 276.233 320.694 275.913C321.025 275.592 321.227 275.15 321.227 274.663V268.692C321.227 268.204 321.025 267.763 320.694 267.442C320.363 267.121 319.911 266.925 319.404 266.925Z" fill="#E1000F"/>
<path d="M326.666 260.971H320.517C319.511 260.971 318.698 261.758 318.698 262.733C318.698 263.708 319.511 264.496 320.517 264.496H324.847V268.692C324.847 269.667 325.66 270.454 326.666 270.454C327.169 270.454 327.621 270.258 327.952 269.938C328.283 269.617 328.485 269.179 328.485 268.692V262.733C328.485 262.246 328.283 261.804 327.952 261.488C327.621 261.167 327.169 260.971 326.666 260.971Z" fill="#000091"/>
<path d="M333.938 255H327.776C326.77 255 325.953 255.792 325.953 256.767C325.953 257.742 326.77 258.533 327.776 258.533H332.115V262.738C332.115 263.713 332.932 264.504 333.938 264.504C334.441 264.504 334.897 264.304 335.223 263.988C335.555 263.667 335.757 263.225 335.757 262.738V256.767C335.757 256.279 335.55 255.838 335.223 255.517C334.892 255.196 334.441 255 333.938 255Z" fill="#E1000F"/>
</g>
<g filter="url(#filter3_d_2_22895)">
<rect x="205.923" y="116.962" width="175" height="94" rx="8" fill="white"/>
<rect x="206.423" y="117.462" width="174" height="93" rx="7.5" stroke="#E6E6E6"/>
</g>
<g clip-path="url(#clip2_2_22895)">
<g clip-path="url(#clip3_2_22895)">
<path d="M236.83 182.695C246.443 182.695 254.236 179.531 254.236 175.629C254.236 171.727 246.443 168.564 236.83 168.564C227.216 168.564 219.423 171.727 219.423 175.629C219.423 179.531 227.216 182.695 236.83 182.695Z" fill="#A558A0"/>
<path d="M236.83 144.962C233.607 144.964 230.517 146.237 228.238 148.501C225.96 150.764 224.68 153.834 224.678 157.034C224.678 164.881 232.39 172.401 235.522 175.141C235.885 175.456 236.35 175.629 236.832 175.629C237.313 175.629 237.779 175.456 238.141 175.141C241.286 172.355 248.985 164.881 248.985 157.034C248.984 153.833 247.703 150.763 245.423 148.499C243.144 146.235 240.053 144.963 236.83 144.962V144.962ZM236.83 161.991C235.731 161.99 234.658 161.666 233.745 161.059C232.832 160.453 232.121 159.591 231.701 158.583C231.281 157.575 231.172 156.466 231.387 155.396C231.602 154.326 232.131 153.344 232.908 152.573C233.685 151.802 234.674 151.277 235.752 151.064C236.829 150.852 237.946 150.961 238.96 151.379C239.975 151.796 240.842 152.503 241.452 153.41C242.062 154.317 242.388 155.384 242.388 156.475C242.389 157.2 242.245 157.917 241.966 158.587C241.687 159.257 241.277 159.866 240.761 160.378C240.245 160.89 239.632 161.297 238.957 161.573C238.282 161.85 237.56 161.992 236.83 161.991Z" fill="#161616"/>
<path d="M267.161 147.263H269.999V158.592H275.31V161.147H267.161V147.263Z" fill="#161616"/>
<path d="M277.37 158.45C277.37 156.942 278.547 155.815 280.704 155.456L283.778 154.942V154.683C283.778 153.631 282.979 152.959 281.822 152.959C281.374 152.956 280.932 153.064 280.535 153.271C280.139 153.479 279.8 153.78 279.548 154.149L277.694 152.737C278.183 152.096 278.82 151.58 279.552 151.235C280.284 150.89 281.088 150.725 281.898 150.754C284.812 150.754 286.313 152.483 286.313 154.683V161.147H283.79V160.179C283.404 160.585 282.936 160.907 282.417 161.123C281.897 161.338 281.338 161.444 280.776 161.431C278.745 161.448 277.37 160.295 277.37 158.45ZM281.284 159.444C281.781 159.461 282.274 159.348 282.712 159.114C283.15 158.881 283.517 158.536 283.778 158.116V156.704L281.381 157.101C280.326 157.281 279.884 157.719 279.884 158.354C279.884 158.988 280.422 159.444 281.284 159.444Z" fill="#161616"/>
<path d="M300.276 161.544C299.698 161.571 299.12 161.477 298.58 161.269C298.04 161.062 297.549 160.744 297.14 160.337V161.147H294.617V146.273H297.14V151.965C297.549 151.557 298.039 151.239 298.579 151.031C299.119 150.822 299.697 150.728 300.276 150.754C303.472 150.754 305.389 153.234 305.389 156.149C305.389 159.064 303.472 161.544 300.276 161.544ZM297.14 154.566V157.74C297.448 158.186 297.863 158.55 298.347 158.799C298.831 159.049 299.37 159.175 299.915 159.168C301.634 159.168 302.753 157.915 302.753 156.153C302.753 154.391 301.634 153.138 299.915 153.138C299.368 153.125 298.828 153.249 298.342 153.498C297.857 153.748 297.444 154.115 297.14 154.566Z" fill="#161616"/>
<path d="M318.011 156.149C318.011 157.601 317.43 158.993 316.397 160.02C315.363 161.047 313.961 161.624 312.499 161.624C311.037 161.624 309.635 161.047 308.601 160.02C307.568 158.993 306.987 157.601 306.987 156.149C306.987 154.697 307.568 153.305 308.601 152.278C309.635 151.251 311.037 150.675 312.499 150.675C313.961 150.675 315.363 151.251 316.397 152.278C317.43 153.305 318.011 154.697 318.011 156.149ZM315.375 156.149C315.375 154.404 314.156 153.134 312.537 153.134C312.142 153.13 311.751 153.205 311.388 153.357C311.024 153.508 310.696 153.732 310.423 154.015C310.149 154.297 309.938 154.633 309.8 155C309.663 155.367 309.602 155.758 309.623 156.149C309.603 156.54 309.664 156.931 309.801 157.297C309.939 157.664 310.151 157.998 310.424 158.28C310.697 158.563 311.025 158.786 311.389 158.937C311.752 159.089 312.143 159.164 312.537 159.16C314.156 159.16 315.375 157.878 315.375 156.149Z" fill="#161616"/>
<path d="M320.332 151.15H322.855V151.944C323.245 151.556 323.709 151.251 324.221 151.047C324.732 150.842 325.28 150.743 325.832 150.754C328.005 150.754 329.746 152.245 329.746 155.197V161.147H327.19V155.301C327.19 153.973 326.429 153.138 325.192 153.138C324.703 153.15 324.227 153.295 323.815 153.557C323.402 153.819 323.07 154.188 322.855 154.625V161.147H320.332V151.15Z" fill="#161616"/>
<path d="M332.63 151.15H335.153V151.944C335.543 151.557 336.008 151.252 336.519 151.047C337.031 150.843 337.579 150.743 338.13 150.754C340.304 150.754 342.044 152.244 342.044 155.197V161.147H339.488V155.301C339.488 153.973 338.727 153.138 337.491 153.138C337.001 153.151 336.524 153.296 336.112 153.559C335.7 153.822 335.368 154.192 335.153 154.629V161.147H332.63V151.15Z" fill="#161616"/>
<path d="M349.806 161.544C346.228 161.544 344.214 159.068 344.214 156.149C344.214 153.23 346.089 150.754 349.385 150.754C352.181 150.754 354.01 152.641 354.01 155.259C354.01 155.733 353.956 156.205 353.851 156.667H346.821C347.06 158.529 348.221 159.285 349.798 159.285C350.293 159.297 350.786 159.196 351.236 158.99C351.687 158.784 352.083 158.477 352.396 158.095L354.212 159.523C353.691 160.182 353.02 160.708 352.254 161.059C351.488 161.411 350.649 161.577 349.806 161.544ZM346.888 154.863H351.513C351.508 154.586 351.447 154.314 351.335 154.061C351.222 153.808 351.061 153.58 350.859 153.389C350.657 153.199 350.419 153.05 350.159 152.952C349.899 152.854 349.622 152.808 349.343 152.817C348.027 152.817 347.17 153.531 346.888 154.842V154.863Z" fill="#161616"/>
<path d="M266.064 178.494C266.064 176.986 267.245 175.859 269.398 175.5L272.476 174.986V174.727C272.476 173.675 271.677 173.003 270.521 173.003C270.072 172.999 269.629 173.106 269.231 173.314C268.834 173.521 268.494 173.823 268.242 174.193L266.384 172.781C266.872 172.14 267.51 171.624 268.242 171.279C268.974 170.934 269.778 170.769 270.588 170.798C273.506 170.798 275.003 172.526 275.003 174.727V181.191H272.48V180.223C272.094 180.629 271.626 180.951 271.107 181.167C270.587 181.382 270.028 181.487 269.465 181.475C267.443 181.492 266.064 180.339 266.064 178.494ZM269.978 179.488C270.476 179.505 270.969 179.391 271.407 179.158C271.846 178.925 272.215 178.58 272.476 178.16V176.748L270.079 177.145C269.02 177.324 268.582 177.763 268.582 178.398C268.582 179.032 269.121 179.488 269.978 179.488Z" fill="#161616"/>
<path d="M277.908 166.317H280.431V181.191H277.908V166.317Z" fill="#161616"/>
<path d="M284.118 173.458H282.243V171.194H284.118V168.689H286.696V171.194H289.773V173.458H286.696V177.533C286.696 178.644 287.297 179.083 288.293 179.083C288.802 179.107 289.31 179.033 289.79 178.865V181.066C289.175 181.305 288.516 181.413 287.856 181.383C285.333 181.383 284.139 179.976 284.139 177.533L284.118 173.458Z" fill="#161616"/>
<path d="M296.702 181.588C293.124 181.588 291.11 179.112 291.11 176.193C291.11 173.274 293.002 170.798 296.282 170.798C299.078 170.798 300.907 172.685 300.907 175.304C300.906 175.777 300.852 176.249 300.747 176.711H293.705C293.944 178.573 295.105 179.329 296.681 179.329C297.177 179.342 297.669 179.241 298.118 179.035C298.568 178.829 298.964 178.522 299.276 178.139L301.096 179.567C300.576 180.224 299.906 180.749 299.143 181.1C298.379 181.451 297.543 181.619 296.702 181.588ZM293.784 174.907H298.409C298.401 174.63 298.338 174.358 298.223 174.105C298.108 173.853 297.943 173.626 297.739 173.438C297.535 173.249 297.295 173.103 297.033 173.008C296.771 172.912 296.493 172.869 296.215 172.882C294.924 172.861 294.066 173.575 293.784 174.886V174.907Z" fill="#161616"/>
<path d="M303.392 171.194H305.915V172.188C306.25 171.817 306.659 171.52 307.117 171.315C307.574 171.11 308.07 171.002 308.572 170.998C308.87 170.997 309.167 171.044 309.451 171.136V173.616C309.085 173.523 308.709 173.476 308.332 173.479C307.849 173.465 307.371 173.579 306.946 173.809C306.522 174.038 306.166 174.375 305.915 174.786V181.191H303.392V171.194Z" fill="#161616"/>
<path d="M311.502 171.194H314.025V171.988C314.414 171.601 314.878 171.296 315.389 171.092C315.9 170.887 316.447 170.787 316.998 170.798C319.176 170.798 320.912 172.288 320.912 175.241V181.191H318.356V175.345C318.356 174.017 317.599 173.182 316.359 173.182C315.87 173.194 315.394 173.339 314.982 173.601C314.571 173.863 314.24 174.232 314.025 174.669V181.191H311.502V171.194Z" fill="#161616"/>
<path d="M323.241 178.494C323.241 176.986 324.423 175.859 326.58 175.5L329.653 174.986V174.727C329.653 173.675 328.855 173.003 327.698 173.003C327.249 172.999 326.806 173.106 326.409 173.314C326.011 173.521 325.671 173.823 325.419 174.193L323.561 172.781C324.05 172.14 324.687 171.624 325.419 171.279C326.151 170.934 326.956 170.769 327.766 170.798C330.684 170.798 332.18 172.526 332.18 174.727V181.191H329.658V180.223C329.271 180.629 328.803 180.951 328.284 181.167C327.765 181.382 327.206 181.487 326.643 181.475C324.621 181.492 323.241 180.339 323.241 178.494ZM327.156 179.488C327.653 179.505 328.146 179.391 328.585 179.158C329.024 178.925 329.392 178.58 329.653 178.16V176.748L327.257 177.145C326.197 177.324 325.76 177.763 325.76 178.398C325.76 179.032 326.298 179.488 327.156 179.488Z" fill="#161616"/>
<path d="M335.086 171.194H337.609V171.988C337.999 171.601 338.463 171.296 338.975 171.091C339.486 170.887 340.034 170.787 340.585 170.798C342.763 170.798 344.5 172.288 344.5 175.241V181.191H341.944V175.345C341.944 174.017 341.183 173.182 339.946 173.182C339.457 173.194 338.98 173.34 338.568 173.603C338.156 173.866 337.824 174.236 337.609 174.673V181.191H335.086V171.194Z" fill="#161616"/>
<path d="M354.498 178.06L356.474 179.567C355.975 180.213 355.33 180.733 354.591 181.084C353.851 181.435 353.039 181.608 352.219 181.588C348.746 181.588 346.669 179.112 346.669 176.193C346.669 173.274 348.746 170.798 352.219 170.798C353.042 170.775 353.858 170.947 354.601 171.299C355.344 171.651 355.992 172.174 356.491 172.823L354.515 174.331C354.256 173.962 353.909 173.664 353.504 173.462C353.099 173.261 352.651 173.163 352.198 173.178C350.542 173.178 349.322 174.431 349.322 176.193C349.322 177.955 350.542 179.208 352.236 179.208C352.679 179.216 353.118 179.116 353.512 178.916C353.907 178.715 354.246 178.421 354.498 178.06Z" fill="#161616"/>
<path d="M362.844 181.588C359.27 181.588 357.256 179.112 357.256 176.193C357.256 173.274 359.132 170.798 362.428 170.798C365.224 170.798 367.053 172.685 367.053 175.304C367.052 175.777 366.998 176.249 366.893 176.711H359.855C360.094 178.573 361.255 179.329 362.832 179.329C363.327 179.342 363.819 179.241 364.269 179.035C364.719 178.829 365.115 178.522 365.426 178.139L367.246 179.567C366.725 180.225 366.054 180.75 365.289 181.102C364.524 181.453 363.686 181.62 362.844 181.588ZM359.93 174.907H364.555C364.55 174.63 364.489 174.357 364.376 174.103C364.263 173.85 364.101 173.621 363.898 173.43C363.696 173.24 363.457 173.092 363.196 172.994C362.934 172.896 362.656 172.851 362.377 172.861C361.07 172.861 360.208 173.575 359.93 174.886V174.907Z" fill="#161616"/>
</g>
</g>
<defs>
<filter id="filter0_d_2_22895" x="269.268" y="0.961914" width="167.464" height="121" filterUnits="userSpaceOnUse" color-interpolation-filters="sRGB">
<feFlood flood-opacity="0" result="BackgroundImageFix"/>
<feColorMatrix in="SourceAlpha" type="matrix" values="0 0 0 0 0 0 0 0 0 0 0 0 0 0 0 0 0 0 127 0" result="hardAlpha"/>
<feOffset dy="10"/>
<feGaussianBlur stdDeviation="5"/>
<feColorMatrix type="matrix" values="0 0 0 0 0 0 0 0 0 0 0 0 0 0 0 0 0 0 0.16 0"/>
<feBlend mode="normal" in2="BackgroundImageFix" result="effect1_dropShadow_2_22895"/>
<feBlend mode="normal" in="SourceGraphic" in2="effect1_dropShadow_2_22895" result="shape"/>
</filter>
<filter id="filter1_d_2_22895" x="385.923" y="121.339" width="162.527" height="102.424" filterUnits="userSpaceOnUse" color-interpolation-filters="sRGB">
<feFlood flood-opacity="0" result="BackgroundImageFix"/>
<feColorMatrix in="SourceAlpha" type="matrix" values="0 0 0 0 0 0 0 0 0 0 0 0 0 0 0 0 0 0 127 0" result="hardAlpha"/>
<feOffset dy="10"/>
<feGaussianBlur stdDeviation="5"/>
<feColorMatrix type="matrix" values="0 0 0 0 0 0 0 0 0 0 0 0 0 0 0 0 0 0 0.16 0"/>
<feBlend mode="normal" in2="BackgroundImageFix" result="effect1_dropShadow_2_22895"/>
<feBlend mode="normal" in="SourceGraphic" in2="effect1_dropShadow_2_22895" result="shape"/>
</filter>
<filter id="filter2_d_2_22895" x="280.923" y="227.962" width="233" height="92" filterUnits="userSpaceOnUse" color-interpolation-filters="sRGB">
<feFlood flood-opacity="0" result="BackgroundImageFix"/>
<feColorMatrix in="SourceAlpha" type="matrix" values="0 0 0 0 0 0 0 0 0 0 0 0 0 0 0 0 0 0 127 0" result="hardAlpha"/>
<feOffset dy="10"/>
<feGaussianBlur stdDeviation="5"/>
<feColorMatrix type="matrix" values="0 0 0 0 0 0 0 0 0 0 0 0 0 0 0 0 0 0 0.16 0"/>
<feBlend mode="normal" in2="BackgroundImageFix" result="effect1_dropShadow_2_22895"/>
<feBlend mode="normal" in="SourceGraphic" in2="effect1_dropShadow_2_22895" result="shape"/>
</filter>
<filter id="filter3_d_2_22895" x="195.923" y="116.962" width="195" height="114" filterUnits="userSpaceOnUse" color-interpolation-filters="sRGB">
<feFlood flood-opacity="0" result="BackgroundImageFix"/>
<feColorMatrix in="SourceAlpha" type="matrix" values="0 0 0 0 0 0 0 0 0 0 0 0 0 0 0 0 0 0 127 0" result="hardAlpha"/>
<feOffset dy="10"/>
<feGaussianBlur stdDeviation="5"/>
<feColorMatrix type="matrix" values="0 0 0 0 0 0 0 0 0 0 0 0 0 0 0 0 0 0 0.16 0"/>
<feBlend mode="normal" in2="BackgroundImageFix" result="effect1_dropShadow_2_22895"/>
<feBlend mode="normal" in="SourceGraphic" in2="effect1_dropShadow_2_22895" result="shape"/>
</filter>
<clipPath id="clip0_2_22895">
<rect width="99" height="44" fill="white" transform="translate(417.687 140.551)"/>
</clipPath>
<clipPath id="clip1_2_22895">
<rect width="172" height="25" fill="white" transform="translate(311.423 255)"/>
</clipPath>
<clipPath id="clip2_2_22895">
<rect width="148" height="38" fill="white" transform="translate(219.423 144.962)"/>
</clipPath>
<clipPath id="clip3_2_22895">
<rect width="148" height="38" fill="white" transform="translate(219.423 144.962)"/>
</clipPath>
</defs>
</svg>
