<svg xmlns="http://www.w3.org/2000/svg" width="532" height="310" fill="none" viewBox="0 0 532 310"><g clip-path="url(#a)"><path fill="#ff8d7e" d="M109.971 171.677a5.36 5.36 0 0 0 1.507-2.109 5.36 5.36 0 0 0 .345-2.569c-3.789-34.229-19.4-69.465-43.75-82.393-25.027-13.286-42.086 23.59-7.408 57.858 26.108 25.791 40.05 29.984 45.353 30.482a5.32 5.32 0 0 0 3.953-1.269"/><path fill="#2e186a" fill-rule="evenodd" d="M46.769 86.66a1.41 1.41 0 0 1 1.994-.01l-.992 1.002-.993 1.002a1.41 1.41 0 0 1-.01-1.994m1.002.992-.993 1.002.03.03.093.092.365.367c.322.324.799.806 1.411 1.434a363 363 0 0 1 5.181 5.43 452 452 0 0 1 16.918 19.157c13.118 15.74 28.347 36.31 37.028 55.826a1.41 1.41 0 1 0 2.577-1.146c-8.844-19.88-24.276-40.692-37.438-56.486A454 454 0 0 0 55.918 94.08a366 366 0 0 0-5.222-5.472 226 226 0 0 0-1.803-1.829l-.096-.096-.033-.032s-.001-.001-.993 1.001" clip-rule="evenodd"/><path fill="#2e186a" fill-rule="evenodd" d="M55.585 136.116h.007l.034-.001.143-.003q.194-.004.58-.005c.514-.001 1.275.008 2.251.043 1.954.072 4.766.253 8.18.693 6.834.881 16.049 2.795 25.596 6.92a1.41 1.41 0 1 0 1.119-2.589c-9.853-4.257-19.338-6.224-26.354-7.128-3.51-.453-6.41-.64-8.438-.715a65 65 0 0 0-2.357-.045 30 30 0 0 0-.795.009l-.045.002h-.017l.047 1.41-.048-1.41a1.41 1.41 0 0 0 .096 2.819" clip-rule="evenodd"/><path fill="#2e186a" fill-rule="evenodd" d="M75.832 90.712a1.41 1.41 0 0 1 1.921.534l-1.228.694-1.228.694a1.41 1.41 0 0 1 .535-1.922m.693 1.228-1.228.694.015.026.046.081a136 136 0 0 1 .868 1.575 276 276 0 0 1 2.45 4.603c2.022 3.885 4.699 9.235 7.325 15.099 2.627 5.87 5.191 12.229 6.996 18.139 1.817 5.951 2.813 11.285 2.437 15.168a1.41 1.41 0 1 0 2.807.272c.432-4.461-.707-10.24-2.546-16.264-1.853-6.065-4.468-12.542-7.12-18.467-2.655-5.93-5.359-11.331-7.398-15.249a279 279 0 0 0-3.173-5.922l-.186-.332-.048-.086-.016-.03z" clip-rule="evenodd"/><path fill="#ff8d7e" d="M140.902 140.372c1.881 1.278 4.01 1.499 5.698.583 32.665-17.766 60.217-50.915 60.64-86.71.47-36.792-45.725-44.511-62.389 12.491-12.542 42.894-9.552 62.179-7.305 69.108a8.9 8.9 0 0 0 3.337 4.542z"/><path fill="#2e186a" fill-rule="evenodd" d="M195.796 30.705a1.41 1.41 0 0 1-.579 1.908c-9.233 4.931-17.072 14.111-23.638 25.288-6.555 11.157-11.766 24.174-15.802 36.603-4.033 12.423-6.88 24.217-8.717 32.909a311 311 0 0 0-2.021 10.388 194 194 0 0 0-.602 3.605l-.029.188-.007.047-.002.014-1.395-.207-1.395-.208.002-.017.008-.051.03-.197q.04-.26.121-.763c.108-.668.271-1.648.491-2.9a316 316 0 0 1 2.039-10.483c1.852-8.757 4.722-20.652 8.795-33.196 4.07-12.537 9.356-25.763 16.052-37.16 6.685-11.379 14.851-21.065 24.741-26.348a1.41 1.41 0 0 1 1.908.58m-52.999 112.138a1.41 1.41 0 0 1-1.188-1.602l1.395.207 1.395.207a1.41 1.41 0 0 1-1.602 1.188" clip-rule="evenodd"/><path fill="#2e186a" fill-rule="evenodd" d="M206.653 59.196a1.41 1.41 0 0 1-.715 1.862c-4.174 1.856-13.68 6.214-23.55 11.64-9.918 5.452-20.025 11.888-25.537 17.875a1.41 1.41 0 0 1-2.075-1.91c5.855-6.36 16.332-12.983 26.253-18.437 9.968-5.48 19.554-9.874 23.762-11.745a1.41 1.41 0 0 1 1.862.715M146.901 64.91a1.41 1.41 0 0 1 1.272 1.535c-.59 6.293-1.172 14.887-.955 22.746.108 3.931.415 7.641 1.008 10.77.601 3.166 1.465 5.572 2.579 7.032a1.41 1.41 0 1 1-2.242 1.711c-1.519-1.991-2.483-4.923-3.108-8.218-.632-3.332-.946-7.206-1.057-11.217-.221-8.025.373-16.749.967-23.087a1.41 1.41 0 0 1 1.536-1.273M191.666 100.103a1.41 1.41 0 0 1-.218 1.983c-6.773 5.426-17.599 10.631-26.617 14.452a280 280 0 0 1-15.164 5.895c-.419.148-.744.261-.966.338l-.253.087-.066.023-.021.007h-.002l-.453-1.335.453 1.335a1.41 1.41 0 1 1-.905-2.671l.206.61-.206-.61.019-.007.061-.021.245-.084c.216-.075.536-.186.949-.332.824-.291 2.019-.72 3.495-1.267a278 278 0 0 0 11.508-4.566c9.008-3.816 19.512-8.895 25.953-14.056a1.41 1.41 0 0 1 1.982.219M89.352 57.696a1.41 1.41 0 0 1 1.98-.232l-.874 1.106c.875-1.106.876-1.106.877-1.105l.003.003.01.008.034.028.125.101q.162.133.46.39c.398.344.972.854 1.689 1.534 1.433 1.36 3.443 3.402 5.774 6.145 4.662 5.488 10.613 13.79 15.818 25.086 10.419 22.617 17.802 57.145 5.983 104.954a1.411 1.411 0 0 1-2.738-.677c11.665-47.184 4.346-81.058-5.807-103.096-5.082-11.031-10.885-19.12-15.406-24.44-2.26-2.66-4.199-4.629-5.566-5.926a46 46 0 0 0-1.59-1.445 24 24 0 0 0-.514-.432l-.022-.018-.004-.004h-.001a1.41 1.41 0 0 1-.231-1.98" clip-rule="evenodd"/><path fill="#ff8d7e" d="M94.598 61.454c2.814-1.643 2.375-7.634-.98-13.38s-8.356-9.074-11.17-7.43c-2.813 1.642-2.375 7.633.98 13.38 3.356 5.746 8.356 9.073 11.17 7.43"/><path fill="#ff8d7e" d="M95.342 61.39c.065-3.257-5.276-6.006-11.928-6.138s-12.099 2.401-12.163 5.66c-.065 3.257 5.275 6.005 11.928 6.138 6.653.132 12.098-2.401 12.163-5.66"/><path fill="#ff8d7e" d="M106.073 56.253c3.589-4.737 4.618-10.002 2.298-11.76s-7.109.658-10.698 5.395-4.618 10.002-2.298 11.76 7.109-.658 10.698-5.395"/><path fill="#ff8d7e" d="M100.309 78.693c2.649-1.205 2.803-6.567.343-11.978s-6.601-8.82-9.25-7.615-2.804 6.568-.344 11.978 6.601 8.82 9.251 7.615"/><path fill="#ff8d7e" d="M109.665 62.406c.276-2.613-3.823-5.189-9.157-5.753s-9.882 1.096-10.159 3.709c-.276 2.613 3.824 5.189 9.157 5.753s9.883-1.096 10.159-3.709"/><path fill="#fff" d="m70.884 200.18 22.094 98.909h70.182l22.089-98.909c1.26-5.641-2.308-11.203-7.206-11.203H78.095c-4.903.019-8.471 5.562-7.211 11.203"/><path fill="#2e186a" fill-rule="evenodd" d="M78.095 187.567h99.948c3.024 0 5.548 1.721 7.099 4.134 1.55 2.412 2.196 5.598 1.484 8.787l-1.376-.307 1.376.307-22.089 98.909a1.41 1.41 0 0 1-1.376 1.103H92.978a1.41 1.41 0 0 1-1.376-1.103l-22.094-98.909c-.712-3.189-.066-6.371 1.485-8.781s4.076-4.128 7.097-4.14zm.003 2.821c-1.88.008-3.591 1.071-4.733 2.846-1.144 1.776-1.652 4.187-1.104 6.639l21.847 97.806h67.923l21.842-97.806c.548-2.452.04-4.868-1.104-6.647-1.142-1.778-2.851-2.838-4.726-2.838z" clip-rule="evenodd"/><path stroke="#2e186a" stroke-linecap="round" stroke-linejoin="round" stroke-width="2.5" d="M165.812 164.356c-8.483.409-26.247 5.888-29.436 24.53"/><path fill="#ff8d7e" d="M165.513 164.908c1.635-.226 2.407-4.433 1.724-9.397-.684-4.964-2.564-8.806-4.2-8.58-1.635.225-2.407 4.432-1.724 9.396.684 4.964 2.564 8.806 4.2 8.581"/><path fill="#ff8d7e" d="M173.713 161.771c3.571-2.904 5.691-6.212 4.735-7.389-.956-1.176-4.627.224-8.199 3.128s-5.691 6.212-4.735 7.388 4.627-.223 8.199-3.127"/><path fill="#ff8d7e" d="M165.512 164.701c.758-1.467-2.237-4.521-6.689-6.821-4.451-2.3-8.674-2.975-9.432-1.508s2.236 4.521 6.688 6.821 8.675 2.975 9.433 1.508M180.172 172.823c.72-1.334-1.979-4.19-6.028-6.378-4.05-2.188-7.917-2.88-8.638-1.546s1.978 4.189 6.028 6.377 7.917 2.881 8.638 1.547"/><path fill="#ff8d7e" d="M164.854 172.977c1.934-4.189 2.382-8.101 1.003-8.738s-4.066 2.243-5.999 6.432-2.382 8.101-1.002 8.738c1.379.637 4.065-2.243 5.998-6.432"/><path fill="#2e186a" d="m486.716 134.681-219.528 1.609a9.1 9.1 0 0 0-8.157 5.203l-70.799 145.178-138.93.135s-3.099 20.341 22.82 21.604l105.674-.338h16.793l224.632-.231 75.787-160.178a9.096 9.096 0 0 0-8.292-12.982"/><path fill="#fff" fill-rule="evenodd" d="M469.807 133.76a10.016 10.016 0 0 1 9.131 14.297L404.294 306.06a.92.92 0 1 1-1.666-.787l74.644-158.003a8.17 8.17 0 0 0-3.49-10.677 8.2 8.2 0 0 0-3.962-.991.92.92 0 1 1-.013-1.842" clip-rule="evenodd"/><path fill="#fff" d="m211.329 279.791 181.546-.921a16.76 16.76 0 0 0 14.962-9.401l54.665-115.835c2.349-4.751-1.296-10.215-6.79-10.172l-179.91 1.308a7.49 7.49 0 0 0-6.686 4.079l-63.287 122.167a6.083 6.083 0 0 0 5.5 8.775"/><path fill="#ffc29e" stroke="#2e186a" stroke-linecap="round" stroke-linejoin="round" stroke-width="2" d="M353.867 150.484c-6.212 16.296-9.561 39.774-9.376 40.922s18.76 30.577 25.295 38.846c10.816 13.686 29.787 1.364 17.713-18.743-12.079-20.103-15.652-38.052-15.652-38.052z"/><path fill="#ffc29e" d="m525.511 95.38-35.361 7.924c-21.42 83.052-69.82 65.556-69.82 65.556-6.367-4.031-96.746-27.37-96.746-27.37s11.907-54.142 36.094-69.774c15.726-10.163 96.09-46.515 150.375-70.7"/><path stroke="#2e186a" stroke-linecap="round" stroke-linejoin="round" stroke-width="2" d="m525.511 95.38-35.361 7.924c-21.42 83.052-69.82 65.556-69.82 65.556-6.367-4.031-96.746-27.37-96.746-27.37s11.907-54.142 36.094-69.774c15.726-10.163 96.09-46.515 150.375-70.7"/><path fill="#ffc29e" stroke="#2e186a" stroke-linecap="round" stroke-linejoin="round" stroke-width="2" d="M445.452 167.302c8.432 6.448 15.519 14.169 24.701 4.144 9.182-10.03 11.772-14.519 5.849-36.853s-17.855-26.21-27.179-10.932-3.371 43.641-3.371 43.641"/><path fill="#ffc29e" stroke="#2e186a" stroke-linecap="round" stroke-linejoin="round" stroke-width="2" d="M421.188 197.224s13.018 9.507 19.954 4.052 15.01-33.011 13.695-57.348c-1.315-24.332-21.998-19.909-24.748-6.577s-8.901 59.868-8.901 59.868z"/><path fill="#ffc29e" stroke="#2e186a" stroke-linecap="round" stroke-linejoin="round" stroke-width="2" d="M405.009 210.836c16.109 2.857 18.463-8.356 20.062-16.845s5.16-26.762 6.044-35.618c2.254-22.58-25.248-19.671-31.874-2.417-6.664 17.35-10.345 52.027 5.764 54.884z"/><path fill="#c1c1fb" stroke="#2e186a" stroke-linecap="round" stroke-linejoin="round" stroke-width="2" d="m402.216 105.134-153.784-.214c-6.299-.009-11.413 5.096-11.422 11.403l-.12 86.087c-.009 6.307 5.091 11.427 11.39 11.435l153.785.215c6.299.009 11.413-5.096 11.422-11.403l.12-86.087c.008-6.307-5.091-11.427-11.391-11.436"/><rect width="42.564" height="50.465" x="357.466" y="142.663" fill="#fff" rx="4"/><path fill="#5d21d1" d="M393.844 193.263c-1.431-3.297-3.345-6.983-4.987-7.674-3.091-1.303-20.687-5.563-24.998-3.465-2.767 1.346-4.897 2.904-6.496 4.359v2.78a4 4 0 0 0 4 4z"/><path fill="#fe7624" d="m376.01 158.006 1.885-.574-1.01-3.324-1.885.575z"/><path fill="#2e186a" d="M374.937 155.249a3.47 3.47 0 0 0 3.471-3.474 3.47 3.47 0 0 0-3.471-3.474 3.47 3.47 0 0 0-3.47 3.474 3.47 3.47 0 0 0 3.47 3.474M376.446 156.026c3.052-.626 7.066-.427 9.885 1.049 8.539 4.954 8.496 10.996 4.767 13.595.281-4.67-.362-6.526-1.918-7.777-1.819 2.606-8.134 5.075-13.273 4.548 0-.017-.482 4.627-.034 4.64.052.285.694 2.861.694 2.861l-1.22 4.868-12.173-3.297c-.69-.095-1.147-.837-.906-1.476 1.5-3.988 4.363-16.853 14.187-19.007z"/><path fill="#fff" stroke="#2e186a" stroke-linecap="round" stroke-linejoin="round" d="m383.705 179.776-.469 4.078 1.414.479c.198.398 2.082 6.125-4.212 5.792-4.108-.216-9.13-4.959-9.669-7.88l1.198-.026c1.772-.147 2.936-1.235 3.453-2.935l1.41-4.639z"/><path fill="#fff" d="m376.748 173.566-.694.06s-4.027.017-3.69-3.686c.254-2.809 3-2.321 4.31-1.924"/><path stroke="#2e186a" stroke-linecap="round" stroke-linejoin="round" stroke-width="1.61" d="m376.748 173.566-.694.06s-4.027.017-3.69-3.686c.254-2.809 3-2.321 4.31-1.924"/><path fill="#fff" stroke="#2e186a" stroke-linecap="round" stroke-linejoin="round" d="M391.098 170.665c.28-4.669-.358-6.344-1.918-7.595-1.793 2.563-7.428 5.049-13.148 4.389-.198.626-.034.064-.146.764-.065.733-.13 1.562-.16 2.261.073 2.676.836 4.454.836 4.454 1.048 2.749 3.078 5.002 6.1 5.714 5.276 1.239 7.768-6.102 8.126-7.76.176-.82.31-2.227.31-2.227"/><path stroke="#2e186a" stroke-linecap="round" stroke-linejoin="round" d="m385.973 174.195 1.543.221-.198-6.245M382.848 167.674s1.142-1.109 2.099-.267M384.904 176.833s-1.582.194-1.832-1.062M389.154 168.374s1.462-.635 2.061.492"/><path fill="#2e186a" d="M382.651 170.217c.076-.435-.09-.827-.371-.876s-.572.262-.648.696.09.827.371.876.571-.262.648-.696M389.97 171.474c.076-.435-.09-.827-.372-.876-.281-.05-.571.262-.647.696-.077.435.09.827.371.876s.571-.262.648-.696"/><path stroke="#fe7624" stroke-linecap="round" stroke-linejoin="round" d="M386.304 169.805c.404-2.357-.716-4.515-2.501-4.822-1.786-.307-3.561 1.354-3.965 3.71-.404 2.357.716 4.515 2.502 4.822s3.56-1.354 3.964-3.71M394.845 171.585c.404-2.356-.716-4.515-2.501-4.822-1.786-.307-3.561 1.354-3.965 3.711s.716 4.515 2.502 4.822c1.785.306 3.56-1.355 3.964-3.711M388.374 169.832l-2.043-.28M379.985 167.95l-4.44-.146"/><path fill="#000091" d="M264.351 118.051h-14.967v14.104h14.967z"/><path fill="#e1000f" d="M287.892 118.051h-14.967v14.104h14.967z"/><path fill="#fff" d="M273.015 118.051h-8.651v14.104h8.651z"/><path stroke="#2e186a" stroke-linecap="round" stroke-linejoin="round" stroke-width="2" d="M251.04 155.495h87.412M251.04 173.116h87.412M314.743 202.459c-.039-3.28-.073-6.56.091-9.836.103-2.071.293-4.156.905-6.137.155-.5.341-1.005.694-1.385s.91-.622 1.405-.462c.44.138.737.544.974.941.699 1.182 1.117 2.507 1.479 3.832a58.5 58.5 0 0 1 1.759 9.322c.177 1.692.28 3.418-.108 5.071-.078.337-.185.682-.431.924s-.66.345-.935.138c-.147-.108-.229-.285-.298-.453-.375-.941-.483-1.972-.517-2.987-.082-2.429.25-4.868.97-7.19.362-1.165.849-2.339 1.741-3.163.263-.246.587-.462.949-.466.685 0 1.107.729 1.357 1.368a24 24 0 0 1 1.626 8.165c.008.436-.082.989-.505 1.084-.448-.479-.659-1.131-.806-1.77a12.73 12.73 0 0 1 .836-8.105c.337-.729.755-1.437 1.358-1.968.643.203.91.95 1.091 1.597q.816 2.939 1.625 5.878a55 55 0 0 1 5.078-4.838M337.848 189.421l.466-.427"/><path fill="#ffc29e" d="M399.582 62.735s-27.679 22.775-35.24 29.123c-7.557 6.349-14.35 20.522-30.904 27.708-19.549 8.484-5.922 40.002 30.292 18.488 25.605-15.213 23.571-16.874 34.753-21.548 3.729-1.558 7.061-2.288 10.264-2.024 12.815 1.053 41.434-.976 71.29-24.79"/><path stroke="#2e186a" stroke-linecap="round" stroke-linejoin="round" stroke-width="2" d="M399.582 62.735s-27.679 22.775-35.24 29.123c-7.557 6.349-14.35 20.522-30.904 27.708-19.549 8.484-5.922 40.002 30.292 18.488 25.605-15.213 23.571-16.874 34.753-21.548 3.729-1.558 7.061-2.288 10.264-2.024 12.815 1.053 41.434-.976 71.29-24.79"/><path fill="#ff8d7e" d="M375.123 292.602h63.563a4.896 4.896 0 0 1 4.893 4.896v10.9h-73.351v-10.9a4.9 4.9 0 0 1 4.895-4.896"/><path fill="#000091" fill-rule="evenodd" d="M306.801 250.183h27v3h-27zm15-15h10.5l-12 12-12-12h10.5v-12h3z" clip-rule="evenodd"/></g><defs><clipPath id="a"><path fill="#fff" d="M.5 0h531v310H.5z"/></clipPath></defs></svg>