<svg width="16" height="16" viewBox="0 0 16 16" fill="none" xmlns="http://www.w3.org/2000/svg">
<path fill-rule="evenodd" clip-rule="evenodd" d="M12.6657 6.66634H13.3324C13.7005 6.66634 13.999 6.96482 13.999 7.33301V13.9997C13.999 14.3679 13.7005 14.6663 13.3324 14.6663H2.66569C2.2975 14.6663 1.99902 14.3679 1.99902 13.9997V7.33301C1.99902 6.96482 2.2975 6.66634 2.66569 6.66634H3.33236V5.99967C3.33236 4.33244 4.22182 2.79184 5.66569 1.95822C7.10956 1.1246 8.88849 1.1246 10.3324 1.95822C11.7762 2.79184 12.6657 4.33244 12.6657 5.99967V6.66634ZM11.3324 6.66634V5.99967C11.3324 4.15873 9.83997 2.66634 7.99902 2.66634C6.15807 2.66634 4.66569 4.15873 4.66569 5.99967V6.66634H11.3324ZM7.33236 9.33301V11.9997H8.66569V9.33301H7.33236Z" fill="#000091"/>
</svg>
