<?xml version="1.0" encoding="UTF-8"?>
<svg width="30px" height="30px" viewBox="0 0 30 30" version="1.1" xmlns="http://www.w3.org/2000/svg" xmlns:xlink="http://www.w3.org/1999/xlink">
    <title>livre</title>
    <defs></defs>
    <g id="Page-1" stroke="none" stroke-width="1" fill="none" fill-rule="evenodd">
        <g id="book" fill-rule="nonzero">
            <circle id="Oval" fill="#22967E" cx="15" cy="15" r="15"></circle>
            <path d="M21.145875,20.416625 L10.937525,20.416625 C10.55075,20.416625 10.1798125,20.263 9.906325,19.9895 C9.6328375,19.716 9.4791875,19.345125 9.4791875,18.958375 C9.4791875,18.5715 9.6328375,18.200625 9.906325,17.927125 C10.1798125,17.653625 10.55075,17.5 10.937525,17.5 L21.145875,17.5 L21.145875,8.0208375 C21.145875,7.82745 21.069,7.641975 20.93225,7.5052375 C20.7955,7.3684875 20.610125,7.2916625 20.41675,7.2916625 L10.937525,7.2916625 C10.163975,7.2916625 9.4221125,7.5989625 8.875125,8.1459375 C8.32815,8.692925 8.0208625,9.4347875 8.0208625,10.2083375 L8.0208625,18.958375 C8.0208625,19.731875 8.32815,20.47375 8.875125,21.02075 C9.4221125,21.56775 10.163975,21.875 10.937525,21.875 L20.41675,21.875 C20.610125,21.875 20.7955,21.798125 20.93225,21.661375 C21.069,21.524625 21.145875,21.33925 21.145875,21.145875 L21.145875,20.416625 Z M20.41675,18.229125 L10.937525,18.229125 C10.7441375,18.229125 10.558675,18.306 10.421925,18.44275 C10.2851875,18.5795 10.2083625,18.765 10.2083625,18.958375 C10.2083625,19.15175 10.2851875,19.337125 10.421925,19.473875 C10.558675,19.610625 10.7441375,19.6875 10.937525,19.6875 L20.41675,19.6875 L20.41675,18.229125 Z" id="Shape" fill="#FFFFFF"></path>
        </g>
    </g>
</svg>
