<svg width="22" height="22" viewBox="0 0 22 22" fill="none" xmlns="http://www.w3.org/2000/svg">
<path d="M16.8337 14.2409L15.5375 12.9429L16.8337 11.6467C17.2623 11.2218 17.6028 10.7164 17.8356 10.1595C18.0685 9.60265 18.189 9.00528 18.1903 8.4017C18.1916 7.79812 18.0737 7.20022 17.8433 6.64233C17.613 6.08444 17.2747 5.57755 16.8479 5.15075C16.4211 4.72396 15.9142 4.38566 15.3563 4.15529C14.7984 3.92492 14.2005 3.80702 13.5969 3.80834C12.9934 3.80966 12.396 3.93019 11.8391 4.163C11.2822 4.39581 10.7768 4.73632 10.3519 5.16498L9.05574 6.46206L7.75866 5.16589L9.05666 3.86973C10.2601 2.66631 11.8923 1.99023 13.5942 1.99023C15.2961 1.99023 16.9282 2.66631 18.1317 3.86973C19.3351 5.07315 20.0112 6.70534 20.0112 8.40723C20.0112 10.1091 19.3351 11.7413 18.1317 12.9447L16.8346 14.2409H16.8337ZM14.2413 16.8332L12.9442 18.1294C11.7408 19.3328 10.1086 20.0089 8.40674 20.0089C6.70485 20.0089 5.07266 19.3328 3.86924 18.1294C2.66582 16.926 1.98975 15.2938 1.98975 13.5919C1.98975 11.89 2.66582 10.2578 3.86924 9.05439L5.16632 7.75823L6.46249 9.05623L5.16632 10.3524C4.73766 10.7773 4.39715 11.2827 4.16434 11.8396C3.93153 12.3965 3.811 12.9938 3.80968 13.5974C3.80836 14.201 3.92627 14.7989 4.15664 15.3568C4.38701 15.9147 4.7253 16.4216 5.1521 16.8484C5.5789 17.2752 6.08579 17.6135 6.64368 17.8438C7.20157 18.0742 7.79946 18.1921 8.40304 18.1908C9.00662 18.1895 9.604 18.0689 10.1609 17.8361C10.7177 17.6033 11.2232 17.2628 11.6481 16.8341L12.9442 15.538L14.2413 16.8341V16.8332ZM13.5923 7.11014L14.8894 8.40723L8.40766 14.8881L7.11057 13.5919L13.5923 7.11106V7.11014Z" fill="#2A2A2A"/>
</svg>
