<svg width="17" height="17" viewBox="0 0 17 17" fill="none" xmlns="http://www.w3.org/2000/svg">
<g id="history-line 1">
<path id="Vector" d="M8.50358 1.88733C12.1854 1.88733 15.1702 4.8721 15.1702 8.554C15.1702 12.2359 12.1854 15.2207 8.50358 15.2207C4.82168 15.2207 1.83691 12.2359 1.83691 8.554H3.17025C3.17025 11.4995 5.55806 13.8873 8.50358 13.8873C11.4491 13.8873 13.8369 11.4995 13.8369 8.554C13.8369 5.60848 11.4491 3.22066 8.50358 3.22066C6.67039 3.22066 5.05323 4.14556 4.09325 5.55416L5.83691 5.554V6.88733H1.83691V2.88733H3.17025L3.17017 4.55345C4.38647 2.9345 6.32273 1.88733 8.50358 1.88733ZM9.17025 5.22066L9.17011 8.27733L11.332 10.4396L10.3892 11.3824L7.83678 8.82933L7.83691 5.22066H9.17025Z" fill="#929292"/>
</g>
</svg>
