<svg width="23" height="23" viewBox="0 0 23 23" fill="none" xmlns="http://www.w3.org/2000/svg">
<path d="M11.3297 22.6593C17.5869 22.6593 22.6593 17.5869 22.6593 11.3297C22.6593 5.07246 17.5869 0 11.3297 0C5.07248 0 0 5.07246 0 11.3297C0 17.5869 5.07248 22.6593 11.3297 22.6593Z" fill="#77B645"/>
<path d="M4.25845 12.8145C5.40831 14.4835 7.30363 15.7933 8.81868 17.1182C9.74521 17.9301 10.9675 17.749 11.6617 16.753C13.5691 14.0066 15.4674 11.1999 17.6464 8.66172C19.1584 6.90221 16.6082 4.32784 15.0841 6.09942C12.7029 8.87299 10.6174 11.9272 8.53198 14.9241C9.47964 14.8034 10.4273 14.6797 11.3749 14.5589C10.72 13.9855 10.0681 13.4061 9.41926 12.8236C8.95147 12.4041 8.4867 11.9846 8.02796 11.559C7.85291 11.3961 6.9807 10.4061 7.3821 10.9886C6.06925 9.08122 2.93051 10.889 4.25542 12.8175L4.25845 12.8145Z" fill="white"/>
</svg>
