<?xml version="1.0" encoding="UTF-8"?>
<svg fill="none" viewBox="0 0 22 22" xmlns="http://www.w3.org/2000/svg">
<path d="m17.417 6.4167h4.5834v1.8333h-4.5834v-1.8333zm-1.8333 4.5833h6.4167v1.8333h-6.4167v-1.8333zm2.75 4.5833h3.6667v1.8334h-3.6667v-1.8334zm-16.5 4.5834c0-1.9449 0.77261-3.8102 2.1479-5.1855 1.3753-1.3752 3.2405-2.1479 5.1854-2.1479 1.9449 0 3.8102 0.7727 5.1855 2.1479 1.3752 1.3753 2.1479 3.2406 2.1479 5.1855h-1.8334c0-1.4587-0.5794-2.8577-1.6109-3.8891-1.0314-1.0315-2.4304-1.6109-3.8891-1.6109-1.4587 0-2.8576 0.5794-3.8891 1.6109-1.0314 1.0314-1.6109 2.4304-1.6109 3.8891h-1.8333zm7.3333-8.25c-3.0388 0-5.5-2.4613-5.5-5.5s2.4612-5.5 5.5-5.5c3.0388 0 5.5 2.4612 5.5 5.5s-2.4612 5.5-5.5 5.5zm0-1.8334c2.0259 0 3.6667-1.6408 3.6667-3.6666 0-2.0258-1.6408-3.6667-3.6667-3.6667-2.0258 0-3.6667 1.6408-3.6667 3.6667 0 2.0258 1.6408 3.6666 3.6667 3.6666z" fill="#2A2A2A"/>
</svg>
