<?xml version="1.0" encoding="UTF-8"?>
<svg height="63" viewBox="0 0 512 63" xmlns="http://www.w3.org/2000/svg">
<path d="m0 11c0-6.0751 4.9249-11 11-11h490c6.075 0 11 4.9249 11 11v41c0 6.0751-4.925 11-11 11h-490c-6.0751 0-11-4.9249-11-11v-41z" fill="#FFF1E5"/>
<circle cx="43.5" cy="32.5" r="19.5" fill="#F49979"/>
<path d="m43.544 22.344c0.5235-5e-4 1.0454 0.0573 1.5561 0.1724h-3.0976c0.5058-0.1144 1.0228-0.1722 1.5415-0.1724z" fill="#fff"/>
<path d="m50.578 32.5c-1.0492 1e-4 -2.0727-0.3249-2.9297-0.9302-0.8571-0.6054-1.5055-1.4613-1.8563-2.4502-0.3507-0.9889-0.3865-2.0621-0.1025-3.0722 0.2841-1.01 0.874-1.9073 1.6888-2.5684l2.4185 6.8184 0.227 0.6401 0.5542 1.5625z" fill="#fff"/>
<path d="m50.578 22.344c-1.0043 0-1.9861 0.2979-2.8212 0.8558-0.8351 0.558-1.486 1.3511-1.8704 2.279-0.3843 0.9279-0.4849 1.949-0.2889 2.934 0.1959 0.9851 0.6795 1.8899 1.3897 2.6001s1.6151 1.1939 2.6001 1.3898c0.9851 0.1959 2.0061 0.0954 2.934-0.289 0.9279-0.3843 1.721-1.0352 2.279-1.8703s0.8558-1.8169 0.8558-2.8213c0.0032-0.6677-0.1259-1.3295-0.38-1.947-0.2541-0.6176-0.628-1.1787-1.1002-1.6508-0.4722-0.4722-1.0333-0.8462-1.6508-1.1002-0.6176-0.2541-1.2793-0.3833-1.9471-0.3801zm0.7813 8.5938h-1.3355l-0.227-0.6402v-0.9223h1.5625v1.5625zm0-2.7344h-1.5625v-4.2969h1.5625v4.2969z" fill="#fff"/>
<path d="m45.109 22.344c-1e-4 0.0576-0.0033 0.1152-0.0098 0.1724h-3.1054c-0.0238-0.2113-0.0041-0.4252 0.0577-0.6287 0.0618-0.2034 0.1645-0.3921 0.3018-0.5545s0.3062-0.295 0.4966-0.3898c0.1903-0.0948 0.398-0.1498 0.6103-0.1615 0.2123-0.0118 0.4248 0.0199 0.6244 0.0932 0.1996 0.0732 0.3822 0.1864 0.5365 0.3326 0.1544 0.1463 0.2773 0.3225 0.3612 0.5179 0.0838 0.1954 0.127 0.4058 0.1267 0.6184z" fill="#fff"/>
<path d="m45.891 41.875c0 0.6216-0.2469 1.2177-0.6864 1.6573-0.4396 0.4395-1.0357 0.6865-1.6573 0.6865s-1.2178-0.247-1.6573-0.6865c-0.4395-0.4396-0.6865-1.0357-0.6865-1.6573h4.6875z" fill="#fff"/>
<path d="m50.024 30.938h-0.227v-0.6402l0.227 0.6402z" fill="#fff"/>
<path d="m45.109 40.312h-8.2032c-0.1036 0-0.2029 0.0412-0.2762 0.1144-0.0732 0.0733-0.1144 0.1726-0.1144 0.2762s0.0412 0.203 0.1144 0.2762c0.0733 0.0733 0.1726 0.1145 0.2762 0.1145h8.2032c0.1036 0 0.2029-0.0412 0.2762-0.1145 0.0732-0.0732 0.1144-0.1726 0.1144-0.2762s-0.0412-0.2029-0.1144-0.2762c-0.0733-0.0732-0.1726-0.1144-0.2762-0.1144z" fill="#fff"/>
<path d="m47.062 40.312h-0.7813c-0.1036 0-0.2029 0.0412-0.2762 0.1144-0.0732 0.0733-0.1144 0.1726-0.1144 0.2762s0.0412 0.203 0.1144 0.2762c0.0733 0.0733 0.1726 0.1145 0.2762 0.1145h0.7813c0.1036 0 0.203-0.0412 0.2762-0.1145 0.0733-0.0732 0.1144-0.1726 0.1144-0.2762s-0.0411-0.2029-0.1144-0.2762c-0.0732-0.0732-0.1726-0.1144-0.2762-0.1144z" fill="#fff"/>
<path d="m49.797 28.594h1.5625c0.1036 0 0.2029-0.0412 0.2762-0.1145 0.0732-0.0732 0.1144-0.1726 0.1144-0.2762v-4.2969c0-0.1036-0.0412-0.2029-0.1144-0.2762-0.0733-0.0732-0.1726-0.1144-0.2762-0.1144h-1.5625c-0.1036 0-0.203 0.0412-0.2762 0.1144-0.0733 0.0733-0.1145 0.1726-0.1145 0.2762v4.2969c0 0.1036 0.0412 0.203 0.1145 0.2762 0.0732 0.0733 0.1726 0.1145 0.2762 0.1145zm0.3906-4.2969h0.7813v3.5156h-0.7813v-3.5156z" fill="#fff"/>
<path d="m49.797 31.328h1.5625c0.1036 0 0.2029-0.0411 0.2762-0.1144 0.0732-0.0732 0.1144-0.1726 0.1144-0.2762v-1.5625c0-0.1036-0.0412-0.203-0.1144-0.2762-0.0733-0.0733-0.1726-0.1144-0.2762-0.1144h-1.5625c-0.1036 0-0.203 0.0411-0.2762 0.1144-0.0733 0.0732-0.1145 0.1726-0.1145 0.2762v1.5625c0 0.1036 0.0412 0.203 0.1145 0.2762 0.0732 0.0733 0.1726 0.1144 0.2762 0.1144zm0.3906-1.5625h0.7813v0.7813h-0.7813v-0.7813z" fill="#fff"/>
<path d="m56.047 27.422c7e-4 -1.0095-0.2783-1.9994-0.8059-2.86-0.5276-0.8605-1.2832-1.5582-2.1831-2.0156s-1.9088-0.6566-2.915-0.5755c-1.0062 0.081-1.9703 0.4391-2.7854 1.0346-0.5814-0.3485-1.2081-0.6151-1.8623-0.7925-0.0331-0.4945-0.2529-0.9578-0.6149-1.2962s-0.8392-0.5265-1.3347-0.5261c-0.4956 4e-4 -0.9724 0.1891-1.334 0.5281-0.3615 0.3389-0.5806 0.8026-0.6129 1.2971-3.1504 0.8657-5.4736 3.7778-5.4736 7.2266v8.9717c0 0.1464-0.0411 0.2898-0.1187 0.414l-0.6543 1.0469c-0.1479 0.2365-0.2299 0.5082-0.2373 0.7871-0.0074 0.2788 0.06 0.5546 0.1952 0.7986s0.3333 0.4473 0.5736 0.5888c0.2404 0.1416 0.5143 0.2162 0.7932 0.2161h4.1641c0.0939 0.6507 0.4191 1.2459 0.9161 1.6763s1.1325 0.6673 1.7899 0.6673c0.6575 0 1.293-0.2369 1.79-0.6673s0.8222-1.0256 0.9161-1.6763h4.1641c0.2789 1e-4 0.5528-0.0745 0.7931-0.2161 0.2404-0.1415 0.4385-0.3448 0.5737-0.5888s0.2026-0.5198 0.1952-0.7986c-0.0074-0.2789-0.0894-0.5506-0.2373-0.7871l-0.6543-1.0469c-0.0776-0.1242-0.1187-0.2676-0.1187-0.414v-5.5376c1.3787-0.1004 2.6683-0.7184 3.6102-1.7301s1.4663-2.3423 1.4679-3.7245zm-12.5-6.25c0.2579 3e-4 0.5084 0.0855 0.7129 0.2424 0.2046 0.157 0.3518 0.3768 0.419 0.6257-0.3749-0.0576-0.7536-0.0867-1.1328-0.0869h-0.0025c-0.3778 0-0.755 0.029-1.1284 0.0869 0.0672-0.2489 0.2144-0.4687 0.419-0.6257 0.2045-0.1569 0.455-0.2421 0.7128-0.2424zm0 22.656c-0.45-5e-4 -0.8862-0.1562-1.2348-0.4409-0.3487-0.2846-0.5886-0.6807-0.6792-1.1216h3.8281c-0.0906 0.4409-0.3305 0.837-0.6792 1.1216-0.3486 0.2847-0.7848 0.4404-1.2349 0.4409zm7.5328-3.539c0.0739 0.1182 0.1148 0.2541 0.1184 0.3935 0.0037 0.1395-0.03 0.2773-0.0976 0.3993-0.0677 0.122-0.1667 0.2236-0.2869 0.2944-0.1201 0.0708-0.2571 0.1081-0.3965 0.1081h-13.74c-0.1394 0-0.2764-0.0373-0.3965-0.1081-0.1202-0.0708-0.2192-0.1724-0.2869-0.2944-0.0676-0.122-0.1013-0.2598-0.0977-0.3993 0.0037-0.1394 0.0446-0.2753 0.1185-0.3935l0.6543-1.0469c0.1556-0.2482 0.238-0.5352 0.2378-0.8281v-8.9717c0-3.6968 2.9776-6.7061 6.6372-6.708h0.0025c1.111-0.0014 2.2046 0.277 3.1797 0.8095-0.7453 0.7395-1.2619 1.6779-1.488 2.7031-0.2261 1.0253-0.1521 2.0939 0.213 3.0782 0.3652 0.9844 1.006 1.8427 1.846 2.4725 0.8401 0.6297 1.8437 1.0042 2.8909 1.0788v5.5376c-2e-4 0.2929 0.0822 0.5799 0.2378 0.8281l0.6543 1.0469zm-0.5015-8.1797c-0.9271 0-1.8334-0.2749-2.6042-0.79-0.7709-0.5151-1.3717-1.2472-1.7265-2.1037s-0.4476-1.799-0.2667-2.7083c0.1808-0.9093 0.6273-1.7445 1.2828-2.4001 0.6556-0.6556 1.4908-1.102 2.4001-1.2829 0.9093-0.1808 1.8518-0.088 2.7083 0.2668 0.8566 0.3548 1.5886 0.9556 2.1037 1.7264 0.5151 0.7709 0.79 1.6772 0.79 2.6043-0.0015 1.2427-0.4958 2.4341-1.3746 3.3129-0.8787 0.8787-2.0702 1.3731-3.3129 1.3746z" fill="#fff"/>
<path d="m82.194 34.364-0.018 1.296v0.018c0.552-0.024 0.996-0.036 1.332-0.036h4.176c0 0.444-0.018 0.786-0.054 1.026-0.144 0.924-0.756 1.386-1.836 1.386h-4.788c-0.516 0-0.924-0.15-1.224-0.45-0.288-0.3-0.432-0.708-0.432-1.224v-10.548l0.126-0.126h7.758c0.072 0.348 0.108 0.726 0.108 1.134s-0.084 0.834-0.252 1.278h-4.914l0.018 1.296v1.26c0.312-0.012 0.72-0.018 1.224-0.018h2.754c0.108 0.336 0.162 0.72 0.162 1.152s-0.054 0.828-0.162 1.188h-3.978v1.368zm6.6644-4.05c0.06-0.24 0.174-0.504 0.342-0.792 0.168-0.3 0.336-0.516 0.504-0.648 1.104 0.084 1.872 0.63 2.304 1.638 0.456-1.08 1.206-1.62 2.25-1.62 0.312 0 0.708 0.048 1.188 0.144 0 0.372-0.066 0.816-0.198 1.332-0.12 0.504-0.288 0.936-0.504 1.296-0.204-0.072-0.51-0.132-0.918-0.18-0.6 0-1.092 0.306-1.476 0.918v5.598c-0.396 0.072-0.864 0.108-1.404 0.108-0.528 0-0.996-0.036-1.404-0.108v-5.814c0-0.9-0.228-1.524-0.684-1.872zm7.1543 0c0.06-0.24 0.174-0.504 0.342-0.792 0.168-0.3 0.336-0.516 0.504-0.648 1.104 0.084 1.872 0.63 2.304 1.638 0.456-1.08 1.2063-1.62 2.2503-1.62 0.312 0 0.708 0.048 1.188 0.144 0 0.372-0.066 0.816-0.198 1.332-0.12 0.504-0.288 0.936-0.504 1.296-0.204-0.072-0.51-0.132-0.918-0.18-0.6 0-1.0923 0.306-1.4763 0.918v5.598c-0.396 0.072-0.864 0.108-1.404 0.108-0.528 0-0.996-0.036-1.404-0.108v-5.814c0-0.9-0.228-1.524-0.684-1.872zm14.432 4.104h-4.698c0.024 0.54 0.162 0.96 0.414 1.26s0.666 0.45 1.242 0.45c0.288 0 0.618-0.042 0.99-0.126 0.384-0.084 0.822-0.222 1.314-0.414 0.396 0.408 0.642 0.96 0.738 1.656-0.96 0.684-2.136 1.026-3.528 1.026-0.756 0-1.392-0.12-1.908-0.36-0.504-0.24-0.918-0.576-1.242-1.008-0.312-0.432-0.534-0.942-0.666-1.53s-0.198-1.23-0.198-1.926c0-0.672 0.078-1.29 0.234-1.854 0.168-0.576 0.414-1.074 0.738-1.494 0.336-0.42 0.756-0.75 1.26-0.99 0.516-0.24 1.116-0.36 1.8-0.36 0.576 0 1.092 0.096 1.548 0.288 0.468 0.192 0.864 0.456 1.188 0.792s0.57 0.738 0.738 1.206c0.18 0.468 0.27 0.978 0.27 1.53 0 0.732-0.078 1.35-0.234 1.854zm-4.716-1.944h2.376v-0.198c0-0.444-0.102-0.81-0.306-1.098-0.192-0.288-0.486-0.432-0.882-0.432-0.384 0-0.672 0.138-0.864 0.414-0.18 0.264-0.288 0.702-0.324 1.314zm6.608 2.484v-3.69c0-0.78-0.144-1.38-0.432-1.8 0.444-0.396 0.984-0.594 1.62-0.594s1.068 0.144 1.296 0.432 0.342 0.726 0.342 1.314v3.816c0 0.42 0.048 0.726 0.144 0.918s0.348 0.288 0.756 0.288c0.396 0 0.798-0.204 1.206-0.612v-6.012c0.396-0.072 0.858-0.108 1.386-0.108s1.002 0.036 1.422 0.108v6.408c0 0.648 0.168 1.086 0.504 1.314-0.06 0.24-0.174 0.504-0.342 0.792-0.168 0.276-0.342 0.48-0.522 0.612-0.984-0.036-1.692-0.456-2.124-1.26-0.948 0.852-1.842 1.278-2.682 1.278s-1.482-0.288-1.926-0.864c-0.432-0.588-0.648-1.368-0.648-2.34zm9.392-4.644c0.06-0.24 0.174-0.504 0.342-0.792 0.168-0.3 0.336-0.516 0.504-0.648 1.104 0.084 1.872 0.63 2.304 1.638 0.456-1.08 1.206-1.62 2.25-1.62 0.312 0 0.708 0.048 1.188 0.144 0 0.372-0.066 0.816-0.198 1.332-0.12 0.504-0.288 0.936-0.504 1.296-0.204-0.072-0.51-0.132-0.918-0.18-0.6 0-1.092 0.306-1.476 0.918v5.598c-0.396 0.072-0.864 0.108-1.404 0.108-0.528 0-0.996-0.036-1.404-0.108v-5.814c0-0.9-0.228-1.524-0.684-1.872zm16.906-1.314c0.072 0.336 0.108 0.672 0.108 1.008s-0.036 0.666-0.108 0.99l-2.142-0.036v4.14c0 0.564 0.264 0.846 0.792 0.846h1.008c0.156 0.432 0.234 0.828 0.234 1.188s-0.024 0.618-0.072 0.774c-0.888 0.12-1.704 0.18-2.448 0.18-1.512 0-2.268-0.834-2.268-2.502v-4.608l-1.404 0.018c-0.084-0.3-0.126-0.624-0.126-0.972 0-0.36 0.042-0.702 0.126-1.026l1.404 0.036v-1.044c0-0.612 0.114-1.044 0.342-1.296 0.24-0.264 0.636-0.396 1.188-0.396h1.098l0.126 0.126v2.61l2.142-0.036zm8.373 5.418h-4.698c0.024 0.54 0.162 0.96 0.414 1.26s0.666 0.45 1.242 0.45c0.288 0 0.618-0.042 0.99-0.126 0.384-0.084 0.822-0.222 1.314-0.414 0.396 0.408 0.642 0.96 0.738 1.656-0.96 0.684-2.136 1.026-3.528 1.026-0.756 0-1.392-0.12-1.908-0.36-0.504-0.24-0.918-0.576-1.242-1.008-0.312-0.432-0.534-0.942-0.666-1.53s-0.198-1.23-0.198-1.926c0-0.672 0.078-1.29 0.234-1.854 0.168-0.576 0.414-1.074 0.738-1.494 0.336-0.42 0.756-0.75 1.26-0.99 0.516-0.24 1.116-0.36 1.8-0.36 0.576 0 1.092 0.096 1.548 0.288 0.468 0.192 0.864 0.456 1.188 0.792s0.57 0.738 0.738 1.206c0.18 0.468 0.27 0.978 0.27 1.53 0 0.732-0.078 1.35-0.234 1.854zm-4.716-1.944h2.376v-0.198c0-0.444-0.102-0.81-0.306-1.098-0.192-0.288-0.486-0.432-0.882-0.432-0.384 0-0.672 0.138-0.864 0.414-0.18 0.264-0.288 0.702-0.324 1.314zm11.143 0.522v-0.234c0-0.672-0.072-1.158-0.216-1.458-0.144-0.312-0.414-0.468-0.81-0.468-0.42 0-0.714 0.21-0.882 0.63-0.168 0.408-0.252 1.092-0.252 2.052 0 0.48 0.03 0.882 0.09 1.206 0.072 0.324 0.168 0.588 0.288 0.792 0.132 0.192 0.294 0.336 0.486 0.432 0.192 0.084 0.42 0.126 0.684 0.126 0.276 0 0.582-0.06 0.918-0.18s0.696-0.312 1.08-0.576c0.108 0.06 0.216 0.15 0.324 0.27 0.12 0.108 0.228 0.234 0.324 0.378s0.18 0.3 0.252 0.468c0.072 0.156 0.126 0.306 0.162 0.45-0.396 0.42-0.912 0.756-1.548 1.008s-1.284 0.378-1.944 0.378c-1.284 0-2.268-0.42-2.952-1.26s-1.026-2.034-1.026-3.582c0-0.792 0.108-1.482 0.324-2.07 0.228-0.588 0.522-1.074 0.882-1.458 0.372-0.384 0.792-0.672 1.26-0.864 0.48-0.192 0.978-0.288 1.494-0.288 0.528 0 1.008 0.072 1.44 0.216 0.444 0.144 0.822 0.348 1.134 0.612 0.324 0.264 0.57 0.582 0.738 0.954 0.18 0.36 0.27 0.762 0.27 1.206 0 0.504-0.15 0.858-0.45 1.062-0.288 0.204-0.648 0.306-1.08 0.306-0.36 0-0.69-0.036-0.99-0.108zm11.729-0.936v3.69c0 0.804 0.15 1.398 0.45 1.782-0.456 0.408-1.008 0.612-1.656 0.612-0.624 0-1.05-0.144-1.278-0.432s-0.342-0.726-0.342-1.314v-3.834c0-0.408-0.054-0.708-0.162-0.9s-0.318-0.288-0.63-0.288c-0.18 0-0.384 0.048-0.612 0.144s-0.462 0.252-0.702 0.468v6.012c-0.396 0.072-0.852 0.108-1.368 0.108s-0.972-0.036-1.368-0.108v-13.122l0.126-0.126h1.08c0.576 0 0.972 0.126 1.188 0.378 0.228 0.252 0.342 0.69 0.342 1.314v3.402c0.804-0.66 1.608-0.99 2.412-0.99s1.422 0.294 1.854 0.882c0.444 0.576 0.666 1.35 0.666 2.322zm9.845 0v3.69c0 0.792 0.144 1.386 0.432 1.782-0.456 0.408-1.002 0.612-1.638 0.612-0.624 0-1.05-0.144-1.278-0.432s-0.342-0.726-0.342-1.314v-3.834c0-0.408-0.054-0.708-0.162-0.9s-0.318-0.288-0.63-0.288c-0.18 0-0.384 0.048-0.612 0.144s-0.462 0.252-0.702 0.468v6.012c-0.204 0.036-0.426 0.06-0.666 0.072-0.24 0.024-0.486 0.036-0.738 0.036s-0.498-0.012-0.738-0.036c-0.24-0.012-0.462-0.036-0.666-0.072v-8.982l0.126-0.126h1.062c0.732 0 1.224 0.36 1.476 1.08 0.84-0.744 1.674-1.116 2.502-1.116 0.84 0 1.476 0.294 1.908 0.882 0.444 0.576 0.666 1.35 0.666 2.322zm5.344-0.972v6.912c-0.204 0.036-0.426 0.06-0.666 0.072-0.24 0.024-0.486 0.036-0.738 0.036s-0.504-0.012-0.756-0.036c-0.24-0.012-0.462-0.036-0.666-0.072v-5.958c0-0.696-0.282-1.044-0.846-1.044h-0.27c-0.072-0.228-0.108-0.546-0.108-0.954 0-0.396 0.036-0.732 0.108-1.008 0.312-0.024 0.6-0.042 0.864-0.054 0.264-0.024 0.504-0.036 0.72-0.036h0.396c0.612 0 1.092 0.192 1.44 0.576s0.522 0.906 0.522 1.566zm-3.15-5.688c0.348-0.192 0.798-0.288 1.35-0.288 0.564 0 1.002 0.096 1.314 0.288 0.144 0.324 0.216 0.672 0.216 1.044s-0.072 0.72-0.216 1.044c-0.348 0.18-0.804 0.27-1.368 0.27s-0.996-0.09-1.296-0.27c-0.144-0.324-0.216-0.672-0.216-1.044s0.072-0.72 0.216-1.044zm10.042 14.796v-2.7c-0.624 0.456-1.302 0.684-2.034 0.684-1.068 0-1.878-0.42-2.43-1.26-0.54-0.852-0.81-2.004-0.81-3.456 0-0.732 0.096-1.386 0.288-1.962 0.192-0.588 0.444-1.086 0.756-1.494 0.324-0.408 0.696-0.72 1.116-0.936 0.432-0.216 0.882-0.324 1.35-0.324 0.972 0 1.788 0.276 2.448 0.828 0.42-0.456 0.99-0.69 1.71-0.702 0.084 0.072 0.168 0.162 0.252 0.27 0.096 0.108 0.18 0.228 0.252 0.36 0.084 0.132 0.156 0.27 0.216 0.414s0.102 0.276 0.126 0.396c-0.336 0.252-0.504 0.684-0.504 1.296v10.152l-0.126 0.126h-1.098c-0.552 0-0.942-0.126-1.17-0.378s-0.342-0.69-0.342-1.314zm-1.332-4.284c0.492 0 0.936-0.198 1.332-0.594v-3.888c-0.432-0.396-0.822-0.594-1.17-0.594-0.816 0-1.224 0.9-1.224 2.7 0 1.584 0.354 2.376 1.062 2.376zm6.211-0.954v-3.69c0-0.78-0.144-1.38-0.432-1.8 0.444-0.396 0.984-0.594 1.62-0.594s1.068 0.144 1.296 0.432 0.342 0.726 0.342 1.314v3.816c0 0.42 0.048 0.726 0.144 0.918s0.348 0.288 0.756 0.288c0.396 0 0.798-0.204 1.206-0.612v-6.012c0.396-0.072 0.858-0.108 1.386-0.108s1.002 0.036 1.422 0.108v6.408c0 0.648 0.168 1.086 0.504 1.314-0.06 0.24-0.174 0.504-0.342 0.792-0.168 0.276-0.342 0.48-0.522 0.612-0.984-0.036-1.692-0.456-2.124-1.26-0.948 0.852-1.842 1.278-2.682 1.278s-1.482-0.288-1.926-0.864c-0.432-0.588-0.648-1.368-0.648-2.34zm16.935-0.54h-4.698c0.024 0.54 0.162 0.96 0.414 1.26s0.666 0.45 1.242 0.45c0.288 0 0.618-0.042 0.99-0.126 0.384-0.084 0.822-0.222 1.314-0.414 0.396 0.408 0.642 0.96 0.738 1.656-0.96 0.684-2.136 1.026-3.528 1.026-0.756 0-1.392-0.12-1.908-0.36-0.504-0.24-0.918-0.576-1.242-1.008-0.312-0.432-0.534-0.942-0.666-1.53s-0.198-1.23-0.198-1.926c0-0.672 0.078-1.29 0.234-1.854 0.168-0.576 0.414-1.074 0.738-1.494 0.336-0.42 0.756-0.75 1.26-0.99 0.516-0.24 1.116-0.36 1.8-0.36 0.576 0 1.092 0.096 1.548 0.288 0.468 0.192 0.864 0.456 1.188 0.792s0.57 0.738 0.738 1.206c0.18 0.468 0.27 0.978 0.27 1.53 0 0.732-0.078 1.35-0.234 1.854zm-4.716-1.944h2.376v-0.198c0-0.444-0.102-0.81-0.306-1.098-0.192-0.288-0.486-0.432-0.882-0.432-0.384 0-0.672 0.138-0.864 0.414-0.18 0.264-0.288 0.702-0.324 1.314zm15.422 0.108c0-0.804-0.27-1.206-0.81-1.206-0.192 0-0.39 0.06-0.594 0.18-0.192 0.108-0.39 0.252-0.594 0.432v6.012c-0.204 0.036-0.426 0.06-0.666 0.072-0.24 0.024-0.486 0.036-0.738 0.036s-0.498-0.012-0.738-0.036c-0.24-0.012-0.462-0.036-0.666-0.072v-8.982l0.126-0.126h1.044c0.768 0 1.272 0.378 1.512 1.134 0.852-0.78 1.68-1.17 2.484-1.17 0.972 0 1.674 0.414 2.106 1.242 0.936-0.828 1.824-1.242 2.664-1.242s1.464 0.264 1.872 0.792c0.42 0.516 0.63 1.206 0.63 2.07v4.032c0 0.78 0.15 1.374 0.45 1.782-0.456 0.408-1.002 0.612-1.638 0.612-0.624 0-1.05-0.144-1.278-0.432s-0.342-0.726-0.342-1.314v-3.834c0-0.792-0.282-1.188-0.846-1.188-0.348 0-0.732 0.21-1.152 0.63v5.994c-0.204 0.036-0.426 0.06-0.666 0.072-0.24 0.024-0.486 0.036-0.738 0.036s-0.504-0.012-0.756-0.036c-0.24-0.012-0.462-0.036-0.666-0.072v-5.418zm16.211-2.772c0.864 0.864 1.296 2.1 1.296 3.708 0 0.72-0.096 1.374-0.288 1.962-0.18 0.588-0.45 1.092-0.81 1.512-0.348 0.408-0.78 0.726-1.296 0.954-0.516 0.216-1.11 0.324-1.782 0.324s-1.266-0.114-1.782-0.342c-0.504-0.228-0.936-0.546-1.296-0.954-0.348-0.42-0.612-0.924-0.792-1.512s-0.27-1.236-0.27-1.944c0-0.72 0.09-1.368 0.27-1.944 0.18-0.588 0.444-1.092 0.792-1.512s0.78-0.744 1.296-0.972 1.11-0.342 1.782-0.342c1.188 0 2.148 0.354 2.88 1.062zm-2.862 1.044c-0.264 0-0.48 0.066-0.648 0.198-0.156 0.12-0.282 0.288-0.378 0.504s-0.162 0.468-0.198 0.756c-0.036 0.276-0.054 0.576-0.054 0.9 0 0.504 0.012 0.942 0.036 1.314 0.036 0.36 0.096 0.666 0.18 0.918 0.096 0.24 0.222 0.42 0.378 0.54 0.168 0.12 0.384 0.18 0.648 0.18 0.528 0 0.876-0.228 1.044-0.684 0.168-0.468 0.252-1.128 0.252-1.98 0-0.864-0.084-1.518-0.252-1.962-0.168-0.456-0.504-0.684-1.008-0.684zm10.592 1.728c0-0.804-0.27-1.206-0.81-1.206-0.192 0-0.39 0.06-0.594 0.18-0.192 0.108-0.39 0.252-0.594 0.432v6.012c-0.204 0.036-0.426 0.06-0.666 0.072-0.24 0.024-0.486 0.036-0.738 0.036s-0.498-0.012-0.738-0.036c-0.24-0.012-0.462-0.036-0.666-0.072v-8.982l0.126-0.126h1.044c0.768 0 1.272 0.378 1.512 1.134 0.852-0.78 1.68-1.17 2.484-1.17 0.972 0 1.674 0.414 2.106 1.242 0.936-0.828 1.824-1.242 2.664-1.242s1.464 0.264 1.872 0.792c0.42 0.516 0.63 1.206 0.63 2.07v4.032c0 0.78 0.15 1.374 0.45 1.782-0.456 0.408-1.002 0.612-1.638 0.612-0.624 0-1.05-0.144-1.278-0.432s-0.342-0.726-0.342-1.314v-3.834c0-0.792-0.282-1.188-0.846-1.188-0.348 0-0.732 0.21-1.152 0.63v5.994c-0.204 0.036-0.426 0.06-0.666 0.072-0.24 0.024-0.486 0.036-0.738 0.036s-0.504-0.012-0.756-0.036c-0.24-0.012-0.462-0.036-0.666-0.072v-5.418zm16.733 1.836h-4.698c0.024 0.54 0.162 0.96 0.414 1.26s0.666 0.45 1.242 0.45c0.288 0 0.618-0.042 0.99-0.126 0.384-0.084 0.822-0.222 1.314-0.414 0.396 0.408 0.642 0.96 0.738 1.656-0.96 0.684-2.136 1.026-3.528 1.026-0.756 0-1.392-0.12-1.908-0.36-0.504-0.24-0.918-0.576-1.242-1.008-0.312-0.432-0.534-0.942-0.666-1.53s-0.198-1.23-0.198-1.926c0-0.672 0.078-1.29 0.234-1.854 0.168-0.576 0.414-1.074 0.738-1.494 0.336-0.42 0.756-0.75 1.26-0.99 0.516-0.24 1.116-0.36 1.8-0.36 0.576 0 1.092 0.096 1.548 0.288 0.468 0.192 0.864 0.456 1.188 0.792s0.57 0.738 0.738 1.206c0.18 0.468 0.27 0.978 0.27 1.53 0 0.732-0.078 1.35-0.234 1.854zm-4.716-1.944h2.376v-0.198c0-0.444-0.102-0.81-0.306-1.098-0.192-0.288-0.486-0.432-0.882-0.432-0.384 0-0.672 0.138-0.864 0.414-0.18 0.264-0.288 0.702-0.324 1.314zm14.402-0.414v3.69c0 0.792 0.144 1.386 0.432 1.782-0.456 0.408-1.002 0.612-1.638 0.612-0.624 0-1.05-0.144-1.278-0.432s-0.342-0.726-0.342-1.314v-3.834c0-0.408-0.054-0.708-0.162-0.9s-0.318-0.288-0.63-0.288c-0.18 0-0.384 0.048-0.612 0.144s-0.462 0.252-0.702 0.468v6.012c-0.204 0.036-0.426 0.06-0.666 0.072-0.24 0.024-0.486 0.036-0.738 0.036s-0.498-0.012-0.738-0.036c-0.24-0.012-0.462-0.036-0.666-0.072v-8.982l0.126-0.126h1.062c0.732 0 1.224 0.36 1.476 1.08 0.84-0.744 1.674-1.116 2.502-1.116 0.84 0 1.476 0.294 1.908 0.882 0.444 0.576 0.666 1.35 0.666 2.322zm7.359-3.06c0.072 0.336 0.108 0.672 0.108 1.008s-0.036 0.666-0.108 0.99l-2.142-0.036v4.14c0 0.564 0.264 0.846 0.792 0.846h1.008c0.156 0.432 0.234 0.828 0.234 1.188s-0.024 0.618-0.072 0.774c-0.888 0.12-1.704 0.18-2.448 0.18-1.512 0-2.268-0.834-2.268-2.502v-4.608l-1.404 0.018c-0.084-0.3-0.126-0.624-0.126-0.972 0-0.36 0.042-0.702 0.126-1.026l1.404 0.036v-1.044c0-0.612 0.114-1.044 0.342-1.296 0.24-0.264 0.636-0.396 1.188-0.396h1.098l0.126 0.126v2.61l2.142-0.036zm9.126 7.704c-0.06 0.252-0.174 0.522-0.342 0.81s-0.342 0.498-0.522 0.63c-0.84-0.024-1.488-0.342-1.944-0.954-0.78 0.72-1.626 1.08-2.538 1.08-0.468 0-0.876-0.078-1.224-0.234-0.348-0.144-0.642-0.342-0.882-0.594s-0.42-0.54-0.54-0.864c-0.12-0.336-0.18-0.684-0.18-1.044 0-0.516 0.09-0.966 0.27-1.35 0.192-0.396 0.45-0.72 0.774-0.972 0.324-0.264 0.702-0.462 1.134-0.594s0.894-0.198 1.386-0.198c0.276 0 0.516 6e-3 0.72 0.018 0.216 0 0.402 6e-3 0.558 0.018v-0.342c0-0.756-0.39-1.134-1.17-1.134-0.504 0-1.386 0.192-2.646 0.576-0.36-0.42-0.588-1.074-0.684-1.962 0.288-0.108 0.606-0.21 0.954-0.306 0.36-0.096 0.726-0.18 1.098-0.252s0.738-0.126 1.098-0.162c0.36-0.048 0.684-0.072 0.972-0.072 0.42 0 0.822 0.06 1.206 0.18 0.396 0.12 0.738 0.306 1.026 0.558 0.3 0.24 0.534 0.558 0.702 0.954 0.18 0.384 0.27 0.846 0.27 1.386v3.654c0 0.552 0.168 0.942 0.504 1.17zm-5.436-1.35c0 0.564 0.324 0.846 0.972 0.846 0.336 0 0.714-0.174 1.134-0.522v-1.44c-0.24-0.012-0.444-0.018-0.612-0.018-0.156-0.012-0.276-0.018-0.36-0.018-0.756 0-1.134 0.384-1.134 1.152zm14.773-3.294v3.69c0 0.792 0.144 1.386 0.432 1.782-0.456 0.408-1.002 0.612-1.638 0.612-0.624 0-1.05-0.144-1.278-0.432s-0.342-0.726-0.342-1.314v-3.834c0-0.408-0.054-0.708-0.162-0.9s-0.318-0.288-0.63-0.288c-0.18 0-0.384 0.048-0.612 0.144s-0.462 0.252-0.702 0.468v6.012c-0.204 0.036-0.426 0.06-0.666 0.072-0.24 0.024-0.486 0.036-0.738 0.036s-0.498-0.012-0.738-0.036c-0.24-0.012-0.462-0.036-0.666-0.072v-8.982l0.126-0.126h1.062c0.732 0 1.224 0.36 1.476 1.08 0.84-0.744 1.674-1.116 2.502-1.116 0.84 0 1.476 0.294 1.908 0.882 0.444 0.576 0.666 1.35 0.666 2.322zm9.106 2.358h-4.698c0.024 0.54 0.162 0.96 0.414 1.26s0.666 0.45 1.242 0.45c0.288 0 0.618-0.042 0.99-0.126 0.384-0.084 0.822-0.222 1.314-0.414 0.396 0.408 0.642 0.96 0.738 1.656-0.96 0.684-2.136 1.026-3.528 1.026-0.756 0-1.392-0.12-1.908-0.36-0.504-0.24-0.918-0.576-1.242-1.008-0.312-0.432-0.534-0.942-0.666-1.53s-0.198-1.23-0.198-1.926c0-0.672 0.078-1.29 0.234-1.854 0.168-0.576 0.414-1.074 0.738-1.494 0.336-0.42 0.756-0.75 1.26-0.99 0.516-0.24 1.116-0.36 1.8-0.36 0.576 0 1.092 0.096 1.548 0.288 0.468 0.192 0.864 0.456 1.188 0.792s0.57 0.738 0.738 1.206c0.18 0.468 0.27 0.978 0.27 1.53 0 0.732-0.078 1.35-0.234 1.854zm-4.716-1.944h2.376v-0.198c0-0.444-0.102-0.81-0.306-1.098-0.192-0.288-0.486-0.432-0.882-0.432-0.384 0-0.672 0.138-0.864 0.414-0.18 0.264-0.288 0.702-0.324 1.314zm-0.432-5.292 2.79-3.042c0.348 0.108 0.69 0.324 1.026 0.648 0.336 0.312 0.558 0.636 0.666 0.972l-3.33 2.502c-0.24-0.06-0.474-0.192-0.702-0.396-0.216-0.204-0.366-0.432-0.45-0.684zm14.095 7.236h-4.698c0.024 0.54 0.162 0.96 0.414 1.26s0.666 0.45 1.242 0.45c0.288 0 0.618-0.042 0.99-0.126 0.384-0.084 0.822-0.222 1.314-0.414 0.396 0.408 0.642 0.96 0.738 1.656-0.96 0.684-2.136 1.026-3.528 1.026-0.756 0-1.392-0.12-1.908-0.36-0.504-0.24-0.918-0.576-1.242-1.008-0.312-0.432-0.534-0.942-0.666-1.53s-0.198-1.23-0.198-1.926c0-0.672 0.078-1.29 0.234-1.854 0.168-0.576 0.414-1.074 0.738-1.494 0.336-0.42 0.756-0.75 1.26-0.99 0.516-0.24 1.116-0.36 1.8-0.36 0.576 0 1.092 0.096 1.548 0.288 0.468 0.192 0.864 0.456 1.188 0.792s0.57 0.738 0.738 1.206c0.18 0.468 0.27 0.978 0.27 1.53 0 0.732-0.078 1.35-0.234 1.854zm-4.716-1.944h2.376v-0.198c0-0.444-0.102-0.81-0.306-1.098-0.192-0.288-0.486-0.432-0.882-0.432-0.384 0-0.672 0.138-0.864 0.414-0.18 0.264-0.288 0.702-0.324 1.314z" fill="#4A4A4A"/>
</svg>
