<?xml version="1.0" encoding="UTF-8"?>
<svg height="300" viewBox="0 50 300 300" xmlns="http://www.w3.org/2000/svg">
<path d="m117.05 150.25c1.248 0.817 2.204 2.011 2.727 3.408 0.182 0.455 0.329 0.923 0.441 1.4 0.409 1.744 0.374 3.563-0.1 5.29-0.247 1.235-0.876 2.362-1.798 3.22-0.922 0.859-2.09 1.406-3.34 1.564 0.805 5.026 1.562 8.359 1.725 9.156 0.784 3.369 0.724 2.53 0.618 3.349l-0.415 0.337-0.527-0.065-0.341-0.42c0-0.107-1.063-3.16-2.05-7.512-1.4-6.162-1.249-5.768-1.086-6.175 0.101-0.196 0.261-0.355 0.458-0.454 0.43-0.161 0.96-0.131 1.945-0.441 0.694-0.183 1.304-0.601 1.724-1.183 0.663-1.052 1.07-2.246 1.188-3.484 0.118-1.239-0.056-2.487-0.509-3.646-0.38-1.15-1.2-2.103-2.28-2.652-1.22-0.678-0.173-1.32-1.035-5.965-3.076-15.806-20.626-16.237-27.749-6.771l-0.455 0.28-0.5-0.095h-9e-3l-0.271-0.432c0.108-0.619 0.072-0.5 0.152-0.624v-5e-3c8.657-13.311 31.324-9.366 31.487 11.92z" clip-rule="evenodd" fill-rule="evenodd"/>
<path d="m94.4 145.45c0.848-0.021 1.6701 0.293 2.288 0.874 0.3578 0.289 0.615 0.684 0.735 1.128 0 7e-3 -0.094 0.454-0.094 0.461-1.533 0.152-0.652 0.107-1.537-0.044-0.1558-0.032-0.3134-0.054-0.472-0.066l-0.023-6e-3c-0.5346-0.118-1.0892-0.114-1.622 0.012l-0.028 0.013c-0.3075 0.108-0.5853 0.287-0.811 0.522-0.125 0.171-0.245 0.2-0.821 0.563-0.108 0.086 0.039 0-0.945 0.429-0.434-1-0.384-0.864-0.395-0.971-0.0384-0.464 0.0705-0.928 0.311-1.327 0.4999-0.627 1.1695-1.096 1.929-1.353 0.4785-0.16 0.9804-0.24 1.485-0.235z" clip-rule="evenodd" fill-rule="evenodd"/>
<path d="m96.478 153.94c0.0554-1.269-0.8082-2.338-1.9288-2.387-1.1207-0.049-2.074 0.941-2.1293 2.21-0.0554 1.27 0.8082 2.339 1.9289 2.388 1.1206 0.048 2.0739-0.941 2.1292-2.211z"/>
<path d="m94.465 171.45-0.555-0.144c-0.131-0.086-0.545-0.285-0.69-0.352-0.086-0.041-0.9-0.427-0.993-0.468-0.2394-0.112-0.4731-0.236-0.7-0.371-0.4399-0.25-0.9149-0.432-1.409-0.54-0.1136-0.02-0.2287-0.029-0.344-0.029h-0.2v5e-3l-0.015 0.013-5e-3 9e-3v9e-3h-5e-3c-0.0129 0.022-0.0246 0.045-0.035 0.068l-0.01 8e-3 -0.02 0.027-9e-3 9e-3 -0.01 0.018-0.01 9e-3 -0.029 0.027-0.01 0.018-0.044 0.053c-0.0722 0.083-0.1362 0.173-0.191 0.268-0.0946 0.135-0.1778 0.278-0.249 0.427v0.013l-0.707 0.679c-0.76-0.791-0.675-0.58-0.853-1.359-0.0215-0.193-0.0298-0.388-0.025-0.582 0.0134-0.204 0.0593-0.404 0.136-0.593 0.2099-0.453 0.5447-0.836 0.965-1.105 0.5058-0.301 1.0937-0.435 1.68-0.383 1.2285 0.149 2.3964 0.617 3.387 1.359 0.5648 0.474 1.0588 1.026 1.467 1.64l0.174 0.542-0.144 0.455-0.547 0.27z" clip-rule="evenodd" fill-rule="evenodd"/>
<path d="m86.233 175.55c0.3 0.255 1.109 0.819 1.219 0.887 1.6038 1.235 3.5423 1.958 5.563 2.076 1.0098 0.056 2.0224-0.035 3.006-0.27 0.774-0.175 1.547-0.61 2.107 0.493 0.8769 1.972 1.6121 4.004 2.2 6.08 0.359 1.1 0.3 0.691 0.292 1.427l-0.334 0.387h-0.01l-0.511 5e-3c-0.5-0.434-0.307-0.08-1.437-2.246-0.053-0.088-1.292-2.616-1.879-3.929-0.8487 0.202-1.7168 0.311-2.589 0.325-2.4831 0.05-4.9232-0.653-7-2.015-0.8732-0.561-1.6167-1.302-2.181-2.173v-9e-3c-0.2814-0.426-0.533-0.871-0.753-1.332l-0.064-0.547 0.248-0.408h0.01l0.473-0.076c0.85 0.463-0.015-0.084 1.64 1.325z" clip-rule="evenodd" fill-rule="evenodd"/>
<path d="m89.311 178.82c-1.774-0.639-4.126-1.327-4.618-3.14-0.3706-1.306-0.6744-2.629-0.91-3.966-0.2838-1.745-0.3443-3.518-0.18-5.278 0.027-0.193-0.053-0.684 0.113-0.576 1.724 1.16 0.789 4.076 5.366 12.812" clip-rule="evenodd" fill-rule="evenodd"/>
<path d="m87.669 176.64c0.9871 0.462 2.0727 0.673 3.161 0.616-0.576-1.406-2.178-5.37-0.674-5.148 0.481 0.077 0.842 0.571 1.093 0.942 0.658 0.973 0.9 2.44 1.827 3.217 0.826 0.7 2.933-0.268 3.758-0.6 0.544-0.22 1.9-0.5 2.088-1.194 0.2-0.761-0.448-1.762-0.728-2.428-0.609-1.446-1.255-2.9-1.94-4.319-0.3372-0.886-0.8471-1.695-1.5-2.382-1.435-1.273-2.451-0.519-3.388-1.143-0.586-0.4-0.865-1.084-0.03-1.421 0.7537-0.209 1.5514-0.2 2.3 0.027 0.7404 0.114 1.4549 0.357 2.111 0.719 1.926 1.182 2.9 3.5 4.764 6.436 1.391 2.243 1.341 4.137 4.671 0.453 4.876-5.355 2.979-7.508 4.523-12.764 0.1-0.327 0.338-1.312 0.853-1.193 0.807 0.2 1.05 1.405 1.135 2.082 0.329 2.183 0.287 4.405-0.125 6.574-0.373 1.99-1.185 3.872-2.378 5.508-1.4 1.745-4.831 5.235-8.519 6.76-0.811 0.334-3.654 1.606-4.32 1.775-5.1 1.312-9.409-0.771-10.083-2.273-0.126-0.3 7e-3 -0.59 0.361-0.57 0.3756 0.058 0.7403 0.172 1.082 0.338" clip-rule="evenodd" fill-rule="evenodd"/>
<path d="m58.324 144.95c0.436 0.47 0.3 0.087 1.076 2.47 6.194 20.978-4.254 35.91-2.29 67.25 0.73 9.658 2.477 17.846 7.515 26 3.8651 6.02 9.2239 10.936 15.554 14.269 0.525 0.023 14.517 9.489 35.386 2.4l0.538 0.028 0.365 0.389c0 0.014-0.027 0.524-0.028 0.538l-0.389 0.37c-4.148 1.559-8.487 2.549-12.9 2.944-8.7121 0.797-17.461-1.062-25.097-5.332-7.6354-4.271-13.799-10.753-17.68-18.593-6.884-13.861-6.529-34.019-4.479-49.346 1.265-10.793 5.113-26.357 2.683-37.884-0.3002-1.573-0.6989-3.127-1.194-4.65l0.042-0.528 0.388-0.352 0.51 0.027z" clip-rule="evenodd" fill="#010101" fill-rule="evenodd"/>
<path d="m65.307 143.39 0.427 0.359c1.279 1.746 1.477 3.075 2.04 5.83 0.3403 1.747 0.5207 3.521 0.539 5.3-0.0413 1.068-0.1633 2.132-0.365 3.182l-0.265 0.49-0.465 0.192-0.446-0.231-0.226-0.513h-5e-3c-0.057-0.717-0.394-3.1-0.539-4.755-0.377-4.307-1.2-5.919-1.429-7.807-5e-3 -0.04-0.124-1.162-0.132-1.2 0-8e-3 0.092-0.547 0.093-0.554l0.314-0.332h0.01l0.449 0.039z" clip-rule="evenodd" fill="#010101" fill-rule="evenodd"/>
<path d="m73.377 142.6c0.3407 0.236 0.6115 0.56 0.784 0.937 0.3039 0.48 0.5518 0.994 0.739 1.53 0.4689 1.804 0.7652 3.648 0.885 5.508 0.1764 1.703 0.0655 3.424-0.328 5.09-0.088 0.475-0.374 1.291-0.379 1.4l-0.324 0.456-0.481 0.14-0.417-0.281-0.165-0.537c0-1.243-0.12-5.369-0.144-5.908-0.1117-1.822-0.3919-3.63-0.837-5.4-0.077-0.444-0.212-2.031-0.208-2.106l0.1-0.553 0.314-0.327h9e-3l0.452 0.051z" clip-rule="evenodd" fill="#010101" fill-rule="evenodd"/>
<path d="m81.413 145.54c0.359 0.517 0.363 0.237 0.889 3.6 0.4563 4.28 0.546 8.59 0.268 12.885-0.1934 3.461-0.0517 6.932 0.423 10.366 2.392 13.8 12.473 28.92 18.2 45.038 0.174 0.326 0.229 0.703 0.157 1.066l-0.385 0.366-0.528-0.027c-0.494-0.513-0.217-0.039-1.071-2.074-6.032-13.489-15.659-29.518-18.34-42.634-1.872-9.618 0.273-17.425-0.528-26.8-0.162-1.328-0.17-0.962-0.012-1.618l0.432-0.289 0.495 0.121z" clip-rule="evenodd" fill="#010101" fill-rule="evenodd"/>
<path d="m107.44 207.98 0.393 0.293c0 7e-3 -0.012 0.485-0.013 0.493-1.32 1.7-4.031 2.531-7.066 4.3-0.571 0.358-1.2103 0.593-1.877 0.692-0.212 0.058-8e-3 0.075-1.118-0.155 0.229-1.112 0.164-0.914 0.3-1.092 0.397-0.596 0.9385-1.081 1.574-1.41 5e-3 -0.116 3.888-2.019 4.477-2.3 0.594-0.229 1.199-0.427 1.813-0.594 0.478-0.203 1-0.281 1.517-0.227z" clip-rule="evenodd" fill="#010101" fill-rule="evenodd"/>
<path d="m16.158 165.04h9e-3l0.342 0.388c-0.03 0.878 0.109 0.09-0.855 2.488-3.734 9.015-5.94 19.9-7.193 29.735-0.707 6.253-1.045 11.731-1.161 15.712-0.26602 4.765 0.19595 9.542 1.37 14.167 0.48936 1.789 1.0773 3.55 1.761 5.274 2.9625 7.018 8.3357 12.746 15.15 16.15 4.2453 2.027 8.8957 3.063 13.6 3.03 5.3345-0.081 10.605-1.177 15.529-3.23 0.938-0.376 3.813-1.677 3.93-1.787l0.536-0.041c8e-3 6e-3 0.407 0.338 0.413 0.345l0.042 0.532c-0.464 0.562 0.016 0.277-3.318 1.919-3.5565 1.677-7.3115 2.896-11.175 3.628-2.5578 0.46-5.1546 0.668-7.753 0.62-0.611 0-1.215-0.058-1.614-0.075-1.8411-0.134-3.6671-0.426-5.458-0.874-1.7993-0.456-3.555-1.069-5.247-1.832-3.8115-1.774-7.2418-4.273-10.1-7.356-2.5386-2.627-4.6095-5.668-6.123-8.993-4.523-10.118-4.143-18.761-3.357-29.808 1.235-14.416 3.136-26.633 9.754-39.663l0.4-0.347 0.518 0.018z" clip-rule="evenodd" fill="#010101" fill-rule="evenodd"/>
<path d="m37.977 170.14 0.441 0.241 0.185 0.5c0 0.15-0.025 1.875 0.047 3.158 0 0.709 0.1 2.276 0.117 2.594 0.1377 3.883 0.5325 7.753 1.182 11.584 1.1 7.326 4.58 17.41 7.353 24.214 2.491 6.114 2.165 4.737 2.212 5.69-7e-3 8e-3 -0.333 0.4-0.34 0.409s-0.525 0.027-0.531 0.027c-0.55-0.467-0.3-0.14-1.135-1.671-0.581-1.117-2.277-4.271-3.656-7.54-3.1287-7.38-5.3127-15.126-6.5-23.053-1.464-9.723-0.17-14.6-0.13-15.523l0.264-0.468 0.477-0.163 0.014 1e-3z" clip-rule="evenodd" fill="#010101" fill-rule="evenodd"/>
<path d="m53.4 207.24 0.374 0.293c0 7e-3 -0.034 0.466-0.034 0.473l-0.376 0.481c-0.699 0.583-1.4724 1.07-2.3 1.448-0.115-5e-3 -0.832 0.393-3.2 1.261-0.2225 0.108-0.4628 0.174-0.709 0.195-0.1 0.011-0.444 0.018-0.517 0.015-0.659-0.041-0.346 0.051-1.413-0.449 0.5-1.073 0.312-0.779 0.8-1.246 0.2941-0.29 0.6525-0.507 1.046-0.632 0.206 9e-3 3.74-1.634 5-1.759 0.432-0.122 0.8854-0.15 1.329-0.08z" clip-rule="evenodd" fill="#010101" fill-rule="evenodd"/>
<path d="m221.62 146.01c1.395-0.098 2.439-1.411 2.332-2.933s-1.325-2.676-2.72-2.578c-1.395 0.099-2.439 1.412-2.332 2.933 0.107 1.522 1.325 2.676 2.72 2.578z"/>
<path d="m222.35 132.99c0.282 0.112 0.555 0.246 0.816 0.4 0.107 0.07 0.011-0.017 0.455 0.467l0.053 0.477-0.342 0.326-0.57 0.09c-0.209-0.023-0.42-0.031-0.631-0.023-0.485 0.019-0.967 0.081-1.44 0.186h-6e-3c-0.506 0.059-1 0.197-1.464 0.407-0.625 0.284-1.194 0.677-1.681 1.161-0.163 0.191-0.352 0.36-0.561 0.5-0.489 0.436-1.102 0.709-1.753 0.781l-0.244-0.95c0.07-0.393 0.189-0.777 0.353-1.141 0.15-0.309 0.363-0.584 0.625-0.807 0.639-0.629 1.378-1.148 2.187-1.536 0.725-0.34 1.497-0.566 2.291-0.669 0.653-0.021 1.304 0.091 1.912 0.331z" clip-rule="evenodd" fill="#010101" fill-rule="evenodd"/>
<path d="m220.86 159.74 0.364 0.329 0.1 0.558c-0.103 0.792-0.321 1.565-0.648 2.293-0.058 0.108 0.141-0.281-0.272 0.541-1.053 1.632-2.499 2.973-4.206 3.9-0.568 0.335-1.177 0.593-1.812 0.768-0.517 0.091-1.044 0.102-1.564 0.034-0.377-0.053-0.139 0.075-1.049-0.65 0.874-1.108 0.222-0.485 1.921-1.478 0.919-0.34 1.783-0.812 2.567-1.4 0.88-0.688 1.662-1.493 2.325-2.392 0.148-0.172 0.6-0.739 0.865-1.141 0.195-0.278 0.371-0.569 0.526-0.871l0.391-0.406 0.483-0.076 9e-3 -9e-3z" clip-rule="evenodd" fill="#010101" fill-rule="evenodd"/>
<path d="m152.77 183.94c-4.022-3.166-9.289-4.943-14.2-6.06-6.222-1.419-18.734-0.411-18.849-0.3-4.82 4.554-9.252 9.415-15.028 12.872-2.309 1.383-7.479 2.236-6.221-2.1-2.0589 0.807-3.9102 2.066-5.417 3.684 2.5 5.537 4.636 10.007 7.156 15.517 2.617-1.066 4.4-1.407 7.018-2.459 7.923 5.335 13.279 15.207 16.18 24.124 1.129-1.909 2.274-3.863 3.551-5.678-1.477-4.169-3.31-12.538 3.46-12.9-0.35-5.189 1.265-11.039 7.574-10.341-0.23-2.654-0.224-5.653 1.3-7.973 1.925-2.93 6.025-1.558 7.934 0.525 1.627-2.899 5.542-8.911 5.542-8.911z" clip-rule="evenodd" fill="#BD1992" fill-opacity=".53" fill-rule="evenodd"/>
<path d="m149.67 190.28c-1.948 3.209-1.764 3.415-2.552 3.381-0.421-0.1-0.447-0.242-0.65-0.42-0.739-0.702-1.631-1.222-2.606-1.519-0.672-0.218-1.388-0.263-2.082-0.132l-0.023 8e-3h-0.028c-0.398 0.092-0.769 0.276-1.083 0.538l-0.015 0.017c-1.132 1.323-1.756 3.006-1.76 4.747-0.135 3.106 0.318 3.193-0.046 3.915-0.105 0.164-0.255 0.293-0.433 0.372s-0.375 0.104-0.567 0.072c-1.13-0.144-2.277 0.046-3.3 0.548-0.638 0.388-1.192 0.899-1.632 1.503-0.439 0.604-0.754 1.289-0.927 2.016-0.165 0.553-0.287 1.117-0.364 1.689-0.453 3.559 0.366 3.838-0.627 4.557-0.987 0.455-5.157-0.382-4.107 7.036 0.252 1.549 0.642 3.072 1.165 4.552 0.252 1.006-0.163 0.659-3.22 5.913-0.439 0.742-0.565 1.168-1.336 1.269-0.248 0.013-0.493-0.056-0.698-0.196-0.204-0.141-0.357-0.345-0.434-0.581-1.462-4.544-3.466-8.894-5.969-12.958-2.389-3.995-5.546-7.477-9.288-10.246-0.86 0.27 1.03-0.292-3.433 1.163-1.9 0.6-2.87 1.028-3.2 1.128-0.251 0.055-0.513 0.022-0.7428-0.093s-0.4133-0.304-0.5202-0.538c-4.907-10.773-7.252-15.306-7.256-16.092 0.0215-0.26 0.1354-0.503 0.321-0.686 1.17-1.273 2.5556-2.33 4.093-3.121 0.6459-0.353 1.3203-0.652 2.016-0.893 0.2453-0.025 0.4918 0.031 0.7024 0.16 0.2106 0.128 0.3737 0.321 0.4646 0.55 0.156 0.531 0.044 0.559-0.075 1.18-0.0497 0.198-0.0616 0.404-0.035 0.607v0.037c0.0036 0.022 0.0086 0.044 0.015 0.065v0.019c0.0112 0.041 0.0246 0.081 0.04 0.121v9e-3l9e-3 0.01 8e-3 0.019v9e-3c0.0094 0.012 0.0181 0.025 0.026 0.038v0.029l0.027 0.029h9e-3v9e-3h9e-3v9e-3l9e-3 5e-3h9e-3l0.013 0.014h9e-3l9e-3 0.01 0.027 0.015 9e-3 9e-3c0.021 0.012 0.01 0 0.031 0.016l9e-3 9e-3 0.05 0.021 0.013 0.01 0.054 0.02 0.014 0.01c0.042 0.017 0.161 0.052 0.2 0.065h0.023c0.042 0.012 0.017 0 0.059 0.016h0.023l0.041 0.011h0.023l0.023 6e-3c2.676 0.116 4.226-1.065 6.4-2.592 5.887-4.34 11.458-10.5 12.514-11.231 1.02-0.441 13.032-1.046 18.987 0.215 5.052 1.118 11.066 3.284 15.041 6.594l0.01-9e-3c0.712 0.662 0.351 0.601-3.496 6.937zm-2.622 1.282c0.4-0.742 4.583-7.243 4.771-7.458-3.656-2.676-9.024-4.382-13.463-5.291-3.136-0.772-10.008-0.617-13.229-0.494-0.906 0.049-3.992 0.212-4.888 0.322-6.566 6.324-8.171 8.091-13.059 11.561-1.49 1.171-3.229 1.983-5.084 2.373-1.315 0.233-3.031 0.189-4-0.736-0.4689-0.423-0.7817-0.992-0.888-1.615-1.0258 0.55-1.9685 1.242-2.8 2.057 1.536 3.438 5.774 12.46 6.386 13.829 1.01-0.4 4.337-1.4 5.322-1.8 1.368-0.5 1.148-0.616 2.888 0.656 3.528 2.723 6.541 6.055 8.896 9.839 2.341 3.699 4.281 7.637 5.786 11.748 0.067-0.108 1.344-2.216 2.023-3.183-1.17-3.645-2.239-8.807 0.224-11.8 0.864-1.012 2.062-1.681 3.377-1.885-0.18-2.821 0.595-5.621 2.2-7.948 0.418-0.521 0.913-0.975 1.468-1.346 1.182-0.769 2.57-1.16 3.979-1.121-0.154-3.131 0.451-7.386 3.153-8.912 1.615-0.921 4.278-0.875 6.938 1.204z" clip-rule="evenodd" fill="#BD1992" fill-rule="evenodd"/>
<path d="m131.15 282.62c-3.899-2.667-6.982-6.363-8.906-10.678-1.924-4.314-2.615-9.077-1.994-13.76-8.494 4.808-17.42 7.281-27.115 4.992 1.5 6.649 3.033 13.3 4.493 19.952 3.781-0.133 22.422-0.355 33.859-0.293" clip-rule="evenodd" fill="#DC85C5" fill-rule="evenodd"/>
<path d="m120.44 257.06c0.256 0.045 0.489 0.177 0.66 0.373s0.269 0.445 0.279 0.705c-0.015 0.211-0.091 0.818-0.1 0.926-0.301 2.838-0.087 5.706 0.63 8.468 0.844 3.508 2.414 6.801 4.61 9.664h9e-3c1.489 1.864 3.202 3.537 5.1 4.982l0.371 0.154c0.67 1.581 0.732 1.141-13.723 1.429-14.958 0.436-4.619 0.037-20.606 0.48-0.2637 0.01-0.5225-0.073-0.7311-0.235-0.2087-0.161-0.3538-0.391-0.4099-0.649-4.771-21.454-4.593-19.888-4.474-20.513 0.0738-0.245 0.2279-0.458 0.4374-0.604 0.2096-0.146 0.4624-0.218 0.7176-0.203 3.6126 0.858 7.349 1.069 11.035 0.624 4.069-0.54 8.025-1.734 11.714-3.535 3.885-1.821 3.619-2.124 4.481-2.066zm-23.721 7.881c-0.109-0.013-1.989-0.252-2.1-0.312 0.774 3.4 3.165 13.934 3.907 17.333 0.868-0.251 25.844 0.031 30.574 0.107-0.118-0.066-0.994-0.763-1.527-1.223-0.883-0.769-1.709-1.601-2.471-2.49-4.343-5.025-6.56-11.543-6.184-18.174-6.935 3.602-14.41 5.726-22.199 4.759z" clip-rule="evenodd" fill="#BD1992" fill-opacity=".53" fill-rule="evenodd"/>
<path d="m203.85 177.02c0.5 0.364 1.034 0.677 1.595 0.935l0.631 0.323c1.049 0.619 2.201 1.046 3.4 1.259 1.144 0.212 2.311 0.273 3.47 0.179 1.371-0.112 2.729-0.356 4.054-0.727 0.473-0.138 0.931-0.325 1.366-0.558l0.543-0.1 0.44 0.245h5e-3l0.1 0.5-0.261 0.487c-0.455 0.398-0.947 0.751-1.47 1.055-1.287 0.72-2.709 1.164-4.176 1.306-2.115 0.227-4.253 0.01-6.279-0.637-0.822-0.273-1.612-0.637-2.354-1.084l-0.362-0.26c-0.679-0.567-1.258-1.243-1.714-2l-0.134-0.535 0.176-0.439 0.448-0.132 0.522 0.183z" clip-rule="evenodd" fill-rule="evenodd"/>
<path d="m206.6 178.97c0.339 0.646 0.207 0.152 0.481 1.859 0.271 1.918 0.333 3.859 0.185 5.79 0.024 0.269-0.033 0.539-0.163 0.776-0.5 0.718-0.954 0.53-2.2 0.586-3.588 0.186-7.162 0.592-10.7 1.216-1.692 0.307-1 0.315-1.87 0.2l-0.348-0.375c0-0.014 0.053-0.5 0.055-0.518l0.4-0.374c2.883-1.28 5.974-2.029 9.123-2.211 3.752-0.3 3.451-0.115 3.457-0.264 0-0.2 0.013-1.053 0.015-1.6-0.031-1.078 0.04-2.156 0.214-3.22 7e-3 -0.049 0.21-1.332 0.212-1.373l0.252-0.487 0.433-0.206 0.454 0.201z" clip-rule="evenodd" fill-rule="evenodd"/>
<path d="m240.45 138.34c0.425 0.224 0.837 0.471 1.235 0.74 5.081 3.712 4.762 9.907-0.366 13.484-1.512 1.052-3.208 1.81-5 2.233 0.042 4.057-0.578 8.093-1.835 11.95-0.991 3.117-2.521 6.035-4.522 8.622 0.01 0.126 0.075 5.294 0.365 9.806 3.725 1.038 7.378 2.318 10.937 3.83 1.169 0.551 0.872 0.349 1.34 0.865l-0.014 0.529-0.393 0.361c-0.108 0-0.651-0.01-0.543-0.01-3.975-1.513-8.052-2.743-12.2-3.683-0.199-7e-3 -0.393-0.058-0.57-0.149-0.544-0.349-0.539-0.722-0.6-1.381-0.234-2.195-0.468-5.314-0.568-9.571 0.017-1.765-0.011-1.281 0.878-2.5l0.378-0.527c0.975-1.415 1.805-2.926 2.477-4.508 1.912-4.595 2.8-9.552 2.6-14.525-9e-3 -0.248 0.065-0.491 0.208-0.693 0.144-0.202 0.35-0.351 0.587-0.424 0.822-0.123 1.631-0.327 2.413-0.609 3.243-1.339 5.984-3.486 5.8-6.976 0-0.032-0.014-0.155-0.016-0.162-0.105-1.011-0.464-1.979-1.043-2.814-0.633-0.931-1.462-1.711-2.43-2.286-1.228-0.772-2.643-1.196-4.093-1.228l-0.493-0.2-0.219-0.465 0.187-0.48c0.558-0.27 0.4-0.239 0.872-0.252 1.603-0.042 3.192 0.309 4.628 1.023z" clip-rule="evenodd" fill-rule="evenodd"/>
<path d="m195.3 120.58c2.905 1.522 5.691 3.255 8.924 4.023 7.21 1.71 15.577-1.165 20.961-6.08 0.784 8.032 2.379 17.09 11.056 19.27 0.573-4.988-0.021-10.92-2.241-15.489-2.538-5.208-8.027-9.055-13.606-10.343-4.757-1.137-9.74-0.894-14.364 0.7-1.9 0.719-3.584 1.992-5.557 2.538-0.82 0.227-1.993-0.148-1.864-1.206 0.165-1.162 0.751-2.223 1.646-2.983 2.782-2.082 5.993-3.517 9.4-4.2 5.016-0.927 12.874 0.075 17.394 2.6 4.532 2.771 8.189 6.765 10.551 11.523 2.069 0.1 3.293 0.455 5.042-0.995 2.094-1.737 1.03-5.4-6.332-6.3 1.377-0.425 2.692-1.033 3.907-1.808 1.271-0.631 2.34-1.606 3.085-2.814 1.318-2.641-0.529-5.186-3.327-5.484-2.94-0.313-6.195 1.868-8.181 3.873 1.449-2.27 3.281-4.346 4.095-6.963 1.048-3.352-0.395-5.618-3.73-3.938-2.657 1.337-4.354 4.331-5.964 6.707 0.984-1.757 1.731-3.6359 2.22-5.589 0.614-2.994 0.08-9.226-4.646-7.781-4.005 1.226-6.209 5.831-7.486 9.8 0.329-3.023 1.581-10.194 0.149-13.136-0.18-0.4302-0.462-0.8101-0.821-1.1072-0.36-0.2971-0.786-0.5025-1.242-0.5984-0.457-0.0959-0.93-0.0795-1.378 0.0477-0.449 0.1273-0.86 0.3616-1.198 0.6829-0.49 0.4374-0.92 0.9389-1.276 1.491-2.451 3.7-2.474 8.349-2.8 12.615-0.7-3-1.633-6.4-3.961-8.6-3.562-3.358-6.522 1.241-6.754 4.657-0.225 3.359 1.076 6.395 2.138 9.495-1.914-2.8-3.31-6.935-6.256-8.888-3.085-2.046-5.545 1.014-5.52 4.137 0.03 3.645 2.777 7.32 4.749 10.269-2.337-2.18-5.359-5.261-8.852-5.143-2.426 0.082-4.964 5.4-0.235 10.558 3.242 3.543 7.648 3.6 12.018 3.989" clip-rule="evenodd" fill-rule="evenodd"/>
<path d="m236.67 96.029c1.382 2.07 0.46 4.932-0.72 7.116 0.031-0.012 0.136-0.057 0.173-0.073 7.857-3.067 11.623 4.97 6.148 8.749-0.472 0.358-1.739 1.155-2.266 1.454 0.676 0.221 1.33 0.505 1.953 0.849 3 1.638 4.019 5.013 0.748 7.168-1.583 1.016-2.783 0.918-4.615 0.8-0.7-0.045-0.7-0.017-1.043-0.177-0.694-0.458-0.133-0.339-2.019-3.248-1.981-2.977-4.504-5.555-7.437-7.6-5.347-3.453-14.354-4.186-19.131-2.825-2.409 0.659-4.696 1.706-6.769 3.1-0.568 0.336-1.054 0.795-1.422 1.342-0.272 0.425-0.455 0.902-0.536 1.4 0.107 0.038 0.222 0.051 0.335 0.037 1.379-0.469 2.708-1.075 3.967-1.809 9.234-4.623 24.759-2.313 30.845 9.228 1.04 2.096 1.767 4.332 2.157 6.639 0.54 3.009 0.662 6.078 0.363 9.12-0.081 0.677-0.046 0.754-0.266 1.131-0.141 0.195-0.342 0.339-0.571 0.411-0.23 0.072-0.477 0.068-0.704-0.011-0.802-0.208-1.584-0.487-2.336-0.834-5.829-2.808-7.677-8.35-8.756-14.748-0.089-0.6-0.306-2.116-0.366-2.831-4.448 3.432-9.873 5.356-15.489 5.495-7.016 0.044-11.081-3.416-13.943-4.727-0.565-0.69 0.28-0.227-3.784-0.7-4.516-0.512-7.761-1.907-10.212-5.783-0.304-0.497-0.567-1.018-0.789-1.557-0.457-1.093-0.669-2.272-0.623-3.456 0.1-2.276 1.409-4.9 3.759-4.959 1.76 0.024 3.472 0.578 4.911 1.591-1.24-2.365-2.207-4.832-1.642-7.459 0.822-3.032 2.628-4.189 4.352-4.183 2.119 0.022 3.775 1.726 5.086 3.386-0.047-0.164-0.091-1.229-0.1-1.337-0.071-5.723 4.194-10.119 8.22-6.778 1.247 1.1175 2.242 2.4866 2.921 4.017 0.251-2.8672 1.22-5.6248 2.819-8.018 1.367-1.942 3.429-2.928 5.577-1.958 3.06 1.55 2.832 5.534 2.682 8.963 0.31-0.4523 0.646-0.8864 1.006-1.3 3.635-3.922 8.458-4.521 10.03 0.114 0.517 1.6412 0.683 3.3725 0.488 5.082 0.864-0.7886 1.88-1.3923 2.985-1.774 1.987-0.619 3.332-0.058 4.014 0.953zm-22.521 9.313c4.437 0.068 9.868 1.022 13.655 3.2 3.268 2.031 6.107 4.68 8.359 7.8 0.817 1.106 1.542 2.276 2.169 3.5 0.695 0.082 1.397 0.082 2.092 0 0.734-0.176 1.389-0.591 1.862-1.179l0.015-0.017 0.019-0.034 6e-3 -0.017 0.029-0.05 6e-3 -0.016 0.01-0.016v-0.016l0.01-0.017c0.021-0.066 0.034-0.1 0.048-0.144v-0.016l0.011-0.031v-0.017l5e-3 -0.015v-0.033l6e-3 -0.016 7e-3 -0.165v-0.122c-0.012-0.061-0.02-0.1-0.034-0.165l-8e-3 -0.019v-0.038l-8e-3 -0.02v-0.019l-0.033-0.079c-0.027-0.148-0.374-1.029-2.242-1.852-1.205-0.482-2.469-0.802-3.759-0.951-0.224 2e-3 -0.444-0.06-0.634-0.179s-0.342-0.29-0.438-0.493c-0.108-0.234-0.133-0.499-0.069-0.749s0.212-0.471 0.419-0.625c0.351-0.221 0.864-0.3 1.988-0.792 1.144-0.5 3.827-2.017 4.465-3.083 0.258-0.341 0.427-0.74 0.491-1.163 0.064-0.422 0.021-0.854-0.124-1.256-0.146-0.402-0.389-0.761-0.709-1.044-0.32-0.284-0.706-0.483-1.122-0.579-1.565-0.352-3.207-0.072-4.567 0.779-1.276 0.694-2.443 1.572-3.464 2.605-0.184 0.185-0.427 0.301-0.687 0.327-0.261 0.024-0.523-0.041-0.742-0.186-0.218-0.146-0.378-0.363-0.453-0.614s-0.059-0.521 0.043-0.762c0.864-1.648 5-6.219 4.257-9.2l-0.026-0.021c-3e-3 -0.0179-7e-3 -0.0355-0.012-0.053l-8e-3 -0.017v-0.017l-9e-3 -0.017v-0.017l-9e-3 -0.017v-0.016c-0.142-0.275-0.161-0.3-0.166-0.308l-9e-3 -9e-3v-9e-3l-9e-3 -7e-3v-8e-3l-9e-3 -7e-3v-7e-3l-9e-3 -7e-3 -5e-3 -6e-3 -9e-3 -6e-3v-6e-3l-9e-3 -5e-3v-6e-3h-0.018v-5e-3h-9e-3v-5e-3l-0.018-9e-3 -0.036-0.016c-0.134-0.0503-0.278-0.0728-0.421-0.066-1.193 0.1718-2.297 0.73-3.142 1.589-3.745 3.742-3.479 6.109-5.248 5.606-0.238-0.09-0.438-0.257-0.569-0.475-0.131-0.217-0.185-0.473-0.153-0.725 0.164-0.744 2.064-3.676 2.353-6.408 0.178-1.7 0.044-4.472-1.287-5.564-1.1-0.87-3.078 0.129-4.148 0.981-2.015 1.486-3.45 4.533-4.286 6.9-0.434 1.209-0.37 1.387-0.987 1.715-0.244 0.1-0.514 0.112-0.766 0.036-1.755-0.711 0.047-2.612 0.014-10.69-6e-3 -1.388-0.238-3.418-1.5-4.015-0.292-0.1351-0.618-0.1784-0.935-0.124-0.782 0.2257-1.448 0.7425-1.86 1.444-2.368 3.506-2.5 7.251-2.812 11.777-0.048 0.721-0.027 0.988-0.466 1.394-0.196 0.152-0.437 0.234-0.685 0.233s-0.489-0.086-0.683-0.24c-0.7-0.667-0.269-1.283-1.7-5.052-0.059-0.127-0.254-0.636-0.432-0.964-0.632-1.342-2.139-3.512-3.633-3.546-0.405 0.0499-0.793 0.1933-1.133 0.4189s-0.623 0.5273-0.827 0.8811c-2.605 3.815-0.71 8.1 0.738 12.474 0.102 0.204 0.134 0.436 0.09 0.66s-0.161 0.427-0.333 0.577c-0.173 0.151-0.393 0.239-0.623 0.248-0.23 0.01-0.457-0.06-0.642-0.196-1.321-1.16-3.758-8.284-6.976-9.293-0.295-0.1081-0.612-0.14-0.923-0.0928-0.31 0.0472-0.604 0.172-0.853 0.3628-4.7 4.269 3.027 12.4 3.206 13.659 0.013 0.152-0.015 0.305-0.079 0.443s-0.163 0.258-0.287 0.346c-0.125 0.089-0.27 0.144-0.421 0.16-0.152 0.015-0.305-9e-3 -0.445-0.07-0.918-0.491-4.474-5.1-8.332-5.124-0.276-0.02-0.551 0.05-0.783 0.2-2.533 1.941-1.662 6.965 1.668 9.721 2.72 2.521 6.775 2.735 10.381 3.053 0.518 0.047 0.319-0.011 0.89 0.289l0.11 0.338c3.775 2.018 6.929 3.81 10.764 4.18 3.892 0.33 7.804-0.355 11.352-1.989 2.462-1.09 4.733-2.57 6.724-4.383 0.163-0.148 0.372-0.237 0.592-0.249 0.221-0.013 0.439 0.05 0.618 0.178 0.7 0.591 0.166 0.69 1.086 5.756 0.383 2.324 1.063 4.589 2.023 6.74 1.544 3.018 3.172 4.868 6.406 6.108 0.242-3.553-0.136-7.121-1.116-10.544-0.496-1.726-1.253-3.366-2.244-4.864-3.891-5.572-10.81-9.11-19.585-8.47-6.082 0.466-7.688 2.409-10.724 3.556-0.432 0.215-0.905 0.338-1.387 0.359s-0.964-0.06-1.413-0.237c-0.29-0.13-0.551-0.317-0.769-0.548-0.312-0.345-0.503-0.783-0.544-1.246-1e-3 -0.885 0.232-1.754 0.676-2.519 0.689-1.2 1.713-2.173 2.947-2.8 1.958-1.215 4.069-2.165 6.278-2.824 2.182-0.646 4.452-0.945 6.727-0.886z" clip-rule="evenodd" fill-rule="evenodd"/>
<path d="m184.78 186.85c0.31 0.646 0.2 0.211 0.348 1.651 0.326 3.089 0.477 6.194 0.451 9.3 0.243 12.172 0.338 11.233 0.427 19.816-0.1 8.245 0 7.375-0.8 7.779h-5e-3l-0.484-0.21c-0.295-0.667-0.214-0.288-0.332-1.7-0.727-8.723-0.644-9.9-0.814-15.138-0.355-15-0.375-14.721-0.209-17.512 0.082-1.39 0.258-3.392 0.272-3.5l0.229-0.488 0.456-0.206h9e-3l0.452 0.208z" clip-rule="evenodd" fill="#BD1992" fill-rule="evenodd"/>
<path d="m249.55 184 0.451 0.222 0.213 0.489c0.482 4.713 0.313 23.787 0.282 24.832-0.028 4.637-0.401 9.265-1.115 13.847-0.263 1.813-0.219 1.5-0.531 2.036l-0.5 0.153h-9e-3c-0.909-0.543-0.528 0.238-0.307-7.33 0.6-21.7-0.209-23.765 0.69-32.64 0.137-1.155 0.041-0.8 0.352-1.418l0.464-0.192 0.01 1e-3z" clip-rule="evenodd" fill="#BD1992" fill-rule="evenodd"/>
<path d="m217.34 218.03c0.628 1.2 0.368 0.468 0.625 3.524 0.15 0.96 0.07 1.942-0.235 2.865l-0.278 0.555-0.384 0.241h-9e-3c-0.511-0.261-0.34-0.1-0.733-0.728-0.302-0.68-0.491-1.404-0.561-2.144-0.012-0.131-0.252-2.971-0.195-3.344 0.05-0.223 0.127-0.44 0.23-0.644 0.2-0.417 0.013-0.168 0.832-1.014 0.011 9e-3 0.695 0.674 0.708 0.689z" clip-rule="evenodd" fill-rule="evenodd"/>
<path d="m130.16 213.61c2.445 2.668 0.338 0.326 4.129 5.257 5.84 6.735 5.526 6.022 5.248 6.974l-0.464 0.2-0.551-0.162c0.437 0-2.5-0.8-7.233-7.194-0.672-0.842-1.257-1.749-1.748-2.707-0.236-0.549-0.432-1.116-0.585-1.694 0.031-0.708-0.1-0.4 0.267-0.942h9e-3l0.457-0.021 0.471 0.289z" clip-rule="evenodd" fill-rule="evenodd"/>
<path d="m135.12 205.27c0.58 0.657 1.115 1.353 1.6 2.083 2.931 5.277 3.492 5.82 4.636 7.707 2.039 3.673 1.689 2.808 1.859 3.643l-0.231 0.446-0.493 0.1-0.505-0.261c-0.437-0.451-1.514-1.548-2.115-2.326-1.902-2.644-3.623-5.413-5.154-8.288-0.339-0.799-0.611-1.624-0.814-2.468 0.03-0.689-0.072-0.445 0.294-0.932l0.461-8e-3 0.462 0.304z" clip-rule="evenodd" fill-rule="evenodd"/>
<path d="m148.11 208.91-0.52-0.235c-0.85-0.745-1.644-1.553-2.374-2.416-1.418-1.889-2.607-3.939-3.544-6.107-0.574-1.114-0.85-2.358-0.8-3.61 0-0.289-0.034-0.116 0.166-0.758l0.354-0.288h9e-3l0.442 0.107c0.439 0.478 0.368 0.381 0.476 0.6 0.07 0.134 0.867 1.572 0.939 1.819 1.561 4.138 2.568 4.908 4.862 8.856 0.671 1.123 0.5 0.686 0.688 1.444l-0.209 0.456v5e-3l-0.489 0.127z" clip-rule="evenodd" fill-rule="evenodd"/>
<path d="m157.67 195.8h9e-3l0.343 0.374c0.02 2.435-6.75 15.142-5.953 34.876 0.064 3.041 0.472 7.477 0.613 9.209 1.26 12.081 1.723 11.313 1.458 12.536-9e-3 0-0.43 0.3-0.437 0.3s-0.509-0.108-0.516-0.11l-0.313-0.446c-1.281-5.286-2.204-10.652-2.764-16.062-0.509-6.224-0.42-12.483 0.266-18.69 0.29-2.77 1.1-6.721 1.118-6.83 0.856-4.405 2.275-8.683 4.222-12.726 1.142-2.388 0.993-2.047 1.447-2.443l0.507 0.012z" clip-rule="evenodd" fill-rule="evenodd"/>
<path d="m128.03 228.82 0.357 0.37c0.029 1.728-0.3-0.512-1.877 8.165-1.359 7.408-5 18.224-2.393 29.332 0.738 3.295 2.188 6.389 4.249 9.064 2.128 2.681 4.938 4.742 8.135 5.966 2.803 1.082 5.815 1.514 8.809 1.264 2.349-0.272 4.647-0.878 6.824-1.8 6.381-2.591 10.368-8.361 13.671-14.3 3.4-6.239 2.437-5.134 3.235-5.84l0.529 0.019 0.361 0.4c-0.031 0.7 0.048 0.365-0.381 1.337-2.162 4.828-5.25 11.181-9.017 15.014-2.337 2.505-5.193 4.47-8.367 5.758-3.175 1.287-6.592 1.867-10.014 1.698-4.315-0.289-8.447-1.851-11.875-4.488-3.427-2.636-5.997-6.23-7.383-10.326-1.699-5.057-2.313-10.415-1.8-15.725 0.925-9.445 2.045-11.353 3.144-16.007 0.271-1.036 1.44-6.67 2.881-9.536l0.385-0.366h0.516l0.011 1e-3z" clip-rule="evenodd" fill-rule="evenodd"/>
<path d="m179.33 191.44 0.247 0.463-0.168 0.5c-0.529 0.289-0.411 0.254-0.723 0.3-4.271 0.609-8.965 3.721-12.385 6.362-5.9 4.546-9.485 9.6-13.8 15.505-8e-3 7e-3 -0.439 0.307-0.447 0.313l-0.5-0.045-9e-3 -5e-3 -0.3-0.4c0.044-0.647 0.017-0.5 0.114-0.718 1.57-3.589 3.75-6.879 6.445-9.722 2.731-3.103 5.816-5.876 9.193-8.261 1.913-1.391 4.006-2.515 6.222-3.341 0.107-0.036 1.775-0.607 1.934-0.607 1.198-0.302 2.424-0.476 3.658-0.518l0.519 0.174z" clip-rule="evenodd" fill-rule="evenodd"/>
<path d="m253.5 193.07c6.664 1.812 13.812 4.657 19.207 9.121 4.506 3.634 7.63 7.458 10.842 14.659 6.345 13.516 8.66 27.314 9.758 42.2 0.185 3.251 0.851 6.8 1.417 11.672 0.281 2.311 0.345 4.642 0.194 6.965l-0.242 0.483-0.5 0.181h-0.01l-0.473-0.237-0.185-0.5c0.206-4.741-1.109-10.25-1.69-14.076-1.04-6.325-1.136-14.328-3.7-25.865-1.152-5.561-2.826-11.001-5-16.247-1.87-4.357-4.458-10.036-7.679-13.553-0.911-1.016-1.884-1.975-2.912-2.873-5.074-4.567-12.572-8.209-19.441-10.6l-0.4-0.349c0-0.015-0.052-0.509-0.051-0.523l0.335-0.391 0.53-0.067z" clip-rule="evenodd" fill-rule="evenodd"/>
<path d="m264.27 283.14c-0.444-0.512-0.327-0.243-1.114-2.035-0.5-1.154-0.342-0.688-2.05-6.567-0.263-0.788-0.346-1.624-0.243-2.448l0.479-0.854 0.855 0.479c0.334 0.487 0.627 1.001 0.877 1.536 0.059 0.155 1.66 5.583 1.813 6.294 0.08 0.351 0.245 1.552 0.257 1.725 0.112 1.3 0.133 0.878-0.022 1.644l-0.364 0.33c-0.014-1e-3 -0.475-0.101-0.488-0.104z" clip-rule="evenodd" fill-rule="evenodd"/>
<path d="m174.55 282.28c-2.156-18.3-5.984-37.332 2.837-54.515 8.884-2.05 62.708-2.28 80.2-0.8 6.137 18.715 1.966 37.769-1.657 56.519" clip-rule="evenodd" fill="#BD1992" fill-opacity=".53" fill-rule="evenodd"/>
<path d="m256.6 225.76c1.278 0.082 1.283 0.089 1.606 0.268 0.468 0.362 0.45 0.606 0.737 1.483 5.607 18.347 1.642 36.4-2.145 55.232-0.218 1.059-0.1 0.764-0.482 1.333l-0.521 0.111h-9e-3l-0.443-0.3c-0.156-0.748-0.176-0.181 0.215-2.295 3.253-17.865 2.739-16.766 2.846-16.766 1.836-13.427 2.082-24.176-1.663-36.793-0.012 0-0.561-0.044-4.209-0.266-16.316-0.712-32.777-0.739-48.242-0.458-3.405 0.063-22.9 0.519-26.141 1.454-2.534 5.198-4.139 10.8-4.743 16.551-1.755 15.99 2.324 35.251 1.683 37.4l-0.454 0.261h-5e-3l-0.5-0.146-0.266-0.459c-2.59-18.606-6.484-37.812 2.31-54.7 0.538-1.1 0.585-0.987 3.24-1.384 16.144-1.838 63.237-1.706 77.186-0.526z" clip-rule="evenodd" fill="#BD1992" fill-rule="evenodd"/>
<path d="m158.07 111.51c0.543 0.025 1.081 0.108 1.606 0.247 0.794 0.156 1.538 0.503 2.168 1.01s1.128 1.159 1.451 1.901c1.084 2.407-0.608 4.718-3.916 4.122-1.349-0.212-2.622-0.762-3.7-1.6-2.427-2.188-1.217-5.699 2.391-5.68zm0.55 1.858c-0.401 0.074-0.789 0.203-1.155 0.382-0.071 0.032-0.14 0.067-0.207 0.107-0.4 0.225-0.385 0.259-0.482 0.366-0.01 0.012-0.02 0.025-0.029 0.039l-5e-3 5e-3v7e-3l-0.01 0.011v0.018l-0.01 0.012v0.024l-5e-3 6e-3v0.311l8e-3 0.026v0.014l8e-3 0.028v0.014c0.011 0.038 0.023 0.087 0.032 0.125l8e-3 0.015 0.013 0.042 8e-3 0.015 8e-3 0.028 9e-3 0.014v0.014l8e-3 0.014v0.013l0.026 0.042v0.014l0.052 0.084 0.013 0.014 0.017 0.028 0.013 0.014 9e-3 0.014 0.013 0.014 9e-3 0.014 0.026 0.029 9e-3 0.014c0.92 0.977 3.4 1.62 4.184 1.157l0.038-0.022v-6e-3l0.019-0.01 9e-3 -0.01 0.01-5e-3c0.039-0.038 0.025-0.023 0.048-0.045l9e-3 -8e-3 9e-3 -9e-3v-0.07l5e-3 -7e-3v-0.021l0.01-0.015v-0.165c0.02-0.295-0.034-0.591-0.156-0.861-0.298-0.79-0.851-1.459-1.571-1.9h-9e-3c-0.332-0.028-0.666-6e-3 -0.991 0.066z" clip-rule="evenodd" fill="#010000" fill-rule="evenodd"/>
<path d="m167.06 179.43c-1.862-0.624-3.532-1.719-4.846-3.179-3.262 5.107-6.344 9.314-10.361 14.955-0.9 1.264-2.878 4.345-1.87 5.98 1.677 2.732 4.841-1.472 5.984-3.049 4.379-6.068 6.342-8.686 11.112-14.778" clip-rule="evenodd" fill-rule="evenodd"/>
<path d="m162.4 175.25c0.456 0.133 0.49 0.23 0.795 0.589 1.052 1.208 2.358 2.169 3.824 2.814l0.513 0.13 0.251 0.467c-0.094 0.338-0.08 0.245-0.068 0.406l-0.06 0.06-0.019 0.07c-10.368 14.3-10.821 15.4-12.653 17.348-0.863 1.083-2.086 1.819-3.447 2.074-0.476 0.022-0.95-0.083-1.372-0.305s-0.777-0.553-1.028-0.958c-0.318-0.517-0.509-1.103-0.558-1.708s0.046-1.213 0.276-1.775c0.753-2.454 2.673-4.711 6.91-10.688 6.066-8.727 5.677-8.61 6.636-8.524zm-11.311 19.665c-0.191 0.46-0.267 0.959-0.219 1.455v0.019c0.012 0.04 0.023 0.068 0.042 0.126l0.015 0.027v0.023c0.042 0.068 0.088 0.132 0.139 0.193 0.028 0.036 0.079 0.09 0.08 0.091h0.01l9e-3 9e-3 6e-3 8e-3h0.019l0.014 0.012h0.01l0.02 0.018h9e-3l0.019 8e-3h0.046l0.111-8e-3 0.013-6e-3h0.018l0.014-6e-3h0.036l0.014-6e-3h0.013l0.041-0.016h0.013c0.042-0.014 0.022-0.01 0.064-0.023l0.013-0.01c0.094-0.036 0.185-0.08 0.272-0.131 1.532-0.908 3.178-3.408 4.251-4.886 2.856-3.959 6.658-8.554 9.606-12.1-0.524-0.192-1.034-0.421-1.526-0.684-0.657-0.342-1.277-0.751-1.85-1.22-4.488 7.453-10.5 14.517-11.327 17.107h5e-3z" clip-rule="evenodd" fill="#010000" fill-rule="evenodd"/>
<path d="m182.78 120.14c8.16 0.221 15.911 3.622 21.6 9.476 5.689 5.855 8.865 13.7 8.852 21.863 1e-3 2.769-0.342 5.527-1.021 8.212v0.014c-1.931 7.485-6.488 14.026-12.839 18.431-6.351 4.406-14.074 6.382-21.761 5.569-2.679-0.261-5.312-0.875-7.831-1.825-6.066-2.253-11.315-6.279-15.063-11.554s-5.822-11.556-5.954-18.026c-0.087-4.865 0.958-9.684 3.051-14.076 1.417-2.974 3.285-5.712 5.537-8.116 3.224-3.456 7.182-6.146 11.583-7.871 4.4-1.725 9.132-2.442 13.846-2.097zm-4.98 2.529c-4.903 0.634-9.564 2.504-13.546 5.433-3.981 2.93-7.153 6.824-9.217 11.316-2.076 4.543-2.936 9.548-2.494 14.524 0.592 7.245 3.929 13.991 9.329 18.859 5.399 4.867 12.454 7.489 19.722 7.329 7.268-0.159 14.2-3.088 19.381-8.189 5.18-5.1 8.218-11.985 8.491-19.25 0.057-1.688-0.028-3.377-0.254-5.051-0.451-3.235-1.462-6.366-2.988-9.253-2.816-5.5-7.288-9.977-12.785-12.8-4.778-2.586-10.246-3.607-15.635-2.918h-4e-3zm4.98-2.526c-0.435-9e-3 -0.437-0.01 0 0z" clip-rule="evenodd" fill="#010000" fill-rule="evenodd"/>
<path d="m190.79 148.38c0.133-3.048-1.612-5.599-3.898-5.699-2.286-0.099-4.247 2.291-4.38 5.339-0.133 3.047 1.613 5.599 3.898 5.699 2.286 0.099 4.247-2.291 4.38-5.339z"/>
<path d="m186.8 141.49c0.692-0.029 1.384 0.065 2.043 0.278 2.314 0.886 3.967 3.26 3.826 6.506-0.023 0.895-0.175 1.782-0.451 2.634-0.306 1.054-0.866 2.017-1.632 2.804-0.765 0.787-1.713 1.374-2.758 1.709-0.858 0.218-1.757 0.212-2.612-0.018-0.854-0.229-1.636-0.673-2.27-1.291-0.778-0.744-1.376-1.656-1.749-2.666-1.764-4.566 1.096-10.15 5.603-9.956zm0.054 2.347c-2.234 0.4-2.871 3.558-2.319 5.755 0.075 0.493 0.278 0.957 0.588 1.348 0.311 0.39 0.718 0.692 1.181 0.876h0.023l0.018 6e-3h0.064l0.023 6e-3h0.258c0.426-0.123 0.816-0.346 1.137-0.653 0.32-0.306 0.562-0.685 0.704-1.105 1.077-2.386-0.224-5.821-1.676-6.251l-1e-3 0.018z" clip-rule="evenodd" fill="#010000" fill-rule="evenodd"/>
<path d="m202.78 141.66 0.143 0.527c-0.051 2.075-0.226 4.146-0.523 6.2-0.408 3.235-0.393 4.892-1.346 12.893-0.228 0.88-0.346 1.784-0.352 2.693l7e-3 0.047v0.023c0.013 0.094 0.037 0.186 0.071 0.275l9e-3 9e-3v0.014l9e-3 0.01v0.014l8e-3 0.014 9e-3 0.01c0.124 0.208 0.488 0.371 1.093 0.5 0.35 0.066 0.139-0.024 0.742 0.309l0.177 0.482v5e-3l-0.241 0.459c-0.565 0.215-0.456 0.206-0.828 0.19-0.499 0.034-0.998-0.062-1.45-0.277-0.451-0.215-0.84-0.542-1.128-0.951-0.242-0.447-0.379-0.943-0.4-1.451-0.124-2.719 0.747-8.564 0.944-11.076 0.136-1.25 0.014-1.251 0.617-5.921 0.244-1.619 0.655-3.208 1.225-4.743l0.336-0.423 0.475-0.113c0.015 0 0.39 0.272 0.403 0.281z" clip-rule="evenodd" fill="#010000" fill-rule="evenodd"/>
<path d="m177.37 127.45c1.112-9e-3 2.208 0.276 3.175 0.825 0.429 0.248 0.799 0.588 1.082 0.996 0.284 0.407 0.474 0.872 0.557 1.361 0.637 4.1-6.185 8.269-9.175 10.823-1.711 1.514-3.227 2.936-5.5 3.248-3.154 0.178-4.165-2.922-3.664-6.011 0.139-0.844 0.424-1.658 0.842-2.405 1.885-3.613 4.992-6.439 8.766-7.975 1.445-0.583 1.228-0.5 1.743-0.477l0.238-0.17c0.634-0.152 1.284-0.224 1.936-0.215zm-1.659 1.6-0.306-0.068c-2.487 1.357-4.714 3.142-6.579 5.274-1.007 1.113-1.835 2.377-2.453 3.745-0.263 0.639-0.396 1.323-0.392 2.014 4e-3 0.69 0.145 1.373 0.415 2.009v0.014l0.013 0.014 0.017 0.029 9e-3 9e-3 0.017 0.029 9e-3 9e-3 9e-3 0.014 0.017 0.02 9e-3 0.014 9e-3 9e-3 0.013 0.01v0.01l0.014 9e-3 0.035 0.039h9e-3l0.017 0.019h9e-3l9e-3 0.01h9e-3l9e-3 9e-3h9e-3l9e-3 0.01 0.027 0.015 8e-3 9e-3 0.09 0.05h0.014c0.013 8e-3 0.027 0.015 0.041 0.02h9e-3c8e-3 2e-3 0.016 6e-3 0.023 0.01h0.036c7e-3 4e-3 0.015 8e-3 0.023 0.01h0.027l0.014 6e-3h0.041l0.189 8e-3h0.101c0.47-0.072 0.923-0.227 1.338-0.458 0.701-0.399 1.355-0.874 1.951-1.417 4.815-4.12 7.261-5.365 9.1-8.026 0.154-0.233 0.288-0.478 0.4-0.733 0.085-0.191 0.143-0.393 0.173-0.6l6e-3 -0.022v-0.065l6e-3 -0.128v-0.116l-8e-3 -0.037v-0.018l-8e-3 -0.038v-0.018c-0.014-0.066-0.024-0.109-0.03-0.144l-9e-3 -0.014-8e-3 -0.037-8e-3 -0.015v-0.018l-9e-3 -0.014v-0.019c-6e-3 -0.011-0.012-0.022-0.017-0.033v-0.019c-0.134-0.284-0.344-0.527-0.606-0.7-0.108-0.078-0.22-0.151-0.336-0.217l-0.028-0.011-0.022-0.014c-1.083-0.494-2.291-0.651-3.464-0.448z" clip-rule="evenodd" fill="#010000" fill-rule="evenodd"/>
<path d="m163.74 150.7c0.534 0.324 0.444 0.239 0.5 0.4 0.241-0.021 0.089-0.036 0.358 0.039 0.321 0.104 0.629 0.245 0.917 0.422 0.601 0.393 1.108 0.913 1.486 1.523s0.617 1.296 0.7 2.009c0.181 1.197 0.04 2.42-0.408 3.544-0.244 0.733-0.657 1.397-1.207 1.939-0.549 0.542-1.22 0.947-1.956 1.18-0.735 0.234-1.516 0.29-2.278 0.164s-1.483-0.431-2.104-0.889c-2.011-1.365-2.518-4.254-1.706-6.534 0.226-0.843 0.653-1.619 1.246-2.26 0.592-0.641 1.331-1.129 2.154-1.421 0.743-0.235 1.535-0.275 2.298-0.116zm-0.18 1.379c-0.45 0.032-0.887 0.164-1.279 0.387-0.592 0.371-1.091 0.873-1.459 1.466-0.22 0.309-0.399 0.645-0.532 1-0.09 0.257-0.168 0.518-0.232 0.782-0.343 1.391 0.057 3.123 1.364 3.681 0.632 0.318 1.36 0.389 2.042 0.2 0.407-0.166 0.773-0.416 1.076-0.734s0.535-0.697 0.681-1.111c0.128-0.284 0.232-0.578 0.31-0.88 0.121-0.473 0.181-0.96 0.178-1.448 3e-3 -0.551-0.112-1.096-0.335-1.6-0.276-0.635-0.783-1.142-1.418-1.417l-0.34-0.332c-0.018 5e-3 -0.037 8e-3 -0.056 9e-3v-3e-3z" clip-rule="evenodd" fill="#010000" fill-rule="evenodd"/>
<path d="m25.88 134.56c2.7971 0.087 5.5596 0.645 8.171 1.651 3.553 1.282 2.928 1 3.452 1.464l0.061 0.5-5e-3 9e-3 -0.331 0.386-0.528 0.074c-3.3125-0.927-6.7071-1.529-10.136-1.8-0.9444-0.123-1.9044 9e-3 -2.781 0.381l-0.024 8e-3c-0.6421 0.391-1.1784 0.934-1.562 1.581h-5e-3c-0.824 1.511-1.4166 3.138-1.758 4.825-0.9791 4.327-1.3033 8.777-0.962 13.2 0.186 2.64 0.623 5.932 2.659 7.6 2.5 2.055 7.512 1.5 10.742 0.989 2.759-0.393 1.989-0.452 2.873-0.252l0.3 0.437-0.115 0.516-0.446 0.308c-2.3526 0.588-4.7401 1.027-7.148 1.314-3.161 0.329-6.927-0.291-8.82-2.826-3.326-3.991-2.631-15.8-1.479-20.926 0.694-3.11 1.657-6.8 4.317-8.557 0.4688-0.308 0.9845-0.538 1.527-0.68 0.6539-0.157 1.3259-0.225 1.998-0.202z" clip-rule="evenodd" fill="#010000" fill-rule="evenodd"/>
<path d="m26.44 138.21c0.788 0.801 1.4048 1.753 1.813 2.8 0.853 2.218 0.958 5.624 0.965 8-0.042 3.041-0.4274 6.067-1.149 9.021v9e-3c-0.321 1.235-0.221 0.81-0.33 1.221-0.587 1.733-1.156 3.492-2.72 4.6l-0.526 0.134-0.46-0.246-0.126-0.494 0.243-0.492c0.9-0.807 1.377-2.806 1.584-4 0.893-4.9 1.585-8.4 1.073-13.641-0.184-1.762-0.524-3.388-0.552-3.5-0.1542-0.9-0.4559-1.768-0.893-2.569l-0.105-0.534 0.221-0.433 0.48-0.117 0.482 0.241z" clip-rule="evenodd" fill="#010000" fill-rule="evenodd"/>
<path d="m27.273 141.4c-2.566 3.894-2.938 7.869-3.154 12.012-0.0463 0.872-0.0306 1.746 0.047 2.615 0.076 0.8 0.095 3.312 0.871 3.9 0.112 0.088 0.6-0.37 0.689-0.467 1.989-2.143 2.122-10.387 2.129-13.324-9e-3 -0.54 0.024-4.049-1.158-3.566" clip-rule="evenodd" fill-rule="evenodd"/>
<path d="m27.649 140.82 9e-3 5e-3 0.267 0.421c-0.092 0.7-0.024 0.422-0.23 0.847 0.893 0.695 1.053 3.155 1.084 4.29 0.217 3.468 0.044 10.272-1.757 13.253-0.623 0.943-1.678 1.859-2.642 1.207-0.918-0.691-1.151-2.213-1.241-3.441-0.1237-1.202-0.1771-2.411-0.16-3.619 0.225-5.161 0.583-8.683 3.721-12.761v-5e-3l0.459-0.279 0.49 0.082zm-2.265 10.424c-0.1207 1.25-0.1708 2.506-0.15 3.762 0 0.169 0.152 2.485 0.21 2.778 1.17-3.053 1.622-12.012 1.46-13.827-0.808 2.356-1.3186 4.804-1.52 7.287z" clip-rule="evenodd" fill="#010000" fill-rule="evenodd"/>
<path d="m55.7 132.94c0.053 0.012 18.612 4.758 19.182 4.922 5.174 1.41 6.364 1.743 7.638 2.356 1.0035 0.46 1.8831 1.152 2.566 2.019 1.389 1.795 1.8 4.524 1.911 6.787 0.0619 1.267-0.0352 2.536-0.289 3.779-0.3909 1.558-0.8748 3.09-1.449 4.59l-0.349 0.4-0.514 0.056c-7e-3 -8e-3 -0.392-0.334-0.4-0.34-0.111-0.964-0.164 0.2 0.87-4 0.1627-0.726 0.2631-1.465 0.3-2.208 0.1-2.308-0.428-6.422-1.973-7.9-1.092-1.8-11.432-3.964-22.4-6.8-4.015-1.039-10.013-2.864-14.149-2.529-0.8311 0.086-1.6048 0.464-2.184 1.066-0.5016 0.496-0.9693 1.025-1.4 1.584-1.0299 1.357-1.8896 2.834-2.56 4.4-1.3017 3.123-2.0902 6.435-2.335 9.809-0.2814 3.211-0.0365 6.446 0.725 9.578 0.3014 1.334 0.8935 2.586 1.734 3.665 2.806 3.391 10.088 2.484 14.451 2.053h5e-3l0.518 0.156 0.266 0.459v9e-3l-0.146 0.509-0.473 0.27c-0.46-0.02-6.29 1.191-10.879 0.457-6.141-0.982-7.478-5.552-8.356-11.57-0.7075-6.527 0.5923-13.115 3.726-18.884 1.0596-1.926 2.4966-3.618 4.225-4.976 0.5418-0.322 1.1305-0.559 1.745-0.7 2.806-0.582 6.234 0.17 9.994 0.983z" clip-rule="evenodd" fill="#010000" fill-rule="evenodd"/>
<path d="m35.162 146.25v-0.018l0.027 0.015 0.032 0.01v-0.018l0.059 0.021v-0.023c0.0177 7e-3 0.0361 0.013 0.055 0.016v-0.023l0.041 0.011-8e-3 -0.024 0.045 0.012-8e-3 -0.024h0.041l-8e-3 -0.023h0.037l-8e-3 -0.023 0.013 5e-3h0.019l-0.013-0.024h0.027l-0.017-0.024h0.017c-0.0052-8e-3 -0.0109-0.016-0.017-0.024l-9e-3 -9e-3h5e-3 -5e-3l9e-3 9e-3 -9e-3 -9e-3 9e-3 9e-3v-5e-3l8e-3 0.01h9e-3l9e-3 0.01h9e-3v5e-3l0.036 0.02h9e-3c0.2652 0.09 0.5362 0.161 0.811 0.215 0.231 0.1 0.263 0.166 0.44 0.254 0.487 0.388-0.1-0.182 1.05 0.972-0.875 0.661-0.946 0.787-1.7 0.967-0.1271 0.02-0.257 0.015-0.382-0.016-0.8312-0.095-1.597-0.497-2.148-1.126v-5e-3c-0.0858-0.173-0.1256-0.365-0.1156-0.557 0.01-0.193 0.0694-0.38 0.1726-0.543l1.382-0.1 0.076 0.057z" clip-rule="evenodd" fill="#010000" fill-rule="evenodd"/>
<path d="m37.188 155.77c0.3 0.168 7e-3 -0.089 0.905 0.823-0.3881 0.431-0.8596 0.779-1.386 1.022l-0.141 0.063h-5e-3c-0.0448 0.014-0.0885 0.03-0.131 0.05-0.3663 0.042-0.7206 0.156-1.042 0.337l-0.015 0.013-0.014 9e-3h-5e-3l-0.023 0.013-0.014 0.013-0.029 0.017-0.014 0.014-0.014 8e-3 -0.025 0.022-0.038 0.035-0.015 9e-3 -0.033 0.031h-0.028l-0.019 8e-3h-0.023s-0.37 9e-3 -0.388 0.01c-0.25-0.011 0.095 0.183-1.288-0.775v-9e-3c0.036-0.826 0.147-0.871 0.591-1.209 0.3444-0.248 0.7262-0.44 1.131-0.568 0.3255-0.149 0.6811-0.221 1.039-0.21s0.7084 0.105 1.024 0.274z" clip-rule="evenodd" fill="#010000" fill-rule="evenodd"/>
<path d="m48.082 135.97 0.03 0.039h9e-3c1.0263 1.111 1.8073 2.426 2.292 3.859 0.274 0.954 0.222 0.622 0.217 0.728 0.035 0.134 0.125 0.536 0.148 0.643 0.5553 2.791 0.7392 5.643 0.547 8.482-0.164 3.122-0.8302 6.196-1.973 9.106-0.9 2.165-2.036 5.171-4.373 5.4-0.6-0.026-0.358 0.08-1.01-0.3l-0.157-0.5v-9e-3l0.259-0.445 0.514-0.175h0.194l0.042-0.012h0.014s0.107-0.037 0.135-0.045l0.01-9e-3c0.0079-2e-3 0.0156-5e-3 0.023-8e-3l0.014-9e-3h0.014c8e-3 0 0.036-0.018 0.048-0.025l9e-3 -9e-3c0.178-0.051 0.553-0.416 0.957-1.143v-9e-3c0.4809-0.998 0.8715-2.037 1.167-3.105 0.7898-2.168 1.3449-4.414 1.656-6.7 0.3406-2.606 0.3564-5.243 0.047-7.853-0.1384-1.14-0.3444-2.271-0.617-3.386-0.2659-1.28-0.7099-2.517-1.319-3.674l-0.1-0.534 0.236-0.432 0.484-0.108 0.483 0.233z" clip-rule="evenodd" fill="#010000" fill-rule="evenodd"/>
<path d="m48.623 139.2c-2.882 1.427-4.037 4.671-4.723 7.6-0.477 2.017-0.933 7.247-0.538 9.076 0.363 1.872 1.761 5.638 3.35 4.321 3.1-2.57 3.208-11.785 3.062-15.818-0.055-1.582-0.158-3.651-1.349-4.873" clip-rule="evenodd" fill-rule="evenodd"/>
<path d="m49.24 138.88v9e-3l0.025 0.489c0.6872 0.918 1.1126 2.005 1.231 3.146 0.1814 1.442 0.2889 2.892 0.322 4.345 0.169 3.323-0.1623 6.652-0.983 9.876-0.535 1.99-1.889 4.945-3.907 4.857-1.725-0.076-2.739-2.375-3.276-4.018-0.581-2.022-0.728-2.566-0.428-6.98 0.046-1.052 0.331-2.821 0.376-3.135 0.734-3.741 2.157-7.31 5.644-8.868 0.107-0.04-0.013-0.022 0.6-0.042l0.396 0.321zm-4.414 8.994c-0.2534 1.581-0.4077 3.176-0.462 4.776-0.0384 0.942-0.0147 1.885 0.071 2.823 0.2326 1.372 0.7709 2.674 1.575 3.81l0.014 0.01c0.1463-0.127 0.2802-0.268 0.4-0.421 2.309-2.636 2.75-14.743 2.262-17.128-0.0604-0.321-0.1532-0.635-0.277-0.938-0.0635-0.16-0.1401-0.315-0.229-0.462-1.989 1.833-2.748 4.651-3.354 7.53z" clip-rule="evenodd" fill="#010000" fill-rule="evenodd"/>
<path d="m48.105 143.99c0.0365 0.609-0.0754 1.218-0.326 1.774-1.3 3.529-0.525 2.508-1.891 6.069l-0.343 0.474-0.445 0.16h-9e-3l-0.391-0.263c-0.1736-0.338-0.2599-0.714-0.251-1.094-0.0568-0.594-0.0568-1.193 0-1.787 0.2709-1.495 0.6817-2.961 1.227-4.379 0.1625-0.501 0.463-0.946 0.867-1.284 0.411-0.377 0.139-0.239 1.261-0.6l0.301 0.93z" clip-rule="evenodd" fill="#fff" fill-rule="evenodd"/>
<path d="m27.1 149.73c-0.0207 0.747-0.1954 1.481-0.513 2.157-0.214 0.491-9e-3 0.229-0.913 1.062-0.72-0.922-0.626-0.718-0.73-1.2-0.2363-1.109-0.2258-2.257 0.031-3.362 0.129-1.227 0.124-1.249 0.225-1.469 0.1372-0.241 0.2905-0.473 0.459-0.694l0.768-0.607c1.162 1.458 0.986 1.168 0.673 4.113z" clip-rule="evenodd" fill="#fff" fill-rule="evenodd"/>
<path d="m87.426 149.45c0.7455-0.046 1.4821 0.181 2.073 0.638 1.619 1.183 1.9 3.7 1.629 5.642-0.463 3.211-2.549 4.777-4.894 4.675-0.4095-0.033-0.811-0.131-1.189-0.292l-0.4-0.381c0-7e-3 -0.062-0.5-0.061-0.5l0.334-0.368c1.021-0.16 1.055-6e-3 1.608-0.215 0.318-0.106 0.6129-0.272 0.869-0.488 0.5421-0.447 0.9633-1.022 1.225-1.674 0.447-1.08 0.519-3.71-0.314-4.432v-9e-3l-0.013-0.01-0.016-0.032c-6e-3 0-0.138-0.119-0.142-0.121-0.0588-0.035-0.1155-0.073-0.17-0.114h-9e-3c-0.1301-0.093-0.2665-0.178-0.408-0.253-0.1763-0.106-0.3642-0.192-0.56-0.255-0.249-0.1-0.756-0.25-0.864-0.281l-0.476-0.293-0.184-0.423 0.221-0.405 0.5-0.255h0.023c0.3994-0.095 0.8077-0.146 1.218-0.154z" clip-rule="evenodd" fill-rule="evenodd"/>
<path d="m126.46 192.72c0.152 0.866 0.356 0.53-2.857 3.284-1.463 1.272-8.668 6.749-12.76 9.359-0.019 0.014-0.259 0.185-0.271 0.191l-0.523 0.166-0.454-0.153-0.169-0.445 0.156-0.528v-5e-3c0.1-0.118-0.018-0.019 0.827-1.092 0.949-1.095 2.059-2.039 3.292-2.8 5.292-3.766 5.845-4.792 11.748-8.132l0.562-0.1 0.449 0.255z" clip-rule="evenodd" fill-rule="evenodd"/>
<path d="m212.64 262.91c0.526 0.296 1.024 0.642 1.485 1.032 2.1 2.39 3.629 3.309 5.444 5.131 0.774 0.78 0.431 0.29 0.889 1.057l-0.044 0.481-0.412 0.259-0.579-0.048c-0.963-0.35-1.881-0.815-2.732-1.386-1.217-0.96-2.364-2.005-3.434-3.126-0.772-0.665-1.345-1.53-1.656-2.5l-9e-3 -0.014 0.084-0.973 0.964 0.087z" clip-rule="evenodd" fill-rule="evenodd"/>
</svg>
