<svg width="22" height="16" viewBox="0 0 22 16" fill="none" xmlns="http://www.w3.org/2000/svg">
<path d="M14.8075 9.01228L12.6795 8.06648C12.5291 7.99968 12.4321 7.85021 12.4321 7.68576V7.10138C13.1469 6.5318 13.6064 5.6547 13.6064 4.67179V3.84918C13.8419 3.71905 13.9978 3.46759 13.9978 3.18595V3.10611C13.9978 1.39341 12.6044 0 10.8917 0H10.1089C8.39615 0 7.00274 1.39341 7.00274 3.10611V3.83048C7.00274 4.07804 7.10928 4.30231 7.29498 4.44581C7.32647 4.47013 7.35963 4.49151 7.39415 4.51002V4.67174C7.39415 5.65465 7.85357 6.53175 8.56837 7.10129V7.68571C8.56837 7.85017 8.47125 7.99963 8.32096 8.06643L6.19292 9.01223C5.496 9.32195 5.04565 10.0149 5.04565 10.7776V15.6313C5.04565 15.8335 5.20962 15.9975 5.41187 15.9975C5.61411 15.9975 5.77808 15.8335 5.77808 15.6313V10.7776C5.77808 10.7352 5.78111 10.6932 5.7855 10.6516L6.76607 11.6322C6.91866 11.7848 7.00274 11.9877 7.00274 12.2036V15.6313C7.00274 15.8336 7.16671 15.9975 7.36895 15.9975C7.5712 15.9975 7.73516 15.8336 7.73516 15.6313V12.2036C7.73516 11.7921 7.57496 11.4053 7.28399 11.1143L6.11499 9.94529C6.22032 9.83601 6.34668 9.74543 6.49043 9.68152L8.58258 8.75168L10.1341 10.3032V15.6313C10.1341 15.8335 10.2981 15.9975 10.5003 15.9975C10.7026 15.9975 10.8665 15.8335 10.8665 15.6313V10.3032L12.418 8.75173L14.5101 9.68152C14.6539 9.74543 14.7803 9.83601 14.8856 9.94534L13.7166 11.1143C13.4256 11.4053 13.2654 11.7921 13.2654 12.2036V15.6313C13.2654 15.8336 13.4294 15.9975 13.6316 15.9975C13.8339 15.9975 13.9978 15.8336 13.9978 15.6313V12.2036C13.9978 11.9878 14.0819 11.7848 14.2345 11.6322L15.215 10.6517C15.2194 10.6933 15.2224 10.7351 15.2224 10.7776V15.6313C15.2224 15.8335 15.3864 15.9975 15.5887 15.9975C15.7909 15.9975 15.9549 15.8335 15.9549 15.6313V10.7776C15.9547 10.015 15.5044 9.322 14.8075 9.01228ZM10.5002 9.63367L9.13878 8.27224C9.2423 8.09807 9.30075 7.89655 9.30075 7.68576V7.53674C9.67003 7.69191 10.0753 7.7779 10.5002 7.7779C10.9252 7.7779 11.3303 7.69196 11.6996 7.53679V7.68576C11.6996 7.8966 11.758 8.09807 11.8616 8.27229L10.5002 9.63367ZM10.5002 7.04543C9.19137 7.04548 8.12652 5.98063 8.12652 4.67179V4.50709C8.35504 4.41651 8.57809 4.27237 8.79161 4.07535C8.9402 3.93819 8.94952 3.7065 8.81232 3.55787C8.67516 3.40929 8.44352 3.39996 8.29483 3.53712C8.11168 3.70621 7.92867 3.81544 7.75103 3.86183C7.74674 3.86295 7.74356 3.86344 7.74132 3.86363C7.73868 3.85851 7.73512 3.84776 7.73512 3.83053V3.10616C7.73512 1.79732 8.79996 0.732472 10.1088 0.732472H10.8916C12.2005 0.732472 13.2653 1.79732 13.2653 3.10616V3.18599C13.2653 3.19786 13.2582 3.20816 13.2488 3.21002C11.0559 3.64312 9.95597 2.82686 9.58488 2.45577C9.44186 2.31275 9.20997 2.31275 9.06701 2.45577C8.92399 2.59879 8.92399 2.83067 9.06701 2.97364C10.2042 4.11085 11.8636 4.13136 12.8739 4.00997V4.67174C12.8739 5.98058 11.8091 7.04543 10.5002 7.04543Z" fill="black"/>
<path d="M6.60363 7.02036V6.2374C6.60363 5.28203 6.10714 4.44101 5.35904 3.95703C5.40523 3.80884 5.42936 3.65361 5.42936 3.49751C5.42936 2.64809 4.73834 1.95708 3.88892 1.95708C3.03951 1.95708 2.34849 2.64814 2.34849 3.49751C2.34849 3.65557 2.37242 3.80928 2.41871 3.95713C1.67066 4.44106 1.17422 5.28208 1.17422 6.2374V7.02022C1.17422 7.94536 1.6397 8.76343 2.34844 9.25376V10.0591C2.34844 10.2179 2.26021 10.3607 2.11817 10.4317L0.851515 11.065C0.32627 11.3277 0 11.8557 0 12.4429V15.6314C0 15.8336 0.163965 15.9976 0.366212 15.9976C0.568458 15.9976 0.732423 15.8336 0.732423 15.6314V12.6013L1.32901 13.1979C1.48159 13.3505 1.56568 13.5534 1.56568 13.7693V15.6314C1.56568 15.8336 1.72964 15.9976 1.93189 15.9976C2.13413 15.9976 2.2981 15.8336 2.2981 15.6314V13.7693C2.2981 13.3578 2.13785 12.971 1.84693 12.68L1.0166 11.8497C1.0126 11.8457 1.0083 11.8422 1.0042 11.8385C1.0563 11.7925 1.11475 11.7524 1.1791 11.7202L2.44576 11.0869C2.51065 11.0544 2.57105 11.0161 2.62735 10.9735L3.52271 11.869V15.6314C3.52271 15.8337 3.68668 15.9976 3.88892 15.9976C4.09117 15.9976 4.25514 15.8337 4.25514 15.6314V11.8689L5.15055 10.9735C5.20689 11.0161 5.26725 11.0544 5.33214 11.0869L5.68141 11.2615C5.734 11.2878 5.78986 11.3003 5.84493 11.3003C5.97926 11.3003 6.10861 11.2261 6.17277 11.0978C6.26324 10.9169 6.1899 10.6969 6.009 10.6065L5.65973 10.4318C5.51764 10.3608 5.4294 10.218 5.4294 10.0592V9.25391C6.13815 8.76358 6.60363 7.94546 6.60363 7.02036ZM3.88892 2.6895C4.33448 2.6895 4.69693 3.052 4.69693 3.49751C4.69693 3.54658 4.69254 3.59468 4.68414 3.6418C4.43248 3.56455 4.16553 3.5227 3.88892 3.5227C3.6127 3.5227 3.3461 3.5644 3.09483 3.64145C3.08638 3.59433 3.08091 3.54648 3.08091 3.49751C3.08091 3.05195 3.44337 2.6895 3.88892 2.6895ZM3.88892 4.25517C4.98194 4.25517 5.8712 5.14443 5.8712 6.23745V6.37017C4.34654 6.83696 3.4379 5.67715 3.39908 5.62632C3.33536 5.54141 3.23795 5.48828 3.13209 5.48076C3.02623 5.47334 2.92222 5.51206 2.84717 5.58711C2.49761 5.93667 2.15523 6.10527 1.90796 6.18667C1.93506 5.11704 2.81294 4.25517 3.88892 4.25517ZM3.88892 11.1993L3.04268 10.353C3.06739 10.2586 3.08091 10.1602 3.08091 10.0591V9.61211C3.33624 9.6919 3.60767 9.73492 3.88892 9.73492C4.17017 9.73492 4.44161 9.6919 4.69693 9.61211V10.0591C4.69693 10.1602 4.71046 10.2586 4.73517 10.353L3.88892 11.1993ZM3.88892 9.00249C2.7959 9.00249 1.90664 8.11323 1.90664 7.02022V6.94434C2.19869 6.87725 2.63169 6.72134 3.0834 6.35806C3.24322 6.50884 3.47164 6.6938 3.76251 6.85244C4.10655 7.04009 4.5817 7.21367 5.16207 7.21367C5.38263 7.21367 5.61861 7.18804 5.86808 7.12915C5.81129 8.17173 4.94537 9.00249 3.88892 9.00249Z" fill="black"/>
<path d="M21.1485 10.2823L19.099 9.25754C18.9569 9.18649 18.8687 9.04372 18.8687 8.88493V8.36593C19.3484 7.94 19.6515 7.3193 19.6515 6.62887V6.21202C19.66 6.21202 19.6683 6.21227 19.6767 6.21227C19.879 6.21227 20.0429 6.0483 20.0429 5.84605V5.06324C20.0429 3.78218 19.0007 2.73994 17.7196 2.73994H16.9368C15.6558 2.73994 14.6135 3.78218 14.6135 5.06324V5.84605C14.6135 6.0483 14.7775 6.21227 14.9797 6.21227C14.9828 6.21227 14.9916 6.21217 15.0049 6.21163V6.62887C15.0049 7.31935 15.3081 7.94005 15.7878 8.36598V8.88498C15.7878 9.04381 15.6996 9.18659 15.5575 9.25758C15.3766 9.34801 15.3032 9.56799 15.3937 9.74889C15.4579 9.87721 15.5872 9.95143 15.7215 9.95143C15.7766 9.95143 15.8324 9.93898 15.885 9.91271C15.9499 9.88024 16.0103 9.84191 16.0666 9.79933L16.962 10.6947V15.6314C16.962 15.8337 17.126 15.9976 17.3282 15.9976C17.5305 15.9976 17.6944 15.8337 17.6944 15.6314V10.6946L18.5898 9.79924C18.6462 9.84186 18.7065 9.88019 18.7714 9.91261L20.7546 10.9042L20.153 11.5057C19.8621 11.7967 19.7019 12.1835 19.7019 12.595V15.6313C19.7019 15.8336 19.8658 15.9975 20.0681 15.9975C20.2703 15.9975 20.4343 15.8336 20.4343 15.6313V12.595C20.4343 12.3792 20.5183 12.1762 20.671 12.0236L21.2407 11.4538C21.258 11.5201 21.2675 11.5892 21.2675 11.6601V15.6313C21.2675 15.8336 21.4315 15.9975 21.6337 15.9975C21.836 15.9975 21.9999 15.8336 21.9999 15.6313V11.6601C22 11.0729 21.6737 10.5449 21.1485 10.2823ZM15.3459 5.4045V5.06319H15.3459C15.3459 4.18599 16.0596 3.47232 16.9368 3.47232H17.7196C18.5968 3.47232 19.3105 4.18599 19.3105 5.06319V5.46998C17.7186 5.38409 16.7579 4.76461 16.7485 4.7585C16.6866 4.71719 16.6159 4.69698 16.5455 4.69698C16.451 4.69698 16.3572 4.7335 16.2864 4.80425C15.936 5.15465 15.5927 5.3233 15.3459 5.4045ZM17.3282 10.0251L16.482 9.17882C16.5067 9.08439 16.5202 8.98595 16.5202 8.88493V8.80695C16.772 8.90065 17.0442 8.95212 17.3282 8.95212C17.6123 8.95212 17.8845 8.90065 18.1362 8.80695V8.88493C18.1362 8.98595 18.1497 9.08439 18.1745 9.17882L17.3282 10.0251ZM17.3282 8.21974C16.451 8.21974 15.7374 7.50612 15.7374 6.62887V6.03849C15.9939 5.936 16.2927 5.77306 16.5968 5.51397C16.9814 5.71407 17.7859 6.05992 18.9191 6.17418V6.62887C18.9191 7.50607 18.2054 8.21974 17.3282 8.21974Z" fill="black"/>
</svg>
