<?xml version="1.0" encoding="UTF-8"?>
<svg viewBox="0 0 39 39" xmlns="http://www.w3.org/2000/svg">
<circle cx="19.5" cy="19.5" r="19.5" fill="#F49979"/>
<path d="m19.544 9.3437c0.5235-5.6e-4 1.0454 0.05726 1.5561 0.17236h-3.0976c0.5058-0.11439 1.0228-0.1722 1.5415-0.17236z" fill="#fff"/>
<path d="m26.578 19.5c-1.0492 0-2.0727-0.3249-2.9297-0.9303-0.8571-0.6053-1.5055-1.4612-1.8563-2.4501-0.3507-0.9889-0.3865-2.0621-0.1025-3.0722 0.2841-1.01 0.874-1.9073 1.6888-2.5684l2.4185 6.8184 0.227 0.6401 0.5542 1.5625z" fill="#fff"/>
<path d="m26.578 9.3437c-1.0043 0-1.9861 0.29782-2.8212 0.85578-0.8351 0.558-1.486 1.3511-1.8703 2.279-0.3844 0.9279-0.485 1.949-0.289 2.934 0.1959 0.9851 0.6796 1.8899 1.3898 2.6001 0.7101 0.7102 1.615 1.1938 2.6 1.3898 0.9851 0.1959 2.0061 0.0954 2.934-0.289 0.928-0.3843 1.721-1.0352 2.279-1.8703s0.8559-1.8169 0.8559-2.8213c0.0031-0.6677-0.126-1.3295-0.3801-1.947-0.2541-0.6176-0.628-1.1787-1.1002-1.6508-0.4722-0.4722-1.0332-0.84616-1.6508-1.1002-0.6175-0.25407-1.2793-0.38324-1.9471-0.38005zm0.7813 8.5938h-1.3355l-0.227-0.6402v-0.9223h1.5625v1.5625zm0-2.7344h-1.5625v-4.2969h1.5625v4.2969z" fill="#fff"/>
<path d="m21.109 9.3437c-1e-4 0.0576-0.0033 0.11514-0.0098 0.17237h-3.1055c-0.0237-0.21131-0.0041-0.42523 0.0578-0.62868 0.0618-0.20344 0.1645-0.39213 0.3018-0.55451 0.1372-0.16238 0.3062-0.29503 0.4965-0.38983 0.1904-0.0948 0.3981-0.14976 0.6104-0.1615 0.2123-0.01175 0.4247 0.01996 0.6244 0.09318 0.1996 0.07323 0.3822 0.18643 0.5365 0.33267 0.1544 0.14624 0.2773 0.32245 0.3611 0.51784 0.0839 0.19538 0.1271 0.40583 0.1268 0.61846z" fill="#fff"/>
<path d="m21.891 28.875c0 0.6216-0.2469 1.2177-0.6864 1.6573-0.4396 0.4395-1.0357 0.6864-1.6573 0.6864s-1.2178-0.2469-1.6573-0.6864c-0.4395-0.4396-0.6865-1.0357-0.6865-1.6573h4.6875z" fill="#fff"/>
<path d="m26.024 17.938h-0.227v-0.6402l0.227 0.6402z" fill="#fff"/>
<path d="m21.109 27.312h-8.2032c-0.1036 0-0.2029 0.0412-0.2762 0.1144-0.0732 0.0733-0.1144 0.1726-0.1144 0.2762s0.0412 0.203 0.1144 0.2762c0.0733 0.0733 0.1726 0.1145 0.2762 0.1145h8.2032c0.1036 0 0.2029-0.0412 0.2762-0.1145 0.0732-0.0732 0.1144-0.1726 0.1144-0.2762s-0.0412-0.2029-0.1144-0.2762c-0.0733-0.0732-0.1726-0.1144-0.2762-0.1144z" fill="#fff"/>
<path d="m23.062 27.312h-0.7813c-0.1036 0-0.2029 0.0412-0.2762 0.1144-0.0732 0.0733-0.1144 0.1726-0.1144 0.2762s0.0412 0.203 0.1144 0.2762c0.0733 0.0733 0.1726 0.1145 0.2762 0.1145h0.7813c0.1036 0 0.203-0.0412 0.2762-0.1145 0.0733-0.0732 0.1144-0.1726 0.1144-0.2762s-0.0411-0.2029-0.1144-0.2762c-0.0732-0.0732-0.1726-0.1144-0.2762-0.1144z" fill="#fff"/>
<path d="m25.797 15.594h1.5625c0.1036 0 0.2029-0.0412 0.2762-0.1145 0.0732-0.0732 0.1144-0.1726 0.1144-0.2762v-4.2969c0-0.1036-0.0412-0.2029-0.1144-0.2762-0.0733-0.0732-0.1726-0.1144-0.2762-0.1144h-1.5625c-0.1036 0-0.203 0.0412-0.2762 0.1144-0.0733 0.0733-0.1145 0.1726-0.1145 0.2762v4.2969c0 0.1036 0.0412 0.203 0.1145 0.2762 0.0732 0.0733 0.1726 0.1145 0.2762 0.1145zm0.3906-4.2969h0.7813v3.5156h-0.7813v-3.5156z" fill="#fff"/>
<path d="m25.797 18.328h1.5625c0.1036 0 0.2029-0.0411 0.2762-0.1144 0.0732-0.0732 0.1144-0.1726 0.1144-0.2762v-1.5625c0-0.1036-0.0412-0.203-0.1144-0.2762-0.0733-0.0733-0.1726-0.1144-0.2762-0.1144h-1.5625c-0.1036 0-0.203 0.0411-0.2762 0.1144-0.0733 0.0732-0.1145 0.1726-0.1145 0.2762v1.5625c0 0.1036 0.0412 0.203 0.1145 0.2762 0.0732 0.0733 0.1726 0.1144 0.2762 0.1144zm0.3906-1.5625h0.7813v0.7813h-0.7813v-0.7813z" fill="#fff"/>
<path d="m32.047 14.422c7e-4 -1.0095-0.2783-1.9994-0.8059-2.86-0.5276-0.8605-1.2832-1.5582-2.1831-2.0156s-1.9089-0.65659-2.915-0.57557c-1.0062 0.08103-1.9703 0.43914-2.7854 1.0346-0.5814-0.34846-1.2081-0.61513-1.8623-0.79251-0.0331-0.49445-0.2529-0.95784-0.6149-1.2962-0.362-0.33839-0.8392-0.52646-1.3347-0.52609-0.4956 3.7e-4 -0.9725 0.18916-1.334 0.52809s-0.5806 0.80265-0.6129 1.2972c-3.1504 0.86568-5.4736 3.7778-5.4736 7.2266v8.9717c0 0.1464-0.0411 0.2898-0.1187 0.414l-0.6543 1.0469c-0.1479 0.2365-0.2299 0.5082-0.2373 0.7871-0.0074 0.2788 0.06 0.5546 0.1952 0.7986s0.3333 0.4473 0.5736 0.5888c0.2404 0.1416 0.5143 0.2162 0.7932 0.2161h4.1641c0.0939 0.6507 0.4191 1.2459 0.9161 1.6763s1.1325 0.6673 1.7899 0.6673c0.6575 0 1.293-0.2369 1.79-0.6673 0.4969-0.4304 0.8222-1.0256 0.9161-1.6763h4.1641c0.2789 1e-4 0.5528-0.0745 0.7931-0.2161 0.2404-0.1415 0.4385-0.3448 0.5737-0.5888s0.2026-0.5198 0.1952-0.7986c-0.0074-0.2789-0.0894-0.5506-0.2373-0.7871l-0.6543-1.0469c-0.0776-0.1242-0.1187-0.2676-0.1187-0.414v-5.5376c1.3786-0.1004 2.6683-0.7184 3.6102-1.7301s1.4663-2.3423 1.4679-3.7245zm-12.5-6.25c0.2578 3.6e-4 0.5084 0.08557 0.7129 0.24248 0.2046 0.1569 0.3518 0.37678 0.419 0.62568-0.3749-0.05768-0.7536-0.08673-1.1328-0.08691h-0.0025c-0.3778-7e-5 -0.755 0.02899-1.1284 0.08691 0.0672-0.2489 0.2144-0.46878 0.419-0.62568 0.2045-0.15691 0.455-0.24212 0.7128-0.24248zm0 22.656c-0.45-5e-4 -0.8862-0.1562-1.2349-0.4409-0.3486-0.2846-0.5885-0.6807-0.6791-1.1216h3.8281c-0.0906 0.4409-0.3305 0.837-0.6792 1.1216-0.3486 0.2847-0.7848 0.4404-1.2349 0.4409zm7.5328-3.539c0.0739 0.1182 0.1148 0.2541 0.1184 0.3935 0.0037 0.1395-0.03 0.2773-0.0977 0.3993-0.0676 0.122-0.1666 0.2236-0.2868 0.2944s-0.2571 0.1081-0.3965 0.1081h-13.74c-0.1394 0-0.2764-0.0373-0.3965-0.1081-0.1202-0.0708-0.2193-0.1724-0.2869-0.2944s-0.1013-0.2598-0.0977-0.3993c0.0037-0.1394 0.0446-0.2753 0.1185-0.3935l0.6543-1.0469c0.1556-0.2482 0.238-0.5352 0.2378-0.8281v-8.9717c0-3.6968 2.9776-6.7061 6.6372-6.708h0.0025c1.111-0.00141 2.2045 0.27703 3.1796 0.80953-0.7452 0.7395-1.2618 1.6779-1.4879 2.7031-0.2261 1.0253-0.1521 2.0939 0.213 3.0782 0.3651 0.9844 1.006 1.8427 1.846 2.4725 0.84 0.6297 1.8436 1.0042 2.8909 1.0788v5.5376c-3e-4 0.2929 0.0822 0.5799 0.2378 0.8281l0.6543 1.0469zm-0.5015-8.1797c-0.9271 0-1.8334-0.2749-2.6042-0.79-0.7709-0.5151-1.3717-1.2472-1.7265-2.1037s-0.4476-1.799-0.2667-2.7083c0.1808-0.9093 0.6273-1.7445 1.2828-2.4001 0.6556-0.6556 1.4908-1.102 2.4001-1.2829 0.9093-0.18087 1.8518-0.08804 2.7083 0.26676s1.5886 0.9556 2.1037 1.7264c0.5151 0.7709 0.79 1.6772 0.79 2.6043-0.0015 1.2427-0.4958 2.4341-1.3746 3.3129-0.8787 0.8787-2.0702 1.3731-3.3129 1.3746z" fill="#fff"/>
</svg>
