<svg width="42" height="42" viewBox="0 0 42 42" fill="none" xmlns="http://www.w3.org/2000/svg">
<g clip-path="url(#clip0)">
<path d="M41.2998 30.863V33.663C41.3031 33.9588 41.1171 34.2236 40.8378 34.321L22.2318 41.083C21.4382 41.3765 20.565 41.3715 19.7748 41.069L1.14782 34.244C0.875406 34.1442 0.695773 33.8831 0.699823 33.593V30.793C0.694978 30.528 0.841713 30.2834 1.07782 30.163L9.72982 27.265H9.73682L11.8298 26.565H11.9978L30.0158 26.6H30.1768L40.8028 30.198C41.1003 30.281 41.3045 30.5542 41.2998 30.863Z" fill="#F57C00"/>
<path d="M39.1998 31.563V34.363C39.2031 34.6588 39.0171 34.9236 38.7378 35.021L21.6018 41.251C20.9875 41.3554 20.3565 41.2925 19.7748 41.069L1.14782 34.244C0.875406 34.1442 0.695773 33.8831 0.699823 33.593V30.793C0.694978 30.528 0.841713 30.2835 1.07782 30.163L9.72982 27.265H9.89782L27.9158 27.3H28.0768L38.7028 30.898C39.0003 30.981 39.2045 31.2542 39.1998 31.563Z" fill="#FF9801"/>
<path d="M30.7997 30.1C30.7997 30.961 29.4347 31.738 27.2787 32.249L27.2717 32.256C25.2116 32.7036 23.1078 32.9196 20.9997 32.9C15.5887 32.9 11.1997 31.647 11.1997 30.1L11.9977 26.565L12.6767 23.534L14.1327 17.073L15.8407 9.46401L17.4997 2.10001C17.4935 1.85675 17.5871 1.62155 17.7587 1.44901C18.1577 1.00101 19.1167 0.700012 20.9997 0.700012C23.7087 0.700012 24.4997 1.33001 24.4997 2.10001L26.1587 9.46401L27.8667 17.073L29.3227 23.534L30.0157 26.6L30.7997 30.1Z" fill="#F57C00"/>
<path d="M28.6997 30.8C28.6997 31.332 28.1817 31.829 27.2787 32.249L27.2717 32.256C25.2116 32.7036 23.1078 32.9196 20.9997 32.9C15.5887 32.9 11.1997 31.647 11.1997 30.1L11.9977 26.565L12.6767 23.534L14.1327 17.073L15.8407 9.46398L17.4997 2.09998C17.4935 1.85672 17.5871 1.62152 17.7587 1.44898C18.138 1.41317 18.5188 1.39682 18.8997 1.39998C21.6087 1.39998 22.3997 2.02998 22.3997 2.79998L24.0587 10.164L25.7667 17.773L27.2227 24.234L27.9157 27.3L28.6997 30.8Z" fill="#FF9801"/>
<path d="M30.7997 30.1C30.7997 30.821 29.8267 31.486 28.2377 31.99C25.8809 32.6378 23.4435 32.9442 20.9997 32.9C15.5887 32.9 11.1997 31.647 11.1997 30.1L11.9977 26.565L12.2777 25.305L12.6767 23.534C14.0907 24.451 17.2827 25.088 20.9997 25.088C24.7167 25.088 27.9087 24.451 29.3227 23.534L30.0157 26.6L30.7997 30.1Z" fill="#CFD8DC"/>
<path d="M27.8663 17.073C27.1716 17.3917 26.4405 17.6245 25.6893 17.766C24.1443 18.0662 22.5732 18.2116 20.9993 18.2C18.0803 18.2 15.5183 17.752 14.1323 17.073L15.4973 10.983L15.8403 9.46402C17.5003 10.0264 19.2475 10.2872 20.9993 10.234C22.7512 10.2872 24.4984 10.0264 26.1583 9.46402L27.8663 17.073Z" fill="#CFD8DC"/>
<path d="M28.6997 31.136C28.6747 31.4735 28.5065 31.7843 28.2377 31.99C25.8809 32.6378 23.4435 32.9442 20.9997 32.9C15.5887 32.9 11.1997 31.647 11.1997 30.1L11.9977 26.565L12.5997 23.8C14.2587 24.304 15.5887 25.2 18.1997 25.2C21.9167 25.2 25.8087 25.487 27.2227 24.57L27.9157 27.636L28.6997 31.136Z" fill="#F5F5F5"/>
<path d="M25.6893 17.766C24.1443 18.0662 22.5732 18.2116 20.9993 18.2C18.0803 18.2 15.5183 17.752 14.1323 17.073L16.0993 9.79999C17.0304 9.89148 17.9682 9.89148 18.8993 9.79999C21.0343 9.79999 22.9243 10.969 24.0583 10.5L25.6893 17.766Z" fill="#F5F5F5"/>
<path d="M41.2996 30.863L41.2996 33.663C41.3028 33.9588 41.1169 34.2236 40.8376 34.321L22.2316 41.083C22.0272 41.1585 21.8163 41.2147 21.6016 41.251L38.7376 35.021C39.0169 34.9236 39.2028 34.6588 39.1996 34.363V32.116L40.8376 31.521C41.1169 31.4236 41.3028 31.1588 41.2996 30.863Z" fill="#D84315"/>
<path d="M39.1993 32.116V34.363C39.2026 34.6588 39.0167 34.9236 38.7373 35.021L21.6014 41.251C20.9871 41.3553 20.356 41.2925 19.7744 41.069L1.14735 34.244C0.874933 34.1441 0.6953 33.8831 0.699351 33.593L0.699284 30.793C0.6953 31.0831 0.874933 31.3441 1.14735 31.444L19.7744 38.269C20.5645 38.5715 21.4378 38.5765 22.2314 38.283L38.5483 32.354H38.5554L39.1993 32.116Z" fill="#FF5722"/>
<path d="M39.1996 31.563L39.1995 32.116L38.5556 32.354H38.5485L22.2316 38.283C22.0272 38.3585 21.8163 38.4147 21.6016 38.451L36.4486 33.054H36.4556L38.7375 32.221C39.0169 32.1236 39.2028 31.8588 39.1996 31.563Z" fill="#F57C00"/>
<path d="M24.4995 2.10001C24.4995 2.87001 23.7085 3.50001 20.9995 3.50001C20.6075 3.50001 20.2575 3.48601 19.9495 3.46501C18.0805 3.31801 17.4995 2.75801 17.4995 2.10001C17.4995 1.44201 18.0805 0.882012 19.9495 0.735012C20.2575 0.714012 20.6075 0.700012 20.9995 0.700012C23.7085 0.700012 24.4995 1.33001 24.4995 2.10001Z" fill="#F57C00"/>
<path d="M19.9495 3.46499C21.3026 3.46499 22.3995 2.85385 22.3995 2.09999C22.3995 1.34612 21.3026 0.734985 19.9495 0.734985C18.5964 0.734985 17.4995 1.34612 17.4995 2.09999C17.4995 2.85385 18.5964 3.46499 19.9495 3.46499Z" fill="#FF9801"/>
<path d="M21.0264 39.2C20.5133 39.1989 20.0046 39.104 19.5256 38.92L0.909815 32.1013C0.348709 31.8904 -0.0158454 31.3456 0.00314982 30.7465C0.0221451 30.1473 0.420474 29.6268 0.993815 29.4518L11.6079 25.9C11.8455 25.8207 12.1073 25.8742 12.2948 26.0403C12.4822 26.2065 12.5668 26.4599 12.5167 26.7053C12.4665 26.9507 12.2893 27.1507 12.0517 27.23L1.41871 30.786L20.0156 37.6131C20.6494 37.8579 21.3508 37.8631 21.9882 37.6278L40.5998 30.863L29.9521 27.2629C29.5907 27.1354 29.399 26.741 29.522 26.378C29.645 26.0151 30.0371 25.8185 30.4015 25.9371L41.0275 29.5351C41.5977 29.7049 41.9915 30.2254 41.9998 30.8203C42.0252 31.4274 41.6498 31.9795 41.0758 32.179L22.4698 38.941C22.0078 39.1122 21.5191 39.1999 21.0264 39.2Z" fill="black"/>
<path d="M21.0261 42C20.513 41.9989 20.0044 41.904 19.5253 41.72L0.909542 34.9013C0.360083 34.7015 -0.00428129 34.1777 -0.000458487 33.593C-0.000458487 33.2064 0.312942 32.893 0.699542 32.893C1.08614 32.893 1.39954 33.2064 1.39954 33.593V33.6L20.0146 40.4117C20.6485 40.6565 21.3498 40.6617 21.9872 40.4264L40.5995 33.663C40.5995 33.2764 40.9129 32.963 41.2995 32.963C41.6861 32.963 41.9995 33.2764 41.9995 33.663C42.0032 34.2535 41.6327 34.7815 41.0762 34.979L22.4695 41.741C22.0075 41.9122 21.5188 41.9999 21.0261 42Z" fill="black"/>
<path d="M38.5556 33.054H38.5486C38.1626 33.0521 37.8511 32.7382 37.8521 32.3523C37.853 31.9664 38.1661 31.654 38.5521 31.654C38.938 31.654 39.2511 31.9664 39.2521 32.3523C39.253 32.7382 38.9415 33.0521 38.5556 33.054Z" fill="black"/>
<path d="M11.1993 30.8C11.1473 30.7999 11.0954 30.7943 11.0446 30.7832C10.8627 30.7425 10.7046 30.6309 10.6053 30.4733C10.506 30.3156 10.4736 30.1248 10.5154 29.9432L16.8154 1.94322C16.9004 1.5659 17.2753 1.32897 17.6526 1.41402C18.0299 1.49907 18.2668 1.8739 18.1818 2.25122L11.8818 30.2512C11.8109 30.5715 11.5273 30.7996 11.1993 30.8Z" fill="black"/>
<path d="M30.7999 30.8C30.4728 30.7999 30.1894 30.5731 30.1174 30.254L23.8175 2.25401C23.7624 2.00993 23.8418 1.75503 24.0257 1.58534C24.2096 1.41566 24.47 1.35695 24.7089 1.43134C24.9478 1.50574 25.1288 1.70193 25.1838 1.94601L31.4838 29.946C31.5256 30.1276 31.4933 30.3184 31.3939 30.4761C31.2946 30.6337 31.1365 30.7453 30.9546 30.786C30.9037 30.7962 30.8519 30.8008 30.7999 30.8Z" fill="black"/>
<path d="M20.9995 33.6C15.942 33.6 10.4995 32.5052 10.4995 30.1C10.499 29.9223 10.529 29.7459 10.5884 29.5785C10.6722 29.3428 10.8754 29.1697 11.1214 29.1244C11.3674 29.0791 11.6189 29.1685 11.7811 29.3589C11.9434 29.5493 11.9917 29.8118 11.9079 30.0475C11.8995 30.73 14.9956 32.2 20.9995 32.2C27.0034 32.2 30.0995 30.73 30.0995 30.1C29.9678 29.7301 30.1538 29.3224 30.5195 29.1795C30.6903 29.1131 30.8806 29.1179 31.0478 29.1929C31.2151 29.2679 31.3452 29.4068 31.4092 29.5785C31.4691 29.7458 31.4996 29.9223 31.4995 30.1C31.4995 32.5052 26.057 33.6 20.9995 33.6Z" fill="black"/>
<path d="M20.9995 25.788C17.216 25.788 13.8805 25.1496 12.2957 24.1213C11.9765 23.9089 11.8876 23.4794 12.0961 23.1577C12.3047 22.8361 12.7331 22.742 13.0573 22.9467C14.1633 23.6642 17.0473 24.388 20.9995 24.388C24.9517 24.388 27.8357 23.6642 28.9417 22.9467C29.2658 22.742 29.6942 22.8361 29.9028 23.1577C30.1113 23.4794 30.0224 23.9089 29.7032 24.1213C28.1184 25.1496 24.783 25.788 20.9995 25.788Z" fill="black"/>
<path d="M20.9996 18.9C18.0393 18.9 15.3562 18.452 13.8246 17.7016C13.4766 17.5315 13.3325 17.1115 13.5026 16.7636C13.6727 16.4157 14.0926 16.2715 14.4406 16.4416C15.7699 17.0954 18.2829 17.5 20.9996 17.5C23.7163 17.5 26.2293 17.0954 27.5586 16.4444C27.9065 16.2743 28.3264 16.4185 28.4966 16.7664C28.6667 17.1143 28.5225 17.5343 28.1746 17.7044C26.643 18.452 23.9599 18.9 20.9996 18.9Z" fill="black"/>
<path d="M20.9993 10.934C19.1557 10.9897 17.3171 10.7108 15.5729 10.1108C15.2226 9.95885 15.0587 9.55413 15.2046 9.20123C15.3505 8.84832 15.7524 8.67747 16.1077 8.81724C17.6833 9.3423 19.3393 9.58496 20.9993 9.53403C22.6592 9.58586 24.3151 9.34415 25.8909 8.82004C26.2463 8.68027 26.6481 8.85113 26.794 9.20403C26.9399 9.55693 26.7761 9.96165 26.4257 10.1136C24.6813 10.7127 22.8428 10.9906 20.9993 10.934Z" fill="black"/>
<path d="M0.699512 34.293C0.312912 34.293 -0.000488281 33.9796 -0.000488281 33.593V30.793C-0.000488281 30.4064 0.312912 30.093 0.699512 30.093C1.08611 30.093 1.39951 30.4064 1.39951 30.793V33.593C1.39951 33.9796 1.08611 34.293 0.699512 34.293Z" fill="black"/>
<path d="M41.2996 34.363C40.913 34.363 40.5996 34.0496 40.5996 33.663V30.863C40.5996 30.4764 40.913 30.163 41.2996 30.163C41.6862 30.163 41.9996 30.4764 41.9996 30.863V33.663C41.9996 34.0496 41.6862 34.363 41.2996 34.363Z" fill="black"/>
<path d="M20.9998 4.2C19.961 4.2 16.7998 4.2 16.7998 2.1C16.7998 0 19.961 0 20.9998 0C22.0386 0 25.1998 0 25.1998 2.1C25.1998 4.2 22.0386 4.2 20.9998 4.2ZM20.9998 1.4C19.0657 1.4 18.1998 1.75 18.1998 2.1C18.1998 2.45 19.0657 2.8 20.9998 2.8C22.9339 2.8 23.7998 2.45 23.7998 2.1C23.7998 1.75 22.9339 1.4 20.9998 1.4Z" fill="black"/>
</g>
<defs>
<clipPath id="clip0">
<rect width="42" height="42" fill="white"/>
</clipPath>
</defs>
</svg>
