<svg width="42" height="42" viewBox="0 0 42 42" fill="none" xmlns="http://www.w3.org/2000/svg">
<path d="M13.9789 24.5368V21.6003C13.9789 20.5803 13.152 19.7535 12.1321 19.7535H0.820312V41.0284H12.1321C13.1521 41.0284 13.9789 40.2016 13.9789 39.1817V30.0401V24.5368Z" fill="#692CB6"/>
<path d="M38.5202 25.2236L36.3857 25.2233C37.8544 25.2233 39.0451 24.0327 39.0451 22.5639C39.0451 21.0953 37.8545 19.9046 36.3857 19.9046H26.1154L27.674 15.2772C28.5227 12.7574 27.1211 10.0347 24.5773 9.26135L23.1381 8.82379L20.8766 15.0742C20.1671 17.0349 18.7643 18.668 16.9331 19.6651L13.9238 21.3038L13.9787 39.6151L15.8924 40.3656C17.264 40.9035 18.7241 41.1796 20.1974 41.1796H28.842H31.6489H34.5311C35.9998 41.1796 37.1905 39.989 37.1905 38.5203C37.1905 37.0516 35.9999 35.8609 34.5311 35.8609H36.5984C38.0671 35.8609 39.2578 34.6703 39.2578 33.2015C39.2578 31.7328 38.0672 30.5421 36.5984 30.5421H38.5202C39.9889 30.5421 41.1796 29.3515 41.1796 27.8828C41.1796 26.4142 39.989 25.2236 38.5202 25.2236Z" fill="#FAC60C"/>
<path d="M8.95541 37.8615C9.77135 37.8615 10.4328 37.2001 10.4328 36.3842C10.4328 35.5682 9.77135 34.9068 8.95541 34.9068C8.13947 34.9068 7.47803 35.5682 7.47803 36.3842C7.47803 37.2001 8.13947 37.8615 8.95541 37.8615Z" fill="white"/>
<path d="M13.979 26.8972C13.7632 26.8972 13.5516 26.9843 13.399 27.1367C13.2465 27.2901 13.1587 27.5018 13.1587 27.7167C13.1587 27.9333 13.2464 28.1441 13.399 28.2967C13.5516 28.45 13.7632 28.537 13.979 28.537C14.1947 28.537 14.4064 28.45 14.5589 28.2967C14.7115 28.1441 14.7993 27.9332 14.7993 27.7167C14.7993 27.5018 14.7115 27.2901 14.5589 27.1367C14.4064 26.9842 14.1947 26.8972 13.979 26.8972Z" fill="black"/>
<path d="M42 27.8829C42 26.2263 40.8359 24.8372 39.283 24.4884C39.6506 23.9369 39.8655 23.275 39.8655 22.5639C39.8655 20.6452 38.3045 19.0842 36.3858 19.0842H27.2573L28.4515 15.5391C28.9334 14.1084 28.8182 12.5812 28.1273 11.2389C27.4363 9.89672 26.2603 8.91563 24.8161 8.47651L23.3769 8.03904C22.9586 7.91181 22.5153 8.13444 22.3668 8.54476L20.1053 14.7951C19.4634 16.569 18.1976 18.0427 16.5409 18.9447L14.2817 20.175C13.7958 19.5141 13.0134 19.0843 12.1321 19.0843H0.820312C0.367336 19.0843 0 19.4516 0 19.9046V41.1796C0 41.6326 0.367336 41.9999 0.820312 41.9999H12.1321C13.1134 41.9999 13.9721 41.4668 14.4352 40.6753L15.5931 41.1295C17.0662 41.7071 18.6154 42 20.1975 42H34.5312C36.4499 42 38.0109 40.439 38.0109 38.5203C38.0109 37.8034 37.7929 37.1367 37.4199 36.5824C38.9434 36.2122 40.0782 34.8373 40.0782 33.2016C40.0782 32.4706 39.8511 31.7918 39.4645 31.2312C40.9256 30.8186 42 29.4743 42 27.8829ZM38.5203 29.7219H36.5985H32.8311H30.083C29.63 29.7219 29.2627 30.0892 29.2627 30.5422C29.2627 30.9952 29.63 31.3625 30.083 31.3625H32.8311H36.5985C37.6126 31.3625 38.4375 32.1875 38.4375 33.2016C38.4375 34.2156 37.6126 35.0406 36.5985 35.0406H34.5312H30.3625H30.0831C29.6301 35.0406 29.2628 35.4079 29.2628 35.8609C29.2628 36.3139 29.6301 36.6812 30.0831 36.6812H30.3625H34.5312C35.5453 36.6812 36.3703 37.5062 36.3703 38.5203C36.3703 39.5344 35.5453 40.3594 34.5312 40.3594H20.1975C18.8212 40.3594 17.4736 40.1046 16.1921 39.602L14.7993 39.0558V31.0078C14.7993 30.5548 14.4319 30.1875 13.9789 30.1875C13.526 30.1875 13.1586 30.5548 13.1586 31.0078V39.3326C13.1586 39.8987 12.6982 40.3592 12.1321 40.3592H1.64062V20.7248H12.1321C12.6981 20.7248 13.1586 21.1853 13.1586 21.7514V24.5368C13.1586 24.9897 13.526 25.3571 13.9789 25.3571C14.4319 25.3571 14.7993 24.9897 14.7993 24.5368V21.7612L17.3256 20.3855C19.3346 19.2916 20.8697 17.5045 21.648 15.3532L23.6447 9.83511L24.3388 10.0461C25.3551 10.3551 26.1825 11.0453 26.6686 11.9897C27.1548 12.9342 27.2358 14.0086 26.8967 15.0152L25.3381 19.6425C25.2538 19.8929 25.2952 20.1684 25.4492 20.3829C25.6033 20.5974 25.8513 20.7247 26.1155 20.7247H36.3858C37.3999 20.7247 38.2248 21.5497 38.2248 22.5637C38.2248 23.5778 37.3999 24.4028 36.3858 24.4028H30.083C29.63 24.4028 29.2627 24.7701 29.2627 25.2231C29.2627 25.6761 29.63 26.0434 30.083 26.0434H32.8264C32.828 26.0434 32.8296 26.0437 32.8311 26.0437H38.5203C39.5344 26.0437 40.3594 26.8687 40.3594 27.8827C40.3594 28.897 39.5344 29.7219 38.5203 29.7219Z" fill="black"/>
<path d="M8.95549 34.0865C7.68852 34.0865 6.65771 35.1172 6.65771 36.3842C6.65771 37.6511 7.68844 38.6819 8.95549 38.6819C10.2225 38.6819 11.2533 37.6512 11.2533 36.3842C11.2533 35.1173 10.2225 34.0865 8.95549 34.0865ZM8.95549 37.0413C8.59316 37.0413 8.29834 36.7465 8.29834 36.3842C8.29834 36.0218 8.59316 35.7271 8.95549 35.7271C9.31782 35.7271 9.61264 36.0218 9.61264 36.3842C9.61264 36.7465 9.31782 37.0413 8.95549 37.0413Z" fill="black"/>
<path d="M24.5122 1.64062C24.728 1.64062 24.9396 1.55285 25.0922 1.40019C25.2447 1.2477 25.3325 1.03605 25.3325 0.820312C25.3325 0.60457 25.2448 0.39293 25.0922 0.240352C24.9395 0.0877734 24.728 0 24.5122 0C24.2965 0 24.0848 0.0876914 23.9323 0.240352C23.7797 0.39293 23.6919 0.60457 23.6919 0.820312C23.6919 1.03605 23.7797 1.2477 23.9323 1.40019C24.0848 1.55285 24.2965 1.64062 24.5122 1.64062Z" fill="white"/>
<path d="M24.5122 3.06244C24.0592 3.06244 23.6919 3.42977 23.6919 3.88275V5.8789C23.6919 6.33188 24.0592 6.69921 24.5122 6.69921C24.9652 6.69921 25.3325 6.33188 25.3325 5.8789V3.88275C25.3325 3.42977 24.9653 3.06244 24.5122 3.06244Z" fill="white"/>
<path d="M29.3999 11.5883C29.3999 12.0412 29.7672 12.4086 30.2202 12.4086H35.2788C35.7317 12.4086 36.0991 12.0412 36.0991 11.5883C36.0991 11.1353 35.7317 10.7679 35.2788 10.7679H30.2202C29.7672 10.7679 29.3999 11.1352 29.3999 11.5883Z" fill="white"/>
<path d="M13.7451 12.4063H18.8037C19.2567 12.4063 19.6241 12.039 19.6241 11.586C19.6241 11.133 19.2567 10.7657 18.8037 10.7657H13.7451C13.2921 10.7657 12.9248 11.133 12.9248 11.586C12.9248 12.039 13.2921 12.4063 13.7451 12.4063Z" fill="white"/>
<path d="M19.2942 7.5285C19.4544 7.68862 19.6643 7.76877 19.8742 7.76877C20.0842 7.76877 20.2941 7.68862 20.4543 7.5285C20.7746 7.20817 20.7746 6.68875 20.4543 6.36833L18.0659 3.97999C17.7455 3.65974 17.2263 3.65974 16.9058 3.97999C16.5854 4.30033 16.5854 4.81975 16.9058 5.14016L19.2942 7.5285Z" fill="white"/>
<path d="M29.15 7.7703C29.36 7.7703 29.5698 7.69015 29.73 7.53003L32.1184 5.14169C32.4387 4.82136 32.4387 4.30193 32.1184 3.98152C31.7979 3.66127 31.2787 3.66127 30.9582 3.98152L28.5698 6.36986C28.2495 6.69019 28.2495 7.20961 28.5698 7.53003C28.73 7.69015 28.94 7.7703 29.15 7.7703Z" fill="white"/>
</svg>
