<svg width="19" height="17" viewBox="0 0 19 17" fill="none" xmlns="http://www.w3.org/2000/svg">
<rect x="14" width="3" height="17" rx="1.5" fill="#066EE7"/>
<rect x="8" width="3" height="17" rx="1.5" fill="#066EE7"/>
<rect x="2" width="3" height="17" rx="1.5" fill="#066EE7"/>
<path fill-rule="evenodd" clip-rule="evenodd" d="M3.5 6C4.88071 6 6 4.88071 6 3.5C6 2.11929 4.88071 1 3.5 1C2.11929 1 1 2.11929 1 3.5C1 4.88071 2.11929 6 3.5 6Z" fill="white" stroke="#066EE7" stroke-width="0.7"/>
<path fill-rule="evenodd" clip-rule="evenodd" d="M9.5 14C10.8807 14 12 12.8807 12 11.5C12 10.1193 10.8807 9 9.5 9C8.11929 9 7 10.1193 7 11.5C7 12.8807 8.11929 14 9.5 14Z" fill="white" stroke="#066EE7" stroke-width="0.7"/>
<path fill-rule="evenodd" clip-rule="evenodd" d="M15.5 9C16.8807 9 18 7.88071 18 6.5C18 5.11929 16.8807 4 15.5 4C14.1193 4 13 5.11929 13 6.5C13 7.88071 14.1193 9 15.5 9Z" fill="white" stroke="#066EE7" stroke-width="0.7"/>
</svg>