<svg width="14" height="14" viewBox="0 0 14 14" fill="none" xmlns="http://www.w3.org/2000/svg">
  <path d="M12.6124 0.736633L13.2629 1.38753L6.36748 8.28293L5.71704 7.63249L12.6124 0.736633Z" fill="#2A2A2A"/>
  <path d="M13.4 5.19998H12.48V1.51998H8.80005V0.599976H13.4V5.19998Z" fill="#2A2A2A"/>
  <path d="M11.1 13.48H1.90002C1.11802 13.48 0.52002 12.882 0.52002 12.1V2.90002C0.52002 2.11802 1.11802 1.52002 1.90002 1.52002H6.96002V2.44002H1.90002C1.62402 2.44002 1.44002 2.62402 1.44002 2.90002V12.1C1.44002 12.376 1.62402 12.56 1.90002 12.56H11.1C11.376 12.56 11.56 12.376 11.56 12.1V7.04002H12.48V12.1C12.48 12.882 11.882 13.48 11.1 13.48Z" fill="#2A2A2A"/>
</svg>
