<svg width="17" height="17" viewBox="0 0 17 17" fill="none" xmlns="http://www.w3.org/2000/svg">
<path fill-rule="evenodd" clip-rule="evenodd" d="M5.06661 0.915474C5.19945 0.782636 5.37962 0.708008 5.56748 0.708008H11.4325C11.6203 0.708008 11.8005 0.782636 11.9333 0.915474L16.0842 5.06631C16.217 5.19915 16.2916 5.37931 16.2916 5.56717V11.4322C16.2916 11.62 16.217 11.8002 16.0842 11.933L11.9333 16.0839C11.8005 16.2167 11.6203 16.2913 11.4325 16.2913H5.56748C5.37962 16.2913 5.19945 16.2167 5.06661 16.0839L0.915779 11.933C0.782941 11.8002 0.708313 11.62 0.708313 11.4322V5.56717C0.708313 5.37931 0.782941 5.19915 0.915779 5.06631L5.06661 0.915474ZM5.86088 2.12467L2.12498 5.86058V11.1388L5.86088 14.8747H11.1391L14.875 11.1388V5.86058L11.1391 2.12467H5.86088ZM7.79165 11.333C7.79165 10.9418 8.10878 10.6247 8.49998 10.6247H8.50707C8.89827 10.6247 9.2154 10.9418 9.2154 11.333C9.2154 11.7242 8.89827 12.0413 8.50707 12.0413H8.49998C8.10878 12.0413 7.79165 11.7242 7.79165 11.333ZM9.20832 5.66634C9.20832 5.27514 8.89119 4.95801 8.49998 4.95801C8.10878 4.95801 7.79165 5.27514 7.79165 5.66634V8.49967C7.79165 8.89088 8.10878 9.20801 8.49998 9.20801C8.89119 9.20801 9.20832 8.89088 9.20832 8.49967V5.66634Z" fill="#FA5C00"/>
</svg>
