<?xml version="1.0" encoding="UTF-8"?>
<svg width="32px" height="32px" viewBox="0 0 32 32" version="1.1" xmlns="http://www.w3.org/2000/svg" xmlns:xlink="http://www.w3.org/1999/xlink">
    <title>job</title>
    <defs></defs>
    <g id="Page-1" stroke="none" stroke-width="1" fill="none" fill-rule="evenodd">
        <g id="job" transform="translate(1.000000, 1.000000)" fill-rule="nonzero">
            <circle id="Oval" fill="#D07C75" cx="15" cy="15" r="14.7115385"></circle>
            <path d="M12.8365385,15.7211538 L12.8365385,17.8846154 L17.1634615,17.8846154 L17.1634615,15.7211538 L22.2115385,15.7211538 L22.2115385,20.7692308 C22.2115385,20.9604808 22.1355577,21.1439423 22.0003269,21.2791731 C21.8650962,21.4144038 21.6816346,21.4903846 21.4903846,21.4903846 L8.50961538,21.4903846 C8.31836538,21.4903846 8.13490385,21.4144038 7.99967308,21.2791731 C7.86444231,21.1439423 7.78846154,20.9604808 7.78846154,20.7692308 L7.78846154,15.7211538 L12.8365385,15.7211538 Z M14.2788462,14.2788462 L15.7211538,14.2788462 L15.7211538,16.4423077 L14.2788462,16.4423077 L14.2788462,14.2788462 Z M11.3942308,9.95192308 L11.3942308,7.78846154 C11.3942308,7.59721154 11.4702115,7.41375 11.6054423,7.27851923 C11.7406731,7.14328846 11.9241346,7.06730769 12.1153846,7.06730769 L17.8846154,7.06730769 C18.0758654,7.06730769 18.2593269,7.14328846 18.3945577,7.27851923 C18.5297885,7.41375 18.6057692,7.59721154 18.6057692,7.78846154 L18.6057692,9.95192308 L21.4903846,9.95192308 C21.6816346,9.95192308 21.8650962,10.0279038 22.0003269,10.1631346 C22.1355577,10.2983654 22.2115385,10.4818269 22.2115385,10.6730769 L22.2115385,14.2788462 L17.1634615,14.2788462 L17.1634615,12.8365385 L12.8365385,12.8365385 L12.8365385,14.2788462 L7.78846154,14.2788462 L7.78846154,10.6730769 C7.78846154,10.4818269 7.86444231,10.2983654 7.99967308,10.1631346 C8.13490385,10.0279038 8.31836538,9.95192308 8.50961538,9.95192308 L11.3942308,9.95192308 Z M12.8365385,8.50961538 L12.8365385,9.95192308 L17.1634615,9.95192308 L17.1634615,8.50961538 L12.8365385,8.50961538 Z" id="Shape" fill="#F8F8F8"></path>
        </g>
    </g>
</svg>
