<svg width="52" height="53" viewBox="0 0 52 53" fill="none" xmlns="http://www.w3.org/2000/svg">
<g filter="url(#filter0_d_9823_10022)">
<rect x="6" y="4.33398" width="40" height="40" rx="20" fill="#417DC4"/>
<path fill-rule="evenodd" clip-rule="evenodd" d="M28.6668 17.0005C29.035 17.0005 29.3335 17.299 29.3335 17.6672V19.6672H32.0002C32.3684 19.6672 32.6668 19.9656 32.6668 20.3338V29.6672C32.6668 30.0353 32.3684 30.3338 32.0002 30.3338H20.0002C19.632 30.3338 19.3335 30.0353 19.3335 29.6672V20.3338C19.3335 19.9656 19.632 19.6672 20.0002 19.6672H22.6668V17.6672C22.6668 17.299 22.9653 17.0005 23.3335 17.0005H28.6668ZM31.3335 26.3338H20.6668V29.0005H31.3335V26.3338ZM26.6668 23.6672H25.3335V25.0005H26.6668V23.6672ZM28.0002 18.3338H24.0002V19.6672H28.0002V18.3338Z" fill="white"/>
</g>
<defs>
<filter id="filter0_d_9823_10022" x="0" y="0.333984" width="52" height="52" filterUnits="userSpaceOnUse" color-interpolation-filters="sRGB">
<feFlood flood-opacity="0" result="BackgroundImageFix"/>
<feColorMatrix in="SourceAlpha" type="matrix" values="0 0 0 0 0 0 0 0 0 0 0 0 0 0 0 0 0 0 127 0" result="hardAlpha"/>
<feOffset dy="2"/>
<feGaussianBlur stdDeviation="3"/>
<feColorMatrix type="matrix" values="0 0 0 0 0 0 0 0 0 0 0 0 0 0 0.0705882 0 0 0 0.16 0"/>
<feBlend mode="normal" in2="BackgroundImageFix" result="effect1_dropShadow_9823_10022"/>
<feBlend mode="normal" in="SourceGraphic" in2="effect1_dropShadow_9823_10022" result="shape"/>
</filter>
</defs>
</svg>
