<svg width="15" height="17" viewBox="0 0 15 17" fill="none" xmlns="http://www.w3.org/2000/svg">
<g clip-path="url(#clip0)">
<path d="M14.3956 5.19257C13.9212 4.62712 13.1492 4.62715 12.6746 5.1927C12.5286 5.36682 11.5967 6.47841 11.4543 6.64824V2.81744C11.4543 2.43008 11.3277 2.06592 11.0979 1.79202L9.95069 0.424746C9.72087 0.15082 9.41528 0 9.09025 0H2.12528C1.45432 0 0.908447 0.650558 0.908447 1.4502V15.0498C0.908447 15.8494 1.45432 16.5 2.12528 16.5H10.2375C10.9084 16.5 11.4543 15.8494 11.4543 15.0498V10.7518L14.3956 7.24347C14.8711 6.67673 14.8713 5.75937 14.3956 5.19257ZM9.02068 0.966797C9.09731 0.966797 9.24498 0.950974 9.37707 1.10837L10.5243 2.47564C10.653 2.62908 10.6431 2.7972 10.6431 2.90039H9.02068V0.966797ZM10.6431 15.0498C10.6431 15.3164 10.4612 15.5332 10.2375 15.5332H2.12528C1.90162 15.5332 1.71967 15.3164 1.71967 15.0498V1.4502C1.71967 1.18365 1.90162 0.966797 2.12528 0.966797H8.20943V3.38379C8.20943 3.65075 8.39104 3.86719 8.61504 3.86719H10.6431V7.61588C10.6431 7.61588 9.44643 9.04326 9.44638 9.04329L8.87304 9.72662C8.82853 9.77967 8.79494 9.84438 8.77504 9.91557L8.2014 11.9665C8.15281 12.1402 8.19075 12.3317 8.29939 12.4611C8.40818 12.5908 8.56894 12.6358 8.71447 12.5779L10.4353 11.8943C10.4951 11.8706 10.5494 11.8306 10.5939 11.7775L10.6431 11.7189V15.0498ZM9.73344 10.0684L10.3071 10.7521L10.0879 11.0132L9.22754 11.355L9.51433 10.3295L9.73344 10.0684ZM10.8806 10.0683L10.3069 9.38467C10.6124 9.02034 11.969 7.40218 12.2567 7.059L12.8303 7.74262L10.8806 10.0683ZM13.8219 6.55997L13.4037 7.05871L12.8301 6.37509L13.2484 5.87619C13.4066 5.6877 13.6639 5.68773 13.822 5.87619C13.9801 6.06472 13.981 6.37032 13.8219 6.55997Z" fill="#54108E"/>
<path d="M8.61516 4.83398H2.93662C2.71261 4.83398 2.53101 5.05042 2.53101 5.31738C2.53101 5.58435 2.71261 5.80078 2.93662 5.80078H8.61516C8.83916 5.80078 9.02077 5.58435 9.02077 5.31738C9.02077 5.05042 8.83916 4.83398 8.61516 4.83398Z" fill="#54108E"/>
<path d="M6.99272 6.76758H2.93662C2.71261 6.76758 2.53101 6.98401 2.53101 7.25098C2.53101 7.51794 2.71261 7.73438 2.93662 7.73438H6.99272C7.21672 7.73438 7.39833 7.51794 7.39833 7.25098C7.39833 6.98401 7.21672 6.76758 6.99272 6.76758Z" fill="#54108E"/>
<path d="M6.99272 8.70117H2.93662C2.71261 8.70117 2.53101 8.91761 2.53101 9.18457C2.53101 9.45154 2.71261 9.66797 2.93662 9.66797H6.99272C7.21672 9.66797 7.39833 9.45154 7.39833 9.18457C7.39833 8.91761 7.21672 8.70117 6.99272 8.70117Z" fill="#54108E"/>
<path d="M6.99272 10.6348H2.93662C2.71261 10.6348 2.53101 10.8512 2.53101 11.1182C2.53101 11.3851 2.71261 11.6016 2.93662 11.6016H6.99272C7.21672 11.6016 7.39833 11.3851 7.39833 11.1182C7.39833 10.8512 7.21672 10.6348 6.99272 10.6348Z" fill="#54108E"/>
<path d="M8.61503 13.5996H6.18137C5.95736 13.5996 5.77576 13.816 5.77576 14.083C5.77576 14.35 5.95736 14.5664 6.18137 14.5664H8.61503C8.83903 14.5664 9.02064 14.35 9.02064 14.083C9.02064 13.816 8.83903 13.5996 8.61503 13.5996Z" fill="#54108E"/>
</g>
<defs>
<clipPath id="clip0">
<rect width="13.8448" height="16.5" fill="white" transform="translate(0.907959)"/>
</clipPath>
</defs>
</svg>
