<svg width="14" height="18" viewBox="0 0 14 18" fill="none" xmlns="http://www.w3.org/2000/svg">
<path d="M6.9997 0C3.175 0 0.0634766 3.11194 0.0634766 6.93705C0.0634766 9.67027 1.20777 12.435 3.37265 14.9324C4.9896 16.7978 6.59204 17.8546 6.65953 17.8987C6.76283 17.9663 6.88131 18 6.99978 18C7.11817 18 7.23665 17.9663 7.34003 17.8987C7.40744 17.8546 9.01013 16.7978 10.6271 14.9325C12.7921 12.435 13.9365 9.67027 13.9365 6.93705C13.9364 3.11194 10.8246 0 6.9997 0ZM6.9997 16.6147C5.724 15.6641 1.30709 12.0055 1.30709 6.93705C1.30709 3.79767 3.86073 1.24362 6.9997 1.24362C10.1389 1.24362 12.6928 3.79767 12.6928 6.93705C12.6928 12.0055 8.27548 15.6641 6.9997 16.6147Z" fill="#FF8D7E"/>
<path d="M7.0001 4.18261C5.48206 4.18261 4.24707 5.41769 4.24707 6.93589C4.24707 8.45368 5.48206 9.68851 7.0001 9.68851C8.51814 9.68851 9.75305 8.45368 9.75305 6.93589C9.75305 5.41777 8.51806 4.18261 7.0001 4.18261ZM7.0001 8.44489C6.16779 8.44489 5.49069 7.76795 5.49069 6.93589C5.49069 6.10341 6.16779 5.42622 7.0001 5.42622C7.83233 5.42622 8.50944 6.10341 8.50944 6.93589C8.50944 7.76795 7.83233 8.44489 7.0001 8.44489Z" fill="#FF8D7E"/>
</svg>
