<svg width="26" height="26" viewBox="0 0 26 26" fill="none" xmlns="http://www.w3.org/2000/svg">
<path d="M19.2754 12.6349C19.5558 12.6349 19.7832 12.4075 19.7832 12.1271C19.7832 11.8466 19.5558 11.6193 19.2754 11.6193C18.9949 11.6193 18.7676 11.8466 18.7676 12.1271C18.7676 12.4075 18.9949 12.6349 19.2754 12.6349Z" fill="black"/>
<path d="M16.2869 0.729879C15.3024 0.246391 14.192 0 13.0964 0C9.72979 0 6.73243 2.24169 5.46096 5.30745C5.0506 6.29703 4.83102 7.3677 4.82422 8.43934C4.82828 9.09848 5.04105 9.8607 5.51383 10.8905C6.32643 12.6408 7.44565 14.2154 8.43101 15.8676C8.60397 16.1576 8.86879 16.5191 8.9375 16.8695V23.4609C8.9375 23.5403 8.95812 23.6165 8.99113 23.688L10.0068 25.7193C10.0928 25.8913 10.2686 26 10.4609 26H15.5391C15.7314 26 15.9072 25.8913 15.9932 25.7193C15.9932 25.7193 17.008 23.6897 17.0089 23.688C17.0193 23.6671 17.0625 23.6133 17.0625 23.4609C17.0625 23.4609 17.0625 16.8848 17.0625 16.8695C17.0626 16.7678 17.139 16.657 17.1823 16.5669C17.3941 16.1266 18.4686 14.429 18.5159 14.3538C18.6609 14.1231 18.5929 13.8016 18.3574 13.6536C18.1242 13.5069 17.8034 13.5794 17.6571 13.8115C17.5901 13.9181 16.8132 15.1455 16.5714 15.5624C16.4344 15.7988 16.3323 15.9893 16.2538 16.1542L15.1209 15.6161L16.4404 10.5578C16.4782 10.5606 16.5162 10.5625 16.5547 10.5625C17.3947 10.5625 18.0781 9.87909 18.0781 9.03906C18.0781 8.19904 17.3947 7.51562 16.5547 7.51562C15.9262 7.51562 15.3856 7.89816 15.153 8.44264L14.3747 7.66436C14.1763 7.46606 13.8549 7.46606 13.6565 7.66436L13 8.32091L12.3434 7.66436C12.1451 7.46606 11.8237 7.46606 11.6252 7.66436L10.847 8.44264C10.6144 7.89816 10.0738 7.51562 9.44531 7.51562C8.60529 7.51562 7.92188 8.19904 7.92188 9.03906C7.92188 9.87909 8.60529 10.5625 9.44531 10.5625C9.4838 10.5625 9.52179 10.5606 9.55957 10.5578L10.8813 15.6244L9.76112 16.1845C9.7042 16.0624 9.63264 15.924 9.53875 15.7539C8.47656 13.8299 7.1015 12.0778 6.24914 10.04C5.98305 9.40321 5.83736 8.83294 5.83984 8.44446C5.85 6.53915 6.63406 4.63689 7.99043 3.23583C9.37676 1.80431 11.1902 1.01568 13.0965 1.01568H13.0985C14.9327 1.01568 16.6933 1.81497 18.0563 3.26579C19.3944 4.69016 20.1612 6.5909 20.1602 8.48047C20.1622 8.83132 20.0414 9.33304 19.819 9.89259C19.716 10.1518 19.848 10.4499 20.1058 10.5513C20.3555 10.6496 20.66 10.5293 20.7644 10.2649C21.0432 9.55094 21.1737 8.98422 21.1758 8.48047C21.1889 5.23956 19.1789 2.15023 16.2869 0.729879ZM15.2252 24.9844H10.7748L10.267 23.9688H15.733L15.2252 24.9844ZM16.0469 22.9531H12.377L16.0469 21.6425V22.9531ZM16.5547 8.53125C16.8347 8.53125 17.0625 8.75906 17.0625 9.03906C17.0625 9.31907 16.8347 9.54688 16.5547 9.54688C16.2747 9.54688 16.0469 9.31907 16.0469 9.03906C16.0469 8.75906 16.2747 8.53125 16.5547 8.53125ZM9.44531 9.54688C9.1653 9.54688 8.9375 9.31907 8.9375 9.03906C8.9375 8.75906 9.1653 8.53125 9.44531 8.53125C9.72532 8.53125 9.95312 8.75906 9.95312 9.03906C9.95312 9.31907 9.72532 9.54688 9.44531 9.54688ZM10.4995 10.1373C10.6691 9.9744 10.8012 9.7729 10.8814 9.54688H10.9688C11.1034 9.54688 11.2326 9.49335 11.3278 9.39814L11.9844 8.74159L12.6409 9.39814C12.8393 9.59644 13.1607 9.59644 13.3591 9.39814L14.0156 8.74159L14.6722 9.39814C14.7674 9.49335 14.8966 9.54688 15.0312 9.54688H15.1186C15.1988 9.7729 15.3309 9.9744 15.5005 10.1373L14.1311 15.3867H11.8688L10.4995 10.1373ZM9.95312 17.224L11.5964 16.4023H14.409L16.0469 17.1804V18.3828H9.95312V17.224ZM9.95312 19.3984H13.623L9.95312 20.7091V19.3984ZM9.95312 21.7875L16.0469 19.6112V20.564L9.95312 22.7404V21.7875Z" fill="black"/>
<path d="M2.28057 5.06852L3.7121 5.58958C3.76943 5.61045 3.82803 5.62036 3.88572 5.62036C4.09316 5.62036 4.2879 5.49229 4.36291 5.28606C4.45889 5.02251 4.32299 4.73113 4.05939 4.6352L2.62787 4.11413C2.36431 4.01811 2.07293 4.1541 1.97705 4.41765C1.88113 4.68116 2.01702 4.97254 2.28057 5.06852Z" fill="black"/>
<path d="M23.7196 11.7908L22.288 11.2698C22.0245 11.1738 21.7331 11.3097 21.6372 11.5733C21.5413 11.8369 21.6771 12.1282 21.9408 12.2242L23.3723 12.7452C23.4296 12.7661 23.4882 12.776 23.5459 12.776C23.7533 12.776 23.9481 12.6479 24.0231 12.4417C24.119 12.1782 23.9831 11.8868 23.7196 11.7908Z" fill="black"/>
<path d="M3.80859 8.42969C3.80859 8.14922 3.5812 7.92188 3.30078 7.92188H1.77734C1.49693 7.92188 1.26953 8.14922 1.26953 8.42969C1.26953 8.71015 1.49693 8.9375 1.77734 8.9375H3.30078C3.5812 8.9375 3.80859 8.71015 3.80859 8.42969Z" fill="black"/>
<path d="M24.2227 7.92188H22.6992C22.4188 7.92188 22.1914 8.14922 22.1914 8.42969C22.1914 8.71015 22.4188 8.9375 22.6992 8.9375H24.2227C24.5031 8.9375 24.7305 8.71015 24.7305 8.42969C24.7305 8.14922 24.5031 7.92188 24.2227 7.92188Z" fill="black"/>
<path d="M4.36291 11.5733C4.26698 11.3097 3.97555 11.174 3.7121 11.2698L2.28057 11.7908C2.01702 11.8868 1.88113 12.1782 1.97705 12.4417C2.05211 12.6479 2.24685 12.776 2.45424 12.776C2.51193 12.776 2.57053 12.7661 2.62787 12.7452L4.05939 12.2242C4.32299 12.1282 4.45889 11.8369 4.36291 11.5733Z" fill="black"/>
<path d="M21.6372 5.28607C21.7123 5.49229 21.907 5.62036 22.1144 5.62036C22.1721 5.62036 22.2307 5.61046 22.288 5.58959L23.7196 5.06852C23.9831 4.9726 24.119 4.68121 24.0231 4.41766C23.9272 4.1541 23.6357 4.01821 23.3723 4.11414L21.9408 4.6352C21.6772 4.73113 21.5413 5.02251 21.6372 5.28607Z" fill="black"/>
<path d="M5.24343 14.2752L4.07643 15.2545C3.86162 15.4348 3.83354 15.755 4.01382 15.9699C4.18459 16.1734 4.51447 16.2127 4.72927 16.0325L5.89628 15.0533C6.11108 14.873 6.13916 14.5527 5.95884 14.3378C5.77862 14.1229 5.45819 14.095 5.24343 14.2752Z" fill="black"/>
<path d="M20.4301 2.69597C20.5467 2.69724 20.664 2.66154 20.7561 2.5842L21.9231 1.60493C22.138 1.42466 22.166 1.10433 21.9857 0.889527C21.8055 0.674671 21.4852 0.646691 21.2703 0.826913L20.1033 1.80618C19.8885 1.98645 19.8604 2.30668 20.0406 2.52148C20.1342 2.6329 20.2816 2.69434 20.4301 2.69597Z" fill="black"/>
<path d="M4.07642 1.6049C4.07642 1.6049 5.2418 2.5828 5.24342 2.58417C5.44817 2.75596 5.77688 2.73849 5.95883 2.52156C6.13915 2.30675 6.11107 1.98642 5.89627 1.80615L4.72926 0.826884C4.51451 0.646662 4.19408 0.674591 4.01386 0.889498C3.83353 1.10435 3.86161 1.42463 4.07642 1.6049Z" fill="black"/>
<path d="M21.9231 15.2545L20.7561 14.2752C20.5413 14.095 20.2209 14.1229 20.0407 14.3378C19.8604 14.5527 19.8885 14.873 20.1033 15.0533L21.2703 16.0325C21.4831 16.2111 21.8072 16.1827 21.9857 15.9699C22.166 15.7551 22.1379 15.4348 21.9231 15.2545Z" fill="black"/>
</svg>