<svg width="20" height="20" viewBox="0 0 20 20" fill="none" xmlns="http://www.w3.org/2000/svg">
<path d="M15.8337 13.2413L14.5375 11.9433L15.8337 10.6472C16.2623 10.2222 16.6028 9.71684 16.8356 9.15997C17.0685 8.60309 17.189 8.00572 17.1903 7.40214C17.1916 6.79856 17.0737 6.20066 16.8433 5.64277C16.613 5.08489 16.2747 4.57799 15.8479 4.1512C15.4211 3.7244 14.9142 3.38611 14.3563 3.15574C13.7984 2.92537 13.2005 2.80746 12.5969 2.80878C11.9934 2.8101 11.396 2.93063 10.8391 3.16344C10.2822 3.39625 9.77683 3.73676 9.35191 4.16542L8.05574 5.4625L6.75866 4.16634L8.05666 2.87017C9.26008 1.66675 10.8923 0.990677 12.5942 0.990677C14.2961 0.990677 15.9282 1.66675 17.1317 2.87017C18.3351 4.07359 19.0112 5.70578 19.0112 7.40767C19.0112 9.10956 18.3351 10.7418 17.1317 11.9452L15.8346 13.2413H15.8337ZM13.2413 15.8337L11.9442 17.1298C10.7408 18.3333 9.10863 19.0093 7.40674 19.0093C5.70485 19.0093 4.07266 18.3333 2.86924 17.1298C1.66582 15.9264 0.989746 14.2942 0.989746 12.5923C0.989746 10.8904 1.66582 9.25826 2.86924 8.05484L4.16632 6.75867L5.46249 8.05667L4.16632 9.35284C3.73766 9.77776 3.39715 10.2832 3.16434 10.84C2.93153 11.3969 2.811 11.9943 2.80968 12.5979C2.80836 13.2014 2.92627 13.7993 3.15664 14.3572C3.38701 14.9151 3.7253 15.422 4.1521 15.8488C4.5789 16.2756 5.08579 16.6139 5.64368 16.8443C6.20157 17.0746 6.79946 17.1925 7.40304 17.1912C8.00662 17.1899 8.604 17.0694 9.16087 16.8366C9.71774 16.6038 10.2232 16.2632 10.6481 15.8346L11.9442 14.5384L13.2413 15.8346V15.8337ZM12.5923 6.11059L13.8894 7.40767L7.40766 13.8885L6.11057 12.5923L12.5923 6.1115V6.11059Z" fill="#2A2A2A"/>
</svg>
