<svg width="25" height="25" viewBox="0 0 25 25" fill="none" xmlns="http://www.w3.org/2000/svg">
<path d="M20.0482 22.7674C20.0509 21.728 16.6735 20.8766 12.5045 20.8658C8.33553 20.8549 4.9537 21.6887 4.951 22.7281C4.9483 23.7675 8.32574 24.6189 12.4947 24.6297C16.6637 24.6406 20.0455 23.8068 20.0482 22.7674Z" fill="#D0CFD1"/>
<path d="M12.505 20.8667C12.2869 20.8661 12.0711 20.868 11.8577 20.872C15.8004 20.9448 18.9189 21.7699 18.9162 22.7686C18.9135 23.7536 15.876 24.5537 12.01 24.6254C12.1704 24.6283 12.332 24.6302 12.495 24.6307C16.664 24.6416 20.0458 23.808 20.0486 22.7686C20.0514 21.7292 16.674 20.8777 12.505 20.8667Z" fill="#646464"/>
<path d="M20.8233 8.69253C20.8233 17.5385 12.5 22.4871 12.5 22.4871C12.5 22.4871 4.1767 16.8602 4.1767 8.69253C4.1767 4.09571 7.90315 0.369259 12.5 0.369259C17.0969 0.369259 20.8233 4.09571 20.8233 8.69253Z" fill="#006AEB"/>
<path d="M12.5 0.369259C12.3097 0.369259 12.121 0.37625 11.9338 0.388805C16.2665 0.679928 19.5924 4.28605 19.5924 8.69253C19.5924 16.0908 13.869 20.7629 11.9635 22.094C12.3005 22.3522 12.5 22.4871 12.5 22.4871C12.5 22.4871 20.8233 17.5385 20.8233 8.69253C20.8233 4.09571 17.0969 0.369259 12.5 0.369259Z" fill="#2970D6"/>
<path d="M12.5 11.7793C14.2899 11.7793 15.7409 10.3284 15.7409 8.53848C15.7409 6.7486 14.2899 5.29762 12.5 5.29762C10.7101 5.29762 9.25916 6.7486 9.25916 8.53848C9.25916 10.3284 10.7101 11.7793 12.5 11.7793Z" fill="#FFF4F1"/>
<path d="M12.5 5.29767C12.3068 5.29767 12.1178 5.31554 11.9338 5.34799C13.4536 5.61592 14.6085 6.9419 14.6085 8.53853C14.6085 10.1351 13.4536 11.4611 11.9338 11.7291C12.1178 11.7615 12.3068 11.7794 12.5 11.7794C14.2899 11.7794 15.7408 10.3284 15.7408 8.53853C15.7408 6.74861 14.2899 5.29767 12.5 5.29767Z" fill="#ECEDEF"/>
<path d="M15.4634 20.6544C15.9353 20.2185 16.4357 19.7175 16.9378 19.1523C18.1703 17.7645 19.1531 16.2777 19.8587 14.7333C20.7438 12.796 21.1926 10.7636 21.1926 8.69253C21.1925 3.89946 17.2931 0 12.5 0C7.70695 0 3.80743 3.89946 3.80743 8.69253C3.80743 10.6296 4.26586 12.5862 5.16985 14.5081C5.25665 14.6926 5.47663 14.7718 5.66116 14.685C5.84569 14.5982 5.92491 14.3783 5.83811 14.1937C4.98064 12.3709 4.5459 10.5201 4.5459 8.69253C4.54595 4.30668 8.11411 0.738516 12.5 0.738516C16.8859 0.738516 20.4541 4.30668 20.4541 8.69253C20.4541 10.6525 20.0297 12.5774 19.1927 14.4138C18.5202 15.8894 17.5809 17.3128 16.401 18.6445C14.7568 20.5001 13.0923 21.663 12.5196 22.0376C11.7165 21.4123 8.65486 18.9097 6.57318 15.5681C6.4654 15.395 6.2376 15.3421 6.06454 15.4499C5.89143 15.5577 5.8385 15.7854 5.94637 15.9585C7.11677 17.8374 8.559 19.4378 9.77218 20.6163C8.47116 20.7377 7.30574 20.9488 6.43517 21.2247C5.20727 21.6138 4.58381 22.1194 4.58219 22.7277C4.58027 23.4364 5.41681 24.0069 7.06852 24.4234C8.52168 24.7897 10.4485 24.9945 12.494 24.9999C12.5217 24.9999 12.5492 24.9999 12.5769 24.9999C14.5914 24.9999 16.4872 24.8058 17.9225 24.452C19.5765 24.0443 20.416 23.4782 20.4179 22.7695C20.4215 21.3891 17.2418 20.8485 15.4634 20.6544ZM17.7457 23.735C16.3475 24.0797 14.4843 24.2669 12.496 24.2614C10.5089 24.2562 8.6455 24.0594 7.24912 23.7073C5.66608 23.3083 5.32036 22.8664 5.32075 22.7298C5.32174 22.3605 6.88769 21.5399 10.4985 21.2989C11.4946 22.2043 12.215 22.7361 12.2821 22.7852C12.3467 22.8325 12.4233 22.8564 12.5001 22.8564C12.5652 22.8564 12.6305 22.8392 12.6888 22.8046C12.7433 22.7722 13.5749 22.2727 14.7036 21.3242C18.4996 21.6253 19.6802 22.4859 19.6795 22.7677C19.6789 22.9042 19.3309 23.3442 17.7457 23.735Z" fill="black"/>
<path d="M12.5 5.66693C13.8314 5.66693 14.9793 6.56935 15.2914 7.86145C15.3393 8.05967 15.5387 8.18158 15.737 8.13367C15.9352 8.08577 16.0571 7.88627 16.0092 7.688C15.6167 6.06317 14.1737 4.92836 12.5 4.92836C10.5094 4.92836 8.88989 6.54783 8.88989 8.53848C8.88989 10.5291 10.5094 12.1485 12.5 12.1485C14.1414 12.1485 15.5776 11.0408 15.9926 9.45478C16.0443 9.25749 15.9262 9.05568 15.7289 9.00409C15.5315 8.95239 15.3298 9.0705 15.2782 9.26783C14.9481 10.5291 13.8057 11.41 12.5 11.41C10.9166 11.41 9.62841 10.1219 9.62841 8.53848C9.62841 6.9551 10.9166 5.66693 12.5 5.66693Z" fill="black"/>
</svg>
