<svg width="17" height="17" viewBox="0 0 17 17" fill="none" xmlns="http://www.w3.org/2000/svg">
<path fill-rule="evenodd" clip-rule="evenodd" d="M5.24617 11.385H11.9128V14.7183H5.24617V11.385ZM13.2462 13.385V10.0517H3.91284V13.385H2.57951C2.21132 13.385 1.91284 13.0865 1.91284 12.7183V6.05168C1.91284 5.68349 2.21132 5.38501 2.57951 5.38501H14.5795C14.9477 5.38501 15.2462 5.68349 15.2462 6.05168V12.7183C15.2462 13.0865 14.9477 13.385 14.5795 13.385H13.2462ZM3.91284 6.71834V8.05168H5.91284V6.71834H3.91284ZM5.24618 1.38501H11.9128C12.281 1.38501 12.5795 1.68349 12.5795 2.05168V4.05168H4.57951V2.05168C4.57951 1.68349 4.87799 1.38501 5.24618 1.38501Z" fill="#000091"/>
</svg>
