<svg width="21" height="21" viewBox="0 0 21 21" fill="none" xmlns="http://www.w3.org/2000/svg">
  <circle cx="10.5" cy="10.5" r="10" stroke="#22967E"/>
  <path d="M9.04545 12.5114H11.1989V12.3182C11.2102 11.2102 11.608 10.6932 12.5057 10.1534C13.5682 9.52273 14.2614 8.6875 14.2614 7.35227C14.2614 5.36364 12.6591 4.20455 10.4034 4.20455C8.34091 4.20455 6.65909 5.28409 6.60795 7.55682H8.92614C8.96023 6.63068 9.64773 6.13636 10.392 6.13636C11.1591 6.13636 11.7784 6.64773 11.7784 7.4375C11.7784 8.18182 11.2386 8.67614 10.5398 9.11932C9.58523 9.72159 9.05114 10.3295 9.04545 12.3182V12.5114ZM10.1648 16.1477C10.892 16.1477 11.5227 15.5398 11.5284 14.7841C11.5227 14.0398 10.892 13.4318 10.1648 13.4318C9.41477 13.4318 8.79545 14.0398 8.80114 14.7841C8.79545 15.5398 9.41477 16.1477 10.1648 16.1477Z" fill="#22967E"/>
</svg>
