<svg width="21" height="21" viewBox="0 0 21 21" fill="none" xmlns="http://www.w3.org/2000/svg">
  <circle cx="10.5" cy="10.5" r="10" stroke="#D07C75"/>
  <path d="M9.04545 12.5114V12.3182C9.04924 11.6553 9.10795 11.1269 9.22159 10.733C9.33902 10.339 9.50758 10.0227 9.72727 9.78409C9.95076 9.54167 10.2216 9.32008 10.5398 9.11932C10.8883 8.89583 11.1818 8.65341 11.4205 8.39205C11.6591 8.12689 11.7784 7.80871 11.7784 7.4375C11.7784 7.04356 11.642 6.72917 11.3693 6.49432C11.1004 6.25568 10.7746 6.13636 10.392 6.13636C10.0208 6.13636 9.6875 6.25758 9.39205 6.5C9.10038 6.74242 8.94508 7.0947 8.92614 7.55682H6.60795C6.62689 6.79924 6.80871 6.17235 7.15341 5.67614C7.49811 5.17992 7.95455 4.81061 8.52273 4.56818C9.09091 4.32576 9.7178 4.20455 10.4034 4.20455C11.1572 4.20455 11.8239 4.32955 12.4034 4.57955C12.983 4.82576 13.4375 5.18371 13.767 5.65341C14.0966 6.12311 14.2614 6.68939 14.2614 7.35227C14.2614 8.01894 14.1004 8.57386 13.7784 9.01705C13.4602 9.46023 13.036 9.83902 12.5057 10.1534C12.0587 10.4223 11.7311 10.7121 11.5227 11.0227C11.3144 11.3333 11.2064 11.7652 11.1989 12.3182V12.5114H9.04545ZM10.1648 16.1477C9.78977 16.1477 9.4678 16.0152 9.19886 15.75C8.92992 15.4848 8.79735 15.1629 8.80114 14.7841C8.79735 14.4129 8.92992 14.0947 9.19886 13.8295C9.4678 13.5644 9.78977 13.4318 10.1648 13.4318C10.5284 13.4318 10.8447 13.5644 11.1136 13.8295C11.3864 14.0947 11.5246 14.4129 11.5284 14.7841C11.5246 15.1629 11.3864 15.4848 11.1136 15.75C10.8447 16.0152 10.5284 16.1477 10.1648 16.1477Z" fill="#D07C75"/>
</svg>
