<svg width="30" height="30" viewBox="0 0 30 30" fill="none" xmlns="http://www.w3.org/2000/svg">
<circle cx="15" cy="15" r="15" fill="#BD1992"/>
<g clip-path="url(#clip0)">
<path d="M24.506 16.8774V12.5778C24.506 12.3066 24.3311 12.0661 24.0728 11.9829L14.6948 8.9598C14.5701 8.91959 14.4359 8.91959 14.3112 8.9598L4.93323 11.9829C4.67512 12.0661 4.5 12.3064 4.5 12.5778C4.5 12.8491 4.67512 13.0894 4.93323 13.1726L9.62823 14.6861V17.0311C9.62823 17.0413 9.62856 17.0514 9.62904 17.0615C9.64762 17.6697 10.2223 18.246 11.252 18.6874C12.1927 19.0907 13.3474 19.3127 14.5032 19.3127C15.659 19.3127 16.8137 19.0907 17.7543 18.6874C18.8012 18.2386 19.3778 17.6505 19.3778 17.0311V14.6861L23.256 13.436V16.8774C22.6728 17.1224 22.262 17.6995 22.262 18.3708V20.4884C22.262 20.8335 22.5419 21.1134 22.887 21.1134H24.875C25.2201 21.1134 25.5 20.8335 25.5 20.4884V18.3708C25.5 17.6995 25.0894 17.1224 24.506 16.8774ZM17.0662 17.6176C16.312 17.9046 15.4018 18.0627 14.5032 18.0627C13.6043 18.0627 12.6942 17.9046 11.9402 17.6176C11.2793 17.3659 10.9537 17.0937 10.8783 16.9795V15.0891L14.3112 16.1957C14.3736 16.2157 14.4383 16.2258 14.503 16.2258C14.5677 16.2258 14.6325 16.2159 14.6948 16.1957L18.1278 15.0891V16.98C18.0517 17.0944 17.7263 17.3662 17.0662 17.6176ZM14.503 14.9442L7.16201 12.5778L14.503 10.2114L21.844 12.5778L14.503 14.9442ZM24.25 19.8634H23.512V18.3708C23.512 18.1673 23.6777 18.0018 23.881 18.0018C24.0845 18.0018 24.25 18.1673 24.25 18.3708V19.8634Z" fill="white"/>
</g>
<defs>
<clipPath id="clip0">
<rect width="21" height="21" fill="white" transform="translate(4.5 4.5)"/>
</clipPath>
</defs>
</svg>
