<svg width="17" height="16" viewBox="0 0 17 16" fill="none" xmlns="http://www.w3.org/2000/svg">
<path d="M4.78385 3.99998V1.99998C4.78385 1.82317 4.85409 1.6536 4.97912 1.52858C5.10414 1.40355 5.27371 1.33331 5.45052 1.33331H13.4505C13.6273 1.33331 13.7969 1.40355 13.9219 1.52858C14.047 1.6536 14.1172 1.82317 14.1172 1.99998V11.3333C14.1172 11.5101 14.047 11.6797 13.9219 11.8047C13.7969 11.9297 13.6273 12 13.4505 12H11.4505V14C11.4505 14.368 11.1505 14.6666 10.7792 14.6666H2.78852C2.70061 14.6672 2.61345 14.6503 2.53207 14.6171C2.45069 14.5838 2.37668 14.5348 2.31429 14.4728C2.25191 14.4109 2.20238 14.3372 2.16856 14.2561C2.13473 14.1749 2.11727 14.0879 2.11719 14L2.11919 4.66665C2.11919 4.29865 2.41919 3.99998 2.79052 3.99998H4.78385ZM3.45252 5.33331L3.45052 13.3333H10.1172V5.33331H3.45252ZM6.11719 3.99998H11.4505V10.6666H12.7839V2.66665H6.11719V3.99998Z" fill="#18753C"/>
</svg>
