<svg width="20" height="22" viewBox="0 0 20 22" fill="none" xmlns="http://www.w3.org/2000/svg">
  <path fill-rule="evenodd" clip-rule="evenodd" d="M10 21.8332C4.477 21.8332 0 16.9831 0 10.9998C0 5.01659 4.477 0.166504 10 0.166504C15.523 0.166504 20 5.01659 20 10.9998C20 16.9831 15.523 21.8332 10 21.8332ZM10 19.6665C14.4183 19.6665 18 15.7863 18 10.9998C18 6.21337 14.4183 2.33317 10 2.33317C5.58172 2.33317 2 6.21337 2 10.9998C2 15.7863 5.58172 19.6665 10 19.6665ZM9 5.58317H11V7.74984H9V5.58317ZM9 9.9165H11V16.4165H9V9.9165Z" fill="#383838"/>
</svg>
