<svg width="35" height="35" viewBox="0 0 35 35" fill="none" xmlns="http://www.w3.org/2000/svg">
<path d="M35 17.5C35 27.165 27.165 35 17.5 35C7.83502 35 0 27.165 0 17.5C0 7.83502 7.83502 0 17.5 0C27.165 0 35 7.83502 35 17.5Z" fill="#3A55D1"/>
<path d="M16 24C17.775 23.9996 19.4988 23.4054 20.897 22.312L25.293 26.708L26.707 25.294L22.311 20.898C23.405 19.4997 23.9996 17.7754 24 16C24 11.589 20.411 8 16 8C11.589 8 8 11.589 8 16C8 20.411 11.589 24 16 24ZM16 10C19.309 10 22 12.691 22 16C22 19.309 19.309 22 16 22C12.691 22 10 19.309 10 16C10 12.691 12.691 10 16 10Z" fill="white"/>
<path d="M17.4118 14.586C17.7908 14.966 17.9998 15.468 17.9998 16H19.9998C20.0007 15.4744 19.8974 14.9539 19.6959 14.4684C19.4944 13.983 19.1987 13.5424 18.8258 13.172C17.3118 11.66 14.6868 11.66 13.1738 13.172L14.5858 14.588C15.3458 13.83 16.6558 13.832 17.4118 14.586Z" fill="white"/>
</svg>
