<svg width="34" height="39" viewBox="0 0 34 39" fill="none" xmlns="http://www.w3.org/2000/svg">
<path fill-rule="evenodd" clip-rule="evenodd" d="M20.2361 31.1049C20.2619 31.1156 20.299 31.1301 20.3471 31.1478L20.372 31.1569C20.5212 31.2107 20.6972 31.2651 20.8982 31.3161C21.4265 31.4502 22.0238 31.5362 22.6794 31.5501C22.9029 31.5548 23.0758 31.7263 23.0572 31.9249C23.0512 31.9889 23.0351 32.0905 23.0037 32.2179C22.9517 32.429 22.8737 32.6405 22.763 32.841L22.7427 32.877C22.3939 33.483 21.8109 33.8527 20.987 33.825L20.9603 33.8238L20.9805 33.8231C20.0295 33.8658 19.5704 33.3003 19.5209 32.457C19.5049 32.185 19.5308 31.9007 19.5836 31.6186C19.5941 31.5628 19.6051 31.51 19.6164 31.4601L19.6335 31.3876L19.6477 31.332C19.6967 31.1136 19.9598 30.9944 20.1849 31.0829L20.2361 31.1049ZM20.3253 31.8811L20.3164 31.9453C20.2957 32.1096 20.2878 32.2707 20.2966 32.4212C20.3265 32.9297 20.5065 33.1515 20.9412 33.132L20.9623 33.1315L20.9834 33.1321C21.5046 33.1592 21.8401 32.9446 22.0658 32.5357L22.095 32.4804C22.1326 32.4058 22.1649 32.3282 22.1921 32.2492L22.201 32.2219L22.1023 32.2145C21.5933 32.1735 21.1196 32.0928 20.6853 31.9825C20.5838 31.9567 20.4875 31.9301 20.3965 31.9029L20.3253 31.8811Z" fill="#2E186A"/>
<path fill-rule="evenodd" clip-rule="evenodd" d="M4.94358 26.7143C4.94358 26.7143 1.02016 28.1684 3.11783 31.0768C5.2155 33.9851 8.77637 30.6267 8.77637 30.6267L6.21255 26.345L4.94358 26.7143Z" fill="white"/>
<path fill-rule="evenodd" clip-rule="evenodd" d="M6.55594 26.182L9.11977 30.4637C9.19838 30.595 9.17407 30.7563 9.05939 30.8645L8.99566 30.9228C8.93299 30.9786 8.84675 31.0522 8.73926 31.1389C8.49042 31.3397 8.21305 31.5402 7.91308 31.7278C7.00264 32.2974 6.0803 32.6334 5.18663 32.607C4.24517 32.5792 3.42553 32.1427 2.79175 31.264C1.59557 29.6056 2.03968 28.1907 3.47447 27.1271C3.76178 26.9142 4.06793 26.7326 4.37421 26.5813L4.45119 26.5438C4.60019 26.4726 4.71876 26.4229 4.79511 26.3946C4.8045 26.3911 4.81403 26.388 4.82369 26.3852L6.09265 26.0159C6.27185 25.9637 6.46719 26.0338 6.55594 26.182ZM6.02467 26.764L5.08253 27.0382L5.0247 27.0617L5.00667 27.0692C4.93029 27.1016 4.84444 27.1408 4.75157 27.1867C4.48532 27.3182 4.21894 27.4762 3.97189 27.6593C2.8131 28.5183 2.48642 29.5591 3.4459 30.8893C3.945 31.5813 4.53336 31.8947 5.21297 31.9147C5.9051 31.9351 6.68206 31.6521 7.46737 31.1608C7.73931 30.9907 7.99217 30.8079 8.21854 30.6253L8.29792 30.5603L6.02467 26.764Z" fill="#2E186A"/>
<path fill-rule="evenodd" clip-rule="evenodd" d="M11.8061 12.819C13.0233 12.2881 21.1032 11.6072 22.903 14.504C26.0236 19.5358 27.7846 25.6872 28.3026 28.5955C28.8205 31.5038 14.616 35.0584 13.7355 35.093C12.855 35.1277 11.5731 34.6429 11.5731 34.6429L6.09582 27.1529C6.10876 27.1529 0.981136 17.5739 11.8061 12.819Z" fill="white"/>
<path fill-rule="evenodd" clip-rule="evenodd" d="M17.1597 12.03C20.1064 12.1843 22.3128 12.8946 23.2169 14.2934L23.2439 14.336C25.9053 18.6274 27.9522 24.414 28.6871 28.5408C28.9588 30.0662 26.3665 31.5961 21.8243 33.1953L21.6861 33.2438C18.6552 34.3027 14.4765 35.4101 13.7535 35.4385C13.5241 35.4475 13.2694 35.4275 12.9922 35.3832C12.7277 35.3409 12.4496 35.2777 12.1656 35.1991C12.0102 35.1561 11.8606 35.1106 11.7201 35.0646L11.6369 35.037C11.5376 35.0035 11.4641 34.9771 11.4222 34.9612C11.3511 34.9344 11.2907 34.8892 11.2485 34.8316L5.77125 27.3415L5.75982 27.3249C5.75259 27.3138 5.74616 27.3025 5.74049 27.2911L5.73141 27.2711L5.68949 27.1853C5.64553 27.0938 5.59903 26.9928 5.54862 26.8774C5.40233 26.5427 5.2576 26.1663 5.12241 25.7505C4.35235 23.3819 4.2209 20.9005 5.13961 18.5641C6.11856 16.0746 8.2235 14.0066 11.6353 12.508C12.4313 12.1608 14.9569 11.9147 17.1597 12.03ZM22.6442 14.8006L22.5645 14.6713C21.8461 13.515 19.8481 12.8645 17.1146 12.7214C15.0338 12.6124 12.6261 12.847 11.9782 13.1296C8.74704 14.5489 6.78378 16.4777 5.87325 18.7932C5.01599 20.9733 5.14007 23.3156 5.86908 25.5578C5.98685 25.9201 6.11201 26.2502 6.23849 26.5463L6.27302 26.6262C6.31231 26.7161 6.3489 26.7964 6.38355 26.8696L6.44092 26.9883L11.8332 34.3621L11.9122 34.3893C12.0623 34.4399 12.2258 34.4906 12.3965 34.5379C12.6519 34.6086 12.8998 34.6649 13.1298 34.7017C13.3546 34.7376 13.5541 34.7533 13.7197 34.7468C14.3294 34.7228 18.4504 33.6307 21.403 32.5992L21.6525 32.5113C25.6951 31.0759 28.0986 29.651 27.9203 28.6494C27.206 24.6385 25.2195 19.0025 22.6442 14.8006Z" fill="#2E186A"/>
<path fill-rule="evenodd" clip-rule="evenodd" d="M7.37772 26.6336C8.29707 26.9913 11.5601 29.7381 12.6866 31.1576C12.6866 31.1576 16.4806 28.2955 22.7218 26.0103C22.7218 26.0103 26.1661 24.8678 27.694 24.7524C27.694 24.7524 29.8564 30.419 28.3544 34.2737C26.8523 38.1283 20.637 39.3863 17.115 38.6131C13.593 37.8514 12.7773 37.182 11.3141 35.5547C9.86384 33.9274 5.12467 27.603 5.12467 27.603L7.37772 26.6336Z" fill="#968BB4"/>
<path fill-rule="evenodd" clip-rule="evenodd" d="M18.127 24.9468C17.9382 24.5198 18.0332 24.0866 18.3393 23.9791C18.6453 23.8715 19.0465 24.1305 19.2353 24.5574C19.4241 24.9843 19.3291 25.4176 19.023 25.5251C18.717 25.6326 18.3158 25.3737 18.127 24.9468Z" fill="#2E186A"/>
<path fill-rule="evenodd" clip-rule="evenodd" d="M22.2778 23.6269C22.1669 23.4632 21.9282 23.4106 21.7445 23.5094C21.5676 23.6045 21.5063 23.8054 21.601 23.9663L21.6126 23.9847L24.138 27.7147L22.443 28.345C22.2521 28.416 22.1583 28.6071 22.2259 28.7789L22.2341 28.7979C22.3137 28.968 22.5281 29.0516 22.7208 28.9914L22.7422 28.9841L24.8528 28.1993C25.0645 28.1206 25.1525 27.8975 25.0474 27.7192L25.0358 27.7009L22.2778 23.6269Z" fill="#2E186A"/>
<path fill-rule="evenodd" clip-rule="evenodd" d="M23.5348 23.5466C23.346 23.1197 23.441 22.6864 23.747 22.5789C24.053 22.4714 24.4542 22.7303 24.643 23.1573C24.8318 23.5842 24.7368 24.0175 24.4308 24.125C24.1247 24.2325 23.7236 23.9736 23.5348 23.5466Z" fill="#2E186A"/>
<path fill-rule="evenodd" clip-rule="evenodd" d="M17.3904 20.4962C17.3421 20.3099 17.1335 20.1937 16.9245 20.2367C16.1979 20.3861 15.6294 20.7122 15.2073 21.1593C14.9985 21.3804 14.8394 21.6167 14.7224 21.8535C14.6508 21.9986 14.6082 22.1153 14.5882 22.19C14.5382 22.3759 14.6669 22.5628 14.8756 22.6073C15.0767 22.6502 15.2788 22.5451 15.3378 22.3708L15.3489 22.3346C15.3517 22.3262 15.3555 22.315 15.3606 22.3013C15.3788 22.2513 15.403 22.1944 15.4336 22.1324C15.5222 21.9528 15.6436 21.7727 15.8018 21.6051C16.1191 21.2689 16.5431 21.0258 17.0992 20.9114C17.3082 20.8684 17.4386 20.6825 17.3904 20.4962Z" fill="#2E186A"/>
<path fill-rule="evenodd" clip-rule="evenodd" d="M23.2898 18.4759C22.8366 18.3953 22.3748 18.4804 21.9295 18.6659C21.7361 18.7464 21.5873 18.8278 21.4966 18.8868C21.3232 18.9994 21.2851 19.216 21.4115 19.3705C21.533 19.5191 21.7624 19.5562 21.9339 19.4587L21.9863 19.427C21.9979 19.4203 22.0121 19.4123 22.0288 19.4031C22.0968 19.3659 22.1741 19.3283 22.2583 19.2932C22.5673 19.1646 22.8739 19.1081 23.1377 19.155C23.3431 19.1915 23.5243 19.2906 23.6867 19.4736C23.8198 19.6236 24.0641 19.6491 24.2323 19.5305C24.4006 19.4119 24.4292 19.1942 24.2961 19.0442C24.0195 18.7324 23.6763 18.5447 23.2898 18.4759Z" fill="#2E186A"/>
<path fill-rule="evenodd" clip-rule="evenodd" d="M6.10945 28.4453C6.10945 28.4453 3.11833 26.5411 1.22784 24.129C-0.546116 21.867 -0.403679 18.7855 1.69399 16.7428C3.45499 15.0347 5.56561 14.7578 5.56561 14.7578C5.56561 14.7578 2.09539 11.6763 4.7628 7.6139C5.6951 6.18283 7.27482 5.15568 9.08762 4.78637C13.516 3.87464 15.8468 6.87528 15.8468 6.87528C15.8468 6.87528 18.307 -1.93046 29.2874 0.389268C30.401 0.620087 31.8642 1.64723 32.6411 2.39739C37.3673 6.89836 28.6659 15.5425 23.344 17.3083C17.4912 19.2472 14.0858 18.7278 11.6644 18.1162C13.3736 18.3585 15.2252 26.6103 6.10945 28.4453Z" fill="#2E186A"/>
</svg>
