<svg width="14" height="13" viewBox="0 0 14 13" fill="none" xmlns="http://www.w3.org/2000/svg">
  <path d="M4.16667 1.33329H13.375V2.74996H4.16667V1.33329ZM1.6875 3.10413C1.40571 3.10413 1.13546 2.99218 0.936199 2.79293C0.736942 2.59367 0.625 2.32342 0.625 2.04163C0.625 1.75983 0.736942 1.48958 0.936199 1.29033C1.13546 1.09107 1.40571 0.979126 1.6875 0.979126C1.96929 0.979126 2.23954 1.09107 2.4388 1.29033C2.63806 1.48958 2.75 1.75983 2.75 2.04163C2.75 2.32342 2.63806 2.59367 2.4388 2.79293C2.23954 2.99218 1.96929 3.10413 1.6875 3.10413ZM1.6875 8.06246C1.40571 8.06246 1.13546 7.95052 0.936199 7.75126C0.736942 7.552 0.625 7.28175 0.625 6.99996C0.625 6.71817 0.736942 6.44792 0.936199 6.24866C1.13546 6.0494 1.40571 5.93746 1.6875 5.93746C1.96929 5.93746 2.23954 6.0494 2.4388 6.24866C2.63806 6.44792 2.75 6.71817 2.75 6.99996C2.75 7.28175 2.63806 7.552 2.4388 7.75126C2.23954 7.95052 1.96929 8.06246 1.6875 8.06246ZM1.6875 12.95C1.40571 12.95 1.13546 12.838 0.936199 12.6388C0.736942 12.4395 0.625 12.1693 0.625 11.8875C0.625 11.6057 0.736942 11.3354 0.936199 11.1362C1.13546 10.9369 1.40571 10.825 1.6875 10.825C1.96929 10.825 2.23954 10.9369 2.4388 11.1362C2.63806 11.3354 2.75 11.6057 2.75 11.8875C2.75 12.1693 2.63806 12.4395 2.4388 12.6388C2.23954 12.838 1.96929 12.95 1.6875 12.95ZM4.16667 6.29163H13.375V7.70829H4.16667V6.29163ZM4.16667 11.25H13.375V12.6666H4.16667V11.25Z" fill="white"/>
</svg>
