<svg width="21" height="13" viewBox="0 0 21 13" fill="none" xmlns="http://www.w3.org/2000/svg">
<path d="M20.006 8.37741V4.07781C20.006 3.80657 19.8311 3.56608 19.5728 3.48293L10.1948 0.459787C10.0701 0.419573 9.93587 0.419573 9.81123 0.459787L0.433228 3.48293C0.175117 3.56608 0 3.80641 0 4.07781C0 4.34906 0.175117 4.58939 0.433228 4.67254L5.12823 6.18611V8.53105C5.12823 8.54131 5.12856 8.5514 5.12904 8.56149C5.14762 9.16968 5.72232 9.74598 6.75204 10.1874C7.69267 10.5906 8.84736 10.8127 10.0032 10.8127C11.159 10.8127 12.3137 10.5906 13.2543 10.1874C14.3012 9.73861 14.8778 9.15045 14.8778 8.53105V6.18611L18.756 4.93594V8.37741C18.1728 8.62238 17.762 9.19948 17.762 9.87079V11.9884C17.762 12.3335 18.0419 12.6134 18.387 12.6134H20.375C20.7201 12.6134 21 12.3335 21 11.9884V9.87079C21 9.19948 20.5894 8.62238 20.006 8.37741ZM12.5662 9.11761C11.812 9.40456 10.9018 9.56269 10.0032 9.56269C9.10435 9.56269 8.19415 9.40456 7.44017 9.11761C6.77927 8.86591 6.45371 8.5937 6.37825 8.47946V6.58906L9.81123 7.69568C9.87355 7.71571 9.93828 7.7258 10.003 7.7258C10.0677 7.7258 10.1325 7.71587 10.1948 7.69568L13.6278 6.58906V8.47994C13.5517 8.59434 13.2263 8.86623 12.5662 9.11761ZM10.003 6.44422L2.66201 4.07781L10.003 1.7114L17.344 4.07781L10.003 6.44422ZM19.75 11.3634H19.012V9.87079C19.012 9.66731 19.1777 9.50181 19.381 9.50181C19.5845 9.50181 19.75 9.66731 19.75 9.87079V11.3634Z" fill="#929292"/>
</svg>
