<svg width="18" height="18" viewBox="0 0 18 18" fill="none" xmlns="http://www.w3.org/2000/svg">
<g clip-path="url(#clip0)">
<path d="M9.50561 6.95774L9.50566 6.95768C10.1264 6.22163 10.594 5.43252 10.8997 4.61133H7.09915C7.40557 5.43276 7.87251 6.22178 8.49296 6.9575L9.50561 6.95774ZM9.50561 6.95774C9.26789 7.23969 9.09624 7.56864 8.99967 7.91959M9.50561 6.95774L8.99967 7.91959M8.99967 7.91959C8.90292 7.56861 8.73101 7.23956 8.49311 6.95768L8.99967 7.91959Z" stroke="#383838"/>
<path d="M7.89484 12.2795L7.89533 12.2791C8.42901 11.884 8.8291 11.387 8.9999 10.8293C9.17076 11.387 9.57107 11.8842 10.1054 12.2793L10.1057 12.2794C11.377 13.2184 12.321 14.2196 12.9331 15.2498H5.06712C5.67953 14.2195 6.62327 13.2184 7.89484 12.2795ZM13.4443 15.5469C13.5174 15.422 13.5186 15.2673 13.4473 15.1402C12.7959 13.9859 11.7711 12.8879 10.4027 11.8772C9.762 11.4035 9.40928 10.8195 9.4089 10.2289L13.4443 15.5469Z" stroke="#383838"/>
<path d="M16.1584 16.364H15.9137C15.6326 13.1803 13.7683 10.7362 12.3191 9.00019C13.7687 7.26457 15.6322 4.82007 15.9144 1.63643H16.1592C16.6111 1.63643 16.9772 1.26993 16.9772 0.818025C16.9772 0.36612 16.6111 0 16.1592 0H1.84104C1.38913 0 1.02301 0.366503 1.02301 0.818025C1.02301 1.26993 1.38913 1.63643 1.84104 1.63643H2.08575C2.36724 4.82045 4.23077 7.26495 5.68031 9.00019C4.23115 10.7358 2.36724 13.1799 2.08537 16.364H1.84104C1.38913 16.364 1.02301 16.7297 1.02301 17.1816C1.02301 17.6339 1.38913 18.0004 1.84104 18.0004H2.86395H15.1359H16.1592C16.6111 18.0004 16.9772 17.6339 16.9772 17.1816C16.9772 16.7297 16.6107 16.364 16.1584 16.364ZM3.72563 16.364C4.03316 13.4875 5.9032 11.2724 7.30066 9.61716L7.37534 9.52869C7.6327 9.22423 7.6327 8.77845 7.37534 8.47361L7.30105 8.38552C5.90397 6.72994 4.03316 4.51484 3.72563 1.63797H14.2742C13.9666 4.51484 12.0958 6.72994 10.6988 8.38552L10.6248 8.47361C10.3675 8.77807 10.3675 9.22385 10.6248 9.52869L10.6995 9.61716C12.0966 11.2724 13.9666 13.4875 14.2742 16.364H3.72563Z" fill="#383838"/>
</g>
<defs>
<clipPath id="clip0">
<rect width="18" height="18" fill="white"/>
</clipPath>
</defs>
</svg>
