<svg width="20" height="20" viewBox="0 0 20 20" fill="none" xmlns="http://www.w3.org/2000/svg">
<path fill-rule="evenodd" clip-rule="evenodd" d="M10 20C4.477 20 0 15.523 0 10C0 4.477 4.477 0 10 0C15.523 0 20 4.477 20 10C20 15.523 15.523 20 10 20ZM10 18C14.4183 18 18 14.4183 18 10C18 5.58172 14.4183 2 10 2C5.58172 2 2 5.58172 2 10C2 14.4183 5.58172 18 10 18ZM9 13H11V15H9V13ZM11 11.355V12H9V10.5C9 9.94772 9.44771 9.5 10 9.5C10.7902 9.49995 11.4448 8.88695 11.4967 8.09851C11.5486 7.31006 10.9799 6.61655 10.1966 6.51295C9.41325 6.40935 8.68387 6.93117 8.529 7.706L6.567 7.313C6.90349 5.63124 8.40875 4.44085 10.1228 4.50102C11.8368 4.56119 13.2549 5.8542 13.4726 7.55541C13.6904 9.25662 12.6436 10.8651 11 11.355Z" fill="#383838"/>
</svg>
