<svg width="20" height="20" viewBox="0 0 20 20" fill="none" xmlns="http://www.w3.org/2000/svg">
<path d="M10 20.001C4.477 20.001 0 15.524 0 10.001C0 4.47798 4.477 0.000976562 10 0.000976562C15.523 0.000976562 20 4.47798 20 10.001C20 15.524 15.523 20.001 10 20.001ZM7.71 17.668C6.72341 15.5753 6.15187 13.3112 6.027 11.001H2.062C2.25659 12.5399 2.89392 13.9891 3.89657 15.1727C4.89922 16.3562 6.22401 17.2231 7.71 17.668ZM8.03 11.001C8.181 13.44 8.878 15.731 10 17.753C11.1523 15.6775 11.8254 13.3705 11.97 11.001H8.03ZM17.938 11.001H13.973C13.8481 13.3112 13.2766 15.5753 12.29 17.668C13.776 17.2231 15.1008 16.3562 16.1034 15.1727C17.1061 13.9891 17.7434 12.5399 17.938 11.001ZM2.062 9.00098H6.027C6.15187 6.69076 6.72341 4.42666 7.71 2.33398C6.22401 2.77886 4.89922 3.64573 3.89657 4.82927C2.89392 6.01281 2.25659 7.46208 2.062 9.00098ZM8.031 9.00098H11.969C11.8248 6.63158 11.152 4.32451 10 2.24898C8.84768 4.32443 8.17456 6.6315 8.03 9.00098H8.031ZM12.29 2.33398C13.2766 4.42666 13.8481 6.69076 13.973 9.00098H17.938C17.7434 7.46208 17.1061 6.01281 16.1034 4.82927C15.1008 3.64573 13.776 2.77886 12.29 2.33398Z" fill="#161616"/>
</svg>
