<svg xmlns="http://www.w3.org/2000/svg" width="196" height="223" fill="none" viewBox="0 0 196 223"><g clip-path="url(#a)"><path fill="#f6f6f6" d="M0 0h196v223H0z"/><path stroke="#ececfe" stroke-dasharray="4 10" stroke-linecap="round" stroke-linejoin="round" stroke-width="5" d="M-72.695 99.503c4.125 13.473 19.797 40.211 49.493 39.382 37.119-1.037 47.43-60.11 115.482-61.145 68.051-1.037 152.601 78.763 179.409 39.381"/><path stroke="#d3dffc" stroke-width="7" d="M21.713 85.005c9.188 0 16.666 7.491 16.666 16.769 0 9.279-7.478 16.769-16.666 16.769s-16.666-7.491-16.666-16.769 7.478-16.769 16.666-16.77Z"/><ellipse cx="187.434" cy="119.328" fill="#fde2b5" rx="23.047" ry="23.165"/><ellipse cx="173.785" cy="56.751" fill="#fdc6ba" rx="16.133" ry="16.215"/><path fill="#6a6af4" d="M175.784 69.809c0-6.655-5.367-12.051-11.986-12.055H112.77c-6.625 0-11.994 5.398-11.994 12.058v83.376c0 6.66 5.369 12.058 11.994 12.058h51.021c6.624 0 11.993-5.398 11.993-12.058z"/><path fill="#000091" d="M154.712 163.522a.538.538 0 0 1-.117-1.062c6.667-1.518 7.226-7.988 7.226-14.487V86.999a.535.535 0 1 1 1.069 0v60.974c0 3.335-.148 6.81-1.224 9.63-1.221 3.205-3.458 5.136-6.836 5.905a.6.6 0 0 1-.119.014z"/><path fill="#fff" d="M151.327 68.56h-38.715c-2.667 0-4.828 2.174-4.828 4.854v8.648c0 2.68 2.161 4.853 4.828 4.853h38.715c2.666 0 4.828-2.173 4.828-4.853v-8.648c0-2.68-2.162-4.853-4.828-4.853"/><path fill="#000091" d="M116.235 92.927h-7.18a1.25 1.25 0 0 0-1.246 1.253v6.895a1.25 1.25 0 0 0 1.246 1.253h7.18a1.25 1.25 0 0 0 1.247-1.253V94.18a1.25 1.25 0 0 0-1.247-1.253m25.885 0h-7.18a1.25 1.25 0 0 0-1.246 1.253v6.895a1.25 1.25 0 0 0 1.246 1.253h7.18a1.25 1.25 0 0 0 1.247-1.253V94.18a1.25 1.25 0 0 0-1.247-1.253m-12.942 0h-7.18a1.25 1.25 0 0 0-1.247 1.253v6.895a1.25 1.25 0 0 0 1.247 1.253h7.18a1.25 1.25 0 0 0 1.246-1.253V94.18a1.25 1.25 0 0 0-1.246-1.253m-12.943 12.013h-7.18a1.25 1.25 0 0 0-1.246 1.254v6.894a1.25 1.25 0 0 0 1.246 1.253h7.18a1.25 1.25 0 0 0 1.247-1.253v-6.894a1.25 1.25 0 0 0-1.247-1.254m25.885 0h-7.18a1.25 1.25 0 0 0-1.246 1.254v6.894a1.25 1.25 0 0 0 1.246 1.253h7.18a1.25 1.25 0 0 0 1.247-1.253v-6.894a1.25 1.25 0 0 0-1.247-1.254m-12.942 0h-7.18a1.25 1.25 0 0 0-1.247 1.254v6.894a1.25 1.25 0 0 0 1.247 1.253h7.18a1.25 1.25 0 0 0 1.246-1.253v-6.894a1.25 1.25 0 0 0-1.246-1.254m-12.943 12.535h-7.18a1.25 1.25 0 0 0-1.246 1.253v6.894a1.25 1.25 0 0 0 1.246 1.254h7.18a1.25 1.25 0 0 0 1.247-1.254v-6.894a1.25 1.25 0 0 0-1.247-1.253m25.885 0h-7.18a1.25 1.25 0 0 0-1.246 1.253v6.894a1.25 1.25 0 0 0 1.246 1.254h7.18a1.25 1.25 0 0 0 1.247-1.254v-6.894a1.25 1.25 0 0 0-1.247-1.253m-12.942 0h-7.18a1.25 1.25 0 0 0-1.247 1.253v6.894a1.25 1.25 0 0 0 1.247 1.254h7.18a1.25 1.25 0 0 0 1.246-1.254v-6.894a1.25 1.25 0 0 0-1.246-1.253m-12.943 12.43h-7.18a1.25 1.25 0 0 0-1.246 1.253v6.895a1.25 1.25 0 0 0 1.246 1.253h7.18a1.25 1.25 0 0 0 1.247-1.253v-6.895a1.25 1.25 0 0 0-1.247-1.253m25.885 0h-7.18a1.25 1.25 0 0 0-1.246 1.253v6.895a1.25 1.25 0 0 0 1.246 1.253h7.18a1.25 1.25 0 0 0 1.247-1.253v-6.895a1.25 1.25 0 0 0-1.247-1.253m13.342-15.026h-7.182c-.981 0-1.78-.804-1.78-1.791v-6.894c0-.987.799-1.791 1.78-1.791h7.182a1.79 1.79 0 0 1 1.781 1.791v6.894c0 .987-.8 1.791-1.781 1.791m-7.18-9.401a.713.713 0 0 0-.712.716v6.894c0 .396.318.716.712.716h7.182c.393 0 .712-.32.712-.716v-6.894a.714.714 0 0 0-.712-.716zm7.18-2.752h-7.182c-.981 0-1.78-.804-1.78-1.791v-6.894c0-.987.799-1.79 1.78-1.79h7.182c.981 0 1.781.803 1.781 1.79v6.894c0 .987-.8 1.791-1.781 1.791m-7.18-9.401a.713.713 0 0 0-.712.716v6.894c0 .396.318.717.712.717h7.182a.715.715 0 0 0 .712-.717v-6.894a.714.714 0 0 0-.712-.716zm7.18 34.088h-7.182c-.981 0-1.78-.804-1.78-1.791v-6.894c0-.987.799-1.79 1.78-1.79h7.182c.981 0 1.781.803 1.781 1.79v6.894c0 .987-.8 1.791-1.781 1.791m-7.18-9.401a.713.713 0 0 0-.712.716v6.894c0 .396.318.717.712.717h7.182a.715.715 0 0 0 .712-.717v-6.894a.714.714 0 0 0-.712-.716zm7.18 21.831h-7.182c-.981 0-1.78-.804-1.78-1.79v-6.895c0-.986.799-1.79 1.78-1.79h7.182c.981 0 1.781.804 1.781 1.79v6.895c0 .986-.8 1.79-1.781 1.79m-7.18-9.401a.713.713 0 0 0-.712.716v6.895c0 .395.318.716.712.716h7.182a.714.714 0 0 0 .712-.716v-6.895a.714.714 0 0 0-.712-.716zm-19.104-.537h-7.18a1.25 1.25 0 0 0-1.247 1.253v6.895a1.25 1.25 0 0 0 1.247 1.253h7.18a1.25 1.25 0 0 0 1.246-1.253v-6.895a1.25 1.25 0 0 0-1.246-1.253m12.944 22.569h-7.182c-.981 0-1.78-.804-1.78-1.791v-6.894c0-.987.799-1.79 1.78-1.79h7.182c.981 0 1.781.803 1.781 1.79v6.894c0 .987-.8 1.791-1.781 1.791m-7.182-9.401a.714.714 0 0 0-.712.716v6.894c0 .396.319.717.712.717h7.182a.715.715 0 0 0 .713-.717v-6.894a.714.714 0 0 0-.713-.716zm13.395 9.401h-.322a1.52 1.52 0 0 1-1.512-1.52v-7.437c0-.838.679-1.52 1.512-1.52h7.72c.833 0 1.512.682 1.512 1.52 0 4.938-3.996 8.955-8.908 8.955zm-.322-9.401c-.244 0-.443.2-.443.446v7.437c0 .245.199.445.443.445h.322c4.322 0 7.839-3.535 7.839-7.881a.445.445 0 0 0-.443-.445h-7.72zm-18.833 9.401H122a1.79 1.79 0 0 1-1.781-1.791v-6.894c0-.987.799-1.79 1.781-1.79h7.18c.981 0 1.781.803 1.781 1.79v6.894c0 .987-.8 1.791-1.781 1.791m-7.182-9.401a.713.713 0 0 0-.712.716v6.894c0 .396.318.717.712.717h7.18a.714.714 0 0 0 .712-.717v-6.894a.713.713 0 0 0-.712-.716zm-5.371 9.401h-.322c-4.911 0-8.908-4.018-8.908-8.955 0-.838.679-1.52 1.512-1.52h7.72c.833 0 1.512.682 1.512 1.52v7.437c0 .837-.679 1.52-1.512 1.52zm-7.719-9.401c-.244 0-.444.2-.444.446 0 4.346 3.517 7.881 7.839 7.881h.322a.447.447 0 0 0 .444-.446v-7.437c0-.246-.2-.446-.444-.446h-7.719zm53.447-68.912a.535.535 0 0 1-.534-.537c0-6.5-.557-12.97-7.226-14.487a.536.536 0 0 1-.403-.643.534.534 0 0 1 .64-.405c3.378.77 5.614 2.7 6.836 5.905 1.074 2.82 1.223 6.294 1.223 9.63a.535.535 0 0 1-.534.537zm-39.15 4.005h1.24v-.888h-1.24v-1.653h1.41c.449-2.462 1.799-3.664 3.969-3.664 1.443 0 2.544.608 3.272 1.574l-1.582 1.202c-.357-.546-.884-.935-1.66-.935-.929 0-1.582.438-1.877 1.823h3.736v1.653h-3.908v.888h3.908v1.653h-3.736c.279 1.417.929 1.855 1.877 1.855.76 0 1.287-.406 1.66-.935l1.582 1.185c-.728.967-1.829 1.59-3.272 1.59-2.17 0-3.52-1.2-3.969-3.693h-1.41zm9.303 0h1.241v-.888h-1.241v-1.653h1.41c.449-2.462 1.8-3.664 3.97-3.664 1.442 0 2.543.608 3.271 1.574l-1.582 1.202c-.357-.546-.883-.935-1.66-.935-.929 0-1.581.438-1.877 1.823h3.736v1.653h-3.907v.888h3.907v1.653h-3.736c.28 1.417.93 1.855 1.877 1.855.76 0 1.287-.406 1.66-.935l1.582 1.185c-.728.967-1.829 1.59-3.271 1.59-2.17 0-3.521-1.2-3.97-3.693h-1.41zm9.306 0h1.24v-.888h-1.24v-1.653h1.41c.448-2.462 1.799-3.664 3.969-3.664 1.442 0 2.544.608 3.271 1.574l-1.581 1.202c-.357-.546-.884-.935-1.66-.935-.929 0-1.582.438-1.877 1.823h3.736v1.653h-3.908v.888h3.908v1.653h-3.736c.279 1.417.929 1.855 1.877 1.855.76 0 1.286-.406 1.66-.935l1.581 1.185c-.727.967-1.829 1.59-3.271 1.59-2.17 0-3.521-1.2-3.969-3.693h-1.41z"/><path fill="#fcc0b4" d="M81.473 131.249c2.233 8.299 12.708 8.755 17.986 1.744s13.726-1.16 9.967 4.585c-3.758 5.745-11.965 24.796-37.423 14.486l-30.376 9.034c-.704.209-1.416.474-2.137.739-3.498.783-10.619.561-16.266-11.352-.178-.374-.637-1.418-.705-1.57-4.767-11.242-1.017-17.078 1.279-19.368 6.957-3.334 18.119-7.983 18.119-7.983l9.956-19.198s3.277-5.96 7.593-3.307c4.317 2.653-.616 10.11-.616 10.11.116.34 3.3-4.56 7.36-11.275 2.716-4.492 8.268-4.18 9.942 1.074.732-1.117 2.81-4.04 2.81-4.04s2.944-5.082 8.234-2.046c4.76 2.733-.845 10.905-3.862 15.743 1.987-1.67 4.532-2.662 7.22-2.929 0 0 32.042-11.596 34.968-10.285s.315 9.631-4.74 12.519-22.873 9.006-22.873 9.006-19.394 3.324-16.436 14.312z"/><path fill="#000091" d="M64.502 116.972a.538.538 0 0 1-.443-.837L75.294 99.29a.53.53 0 0 1 .74-.147c.246.165.31.5.147.745l-11.235 16.845a.54.54 0 0 1-.444.239m7.156-2.235a.538.538 0 0 1-.257-1.008l12.223-6.703a.533.533 0 0 1 .725.215.54.54 0 0 1-.214.729l-12.223 6.703a.54.54 0 0 1-.254.066zm-19.718 5.214a.538.538 0 0 1-.45-.824l9.775-15.527a.53.53 0 0 1 .737-.167c.25.159.324.491.166.741l-9.775 15.528a.53.53 0 0 1-.452.25z"/></g><defs><clipPath id="a"><path fill="#fff" d="M0 0h196v223H0z"/></clipPath></defs></svg>