<svg xmlns="http://www.w3.org/2000/svg" width="196" height="223" fill="none" viewBox="0 0 196 223"><g clip-path="url(#a)"><path fill="#f6f6f6" d="M0 0h196v223H0z"/><path fill="#ffc29e" fill-rule="evenodd" d="M35.37 222.242h46.906v-49.037c0-2.445-1.985-4.434-4.422-4.434H27.018a4.434 4.434 0 0 0-4.423 4.434v36.209c0 7.087 5.708 12.828 12.776 12.828" clip-rule="evenodd"/><path fill="#e0840b" fill-opacity=".29" fill-rule="evenodd" d="M52.625 162.821s-1.587-12.942-1.058-18.834c.529-5.893 3.27-26.85 9.184-37.612 5.915-10.763 15.761-4.491 15.761-4.491s8.467 4.377 4.838 14.476c-3.628 10.081-13.852 31.53-16.687 35.433-2.816 3.904-9.26 11.653-12.038 11.028m-4.064-19.517s1.078-20.274-3.59-30.033c-4.668-9.758-12.378-17.508-18.993-12.581s.548 19.725 4.366 25.371c3.836 5.647 18.217 17.243 18.217 17.243m3.1 23.932c-3.118-.019-18.728-1.743-22.11-12.43-3.289-10.403 6.67-16.257 12.945-11.085 6.255 5.154 9.165 23.515 9.165 23.515m4.781-1.364c2.306-3.43 10.186-13.056 18.18-12.203s7.654 7.693 1.833 10.497c-5.801 2.823-20.013 1.706-20.013 1.706" clip-rule="evenodd"/><path fill="#fff" fill-rule="evenodd" d="M27.547 197.591c.019-2.994-.321-6.329-1.002-9.323 4.82-2.198 7.087-6.935 4.8-9.019-1.266-1.156-4.233 1.895-6.085 4.85-.775-1.856-1.72-3.334-2.872-4.168-4.026-2.899-4.309 3.884-3.704 9.853-.473-.379-1.059-.739-1.682-.891-1.682-.398-3.024 1.763-2.514 3.563.416 1.496 2.892 1.951 4.687.852a38 38 0 0 0 .53 2.653c.037.189.094.379.15.549-.812-.378-1.587-.606-2.097-.454-.926.246-2.93 1.383-2.608 2.899.321 1.535 1.266 2.52 3.307 2.065.907-.208 1.758-.701 2.419-1.213 1.38 3.961 3.27 7.504 4.611 6.519 1.172-.872 1.852-3.563 2.022-6.954.34.17.832.417 1.53.701 1.72.72 2.325-1.876 1.532-2.748-.7-.701-1.852-.568-3.024.266" clip-rule="evenodd"/><path fill="#000091" fill-rule="evenodd" d="M28.05 179.793c-.876.783-1.805 1.866-2.63 3.04l-.066.094-.002-.006c-.759-1.562-1.63-2.726-2.633-3.451-2.232-1.608-3.835-.724-4.471 1.929l-.023.096c-.39 1.71-.443 4.168-.224 7.026l.012.149-.082-.04a4 4 0 0 0-.796-.289c-2.116-.501-3.825 2.037-3.192 4.27l.017.057c.505 1.648 2.79 2.241 4.732 1.506l.055-.021.004.022c.083.455.17.891.258 1.29l.026.12-.003-.001c-.526-.152-.984-.19-1.375-.09l-.06.017c-.608.161-1.399.578-1.984 1.09-.802.702-1.213 1.55-1.018 2.472.421 2.013 1.786 2.992 3.985 2.502l.105-.025a6.6 6.6 0 0 0 1.858-.818l.05-.032.011.03c.676 1.829 1.408 3.405 2.116 4.5.459.711.91 1.225 1.363 1.525.585.385 1.206.421 1.739.029l.044-.033c1.168-.912 1.885-3.203 2.145-6.37l.01-.13.073.034.173.078c.174.077.355.153.56.236 1.093.458 2.032-.053 2.447-1.092.35-.876.264-1.962-.285-2.565l-.018-.019-.043-.042c-.705-.671-1.702-.741-2.744-.301l-.077.033-.001-.09a43 43 0 0 0-.895-7.866l-.015-.071.03-.014c4.73-2.385 7.153-7.326 4.5-9.744-.888-.811-2.149-.37-3.576.875zm2.914-.124c1.953 1.78-.255 6.075-4.653 8.081a.57.57 0 0 0-.318.644c.658 2.896 1.006 6.183.987 9.193a.567.567 0 0 0 .895.467l.058-.041c.946-.653 1.756-.732 2.21-.312l.016.016-.007-.009c.221.243.271.872.07 1.376-.191.477-.483.647-.922.481l-.041-.017a18 18 0 0 1-1.496-.685.567.567 0 0 0-.82.48l-.013.232c-.188 3.267-.862 5.61-1.78 6.294-.253.185-.764-.152-1.478-1.257-.744-1.151-1.542-2.929-2.26-4.992a.566.566 0 0 0-.882-.263c-.699.54-1.465.94-2.2 1.109-1.552.346-2.329-.211-2.625-1.628-.18-.852.984-1.887 2.143-2.218l.055-.015c.313-.093.923.052 1.713.421a.568.568 0 0 0 .777-.696 4 4 0 0 1-.12-.419l-.018-.085a38 38 0 0 1-.52-2.611.566.566 0 0 0-.855-.392c-1.51.924-3.547.552-3.845-.52-.422-1.489.683-3.13 1.837-2.857.47.114.971.391 1.458.782a.567.567 0 0 0 .918-.502c-.34-3.357-.331-6.25.103-8.061l.031-.128c.467-1.831 1.21-2.199 2.675-1.145 1 .723 1.899 2.053 2.68 3.927a.566.566 0 0 0 1.004.083l.118-.187c1.948-3.038 4.42-5.171 5.105-4.546" clip-rule="evenodd"/><path fill="#fff" fill-rule="evenodd" d="M46.162 196.719c-.813-.474-2.306-.587-3.723-.171 2.23-4.225 3.798-8.962 1.436-9.265-2.59-.19-4.592 1.8-6.066 4.187-.737-1.231-2.117-2.349-3.156-2.501-1.909-.265-3.043.758-2.552 2.444.378 1.251 2.382 2.975 4.101 3.203-.661 1.497-1.133 2.88-1.455 3.77-1.058 2.937-1.342 8.129-1.342 8.129s1.361-.227 4.063-2.331c.605-.454 1.985-2.785 2.854-4.054.51.189 1.247.36 2.287.473 5.083.588 4.932-3.088 3.553-3.884" clip-rule="evenodd"/><path fill="#000091" fill-rule="evenodd" d="m37.79 190.458-.044-.055c-.853-1.037-2.031-1.854-3.012-1.997-2.311-.321-3.788 1.069-3.177 3.167l.018.055c.436 1.331 2.162 2.843 3.809 3.378l.029.009-.083.202q-.217.525-.428 1.085l-.086.227c-.067.18-.133.358-.202.55l-.4 1.114c-.31.858-.57 1.932-.787 3.176a46 46 0 0 0-.462 3.515l-.028.308-.049.579-.025.341-.024.372a.568.568 0 0 0 .66.592l.052-.01q.102-.022.281-.078a7 7 0 0 0 .833-.335c.858-.405 1.87-1.033 3.034-1.929l.117-.091c.38-.285.862-.947 1.732-2.282l.782-1.209.223-.34.04.012q.749.213 1.82.339l.134.015c2.497.289 4.162-.384 4.779-1.755.523-1.163.104-2.618-.882-3.187l-.06-.034c-.71-.39-1.746-.541-2.818-.438l-.091.01.06-.123c.92-1.887 1.594-3.66 1.898-5.077l.031-.149c.418-2.098.003-3.501-1.517-3.696l-.03-.003c-2.328-.171-4.326 1.17-6.047 3.627zm5.97-2.613.057.004-.014-.002c.657.084.868.862.521 2.478-.34 1.588-1.208 3.725-2.387 5.958a.568.568 0 0 0 .661.811c1.232-.363 2.583-.289 3.278.116.47.271.706 1.092.416 1.736-.379.841-1.526 1.316-3.524 1.103l-.095-.01c-.934-.103-1.65-.255-2.154-.442a.565.565 0 0 0-.665.211l-.104.153-.192.289-1.007 1.552c-.72 1.101-1.178 1.731-1.408 1.916l-.015.012c-1.158.901-2.138 1.513-2.946 1.894l-.11.051-.04.018.009-.11q.023-.284.053-.591c.11-1.17.259-2.338.45-3.426.198-1.136.432-2.115.7-2.887l.306-.855c.12-.333.222-.613.328-.896.277-.741.55-1.419.842-2.082a.57.57 0 0 0-.444-.794c-1.425-.188-3.3-1.701-3.632-2.803-.36-1.235.38-1.932 1.93-1.717.834.122 2.082 1.117 2.748 2.231a.567.567 0 0 0 .968.007c1.623-2.628 3.442-4.038 5.47-3.925" clip-rule="evenodd"/><path fill="#000091" fill-rule="evenodd" d="M23.956 222.394h10.338c7.219 0 13.077-5.874 13.077-13.112v-.493a4.95 4.95 0 0 0-4.951-4.965H15.83a4.95 4.95 0 0 0-4.951 4.965v.493c0 7.238 5.858 13.112 13.077 13.112" clip-rule="evenodd"/><path fill="#ff8d7e" fill-rule="evenodd" d="M212.635 115.565c40.839-2.084 46.66 19.573 45.148 36.02-1.55 16.845-6.558 70.904-6.558 70.904.246.227-97.25.227-96.966 0 0 0 5.008-54.059 6.558-70.904 1.511-16.447 11.357-38.104 51.818-36.02" clip-rule="evenodd"/><path fill="#6a6af4" fill-rule="evenodd" d="M228.699 199.277c-5.575-7.068-10.735-9.682-15.61-9.929-1.815-8.072-3.95-16.181-6.275-22.491-15.59-42.425-79.787-19.99-87.195-16.883-10.13 4.244-20.694 12.979-29.047 28.877-2.721 0-5.783.303-9.07.815-12.133 1.857-20.58 13.169-18.993 23.59 2.286 20.047 13.38 19.384 24.151 18.683.51.322 1.115.512 1.777.512h126.976c.132 0 .284-.019.416-.019h8.995c7.824-6.689 9.657-16.353 3.875-23.155" clip-rule="evenodd"/><path fill="#fff" fill-rule="evenodd" d="m137.42 132.39.643 14.325s-1.474 11.35 9.279 12.089c13.437.909 16.063-9.417 16.063-9.417l.945-14.193z" clip-rule="evenodd"/><path fill="#000091" fill-rule="evenodd" d="m136.854 132.416.64 14.277-.009.088-.022.259c-.132 1.82.045 3.92.778 5.933 1.347 3.701 4.262 6.068 9.062 6.398 6.266.424 10.792-1.461 13.819-4.869a14 14 0 0 0 2.233-3.395c.189-.407.341-.786.459-1.128l.049-.146q.067-.205.092-.306a1 1 0 0 0 .016-.103l.945-14.192a.57.57 0 0 0-.507-.603l-26.93-2.804a.567.567 0 0 0-.625.591m1.162.607 25.732 2.68-.904 13.588-.012.04a7 7 0 0 1-.089.277c-.106.305-.243.648-.415 1.018a12.9 12.9 0 0 1-2.052 3.119c-2.796 3.148-6.982 4.892-12.896 4.491-4.335-.298-6.875-2.36-8.074-5.653-.669-1.838-.833-3.787-.711-5.46l.013-.162.017-.173a1 1 0 0 0 .005-.099z" clip-rule="evenodd"/><path fill="#fff" fill-rule="evenodd" d="M135.701 112.173s-9.714-4.321-9.979 4.737c-.283 9.038 8.523 7.882 8.523 7.882" clip-rule="evenodd"/><path fill="#000091" fill-rule="evenodd" d="M130.689 110.579c1.195-.04 2.459.166 3.713.533q.6.177 1.1.368l.096.037q.229.09.332.136a.568.568 0 0 1-.428 1.052l-.122-.051-.102-.042-.177-.069a15 15 0 0 0-1.017-.34c-1.148-.336-2.298-.523-3.356-.487-2.728.092-4.334 1.603-4.439 5.211-.118 3.761 1.345 5.874 3.889 6.819 1.226.456 2.529.58 3.659.511l.112-.008.127-.01.096-.011a.569.569 0 0 1 .147 1.128l-.099.011-.188.016c-1.303.095-2.804-.034-4.249-.571-2.994-1.113-4.761-3.665-4.627-7.919.123-4.224 2.224-6.201 5.533-6.314" clip-rule="evenodd"/><path fill="#fff" fill-rule="evenodd" d="M173.1 119.335s10.734-1.383 8.504 7.257-10.545 5.097-10.545 5.097" clip-rule="evenodd"/><path fill="#000091" fill-rule="evenodd" d="M173.489 118.727c1.31-.097 2.759-.047 4.139.262 1.649.369 2.972 1.068 3.83 2.182 1.04 1.35 1.305 3.202.695 5.564-.895 3.466-2.81 5.398-5.417 6.023-1.537.369-3.16.253-4.72-.159q-.412-.11-.754-.228l-.096-.033a7 7 0 0 1-.329-.126.569.569 0 0 1 .413-1.058l.092.037.074.028.083.03.045.017q.338.12.761.233c1.395.369 2.839.472 4.167.154 2.194-.526 3.793-2.139 4.583-5.203.965-3.739-.5-5.642-3.674-6.351-1.254-.281-2.599-.328-3.808-.238l-.13.011-.118.01-.131.014-.022.003a.568.568 0 0 1-.144-1.128l.079-.009q.124-.014.33-.031z" clip-rule="evenodd"/><path fill="#fff" fill-rule="evenodd" d="M172.288 128.146c-5.462 16.807-14.911 21.866-25.456 19.175-10.526-2.691-17.575-13.605-13.626-29.085 3.95-15.481 13.418-26.736 26.212-23.155 16.404 4.586 17.821 17.868 12.87 33.065" clip-rule="evenodd"/><path fill="#000091" fill-rule="evenodd" d="M142.603 99.1c-4.442 4.284-7.897 10.963-9.946 18.995-1.923 7.537-1.356 14.351 1.43 19.741 2.628 5.084 7.119 8.634 12.605 10.036 11.653 2.973 20.903-3.449 26.135-19.55 2.681-8.228 3.305-15.247 1.576-20.855-1.923-6.239-6.721-10.605-14.593-12.865l-.24-.068c-6.323-1.77-12.137-.092-16.967 4.567m16.663-3.471c7.657 2.14 12.23 6.259 14.053 12.173 1.649 5.347 1.045 12.142-1.57 20.167-5.061 15.574-13.758 21.613-24.777 18.801-5.174-1.322-9.4-4.662-11.878-9.457-2.652-5.13-3.195-11.659-1.338-18.936 2-7.842 5.359-14.336 9.633-18.457 4.551-4.389 9.955-5.949 15.877-4.291" clip-rule="evenodd"/><path fill="#000091" fill-rule="evenodd" d="M150.59 116.808a.567.567 0 0 1 1.074.361l-.01.032-4.269 11.634 4.149.818a.57.57 0 0 1 .452.635l-.006.033a.566.566 0 0 1-.633.453l-.032-.005-4.801-.947a.57.57 0 0 1-.433-.723l.011-.031zm8.576-4.877c2.07-.848 3.908-.157 5.41 1.459.357.384.668.794.932 1.203l.066.103c.125.2.214.359.265.461a.568.568 0 0 1-.996.542l-.054-.101-.026-.046a7.5 7.5 0 0 0-1.016-1.386c-1.214-1.306-2.589-1.823-4.153-1.183a.569.569 0 0 1-.428-1.052m-2.939 23.676a.566.566 0 0 1 .777-.201.57.57 0 0 1 .2.778c-.746 1.267-1.842 1.967-3.165 2.173-1.014.157-2.077.018-3.113-.306l-.152-.049a7 7 0 0 1-.828-.326.57.57 0 0 1-.26-.761.567.567 0 0 1 .759-.261l.028.014q.059.027.182.079.272.113.608.219c.885.277 1.784.394 2.602.267.999-.155 1.796-.664 2.362-1.626m-13.684-26.61c1.428-.448 2.915-.095 4.345.746.342.201.654.416.931.632l.118.093q.164.133.243.207a.57.57 0 0 1 .032.803.566.566 0 0 1-.774.056l-.094-.083-.08-.067-.139-.111a8 8 0 0 0-.811-.549c-1.181-.695-2.366-.977-3.432-.642a3.4 3.4 0 0 0-1.295.781.565.565 0 0 1-.801-.026.57.57 0 0 1 .027-.804 4.5 4.5 0 0 1 1.73-1.036m17.951 13.464c.201-1.261-.296-2.389-1.11-2.519s-1.637.785-1.838 2.046.296 2.389 1.11 2.519 1.637-.786 1.838-2.046m-16.052-2.291c.201-1.261-.296-2.389-1.11-2.519s-1.637.785-1.839 2.046.296 2.389 1.111 2.519c.814.131 1.637-.785 1.838-2.046" clip-rule="evenodd"/><path fill="#000091" fill-rule="evenodd" d="M191.715 153.877c-1.739-20.672-2.325-43.031-5.953-49.814-7.163-13.396-18.18-12.544-18.18-12.544-5.613-8.81-32.373-11.785-42.767 13.927a2.803 2.803 0 0 0 1.72 3.714c-6.709 16.352-3.401 57.128-3.401 57.128l16.724 2.521-.737-15.178c-1.53-3.278-1.058-6.897-1.058-6.897l-.208-4.585c-3.893-4.036-6.161-9.986-5.707-17.357-2.589-.265-6.652-1.686-6.463-7.882.245-7.807 7.502-5.666 9.487-4.927a45 45 0 0 1 1.511-3.486c5.008-1.194 10.772-3.866 16.102-9.436l-4.876 7.844s8.882 1.232 15.156-3.07c1.569 5.837 5.481 12.639 11.377 15.083l-.057.341c.321 0 .681 0 1.058.019.945.303 1.928.493 2.967.531 2.287.796 4.215 2.634 3.138 6.764-2.23 8.641-10.546 5.097-10.546 5.097l.019-.151c-2.022 5.097-4.46 8.886-7.219 11.558l-.416 6.31s-.132.511-.472 1.269c-.113 3.165-.454 14.571.038 18.134 14.495-.133 29.5-6.177 28.763-14.913" clip-rule="evenodd"/><path fill="#fff" d="M172.68 195.01q-1.764.252-2.904-.603-1.128-.871-1.388-2.694a4.8 4.8 0 0 1 .097-1.903 3.27 3.27 0 0 1 .923-1.592q.688-.658 1.888-.831 1.113-.159 1.954.252a3.25 3.25 0 0 1 1.347 1.166q.523.765.661 1.735a.63.63 0 0 1-.122.489q-.146.213-.45.256l-4.902.701q.254.952.961 1.456.704.49 1.875.322a4.6 4.6 0 0 0 1.083-.272q.43-.194.805-.455a.6.6 0 0 1 .252-.095.6.6 0 0 1 .428.101.53.53 0 0 1 .231.38.5.5 0 0 1-.07.335.8.8 0 0 1-.229.254 5.7 5.7 0 0 1-.975.612q-.525.251-1.465.386m-3.049-4.094 4.266-.61q-.151-.745-.564-1.159a2.06 2.06 0 0 0-.907-.564 2.3 2.3 0 0 0-.971-.082 2.3 2.3 0 0 0-.909.351q-.446.285-.712.795-.267.51-.203 1.269m-4.488 5.171a4.2 4.2 0 0 1-1.973-.176 3.7 3.7 0 0 1-1.605-1.113q-.66-.791-.831-1.991-.173-1.215.24-2.145a3.6 3.6 0 0 1 1.231-1.504 4.1 4.1 0 0 1 1.843-.735q.853-.122 1.45.029a4.6 4.6 0 0 1 1.006.328q.316.147.361.465a.6.6 0 0 1-.103.413.5.5 0 0 1-.363.244.66.66 0 0 1-.331-.041 5.5 5.5 0 0 0-.785-.227q-.38-.08-.944.002-1.259.179-1.863 1.004-.591.821-.426 1.979.165 1.156.963 1.78.811.622 2.07.442.564-.08.906-.262.342-.196.69-.438a.7.7 0 0 1 .306-.132.5.5 0 0 1 .417.132q.186.165.215.368.046.318-.217.547a5.7 5.7 0 0 1-.873.597q-.532.312-1.384.434m-11.584 1.581a.64.64 0 0 1-.489-.122.64.64 0 0 1-.255-.436l-.886-6.203a.66.66 0 0 1 .12-.504.63.63 0 0 1 .436-.254.64.64 0 0 1 .49.121.63.63 0 0 1 .27.449l.085.593q.39-.573.954-1.066.576-.511 1.545-.649.825-.118 1.459.19.632.294 1.029.901.394.593.506 1.373l.586 4.107a.62.62 0 0 1-.136.492.64.64 0 0 1-.436.254.64.64 0 0 1-.49-.122.64.64 0 0 1-.254-.436l-.566-3.962q-.118-.824-.559-1.233-.43-.426-1.283-.304-.781.111-1.3.614a5 5 0 0 0-.873 1.113l.619 4.338a.62.62 0 0 1-.136.492.64.64 0 0 1-.436.254m-6.88 1.056q-.622.09-1.208-.093a2.24 2.24 0 0 1-.973-.613q-.388-.447-.486-1.126-.147-1.026.57-1.793.729-.782 2.421-1.025l1.75-.25-.017-.115q-.138-.969-.673-1.306-.537-.351-1.52-.21a4.5 4.5 0 0 0-1.054.268q-.433.165-.82.353a.8.8 0 0 1-.184.056.52.52 0 0 1-.399-.105.54.54 0 0 1-.214-.368q-.056-.39.297-.603a7 7 0 0 1 1.062-.521 5.7 5.7 0 0 1 1.365-.357q1.056-.151 1.781.173a2.65 2.65 0 0 1 1.136.93q.411.605.512 1.314l.585 4.092a.62.62 0 0 1-.136.492.64.64 0 0 1-.436.254.64.64 0 0 1-.49-.122.64.64 0 0 1-.254-.436l-.054-.376q-.332.46-.933.901-.602.44-1.628.586m.326-1.227a2.6 2.6 0 0 0 1.225-.514q.546-.417.847-.888l-.173-1.215-1.576.225q-1.013.145-1.568.49-.541.343-.453.964.066.464.434.765.382.299 1.264.173m-10.377 2.59a.64.64 0 0 1-.49-.122.64.64 0 0 1-.254-.436l-.886-6.203a.65.65 0 0 1 .556-.758.63.63 0 0 1 .489.122.63.63 0 0 1 .271.448l.084.593q.391-.573.955-1.066.576-.51 1.545-.649.824-.117 1.458.19.633.294 1.029.901.395.593.506 1.374l.587 4.106a.61.61 0 0 1-.137.492.63.63 0 0 1-.435.254.63.63 0 0 1-.49-.122.64.64 0 0 1-.254-.436l-.566-3.962q-.118-.824-.56-1.233-.43-.426-1.283-.304-.78.112-1.299.614a5 5 0 0 0-.874 1.113l.62 4.338a.62.62 0 0 1-.136.492.64.64 0 0 1-.436.254m-5.536.791a.64.64 0 0 1-.489-.122.64.64 0 0 1-.254-.436l-.886-6.204a.63.63 0 0 1 .121-.489.61.61 0 0 1 .434-.269.62.62 0 0 1 .492.137.61.61 0 0 1 .268.433l.089.622q.316-.576.82-1.076a2.17 2.17 0 0 1 1.256-.607l.073-.011a.6.6 0 0 1 .475.124.64.64 0 0 1 .254.436.6.6 0 0 1-.124.475.7.7 0 0 1-.453.242l-.072.01a2.4 2.4 0 0 0-1.235.546 3 3 0 0 0-.824 1.047l.628 4.396a.61.61 0 0 1-.137.491.63.63 0 0 1-.436.255m-5.534.864q-1.764.252-2.904-.604-1.128-.872-1.388-2.693a4.8 4.8 0 0 1 .097-1.903 3.27 3.27 0 0 1 .923-1.592q.688-.66 1.888-.831 1.114-.159 1.954.252.84.397 1.347 1.165.523.767.661 1.735a.63.63 0 0 1-.122.49q-.145.213-.45.256l-4.902.7q.255.953.961 1.457.704.49 1.875.322a4.5 4.5 0 0 0 1.083-.273q.43-.194.805-.454a.6.6 0 0 1 .252-.095.6.6 0 0 1 .428.101q.196.135.231.38a.5.5 0 0 1-.07.335.8.8 0 0 1-.229.254 5.7 5.7 0 0 1-.975.611q-.525.252-1.465.387m-3.049-4.095 4.266-.609q-.15-.745-.564-1.159a2.04 2.04 0 0 0-.907-.564 2.3 2.3 0 0 0-.971-.082 2.3 2.3 0 0 0-.909.351q-.446.285-.712.795t-.203 1.268m-3.125 4.976a4 4 0 0 1-.63.031 2.2 2.2 0 0 1-.725-.117 1.57 1.57 0 0 1-.647-.498q-.287-.358-.382-1.023l-.641-4.483-1.026.147q-.275.04-.314-.235a.3.3 0 0 1 .095-.265l1.692-2.204a1 1 0 0 1 .076-.085.25.25 0 0 1 .151-.08.23.23 0 0 1 .2.06.28.28 0 0 1 .116.19l.165 1.157 1.634-.234a.56.56 0 0 1 .428.101.56.56 0 0 1 .217.383.58.58 0 0 1-.102.427.55.55 0 0 1-.382.217l-1.634.234.624 4.366q.06.42.246.585t.409.178q.235-.005.409-.029.347-.05.498-.13a.9.9 0 0 1 .351-.124.52.52 0 0 1 .382.093q.18.122.213.353.048.333-.26.554a3.4 3.4 0 0 1-.537.268 2.6 2.6 0 0 1-.626.163m-5.506.713a.63.63 0 0 1-.489-.122.63.63 0 0 1-.254-.435l-1.341-9.385a.65.65 0 0 1 .556-.758.65.65 0 0 1 .76.57l1.34 9.385a.63.63 0 0 1-.121.489.65.65 0 0 1-.451.256m-6.88 1.057a2.7 2.7 0 0 1-1.208-.093 2.24 2.24 0 0 1-.973-.613q-.389-.447-.486-1.126-.145-1.027.57-1.793.73-.783 2.422-1.025l1.749-.25-.016-.116q-.139-.968-.674-1.305-.537-.35-1.52-.211a4.5 4.5 0 0 0-1.054.269q-.433.165-.82.353a1 1 0 0 1-.184.056.52.52 0 0 1-.398-.106.53.53 0 0 1-.215-.367q-.055-.392.297-.603a7 7 0 0 1 1.062-.521 5.7 5.7 0 0 1 1.366-.357q1.055-.151 1.78.173a2.63 2.63 0 0 1 1.136.93q.411.605.513 1.314l.584 4.092a.61.61 0 0 1-.136.491.63.63 0 0 1-.436.254.64.64 0 0 1-.49-.121.64.64 0 0 1-.254-.436l-.053-.376q-.333.46-.934.9t-1.628.587m.327-1.227a2.6 2.6 0 0 0 1.225-.514q.544-.418.846-.889l-.173-1.214-1.576.225q-1.013.145-1.568.489-.542.344-.452.965.066.463.433.765.383.299 1.265.173"/><path fill="#fff" fill-rule="evenodd" d="m181.227 191.433-.095-10.687-2.721 1.876s-.17.189.094 3.714c.36 4.642-4.63 4.244-5.008 3.088s.511-7.92 1.739-9.985c.756-1.308 4.592-4.15 7.351-6.102a5.92 5.92 0 0 1 6.067-.454c4.101 2.046 12.132 8.829 13.228 12.145.473 1.402 2.778 9.531 2.778 9.531l2.665 5.969-14.041 5.874-3.95-8.849c-5.877 1.118-8.032-5.855-8.032-5.855" clip-rule="evenodd"/><path fill="#000091" fill-rule="evenodd" d="M182.261 172.872c1.955-1.376 4.523-1.573 6.645-.498 4.693 2.342 12.446 9.245 13.513 12.472l.051.155c.135.416.361 1.17.665 2.204l.677 2.328.473 1.646.909 3.185 2.648 5.932a.57.57 0 0 1-.268.743l-.031.014-14.041 5.873a.565.565 0 0 1-.721-.261l-.015-.031-3.772-8.451-.029.004c-2.722.348-4.893-.869-6.526-3.09l-.056-.077a12.2 12.2 0 0 1-1.233-2.156l-.063-.144a9 9 0 0 1-.326-.854.5.5 0 0 1-.025-.129v-.02l-.002-.002a.6.6 0 0 1-.073-.244l-.001-.033-.085-9.618-1.643 1.132-.005.11c-.019.478.012 1.413.121 2.926l.022.304c.181 2.336-.882 3.837-2.645 4.311-1.448.39-3.149-.03-3.466-1.002-.486-1.485.577-8.313 1.751-10.386l.035-.061c.698-1.207 3.431-3.392 7.516-6.282m6.137.518a5.36 5.36 0 0 0-5.484.412l-.572.406c-3.531 2.522-6.019 4.533-6.601 5.491l-.018.031c-.506.85-1.022 2.777-1.38 5.013l-.047.306c-.299 1.971-.4 3.768-.26 4.198l.006.007a.5.5 0 0 0 .104.084c.115.075.281.143.48.192a3.1 3.1 0 0 0 1.505-.025c1.218-.328 1.926-1.305 1.815-3.045l-.05-.697c-.116-1.692-.13-2.644-.077-3.078l.003-.024c.025-.182.062-.302.168-.419l.064-.062.036-.027 2.721-1.876a.567.567 0 0 1 .887.432l.001.032.095 10.673.013.024q.015.029.026.06l.035.105.055.155q.107.29.263.641c.298.667.669 1.334 1.116 1.954 1.498 2.074 3.438 3.115 5.927 2.641a.57.57 0 0 1 .608.296l.015.031 3.724 8.343 12.994-5.436-2.427-5.437-.015-.038-.032-.107-.413-1.452-.487-1.701-.819-2.838c-.496-1.706-.851-2.898-1.014-3.393l-.019-.055c-.952-2.88-8.494-9.596-12.946-11.817" clip-rule="evenodd"/><path fill="#fff" fill-rule="evenodd" d="M183.816 176.729s-6.331 3.751-6.407 8.072 1.059 8.469 3.572 8.583 1.739-1.989 1.739-1.989" clip-rule="evenodd"/><path fill="#000091" fill-rule="evenodd" d="M183.527 176.24a.567.567 0 0 1 .606.96l-.164.102-.08.05-.043.028q-.32.204-.705.475a21 21 0 0 0-2.143 1.733c-1.871 1.745-2.992 3.534-3.022 5.223-.08 4.553 1.165 7.921 3.03 8.006.861.039 1.164-.166 1.24-.539a1.4 1.4 0 0 0-.023-.556l-.012-.052-.02-.069-.003-.009a.568.568 0 1 1 1.063-.394l.018.051q.028.085.059.218c.078.338.1.69.029 1.039-.195.955-1.014 1.509-2.402 1.446-2.755-.124-4.202-4.041-4.113-9.161.037-2.071 1.308-4.1 3.384-6.036a22 22 0 0 1 2.262-1.829l.199-.139q.244-.168.462-.31l.164-.105z" clip-rule="evenodd"/><path fill="#fff" fill-rule="evenodd" d="M185.422 179.78s-5.461 3.657-4.611 6.177c.832 2.52 2.722 7.996 3.836 8.678 1.985 1.232 2.968-1.326 2.968-1.326" clip-rule="evenodd"/><path fill="#000091" fill-rule="evenodd" d="M185.107 179.307a.567.567 0 0 1 .658.925l-.034.024-.108.075-.076.053q-.235.166-.518.38c-.536.406-1.073.849-1.571 1.314-.838.781-1.479 1.539-1.844 2.225q-.466.88-.265 1.475l.175.525c1.394 4.165 2.735 7.429 3.422 7.849.726.451 1.25.275 1.74-.36.117-.152.219-.318.304-.484l.031-.061.053-.115.011-.028a.567.567 0 1 1 1.058.409l-.021.052a4.2 4.2 0 0 1-.539.922c-.811 1.052-1.945 1.432-3.231.633-1.085-.664-2.432-3.993-4.078-8.981-.247-.732-.106-1.531.339-2.37.435-.818 1.151-1.664 2.073-2.523a21 21 0 0 1 1.66-1.39l.166-.124q.163-.121.309-.226l.271-.189z" clip-rule="evenodd"/><path fill="#fff" fill-rule="evenodd" d="M188.465 182.622s-5.783.909-3.534 6.897c1.474 3.922 2.815 5.343 4.441 5.912 1.625.568 3.061-1.895 1.663-3.544l-1.607-2.425s2.004 2.35 2.741-.322c0 0-.964 5.059 1.379 6.859" clip-rule="evenodd"/><path fill="#000091" fill-rule="evenodd" d="M188.377 182.06a.567.567 0 0 1 .208 1.117l-.074.014-.069.014-.029.007a5.5 5.5 0 0 0-1.678.678c-1.67 1.029-2.294 2.714-1.274 5.429l.086.226c1.286 3.351 2.457 4.806 4.011 5.349 1.098.384 2.047-1.456 1.045-2.638l-.021-.026-.02-.028-1.606-2.425c-.388-.585.415-1.207.882-.708l.054.061.078.081q.145.148.315.283c.263.209.513.336.699.353.241.022.447-.164.638-.858.19-.69 1.205-.465 1.109.223l-.023.135-.01.063-.022.145q-.022.152-.043.329c-.113.97-.136 1.986-.011 2.924.167 1.265.583 2.212 1.271 2.74a.57.57 0 0 1 .105.797.566.566 0 0 1-.795.106c-.569-.437-.987-1.036-1.277-1.766l-.024-.061-.032.068-.03.06c-.534 1.036-1.596 1.586-2.655 1.216-1.968-.688-3.358-2.452-4.785-6.249-1.216-3.235-.382-5.489 1.741-6.797a6.6 6.6 0 0 1 1.522-.685l.122-.037c.256-.075.46-.119.592-.14m3.038 8.875-.027.007a1.3 1.3 0 0 1-.2.036l-.071.005.287.435v-.06q.002-.18.008-.359z" clip-rule="evenodd"/><path fill="#6a6af4" fill-rule="evenodd" d="M209.253 181.674c-.152 1.137 2.645 7.94-19.088 23.136l2.835 3.221 19.654-4.775z" clip-rule="evenodd"/><path fill="#fff" fill-rule="evenodd" d="M104.103 215.648s7.805-.454.511 1.933c-10.47 1.8-19.692-4.794-23.188-9.436a9.84 9.84 0 0 1-.737-10.706c3.741-7.863 9.543-5.211 9.543-5.211s9.884 4.775 14.722 4.927" clip-rule="evenodd"/><path fill="#000091" fill-rule="evenodd" d="M83.57 192.734c2.035-1.548 4.206-1.789 6.165-1.27.338.089.587.181.743.252l.322.153.12.056q.484.227 1.08.495l.132.06a92 92 0 0 0 4.003 1.684c1.016.399 2.002.76 2.941 1.077l.286.095c2.317.765 4.237 1.208 5.61 1.251a.568.568 0 0 1-.036 1.136c-1.565-.049-3.679-.548-6.22-1.404a66 66 0 0 1-2.994-1.096 93 93 0 0 1-4.052-1.705l-.268-.121q-.459-.208-.851-.39l-.397-.186-.157-.075-.036-.016-.065-.025-.028-.01a5 5 0 0 0-.422-.132c-1.65-.437-3.466-.235-5.19 1.077-1.12.851-2.129 2.136-2.994 3.916l-.062.128-.016.031a9.27 9.27 0 0 0 .694 10.087c1.899 2.521 5.127 5.162 8.778 6.967 4.376 2.165 9.064 3.038 13.702 2.279l.12-.021.277-.092a20 20 0 0 0 1.705-.644l.139-.063-.028-.003a10 10 0 0 0-.474-.03l-.196-.006a22 22 0 0 0-1.392.01l-.274.012-.099.005a.569.569 0 0 1-.099-1.132l.048-.004.261-.012.122-.005c.488-.018.991-.024 1.464-.011l.203.007c.431.017.8.052 1.098.108.593.111.958.287 1.049.752.159.81-.844 1.336-3.492 2.202l-.08.02c-4.942.85-9.925-.062-14.556-2.352-3.806-1.883-7.174-4.637-9.18-7.301a10.41 10.41 0 0 1-.84-11.216l.05-.094.057-.116c.92-1.893 2.01-3.298 3.243-4.261z" clip-rule="evenodd"/><path fill="#fff" fill-rule="evenodd" d="M90.515 212.56s6.615 5.362 17.065 2.198c4.914-1.497 1.361-3.089 1.361-3.089" clip-rule="evenodd"/><path fill="#000091" fill-rule="evenodd" d="M108.424 211.438a.566.566 0 0 1 .749-.288c.19.086.458.233.73.439.585.442.933.965.831 1.603-.119.743-.847 1.336-2.204 1.845q-.36.136-.785.265c-5.568 1.686-10.515 1.205-14.66-.623-.82-.362-1.538-.75-2.153-1.139l-.12-.077a8 8 0 0 1-.653-.461.57.57 0 0 1 .685-.906l.085.066.072.053.029.022q.213.154.508.342c.568.36 1.238.721 2.004 1.059 3.909 1.725 8.581 2.179 13.874.576q.391-.119.716-.241c.567-.213.972-.427 1.223-.632.175-.142.247-.252.259-.329.018-.109-.11-.301-.393-.515a3 3 0 0 0-.358-.23l-.074-.04-.068-.034-.011-.005a.57.57 0 0 1-.286-.75" clip-rule="evenodd"/><path fill="#fff" fill-rule="evenodd" d="M91.99 208.202c2.305 1.174 4.252 3.467 8.409 3.505 6.123.057 9.241.209 10.772-.966s1.701-2.52-3.288-3.657" clip-rule="evenodd"/><path fill="#000091" fill-rule="evenodd" d="M107.33 206.958a.566.566 0 0 1 .679-.428l.23.053c2.35.556 3.704 1.197 4.214 2.014.56.899.122 1.782-.937 2.595-.778.597-1.861.898-3.516 1.03l-.349.025c-.943.063-1.836.078-3.918.062l-3.339-.033c-2.438-.023-4.113-.666-6.328-2.107l-.3-.197-.686-.456a23 23 0 0 0-.44-.284c-.334-.211-.626-.38-.907-.523a.57.57 0 0 1-.249-.765.566.566 0 0 1 .762-.249c.316.161.636.347.998.574l.217.139.24.156.867.576c2.071 1.362 3.556 1.957 5.716 1.997l3.457.035c2.217.017 3.064-.001 4.064-.075l.203-.017c1.397-.119 2.264-.365 2.819-.79.653-.502.82-.84.664-1.09-.312-.501-1.523-1.058-3.734-1.562a.57.57 0 0 1-.427-.68" clip-rule="evenodd"/><path fill="#fff" fill-rule="evenodd" d="M95.013 199.202s5.046 3.391 10.583 3.372 9.128 2.35 6.841 3.487c-2.286 1.118-10.299 1.8-13.909.625s-5.461-2.766-5.461-2.766" clip-rule="evenodd"/><path fill="#000091" fill-rule="evenodd" d="M94.542 198.885a.566.566 0 0 1 .758-.174l.152.098.087.055q.268.168.624.37c.679.386 1.443.772 2.274 1.132 2.381 1.033 4.817 1.648 7.157 1.64 2.667-.009 5.111.528 6.634 1.382 1.694.951 2.074 2.38.458 3.184-2.659 1.299-10.851 1.788-14.333.655a22 22 0 0 1-2.072-.788 18.5 18.5 0 0 1-2.657-1.418l-.125-.083a9 9 0 0 1-.801-.587.569.569 0 0 1 .738-.863l.039.033.15.117.12.088q.216.158.497.342a17.4 17.4 0 0 0 2.494 1.33q.929.408 1.967.747c3.207 1.044 11.095.574 13.482-.593.336-.167.404-.275.379-.372-.053-.2-.358-.501-.89-.8-1.314-.737-3.512-1.228-5.943-1.237h-.133c-2.516.008-5.099-.644-7.611-1.733-.87-.378-1.67-.782-2.383-1.187l-.183-.105a18 18 0 0 1-.408-.243l-.207-.131-.109-.07a.57.57 0 0 1-.155-.789" clip-rule="evenodd"/></g><defs><clipPath id="a"><path fill="#fff" d="M0 0h196v223H0z"/></clipPath></defs></svg>