<svg xmlns="http://www.w3.org/2000/svg" width="492" height="284" fill="none" xmlns:v="https://vecta.io/nano"><style><![CDATA[.B{fill:#fff}.C{fill:#2e186a}]]></style><g fill-rule="evenodd"><path d="M184.134 187.269c-3.847-2.039-7.134-1.08-10.741 2.758 1.643-9.274 1.603-20.506-5.772-22.385-7.576-1.958-11.865 2.758-16.314 14.15.161-9.753-1.763-22.344-9.86-22.863-9.098-.56-12.145 6.915-14.389 23.503-2.846-9.273-10.662-25.542-19.881-22.304-9.018 3.158-8.417 11.831-3.407 29.499-4.93-7.635-14.83-18.987-21.444-14.67-6.293 4.077-4.569 10.753 2.405 23.144-4.609-1.999-9.379-2.199-13.227 1.559-8.618 8.474-4.449 16.508 7.455 31.418 11.944 14.909 97.68-11.472 101.728-18.188 4.089-6.755 10.462-21.864 3.447-25.621z" class="B"/><path d="M130.557 163.801c-1.656 3.001-2.862 7.158-3.899 13.232l-.072.427-.009-.024c-1.652-4.188-3.779-8.325-6.092-11.546-4.21-5.864-8.869-8.593-13.707-6.894-4.852 1.699-7.314 4.97-7.749 10.159l-.026.347c-.227 3.442.358 7.729 1.838 13.793l.081.331-.103-.129c-2.041-2.529-4.229-4.831-6.37-6.609-4.775-3.964-9.19-5.279-12.781-2.934-3.509 2.273-4.889 5.402-4.305 9.621l.023.159c.459 3.083 1.928 6.807 4.621 11.891l.174.328-.101-.026c-4.328-1.07-8.239-.228-11.417 2.876-4.554 4.478-5.885 9.043-4.28 14.49l.088.291c1.437 4.622 4.835 9.832 11.548 18.24 5.782 7.218 26.626 6.192 55.044-.565 23.309-5.541 46.318-13.874 48.655-17.751 2.501-4.133 4.901-9.609 6.026-14.273 1.518-6.297.776-10.979-3.04-13.023l-.148-.077c-3.277-1.683-6.291-1.454-9.309.657l-.169.12.025-.199c.485-4.029.508-7.747-.029-10.856-.869-5.025-3.189-8.366-7.156-9.377l-.239-.06c-6.599-1.611-11.043 1.291-15.162 9.596l-.144.294-.005-.07c-.253-3.604-.828-6.937-1.753-9.72-1.766-5.313-4.76-8.511-9.091-8.788-4.969-.306-8.463 1.618-10.89 5.931l-.077.138zm10.816-3.676c5.982.384 8.936 9.269 8.732 21.647-.022 1.338 1.836 1.702 2.323.455 4.495-11.51 8.414-15.099 14.891-13.424 5.491 1.399 6.911 9.609 4.889 21.015-.208 1.174 1.244 1.898 2.062 1.028l.264-.276c3.2-3.29 5.857-3.927 9.036-2.243 2.552 1.367 3.126 4.992 1.835 10.348-1.061 4.404-3.364 9.658-5.747 13.595-.774 1.284-6.644 4.128-15.304 7.264-9.192 3.329-20.667 6.734-31.848 9.393-27.284 6.486-47.728 7.493-52.607 1.402l-.807-1.016c-6.123-7.746-9.187-12.573-10.402-16.696-1.347-4.572-.28-8.231 3.659-12.104 3.143-3.069 7.155-3.372 11.903-1.313 1.056.458 2.092-.684 1.528-1.686-7.22-12.828-7.964-18.205-2.798-21.552 4.684-3.057 13.04 3.879 19.778 14.314.748 1.158 2.544.35 2.168-.976-5.339-18.827-4.855-25.414 2.648-28.041 3.568-1.253 7.295.93 10.955 6.027 3.004 4.184 5.72 10.094 7.378 15.497.377 1.23 2.169 1.084 2.341-.191 2.352-17.377 5.481-22.937 13.124-22.467z" fill="#fe7624"/><path d="M184.816 212.57l.08-.24-115.316.36.08.24c-6.132 1.199-10.501 7.035-9.499 13.47l8.618 55.481 116.879-.36 8.617-55.481c1.042-6.395-3.327-12.271-9.459-13.47z" fill="#ffc29e"/><path d="M373.682 192.584c-1.804 0-3.607.12-5.371.32-9.579-13.191-20.562-24.383-32.106-31.498-30.061-18.467-71.345-13.19-109.864 1.039-26.494 9.754-60.043 41.251-81.567 63.556-28.057 2.118-49.621 21.145-48.339 42.929.281 4.757 1.643 9.234 3.848 13.351l94.153.639c.16-.239.32-.519.481-.759l139.645-.48c.16.2.321.4.481.64l77.318-.12c7.175-9.473 11.464-21.585 11.464-34.816 0-30.298-22.446-54.801-50.143-54.801z" fill="#24348c"/><path d="M338.971 163.205c-35.553 21.985-67.458 22.464-88.14 18.907-19.159-3.278-32.988-10.633-37.477-13.511l-2.325 1.319c3.688 2.519 18.118 10.833 38.96 14.47a118.43 118.43 0 0 0 20.562 1.799 119.93 119.93 0 0 0 21.003-1.839c16.875-2.998 33.509-9.593 49.541-19.626-.721-.56-1.402-1.039-2.124-1.519zm-3.687 37.773c5.651-7.914 12.625-12.351 20.762-13.23a26.74 26.74 0 0 1 8.818.559l-2.285-2.838c-1.843-.239-4.128-.359-6.653-.08-6.133.64-15.031 3.598-22.606 14.23-.401.52-.241 1.279.28 1.679a1.09 1.09 0 0 0 .682.24c.4-.04.761-.2 1.002-.56zm.441 28.101c.681 0 1.202-.52 1.242-1.159.08-3.518 1.483-11.512 6.413-19.027 5.692-8.754 14.109-14.11 24.931-16.028l-1.603-2.159c-10.822 2.199-19.56 7.994-25.372 16.868-4.85 7.435-6.694 15.589-6.814 20.266 0 .679.521 1.239 1.203 1.239zm-169.828-11.792c-5.09-.2-9.98.279-13.588 1.039l-3.567 3.597c4.449-2.438 29.781-5.476 40.242 6.396.241.28.562.4.922.4.281 0 .561-.08.802-.28.481-.44.561-1.199.12-1.679-6.774-7.715-18.518-9.234-24.931-9.473zm-21.925 8.794h.081c-.041-.04-.081 0-.081 0s-.04 0 0 0zm42.527 8.354c-14.149-10.673-31.785-11.312-39.24-10.993l-2.485 2.559c4.289-.36 24.771-1.319 40.282 10.352.201.16.481.24.722.24.361 0 .721-.16.962-.48.401-.519.28-1.279-.241-1.678zm-61.125 47.486s13.147-38.773 50.143-31.738 87.619 22.145 87.619 22.145v9.713l-137.762-.12z" class="B"/><path d="M149.988 251.779c-6.289 2.927-11.679 7.438-16.232 13.096-2.928 3.638-5.335 7.53-7.259 11.424a55.86 55.86 0 0 0-1.703 3.772l-.196.492-.17.441-.155.425-.038.108a1.2 1.2 0 0 0 1.138 1.583l137.762.12a1.2 1.2 0 0 0 1.203-1.199v-9.713a1.2 1.2 0 0 0-.857-1.149l-1.6-.473-2.162-.632-10.159-2.911-32.847-8.832-16.152-3.969-1.461-.344c-8.482-1.986-16.311-3.672-23.358-5.012-9.588-1.824-18.167-.758-25.754 2.773zm25.304-.418c7.411 1.41 15.701 3.206 24.715 5.334l16.111 3.96 31.102 8.341 1.685.475 9.31 2.663 3.719 1.088v7.619l-134.81-.117.11-.264c.4-.953.872-1.993 1.42-3.101 1.851-3.745 4.168-7.491 6.977-10.983 4.337-5.389 9.446-9.665 15.374-12.423 7.129-3.318 15.195-4.32 24.287-2.592z" class="C"/><g class="B"><path d="M417.492 138.702s-2.966-1.479-3.327-4.876 1.924-18.188 5.611-20.266c3.728-2.079 20.683-11.232 23.809-11.032s4.409 27.34-26.093 36.174z"/><path d="M419.295 115.199c6.333-22.104 11.504-27.061 14.51-24.902 2.726 1.959-2.806 16.028-4.409 23.343"/></g><path d="M426.793 92.99l.194-.29c2.563-3.755 5.225-5.025 7.521-3.377 1.354.973 1.5 2.983.958 6.178l-.079.451c-.362 1.977-.958 4.285-1.932 7.642l-1.591 5.416-1.293 4.886c-.142.647-.783 1.057-1.432.915a1.2 1.2 0 0 1-.918-1.427l.114-.51 1.13-4.225 1.603-5.457 2.027-8.09.049-.304c.326-2.086.224-3.339-.041-3.529-.923-.662-2.327.045-4.3 3.038l-.179.275c-2.533 3.966-5.299 10.918-8.172 20.945-.183.637-.848 1.006-1.487.824a1.2 1.2 0 0 1-.826-1.483l.207-.717c2.929-10.091 5.768-17.097 8.447-21.162z" class="C"/><path d="M447.233 110.402c3.166-5.156 8.417-4.876 5.691 3.878-2.685 8.554-4.649 19.666-9.66 24.702s-6.813 7.275-6.813 7.275-10.021 37.294-15.713 68.312c-8.216 44.848-23.768 53.482-38.278 48.326-14.51-5.117-17.195-25.422 2.605-64.795l30.262-62.356" class="B"/><path d="M446.207 109.776c1.798-2.927 4.412-4.568 6.509-3.772 2.309.878 2.759 4.006 1.411 8.455l-.292.943-1.176 4.096-.871 3.155c-2.548 9.166-4.434 13.861-7.567 17.07l-.788.795c-1.638 1.66-3.004 3.093-4.12 4.309l-.442.485-1.146 1.296-.181.211-.633 2.397-.568 2.176-1.781 6.944-6.712 27.908-.461 2.044-2.787 12.861-.347 1.678-2.051 10.43-.283 1.528c-3.92 21.395-9.693 35.698-17.087 43.521-6.614 6.998-14.421 8.688-22.775 5.719-8.028-2.831-12.355-9.897-12.365-20.68-.011-11.225 4.605-26.391 14.01-45.21l1.848-3.685 19.815-40.378 2.222-4.654 3.734-7.903 1.756-3.766 1.154-2.501c.275-.603.987-.869 1.592-.595a1.2 1.2 0 0 1 .624 1.523l-.15.335-1.25 2.704-1.716 3.675-4.411 9.319-1.682 3.516-21.1 42.913c-18.187 36.165-18.167 57.877-3.276 63.127 7.477 2.657 14.276 1.186 20.22-5.104 6.945-7.348 12.515-21.048 16.356-41.681l.116-.627 2.691-13.691 3.258-14.947 6.343-26.453.882-3.478 1.174-4.566.747-2.862.638-2.409c.043-.161.12-.311.224-.441l.165-.199.219-.257c.316-.37.711-.817 1.189-1.345l.608-.665c1.264-1.372 2.827-3.002 4.717-4.902l.182-.188c2.568-2.69 4.31-6.888 6.557-14.796l1.441-5.194 1.04-3.571.145-.465c1.083-3.478.824-5.397.084-5.678s-2.335.72-3.602 2.783c-.347.565-1.087.742-1.653.396s-.745-1.084-.398-1.649z" class="C"/><path d="M415.688 136.424c-2.886-1.959-2.525-13.231-5.772-18.148-4.008-6.115-7.936-12.471-.521-11.511 6.373.799 8.377 6.395 9.86 8.394" class="B"/><path d="M404.205 110.156c-.834-3.347 1.123-5.127 5.34-4.581 3.54.444 6.103 2.19 8.179 4.978l.097.132c.758 1.058 2.2 3.469 2.39 3.745l.011.015a1.2 1.2 0 0 1-.251 1.678c-.534.394-1.287.281-1.682-.251l-.041-.058-2.455-3.832c-1.714-2.301-3.729-3.674-6.552-4.028-1.474-.191-2.331-.056-2.646.231-.186.169-.249.562-.08 1.292l.024.101c.417 1.675 1.622 3.818 4.247 7.833l.135.206c1.227 1.859 1.983 4.319 2.754 8.253l.156.812.471 2.537c.733 3.87 1.305 5.652 2.026 6.187l.037.026c.549.373.691 1.119.317 1.666s-1.121.69-1.67.317c-1.504-1.021-2.151-2.907-3.029-7.515l-.542-2.915-.078-.408c-.715-3.7-1.397-5.991-2.388-7.544l-.745-1.144c-2.421-3.745-3.55-5.827-4.025-7.733z" class="C"/><path d="M443.545 119.756s5.652-13.67 7.535-20.026c2.085-6.915-5.21-7.914-8.737 2.039" class="B"/><path d="M448.738 93.227c3.127-.203 4.649 2.833 3.534 6.712l-.038.131-2.752 7.922-.221.585-.524 1.376-2.446 6.234-.685 1.7-.71 1.743-.239.583c-.253.612-.956.904-1.57.652a1.2 1.2 0 0 1-.679-1.5l.968-2.376.325-.804 2.454-6.215.512-1.334.344-.905 2.868-8.178.05-.168c.768-2.547.134-3.84-1.035-3.764-1.732.112-3.962 2.441-5.418 6.547-.221.625-.908.952-1.534.731a1.2 1.2 0 0 1-.733-1.53c1.742-4.915 4.654-7.955 7.529-8.142z" class="C"/><path d="M436.891 116.158s11.103-25.062 6.133-27.3c-4.529-2.039-7.976 7.115-13.668 24.782" class="B"/><path d="M435.722 92.988c2.412-4.65 4.861-6.544 7.797-5.223 3.019 1.36 2.446 6.55-.254 15.026a116.63 116.63 0 0 1-1.537 4.491c-.726 2-1.498 3.988-2.275 5.893l-.291.711-.761 1.81-.41.947c-.268.606-.978.88-1.586.612a1.2 1.2 0 0 1-.614-1.581l.314-.721.26-.611.573-1.369c.862-2.09 1.725-4.293 2.529-6.508.553-1.519 1.058-2.992 1.506-4.4l.197-.625c2.023-6.534 2.478-10.986 1.359-11.489-1.391-.626-2.874.572-4.829 4.447l-.224.452c-1.799 3.687-3.725 9.068-6.975 19.157-.203.63-.881.977-1.513.775a1.2 1.2 0 0 1-.777-1.509l.699-2.158c2.971-9.135 4.796-14.105 6.583-17.679l.229-.449z" class="C"/><path d="M255.44 134.385l1.564 28.26s-2.646 15.269 18.598 12.431c21.163-2.798 18.558-15.309 18.558-15.309l-6.534-35.095-32.186 9.713z" class="B"/><path d="M287.278 123.525l-32.186 9.713c-.531.16-.883.661-.852 1.213l1.556 28.136-.016.128-.026.237c-.197 2.03.032 4.345 1.031 6.575 2.442 5.443 8.524 8.135 18.976 6.738 8.531-1.128 14.08-3.886 17.124-7.837 2.212-2.872 2.812-5.891 2.52-8.451l-.02-.163c-.014-.099-.027-.182-.039-.246l-6.538-35.115a1.2 1.2 0 0 0-1.53-.928zm-30.585 11.735l29.996-9.052 6.299 33.84c.009.049.018.113.028.2.227 1.992-.252 4.4-2.038 6.719-2.619 3.4-7.59 5.87-15.535 6.921-9.473 1.265-14.496-.958-16.462-5.341-.804-1.792-.994-3.711-.833-5.364l.018-.168a3.15 3.15 0 0 1 .022-.165l.012-.09c.006-.06.007-.12.004-.181l-1.511-27.319z" class="C"/><path d="M295.763 89.018s16.433-6.156 17.075 10.912-17.075 12.631-17.075 12.631" class="B"/><path d="M297.354 87.31c2.374-.56 4.824-.76 7.149-.382 5.665.921 9.239 5.053 9.536 12.957.307 8.173-3.341 12.647-9.473 13.985-2.496.545-5.125.513-7.61.136l-.388-.062a14.85 14.85 0 0 1-1.098-.22 1.2 1.2 0 0 1-.873-1.455c.156-.619.769-1.004 1.39-.886l.261.059.124.026a17.52 17.52 0 0 0 .946.167c2.218.337 4.568.365 6.734-.108 5.017-1.095 7.847-4.564 7.584-11.552l-.018-.406c-.348-6.495-3.07-9.554-7.502-10.274-1.968-.32-4.117-.144-6.209.349-.405.096-.778.197-1.115.298l-.165.051-.301.098-.14.049c-.622.233-1.315-.081-1.549-.701a1.2 1.2 0 0 1 .703-1.544l.155-.056c.417-.147 1.053-.339 1.859-.529z" class="C"/><path d="M264.94 142.979c-17.797 0-32.226-14.39-32.226-32.137v-28.06c0-11.352 9.259-20.585 20.642-20.585h28.218c8.617 0 15.632 6.995 15.632 15.589v33.017c0 17.747-14.43 32.177-32.266 32.177z" class="B"/><path d="M281.574 60.997h-28.218c-12.047 0-21.845 9.77-21.845 21.785v28.06c0 18.41 14.968 33.336 33.429 33.336l.544-.004c18.262-.296 32.924-15.155 32.924-33.372V77.785c0-9.256-7.553-16.788-16.834-16.788zm-28.218 2.398h28.218c7.953 0 14.429 6.458 14.429 14.39v33.017c0 16.908-13.608 30.7-30.549 30.974l-.524.004c-17.123 0-31.014-13.853-31.014-30.938v-28.06c0-10.69 8.721-19.386 19.44-19.386z" class="C"/><path d="M304.701 126.032c-.04-10.913-1.563-18.867-1.964-20.866 0-.119.04-.279.04-.399 0-2.518-2.044-4.557-4.569-4.557v4.557l.12 4.557c.962-.04 1.844-.36 2.565-.88 1.483 9.194 4.409 36.614-7.936 59.918l-6.453 12.031c-11.624 21.625-19.32 35.935-19.119 48.686 0 .639.561 1.199 1.202 1.199.682 0 1.203-.56 1.203-1.199-.161-12.152 7.415-26.222 18.838-47.527l6.453-12.071c8.057-15.229 9.7-32.017 9.62-43.449zm-75.114-16.189c.562.32 1.163.52 1.844.56v-9.074c-2.124.2-3.808 1.799-4.088 3.877a1.35 1.35 0 0 0-.201.68c0 1.839 0 44.888 12.827 64.314 13.107 19.906 17.155 31.258 18.077 50.525.04.639.561 1.159 1.202 1.159h.04a1.23 1.23 0 0 0 1.163-1.239c-.922-19.826-5.051-31.418-18.478-51.764-10.261-15.509-12.065-47.806-12.386-59.038z" fill="#fe7624"/><g class="C"><path d="M255.059 90.337a1.2 1.2 0 0 1 1.22 1.108l.003.07.432 25.375.019.008c.087.028.183.022.316-.027l.059-.024c.618-.263 1.432-1.156 2.367-2.863.319-.581 1.049-.795 1.632-.478a1.2 1.2 0 0 1 .479 1.628c-2.197 4.011-4.561 5.02-6.449 3.597-.28-.212-.478-.429-.604-.609-.119-.171-.191-.37-.21-.576l-.005-.089-.441-25.902a1.2 1.2 0 0 1 1.182-1.219zm12.669 30.334c.671-.438 1.575-.111 1.809.654l.028.099.093.433c.248 1.406.114 2.96-.692 4.449-1.343 2.48-4.245 4.097-8.919 4.556a1.2 1.2 0 0 1-1.314-1.076 1.2 1.2 0 0 1 1.079-1.311c3.935-.386 6.112-1.599 7.038-3.308a4.25 4.25 0 0 0 .448-1.295l.025-.169-.036.02c-5.227 2.807-10.448 2.994-13.036.107l-.086-.098a1.2 1.2 0 0 1 .134-1.691c.506-.43 1.265-.37 1.695.134 1.861 2.175 6.785 1.726 11.734-1.504zm-1.719-39.689c2.624-1.99 5.739-2.203 9.099.462a1.2 1.2 0 0 1 .192 1.685c-.413.518-1.17.604-1.69.192-2.431-1.928-4.342-1.798-6.145-.43a7.77 7.77 0 0 0-.696.599l-.442.435-.171.153a1.22 1.22 0 0 1-.524.268c-.644.161-1.297-.23-1.458-.872-.121-.482.069-.969.444-1.25l.052-.037.263-.261a10.61 10.61 0 0 1 1.076-.943zm8.35 21.266c1.107 0 2.004-1.378 2.004-3.077s-.897-3.078-2.004-3.078-2.004 1.378-2.004 3.078.897 3.077 2.004 3.077zm-29.14.759c1.107 0 2.005-1.378 2.005-3.078s-.898-3.078-2.005-3.078-2.004 1.378-2.004 3.078.898 3.078 2.004 3.078zm-5.589-22.405c3.001-2.388 6.293-2.5 9.184 1.203.408.523.314 1.276-.21 1.683s-1.28.313-1.688-.209c-1.951-2.5-3.728-2.439-5.786-.801-.279.222-.531.448-.809.719l-.472.47-.172.157c-.164.136-.293.22-.539.281-.644.161-1.297-.23-1.458-.873-.121-.482.069-.969.444-1.25l.046-.033.309-.309 1.151-1.038z"/><path d="M272.996 55.202c-7.816.12-13.748.48-17.275 1.159-28.699 6.515-24.049 27.7-24.049 27.7s14.028 2.678 25.452-14.19c0 0 15.672 12.751 38.879 17.907.361-.08.802-.2 1.203-.32v1.159c1.362-.36 3.567-.759 5.852-.6-.241-8.354-1.764-18.907-8.658-25.702-4.89-4.837-12.105-7.235-21.404-7.115z"/></g><path d="M256.357 53.774c4.573-.633 11.772-1.05 17.975-1.011 12.388.131 20.667 4.683 25.574 12.711 1.932 3.161 3.279 6.758 4.186 10.794.67 2.979 1.029 5.709 1.366 9.567a1.2 1.2 0 0 1-1.093 1.299c-.662.057-1.245-.431-1.303-1.091l-.064-.717c-.748-8.053-2.03-13.506-5.146-18.604-4.468-7.311-11.976-11.439-23.541-11.561l-.706-.002c-5.922-.004-12.637.398-16.917.99a1.2 1.2 0 0 1-1.356-1.023 1.2 1.2 0 0 1 1.025-1.353z" class="B"/><g class="C"><path d="M348.31 37.814c-9.9-28.22-37.957-44.089-62.688-35.455-20.322 7.075-32.066 28.54-30.142 51.603 3.728-.639 9.58-1.039 17.516-1.159 9.981-.12 17.757 2.478 23.127 7.794 7.616 7.515 9.179 18.907 9.38 27.78 3.687.999 7.094 3.997 7.375 11.552.04.759-.642 6.635-.481 6.595 0 1.879.401 4.237 1.803 6.556 2.766 4.436 8.378 7.194 16.715 8.154h.16a1.21 1.21 0 0 0 1.202-1.039c.081-.64-.4-1.24-1.042-1.32-7.535-.879-12.585-3.237-14.95-7.035-.962-1.518-1.323-3.077-1.443-4.436 2.044 2.398 5.611 4.996 11.263 4.996 1.363 0 2.846-.16 4.449-.48.641-.12 1.082-.759.922-1.399-.12-.639-.762-1.079-1.403-.919-7.295 1.519-11.343-1.239-13.468-3.717a41.76 41.76 0 0 0 4.85-1.359c24.691-8.674 36.715-38.533 26.855-66.713zm-72.227 46.287c-8.767 0-15.873 7.087-15.873 15.829s7.106 15.829 15.873 15.829 15.872-7.087 15.872-15.829-7.106-15.829-15.872-15.829zm0 2.398c7.437 0 13.467 6.013 13.467 13.43s-6.03 13.431-13.467 13.431-13.468-6.013-13.468-13.431 6.03-13.43 13.468-13.43z"/><path d="M261.092 98.37a1.2 1.2 0 0 1 1.202 1.199 1.2 1.2 0 0 1-1.131 1.197l-.071.002h-9.54a1.2 1.2 0 0 1-1.202-1.199 1.2 1.2 0 0 1 1.132-1.197l.07-.002h9.54zm35.522-11.236c.578-.326 1.312-.123 1.639.454a1.2 1.2 0 0 1-.393 1.596l-.063.038-8.297 4.677c-.578.326-1.311.123-1.638-.454a1.2 1.2 0 0 1 .392-1.596l.063-.038 8.297-4.677z"/><path d="M236.401 84.101c-8.766 0-15.872 7.087-15.872 15.829s7.106 15.829 15.872 15.829 15.873-7.087 15.873-15.829-7.107-15.829-15.873-15.829zm0 2.398c7.438 0 13.468 6.013 13.468 13.43s-6.03 13.431-13.468 13.431-13.467-6.013-13.467-13.431 6.029-13.43 13.467-13.43z"/></g><path d="M337.288 266.932h-8.337l-4.089-60.477c-.28-4.237-3.968-7.675-8.217-7.675H200.448c-4.249 0-7.495 3.438-7.175 7.675l4.529 66.953c.281 4.237 3.969 7.674 8.217 7.674l131.229-.16a4.33 4.33 0 0 0 4.328-4.317v-5.316a4.28 4.28 0 0 0-4.288-4.357z" fill="#ff8d7e"/><path d="M266.743 238.792c-1.643-1.759-3.847-2.878-6.172-3.318.361-.519.601-1.159.681-1.838.201-2.159-1.363-4.158-3.447-4.477h-.12c-.441-1.639-1.283-4.357-2.245-5.516-.36-.44-1.042-.6-1.523-.32-.441.28-.521.839-.16 1.279.641.759 1.403 3.118 1.884 4.916-1.082.56-1.844 1.639-1.964 2.998-.121 1.239.36 2.399 1.122 3.238-.721.24-1.403.52-2.044.919-4.169 2.599-4.69 7.715-1.163 11.512 3.528 3.758 9.821 4.717 13.989 2.119 4.209-2.598 4.73-7.755 1.162-11.512zm-1.763-15.349s-6.012-1.2-6.814 3.797c.04 0 4.77 1.679 6.814-3.797z" class="B"/><path d="M489.96 281.082a1.2 1.2 0 0 1 1.202 1.199 1.2 1.2 0 0 1-1.131 1.197l-.071.002H1.321a1.2 1.2 0 0 1-1.202-1.199 1.2 1.2 0 0 1 1.132-1.197l.071-.002H489.96z" class="C"/></g></svg>