<svg width="492" height="284" viewBox="0 0 492 284" fill="none" xmlns="http://www.w3.org/2000/svg">
<path fill-rule="evenodd" clip-rule="evenodd" d="M184.134 187.269C180.287 185.23 177 186.189 173.393 190.027C175.036 180.753 174.996 169.521 167.621 167.642C160.045 165.684 155.756 170.4 151.307 181.792C151.468 172.039 149.544 159.448 141.447 158.929C132.349 158.369 129.302 165.844 127.058 182.432C124.212 173.159 116.396 156.89 107.177 160.128C98.1587 163.286 98.7599 171.959 103.77 189.627C98.8401 181.992 88.9398 170.64 82.3263 174.957C76.0334 179.034 77.757 185.71 84.7312 198.101C80.1218 196.102 75.352 195.902 71.5042 199.66C62.8865 208.134 67.0551 216.168 78.9594 231.078C90.9038 245.987 176.639 219.606 180.687 212.89C184.776 206.135 191.149 191.026 184.134 187.269Z" fill="white"/>
<path fill-rule="evenodd" clip-rule="evenodd" d="M130.557 163.801C128.901 166.802 127.695 170.959 126.658 177.033L126.586 177.46L126.577 177.436C124.925 173.248 122.798 169.111 120.485 165.89C116.275 160.026 111.616 157.297 106.778 158.996C101.926 160.695 99.4637 163.966 99.0288 169.155L99.0029 169.502C98.7761 172.944 99.361 177.231 100.841 183.295L100.922 183.626L100.819 183.497C98.7779 180.968 96.5899 178.666 94.4488 176.888C89.6741 172.924 85.2593 171.609 81.6678 173.954C78.1585 176.227 76.7783 179.356 77.3624 183.575L77.3853 183.734C77.8438 186.817 79.3132 190.541 82.0064 195.625L82.1808 195.953L82.0798 195.927C77.7522 194.857 73.8408 195.699 70.6629 198.803C66.1088 203.281 64.7776 207.846 66.3824 213.293L66.4705 213.584C67.9074 218.206 71.3056 223.416 78.0187 231.824C83.801 239.042 104.645 238.016 133.063 231.259C156.372 225.718 179.381 217.385 181.718 213.508C184.219 209.375 186.619 203.899 187.744 199.235C189.262 192.938 188.52 188.256 184.704 186.212L184.556 186.135C181.279 184.452 178.265 184.681 175.247 186.792L175.078 186.912L175.103 186.713C175.588 182.684 175.611 178.966 175.074 175.857C174.205 170.832 171.885 167.491 167.918 166.48L167.679 166.42C161.08 164.809 156.636 167.711 152.517 176.016L152.373 176.31L152.368 176.24C152.115 172.636 151.54 169.303 150.615 166.52C148.849 161.207 145.855 158.009 141.524 157.732C136.555 157.426 133.061 159.35 130.634 163.663L130.557 163.801ZM141.373 160.125C147.355 160.509 150.309 169.394 150.105 181.772C150.083 183.11 151.941 183.474 152.428 182.227C156.923 170.717 160.842 167.128 167.319 168.803C172.81 170.202 174.23 178.412 172.208 189.818C172 190.992 173.452 191.716 174.27 190.846L174.534 190.57C177.734 187.28 180.391 186.643 183.57 188.327C186.122 189.694 186.696 193.319 185.405 198.675C184.344 203.079 182.041 208.333 179.658 212.27C178.884 213.554 173.014 216.398 164.354 219.534C155.162 222.863 143.687 226.268 132.506 228.927C105.222 235.413 84.7784 236.42 79.8989 230.329L79.0917 229.313C72.9687 221.567 69.9045 216.74 68.6897 212.617C67.3428 208.045 68.4097 204.386 72.3484 200.513C75.4913 197.444 79.5034 197.141 84.2518 199.2C85.3083 199.658 86.3437 198.516 85.7798 197.514C78.5598 184.686 77.8154 179.309 82.9814 175.962C87.6657 172.905 96.0212 179.841 102.759 190.276C103.507 191.434 105.303 190.626 104.927 189.3C99.5882 170.473 100.072 163.886 107.575 161.259C111.143 160.006 114.87 162.189 118.53 167.286C121.534 171.47 124.25 177.38 125.908 182.783C126.285 184.013 128.077 183.867 128.249 182.592C130.601 165.215 133.73 159.655 141.373 160.125Z" fill="#FE7624"/>
<path fill-rule="evenodd" clip-rule="evenodd" d="M184.816 212.57L184.896 212.33L69.5802 212.69L69.6604 212.93C63.5279 214.129 59.1589 219.965 60.161 226.4L68.7786 281.881L185.658 281.521L194.275 226.04C195.317 219.645 190.948 213.769 184.816 212.57Z" fill="#FFC29E"/>
<path fill-rule="evenodd" clip-rule="evenodd" d="M373.682 192.584C371.878 192.584 370.075 192.704 368.311 192.904C358.732 179.713 347.749 168.521 336.205 161.406C306.144 142.939 264.86 148.216 226.341 162.445C199.847 172.199 166.298 203.696 144.774 226.001C116.717 228.119 95.1525 247.146 96.4352 268.93C96.7157 273.687 98.0785 278.164 100.283 282.281L194.436 282.92C194.596 282.681 194.756 282.401 194.917 282.161L334.562 281.681C334.722 281.881 334.883 282.081 335.043 282.321L412.361 282.201C419.536 272.728 423.825 260.616 423.825 247.385C423.825 217.087 401.379 192.584 373.682 192.584Z" fill="#24348C"/>
<path fill-rule="evenodd" clip-rule="evenodd" d="M338.971 163.205C303.418 185.19 271.513 185.669 250.831 182.112C231.672 178.834 217.843 171.479 213.354 168.601C212.593 169.041 211.831 169.481 211.029 169.92C214.717 172.439 229.147 180.753 249.989 184.39C256.803 185.589 263.657 186.189 270.551 186.189C277.566 186.189 284.58 185.589 291.554 184.35C308.429 181.352 325.063 174.757 341.095 164.724C340.374 164.164 339.693 163.685 338.971 163.205Z" fill="white"/>
<path fill-rule="evenodd" clip-rule="evenodd" d="M335.284 200.978C340.935 193.064 347.909 188.627 356.046 187.748C359.814 187.348 362.98 187.868 364.864 188.307C364.103 187.348 363.341 186.389 362.579 185.469C360.736 185.23 358.451 185.11 355.926 185.389C349.793 186.029 340.895 188.987 333.32 199.619C332.919 200.139 333.079 200.898 333.6 201.298C333.801 201.458 334.041 201.538 334.282 201.538C334.682 201.498 335.043 201.338 335.284 200.978Z" fill="white"/>
<path fill-rule="evenodd" clip-rule="evenodd" d="M335.725 229.079C336.406 229.079 336.927 228.559 336.967 227.92C337.047 224.402 338.45 216.408 343.38 208.893C349.072 200.139 357.489 194.783 368.311 192.865C367.79 192.145 367.269 191.426 366.708 190.706C355.886 192.905 347.148 198.7 341.336 207.574C336.486 215.009 334.642 223.163 334.522 227.84C334.522 228.519 335.043 229.079 335.725 229.079Z" fill="white"/>
<path fill-rule="evenodd" clip-rule="evenodd" d="M165.897 217.287C160.807 217.087 155.917 217.566 152.309 218.326C151.107 219.525 149.904 220.724 148.742 221.923C153.191 219.485 178.523 216.447 188.984 228.319C189.225 228.599 189.546 228.719 189.906 228.719C190.187 228.719 190.467 228.639 190.708 228.439C191.189 227.999 191.269 227.24 190.828 226.76C184.054 219.045 172.31 217.526 165.897 217.287Z" fill="white"/>
<path fill-rule="evenodd" clip-rule="evenodd" d="M143.972 226.081C143.972 226.081 144.012 226.081 144.053 226.081C144.012 226.041 143.972 226.081 143.972 226.081C143.972 226.081 143.932 226.081 143.972 226.081Z" fill="white"/>
<path fill-rule="evenodd" clip-rule="evenodd" d="M186.499 234.435C172.35 223.762 154.714 223.123 147.259 223.442C146.417 224.322 145.576 225.161 144.774 226.001C149.063 225.641 169.545 224.682 185.056 236.353C185.257 236.513 185.537 236.593 185.778 236.593C186.139 236.593 186.499 236.433 186.74 236.113C187.141 235.594 187.02 234.834 186.499 234.435Z" fill="white"/>
<path fill-rule="evenodd" clip-rule="evenodd" d="M125.374 281.921C125.374 281.921 138.521 243.148 175.517 250.183C212.513 257.218 263.136 272.328 263.136 272.328V282.041L125.374 281.921Z" fill="white"/>
<path fill-rule="evenodd" clip-rule="evenodd" d="M149.988 251.779C143.699 254.706 138.309 259.217 133.756 264.875C130.828 268.513 128.421 272.405 126.497 276.299C125.822 277.663 125.256 278.931 124.794 280.071L124.598 280.563C124.537 280.718 124.48 280.866 124.428 281.004L124.273 281.429C124.257 281.473 124.245 281.509 124.235 281.537C123.972 282.314 124.551 283.12 125.373 283.12L263.135 283.24C263.799 283.241 264.338 282.704 264.338 282.041V272.328C264.338 271.798 263.99 271.331 263.481 271.179L261.881 270.706L259.719 270.074C256.704 269.196 253.294 268.217 249.56 267.163C238.891 264.152 227.757 261.141 216.713 258.331C211.162 256.918 205.764 255.59 200.561 254.362L199.1 254.018C190.618 252.032 182.789 250.346 175.742 249.006C166.154 247.182 157.575 248.248 149.988 251.779ZM175.292 251.361C182.703 252.771 190.993 254.567 200.007 256.695C205.196 257.921 210.58 259.245 216.118 260.655C226.56 263.312 237.085 266.149 247.22 268.996L248.905 269.471C252.294 270.427 255.415 271.321 258.215 272.134L261.934 273.222V280.841L127.124 280.724L127.234 280.46C127.634 279.507 128.106 278.467 128.654 277.359C130.505 273.614 132.822 269.868 135.631 266.376C139.968 260.987 145.077 256.711 151.005 253.953C158.134 250.635 166.2 249.633 175.292 251.361Z" fill="#2E186A"/>
<path fill-rule="evenodd" clip-rule="evenodd" d="M417.492 138.702C417.492 138.702 414.526 137.223 414.165 133.826C413.804 130.428 416.089 115.638 419.776 113.56C423.504 111.481 440.459 102.328 443.585 102.528C446.712 102.727 447.994 129.868 417.492 138.702Z" fill="white"/>
<path fill-rule="evenodd" clip-rule="evenodd" d="M419.295 115.199C425.628 93.0947 430.799 88.1382 433.805 90.2967C436.531 92.2553 430.999 106.325 429.396 113.64" fill="white"/>
<path fill-rule="evenodd" clip-rule="evenodd" d="M426.793 92.9904L426.987 92.7005C429.55 88.9455 432.212 87.6751 434.508 89.3236C435.862 90.2962 436.008 92.3062 435.466 95.5016L435.387 95.9522C435.025 97.9289 434.429 100.237 433.455 103.594L431.864 109.01C431.119 111.568 430.871 112.528 430.571 113.896C430.429 114.543 429.788 114.953 429.139 114.811C428.491 114.67 428.08 114.031 428.221 113.384L428.335 112.874C428.593 111.738 428.858 110.741 429.465 108.649L431.068 103.192C432.139 99.5136 432.754 97.1145 433.095 95.1021L433.144 94.7985C433.47 92.7122 433.368 91.46 433.103 91.2696C432.18 90.6074 430.776 91.3144 428.803 94.3077L428.624 94.5828C426.091 98.5493 423.325 105.501 420.452 115.528C420.269 116.165 419.604 116.534 418.965 116.352C418.327 116.17 417.957 115.506 418.139 114.869L418.346 114.152C421.275 104.061 424.114 97.0548 426.793 92.9904Z" fill="#2E186A"/>
<path fill-rule="evenodd" clip-rule="evenodd" d="M447.233 110.402C450.399 105.246 455.65 105.526 452.924 114.28C450.239 122.834 448.275 133.946 443.264 138.982C438.254 144.019 436.451 146.257 436.451 146.257C436.451 146.257 426.43 183.551 420.738 214.569C412.522 259.417 396.97 268.051 382.46 262.895C367.95 257.778 365.265 237.473 385.065 198.1C404.866 158.688 415.327 135.744 415.327 135.744" fill="white"/>
<path fill-rule="evenodd" clip-rule="evenodd" d="M446.207 109.776C448.005 106.849 450.619 105.208 452.716 106.004C455.025 106.882 455.475 110.01 454.127 114.459L453.835 115.402C453.488 116.542 453.131 117.792 452.659 119.498L451.788 122.653C449.24 131.819 447.354 136.514 444.221 139.723L443.433 140.518C441.795 142.178 440.429 143.611 439.313 144.827L438.871 145.312C438.407 145.825 438.027 146.256 437.725 146.608L437.544 146.819L436.911 149.216L436.343 151.392C435.791 153.514 435.195 155.838 434.562 158.336C432.274 167.375 429.986 176.833 427.85 186.244L427.389 188.288C426.398 192.699 425.466 196.995 424.602 201.149L424.255 202.827C423.512 206.444 422.826 209.925 422.204 213.257L421.921 214.785C418.001 236.18 412.228 250.483 404.834 258.306C398.22 265.304 390.413 266.994 382.059 264.025C374.031 261.194 369.704 254.128 369.694 243.345C369.683 232.12 374.299 216.954 383.704 198.135L385.552 194.45C393.041 179.502 399.654 165.997 405.367 154.072L407.589 149.418C408.961 146.534 410.206 143.897 411.323 141.515L413.079 137.749L414.233 135.248C414.508 134.645 415.22 134.379 415.825 134.653C416.408 134.917 416.677 135.588 416.449 136.176L416.299 136.511L415.049 139.215L413.333 142.89C412.032 145.664 410.561 148.773 408.922 152.209L407.24 155.725C401.193 168.337 394.15 182.694 386.14 198.638C367.953 234.803 367.973 256.515 382.864 261.765C390.341 264.422 397.14 262.951 403.084 256.661C410.029 249.313 415.599 235.613 419.44 214.98L419.556 214.353C420.348 210.037 421.248 205.462 422.247 200.662C423.247 195.854 424.338 190.857 425.505 185.715C427.526 176.807 429.683 167.859 431.848 159.262L432.73 155.784C433.139 154.179 433.531 152.654 433.904 151.218L434.651 148.356L435.289 145.947C435.332 145.786 435.409 145.636 435.513 145.506L435.678 145.307L435.897 145.05C436.213 144.68 436.608 144.233 437.086 143.705L437.694 143.04C438.958 141.668 440.521 140.038 442.411 138.138L442.593 137.95C445.161 135.26 446.903 131.062 449.15 123.154L450.591 117.96C450.99 116.533 451.31 115.431 451.631 114.389L451.776 113.924C452.859 110.446 452.6 108.527 451.86 108.246C451.12 107.964 449.525 108.966 448.258 111.029C447.911 111.594 447.171 111.771 446.605 111.425C446.038 111.079 445.86 110.341 446.207 109.776Z" fill="#2E186A"/>
<path fill-rule="evenodd" clip-rule="evenodd" d="M415.688 136.424C412.802 134.465 413.163 123.193 409.916 118.276C405.908 112.161 401.98 105.805 409.395 106.765C415.768 107.564 417.772 113.16 419.255 115.159" fill="white"/>
<path fill-rule="evenodd" clip-rule="evenodd" d="M404.205 110.156C403.371 106.809 405.328 105.029 409.545 105.575C413.085 106.019 415.648 107.765 417.724 110.553L417.821 110.685C418.579 111.743 420.021 114.154 420.211 114.43L420.222 114.445C420.617 114.978 420.504 115.729 419.971 116.123C419.437 116.517 418.684 116.404 418.289 115.872L418.248 115.814C417.906 115.309 416.406 112.806 415.793 111.982C414.079 109.681 412.064 108.308 409.241 107.954C407.767 107.763 406.91 107.898 406.595 108.185C406.409 108.354 406.346 108.747 406.515 109.477L406.539 109.578C406.956 111.253 408.161 113.396 410.786 117.411L410.921 117.617C412.148 119.476 412.904 121.936 413.675 125.87L413.831 126.682L414.302 129.219C415.035 133.089 415.607 134.871 416.328 135.406L416.365 135.432C416.914 135.805 417.056 136.551 416.682 137.098C416.309 137.646 415.561 137.788 415.012 137.415C413.508 136.394 412.861 134.508 411.983 129.9L411.441 126.985L411.363 126.577C410.648 122.877 409.966 120.586 408.975 119.033L408.23 117.889C405.809 114.144 404.68 112.062 404.205 110.156Z" fill="#2E186A"/>
<path fill-rule="evenodd" clip-rule="evenodd" d="M443.545 119.756C443.545 119.756 449.197 106.086 451.08 99.7302C453.165 92.8151 445.87 91.8158 442.343 101.769" fill="white"/>
<path fill-rule="evenodd" clip-rule="evenodd" d="M448.738 93.2274C451.865 93.0247 453.387 96.0608 452.272 99.9391L452.234 100.07C451.658 102.013 450.713 104.712 449.482 107.992L449.261 108.577C449.091 109.027 448.916 109.486 448.737 109.953C447.956 111.992 447.127 114.101 446.291 116.187L445.606 117.887L444.896 119.63L444.657 120.213C444.404 120.825 443.701 121.117 443.087 120.865C442.495 120.621 442.202 119.961 442.408 119.365L443.376 116.989C443.482 116.729 443.59 116.46 443.701 116.185C444.533 114.118 445.366 112.015 446.155 109.97L446.667 108.636L447.011 107.731C448.295 104.334 449.282 101.537 449.879 99.5531L449.929 99.3851C450.697 96.8379 450.063 95.5448 448.894 95.6206C447.162 95.7329 444.932 98.0615 443.476 102.168C443.255 102.793 442.568 103.12 441.942 102.899C441.316 102.679 440.988 101.994 441.209 101.369C442.951 96.4539 445.863 93.4137 448.738 93.2274Z" fill="#2E186A"/>
<path fill-rule="evenodd" clip-rule="evenodd" d="M436.891 116.158C436.891 116.158 447.994 91.0961 443.024 88.8577C438.495 86.8191 435.048 95.9727 429.356 113.64" fill="white"/>
<path fill-rule="evenodd" clip-rule="evenodd" d="M435.722 92.9875C438.134 88.3379 440.583 86.4435 443.519 87.7648C446.538 89.1244 445.965 94.3148 443.265 102.791C442.807 104.231 442.291 105.734 441.728 107.282C441.002 109.282 440.23 111.27 439.453 113.175L439.162 113.886C438.889 114.545 438.634 115.151 438.401 115.696L437.991 116.643C437.723 117.249 437.013 117.523 436.405 117.255C435.798 116.988 435.523 116.28 435.791 115.674L436.105 114.953L436.365 114.342C436.545 113.918 436.737 113.46 436.938 112.973C437.8 110.883 438.663 108.68 439.467 106.465C440.02 104.946 440.525 103.473 440.973 102.065L441.17 101.44C443.193 94.9062 443.648 90.4545 442.529 89.9506C441.138 89.3243 439.655 90.5224 437.7 94.3979L437.476 94.8501C435.677 98.5367 433.751 103.918 430.501 114.007C430.298 114.637 429.62 114.984 428.988 114.782C428.356 114.579 428.008 113.904 428.211 113.273L428.91 111.115C431.881 101.98 433.706 97.0095 435.493 93.4363L435.722 92.9875Z" fill="#2E186A"/>
<path fill-rule="evenodd" clip-rule="evenodd" d="M255.44 134.385L257.004 162.645C257.004 162.645 254.358 177.914 275.602 175.076C296.765 172.278 294.16 159.767 294.16 159.767L287.626 124.672L255.44 134.385Z" fill="white"/>
<path fill-rule="evenodd" clip-rule="evenodd" d="M287.278 123.525L255.092 133.238C254.561 133.398 254.209 133.899 254.24 134.451L255.796 162.587L255.78 162.715C255.771 162.785 255.763 162.864 255.754 162.952C255.557 164.982 255.786 167.297 256.785 169.527C259.227 174.97 265.309 177.662 275.761 176.265C284.292 175.137 289.841 172.379 292.885 168.428C295.097 165.556 295.697 162.537 295.405 159.977L295.385 159.814C295.371 159.715 295.358 159.632 295.346 159.568L288.808 124.453C288.678 123.751 287.964 123.318 287.278 123.525ZM256.693 135.26L286.689 126.208L292.988 160.048C292.997 160.097 293.006 160.161 293.016 160.248C293.243 162.24 292.764 164.648 290.978 166.967C288.359 170.367 283.388 172.837 275.443 173.888C265.97 175.153 260.947 172.93 258.981 168.547C258.177 166.755 257.987 164.836 258.148 163.183L258.166 163.015C258.175 162.935 258.183 162.879 258.188 162.85L258.2 162.76C258.206 162.7 258.207 162.64 258.204 162.579L256.693 135.26Z" fill="#2E186A"/>
<path fill-rule="evenodd" clip-rule="evenodd" d="M295.763 89.0175C295.763 89.0175 312.196 82.8618 312.838 99.9298C313.479 116.998 295.763 112.561 295.763 112.561" fill="white"/>
<path fill-rule="evenodd" clip-rule="evenodd" d="M297.354 87.3103C299.728 86.7507 302.178 86.5501 304.503 86.928C310.168 87.8485 313.742 91.981 314.039 99.8852C314.346 108.058 310.698 112.532 304.566 113.87C302.07 114.415 299.441 114.383 296.956 114.006L296.568 113.944C296.079 113.862 295.705 113.783 295.47 113.724C294.826 113.563 294.435 112.911 294.597 112.269C294.753 111.65 295.366 111.265 295.987 111.383L296.248 111.442L296.372 111.468C296.647 111.525 296.965 111.582 297.318 111.635C299.536 111.972 301.886 112 304.052 111.527C309.069 110.432 311.899 106.963 311.636 99.975L311.618 99.5688C311.27 93.0733 308.548 90.0152 304.116 89.2951C302.148 88.9752 299.999 89.1512 297.907 89.6443C297.502 89.7398 297.129 89.8408 296.792 89.9423L296.627 89.993C296.504 90.0314 296.403 90.0645 296.326 90.0909L296.186 90.1404C295.564 90.3732 294.871 90.0594 294.637 89.4395C294.404 88.8195 294.718 88.1281 295.34 87.8952L295.495 87.839C295.912 87.6921 296.548 87.5003 297.354 87.3103Z" fill="#2E186A"/>
<path fill-rule="evenodd" clip-rule="evenodd" d="M264.94 142.979C247.143 142.979 232.714 128.589 232.714 110.842V82.7817C232.714 71.4298 241.973 62.1963 253.356 62.1963H281.574C290.191 62.1963 297.206 69.1913 297.206 77.7853V110.802C297.206 128.549 282.776 142.979 264.94 142.979Z" fill="white"/>
<path fill-rule="evenodd" clip-rule="evenodd" d="M281.574 60.9971H253.356C241.309 60.9971 231.511 70.7674 231.511 82.7817V110.842C231.511 129.252 246.479 144.178 264.94 144.178L265.484 144.174C283.746 143.878 298.408 129.019 298.408 110.802V77.7852C298.408 68.529 290.855 60.9971 281.574 60.9971ZM253.356 63.3954H281.574C289.527 63.3954 296.003 69.8536 296.003 77.7852V110.802C296.003 127.71 282.395 141.502 265.454 141.776L264.93 141.78C247.807 141.78 233.916 127.927 233.916 110.842V82.7817C233.916 72.092 242.637 63.3954 253.356 63.3954Z" fill="#2E186A"/>
<path fill-rule="evenodd" clip-rule="evenodd" d="M304.701 126.032C304.661 115.119 303.138 107.165 302.737 105.166C302.737 105.047 302.777 104.887 302.777 104.767C302.777 102.249 300.733 100.21 298.208 100.21V104.767L298.328 109.324C299.29 109.284 300.172 108.964 300.893 108.444C302.376 117.638 305.302 145.058 292.957 168.362C290.712 172.639 288.588 176.596 286.504 180.393C274.88 202.018 267.184 216.328 267.385 229.079C267.385 229.718 267.946 230.278 268.587 230.278C269.269 230.278 269.79 229.718 269.79 229.079C269.629 216.927 277.205 202.857 288.628 181.552C290.672 177.715 292.797 173.798 295.081 169.481C303.138 154.252 304.781 137.464 304.701 126.032Z" fill="#FE7624"/>
<path fill-rule="evenodd" clip-rule="evenodd" d="M229.587 109.843C230.149 110.163 230.75 110.363 231.431 110.403V101.329C229.307 101.529 227.623 103.128 227.343 105.206C227.223 105.406 227.142 105.646 227.142 105.886C227.142 107.725 227.142 150.774 239.969 170.2C253.076 190.106 257.124 201.458 258.046 220.725C258.086 221.364 258.607 221.884 259.248 221.884H259.288C259.97 221.844 260.451 221.284 260.451 220.645C259.529 200.819 255.4 189.227 241.973 168.881C231.712 153.372 229.908 121.075 229.587 109.843Z" fill="#FE7624"/>
<path fill-rule="evenodd" clip-rule="evenodd" d="M255.059 90.3371C255.699 90.3263 256.231 90.8165 256.279 91.4453L256.282 91.5157L256.714 116.891L256.733 116.899C256.82 116.927 256.916 116.921 257.049 116.872L257.108 116.848C257.726 116.585 258.54 115.692 259.475 113.985C259.794 113.404 260.524 113.19 261.107 113.507C261.69 113.825 261.904 114.553 261.586 115.135C259.389 119.146 257.025 120.155 255.137 118.732C254.857 118.52 254.659 118.303 254.533 118.123C254.414 117.952 254.342 117.753 254.323 117.547L254.318 117.458L253.877 91.5564C253.866 90.8942 254.395 90.3483 255.059 90.3371Z" fill="#2E186A"/>
<path fill-rule="evenodd" clip-rule="evenodd" d="M267.728 120.671C268.399 120.233 269.303 120.56 269.537 121.325L269.565 121.424C269.594 121.535 269.627 121.68 269.658 121.857C269.906 123.263 269.772 124.817 268.966 126.306C267.623 128.786 264.721 130.403 260.047 130.862C259.386 130.927 258.798 130.445 258.733 129.786C258.668 129.127 259.151 128.54 259.812 128.475C263.747 128.089 265.924 126.876 266.85 125.167C267.078 124.745 267.222 124.308 267.298 123.872L267.323 123.703L267.287 123.723C262.06 126.53 256.839 126.717 254.251 123.83L254.165 123.732C253.734 123.228 253.794 122.471 254.299 122.041C254.805 121.611 255.564 121.671 255.994 122.175C257.855 124.35 262.779 123.901 267.728 120.671Z" fill="#2E186A"/>
<path fill-rule="evenodd" clip-rule="evenodd" d="M266.009 80.9816C268.633 78.9915 271.748 78.7789 275.108 81.444C275.627 81.8563 275.713 82.6107 275.3 83.129C274.887 83.6473 274.13 83.7332 273.61 83.3209C271.179 81.3924 269.268 81.5228 267.465 82.8905C267.221 83.0754 267.004 83.2647 266.769 83.4896L266.327 83.9247C266.265 83.9842 266.213 84.0319 266.156 84.0775C266.001 84.2028 265.866 84.287 265.632 84.3453C264.988 84.5059 264.335 84.1153 264.174 83.4728C264.053 82.9909 264.243 82.5042 264.618 82.2232L264.67 82.1858L264.933 81.9249C265.293 81.5693 265.621 81.2761 266.009 80.9816Z" fill="#2E186A"/>
<path fill-rule="evenodd" clip-rule="evenodd" d="M274.359 102.248C275.466 102.248 276.363 100.87 276.363 99.1706C276.363 97.4708 275.466 96.0928 274.359 96.0928C273.252 96.0928 272.355 97.4708 272.355 99.1706C272.355 100.87 273.252 102.248 274.359 102.248Z" fill="#2E186A"/>
<path fill-rule="evenodd" clip-rule="evenodd" d="M245.219 103.007C246.326 103.007 247.224 101.629 247.224 99.9294C247.224 98.2295 246.326 96.8516 245.219 96.8516C244.113 96.8516 243.215 98.2295 243.215 99.9294C243.215 101.629 244.113 103.007 245.219 103.007Z" fill="#2E186A"/>
<path fill-rule="evenodd" clip-rule="evenodd" d="M239.63 80.6024C242.631 78.2147 245.923 78.1023 248.814 81.805C249.222 82.3276 249.128 83.081 248.604 83.4879C248.08 83.8947 247.324 83.8009 246.916 83.2784C244.965 80.7789 243.188 80.8395 241.13 82.4773C240.851 82.6989 240.599 82.9251 240.321 83.1966L239.849 83.6668C239.785 83.7288 239.732 83.7777 239.677 83.8234C239.513 83.9597 239.384 84.0433 239.138 84.1048C238.494 84.2654 237.841 83.8748 237.68 83.2323C237.559 82.7504 237.749 82.2637 238.124 81.9827L238.17 81.9497L238.479 81.6403C238.874 81.2468 239.223 80.9259 239.63 80.6024Z" fill="#2E186A"/>
<path fill-rule="evenodd" clip-rule="evenodd" d="M272.996 55.2015C265.18 55.3215 259.248 55.6812 255.721 56.3607C227.022 62.8761 231.672 84.0612 231.672 84.0612C231.672 84.0612 245.7 86.7393 257.124 69.8712C257.124 69.8712 272.796 82.6222 296.003 87.7785C296.364 87.6986 296.805 87.5787 297.206 87.4587V88.6179C298.568 88.2582 300.773 87.8585 303.058 88.0184C302.817 79.6643 301.294 69.1117 294.4 62.3165C289.51 57.4799 282.295 55.0816 272.996 55.2015Z" fill="#2E186A"/>
<path fill-rule="evenodd" clip-rule="evenodd" d="M256.357 53.7739C260.93 53.1405 268.129 52.7243 274.332 52.7633C286.72 52.8941 294.999 57.4462 299.906 65.4747C301.838 68.6354 303.185 72.2327 304.092 76.2684C304.762 79.2476 305.121 81.9777 305.458 85.8357C305.516 86.4954 305.026 87.0769 304.365 87.1344C303.703 87.1918 303.12 86.7036 303.062 86.0438L302.998 85.3264C302.25 77.273 300.968 71.8209 297.852 66.7228C293.384 59.4114 285.876 55.2836 274.311 55.1615L273.605 55.159C267.683 55.1551 260.968 55.5566 256.688 56.1494C256.03 56.2405 255.423 55.7826 255.332 55.1266C255.24 54.4706 255.699 53.865 256.357 53.7739Z" fill="white"/>
<path fill-rule="evenodd" clip-rule="evenodd" d="M348.31 37.8137C338.41 9.59369 310.353 -6.27509 285.622 2.35881C265.3 9.43381 253.556 30.8986 255.48 53.9623C259.208 53.3228 265.06 52.9231 272.996 52.8032C282.977 52.6832 290.753 55.2814 296.123 60.5976C303.739 68.1123 305.302 79.5043 305.503 88.378C309.19 89.3773 312.597 92.3752 312.878 99.9298C312.918 100.689 312.236 106.565 312.397 106.525C312.397 108.404 312.798 110.762 314.2 113.081C316.966 117.517 322.578 120.275 330.915 121.235C330.955 121.235 330.995 121.235 331.075 121.235C331.676 121.235 332.197 120.795 332.277 120.196C332.358 119.556 331.877 118.956 331.235 118.876C323.7 117.997 318.65 115.639 316.285 111.841C315.323 110.323 314.962 108.764 314.842 107.405C316.886 109.803 320.453 112.401 326.105 112.401C327.468 112.401 328.951 112.241 330.554 111.921C331.195 111.801 331.636 111.162 331.476 110.522C331.356 109.883 330.714 109.443 330.073 109.603C322.778 111.122 318.73 108.364 316.605 105.886C318.249 105.526 319.852 105.086 321.455 104.527C346.146 95.8527 358.17 65.9938 348.31 37.8137Z" fill="#2E186A"/>
<path fill-rule="evenodd" clip-rule="evenodd" d="M276.083 84.1006C267.316 84.1006 260.21 91.1874 260.21 99.9294C260.21 108.671 267.316 115.758 276.083 115.758C284.849 115.758 291.955 108.671 291.955 99.9294C291.955 91.1874 284.849 84.1006 276.083 84.1006ZM276.083 86.4989C283.52 86.4989 289.55 92.5119 289.55 99.9294C289.55 107.347 283.52 113.36 276.083 113.36C268.645 113.36 262.615 107.347 262.615 99.9294C262.615 92.5119 268.645 86.4989 276.083 86.4989Z" fill="#2E186A"/>
<path fill-rule="evenodd" clip-rule="evenodd" d="M261.092 98.3701C261.756 98.3701 262.294 98.907 262.294 99.5693C262.294 100.208 261.794 100.73 261.163 100.766L261.092 100.768H251.552C250.888 100.768 250.35 100.232 250.35 99.5693C250.35 98.9306 250.851 98.4086 251.482 98.3722L251.552 98.3701H261.092Z" fill="#2E186A"/>
<path fill-rule="evenodd" clip-rule="evenodd" d="M296.614 87.1339C297.192 86.8081 297.926 87.0113 298.253 87.5878C298.567 88.143 298.39 88.842 297.86 89.184L297.797 89.2218L289.5 93.8985C288.922 94.2244 288.189 94.0212 287.862 93.4446C287.547 92.8894 287.725 92.1905 288.254 91.8485L288.317 91.8106L296.614 87.1339Z" fill="#2E186A"/>
<path fill-rule="evenodd" clip-rule="evenodd" d="M236.401 84.1006C227.635 84.1006 220.529 91.1874 220.529 99.9294C220.529 108.671 227.635 115.758 236.401 115.758C245.167 115.758 252.274 108.671 252.274 99.9294C252.274 91.1874 245.167 84.1006 236.401 84.1006ZM236.401 86.4989C243.839 86.4989 249.869 92.5119 249.869 99.9294C249.869 107.347 243.839 113.36 236.401 113.36C228.963 113.36 222.934 107.347 222.934 99.9294C222.934 92.5119 228.963 86.4989 236.401 86.4989Z" fill="#2E186A"/>
<path fill-rule="evenodd" clip-rule="evenodd" d="M337.288 266.932H328.951L324.862 206.455C324.582 202.218 320.894 198.78 316.645 198.78H200.448C196.199 198.78 192.953 202.218 193.273 206.455L197.802 273.408C198.083 277.645 201.771 281.082 206.019 281.082L337.248 280.922C339.652 280.922 341.576 278.964 341.576 276.605V271.289C341.617 268.891 339.693 266.932 337.288 266.932Z" fill="#FF8D7E"/>
<path fill-rule="evenodd" clip-rule="evenodd" d="M266.743 238.792C265.1 237.033 262.896 235.914 260.571 235.474C260.932 234.955 261.172 234.315 261.252 233.636C261.453 231.477 259.889 229.478 257.805 229.159C257.765 229.159 257.725 229.159 257.685 229.159C257.244 227.52 256.402 224.802 255.44 223.643C255.08 223.203 254.398 223.043 253.917 223.323C253.476 223.603 253.396 224.162 253.757 224.602C254.398 225.361 255.16 227.72 255.641 229.518C254.559 230.078 253.797 231.157 253.677 232.516C253.556 233.755 254.037 234.915 254.799 235.754C254.078 235.994 253.396 236.274 252.755 236.673C248.586 239.272 248.065 244.388 251.592 248.185C255.12 251.943 261.413 252.902 265.581 250.304C269.79 247.706 270.311 242.549 266.743 238.792Z" fill="white"/>
<path fill-rule="evenodd" clip-rule="evenodd" d="M264.98 223.443C264.98 223.443 258.968 222.243 258.166 227.24C258.206 227.24 262.936 228.919 264.98 223.443Z" fill="white"/>
<path fill-rule="evenodd" clip-rule="evenodd" d="M489.96 281.082C490.624 281.082 491.162 281.619 491.162 282.281C491.162 282.92 490.662 283.442 490.031 283.478L489.96 283.48H1.32065C0.656554 283.48 0.118195 282.943 0.118195 282.281C0.118195 281.643 0.618786 281.121 1.25 281.084L1.32065 281.082H489.96Z" fill="#2E186A"/>
</svg>
