<svg width="196" height="223" viewBox="0 0 196 223" fill="none" xmlns="http://www.w3.org/2000/svg">
<g clip-path="url(#clip0_449_12463)">
<rect width="196" height="223" fill="#F6F6F6"/>
<path fill-rule="evenodd" clip-rule="evenodd" d="M35.3705 222.242H82.2756V173.205C82.2756 170.76 80.2913 168.771 77.8535 168.771H27.0176C24.5797 168.771 22.5954 170.76 22.5954 173.205V209.414C22.5954 216.501 28.3027 222.242 35.3705 222.242Z" fill="#FFC29E"/>
<path fill-rule="evenodd" clip-rule="evenodd" d="M52.6251 162.821C52.6251 162.821 51.0377 149.879 51.5668 143.987C52.096 138.094 54.8362 117.137 60.7513 106.375C66.6664 95.6121 76.5123 101.884 76.5123 101.884C76.5123 101.884 84.9787 106.261 81.3502 116.36C77.7218 126.441 67.4979 147.89 64.6632 151.793C61.8474 155.697 55.4031 163.446 52.6251 162.821Z" fill="#E0840B" fill-opacity="0.29"/>
<path fill-rule="evenodd" clip-rule="evenodd" d="M48.5614 143.304C48.5614 143.304 49.6386 123.03 44.9708 113.271C40.3029 103.513 32.5925 95.7634 25.9782 100.69C19.3638 105.616 26.5262 120.415 30.3436 126.061C34.1799 131.708 48.5614 143.304 48.5614 143.304Z" fill="#E0840B" fill-opacity="0.29"/>
<path fill-rule="evenodd" clip-rule="evenodd" d="M51.6611 167.236C48.543 167.217 32.9331 165.493 29.5504 154.806C26.2621 144.403 36.2214 138.549 42.4956 143.721C48.7508 148.875 51.6611 167.236 51.6611 167.236Z" fill="#E0840B" fill-opacity="0.29"/>
<path fill-rule="evenodd" clip-rule="evenodd" d="M56.4423 165.872C58.7479 162.442 66.6284 152.816 74.6223 153.669C82.6162 154.522 82.2761 161.362 76.4554 164.166C70.6537 166.989 56.4423 165.872 56.4423 165.872Z" fill="#E0840B" fill-opacity="0.29"/>
<path fill-rule="evenodd" clip-rule="evenodd" d="M27.5469 197.591C27.5658 194.597 27.2256 191.262 26.5453 188.268C31.3643 186.07 33.6321 181.333 31.3454 179.249C30.0793 178.093 27.1123 181.144 25.2602 184.099C24.4854 182.243 23.5405 180.765 22.3877 179.931C18.3624 177.032 18.079 183.815 18.6837 189.784C18.2113 189.405 17.6254 189.045 17.0018 188.893C15.3198 188.495 13.9781 190.656 14.4883 192.456C14.9041 193.952 17.3797 194.407 19.1751 193.308C19.3451 194.331 19.5341 195.26 19.7042 195.961C19.742 196.15 19.7987 196.34 19.8554 196.51C19.0428 196.132 18.2679 195.904 17.7577 196.056C16.8317 196.302 14.8285 197.439 15.1498 198.955C15.471 200.49 16.4159 201.475 18.4569 201.02C19.364 200.812 20.2145 200.319 20.8759 199.807C22.2554 203.768 24.1453 207.311 25.487 206.326C26.6587 205.454 27.339 202.763 27.5091 199.372C27.8493 199.542 28.3406 199.789 29.0399 200.073C30.7596 200.793 31.3643 198.197 30.5706 197.325C29.8714 196.624 28.7186 196.757 27.5469 197.591Z" fill="white"/>
<path fill-rule="evenodd" clip-rule="evenodd" d="M28.0493 179.793C27.1739 180.576 26.2447 181.659 25.4201 182.833L25.3545 182.927L25.3516 182.921C24.593 181.359 23.7224 180.195 22.7192 179.47C20.4872 177.862 18.8838 178.746 18.248 181.399L18.2255 181.495C17.8353 183.205 17.7816 185.663 18.0014 188.521L18.0132 188.67L17.9306 188.63C17.6686 188.504 17.4029 188.406 17.1351 188.341C15.0193 187.84 13.3098 190.378 13.9427 192.611L13.9595 192.668C14.4649 194.316 16.7499 194.909 18.6918 194.174L18.7466 194.153L18.7508 194.175C18.8343 194.63 18.9214 195.066 19.0085 195.465L19.0348 195.585L19.0324 195.584C18.506 195.432 18.0482 195.394 17.6575 195.494L17.5964 195.511C16.9891 195.672 16.1981 196.089 15.6129 196.601C14.8112 197.303 14.3995 198.151 14.595 199.073C15.0163 201.086 16.3813 202.065 18.5797 201.575L18.6852 201.55C19.3182 201.39 19.9464 201.106 20.5426 200.732L20.5929 200.7L20.604 200.73C21.2796 202.559 22.0117 204.135 22.7196 205.23C23.1788 205.941 23.6292 206.455 24.0827 206.755C24.6677 207.14 25.2889 207.176 25.8218 206.784L25.8658 206.751C27.0339 205.839 27.7512 203.548 28.0107 200.381L28.0208 200.251L28.0945 200.285L28.2668 200.363C28.4408 200.44 28.6216 200.516 28.8266 200.599C29.9197 201.057 30.8586 200.546 31.2738 199.507C31.6239 198.631 31.538 197.545 30.9891 196.942L30.9713 196.923L30.9284 196.881C30.2227 196.21 29.2262 196.14 28.1836 196.58L28.107 196.613L28.1056 196.523C28.051 193.912 27.7419 191.163 27.2109 188.657L27.1957 188.586L27.2254 188.572C31.9569 186.187 34.3788 181.246 31.7266 178.828C30.8379 178.017 29.5771 178.458 28.15 179.703L28.0493 179.793ZM30.9639 179.669C32.9165 181.449 30.7095 185.744 26.3107 187.75C26.0658 187.862 25.9329 188.131 25.9927 188.394C26.6507 191.29 26.9991 194.577 26.9801 197.587C26.9772 198.05 27.4984 198.322 27.8752 198.054L27.9333 198.013C28.8789 197.36 29.6888 197.281 30.1426 197.701L30.1592 197.717L30.1521 197.708C30.3735 197.951 30.4232 198.58 30.2217 199.084C30.031 199.561 29.7395 199.731 29.3001 199.565L29.2585 199.548C28.7002 199.321 28.3365 199.151 27.7628 198.863C27.3969 198.68 26.9636 198.933 26.9431 199.343L26.9305 199.575C26.7416 202.842 26.0683 205.185 25.1494 205.869C24.897 206.054 24.3857 205.717 23.6716 204.612C22.9279 203.461 22.1301 201.683 21.4113 199.62C21.2837 199.254 20.836 199.12 20.5298 199.357C19.8311 199.897 19.0653 200.297 18.3304 200.466C16.7775 200.812 16.0014 200.255 15.7048 198.838C15.5243 197.986 16.6891 196.951 17.8481 196.62L17.9032 196.605C18.2159 196.512 18.8264 196.657 19.6164 197.026C20.0674 197.236 20.5507 196.804 20.3934 196.33C20.3412 196.173 20.3015 196.037 20.2734 195.911L20.2552 195.826C20.0805 195.106 19.8956 194.184 19.7344 193.215C19.6684 192.817 19.2226 192.613 18.8798 192.823C17.3697 193.747 15.3325 193.375 15.0346 192.303C14.6127 190.814 15.7182 189.173 16.8717 189.446C17.3412 189.56 17.8431 189.837 18.3297 190.228C18.7221 190.542 19.2987 190.227 19.2479 189.726C18.9077 186.369 18.9167 183.476 19.3509 181.665L19.3823 181.537C19.8495 179.706 20.5928 179.338 22.0571 180.392C23.0566 181.115 23.9555 182.445 24.7374 184.319C24.9147 184.744 25.4961 184.792 25.7405 184.402L25.8591 184.215C27.8071 181.177 30.2792 179.044 30.9639 179.669Z" fill="#000091"/>
<path fill-rule="evenodd" clip-rule="evenodd" d="M46.1616 196.719C45.349 196.245 43.8561 196.132 42.4387 196.548C44.6687 192.323 46.2372 187.586 43.875 187.283C41.2859 187.093 39.2827 189.083 37.8087 191.47C37.0717 190.239 35.6921 189.121 34.6527 188.969C32.744 188.704 31.6101 189.727 32.1014 191.413C32.4794 192.664 34.4826 194.388 36.2023 194.616C35.5409 196.113 35.0685 197.496 34.7472 198.386C33.6889 201.323 33.4054 206.515 33.4054 206.515C33.4054 206.515 34.7661 206.288 37.4685 204.184C38.0733 203.73 39.4528 201.399 40.3221 200.13C40.8324 200.319 41.5694 200.49 42.6088 200.603C47.6924 201.191 47.5412 197.515 46.1616 196.719Z" fill="white"/>
<path fill-rule="evenodd" clip-rule="evenodd" d="M37.7906 190.458L37.7457 190.403C36.8927 189.366 35.7146 188.549 34.7342 188.406C32.4226 188.085 30.9459 189.475 31.5571 191.573L31.5746 191.628C32.0113 192.959 33.7374 194.471 35.3839 195.006L35.413 195.015L35.3296 195.217C35.185 195.568 35.0434 195.928 34.9015 196.302L34.8162 196.529C34.7488 196.709 34.6831 196.887 34.6136 197.079L34.2139 198.193C33.9048 199.051 33.6448 200.125 33.4268 201.369C33.2305 202.49 33.0785 203.687 32.9651 204.884L32.9367 205.192C32.9188 205.394 32.9027 205.587 32.8884 205.771L32.8632 206.112L32.8392 206.484C32.8194 206.847 33.1405 207.135 33.4985 207.076L33.551 207.066C33.6194 207.051 33.7132 207.026 33.8321 206.988C34.0683 206.913 34.3459 206.803 34.6648 206.653C35.5227 206.248 36.5342 205.62 37.699 204.724L37.816 204.633C38.1951 204.348 38.6783 203.686 39.548 202.351L40.3305 201.142L40.5531 200.802L40.5931 200.814C41.0931 200.956 41.698 201.069 42.4121 201.153L42.5472 201.168C45.0438 201.457 46.709 200.784 47.3256 199.413C47.849 198.25 47.4303 196.795 46.4443 196.226L46.3841 196.192C45.6732 195.802 44.6382 195.651 43.5657 195.754L43.475 195.764L43.5353 195.641C44.4547 193.754 45.1291 191.981 45.4331 190.564L45.464 190.415C45.8821 188.317 45.4669 186.914 43.9468 186.719L43.9161 186.716C41.5889 186.545 39.5911 187.886 37.8702 190.343L37.7906 190.458ZM43.7609 187.845L43.8174 187.849L43.8027 187.847C44.4597 187.931 44.6712 188.709 44.3244 190.325C43.9836 191.913 43.1156 194.05 41.9373 196.283C41.7028 196.727 42.1168 197.235 42.598 197.094C43.8303 196.731 45.181 196.805 45.8764 197.21C46.3453 197.481 46.5816 198.302 46.2918 198.946C45.9133 199.787 44.7661 200.262 42.7677 200.049L42.6734 200.039C41.7387 199.936 41.0234 199.784 40.5187 199.597C40.2752 199.506 40.0014 199.593 39.8544 199.808L39.7503 199.961C39.6904 200.05 39.6268 200.146 39.5579 200.25L38.5507 201.802C37.8314 202.903 37.3727 203.533 37.1433 203.718L37.128 203.73C35.9702 204.631 34.9903 205.243 34.1819 205.624L34.0721 205.675L34.0318 205.693L34.041 205.583C34.0567 205.394 34.0743 205.196 34.0937 204.992C34.2045 203.822 34.3529 202.654 34.5434 201.566C34.7424 200.43 34.9763 199.451 35.2449 198.679L35.5503 197.824C35.6699 197.491 35.7719 197.211 35.8777 196.928C36.1549 196.187 36.4274 195.509 36.7204 194.846C36.8737 194.499 36.6514 194.102 36.2762 194.052C34.8513 193.864 32.9769 192.351 32.6437 191.249C32.2839 190.014 33.0245 189.317 34.5746 189.532C35.4084 189.654 36.6559 190.649 37.3222 191.763C37.5406 192.128 38.067 192.131 38.2904 191.77C39.9129 189.142 41.7324 187.732 43.7609 187.845Z" fill="#000091"/>
<path fill-rule="evenodd" clip-rule="evenodd" d="M23.9564 222.394H34.2936C41.5127 222.394 47.3711 216.52 47.3711 209.282V208.789C47.3711 206.041 45.16 203.824 42.4198 203.824H15.8302C13.0899 203.824 10.8789 206.041 10.8789 208.789V209.282C10.8789 216.52 16.7373 222.394 23.9564 222.394Z" fill="#000091"/>
<path fill-rule="evenodd" clip-rule="evenodd" d="M212.635 115.565C253.474 113.481 259.295 135.138 257.783 151.585C256.233 168.43 251.225 222.489 251.225 222.489C251.471 222.716 153.975 222.716 154.259 222.489C154.259 222.489 159.267 168.43 160.817 151.585C162.328 135.138 172.174 113.481 212.635 115.565Z" fill="#FF8D7E"/>
<path fill-rule="evenodd" clip-rule="evenodd" d="M228.699 199.277C223.124 192.209 217.964 189.595 213.089 189.348C211.274 181.276 209.139 173.167 206.814 166.857C191.224 124.432 127.027 146.867 119.619 149.974C109.489 154.218 98.9252 162.953 90.5722 178.851C87.8509 178.851 84.7894 179.154 81.5011 179.666C69.3685 181.523 60.9211 192.835 62.5085 203.256C64.7952 223.303 75.8884 222.64 86.6603 221.939C87.1705 222.261 87.7753 222.451 88.4367 222.451H215.413C215.545 222.451 215.697 222.432 215.829 222.432H224.824C232.648 215.743 234.481 206.079 228.699 199.277Z" fill="#6A6AF4"/>
<path fill-rule="evenodd" clip-rule="evenodd" d="M137.42 132.39L138.063 146.715C138.063 146.715 136.589 158.065 147.342 158.804C160.779 159.713 163.405 149.387 163.405 149.387L164.35 135.194L137.42 132.39Z" fill="white"/>
<path fill-rule="evenodd" clip-rule="evenodd" d="M136.854 132.416L137.494 146.693L137.485 146.781C137.478 146.851 137.471 146.938 137.463 147.04C137.331 148.86 137.508 150.96 138.241 152.973C139.588 156.674 142.503 159.041 147.303 159.371C153.569 159.795 158.095 157.91 161.122 154.502C162.082 153.422 162.816 152.265 163.355 151.107C163.544 150.7 163.696 150.321 163.814 149.979L163.863 149.833C163.908 149.697 163.938 149.594 163.955 149.527C163.963 149.493 163.969 149.459 163.971 149.424L164.916 135.232C164.936 134.927 164.712 134.661 164.409 134.629L137.479 131.825C137.134 131.789 136.838 132.069 136.854 132.416ZM138.016 133.023L163.748 135.703L162.844 149.291L162.832 149.331C162.809 149.41 162.779 149.502 162.743 149.608C162.637 149.913 162.5 150.256 162.328 150.626C161.833 151.689 161.158 152.753 160.276 153.745C157.48 156.893 153.294 158.637 147.38 158.236C143.045 157.938 140.505 155.876 139.306 152.583C138.637 150.745 138.473 148.796 138.595 147.123L138.608 146.961L138.625 146.788C138.63 146.755 138.631 146.722 138.63 146.689L138.016 133.023Z" fill="#000091"/>
<path fill-rule="evenodd" clip-rule="evenodd" d="M135.701 112.173C135.701 112.173 125.987 107.852 125.722 116.91C125.439 125.948 134.245 124.792 134.245 124.792" fill="white"/>
<path fill-rule="evenodd" clip-rule="evenodd" d="M130.689 110.579C131.884 110.539 133.148 110.745 134.402 111.112C134.801 111.229 135.17 111.354 135.502 111.48L135.598 111.517C135.75 111.576 135.862 111.623 135.93 111.653C136.217 111.78 136.346 112.116 136.219 112.403C136.096 112.68 135.781 112.81 135.502 112.705L135.38 112.654L135.278 112.612C135.223 112.59 135.164 112.567 135.101 112.543C134.796 112.428 134.454 112.312 134.084 112.203C132.936 111.867 131.786 111.68 130.728 111.716C128 111.808 126.394 113.319 126.289 116.927C126.171 120.688 127.634 122.801 130.178 123.746C131.404 124.202 132.707 124.326 133.837 124.257L133.949 124.249C133.999 124.245 134.041 124.242 134.076 124.239L134.172 124.228C134.482 124.188 134.767 124.407 134.808 124.718C134.848 125.029 134.629 125.315 134.319 125.356L134.22 125.367C134.169 125.372 134.106 125.377 134.032 125.383C132.729 125.478 131.228 125.349 129.783 124.812C126.789 123.699 125.022 121.147 125.156 116.893C125.279 112.669 127.38 110.692 130.689 110.579Z" fill="#000091"/>
<path fill-rule="evenodd" clip-rule="evenodd" d="M173.1 119.335C173.1 119.335 183.834 117.952 181.604 126.592C179.374 135.232 171.059 131.689 171.059 131.689" fill="white"/>
<path fill-rule="evenodd" clip-rule="evenodd" d="M173.489 118.727C174.799 118.63 176.248 118.68 177.628 118.989C179.277 119.358 180.6 120.057 181.458 121.171C182.498 122.521 182.763 124.373 182.153 126.735C181.258 130.201 179.343 132.133 176.736 132.758C175.199 133.127 173.576 133.011 172.016 132.599C171.742 132.526 171.49 132.449 171.262 132.371L171.166 132.338C171.012 132.283 170.901 132.239 170.837 132.212C170.549 132.09 170.415 131.756 170.537 131.467C170.655 131.188 170.969 131.053 171.25 131.154L171.342 131.191L171.416 131.219C171.442 131.229 171.469 131.239 171.499 131.249L171.544 131.266C171.768 131.345 172.024 131.425 172.305 131.499C173.7 131.868 175.144 131.971 176.472 131.653C178.666 131.127 180.265 129.514 181.055 126.45C182.02 122.711 180.555 120.808 177.381 120.099C176.127 119.818 174.782 119.771 173.573 119.861L173.443 119.872C173.401 119.875 173.362 119.879 173.325 119.882L173.194 119.896L173.172 119.899C172.862 119.939 172.578 119.719 172.538 119.407C172.498 119.096 172.717 118.811 173.028 118.771L173.107 118.762C173.189 118.753 173.3 118.742 173.437 118.731L173.489 118.727Z" fill="#000091"/>
<path fill-rule="evenodd" clip-rule="evenodd" d="M172.288 128.146C166.826 144.953 157.377 150.012 146.832 147.321C136.306 144.63 129.257 133.716 133.206 118.236C137.156 102.755 146.624 91.4999 159.418 95.0811C175.822 99.6666 177.239 112.949 172.288 128.146Z" fill="white"/>
<path fill-rule="evenodd" clip-rule="evenodd" d="M142.603 99.1007C138.161 103.384 134.706 110.063 132.657 118.095C130.734 125.632 131.301 132.446 134.087 137.836C136.715 142.92 141.206 146.47 146.692 147.872C158.345 150.845 167.595 144.423 172.827 128.322C175.508 120.094 176.132 113.075 174.403 107.467C172.48 101.228 167.682 96.862 159.81 94.6016L159.57 94.5338C153.247 92.7637 147.433 94.4421 142.603 99.1007ZM159.266 95.6288C166.923 97.7694 171.496 101.888 173.319 107.802C174.968 113.149 174.364 119.944 171.749 127.969C166.688 143.543 157.991 149.582 146.972 146.77C141.798 145.448 137.572 142.108 135.094 137.313C132.442 132.183 131.899 125.654 133.756 118.377C135.756 110.535 139.115 104.041 143.389 99.92C147.94 95.5311 153.344 93.9711 159.266 95.6288Z" fill="#000091"/>
<path fill-rule="evenodd" clip-rule="evenodd" d="M150.59 116.808C150.698 116.514 151.024 116.363 151.317 116.471C151.601 116.575 151.751 116.883 151.664 117.169L151.654 117.201L147.385 128.835L151.534 129.653C151.83 129.712 152.026 129.992 151.986 130.288L151.98 130.321C151.922 130.618 151.643 130.815 151.347 130.774L151.315 130.769L146.514 129.822C146.183 129.756 145.985 129.419 146.081 129.099L146.092 129.068L150.59 116.808Z" fill="#000091"/>
<path fill-rule="evenodd" clip-rule="evenodd" d="M159.166 111.931C161.236 111.083 163.074 111.774 164.576 113.39C164.933 113.774 165.244 114.184 165.508 114.593L165.574 114.696C165.699 114.896 165.788 115.055 165.839 115.157C165.98 115.437 165.868 115.779 165.588 115.92C165.319 116.057 164.993 115.957 164.843 115.699L164.789 115.598L164.763 115.552C164.706 115.45 164.637 115.335 164.556 115.211C164.326 114.854 164.055 114.497 163.747 114.166C162.533 112.86 161.158 112.343 159.594 112.983C159.304 113.102 158.974 112.962 158.855 112.672C158.737 112.381 158.876 112.049 159.166 111.931Z" fill="#000091"/>
<path fill-rule="evenodd" clip-rule="evenodd" d="M156.227 135.607C156.386 135.336 156.734 135.246 157.004 135.406C157.273 135.565 157.363 135.914 157.204 136.184C156.458 137.451 155.362 138.151 154.039 138.357C153.025 138.514 151.962 138.375 150.926 138.051L150.774 138.002C150.406 137.881 150.122 137.762 149.946 137.676C149.665 137.538 149.549 137.197 149.686 136.915C149.824 136.633 150.164 136.516 150.445 136.654L150.473 136.668C150.512 136.686 150.573 136.713 150.655 136.747C150.835 136.821 151.04 136.896 151.263 136.966C152.148 137.243 153.047 137.36 153.865 137.233C154.864 137.078 155.661 136.569 156.227 135.607Z" fill="#000091"/>
<path fill-rule="evenodd" clip-rule="evenodd" d="M142.543 108.997C143.971 108.549 145.458 108.902 146.888 109.743C147.23 109.944 147.542 110.159 147.819 110.375L147.937 110.468C148.046 110.556 148.128 110.626 148.18 110.675C148.41 110.888 148.424 111.247 148.212 111.478C148.008 111.7 147.669 111.722 147.438 111.534L147.344 111.451L147.264 111.384C147.221 111.349 147.175 111.312 147.125 111.273C146.884 111.086 146.611 110.899 146.314 110.724C145.133 110.029 143.948 109.747 142.882 110.082C142.427 110.225 141.996 110.48 141.587 110.863C141.359 111.078 141 111.066 140.786 110.837C140.572 110.607 140.584 110.248 140.813 110.033C141.344 109.535 141.924 109.192 142.543 108.997Z" fill="#000091"/>
<path fill-rule="evenodd" clip-rule="evenodd" d="M160.494 122.461C160.695 121.2 160.198 120.072 159.384 119.942C158.57 119.811 157.747 120.727 157.546 121.988C157.345 123.249 157.842 124.377 158.656 124.507C159.47 124.638 160.293 123.721 160.494 122.461Z" fill="#000091"/>
<path fill-rule="evenodd" clip-rule="evenodd" d="M144.442 120.17C144.643 118.909 144.146 117.781 143.332 117.651C142.518 117.52 141.695 118.436 141.493 119.697C141.292 120.958 141.789 122.086 142.604 122.216C143.418 122.347 144.241 121.431 144.442 120.17Z" fill="#000091"/>
<path fill-rule="evenodd" clip-rule="evenodd" d="M191.715 153.877C189.976 133.205 189.39 110.846 185.762 104.063C178.599 90.6666 167.582 91.5192 167.582 91.5192C161.969 82.7084 135.209 79.7335 124.815 105.446C124.192 107 125.042 108.667 126.535 109.16C119.826 125.512 123.134 166.288 123.134 166.288L139.858 168.809L139.121 153.631C137.591 150.353 138.063 146.734 138.063 146.734L137.855 142.149C133.962 138.113 131.694 132.163 132.148 124.792C129.559 124.527 125.496 123.106 125.685 116.91C125.93 109.103 133.187 111.244 135.172 111.983C135.644 110.771 136.135 109.615 136.683 108.497C141.691 107.303 147.455 104.631 152.785 99.0606L147.909 106.905C147.909 106.905 156.791 108.137 163.065 103.835C164.634 109.672 168.546 116.474 174.442 118.918C174.423 119.032 174.404 119.146 174.385 119.259C174.706 119.259 175.066 119.259 175.443 119.278C176.388 119.581 177.371 119.771 178.41 119.809C180.697 120.605 182.625 122.443 181.548 126.573C179.318 135.214 171.002 131.67 171.002 131.67L171.021 131.519C168.999 136.616 166.561 140.405 163.802 143.077L163.386 149.387C163.386 149.387 163.254 149.898 162.914 150.656C162.801 153.821 162.46 165.227 162.952 168.79C177.447 168.657 192.452 162.613 191.715 153.877Z" fill="#000091"/>
<path d="M172.68 195.01C171.504 195.178 170.536 194.977 169.776 194.407C169.024 193.826 168.561 192.928 168.388 191.713C168.294 191.058 168.326 190.423 168.485 189.81C168.642 189.188 168.95 188.657 169.408 188.218C169.867 187.779 170.496 187.502 171.296 187.387C172.038 187.281 172.69 187.365 173.25 187.639C173.809 187.904 174.258 188.292 174.597 188.805C174.946 189.315 175.166 189.894 175.258 190.54C175.284 190.723 175.244 190.886 175.136 191.029C175.039 191.171 174.888 191.257 174.686 191.285L169.784 191.986C169.953 192.621 170.274 193.106 170.745 193.442C171.214 193.768 171.839 193.876 172.62 193.764C173.054 193.702 173.415 193.611 173.703 193.492C173.989 193.362 174.258 193.211 174.508 193.037C174.58 192.988 174.664 192.956 174.76 192.942C174.915 192.92 175.057 192.954 175.188 193.043C175.319 193.133 175.396 193.26 175.419 193.423C175.436 193.539 175.412 193.651 175.349 193.758C175.294 193.855 175.218 193.939 175.12 194.012C174.828 194.241 174.503 194.445 174.145 194.624C173.795 194.792 173.307 194.92 172.68 195.01ZM169.631 190.916L173.897 190.306C173.796 189.809 173.608 189.423 173.333 189.147C173.067 188.871 172.765 188.683 172.426 188.583C172.087 188.484 171.764 188.457 171.455 188.501C171.147 188.545 170.844 188.662 170.546 188.852C170.249 189.042 170.011 189.307 169.834 189.647C169.656 189.987 169.589 190.41 169.631 190.916Z" fill="white"/>
<path d="M165.143 196.087C164.458 196.185 163.8 196.126 163.17 195.911C162.538 195.687 162.003 195.316 161.565 194.798C161.125 194.27 160.849 193.607 160.734 192.807C160.619 191.997 160.698 191.282 160.974 190.662C161.249 190.043 161.66 189.541 162.205 189.158C162.749 188.766 163.363 188.521 164.048 188.423C164.616 188.342 165.1 188.351 165.498 188.452C165.904 188.542 166.239 188.651 166.504 188.78C166.715 188.878 166.835 189.033 166.865 189.245C166.885 189.38 166.85 189.518 166.762 189.658C166.674 189.799 166.553 189.88 166.399 189.902C166.292 189.917 166.182 189.904 166.068 189.861C165.798 189.762 165.536 189.686 165.283 189.634C165.03 189.581 164.715 189.582 164.339 189.636C163.5 189.755 162.879 190.09 162.476 190.64C162.082 191.188 161.94 191.847 162.05 192.619C162.16 193.39 162.481 193.983 163.013 194.399C163.554 194.814 164.244 194.961 165.083 194.841C165.459 194.788 165.761 194.7 165.989 194.579C166.217 194.448 166.447 194.302 166.679 194.141C166.777 194.068 166.879 194.024 166.985 194.009C167.139 193.987 167.278 194.031 167.402 194.141C167.526 194.251 167.598 194.374 167.617 194.509C167.648 194.721 167.575 194.903 167.4 195.056C167.181 195.245 166.89 195.444 166.527 195.653C166.173 195.861 165.711 196.006 165.143 196.087Z" fill="white"/>
<path d="M153.559 197.668C153.376 197.694 153.213 197.653 153.07 197.546C152.926 197.438 152.842 197.293 152.815 197.11L151.929 190.907C151.902 190.714 151.942 190.546 152.049 190.403C152.156 190.259 152.302 190.175 152.485 190.149C152.668 190.122 152.831 190.163 152.975 190.27C153.127 190.376 153.218 190.526 153.245 190.719L153.33 191.312C153.59 190.93 153.908 190.575 154.284 190.246C154.668 189.905 155.183 189.689 155.829 189.597C156.379 189.518 156.865 189.582 157.288 189.787C157.709 189.983 158.052 190.283 158.317 190.688C158.58 191.083 158.748 191.541 158.823 192.061L159.409 196.168C159.435 196.351 159.39 196.515 159.273 196.66C159.166 196.803 159.02 196.888 158.837 196.914C158.654 196.94 158.491 196.899 158.347 196.792C158.204 196.685 158.12 196.539 158.093 196.356L157.527 192.394C157.449 191.845 157.262 191.433 156.968 191.161C156.681 190.877 156.254 190.776 155.685 190.857C155.164 190.931 154.731 191.136 154.385 191.471C154.04 191.805 153.748 192.176 153.512 192.584L154.131 196.922C154.157 197.105 154.112 197.269 153.995 197.414C153.888 197.557 153.742 197.642 153.559 197.668Z" fill="white"/>
<path d="M146.679 198.724C146.264 198.784 145.862 198.753 145.471 198.631C145.089 198.509 144.765 198.304 144.498 198.018C144.239 197.72 144.077 197.345 144.012 196.892C143.914 196.208 144.104 195.61 144.582 195.099C145.068 194.577 145.875 194.236 147.003 194.074L148.753 193.824L148.736 193.709C148.644 193.063 148.42 192.628 148.063 192.403C147.705 192.169 147.198 192.099 146.543 192.193C146.138 192.25 145.787 192.34 145.489 192.461C145.2 192.571 144.927 192.689 144.669 192.814C144.595 192.845 144.533 192.863 144.485 192.87C144.341 192.891 144.208 192.856 144.086 192.765C143.965 192.674 143.894 192.551 143.872 192.397C143.834 192.137 143.934 191.936 144.169 191.794C144.486 191.601 144.84 191.428 145.231 191.273C145.63 191.108 146.085 190.989 146.596 190.916C147.3 190.815 147.894 190.873 148.377 191.089C148.86 191.306 149.239 191.616 149.513 192.019C149.787 192.423 149.958 192.86 150.025 193.333L150.61 197.425C150.636 197.608 150.591 197.772 150.474 197.917C150.366 198.06 150.221 198.145 150.038 198.171C149.855 198.197 149.691 198.156 149.548 198.049C149.405 197.941 149.32 197.796 149.294 197.613L149.24 197.237C149.019 197.544 148.708 197.844 148.307 198.138C147.906 198.431 147.363 198.627 146.679 198.724ZM147.005 197.497C147.458 197.433 147.867 197.261 148.23 196.983C148.594 196.705 148.876 196.409 149.077 196.095L148.904 194.88L147.328 195.105C146.653 195.202 146.13 195.365 145.76 195.595C145.399 195.823 145.248 196.145 145.307 196.559C145.351 196.868 145.496 197.123 145.741 197.324C145.996 197.523 146.417 197.581 147.005 197.497Z" fill="white"/>
<path d="M136.628 200.087C136.445 200.113 136.281 200.073 136.138 199.965C135.995 199.858 135.91 199.712 135.884 199.529L134.998 193.326C134.97 193.133 135.01 192.965 135.118 192.822C135.225 192.679 135.37 192.594 135.554 192.568C135.737 192.542 135.9 192.582 136.043 192.69C136.196 192.796 136.286 192.945 136.314 193.138L136.398 193.731C136.659 193.349 136.977 192.994 137.353 192.665C137.737 192.325 138.252 192.108 138.898 192.016C139.447 191.938 139.934 192.001 140.356 192.206C140.778 192.402 141.121 192.702 141.385 193.107C141.648 193.502 141.817 193.96 141.891 194.481L142.478 198.587C142.504 198.77 142.459 198.934 142.341 199.079C142.234 199.222 142.089 199.307 141.906 199.333C141.722 199.359 141.559 199.319 141.416 199.211C141.273 199.104 141.188 198.958 141.162 198.775L140.596 194.813C140.517 194.264 140.331 193.853 140.036 193.58C139.75 193.296 139.322 193.195 138.753 193.276C138.233 193.351 137.8 193.555 137.454 193.89C137.108 194.224 136.817 194.596 136.58 195.003L137.2 199.341C137.226 199.524 137.181 199.688 137.064 199.833C136.956 199.976 136.811 200.061 136.628 200.087Z" fill="white"/>
<path d="M131.092 200.878C130.909 200.904 130.746 200.863 130.603 200.756C130.46 200.648 130.375 200.503 130.349 200.32L129.463 194.116C129.436 193.933 129.477 193.77 129.584 193.627C129.69 193.474 129.835 193.384 130.018 193.358C130.201 193.332 130.365 193.378 130.51 193.495C130.663 193.601 130.752 193.745 130.778 193.928L130.867 194.55C131.078 194.166 131.351 193.807 131.687 193.474C132.023 193.141 132.442 192.938 132.943 192.867L133.016 192.856C133.199 192.83 133.357 192.871 133.491 192.98C133.634 193.088 133.719 193.233 133.745 193.416C133.771 193.599 133.73 193.758 133.621 193.891C133.512 194.025 133.361 194.105 133.168 194.133L133.096 194.143C132.624 194.211 132.212 194.392 131.861 194.689C131.508 194.975 131.234 195.324 131.037 195.736L131.665 200.132C131.691 200.315 131.645 200.479 131.528 200.623C131.421 200.767 131.276 200.851 131.092 200.878Z" fill="white"/>
<path d="M125.558 201.742C124.382 201.91 123.414 201.709 122.654 201.138C121.902 200.557 121.439 199.659 121.266 198.445C121.172 197.789 121.204 197.155 121.363 196.542C121.52 195.92 121.828 195.389 122.286 194.95C122.745 194.51 123.374 194.233 124.174 194.119C124.917 194.013 125.568 194.097 126.128 194.371C126.688 194.636 127.137 195.024 127.475 195.536C127.824 196.047 128.044 196.626 128.136 197.271C128.163 197.455 128.122 197.618 128.014 197.761C127.917 197.903 127.767 197.988 127.564 198.017L122.662 198.717C122.832 199.352 123.152 199.838 123.623 200.174C124.092 200.5 124.718 200.608 125.498 200.496C125.932 200.434 126.293 200.343 126.581 200.223C126.867 200.094 127.136 199.942 127.386 199.769C127.458 199.719 127.542 199.688 127.638 199.674C127.793 199.652 127.935 199.686 128.066 199.775C128.197 199.865 128.274 199.991 128.297 200.155C128.314 200.271 128.291 200.382 128.227 200.49C128.172 200.586 128.096 200.671 127.998 200.744C127.706 200.973 127.381 201.176 127.023 201.355C126.673 201.523 126.185 201.652 125.558 201.742ZM122.509 197.647L126.775 197.038C126.674 196.541 126.487 196.155 126.211 195.879C125.945 195.602 125.643 195.414 125.304 195.315C124.965 195.216 124.642 195.188 124.333 195.233C124.025 195.277 123.722 195.394 123.424 195.584C123.127 195.774 122.889 196.039 122.712 196.379C122.534 196.719 122.467 197.142 122.509 197.647Z" fill="white"/>
<path d="M119.384 202.623C119.21 202.648 119 202.658 118.754 202.654C118.518 202.658 118.276 202.619 118.029 202.537C117.789 202.443 117.573 202.277 117.382 202.039C117.191 201.8 117.063 201.46 117 201.016L116.359 196.533L115.333 196.68C115.15 196.706 115.045 196.628 115.019 196.445C115.005 196.348 115.037 196.26 115.114 196.18L116.806 193.976C116.822 193.954 116.848 193.926 116.882 193.891C116.925 193.846 116.975 193.819 117.033 193.811C117.11 193.8 117.177 193.82 117.233 193.871C117.299 193.92 117.338 193.984 117.349 194.061L117.514 195.218L119.148 194.984C119.312 194.961 119.455 194.995 119.576 195.085C119.697 195.176 119.769 195.304 119.793 195.468C119.815 195.622 119.781 195.764 119.691 195.895C119.601 196.016 119.473 196.089 119.309 196.112L117.675 196.346L118.299 200.712C118.339 200.992 118.421 201.187 118.545 201.297C118.669 201.407 118.805 201.466 118.954 201.475C119.111 201.472 119.247 201.462 119.363 201.446C119.594 201.413 119.76 201.369 119.861 201.316C119.97 201.251 120.087 201.21 120.212 201.192C120.347 201.172 120.474 201.203 120.594 201.285C120.714 201.366 120.785 201.484 120.807 201.638C120.839 201.86 120.752 202.044 120.547 202.192C120.384 202.293 120.205 202.383 120.01 202.46C119.824 202.536 119.615 202.59 119.384 202.623Z" fill="white"/>
<path d="M113.878 203.336C113.695 203.362 113.532 203.322 113.389 203.214C113.245 203.107 113.161 202.962 113.135 202.779L111.794 193.394C111.766 193.201 111.806 193.033 111.914 192.89C112.021 192.747 112.166 192.662 112.35 192.636C112.542 192.608 112.71 192.648 112.854 192.756C112.997 192.863 113.082 193.013 113.11 193.206L114.45 202.591C114.477 202.774 114.436 202.937 114.329 203.08C114.221 203.223 114.071 203.309 113.878 203.336Z" fill="white"/>
<path d="M106.998 204.393C106.584 204.452 106.181 204.421 105.79 204.3C105.408 204.178 105.084 203.973 104.817 203.687C104.558 203.389 104.396 203.014 104.331 202.561C104.234 201.876 104.424 201.279 104.901 200.768C105.388 200.246 106.195 199.904 107.323 199.743L109.072 199.493L109.056 199.377C108.963 198.732 108.739 198.296 108.382 198.072C108.024 197.838 107.517 197.768 106.862 197.861C106.457 197.919 106.106 198.009 105.808 198.13C105.519 198.24 105.246 198.358 104.988 198.483C104.914 198.513 104.853 198.532 104.804 198.539C104.66 198.559 104.527 198.524 104.406 198.433C104.285 198.343 104.213 198.22 104.191 198.066C104.154 197.805 104.253 197.604 104.488 197.463C104.805 197.27 105.159 197.096 105.55 196.942C105.949 196.777 106.405 196.658 106.916 196.585C107.619 196.484 108.213 196.542 108.696 196.758C109.18 196.974 109.558 197.284 109.832 197.688C110.106 198.091 110.277 198.529 110.345 199.002L110.929 203.094C110.955 203.277 110.91 203.441 110.793 203.585C110.686 203.729 110.54 203.813 110.357 203.839C110.174 203.866 110.011 203.825 109.867 203.718C109.724 203.61 109.64 203.465 109.613 203.282L109.56 202.906C109.338 203.213 109.027 203.513 108.626 203.806C108.225 204.1 107.683 204.295 106.998 204.393ZM107.325 203.166C107.778 203.101 108.186 202.93 108.55 202.652C108.913 202.373 109.195 202.077 109.396 201.763L109.223 200.549L107.647 200.774C106.972 200.87 106.449 201.034 106.079 201.263C105.718 201.492 105.567 201.814 105.627 202.228C105.671 202.537 105.815 202.791 106.06 202.993C106.315 203.192 106.737 203.25 107.325 203.166Z" fill="white"/>
<path fill-rule="evenodd" clip-rule="evenodd" d="M181.227 191.433L181.132 180.746L178.411 182.622C178.411 182.622 178.241 182.811 178.505 186.336C178.865 190.978 173.875 190.58 173.497 189.424C173.119 188.268 174.008 181.504 175.236 179.439C175.992 178.131 179.828 175.289 182.587 173.337C184.364 172.087 186.707 171.897 188.654 172.883C192.755 174.929 200.786 181.712 201.882 185.028C202.355 186.43 204.66 194.559 204.66 194.559L207.325 200.528L193.284 206.402L189.334 197.553C183.457 198.671 181.302 191.698 181.302 191.698" fill="white"/>
<path fill-rule="evenodd" clip-rule="evenodd" d="M182.261 172.872C184.216 171.496 186.784 171.299 188.906 172.374C193.599 174.716 201.352 181.619 202.419 184.846L202.47 185.001C202.605 185.417 202.831 186.171 203.135 187.205L203.812 189.533L204.285 191.179L205.194 194.364L207.842 200.296C207.968 200.577 207.847 200.905 207.574 201.039L207.543 201.053L193.502 206.926C193.229 207.041 192.916 206.925 192.781 206.665L192.766 206.634L188.994 198.183L188.965 198.187C186.243 198.535 184.072 197.318 182.439 195.097L182.383 195.02C181.887 194.332 181.478 193.598 181.15 192.864L181.087 192.72C180.925 192.346 180.818 192.051 180.761 191.866C180.747 191.823 180.739 191.78 180.736 191.737L180.736 191.717L180.734 191.715C180.693 191.642 180.667 191.56 180.661 191.471L180.66 191.438L180.575 181.82L178.932 182.952L178.927 183.062C178.908 183.54 178.939 184.475 179.048 185.988L179.07 186.292C179.251 188.628 178.188 190.129 176.425 190.603C174.977 190.993 173.276 190.573 172.959 189.601C172.473 188.116 173.536 181.288 174.71 179.215L174.745 179.154C175.443 177.947 178.176 175.762 182.261 172.872ZM188.398 173.39C186.648 172.504 184.527 172.666 182.914 173.802L182.342 174.208C178.811 176.73 176.323 178.741 175.741 179.699L175.723 179.73C175.217 180.58 174.701 182.507 174.343 184.743L174.296 185.049C173.997 187.02 173.896 188.817 174.036 189.247L174.042 189.254C174.054 189.268 174.087 189.299 174.146 189.338C174.261 189.413 174.427 189.481 174.626 189.53C175.082 189.643 175.632 189.64 176.131 189.505C177.349 189.177 178.057 188.2 177.946 186.46L177.896 185.763C177.78 184.071 177.766 183.119 177.819 182.685L177.822 182.661C177.847 182.479 177.884 182.359 177.99 182.242C178.01 182.219 178.031 182.199 178.054 182.18L178.09 182.153L180.811 180.277C181.177 180.025 181.672 180.273 181.698 180.709L181.699 180.741L181.794 191.414L181.807 191.438C181.817 191.457 181.826 191.477 181.833 191.498L181.868 191.603C181.882 191.643 181.9 191.695 181.923 191.758C181.994 191.951 182.082 192.166 182.186 192.399C182.484 193.066 182.855 193.733 183.302 194.353C184.8 196.427 186.74 197.468 189.229 196.994C189.475 196.947 189.722 197.069 189.837 197.29L189.852 197.321L193.576 205.664L206.57 200.228L204.143 194.791C204.138 194.779 204.133 194.766 204.128 194.753L204.096 194.646L203.683 193.194L203.196 191.493L202.377 188.655C201.881 186.949 201.526 185.757 201.363 185.262L201.344 185.207C200.392 182.327 192.85 175.611 188.398 173.39Z" fill="#000091"/>
<path fill-rule="evenodd" clip-rule="evenodd" d="M183.816 176.729C183.816 176.729 177.485 180.48 177.409 184.801C177.334 189.121 178.468 193.27 180.981 193.384C183.495 193.498 182.72 191.395 182.72 191.395" fill="white"/>
<path fill-rule="evenodd" clip-rule="evenodd" d="M183.527 176.24C183.797 176.08 184.144 176.17 184.304 176.44C184.457 176.7 184.38 177.033 184.133 177.2L183.969 177.302C183.944 177.317 183.917 177.334 183.889 177.352L183.846 177.38C183.634 177.516 183.397 177.675 183.141 177.855C182.41 178.371 181.679 178.954 180.998 179.588C179.127 181.333 178.006 183.122 177.976 184.811C177.896 189.364 179.141 192.732 181.006 192.817C181.867 192.856 182.17 192.651 182.246 192.278C182.28 192.112 182.267 191.914 182.223 191.722L182.211 191.67C182.203 191.639 182.196 191.615 182.191 191.601L182.188 191.592C182.079 191.297 182.229 190.971 182.523 190.862C182.817 190.753 183.143 190.904 183.251 191.198L183.269 191.249C183.287 191.305 183.308 191.379 183.328 191.467C183.406 191.805 183.428 192.157 183.357 192.506C183.162 193.461 182.343 194.015 180.955 193.952C178.2 193.828 176.753 189.911 176.842 184.791C176.879 182.72 178.15 180.691 180.226 178.755C180.947 178.083 181.718 177.47 182.488 176.926L182.687 176.787C182.849 176.675 183.004 176.572 183.149 176.477L183.313 176.372C183.41 176.311 183.483 176.266 183.527 176.24Z" fill="#000091"/>
<path fill-rule="evenodd" clip-rule="evenodd" d="M185.422 179.78C185.422 179.78 179.961 183.437 180.811 185.957C181.643 188.477 183.533 193.953 184.647 194.635C186.632 195.867 187.615 193.309 187.615 193.309" fill="white"/>
<path fill-rule="evenodd" clip-rule="evenodd" d="M185.107 179.307C185.368 179.133 185.72 179.203 185.894 179.464C186.061 179.715 186.002 180.052 185.765 180.232L185.731 180.256L185.623 180.331L185.547 180.384C185.391 180.494 185.217 180.622 185.029 180.764C184.493 181.17 183.956 181.613 183.458 182.078C182.62 182.859 181.979 183.617 181.614 184.303C181.303 184.89 181.216 185.382 181.349 185.778L181.524 186.303C182.918 190.468 184.259 193.732 184.946 194.152C185.672 194.603 186.196 194.427 186.686 193.792C186.803 193.64 186.905 193.474 186.99 193.308L187.021 193.247C187.044 193.199 187.062 193.16 187.074 193.132L187.085 193.104C187.198 192.811 187.526 192.665 187.818 192.778C188.11 192.891 188.256 193.22 188.143 193.513L188.122 193.565C188.094 193.633 188.053 193.722 187.998 193.828C187.884 194.052 187.746 194.276 187.583 194.487C186.772 195.539 185.638 195.919 184.352 195.12C183.267 194.456 181.92 191.127 180.274 186.139C180.027 185.407 180.168 184.608 180.613 183.769C181.048 182.951 181.764 182.105 182.686 181.246C183.215 180.752 183.781 180.284 184.346 179.856L184.512 179.732C184.62 179.651 184.724 179.576 184.821 179.506L185.092 179.317C185.098 179.313 185.103 179.31 185.107 179.307Z" fill="#000091"/>
<path fill-rule="evenodd" clip-rule="evenodd" d="M188.465 182.622C188.465 182.622 182.682 183.531 184.931 189.519C186.405 193.441 187.746 194.862 189.372 195.431C190.997 195.999 192.433 193.536 191.035 191.887L189.428 189.462C189.428 189.462 191.432 191.812 192.169 189.14C192.169 189.14 191.205 194.199 193.548 195.999" fill="white"/>
<path fill-rule="evenodd" clip-rule="evenodd" d="M188.377 182.06C188.686 182.012 188.976 182.224 189.024 182.534C189.071 182.833 188.876 183.114 188.585 183.177L188.511 183.191C188.493 183.195 188.47 183.199 188.442 183.205L188.413 183.212C188.289 183.239 188.15 183.276 187.999 183.323C187.566 183.457 187.134 183.644 186.735 183.89C185.065 184.919 184.441 186.604 185.461 189.319L185.547 189.545C186.833 192.896 188.004 194.351 189.558 194.894C190.656 195.278 191.605 193.438 190.603 192.256L190.582 192.23L190.562 192.202L188.956 189.777C188.568 189.192 189.371 188.57 189.838 189.069L189.892 189.13C189.912 189.151 189.938 189.179 189.97 189.211C190.066 189.308 190.172 189.405 190.285 189.494C190.548 189.703 190.798 189.83 190.984 189.847C191.225 189.869 191.431 189.683 191.622 188.989C191.812 188.299 192.827 188.524 192.731 189.212L192.708 189.347C192.705 189.366 192.701 189.387 192.698 189.41L192.676 189.555C192.661 189.657 192.647 189.766 192.633 189.884C192.52 190.854 192.497 191.87 192.622 192.808C192.789 194.073 193.205 195.02 193.893 195.548C194.141 195.739 194.188 196.096 193.998 196.345C193.808 196.594 193.452 196.642 193.203 196.451C192.634 196.014 192.216 195.415 191.926 194.685L191.902 194.624L191.87 194.692L191.84 194.752C191.306 195.788 190.244 196.338 189.185 195.968C187.217 195.28 185.827 193.516 184.4 189.719C183.184 186.484 184.018 184.23 186.141 182.922C186.628 182.621 187.146 182.397 187.663 182.237L187.785 182.2C188.041 182.125 188.245 182.081 188.377 182.06ZM191.415 190.935L191.388 190.942C191.323 190.959 191.256 190.971 191.188 190.978L191.117 190.983L191.404 191.418L191.404 191.358C191.405 191.238 191.408 191.119 191.412 190.999L191.415 190.935Z" fill="#000091"/>
<path fill-rule="evenodd" clip-rule="evenodd" d="M209.253 181.674C209.101 182.811 211.898 189.614 190.165 204.81L193 208.031L212.654 203.256L209.253 181.674Z" fill="#6A6AF4"/>
<path fill-rule="evenodd" clip-rule="evenodd" d="M104.103 215.648C104.103 215.648 111.908 215.194 104.614 217.581C94.1441 219.381 84.9218 212.787 81.4256 208.145C79.0823 205.037 78.7988 200.85 80.6886 197.439C84.4304 189.576 90.2322 192.228 90.2322 192.228C90.2322 192.228 100.116 197.003 104.954 197.155" fill="white"/>
<path fill-rule="evenodd" clip-rule="evenodd" d="M83.5702 192.734C85.6052 191.186 87.7758 190.945 89.735 191.464C90.0727 191.553 90.3219 191.645 90.4784 191.716L90.7997 191.869L90.9196 191.925C91.2416 192.076 91.6033 192.242 91.9992 192.42L92.1324 192.48C93.4133 193.054 94.7679 193.628 96.1346 194.164C97.1515 194.563 98.1368 194.924 99.0764 195.241L99.3621 195.336C101.679 196.101 103.599 196.544 104.972 196.587C105.285 196.597 105.53 196.859 105.521 197.173C105.511 197.486 105.249 197.733 104.936 197.723C103.371 197.674 101.257 197.175 98.7154 196.319C97.7573 195.996 96.755 195.628 95.7217 195.223C94.3368 194.68 92.9659 194.099 91.6695 193.518L91.4023 193.397C91.0965 193.259 90.8118 193.128 90.5508 193.007L90.1543 192.821L89.997 192.746L89.9609 192.73C89.9441 192.723 89.9224 192.715 89.8962 192.705L89.8684 192.695C89.7475 192.65 89.6058 192.605 89.4455 192.563C87.7966 192.126 85.9799 192.328 84.2555 193.64C83.1364 194.491 82.1272 195.776 81.262 197.556L81.2004 197.684L81.1843 197.715C79.4018 200.932 79.6721 204.877 81.8782 207.802C83.7769 210.323 87.0055 212.964 90.6555 214.769C95.0324 216.934 99.7205 217.807 104.358 217.048L104.478 217.027L104.755 216.935C105.474 216.693 106.04 216.479 106.46 216.291L106.599 216.228L106.571 216.225C106.427 216.212 106.268 216.202 106.097 216.195L105.901 216.189C105.455 216.176 104.975 216.182 104.509 216.199L104.235 216.211L104.136 216.216C103.824 216.234 103.556 215.995 103.537 215.681C103.52 215.379 103.741 215.118 104.037 215.084L104.085 215.08L104.346 215.068C104.385 215.066 104.426 215.064 104.468 215.063C104.956 215.045 105.459 215.039 105.932 215.052L106.135 215.059C106.566 215.076 106.935 215.111 107.233 215.167C107.826 215.278 108.191 215.454 108.282 215.919C108.441 216.729 107.438 217.255 104.79 218.121C104.763 218.13 104.737 218.137 104.71 218.141C99.7684 218.991 94.7845 218.079 90.1539 215.789C86.3476 213.906 82.9802 211.152 80.9735 208.488C78.5212 205.236 78.1992 200.861 80.1338 197.272L80.1845 197.178L80.2409 197.062C81.1601 195.169 82.2511 193.764 83.4839 192.801L83.5702 192.734Z" fill="#000091"/>
<path fill-rule="evenodd" clip-rule="evenodd" d="M90.5154 212.56C90.5154 212.56 97.1298 217.922 107.58 214.758C112.494 213.261 108.941 211.669 108.941 211.669" fill="white"/>
<path fill-rule="evenodd" clip-rule="evenodd" d="M108.424 211.438C108.551 211.151 108.887 211.022 109.173 211.15C109.363 211.236 109.631 211.383 109.903 211.589C110.488 212.031 110.836 212.554 110.734 213.192C110.615 213.935 109.887 214.528 108.53 215.037C108.29 215.127 108.029 215.216 107.745 215.302C102.177 216.988 97.2298 216.507 93.0853 214.679C92.2659 214.317 91.5467 213.929 90.9323 213.54L90.8119 213.463C90.5022 213.262 90.2835 213.103 90.1592 213.002C89.9158 212.805 89.878 212.447 90.0748 212.203C90.2641 211.968 90.6015 211.924 90.8436 212.096L90.9289 212.162C90.9486 212.177 90.9725 212.195 91.0006 212.215L91.03 212.237C91.1716 212.339 91.3412 212.454 91.5381 212.579C92.1062 212.939 92.7759 213.3 93.542 213.638C97.4508 215.363 102.123 215.817 107.416 214.214C107.677 214.135 107.915 214.054 108.132 213.973C108.699 213.76 109.104 213.546 109.355 213.341C109.53 213.199 109.602 213.089 109.614 213.012C109.632 212.903 109.504 212.711 109.221 212.497C109.109 212.412 108.986 212.334 108.863 212.267L108.789 212.227C108.76 212.212 108.737 212.201 108.721 212.193L108.71 212.188C108.424 212.06 108.296 211.724 108.424 211.438Z" fill="#000091"/>
<path fill-rule="evenodd" clip-rule="evenodd" d="M91.9896 208.202C94.2951 209.376 96.2417 211.669 100.399 211.707C106.522 211.764 109.64 211.916 111.171 210.741C112.702 209.566 112.872 208.221 107.883 207.084" fill="white"/>
<path fill-rule="evenodd" clip-rule="evenodd" d="M107.33 206.958C107.399 206.652 107.703 206.46 108.009 206.53L108.239 206.583C110.589 207.139 111.943 207.78 112.453 208.597C113.013 209.496 112.575 210.379 111.516 211.192C110.738 211.789 109.655 212.09 108 212.222L107.651 212.247C106.708 212.31 105.815 212.325 103.733 212.309L100.394 212.276C97.956 212.253 96.2808 211.61 94.0657 210.169L93.7666 209.972L93.08 209.516C92.9141 209.407 92.776 209.317 92.6401 209.232C92.3058 209.021 92.0142 208.852 91.7327 208.709C91.4536 208.566 91.3423 208.224 91.4841 207.944C91.626 207.664 91.9673 207.553 92.2464 207.695C92.5618 207.856 92.8822 208.042 93.2435 208.269L93.4614 208.408C93.5365 208.457 93.6151 208.508 93.7006 208.564L94.5683 209.14C96.6393 210.502 98.1235 211.097 100.284 211.137L103.741 211.172C105.958 211.189 106.805 211.171 107.805 211.097L108.008 211.08C109.405 210.961 110.272 210.715 110.827 210.29C111.48 209.788 111.647 209.45 111.491 209.2C111.179 208.699 109.968 208.142 107.757 207.638C107.452 207.569 107.261 207.264 107.33 206.958Z" fill="#000091"/>
<path fill-rule="evenodd" clip-rule="evenodd" d="M95.0133 199.202C95.0133 199.202 100.059 202.593 105.596 202.574C111.133 202.555 114.724 204.924 112.437 206.061C110.151 207.179 102.138 207.861 98.5283 206.686C94.9188 205.511 93.0668 203.92 93.0668 203.92" fill="white"/>
<path fill-rule="evenodd" clip-rule="evenodd" d="M94.5422 198.885C94.7101 198.634 95.0429 198.56 95.2996 198.711L95.4524 198.809L95.5388 198.864C95.7174 198.975 95.9262 199.1 96.1629 199.234C96.8418 199.62 97.6059 200.006 98.437 200.366C100.818 201.399 103.254 202.014 105.594 202.006C108.261 201.997 110.705 202.534 112.228 203.388C113.922 204.339 114.302 205.768 112.686 206.572C110.027 207.871 101.835 208.36 98.3532 207.227C97.625 206.99 96.9344 206.726 96.2815 206.439C95.2554 205.989 94.3691 205.506 93.6243 205.021L93.4986 204.938C93.1133 204.682 92.846 204.479 92.6977 204.351C92.46 204.147 92.4324 203.788 92.6362 203.55C92.84 203.311 93.1979 203.284 93.4356 203.488L93.475 203.521C93.5092 203.548 93.5593 203.588 93.6253 203.638L93.7441 203.726C93.8887 203.831 94.0547 203.946 94.2418 204.068C94.936 204.52 95.7679 204.973 96.7359 205.398C97.355 205.669 98.0109 205.92 98.7032 206.145C101.91 207.189 109.798 206.719 112.185 205.552C112.521 205.385 112.589 205.277 112.564 205.18C112.511 204.98 112.206 204.679 111.674 204.38C110.36 203.643 108.162 203.152 105.731 203.143L105.598 203.143C103.082 203.151 100.499 202.499 97.9868 201.41C97.1166 201.032 96.3166 200.628 95.6039 200.223L95.4215 200.118C95.274 200.033 95.1378 199.951 95.0134 199.875L94.8057 199.744C94.7584 199.714 94.7222 199.69 94.6974 199.674C94.4374 199.499 94.3679 199.146 94.5422 198.885Z" fill="#000091"/>
</g>
<defs>
<clipPath id="clip0_449_12463">
<rect width="196" height="223" fill="white"/>
</clipPath>
</defs>
</svg>
