<svg width="322" height="181" viewBox="0 0 322 181" fill="none" xmlns="http://www.w3.org/2000/svg">
<path fill-rule="evenodd" clip-rule="evenodd" d="M4.65559 36.3211C8.46083 33.8068 13.884 32.2802 21.4945 33.268C21.4945 33.268 29.0151 8.90242 52.2061 18.2116C52.2061 18.2116 61.8241 -7.05193 87.4121 4.08319L89.2399 5.01111C96.6706 10.0099 99.8166 18.2116 99.8166 18.2116C122.978 8.87248 130.528 33.268 130.528 33.268C154.019 30.2747 156.416 51.0183 156.416 51.0183H9.09004C1.14997 51.0183 -1.9961 40.6914 4.65559 36.3211Z" fill="white"/>
<path fill-rule="evenodd" clip-rule="evenodd" d="M68.5088 1.28996C63.9129 2.65907 60.0272 5.41673 56.806 9.14311C55.1569 11.0509 53.7875 13.0919 52.6811 15.1336L52.5665 15.3468C52.2657 15.9113 52.0033 16.4428 51.7783 16.9328L51.7203 17.0601L51.6477 17.033C45.5755 14.7768 40.187 14.6469 35.4746 16.3503C31.4445 17.8071 28.0914 20.529 25.3569 24.1378C23.8908 26.0727 22.6949 28.1413 21.7466 30.2103L21.6485 30.4262C21.3913 30.998 21.1688 31.5362 20.9795 32.0324L20.8826 32.2897L20.8782 32.2892C14.0111 31.5256 8.45203 32.7358 4.1596 35.5721C-3.2298 40.427 0.250616 51.9163 9.08994 51.9163H156.416C156.953 51.9163 157.37 51.4485 157.309 50.9153L157.292 50.7832C157.268 50.6149 157.229 50.3757 157.171 50.0736C157.047 49.4294 156.876 48.7142 156.65 47.9454C156.005 45.7518 155.046 43.5581 153.709 41.5056C151.701 38.4234 149.017 35.9406 145.571 34.2872L145.383 34.1985C141.495 32.3819 136.796 31.6869 131.229 32.2817L131.14 32.2915L131.112 32.2155C130.885 31.6083 130.606 30.9337 130.273 30.2083C129.323 28.1383 128.126 26.0686 126.66 24.1327C123.922 20.5197 120.568 17.7952 116.538 16.3383L116.365 16.2768C111.754 14.659 106.502 14.7918 100.603 16.9472L100.3 17.0598L100.324 17.1125C100.052 16.513 99.7228 15.8471 99.3328 15.1312C98.2205 13.0892 96.8455 11.048 95.1911 9.13998C93.565 7.26449 91.7514 5.61813 89.7418 4.26622C89.7114 4.24574 89.6797 4.22714 89.647 4.21053L87.8193 3.2826L87.771 3.25987C80.5876 0.13388 74.1687 -0.396142 68.5088 1.28996ZM87.03 4.89643L88.781 5.78544L88.7377 5.75593C90.6087 7.01463 92.3055 8.55493 93.8322 10.3158C95.3959 12.1194 96.6998 14.0549 97.7537 15.9897C98.1219 16.6656 98.4321 17.2921 98.6858 17.8525L98.8077 18.1268C98.8449 18.2124 98.8788 18.2921 98.9093 18.3655L98.9772 18.5329C99.157 19.0018 99.6868 19.2322 100.153 19.0443C106.187 16.6112 111.415 16.396 115.926 18.0271C119.597 19.3544 122.684 21.8612 125.226 25.2167C126.608 27.0403 127.741 28.9987 128.639 30.9568C128.953 31.6413 129.215 32.2758 129.427 32.8434L129.529 33.1214C129.55 33.1792 129.569 33.2343 129.587 33.2867L129.669 33.5332C129.798 33.95 130.209 34.2139 130.642 34.1587C136.326 33.4344 141.006 34.09 144.793 35.9063C147.926 37.4095 150.366 39.6666 152.202 42.4852C153.437 44.3802 154.326 46.416 154.925 48.4518L154.987 48.6637C155.106 49.0843 155.207 49.4854 155.292 49.8633L155.347 50.1203H9.08994C2.03137 50.1203 -0.747808 40.9459 5.14939 37.0714C9.22096 34.381 14.5876 33.277 21.3786 34.1584C21.7947 34.2124 22.1901 33.9719 22.3358 33.584L22.4092 33.3628L22.4634 33.2057C22.4924 33.1231 22.5242 33.0344 22.559 32.9398L22.5947 32.8433C22.8062 32.2761 23.0676 31.642 23.3811 30.958C24.278 29.0012 25.4094 27.0442 26.7903 25.2218C29.3295 21.8706 32.4145 19.3664 36.0862 18.0392C40.5984 16.4082 45.8298 16.6198 51.8709 19.0448C52.3376 19.2322 52.8674 19.0005 53.0462 18.5308L53.1135 18.3635L53.1786 18.2085C53.2249 18.0998 53.2772 17.9803 53.3355 17.8508C53.5875 17.2906 53.8958 16.6643 54.262 15.9886C55.3101 14.0546 56.6082 12.1198 58.1667 10.317C61.1782 6.83305 64.7849 4.27346 69.0225 3.01106C74.2022 1.46801 80.1106 1.93348 86.8213 4.8064L87.03 4.89643Z" fill="#272747"/>
<path fill-rule="evenodd" clip-rule="evenodd" d="M102.214 165.033C106.019 162.519 111.442 160.993 119.053 161.98C119.053 161.98 126.573 137.615 149.764 146.924C149.764 146.924 159.382 121.66 184.97 132.796L186.798 133.723C194.229 138.722 197.375 146.924 197.375 146.924C220.536 137.585 228.086 161.98 228.086 161.98C251.577 158.987 253.974 179.731 253.974 179.731H106.648C98.7081 179.701 95.562 169.374 102.214 165.033Z" fill="white"/>
<path fill-rule="evenodd" clip-rule="evenodd" d="M166.067 130.002C161.471 131.371 157.585 134.129 154.364 137.856C152.715 139.763 151.345 141.804 150.239 143.846L150.124 144.059C149.824 144.624 149.561 145.155 149.336 145.645L149.278 145.772L149.206 145.745C143.133 143.489 137.745 143.359 133.032 145.063C129.002 146.519 125.649 149.241 122.915 152.85C121.449 154.785 120.253 156.854 119.304 158.923L119.206 159.139C118.949 159.71 118.727 160.249 118.537 160.745L118.44 161.002L118.436 161.002C111.569 160.238 106.01 161.448 101.717 164.285C94.3273 169.107 97.8076 180.595 106.644 180.629L253.974 180.629C254.511 180.629 254.928 180.161 254.867 179.628L254.85 179.496C254.826 179.327 254.787 179.088 254.729 178.786C254.605 178.142 254.434 177.427 254.208 176.658C253.563 174.464 252.604 172.27 251.267 170.218C249.259 167.136 246.575 164.653 243.129 163L242.941 162.911C239.053 161.094 234.353 160.399 228.787 160.994L228.698 161.004L228.67 160.928C228.443 160.321 228.164 159.646 227.831 158.921C226.881 156.851 225.684 154.781 224.218 152.845C221.48 149.232 218.125 146.508 214.096 145.051L213.923 144.989C209.311 143.371 204.06 143.504 198.161 145.66L197.857 145.772L197.882 145.825C197.61 145.225 197.281 144.559 196.891 143.844C195.778 141.802 194.403 139.76 192.749 137.852C191.123 135.977 189.309 134.331 187.3 132.979C187.269 132.958 187.238 132.94 187.205 132.923L185.377 131.995L185.329 131.972C178.146 128.846 171.727 128.316 166.067 130.002ZM184.588 133.609L186.339 134.498L186.296 134.468C188.167 135.727 189.863 137.267 191.39 139.028C192.954 140.832 194.258 142.767 195.312 144.702C195.68 145.378 195.99 146.005 196.244 146.565L196.366 146.839C196.403 146.925 196.437 147.004 196.467 147.078L196.535 147.245C196.715 147.714 197.245 147.945 197.711 147.757C203.745 145.324 208.973 145.108 213.484 146.739C217.155 148.067 220.242 150.574 222.784 153.929C224.166 155.753 225.299 157.711 226.197 159.669C226.511 160.354 226.773 160.988 226.985 161.556L227.087 161.834C227.108 161.892 227.127 161.947 227.145 161.999L227.227 162.246C227.356 162.662 227.767 162.926 228.2 162.871C233.884 162.147 238.564 162.802 242.35 164.619C245.484 166.122 247.924 168.379 249.76 171.198C250.995 173.093 251.884 175.128 252.483 177.164L252.545 177.376C252.684 177.867 252.798 178.331 252.89 178.763L252.904 178.832L106.648 178.833C99.5902 178.806 96.8109 169.631 102.705 165.785C106.779 163.093 112.146 161.989 118.937 162.871C119.353 162.925 119.748 162.684 119.894 162.296L119.967 162.075L120.021 161.918C120.05 161.835 120.082 161.747 120.117 161.652L120.153 161.556C120.364 160.988 120.625 160.354 120.939 159.67C121.836 157.714 122.967 155.757 124.348 153.934C126.887 150.583 129.972 148.079 133.644 146.752C138.156 145.121 143.388 145.332 149.429 147.757C149.896 147.945 150.425 147.713 150.604 147.243L150.671 147.076L150.736 146.921C150.783 146.812 150.835 146.693 150.893 146.563C151.145 146.003 151.454 145.377 151.82 144.701C152.868 142.767 154.166 140.832 155.725 139.029C158.736 135.545 162.343 132.986 166.58 131.723C171.76 130.18 177.669 130.646 184.379 133.519L184.588 133.609Z" fill="#272747"/>
<path fill-rule="evenodd" clip-rule="evenodd" d="M169.09 88.5843C172.895 86.07 178.319 84.5434 185.929 85.5312C185.929 85.5312 193.45 61.1656 216.641 70.4748C216.641 70.4748 226.259 45.2113 251.847 56.3464L253.674 57.2743C261.105 62.2731 264.251 70.4748 264.251 70.4748C287.412 61.1357 294.963 85.5312 294.963 85.5312C318.453 82.5378 320.85 103.281 320.85 103.281H173.554C165.584 103.281 162.438 92.9546 169.09 88.5843Z" fill="white"/>
<path fill-rule="evenodd" clip-rule="evenodd" d="M232.943 53.5531C228.348 54.9223 224.462 57.6799 221.241 61.4063C219.592 63.3141 218.222 65.3551 217.116 67.3967L217.001 67.61C216.7 68.1745 216.438 68.706 216.213 69.196L216.155 69.3232L216.082 69.2961C210.01 67.04 204.622 66.9101 199.909 68.6135C195.879 70.0702 192.526 72.7922 189.792 76.401C188.325 78.3359 187.13 80.4045 186.181 82.4735L186.083 82.6894C185.826 83.2612 185.603 83.7994 185.414 84.2956L185.317 84.5529L185.313 84.5524C178.446 83.7888 172.887 84.999 168.594 87.8353C161.199 92.694 164.692 104.179 173.555 104.179H320.85C321.388 104.179 321.805 103.712 321.743 103.178L321.726 103.046C321.703 102.878 321.664 102.639 321.606 102.337C321.482 101.693 321.311 100.977 321.085 100.209C320.44 98.015 319.481 95.8213 318.144 93.7688C316.136 90.6866 313.452 88.2037 310.005 86.5504L309.818 86.4617C305.929 84.6451 301.23 83.95 295.663 84.5449L295.574 84.5547L295.546 84.4787C295.32 83.8715 295.041 83.1969 294.708 82.4715C293.758 80.4015 292.561 78.3318 291.094 76.3959C288.357 72.7829 285.002 70.0584 280.973 68.6015L280.8 68.54C276.188 66.9222 270.936 67.055 265.038 69.2104L264.734 69.3229L264.759 69.3757C264.487 68.7762 264.157 68.1103 263.767 67.3944C262.655 65.3524 261.28 63.3112 259.626 61.4032C258 59.5277 256.186 57.8813 254.177 56.5294C254.146 56.5089 254.114 56.4903 254.082 56.4737L252.254 55.5458L252.206 55.5231C245.022 52.3971 238.603 51.867 232.943 53.5531ZM251.465 57.1596L253.216 58.0486L253.172 58.0191C255.043 59.2778 256.74 60.8181 258.267 62.579C259.831 64.3826 261.134 66.3181 262.188 68.2529C262.557 68.9288 262.867 69.5553 263.12 70.1157L263.242 70.39C263.28 70.4756 263.313 70.5553 263.344 70.6287L263.412 70.7961C263.592 71.265 264.122 71.4954 264.588 71.3075C270.622 68.8744 275.849 68.6592 280.361 70.2903C284.032 71.6176 287.119 74.1244 289.661 77.4798C291.043 79.3035 292.175 81.2619 293.074 83.22C293.388 83.9044 293.65 84.539 293.862 85.1066L293.964 85.3845C293.984 85.4424 294.004 85.4975 294.022 85.5499L294.104 85.7964C294.233 86.2132 294.643 86.4771 295.077 86.4219C300.76 85.6976 305.441 86.3532 309.227 88.1694C312.361 89.6727 314.801 91.9297 316.637 94.7484C317.871 96.6434 318.761 98.6792 319.36 100.715L319.421 100.927C319.561 101.418 319.675 101.882 319.767 102.313L319.781 102.383L173.555 102.383C166.472 102.383 163.682 93.2121 169.584 89.3346C173.656 86.6442 179.022 85.5402 185.813 86.4216C186.229 86.4756 186.625 86.2351 186.77 85.8471L186.844 85.626L186.898 85.4689C186.927 85.3863 186.959 85.2975 186.994 85.203L187.029 85.1065C187.241 84.5393 187.502 83.9052 187.816 83.2212C188.713 81.2644 189.844 79.3074 191.225 77.485C193.764 74.1338 196.849 71.6296 200.521 70.3023C205.033 68.6713 210.264 68.883 216.306 71.308C216.772 71.4953 217.302 71.2637 217.481 70.794L217.548 70.6267L217.613 70.4717C217.66 70.363 217.712 70.2435 217.77 70.1139C218.022 69.5538 218.33 68.9275 218.697 68.2518C219.745 66.3178 221.043 64.383 222.601 62.5801C225.613 59.0962 229.22 56.5366 233.457 55.2742C238.637 53.7312 244.545 54.1967 251.256 57.0696L251.465 57.1596Z" fill="#272747"/>
<path fill-rule="evenodd" clip-rule="evenodd" d="M200.64 125.252H60.8651C57.9287 125.252 55.5317 122.858 55.5317 119.924V36.8899C55.5317 33.9564 57.9287 31.5618 60.8651 31.5618H200.64C203.577 31.5618 205.974 33.9564 205.974 36.8899V119.924C205.974 122.858 203.577 125.252 200.64 125.252Z" fill="#6A6AF4"/>
<path fill-rule="evenodd" clip-rule="evenodd" d="M201.618 33.576C202.01 33.2722 202.575 33.3436 202.879 33.7356C203.172 34.1124 203.117 34.6485 202.763 34.9593L202.719 34.9954L134.078 88.1544C132.136 89.6711 129.516 89.6952 127.555 88.2288L127.461 88.1567L58.8165 34.9954C58.4241 34.6916 58.3526 34.1275 58.6568 33.7356C58.9492 33.3587 59.4825 33.2781 59.8719 33.5426L59.9179 33.576L128.565 86.7395C129.861 87.7519 131.578 87.7721 132.894 86.7981L132.974 86.7372L201.618 33.576Z" fill="white"/>
<path fill-rule="evenodd" clip-rule="evenodd" d="M99.6394 65.311C99.9953 64.9653 100.564 64.9733 100.91 65.3289C101.243 65.6703 101.249 66.2079 100.934 66.5562L100.893 66.5987L57.7764 108.475C57.4205 108.821 56.8514 108.813 56.5054 108.457C56.1731 108.116 56.1673 107.578 56.4822 107.23L56.5233 107.187L99.6394 65.311Z" fill="white"/>
<path fill-rule="evenodd" clip-rule="evenodd" d="M160.985 65.3289C161.317 64.9875 161.855 64.9665 162.212 65.2712L162.256 65.311L205.372 107.187C205.728 107.533 205.736 108.102 205.39 108.457C205.058 108.799 204.52 108.82 204.163 108.515L204.119 108.475L161.003 66.5987C160.647 66.253 160.639 65.6845 160.985 65.3289Z" fill="white"/>
<path fill-rule="evenodd" clip-rule="evenodd" d="M201.18 173.714C224.363 173.714 243.157 154.939 243.157 131.778C243.157 108.617 224.363 89.8416 201.18 89.8416C177.996 89.8416 159.202 108.617 159.202 131.778C159.202 154.939 177.996 173.714 201.18 173.714Z" fill="#27A658"/>
<path fill-rule="evenodd" clip-rule="evenodd" d="M234.228 91.7872C232.49 90.7096 230.183 91.2484 229.105 92.9846L219.936 107.712C214.483 103.311 207.561 100.677 200.041 100.677C182.543 100.677 168.311 114.896 168.311 132.377C168.311 149.857 182.543 164.076 200.041 164.076C217.539 164.076 231.771 149.857 231.771 132.377C231.771 125.163 229.344 118.517 225.269 113.159L235.397 96.8759C236.505 95.1397 235.966 92.8648 234.228 91.7872ZM229.434 132.377C229.434 148.57 216.251 161.741 200.041 161.741C183.831 161.741 170.648 148.57 170.648 132.377C170.648 116.183 183.831 103.012 200.041 103.012C207.112 103.012 213.614 105.527 218.678 109.687L202.078 136.358L192.46 123.576C191.232 121.93 188.895 121.601 187.247 122.828C185.599 124.055 185.269 126.39 186.498 128.036L199.382 145.158C200.101 146.086 201.179 146.655 202.348 146.655C202.408 146.655 202.468 146.655 202.498 146.655C203.726 146.595 204.835 145.936 205.494 144.919L223.921 115.345C227.397 120.134 229.434 126.031 229.434 132.377Z" fill="#B8FEC9"/>
</svg>
