<svg width="1288" height="333" viewBox="0 0 1288 333" fill="none" xmlns="http://www.w3.org/2000/svg">
<rect width="1287.89" height="332.047" rx="10" transform="matrix(1 0 0 -1 0 332.212)" fill="#F6F6F6"/>
<path d="M45.6726 139.44C50.6036 155.466 69.3413 187.27 104.844 186.284C149.222 185.051 161.549 114.786 242.909 113.553C324.269 112.32 425.353 207.24 457.404 160.397C489.455 113.553 456.171 59.3131 432.749 86.4331C409.327 113.553 456.171 148.069 509.178 99.9931C562.186 51.9167 680.528 81.5022 737.233 148.069C793.939 214.637 817.36 139.44 895.022 139.44C972.684 139.44 1173.62 224.499 1189.64 172.724C1205.67 120.949 1173.62 93.8295 1155.13 113.553C1136.64 133.277 1209.37 189.982 1242.65 120.949" stroke="#DDDDDD" stroke-width="5" stroke-linecap="round" stroke-linejoin="round" stroke-dasharray="4 10"/>
<path d="M1134.87 15.0089C1137.66 19.4345 1139.56 24.3672 1140.45 29.5254C1141.34 34.6836 1141.2 39.9663 1140.05 45.0717C1138.89 50.1772 1136.74 55.0055 1133.73 59.281C1130.71 63.5565 1126.87 67.1954 1122.45 69.99C1118.02 72.7846 1113.09 74.6801 1107.93 75.5684C1102.77 76.4566 1097.49 76.3202 1092.39 75.1669C1087.28 74.0136 1082.45 71.866 1078.18 68.8467C1073.9 65.8274 1070.26 61.9956 1067.47 57.5699L1080.03 49.6364C1081.78 52.4121 1084.07 54.8154 1086.75 56.7091C1089.43 58.6028 1092.46 59.9498 1095.66 60.6731C1098.86 61.3965 1102.18 61.482 1105.41 60.9249C1108.65 60.3678 1111.74 59.1789 1114.52 57.4262C1117.29 55.6734 1119.69 53.3911 1121.59 50.7096C1123.48 48.028 1124.83 44.9997 1125.55 41.7976C1126.28 38.5955 1126.36 35.2823 1125.8 32.0471C1125.25 28.8119 1124.06 25.7181 1122.3 22.9424L1134.87 15.0089Z" fill="#D2CDDB"/>
<circle cx="908.944" cy="76.2894" r="40" fill="#E0840B" fill-opacity="0.29"/>
<circle cx="555.824" cy="166.188" r="28" fill="#FF8D7E" fill-opacity="0.31"/>
</svg>
