<svg xmlns="http://www.w3.org/2000/svg" width="288" height="159" fill="none" viewBox="0 0 288 159"><g clip-path="url(#a)"><path fill="#f6f6f6" d="M3 0h282v158.625H3z"/><path fill="#ffc29e" fill-rule="evenodd" d="M46.594 157.526H92.89v-47.517c0-2.368-1.959-4.296-4.365-4.296H38.35c-2.406 0-4.365 1.928-4.365 4.296v35.087c0 6.867 5.633 12.43 12.61 12.43" clip-rule="evenodd"/><path fill="#e0840b" fill-opacity=".29" fill-rule="evenodd" d="M63.623 99.948s-1.567-12.54-1.045-18.25 3.227-26.017 9.066-36.446C77.482 34.823 87.2 40.901 87.2 40.901s8.356 4.24 4.775 14.027c-3.581 9.768-13.672 30.552-16.47 34.334-2.78 3.782-9.14 11.292-11.882 10.686M59.613 81.037s1.063-19.646-3.544-29.102S43.85 34.97 37.323 39.745c-6.529 4.773.54 19.112 4.309 24.584 3.786 5.471 17.98 16.708 17.98 16.708M62.672 104.226c-3.078-.019-18.485-1.689-21.824-12.045-3.246-10.08 6.584-15.753 12.777-10.74 6.174 4.994 9.047 22.785 9.047 22.785M67.39 102.904c2.276-3.323 10.055-12.65 17.945-11.824s7.554 7.454 1.809 10.172c-5.726 2.735-19.753 1.652-19.753 1.652" clip-rule="evenodd"/><path fill="#fff" fill-rule="evenodd" d="M38.87 133.639c.02-2.901-.317-6.132-.988-9.033 4.756-2.13 6.995-6.72 4.738-8.74-1.25-1.12-4.178 1.837-6.006 4.701-.765-1.8-1.698-3.232-2.836-4.04-3.973-2.809-4.253 3.764-3.656 9.548-.466-.367-1.044-.716-1.66-.863-1.66-.386-2.984 1.707-2.48 3.452.41 1.45 2.853 1.891 4.625.826.168.991.355 1.891.523 2.57.037.184.093.368.149.533-.802-.367-1.567-.588-2.07-.441-.915.239-2.892 1.34-2.575 2.809.317 1.487 1.25 2.442 3.264 2.002.896-.202 1.735-.68 2.388-1.175 1.362 3.837 3.227 7.27 4.551 6.316 1.157-.845 1.828-3.452 1.996-6.739.336.165.82.404 1.511.68 1.697.697 2.294-1.818 1.511-2.663-.69-.679-1.828-.551-2.984.257" clip-rule="evenodd"/><path fill="#000091" fill-rule="evenodd" d="M39.367 116.393c-.864.759-1.781 1.809-2.595 2.946l-.065.092-.003-.006c-.749-1.514-1.608-2.641-2.598-3.344-2.203-1.558-3.786-.702-4.413 1.869l-.023.093c-.385 1.656-.438 4.039-.22 6.808l.01.145-.08-.04a4 4 0 0 0-.786-.28c-2.088-.485-3.776 1.974-3.15 4.138l.016.055c.499 1.597 2.754 2.171 4.67 1.459l.055-.02.004.022c.082.441.168.863.254 1.25l.026.116-.002-.001c-.52-.147-.972-.184-1.357-.088l-.06.017c-.6.156-1.38.56-1.958 1.056-.791.68-1.198 1.502-1.005 2.396.416 1.95 1.763 2.899 3.933 2.424l.104-.025a6.5 6.5 0 0 0 1.834-.791l.05-.032.01.029c.667 1.773 1.39 3.299 2.088 4.361.453.688.898 1.187 1.346 1.477.577.374 1.19.408 1.716.029l.044-.033c1.152-.883 1.86-3.103 2.117-6.172l.01-.126.072.033.17.075c.172.075.35.149.553.23 1.079.443 2.006-.052 2.416-1.059.345-.848.26-1.901-.282-2.485l-.017-.018-.042-.041c-.697-.65-1.68-.719-2.71-.292l-.075.032-.002-.088a41 41 0 0 0-.883-7.622l-.015-.068.03-.014c4.67-2.311 7.06-7.099 4.442-9.441-.877-.786-2.121-.359-3.53.848zm2.876-.119c1.927 1.724-.251 5.886-4.593 7.83a.55.55 0 0 0-.313.624c.649 2.806.993 5.991.974 8.908-.003.448.512.712.884.452l.057-.039c.933-.633 1.733-.71 2.18-.303l.017.016-.007-.009c.218.236.267.845.069 1.334-.189.462-.476.627-.91.465l-.041-.016c-.551-.22-.91-.385-1.476-.664a.56.56 0 0 0-.81.465l-.012.225c-.186 3.166-.85 5.436-1.758 6.099-.249.179-.754-.147-1.459-1.218-.733-1.115-1.521-2.838-2.23-4.837a.564.564 0 0 0-.87-.255c-.69.524-1.446.911-2.171 1.074-1.533.336-2.3-.204-2.592-1.577-.178-.825.972-1.828 2.116-2.149l.054-.015c.309-.089.911.051 1.691.408.445.204.922-.215.767-.674a4 4 0 0 1-.119-.406l-.017-.082a36 36 0 0 1-.515-2.531.56.56 0 0 0-.843-.379c-1.49.895-3.501.535-3.795-.504-.417-1.443.674-3.033 1.813-2.768.463.11.959.379 1.439.757.387.305.956 0 .906-.486-.335-3.253-.327-6.056.102-7.812l.03-.123c.462-1.774 1.196-2.131 2.641-1.109.986.7 1.874 1.988 2.645 3.804a.564.564 0 0 0 .99.081l.118-.182c1.922-2.943 4.362-5.01 5.038-4.404" clip-rule="evenodd"/><path fill="#fff" fill-rule="evenodd" d="M57.244 132.795c-.802-.459-2.276-.569-3.675-.165 2.201-4.095 3.75-8.685 1.418-8.979-2.556-.183-4.533 1.745-5.988 4.058-.727-1.193-2.089-2.277-3.115-2.424-1.884-.257-3.003.735-2.518 2.369.373 1.212 2.35 2.882 4.048 3.103-.653 1.45-1.12 2.791-1.437 3.653-1.044 2.846-1.324 7.877-1.324 7.877s1.343-.22 4.01-2.258c.597-.441 1.959-2.699 2.817-3.929.504.183 1.231.348 2.257.459 5.018.569 4.868-2.993 3.507-3.764" clip-rule="evenodd"/><path fill="#000091" fill-rule="evenodd" d="m48.982 126.728-.045-.054c-.842-1.004-2.005-1.795-2.972-1.934-2.282-.311-3.74 1.035-3.136 3.068l.017.054c.431 1.289 2.135 2.754 3.76 3.273l.029.009-.082.195q-.214.51-.423 1.052l-.084.22-.2.533-.395 1.079c-.305.831-.561 1.872-.777 3.078a43 43 0 0 0-.455 3.406l-.028.298q-.027.293-.048.561l-.025.331-.024.36a.556.556 0 0 0 .651.573l.052-.009q.102-.022.277-.075.351-.109.822-.325c.847-.392 1.846-1.001 2.995-1.869l.116-.088c.374-.276.85-.918 1.71-2.212l.772-1.171.22-.329.039.011q.739.207 1.795.328l.133.015c2.465.28 4.108-.372 4.717-1.7.517-1.128.103-2.538-.87-3.089l-.06-.033c-.701-.377-1.723-.524-2.781-.424l-.09.009.06-.119c.907-1.828 1.573-3.546 1.873-4.919l.03-.145c.413-2.033.003-3.392-1.497-3.581l-.03-.003c-2.297-.165-4.27 1.134-5.968 3.515zm5.893-2.532.055.004-.014-.002c.648.081.857.835.515 2.401-.337 1.539-1.193 3.609-2.356 5.773-.232.43.177.923.652.786 1.216-.351 2.55-.28 3.236.113.462.262.696 1.058.41 1.682-.374.815-1.506 1.274-3.479 1.069l-.093-.011c-.922-.099-1.628-.246-2.126-.428a.564.564 0 0 0-.656.205l-.103.149q-.089.128-.19.28l-.994 1.504c-.71 1.066-1.163 1.676-1.39 1.856l-.014.011c-1.143.873-2.11 1.466-2.908 1.836l-.108.049-.04.017.009-.106q.023-.275.052-.573c.11-1.133.256-2.266.444-3.319.196-1.101.427-2.05.692-2.798l.301-.828c.119-.323.22-.595.324-.869.273-.718.542-1.375.831-2.017a.55.55 0 0 0-.438-.769c-1.406-.183-3.257-1.649-3.585-2.717-.355-1.197.376-1.872 1.905-1.663.823.118 2.055 1.082 2.712 2.161a.564.564 0 0 0 .956.007c1.602-2.547 3.398-3.912 5.4-3.803" clip-rule="evenodd"/><path fill="#000091" fill-rule="evenodd" d="M35.327 157.673H45.53c7.125 0 12.908-5.692 12.908-12.706v-.477c0-2.662-2.183-4.81-4.887-4.81H27.306c-2.705 0-4.887 2.148-4.887 4.81v.477c0 7.014 5.782 12.706 12.908 12.706" clip-rule="evenodd"/><path fill="#ff8d7e" fill-rule="evenodd" d="M221.557 54.157c40.309-2.02 46.054 18.966 44.561 34.903a181146 181146 0 0 1-6.472 68.705c.242.22-95.988.22-95.708 0 0 0 4.943-52.383 6.473-68.705 1.492-15.937 11.21-36.923 51.146-34.903" clip-rule="evenodd"/><path fill="#fff" fill-rule="evenodd" d="M221.767 54.18a.56.56 0 0 1 .625-.478c12.597 1.55 21.032 6.269 25.786 13.586 3.859 5.94 5.127 13.318 4.36 21.493l-6.51 68.979a.56.56 0 0 1-.609.498.553.553 0 0 1-.506-.599l6.51-68.98c.746-7.95-.481-15.09-4.188-20.797-4.563-7.025-12.698-11.575-24.982-13.087a.553.553 0 0 1-.486-.615" clip-rule="evenodd"/><path fill="#6a6af4" fill-rule="evenodd" d="M237.412 135.273c-5.503-6.848-10.595-9.382-15.407-9.621-1.791-7.821-3.899-15.679-6.193-21.793-15.389-41.11-78.753-19.37-86.064-16.36-9.998 4.113-20.425 12.577-28.67 27.982-2.686 0-5.708.294-8.953.789-11.975 1.8-20.313 12.761-18.746 22.859 2.257 19.425 13.206 18.783 23.838 18.103a3.3 3.3 0 0 0 1.753.496H224.3c.13 0 .28-.018.41-.018h8.879c7.722-6.482 9.532-15.845 3.824-22.437" clip-rule="evenodd"/><path fill="#fff" fill-rule="evenodd" d="m147.318 70.46.635 13.881s-1.455 10.998 9.158 11.714c13.262.882 15.855-9.125 15.855-9.125l.933-13.752z" clip-rule="evenodd"/><path fill="#000091" fill-rule="evenodd" d="m146.759 70.486.633 13.834-.01.086q-.01.102-.021.251c-.13 1.764.043 3.798.767 5.749 1.33 3.585 4.207 5.88 8.945 6.199 6.185.41 10.652-1.416 13.64-4.718a13.6 13.6 0 0 0 2.203-3.29q.28-.593.454-1.092l.048-.142q.066-.199.09-.297a.5.5 0 0 0 .016-.099l.933-13.752a.553.553 0 0 0-.5-.585l-26.581-2.717a.556.556 0 0 0-.617.573m1.147.589 25.398 2.596-.893 13.167-.011.038a6 6 0 0 1-.088.269c-.104.296-.24.628-.41.987a12.5 12.5 0 0 1-2.025 3.022c-2.76 3.05-6.891 4.74-12.728 4.352-4.279-.289-6.786-2.287-7.97-5.478-.66-1.781-.822-3.67-.702-5.291l.013-.157.017-.167a.5.5 0 0 0 .005-.096z" clip-rule="evenodd"/><path fill="#fff" fill-rule="evenodd" d="M145.621 50.87s-9.588-4.186-9.849 4.59c-.28 8.758 8.413 7.638 8.413 7.638" clip-rule="evenodd"/><path fill="#000091" fill-rule="evenodd" d="M140.675 49.327c1.179-.04 2.426.16 3.664.516.394.113.759.235 1.086.356l.095.036q.226.087.328.132c.282.123.41.449.285.727a.563.563 0 0 1-.708.292l-.12-.05-.101-.04-.175-.066a14 14 0 0 0-1.004-.33c-1.132-.325-2.268-.507-3.312-.472-2.692.09-4.277 1.554-4.381 5.05-.117 3.643 1.327 5.691 3.838 6.607 1.211.442 2.497.562 3.611.495l.111-.008.126-.01.094-.01a.56.56 0 0 1 .628.475.553.553 0 0 1-.483.618l-.097.01-.186.016c-1.286.093-2.768-.033-4.193-.553-2.956-1.078-4.7-3.551-4.568-7.674.122-4.093 2.196-6.008 5.462-6.117" clip-rule="evenodd"/><path fill="#fff" fill-rule="evenodd" d="M182.535 57.81s10.595-1.34 8.394 7.033c-2.201 8.372-10.408 4.939-10.408 4.939" clip-rule="evenodd"/><path fill="#000091" fill-rule="evenodd" d="M182.919 57.222c1.293-.094 2.723-.046 4.085.253 1.628.358 2.934 1.035 3.781 2.115 1.026 1.308 1.287 3.103.686 5.39-.883 3.36-2.774 5.232-5.347 5.838-1.518.357-3.119.245-4.659-.155a11 11 0 0 1-.744-.22l-.095-.033a6 6 0 0 1-.324-.121.547.547 0 0 1-.296-.723c.116-.27.426-.4.703-.303l.091.036.072.027.083.03.044.015q.333.117.752.227c1.376.357 2.801.457 4.112.148 2.165-.51 3.744-2.072 4.524-5.041.953-3.623-.494-5.467-3.626-6.154-1.239-.272-2.566-.317-3.759-.23l-.129.01-.116.01-.13.014-.02.002a.56.56 0 0 1-.627-.476.553.553 0 0 1 .484-.616l.078-.01q.122-.013.325-.029z" clip-rule="evenodd"/><path fill="#fff" fill-rule="evenodd" d="M181.733 66.348c-5.391 16.286-14.717 21.188-25.125 18.58-10.39-2.606-17.347-13.182-13.449-28.182s13.244-25.907 25.871-22.437c16.191 4.443 17.59 17.314 12.703 32.04" clip-rule="evenodd"/><path fill="#000091" fill-rule="evenodd" d="M152.433 38.204c-4.383 4.15-7.793 10.623-9.816 18.405-1.898 7.304-1.338 13.907 1.412 19.13 2.593 4.926 7.026 8.365 12.441 9.724 11.501 2.88 20.631-3.342 25.795-18.944 2.646-7.973 3.262-14.773 1.556-20.208-1.898-6.045-6.634-10.276-14.403-12.466l-.237-.066c-6.241-1.715-11.98-.089-16.748 4.425m16.447-3.364c7.559 2.074 12.072 6.065 13.872 11.796 1.627 5.181 1.03 11.765-1.551 19.541-4.995 15.092-13.579 20.943-24.455 18.218-5.107-1.281-9.277-4.517-11.724-9.163-2.617-4.972-3.153-11.298-1.321-18.35 1.975-7.598 5.291-13.89 9.508-17.884 4.492-4.253 9.826-5.764 15.671-4.158" clip-rule="evenodd"/><path fill="#000091" fill-rule="evenodd" d="M160.317 55.362a.56.56 0 0 1 .718-.327c.28.102.428.4.343.677l-.011.03-4.213 11.274 4.095.793a.55.55 0 0 1 .446.615l-.005.032a.56.56 0 0 1-.625.44l-.033-.006-4.737-.918a.55.55 0 0 1-.428-.7l.01-.03zM168.782 50.636c2.043-.821 3.857-.152 5.34 1.414a8.4 8.4 0 0 1 .92 1.166l.065.1c.123.193.211.347.262.446a.547.547 0 0 1-.248.74.564.564 0 0 1-.735-.214l-.054-.098-.025-.045q-.085-.15-.205-.33a7.3 7.3 0 0 0-.798-1.013c-1.199-1.265-2.556-1.766-4.099-1.146a.563.563 0 0 1-.73-.302.55.55 0 0 1 .307-.718M165.881 73.578a.565.565 0 0 1 .767-.195.546.546 0 0 1 .197.755c-.736 1.227-1.818 1.905-3.124 2.104-1.001.153-2.05.018-3.073-.296l-.149-.047a7 7 0 0 1-.817-.317.547.547 0 0 1-.257-.736.564.564 0 0 1 .749-.253l.027.013q.058.027.18.076.268.11.601.213c.873.268 1.761.382 2.567.259.987-.15 1.773-.644 2.332-1.576M152.374 47.794c1.41-.435 2.877-.093 4.289.722.337.195.645.403.919.612l.117.09q.161.13.239.201a.545.545 0 0 1 .032.778.566.566 0 0 1-.764.054l-.093-.08-.079-.064-.137-.108a8 8 0 0 0-.8-.532c-1.166-.674-2.336-.947-3.388-.622a3.3 3.3 0 0 0-1.278.757.566.566 0 0 1-.791-.026.545.545 0 0 1 .027-.779 4.44 4.44 0 0 1 1.707-1.003M170.094 60.84c.198-1.222-.292-2.315-1.096-2.442-.804-.126-1.616.762-1.814 1.983-.199 1.222.292 2.315 1.095 2.441.804.127 1.616-.761 1.815-1.983M154.249 58.62c.199-1.222-.292-2.315-1.096-2.441-.803-.127-1.616.76-1.814 1.983-.199 1.221.292 2.314 1.096 2.44.803.127 1.616-.76 1.814-1.982" clip-rule="evenodd"/><path fill="#000091" fill-rule="evenodd" d="M200.909 91.281c-1.716-20.03-2.294-41.696-5.876-48.27-7.069-12.98-17.944-12.154-17.944-12.154-5.54-8.537-31.952-11.42-42.211 13.495-.616 1.506.224 3.122 1.697 3.599-6.622 15.845-3.357 55.357-3.357 55.357l16.507 2.441-.727-14.706c-1.511-3.177-1.045-6.683-1.045-6.683l-.205-4.444c-3.842-3.91-6.081-9.676-5.633-16.818-2.555-.257-6.566-1.634-6.379-7.638.242-7.564 7.405-5.49 9.363-4.773a43 43 0 0 1 1.493-3.379c4.943-1.156 10.632-3.745 15.892-9.143l-4.812 7.601s8.766 1.193 14.959-2.974c1.548 5.655 5.409 12.246 11.229 14.615l-.056.33c.317 0 .672 0 1.045.018a11 11 0 0 0 2.928.514c2.257.772 4.16 2.553 3.097 6.555-2.201 8.372-10.409 4.94-10.409 4.94l.019-.148c-1.996 4.94-4.402 8.611-7.125 11.2l-.411 6.114s-.13.496-.466 1.23c-.112 3.066-.448 14.119.037 17.571 14.307-.128 29.117-5.985 28.39-14.45" clip-rule="evenodd"/><path fill="#fff" d="M182.12 131.138q-1.741.244-2.867-.584-1.113-.844-1.37-2.61a4.6 4.6 0 0 1 .096-1.844 3.16 3.16 0 0 1 .911-1.543q.68-.639 1.864-.805 1.099-.154 1.929.244.828.385 1.329 1.129.516.743.653 1.682a.6.6 0 0 1-.121.474q-.144.206-.444.248l-4.839.679q.252.922.948 1.411.696.474 1.852.312a4.5 4.5 0 0 0 1.068-.264q.424-.188.795-.44a.6.6 0 0 1 .249-.092.58.58 0 0 1 .422.098.514.514 0 0 1 .159.692.8.8 0 0 1-.226.246 5.7 5.7 0 0 1-.962.593q-.519.244-1.446.374m-3.009-3.967 4.21-.591q-.149-.722-.557-1.123a2 2 0 0 0-.895-.546 2.3 2.3 0 0 0-.958-.08 2.3 2.3 0 0 0-.897.34 2 2 0 0 0-.704.771q-.263.494-.199 1.229M174.68 132.182a4.2 4.2 0 0 1-1.947-.17 3.65 3.65 0 0 1-1.584-1.079q-.65-.767-.82-1.93-.171-1.177.237-2.078t1.215-1.457a4.1 4.1 0 0 1 1.819-.712q.841-.119 1.431.028.601.129.993.318.312.143.357.45a.58.58 0 0 1-.102.401.5.5 0 0 1-.359.236.7.7 0 0 1-.326-.04 5.5 5.5 0 0 0-.775-.22q-.375-.076-.932.002-1.242.174-1.839.972-.584.797-.42 1.918t.95 1.725q.801.603 2.043.429.557-.078.895-.254.338-.19.681-.425a.67.67 0 0 1 .302-.128.5.5 0 0 1 .412.128.6.6 0 0 1 .212.357q.045.308-.214.53a5.6 5.6 0 0 1-.863.578q-.523.303-1.366.421M163.247 133.714a.64.64 0 0 1-.483-.118.61.61 0 0 1-.251-.423l-.875-6.011a.628.628 0 0 1 .549-.734.63.63 0 0 1 .483.118q.227.154.267.434l.084.575q.384-.555.942-1.033.568-.495 1.525-.629.813-.113 1.439.184a2.4 2.4 0 0 1 1.016.873q.389.575.499 1.331l.579 3.98a.59.59 0 0 1-.134.476.63.63 0 0 1-.431.246.63.63 0 0 1-.483-.118.62.62 0 0 1-.251-.422l-.558-3.839q-.117-.8-.553-1.195-.424-.412-1.266-.295-.77.108-1.283.595a5 5 0 0 0-.862 1.079l.612 4.203a.59.59 0 0 1-.135.477.63.63 0 0 1-.43.246M156.456 134.738a2.76 2.76 0 0 1-1.193-.09 2.2 2.2 0 0 1-.96-.595q-.384-.432-.479-1.091-.145-.995.562-1.737.72-.759 2.39-.993l1.727-.242-.016-.112q-.137-.94-.665-1.265-.53-.34-1.501-.205a4.5 4.5 0 0 0-1.04.261q-.428.159-.809.342a1 1 0 0 1-.181.054.52.52 0 0 1-.394-.102.52.52 0 0 1-.212-.356q-.055-.38.294-.585a7 7 0 0 1 1.048-.504 5.6 5.6 0 0 1 1.347-.347q1.042-.145 1.758.168.716.315 1.121.901.406.587.506 1.273l.577 3.966a.58.58 0 0 1-.135.476.63.63 0 0 1-.43.246.63.63 0 0 1-.483-.118.62.62 0 0 1-.251-.422l-.053-.365q-.328.447-.921.873-.594.426-1.607.569m.322-1.189q.67-.094 1.209-.499.539-.404.836-.861l-.171-1.176-1.556.218q-1 .14-1.547.474-.535.332-.447.935.066.449.428.74.378.29 1.248.169M146.535 136.058a.63.63 0 0 1-.483-.119.6.6 0 0 1-.251-.422l-.875-6.011a.63.63 0 0 1 .549-.735.64.64 0 0 1 .483.119q.227.153.267.434l.084.574a5.5 5.5 0 0 1 .942-1.032q.568-.495 1.525-.629.813-.114 1.439.184a2.4 2.4 0 0 1 1.016.873q.389.575.499 1.331l.579 3.979a.59.59 0 0 1-.134.477.63.63 0 0 1-.431.246.64.64 0 0 1-.734-.541l-.558-3.839q-.117-.798-.553-1.195-.424-.412-1.266-.294-.77.108-1.282.595a5 5 0 0 0-.863 1.078l.612 4.204a.58.58 0 0 1-.135.476.63.63 0 0 1-.43.247M141.071 136.824a.64.64 0 0 1-.483-.118.61.61 0 0 1-.251-.422l-.875-6.011a.61.61 0 0 1 .121-.475.6.6 0 0 1 .428-.26.62.62 0 0 1 .485.132.6.6 0 0 1 .265.421l.088.602q.312-.558.809-1.043a2.15 2.15 0 0 1 1.24-.588l.071-.01a.58.58 0 0 1 .469.12.61.61 0 0 1 .251.422.56.56 0 0 1-.122.461.68.68 0 0 1-.447.234l-.071.01a2.4 2.4 0 0 0-1.219.528q-.523.417-.814 1.015l.62 4.26a.58.58 0 0 1-.135.476.63.63 0 0 1-.43.246M135.609 137.661q-1.741.244-2.867-.584-1.112-.845-1.37-2.611a4.6 4.6 0 0 1 .096-1.843 3.15 3.15 0 0 1 .912-1.543q.678-.639 1.863-.805 1.1-.154 1.929.244.828.385 1.329 1.129.516.743.653 1.682a.6.6 0 0 1-.121.474q-.144.206-.444.248l-4.838.679q.25.922.948 1.411.695.474 1.851.312a4.5 4.5 0 0 0 1.068-.264q.424-.188.796-.44a.6.6 0 0 1 .248-.092.58.58 0 0 1 .422.098.51.51 0 0 1 .159.692.8.8 0 0 1-.226.246 5.7 5.7 0 0 1-.962.593q-.517.244-1.446.374m-3.009-3.967 4.21-.591q-.149-.722-.556-1.123a2 2 0 0 0-.896-.546 2.3 2.3 0 0 0-.958-.08 2.3 2.3 0 0 0-.897.34 2 2 0 0 0-.703.771q-.263.494-.2 1.229M129.515 138.516a4 4 0 0 1-.622.03 2.2 2.2 0 0 1-.715-.114 1.54 1.54 0 0 1-.638-.483q-.283-.346-.378-.991l-.632-4.343-1.013.142q-.271.038-.31-.228-.02-.14.094-.257l1.67-2.135a1 1 0 0 1 .075-.082.25.25 0 0 1 .149-.078.23.23 0 0 1 .198.058.27.27 0 0 1 .114.184l.163 1.121 1.613-.227a.55.55 0 0 1 .422.099.54.54 0 0 1 .214.37.56.56 0 0 1-.1.414.54.54 0 0 1-.377.21l-1.613.227.616 4.231q.059.406.242.567a.66.66 0 0 0 .404.172q.233-.004.404-.028.342-.048.491-.126a1 1 0 0 1 .347-.121.53.53 0 0 1 .377.091.47.47 0 0 1 .21.342q.047.322-.257.536-.24.149-.53.26a2.6 2.6 0 0 1-.618.159M124.081 139.206a.636.636 0 0 1-.734-.54l-1.324-9.094a.62.62 0 0 1 .119-.488.63.63 0 0 1 .43-.246.65.65 0 0 1 .497.116.63.63 0 0 1 .253.436l1.324 9.094a.6.6 0 0 1-.121.474.64.64 0 0 1-.444.248M117.29 140.23a2.7 2.7 0 0 1-1.193-.09 2.2 2.2 0 0 1-.96-.594q-.384-.433-.479-1.091-.145-.995.562-1.738.72-.758 2.39-.992l1.727-.243-.016-.112q-.137-.939-.665-1.265-.53-.34-1.501-.204a4.5 4.5 0 0 0-1.04.26 10 10 0 0 0-.809.343 1 1 0 0 1-.181.054.52.52 0 0 1-.394-.103.52.52 0 0 1-.212-.356q-.055-.378.294-.584a7 7 0 0 1 1.048-.505q.591-.24 1.347-.346 1.042-.146 1.758.168.716.315 1.121.901.406.586.506 1.273l.577 3.965a.59.59 0 0 1-.135.477.63.63 0 0 1-.43.246.636.636 0 0 1-.734-.541l-.053-.364q-.328.447-.921.873-.594.426-1.607.568m.322-1.189q.67-.094 1.209-.498.539-.405.836-.861l-.171-1.177-1.556.218q-1 .14-1.547.475-.535.332-.447.935.065.447.428.74.378.291 1.248.168"/><path fill="#fff" fill-rule="evenodd" d="m190.556 127.672-.094-10.356-2.686 1.818s-.167.184.094 3.599c.354 4.498-4.57 4.112-4.943 2.992s.503-7.674 1.716-9.675c.746-1.267 4.532-4.021 7.256-5.913a5.94 5.94 0 0 1 5.987-.44c4.048 1.983 11.975 8.556 13.057 11.769.467 1.359 2.742 9.235 2.742 9.235l2.63 5.784-13.859 5.691-3.898-8.574c-5.801 1.083-7.928-5.673-7.928-5.673" clip-rule="evenodd"/><path fill="#000091" fill-rule="evenodd" d="M191.577 109.687a6.5 6.5 0 0 1 6.559-.483c4.632 2.269 12.285 8.958 13.338 12.086l.05.149c.133.404.356 1.134.656 2.136l.668 2.256.468 1.595.897 3.086 2.613 5.748a.547.547 0 0 1-.264.72l-.031.013-13.859 5.692a.564.564 0 0 1-.712-.254l-.014-.029-3.723-8.189-.029.004c-2.687.337-4.829-.842-6.441-2.995l-.055-.075a11.7 11.7 0 0 1-1.217-2.088l-.063-.14a8 8 0 0 1-.322-.827.6.6 0 0 1-.024-.125l-.001-.02-.001-.002a.54.54 0 0 1-.072-.236l-.002-.032-.084-9.32-1.62 1.097-.006.106c-.018.464.012 1.37.12 2.836l.022.294c.178 2.264-.871 3.718-2.612 4.178-1.429.378-3.107-.029-3.421-.971-.479-1.439.571-8.055 1.729-10.064l.035-.059c.689-1.17 3.386-3.287 7.418-6.087m6.057.502a5.37 5.37 0 0 0-5.412.399l-.565.394c-3.486 2.444-5.941 4.391-6.516 5.321l-.017.029c-.5.824-1.009 2.691-1.362 4.857l-.047.297c-.295 1.911-.395 3.651-.256 4.068l.005.007a.6.6 0 0 0 .103.081c.113.073.277.139.473.186.451.11.993.106 1.486-.024 1.203-.318 1.901-1.265 1.792-2.95l-.05-.676c-.114-1.639-.128-2.561-.075-2.982l.003-.024c.024-.176.061-.292.165-.406a.5.5 0 0 1 .064-.06l.035-.026 2.686-1.817c.361-.244.849-.004.875.418l.001.031.093 10.342.013.023.027.058.034.102.054.15q.106.282.259.622c.294.646.661 1.292 1.102 1.892 1.478 2.01 3.394 3.019 5.85 2.56a.56.56 0 0 1 .6.287l.015.029 3.675 8.084 12.826-5.267-2.395-5.268-.015-.036-.032-.104-.408-1.407-.48-1.648-.808-2.75c-.49-1.654-.84-2.809-1.001-3.288l-.019-.054c-.939-2.791-8.384-9.298-12.778-11.45" clip-rule="evenodd"/><path fill="#fff" fill-rule="evenodd" d="M193.112 113.424s-6.249 3.636-6.323 7.822 1.044 8.207 3.525 8.317 1.716-1.928 1.716-1.928" clip-rule="evenodd"/><path fill="#000091" fill-rule="evenodd" d="M192.827 112.95a.564.564 0 0 1 .766.194.547.547 0 0 1-.168.737l-.162.098-.079.049-.043.027q-.315.198-.696.461c-.721.5-1.443 1.064-2.115 1.679-1.847 1.69-2.953 3.424-2.983 5.061-.078 4.411 1.151 7.675 2.992 7.757.849.038 1.148-.161 1.223-.522a1.3 1.3 0 0 0-.022-.539l-.013-.05-.019-.067-.003-.009a.547.547 0 0 1 .331-.707.56.56 0 0 1 .718.326l.018.049q.028.083.058.211c.077.328.099.669.029 1.007-.192.926-1.001 1.462-2.371 1.401-2.719-.12-4.148-3.915-4.06-8.877.036-2.007 1.291-3.973 3.34-5.848a21 21 0 0 1 2.233-1.773l.196-.135q.242-.162.456-.3l.162-.101z" clip-rule="evenodd"/><path fill="#fff" fill-rule="evenodd" d="M194.697 116.38s-5.391 3.544-4.552 5.986c.821 2.442 2.686 7.748 3.787 8.409 1.958 1.193 2.928-1.285 2.928-1.285" clip-rule="evenodd"/><path fill="#000091" fill-rule="evenodd" d="M194.386 115.922a.565.565 0 0 1 .776.153.545.545 0 0 1-.127.744l-.033.023-.107.072-.075.052q-.232.16-.511.368c-.53.394-1.059.823-1.551 1.274-.827.756-1.46 1.49-1.82 2.156q-.46.853-.261 1.429l.172.509c1.376 4.035 2.7 7.198 3.377 7.605.718.437 1.234.267 1.718-.349.116-.147.217-.308.301-.469l.03-.059q.034-.07.052-.111l.011-.027a.56.56 0 0 1 .724-.316.55.55 0 0 1 .321.712l-.021.05a4.189 4.189 0 0 1-.533.894c-.8 1.019-1.919 1.387-3.189.613-1.071-.643-2.4-3.87-4.025-8.703-.244-.709-.104-1.483.335-2.296.429-.793 1.136-1.613 2.046-2.445a21 21 0 0 1 1.638-1.346l.164-.121q.16-.117.306-.218l.267-.184z" clip-rule="evenodd"/><path fill="#fff" fill-rule="evenodd" d="M197.7 119.134s-5.708.882-3.488 6.683c1.455 3.801 2.779 5.178 4.383 5.729s3.022-1.836 1.642-3.433l-1.586-2.351s1.977 2.277 2.705-.312c0 0-.951 4.902 1.362 6.647" clip-rule="evenodd"/><path fill="#000091" fill-rule="evenodd" d="M197.614 118.59a.56.56 0 0 1 .639.459.55.55 0 0 1-.433.624l-.073.013-.068.013-.029.007q-.184.04-.409.107a5.6 5.6 0 0 0-1.248.55c-1.648.997-2.263 2.63-1.257 5.26l.085.22c1.269 3.247 2.426 4.656 3.959 5.183 1.084.372 2.021-1.411 1.031-2.557l-.021-.025-.019-.027-1.585-2.35c-.383-.567.41-1.169.87-.686l.054.059q.029.032.077.079c.094.094.199.188.31.274.26.202.507.326.69.342.239.022.441-.159.63-.831.188-.669 1.19-.451 1.095.216l-.023.131-.01.061-.022.141q-.021.147-.042.318c-.112.94-.134 1.924-.011 2.834.165 1.225.576 2.143 1.254 2.655.246.185.292.53.104.772a.565.565 0 0 1-.784.102c-.562-.423-.975-1.003-1.261-1.711l-.023-.059-.032.066-.029.058c-.528 1.004-1.576 1.537-2.621 1.178-1.942-.667-3.315-2.375-4.723-6.054-1.2-3.136-.377-5.32 1.718-6.587a6.7 6.7 0 0 1 1.503-.664l.12-.035c.252-.073.454-.116.584-.136m2.998 8.599-.026.008a1.4 1.4 0 0 1-.198.034l-.07.005.284.422v-.058q.002-.174.008-.348z" clip-rule="evenodd"/><path fill="#6a6af4" fill-rule="evenodd" d="M218.218 118.216c-.149 1.102 2.612 7.693-18.839 22.418l2.798 3.122 19.399-4.627z" clip-rule="evenodd"/><path fill="#fff" fill-rule="evenodd" d="M114.434 151.137s7.704-.441.504 1.872c-10.334 1.745-19.436-4.645-22.887-9.143a9.39 9.39 0 0 1-.728-10.374c3.694-7.619 9.42-5.049 9.42-5.049s9.756 4.627 14.531 4.774" clip-rule="evenodd"/><path fill="#000091" fill-rule="evenodd" d="M94.168 128.933c2.008-1.5 4.15-1.734 6.084-1.231.334.086.58.175.734.245l.317.147.119.055c.317.146.675.307 1.065.48l.132.057a91 91 0 0 0 3.95 1.633c1.004.386 1.976.736 2.904 1.043l.282.092c2.287.741 4.182 1.17 5.536 1.212.309.01.552.264.542.568a.556.556 0 0 1-.577.533c-1.545-.047-3.631-.531-6.14-1.361a66 66 0 0 1-2.955-1.061 93 93 0 0 1-3.999-1.653l-.264-.116a72 72 0 0 1-.84-.379l-.392-.18-.155-.073-.036-.015-.064-.024-.027-.01a5 5 0 0 0-.417-.128c-1.628-.423-3.42-.227-5.123 1.044-1.104.824-2.1 2.069-2.955 3.794l-.06.124-.016.03a8.85 8.85 0 0 0 .685 9.775c1.874 2.443 5.06 5.001 8.663 6.75 4.32 2.098 8.947 2.944 13.525 2.208l.118-.019.274-.09a20 20 0 0 0 1.682-.623l.137-.062-.027-.003a11 11 0 0 0-.468-.029l-.194-.006c-.44-.012-.914-.006-1.373.01l-.271.011-.097.005a.556.556 0 0 1-.591-.518.553.553 0 0 1 .493-.579l.047-.003.257-.012.121-.005c.482-.017.978-.023 1.445-.01l.2.006c.426.017.79.051 1.084.105.586.108.946.278 1.036.728.157.786-.833 1.295-3.447 2.135a1 1 0 0 1-.079.019c-4.877.823-9.797-.06-14.367-2.28-3.757-1.824-7.08-4.492-9.061-7.074a9.93 9.93 0 0 1-.83-10.868l.05-.091.056-.113c.908-1.833 1.985-3.195 3.201-4.129z" clip-rule="evenodd"/><path fill="#fff" fill-rule="evenodd" d="M101.022 148.144s6.529 5.196 16.844 2.13c4.85-1.451 1.343-2.993 1.343-2.993" clip-rule="evenodd"/><path fill="#000091" fill-rule="evenodd" d="M118.698 147.056c.126-.278.457-.402.739-.278a4 4 0 0 1 .722.425c.576.428.92.935.819 1.553-.117.72-.836 1.295-2.175 1.788q-.355.131-.775.257c-5.496 1.634-10.379 1.168-14.469-.604a16 16 0 0 1-2.125-1.103l-.119-.075a8 8 0 0 1-.644-.447.544.544 0 0 1-.084-.774.566.566 0 0 1 .759-.104l.084.064.071.052.029.02q.21.15.502.332c.56.349 1.221.699 1.977 1.027 3.859 1.671 8.47 2.111 13.694.558q.386-.115.707-.234c.56-.207.959-.414 1.208-.613.172-.137.243-.243.255-.318.018-.106-.109-.292-.388-.499a3 3 0 0 0-.354-.223l-.072-.039-.068-.032-.01-.005a.55.55 0 0 1-.283-.728" clip-rule="evenodd"/><path fill="#fff" fill-rule="evenodd" d="M102.478 143.921c2.275 1.138 4.196 3.36 8.3 3.396 6.044.055 9.121.202 10.632-.936s1.679-2.442-3.245-3.544" clip-rule="evenodd"/><path fill="#000091" fill-rule="evenodd" d="M117.619 142.715a.56.56 0 0 1 .67-.415l.227.052c2.32.539 3.657 1.16 4.159 1.952.553.871.121 1.727-.925 2.515-.767.578-1.836.869-3.47.997l-.344.025c-.931.061-1.812.075-3.867.059l-3.296-.032c-2.406-.021-4.06-.645-6.246-2.041l-.295-.191-.678-.442c-.164-.106-.3-.192-.434-.275a11 11 0 0 0-.896-.507.55.55 0 0 1-.245-.741.563.563 0 0 1 .752-.241c.312.156.628.335.984.556l.215.135.237.151.856.558c2.044 1.32 3.509 1.896 5.641 1.935l3.413.034c2.188.016 3.024-.001 4.011-.073l.201-.016c1.379-.116 2.234-.354 2.781-.766.645-.486.81-.814.656-1.057-.308-.484-1.503-1.024-3.685-1.512a.55.55 0 0 1-.422-.66" clip-rule="evenodd"/><path fill="#fff" fill-rule="evenodd" d="M105.462 135.2s4.981 3.286 10.446 3.268 9.009 2.277 6.752 3.378c-2.257 1.083-10.166 1.744-13.728.606-3.563-1.138-5.391-2.681-5.391-2.681" clip-rule="evenodd"/><path fill="#000091" fill-rule="evenodd" d="M104.997 134.893a.567.567 0 0 1 .748-.169l.151.096.085.052q.265.163.616.359c.67.374 1.424.748 2.245 1.097 2.35 1.001 4.754 1.597 7.064 1.589 2.632-.009 5.045.511 6.547 1.339 1.673.922 2.048 2.307.452 3.085-2.624 1.26-10.709 1.733-14.146.635q-1.078-.345-2.045-.763a18.4 18.4 0 0 1-2.623-1.374l-.124-.08a9 9 0 0 1-.79-.569.545.545 0 0 1-.061-.777.566.566 0 0 1 .789-.06l.039.032q.05.04.148.113l.118.086q.213.154.491.331a17 17 0 0 0 2.462 1.289q.916.396 1.941.724c3.166 1.012 10.951.556 13.308-.575.331-.162.399-.267.373-.36-.052-.194-.353-.486-.878-.775-1.297-.715-3.466-1.19-5.866-1.199h-.131c-2.484.008-5.033-.624-7.513-1.68a25 25 0 0 1-2.352-1.149l-.18-.102q-.218-.125-.402-.236l-.206-.126-.106-.069a.545.545 0 0 1-.154-.764" clip-rule="evenodd"/></g><defs><clipPath id="a"><path fill="#fff" d="M0 0h287.25v158.625H0z"/></clipPath></defs></svg>