<svg xmlns="http://www.w3.org/2000/svg" width="244" height="164" fill="none" viewBox="0 0 244 164"><path fill="#6a6af3" d="m238.41 69.85-119.622.87a4.96 4.96 0 0 0-4.443 2.815l-38.58 78.55-75.702.073s-1.688 11.005 12.434 11.69l57.58-.183-.164.336 131.72-.459 41.294-86.67c1.56-3.279-.865-7.05-4.517-7.024z"/><path fill="#fff" d="M193.043 162.965a.604.604 0 0 1-.544-.862l40.673-85.489a4.27 4.27 0 0 0-.255-4.147 4.34 4.34 0 0 0-3.682-2.015h-.038a.602.602 0 0 1-.004-1.206 5.53 5.53 0 0 1 4.74 2.574 5.47 5.47 0 0 1 .325 5.313l-40.673 85.488a.6.6 0 0 1-.544.344z"/><path fill="#fff" d="m88.352 148.357 98.926-.498a9.14 9.14 0 0 0 8.152-5.086l29.795-62.675c1.281-2.57-.708-5.525-3.7-5.503l-98.041.713c-1.559.012-2.974.87-3.642 2.208l-34.486 66.101c-1.084 2.196.536 4.756 2.996 4.742z"/><path fill="#2e186a" d="M104.672 133.966h36.711c2.74 0 6.209-2.204 7.751-4.925l20.287-35.79c1.541-2.72.572-4.925-2.167-4.925h-38.235c-2.739 0-6.209 2.204-7.75 4.925l-18.764 35.79c-1.542 2.721-.572 4.925 2.167 4.925"/><path fill="#ff8c7e" d="M89.075 72.563a323 323 0 0 0-2.878 2.7z"/><path fill="#ff8c7e" d="M122.977 123.978s5.141 4.326 7.495 6.438c.135.378.333.677.602.886 3.356 2.608 7.699 2.665 12.918 1.031a10.2 10.2 0 0 0 5.953-4.899l19.285-35.968c.663-1.234-.004-2.76-1.362-3.123l-6.059-1.628c-8.543-3.317-15.392-16.62-15.392-16.62 15.258-5.22 27.2-19.214 27.2-19.214s.885-6.265-3.981-20.467-10.173-17.125-13.932-16.08-13.931 6.056-10.393 10.651 8.625 20.467 8.625 20.467c-15.922 2.715-30.092 8.666-30.092 8.666l-17.233 6.79s-7.297 2.505-14.596 8.98c-.881.781-1.872 1.683-2.942 2.672l-15.571-2.763-14.136-21.142-6.954 1.76 7.128 37.91s-.042 11.604 38.371 8.556l25.064 27.095z"/><path fill="#fe7624" d="M96.151 61.09h-.018c-2.274-.07-4.054-2.81-4.054-6.242 0-1.722.47-3.38 1.287-4.547a.603.603 0 0 1 .985.693c-.678.97-1.07 2.375-1.07 3.856 0 2.683 1.323 4.99 2.886 5.036a.602.602 0 0 1-.018 1.205zM120.103 47.936q-.3 0-.59-.062a.603.603 0 0 1 .247-1.18q.17.036.343.036c1.591 0 2.936-2.306 2.936-5.035 0-.71-.086-1.395-.257-2.04a.603.603 0 0 1 1.164-.309c.199.746.299 1.537.299 2.349 0 3.5-1.818 6.24-4.14 6.24z"/><path fill="#fff" d="m116.785 50.674 2.34 5.968 4.959-2.627c.498.583 8.555 10.806-2.318 14.861-7.134 2.66-15.031-.842-19.745-5.29l4.489-2.717-4.772-9.96z"/><path fill="#2e186a" d="M116.538 70.398c-1.864 0-3.794-.31-5.735-.927-3.331-1.059-6.597-2.993-9.195-5.447a.61.61 0 0 1-.187-.502.6.6 0 0 1 .287-.452l4.022-2.434-4.538-9.468a.61.61 0 0 1 .03-.578.6.6 0 0 1 .502-.286l15.047-.235a.61.61 0 0 1 .57.382l2.093 5.34 4.363-2.31a.6.6 0 0 1 .739.14c.331.389 1.37 1.773 2.205 3.515 1.21 2.524 1.566 4.804 1.054 6.78-.636 2.461-2.597 4.32-5.824 5.523a15.5 15.5 0 0 1-5.437.957zm-13.516-6.715c4.692 4.113 12.051 7.044 18.532 4.627 2.837-1.059 4.545-2.638 5.077-4.696.921-3.56-1.794-7.597-2.715-8.83l-4.514 2.39a.604.604 0 0 1-.843-.313l-2.187-5.58-13.691.213 4.367 9.112a.604.604 0 0 1-.231.778l-3.799 2.297z"/><path fill="#fff" d="M95.555 50.883c2.076 0 3.758-1.59 3.758-3.55 0-1.961-1.682-3.55-3.758-3.55s-3.76 1.589-3.76 3.55 1.684 3.55 3.76 3.55"/><path fill="#2e186a" d="M95.555 51.485c-2.405 0-4.361-1.862-4.361-4.153s1.956-4.153 4.36-4.153 4.361 1.862 4.361 4.153-1.956 4.153-4.36 4.153m0-7.1c-1.743 0-3.157 1.321-3.157 2.947s1.416 2.948 3.157 2.948c1.74 0 3.156-1.322 3.156-2.948s-1.417-2.948-3.156-2.948"/><path fill="#fff" d="M118.332 38.769c2.076 0 3.759-1.59 3.759-3.55 0-1.961-1.683-3.551-3.759-3.551s-3.759 1.59-3.759 3.55c0 1.961 1.683 3.55 3.759 3.55"/><path fill="#2e186a" d="M118.333 39.372c-2.404 0-4.361-1.863-4.361-4.153s1.957-4.154 4.361-4.154 4.361 1.863 4.361 4.154-1.957 4.153-4.361 4.153m0-7.101c-1.742 0-3.157 1.322-3.157 2.948s1.417 2.947 3.157 2.947 3.157-1.322 3.157-2.947-1.417-2.948-3.157-2.948"/><path fill="#fff" d="M115.851 52.7c5.235-3.923 5.407-12.552.383-19.273-5.024-6.722-13.341-8.99-18.576-5.067s-5.407 12.551-.384 19.273c5.024 6.721 13.341 8.99 18.577 5.067"/><path fill="#2e186a" d="M109.86 55.21c-5.071 0-10.6-3.177-13.982-8.551-2.585-4.11-3.482-8.777-2.458-12.806.757-2.982 2.472-5.294 4.96-6.69 5.991-3.363 14.623-.121 19.243 7.223 2.584 4.109 3.479 8.776 2.458 12.805-.757 2.982-2.473 5.295-4.961 6.691-1.605.9-3.402 1.328-5.26 1.328m-6.193-28.18c-1.664 0-3.265.38-4.696 1.183-2.194 1.232-3.71 3.283-4.383 5.938-.941 3.709-.1 8.035 2.31 11.865 4.284 6.81 12.195 9.867 17.634 6.815 2.193-1.232 3.711-3.283 4.383-5.937.941-3.71.1-8.036-2.31-11.865-3.157-5.018-8.282-7.998-12.938-7.998z"/><path fill="#2e186a" d="M111.203 50.136c-1.497 0-2.976-.756-4.307-2.234a1.28 1.28 0 0 1-.241-1.329 1.3 1.3 0 0 1 1.1-.821c2.84-.254 4.363-1.511 5.14-2.522a1.27 1.27 0 0 1 1.21-.488c.463.068.857.38 1.025.815 1.072 2.78.41 4.994-1.818 6.073a4.8 4.8 0 0 1-2.109.506m2.647-6.17c-.925 1.2-2.713 2.696-5.987 2.987q-.064.006-.086.06a.07.07 0 0 0 .016.08c1.108 1.23 2.874 2.48 4.995 1.451 1.662-.805 2.073-2.338 1.22-4.553q-.019-.047-.074-.056a.08.08 0 0 0-.082.03zM109.282 43.91a.603.603 0 0 1-.275-1.14l1.738-.893-3.925-4.597a.602.602 0 1 1 .915-.784l4.419 5.176a.606.606 0 0 1-.183.928l-2.416 1.243a.6.6 0 0 1-.275.066zM99.438 37.9a.603.603 0 0 1-.554-.838c.43-1.026 1.802-2.8 3.911-2.183a.602.602 0 1 1-.337 1.157c-.672-.197-1.264-.024-1.804.527-.435.444-.658.96-.66.964a.6.6 0 0 1-.556.37zM107.446 33.485a.605.605 0 0 1-.432-1.023c.783-.806 2.724-1.991 4.464-.707a.603.603 0 0 1-.717.97c-1.336-.988-2.87.561-2.884.577a.6.6 0 0 1-.431.183M103.781 41.499c.456-.204.581-.92.278-1.597-.302-.678-.917-1.062-1.374-.858-.456.205-.581.92-.278 1.597.302.678.917 1.062 1.374.858M112.335 37.99c.431-.25.476-.976.102-1.62s-1.026-.965-1.457-.715c-.43.25-.475.976-.101 1.62.374.646 1.026.965 1.456.715M87.925 28.307c2.96-4.07.739-19.766-12.978-26.415-13.886-6.731-19.419 6.404-20.51 9.75s-.169 11.294 11.302 15.443c11.471 4.15 18.806 5.87 22.188 1.222z"/><path fill="#ff8c7e" d="m91.076 33.73-4.283-2.764c-1.533-.99-1.926-2.966-.879-4.414l.177-.244c1.047-1.448 3.14-1.82 4.674-.83l4.282 2.765z"/><path fill="#2e186a" d="M118.333 26.449s-2.521-14.034-21.494-1.799c-3.136 1.736-6.267 5.285-7.475 9.108-1.873 5.92 2.211 14.83 6.414 13.575q.514-.154 1.023-.365a18.76 18.76 0 0 1-1.674-2.988c4.373-4.495 1.062-12.169.72-12.856 1.562.36 3.294.95 3.716 2.81l12.153-4.847c2.059 1.392 3.935 3.291 5.4 5.62l.055.09c.351-2.091-.767-4.56-2.936-6.713l4.102-1.636z"/><path fill="#fff" d="M151.58 10.495c-.54-1.097-1.864-3.954-1.724-5.315.183-1.774-1.232-3.062-2.199-.834-.968 2.229-.075 4.823-.075 4.823"/><path fill="#2e186a" d="M151.58 11.097a.6.6 0 0 1-.54-.336c-.73-1.483-1.933-4.187-1.782-5.642.08-.784-.227-1.304-.407-1.352-.069-.017-.348.142-.643.82-.859 1.979-.066 4.362-.058 4.386a.603.603 0 0 1-1.14.391c-.04-.114-.957-2.843.093-5.258.718-1.656 1.675-1.603 2.051-1.505.873.23 1.431 1.364 1.3 2.642-.084.818.554 2.729 1.666 4.986a.606.606 0 0 1-.538.87z"/><path fill="#fff" d="m147.974 16.983 3.59 5.953c2.643-.66 5.35-2.246 6.934-5.194-2.748-3.472-7.357-9.16-8.321-9.464-2.653-.836-6.705-.584-7.503-.341-1.698.516-.797 1.549.979 1.688 1.702.134 4.778.407 4.778.407-2.659.053-5.966.256-6.466.59-.762.505-.118 1.962 1.686 1.878l5.14-.072s-5.772.612-6.466.912c-.697.3-.625 2.264 2.928 1.69 3.554-.575 3.796-.342 3.796-.342s-4.302.9-5.125 1.274c-.823.372-.014 2.463 4.048 1.023z"/><path fill="#2e186a" d="M151.564 23.539a.6.6 0 0 1-.516-.292l-3.341-5.54c-3.669 1.14-4.494-.604-4.578-.815-.176-.438-.094-.898.181-1.21-1.413-.217-1.784-1.028-1.877-1.342-.186-.645.093-1.314.653-1.555l.016-.006c-.508-.273-.841-.685-.978-1.105-.198-.607 0-1.218.508-1.555.118-.079.319-.15.582-.211-.608-.264-.987-.665-1.04-1.144-.04-.361.081-1.024 1.327-1.402.857-.261 5.009-.555 7.861.343.351.11 1.288.406 8.611 9.665a.6.6 0 0 1 .058.66c-1.465 2.728-4.063 4.679-7.319 5.493a.6.6 0 0 1-.146.018zm-3.592-7.16c.206 0 .403.107.515.292l3.358 5.564c2.585-.75 4.666-2.307 5.93-4.437-6.402-8.075-7.612-8.873-7.79-8.95-2.571-.81-6.477-.536-7.137-.335-.19.058-.313.115-.389.159.18.122.584.301 1.24.352 1.686.132 4.754.403 4.784.407a.603.603 0 0 1-.042 1.204c-3.321.066-5.785.31-6.163.498-.006.006-.054.039-.014.167.086.261.518.637 1.355.597l5.159-.072a.6.6 0 0 1 .61.566.6.6 0 0 1-.537.635c-2.714.29-5.756.683-6.266.858-.012.03-.022.102.036.197.195.322.976.607 2.533.356 3.849-.623 4.116-.368 4.309-.181a.604.604 0 0 1-.293 1.025c-1.566.327-4.195.924-4.911 1.195.026.042.074.1.167.16.22.15 1.117.572 3.343-.218a.6.6 0 0 1 .201-.034z"/><path fill="#fe7624" d="M96.22 61.092h-.087a.602.602 0 0 1 .018-1.205h.068c1.592 0 2.936-2.305 2.936-5.036s-1.344-5.035-2.936-5.035a.602.602 0 1 1 0-1.206c2.322 0 4.141 2.741 4.141 6.241s-1.819 6.241-4.14 6.241M123.362 40.102a.6.6 0 0 1-.582-.448c-.476-1.793-1.551-2.996-2.679-2.996a.602.602 0 1 1 0-1.206c1.706 0 3.215 1.527 3.843 3.892a.603.603 0 0 1-.582.758"/><path fill="#2e186a" d="M141.385 134.57h-36.711c-1.427 0-2.527-.541-3.097-1.519-.654-1.125-.508-2.695.405-4.304l7.895-15.06a.601.601 0 1 1 1.066.561l-7.905 15.077c-.704 1.244-.855 2.375-.421 3.121.345.595 1.075.92 2.055.92h36.711c2.541 0 5.784-2.071 7.227-4.619l20.287-35.79c.694-1.226.845-2.357.411-3.103-.345-.594-1.075-.92-2.055-.92a.602.602 0 1 1 0-1.206c1.427 0 2.527.541 3.097 1.52.654 1.125.507 2.694-.406 4.304l-20.287 35.79c-1.662 2.931-5.296 5.23-8.274 5.23z"/><path fill="#fff" d="M84.487 50.669 37.37 51.993s6.617 39.49-8.736 60.161l46.031-.088s13.906-11.749 9.82-61.397z"/><path fill="#2e186a" d="M28.634 112.757a.603.603 0 0 1-.483-.962c7.835-10.551 9.765-26.208 10.006-37.486.26-12.257-1.365-22.117-1.38-22.215a.605.605 0 0 1 .575-.701l47.117-1.324c.32-.009.59.233.616.552 1.17 14.212 1.53 34.343-3.406 49.552-2.984 9.201-6.48 12.231-6.626 12.355a.6.6 0 0 1-.388.143l-46.03.088zm9.435-60.179c.36 2.456 1.517 11.24 1.292 21.757-.154 7.274-.927 13.947-2.298 19.836-1.607 6.902-4.044 12.741-7.253 17.379l44.617-.087c.688-.685 3.632-3.946 6.163-11.833 4.752-14.804 4.459-34.347 3.341-48.344l-45.862 1.29z"/><path fill="#6a6af3" d="M66.406 106.125a6.827 6.827 0 0 0 6.823-6.831 6.827 6.827 0 0 0-6.823-6.832 6.83 6.83 0 0 0-6.824 6.832 6.827 6.827 0 0 0 6.824 6.831"/><path fill="#fff" d="M49.745 51.868c2.023 2.74 6.167 3.719 6.167 3.719 1.515 3.878 5.484 4.352 5.24 3.518-.245-.836-3.402-5.385-3.402-5.385s.325.02 2.165 2.986c1.843 2.966 4.767 3.38 4.548 2.682-.219-.697-4.12-7.08-4.12-7.08l4.84 5.543c1.146 1.337 2.635.838 2.493-.034-.093-.57-3.8-5.037-5.475-7.01 0 0 4.224 3.962 5.64 4.848 1.414.884 2.03-.436 1.607-1.127-.424-.691-5.037-7.414-12.455-10.322 0 0-3.81-1.919-6.365 1.937-2.555 3.854-.887 5.727-.887 5.727z"/><path fill="#2e186a" d="M64.03 60.286c-.619 0-1.456-.28-2.31-.844-.085.24-.287.436-.576.535-1.07.365-4.219-.537-5.676-3.882-1.03-.29-4.37-1.389-6.199-3.854-.233-.285-1.78-2.45.859-6.432 2.242-3.382 5.615-2.893 7.112-2.154 8.024 3.157 12.68 10.485 12.724 10.559.369.603.269 1.433-.233 1.929-.203.203-.963.802-2.206.024a8 8 0 0 1-.405-.277q1.092 1.457 1.154 1.832c.094.585-.21 1.131-.777 1.395-.718.333-1.854.195-2.767-.872l-.466-.535c.414.73.71 1.29.775 1.495a.787.787 0 0 1-.44.97c-.154.071-.347.107-.568.107zm-6.28-7.167h.038c.283.018.634.04 2.64 3.27 1.07 1.723 2.434 2.414 3.18 2.62-.648-1.192-2.28-3.933-3.779-6.386a.604.604 0 0 1 .157-.8.604.604 0 0 1 .81.088l4.84 5.544c.54.629 1.103.683 1.352.567.07-.032.09-.063.096-.085-.267-.57-2.533-3.434-5.338-6.741a.602.602 0 0 1 .87-.83c.043.04 4.199 3.932 5.548 4.776.256.161.58.282.72.143a.41.41 0 0 0 .054-.444c-.042-.07-4.612-7.117-12.16-10.077l-.05-.022c-.134-.066-3.375-1.617-5.593 1.73-2.23 3.364-.985 4.935-.93 5.001l.027.037c1.865 2.525 5.782 3.48 5.822 3.49a.6.6 0 0 1 .422.367c.959 2.458 2.98 3.356 3.895 3.479-.514-.927-1.858-2.974-3.11-4.78a.606.606 0 0 1 .493-.95z"/><path fill="#fff" d="M65.203 102.71a.6.6 0 0 1-.471-.229l-2.336-2.952a.602.602 0 1 1 .943-.747l1.862 2.353 3.944-5.026a.602.602 0 0 1 .947.744l-4.415 5.626a.6.6 0 0 1-.472.231z"/><path fill="#2e186a" d="M62.793 65.135H44.33a.602.602 0 1 1 0-1.205h18.463a.602.602 0 1 1 0 1.205M78.045 69.958H44.33a.602.602 0 1 1 0-1.206h33.715a.602.602 0 1 1 0 1.206M79.049 74.58H45.334a.602.602 0 1 1 0-1.206h33.715a.602.602 0 1 1 0 1.206M78.848 79.2H45.133a.602.602 0 1 1 0-1.205h33.715a.602.602 0 1 1 0 1.206M77.644 83.823H43.93a.602.602 0 1 1 0-1.206h33.715a.602.602 0 1 1 0 1.206M70.62 88.846H42.725a.602.602 0 1 1 0-1.205H70.62a.602.602 0 1 1 0 1.205M189.646 108.465l-8.019-8.761a1.414 1.414 0 0 0-2.332.376l-5.413 12.144c-.475 1.067.496 2.21 1.636 1.923l4.564-1.149.505 8.377a1.958 1.958 0 0 0 2.368 1.786l3.34-.711a1.948 1.948 0 0 0 1.443-2.542l-2.834-8.128 4.046-1.019a1.396 1.396 0 0 0 .696-2.298z"/></svg>