<svg width="200" height="110" viewBox="0 0 200 110" fill="none" xmlns="http://www.w3.org/2000/svg">
<path fill-rule="evenodd" clip-rule="evenodd" d="M85.4923 109.933H19.248V62.6308C19.248 52.4032 27.4725 44.1066 37.6111 44.1066H85.4923V109.933Z" fill="#6A6AF4"/>
<path fill-rule="evenodd" clip-rule="evenodd" d="M90.7857 109.627C90.7857 109.627 89.8616 74.9892 90.0465 67.0255C90.2445 57.9565 84.6999 49.1671 82.7593 47.5558C81.0564 46.1441 68.3699 47.3427 65.2676 47.6623C66.1917 50.7386 68.1851 55.1066 72.3171 60.9662C73.1092 61.8984 73.888 62.9504 74.6273 64.109C78.0597 69.5291 80.6471 77.5594 80.2643 89.425C81.5712 102.316 80.4887 109.467 80.4887 109.467L90.7857 109.627Z" fill="white"/>
<path fill-rule="evenodd" clip-rule="evenodd" d="M129.558 55.6126L121.281 27.9795C120.066 25.2894 118.97 26.448 118.508 25.609C117.452 23.6514 117.03 22.7858 117.03 22.7858C113.149 26.1017 105.413 24.6502 105.413 24.6502C105.413 24.6502 105.347 25.3693 105.294 27.5533C105.241 29.7373 102.825 29.4177 103.102 32.3209L106.733 51.9371L96.647 49.7664C95.2213 41.8959 88.5414 28.7119 64.1322 35.3039C50.0067 40.3511 49.4127 48.2749 53.3599 55.08C51.4985 55.3729 46.9704 57.9431 37.4127 71.5666C23.6437 91.1695 24.3038 109.467 51.076 109.933C55.5777 110.013 103.71 109.867 103.71 109.867L102.218 80.1296C133.769 83.126 132.871 69.5424 129.558 55.6126ZM80.4622 109.441C80.4622 109.441 81.5447 102.289 80.2378 89.3984C80.3302 86.3221 80.2378 83.5122 79.9737 80.9419C79.9737 80.9153 79.9737 80.8887 79.9605 80.8487C79.9341 80.609 79.9077 80.3693 79.8813 80.1296C79.8813 80.0896 79.8681 80.0364 79.8681 79.9964C79.8417 79.77 79.8153 79.5436 79.7889 79.3306C79.7757 79.2773 79.7757 79.224 79.7625 79.1708C79.7361 78.9577 79.6965 78.7446 79.6701 78.5315C79.6569 78.4649 79.6569 78.4117 79.6437 78.3451C79.6173 78.1453 79.5777 77.9323 79.5513 77.7325C79.5381 77.6659 79.5249 77.6126 79.5249 77.5461C79.4853 77.3463 79.4589 77.1465 79.4193 76.9601C79.4061 76.8935 79.3929 76.8269 79.3797 76.7737C79.3401 76.5872 79.3005 76.3875 79.2741 76.201C79.2609 76.1344 79.2477 76.0678 79.2345 76.0146C79.1949 75.8281 79.1553 75.6417 79.1156 75.4553C79.1024 75.3887 79.0892 75.3354 79.076 75.2688C79.0364 75.0824 78.9968 74.8959 78.944 74.7228C78.9308 74.6562 78.9176 74.603 78.9044 74.5364C78.8648 74.3499 78.812 74.1768 78.7724 74.0037C78.7592 73.9504 78.746 73.8838 78.7328 73.8306C78.68 73.6574 78.6404 73.471 78.5876 73.2979C78.5744 73.2446 78.5612 73.1913 78.548 73.1381C78.4952 72.9649 78.4424 72.7918 78.4028 72.6187C78.3896 72.5654 78.3764 72.5122 78.3632 72.4722C78.3104 72.2991 78.2576 72.126 78.2048 71.9528C78.1916 71.8996 78.1784 71.8596 78.1651 71.8197C78.1123 71.6465 78.0595 71.4734 77.9935 71.3003C77.9803 71.2603 77.9671 71.2204 77.9539 71.1804C77.8879 71.0073 77.8351 70.8342 77.7691 70.6611C77.7559 70.6211 77.7427 70.5945 77.7295 70.5678C77.6635 70.3947 77.5975 70.2083 77.5315 70.0352C77.5183 70.0085 77.5183 69.9819 77.5051 69.9686C77.4391 69.7821 77.3731 69.609 77.2939 69.4226C77.2939 69.4093 77.2807 69.3959 77.2807 69.3826C76.4886 67.3984 75.5909 65.6671 74.6272 64.1356C74.5348 64.0025 74.4556 63.856 74.3632 63.7228C74.3632 63.7095 74.35 63.6962 74.35 63.6962C74.2708 63.5763 74.1784 63.4432 74.0991 63.3233C74.0859 63.31 74.0727 63.2833 74.0595 63.27C73.9803 63.1502 73.9011 63.0303 73.8087 62.9105C73.7955 62.8838 73.7823 62.8705 73.7691 62.8439C73.6899 62.724 73.5975 62.6042 73.5183 62.4976C73.5051 62.4843 73.4919 62.471 73.4787 62.4444C73.3863 62.3245 73.3071 62.2047 73.2147 62.0981C73.2147 62.0848 73.2015 62.0848 73.2015 62.0715C72.911 61.6986 72.6206 61.3257 72.3302 60.9795C68.1982 55.1066 66.218 50.7386 65.2807 47.6756C68.383 47.356 81.0694 46.1708 82.7724 47.5691C83.5777 48.2349 84.9902 50.1126 86.35 52.7361C86.416 52.856 86.4688 52.9625 86.5348 53.0824V53.0957C86.7724 53.5751 87.01 54.0679 87.2477 54.5872C87.2477 54.5872 87.2477 54.5872 87.2477 54.6005C87.3005 54.7204 87.3533 54.8402 87.4061 54.9734C87.4193 54.9867 87.4193 55.0001 87.4325 55.0267C87.4853 55.1465 87.5249 55.2531 87.5777 55.3729C87.5909 55.3863 87.5909 55.4129 87.6041 55.4262C87.6569 55.5461 87.7097 55.6659 87.7625 55.7991C87.7625 55.8124 87.7757 55.8124 87.7757 55.8257C87.8813 56.0921 88.0001 56.3717 88.1057 56.6514C88.1057 56.6514 88.1057 56.6514 88.1057 56.6647C88.1586 56.7979 88.1982 56.931 88.251 57.0642C88.2642 57.0909 88.2642 57.1175 88.2774 57.1441C88.317 57.2507 88.3566 57.3572 88.3962 57.4771C88.4094 57.517 88.4226 57.5436 88.4358 57.5836C88.4754 57.6901 88.515 57.7967 88.5414 57.9032C88.5546 57.9432 88.5678 57.9698 88.581 58.0097C88.6206 58.1296 88.6602 58.2494 88.6998 58.3693C88.713 58.3959 88.713 58.4093 88.7262 58.4359C88.8186 58.7289 88.8978 59.0085 88.9902 59.3015C89.0034 59.3281 89.0034 59.3681 89.0166 59.3947C89.043 59.5013 89.0826 59.6211 89.109 59.7277C89.1222 59.7676 89.1354 59.8209 89.1487 59.8608C89.1751 59.9674 89.2015 60.0606 89.2279 60.1671C89.2411 60.2204 89.2543 60.2603 89.2675 60.3136C89.2939 60.4202 89.3203 60.5134 89.3467 60.6199C89.3599 60.6599 89.3731 60.7131 89.3863 60.7531C89.4127 60.8729 89.4391 60.9928 89.4655 61.0993C89.4787 61.126 89.4787 61.1659 89.4919 61.1925C89.5183 61.339 89.5579 61.4988 89.5843 61.6453C89.5843 61.672 89.5975 61.6853 89.5975 61.7119C89.6239 61.8318 89.6503 61.9649 89.6635 62.0848C89.6767 62.1381 89.6767 62.178 89.6899 62.2313C89.7031 62.3378 89.7295 62.431 89.7427 62.5376C89.7559 62.5909 89.7559 62.6441 89.7691 62.6974C89.7823 62.7906 89.7955 62.8971 89.8087 62.9904C89.8219 63.0436 89.8219 63.0969 89.8351 63.1635C89.8483 63.27 89.8615 63.3632 89.8747 63.4698C89.8879 63.5231 89.8879 63.5763 89.9011 63.6296C89.9143 63.7494 89.9275 63.8826 89.9407 64.0025C89.9407 64.0291 89.9407 64.0557 89.9539 64.0824C89.9671 64.2289 89.9803 64.3887 89.9935 64.5485C89.9935 64.5884 90.0067 64.6284 90.0067 64.6817C90.0199 64.7882 90.0199 64.908 90.0331 65.0146C90.0331 65.0678 90.0463 65.1211 90.0463 65.1877C90.0463 65.2809 90.0595 65.3875 90.0595 65.4807C90.0595 65.534 90.0595 65.6005 90.0727 65.6538C90.0727 65.747 90.0859 65.8536 90.0859 65.9468C90.0859 66.0001 90.0859 66.0666 90.0859 66.1199C90.0859 66.2264 90.0859 66.333 90.0859 66.4395C90.0859 66.4928 90.0859 66.5461 90.0859 66.586C90.0859 66.7458 90.0859 66.8923 90.0859 67.0521C90.0859 67.132 90.0859 67.2252 90.0859 67.3185C90.0859 67.3451 90.0859 67.3584 90.0859 67.385C90.0859 67.4783 90.0859 67.5715 90.0859 67.6647C90.0859 67.678 90.0859 67.678 90.0859 67.6913C90.0859 67.7846 90.0859 67.8778 90.0859 67.971C90.0859 67.9976 90.0859 68.0243 90.0859 68.0376C90.0859 68.1441 90.0859 68.2507 90.0859 68.3572C90.0859 68.3705 90.0859 68.3838 90.0859 68.3971C90.0859 68.5037 90.0859 68.5969 90.0859 68.7034C90.0859 68.7301 90.0859 68.7567 90.0859 68.7833C90.0859 68.9032 90.0859 69.0231 90.0859 69.1429C90.0859 69.1562 90.0859 69.1829 90.0859 69.1962C90.0859 69.3027 90.0859 69.4093 90.0859 69.5291C90.0859 69.5557 90.0859 69.5824 90.0859 69.609C90.0859 69.7422 90.0859 69.862 90.0859 69.9952C90.0859 70.0218 90.0859 70.0352 90.0859 70.0618C90.0859 70.1817 90.0859 70.3015 90.0859 70.4214C90.0859 70.448 90.0859 70.4746 90.0859 70.5013C90.0859 70.6344 90.0859 70.7676 90.0859 70.9141C90.0859 70.9407 90.0859 70.9807 90.0859 71.0073C90.0859 71.1405 90.0859 71.2603 90.0859 71.3935C90.0859 71.4202 90.0859 71.4335 90.0859 71.4601C90.0859 71.6066 90.0859 71.7531 90.0859 71.9129C90.0859 71.9528 90.0859 71.9795 90.0859 72.0194C90.0859 72.1526 90.0859 72.2991 90.0859 72.4456C90.0859 72.4589 90.0859 72.4855 90.0859 72.4988C90.0859 72.6586 90.0859 72.8185 90.0859 72.9783C90.0859 73.0182 90.0859 73.0448 90.0859 73.0848C90.0859 73.2446 90.0859 73.4044 90.0859 73.5775C90.0859 73.7373 90.0859 73.9105 90.0859 74.0836C90.0859 74.1235 90.0859 74.1635 90.0859 74.2034C90.0859 74.5497 90.0991 74.8959 90.0991 75.2422C90.0991 75.2821 90.0991 75.3221 90.0991 75.362C90.0991 75.5352 90.0991 75.7083 90.0991 75.8814C90.0991 75.908 90.0991 75.9347 90.0991 75.948C90.0991 76.1078 90.0991 76.2809 90.0991 76.4407C90.0991 76.4807 90.0991 76.5073 90.0991 76.5473C90.0991 76.7337 90.0991 76.9202 90.1123 77.1199C90.1123 77.1332 90.1123 77.1465 90.1123 77.1465C90.1123 77.3197 90.1123 77.5061 90.1255 77.6792C90.1255 77.7192 90.1255 77.7591 90.1255 77.7991C90.1255 77.9855 90.1255 78.172 90.1388 78.3584C90.1388 78.3984 90.1388 78.425 90.1388 78.4649C90.1388 78.6248 90.1387 78.7979 90.152 78.9577C90.152 78.9976 90.152 79.0376 90.152 79.0775C90.152 79.2773 90.152 79.4637 90.1652 79.6635C90.1652 79.6901 90.1652 79.7168 90.1652 79.7567C90.1652 79.9298 90.1652 80.1163 90.1784 80.2894C90.1784 80.3293 90.1784 80.356 90.1784 80.3959C90.1784 80.5957 90.1784 80.7821 90.1916 80.9819C90.1916 81.0218 90.1916 81.0618 90.1916 81.1017C90.1916 81.2882 90.1916 81.4746 90.2048 81.6611C90.2048 81.6877 90.2048 81.701 90.2048 81.7277C90.2048 81.9274 90.218 82.1405 90.218 82.3402C90.218 82.3802 90.218 82.4202 90.218 82.4601C90.218 82.6332 90.218 82.8197 90.2312 82.9928C90.2312 83.0194 90.2312 83.0594 90.2312 83.086C90.2312 83.2991 90.2444 83.5122 90.2444 83.7119C90.2444 83.7386 90.2444 83.7652 90.2444 83.7918C90.4688 95.9371 90.8384 109.627 90.8384 109.627L80.4622 109.441Z" fill="#FF8D7E"/>
<path fill-rule="evenodd" clip-rule="evenodd" d="M101.359 50.7652C99.7621 50.0993 98.0195 49.8729 96.6334 49.6465C96.937 51.2979 97.0162 52.7361 96.9766 53.7083C96.673 60.7264 93.5707 63.4432 92.9238 66.0267C101.293 62.9105 101.94 54.6804 101.359 50.7652Z" fill="#2E186A"/>
<path fill-rule="evenodd" clip-rule="evenodd" d="M53.2676 54.8935C51.1026 55.8523 48.1191 57.1707 45.5977 61.046C49.1356 59.5811 61.294 70.5545 69.9145 68.0642C65.9145 67.6514 57.2016 61.8451 53.2676 54.8935Z" fill="#2E186A"/>
<path fill-rule="evenodd" clip-rule="evenodd" d="M72.4714 68.1966C72.726 68.0732 73.0301 68.1741 73.1636 68.4216L73.1913 68.4784L73.2985 68.7081L73.3963 68.9207C73.5567 69.2714 73.7338 69.6678 73.924 70.1041L73.9718 70.2139C74.5665 71.584 75.1612 73.0509 75.7166 74.5566C76.2928 76.119 76.7936 77.6353 77.1972 79.074C77.7183 80.9319 78.0635 82.6117 78.2026 84.0738C78.2304 84.3666 78.0177 84.6268 77.7274 84.6549C77.4371 84.683 77.1792 84.4684 77.1513 84.1756C77.019 82.7849 76.6861 81.1651 76.181 79.3641C75.7858 77.9551 75.2937 76.4653 74.7268 74.9281C74.1789 73.4426 73.5916 71.994 73.0044 70.6413L72.8645 70.3211C72.712 69.9737 72.5688 69.6545 72.4373 69.3669L72.299 69.0671L72.2241 68.9074C72.0978 68.6422 72.2085 68.324 72.4714 68.1966Z" fill="#2E186A"/>
<path fill-rule="evenodd" clip-rule="evenodd" d="M92.018 66.4271C92.3003 66.4439 92.5177 66.6815 92.5149 66.9637L92.5022 67.2234C92.4931 67.4162 92.4841 67.6399 92.4756 67.8919C92.3781 70.7941 92.4413 74.0414 92.784 77.102C92.9846 78.8941 93.2727 80.5014 93.6569 81.876C93.736 82.1592 93.5726 82.4534 93.2919 82.5333C93.0112 82.6131 92.7195 82.4483 92.6404 82.1651C92.239 80.7292 91.9412 79.0669 91.7345 77.2215C91.3946 74.1852 91.3247 70.9836 91.4124 68.0957L91.4259 67.6888C91.4318 67.5261 91.438 67.3762 91.4441 67.24L91.4598 66.9274C91.4764 66.6426 91.712 66.4234 91.9917 66.4262L92.018 66.4271Z" fill="#2E186A"/>
<path fill-rule="evenodd" clip-rule="evenodd" d="M106.47 51.6379C106.626 51.4838 106.877 51.4867 107.03 51.6446C107.118 51.7358 107.177 51.8524 107.233 52.013L107.253 52.072C107.292 52.1944 107.332 52.345 107.378 52.5436L107.434 52.7971C107.486 53.0355 107.59 53.5281 107.614 53.6393C107.813 54.5559 107.995 55.2589 108.231 55.9529C109.098 58.5027 110.404 59.907 112.43 59.8742C112.649 59.8706 112.829 60.0466 112.832 60.2672C112.836 60.4878 112.661 60.6696 112.443 60.6731C109.992 60.7128 108.447 59.0518 107.482 56.2122C107.244 55.514 107.061 54.8149 106.866 53.9269L106.641 52.8763L106.608 52.733C106.56 52.5242 106.521 52.3795 106.486 52.2783C106.475 52.2473 106.465 52.2223 106.457 52.2037L106.451 52.1909C106.448 52.1864 106.451 52.1898 106.463 52.2029C106.31 52.0451 106.313 51.7921 106.47 51.6379Z" fill="#2E186A"/>
<path fill-rule="evenodd" clip-rule="evenodd" d="M98.8785 85.7095L89.2152 87.7071L88.6211 77.8524" fill="white"/>
<path fill-rule="evenodd" clip-rule="evenodd" d="M88.5976 77.4536C88.8081 77.4407 88.9902 77.5961 89.0149 77.8047L89.0169 77.8281L89.5832 87.2233L98.7996 85.3181C99.0062 85.2754 99.2082 85.4034 99.2617 85.6064L99.267 85.6293C99.3094 85.8377 99.1825 86.0415 98.9812 86.0955L98.9586 86.1009L89.2952 88.0985C89.0668 88.1457 88.8495 87.9849 88.8225 87.7546L88.8204 87.7313L88.2263 77.8766C88.2131 77.6564 88.3793 77.467 88.5976 77.4536Z" fill="#2E186A"/>
<path fill-rule="evenodd" clip-rule="evenodd" d="M95.6711 84.8705C95.5391 86.2288 94.747 89.092 95.7767 90.9831C96.2784 91.902 96.5292 93.7664 96.5292 93.7664L102.615 95.3112C103.13 97.3087 104.265 101.157 105.123 101.104C106.338 101.024 105.691 93.3535 105.519 90.9964C105.44 89.7845 104.595 85.9092 103.909 83.9383C103.011 81.3681 98.9318 73.5376 90.615 76.4007L84.6084 77.879" fill="white"/>
<path fill-rule="evenodd" clip-rule="evenodd" d="M90.6024 75.9835C94.415 74.7087 97.6659 75.4973 100.305 77.8317C102.169 79.4812 103.585 81.8104 104.282 83.8059L104.326 83.9341C104.975 85.8559 105.81 89.5833 105.911 90.9225L105.996 92.0764C106.019 92.3877 106.039 92.671 106.058 92.9585L106.082 93.3239C106.137 94.1677 106.178 94.9498 106.205 95.6953L106.214 95.9348C106.26 97.3588 106.249 98.5376 106.165 99.4297L106.153 99.5512C106.026 100.788 105.769 101.462 105.147 101.503C104.48 101.544 103.974 100.716 103.37 99.1191C103.014 98.1769 102.657 97.0125 102.343 95.8356L102.291 95.6411L96.4322 94.1539C96.2835 94.1161 96.1706 93.9956 96.1406 93.8454L96.1364 93.8202L96.1168 93.6866L96.0989 93.5734C96.0862 93.4953 96.072 93.4121 96.0563 93.3246C95.9892 92.9503 95.9087 92.5763 95.8154 92.2295C95.7033 91.813 95.5805 91.4666 95.452 91.2183L95.4292 91.1755C95.022 90.4275 94.8513 89.5219 94.8598 88.4539C94.865 87.7908 94.9321 87.14 95.0651 86.2671L95.1975 85.4252L95.2277 85.2232C95.2501 85.0677 95.2659 84.9422 95.2766 84.8316C95.2979 84.612 95.4917 84.4514 95.7094 84.4729C95.9271 84.4945 96.0862 84.6899 96.0649 84.9095L96.0571 84.9852C96.0458 85.0885 96.0312 85.2019 96.0122 85.3341L95.9648 85.6466C95.9348 85.8374 95.8789 86.1883 95.8633 86.2888L95.8338 86.4824C95.7157 87.2729 95.6565 87.8671 95.6518 88.4603C95.6446 89.3737 95.7817 90.1309 96.0926 90.7327L96.1233 90.7904C96.2959 91.1066 96.446 91.5232 96.5798 92.0202C96.6797 92.3916 96.7648 92.7871 96.8357 93.1823C96.8481 93.2513 96.8596 93.3179 96.8702 93.3817L96.8804 93.4436L102.711 94.9238C102.843 94.9573 102.948 95.0567 102.991 95.1861L102.998 95.2107C103.331 96.5029 103.723 97.8113 104.11 98.8345L104.169 98.9879C104.384 99.5406 104.589 99.9831 104.778 100.293C104.873 100.448 104.961 100.564 105.037 100.638L105.063 100.663L105.082 100.679L105.092 100.664C105.114 100.627 105.137 100.577 105.161 100.516L105.172 100.484C105.261 100.232 105.33 99.85 105.377 99.3544C105.461 98.455 105.469 97.2244 105.414 95.7248L105.401 95.4064C105.375 94.7646 105.338 94.0927 105.292 93.3752L105.268 93.0126C105.253 92.7982 105.239 92.586 105.223 92.3626L105.117 90.9364C105.004 89.6015 104.16 85.8665 103.535 84.0711C102.88 82.1961 101.534 79.9822 99.7826 78.4324C97.3226 76.2563 94.3261 75.5452 90.7426 76.7789L90.7256 76.7843L90.7085 76.7889L84.7019 78.2672C84.4894 78.3195 84.2751 78.1881 84.2233 77.9737C84.1733 77.767 84.2926 77.5586 84.4917 77.4971L84.5142 77.4909L90.5043 76.0166L90.6024 75.9835Z" fill="#2E186A"/>
<path fill-rule="evenodd" clip-rule="evenodd" d="M103.723 90.8633C103.723 90.8633 103.076 96.4299 101.228 96.856C99.38 97.2822 99.2744 95.7107 99.2744 95.7107" fill="white"/>
<path fill-rule="evenodd" clip-rule="evenodd" d="M103.77 90.4664C103.979 90.4912 104.131 90.6767 104.119 90.8864L104.116 90.919L104.108 90.9818C104.101 91.0385 104.092 91.1041 104.082 91.1778L104.059 91.3394C104.034 91.5053 104.006 91.6836 103.973 91.872C103.849 92.5904 103.693 93.3091 103.502 93.9826L103.46 94.1292C102.94 95.895 102.271 97.0255 101.317 97.2455C100.262 97.4886 99.5283 97.1861 99.1363 96.5251C99.0353 96.3548 98.9666 96.1753 98.9231 95.996C98.8965 95.8864 98.8838 95.7974 98.8798 95.7377C98.865 95.5176 99.0299 95.327 99.2482 95.3121C99.4586 95.2977 99.6418 95.4519 99.6678 95.6603L99.6701 95.6837C99.6712 95.7001 99.6775 95.7444 99.6925 95.8062C99.7183 95.9125 99.7589 96.0186 99.816 96.1149C100.029 96.4745 100.416 96.6336 101.141 96.4665C101.722 96.3324 102.294 95.3331 102.741 93.7624C102.923 93.1193 103.074 92.4275 103.193 91.7353L103.223 91.5567C103.247 91.4108 103.268 91.2723 103.287 91.1426L103.309 90.9855L103.33 90.8167C103.356 90.5976 103.553 90.4407 103.77 90.4664Z" fill="#2E186A"/>
<path fill-rule="evenodd" clip-rule="evenodd" d="M101.506 90.6635C101.506 90.6635 100.516 95.5642 98.6412 95.8572C96.7666 96.1501 96.7666 94.5787 96.7666 94.5787" fill="white"/>
<path fill-rule="evenodd" clip-rule="evenodd" d="M101.585 90.272C101.799 90.3161 101.937 90.5271 101.893 90.7433L101.88 90.8066C101.87 90.856 101.857 90.9132 101.842 90.9773C101.8 91.1596 101.75 91.3624 101.693 91.5806C101.527 92.2046 101.329 92.8291 101.099 93.4144L101.043 93.5554C100.411 95.1125 99.6622 96.1019 98.7014 96.252C97.6611 96.4146 96.9565 96.0849 96.5985 95.4288C96.4979 95.2443 96.4343 95.05 96.399 94.8563C96.3776 94.7383 96.3701 94.6427 96.3701 94.5788C96.3701 94.3581 96.5474 94.1793 96.7662 94.1793C96.9771 94.1793 97.1495 94.3456 97.1615 94.5553L97.1628 94.5953C97.1643 94.6194 97.1687 94.6601 97.1781 94.7121C97.1989 94.8266 97.2362 94.9405 97.2925 95.0436C97.4863 95.3989 97.8619 95.5747 98.5801 95.4624C99.1874 95.3675 99.8184 94.5052 100.363 93.12C100.58 92.5662 100.769 91.9702 100.927 91.3737L100.968 91.2199C101 91.0942 101.029 90.9749 101.055 90.8633L101.086 90.7281L101.117 90.5837C101.161 90.3675 101.37 90.228 101.585 90.272Z" fill="#2E186A"/>
<path fill-rule="evenodd" clip-rule="evenodd" d="M98.7728 90.3705C98.7728 90.3705 97.4791 96.2434 95.4065 94.0195C93.3339 91.7955 93.5451 90.6502 93.5451 90.6502C93.5451 90.6502 94.5484 89.0388 96.1458 91.609" fill="white"/>
<path fill-rule="evenodd" clip-rule="evenodd" d="M93.5139 90.0955C94.3421 89.3904 95.4183 89.686 96.4815 91.3968C96.5977 91.5837 96.5416 91.8303 96.3563 91.9475C96.171 92.0647 95.9266 92.0081 95.8104 91.8212C95.3339 91.0544 94.9112 90.6687 94.5637 90.5733C94.3569 90.5165 94.1845 90.5701 94.0248 90.7061C93.9949 90.7315 93.9689 90.7569 93.9472 90.78L93.9363 90.7918L93.9372 90.807C93.939 90.8315 93.9419 90.8593 93.9462 90.8904L93.951 90.9227C93.9765 91.0836 94.031 91.2748 94.1225 91.4965C94.3828 92.127 94.8862 92.8776 95.6952 93.7457C96.113 94.194 96.4105 94.2217 96.7498 93.9431C97.0961 93.6587 97.443 93.0773 97.7585 92.2957C97.9358 91.8566 98.0921 91.3835 98.2253 90.9101L98.2638 90.7709C98.2884 90.6802 98.311 90.5938 98.3315 90.5125L98.3629 90.3848L98.3864 90.2838C98.4339 90.0684 98.6454 89.9326 98.8589 89.9805C99.0648 90.0266 99.1974 90.2267 99.164 90.4341L99.1581 90.4638L99.1328 90.5724C99.1273 90.5953 99.1214 90.6196 99.1151 90.6453L99.0826 90.7743C99.0542 90.8851 99.0224 91.0035 98.9873 91.1283C98.8467 91.628 98.6815 92.128 98.4921 92.5971C98.1304 93.493 97.7249 94.1727 97.2498 94.5627C96.5813 95.1117 95.8146 95.0404 95.1181 94.293C94.2471 93.3584 93.6905 92.5284 93.3913 91.8037C93.1922 91.3214 93.1274 90.941 93.1455 90.6686L93.1479 90.6376C93.1502 90.6132 93.153 90.593 93.1559 90.5771C93.1651 90.5276 93.1834 90.4803 93.2099 90.4376C93.2688 90.3431 93.369 90.2188 93.5139 90.0955Z" fill="#2E186A"/>
<path fill-rule="evenodd" clip-rule="evenodd" d="M59.671 79.0242C66.1001 77.7325 78.9449 75.0024 80.0011 75.0557C82.9317 75.1756 86.1925 75.7482 87.143 75.8547C89.3476 76.1078 90.2981 76.1743 90.2981 76.1743C88.7271 81.0484 92.9911 87.7337 92.9911 87.7337C92.9911 87.7337 92.3575 88.0666 90.3773 88.9455C88.3971 89.8245 89.4796 93.6998 86.7073 94.5254C85.5984 94.8584 64.3443 105.978 58.8525 107.11" fill="#FF8D7E"/>
<path fill-rule="evenodd" clip-rule="evenodd" d="M88.9117 90.8366C84.2384 87.0146 82.6675 77.3996 84.6345 75.2954C84.7137 74.6296 86.2318 75.7482 87.1427 75.8548C89.3474 76.1078 90.2979 76.1744 90.2979 76.1744C89.4002 78.9444 90.4035 82.3003 91.42 84.6841C92.014 86.109 92.6345 87.2276 92.9381 87.747C92.7665 87.8402 92.0536 88.1865 90.3639 88.9323C89.4002 89.3717 89.2021 90.1042 88.9117 90.8366Z" fill="#2E186A"/>
<path fill-rule="evenodd" clip-rule="evenodd" d="M51.8617 76.0085C53.2776 75.5324 55.1577 75.2525 56.8099 75.4037C59.1001 75.6131 60.8241 76.6039 61.657 78.5318C61.7443 78.734 61.6526 78.9695 61.4521 79.0576C61.2516 79.1458 61.0182 79.0532 60.9308 78.851C60.2287 77.2256 58.7657 76.3848 56.7383 76.1994C55.2043 76.0591 53.431 76.323 52.1122 76.7665C51.9047 76.8363 51.6804 76.7232 51.6113 76.5138C51.5421 76.3045 51.6542 76.0783 51.8617 76.0085Z" fill="#2E186A"/>
<path fill-rule="evenodd" clip-rule="evenodd" d="M69.006 76.5909C79.2295 74.553 85.3702 73.9744 86.4037 75.5549C86.4116 75.5669 86.4189 75.5795 86.4254 75.5923L86.4347 75.6119L91.2928 86.5853C91.3399 86.6916 91.3385 86.8129 91.2899 86.9176L91.2751 86.9465L91.1885 87.1071L91.125 87.2265C91.0704 87.3295 91.012 87.4411 90.9503 87.5602C90.7037 88.0364 90.4572 88.5334 90.2274 89.0259C90.1112 89.275 90.0021 89.5169 89.9014 89.7497C89.5197 90.6325 89.2771 91.3427 89.2169 91.7918L89.2123 91.8286C89.0086 93.5831 88.3683 94.2877 85.2469 95.9247L83.0625 97.0683L82.3489 97.4399C81.5239 97.8682 80.7199 98.2806 79.8771 98.7067C76.903 100.21 73.9343 101.635 70.9279 102.976C67.6443 104.44 64.4798 105.728 61.4737 106.803C57.315 108.29 53.5645 109.33 50.3065 109.849C50.0904 109.883 49.8876 109.734 49.8535 109.516C49.8194 109.298 49.967 109.094 50.183 109.059C53.3869 108.549 57.0926 107.522 61.2091 106.05C64.1949 104.982 67.3413 103.701 70.6077 102.245C73.6014 100.91 76.5588 99.4905 79.5222 97.9923C80.3624 97.5676 81.164 97.1564 81.9866 96.7293L84.9605 95.1744C87.7393 93.7142 88.2403 93.1813 88.415 91.823L88.4256 91.736C88.4886 91.1886 88.7533 90.4064 89.1754 89.4302C89.2792 89.1901 89.3914 88.9413 89.5107 88.6856C89.7456 88.1822 89.9969 87.6756 90.2482 87.1902L90.3577 86.9802L90.4896 86.7308L85.727 75.973L85.7198 75.9635C85.3253 75.4697 83.4375 75.3166 80.4239 75.5875L80.2371 75.6047C77.3787 75.874 73.612 76.4873 69.1596 77.3748C67.634 77.6789 66.0472 78.0115 64.4134 78.368C61.6576 78.9694 58.8918 79.6113 56.2357 80.2556L55.4147 80.4556C54.6122 80.6521 53.8714 80.8362 53.2025 81.0047L52.7535 81.1182L52.0858 81.2889C51.874 81.3438 51.6581 81.2151 51.6037 81.0014C51.5512 80.7953 51.668 80.5855 51.8664 80.5215L51.8968 80.5129L52.8774 80.2631L53.7047 80.0555C54.2308 79.9243 54.7937 79.7852 55.3895 79.6396L55.5528 79.5998C58.3658 78.9136 61.3111 78.2275 64.2459 77.5871C65.8842 77.2295 67.4756 76.896 69.006 76.5909Z" fill="#2E186A"/>
<path fill-rule="evenodd" clip-rule="evenodd" d="M85.98 48.2749L71.551 48.9274L70.4025 43.1744L65.9272 38.1405C65.9272 38.1405 65.7292 43.8935 65.584 48.6344C66.3497 50.8451 68.1186 53.8947 70.2176 57.3039C73.5444 59.0751 77.6896 61.2991 83.2474 65.1744C84.7259 62.7107 86.0724 53.9214 85.98 48.2749Z" fill="white"/>
<path fill-rule="evenodd" clip-rule="evenodd" d="M65.5319 38.1266L65.4548 40.4001C65.4201 41.4328 65.3854 42.477 65.3515 43.5103L65.2307 47.267C65.216 47.7353 65.202 48.1875 65.1887 48.6221C65.1872 48.6711 65.1946 48.72 65.2106 48.7662L65.2529 48.8864C65.9571 50.8611 67.3619 53.4221 69.8817 57.5147C69.9188 57.575 69.9712 57.6242 70.0333 57.6573L70.7424 58.036C75.5618 60.6181 78.6598 62.4609 83.0227 65.503C83.2104 65.6339 83.4685 65.5782 83.5867 65.3813C85.0799 62.8932 86.4724 54.1241 86.3765 48.2683L86.3755 48.2452C86.3599 48.0312 86.178 47.866 85.9628 47.8758L71.8727 48.513L70.7912 43.0955C70.7773 43.0256 70.745 42.9608 70.6978 42.9077L66.2226 37.8738C65.9845 37.606 65.5443 37.7671 65.5319 38.1266ZM66.2896 39.1458L70.036 43.36L71.1633 49.0063L71.1685 49.0292C71.2156 49.2101 71.382 49.335 71.5693 49.3265L85.5886 48.6924L85.5891 48.8037C85.5955 54.2178 84.3979 61.871 83.1183 64.5721L83.1085 64.5923L83.0017 64.5183C78.8038 61.6139 75.7114 59.7896 70.9485 57.2417L70.4979 57.0011L70.1909 56.5004C67.9528 52.8388 66.6713 50.4762 66.0195 48.6751L65.9827 48.572L66.0767 45.5817L66.1601 43.0194L66.2896 39.1458Z" fill="#2E186A"/>
<path fill-rule="evenodd" clip-rule="evenodd" d="M64.3827 31.442C64.3827 31.442 59.3134 31.5352 60.211 36.1163C61.1219 40.6974 66.7325 38.0473 66.7325 38.0473L65.98 31.5352L64.3827 31.442Z" fill="white"/>
<path fill-rule="evenodd" clip-rule="evenodd" d="M64.4059 31.0434C64.3959 31.0428 64.3859 31.0426 64.3758 31.0428L64.3219 31.0444C64.1684 31.0503 63.938 31.0708 63.6536 31.1155C63.1215 31.1992 62.5886 31.3421 62.0872 31.5603C60.296 32.3394 59.3645 33.8547 59.8229 36.194C60.2305 38.2438 61.5462 39.1835 63.4046 39.209C64.1877 39.2198 65.0152 39.0684 65.8386 38.8103C66.0807 38.7345 66.3074 38.6538 66.5147 38.5725L66.6023 38.5376C66.7423 38.481 66.8438 38.4363 66.9008 38.4094C67.0552 38.3365 67.146 38.1721 67.1263 38.0013L66.3738 31.4892C66.3515 31.2965 66.1953 31.1478 66.0033 31.1366L64.4059 31.0434ZM64.3776 31.8418L65.6256 31.9147L66.3052 37.7966L66.3078 37.7956C66.0961 37.8812 65.8592 37.967 65.6036 38.0471C64.8533 38.2822 64.1039 38.4193 63.4154 38.4099C61.9076 38.3892 60.9282 37.6896 60.5997 36.0378C60.2189 34.0941 60.9331 32.9322 62.4008 32.2938C62.8351 32.1048 63.305 31.9788 63.7756 31.9048C63.9405 31.8788 64.0934 31.8613 64.2297 31.8507L64.321 31.8445L64.3776 31.8418Z" fill="#2E186A"/>
<path fill-rule="evenodd" clip-rule="evenodd" d="M78.8382 17.0061C80.1715 16.8996 89.3332 16.3136 90.3365 24.0243C91.3398 31.7349 90.2573 40.2446 89.4124 44.1332C88.5675 48.0218 71.023 46.224 70.0329 45.8778C69.0428 45.5315 67.8547 44.3596 67.8547 44.3596L65.452 32.5206C65.452 32.5073 64.4619 18.2046 78.8382 17.0061Z" fill="white"/>
<path fill-rule="evenodd" clip-rule="evenodd" d="M65.0534 32.4751L65.0565 32.5206C65.0565 32.5475 65.0592 32.5744 65.0645 32.6008L67.4671 44.4397C67.483 44.5179 67.5217 44.5895 67.5783 44.6453L67.6569 44.7207L67.7341 44.7927C67.7747 44.8302 67.8182 44.8697 67.8644 44.9109C68.0842 45.107 68.3206 45.3032 68.5658 45.487C68.8576 45.7057 69.1427 45.8926 69.4163 46.0381C69.5846 46.1276 69.7471 46.2005 69.9036 46.2552C70.6983 46.5331 75.7891 46.9785 79.6601 46.9928L79.777 46.9931C85.6756 47.0016 89.363 46.2287 89.7998 44.2188L89.8491 43.988C90.3241 41.7293 90.7432 38.6763 90.9631 35.5402C91.247 31.4904 91.1933 27.5352 90.7297 23.9723C90.2641 20.3944 88.107 18.2227 84.8284 17.202C83.6428 16.8329 82.3732 16.6361 81.0753 16.5744C80.2054 16.5329 79.477 16.5543 78.8074 16.6078C72.6051 17.1249 68.6741 20.0381 66.6063 24.556C65.8876 26.1264 65.4403 27.8017 65.2118 29.4987C65.0638 30.5979 65.0243 31.558 65.047 32.3076L65.0495 32.3819C65.0507 32.4161 65.052 32.4472 65.0534 32.4751ZM81.038 17.3725C82.2738 17.4313 83.479 17.6181 84.5948 17.9655C87.5988 18.9007 89.5229 20.8378 89.9443 24.0763C90.4004 27.5811 90.4534 31.484 90.173 35.4838C89.9481 38.6903 89.5128 41.8073 89.026 44.0477C88.7182 45.4644 85.1997 46.2019 79.7782 46.1941L79.5487 46.1932C75.777 46.1708 70.8415 45.7375 70.1631 45.5003C70.0469 45.4597 69.9204 45.4029 69.7856 45.3312C69.5518 45.2069 69.2997 45.0417 69.0383 44.8457C68.8127 44.6765 68.5932 44.4945 68.3893 44.3125L68.3072 44.2385L68.2181 44.156L65.846 32.4662L65.841 32.3525C65.8149 31.6357 65.8503 30.6935 65.9967 29.6062C66.2152 27.9833 66.6423 26.3835 67.3254 24.891C69.2764 20.6283 72.9621 17.8969 78.8713 17.4043C79.5089 17.3533 80.2054 17.3329 81.038 17.3725Z" fill="#2E186A"/>
<path fill-rule="evenodd" clip-rule="evenodd" d="M67.1153 32.4141C67.9602 33.2664 70.2308 38.1671 70.7853 40.4443C70.7853 40.4443 76.4091 38.5267 84.4751 38.4068C84.4751 38.4068 88.8711 38.5 90.6269 39.0194C90.6269 39.0194 90.244 47.1029 86.6797 51.2978C83.1153 55.4794 75.5906 54.3075 72.0526 51.7906C68.5147 49.2736 67.9338 48.0751 67.1153 45.3717C66.2969 42.6683 64.1318 32.6271 64.1318 32.6271L67.1153 32.4141Z" fill="#968BB4"/>
<path fill-rule="evenodd" clip-rule="evenodd" d="M81.9541 45.3984C81.9541 45.3984 84.1059 44.9589 84.9904 45.8378L81.9541 45.3984Z" fill="white"/>
<path fill-rule="evenodd" clip-rule="evenodd" d="M82.2541 44.947C82.733 44.886 83.2288 44.8672 83.6995 44.917C84.3564 44.9864 84.8951 45.1827 85.268 45.5532C85.4238 45.708 85.4257 45.961 85.2722 46.1182C85.1187 46.2754 84.8679 46.2773 84.7121 46.1224C84.49 45.9017 84.1119 45.764 83.617 45.7117C83.2152 45.6692 82.7769 45.6858 82.3534 45.7398C82.2824 45.7488 82.2168 45.7583 82.1572 45.7679L82.05 45.7865C82.0424 45.7879 82.0365 45.789 82.0323 45.7899C81.8179 45.8337 81.609 45.6939 81.5656 45.4776C81.5222 45.2613 81.6608 45.0505 81.8751 45.0068L81.9607 44.9907C82.0358 44.9775 82.1351 44.9622 82.2541 44.947Z" fill="#2E186A"/>
<path fill-rule="evenodd" clip-rule="evenodd" d="M64.8185 34.1453C64.8185 34.1453 62.429 30.4165 61.5181 26.5545C60.6468 22.9189 62.3234 19.1102 65.6633 17.4722C68.462 16.1138 70.5346 17.1792 70.5346 17.1792C70.5346 17.1792 67.5643 12.092 72.0132 7.59083C73.5841 6.00608 75.7492 5.12715 77.967 5.19373C83.3927 5.35354 85.0825 9.98792 85.0825 9.98792C85.0825 9.98792 90.8911 -0.785685 102.812 5.59325C104.013 6.23248 105.373 8.0303 106.02 9.24216C109.954 16.5666 96.9769 25.2361 90.231 25.9153C82.8119 26.6744 78.4686 25.4225 76.0792 23.5981C77.8482 24.6635 75.8548 35.8632 64.8185 34.1453Z" fill="#2E186A"/>
<path fill-rule="evenodd" clip-rule="evenodd" d="M84.6556 34.8936C84.8652 34.8697 85.055 35.0154 85.0904 35.2224L85.0937 35.2457L85.8857 42.3038C85.9161 42.5743 85.676 42.7931 85.4156 42.7407L85.3932 42.7356L82.9378 42.0963C82.726 42.0412 82.5986 41.8233 82.6533 41.6097C82.706 41.4036 82.9087 41.2768 83.113 41.3174L83.1357 41.3227L85.034 41.8168L84.3066 35.3355C84.2829 35.1241 84.4273 34.9326 84.6325 34.8969L84.6556 34.8936Z" fill="#2E186A"/>
<path fill-rule="evenodd" clip-rule="evenodd" d="M87.2744 37.2083C87.6681 37.2083 87.9873 36.7075 87.9873 36.0897C87.9873 35.4718 87.6681 34.971 87.2744 34.971C86.8807 34.971 86.5615 35.4718 86.5615 36.0897C86.5615 36.7075 86.8807 37.2083 87.2744 37.2083Z" fill="#2E186A"/>
<path fill-rule="evenodd" clip-rule="evenodd" d="M80.3828 37.0751C80.7765 37.0751 81.0957 36.5743 81.0957 35.9565C81.0957 35.3387 80.7765 34.8378 80.3828 34.8378C79.9891 34.8378 79.6699 35.3387 79.6699 35.9565C79.6699 36.5743 79.9891 37.0751 80.3828 37.0751Z" fill="#2E186A"/>
<path fill-rule="evenodd" clip-rule="evenodd" d="M77.7007 29.1619C78.4538 28.6053 79.3739 28.329 80.4417 28.4899C80.658 28.5225 80.8072 28.7258 80.7748 28.944C80.7425 29.1623 80.541 29.3127 80.3247 29.2801C79.4781 29.1526 78.763 29.3674 78.1688 29.8065C78.0013 29.9302 77.857 30.0627 77.7369 30.1943L77.6983 30.2375C77.6628 30.2781 77.6364 30.3107 77.6194 30.3332L77.6056 30.3522C77.4803 30.5331 77.2334 30.5774 77.0541 30.4511C76.8748 30.3248 76.8309 30.0757 76.9561 29.8948C76.9935 29.8407 77.0595 29.7569 77.1542 29.6531C77.3076 29.485 77.4896 29.3178 77.7007 29.1619Z" fill="#2E186A"/>
<path fill-rule="evenodd" clip-rule="evenodd" d="M87.0948 28.3447C87.5018 28.2804 87.934 28.2783 88.3508 28.3823C89.054 28.5576 89.5829 29.0119 89.8179 29.7792C89.8825 29.99 89.7654 30.2137 89.5564 30.2789C89.3474 30.344 89.1257 30.2259 89.0611 30.0151C88.9131 29.5316 88.6078 29.2694 88.1608 29.1579C87.8613 29.0833 87.529 29.0849 87.2173 29.1341L87.1681 29.1423C87.1301 29.149 87.0998 29.1552 87.0785 29.16L87.0573 29.1652C86.8456 29.2207 86.6294 29.0926 86.5744 28.879C86.5193 28.6655 86.6463 28.4474 86.858 28.3918C86.9074 28.3789 86.9883 28.3615 87.0948 28.3447Z" fill="#2E186A"/>
<path fill-rule="evenodd" clip-rule="evenodd" d="M104.555 19.8027L106.786 28.8584L116.581 25.9286" fill="white"/>
<path fill-rule="evenodd" clip-rule="evenodd" d="M104.459 19.415C104.664 19.3637 104.871 19.4832 104.932 19.6838L104.939 19.7064L107.07 28.3565L116.468 25.5456C116.67 25.4851 116.883 25.5952 116.953 25.7928L116.96 25.8151C117.02 26.0191 116.911 26.2331 116.715 26.3044L116.693 26.3117L106.898 29.2415C106.689 29.304 106.471 29.1845 106.407 28.9773L106.401 28.9548L104.17 19.8991C104.117 19.685 104.247 19.4682 104.459 19.415Z" fill="#2E186A"/>
<path fill-rule="evenodd" clip-rule="evenodd" d="M107.697 20.5085C106.588 21.241 102.442 23.2252 100.357 23.172C99.3401 23.1453 97.6239 23.7845 97.6239 23.7845L93.5447 19.1768C91.6041 19.6296 87.7889 20.3753 87.4457 19.6029C86.9572 18.5109 93.8219 15.6078 95.9209 14.6889C96.9903 14.2095 100.7 13.1841 102.706 12.8911C105.307 12.5049 114.799 12.2652 116.106 20.8015L117.505 26.0751L108.185 28.8584" fill="white"/>
<path fill-rule="evenodd" clip-rule="evenodd" d="M102.649 12.4958C104.759 12.1824 107.589 12.308 110.016 13.1212C113.509 14.2916 115.842 16.7206 116.478 20.6218L116.493 20.7181L117.888 25.9718C117.941 26.1732 117.832 26.3807 117.64 26.4507L117.617 26.4582L108.297 29.2415C108.088 29.3041 107.867 29.1834 107.805 28.9718C107.745 28.7678 107.854 28.5538 108.05 28.4826L108.072 28.4753L117.023 25.8024L115.723 20.9048C115.721 20.8978 115.72 20.8908 115.718 20.8838L115.714 20.8625C115.155 17.2089 113.029 14.9727 109.766 13.8795C107.507 13.1226 104.85 12.9939 102.862 13.2722L102.763 13.2865C100.922 13.5553 97.2722 14.5347 96.1157 15.039L94.7955 15.6153C94.6548 15.6771 94.5187 15.7371 94.3813 15.798L94.0611 15.9404C93.3755 16.2464 92.7426 16.5368 92.1397 16.824C91.5962 17.0829 91.0933 17.3316 90.6338 17.5701L90.4613 17.6602C89.5819 18.1227 88.8914 18.5347 88.4228 18.8847C88.1639 19.0779 87.9806 19.247 87.8809 19.381C87.8714 19.3938 87.863 19.4059 87.8556 19.4171L87.8407 19.4409L87.8641 19.4503C87.9614 19.4866 88.1088 19.5136 88.2988 19.5274C88.6814 19.5551 89.2083 19.5284 89.85 19.4525C90.903 19.328 92.206 19.0791 93.4553 18.7876C93.5874 18.7567 93.7252 18.7963 93.8213 18.891L93.84 18.9107L97.743 23.3194L97.7714 23.3098C97.9537 23.2483 98.1472 23.1868 98.347 23.1282L98.4676 23.0933C98.7469 23.0139 99.0187 22.946 99.2771 22.8931C99.667 22.8133 100.013 22.7701 100.308 22.7717L100.366 22.7726C101.241 22.7949 102.633 22.4167 104.245 21.7641L104.465 21.6741C105.685 21.167 106.912 20.5494 107.479 20.1743C107.662 20.0534 107.908 20.1051 108.028 20.2897C108.148 20.4743 108.096 20.7219 107.913 20.8428C107.262 21.273 105.875 21.9654 104.54 22.5057C102.865 23.1836 101.412 23.5825 100.402 23.5723L100.346 23.5713C100.108 23.5651 99.7969 23.602 99.4347 23.6762C99.197 23.7249 98.9439 23.7881 98.6824 23.8624C98.4912 23.9167 98.3045 23.9744 98.1276 24.0326L98.0228 24.0676C97.9793 24.0822 97.9385 24.0962 97.9006 24.1095L97.761 24.1593C97.6168 24.213 97.4558 24.1776 97.347 24.0703L97.3284 24.0507L93.4048 19.6187L93.3496 19.6314C92.2103 19.8898 91.0457 20.109 90.0639 20.2313L89.9422 20.2461C88.295 20.4408 87.3536 20.3726 87.0846 19.7673C86.7254 18.9643 87.817 18.1385 90.1989 16.8973L90.2715 16.8595C90.7395 16.6167 91.2503 16.364 91.8015 16.1014L92.0848 15.9673C92.656 15.6983 93.2552 15.4254 93.9005 15.1385L94.5645 14.8453L95.8407 14.2886C97.1054 13.75 100.763 12.7711 102.649 12.4958Z" fill="#2E186A"/>
<path fill-rule="evenodd" clip-rule="evenodd" d="M96.8846 16.1938C96.8846 16.1938 92.4093 19.2701 92.8714 21.0812C93.3334 22.879 94.7327 22.2797 94.7327 22.2797" fill="white"/>
<path fill-rule="evenodd" clip-rule="evenodd" d="M97.2114 15.9688C97.3346 16.1511 97.2879 16.3996 97.1072 16.5239L96.9943 16.6034L96.9403 16.6421C96.8049 16.7395 96.6537 16.8514 96.4907 16.9756C96.0252 17.3307 95.5598 17.7138 95.1267 18.1095C94.5871 18.6024 94.1376 19.0792 93.8091 19.5222C93.3547 20.135 93.1671 20.6391 93.2543 20.9809C93.3917 21.5154 93.6107 21.7971 93.8826 21.9128C94.0701 21.9927 94.2831 21.9925 94.4853 21.9405C94.505 21.9354 94.5232 21.9302 94.5396 21.925L94.5776 21.912C94.7789 21.8257 95.0114 21.9205 95.0969 22.1236C95.1824 22.3267 95.0884 22.5612 94.8871 22.6474C94.8416 22.6669 94.7715 22.6915 94.6809 22.7148C94.3257 22.8061 93.9443 22.8064 93.5746 22.649C93.0616 22.4305 92.6837 21.9446 92.4874 21.1807C92.3251 20.5446 92.5903 19.8319 93.1748 19.0436C93.5379 18.5539 94.0208 18.0418 94.595 17.5172C95.0471 17.1042 95.5301 16.7067 96.013 16.3383L96.1374 16.244C96.2188 16.1828 96.297 16.1249 96.3714 16.0705L96.5372 15.9508L96.6611 15.8636C96.8419 15.7393 97.0883 15.7864 97.2114 15.9688Z" fill="#2E186A"/>
<path fill-rule="evenodd" clip-rule="evenodd" d="M98.0461 18.0316C98.0461 18.0316 94.2969 21.1211 94.891 22.879C95.485 24.6369 96.8316 23.9311 96.8316 23.9311" fill="white"/>
<path fill-rule="evenodd" clip-rule="evenodd" d="M98.3527 17.7788C98.4857 17.9431 98.4676 18.1821 98.3154 18.3244L98.2927 18.3441L98.2178 18.4073L98.1652 18.4525C98.0581 18.545 97.9384 18.6513 97.8093 18.7696C97.4405 19.1077 97.0717 19.4731 96.7286 19.8511C96.2839 20.341 95.9168 20.8151 95.6543 21.255C95.2788 21.8843 95.1465 22.3975 95.2657 22.7501C95.4263 23.2255 95.6407 23.4883 95.8879 23.6024C96.0886 23.695 96.3156 23.6897 96.5355 23.6199L96.5762 23.6063C96.6069 23.5954 96.6296 23.5858 96.6423 23.5798L96.6488 23.5766C96.8429 23.4748 97.082 23.5511 97.1829 23.7469C97.2837 23.9426 97.2081 24.1838 97.014 24.2856C96.9613 24.3132 96.8795 24.3485 96.7731 24.3822C96.3826 24.506 95.9632 24.5159 95.5583 24.329C95.0998 24.1173 94.7431 23.6799 94.516 23.0079C94.3042 22.3813 94.4916 21.6543 94.9757 20.8429C95.2688 20.3516 95.6669 19.8376 96.1444 19.3116C96.5054 18.9138 96.891 18.5318 97.2767 18.1783L97.39 18.0753C97.4639 18.0086 97.5344 17.9462 97.6009 17.8882L97.6791 17.8206L97.7954 17.7221C97.9648 17.5826 98.2143 17.6079 98.3527 17.7788Z" fill="#2E186A"/>
<path fill-rule="evenodd" clip-rule="evenodd" d="M99.5378 20.2688C99.5378 20.2688 95.0889 24.0509 97.9404 24.8499C100.792 25.6489 101.663 24.9431 101.663 24.9431C101.663 24.9431 102.6 23.3451 99.6566 23.1187" fill="white"/>
<path fill-rule="evenodd" clip-rule="evenodd" d="M99.2826 19.9633C99.4499 19.8212 99.6997 19.8427 99.8407 20.0114C99.9816 20.1801 99.9603 20.4322 99.7931 20.5743L99.7248 20.6337L99.6901 20.6645C99.6056 20.7396 99.5112 20.8258 99.4094 20.9217C99.1184 21.1957 98.8275 21.4909 98.5569 21.7952C98.2311 22.1615 97.9581 22.5153 97.7558 22.8438L97.708 22.9228C97.1921 23.7925 97.2657 24.2462 98.0465 24.465C99.5861 24.8965 100.618 24.9159 101.235 24.7081C101.276 24.6944 101.312 24.6806 101.342 24.6672L101.357 24.6603L101.362 24.6479C101.416 24.4957 101.427 24.3436 101.378 24.2108L101.366 24.1827C101.22 23.8588 100.7 23.5996 99.6266 23.5171C99.4085 23.5003 99.2451 23.3084 99.2618 23.0884C99.2784 22.8684 99.4687 22.7036 99.6868 22.7204C101.019 22.8228 101.799 23.2117 102.087 23.8527C102.248 24.2101 102.229 24.5779 102.107 24.9193C102.071 25.0191 102.034 25.0961 102.004 25.1466C101.98 25.188 101.948 25.2246 101.911 25.2547C101.83 25.3202 101.691 25.3971 101.486 25.4661C100.706 25.7286 99.5163 25.7062 97.8345 25.2349C96.4011 24.8332 96.2757 23.733 97.083 22.4221C97.3126 22.0493 97.6129 21.6601 97.9673 21.2616C98.2549 20.9382 98.5619 20.6266 98.869 20.3376L98.9738 20.2397C99.0079 20.2082 99.041 20.1779 99.0731 20.1488L99.2213 20.0165C99.2482 19.9929 99.2688 19.9751 99.2826 19.9633Z" fill="#2E186A"/>
<path fill-rule="evenodd" clip-rule="evenodd" d="M104.105 29.6175C105.98 32.1211 118.667 30.2301 120.752 26.994C119.749 25.609 118.957 26.3947 118.508 25.5824C117.452 23.6248 117.03 22.7592 117.03 22.7592C114.825 24.6502 111.366 24.9831 108.792 24.9299C107.261 24.9165 105.993 24.7567 105.399 24.6768C105.386 24.8766 105.333 25.6756 105.28 27.5267C105.267 28.6054 104.673 29.0848 104.105 29.6175Z" fill="#2E186A"/>
<path fill-rule="evenodd" clip-rule="evenodd" d="M173.373 72.6053H122.046C121.373 72.6053 120.792 73.0714 120.634 73.7373L113.492 104.207H94.8913C94.8913 104.207 93.8616 109.574 99.8682 109.574H165.4C166.073 109.574 166.654 109.108 166.812 108.442L174.786 74.4032C174.997 73.4843 174.31 72.6053 173.373 72.6053Z" fill="#6A6AF4"/>
<path fill-rule="evenodd" clip-rule="evenodd" d="M169.136 85.6828C165.888 85.6828 163.34 82.8862 163.604 79.6235C163.802 77.2131 163.829 75.7215 164.079 74.6029C164.423 73.0581 167.367 70.9407 170.812 68.3838C172.621 67.0521 173.875 65.8002 174.574 64.6416C175.274 63.483 175.631 62.0581 175.631 60.3535C175.631 58.2494 174.971 56.5847 173.637 55.3729C172.317 54.161 170.707 53.5617 168.819 53.5617C165.07 53.5617 162.561 55.5593 161.268 59.5678C160.409 62.2312 157.756 63.8559 155.01 63.4697C151.353 62.9504 149.175 59.115 150.535 55.6525C151.763 52.523 153.518 49.9661 155.802 47.9685C159.591 44.6659 164.238 43.0145 169.703 43.0145C175.287 43.0145 179.974 44.6392 183.749 47.8753C187.525 51.1247 189.426 55.2397 189.426 60.2203C189.426 66.3995 186.284 71.5666 179.987 75.7215C177.254 77.546 175.591 78.9709 175.01 79.9964C174.812 80.3426 174.654 80.7821 174.522 81.3281C173.941 83.8717 171.723 85.6828 169.136 85.6828ZM169.888 102.369H169.386C165.862 102.369 162.997 99.4794 162.997 95.9237C162.997 92.368 165.862 89.4782 169.386 89.4782H169.888C173.413 89.4782 176.277 92.368 176.277 95.9237C176.277 99.4927 173.426 102.369 169.888 102.369Z" fill="#FF8D7E"/>
<path fill-rule="evenodd" clip-rule="evenodd" d="M38.7595 31.1489C38.0334 31.4685 37.2018 31.0957 36.9509 30.3366C36.7661 29.7772 36.6341 29.4443 36.5813 29.178C36.5153 28.8051 36.9641 28.046 37.479 27.1404C37.7562 26.6743 37.9146 26.2748 37.9542 25.9419C38.007 25.6223 37.941 25.2627 37.7826 24.8898C37.5846 24.4237 37.281 24.1174 36.8717 23.9843C36.4625 23.8378 36.0532 23.8644 35.6308 24.0509C34.7991 24.4104 34.4295 25.1029 34.5219 26.115C34.5879 26.7942 34.1523 27.4068 33.5054 27.5932C32.6473 27.8329 31.7892 27.1937 31.7628 26.2881C31.7364 25.4758 31.8816 24.73 32.1985 24.0642C32.7265 22.9588 33.5978 22.1465 34.8123 21.6138C36.0532 21.0678 37.2414 20.9746 38.4031 21.3341C39.5516 21.6937 40.3701 22.4128 40.8453 23.5182C41.4394 24.8898 41.2282 26.3414 40.2249 27.8729C39.7892 28.5387 39.5648 29.0182 39.5252 29.2978C39.512 29.391 39.5252 29.5109 39.5384 29.6441C39.6572 30.2833 39.3404 30.8959 38.7595 31.1489ZM40.5153 34.7845L40.3965 34.8378C39.6176 35.184 38.7067 34.8111 38.3635 34.0254C38.0202 33.2397 38.3899 32.3208 39.1688 31.9746L39.2876 31.9213C40.0664 31.5751 40.9773 31.948 41.3206 32.7337C41.6638 33.5194 41.3074 34.4383 40.5153 34.7845Z" fill="#FF8D7E"/>
<path fill-rule="evenodd" clip-rule="evenodd" d="M45.7829 14.1029C44.7136 14.0497 43.9215 13.0775 44.0667 12.0121C44.1723 11.2264 44.2119 10.7337 44.3175 10.3608C44.4627 9.85474 45.466 9.21552 46.6541 8.4298C47.2746 8.01697 47.7103 7.63077 47.9611 7.27121C48.2119 6.89833 48.3571 6.44554 48.3835 5.8729C48.4231 5.18041 48.2383 4.62109 47.8159 4.19494C47.4066 3.76879 46.8786 3.54239 46.2581 3.50244C45.0172 3.43586 44.1591 4.04845 43.6574 5.34021C43.3274 6.20583 42.4165 6.68525 41.5188 6.51213C40.3307 6.27242 39.6707 4.96733 40.1855 3.84869C40.6475 2.83658 41.268 2.02423 42.0601 1.41164C43.367 0.399537 44.9248 -0.0665649 46.7334 0.0399727C48.5683 0.14651 50.0865 0.759101 51.2746 1.90438C52.4627 3.04966 53.0172 4.43465 52.9248 6.07266C52.8192 8.11019 51.6839 9.74821 49.532 11.0133C48.5947 11.5593 48.0271 11.9988 47.8159 12.3317C47.7499 12.4383 47.6839 12.5848 47.631 12.7579C47.4066 13.5969 46.6409 14.1429 45.7829 14.1029ZM45.7301 19.6162L45.5584 19.6029C44.3967 19.5363 43.499 18.5375 43.565 17.3656C43.631 16.1937 44.6211 15.2882 45.7829 15.3547L45.9545 15.3681C47.1162 15.4346 48.0139 16.4334 47.9479 17.6053C47.8951 18.7773 46.8918 19.6828 45.7301 19.6162Z" fill="#FF8D7E"/>
</svg>
