<svg xmlns="http://www.w3.org/2000/svg" width="200" height="110" fill="none" viewBox="0 0 200 110"><path fill="#6a6af4" fill-rule="evenodd" d="M85.492 109.933H19.248V62.631c0-10.228 8.224-18.524 18.363-18.524h47.881z" clip-rule="evenodd"/><path fill="#fff" fill-rule="evenodd" d="M90.786 109.627s-.924-34.638-.74-42.601c.198-9.07-5.346-17.859-7.287-19.47-1.703-1.412-14.39-.213-17.491.106.924 3.077 2.917 7.445 7.05 13.304a29 29 0 0 1 2.31 3.143c3.432 5.42 6.02 13.45 5.636 25.316 1.307 12.891.225 20.042.225 20.042z" clip-rule="evenodd"/><path fill="#ff8d7e" fill-rule="evenodd" d="m129.558 55.613-8.277-27.633c-1.215-2.69-2.311-1.532-2.773-2.371-1.056-1.958-1.478-2.823-1.478-2.823-3.881 3.316-11.617 1.864-11.617 1.864s-.066.72-.119 2.903c-.053 2.184-2.469 1.865-2.192 4.768l3.631 19.616-10.086-2.17c-1.426-7.871-8.106-21.055-32.515-14.463-14.125 5.047-14.72 12.97-10.772 19.776-1.861.293-6.39 2.863-15.947 16.487-13.77 19.603-13.11 37.9 13.663 38.366 4.502.08 52.634-.066 52.634-.066l-1.492-29.737c31.551 2.996 30.653-10.588 27.34-24.517M80.462 109.44s1.083-7.152-.224-20.043c.092-3.076 0-5.886-.264-8.456 0-.027 0-.053-.014-.093l-.079-.72c0-.04-.013-.093-.013-.133l-.08-.665c-.012-.054-.012-.107-.025-.16-.027-.213-.067-.426-.093-.64-.013-.066-.013-.12-.026-.186-.027-.2-.066-.413-.093-.612-.013-.067-.026-.12-.026-.187-.04-.2-.066-.4-.106-.586-.013-.066-.026-.133-.04-.186a9 9 0 0 1-.105-.573 918.862 918.862 0 0 0-.159-.746l-.039-.186c-.04-.187-.08-.373-.132-.546-.013-.067-.026-.12-.04-.187-.04-.186-.092-.36-.132-.532-.013-.054-.026-.12-.04-.173-.052-.174-.092-.36-.144-.533l-.04-.16c-.053-.173-.106-.346-.145-.52a2 2 0 0 0-.04-.146l-.158-.52a7.94 7.94 0 0 0-.211-.653l-.04-.119c-.066-.173-.119-.346-.185-.519-.013-.04-.026-.067-.04-.093-.066-.173-.132-.36-.198-.533-.013-.026-.013-.053-.026-.066a9 9 0 0 0-.211-.546c0-.014-.013-.027-.013-.04a32.3 32.3 0 0 0-2.654-5.247c-.092-.133-.171-.28-.264-.413 0-.014-.013-.027-.013-.027-.08-.12-.172-.253-.25-.373-.014-.013-.027-.04-.04-.053-.08-.12-.159-.24-.251-.36-.013-.026-.027-.04-.04-.066-.08-.12-.172-.24-.25-.346a.2.2 0 0 1-.04-.054c-.093-.12-.172-.24-.264-.346 0-.013-.014-.013-.014-.026-.29-.373-.58-.746-.87-1.093-4.133-5.872-6.113-10.24-7.05-13.303 3.102-.32 15.788-1.505 17.491-.107.806.666 2.218 2.544 3.578 5.167.066.12.119.227.185.346v.014c.237.48.475.972.713 1.491v.013c.052.12.105.24.158.373.013.014.013.027.026.054.053.12.093.226.146.346.013.013.013.04.026.053.053.12.106.24.159.373 0 .013.013.013.013.027.105.266.224.546.33.825v.014c.053.133.092.266.145.4.013.026.013.053.026.08.04.106.08.212.12.332.012.04.026.067.039.107.04.106.079.213.105.32.014.04.027.066.04.106l.119.36c.013.026.013.04.026.066.093.293.172.572.264.865.013.027.013.067.027.094.026.106.066.226.092.333.013.04.026.093.04.133.026.106.052.2.079.306.013.053.026.093.04.147.026.106.052.2.079.306.013.04.026.093.04.133.026.12.052.24.079.346.013.027.013.067.026.094.026.146.066.306.092.452 0 .027.013.04.013.067.027.12.053.253.067.373.013.053.013.093.026.146.013.107.04.2.053.307.013.053.013.106.026.16.013.093.026.2.04.292.013.054.013.107.026.173l.04.307c.013.053.013.106.026.16.013.12.026.253.04.372 0 .027 0 .054.013.08l.04.467c0 .04.013.08.013.133.013.106.013.226.026.333 0 .053.013.106.013.173 0 .093.013.2.013.293 0 .053 0 .12.014.173 0 .093.013.2.013.293v8.257c0 .346.013.692.013 1.038v1.305c0 .187 0 .373.013.573v.026c0 .174 0 .36.014.533v.12c0 .186 0 .373.013.56v.106c0 .16 0 .333.013.493v.12c0 .2 0 .386.013.585v.094c0 .173 0 .36.013.532v.107c0 .2 0 .386.014.586v.12c0 .186 0 .373.013.56v.066c0 .2.013.413.013.612v.12c0 .173 0 .36.013.533v.093c0 .213.013.426.013.626v.08c.225 12.145.594 25.835.594 25.835z" clip-rule="evenodd"/><path fill="#2e186a" fill-rule="evenodd" d="M101.359 50.765c-1.597-.666-3.34-.892-4.726-1.118.304 1.65.383 3.09.344 4.061-.304 7.018-3.406 9.735-4.053 12.319 8.369-3.117 9.016-11.347 8.435-15.262M53.268 54.894c-2.165.958-5.149 2.277-7.67 6.152 3.538-1.465 15.696 9.509 24.317 7.018-4-.413-12.713-6.219-16.647-13.17M72.471 68.197a.526.526 0 0 1 .693.225l.027.056.108.23.097.213c.16.35.338.747.528 1.183l.048.11a84 84 0 0 1 1.745 4.343 60 60 0 0 1 1.48 4.517c.521 1.858.867 3.538 1.006 5a.53.53 0 0 1-.476.58.53.53 0 0 1-.576-.478c-.132-1.391-.465-3.01-.97-4.812a59 59 0 0 0-1.454-4.436 83 83 0 0 0-1.723-4.287l-.14-.32a69 69 0 0 0-.427-.954l-.138-.3-.075-.16a.535.535 0 0 1 .247-.71M92.018 66.427a.53.53 0 0 1 .497.537l-.013.26q-.014.289-.026.668c-.098 2.902-.035 6.15.308 9.21.2 1.792.489 3.4.873 4.774a.527.527 0 1 1-1.016.29c-.402-1.437-.7-3.1-.907-4.944-.34-3.037-.41-6.238-.322-9.126l.014-.407.018-.449.016-.313a.53.53 0 0 1 .532-.5zM106.47 51.638a.394.394 0 0 1 .56.007 1 1 0 0 1 .203.368l.02.059c.039.122.079.273.125.472l.056.253.18.842c.199.917.381 1.62.617 2.314.867 2.55 2.173 3.954 4.199 3.921a.397.397 0 0 1 .402.393.4.4 0 0 1-.389.406c-2.451.04-3.996-1.621-4.961-4.46a21 21 0 0 1-.616-2.286l-.225-1.05-.033-.144a5 5 0 0 0-.122-.455l-.029-.074-.006-.013q-.005-.008.012.012a.4.4 0 0 1 .007-.565" clip-rule="evenodd"/><path fill="#fff" fill-rule="evenodd" d="m98.879 85.71-9.664 1.997-.594-9.855" clip-rule="evenodd"/><path fill="#2e186a" fill-rule="evenodd" d="M88.598 77.454a.397.397 0 0 1 .417.35l.002.024.566 9.395 9.217-1.905a.396.396 0 0 1 .462.288l.005.023a.4.4 0 0 1-.286.466l-.022.006-9.664 1.998a.396.396 0 0 1-.472-.344l-.003-.024-.594-9.854a.4.4 0 0 1 .372-.423" clip-rule="evenodd"/><path fill="#fff" fill-rule="evenodd" d="M95.671 84.87c-.132 1.359-.924 4.222.106 6.113.501.919.752 2.783.752 2.783l6.086 1.545c.515 1.998 1.65 5.846 2.508 5.793 1.215-.08.568-7.75.396-10.108-.079-1.212-.924-5.087-1.61-7.058-.898-2.57-4.977-10.4-13.294-7.537l-6.007 1.478" clip-rule="evenodd"/><path fill="#2e186a" fill-rule="evenodd" d="M90.602 75.984c3.813-1.275 7.064-.487 9.703 1.848 1.864 1.65 3.28 3.978 3.977 5.974l.044.128c.649 1.922 1.484 5.65 1.585 6.989l.085 1.153c.023.312.043.595.062.883l.024.365c.055.844.096 1.626.123 2.371l.009.24c.046 1.424.035 2.603-.049 3.495l-.012.121c-.127 1.237-.384 1.911-1.006 1.952-.667.041-1.173-.787-1.777-2.384-.356-.942-.713-2.106-1.027-3.283l-.052-.195-5.859-1.487a.4.4 0 0 1-.291-.309l-.005-.025-.02-.133-.017-.114-.043-.248a13 13 0 0 0-.24-1.096 5.3 5.3 0 0 0-.364-1.01l-.023-.043c-.407-.749-.578-1.654-.57-2.722.006-.663.073-1.314.206-2.187l.133-.842.03-.202c.022-.155.038-.28.049-.391a.397.397 0 0 1 .432-.36.4.4 0 0 1 .356.438l-.008.075q-.016.153-.045.35l-.047.312-.102.642-.03.193c-.117.79-.177 1.385-.181 1.978-.007.914.13 1.67.44 2.273l.031.057c.173.317.323.733.457 1.23a14 14 0 0 1 .29 1.362l.01.062 5.831 1.48a.4.4 0 0 1 .28.262l.007.025c.333 1.292.725 2.6 1.112 3.624l.059.153c.215.553.42.995.609 1.305q.144.233.259.345l.026.025.019.016.01-.015q.033-.056.069-.148l.011-.032c.089-.252.158-.634.205-1.13.084-.899.092-2.13.037-3.63l-.013-.318a87 87 0 0 0-.109-2.03l-.024-.363-.045-.65-.106-1.427c-.113-1.335-.957-5.07-1.582-6.865-.655-1.875-2.001-4.089-3.752-5.639-2.46-2.176-5.457-2.887-9.04-1.653l-.017.005-.017.005-6.007 1.478a.4.4 0 0 1-.21-.77l.022-.006 5.99-1.474z" clip-rule="evenodd"/><path fill="#fff" fill-rule="evenodd" d="M103.723 90.863s-.647 5.567-2.495 5.993-1.954-1.145-1.954-1.145" clip-rule="evenodd"/><path fill="#2e186a" fill-rule="evenodd" d="M103.77 90.466c.209.025.361.21.349.42l-.003.033-.008.063-.026.196-.023.161q-.037.25-.086.533a21 21 0 0 1-.471 2.11l-.042.147c-.52 1.766-1.189 2.896-2.143 3.117-1.055.243-1.789-.06-2.18-.72a1.9 1.9 0 0 1-.257-.788.4.4 0 0 1 .368-.426c.21-.014.394.14.42.348l.002.024a1.13 1.13 0 0 0 .146.431c.213.36.6.519 1.325.352.581-.135 1.153-1.134 1.6-2.705.182-.643.333-1.335.452-2.027l.03-.178q.036-.22.064-.414l.022-.157.021-.17a.4.4 0 0 1 .44-.35" clip-rule="evenodd"/><path fill="#fff" fill-rule="evenodd" d="M101.506 90.664s-.99 4.9-2.865 5.193c-1.874.293-1.874-1.278-1.874-1.278" clip-rule="evenodd"/><path fill="#2e186a" fill-rule="evenodd" d="M101.585 90.272a.4.4 0 0 1 .308.471l-.013.064-.038.17q-.063.275-.149.604a17 17 0 0 1-.594 1.833l-.056.141c-.632 1.557-1.38 2.547-2.342 2.697-1.04.163-1.744-.167-2.102-.823a1.9 1.9 0 0 1-.229-.85c0-.22.177-.4.396-.4.211 0 .383.167.395.376l.002.04q.001.037.015.117.03.174.115.332c.193.355.569.53 1.287.418.607-.094 1.238-.957 1.783-2.342.217-.554.406-1.15.564-1.746l.041-.154q.048-.189.087-.357l.031-.135.031-.144a.397.397 0 0 1 .468-.312" clip-rule="evenodd"/><path fill="#fff" fill-rule="evenodd" d="M98.773 90.37s-1.294 5.873-3.367 3.65-1.86-3.37-1.86-3.37 1.002-1.611 2.6.959" clip-rule="evenodd"/><path fill="#2e186a" fill-rule="evenodd" d="M93.514 90.096c.828-.706 1.904-.41 2.968 1.3a.4.4 0 0 1-.126.552.394.394 0 0 1-.546-.127c-.476-.767-.899-1.152-1.246-1.248-.207-.056-.38-.003-.54.133a1 1 0 0 0-.077.074l-.01.012v.015q.003.037.01.083l.004.033c.026.16.08.352.172.573.26.631.763 1.382 1.572 2.25.418.448.716.476 1.055.197.346-.284.693-.866 1.008-1.647.178-.44.334-.913.467-1.386l.039-.14.068-.257.03-.128.024-.101a.396.396 0 0 1 .778.15l-.006.03-.025.108-.018.073-.032.13a16 16 0 0 1-.59 1.822c-.363.896-.768 1.576-1.243 1.966-.669.549-1.435.477-2.132-.27-.87-.935-1.427-1.765-1.727-2.49-.199-.482-.264-.862-.246-1.134l.003-.031.008-.06a.4.4 0 0 1 .054-.14 1.5 1.5 0 0 1 .304-.343" clip-rule="evenodd"/><path fill="#ff8d7e" fill-rule="evenodd" d="M59.671 79.024c6.43-1.291 19.274-4.022 20.33-3.968 2.93.12 6.191.692 7.142.799 2.205.253 3.155.32 3.155.32-1.57 4.873 2.693 11.559 2.693 11.559s-.633.333-2.614 1.212-.897 4.754-3.67 5.58c-1.109.332-22.363 11.452-27.854 12.584" clip-rule="evenodd"/><path fill="#2e186a" fill-rule="evenodd" d="M88.912 90.837c-4.674-3.822-6.245-13.437-4.278-15.542.08-.665 1.598.453 2.509.56 2.204.253 3.155.32 3.155.32-.898 2.77.105 6.125 1.122 8.51a26 26 0 0 0 1.518 3.062c-.172.093-.884.44-2.574 1.185-.964.44-1.162 1.172-1.452 1.905M51.862 76.009c1.416-.477 3.296-.757 4.948-.605 2.29.21 4.014 1.2 4.847 3.128a.4.4 0 0 1-.205.526.395.395 0 0 1-.521-.207c-.702-1.625-2.165-2.466-4.193-2.652-1.534-.14-3.307.124-4.626.567a.395.395 0 0 1-.5-.252.4.4 0 0 1 .25-.505" clip-rule="evenodd"/><path fill="#2e186a" fill-rule="evenodd" d="M69.006 76.59c10.224-2.037 16.364-2.616 17.398-1.035l.021.037.01.02 4.858 10.973a.4.4 0 0 1-.003.333l-.015.028-.087.161-.063.12a40 40 0 0 0-1.224 2.523c-.381.882-.624 1.593-.684 2.042l-.005.037c-.203 1.754-.844 2.459-3.965 4.096l-2.184 1.143-.714.372c-.825.428-1.63.84-2.472 1.267a204 204 0 0 1-8.95 4.269c-3.283 1.464-6.447 2.752-9.453 3.827-4.159 1.487-7.91 2.527-11.167 3.046a.4.4 0 0 1-.123-.79c3.203-.51 6.909-1.537 11.025-3.009 2.986-1.068 6.132-2.349 9.399-3.805a203 203 0 0 0 8.914-4.253c.84-.424 1.642-.836 2.465-1.263l2.974-1.555c2.778-1.46 3.28-1.993 3.454-3.351l.01-.087c.064-.547.328-1.33.75-2.306q.156-.36.336-.744c.235-.504.486-1.01.737-1.496l.11-.21.132-.25-4.763-10.757-.007-.01c-.395-.493-2.282-.646-5.296-.375l-.187.017c-2.858.269-6.625.882-11.077 1.77-1.526.304-3.113.636-4.747.993a366 366 0 0 0-8.177 1.888l-.821.2c-.803.196-1.544.38-2.212.549l-.45.113-.667.17a.4.4 0 0 1-.22-.767l.03-.008.981-.25.828-.208q.79-.196 1.685-.415l.163-.04a368 368 0 0 1 8.693-2.013c1.638-.358 3.23-.691 4.76-.996" clip-rule="evenodd"/><path fill="#fff" fill-rule="evenodd" d="m85.98 48.275-14.429.652-1.148-5.753-4.476-5.033s-.198 5.753-.343 10.493c.766 2.211 2.535 5.26 4.634 8.67 3.326 1.771 7.472 3.995 13.03 7.87 1.478-2.463 2.824-11.253 2.732-16.9" clip-rule="evenodd"/><path fill="#2e186a" fill-rule="evenodd" d="m65.532 38.127-.077 2.273c-.035 1.033-.07 2.077-.103 3.11l-.121 3.757-.042 1.355a.4.4 0 0 0 .022.144l.042.12c.704 1.975 2.109 4.536 4.629 8.629.037.06.09.11.151.142l.71.379c4.819 2.582 7.917 4.425 12.28 7.467.187.13.446.075.564-.122 1.493-2.488 2.885-11.257 2.79-17.113l-.001-.023a.397.397 0 0 0-.413-.37l-14.09.638-1.082-5.417a.4.4 0 0 0-.093-.188l-4.475-5.034a.395.395 0 0 0-.691.253m.758 1.019 3.746 4.214 1.127 5.646.005.023c.048.181.214.306.401.297l14.02-.634v.112c.007 5.414-1.191 13.067-2.47 15.768l-.01.02-.107-.074c-4.198-2.904-7.29-4.728-12.053-7.276l-.451-.24-.307-.502c-2.238-3.661-3.52-6.024-4.172-7.825l-.036-.103.094-2.99.083-2.563z" clip-rule="evenodd"/><path fill="#fff" fill-rule="evenodd" d="M64.383 31.442s-5.07.093-4.172 4.674c.91 4.581 6.522 1.931 6.522 1.931l-.753-6.512z" clip-rule="evenodd"/><path fill="#2e186a" fill-rule="evenodd" d="M64.406 31.043h-.03l-.054.001a6 6 0 0 0-.668.072 6.4 6.4 0 0 0-1.567.444c-1.791.78-2.723 2.295-2.264 4.634.407 2.05 1.723 2.99 3.582 3.015.783.01 1.61-.14 2.434-.399q.364-.114.676-.238l.087-.034q.212-.087.299-.129a.4.4 0 0 0 .225-.408l-.752-6.512a.4.4 0 0 0-.37-.352zm-.028.799 1.248.073.68 5.882.002-.001a9 9 0 0 1-.704.251c-.75.235-1.5.372-2.189.363-1.507-.02-2.487-.72-2.815-2.372-.381-1.944.333-3.106 1.8-3.744a5.7 5.7 0 0 1 1.376-.39q.247-.038.454-.053l.091-.006z" clip-rule="evenodd"/><path fill="#fff" fill-rule="evenodd" d="M78.838 17.006c1.334-.106 10.495-.692 11.499 7.018 1.003 7.71-.08 16.22-.925 20.11-.845 3.888-18.389 2.09-19.38 1.744s-2.177-1.518-2.177-1.518l-2.403-11.84c0-.013-.99-14.315 13.386-15.514" clip-rule="evenodd"/><path fill="#2e186a" fill-rule="evenodd" d="m65.053 32.475.004.046q0 .04.007.08l2.403 11.839a.4.4 0 0 0 .111.205l.079.076.077.072.13.118c.22.196.457.392.702.576.292.219.577.406.85.551q.253.135.488.217c.794.278 5.885.723 9.756.738h.117c5.899.009 9.586-.764 10.023-2.774l.05-.231c.474-2.259.893-5.312 1.113-8.448.284-4.05.23-8.005-.233-11.568-.466-3.578-2.623-5.75-5.902-6.77-1.185-.37-2.455-.566-3.753-.628-.87-.041-1.598-.02-2.268.034-6.202.517-10.133 3.43-12.2 7.948-.72 1.57-1.167 3.246-1.395 4.943a17.5 17.5 0 0 0-.165 2.809l.002.074zm15.985-15.103c1.236.06 2.441.246 3.557.593 3.004.936 4.928 2.873 5.35 6.111.455 3.505.508 7.408.228 11.408-.225 3.206-.66 6.323-1.147 8.564-.308 1.416-3.826 2.154-9.248 2.146h-.23c-3.771-.023-8.707-.457-9.385-.694a3 3 0 0 1-.377-.169 6 6 0 0 1-.748-.485 10 10 0 0 1-.649-.533l-.082-.075-.089-.082-2.372-11.69-.005-.114c-.026-.716.01-1.658.156-2.746.218-1.623.645-3.222 1.328-4.715 1.951-4.263 5.637-6.994 11.546-7.487a17 17 0 0 1 2.167-.032" clip-rule="evenodd"/><path fill="#968bb4" fill-rule="evenodd" d="M67.115 32.414c.845.852 3.116 5.753 3.67 8.03 0 0 5.624-1.917 13.69-2.037 0 0 4.396.093 6.152.612 0 0-.383 8.084-3.947 12.279-3.565 4.181-11.09 3.01-14.627.493s-4.12-3.716-4.938-6.42-2.983-12.744-2.983-12.744z" clip-rule="evenodd"/><path fill="#fff" fill-rule="evenodd" d="M81.954 45.398s2.152-.44 3.036.44z" clip-rule="evenodd"/><path fill="#2e186a" fill-rule="evenodd" d="M82.254 44.947a6.3 6.3 0 0 1 1.445-.03c.657.07 1.196.266 1.569.636a.4.4 0 0 1 .004.565.394.394 0 0 1-.56.004c-.222-.22-.6-.358-1.095-.41a5.6 5.6 0 0 0-1.46.056l-.107.018-.018.004a.4.4 0 0 1-.157-.783l.086-.016q.114-.021.293-.044M64.819 34.145s-2.39-3.729-3.3-7.59c-.872-3.636.804-7.445 4.144-9.083 2.799-1.358 4.872-.293 4.872-.293s-2.97-5.087 1.478-9.588a8.07 8.07 0 0 1 5.954-2.397c5.426.16 7.115 4.794 7.115 4.794s5.81-10.774 17.73-4.395c1.201.64 2.561 2.437 3.208 3.65 3.934 7.324-9.043 15.993-15.789 16.672-7.42.76-11.762-.492-14.152-2.317 1.77 1.066-.224 12.265-11.26 10.547M84.656 34.894c.21-.024.399.121.434.328l.004.024.792 7.058c.03.27-.21.49-.47.437l-.023-.005-2.455-.64a.4.4 0 0 1 .175-.779l.023.006 1.898.494-.727-6.481a.4.4 0 0 1 .325-.44zM87.274 37.208c.394 0 .713-.5.713-1.118s-.319-1.119-.713-1.119-.713.5-.713 1.119c0 .617.32 1.118.713 1.118M80.383 37.075c.394 0 .713-.5.713-1.119 0-.617-.32-1.118-.713-1.118-.394 0-.713.5-.713 1.118s.32 1.12.713 1.12" clip-rule="evenodd"/><path fill="#2e186a" fill-rule="evenodd" d="M77.7 29.162a3.58 3.58 0 0 1 2.742-.672.4.4 0 0 1 .333.454.396.396 0 0 1-.45.336 2.8 2.8 0 0 0-2.156.526 3 3 0 0 0-.432.388l-.039.044q-.053.061-.079.095l-.013.02a.394.394 0 0 1-.552.098.4.4 0 0 1-.098-.556c.037-.054.103-.138.198-.242.154-.168.336-.335.547-.491M87.095 28.345c.407-.065.839-.067 1.256.037.703.176 1.232.63 1.467 1.397a.395.395 0 1 1-.757.236c-.148-.483-.453-.746-.9-.857a2.4 2.4 0 0 0-.944-.024l-.049.008-.09.018-.02.005a.4.4 0 0 1-.2-.773q.076-.02.237-.047" clip-rule="evenodd"/><path fill="#fff" fill-rule="evenodd" d="m104.555 19.803 2.231 9.055 9.795-2.93" clip-rule="evenodd"/><path fill="#2e186a" fill-rule="evenodd" d="M104.459 19.415a.394.394 0 0 1 .473.269l.007.022 2.131 8.65 9.398-2.81c.202-.06.415.05.485.247l.007.022a.4.4 0 0 1-.245.49l-.022.007-9.795 2.93a.396.396 0 0 1-.491-.265l-.006-.022-2.231-9.056a.4.4 0 0 1 .289-.484" clip-rule="evenodd"/><path fill="#fff" fill-rule="evenodd" d="M107.697 20.509c-1.109.732-5.255 2.716-7.34 2.663-1.017-.027-2.733.613-2.733.613l-4.08-4.608c-1.94.453-5.755 1.198-6.098.426-.489-1.092 6.376-3.995 8.475-4.914 1.07-.48 4.779-1.505 6.785-1.798 2.601-.386 12.093-.626 13.4 7.91l1.399 5.274-9.32 2.783" clip-rule="evenodd"/><path fill="#2e186a" fill-rule="evenodd" d="M102.649 12.496c2.11-.314 4.94-.188 7.367.625 3.493 1.17 5.826 3.6 6.462 7.5l.015.097 1.395 5.254a.4.4 0 0 1-.248.479l-.023.007-9.32 2.784a.4.4 0 0 1-.247-.759l.022-.008 8.951-2.673-1.3-4.897-.005-.021-.004-.021c-.559-3.654-2.685-5.89-5.948-6.983-2.259-.757-4.916-.886-6.904-.608l-.099.014c-1.841.27-5.49 1.249-6.647 1.753l-1.32.576-.415.183-.32.142c-.686.306-1.318.597-1.921.884q-.817.389-1.506.746l-.173.09c-.88.463-1.57.875-2.038 1.225-.26.193-.442.362-.542.496l-.025.036-.015.024.023.01c.097.036.245.063.435.076.382.028.91.001 1.551-.075 1.053-.124 2.356-.373 3.605-.664.132-.031.27.008.366.103l.019.02 3.903 4.408.028-.01q.275-.091.576-.18l.12-.036q.421-.12.81-.2c.39-.08.736-.123 1.031-.121h.058c.875.023 2.267-.355 3.879-1.008l.22-.09c1.22-.507 2.447-1.125 3.014-1.5a.395.395 0 0 1 .549.116.4.4 0 0 1-.115.553c-.651.43-2.038 1.122-3.373 1.663-1.675.678-3.128 1.076-4.138 1.066h-.056c-.238-.007-.55.03-.911.104q-.359.074-.753.186-.287.083-.554.17l-.105.036-.122.041-.14.05a.39.39 0 0 1-.414-.089l-.019-.02-3.923-4.431-.055.012c-1.14.259-2.304.478-3.286.6l-.122.015c-1.647.195-2.588.127-2.857-.479-.36-.803.732-1.628 3.114-2.87l.073-.037a51 51 0 0 1 1.53-.759l.283-.134c.571-.269 1.17-.542 1.816-.828l.663-.294 1.277-.556c1.264-.539 4.922-1.518 6.808-1.793" clip-rule="evenodd"/><path fill="#fff" fill-rule="evenodd" d="M96.885 16.194s-4.476 3.076-4.014 4.887c.462 1.798 1.862 1.199 1.862 1.199" clip-rule="evenodd"/><path fill="#2e186a" fill-rule="evenodd" d="M97.211 15.969a.4.4 0 0 1-.104.555l-.113.08-.054.038q-.203.148-.45.334c-.465.355-.93.738-1.363 1.134-.54.492-.99.97-1.318 1.412-.454.613-.642 1.117-.555 1.459.138.534.357.816.629.932a.94.94 0 0 0 .657.012l.038-.013a.395.395 0 0 1 .519.212.4.4 0 0 1-.21.523q-.069.032-.206.068a1.7 1.7 0 0 1-1.106-.066c-.513-.219-.891-.704-1.088-1.468-.162-.636.103-1.35.688-2.137.363-.49.846-1.002 1.42-1.527.452-.413.935-.81 1.418-1.179l.124-.094.234-.174.166-.12.124-.086a.394.394 0 0 1 .55.105" clip-rule="evenodd"/><path fill="#fff" fill-rule="evenodd" d="M98.046 18.032s-3.75 3.09-3.155 4.847c.594 1.758 1.94 1.052 1.94 1.052" clip-rule="evenodd"/><path fill="#2e186a" fill-rule="evenodd" d="M98.353 17.779a.4.4 0 0 1-.038.545l-.022.02-.075.063-.053.046a16.807 16.807 0 0 0-1.437 1.399c-.444.489-.811.963-1.074 1.403-.375.63-.507 1.143-.388 1.495.16.476.375.738.622.852a.9.9 0 0 0 .647.018l.041-.014q.047-.016.066-.026l.007-.003a.394.394 0 0 1 .534.17c.1.196.025.437-.169.539a1.5 1.5 0 0 1-.24.096c-.391.124-.81.134-1.216-.053-.458-.212-.815-.65-1.042-1.321-.212-.627-.024-1.354.46-2.165.293-.491.69-1.005 1.168-1.531.361-.398.747-.78 1.133-1.134l.113-.103.21-.187.08-.067.115-.099a.394.394 0 0 1 .558.057" clip-rule="evenodd"/><path fill="#fff" fill-rule="evenodd" d="M99.538 20.269s-4.45 3.782-1.598 4.58c2.852.8 3.723.094 3.723.094s.937-1.598-2.006-1.824" clip-rule="evenodd"/><path fill="#2e186a" fill-rule="evenodd" d="M99.283 19.963a.394.394 0 0 1 .558.048c.14.17.12.421-.048.563l-.068.06-.035.03q-.127.114-.28.258c-.292.274-.582.569-.853.873-.326.366-.599.72-.801 1.049l-.048.079c-.516.87-.442 1.323.338 1.542 1.54.431 2.572.45 3.189.243q.062-.02.107-.04l.015-.008.005-.012a.64.64 0 0 0 .016-.437l-.012-.028c-.146-.324-.666-.583-1.74-.666a.4.4 0 0 1-.364-.429.397.397 0 0 1 .425-.368c1.332.103 2.112.492 2.4 1.133.161.357.142.725.02 1.066a1.4 1.4 0 0 1-.103.228.4.4 0 0 1-.093.108c-.081.065-.22.142-.425.211-.78.263-1.97.24-3.651-.231-1.434-.402-1.56-1.502-.752-2.813.23-.373.53-.762.884-1.16.288-.324.595-.635.902-.924l.105-.098.1-.091.147-.133zM104.105 29.618c1.875 2.503 14.562.612 16.647-2.624-1.003-1.385-1.795-.6-2.244-1.412-1.056-1.957-1.478-2.823-1.478-2.823-2.205 1.891-5.664 2.224-8.238 2.17a27 27 0 0 1-3.393-.252c-.013.2-.066.999-.119 2.85-.013 1.078-.607 1.558-1.175 2.09" clip-rule="evenodd"/><path fill="#6a6af4" fill-rule="evenodd" d="M173.373 72.605h-51.327c-.673 0-1.254.466-1.412 1.132l-7.142 30.47h-18.6s-1.03 5.367 4.976 5.367H165.4c.673 0 1.254-.466 1.412-1.132l7.974-34.039c.211-.919-.476-1.798-1.413-1.798" clip-rule="evenodd"/><path fill="#ff8d7e" fill-rule="evenodd" d="M169.136 85.683c-3.248 0-5.796-2.797-5.532-6.06.198-2.41.225-3.901.475-5.02.344-1.545 3.288-3.662 6.733-6.22 1.809-1.33 3.063-2.583 3.762-3.741.7-1.159 1.057-2.584 1.057-4.288 0-2.105-.66-3.77-1.994-4.981-1.32-1.212-2.93-1.811-4.818-1.811-3.749 0-6.258 1.997-7.551 6.006-.859 2.663-3.512 4.288-6.258 3.902-3.657-.52-5.835-4.355-4.475-7.817 1.228-3.13 2.983-5.687 5.267-7.684 3.789-3.303 8.436-4.955 13.901-4.955 5.584 0 10.271 1.625 14.046 4.861 3.776 3.25 5.677 7.365 5.677 12.345 0 6.18-3.142 11.347-9.439 15.502-2.733 1.824-4.396 3.249-4.977 4.274-.198.347-.356.786-.488 1.332-.581 2.544-2.799 4.355-5.386 4.355m.752 16.686h-.502c-3.524 0-6.389-2.89-6.389-6.445s2.865-6.446 6.389-6.446h.502c3.525 0 6.389 2.89 6.389 6.446 0 3.569-2.851 6.445-6.389 6.445M38.76 31.149a1.333 1.333 0 0 1-1.81-.812c-.184-.56-.316-.893-.369-1.159-.066-.373.383-1.132.898-2.038q.416-.699.475-1.198c.053-.32-.013-.68-.171-1.052-.198-.466-.502-.773-.911-.906-.41-.146-.819-.12-1.241.067-.832.36-1.202 1.052-1.11 2.064a1.4 1.4 0 0 1-1.016 1.478c-.858.24-1.716-.4-1.742-1.305-.027-.812.119-1.558.436-2.224.528-1.105 1.399-1.918 2.613-2.45 1.241-.546 2.43-.64 3.591-.28 1.149.36 1.967 1.079 2.442 2.184.594 1.372.383 2.823-.62 4.355-.436.666-.66 1.145-.7 1.425-.013.093 0 .213.013.346.12.64-.198 1.252-.778 1.505m1.755 3.636-.118.053c-.78.346-1.69-.027-2.033-.813a1.57 1.57 0 0 1 .805-2.05l.119-.054c.778-.346 1.69.027 2.033.813a1.557 1.557 0 0 1-.806 2.05M45.783 14.103c-1.07-.053-1.861-1.025-1.716-2.09.105-.787.145-1.28.25-1.652.146-.506 1.149-1.145 2.337-1.931q.93-.62 1.307-1.159c.25-.373.396-.825.422-1.398.04-.693-.145-1.252-.567-1.678-.41-.426-.937-.653-1.558-.693-1.24-.066-2.099.546-2.6 1.838a1.9 1.9 0 0 1-2.14 1.172c-1.187-.24-1.847-1.545-1.333-2.663.462-1.012 1.083-1.825 1.875-2.437C43.367.4 44.925-.067 46.733.04c1.835.107 3.354.72 4.542 1.864 1.188 1.146 1.742 2.53 1.65 4.169-.106 2.037-1.241 3.675-3.393 4.94-.937.546-1.505.986-1.716 1.319a1.9 1.9 0 0 0-.185.426 1.81 1.81 0 0 1-1.848 1.345m-.053 5.513-.172-.013a2.12 2.12 0 0 1-1.993-2.237c.066-1.172 1.056-2.078 2.218-2.011l.172.013a2.12 2.12 0 0 1 1.993 2.237 2.11 2.11 0 0 1-2.218 2.011" clip-rule="evenodd"/></svg>