<svg xmlns="http://www.w3.org/2000/svg" id="Calque_1" viewBox="0 0 1200 237.01"><defs><style>.cls-1,.cls-2{fill-rule:evenodd;}.cls-1,.cls-3{fill:#fff;}.cls-4{fill:#f6f6f6;}.cls-2,.cls-5{fill:#2e186a;}.cls-6{fill:#ddd;}.cls-7{fill:#ff8d7e;}.cls-8{fill:#6a6af4;}.cls-9{fill:rgba(255,141,126,.31);}.cls-10{fill:rgba(224,132,11,.29);}</style></defs><rect class="cls-4" x=".24" y="29.97" width="1199.51" height="177.06" rx="5" ry="5"/><path class="cls-6" d="M922.03,210.87h0c-1.11,0-2.23-.03-3.38-.06-1.15-.04-2.05-1-2.01-2.14s.99-2.05,2.14-2.01c1.11.04,2.2.06,3.27.06,1.15,0,2.07.94,2.07,2.09,0,1.14-.93,2.07-2.08,2.07ZM930.33,210.55c-1.06,0-1.97-.81-2.07-1.89-.1-1.14.74-2.15,1.88-2.26,1.11-.1,2.18-.23,3.19-.37,1.14-.16,2.19.63,2.35,1.76.16,1.14-.63,2.19-1.76,2.35-1.09.16-2.23.29-3.41.4-.06,0-.13,0-.19,0ZM910.41,210.3c-.06,0-.12,0-.18,0-1.1-.09-2.22-.2-3.35-.32-1.14-.12-1.97-1.14-1.85-2.28.12-1.14,1.15-1.97,2.28-1.85,1.11.12,2.2.22,3.27.31,1.14.1,1.99,1.11,1.89,2.25-.09,1.08-1,1.9-2.07,1.9ZM898.83,208.97c-.1,0-.19,0-.29-.02-1.09-.15-2.2-.31-3.31-.48-1.13-.17-1.91-1.23-1.74-2.37.17-1.13,1.23-1.92,2.37-1.74,1.1.17,2.19.33,3.27.48,1.14.16,1.93,1.21,1.77,2.35-.15,1.04-1.04,1.79-2.06,1.79ZM941.71,208.25c-.85,0-1.66-.53-1.96-1.38-.38-1.08.18-2.27,1.26-2.65,1.01-.36,1.96-.76,2.83-1.19,1.03-.52,2.27-.1,2.79.93.51,1.03.1,2.27-.93,2.79-1.02.51-2.13.98-3.29,1.39-.23.08-.47.12-.7.12ZM54.44,208.09c-1.05,0-1.96-.8-2.06-1.87-.12-1.14.72-2.16,1.86-2.28,1.03-.1,2.06-.26,3.07-.46,1.12-.23,2.22.5,2.45,1.63.23,1.13-.5,2.22-1.63,2.45-1.14.23-2.31.41-3.47.53-.07,0-.14.01-.21.01ZM46.16,208.06c-.07,0-.13,0-.2,0-1.15-.11-2.31-.27-3.45-.46-1.13-.2-1.89-1.27-1.69-2.4.2-1.13,1.27-1.89,2.4-1.69,1.03.18,2.09.32,3.14.42,1.14.11,1.98,1.13,1.87,2.27-.1,1.07-1.01,1.88-2.07,1.88ZM887.33,207.14c-.12,0-.24-.01-.37-.03-1.09-.19-2.18-.39-3.29-.6-1.13-.21-1.87-1.29-1.67-2.42.21-1.13,1.29-1.88,2.42-1.67,1.09.2,2.18.4,3.26.59,1.13.2,1.88,1.28,1.68,2.41-.18,1.01-1.05,1.71-2.04,1.71ZM34.87,205.43c-.25,0-.5-.04-.74-.14-1.08-.41-2.15-.87-3.2-1.36-1.04-.49-1.48-1.73-1-2.76.49-1.04,1.73-1.48,2.76-1,.95.45,1.93.87,2.91,1.24,1.07.41,1.61,1.61,1.2,2.68-.32.83-1.11,1.34-1.94,1.34ZM65.57,205.01c-.79,0-1.54-.45-1.89-1.21-.48-1.04-.02-2.28,1.02-2.76.93-.43,1.87-.91,2.81-1.43,1-.56,2.27-.2,2.83.8.56,1,.2,2.27-.8,2.83-1.03.58-2.07,1.11-3.1,1.58-.28.13-.58.19-.87.19ZM875.89,204.96c-.14,0-.28-.01-.42-.04-1.09-.22-2.18-.44-3.27-.67-1.12-.23-1.84-1.34-1.61-2.46s1.34-1.84,2.46-1.61c1.09.23,2.17.45,3.25.67,1.12.23,1.85,1.32,1.62,2.45-.2.99-1.07,1.66-2.03,1.66ZM864.49,202.53c-.15,0-.3-.02-.45-.05-1.08-.24-2.17-.48-3.25-.73-1.12-.25-1.82-1.37-1.57-2.49s1.37-1.82,2.49-1.57c1.08.25,2.16.49,3.24.73,1.12.25,1.83,1.36,1.58,2.48-.22.97-1.07,1.63-2.03,1.63ZM951.21,201.82c-.44,0-.88-.14-1.26-.43-.91-.7-1.09-2-.39-2.91.58-.76,1.07-1.58,1.48-2.45.48-1.04,1.72-1.49,2.76-1.01,1.04.48,1.49,1.72,1.01,2.76-.53,1.14-1.18,2.23-1.94,3.22-.41.54-1.03.82-1.65.82ZM24.65,199.93c-.42,0-.84-.13-1.2-.39-.93-.66-1.86-1.37-2.75-2.1-.89-.73-1.02-2.04-.29-2.92.73-.89,2.04-1.02,2.92-.29.82.67,1.68,1.32,2.53,1.93.93.67,1.15,1.96.49,2.9-.41.57-1.05.87-1.69.87ZM853.14,199.93c-.16,0-.32-.02-.48-.06-1.08-.25-2.16-.51-3.24-.77-1.12-.27-1.8-1.39-1.54-2.51s1.39-1.81,2.51-1.54c1.08.26,2.16.51,3.23.77,1.12.26,1.81,1.38,1.55,2.5-.23.96-1.08,1.6-2.02,1.6ZM615.2,199.35c-.21,0-.43,0-.65,0-1.15-.02-2.06-.97-2.03-2.12.02-1.13.95-2.03,2.08-2.03.01,0,.03,0,.04,0,.22,0,.43,0,.64,0,.82,0,1.65-.03,2.47-.1,1.14-.1,2.14.77,2.23,1.91.09,1.14-.77,2.14-1.91,2.23-.96.08-1.92.11-2.88.11ZM75.43,198.9c-.62,0-1.24-.28-1.65-.81-.7-.91-.53-2.21.38-2.91.81-.63,1.66-1.31,2.53-2.03.88-.73,2.19-.62,2.93.26.74.88.62,2.19-.26,2.93-.91.76-1.8,1.47-2.66,2.13-.38.29-.82.43-1.27.43ZM606.4,198.1c-.19,0-.38-.03-.57-.08-1.11-.32-2.23-.7-3.33-1.13-1.07-.42-1.59-1.62-1.18-2.69.42-1.07,1.62-1.6,2.69-1.18.98.39,1.98.72,2.96,1,1.1.32,1.74,1.47,1.43,2.57-.26.91-1.09,1.51-2,1.51ZM626.06,197.73c-.9,0-1.74-.6-2-1.51-.32-1.1.32-2.25,1.43-2.57.99-.28,2.01-.61,3.05-.97,1.08-.38,2.27.19,2.65,1.27.38,1.08-.19,2.27-1.27,2.65-1.11.39-2.22.74-3.28,1.05-.19.06-.38.08-.57.08ZM320.79,197.49s-.07,0-.11,0c-1.11-.06-2.27-.15-3.44-.29-1.14-.13-1.96-1.16-1.83-2.3.13-1.14,1.17-1.96,2.3-1.83,1.08.12,2.15.21,3.18.26,1.15.06,2.03,1.03,1.97,2.18-.06,1.11-.97,1.97-2.07,1.97ZM841.82,197.19c-.16,0-.33-.02-.5-.06l-3.23-.8c-1.11-.28-1.79-1.4-1.52-2.52.28-1.11,1.4-1.8,2.52-1.52l3.23.8c1.11.27,1.8,1.4,1.52,2.51-.23.95-1.08,1.58-2.02,1.58ZM329.07,197.03c-.99,0-1.86-.71-2.04-1.71-.2-1.13.55-2.21,1.68-2.41,1.03-.18,2.03-.43,2.98-.72,1.09-.34,2.26.28,2.6,1.38.34,1.1-.28,2.26-1.38,2.6-1.11.34-2.28.62-3.48.84-.12.02-.25.03-.37.03ZM309.3,195.74c-.16,0-.32-.02-.48-.06-1.07-.25-2.18-.53-3.29-.84-1.11-.3-1.76-1.44-1.46-2.55s1.44-1.76,2.55-1.46c1.07.29,2.13.56,3.15.8,1.12.26,1.81,1.38,1.55,2.5-.23.96-1.08,1.6-2.02,1.6ZM830.51,194.37c-.17,0-.34-.02-.51-.06l-3.23-.82c-1.11-.28-1.78-1.41-1.5-2.53.28-1.11,1.41-1.79,2.53-1.5l3.22.82c1.11.28,1.79,1.41,1.51,2.52-.24.94-1.08,1.57-2.01,1.57ZM636.9,193.55c-.78,0-1.53-.45-1.89-1.2-.48-1.04-.03-2.28,1.01-2.76.98-.46,1.96-.93,2.96-1.42,1.03-.51,2.28-.08,2.78.94.51,1.03.08,2.28-.94,2.78-1.02.5-2.03.99-3.04,1.46-.28.13-.58.19-.88.19ZM595.88,193.23c-.38,0-.77-.1-1.11-.33-.94-.6-1.9-1.25-2.85-1.94-.93-.67-1.14-1.97-.46-2.9.67-.93,1.97-1.14,2.9-.46.89.64,1.78,1.25,2.64,1.8.97.62,1.25,1.9.64,2.87-.4.62-1.07.96-1.76.96ZM339.65,192.48c-.62,0-1.24-.28-1.65-.81-.7-.91-.53-2.21.38-2.92.78-.61,1.54-1.28,2.26-2.02.8-.82,2.12-.84,2.94-.04.82.8.84,2.12.04,2.94-.85.87-1.76,1.68-2.7,2.41-.38.29-.83.43-1.27.43ZM298.13,192.47c-.22,0-.45-.04-.67-.11-1.05-.36-2.11-.73-3.17-1.12-1.08-.39-1.64-1.58-1.24-2.66.39-1.08,1.59-1.64,2.66-1.24,1.04.38,2.08.74,3.1,1.09,1.09.37,1.67,1.55,1.29,2.64-.29.86-1.1,1.41-1.97,1.41ZM16,192.18c-.57,0-1.13-.23-1.54-.68-.76-.84-1.51-1.72-2.24-2.61-.72-.89-.58-2.2.31-2.92.89-.72,2.2-.58,2.92.31.68.84,1.38,1.66,2.09,2.44.77.85.7,2.17-.15,2.94-.4.36-.9.54-1.39.54ZM819.21,191.5c-.17,0-.35-.02-.52-.07l-3.23-.83c-1.11-.29-1.78-1.42-1.5-2.53.29-1.11,1.42-1.78,2.53-1.5l3.23.83c1.11.29,1.78,1.42,1.49,2.53-.24.94-1.09,1.56-2.01,1.56ZM84.21,191.27c-.55,0-1.1-.22-1.51-.65-.79-.83-.75-2.15.08-2.94.79-.75,1.58-1.51,2.38-2.29.82-.8,2.14-.78,2.94.04s.78,2.14-.04,2.94c-.81.79-1.61,1.56-2.42,2.32-.4.38-.92.57-1.43.57ZM955.31,191.04c-.16,0-.32-.02-.48-.06-1.12-.26-1.81-1.38-1.55-2.5.25-1.07.48-2.13.68-3.17.22-1.13,1.31-1.86,2.43-1.65,1.13.22,1.87,1.31,1.65,2.43-.21,1.09-.45,2.21-.71,3.34-.23.96-1.08,1.6-2.02,1.6ZM807.93,188.6c-.17,0-.35-.02-.52-.07l-3.22-.83c-1.11-.29-1.78-1.42-1.5-2.53.29-1.11,1.42-1.78,2.53-1.5l3.22.83c1.11.29,1.78,1.42,1.49,2.53-.24.94-1.09,1.56-2.01,1.56ZM287.23,188.37c-.26,0-.52-.05-.78-.15-1.03-.41-2.06-.84-3.1-1.27-1.06-.44-1.56-1.66-1.12-2.72.44-1.06,1.66-1.56,2.72-1.12,1.03.43,2.04.85,3.06,1.25,1.06.43,1.58,1.64,1.15,2.7-.33.81-1.11,1.3-1.93,1.3ZM647.29,188.31c-.75,0-1.47-.4-1.84-1.11-.53-1.02-.15-2.27.87-2.81l2.94-1.55c1.01-.54,2.27-.15,2.81.87.53,1.02.14,2.27-.87,2.81l-2.94,1.55c-.31.16-.64.24-.97.24ZM586.73,186.07c-.5,0-1.01-.18-1.41-.55-.82-.75-1.64-1.54-2.46-2.35-.81-.81-.82-2.12-.01-2.94.81-.82,2.12-.82,2.94-.01.78.77,1.57,1.53,2.35,2.25.84.78.9,2.09.12,2.94-.41.44-.97.67-1.53.67ZM796.65,185.71c-.17,0-.34-.02-.51-.06l-3.22-.82c-1.11-.28-1.79-1.41-1.5-2.52.28-1.11,1.42-1.79,2.53-1.5l3.23.82c1.11.28,1.78,1.41,1.5,2.53-.24.94-1.09,1.57-2.01,1.57ZM276.51,183.83c-.28,0-.56-.06-.83-.18-1.01-.44-2.03-.9-3.05-1.35-1.05-.47-1.52-1.69-1.05-2.74.47-1.05,1.69-1.52,2.74-1.05,1.02.45,2.03.9,3.03,1.34,1.05.46,1.53,1.69,1.07,2.74-.34.78-1.1,1.24-1.9,1.24ZM347.03,183.58c-.37,0-.74-.1-1.08-.3-.98-.6-1.29-1.87-.7-2.85.56-.92,1.09-1.86,1.6-2.79.54-1.01,1.81-1.39,2.82-.84,1.01.54,1.39,1.8.84,2.82-.54,1-1.11,2-1.7,2.98-.39.64-1.08,1-1.78,1ZM92.53,183.13c-.54,0-1.07-.21-1.48-.62-.81-.82-.8-2.13.02-2.94.79-.78,1.58-1.56,2.38-2.34.82-.8,2.14-.78,2.94.04.8.82.78,2.14-.04,2.94-.8.78-1.59,1.55-2.37,2.32-.41.4-.93.6-1.46.6ZM657.62,182.94c-.76,0-1.49-.42-1.86-1.15-.52-1.03-.1-2.27.92-2.79.99-.5,1.99-.99,3.01-1.49,1.03-.5,2.28-.07,2.78.96.5,1.03.07,2.28-.96,2.78-1,.48-1.98.97-2.95,1.46-.3.15-.62.22-.93.22ZM9.04,182.86c-.7,0-1.38-.35-1.77-.99-.6-.97-1.18-1.97-1.73-2.96-.55-1.01-.19-2.27.82-2.82,1.01-.55,2.27-.19,2.82.82.51.94,1.06,1.87,1.62,2.79.6.98.3,2.26-.68,2.86-.34.21-.72.31-1.09.31ZM785.36,182.86c-.17,0-.34-.02-.5-.06l-3.23-.8c-1.11-.28-1.79-1.4-1.52-2.52.28-1.11,1.4-1.79,2.52-1.52l3.23.8c1.11.28,1.79,1.41,1.51,2.52-.24.94-1.08,1.58-2.01,1.58ZM960.47,181.59c-.49,0-.98-.01-1.47-.03-1.1-.04-1.97-.93-2-2.01-.01,0-.02,0-.03,0-1.14-.09-2-1.08-1.92-2.23.08-1.07.14-2.15.16-3.21.03-1.15.97-2.1,2.13-2.03,1.15.03,2.06.98,2.03,2.13-.03,1.06-.08,2.14-.15,3.21.44.02.88.03,1.32.02.59,0,1.17-.01,1.76-.04,1.15-.08,2.12.82,2.18,1.97.06,1.15-.82,2.12-1.97,2.18-.68.03-1.37.05-2.04.05ZM950.87,180.37c-.17,0-.34-.02-.51-.06-1.12-.28-2.24-.61-3.34-.98-1.09-.36-1.68-1.54-1.31-2.63.36-1.09,1.54-1.67,2.63-1.31,1,.34,2.02.63,3.04.89,1.11.28,1.79,1.41,1.51,2.52-.24.94-1.08,1.57-2.01,1.57ZM970.57,180.15c-.9,0-1.72-.58-1.99-1.49-.33-1.1.3-2.26,1.4-2.58.99-.29,1.98-.64,2.95-1.03,1.06-.43,2.28.08,2.71,1.15.43,1.06-.08,2.28-1.15,2.71-1.09.44-2.2.83-3.32,1.16-.2.06-.4.09-.59.09ZM774.04,180.08c-.16,0-.32-.02-.49-.06-1.08-.26-2.16-.52-3.23-.77-1.12-.27-1.81-1.39-1.54-2.5.27-1.12,1.38-1.81,2.5-1.54,1.08.26,2.16.51,3.24.77,1.12.27,1.8,1.39,1.54,2.51-.23.95-1.08,1.59-2.02,1.59ZM265.88,179.07c-.29,0-.58-.06-.86-.19l-3.03-1.38c-1.04-.48-1.5-1.71-1.03-2.75.48-1.04,1.71-1.5,2.75-1.03l3.03,1.38c1.04.48,1.51,1.71,1.03,2.75-.35.76-1.1,1.22-1.89,1.22ZM668.16,178.01c-.81,0-1.58-.47-1.91-1.27-.45-1.06.04-2.28,1.1-2.73,1.03-.44,2.07-.86,3.12-1.28,1.06-.42,2.27.1,2.7,1.17.42,1.07-.1,2.27-1.17,2.7-1.02.41-2.03.82-3.03,1.24-.26.11-.54.17-.81.17ZM578.66,177.7c-.58,0-1.16-.24-1.57-.71-.35-.4-.71-.81-1.06-1.23-.37-.43-.74-.86-1.11-1.29-.75-.86-.67-2.18.2-2.93.86-.76,2.18-.67,2.93.2.38.44.77.88,1.14,1.32.34.4.69.8,1.03,1.19.75.86.67,2.18-.2,2.93-.39.34-.88.51-1.37.51ZM762.7,177.43c-.15,0-.31-.02-.46-.05-1.08-.25-2.16-.49-3.24-.73-1.12-.25-1.83-1.36-1.58-2.48.25-1.12,1.35-1.83,2.48-1.58,1.08.24,2.16.48,3.26.73,1.12.25,1.82,1.37,1.57,2.49-.22.96-1.08,1.62-2.02,1.62ZM940.07,176.1c-.34,0-.68-.08-1-.26-1.02-.56-2.02-1.16-2.98-1.78-.96-.62-1.24-1.91-.62-2.87.62-.96,1.91-1.24,2.87-.62.88.57,1.8,1.12,2.73,1.63,1,.55,1.37,1.82.82,2.82-.38.69-1.09,1.07-1.82,1.07ZM100.94,175.09c-.56,0-1.12-.23-1.53-.68-.77-.85-.72-2.16.13-2.94.82-.75,1.66-1.5,2.5-2.25.86-.76,2.17-.67,2.93.19.76.86.67,2.17-.19,2.93-.83.73-1.64,1.46-2.44,2.19-.4.36-.9.54-1.4.54ZM980.98,175.07c-.65,0-1.29-.31-1.7-.88-.66-.94-.44-2.23.5-2.9.85-.6,1.69-1.25,2.5-1.92.88-.74,2.19-.62,2.93.26.74.88.62,2.19-.26,2.93-.9.75-1.83,1.47-2.77,2.13-.36.26-.78.38-1.2.38ZM751.32,174.95c-.14,0-.28-.01-.43-.04-1.09-.23-2.17-.45-3.24-.66-1.13-.22-1.86-1.32-1.63-2.45.22-1.13,1.32-1.86,2.45-1.63,1.08.22,2.18.44,3.28.67,1.12.23,1.85,1.33,1.61,2.46-.2.98-1.07,1.65-2.03,1.65ZM255.29,174.22c-.29,0-.58-.06-.86-.19l-3.02-1.38c-1.04-.47-1.51-1.71-1.03-2.75.47-1.04,1.71-1.51,2.75-1.03l3.03,1.38c1.04.48,1.5,1.71,1.03,2.75-.35.76-1.1,1.22-1.89,1.22ZM679.06,173.96c-.88,0-1.7-.57-1.98-1.45-.35-1.09.26-2.26,1.35-2.61,1.07-.34,2.15-.66,3.25-.97,1.11-.31,2.25.33,2.56,1.44s-.33,2.25-1.44,2.56c-1.05.3-2.09.61-3.12.93-.21.07-.42.1-.63.1ZM352.14,173.15c-.25,0-.49-.04-.74-.14-1.07-.41-1.61-1.61-1.2-2.68.38-1,.74-2.02,1.06-3.03.35-1.09,1.52-1.7,2.61-1.35,1.09.35,1.7,1.52,1.35,2.61-.34,1.08-.73,2.17-1.13,3.25-.32.83-1.1,1.34-1.94,1.34ZM739.88,172.72c-.12,0-.25-.01-.37-.03-1.1-.2-2.18-.39-3.26-.57-1.13-.19-1.89-1.26-1.7-2.4.19-1.13,1.26-1.89,2.4-1.7,1.09.18,2.19.38,3.3.58,1.13.2,1.88,1.28,1.68,2.41-.18,1.01-1.06,1.71-2.04,1.71ZM3.84,172.46c-.83,0-1.62-.51-1.94-1.33-.43-1.12-.82-2.23-1.14-3.28-.34-1.1.28-2.26,1.38-2.6,1.1-.34,2.26.28,2.6,1.38.3.96.65,1.97,1.05,3.01.41,1.07-.12,2.27-1.19,2.69-.25.09-.5.14-.75.14ZM690.32,171.08c-.97,0-1.84-.69-2.04-1.68-.22-1.13.52-2.22,1.64-2.44,1.12-.22,2.25-.42,3.35-.59,1.14-.18,2.2.6,2.38,1.73s-.6,2.2-1.73,2.38c-1.05.17-2.13.36-3.2.56-.13.03-.27.04-.4.04ZM728.38,170.88c-.09,0-.19,0-.29-.02-1.1-.15-2.19-.3-3.27-.43-1.14-.14-1.95-1.18-1.81-2.32.14-1.14,1.18-1.95,2.32-1.81,1.1.13,2.21.28,3.33.44,1.14.16,1.93,1.21,1.77,2.34-.14,1.04-1.04,1.79-2.06,1.79ZM716.8,169.63c-.05,0-.1,0-.15,0-1.11-.08-2.2-.15-3.27-.2-1.15-.05-2.03-1.03-1.98-2.17.05-1.15,1.01-2.04,2.17-1.98,1.1.05,2.23.12,3.37.2,1.14.08,2.01,1.08,1.92,2.22-.08,1.09-.99,1.93-2.07,1.93ZM701.84,169.56c-1.08,0-1.99-.84-2.07-1.93-.08-1.14.78-2.14,1.93-2.22,1.13-.08,2.27-.14,3.39-.18,1.14-.04,2.11.85,2.15,2,.04,1.15-.85,2.11-2,2.15-1.07.04-2.17.1-3.25.18-.05,0-.1,0-.15,0ZM244.67,169.43c-.28,0-.57-.06-.85-.18-1.01-.45-2.02-.9-3.03-1.34-1.05-.46-1.53-1.69-1.06-2.74.46-1.05,1.69-1.53,2.74-1.06,1.02.45,2.04.9,3.05,1.35,1.05.47,1.52,1.7,1.05,2.74-.35.77-1.1,1.23-1.9,1.23ZM930.7,169.25c-.52,0-1.03-.19-1.44-.58-.86-.82-1.67-1.67-2.43-2.54-.76-.86-.67-2.18.2-2.93.86-.76,2.18-.67,2.93.2.67.77,1.4,1.53,2.17,2.27.83.79.86,2.11.06,2.94-.41.43-.95.64-1.5.64ZM570.83,169.09c-.54,0-1.07-.21-1.48-.62-.77-.78-1.54-1.55-2.32-2.31-.82-.8-.84-2.12-.04-2.94.8-.82,2.12-.84,2.94-.04.81.78,1.6,1.58,2.39,2.38.8.82.79,2.13-.02,2.94-.4.4-.93.6-1.46.6ZM956.88,167.94c-1.03,0-1.93-.77-2.06-1.82-.14-1.06-.31-2.11-.51-3.14-.22-1.13.51-2.22,1.63-2.44,1.13-.22,2.22.51,2.44,1.63.22,1.12.41,2.27.56,3.42.15,1.14-.66,2.18-1.8,2.32-.09.01-.18.02-.27.02ZM109.81,167.56c-.62,0-1.23-.28-1.64-.8-.7-.91-.54-2.21.37-2.92.89-.69,1.79-1.37,2.7-2.04.93-.68,2.23-.48,2.9.45.68.93.48,2.23-.45,2.9-.88.65-1.75,1.3-2.61,1.97-.38.29-.83.44-1.27.44ZM989.44,167.14c-.47,0-.94-.16-1.33-.48-.88-.73-1-2.04-.27-2.93.67-.81,1.33-1.65,1.96-2.52.68-.93,1.98-1.13,2.9-.45.93.68,1.13,1.98.45,2.9-.68.94-1.4,1.85-2.12,2.72-.41.5-1,.75-1.6.75ZM233.99,164.78c-.27,0-.54-.05-.81-.16-1.02-.43-2.04-.86-3.06-1.28-1.06-.44-1.56-1.66-1.12-2.72.44-1.06,1.66-1.56,2.71-1.12,1.03.43,2.06.86,3.08,1.29,1.06.45,1.55,1.66,1.11,2.72-.33.79-1.11,1.27-1.92,1.27ZM355.21,161.94c-.12,0-.23,0-.35-.03-1.13-.19-1.89-1.26-1.7-2.4.18-1.05.33-2.12.44-3.17.13-1.14,1.15-1.97,2.29-1.84,1.14.13,1.96,1.15,1.84,2.29-.13,1.13-.29,2.28-.48,3.41-.17,1.01-1.05,1.73-2.05,1.73ZM562.35,161.12c-.48,0-.97-.17-1.36-.51-.83-.72-1.66-1.43-2.5-2.14-.88-.74-1-2.05-.26-2.93s2.05-1,2.93-.26c.87.72,1.72,1.45,2.57,2.19.87.75.96,2.07.2,2.93-.41.47-.99.71-1.57.71ZM119.36,160.93c-.7,0-1.38-.35-1.78-.99-.6-.98-.29-2.26.69-2.86.97-.59,1.95-1.17,2.93-1.72,1-.56,2.27-.21,2.83.79.56,1,.21,2.27-.79,2.83-.93.52-1.87,1.08-2.8,1.64-.34.21-.71.31-1.08.31ZM223.2,160.39c-.25,0-.5-.05-.75-.14-1.03-.4-2.05-.79-3.08-1.18-1.07-.4-1.62-1.6-1.21-2.68.4-1.07,1.6-1.62,2.68-1.21,1.04.39,2.08.79,3.12,1.19,1.07.42,1.6,1.62,1.18,2.69-.32.82-1.11,1.33-1.94,1.33ZM923.86,159.92c-.8,0-1.57-.47-1.91-1.25-.52-1.2-.91-2.39-1.16-3.54-.24-1.12.47-2.23,1.59-2.47,1.11-.24,2.23.47,2.47,1.59.19.89.5,1.82.91,2.76.46,1.05-.03,2.28-1.08,2.73-.27.12-.55.17-.83.17ZM995.92,157.5c-.34,0-.68-.08-1-.26-1.01-.55-1.37-1.82-.82-2.82.5-.91,1-1.88,1.49-2.87.51-1.03,1.75-1.45,2.78-.94,1.03.51,1.45,1.75.94,2.78-.51,1.04-1.04,2.06-1.57,3.03-.38.69-1.09,1.08-1.82,1.08ZM953.93,156.72c-.81,0-1.57-.47-1.91-1.26-.42-.97-.88-1.92-1.36-2.8-.55-1-.19-2.27.81-2.82,1-.55,2.27-.19,2.82.81.56,1.01,1.08,2.07,1.55,3.17.45,1.06-.04,2.28-1.09,2.73-.27.11-.54.17-.82.17ZM347.02,156.41c-1.09,0-2.01-.85-2.07-1.96-.07-1.15.81-2.13,1.96-2.19,1.03-.06,2.09-.16,3.15-.3,1.14-.15,2.18.65,2.33,1.79.15,1.14-.65,2.18-1.79,2.33-1.17.15-2.33.26-3.46.33-.04,0-.08,0-.12,0ZM212.28,156.4c-.22,0-.45-.04-.67-.11-1.04-.36-2.09-.7-3.13-1.04-1.09-.36-1.69-1.53-1.33-2.62.36-1.09,1.53-1.69,2.62-1.33,1.06.35,2.12.7,3.18,1.06,1.09.37,1.67,1.55,1.3,2.64-.29.86-1.1,1.41-1.97,1.41ZM338.74,156.02c-.11,0-.22,0-.34-.03-1.18-.19-2.34-.44-3.46-.74-1.11-.3-1.76-1.44-1.47-2.55.3-1.11,1.44-1.76,2.55-1.47.98.26,2,.48,3.04.65,1.13.18,1.9,1.25,1.72,2.38-.17,1.02-1.05,1.75-2.05,1.75ZM129.64,155.52c-.8,0-1.56-.46-1.9-1.24-.47-1.05,0-2.28,1.06-2.74,1.04-.46,2.09-.9,3.14-1.32,1.07-.43,2.27.1,2.7,1.16.42,1.07-.09,2.28-1.16,2.7-.99.4-2,.82-2.99,1.26-.27.12-.56.18-.84.18ZM358.44,154.32c-.89,0-1.71-.58-1.99-1.47-.33-1.1.28-2.26,1.38-2.59,1.01-.31,2.03-.65,3.04-1.02,1.08-.4,2.27.16,2.67,1.23.4,1.08-.16,2.27-1.23,2.67-1.08.4-2.18.77-3.26,1.1-.2.06-.41.09-.61.09ZM553.3,153.78c-.44,0-.88-.14-1.25-.42-.88-.66-1.76-1.31-2.65-1.96-.93-.67-1.14-1.97-.46-2.9.67-.93,1.97-1.14,2.9-.46.91.66,1.82,1.33,2.71,2.01.92.69,1.1,1.99.41,2.91-.41.54-1.03.83-1.66.83ZM201.17,152.92c-.19,0-.38-.03-.56-.08-1.06-.3-2.12-.58-3.17-.86-1.11-.29-1.78-1.42-1.49-2.53.29-1.11,1.43-1.78,2.53-1.49,1.08.28,2.17.57,3.25.88,1.11.31,1.75,1.46,1.44,2.56-.26.92-1.09,1.52-2,1.52ZM327.9,152.02c-.39,0-.78-.11-1.12-.33-1.04-.67-2.01-1.41-2.9-2.19-.86-.76-.94-2.07-.18-2.93.76-.86,2.07-.94,2.93-.18.73.65,1.54,1.26,2.4,1.81.96.62,1.24,1.91.62,2.87-.4.62-1.07.95-1.75.95ZM140.54,151.54c-.9,0-1.73-.59-1.99-1.5-.32-1.1.31-2.26,1.42-2.57,1.08-.31,2.18-.61,3.28-.89,1.11-.29,2.24.4,2.52,1.51.28,1.11-.4,2.24-1.51,2.52-1.05.26-2.1.55-3.13.85-.19.06-.39.08-.58.08ZM355.96,150.34c-1.11,0-2.03-.88-2.07-2-.04-1.06-.12-2.14-.23-3.19-.12-1.14.71-2.16,1.85-2.28,1.15-.13,2.16.71,2.28,1.85.12,1.14.2,2.3.25,3.45.05,1.15-.85,2.11-1.99,2.16-.03,0-.06,0-.08,0ZM189.86,150.17c-.14,0-.28-.01-.42-.04-1.07-.22-2.15-.42-3.22-.62-1.13-.2-1.88-1.28-1.68-2.41.2-1.13,1.28-1.88,2.41-1.68,1.1.2,2.21.41,3.32.63,1.12.23,1.85,1.33,1.62,2.45-.2.98-1.07,1.66-2.03,1.66ZM369.19,149.9c-.75,0-1.48-.41-1.85-1.12-.53-1.02-.13-2.27.89-2.8.94-.49,1.9-1.01,2.83-1.55.99-.57,2.27-.23,2.84.76.57.99.23,2.27-.76,2.84-.99.57-2,1.12-3,1.64-.31.16-.63.23-.95.23ZM151.87,149.03c-1.01,0-1.89-.73-2.05-1.76-.18-1.13.6-2.2,1.73-2.38,1.11-.17,2.24-.33,3.36-.47,1.14-.14,2.18.67,2.32,1.81.14,1.14-.67,2.18-1.81,2.32-1.08.13-2.16.28-3.22.45-.11.02-.22.03-.33.03ZM924.16,148.82c-.41,0-.83-.12-1.19-.38-.94-.66-1.17-1.95-.51-2.89.3-.43.65-.85,1.02-1.25.51-.54,1.04-1.06,1.59-1.54.86-.75,2.18-.67,2.93.19.76.86.67,2.18-.19,2.93-.44.38-.87.81-1.29,1.25-.24.26-.46.52-.65.8-.4.58-1.05.88-1.7.88ZM178.37,148.36c-.07,0-.15,0-.22-.01-1.08-.12-2.17-.21-3.25-.3-1.14-.09-2-1.08-1.92-2.23.09-1.14,1.1-2,2.23-1.92,1.12.08,2.25.19,3.38.31,1.14.12,1.97,1.15,1.85,2.29-.11,1.07-1.02,1.86-2.06,1.86ZM163.43,147.89c-1.11,0-2.03-.87-2.07-1.99-.05-1.15.84-2.12,1.99-2.17,1.1-.05,2.21-.08,3.33-.1h.03c1.12,0,2.07.89,2.1,2.01.04,1.13-.82,2.09-1.95,2.14-.03,0-.12,0-.15,0-1.05.02-2.13.05-3.18.09-.03,0-.06,0-.09,0ZM947.44,147.17c-.51,0-1.01-.18-1.41-.55-.75-.69-1.54-1.31-2.34-1.84-.96-.63-1.22-1.92-.59-2.88.63-.96,1.92-1.22,2.88-.59.99.65,1.96,1.42,2.88,2.27.84.78.89,2.1.11,2.94-.41.44-.97.66-1.52.66ZM543.77,147.08c-.39,0-.79-.11-1.14-.34-.92-.6-1.84-1.19-2.77-1.78-.97-.61-1.26-1.89-.65-2.87.61-.97,1.89-1.26,2.87-.65.95.6,1.9,1.21,2.83,1.82.96.63,1.23,1.92.6,2.88-.4.61-1.06.94-1.74.94ZM379.08,143.79c-.65,0-1.28-.3-1.69-.87-.67-.93-.46-2.23.48-2.9.87-.62,1.74-1.28,2.61-1.94.91-.7,2.21-.53,2.92.37.7.91.53,2.21-.37,2.92-.9.7-1.82,1.38-2.73,2.03-.37.26-.79.39-1.21.39ZM320.44,143.33c-.83,0-1.61-.5-1.93-1.31-.47-1.18-.8-2.4-1-3.63-.18-1.13.58-2.2,1.72-2.39,1.14-.18,2.2.58,2.39,1.72.15.94.41,1.87.77,2.76.42,1.07-.1,2.27-1.17,2.7-.25.1-.51.15-.77.15ZM933.76,142.68c-.98,0-1.85-.69-2.04-1.68-.22-1.13.52-2.22,1.65-2.43,1-.19,2.02-.27,3.04-.29.25,0,.51,0,.77.02,1.15.06,2.03,1.04,1.97,2.18-.06,1.15-1.03,2.01-2.18,1.97-.2-.01-.4-.02-.6-.02-.74,0-1.48.07-2.21.21-.13.03-.27.04-.4.04ZM533.84,141.01c-.35,0-.7-.09-1.02-.27-.95-.54-1.91-1.08-2.88-1.6-1.01-.55-1.38-1.81-.83-2.82.55-1.01,1.81-1.38,2.82-.83.99.54,1.96,1.08,2.94,1.64,1,.57,1.35,1.84.78,2.83-.38.67-1.09,1.05-1.81,1.05ZM354.19,138.87c-.91,0-1.74-.6-2-1.52-.29-1.02-.61-2.04-.97-3.01-.39-1.08.16-2.27,1.24-2.66,1.08-.39,2.27.16,2.66,1.24.39,1.07.75,2.19,1.07,3.32.31,1.1-.33,2.25-1.44,2.56-.19.05-.38.08-.56.08ZM388.11,136.46c-.57,0-1.13-.23-1.54-.68-.77-.85-.7-2.17.15-2.94.85-.77,1.72-1.52,2.61-2.23.89-.72,2.2-.59,2.92.3.72.89.59,2.2-.3,2.92-.83.67-1.65,1.37-2.44,2.09-.4.36-.9.54-1.39.54ZM523.54,135.57c-.31,0-.62-.07-.91-.21-.98-.48-1.97-.96-2.97-1.42-1.04-.49-1.49-1.73-1-2.76.49-1.04,1.73-1.49,2.76-1,1.01.48,2.02.96,3.03,1.45,1.03.51,1.46,1.75.95,2.78-.36.74-1.1,1.16-1.87,1.16ZM320.42,131.97c-.24,0-.49-.04-.72-.13-1.08-.4-1.62-1.6-1.22-2.67.42-1.12.94-2.23,1.57-3.32.57-.99,1.85-1.34,2.84-.76.99.57,1.33,1.85.76,2.84-.51.88-.94,1.78-1.27,2.69-.31.84-1.1,1.35-1.95,1.35ZM512.95,130.77c-.27,0-.54-.05-.8-.16-1.01-.42-2.03-.84-3.04-1.24-1.07-.42-1.59-1.63-1.16-2.7.42-1.07,1.63-1.59,2.7-1.16,1.04.41,2.08.84,3.11,1.27,1.06.44,1.56,1.66,1.12,2.72-.33.8-1.11,1.28-1.92,1.28ZM397.4,129.48c-.69,0-1.37-.35-1.77-.98-.61-.97-.31-2.26.66-2.86.96-.6,1.96-1.19,2.95-1.74,1-.56,2.27-.2,2.83.8.56,1,.2,2.27-.8,2.83-.93.52-1.87,1.07-2.77,1.64-.34.21-.72.31-1.1.31ZM349.5,128.27c-.68,0-1.34-.33-1.74-.94-.58-.88-1.19-1.72-1.83-2.47-.74-.88-.63-2.19.25-2.93.88-.74,2.19-.63,2.93.25.74.88,1.46,1.85,2.13,2.87.63.96.36,2.25-.6,2.88-.35.23-.75.34-1.14.34ZM502.08,126.61c-.23,0-.46-.04-.69-.12-1.03-.36-2.07-.71-3.11-1.05-1.09-.36-1.68-1.53-1.33-2.62s1.53-1.68,2.62-1.32c1.06.35,2.12.71,3.18,1.08,1.08.38,1.66,1.56,1.28,2.65-.3.86-1.1,1.39-1.96,1.39ZM407.72,124.15c-.81,0-1.58-.48-1.92-1.27-.45-1.06.05-2.28,1.11-2.72,1.04-.44,2.1-.86,3.17-1.26,1.08-.4,2.27.14,2.67,1.22.4,1.07-.14,2.27-1.22,2.67-1.01.38-2.03.78-3.01,1.2-.26.11-.54.16-.81.16ZM490.99,123.12c-.19,0-.38-.03-.56-.08-1.06-.3-2.11-.58-3.17-.86-1.11-.29-1.78-1.42-1.49-2.54s1.42-1.78,2.54-1.49c1.08.28,2.17.58,3.25.88,1.11.31,1.75,1.46,1.44,2.56-.26.92-1.09,1.52-2,1.52ZM327.16,122.63c-.6,0-1.19-.26-1.6-.75-.73-.88-.61-2.19.27-2.93,1-.83,2.03-1.53,3.09-2.1,1.01-.54,2.27-.17,2.81.85.54,1.01.17,2.27-.85,2.81-.81.44-1.62.99-2.4,1.64-.39.32-.86.48-1.32.48ZM341.09,120.44c-.29,0-.59-.06-.88-.2-.88-.41-1.77-.7-2.65-.86-1.13-.21-1.87-1.29-1.66-2.42.21-1.13,1.3-1.87,2.42-1.66,1.23.23,2.46.63,3.65,1.19,1.04.49,1.49,1.72,1,2.76-.35.75-1.1,1.2-1.88,1.2ZM418.73,120.39c-.92,0-1.76-.61-2.01-1.54-.3-1.11.36-2.25,1.47-2.55,1.08-.29,2.19-.57,3.3-.82,1.11-.26,2.23.44,2.49,1.56.26,1.12-.44,2.23-1.56,2.49-1.06.24-2.12.51-3.15.79-.18.05-.36.07-.54.07ZM479.7,120.34c-.14,0-.29-.02-.43-.05-1.07-.23-2.15-.44-3.22-.65-1.13-.22-1.87-1.31-1.65-2.43.22-1.13,1.31-1.86,2.43-1.65,1.1.21,2.2.43,3.3.67,1.12.24,1.84,1.34,1.6,2.46-.21.98-1.07,1.65-2.03,1.65ZM468.24,118.31c-.1,0-.19,0-.29-.02-1.09-.15-2.17-.29-3.25-.42-1.14-.14-1.95-1.17-1.82-2.31.14-1.14,1.17-1.95,2.31-1.82,1.11.13,2.22.28,3.34.44,1.14.16,1.93,1.21,1.77,2.35-.15,1.04-1.04,1.79-2.06,1.79ZM430.12,118.05c-1.01,0-1.9-.74-2.05-1.78-.17-1.14.62-2.19,1.75-2.36,1.11-.16,2.23-.31,3.36-.44,1.14-.13,2.17.69,2.3,1.83.13,1.14-.69,2.17-1.83,2.3-1.09.13-2.16.27-3.23.42-.1.02-.2.02-.3.02ZM456.66,117.12s-.09,0-.14,0c-1.1-.07-2.19-.13-3.27-.17-1.15-.05-2.04-1.02-1.99-2.16s1-2.04,2.16-1.99c1.12.05,2.24.11,3.37.18,1.15.07,2.01,1.06,1.94,2.21-.07,1.1-.99,1.94-2.07,1.94ZM441.7,116.95c-1.1,0-2.02-.87-2.07-1.98-.05-1.15.83-2.12,1.98-2.17,1.12-.05,2.25-.09,3.38-.11,1.16-.02,2.1.89,2.12,2.04s-.89,2.1-2.04,2.12c-1.1.02-2.19.06-3.27.11-.03,0-.06,0-.1,0Z"/><circle class="cls-9" cx="601.66" cy="140.12" r="23.28"/><path class="cls-8" d="M1128.41,121.81h0v-34.23c0-3.02-2.45-5.46-5.48-5.46h-223.33c-3.03,0-5.48,2.44-5.48,5.46v121.52h228.81c3.03,0,5.48-2.44,5.48-5.46v-46.96"/><path class="cls-2" d="M894.13,93.37c0-.41.33-.74.75-.74h223.79c.42,0,.75.33.75.74s-.33.74-.75.74h-223.79c-.42,0-.75-.33-.75-.74Z"/><path class="cls-2" d="M1112.37,82.86c0-.41.33-.74.75-.74,3.47,0,6.3,2.81,6.3,6.29v115.56c0,3.43-2.78,6.21-6.23,6.21-.41,0-.75-.33-.75-.74s.34-.74.75-.74c2.61,0,4.73-2.11,4.73-4.72v-115.56c0-2.65-2.15-4.8-4.8-4.8-.42,0-.75-.33-.75-.74Z"/><path class="cls-5" d="M907.56,90.8c1.6,0,2.89-1.29,2.89-2.88s-1.3-2.88-2.89-2.88-2.89,1.29-2.89,2.88,1.29,2.88,2.89,2.88Z"/><path class="cls-5" d="M917.19,90.8c1.6,0,2.89-1.29,2.89-2.88s-1.3-2.88-2.89-2.88-2.89,1.29-2.89,2.88,1.3,2.88,2.89,2.88Z"/><path class="cls-5" d="M926.83,90.8c1.6,0,2.89-1.29,2.89-2.88s-1.29-2.88-2.89-2.88-2.89,1.29-2.89,2.88,1.3,2.88,2.89,2.88Z"/><path class="cls-7" d="M930.2,162.47l-31.01-3.76s-8.55-2.17-12.09.96c-4.15.02-7.7,1.65-10.71,4.19-2.46-.54-8.6-1.24-9.94,4.61-1.31,5.72-2.33,13.99-2.72,17.41-1.66,5.26-2.37,9.22-2.37,9.22l-24.57-.11c-7.76.44-12.56,9.84-10.71,20.99,1.81,10.9,9.3,19.44,16.89,19.4l48.49.11s.04-.09.12-.25l13.81-40.52c-1.88-2-3.87-4.12-3.92-6-.2-6.85,4.16-14.66,4.16-14.66,0,0,4.18.12,16.23.6,12.05.48,8.35-12.21,8.35-12.21h0Z"/><path class="cls-1" d="M901.66,158.28l-.19.72.19-.72c.4.11.64.51.53.91-.11.4-.52.63-.91.53h0s0,0-.02,0c-.02,0-.07-.01-.13-.02-.12-.02-.32-.04-.57-.04-.49,0-1.2.05-2,.34-1.6.56-3.76,2.04-5.56,5.86-1.83,3.88-3.42,7.68-4.55,10.51-.57,1.42-1.01,2.59-1.32,3.41-.15.41-.27.73-.35.95-.04.11-.07.19-.09.25l-.02.06v.02s-.71-.25-.71-.25l-.71-.25h0v-.02s.03-.07.03-.07c.02-.06.05-.14.09-.25.08-.22.2-.54.36-.96.31-.83.76-2.01,1.33-3.43,1.14-2.85,2.73-6.68,4.58-10.6,1.95-4.13,4.38-5.92,6.42-6.63,1.01-.35,1.89-.43,2.53-.42.32,0,.58.03.76.06.09.01.17.03.22.04.03,0,.05.01.07.01,0,0,.02,0,.02,0h0ZM885.95,180.79l-.71-.25c-.14.39.06.81.45.95.39.14.81-.06.96-.45l-.7-.25ZM901.27,159.72h0Z"/><path class="cls-1" d="M887.53,160.28h0M887.53,160.28h0M887.11,159.67l-.42-.62h0s-.02.01-.02.01c0,0-.02.01-.02.02-.03.02-.07.04-.11.08-.09.07-.21.17-.37.3-.31.27-.74.69-1.26,1.28-1.04,1.18-2.42,3.07-3.87,5.91-1.43,2.83-2.52,5.66-3.24,7.78-.37,1.06-.64,1.94-.83,2.56-.09.31-.16.55-.21.72-.02.08-.04.15-.05.19,0,.02,0,.04-.02.05h0v.02l.72.19-.72-.19c-.11.4.13.8.53.91.4.1.81-.13.91-.53h0s0-.04.02-.06c0-.04.02-.1.05-.18.04-.16.11-.4.2-.7.17-.6.45-1.46.8-2.5.71-2.07,1.78-4.83,3.18-7.59"/><path class="cls-3" d="M944.02,154.8l-5.18,14.63-46.58,42.27-6.44-5.6-4.73-5.27,47.33-42.91,15.6-3.12Z"/><path class="cls-5" d="M941.57,161.71l2.44-6.91-7.76,1.56,5.32,5.35Z"/><path class="cls-2" d="M935.8,164.59c.27.31.25.78-.07,1.05l-42.09,36.98c-.31.27-.78.24-1.05-.07-.27-.31-.25-.78.07-1.05l42.09-36.98c.31-.27.77-.24,1.05.07Z"/><path class="cls-2" d="M932.64,161.31c.27.31.23.78-.07,1.05l-42.57,37.04c-.31.27-.78.24-1.06-.07-.27-.31-.24-.78.07-1.05l42.57-37.04c.31-.27.78-.24,1.06.07Z"/><path class="cls-8" d="M888.81,198.58l-7.6,2.05-2.01,7.58,5.58,5.53,7.6-2.05,2.01-7.58-5.58-5.53Z"/><path class="cls-5" d="M886.79,208.65c1.38,0,2.49-1.11,2.49-2.48s-1.11-2.48-2.49-2.48-2.49,1.11-2.49,2.48,1.11,2.48,2.49,2.48Z"/><path class="cls-7" d="M900.97,205s.57-1.52,4.42-10.25c3.85-8.73,9.96-16.1,17.51-14.01,7.55,2.08,1.53,14.01,1.53,14.01,0,0-8.96,24.39-12.69,28.47-3.73,4.09-8.55,12.54-20.96,12.03"/><path class="cls-7" d="M1068.14,197.11c2.44,9.15,17.32,9.43,15.92-4.87-.02-6.36,11.7-7.88,17.32-1.21h0s0,0,0,0c0,0,1.39.66,2.93,8.84,2.02,10.58-6.08,25.48-16.31,15.9-9.48-4.74-15.67,7.18-4.45,17.18,9.11,8.12,27.61,3.12,34.8-7.84l44.25,1.7c9.83.04,16.87-48.76,1.95-50.44l-29.19-1.32s-18.99-21.1-24.15-22.81c-5.17-1.71-7.68,3.77-7.68,3.77,0,0-10.37-10.29-15.6-10.1-7.32.28-6.18,5.52-6.18,5.52,0,0-11-3.81-10.71,6.29.14,4.94,5.55,10.44,11,14.75-.16.04-.32.08-.48.12-13.57,3.78-16.03,14.79-13.43,24.51h0ZM1101.43,191.08s.03.04.05.05c-.02-.01-.03-.03-.05-.05ZM1101.5,191.16s.02.02,0,0Z"/><path class="cls-1" d="M1080.34,171.46c4.66-1.3,9.69-1.13,14.13.1.39.11.62.52.52.92-.11.4-.52.63-.91.52-4.21-1.16-8.96-1.31-13.33-.1-.42.12-.82.24-1.21.37-.39.13-.81-.08-.94-.48-.12-.39.08-.81.47-.94.42-.13.84-.26,1.27-.38h0Z"/><path class="cls-1" d="M1080,149.81c.24-.33.71-.41,1.04-.17,6.6,4.7,13.47,11.32,18.66,16.74,2.61,2.72,4.8,5.14,6.34,6.88.77.87,1.39,1.58,1.8,2.06.21.24.37.43.47.56.06.06.1.11.12.15l.03.04h0s0,.01-.57.49q-.57.48-.57.48h0s-.03-.05-.03-.05c-.02-.03-.07-.08-.12-.14-.11-.13-.27-.31-.47-.55-.41-.48-1.01-1.18-1.78-2.04-1.54-1.73-3.72-4.14-6.3-6.84-5.19-5.4-11.98-11.94-18.45-16.56-.34-.24-.42-.7-.17-1.04ZM1108.4,177.12c-.32.26-.79.22-1.06-.09l.57-.48.57-.48c.27.32.22.79-.09,1.05Z"/><path class="cls-1" d="M1102.61,153.94c.3-.28.77-.27,1.06.03l-.55.51-.55.51c-.28-.3-.27-.77.04-1.05ZM1103.11,154.48l-.55.51.19.2c.12.13.32.33.55.58.47.51,1.15,1.23,1.96,2.11,1.65,1.77,3.85,4.16,6.14,6.68,2.29,2.52,4.65,5.15,6.59,7.39,1.96,2.26,3.47,4.08,4.06,4.99.22.35.69.44,1.03.22.35-.22.45-.68.22-1.03-.67-1.02-2.24-2.92-4.18-5.16-1.95-2.26-4.33-4.9-6.62-7.42-2.29-2.52-4.51-4.92-6.15-6.69-.81-.88-1.5-1.61-1.96-2.12-.24-.25-.42-.45-.55-.59l-.19-.21s0,0-.55.51Z"/><path class="cls-1" d="M1122.03,216.09c.41.02.72.38.7.79-.19,3.14-1.23,5.35-2.81,7.87-.22.35-.68.45-1.03.24-.35-.22-.46-.68-.24-1.03,1.51-2.41,2.42-4.38,2.59-7.17.02-.41.37-.72.79-.7Z"/><path class="cls-3" d="M976.19,163.21v-25.87c4.35-2.04,7.36-6.42,7.36-11.53,0-6.42-4.77-11.72-10.97-12.6v11.34c0,1.01-.82,1.83-1.85,1.83s-1.84-.82-1.84-1.83v-11.33c-6.17.91-10.91,6.19-10.91,12.59,0,5.1,3.02,9.49,7.36,11.53v25.87c-4.35,2.04-7.36,6.42-7.36,11.53,0,6.4,4.74,11.68,10.91,12.59v-11.33c0-1.01.82-1.83,1.84-1.83s1.85.82,1.85,1.83v11.34c6.2-.88,10.97-6.18,10.97-12.6,0-5.1-3.02-9.49-7.36-11.53Z"/><path class="cls-7" d="M1009.86,125.69h-2.31v43.35h2.31v-43.35Z"/><path class="cls-7" d="M1012.43,113.12h-7.02l-2.68,13.61h12.39l-2.68-13.61Z"/><path class="cls-5" d="M1020.85,157.79h-24.26v2.45h24.26v-2.45Z"/><path class="cls-5" d="M1001.88,159.02h13.23v24.22c0,3.64-2.96,6.6-6.62,6.6s-6.61-2.96-6.61-6.6v-24.22h0Z"/><path class="cls-3" d="M1045.35,110.79l7.48,13.61.52,62.8h-15.58l-.5-62.73,8.07-13.68Z"/><path class="cls-7" d="M1048.87,117.21l-3.52-6.42-4.01,6.81,7.54-.39Z"/><path class="cls-5" d="M970.71,134.22c1.24,0,2.24-1,2.24-2.23s-1.01-2.23-2.24-2.23-2.24,1-2.24,2.23,1.01,2.23,2.24,2.23Z"/><path class="cls-5" d="M970.71,169.96c1.24,0,2.24-1,2.24-2.23s-1.01-2.23-2.24-2.23-2.24,1-2.24,2.23,1.01,2.23,2.24,2.23Z"/><path class="cls-2" d="M1048.07,123.59c.41,0,.75.33.75.74l.25,59.94c0,.41-.33.75-.75.75-.41,0-.75-.33-.75-.74l-.25-59.94c0-.41.33-.75.75-.75Z"/><path class="cls-2" d="M1042.09,123.59c.42,0,.75.33.75.74l.25,59.94c0,.41-.33.75-.74.75-.42,0-.75-.33-.75-.74l-.25-59.94c0-.41.32-.75.74-.75Z"/><path class="cls-3" d="M1031.22,214.57h43.43v-10.87h-43.43l-9.97,5.44,9.97,5.44Z"/><path class="cls-3" d="M1074.65,198.26c4.88,0,8.84,3.95,8.84,8.81v4.88c0,4.86-3.96,8.81-8.84,8.81v-22.5h0Z"/><path class="cls-2" d="M1031.94,201.26c.39-.12.81.1.93.5l4.32,14.25c.12.39-.1.81-.5.93-.39.12-.81-.1-.93-.5l-4.32-14.25c-.12-.39.1-.81.5-.93Z"/><path class="cls-2" d="M1037.35,201.26c.4-.12.81.1.93.5l4.33,14.25c.12.39-.11.81-.5.93-.4.12-.81-.1-.93-.5l-4.33-14.25c-.12-.39.11-.81.5-.93Z"/><path class="cls-2" d="M1042.77,201.26c.39-.12.81.1.93.5l4.32,14.25c.12.39-.1.81-.5.93-.39.12-.81-.1-.93-.5l-4.32-14.25c-.12-.39.1-.81.5-.93Z"/><path class="cls-2" d="M1048.18,201.26c.4-.12.81.1.93.5l4.32,14.25c.12.39-.1.81-.5.93-.39.12-.81-.1-.93-.5l-4.32-14.25c-.12-.39.11-.81.5-.93Z"/><path class="cls-2" d="M1053.6,201.26c.39-.12.81.1.93.5l4.32,14.25c.12.39-.11.81-.5.93-.4.12-.81-.1-.93-.5l-4.32-14.25c-.12-.39.1-.81.5-.93Z"/><path class="cls-2" d="M1059.01,201.26c.39-.12.81.1.93.5l4.32,14.25c.12.39-.1.81-.5.93-.39.12-.81-.1-.93-.5l-4.32-14.25c-.12-.39.1-.81.5-.93Z"/><path class="cls-2" d="M1078.42,209.51c0-.41.33-.74.75-.74h4.32c.41,0,.75.33.75.74s-.34.74-.75.74h-4.32c-.42,0-.75-.33-.75-.74Z"/><path class="cls-7" d="M1022.9,36.36c-3.13-1.65-7.18-2.67-12.49-2.78,3.78-9.23,13.19-20.6,13.19-20.6,0,0,12.85-8.9-17.19-12.86-22.49-1.32-31.36,15.45-31.36,15.45,0,0-21.73,27.69-18.14,52.18-3.4,7.35-5.73,22.61,2.71,34.28,4.82,7.41,11.59.75,7.81-8.54-2.99-6.27,0-11.81,0-11.81,0,0,5.66,8.42,15.87,11.18,10.2,2.76,14.48-2.26,14.48-2.26,0,0,7.33.4,6.82-3.38,3.97,2.87,10.42,2.74,15.15-1.48,4.72-4.22,8.01-8.58,4.24-11.41-3.78-2.82-6.67-.12-9.45,3.01-3.44,3.87-8.56-3.91-8.89-7.18-.66-6.45-2.19-14.67.84-15.42.86-.22,2.16-.7,3.6-1.18,2.38-6.52,7.99-12.75,12.83-17.22h0Z"/><path class="cls-1" d="M979.55,75.83h0s-.71.21-.71.21q.71-.21.71-.21h0s0,0,0,0v.03s.02.06.04.11c.03.1.08.25.15.44.15.38.37.93.67,1.59.62,1.33,1.6,3.09,3,4.86,2.82,3.52,7.36,7,14.35,7,.42,0,.75.33.75.74s-.33.74-.75.74c-7.57,0-12.5-3.8-15.51-7.56-1.5-1.88-2.54-3.75-3.19-5.16-.32-.7-.57-1.29-.71-1.71-.07-.21-.13-.37-.17-.49-.02-.06-.03-.1-.04-.13,0-.02,0-.03,0-.04h0s0-.02.71-.23"/><path class="cls-1" d="M991.6,69.51q-.74-.07-.74-.07h0s0,.03,0,.05v.12c0,.1-.02.24-.02.42,0,.36,0,.87.06,1.5.12,1.26.43,3,1.2,4.93,1.55,3.88,4.94,8.46,12.21,11.46.38.16.82-.02.98-.4.16-.38-.02-.82-.41-.97-6.88-2.84-9.99-7.11-11.4-10.63-.71-1.77-.99-3.37-1.1-4.52-.05-.57-.06-1.04-.06-1.35,0-.16,0-.28.02-.35,0-.04,0-.07,0-.09v-.02h0c.04-.41-.26-.78-.67-.82-.41-.04-.77.26-.81.67l.74.07Z"/><path class="cls-5" d="M1036.81,81.22c2.88,0,5.22-2.33,5.22-5.21s-2.34-5.21-5.22-5.21-5.23,2.33-5.23,5.21,2.34,5.21,5.23,5.21Z"/><path class="cls-3" d="M1060.34,79.86v-7.69h-5.77c-.47-2.12-1.3-4.1-2.43-5.88l4.06-4.06-5.45-5.44-4.04,4.03c-1.79-1.16-3.78-2.01-5.93-2.49v-5.65h-7.71v5.6c-2.17.45-4.21,1.3-6.02,2.45l-3.94-3.93-5.46,5.44,3.92,3.9c-1.18,1.81-2.04,3.85-2.52,6.03h-5.52v7.69h5.52c.47,2.18,1.34,4.21,2.52,6.03l-3.92,3.9,5.46,5.44,3.94-3.93c1.81,1.15,3.84,2,6.02,2.45v5.6h7.71v-5.65c2.14-.48,4.14-1.33,5.93-2.49l4.04,4.03,5.45-5.44-4.06-4.06c1.13-1.77,1.96-3.75,2.43-5.88h5.77ZM1036.81,87.18c-6.19,0-11.21-5-11.21-11.17s5.01-11.17,11.21-11.17,11.2,5,11.2,11.17-5.01,11.17-11.2,11.17Z"/><path class="cls-7" d="M1022.9,36.36c-4.84,4.47-10.45,10.7-12.83,17.22,3.58-1.2,8.04-2.38,8.99.58,1.32,4.15,1.13,10.74,7.56,9.23,6.43-1.51,5.08-18.5,1.68-22.65-1.41-1.72-3.17-3.21-5.39-4.38h0Z"/><circle class="cls-10" cx="940.83" cy="93.37" r="33.25"/></svg>
