<svg xmlns="http://www.w3.org/2000/svg" width="317" height="215" fill="none" viewBox="0 0 317 215"><g clip-path="url(#a)"><path fill="#ff8d7e" d="M34.73 146.315h30.875a19.12 19.12 0 0 1 13.56 5.65 19.35 19.35 0 0 1 5.616 13.64v47.997H15.555v-47.997a19.35 19.35 0 0 1 5.616-13.64 19.12 19.12 0 0 1 13.56-5.65"/><path fill="#2e186a" d="M101.155 155.518c-4.623-4.324-21.453-15.565-44.49-.855-8.83 4.996-15.188 13.442-24.075 27.297-13.105 20.431-.448 31.716 7.001 31.716s90.291-.658 90.291-.658 3.226-32.146-28.727-57.5"/><path fill="#fff" d="m66.564 151.43-2.978 3.081s14.186 10.848 18.792 36.988c2.998 16.983 1.974 18.891 1.974 18.891l8.792-.473s-4.9-28.245-1.853-37.184c3.046-8.938.262-18.974-1.802-20.599s-22.925-.704-22.925-.704M90.81 148.215l-15.258 1.903-1.198-5.996-4.337-1.408-.33 5.717"/><path fill="#2e186a" fill-rule="evenodd" d="M69.785 142.371a.41.41 0 0 1 .361-.053l4.337 1.409c.143.046.25.166.279.314l1.122 5.616 14.878-1.855a.415.415 0 0 1 .102.826l-15.26 1.903a.414.414 0 0 1-.456-.331l-1.15-5.756-3.597-1.168-.299 5.18a.414.414 0 1 1-.826-.048l.33-5.718a.41.41 0 0 1 .18-.319" clip-rule="evenodd"/><path fill="#fff" d="m69.689 148.432-2.816 3.25s3.173 7.838 16.278 14.294c0 0 6.512-6.917 7.654-17.755"/><path fill="#2e186a" fill-rule="evenodd" d="M90.849 147.807a.415.415 0 0 1 .367.458c-.578 5.492-2.517 9.986-4.308 13.106a33 33 0 0 1-2.394 3.609 22 22 0 0 1-.983 1.195l-.057.064-.016.016-.004.005-.002.002-.3-.286.3.286a.41.41 0 0 1-.483.088c-6.601-3.252-10.715-6.859-13.182-9.666-1.233-1.403-2.053-2.605-2.568-3.461a14 14 0 0 1-.555-1.006 8 8 0 0 1-.13-.274l-.032-.074-.009-.021-.002-.006v-.002h-.001l.383-.158-.383.157a.42.42 0 0 1 .07-.43l2.816-3.251a.413.413 0 0 1 .584-.04c.173.151.19.414.04.588l-2.64 3.047.045.093c.108.217.278.538.523.946.49.816 1.281 1.977 2.48 3.34 2.36 2.687 6.305 6.164 12.645 9.331l.067-.077c.176-.205.43-.512.739-.915a32 32 0 0 0 2.332-3.516c1.75-3.049 3.639-7.431 4.202-12.778a.415.415 0 0 1 .456-.37" clip-rule="evenodd"/><path fill="#fff" d="M90.121 149.713s3.403 7.032-1.315 16.885c0 0-1.655-4.441-5.656-.628.007 0 6.208-6.45 6.971-16.257"/><path fill="#2e186a" fill-rule="evenodd" d="m90.493 149.53-.372.182zv.001l.001.002.003.005.009.019a9 9 0 0 1 .136.322c.088.222.207.546.333.965.253.837.537 2.052.67 3.579.267 3.057-.072 7.354-2.466 12.355a.414.414 0 0 1-.76-.034v-.001l-.002-.006-.012-.029-.052-.118a4 4 0 0 0-.22-.409c-.202-.33-.498-.713-.89-.985a1.9 1.9 0 0 0-1.453-.326c-.608.101-1.388.481-2.35 1.397l-.011.011-.019.016a.8.8 0 0 1-.26.092.418.418 0 0 1-.287-.716l.007-.008q.016-.015.048-.051.067-.07.192-.213c.167-.19.408-.475.7-.847a28 28 0 0 0 2.185-3.242c1.625-2.802 3.338-6.805 3.713-11.629a.413.413 0 0 1 .785-.15m-5.37 14.652q.272-.091.53-.134a2.73 2.73 0 0 1 2.06.462c.484.335.835.779 1.07 1.147 2.006-4.525 2.28-8.392 2.038-11.161-.103-1.178-.3-2.16-.497-2.909-.622 4.161-2.157 7.628-3.614 10.142a30 30 0 0 1-1.587 2.453" clip-rule="evenodd"/><path fill="#fff" d="M91.312 196.822c2.253.52 4.052 1.027 4.552 1.404 1.617 1.228 8.327 7.841 8.573 8.919.245 1.079-1.721 1.677-3.346.016l-4.784-4.59s4.874 5.58 5.252 6.434c.378.853-1.527 2.359-4.344-1.23s-3.264-3.622-3.264-3.622 3.22 4.516 3.647 5.54c.428 1.024-2.285 1.985-4.776-2.752l-14.894-.655.873-11.889s7.419 1.249 12.51 2.428"/><path fill="#2e186a" fill-rule="evenodd" d="m78.87 193.987-.07.411zl.084.015.245.041.911.158c.776.136 1.864.329 3.111.559 2.478.457 5.59 1.061 8.136 1.648l.047.008c1.13.261 2.153.52 2.96.763.402.121.757.24 1.046.355.28.111.53.23.702.359l.002.001c.835.635 2.936 2.616 4.845 4.555a66 66 0 0 1 2.573 2.746c.348.4.645.761.865 1.061q.166.226.277.414c.069.118.136.252.166.383.094.412-.028.794-.297 1.073-.258.268-.629.422-1.031.468-.656.076-1.45-.125-2.199-.687q.136.179.246.332c.166.229.31.444.378.597.17.385.067.805-.183 1.108-.254.307-.659.506-1.151.528-.803.036-1.817-.393-2.95-1.559.147.25.262.464.327.619.192.461.01.916-.364 1.174-.356.244-.862.307-1.407.177-1.068-.256-2.399-1.264-3.64-3.536l-14.66-.644a.415.415 0 0 1-.394-.447l.873-11.889a.414.414 0 0 1 .481-.38m15.08 10.167c.031-.416.033-.415.034-.415h.003l.006.001h.003l.009.001.015.002.007.001a.5.5 0 0 1 .116.038q.07.031.155.089c.114.079.277.213.518.45.482.476 1.31 1.397 2.723 3.197 1.378 1.754 2.445 2.148 3.028 2.122.289-.012.465-.125.55-.228.089-.108.082-.196.064-.237a3.4 3.4 0 0 0-.291-.446 23 23 0 0 0-.635-.829 96 96 0 0 0-1.78-2.162 214 214 0 0 0-2.27-2.651l-.154-.178-.054-.062v-.001l.31-.274-.31.274a.42.42 0 0 1 .023-.575.413.413 0 0 1 .573-.001l4.784 4.59.001.001.008.008c.738.754 1.514.958 2.032.898.263-.03.438-.124.531-.22a.31.31 0 0 0 .084-.308q.002 0-.015-.038a1 1 0 0 0-.057-.109 4 4 0 0 0-.23-.342c-.2-.273-.48-.614-.821-1.006a65 65 0 0 0-2.54-2.709c-1.912-1.943-3.973-3.882-4.755-4.476-.078-.059-.241-.145-.508-.251-.26-.102-.59-.214-.98-.331a47 47 0 0 0-2.908-.746c-2.537-.587-5.657-1.193-8.147-1.652-1.244-.229-2.33-.422-3.103-.557l-.789-.137-.808 11.004 14.468.637c.147.006.28.09.348.221 1.218 2.316 2.44 3.141 3.212 3.326.39.093.64.02.75-.055.09-.063.088-.112.067-.163-.09-.217-.351-.66-.718-1.234a74 74 0 0 0-1.226-1.846 171 171 0 0 0-1.52-2.184l-.103-.144-.035-.05v-.001zm0 0-.336.242a.418.418 0 0 1 .367-.658z" clip-rule="evenodd"/><path fill="#2e186a" d="M52.694 213.601s23.874-1.625 26.55-2.319 1.683-2.66 3.623-3.411 2.558-1.353 2.558-1.353c-2.512-4.033 0-10.715 0-10.715s-.658-.18-2.693-.601c-2.035-.42-1.38-2.528-4.128-2.775s-26.387 2.48-26.387 2.48"/><path fill="#2e186a" fill-rule="evenodd" d="M53.42 187.696a.415.415 0 0 1 .452-.374l-.04.415.04-.415h.001l.002.001h.005l.014.002.046.006q.06.007.163.027c.138.026.333.07.567.142.47.143 1.105.399 1.776.851 1.354.911 2.824 2.596 3.415 5.667a.413.413 0 1 1-.813.158c-.548-2.849-1.89-4.343-3.062-5.133a6 6 0 0 0-1.556-.747 5 5 0 0 0-.605-.141l-.029-.003-.005-.001a.416.416 0 0 1-.371-.455" clip-rule="evenodd"/><path fill="#2e186a" d="M83.196 208.151c2.097-.795 2.768-1.434 2.768-1.434-2.72-4.269 0-11.343 0-11.343s-.713-.192-2.915-.637c-.885-.179-1.3-.648-1.672-1.162-4.508 5.145-1.801 14.18-.598 17.457 1.056-.934.826-2.279 2.417-2.881"/><path fill="#2e186a" fill-rule="evenodd" d="M72.622 170.202a.55.55 0 0 1 .736.26l-.498.241.498-.24.004.007.01.022.04.083.147.319a89.066 89.066 0 0 1 2.184 5.216c1.225 3.218 2.55 7.301 2.872 10.637a.553.553 0 1 1-1.099.107c-.306-3.178-1.584-7.143-2.804-10.347a88 88 0 0 0-2.154-5.147l-.183-.391-.009-.02-.003-.006a.557.557 0 0 1 .259-.741M94.202 170.582a.554.554 0 0 1 .414.665l-.002.006-.004.019-.017.076-.064.297c-.056.261-.134.641-.227 1.118a78 78 0 0 0-.64 3.836c-.437 3.093-.781 6.956-.444 10.138a.553.553 0 1 1-1.097.118c-.352-3.322.008-7.295.448-10.412a79 79 0 0 1 .88-5.03l.067-.306.018-.08.004-.021.002-.008.538.125-.538-.125a.55.55 0 0 1 .662-.416" clip-rule="evenodd"/><path fill="#6a6af4" d="M146.611 213.468c.341 0 .673-.116.942-.33.268-.213.456-.511.535-.846l8.331-35.475a1.54 1.54 0 0 0-.287-1.298 1.51 1.51 0 0 0-1.19-.58h-53.635a1.525 1.525 0 0 0-1.477 1.176l-7.457 31.754H72.932s-1.078 5.599 5.205 5.599"/><path fill="#fff" d="M124.238 188.594s2.465-.602 2.621 1.545c.005 0-1.963.794-2.621-1.545"/><path fill="#fff" d="M128.746 194.128a3.2 3.2 0 0 0-.792-.372c.359-.379.562-.88.567-1.403a1.41 1.41 0 0 0-.69-1.267c.235-.705.614-1.721.916-2.082a.414.414 0 0 0-.048-.587.42.42 0 0 0-.302-.097.41.41 0 0 0-.281.146c-.438.52-.892 1.804-1.112 2.482h-.046c-.856.159-1.548 1.04-1.543 1.97-.001.277.072.549.212.788a5.3 5.3 0 0 0-2.613 1.526c-1.557 1.666-1.517 3.886.084 4.942 1.602 1.056 4.171.555 5.728-1.11 1.558-1.665 1.524-3.879-.08-4.936M68.054 131.903s-5.303.104-4.354 4.878 6.809 2.014 6.809 2.014l-.785-6.788z"/><path fill="#2e186a" fill-rule="evenodd" d="m68.045 131.487.034.001 1.67.104c.2.013.363.167.386.368l.785 6.787a.42.42 0 0 1-.236.425l-.175-.377.175.377v.001h-.002l-.004.002-.007.004-.008.003-.054.024q-.07.032-.198.084c-.17.07-.412.162-.705.258-.583.19-1.382.397-2.222.446-.836.049-1.752-.055-2.533-.527-.797-.482-1.4-1.313-1.657-2.604-.253-1.27-.096-2.273.32-3.055.415-.776 1.063-1.288 1.718-1.626a6.5 6.5 0 0 1 1.837-.598 7 7 0 0 1 .804-.094l.05-.002h.015l.005-.001zl.01.417zm.002.833-.033.002q-.051.002-.152.01a7 7 0 0 0-.552.073 5.7 5.7 0 0 0-1.6.518c-.553.285-1.053.693-1.366 1.279-.31.581-.46 1.381-.239 2.498.218 1.096.703 1.71 1.272 2.053.584.353 1.311.454 2.059.41.744-.044 1.469-.229 2.014-.407.25-.082.46-.161.612-.222l-.71-6.132z" clip-rule="evenodd"/><path fill="#fff" d="M83.16 116.862c1.397-.117 10.972-.723 12.02 7.313 1.046 8.037-.084 16.907-.967 20.955-.882 4.048-7.75 14.251-13.957 11.892s-8.571-11.657-8.571-11.657l-2.514-12.34s-1.024-14.908 13.988-16.163"/><path fill="#2e186a" fill-rule="evenodd" d="M89.178 117.859c-2.62-.815-5.299-.64-5.985-.583-3.681.308-6.354 1.45-8.299 2.969-1.947 1.521-3.188 3.438-3.977 5.329-.79 1.893-1.124 3.753-1.26 5.142a18 18 0 0 0-.087 1.667 12 12 0 0 0 .012.587l2.506 12.3.003.014.02.075q.027.1.084.29a26.23 26.23 0 0 0 1.814 4.466c1.352 2.592 3.433 5.392 6.392 6.517 1.425.541 2.903.371 4.361-.284 1.464-.658 2.89-1.799 4.169-3.156a24.3 24.3 0 0 0 3.245-4.375c.854-1.47 1.425-2.824 1.633-3.776.876-4.018 1.999-12.838.96-20.812-.496-3.805-2.989-5.562-5.59-6.37m-17.494 27.505-.4.103-.005-.019-2.514-12.34-.007-.055.413-.029-.413.029v-.004l-.001-.01-.008-.168q-.007-.173-.007-.491c.002-.421.02-1.022.091-1.745.142-1.445.49-3.392 1.32-5.383.832-1.993 2.15-4.038 4.233-5.665 2.086-1.629 4.915-2.821 8.739-3.141.711-.059 3.52-.246 6.297.617 2.798.869 5.616 2.826 6.167 7.058 1.055 8.098-.082 17.019-.971 21.098-.234 1.072-.852 2.511-1.728 4.018a25 25 0 0 1-3.359 4.528c-1.323 1.404-2.834 2.625-4.431 3.343-1.603.72-3.312.941-4.991.303-3.249-1.235-5.453-4.263-6.834-6.909a27 27 0 0 1-1.874-4.615q-.058-.2-.088-.307l-.022-.082-.004-.015-.002-.007-.001-.006v-.002z" clip-rule="evenodd"/><path fill="#2e186a" d="M95.06 126.14c-7.783.349-12.288-.506-14.784-2.414 1.856 1.122-.232 12.79-11.76 10.995 0 0-2.483-3.886-3.449-7.91-.906-3.789.842-7.763 4.332-9.461 2.919-1.422 5.083-.306 5.083-.306s-3.097-5.306 1.55-9.992a8.45 8.45 0 0 1 6.22-2.498c5.675.168 7.43 4.996 7.43 4.996s9.749-4.569 12.094 2.509-1.982 13.877-6.717 14.081"/><path fill="#2e186a" fill-rule="evenodd" d="M84.132 144.913a.552.552 0 1 0-1.09.177l.545-.088-.545.088v.002l.001.003.001.009.005.028q.006.034.02.088a3.466 3.466 0 0 0 .492 1.159c.208.312.51.633.937.845.434.215.957.298 1.57.19a.554.554 0 0 0 .45-.641.55.55 0 0 0-.639-.452c-.404.07-.688.009-.893-.093a1.35 1.35 0 0 1-.511-.47 2.4 2.4 0 0 1-.343-.845M89.223 135.371a.55.55 0 0 1 .61.488l.838 7.343a.56.56 0 0 1-.186.481c-.136.12-.323.165-.499.12l-2.573-.662a.556.556 0 0 1 .274-1.076l1.796.462-.746-6.541a.554.554 0 0 1 .486-.615" clip-rule="evenodd"/><path fill="#2e186a" d="M92.117 137.214c.413 0 .748-.521.748-1.164s-.335-1.164-.748-1.164-.748.521-.748 1.164.335 1.164.748 1.164M84.918 137.086c.413 0 .747-.521.747-1.164s-.334-1.164-.747-1.164-.748.521-.748 1.164.335 1.164.748 1.164"/><path fill="#2e186a" fill-rule="evenodd" d="M84.694 129.801a2.86 2.86 0 0 0-2.723 1.077.55.55 0 0 1-.774.096.557.557 0 0 1-.096-.779 4 4 0 0 1 1.681-1.263 3.95 3.95 0 0 1 2.086-.227.554.554 0 0 1-.174 1.096M91.785 129.666v-.001l.01-.002.05-.01q.07-.016.2-.032a2.6 2.6 0 0 1 .63 0c.452.06.862.259 1.039.835a.552.552 0 1 0 1.054-.328c-.347-1.129-1.234-1.512-1.948-1.608a3.6 3.6 0 0 0-.906-.001 4 4 0 0 0-.284.044l-.083.018-.025.006-.008.002-.003.001h-.001v.001l.137.534-.138-.534a.555.555 0 0 0 .276 1.075M.465 213.675c0-.23.185-.416.414-.416h174.479c.229 0 .414.186.414.416s-.185.416-.414.416H.878a.415.415 0 0 1-.413-.416" clip-rule="evenodd"/><path fill="#fff" d="M69.156 146.906s-4.304.383-4.328 4.556c-.023 4.173 12.392 16.106 12.392 16.106s3.187-4.995 5.932-1.598c.007 0-18.335-14.053-13.996-19.064"/><path fill="#2e186a" fill-rule="evenodd" d="M69.524 146.718a.42.42 0 0 1-.056.462c-.894 1.032-.694 2.61.407 4.618 1.082 1.972 2.936 4.166 4.95 6.228 2.008 2.057 4.154 3.96 5.8 5.351.552.468 1.047.876 1.462 1.213.479.209.946.572 1.386 1.117l-.037.031c.015.149.001.454-.284.648a.4.4 0 0 1-.26-.092l-.006-.005-.039-.03-.153-.12a57 57 0 0 1-1.03-.823 1.8 1.8 0 0 0-.603-.113c-.56-.008-1.128.244-1.663.63-.53.384-.989.873-1.318 1.274a9 9 0 0 0-.381.496l-.1.143-.024.037-.005.009-.001.002a.416.416 0 0 1-.635.076l.286-.301-.286.301v-.001l-.01-.008-.026-.026-.105-.102-.396-.388c-.34-.336-.827-.82-1.41-1.413a122 122 0 0 1-4.28-4.575c-1.556-1.758-3.12-3.656-4.294-5.382-.587-.863-1.084-1.692-1.434-2.446-.347-.745-.568-1.455-.565-2.069.013-2.267 1.204-3.528 2.382-4.202a6.3 6.3 0 0 1 2.262-.759l.042-.005.013-.002h.005l.038.415-.037-.415a.41.41 0 0 1 .405.226m7.638 20.215q.119-.16.28-.357c.354-.43.864-.978 1.473-1.419.476-.344 1.037-.64 1.648-.746l-.471-.396c-1.657-1.401-3.824-3.323-5.858-5.406-2.028-2.077-3.946-4.336-5.083-6.409-.91-1.657-1.388-3.328-.846-4.688-.33.101-.716.25-1.1.47-.98.56-1.953 1.577-1.963 3.483-.003.43.159 1.006.487 1.711.324.698.794 1.486 1.367 2.328 1.146 1.685 2.683 3.553 4.228 5.3a121 121 0 0 0 4.25 4.542c.581.59 1.064 1.071 1.402 1.404zm5.732-.638-.001-.001z" clip-rule="evenodd"/><path fill="#fff" d="M83.566 167.568s3.278 8.439 3.984 26.007z"/><path fill="#2e186a" fill-rule="evenodd" d="M83.416 167.181a.413.413 0 0 1 .536.236l-.386.152.386-.151v.002l.003.005.008.021.029.078.108.306c.093.27.225.674.386 1.212a61 61 0 0 1 1.212 4.856c.913 4.328 1.912 10.853 2.266 19.66a.415.415 0 1 1-.827.034c-.352-8.76-1.345-15.239-2.248-19.521a60 60 0 0 0-1.196-4.789 30 30 0 0 0-.478-1.47l-.026-.071-.006-.016-.002-.004v-.001a.417.417 0 0 1 .235-.539M79.843 133.267a.414.414 0 0 1 .411-.371h7.864c.2 0 .371.144.407.342l-.407.074.407-.074v.002l.001.005.003.016a8 8 0 0 1 .038.273c.023.182.05.441.064.752.03.617.017 1.452-.163 2.295-.18.841-.532 1.722-1.206 2.395-.684.683-1.66 1.115-3.007 1.115-1.277 0-2.22-.437-2.896-1.116-.666-.667-1.046-1.54-1.264-2.376a9.8 9.8 0 0 1-.29-2.287 11 11 0 0 1 .03-.964l.005-.058.002-.016v-.007l.412.045zm.798.461c-.006.154-.01.348-.008.572.009.577.067 1.336.263 2.088.196.754.523 1.472 1.047 1.998.514.514 1.243.872 2.312.872 1.156 0 1.914-.363 2.424-.873.52-.52.82-1.23.98-1.979.16-.748.173-1.504.146-2.08a10 10 0 0 0-.048-.598zM89.915 133.246a.415.415 0 0 1 .411-.371h7.864c.2 0 .371.144.407.342l-.407.074.407-.073v.002l.001.004.003.017.01.058.029.214c.022.183.049.442.064.752.03.618.017 1.452-.164 2.295-.18.841-.532 1.722-1.206 2.395-.683.684-1.66 1.115-3.007 1.115-1.276 0-2.22-.437-2.896-1.115-.666-.668-1.046-1.541-1.263-2.377a9.8 9.8 0 0 1-.29-2.286 11 11 0 0 1 .03-.964q.002-.038.005-.059l.001-.016v-.006h.001l.411.044zm.798.462c-.006.153-.01.348-.007.571.008.577.067 1.336.262 2.088.197.755.523 1.473 1.047 1.998.514.515 1.243.873 2.312.873 1.156 0 1.914-.364 2.424-.873.52-.52.82-1.23.98-1.98.16-.747.174-1.504.146-2.079a10 10 0 0 0-.048-.598z" clip-rule="evenodd"/><path fill="#2e186a" fill-rule="evenodd" d="M88.1 134.54c0-.23.185-.416.413-.416h1.514a.416.416 0 0 1 0 .833h-1.514a.416.416 0 0 1-.413-.417M69.494 133.291c0-.23.185-.416.414-.416h9.633c.229 0 .414.186.414.416s-.185.417-.414.417h-9.633a.416.416 0 0 1-.414-.417" clip-rule="evenodd"/></g><g filter="url(#b)"><rect width="161.444" height="157.932" x="113.412" y=".92" fill="#fff" rx="8"/><rect width="160.444" height="156.932" x="113.912" y="1.42" stroke="#e6e6e6" rx="7.5"/></g><path fill="#161616" d="M123.154 33.08h.443v-2.717l.96 1.582h.339l.96-1.582v2.718h.442v-3.315h-.564l-1.008 1.672-1.007-1.672h-.565zM128.425 30.316l.551-.786h-.452l-.49.786zm.904 2.372-.297-.232a.88.88 0 0 1-.72.355c-.508 0-.871-.346-.885-.919h1.822a1.2 1.2 0 0 0 .028-.25c0-.588-.419-1.042-1.064-1.042-.734 0-1.195.563-1.195 1.288 0 .696.494 1.288 1.294 1.288.442 0 .795-.19 1.017-.488m-1.125-1.747c.419 0 .659.293.673.644h-1.422c.085-.412.358-.644.749-.644M130.078 32.28c0 .583.296.848.823.848.17 0 .297-.019.41-.066v-.36a.9.9 0 0 1-.353.057c-.287 0-.476-.104-.476-.478v-1.222h.824v-.364h-.824v-.597h-.404v.597h-.448v.364h.448zM132.12 30.074a.28.28 0 0 0 .278-.284.28.28 0 0 0-.56 0c0 .156.127.284.282.284m-.202 3.007h.4v-2.387h-.4zM135.272 32.688l-.297-.232a.88.88 0 0 1-.72.355c-.508 0-.871-.346-.885-.919h1.822a1.2 1.2 0 0 0 .028-.25c0-.588-.419-1.042-1.064-1.042-.734 0-1.195.563-1.195 1.288 0 .696.494 1.288 1.294 1.288.443 0 .796-.19 1.017-.488m-1.125-1.747c.419 0 .659.293.673.644h-1.421c.084-.412.357-.644.748-.644M135.898 33.08h.4v-1.637c.146-.242.349-.403.659-.403.094 0 .165.01.236.029v-.393a.7.7 0 0 0-.203-.029c-.301 0-.518.137-.692.346v-.298h-.4zM140.309 31.324l-.466-.568.706-.19-.109-.335-.677.265.042-.73h-.348l.042.734-.683-.27-.108.337.701.189-.456.568.282.204.391-.616.4.616z"/><g clip-path="url(#c)"><g clip-path="url(#d)"><path fill="#eee" d="M123.154 36.543a1 1 0 0 1 1-1h140.089a1 1 0 0 1 1 1V47.38H123.154z"/><g fill="#929292" clip-path="url(#e)"><path d="M127.861 43.199h.443v-1.454h.433q.051.001.103-.004l.956 1.458h.522l-1.063-1.543c.353-.143.555-.44.555-.839 0-.568-.41-.932-1.073-.932h-.876zm.895-2.936c.376 0 .597.209.597.545 0 .355-.221.559-.597.559h-.452v-1.104zM132.859 42.806l-.297-.232a.88.88 0 0 1-.72.355c-.508 0-.871-.346-.885-.918h1.822c.014-.067.028-.157.028-.251 0-.587-.419-1.042-1.064-1.042-.734 0-1.195.563-1.195 1.288 0 .696.494 1.288 1.294 1.288.443 0 .796-.19 1.017-.488m-1.125-1.747c.419 0 .659.293.673.644h-1.421c.084-.412.357-.644.748-.644M134.568 42.915c-.513 0-.875-.398-.875-.91 0-.506.362-.908.87-.908a.82.82 0 0 1 .683.35l.315-.241a1.22 1.22 0 0 0-.998-.488c-.786 0-1.289.592-1.289 1.288s.503 1.288 1.289 1.288c.433 0 .777-.19.998-.488l-.315-.241a.82.82 0 0 1-.678.35M136.11 43.199h.4v-1.652c.151-.247.362-.45.711-.45.371 0 .607.246.607.672v1.43h.4v-1.444c0-.677-.395-1.037-.927-1.037-.353 0-.598.151-.791.364v-1.434h-.4zM141.142 42.806l-.297-.232a.88.88 0 0 1-.72.355c-.508 0-.871-.346-.885-.918h1.822c.014-.067.028-.157.028-.251 0-.587-.419-1.042-1.064-1.042-.734 0-1.195.563-1.195 1.288 0 .696.494 1.288 1.294 1.288.443 0 .796-.19 1.017-.488m-1.125-1.747c.419 0 .659.293.673.644h-1.421c.084-.412.357-.644.748-.644M141.768 43.199h.4v-1.638c.146-.242.349-.403.659-.403.094 0 .165.01.236.029v-.393a.7.7 0 0 0-.203-.029c-.301 0-.518.138-.692.346v-.298h-.4zM144.588 42.915c-.513 0-.875-.398-.875-.91 0-.506.362-.908.871-.908.296 0 .536.142.682.35l.316-.241a1.23 1.23 0 0 0-.998-.488c-.786 0-1.29.592-1.29 1.288s.504 1.288 1.29 1.288c.433 0 .776-.19.998-.488l-.316-.241a.82.82 0 0 1-.678.35M146.13 43.199h.4v-1.652c.151-.247.363-.45.711-.45.372 0 .607.246.607.672v1.43h.4v-1.444c0-.677-.395-1.037-.927-1.037-.353 0-.598.151-.791.364v-1.434h-.4zM151.162 42.806l-.296-.232a.88.88 0 0 1-.72.355c-.509 0-.871-.346-.885-.918h1.821c.014-.067.029-.157.029-.251 0-.587-.419-1.042-1.064-1.042-.734 0-1.196.563-1.196 1.288 0 .696.495 1.288 1.295 1.288.442 0 .795-.19 1.016-.488m-1.125-1.747c.419 0 .659.293.674.644h-1.422c.085-.412.358-.644.748-.644M151.789 43.199h.4v-1.638c.146-.242.348-.403.659-.403.094 0 .164.01.235.029v-.393a.7.7 0 0 0-.202-.029c-.302 0-.518.138-.692.346v-.298h-.4zM156.58 42.176c0 .47-.254.739-.649.739-.405 0-.655-.27-.655-.739v-1.363h-.4v1.35c0 .714.41 1.13 1.05 1.13.645 0 1.054-.416 1.054-1.13v-1.35h-.4zM157.769 43.199h.4v-1.652c.15-.251.367-.45.711-.45.367 0 .607.246.607.672v1.43h.4v-1.444c0-.677-.396-1.037-.927-1.037-.353 0-.598.151-.791.364v-.27h-.4zM161.961 43.199h.4v-1.652c.136-.247.339-.45.664-.45.343 0 .56.227.56.625v1.477h.4v-1.491q-.001-.085-.01-.161c.156-.28.367-.45.669-.45.339 0 .56.227.56.625v1.477h.4v-1.491c0-.65-.372-.99-.88-.99-.41 0-.659.199-.848.46-.145-.304-.428-.46-.771-.46a.94.94 0 0 0-.744.355v-.26h-.4zM167.615 40.434l.551-.786h-.452l-.489.786zm.904 2.372-.297-.232a.88.88 0 0 1-.72.355c-.508 0-.871-.346-.885-.918h1.822c.014-.067.028-.157.028-.251 0-.587-.419-1.042-1.064-1.042-.734 0-1.195.563-1.195 1.288 0 .696.494 1.288 1.294 1.288.443 0 .796-.19 1.017-.488m-1.125-1.747c.419 0 .659.293.673.644h-1.421c.084-.412.357-.644.748-.644M169.268 42.399c0 .582.296.847.824.847.169 0 .296-.019.409-.066v-.36a.9.9 0 0 1-.353.057c-.287 0-.475-.104-.475-.478v-1.222h.823v-.364h-.823v-.597h-.405v.597h-.447v.364h.447zM171.31 40.192a.28.28 0 0 0 .278-.284.28.28 0 0 0-.278-.28.283.283 0 0 0-.282.28c0 .157.127.284.282.284m-.202 3.007h.4v-2.386h-.4zM174.462 42.806l-.296-.232a.88.88 0 0 1-.72.355c-.509 0-.871-.346-.885-.918h1.821c.014-.067.028-.157.028-.251 0-.587-.418-1.042-1.063-1.042-.735 0-1.196.563-1.196 1.288 0 .696.494 1.288 1.295 1.288.442 0 .795-.19 1.016-.488m-1.125-1.747c.419 0 .659.293.673.644h-1.421c.085-.412.358-.644.748-.644M175.089 43.199h.4v-1.638c.146-.242.348-.403.659-.403.094 0 .164.01.235.029v-.393a.7.7 0 0 0-.202-.029c-.302 0-.518.138-.692.346v-.298h-.4zM176.712 43.251a.301.301 0 0 0 0-.601.305.305 0 0 0-.306.303c0 .165.136.298.306.298M177.98 43.251a.3.3 0 1 0 0-.601.306.306 0 0 0-.306.303c0 .165.137.298.306.298M179.249 43.251a.301.301 0 0 0 0-.601.305.305 0 0 0-.306.303c0 .165.136.298.306.298"/></g></g><path stroke="#3a3a3a" stroke-width=".4" d="M123.154 47.18h142.089"/></g><path fill="#161616" d="M123.154 55.126h1.092v2.908h.443v-2.908h1.092v-.407h-2.627zM126.917 58.611l1.247-2.964h-.423l-.786 1.87-.796-1.87h-.442l1.026 2.382-.184.435c-.122.294-.31.384-.55.384a.7.7 0 0 1-.311-.066v.36a.8.8 0 0 0 .381.075c.4 0 .673-.208.838-.606M128.658 59.198h.4V57.75c.212.242.489.38.842.38.744 0 1.22-.593 1.22-1.289s-.476-1.288-1.22-1.288c-.353 0-.63.138-.842.38v-.285h-.4zm1.195-3.267c.504 0 .848.403.848.91 0 .506-.344.908-.848.908a.92.92 0 0 1-.795-.445v-.928a.92.92 0 0 1 .795-.445M133.897 57.64l-.297-.231a.88.88 0 0 1-.72.355c-.508 0-.871-.346-.885-.919h1.822a1.2 1.2 0 0 0 .028-.25c0-.588-.419-1.042-1.064-1.042-.734 0-1.195.563-1.195 1.287 0 .696.494 1.288 1.294 1.288.443 0 .796-.19 1.017-.487m-1.125-1.747c.419 0 .659.294.673.644h-1.422c.085-.412.358-.644.749-.644M135.589 56.84c0 .696.476 1.288 1.219 1.288.353 0 .631-.137.843-.379v.285h.4v-3.552h-.4v1.45a1.08 1.08 0 0 0-.843-.38c-.743 0-1.219.592-1.219 1.288m.424 0c0-.506.339-.909.842-.909a.93.93 0 0 1 .796.44v.938a.92.92 0 0 1-.796.44c-.503 0-.842-.402-.842-.909M141.003 57.64l-.297-.231a.88.88 0 0 1-.72.355c-.508 0-.87-.346-.885-.919h1.822a1.2 1.2 0 0 0 .028-.25c0-.588-.419-1.042-1.064-1.042-.734 0-1.195.563-1.195 1.287 0 .696.494 1.288 1.294 1.288.443 0 .796-.19 1.017-.487m-1.125-1.747c.419 0 .659.294.673.644h-1.421c.084-.412.357-.644.748-.644M143.99 57.75c-.513 0-.876-.398-.876-.91 0-.506.363-.909.871-.909a.82.82 0 0 1 .683.35l.315-.24a1.22 1.22 0 0 0-.998-.488c-.786 0-1.289.591-1.289 1.287s.503 1.288 1.289 1.288c.433 0 .777-.19.998-.487l-.315-.242a.82.82 0 0 1-.678.35M146.522 55.553c-.767 0-1.285.591-1.285 1.287s.518 1.288 1.285 1.288c.763 0 1.285-.592 1.285-1.288s-.522-1.288-1.285-1.288m.005 2.197c-.508 0-.871-.412-.871-.91 0-.497.363-.909.871-.909.494 0 .857.412.857.91 0 .492-.363.908-.857.908M148.451 58.034h.4V56.38c.15-.25.367-.45.71-.45.368 0 .608.247.608.673v1.43h.4V56.59c0-.678-.396-1.038-.928-1.038-.353 0-.597.152-.79.365v-.27h-.4zM151.51 57.233c0 .583.297.848.824.848.17 0 .297-.019.41-.066v-.36a.9.9 0 0 1-.353.057c-.287 0-.476-.105-.476-.479v-1.221h.824v-.365h-.824v-.596h-.405v.596h-.447v.365h.447zM153.35 58.034h.401v-1.639c.145-.241.348-.402.659-.402.094 0 .164.01.235.028v-.393a.7.7 0 0 0-.203-.028c-.301 0-.517.137-.691.346v-.299h-.401zM155.76 58.1c.306 0 .617-.137.796-.37v.304h.4v-1.6c0-.526-.358-.881-.96-.881-.414 0-.749.175-.956.459l.301.232a.77.77 0 0 1 .641-.332c.339 0 .574.19.574.521v.166l-.8.133c-.504.085-.777.34-.777.7 0 .407.315.668.781.668m-.376-.682c0-.203.146-.35.471-.407l.701-.119v.47a.83.83 0 0 1-.73.407c-.277 0-.442-.147-.442-.35M157.895 57.233c0 .583.297.848.824.848.169 0 .296-.019.409-.066v-.36a.9.9 0 0 1-.353.057c-.287 0-.475-.105-.475-.479v-1.221h.824v-.365h-.824v-.596h-.405v.596h-.447v.365h.447zM162.275 56.277l-.466-.568.706-.19-.109-.336-.677.265.042-.729h-.348l.042.734-.682-.27-.109.336.702.19-.457.568.282.204.391-.616.4.616z"/><path fill="#666" d="M164.867 58.053h1.77v-.38h-1.327v-1.121h1.139v-.374h-1.139v-1.061h1.327v-.379h-1.77zM167.393 58.053h.4V56.4c.151-.25.367-.45.711-.45.367 0 .607.246.607.673v1.43h.4v-1.445c0-.677-.395-1.036-.927-1.036-.353 0-.598.151-.791.364v-.27h-.4zM171.331 57.726c.216.27.513.421.889.421.443 0 .796-.28.801-.724 0-.815-1.191-.644-1.191-1.18 0-.184.136-.335.39-.335.208 0 .386.113.514.293l.277-.236a.97.97 0 0 0-.795-.394c-.457 0-.772.308-.772.682 0 .843 1.186.654 1.186 1.189 0 .208-.151.37-.414.37-.24 0-.438-.12-.603-.328zM174.308 58.119c.305 0 .616-.138.795-.37v.304h.4v-1.6c0-.526-.358-.882-.96-.882-.414 0-.749.176-.956.46l.302.232a.77.77 0 0 1 .64-.332c.339 0 .574.19.574.521v.166l-.8.133c-.504.085-.777.34-.777.7 0 .407.316.668.782.668m-.377-.682c0-.204.146-.35.471-.407l.701-.119v.47a.83.83 0 0 1-.73.406c-.277 0-.442-.146-.442-.35M175.925 55.666l.927 2.387h.527l.928-2.387h-.433l-.758 1.965-.758-1.965zM179.843 55.572c-.767 0-1.285.591-1.285 1.287s.518 1.288 1.285 1.288c.762 0 1.285-.592 1.285-1.288s-.523-1.288-1.285-1.288m.005 2.197c-.509 0-.871-.413-.871-.91s.362-.909.871-.909c.494 0 .856.412.856.91 0 .492-.362.909-.856.909M181.973 55.046a.28.28 0 0 0 .278-.284.28.28 0 0 0-.278-.28.283.283 0 0 0-.282.28c0 .156.127.284.282.284m-.202 3.007h.4v-2.387h-.4zM183.017 58.053h.4v-1.639c.146-.241.348-.402.659-.402.094 0 .164.01.235.028v-.393a.7.7 0 0 0-.202-.028c-.302 0-.518.137-.692.346v-.299h-.4zM186.156 59.217h.4V57.77c.212.24.49.378.843.378.743 0 1.219-.592 1.219-1.288s-.476-1.288-1.219-1.288c-.353 0-.631.138-.843.38v-.285h-.4zm1.196-3.267c.503 0 .847.403.847.91 0 .506-.344.909-.847.909a.92.92 0 0 1-.796-.446v-.928a.92.92 0 0 1 .796-.445M189.263 58.053h.4V54.5h-.4zM192.161 57.03c0 .469-.254.739-.649.739-.405 0-.655-.27-.655-.74v-1.363h-.4v1.35c0 .715.41 1.131 1.05 1.131.645 0 1.054-.416 1.054-1.131v-1.35h-.4zM193.086 57.726c.217.27.513.421.89.421.442 0 .795-.28.8-.724 0-.815-1.191-.644-1.191-1.18 0-.184.137-.335.391-.335.207 0 .386.113.513.293l.278-.236a.97.97 0 0 0-.796-.394c-.456 0-.772.308-.772.682 0 .843 1.186.654 1.186 1.189 0 .208-.15.37-.414.37-.24 0-.438-.12-.602-.328z"/><path fill="#666" fill-rule="evenodd" d="M199.092 55.666v.395h-.981v2.17h2.157v-.987h.393v1.184a.197.197 0 0 1-.197.197h-2.549a.197.197 0 0 1-.196-.197v-2.565c0-.109.088-.197.196-.197zm2.157-.592v1.579h-.392v-.905l-1.529 1.537-.277-.279 1.528-1.537h-.899v-.395z" clip-rule="evenodd"/><rect width="7.06" height="7.102" x="123.154" y="63.952" fill="#000091" rx="1"/><path fill="#f5f5fe" fill-rule="evenodd" d="m126.268 68.131 1.802-1.814.278.28-2.08 2.092-1.248-1.256.277-.279z" clip-rule="evenodd"/><path fill="#161616" d="M132.568 68.696h.471l.381-.975h1.516l.381.975h.471l-1.313-3.314h-.593zm.998-1.359.612-1.567.612 1.567zM136.418 69.86h.4v-1.448c.212.241.49.379.843.379.743 0 1.219-.592 1.219-1.288s-.476-1.288-1.219-1.288c-.353 0-.631.137-.843.379v-.284h-.4zm1.196-3.266c.503 0 .847.402.847.909s-.344.909-.847.909a.92.92 0 0 1-.796-.445v-.928a.92.92 0 0 1 .796-.445M139.525 69.86h.4v-1.448c.212.241.49.379.843.379.744 0 1.219-.592 1.219-1.288s-.475-1.288-1.219-1.288c-.353 0-.631.137-.843.379v-.284h-.4zm1.196-3.266c.503 0 .847.402.847.909s-.344.909-.847.909a.92.92 0 0 1-.796-.445v-.928a.92.92 0 0 1 .796-.445M142.633 68.696h.4v-1.638c.146-.242.348-.403.659-.403.094 0 .164.01.235.029v-.393a.7.7 0 0 0-.202-.029c-.302 0-.518.138-.692.346v-.298h-.4zM146.47 68.303l-.297-.232a.88.88 0 0 1-.72.355c-.508 0-.871-.345-.885-.918h1.822a1.2 1.2 0 0 0 .028-.251c0-.587-.419-1.042-1.064-1.042-.734 0-1.196.563-1.196 1.288 0 .696.495 1.288 1.295 1.288.442 0 .795-.19 1.017-.488m-1.125-1.747c.419 0 .659.294.673.644h-1.422c.085-.412.358-.644.749-.644M147.096 68.696h.4v-1.652c.151-.251.367-.45.711-.45.367 0 .607.246.607.672v1.43h.4v-1.444c0-.677-.395-1.037-.927-1.037-.353 0-.598.151-.791.365v-.27h-.4zM150.156 67.896c0 .582.296.847.823.847.17 0 .297-.018.41-.066v-.36a.9.9 0 0 1-.353.057c-.287 0-.476-.104-.476-.478v-1.222h.824v-.364h-.824v-.597h-.404v.597h-.447v.364h.447zM152.198 65.69a.28.28 0 0 0 .278-.285.28.28 0 0 0-.56 0c0 .157.127.284.282.284m-.202 3.006h.4V66.31h-.4zM152.969 68.37c.216.27.513.42.889.42.443 0 .796-.279.801-.724 0-.814-1.191-.644-1.191-1.179 0-.184.136-.336.39-.336.208 0 .386.114.513.294l.278-.237a.97.97 0 0 0-.795-.393c-.457 0-.772.308-.772.682 0 .843 1.186.653 1.186 1.188 0 .209-.151.37-.414.37-.24 0-.438-.119-.603-.327zM155.037 68.37c.217.27.513.42.89.42.442 0 .795-.279.8-.724 0-.814-1.191-.644-1.191-1.179 0-.184.137-.336.391-.336.207 0 .386.114.513.294l.278-.237a.97.97 0 0 0-.796-.393c-.456 0-.772.308-.772.682 0 .843 1.186.653 1.186 1.188 0 .209-.15.37-.414.37-.24 0-.438-.119-.602-.327zM158.014 68.762c.306 0 .617-.137.795-.369v.303h.4v-1.6c0-.526-.357-.881-.96-.881-.414 0-.748.175-.955.46l.301.231a.77.77 0 0 1 .64-.331c.339 0 .574.19.574.52v.166l-.8.133c-.503.085-.776.34-.776.7 0 .408.315.668.781.668m-.377-.681c0-.204.146-.35.471-.408l.701-.118v.469a.83.83 0 0 1-.729.407c-.278 0-.443-.147-.443-.35M159.739 69.127c0 .478.461.753 1.163.753.71 0 1.209-.374 1.209-.876 0-.426-.291-.734-.917-.734h-.678c-.146 0-.198-.071-.198-.17 0-.09.057-.176.155-.247.099.029.212.048.33.048.569 0 .922-.389.922-.843a.8.8 0 0 0-.098-.398h.513v-.35h-.881a1.05 1.05 0 0 0-.456-.1c-.565 0-.923.389-.923.848 0 .265.123.506.33.663-.184.118-.283.274-.283.464 0 .128.057.255.165.34-.235.166-.353.36-.353.602m1.069-1.544c-.353 0-.546-.232-.546-.525s.193-.53.546-.53c.343 0 .541.236.541.53 0 .289-.198.525-.541.525m-.678 1.497c0-.19.099-.332.263-.455h.768c.423 0 .55.18.55.407 0 .313-.315.512-.814.512-.471 0-.767-.175-.767-.464M164.63 68.303l-.296-.232a.88.88 0 0 1-.72.355c-.509 0-.871-.345-.885-.918h1.821c.015-.067.029-.157.029-.251 0-.587-.419-1.042-1.064-1.042-.734 0-1.196.563-1.196 1.288 0 .696.495 1.288 1.295 1.288.442 0 .795-.19 1.016-.488m-1.124-1.747c.418 0 .659.294.673.644h-1.422c.085-.412.358-.644.749-.644"/><rect width="6.66" height="6.702" x="172.481" y="64.152" stroke="#161616" stroke-width=".4" rx=".8"/><path fill="#161616" d="M181.695 69.241h.443v-1.454h.522c.659 0 1.069-.36 1.069-.928s-.41-.932-1.069-.932h-.965zm.975-2.936c.376 0 .602.209.602.545 0 .355-.226.559-.602.559h-.532v-1.104zM184.272 69.241h.4v-1.638c.146-.242.348-.403.659-.403.094 0 .164.01.235.029v-.393a.7.7 0 0 0-.202-.029c-.302 0-.518.138-.692.346v-.298h-.4zM187.083 66.76c-.768 0-1.285.592-1.285 1.288s.517 1.288 1.285 1.288c.762 0 1.285-.592 1.285-1.288s-.523-1.288-1.285-1.288m.004 2.197c-.508 0-.871-.412-.871-.91 0-.496.363-.908.871-.908.494 0 .857.412.857.909 0 .492-.363.909-.857.909M188.663 66.855v.364h.447v2.022h.405v-2.022h.824v-.364h-.824v-.303c0-.313.179-.498.447-.498.137 0 .245.043.335.11l.178-.337a1.03 1.03 0 0 0-.522-.137c-.518 0-.843.364-.843.871v.294zM192.802 68.848l-.297-.232a.88.88 0 0 1-.72.355c-.508 0-.871-.346-.885-.918h1.822c.014-.067.028-.157.028-.251 0-.588-.419-1.042-1.064-1.042-.734 0-1.195.563-1.195 1.288 0 .696.494 1.288 1.294 1.288.442 0 .795-.19 1.017-.488m-1.125-1.747c.419 0 .659.293.673.644h-1.422c.085-.412.358-.644.749-.644M193.155 68.914c.217.27.513.422.89.422.442 0 .795-.28.8-.725 0-.814-1.191-.644-1.191-1.179 0-.184.137-.336.391-.336.207 0 .386.114.513.294l.278-.237a.97.97 0 0 0-.796-.393c-.456 0-.772.308-.772.682 0 .843 1.187.653 1.187 1.188 0 .209-.151.37-.415.37-.24 0-.437-.119-.602-.327zM195.224 68.914c.216.27.513.422.889.422.443 0 .796-.28.801-.725 0-.814-1.191-.644-1.191-1.179 0-.184.136-.336.39-.336.208 0 .386.114.514.294l.277-.237a.97.97 0 0 0-.795-.393c-.457 0-.772.308-.772.682 0 .843 1.186.653 1.186 1.188 0 .209-.151.37-.414.37-.24 0-.438-.119-.603-.327zM197.767 66.234a.28.28 0 0 0 .278-.284.28.28 0 0 0-.278-.28.283.283 0 0 0-.282.28c0 .156.127.284.282.284m-.202 3.007h.4v-2.386h-.4zM199.893 66.76c-.767 0-1.285.592-1.285 1.288s.518 1.288 1.285 1.288c.763 0 1.285-.592 1.285-1.288s-.522-1.288-1.285-1.288m.005 2.197c-.509 0-.871-.412-.871-.91 0-.496.362-.908.871-.908.494 0 .856.412.856.909 0 .492-.362.909-.856.909M201.821 69.241h.4v-1.653c.151-.25.367-.45.711-.45.367 0 .607.247.607.673v1.43h.4v-1.444c0-.677-.395-1.037-.927-1.037-.353 0-.598.151-.791.364v-.27h-.4zM204.745 69.241h.4v-1.653c.15-.25.367-.45.711-.45.367 0 .607.247.607.673v1.43h.4v-1.444c0-.677-.396-1.037-.927-1.037-.353 0-.598.151-.791.364v-.27h-.4zM208.313 69.307c.306 0 .617-.137.795-.369v.303h.4v-1.6c0-.526-.357-.881-.96-.881-.414 0-.748.175-.955.46l.301.231a.77.77 0 0 1 .64-.331c.339 0 .574.19.574.52v.166l-.8.133c-.503.085-.776.34-.776.7 0 .408.315.668.781.668m-.377-.681c0-.204.146-.35.471-.408l.701-.118v.469a.83.83 0 0 1-.729.407c-.278 0-.443-.147-.443-.35M210.311 69.241h.4V65.69h-.4zM211.759 66.234a.28.28 0 0 0 .278-.284.28.28 0 0 0-.56 0c0 .156.127.284.282.284m-.202 3.007h.4v-2.386h-.4zM212.53 68.914c.216.27.513.422.889.422.443 0 .796-.28.801-.725 0-.814-1.191-.644-1.191-1.179 0-.184.136-.336.39-.336.208 0 .386.114.514.294l.277-.237a.97.97 0 0 0-.795-.393c-.457 0-.772.308-.772.682 0 .843 1.186.653 1.186 1.188 0 .209-.151.37-.414.37-.24 0-.438-.119-.603-.327zM215.507 69.307c.305 0 .616-.137.795-.369v.303h.4v-1.6c0-.526-.358-.881-.96-.881-.414 0-.749.175-.956.46l.302.231a.77.77 0 0 1 .64-.331c.339 0 .574.19.574.52v.166l-.8.133c-.504.085-.777.34-.777.7 0 .408.316.668.782.668m-.377-.681c0-.204.146-.35.471-.408l.701-.118v.469a.83.83 0 0 1-.73.407c-.277 0-.442-.147-.442-.35M217.641 68.44c0 .583.297.848.824.848.169 0 .296-.019.409-.066v-.36a.9.9 0 0 1-.353.057c-.287 0-.475-.104-.475-.478v-1.222h.824v-.364h-.824v-.597h-.405v.597h-.447v.364h.447zM219.684 66.234a.28.28 0 0 0 .277-.284.28.28 0 0 0-.277-.28.283.283 0 0 0-.283.28c0 .156.127.284.283.284m-.203 3.007h.4v-2.386h-.4zM221.809 66.76c-.767 0-1.285.592-1.285 1.288s.518 1.288 1.285 1.288c.763 0 1.285-.592 1.285-1.288s-.522-1.288-1.285-1.288m.005 2.197c-.508 0-.871-.412-.871-.91 0-.496.363-.908.871-.908.494 0 .857.412.857.909 0 .492-.363.909-.857.909M223.738 69.241h.4v-1.653c.15-.25.367-.45.71-.45.368 0 .608.247.608.673v1.43h.4v-1.444c0-.677-.396-1.037-.928-1.037-.353 0-.597.151-.79.364v-.27h-.4zM123.154 82.32h.443v-2.77l1.864 2.77h.579v-3.315h-.443v2.77l-1.864-2.77h-.579zM127.188 79.313a.28.28 0 0 0 .278-.285.28.28 0 0 0-.278-.279.284.284 0 0 0-.283.28c0 .156.128.284.283.284m-.202 3.006h.4v-2.386h-.4zM127.873 79.933l.928 2.386h.527l.927-2.386h-.433l-.758 1.965-.758-1.965zM132.817 81.926l-.296-.232a.88.88 0 0 1-.72.355c-.509 0-.871-.345-.885-.918h1.821c.014-.067.029-.157.029-.251 0-.587-.419-1.042-1.064-1.042-.734 0-1.196.564-1.196 1.288 0 .696.495 1.288 1.295 1.288.442 0 .795-.19 1.016-.488m-1.125-1.747c.419 0 .659.293.674.644h-1.422c.085-.412.358-.644.748-.644M134.07 82.385c.306 0 .617-.137.796-.369v.303h.4v-1.6c0-.526-.358-.88-.961-.88-.414 0-.748.174-.955.458l.301.232a.77.77 0 0 1 .64-.331c.339 0 .575.19.575.52v.166l-.801.133c-.503.085-.776.341-.776.7 0 .408.315.668.781.668m-.376-.681c0-.204.145-.35.47-.408l.702-.118v.469a.83.83 0 0 1-.73.407c-.278 0-.442-.147-.442-.35M137.72 81.296c0 .47-.254.74-.649.74-.405 0-.654-.27-.654-.74v-1.363h-.4v1.35c0 .714.409 1.13 1.049 1.13.645 0 1.054-.416 1.054-1.13v-1.35h-.4zM139.82 79.933l.927 2.386h.527l.928-2.386h-.433l-.758 1.965-.758-1.965zM142.894 79.313a.28.28 0 0 0 .278-.285.28.28 0 0 0-.278-.279.283.283 0 0 0-.282.28c0 .156.127.284.282.284m-.202 3.006h.4v-2.386h-.4zM143.665 81.992c.217.27.513.422.89.422.442 0 .795-.28.8-.725 0-.814-1.191-.643-1.191-1.179 0-.184.136-.336.391-.336.207 0 .386.114.513.294l.277-.237a.97.97 0 0 0-.795-.393c-.457 0-.772.308-.772.682 0 .843 1.186.653 1.186 1.188 0 .209-.151.37-.414.37-.24 0-.438-.119-.603-.327zM147.183 79.554l.551-.786h-.452l-.489.786zm.904 2.372-.296-.232a.88.88 0 0 1-.721.355c-.508 0-.87-.345-.884-.918h1.821c.014-.067.028-.157.028-.251 0-.587-.419-1.042-1.063-1.042-.735 0-1.196.564-1.196 1.288 0 .696.494 1.288 1.294 1.288.443 0 .796-.19 1.017-.488m-1.125-1.747c.419 0 .659.293.673.644h-1.421c.085-.412.357-.644.748-.644M152.091 81.926l-.297-.232a.88.88 0 0 1-.72.355c-.508 0-.871-.345-.885-.918h1.822c.014-.067.028-.157.028-.251 0-.587-.419-1.042-1.064-1.042-.734 0-1.195.564-1.195 1.288 0 .696.494 1.288 1.294 1.288.442 0 .795-.19 1.017-.488m-1.125-1.747c.419 0 .659.293.673.644h-1.422c.085-.412.358-.644.749-.644M152.717 82.32h.4v-1.653c.151-.251.367-.45.711-.45.367 0 .607.246.607.672v1.43h.4v-1.444c0-.677-.395-1.037-.927-1.037-.353 0-.598.152-.791.365v-.27h-.4zM156.598 79.933v.364h.448v2.022h.404v-2.022h.824v-.364h-.824v-.303c0-.313.179-.497.447-.497.137 0 .245.042.335.109l.179-.337a1.04 1.04 0 0 0-.523-.137c-.518 0-.842.365-.842.871v.294zM158.964 79.313a.28.28 0 0 0 .278-.285.28.28 0 0 0-.278-.279.284.284 0 0 0-.283.28c0 .156.128.284.283.284m-.203 3.006h.401v-2.386h-.401zM160.007 82.32h.4v-1.653c.151-.251.367-.45.711-.45.367 0 .607.246.607.672v1.43h.4v-1.444c0-.677-.395-1.037-.927-1.037-.353 0-.598.152-.791.365v-.27h-.4zM163.997 81.126c0 .696.475 1.288 1.219 1.288.353 0 .631-.138.842-.379v.284h.4v-3.551h-.4v1.449a1.07 1.07 0 0 0-.842-.379c-.744 0-1.219.592-1.219 1.288m.423 0c0-.507.339-.91.843-.91.325 0 .612.157.795.441v.938a.92.92 0 0 1-.795.44c-.504 0-.843-.402-.843-.909M167.476 80.274l.484-1.27h-.456l-.4 1.27zM169.495 79.554l.551-.786h-.452l-.49.786zm.904 2.372-.297-.232a.88.88 0 0 1-.72.355c-.508 0-.871-.345-.885-.918h1.822c.014-.067.028-.157.028-.251 0-.587-.419-1.042-1.064-1.042-.734 0-1.195.564-1.195 1.288 0 .696.494 1.288 1.294 1.288.443 0 .796-.19 1.017-.488m-1.125-1.747c.419 0 .659.293.673.644h-1.422c.085-.412.358-.644.749-.644M171.148 81.519c0 .582.296.847.823.847.17 0 .297-.018.41-.066v-.36a.9.9 0 0 1-.353.057c-.287 0-.475-.104-.475-.478v-1.222h.823v-.364h-.823v-.597h-.405v.597h-.447v.364h.447zM174.626 81.296c0 .47-.254.74-.649.74-.405 0-.655-.27-.655-.74v-1.363h-.4v1.35c0 .714.41 1.13 1.05 1.13.645 0 1.054-.416 1.054-1.13v-1.35h-.4zM175.612 81.126c0 .696.476 1.288 1.219 1.288.353 0 .631-.138.843-.379v.284h.4v-3.551h-.4v1.449a1.08 1.08 0 0 0-.843-.379c-.743 0-1.219.592-1.219 1.288m.424 0c0-.507.339-.91.842-.91a.93.93 0 0 1 .796.441v.938a.92.92 0 0 1-.796.44c-.503 0-.842-.402-.842-.909M181.026 81.926l-.297-.232a.88.88 0 0 1-.72.355c-.508 0-.87-.345-.885-.918h1.822c.014-.067.028-.157.028-.251 0-.587-.419-1.042-1.064-1.042-.734 0-1.195.564-1.195 1.288 0 .696.494 1.288 1.294 1.288.443 0 .796-.19 1.017-.488m-1.125-1.747c.419 0 .659.293.673.644h-1.421c.084-.412.357-.644.748-.644M181.38 81.992c.216.27.513.422.889.422.443 0 .796-.28.8-.725 0-.814-1.19-.643-1.19-1.179 0-.184.136-.336.39-.336.207 0 .386.114.513.294l.278-.237a.97.97 0 0 0-.795-.393c-.457 0-.772.308-.772.682 0 .843 1.186.653 1.186 1.188 0 .209-.151.37-.414.37-.24 0-.438-.119-.603-.327zM186.26 80.563l-.466-.569.706-.19-.108-.335-.678.265.043-.73h-.349l.043.735-.683-.27-.108.336.701.19-.456.567.282.204.391-.615.4.615z"/><g clip-path="url(#f)"><g clip-path="url(#g)"><path fill="#eee" d="M123.154 86.373a1 1 0 0 1 1-1h140.089a1 1 0 0 1 1 1V97.21H123.154z"/><g clip-path="url(#h)"><path fill="#161616" d="M129.593 92.707c-.743 0-1.275-.596-1.275-1.335s.532-1.335 1.275-1.335c.443 0 .805.217 1.027.54l.353-.275a1.69 1.69 0 0 0-1.38-.682c-1.03 0-1.732.805-1.732 1.752s.702 1.752 1.732 1.752c.594 0 1.078-.27 1.38-.682l-.353-.275c-.222.322-.584.54-1.027.54M131.607 93.03h.4v-1.653c.151-.247.363-.45.711-.45.372 0 .607.246.607.672v1.43h.4v-1.444c0-.677-.395-1.037-.927-1.037-.353 0-.598.151-.791.365v-1.435h-.4zM135.613 90.548c-.767 0-1.285.592-1.285 1.288s.518 1.288 1.285 1.288c.763 0 1.285-.592 1.285-1.288s-.522-1.288-1.285-1.288m.005 2.197c-.508 0-.871-.412-.871-.91 0-.496.363-.908.871-.908.494 0 .857.412.857.909 0 .492-.363.909-.857.909M137.744 90.022a.28.28 0 0 0 .277-.284.28.28 0 0 0-.277-.279.283.283 0 0 0-.283.28c0 .156.127.283.283.283m-.203 3.007h.4v-2.386h-.4zM138.514 92.702c.217.27.514.422.89.422.443 0 .796-.28.8-.725 0-.814-1.191-.644-1.191-1.179 0-.184.137-.336.391-.336.207 0 .386.114.513.294l.278-.237a.97.97 0 0 0-.796-.393c-.456 0-.772.308-.772.682 0 .843 1.187.653 1.187 1.188 0 .209-.151.37-.415.37-.24 0-.437-.119-.602-.327zM141.058 90.022a.28.28 0 0 0 .278-.284.28.28 0 0 0-.278-.279.284.284 0 0 0-.283.28c0 .156.128.283.283.283m-.203 3.007h.401v-2.386h-.401zM141.829 92.702c.216.27.513.422.889.422.443 0 .796-.28.8-.725 0-.814-1.19-.644-1.19-1.179 0-.184.136-.336.39-.336.207 0 .386.114.513.294l.278-.237a.97.97 0 0 0-.796-.393c-.456 0-.771.308-.771.682 0 .843 1.186.653 1.186 1.188 0 .209-.151.37-.415.37-.24 0-.437-.119-.602-.327zM143.897 92.702c.217.27.513.422.89.422.442 0 .795-.28.8-.725 0-.814-1.191-.644-1.191-1.179 0-.184.136-.336.391-.336.207 0 .386.114.513.294l.277-.237a.97.97 0 0 0-.795-.393c-.457 0-.772.308-.772.682 0 .843 1.186.653 1.186 1.188 0 .209-.15.37-.414.37-.24 0-.438-.119-.603-.327zM148.319 92.636l-.296-.232a.88.88 0 0 1-.721.355c-.508 0-.87-.345-.884-.918h1.821c.014-.067.028-.157.028-.251 0-.587-.419-1.042-1.063-1.042-.735 0-1.196.564-1.196 1.288 0 .696.494 1.288 1.294 1.288.443 0 .796-.19 1.017-.488m-1.125-1.747c.419 0 .659.294.673.644h-1.421c.085-.412.358-.644.748-.644M148.734 93.03h1.92v-.365h-1.435l1.402-1.658v-.364h-1.854v.364h1.365l-1.398 1.657zM154.224 92.006c0 .47-.254.739-.649.739-.405 0-.655-.27-.655-.739v-1.363h-.4v1.35c0 .714.41 1.13 1.05 1.13.645 0 1.054-.416 1.054-1.13v-1.35h-.4zM155.413 93.03h.4v-1.653c.15-.251.367-.45.711-.45.367 0 .607.246.607.672v1.43h.4v-1.444c0-.677-.396-1.037-.927-1.037-.353 0-.598.151-.791.365v-.27h-.4zM159.605 93.03h.4v-1.653c.15-.251.367-.45.711-.45.367 0 .607.246.607.672v1.43h.4v-1.444c0-.677-.395-1.037-.927-1.037-.353 0-.598.151-.791.365v-.27h-.4zM162.731 90.022a.28.28 0 0 0 .277-.284.28.28 0 0 0-.277-.279.283.283 0 0 0-.283.28c0 .156.127.283.283.283m-.203 3.007h.4v-2.386h-.4zM163.416 90.643l.927 2.386h.528l.927-2.386h-.433l-.758 1.965-.758-1.965zM168.36 92.636l-.296-.232a.88.88 0 0 1-.721.355c-.508 0-.87-.345-.884-.918h1.821c.014-.067.028-.157.028-.251 0-.587-.419-1.042-1.063-1.042-.735 0-1.196.564-1.196 1.288 0 .696.494 1.288 1.294 1.288.443 0 .796-.19 1.017-.488m-1.125-1.747c.419 0 .659.294.673.644h-1.421c.084-.412.357-.644.748-.644M169.613 93.095c.306 0 .616-.137.795-.369v.303h.4v-1.6c0-.526-.357-.881-.96-.881-.414 0-.748.175-.955.46l.301.231a.77.77 0 0 1 .64-.331c.339 0 .574.19.574.52v.166l-.8.133c-.504.085-.777.34-.777.7 0 .408.316.668.782.668m-.377-.681c0-.204.146-.35.471-.408l.701-.118v.469a.83.83 0 0 1-.729.407c-.278 0-.443-.147-.443-.35M173.263 92.006c0 .47-.254.739-.649.739-.405 0-.655-.27-.655-.739v-1.363h-.4v1.35c0 .714.41 1.13 1.05 1.13.645 0 1.054-.416 1.054-1.13v-1.35h-.4z"/><path fill="#000091" fill-rule="evenodd" d="m258.477 91.523.97-.977.278.279-1.248 1.255-1.248-1.255.277-.28z" clip-rule="evenodd"/></g></g><path stroke="#3a3a3a" stroke-width=".4" d="M123.154 97.01h142.089"/></g><path fill="#161616" d="M123.154 108.456h1.266c1.031 0 1.733-.762 1.733-1.657s-.702-1.657-1.733-1.657h-1.266zm1.276-2.907c.734 0 1.266.554 1.266 1.25 0 .692-.532 1.25-1.266 1.25h-.833v-2.5zM127.41 108.523c.306 0 .616-.138.795-.37v.303h.4v-1.6c0-.526-.357-.881-.96-.881-.414 0-.748.176-.955.46l.301.232a.77.77 0 0 1 .64-.332c.339 0 .574.19.574.521v.166l-.8.132c-.504.086-.777.341-.777.701 0 .407.316.668.782.668m-.377-.682c0-.204.146-.35.471-.407l.701-.119v.469a.83.83 0 0 1-.729.407c-.278 0-.443-.146-.443-.35M129.544 107.656c0 .583.297.848.824.848.17 0 .297-.019.41-.066v-.36a.9.9 0 0 1-.353.056c-.288 0-.476-.104-.476-.478v-1.221h.824v-.365h-.824v-.597h-.405v.597h-.447v.365h.447zM133.447 108.063l-.296-.232a.88.88 0 0 1-.721.356c-.508 0-.87-.346-.884-.919h1.821c.014-.066.028-.156.028-.251 0-.587-.419-1.042-1.063-1.042-.735 0-1.196.564-1.196 1.288 0 .696.494 1.288 1.294 1.288.443 0 .796-.189 1.017-.488m-1.125-1.747c.419 0 .659.294.673.644h-1.421c.084-.412.357-.644.748-.644M135.14 107.263c0 .696.475 1.288 1.219 1.288.353 0 .63-.137.842-.379v.284h.4v-3.551h-.4v1.449a1.08 1.08 0 0 0-.842-.379c-.744 0-1.219.592-1.219 1.288m.423 0c0-.506.339-.909.843-.909.325 0 .612.156.795.441v.937a.92.92 0 0 1-.795.44c-.504 0-.843-.402-.843-.909M140.553 108.063l-.296-.232a.88.88 0 0 1-.72.356c-.509 0-.871-.346-.885-.919h1.821a1.2 1.2 0 0 0 .029-.251c0-.587-.419-1.042-1.064-1.042-.734 0-1.196.564-1.196 1.288 0 .696.495 1.288 1.295 1.288.442 0 .795-.189 1.016-.488m-1.125-1.747c.419 0 .659.294.674.644h-1.422c.085-.412.358-.644.748-.644M142.246 107.263c0 .696.475 1.288 1.219 1.288.353 0 .631-.137.842-.379v.284h.401v-3.551h-.401v1.449a1.07 1.07 0 0 0-.842-.379c-.744 0-1.219.592-1.219 1.288m.424 0c0-.506.338-.909.842-.909.325 0 .612.156.795.441v.937a.92.92 0 0 1-.795.44c-.504 0-.842-.402-.842-.909M146.756 105.691l.551-.786h-.452l-.49.786zm.904 2.372-.297-.232a.88.88 0 0 1-.72.356c-.508 0-.871-.346-.885-.919h1.822c.014-.066.028-.156.028-.251 0-.587-.419-1.042-1.064-1.042-.734 0-1.195.564-1.195 1.288 0 .696.494 1.288 1.294 1.288.442 0 .795-.189 1.017-.488m-1.125-1.747c.419 0 .659.294.673.644h-1.422c.085-.412.358-.644.749-.644M150.748 107.263c0-.696-.476-1.288-1.219-1.288-.353 0-.631.138-.843.379v-1.449h-.4v3.551h.4v-.284c.212.242.49.379.843.379.743 0 1.219-.592 1.219-1.288m-1.267-.909c.504 0 .848.403.848.909 0 .507-.344.909-.848.909a.93.93 0 0 1-.795-.44v-.937a.92.92 0 0 1 .795-.441M153.05 107.434c0 .468-.254.738-.65.738-.404 0-.654-.27-.654-.738v-1.364h-.4v1.35c0 .714.409 1.131 1.05 1.131.644 0 1.054-.417 1.054-1.131v-1.35h-.4zM154.393 107.656c0 .583.297.848.824.848.169 0 .297-.019.41-.066v-.36a.9.9 0 0 1-.353.056c-.288 0-.476-.104-.476-.478v-1.221h.824v-.365h-.824v-.597h-.405v.597h-.447v.365h.447zM158.773 106.7l-.466-.568.706-.19-.108-.336-.678.265.042-.729h-.348l.042.734-.682-.27-.108.336.701.19-.457.568.283.203.39-.615.4.615z"/><g clip-path="url(#i)"><g clip-path="url(#j)"><path fill="#eee" d="M123.154 112.511a1 1 0 0 1 1-1h140.089a1 1 0 0 1 1 1v10.837H123.154z"/><g clip-path="url(#k)"><path fill="#161616" d="M128.887 115.921a.282.282 0 0 0 0-.564.283.283 0 0 0-.282.28c0 .156.127.284.282.284m.203 3.319v-2.699h-.4v2.699c0 .393-.193.502-.476.502a.9.9 0 0 1-.353-.057v.36c.109.047.236.066.405.066.532 0 .824-.265.824-.871M130.193 115.921c.15 0 .278-.128.278-.284a.283.283 0 0 0-.278-.28.284.284 0 0 0-.283.28c0 .156.128.284.283.284m.202 3.319v-2.699h-.4v2.699c0 .393-.193.502-.475.502a.9.9 0 0 1-.353-.057v.36a1 1 0 0 0 .405.066c.531 0 .823-.265.823-.871M130.883 119.86h.405l1.139-4.484h-.405zM132.813 118.928h.4v-1.653c.136-.246.339-.45.664-.45.343 0 .56.228.56.625v1.478h.4v-1.492q-.001-.084-.01-.161c.156-.279.368-.45.669-.45.339 0 .56.228.56.625v1.478h.4v-1.492c0-.649-.372-.99-.88-.99-.41 0-.659.199-.847.46-.146-.303-.429-.46-.772-.46a.94.94 0 0 0-.744.356v-.261h-.4zM137.262 118.928h.4v-1.653c.137-.246.339-.45.664-.45.344 0 .56.228.56.625v1.478h.4v-1.492q0-.084-.009-.161c.155-.279.367-.45.668-.45.339 0 .56.228.56.625v1.478h.4v-1.492c0-.649-.371-.99-.88-.99-.409 0-.659.199-.847.46-.146-.303-.428-.46-.772-.46a.94.94 0 0 0-.744.356v-.261h-.4zM141.354 119.86h.405l1.139-4.484h-.405zM143.947 118.994c.306 0 .617-.137.795-.369v.303h.401v-1.601c0-.525-.358-.881-.961-.881-.414 0-.748.176-.955.46l.301.232a.77.77 0 0 1 .64-.332c.339 0 .574.19.574.521v.166l-.8.132c-.503.086-.776.341-.776.701 0 .407.315.668.781.668m-.377-.682c0-.204.146-.35.471-.407l.701-.119v.469a.83.83 0 0 1-.729.407c-.278 0-.443-.146-.443-.35M146.59 118.994c.306 0 .617-.137.795-.369v.303h.401v-1.601c0-.525-.358-.881-.961-.881-.414 0-.748.176-.955.46l.301.232a.77.77 0 0 1 .64-.332c.339 0 .574.19.574.521v.166l-.8.132c-.503.086-.776.341-.776.701 0 .407.315.668.781.668m-.377-.682c0-.204.146-.35.471-.407l.701-.119v.469a.83.83 0 0 1-.729.407c-.278 0-.443-.146-.443-.35M149.233 118.994c.306 0 .617-.137.795-.369v.303h.401v-1.601c0-.525-.358-.881-.961-.881-.414 0-.748.176-.955.46l.301.232a.77.77 0 0 1 .64-.332c.339 0 .574.19.574.521v.166l-.8.132c-.503.086-.776.341-.776.701 0 .407.315.668.781.668m-.377-.682c0-.204.146-.35.471-.407l.701-.119v.469a.83.83 0 0 1-.729.407c-.278 0-.443-.146-.443-.35M151.876 118.994c.306 0 .617-.137.796-.369v.303h.4v-1.601c0-.525-.358-.881-.961-.881-.414 0-.748.176-.955.46l.301.232a.77.77 0 0 1 .64-.332c.339 0 .575.19.575.521v.166l-.801.132c-.503.086-.776.341-.776.701 0 .407.315.668.781.668m-.377-.682c0-.204.146-.35.471-.407l.702-.119v.469a.83.83 0 0 1-.73.407c-.278 0-.443-.146-.443-.35"/><g clip-path="url(#l)"><path fill="#03053d" d="M256.223 117.537h3.922v1.776a.197.197 0 0 1-.196.197h-3.53a.197.197 0 0 1-.196-.197zm2.941-1.578h.785a.197.197 0 0 1 .196.197v.987h-3.922v-.987a.196.196 0 0 1 .196-.197h.784v-.395h.392v.395h1.177v-.395h.392z"/></g></g></g><path stroke="#3a3a3a" stroke-width=".4" d="M123.154 123.148h142.089"/></g><path fill="#000091" d="M123.154 130.45h47.968v12.429h-47.968z"/><path fill="#fff" fill-rule="evenodd" d="m133.387 136.467-1.052-1.058.277-.279 1.526 1.534-1.526 1.535-.277-.279 1.052-1.058H131v-.395z" clip-rule="evenodd"/><path fill="#f5f5fe" d="M139.008 138.071c-.744 0-1.276-.597-1.276-1.335 0-.739.532-1.335 1.276-1.335.442 0 .804.217 1.026.539l.353-.274a1.69 1.69 0 0 0-1.379-.682c-1.031 0-1.733.805-1.733 1.752s.702 1.752 1.733 1.752c.593 0 1.077-.27 1.379-.682l-.353-.275c-.222.322-.584.54-1.026.54M141.021 138.393h.4v-1.638c.146-.242.349-.403.659-.403a.9.9 0 0 1 .236.029v-.393a.7.7 0 0 0-.203-.029c-.301 0-.517.138-.692.346v-.298h-.4zM143.955 135.628l.55-.786h-.452l-.489.786zm.903 2.372-.296-.232a.88.88 0 0 1-.72.355c-.509 0-.871-.346-.885-.918h1.821c.014-.067.028-.157.028-.251 0-.588-.418-1.042-1.063-1.042-.735 0-1.196.563-1.196 1.288 0 .696.494 1.288 1.295 1.288.442 0 .795-.19 1.016-.488m-1.125-1.747c.419 0 .659.293.673.644h-1.421c.085-.412.358-.644.748-.644M147.584 138l-.297-.232a.88.88 0 0 1-.72.355c-.508 0-.87-.346-.885-.918h1.822c.014-.067.028-.157.028-.251 0-.588-.419-1.042-1.064-1.042-.734 0-1.195.563-1.195 1.288 0 .696.494 1.288 1.294 1.288.443 0 .796-.19 1.017-.488m-1.125-1.747c.419 0 .659.293.673.644h-1.421c.084-.412.357-.644.748-.644M148.21 138.393h.4v-1.638c.146-.242.349-.403.659-.403a.9.9 0 0 1 .236.029v-.393a.7.7 0 0 0-.203-.029c-.301 0-.517.138-.692.346v-.298h-.4zM151.35 138.393h.4v-3.551h-.4zM152.769 136.348l.485-1.269h-.457l-.4 1.269zM154.666 135.912c-.767 0-1.285.592-1.285 1.288s.518 1.288 1.285 1.288c.763 0 1.285-.592 1.285-1.288s-.522-1.288-1.285-1.288m.005 2.197c-.508 0-.871-.412-.871-.909s.363-.909.871-.909c.494 0 .857.412.857.909 0 .492-.363.909-.857.909M156.247 136.007v.364h.447v2.022h.405v-2.022h.824v-.364h-.824v-.303c0-.313.179-.498.447-.498.137 0 .245.043.334.109l.179-.336a1.03 1.03 0 0 0-.522-.137c-.518 0-.843.364-.843.871v.294zM158.164 136.007v.364h.447v2.022h.405v-2.022h.823v-.364h-.823v-.303c0-.313.179-.498.447-.498.136 0 .245.043.334.109l.179-.336a1.03 1.03 0 0 0-.523-.137c-.517 0-.842.364-.842.871v.294zM160.226 138.393h.4v-1.638c.146-.242.348-.403.659-.403.094 0 .164.01.235.029v-.393a.7.7 0 0 0-.202-.029c-.302 0-.518.138-.692.346v-.298h-.4zM164.063 138l-.297-.232a.88.88 0 0 1-.72.355c-.508 0-.871-.346-.885-.918h1.822c.014-.067.028-.157.028-.251 0-.588-.419-1.042-1.064-1.042-.734 0-1.195.563-1.195 1.288 0 .696.494 1.288 1.294 1.288.442 0 .795-.19 1.017-.488m-1.125-1.747c.419 0 .659.293.673.644h-1.422c.085-.412.358-.644.749-.644"/><path fill="#161616" d="m123.314 14.374 2.069 5.2h.915l2.068-5.2h-.738l-1.788 4.495-1.787-4.495zM130.52 15.682c-1.204 0-2.016.928-2.016 2.02s.812 2.021 2.016 2.021c1.197 0 2.017-.928 2.017-2.02s-.82-2.021-2.017-2.021m.008 3.447c-.798 0-1.367-.646-1.367-1.427 0-.78.569-1.426 1.367-1.426.775 0 1.344.646 1.344 1.427 0 .772-.569 1.426-1.344 1.426M133.702 18.32c0 .913.466 1.33 1.293 1.33.266 0 .465-.03.643-.105v-.565c-.141.06-.311.09-.554.09-.451 0-.746-.164-.746-.75v-1.918h1.292v-.572h-1.292v-.936h-.636v.936h-.701v.572h.701zM136.59 19.575h.628v-2.57c.229-.38.546-.633 1.034-.633.147 0 .258.015.369.045V15.8a1 1 0 0 0-.318-.044c-.472 0-.812.215-1.085.542v-.468h-.628zM142.611 18.958l-.466-.364a1.38 1.38 0 0 1-1.13.557c-.797 0-1.366-.542-1.388-1.441h2.858c.022-.104.045-.245.045-.394 0-.921-.658-1.634-1.67-1.634-1.152 0-1.876.884-1.876 2.02 0 1.093.776 2.021 2.031 2.021.695 0 1.249-.297 1.596-.765m-1.765-2.741c.657 0 1.034.46 1.056 1.01h-2.231c.133-.646.561-1.01 1.175-1.01M149.447 17.703c0-1.093-.746-2.021-1.913-2.021-.554 0-.99.215-1.322.594v-2.274h-.628v5.573h.628v-.446c.332.379.768.595 1.322.595 1.167 0 1.913-.93 1.913-2.021m-1.987-1.427c.791 0 1.33.631 1.33 1.427 0 .794-.539 1.426-1.33 1.426-.509 0-.96-.245-1.248-.69v-1.472a1.45 1.45 0 0 1 1.248-.691M153.776 18.958l-.465-.364c-.244.334-.65.557-1.13.557-.798 0-1.366-.542-1.389-1.441h2.859c.022-.104.044-.245.044-.394 0-.921-.657-1.634-1.669-1.634-1.152 0-1.876.884-1.876 2.02 0 1.093.775 2.021 2.031 2.021.694 0 1.248-.297 1.595-.765m-1.765-2.741c.657 0 1.034.46 1.056 1.01h-2.23c.133-.646.561-1.01 1.174-1.01M154.331 19.062c.34.424.805.662 1.396.662.695 0 1.249-.439 1.256-1.137 0-1.278-1.869-1.01-1.869-1.85 0-.29.214-.528.613-.528.325 0 .606.178.805.46l.436-.37a1.52 1.52 0 0 0-1.248-.617c-.717 0-1.211.482-1.211 1.07 0 1.322 1.861 1.025 1.861 1.864 0 .327-.236.58-.65.58-.377 0-.687-.186-.945-.513zM159.66 15.682c-1.204 0-2.016.928-2.016 2.02s.812 2.021 2.016 2.021c1.197 0 2.017-.928 2.017-2.02s-.82-2.021-2.017-2.021m.008 3.447c-.798 0-1.367-.646-1.367-1.427 0-.78.569-1.426 1.367-1.426.775 0 1.344.646 1.344 1.427 0 .772-.569 1.426-1.344 1.426M163.004 14.857a.44.44 0 0 0 .435-.446.44.44 0 0 0-.435-.438c-.244 0-.444.2-.444.438 0 .245.2.446.444.446m-.318 4.718h.628V15.83h-.628zM164.641 19.575h.627v-2.593c.237-.394.577-.706 1.116-.706.576 0 .953.386.953 1.055v2.244h.627v-2.266c0-1.063-.62-1.627-1.455-1.627-.554 0-.938.237-1.241.572v-.424h-.627zM174.528 18.958l-.466-.364c-.243.334-.65.557-1.13.557-.797 0-1.366-.542-1.388-1.441h2.858c.022-.104.044-.245.044-.394 0-.921-.657-1.634-1.669-1.634-1.152 0-1.876.884-1.876 2.02 0 1.093.776 2.021 2.031 2.021.695 0 1.249-.297 1.596-.765m-1.766-2.741c.658 0 1.035.46 1.057 1.01h-2.231c.133-.646.561-1.01 1.174-1.01M175.51 19.575h.628v-2.593c.237-.394.576-.706 1.116-.706.576 0 .952.386.952 1.055v2.244h.628v-2.266c0-1.063-.62-1.627-1.455-1.627-.554 0-.938.237-1.241.572v-.424h-.628zM182.089 19.575h.627v-2.57c.229-.38.547-.633 1.034-.633.148 0 .259.015.37.045V15.8a1 1 0 0 0-.318-.044c-.473 0-.812.215-1.086.542v-.468h-.627zM188.11 18.958l-.466-.364c-.243.334-.65.557-1.13.557-.797 0-1.366-.542-1.388-1.441h2.858c.022-.104.044-.245.044-.394 0-.921-.657-1.634-1.669-1.634-1.152 0-1.876.884-1.876 2.02 0 1.093.776 2.021 2.031 2.021.694 0 1.248-.297 1.596-.765m-1.766-2.741c.658 0 1.034.46 1.057 1.01h-2.231c.133-.646.561-1.01 1.174-1.01M190.791 19.13c-.805 0-1.373-.625-1.373-1.427 0-.796.568-1.427 1.366-1.427.465 0 .842.223 1.071.55l.495-.38a1.92 1.92 0 0 0-1.566-.764c-1.233 0-2.024.928-2.024 2.02s.791 2.021 2.024 2.021c.68 0 1.219-.297 1.566-.765l-.495-.379c-.229.327-.606.55-1.064.55M193.211 19.575h.628v-2.57c.229-.38.546-.633 1.034-.633.147 0 .258.015.369.045V15.8a1 1 0 0 0-.318-.044c-.472 0-.812.215-1.085.542v-.468h-.628zM198.797 17.97c0 .736-.399 1.16-1.02 1.16-.635 0-1.026-.424-1.026-1.16v-2.14h-.628v2.118c0 1.122.643 1.776 1.647 1.776 1.012 0 1.654-.654 1.654-1.776V15.83h-.627zM200.905 18.32c0 .913.465 1.33 1.292 1.33.266 0 .466-.03.643-.105v-.565c-.14.06-.31.09-.554.09-.451 0-.746-.164-.746-.75v-1.918h1.293v-.572h-1.293v-.936h-.635v.936h-.702v.572h.702zM207.029 18.958l-.465-.364c-.244.334-.65.557-1.13.557-.798 0-1.367-.542-1.389-1.441h2.858a2 2 0 0 0 .045-.394c0-.921-.658-1.634-1.67-1.634-1.152 0-1.876.884-1.876 2.02 0 1.093.776 2.021 2.032 2.021.694 0 1.248-.297 1.595-.765m-1.765-2.741c.657 0 1.034.46 1.056 1.01h-2.231c.133-.646.562-1.01 1.175-1.01M208.012 19.575h.627v-2.593c.215-.386.532-.706 1.042-.706.539 0 .879.357.879.98v2.319h.628v-2.34c0-.09-.008-.171-.015-.253.244-.439.576-.706 1.049-.706.531 0 .879.357.879.98v2.319h.627v-2.34c0-1.018-.583-1.553-1.381-1.553-.642 0-1.034.312-1.329.72-.229-.475-.672-.72-1.212-.72-.517 0-.886.23-1.167.557v-.409h-.627zM218.303 18.958l-.466-.364c-.243.334-.65.557-1.13.557-.797 0-1.366-.542-1.388-1.441h2.858c.022-.104.044-.245.044-.394 0-.921-.657-1.634-1.669-1.634-1.152 0-1.876.884-1.876 2.02 0 1.093.776 2.021 2.031 2.021.695 0 1.248-.297 1.596-.765m-1.766-2.741c.658 0 1.034.46 1.057 1.01h-2.231c.133-.646.561-1.01 1.174-1.01M219.285 19.575h.628v-2.593c.237-.394.576-.706 1.115-.706.577 0 .953.386.953 1.055v2.244h.628v-2.266c0-1.063-.62-1.627-1.455-1.627-.554 0-.938.237-1.241.572v-.424h-.628zM224.087 18.32c0 .913.465 1.33 1.293 1.33.265 0 .465-.03.642-.105v-.565c-.14.06-.31.09-.554.09-.45 0-.746-.164-.746-.75v-1.918h1.293v-.572h-1.293v-.936h-.635v.936h-.702v.572h.702z"/><g filter="url(#m)"><rect width="73.557" height="24.827" x="232.756" y="19.653" fill="#fff" rx="4"/><rect width="72.557" height="23.827" x="233.256" y="20.153" stroke="#e6e6e6" rx="3.5"/></g><g clip-path="url(#n)"><path fill="#000091" d="M285.414 30.4c-.299-.132-.511-.284-.511-.532 0-.25.166-.439.511-.473q.05-.006.105-.008c.407 0 .75.26 1.021.58l.875-.74c-.376-.49-1.106-.86-1.907-.86q-.048.002-.094.003c-1.045.038-1.782.692-1.782 1.554 0 1.138 1.04 1.408 1.782 1.688.41.156.731.315.731.629 0 .313-.219.538-.647.538q-.042-.001-.084-.006c-.459-.03-.821-.295-1.125-.663l-.875.76c.481.547 1.118.897 2.001.924.036 0 .069.004.105.004.99 0 1.876-.579 1.898-1.638 0-1.235-1.268-1.442-2.003-1.764zM248.41 34.981h.966v.197h-.725v.552h.622v.195h-.622v.583h.725v.197h-.966V34.98zM249.764 35.464h.219v.141a.56.56 0 0 1 .432-.189c.291 0 .507.188.507.54v.752h-.219v-.744c0-.222-.131-.35-.332-.35-.188 0-.305.104-.388.234v.86h-.219v-1.244M251.408 35.653h-.244v-.19h.244v-.31h.221v.31h.45v.19h-.45v.636c0 .195.104.25.26.25a.5.5 0 0 0 .193-.03v.187a.6.6 0 0 1-.224.034c-.288 0-.45-.138-.45-.441zM252.389 35.464h.219v.154a.48.48 0 0 1 .488-.165v.204a.5.5 0 0 0-.128-.014c-.169 0-.28.084-.36.21v.852h-.219v-1.242zM253.903 36.754c-.437 0-.708-.307-.708-.67s.252-.67.653-.67c.353 0 .581.229.581.54 0 .049-.008.098-.015.133h-.996c.008.298.205.478.484.478a.49.49 0 0 0 .393-.184l.161.12a.69.69 0 0 1-.556.253zm-.468-.828h.777a.347.347 0 0 0-.364-.334.395.395 0 0 0-.413.334M254.66 36.516l.764-.863h-.745v-.19h1.013v.19l-.766.863h.785v.189h-1.049v-.19zM257.261 35.415c.193 0 .345.072.461.196v-.755h.219v1.849h-.219v-.149a.6.6 0 0 1-.461.197c-.405 0-.665-.308-.665-.67 0-.364.26-.672.665-.672zm.025 1.143c.18 0 .34-.084.436-.23v-.487a.51.51 0 0 0-.436-.23c-.275 0-.46.21-.46.473 0 .262.185.472.46.472zM258.3 36.393c0-.187.149-.32.425-.364l.437-.07v-.085c0-.172-.129-.271-.314-.271a.43.43 0 0 0-.349.172l-.164-.121a.64.64 0 0 1 .521-.239c.329 0 .525.185.525.458v.832h-.219v-.154a.56.56 0 0 1-.436.189c-.255 0-.427-.135-.427-.348zm.464.176c.172 0 .313-.08.399-.212v-.244l-.383.061c-.177.03-.257.107-.257.212s.089.183.241.183M259.795 35.464h.219v.141a.57.57 0 0 1 .432-.189c.292 0 .508.188.508.54v.752h-.22v-.744c0-.222-.131-.35-.331-.35-.188 0-.306.104-.389.234v.86h-.219v-1.244M261.38 36.41c.089.108.197.17.329.17.144 0 .227-.085.227-.193 0-.279-.648-.18-.648-.618 0-.195.172-.354.421-.354.185 0 .344.084.435.204l-.152.123a.35.35 0 0 0-.28-.153c-.139 0-.213.08-.213.176 0 .279.65.189.65.613-.003.231-.196.377-.437.377a.6.6 0 0 1-.485-.22l.155-.125zM263.146 34.858h.22v1.849h-.22zM264.164 34.981l-.22.66h-.249l.265-.66zM264.944 36.754c-.437 0-.708-.307-.708-.67s.252-.67.653-.67c.353 0 .581.229.581.54 0 .049-.008.098-.015.133h-.996c.008.298.205.478.484.478a.49.49 0 0 0 .393-.184l.161.12a.69.69 0 0 1-.556.253zm-.468-.828h.777a.347.347 0 0 0-.364-.334.395.395 0 0 0-.413.334M265.816 35.464h.22v.141a.56.56 0 0 1 .432-.189c.291 0 .507.188.507.54v.752h-.219v-.744c0-.222-.132-.35-.332-.35-.188 0-.305.104-.388.234v.86h-.22v-1.244M267.403 36.41c.09.108.198.17.329.17.144 0 .227-.085.227-.193 0-.279-.648-.18-.648-.618 0-.195.172-.354.421-.354.185 0 .345.084.436.204l-.152.123a.35.35 0 0 0-.281-.153c-.139 0-.213.08-.213.176 0 .279.65.189.65.613-.003.231-.195.377-.437.377a.6.6 0 0 1-.485-.22l.155-.125zM269.083 36.754c-.437 0-.708-.307-.708-.67s.252-.67.653-.67c.352 0 .581.229.581.54 0 .049-.008.098-.016.133h-.996c.008.298.206.478.484.478a.49.49 0 0 0 .393-.184l.162.12a.69.69 0 0 1-.556.253zm-.468-.828h.776a.346.346 0 0 0-.363-.334.395.395 0 0 0-.413.334M269.908 34.993c0-.08.069-.145.155-.145s.152.066.152.145a.15.15 0 0 1-.152.147c-.084 0-.155-.066-.155-.147m.044.471h.219v1.242h-.219zM270.653 36.617a.22.22 0 0 1-.089-.177q.001-.15.155-.242a.42.42 0 0 1-.18-.345c0-.238.196-.44.504-.44q.145.002.249.05h.481v.183h-.28a.4.4 0 0 1 .053.207c0 .237-.193.438-.504.438a.8.8 0 0 1-.181-.024c-.053.038-.084.081-.084.128 0 .052.028.088.108.088h.369c.342 0 .502.16.502.383 0 .26-.273.456-.661.456-.389 0-.636-.143-.636-.392 0-.126.064-.226.193-.313zm.44.53c.273 0 .445-.104.445-.266 0-.119-.069-.212-.301-.212h-.399c-.111.065-.164.138-.164.237 0 .15.161.242.419.242zm.248-1.294c0-.153-.108-.276-.296-.276s-.299.123-.299.276.104.273.299.273c.194 0 .296-.123.296-.273M272.014 35.464h.219v.141a.56.56 0 0 1 .432-.189c.291 0 .507.188.507.54v.752h-.219v-.744c0-.222-.131-.35-.332-.35-.188 0-.305.104-.388.234v.86h-.219v-1.244M274.18 36.754c-.436 0-.707-.307-.707-.67s.252-.67.653-.67c.352 0 .581.229.581.54 0 .049-.008.098-.016.133h-.996c.008.298.205.478.484.478a.49.49 0 0 0 .393-.184l.161.12a.68.68 0 0 1-.556.253zm-.468-.828h.777a.346.346 0 0 0-.363-.334.396.396 0 0 0-.414.334M275.052 35.465h.22v.135a.52.52 0 0 1 .405-.185c.179 0 .342.081.421.239a.55.55 0 0 1 .464-.239c.277 0 .481.177.481.515v.775h-.22v-.768c0-.207-.12-.325-.305-.325-.164 0-.28.088-.365.234a1 1 0 0 1 .005.084v.775h-.219v-.768c0-.207-.119-.325-.306-.325-.177 0-.288.106-.363.234v.86h-.219v-1.243zM278.054 36.754c-.437 0-.708-.307-.708-.67s.252-.67.653-.67c.352 0 .581.229.581.54 0 .049-.008.098-.016.133h-.996c.008.298.205.478.484.478a.49.49 0 0 0 .393-.184l.161.12a.68.68 0 0 1-.556.253zm-.469-.828h.777a.346.346 0 0 0-.363-.334.396.396 0 0 0-.414.334M278.924 35.464h.219v.141a.57.57 0 0 1 .432-.189c.292 0 .508.188.508.54v.752h-.22v-.744c0-.222-.131-.35-.332-.35-.187 0-.305.104-.388.234v.86h-.219v-1.244M280.57 35.653h-.244v-.19h.244v-.31h.221v.31h.45v.19h-.45v.636c0 .195.104.25.26.25a.5.5 0 0 0 .193-.03v.187a.6.6 0 0 1-.224.034c-.288 0-.45-.138-.45-.441zM282.235 36.41c.09.108.198.17.329.17.144 0 .227-.085.227-.193 0-.279-.648-.18-.648-.618 0-.195.172-.354.421-.354.185 0 .345.084.436.204l-.152.123a.35.35 0 0 0-.281-.153c-.139 0-.212.08-.212.176 0 .279.649.189.649.613-.003.231-.195.377-.437.377a.6.6 0 0 1-.485-.22l.155-.125zM284.235 35.464h.219v.702c0 .372-.224.588-.576.588-.353 0-.573-.216-.573-.588v-.702h.219v.71c0 .244.136.384.357.384s.355-.142.355-.385zM284.859 35.464h.22v.149a.6.6 0 0 1 .46-.197c.406 0 .666.308.666.67 0 .364-.26.671-.666.671a.6.6 0 0 1-.46-.196v.754h-.22v-1.851m.22.38v.483c.1.15.256.23.435.23.276 0 .463-.21.463-.472a.454.454 0 0 0-.463-.472.51.51 0 0 0-.435.23M287.141 36.754c-.436 0-.707-.307-.707-.67s.252-.671.653-.671c.352 0 .581.23.581.54 0 .05-.008.1-.016.134h-.996c.008.298.205.478.484.478a.49.49 0 0 0 .393-.184l.161.12a.68.68 0 0 1-.556.253zm-.468-.828h.777a.346.346 0 0 0-.363-.334.396.396 0 0 0-.414.334m.317-.66.267-.41h.248l-.301.41zM288.012 35.464h.219v.154a.48.48 0 0 1 .489-.165v.204a.5.5 0 0 0-.129-.014c-.169 0-.28.084-.36.21v.852h-.219v-1.242zM288.963 34.993c0-.08.069-.145.155-.145s.152.066.152.145a.15.15 0 0 1-.152.147.15.15 0 0 1-.155-.147m.044.471h.219v1.242h-.219zM290.259 36.754c-.437 0-.708-.307-.708-.67s.252-.67.653-.67c.352 0 .581.229.581.54 0 .049-.008.098-.016.133h-.996c.008.298.205.478.484.478a.49.49 0 0 0 .393-.184l.161.12a.68.68 0 0 1-.556.253zm-.469-.828h.777a.346.346 0 0 0-.363-.334.396.396 0 0 0-.414.334M292.012 35.464h.219v.702c0 .372-.223.588-.576.588-.352 0-.573-.216-.573-.588v-.702h.219v.71c0 .244.136.384.357.384s.356-.142.356-.385v-.71zM292.637 35.464h.219v.154a.48.48 0 0 1 .489-.165v.204a.5.5 0 0 0-.129-.014c-.169 0-.28.084-.36.21v.852h-.219v-1.242zM245.375 28.853l1.323.126c.407-.388.918-.609 1.637-.609 1.667 0 2.668 1.248 2.668 2.717s-1.001 2.717-2.668 2.717c-.719 0-1.23-.219-1.637-.609v2.865h-1.323zm1.323 1.445v1.578c.354.48.844.73 1.449.73.895 0 1.48-.64 1.48-1.519 0-.88-.585-1.518-1.48-1.518-.616 0-1.115.26-1.449.729M251.691 32.245c0-.76.616-1.328 1.742-1.508l1.605-.26v-.13c0-.53-.417-.869-1.021-.869-.511 0-.907.23-1.189.599l-.969-.71c.47-.62 1.24-.999 2.2-.999 1.522 0 2.304.869 2.304 1.978V33.6h-1.324v-.489c-.333.39-.958.64-1.573.64-1.053 0-1.773-.58-1.773-1.509zm2.044.5c.604 0 1.043-.27 1.303-.67v-.71l-1.251.2c-.553.09-.782.31-.782.62 0 .339.282.56.73.56M257.77 28.57h1.323v.5c.344-.34.792-.6 1.386-.6.177 0 .333.03.458.071v1.247a2.4 2.4 0 0 0-.584-.07c-.646 0-1.063.338-1.26.658v3.226h-1.323zM265.39 32.025l1.032.759c-.49.62-1.261 1.019-2.221 1.019-1.813 0-2.898-1.249-2.898-2.717 0-1.47 1.085-2.716 2.898-2.716.959 0 1.731.4 2.221 1.019l-1.032.759c-.251-.35-.667-.58-1.209-.58-.864 0-1.502.64-1.502 1.52 0 .878.636 1.517 1.522 1.517.522 0 .938-.23 1.189-.579zM272.478 31.087c0 1.508-1.168 2.717-2.877 2.717s-2.876-1.208-2.876-2.717 1.166-2.717 2.875-2.717c1.708 0 2.876 1.208 2.876 2.717zm-1.377 0c0-.88-.635-1.518-1.479-1.518s-1.522.639-1.522 1.518c0 .88.646 1.518 1.522 1.518.875 0 1.479-.65 1.479-1.518M277.044 28.57h1.334v2.796c0 1.508-.918 2.436-2.46 2.436-1.543 0-2.449-.928-2.449-2.436v-2.797h1.334v2.857c0 .729.396 1.178 1.126 1.178s1.115-.45 1.115-1.178zM279.742 28.57h1.323v.5c.345-.34.793-.6 1.386-.6.177 0 .334.03.459.071v1.247a2.4 2.4 0 0 0-.584-.07c-.647 0-1.063.338-1.261.658v3.226h-1.323zM291.991 28.57h1.334v2.796c0 1.508-.917 2.436-2.46 2.436s-2.449-.928-2.449-2.436v-2.797h1.334v2.857c0 .729.396 1.178 1.126 1.178s1.115-.45 1.115-1.178zM294.691 28.57h1.324v.41c.407-.39.917-.61 1.636-.61 1.668 0 2.668 1.248 2.668 2.717s-1 2.717-2.668 2.717c-.719 0-1.229-.219-1.636-.609v2.865h-1.324zm1.324 1.728v1.578c.354.48.844.73 1.448.73.896 0 1.48-.64 1.48-1.519 0-.88-.584-1.518-1.48-1.518-.615 0-1.115.26-1.448.729"/><path fill="#e1000f" d="M240.746 32.64h-2.242a.65.65 0 0 0-.664.636.65.65 0 0 0 .664.636h1.58v1.514c0 .35.297.634.664.636a.67.67 0 0 0 .468-.186.62.62 0 0 0 .194-.45v-2.15a.62.62 0 0 0-.194-.45.68.68 0 0 0-.47-.186"/><path fill="#000091" d="M243.392 30.495h-2.239a.65.65 0 0 0-.663.635c0 .35.296.634.663.634h1.577v1.511c0 .351.296.635.662.635.183 0 .348-.07.468-.186a.62.62 0 0 0 .194-.449V31.13a.61.61 0 0 0-.194-.449.67.67 0 0 0-.468-.186"/><path fill="#e1000f" d="M246.039 28.346h-2.244a.65.65 0 0 0-.664.636.65.65 0 0 0 .664.636h1.58v1.514a.65.65 0 0 0 .664.636.68.68 0 0 0 .468-.186.62.62 0 0 0 .194-.45v-2.15a.63.63 0 0 0-.194-.45.67.67 0 0 0-.468-.186"/></g><g filter="url(#o)"><rect width="60.248" height="24.682" x="239.412" y="50.919" fill="#fff" rx="4"/><rect width="59.248" height="23.682" x="239.912" y="51.419" stroke="#e6e6e6" rx="3.5"/></g><g clip-path="url(#p)"><path fill="#000" d="M292.766 58.608h-36.578v9.665h36.556v-9.665z"/><path fill="#fff" d="M261.162 66.487c-1.68 0-2.908-1.227-2.908-2.97s1.228-2.993 2.908-2.993 2.908 1.227 2.908 2.992c0 1.744-1.228 2.97-2.908 2.97m0-4.542c-.819 0-1.185.646-1.185 1.55s.388 1.528 1.185 1.528c.819 0 1.206-.732 1.206-1.528 0-.883-.387-1.55-1.206-1.55m15.08 4.542a5.3 5.3 0 0 1-2.693-.667l.56-1.141a4.94 4.94 0 0 0 2.219.516c.646 0 .861-.15.861-.43 0-.302-.237-.388-.947-.581-1.551-.41-2.542-.754-2.542-1.96s1.055-1.7 2.563-1.7c.819 0 1.637.194 2.37.56l-.539 1.184a4.7 4.7 0 0 0-1.874-.452c-.689 0-.862.107-.862.366 0 .258.194.323 1.336.667s2.133.71 2.133 1.851c.021 1.313-1.142 1.787-2.585 1.787m8.466-2.497h-3.835c.065.775.711 1.076 1.314 1.076.194 0 .409-.021.582-.086a1.3 1.3 0 0 0 .517-.323l1.206.883a2.9 2.9 0 0 1-1.055.689 3.5 3.5 0 0 1-1.228.236c-1.853 0-3.016-1.162-3.016-2.97 0-1.765 1.228-2.992 2.865-2.992 1.702 0 2.693 1.356 2.693 2.992 0 .172-.022.323-.043.495m-2.758-2.174c-.28 0-.538.107-.732.301a1.14 1.14 0 0 0-.323.732h2.197a1.15 1.15 0 0 0-.366-.753 1 1 0 0 0-.776-.28m6.247 4.67c-.495 0-.969-.15-1.357-.451v2.26h-1.68v-7.663h1.68v.366a1.98 1.98 0 0 1 1.357-.474c1.379 0 2.499.926 2.499 3.057 0 1.7-.926 2.906-2.499 2.906m-.323-4.563c-.194 0-.409.022-.581.108a1.26 1.26 0 0 0-.453.366v2.153c.13.172.323.3.517.387.194.086.41.13.625.108.646 0 .991-.495.991-1.464 0-1.162-.452-1.658-1.099-1.658m-17.643 3.703v-2.497c0-1.614-.732-2.626-2.369-2.626a2.27 2.27 0 0 0-1.508.495v-.388h-1.702v4.994c0 .216.086.43.258.603.151.15.367.237.604.237.215 0 .43-.086.603-.237a.83.83 0 0 0 .237-.581v-2.39c0-.99.388-1.291 1.098-1.291.69 0 1.099.301 1.099 1.335v2.367c0 .216.086.43.237.603.151.15.366.237.603.237a.92.92 0 0 0 .603-.237c.13-.172.216-.387.237-.624m1.745-3.272a.93.93 0 0 0 .646-.28.93.93 0 0 0 .281-.646.85.85 0 0 0-.281-.645.9.9 0 0 0-.301-.194 1 1 0 0 0-.345-.065.9.9 0 0 0-.646.259.93.93 0 0 0-.28.645c0 .13.021.237.065.345a.9.9 0 0 0 .193.301c.173.194.41.28.668.28m.84.323h-1.658v2.949c0 .215.086.43.237.581.15.15.366.258.603.258a.85.85 0 0 0 .603-.258.85.85 0 0 0 .258-.581v-.022c-.021-.021-.043-2.927-.043-2.927"/><path fill="#e1000f" d="M256.186 58.608h-9.758v9.665h9.758z"/><path fill="#fff" d="M254.765 63.086a.5.5 0 0 0-.366-.15h-1.206a.2.2 0 0 1-.151-.065c-.022-.022-.043-.043-.043-.065-.043-.086-.022-.172.043-.236l1.163-1.141a.6.6 0 0 0 .172-.43.68.68 0 0 0-.172-.431.6.6 0 0 0-.431-.172.64.64 0 0 0-.431.172l-1.163 1.14c-.065.065-.151.087-.237.044q-.129-.065-.129-.194v-1.205c0-.13-.065-.28-.151-.366a.5.5 0 0 0-.345-.151.6.6 0 0 0-.366.15.56.56 0 0 0-.151.367v1.205q0 .128-.129.194c-.086.043-.172.021-.237-.043l-1.163-1.141a.6.6 0 0 0-.431-.172.7.7 0 0 0-.431.172.6.6 0 0 0-.172.43c0 .151.065.302.172.43l1.142 1.142c.065.064.086.15.043.236-.022.087-.108.13-.194.13h-1.228a.56.56 0 0 0-.366.15.5.5 0 0 0-.151.345c0 .129.065.258.151.344s.237.15.366.15h1.228q.13 0 .194.13c.043.086.022.172-.043.237l-1.12 1.14a.6.6 0 0 0-.173.431c0 .15.065.302.173.43a.6.6 0 0 0 .431.173c.15 0 .301-.065.43-.172l1.164-1.141a.2.2 0 0 1 .237-.043c.086.021.129.107.129.193v1.206a.519.519 0 0 0 .517.517.6.6 0 0 0 .366-.151.52.52 0 0 0 .151-.366v-1.206q0-.129.129-.193a.3.3 0 0 1 .237.043l1.163 1.14a.6.6 0 0 0 .431.173.64.64 0 0 0 .431-.172.6.6 0 0 0 .172-.43.68.68 0 0 0-.172-.431l-1.163-1.141c-.065-.065-.086-.15-.043-.216.021-.086.107-.129.194-.129h1.206c.129 0 .28-.064.366-.15a.48.48 0 0 0 0-.69zm-3.037 1.227a.42.42 0 0 1-.13.302.42.42 0 0 1-.301.129.43.43 0 0 1-.302-.13.43.43 0 0 1-.129-.3V62.44c0-.108.043-.216.129-.302a.43.43 0 0 1 .302-.129c.108 0 .215.043.301.13.087.085.13.193.13.3z"/></g><g filter="url(#q)"><rect width="53.69" height="31.056" x="242.781" y="82.296" fill="#fff" rx="4"/><rect width="52.69" height="30.056" x="243.281" y="82.796" stroke="#e6e6e6" rx="3.5"/><path fill="#283276" d="M265.458 101.482c0 .855-.69 1.558-1.548 1.558a1.55 1.55 0 0 1-1.549-1.558c0-.855.69-1.558 1.549-1.558.858 0 1.548.703 1.548 1.558"/><path fill="#f29fc5" d="M255.276 95.681c0 .855-.69 1.558-1.548 1.558a1.55 1.55 0 0 1-1.548-1.558c0-.855.69-1.558 1.548-1.558a1.55 1.55 0 0 1 1.548 1.558"/><path fill="#008ecf" d="M262.538 99.78c0 .855-.69 1.558-1.548 1.558-.85 0-1.549-.695-1.549-1.558 0-.856.69-1.558 1.549-1.558a1.56 1.56 0 0 1 1.548 1.558"/><path fill="#f29fc5" d="M258.801 101.66c0 .855-.689 1.558-1.548 1.558-.85 0-1.548-.695-1.548-1.558 0-.856.69-1.558 1.548-1.558a1.56 1.56 0 0 1 1.548 1.558"/><path fill="#283276" d="M258.801 105.326c0 .855-.689 1.558-1.548 1.558-.85 0-1.548-.695-1.548-1.558 0-.856.69-1.558 1.548-1.558a1.56 1.56 0 0 1 1.548 1.558M265.458 93.743c0 .855-.69 1.558-1.548 1.558a1.55 1.55 0 0 1-1.549-1.558c0-.856.69-1.558 1.549-1.558.858 0 1.548.702 1.548 1.558M262.538 95.681c0 .855-.69 1.558-1.548 1.558-.85 0-1.549-.694-1.549-1.558 0-.855.69-1.558 1.549-1.558a1.55 1.55 0 0 1 1.548 1.558M255.05 99.923c0 .855-.69 1.558-1.549 1.558a1.55 1.55 0 0 1-1.548-1.558c0-.855.69-1.558 1.548-1.558a1.55 1.55 0 0 1 1.549 1.558M252.104 93.404a1.55 1.55 0 0 1-1.169 1.854 1.54 1.54 0 0 1-1.843-1.177 1.55 1.55 0 0 1 1.17-1.854 1.54 1.54 0 0 1 1.842 1.177"/><path fill="#e1000f" d="M251.951 96.766a.88.88 0 0 1-.992.753.885.885 0 0 1 .244-1.753.885.885 0 0 1 .748 1M260.813 103.175a1.01 1.01 0 0 1-1.144.864 1.016 1.016 0 0 1-.859-1.152 1.01 1.01 0 1 1 2.003.288M263.808 96.732a.603.603 0 0 1-.69.516.62.62 0 0 1-.521-.694.603.603 0 0 1 .69-.517c.336.051.572.356.521.695M257.791 93.844a.88.88 0 0 1-.993.753.885.885 0 0 1 .244-1.752c.48.067.817.516.749.999"/><path fill="#f29fc5" d="M260.317 92.692a.883.883 0 0 1-.993.754.886.886 0 0 1 .244-1.753.874.874 0 0 1 .749 1"/><path fill="#ffe000" d="M254.602 102.422a.88.88 0 0 1-.993.753.885.885 0 0 1 .244-1.752.88.88 0 0 1 .749.999M263.252 98.45a.88.88 0 0 1-.993.754.885.885 0 0 1 .244-1.753c.48.06.817.508.749 1"/><path fill="#283276" d="M262.242 102.557a.884.884 0 0 1-.277 1.219.87.87 0 0 1-1.212-.279.884.884 0 0 1 .278-1.219.88.88 0 0 1 1.211.279"/><path fill="#ffe000" d="M255.528 92.167a.883.883 0 0 1-.993.754.886.886 0 0 1 .244-1.753.887.887 0 0 1 .749.999"/><path fill="#008ecf" d="M258.877 89.957a1.63 1.63 0 0 1-1.624 1.635 1.63 1.63 0 0 1-1.624-1.635 1.63 1.63 0 0 1 1.624-1.634c.9 0 1.624.728 1.624 1.634M252.129 101.473c0 .855-.69 1.558-1.548 1.558s-1.54-.694-1.54-1.558c0-.855.69-1.558 1.548-1.558s1.54.703 1.54 1.558M259.744 97.29a2.7 2.7 0 0 1-2.692 2.71 2.7 2.7 0 0 1-2.693-2.71 2.7 2.7 0 0 1 2.693-2.709c1.481-.008 2.692 1.21 2.692 2.71"/><path fill="#283276" d="M269.074 91.93h2.726v.686h-1.926v1.39h1.649v.677h-1.649v2.167h-.8zM272.439 93.31h.716v.398c.244-.27.555-.474.984-.474a.9.9 0 0 1 .311.051v.711a1.6 1.6 0 0 0-.37-.05c-.446 0-.74.237-.925.541v2.363h-.716zM274.879 95.927c0-.533.412-.923 1.161-1.05l1.136-.186v-.186c0-.432-.32-.703-.774-.703a1.04 1.04 0 0 0-.884.466l-.538-.415c.311-.423.816-.686 1.447-.686.951 0 1.473.559 1.473 1.346v2.337h-.716v-.398c-.252.314-.69.508-1.127.508-.707 0-1.178-.406-1.178-1.033m1.304.44c.438 0 .783-.211.993-.55v-.61l-.951.162c-.437.076-.622.27-.622.533 0 .27.218.466.58.466M278.91 93.311h.715v.347c.27-.279.615-.482 1.119-.482.775 0 1.372.525 1.372 1.55v2.125h-.724v-2.1c0-.56-.311-.898-.807-.898-.48 0-.766.305-.951.61v2.388h-.724zM285.793 95.843l.564.431c-.32.432-.841.72-1.489.72-1.178 0-1.919-.88-1.919-1.913s.741-1.914 1.919-1.914c.639 0 1.169.28 1.489.72l-.564.432a1.12 1.12 0 0 0-.925-.475c-.682 0-1.17.534-1.17 1.228 0 .703.488 1.228 1.17 1.228.404.008.732-.186.925-.457M288.738 96.994c-1.212 0-1.935-.88-1.935-1.913 0-1.059.673-1.914 1.784-1.914.967 0 1.598.669 1.598 1.567 0 .16-.017.321-.05.431h-2.6c.05.77.513 1.177 1.195 1.177.429 0 .782-.186 1.001-.482l.522.423c-.32.432-.859.711-1.515.711m-1.153-2.37h1.893c-.016-.44-.328-.847-.891-.847-.531 0-.892.296-1.002.846M268.553 98.256h3.946v.737h-1.574v4.182h-.799v-4.182h-1.573zM272.844 99.628h.715v.398c.244-.271.555-.474.984-.474.11 0 .219.017.312.05v.712a1.5 1.5 0 0 0-.371-.051c-.445 0-.74.237-.925.542v2.362h-.715zM275.275 102.253c0-.534.413-.923 1.162-1.05l1.135-.187v-.186c0-.432-.319-.703-.774-.703-.387 0-.681.178-.883.466l-.539-.415c.312-.423.817-.686 1.448-.686.95 0 1.472.559 1.472 1.347v2.337h-.715v-.398c-.253.313-.69.508-1.128.508-.698-.009-1.178-.407-1.178-1.033m1.305.431c.437 0 .782-.211.992-.55v-.61l-.95.161c-.438.076-.623.271-.623.534.008.279.219.465.581.465M279.643 99.628l1.035 2.76 1.027-2.76h.782l-1.338 3.548h-.95l-1.33-3.548zM282.865 102.253c0-.534.413-.923 1.161-1.05l1.136-.187v-.186c0-.432-.319-.703-.774-.703-.387 0-.681.178-.883.466l-.539-.415c.312-.423.816-.686 1.447-.686.951 0 1.473.559 1.473 1.347v2.337h-.715v-.398c-.253.313-.69.508-1.128.508-.707-.009-1.178-.407-1.178-1.033m1.304.431c.438 0 .783-.211.993-.55v-.61l-.951.161c-.437.076-.622.271-.622.534 0 .279.219.465.58.465M287.719 99.628h-.715v3.539h.715zM289.614 97.9h-.716v5.267h.716zM286.938 98.552c0-.237.193-.432.429-.432a.433.433 0 0 1 0 .864.437.437 0 0 1-.429-.432"/></g><g filter="url(#r)"><rect width="57.269" height="25.655" x="240.992" y="119.657" fill="#fff" rx="4"/><rect width="56.269" height="24.655" x="241.492" y="120.157" stroke="#e6e6e6" rx="3.5"/><g clip-path="url(#s)"><path fill="#000" d="M269.885 132.076c.38.009.758-.058 1.111-.196.354-.138.675-.346.944-.609.269-.264.482-.578.624-.925.142-.346.211-.717.203-1.09a2.81 2.81 0 0 0-.894-1.91 2.91 2.91 0 0 0-1.988-.78c-.74 0-1.452.279-1.989.78a2.8 2.8 0 0 0-.893 1.91c-.008.373.061.744.204 1.09.142.346.354.66.623.924a2.84 2.84 0 0 0 2.055.806m0-4.503c.94 0 1.623.706 1.623 1.683 0 .976-.683 1.681-1.623 1.681-.941 0-1.622-.707-1.622-1.681s.677-1.683 1.622-1.683M274.868 128.364l2.246 3.564h1.497v-5.347h-1.229v3.563l-2.245-3.563h-1.496v5.347h1.227zM269.201 133.339l-2.055 5.346h1.302l.506-1.35h2.01l.506 1.35h1.301l-2.058-5.346zm1.37 2.951h-1.229l.616-1.653zM274.932 134.263c.34 0 .665.204.996.624l.052.064.902-.802-.048-.049a2.447 2.447 0 0 0-1.91-.912c-1.019 0-1.787.679-1.787 1.582 0 1.061.843 1.424 1.519 1.716.475.204.885.383.885.73 0 .329-.219.518-.602.518a1.461 1.461 0 0 1-1.116-.609l-.052-.066-.894.811.046.056a2.46 2.46 0 0 0 2.033.907c1.067 0 1.824-.675 1.839-1.642 0-1.081-.85-1.444-1.531-1.736-.468-.201-.874-.365-.874-.731a.496.496 0 0 1 .542-.461M277.176 134.449h1.632v4.236h1.228v-4.236h1.632v-1.11h-4.492zM282.459 138.685h3.239v-1.027h-2.01v-1.185h1.709v-1.026h-1.709v-1.08h2.01v-1.028h-3.239zM289.63 136.338a1.47 1.47 0 0 0 .614-.568c.145-.244.214-.523.201-.805 0-1.004-.744-1.626-1.958-1.626h-1.696v5.346h1.229v-2.101h.431l1.415 2.101h1.453zm-.442-1.387c0 .385-.235.606-.642.606h-.526v-1.19h.526c.396 0 .642.224.642.584"/><path fill="#34cb6a" d="M248.367 132.897v1.645l5.482 2v-1.345l-3.991-1.477 3.991-1.478v-1.344z"/><path fill="#000" d="M248.367 130.745v1.644l5.482 1.999v-1.343l-3.991-1.479 3.991-1.477v-1.345z"/><path fill="#000" d="M248.367 135.044v1.644l5.482 2.001v-1.345l-3.991-1.479 3.991-1.477v-1.343z"/><path fill="#34cb6a" d="M248.367 128.598v1.645l5.482 1.999v-1.344l-3.991-1.478 3.991-1.477V126.6z"/><path fill="#000" d="M264.696 126.574h-1.674l-1.353 3.572-1.352-3.572h-1.674l-2.038 5.381h1.371l1.504-3.917 1.504 3.916v.001h1.371l1.504-3.917 1.504 3.917h1.371zM264.696 133.331h-1.674l-1.353 3.57-1.352-3.57h-1.674l-2.038 5.379h1.371l1.504-3.915 1.504 3.915h1.371l1.504-3.915 1.504 3.915h1.371z"/></g></g><defs><clipPath id="a"><path fill="#fff" d="M.426 104.313h175.386v109.82H.426z"/></clipPath><clipPath id="c"><path fill="#fff" d="M123.154 35.543h142.088V47.38H123.154z"/></clipPath><clipPath id="d"><path fill="#fff" d="M123.154 36.543a1 1 0 0 1 1-1h140.089a1 1 0 0 1 1 1V47.38H123.154z"/></clipPath><clipPath id="e"><path fill="#fff" d="M127.861 37.91h132.675v9.47H127.861z"/></clipPath><clipPath id="f"><path fill="#fff" d="M123.154 85.373h142.088V97.21H123.154z"/></clipPath><clipPath id="g"><path fill="#fff" d="M123.154 86.373a1 1 0 0 1 1-1h140.089a1 1 0 0 1 1 1V97.21H123.154z"/></clipPath><clipPath id="h"><path fill="#fff" d="M127.861 87.74h137.382v9.47H127.861z"/></clipPath><clipPath id="i"><path fill="#fff" d="M123.154 111.511h142.088v11.837H123.154z"/></clipPath><clipPath id="j"><path fill="#fff" d="M123.154 112.511a1 1 0 0 1 1-1h140.089a1 1 0 0 1 1 1v10.837H123.154z"/></clipPath><clipPath id="k"><path fill="#fff" d="M127.861 113.878h132.675v9.47H127.861z"/></clipPath><clipPath id="l"><path fill="#fff" d="M255.83 115.367h4.707v4.735h-4.707z"/></clipPath><clipPath id="n"><path fill="#fff" d="M237.84 28.346h62.638v9.002H237.84z"/></clipPath><clipPath id="p"><path fill="#fff" d="M246.342 58.437h46.531v9.901h-46.531z"/></clipPath><clipPath id="s"><path fill="#fff" d="M248.367 126.434h42.952v12.4h-42.952z"/></clipPath><filter id="b" width="181.443" height="177.932" x="103.412" y=".92" color-interpolation-filters="sRGB" filterUnits="userSpaceOnUse"><feFlood flood-opacity="0" result="BackgroundImageFix"/><feColorMatrix in="SourceAlpha" result="hardAlpha" values="0 0 0 0 0 0 0 0 0 0 0 0 0 0 0 0 0 0 127 0"/><feOffset dy="10"/><feGaussianBlur stdDeviation="5"/><feColorMatrix values="0 0 0 0 0 0 0 0 0 0 0 0 0 0 0 0 0 0 0.16 0"/><feBlend in2="BackgroundImageFix" result="effect1_dropShadow_1172_12506"/><feBlend in="SourceGraphic" in2="effect1_dropShadow_1172_12506" result="shape"/></filter><filter id="m" width="93.557" height="44.827" x="222.756" y="19.653" color-interpolation-filters="sRGB" filterUnits="userSpaceOnUse"><feFlood flood-opacity="0" result="BackgroundImageFix"/><feColorMatrix in="SourceAlpha" result="hardAlpha" values="0 0 0 0 0 0 0 0 0 0 0 0 0 0 0 0 0 0 127 0"/><feOffset dy="10"/><feGaussianBlur stdDeviation="5"/><feColorMatrix values="0 0 0 0 0 0 0 0 0 0 0 0 0 0 0 0 0 0 0.16 0"/><feBlend in2="BackgroundImageFix" result="effect1_dropShadow_1172_12506"/><feBlend in="SourceGraphic" in2="effect1_dropShadow_1172_12506" result="shape"/></filter><filter id="o" width="80.248" height="44.682" x="229.412" y="50.919" color-interpolation-filters="sRGB" filterUnits="userSpaceOnUse"><feFlood flood-opacity="0" result="BackgroundImageFix"/><feColorMatrix in="SourceAlpha" result="hardAlpha" values="0 0 0 0 0 0 0 0 0 0 0 0 0 0 0 0 0 0 127 0"/><feOffset dy="10"/><feGaussianBlur stdDeviation="5"/><feColorMatrix values="0 0 0 0 0 0 0 0 0 0 0 0 0 0 0 0 0 0 0.16 0"/><feBlend in2="BackgroundImageFix" result="effect1_dropShadow_1172_12506"/><feBlend in="SourceGraphic" in2="effect1_dropShadow_1172_12506" result="shape"/></filter><filter id="q" width="73.689" height="51.056" x="232.781" y="82.296" color-interpolation-filters="sRGB" filterUnits="userSpaceOnUse"><feFlood flood-opacity="0" result="BackgroundImageFix"/><feColorMatrix in="SourceAlpha" result="hardAlpha" values="0 0 0 0 0 0 0 0 0 0 0 0 0 0 0 0 0 0 127 0"/><feOffset dy="10"/><feGaussianBlur stdDeviation="5"/><feColorMatrix values="0 0 0 0 0 0 0 0 0 0 0 0 0 0 0 0 0 0 0.16 0"/><feBlend in2="BackgroundImageFix" result="effect1_dropShadow_1172_12506"/><feBlend in="SourceGraphic" in2="effect1_dropShadow_1172_12506" result="shape"/></filter><filter id="r" width="77.269" height="45.654" x="230.992" y="119.657" color-interpolation-filters="sRGB" filterUnits="userSpaceOnUse"><feFlood flood-opacity="0" result="BackgroundImageFix"/><feColorMatrix in="SourceAlpha" result="hardAlpha" values="0 0 0 0 0 0 0 0 0 0 0 0 0 0 0 0 0 0 127 0"/><feOffset dy="10"/><feGaussianBlur stdDeviation="5"/><feColorMatrix values="0 0 0 0 0 0 0 0 0 0 0 0 0 0 0 0 0 0 0.16 0"/><feBlend in2="BackgroundImageFix" result="effect1_dropShadow_1172_12506"/><feBlend in="SourceGraphic" in2="effect1_dropShadow_1172_12506" result="shape"/></filter></defs></svg>
