<svg width="246" height="170" viewBox="0 0 246 170" fill="none" xmlns="http://www.w3.org/2000/svg">
<path fill-rule="evenodd" clip-rule="evenodd" d="M53.2332 85.1904H23.7012C21.6457 85.1904 19.9873 86.8471 19.9873 88.9004V99.3852C19.9873 101.439 21.6457 103.095 23.7012 103.095H53.2332C55.2887 103.095 56.9471 101.439 56.9471 99.3852V88.9004C56.9471 86.8471 55.2887 85.1904 53.2332 85.1904ZM23.7014 86.2656H53.2333C54.6944 86.2656 55.8708 87.4408 55.8708 88.9002V99.385C55.8708 100.844 54.6944 102.02 53.2333 102.02H23.7014C22.2404 102.02 21.064 100.844 21.064 99.385V88.9002C21.064 87.4408 22.2404 86.2656 23.7014 86.2656Z" fill="#000074"/>
<path fill-rule="evenodd" clip-rule="evenodd" d="M51.1518 89.2949C51.4491 89.2949 51.69 89.5357 51.69 89.8326C51.69 90.119 51.466 90.353 51.1834 90.3694L51.1518 90.3703H26.7511C26.4539 90.3703 26.2129 90.1296 26.2129 89.8326C26.2129 89.5463 26.437 89.3122 26.7195 89.2958L26.7511 89.2949H51.1518Z" fill="#000074"/>
<path fill-rule="evenodd" clip-rule="evenodd" d="M45.8949 92.0186C46.1921 92.0186 46.4331 92.2593 46.4331 92.5562C46.4331 92.8426 46.2091 93.0766 45.9265 93.093L45.8949 93.0939H26.7511C26.4539 93.0939 26.2129 92.8532 26.2129 92.5562C26.2129 92.2699 26.437 92.0358 26.7195 92.0195L26.7511 92.0186H45.8949Z" fill="#000074"/>
<path fill-rule="evenodd" clip-rule="evenodd" d="M51.1518 95.0117C51.4491 95.0117 51.69 95.2524 51.69 95.5494C51.69 95.8358 51.466 96.0698 51.1834 96.0862L51.1518 96.0871H26.7511C26.4539 96.0871 26.2129 95.8464 26.2129 95.5494C26.2129 95.2631 26.437 95.029 26.7195 95.0126L26.7511 95.0117H51.1518Z" fill="#000074"/>
<path fill-rule="evenodd" clip-rule="evenodd" d="M45.8949 97.7354C46.1921 97.7354 46.4331 97.9761 46.4331 98.273C46.4331 98.5594 46.2091 98.7934 45.9265 98.8098L45.8949 98.8107H26.7511C26.4539 98.8107 26.2129 98.57 26.2129 98.273C26.2129 97.9867 26.437 97.7526 26.7195 97.7363L26.7511 97.7354H45.8949Z" fill="#000074"/>
<path fill-rule="evenodd" clip-rule="evenodd" d="M21.6021 91.7497C23.7325 91.7497 25.4595 90.0245 25.4595 87.8964C25.4595 85.7682 23.7325 84.043 21.6021 84.043C19.4717 84.043 17.7446 85.7682 17.7446 87.8964C17.7446 90.0245 19.4717 91.7497 21.6021 91.7497Z" fill="#9A9AFF"/>
<path fill-rule="evenodd" clip-rule="evenodd" d="M106.502 111.589H102.644V108.381H106.502C107.112 108.381 107.596 108.865 107.596 109.474V110.496C107.596 111.105 107.112 111.589 106.502 111.589Z" fill="#9A9AFF"/>
<path fill-rule="evenodd" clip-rule="evenodd" d="M155.554 111.589H146.44C145.83 111.589 145.345 111.105 145.345 110.496V109.474C145.345 108.865 145.83 108.381 146.44 108.381H155.554C156.164 108.381 156.648 108.865 156.648 109.474V110.496C156.631 111.105 156.146 111.589 155.554 111.589Z" fill="#9A9AFF"/>
<path fill-rule="evenodd" clip-rule="evenodd" d="M141.272 111.589H111.382C110.772 111.589 110.287 111.105 110.287 110.496V109.474C110.287 108.865 110.772 108.381 111.382 108.381H141.272C141.882 108.381 142.367 108.865 142.367 109.474V110.496C142.367 111.105 141.882 111.589 141.272 111.589Z" fill="#9A9AFF"/>
<path fill-rule="evenodd" clip-rule="evenodd" d="M156.523 104.977H102.823C102.535 104.977 102.298 105.203 102.286 105.491L102.265 105.997C102.202 107.595 102.187 108.875 102.227 110.07L102.238 110.377C102.268 111.077 102.383 112.233 102.647 114.607C102.677 114.879 102.908 115.085 103.182 115.085H156.523C158.309 115.085 159.752 113.643 159.752 111.859V108.185C159.752 106.415 158.306 104.977 156.523 104.977ZM103.34 106.052L156.523 106.052C157.712 106.052 158.676 107.01 158.676 108.185V111.859L158.675 111.913C158.646 113.079 157.696 114.009 156.523 114.009H103.664L103.564 113.096C103.392 111.495 103.32 110.671 103.308 110.161C103.267 109.038 103.275 107.844 103.328 106.37L103.34 106.052Z" fill="#000074"/>
<path fill-rule="evenodd" clip-rule="evenodd" d="M44.4411 102.091C44.7277 102.091 44.962 102.315 44.9784 102.597L44.9793 102.629V119.691C44.9793 119.988 44.7383 120.229 44.4411 120.229C44.1544 120.229 43.9201 120.005 43.9037 119.723L43.9028 119.691V102.629C43.9028 102.332 44.1438 102.091 44.4411 102.091Z" fill="#000074"/>
<path fill-rule="evenodd" clip-rule="evenodd" d="M44.4411 136.844C44.7277 136.844 44.962 137.068 44.9784 137.35L44.9793 137.381V139.532C44.9793 141.231 46.4531 142.62 48.3077 142.65L48.3703 142.651H75.4084C75.7057 142.651 75.9466 142.891 75.9466 143.188C75.9466 143.475 75.7226 143.709 75.44 143.725L75.4084 143.726H48.3703C45.9331 143.726 43.943 141.899 43.9034 139.602L43.9028 139.532V137.381C43.9028 137.084 44.1438 136.844 44.4411 136.844Z" fill="#000074"/>
<path fill-rule="evenodd" clip-rule="evenodd" d="M129.018 142.65C129.316 142.65 129.557 142.891 129.557 143.188C129.557 143.474 129.333 143.708 129.05 143.725L129.018 143.726H107.201C106.904 143.726 106.663 143.485 106.663 143.188C106.663 142.902 106.887 142.668 107.17 142.651L107.201 142.65H129.018Z" fill="#000074"/>
<path fill-rule="evenodd" clip-rule="evenodd" d="M202.292 114.35C202.579 114.35 202.813 114.573 202.829 114.856L202.83 114.887V139.531C202.83 141.837 200.865 143.688 198.437 143.724L198.363 143.725H178.394C178.096 143.725 177.855 143.484 177.855 143.187C177.855 142.901 178.08 142.667 178.362 142.65L178.394 142.65H198.363C200.226 142.65 201.72 141.28 201.753 139.588L201.754 139.531V114.887C201.754 114.59 201.995 114.35 202.292 114.35Z" fill="#000074"/>
<path fill-rule="evenodd" clip-rule="evenodd" d="M202.292 64.292C202.578 64.292 202.813 64.5158 202.829 64.7981L202.83 64.8297V76.2285C202.83 76.5255 202.589 76.7662 202.292 76.7662C202.005 76.7662 201.771 76.5424 201.754 76.2601L201.753 76.2285V65.3672H44.9792L44.9793 85.5663C44.9793 85.8526 44.7553 86.0867 44.4727 86.103L44.4411 86.1039C44.1544 86.1039 43.9201 85.8801 43.9037 85.5978L43.9028 85.5663V64.8297C43.9028 64.5433 44.1269 64.3093 44.4095 64.2929L44.4411 64.292H202.292Z" fill="#000074"/>
<path fill-rule="evenodd" clip-rule="evenodd" d="M125.466 47.1572H114.593C114.97 47.444 115.311 47.8024 115.616 48.1967C115.616 48.2147 115.634 48.2147 115.634 48.2326L120.442 55.8318H126.973C126.865 55.7422 126.812 55.5988 126.812 55.4375V48.3939C126.812 47.7128 126.202 47.1572 125.466 47.1572ZM123.241 51.8705H122.451V52.6591C122.451 52.9459 122.2 53.1968 121.913 53.1968C121.608 53.1968 121.375 52.9459 121.375 52.6591V51.8885H120.603C120.298 51.8885 120.065 51.6555 120.065 51.3508C120.065 51.0461 120.298 50.8131 120.603 50.8131H121.393V50.0245C121.393 49.7377 121.644 49.4868 121.931 49.4868C122.236 49.4868 122.469 49.7377 122.469 50.0245V50.7952H123.241C123.546 50.7952 123.779 51.0282 123.779 51.3329C123.779 51.6196 123.528 51.8705 123.241 51.8705Z" fill="#000074"/>
<path fill-rule="evenodd" clip-rule="evenodd" d="M198.955 43.2324L47.7606 43.4296C45.5718 43.4296 43.8135 45.3115 43.8135 47.6056L43.9032 55.9575L70.4927 55.8321L75.3011 48.2329C75.3011 48.2149 75.319 48.2149 75.319 48.197C76.3058 46.8887 77.795 46.1001 79.32 46.1001H111.454C111.507 46.0821 111.543 46.0821 111.597 46.0821H125.484C126.83 46.0821 127.906 47.1216 127.906 48.3942V55.4378C127.906 55.5991 127.834 55.7246 127.745 55.8321H202.92V56.9074H120.155C119.976 56.9074 119.796 56.8178 119.707 56.6565L114.755 48.8243C113.983 47.8027 112.817 47.1754 111.633 47.1754H79.3021C78.1179 47.1754 76.9517 47.7848 76.1802 48.8243L71.2283 56.6565C71.1386 56.8178 70.9592 56.9074 70.7798 56.9074L43.9032 57.0329L43.9929 66.1376H202.92V47.4084C202.902 45.0964 201.126 43.2324 198.955 43.2324ZM50.3797 52.3188C49.052 52.3188 47.9755 51.2435 47.9755 49.9172C47.9755 48.5909 49.052 47.5155 50.3797 47.5155C51.7074 47.5155 52.7839 48.5909 52.7839 49.9172C52.7839 51.2435 51.7074 52.3188 50.3797 52.3188ZM58.2921 52.3188C56.9645 52.3188 55.888 51.2435 55.888 49.9172C55.888 48.5909 56.9645 47.5155 58.2921 47.5155C59.6198 47.5155 60.6963 48.5909 60.6963 49.9172C60.6963 51.2435 59.6198 52.3188 58.2921 52.3188ZM66.2223 52.3188C64.8946 52.3188 63.8181 51.2435 63.8181 49.9172C63.8181 48.5909 64.8946 47.5155 66.2223 47.5155C67.55 47.5155 68.6265 48.5909 68.6265 49.9172C68.6265 51.2435 67.55 52.3188 66.2223 52.3188ZM194.505 50.7242L193.482 51.4769H193.554C193.841 51.5128 194.056 51.7816 194.039 52.0684C194.003 52.3372 193.769 52.5523 193.5 52.5523C193.482 52.5523 193.464 52.5523 193.446 52.5523L192.101 52.4089C192.083 52.4089 192.065 52.4089 192.029 52.4089C191.868 52.4089 191.706 52.3372 191.599 52.1939C191.509 52.0684 191.473 51.925 191.509 51.7637L191.778 50.3478C191.832 50.0611 192.119 49.8639 192.406 49.9177C192.693 49.9714 192.89 50.2582 192.836 50.545L192.819 50.6346L193.895 49.846C194.128 49.6668 194.469 49.7205 194.649 49.9714C194.828 50.2224 194.756 50.545 194.505 50.7242ZM198.291 47.9457L198.022 49.272C197.968 49.5229 197.753 49.7021 197.502 49.7021C197.466 49.7021 197.43 49.7021 197.394 49.6842C197.107 49.6304 196.909 49.3437 196.981 49.0569L196.999 48.9852L195.976 49.738C195.887 49.8097 195.761 49.8455 195.654 49.8455C195.492 49.8455 195.331 49.7738 195.223 49.6304C195.043 49.3974 195.097 49.0569 195.349 48.8777L196.425 48.0891L196.335 48.0712C196.048 48.0353 195.833 47.7665 195.869 47.4797C195.905 47.1929 196.174 46.9779 196.461 47.0137L197.896 47.175C198.04 47.1929 198.183 47.2646 198.273 47.3901C198.363 47.5693 198.381 47.7844 198.291 47.9457ZM108.691 51.4944C108.475 51.2973 108.439 50.9568 108.637 50.7417C108.834 50.5266 109.175 50.4908 109.39 50.6879L110.144 51.3331L110.897 50.6879C111.131 50.4908 111.472 50.5266 111.651 50.7596C111.848 50.9926 111.812 51.3331 111.579 51.5124L110.951 52.0321L111.579 52.5698C111.794 52.767 111.83 53.1075 111.633 53.3226C111.525 53.448 111.382 53.5018 111.22 53.5018C111.095 53.5018 110.969 53.4659 110.862 53.3763L110.108 52.7311L109.354 53.3763C109.247 53.4659 109.139 53.5018 109.014 53.5018C108.852 53.5018 108.709 53.4301 108.601 53.3046C108.404 53.0716 108.439 52.7311 108.673 52.5519L109.301 52.0321L108.691 51.4944ZM56.0675 62.0513H52.9995L53.7709 62.7503C53.9862 62.9474 54.0042 63.288 53.8068 63.5031C53.6992 63.6285 53.5556 63.6823 53.4121 63.6823C53.2865 63.6823 53.1609 63.6285 53.0533 63.5389L51.3488 61.9796C51.1694 61.89 51.0438 61.7108 51.0438 61.4957V61.4778V61.4599C51.0438 61.3165 51.0976 61.1731 51.2232 61.0656L52.9995 59.4167C53.2148 59.2195 53.5556 59.2195 53.753 59.4525C53.9504 59.6676 53.9324 60.0081 53.7171 60.2053L52.9097 60.9401H56.0675C56.3725 60.9401 56.6057 61.1731 56.6057 61.4778C56.6057 61.7825 56.3545 62.0513 56.0675 62.0513ZM64.5359 61.5136C64.5359 61.7287 64.4103 61.9079 64.2309 61.9976L62.5264 63.5568C62.4188 63.6465 62.2932 63.7002 62.1676 63.7002C62.0241 63.7002 61.8805 63.6465 61.7729 63.521C61.5755 63.3059 61.5935 62.9654 61.8088 62.7682L62.5803 62.0693H59.5122C59.2072 62.0693 58.974 61.8363 58.974 61.5316C58.974 61.2269 59.2072 60.9939 59.5122 60.9939H62.67L61.8626 60.2591C61.6473 60.0619 61.6294 59.7214 61.8267 59.5063C62.0241 59.2912 62.365 59.2733 62.5803 59.4705L64.3565 61.1193C64.4641 61.2269 64.5359 61.3703 64.5359 61.5136C64.5359 61.4957 64.5359 61.4778 64.5359 61.5136C64.5359 61.4957 64.5359 61.4957 64.5359 61.5136ZM178.609 62.5531C178.609 63.0549 178.214 63.4492 177.712 63.4492H71.5688C71.0664 63.4492 70.6717 63.0549 70.6717 62.5531V60.8684C70.6717 60.3665 71.0664 59.9722 71.5688 59.9722H177.712C178.214 59.9722 178.609 60.3665 178.609 60.8684V62.5531ZM187.92 60.976L186.987 61.5137L187.346 62.6428C187.418 62.8579 187.346 63.0909 187.167 63.2342C186.987 63.3776 186.754 63.3955 186.557 63.288L185.552 62.7145L184.529 63.4672C184.44 63.5389 184.332 63.5748 184.206 63.5748C184.081 63.5748 183.991 63.5389 183.884 63.4672C183.686 63.3239 183.614 63.0909 183.686 62.8579L184.063 61.6929L183.058 60.976C182.861 60.8326 182.789 60.5996 182.861 60.3666C182.933 60.1515 183.148 59.9902 183.381 59.9902H184.619L184.996 58.8253C185.068 58.6102 185.283 58.4489 185.516 58.4489C185.749 58.4489 185.965 58.5923 186.037 58.8253L186.413 59.9902H187.651C187.903 59.9902 188.1 60.1515 188.172 60.3845C188.243 60.6175 188.136 60.8684 187.92 60.976ZM196.497 63.5562H193.483C193.178 63.5562 192.944 63.3232 192.944 63.0185C192.944 62.7138 193.178 62.4809 193.483 62.4809H196.497C196.802 62.4809 197.035 62.7138 197.035 63.0185C197.035 63.3232 196.802 63.5562 196.497 63.5562ZM196.497 61.8902H193.483C193.178 61.8902 192.944 61.6572 192.944 61.3526C192.944 61.0479 193.178 60.8149 193.483 60.8149H196.497C196.802 60.8149 197.035 61.0479 197.035 61.3526C197.035 61.6572 196.802 61.8902 196.497 61.8902ZM196.497 60.205H193.483C193.178 60.205 192.944 59.972 192.944 59.6673C192.944 59.3626 193.178 59.1296 193.483 59.1296H196.497C196.802 59.1296 197.035 59.3626 197.035 59.6673C197.035 59.972 196.802 60.205 196.497 60.205Z" fill="#000074"/>
<path fill-rule="evenodd" clip-rule="evenodd" d="M156.146 85.9961H104.295C104.223 86.7668 104.169 87.5554 104.115 88.3081C103.828 93.1652 103.415 97.377 103.128 101.141H156.164C157.886 101.141 159.286 99.7428 159.286 98.0222V89.0967C159.268 87.3761 157.868 85.9961 156.146 85.9961Z" fill="#000074"/>
<path fill-rule="evenodd" clip-rule="evenodd" d="M174.86 129.083H132.625C130.354 129.083 128.499 130.937 128.499 133.205V151.522C128.499 153.791 130.354 155.644 132.625 155.644H174.86C177.131 155.644 178.986 153.791 178.986 151.522V133.205C178.986 130.937 177.131 129.083 174.86 129.083ZM132.625 130.159H174.86C176.536 130.159 177.91 131.531 177.91 133.205V151.522C177.91 153.197 176.536 154.569 174.86 154.569H132.625C130.949 154.569 129.575 153.197 129.575 151.522V133.205C129.575 131.531 130.949 130.159 132.625 130.159Z" fill="#000074"/>
<path fill-rule="evenodd" clip-rule="evenodd" d="M141.111 134.657C137.99 134.657 135.459 137.185 135.459 140.303C135.459 143.421 137.99 145.949 141.111 145.949C144.232 145.949 146.763 143.421 146.763 140.303C146.763 137.185 144.232 134.657 141.111 134.657ZM141.111 135.732C143.638 135.732 145.686 137.779 145.686 140.303C145.686 142.827 143.638 144.873 141.111 144.873C138.585 144.873 136.536 142.827 136.536 140.303C136.536 137.779 138.585 135.732 141.111 135.732Z" fill="#000074"/>
<path fill-rule="evenodd" clip-rule="evenodd" d="M169.746 144.963H163.359C162.416 144.963 161.654 145.723 161.654 146.666V147.311C161.654 148.253 162.416 149.013 163.359 149.013H169.746C170.669 149.013 171.424 148.259 171.45 147.326L171.45 146.666C171.45 145.723 170.689 144.963 169.746 144.963ZM163.359 146.038H169.746C170.095 146.038 170.374 146.317 170.374 146.665V147.311C170.364 147.653 170.079 147.938 169.746 147.938H163.359C163.01 147.938 162.731 147.659 162.731 147.311V146.665C162.731 146.317 163.01 146.038 163.359 146.038Z" fill="#000074"/>
<path fill-rule="evenodd" clip-rule="evenodd" d="M130.131 134.728C132.261 134.728 133.988 133.003 133.988 130.875C133.988 128.747 132.261 127.021 130.131 127.021C128 127.021 126.273 128.747 126.273 130.875C126.273 133.003 128 134.728 130.131 134.728Z" fill="#9A9AFF"/>
<path fill-rule="evenodd" clip-rule="evenodd" d="M149.564 138.976L170.394 139.029C170.691 139.03 170.931 139.271 170.931 139.568C170.93 139.855 170.705 140.088 170.423 140.104L170.391 140.105L149.561 140.051C149.264 140.05 149.023 139.809 149.024 139.512C149.025 139.226 149.249 138.992 149.532 138.976L149.564 138.976Z" fill="#000074"/>
<path fill-rule="evenodd" clip-rule="evenodd" d="M149.796 141.593L170.609 141.647C170.906 141.647 171.146 141.889 171.146 142.186C171.145 142.472 170.92 142.705 170.638 142.721L170.606 142.722L149.794 142.668C149.496 142.667 149.256 142.426 149.257 142.129C149.258 141.843 149.482 141.609 149.765 141.594L149.796 141.593Z" fill="#000074"/>
<path fill-rule="evenodd" clip-rule="evenodd" d="M217.685 75.7982L180.515 75.6906C178.062 75.6703 176.061 77.6508 176.061 80.0997L175.971 110.871C175.951 113.318 177.933 115.318 180.385 115.318L217.558 115.425C220.003 115.425 221.989 113.454 222.009 111.021L222.099 80.2446C222.119 77.7976 220.137 75.7982 217.685 75.7982ZM180.445 76.7662L217.684 76.8738C219.518 76.8739 221.005 78.3533 221.023 80.1786L220.933 111.015C220.917 112.856 219.412 114.35 217.56 114.35L180.386 114.243C178.552 114.243 177.065 112.763 177.047 110.938L177.137 80.1015C177.137 78.2688 178.618 76.7834 180.445 76.7662Z" fill="#000074"/>
<path fill-rule="evenodd" clip-rule="evenodd" d="M213.685 94.724L205.701 94.7061C204.847 94.7061 204.158 95.3949 204.158 96.2474L204.14 104.347C204.14 105.201 204.829 105.89 205.683 105.89L213.665 105.908C214.513 105.935 215.21 105.24 215.21 104.366L215.228 96.2665C215.228 95.4128 214.538 94.724 213.685 94.724ZM205.699 95.782L213.683 95.7999C213.943 95.7999 214.151 96.0072 214.151 96.2659L214.133 104.366C214.133 104.63 213.947 104.826 213.712 104.833L205.684 104.815C205.424 104.815 205.216 104.608 205.216 104.349L205.234 96.2492C205.234 95.9893 205.442 95.782 205.699 95.782Z" fill="#000074"/>
<path fill-rule="evenodd" clip-rule="evenodd" d="M212.178 84.1322L186.217 84.0605C185.074 84.0605 184.153 84.9658 184.153 86.1037L184.135 90.1878C184.135 91.331 185.041 92.2512 186.18 92.2512L212.14 92.3229C213.259 92.3229 214.18 91.4094 214.205 90.2914L214.223 86.1957C214.223 85.0525 213.317 84.1322 212.178 84.1322ZM186.176 85.1371L186.216 85.1362L212.176 85.2081C212.718 85.2081 213.146 85.643 213.146 86.1938L213.128 90.2778C213.117 90.805 212.67 91.248 212.142 91.248L186.182 91.1763C185.639 91.1763 185.211 90.7414 185.211 90.1906L185.229 86.1065C185.229 85.5774 185.644 85.1573 186.176 85.1371Z" fill="#000074"/>
<path fill-rule="evenodd" clip-rule="evenodd" d="M185.033 103.938L201.449 103.973C201.746 103.974 201.987 104.215 201.986 104.512C201.986 104.799 201.761 105.032 201.478 105.048L201.447 105.049L185.03 105.013C184.733 105.012 184.493 104.771 184.493 104.474C184.494 104.188 184.718 103.954 185.001 103.938L185.033 103.938Z" fill="#000074"/>
<path fill-rule="evenodd" clip-rule="evenodd" d="M185.033 99.6533L201.468 99.7071C201.765 99.7081 202.005 99.9496 202.004 100.247C202.003 100.533 201.778 100.766 201.496 100.782L201.464 100.782L185.03 100.729C184.732 100.728 184.492 100.486 184.493 100.189C184.494 99.9029 184.719 99.6696 185.002 99.6541L185.033 99.6533Z" fill="#000074"/>
<path fill-rule="evenodd" clip-rule="evenodd" d="M185.051 95.3701L201.467 95.4239C201.765 95.4249 202.005 95.6664 202.004 95.9633C202.003 96.2497 201.778 96.483 201.495 96.4984L201.464 96.4992L185.047 96.4455C184.75 96.4445 184.51 96.203 184.511 95.906C184.512 95.6197 184.737 95.3864 185.019 95.3709L185.051 95.3701Z" fill="#000074"/>
<path fill-rule="evenodd" clip-rule="evenodd" d="M178.376 81.2292C180.506 81.2292 182.233 79.504 182.233 77.3758C182.233 75.2477 180.506 73.5225 178.376 73.5225C176.245 73.5225 174.518 75.2477 174.518 77.3758C174.518 79.504 176.245 81.2292 178.376 81.2292Z" fill="#9A9AFF"/>
<path fill-rule="evenodd" clip-rule="evenodd" d="M50.5243 119.1H5.34717C3.56075 119.1 2.11768 120.541 2.11768 122.326V134.567C2.11768 136.351 3.56075 137.793 5.34717 137.793H50.5243C52.3107 137.793 53.7538 136.351 53.7538 134.567V122.326C53.7538 120.541 52.3107 119.1 50.5243 119.1ZM5.34717 120.175H50.5243C51.7162 120.175 52.6773 121.135 52.6773 122.326V134.567C52.6773 135.758 51.7162 136.718 50.5243 136.718H5.34717C4.15528 136.718 3.19417 135.758 3.19417 134.567V122.326C3.19417 121.135 4.15528 120.175 5.34717 120.175Z" fill="#000074"/>
<path fill-rule="evenodd" clip-rule="evenodd" d="M45.6439 125.893C45.9412 125.893 46.1822 126.133 46.1822 126.43C46.1822 126.717 45.9581 126.951 45.6756 126.967L45.6439 126.968H9.43766C9.1404 126.968 8.89941 126.727 8.89941 126.43C8.89941 126.144 9.12349 125.91 9.40604 125.893L9.43766 125.893H45.6439Z" fill="#000074"/>
<path fill-rule="evenodd" clip-rule="evenodd" d="M41.4097 129.781C41.707 129.781 41.9479 130.022 41.9479 130.319C41.9479 130.605 41.7239 130.839 41.4413 130.856L41.4097 130.857H9.43766C9.1404 130.857 8.89941 130.616 8.89941 130.319C8.89941 130.033 9.12349 129.799 9.40604 129.782L9.43766 129.781H41.4097Z" fill="#000074"/>
<path fill-rule="evenodd" clip-rule="evenodd" d="M3.85746 124.153C5.98787 124.153 7.71491 122.428 7.71491 120.3C7.71491 118.172 5.98787 116.446 3.85746 116.446C1.72704 116.446 0 118.172 0 120.3C0 122.428 1.72704 124.153 3.85746 124.153Z" fill="#9A9AFF"/>
<path fill-rule="evenodd" clip-rule="evenodd" d="M147.659 33.0526C145.991 13.1942 128.516 -1.53823 108.636 0.12858C88.757 1.79539 74.009 19.2521 75.6775 39.1105C76.6823 51.047 83.3925 61.1196 92.9015 66.9086L89.4567 72.5184C92.1839 74.6871 94.4445 77.25 95.6825 78.7734L96.7231 79.795C96.7231 78.1103 97.0102 70.1526 101.908 69.5074C103.559 69.2923 104.456 70.0809 104.905 71.5327C108.062 72.1241 111.328 72.3213 114.683 72.0345C134.58 70.3677 149.328 52.911 147.659 33.0526ZM114.018 63.9516C98.6245 65.242 85.0785 53.8253 83.7688 38.4476C82.477 23.0699 93.9058 9.53825 109.3 8.22989C124.694 6.92154 138.24 18.3562 139.549 33.7339C140.841 49.1295 129.412 62.6433 114.018 63.9516Z" fill="#9A9AFF"/>
<path fill-rule="evenodd" clip-rule="evenodd" d="M78.7399 68.3762C74.0892 69.5453 69.7831 71.8052 66.4631 75.0815C62.5307 78.9623 60.125 84.1006 59.6037 90.4686L59.6022 90.4944C59.3504 97.9922 62.3192 104.995 67.4111 111.3C69.1161 113.411 70.942 115.291 72.7686 116.916C73.4086 117.486 74.0034 117.983 74.5381 118.406L74.6076 118.461C74.7217 118.551 74.8277 118.633 74.9251 118.707L74.9937 118.759L74.6012 169.35C74.5989 169.65 74.8417 169.893 75.1413 169.892L110.755 169.767C111.072 169.766 111.317 169.493 111.29 169.182L111.27 169.043L110.155 161.372L109.571 157.321C108.831 152.182 108.098 147.039 107.403 142.095L107.022 139.381C104.758 123.2 103.381 112.551 103.308 110.175C103.251 108.356 103.306 106.356 103.467 103.855L103.516 103.124C103.574 102.281 103.644 101.377 103.733 100.282L104.134 95.5153C104.346 92.9531 104.501 90.8753 104.628 88.7661L104.653 88.3573C104.696 87.6214 104.755 86.848 104.83 86.0079L104.882 85.454C104.961 84.6255 105.051 83.773 105.189 82.5188L105.345 81.0774C105.834 76.5189 105.926 74.8858 105.737 73.0266C105.444 70.1419 104.221 68.6807 101.839 68.9918C99.243 69.3222 97.6395 71.4342 96.8056 74.6675C96.5223 75.7658 96.3451 76.9353 96.2527 78.1168L96.2439 78.2325L96.2283 78.4587L96.2198 78.5952L96.1909 78.5596C96.0403 78.3744 95.8817 78.1824 95.7157 77.9847C94.5773 76.6291 93.3166 75.2736 91.9668 74.0069C88.6559 70.8999 85.3614 68.8288 82.2325 68.2828C81.0215 68.0715 79.854 68.0961 78.7399 68.3762ZM82.0471 69.3422C84.924 69.8442 88.0582 71.8145 91.2297 74.7907C92.5459 76.0259 93.7782 77.3509 94.8909 78.6758L95.0819 78.9048C95.3318 79.2062 95.5622 79.4919 95.7719 79.7586L95.9253 79.9551C96.0146 80.0703 96.0941 80.1743 96.1633 80.2662L96.2876 80.4332C96.5929 80.8532 97.251 80.6387 97.2613 80.1315L97.2598 80.0368C97.2523 79.5741 97.2679 78.9413 97.3258 78.2006C97.4137 77.0771 97.5818 75.9677 97.8479 74.9358C98.5842 72.0814 99.9215 70.3199 101.976 70.0583C103.622 69.8434 104.41 70.76 104.658 73.0572L104.678 73.2509C104.848 75.0434 104.734 76.7492 104.207 81.5924L103.991 83.5761C103.904 84.3908 103.839 85.0348 103.778 85.6978L103.739 86.1232C103.678 86.8229 103.628 87.4784 103.589 88.1068L103.541 88.9046C103.429 90.7325 103.296 92.5504 103.121 94.6981L102.711 99.5766C102.592 101.015 102.505 102.131 102.434 103.166L102.392 103.788C102.23 106.319 102.174 108.351 102.231 110.208C102.302 112.499 103.519 122.018 105.556 136.664L106.158 140.978L106.447 143.028C107.109 147.732 107.804 152.604 108.505 157.474L109.744 166.039L110.131 168.693L75.6817 168.815L76.0723 118.494C76.0736 118.319 75.9898 118.155 75.8475 118.053L75.6843 117.932L75.5202 117.808C75.4431 117.749 75.3606 117.684 75.2728 117.615L75.206 117.563C74.6873 117.153 74.1085 116.669 73.4846 116.114C71.6998 114.525 69.9145 112.688 68.2489 110.625L68.1012 110.441C63.2974 104.43 60.4955 97.7987 60.6717 90.7465L60.6776 90.5438L60.6766 90.5563C61.1768 84.445 63.47 79.5469 67.2196 75.8466C70.3943 72.7136 74.5291 70.5436 79.0025 69.4191C79.9641 69.1774 80.9798 69.1559 82.0471 69.3422Z" fill="#000074"/>
<path fill-rule="evenodd" clip-rule="evenodd" d="M58.3459 118.06C57.5923 119.279 58.6868 121.322 60.8039 122.63L61.8983 123.311C64.0154 124.619 66.3299 124.691 67.0835 123.472L76.2337 108.399L68.1061 102.252L58.3459 118.06Z" fill="#9A9AFF"/>
<path fill-rule="evenodd" clip-rule="evenodd" d="M71.9658 93.0022C72.0762 92.7265 72.3895 92.5924 72.6655 92.7027C81.2607 96.1371 91.3058 104.785 90.6116 108.168C89.9575 111.356 86.6097 112.549 81.9329 111.561C80.3738 111.225 77.9692 109.941 74.8993 107.925L74.7745 107.843C74.1578 107.436 73.5213 107.004 72.8683 106.551C71.4181 105.543 69.9469 104.47 68.5187 103.392L68.1304 103.097C67.769 102.823 67.428 102.561 67.1105 102.316L66.5874 101.909L66.1014 101.526C65.8691 101.341 65.8311 101.003 66.0165 100.77C66.1948 100.547 66.5148 100.504 66.7457 100.665L66.7952 100.703L67.251 101.062L67.7698 101.465C68.0849 101.709 68.4233 101.969 68.7821 102.241C70.3196 103.41 71.9147 104.578 73.483 105.668C74.0483 106.061 74.6008 106.437 75.1382 106.794L75.3675 106.945C78.385 108.935 80.7556 110.207 82.1579 110.509C86.3236 111.39 89.0512 110.417 89.557 107.952C89.7859 106.836 87.7705 104.154 84.4087 101.26C80.8058 98.1583 76.3066 95.3158 72.2657 93.7011C71.9897 93.5908 71.8554 93.2779 71.9658 93.0022Z" fill="#000074"/>
<path fill-rule="evenodd" clip-rule="evenodd" d="M74.4531 83.6374C74.5737 83.3781 74.875 83.2601 75.1379 83.3635L75.1759 83.38L75.406 83.4895L75.7147 83.6397C75.825 83.6939 75.9425 83.7522 76.0669 83.8145L76.3549 83.9597C76.9881 84.281 77.6797 84.6457 78.4168 85.0509C80.8468 86.3869 83.277 87.8894 85.5476 89.5268C88.2388 91.4673 90.5243 93.4692 92.2781 95.5113L92.3904 95.643L92.4653 95.7261C95.0951 98.6669 96.1245 102.14 95.4171 104.805L95.3949 104.887C94.6283 107.62 92.1958 108.663 89.5424 107.107C89.286 106.957 89.2002 106.628 89.3507 106.372C89.5011 106.115 89.831 106.03 90.0873 106.18C92.1216 107.373 93.7791 106.662 94.3584 104.597C95.0029 102.299 94.0883 99.1571 91.6659 96.4464L91.5747 96.3448C89.8692 94.3293 87.6044 92.3361 84.9176 90.3987C82.6857 88.7894 80.2918 87.3092 77.8977 85.993L77.5658 85.8116C76.9085 85.4545 76.2915 85.1321 75.725 84.8464L75.4069 84.6873C75.292 84.6303 75.1842 84.5773 75.0838 84.5285L74.7144 84.3516C74.4448 84.2265 74.3278 83.9067 74.4531 83.6374Z" fill="#000074"/>
<path fill-rule="evenodd" clip-rule="evenodd" d="M75.7922 75.7251C75.8792 75.4523 76.1639 75.2973 76.438 75.3674L76.4884 75.3825L76.6831 75.4475L76.8844 75.517C77.0495 75.5748 77.2323 75.6406 77.4316 75.7144L77.739 75.8296C78.4146 76.0861 79.1524 76.3866 79.9384 76.732C82.5293 77.8702 85.1204 79.2592 87.5418 80.9086C91.3394 83.4956 94.3601 86.4812 96.3107 89.8879C98.0411 92.9102 98.7736 95.3789 98.6517 97.358C98.5522 98.9747 97.8913 100.185 96.857 101.021C96.4626 101.34 96.0414 101.581 95.6195 101.756C95.3618 101.863 95.1557 101.925 95.0254 101.954C94.735 102.017 94.4481 101.833 94.3847 101.543C94.3234 101.263 94.4923 100.987 94.7649 100.911L94.8363 100.893C94.8515 100.888 94.8703 100.883 94.8926 100.876C94.9859 100.848 95.0916 100.81 95.2065 100.763C95.5382 100.625 95.8708 100.435 96.1799 100.185C96.9862 99.5333 97.4968 98.5982 97.5773 97.292C97.6847 95.5479 97.0107 93.2765 95.3762 90.4218C93.5162 87.1732 90.6085 84.2992 86.9353 81.7971C84.5732 80.188 82.0392 78.8296 79.505 77.7163C78.6774 77.3527 77.9053 77.0402 77.2062 76.7781L77.0576 76.7227C76.8323 76.6393 76.6295 76.5668 76.451 76.5049L76.2631 76.4408L76.1416 76.4007C75.8583 76.3105 75.7019 76.0081 75.7922 75.7251Z" fill="#000074"/>
<path fill-rule="evenodd" clip-rule="evenodd" d="M96.4074 79.3079C96.6673 79.1638 96.995 79.2574 97.1393 79.517C99.1702 83.171 100.15 86.164 100.245 88.57C100.32 90.4875 99.8323 91.9403 98.9617 92.9711C98.6724 93.3136 98.3605 93.5843 98.046 93.7911C97.8498 93.92 97.6896 94.0012 97.5838 94.0428C97.3073 94.1518 96.9947 94.0161 96.8857 93.7399C96.7805 93.4735 96.903 93.1736 97.1599 93.0549L97.2133 93.0319C97.2611 93.0098 97.3449 92.9646 97.4543 92.8927C97.6853 92.7409 97.919 92.538 98.1389 92.2777C98.8345 91.4541 99.2342 90.2642 99.1693 88.6121C99.0821 86.3928 98.1532 83.5566 96.1981 80.039C96.0538 79.7794 96.1475 79.4521 96.4074 79.3079Z" fill="#000074"/>
<path fill-rule="evenodd" clip-rule="evenodd" d="M244.671 168.925C244.968 168.925 245.209 169.166 245.209 169.462C245.209 169.749 244.985 169.983 244.702 169.999L244.671 170H0.861492C0.564225 170 0.323242 169.759 0.323242 169.462C0.323242 169.176 0.547319 168.942 0.829866 168.926L0.861492 168.925H244.671Z" fill="#000074"/>
</svg>
