<svg width="405" height="346" viewBox="0 0 405 346" fill="none" xmlns="http://www.w3.org/2000/svg">
<rect y="148.603" width="307.055" height="197.397" fill="#E3E3FD"/>
<rect x="96.5115" width="306.857" height="235.917" fill="#F5F5FE"/>
<path fill-rule="evenodd" clip-rule="evenodd" d="M281.19 142.256C320.061 140.027 325.626 163.375 324.156 181.135C322.66 199.316 318.723 248.977 318.723 248.977C318.959 249.239 226.387 249.239 226.649 248.977C226.649 248.977 230.35 199.316 231.846 181.135C233.316 163.375 242.66 140 281.19 142.256Z" fill="#FF8D7E"/>
<path fill-rule="evenodd" clip-rule="evenodd" d="M310.634 189.765L307.227 233.646C306.72 240.12 306.324 245.094 305.991 249.172C305.955 249.605 305.575 249.928 305.142 249.892C304.708 249.857 304.386 249.477 304.421 249.044L305.099 240.608C305.39 236.939 305.724 232.682 306.116 227.644L309.312 186.497L309.749 181.044C310.477 172.224 309.296 164.286 305.73 157.953C301.358 150.188 293.578 145.161 281.814 143.482C281.383 143.42 281.084 143.021 281.146 142.591C281.207 142.161 281.606 141.862 282.036 141.923C294.271 143.67 302.482 148.976 307.103 157.181C310.807 163.76 312.045 171.902 311.341 180.9L310.755 188.228C310.716 188.723 310.676 189.235 310.634 189.765Z" fill="#2E186A"/>
<path fill-rule="evenodd" clip-rule="evenodd" d="M231.846 204.379C231.846 204.353 210.901 207.658 210.901 207.658L208.67 228.567L209.458 244.989C213.972 245.094 218.854 244.779 224.025 243.835C227.279 243.232 230.77 240.451 231.715 237.276C233.264 232.003 233.631 217.47 231.846 204.379Z" fill="white"/>
<path fill-rule="evenodd" clip-rule="evenodd" d="M231.971 203.601L231.878 203.592L231.813 203.592C231.797 203.593 231.793 203.593 231.781 203.594L231.709 203.602L231.495 203.633L227.687 204.222L217.944 205.751L210.779 206.881C210.427 206.936 210.156 207.221 210.118 207.574L207.887 228.483C207.883 228.523 207.882 228.564 207.884 228.604L208.671 245.027C208.691 245.439 209.026 245.766 209.439 245.776C214.28 245.888 219.194 245.517 224.166 244.609C227.807 243.934 231.464 240.88 232.47 237.501L232.52 237.325C234.171 231.42 234.308 216.608 232.626 204.272L232.615 204.274L232.609 204.239C232.581 204.09 232.568 204.067 232.507 203.95L232.348 203.787C232.286 203.725 232.273 203.717 232.236 203.695L232.088 203.634C232.03 203.611 232.015 203.608 231.971 203.601ZM231.17 205.274L231.212 205.595C232.727 217.624 232.533 231.695 230.959 237.055C230.13 239.842 226.959 242.49 223.881 243.061L223.439 243.14C219.021 243.919 214.65 244.265 210.338 244.217L210.209 244.215L209.46 228.59L211.62 208.341L227.604 205.828L231.17 205.274Z" fill="#2E186A"/>
<path fill-rule="evenodd" clip-rule="evenodd" d="M217.516 249.764L221.715 225.287C221.715 225.287 217.778 220.382 218.093 213.456C218.119 213.01 218.145 212.538 218.198 212.065C218.172 211.96 209.904 209.285 209.432 208.288C209.746 202.647 214.34 187.668 222.424 184.205C225.022 182.998 231.295 181.214 232.581 180.768C238.565 178.748 251.138 175.443 262.056 177.62C262.056 177.62 278.749 180.348 282.476 182.552C284.497 183.759 294.602 190.291 296.518 208.366C296.544 208.655 279.064 214.767 279.064 214.767L277.332 249.738" fill="#24348C"/>
<path fill-rule="evenodd" clip-rule="evenodd" d="M243.054 169.33L242.896 178.958L239.484 179.614C238.907 180.453 232.45 190.317 247.043 191.577C256.571 192.416 267.069 186.828 272.712 180.191L263.369 177.646L260.56 159.781L243.054 169.33Z" fill="white"/>
<path fill-rule="evenodd" clip-rule="evenodd" d="M242.676 168.639L242.631 168.666C242.409 168.807 242.271 169.051 242.266 169.317L242.119 178.305L239.335 178.841C239.132 178.88 238.952 178.997 238.835 179.168C238.461 179.711 238.03 180.459 237.646 181.348C237.047 182.738 236.72 184.133 236.788 185.477C236.98 189.28 240.198 191.776 246.975 192.361C256.179 193.171 267.045 188.072 273.312 180.7L273.342 180.663C273.674 180.224 273.46 179.579 272.919 179.431L264.067 177.02L261.338 159.658C261.253 159.121 260.661 158.829 260.183 159.09L242.676 168.639ZM259.956 161.007L262.591 177.768L262.6 177.819C262.664 178.102 262.879 178.328 263.162 178.405L271.279 180.616L271.187 180.715C265.125 187.157 255.344 191.518 247.112 190.792C241.041 190.269 238.508 188.304 238.361 185.398C238.307 184.327 238.58 183.158 239.092 181.972C239.285 181.526 239.5 181.102 239.727 180.71L239.778 180.622C239.828 180.536 239.877 180.456 239.923 180.382L239.959 180.324L243.045 179.731L243.092 179.72C243.433 179.633 243.678 179.327 243.683 178.971L243.833 169.801L259.956 161.007Z" fill="#2E186A"/>
<rect width="4.3823" height="7.71422" transform="matrix(0.771667 0.636026 -0.636397 0.771361 277.766 119.681)" fill="#FF8D7E"/>
<path fill-rule="evenodd" clip-rule="evenodd" d="M284.077 123.21C288.339 123.21 291.794 119.757 291.794 115.498C291.794 111.238 288.339 107.785 284.077 107.785C279.815 107.785 276.361 111.238 276.361 115.498C276.361 119.757 279.815 123.21 284.077 123.21Z" fill="#2E186A"/>
<path fill-rule="evenodd" clip-rule="evenodd" d="M275.468 122.686C269.72 118.803 263.106 115.865 256.046 116.468C234.287 119.328 229.012 133.048 234.445 141.548C237.857 131.736 240.744 128.483 245.022 127.25C246.544 134.15 257.384 144.591 268.408 147.897C268.434 147.87 265.468 157.787 264.523 157.446C264.182 157.971 260.665 162.719 260.665 162.719L262.896 173.79L287.699 176.807C289.195 177.2 290.77 176.072 290.823 174.551C291.111 165.132 293.788 135.488 275.468 122.686Z" fill="#2E186A"/>
<path fill-rule="evenodd" clip-rule="evenodd" d="M261.426 159.755L262.791 160.463C262.791 160.463 271.059 163.926 273.5 156.056C275.363 150.074 269.327 148.736 266.282 148.421" fill="white"/>
<path fill-rule="evenodd" clip-rule="evenodd" d="M265.499 148.34C265.543 147.908 265.93 147.594 266.363 147.639C268.611 147.871 270.64 148.424 272.173 149.462C274.367 150.947 275.199 153.248 274.252 156.289C273.262 159.48 271.279 161.262 268.644 161.821C267.054 162.158 265.382 162.025 263.77 161.604L263.57 161.55C263.086 161.416 262.715 161.284 262.487 161.189L262.457 161.176L262.428 161.161L261.063 160.453C260.677 160.253 260.527 159.778 260.727 159.392C260.92 159.02 261.368 158.867 261.746 159.035L261.789 159.056L263.122 159.748L263.196 159.776C263.23 159.789 263.271 159.804 263.318 159.821L263.368 159.838C263.603 159.921 263.872 160.003 264.168 160.081C265.563 160.446 267.002 160.56 268.317 160.281C270.399 159.84 271.928 158.465 272.748 155.821C273.487 153.448 272.914 151.865 271.29 150.765C270.018 149.905 268.214 149.412 266.201 149.204C265.768 149.159 265.454 148.773 265.499 148.34Z" fill="#2E186A"/>
<path fill-rule="evenodd" clip-rule="evenodd" d="M234.445 141.574C237.857 131.763 240.586 128.877 244.865 127.644C246.361 134.438 255.81 144.329 268.119 147.87C267.988 149.313 268.145 148.028 267.778 149.576C267.279 151.123 266.728 152.881 266.177 154.35C263.736 159.781 260.665 162.771 260.665 162.771C256.177 167.52 250.088 170.405 243.264 169.277C231.374 167.31 232.502 150.126 233.185 146.427C233.5 144.565 234.418 141.574 234.445 141.574C234.418 141.574 234.418 141.574 234.445 141.574Z" fill="white"/>
<path fill-rule="evenodd" clip-rule="evenodd" d="M244.501 126.931C239.71 128.366 236.966 131.927 233.701 141.316L233.703 141.317L233.664 141.425C233.364 142.265 232.693 144.743 232.438 146.126L232.408 146.296C231.835 149.402 231.798 154.455 232.741 158.673C234.144 164.947 237.478 169.118 243.135 170.054L243.336 170.086C249.897 171.1 256.159 168.601 261.087 163.47L261.228 163.322L261.305 163.244C261.427 163.121 261.594 162.942 261.802 162.709C262.226 162.231 262.686 161.669 263.168 161.026C264.531 159.207 265.812 157.084 266.895 154.673L266.914 154.627C267.159 153.975 267.41 153.251 267.703 152.365L267.964 151.57L268.527 149.817L268.536 149.787L268.61 149.489C268.649 149.331 268.682 149.214 268.707 149.132L268.736 149.047L268.753 149.012L268.759 148.999C268.806 148.892 268.823 148.823 268.836 148.701L268.903 147.942C268.938 147.566 268.7 147.219 268.337 147.114C262.65 145.478 257.268 142.356 252.97 138.398C249.039 134.778 246.352 130.736 245.634 127.475C245.536 127.031 245.083 126.762 244.646 126.888L244.501 126.931ZM244.209 128.689L244.313 128.65L244.316 128.659C245.34 132.09 248.073 136.029 251.903 139.556L252.101 139.737C256.342 143.59 261.567 146.66 267.119 148.392L267.279 148.442L267.278 148.452L267.255 148.513C267.243 148.544 267.231 148.578 267.219 148.616L267.206 148.656C267.164 148.792 267.113 148.978 267.052 149.227L267.019 149.362L266.375 151.361L266.156 152.029C265.909 152.772 265.692 153.395 265.484 153.955L265.449 154.048L265.459 154.028C264.425 156.328 263.204 158.352 261.908 160.083C261.453 160.69 261.02 161.218 260.624 161.663L260.49 161.813C260.447 161.86 260.405 161.905 260.366 161.948L260.225 162.097L260.093 162.231C255.432 167.162 249.541 169.517 243.392 168.501C238.47 167.687 235.555 164.04 234.278 158.33C233.385 154.334 233.42 149.491 233.959 146.57C234.093 145.778 234.35 144.711 234.671 143.553L234.752 143.263C234.819 143.024 234.886 142.793 234.949 142.582L235.077 142.163L235.163 141.896L235.169 141.884C235.176 141.867 235.182 141.85 235.188 141.833L235.363 141.334C238.209 133.285 240.524 130.077 244.209 128.689Z" fill="#2E186A"/>
<path fill-rule="evenodd" clip-rule="evenodd" d="M243.623 139.359C243.803 138.964 244.27 138.789 244.666 138.969C245.048 139.143 245.224 139.583 245.074 139.969L245.056 140.012L239.694 151.782L242.153 152.435C242.559 152.543 242.806 152.948 242.723 153.353L242.712 153.398C242.605 153.803 242.2 154.05 241.794 153.967L241.749 153.957L238.389 153.065C237.934 152.944 237.689 152.454 237.857 152.021L237.875 151.978L243.623 139.359Z" fill="#2E186A"/>
<path fill-rule="evenodd" clip-rule="evenodd" d="M248.916 139.386C250.575 138.823 251.989 139.428 253.071 140.709C253.335 141.023 253.561 141.355 253.749 141.688C253.864 141.891 253.943 142.053 253.988 142.157C254.158 142.557 253.973 143.019 253.573 143.19C253.187 143.355 252.743 143.188 252.559 142.818L252.507 142.704C252.478 142.645 252.435 142.563 252.379 142.464C252.236 142.211 252.064 141.958 251.867 141.725C251.163 140.891 250.375 140.553 249.422 140.877C249.011 141.016 248.563 140.796 248.424 140.385C248.284 139.973 248.504 139.526 248.916 139.386Z" fill="#2E186A"/>
<path fill-rule="evenodd" clip-rule="evenodd" d="M244.903 157.501C245.205 157.189 245.704 157.182 246.016 157.484C246.329 157.787 246.336 158.285 246.034 158.597C245.432 159.218 244.663 159.579 243.785 159.721C242.949 159.856 242.081 159.788 241.241 159.595L241.088 159.558C240.842 159.497 240.65 159.437 240.526 159.392C240.118 159.243 239.907 158.791 240.057 158.383C240.201 157.989 240.626 157.779 241.022 157.899L241.135 157.936C241.152 157.942 241.171 157.948 241.194 157.955C241.311 157.99 241.446 158.027 241.594 158.061C242.252 158.212 242.927 158.265 243.533 158.167C244.063 158.081 244.501 157.885 244.84 157.563L244.903 157.501Z" fill="#2E186A"/>
<path fill-rule="evenodd" clip-rule="evenodd" d="M236.104 136.643C237.387 136.078 238.705 136.379 239.937 137.179C240.392 137.475 240.736 137.771 240.942 137.983C241.245 138.296 241.237 138.794 240.924 139.096C240.625 139.387 240.153 139.391 239.848 139.115L239.766 139.035C239.733 139.004 239.687 138.961 239.628 138.911C239.465 138.771 239.28 138.63 239.079 138.499C238.247 137.958 237.44 137.774 236.739 138.083C236.593 138.148 236.449 138.234 236.306 138.344L236.234 138.402C235.9 138.68 235.403 138.634 235.125 138.3C234.847 137.965 234.893 137.469 235.227 137.191C235.505 136.961 235.798 136.778 236.104 136.643Z" fill="#2E186A"/>
<path fill-rule="evenodd" clip-rule="evenodd" d="M248.569 145.278C248.784 144.316 248.454 143.424 247.831 143.285C247.209 143.146 246.53 143.812 246.315 144.774C246.099 145.735 246.43 146.628 247.052 146.767C247.674 146.906 248.353 146.239 248.569 145.278Z" fill="#2E186A"/>
<path fill-rule="evenodd" clip-rule="evenodd" d="M237.807 143.233C238.023 142.271 237.692 141.379 237.07 141.24C236.448 141.1 235.769 141.767 235.553 142.729C235.338 143.69 235.668 144.582 236.291 144.721C236.913 144.861 237.592 144.194 237.807 143.233Z" fill="#2E186A"/>
<path fill-rule="evenodd" clip-rule="evenodd" d="M244.236 143.709C242.965 149.278 245.393 154.656 249.799 155.659C254.206 156.663 258.727 152.869 259.998 147.3C261.269 141.73 258.84 136.353 254.434 135.349C250.027 134.345 245.506 138.139 244.236 143.709ZM245.771 144.058C246.866 139.258 250.633 136.097 254.084 136.884C257.535 137.67 259.558 142.15 258.462 146.95C257.367 151.75 253.601 154.911 250.15 154.125C246.699 153.338 244.676 148.858 245.771 144.058Z" fill="#FF8D7E"/>
<path fill-rule="evenodd" clip-rule="evenodd" d="M225.189 140.066C223.918 145.636 226.347 151.013 230.753 152.017C235.159 153.021 239.68 149.227 240.951 143.657C242.222 138.088 239.794 132.71 235.387 131.707C230.981 130.703 226.46 134.497 225.189 140.066ZM226.724 140.416C227.82 135.616 231.586 132.455 235.037 133.241C238.488 134.028 240.511 138.508 239.416 143.308C238.321 148.108 234.554 151.268 231.103 150.482C227.652 149.696 225.629 145.216 226.724 140.416Z" fill="#FF8D7E"/>
<path fill-rule="evenodd" clip-rule="evenodd" d="M239.983 141.975C240.091 141.57 240.496 141.323 240.901 141.406L240.946 141.417L245.382 142.598C245.802 142.709 246.052 143.141 245.94 143.561C245.833 143.966 245.428 144.212 245.022 144.129L244.977 144.119L240.541 142.938C240.121 142.826 239.871 142.395 239.983 141.975Z" fill="#FF8D7E"/>
<path fill-rule="evenodd" clip-rule="evenodd" d="M258.826 145.206C258.974 144.814 259.401 144.608 259.797 144.732L259.84 144.747L269.105 148.236C269.512 148.389 269.718 148.843 269.565 149.25C269.417 149.642 268.989 149.847 268.594 149.724L268.55 149.709L259.285 146.22C258.878 146.067 258.673 145.613 258.826 145.206Z" fill="#FF8D7E"/>
<path fill-rule="evenodd" clip-rule="evenodd" d="M85.0222 105.765C85.0222 105.24 80.8489 99.1277 79.5628 97.0814C78.2767 95.0352 81.3739 93.1988 83.4473 96.2682C85.4946 99.3376 86.8857 102.066 86.8857 102.066" fill="white"/>
<path fill-rule="evenodd" clip-rule="evenodd" d="M79.9657 94.0205C81.3432 93.4977 82.9713 94.1569 84.1025 95.8314C85.0096 97.1914 85.856 98.5823 86.6194 99.9301L86.7933 100.239C86.9345 100.491 87.0665 100.731 87.1888 100.957L87.3731 101.3L87.5678 101.671C87.576 101.686 87.5824 101.699 87.5872 101.708C87.7847 102.096 87.6306 102.57 87.2432 102.767C86.8701 102.957 86.4166 102.821 86.2072 102.465L86.177 102.409L86.0576 102.18C86.0223 102.113 85.9837 102.041 85.9419 101.962L85.8038 101.706C85.6373 101.399 85.4519 101.064 85.249 100.706C84.5033 99.3891 83.6764 98.0303 82.7948 96.7084C82.0499 95.6058 81.1669 95.2483 80.5248 95.492C80.0458 95.6738 79.8909 96.1236 80.2296 96.6626L80.3972 96.9268C80.544 97.1566 80.7232 97.433 80.9451 97.7727L82.8554 100.678C85.1513 104.178 85.8095 105.243 85.8095 105.765C85.8095 106.199 85.457 106.552 85.0221 106.552C84.6494 106.552 84.3371 106.293 84.2555 105.945L84.2466 105.902L84.239 105.885C84.2176 105.836 84.1858 105.772 84.1445 105.693L84.0903 105.592C83.9609 105.356 83.7735 105.038 83.5317 104.645L83.2114 104.131C82.8765 103.598 82.4722 102.97 81.9749 102.208L79.5158 98.4635C79.2524 98.0595 79.0532 97.7498 78.8961 97.4999C78.0252 96.1143 78.5631 94.5528 79.9657 94.0205Z" fill="#2E186A"/>
<path fill-rule="evenodd" clip-rule="evenodd" d="M89.1167 114.658C89.1167 114.658 85.4421 108.598 85.1009 106.106C84.7597 103.614 84.366 91.8083 84.891 90.6277C85.4159 89.4472 87.5944 89.4472 87.6469 92.3067C87.6994 95.1662 87.6469 101.279 87.6469 101.279" fill="white"/>
<path fill-rule="evenodd" clip-rule="evenodd" d="M84.1714 90.3081C84.5999 89.3445 85.6986 88.8665 86.6998 89.2072C87.7604 89.5681 88.4048 90.6927 88.4341 92.2923L88.4443 92.9873C88.4524 93.6992 88.4567 94.5649 88.4575 95.5574L88.4567 96.829C88.456 97.2127 88.4549 97.6034 88.4535 97.9982L88.4448 99.7806L88.4342 101.286C88.4305 101.72 88.075 102.07 87.6401 102.066C87.2208 102.062 86.8808 101.732 86.8604 101.318L86.8605 101.151L86.8711 99.5836L86.8787 97.9927C86.8801 97.5988 86.8812 97.2091 86.8819 96.8264L86.8816 94.9121C86.879 93.8658 86.8718 92.9885 86.8596 92.3212C86.8414 91.3284 86.5494 90.8188 86.1923 90.6973C85.9614 90.6187 85.7076 90.7291 85.6105 90.9474C85.233 91.7964 85.4829 103.091 85.8811 105.999C85.9811 106.73 86.4541 107.963 87.2055 109.513C87.3884 109.89 87.5855 110.282 87.7949 110.685C88.1586 111.385 88.5445 112.092 88.9341 112.78L89.1681 113.19C89.2618 113.353 89.3516 113.508 89.4369 113.654L89.7901 114.25C90.0155 114.622 89.8967 115.106 89.5248 115.331C89.1667 115.548 88.7044 115.446 88.4694 115.106L88.3959 114.987L88.2655 114.768C88.1256 114.532 87.9699 114.266 87.8024 113.974C87.3237 113.141 86.8449 112.272 86.3974 111.411C86.1815 110.995 85.9778 110.591 85.7883 110.2L85.6466 109.904C84.9078 108.349 84.4426 107.102 84.3208 106.213L84.297 106.025C84.1351 104.66 83.9682 101.422 83.8912 98.2083L83.8741 97.4209C83.7978 93.5443 83.8703 90.9853 84.1714 90.3081Z" fill="#2E186A"/>
<path fill-rule="evenodd" clip-rule="evenodd" d="M86.492 110.408C85.6521 107.47 85.1009 105.109 85.2059 104.322C85.5209 101.751 88.3818 90.2604 89.3791 89.3685C90.3765 88.4765 92.2138 90.4703 91.4526 93.2773L89.5366 101.41C89.5366 101.41 92.45 92.6215 93.1324 91.7033C93.8148 90.7851 96.5707 92.1755 94.4973 97.4748C92.4238 102.748 92.66 103.299 92.66 103.299C92.66 103.299 95.4684 97.0288 96.282 95.9795C97.0957 94.9301 99.7728 97.5535 96.3083 103.089L104.733 120.876L91.5576 126.385C91.5576 126.385 88.3555 117.019 86.492 110.408Z" fill="white"/>
<path fill-rule="evenodd" clip-rule="evenodd" d="M88.8541 88.7819C89.7689 87.9638 90.9987 88.3947 91.7318 89.5012C92.0803 90.0272 92.3046 90.6669 92.3857 91.3675L92.3896 91.4045L92.404 91.3803C92.4314 91.3346 92.4574 91.2942 92.482 91.2592L92.5003 91.234C93.2695 90.199 94.8024 90.5992 95.5308 91.8651C96.002 92.684 96.1579 93.7832 95.9641 95.1173L95.9492 95.2153L95.988 95.1881C96.4178 94.8993 96.9697 94.8929 97.4602 95.1593L97.5188 95.1926C98.0444 95.5048 98.4486 96.0998 98.6581 96.8544C99.1 98.445 98.6847 100.565 97.2996 102.968L97.2014 103.135L105.445 120.539C105.63 120.93 105.464 121.394 105.081 121.582L105.037 121.602L91.8615 127.111C91.4556 127.281 90.9929 127.085 90.8289 126.683L90.8064 126.621L90.2256 124.901C90.0949 124.512 89.9578 124.101 89.815 123.671C89.0673 121.42 88.3196 119.119 87.6215 116.899L87.3898 116.159C87.3136 115.914 87.2384 115.672 87.1644 115.433L86.8961 114.56C86.5168 113.319 86.1734 112.162 85.8708 111.103L85.601 110.153C84.7459 107.115 84.3259 105.136 84.4191 104.269L84.4243 104.226C84.585 102.915 85.3628 99.4614 86.2347 96.1676L86.3987 95.5534C87.4296 91.7257 88.2433 89.3281 88.8541 88.7819ZM89.9703 89.9509L89.9412 89.9411C89.9239 89.9363 89.9206 89.9402 89.9041 89.955C89.2481 90.5417 86.4165 101.168 85.9983 104.332L85.9863 104.426C85.9122 104.982 86.344 106.994 87.1693 109.911L87.3853 110.672C87.7081 111.802 88.0785 113.046 88.4901 114.387L88.6689 114.968C88.8163 115.445 88.9681 115.931 89.1239 116.427C89.7322 118.362 90.3788 120.36 91.0302 122.332L91.5864 124.006L92.0321 125.333L103.669 120.467L95.5965 103.426C95.4893 103.199 95.4967 102.937 95.6139 102.718L95.6407 102.672C97.0669 100.393 97.4841 98.5116 97.1407 97.2754C97.0596 96.9835 96.9424 96.7678 96.8273 96.6416L96.799 96.6122L96.7275 96.7266C96.4321 97.2105 95.9447 98.1524 95.3417 99.3986L95.1948 99.7036L95.0987 99.9042C94.759 100.615 94.4057 101.371 94.0554 102.133L93.5806 103.173L93.3786 103.62C93.0982 104.246 92.2065 104.239 91.9362 103.609C91.9079 103.543 91.8894 103.475 91.8782 103.404C91.7785 102.776 92.2528 101.031 93.7639 97.1882C94.6065 95.0345 94.6471 93.4866 94.1657 92.6499C94.0352 92.4231 93.8843 92.2902 93.7573 92.2438L93.725 92.2335L93.6893 92.298C93.4587 92.733 92.9543 94.0101 92.3155 95.7756L92.1468 96.2447L91.956 96.7806L91.702 97.5021C91.4886 98.1114 91.2717 98.7392 91.0552 99.3724L90.6276 100.632L90.284 101.657C89.9732 102.595 88.5857 102.219 88.7603 101.276L88.7701 101.23L90.6861 93.097L90.6926 93.0715C90.9831 92.0002 90.8421 91.0092 90.4188 90.3703C90.2657 90.1393 90.0983 89.9957 89.9703 89.9509Z" fill="#2E186A"/>
<path fill-rule="evenodd" clip-rule="evenodd" d="M212.634 179.955C212.634 179.955 217.857 177.436 219.904 177.331C221.951 177.227 231.663 177.882 232.581 178.407C233.5 178.932 233.316 180.716 230.98 180.506C228.618 180.322 223.684 179.745 223.684 179.745" fill="white"/>
<path fill-rule="evenodd" clip-rule="evenodd" d="M219.864 176.546L220.026 176.539C222.816 176.443 231.988 177.162 232.972 177.724C233.787 178.189 234.109 179.206 233.717 180.061C233.314 180.937 232.319 181.391 231.011 181.298L230.611 181.266C229.967 181.212 229.148 181.133 228.19 181.034L227.255 180.936C226.627 180.869 225.983 180.798 225.343 180.726L223.592 180.527C223.16 180.476 222.851 180.085 222.901 179.654C222.95 179.237 223.316 178.935 223.729 178.959L224.883 179.091L226.156 179.233C226.369 179.256 226.581 179.28 226.792 179.303L228.03 179.435L229.108 179.545C229.735 179.607 230.285 179.659 230.746 179.697L231.051 179.722C231.805 179.79 232.185 179.623 232.286 179.403C232.339 179.288 232.295 179.15 232.191 179.09C231.556 178.728 222.39 178.016 220.014 178.114L219.944 178.118C219.35 178.148 218.293 178.45 216.951 178.956C216.613 179.083 216.262 179.222 215.899 179.37C215.207 179.653 214.509 179.957 213.842 180.261L213.507 180.414L212.976 180.664C212.584 180.853 212.113 180.688 211.924 180.297C211.736 179.905 211.9 179.435 212.292 179.246L212.536 179.13C212.73 179.039 212.949 178.937 213.189 178.828C213.874 178.516 214.59 178.205 215.303 177.913C215.678 177.76 216.043 177.616 216.396 177.483L216.68 177.377C218.034 176.879 219.108 176.584 219.864 176.546Z" fill="#2E186A"/>
<path fill-rule="evenodd" clip-rule="evenodd" d="M204.865 179.798C204.865 179.798 210.77 179.168 216.282 178.145L204.865 179.798Z" fill="white"/>
<path fill-rule="evenodd" clip-rule="evenodd" d="M216.138 177.371C216.566 177.292 216.977 177.574 217.056 178.001C217.136 178.428 216.853 178.839 216.426 178.919C216.084 178.982 215.736 179.045 215.382 179.107C213.261 179.48 211.002 179.819 208.734 180.119L207.704 180.252C207.123 180.326 206.574 180.393 206.064 180.453L204.948 180.58C204.516 180.626 204.128 180.313 204.082 179.881C204.036 179.449 204.349 179.061 204.781 179.015L205.428 178.943L206.099 178.864C206.689 178.794 207.329 178.714 208.007 178.626C210.429 178.312 212.851 177.954 215.109 177.557C215.458 177.495 215.802 177.434 216.138 177.371Z" fill="#2E186A"/>
<path fill-rule="evenodd" clip-rule="evenodd" d="M212.949 179.037C215.39 178.591 220.77 177.305 221.4 177.463C223.474 177.935 232.581 181.267 233.211 182.132C233.841 183.024 232.082 184.336 229.851 183.47L223.395 181.214C223.395 181.214 230.298 184.336 230.98 184.966C231.663 185.595 230.298 187.72 226.177 185.569C222.056 183.444 221.584 183.575 221.584 183.575C221.584 183.575 226.439 186.382 227.253 187.143C228.067 187.904 225.678 189.845 221.453 186.54L213.185 189.662C211.269 189.583 197.069 185.044 197.962 183.759C198.854 182.473 205.022 173.816 205.022 173.816L212.949 179.037Z" fill="white"/>
<path fill-rule="evenodd" clip-rule="evenodd" d="M221.324 187.43L221.425 187.503C223.282 188.84 225.002 189.366 226.37 189.143C227.04 189.033 227.595 188.738 227.917 188.302L227.954 188.251C228.179 187.919 228.251 187.534 228.161 187.18L228.155 187.161L228.172 187.166C229.163 187.382 230.017 187.331 230.698 187.03L230.758 187.002C231.809 186.503 232.291 185.347 231.673 184.559L231.646 184.526L231.682 184.524C232.148 184.48 232.584 184.357 232.966 184.159C233.993 183.628 234.49 182.578 233.854 181.678C233.439 181.107 231.592 180.253 228.568 179.084L228.128 178.915C225.504 177.911 222.746 176.973 221.631 176.708L221.535 176.686C221.093 176.596 220.205 176.733 217.883 177.213L213.922 178.045C213.644 178.102 213.432 178.145 213.233 178.183L213.117 178.205L205.455 173.159C205.115 172.935 204.663 173.008 204.41 173.321L203.98 173.923L197.879 182.507C197.616 182.88 197.425 183.151 197.315 183.31C196.88 183.937 197.183 184.504 197.787 184.991C198.139 185.275 198.66 185.581 199.347 185.919C200.544 186.507 202.254 187.194 204.257 187.904L204.517 187.996C208.169 189.28 212.098 190.405 213.153 190.448C213.258 190.452 213.364 190.435 213.463 190.398L221.324 187.43ZM205.223 174.891L212.515 179.694C212.685 179.805 212.891 179.847 213.09 179.811L213.594 179.716C213.813 179.674 214.053 179.626 214.377 179.559L217.924 178.813C218.683 178.655 219.248 178.543 219.75 178.45L220.04 178.398C220.387 178.337 220.671 178.293 220.892 178.266C221.001 178.252 221.092 178.244 221.163 178.239L221.242 178.236L221.253 178.236L221.375 178.266C222.427 178.534 224.82 179.346 227.168 180.234L227.681 180.429L228.157 180.614C230.35 181.471 232.089 182.253 232.493 182.527L232.524 182.549L232.505 182.572C232.451 182.631 232.363 182.699 232.242 182.762C231.745 183.019 231.008 183.051 230.224 182.769L230.111 182.727L223.655 180.471C222.722 180.145 222.173 181.474 223.028 181.911L224.259 182.475L224.927 182.783C225.483 183.041 226.032 183.298 226.561 183.549L227.201 183.854C227.974 184.225 228.642 184.554 229.178 184.83L229.455 184.974L229.681 185.093C229.87 185.195 230.031 185.285 230.157 185.358L230.295 185.441L230.281 185.454C230.231 185.5 230.158 185.548 230.061 185.59C229.402 185.882 228.232 185.734 226.648 184.926L226.048 184.618C223.295 183.217 222.038 182.747 221.519 182.791L221.497 182.793C221.438 182.801 221.438 182.801 221.373 182.817C220.716 182.999 220.591 183.867 221.15 184.232L221.253 184.294L222.088 184.782C222.666 185.122 223.244 185.467 223.793 185.8L224.323 186.124L224.741 186.382C225.395 186.79 225.923 187.133 226.279 187.383L226.443 187.501L226.414 187.512C226.333 187.543 226.233 187.57 226.116 187.59C225.118 187.753 223.649 187.259 221.938 185.92L221.894 185.888C221.683 185.745 221.415 185.713 221.174 185.803L213.073 188.862L213.039 188.858C211.899 188.707 208.134 187.61 204.784 186.421L204.41 186.287C202.683 185.666 201.206 185.07 200.153 184.56L199.945 184.458L199.746 184.357C199.394 184.174 199.113 184.01 198.912 183.868L198.868 183.837L200.786 181.129L205.223 174.891Z" fill="#2E186A"/>
<path fill-rule="evenodd" clip-rule="evenodd" d="M188.382 76.3299C188.382 76.3299 172.555 64.7082 170.587 65.3641L161.741 64.5771C151.426 63.6589 142.319 71.2668 141.374 81.5768L129.904 138.505L182.188 145.431L186.964 91.913C187.306 91.7556 187.647 91.572 187.962 91.3621C191.741 88.8174 191.768 82.495 188.382 76.3299Z" fill="#2E186A"/>
<path fill-rule="evenodd" clip-rule="evenodd" d="M211.19 175.049L193.5 162.614L198.67 145.614C200.691 136.879 198.959 125.834 189.537 122.607C184.996 121.059 183.474 120.64 182.949 120.456C182.949 120.456 153.342 112.481 149.668 111.09C147.148 110.146 136.544 110.566 128.775 117.964L111.636 131.081L103.027 106.237L82.6599 114.58L96.072 154.482C96.072 154.482 100.481 169.934 112.266 164.214L130.324 153.747C130.455 159.755 130.508 168.097 127.411 176.807C122.844 189.635 120.508 203.146 120.534 216.735C120.56 233.079 120.613 248.164 120.613 248.164L197.857 248.846C197.857 248.846 185.127 190.501 185.127 185.464C185.075 185.097 185.075 184.703 185.048 184.31C191.584 188.455 199.694 192.128 199.694 192.128L211.19 175.049Z" fill="#FF8D7E"/>
<path fill-rule="evenodd" clip-rule="evenodd" d="M185.729 132.849C186.143 132.718 186.586 132.947 186.718 133.361L187.38 135.411C187.913 137.052 188.558 139.028 188.731 139.572L188.871 140.01C189.53 142.098 189.996 143.727 190.36 145.274C191.325 149.372 191.503 152.721 190.774 155.967C189.807 160.269 187.211 164.343 182.571 168.634L182.389 168.802L187.842 196.778C187.922 197.189 187.666 197.588 187.265 197.691L187.22 197.701C186.808 197.781 186.409 197.525 186.307 197.124L186.297 197.079L180.758 168.667C180.706 168.396 180.799 168.117 181.005 167.932C185.741 163.672 188.314 159.732 189.237 155.622C189.908 152.638 189.742 149.519 188.827 145.635L188.752 145.322C188.396 143.857 187.94 142.282 187.3 140.267L186.902 139.032C186.395 137.472 185.517 134.785 185.216 133.837C185.085 133.423 185.314 132.98 185.729 132.849Z" fill="#2E186A"/>
<path fill-rule="evenodd" clip-rule="evenodd" d="M131.348 153.852L146.833 144.224L131.348 153.852Z" fill="white"/>
<path fill-rule="evenodd" clip-rule="evenodd" d="M146.417 143.556C146.787 143.326 147.272 143.439 147.502 143.808C147.723 144.164 147.626 144.627 147.289 144.866L147.249 144.892L131.763 154.52C131.394 154.75 130.909 154.637 130.679 154.267C130.458 153.912 130.555 153.449 130.892 153.21L130.932 153.184L146.417 143.556Z" fill="#2E186A"/>
<path fill-rule="evenodd" clip-rule="evenodd" d="M112.071 130.827C112.414 130.56 112.908 130.621 113.176 130.964L113.303 131.132L113.365 131.216C113.51 131.413 113.671 131.639 113.844 131.892C114.337 132.613 114.83 133.405 115.291 134.244C116.206 135.912 116.881 137.558 117.212 139.121C117.546 140.7 117.515 142.139 117.046 143.397C116.894 143.804 116.441 144.011 116.033 143.86C115.626 143.708 115.419 143.254 115.57 142.847C115.924 141.9 115.948 140.755 115.671 139.447C115.376 138.055 114.758 136.545 113.91 135.001C113.476 134.21 113.01 133.461 112.544 132.781L112.408 132.583C112.319 132.456 112.235 132.338 112.155 132.228L111.96 131.965C111.95 131.952 111.941 131.941 111.934 131.932C111.667 131.589 111.728 131.095 112.071 130.827Z" fill="#2E186A"/>
<path fill-rule="evenodd" clip-rule="evenodd" d="M175.967 107.365L176.125 118.908L182.188 120.718C182.45 121.741 180.114 139.239 164.707 134.753C154.602 131.815 150.875 120.613 150.271 111.667L158.697 114.474L158.146 92.8313L175.967 107.365Z" fill="white"/>
<path fill-rule="evenodd" clip-rule="evenodd" d="M157.358 92.8514L157.881 113.373L150.52 110.921C149.989 110.744 149.448 111.162 149.486 111.72C149.828 116.798 151.08 121.771 153.23 125.832C155.808 130.697 159.56 134.076 164.487 135.509C171.612 137.584 176.754 135.369 179.99 130.22C181.141 128.389 181.974 126.288 182.498 124.162L182.55 123.949C182.91 122.424 183.074 121.004 182.95 120.523L182.936 120.473C182.856 120.229 182.661 120.038 182.413 119.964L176.904 118.319L176.754 107.354C176.751 107.122 176.645 106.902 176.465 106.755L158.643 92.2216C158.122 91.7962 157.341 92.1788 157.358 92.8514ZM158.976 94.5245L175.185 107.743L175.337 118.919L175.339 118.968C175.364 119.291 175.585 119.568 175.899 119.662L181.402 121.305L181.399 121.354C181.39 121.461 181.377 121.579 181.362 121.704C181.289 122.308 181.156 123.028 180.969 123.785C180.482 125.759 179.711 127.706 178.657 129.383C175.781 133.959 171.349 135.868 164.927 133.998C160.439 132.693 157.012 129.606 154.622 125.095L154.512 124.884C152.723 121.426 151.602 117.255 151.168 112.94L151.154 112.791L158.448 115.221C158.966 115.394 159.498 115 159.484 114.455L158.976 94.5245Z" fill="#2E186A"/>
<path fill-rule="evenodd" clip-rule="evenodd" d="M151.302 97.1441C151.499 96.7566 151.973 96.6023 152.361 96.7993C152.748 96.9963 152.903 97.4701 152.706 97.8575C151.975 99.2931 151.711 101.295 152.021 103.392C152.598 107.26 154.904 110.036 157.029 109.784C157.461 109.733 157.852 110.041 157.904 110.473C157.955 110.904 157.647 111.296 157.215 111.347C154.053 111.722 151.15 108.228 150.464 103.623C150.108 101.217 150.415 98.887 151.302 97.1441Z" fill="#FF8D7E"/>
<path fill-rule="evenodd" clip-rule="evenodd" d="M187.024 96.1473C187.221 95.7598 187.695 95.6054 188.082 95.8024C188.47 95.9995 188.625 96.4733 188.427 96.8607C187.697 98.2963 187.433 100.298 187.743 102.396C188.32 106.264 190.626 109.039 192.751 108.787C193.183 108.736 193.574 109.044 193.626 109.476C193.677 109.907 193.368 110.299 192.937 110.35C189.775 110.726 186.872 107.232 186.185 102.627C185.83 100.22 186.137 97.8902 187.024 96.1473Z" fill="#FF8D7E"/>
<path fill-rule="evenodd" clip-rule="evenodd" d="M159.414 95.3912C160.764 92.6159 159.492 89.2152 156.572 87.7956C153.652 86.3761 150.19 87.4751 148.839 90.2505C147.489 93.0258 148.761 96.4264 151.681 97.846C154.601 99.2656 158.063 98.1665 159.414 95.3912Z" fill="white"/>
<path fill-rule="evenodd" clip-rule="evenodd" d="M148.132 89.9068C146.587 93.0815 148.033 96.9487 151.336 98.5543C154.639 100.16 158.576 98.9095 160.121 95.7348C161.666 92.5601 160.22 88.6929 156.917 87.0873C153.614 85.4817 149.677 86.732 148.132 89.9068ZM149.548 90.5951C150.704 88.2186 153.691 87.27 156.228 88.5029C158.764 89.7359 159.862 92.67 158.705 95.0465C157.549 97.4229 154.562 98.3716 152.025 97.1386C149.489 95.9056 148.391 92.9716 149.548 90.5951Z" fill="#2E186A"/>
<path fill-rule="evenodd" clip-rule="evenodd" d="M194.6 93.4158C195.792 90.9662 194.666 87.9632 192.085 86.7084C189.504 85.4536 186.445 86.4222 185.253 88.8718C184.061 91.3214 185.187 94.3243 187.768 95.5791C190.349 96.8339 193.408 95.8654 194.6 93.4158Z" fill="white"/>
<path fill-rule="evenodd" clip-rule="evenodd" d="M184.545 88.5281C183.159 91.3773 184.459 94.8467 187.423 96.2875C190.387 97.7283 193.921 96.6088 195.308 93.7596C196.694 90.9104 195.394 87.441 192.43 86.0002C189.466 84.5594 185.932 85.6789 184.545 88.5281ZM185.961 89.2164C186.959 87.166 189.543 86.3475 191.741 87.4159C193.939 88.4842 194.889 91.0208 193.892 93.0712C192.894 95.1217 190.31 95.9402 188.112 94.8718C185.914 93.8035 184.964 91.2669 185.961 89.2164Z" fill="#2E186A"/>
<path fill-rule="evenodd" clip-rule="evenodd" d="M176.165 110.89C184.845 109.366 190.278 99.0038 188.299 87.7448C186.321 76.4858 177.68 68.594 169 70.118C160.319 71.642 154.887 82.0046 156.865 93.2636C158.844 104.523 167.485 112.414 176.165 110.89Z" fill="white"/>
<path fill-rule="evenodd" clip-rule="evenodd" d="M168.862 69.3417C159.704 70.9491 154.043 81.7485 156.091 93.3986C158.139 105.049 167.144 113.274 176.302 111.667C185.461 110.059 191.121 99.2598 189.073 87.6098C187.025 75.9597 178.021 67.7343 168.862 69.3417ZM169.135 70.8921C177.335 69.4528 185.612 77.0129 187.523 87.882C189.433 98.7511 184.231 108.677 176.03 110.116C167.829 111.556 159.553 103.995 157.642 93.1264C155.731 82.2573 160.934 72.3314 169.135 70.8921Z" fill="#2E186A"/>
<path fill-rule="evenodd" clip-rule="evenodd" d="M175.72 85.7988C176.126 85.6951 176.539 85.9278 176.665 86.3222L176.677 86.3666L178.857 94.8966C179.054 95.6835 178.481 96.4692 177.693 96.5028L174.517 96.5826C174.082 96.5935 173.721 96.2502 173.71 95.8156C173.699 95.3966 174.018 95.0459 174.431 95.0115L174.477 95.009L177.242 94.9395L175.152 86.7561C175.048 86.35 175.281 85.937 175.675 85.8116L175.72 85.7988Z" fill="#2E186A"/>
<path fill-rule="evenodd" clip-rule="evenodd" d="M166.443 81.0437C167.691 80.348 169.011 80.0937 170.291 80.5898C170.743 80.7646 171.168 81.0301 171.562 81.3881C171.884 81.6805 171.908 82.1782 171.615 82.4999C171.323 82.8215 170.825 82.8452 170.503 82.5528C170.251 82.3236 169.991 82.1614 169.722 82.0574C168.958 81.7612 168.089 81.9287 167.211 82.4183C167.004 82.5336 166.815 82.6575 166.649 82.7804L166.555 82.8517C166.537 82.8656 166.522 82.878 166.508 82.8888L166.463 82.9266C166.138 83.215 165.64 83.1851 165.352 82.8599C165.063 82.5347 165.093 82.0373 165.418 81.7489C165.629 81.5622 165.98 81.302 166.443 81.0437Z" fill="#2E186A"/>
<path fill-rule="evenodd" clip-rule="evenodd" d="M178.942 80.7351C179.779 80.5465 180.651 80.4936 181.492 80.6656C182.668 80.9062 183.626 81.5682 184.223 82.7069C184.425 83.0918 184.277 83.5675 183.892 83.7693C183.521 83.9637 183.066 83.8332 182.852 83.4795L182.829 83.4377C182.463 82.7398 181.909 82.3577 181.176 82.2077C180.585 82.0869 179.926 82.1269 179.288 82.2706C179.185 82.294 179.089 82.3185 179.003 82.343L178.855 82.3883L178.834 82.3955C178.425 82.5438 177.974 82.3328 177.825 81.9242C177.677 81.5156 177.888 81.0642 178.297 80.9159C178.432 80.867 178.653 80.8002 178.942 80.7351Z" fill="#2E186A"/>
<path fill-rule="evenodd" clip-rule="evenodd" d="M172.592 90.2502C172.633 89.2223 172.103 88.3663 171.408 88.3383C170.713 88.3102 170.116 89.1208 170.074 90.1486C170.033 91.1765 170.563 92.0325 171.258 92.0605C171.953 92.0886 172.55 91.278 172.592 90.2502Z" fill="#2E186A"/>
<path fill-rule="evenodd" clip-rule="evenodd" d="M181.961 92.3066C182.641 92.2627 183.139 91.3949 183.072 90.3684C183.006 89.3419 182.401 88.5453 181.721 88.5892C181.041 88.6331 180.544 89.5009 180.61 90.5274C180.677 91.5539 181.282 92.3505 181.961 92.3066Z" fill="#2E186A"/>
<path fill-rule="evenodd" clip-rule="evenodd" d="M166.834 96.7377C166.969 101.227 168.607 103.478 171.274 103.714C172.278 103.803 173.317 103.589 174.338 103.185C174.849 102.982 175.246 102.778 175.484 102.633C175.968 102.339 175.992 101.644 175.528 101.317L168.074 96.0706C167.543 95.6972 166.814 96.0894 166.834 96.7377ZM168.536 98.3212L173.503 101.817C172.776 102.076 172.059 102.203 171.413 102.146C169.964 102.018 168.953 100.971 168.569 98.5416L168.536 98.3212Z" fill="#2E186A"/>
<path fill-rule="evenodd" clip-rule="evenodd" d="M191.023 92.866C194.143 92.4073 196.704 96.0638 197.428 100.98C198.114 105.637 196.265 109.877 193.063 110.347L193.006 110.354L192.949 110.356H192.844C192.409 110.356 192.056 110.003 192.056 109.569C192.056 109.15 192.384 108.807 192.797 108.783L192.844 108.782L192.887 108.781L192.898 108.78C194.988 108.411 196.411 105.143 195.887 101.327L195.87 101.21C195.257 97.0426 193.22 94.1341 191.252 94.4233C190.822 94.4865 190.422 94.1892 190.359 93.7592C190.295 93.3291 190.593 92.9292 191.023 92.866Z" fill="#FF8D7E"/>
<path fill-rule="evenodd" clip-rule="evenodd" d="M154.829 94.2826C158.036 93.8112 161.022 97.3299 161.707 102.004C162.393 106.66 160.543 110.9 157.341 111.371L157.284 111.377L157.227 111.379H157.122C156.687 111.379 156.334 111.027 156.334 110.592C156.334 110.173 156.662 109.83 157.076 109.806L157.122 109.805L157.165 109.805L157.176 109.803C159.267 109.434 160.689 106.166 160.165 102.349L160.149 102.232C159.574 98.3093 157.21 95.5236 155.058 95.8399C154.628 95.9031 154.228 95.6058 154.164 95.1758C154.101 94.7457 154.399 94.3458 154.829 94.2826Z" fill="#FF8D7E"/>
<path fill-rule="evenodd" clip-rule="evenodd" d="M167.332 65.1281L167.306 65.1805C161.977 65.9151 155.993 68.3286 152.634 71.844C148.697 76.0152 148.513 83.4133 150.613 88.1879C152.266 87.0336 154.55 86.8237 156.571 87.7944C156.676 87.8468 156.781 87.8993 156.859 87.9518C164.681 84.7774 164.786 72.8934 164.786 71.844C166.518 73.2344 168.749 75.6217 168.145 78.1927L196.019 80.1602C196.019 80.1865 201.741 59.6189 167.332 65.1281ZM163.5 72.4999C163.867 72.2113 164.235 71.9752 164.628 71.7391C164.655 71.7653 164.681 71.7916 164.707 71.7916L163.5 72.4999Z" fill="#2E186A"/>
<path fill-rule="evenodd" clip-rule="evenodd" d="M247.699 241.343H213.92L204.208 198.791C203.999 197.873 203.211 197.217 202.292 197.217H129.878C128.592 197.217 127.673 198.45 127.962 199.736L138.802 247.272C139.012 248.19 139.799 248.846 140.718 248.846C140.718 248.846 236.781 248.846 240.928 248.846C249.117 248.846 247.699 241.343 247.699 241.343Z" fill="#24348C"/>
<path fill-rule="evenodd" clip-rule="evenodd" d="M272.24 209.783L274.156 226.756C274.156 226.756 245.836 230.508 233.237 231.61C232.66 231.662 222.03 238.378 223.185 238.929C230.035 242.182 222.319 245.199 231.348 243.992C231.348 243.992 260.534 247.219 287.62 242.261C290.875 241.657 294.366 238.877 295.311 235.702C296.886 230.455 297.253 215.895 295.442 202.831C295.494 202.778 272.24 209.783 272.24 209.783Z" fill="white"/>
<path fill-rule="evenodd" clip-rule="evenodd" d="M295.424 202.044L295.339 202.05C295.323 202.052 295.315 202.053 295.304 202.055L295.238 202.07L295.14 202.096L294.627 202.245L291.167 203.274L283.569 205.553L272.013 209.029L271.968 209.044C271.63 209.169 271.417 209.509 271.457 209.871L273.287 226.077L268.778 226.664L267.868 226.781C263.176 227.385 258.375 227.989 253.745 228.552L251.869 228.779L249.471 229.066C242.613 229.88 237.036 230.487 233.169 230.826C232.65 230.873 229.843 232.583 227.119 234.431L226.668 234.74C225.437 235.587 224.405 236.349 223.681 236.958C223.203 237.359 222.855 237.695 222.636 237.98C222.475 238.19 222.368 238.388 222.327 238.615C222.249 239.037 222.445 239.448 222.846 239.639C224.173 240.27 224.944 240.893 225.321 241.517C225.56 241.913 225.624 242.212 225.65 242.852L225.653 242.941C225.69 244.026 225.912 244.567 226.85 244.878L226.896 244.892C227.665 245.13 228.928 245.099 231.175 244.809L231.357 244.785L231.94 244.844C232.152 244.865 232.382 244.887 232.631 244.909L233.633 244.998C234.738 245.092 235.965 245.186 237.301 245.275L237.59 245.294C251.977 246.231 267.58 246.04 282.26 243.931C284.13 243.662 285.965 243.364 287.762 243.035C291.403 242.36 295.06 239.306 296.066 235.927L296.117 235.752C297.793 229.882 297.93 215.046 296.222 202.723L296.198 202.726L296.198 202.722C296.17 202.438 296.121 202.394 295.867 202.168L295.612 202.072C295.5 202.033 295.481 202.035 295.424 202.044ZM294.783 203.84L294.81 204.047C296.349 216.063 296.154 230.153 294.557 235.476C293.726 238.268 290.555 240.916 287.477 241.487C285.701 241.812 283.886 242.107 282.036 242.373C267.481 244.464 251.98 244.654 237.692 243.723L237.124 243.685C235.719 243.59 234.442 243.49 233.305 243.39L232.49 243.315C232.259 243.294 232.046 243.273 231.853 243.254L231.434 243.21C231.371 243.203 231.307 243.204 231.243 243.212L230.869 243.261C228.928 243.507 227.846 243.534 227.375 243.393L227.302 243.369C227.254 243.352 227.243 243.329 227.237 243.175L227.227 242.888C227.195 241.938 227.094 241.407 226.669 240.704L226.619 240.623C226.157 239.899 225.408 239.239 224.308 238.623L224.226 238.577L224.243 238.561C224.369 238.442 224.52 238.309 224.694 238.163L224.863 238.023C225.623 237.402 226.713 236.609 228.004 235.734C229.142 234.961 230.386 234.159 231.458 233.5L231.67 233.37C232.154 233.075 232.576 232.827 232.9 232.646L232.973 232.606C233.114 232.528 233.231 232.466 233.32 232.422L233.396 232.386L233.981 232.334C238.057 231.964 243.814 231.328 250.83 230.49L252.679 230.267C253.094 230.217 253.513 230.166 253.935 230.115C258.148 229.602 262.501 229.056 266.786 228.507L270.712 228.001L274.259 227.537L274.305 227.529C274.706 227.453 274.985 227.079 274.938 226.668L273.096 210.347L292.86 204.412L294.783 203.84Z" fill="#2E186A"/>
<path fill-rule="evenodd" clip-rule="evenodd" d="M221.321 241.526C218.172 245.147 214.445 246.196 214.97 243.861C215.153 242.996 222.634 235.388 225.363 234.05C227.463 233.027 230.613 231.925 234.943 231.426" fill="white"/>
<path fill-rule="evenodd" clip-rule="evenodd" d="M215.727 244.086C215.711 244.169 215.705 244.234 215.706 244.282L215.708 244.31L215.724 244.314C215.848 244.337 216.103 244.312 216.451 244.203L216.517 244.181C217.74 243.77 219.339 242.606 220.727 241.01C221.012 240.682 221.51 240.647 221.838 240.933C222.166 241.218 222.201 241.715 221.915 242.043C220.355 243.837 218.53 245.165 217.018 245.673C215.196 246.285 213.787 245.532 214.199 243.698C214.486 242.348 222.419 234.616 225.018 233.342C227.661 232.055 230.941 231.095 234.853 230.644C235.285 230.595 235.676 230.904 235.726 231.336C235.775 231.768 235.465 232.158 235.033 232.208C231.299 232.638 228.191 233.547 225.71 234.756C224.576 235.312 222.271 237.251 219.761 239.696L219.453 239.999C218.532 240.905 217.667 241.802 216.985 242.553L216.716 242.853C216.436 243.169 216.203 243.444 216.026 243.668L215.979 243.728C215.893 243.839 215.824 243.934 215.775 244.008L215.737 244.067C215.732 244.074 215.731 244.071 215.735 244.049L215.727 244.086Z" fill="#2E186A"/>
<path fill-rule="evenodd" clip-rule="evenodd" d="M226.623 238.483C226.623 238.483 223.5 239.218 221.584 241.29C219.668 243.389 218.198 244.701 218.539 245.147C218.854 245.593 220.901 246.065 222.214 244.858C223.893 242.681 228.67 241.238 228.67 241.238C228.145 241.29 224.838 242.392 223.237 243.756C221.662 245.094 220.823 247.718 225.127 245.776C225.127 245.776 229.536 244.465 231.243 243.914" fill="white"/>
<path fill-rule="evenodd" clip-rule="evenodd" d="M226.443 237.717C226.866 237.618 227.29 237.88 227.39 238.303C227.489 238.726 227.227 239.15 226.803 239.249L226.767 239.258C226.722 239.27 226.653 239.289 226.562 239.315C226.356 239.374 226.125 239.449 225.875 239.539C225.16 239.796 224.445 240.124 223.784 240.528C223.154 240.912 222.606 241.344 222.165 241.821L221.444 242.595C220.814 243.268 220.013 244.121 219.808 244.356L219.69 244.493C219.635 244.558 219.585 244.619 219.54 244.675L219.474 244.761L219.53 244.774C219.657 244.803 219.796 244.822 219.94 244.831L220.028 244.836C220.634 244.855 221.199 244.689 221.621 244.331L221.64 244.315L221.662 244.287C221.736 244.196 221.813 244.106 221.896 244.017L221.968 243.941L221.975 243.932C222.176 243.679 222.407 243.437 222.658 243.217L222.726 243.157C224.146 241.948 227.484 240.565 228.592 240.455C229.524 240.362 229.801 241.669 228.944 241.976L228.617 242.082L228.376 242.163C228.21 242.221 228.033 242.284 227.847 242.354C227.05 242.651 226.253 242.993 225.514 243.373C224.538 243.875 223.748 244.401 223.208 244.927L223.18 244.954L223.146 244.999C222.956 245.253 222.822 245.494 222.768 245.658L222.761 245.681L222.785 245.681C223.16 245.676 223.773 245.507 224.6 245.149L224.803 245.059L224.852 245.039L224.926 245.015L225.96 244.706L227.641 244.2L229.263 243.707C229.998 243.482 230.589 243.298 231 243.165C231.414 243.031 231.858 243.258 231.992 243.672C232.126 244.085 231.898 244.529 231.485 244.663L230.834 244.869C230.523 244.966 230.163 245.078 229.76 245.201L228.745 245.511L227.43 245.908L225.4 246.516L225.328 246.548C224.316 246.995 223.507 247.229 222.879 247.253L222.804 247.255C222.038 247.264 221.446 246.928 221.244 246.296L221.23 246.248L221.219 246.252C219.923 246.606 218.486 246.359 217.931 245.648L217.914 245.624C217.603 245.219 217.65 244.777 217.882 244.327L217.911 244.273C218.047 244.024 218.253 243.748 218.551 243.402L218.622 243.321C218.954 242.941 220.619 241.179 221.005 240.756C221.555 240.161 222.216 239.64 222.964 239.184C223.724 238.721 224.533 238.349 225.341 238.058L225.519 237.995C225.922 237.855 226.241 237.765 226.443 237.717Z" fill="#2E186A"/>
<path fill-rule="evenodd" clip-rule="evenodd" d="M148.618 248.846H92.5024C91.82 248.846 91.2426 248.295 91.2426 247.586V236.201C91.2426 235.519 91.7937 234.942 92.5024 234.942H148.618C149.3 234.942 149.878 235.493 149.878 236.201V247.586C149.878 248.295 149.3 248.846 148.618 248.846Z" fill="#2E186A"/>
<path fill-rule="evenodd" clip-rule="evenodd" d="M142.109 245.671C143.703 245.671 144.996 244.332 144.996 242.681C144.996 241.029 143.703 239.69 142.109 239.69C140.514 239.69 139.222 241.029 139.222 242.681C139.222 244.332 140.514 245.671 142.109 245.671Z" fill="white"/>
<path fill-rule="evenodd" clip-rule="evenodd" d="M126.203 245.671H96.6494C96.0457 245.671 95.547 245.173 95.547 244.57V240.766C95.547 240.162 96.0457 239.664 96.6494 239.664H126.203C126.807 239.664 127.306 240.162 127.306 240.766V244.57C127.306 245.199 126.807 245.671 126.203 245.671Z" fill="white"/>
<path fill-rule="evenodd" clip-rule="evenodd" d="M157.857 234.889H101.741C101.059 234.889 100.481 234.338 100.481 233.63V222.244C100.481 221.562 101.033 220.985 101.741 220.985H157.857C158.539 220.985 159.116 221.536 159.116 222.244V233.63C159.116 234.312 158.565 234.889 157.857 234.889Z" fill="#FEBA91"/>
<path fill-rule="evenodd" clip-rule="evenodd" d="M151.374 231.715C152.968 231.715 154.261 230.376 154.261 228.724C154.261 227.072 152.968 225.733 151.374 225.733C149.779 225.733 148.487 227.072 148.487 228.724C148.487 230.376 149.779 231.715 151.374 231.715Z" fill="white"/>
<path fill-rule="evenodd" clip-rule="evenodd" d="M135.468 231.715H105.888C105.284 231.715 104.786 231.216 104.786 230.613V226.809C104.786 226.206 105.284 225.707 105.888 225.707H135.442C136.046 225.707 136.544 226.206 136.544 226.809V230.613C136.544 231.243 136.072 231.715 135.468 231.715Z" fill="white"/>
<path fill-rule="evenodd" clip-rule="evenodd" d="M403.29 248.531C403.725 248.531 404.077 248.883 404.077 249.318C404.077 249.737 403.749 250.08 403.336 250.104L403.29 250.105H3.47356C3.03869 250.105 2.68616 249.753 2.68616 249.318C2.68616 248.899 3.01396 248.556 3.42729 248.532L3.47356 248.531H403.29Z" fill="#2E186A"/>
</svg>
