<svg width="27" height="27" viewBox="0 0 27 27" fill="none" xmlns="http://www.w3.org/2000/svg">
<g clip-path="url(#clip0)">
<path d="M8.01309 25.5862C8.01309 25.5862 8.01871 25.5806 8.03558 25.575C8.00747 25.4682 7.39452 22.8083 8.03558 19.4906C8.48545 17.1456 9.57075 14.4633 11.9382 12.1296C12.7592 11.3199 13.6308 10.6563 14.5137 10.1277C13.0628 4.18385 8.01309 1.12476 8.01309 1.12476C8.01309 1.12476 1.12451 5.29727 1.12451 13.3611C1.12451 21.4137 8.01309 25.5862 8.01309 25.5862Z" fill="#00FFB0"/>
<path d="M25.8336 7.18647C25.5996 7.13136 20.4127 5.96564 15.1892 8.48602C13.293 3.06963 8.80163 0.28833 8.59582 0.163492C8.23705 -0.054131 7.78775 -0.052444 7.43066 0.164054C7.12757 0.347375 0 4.76506 0 13.3603C0 21.9494 7.12757 26.3665 7.43123 26.5504C7.55325 26.6246 7.68596 26.6634 7.82092 26.6871C8.06441 26.7416 9.31223 27.0008 11.1094 27.0008C14.137 27.0008 18.6863 26.2586 22.4635 22.5337C28.6216 16.461 26.753 8.3595 26.6703 8.0176C26.5708 7.60484 26.2474 7.28375 25.8336 7.18647ZM2.24933 13.3603C2.24933 7.38947 6.44939 3.67301 8.01661 2.49436C9.23182 3.40084 12.012 5.81213 13.2069 9.63093C13.2041 9.63262 13.2019 9.63487 13.1991 9.63655C12.8746 9.85924 12.5625 10.0988 12.256 10.3462C12.1796 10.4081 12.1036 10.4711 12.0283 10.534C11.7258 10.7888 11.4288 11.0508 11.1471 11.3292C10.9228 11.5502 10.713 11.7745 10.5094 12.0006C10.4493 12.0675 10.3913 12.135 10.3329 12.2025C10.1861 12.3717 10.0444 12.5421 9.9083 12.7136C9.85601 12.7794 9.80258 12.8452 9.75197 12.9116C9.57652 13.141 9.40726 13.3716 9.25037 13.6038C9.23631 13.6246 9.22338 13.646 9.20932 13.6674C9.19133 13.6938 9.17558 13.7202 9.15815 13.7472V8.58499C9.15815 7.96418 8.6543 7.46032 8.03349 7.46032C7.41211 7.46032 6.90882 7.96418 6.90882 8.58499V10.8461L5.91124 9.88173C5.46362 9.44986 4.75115 9.46167 4.32096 9.90872C3.88853 10.3552 3.9009 11.0671 4.34739 11.499L6.90882 13.975V16.2687L5.97647 15.2014C5.56766 14.7335 4.85799 14.6857 4.39013 15.0946C3.92227 15.5034 3.87447 16.2136 4.28273 16.6815L6.8644 19.6371C6.86215 19.6495 6.8599 19.6618 6.85821 19.6742C6.84865 19.7316 6.83797 19.7895 6.82897 19.8463C6.79579 20.0588 6.76655 20.268 6.74237 20.4738C6.73618 20.5244 6.73168 20.5739 6.72606 20.624C6.70863 20.7837 6.69288 20.9411 6.67995 21.0969C6.67433 21.1633 6.66927 21.229 6.66477 21.2948C6.65408 21.445 6.64565 21.5918 6.6389 21.7368C6.63665 21.7858 6.63328 21.8352 6.63159 21.883C6.62428 22.0686 6.62034 22.2491 6.61922 22.4251C6.61866 22.4763 6.61922 22.5247 6.61922 22.5747C6.61922 22.7046 6.62034 22.8311 6.62315 22.9554C6.62372 22.9835 6.62315 23.0139 6.62428 23.042C4.76071 21.2594 2.24933 17.9984 2.24933 13.3603ZM20.8845 20.9321C17.2316 24.5339 12.6013 24.8493 10.0978 24.7048C11.0144 23.5307 12.4304 21.8021 14.1618 19.9587C14.8186 19.6894 17.0662 18.8391 19.8194 18.5951C20.438 18.54 20.8952 17.9945 20.84 17.3754C20.7855 16.7568 20.2524 16.3002 19.6203 16.3547C18.8893 16.4194 18.1948 16.5223 17.547 16.6443C18.7279 15.5922 19.9757 14.5907 21.2573 13.7287C21.773 13.3817 21.9096 12.6833 21.5626 12.1676C21.2168 11.6525 20.5161 11.5153 20.0022 11.8628C18.1386 13.1168 16.3599 14.6228 14.7494 16.1596C14.7421 15.9195 14.7292 15.6726 14.7033 15.414C14.642 14.7965 14.0988 14.3444 13.4729 14.4063C12.8544 14.4681 12.4039 15.0186 12.4652 15.6366C12.6345 17.3355 12.2459 18.4955 12.1014 18.8577C10.8002 20.268 9.69405 21.5895 8.85618 22.6383C8.85618 22.6203 8.85505 22.604 8.85505 22.586C8.85505 22.5618 8.85562 22.5359 8.85562 22.5117C8.85562 22.3312 8.85955 22.1445 8.86686 21.9522C8.86799 21.9263 8.86799 21.901 8.86911 21.8746C8.87755 21.6722 8.89217 21.4624 8.91016 21.2482C8.91354 21.2054 8.91747 21.1627 8.92197 21.1194C8.94221 20.9012 8.96696 20.6785 8.99901 20.4502C9.00238 20.4255 9.00688 20.4002 9.01082 20.3754C9.03725 20.1927 9.07043 20.0054 9.10529 19.8176C9.12891 19.74 9.14409 19.6596 9.15028 19.5758C9.19583 19.3509 9.24869 19.1225 9.30773 18.892C9.3201 18.8442 9.33304 18.7964 9.34597 18.7486C9.41232 18.5023 9.48487 18.2537 9.56809 18.0029C9.57428 17.9833 9.58215 17.9636 9.5889 17.9439C9.66931 17.7043 9.75985 17.4637 9.85769 17.2219C9.87456 17.1797 9.89087 17.1375 9.9083 17.0948C10.0118 16.8462 10.1259 16.5971 10.2496 16.3474C10.2738 16.2991 10.2991 16.2502 10.3239 16.2018C10.4549 15.9454 10.5943 15.6884 10.7484 15.4331C10.7546 15.423 10.7619 15.4128 10.7681 15.4027C10.9188 15.1547 11.083 14.9084 11.2568 14.6632C11.2883 14.6188 11.3186 14.5738 11.3512 14.5294C11.5295 14.2848 11.7201 14.0424 11.9237 13.8023C11.9619 13.7573 12.0019 13.7123 12.0412 13.6674C12.2572 13.4194 12.4827 13.1731 12.7273 12.9318C13.0849 12.5792 13.4622 12.248 13.8581 11.9404C13.9048 11.9039 13.9543 11.8713 14.001 11.8358C14.1534 11.7206 14.3063 11.6053 14.4638 11.4973C14.6701 11.3556 14.8799 11.2201 15.0941 11.0913L15.0947 11.0907C15.0947 11.0907 15.0953 11.0907 15.0953 11.0902C18.8719 8.80542 22.9865 9.04329 24.6088 9.2581C24.8742 11.1982 25.1689 16.7068 20.8845 20.9321Z" fill="#333333"/>
</g>
<defs>
<clipPath id="clip0">
<rect width="27" height="27" fill="white"/>
</clipPath>
</defs>
</svg>
