<svg width="270" height="152" viewBox="0 0 270 152" fill="none" xmlns="http://www.w3.org/2000/svg">
<path fill-rule="evenodd" clip-rule="evenodd" d="M4.59662 30.5452C7.77931 28.4382 12.3153 27.159 18.6807 27.9867C18.6807 27.9867 24.9709 7.56865 44.3678 15.3697C44.3678 15.3697 52.4122 -5.80091 73.814 3.53019L75.3427 4.30778C81.5577 8.49675 84.189 15.3697 84.189 15.3697C103.561 7.54357 109.876 27.9867 109.876 27.9867C129.524 25.4784 131.528 42.8613 131.528 42.8613H8.30558C1.66453 42.8613 -0.966833 34.2074 4.59662 30.5452Z" fill="white"/>
<path fill-rule="evenodd" clip-rule="evenodd" d="M58.0034 1.18956C54.1594 2.33686 50.9094 4.64775 48.2153 7.77042C46.8359 9.36916 45.6906 11.0794 44.7651 12.7903L44.6693 12.969C44.4178 13.4421 44.1983 13.8875 44.0101 14.2981L43.9616 14.4047L43.9008 14.382C38.8221 12.4914 34.3152 12.3825 30.3737 13.81C27.0029 15.0307 24.1984 17.3117 21.9113 20.3358C20.685 21.9572 19.6848 23.6907 18.8916 25.4245L18.8096 25.6054C18.5945 26.0845 18.4083 26.5356 18.25 26.9514L18.169 27.167L18.1654 27.1666C12.4217 26.5267 7.77211 27.5408 4.18193 29.9176C-1.99854 33.986 0.912469 43.6138 8.30565 43.6138H131.529C131.978 43.6138 132.327 43.2219 132.275 42.775L132.261 42.6643C132.242 42.5233 132.209 42.3229 132.16 42.0697C132.057 41.5299 131.914 40.9305 131.725 40.2863C131.185 38.4481 130.383 36.6098 129.265 34.8898C127.585 32.307 125.341 30.2264 122.458 28.8409L122.301 28.7665C119.049 27.2443 115.118 26.6618 110.462 27.1603L110.388 27.1685L110.364 27.1048C110.175 26.596 109.942 26.0307 109.663 25.4228C108.869 23.6882 107.867 21.9538 106.641 20.3316C104.351 17.3039 101.545 15.0208 98.1748 13.7999L98.0303 13.7483C94.1732 12.3927 89.7805 12.5039 84.8468 14.3102L84.5931 14.4045L84.6134 14.4487C84.3865 13.9463 84.1107 13.3883 83.7845 12.7884C82.8542 11.0772 81.7041 9.36673 80.3204 7.76779C78.9604 6.19615 77.4435 4.81652 75.7626 3.68363C75.7372 3.66647 75.7107 3.65088 75.6833 3.63696L74.1546 2.85937L74.1143 2.84032C68.1061 0.22078 62.7373 -0.223373 58.0034 1.18956ZM73.4945 4.21174L74.959 4.95673L74.9228 4.932C76.4877 5.98677 77.9069 7.27753 79.1839 8.75315C80.4917 10.2645 81.5823 11.8864 82.4638 13.5078C82.7718 14.0742 83.0312 14.5992 83.2434 15.0688L83.3453 15.2987C83.3764 15.3704 83.4048 15.4371 83.4303 15.4987L83.4871 15.639C83.6375 16.0319 84.0807 16.225 84.4705 16.0675C89.5174 14.0286 93.8897 13.8482 97.6631 15.2151C100.734 16.3274 103.315 18.4281 105.442 21.2399C106.597 22.7681 107.545 24.4092 108.296 26.05C108.559 26.6236 108.778 27.1553 108.956 27.631L109.041 27.8639C109.058 27.9124 109.074 27.9586 109.089 28.0025L109.158 28.209C109.266 28.5583 109.609 28.7795 109.971 28.7332C114.725 28.1263 118.64 28.6757 121.807 30.1976C124.428 31.4573 126.469 33.3487 128.004 35.7107C129.037 37.2987 129.781 39.0047 130.282 40.7107L130.333 40.8882C130.433 41.2407 130.518 41.5768 130.588 41.8935L130.634 42.1088H8.30565C2.40189 42.1088 0.0773894 34.4208 5.00979 31.174C8.41524 28.9195 12.9039 27.9944 18.5839 28.733C18.9319 28.7782 19.2626 28.5767 19.3845 28.2516L19.4459 28.0662L19.4912 27.9346C19.5154 27.8654 19.5421 27.791 19.5711 27.7118L19.601 27.6309C19.7779 27.1556 19.9965 26.6242 20.2588 26.051C21.0089 24.4113 21.9552 22.7713 23.1102 21.2442C25.234 18.4359 27.8142 16.3374 30.8853 15.2252C34.6592 13.8584 39.0348 14.0358 44.0875 16.0679C44.4779 16.2249 44.921 16.0308 45.0705 15.6372L45.1269 15.497L45.1813 15.3671C45.22 15.276 45.2638 15.1759 45.3125 15.0673C45.5232 14.5979 45.7811 14.0731 46.0874 13.5069C46.9641 11.8862 48.0498 10.2648 49.3533 8.75409C51.8722 5.83461 54.8887 3.6897 58.4331 2.63182C62.7654 1.33876 67.7072 1.72883 73.32 4.1363L73.4945 4.21174Z" fill="#272747"/>
<path fill-rule="evenodd" clip-rule="evenodd" d="M86.1943 138.405C89.377 136.298 93.9129 135.019 100.278 135.846C100.278 135.846 106.569 115.428 125.965 123.229C125.965 123.229 134.01 102.059 155.412 111.39L156.94 112.167C163.155 116.356 165.787 123.229 165.787 123.229C185.159 115.403 191.474 135.846 191.474 135.846C211.121 133.338 213.126 150.721 213.126 150.721H89.9032C83.2622 150.696 80.6308 142.042 86.1943 138.405Z" fill="white"/>
<path fill-rule="evenodd" clip-rule="evenodd" d="M139.601 109.049C135.757 110.196 132.507 112.507 129.813 115.63C128.433 117.229 127.288 118.939 126.362 120.65L126.267 120.829C126.015 121.302 125.796 121.747 125.607 122.158L125.559 122.264L125.498 122.242C120.419 120.351 115.913 120.242 111.971 121.669C108.6 122.89 105.796 125.171 103.509 128.195C102.282 129.817 101.282 131.55 100.489 133.284L100.407 133.465C100.192 133.944 100.006 134.395 99.8473 134.811L99.7663 135.027L99.7627 135.026C94.019 134.386 89.3694 135.4 85.7793 137.777C79.5981 141.818 82.509 151.445 89.9001 151.473L213.126 151.473C213.575 151.473 213.924 151.081 213.873 150.635L213.858 150.524C213.839 150.383 213.806 150.182 213.758 149.929C213.654 149.389 213.511 148.79 213.322 148.146C212.782 146.308 211.98 144.469 210.862 142.749C209.183 140.166 206.938 138.086 204.055 136.7L203.898 136.626C200.646 135.104 196.716 134.521 192.059 135.02L191.985 135.028L191.962 134.964C191.772 134.455 191.539 133.89 191.26 133.282C190.466 131.548 189.465 129.813 188.238 128.191C185.948 125.163 183.143 122.88 179.772 121.659L179.628 121.608C175.771 120.252 171.378 120.363 166.444 122.17L166.19 122.264L166.211 122.308C165.984 121.806 165.708 121.248 165.382 120.648C164.451 118.937 163.301 117.226 161.918 115.627C160.558 114.056 159.041 112.676 157.36 111.543C157.335 111.526 157.308 111.51 157.281 111.496L155.752 110.719L155.712 110.7C149.703 108.08 144.335 107.636 139.601 109.049ZM155.092 112.071L156.556 112.816L156.52 112.792C158.085 113.846 159.504 115.137 160.781 116.613C162.089 118.124 163.18 119.746 164.061 121.367C164.369 121.934 164.629 122.459 164.841 122.928L164.943 123.158C164.974 123.23 165.002 123.297 165.028 123.358L165.084 123.498C165.235 123.891 165.678 124.085 166.068 123.927C171.115 121.888 175.487 121.708 179.26 123.075C182.331 124.187 184.913 126.288 187.039 129.099C188.195 130.628 189.142 132.269 189.894 133.91C190.156 134.483 190.375 135.015 190.553 135.49L190.638 135.723C190.655 135.772 190.671 135.818 190.686 135.862L190.755 136.069C190.863 136.418 191.206 136.639 191.569 136.593C196.323 135.986 200.237 136.535 203.404 138.057C206.025 139.317 208.066 141.208 209.602 143.57C210.634 145.158 211.378 146.864 211.879 148.57L211.931 148.748C212.047 149.159 212.143 149.548 212.22 149.91L212.231 149.968L89.903 149.968C84 149.946 81.6754 142.258 86.6051 139.035C90.0126 136.779 94.5012 135.854 100.181 136.592C100.529 136.638 100.86 136.436 100.982 136.111L101.043 135.926L101.088 135.794C101.113 135.725 101.139 135.651 101.168 135.571L101.198 135.49C101.375 135.015 101.594 134.484 101.856 133.911C102.606 132.271 103.552 130.631 104.707 129.104C106.831 126.295 109.412 124.197 112.483 123.085C116.257 121.718 120.632 121.895 125.685 123.927C126.075 124.084 126.518 123.89 126.668 123.497L126.724 123.357L126.779 123.227C126.817 123.136 126.861 123.035 126.91 122.927C127.121 122.457 127.378 121.933 127.685 121.366C128.561 119.746 129.647 118.124 130.951 116.614C133.469 113.694 136.486 111.549 140.03 110.491C144.363 109.198 149.304 109.588 154.917 111.996L155.092 112.071Z" fill="#272747"/>
<path fill-rule="evenodd" clip-rule="evenodd" d="M142.129 74.3413C145.312 72.2342 149.848 70.955 156.214 71.7827C156.214 71.7827 162.504 51.3647 181.901 59.1657C181.901 59.1657 189.945 37.9951 211.347 47.3262L212.876 48.1038C219.091 52.2928 221.722 59.1657 221.722 59.1657C241.094 51.3396 247.409 71.7827 247.409 71.7827C267.057 69.2744 269.061 86.6573 269.061 86.6573H145.864C139.197 86.6573 136.566 78.0035 142.129 74.3413Z" fill="white"/>
<path fill-rule="evenodd" clip-rule="evenodd" d="M195.536 44.9856C191.692 46.1329 188.442 48.4438 185.748 51.5664C184.368 53.1652 183.223 54.8755 182.298 56.5864L182.202 56.765C181.95 57.2381 181.731 57.6835 181.543 58.0941L181.494 58.2007L181.433 58.178C176.355 56.2874 171.848 56.1786 167.906 57.606C164.535 58.8267 161.731 61.1077 159.444 64.1318C158.217 65.7532 157.217 67.4867 156.424 69.2205L156.342 69.4015C156.127 69.8806 155.941 70.3316 155.782 70.7474L155.701 70.963L155.698 70.9626C149.954 70.3227 145.305 71.3369 141.714 73.7137C135.529 77.7852 138.451 87.4099 145.863 87.4099H269.061C269.51 87.4099 269.859 87.0179 269.808 86.571L269.794 86.4604C269.774 86.3193 269.741 86.1189 269.693 85.8657C269.589 85.3259 269.446 84.7265 269.257 84.0823C268.717 82.2441 267.915 80.4058 266.797 78.6858C265.118 76.103 262.873 74.0224 259.99 72.6369L259.833 72.5625C256.581 71.0403 252.651 70.4578 247.995 70.9563L247.92 70.9645L247.897 70.9008C247.707 70.392 247.474 69.8267 247.196 69.2188C246.401 67.4842 245.4 65.7498 244.173 64.1276C241.883 61.0999 239.078 58.8168 235.707 57.5959L235.563 57.5444C231.706 56.1887 227.313 56.3 222.379 58.1062L222.126 58.2005L222.146 58.2447C221.919 57.7423 221.643 57.1843 221.317 56.5844C220.387 54.8732 219.237 53.1628 217.853 51.5638C216.493 49.9922 214.976 48.6125 213.295 47.4797C213.27 47.4625 213.243 47.4469 213.216 47.433L211.687 46.6554L211.647 46.6363C205.639 44.0168 200.27 43.5726 195.536 44.9856ZM211.027 48.0078L212.492 48.7527L212.455 48.728C214.02 49.7828 215.439 51.0735 216.716 52.5492C218.024 54.0605 219.115 55.6825 219.996 57.3038C220.304 57.8702 220.564 58.3952 220.776 58.8648L220.878 59.0947C220.909 59.1664 220.937 59.2332 220.963 59.2947L221.02 59.435C221.17 59.8279 221.613 60.021 222.003 59.8635C227.05 57.8246 231.422 57.6443 235.196 59.0111C238.266 60.1234 240.848 62.2241 242.974 65.0359C244.13 66.5641 245.077 68.2052 245.829 69.846C246.091 70.4196 246.311 70.9513 246.488 71.427L246.573 71.6599C246.59 71.7084 246.606 71.7546 246.622 71.7985L246.69 72.0051C246.798 72.3544 247.141 72.5755 247.504 72.5292C252.258 71.9223 256.173 72.4717 259.339 73.9937C261.96 75.2533 264.001 77.1447 265.537 79.5068C266.569 81.0948 267.314 82.8007 267.814 84.5067L267.866 84.6843C267.982 85.0954 268.078 85.4844 268.155 85.8462L268.167 85.9046L145.863 85.9048C139.939 85.9048 137.606 78.2194 142.542 74.97C145.948 72.7155 150.436 71.7904 156.116 72.529C156.464 72.5743 156.795 72.3727 156.917 72.0476L156.978 71.8622L157.024 71.7306C157.048 71.6614 157.075 71.587 157.104 71.5078L157.133 71.4269C157.31 70.9516 157.529 70.4203 157.791 69.8471C158.541 68.2073 159.488 66.5674 160.643 65.0402C162.766 62.2319 165.347 60.1334 168.418 59.0212C172.192 57.6545 176.567 57.8318 181.62 59.864C182.01 60.021 182.453 59.8268 182.603 59.4332L182.659 59.2931L182.714 59.1632C182.752 59.072 182.796 58.9719 182.845 58.8634C183.056 58.3939 183.314 57.8691 183.62 57.3029C184.497 55.6822 185.582 54.0609 186.886 52.5501C189.405 49.6306 192.421 47.4857 195.966 46.4278C200.298 45.1348 205.24 45.5248 210.852 47.9323L211.027 48.0078Z" fill="#272747"/>
<path fill-rule="evenodd" clip-rule="evenodd" d="M168.518 105.069H51.6102C49.1543 105.069 47.1494 103.062 47.1494 100.604V31.0219C47.1494 28.5637 49.1543 26.557 51.6102 26.557H168.518C170.974 26.557 172.979 28.5637 172.979 31.0219V100.604C172.979 103.062 170.974 105.069 168.518 105.069Z" fill="#6A6AF4"/>
<path fill-rule="evenodd" clip-rule="evenodd" d="M169.335 28.2448C169.664 27.9902 170.136 28.0501 170.39 28.3785C170.635 28.6944 170.589 29.1435 170.293 29.404L170.257 29.4343L112.845 73.9809C111.221 75.2519 109.029 75.2721 107.389 74.0432L107.311 73.9828L49.8967 29.4343C49.5685 29.1797 49.5087 28.707 49.7631 28.3785C50.0077 28.0627 50.4538 27.9952 50.7795 28.2169L50.8179 28.2448L108.234 72.7952C109.318 73.6436 110.754 73.6606 111.855 72.8444L111.922 72.7933L169.335 28.2448Z" fill="white"/>
<path fill-rule="evenodd" clip-rule="evenodd" d="M84.0409 54.8386C84.3386 54.5489 84.8146 54.5556 85.104 54.8536C85.3819 55.1396 85.3868 55.5901 85.1234 55.882L85.089 55.9177L49.0269 91.0096C48.7292 91.2993 48.2532 91.2926 47.9637 90.9946C47.6859 90.7086 47.6809 90.2581 47.9444 89.9662L47.9787 89.9305L84.0409 54.8386Z" fill="white"/>
<path fill-rule="evenodd" clip-rule="evenodd" d="M135.349 54.8536C135.627 54.5675 136.077 54.5499 136.376 54.8052L136.413 54.8386L172.475 89.9305C172.773 90.2202 172.779 90.6967 172.49 90.9946C172.212 91.2807 171.762 91.2983 171.463 91.043L171.427 91.0096L135.364 55.9177C135.067 55.628 135.06 55.1516 135.349 54.8536Z" fill="white"/>
<path fill-rule="evenodd" clip-rule="evenodd" d="M168.969 145.679C188.36 145.679 204.079 129.945 204.079 110.537C204.079 91.1284 188.36 75.3948 168.969 75.3948C149.579 75.3948 133.859 91.1284 133.859 110.537C133.859 129.945 149.579 145.679 168.969 145.679Z" fill="#FAA184"/>
<path fill-rule="evenodd" clip-rule="evenodd" d="M196.611 77.0252C195.157 76.1222 193.228 76.5737 192.325 78.0286L184.657 90.3697C180.096 86.6824 174.307 84.4751 168.017 84.4751C153.381 84.4751 141.478 96.3898 141.478 111.039C141.478 125.687 153.381 137.602 168.017 137.602C182.652 137.602 194.556 125.687 194.556 111.039C194.556 104.993 192.526 99.4249 189.118 94.935L197.588 81.2895C198.515 79.8346 198.064 77.9283 196.611 77.0252ZM192.601 111.039C192.601 124.609 181.574 135.646 168.017 135.646C154.459 135.646 143.432 124.609 143.432 111.039C143.432 97.4684 154.459 86.4316 168.017 86.4316C173.931 86.4316 179.369 88.5386 183.604 92.0253L169.721 114.375L161.676 103.664C160.649 102.284 158.694 102.009 157.316 103.037C155.938 104.065 155.662 106.022 156.689 107.402L167.465 121.749C168.067 122.527 168.969 123.004 169.946 123.004C169.996 123.004 170.047 123.004 170.072 123.004C171.099 122.953 172.026 122.402 172.578 121.549L187.99 96.7661C190.897 100.779 192.601 105.721 192.601 111.039Z" fill="#F95C5E"/>
</svg>
