<svg width="118" height="70" viewBox="0 0 118 70" fill="none" xmlns="http://www.w3.org/2000/svg">
<path fill-rule="evenodd" clip-rule="evenodd" d="M31.3709 58.7971C32.32 52.1601 34.397 37.6871 28.1814 30.8567C21.9658 24.0264 20.9778 25.6508 19.8965 20.0349C18.8152 14.419 13.0819 12.1447 10.1958 15.4091C7.30187 18.6657 10.7792 24.9082 11.8994 26.2696C13.0196 27.6311 12.0083 36.0163 15.6568 41.8178C19.3053 47.6194 25.163 43.4655 24.9141 48.509C25.2486 58.449 31.3709 58.7971 31.3709 58.7971Z" fill="#FFC29E"/>
<path fill-rule="evenodd" clip-rule="evenodd" d="M12.903 17.5721C13.012 17.5038 13.1561 17.5363 13.2248 17.6448L13.3263 17.8062L13.5302 18.1333C13.6799 18.3744 13.848 18.6472 14.0331 18.95L14.2101 19.2399C14.8059 20.2184 15.461 21.3148 16.1615 22.5128C18.3629 26.278 20.5644 30.2747 22.6193 34.3296C24.3143 37.6744 25.8359 40.9166 27.1406 44.0052C29.6108 49.8528 31.2234 54.9536 31.7965 59.0982C31.8141 59.2251 31.7248 59.3422 31.5971 59.3597C31.4694 59.3771 31.3517 59.2884 31.3341 59.1614C30.7675 55.0639 29.1661 49.9985 26.7103 44.185C25.41 41.1069 23.8929 37.8742 22.2025 34.5385C20.1521 30.4925 17.955 26.5037 15.7579 22.7461L15.4808 22.2733C14.8399 21.183 14.2401 20.1831 13.6928 19.2867L13.4065 18.8197C13.3338 18.7014 13.2643 18.5889 13.1981 18.482L12.8983 18.0008L12.8299 17.8921C12.7612 17.7837 12.7939 17.6404 12.903 17.5721Z" fill="white"/>
<path fill-rule="evenodd" clip-rule="evenodd" d="M34.7238 7.03169C28.6482 6.45153 27.388 12.578 27.1935 17.7607C26.999 22.9435 27.9637 24.8077 24.9998 27.5615C22.0359 30.3231 26.859 34.0515 26.4467 36.7899C26.0344 39.5282 23.1872 46.8459 34.2571 63.0594C34.6616 63.6473 35.2373 68.3814 35.2373 68.3814L37.6333 67.7393C37.6333 67.7393 36.093 63.8948 37.8355 59.2381C39.5781 54.5736 42.5342 52.3845 42.8143 46.552C43.0943 40.7195 38.9013 41.8488 39.6714 38.0121C40.4416 34.1753 44.3779 31.522 44.0745 27.6775C43.7711 23.8253 36.4975 21.0251 38.1078 16.5927C39.7181 12.1525 39.9826 7.53449 34.7238 7.03169Z" fill="#FFC29E"/>
<path fill-rule="evenodd" clip-rule="evenodd" d="M32.4323 9.09339C32.5503 9.13226 32.6161 9.25575 32.5843 9.3736L32.548 9.48715L32.5197 9.5777C32.4999 9.64174 32.4781 9.71312 32.4546 9.79178L32.4223 9.90062C32.3297 10.2149 32.2281 10.5794 32.1194 10.993L32.072 11.1747C31.7403 12.4564 31.4094 13.942 31.0995 15.6196C30.0198 21.4651 29.4484 28.164 29.6558 35.5571C29.9268 45.2161 31.5173 55.2516 34.6978 65.505C34.7358 65.6275 34.6668 65.7574 34.5436 65.7952C34.4204 65.8329 34.2898 65.7643 34.2518 65.6418C31.0585 55.3471 29.4614 45.27 29.1892 35.57C28.9809 28.1432 29.555 21.4121 30.6405 15.5358L30.6852 15.2958C30.999 13.6256 31.3333 12.1483 31.6678 10.8757L31.7253 10.6589C31.8137 10.3289 31.8971 10.0324 31.9745 9.76993L32.0072 9.65955C32.0392 9.55257 32.068 9.45855 32.0934 9.37763L32.1373 9.24067C32.1779 9.11901 32.3099 9.05307 32.4323 9.09339Z" fill="white"/>
<path fill-rule="evenodd" clip-rule="evenodd" d="M34.3659 58.2712C32.2811 53.0343 27.738 41.6013 20.3788 39.1492C13.0197 36.6971 12.9885 38.2828 9.8535 34.6162C6.71846 30.9496 1.62305 31.6304 0.891801 35.1887C0.160551 38.7469 5.28708 41.8875 6.66401 42.429C8.04094 42.9705 10.8181 49.5069 15.8824 52.2607C20.9467 55.0145 23.4516 49.592 25.3809 53.3824C29.784 60.5067 34.3659 58.2712 34.3659 58.2712Z" fill="#FFC29E"/>
<path fill-rule="evenodd" clip-rule="evenodd" d="M3.35354 34.7876C3.40268 34.6741 3.53208 34.6195 3.64742 34.6612L3.66634 34.6688L3.74532 34.7031C3.79744 34.7258 3.85658 34.7518 3.92254 34.781L3.99076 34.8113C4.2589 34.9306 4.56978 35.0718 4.91984 35.2343L5.22309 35.3759C6.14293 35.8074 7.1528 36.3016 8.23193 36.8548C11.6578 38.611 15.0838 40.5993 18.2826 42.7806C21.5509 45.0095 24.3978 47.3187 26.7021 49.6884C29.3725 52.4347 31.2537 55.2013 32.2215 57.9708C32.2638 58.0918 32.1994 58.2241 32.0777 58.2661C31.9559 58.3082 31.8229 58.2442 31.7806 58.1231C30.0035 53.0378 25.0932 47.9879 18.0186 43.1634C14.8374 40.994 11.4278 39.0152 8.01806 37.2673L7.78052 37.146C6.75619 36.6242 5.79741 36.1572 4.92273 35.7482L4.72238 35.6549C4.4181 35.5136 4.14379 35.3886 3.90184 35.2803L3.64008 35.1641L3.47565 35.0925C3.35726 35.0418 3.30259 34.9053 3.35354 34.7876Z" fill="white"/>
<path fill-rule="evenodd" clip-rule="evenodd" d="M31.6743 59.594C31.7988 53.5449 32.0788 40.3406 38.5667 35.1346C45.0546 29.9287 45.6848 31.5144 47.4584 26.6566C49.2321 21.7987 54.6231 20.5843 56.7002 23.895C58.7772 27.2058 54.802 32.2802 53.6196 33.3323C52.4372 34.3843 52.1026 42.0037 48.0341 46.6681C43.9655 51.3249 39.4069 46.7996 38.8935 51.3326C37.1276 60.1355 31.6743 59.594 31.6743 59.594Z" fill="#FFC29E"/>
<path fill-rule="evenodd" clip-rule="evenodd" d="M54.1151 24.4388C54.2041 24.5315 54.2006 24.6784 54.1074 24.7669L53.975 24.8941L53.8121 25.0526C53.6609 25.2004 53.4912 25.3681 53.3044 25.5548L53.116 25.7439C52.4749 26.389 51.7676 27.1222 51.0099 27.9342C48.6844 30.4262 46.3588 33.1466 44.1887 36.0049C40.5462 40.8025 37.7199 45.4923 36.027 49.886C34.8368 52.975 34.2376 55.8493 34.2958 58.4673C34.2987 58.5954 34.1965 58.7016 34.0677 58.7044C33.9388 58.7073 33.832 58.6057 33.8292 58.4776C33.7695 55.7935 34.3808 52.8613 35.5911 49.7199C37.3019 45.2798 40.1495 40.5547 43.8162 35.7252C45.9481 32.9173 48.2284 30.2428 50.512 27.7857L50.6678 27.6185C51.4581 26.7716 52.1939 26.0099 52.8577 25.3435L53.0661 25.1351C53.2181 24.9837 53.3579 24.8457 53.485 24.7215L53.6702 24.5415L53.7852 24.4311C53.8784 24.3426 54.0261 24.3461 54.1151 24.4388Z" fill="white"/>
<path fill-rule="evenodd" clip-rule="evenodd" d="M40.2702 68.8377L43.1719 55.5637C43.4131 54.5581 42.6274 53.5989 41.5694 53.5989H23.5215C22.4635 53.5989 21.6856 54.5503 21.9112 55.5482L24.8751 68.7526" fill="#FF8D7E"/>
<rect x="44.0122" y="47.8853" width="20.9939" height="5.28211" transform="rotate(90 44.0122 47.8853)" fill="#2E186A"/>
<rect x="42.6494" y="49.6721" width="9.77758" height="2.83943" transform="rotate(90 42.6494 49.6721)" fill="white"/>
<rect x="42.6484" y="59.8591" width="0.912781" height="2.83943" transform="rotate(90 42.6484 59.8591)" fill="#FF8D7E"/>
<path fill-rule="evenodd" clip-rule="evenodd" d="M41.1808 64.0493C40.502 64.0493 39.9517 64.5965 39.9517 65.2715C39.9517 65.9465 40.502 66.4937 41.1808 66.4937C41.8596 66.4937 42.4099 65.9465 42.4099 65.2715C42.4099 64.5965 41.8596 64.0493 41.1808 64.0493ZM41.1808 64.5134C41.6018 64.5134 41.9432 64.8528 41.9432 65.2715C41.9432 65.6902 41.6018 66.0296 41.1808 66.0296C40.7597 66.0296 40.4184 65.6902 40.4184 65.2715C40.4184 64.8528 40.7597 64.5134 41.1808 64.5134Z" fill="white"/>
<path fill-rule="evenodd" clip-rule="evenodd" d="M42.324 51.7654C42.4529 51.7654 42.5574 51.8693 42.5574 51.9974C42.5574 52.121 42.4602 52.2221 42.3377 52.2291L42.324 52.2295H40.2158C40.0869 52.2295 39.9824 52.1256 39.9824 51.9974C39.9824 51.8739 40.0796 51.7728 40.2021 51.7658L40.2158 51.7654H42.324Z" fill="#FF8D7E"/>
<path fill-rule="evenodd" clip-rule="evenodd" d="M42.324 52.8406C42.4529 52.8406 42.5574 52.9445 42.5574 53.0726C42.5574 53.1962 42.4602 53.2972 42.3377 53.3043L42.324 53.3047H40.2158C40.0869 53.3047 39.9824 53.2008 39.9824 53.0726C39.9824 52.9491 40.0796 52.848 40.2021 52.841L40.2158 52.8406H42.324Z" fill="#FF8D7E"/>
<path fill-rule="evenodd" clip-rule="evenodd" d="M42.324 53.9158C42.4529 53.9158 42.5574 54.0197 42.5574 54.1478C42.5574 54.2714 42.4602 54.3724 42.3377 54.3795L42.324 54.3799H40.2158C40.0869 54.3799 39.9824 54.276 39.9824 54.1478C39.9824 54.0242 40.0796 53.9232 40.2021 53.9162L40.2158 53.9158H42.324Z" fill="#FF8D7E"/>
<rect x="49.2803" y="47.9036" width="20.9939" height="5.28212" transform="rotate(90 49.2803 47.9036)" fill="#2E186A"/>
<rect x="47.9097" y="49.6904" width="9.77758" height="2.83943" transform="rotate(90 47.9097 49.6904)" fill="white"/>
<rect x="47.9165" y="59.8774" width="0.912781" height="2.83943" transform="rotate(90 47.9165 59.8774)" fill="#FF8D7E"/>
<path fill-rule="evenodd" clip-rule="evenodd" d="M46.4396 64.0725C45.7607 64.0725 45.2104 64.6197 45.2104 65.2947C45.2104 65.9697 45.7607 66.5169 46.4396 66.5169C47.1184 66.5169 47.6687 65.9697 47.6687 65.2947C47.6687 64.6197 47.1184 64.0725 46.4396 64.0725ZM46.4396 64.5366C46.8606 64.5366 47.2019 64.876 47.2019 65.2947C47.2019 65.7134 46.8606 66.0528 46.4396 66.0528C46.0185 66.0528 45.6772 65.7134 45.6772 65.2947C45.6772 64.876 46.0185 64.5366 46.4396 64.5366Z" fill="white"/>
<path fill-rule="evenodd" clip-rule="evenodd" d="M47.5593 56.2673C47.6882 56.2673 47.7927 56.3712 47.7927 56.4994C47.7927 56.623 47.6955 56.724 47.573 56.7311L47.5593 56.7315H45.4512C45.3223 56.7315 45.2178 56.6276 45.2178 56.4994C45.2178 56.3758 45.3149 56.2748 45.4374 56.2677L45.4512 56.2673H47.5593Z" fill="#FF8D7E"/>
<path fill-rule="evenodd" clip-rule="evenodd" d="M47.5593 50.7056C47.6882 50.7056 47.7927 50.8095 47.7927 50.9376C47.7927 51.0612 47.6955 51.1622 47.573 51.1693L47.5593 51.1697H45.4512C45.3223 51.1697 45.2178 51.0658 45.2178 50.9376C45.2178 50.814 45.3149 50.713 45.4374 50.706L45.4512 50.7056H47.5593Z" fill="#FF8D7E"/>
<path fill-rule="evenodd" clip-rule="evenodd" d="M47.5593 57.3425C47.6882 57.3425 47.7927 57.4464 47.7927 57.5746C47.7927 57.6982 47.6955 57.7992 47.573 57.8063L47.5593 57.8067H45.4512C45.3223 57.8067 45.2178 57.7028 45.2178 57.5746C45.2178 57.451 45.3149 57.35 45.4374 57.3429L45.4512 57.3425H47.5593Z" fill="#FF8D7E"/>
<path fill-rule="evenodd" clip-rule="evenodd" d="M47.5593 58.418C47.6882 58.418 47.7927 58.5219 47.7927 58.65C47.7927 58.7736 47.6955 58.8746 47.573 58.8817L47.5593 58.8821H45.4512C45.3223 58.8821 45.2178 58.7782 45.2178 58.65C45.2178 58.5264 45.3149 58.4254 45.4374 58.4184L45.4512 58.418H47.5593Z" fill="#FF8D7E"/>
<rect x="64.9946" y="47.9036" width="20.9939" height="5.28211" transform="rotate(90 64.9946 47.9036)" fill="#2E186A"/>
<rect x="63.624" y="49.6904" width="9.77758" height="2.83943" transform="rotate(90 63.624 49.6904)" fill="white"/>
<rect x="63.6309" y="59.8774" width="0.912781" height="2.83943" transform="rotate(90 63.6309 59.8774)" fill="#FF8D7E"/>
<path fill-rule="evenodd" clip-rule="evenodd" d="M62.1534 64.0725C61.4746 64.0725 60.9243 64.6197 60.9243 65.2947C60.9243 65.9697 61.4746 66.5169 62.1534 66.5169C62.8323 66.5169 63.3826 65.9697 63.3826 65.2947C63.3826 64.6197 62.8323 64.0725 62.1534 64.0725ZM62.1534 64.5366C62.5745 64.5366 62.9158 64.876 62.9158 65.2947C62.9158 65.7134 62.5745 66.0528 62.1534 66.0528C61.7324 66.0528 61.3911 65.7134 61.3911 65.2947C61.3911 64.876 61.7324 64.5366 62.1534 64.5366Z" fill="white"/>
<path fill-rule="evenodd" clip-rule="evenodd" d="M63.2737 56.2676C63.4026 56.2676 63.5071 56.3715 63.5071 56.4996C63.5071 56.6232 63.4099 56.7242 63.2874 56.7313L63.2737 56.7317H61.1655C61.0366 56.7317 60.9321 56.6278 60.9321 56.4996C60.9321 56.3761 61.0293 56.275 61.1518 56.268L61.1655 56.2676H63.2737Z" fill="#FF8D7E"/>
<path fill-rule="evenodd" clip-rule="evenodd" d="M63.2737 50.7058C63.4026 50.7058 63.5071 50.8097 63.5071 50.9379C63.5071 51.0615 63.4099 51.1625 63.2874 51.1695L63.2737 51.1699H61.1655C61.0366 51.1699 60.9321 51.066 60.9321 50.9379C60.9321 50.8143 61.0293 50.7133 61.1518 50.7062L61.1655 50.7058H63.2737Z" fill="#2E186A"/>
<path fill-rule="evenodd" clip-rule="evenodd" d="M63.2737 57.3428C63.4026 57.3428 63.5071 57.4467 63.5071 57.5748C63.5071 57.6984 63.4099 57.7994 63.2874 57.8065L63.2737 57.8069H61.1655C61.0366 57.8069 60.9321 57.703 60.9321 57.5748C60.9321 57.4512 61.0293 57.3502 61.1518 57.3432L61.1655 57.3428H63.2737Z" fill="#FF8D7E"/>
<path fill-rule="evenodd" clip-rule="evenodd" d="M63.2737 58.418C63.4026 58.418 63.5071 58.5219 63.5071 58.65C63.5071 58.7736 63.4099 58.8746 63.2874 58.8817L63.2737 58.8821H61.1655C61.0366 58.8821 60.9321 58.7782 60.9321 58.65C60.9321 58.5264 61.0293 58.4254 61.1518 58.4184L61.1655 58.418H63.2737Z" fill="#FF8D7E"/>
<rect x="38.8086" y="47.9045" width="20.9939" height="5.28211" transform="rotate(90 38.8086 47.9045)" fill="#2E186A"/>
<rect x="37.438" y="49.6914" width="9.77758" height="2.83943" transform="rotate(90 37.438 49.6914)" fill="white"/>
<rect x="37.4448" y="59.8784" width="0.912781" height="2.83943" transform="rotate(90 37.4448 59.8784)" fill="#FF8D7E"/>
<path fill-rule="evenodd" clip-rule="evenodd" d="M35.9684 64.0725C35.2896 64.0725 34.7393 64.6197 34.7393 65.2947C34.7393 65.9697 35.2896 66.5169 35.9684 66.5169C36.6472 66.5169 37.1975 65.9697 37.1975 65.2947C37.1975 64.6197 36.6472 64.0725 35.9684 64.0725ZM35.9684 64.5366C36.3894 64.5366 36.7307 64.876 36.7307 65.2947C36.7307 65.7134 36.3894 66.0528 35.9684 66.0528C35.5473 66.0528 35.206 65.7134 35.206 65.2947C35.206 64.876 35.5473 64.5366 35.9684 64.5366Z" fill="white"/>
<path fill-rule="evenodd" clip-rule="evenodd" d="M37.0808 56.2676C37.2097 56.2676 37.3142 56.3715 37.3142 56.4996C37.3142 56.6232 37.217 56.7243 37.0945 56.7313L37.0808 56.7317H34.9726C34.8437 56.7317 34.7393 56.6278 34.7393 56.4996C34.7393 56.3761 34.8364 56.275 34.9589 56.268L34.9726 56.2676H37.0808Z" fill="#FF8D7E"/>
<path fill-rule="evenodd" clip-rule="evenodd" d="M37.0808 50.7058C37.2097 50.7058 37.3142 50.8097 37.3142 50.9379C37.3142 51.0615 37.217 51.1625 37.0945 51.1695L37.0808 51.1699H34.9726C34.8437 51.1699 34.7393 51.066 34.7393 50.9379C34.7393 50.8143 34.8364 50.7133 34.9589 50.7062L34.9726 50.7058H37.0808Z" fill="#FF8D7E"/>
<path fill-rule="evenodd" clip-rule="evenodd" d="M37.0808 57.3428C37.2097 57.3428 37.3142 57.4467 37.3142 57.5748C37.3142 57.6984 37.217 57.7994 37.0945 57.8065L37.0808 57.8069H34.9726C34.8437 57.8069 34.7393 57.703 34.7393 57.5748C34.7393 57.4512 34.8364 57.3502 34.9589 57.3432L34.9726 57.3428H37.0808Z" fill="#FF8D7E"/>
<path fill-rule="evenodd" clip-rule="evenodd" d="M37.0808 58.418C37.2097 58.418 37.3142 58.5219 37.3142 58.65C37.3142 58.7736 37.217 58.8746 37.0945 58.8817L37.0808 58.8821H34.9726C34.8437 58.8821 34.7393 58.7782 34.7393 58.65C34.7393 58.5264 34.8364 58.4254 34.9589 58.4184L34.9726 58.418H37.0808Z" fill="#FF8D7E"/>
<rect x="54.5327" y="47.9023" width="20.9939" height="5.28211" transform="rotate(90 54.5327 47.9023)" fill="#2E186A"/>
<rect x="53.1621" y="49.6892" width="9.77758" height="2.83943" transform="rotate(90 53.1621 49.6892)" fill="white"/>
<rect x="53.1689" y="59.8762" width="0.912777" height="2.83943" transform="rotate(90 53.1689 59.8762)" fill="#FF8D7E"/>
<path fill-rule="evenodd" clip-rule="evenodd" d="M51.6905 64.0725C51.0117 64.0725 50.4614 64.6197 50.4614 65.2947C50.4614 65.9697 51.0117 66.5169 51.6905 66.5169C52.3694 66.5169 52.9197 65.9697 52.9197 65.2947C52.9197 64.6197 52.3694 64.0725 51.6905 64.0725ZM51.6906 64.5366C52.1116 64.5366 52.4529 64.876 52.4529 65.2947C52.4529 65.7134 52.1116 66.0528 51.6906 66.0528C51.2695 66.0528 50.9282 65.7134 50.9282 65.2947C50.9282 64.876 51.2695 64.5366 51.6906 64.5366Z" fill="white"/>
<path fill-rule="evenodd" clip-rule="evenodd" d="M52.8108 56.2673C52.9397 56.2673 53.0442 56.3712 53.0442 56.4994C53.0442 56.623 52.947 56.724 52.8245 56.7311L52.8108 56.7315H50.7026C50.5737 56.7315 50.4692 56.6276 50.4692 56.4994C50.4692 56.3758 50.5664 56.2748 50.6889 56.2677L50.7026 56.2673H52.8108Z" fill="#FF8D7E"/>
<path fill-rule="evenodd" clip-rule="evenodd" d="M52.8108 50.7056C52.9397 50.7056 53.0442 50.8095 53.0442 50.9376C53.0442 51.0612 52.947 51.1622 52.8245 51.1693L52.8108 51.1697H50.7026C50.5737 51.1697 50.4692 51.0658 50.4692 50.9376C50.4692 50.814 50.5664 50.713 50.6889 50.706L50.7026 50.7056H52.8108Z" fill="#2E186A"/>
<path fill-rule="evenodd" clip-rule="evenodd" d="M52.8108 57.3425C52.9397 57.3425 53.0442 57.4464 53.0442 57.5746C53.0442 57.6982 52.947 57.7992 52.8245 57.8063L52.8108 57.8067H50.7026C50.5737 57.8067 50.4692 57.7028 50.4692 57.5746C50.4692 57.451 50.5664 57.35 50.6889 57.3429L50.7026 57.3425H52.8108Z" fill="#FF8D7E"/>
<path fill-rule="evenodd" clip-rule="evenodd" d="M52.8108 58.418C52.9397 58.418 53.0442 58.5219 53.0442 58.65C53.0442 58.7736 52.947 58.8746 52.8245 58.8817L52.8108 58.8821H50.7026C50.5737 58.8821 50.4692 58.7782 50.4692 58.65C50.4692 58.5264 50.5664 58.4254 50.6889 58.4184L50.7026 58.418H52.8108Z" fill="#FF8D7E"/>
<rect x="59.7363" y="47.8833" width="20.9939" height="5.28211" transform="rotate(90 59.7363 47.8833)" fill="#2E186A"/>
<rect x="58.3735" y="49.6702" width="9.77758" height="2.83943" transform="rotate(90 58.3735 49.6702)" fill="white"/>
<rect x="58.3726" y="59.8572" width="0.912781" height="2.83943" transform="rotate(90 58.3726 59.8572)" fill="#FF8D7E"/>
<path fill-rule="evenodd" clip-rule="evenodd" d="M56.9025 64.0493C56.2236 64.0493 55.6733 64.5965 55.6733 65.2715C55.6733 65.9465 56.2236 66.4937 56.9025 66.4937C57.5813 66.4937 58.1316 65.9465 58.1316 65.2715C58.1316 64.5965 57.5813 64.0493 56.9025 64.0493ZM56.9025 64.5134C57.3235 64.5134 57.6648 64.8528 57.6648 65.2715C57.6648 65.6902 57.3235 66.0296 56.9025 66.0296C56.4814 66.0296 56.1401 65.6902 56.1401 65.2715C56.1401 64.8528 56.4814 64.5134 56.9025 64.5134Z" fill="white"/>
<path fill-rule="evenodd" clip-rule="evenodd" d="M58.054 51.7654C58.1828 51.7654 58.2873 51.8693 58.2873 51.9974C58.2873 52.121 58.1902 52.2221 58.0677 52.2291L58.054 52.2295H55.9458C55.8169 52.2295 55.7124 52.1256 55.7124 51.9974C55.7124 51.8739 55.8096 51.7728 55.9321 51.7658L55.9458 51.7654H58.054Z" fill="#FF8D7E"/>
<path fill-rule="evenodd" clip-rule="evenodd" d="M58.054 52.8408C58.1828 52.8408 58.2873 52.9447 58.2873 53.0729C58.2873 53.1965 58.1902 53.2975 58.0677 53.3046L58.054 53.3049H55.9458C55.8169 53.3049 55.7124 53.201 55.7124 53.0729C55.7124 52.9493 55.8096 52.8483 55.9321 52.8412L55.9458 52.8408H58.054Z" fill="#FF8D7E"/>
<path fill-rule="evenodd" clip-rule="evenodd" d="M58.054 53.916C58.1828 53.916 58.2873 54.0199 58.2873 54.1481C58.2873 54.2717 58.1902 54.3727 58.0677 54.3797L58.054 54.3801H55.9458C55.8169 54.3801 55.7124 54.2762 55.7124 54.1481C55.7124 54.0245 55.8096 53.9235 55.9321 53.9164L55.9458 53.916H58.054Z" fill="#FF8D7E"/>
<path fill-rule="evenodd" clip-rule="evenodd" d="M104.301 30.3074C104.301 30.3074 107.421 29.1239 109.062 27.2132C110.042 26.0684 111.295 24.5368 111.217 24.0881C111.085 23.245 109.428 24.7302 109.148 24.939" fill="white"/>
<path fill-rule="evenodd" clip-rule="evenodd" d="M110.808 23.612C111.139 23.5527 111.394 23.7078 111.447 24.0487C111.532 24.5375 110.78 25.5645 109.24 27.364C108.739 27.9471 108.08 28.4958 107.303 29.0088C106.664 29.4298 105.982 29.8035 105.299 30.1262C105.06 30.2391 104.838 30.3376 104.639 30.4213L104.526 30.4678L104.385 30.5242C104.264 30.5699 104.129 30.5099 104.083 30.3901C104.039 30.2747 104.094 30.1458 104.205 30.0958L104.279 30.0667C104.33 30.0463 104.39 30.0219 104.457 29.9937C104.651 29.9126 104.866 29.8169 105.099 29.707C105.763 29.3931 106.426 29.0298 107.045 28.622C107.789 28.1311 108.415 27.6091 108.885 27.0628L109.08 26.8337C110.278 25.4185 111.015 24.3988 110.988 24.1321L110.984 24.1068C110.975 24.0526 110.969 24.0547 110.891 24.0687C110.753 24.0935 110.546 24.1948 110.295 24.3587C110.208 24.4154 110.117 24.4786 110.022 24.548L109.95 24.6013C109.73 24.766 109.283 25.1283 109.288 25.1247C109.185 25.2016 109.038 25.1808 108.961 25.0783C108.887 24.9797 108.903 24.8414 108.996 24.7626L109.18 24.6141C109.337 24.4882 109.564 24.3084 109.695 24.2111C109.814 24.1224 109.929 24.0422 110.039 23.9706C110.339 23.775 110.593 23.6506 110.808 23.612Z" fill="#2E186A"/>
<path fill-rule="evenodd" clip-rule="evenodd" d="M106.152 27.484C106.152 27.484 107.459 26.2773 108.066 25.2175C108.665 24.1577 109.155 23.4616 108.976 23.3069C108.797 23.1521 107.895 23.1599 107.459 23.7787C106.969 24.8539 105.211 26.2927 105.211 26.2927C105.429 26.2154 106.588 25.0628 107.133 24.3434C107.669 23.624 107.755 22.4482 106.137 23.6782C106.137 23.6782 104.425 25.0473 103.764 25.4496C103.764 25.4496 100.847 26.3778 100.069 27.5536C99.5479 28.3503 96.5996 35.699 94.7403 40.4099C92.2198 38.0506 89.8238 35.7764 89.8238 35.7764L77.7349 38.3445C77.7349 38.3445 78.3883 39.1954 88.1046 48.5011C93.0055 53.1965 96.2417 53.5292 98.1943 52.2683C99.2756 51.75 100.279 50.3267 100.411 49.2669L103.43 30.5859C105.203 29.9593 106.409 29.2554 107.203 28.6211C108.222 27.8011 110.618 23.887 110.618 23.5002C110.61 22.4714 109.14 23.2836 108.175 25.1015" fill="white"/>
<path fill-rule="evenodd" clip-rule="evenodd" d="M109.632 23.0362C110.279 22.6376 110.846 22.7854 110.851 23.5002C110.851 24.0643 108.292 28.0431 107.349 28.802C106.471 29.5038 105.275 30.1567 103.751 30.7169L103.638 30.7579L100.642 49.3011L100.639 49.3306C100.478 50.4785 99.4334 51.913 98.3296 52.4608L98.3093 52.4707L98.2846 52.4865C97.1848 53.1807 95.824 53.3311 94.2398 52.8563L94.1863 52.84C92.3866 52.2863 90.3285 50.9413 88.0131 48.7354L87.6894 48.4255C83.745 44.6461 81.0291 42.0064 79.3232 40.3086L79.0332 40.0192C78.5216 39.5077 78.1486 39.1276 77.8924 38.8591L77.7689 38.7288C77.6379 38.5894 77.5732 38.5162 77.5496 38.4854C77.4485 38.3538 77.5149 38.1641 77.6725 38.1209L77.6863 38.1176L89.7752 35.5494C89.8457 35.5345 89.9188 35.5527 89.9737 35.5983L89.9964 35.6192L91.4978 37.0401L92.1911 37.6946C92.8852 38.3492 93.5796 39.0026 94.2588 39.6396L94.6493 40.0057L95.0702 38.9422C97.4877 32.8427 99.4107 28.1722 99.8602 27.4482L99.8743 27.4261C100.197 26.9383 100.841 26.4783 101.717 26.0386C102.15 25.8214 102.612 25.6234 103.074 25.4481L103.18 25.4083C103.302 25.3631 103.416 25.3223 103.521 25.2862L103.625 25.2511L103.665 25.2375L103.68 25.2283C103.882 25.1021 104.187 24.8855 104.566 24.6012L104.734 24.4748L104.788 24.4343C105.058 24.2294 105.341 24.0097 105.621 23.79L105.855 23.6055L105.995 23.4938C106.403 23.1843 106.733 23.0006 106.995 22.9367C107.293 22.8641 107.538 22.9457 107.652 23.1774C107.66 23.1936 107.668 23.2103 107.674 23.2276L107.683 23.2541L107.705 23.2406C107.865 23.1432 108.044 23.0738 108.233 23.0325L108.269 23.0251C108.617 22.956 108.966 22.9899 109.13 23.1317C109.191 23.1844 109.226 23.2463 109.24 23.3161L109.242 23.327L109.254 23.3166C109.371 23.2161 109.487 23.1286 109.601 23.0557L109.632 23.0362ZM110.309 23.2853C110.231 23.2649 110.076 23.309 109.878 23.4306C109.386 23.7344 108.815 24.3929 108.382 25.2098C108.359 25.2518 108.326 25.2841 108.287 25.3052L108.283 25.3069L108.269 25.3323C108.202 25.4498 108.125 25.5714 108.04 25.6966C107.87 25.9451 107.667 26.2052 107.439 26.4729C107.192 26.7619 106.929 27.0448 106.665 27.3101L106.597 27.378C106.542 27.4333 106.489 27.485 106.439 27.5327L106.364 27.6043L106.311 27.654C106.217 27.7412 106.069 27.7358 105.982 27.6419C105.894 27.548 105.899 27.4011 105.994 27.3139L106.056 27.2552L106.143 27.1714C106.202 27.1142 106.266 27.0514 106.333 26.9838C106.589 26.7264 106.845 26.4519 107.083 26.1726C107.301 25.9167 107.494 25.6693 107.653 25.4357C107.732 25.3202 107.803 25.209 107.863 25.1038L107.943 24.9638C108.135 24.6327 108.525 23.9668 108.607 23.8135L108.636 23.7584C108.697 23.6431 108.738 23.5535 108.761 23.4865L108.766 23.4684L108.761 23.4674C108.749 23.4652 108.737 23.4632 108.723 23.4615L108.703 23.4592C108.603 23.4495 108.482 23.4561 108.36 23.4803C108.076 23.5366 107.828 23.6752 107.668 23.8886L107.662 23.8966L107.654 23.9142C107.622 23.9806 107.586 24.0487 107.545 24.1182L107.523 24.1557L107.514 24.173C107.463 24.2705 107.404 24.3665 107.338 24.4581L107.319 24.483C106.77 25.2092 105.578 26.4089 105.29 26.5113C105.048 26.5972 104.867 26.2897 105.053 26.1222L105.066 26.1111L105.162 26.0308L105.223 25.9782C105.286 25.9238 105.354 25.8642 105.426 25.8C105.7 25.5554 105.974 25.2946 106.229 25.029C106.467 24.7821 106.675 24.5435 106.847 24.3185C106.942 24.1948 107.024 24.0767 107.094 23.965L107.106 23.944L107.108 23.9405C107.224 23.7097 107.275 23.4867 107.238 23.391L107.232 23.379L107.231 23.3785C107.21 23.3718 107.169 23.3721 107.106 23.3874C106.919 23.4332 106.639 23.5885 106.283 23.859L106.033 24.0578C105.993 24.0888 105.953 24.121 105.91 24.1542L105.699 24.3199C105.522 24.4576 105.346 24.5938 105.174 24.7251L105.017 24.8442L104.845 24.9739C104.43 25.2843 104.102 25.5161 103.886 25.6475C103.87 25.6572 103.853 25.6649 103.836 25.6706L103.794 25.684C103.767 25.6932 103.735 25.7037 103.701 25.7156L103.674 25.7247C103.543 25.7697 103.398 25.8222 103.241 25.8818C102.793 26.0518 102.345 26.2437 101.928 26.4529C101.119 26.8587 100.53 27.2793 100.265 27.6801C99.8409 28.3283 97.6141 33.7641 94.9577 40.4947C94.8974 40.6476 94.7008 40.6914 94.5805 40.5789L93.9547 39.9925C93.1138 39.2037 92.2491 38.3896 91.3908 37.5792L89.752 36.0288L78.1809 38.487L78.3534 38.6672C78.5918 38.9143 78.9121 39.2396 79.3264 39.6542L79.5996 39.927C81.3173 41.6379 84.0866 44.3297 88.1396 48.2123L88.2667 48.334C90.5625 50.5335 92.5851 51.8616 94.3242 52.3966C95.821 52.8571 97.069 52.7184 98.0674 52.0737C98.0756 52.0683 98.0843 52.0635 98.0931 52.0592C99.0681 51.5919 100.034 50.2743 100.176 49.27L100.181 49.2301L103.199 30.5491C103.213 30.4653 103.271 30.3956 103.352 30.3672C104.944 29.8047 106.175 29.1448 107.056 28.4407C107.48 28.0992 108.236 27.1014 109.038 25.8631L109.096 25.7732C109.437 25.2435 109.756 24.7151 109.996 24.2854L110.023 24.2363C110.142 24.0213 110.237 23.839 110.301 23.7006L110.321 23.6573C110.342 23.6089 110.359 23.5679 110.371 23.5352L110.382 23.5025C110.384 23.4977 110.385 23.497 110.385 23.502C110.383 23.3481 110.353 23.2966 110.309 23.2853Z" fill="#2E186A"/>
<path fill-rule="evenodd" clip-rule="evenodd" d="M94.733 40.4021C94.733 40.4021 91.7924 45.3837 93.4727 48.0524L94.733 40.4021Z" fill="white"/>
<path fill-rule="evenodd" clip-rule="evenodd" d="M94.8511 40.2021C94.9581 40.2646 94.9966 40.3988 94.941 40.5073L94.8955 40.5871C94.8848 40.606 94.8732 40.6267 94.8607 40.6491L94.8199 40.7231C94.7782 40.7996 94.7335 40.8833 94.6864 40.9738L94.6626 41.0197C94.457 41.4179 94.2513 41.8564 94.0594 42.3215C93.6663 43.2741 93.3835 44.2105 93.258 45.0819C93.0918 46.2363 93.2136 47.2038 93.6705 47.9295C93.7389 48.0381 93.7058 48.1813 93.5965 48.2493C93.4873 48.3173 93.3433 48.2844 93.2749 48.1757C92.7507 47.3432 92.6155 46.2695 92.796 45.0161C92.9275 44.1021 93.221 43.1306 93.6276 42.1453C93.8248 41.6674 94.036 41.2171 94.2474 40.8077L94.296 40.7143C94.3437 40.6232 94.389 40.539 94.4314 40.4623L94.4999 40.3399L94.5317 40.2848C94.5969 40.1743 94.7399 40.1373 94.8511 40.2021Z" fill="#2E186A"/>
<path fill-rule="evenodd" clip-rule="evenodd" d="M44.09 35.4438C44.09 35.4438 40.8616 34.6161 39.0101 32.9066C37.9055 31.8855 36.4896 30.5009 36.513 30.0445C36.5519 29.1936 38.3644 30.4777 38.6601 30.6556" fill="white"/>
<path fill-rule="evenodd" clip-rule="evenodd" d="M38.5392 30.8541L38.5065 30.8325C38.3945 30.7602 38.0352 30.5311 37.8521 30.423L37.8396 30.4156C37.7205 30.3458 37.6072 30.2831 37.4997 30.2281C37.2324 30.0914 37.0124 30.0086 36.864 29.9912L36.8465 29.9895C36.7538 29.9816 36.7496 29.9815 36.7464 30.0473L36.746 30.0562C36.7322 30.3273 37.7063 31.3845 39.1689 32.7365C39.6645 33.1941 40.2939 33.6157 41.0258 33.9996C41.7085 34.3577 42.4417 34.6636 43.175 34.9172C43.4104 34.9986 43.6302 35.0691 43.8297 35.1287L43.8836 35.1447C43.9368 35.1604 43.9856 35.1744 44.0299 35.1869L44.1482 35.2191C44.273 35.2511 44.3481 35.3776 44.3159 35.5017C44.2849 35.6214 44.1655 35.6951 44.0451 35.6715L44.0116 35.6632L43.9566 35.6484C43.8971 35.6321 43.8283 35.6125 43.751 35.5897C43.5307 35.5248 43.2856 35.4468 43.0217 35.3556C42.2677 35.0949 41.5135 34.7802 40.8081 34.4101C40.0424 34.0086 39.3801 33.5649 38.8512 33.0765L38.7012 32.9374C37.107 31.4552 36.2552 30.5155 36.2798 30.0339C36.2961 29.6774 36.5419 29.4977 36.8864 29.527C37.1106 29.5462 37.3852 29.6476 37.7132 29.8154C37.8127 29.8663 37.9158 29.9228 38.0228 29.9845L38.0766 30.0158C38.1955 30.0855 38.3911 30.2079 38.5464 30.3064L38.7809 30.457C38.8911 30.5234 38.9264 30.6661 38.8597 30.7757C38.7929 30.8854 38.6494 30.9204 38.5392 30.8541Z" fill="#2E186A"/>
<path fill-rule="evenodd" clip-rule="evenodd" d="M41.9275 32.8446C41.9275 32.8446 40.4883 31.7926 39.7726 30.8102C39.0569 29.82 38.4968 29.1857 38.6524 29.0155C38.808 28.8376 39.7104 28.7448 40.2083 29.3172C40.8228 30.3306 42.7287 31.5605 42.7287 31.5605C42.5031 31.5141 41.2196 30.493 40.5972 29.8355C39.9827 29.178 39.7648 28.0254 41.5152 29.0619C41.5152 29.0619 43.3744 30.23 44.0746 30.5549C44.0746 30.5549 47.0851 31.1428 47.9875 32.2257C48.6021 32.9529 52.3595 39.9225 54.7477 44.3936C56.9803 41.7635 59.1041 39.234 59.1041 39.234L71.4031 40.4253C71.4031 40.4253 70.8507 41.3458 62.2625 51.6803C57.9216 56.9017 54.7555 57.5902 52.6706 56.5614C51.5349 56.1669 50.3757 54.8673 50.1268 53.8308L45.0003 35.6061C43.1722 35.1807 41.8808 34.6237 41.0329 34.0822C39.9282 33.3783 37.0966 29.7659 37.0577 29.3791C36.9488 28.358 38.5046 28.9923 39.6637 30.6941" fill="white"/>
<path fill-rule="evenodd" clip-rule="evenodd" d="M44.8122 35.8003L44.7823 35.7932C43.1479 35.399 41.8419 34.8749 40.9067 34.2777C39.879 33.6228 36.8814 29.9607 36.8253 29.4037C36.7498 28.6957 37.2972 28.4838 37.9844 28.8057C38.102 28.8608 38.2232 28.9295 38.3463 29.0105L38.3929 29.0417L38.3933 29.0387C38.4008 28.9803 38.4234 28.926 38.4644 28.8767L38.4761 28.8633C38.6206 28.6981 38.9644 28.6235 39.3216 28.6539C39.5334 28.6719 39.7376 28.7251 39.9224 28.8145L39.9273 28.817L39.9278 28.8138C39.9318 28.7933 39.9369 28.7733 39.9431 28.7539L39.9496 28.7346C40.0378 28.4922 40.2722 28.3843 40.5762 28.4229C40.844 28.4569 41.194 28.6019 41.6396 28.8658L41.8235 28.9806C41.8891 29.0213 41.9597 29.065 42.0343 29.111L42.2909 29.2685C42.5049 29.3992 42.7184 29.5282 42.9247 29.6508L43.13 29.7721C43.564 30.0268 43.9096 30.2186 44.1326 30.3256L44.1481 30.333L44.274 30.3597L44.3038 30.3662C44.4486 30.3982 44.6096 30.4362 44.783 30.4803C45.2787 30.6064 45.7746 30.7559 46.239 30.9288C47.1312 31.2611 47.8008 31.6383 48.1659 32.0765C48.6624 32.6639 50.973 36.8495 54.3113 43.0839L54.7916 43.9817L55.5442 43.0937C56.0192 42.5326 56.5006 41.9629 56.9818 41.3927L58.2358 39.9047L58.9247 39.0854C58.9708 39.0304 59.0397 38.9999 59.1111 39.0022L59.1264 39.0031L71.4254 40.1944C71.5958 40.2109 71.6909 40.3981 71.6032 40.5443L71.5867 40.5701C71.5585 40.6126 71.5044 40.6884 71.413 40.8111L71.3694 40.8695C71.1456 41.1676 70.7992 41.6132 70.3045 42.2355L69.9524 42.6769C68.4136 44.6002 65.9749 47.5771 62.4421 51.8283C60.3659 54.3256 58.4545 55.9175 56.7141 56.6773C55.1763 57.3486 53.7925 57.359 52.6061 56.7886L52.5794 56.7756L52.5579 56.7679C51.396 56.3465 50.195 55.0398 49.9081 53.919L49.9018 53.8934L44.8122 35.8003ZM37.2878 29.3373L37.2895 29.3539C37.2898 29.3494 37.2954 29.3642 37.3067 29.3875C37.3238 29.4229 37.3489 29.4685 37.3814 29.5227L37.3939 29.5435C37.4729 29.6736 37.5872 29.8439 37.73 30.044L37.7961 30.136C38.0555 30.4946 38.3841 30.9208 38.7345 31.3526L38.8264 31.4653C39.7883 32.6405 40.6864 33.5861 41.1587 33.887C42.0773 34.4737 43.3906 34.9933 45.0532 35.3802C45.1312 35.3984 45.1941 35.4549 45.2203 35.5295L45.2248 35.5437L50.3513 53.7683L50.3536 53.777C50.5901 54.7619 51.7118 55.9827 52.7473 56.3424C52.7565 56.3456 52.7654 56.3493 52.7741 56.3536C53.8413 56.8802 55.0944 56.8775 56.5265 56.2523C58.1748 55.5327 60.0117 54.0094 62.0214 51.6057L63.1723 50.2195C66.1216 46.6626 68.2136 44.1046 69.5868 42.3883L69.9715 41.9059C70.3578 41.4197 70.6505 41.045 70.8624 40.7673L70.9762 40.6171L59.2039 39.4769L57.9417 40.9767L57.1807 41.879C56.419 42.7814 55.6585 43.6802 54.9258 44.5433C54.8192 44.6689 54.6188 44.6476 54.5413 44.5025L53.9007 43.3046C50.6141 37.1674 48.2717 32.9231 47.8076 32.3739C47.507 32.0131 46.8969 31.6695 46.0753 31.3635C45.6283 31.197 45.148 31.0522 44.6674 30.9299C44.499 30.8871 44.3428 30.8502 44.2028 30.8193L44.0965 30.7964L44.0293 30.7827C44.0108 30.779 43.9927 30.7732 43.9756 30.7652C43.7304 30.6515 43.3437 30.4372 42.8494 30.1462L42.6853 30.0492C42.4356 29.9008 42.1758 29.7435 41.9174 29.5849L41.6164 29.3991L41.3955 29.2614C41.0053 29.0303 40.7092 28.9077 40.5171 28.8833C40.4116 28.8699 40.3938 28.8781 40.3886 28.8924C40.3534 28.9892 40.4348 29.2224 40.5895 29.4526L40.6026 29.4718L40.6166 29.4893C40.6443 29.5234 40.6734 29.5581 40.704 29.5932L40.7351 29.6285C40.9452 29.8649 41.2129 30.1173 41.5244 30.3784C41.8154 30.6223 42.1281 30.8603 42.4408 31.0822L42.5214 31.139C42.574 31.1759 42.6246 31.2108 42.6727 31.2436L42.7792 31.3156L42.8555 31.3659C43.0721 31.5056 42.934 31.8398 42.6812 31.7878C42.3809 31.726 41.0621 30.6655 40.426 29.9935C40.3557 29.9183 40.2906 29.8386 40.2321 29.7566L40.2178 29.7363L40.1898 29.7004C40.1307 29.6234 40.0777 29.548 40.031 29.474L40.0201 29.4564L40.0124 29.4478C39.8375 29.259 39.5885 29.1488 39.3126 29.1192L39.2819 29.1163C39.158 29.1058 39.0379 29.1128 38.9406 29.1339C38.9201 29.1384 38.9012 29.1433 38.8844 29.1486L38.8809 29.1497L38.882 29.1523C38.9116 29.2176 38.9643 29.3065 39.0427 29.4225L39.0778 29.4739C39.1936 29.6413 39.8123 30.4679 39.9614 30.6741C40.0028 30.7309 40.0475 30.789 40.0954 30.8484C40.2896 31.0886 40.5326 31.3445 40.8132 31.6092C41.0871 31.8675 41.3812 32.12 41.6754 32.3559C41.7526 32.4178 41.8257 32.4752 41.8935 32.5276L41.9937 32.6041L42.0655 32.6577C42.1693 32.7336 42.1916 32.8788 42.1153 32.9821C42.0389 33.0854 41.8928 33.1075 41.789 33.0316L41.7281 32.9863L41.6758 32.9467C41.5872 32.8792 41.4885 32.8023 41.3824 32.7172C41.0791 32.474 40.7758 32.2136 40.492 31.9459C40.1972 31.6679 39.9403 31.3974 39.7315 31.139C39.692 31.0901 39.6544 31.0418 39.6183 30.9937L39.5455 30.8943L39.5392 30.8907C39.5164 30.8765 39.4958 30.8581 39.4786 30.8358L39.4702 30.8243C38.9501 30.0607 38.3099 29.4712 37.7855 29.2255C37.576 29.1274 37.4161 29.1015 37.3403 29.1308C37.2994 29.1466 37.2753 29.1976 37.2878 29.3373Z" fill="#2E186A"/>
<path fill-rule="evenodd" clip-rule="evenodd" d="M54.7476 44.3936C54.7476 44.3936 58.2327 49.0116 56.8791 51.8505L54.7476 44.3936Z" fill="white"/>
<path fill-rule="evenodd" clip-rule="evenodd" d="M54.6075 44.2081C54.7106 44.1312 54.8569 44.1519 54.9342 44.2544L54.9635 44.2939C54.9865 44.3253 55.0131 44.3621 55.043 44.4041L55.0952 44.4779C55.1662 44.5791 55.243 44.6916 55.3243 44.8146C55.6146 45.2531 55.9048 45.7345 56.1758 46.2444C56.7077 47.2453 57.0999 48.2309 57.2932 49.1598C57.5143 50.2216 57.4647 51.164 57.0899 51.9501C57.0347 52.0659 56.8955 52.1152 56.7791 52.0603C56.6626 52.0054 56.613 51.867 56.6682 51.7512C56.994 51.068 57.0383 50.2249 56.8362 49.2539C56.6529 48.3735 56.2762 47.4267 55.7631 46.4613C55.4995 45.9653 55.2169 45.4965 54.9345 45.0698L54.8697 44.9727C54.8061 44.8781 54.7459 44.7908 54.6898 44.7113L54.6294 44.6266L54.5609 44.533C54.4835 44.4305 54.5044 44.285 54.6075 44.2081Z" fill="#2E186A"/>
<path fill-rule="evenodd" clip-rule="evenodd" d="M84.4953 32.1873C88.486 33.394 93.6826 39.0718 93.6826 39.0718L86.0667 47.3642L89.3495 68.7449L62.091 68.9305L63.8335 55.0919C63.8335 55.0919 60.9085 52.6165 60.9474 49.2826C60.9863 45.9486 61.1108 46.0801 61.1108 46.0801L57.1045 41.1913C57.1045 41.1913 60.2862 35.6759 63.6624 34.3996C67.0386 33.1232 80.6679 31.0269 84.4953 32.1873Z" fill="#6A6AF4"/>
<path fill-rule="evenodd" clip-rule="evenodd" d="M68.7424 30.5395L68.9758 33.1618L67.3888 33.564C66.7198 33.974 66.3931 38.9788 71.3096 38.476C76.226 37.9732 79.0032 34.8094 79.68 32.0247L77.5018 32.1253L76.1171 25.5347L68.7424 30.5395Z" fill="white"/>
<path fill-rule="evenodd" clip-rule="evenodd" d="M68.6109 30.3479L68.5982 30.3572C68.5365 30.4054 68.503 30.4816 68.51 30.56L68.7258 32.9857L67.3312 33.3392C67.3083 33.345 67.2865 33.3542 67.2664 33.3666C66.7464 33.6852 66.6023 35.2469 67.0351 36.4411C67.617 38.0466 69.0523 38.9403 71.3335 38.707C73.6921 38.4657 75.6981 37.6094 77.2376 36.2815C78.6025 35.1042 79.5376 33.5988 79.9069 32.0793L79.9098 32.0656C79.9362 31.9204 79.8199 31.786 79.6693 31.793L77.6896 31.8843L76.3456 25.4873C76.3116 25.3254 76.123 25.2498 75.9856 25.3431L68.6109 30.3479ZM75.9601 25.9222L77.2734 32.1728L77.2768 32.1865C77.3053 32.2907 77.403 32.3622 77.5127 32.3571L79.372 32.2712L79.3626 32.3031C78.9669 33.6145 78.1234 34.9031 76.9318 35.9309C75.4651 37.1959 73.5493 38.0138 71.2857 38.2453C69.2175 38.4568 67.9832 37.6883 67.4742 36.2837C67.2788 35.7445 67.2101 35.1401 67.2602 34.5965C67.2819 34.3615 67.3254 34.1519 67.3832 33.9921L67.3907 33.9717C67.4261 33.8787 67.4633 33.8131 67.4906 33.781L67.4942 33.7769L69.0335 33.3867L69.0471 33.3828C69.1504 33.35 69.2179 33.25 69.2083 33.1414L68.9869 30.6545L75.9601 25.9222Z" fill="#2E186A"/>
<path fill-rule="evenodd" clip-rule="evenodd" d="M76.1406 23.245L76.8174 23.3765C76.8174 23.3765 80.7537 23.8329 80.5281 20.2514C80.357 17.5285 77.6654 17.6987 76.374 17.9308" fill="white"/>
<path fill-rule="evenodd" clip-rule="evenodd" d="M76.3325 17.7025C77.2738 17.5334 78.1746 17.5209 78.9415 17.7618C80.0186 18.1001 80.6775 18.9074 80.7611 20.237C80.8691 21.9522 80.0896 22.9717 78.7496 23.4047C78.1267 23.6059 77.4784 23.654 76.9156 23.6176L76.8624 23.6138C76.8307 23.6113 76.8065 23.609 76.7904 23.6071L76.7815 23.6059L76.7727 23.6044L76.0959 23.4729C75.9694 23.4483 75.8869 23.3264 75.9116 23.2006C75.9354 23.0793 76.0503 22.9987 76.1719 23.0151L76.1854 23.0174L76.8524 23.1469L76.8769 23.1493C76.8912 23.1505 76.9088 23.1519 76.9297 23.1534L76.9459 23.1545C77.4548 23.1874 78.0478 23.1434 78.6054 22.9633C79.7518 22.5929 80.3893 21.7591 80.2952 20.266C80.2239 19.1312 79.6971 18.4859 78.8009 18.2044C78.1209 17.9908 77.2888 18.0023 76.4155 18.1592C76.2887 18.182 76.1673 18.0983 76.1444 17.9721C76.1214 17.846 76.2057 17.7253 76.3325 17.7025Z" fill="#2E186A"/>
<path fill-rule="evenodd" clip-rule="evenodd" d="M62.1069 21.7367C62.2314 23.3689 63.6705 30.8104 68.9449 30.7562C74.2192 30.7021 77.1831 25.5812 77.152 20.6692C77.1209 15.7572 74.4604 11.9746 71.1231 11.9359C67.7858 11.8972 61.1967 9.89376 62.1069 21.7367Z" fill="white"/>
<path fill-rule="evenodd" clip-rule="evenodd" d="M67.4878 11.5673C65.6256 11.6618 64.2298 12.2499 63.2464 13.5906C62.0723 15.1913 61.5839 17.7989 61.8653 21.6377L61.874 21.7542C61.978 23.1183 62.5224 25.2656 63.3858 26.9826C64.6607 29.518 66.4968 31.0134 68.9471 30.9882C71.5202 30.9618 73.6933 29.7582 75.2262 27.6713C76.6286 25.7621 77.4013 23.2182 77.3852 20.6677C77.3535 15.6682 74.6293 11.7445 71.1256 11.7038L70.9474 11.7005C70.783 11.6961 70.6148 11.6874 70.3374 11.669L69.5334 11.6132C68.6362 11.5525 68.0954 11.5365 67.4878 11.5673ZM70.3123 12.1325C70.6939 12.1577 70.8738 12.1651 71.1202 12.1679C74.3256 12.2051 76.8882 15.8961 76.9184 20.6707C76.934 23.1246 76.1908 25.5713 74.8493 27.3975C73.4001 29.3705 71.362 30.4993 68.9423 30.5241C66.7002 30.5472 65.0063 29.1676 63.8032 26.775C62.9795 25.1367 62.4527 23.0798 62.3435 21.7697L62.3394 21.719C62.0472 17.9163 62.5143 15.3762 63.6235 13.8641C64.5036 12.6643 65.7517 12.1299 67.4581 12.0337L67.5116 12.0308C68.0965 12.0011 68.6234 12.0168 69.5043 12.0764L70.3123 12.1325Z" fill="#2E186A"/>
<rect width="1.88921" height="3.32054" transform="matrix(0.944974 0.327147 -0.330459 0.94382 76.876 5.45068)" fill="#FF8D7E"/>
<path fill-rule="evenodd" clip-rule="evenodd" d="M78.8246 6.64481C80.6677 6.64481 82.1619 5.15907 82.1619 3.32631C82.1619 1.49355 80.6677 0.0078125 78.8246 0.0078125C76.9815 0.0078125 75.4873 1.49355 75.4873 3.32631C75.4873 5.15907 76.9815 6.64481 78.8246 6.64481Z" fill="#2E186A"/>
<path fill-rule="evenodd" clip-rule="evenodd" d="M75.9231 7.54982C72.9592 6.61383 69.7775 6.18065 66.9769 7.28681C58.4898 11.1004 58.4742 17.4666 62.0371 20.3597C61.9048 15.8499 63.0095 13.6685 64.5654 12.6397C66.269 15.3394 71.7689 17.6755 76.8021 17.7296C76.8099 17.776 76.8255 17.8225 76.8332 17.8611C78.2179 17.691 80.3884 17.8147 80.5362 20.2514C80.7462 23.6086 77.3078 23.4229 76.8721 23.3842C76.8177 23.6472 76.1098 26.053 76.1098 26.053L76.8721 29.4952L88.0665 27.7625C88.7433 27.747 89.21 27.0818 88.9922 26.4475C87.6464 22.4637 85.4527 10.6904 75.9231 7.54982Z" fill="#2E186A"/>
<path fill-rule="evenodd" clip-rule="evenodd" d="M69.6747 25.2715L69.6488 25.2719L69.5913 25.2745L69.5527 25.2767C69.4693 25.2818 69.3674 25.2894 69.258 25.299C68.9593 25.3254 68.6521 25.3624 68.3655 25.4103C67.9935 25.4726 67.6805 25.5489 67.4434 25.6429C67.104 25.7774 66.8989 25.9523 66.8989 26.2155C66.8989 26.6776 67.5735 27.0748 68.2494 27.0838C69.0649 27.0945 69.7039 26.5761 69.9052 25.5482C69.9081 25.5336 69.9095 25.5187 69.9095 25.5038L69.8942 25.4448C69.8721 25.3628 69.8637 25.3561 69.8132 25.316L69.7816 25.2972C69.7692 25.2902 69.7641 25.2884 69.75 25.2837L69.7207 25.2759C69.7164 25.275 69.7133 25.2746 69.7076 25.2738L69.6866 25.2718L69.6747 25.2715ZM69.37 25.7552L69.3636 25.7744C69.1609 26.3616 68.762 26.6264 68.2556 26.6197C68.018 26.6165 67.7761 26.5483 67.5918 26.4398L67.5736 26.4288C67.4487 26.3518 67.3786 26.271 67.3673 26.227L67.3663 26.2223L67.3701 26.2174C67.3752 26.2111 67.3829 26.2032 67.3935 26.1942C67.4383 26.156 67.5139 26.1146 67.6162 26.074C67.8167 25.9945 68.1007 25.9253 68.4429 25.868C68.7163 25.8223 69.0118 25.7867 69.2993 25.7613L69.37 25.7552Z" fill="#2E186A"/>
<path fill-rule="evenodd" clip-rule="evenodd" d="M66.2109 17.5753C66.335 17.5817 66.4314 17.6834 66.4322 17.8054L66.4318 17.819L66.1194 23.8161L67.4148 23.6568C67.5381 23.6416 67.6509 23.725 67.673 23.8451L67.6751 23.8586C67.6903 23.9812 67.6064 24.0933 67.4857 24.1153L67.4721 24.1174L65.9007 24.3108C65.7613 24.3279 65.6396 24.2199 65.6387 24.0823L65.639 24.0684L65.9657 17.795C65.9721 17.6716 66.0744 17.5757 66.1971 17.575L66.2109 17.5753Z" fill="#2E186A"/>
<path fill-rule="evenodd" clip-rule="evenodd" d="M62.8168 18.0867C63.0855 18.0404 63.3647 18.0644 63.6349 18.1315C63.7383 18.1573 63.8178 18.1835 63.8657 18.2024C63.9855 18.2498 64.044 18.3847 63.9964 18.5038C63.9505 18.6187 63.8227 18.6769 63.7062 18.6384L63.6708 18.6256C63.6653 18.6237 63.6589 18.6215 63.6516 18.6191C63.6135 18.6065 63.5698 18.5938 63.5216 18.5818C63.3094 18.529 63.0919 18.5103 62.8966 18.544C62.6357 18.589 62.4413 18.7222 62.3167 18.9762C62.2602 19.0914 62.1205 19.1393 62.0047 19.0831C61.8888 19.0269 61.8407 18.888 61.8972 18.7728C62.0908 18.3779 62.4147 18.1561 62.8168 18.0867Z" fill="#2E186A"/>
<path fill-rule="evenodd" clip-rule="evenodd" d="M71.0064 18.7585C71.0064 18.7585 69.0928 19.037 68.8594 17.7993L71.0064 18.7585Z" fill="white"/>
<path fill-rule="evenodd" clip-rule="evenodd" d="M68.8164 17.5712C68.9431 17.5475 69.065 17.6305 69.0888 17.7565C69.1649 18.16 69.4713 18.3935 69.9692 18.4972C70.2598 18.5578 70.5747 18.5651 70.8617 18.5406L70.9068 18.5365L70.9462 18.5322C70.96 18.5305 70.969 18.5294 70.9727 18.5288C71.1002 18.5103 71.2187 18.598 71.2374 18.7248C71.256 18.8516 71.1678 18.9695 71.0403 18.9881L71.0063 18.9925C70.9794 18.9958 70.9442 18.9994 70.9016 19.0031C70.573 19.031 70.2155 19.0228 69.8735 18.9515C69.2093 18.8132 68.7466 18.4605 68.63 17.842C68.6063 17.716 68.6897 17.5948 68.8164 17.5712Z" fill="#2E186A"/>
<path fill-rule="evenodd" clip-rule="evenodd" d="M70.2425 20.8736C70.527 20.8295 70.7018 20.4379 70.633 19.9989C70.5643 19.5599 70.278 19.2397 69.9935 19.2838C69.7091 19.3278 69.5343 19.7194 69.603 20.1584C69.6718 20.5975 69.9581 20.9176 70.2425 20.8736Z" fill="#2E186A"/>
<path fill-rule="evenodd" clip-rule="evenodd" d="M64.4554 21.9095C64.7399 21.8654 64.9147 21.4738 64.8459 21.0348C64.7772 20.5958 64.4908 20.2756 64.2064 20.3197C63.922 20.3637 63.7472 20.7553 63.8159 21.1943C63.8847 21.6333 64.171 21.9535 64.4554 21.9095Z" fill="#2E186A"/>
<path fill-rule="evenodd" clip-rule="evenodd" d="M70.3902 14.478C68.4346 14.7714 67.1909 17.0483 67.5725 19.5428C67.9541 22.0373 69.8229 23.8471 71.7785 23.5536C73.7341 23.2601 74.9778 20.9833 74.5962 18.4888C74.2146 15.9943 72.3458 14.1845 70.3902 14.478ZM70.4604 14.9372C72.1292 14.6867 73.7887 16.2938 74.135 18.558C74.4814 20.8222 73.377 22.844 71.7083 23.0944C70.0395 23.3448 68.38 21.7378 68.0337 19.4736C67.6873 17.2094 68.7916 15.1876 70.4604 14.9372Z" fill="#FF8D7E"/>
<path fill-rule="evenodd" clip-rule="evenodd" d="M61.4048 16.0639C59.4493 16.3574 58.2056 18.6342 58.5872 21.1287C58.9688 23.6232 60.8376 25.433 62.7932 25.1395C64.7487 24.8461 65.9924 22.5692 65.6108 20.0747C65.2292 17.5802 63.3604 15.7704 61.4048 16.0639ZM61.4751 16.5231C63.1439 16.2727 64.8033 17.8797 65.1497 20.1439C65.496 22.4081 64.3917 24.4299 62.7229 24.6803C61.0541 24.9308 59.3947 23.3237 59.0483 21.0595C58.702 18.7953 59.8063 16.7735 61.4751 16.5231Z" fill="#FF8D7E"/>
<path fill-rule="evenodd" clip-rule="evenodd" d="M67.6678 18.8238C67.7948 18.8019 67.9156 18.8865 67.9377 19.0127C67.9589 19.1345 67.8806 19.2506 67.7611 19.2783L67.7476 19.2811L65.2816 19.7065C65.1546 19.7284 65.0338 19.6438 65.0118 19.5175C64.9905 19.3958 65.0689 19.2797 65.1884 19.2519L65.2018 19.2492L67.6678 18.8238Z" fill="#FF8D7E"/>
<path fill-rule="evenodd" clip-rule="evenodd" d="M74.3588 17.4285L77.4783 17.6296C77.6069 17.6379 77.7044 17.7483 77.6961 17.8762C77.6881 17.9995 77.5845 18.0941 77.4618 18.0932L77.4481 18.0928L74.3286 17.8916C74.2 17.8833 74.1025 17.7729 74.1108 17.645C74.1189 17.5217 74.2224 17.4272 74.3451 17.428L74.3588 17.4285Z" fill="#FF8D7E"/>
<path fill-rule="evenodd" clip-rule="evenodd" d="M117.736 68.5901C117.865 68.5901 117.97 68.694 117.97 68.8222C117.97 68.9457 117.872 69.0468 117.75 69.0538L117.736 69.0542H0.954081C0.82519 69.0542 0.720703 68.9503 0.720703 68.8222C0.720703 68.6986 0.81786 68.5975 0.940368 68.5905L0.954081 68.5901H117.736Z" fill="#2E186A"/>
</svg>
