<svg width="161" height="42" viewBox="0 0 161 42" fill="none" xmlns="http://www.w3.org/2000/svg">
<path d="M49.8424 30.111H53.9304V20.843C53.9304 19.387 55.2464 18.687 56.3664 18.687C57.4444 18.687 58.6624 19.387 58.6624 20.703V30.111H62.7364V20.843C62.7364 19.303 64.1084 18.687 65.1864 18.687C66.3484 18.687 67.5104 19.317 67.5104 21.067V30.111H71.5984V20.563C71.5984 16.657 69.0224 15.355 66.8664 15.355C64.9904 15.355 63.4224 16.363 62.4844 17.679C61.6304 16.153 59.9084 15.355 58.4244 15.355C56.1564 15.355 54.7144 16.405 53.8464 17.679V15.635H49.8424V30.111ZM79.1053 30.391C81.1353 30.391 82.6053 29.719 83.5993 27.619L83.9353 30.111H87.3513V19.933C87.3513 17.091 85.6573 15.355 81.2333 15.355C77.6073 15.355 74.9893 16.811 74.8353 19.947H78.2373C78.6433 18.617 79.8473 18.127 81.0373 18.113C82.6753 18.099 83.4313 18.841 83.4313 20.171V21.039L81.6113 21.067C76.5013 21.123 74.2193 22.803 74.2193 25.967C74.2193 28.795 76.3473 30.391 79.1053 30.391ZM80.4913 27.703C79.1473 27.703 78.0973 26.905 78.0973 25.561C78.0973 23.797 79.9173 23.195 81.9613 23.167L83.4313 23.139V25.281C83.4173 26.527 81.9613 27.703 80.4913 27.703ZM98.9104 18.477V15.621H95.6904V11.267H92.7784L91.7424 15.635H89.2644V18.477H91.6164V26.359C91.6164 28.683 92.5964 30.265 96.4184 30.265C97.8324 30.265 98.5604 30.083 98.9524 29.915V27.395H97.0064C96.1104 27.395 95.7184 27.255 95.7184 26.191L95.6904 18.477H98.9104ZM107.658 15.355C103.444 15.355 100.672 18.435 100.672 22.929C100.672 27.563 103.626 30.391 107.658 30.391C111.2 30.391 113.538 28.053 113.72 25.057H110.402C110.234 26.051 109.422 27.493 107.77 27.493C105.698 27.493 104.48 25.729 104.48 22.901C104.48 19.919 105.782 18.463 107.686 18.463C109.366 18.463 110.178 19.765 110.36 20.913H113.762C113.538 17.805 111.284 15.355 107.658 15.355ZM116.589 30.111H120.677V20.871C120.677 19.443 121.993 18.715 123.337 18.715C124.667 18.715 125.759 19.429 125.759 20.745V30.111H129.861V20.143C129.861 17.217 127.565 15.551 124.807 15.551C122.511 15.551 121.349 16.727 120.649 17.721V9.30702H116.589V30.111ZM137.375 30.391C139.405 30.391 140.875 29.719 141.869 27.619L142.205 30.111H145.621V19.933C145.621 17.091 143.927 15.355 139.503 15.355C135.877 15.355 133.259 16.811 133.105 19.947H136.507C136.913 18.617 138.117 18.127 139.307 18.113C140.945 18.099 141.701 18.841 141.701 20.171V21.039L139.881 21.067C134.771 21.123 132.489 22.803 132.489 25.967C132.489 28.795 134.617 30.391 137.375 30.391ZM138.761 27.703C137.417 27.703 136.367 26.905 136.367 25.561C136.367 23.797 138.187 23.195 140.231 23.167L141.701 23.139V25.281C141.687 26.527 140.231 27.703 138.761 27.703Z" fill="#161717"/>
<g clip-path="url(#clip0)">
<path d="M11.5746 36.9578C11.5746 36.9578 11.5827 36.9497 11.607 36.9416C11.5664 36.7873 10.6811 32.9453 11.607 28.1529C12.2569 24.7658 13.8245 20.8914 17.2441 17.5205C18.43 16.3508 19.689 15.3924 20.9643 14.6288C18.8686 6.04326 11.5746 1.62457 11.5746 1.62457C11.5746 1.62457 1.62439 7.65153 1.62439 19.2993C1.62439 30.9309 11.5746 36.9578 11.5746 36.9578Z" fill="#00FFB0"/>
<path d="M37.3151 10.38C36.9772 10.3004 29.485 8.61661 21.9399 12.2572C19.201 4.43347 12.7135 0.416042 12.4162 0.235721C11.898 -0.0786232 11.249 -0.0761864 10.7332 0.236533C10.2954 0.50133 0 6.88243 0 19.2978C0 31.7043 10.2954 38.0845 10.734 38.3502C10.9103 38.4574 11.1019 38.5134 11.2969 38.5475C11.6486 38.6263 13.451 39.0008 16.047 39.0008C20.4202 39.0008 26.9913 37.9286 32.4473 32.5482C41.3423 23.7766 38.6432 12.0744 38.5238 11.5805C38.38 10.9843 37.913 10.5205 37.3151 10.38ZM3.24903 19.2978C3.24903 10.6732 9.31579 5.30503 11.5796 3.60253C13.3348 4.91189 17.3507 8.39486 19.0767 13.9109C19.0726 13.9133 19.0694 13.9166 19.0653 13.919C18.5967 14.2407 18.1459 14.5867 17.7032 14.9441C17.5927 15.0335 17.483 15.1244 17.3742 15.2154C16.9372 15.5834 16.5083 15.9619 16.1014 16.3639C15.7773 16.6831 15.4743 17.0072 15.1803 17.3338C15.0934 17.4304 15.0097 17.5279 14.9252 17.6254C14.7132 17.8699 14.5086 18.116 14.312 18.3637C14.2365 18.4587 14.1593 18.5538 14.0862 18.6496C13.8328 18.981 13.5883 19.3141 13.3616 19.6495C13.3413 19.6796 13.3227 19.7104 13.3024 19.7413C13.2764 19.7795 13.2536 19.8177 13.2284 19.8566V12.4001C13.2284 11.5034 12.5007 10.7756 11.6039 10.7756C10.7064 10.7756 9.97941 11.5034 9.97941 12.4001V15.6662L8.53846 14.2732C7.8919 13.6494 6.86277 13.6664 6.24139 14.3122C5.61677 14.9571 5.63464 15.9854 6.27957 16.6092L9.97941 20.1856V23.4988L8.63268 21.9571C8.04217 21.2813 7.0171 21.2123 6.3413 21.8028C5.6655 22.3933 5.59646 23.4192 6.18616 24.095L9.91524 28.3642C9.91199 28.3821 9.90874 28.4 9.9063 28.4179C9.89249 28.5007 9.87706 28.5844 9.86406 28.6664C9.81614 28.9734 9.7739 29.2756 9.73898 29.5729C9.73004 29.646 9.72354 29.7175 9.71542 29.7898C9.69024 30.0204 9.6675 30.2479 9.64882 30.4729C9.64069 30.5687 9.63338 30.6637 9.62689 30.7588C9.61145 30.9757 9.59927 31.1877 9.58952 31.3972C9.58627 31.4679 9.5814 31.5394 9.57896 31.6084C9.5684 31.8764 9.56272 32.1372 9.56109 32.3914C9.56028 32.4653 9.56109 32.5352 9.56109 32.6075C9.56109 32.7951 9.56272 32.9779 9.56678 33.1574C9.56759 33.198 9.56678 33.2419 9.5684 33.2825C6.87658 30.7076 3.24903 25.9973 3.24903 19.2978ZM30.1665 30.2349C24.89 35.4374 18.2019 35.8931 14.5857 35.6843C15.9097 33.9883 17.955 31.4914 20.4559 28.8289C21.4046 28.4398 24.6512 27.2116 28.628 26.8591C29.5215 26.7795 30.1819 25.9916 30.1023 25.0973C30.0235 24.2039 29.2535 23.5443 28.3405 23.6231C27.2846 23.7165 26.2814 23.8651 25.3457 24.0414C27.0515 22.5217 28.8538 21.075 30.705 19.8298C31.4498 19.3287 31.6472 18.3199 31.146 17.575C30.6465 16.831 29.6344 16.6328 28.892 17.1348C26.2002 18.9461 23.631 21.1213 21.3047 23.3412C21.2942 22.9944 21.2755 22.6378 21.2381 22.2642C21.1496 21.3723 20.3649 20.7193 19.4609 20.8086C18.5674 20.898 17.9168 21.6932 18.0053 22.5858C18.2498 25.0397 17.6885 26.7154 17.4798 27.2385C15.6002 29.2756 14.0025 31.1844 12.7923 32.6993C12.7923 32.6733 12.7906 32.6497 12.7906 32.6237C12.7906 32.5888 12.7914 32.5514 12.7914 32.5165C12.7914 32.2558 12.7971 31.9861 12.8077 31.7083C12.8093 31.6709 12.8093 31.6344 12.8109 31.5962C12.8231 31.3038 12.8442 31.0008 12.8702 30.6914C12.8751 30.6296 12.8808 30.5679 12.8873 30.5054C12.9165 30.1902 12.9523 29.8685 12.9986 29.5388C13.0034 29.503 13.0099 29.4665 13.0156 29.4307C13.0538 29.1668 13.1017 28.8963 13.1521 28.625C13.1862 28.5129 13.2081 28.3967 13.2171 28.2757C13.2829 27.9508 13.3592 27.621 13.4445 27.288C13.4624 27.219 13.4811 27.1499 13.4997 27.0809C13.5956 26.7251 13.7004 26.3661 13.8206 26.0038C13.8295 25.9754 13.8409 25.947 13.8506 25.9185C13.9668 25.5725 14.0976 25.2249 14.2389 24.8756C14.2633 24.8147 14.2868 24.7538 14.312 24.692C14.4614 24.333 14.6263 23.9732 14.805 23.6125C14.84 23.5427 14.8765 23.472 14.9122 23.4022C15.1015 23.0318 15.3029 22.6606 15.5255 22.2918C15.5344 22.2772 15.545 22.2626 15.5539 22.2479C15.7716 21.8897 16.0088 21.534 16.2598 21.1798C16.3053 21.1156 16.3491 21.0507 16.3962 20.9865C16.6537 20.6332 16.9291 20.2831 17.2231 19.9362C17.2784 19.8713 17.336 19.8063 17.3929 19.7413C17.7048 19.3831 18.0305 19.0273 18.3838 18.6789C18.9004 18.1696 19.4455 17.6912 20.0173 17.2469C20.0847 17.1941 20.1562 17.1469 20.2236 17.0958C20.4437 16.9293 20.6647 16.7627 20.8921 16.6068C21.1902 16.4021 21.4932 16.2064 21.8026 16.0203C21.8026 16.0203 21.8043 16.0195 21.8043 16.0187C27.2594 12.7185 33.2027 13.0621 35.546 13.3724C35.9294 16.1747 36.3551 24.1316 30.1665 30.2349Z" fill="#333333"/>
</g>
<path d="M54.5825 33.313H53.114L51.8875 36.9375H51.8435L50.6005 33.313H49.1485L51.2825 39H52.4485L54.5825 33.313ZM56.5997 36.525H60.4222V36.0905C60.4222 34.3855 59.5092 33.203 57.7712 33.203C56.0277 33.203 55.0102 34.512 55.0102 36.2225C55.0102 37.988 56.1652 39.11 57.8537 39.11C59.0362 39.11 60.2242 38.4115 60.4167 37.196H58.9702C58.8052 37.7295 58.3652 37.9495 57.8152 37.9495C57.0452 37.9495 56.5942 37.394 56.5997 36.525ZM56.5997 35.568C56.5942 34.941 57.0287 34.325 57.7657 34.325C58.5412 34.325 58.9207 34.8805 58.9207 35.568H56.5997ZM61.5791 39H63.1851V35.887C63.1851 35.1225 63.6691 34.6165 64.9341 34.7265C65.0111 34.732 65.1101 34.7375 65.1761 34.765V33.236C65.1321 33.214 65.0331 33.203 64.9286 33.203C64.0321 33.203 63.3941 33.7915 63.1246 34.6605V33.313H61.5791V39ZM68.3788 39.11C69.7978 39.11 70.7768 38.4665 70.7768 37.328C70.7768 36.811 70.5073 35.9805 69.2423 35.667L68.3183 35.458C67.6968 35.337 67.4163 35.1775 67.4163 34.8805C67.4163 34.479 67.8178 34.281 68.3678 34.281C68.9068 34.281 69.2863 34.5285 69.3688 34.9685H70.7108C70.6943 33.852 69.7868 33.203 68.3898 33.203C66.8333 33.203 65.9973 33.9785 66.0028 35.0015C66.0083 35.942 66.6738 36.4205 67.6803 36.6295L68.6813 36.8385C69.1983 36.9375 69.4018 37.108 69.4018 37.416C69.4018 37.823 68.9838 38.01 68.3733 38.01C67.9278 38.01 67.3613 37.812 67.2128 37.207H65.8268C66.0303 38.5545 67.1908 39.11 68.3788 39.11ZM73.4536 31.0525H71.8916V32.499H73.4536V31.0525ZM73.4426 33.313H71.9081V39H73.4426V33.313ZM77.3047 39.11C79.0372 39.11 80.0547 37.9 80.0547 36.1895C80.0547 34.369 78.9877 33.203 77.3102 33.203C75.6217 33.203 74.5547 34.3965 74.5547 36.1895C74.5547 37.9825 75.6327 39.11 77.3047 39.11ZM77.3102 37.9165C76.4082 37.9165 76.1222 37.0255 76.1222 36.1345C76.1222 35.1665 76.4577 34.3855 77.3102 34.3855C78.2012 34.3855 78.4817 35.2325 78.4817 36.1345C78.4817 37.0915 78.1517 37.9165 77.3102 37.9165ZM81.1514 39H82.7574V35.359C82.7574 34.8035 83.2909 34.523 83.8189 34.523C84.3414 34.523 84.7649 34.831 84.7649 35.447V39H86.3709V35.249C86.3709 33.841 85.4194 33.2635 84.3799 33.2635C83.4834 33.2635 82.9884 33.7035 82.7299 34.116V33.313H81.1514V39ZM93.3213 39.11C94.9053 39.11 95.7413 37.9275 95.7413 36.1235C95.7413 34.27 94.8833 33.203 93.4753 33.203C92.6613 33.203 92.0398 33.599 91.7648 34.083V30.827H90.1533V39H91.3193L91.5008 37.834C91.7043 38.461 92.1993 39.11 93.3213 39.11ZM92.9693 37.955C92.1553 37.955 91.7648 37.4435 91.7648 36.1015C91.7703 34.941 92.1553 34.369 92.9583 34.369C93.7063 34.369 94.1738 34.919 94.1738 36.1015C94.1738 37.4325 93.6623 37.955 92.9693 37.955ZM98.2042 36.525H102.027V36.0905C102.027 34.3855 101.114 33.203 99.3757 33.203C97.6322 33.203 96.6147 34.512 96.6147 36.2225C96.6147 37.988 97.7697 39.11 99.4582 39.11C100.641 39.11 101.829 38.4115 102.021 37.196H100.575C100.41 37.7295 99.9697 37.9495 99.4197 37.9495C98.6497 37.9495 98.1987 37.394 98.2042 36.525ZM98.2042 35.568C98.1987 34.941 98.6332 34.325 99.3702 34.325C100.146 34.325 100.525 34.8805 100.525 35.568H98.2042ZM106.444 34.4295V33.3075H105.179V31.597H104.035L103.628 33.313H102.654V34.4295H103.578V37.526C103.578 38.439 103.963 39.0605 105.465 39.0605C106.02 39.0605 106.306 38.989 106.46 38.923V37.933H105.696C105.344 37.933 105.19 37.878 105.19 37.46L105.179 34.4295H106.444ZM109.255 39.11C110.052 39.11 110.63 38.846 111.02 38.021L111.152 39H112.494V35.0015C112.494 33.885 111.829 33.203 110.091 33.203C108.666 33.203 107.638 33.775 107.577 35.007H108.914C109.073 34.4845 109.546 34.292 110.014 34.2865C110.657 34.281 110.954 34.5725 110.954 35.095V35.436L110.239 35.447C108.232 35.469 107.335 36.129 107.335 37.372C107.335 38.483 108.171 39.11 109.255 39.11ZM109.799 38.054C109.271 38.054 108.859 37.7405 108.859 37.2125C108.859 36.5195 109.574 36.283 110.377 36.272L110.954 36.261V37.1025C110.949 37.592 110.377 38.054 109.799 38.054Z" fill="#161717"/>
<defs>
<clipPath id="clip0">
<rect width="39" height="39" fill="white"/>
</clipPath>
</defs>
</svg>
