<?xml version="1.0" encoding="UTF-8"?><svg id="Calque_1" xmlns="http://www.w3.org/2000/svg" viewBox="0 0 1365 340.06"><defs><style>.cls-1{stroke:#ddd;stroke-dasharray:4 10;stroke-linecap:round;stroke-linejoin:round;stroke-width:5px;}.cls-1,.cls-2,.cls-3{fill:none;}.cls-4{fill:#d2cddb;}.cls-5{fill:rgba(255,141,126,.3);}.cls-2{stroke:#ddddf2;}.cls-2,.cls-3{stroke-width:11px;}.cls-6{fill:rgba(224,132,11,.3);}.cls-3{stroke:#f6d7d2;}</style></defs><path class="cls-1" d="M3,187.78c5,18,27,54,67,53,50-2,64-81,157-83,92-1,207,107,243,53,37-53-1-114-28-84-26,31,27,70,87,16,60-55,195-21,259,54,65,76,91-9,179-9s317,96,335,37c18-58-18-89-39-67-21,23,61,87,99,9"/><path class="cls-4" d="M1141.84,264.66c13.7,17.33,10.77,42.48-6.56,56.19-17.33,13.7-42.48,10.77-56.19-6.56-1.63-2.06-3.06-4.28-4.25-6.63l12-8c7.16,11.81,22.53,15.57,34.34,8.41.22-.13.44-.27.66-.41,11.81-7.16,15.57-22.53,8.41-34.34-.13-.22-.27-.44-.41-.66l12-8Z"/><circle class="cls-2" cx="1193.5" cy="118.78" r="29.5"/><circle class="cls-3" cx="1273.5" cy="30.18" r="19.5"/><circle class="cls-6" cx="885.5" cy="93.18" r="40"/><circle class="cls-5" cx="482.5" cy="282.18" r="28"/></svg>