<svg xmlns="http://www.w3.org/2000/svg" width="80" height="80" fill="none" viewBox="0 0 80 80"><path fill="#ececfe" fill-rule="evenodd" d="M58 5a1.001 1.001 0 0 1 0-2 1.001 1.001 0 0 1 0 2M22 77a1.001 1.001 0 0 1 0-2 1.001 1.001 0 0 1 0 2M12 13a1.001 1.001 0 0 1 0-2 1.001 1.001 0 0 1 0 2" clip-rule="evenodd"/><path fill="#6a6af4" d="M41 13a1 1 0 1 1 0 2c-6.627 0-12 5.373-12 12s5.373 12 12 12 12-5.373 12-12c0-2.023-.5-3.972-1.443-5.71a1 1 0 0 1 1.758-.953A13.94 13.94 0 0 1 55 27c0 7.732-6.268 14-14 14s-14-6.268-14-14 6.268-14 14-14"/><path fill="#6a6af4" fill-rule="evenodd" d="m33.917 27.69.085-.066 10.6-7.527c.724-.515 1.71.1 1.565.978L44.048 33.9c-.144.874-1.27 1.143-1.794.428l-2.944-4.023-4.906-.883c-.836-.15-1.102-1.194-.487-1.732m8.546 3.536 1.34-8.11-6.702 4.76 2.29.412.701-1.122a1 1 0 0 1 1.752.957l-.056.103-.7 1.122z" clip-rule="evenodd"/><path fill="#000091" d="M67 66a1 1 0 0 1 .117 1.993L67 68h-8a1 1 0 0 1-.117-1.993L59 66zM32.067 46.11A1 1 0 0 1 33.5 47.5l-.088.09-23.74 20.15a1 1 0 0 1-1.432-1.39l.087-.09zM71 26a1 1 0 0 1 .993.883L72 27v36a1 1 0 0 1-1.993.117L70 63V28H59a1 1 0 0 1-.993-.883L58 27a1 1 0 0 1 .883-.993L59 26z"/><path fill="#000091" d="M23 26a1 1 0 0 1 .117 1.993L23 28H10v38h37a1 1 0 0 1 .993.883L48 67a1 1 0 0 1-.883.993L47 68H9a1 1 0 0 1-.993-.883L8 67V27a1 1 0 0 1 .883-.993L9 26zm47 41a1 1 0 1 1 2 0 1 1 0 0 1-2 0"/><path fill="#000091" d="M70.345 26.244a1 1 0 0 1 1.4 1.424l-.09.088-30 26a1 1 0 0 1-1.179.096l-.107-.076-32-26a1 1 0 0 1 1.16-1.625l.102.073 31.348 25.47z"/><path fill="#000091" d="M49.664 46.253a1 1 0 0 0-1.417 1.405l.089.09 18 16a1 1 0 0 0 1.417-1.406l-.089-.09z"/></svg>