<svg xmlns="http://www.w3.org/2000/svg" width="80" height="80" fill="none" viewBox="0 0 80 80"><path fill="#ececfe" fill-rule="evenodd" d="M75 62a1.001 1.001 0 0 1 0-2 1.001 1.001 0 0 1 0 2M55 4a1.001 1.001 0 0 1 0-2 1.001 1.001 0 0 1 0 2M3 54a1.001 1.001 0 0 1 0-2 1.001 1.001 0 0 1 0 2" clip-rule="evenodd"/><path fill="#000091" d="M52 49a1 1 0 0 0-1-1H25l-.117.007A1 1 0 0 0 25 50h26l.117-.007A1 1 0 0 0 52 49m-7 11a1 1 0 0 1 .117 1.993L45 62H25a1 1 0 0 1-.117-1.993L25 60zm-5-5a1 1 0 0 0-1-1H25l-.117.007A1 1 0 0 0 25 56h14l.117-.007A1 1 0 0 0 40 55"/><path fill="#000091" fill-rule="evenodd" d="M19 12h38a1 1 0 0 1 1 1v54a1 1 0 0 1-1 1H19a1 1 0 0 1-1-1V13a1 1 0 0 1 1-1m37 54V14H20v52z" clip-rule="evenodd"/><path fill="#000091" d="M61 20a1 1 0 0 1 .993.883L62 21v50a1 1 0 0 1-.883.993L61 72H27a1 1 0 0 1-.117-1.993L27 70h33V21a1 1 0 0 1 .883-.993z"/><path fill="#6a6af4" fill-rule="evenodd" d="M39.158 32.691c2.632 1.083 4.493 3.385 4.592 6.109l.004.228h-2c0-2.724-2.655-5-6-5-3.265 0-5.873 2.169-5.996 4.807l-.004.193h-2c0-2.823 1.89-5.224 4.596-6.337a5 5 0 1 1 6.807 0m-3.404-.663a3 3 0 1 0 0-6 3 3 0 0 0 0 6" clip-rule="evenodd"/><path fill="#6a6af4" fill-rule="evenodd" d="M26.754 18.028h18a3 3 0 0 1 3 3v20a3 3 0 0 1-3 3h-18a3 3 0 0 1-3-3v-20a3 3 0 0 1 3-3m18 2h-18a1 1 0 0 0-1 1v20a1 1 0 0 0 1 1h18a1 1 0 0 0 1-1v-20a1 1 0 0 0-1-1" clip-rule="evenodd"/></svg>