<svg xmlns="http://www.w3.org/2000/svg" width="80" height="80" fill="none" viewBox="0 0 80 80"><path fill="#ececfe" fill-rule="evenodd" d="M73 18a1.001 1.001 0 0 1 0-2 1.001 1.001 0 0 1 0 2M7 18a1.001 1.001 0 0 1 0-2 1.001 1.001 0 0 1 0 2m4 50a1.001 1.001 0 0 1 0-2 1.001 1.001 0 0 1 0 2m8-62a1.001 1.001 0 0 1 0-2 1.001 1.001 0 0 1 0 2m36 72a1.001 1.001 0 0 1 0-2 1.001 1.001 0 0 1 0 2" clip-rule="evenodd"/><path fill="#000091" d="M68.993 17.883A1 1 0 0 0 68 17H14l-.117.007A1 1 0 0 0 13 18v46l.007.117A1 1 0 0 0 14 65h22l.117-.007A1 1 0 0 0 37 64l-.007-.117A1 1 0 0 0 36 63H15V27h37l.117-.007A1 1 0 0 0 52 25H15v-6h52v6h-9l-.117.007A1 1 0 0 0 58 27h9v19l.007.117A1 1 0 0 0 69 46V18z"/><path fill="#000091" d="M18 23a1.001 1.001 0 0 1 0-2 1.001 1.001 0 0 1 0 2m3-1a1.001 1.001 0 0 0 2 0 1.001 1.001 0 0 0-2 0m5 1a1.001 1.001 0 0 1 0-2 1.001 1.001 0 0 1 0 2m38-2a1 1 0 0 1 .117 1.993L64 23H34a1 1 0 0 1-.117-1.993L34 21zm-3 13a1 1 0 0 0-1-1H22l-.117.007A1 1 0 0 0 22 35h38l.117-.007A1 1 0 0 0 61 34m-5 5a1 1 0 0 1 .117 1.993L56 41H22a1 1 0 0 1-.117-1.993L22 39zm-14 7a1 1 0 0 0-1-1H22l-.117.007A1 1 0 0 0 22 47h19l.117-.007A1 1 0 0 0 42 46m-7 5.866a1 1 0 0 0-1-1H22l-.117.006A1 1 0 0 0 22 52.866h12l.117-.007a1 1 0 0 0 .883-.993"/><path fill="#6a6af4" d="M54.695 60.544c0-2.61-.788-4.934-2.013-6.582-1.225-1.649-2.837-2.57-4.531-2.57s-3.308.921-4.532 2.57-2.012 3.972-2.012 6.582.787 4.934 2.012 6.582c1.224 1.648 2.838 2.57 4.532 2.57s3.306-.922 4.531-2.57 2.013-3.972 2.013-6.582m2 0c0 2.996-.902 5.748-2.407 7.774-1.506 2.026-3.665 3.377-6.137 3.377-2.473 0-4.631-1.35-6.137-3.377s-2.407-4.778-2.407-7.774.902-5.75 2.407-7.776c1.506-2.026 3.664-3.377 6.137-3.377s4.631 1.351 6.137 3.377 2.407 4.779 2.407 7.776m16.305 0c0-2.61-.788-4.934-2.013-6.582-1.224-1.649-2.837-2.57-4.53-2.57-1.695 0-3.308.921-4.533 2.57s-2.012 3.972-2.012 6.582.787 4.934 2.012 6.582 2.838 2.57 4.532 2.57 3.307-.922 4.531-2.57C72.212 65.478 73 63.154 73 60.544m2 0c0 2.996-.902 5.748-2.407 7.774-1.506 2.026-3.665 3.377-6.137 3.377-2.473 0-4.631-1.35-6.137-3.377s-2.407-4.778-2.407-7.774.902-5.75 2.407-7.776c1.506-2.026 3.665-3.377 6.137-3.377s4.631 1.351 6.137 3.377S75 57.547 75 60.544"/><path fill="#6a6af4" d="M46.923 60.544c0 1.1-.662 1.992-1.48 1.992-.817 0-1.48-.892-1.48-1.992s.663-1.992 1.48-1.992c.818 0 1.48.891 1.48 1.992"/><path fill="#6a6af4" d="M45.924 60.544c0-.357-.11-.641-.236-.813-.127-.17-.225-.18-.245-.18s-.116.009-.244.18c-.127.172-.236.456-.236.813s.109.64.236.811c.128.172.225.18.244.18.02 0 .118-.009.245-.18s.236-.455.236-.811m2 0c0 .743-.224 1.455-.632 2.005s-1.05.987-1.849.987-1.441-.438-1.85-.987c-.408-.55-.63-1.262-.63-2.005 0-.744.222-1.456.63-2.005.409-.55 1.052-.988 1.85-.988s1.44.438 1.849.988c.408.55.632 1.261.632 2.005m17.305 0c0 1.1-.663 1.992-1.48 1.992-.818 0-1.48-.892-1.48-1.992s.662-1.992 1.48-1.992c.817 0 1.48.891 1.48 1.992"/><path fill="#6a6af4" d="M64.23 60.544c0-.357-.11-.641-.237-.813-.127-.17-.224-.18-.244-.18s-.117.009-.244.18c-.128.172-.236.456-.236.813s.108.64.236.811c.127.172.225.18.244.18.02 0 .117-.009.244-.18s.236-.455.236-.811m2 0c0 .743-.224 1.455-.632 2.005s-1.051.987-1.849.987-1.441-.438-1.85-.987c-.408-.55-.63-1.262-.63-2.005 0-.744.222-1.456.63-2.005.409-.55 1.052-.988 1.85-.988s1.44.438 1.849.988c.408.55.632 1.261.632 2.005"/></svg>