<svg xmlns="http://www.w3.org/2000/svg" width="81" height="81" fill="none" viewBox="0 0 81 81"><path fill="#000091" d="M65.92 30.473c0-.898-.746-1.654-1.698-1.654H16.779c-.953 0-1.7.756-1.7 1.654v30.14c0 .897.747 1.652 1.7 1.652h47.443c.952 0 1.697-.755 1.697-1.652zm1.846 30.14c0 1.947-1.602 3.499-3.544 3.499H16.779c-1.943 0-3.544-1.552-3.545-3.5v-30.14c0-1.947 1.602-3.498 3.545-3.498h47.443c1.942 0 3.544 1.551 3.544 3.499z"/><path fill="#000091" d="M13.234 39.574v-9.102h1.845v9.102c0 4.198 3.505 7.664 7.816 7.664h35.21c4.311 0 7.814-3.466 7.814-7.664v-9.102h1.847v9.102c0 5.248-4.36 9.51-9.66 9.51H22.894c-5.3 0-9.66-4.262-9.66-9.51"/><path fill="#000091" d="M18.826 60.87V47.646h1.845V60.87c0 .763.62 1.396 1.436 1.396h36.785c.816 0 1.436-.633 1.437-1.396V47.818h1.844V60.87c0 1.813-1.476 3.24-3.28 3.241H22.106c-1.805 0-3.28-1.428-3.28-3.24"/><path fill="#6a6af4" d="M29.971 42.688c.51 0 .923.412.923.922v9.19c0 .51-.413.922-.923.922h-4.543a.923.923 0 0 1-.923-.922v-9.19c0-.51.413-.922.923-.922zm-3.62 9.187h2.698v-7.342H26.35zm29.046-9.187c.51 0 .922.412.922.922v9.19c0 .51-.413.922-.922.922h-4.543a.923.923 0 0 1-.923-.922v-9.19c0-.51.413-.922.923-.922zm-3.62 9.187h2.697v-7.342h-2.698z"/><path fill="#000091" d="M52.202 21.113c0-.935-.708-1.654-1.699-1.654H30.408c-.99 0-1.699.72-1.699 1.654v5.688h23.493zm1.847 7.535H26.864v-7.535c0-1.984 1.564-3.499 3.544-3.499h20.095c1.98 0 3.546 1.515 3.546 3.5z"/><path fill="#000091" d="M31.767 26.802h17.551v-4.423h-17.55zm19.398 1.846H29.922v-6.762c0-.344.12-.7.395-.97.25-.247.569-.357.878-.375v-.007h18.61c.336 0 .69.113.963.381.276.27.397.627.397.97z"/><path fill="#cacafb" fill-rule="evenodd" d="M10.437 71.467a1.118 1.118 0 1 1 1.117-1.117c0 .616-.501 1.117-1.117 1.117M8.203 16.46a1.118 1.118 0 0 1 0-2.235 1.118 1.118 0 0 1 0 2.234m64.539 3.195a1.118 1.118 0 0 1 0-2.235 1.118 1.118 0 0 1 0 2.234" clip-rule="evenodd"/></svg>