<svg xmlns="http://www.w3.org/2000/svg" width="80" height="80" fill="none" viewBox="0 0 80 80"><defs><path id="a" fill="#000091" d="M19.995 52.885a.892.892 0 1 1-1.784 0 .892.892 0 0 1 1.784 0"/></defs><path fill="#ececfe" fill-rule="evenodd" d="M6 34c.55 0 1-.45 1-1s-.45-1-1-1-1 .45-1 1 .45 1 1 1M46 6c.55 0 1-.45 1-1s-.45-1-1-1-1 .45-1 1 .45 1 1 1m20 56c.55 0 1-.45 1-1s-.45-1-1-1-1 .45-1 1 .45 1 1 1m8-32c.55 0 1-.45 1-1s-.45-1-1-1-1 .45-1 1 .45 1 1 1M36 73c.55 0 1-.45 1-1s-.45-1-1-1-1 .45-1 1 .45 1 1 1" clip-rule="evenodd"/><path fill="#6a6af4" fill-rule="evenodd" d="M40 26.29c-5.887 0-10.657 4.77-10.657 10.657a11 11 0 0 0 .069 1.218c.602 5.307 5.113 9.44 10.588 9.44 5.887 0 10.657-4.77 10.657-10.658 0-5.887-4.77-10.657-10.657-10.657M27.416 38.302l.004.048c.697 6.325 6.062 11.254 12.58 11.254 6.992 0 12.657-5.665 12.657-12.657 0-6.991-5.665-12.657-12.657-12.657s-12.657 5.666-12.657 12.657c0 .456.027.916.073 1.355" clip-rule="evenodd"/><path fill="#6a6af4" fill-rule="evenodd" d="M40 49.604c-9.099 0-16.481 7.375-16.481 16.481a1 1 0 0 1-2 0c0-10.211 8.278-18.48 18.48-18.48s18.482 8.278 18.482 18.48a1 1 0 0 1-2 0c0-9.097-7.383-16.48-16.481-16.48" clip-rule="evenodd"/><path fill="#6a6af4" d="M57.394 21.682a2 2 0 1 0 0-4 2 2 0 0 0 0 4"/><path fill="#000091" fill-rule="evenodd" d="M64.044 34.288a1 1 0 0 1 .992 1.009l-.071 8.794a1 1 0 0 1-2-.017l.071-8.794a1 1 0 0 1 1.008-.992M14.578 12.294a1 1 0 0 1 .714-.294l48.911.285a1 1 0 0 1 .994 1.008l-.133 17.597a1 1 0 1 1-2-.015l.126-16.595-46.895-.274.276 30.067a1 1 0 1 1-2 .019l-.285-31.083a1 1 0 0 1 .292-.715" clip-rule="evenodd"/><path fill="#000091" fill-rule="evenodd" d="M14.855 43.385a1 1 0 0 1 .716-.303h8.794a1 1 0 0 1 0 2h-8.372L9.37 51.885h9.734a1 1 0 1 1 0 2H7a1 1 0 0 1-.716-1.697z" clip-rule="evenodd"/><use href="#a"/><use href="#a"/><use href="#a"/><use href="#a"/><use href="#a"/><path fill="#000091" fill-rule="evenodd" d="M22.5 52.885a1 1 0 0 1 1-1h1.097a1 1 0 1 1 0 2H23.5a1 1 0 0 1-1-1m31.67-8.803a1 1 0 0 1 1-1h8.795a1 1 0 0 1 .698.284l9.035 8.803A1 1 0 0 1 73 53.885H55.403a1 1 0 1 1 0-2H70.54l-6.982-6.803h-8.387a1 1 0 0 1-1-1M19.2 17.682a1 1 0 0 1 1-1h26.4a1 1 0 1 1 0 2H20.2a1 1 0 0 1-1-1m0 4.406a1 1 0 0 1 1-1h8.803a1 1 0 1 1 0 2H20.2a1 1 0 0 1-1-1m0 4.397a1 1 0 0 1 1-1h4.397a1 1 0 1 1 0 2H20.2a1 1 0 0 1-1-1" clip-rule="evenodd"/></svg>