<svg xmlns="http://www.w3.org/2000/svg" height="300" viewBox="0 50 300 300" fill="none">
  <path fill-rule="evenodd" clip-rule="evenodd" d="M117.048 150.253C118.296 151.07 119.252 152.264 119.775 153.661C119.957 154.116 120.104 154.584 120.216 155.061C120.625 156.805 120.59 158.624 120.116 160.351C119.869 161.586 119.24 162.713 118.318 163.571C117.396 164.43 116.228 164.977 114.978 165.135C115.783 170.161 116.54 173.494 116.703 174.291C117.487 177.66 117.427 176.821 117.321 177.64L116.906 177.977L116.379 177.912L116.038 177.492C116.038 177.385 114.975 174.332 113.988 169.98C112.588 163.818 112.739 164.212 112.902 163.805C113.003 163.609 113.163 163.45 113.36 163.351C113.79 163.19 114.32 163.22 115.305 162.91C115.999 162.727 116.609 162.309 117.029 161.727C117.692 160.675 118.099 159.481 118.217 158.243C118.335 157.004 118.161 155.756 117.708 154.597C117.328 153.447 116.508 152.494 115.428 151.945C114.208 151.267 115.255 150.625 114.393 145.98C111.317 130.174 93.767 129.743 86.644 139.209L86.189 139.489L85.689 139.394H85.68L85.409 138.962C85.517 138.343 85.481 138.462 85.561 138.338V138.333C94.218 125.022 116.885 128.967 117.048 150.253Z" fill="black" />
  <path fill-rule="evenodd" clip-rule="evenodd" d="M94.4 145.451C95.248 145.43 96.0701 145.744 96.688 146.325C97.0458 146.614 97.303 147.009 97.423 147.453C97.423 147.46 97.329 147.907 97.329 147.914C95.796 148.066 96.677 148.021 95.792 147.87C95.6362 147.838 95.4786 147.816 95.32 147.804L95.297 147.798C94.7624 147.68 94.2078 147.684 93.675 147.81L93.647 147.823C93.3395 147.931 93.0617 148.11 92.836 148.345C92.711 148.516 92.591 148.545 92.015 148.908C91.907 148.994 92.054 148.908 91.07 149.337C90.636 148.337 90.686 148.473 90.675 148.366C90.6366 147.902 90.7455 147.438 90.986 147.039C91.4859 146.412 92.1555 145.943 92.915 145.686C93.3935 145.526 93.8954 145.446 94.4 145.451Z" fill="black" />
  <path d="M96.4783 153.942C96.5337 152.673 95.6701 151.604 94.5495 151.555C93.4288 151.506 92.4755 152.496 92.4202 153.765C92.3648 155.035 93.2284 156.104 94.3491 156.153C95.4697 156.201 96.423 155.212 96.4783 153.942Z" fill="black" />
  <path fill-rule="evenodd" clip-rule="evenodd" d="M94.465 171.448L93.91 171.304C93.779 171.218 93.365 171.019 93.22 170.952C93.134 170.911 92.32 170.525 92.227 170.484C91.9876 170.372 91.7539 170.248 91.527 170.113C91.0871 169.863 90.6121 169.681 90.118 169.573C90.0044 169.553 89.8893 169.544 89.774 169.544H89.76H89.723H89.709H89.7H89.686H89.66H89.65H89.641H89.632H89.623H89.613H89.603H89.594H89.589H89.584H89.579H89.574V169.549L89.559 169.562L89.554 169.571V169.58H89.549C89.5361 169.602 89.5244 169.625 89.514 169.648L89.504 169.656L89.484 169.683L89.475 169.692L89.465 169.71L89.455 169.719L89.426 169.746L89.416 169.764L89.372 169.817C89.2998 169.9 89.2358 169.99 89.181 170.085C89.0864 170.22 89.0032 170.363 88.932 170.512V170.525L88.225 171.204C87.465 170.413 87.55 170.624 87.372 169.845C87.3505 169.652 87.3422 169.457 87.347 169.263C87.3604 169.059 87.4063 168.859 87.483 168.67C87.6929 168.217 88.0277 167.834 88.448 167.565C88.9538 167.264 89.5417 167.13 90.128 167.182C91.3565 167.331 92.5244 167.799 93.515 168.541C94.0798 169.015 94.5738 169.567 94.982 170.181L95.156 170.723L95.012 171.178L94.465 171.448Z" fill="black" />
  <path fill-rule="evenodd" clip-rule="evenodd" d="M86.233 175.55C86.533 175.805 87.342 176.369 87.452 176.437C89.0558 177.672 90.9943 178.395 93.015 178.513C94.0248 178.569 95.0374 178.478 96.021 178.243C96.795 178.068 97.568 177.633 98.128 178.736C99.0049 180.708 99.7401 182.74 100.328 184.816C100.687 185.916 100.628 185.507 100.62 186.243L100.286 186.63H100.276L99.765 186.635C99.265 186.201 99.458 186.555 98.328 184.389C98.275 184.301 97.036 181.773 96.449 180.46C95.6003 180.662 94.7322 180.771 93.86 180.785C91.3769 180.835 88.9368 180.132 86.86 178.77C85.9868 178.209 85.2433 177.468 84.679 176.597V176.588C84.3976 176.162 84.146 175.717 83.926 175.256L83.862 174.709L84.11 174.301H84.12L84.593 174.225C85.443 174.688 84.578 174.141 86.233 175.55Z" fill="black" />
  <path fill-rule="evenodd" clip-rule="evenodd" d="M89.311 178.821C87.537 178.182 85.185 177.494 84.693 175.681C84.3224 174.375 84.0186 173.052 83.783 171.715C83.4992 169.97 83.4387 168.197 83.603 166.437C83.63 166.244 83.55 165.753 83.716 165.861C85.44 167.021 84.505 169.937 89.082 178.673" fill="black" />
  <path fill-rule="evenodd" clip-rule="evenodd" d="M87.669 176.64C88.6561 177.102 89.7417 177.313 90.83 177.256C90.254 175.85 88.652 171.886 90.156 172.108C90.637 172.185 90.998 172.679 91.249 173.05C91.907 174.023 92.149 175.49 93.076 176.267C93.902 176.967 96.009 175.999 96.834 175.667C97.378 175.447 98.734 175.167 98.922 174.473C99.122 173.712 98.474 172.711 98.194 172.045C97.585 170.599 96.939 169.145 96.254 167.726C95.9168 166.84 95.4069 166.031 94.754 165.344C93.319 164.071 92.303 164.825 91.366 164.201C90.78 163.801 90.501 163.117 91.336 162.78C92.0897 162.571 92.8874 162.58 93.636 162.807C94.3764 162.921 95.0909 163.164 95.747 163.526C97.673 164.708 98.647 167.026 100.511 169.962C101.902 172.205 101.852 174.099 105.182 170.415C110.058 165.06 108.161 162.907 109.705 157.651C109.805 157.324 110.043 156.339 110.558 156.458C111.365 156.658 111.608 157.863 111.693 158.54C112.022 160.723 111.98 162.945 111.568 165.114C111.195 167.104 110.383 168.986 109.19 170.622C107.79 172.367 104.359 175.857 100.671 177.382C99.86 177.716 97.017 178.988 96.351 179.157C91.251 180.469 86.942 178.386 86.268 176.884C86.142 176.584 86.275 176.294 86.629 176.314C87.0046 176.372 87.3693 176.486 87.711 176.652" fill="black" />
  <path fill-rule="evenodd" clip-rule="evenodd" d="M58.324 144.948C58.76 145.418 58.624 145.035 59.4 147.418C65.594 168.396 55.146 183.328 57.11 214.668C57.84 224.326 59.587 232.514 64.625 240.668C68.4901 246.688 73.8489 251.604 80.179 254.937C80.704 254.96 94.696 264.426 115.565 257.337L116.103 257.365L116.468 257.754C116.468 257.768 116.441 258.278 116.44 258.292L116.051 258.662C111.903 260.221 107.564 261.211 103.151 261.606C94.4389 262.403 85.6896 260.544 78.0542 256.274C70.4188 252.003 64.2551 245.521 60.374 237.681C53.49 223.82 53.845 203.662 55.895 188.335C57.16 177.542 61.008 161.978 58.578 150.451C58.2778 148.878 57.8791 147.324 57.384 145.801L57.426 145.273L57.814 144.921L58.324 144.948Z" fill="#010101" />
  <path fill-rule="evenodd" clip-rule="evenodd" d="M65.307 143.391L65.734 143.75C67.013 145.496 67.211 146.825 67.774 149.58C68.1143 151.327 68.2947 153.101 68.313 154.88C68.2717 155.948 68.1497 157.012 67.948 158.062L67.683 158.552L67.218 158.744L66.772 158.513L66.546 158H66.541C66.484 157.283 66.147 154.9 66.002 153.245C65.625 148.938 64.802 147.326 64.573 145.438C64.568 145.398 64.449 144.276 64.441 144.238C64.441 144.23 64.533 143.691 64.534 143.684L64.848 143.352H64.858L65.307 143.391Z" fill="#010101" />
  <path fill-rule="evenodd" clip-rule="evenodd" d="M73.377 142.6C73.7177 142.836 73.9885 143.16 74.161 143.537C74.4649 144.017 74.7128 144.531 74.9 145.067C75.3689 146.871 75.6652 148.715 75.785 150.575C75.9614 152.278 75.8505 153.999 75.457 155.665C75.369 156.14 75.083 156.956 75.078 157.065L74.754 157.521L74.273 157.661L73.856 157.38L73.691 156.843C73.691 155.6 73.571 151.474 73.547 150.935C73.4353 149.113 73.1551 147.305 72.71 145.535C72.633 145.091 72.498 143.504 72.502 143.429L72.602 142.876L72.916 142.549H72.925L73.377 142.6Z" fill="#010101" />
  <path fill-rule="evenodd" clip-rule="evenodd" d="M81.413 145.535C81.772 146.052 81.776 145.772 82.302 149.135C82.7583 153.415 82.848 157.725 82.57 162.02C82.3766 165.481 82.5183 168.952 82.993 172.386C85.385 186.186 95.466 201.306 101.193 217.424C101.367 217.75 101.422 218.127 101.35 218.49L100.965 218.856L100.437 218.829C99.943 218.316 100.22 218.79 99.366 216.755C93.334 203.266 83.707 187.237 81.026 174.121C79.154 164.503 81.299 156.696 80.498 147.321C80.336 145.993 80.328 146.359 80.486 145.703L80.918 145.414L81.413 145.535Z" fill="#010101" />
  <path fill-rule="evenodd" clip-rule="evenodd" d="M107.437 207.979L107.83 208.272C107.83 208.279 107.818 208.757 107.817 208.765C106.497 210.465 103.786 211.296 100.751 213.065C100.18 213.423 99.5407 213.658 98.874 213.757C98.662 213.815 98.866 213.832 97.756 213.602C97.985 212.49 97.92 212.688 98.056 212.51C98.453 211.914 98.9945 211.429 99.63 211.1C99.635 210.984 103.518 209.081 104.107 208.8C104.701 208.571 105.306 208.373 105.92 208.206C106.398 208.003 106.92 207.925 107.437 207.979Z" fill="#010101" />
  <path fill-rule="evenodd" clip-rule="evenodd" d="M16.158 165.036H16.167L16.509 165.424C16.479 166.302 16.618 165.514 15.654 167.912C11.92 176.927 9.71401 187.812 8.46101 197.647C7.75401 203.9 7.41601 209.378 7.30001 213.359C7.03399 218.124 7.49596 222.901 8.67001 227.526C9.15937 229.315 9.74727 231.076 10.431 232.8C13.3935 239.818 18.7667 245.546 25.581 248.95C29.8263 250.977 34.4767 252.013 39.181 251.98C44.5155 251.899 49.7857 250.803 54.71 248.75C55.648 248.374 58.523 247.073 58.64 246.963L59.176 246.922C59.184 246.928 59.583 247.26 59.589 247.267L59.631 247.799C59.167 248.361 59.647 248.076 56.313 249.718C52.7565 251.395 49.0015 252.614 45.138 253.346C42.5802 253.806 39.9834 254.014 37.385 253.966C36.774 253.966 36.17 253.908 35.771 253.891C33.9299 253.757 32.1039 253.465 30.313 253.017C28.5137 252.561 26.758 251.948 25.066 251.185C21.2545 249.411 17.8242 246.912 14.966 243.829C12.4274 241.202 10.3565 238.161 8.84301 234.836C4.32001 224.718 4.70001 216.075 5.48601 205.028C6.72101 190.612 8.62201 178.395 15.24 165.365L15.64 165.018L16.158 165.036Z" fill="#010101" />
  <path fill-rule="evenodd" clip-rule="evenodd" d="M37.977 170.138L38.418 170.379L38.603 170.879C38.603 171.029 38.578 172.754 38.65 174.037C38.65 174.746 38.75 176.313 38.767 176.631C38.9047 180.514 39.2995 184.384 39.949 188.215C41.049 195.541 44.529 205.625 47.302 212.429C49.793 218.543 49.467 217.166 49.514 218.119C49.507 218.127 49.181 218.519 49.174 218.528C49.167 218.537 48.649 218.555 48.643 218.555C48.093 218.088 48.343 218.415 47.508 216.884C46.927 215.767 45.231 212.613 43.852 209.344C40.7233 201.964 38.5393 194.218 37.352 186.291C35.888 176.568 37.182 171.691 37.222 170.768L37.486 170.3L37.963 170.137L37.977 170.138Z" fill="#010101" />
  <path fill-rule="evenodd" clip-rule="evenodd" d="M53.4 207.236L53.774 207.529C53.774 207.536 53.74 207.995 53.74 208.002L53.364 208.483C52.665 209.066 51.8916 209.553 51.064 209.931C50.949 209.926 50.232 210.324 47.864 211.192C47.6415 211.3 47.4012 211.366 47.155 211.387C47.055 211.398 46.711 211.405 46.638 211.402C45.979 211.361 46.292 211.453 45.225 210.953C45.725 209.88 45.537 210.174 46.025 209.707C46.3191 209.417 46.6775 209.2 47.071 209.075C47.277 209.084 50.811 207.441 52.071 207.316C52.503 207.194 52.9564 207.166 53.4 207.236Z" fill="#010101" />
  <path d="M221.617 146.013C223.012 145.915 224.056 144.602 223.949 143.08C223.842 141.558 222.624 140.404 221.229 140.502C219.834 140.601 218.79 141.914 218.897 143.435C219.004 144.957 220.222 146.111 221.617 146.013Z" fill="black" />
  <path fill-rule="evenodd" clip-rule="evenodd" d="M222.346 132.99C222.628 133.102 222.901 133.236 223.162 133.39C223.269 133.46 223.173 133.373 223.617 133.857L223.67 134.334L223.328 134.66L222.758 134.75C222.549 134.727 222.338 134.719 222.127 134.727C221.642 134.746 221.16 134.808 220.687 134.913H220.681C220.175 134.972 219.681 135.11 219.217 135.32C218.592 135.604 218.023 135.997 217.536 136.481C217.373 136.672 217.184 136.841 216.975 136.981C216.486 137.417 215.873 137.69 215.222 137.762L214.978 136.812C215.048 136.419 215.167 136.035 215.331 135.671C215.481 135.362 215.694 135.087 215.956 134.864C216.595 134.235 217.334 133.716 218.143 133.328C218.868 132.988 219.64 132.762 220.434 132.659C221.087 132.638 221.738 132.75 222.346 132.99Z" fill="#010101" />
  <path fill-rule="evenodd" clip-rule="evenodd" d="M220.861 159.744L221.225 160.073L221.325 160.631C221.222 161.423 221.004 162.196 220.677 162.924C220.619 163.032 220.818 162.643 220.405 163.465C219.352 165.097 217.906 166.438 216.199 167.365C215.631 167.7 215.022 167.958 214.387 168.133C213.87 168.224 213.343 168.235 212.823 168.167C212.446 168.114 212.684 168.242 211.774 167.517C212.648 166.409 211.996 167.032 213.695 166.039C214.614 165.699 215.478 165.227 216.262 164.639C217.142 163.951 217.924 163.146 218.587 162.247C218.735 162.075 219.187 161.508 219.452 161.106C219.647 160.828 219.823 160.537 219.978 160.235L220.369 159.829L220.852 159.753L220.861 159.744Z" fill="#010101" />
  <path fill-rule="evenodd" clip-rule="evenodd" d="M152.77 183.937C148.748 180.771 143.481 178.994 138.57 177.877C132.348 176.458 119.836 177.466 119.721 177.577C114.901 182.131 110.469 186.992 104.693 190.449C102.384 191.832 97.214 192.685 98.472 188.349C96.4131 189.156 94.5618 190.415 93.055 192.033C95.555 197.57 97.691 202.04 100.211 207.55C102.828 206.484 104.611 206.143 107.229 205.091C115.152 210.426 120.508 220.298 123.409 229.215C124.538 227.306 125.683 225.352 126.96 223.537C125.483 219.368 123.65 210.999 130.42 210.637C130.07 205.448 131.685 199.598 137.994 200.296C137.764 197.642 137.77 194.643 139.294 192.323C141.219 189.393 145.319 190.765 147.228 192.848C148.855 189.949 152.77 183.937 152.77 183.937Z" fill="#BD1992" fill-opacity="0.53" />
  <path fill-rule="evenodd" clip-rule="evenodd" d="M149.67 190.275C147.722 193.484 147.906 193.69 147.118 193.656C146.697 193.556 146.671 193.414 146.468 193.236C145.729 192.534 144.837 192.014 143.862 191.717C143.19 191.499 142.474 191.454 141.78 191.585L141.757 191.593H141.729C141.331 191.685 140.96 191.869 140.646 192.131L140.631 192.148C139.499 193.471 138.875 195.154 138.871 196.895C138.736 200.001 139.189 200.088 138.825 200.81C138.72 200.974 138.57 201.103 138.392 201.182C138.214 201.261 138.017 201.286 137.825 201.254C136.695 201.11 135.548 201.3 134.525 201.802C133.887 202.19 133.333 202.701 132.893 203.305C132.454 203.909 132.139 204.594 131.966 205.321C131.801 205.874 131.679 206.438 131.602 207.01C131.149 210.569 131.968 210.848 130.975 211.567C129.988 212.022 125.818 211.185 126.868 218.603C127.12 220.152 127.51 221.675 128.033 223.155C128.285 224.161 127.87 223.814 124.813 229.068C124.374 229.81 124.248 230.236 123.477 230.337C123.229 230.35 122.984 230.281 122.779 230.141C122.575 230 122.422 229.796 122.345 229.56C120.883 225.016 118.879 220.666 116.376 216.602C113.987 212.607 110.83 209.125 107.088 206.356C106.228 206.626 108.118 206.064 103.655 207.519C101.755 208.119 100.785 208.547 100.455 208.647C100.204 208.702 99.942 208.669 99.7122 208.554C99.4824 208.439 99.2989 208.25 99.192 208.016C94.285 197.243 91.94 192.71 91.936 191.924C91.9575 191.664 92.0714 191.421 92.257 191.238C93.427 189.965 94.8126 188.908 96.35 188.117C96.9959 187.764 97.6703 187.465 98.366 187.224C98.6113 187.199 98.8578 187.255 99.0684 187.384C99.279 187.512 99.4421 187.705 99.533 187.934C99.689 188.465 99.577 188.493 99.458 189.114C99.4083 189.312 99.3964 189.518 99.423 189.721V189.74V189.758C99.4266 189.78 99.4316 189.802 99.438 189.823V189.842C99.4492 189.883 99.4626 189.923 99.478 189.963V189.972L99.487 189.982L99.495 190.001V190.01C99.5044 190.022 99.5131 190.035 99.521 190.048V190.057V190.067V190.077L99.548 190.106H99.557V190.115H99.566V190.124L99.575 190.129H99.584L99.597 190.143H99.606L99.615 190.153L99.642 190.168L99.651 190.177C99.672 190.189 99.661 190.177 99.682 190.193L99.691 190.202L99.741 190.223L99.754 190.233L99.808 190.253L99.822 190.263C99.864 190.28 99.983 190.315 100.022 190.328H100.045C100.087 190.34 100.062 190.328 100.104 190.344H100.127L100.168 190.355H100.191L100.214 190.361C102.89 190.477 104.44 189.296 106.614 187.769C112.501 183.429 118.072 177.269 119.128 176.538C120.148 176.097 132.16 175.492 138.115 176.753C143.167 177.871 149.181 180.037 153.156 183.347L153.166 183.338C153.878 184 153.517 183.939 149.67 190.275ZM147.048 191.557C147.448 190.815 151.631 184.314 151.819 184.099C148.163 181.423 142.795 179.717 138.356 178.808C135.22 178.036 128.348 178.191 125.127 178.314C124.221 178.363 121.135 178.526 120.239 178.636C113.673 184.96 112.068 186.727 107.18 190.197C105.69 191.368 103.951 192.18 102.096 192.57C100.781 192.803 99.065 192.759 98.096 191.834C97.6271 191.411 97.3143 190.842 97.208 190.219C96.1822 190.769 95.2395 191.461 94.408 192.276C95.944 195.714 100.182 204.736 100.794 206.105C101.804 205.705 105.131 204.705 106.116 204.305C107.484 203.805 107.264 203.689 109.004 204.961C112.532 207.684 115.545 211.016 117.9 214.8C120.241 218.499 122.181 222.437 123.686 226.548C123.753 226.44 125.03 224.332 125.709 223.365C124.539 219.72 123.47 214.558 125.933 211.565C126.797 210.553 127.995 209.884 129.31 209.68C129.13 206.859 129.905 204.059 131.51 201.732C131.928 201.211 132.423 200.757 132.978 200.386C134.16 199.617 135.548 199.226 136.957 199.265C136.803 196.134 137.408 191.879 140.11 190.353C141.725 189.432 144.388 189.478 147.048 191.557Z" fill="#BD1992" />
  <path fill-rule="evenodd" clip-rule="evenodd" d="M131.152 282.619C127.253 279.952 124.17 276.256 122.246 271.941C120.322 267.627 119.631 262.864 120.252 258.181C111.758 262.989 102.832 265.462 93.137 263.173C94.637 269.822 96.17 276.473 97.63 283.125C101.411 282.992 120.052 282.77 131.489 282.832" fill="#DC85C5" />
  <path fill-rule="evenodd" clip-rule="evenodd" d="M120.444 257.065C120.7 257.11 120.933 257.242 121.104 257.438C121.275 257.634 121.373 257.883 121.383 258.143C121.368 258.354 121.292 258.961 121.283 259.069C120.982 261.907 121.196 264.775 121.913 267.537C122.757 271.045 124.327 274.338 126.523 277.201H126.532C128.021 279.065 129.734 280.738 131.632 282.183L132.003 282.337C132.673 283.918 132.735 283.478 118.28 283.766C103.322 284.202 113.661 283.803 97.674 284.246C97.4103 284.256 97.1515 284.173 96.9429 284.011C96.7342 283.85 96.5891 283.62 96.533 283.362C91.762 261.908 91.94 263.474 92.059 262.849C92.1328 262.604 92.2869 262.391 92.4964 262.245C92.706 262.099 92.9588 262.027 93.214 262.042C96.8266 262.9 100.563 263.111 104.249 262.666C108.318 262.126 112.274 260.932 115.963 259.131C119.848 257.31 119.582 257.007 120.444 257.065ZM96.723 264.946C96.614 264.933 94.734 264.694 94.623 264.634C95.397 268.034 97.788 278.568 98.53 281.967C99.398 281.716 124.374 281.998 129.104 282.074C128.986 282.008 128.11 281.311 127.577 280.851C126.694 280.082 125.868 279.25 125.106 278.361C120.763 273.336 118.546 266.818 118.922 260.187C111.987 263.789 104.512 265.913 96.723 264.946Z" fill="#BD1992" fill-opacity="0.53" />
  <path fill-rule="evenodd" clip-rule="evenodd" d="M203.854 177.018C204.354 177.382 204.888 177.695 205.449 177.953L206.08 178.276C207.129 178.895 208.281 179.322 209.48 179.535C210.624 179.747 211.791 179.808 212.95 179.714C214.321 179.602 215.679 179.358 217.004 178.987C217.477 178.849 217.935 178.662 218.37 178.429L218.913 178.329L219.353 178.574H219.358L219.458 179.074L219.197 179.561C218.742 179.959 218.25 180.312 217.727 180.616C216.44 181.336 215.018 181.78 213.551 181.922C211.436 182.149 209.298 181.932 207.272 181.285C206.45 181.012 205.66 180.648 204.918 180.201L204.556 179.941C203.877 179.374 203.298 178.698 202.842 177.941L202.708 177.406L202.884 176.967L203.332 176.835L203.854 177.018Z" fill="black" />
  <path fill-rule="evenodd" clip-rule="evenodd" d="M206.6 178.967C206.939 179.613 206.807 179.119 207.081 180.826C207.352 182.744 207.414 184.685 207.266 186.616C207.29 186.885 207.233 187.155 207.103 187.392C206.603 188.11 206.149 187.922 204.903 187.978C201.315 188.164 197.741 188.57 194.203 189.194C192.511 189.501 193.203 189.509 192.333 189.394L191.985 189.019C191.985 189.005 192.038 188.519 192.04 188.501L192.44 188.127C195.323 186.847 198.414 186.098 201.563 185.916C205.315 185.616 205.014 185.801 205.02 185.652C205.02 185.452 205.033 184.599 205.035 184.052C205.004 182.974 205.075 181.896 205.249 180.832C205.256 180.783 205.459 179.5 205.461 179.459L205.713 178.972L206.146 178.766L206.6 178.967Z" fill="black" />
  <path fill-rule="evenodd" clip-rule="evenodd" d="M240.45 138.335C240.875 138.559 241.287 138.806 241.685 139.075C246.766 142.787 246.447 148.982 241.319 152.559C239.807 153.611 238.111 154.369 236.319 154.792C236.361 158.849 235.741 162.885 234.484 166.742C233.493 169.859 231.963 172.777 229.962 175.364C229.972 175.49 230.037 180.658 230.327 185.17C234.052 186.208 237.705 187.488 241.264 189C242.433 189.551 242.136 189.349 242.604 189.865L242.59 190.394L242.197 190.755C242.089 190.755 241.546 190.745 241.654 190.745C237.679 189.232 233.602 188.002 229.454 187.062C229.255 187.055 229.061 187.004 228.884 186.913C228.34 186.564 228.345 186.191 228.284 185.532C228.05 183.337 227.816 180.218 227.716 175.961C227.733 174.196 227.705 174.68 228.594 173.461L228.972 172.934C229.947 171.519 230.777 170.008 231.449 168.426C233.361 163.831 234.249 158.874 234.049 153.901C234.04 153.653 234.114 153.41 234.257 153.208C234.401 153.006 234.607 152.857 234.844 152.784C235.666 152.661 236.475 152.457 237.257 152.175C240.5 150.836 243.241 148.689 243.057 145.199C243.057 145.167 243.043 145.044 243.041 145.037C242.936 144.026 242.577 143.058 241.998 142.223C241.365 141.292 240.536 140.512 239.568 139.937C238.34 139.165 236.925 138.741 235.475 138.709L234.982 138.509L234.763 138.044L234.95 137.564C235.508 137.294 235.35 137.325 235.822 137.312C237.425 137.27 239.014 137.621 240.45 138.335Z" fill="black" />
  <path fill-rule="evenodd" clip-rule="evenodd" d="M195.3 120.575C198.205 122.097 200.991 123.83 204.224 124.598C211.434 126.308 219.801 123.433 225.185 118.518C225.969 126.55 227.564 135.608 236.241 137.788C236.814 132.8 236.22 126.868 234 122.299C231.462 117.091 225.973 113.244 220.394 111.956C215.637 110.819 210.654 111.062 206.03 112.656C204.13 113.375 202.446 114.648 200.473 115.194C199.653 115.421 198.48 115.046 198.609 113.988C198.774 112.826 199.36 111.765 200.255 111.005C203.037 108.923 206.248 107.488 209.655 106.805C214.671 105.878 222.529 106.88 227.049 109.405C231.581 112.176 235.238 116.17 237.6 120.928C239.669 121.028 240.893 121.383 242.642 119.933C244.736 118.196 243.672 114.533 236.31 113.633C237.687 113.208 239.002 112.6 240.217 111.825C241.488 111.194 242.557 110.219 243.302 109.011C244.62 106.37 242.773 103.825 239.975 103.527C237.035 103.214 233.78 105.395 231.794 107.4C233.243 105.13 235.075 103.054 235.889 100.437C236.937 97.085 235.494 94.819 232.159 96.499C229.502 97.836 227.805 100.83 226.195 103.206C227.179 101.449 227.926 99.5701 228.415 97.617C229.029 94.623 228.495 88.391 223.769 89.836C219.764 91.062 217.56 95.667 216.283 99.636C216.612 96.613 217.864 89.442 216.432 86.5C216.252 86.0698 215.97 85.6899 215.611 85.3928C215.251 85.0957 214.825 84.8903 214.369 84.7944C213.912 84.6985 213.439 84.7149 212.991 84.8421C212.542 84.9694 212.131 85.2037 211.793 85.525C211.303 85.9624 210.873 86.4639 210.517 87.016C208.066 90.716 208.043 95.365 207.717 99.631C207.017 96.631 206.084 93.231 203.756 91.031C200.194 87.673 197.234 92.272 197.002 95.688C196.777 99.047 198.078 102.083 199.14 105.183C197.226 102.383 195.83 98.248 192.884 96.295C189.799 94.249 187.339 97.309 187.364 100.432C187.394 104.077 190.141 107.752 192.113 110.701C189.776 108.521 186.754 105.44 183.261 105.558C180.835 105.64 178.297 110.958 183.026 116.116C186.268 119.659 190.674 119.716 195.044 120.105" fill="black" />
  <path fill-rule="evenodd" clip-rule="evenodd" d="M236.668 96.029C238.05 98.099 237.128 100.961 235.948 103.145C235.979 103.133 236.084 103.088 236.121 103.072C243.978 100.005 247.744 108.042 242.269 111.821C241.797 112.179 240.53 112.976 240.003 113.275C240.679 113.496 241.333 113.78 241.956 114.124C244.956 115.762 245.975 119.137 242.704 121.292C241.121 122.308 239.921 122.21 238.089 122.092C237.389 122.047 237.389 122.075 237.046 121.915C236.352 121.457 236.913 121.576 235.027 118.667C233.046 115.69 230.523 113.112 227.59 111.067C222.243 107.614 213.236 106.881 208.459 108.242C206.05 108.901 203.763 109.948 201.69 111.342C201.122 111.678 200.636 112.137 200.268 112.684C199.996 113.109 199.813 113.586 199.732 114.084C199.839 114.122 199.954 114.135 200.067 114.121C201.446 113.652 202.775 113.046 204.034 112.312C213.268 107.689 228.793 109.999 234.879 121.54C235.919 123.636 236.646 125.872 237.036 128.179C237.576 131.188 237.698 134.257 237.399 137.299C237.318 137.976 237.353 138.053 237.133 138.43C236.992 138.625 236.791 138.769 236.562 138.841C236.332 138.913 236.085 138.909 235.858 138.83C235.056 138.622 234.274 138.343 233.522 137.996C227.693 135.188 225.845 129.646 224.766 123.248C224.677 122.648 224.46 121.132 224.4 120.417C219.952 123.849 214.527 125.773 208.911 125.912C201.895 125.956 197.83 122.496 194.968 121.185C194.403 120.495 195.248 120.958 191.184 120.485C186.668 119.973 183.423 118.578 180.972 114.702C180.668 114.205 180.405 113.684 180.183 113.145C179.726 112.052 179.514 110.873 179.56 109.689C179.66 107.413 180.969 104.789 183.319 104.73C185.079 104.754 186.791 105.308 188.23 106.321C186.99 103.956 186.023 101.489 186.588 98.862C187.41 95.83 189.216 94.673 190.94 94.679C193.059 94.701 194.715 96.405 196.026 98.065C195.979 97.901 195.935 96.836 195.926 96.728C195.855 91.005 200.12 86.609 204.146 89.95C205.393 91.0675 206.388 92.4366 207.067 93.967C207.318 91.0998 208.287 88.3422 209.886 85.949C211.253 84.007 213.315 83.021 215.463 83.991C218.523 85.541 218.295 89.525 218.145 92.954C218.455 92.5017 218.791 92.0676 219.151 91.654C222.786 87.732 227.609 87.133 229.181 91.768C229.698 93.4092 229.864 95.1405 229.669 96.85C230.533 96.0614 231.549 95.4577 232.654 95.076C234.641 94.457 235.986 95.018 236.668 96.029ZM214.147 105.342C218.584 105.41 224.015 106.364 227.802 108.542C231.07 110.573 233.909 113.222 236.161 116.342C236.978 117.448 237.703 118.618 238.33 119.842C239.025 119.924 239.727 119.924 240.422 119.842C241.156 119.666 241.811 119.251 242.284 118.663L242.299 118.646L242.318 118.612L242.324 118.595L242.353 118.545L242.359 118.529L242.369 118.513V118.497L242.379 118.48C242.4 118.414 242.413 118.38 242.427 118.336V118.32L242.438 118.289V118.272L242.443 118.257V118.224L242.449 118.208L242.456 118.043V118.026V117.991V117.974V117.957V117.939V117.921C242.444 117.86 242.436 117.821 242.422 117.756L242.414 117.737V117.718V117.699L242.406 117.679V117.66L242.373 117.581C242.346 117.433 241.999 116.552 240.131 115.729C238.926 115.247 237.662 114.927 236.372 114.778C236.148 114.78 235.928 114.718 235.738 114.599C235.548 114.48 235.396 114.309 235.3 114.106C235.192 113.872 235.167 113.607 235.231 113.357C235.295 113.107 235.443 112.886 235.65 112.732C236.001 112.511 236.514 112.432 237.638 111.94C238.782 111.44 241.465 109.923 242.103 108.857C242.361 108.516 242.53 108.117 242.594 107.694C242.658 107.272 242.615 106.84 242.47 106.438C242.324 106.036 242.081 105.677 241.761 105.394C241.441 105.11 241.055 104.911 240.639 104.815C239.074 104.463 237.432 104.743 236.072 105.594C234.796 106.288 233.629 107.166 232.608 108.199C232.424 108.384 232.181 108.5 231.921 108.526C231.66 108.55 231.398 108.485 231.179 108.34C230.961 108.194 230.801 107.977 230.726 107.726C230.651 107.475 230.667 107.205 230.769 106.964C231.633 105.316 235.769 100.745 235.026 97.764L235 97.743C234.997 97.7251 234.993 97.7075 234.988 97.69L234.98 97.673V97.656L234.971 97.639V97.622L234.962 97.605V97.589C234.82 97.314 234.801 97.289 234.796 97.281L234.787 97.272V97.263L234.778 97.256V97.248L234.769 97.241V97.234L234.76 97.227L234.755 97.221L234.746 97.215V97.209L234.737 97.204V97.198H234.728H234.719V97.193H234.71V97.188L234.692 97.179L234.656 97.163C234.522 97.1127 234.378 97.0902 234.235 97.097C233.042 97.2688 231.938 97.827 231.093 98.686C227.348 102.428 227.614 104.795 225.845 104.292C225.607 104.202 225.407 104.035 225.276 103.817C225.145 103.6 225.091 103.344 225.123 103.092C225.287 102.348 227.187 99.416 227.476 96.684C227.654 94.984 227.52 92.212 226.189 91.12C225.089 90.25 223.111 91.249 222.041 92.101C220.026 93.587 218.591 96.634 217.755 99.001C217.321 100.21 217.385 100.388 216.768 100.716C216.524 100.816 216.254 100.828 216.002 100.752C214.247 100.041 216.049 98.14 216.016 90.062C216.01 88.674 215.778 86.644 214.516 86.047C214.224 85.9119 213.898 85.8686 213.581 85.923C212.799 86.1487 212.133 86.6655 211.721 87.367C209.353 90.873 209.221 94.618 208.909 99.144C208.861 99.865 208.882 100.132 208.443 100.538C208.247 100.69 208.006 100.772 207.758 100.771C207.51 100.77 207.269 100.685 207.075 100.531C206.375 99.864 206.806 99.248 205.375 95.479C205.316 95.352 205.121 94.843 204.943 94.515C204.311 93.173 202.804 91.003 201.31 90.969C200.905 91.0189 200.517 91.1623 200.177 91.3879C199.837 91.6135 199.554 91.9152 199.35 92.269C196.745 96.084 198.64 100.369 200.088 104.743C200.19 104.947 200.222 105.179 200.178 105.403C200.134 105.627 200.017 105.83 199.845 105.98C199.672 106.131 199.452 106.219 199.222 106.228C198.992 106.238 198.765 106.168 198.58 106.032C197.259 104.872 194.822 97.748 191.604 96.739C191.309 96.6309 190.992 96.599 190.681 96.6462C190.371 96.6934 190.077 96.8182 189.828 97.009C185.128 101.278 192.855 109.409 193.034 110.668C193.047 110.82 193.019 110.973 192.955 111.111C192.891 111.249 192.792 111.369 192.668 111.457C192.543 111.546 192.398 111.601 192.247 111.617C192.095 111.632 191.942 111.608 191.802 111.547C190.884 111.056 187.328 106.447 183.47 106.423C183.194 106.403 182.919 106.473 182.687 106.623C180.154 108.564 181.025 113.588 184.355 116.344C187.075 118.865 191.13 119.079 194.736 119.397C195.254 119.444 195.055 119.386 195.626 119.686L195.736 120.024C199.511 122.042 202.665 123.834 206.5 124.204C210.392 124.534 214.304 123.849 217.852 122.215C220.314 121.125 222.585 119.645 224.576 117.832C224.739 117.684 224.948 117.595 225.168 117.583C225.389 117.57 225.607 117.633 225.786 117.761C226.486 118.352 225.952 118.451 226.872 123.517C227.255 125.841 227.935 128.106 228.895 130.257C230.439 133.275 232.067 135.125 235.301 136.365C235.543 132.812 235.165 129.244 234.185 125.821C233.689 124.095 232.932 122.455 231.941 120.957C228.05 115.385 221.131 111.847 212.356 112.487C206.274 112.953 204.668 114.896 201.632 116.043C201.2 116.258 200.727 116.381 200.245 116.402C199.763 116.423 199.281 116.342 198.832 116.165C198.542 116.035 198.281 115.848 198.063 115.617C197.751 115.272 197.56 114.834 197.519 114.371C197.518 113.486 197.751 112.617 198.195 111.852C198.884 110.652 199.908 109.679 201.142 109.052C203.1 107.837 205.211 106.887 207.42 106.228C209.602 105.582 211.872 105.283 214.147 105.342Z" fill="black" />
  <path fill-rule="evenodd" clip-rule="evenodd" d="M184.779 186.852C185.089 187.498 184.979 187.063 185.127 188.503C185.453 191.592 185.604 194.697 185.578 197.803C185.821 209.975 185.916 209.036 186.005 217.619C185.905 225.864 186.005 224.994 185.205 225.398H185.2L184.716 225.188C184.421 224.521 184.502 224.9 184.384 223.488C183.657 214.765 183.74 213.588 183.57 208.35C183.215 193.35 183.195 193.629 183.361 190.838C183.443 189.448 183.619 187.446 183.633 187.338L183.862 186.85L184.318 186.644H184.327L184.779 186.852Z" fill="#BD1992" />
  <path fill-rule="evenodd" clip-rule="evenodd" d="M249.554 184L250.005 184.222L250.218 184.711C250.7 189.424 250.531 208.498 250.5 209.543C250.472 214.18 250.099 218.808 249.385 223.39C249.122 225.203 249.166 224.89 248.854 225.426L248.354 225.579H248.345C247.436 225.036 247.817 225.817 248.038 218.249C248.638 196.549 247.829 194.484 248.728 185.609C248.865 184.454 248.769 184.809 249.08 184.191L249.544 183.999L249.554 184Z" fill="#BD1992" />
  <path fill-rule="evenodd" clip-rule="evenodd" d="M217.34 218.03C217.968 219.23 217.708 218.498 217.965 221.554C218.115 222.514 218.035 223.496 217.73 224.419L217.452 224.974L217.068 225.215H217.059C216.548 224.954 216.719 225.115 216.326 224.487C216.024 223.807 215.835 223.083 215.765 222.343C215.753 222.212 215.513 219.372 215.57 218.999C215.62 218.776 215.697 218.559 215.8 218.355C216 217.938 215.813 218.187 216.632 217.341C216.643 217.35 217.327 218.015 217.34 218.03Z" fill="black" />
  <path fill-rule="evenodd" clip-rule="evenodd" d="M130.159 213.613C132.604 216.281 130.497 213.939 134.288 218.87C140.128 225.605 139.814 224.892 139.536 225.844L139.072 226.044L138.521 225.882C138.958 225.882 136.021 225.082 131.288 218.688C130.616 217.846 130.031 216.939 129.54 215.981C129.304 215.432 129.108 214.865 128.955 214.287C128.986 213.579 128.855 213.887 129.222 213.345H129.231L129.688 213.324L130.159 213.613Z" fill="black" />
  <path fill-rule="evenodd" clip-rule="evenodd" d="M135.125 205.274C135.705 205.931 136.24 206.627 136.725 207.357C139.656 212.634 140.217 213.177 141.361 215.064C143.4 218.737 143.05 217.872 143.22 218.707L142.989 219.153L142.496 219.253L141.991 218.992C141.554 218.541 140.477 217.444 139.876 216.666C137.974 214.022 136.253 211.253 134.722 208.378C134.383 207.579 134.111 206.754 133.908 205.91C133.938 205.221 133.836 205.465 134.202 204.978L134.663 204.97L135.125 205.274Z" fill="black" />
  <path fill-rule="evenodd" clip-rule="evenodd" d="M148.107 208.908L147.587 208.673C146.737 207.928 145.943 207.12 145.213 206.257C143.795 204.368 142.606 202.318 141.669 200.15C141.095 199.036 140.819 197.792 140.869 196.54C140.869 196.251 140.835 196.424 141.035 195.782L141.389 195.494H141.398L141.84 195.601C142.279 196.079 142.208 195.982 142.316 196.201C142.386 196.335 143.183 197.773 143.255 198.02C144.816 202.158 145.823 202.928 148.117 206.876C148.788 207.999 148.617 207.562 148.805 208.32L148.596 208.776V208.781L148.107 208.908Z" fill="black" />
  <path fill-rule="evenodd" clip-rule="evenodd" d="M157.672 195.8H157.681L158.024 196.174C158.044 198.609 151.274 211.316 152.071 231.05C152.135 234.091 152.543 238.527 152.684 240.259C153.944 252.34 154.407 251.572 154.142 252.795C154.133 252.795 153.712 253.095 153.705 253.095C153.698 253.095 153.196 252.987 153.189 252.985L152.876 252.539C151.595 247.253 150.672 241.887 150.112 236.477C149.603 230.253 149.692 223.994 150.378 217.787C150.668 215.017 151.478 211.066 151.496 210.957C152.352 206.552 153.771 202.274 155.718 198.231C156.86 195.843 156.711 196.184 157.165 195.788L157.672 195.8Z" fill="black" />
  <path fill-rule="evenodd" clip-rule="evenodd" d="M128.027 228.817L128.384 229.187C128.413 230.915 128.084 228.675 126.507 237.352C125.148 244.76 121.507 255.576 124.114 266.684C124.852 269.979 126.302 273.073 128.363 275.748C130.491 278.429 133.301 280.49 136.498 281.714C139.301 282.796 142.313 283.228 145.307 282.978C147.656 282.706 149.954 282.1 152.131 281.178C158.512 278.587 162.499 272.817 165.802 266.878C169.202 260.639 168.239 261.744 169.037 261.038L169.566 261.057L169.927 261.457C169.896 262.157 169.975 261.822 169.546 262.794C167.384 267.622 164.296 273.975 160.529 277.808C158.192 280.313 155.336 282.278 152.162 283.566C148.987 284.853 145.57 285.433 142.148 285.264C137.833 284.975 133.701 283.413 130.273 280.776C126.846 278.14 124.276 274.546 122.89 270.45C121.191 265.393 120.577 260.035 121.09 254.725C122.015 245.28 123.135 243.372 124.234 238.718C124.505 237.682 125.674 232.048 127.115 229.182L127.5 228.816H128.016L128.027 228.817Z" fill="black" />
  <path fill-rule="evenodd" clip-rule="evenodd" d="M179.332 191.443L179.579 191.906L179.411 192.406C178.882 192.695 179 192.66 178.688 192.706C174.417 193.315 169.723 196.427 166.303 199.068C160.403 203.614 156.818 208.668 152.503 214.573C152.495 214.58 152.064 214.88 152.056 214.886L151.556 214.841L151.547 214.836L151.247 214.436C151.291 213.789 151.264 213.936 151.361 213.718C152.931 210.129 155.111 206.839 157.806 203.996C160.537 200.893 163.622 198.12 166.999 195.735C168.912 194.344 171.005 193.22 173.221 192.394C173.328 192.358 174.996 191.787 175.155 191.787C176.353 191.485 177.579 191.311 178.813 191.269L179.332 191.443Z" fill="black" />
  <path fill-rule="evenodd" clip-rule="evenodd" d="M253.5 193.068C260.164 194.88 267.312 197.725 272.707 202.189C277.213 205.823 280.337 209.647 283.549 216.848C289.894 230.364 292.209 244.162 293.307 259.048C293.492 262.299 294.158 265.848 294.724 270.72C295.005 273.031 295.069 275.362 294.918 277.685L294.676 278.168L294.176 278.349H294.166L293.693 278.112L293.508 277.612C293.714 272.871 292.399 267.362 291.818 263.536C290.778 257.211 290.682 249.208 288.118 237.671C286.966 232.11 285.292 226.67 283.118 221.424C281.248 217.067 278.66 211.388 275.439 207.871C274.528 206.855 273.555 205.896 272.527 204.998C267.453 200.431 259.955 196.789 253.086 194.398L252.686 194.049C252.686 194.034 252.634 193.54 252.635 193.526L252.97 193.135L253.5 193.068Z" fill="black" />
  <path fill-rule="evenodd" clip-rule="evenodd" d="M264.271 283.141C263.827 282.629 263.944 282.898 263.157 281.106C262.657 279.952 262.815 280.418 261.107 274.539C260.844 273.751 260.761 272.915 260.864 272.091L261.343 271.237L262.198 271.716C262.532 272.203 262.825 272.717 263.075 273.252C263.134 273.407 264.735 278.835 264.888 279.546C264.968 279.897 265.133 281.098 265.145 281.271C265.257 282.571 265.278 282.149 265.123 282.915L264.759 283.245C264.745 283.244 264.284 283.144 264.271 283.141Z" fill="black" />
  <path fill-rule="evenodd" clip-rule="evenodd" d="M174.548 282.285C172.392 263.985 168.564 244.953 177.385 227.77C186.269 225.72 240.093 225.49 257.585 226.97C263.722 245.685 259.551 264.739 255.928 283.489" fill="#BD1992" fill-opacity="0.53" />
  <path fill-rule="evenodd" clip-rule="evenodd" d="M256.6 225.763C257.878 225.845 257.883 225.852 258.206 226.031C258.674 226.393 258.656 226.637 258.943 227.514C264.55 245.861 260.585 263.914 256.798 282.746C256.58 283.805 256.698 283.51 256.316 284.079L255.795 284.19H255.786L255.343 283.89C255.187 283.142 255.167 283.709 255.558 281.595C258.811 263.73 258.297 264.829 258.404 264.829C260.24 251.402 260.486 240.653 256.741 228.036C256.729 228.036 256.18 227.992 252.532 227.77C236.216 227.058 219.755 227.031 204.29 227.312C200.885 227.375 181.39 227.831 178.149 228.766C175.615 233.964 174.01 239.566 173.406 245.317C171.651 261.307 175.73 280.568 175.089 282.717L174.635 282.978H174.63L174.13 282.832L173.864 282.373C171.274 263.767 167.38 244.561 176.174 227.673C176.712 226.573 176.759 226.686 179.414 226.289C195.558 224.451 242.651 224.583 256.6 225.763Z" fill="#BD1992" />
  <path fill-rule="evenodd" clip-rule="evenodd" d="M158.07 111.508C158.613 111.533 159.151 111.616 159.676 111.755C160.47 111.911 161.214 112.258 161.844 112.765C162.474 113.272 162.972 113.924 163.295 114.666C164.379 117.073 162.687 119.384 159.379 118.788C158.03 118.576 156.757 118.026 155.679 117.188C153.252 115 154.462 111.489 158.07 111.508ZM158.62 113.366C158.219 113.44 157.831 113.569 157.465 113.748C157.394 113.78 157.325 113.815 157.258 113.855C156.858 114.08 156.873 114.114 156.776 114.221C156.766 114.233 156.756 114.246 156.747 114.26L156.742 114.265V114.272L156.732 114.283V114.289V114.295V114.301L156.722 114.313V114.325V114.331V114.337L156.717 114.343V114.349V114.355V114.368V114.374V114.387V114.394V114.414V114.421V114.46V114.468V114.53V114.541V114.582V114.594V114.617V114.629V114.654L156.725 114.68V114.694L156.733 114.722V114.736C156.744 114.774 156.756 114.823 156.765 114.861L156.773 114.876L156.786 114.918L156.794 114.933L156.802 114.961L156.811 114.975V114.989L156.819 115.003V115.016L156.845 115.058V115.072L156.897 115.156L156.91 115.17L156.927 115.198L156.94 115.212L156.949 115.226L156.962 115.24L156.971 115.254L156.997 115.283L157.006 115.297C157.926 116.274 160.406 116.917 161.19 116.454L161.228 116.432V116.426L161.247 116.416L161.256 116.406L161.266 116.401C161.305 116.363 161.291 116.378 161.314 116.356L161.323 116.348L161.332 116.339V116.3V116.294V116.282V116.276V116.269L161.337 116.262V116.255V116.248V116.241L161.347 116.226V116.2V116.191V116.173V116.164V116.153V116.143V116.133V116.122V116.074V116.061C161.367 115.766 161.313 115.47 161.191 115.2C160.893 114.41 160.34 113.741 159.62 113.3H159.611C159.279 113.272 158.945 113.294 158.62 113.366Z" fill="#010000" />
  <path fill-rule="evenodd" clip-rule="evenodd" d="M167.064 179.43C165.202 178.806 163.532 177.711 162.218 176.251C158.956 181.358 155.874 185.565 151.857 191.206C150.957 192.47 148.979 195.551 149.987 197.186C151.664 199.918 154.828 195.714 155.971 194.137C160.35 188.069 162.313 185.451 167.083 179.359" fill="black" />
  <path fill-rule="evenodd" clip-rule="evenodd" d="M162.4 175.251C162.856 175.384 162.89 175.481 163.195 175.84C164.247 177.048 165.553 178.009 167.019 178.654L167.532 178.784L167.783 179.251C167.689 179.589 167.703 179.496 167.715 179.657L167.655 179.717L167.636 179.787C157.268 194.087 156.815 195.187 154.983 197.135C154.12 198.218 152.897 198.954 151.536 199.209C151.06 199.231 150.586 199.126 150.164 198.904C149.742 198.682 149.387 198.351 149.136 197.946C148.818 197.429 148.627 196.843 148.578 196.238C148.529 195.633 148.624 195.025 148.854 194.463C149.607 192.009 151.527 189.752 155.764 183.775C161.83 175.048 161.441 175.165 162.4 175.251ZM151.089 194.916C150.898 195.376 150.822 195.875 150.87 196.371V196.39C150.882 196.43 150.893 196.458 150.912 196.516L150.917 196.525L150.927 196.543V196.552V196.557V196.566C150.969 196.634 151.015 196.698 151.066 196.759C151.094 196.795 151.145 196.849 151.146 196.85H151.156L151.165 196.859L151.171 196.867H151.18H151.19L151.204 196.879H151.214L151.224 196.888L151.234 196.897H151.243L151.262 196.905H151.271H151.281H151.29H151.308L151.419 196.897L151.432 196.891H151.45L151.464 196.885H151.478H151.486H151.5L151.514 196.879H151.527L151.568 196.863H151.581C151.623 196.849 151.603 196.853 151.645 196.84L151.658 196.83C151.752 196.794 151.843 196.75 151.93 196.699C153.462 195.791 155.108 193.291 156.181 191.813C159.037 187.854 162.839 183.259 165.787 179.713C165.263 179.521 164.753 179.292 164.261 179.029C163.604 178.687 162.984 178.278 162.411 177.809C157.923 185.262 151.911 192.326 151.084 194.916H151.089Z" fill="#010000" />
  <path fill-rule="evenodd" clip-rule="evenodd" d="M182.776 120.14C190.936 120.361 198.687 123.762 204.376 129.616C210.065 135.471 213.241 143.316 213.228 151.479C213.229 154.248 212.886 157.006 212.207 159.691V159.705C210.276 167.19 205.719 173.731 199.368 178.136C193.017 182.542 185.294 184.518 177.607 183.705C174.928 183.444 172.295 182.83 169.776 181.88C163.71 179.627 158.461 175.601 154.713 170.326C150.965 165.051 148.891 158.77 148.759 152.3C148.672 147.435 149.717 142.616 151.81 138.224C153.227 135.25 155.095 132.512 157.347 130.108C160.571 126.652 164.529 123.962 168.93 122.237C173.33 120.512 178.062 119.795 182.776 120.14ZM177.796 122.669C172.893 123.303 168.232 125.173 164.25 128.102C160.269 131.032 157.097 134.926 155.033 139.418C152.957 143.961 152.097 148.966 152.539 153.942C153.131 161.187 156.468 167.933 161.868 172.801C167.267 177.668 174.322 180.29 181.59 180.13C188.858 179.971 195.79 177.042 200.971 171.941C206.151 166.841 209.189 159.956 209.462 152.691C209.519 151.003 209.434 149.314 209.208 147.64C208.757 144.405 207.746 141.274 206.22 138.387C203.404 132.887 198.932 128.41 193.435 125.587C188.657 123.001 183.189 121.98 177.8 122.669H177.796ZM182.776 120.143C182.341 120.134 182.339 120.133 182.776 120.143V120.143Z" fill="#010000" />
  <path d="M190.794 148.377C190.927 145.329 189.182 142.778 186.896 142.678C184.61 142.579 182.649 144.969 182.516 148.017C182.383 151.064 184.129 153.616 186.414 153.716C188.7 153.815 190.661 151.425 190.794 148.377Z" fill="black" />
  <path fill-rule="evenodd" clip-rule="evenodd" d="M186.8 141.494C187.492 141.465 188.184 141.559 188.843 141.772C191.157 142.658 192.81 145.032 192.669 148.278C192.646 149.173 192.494 150.06 192.218 150.912C191.912 151.966 191.352 152.929 190.586 153.716C189.821 154.503 188.873 155.09 187.828 155.425C186.97 155.643 186.071 155.637 185.216 155.407C184.362 155.178 183.58 154.734 182.946 154.116C182.168 153.372 181.57 152.46 181.197 151.45C179.433 146.884 182.293 141.3 186.8 141.494ZM186.854 143.841C184.62 144.241 183.983 147.399 184.535 149.596C184.61 150.089 184.813 150.553 185.123 150.944C185.434 151.334 185.841 151.636 186.304 151.82H186.327L186.345 151.826H186.368H186.391H186.409L186.432 151.832H186.561H186.584H186.607H186.625H186.649H186.667H186.69C187.116 151.709 187.506 151.486 187.827 151.179C188.147 150.873 188.389 150.494 188.531 150.074C189.608 147.688 188.307 144.253 186.855 143.823L186.854 143.841Z" fill="#010000" />
  <path fill-rule="evenodd" clip-rule="evenodd" d="M202.778 141.66L202.921 142.187C202.87 144.262 202.695 146.333 202.398 148.387C201.99 151.622 202.005 153.279 201.052 161.28C200.824 162.16 200.706 163.064 200.7 163.973L200.707 164.02V164.043C200.72 164.137 200.744 164.229 200.778 164.318L200.787 164.327V164.341L200.796 164.351V164.365L200.804 164.379L200.813 164.389C200.937 164.597 201.301 164.76 201.906 164.889C202.256 164.955 202.045 164.865 202.648 165.198L202.825 165.68V165.685L202.584 166.144C202.019 166.359 202.128 166.35 201.756 166.334C201.257 166.368 200.758 166.272 200.306 166.057C199.855 165.842 199.466 165.515 199.178 165.106C198.936 164.659 198.799 164.163 198.778 163.655C198.654 160.936 199.525 155.091 199.722 152.579C199.858 151.329 199.736 151.328 200.339 146.658C200.583 145.039 200.994 143.45 201.564 141.915L201.9 141.492L202.375 141.379C202.39 141.379 202.765 141.651 202.778 141.66Z" fill="#010000" />
  <path fill-rule="evenodd" clip-rule="evenodd" d="M177.366 127.454C178.478 127.445 179.574 127.73 180.541 128.279C180.97 128.527 181.34 128.867 181.623 129.275C181.907 129.682 182.097 130.147 182.18 130.636C182.817 134.736 175.995 138.905 173.005 141.459C171.294 142.973 169.778 144.395 167.505 144.707C164.351 144.885 163.34 141.785 163.841 138.696C163.98 137.852 164.265 137.038 164.683 136.291C166.568 132.678 169.675 129.852 173.449 128.316C174.894 127.733 174.677 127.816 175.192 127.839L175.43 127.669C176.064 127.517 176.714 127.445 177.366 127.454ZM175.707 129.054L175.401 128.986C172.914 130.343 170.687 132.128 168.822 134.26C167.815 135.373 166.987 136.637 166.369 138.005C166.106 138.644 165.973 139.328 165.977 140.019C165.981 140.709 166.122 141.392 166.392 142.028V142.042L166.405 142.056L166.422 142.085L166.431 142.094L166.448 142.123L166.457 142.132L166.466 142.146L166.483 142.166L166.492 142.18L166.501 142.189L166.514 142.199V142.209L166.528 142.218L166.563 142.257H166.572L166.589 142.276H166.598L166.607 142.286H166.616L166.625 142.295H166.634L166.643 142.305L166.67 142.32L166.678 142.329L166.768 142.379H166.782C166.795 142.387 166.809 142.394 166.823 142.399H166.832C166.84 142.401 166.848 142.405 166.855 142.409H166.868H166.877H166.891C166.898 142.413 166.906 142.417 166.914 142.419H166.941L166.955 142.425H166.982H166.996L167.185 142.433H167.203H167.226H167.245H167.268H167.286C167.756 142.361 168.209 142.206 168.624 141.975C169.325 141.576 169.979 141.101 170.575 140.558C175.39 136.438 177.836 135.193 179.675 132.532C179.829 132.299 179.963 132.054 180.075 131.799C180.16 131.608 180.218 131.406 180.248 131.199L180.254 131.177V131.131V131.112L180.26 130.984V130.965V130.905V130.887V130.868L180.252 130.831V130.813L180.244 130.775V130.757C180.23 130.691 180.22 130.648 180.214 130.613L180.205 130.599L180.197 130.562L180.189 130.547V130.529L180.18 130.515V130.496C180.174 130.485 180.168 130.474 180.163 130.463V130.444C180.029 130.16 179.819 129.917 179.557 129.744C179.449 129.666 179.337 129.593 179.221 129.527L179.193 129.516L179.171 129.502C178.088 129.008 176.88 128.851 175.707 129.054Z" fill="#010000" />
  <path fill-rule="evenodd" clip-rule="evenodd" d="M163.742 150.7C164.276 151.024 164.186 150.939 164.242 151.1C164.483 151.079 164.331 151.064 164.6 151.139C164.921 151.243 165.229 151.384 165.517 151.561C166.118 151.954 166.625 152.474 167.003 153.084C167.381 153.694 167.62 154.38 167.703 155.093C167.884 156.29 167.743 157.513 167.295 158.637C167.051 159.37 166.638 160.034 166.088 160.576C165.539 161.118 164.868 161.523 164.132 161.756C163.397 161.99 162.616 162.046 161.854 161.92C161.092 161.794 160.371 161.489 159.75 161.031C157.739 159.666 157.232 156.777 158.044 154.497C158.27 153.654 158.697 152.878 159.29 152.237C159.882 151.596 160.621 151.108 161.444 150.816C162.187 150.581 162.979 150.541 163.742 150.7ZM163.562 152.079C163.112 152.111 162.675 152.243 162.283 152.466C161.691 152.837 161.192 153.339 160.824 153.932C160.604 154.241 160.425 154.577 160.292 154.932C160.202 155.189 160.124 155.45 160.06 155.714C159.717 157.105 160.117 158.837 161.424 159.395C162.056 159.713 162.784 159.784 163.466 159.595C163.873 159.429 164.239 159.179 164.542 158.861C164.845 158.543 165.077 158.164 165.223 157.75C165.351 157.466 165.455 157.172 165.533 156.87C165.654 156.397 165.714 155.91 165.711 155.422C165.714 154.871 165.599 154.326 165.376 153.822C165.1 153.187 164.593 152.68 163.958 152.405L163.618 152.073C163.6 152.078 163.581 152.081 163.562 152.082V152.079Z" fill="#010000" />
  <path fill-rule="evenodd" clip-rule="evenodd" d="M25.88 134.558C28.6771 134.645 31.4396 135.203 34.051 136.209C37.604 137.491 36.979 137.209 37.503 137.673L37.564 138.173L37.559 138.182L37.228 138.568L36.7 138.642C33.3875 137.715 29.9929 137.113 26.564 136.842C25.6196 136.719 24.6596 136.851 23.783 137.223L23.759 137.231C23.1169 137.622 22.5806 138.165 22.197 138.812H22.192C21.368 140.323 20.7754 141.95 20.434 143.637C19.4549 147.964 19.1307 152.414 19.472 156.837C19.658 159.477 20.095 162.769 22.131 164.437C24.631 166.492 29.643 165.937 32.873 165.426C35.632 165.033 34.862 164.974 35.746 165.174L36.046 165.611L35.931 166.127L35.485 166.435C33.1324 167.023 30.7449 167.462 28.337 167.749C25.176 168.078 21.41 167.458 19.517 164.923C16.191 160.932 16.886 149.123 18.038 143.997C18.732 140.887 19.695 137.197 22.355 135.44C22.8238 135.132 23.3395 134.902 23.882 134.76C24.5359 134.603 25.2079 134.535 25.88 134.558Z" fill="#010000" />
  <path fill-rule="evenodd" clip-rule="evenodd" d="M26.44 138.213C27.228 139.014 27.8448 139.966 28.253 141.013C29.106 143.231 29.211 146.637 29.218 149.013C29.176 152.054 28.7906 155.08 28.069 158.034V158.043C27.748 159.278 27.848 158.853 27.739 159.264C27.152 160.997 26.583 162.756 25.019 163.864L24.493 163.998L24.033 163.752L23.907 163.258L24.15 162.766C25.05 161.959 25.527 159.96 25.734 158.766C26.627 153.866 27.319 150.366 26.807 145.125C26.623 143.363 26.283 141.737 26.255 141.625C26.1008 140.725 25.7991 139.857 25.362 139.056L25.257 138.522L25.478 138.089L25.958 137.972L26.44 138.213Z" fill="#010000" />
  <path fill-rule="evenodd" clip-rule="evenodd" d="M27.273 141.4C24.707 145.294 24.335 149.269 24.119 153.412C24.0727 154.284 24.0884 155.158 24.166 156.027C24.242 156.827 24.261 159.339 25.037 159.927C25.149 160.015 25.637 159.557 25.726 159.46C27.715 157.317 27.848 149.073 27.855 146.136C27.846 145.596 27.879 142.087 26.697 142.57" fill="black" />
  <path fill-rule="evenodd" clip-rule="evenodd" d="M27.649 140.819L27.658 140.824L27.925 141.245C27.833 141.945 27.901 141.667 27.695 142.092C28.588 142.787 28.748 145.247 28.779 146.382C28.996 149.85 28.823 156.654 27.022 159.635C26.399 160.578 25.344 161.494 24.38 160.842C23.462 160.151 23.229 158.629 23.139 157.401C23.0153 156.199 22.9619 154.99 22.979 153.782C23.204 148.621 23.562 145.099 26.7 141.021V141.016L27.159 140.737L27.649 140.819ZM25.384 151.243C25.2633 152.493 25.2132 153.749 25.234 155.005C25.234 155.174 25.386 157.49 25.444 157.783C26.614 154.73 27.066 145.771 26.904 143.956C26.096 146.312 25.5854 148.76 25.384 151.243Z" fill="#010000" />
  <path fill-rule="evenodd" clip-rule="evenodd" d="M55.7 132.942C55.753 132.954 74.312 137.7 74.882 137.864C80.056 139.274 81.246 139.607 82.52 140.22C83.5235 140.68 84.4031 141.372 85.086 142.239C86.475 144.034 86.886 146.763 86.997 149.026C87.0589 150.293 86.9618 151.562 86.708 152.805C86.3171 154.363 85.8332 155.895 85.259 157.395L84.91 157.795L84.396 157.851C84.389 157.843 84.004 157.517 83.996 157.511C83.885 156.547 83.832 157.711 84.866 153.511C85.0287 152.785 85.1291 152.046 85.166 151.303C85.266 148.995 84.738 144.881 83.193 143.403C82.101 141.603 71.761 139.439 60.793 136.603C56.778 135.564 50.78 133.739 46.644 134.074C45.8129 134.16 45.0392 134.538 44.46 135.14C43.9584 135.636 43.4907 136.165 43.06 136.724C42.0301 138.081 41.1704 139.558 40.5 141.124C39.1983 144.247 38.4098 147.559 38.165 150.933C37.8836 154.144 38.1285 157.379 38.89 160.511C39.1914 161.845 39.7835 163.097 40.624 164.176C43.43 167.567 50.712 166.66 55.075 166.229H55.08L55.598 166.385L55.864 166.844V166.853L55.718 167.362L55.245 167.632C54.785 167.612 48.955 168.823 44.366 168.089C38.225 167.107 36.888 162.537 36.01 156.519C35.3025 149.992 36.6023 143.404 39.736 137.635C40.7956 135.709 42.2326 134.017 43.961 132.659C44.5028 132.337 45.0915 132.1 45.706 131.959C48.512 131.377 51.94 132.129 55.7 132.942Z" fill="#010000" />
  <path fill-rule="evenodd" clip-rule="evenodd" d="M35.162 146.246V146.228L35.189 146.243L35.221 146.253V146.235L35.28 146.256V146.233C35.2977 146.24 35.3161 146.246 35.335 146.249V146.226L35.376 146.237L35.368 146.213L35.413 146.225L35.405 146.201H35.446L35.438 146.178H35.475L35.467 146.155L35.48 146.16H35.499L35.486 146.136H35.5H35.513L35.496 146.112H35.5H35.513C35.5078 146.104 35.5021 146.096 35.496 146.088L35.487 146.079H35.492H35.487L35.496 146.088L35.487 146.079L35.496 146.088V146.083L35.504 146.093H35.513L35.522 146.103H35.531V146.108L35.567 146.128H35.576C35.8412 146.218 36.1122 146.289 36.387 146.343C36.618 146.443 36.65 146.509 36.827 146.597C37.314 146.985 36.727 146.415 37.877 147.569C37.002 148.23 36.931 148.356 36.177 148.536C36.0499 148.556 35.92 148.551 35.795 148.52C34.9638 148.425 34.198 148.023 33.647 147.394V147.389C33.5612 147.216 33.5214 147.024 33.5314 146.832C33.5414 146.639 33.6008 146.452 33.704 146.289L35.086 146.189L35.162 146.246Z" fill="#010000" />
  <path fill-rule="evenodd" clip-rule="evenodd" d="M37.188 155.77C37.488 155.938 37.195 155.681 38.093 156.593C37.7049 157.024 37.2334 157.372 36.707 157.615L36.566 157.678H36.561C36.5162 157.692 36.4725 157.708 36.43 157.728C36.0637 157.77 35.7094 157.884 35.388 158.065L35.373 158.078L35.359 158.087H35.354L35.331 158.1L35.317 158.113L35.288 158.13L35.274 158.144L35.26 158.152L35.235 158.174L35.197 158.209L35.182 158.218L35.149 158.249H35.139H35.121L35.102 158.257H35.093H35.079C35.079 158.257 34.709 158.266 34.691 158.267C34.441 158.256 34.786 158.45 33.403 157.492V157.483C33.439 156.657 33.55 156.612 33.994 156.274C34.3384 156.026 34.7202 155.834 35.125 155.706C35.4505 155.557 35.8061 155.485 36.164 155.496C36.5219 155.507 36.8724 155.601 37.188 155.77Z" fill="#010000" />
  <path fill-rule="evenodd" clip-rule="evenodd" d="M48.082 135.968L48.112 136.007H48.121C49.1473 137.118 49.9283 138.433 50.413 139.866C50.687 140.82 50.635 140.488 50.63 140.594C50.665 140.728 50.755 141.13 50.778 141.237C51.3333 144.028 51.5172 146.88 51.325 149.719C51.161 152.841 50.4948 155.915 49.352 158.825C48.452 160.99 47.316 163.996 44.979 164.225C44.379 164.199 44.621 164.305 43.969 163.925L43.812 163.425V163.416L44.071 162.971L44.585 162.796H44.622H44.636H44.668H44.682H44.7H44.714H44.728H44.742H44.756H44.765H44.779L44.821 162.784H44.835C44.835 162.784 44.942 162.747 44.97 162.739L44.98 162.73C44.9879 162.728 44.9956 162.725 45.003 162.722L45.017 162.713H45.031C45.039 162.713 45.067 162.695 45.079 162.688L45.088 162.679C45.266 162.628 45.641 162.263 46.045 161.536V161.527C46.5259 160.529 46.9165 159.49 47.212 158.422C48.0018 156.254 48.5569 154.008 48.868 151.722C49.2086 149.116 49.2244 146.479 48.915 143.869C48.7766 142.729 48.5706 141.598 48.298 140.483C48.0321 139.203 47.5881 137.966 46.979 136.809L46.879 136.275L47.115 135.843L47.599 135.735L48.082 135.968Z" fill="#010000" />
  <path fill-rule="evenodd" clip-rule="evenodd" d="M48.623 139.2C45.741 140.627 44.586 143.871 43.9 146.8C43.423 148.817 42.967 154.047 43.362 155.876C43.725 157.748 45.123 161.514 46.712 160.197C49.812 157.627 49.92 148.412 49.774 144.379C49.719 142.797 49.616 140.728 48.425 139.506" fill="black" />
  <path fill-rule="evenodd" clip-rule="evenodd" d="M49.24 138.885V138.894L49.265 139.383C49.9522 140.301 50.3776 141.388 50.496 142.529C50.6774 143.971 50.7849 145.421 50.818 146.874C50.987 150.197 50.6557 153.526 49.835 156.75C49.3 158.74 47.946 161.695 45.928 161.607C44.203 161.531 43.189 159.232 42.652 157.589C42.071 155.567 41.924 155.023 42.224 150.609C42.27 149.557 42.555 147.788 42.6 147.474C43.334 143.733 44.757 140.164 48.244 138.606C48.351 138.566 48.231 138.584 48.844 138.564L49.24 138.885ZM44.826 147.879C44.5726 149.46 44.4183 151.055 44.364 152.655C44.3256 153.597 44.3493 154.54 44.435 155.478C44.6676 156.85 45.2059 158.152 46.01 159.288L46.024 159.298C46.1703 159.171 46.3042 159.03 46.424 158.877C48.733 156.241 49.174 144.134 48.686 141.749C48.6256 141.428 48.5328 141.114 48.409 140.811C48.3455 140.651 48.2689 140.496 48.18 140.349C46.191 142.182 45.432 145 44.826 147.879Z" fill="#010000" />
  <path fill-rule="evenodd" clip-rule="evenodd" d="M48.105 143.986C48.1415 144.595 48.0296 145.204 47.779 145.76C46.479 149.289 47.254 148.268 45.888 151.829L45.545 152.303L45.1 152.463H45.091L44.7 152.2C44.5264 151.862 44.4401 151.486 44.449 151.106C44.3922 150.512 44.3922 149.913 44.449 149.319C44.7199 147.824 45.1307 146.358 45.676 144.94C45.8385 144.439 46.139 143.994 46.543 143.656C46.954 143.279 46.682 143.417 47.804 143.056L48.105 143.986Z" fill="white" />
  <path fill-rule="evenodd" clip-rule="evenodd" d="M27.1 149.728C27.0793 150.475 26.9046 151.209 26.587 151.885C26.373 152.376 26.578 152.114 25.674 152.947C24.954 152.025 25.048 152.229 24.944 151.747C24.7077 150.638 24.7182 149.49 24.975 148.385C25.104 147.158 25.099 147.136 25.2 146.916C25.3372 146.675 25.4905 146.443 25.659 146.222L26.427 145.615C27.589 147.073 27.413 146.783 27.1 149.728Z" fill="white" />
  <path fill-rule="evenodd" clip-rule="evenodd" d="M87.426 149.446C88.1715 149.4 88.9081 149.627 89.499 150.084C91.118 151.267 91.399 153.784 91.128 155.726C90.665 158.937 88.579 160.503 86.234 160.401C85.8245 160.368 85.423 160.27 85.045 160.109L84.645 159.728C84.645 159.721 84.583 159.228 84.584 159.228L84.918 158.86C85.939 158.7 85.973 158.854 86.526 158.645C86.844 158.539 87.1389 158.373 87.395 158.157C87.9371 157.71 88.3583 157.135 88.62 156.483C89.067 155.403 89.139 152.773 88.306 152.051V152.042L88.293 152.032L88.277 152C88.271 152 88.139 151.881 88.135 151.879C88.0762 151.844 88.0195 151.806 87.965 151.765H87.956C87.8259 151.672 87.6895 151.587 87.548 151.512C87.3717 151.406 87.1838 151.32 86.988 151.257C86.739 151.157 86.232 151.007 86.124 150.976L85.648 150.683L85.464 150.26L85.685 149.855L86.185 149.6H86.208C86.6074 149.505 87.0157 149.454 87.426 149.446Z" fill="black" />
  <path fill-rule="evenodd" clip-rule="evenodd" d="M126.458 192.719C126.61 193.585 126.814 193.249 123.601 196.003C122.138 197.275 114.933 202.752 110.841 205.362C110.822 205.376 110.582 205.547 110.57 205.553L110.047 205.719L109.593 205.566L109.424 205.121L109.58 204.593V204.588C109.68 204.47 109.562 204.569 110.407 203.496C111.356 202.401 112.466 201.457 113.699 200.696C118.991 196.93 119.544 195.904 125.447 192.564L126.009 192.464L126.458 192.719Z" fill="black" />
  <path fill-rule="evenodd" clip-rule="evenodd" d="M212.642 262.908C213.168 263.204 213.666 263.55 214.127 263.94C216.227 266.33 217.756 267.249 219.571 269.071C220.345 269.851 220.002 269.361 220.46 270.128L220.416 270.609L220.004 270.868L219.425 270.82C218.462 270.47 217.544 270.005 216.693 269.434C215.476 268.474 214.329 267.429 213.259 266.308C212.487 265.643 211.914 264.778 211.603 263.808L211.594 263.794L211.678 262.821L212.642 262.908Z" fill="black" />
</svg>
