<?xml version="1.0" encoding="UTF-8"?>
<svg viewBox="0 0 191 76" xmlns="http://www.w3.org/2000/svg">
  <path d="m88.968 53.097h59.312v13.585h-59.312v-13.585z" fill="#3A55D1"/>
  <path d="m97.936 57.891c0 1.0655-0.7103 2.2198-2.4861 2.2198h-0.5328v2.5749h-0.8879v-7.192h1.5095c1.4206 0 2.3973 0.8879 2.3973 2.3085v0.0888zm-0.9767 0c0-0.8879-0.5327-1.4206-1.5094-1.4206h-0.5328v2.8413h0.5328c1.0655 0 1.5094-0.6216 1.5094-1.4207z"/>
  <path d="m97.936 57.891c0 1.0655-0.7103 2.2198-2.4861 2.2198h-0.5328v2.5749h-0.8879v-7.192h1.5095c1.4206 0 2.3973 0.8879 2.3973 2.3085v0.0888zm-0.9767 0c0-0.8879-0.5327-1.4206-1.5094-1.4206h-0.5328v2.8413h0.5328c1.0655 0 1.5094-0.6216 1.5094-1.4207z" fill="#fff"/>
  <path d="m102.64 57.003h-0.888l-0.711-0.8879-0.621 0.8879h-0.8881l1.1541-1.5982h0.799l1.155 1.5982zm-1.687 0.5327c0.71 0 1.243 0.1776 1.687 0.6216 0.444 0.5327 0.71 1.1542 0.71 1.9533 0 0.8879-0.266 1.5095-0.71 2.0422-0.444 0.3552-0.977 0.6215-1.776 0.6215-0.622 0-1.1545-0.1775-1.5985-0.6215-0.4439-0.4439-0.7103-1.1543-0.7103-2.0422 0-0.7991 0.2664-1.4206 0.7103-1.9533 0.444-0.444 0.9765-0.6216 1.6875-0.6216zm0 0.7103c-0.888 0-1.4211 0.7992-1.4211 1.8646 0 1.1543 0.5331 1.8646 1.4211 1.8646 0.887 0 1.42-0.7103 1.42-1.7758 0.089-1.1542-0.533-2.0421-1.42-2.0421v0.0887z"/>
  <path d="m102.64 57.003h-0.888l-0.711-0.8879-0.621 0.8879h-0.8881l1.1541-1.5982h0.799l1.155 1.5982zm-1.687 0.5327c0.71 0 1.243 0.1776 1.687 0.6216 0.444 0.5327 0.71 1.1542 0.71 1.9533 0 0.8879-0.266 1.5095-0.71 2.0422-0.444 0.3552-0.977 0.6215-1.776 0.6215-0.622 0-1.1545-0.1775-1.5985-0.6215-0.4439-0.4439-0.7103-1.1543-0.7103-2.0422 0-0.7991 0.2664-1.4206 0.7103-1.9533 0.444-0.444 0.9765-0.6216 1.6875-0.6216zm0 0.7103c-0.888 0-1.4211 0.7992-1.4211 1.8646 0 1.1543 0.5331 1.8646 1.4211 1.8646 0.887 0 1.42-0.7103 1.42-1.7758 0.089-1.1542-0.533-2.0421-1.42-2.0421v0.0887z" fill="#fff"/>
  <path d="m106.28 62.597-0.71 0.1776c-0.711 0-0.888-0.444-0.888-0.9767v-6.6593h0.888v6.2153c0 0.444 0.088 0.5328 0.355 0.5328h0.355v0.7103z"/>
  <path d="m106.28 62.597-0.71 0.1776c-0.711 0-0.888-0.444-0.888-0.9767v-6.6593h0.888v6.2153c0 0.444 0.088 0.5328 0.355 0.5328h0.355v0.7103z" fill="#fff"/>
  <path d="m111.16 60.377h-3.285c0 0.8879 0.622 1.5983 1.598 1.5983 0.444 0 0.888-0.1776 1.244-0.3552l0.266 0.6215c-0.444 0.3552-1.066 0.5328-1.687 0.5328-1.598 0-2.397-1.3319-2.397-2.6637 0-1.5095 0.887-2.6637 2.131-2.6637 1.331 0 2.13 1.0654 2.13 2.6637v0.2663zm-0.976-0.7991c0-0.6215-0.444-1.3318-1.154-1.3318-0.711 0-1.155 0.6215-1.155 1.3318h2.309z"/>
  <path d="m111.16 60.377h-3.285c0 0.8879 0.622 1.5983 1.598 1.5983 0.444 0 0.888-0.1776 1.244-0.3552l0.266 0.6215c-0.444 0.3552-1.066 0.5328-1.687 0.5328-1.598 0-2.397-1.3319-2.397-2.6637 0-1.5095 0.887-2.6637 2.131-2.6637 1.331 0 2.13 1.0654 2.13 2.6637v0.2663zm-0.976-0.7991c0-0.6215-0.444-1.3318-1.154-1.3318-0.711 0-1.155 0.6215-1.155 1.3318h2.309z" fill="#fff"/>
  <path d="m118.89 60.377h-3.196c0 0.8879 0.532 1.5983 1.509 1.5983 0.444 0 0.888-0.1776 1.243-0.3552l0.267 0.6215c-0.444 0.3552-1.066 0.5328-1.687 0.5328-1.599 0-2.398-1.3319-2.398-2.6637 0-1.5095 0.888-2.6637 2.131-2.6637 1.332 0 2.131 1.0654 2.131 2.6637v0.2663zm-1.065-0.7991c0-0.6215-0.355-1.3318-1.155-1.3318-0.71 0-1.154 0.6215-1.154 1.3318h2.309z"/>
  <path d="m118.89 60.377h-3.196c0 0.8879 0.532 1.5983 1.509 1.5983 0.444 0 0.888-0.1776 1.243-0.3552l0.267 0.6215c-0.444 0.3552-1.066 0.5328-1.687 0.5328-1.599 0-2.398-1.3319-2.398-2.6637 0-1.5095 0.888-2.6637 2.131-2.6637 1.332 0 2.131 1.0654 2.131 2.6637v0.2663zm-1.065-0.7991c0-0.6215-0.355-1.3318-1.155-1.3318-0.71 0-1.154 0.6215-1.154 1.3318h2.309z" fill="#fff"/>
  <path d="m127.41 62.597h-0.888v-3.1077c0-0.6215-0.177-1.0655-0.888-1.0655-0.532 0-1.065 0.3552-1.42 0.7104v3.4628h-0.888v-3.1077c0-0.7103-0.178-1.1543-0.888-1.1543-0.533 0-1.066 0.3552-1.421 0.7104v3.5516h-0.888v-4.8835h0.711l0.088 0.6215c0.711-0.5327 1.243-0.7103 1.776-0.7103 0.622 0 1.154 0.2664 1.332 0.7991 0.533-0.5327 1.243-0.8879 1.776-0.8879 0.888 0 1.598 0.444 1.598 1.687v3.5517-0.1776z"/>
  <path d="m127.41 62.597h-0.888v-3.1077c0-0.6215-0.177-1.0655-0.888-1.0655-0.532 0-1.065 0.3552-1.42 0.7104v3.4628h-0.888v-3.1077c0-0.7103-0.178-1.1543-0.888-1.1543-0.533 0-1.066 0.3552-1.421 0.7104v3.5516h-0.888v-4.8835h0.711l0.088 0.6215c0.711-0.5327 1.243-0.7103 1.776-0.7103 0.622 0 1.154 0.2664 1.332 0.7991 0.533-0.5327 1.243-0.8879 1.776-0.8879 0.888 0 1.598 0.444 1.598 1.687v3.5517-0.1776z" fill="#fff"/>
  <path d="m133.18 60.111c0 1.687-1.243 2.6637-2.575 2.6637-0.355 0-0.532 0-0.799-0.1776v2.6637h-0.888v-7.5472c0.356-0.0888 0.888-0.2663 1.776-0.2663 1.51 0 2.486 0.8879 2.486 2.5749v0.0888zm-0.888 0c0-1.2431-0.887-1.7758-1.775-1.7758l-0.711 0.0888v3.374l0.799 0.1776c0.977 0 1.599-0.7104 1.599-1.8646h0.088z"/>
  <path d="m133.18 60.111c0 1.687-1.243 2.6637-2.575 2.6637-0.355 0-0.532 0-0.799-0.1776v2.6637h-0.888v-7.5472c0.356-0.0888 0.888-0.2663 1.776-0.2663 1.51 0 2.486 0.8879 2.486 2.5749v0.0888zm-0.888 0c0-1.2431-0.887-1.7758-1.775-1.7758l-0.711 0.0888v3.374l0.799 0.1776c0.977 0 1.599-0.7104 1.599-1.8646h0.088z" fill="#fff"/>
  <path d="m136.12 62.597-0.8 0.1776c-0.621 0-0.887-0.444-0.887-0.9767v-6.6593h0.887v6.2153c0 0.444 0.089 0.5328 0.356 0.5328h0.355l0.089 0.7103z"/>
  <path d="m136.12 62.597-0.8 0.1776c-0.621 0-0.887-0.444-0.887-0.9767v-6.6593h0.887v6.2153c0 0.444 0.089 0.5328 0.356 0.5328h0.355l0.089 0.7103z" fill="#fff"/>
  <path d="m139.13 57.536c0.622 0 1.243 0.1776 1.599 0.6216 0.444 0.5327 0.71 1.1542 0.71 1.9534 0 0.8879-0.266 1.5094-0.71 2.0421-0.444 0.3552-0.977 0.6216-1.687 0.6216-0.622 0-1.243-0.1776-1.599-0.6216-0.532-0.4439-0.71-1.1542-0.71-2.0421 0-0.7992 0.178-1.4207 0.71-1.9534 0.356-0.444 0.888-0.6216 1.599-0.6216h0.088zm0 0.7104c-0.976 0-1.509 0.7991-1.509 1.8646 0 1.1542 0.533 1.8645 1.421 1.8645s1.42-0.7103 1.42-1.7758c0-1.1542-0.444-2.0421-1.332-2.0421v0.0888z"/>
  <path d="m139.13 57.536c0.622 0 1.243 0.1776 1.599 0.6216 0.444 0.5327 0.71 1.1542 0.71 1.9534 0 0.8879-0.266 1.5094-0.71 2.0421-0.444 0.3552-0.977 0.6216-1.687 0.6216-0.622 0-1.243-0.1776-1.599-0.6216-0.532-0.4439-0.71-1.1542-0.71-2.0421 0-0.7992 0.178-1.4207 0.71-1.9534 0.356-0.444 0.888-0.6216 1.599-0.6216h0.088zm0 0.7104c-0.976 0-1.509 0.7991-1.509 1.8646 0 1.1542 0.533 1.8645 1.421 1.8645s1.42-0.7103 1.42-1.7758c0-1.1542-0.444-2.0421-1.332-2.0421v0.0888z" fill="#fff"/>
  <path d="m143.13 55.494c0.355 0 0.621 0.1776 0.621 0.5328 0 0.3551-0.266 0.6215-0.621 0.6215-0.165 0-0.323-0.0655-0.44-0.182-0.116-0.1166-0.182-0.2747-0.182-0.4395 0-0.1649 0.066-0.3229 0.182-0.4395 0.117-0.1166 0.275-0.182 0.44-0.182v0.0887zm0.533 7.1033h-0.977v-4.8835h0.888v5.061l0.089-0.1775z"/>
  <path d="m143.13 55.494c0.355 0 0.621 0.1776 0.621 0.5328 0 0.3551-0.266 0.6215-0.621 0.6215-0.165 0-0.323-0.0655-0.44-0.182-0.116-0.1166-0.182-0.2747-0.182-0.4395 0-0.1649 0.066-0.3229 0.182-0.4395 0.117-0.1166 0.275-0.182 0.44-0.182v0.0887zm0.533 7.1033h-0.977v-4.8835h0.888v5.061l0.089-0.1775z" fill="#fff"/>
  <path d="m75.472 37.736c0 4.9555-0.976 9.8625-2.8724 14.441-1.8964 4.5783-4.676 8.7383-8.1801 12.242s-7.6641 6.2837-12.242 8.1801c-4.5784 1.8964-9.4854 2.8724-14.441 2.8724-4.9556 0-9.8626-0.976-14.441-2.8724s-8.7383-4.676-12.242-8.1801c-3.5041-3.5041-6.2837-7.6641-8.1801-12.242-1.8964-4.5784-2.8725-9.4854-2.8725-14.441 1.4913e-7 -10.008 3.9757-19.606 11.053-26.683 7.0768-7.0769 16.675-11.053 26.683-11.053 10.008 0 19.606 3.9757 26.683 11.053 7.0768 7.0768 11.052 16.675 11.052 26.683z" fill="#23333B"/>
  <path d="m88.702 26.282v-15.272h2.7525v12.875h5.4162v2.3973h-8.1687zm16.604 0-0.444-0.9767c-0.71 0.6216-1.687 1.2431-3.196 1.2431-2.0423 0-3.5517-1.3319-3.5517-3.5516 0-2.2198 1.7758-3.4628 4.5287-3.5516l1.953-0.0888v-0.2664c0-1.3319-0.888-1.8646-2.042-1.8646-1.243 0-2.131 0.3552-2.8415 0.7991l-0.8879-1.7758c1.2514-0.8591 2.7454-1.2947 4.2624-1.2431 2.663 0 4.35 1.0655 4.35 3.9956v4.3507c0 1.5983 0.089 2.3974 0.178 2.8413h-2.309v0.0888zm-0.71-5.061-1.598 0.0888c-1.51 0.0887-2.131 0.5327-2.131 1.5094 0 0.8879 0.621 1.5094 1.776 1.5094 0.356 0.0186 0.713-0.0347 1.048-0.1567 0.336-0.1221 0.644-0.3103 0.905-0.5536v-2.3973zm14.562 5.2386c-1.51 0-2.664-0.2664-3.641-0.7991v-15.805h2.753v5.505c0.621-0.1776 1.332-0.3552 2.131-0.3552 2.663 0 5.238 1.7759 5.238 5.3275 0 3.9067-3.019 6.1265-6.481 6.1265zm0.71-9.0566c-0.71 0-1.154 0.1776-1.51 0.3551v6.2154c0.444 0.1775 0.8 0.1775 1.332 0.1775 1.865 0 3.197-1.5982 3.197-3.6404 0-1.5982-1.155-3.1076-3.019-3.1076zm16.692 7.4584c-0.511 0.5143-1.12 0.9208-1.791 1.1953-0.671 0.2746-1.39 0.4116-2.115 0.4029-1.51 0-2.842-0.444-3.729-1.3319-0.562-0.5543-1.002-1.2195-1.293-1.9533-0.29-0.7338-0.425-1.52-0.395-2.3086 0-1.687 0.622-3.1964 1.599-4.2619 0.515-0.5025 1.127-0.8953 1.799-1.1548 0.671-0.2594 1.388-0.3801 2.107-0.3547 1.688 0 3.019 0.5328 3.996 1.5983 0.985 1.1258 1.494 2.5902 1.421 4.0843 0 1.5982-0.622 3.1077-1.599 4.0844zm-3.995-7.636c-1.776 0-2.575 1.5094-2.575 3.5516 0 2.131 0.977 3.5516 2.664 3.5516 1.776 0 2.575-1.5094 2.575-3.5516 0-2.1309-0.977-3.5516-2.664-3.5516zm14.739 9.0566v-6.3929c0-1.1543-0.177-2.3973-1.598-2.3973-0.977 0-1.954 0.5327-2.753 1.1543v7.6359h-2.752v-10.921h2.397l0.267 1.1543c1.077-0.889 2.421-1.3895 3.818-1.4207 1.687 0 3.462 0.9767 3.462 3.9068v7.2808h-2.841zm12.52 0v-6.3929c0-1.1543-0.178-2.3973-1.599-2.3973-0.976 0-1.953 0.5327-2.752 1.1543v7.6359h-2.753v-10.921h2.398l0.266 1.1543c1.077-0.889 2.422-1.3895 3.818-1.4207 1.687 0 3.463 0.9767 3.463 3.9068v7.2808h-2.841zm7.635-4.7947c0.089 1.5983 1.421 2.7525 3.108 2.7525 1.066 0 1.865-0.2663 2.841-0.7991l0.711 1.7758c-1.243 0.8879-2.664 1.2431-3.996 1.2431-3.818 0-5.416-2.7525-5.416-5.6826 0-3.1076 1.865-5.6826 4.972-5.6826 2.93 0 4.884 2.2198 4.884 5.5938v0.7991h-7.104zm2.131-4.3507c-1.331 0-2.131 1.2431-2.131 2.3974h4.262c-0.088-1.1543-0.799-2.3974-2.131-2.3974z"/>
  <path d="m95.094 46.704-0.444-0.9767c-0.7103 0.6215-1.687 1.243-3.1964 1.243-2.0422 0-3.5516-1.3318-3.5516-3.5516 0-2.2197 1.7758-3.4628 4.5283-3.5516l1.9534-0.0888v-0.2663c0-1.3319-0.8879-1.8646-2.0422-1.8646-1.2431 0-2.131 0.3551-2.8413 0.7991l-0.8879-1.7758c1.2513-0.8591 2.745-1.2947 4.2619-1.2431 2.6637 0 4.3508 1.0655 4.3508 3.9956v4.3507c0 1.5982 0.0887 2.3973 0.1775 2.8413h-2.3085v0.0888zm-0.6216-5.0611-1.5982 0.0888c-1.5094 0.0888-2.1309 0.5328-2.1309 1.5094 0 0.888 0.6215 1.5095 1.7758 1.5095 0.3566 0.0186 0.7132-0.0348 1.0488-0.1568s0.6432-0.3103 0.9045-0.5535v-2.3974zm7.8132 5.2386c-1.864 0-2.4857-1.0654-2.4857-2.3973v-14.206h2.7527v12.963c0 0.7992 0.177 1.1543 0.71 1.1543l0.799-0.0888 0.355 2.0422c-0.799 0.444-1.509 0.5327-2.131 0.5327zm6.926 0c-1.953 0-2.664-1.0654-2.664-2.5749v-6.4817h-1.953v-2.0421h1.953v-2.4862l2.753-0.7991v3.3741h3.374l-0.799 2.0421h-2.575v5.505c0 0.8879 0.355 1.2431 1.065 1.2431 0.711 0 1.421-0.3552 1.865-0.6215l0.71 1.7758c-1.154 0.7103-2.663 1.0654-3.729 1.0654zm7.281-4.9722c0.089 1.5982 1.42 2.7525 3.108 2.7525 1.065 0 1.864-0.2664 2.841-0.7991l0.71 1.7758c-1.243 0.8879-2.664 1.243-3.995 1.243-3.818 0-5.417-2.7524-5.417-5.6825 0-3.1077 1.865-5.6826 4.973-5.6826 2.93 0 4.883 2.2197 4.883 5.5938v0.7991h-7.103zm2.042-4.3507c-1.332 0-2.131 1.243-2.131 2.3973h4.262c-0.089-1.1543-0.71-2.3973-2.131-2.3973zm13.23 0.7991c-0.405-0.2332-0.865-0.3557-1.332-0.3552-0.622 0-1.332 0.2664-2.131 0.9767v7.7248h-2.753v-10.921h2.309l0.266 1.1542c1.155-0.9767 1.954-1.4206 3.019-1.4206 0.533 0 1.066 0.1776 1.51 0.4439l-0.888 2.3974zm9.5 8.3463v-6.3929c0-1.1543-0.177-2.3974-1.598-2.3974-0.977 0-1.953 0.5328-2.752 1.1543v7.636h-2.753v-10.921h2.397l0.267 1.1542c1.077-0.889 2.422-1.3894 3.818-1.4206 1.687 0 3.463 0.9767 3.463 3.9068v7.2808h-2.842zm11.987 0-0.444-0.9767c-0.71 0.6215-1.687 1.243-3.196 1.243-2.043 0-3.552-1.3318-3.552-3.5516 0-2.2197 1.776-3.4628 4.528-3.5516l1.954-0.0888v-0.2663c0-1.3319-0.888-1.8646-2.042-1.8646-1.244 0-2.131 0.3551-2.842 0.7991l-0.888-1.7758c1.252-0.8591 2.745-1.2947 4.262-1.2431 2.664 0 4.351 1.0655 4.351 3.9956v4.3507c0 1.5982 0.089 2.3973 0.178 2.8413h-2.309v0.0888zm-0.71-5.0611-1.599 0.0888c-1.509 0.0888-2.13 0.5328-2.13 1.5094 0 0.888 0.621 1.5095 1.775 1.5095 0.357 0.0186 0.714-0.0348 1.049-0.1568 0.336-0.122 0.643-0.3103 0.905-0.5535v-2.3974zm12.608 5.0611v-6.3929c0-1.1543-0.178-2.3974-1.598-2.3974-0.977 0-1.954 0.5328-2.753 1.1543v7.636h-2.752v-10.921h2.397l0.266 1.1542c1.077-0.889 2.422-1.3894 3.818-1.4206 1.687 0 3.463 0.9767 3.463 3.9068v7.2808h-2.841zm10.122 0.1775c-3.552 0-5.416-2.5749-5.416-5.5937 0-3.2853 2.397-5.7714 5.682-5.7714 1.51 0 2.487 0.3552 3.108 0.7991l-0.089 2.2198c-0.799-0.5328-1.598-0.8879-2.752-0.8879-1.865 0-3.197 1.5094-3.197 3.5516 0 1.8646 0.977 3.5516 3.197 3.5516 1.065 0 1.864-0.3552 2.575-0.7991l0.71 1.8646c-0.799 0.5327-2.309 1.0654-3.818 1.0654zm7.725-4.9722c0.089 1.5982 1.42 2.7525 3.107 2.7525 1.066 0 1.865-0.2664 2.842-0.7991l0.71 1.7758c-1.243 0.8879-2.664 1.243-3.996 1.243-3.818 0-5.416-2.7524-5.416-5.6825 0-3.1077 1.865-5.6826 4.973-5.6826 2.93 0 4.883 2.2197 4.883 5.5938v0.7991h-7.103zm2.042-4.3507c-1.332 0-2.131 1.243-2.131 2.3973h4.262c-0.089-1.1543-0.71-2.3973-2.131-2.3973z"/>
  <path d="m58.069 27.703c0-14.562-12.431-19.711-20.599-19.8h-0.1776c-8.2575 0.08879-20.688 5.2387-20.688 19.8l0.0888 1.3318c1.1542 13.762 18.646 31.787 19.534 32.764l0.9767 1.0655v0.0888l0.0888 0.0888v-0.0888l0.9767-1.0655c0.9767-0.9767 18.468-19.001 19.534-32.764 0.1658-0.4558 0.2557-0.9357 0.2663-1.4206zm-20.777 7.4584c-0.7103 0-1.4206-0.0888-2.131-0.3552-1.4467-0.4768-2.7101-1.3902-3.6165-2.6145-0.9063-1.2244-1.4109-2.6994-1.4445-4.2224 0.0336-1.5229 0.5382-2.998 1.4445-4.2223 0.9064-1.2243 2.1698-2.1377 3.6165-2.6145 0.7104-0.1776 1.4207-0.3552 2.131-0.3552 0.9478-0.0119 1.8883 0.166 2.7663 0.5232s1.6756 0.8865 2.3458 1.5568c0.6702 0.6702 1.1995 1.4678 1.5567 2.3457 0.3572 0.878 0.5351 1.8186 0.5232 2.7663 0.0119 0.9478-0.166 1.8884-0.5232 2.7664-0.3572 0.8779-0.8865 1.6755-1.5567 2.3457-0.6702 0.6703-1.4678 1.1996-2.3458 1.5568s-1.8185 0.5351-2.7663 0.5232z" fill="#fff"/>
</svg>
