<svg width="52" height="52" viewBox="0 0 52 52" fill="none" xmlns="http://www.w3.org/2000/svg">
<path d="M9.70521 32.257C9.54999 32.257 9.40183 32.2069 9.27483 32.1068C9.08434 31.9566 8.98556 31.7205 9.00673 31.4772L9.36655 27.3636C9.38066 27.1705 9.47238 26.9988 9.62055 26.87L21.4242 17.0618C21.7276 16.8114 22.1721 16.8543 22.4191 17.1619C22.666 17.4696 22.6237 17.9203 22.3203 18.1707L10.7424 27.7857L10.5095 30.49L21.9322 26.3692C22.2991 26.2404 22.7013 26.4336 22.8353 26.8056C22.9694 27.1776 22.7718 27.5854 22.4049 27.7213L9.93804 32.2141C9.86043 32.2427 9.78282 32.257 9.70521 32.257Z" fill="#000091"/>
<path d="M42.2942 32.257C42.2166 32.257 42.1319 32.2427 42.0614 32.2141L29.6015 27.7213C29.2346 27.5854 29.0441 27.1776 29.1711 26.8056C29.2981 26.4336 29.7074 26.2404 30.0742 26.3692L41.4969 30.49L41.2641 27.7857L29.6862 18.1635C29.3828 17.9131 29.3405 17.4624 29.5874 17.1548C29.8344 16.8471 30.2788 16.8042 30.5822 17.0546L42.3859 26.8629C42.5341 26.9845 42.6258 27.1633 42.6399 27.3565L42.9997 31.4701C43.0209 31.7133 42.9151 31.9494 42.7316 32.0996C42.6046 32.1998 42.4565 32.2499 42.3013 32.2499L42.2942 32.257Z" fill="#000091"/>
<path d="M27.2803 46H25.7916C25.4882 46 25.2131 45.7997 25.1214 45.5064L23.6327 40.8705L18.6516 41.9508C18.4399 42.0009 18.2212 41.9436 18.0589 41.8077C17.8896 41.6718 17.7979 41.4643 17.7979 41.2425L17.8331 38.8817C17.8331 38.6385 17.9601 38.4167 18.1577 38.2879L22.9483 35.1687L22.4826 32.5646C22.4826 32.5646 22.4826 32.5146 22.4756 32.4931C22.1651 28.4654 21.9958 24.3804 21.9535 20.3526L21.9041 15.0729C21.8759 11.8464 22.7578 8.70581 24.4582 5.98726L24.5146 5.89426C24.8603 5.33624 25.46 5 26.1091 5C26.7582 5 27.3579 5.32909 27.7107 5.88711L27.7671 5.97295C29.4745 8.69866 30.3635 11.8464 30.3283 15.0801L30.2789 20.3455C30.2436 24.3732 30.0672 28.4582 29.7568 32.486C29.7568 32.4931 29.7568 32.5003 29.7568 32.5074L29.4604 35.1973L34.4204 37.9588C34.6462 38.0876 34.7873 38.3237 34.7873 38.5884V41.1495C34.7873 41.3713 34.6885 41.5788 34.5192 41.7147C34.3498 41.8506 34.1241 41.9007 33.9195 41.8506L29.1006 40.6702L27.9717 45.4563C27.8941 45.7782 27.6119 46.0072 27.2874 46.0072L27.2803 46ZM26.3067 44.5692H26.7229L27.8871 39.6329C27.9294 39.4469 28.0423 39.2895 28.2046 39.1893C28.3668 39.0892 28.5573 39.0534 28.7408 39.1035L33.3762 40.2338V39.0033L28.3668 36.2132C28.1129 36.0701 27.9717 35.7911 28.007 35.505L28.3527 32.35C28.6561 28.3581 28.8325 24.3088 28.8678 20.3169L28.9172 15.0515C28.9454 12.0968 28.134 9.2209 26.5748 6.72413L26.5183 6.63828C26.3913 6.43797 26.1938 6.41651 26.1091 6.41651C26.0315 6.41651 25.8269 6.43797 25.6999 6.64544L25.6435 6.73844C24.0913 9.22806 23.2799 12.0968 23.3081 15.0443L23.3575 20.324C23.3928 24.3088 23.5692 28.3509 23.8726 32.3286L24.4158 35.369C24.4652 35.6552 24.3453 35.9414 24.1054 36.0988L19.2372 39.2752L19.223 40.3554L23.9572 39.3324C24.31 39.2537 24.6628 39.4612 24.7756 39.8117L26.2996 44.5692H26.3067Z" fill="#000091"/>
<path d="M24.9026 13.7065C24.7192 13.7065 24.5428 13.635 24.4017 13.499C24.1265 13.22 24.1265 12.7693 24.4017 12.4903C25.3401 11.5388 26.9699 11.5388 27.9012 12.4903C28.1763 12.7693 28.1763 13.22 27.9012 13.499C27.626 13.778 27.1815 13.778 26.9064 13.499C26.5042 13.0913 25.7987 13.0913 25.3965 13.499C25.2554 13.6421 25.079 13.7065 24.8956 13.7065H24.9026Z" fill="#000091"/>
<path d="M26.3559 41.0708C25.9679 41.0708 25.6504 40.7489 25.6504 40.3554V36.8142C25.6504 36.4207 25.9679 36.0988 26.3559 36.0988C26.744 36.0988 27.0615 36.4207 27.0615 36.8142V40.3554C27.0615 40.7489 26.744 41.0708 26.3559 41.0708Z" fill="#000091"/>
<path fill-rule="evenodd" clip-rule="evenodd" d="M7.46003 39.3109C7.05964 39.3109 6.73389 38.9852 6.73389 38.5848C6.73389 38.1844 7.05964 37.8587 7.46003 37.8587C7.86043 37.8587 8.18618 38.1844 8.18618 38.5848C8.18618 38.9852 7.86043 39.3109 7.46003 39.3109Z" fill="#CACAFB"/>
<path fill-rule="evenodd" clip-rule="evenodd" d="M37.7613 8.68708C37.3609 8.68708 37.0352 8.36133 37.0352 7.96093C37.0352 7.5605 37.3609 7.23479 37.7613 7.23479C38.1617 7.23479 38.4874 7.5605 38.4874 7.96093C38.4874 8.36133 38.1617 8.68708 37.7613 8.68708Z" fill="#CACAFB"/>
<path fill-rule="evenodd" clip-rule="evenodd" d="M43.0025 40.7632C42.6021 40.7632 42.2764 40.4375 42.2764 40.0371C42.2764 39.6367 42.6021 39.3109 43.0025 39.3109C43.4029 39.3109 43.7287 39.6367 43.7287 40.0371C43.7287 40.4375 43.4029 40.7632 43.0025 40.7632Z" fill="#CACAFB"/>
<path fill-rule="evenodd" clip-rule="evenodd" d="M20.4376 10.1394C20.0372 10.1394 19.7114 9.81362 19.7114 9.41323C19.7114 9.01279 20.0372 8.68708 20.4376 8.68708C20.838 8.68708 21.1637 9.01279 21.1637 9.41323C21.1637 9.81362 20.838 10.1394 20.4376 10.1394Z" fill="#CACAFB"/>
</svg>
