<svg width="52" height="52" viewBox="0 0 52 52" fill="none" xmlns="http://www.w3.org/2000/svg">
<path d="M20.8782 25.4889C20.666 25.4889 20.4538 25.3896 20.3123 25.2121C20.0788 24.8998 20.1354 24.4526 20.4467 24.2184L25.5757 20.3073C25.887 20.0731 26.3327 20.1299 26.5661 20.4422C26.7996 20.7545 26.743 21.2017 26.4317 21.4359L21.3027 25.347C21.1754 25.4463 21.0268 25.4889 20.8782 25.4889Z" fill="#6A6AF4"/>
<path d="M26.0706 25.5386C25.8584 25.5386 25.6461 25.4392 25.5047 25.2618C25.2712 24.9495 25.3278 24.5023 25.6391 24.2681L30.7681 20.357C31.0794 20.1228 31.525 20.1795 31.7585 20.4919C31.992 20.8042 31.9354 21.2514 31.6241 21.4856L26.4951 25.3967C26.3677 25.496 26.2192 25.5386 26.0706 25.5386Z" fill="#6A6AF4"/>
<path d="M36.6686 39.3019H15.339C13.6977 39.3019 12.3677 37.9603 12.3677 36.3207V14.4372C12.3606 11.4418 14.7942 9 17.7868 9H34.2208C37.2133 9 39.6399 11.4418 39.6399 14.4372V36.3136C39.6399 37.9603 38.3028 39.2948 36.6686 39.2948V39.3019ZM17.7868 10.4196C15.5795 10.4196 13.7826 12.2225 13.7826 14.4372V36.3136C13.7826 37.1795 14.483 37.8752 15.339 37.8752H36.6686C37.5317 37.8752 38.225 37.1724 38.225 36.3136V14.4372C38.225 12.2225 36.428 10.4196 34.2208 10.4196H17.7868Z" fill="#000091"/>
<path d="M13.0537 27.7745H9.70745C9.31835 27.7745 9 27.4551 9 27.0647V22.1954C9 19.9524 10.8181 18.1282 13.0537 18.1282C13.4428 18.1282 13.7611 18.4476 13.7611 18.838V27.0647C13.7611 27.2564 13.6904 27.4338 13.556 27.5687C13.4216 27.7035 13.2447 27.7745 13.0537 27.7745ZM10.4149 26.3549H12.3462V19.6401C11.2355 19.9524 10.4149 20.9745 10.4149 22.1954V26.3549Z" fill="#000091"/>
<path d="M42.2925 27.7745H38.9462C38.5571 27.7745 38.2388 27.4551 38.2388 27.0647V18.838C38.2388 18.4476 38.5571 18.1282 38.9462 18.1282C41.1818 18.1282 42.9999 19.9524 42.9999 22.1954V27.0647C42.9999 27.4551 42.6815 27.7745 42.2925 27.7745ZM39.6537 26.3549H41.585V22.1954C41.585 20.9816 40.7644 19.9524 39.6537 19.6401V26.3549Z" fill="#000091"/>
<path d="M20.0151 43H15.9897C15.6006 43 15.2822 42.6806 15.2822 42.2902V38.663C15.2822 38.2726 15.6006 37.9532 15.9897 37.9532H20.0151C20.4042 37.9532 20.7225 38.2726 20.7225 38.663V42.2902C20.7225 42.6806 20.4042 43 20.0151 43ZM16.6971 41.5804H19.3076V39.3729H16.6971V41.5804Z" fill="#000091"/>
<path d="M36.0102 43H31.9848C31.5957 43 31.2773 42.6806 31.2773 42.2902V38.663C31.2773 38.2726 31.5957 37.9532 31.9848 37.9532H36.0102C36.3993 37.9532 36.7176 38.2726 36.7176 38.663V42.2902C36.7176 42.6806 36.3993 43 36.0102 43ZM32.6922 41.5804H35.3027V39.3729H32.6922V41.5804Z" fill="#000091"/>
<path d="M38.4866 15.8852H13.5136C13.1245 15.8852 12.8062 15.5658 12.8062 15.1754C12.8062 14.785 13.1245 14.4656 13.5136 14.4656H38.4866C38.8756 14.4656 39.194 14.785 39.194 15.1754C39.194 15.5658 38.8756 15.8852 38.4866 15.8852Z" fill="#000091"/>
<path d="M26.0851 31.5294C22.8096 31.5294 19.5341 31.1106 16.3435 30.2731L13.3298 29.4781C12.9548 29.3787 12.7284 28.9883 12.8275 28.6121C12.9265 28.2359 13.3156 28.0088 13.6906 28.1081L16.7043 28.9031C23.043 30.5712 29.7284 30.5144 36.0389 28.747L38.2956 28.1152C38.6777 28.0088 39.0597 28.2288 39.1658 28.605C39.2719 28.9812 39.0526 29.3716 38.6777 29.4781L36.4209 30.1098C33.0464 31.0539 29.5657 31.5294 26.0851 31.5294Z" fill="#000091"/>
<path d="M16.8668 36.9879C15.7774 36.9879 14.8931 36.1006 14.8931 35.0075C14.8931 33.9144 15.7774 33.0271 16.8668 33.0271C17.9563 33.0271 18.8406 33.9144 18.8406 35.0075C18.8406 36.1006 17.9563 36.9879 16.8668 36.9879ZM16.8668 34.4539C16.5626 34.4539 16.308 34.7023 16.308 35.0146C16.308 35.3269 16.5556 35.5754 16.8668 35.5754C17.1781 35.5754 17.4257 35.3269 17.4257 35.0146C17.4257 34.7023 17.1781 34.4539 16.8668 34.4539Z" fill="#000091"/>
<path d="M35.133 36.9879C34.0435 36.9879 33.1592 36.1006 33.1592 35.0075C33.1592 33.9144 34.0435 33.0271 35.133 33.0271C36.2224 33.0271 37.1067 33.9144 37.1067 35.0075C37.1067 36.1006 36.2224 36.9879 35.133 36.9879ZM35.133 34.4539C34.8288 34.4539 34.5741 34.7023 34.5741 35.0146C34.5741 35.3269 34.8217 35.5754 35.133 35.5754C35.4442 35.5754 35.6918 35.3269 35.6918 35.0146C35.6918 34.7023 35.4442 34.4539 35.133 34.4539Z" fill="#000091"/>
<path fill-rule="evenodd" clip-rule="evenodd" d="M3.69929 38.7739C3.29889 38.7739 2.97314 38.4482 2.97314 38.0478C2.97314 37.6473 3.29889 37.3216 3.69929 37.3216C4.09969 37.3216 4.42544 37.6473 4.42544 38.0478C4.42544 38.4482 4.09969 38.7739 3.69929 38.7739Z" fill="#CACAFB"/>
<path fill-rule="evenodd" clip-rule="evenodd" d="M43.7261 11.6746C43.3257 11.6746 43 11.3488 43 10.9484C43 10.548 43.3257 10.2223 43.7261 10.2223C44.1265 10.2223 44.4523 10.548 44.4523 10.9484C44.4523 11.3488 44.1265 11.6746 43.7261 11.6746Z" fill="#CACAFB"/>
<path fill-rule="evenodd" clip-rule="evenodd" d="M42.274 35.7337C41.8736 35.7337 41.5479 35.4079 41.5479 35.0075C41.5479 34.6071 41.8736 34.2814 42.274 34.2814C42.6744 34.2814 43.0001 34.6071 43.0001 35.0075C43.0001 35.4079 42.6744 35.7337 42.274 35.7337Z" fill="#CACAFB"/>
</svg>
