<svg width="52" height="52" viewBox="0 0 52 52" fill="none" xmlns="http://www.w3.org/2000/svg">
<path d="M8.60055 48.6234C8.45393 48.6234 8.31429 48.5814 8.19559 48.4904C8.01406 48.3645 7.90234 48.1475 7.90234 47.9236V39.8896C7.90234 39.5886 8.09086 39.3227 8.37712 39.2247L43.1758 27.4396C43.3922 27.3697 43.6226 27.4046 43.8042 27.5306C43.9857 27.6636 44.0974 27.8735 44.0974 28.0975V36.1315C44.0974 36.4324 43.9089 36.6984 43.6226 36.7963L8.82398 48.5884C8.75416 48.6164 8.67735 48.6234 8.60055 48.6234ZM9.29876 40.3934V46.9508L42.701 35.6346V29.0772L9.29876 40.3934Z" fill="#000091"/>
<path d="M15.2757 34.298C14.9615 34.298 14.6543 34.2 14.396 34.018C14.005 33.7381 13.7676 33.2762 13.7676 32.7933V23.9615C13.7676 23.1987 14.2493 22.5199 14.9755 22.2749L26.1189 18.4679C26.5797 18.3139 27.0894 18.3839 27.4804 18.6708C27.8714 18.9507 28.1088 19.4126 28.1088 19.8955V28.7273C28.1088 29.4901 27.627 30.169 26.9078 30.4139L15.7645 34.221C15.6039 34.277 15.4433 34.3049 15.2827 34.3049L15.2757 34.298ZM26.5657 19.7905L15.4223 23.5976C15.2687 23.6536 15.164 23.7935 15.164 23.9615V32.7933C15.164 32.8283 15.178 32.8563 15.2059 32.8773C15.2338 32.8983 15.2687 32.9053 15.3036 32.8913L26.447 29.0842C26.6006 29.0283 26.7054 28.8883 26.7054 28.7203V19.8885C26.7054 19.8535 26.6914 19.8255 26.6635 19.8045C26.6355 19.7835 26.6006 19.7765 26.5657 19.7905Z" fill="#6A6AF4"/>
<path d="M8.60077 16.5714C8.30753 16.5714 8.03523 16.3894 7.93748 16.0955C7.8118 15.7316 8.0073 15.3327 8.37735 15.2067L43.176 3.41465C43.5461 3.28868 43.937 3.48463 44.0627 3.85554C44.1884 4.22645 43.9929 4.61835 43.6229 4.74432L8.8242 16.5294C8.7474 16.5574 8.67758 16.5644 8.60077 16.5644V16.5714Z" fill="#000091"/>
<path d="M24.7434 16.9492C24.3594 16.9492 24.0452 16.6343 24.0452 16.2494V10.5318C24.0452 10.1469 24.3594 9.83198 24.7434 9.83198C25.1274 9.83198 25.4416 10.1469 25.4416 10.5318V16.2494C25.4416 16.6343 25.1274 16.9492 24.7434 16.9492Z" fill="#000091"/>
<path d="M31.4112 29.0632C30.9783 29.0632 30.5524 28.9303 30.1893 28.6713C29.6377 28.2794 29.3096 27.6426 29.3096 26.9638V19.7765C29.3096 18.6848 30.0008 17.691 31.0272 17.3201L40.1248 13.996C40.4879 13.863 40.8858 14.0519 41.0185 14.4159C41.1512 14.7798 40.9627 15.1787 40.5996 15.3116L31.5019 18.6358C31.0272 18.8108 30.706 19.2727 30.706 19.7765V26.9638C30.706 27.1947 30.8107 27.3976 30.9992 27.5306C31.1877 27.6636 31.4182 27.6986 31.6346 27.6216L40.2365 24.6683C40.5996 24.5424 40.9976 24.7383 41.1232 25.1022C41.2489 25.4661 41.0534 25.865 40.6903 25.991L32.0884 28.9443C31.865 29.0212 31.6416 29.0562 31.4112 29.0562V29.0632Z" fill="#6A6AF4"/>
<path d="M20.6726 31.8346C20.2886 31.8346 19.9744 31.5196 19.9744 31.1347V21.3371C19.9744 20.9522 20.2886 20.6373 20.6726 20.6373C21.0566 20.6373 21.3708 20.9522 21.3708 21.3371V31.1347C21.3708 31.5196 21.0566 31.8346 20.6726 31.8346Z" fill="#6A6AF4"/>
<path d="M14.5286 27.1597C14.2353 27.1597 13.963 26.9778 13.8653 26.6838C13.7466 26.3199 13.9421 25.921 14.3051 25.802L26.803 21.6241C27.1731 21.5051 27.5641 21.7011 27.6898 22.065C27.8085 22.4289 27.613 22.8278 27.2499 22.9467L14.752 27.1247C14.6822 27.1527 14.6054 27.1597 14.5286 27.1597Z" fill="#6A6AF4"/>
<path d="M30.5315 22.3169C30.2382 22.3169 29.9659 22.128 29.8682 21.834C29.7495 21.4701 29.945 21.0712 30.3081 20.9522L39.8665 17.775C40.2366 17.6561 40.6276 17.852 40.7463 18.2159C40.865 18.5798 40.6695 18.9787 40.3064 19.0977L30.7479 22.2749C30.6781 22.2959 30.6013 22.3099 30.5315 22.3099V22.3169Z" fill="#6A6AF4"/>
<path d="M11.4353 38.5179C11.0513 38.5179 10.7371 38.203 10.7371 37.8181V23.9125C10.7371 23.7935 10.772 23.6676 10.8278 23.5626L12.9015 19.9585C12.9853 19.8115 13.1249 19.6995 13.2855 19.6436L37.8415 11.5256C38.03 11.4626 38.2325 11.4836 38.407 11.5815L41.1021 13.1212C41.3185 13.2471 41.4512 13.4781 41.4512 13.73V28.0835C41.4512 28.4684 41.137 28.7833 40.753 28.7833C40.369 28.7833 40.0548 28.4684 40.0548 28.0835V14.1359L37.9811 12.9532L13.9837 20.8893L12.1405 24.0945V37.8111C12.1405 38.196 11.8263 38.5109 11.4423 38.5109L11.4353 38.5179Z" fill="#000091"/>
<path fill-rule="evenodd" clip-rule="evenodd" d="M35.5606 44.1019C35.7003 44.4772 35.5086 44.8961 35.1334 45.0358C34.7581 45.1755 34.3392 44.9838 34.1996 44.6086C34.0599 44.2333 34.2515 43.8144 34.6268 43.6747C35.002 43.535 35.4209 43.7267 35.5606 44.1019Z" fill="#CACAFB"/>
<path fill-rule="evenodd" clip-rule="evenodd" d="M4.15119 9.67593C4.29087 10.0512 4.09923 10.4701 3.72398 10.6098C3.34871 10.7495 2.92982 10.5578 2.79014 10.1826C2.65046 9.80733 2.84207 9.38842 3.21735 9.24873C3.59259 9.10905 4.01151 9.30069 4.15119 9.67593Z" fill="#CACAFB"/>
<path fill-rule="evenodd" clip-rule="evenodd" d="M46.5967 13.5645C46.7364 13.9397 46.5448 14.3587 46.1695 14.4983C45.7943 14.638 45.3754 14.4464 45.2357 14.0711C45.096 13.6959 45.2876 13.277 45.6629 13.1373C46.0381 12.9976 46.4571 13.1892 46.5967 13.5645Z" fill="#CACAFB"/>
</svg>
