<svg width="52" height="52" viewBox="0 0 52 52" fill="none" xmlns="http://www.w3.org/2000/svg">
<path d="M10.581 28.0787C10.2137 28.0787 9.91977 27.7818 9.91309 27.4106C9.91309 27.0394 10.2003 26.7289 10.5743 26.7289L15.7374 26.6614C20.7602 26.0337 24.387 16.126 24.4271 16.0315C24.554 15.6805 24.9414 15.4983 25.282 15.6266C25.6294 15.7548 25.8097 16.1395 25.6828 16.4904C25.5225 16.9359 21.7153 27.3228 15.8576 28.0045C15.8376 28.0045 15.8109 28.0045 15.7908 28.0045L10.5877 28.072H10.581V28.0787Z" fill="#6A6AF4"/>
<path d="M32.1482 28.0787H24.1398C23.9394 28.0787 23.7457 27.9843 23.6188 27.8223C23.4919 27.6603 23.4451 27.4511 23.4919 27.2553C23.5119 27.1541 25.9164 17.0236 38.086 18.4004C38.3198 18.4274 38.5269 18.5759 38.6204 18.7987C38.7206 19.0146 38.6938 19.2711 38.5536 19.4668L32.6959 27.802C32.569 27.9775 32.3686 28.0855 32.1482 28.0855V28.0787ZM25.0481 26.7289H31.8009L36.7836 19.6423C32.7026 19.4128 29.4698 20.6142 27.1721 23.1856C26.0033 24.5017 25.3621 25.8785 25.0481 26.7289Z" fill="#6A6AF4"/>
<path d="M42.1339 28.0787H34.9403C34.6865 28.0787 34.4594 27.937 34.3459 27.7075C34.2323 27.4848 34.2523 27.2081 34.3993 27.0056L40.3772 18.6704C40.5041 18.4949 40.7045 18.3937 40.9182 18.3937H47.9916C48.2387 18.3937 48.4725 18.5354 48.586 18.7582C48.6996 18.9809 48.6795 19.2508 48.5393 19.4601L42.6816 27.7953C42.5547 27.9708 42.3543 28.0787 42.1339 28.0787ZM36.2494 26.7289H41.7865L46.6958 19.7435H41.2589L36.2494 26.7289Z" fill="#6A6AF4"/>
<path d="M47.8042 33.0529H7.36806C7.14765 33.0529 6.94059 32.9449 6.81368 32.7559C6.68678 32.5737 6.66674 32.3375 6.74689 32.1282C13.012 16.288 29.8638 14.027 30.0374 14C30.0642 14 30.0909 14 30.1176 14H48.3319C48.6993 14 48.9998 14.3037 48.9998 14.6749C48.9998 15.0461 48.6993 15.3498 48.3319 15.3498H30.1643C29.3161 15.4713 14.4681 17.793 8.37663 31.703H47.8042C48.1716 31.703 48.4722 32.0067 48.4722 32.378C48.4722 32.7492 48.1716 33.0529 47.8042 33.0529Z" fill="#000091"/>
<path d="M46.0077 35.5838H3.66793C3.30057 35.5838 3 35.2801 3 34.9089C3 34.5377 3.30057 34.234 3.66793 34.234H46.0077C46.375 34.234 46.6756 34.5377 46.6756 34.9089C46.6756 35.2801 46.375 35.5838 46.0077 35.5838Z" fill="#000091"/>
<path d="M48.0918 38H7.54878C7.18143 38 6.88086 37.6963 6.88086 37.3251C6.88086 36.9539 7.18143 36.6502 7.54878 36.6502H48.0918C48.4592 36.6502 48.7598 36.9539 48.7598 37.3251C48.7598 37.6963 48.4592 38 48.0918 38Z" fill="#000091"/>
<path fill-rule="evenodd" clip-rule="evenodd" d="M47.4019 5.10051C47.0015 5.10051 46.6758 4.77476 46.6758 4.37436C46.6758 3.97393 47.0015 3.64822 47.4019 3.64822C47.8023 3.64822 48.1281 3.97393 48.1281 4.37436C48.1281 4.77476 47.8023 5.10051 47.4019 5.10051Z" fill="#CACAFB"/>
<path fill-rule="evenodd" clip-rule="evenodd" d="M31.8033 12.2873C31.4029 12.2873 31.0771 11.9616 31.0771 11.5612C31.0771 11.1608 31.4029 10.835 31.8033 10.835C32.2037 10.835 32.5294 11.1608 32.5294 11.5612C32.5294 11.9616 32.2037 12.2873 31.8033 12.2873Z" fill="#CACAFB"/>
<path fill-rule="evenodd" clip-rule="evenodd" d="M5.54646 24.9787C5.14606 24.9787 4.82031 24.653 4.82031 24.2526C4.82031 23.8522 5.14606 23.5264 5.54646 23.5264C5.94685 23.5264 6.2726 23.8522 6.2726 24.2526C6.2726 24.653 5.94685 24.9787 5.54646 24.9787Z" fill="#CACAFB"/>
</svg>
