<svg width="52" height="52" viewBox="0 0 52 52" fill="none" xmlns="http://www.w3.org/2000/svg">
<path d="M32.9448 39.3564H19.0639C17.8369 39.3564 16.7057 38.6869 16.0986 37.6015L14.1749 34.1568C13.1524 32.337 12.7178 30.2701 12.9223 28.1838L14.2325 14.561C14.5456 11.3177 17.1978 8.87394 20.3996 8.87394H31.6028C34.8046 8.87394 37.4568 11.3177 37.7699 14.561L39.08 28.1773C39.2782 30.2636 38.85 32.3305 37.8274 34.1568L35.9038 37.6015C35.2967 38.6869 34.1655 39.3564 32.9385 39.3564H32.9448ZM20.3996 10.1738C17.8561 10.1738 15.7471 12.1172 15.5042 14.691L14.1941 28.3073C14.0216 30.1272 14.3986 31.9275 15.2806 33.5134L17.2042 36.9581C17.5813 37.634 18.2906 38.0565 19.0575 38.0565H32.9385C33.7054 38.0565 34.4147 37.634 34.7918 36.9581L36.7154 33.5134C37.6038 31.9275 37.9808 30.1272 37.8019 28.3073L36.4918 14.691C36.2425 12.1172 34.1399 10.1738 31.5964 10.1738H20.3996Z" fill="#000091"/>
<path d="M26.2345 23.6212C22.0868 23.6212 16.9614 22.9323 16.9103 22.9258C16.5907 22.8803 16.3542 22.6073 16.3542 22.2823V15.4189C16.3542 15.1394 16.5332 14.8924 16.7888 14.8014C16.9806 14.7364 21.5244 13.2221 26.0939 13.2221C30.6633 13.2221 35.0411 14.7429 35.22 14.8079C35.4756 14.8989 35.6482 15.1459 35.6482 15.4254V22.2888C35.6482 22.6138 35.4181 22.8868 35.105 22.9323C35.0602 22.9388 30.3821 23.6277 26.2345 23.6277V23.6212ZM17.6324 21.7039C19.0576 21.8793 22.9688 22.3148 26.2345 22.3148C29.5002 22.3148 33.0343 21.8858 34.3764 21.7104V15.8934C33.1749 15.5164 29.6472 14.522 26.0939 14.522C22.5406 14.522 18.8658 15.5294 17.6324 15.8999V21.7104V21.7039Z" fill="#6A6AF4"/>
<path d="M30.1203 12.4291H21.8825C21.531 12.4291 21.2434 12.1367 21.2434 11.7792C21.2434 11.4217 21.531 11.1292 21.8825 11.1292H30.1203C30.4718 11.1292 30.7594 11.4217 30.7594 11.7792C30.7594 12.1367 30.4718 12.4291 30.1203 12.4291Z" fill="#000091"/>
<path d="M19.3196 28.8858C18.2204 28.8858 17.332 27.9758 17.332 26.8644C17.332 25.753 18.2267 24.8431 19.3196 24.8431C20.4124 24.8431 21.3071 25.753 21.3071 26.8644C21.3071 27.9758 20.4124 28.8858 19.3196 28.8858ZM19.3196 26.1365C18.9297 26.1365 18.6102 26.4615 18.6102 26.8579C18.6102 27.2544 18.9297 27.5794 19.3196 27.5794C19.7094 27.5794 20.029 27.2544 20.029 26.8579C20.029 26.4615 19.7094 26.1365 19.3196 26.1365Z" fill="#6A6AF4"/>
<path d="M32.6895 28.8858C31.5902 28.8858 30.7019 27.9758 30.7019 26.8644C30.7019 25.753 31.5966 24.8431 32.6895 24.8431C33.7823 24.8431 34.677 25.753 34.677 26.8644C34.677 27.9758 33.7823 28.8858 32.6895 28.8858ZM32.6895 26.1365C32.2996 26.1365 31.9801 26.4615 31.9801 26.8579C31.9801 27.2544 32.2996 27.5794 32.6895 27.5794C33.0793 27.5794 33.3988 27.2544 33.3988 26.8579C33.3988 26.4615 33.0793 26.1365 32.6895 26.1365Z" fill="#6A6AF4"/>
<path d="M33.9674 33.7279H18.0351C17.6836 33.7279 17.396 33.4354 17.396 33.0779C17.396 32.7204 17.6836 32.428 18.0351 32.428H33.9738C34.3253 32.428 34.6129 32.7204 34.6129 33.0779C34.6129 33.4354 34.3253 33.7279 33.9738 33.7279H33.9674Z" fill="#000091"/>
<path d="M31.4879 36.3276H20.5148C20.1633 36.3276 19.8757 36.0351 19.8757 35.6777C19.8757 35.3202 20.1633 35.0277 20.5148 35.0277H31.4879C31.8394 35.0277 32.127 35.3202 32.127 35.6777C32.127 36.0351 31.8394 36.3276 31.4879 36.3276Z" fill="#000091"/>
<path d="M16.6165 43.1261C16.4631 43.1261 16.3098 43.0676 16.1883 42.9571C15.9263 42.7166 15.9071 42.3071 16.1436 42.0407L19.518 38.2645C19.7544 37.998 20.1571 37.9785 20.4191 38.219C20.6811 38.4595 20.7003 38.8689 20.4638 39.1354L17.0894 42.9116C16.9616 43.0546 16.7891 43.1261 16.6165 43.1261Z" fill="#000091"/>
<path d="M35.3862 43.1261C35.2136 43.1261 35.041 43.0546 34.9132 42.9116L31.5389 39.1354C31.3024 38.8689 31.3216 38.4595 31.5836 38.219C31.8456 37.9785 32.2483 37.998 32.4847 38.2645L35.8591 42.0407C36.0955 42.3071 36.0764 42.7166 35.8143 42.9571C35.6929 43.0676 35.5395 43.1261 35.3862 43.1261Z" fill="#000091"/>
<path d="M33.961 42.0147H18.0414C17.6899 42.0147 17.4023 41.7222 17.4023 41.3647C17.4023 41.0072 17.6899 40.7148 18.0414 40.7148H33.9546C34.3061 40.7148 34.5937 41.0072 34.5937 41.3647C34.5937 41.7222 34.3061 42.0147 33.9546 42.0147H33.961Z" fill="#000091"/>
<path fill-rule="evenodd" clip-rule="evenodd" d="M3.69929 38.7739C3.29889 38.7739 2.97314 38.4482 2.97314 38.0478C2.97314 37.6473 3.29889 37.3216 3.69929 37.3216C4.09969 37.3216 4.42544 37.6473 4.42544 38.0478C4.42544 38.4482 4.09969 38.7739 3.69929 38.7739Z" fill="#CACAFB"/>
<path fill-rule="evenodd" clip-rule="evenodd" d="M45.8243 10.3262C45.4239 10.3262 45.0981 10.0005 45.0981 9.60008C45.0981 9.19965 45.4239 8.87394 45.8243 8.87394C46.2247 8.87394 46.5504 9.19965 46.5504 9.60008C46.5504 10.0005 46.2247 10.3262 45.8243 10.3262Z" fill="#CACAFB"/>
<path fill-rule="evenodd" clip-rule="evenodd" d="M39.8533 40.0825C39.4529 40.0825 39.1272 39.7568 39.1272 39.3564C39.1272 38.9559 39.4529 38.6302 39.8533 38.6302C40.2537 38.6302 40.5795 38.9559 40.5795 39.3564C40.5795 39.7568 40.2537 40.0825 39.8533 40.0825Z" fill="#CACAFB"/>
</svg>
