<svg width="52" height="52" viewBox="0 0 52 52" fill="none" xmlns="http://www.w3.org/2000/svg">
<path d="M38.9001 30.2432H13.1004C12.7049 30.2432 12.3813 29.916 12.3813 29.516C12.3813 29.1161 12.7049 28.7888 13.1004 28.7888H38.9001C39.2956 28.7888 39.6192 29.1161 39.6192 29.516C39.6192 29.916 39.2956 30.2432 38.9001 30.2432Z" fill="#6A6AF4"/>
<path d="M38.9001 19.0733H13.1004C12.7049 19.0733 12.3813 18.7461 12.3813 18.3461C12.3813 17.9461 12.7049 17.6189 13.1004 17.6189H38.9001C39.2956 17.6189 39.6192 17.9461 39.6192 18.3461C39.6192 18.7461 39.2956 19.0733 38.9001 19.0733Z" fill="#6A6AF4"/>
<path d="M20.7512 26.6871C20.5355 26.6871 20.3198 26.5853 20.1759 26.4035C19.9387 26.0835 19.9962 25.6254 20.3126 25.3854L25.5257 21.3785C25.8421 21.1385 26.2951 21.1967 26.5324 21.5167C26.7697 21.8367 26.7122 22.2948 26.3958 22.5348L21.1826 26.5417C21.0532 26.6435 20.9022 26.6871 20.7512 26.6871Z" fill="#6A6AF4"/>
<path d="M26.0363 26.7454C25.8206 26.7454 25.6049 26.6435 25.4611 26.4617C25.2238 26.1418 25.2813 25.6836 25.5977 25.4437L30.8109 21.4368C31.1273 21.1968 31.5803 21.255 31.8176 21.5749C32.0548 21.8949 31.9973 22.353 31.6809 22.593L26.4678 26.5999C26.3384 26.7017 26.1874 26.7454 26.0363 26.7454Z" fill="#6A6AF4"/>
<path d="M34.3482 39.8422H17.6446C14.5742 39.8422 12.0791 37.3188 12.0791 34.2137V17.3207C12.0791 14.2155 14.5742 11.6921 17.6446 11.6921H34.3482C37.4186 11.6921 39.9137 14.2155 39.9137 17.3207V34.2137C39.9137 37.3188 37.4186 39.8422 34.3482 39.8422ZM17.6446 13.2556C15.4299 13.2556 13.6251 15.0809 13.6251 17.3134V34.2064C13.6251 36.4462 15.4299 38.2642 17.6446 38.2642H34.3482C36.5629 38.2642 38.3606 36.4389 38.3606 34.2064V17.3207C38.3606 15.0809 36.5557 13.2629 34.3482 13.2629H17.6446V13.2556Z" fill="#000091"/>
<path d="M39.2236 45.4999H12.7768C12.4748 45.4999 12.2015 45.3254 12.0721 45.0491C11.9427 44.7727 11.9858 44.4455 12.1872 44.2128L16.8323 38.6715C16.9833 38.497 17.199 38.3951 17.4219 38.3951H34.5713C34.8014 38.3951 35.0172 38.497 35.161 38.6715L39.8133 44.2128C40.0074 44.4455 40.0505 44.7727 39.9283 45.0491C39.7989 45.3254 39.5256 45.4999 39.2236 45.4999ZM14.445 43.9364H37.5482L34.2118 39.9586H17.7814L14.445 43.9364Z" fill="#000091"/>
<path d="M36.6999 8.06344H15.2937C14.8694 8.06344 14.5171 7.71438 14.5171 7.27806C14.5171 6.84173 14.8622 6.49268 15.2937 6.49268H36.6999C37.1242 6.49268 37.4765 6.84173 37.4765 7.27806C37.4765 7.71438 37.1314 8.06344 36.6999 8.06344Z" fill="#000091"/>
<path d="M26.0002 12.6448C25.576 12.6448 25.2236 12.2958 25.2236 11.8595V7.77256C25.2236 7.34351 25.5688 6.98718 26.0002 6.98718C26.4316 6.98718 26.7768 7.33624 26.7768 7.77256V11.8667C26.7768 12.2958 26.4316 12.6521 26.0002 12.6521V12.6448Z" fill="#000091"/>
<path d="M26.0001 36.6135C24.5692 36.6135 23.4043 35.4354 23.4043 33.9882C23.4043 32.5411 24.5692 31.363 26.0001 31.363C27.431 31.363 28.5959 32.5411 28.5959 33.9882C28.5959 35.4354 27.431 36.6135 26.0001 36.6135ZM26.0001 32.9265C25.4248 32.9265 24.9503 33.3992 24.9503 33.9882C24.9503 34.5773 25.4177 35.05 26.0001 35.05C26.5825 35.05 27.0499 34.5773 27.0499 33.9882C27.0499 33.3992 26.5825 32.9265 26.0001 32.9265Z" fill="#000091"/>
<path fill-rule="evenodd" clip-rule="evenodd" d="M3.69929 38.7739C3.29889 38.7739 2.97314 38.4482 2.97314 38.0478C2.97314 37.6473 3.29889 37.3216 3.69929 37.3216C4.09969 37.3216 4.42544 37.6473 4.42544 38.0478C4.42544 38.4482 4.09969 38.7739 3.69929 38.7739Z" fill="#CACAFB"/>
<path fill-rule="evenodd" clip-rule="evenodd" d="M45.8243 10.3262C45.4239 10.3262 45.0981 10.0005 45.0981 9.60008C45.0981 9.19965 45.4239 8.87394 45.8243 8.87394C46.2247 8.87394 46.5504 9.19965 46.5504 9.60008C46.5504 10.0005 46.2247 10.3262 45.8243 10.3262Z" fill="#CACAFB"/>
<path fill-rule="evenodd" clip-rule="evenodd" d="M39.8531 40.0825C39.4527 40.0825 39.127 39.7568 39.127 39.3564C39.127 38.9559 39.4527 38.6302 39.8531 38.6302C40.2535 38.6302 40.5792 38.9559 40.5792 39.3564C40.5792 39.7568 40.2535 40.0825 39.8531 40.0825Z" fill="#CACAFB"/>
</svg>
