<svg width="52" height="52" viewBox="0 0 52 52" fill="none" xmlns="http://www.w3.org/2000/svg">
<path d="M40.8288 45C37.6994 45 35.1577 42.4746 35.1577 39.3654C35.1577 36.2562 37.6994 33.7308 40.8288 33.7308C43.9581 33.7308 46.4998 36.2562 46.4998 39.3654C46.4998 42.4746 43.9581 45 40.8288 45ZM40.8288 35.1448C38.4853 35.1448 36.5737 37.037 36.5737 39.3724C36.5737 41.7079 38.4782 43.6001 40.8288 43.6001C43.1793 43.6001 45.0838 41.7079 45.0838 39.3724C45.0838 37.037 43.1793 35.1448 40.8288 35.1448Z" fill="#6A6AF4"/>
<path d="M40.829 40.0689C40.468 40.0689 40.1564 39.7945 40.121 39.4217L37.459 7.75971C37.4236 7.37282 37.7139 7.03516 38.1033 6.99999C38.4927 6.95778 38.8325 7.25323 38.8679 7.64012L41.537 39.3021C41.5724 39.689 41.2822 40.0266 40.8928 40.0618C40.8715 40.0618 40.8503 40.0618 40.8361 40.0618L40.829 40.0689Z" fill="#000091"/>
<path d="M11.5744 45C8.4521 45 5.90332 42.4746 5.90332 39.3654C5.90332 36.2562 8.44502 33.7308 11.5744 33.7308C14.7037 33.7308 17.2454 36.2562 17.2454 39.3654C17.2454 42.4746 14.7037 45 11.5744 45ZM11.5744 35.1448C9.2309 35.1448 7.31931 37.037 7.31931 39.3724C7.31931 41.7079 9.22382 43.6001 11.5744 43.6001C13.9249 43.6001 15.8294 41.7079 15.8294 39.3724C15.8294 37.037 13.9249 35.1448 11.5744 35.1448Z" fill="#6A6AF4"/>
<path d="M16.9481 34.7368C16.764 34.7368 16.587 34.6665 16.4454 34.5328C15.1427 33.2385 13.4152 32.528 11.5744 32.528C9.73363 32.528 8.00612 33.2385 6.70341 34.5328C6.42729 34.8072 5.98125 34.8072 5.70514 34.5328C5.42902 34.2585 5.42902 33.8153 5.70514 33.541C7.2698 31.9864 9.35839 31.1282 11.5744 31.1282C13.7904 31.1282 15.879 31.9864 17.4437 33.541C17.7198 33.8153 17.7198 34.2585 17.4437 34.5328C17.3021 34.6735 17.1251 34.7368 16.941 34.7368H16.9481Z" fill="#000091"/>
<path d="M32.5172 40.069H11.5747C11.1853 40.069 10.8667 39.7524 10.8667 39.3655C10.8667 38.9786 11.1853 38.6621 11.5747 38.6621H32.1066L38.8113 26.8583C39.0024 26.5206 39.4343 26.4011 39.7741 26.591C40.114 26.7809 40.2343 27.21 40.0432 27.5477L33.1402 39.7102C33.0128 39.9283 32.7791 40.069 32.5243 40.069H32.5172Z" fill="#000091"/>
<path d="M42.6907 8.43508H33.7417C33.3523 8.43508 33.0337 8.11854 33.0337 7.73164C33.0337 7.34475 33.3523 7.0282 33.7417 7.0282H42.6907C43.0801 7.0282 43.3987 7.34475 43.3987 7.73164C43.3987 8.11854 43.0801 8.43508 42.6907 8.43508Z" fill="#000091"/>
<path fill-rule="evenodd" clip-rule="evenodd" d="M3.69929 38.7739C3.29889 38.7739 2.97314 38.4482 2.97314 38.0478C2.97314 37.6473 3.29889 37.3216 3.69929 37.3216C4.09969 37.3216 4.42544 37.6473 4.42544 38.0478C4.42544 38.4482 4.09969 38.7739 3.69929 38.7739Z" fill="#CACAFB"/>
<path fill-rule="evenodd" clip-rule="evenodd" d="M45.8243 10.3262C45.4239 10.3262 45.0981 10.0005 45.0981 9.60008C45.0981 9.19965 45.4239 8.87394 45.8243 8.87394C46.2247 8.87394 46.5504 9.19965 46.5504 9.60008C46.5504 10.0005 46.2247 10.3262 45.8243 10.3262Z" fill="#CACAFB"/>
<path fill-rule="evenodd" clip-rule="evenodd" d="M13.4727 27.953C13.0723 27.953 12.7466 27.6273 12.7466 27.2269C12.7466 26.8264 13.0723 26.5007 13.4727 26.5007C13.8731 26.5007 14.1989 26.8264 14.1989 27.2269C14.1989 27.6273 13.8731 27.953 13.4727 27.953Z" fill="#CACAFB"/>
</svg>
