<svg width="52" height="52" viewBox="0 0 52 52" fill="none" xmlns="http://www.w3.org/2000/svg">
<path d="M11.8533 39.9999C6.41699 39.9999 2 35.6187 2 30.2435C2 24.8683 6.42471 20.4871 11.8533 20.4871C17.2819 20.4871 21.7066 24.8683 21.7066 30.2435C21.7066 35.6187 17.2819 39.9999 11.8533 39.9999ZM11.8533 22.0086C7.27413 22.0086 3.5444 25.7017 3.5444 30.2358C3.5444 34.77 7.27413 38.463 11.8533 38.463C16.4324 38.463 20.1622 34.77 20.1622 30.2358C20.1622 25.7017 16.4324 22.0086 11.8533 22.0086Z" fill="#000091"/>
<path fill-rule="evenodd" clip-rule="evenodd" d="M3.69929 38.7739C3.29889 38.7739 2.97314 38.4482 2.97314 38.0478C2.97314 37.6473 3.29889 37.3216 3.69929 37.3216C4.09969 37.3216 4.42544 37.6473 4.42544 38.0478C4.42544 38.4482 4.09969 38.7739 3.69929 38.7739Z" fill="#CACAFB"/>
<path fill-rule="evenodd" clip-rule="evenodd" d="M3.69929 17.7955C3.29889 17.7955 2.97314 17.4697 2.97314 17.0693C2.97314 16.6689 3.29889 16.3432 3.69929 16.3432C4.09969 16.3432 4.42544 16.6689 4.42544 17.0693C4.42544 17.4697 4.09969 17.7955 3.69929 17.7955Z" fill="#CACAFB"/>
<path fill-rule="evenodd" clip-rule="evenodd" d="M23.7633 9.52413C23.3629 9.52413 23.0371 9.19838 23.0371 8.79798C23.0371 8.39755 23.3629 8.07184 23.7633 8.07184C24.1637 8.07184 24.4894 8.39755 24.4894 8.79798C24.4894 9.19838 24.1637 9.52413 23.7633 9.52413Z" fill="#CACAFB"/>
<path fill-rule="evenodd" clip-rule="evenodd" d="M26.6221 40.2262C26.2217 40.2262 25.896 39.9005 25.896 39.5001C25.896 39.0996 26.2217 38.7739 26.6221 38.7739C27.0225 38.7739 27.3483 39.0996 27.3483 39.5001C27.3483 39.9005 27.0225 40.2262 26.6221 40.2262Z" fill="#CACAFB"/>
<path fill-rule="evenodd" clip-rule="evenodd" d="M50.7261 22.2226C50.3257 22.2226 50 21.8968 50 21.4964C50 21.096 50.3257 20.7703 50.7261 20.7703C51.1265 20.7703 51.4523 21.096 51.4523 21.4964C51.4523 21.8968 51.1265 22.2226 50.7261 22.2226Z" fill="#CACAFB"/>
<path d="M40.1467 39.9999C34.7104 39.9999 30.2935 35.6187 30.2935 30.2435C30.2935 24.8683 34.7182 20.4871 40.1467 20.4871C45.5753 20.4871 50 24.8683 50 30.2435C50 35.6187 45.5753 39.9999 40.1467 39.9999ZM40.1467 22.0086C35.5599 22.0086 31.8379 25.7017 31.8379 30.2358C31.8379 34.77 35.5676 38.463 40.1467 38.463C44.7259 38.463 48.4556 34.77 48.4556 30.2358C48.4556 25.7017 44.7259 22.0086 40.1467 22.0086Z" fill="#000091"/>
<path d="M25.8921 33.4091C24.0774 33.4091 22.6025 31.9487 22.6025 30.1442C22.6025 28.3397 24.0774 26.887 25.8921 26.887C27.7068 26.887 29.1894 28.3474 29.1894 30.1442C29.1894 31.941 27.7145 33.4091 25.8921 33.4091ZM25.8921 28.4162C24.9269 28.4162 24.1469 29.1961 24.1469 30.1442C24.1469 31.0923 24.9346 31.8799 25.8921 31.8799C26.8496 31.8799 27.645 31.1 27.645 30.1442C27.645 29.1884 26.8574 28.4162 25.8921 28.4162Z" fill="#6A6AF4"/>
<path d="M11.8996 32.5679C10.556 32.5679 9.45947 31.4822 9.45947 30.1518C9.45947 28.8213 10.556 27.7356 11.8996 27.7356C13.2433 27.7356 14.3398 28.8213 14.3398 30.1518C14.3398 31.4822 13.2433 32.5679 11.8996 32.5679ZM11.8996 29.2572C11.4054 29.2572 11.0039 29.6548 11.0039 30.1441C11.0039 30.6335 11.4054 31.0311 11.8996 31.0311C12.3938 31.0311 12.7954 30.6335 12.7954 30.1441C12.7954 29.6548 12.3938 29.2572 11.8996 29.2572Z" fill="#6A6AF4"/>
<path d="M11.7914 29.112C11.3821 29.112 11.0424 28.7908 11.0192 28.3856C10.996 27.965 11.3281 27.6057 11.7528 27.5827L25.8609 26.8869C26.2702 26.8487 26.6486 27.1928 26.6717 27.6133C26.6949 28.0339 26.3628 28.3932 25.9381 28.4162L11.83 29.112C11.83 29.112 11.8069 29.112 11.7914 29.112Z" fill="#6A6AF4"/>
<path d="M25.892 33.409C25.892 33.409 25.8611 33.409 25.8457 33.409L11.8457 32.568C11.421 32.545 11.0967 32.178 11.1198 31.7575C11.143 31.3369 11.5214 31.0235 11.9384 31.0387L25.9384 31.8798C26.3631 31.9028 26.6874 32.2698 26.6642 32.6903C26.6411 33.0955 26.3013 33.409 25.892 33.409Z" fill="#6A6AF4"/>
<path d="M27.8147 28.8596C27.6989 28.8596 27.5753 28.829 27.4672 28.7755C27.0888 28.5844 26.9344 28.1256 27.1274 27.7433L31.8533 18.5986H18.4711L12.6023 28.3932C12.3861 28.7526 11.9074 28.8749 11.5444 28.6608C11.1815 28.4467 11.0579 27.9727 11.2742 27.6133L17.3668 17.444C17.5058 17.2146 17.7606 17.0693 18.0309 17.0693H33.1197C33.39 17.0693 33.6371 17.207 33.7761 17.4363C33.9151 17.6657 33.9305 17.9486 33.807 18.1857L28.5097 28.4467C28.3707 28.7143 28.1004 28.8596 27.8224 28.8596H27.8147Z" fill="#6A6AF4"/>
<path d="M40.1467 31.0005C39.8532 31.0005 39.5675 30.8323 39.4362 30.5417L31.6679 13.101C31.5598 12.864 31.583 12.5964 31.7297 12.3746C31.8764 12.1529 32.1158 12.0305 32.3706 12.0229L38.0463 11.9923H38.0617C39.0888 11.9923 40.054 12.5352 40.5791 13.4145L40.7027 13.6286C41.1274 14.3473 41.2278 15.2113 40.9575 16.0065C40.6949 16.8017 40.1003 17.4363 39.3204 17.7651C38.9266 17.9257 38.471 17.7498 38.3088 17.3599C38.1467 16.9699 38.3243 16.5188 38.7181 16.3582C39.0888 16.2053 39.359 15.9071 39.4903 15.5325C39.6139 15.1578 39.5675 14.7526 39.3667 14.4085L39.2432 14.1944C38.9961 13.7815 38.5096 13.4986 38.054 13.5215L33.5598 13.5445L40.8571 29.9224C41.027 30.3047 40.8571 30.7635 40.4633 30.9317C40.3629 30.9776 40.2548 30.9929 40.1544 30.9929L40.1467 31.0005Z" fill="#6A6AF4"/>
<path d="M24.3783 28.4238C24.1157 28.4238 23.8532 28.2862 23.7065 28.0415L15.5366 14.1409C15.3204 13.7739 15.4439 13.3075 15.8146 13.0934C16.1852 12.8793 16.6563 13.0016 16.8725 13.3686L25.0424 27.2769C25.2586 27.6439 25.135 28.1103 24.7644 28.3244C24.6408 28.3932 24.5095 28.4314 24.3783 28.4314V28.4238Z" fill="#6A6AF4"/>
<path d="M18.5561 14.3779H12.4094C11.9847 14.3779 11.6372 14.0338 11.6372 13.6132C11.6372 13.1927 11.9847 12.8486 12.4094 12.8486H18.5561C18.9808 12.8486 19.3283 13.1927 19.3283 13.6132C19.3283 14.0338 18.9808 14.3779 18.5561 14.3779Z" fill="#6A6AF4"/>
</svg>
