<svg width="52" height="52" viewBox="0 0 52 52" fill="none" xmlns="http://www.w3.org/2000/svg">
<path fill-rule="evenodd" clip-rule="evenodd" d="M35.5606 44.1019C35.7003 44.4772 35.5086 44.8961 35.1334 45.0358C34.7581 45.1755 34.3392 44.9838 34.1996 44.6086C34.0599 44.2333 34.2515 43.8144 34.6268 43.6747C35.002 43.535 35.4209 43.7267 35.5606 44.1019Z" fill="#CACAFB"/>
<path fill-rule="evenodd" clip-rule="evenodd" d="M4.15119 9.67593C4.29087 10.0512 4.09923 10.4701 3.72398 10.6098C3.34871 10.7495 2.92982 10.5578 2.79014 10.1826C2.65046 9.80733 2.84207 9.38842 3.21735 9.24873C3.59259 9.10905 4.01151 9.30069 4.15119 9.67593Z" fill="#CACAFB"/>
<path fill-rule="evenodd" clip-rule="evenodd" d="M46.5967 13.5645C46.7364 13.9397 46.5448 14.3587 46.1695 14.4983C45.7943 14.638 45.3754 14.4464 45.2357 14.0711C45.096 13.6959 45.2876 13.277 45.6629 13.1373C46.0381 12.9976 46.4571 13.1892 46.5967 13.5645Z" fill="#CACAFB"/>
<path d="M33.0628 33.8611H18.4659C18.1644 33.8611 17.9177 33.6145 17.9177 33.3133C17.9177 33.012 18.1644 32.7654 18.4659 32.7654H33.0628C33.3642 32.7654 33.6109 33.012 33.6109 33.3133C33.6109 33.6145 33.3642 33.8611 33.0628 33.8611Z" fill="#000091"/>
<path d="M10.6056 33.9487H8.81314C7.53598 33.9487 6.5 32.9079 6.5 31.637V27.6544C6.5 27.5065 6.5603 27.3641 6.66992 27.26C6.76859 27.1669 9.05432 24.9318 7.67301 22.9487C7.53598 22.7515 7.54146 22.4831 7.69494 22.2968L12.4144 16.3695C12.4857 16.2819 12.5843 16.2162 12.694 16.1833C12.8639 16.134 16.9201 14.9945 21.645 15C27.8829 15.0219 32.246 17.1255 34.2961 21.0862L34.9648 21.2396C38.9607 22.1654 42.5565 24.2361 45.352 27.2381C45.4452 27.3367 45.5 27.4736 45.5 27.6106V31.4672C45.5 32.7162 44.4805 33.7351 43.2307 33.7351H41.2793C40.9779 33.7351 40.7312 33.4886 40.7312 33.1873C40.7312 32.886 40.9779 32.6395 41.2793 32.6395H43.2307C43.8775 32.6395 44.4037 32.1136 44.4037 31.4672V27.8297C41.7781 25.0742 38.429 23.1678 34.7181 22.3078L33.7973 22.0941C33.6383 22.0558 33.5013 21.9462 33.43 21.7983C29.2861 13.258 14.8755 16.7421 13.1599 17.1913L8.79122 22.6693C9.87653 24.6688 8.59389 26.8272 7.59628 27.8735V31.6315C7.59628 32.2998 8.14441 32.8476 8.81314 32.8476H10.6056C10.907 32.8476 11.1537 33.0941 11.1537 33.3954C11.1537 33.6967 10.907 33.9432 10.6056 33.9432V33.9487Z" fill="#000091"/>
<path d="M32.1584 22.9651H13.3134C13.1106 22.9651 12.9242 22.8556 12.8311 22.6748C12.7379 22.4995 12.7434 22.2804 12.853 22.116L15.7307 17.739C15.8129 17.6131 15.939 17.5309 16.087 17.5035C29.6424 14.9617 32.5531 21.9188 32.6682 22.2146C32.7339 22.3845 32.712 22.5762 32.6134 22.7241C32.5092 22.872 32.3393 22.9651 32.1584 22.9651ZM14.333 21.8695H31.2211C30.0919 20.2535 26.4249 16.742 16.52 18.5388L14.3275 21.8695H14.333Z" fill="#6A6AF4"/>
<path d="M22.5879 22.9651C22.2865 22.9651 22.0398 22.7186 22.0398 22.4173V17.6569C22.0398 17.3556 22.2865 17.1091 22.5879 17.1091C22.8894 17.1091 23.1361 17.3556 23.1361 17.6569V22.4173C23.1361 22.7186 22.8894 22.9651 22.5879 22.9651Z" fill="#6A6AF4"/>
<path d="M22.6372 29.7251C22.3358 29.7251 22.0891 29.4786 22.0891 29.1773V25.0194C22.0891 24.7181 22.3358 24.4716 22.6372 24.4716C22.9387 24.4716 23.1854 24.7181 23.1854 25.0194V29.1773C23.1854 29.4786 22.9387 29.7251 22.6372 29.7251Z" fill="#000091"/>
<path d="M27.1264 26.011H25.0435C24.742 26.011 24.4954 25.7644 24.4954 25.4631C24.4954 25.1619 24.742 24.9153 25.0435 24.9153H27.1264C27.4279 24.9153 27.6746 25.1619 27.6746 25.4631C27.6746 25.7644 27.4279 26.011 27.1264 26.011Z" fill="#000091"/>
<path d="M17.5778 26.011H15.4949C15.1934 26.011 14.9468 25.7644 14.9468 25.4631C14.9468 25.1619 15.1934 24.9153 15.4949 24.9153H17.5778C17.8793 24.9153 18.126 25.1619 18.126 25.4631C18.126 25.7644 17.8793 26.011 17.5778 26.011Z" fill="#000091"/>
<path d="M7.04822 28.1967C6.85089 28.1967 6.66453 28.0926 6.56586 27.9064C6.42335 27.6379 6.52201 27.3093 6.7906 27.1668L10.5673 25.1509V24.2032H8.76389C8.46242 24.2032 8.21576 23.9567 8.21576 23.6554C8.21576 23.3541 8.46242 23.1076 8.76389 23.1076H11.1154C11.4169 23.1076 11.6635 23.3541 11.6635 23.6554V25.4796C11.6635 25.6823 11.5539 25.8685 11.373 25.9617L7.30585 28.131C7.22363 28.1748 7.13593 28.1967 7.04822 28.1967Z" fill="#000091"/>
<path d="M44.6887 29.5498C44.6284 29.5498 44.5626 29.5388 44.5023 29.5169L39.2183 27.6325C38.9936 27.5503 38.8456 27.3367 38.8565 27.0956L38.9168 25.3372C38.9278 25.0413 39.1799 24.7948 39.4759 24.8113L42.4139 24.866C42.7154 24.866 42.9566 25.1235 42.9511 25.4248C42.9456 25.7261 42.6771 25.9781 42.392 25.9617L39.9967 25.9178L39.9692 26.7395L44.8751 28.4871C45.1601 28.5911 45.3081 28.9034 45.2094 29.1882C45.1272 29.4128 44.9189 29.5498 44.6942 29.5498H44.6887Z" fill="#000091"/>
<path d="M31.643 32.1081H20.461C20.1595 32.1081 19.9128 31.8616 19.9128 31.5603C19.9128 31.259 20.1595 31.0125 20.461 31.0125H31.643C31.9445 31.0125 32.1911 31.259 32.1911 31.5603C32.1911 31.8616 31.9445 32.1081 31.643 32.1081Z" fill="#000091"/>
<path d="M14.5905 37C12.1239 37 10.1177 34.995 10.1177 32.5299C10.1177 30.0647 12.1239 28.0598 14.5905 28.0598C17.0571 28.0598 19.0633 30.0647 19.0633 32.5299C19.0633 34.995 17.0571 37 14.5905 37ZM14.5905 29.1554C12.7268 29.1554 11.214 30.6673 11.214 32.5299C11.214 34.3924 12.7268 35.9044 14.5905 35.9044C16.4541 35.9044 17.967 34.3924 17.967 32.5299C17.967 30.6673 16.4541 29.1554 14.5905 29.1554Z" fill="#6A6AF4"/>
<path d="M36.9271 37C34.4605 37 32.4543 34.995 32.4543 32.5299C32.4543 30.0647 34.4605 28.0598 36.9271 28.0598C39.3938 28.0598 41.4 30.0647 41.4 32.5299C41.4 34.995 39.3938 37 36.9271 37ZM36.9271 29.1554C35.0635 29.1554 33.5506 30.6673 33.5506 32.5299C33.5506 34.3924 35.0635 35.9044 36.9271 35.9044C38.7908 35.9044 40.3037 34.3924 40.3037 32.5299C40.3037 30.6673 38.7908 29.1554 36.9271 29.1554Z" fill="#6A6AF4"/>
<path d="M14.3986 34.754C13.1708 34.754 12.1677 33.757 12.1677 32.5244C12.1677 31.2918 13.1653 30.2948 14.3986 30.2948C15.632 30.2948 16.6296 31.2918 16.6296 32.5244C16.6296 33.757 15.632 34.754 14.3986 34.754ZM14.3986 31.3959C13.7738 31.3959 13.264 31.9054 13.264 32.5299C13.264 33.1544 13.7738 33.6638 14.3986 33.6638C15.0235 33.6638 15.5333 33.1544 15.5333 32.5299C15.5333 31.9054 15.0235 31.3959 14.3986 31.3959Z" fill="#6A6AF4"/>
<path d="M36.9326 34.754C35.7048 34.754 34.7017 33.757 34.7017 32.5244C34.7017 31.2918 35.6993 30.2948 36.9326 30.2948C38.1659 30.2948 39.1635 31.2918 39.1635 32.5244C39.1635 33.757 38.1659 34.754 36.9326 34.754ZM36.9326 31.3959C36.3077 31.3959 35.7979 31.9054 35.7979 32.5299C35.7979 33.1544 36.3077 33.6638 36.9326 33.6638C37.5575 33.6638 38.0672 33.1544 38.0672 32.5299C38.0672 31.9054 37.5575 31.3959 36.9326 31.3959Z" fill="#6A6AF4"/>
</svg>
