<svg width="52" height="52" viewBox="0 0 52 52" fill="none" xmlns="http://www.w3.org/2000/svg">
<path fill-rule="evenodd" clip-rule="evenodd" d="M35.5606 44.1019C35.7003 44.4772 35.5086 44.8961 35.1334 45.0358C34.7581 45.1755 34.3392 44.9838 34.1996 44.6086C34.0599 44.2333 34.2515 43.8144 34.6268 43.6747C35.002 43.535 35.4209 43.7267 35.5606 44.1019Z" fill="#CACAFB"/>
<path fill-rule="evenodd" clip-rule="evenodd" d="M9.83137 35.0367C9.97105 35.4119 9.7794 35.8309 9.40416 35.9705C9.02888 36.1102 8.60999 35.9186 8.47031 35.5433C8.33063 35.1681 8.52225 34.7492 8.89752 34.6095C9.27276 34.4698 9.69169 34.6614 9.83137 35.0367Z" fill="#CACAFB"/>
<path fill-rule="evenodd" clip-rule="evenodd" d="M4.15119 9.67593C4.29087 10.0512 4.09923 10.4701 3.72398 10.6098C3.34871 10.7495 2.92982 10.5578 2.79014 10.1826C2.65046 9.80733 2.84207 9.38842 3.21735 9.24873C3.59259 9.10905 4.01151 9.30069 4.15119 9.67593Z" fill="#CACAFB"/>
<path fill-rule="evenodd" clip-rule="evenodd" d="M46.5967 13.5645C46.7364 13.9397 46.5448 14.3587 46.1695 14.4983C45.7943 14.638 45.3754 14.4464 45.2357 14.0711C45.096 13.6959 45.2876 13.277 45.6629 13.1373C46.0381 12.9976 46.4571 13.1892 46.5967 13.5645Z" fill="#CACAFB"/>
<path d="M30.5235 45.9821C29.1863 45.9821 28.2561 44.81 28.0177 44.0446C28.0119 44.0206 28.0061 44.0027 28.0003 43.9788C27.9363 43.6798 26.7503 39.4759 26.0468 37.6639C25.5933 36.9882 25.1514 36.3304 24.7328 35.6965L24.0758 34.7098C24.0119 34.6141 23.9131 34.4945 23.8782 34.4587L23.7096 34.351C21.8026 33.0773 19.8375 31.7617 20.3491 27.8927V27.8687C20.32 25.3871 20.4131 22.9113 20.6282 20.4775C19.0991 21.3924 18.8898 23.0429 18.9479 27.4262C18.9538 28.6282 18.0119 29.6567 16.8491 29.7225H16.7677C16.7677 29.7225 16.7561 29.7225 16.7445 29.7225C15.5061 29.7225 14.5177 28.7119 14.5061 27.4561C14.4189 21.1951 14.9421 16.6384 22.4596 15.0955C22.9886 14.9819 23.5061 14.9102 24.1224 14.8264L24.4072 14.8085C26.0526 14.7068 27.5991 15.7713 28.1398 17.332C28.1514 17.35 28.1631 17.3679 28.1747 17.3918C28.1979 17.4277 28.2154 17.4756 28.227 17.5234C28.2677 17.643 28.3084 17.7566 28.3433 17.8583C28.3956 18.0078 28.4421 18.1334 28.4712 18.235C29.4305 20.938 30.3549 21.6735 35.4654 22.0203C36.0875 22.0443 36.6398 22.3134 37.0177 22.7858C37.4014 23.2642 37.5584 23.8801 37.4596 24.5259C37.3607 25.6203 36.477 26.4874 35.3607 26.5472L35.1572 26.5591C35.1572 26.5591 35.1107 26.5591 35.0875 26.5591C31.4596 26.3199 29.1224 25.6621 27.4072 24.3406C27.2503 25.7937 27.0293 27.2887 26.7677 28.7478C30.6165 33.5318 32.8898 42.3821 32.9131 42.4718C33.0758 42.9861 33.0817 43.907 32.7038 44.6485C32.4072 45.2346 31.9014 45.6532 31.2503 45.8565C30.9944 45.9342 30.7503 45.9701 30.5119 45.9701L30.5235 45.9821ZM29.1282 43.6858C29.1805 43.8054 29.7735 45.0791 30.9247 44.7203C31.2793 44.6067 31.5293 44.4093 31.6863 44.1044C31.9305 43.626 31.8724 43.028 31.8084 42.8187C31.7793 42.6991 29.4421 33.765 25.7154 29.3219C25.5991 29.1843 25.5526 28.999 25.5875 28.8196C25.9421 26.9299 26.2154 24.9505 26.3782 23.0967C26.4014 22.8635 26.5468 22.6662 26.7619 22.5884C26.977 22.5107 27.2096 22.5645 27.3724 22.726C28.9421 24.3406 31.1979 25.112 35.1514 25.3751L35.32 25.3631C35.8665 25.3332 36.2793 24.9266 36.3317 24.3824C36.384 24.0475 36.3142 23.7665 36.1514 23.5572C35.9828 23.3479 35.7328 23.2343 35.4479 23.2223C35.4421 23.2223 35.4363 23.2223 35.4247 23.2223C30.4247 22.8814 28.6631 22.1997 27.3956 18.6177C27.3607 18.5041 27.32 18.3965 27.2793 18.2769C27.2503 18.1991 27.2212 18.1214 27.1921 18.0317C27.1514 17.9779 27.1165 17.9121 27.0991 17.8403C26.7677 16.7041 25.6631 15.9447 24.4945 15.9985L24.2503 16.0105C23.6979 16.0822 23.2038 16.154 22.7096 16.2616C16.0177 17.637 15.5875 21.4044 15.6689 27.4442C15.6747 28.0481 16.1456 28.5325 16.7212 28.5325H16.7851C17.3433 28.4966 17.791 28.0063 17.7851 27.4382C17.7154 22.2954 17.9945 20.0828 21.1049 18.9466C21.291 18.8749 21.5003 18.9107 21.6572 19.0423C21.8142 19.1679 21.8956 19.3712 21.8782 19.5745C21.5991 22.2894 21.477 25.0641 21.5061 27.8329V27.8927C21.5061 27.9285 21.5061 27.9704 21.5061 28.0063C21.07 31.1697 22.5177 32.1325 24.3433 33.3524L24.5235 33.472C24.6979 33.5796 24.8956 33.8367 25.0293 34.0281L25.6921 35.0268C26.1224 35.6726 26.57 36.3483 27.0351 37.042C27.0584 37.0779 27.0817 37.1198 27.0991 37.1616C27.8026 38.9496 28.977 43.0937 29.1224 43.6977L29.1282 43.6858Z" fill="#000091"/>
<path d="M18.1104 46C17.6686 46 17.2325 45.8804 16.8197 45.6532C16.186 45.2944 15.7325 44.7083 15.5407 44.0027C15.3546 43.321 15.436 42.6094 15.7732 41.9994C15.8604 41.8021 15.9709 41.6227 16.0988 41.4134C16.1686 41.3057 16.2384 41.1861 16.3197 41.0486L16.4942 40.7556C17.343 39.3323 18.6221 37.1795 19.4011 34.4048C19.4825 33.466 19.8197 31.4627 20.0639 29.9976C20.1744 29.3458 20.2674 28.8016 20.3139 28.4907C20.3604 28.1618 20.657 27.9405 20.9767 27.9883C21.2965 28.0362 21.5116 28.3412 21.4651 28.6701C21.4186 28.981 21.3256 29.5431 21.2151 30.2009C20.9651 31.678 20.6221 33.7052 20.5581 34.5603C20.5581 34.6022 20.5465 34.6381 20.5349 34.6799C19.7093 37.64 18.3139 39.9842 17.4825 41.3835L17.3139 41.6705C17.2325 41.814 17.1511 41.9396 17.0814 42.0592C16.9709 42.2446 16.8779 42.3881 16.8256 42.5137C16.8139 42.5376 16.8081 42.5555 16.7965 42.5735C16.6046 42.9143 16.5581 43.309 16.6628 43.6858C16.7674 44.0804 17.0232 44.4093 17.3837 44.6126C17.6511 44.7621 17.9128 44.8279 18.1918 44.81C18.7151 44.7801 19.1453 44.511 19.3721 44.0625C19.3837 44.0446 19.3895 44.0266 19.4011 44.0087C19.436 43.9549 19.4709 43.8891 19.5116 43.8113C19.593 43.6618 19.6918 43.4765 19.8314 43.2851C20.7442 41.7602 22.9128 38.1304 23.9011 34.1776C23.9825 33.8547 24.2965 33.6633 24.6104 33.747C24.9244 33.8308 25.1104 34.1537 25.0291 34.4766C24 38.6088 21.7674 42.3403 20.8081 43.9369C20.7965 43.9489 20.7732 43.9907 20.7674 44.0027C20.6686 44.1402 20.5988 44.2778 20.5349 44.3974C20.4825 44.493 20.436 44.5768 20.3895 44.6485C19.9709 45.4439 19.1744 45.9522 18.2558 46.006C18.2093 46.006 18.157 46.006 18.1104 46.006V46Z" fill="#000091"/>
<path d="M26.0059 14.3779C23.8605 14.3779 22.0582 12.6497 21.9419 10.4192C21.8198 8.11093 23.5407 6.13156 25.7849 6.00598C26.8663 5.9402 27.907 6.32292 28.721 7.07041C29.5349 7.81791 30.0175 8.84646 30.0756 9.95276C30.1338 11.065 29.7675 12.1354 29.0407 12.9726C28.314 13.8098 27.314 14.3062 26.2384 14.366C26.1628 14.366 26.0873 14.372 26.0175 14.372L26.0059 14.3779ZM26.0059 7.11227C25.9535 7.11227 25.8954 7.11227 25.8431 7.11227C24.1977 7.20795 22.9303 8.66109 23.0175 10.3534C23.1105 12.0457 24.5233 13.3494 26.1686 13.2597C26.9593 13.2118 27.6919 12.853 28.2268 12.2371C28.7617 11.6212 29.0349 10.8318 28.9884 10.0185C28.9419 9.20526 28.5931 8.45179 27.9942 7.90163C27.4361 7.38735 26.7384 7.11227 26.0059 7.11227Z" fill="#000091"/>
</svg>
