<svg width="52" height="52" viewBox="0 0 52 52" fill="none" xmlns="http://www.w3.org/2000/svg">
<path d="M38.5664 9.31113C38.8425 9.31113 39.0664 9.53499 39.0664 9.81113V42.1891C39.0663 42.4651 38.8425 42.6891 38.5664 42.6891H13.4336C13.1575 42.6891 12.9337 42.4651 12.9336 42.1891V9.81113C12.9336 9.53499 13.1575 9.31113 13.4336 9.31113H38.5664ZM13.9336 41.6891H38.0664V10.3111H13.9336V41.6891Z" fill="#000091"/>
<path d="M28.0903 24.0318C28.3664 24.0319 28.5903 24.2557 28.5903 24.5318C28.5903 24.8079 28.3664 25.0317 28.0903 25.0318H17.4087C17.1325 25.0318 16.9087 24.8079 16.9087 24.5318C16.9087 24.2556 17.1325 24.0318 17.4087 24.0318H28.0903Z" fill="#000091"/>
<path d="M25.2759 27.1029C25.5519 27.1031 25.7759 27.3268 25.7759 27.6029C25.7759 27.8789 25.5519 28.1027 25.2759 28.1029H17.4087C17.1325 28.1029 16.9087 27.879 16.9087 27.6029C16.9087 27.3267 17.1325 27.1029 17.4087 27.1029H25.2759Z" fill="#000091"/>
<path d="M29.0132 30.1675C29.2893 30.1675 29.5132 30.3914 29.5132 30.6675C29.5132 30.9437 29.2893 31.1675 29.0132 31.1675H17.4087C17.1325 31.1675 16.9087 30.9437 16.9087 30.6675C16.9087 30.3914 17.1325 30.1675 17.4087 30.1675H29.0132Z" fill="#000091"/>
<path d="M26.519 33.2322C26.7952 33.2322 27.019 33.456 27.019 33.7322C27.019 34.0083 26.7952 34.2322 26.519 34.2322H17.4087C17.1325 34.2322 16.9087 34.0083 16.9087 33.7322C16.9087 33.456 17.1325 33.2322 17.4087 33.2322H26.519Z" fill="#000091"/>
<path d="M28.0903 36.2969C28.3664 36.297 28.5903 36.5208 28.5903 36.7969C28.5903 37.0729 28.3664 37.2967 28.0903 37.2969H17.4087C17.1325 37.2969 16.9087 37.073 16.9087 36.7969C16.9087 36.5207 17.1325 36.2969 17.4087 36.2969H28.0903Z" fill="#000091"/>
<path d="M27.286 13.762C28.1483 12.9784 29.5615 12.8424 30.4286 13.7962C30.6142 14.0004 30.5994 14.3165 30.3954 14.5023C30.1911 14.688 29.8741 14.6734 29.6884 14.469C29.2733 14.0125 28.5071 14.004 27.9589 14.5023C27.5023 14.9173 27.4936 15.6844 27.9921 16.2327C28.4259 16.7099 29.1852 16.7349 29.705 16.2151C29.9002 16.0199 30.2167 16.02 30.412 16.2151C30.6072 16.4104 30.6072 16.7269 30.412 16.9222C29.5213 17.8129 28.1003 17.8389 27.2518 16.9056C26.468 16.0433 26.3321 14.6292 27.286 13.762Z" fill="#6A6AF4"/>
<path d="M33.8533 13.5904C33.9581 13.3349 34.2502 13.2122 34.5057 13.3169C34.7611 13.4217 34.8828 13.7138 34.7781 13.9693L33.4637 17.1753C33.386 17.3644 33.2013 17.4877 32.9969 17.4859C32.7923 17.4839 32.609 17.3573 32.535 17.1665L31.2918 13.9605C31.192 13.703 31.3195 13.4139 31.577 13.314C31.8344 13.2141 32.1236 13.3417 32.2234 13.5991L33.0135 15.6363L33.8533 13.5904Z" fill="#6A6AF4"/>
<path d="M19.3447 15.6328C20.6467 15.6328 21.7041 16.6902 21.7041 17.9922V18.2676C21.7041 18.5437 21.4802 18.7675 21.2041 18.7676H17.4854C17.2092 18.7676 16.9854 18.5437 16.9854 18.2676V17.9922C16.9854 16.6902 18.0428 15.6328 19.3447 15.6328ZM19.3447 16.6328C18.6716 16.6328 18.1122 17.1245 18.0049 17.7676H20.6846C20.5772 17.1245 20.0179 16.6328 19.3447 16.6328Z" fill="#000091"/>
<path d="M20.1147 14.2864C20.1147 13.8614 19.7701 13.5169 19.3452 13.5168C18.9203 13.5168 18.5757 13.8614 18.5757 14.2864C18.5757 14.7113 18.9203 15.0559 19.3452 15.0559C19.7701 15.0559 20.1147 14.7113 20.1147 14.2864ZM21.1147 14.2864C21.1147 15.2636 20.3224 16.0559 19.3452 16.0559C18.368 16.0559 17.5757 15.2636 17.5757 14.2864C17.5757 13.3091 18.368 12.5168 19.3452 12.5168C20.3224 12.5169 21.1147 13.3092 21.1147 14.2864Z" fill="#000091"/>
<path fill-rule="evenodd" clip-rule="evenodd" d="M6.45906 45.8929C6.05866 45.8929 5.73291 45.5672 5.73291 45.1668C5.73291 44.7664 6.05866 44.4406 6.45906 44.4406C6.85945 44.4406 7.1852 44.7664 7.1852 45.1668C7.1852 45.5672 6.85945 45.8929 6.45906 45.8929Z" fill="#CACAFB"/>
<path fill-rule="evenodd" clip-rule="evenodd" d="M5.00691 10.138C4.60651 10.138 4.28076 9.81229 4.28076 9.41189C4.28076 9.01146 4.60651 8.68575 5.00691 8.68575C5.4073 8.68575 5.73305 9.01146 5.73305 9.41189C5.73305 9.81229 5.4073 10.138 5.00691 10.138Z" fill="#CACAFB"/>
<path fill-rule="evenodd" clip-rule="evenodd" d="M43.4927 22.9806C43.0924 22.9806 42.7666 22.6549 42.7666 22.2545C42.7666 21.854 43.0924 21.5283 43.4927 21.5283C43.8931 21.5283 44.2189 21.854 44.2189 22.2545C44.2189 22.6549 43.8931 22.9806 43.4927 22.9806Z" fill="#CACAFB"/>
<path fill-rule="evenodd" clip-rule="evenodd" d="M46.397 6.50731C45.9966 6.50731 45.6709 6.18156 45.6709 5.78116C45.6709 5.38073 45.9966 5.05502 46.397 5.05502C46.7974 5.05502 47.1232 5.38073 47.1232 5.78116C47.1232 6.18156 46.7974 6.50731 46.397 6.50731Z" fill="#CACAFB"/>
<path fill-rule="evenodd" clip-rule="evenodd" d="M37.8404 47.3452C37.44 47.3452 37.1143 47.0195 37.1143 46.6191C37.1143 46.2186 37.44 45.8929 37.8404 45.8929C38.2408 45.8929 38.5665 46.2186 38.5665 46.6191C38.5665 47.0195 38.2408 47.3452 37.8404 47.3452Z" fill="#CACAFB"/>
</svg>
