<svg width="100" height="100" viewBox="0 0 100 100" fill="none" xmlns="http://www.w3.org/2000/svg">
<circle cx="50" cy="50" r="50" fill="#FEECC2"/>
<path d="M69.333 24.3247C69.7579 24.3247 70.1023 24.6691 70.1023 25.0939V74.9061C70.1021 75.3308 69.7578 75.6754 69.333 75.6754H30.6672C30.2424 75.6754 29.8981 75.3308 29.8979 74.9061V25.0939C29.8979 24.6691 30.2423 24.3247 30.6672 24.3247H69.333ZM31.4364 74.1369H68.5638V25.8632H31.4364V74.1369Z" fill="#000091"/>
<path d="M53.2162 46.9719C53.6409 46.9721 53.9854 47.3164 53.9854 47.7412C53.9854 48.1659 53.6409 48.5102 53.2162 48.5104H36.7829C36.3581 48.5104 36.0137 48.166 36.0137 47.7412C36.0137 47.3163 36.3581 46.9719 36.7829 46.9719H53.2162Z" fill="#000091"/>
<path d="M48.8863 51.6965C49.3108 51.6968 49.6555 52.0411 49.6555 52.4658C49.6555 52.8904 49.3108 53.2347 48.8863 53.235H36.7829C36.3581 53.235 36.0137 52.8906 36.0137 52.4658C36.0137 52.0409 36.3581 51.6965 36.7829 51.6965H48.8863Z" fill="#000091"/>
<path d="M54.636 56.4114C55.0608 56.4114 55.4052 56.7558 55.4052 57.1806C55.4052 57.6054 55.0608 57.9498 54.636 57.9498H36.7829C36.3581 57.9498 36.0137 57.6054 36.0137 57.1806C36.0137 56.7558 36.3581 56.4114 36.7829 56.4114H54.636Z" fill="#000091"/>
<path d="M50.7988 61.1262C51.2237 61.1262 51.5681 61.4706 51.5681 61.8955C51.5681 62.3203 51.2237 62.6647 50.7988 62.6647H36.7829C36.3581 62.6647 36.0137 62.3203 36.0137 61.8955C36.0137 61.4706 36.3581 61.1262 36.7829 61.1262H50.7988Z" fill="#000091"/>
<path d="M53.2162 65.8413C53.6409 65.8415 53.9854 66.1858 53.9854 66.6105C53.9854 67.0353 53.6409 67.3796 53.2162 67.3798H36.7829C36.3581 67.3798 36.0137 67.0354 36.0137 66.6105C36.0137 66.1857 36.3581 65.8413 36.7829 65.8413H53.2162Z" fill="#000091"/>
<path d="M51.9784 31.1723C53.305 29.9667 55.4792 29.7574 56.8132 31.2248C57.0987 31.539 57.0759 32.0253 56.7621 32.3111C56.4477 32.5968 55.9601 32.5743 55.6744 32.26C55.0358 31.5576 53.8571 31.5446 53.0136 32.3111C52.3111 32.9497 52.2978 34.1298 53.0647 34.9733C53.7321 35.7074 54.9002 35.746 55.6999 34.9463C56.0002 34.646 56.4872 34.6461 56.7876 34.9463C57.088 35.2467 57.088 35.7336 56.7876 36.034C55.4174 37.4043 53.2312 37.4443 51.9259 36.0085C50.7199 34.682 50.5109 32.5064 51.9784 31.1723Z" fill="#6A6AF4"/>
<path d="M62.082 30.9082C62.2431 30.5151 62.6925 30.3264 63.0856 30.4875C63.4785 30.6487 63.6658 31.0981 63.5047 31.4911L61.4825 36.4235C61.363 36.7145 61.0789 36.9042 60.7644 36.9013C60.4496 36.8983 60.1676 36.7035 60.0537 36.41L58.1412 31.4776C57.9876 31.0816 58.1838 30.6367 58.5799 30.483C58.9759 30.3294 59.4208 30.5257 59.5744 30.9217L60.7899 34.0557L62.082 30.9082Z" fill="#6A6AF4"/>
<path d="M39.7616 34.0503C41.7646 34.0503 43.3915 35.6771 43.3915 37.6801V38.1038C43.3915 38.5286 43.047 38.8729 42.6222 38.873H36.9011C36.4762 38.873 36.1318 38.5286 36.1318 38.1038V37.6801C36.1318 35.6771 37.7586 34.0503 39.7616 34.0503ZM39.7616 35.5888C38.726 35.5888 37.8655 36.3452 37.7003 37.3345H41.8229C41.6578 36.3452 40.7972 35.5888 39.7616 35.5888Z" fill="#000091"/>
<path d="M40.9458 31.9789C40.9458 31.3252 40.4156 30.7951 39.7619 30.7951C39.1081 30.7951 38.578 31.3252 38.578 31.9789C38.5781 32.6327 39.1082 33.1628 39.7619 33.1628C40.4156 33.1628 40.9457 32.6327 40.9458 31.9789ZM42.4843 31.9789C42.4842 33.4823 41.2653 34.7012 39.7619 34.7013C38.2585 34.7013 37.0396 33.4824 37.0396 31.9789C37.0396 30.4755 38.2584 29.2566 39.7619 29.2566C41.2653 29.2566 42.4843 30.4755 42.4843 31.9789Z" fill="#000091"/>
<path fill-rule="evenodd" clip-rule="evenodd" d="M19.9375 80.6044C19.3215 80.6044 18.8203 80.1033 18.8203 79.4873C18.8203 78.8712 19.3215 78.3701 19.9375 78.3701C20.5535 78.3701 21.0546 78.8712 21.0546 79.4873C21.0546 80.1033 20.5535 80.6044 19.9375 80.6044Z" fill="#CACAFB"/>
<path fill-rule="evenodd" clip-rule="evenodd" d="M17.7026 25.5971C17.0866 25.5971 16.5854 25.0959 16.5854 24.4799C16.5854 23.8639 17.0866 23.3628 17.7026 23.3628C18.3186 23.3628 18.8197 23.8639 18.8197 24.4799C18.8197 25.0959 18.3186 25.5971 17.7026 25.5971Z" fill="#CACAFB"/>
<path fill-rule="evenodd" clip-rule="evenodd" d="M76.9121 45.3549C76.2961 45.3549 75.7949 44.8537 75.7949 44.2378C75.7949 43.6217 76.2961 43.1206 76.9121 43.1206C77.5281 43.1206 78.0292 43.6217 78.0292 44.2378C78.0292 44.8537 77.5281 45.3549 76.9121 45.3549Z" fill="#CACAFB"/>
<path fill-rule="evenodd" clip-rule="evenodd" d="M81.3798 20.0111C80.7638 20.0111 80.2627 19.51 80.2627 18.894C80.2627 18.278 80.7638 17.7769 81.3798 17.7769C81.9958 17.7769 82.497 18.278 82.497 18.894C82.497 19.51 81.9958 20.0111 81.3798 20.0111Z" fill="#CACAFB"/>
<path fill-rule="evenodd" clip-rule="evenodd" d="M68.2158 82.8388C67.5998 82.8388 67.0986 82.3376 67.0986 81.7216C67.0986 81.1056 67.5998 80.6045 68.2158 80.6045C68.8318 80.6045 69.3329 81.1056 69.3329 81.7216C69.3329 82.3376 68.8318 82.8388 68.2158 82.8388Z" fill="#CACAFB"/>
</svg>
