<svg xmlns="http://www.w3.org/2000/svg" width="81" height="81" fill="none"><path fill="#000091" d="M65.92 30.473c0-.898-.745-1.654-1.698-1.654H16.779c-.953 0-1.7.756-1.7 1.654v30.14c0 .898.747 1.652 1.7 1.652h47.443c.953 0 1.697-.755 1.697-1.652v-30.14Zm1.846 30.14c0 1.947-1.602 3.499-3.544 3.499H16.779c-1.943 0-3.544-1.552-3.544-3.5V30.474c0-1.948 1.601-3.5 3.544-3.5h47.443c1.942 0 3.544 1.552 3.544 3.5v30.14Z"/><path fill="#000091" d="M13.235 39.574v-9.102h1.844v9.102c0 4.198 3.505 7.664 7.816 7.664h35.21c4.311 0 7.814-3.466 7.814-7.664v-9.102h1.847v9.102c0 5.248-4.36 9.51-9.66 9.51H22.894c-5.3 0-9.66-4.262-9.66-9.51Z"/><path fill="#000091" d="M18.826 60.87V47.646h1.845V60.87c0 .763.62 1.396 1.437 1.396h36.784c.816 0 1.437-.633 1.437-1.396V47.818h1.845V60.87c0 1.813-1.477 3.24-3.282 3.241H22.108c-1.805 0-3.282-1.428-3.282-3.24Z"/><path fill="#6A6AF4" d="M29.971 42.688c.51 0 .923.413.923.922v9.19c0 .509-.413.922-.923.922h-4.543a.923.923 0 0 1-.923-.923V43.61c0-.51.413-.922.923-.922h4.543Zm-3.62 9.187h2.698v-7.342H26.35v7.342ZM55.397 42.688c.51 0 .922.413.922.922v9.19c0 .509-.413.922-.922.922h-4.544a.923.923 0 0 1-.922-.923V43.61c0-.51.413-.922.922-.922h4.544Zm-3.621 9.187h2.698v-7.342h-2.698v7.342Z"/><path fill="#000091" d="M52.203 21.113c0-.935-.709-1.654-1.7-1.654H30.41c-.991 0-1.7.72-1.7 1.654v5.688h23.494v-5.688Zm1.846 7.535H26.865v-7.535c0-1.984 1.564-3.499 3.544-3.499h20.094c1.98 0 3.546 1.515 3.546 3.5v7.534Z"/><path fill="#000091" d="M31.767 26.802H49.32v-4.423H31.767v4.423Zm19.398 1.846H29.923v-6.762c0-.344.12-.7.395-.97.25-.247.568-.357.877-.375v-.007h18.61c.336 0 .69.113.963.381.276.27.397.627.397.97v6.763Z"/><path fill="#CACAFB" fill-rule="evenodd" d="M10.437 71.467a1.118 1.118 0 0 1 0-2.234 1.118 1.118 0 0 1 0 2.234ZM8.203 16.46a1.118 1.118 0 1 1 1.117-1.117c0 .615-.501 1.116-1.117 1.116ZM72.742 19.654a1.118 1.118 0 1 1 1.117-1.117c0 .616-.501 1.117-1.117 1.117Z" clip-rule="evenodd"/></svg>