<svg width="52" height="52" viewBox="0 0 52 52" fill="none" xmlns="http://www.w3.org/2000/svg">
<path d="M42.5225 19.2468C42.5225 18.6631 42.0384 18.1716 41.4189 18.1716H10.5811C9.96159 18.1716 9.47656 18.6631 9.47656 19.2468V38.8376C9.47664 39.4211 9.96164 39.9118 10.5811 39.9118H41.4189C42.0384 39.9118 42.5224 39.4211 42.5225 38.8376V19.2468ZM43.7227 38.8376C43.7226 40.1034 42.6814 41.112 41.4189 41.112H10.5811C9.31863 41.112 8.27742 40.1034 8.27734 38.8376V19.2468C8.27734 17.9808 9.31858 16.9723 10.5811 16.9723H41.4189C42.6814 16.9723 43.7227 17.9808 43.7227 19.2468V38.8376Z" fill="#000091"/>
<path d="M8.27734 25.1624V19.2464H9.47656V25.1624C9.47656 27.8911 11.7546 30.1439 14.5566 30.1439H37.4434C40.2454 30.1439 42.5225 27.8911 42.5225 25.1624V19.2464H43.7227V25.1624C43.7227 28.5734 40.8885 31.3441 37.4434 31.3441H14.5566C11.1115 31.3441 8.27734 28.5734 8.27734 25.1624Z" fill="#000091"/>
<path d="M11.9121 39.0051V30.4094H13.1113V39.0051C13.1114 39.501 13.5147 39.9122 14.0449 39.9123H37.9551C38.4853 39.9122 38.8886 39.501 38.8887 39.0051V30.5207H40.0879V39.0051C40.0878 40.1833 39.1283 41.1114 37.9551 41.1115H14.0449C12.8717 41.1114 11.9122 40.1833 11.9121 39.0051Z" fill="#000091"/>
<path d="M19.1562 27.1865C19.4876 27.1865 19.7559 27.4547 19.7559 27.7861V33.7587C19.7556 34.0899 19.4875 34.3583 19.1562 34.3583H16.2031C15.8719 34.3583 15.6038 34.0899 15.6035 33.7587V27.7861C15.6035 27.4547 15.8718 27.1865 16.2031 27.1865H19.1562ZM16.8027 33.1581H18.5566V28.3857H16.8027V33.1581Z" fill="#6A6AF4"/>
<path d="M35.6826 27.1865C36.014 27.1865 36.2822 27.4547 36.2822 27.7861V33.7587C36.282 34.0899 36.0138 34.3583 35.6826 34.3583H32.7295C32.3983 34.3583 32.1301 34.0899 32.1299 33.7587V27.7861C32.1299 27.4547 32.3981 27.1865 32.7295 27.1865H35.6826ZM33.3291 33.1581H35.083V28.3857H33.3291V33.1581Z" fill="#6A6AF4"/>
<path d="M33.6064 13.1629C33.6064 12.5552 33.1459 12.0877 32.502 12.0877H19.4404C18.7965 12.0877 18.3359 12.5552 18.3359 13.1629V16.8602H33.6064V13.1629ZM34.8066 18.0604H17.1367V13.1629C17.1367 11.8729 18.1534 10.8885 19.4404 10.8885H32.502C33.7889 10.8885 34.8066 11.8729 34.8066 13.1629V18.0604Z" fill="#000091"/>
<path d="M20.3237 16.8604H31.7319V13.9854H20.3237V16.8604ZM32.9321 18.0606H19.1245V13.6651C19.1245 13.4419 19.2024 13.2101 19.3813 13.0343C19.544 12.8744 19.7506 12.8029 19.9517 12.7911V12.7862H32.0483C32.2666 12.7863 32.4964 12.8596 32.6743 13.0343C32.8532 13.2101 32.9321 13.4419 32.9321 13.6651V18.0606Z" fill="#000091"/>
<path fill-rule="evenodd" clip-rule="evenodd" d="M6.45906 45.8929C6.05866 45.8929 5.73291 45.5672 5.73291 45.1668C5.73291 44.7664 6.05866 44.4406 6.45906 44.4406C6.85945 44.4406 7.1852 44.7664 7.1852 45.1668C7.1852 45.5672 6.85945 45.8929 6.45906 45.8929Z" fill="#CACAFB"/>
<path fill-rule="evenodd" clip-rule="evenodd" d="M5.00691 10.138C4.60651 10.138 4.28076 9.81229 4.28076 9.41189C4.28076 9.01146 4.60651 8.68575 5.00691 8.68575C5.4073 8.68575 5.73305 9.01146 5.73305 9.41189C5.73305 9.81229 5.4073 10.138 5.00691 10.138Z" fill="#CACAFB"/>
<path fill-rule="evenodd" clip-rule="evenodd" d="M46.9571 12.2143C46.5567 12.2143 46.231 11.8885 46.231 11.4881C46.231 11.0877 46.5567 10.762 46.9571 10.762C47.3575 10.762 47.6832 11.0877 47.6832 11.4881C47.6832 11.8885 47.3575 12.2143 46.9571 12.2143Z" fill="#CACAFB"/>
</svg>
