<svg width="100" height="100" viewBox="0 0 100 100" fill="none" xmlns="http://www.w3.org/2000/svg">
<circle cx="50" cy="50" r="50" fill="#F5F5FE"/>
<path d="M75.4192 39.6104C75.4192 38.7125 74.6745 37.9563 73.7215 37.9563H26.2785C25.3255 37.9563 24.5793 38.7125 24.5793 39.6104V69.7501C24.5794 70.6479 25.3256 71.4028 26.2785 71.4028H73.7215C74.6744 71.4028 75.419 70.6479 75.4192 69.7501V39.6104ZM77.2656 69.7501C77.2655 71.6976 75.6637 73.2492 73.7215 73.2492H26.2785C24.3363 73.2492 22.7345 71.6976 22.7344 69.7501V39.6104C22.7344 37.6629 24.3363 36.1113 26.2785 36.1113H73.7215C75.6637 36.1113 77.2656 37.6629 77.2656 39.6104V69.7501Z" fill="#000091"/>
<path d="M22.7344 48.7114V39.6099H24.5793V48.7114C24.5793 52.9094 28.0839 56.3752 32.3948 56.3752H67.6052C71.9161 56.3752 75.4192 52.9094 75.4192 48.7114V39.6099H77.2656V48.7114C77.2656 53.9591 72.9053 58.2216 67.6052 58.2216H32.3948C27.0947 58.2216 22.7344 53.9591 22.7344 48.7114Z" fill="#000091"/>
<path d="M28.3262 70.0079V56.7837H30.1711V70.0079C30.1713 70.7708 30.7917 71.4034 31.6074 71.4036H68.3923C69.2079 71.4034 69.8284 70.7708 69.8286 70.0079V56.955H71.6735V70.0079C71.6734 71.8204 70.1972 73.2483 68.3923 73.2485H31.6074C29.8024 73.2484 28.3263 71.8205 28.3262 70.0079Z" fill="#000091"/>
<path d="M39.4711 51.8252C39.9809 51.8252 40.3936 52.2379 40.3936 52.7477V61.9364C40.3932 62.4458 39.9807 62.8588 39.4711 62.8588H34.9278C34.4183 62.8588 34.0058 62.4458 34.0054 61.9364V52.7477C34.0054 52.2379 34.418 51.8252 34.9278 51.8252H39.4711ZM35.8503 61.0124H38.5486V53.6701H35.8503V61.0124Z" fill="#6A6AF4"/>
<path d="M64.8969 51.8252C65.4067 51.8252 65.8194 52.2379 65.8194 52.7477V61.9364C65.819 62.4458 65.4065 62.8588 64.8969 62.8588H60.3536C59.8441 62.8588 59.4315 62.4458 59.4312 61.9364V52.7477C59.4312 52.2379 59.8438 51.8252 60.3536 51.8252H64.8969ZM61.2761 61.0124H63.9744V53.6701H61.2761V61.0124Z" fill="#6A6AF4"/>
<path d="M61.7023 30.2506C61.7023 29.3156 60.9938 28.5964 60.0031 28.5964H39.9084C38.9177 28.5964 38.2092 29.3156 38.2092 30.2506V35.9387H61.7023V30.2506ZM63.5488 37.7851H36.3643V30.2506C36.3643 28.2659 37.9285 26.7515 39.9084 26.7515H60.0031C61.983 26.7515 63.5488 28.2659 63.5488 30.2506V37.7851Z" fill="#000091"/>
<path d="M41.2673 35.9392H58.8184V31.5161H41.2673V35.9392ZM60.6649 37.7856H39.4224V31.0233C39.4224 30.6799 39.5423 30.3233 39.8175 30.0528C40.0677 29.8069 40.3857 29.6968 40.6949 29.6787V29.6711H59.3052C59.6409 29.6712 59.9946 29.7841 60.2682 30.0528C60.5435 30.3233 60.6649 30.6799 60.6649 31.0233V37.7856Z" fill="#000091"/>
<path fill-rule="evenodd" clip-rule="evenodd" d="M19.937 80.6044C19.321 80.6044 18.8198 80.1033 18.8198 79.4873C18.8198 78.8712 19.321 78.3701 19.937 78.3701C20.553 78.3701 21.0541 78.8712 21.0541 79.4873C21.0541 80.1033 20.553 80.6044 19.937 80.6044Z" fill="#CACAFB"/>
<path fill-rule="evenodd" clip-rule="evenodd" d="M17.7031 25.5971C17.0871 25.5971 16.5859 25.0959 16.5859 24.4799C16.5859 23.8639 17.0871 23.3628 17.7031 23.3628C18.3191 23.3628 18.8202 23.8639 18.8202 24.4799C18.8202 25.0959 18.3191 25.5971 17.7031 25.5971Z" fill="#CACAFB"/>
<path fill-rule="evenodd" clip-rule="evenodd" d="M82.2421 28.7912C81.6262 28.7912 81.125 28.29 81.125 27.674C81.125 27.058 81.6262 26.5569 82.2421 26.5569C82.8581 26.5569 83.3593 27.058 83.3593 27.674C83.3593 28.29 82.8581 28.7912 82.2421 28.7912Z" fill="#CACAFB"/>
</svg>
