<svg width="56" height="56" viewBox="0 0 56 56" fill="none" xmlns="http://www.w3.org/2000/svg">
<path fill-rule="evenodd" clip-rule="evenodd" d="M52.4998 43.4C52.1138 43.4 51.7998 43.086 51.7998 42.7C51.7998 42.314 52.1138 42 52.4998 42C52.8858 42 53.1998 42.314 53.1998 42.7C53.1998 43.086 52.8858 43.4 52.4998 43.4Z" fill="#ECECFE"/>
<path fill-rule="evenodd" clip-rule="evenodd" d="M38.4998 2.80039C38.1138 2.80039 37.7998 2.48637 37.7998 2.10039C37.7998 1.71438 38.1138 1.40039 38.4998 1.40039C38.8858 1.40039 39.1998 1.71438 39.1998 2.10039C39.1998 2.48637 38.8858 2.80039 38.4998 2.80039Z" fill="#ECECFE"/>
<path fill-rule="evenodd" clip-rule="evenodd" d="M2.0999 37.8004C1.71392 37.8004 1.3999 37.4864 1.3999 37.1004C1.3999 36.7144 1.71392 36.4004 2.0999 36.4004C2.48588 36.4004 2.7999 36.7144 2.7999 37.1004C2.7999 37.4864 2.48588 37.8004 2.0999 37.8004Z" fill="#ECECFE"/>
<path d="M36.4001 34.3004C36.4001 33.9138 36.0867 33.6004 35.7001 33.6004H17.5001L17.4185 33.6051C17.0703 33.6455 16.8001 33.9414 16.8001 34.3004C16.8001 34.687 17.1135 35.0004 17.5001 35.0004H35.7001L35.7817 34.9957C36.1299 34.9552 36.4001 34.6594 36.4001 34.3004Z" fill="#000091"/>
<path d="M31.5001 42.0004C31.8867 42.0004 32.2001 42.3138 32.2001 42.7004C32.2001 43.0594 31.9299 43.3552 31.5817 43.3957L31.5001 43.4004H17.5001C17.1135 43.4004 16.8001 43.087 16.8001 42.7004C16.8001 42.3414 17.0703 42.0455 17.4185 42.0051L17.5001 42.0004H31.5001Z" fill="#000091"/>
<path d="M28.0001 38.5004C28.0001 38.1138 27.6867 37.8004 27.3001 37.8004H17.5001L17.4185 37.8051C17.0703 37.8455 16.8001 38.1414 16.8001 38.5004C16.8001 38.887 17.1135 39.2004 17.5001 39.2004H27.3001L27.3817 39.1957C27.7299 39.1552 28.0001 38.8594 28.0001 38.5004Z" fill="#000091"/>
<path fill-rule="evenodd" clip-rule="evenodd" d="M13.3001 8.40039H39.9001C40.2867 8.40039 40.6001 8.71379 40.6001 9.10039V46.9004C40.6001 47.287 40.2867 47.6004 39.9001 47.6004H13.3001C12.9135 47.6004 12.6001 47.287 12.6001 46.9004V9.10039C12.6001 8.71379 12.9135 8.40039 13.3001 8.40039ZM39.2001 46.2004V9.80039H14.0001V46.2004H39.2001Z" fill="#000091"/>
<path d="M42.7001 14.0004C43.0591 14.0004 43.355 14.2706 43.3954 14.6188L43.4001 14.7004V49.7004C43.4001 50.0594 43.1299 50.3552 42.7817 50.3957L42.7001 50.4004H18.9001C18.5135 50.4004 18.2001 50.087 18.2001 49.7004C18.2001 49.3414 18.4703 49.0455 18.8185 49.0051L18.9001 49.0004H42.0001V14.7004C42.0001 14.3414 42.2703 14.0455 42.6185 14.0051L42.7001 14.0004Z" fill="#000091"/>
<path fill-rule="evenodd" clip-rule="evenodd" d="M27.41 22.884C29.2529 23.6418 30.5553 25.2534 30.6245 27.1601L30.6274 27.3201H29.2274C29.2274 25.4131 27.3689 23.8201 25.0274 23.8201C22.7417 23.8201 20.9162 25.3382 20.8306 27.1845L20.8274 27.3201H19.4274C19.4274 25.3439 20.7506 23.6629 22.6449 22.884C21.9575 22.245 21.5274 21.3328 21.5274 20.3201C21.5274 18.3871 23.0944 16.8201 25.0274 16.8201C26.9604 16.8201 28.5274 18.3871 28.5274 20.3201C28.5274 21.3328 28.0974 22.245 27.41 22.884ZM25.0274 22.4201C26.1872 22.4201 27.1274 21.4799 27.1274 20.3201C27.1274 19.1603 26.1872 18.2201 25.0274 18.2201C23.8676 18.2201 22.9274 19.1603 22.9274 20.3201C22.9274 21.4799 23.8676 22.4201 25.0274 22.4201Z" fill="#6A6AF4"/>
<path fill-rule="evenodd" clip-rule="evenodd" d="M18.7274 12.6201H31.3274C32.4872 12.6201 33.4274 13.5603 33.4274 14.7201V28.7201C33.4274 29.8799 32.4872 30.8201 31.3274 30.8201H18.7274C17.5676 30.8201 16.6274 29.8799 16.6274 28.7201V14.7201C16.6274 13.5603 17.5676 12.6201 18.7274 12.6201ZM31.3274 14.0201H18.7274C18.3408 14.0201 18.0274 14.3335 18.0274 14.7201V28.7201C18.0274 29.1067 18.3408 29.4201 18.7274 29.4201H31.3274C31.714 29.4201 32.0274 29.1067 32.0274 28.7201V14.7201C32.0274 14.3335 31.714 14.0201 31.3274 14.0201Z" fill="#6A6AF4"/>
</svg>
