<svg width="56" height="56" viewBox="0 0 56 56" fill="none" xmlns="http://www.w3.org/2000/svg">
<path fill-rule="evenodd" clip-rule="evenodd" d="M42.7 51.1002C42.314 51.1002 42 50.7862 42 50.4002C42 50.0142 42.314 49.7002 42.7 49.7002C43.086 49.7002 43.4 50.0142 43.4 50.4002C43.4 50.7862 43.086 51.1002 42.7 51.1002Z" fill="#ECECFE"/>
<path fill-rule="evenodd" clip-rule="evenodd" d="M48.3001 6.99961C47.9141 6.99961 47.6001 6.68559 47.6001 6.29961C47.6001 5.9136 47.9141 5.59961 48.3001 5.59961C48.6861 5.59961 49.0001 5.9136 49.0001 6.29961C49.0001 6.68559 48.6861 6.99961 48.3001 6.99961Z" fill="#ECECFE"/>
<path fill-rule="evenodd" clip-rule="evenodd" d="M9.8001 8.4C9.41412 8.4 9.1001 8.08598 9.1001 7.7C9.1001 7.31399 9.41412 7 9.8001 7C10.1861 7 10.5001 7.31399 10.5001 7.7C10.5001 8.08598 10.1861 8.4 9.8001 8.4Z" fill="#ECECFE"/>
<path fill-rule="evenodd" clip-rule="evenodd" d="M27.9998 13.3C26.4534 13.3 25.1998 14.5536 25.1998 16.1C25.1998 17.6464 26.4534 18.9 27.9998 18.9C29.5462 18.9 30.7998 17.6464 30.7998 16.1C30.7998 14.5536 29.5462 13.3 27.9998 13.3ZM23.7998 16.1C23.7998 13.7804 25.6802 11.9 27.9998 11.9C30.3194 11.9 32.1998 13.7804 32.1998 16.1C32.1998 18.4196 30.3194 20.3 27.9998 20.3C25.6802 20.3 23.7998 18.4196 23.7998 16.1Z" fill="#6A6AF4"/>
<path fill-rule="evenodd" clip-rule="evenodd" d="M10.3066 10.7172C10.5733 10.9971 10.5626 11.4402 10.2826 11.7068C6.53434 15.2777 4.1998 20.3157 4.1998 25.9001C4.1998 26.2867 3.8864 26.6001 3.4998 26.6001C3.11321 26.6001 2.7998 26.2867 2.7998 25.9001C2.7998 19.9169 5.30285 14.5173 9.31697 10.6932C9.59688 10.4265 10.04 10.4373 10.3066 10.7172Z" fill="#6A6AF4"/>
<path d="M48.9998 30.1C48.9998 30.4866 48.6864 30.8 48.2998 30.8C47.9132 30.8 47.5998 30.4866 47.5998 30.1C47.5998 29.7134 47.9132 29.4 48.2998 29.4C48.6864 29.4 48.9998 29.7134 48.9998 30.1Z" fill="#6A6AF4"/>
<path fill-rule="evenodd" clip-rule="evenodd" d="M39.9295 20.3223C41.0167 20.1507 42 20.9909 42 22.0915C42 22.8913 41.4699 23.5941 40.7009 23.8138L32.7077 26.0976C32.4072 26.1834 32.2 26.4581 32.2 26.7706V31.2138L35.1513 41.2481C35.543 42.5801 34.5445 43.9146 33.1561 43.9146C32.2892 43.9146 31.5132 43.3769 31.2089 42.5651L28 34.0082L24.7911 42.5651C24.4868 43.3769 23.7108 43.9146 22.8439 43.9146C21.4555 43.9146 20.457 42.5801 20.8487 41.2481L23.8 31.2138V26.7706C23.8 26.4581 23.5928 26.1834 23.2923 26.0976L15.2991 23.8138C14.5301 23.5941 14 22.8913 14 22.0915C14 20.9909 14.9833 20.1507 16.0705 20.3223L27.8908 22.1887C27.9632 22.2001 28.0368 22.2001 28.1092 22.1887L39.9295 20.3223ZM40.6 22.0915C40.6 21.8512 40.3853 21.6677 40.1479 21.7052L28.3275 23.5716C28.1105 23.6058 27.8895 23.6058 27.6725 23.5716L15.8521 21.7052C15.6147 21.6677 15.4 21.8512 15.4 22.0915C15.4 22.2662 15.5158 22.4197 15.6837 22.4676L23.6769 24.7514C24.5784 25.009 25.2 25.833 25.2 26.7706V31.3146C25.2 31.3815 25.1904 31.448 25.1716 31.5121L22.1918 41.6432C22.0638 42.0785 22.3901 42.5146 22.8439 42.5146C23.1272 42.5146 23.3808 42.3389 23.4803 42.0736L27.3446 31.7688C27.447 31.4956 27.7082 31.3146 28 31.3146C28.2918 31.3146 28.553 31.4956 28.6554 31.7688L32.5197 42.0736C32.6192 42.3389 32.8728 42.5146 33.1561 42.5146C33.6099 42.5146 33.9362 42.0785 33.8082 41.6432L30.8284 31.5121C30.8096 31.448 30.8 31.3815 30.8 31.3146V26.7706C30.8 25.833 31.4216 25.009 32.3231 24.7514L40.3163 22.4676C40.4842 22.4197 40.6 22.2662 40.6 22.0915Z" fill="#000091"/>
<path fill-rule="evenodd" clip-rule="evenodd" d="M28 8.4C17.1752 8.4 8.4 17.1752 8.4 28C8.4 38.8248 17.1752 47.6 28 47.6C32.1442 47.6 35.986 46.3146 39.1513 44.1208C39.469 43.9006 39.9051 43.9797 40.1253 44.2974C40.3455 44.6152 40.2665 45.0513 39.9487 45.2715C36.5568 47.6224 32.4382 49 28 49C16.402 49 7 39.598 7 28C7 16.402 16.402 7 28 7C39.598 7 49 16.402 49 28C49 28.3866 48.6866 28.7 48.3 28.7C47.9134 28.7 47.6 28.3866 47.6 28C47.6 17.1752 38.8248 8.4 28 8.4ZM47.0544 35.0524C47.4121 35.1991 47.5831 35.608 47.4364 35.9657C47.1824 36.5846 46.8998 37.1887 46.5902 37.7763C45.8347 39.21 44.9184 40.5455 43.8653 41.7588C43.6119 42.0508 43.1698 42.0821 42.8778 41.8286C42.5858 41.5752 42.5546 41.1331 42.808 40.8412C43.7913 39.7083 44.6466 38.4616 45.3516 37.1237C45.6406 36.5754 45.9042 36.0117 46.1411 35.4343C46.2879 35.0766 46.6968 34.9056 47.0544 35.0524Z" fill="#000091"/>
</svg>
