<svg width="56" height="56" viewBox="0 0 56 56" fill="none" xmlns="http://www.w3.org/2000/svg">
<path fill-rule="evenodd" clip-rule="evenodd" d="M51.0999 12.6002C50.7139 12.6002 50.3999 12.2862 50.3999 11.9002C50.3999 11.5142 50.7139 11.2002 51.0999 11.2002C51.4859 11.2002 51.7999 11.5142 51.7999 11.9002C51.7999 12.2862 51.4859 12.6002 51.0999 12.6002Z" fill="#ECECFE"/>
<path fill-rule="evenodd" clip-rule="evenodd" d="M4.9002 12.6002C4.51422 12.6002 4.2002 12.2862 4.2002 11.9002C4.2002 11.5142 4.51422 11.2002 4.9002 11.2002C5.28618 11.2002 5.6002 11.5142 5.6002 11.9002C5.6002 12.2862 5.28618 12.6002 4.9002 12.6002Z" fill="#ECECFE"/>
<path fill-rule="evenodd" clip-rule="evenodd" d="M7.7 47.6002C7.31402 47.6002 7 47.2862 7 46.9002C7 46.5142 7.31402 46.2002 7.7 46.2002C8.08598 46.2002 8.4 46.5142 8.4 46.9002C8.4 47.2862 8.08598 47.6002 7.7 47.6002Z" fill="#ECECFE"/>
<path fill-rule="evenodd" clip-rule="evenodd" d="M13.3001 4.1998C12.9141 4.1998 12.6001 3.88578 12.6001 3.4998C12.6001 3.11379 12.9141 2.7998 13.3001 2.7998C13.6861 2.7998 14.0001 3.11379 14.0001 3.4998C14.0001 3.88578 13.6861 4.1998 13.3001 4.1998Z" fill="#ECECFE"/>
<path fill-rule="evenodd" clip-rule="evenodd" d="M38.4998 54.6002C38.1138 54.6002 37.7998 54.2862 37.7998 53.9002C37.7998 53.5142 38.1138 53.2002 38.4998 53.2002C38.8858 53.2002 39.1998 53.5142 39.1998 53.9002C39.1998 54.2862 38.8858 54.6002 38.4998 54.6002Z" fill="#ECECFE"/>
<path d="M48.2954 12.5188C48.255 12.1706 47.9591 11.9004 47.6001 11.9004H9.8001L9.71846 11.9051C9.37033 11.9455 9.1001 12.2414 9.1001 12.6004V44.8004L9.10481 44.882C9.14524 45.2302 9.44111 45.5004 9.8001 45.5004H25.2001L25.2817 45.4957C25.6299 45.4552 25.9001 45.1594 25.9001 44.8004L25.8954 44.7188C25.855 44.3706 25.5591 44.1004 25.2001 44.1004H10.5001V18.9004H36.4001L36.4817 18.8957C36.8299 18.8552 37.1001 18.5594 37.1001 18.2004C37.1001 17.8138 36.7867 17.5004 36.4001 17.5004H10.5001V13.3004H46.9001V17.5004H40.6001L40.5185 17.5051C40.1703 17.5455 39.9001 17.8414 39.9001 18.2004C39.9001 18.587 40.2135 18.9004 40.6001 18.9004H46.9001V32.2004L46.9048 32.282C46.9452 32.6302 47.2411 32.9004 47.6001 32.9004C47.9867 32.9004 48.3001 32.587 48.3001 32.2004V12.6004L48.2954 12.5188Z" fill="#000091"/>
<path d="M12.6001 16.1004C12.2141 16.1004 11.9001 15.7864 11.9001 15.4004C11.9001 15.0144 12.2141 14.7004 12.6001 14.7004C12.9861 14.7004 13.3001 15.0144 13.3001 15.4004C13.3001 15.7864 12.9861 16.1004 12.6001 16.1004Z" fill="#000091"/>
<path d="M14.7001 15.4004C14.7001 15.7864 15.0141 16.1004 15.4001 16.1004C15.7861 16.1004 16.1001 15.7864 16.1001 15.4004C16.1001 15.0144 15.7861 14.7004 15.4001 14.7004C15.0141 14.7004 14.7001 15.0144 14.7001 15.4004Z" fill="#000091"/>
<path d="M18.2001 16.1004C17.8141 16.1004 17.5001 15.7864 17.5001 15.4004C17.5001 15.0144 17.8141 14.7004 18.2001 14.7004C18.5861 14.7004 18.9001 15.0144 18.9001 15.4004C18.9001 15.7864 18.5861 16.1004 18.2001 16.1004Z" fill="#000091"/>
<path d="M44.8001 14.7004C45.1867 14.7004 45.5001 15.0138 45.5001 15.4004C45.5001 15.7594 45.2299 16.0552 44.8817 16.0957L44.8001 16.1004H23.8001C23.4135 16.1004 23.1001 15.787 23.1001 15.4004C23.1001 15.0414 23.3703 14.7455 23.7185 14.7051L23.8001 14.7004H44.8001Z" fill="#000091"/>
<path d="M42.7001 23.8004C42.7001 23.4138 42.3867 23.1004 42.0001 23.1004H15.4001L15.3185 23.1051C14.9703 23.1455 14.7001 23.4414 14.7001 23.8004C14.7001 24.187 15.0135 24.5004 15.4001 24.5004H42.0001L42.0817 24.4957C42.4299 24.4552 42.7001 24.1594 42.7001 23.8004Z" fill="#000091"/>
<path d="M39.2001 27.3004C39.5867 27.3004 39.9001 27.6138 39.9001 28.0004C39.9001 28.3594 39.6299 28.6552 39.2817 28.6957L39.2001 28.7004H15.4001C15.0135 28.7004 14.7001 28.387 14.7001 28.0004C14.7001 27.6414 14.9703 27.3455 15.3185 27.3051L15.4001 27.3004H39.2001Z" fill="#000091"/>
<path d="M29.4001 32.2004C29.4001 31.8138 29.0867 31.5004 28.7001 31.5004H15.4001L15.3185 31.5051C14.9703 31.5455 14.7001 31.8414 14.7001 32.2004C14.7001 32.587 15.0135 32.9004 15.4001 32.9004H28.7001L28.7817 32.8957C29.1299 32.8552 29.4001 32.5594 29.4001 32.2004Z" fill="#000091"/>
<path d="M24.5001 36.3063C24.5001 35.9197 24.1867 35.6063 23.8001 35.6063H15.4001L15.3185 35.6111C14.9703 35.6515 14.7001 35.9474 14.7001 36.3063C14.7001 36.6929 15.0135 37.0063 15.4001 37.0063H23.8001L23.8817 37.0016C24.2299 36.9612 24.5001 36.6653 24.5001 36.3063Z" fill="#000091"/>
<path d="M38.2861 42.3809C38.2861 40.5538 37.7345 38.9272 36.8772 37.7734C36.0199 36.6197 34.891 35.9742 33.7054 35.9742C32.5197 35.9742 31.3901 36.6197 30.5328 37.7734C29.6756 38.9271 29.1246 40.554 29.1246 42.3809C29.1246 44.2078 29.6756 45.8346 30.5328 46.9883C31.3901 48.142 32.5197 48.7868 33.7054 48.7868C34.891 48.7868 36.0199 48.1419 36.8772 46.9883C37.7345 45.8346 38.2861 44.2079 38.2861 42.3809ZM39.6861 42.3809C39.6861 44.4784 39.0549 46.4047 38.0011 47.8229C36.9472 49.2412 35.4361 50.1868 33.7054 50.1868C31.9746 50.1868 30.4636 49.2412 29.4097 47.8229C28.3558 46.4047 27.7246 44.4785 27.7246 42.3809C27.7246 40.2832 28.3557 38.3564 29.4097 36.9381C30.4636 35.5199 31.9747 34.5742 33.7054 34.5742C35.4361 34.5742 36.9472 35.5199 38.0011 36.9381C39.055 38.3564 39.6861 40.2832 39.6861 42.3809Z" fill="#6A6AF4"/>
<path d="M51.1001 42.3809C51.1001 40.5538 50.5485 38.9272 49.6912 37.7734C48.8339 36.6197 47.705 35.9742 46.5193 35.9742C45.3336 35.9742 44.2041 36.6197 43.3468 37.7734C42.4896 38.9271 41.9386 40.554 41.9386 42.3809C41.9386 44.2078 42.4895 45.8346 43.3468 46.9883C44.2041 48.142 45.3336 48.7868 46.5193 48.7868C47.7049 48.7868 48.8339 48.1419 49.6912 46.9883C50.5485 45.8346 51.1001 44.2079 51.1001 42.3809ZM52.5001 42.3809C52.5001 44.4784 51.8689 46.4047 50.815 47.8229C49.7612 49.2412 48.2501 50.1868 46.5193 50.1868C44.7886 50.1868 43.2775 49.2412 42.2236 47.8229C41.1698 46.4047 40.5386 44.4785 40.5386 42.3809C40.5386 40.2832 41.1697 38.3564 42.2236 36.9381C43.2775 35.5199 44.7886 34.5742 46.5193 34.5742C48.25 34.5742 49.7612 35.5199 50.815 36.9381C51.869 38.3564 52.5001 40.2832 52.5001 42.3809Z" fill="#6A6AF4"/>
<path d="M32.8467 42.3807C32.8467 43.1508 32.3828 43.7751 31.8106 43.7751C31.2383 43.7751 30.7744 43.1508 30.7744 42.3807C30.7744 41.6106 31.2383 40.9863 31.8106 40.9863C32.3828 40.9863 32.8467 41.6106 32.8467 42.3807Z" fill="#6A6AF4"/>
<path d="M32.1469 42.3807C32.1469 42.1309 32.0706 41.932 31.9814 41.8119C31.8926 41.6923 31.8245 41.6862 31.8105 41.6861C31.797 41.6861 31.7288 41.692 31.6396 41.8119C31.5504 41.932 31.4742 42.1309 31.4742 42.3807C31.4742 42.6303 31.5505 42.8287 31.6396 42.9487C31.7289 43.0688 31.797 43.0752 31.8105 43.0752C31.8245 43.0751 31.8926 43.0683 31.9814 42.9487C32.0705 42.8287 32.1468 42.6301 32.1469 42.3807ZM33.5469 42.3807C33.5468 42.901 33.3904 43.3995 33.1046 43.7841C32.8188 44.1686 32.369 44.4751 31.8105 44.4752C31.2519 44.4752 30.8016 44.1687 30.5158 43.7841C30.23 43.3995 30.0742 42.901 30.0742 42.3807C30.0742 41.8604 30.2301 41.3619 30.5158 40.9772C30.8016 40.5926 31.2519 40.2861 31.8105 40.2861C32.3691 40.2862 32.8188 40.5927 33.1046 40.9772C33.3904 41.3619 33.5469 41.8603 33.5469 42.3807Z" fill="#6A6AF4"/>
<path d="M45.6602 42.3807C45.6602 43.1508 45.1963 43.7751 44.624 43.7751C44.0518 43.7751 43.5879 43.1508 43.5879 42.3807C43.5879 41.6106 44.0518 40.9863 44.624 40.9863C45.1963 40.9863 45.6602 41.6106 45.6602 42.3807Z" fill="#6A6AF4"/>
<path d="M44.9608 42.3807C44.9608 42.1309 44.8846 41.932 44.7954 41.8119C44.7066 41.6923 44.6385 41.6862 44.6245 41.6861C44.6109 41.6861 44.5428 41.692 44.4536 41.8119C44.3644 41.932 44.2882 42.1309 44.2882 42.3807C44.2882 42.6303 44.3645 42.8287 44.4536 42.9487C44.5428 43.0688 44.6109 43.0752 44.6245 43.0752C44.6385 43.0751 44.7066 43.0683 44.7954 42.9487C44.8845 42.8287 44.9608 42.6301 44.9608 42.3807ZM46.3608 42.3807C46.3608 42.901 46.2043 43.3995 45.9186 43.7841C45.6328 44.1686 45.183 44.4751 44.6245 44.4752C44.0659 44.4752 43.6156 44.1687 43.3298 43.7841C43.044 43.3995 42.8882 42.901 42.8882 42.3807C42.8882 41.8604 43.044 41.3619 43.3298 40.9772C43.6156 40.5926 44.0658 40.2861 44.6245 40.2861C45.1831 40.2862 45.6328 40.5927 45.9186 40.9772C46.2044 41.3619 46.3608 41.8603 46.3608 42.3807Z" fill="#6A6AF4"/>
</svg>
