<svg width="56" height="56" viewBox="0 0 56 56" fill="none" xmlns="http://www.w3.org/2000/svg">
<path fill-rule="evenodd" clip-rule="evenodd" d="M10.4998 9.80039C10.1138 9.80039 9.7998 9.48637 9.7998 9.10039C9.7998 8.71438 10.1138 8.40039 10.4998 8.40039C10.8858 8.40039 11.1998 8.71438 11.1998 9.10039C11.1998 9.48637 10.8858 9.80039 10.4998 9.80039Z" fill="#ECECFE"/>
<path fill-rule="evenodd" clip-rule="evenodd" d="M3.4998 48.9996C3.11382 48.9996 2.7998 48.6856 2.7998 48.2996C2.7998 47.9136 3.11382 47.5996 3.4998 47.5996C3.88578 47.5996 4.1998 47.9136 4.1998 48.2996C4.1998 48.6856 3.88578 48.9996 3.4998 48.9996Z" fill="#ECECFE"/>
<path fill-rule="evenodd" clip-rule="evenodd" d="M52.4998 44.8004C52.1138 44.8004 51.7998 44.4864 51.7998 44.1004C51.7998 43.7144 52.1138 43.4004 52.4998 43.4004C52.8858 43.4004 53.1998 43.7144 53.1998 44.1004C53.1998 44.4864 52.8858 44.8004 52.4998 44.8004Z" fill="#ECECFE"/>
<path fill-rule="evenodd" clip-rule="evenodd" d="M41.3001 8.4C40.9141 8.4 40.6001 8.08598 40.6001 7.7C40.6001 7.31399 40.9141 7 41.3001 7C41.6861 7 42.0001 7.31399 42.0001 7.7C42.0001 8.08598 41.6861 8.4 41.3001 8.4Z" fill="#ECECFE"/>
<path d="M29.5035 7C41.1015 7 50.5035 16.402 50.5035 28C50.5035 28.3866 50.1901 28.7 49.8035 28.7C49.4169 28.7 49.1035 28.3866 49.1035 28C49.1035 17.1752 40.3283 8.4 29.5035 8.4C18.6787 8.4 9.9035 17.1752 9.9035 28C9.9035 38.8248 18.6787 47.6 29.5035 47.6C37.3118 47.6 44.2785 42.9922 47.4084 35.9858C47.5661 35.6328 47.98 35.4745 48.333 35.6322C48.686 35.7899 48.8443 36.2039 48.6866 36.5568C45.3335 44.0631 37.8691 49 29.5035 49C17.9055 49 8.5035 39.598 8.5035 28C8.5035 16.402 17.9055 7 29.5035 7Z" fill="#6A6AF4"/>
<path d="M49.8035 34.0148C49.8035 34.4301 49.4669 34.7667 49.0517 34.7667C48.6364 34.7667 48.2998 34.4301 48.2998 34.0148C48.2998 33.5996 48.6364 33.263 49.0517 33.263C49.4669 33.263 49.8035 33.5996 49.8035 34.0148Z" fill="#6A6AF4"/>
<path d="M10.145 14.7225C9.83741 14.4883 9.39821 14.5478 9.16403 14.8554C6.79829 17.963 5.49609 21.7558 5.49609 25.7444C5.49609 26.131 5.80949 26.4444 6.19609 26.4444C6.58269 26.4444 6.89609 26.131 6.89609 25.7444C6.89609 22.0649 8.09622 18.5693 10.278 15.7034C10.5121 15.3958 10.4526 14.9566 10.145 14.7225Z" fill="#6A6AF4"/>
<path fill-rule="evenodd" clip-rule="evenodd" d="M39.1976 24.4423C38.7007 18.4799 35.3645 15.4004 29.4 15.4004C23.4355 15.4004 20.0993 18.4799 19.6024 24.4423C19.5648 24.8934 19.959 25.2611 20.4064 25.1923L21.7 24.9932V25.2991C21.1989 25.3956 20.8296 25.5293 20.5707 25.7223C19.9142 26.2118 19.5999 26.9947 19.5999 28.0004C19.5999 29.787 20.6133 30.8004 22.3999 30.8004C22.4761 30.8004 22.5495 30.7882 22.6182 30.7657C23.3629 32.2097 24.5173 33.3896 25.92 34.1337C25.9069 34.1871 25.9 34.243 25.9 34.3004C25.9 35.2095 25.4668 36.0173 24.7955 36.5289C24.7847 36.5365 24.7741 36.5445 24.7638 36.5527C24.2986 36.8969 23.7231 37.1004 23.1 37.1004H21.7L21.5425 37.1033C19.2959 37.1861 17.5 39.0335 17.5 41.3004C17.5 41.687 17.8134 42.0004 18.2 42.0004C18.5866 42.0004 18.9 41.687 18.9 41.3004C18.9 39.754 20.1536 38.5004 21.7 38.5004H23.1L23.2575 38.4975C23.8429 38.4759 24.3978 38.3345 24.8983 38.097C25.6488 39.2782 27.0329 39.6387 28.8698 39.1795C29.2448 39.0857 29.4729 38.7057 29.3791 38.3306C29.2853 37.9556 28.9053 37.7275 28.5302 37.8213C27.2214 38.1485 26.457 37.9714 26.0492 37.2908C26.7342 36.6152 27.1882 35.7059 27.282 34.6923C27.9546 34.8929 28.6651 35.0004 29.4 35.0004C30.1349 35.0004 30.8454 34.8929 31.518 34.6923C31.7109 36.7767 33.4269 38.4195 35.5425 38.4975L35.7 38.5004H37.1C38.6464 38.5004 39.9 39.754 39.9 41.3004C39.9 41.687 40.2134 42.0004 40.6 42.0004C40.9866 42.0004 41.3 41.687 41.3 41.3004C41.3 39.0335 39.5041 37.1861 37.2575 37.1033L37.1 37.1004H35.7C34.1536 37.1004 32.9 35.8468 32.9 34.3004C32.9 34.243 32.8931 34.1871 32.88 34.1337C34.2827 33.3896 35.4371 32.2097 36.1818 30.7657C36.2505 30.7882 36.3238 30.8004 36.4 30.8004C38.1866 30.8004 39.2 29.787 39.2 28.0004C39.2 26.9947 38.8858 26.2118 38.2292 25.7223C37.8753 25.4585 37.315 25.3056 36.4941 25.2067C36.4642 25.2026 36.4336 25.2005 36.4026 25.2004L36.4015 25.2003C36.3339 25.2001 36.2681 25.2096 36.2056 25.2278C36.1047 25.2568 36.0132 25.308 35.9367 25.3757C35.8012 25.4953 35.7125 25.6666 35.7012 25.8588C35.7002 25.8763 35.6998 25.8938 35.7 25.9112V26.9504L35.6974 27.1434C35.6006 30.7338 32.8106 33.6004 29.4 33.6004C25.9285 33.6004 23.1 30.6305 23.1 26.9504V24.7779L29.5064 23.7923L29.589 23.7744C29.7778 23.7215 29.9373 23.5911 30.0261 23.4134L30.7261 22.0134L30.7584 21.9383C30.8779 21.6089 30.7341 21.2348 30.413 21.0743L30.3379 21.042C30.0085 20.9225 29.6344 21.0663 29.4739 21.3873L28.9352 22.4634L21.098 23.6688L21.1108 23.5787C21.7968 19.0061 24.5023 16.8004 29.4 16.8004L29.6514 16.8024C34.3072 16.8758 36.9223 19.0081 37.652 23.3443L37.688 23.5757L33.0698 22.4213L32.9894 22.4061C32.6419 22.3609 32.308 22.5823 32.2209 22.9306C32.1271 23.3057 32.3552 23.6857 32.7302 23.7795L38.3302 25.1795L38.412 25.195C38.8459 25.2513 39.2351 24.8922 39.1976 24.4423ZM21.7 26.7335C21.5515 26.7725 21.4524 26.8112 21.4075 26.8447C21.1451 27.0403 20.9999 27.4021 20.9999 28.0004C20.9999 28.8907 21.2983 29.2972 22.0579 29.3828C21.8444 28.6779 21.7212 27.9312 21.7025 27.1578L21.7 26.9504V26.7335ZM37.8 28.0004C37.8 28.8907 37.5016 29.2972 36.7421 29.3828C36.9746 28.6151 37.1 27.7978 37.1 26.9504V26.7335C37.2484 26.7725 37.3475 26.8112 37.3924 26.8447C37.6548 27.0403 37.8 27.4021 37.8 28.0004Z" fill="#000091"/>
</svg>
