<svg width="56" height="56" viewBox="0 0 56 56" fill="none" xmlns="http://www.w3.org/2000/svg">
<path fill-rule="evenodd" clip-rule="evenodd" d="M51.0999 23.1002C50.7139 23.1002 50.3999 22.7862 50.3999 22.4002C50.3999 22.0142 50.7139 21.7002 51.0999 21.7002C51.4859 21.7002 51.7999 22.0142 51.7999 22.4002C51.7999 22.7862 51.4859 23.1002 51.0999 23.1002Z" fill="#ECECFE"/>
<path fill-rule="evenodd" clip-rule="evenodd" d="M8.4002 30.1002C8.01422 30.1002 7.7002 29.7862 7.7002 29.4002C7.7002 29.0142 8.01422 28.7002 8.4002 28.7002C8.78618 28.7002 9.1002 29.0142 9.1002 29.4002C9.1002 29.7862 8.78618 30.1002 8.4002 30.1002Z" fill="#ECECFE"/>
<path fill-rule="evenodd" clip-rule="evenodd" d="M5.5999 4.1998C5.21392 4.1998 4.8999 3.88578 4.8999 3.4998C4.8999 3.11379 5.21392 2.7998 5.5999 2.7998C5.98588 2.7998 6.2999 3.11379 6.2999 3.4998C6.2999 3.88578 5.98588 4.1998 5.5999 4.1998Z" fill="#ECECFE"/>
<path fill-rule="evenodd" clip-rule="evenodd" d="M16.0999 51.8004C15.7139 51.8004 15.3999 51.4864 15.3999 51.1004C15.3999 50.7144 15.7139 50.4004 16.0999 50.4004C16.4859 50.4004 16.7999 50.7144 16.7999 51.1004C16.7999 51.4864 16.4859 51.8004 16.0999 51.8004Z" fill="#ECECFE"/>
<path fill-rule="evenodd" clip-rule="evenodd" d="M30.8001 5.6002C30.4141 5.6002 30.1001 5.28618 30.1001 4.9002C30.1001 4.51418 30.4141 4.2002 30.8001 4.2002C31.1861 4.2002 31.5001 4.51418 31.5001 4.9002C31.5001 5.28618 31.1861 5.6002 30.8001 5.6002Z" fill="#ECECFE"/>
<path fill-rule="evenodd" clip-rule="evenodd" d="M49.7 50.4C49.314 50.4 49 50.086 49 49.7C49 49.314 49.314 49 49.7 49C50.086 49 50.4 49.314 50.4 49.7C50.4 50.086 50.086 50.4 49.7 50.4Z" fill="#ECECFE"/>
<path fill-rule="evenodd" clip-rule="evenodd" d="M46.1999 9.8002C46.1999 10.2276 46.0722 10.6252 45.8529 10.9569C46.685 11.4379 47.2499 12.2682 47.2499 13.3002C47.2499 13.6868 46.9365 14.0002 46.5499 14.0002C46.1633 14.0002 45.8499 13.6868 45.8499 13.3002C45.8499 12.5991 45.2141 11.9002 44.0999 11.9002C43.0007 11.9002 42.3499 12.6517 42.3499 13.3002C42.3499 13.6868 42.0365 14.0002 41.6499 14.0002C41.2633 14.0002 40.9499 13.6868 40.9499 13.3002C40.9499 12.3112 41.5157 11.465 42.3551 10.9692C42.1308 10.6351 41.9999 10.2329 41.9999 9.8002C41.9999 8.6404 42.9401 7.7002 44.0999 7.7002C45.2597 7.7002 46.1999 8.6404 46.1999 9.8002ZM43.3999 9.8002C43.3999 9.4136 43.7133 9.1002 44.0999 9.1002C44.4865 9.1002 44.7999 9.4136 44.7999 9.8002C44.7999 10.1868 44.4865 10.5002 44.0999 10.5002C43.7133 10.5002 43.3999 10.1868 43.3999 9.8002Z" fill="#6A6AF4"/>
<path fill-rule="evenodd" clip-rule="evenodd" d="M18.8999 13.3002C18.8999 13.7276 18.7722 14.1252 18.5529 14.4569C19.385 14.9379 19.9499 15.7682 19.9499 16.8002C19.9499 17.1868 19.6365 17.5002 19.2499 17.5002C18.8633 17.5002 18.5499 17.1868 18.5499 16.8002C18.5499 16.0991 17.9141 15.4002 16.7999 15.4002C15.7007 15.4002 15.0499 16.1517 15.0499 16.8002C15.0499 17.1868 14.7365 17.5002 14.3499 17.5002C13.9633 17.5002 13.6499 17.1868 13.6499 16.8002C13.6499 15.8112 14.2157 14.965 15.0551 14.4692C14.8308 14.1351 14.6999 13.7329 14.6999 13.3002C14.6999 12.1404 15.6401 11.2002 16.7999 11.2002C17.9597 11.2002 18.8999 12.1404 18.8999 13.3002ZM16.0999 13.3002C16.0999 12.9136 16.4133 12.6002 16.7999 12.6002C17.1865 12.6002 17.4999 12.9136 17.4999 13.3002C17.4999 13.6868 17.1865 14.0002 16.7999 14.0002C16.4133 14.0002 16.0999 13.6868 16.0999 13.3002Z" fill="#6A6AF4"/>
<path fill-rule="evenodd" clip-rule="evenodd" d="M26.2499 25.2002C26.2499 25.9176 26.5197 26.5719 26.9633 27.0674C25.5028 27.7644 24.4999 29.1708 24.4999 30.8002C24.4999 31.1868 24.8133 31.5002 25.1999 31.5002C25.5865 31.5002 25.8999 31.1868 25.8999 30.8002C25.8999 29.3478 27.2134 28.0002 29.0499 28.0002C30.8958 28.0002 32.1999 29.2865 32.1999 30.8002C32.1999 31.1868 32.5133 31.5002 32.8999 31.5002C33.2865 31.5002 33.5999 31.1868 33.5999 30.8002C33.5999 29.1204 32.598 27.7392 31.1446 27.0582C31.5834 26.5639 31.8499 25.9132 31.8499 25.2002C31.8499 23.6538 30.5963 22.4002 29.0499 22.4002C27.5035 22.4002 26.2499 23.6538 26.2499 25.2002ZM29.0499 23.8002C28.2767 23.8002 27.6499 24.427 27.6499 25.2002C27.6499 25.9734 28.2767 26.6002 29.0499 26.6002L29.0524 26.6002C29.8244 26.5989 30.4499 25.9726 30.4499 25.2002C30.4499 24.427 29.8231 23.8002 29.0499 23.8002Z" fill="#6A6AF4"/>
<path fill-rule="evenodd" clip-rule="evenodd" d="M32.8999 44.1002C32.8999 44.5276 32.7722 44.9252 32.5529 45.2569C33.385 45.7379 33.9499 46.5682 33.9499 47.6002C33.9499 47.9868 33.6365 48.3002 33.2499 48.3002C32.8633 48.3002 32.5499 47.9868 32.5499 47.6002C32.5499 46.8997 31.915 46.2012 30.8024 46.2002L30.7999 46.2002L30.7974 46.2002C29.6998 46.2013 29.0499 46.9522 29.0499 47.6002C29.0499 47.9868 28.7365 48.3002 28.3499 48.3002C27.9633 48.3002 27.6499 47.9868 27.6499 47.6002C27.6499 46.6112 28.2157 45.765 29.0551 45.2692C28.8308 44.9351 28.6999 44.5329 28.6999 44.1002C28.6999 42.9404 29.6401 42.0002 30.7999 42.0002C31.9597 42.0002 32.8999 42.9404 32.8999 44.1002ZM30.0999 44.1002C30.0999 43.7136 30.4133 43.4002 30.7999 43.4002C31.1865 43.4002 31.4999 43.7136 31.4999 44.1002C31.4999 44.4868 31.1865 44.8002 30.7999 44.8002L30.7981 44.8002C30.4123 44.7992 30.0999 44.4862 30.0999 44.1002Z" fill="#6A6AF4"/>
<path fill-rule="evenodd" clip-rule="evenodd" d="M46.8999 28.7002C45.7401 28.7002 44.7999 29.6404 44.7999 30.8002C44.7999 31.2329 44.9308 31.6351 45.1551 31.9692C44.3157 32.465 43.7499 33.3112 43.7499 34.3002C43.7499 34.6868 44.0633 35.0002 44.4499 35.0002C44.8365 35.0002 45.1499 34.6868 45.1499 34.3002C45.1499 33.6517 45.8007 32.9002 46.8999 32.9002C48.0141 32.9002 48.6499 33.5991 48.6499 34.3002C48.6499 34.6868 48.9633 35.0002 49.3499 35.0002C49.7365 35.0002 50.0499 34.6868 50.0499 34.3002C50.0499 33.2682 49.485 32.4379 48.6529 31.9569C48.8722 31.6252 48.9999 31.2276 48.9999 30.8002C48.9999 29.6404 48.0597 28.7002 46.8999 28.7002ZM46.1999 30.8002C46.1999 30.4136 46.5133 30.1002 46.8999 30.1002C47.2865 30.1002 47.5999 30.4136 47.5999 30.8002C47.5999 31.1868 47.2865 31.5002 46.8999 31.5002C46.5133 31.5002 46.1999 31.1868 46.1999 30.8002Z" fill="#6A6AF4"/>
<path fill-rule="evenodd" clip-rule="evenodd" d="M11.8999 40.6002C11.8999 41.0276 11.7722 41.4252 11.5529 41.7569C12.385 42.2379 12.9499 43.0682 12.9499 44.1002C12.9499 44.4868 12.6365 44.8002 12.2499 44.8002C11.8633 44.8002 11.5499 44.4868 11.5499 44.1002C11.5499 43.3991 10.9141 42.7002 9.7999 42.7002C8.70073 42.7002 8.0499 43.4517 8.0499 44.1002C8.0499 44.4868 7.7365 44.8002 7.3499 44.8002C6.9633 44.8002 6.6499 44.4868 6.6499 44.1002C6.6499 43.1112 7.21568 42.265 8.05511 41.7692C7.83078 41.4351 7.6999 41.0329 7.6999 40.6002C7.6999 39.4404 8.6401 38.5002 9.7999 38.5002C10.9597 38.5002 11.8999 39.4404 11.8999 40.6002ZM9.0999 40.6002C9.0999 40.2136 9.4133 39.9002 9.7999 39.9002C10.1865 39.9002 10.4999 40.2136 10.4999 40.6002C10.4999 40.9868 10.1865 41.3002 9.7999 41.3002C9.4133 41.3002 9.0999 40.9868 9.0999 40.6002Z" fill="#6A6AF4"/>
<path d="M8.3999 18.2002C8.7865 18.2002 9.0999 17.8868 9.0999 17.5002C9.0999 17.1136 8.7865 16.8002 8.3999 16.8002C8.0133 16.8002 7.6999 17.1136 7.6999 17.5002C7.6999 17.8868 8.0133 18.2002 8.3999 18.2002Z" fill="#6A6AF4"/>
<path fill-rule="evenodd" clip-rule="evenodd" d="M46.9 27.3004C44.1938 27.3004 42 29.4942 42 32.2004C42 34.9066 44.1938 37.1004 46.9 37.1004C49.6062 37.1004 51.8 34.9066 51.8 32.2004C51.8 29.4942 49.6062 27.3004 46.9 27.3004ZM40.6 32.2004C40.6 28.721 43.4206 25.9004 46.9 25.9004C50.3794 25.9004 53.2 28.721 53.2 32.2004C53.2 35.6798 50.3794 38.5004 46.9 38.5004C43.4206 38.5004 40.6 35.6798 40.6 32.2004Z" fill="#000091"/>
<path fill-rule="evenodd" clip-rule="evenodd" d="M9.40343 19.0236C9.722 18.8045 10.1578 18.8852 10.3768 19.2038C11.0599 20.1974 12.0725 20.969 13.263 21.5643C13.6088 21.7372 13.749 22.1577 13.5761 22.5034C13.4032 22.8492 12.9827 22.9894 12.6369 22.8165C11.3075 22.1518 10.0801 21.2434 9.22317 19.997C9.00415 19.6784 9.08486 19.2426 9.40343 19.0236Z" fill="#000091"/>
<path fill-rule="evenodd" clip-rule="evenodd" d="M16.8 9.80039C14.0938 9.80039 11.9 11.9942 11.9 14.7004C11.9 17.4066 14.0938 19.6004 16.8 19.6004C19.5062 19.6004 21.7 17.4066 21.7 14.7004C21.7 11.9942 19.5062 9.80039 16.8 9.80039ZM10.5 14.7004C10.5 11.221 13.3206 8.40039 16.8 8.40039C20.2794 8.40039 23.1 11.221 23.1 14.7004C23.1 18.1798 20.2794 21.0004 16.8 21.0004C13.3206 21.0004 10.5 18.1798 10.5 14.7004Z" fill="#000091"/>
<path fill-rule="evenodd" clip-rule="evenodd" d="M9.8 37.1004C7.0938 37.1004 4.9 39.2942 4.9 42.0004C4.9 44.7066 7.0938 46.9004 9.8 46.9004C12.5062 46.9004 14.7 44.7066 14.7 42.0004C14.7 39.2942 12.5062 37.1004 9.8 37.1004ZM3.5 42.0004C3.5 38.521 6.32061 35.7004 9.8 35.7004C13.2794 35.7004 16.1 38.521 16.1 42.0004C16.1 45.4798 13.2794 48.3004 9.8 48.3004C6.32061 48.3004 3.5 45.4798 3.5 42.0004Z" fill="#000091"/>
<path fill-rule="evenodd" clip-rule="evenodd" d="M37.8 11.2004C37.8 7.73379 40.6334 4.90039 44.1 4.90039C45.0514 4.90039 45.9984 5.13694 46.793 5.53429C47.1388 5.70718 47.279 6.12766 47.1061 6.47344C46.9332 6.81923 46.5127 6.95938 46.167 6.78649C45.5616 6.48384 44.8286 6.30039 44.1 6.30039C41.4066 6.30039 39.2 8.50699 39.2 11.2004C39.2 13.8938 41.4066 16.1004 44.1 16.1004C46.7934 16.1004 49 13.8938 49 11.2004C49 10.8138 49.3134 10.5004 49.7 10.5004C50.0866 10.5004 50.4 10.8138 50.4 11.2004C50.4 14.667 47.5666 17.5004 44.1 17.5004C40.6334 17.5004 37.8 14.667 37.8 11.2004Z" fill="#000091"/>
<path fill-rule="evenodd" clip-rule="evenodd" d="M47.74 7.14039C47.972 6.8311 48.4107 6.76842 48.72 7.00038C48.7907 7.05341 48.8487 7.10974 48.89 7.15238C48.93 7.19355 48.9678 7.23618 48.9948 7.26653C48.996 7.26782 48.9971 7.26909 48.9982 7.27033C49.0294 7.30543 49.0483 7.32655 49.065 7.34378C49.071 7.34996 49.0749 7.35376 49.077 7.35568C49.3802 7.58897 49.4402 8.02344 49.21 8.33038C48.978 8.63966 48.5393 8.70234 48.23 8.47039C48.1593 8.41735 48.1013 8.36102 48.06 8.31839C48.02 8.27722 47.9822 8.23458 47.9552 8.20423C47.954 8.20295 47.9529 8.20168 47.9518 8.20044C47.9206 8.16533 47.9017 8.14422 47.885 8.12698C47.879 8.1208 47.8751 8.117 47.873 8.11509C47.5698 7.8818 47.5098 7.44733 47.74 7.14039Z" fill="#000091"/>
<path fill-rule="evenodd" clip-rule="evenodd" d="M24.5 45.5004C24.5 42.0338 27.3334 39.2004 30.8 39.2004C34.2666 39.2004 37.1 42.0338 37.1 45.5004C37.1 48.967 34.2666 51.8004 30.8 51.8004C29.8486 51.8004 28.9016 51.5638 28.1069 51.1665C27.7612 50.9936 27.621 50.5731 27.7939 50.2273C27.9668 49.8816 28.3873 49.7414 28.733 49.9143C29.3383 50.2169 30.0714 50.4004 30.8 50.4004C33.4934 50.4004 35.7 48.1938 35.7 45.5004C35.7 42.807 33.4934 40.6004 30.8 40.6004C28.1066 40.6004 25.9 42.807 25.9 45.5004C25.9 45.887 25.5866 46.2004 25.2 46.2004C24.8134 46.2004 24.5 45.887 24.5 45.5004Z" fill="#000091"/>
<path fill-rule="evenodd" clip-rule="evenodd" d="M26.04 48.5804C26.272 48.2711 26.7107 48.2084 27.02 48.4404C27.0907 48.4934 27.1487 48.5497 27.19 48.5924C27.23 48.6336 27.2678 48.6762 27.2948 48.7065C27.296 48.7078 27.2971 48.7091 27.2982 48.7103C27.3294 48.7454 27.3483 48.7666 27.365 48.7838C27.371 48.79 27.3749 48.7938 27.377 48.7957C27.6802 49.029 27.7402 49.4635 27.51 49.7704C27.278 50.0797 26.8393 50.1424 26.53 49.9104C26.4593 49.8574 26.4013 49.801 26.36 49.7584C26.32 49.7172 26.2822 49.6746 26.2552 49.6442C26.254 49.643 26.2529 49.6417 26.2518 49.6404C26.2206 49.6053 26.2017 49.5842 26.185 49.567C26.179 49.5608 26.1751 49.557 26.173 49.5551C25.8698 49.3218 25.8098 48.8873 26.04 48.5804Z" fill="#000091"/>
<path fill-rule="evenodd" clip-rule="evenodd" d="M29.05 21.0004C25.3773 21.0004 22.4 23.9777 22.4 27.6504C22.4 31.3231 25.3773 34.3004 29.05 34.3004C32.7227 34.3004 35.7 31.3231 35.7 27.6504C35.7 23.9777 32.7227 21.0004 29.05 21.0004ZM21 27.6504C21 23.2045 24.6041 19.6004 29.05 19.6004C33.4959 19.6004 37.1 23.2045 37.1 27.6504C37.1 32.0963 33.4959 35.7004 29.05 35.7004C24.6041 35.7004 21 32.0963 21 27.6504Z" fill="#000091"/>
<path fill-rule="evenodd" clip-rule="evenodd" d="M40.395 14.9054C40.6683 15.1788 40.6683 15.622 40.395 15.8954L34.095 22.1954C33.8216 22.4687 33.3784 22.4687 33.105 22.1954C32.8317 21.922 32.8317 21.4788 33.105 21.2054L39.405 14.9054C39.6784 14.6321 40.1216 14.6321 40.395 14.9054Z" fill="#000091"/>
<path fill-rule="evenodd" clip-rule="evenodd" d="M35.7179 29.943C35.8049 29.5663 36.1807 29.3314 36.5574 29.4183L41.1074 30.4683C41.4841 30.5552 41.719 30.9311 41.6321 31.3078C41.5452 31.6845 41.1693 31.9194 40.7926 31.8325L36.2426 30.7825C35.8659 30.6955 35.631 30.3197 35.7179 29.943Z" fill="#000091"/>
<path fill-rule="evenodd" clip-rule="evenodd" d="M30.0419 34.6528C30.4271 34.6207 30.7655 34.907 30.7976 35.2923L31.1476 39.4923C31.1797 39.8775 30.8934 40.2159 30.5081 40.248C30.1229 40.2801 29.7845 39.9938 29.7524 39.6085L29.4024 35.4085C29.3703 35.0233 29.6566 34.6849 30.0419 34.6528Z" fill="#000091"/>
<path fill-rule="evenodd" clip-rule="evenodd" d="M20.155 18.7554C20.4284 18.4821 20.8716 18.4821 21.145 18.7554L24.295 21.9054C24.5684 22.1788 24.5684 22.622 24.295 22.8954C24.0216 23.1687 23.5784 23.1687 23.305 22.8954L20.155 19.7454C19.8817 19.472 19.8817 19.0288 20.155 18.7554Z" fill="#000091"/>
<path fill-rule="evenodd" clip-rule="evenodd" d="M23.3129 32.1343C23.5427 32.4452 23.477 32.8835 23.1661 33.1133L15.1161 39.0633C14.8052 39.2931 14.3669 39.2274 14.1371 38.9165C13.9073 38.6056 13.973 38.1673 14.2839 37.9375L22.3339 31.9875C22.6448 31.7577 23.0831 31.8234 23.3129 32.1343Z" fill="#000091"/>
</svg>
