<svg xmlns="http://www.w3.org/2000/svg" width="71" height="80" fill="none" viewBox="0 0 71 80"><path fill="#ea619e" d="m26.208 67.234 9.147-14.704c6.624 8.642 13.253 17.285 19.877 25.93a168 168 0 0 1 13.453-18.6 270 270 0 0 0-26.858-14.966 107 107 0 0 1 11.214-10.32C43.073 30.345.691 14.788.691 14.788s20.822 37.653 25.513 52.445z"/><path fill="#ea619e" d="m26.713 67.98 9.147-14.703-.978.026L50.406 73.55l4.358 5.68c.283.37.715.395.977-.026A170 170 0 0 1 65.887 64.7a163 163 0 0 1 3.169-3.927c.36-.433.534-1.486-.044-1.853a273 273 0 0 0-20.968-12.04 265 265 0 0 0-6.057-3.029l.21 1.956a108.5 108.5 0 0 1 11.215-10.32c.523-.418.421-1.687-.211-1.957-2.976-1.26-5.992-2.415-9.009-3.576a1686 1686 0 0 0-13.038-4.951c-4.6-1.73-9.209-3.447-13.817-5.159A5816 5816 0 0 0 6.17 15.71c-1.74-.644-3.474-1.38-5.243-1.93-.026-.008-.048-.02-.073-.026-.367-.134-.658.196-.77.514-.157.432-.077.902.138 1.297.708 1.28 1.406 2.567 2.104 3.854q1.166 2.152 2.322 4.308a676 676 0 0 1 2.823 5.321 745 745 0 0 1 6.658 12.928c2.227 4.438 4.404 8.905 6.468 13.424 1.686 3.698 3.336 7.433 4.659 11.283q.19.554.37 1.113c.131.41.607.684.956.362.393-.366.36-1.01.215-1.472-1.185-3.716-2.748-7.314-4.336-10.868-2.016-4.5-4.16-8.942-6.359-13.353a693 693 0 0 0-6.766-13.213 951 951 0 0 0-7.308-13.66c-.273-.5-.524-1.021-.825-1.502q-.021-.033-.037-.067l-.628 1.809q2.153.789 4.302 1.582 5.316 1.961 10.63 3.931c4.564 1.694 9.12 3.392 13.678 5.104 4.44 1.664 8.878 3.339 13.304 5.04 3.227 1.239 6.457 2.478 9.651 3.798q.392.16.778.325l-.21-1.956a109 109 0 0 0-11.215 10.321c-.469.495-.458 1.63.21 1.956a270 270 0 0 1 26.692 14.862l-.044-1.852a172 172 0 0 0-10.82 14.487 165 165 0 0 0-2.766 4.286l.978-.026L40.18 57.445l-4.358-5.68c-.283-.37-.715-.4-.977.026l-9.147 14.703c-.269.429-.254 1.102.037 1.516.272.388.726.38.977-.026z"/><path fill="#ffea11" d="M27.82 53.514q4.575-7.352 9.147-14.703 9.939 12.962 19.878 25.93a168 168 0 0 1 13.453-18.6A270 270 0 0 0 43.44 31.174a107 107 0 0 1 11.214-10.321c-9.972-4.23-52.35-19.788-52.35-19.788S23.125 38.718 27.816 53.51z"/><path fill="#ffea07" d="m28.326 54.257 9.147-14.703-.978.026 15.524 20.247q2.18 2.84 4.357 5.68c.284.37.716.395.978-.026A170 170 0 0 1 67.5 50.977a164 164 0 0 1 3.169-3.927c.36-.433.534-1.487-.044-1.853a273 273 0 0 0-20.968-12.04 266 266 0 0 0-6.058-3.029l.211 1.956a109 109 0 0 1 11.215-10.32c.523-.419.421-1.687-.211-1.957-2.977-1.26-5.993-2.415-9.009-3.576a1690 1690 0 0 0-13.038-4.951A3755 3755 0 0 0 18.95 6.12 5784 5784 0 0 0 7.783 1.988C6.04 1.343 4.306.607 2.536.057 2.51.048 2.489.036 2.463.03c-.367-.133-.658.196-.77.514-.157.433-.077.903.138 1.298.708 1.28 1.406 2.567 2.104 3.854q1.167 2.151 2.322 4.308a676 676 0 0 1 2.824 5.321 746 746 0 0 1 6.657 12.928c2.173 4.334 4.404 8.905 6.468 13.424 1.686 3.698 3.336 7.433 4.66 11.282q.19.554.37 1.113c.13.41.607.685.956.363.392-.366.36-1.01.214-1.472-1.185-3.716-2.747-7.315-4.335-10.868-2.017-4.5-4.161-8.942-6.36-13.354a706 706 0 0 0-6.766-13.212 952 952 0 0 0-7.308-13.66c-.273-.5-.523-1.021-.825-1.502Q2.791.333 2.776.3l-.629 1.81Q4.3 2.898 6.45 3.69q5.315 1.961 10.629 3.931a3568 3568 0 0 1 13.678 5.104c4.44 1.664 8.878 3.339 13.304 5.04 3.227 1.239 6.457 2.477 9.652 3.798q.392.16.777.325l-.21-1.956a109 109 0 0 0-11.215 10.32c-.469.496-.458 1.632.211 1.957a270 270 0 0 1 26.691 14.862l-.043-1.853a172 172 0 0 0-10.822 14.49 165 165 0 0 0-2.766 4.285l.978-.026L41.79 43.722l-4.357-5.68c-.284-.37-.716-.4-.978.026L27.308 52.77c-.268.429-.254 1.102.037 1.516.272.388.727.38.977-.026z"/></svg>