<svg xmlns="http://www.w3.org/2000/svg" width="78" height="83" fill="none" viewBox="0 0 78 83"><path fill="#e9619e" d="M18.564 8.562C9.614 12.806 4.093 22.247 1.927 31.876.795 36.913.44 42.205 1.67 47.22c1.615 6.573 5.936 12.331 11.453 16.274 5.52 3.943 12.173 6.145 18.92 6.942 11.468 1.353 23.763-1.563 32.216-9.404 8.449-7.844 17.128-24.607 10.524-41.516C61.908-13.44 18.564 8.561 18.564 8.561"/><path fill="#ea619e" d="M18.293 7.25C9.753 11.332 4.297 19.894 1.765 28.738.195 34.21-.518 40.044.42 45.693c.823 4.946 3.087 9.614 6.313 13.452 6.74 8.017 16.978 12.068 27.276 12.846 9.623.73 19.638-1.514 27.532-7.175 3.528-2.53 6.475-5.765 8.913-9.336 2.68-3.924 4.762-8.306 6.042-12.88 1.445-5.154 1.894-10.524 1.15-15.832-.656-4.675-2.29-9.242-4.709-13.305-3.222-5.412-8.158-9.584-14.14-11.659C53.377-.082 47.483-.316 41.81.312 36.678.883 31.614 2.14 26.734 3.808c-2.743.94-5.46 2-8.075 3.258q-.189.09-.37.18c-.585.298-.71 1.117-.588 1.7.094.458.54 1.229 1.131.928 1.763-.895 3.612-1.646 5.457-2.357a84 84 0 0 1 5.913-2.026 68 68 0 0 1 7.121-1.759c5.404-1.026 10.996-1.394 16.442-.477.056.011.117.019.173.03-.196-.034.09.019.106.019l.517.101q.515.107 1.03.23c.683.165 1.362.35 2.034.564a27 27 0 0 1 4.807 2.044c.133.072.26.147.393.218l.234.135c.03.02.343.207.166.098q.934.571 1.811 1.225a25 25 0 0 1 3.306 2.955l.2.214a28 28 0 0 1 .4.455q.425.495.823 1.015a28 28 0 0 1 2.052 3.051c.091.158.185.316.272.478.053.098.11.192.162.29l.012.022.105.199q.644 1.231 1.193 2.507a32.5 32.5 0 0 1 2.604 14.55 30 30 0 0 1-.14 1.687 38 38 0 0 1-.966 5.322 41.6 41.6 0 0 1-2.381 6.645c-1.717 3.77-4.117 7.468-6.913 10.535-6.155 6.75-14.895 10.46-23.921 11.336-9.736.94-20.268-1.132-28.302-6.875-3.736-2.668-6.985-6.216-9.05-10.268-2.331-4.57-3.06-9.584-2.539-14.715.487-4.77 1.71-9.272 3.8-13.643 1.838-3.837 4.472-7.547 7.793-10.374a24.3 24.3 0 0 1 5.283-3.431c.588-.282.71-1.128.588-1.699-.098-.47-.535-1.214-1.132-.928z"/><path fill="#ffea07" stroke="#ffe817" d="M60.322 48.046q-.034-.112-.065-.225c.17-.055.324 0 .39.036q.029.018.052.036zm0 0 .056.159.457-.168-.01-.02a.5.5 0 0 0-.092-.1zm.015-1.523a.5.5 0 0 0 .119-.054l.014-.007.008-.008m-.141.07-.26-.042-.001.004.247.042zm0 0 .177.028v-.001l-.002-.016-.026-.061v-.002q-.002-.008-.008-.018m0 0a.5.5 0 0 0-.312-.25l-.02-.004.017-.063.367.126.018.057q.008.038.008.065a.5.5 0 0 1-.078.069ZM13.522 34.706h.341a1 1 0 0 1-.075.074.8.8 0 0 1-.254.06zm0 0-.014-.225.486-.022q-.003.021-.013.057a1 1 0 0 1-.036.086 1 1 0 0 1-.056.075zm50.992-6.821.007.199-.474-.002a.5.5 0 0 1 .094-.19zm0 0h-.365a.5.5 0 0 1 .36-.176zm-.255-2.53-.461.092a.5.5 0 0 1 .023-.098c.006-.015.08-.243.34-.313l.024-.005.001.001zm0 0-.462.095-.003.015-.003.046v.004l.482-.085zm-2.795 30.471a.5.5 0 0 0-.38.393l-.001.01.46-.07-.02-.108q-.029-.113-.06-.225Zm-1.018-8.56-.012.02a.5.5 0 0 1-.14.13.5.5 0 0 1-.13.055l.044.172a.5.5 0 0 0 .377-.363l.005-.037zm.057-.402.004.006-.003-.01zm-.436-.33a.5.5 0 0 0 .18.012.5.5 0 0 0-.173-.05zM13.485 33.132l.5.007q-.007.414.003.82v.004q.005.173.013.351v.013l.002.014.002.025q0 .027.004.065l.011.236c.111 1.403.287 2.372.649 3.7.326 1.196.686 2.329 1.29 3.346l.448.733c1.064 1.693 2.275 3.249 3.821 4.47l.385.292.4.288c.27.191.55.39.823.599l.667.517q.158.123.318.236l.328.218.002.001c.498.308 1.07.488 1.711.742q.988.392 1.987.754h-.002c2.681.971 5.415 1.787 8.171 2.552 1.39.386 2.788.758 4.188 1.13.188.05.474.107.702.216.278.133.498.342.667.676.168.33.3.688.419.988.284.711.537 1.428.776 2.142.439 1.309.814 2.633 1.181 3.947.274.979.543 1.95.833 2.915l.316.985c.128.397.175.905.133 1.388-.04.473-.176 1.002-.486 1.39v.001c-.167.212-.403.394-.709.409-.3.014-.528-.14-.668-.276-.268-.26-.435-.657-.512-.895v-.001c-.552-1.723-1.01-3.486-1.5-5.189-.43-1.494-.89-2.958-1.47-4.37-1.145-.304-2.29-.607-3.434-.922-2.672-.734-5.347-1.51-7.98-2.41a77 77 0 0 1-2.91-1.06l-.962-.382c-.552-.224-1.157-.458-1.71-.847l-.002-.002a19 19 0 0 1-.671-.505l-.637-.49c-1.002-.748-2.024-1.49-2.95-2.415a18.4 18.4 0 0 1-1.922-2.293l-.244-.348c-.578-.838-1.231-1.775-1.702-2.763l-.19-.426a27.4 27.4 0 0 1-1.334-4.054c-1.325-5.482-.922-11.432 1.569-16.558 1.95-4.012 4.916-7.327 8.644-9.905s7.995-4.24 12.426-5.116c4.433-.876 9.066-.932 13.5.07l.826.199c1.92.489 3.797 1.17 5.574 2.055 1.925.959 3.912 2.168 5.508 3.703l.314.312c1.918 1.967 3.814 4.152 4.811 6.947.924 2.59 1.253 5.407 1.02 8.14l-.054.545c-.61 5.366-2.691 10.41-5.188 15.093v-.001c-.18.338-.34.612-.466.915l-.003.007-.001.001-.056.145-.015.052-.034.117v.012l-.023.074-.007.017v.008h-.001c-.004.032-.016.083-.026.134v.017c0 .023.004.12.004.169q0 .065-.007.123l.004.032.013.028.009.028.006.024.005.02.008.048.023.121.01.062.002.002q.073.306.162.595l.082.232.007.023v.005q.047.13.094.25l.25.614c.877 2.05 2.022 4.167 2.317 6.57l.024.258c.02.285.023.645-.031.997-.067.437-.244 1.031-.764 1.325-.294.166-.616.173-.894.01-.234-.138-.38-.363-.47-.54a3.4 3.4 0 0 1-.298-1.016v.001l-.032-.22-.007-.034-.023-.123-.012-.06-.003-.008-.002-.008a10 10 0 0 0-.204-.73v.001l-.018-.055-.032-.08V55.3c-.05-.124-.11-.285-.146-.376v-.001q-.139-.337-.285-.678v-.001c-.889-2.035-2.057-4.2-2.247-6.625l-.03-.564c-.038-1.321.163-2.669.726-3.91l.214-.457c.22-.454.454-.899.687-1.336.313-.586.62-1.157.9-1.739 1.145-2.39 2.09-4.748 2.725-7.25l.223-.93c.197-.884.323-1.678.428-2.723l.04-.34.012-.143v-.005l-.005-.072-.008-.265q-.004-.237-.014-.462L64 27.41v-.01l-.013-.218-.004-.06V27.1c-.042-.504-.1-1.003-.185-1.495l-.03-.15a9 9 0 0 0-.067-.306l-.117-.469c-.08-.286-.154-.542-.229-.746v-.004c-.214-.594-.442-1.172-.753-1.677-.32-.521-.731-.986-1.16-1.537a37 37 0 0 0-1.233-1.505v-.001a16 16 0 0 0-2.73-2.504l-.704-.492q-.891-.601-1.832-1.123l-.377-.205c-3.993-2.133-8.506-3.106-13.039-3.095-8.762.018-18.007 3.505-23.456 10.47v.002c-1.27 1.62-2.251 3.305-2.987 5.207l-.145.382a18 18 0 0 0-.54 1.9 12 12 0 0 0-.275 1.546q-.036.285-.064.571l-.05.575-.01.102v.093c-.005.203-.015.323-.015.493v.007zm47.113 13.196-.001.003.024-.037-.024-.009zm3.524-18.911c.063.052.2.132.3.156q.039-.001.082-.012l-.004-.16-.012-.196-.476.036q.006.022.02.05a1 1 0 0 0 .07.11z"/><path fill="#ffea07" stroke="#ffe817" d="M46.576 31.795c.71-.254 1.529-.283 2.287.19.886.551 1.263 1.518 1.456 2.335h-.001a9.8 9.8 0 0 1 .227 3.052c-.12 1.593-.68 3.102-1.552 4.42q-.302.453-.653.882c.77 2.2 1.692 4.37 2.658 6.545 1.363 3.066 2.815 6.155 4 9.31.308.817.389 1.896-.013 2.775l-.001.002a1.8 1.8 0 0 1-.29.446c-.125.14-.36.339-.693.339-.326 0-.564-.193-.695-.334a1.5 1.5 0 0 1-.3-.486 81 81 0 0 0-.912-2.304c-1.922-4.654-4.289-9.286-5.972-14.153a14 14 0 0 1-2.66 1.608c2.808 4.855 5.157 9.956 6.777 15.364.119.395.168.896.128 1.378-.04.472-.171 1-.484 1.392-.168.212-.403.392-.707.408-.299.015-.527-.136-.669-.27-.204-.195-.35-.469-.442-.699l-.074-.212c-1.358-4.54-3.375-9.034-5.753-13.26a84 84 0 0 0-1.616-2.734l-.119-.194c-.468.174-.94.343-1.422.486h-.001c-1.172.348-2.533.616-3.857.26-1.448-.39-2.787-1.499-3.242-3.004l-.08-.307c-.402-1.888.13-4.117 1.987-5.21l.226-.123c1.15-.573 2.61-.574 3.754-.192 1.632.541 2.548 1.975 3.305 3.159l.096.151c.667-.266 1.29-.506 1.888-.829a14.5 14.5 0 0 0 1.781-1.129q-.15-.603-.278-1.214c-.19-.91-.359-1.837-.482-2.77-.074-.564-.183-1.247-.15-1.903.034-.673.217-1.372.763-1.957.458-.492 1.084-.968 1.785-1.218Zm-9.404 11.927c-.57-.163-1.296-.121-1.935.023h-.001a1 1 0 0 0-.182.06c.79.414 1.76.398 2.737.197a2.5 2.5 0 0 0-.619-.28Zm10.38-7.73c-.304-.003-.601.109-.879.296l.078.498v.003l.035.2.033.198q.146.753.328 1.5c.343-.462.56-.864.804-1.45l.013-.033.006-.022c.012-.05.026-.099.036-.135l.027-.097v-.003l.003-.01.008-.042.024-.107.008-.053.005-.042v-.003l.01-.071.002-.022a1 1 0 0 1-.014-.109v-.042l-.011-.083-.005-.065h-.001l-.001-.016-.019-.065-.034-.041-.04-.067a.67.67 0 0 0-.412-.117zm-1.223 1.294q.033.168.069.336a.7.7 0 0 0 .32-.148 1 1 0 0 0 .084-.205l.007-.065v-.01z"/><mask id="a" width="34" height="32" x="38.584" y="51.806" fill="#000" maskUnits="userSpaceOnUse"><path fill="#fff" d="M38.584 51.806h34v32h-34z"/><path d="M41.04 71.37a90 90 0 0 0 9.988-5.152c3.215-1.925 6.25-4.13 9.306-6.322 1.592-1.142 3.271-2.176 5.136-2.823l-1.412-2.033q-.014.152-.041.297c0-.023-.094.455-.042.237.046-.18-.037.116-.049.158q-.057.174-.124.35a6 6 0 0 1-.117.273c.026-.06.11-.202-.03.06a9 9 0 0 1-.385.65c-.472.726-.963 1.256-1.612 1.895-1.35 1.327-2.826 2.526-4.343 3.661-3.057 2.289-6.31 4.3-9.392 6.551-1.733 1.263-3.404 2.605-4.952 4.093-.471.455-.61 1.29-.46 1.91.11.454.483 1.308 1.098 1.206 3.325-.549 6.362-1.958 9.264-3.616 3.068-1.751 6.072-3.627 9.099-5.446q2.684-1.617 5.37-3.232l-1.148-2.782c-1.887 2.684-4.392 5.074-7.053 7.198-2.728 2.176-5.63 4.112-8.49 6.108-1.615 1.127-3.215 2.277-4.763 3.495-.815.643-.694 2.669.34 3.063 1.785.68 3.687-.079 5.355-.755 1.668-.677 3.132-1.413 4.63-2.252 3.019-1.683 5.876-3.634 8.811-5.46 1.65-1.027 3.329-2.011 5.06-2.887l-.928-3.048a422 422 0 0 0-4.894 3.65q-1.257.946-2.502 1.905c-.75.575-1.649 1.116-2.241 1.856-1.578 1.966.094 4.74 1.226 6.51.517.808 1.378 1.654 2.381 1.053.94-.564 1.412-1.816 1.653-2.823.227-.955.238-2 .008-2.958s-.74-2.244-1.853-2.496c-.925-.21-2.027.124-2.902.418-.875.293-1.792.695-2.453 1.326-1.668 1.586-1.283 4.54.434 5.946 1.283 1.049 3.351 1.248 4.517-.094.811-.932 1.083-2.21.898-3.416-.15-.974-.702-2.011-1.668-2.39-.807-.316-1.69-.068-2.358.432-.962.725-1.163 1.98-1.008 3.097.087.616.68 1.447 1.389 1.138.762-.327.819-1.401.72-2.086.035.241.057.482-.026.715l-.079.169q.124-.181-.042.034c.076-.068.144-.14.227-.2-.068.05-.17.076.004.02.098-.03.188-.083.29-.11-.238.064.072 0 .113 0 0 0 .317.03.155 0-.117-.022.193.08.234.102l-.098-.05q.17.16.008-.014l.064.09q-.131-.267-.03-.041c-.117-.354-.05-.17-.035-.075-.09-.557-.075.225-.007-.328-.045.365.159-.289 0 .046-.158.334.208-.196-.034.071-.034.038-.162.192.011.008-.041.045-.343.27-.203.188a1.8 1.8 0 0 1-.363.154c.114-.034-.079.018-.09.018a3.2 3.2 0 0 1-.627.008 2.7 2.7 0 0 1-.634-.222c-.317-.154.09.094-.192-.116-.045-.034-.366-.339-.26-.215a3 3 0 0 1-.167-.229c.151.23-.056-.132-.067-.169l.045.132q-.051-.288 0 .037a1.8 1.8 0 0 1-.095.402c.004-.015.14-.207.042-.082.087-.11.215-.21.328-.294.178-.127.51-.289.755-.406a8.6 8.6 0 0 1 1.57-.56c.317-.079.657-.131.985-.157-.027 0 .366-.042.26-.02.234-.048.008.14.034-.022l.076.117q-.115-.194-.008.041l.05.14c-.054-.162-.054-.151-.009.033.06.32.023.064.016 0 .015.15.015.297.018.447-.003-.383-.01.08-.022.147-.008.041-.136.488-.034.176q-.046.142-.098.282-.106.244-.02.064a5 5 0 0 1-.146.26l-.08.124-.041.06c.015.007.072-.023.102-.008 0 0 .207.083.15.11-.022.007-.24-.343-.248-.358-.385-.59-.596-.973-.887-1.59-.076-.157-.211-.676-.34-.781.22.172-.671.838-.12.785l-.046.049c.064-.068.136-.135.208-.195.513-.444 1.075-.839 1.615-1.252a419 419 0 0 1 7.619-5.724c.585-.433.585-1.504.4-2.109-.159-.519-.676-1.27-1.328-.94-5.997 3.034-11.242 7.379-17.393 10.126-.86.383-1.74.744-2.634 1.045s-1.785.489-2.653.158l.34 3.063c5.513-4.337 11.758-7.776 16.792-12.708a33.3 33.3 0 0 0 3.947-4.626c.374-.53.393-1.459.125-2.038-.196-.42-.725-1.067-1.268-.74-3.098 1.864-6.2 3.729-9.298 5.596-2.864 1.726-5.698 3.56-8.75 4.94-1.631.736-3.33 1.334-5.1 1.627l.635 3.115c5.675-5.468 13.06-8.78 18.687-14.305 1.656-1.627 3.087-3.585 3.366-5.95.094-.796-.253-2.431-1.412-2.033-3.464 1.2-6.275 3.695-9.226 5.77a88 88 0 0 1-9.475 5.77 90 90 0 0 1-5.725 2.754c-.717.316-.887 1.41-.72 2.086.143.59.637 1.47 1.388 1.139z"/></mask><path fill="#ffea07" d="M41.04 71.37a90 90 0 0 0 9.988-5.152c3.215-1.925 6.25-4.13 9.306-6.322 1.592-1.142 3.271-2.176 5.136-2.823l-1.412-2.033q-.014.152-.041.297c0-.023-.094.455-.042.237.046-.18-.037.116-.049.158q-.057.174-.124.35a6 6 0 0 1-.117.273c.026-.06.11-.202-.03.06a9 9 0 0 1-.385.65c-.472.726-.963 1.256-1.612 1.895-1.35 1.327-2.826 2.526-4.343 3.661-3.057 2.289-6.31 4.3-9.392 6.551-1.733 1.263-3.404 2.605-4.952 4.093-.471.455-.61 1.29-.46 1.91.11.454.483 1.308 1.098 1.206 3.325-.549 6.362-1.958 9.264-3.616 3.068-1.751 6.072-3.627 9.099-5.446q2.684-1.617 5.37-3.232l-1.148-2.782c-1.887 2.684-4.392 5.074-7.053 7.198-2.728 2.176-5.63 4.112-8.49 6.108-1.615 1.127-3.215 2.277-4.763 3.495-.815.643-.694 2.669.34 3.063 1.785.68 3.687-.079 5.355-.755 1.668-.677 3.132-1.413 4.63-2.252 3.019-1.683 5.876-3.634 8.811-5.46 1.65-1.027 3.329-2.011 5.06-2.887l-.928-3.048a422 422 0 0 0-4.894 3.65q-1.257.946-2.502 1.905c-.75.575-1.649 1.116-2.241 1.856-1.578 1.966.094 4.74 1.226 6.51.517.808 1.378 1.654 2.381 1.053.94-.564 1.412-1.816 1.653-2.823.227-.955.238-2 .008-2.958s-.74-2.244-1.853-2.496c-.925-.21-2.027.124-2.902.418-.875.293-1.792.695-2.453 1.326-1.668 1.586-1.283 4.54.434 5.946 1.283 1.049 3.351 1.248 4.517-.094.811-.932 1.083-2.21.898-3.416-.15-.974-.702-2.011-1.668-2.39-.807-.316-1.69-.068-2.358.432-.962.725-1.163 1.98-1.008 3.097.087.616.68 1.447 1.389 1.138.762-.327.819-1.401.72-2.086.035.241.057.482-.026.715l-.079.169q.124-.181-.042.034c.076-.068.144-.14.227-.2-.068.05-.17.076.004.02.098-.03.188-.083.29-.11-.238.064.072 0 .113 0 0 0 .317.03.155 0-.117-.022.193.08.234.102l-.098-.05q.17.16.008-.014l.064.09q-.131-.267-.03-.041c-.117-.354-.05-.17-.035-.075-.09-.557-.075.225-.007-.328-.045.365.159-.289 0 .046-.158.334.208-.196-.034.071-.034.038-.162.192.011.008-.041.045-.343.27-.203.188a1.8 1.8 0 0 1-.363.154c.114-.034-.079.018-.09.018a3.2 3.2 0 0 1-.627.008 2.7 2.7 0 0 1-.634-.222c-.317-.154.09.094-.192-.116-.045-.034-.366-.339-.26-.215a3 3 0 0 1-.167-.229c.151.23-.056-.132-.067-.169l.045.132q-.051-.288 0 .037a1.8 1.8 0 0 1-.095.402c.004-.015.14-.207.042-.082.087-.11.215-.21.328-.294.178-.127.51-.289.755-.406a8.6 8.6 0 0 1 1.57-.56c.317-.079.657-.131.985-.157-.027 0 .366-.042.26-.02.234-.048.008.14.034-.022l.076.117q-.115-.194-.008.041l.05.14c-.054-.162-.054-.151-.009.033.06.32.023.064.016 0 .015.15.015.297.018.447-.003-.383-.01.08-.022.147-.008.041-.136.488-.034.176q-.046.142-.098.282-.106.244-.02.064a5 5 0 0 1-.146.26l-.08.124-.041.06c.015.007.072-.023.102-.008 0 0 .207.083.15.11-.022.007-.24-.343-.248-.358-.385-.59-.596-.973-.887-1.59-.076-.157-.211-.676-.34-.781.22.172-.671.838-.12.785l-.046.049c.064-.068.136-.135.208-.195.513-.444 1.075-.839 1.615-1.252a419 419 0 0 1 7.619-5.724c.585-.433.585-1.504.4-2.109-.159-.519-.676-1.27-1.328-.94-5.997 3.034-11.242 7.379-17.393 10.126-.86.383-1.74.744-2.634 1.045s-1.785.489-2.653.158l.34 3.063c5.513-4.337 11.758-7.776 16.792-12.708a33.3 33.3 0 0 0 3.947-4.626c.374-.53.393-1.459.125-2.038-.196-.42-.725-1.067-1.268-.74-3.098 1.864-6.2 3.729-9.298 5.596-2.864 1.726-5.698 3.56-8.75 4.94-1.631.736-3.33 1.334-5.1 1.627l.635 3.115c5.675-5.468 13.06-8.78 18.687-14.305 1.656-1.627 3.087-3.585 3.366-5.95.094-.796-.253-2.431-1.412-2.033-3.464 1.2-6.275 3.695-9.226 5.77a88 88 0 0 1-9.475 5.77 90 90 0 0 1-5.725 2.754c-.717.316-.887 1.41-.72 2.086.143.59.637 1.47 1.388 1.139z"/><path stroke="#ffe817" stroke-width="2" d="M41.04 71.37a90 90 0 0 0 9.988-5.152c3.215-1.925 6.25-4.13 9.306-6.322 1.592-1.142 3.271-2.176 5.136-2.823l-1.412-2.033q-.014.152-.041.297c0-.023-.094.455-.042.237.046-.18-.037.116-.049.158q-.057.174-.124.35a6 6 0 0 1-.117.273c.026-.06.11-.202-.03.06a9 9 0 0 1-.385.65c-.472.726-.963 1.256-1.612 1.895-1.35 1.327-2.826 2.526-4.343 3.661-3.057 2.289-6.31 4.3-9.392 6.551-1.733 1.263-3.404 2.605-4.952 4.093-.471.455-.61 1.29-.46 1.91.11.454.483 1.308 1.098 1.206 3.325-.549 6.362-1.958 9.264-3.616 3.068-1.751 6.072-3.627 9.099-5.446q2.684-1.617 5.37-3.232l-1.148-2.782c-1.887 2.684-4.392 5.074-7.053 7.198-2.728 2.176-5.63 4.112-8.49 6.108-1.615 1.127-3.215 2.277-4.763 3.495-.815.643-.694 2.669.34 3.063 1.785.68 3.687-.079 5.355-.755 1.668-.677 3.132-1.413 4.63-2.252 3.019-1.683 5.876-3.634 8.811-5.46 1.65-1.027 3.329-2.011 5.06-2.887l-.928-3.048a422 422 0 0 0-4.894 3.65q-1.257.946-2.502 1.905c-.75.575-1.649 1.116-2.241 1.856-1.578 1.966.094 4.74 1.226 6.51.517.808 1.378 1.654 2.381 1.053.94-.564 1.412-1.816 1.653-2.823.227-.955.238-2 .008-2.958s-.74-2.244-1.853-2.496c-.925-.21-2.027.124-2.902.418-.875.293-1.792.695-2.453 1.326-1.668 1.586-1.283 4.54.434 5.946 1.283 1.049 3.351 1.248 4.517-.094.811-.932 1.083-2.21.898-3.416-.15-.974-.702-2.011-1.668-2.39-.807-.316-1.69-.068-2.358.432-.962.725-1.163 1.98-1.008 3.097.087.616.68 1.447 1.389 1.138.762-.327.819-1.401.72-2.086.035.241.057.482-.026.715l-.079.169q.124-.181-.042.034c.076-.068.144-.14.227-.2-.068.05-.17.076.004.02.098-.03.188-.083.29-.11-.238.064.072 0 .113 0 0 0 .317.03.155 0-.117-.022.193.08.234.102l-.098-.05q.17.16.008-.014l.064.09q-.131-.267-.03-.041c-.117-.354-.05-.17-.035-.075-.09-.557-.075.225-.007-.328-.045.365.159-.289 0 .046-.158.334.208-.196-.034.071-.034.038-.162.192.011.008-.041.045-.343.27-.203.188a1.8 1.8 0 0 1-.363.154c.114-.034-.079.018-.09.018a3.2 3.2 0 0 1-.627.008 2.7 2.7 0 0 1-.634-.222c-.317-.154.09.094-.192-.116-.045-.034-.366-.339-.26-.215a3 3 0 0 1-.167-.229c.151.23-.056-.132-.067-.169l.045.132q-.051-.288 0 .037a1.8 1.8 0 0 1-.095.402c.004-.015.14-.207.042-.082.087-.11.215-.21.328-.294.178-.127.51-.289.755-.406a8.6 8.6 0 0 1 1.57-.56c.317-.079.657-.131.985-.157-.027 0 .366-.042.26-.02.234-.048.008.14.034-.022l.076.117q-.115-.194-.008.041l.05.14c-.054-.162-.054-.151-.009.033.06.32.023.064.016 0 .015.15.015.297.018.447-.003-.383-.01.08-.022.147-.008.041-.136.488-.034.176q-.046.142-.098.282-.106.244-.02.064a5 5 0 0 1-.146.26l-.08.124-.041.06c.015.007.072-.023.102-.008 0 0 .207.083.15.11-.022.007-.24-.343-.248-.358-.385-.59-.596-.973-.887-1.59-.076-.157-.211-.676-.34-.781.22.172-.671.838-.12.785l-.046.049c.064-.068.136-.135.208-.195.513-.444 1.075-.839 1.615-1.252a419 419 0 0 1 7.619-5.724c.585-.433.585-1.504.4-2.109-.159-.519-.676-1.27-1.328-.94-5.997 3.034-11.242 7.379-17.393 10.126-.86.383-1.74.744-2.634 1.045s-1.785.489-2.653.158l.34 3.063c5.513-4.337 11.758-7.776 16.792-12.708a33.3 33.3 0 0 0 3.947-4.626c.374-.53.393-1.459.125-2.038-.196-.42-.725-1.067-1.268-.74-3.098 1.864-6.2 3.729-9.298 5.596-2.864 1.726-5.698 3.56-8.75 4.94-1.631.736-3.33 1.334-5.1 1.627l.635 3.115c5.675-5.468 13.06-8.78 18.687-14.305 1.656-1.627 3.087-3.585 3.366-5.95.094-.796-.253-2.431-1.412-2.033-3.464 1.2-6.275 3.695-9.226 5.77a88 88 0 0 1-9.475 5.77 90 90 0 0 1-5.725 2.754c-.717.316-.887 1.41-.72 2.086.143.59.637 1.47 1.388 1.139z" mask="url(#a)"/></svg>