<svg xmlns="http://www.w3.org/2000/svg" width="78" height="78" fill="none" viewBox="0 0 78 78"><path fill="#ea619e" fill-rule="evenodd" d="M49.636 5.204q3.93-.004 7.855.02c2.252.017 4.505.043 6.757.088 1.694.033 3.388.074 5.08.147.973.043 1.961.069 2.928.204.297.04.599.084.884.18a7 7 0 0 1 1.033.458c.354.183.713.37.938.715.718 1.098 1.134 2.335 1.362 3.616.385 2.169.532 4.39.641 6.589.133 2.706.174 5.418.188 8.126.016 3.02-.01 6.037-.043 9.057-.033 2.988-.079 5.979-.11 8.967-.026 2.575-.044 5.15-.008 7.723.026 1.814.054 3.643.256 5.447.056.507-.116 1.077-.37 1.512-.181.31-.583.66-.97.647-3.35-.117-6.704-.19-10.056-.207-4.585-.02-9.167.09-13.75.152q-7.879.105-15.755-.158a48 48 0 0 1-2.837 4.165c-1.945 2.548-4.126 4.888-6.397 7.146-2.361 2.352-4.766 4.66-7.034 7.103-.245.263-.734.389-1.069.239-.256-.114-.459-.31-.628-.53-.553-.718-.487-1.752-.28-2.568l.21-.827c.016-.071.085-.34.002-.01l.078-.313q.172-.696.34-1.392.285-1.174.549-2.35c.47-2.097.855-4.21 1.19-6.332.3-1.9.598-3.802.911-5.701-2.03.04-4.06.069-6.09.078-2.528.011-5.058.007-7.583-.117-.993-.05-1.447-1.238-1.447-2.09q-.006-2.609.01-5.218c.024-3.968.073-7.936.128-11.905.06-4.132.126-8.264.185-12.396.055-3.899.108-7.796.136-11.695q.01-1.345.014-2.69c.005-1.372-.12-3.062 1.024-4.055.625-.545 1.463-.586 2.25-.666q.578-.06 1.159-.11c1.924-.166 3.85-.28 5.78-.378 2.418-.121 4.837-.214 7.258-.29q4.08-.127 8.16-.205 4.306-.084 8.611-.126 4.255-.042 8.51-.05" clip-rule="evenodd"/><path fill="#ffea11" d="M16.938 49.747c-1.76 10.024-1.354 10.269-3.865 20.13 6.447-6.944 11.595-10.565 16.392-18.737 17.722.62 22.411-.388 40.13.233-.923-8.155.949-38.322-1.082-46.396-.152-.601-.775-1.662-.775-1.662s-.99-.554-1.546-.677c-3.462-.773-49.962-.77-63.018.713-.357.04-.744.095-.998.352-.29.292-.309.751-.309 1.162-.026 13.184-.508 31.7-.475 44.884 5.407.271 15.541 0 15.541 0z"/><path fill="#ffea07" d="M15.58 49.216c-.49 2.794-.927 5.597-1.369 8.398a100 100 0 0 1-1.739 8.683q-.168.695-.34 1.39-.043.178-.09.36c-.016.066-.066.264.012-.046.083-.33.014-.061-.002.01l-.21.827c-.206.816-.273 1.85.281 2.568.169.221.37.416.627.53.335.15.825.024 1.07-.24 2.268-2.442 4.672-4.75 7.033-7.102 2.271-2.258 4.452-4.598 6.398-7.146a49 49 0 0 0 3.235-4.83l-.969.647q8.16.286 16.326.176c4.582-.062 9.165-.173 13.75-.152 3.351.017 6.706.09 10.055.207.388.014.79-.338.97-.647.254-.435.427-1.005.37-1.512-.202-1.805-.23-3.633-.256-5.447a316 316 0 0 1 .01-7.722c.03-2.989.075-5.98.108-8.968.034-3.02.06-6.037.043-9.057-.014-2.708-.054-5.42-.187-8.126-.11-2.2-.257-4.42-.642-6.588-.228-1.282-.644-2.518-1.361-3.617-.226-.344-.584-.532-.938-.715a7 7 0 0 0-1.034-.46 5 5 0 0 0-.883-.177c-.967-.135-1.956-.161-2.93-.204A213 213 0 0 0 57.84.108 534 534 0 0 0 51.083.02a1015 1015 0 0 0-16.366.03q-4.305.042-8.611.127-4.08.077-8.16.204c-2.421.076-4.84.169-7.258.29-1.929.098-3.856.212-5.78.378q-.58.049-1.16.11c-.785.08-1.624.12-2.249.665C.354 2.818.48 4.508.475 5.88Q.472 7.225.461 8.57c-.028 3.899-.08 7.795-.135 11.695C.266 24.397.2 28.529.14 32.66.086 36.63.036 40.598.012 44.566q-.015 2.609-.01 5.218c0 .852.454 2.04 1.447 2.09 2.526.124 5.056.129 7.583.117a388 388 0 0 0 7.959-.119c.986-.026 1.385-1.358 1.342-2.159s-.425-2.118-1.447-2.09c-1.242.034-2.485.055-3.727.076-2.573.04-5.148.062-7.721.034-1.366-.015-2.73-.04-4.093-.11l1.447 2.09c-.015-5.891.061-11.785.144-17.677.088-6.203.195-12.406.267-18.61q.03-2.416.045-4.838l.014-2.303q0-.56.005-1.118c0-.202.007-.407.007-.609l-.022.386q.01-.091.027-.176-.157.547-.053.261-.235.45-.078.214l-.273.34c.061-.069.119-.121.195-.178l-.328.223c.13-.078.263-.128.41-.166l-.368.085c.77-.166 1.592-.192 2.374-.259Q6.412 5.182 7.67 5.1c2.029-.133 4.058-.23 6.089-.313 2.397-.1 4.794-.176 7.19-.24q3.906-.104 7.81-.167a1007 1007 0 0 1 15.888-.13c2.423 0 4.846.006 7.269.028q3.105.023 6.205.085c1.587.031 3.172.072 4.756.138.962.04 1.931.076 2.889.186q.19.02.375.052l-.373-.066c.582.104 1.143.413 1.656.699l-.627-.53q.069.12.135.24c.071.125.162.323-.13-.243l.061.119q.094.18.18.364.073.153.141.311c.08.195.154.613-.014-.116.026.118.06.235.085.351.11.483.193.97.266 1.46q.063.427.114.854l.024.207-.045-.4q.004.048.01.095l.05.485q.097 1.024.163 2.052c.219 3.336.262 6.684.274 10.026.014 3.85-.031 7.697-.081 11.546-.045 3.585-.102 7.17-.102 10.758 0 2.602-.01 5.217.211 7.81q.028.325.064.65l1.342-2.159q-8.16-.286-16.325-.176c-4.582.062-9.165.174-13.75.152a338 338 0 0 1-10.056-.207c-.39-.014-.789.338-.97.647a49 49 0 0 1-4.038 5.851l.273-.34c-2.843 3.52-6.176 6.584-9.36 9.784a127 127 0 0 0-2.993 3.105l1.98 2.86c.738-2.905 1.465-5.818 2.026-8.763.408-2.147.722-4.311 1.064-6.47q.428-2.708.903-5.409c.09-.516.023-1.15-.181-1.633-.147-.35-.463-.835-.858-.956-.978-.3-1.534.713-1.677 1.526z"/><path fill="#ea619e" d="M30.275 9.211c-3.25.243-6.26 1.933-8.455 4.301-2.578 2.782-4.212 6.358-4.727 10.11-.528 3.845-.034 7.87 1.454 11.457.667 1.612 1.548 3.18 2.672 4.518 1.319 1.574 2.863 2.81 4.668 3.792 1.61.875 3.371 1.479 5.158 1.869 1.855.406 3.753.625 5.651.532 3.796-.183 7.49-1.53 10.417-3.972 2.95-2.461 5.034-6.118 5.486-9.948.534-4.518-.986-8.952-3.512-12.658a24 24 0 0 0-7.982-7.376c-2.846-1.616-6.133-2.541-9.412-2.553q-1.158-.003-2.309.154c-1.114.152-1.582 1.455-1.527 2.459.03.58.142 1.227.506 1.7.258.337.665.744 1.14.68a17.1 17.1 0 0 1 5.278.119l-.422-.076c2.318.423 4.532 1.295 6.547 2.515l-.385-.235a21.9 21.9 0 0 1 4.891 4.094l-.33-.371a22.8 22.8 0 0 1 3.029 4.308l-.259-.483a18 18 0 0 1 1.314 3.106l-.086-.279.11.397q.089.35.163.704a14 14 0 0 1 .17 1.02q-.079-.704-.039-.333.017.181.031.362.029.39.03.78.001.209-.004.418-.001.104-.01.21-.02.37.024-.355c-.05.475-.102.948-.197 1.42l-.08.368c-.084.37.175-.654.028-.126q-.09.314-.192.625-.24.702-.559 1.377l.235-.495a14 14 0 0 1-1.705 2.699l.31-.385a14.7 14.7 0 0 1-3.152 2.896l.373-.253a16.1 16.1 0 0 1-5.395 2.33l.42-.097c-2.46.554-5.01.556-7.49.119l.423.076c-2.313-.42-4.594-1.187-6.61-2.406l.384.235a13.6 13.6 0 0 1-3.055-2.527l.33.37a15 15 0 0 1-1.927-2.779l.26.483a17.5 17.5 0 0 1-1.207-2.827q-.056-.17-.107-.34c.259.81.09.293.035.102a19 19 0 0 1-.492-2.34l-.05-.358-.02-.18.052.46-.01-.09q-.04-.406-.066-.816-.047-.817-.024-1.635c.002-.121.01-.243.014-.364l.01-.18c0-.039-.05.72-.024.372q.031-.407.078-.81.096-.785.264-1.56c.024-.11.16-.668.04-.192-.119.475.015-.048.045-.153q.125-.44.274-.872c.194-.569.425-1.125.68-1.67l-.236.495a16 16 0 0 1 1.95-3.112l-.31.385a14.2 14.2 0 0 1 3.057-2.83l-.373.253c1.145-.766 2.404-1.346 3.746-1.664l-.42.097a10 10 0 0 1 1.53-.233c1.12-.083 1.58-1.505 1.527-2.458-.031-.58-.143-1.227-.506-1.7-.271-.352-.654-.718-1.14-.68z"/><path fill="#ea619e" d="M24.003 29.896c1.357 3.098 3.998 5.645 7.244 6.681 3.102.992 6.566.535 9.295-1.257 1.651-1.084 3.062-2.483 4.013-4.232.29-.535.437-1.108.422-1.722-.014-.542-.163-1.255-.505-1.7-.269-.347-.659-.725-1.14-.68a1.39 1.39 0 0 0-1.105.737 10 10 0 0 1-.977 1.47l.311-.386a10.4 10.4 0 0 1-2.204 2.024l.373-.252a10.6 10.6 0 0 1-3.542 1.55l.42-.097a9.7 9.7 0 0 1-3.836.09l.422.076c-1.23-.23-2.399-.69-3.468-1.339l.385.236a10.7 10.7 0 0 1-2.333-1.943l.33.371a10.3 10.3 0 0 1-1.347-1.916l.26.483a10 10 0 0 1-.34-.707c-.188-.428-.514-.915-.977-1.089a1.18 1.18 0 0 0-1.216.274c-.813.815-.936 2.297-.487 3.324zm4.621-10.582v4.004c0 .556.18 1.238.506 1.7.237.335.686.722 1.14.68 1.157-.107 1.528-1.498 1.528-2.459v-4.004c0-.556-.18-1.238-.506-1.7-.238-.335-.687-.722-1.14-.68-1.158.107-1.528 1.498-1.528 2.459m5.231 0v4.31c0 .557.18 1.24.506 1.7.238.336.687.723 1.14.68 1.157-.107 1.528-1.498 1.528-2.458v-4.31c0-.557-.18-1.24-.506-1.7-.238-.336-.687-.723-1.14-.68-1.158.106-1.528 1.497-1.528 2.458"/></svg>