<svg xmlns="http://www.w3.org/2000/svg" width="89" height="80" fill="none" viewBox="0 0 89 80"><path fill="#ea619e" d="M81.1 7.413 10.204 7.01 7.788 70.978l63.645 2.013z"/><path fill="#ffea07" stroke="#ffea07" d="M23.035 58.329v-.002l.009-.033.027-.107.022-.089.003-.02.002-.004.027-.104.006-.024-.004.014-.008.023-.013.027.002-.034-.004-.053.031.008.003-.013h.001l.002-.008.002-.01q.086-.334.176-.66v-.002q.314-1.154.667-2.295a65 65 0 0 1 1.629-4.621 62 62 0 0 1 4.157-8.559 64 64 0 0 1 2.592-4.09l.69-1.008q.33-.476.686-.915l.011-.015c.327.136.63.318.995.52a59 59 0 0 1 7.932 5.21l.53.416a60.7 60.7 0 0 1 7.359 6.923v.001c.312.345.73.376 1.054.273.302-.096.566-.312.721-.562q3.566-5.718 7.136-11.435l7.136-11.437 4.005-6.418.075-.132c.161-.315.23-.677.222-1.022a2.06 2.06 0 0 0-.358-1.143h.001c-.236-.335-.597-.55-1-.542-.407.008-.76.239-.98.593l-7.136 11.437-7.136 11.435-3.184 5.1a62.6 62.6 0 0 0-15.896-12.166c-.307-.165-.756-.443-1.275-.527l-.228-.022c-.678-.027-1.184.306-1.555.682-.355.358-.657.83-.876 1.132v.001a65 65 0 0 0-2.83 4.239 68 68 0 0 0-4.709 9.213 67.4 67.4 0 0 0-3.55 11.147c-.08.348-.049.77.077 1.137.123.36.378.774.837.948h.002c.244.092.492.098.723.017a1.16 1.16 0 0 0 .506-.368c.126-.153.218-.332.286-.503h.037l.09-.39zm0 0-.035-.01.041-.065.005.011-.007.046-.003.013zm-.04-.17a1 1 0 0 1-.225.103m.225-.103a.4.4 0 0 1 .039.076 1 1 0 0 1-.06.078l-.204-.05m.225-.104a.62.62 0 0 0-.374-.236l.029-.11.413.1c.016.058.025.11.026.132l-.005.01a1 1 0 0 1-.066.09zm-.225.103-.22-.054zm10.785-23.011.18.44-.352-.293v.001l.352.292.002-.004z"/><path fill="#ffea07" stroke="#ffea07" d="M70.32 15.356c.273-.077.541-.062.783.038.234.097.412.262.541.438.252.343.366.792.366 1.17l.006 8.253.005 8.254c0 .286-.062.674-.224 1.01-.161.333-.486.73-1.043.743-.55.013-.9-.355-1.084-.683a2.2 2.2 0 0 1-.269-1.03l-.004-8.255-.005-5.86c-.392.222-.791.468-1.225.721a52 52 0 0 1-3.114 1.688v.001a53 53 0 0 1-6.59 2.756l-.078.026h-.024c-.198.05-.396.051-.585-.004a1.2 1.2 0 0 1-.515-.32c-.252-.261-.395-.611-.464-.894a2.4 2.4 0 0 1 .022-1.115c.095-.362.324-.834.828-1.008h.001a52 52 0 0 0 6.466-2.704h.001a52 52 0 0 0 3.055-1.657c.938-.55 1.967-1.237 3.15-1.568ZM15.004 11.7c.544-.013.897.354 1.082.677.187.328.28.726.27 1.051v.001a575 575 0 0 0 .864 54.297 186 186 0 0 1 11.396-3.102 189 189 0 0 1 23.735-4.088 186 186 0 0 1 23.977-1c.537.013.877.356 1.06.691.18.326.253.705.268.996l.002.117a2.3 2.3 0 0 1-.218.928c-.161.332-.5.748-1.074.734v.001a186 186 0 0 0-13.383.176A186 186 0 0 0 39.4 65.87a184 184 0 0 0-21.952 5.354l.003.035-.025-.027q-.491.152-.983.307c-.28.088-.557.081-.808-.026a1.25 1.25 0 0 1-.54-.46c-.236-.348-.336-.792-.358-1.124a576 576 0 0 1-1-56.489v-.002a2.6 2.6 0 0 1 .214-.987c.159-.344.483-.737 1.052-.75V11.7Z"/></svg>