<svg xmlns="http://www.w3.org/2000/svg" width="70" height="80" fill="none" viewBox="0 0 70 80"><g clip-path="url(#a)"><path fill="#ea619e" d="M30.608 7.022C3.79 8.19-22.271 83.386 35.895 79.88S67.958 5.395 30.608 7.022"/><path fill="#ffea07" stroke="#ffea07" d="m53.345 62.081-.001.001-.019.023-.008.01v.002c-.136.162-.274.32-.419.489a34 34 0 0 1-1.271 1.383l-.44.444a31 31 0 0 1-3.331 2.866l-.51.37q-.252.18-.501.347h-.002l-.154.103q-.023.017-.044.03l-.253.166a29 29 0 0 1-1.119.681v.001q-1.135.659-2.329 1.205v.001A28 28 0 0 1 37.733 72h-.002q-.557.135-1.3.272-.367.067-.721.124l-.712.104a33 33 0 0 1-3.048.26 41.7 41.7 0 0 1-6.99-.322h.002q-.387-.052-.76-.109l-.38-.06c-.16-.025-.18-.03-.29-.049a34 34 0 0 1-1.482-.304h-.001a27 27 0 0 1-2.706-.773 23 23 0 0 1-2.349-.952 21 21 0 0 1-1.049-.532l-.003-.002q-.252-.136-.506-.286l-.006-.003-.05-.03-.043-.025h-.001a9 9 0 0 0-.262-.161l-.002-.001-.447-.29a18.3 18.3 0 0 1-2.864-2.353l-.002-.003-.33-.34-.097-.11-.017-.018-.003-.003-.002-.003-.006-.006-.005-.006-.014-.013-.088-.098q-.315-.357-.61-.727a19 19 0 0 1-1.585-2.334h-.001l-.088-.156-.004-.01-.012-.026-.018-.05-.022-.056-.01-.02a.4.4 0 0 0-.038-.066l-.033-.04c-.046-.08-.071-.12-.098-.173a22 22 0 0 1-.747-1.579 28 28 0 0 1-.621-1.59l-.001-.002q-.139-.388-.263-.778l-.001-.004-.027-.082-.027-.083-.018-.057-.034-.11-.057-.191c-.516-1.736-.857-3.48-1.3-5.28l-.001-.002c-.08-.32-.163-.644-.262-.97v-.002l-.065-.184a2 2 0 0 0-.367-.615 1.1 1.1 0 0 0-.498-.32 1 1 0 0 0-.514-.007l-.17.056c-.43.181-.655.585-.757.923-.103.344-.118.744-.016 1.07.238.78.424 1.579.606 2.393.135.607.268 1.227.416 1.845l.153.617c.595 2.3 1.363 4.59 2.5 6.729 1.346 2.532 3.14 4.832 5.43 6.65l.53.406c2.681 1.984 5.83 3.275 9.072 4.007 2.247.507 4.54.782 6.833.883 2.288.1 4.59.051 6.874-.269 3.888-.545 7.658-1.805 11.03-3.787 3.098-1.819 5.84-4.159 8.163-6.847a41.5 41.5 0 0 0 5.613-8.41c1.371-2.71 2.501-5.534 3.323-8.453l.242-.891c.547-2.088.949-4.221 1.084-6.393l.03-.63q.011-.319.007-.637a2.1 2.1 0 0 0-.255-.948c-.173-.306-.507-.656-1.035-.644-.53.012-.844.38-1 .694a2.2 2.2 0 0 0-.211.945l.004.366-.001.221-.013.292v.005c-.002.05-.013.181-.018.255-.038.418-.072.822-.125 1.226a33 33 0 0 1-.608 3.292v.002q-.049.21-.102.421l-.001.002-.053.216-.012.045-.256.938a45 45 0 0 1-2.166 5.935v.001q-.224.506-.463 1.004l-.002.005-.056.117-.057.12v.002l-.003.002-.027.058-.008.016-.002.004-.257.51a46 46 0 0 1-.834 1.558l-.29.51a40 40 0 0 1-2.638 3.982l-.376.49a38 38 0 0 1-.382.481l-.184.226-.06.07m-.003.006.008-.01v.002l-.004.002m-.004.006.003-.004v-.002m-.003.006.004-.006m-38.164 7.729q.148.085.298.168a.6.6 0 0 0 .116-.208.9.9 0 0 0-.115-.33l-.046-.047zm31.556-1.7-.035.014-.027.012.274.415c.057-.038.15-.102.17-.114l.179-.125a.6.6 0 0 0-.053-.099.9.9 0 0 0-.413-.127 1 1 0 0 0-.095.024Zm-35.717-1.642.041.045.088.09a.84.84 0 0 0 .206-.36l-.292.268.295-.283a.4.4 0 0 0 .011-.063zm-2.306-3.667-.002.001-.258.094.016.036.097.173.051.085a.7.7 0 0 0 .143-.092.5.5 0 0 0 .1-.165l-.188.11.19-.111a.5.5 0 0 0 .03-.114l.001-.083zm44.85-.858a.5.5 0 0 0-.148.077l.373.309.187-.227.037-.048a.6.6 0 0 0-.15-.112 1 1 0 0 0-.096-.011l.192.157-.194-.157a1 1 0 0 0-.202.012Zm9.09-21.496a1 1 0 0 0-.253.218l.415.038.007-.09.005-.131a.7.7 0 0 0-.174-.035ZM6.34 25.579q.06.056.114.14m-.115-.14.094.028q.007.02.01.034l.01.07v.007m-.114-.14-.317-.095.005-.018.258.068zm.115.14v.004m0-.004v.004m0 0q-.004.01-.01.018c0 .002-.005.004-.007.007m.018-.025v.028l-.018-.003m0 0-.467-.056-.014.059.384.093a1 1 0 0 0 .097-.096Zm1.908-6.59-.12.256c.208.048.452.005.518-.038l.008-.01zm0 0 .414.2c.024-.023.051-.048.06-.06.008-.008.018-.024.022-.03l-.443-.221c.087-.177-.047.1-.053.11Zm49.1-3.778-.401.136a.9.9 0 0 1 .178-.355l.077-.034q.075.126.147.253Zm0 0-.399.228.004.041c.008.036.018.064.02.07l.004.01.433-.24zM5.44 32.169l.003-.012-.484-.035-.004.079-.012.284a.5.5 0 0 0 .1.017.9.9 0 0 0 .353-.239 1 1 0 0 0 .044-.093Zm.894-6.32a.8.8 0 0 1-.41.032v.006a.7.7 0 0 0 .343.017q.034-.024.067-.056Zm.11-.05a1 1 0 0 1-.097.045l.058.014.021-.025zm.053-.16.004-.011-.002-.001zm-1.042 6.587q-.028.52-.044 1.032c-.043 1.491.01 2.987.154 4.474l.086.889-.207-.1q-.038.106-.089.204c-.162.31-.485.673-1.003.686-.54.012-.867-.336-1.036-.652a2.5 2.5 0 0 1-.252-.898v-.001a38 38 0 0 1-.151-2.294 38.46 38.46 0 0 1 4.023-18.465c2.783-5.563 7.121-10.448 12.65-13.589C24.975.45 31.428-.949 37.641-.378c3.08.281 6.134 1.03 8.95 2.316a25.7 25.7 0 0 1 7.77 5.505c4.584 4.735 7.246 10.823 8.748 17.037.073.3.079.679-.017 1.028-.095.349-.317.748-.762.937a1 1 0 0 1-.68.049 1.13 1.13 0 0 1-.5-.31 1.9 1.9 0 0 1-.444-.838 49 49 0 0 0-.275-1.091l-.3-1.082-.196-.654-.008-.023-.025-.078v-.001l-.031-.1-.028-.084v-.002q-.179-.553-.373-1.1c-.245-.695-.5-1.36-.794-2.063a36 36 0 0 0-.946-2.078l-.258-.507-.264-.502-.068-.122-.057-.104-.004-.006-.046-.081-.02-.035-.003-.005-.26-.452a29 29 0 0 0-2.54-3.652 22 22 0 0 0-1.344-1.508h-.001a26 26 0 0 0-1.655-1.552C46.837 4.724 41.174 2.8 35.33 2.731a29.4 29.4 0 0 0-8.622 1.18c-2.758.813-5.516 2.066-7.815 3.619h.001a28 28 0 0 0-3.429 2.74 31 31 0 0 0-2.325 2.42l.001.001c-.261.307-.364.43-.623.757a32 32 0 0 0-2.193 3.138l-.283.467a33 33 0 0 0-1.029 1.878l-.083.166-.05.1-.003.007-.005.012-.016.033-.066.136q-.116.242-.232.495-.213.471-.414.94a35 35 0 0 0-1.46 4.14v.002a30 30 0 0 0-.172.62q0 .008-.003.014l-.009.032-.011.044v.003c-.004.016-.01.047-.017.072l-.022.09-.011.038-.004.01q-.132.54-.248 1.08a35 35 0 0 0-.392 2.118q-.17 1.11-.272 2.23l-.046.56-.01.136-.01.15-.002-.001-.002.043z"/><path fill="#ffea07" stroke="#ffea07" d="M64.747 11.39c.216-.071.45-.066.681.019.46.17.693.558.8.9a2.4 2.4 0 0 1 .099.76l-.016.225-1.62 14.391.002.001c-.042.378-.231.778-.549 1.029a1.08 1.08 0 0 1-.621.238 1.13 1.13 0 0 1-.7-.218l-6.184-4.324-1.533-1.073-1.533-1.07c-.925-.647-1.727-1.26-2.695-1.593l-.544-.187.069-.135a1.5 1.5 0 0 1-.303-.5 2.25 2.25 0 0 1-.11-1.05c.044-.333.166-.7.416-.966.13-.137.3-.252.51-.305a1.1 1.1 0 0 1 .636.034c1.196.412 2.22 1.175 3.15 1.825q1.559 1.093 3.117 2.18l4.662 3.262.564-5.013.81-7.197c.033-.291.164-.64.397-.902a1.14 1.14 0 0 1 .495-.332ZM1.668 58.769a.9.9 0 0 0 .334-.236 1 1 0 0 0 .042-.092l.016-.06.005-.022v-.003l-.498-.035c.013-.172-.015.249-.015.289l-.007.142q.065.016.123.017Zm.384-.147v.014q-.047.87-.05 1.74a39 39 0 0 0 .141 3.442l.015.15c.028.306-.043.682-.206.994-.162.31-.484.673-1.002.686H.949c-.538.012-.867-.335-1.036-.652a2.4 2.4 0 0 1-.252-.901v-.001c-.465-5.15.107-10.357 1.613-15.305a1.5 1.5 0 0 1 .483-.692c.213-.17.592-.352.997-.169l.081.041v.001l6.035 3.458 6.034 3.459c.733.422.887 1.217.805 1.855-.04.312-.198.725-.49.986l-.002-.001c-.123.11-.29.205-.466.255a.9.9 0 0 1-.693-.068l-6.031-3.458q-2.445-1.4-4.889-2.802a32 32 0 0 0-.24.994l-.185.872a37 37 0 0 0-.53 3.504q-.046.434-.08.866v.002q-.018.205-.032.403v.009l-.001.01-.006.101-.012.195z"/><mask id="b" width="30" height="37" x="17.248" y="20.456" fill="#000" maskUnits="userSpaceOnUse"><path fill="#fff" d="M17.248 20.456h30v37h-30z"/><path d="M33.995 54.143a32.4 32.4 0 0 1-7.006-6.935 35 35 0 0 1-2.034-3.074q-.161-.278-.318-.554l-.072-.13c.01.017.06.107.005.007l-.163-.302a33.4 33.4 0 0 1-2.416-5.789q-.048-.166-.097-.327a31 31 0 0 1-.92-4.245q-.041-.288-.08-.58c-.01-.08-.035-.293-.012-.093l-.039-.36c-.046-.464-.081-.93-.094-1.397a12 12 0 0 1 0-.671q.002-.113.007-.222c0-.005.008-.19 0-.075-.007.114.006-.068.006-.075q.008-.111.02-.222a8 8 0 0 1 .18-1.063 7 7 0 0 1 .259-.761l.063-.155c.003-.008.064-.145.02-.053-.043.093.021-.042.026-.05.028-.054.06-.107.087-.162.367-.643.815-1.165 1.45-1.584a3.57 3.57 0 0 1 2.042-.604c.387.01.568.045.927.165a4 4 0 0 1 .679.302c.082.044.013.007-.003-.003l.141.09c.295.197.564.427.81.676.015.015.138.142.069.07-.062-.065.036.04.038.043l.17.2q.18.223.343.458.152.221.289.45c.02.034.136.232.095.16-.051-.093.02.037.025.047l.085.16q.255.5.456 1.025.103.27.194.541c.067.198-.035-.132.023.068q.06.2.116.401.199.72.353 1.45.154.732.256 1.47.026.177.047.355c.002.027.015.132 0 0l.025.236q.038.386.064.774.046.745.046 1.49c0 .422.246 1.11.779 1.098s.715-.721.722-1.133q.008-.303.023-.606c-.012.257.008-.08.01-.108l.019-.202a14 14 0 0 1 .292-1.806q.022-.099.048-.198a11 11 0 0 1 .433-1.265c.162-.394.205-.484.418-.856.2-.35.427-.681.67-1.003.342-.452.956-1.01 1.512-1.375a7.5 7.5 0 0 1 1.77-.806 5.7 5.7 0 0 1 1.996-.215 4.75 4.75 0 0 1 1.895.564c.195.105.443.277.687.477a5 5 0 0 1 .504.474c-.11-.117.113.13.131.155a7 7 0 0 1 .694 1.01c-.02-.034-.082-.16.005.01a9 9 0 0 1 .438.981l.093.255c.01.032.105.32.028.077q.153.495.256 1.006.093.46.151.928c-.036-.292 0 .008.003.055q.015.166.025.332.023.333.034.666.017.611-.01 1.218c0 .012-.021.374-.006.145q-.011.165-.025.331-.03.331-.072.662c-.413 3.249-1.714 6.3-3.538 9.12-2.077 3.212-4.718 5.992-7.474 8.67-.385.371-.454 1.06-.23 1.532.178.379.637.763 1.037.374 5.317-5.166 10.415-11.122 11.59-18.59.52-3.305.344-7.118-1.654-9.967-.869-1.238-2.16-2.256-3.686-2.576-1.527-.32-3.148-.055-4.54.662-3.683 1.896-4.933 6.116-5.025 9.911l1.503-.035c0-2.2-.297-4.416-.906-6.538-.49-1.699-1.225-3.328-2.46-4.643-1.132-1.206-2.774-1.904-4.449-1.528-1.813.407-3.171 1.854-3.883 3.474-.856 1.946-.805 4.162-.566 6.226a33 33 0 0 0 1.042 5.315c.994 3.481 2.52 6.8 4.54 9.83a34.4 34.4 0 0 0 7.243 7.875q.527.416 1.069.809c.42.306.87.014 1.017-.425s.135-1.195-.308-1.52z"/></mask><path fill="#ffea07" d="M33.995 54.143a32.4 32.4 0 0 1-7.006-6.935 35 35 0 0 1-2.034-3.074q-.161-.278-.318-.554l-.072-.13c.01.017.06.107.005.007l-.163-.302a33.4 33.4 0 0 1-2.416-5.789q-.048-.166-.097-.327a31 31 0 0 1-.92-4.245q-.041-.288-.08-.58c-.01-.08-.035-.293-.012-.093l-.039-.36c-.046-.464-.081-.93-.094-1.397a12 12 0 0 1 0-.671q.002-.113.007-.222c0-.005.008-.19 0-.075-.007.114.006-.068.006-.075q.008-.111.02-.222a8 8 0 0 1 .18-1.063 7 7 0 0 1 .259-.761l.063-.155c.003-.008.064-.145.02-.053-.043.093.021-.042.026-.05.028-.054.06-.107.087-.162.367-.643.815-1.165 1.45-1.584a3.57 3.57 0 0 1 2.042-.604c.387.01.568.045.927.165a4 4 0 0 1 .679.302c.082.044.013.007-.003-.003l.141.09c.295.197.564.427.81.676.015.015.138.142.069.07-.062-.065.036.04.038.043l.17.2q.18.223.343.458.152.221.289.45c.02.034.136.232.095.16-.051-.093.02.037.025.047l.085.16q.255.5.456 1.025.103.27.194.541c.067.198-.035-.132.023.068q.06.2.116.401.199.72.353 1.45.154.732.256 1.47.026.177.047.355c.002.027.015.132 0 0l.025.236q.038.386.064.774.046.745.046 1.49c0 .422.246 1.11.779 1.098s.715-.721.722-1.133q.008-.303.023-.606c-.012.257.008-.08.01-.108l.019-.202a14 14 0 0 1 .292-1.806q.022-.099.048-.198a11 11 0 0 1 .433-1.265c.162-.394.205-.484.418-.856.2-.35.427-.681.67-1.003.342-.452.956-1.01 1.512-1.375a7.5 7.5 0 0 1 1.77-.806 5.7 5.7 0 0 1 1.996-.215 4.75 4.75 0 0 1 1.895.564c.195.105.443.277.687.477a5 5 0 0 1 .504.474c-.11-.117.113.13.131.155a7 7 0 0 1 .694 1.01c-.02-.034-.082-.16.005.01a9 9 0 0 1 .438.981l.093.255c.01.032.105.32.028.077q.153.495.256 1.006.093.46.151.928c-.036-.292 0 .008.003.055q.015.166.025.332.023.333.034.666.017.611-.01 1.218c0 .012-.021.374-.006.145q-.011.165-.025.331-.03.331-.072.662c-.413 3.249-1.714 6.3-3.538 9.12-2.077 3.212-4.718 5.992-7.474 8.67-.385.371-.454 1.06-.23 1.532.178.379.637.763 1.037.374 5.317-5.166 10.415-11.122 11.59-18.59.52-3.305.344-7.118-1.654-9.967-.869-1.238-2.16-2.256-3.686-2.576-1.527-.32-3.148-.055-4.54.662-3.683 1.896-4.933 6.116-5.025 9.911l1.503-.035c0-2.2-.297-4.416-.906-6.538-.49-1.699-1.225-3.328-2.46-4.643-1.132-1.206-2.774-1.904-4.449-1.528-1.813.407-3.171 1.854-3.883 3.474-.856 1.946-.805 4.162-.566 6.226a33 33 0 0 0 1.042 5.315c.994 3.481 2.52 6.8 4.54 9.83a34.4 34.4 0 0 0 7.243 7.875q.527.416 1.069.809c.42.306.87.014 1.017-.425s.135-1.195-.308-1.52z"/><path fill="#ffea07" d="m33.995 54.143-.59.808.264.192h.326zm-7.006-6.935.802-.596zm-1.394-2.026-.844.536v.001zm-.64-1.048-.864.503.002.005zm-.318-.554-.878.477.004.009.005.008zm-.072-.13.863-.506-1.752.962zm-.158-.295-.883.47.002.005zm-1.996-4.521-.943.333v.001zm-.387-1.158.954-.302-1.908.6zm-.033-.11-.957.29.003.008zm-.097-.327-.96.28.002.008.003.009zm-.172-.611-.966.258.002.007zm-.54-2.38-.984.18v.002zm-.208-1.254.99-.139v-.006zm-.08-.58-.991.126v.003zm-.012-.093-.994.114 1.988-.22zm-.039-.36-.995.1.001.007zm-.094-1.397-1 .023v.004zm0-.671 1 .034v-.034zm.007-.222 1 .035v-.035zm.006-.15-.998-.068-.002.034v.034zm.02-.222-.995-.105v.003zm.161-.983h1l-1.977-.21zm.018-.08-.97-.242v.001zm.039-.133-.958-.288-.002.007zm.22-.628.926.378.003-.007.002-.007zm.064-.155.931.364.008-.02.007-.02zm.046-.102.825.564.036-.052.029-.056zm.087-.163-.869-.494-.01.019-.01.019zm1.45-1.584-.55-.835zm2.042-.604.026-1h-.003zm.927.165.318-.948h-.001zm.459.187-.439.899.013.006zm.22.115-.487.873.006.004zm.138.087.556-.831-.011-.008zm.81.676-.713.702.007.007.008.007zm.069.07-.726.688.003.003zm.038.043.767-.642-.032-.04-.037-.035zm.17.2.779-.628-.006-.007-.007-.008zm.343.458-.826.565.005.006zm.289.45.863-.506-.004-.007-.004-.006zm.095.16-.875.484.005.008zm.025.047-.89.456.005.009.005.008zm.085.16.892-.452-.005-.011-.006-.011zm.456 1.025-.935.356.002.003zm.194.541-.947.32zm.023.068.962-.274-.002-.01zm.116.401-.967.258.003.01zm.61 2.92.991-.13-.001-.01zm.071.592-.995.095v.004zm.064.773.998-.062v-.007zm1.547 1.455-1-.025v.006zm.023-.606 1 .05-1.998-.101zm.01-.108.996.093.001-.008v-.009zm.019-.202-.996-.095v.01l-.002.01zm.169-1.21.983.182v-.005zm.123-.596-.973-.231-.001.003zm.048-.198.97.246-1.934-.512zm.036-.122-.962-.274-.01.036-.007.037zm.397-1.143.924.382.002-.003zm.418-.856-.868-.496zm.67-1.003.799.603zm1.512-1.375-.548-.837zm3.766-1.02.07-.998h-.001zm1.895.563.474-.88zm.687.477.64-.769-.006-.004zm.353.32-.706.708.008.008zm.151.154-.729.685 1.462-1.365zm.131.155-.812.584.02.028.022.026zm.558.784.852-.525zm.136.227-.862.505 1.727-1.008zm.274.573-.92.393.001.002zm.17.417.94-.34-.004-.01-.003-.009zm.092.255.953-.301-.006-.02-.007-.02zm.028.077.953-.303-1.908.6zm.256 1.006.98-.197v-.003zm.151.928-.992.122 1.985-.244zm.003.055-.999.054.001.02.002.019zm.025.332.998-.07zm.034.666 1-.031-.001-.004zm-.01 1.218-1-.044v.044zm-.006.145.998.066-1.995-.136zm-.025.331.995.093v-.002zm-.072.662-.992-.127zm-3.538 9.12.84.544zm-7.474 8.67.695.718.002-.001zm-.23 1.532-.905.427zm1.037.374-.697-.717h-.001zm11.59-18.59.989.155zm-1.654-9.967.819-.575zm-8.225-1.914.457.889zm-5.026 9.911-1-.024-.025 1.048 1.048-.024zm1.503-.035.024 1 .976-.023v-.977zm-.906-6.538.96-.276zm-2.46-4.643.73-.685zm-4.449-1.528.219.976zm-3.883 3.474-.916-.403zm-.566 6.226-.994.115zm1.042 5.315.962-.274v-.002zm4.54 9.83-.833.554zm7.243 7.875-.62.784.001.001zm1.069.809.59-.808-.003-.002zm.71-1.944.59-.807-.264-.193h-.327zm-.008 0 .588-.809a31.4 31.4 0 0 1-6.791-6.722l-.803.596-.803.596a33.4 33.4 0 0 0 7.22 7.147zm-7.006-6.935.802-.596a34 34 0 0 1-1.353-1.968l-.843.538-.843.537q.679 1.066 1.434 2.085zm-1.394-2.026.844-.537q-.319-.504-.623-1.02l-.861.509-.862.508q.318.54.658 1.076zm-.64-1.048.864-.504q-.156-.269-.313-.545l-.869.495-.87.494q.158.277.324.563zm-.318-.554.879-.478-.044-.078-.017-.03-.89.456-.89.456.056.102.027.05zm-.072-.13-.862.506.014.025.003.007.003.005.024.04a1 1 0 0 0 .178.212c.077.063.415.226.691.259.5-.146.948-.751.98-.995a2 2 0 0 0-.035-.264 2 2 0 0 0-.048-.139l-.017-.037-.01-.02-.01-.018-.025-.048-.88.474-.88.475.014.028.005.008.001.002-.001-.002-.005-.01-.01-.02a1 1 0 0 1-.066-.176 2 2 0 0 1-.034-.264c.032-.243.48-.848.98-.994.275.033.614.195.69.258.035.032.085.086.102.106l.036.046c.023.032.04.058.04.06.01.014.016.026.017.027l.007.013-.014-.026-.025-.044zm.005.007.88-.474-.083-.155-.08-.147-.88.474-.88.475.083.155.08.147zm-.163-.302.882-.47a32 32 0 0 1-1.935-4.386l-.943.335-.942.334a34 34 0 0 0 2.055 4.657zm-1.996-4.521.943-.333q-.201-.564-.375-1.122l-.955.297-.954.297q.19.604.398 1.194zm-.387-1.158-.953.302c.006.018.024.077.037.11l.015.04c.004.008.013.03.027.057a1 1 0 0 0 .162.235c.115.105.616.312 1.005.28.36-.186.678-.65.716-.81a2 2 0 0 0 .01-.216l-.009-.078a1 1 0 0 0-.017-.09l-.01-.036q0-.008-.003-.012L23 37.24l-.009-.029-.044-.143-.955.298-.954.298.042.137.006.02-.001-.005-.003-.01-.01-.035c0-.002-.01-.04-.016-.09l-.008-.078a2 2 0 0 1 .01-.217c.037-.158.356-.622.715-.81.39-.03.89.176 1.005.281.044.052.106.136.125.168a2 2 0 0 1 .064.124l.015.04c.011.029.018.051-.003-.015zm-.033-.11.957-.29c-.02-.066-.07-.239-.1-.333l-.954.296-.955.297c.037.12.048.166.095.32zm-.097-.327.96-.28a36 36 0 0 1-.168-.597l-.964.266-.964.265c.056.204.114.416.176.626zm-.172-.611.966-.258a30 30 0 0 1-.523-2.305l-.983.182-.984.183q.232 1.242.558 2.456zm-.54-2.38.983-.182a28 28 0 0 1-.2-1.21l-.99.139-.991.139c.061.439.136.87.214 1.294zm-.208-1.254.99-.145q-.04-.273-.078-.566l-.991.13-.992.13c.026.194.052.396.082.597zm-.08-.58.993-.128-.02-.15-.003-.03-.002-.014-.003-.018-.003-.02-.012-.052a1 1 0 0 0-.059-.172 2 2 0 0 0-.153-.243c-.15-.142-.705-.348-1.092-.292-.266.142-.55.471-.605.595a2 2 0 0 0-.052.201l-.008.082c-.004.056-.002.1-.002.103l.002.029.003.032.01.098.994-.114.993-.115-.007-.064v.008l.002.02.002.03c0 .002.002.047-.002.102l-.008.082a2 2 0 0 1-.052.202c-.055.123-.338.452-.604.594-.388.056-.943-.15-1.093-.292a2 2 0 0 1-.153-.242l-.037-.095a1 1 0 0 1-.033-.13l-.004-.02-.002-.016-.002-.01.002.012.019.153zm-.012-.093.994-.107-.019-.18-.02-.179-.994.106-.994.107.02.18.018.179zm-.039-.36.996-.098c-.045-.45-.079-.892-.09-1.326l-1 .027-1 .027c.014.499.052.991.1 1.47zm-.094-1.397 1-.023a11 11 0 0 1 0-.614l-1-.034-1-.035c-.008.254-.005.498 0 .729zm0-.671h1c0-.054.003-.068.007-.187l-1-.035-.999-.036c0 .026-.008.162-.008.258zm.007-.222h1c0 .014 0 .021.003-.053a2 2 0 0 0-.005-.168c-.001-.01-.008-.082-.034-.17-.007-.025-.046-.168-.156-.316a1.001 1.001 0 0 0-1.76.3 1 1 0 0 0-.028.113l-.007.043-.006.058-.004.051.997.067.998.066v-.008.012l-.005.034q0 .012-.006.041a1 1 0 0 1-.212.454 1 1 0 0 1-1.575-.042 1 1 0 0 1-.157-.317c-.025-.087-.032-.159-.033-.169a1 1 0 0 1-.006-.093v-.02.005l-.002.045v.02l-.001.01v.037zm0-.075-.997-.067-.003.033v.012l-.001.017v.018l-.001.022.002.064c.001.02.008.08.014.12.024.098.324.57.731.786.6-.03 1.142-.51 1.194-.63a1 1 0 0 0 .056-.265l.001-.01.002-.022.003-.056.002-.026v-.014l.002-.013v-.044h-2c0-.043.002-.056-.002.014l.001-.015.003-.022.012-.068c.005-.023.023-.09.038-.134.052-.12.594-.6 1.194-.63.407.216.707.688.73.787.007.039.014.099.015.12l.002.063v.022l-.001.017v.016-.001l.001-.027zm.006-.075.997.068c.004-.054.01-.107.018-.188l-.995-.102-.995-.102c-.007.069-.017.16-.023.256zm.02-.222.994.104q.03-.295.084-.58l-.983-.183-.983-.184q-.07.375-.107.738zm.095-.659.983.183c.017-.094.038-.188.061-.297l-.978-.21-.977-.21c-.023.105-.049.225-.072.35zm.066-.324h-1l.004.088c.004.037.02.13.035.186.031.093.167.333.288.465.236.16.775.255 1.035.193.143-.069.338-.218.398-.282a1 1 0 0 0 .16-.257c.016-.038.026-.068.029-.076l.009-.029.01-.035.005-.02.006-.026.02-.083.003-.016.008-.038.005-.037.006-.043c0-.012.005-.058.004-.117a1 1 0 0 0-.02-.179 2 2 0 0 0-.067-.209 1.8 1.8 0 0 0-.3-.383 1.7 1.7 0 0 0-.758-.199 1.8 1.8 0 0 0-.47.201 2 2 0 0 0-.163.162 1 1 0 0 0-.184.356l-.005.017-.01.039.97.242.97.242.002-.007-.003.013-.005.016a1 1 0 0 1-.11.24c-.013.022-.047.07-.068.096-.03.036-.111.118-.164.162a1.8 1.8 0 0 1-.47.2 1.7 1.7 0 0 1-.757-.199 1.8 1.8 0 0 1-.3-.382 2 2 0 0 1-.068-.21l-.016-.111a2 2 0 0 1-.002-.143 1 1 0 0 1 .018-.142l.002-.008q0-.003 0 0l-.013.056-.002.007v.003-.001l.002-.008.01-.034a1 1 0 0 1 .037-.104l.02-.043.04-.073c.017-.03.067-.1.1-.141a1.8 1.8 0 0 1 .398-.282c.26-.062.799.033 1.035.194.12.131.257.372.288.465.014.055.03.149.034.186l.004.088zm.018-.08-.97-.24a2 2 0 0 0-.029.16 1 1 0 0 0 .1.542 1 1 0 0 0 1.493.356c.179-.133.265-.296.265-.296.041-.07.064-.13.066-.134l.022-.06.006-.02c.008-.024.016-.055.02-.07l.018-.065.007-.024-.96-.281-.959-.282-.03.111-.006.02.005-.016c0-.002.008-.027.02-.057.002-.004.025-.064.066-.133 0 0 .087-.164.265-.297a1 1 0 0 1 1.593.898l-.01.073c-.007.043-.017.08-.011.055zm.039-.133.957.29a6 6 0 0 1 .189-.54l-.926-.378-.926-.378a8 8 0 0 0-.252.718zm.22-.628.931.364.021-.05.043-.105-.931-.364-.931-.364-.021.05c-.01.023-.027.062-.043.104zm.064-.155.946.324c-.017.049-.04.1-.019.052l.019-.043.011-.028.014-.034.021-.063a1 1 0 0 0 .032-.135c.003-.02.023-.14.003-.29a1 1 0 0 0-1.793-.465c-.03.041-.05.075-.056.084l-.028.05-.016.031-.018.038.905.427.904.426.005-.011-.002.005-.034.062c-.006.009-.026.043-.056.084a1 1 0 0 1-.278.253 1 1 0 0 1-1.515-.718c-.02-.151 0-.27.003-.29.012-.072.03-.127.032-.135a1 1 0 0 1 .03-.086q.003-.006 0 .002l-.016.036-.01.021q0 .007-.006.016l-.024.063zm.02-.053-.904-.426-.013.027-.005.011-.005.012-.008.02-.013.03-.015.04c-.001.005-.023.068-.037.15-.009.06-.01.265.014.406.175.367.906.76 1.343.691a1.8 1.8 0 0 0 .372-.26 1 1 0 0 0 .128-.178l.018-.032.007-.015.005-.01.008-.016.016-.033.001-.003-.019.035-.042.066-.825-.564-.825-.565a1 1 0 0 0-.084.146l-.021.044-.007.013.001-.002.007-.013a1 1 0 0 1 .145-.21c.046-.048.226-.187.372-.26.437-.07 1.168.324 1.343.691.024.142.023.346.014.407-.014.082-.036.144-.037.149l-.015.04-.012.031-.008.019-.005.009q0 .002 0 0l.011-.023zm.026-.05.89.457.03-.056.057-.106-.89-.457-.89-.456-.03.056-.056.106zm.087-.162.87.495c.301-.53.648-.926 1.13-1.245l-.55-.834-.55-.835c-.788.52-1.338 1.168-1.769 1.925zm1.45-1.584.55.835a2.57 2.57 0 0 1 1.468-.44l.024-.999.023-1a4.57 4.57 0 0 0-2.615.769zm2.042-.604-.026 1c.282.007.366.023.636.113l.317-.948.317-.949a3.6 3.6 0 0 0-1.218-.216zm.927.165-.318.948q.175.059.339.138l.438-.9.437-.898a5 5 0 0 0-.578-.236zm.459.187-.426.905a3 3 0 0 1 .16.083l.486-.873.486-.874a5 5 0 0 0-.28-.146zm.22.115-.48.877.033.018-.002-.001-.006-.003-.004-.002-.01-.006-.057-.037c-.362-1.2.866-1.778.994-1.728l.035.017.008.004.005.003.004.002.001.001c-.024-.013-.007-.005.02.014l-.544.838-.544.839a1 1 0 0 0 .096.057l.01.005.003.002.006.003.042.021c.128.05 1.356-.527.995-1.727l-.058-.037-.01-.006-.004-.002-.01-.006-.004-.002-.039-.021zm-.003-.003-.544.839.08.051.06.039.545-.84.545-.838-.081-.051-.06-.038zm.141.09-.556.831q.345.232.653.547l.713-.702.712-.702a6.2 6.2 0 0 0-.966-.805zm.81.676-.698.716.048.05.042.042.06.054.066.05.1.061c.057.029.25.094.388.116.344-.031.943-.486 1.077-.885a1.8 1.8 0 0 0-.082-.524c-.044-.097-.096-.166-.098-.17l-.048-.062-.024-.027-.04-.042-.722.691-.723.691.01.01.002.003h.001v.001l-.002-.002-.01-.01a1 1 0 0 1-.071-.09 1 1 0 0 1-.098-.17 1.8 1.8 0 0 1-.082-.523c.134-.399.734-.853 1.078-.884.138.021.33.086.388.115.031.017.08.048.1.06a1 1 0 0 1 .125.105c.01.01.015.015-.005-.006l-.085-.086zm.069.07.726-.688-.084-.082a1 1 0 0 0-.125-.094 1 1 0 0 0-.258-.117 1.8 1.8 0 0 0-.504-.015c-.233.086-.605.417-.72.644a1.8 1.8 0 0 0-.036.53 1 1 0 0 0 .208.437l.015.017.038.042s.054.059.08.085l.698-.716.698-.717c.024.024.027.028-.006-.008l-.006-.007.004.005.01.011.014.017a1 1 0 0 1 .207.436c.015.098.006.366-.036.53-.114.227-.486.558-.72.643a1.8 1.8 0 0 1-.503-.014c-.144-.042-.244-.108-.258-.117a1 1 0 0 1-.125-.094l-.032-.03-.011-.01-.008-.009-.002-.002.002.003.008.008zm.038.043-.767.641.09.107.08.093.766-.642.767-.642-.169-.2zm.17.2-.78.626q.162.202.297.397l.825-.565.826-.564a8 8 0 0 0-.39-.521zm.343.458-.821.572q.127.184.255.396l.855-.518.855-.519a9 9 0 0 0-.324-.502zm.289.45-.863.505.108.183.02.031a1 1 0 0 0 .099.13c.013.014.06.066.131.12.041.03.152.096.225.13.128.043.486.07.706.023.24-.12.553-.464.632-.647.028-.114.045-.299.043-.368a1 1 0 0 0-.12-.41l-.006-.013-.01-.018-.87.493-.87.493c.012.023-.003-.003-.017-.032 0 0-.018-.035-.035-.08l-.026-.073a1 1 0 0 1-.041-.224c-.003-.07.015-.254.043-.367.078-.183.391-.527.632-.648.22-.048.578-.02.706.023.072.034.184.1.224.13a1 1 0 0 1 .23.248l.012.018.002.004-.007-.011-.016-.028-.07-.119zm.095.16.874-.486-.037-.065-.012-.02a1 1 0 0 0-.064-.089 1.9 1.9 0 0 0-.673-.368c-.777.252-1.096 1.136-1.068 1.27a2 2 0 0 0 .055.146l.04.078.02.037.89-.456.89-.457-.047-.087-.007-.012q0-.003 0 0l.001.001.003.007.023.045.015.034.04.112c.028.134-.291 1.018-1.069 1.27a1.9 1.9 0 0 1-.672-.368l-.064-.088-.013-.021c-.012-.02-.023-.04 0 .001zm.025.047-.88.473.037.071.047.089.88-.474.882-.473-.038-.072-.047-.088zm.085.16-.893.45q.235.462.414.931l.935-.356.934-.356q-.222-.58-.498-1.12zm.456 1.025-.933.36q.094.244.18.501l.947-.32.948-.32a15 15 0 0 0-.209-.58zm.194.541-.947.32.013.038.047.12a1 1 0 0 0 .42.46c.047.024.155.07.216.09.076.018.242.037.332.036.099-.01.293-.061.386-.101a2 2 0 0 0 .287-.213c.047-.054.121-.16.15-.21.022-.043.056-.123.07-.16l.03-.113a2 2 0 0 0 .018-.142v-.112a1 1 0 0 0-.015-.13l-.004-.022-.025-.098-.006-.02-.012-.038-.004-.012-.006-.017-.005-.015a1 1 0 0 0-.048-.11l-.012-.025-.046-.076-.046-.065a2 2 0 0 0-.09-.1 2 2 0 0 0-.212-.158 1.8 1.8 0 0 0-.529-.125c-.188.026-.52.172-.656.283a1.8 1.8 0 0 0-.236.36 2 2 0 0 0-.053.2l-.012.112.002.114.008.076a1 1 0 0 0 .02.096q0 .008.003.014l.004.018.004.013.018.063.96-.283.959-.283-.012-.042.002.009.008.034.013.069a1 1 0 0 1 .01.19c-.002.024-.007.08-.012.111a2 2 0 0 1-.053.2c-.035.082-.15.265-.236.36a1.75 1.75 0 0 1-.656.284 1.8 1.8 0 0 1-.529-.125 2 2 0 0 1-.211-.158 2 2 0 0 1-.09-.1 2 2 0 0 1-.075-.11 1 1 0 0 1-.077-.164l-.004-.012-.004-.011-.001-.003.002.006q.002.007 0 0l-.002-.008-.006-.023-.005-.025a1 1 0 0 1 .03-.516c.013-.037.047-.116.068-.159.03-.05.104-.156.15-.21a2 2 0 0 1 .288-.213 1.8 1.8 0 0 1 .386-.101c.09-.002.256.018.332.037.06.02.168.065.215.09.037.021.102.065.13.086l.08.07a1 1 0 0 1 .235.362l-.003-.008-.008-.025zm.023.068-.961.274c.047.167.077.258.11.385l.967-.258.966-.257c-.038-.142-.09-.316-.12-.419zm.116.401-.964.268q.191.689.339 1.388l.978-.206.979-.206a25 25 0 0 0-.369-1.511zm.353 1.45-.978.206q.145.695.244 1.404l.99-.14.99-.14a23 23 0 0 0-.267-1.536zm.256 1.47-.991.13c.019.143.032.23.043.333l.995-.108.994-.11c-.015-.13-.037-.283-.049-.375zm.047.355-.996.092.01.089.001.01.002.012.002.017.004.023s.006.038.019.084c.004.015.015.052.023.074.014.036.063.14.102.207.123.154.734.451 1.221.381.29-.182.55-.561.587-.675a2 2 0 0 0 .028-.165l.004-.063v-.053l-.002-.037-.002-.015-.001-.019-.01-.078zl-.994.116.006.054v-.004l-.003-.031-.002-.037a1 1 0 0 1 .032-.281c.036-.114.297-.493.587-.676.487-.07 1.098.228 1.22.382.04.066.09.17.103.207a1 1 0 0 1 .046.18l.002.017.002.01v.002l-.004-.031zm0 0-.996.095.015.136.01.101.996-.096.996-.095-.015-.136-.011-.101zm.025.236-.995.1q.036.365.062.743l.997-.069.998-.069a27 27 0 0 0-.067-.804zm.064.774-.998.062q.044.714.044 1.428h2q0-.776-.048-1.552zm.046 1.49h-1c0 .368.1.82.322 1.21.225.39.702.906 1.48.888l-.023-1-.023-1a.44.44 0 0 1 .255.077c.05.036.06.062.046.04a.5.5 0 0 1-.04-.11.5.5 0 0 1-.017-.105zm.779 1.098.023 1c.798-.02 1.24-.582 1.433-.976s.26-.827.266-1.138l-1-.02-1-.018a.9.9 0 0 1-.062.294c-.013.028-.006 0 .047-.043a.44.44 0 0 1 .27-.099zm.722-1.133 1 .025q.007-.29.022-.58l-.998-.051-1-.051q-.015.315-.023.632zm.023-.606-.998-.05c-.001.022-.007.121-.005.184l.003.05c.001.01.006.071.024.146.007.027.033.136.103.26.03.051.342.591 1.01.496.18-.043.454-.186.55-.268a1.6 1.6 0 0 0 .17-.214 1 1 0 0 0 .128-.358l.005-.037.007-.087.01-.137-.996-.093-.996-.093-.013.184v.016l-.001.006v-.004l.002-.022.005-.035a1 1 0 0 1 .04-.166 1 1 0 0 1 .087-.19c.03-.047.113-.156.17-.215.097-.081.371-.225.55-.267.669-.096.981.444 1.01.495a1 1 0 0 1 .13.455c.003.055-.001.1.004-.007zm.01-.108.998.076.007-.082.01-.12-.996-.076-.998-.076-.007.083-.01.12zm.019-.202.995.095q.054-.563.157-1.123l-.983-.182-.984-.182q-.12.646-.18 1.297zm.169-1.21.984.177q.05-.276.112-.546l-.973-.227-.974-.228q-.076.323-.133.647zm.123-.596.973.23c.018-.077.028-.12.04-.161l-.965-.267-.963-.266c-.025.088-.046.18-.058.233zm.048-.198-.969-.246-.025.105c-.001.004-.007.028-.011.058a1 1 0 0 0 .066.543 1 1 0 0 0 1.887-.124l.013-.046c.008-.03.045-.162.055-.21l-.98-.202-.98-.201c.008-.037 0 0-.023.08l-.006.023.003-.01.01-.032.023-.058c.006-.013.02-.044.04-.082a1 1 0 0 1 .231-.287 1 1 0 0 1 1.649.778c-.002.075-.012.135-.012.137l-.01.052-.003.012.012-.044zm.036-.122.962.274c.1-.35.22-.699.36-1.035l-.925-.382-.924-.382c-.169.408-.314.828-.435 1.251zm.397-1.143.926.379c.145-.354.17-.405.36-.738l-.868-.497-.868-.496c-.235.41-.298.54-.475.973zm.418-.856.868.497c.173-.303.375-.598.6-.897l-.797-.603-.798-.603c-.26.345-.515.713-.741 1.11zm.67-1.003.8.602c.26-.345.784-.828 1.26-1.14l-.548-.837-.548-.836c-.635.416-1.34 1.05-1.761 1.609zm1.512-1.375.548.837a6.5 6.5 0 0 1 1.51-.685l-.288-.958-.287-.958c-.69.207-1.48.567-2.03.927zm1.77-.806.288.958a4.7 4.7 0 0 1 1.639-.175l.069-.998.069-.997a6.7 6.7 0 0 0-2.352.254zm1.996-.215-.07.998a3.75 3.75 0 0 1 1.492.448l.473-.881.473-.882a5.75 5.75 0 0 0-2.298-.68zm1.895.564-.474.881c.12.065.315.195.526.37l.635-.774.634-.773a5.6 5.6 0 0 0-.847-.584zm.687.477-.64.769a4 4 0 0 1 .288.259l.705-.709.706-.708a6 6 0 0 0-.42-.38zm.353.32-.697.716q.06.058.116.119l.732-.68.733-.681a5 5 0 0 0-.186-.19zm.151.154.73-.684-.049-.05c-.004-.004-.016-.017-.031-.03a1 1 0 0 0-.12-.096c-.011-.007-.116-.081-.268-.128a1 1 0 0 0-1.069 1.587c.023.029.062.072.074.086l.067.077c.044.049.016.02-.015-.024l.812-.583.812-.584c-.04-.055-.102-.125-.102-.125-.024-.027-.052-.06-.073-.082l-.017-.02c0 .001.019.023.04.053a1 1 0 0 1 .155.788 1 1 0 0 1-1.268.74c-.152-.046-.256-.12-.267-.127a1 1 0 0 1-.118-.094l-.027-.025.005.006zm.131.155-.77.638q.257.31.477.67l.851-.524.852-.525a8 8 0 0 0-.64-.897zm.558.784-.851.524.123.205.864-.502.865-.503-.15-.249zm.136.227.863-.506c.009.014.01.02.004.006l-.007-.013.003.005.006.014.008.017.018.044a1 1 0 0 1 .044.558 1.8 1.8 0 0 1-.239.47 1.7 1.7 0 0 1-.723.327 1.8 1.8 0 0 1-.463-.104 1 1 0 0 1-.429-.41l-.004-.008.035.066.89-.456.889-.457-.07-.132-.016-.027s-.028-.047-.07-.098a1 1 0 0 0-.072-.081c-.02-.02-.112-.113-.26-.187a1.8 1.8 0 0 0-.464-.105 1.7 1.7 0 0 0-.723.327 1.8 1.8 0 0 0-.24.47c-.011.069-.02.186-.02.233a1 1 0 0 0 .084.37l.008.018.013.027c.01.02.043.087.073.137zm.005.01-.89.456c.091.177.171.34.24.5l.92-.392.92-.393a10 10 0 0 0-.3-.628zm.27.564-.92.394q.08.187.155.381l.933-.359.934-.359q-.087-.225-.184-.452zm.168.416-.94.34.046.128.046.127.94-.34.94-.34-.045-.128-.046-.127zm.093.255-.954.3.067.203.007.018a1 1 0 0 0 .051.115c.003.006.044.087.116.175.013.016.152.196.41.295.15.045.512.056.71.004a1.8 1.8 0 0 0 .517-.437c.127-.22.131-.427.132-.45a1 1 0 0 0-.024-.274l-.008-.034c-.01-.037-.029-.096-.043-.14l-.953.302-.953.303c.024.076.022.072.016.048l-.008-.031-.008-.038a1 1 0 0 1-.016-.236c.001-.022.006-.23.132-.449.082-.121.338-.35.517-.437.198-.052.56-.041.71.004.258.1.397.279.41.295.072.087.113.169.116.174l.026.054.017.04.006.017.004.011-.003-.01-.025-.076-.011-.034-.005-.013zm.028.077-.955.297q.136.442.231.909l.98-.2.98-.2a11 11 0 0 0-.281-1.103zm.256 1.006-.98.196q.084.428.139.854l.992-.122.993-.122q-.064-.51-.163-1.003zm.151.928.993-.122-.017-.132-.002-.016-.003-.02-.005-.026a1 1 0 0 0-.073-.228 2 2 0 0 0-.183-.27c-.189-.156-.812-.308-1.201-.192-.212.153-.43.457-.473.564a1 1 0 0 0-.049.386l.002.028.004.036.011.1.999-.053.998-.054c-.003-.06-.018-.19-.02-.209l-.001-.01v.006l.002.017.001.023c0 .005.002.031.001.065a1 1 0 0 1-.01.117 2 2 0 0 1-.041.18c-.043.107-.262.41-.474.564-.388.116-1.012-.037-1.2-.192a2 2 0 0 1-.183-.27c-.036-.078-.053-.143-.056-.153l-.018-.075-.004-.025-.003-.018v-.007l-.001-.002v.006l.003.022.01.082zm.003.055-.996.093c.009.096.016.195.024.309l.997-.07.998-.07c-.008-.106-.016-.231-.028-.355zm.025.332-.997.069q.02.31.031.632l1-.035.999-.035q-.011-.344-.035-.7zm.034.666-1 .032q.017.566-.01 1.142l1 .044.998.044q.031-.639.011-1.293zm-.01 1.218h-1q0-.041-.008.113l-.003.094v.062c.001.01.003.042.008.082a1 1 0 0 0 .021.112c.003.012.041.189.176.365.093.105.388.306.595.373.245.019.658-.091.813-.19.085-.075.204-.214.242-.272.023-.04.057-.11.07-.139a1 1 0 0 0 .064-.232l.006-.055.003-.033.005-.069-.998-.066-.998-.067-.003.051v-.006l.007-.051.009-.05a.9.9 0 0 1 .124-.319c.039-.059.157-.198.242-.272.155-.1.568-.21.813-.19.207.066.502.267.595.373.135.176.173.352.176.365a1 1 0 0 1 .03.252v.016q-.002.005 0 0v-.033c.002-.025.01-.174.01-.214zm-.006.145-.997-.07c-.008.111-.015.21-.024.31l.996.092.995.09q.017-.188.028-.353zm-.025.331-.996-.092q-.03.32-.068.627l.992.127.992.127c.03-.235.054-.47.075-.696zm-.072.662-.992-.126c-.39 3.064-1.62 5.975-3.385 8.703l.84.543.839.544c1.883-2.912 3.254-6.105 3.69-9.538zm-3.538 9.12-.84-.543c-2.014 3.114-4.588 5.83-7.331 8.495l.697.718.697.717c2.769-2.69 5.476-5.534 7.617-8.843zm-7.474 8.67-.696-.72c-.39.378-.578.87-.638 1.314-.06.446-.005.934.199 1.365l.904-.427.904-.428a.5.5 0 0 1-.025-.242c.015-.11.052-.15.047-.144zm-.23 1.532-.905.427c.158.333.453.72.888.94.232.117.533.2.873.158a1.53 1.53 0 0 0 .878-.435l-.697-.716-.698-.716a.5.5 0 0 1 .268-.117.5.5 0 0 1 .28.042c.041.02.05.036.04.023a.2.2 0 0 1-.024-.034zm1.037.374.696.717c5.332-5.179 10.652-11.334 11.883-19.152l-.988-.156-.988-.155c-1.121 7.12-5.997 12.877-11.3 18.029zm11.59-18.59.989.155c.536-3.408.392-7.536-1.824-10.696l-.82.574-.818.574c1.78 2.538 1.99 6.037 1.486 9.237zm-1.654-9.967.819-.575c-.978-1.393-2.468-2.596-4.3-2.98l-.205.98-.205.978c1.221.256 2.313 1.088 3.072 2.17zm-3.686-2.576.205-.979c-1.772-.37-3.626-.06-5.202.752l.458.889.458.889c1.205-.621 2.594-.84 3.876-.572zm-4.54.662-.457-.89c-4.18 2.153-5.473 6.861-5.568 10.777l1 .024 1 .025c.089-3.676 1.297-7.407 4.483-9.047zm-5.025 9.911.023 1 1.504-.035-.024-1-.023-1-1.503.036zm1.503-.035h1c0-2.29-.308-4.599-.945-6.814l-.961.277-.961.276c.582 2.027.867 4.15.867 6.261zm-.906-6.538.96-.276c-.513-1.785-1.308-3.58-2.69-5.052l-.73.684-.728.685c1.087 1.158 1.762 2.623 2.227 4.236zm-2.46-4.643.73-.685c-1.317-1.402-3.303-2.29-5.398-1.818l.22.975.219.976c1.254-.282 2.553.227 3.5 1.236zm-4.449-1.528-.219-.975c-2.212.496-3.781 2.231-4.58 4.046l.916.403.915.402c.626-1.423 1.773-2.583 3.187-2.9zm-3.883 3.474-.916-.402c-.968 2.202-.886 4.644-.644 6.743l.994-.115.993-.115c-.234-2.029-.255-4.018.488-5.709zm-.566 6.226-.994.115a34 34 0 0 0 1.075 5.476l.961-.276.962-.276a32 32 0 0 1-1.01-5.154zm1.042 5.315-.961.275a36.1 36.1 0 0 0 4.668 10.109l.832-.554.833-.555a34.1 34.1 0 0 1-4.41-9.55zm4.54 9.83-.833.554a35.4 35.4 0 0 0 7.456 8.105l.62-.784.62-.784a33.4 33.4 0 0 1-7.032-7.646zm7.243 7.875-.619.785q.542.428 1.1.833l.588-.81.587-.809a32 32 0 0 1-1.036-.784zm1.069.809-.59.807a1.57 1.57 0 0 0 1.64.159c.463-.226.772-.644.916-1.075l-.95-.316-.948-.315a.1.1 0 0 1 .015-.025.3.3 0 0 1 .09-.067.44.44 0 0 1 .417.024zm1.017-.425.949.316c.12-.365.17-.82.108-1.257-.06-.427-.25-1.002-.774-1.385l-.59.807-.591.806c-.04-.03-.053-.056-.05-.05.003.008.016.039.024.099a.9.9 0 0 1-.025.349zm-.308-1.52v-1h-.007v2h.007z" mask="url(#b)"/></g><defs><clipPath id="a"><path fill="#fff" d="M0 0h70v80H0z"/></clipPath></defs></svg>