<svg xmlns="http://www.w3.org/2000/svg" width="189" height="110" fill="none" viewBox="0 0 189 110"><path fill="#fff" fill-rule="evenodd" d="M70.747 72.128c-1.48-.785-2.743-.416-4.13 1.062.632-3.572.616-7.898-2.22-8.621-2.912-.755-4.56 1.062-6.271 5.45.062-3.757-.678-8.606-3.79-8.807-3.499-.215-4.67 2.664-5.533 9.053-1.094-3.572-4.1-9.838-7.643-8.59-3.468 1.216-3.236 4.556-1.31 11.361-1.896-2.94-5.702-7.313-8.245-5.65-2.419 1.57-1.756 4.141.925 8.914-1.772-.77-3.606-.847-5.085.6-3.313 3.264-1.71 6.359 2.866 12.101 4.592 5.743 37.554-4.418 39.11-7.005 1.572-2.602 4.022-8.421 1.325-9.868" clip-rule="evenodd"/><path fill="#e0840b" fill-rule="evenodd" d="M50.148 63.09c-.636 1.155-1.1 2.756-1.498 5.096l-.028.164-.004-.009c-.635-1.613-1.453-3.206-2.342-4.447-1.619-2.259-3.41-3.31-5.27-2.655-1.865.654-2.812 1.914-2.979 3.913l-.01.133c-.087 1.326.138 2.977.707 5.313l.03.127-.039-.05c-.785-.974-1.626-1.86-2.449-2.545-1.835-1.527-3.533-2.033-4.914-1.13-1.349.875-1.88 2.08-1.655 3.705l.009.062c.176 1.187.741 2.621 1.777 4.58l.067.126-.04-.01c-1.663-.412-3.167-.088-4.389 1.108-1.75 1.724-2.262 3.483-1.645 5.58l.034.113c.552 1.78 1.859 3.787 4.44 7.025 2.223 2.78 10.236 2.385 21.162-.218 8.96-2.134 17.807-5.343 18.705-6.837.962-1.591 1.885-3.7 2.317-5.497.584-2.425.299-4.229-1.169-5.016l-.056-.03c-1.26-.648-2.419-.56-3.58.254l-.064.046.01-.077c.186-1.552.195-2.984-.012-4.181-.334-1.936-1.226-3.223-2.75-3.612l-.093-.023c-2.537-.62-4.245.497-5.829 3.696l-.055.113-.002-.027c-.097-1.388-.319-2.672-.674-3.743-.68-2.047-1.83-3.278-3.495-3.385-1.91-.118-3.254.623-4.187 2.284zm4.159-1.417c2.3.148 3.435 3.57 3.357 8.338-.009.515.706.655.893.175 1.728-4.433 3.235-5.815 5.725-5.17 2.11.539 2.657 3.7 1.88 8.094-.08.452.478.731.792.396l.102-.106c1.23-1.268 2.251-1.513 3.474-.864.98.526 1.201 1.923.705 3.985-.408 1.697-1.293 3.72-2.21 5.237-.297.494-2.554 1.59-5.883 2.797-3.534 1.283-7.946 2.594-12.245 3.618-10.49 2.498-18.349 2.886-20.225.54l-.31-.391c-2.354-2.984-3.532-4.843-4-6.43-.517-1.762-.107-3.17 1.408-4.663 1.208-1.182 2.75-1.298 4.576-.505a.462.462 0 0 0 .587-.65c-2.776-4.94-3.062-7.011-1.076-8.3 1.801-1.178 5.014 1.493 7.604 5.512.288.447.978.135.834-.376-2.053-7.25-1.867-9.788 1.018-10.8 1.371-.482 2.804.359 4.211 2.322 1.155 1.611 2.2 3.887 2.837 5.968.145.474.834.418.9-.073.904-6.693 2.107-8.835 5.046-8.654" clip-rule="evenodd"/><path fill="#ffc29e" fill-rule="evenodd" d="m71.009 81.873.03-.092-44.334.138.031.093c-2.358.462-4.037 2.71-3.652 5.188l3.313 21.369 44.935-.139 3.313-21.369c.4-2.463-1.279-4.726-3.636-5.188" clip-rule="evenodd"/><path fill="#24348c" fill-rule="evenodd" d="M143.62 74.175c-.694 0-1.387.047-2.065.124-3.683-5.08-7.906-9.392-12.344-12.132-11.557-7.113-27.429-5.08-42.238.4-10.186 3.757-23.084 15.888-31.359 24.479-10.787.816-19.077 8.144-18.584 16.535.108 1.832.632 3.556 1.48 5.142l36.197.246c.062-.092.123-.2.185-.292l53.688-.185c.061.077.123.154.185.246l29.725-.046c2.759-3.649 4.407-8.313 4.407-13.41 0-11.67-8.629-21.107-19.277-21.107" clip-rule="evenodd"/><path fill="#fff" fill-rule="evenodd" d="M130.275 62.86c-13.669 8.467-25.935 8.652-33.886 7.282-7.366-1.263-12.682-4.096-14.408-5.204-.293.17-.586.339-.894.508 1.417.97 6.965 4.172 14.978 5.573q3.93.693 7.905.693c2.697 0 5.394-.23 8.075-.708 6.488-1.155 12.883-3.695 19.047-7.56-.278-.215-.54-.4-.817-.584m-1.418 14.548c2.173-3.048 4.854-4.757 7.983-5.096a10.3 10.3 0 0 1 3.39.216c-.293-.37-.586-.739-.879-1.093a10.7 10.7 0 0 0-2.558-.03c-2.357.245-5.778 1.385-8.691 5.48-.154.2-.092.493.108.646a.42.42 0 0 0 .262.093.5.5 0 0 0 .385-.216m.17 10.823c.262 0 .462-.2.478-.446.03-1.355.57-4.434 2.465-7.328 2.188-3.372 5.424-5.435 9.585-6.174a30 30 0 0 0-.616-.831c-4.161.846-7.52 3.079-9.755 6.497-1.864 2.863-2.573 6.004-2.619 7.805 0 .262.2.477.462.477M63.735 83.69c-1.957-.077-3.837.107-5.224.4-.462.462-.924.924-1.371 1.385 1.71-.939 11.45-2.109 15.471 2.464a.45.45 0 0 0 .355.154.47.47 0 0 0 .308-.108c.185-.17.216-.462.046-.647-2.604-2.971-7.12-3.556-9.585-3.648m-8.429 3.387h.031c-.015-.016-.03 0-.03 0s-.016 0 0 0" clip-rule="evenodd"/><path fill="#fff" fill-rule="evenodd" d="M71.656 90.294c-5.44-4.11-12.22-4.357-15.086-4.234-.324.34-.647.662-.956.986 1.65-.139 9.524-.508 15.487 3.987a.462.462 0 0 0 .555-.739m-23.5 18.29S53.21 93.651 67.434 96.36c14.223 2.71 33.685 8.529 33.685 8.529v3.741z" clip-rule="evenodd"/><path fill="#2e186a" fill-rule="evenodd" d="M57.619 96.975c-2.418 1.127-4.49 2.864-6.24 5.044a24 24 0 0 0-3.446 5.853l-.076.189-.065.17-.06.164-.014.041c-.101.3.121.61.438.61l52.963.046a.46.46 0 0 0 .463-.462v-3.741a.46.46 0 0 0-.33-.442l-.615-.182-.831-.244a509 509 0 0 0-16.534-4.523 369 369 0 0 0-6.21-1.529l-.562-.132a221 221 0 0 0-8.98-1.93c-3.686-.703-6.984-.292-9.901 1.068m9.728-.161c2.85.543 6.037 1.235 9.502 2.054 1.995.472 4.065.982 6.194 1.525A510 510 0 0 1 95 103.606l.648.183c1.303.368 2.503.713 3.58 1.026l1.429.419v2.934l-51.828-.045.042-.102a23 23 0 0 1 3.228-5.424c1.667-2.076 3.632-3.723 5.91-4.785 2.742-1.278 5.843-1.664 9.338-.998" clip-rule="evenodd"/><path fill="#fff" fill-rule="evenodd" d="M160.463 53.422s-1.141-.57-1.279-1.878c-.139-1.309.739-7.005 2.157-7.806 1.433-.8 7.952-4.326 9.153-4.249s1.696 10.53-10.031 13.933" clip-rule="evenodd"/><path fill="#fff" fill-rule="evenodd" d="M161.156 44.37c2.435-8.514 4.423-10.423 5.578-9.592 1.048.755-1.078 6.174-1.695 8.991" clip-rule="evenodd"/><path fill="#2e186a" fill-rule="evenodd" d="m164.039 35.816.074-.112c.986-1.446 2.009-1.935 2.892-1.3.52.374.576 1.148.368 2.379l-.03.173c-.14.762-.369 1.65-.743 2.944l-.612 2.086c-.286.985-.382 1.355-.497 1.882a.462.462 0 0 1-.903-.198l.043-.196c.1-.437.201-.821.435-1.627l.616-2.102c.412-1.417.648-2.34.779-3.116l.019-.117c.126-.803.086-1.286-.016-1.359-.354-.255-.894.017-1.653 1.17l-.068.106c-.974 1.528-2.038 4.205-3.142 8.067a.463.463 0 0 1-.889-.253l.079-.277c1.126-3.886 2.218-6.585 3.248-8.15" clip-rule="evenodd"/><path fill="#fff" fill-rule="evenodd" d="M171.897 42.522c1.217-1.986 3.236-1.878 2.188 1.494-1.033 3.294-1.788 7.574-3.714 9.514s-2.619 2.802-2.619 2.802-3.853 14.364-6.041 26.31c-3.159 17.275-9.138 20.6-14.717 18.614-5.578-1.97-6.61-9.792 1.002-24.956 7.613-15.18 11.635-24.017 11.635-24.017" clip-rule="evenodd"/><path fill="#2e186a" fill-rule="evenodd" d="M171.502 42.281c.691-1.127 1.696-1.76 2.503-1.453.888.338 1.061 1.543.542 3.257l-.112.363c-.133.44-.271.92-.452 1.577l-.335 1.216c-.98 3.53-1.705 5.338-2.909 6.574l-.303.307c-.63.639-1.155 1.19-1.584 1.66l-.17.186a26 26 0 0 0-.441.5l-.069.08-.244.924-.218.838a448 448 0 0 0-3.265 13.424l-.177.786q-.573 2.552-1.072 4.954l-.133.647a232 232 0 0 0-.789 4.017l-.108.588c-1.508 8.24-3.727 13.75-6.57 16.763-2.542 2.695-5.544 3.346-8.756 2.202-3.086-1.09-4.75-3.812-4.754-7.965-.004-4.323 1.771-10.164 5.387-17.413l.71-1.419a985 985 0 0 0 7.618-15.552l.854-1.792q.792-1.668 1.436-3.044l.675-1.45.444-.964a.462.462 0 0 1 .852.357l-.058.129-.481 1.042-.659 1.415a670 670 0 0 1-1.696 3.59l-.647 1.353a1001 1001 0 0 1-8.112 16.529c-6.992 13.93-6.984 22.292-1.259 24.314 2.874 1.023 5.488.457 7.773-1.966 2.67-2.83 4.812-8.107 6.289-16.054l.044-.241c.305-1.663.651-3.425 1.035-5.274a329 329 0 0 1 1.252-5.757 449 449 0 0 1 2.439-10.188l.339-1.34q.236-.928.451-1.758l.288-1.102.245-.928a.5.5 0 0 1 .086-.17l.064-.077.084-.1q.181-.212.457-.517l.233-.256a69 69 0 0 1 1.814-1.888l.07-.072c.987-1.037 1.657-2.654 2.521-5.7l.554-2c.153-.55.276-.974.4-1.375l.055-.18c.417-1.339.317-2.078.033-2.187s-.898.278-1.385 1.072a.463.463 0 0 1-.789-.482" clip-rule="evenodd"/><path fill="#fff" fill-rule="evenodd" d="M159.769 52.545c-1.109-.755-.971-5.096-2.219-6.99-1.541-2.355-3.051-4.803-.2-4.434 2.45.308 3.221 2.463 3.791 3.233" clip-rule="evenodd"/><path fill="#2e186a" fill-rule="evenodd" d="M155.354 42.428c-.32-1.29.432-1.975 2.053-1.765 1.361.171 2.347.844 3.145 1.917l.037.051c.291.408.846 1.336.919 1.443l.004.006a.462.462 0 1 1-.743.549l-.016-.022c-.131-.195-.708-1.159-.943-1.476-.659-.887-1.434-1.415-2.52-1.552-.566-.073-.896-.021-1.017.09-.071.064-.095.216-.031.497l.01.039c.16.645.623 1.47 1.632 3.017l.052.08c.472.715.763 1.663 1.059 3.178l.06.313.181.977c.282 1.49.502 2.177.779 2.383l.014.01a.461.461 0 1 1-.52.764c-.578-.394-.827-1.12-1.164-2.895l-.209-1.123-.03-.157c-.275-1.425-.537-2.307-.918-2.906l-.286-.44c-.931-1.443-1.365-2.244-1.548-2.978" clip-rule="evenodd"/><path fill="#fff" fill-rule="evenodd" d="M170.479 46.125s2.173-5.266 2.897-7.714c.801-2.663-2.003-3.048-3.359.786" clip-rule="evenodd"/><path fill="#2e186a" fill-rule="evenodd" d="M172.475 35.907c1.203-.078 1.788 1.091 1.359 2.585l-.015.05c-.221.749-.584 1.788-1.058 3.052l-.084.225-.202.53c-.3.785-.619 1.598-.94 2.401l-.264.655-.272.671-.093.225a.462.462 0 0 1-.864-.327l.372-.915.125-.31c.32-.796.64-1.606.944-2.394l.196-.513.133-.349c.493-1.308.873-2.385 1.102-3.15l.019-.064c.296-.981.052-1.48-.398-1.45-.665.043-1.523.94-2.082 2.522a.463.463 0 0 1-.872-.308c.67-1.893 1.789-3.064 2.894-3.136" clip-rule="evenodd"/><path fill="#fff" fill-rule="evenodd" d="M167.921 44.74s4.269-9.654 2.358-10.516c-1.742-.785-3.067 2.74-5.255 9.545" clip-rule="evenodd"/><path fill="#2e186a" fill-rule="evenodd" d="M167.471 35.815c.928-1.791 1.87-2.52 2.998-2.012 1.161.524.941 2.523-.097 5.788a48 48 0 0 1-.591 1.73 64 64 0 0 1-.875 2.27l-.112.273q-.158.382-.292.697l-.158.365a.463.463 0 0 1-.846-.373l.121-.278.1-.235q.104-.246.22-.528c.332-.805.663-1.653.972-2.506q.32-.88.579-1.695l.076-.24c.778-2.517.953-4.232.523-4.426-.535-.241-1.106.22-1.857 1.713l-.086.174c-.692 1.42-1.432 3.493-2.682 7.379a.462.462 0 0 1-.88-.283l.269-.831c1.142-3.519 1.843-5.433 2.531-6.81z" clip-rule="evenodd"/><path fill="#fff" fill-rule="evenodd" d="m98.16 51.76.602 10.884s-1.017 5.881 7.15 4.788c8.136-1.077 7.135-5.896 7.135-5.896l-2.512-13.517z" clip-rule="evenodd"/><path fill="#2e186a" fill-rule="evenodd" d="m110.401 47.576-12.374 3.742a.46.46 0 0 0-.328.467l.599 10.837-.007.05-.01.09a5 5 0 0 0 .397 2.532c.939 2.097 3.277 3.134 7.295 2.596 3.28-.434 5.414-1.497 6.584-3.019.85-1.106 1.081-2.269.969-3.255l-.008-.062-.015-.095-2.513-13.525a.463.463 0 0 0-.589-.358m-11.758 4.52 11.532-3.486 2.422 13.034.01.077c.087.767-.097 1.694-.783 2.588-1.007 1.31-2.918 2.26-5.973 2.665-3.642.488-5.573-.369-6.329-2.057a4.13 4.13 0 0 1-.32-2.066l.007-.065.008-.063.005-.035.002-.07z" clip-rule="evenodd"/><path fill="#fff" fill-rule="evenodd" d="M113.663 34.286s6.318-2.371 6.565 4.203c.246 6.574-6.565 4.865-6.565 4.865" clip-rule="evenodd"/><path fill="#2e186a" fill-rule="evenodd" d="M114.275 33.628c.913-.215 1.855-.293 2.749-.147 2.177.354 3.552 1.946 3.666 4.99.118 3.148-1.285 4.871-3.642 5.387-.96.21-1.971.197-2.926.052l-.149-.024a6 6 0 0 1-.422-.084.462.462 0 0 1 .198-.902l.101.023.047.01q.16.032.364.064c.853.13 1.756.14 2.589-.041 1.929-.422 3.017-1.758 2.916-4.45l-.007-.157c-.134-2.501-1.181-3.68-2.884-3.956-.757-.124-1.583-.056-2.387.134q-.235.056-.429.115l-.064.02-.115.037-.054.02a.463.463 0 1 1-.325-.865l.059-.022a7 7 0 0 1 .715-.204" clip-rule="evenodd"/><path fill="#fff" fill-rule="evenodd" d="M101.813 55.07c-6.842 0-12.39-5.543-12.39-12.378V31.884c0-4.372 3.56-7.929 7.936-7.929h10.849c3.313 0 6.01 2.695 6.01 6.005v12.716c0 6.836-5.548 12.394-12.405 12.394" clip-rule="evenodd"/><path fill="#2e186a" fill-rule="evenodd" d="M108.208 23.493H97.36c-4.632 0-8.399 3.764-8.399 8.39v10.809c0 7.09 5.755 12.84 12.852 12.84l.209-.002c7.021-.114 12.658-5.837 12.658-12.854V29.96c0-3.565-2.903-6.466-6.472-6.466m-10.848.924h10.848c3.058 0 5.548 2.488 5.548 5.542v12.717c0 6.512-5.232 11.825-11.745 11.93l-.202.002c-6.582 0-11.923-5.336-11.923-11.916V31.884c0-4.117 3.353-7.467 7.474-7.467" clip-rule="evenodd"/><path fill="#e0840b" fill-rule="evenodd" d="M117.1 48.542c-.016-4.203-.601-7.267-.755-8.037 0-.046.015-.107.015-.154 0-.97-.786-1.755-1.757-1.755v1.756l.046 1.755a1.8 1.8 0 0 0 .987-.34c.57 3.542 1.695 14.103-3.051 23.079a283 283 0 0 1-2.481 4.634c-4.469 8.329-7.428 13.84-7.351 18.751 0 .247.216.462.462.462a.464.464 0 0 0 .463-.462c-.062-4.68 2.85-10.099 7.242-18.305.786-1.478 1.603-2.987 2.481-4.65 3.098-5.865 3.729-12.331 3.699-16.734m-28.879-6.235c.216.123.447.2.71.215v-3.494a1.74 1.74 0 0 0-1.573 1.493.5.5 0 0 0-.077.262c0 .708 0 17.289 4.932 24.771 5.038 7.667 6.595 12.04 6.95 19.46a.47.47 0 0 0 .462.446h.015a.474.474 0 0 0 .447-.477c-.355-7.636-1.942-12.1-7.104-19.937-3.945-5.974-4.638-18.413-4.762-22.74" clip-rule="evenodd"/><path fill="#2e186a" fill-rule="evenodd" d="M98.014 34.794a.46.46 0 0 1 .47.427v.027l.166 9.773.008.003c.033.011.07.009.121-.01l.023-.01c.238-.1.55-.444.91-1.102a.463.463 0 0 1 .812.443c-.845 1.545-1.754 1.933-2.48 1.385a1 1 0 0 1-.232-.234.46.46 0 0 1-.08-.222l-.002-.034-.17-9.977a.46.46 0 0 1 .454-.47m4.871 11.684a.463.463 0 0 1 .696.252l.01.038q.018.065.036.167c.095.541.044 1.14-.266 1.714-.516.955-1.632 1.578-3.429 1.755a.462.462 0 1 1-.09-.92c1.513-.149 2.35-.616 2.705-1.274a1.7 1.7 0 0 0 .173-.499l.009-.065-.014.008c-2.009 1.08-4.017 1.153-5.011.041l-.033-.038a.462.462 0 1 1 .703-.6c.715.838 2.608.665 4.511-.579m-.661-15.287c1.009-.766 2.206-.848 3.498.179a.461.461 0 1 1-.575.723c-.935-.743-1.67-.693-2.363-.166a3 3 0 0 0-.268.23l-.17.168-.065.059a.5.5 0 0 1-.202.103.462.462 0 0 1-.39-.817l.02-.015.102-.1a4 4 0 0 1 .413-.363m3.21 8.191c.426 0 .771-.531.771-1.186s-.345-1.185-.771-1.185c-.425 0-.77.53-.77 1.185s.345 1.186.77 1.186m-11.203.292c.426 0 .77-.53.77-1.185s-.344-1.186-.77-1.186c-.425 0-.77.531-.77 1.186s.345 1.185.77 1.185m-2.149-8.629c1.154-.92 2.42-.963 3.531.463a.462.462 0 1 1-.73.567c-.75-.962-1.433-.939-2.224-.308a4 4 0 0 0-.31.277l-.183.181-.066.06a.46.46 0 0 1-.207.109.462.462 0 0 1-.39-.818l.018-.012.119-.12c.152-.151.286-.275.442-.4" clip-rule="evenodd"/><path fill="#2e186a" fill-rule="evenodd" d="M104.91 21.261c-3.005.046-5.285.185-6.641.447-11.034 2.51-9.246 10.669-9.246 10.669s5.393 1.031 9.785-5.466c0 0 6.025 4.912 14.947 6.898.139-.031.309-.078.463-.124v.447c.524-.139 1.371-.293 2.25-.231-.093-3.218-.678-7.282-3.329-9.9-1.88-1.862-4.654-2.786-8.229-2.74" clip-rule="evenodd"/><path fill="#fff" fill-rule="evenodd" d="M98.513 20.711c1.758-.244 4.526-.404 6.911-.389 4.763.05 7.946 1.804 9.832 4.896.743 1.217 1.261 2.603 1.609 4.157.258 1.148.396 2.2.526 3.685a.462.462 0 0 1-.921.08l-.025-.276c-.288-3.102-.781-5.202-1.978-7.165-1.718-2.816-4.605-4.406-9.051-4.453l-.272-.001c-2.276-.002-4.858.153-6.503.381a.462.462 0 1 1-.128-.915" clip-rule="evenodd"/><path fill="#2e186a" fill-rule="evenodd" d="M133.866 14.564C130.059 3.694 119.272-2.417 109.765.908c-7.813 2.725-12.328 10.993-11.589 19.876 1.433-.247 3.683-.4 6.734-.447 3.837-.046 6.827.955 8.892 3.002 2.928 2.895 3.529 7.283 3.606 10.7 1.418.385 2.727 1.54 2.835 4.45.016.292-.246 2.555-.185 2.54 0 .723.154 1.632.694 2.525 1.063 1.709 3.22 2.77 6.426 3.14h.061a.466.466 0 0 0 .463-.4.464.464 0 0 0-.401-.508c-2.897-.339-4.839-1.247-5.748-2.71a3.8 3.8 0 0 1-.555-1.709c.786.924 2.158 1.925 4.33 1.925a9 9 0 0 0 1.711-.185.445.445 0 0 0 .354-.539.446.446 0 0 0-.539-.354c-2.805.585-4.361-.477-5.178-1.431a16 16 0 0 0 1.865-.524c9.492-3.34 14.115-14.841 10.325-25.695m-27.769 17.828a6.1 6.1 0 0 0-6.102 6.097 6.1 6.1 0 0 0 6.102 6.096 6.1 6.1 0 0 0 6.102-6.096 6.1 6.1 0 0 0-6.102-6.097m0 .924a5.175 5.175 0 0 1 5.178 5.173 5.175 5.175 0 0 1-5.178 5.173 5.175 5.175 0 0 1-5.178-5.173 5.175 5.175 0 0 1 5.178-5.173" clip-rule="evenodd"/><path fill="#2e186a" fill-rule="evenodd" d="M100.334 37.888a.462.462 0 0 1 .027.923h-3.695a.462.462 0 0 1-.027-.922h3.695m13.657-4.329a.461.461 0 0 1 .479.79l-.025.014-3.189 1.802a.462.462 0 0 1-.479-.79l.024-.014z" clip-rule="evenodd"/><path fill="#2e186a" fill-rule="evenodd" d="M90.841 32.392a6.1 6.1 0 0 0-6.102 6.097 6.1 6.1 0 0 0 6.102 6.096 6.1 6.1 0 0 0 6.103-6.096 6.1 6.1 0 0 0-6.103-6.097m0 .924a5.175 5.175 0 0 1 5.178 5.173 5.175 5.175 0 0 1-5.178 5.173 5.175 5.175 0 0 1-5.177-5.173 5.175 5.175 0 0 1 5.177-5.173" clip-rule="evenodd"/><path fill="#ff8d7e" fill-rule="evenodd" d="M129.628 102.811h-3.206l-1.572-23.293c-.107-1.632-1.525-2.956-3.159-2.956H77.018c-1.633 0-2.881 1.324-2.758 2.956l1.741 25.787c.108 1.632 1.526 2.956 3.16 2.956l50.451-.062c.925 0 1.664-.754 1.664-1.662v-2.048a1.646 1.646 0 0 0-1.648-1.678" clip-rule="evenodd"/><path fill="#fff" fill-rule="evenodd" d="M102.506 91.973c-.631-.678-1.479-1.109-2.373-1.278.139-.2.231-.447.262-.708.077-.832-.524-1.602-1.325-1.725h-.046c-.17-.63-.493-1.678-.863-2.124-.139-.17-.4-.231-.586-.123-.17.107-.2.323-.061.492.246.293.539 1.201.724 1.894a1.42 1.42 0 0 0-.755 1.154 1.63 1.63 0 0 0 .431 1.247c-.277.093-.54.2-.786.355-1.602 1-1.803 2.971-.447 4.434 1.356 1.447 3.776 1.816 5.378.816 1.618-1.001 1.819-2.987.447-4.434" clip-rule="evenodd"/><path fill="#fff" fill-rule="evenodd" d="M101.828 86.06s-2.311-.461-2.62 1.463c.016 0 1.834.647 2.62-1.462" clip-rule="evenodd"/><path fill="#2e186a" fill-rule="evenodd" d="M188.324 108.261a.462.462 0 0 1 .027.923l-.027.001H.462a.462.462 0 0 1-.027-.923l.027-.001z" clip-rule="evenodd"/></svg>