<svg xmlns="http://www.w3.org/2000/svg" width="208" height="25" fill="none" viewBox="0 0 208 25"><g clip-path="url(#a)"><path fill="#000" d="M207.353 0H0v25h207.353z"/><path fill="#fff" d="M13.417 8.517 11.446 9.7l-1.424-2.11 3.528-2.163h2.766V17.77h-2.899zm5.069 13.668c-.812 0-1.342-.103-1.79-.309v-2.421c.266.103.663.189 1.31.189.728 0 1.076-.395 1.076-1.065V8.877h2.733v9.701c0 2.164-.96 3.589-3.33 3.589zm.199-16.037c0-.944.795-1.769 1.722-1.769.928 0 1.723.807 1.723 1.769s-.795 1.786-1.723 1.786c-.927 0-1.722-.824-1.722-1.786m9.69 11.985c-3.18 0-4.853-2.198-4.853-4.79S25.078 8.55 28.01 8.55c2.452 0 4.075 1.682 4.075 4.086 0 .601-.083 1.168-.165 1.477h-5.6c.266 1.202 1.011 1.511 2.038 1.511.828 0 1.54-.343 1.938-.841l1.922 1.562c-.828 1.116-2.187 1.786-3.843 1.786m-2.038-5.993h3.114c-.033-.6-.48-1.339-1.49-1.339-.878 0-1.408.447-1.607 1.34zm13.07-3.244h2.75v4.86c0 2.66-1.541 4.378-4.208 4.378s-4.19-1.717-4.19-4.379V8.894h2.749v5.031c0 .927.447 1.58 1.457 1.58s1.442-.653 1.442-1.58zm4.803 0h2.733v.498c.564-.498 1.293-.841 2.303-.841 1.838 0 3.346 1.322 3.346 4.018v5.22h-2.75v-5.1c0-.893-.464-1.511-1.341-1.511-.961 0-1.392.773-1.558 1.082v5.528H44.21zm14.859 9.238c-3.18 0-4.854-2.198-4.854-4.79s1.557-4.791 4.49-4.791c2.45 0 4.074 1.682 4.074 4.086 0 .601-.083 1.168-.166 1.477h-5.598c.265 1.202 1.01 1.511 2.037 1.511.828 0 1.54-.343 1.938-.841l1.921 1.562c-.828 1.116-2.186 1.786-3.842 1.786m-2.054-5.993h3.114c-.033-.6-.48-1.339-1.491-1.339-.878 0-1.408.447-1.607 1.34zm9.872-3.622L64.916 9.7 63.49 7.59l3.528-2.163h2.767V17.77h-2.899V8.516m6.809 6.251c.464.618 1.044 1.15 1.822 1.15.497 0 .746-.258.746-.618 0-1.22-3.993-.721-3.993-3.846 0-1.7 1.392-2.902 3.297-2.902 1.375 0 2.683.687 3.33 1.545l-1.79 1.649c-.414-.498-.927-.962-1.54-.962-.48 0-.696.24-.696.55 0 1.15 3.992.686 3.992 3.794-.033 2.009-1.623 3.04-3.296 3.04s-2.766-.67-3.644-1.7l1.789-1.683zm15.902-1.426c0 2.713-1.938 4.79-4.77 4.79-2.833 0-4.788-2.077-4.788-4.79s1.938-4.79 4.787-4.79 4.77 2.078 4.77 4.79m-2.816 0c0-1.339-.845-2.163-1.938-2.163-1.094 0-1.971.841-1.971 2.163 0 1.323.844 2.164 1.97 2.164 1.127 0 1.939-.859 1.939-2.164m4.523-8.791h2.733v13.221h-2.733zm10.435 4.344h2.75v4.86c0 2.66-1.54 4.378-4.207 4.378s-4.191-1.717-4.191-4.379V8.894h2.75v5.031c0 .927.447 1.58 1.457 1.58s1.441-.653 1.441-1.58zm5.4 2.507h-1.606V8.894h1.606V6.68h2.75v2.215h2.369v2.507h-2.369v2.936c0 .704.365 1.1 1.077 1.1.629 0 1.043-.087 1.308-.19v2.421c-.463.206-.993.31-1.805.31-2.352 0-3.33-1.443-3.33-3.64zm6.51-5.254c0-.944.795-1.769 1.739-1.769s1.707.807 1.707 1.769-.796 1.786-1.707 1.786-1.739-.824-1.739-1.786m.331 2.747h2.734v8.894h-2.734zm14.014 4.447c0 2.713-1.938 4.79-4.771 4.79-2.832 0-4.787-2.077-4.787-4.79s1.938-4.79 4.787-4.79 4.771 2.078 4.771 4.79m-2.816 0c0-1.339-.845-2.163-1.938-2.163s-1.971.841-1.971 2.163c0 1.323.845 2.164 1.971 2.164s1.938-.859 1.938-2.164m4.522-4.447h2.733v.498c.563-.498 1.292-.841 2.303-.841 1.838 0 3.346 1.322 3.346 4.018v5.22h-2.75v-5.1c0-.893-.464-1.511-1.342-1.511-.96 0-1.391.773-1.557 1.082v5.528h-2.733zm9.922 7.263c0-.996.828-1.837 1.822-1.837s1.806.841 1.806 1.837-.845 1.855-1.806 1.855c-.96 0-1.822-.842-1.822-1.855m5.715 1.031c-.315-.395-.481-.842-.481-1.288 0-.722.232-1.288.895-1.803-.762-.584-1.143-1.442-1.143-2.438 0-1.769 1.292-3.125 3.561-3.125.696 0 1.326.12 1.822.36h3.115v2.352h-1.359c.017.138.017.275.017.43 0 1.785-1.276 3.142-3.595 3.142-.165 0-.331 0-.48-.017a.5.5 0 0 0-.149.36c0 .31.182.43.464.43h1.971c2.087 0 3.362 1.27 3.362 2.97 0 2.043-1.838 3.675-4.604 3.675-2.916 0-4.523-.945-4.523-2.885 0-.859.415-1.563 1.127-2.112zm3.346 2.798c1.391 0 1.954-.498 1.954-1.167 0-.533-.347-.876-1.027-.876h-2.517a1.4 1.4 0 0 0-.348.927c0 .687.563 1.116 1.938 1.116m.629-8.327c0-.722-.48-1.082-1.143-1.082-.662 0-1.126.36-1.126 1.082 0 .72.464 1.098 1.126 1.098.663 0 1.143-.377 1.143-1.098m14.279 1.682c0 2.713-1.938 4.79-4.771 4.79-2.832 0-4.787-2.077-4.787-4.79s1.938-4.79 4.787-4.79 4.771 2.078 4.771 4.79m-2.816 0c0-1.339-.845-2.163-1.938-2.163s-1.971.841-1.971 2.163c0 1.323.845 2.164 1.971 2.164s1.938-.859 1.938-2.164m9.574-4.447h2.75v4.86c0 2.66-1.541 4.378-4.208 4.378-2.666 0-4.19-1.717-4.19-4.379V8.894h2.749v5.031c0 .927.448 1.58 1.458 1.58s1.441-.653 1.441-1.58zm6.526 0 1.856 5.512 1.838-5.512h2.916l-2.965 8.894h-3.595l-2.965-8.894zm6.361 7.263c0-.996.828-1.837 1.822-1.837s1.806.841 1.806 1.837-.845 1.855-1.806 1.855c-.96 0-1.822-.842-1.822-1.855m5.831-7.263v-.807c0-1.888 1.242-3.52 3.611-3.52.795 0 1.474.172 2.087.481L193.621 7.4a1.4 1.4 0 0 0-.894-.309c-.564 0-.911.395-.911.928v.892h2.368v2.507h-2.368v6.388h-2.75v-6.388h-1.607V8.911h1.607zm6.427 0h2.733v.721c.53-.515 1.193-.892 2.087-.892.315 0 .58.051.795.12v2.764a4.4 4.4 0 0 0-1.06-.12c-.994 0-1.64.6-1.822.893v5.391h-2.733V8.877z"/></g><defs><clipPath id="a"><path fill="#fff" d="M0 0h207.353v25H0z"/></clipPath></defs></svg>