<svg xmlns="http://www.w3.org/2000/svg" width="111" height="111" fill="none" viewBox="0 0 111 111"><path fill="#ffe817" d="M89.536 56.697c1.87.737 3.992-.913 4.513-2.854.521-1.94-.074-3.983-.671-5.906-.636-2.049-1.266-4.098-1.901-6.146-.172-.556-.365-1.14-.8-1.526-.521-.456-1.274-.526-1.97-.562-23.082-1.292-46.092 2.762-68.858 6.796-.897.162-1.84.335-2.553.916-1.323 1.082-1.338 3.079-1.155 4.78a54.1 54.1 0 0 0 3.75 14.73c.395.957.864 1.965 1.749 2.505.788.481 1.757.508 2.682.483 6.152-.16 12.132-1.91 18.065-3.544a521 521 0 0 1 47.056-10.643"/><path fill="#ffe817" d="M51.282 90.831c-.738 1.87.912 3.992 2.853 4.513 1.94.522 3.983-.074 5.906-.671 2.049-.636 4.097-1.266 6.146-1.901.556-.172 1.14-.365 1.526-.8.456-.521.526-1.274.562-1.97 1.292-23.082-2.762-46.092-6.796-68.858-.162-.897-.335-1.84-.91-2.553-1.082-1.335-3.079-1.343-4.781-1.16a54.1 54.1 0 0 0-14.73 3.749c-.956.395-1.965.864-2.504 1.755-.482.782-.509 1.757-.483 2.682.16 6.152 1.91 12.132 3.544 18.065a521 521 0 0 1 10.643 47.056"/></svg>