<svg xmlns="http://www.w3.org/2000/svg" width="71" height="80" fill="none" viewBox="0 0 71 80"><g clip-path="url(#a)"><path fill="#ea619e" d="m70.869 4.908-51.75-.131S25.653 54.01 3.49 73.339L47.557 80S73.048 66.483 70.871 4.908z"/><mask id="b" width="70" height="78" x="-2.002" y="-1.002" fill="#000" maskUnits="userSpaceOnUse"><path fill="#fff" d="M-2.002-1.002h70v78h-70z"/><path d="M16.302.154c-.61.021-1.16.163-1.54.686-.38.524-.457 1.238-.424 1.872.07 1.259.188 2.515.265 3.771.156 2.508.27 5.018.326 7.528s.056 5.062-.018 7.593a122 122 0 0 1-.167 3.756l-.01.192c.01-.158-.003.052-.006.07l-.028.445q-.03.476-.07.953-.073.954-.16 1.903a101 101 0 0 1-.974 7.449 87 87 0 0 1-1.26 6.104c.038-.162-.006.02-.01.044l-.07.273c-1.084 4.284-2.508 8.486-4.326 12.506-.239.526-.372.814-.619 1.324a61 61 0 0 1-2.32 4.363 58 58 0 0 1-3.603 5.458c-.3.403-.657.869-.937 1.22a1.56 1.56 0 0 0-.313 1.33c.098.408.308.785.747.84l14.816 1.9 14.752 1.892 7.44.953q1.846.235 3.687.474c1.163.149 2.398.421 3.569.207 1.574-.288 2.932-1.39 4.072-2.49.86-.83 1.658-1.727 2.433-2.638a75 75 0 0 0 6.07-8.187c1.81-2.827 3.48-5.819 4.464-9.057 1.428-4.693 2.35-9.527 3.05-14.383.347-2.397.64-4.8.92-7.206.205-1.772.408-3.538.528-5.318.252-3.748.324-7.51.288-11.268-.036-3.594-.157-7.193-.496-10.771a67 67 0 0 0-.264-2.366c-.049-.383-.34-.825-.747-.84q-1.572-.06-3.143-.11-4.077-.137-8.159-.247Q48.37.225 42.671.125C38.435.06 34.197.013 29.955 0c-4.084-.01-8.172.013-12.254.115q-.7.016-1.399.037c-1.016.028-.963 2.368.057 2.337 4.038-.118 8.076-.154 12.118-.154 4.254 0 8.505.041 12.76.11q5.828.092 11.655.246 4.32.11 8.64.25 1.316.043 2.633.09c.4.013.809.055 1.207.044h.051l-.747-.84.062.497.03.257.013.11c.026.217-.02-.199-.005-.047.039.377.08.754.113 1.13q.111 1.207.188 2.416c.118 1.806.192 3.615.238 5.424.098 3.745.08 7.496-.084 11.24a101 101 0 0 1-.098 1.858c-.013.217.013-.207-.005.07l-.023.335a68 68 0 0 1-.19 2.278c-.224 2.22-.5 4.433-.78 6.648a163 163 0 0 1-1.033 7.062q-.302 1.786-.667 3.562a96 96 0 0 1-.568 2.56q-.049.212-.102.424c-.049.199.028-.118-.02.081l-.062.24c-.478 1.904-.984 3.82-1.739 5.631a31 31 0 0 1-.336.775l-.1.217c.044-.094-.064.134-.087.18q-.064.135-.129.265-.142.287-.287.57a47 47 0 0 1-1.21 2.205 64 64 0 0 1-2.841 4.423 74 74 0 0 1-2.257 3.07q-.181.235-.362.466l-.18.228c-.067.084.01-.013.02-.026l-.128.16c-1.481 1.85-3.024 3.763-4.898 5.219-.827.641-1.705 1.175-2.768 1.225-1.196.055-2.42-.204-3.602-.356l-7.247-.93-14.624-1.874-14.624-1.876q-1.78-.227-3.56-.458l.43 2.17A61 61 0 0 0 8.19 58.497a74 74 0 0 0 4.71-12.393c1.264-4.479 2.152-9.062 2.717-13.687.613-5.036.86-10.119.852-15.192a168 168 0 0 0-.185-7.467 231 231 0 0 0-.334-5.607q-.034-.478-.071-.955-.016-.192-.029-.382-.008-.098-.012-.194c0-.032-.006-.306-.01-.139 0 .144-.006-.013.007-.036-.09.204-.018.05 0 .01-.005.013-.046.089-.044.102.008.055-.113.029-.005.018.108-.01.103-.05.195-.065.124-.021.25-.021.373-.026.53-.019.75-.744.724-1.189-.026-.444-.232-1.17-.781-1.151z"/></mask><path fill="#ffea07" d="M16.302.154c-.61.021-1.16.163-1.54.686-.38.524-.457 1.238-.424 1.872.07 1.259.188 2.515.265 3.771.156 2.508.27 5.018.326 7.528s.056 5.062-.018 7.593a122 122 0 0 1-.167 3.756l-.01.192c.01-.158-.003.052-.006.07l-.028.445q-.03.476-.07.953-.073.954-.16 1.903a101 101 0 0 1-.974 7.449 87 87 0 0 1-1.26 6.104c.038-.162-.006.02-.01.044l-.07.273c-1.084 4.284-2.508 8.486-4.326 12.506-.239.526-.372.814-.619 1.324a61 61 0 0 1-2.32 4.363 58 58 0 0 1-3.603 5.458c-.3.403-.657.869-.937 1.22a1.56 1.56 0 0 0-.313 1.33c.098.408.308.785.747.84l14.816 1.9 14.752 1.892 7.44.953q1.846.235 3.687.474c1.163.149 2.398.421 3.569.207 1.574-.288 2.932-1.39 4.072-2.49.86-.83 1.658-1.727 2.433-2.638a75 75 0 0 0 6.07-8.187c1.81-2.827 3.48-5.819 4.464-9.057 1.428-4.693 2.35-9.527 3.05-14.383.347-2.397.64-4.8.92-7.206.205-1.772.408-3.538.528-5.318.252-3.748.324-7.51.288-11.268-.036-3.594-.157-7.193-.496-10.771a67 67 0 0 0-.264-2.366c-.049-.383-.34-.825-.747-.84q-1.572-.06-3.143-.11-4.077-.137-8.159-.247Q48.37.225 42.671.125C38.435.06 34.197.013 29.955 0c-4.084-.01-8.172.013-12.254.115q-.7.016-1.399.037c-1.016.028-.963 2.368.057 2.337 4.038-.118 8.076-.154 12.118-.154 4.254 0 8.505.041 12.76.11q5.828.092 11.655.246 4.32.11 8.64.25 1.316.043 2.633.09c.4.013.809.055 1.207.044h.051l-.747-.84.062.497.03.257.013.11c.026.217-.02-.199-.005-.047.039.377.08.754.113 1.13q.111 1.207.188 2.416c.118 1.806.192 3.615.238 5.424.098 3.745.08 7.496-.084 11.24a101 101 0 0 1-.098 1.858c-.013.217.013-.207-.005.07l-.023.335a68 68 0 0 1-.19 2.278c-.224 2.22-.5 4.433-.78 6.648a163 163 0 0 1-1.033 7.062q-.302 1.786-.667 3.562a96 96 0 0 1-.568 2.56q-.049.212-.102.424c-.049.199.028-.118-.02.081l-.062.24c-.478 1.904-.984 3.82-1.739 5.631a31 31 0 0 1-.336.775l-.1.217c.044-.094-.064.134-.087.18q-.064.135-.129.265-.142.287-.287.57a47 47 0 0 1-1.21 2.205 64 64 0 0 1-2.841 4.423 74 74 0 0 1-2.257 3.07q-.181.235-.362.466l-.18.228c-.067.084.01-.013.02-.026l-.128.16c-1.481 1.85-3.024 3.763-4.898 5.219-.827.641-1.705 1.175-2.768 1.225-1.196.055-2.42-.204-3.602-.356l-7.247-.93-14.624-1.874-14.624-1.876q-1.78-.227-3.56-.458l.43 2.17A61 61 0 0 0 8.19 58.497a74 74 0 0 0 4.71-12.393c1.264-4.479 2.152-9.062 2.717-13.687.613-5.036.86-10.119.852-15.192a168 168 0 0 0-.185-7.467 231 231 0 0 0-.334-5.607q-.034-.478-.071-.955-.016-.192-.029-.382-.008-.098-.012-.194c0-.032-.006-.306-.01-.139 0 .144-.006-.013.007-.036-.09.204-.018.05 0 .01-.005.013-.046.089-.044.102.008.055-.113.029-.005.018.108-.01.103-.05.195-.065.124-.021.25-.021.373-.026.53-.019.75-.744.724-1.189-.026-.444-.232-1.17-.781-1.151z"/><path stroke="#ffea07" stroke-width="2" d="M16.302.154c-.61.021-1.16.163-1.54.686-.38.524-.457 1.238-.424 1.872.07 1.259.188 2.515.265 3.771.156 2.508.27 5.018.326 7.528s.056 5.062-.018 7.593a122 122 0 0 1-.167 3.756l-.01.192c.01-.158-.003.052-.006.07l-.028.445q-.03.476-.07.953-.073.954-.16 1.903a101 101 0 0 1-.974 7.449 87 87 0 0 1-1.26 6.104c.038-.162-.006.02-.01.044l-.07.273c-1.084 4.284-2.508 8.486-4.326 12.506-.239.526-.372.814-.619 1.324a61 61 0 0 1-2.32 4.363 58 58 0 0 1-3.603 5.458c-.3.403-.657.869-.937 1.22a1.56 1.56 0 0 0-.313 1.33c.098.408.308.785.747.84l14.816 1.9 14.752 1.892 7.44.953q1.846.235 3.687.474c1.163.149 2.398.421 3.569.207 1.574-.288 2.932-1.39 4.072-2.49.86-.83 1.658-1.727 2.433-2.638a75 75 0 0 0 6.07-8.187c1.81-2.827 3.48-5.819 4.464-9.057 1.428-4.693 2.35-9.527 3.05-14.383.347-2.397.64-4.8.92-7.206.205-1.772.408-3.538.528-5.318.252-3.748.324-7.51.288-11.268-.036-3.594-.157-7.193-.496-10.771a67 67 0 0 0-.264-2.366c-.049-.383-.34-.825-.747-.84q-1.572-.06-3.143-.11-4.077-.137-8.159-.247Q48.37.225 42.671.125C38.435.06 34.197.013 29.955 0c-4.084-.01-8.172.013-12.254.115q-.7.016-1.399.037c-1.016.028-.963 2.368.057 2.337 4.038-.118 8.076-.154 12.118-.154 4.254 0 8.505.041 12.76.11q5.828.092 11.655.246 4.32.11 8.64.25 1.316.043 2.633.09c.4.013.809.055 1.207.044h.051l-.747-.84.062.497.03.257.013.11c.026.217-.02-.199-.005-.047.039.377.08.754.113 1.13q.111 1.207.188 2.416c.118 1.806.192 3.615.238 5.424.098 3.745.08 7.496-.084 11.24a101 101 0 0 1-.098 1.858c-.013.217.013-.207-.005.07l-.023.335a68 68 0 0 1-.19 2.278c-.224 2.22-.5 4.433-.78 6.648a163 163 0 0 1-1.033 7.062q-.302 1.786-.667 3.562a96 96 0 0 1-.568 2.56q-.049.212-.102.424c-.049.199.028-.118-.02.081l-.062.24c-.478 1.904-.984 3.82-1.739 5.631a31 31 0 0 1-.336.775l-.1.217c.044-.094-.064.134-.087.18q-.064.135-.129.265-.142.287-.287.57a47 47 0 0 1-1.21 2.205 64 64 0 0 1-2.841 4.423 74 74 0 0 1-2.257 3.07q-.181.235-.362.466l-.18.228c-.067.084.01-.013.02-.026l-.128.16c-1.481 1.85-3.024 3.763-4.898 5.219-.827.641-1.705 1.175-2.768 1.225-1.196.055-2.42-.204-3.602-.356l-7.247-.93-14.624-1.874-14.624-1.876q-1.78-.227-3.56-.458l.43 2.17A61 61 0 0 0 8.19 58.497a74 74 0 0 0 4.71-12.393c1.264-4.479 2.152-9.062 2.717-13.687.613-5.036.86-10.119.852-15.192a168 168 0 0 0-.185-7.467 231 231 0 0 0-.334-5.607q-.034-.478-.071-.955-.016-.192-.029-.382-.008-.098-.012-.194c0-.032-.006-.306-.01-.139 0 .144-.006-.013.007-.036-.09.204-.018.05 0 .01-.005.013-.046.089-.044.102.008.055-.113.029-.005.018.108-.01.103-.05.195-.065.124-.021.25-.021.373-.026.53-.019.75-.744.724-1.189-.026-.444-.232-1.17-.781-1.151z" mask="url(#b)"/><path fill="#ffea07" stroke="#ffea07" d="M33.349 9.642c.488.041.804.347.982.668q.076.14.126.289l.148.15-.104-.009c.05.182.076.362.085.523l.002.11c-.004.268-.07.603-.203.89-.143.306-.473.765-1.065.716l-.004-.002a2 2 0 0 0-.407.02H32.9c-.09.01-.184.029-.293.05l-.045.009-.064.018-.087.022a7 7 0 0 0-1.597.678l-.004.002c-.127.072-.248.152-.393.245l-.014.01-.034.026-.008.005c-.07.053-.117.087-.169.128l-.003.003a6 6 0 0 0-.7.64c-.063.07-.117.13-.169.192q0 .002-.003.003l-.026.034-.036.04c-.1.138-.19.263-.274.396a5 5 0 0 0-.247.435l-.025.05-.004.01c-.019.05-.04.1-.056.139l-.042.106-.002.008a4 4 0 0 0-.088.266l-.083.263-.012.055-.014.057-.049.284q-.026.179-.045.367v.006l-.007.073q-.003.274.007.546v.006l.042.245.002.01.01.024.012.038c.009.027.021.07.03.117l.002.017c.022.059.039.098.074.186.073.113.112.18.17.258l.012.015.017.02.045.044.027.029.007.008.006.006q.122.113.262.216l.024.015q.031.02.061.036l.035.022.033.022q.145.077.296.138h.002c.193.079.387.126.636.191l.017.003.029.005.148.021.007.001q.16.017.33.024a4.4 4.4 0 0 0 .922-.06l.01-.002.047-.01.021-.003q.159-.049.295-.107a1.1 1.1 0 0 1 .76-.34c.392-.007.737.205.96.527l.08.125c.17.298.25.642.257.97.008.376-.078.773-.28 1.104v.001c-.366.601-.991.846-1.495.969v-.001a5.6 5.6 0 0 1-2.017.132c-1.438-.176-2.877-.874-3.66-2.277-1.085-1.946-.939-4.5-.104-6.437v-.001c.737-1.707 2.001-3.046 3.609-3.914a8 8 0 0 1 1.777-.702v-.001q.184-.048.395-.097l-.224-.229zm-1.02 10.382a.6.6 0 0 1 .18-.12 1 1 0 0 0-.18-.158zm-3.512-.334v.004a.5.5 0 0 1-.073.117l.044.026.22-.402zm-.047-.279a.5.5 0 0 0-.289.186q.08.07.162.135.024-.026.046-.054a.5.5 0 0 0 .081-.235q.002-.016 0-.032Zm.084.024a.5.5 0 0 1-.037.255l.193-.26.008-.015-.023-.006a.5.5 0 0 0-.15-.01zm-.918-.675h-.005l.006.02.079.192.013-.007-.069-.203-.023-.003zm.145.18q.011-.006.023-.01.02-.007.039-.011a.7.7 0 0 0 .149-.115l-.21-.028zm-.274-1.165q0 .103.002.205a.5.5 0 0 0 .306-.102.5.5 0 0 0-.308-.103Zm0-.11a.5.5 0 0 1 .365.161.6.6 0 0 0 .075-.093q.015-.03.023-.053l-.463-.05zm.373-1.707c.1.049.22.073.352.052l-.31-.155zm.664-1.14a9 9 0 0 0-.216.308 1 1 0 0 0 .231.1c.143.016.25-.035.266-.042l.071-.04.008-.007zm1.323-1.231.293.379c.014-.017.033-.036.045-.053.036-.07.041-.308-.037-.514q-.153.092-.301.188Zm6.713-3.95c.535-.013.87.353 1.04.665.174.316.253.691.253.988v9.27c0 .273-.058.643-.21.965-.15.316-.46.71-1.002.724-.535.013-.87-.354-1.041-.665a2.15 2.15 0 0 1-.252-.987v-9.271c0-.273.058-.643.21-.965.15-.316.46-.71 1.002-.724Z"/><path fill="#ffea07" stroke="#ffea07" d="m41.775 17.124-.414-.184q.014-.013.033-.027a.5.5 0 0 1 .482-.048 6 6 0 0 1-.1.259Zm0 0-.42-.178-.06.057.429.226zm.32-.98-.447-.092c.108-.075.294-.09.472-.047q-.011.07-.024.139Zm0 0-.45-.089-.03.026h-.002l.464.138zm-1.118-3.808-.137.256-.113.15-.019-.022c-.004-.006-.06-.075-.087-.18a.5.5 0 0 1 .035-.338l.006-.012q.16.066.315.146Zm0 0 .036.023-.166.225zM36.87 9.13c1.142-.07 2.365-.202 3.621.097 2.234.532 3.307 2.332 3.621 4.287.313 1.942-.096 4.134-.902 5.704-.753 1.468-1.957 2.66-3.327 3.492l-.277.163c-.464.261-1.025.537-1.618.71-.59.171-1.249.251-1.888.08-.525-.142-.754-.615-.849-.953a2.7 2.7 0 0 1-.077-1.02c.04-.315.172-.663.411-.923a1.1 1.1 0 0 1 1.028-.354h.005l.019.003.013.002h.016l.013.001q.1.005.227-.008.144-.018.296-.046l.003-.001a3 3 0 0 1 .157-.043l.005-.002a6.7 6.7 0 0 0 1.64-.768l.005-.003q.056-.035.115-.076l.006-.005.028-.02.116-.08q.186-.135.359-.282l.004-.003q.383-.32.718-.689l.006-.006q.081-.087.165-.187l.015-.019.006-.008.009-.01.04-.048q.153-.204.289-.409.153-.236.278-.47l.049-.096.007-.017.005-.014.02-.04.044-.092.02-.04.006-.016q.111-.263.197-.537l.002-.008.058-.2.004-.016.028-.116q.031-.157.055-.31l.04-.31.007-.069v-.025a6 6 0 0 1 .012-.298c0-.222-.013-.446-.03-.678l-.005-.025q-.025-.149-.051-.284a8 8 0 0 1-.072-.275l-.002-.003-.079-.197v-.001c-.01-.024-.043-.089-.061-.134v-.002l-.015-.043q-.025-.035-.058-.076l-.065-.081c-.007-.01-.027-.032-.048-.057a1 1 0 0 1-.064-.07l-.012-.01a3 3 0 0 0-.273-.23h-.003l-.025-.014-.042-.025-.07-.048-.158-.078a3.4 3.4 0 0 0-.496-.182l-.005-.002c-.108-.032-.219-.054-.349-.082l-.11-.015-.09-.011c-.828-.096-1.625.01-2.553.067l-.995.063.23-.354a1.5 1.5 0 0 1-.292-.393 2.5 2.5 0 0 1-.248-.946l-.002-.118c.002-.281.066-.605.207-.886.16-.32.474-.679.986-.712zm2.575 10.248a.5.5 0 0 0-.147.014h-.003l.196.273-.197-.272q-.035.01-.05.017l-.033.013.273.408.085-.059q.127-.093.25-.192a.5.5 0 0 0-.374-.202Zm1.454-1.386a.5.5 0 0 0-.26.096l-.007.005.37.314q.118-.155.225-.314l-.04-.035a.9.9 0 0 0-.288-.066Zm.631-4.436.013.013.002-.02zm-.105-.201.003.013a.3.3 0 0 0 .063.146l.033.035.023-.008.002-.007.002-.025.015-.055.012-.033.01-.02.012-.025.005-.011a.5.5 0 0 1-.096-.016zm.468-.036v.003l.023-.001-.002-.003zm5.141-3.027c.533-.014.869.353 1.04.663.174.314.257.691.253.994l-.055 4.18-.055 4.178a2.4 2.4 0 0 1-.214.96c-.148.313-.456.708-.998.722-.533.013-.869-.352-1.04-.662a2.1 2.1 0 0 1-.253-.996l.056-4.18.054-4.178c.004-.27.063-.637.214-.958.148-.313.456-.71.998-.724Zm.883-4.588c.235.105.42.271.555.479l.012.018.01.02.123.232.009.016.007.016q.07.159.104.322c.121.151.215.318.282.487.177.439.194.908.087 1.345l-.002.002c-.07.284-.252.806-.755 1.023v.001a3.5 3.5 0 0 1-.553.2h-.001a4 4 0 0 1-.285.065l-.057.242-.107-.219c-.12.013-.248.018-.381-.002h-.006c-.092-.014-.29-.038-.472-.116a2 2 0 0 1-.397-.233 1.3 1.3 0 0 1-.21-.186c-.067-.073-.208-.214-.305-.387l.001-.001a2.8 2.8 0 0 1-.299-.74 2.3 2.3 0 0 1-.066-.564c0-.42.084-.922.36-1.339.169-.256.384-.472.688-.626.213-.11.447-.15.607-.17h.002c.237-.029.472-.002.674.033l.058-.058zM28.904 26.2c7.726-.127 15.485-.086 23.204.702h.001c.478.05.792.344.972.665.173.308.24.663.256.958l-.004.226a2.4 2.4 0 0 1-.197.77c-.14.304-.471.778-1.074.716v-.001a133 133 0 0 0-6.445-.497c-5.771-.311-11.553-.291-17.342-.189l-5.79.122c-.481.01-.823-.27-1.02-.591-.19-.311-.275-.694-.283-1.05-.008-.354.059-.74.234-1.06.181-.33.509-.625.99-.636 2.165-.05 4.333-.098 6.498-.134Zm-6.979 6.684c2.198.081 4.39.217 6.579.385l1.666.133a262 262 0 0 1 11.636 1.23c4.108.525 8.22 1.134 12.296 1.954h.002c.56.115.788.636.877.963.1.362.11.757.079 1.014v.001a1.65 1.65 0 0 1-.417.929 1.15 1.15 0 0 1-1.085.34c-2.1-.422-4.172-.771-6.346-1.103A252 252 0 0 0 34.09 37.1h-.001c-4.043-.402-8.093-.726-12.146-.878-.513-.02-.835-.35-1.008-.67a2.3 2.3 0 0 1-.253-.954 2.2 2.2 0 0 1 .202-.999c.148-.312.472-.736 1.039-.714zm-.842 7.512.6.095 6.481 1.023 8.105 1.287q3.986.633 7.97 1.27 1.518.24 3.036.484l3.035.484 2.417.385c.448.072.755.337.94.657.176.304.244.655.26.96l.003.136a2 2 0 0 1-.279.992 1.5 1.5 0 0 1-.333.37c-.115.09-.336.233-.614.22l-.047-.003q-.02 0-.033-.004-.013 0-.02-.003l-.006-.002a4 4 0 0 1-.501-.066c-.178-.033-.313-.062-.46-.086l-1.006-.161-1.007-.161-3.2-.51-3.2-.51c-2.694-.43-5.412-.865-8.08-1.289l-7.998-1.27q-3.06-.484-6.12-.964h-.003l-.039-.006a1.3 1.3 0 0 1-.942-.658c-.175-.304-.243-.655-.26-.96a2 2 0 0 1 .277-1.127 1.5 1.5 0 0 1 .334-.37.95.95 0 0 1 .575-.222zm31.543 8.355h.002l-.012-.002zm-33.446-.374h.004l.175.033.177.034.177.031-.001.001.026.004h.003c2.317.421 4.639.816 6.963 1.2q4.014.666 8.032 1.301h.001q3.807.605 7.618 1.194 2.856.441 5.711.876l2.228.337c.453.07.761.34.945.66.175.303.243.655.26.958l.002.136a2 2 0 0 1-.277.988c-.073.117-.19.26-.333.375-.129.101-.38.26-.69.212l-.014-.001-.004-.002c-.32-.017-.688-.1-.899-.133v-.001l-.941-.143-.945-.144a2458 2458 0 0 1-9.989-1.543l-3.902-.617a915 915 0 0 1-8.017-1.304 377 377 0 0 1-6.84-1.197l-.409-.077v-.11c-.28-.213-.416-.55-.48-.783a2.9 2.9 0 0 1-.076-1.016c.04-.33.171-.675.419-.93.263-.273.641-.42 1.076-.34Zm.574.613.348.063c.007-.02.017-.039.02-.057a.9.9 0 0 0-.128-.363c-.072-.08-.153-.115-.155-.116q-.025-.012-.04-.016z"/><mask id="c" width="17" height="15" x="29.488" y="55.767" fill="#000" maskUnits="userSpaceOnUse"><path fill="#fff" d="M29.488 55.767h17v15h-17z"/><path d="M32.053 65.748a77 77 0 0 1 .018-5.107l.017-.421c-.007.24-.005.063 0 .013q.012-.126.026-.251l.028-.2c.005-.03.054-.232.018-.101-.028.099.065-.181.088-.228-.098.201.159-.165.051-.055.128-.134.072-.097.203-.162.354-.178.752-.181 1.132-.045.418.15.77.484.993.78.347.458.583.906.807 1.369q.409.847.719 1.738c.192.55.305.945.446 1.591q.096.43.167.87a15 15 0 0 1 .1.698l.013.118-.002-.016c.01.157.028.314.038.472.003.054.044.272.01.306.02-.019.034-.236.003-.06-.01.055-.015.11-.026.165.008-.04.018-.233.003-.05l.046-.1q-.074.114-.013.026c.003-.005.075-.089.09-.07a1 1 0 0 1-.139.06c.106-.05.013-.005-.023-.021.165.07.008-.029 0-.016.039-.083.072.236 0-.005 0 0-.136-.17 0 .008-.01-.013-.074-.084-.07-.102q-.056-.094.019.047l-.039-.079c-.03-.076-.12-.377-.064-.138a5 5 0 0 1-.074-.372q-.035-.214-.067-.43-.019-.122-.033-.245c-.01-.084-.01-.081 0 0l-.013-.123a9 9 0 0 1-.034-.927c.003-.204-.015.147 0-.058q.011-.12.026-.243a4 4 0 0 1 .039-.243c.007-.037.074-.29.02-.11q.045-.157.103-.31l.07-.172c.063-.146-.07.126.01-.013.053-.094.105-.191.164-.283q.051-.078.105-.151c-.09.123.082-.095.085-.1.297-.322.598-.542 1.022-.626.482-.094.97.03 1.427.294a3 3 0 0 1 .298.22q.15.124.287.267c.136.138.065.073.039.041a4 4 0 0 1 .257.359c.018.029.11.188.056.089.077.147.141.304.198.46q.039.106.072.21c.061.191-.054-.243.025.1q.06.247.103.494l.026.168c0 .016.036.371.018.138.023.322.043.642.048.964 0 .076-.005.151 0 .225.016.186.044-.236 0-.01-.04.211 0-.024.01-.042.08-.118.124-.239.286-.27l.665.563a5 5 0 0 1-.21-.453q-.052-.13-.099-.262c.039.113.003.016-.012-.042-.041-.162-.064-.327-.098-.492-.026-.128 0 .139-.005-.078 0-.074-.008-.15-.008-.223 0 .008.005-.314 0-.178-.005.123.01-.1.013-.123q.025-.244.085-.484c-.051.204.013-.021.026-.06.025-.082.056-.16.084-.239.02-.052.06-.136.01-.036q.056-.114.121-.22c.16-.272.224-.353.483-.573.167-.142.395-.26.647-.328.133-.036.49-.06.654-.033.07.01.234.06.334.104.167.073.134.058.275.178.408.346.878-.005 1.02-.445.16-.502.122-1.227-.309-1.594-.652-.552-1.484-.696-2.295-.49-.811.207-1.487.828-1.913 1.555-.993 1.691-.973 4.003-.072 5.727.118.226.34.626.665.563.96-.188 1.15-1.256 1.15-2.11s-.056-1.651-.238-2.447c-.35-1.531-1.204-3.023-2.693-3.63-1.4-.57-2.786.052-3.643 1.235-1.033 1.43-1.038 3.3-.817 4.981.1.77.239 1.563.683 2.212.395.576 1.094.974 1.748.563.712-.448.891-1.403.889-2.194s-.134-1.646-.28-2.444a17.6 17.6 0 0 0-1.502-4.568c-.632-1.282-1.476-2.842-2.976-3.18-.76-.17-1.581-.047-2.159.523-.65.644-.857 1.59-.916 2.48-.131 1.973-.121 3.965-.062 5.94.013.443.239 1.166.78 1.152.542-.013.737-.756.725-1.188z"/></mask><path fill="#ffea07" d="M32.053 65.748a77 77 0 0 1 .018-5.107l.017-.421c-.007.24-.005.063 0 .013q.012-.126.026-.251l.028-.2c.005-.03.054-.232.018-.101-.028.099.065-.181.088-.228-.098.201.159-.165.051-.055.128-.134.072-.097.203-.162.354-.178.752-.181 1.132-.045.418.15.77.484.993.78.347.458.583.906.807 1.369q.409.847.719 1.738c.192.55.305.945.446 1.591q.096.43.167.87a15 15 0 0 1 .1.698l.013.118-.002-.016c.01.157.028.314.038.472.003.054.044.272.01.306.02-.019.034-.236.003-.06-.01.055-.015.11-.026.165.008-.04.018-.233.003-.05l.046-.1q-.074.114-.013.026c.003-.005.075-.089.09-.07a1 1 0 0 1-.139.06c.106-.05.013-.005-.023-.021.165.07.008-.029 0-.016.039-.083.072.236 0-.005 0 0-.136-.17 0 .008-.01-.013-.074-.084-.07-.102q-.056-.094.019.047l-.039-.079c-.03-.076-.12-.377-.064-.138a5 5 0 0 1-.074-.372q-.035-.214-.067-.43-.019-.122-.033-.245c-.01-.084-.01-.081 0 0l-.013-.123a9 9 0 0 1-.034-.927c.003-.204-.015.147 0-.058q.011-.12.026-.243a4 4 0 0 1 .039-.243c.007-.037.074-.29.02-.11q.045-.157.103-.31l.07-.172c.063-.146-.07.126.01-.013.053-.094.105-.191.164-.283q.051-.078.105-.151c-.09.123.082-.095.085-.1.297-.322.598-.542 1.022-.626.482-.094.97.03 1.427.294a3 3 0 0 1 .298.22q.15.124.287.267c.136.138.065.073.039.041a4 4 0 0 1 .257.359c.018.029.11.188.056.089.077.147.141.304.198.46q.039.106.072.21c.061.191-.054-.243.025.1q.06.247.103.494l.026.168c0 .016.036.371.018.138.023.322.043.642.048.964 0 .076-.005.151 0 .225.016.186.044-.236 0-.01-.04.211 0-.024.01-.042.08-.118.124-.239.286-.27l.665.563a5 5 0 0 1-.21-.453q-.052-.13-.099-.262c.039.113.003.016-.012-.042-.041-.162-.064-.327-.098-.492-.026-.128 0 .139-.005-.078 0-.074-.008-.15-.008-.223 0 .008.005-.314 0-.178-.005.123.01-.1.013-.123q.025-.244.085-.484c-.051.204.013-.021.026-.06.025-.082.056-.16.084-.239.02-.052.06-.136.01-.036q.056-.114.121-.22c.16-.272.224-.353.483-.573.167-.142.395-.26.647-.328.133-.036.49-.06.654-.033.07.01.234.06.334.104.167.073.134.058.275.178.408.346.878-.005 1.02-.445.16-.502.122-1.227-.309-1.594-.652-.552-1.484-.696-2.295-.49-.811.207-1.487.828-1.913 1.555-.993 1.691-.973 4.003-.072 5.727.118.226.34.626.665.563.96-.188 1.15-1.256 1.15-2.11s-.056-1.651-.238-2.447c-.35-1.531-1.204-3.023-2.693-3.63-1.4-.57-2.786.052-3.643 1.235-1.033 1.43-1.038 3.3-.817 4.981.1.77.239 1.563.683 2.212.395.576 1.094.974 1.748.563.712-.448.891-1.403.889-2.194s-.134-1.646-.28-2.444a17.6 17.6 0 0 0-1.502-4.568c-.632-1.282-1.476-2.842-2.976-3.18-.76-.17-1.581-.047-2.159.523-.65.644-.857 1.59-.916 2.48-.131 1.973-.121 3.965-.062 5.94.013.443.239 1.166.78 1.152.542-.013.737-.756.725-1.188z"/><path fill="#ffea07" d="m32.053 65.748-.145.99 1.18.171-.036-1.19zm-.013-4.138 1 .024zm.03-.969 1 .04v-.003zm.018-.421 1 .032-1.999-.069zm0 .013.995.103.001-.012zm.026-.251.993.121v-.005zm.028-.2-.987-.16v.006zm.018-.101.962.273.003-.009zm.088-.228.9.435-1.798-.875zm.051-.055-.72-.693 1.434 1.393zm.203-.162.447.894h.002zm1.132-.045-.337.941.001.001zm.993.78-.797.603zm.807 1.369.9-.434zm.719 1.738-.946.327.002.004zm.446 1.591-.977.214.001.004zm.167.87-.988.155.002.008zm.07.465.991-.13v-.001zm.03.233.994-.108-.001-.013-.002-.013zm.013.118-.994.108 1.988-.216zm-.002-.016.997-.065-.001-.026-.003-.027zm.038.472.999-.047v-.01l-.001-.009zm.01.306-.714-.7 1.38 1.446zm.003-.06.983.183.002-.01zm-.026.165-.983-.184 1.965.376zm.003-.05-.997-.084 1.904.505zm.046-.1.907.422-1.748-.962zm-.013.026.814.581.048-.067.036-.073zm.09-.07-.765.643.024.03.027.027zm-.139.06-.427-.904.75 1.85zm-.023-.021.395-.919-.795 1.835zm0-.016-.908-.417 1.77.924zm0-.005.959-.286-.056-.187-.122-.151zm0 .008-.786.617 1.58-1.224zm-.07-.102.964.27.118-.42-.228-.373zm.019.047-.888.46 1.786-.9zm-.039-.079-.926.376.013.033.016.032zm-.064-.138-.97.243 1.943-.474zm-.074-.372-.988.159v.002zm-.067-.43.99-.14-.001-.008-.001-.007zm-.046-.368-.997.083.001.01.001.01zm-.034-.927 1 .017v-.004zm0-.058-.995-.094-.001.01v.01zm.065-.486-.979-.206-.002.01-.002.01zm.02-.11-.96-.283 1.918.569zm.103-.31-.928-.371-.004.01-.004.009zm.07-.172-.917-.401-.006.014-.006.015zm.01-.013.867.498v-.001zm.164-.283.84.542.003-.004zm.105-.151.81.585-1.617-1.175zm.085-.1-.734-.679-.1.107-.064.132zm1.022-.626-.192-.98h-.002zm1.427.294-.5.865 1.007-1.727zm.064.042.568-.823-1.282 1.523zm.234.178-.645.764.003.003zm.475.505-.813.582.007.01zm.108.162-.855.52.006.01zm.056.089.88-.477-1.765.942zm.198.46-.941.34v.002zm.072.21-.96.28.003.013.005.014zm.025.1-.974.226v.001zm.103.494-.986.169.002.008.001.007zm.026.168h1v-.07l-.01-.069zm.018.138.997-.076-1.995.148zm.048.964h1v-.016zm0 .225-.997.07v.012zm0-.01-.981-.191zm.01-.042-.828-.56-.023.034-.02.037zm.286-.27.646-.763-.366-.31-.471.091zm.665.563-.646.763 1.53-1.229zm-.21-.453-.934.36.004.01zm-.099-.262.946-.327-1.892.65zm-.012-.042-.97.246.004.013zm-.098-.492-.98.196v.002zm-.005-.078h-1v.023zm-.008-.4 1 .04v-.003zm.013-.124-.994-.11v.002zm.085-.484.97.244-1.939-.493zm.026-.06.95.31.003-.009zm.084-.239-.93-.365-.006.014-.005.013zm.01-.036-.903-.428 1.801.868zm.121-.22.851.525.006-.01.006-.01zm.483-.573-.647-.763zm.647-.328.26.966.005-.001zm.654-.033-.157.987.008.001zm.334.104-.406.914.004.002zm.275.178-.649.761.003.002zm1.02-.445-.953-.306zm-.309-1.594.648-.762h-.002zm-4.208 1.066.862.506.001-.001zm-.072 5.727-.886.462v.002zm.665.562.19.982h.003zm.912-4.557-.975.223zm-2.693-3.63-.378.926zm-3.643 1.235-.81-.587-.001.002zm-.817 4.981.992-.129v-.001zm.683 2.212-.825.565v.001zm1.748.563.532.847h.001zm.609-4.638.983-.18v-.001zm-1.502-4.568.897-.44v-.002zm-2.976-3.18.22-.976h-.001zm-2.159.523-.703-.711v.001zm-.916 2.48-.998-.067zm-.062 5.94 1-.028v-.001zm1.505-.036.144-.99-1.18-.171.036 1.19zm.018.003.999-.03a76 76 0 0 1-.013-4.084l-1-.024-1-.025a78 78 0 0 0 .014 4.193zm-.013-4.138 1 .023q.01-.477.03-.952l-1-.04-.999-.04q-.02.491-.031.985zm.03-.969 1 .037a21 21 0 0 1 .018-.422l-1-.036-.999-.037-.008.202-.01.22zm.018-.421-1-.032-.002.089.002-.023q0-.01.004-.036l.006-.044a1 1 0 0 1 .098-.292c.023-.041.087-.139.131-.193.073-.076.287-.229.431-.292.2-.046.599-.016.782.056.124.076.302.238.361.314.097.138.134.267.142.294a1 1 0 0 1 .038.214l.002.057v.019l.001-.023v.008l-.996-.103-.994-.103a3 3 0 0 0-.01.19v.03a1 1 0 0 0 .007.114c.001.01.009.078.033.161.008.027.045.156.142.294.059.075.237.238.361.314.184.072.583.102.782.055.145-.062.358-.215.431-.291a1 1 0 0 0 .202-.369 1 1 0 0 0 .04-.226l.001-.025.005-.125zm0 .013.996.091c.008-.086.014-.154.023-.22l-.993-.122-.992-.122c-.013.101-.022.2-.03.281zm.026-.251.993.117.023-.161-.988-.155-.988-.155c-.01.067-.023.151-.033.237zm.028-.2.987.162a2 2 0 0 0 .031-.145 1.002 1.002 0 0 0-1.616-.94 1 1 0 0 0-.255.31 1 1 0 0 0-.056.128l-.02.06-.017.059.964.265.965.264.002-.01-.003.012-.012.033a1 1 0 0 1-.31.434 1 1 0 0 1-1.612-.958l-.014.062c-.001.007-.013.06-.02.103zm.018-.101-.962-.274-.01.04-.01.04a1 1 0 0 0 .049.587 1 1 0 0 0 .844.624c.426.036.698-.205.74-.24a1 1 0 0 0 .245-.322c.02-.042.034-.079.035-.08l.036-.1c.04-.11.04-.107.018-.063l-.897-.44-.898-.44c-.045.091-.102.258-.108.275l-.015.043a1 1 0 0 1 .067-.138 1 1 0 0 1 .206-.247c.041-.035.313-.277.739-.24a1 1 0 0 1 .913 1.069c-.005.076-.02.135-.02.135l-.007.032-.003.012zm.088-.228-.9-.436-.038.083a1.2 1.2 0 0 0-.081.321 1.004 1.004 0 0 0 1.777.728 1.6 1.6 0 0 0 .261-.43 1 1 0 0 0 .046-.502 1.002 1.002 0 0 0-1.64-.601 1 1 0 0 0-.088.082l.714.7.714.7c-.004.004-.024.025-.056.051a.94.94 0 0 1-.385.197.998.998 0 0 1-1.11-1.466l.008-.01.023-.029c.007-.008.026-.03.053-.056a.96.96 0 0 1 .437-.24 1 1 0 0 1 1.21 1.216 1 1 0 0 1-.037.108q-.01.022-.008.02zm.051-.055.72.693q.065-.066.089-.095l.006-.007-.005.006a.8.8 0 0 1-.159.13l-.056.032.008-.004.047-.023-.447-.894-.447-.895-.035.017-.048.024a1.2 1.2 0 0 0-.311.233l-.036.04-.047.05zm.203-.162.449.893c.072-.036.18-.055.346.004l.337-.942.337-.941c-.595-.214-1.282-.228-1.918.092zm1.132-.045-.336.942a1 1 0 0 1 .268.163c.1.084.192.183.264.278l.797-.603.799-.602c-.287-.38-.784-.88-1.456-1.12zm.993.78-.797.604c.288.38.49.758.703 1.2l.9-.435.901-.434c-.233-.485-.503-1.002-.909-1.538zm.807 1.369-.901.434q.386.8.674 1.63l.946-.326.945-.327a17 17 0 0 0-.763-1.845zm.719 1.738-.944.33c.178.51.28.866.413 1.475l.977-.214.977-.213a13 13 0 0 0-.48-1.709zm.446 1.591-.976.218q.091.405.155.807l.988-.156.988-.155q-.075-.476-.179-.931zm.167.87-.986.163q.035.216.064.434l.992-.132.99-.132a16 16 0 0 0-.073-.498zm.07.465-.992.13.031.237.991-.134.991-.134-.03-.228zm.03.233-.994.109.013.117.994-.108.994-.108-.013-.118zm.013.118.994-.108-.013-.112-.003-.019-.01-.05-.023-.086a.999.999 0 0 0-1.882-.073c-.052.128-.063.238-.065.254-.008.064-.007.115-.007.122 0 .03.002.055.002.059l.001.02.004.035.006.06.993-.118.994-.118-.004-.033v.013l.002.018c0 .003.002.027.002.057 0 .007 0 .058-.007.121-.002.016-.013.126-.065.255a1 1 0 0 1-1.828.063 1 1 0 0 1-.054-.137c-.014-.043-.021-.077-.023-.086-.013-.058-.018-.117-.013-.072l.005.043zm-.002-.016-.998.066c.006.092.014.183.02.26.008.08.014.146.018.21l.998-.064.998-.066-.021-.26-.018-.21zm.038.472-.999.046c.002.044.007.082.008.096l.007.052.007.064c.002.02 0 .002 0-.038.001-.018.003-.076.02-.152a.95.95 0 0 1 .253-.463l.714.7.714.701a1.04 1.04 0 0 0 .272-.504 1.4 1.4 0 0 0 .027-.22 2 2 0 0 0-.01-.22l-.014-.124c-.006-.051-.002-.023 0 .015zm.01.306.666.746a1 1 0 0 0 .298-.468 1.6 1.6 0 0 0 .056-.326 1 1 0 0 0-.02-.279 1 1 0 0 0-.113-.3c-.066-.114-.386-.581-1.01-.491a1 1 0 0 0-.678.417 1 1 0 0 0-.135.274 1 1 0 0 0-.046.194l.985.173.985.173c.002-.014.002-.008-.002.008a1 1 0 0 1-.047.142 1 1 0 0 1-.277.375 1 1 0 0 1-.5.223c-.623.09-.943-.376-1.009-.49a.96.96 0 0 1-.13-.529l.006-.06a1 1 0 0 1 .072-.217 1 1 0 0 1 .234-.311zm.003-.06-.983-.184c-.01.053-.017.103-.02.127l-.006.038.983.184.983.183c.01-.053.017-.103.02-.127l.006-.038zm-.026.165.981.192c.02-.102.027-.233.028-.248l.002-.074c0-.008 0-.04-.004-.08a1 1 0 0 0-.102-.364c-.019-.039-.202-.427-.682-.531-.572-.124-.919.263-.982.338a1 1 0 0 0-.151.25 1 1 0 0 0-.068.239c-.008.05-.013.114-.016.144l.997.084.996.084c.005-.062.005-.042 0-.006-.002.005-.007.038-.017.08-.003.012-.018.077-.05.154a1 1 0 0 1-1.134.587c-.48-.104-.663-.492-.682-.53a1 1 0 0 1-.08-.222c-.016-.07-.02-.128-.022-.141l-.003-.076v-.041.009l-.001.015c-.003.03-.001-.004.009-.056zm.003-.05.907.421.046-.1-.907-.42-.907-.422-.046.1zm.046-.1-.841-.54-.03.047-.015.022-.01.018-.029.05c-.003.006-.026.049-.048.106a1.002 1.002 0 0 0 1.642 1.066c.032-.032.054-.059.06-.065l.03-.039.012-.016.03-.042-.814-.58-.814-.581-.014.02.006-.009.027-.034a1 1 0 0 1 .342-.264 1 1 0 0 1 1.418 1.026.9.9 0 0 1-.108.345c-.024.046-.053.088-.003.01zm-.013.026.898.44a1 1 0 0 1-.118.186l-.018.021-.031.032a.97.97 0 0 1-.492.235.99.99 0 0 1-.914-.34l.765-.644.765-.644a1.01 1.01 0 0 0-1.299-.212 1.2 1.2 0 0 0-.292.248 2 2 0 0 0-.09.115 1 1 0 0 0-.072.123zm.09-.07-.714.7a1 1 0 0 1 .011-1.41c.085-.084.165-.132.176-.139a1 1 0 0 1 .081-.044c.013-.006.017-.007.004-.002-.03.013-.042.016-.018.008l.321.947.322.947a3 3 0 0 0 .228-.093c.012-.005.057-.027.108-.058a1 1 0 0 0 .195-1.556zm-.139.06.428.904.034-.016c.002-.001.034-.016.066-.034q.016-.008.054-.031c.014-.01.073-.047.139-.106a.999.999 0 0 0-.566-1.736 1 1 0 0 0-.272.008l-.041.008c-.024.005.02-.005.071-.01a.9.9 0 0 1 .465.076l-.4.916-.401.916c.26.114.495.086.532.082.074-.007.143-.022.133-.02l-.008.001-.024.004-.062.009c-.015.001-.1.01-.205-.001a1 1 0 0 1-.566-1.735c.065-.058.123-.095.137-.104l.05-.03.01-.005zm-.023-.021-.395.919q.047.02.107.042a1.01 1.01 0 0 0 1.005-.17 1 1 0 0 0 .215-1.283 1.1 1.1 0 0 0-.275-.3 1.3 1.3 0 0 0-.376-.186 1 1 0 0 0-1.143.455l.862.507.862.507a1 1 0 0 1-1.125.455c-.078-.022-.133-.049-.146-.055a.7.7 0 0 1-.192-.131c-.016-.015-.105-.094-.182-.223a.997.997 0 0 1 1.166-1.46l.012.004zm0-.016.909.418a.991.991 0 0 1-1.771.038.9.9 0 0 1-.09-.294l-.005-.076a.9.9 0 0 1 .061-.351.994.994 0 0 1 1.027-.644 1 1 0 0 1 .818.593c.011.028.014.041.01.025l-.959.286-.958.286c.013.044.031.1.054.157a1.2 1.2 0 0 0 .13.235 1.004 1.004 0 0 0 1.81-.722 1.2 1.2 0 0 0-.12-.411 1.01 1.01 0 0 0-1.824.043zm0-.005.781-.625-.002-.002-.004-.006-.06-.072-.035-.041c-.005-.005-.023-.025-.046-.047a1 1 0 0 0-.201-.15c-.026-.015-.202-.12-.455-.13a1 1 0 0 0-1.003.736c-.074.273-.008.495-.001.523.031.118.08.203.083.21a1 1 0 0 0 .068.11c.02.03.05.07.08.11l.795-.608.795-.607-.034-.044.015.021c.002.003.024.036.047.08a.996.996 0 0 1-.31 1.287 1 1 0 0 1-1.31-.142l-.013-.015-.005-.006-.002-.002.002.002.005.006.013.016.012.015.003.004.001.002zm0 .008.787-.617-.03-.037-.008-.01q-.007-.007.002.003s.024.03.052.079a.9.9 0 0 1 .12.36 1 1 0 0 1-.03.39l-.962-.27-.963-.27a1 1 0 0 0 .105.793c.039.067.079.12.096.141.02.028.04.051.05.064.027.03.006.006-.005-.009zm-.07-.102.854-.523-.042-.065a1 1 0 0 0-.066-.089c-.01-.012-.053-.064-.118-.12a1 1 0 0 0-1.128-.12 1 1 0 0 0-.511 1.037c.014.087.036.151.041.166l.021.057c.026.062.074.152.08.164l.888-.46.888-.46c-.043-.083-.023-.047-.004 0q.007.015.02.053a1.001 1.001 0 0 1-1.597 1.08 1 1 0 0 1-.152-.164l-.025-.033c-.009-.013-.012-.02 0 0zm.019.047.898-.44-.039-.079-.898.44-.897.44.038.08zm-.039-.079.927-.376-.01-.03-.038-.111-.032-.086c-.001-.002-.029-.072-.076-.15a1 1 0 0 0-.416-.375 1 1 0 0 0-1.079.133c-.257.216-.319.486-.331.538a1 1 0 0 0-.025.29 1 1 0 0 0 .021.16l.022.1.973-.231.973-.231-.007-.031.002.011a1 1 0 0 1 .012.105c0 .006.011.132-.025.285-.012.052-.073.322-.33.537a1 1 0 0 1-1.079.133 1 1 0 0 1-.482-.507l-.008-.02.03.09c.009.026.03.09.052.142zm-.064-.138.97-.243a4 4 0 0 1-.057-.29l-.987.161-.987.161q.033.211.091.454zm-.074-.372.987-.158c-.024-.149-.045-.28-.064-.412l-.99.14-.99.142c.022.155.047.307.07.447zm-.067-.43.988-.156c-.01-.062-.018-.127-.03-.215l-.991.126-.992.125c.009.075.021.177.037.277zm-.033-.245.992-.122-.006-.05-.002-.013v-.008l-.002-.01-.004-.024-.003-.02-.014-.06-.036-.115c-.045-.1-.517-.55-1.058-.632-.503.214-.849.765-.868.872-.004.04-.007.1-.007.12 0 .032.002.057.002.062l.001.02.002.017.001.011v.008l.002.007.002.014q0 .017.006.048zl.992-.126-.006-.046.001.011.003.037a1 1 0 0 1-.005.182c-.02.107-.365.658-.868.872-.542-.083-1.013-.533-1.058-.632l-.037-.115-.013-.06-.007-.044-.001-.009v-.002.01l.006.043zm0 0 .994-.104-.013-.123-.994.104-.995.104.013.123zm-.013-.123.996-.083a8 8 0 0 1-.03-.827l-1-.017-1-.017q-.006.522.037 1.027zm-.034-.927 1 .013v-.116l-.002-.021-.002-.031-.003-.023a1 1 0 0 0-.027-.144 1 1 0 0 0-.09-.226l-.041-.069-.061-.082a2 2 0 0 0-.09-.097 2 2 0 0 0-.136-.106 2 2 0 0 0-.192-.099c-.058-.02-.18-.05-.244-.059a2 2 0 0 0-.26.005c-.062.01-.176.042-.23.063-.047.02-.134.066-.173.09a2 2 0 0 0-.121.095l-.083.084-.056.072a2 2 0 0 0-.069.108 1 1 0 0 0-.116.373l-.002.022-.003.032-.002.026v.024l-.002.026v.092l.002.029a1 1 0 0 0 .03.18l.014.05.025.07.045.097c.018.032.061.1.088.137.036.045.126.137.182.184.073.052.248.14.349.174.114.025.345.033.46.017.099-.025.272-.097.346-.14.056-.04.15-.118.188-.157.028-.032.076-.092.096-.12.016-.023.042-.067.053-.087l.052-.111a1 1 0 0 0 .043-.14l.009-.039.004-.025.005-.03.002-.018.004-.033.003-.033.003-.04-.998-.075-.997-.075-.002.026v.007-.006l.003-.023.004-.027a1 1 0 0 1 .257-.52 2 2 0 0 1 .188-.156 2 2 0 0 1 .346-.14 1.7 1.7 0 0 1 .46.017c.101.033.276.123.349.174.055.047.146.14.182.184.026.036.07.105.087.137.014.026.036.074.045.097a1 1 0 0 1 .07.327l.002.047v.022q0 .004 0 0v.007l-.002.013a1 1 0 0 1-.031.154 1 1 0 0 1-.15.312 1 1 0 0 1-.434.34c-.054.02-.169.053-.23.064-.064.007-.194.01-.26.004a1 1 0 0 1-.883-.899l-.003-.043v-.017.02zm0-.058.996.095c.008-.084.014-.15.022-.212l-.992-.126-.992-.125c-.012.099-.022.195-.03.274zm.026-.243.992.126q.011-.09.03-.183l-.983-.186-.983-.187q-.028.152-.048.305zm.039-.243.978.205.006-.022.021-.086a2 2 0 0 0 .026-.126 1.003 1.003 0 0 0-.959-1.145 1 1 0 0 0-.679.238 1.03 1.03 0 0 0-.293.42l-.017.05-.021.07.958.286.958.286.006-.02-.007.02a1 1 0 0 1-.067.143 1 1 0 0 1-1.852-.675l.003-.015q.003-.014 0 .001l-.04.164zm.02-.11.96.282q.037-.128.078-.238l-.935-.353-.936-.353a5 5 0 0 0-.126.38zm.103-.31.928.373.035-.086.034-.086-.928-.373-.928-.372-.035.086-.034.087zm.07-.172.915.401.015-.035.018-.042a1 1 0 0 0 .053-.191 1 1 0 0 0-.044-.52 1 1 0 0 0-.184-.312 2 2 0 0 0-.185-.166 2 2 0 0 0-.241-.124 1 1 0 0 0-1.18.418l-.024.04a1 1 0 0 0-.075.153 1.1 1.1 0 0 0-.081.32 1.004 1.004 0 0 0 .776 1.061 1 1 0 0 0 1.09-.479q.014-.02.024-.04l-.868-.497-.867-.498-.002.004.017-.027a1 1 0 0 1 .193-.212 1 1 0 0 1 .359-.188 1 1 0 0 1 1.235 1.238q-.013.043-.02.06l-.016.041-.005.012-.001.003-.001.002-.003.006-.013.023-.02.034a1 1 0 0 1-.135.171 1 1 0 0 1-.29.206 1 1 0 0 1-.753.037 2 2 0 0 1-.241-.123 2 2 0 0 1-.185-.166 1 1 0 0 1-.2-.947l.01-.03.01-.03.007-.014-.005.01zm.01-.013.867.497c.076-.132.097-.176.137-.238l-.84-.542-.84-.541c-.079.12-.16.27-.192.327zm.164-.283.843.538c.015-.024.034-.05.073-.104l-.811-.585-.81-.586a4 4 0 0 0-.139.2zm.105-.151-.807-.59-.047.065-.022.036a1 1 0 0 0-.058.108 1 1 0 0 0 1.662 1.077l.024-.028a3 3 0 0 0 .117-.147l.03-.041.02-.028a1 1 0 0 0 .064-.112l-.898-.44-.898-.44a1 1 0 0 1 .063-.111l.019-.027.015-.021-.012.016-.041.051-.01.012.003-.003.007-.009.019-.02c.005-.005.028-.03.06-.058a1 1 0 0 1 1.305-.02 1 1 0 0 1 .345.932 1 1 0 0 1-.133.356l-.018.028-.002.003zm.085-.1.734.68c.215-.234.34-.296.481-.325l-.194-.98-.193-.982c-.705.14-1.182.517-1.562.928zm1.022-.626.191.982c.183-.036.424-.003.735.177l.501-.865.5-.866c-.602-.349-1.336-.562-2.12-.409zm1.427.294.507-.862-.05-.029-.043-.021-.059-.026a1 1 0 0 0-.234-.063 1 1 0 0 0-.389.022 2 2 0 0 0-.261.108 1.8 1.8 0 0 0-.294.266c-.06.09-.146.284-.173.384a1 1 0 0 0 .288.934c.03.03.056.05.066.058a1 1 0 0 0 .114.08l.048.03.025.016.029.016.02.011.053.026a1 1 0 0 0 .398.091c.058 0 .199-.016.28-.034.113-.038.355-.177.473-.286a1.8 1.8 0 0 0 .264-.618c0-.12-.032-.32-.057-.4a2 2 0 0 0-.087-.182l-.064-.092a1 1 0 0 0-.076-.088l-.714.7-.714.7a1 1 0 0 1-.227-.36 1.8 1.8 0 0 1-.057-.4c.023-.16.154-.475.264-.619.119-.108.36-.248.473-.286.081-.018.222-.034.28-.034.042.002.116.009.147.013l.084.018a1 1 0 0 1 .254.105l.006.003q.004.003-.002 0l-.028-.018-.005-.003-.001-.001h.001l.005.004.01.006.024.018.028.021c.009.008.035.028.065.057a1 1 0 0 1 .303.607c.006.074 0 .239-.015.328a1.8 1.8 0 0 1-.174.384 1.8 1.8 0 0 1-.293.265c-.07.037-.2.09-.262.109a1 1 0 0 1-.68-.066l-.04-.02-.013-.008-.005-.003h.001zm.064.042-.568.822q.085.06.157.12l.645-.764.645-.765a4 4 0 0 0-.31-.236zm.234.178-.642.767q.107.089.215.2l.714-.7.714-.7a5 5 0 0 0-.36-.334zm.287.267-.714.7.05.05a1 1 0 0 1-.057-.07 1 1 0 0 1 .238-1.422 1 1 0 0 1 .675-.167c.211.023.36.112.371.118a1 1 0 0 1 .157.107l.024.02.02.019.013.012.036.042-.774.632-.774.633a2 2 0 0 0 .119.128l.028.026a1 1 0 0 0 .186.132 1 1 0 0 0 1.382-1.313 1 1 0 0 0-.132-.204l-.135-.144zm.039.041-.774.633q.047.059.11.146l.813-.582.813-.583a5 5 0 0 0-.188-.246zm.149.197-.806.592q.026.035.059.089l.855-.519.854-.519a3 3 0 0 0-.157-.236zm.108.162-.849.53.012.02.034.056.02.033.017.027.047.066c.008.01.033.042.068.079a1 1 0 0 0 .103.095c.025.02.171.139.4.19a1 1 0 0 0 1.11-.517c.14-.273.109-.524.106-.553-.012-.13-.049-.227-.05-.233a1 1 0 0 0-.083-.18l-.879.476-.88.477q.01.015.003.003l-.007-.015-.02-.043-.024-.062c-.002-.006-.038-.103-.05-.232a1 1 0 0 1 1.217-1.07c.227.05.373.17.398.19a1 1 0 0 1 .195.205l.019.028.01.016-.004-.007-.065-.108zm.056.089-.885.465q.071.136.142.334l.94-.338.942-.339a5 5 0 0 0-.254-.587zm.198.46-.94.342c.032.088.042.116.051.147l.96-.279.96-.279c-.031-.11-.072-.218-.091-.272zm.072.21-.952.307a2 2 0 0 0 .055.148l.01.022a1 1 0 0 0 .178.26l.088.083.064.05c.02.013.063.04.087.053a1 1 0 0 0 .454.127c.053 0 .16-.007.215-.016.055-.011.162-.044.214-.064.05-.023.142-.075.185-.104a2 2 0 0 0 .14-.12c.026-.03.075-.088.096-.117.018-.026.05-.078.064-.103l.042-.088a2 2 0 0 0 .046-.134 2 2 0 0 0 .025-.13 1 1 0 0 0-.02-.358l-.003-.019-.016-.063-.01-.033-.006-.021-.01-.03-.008-.025a1 1 0 0 0-.053-.12 1 1 0 0 0-.366-.395 2 2 0 0 0-.164-.08 2 2 0 0 0-.236-.06 2 2 0 0 0-.297.008 2 2 0 0 0-.292.1 2 2 0 0 0-.219.157 2 2 0 0 0-.136.157c-.022.034-.06.1-.077.131l-.043.104a2 2 0 0 0-.04.142l-.013.09a1 1 0 0 0 0 .211l.002.022.013.078.005.022a2 2 0 0 0 .03.134l.973-.227.974-.226-.017-.078-.002-.006.003.013a1 1 0 0 1-.006.355 1 1 0 0 1-.514.69 1.7 1.7 0 0 1-.293.1 2 2 0 0 1-.297.008 1 1 0 0 1-.801-.611l-.022-.058-.01-.034q0 .004 0 0l-.003-.015-.005-.023a1 1 0 0 1-.006-.287 1 1 0 0 1 .597-.795 1 1 0 0 1 1.283.46c.02.036.031.066.035.075l.01.026.003.01-.003-.01zm.025.1-.973.227q.055.234.09.436l.986-.169.986-.169a10 10 0 0 0-.115-.553zm.103.494-.983.184c.005.027.01.057.018.123l.99-.14.991-.138c-.006-.044-.017-.13-.033-.212zm.026.168h-1c0 .033.002.06.002.062v.02l.003.025.005.05.011.114.007.055.005.041.01.056a1 1 0 0 0 .06.19c.01.02.069.165.206.305a1 1 0 0 0 1.672-.415c.035-.118.04-.218.04-.22.003-.047.002-.085.002-.09a1 1 0 0 0-.008-.131l-.997.076-.997.077.003.044-.001-.025.002-.084a1 1 0 0 1 .39-.728 1 1 0 0 1 1.321.095c.137.14.196.285.205.305a1 1 0 0 1 .039.106c.011.04.018.07.02.081l.01.049.002.014v.004-.006l-.012-.105-.003-.033c-.003-.04.003.013.003.068zm.018.138-.998.072c.023.32.042.615.047.908l1-.016 1-.016a18 18 0 0 0-.052-1.02zm.048.964h-1l-.001.096c-.001.046-.002.118.004.199l.997-.07.998-.07v-.025c0-.016 0-.027.002-.052v-.078zm0 .225-.996.082a2 2 0 0 0 .021.157 1.1 1.1 0 0 0 .145.353 1.004 1.004 0 0 0 1.839-.434 1.5 1.5 0 0 0 .006-.351 1 1 0 0 0-.158-.434 1.002 1.002 0 0 0-1.823.353l-.015.073.981.19.982.19v.004l-.017.059a.9.9 0 0 1-.142.273.997.997 0 0 1-1.798-.6l.003-.035.01-.054a1 1 0 0 1 .102-.268.99.99 0 0 1 .996-.501 1 1 0 0 1 .857.827l.004.033zm0-.01-.981-.19-.009.044.014-.051.013-.04a1 1 0 0 1 .105-.218c.019-.029.111-.175.292-.294.102-.058.365-.147.525-.163.185.012.516.13.654.223.26.21.325.48.334.513.038.137.035.252.035.257a1 1 0 0 1-.01.155l-.002.01.006-.032-.003.011q0 .008-.012.042a1 1 0 0 1-.078.18l-.872-.49-.873-.489c-.055.099-.08.187-.082.191a1 1 0 0 0-.034.13l-.027.143-.005.035a1 1 0 0 0-.008.126c0 .006-.002.12.036.257.009.033.075.303.334.514.138.093.469.21.654.223a1.8 1.8 0 0 0 .525-.164 1 1 0 0 0 .397-.512l.014-.04.014-.055c.008-.033.018-.082.026-.126zm.01-.042.83.56.073-.116c.012-.02 0 .002-.026.033a.7.7 0 0 1-.4.234l-.191-.981-.191-.982a1.3 1.3 0 0 0-.747.44 2 2 0 0 0-.167.238l-.007.01-.002.004zm.286-.27-.646.763.665.563.646-.763.646-.764-.665-.562zm.665.563.885-.466a4 4 0 0 1-.167-.358l-.929.37-.929.371c.077.193.165.377.254.548zm-.21-.453.932-.36a7 7 0 0 1-.085-.23l-.946.328-.944.327c.037.109.077.211.11.295zm-.099-.262-.946.324.007.02-.005-.017s-.009-.03-.017-.07l-.011-.064a1 1 0 0 1 .097-.591c.054-.095.222-.291.339-.383a1.7 1.7 0 0 1 .65-.162c.348.033.556.236.588.266a1 1 0 0 1 .221.305q.014.028.017.039l.011.027.004.01.003.007-.004-.011q-.004-.012 0 0l-.966.258-.966.259a2 2 0 0 0 .055.175l.017.044a1 1 0 0 0 .24.345c.031.03.24.233.588.266.165.003.495-.078.65-.162.117-.092.284-.288.339-.383.092-.184.102-.348.105-.386a1 1 0 0 0-.037-.341l-.006-.02-.026-.079zm-.012-.042.97-.245c-.036-.14-.037-.193-.088-.445l-.98.198-.98.198c.016.078.061.355.108.54zm-.098-.492.98-.196a2 2 0 0 0-.037-.146 1 1 0 0 0-.037-.098 1.01 1.01 0 0 0-.832-.593 1.004 1.004 0 0 0-1.027.661 1 1 0 0 0-.058.377 1.2 1.2 0 0 0 .042.28 1 1 0 0 0 .279.455 1.001 1.001 0 0 0 1.686-.746l-.001-.096-1 .024-1 .023v.025l.004-.059a1 1 0 0 1 .065-.269 1 1 0 0 1 .394-.476 1 1 0 0 1 1.52.678.87.87 0 0 1-.047.456 1 1 0 0 1-1.854.071 1 1 0 0 1-.057-.175zm-.005-.078h1c0-.067-.004-.13-.005-.163l-.003-.06h-2c0 .067.004.13.005.163l.003.06zm-.008-.223h-1v.008l.002.059c.003.03.043.228.108.389.97.541 1.865-.234 1.881-.322l.007-.065.002-.028v-.07l.002-.098v-.048l-.001-.087-.003-.04a1 1 0 0 0-.05-.232l-.032-.084a2 2 0 0 0-.069-.128 2 2 0 0 0-.165-.199 1.8 1.8 0 0 0-.4-.227 1.8 1.8 0 0 0-.593.01 1.8 1.8 0 0 0-.37.22c-.048.049-.124.14-.153.183a1 1 0 0 0-.16.468l-.004.045-.001.03 1 .038.999.038v-.01.004l-.002.02-.002.027-.004.026a1 1 0 0 1-.087.29 2 2 0 0 1-.066.12 2 2 0 0 1-.154.182c-.071.06-.256.174-.37.22a1.8 1.8 0 0 1-.593.01 1.8 1.8 0 0 1-.4-.227 2 2 0 0 1-.165-.199 2 2 0 0 1-.069-.128l-.032-.084a1 1 0 0 1-.045-.19l-.005-.04-.002-.039-.001-.026v-.008.008l-.002.126v.037-.02l.002-.028.006-.065c.016-.088.911-.863 1.881-.322.066.161.106.36.108.39l.002.059v.007zm0-.178-.999-.042-.002.061v.032a1 1 0 0 0 .059.323c.006.017.088.28.354.472a1 1 0 0 0 1.267-.075c.158-.147.225-.307.236-.331a1 1 0 0 0 .086-.365c.006-.073.007-.095.006-.09l-.994-.108-.994-.108-.012.143c-.005.065-.002 0 .011-.067a1 1 0 0 1 .066-.21c.011-.025.078-.185.236-.332a1 1 0 0 1 1.267-.075c.266.193.348.455.354.472a1 1 0 0 1 .058.318v.025-.001zm.013-.123.994.11q.022-.197.06-.345l-.97-.25-.968-.248a5 5 0 0 0-.11.623zm.085-.484-.97-.244c-.005.02-.029.111-.04.184 0 .001-.013.082-.009.182a1 1 0 0 0 .19.55 1 1 0 0 0 1.474.16c.13-.116.197-.24.203-.25a1 1 0 0 0 .042-.083 1.3 1.3 0 0 0 .076-.218l.01-.03-.95-.311-.951-.311-.024.078-.016.054.012-.034a1 1 0 0 1 .067-.141 1 1 0 0 1 1.857.638c-.01.059-.022.102-.001.02zm.026-.06.953.301c.018-.057.03-.086.072-.201l-.94-.339-.942-.338c-.015.042-.064.17-.097.275zm.084-.239.931.366.002-.006.006-.014.02-.045a1 1 0 0 0 .072-.302 1 1 0 0 0-.31-.808 1 1 0 0 0-1.323-.045 1 1 0 0 0-.222.26l-.02.032-.043.085.898.44.897.441c.017-.034.012-.022 0-.001l-.017.029a1 1 0 0 1-.062.092c-.01.013-.066.089-.159.165a1 1 0 0 1-1.565-1.14l-.036.086zm.01-.036.904.428q.026-.052.068-.123l-.85-.525-.852-.526q-.089.142-.173.318zm.121-.22.863.505c.076-.13.097-.157.108-.17a2 2 0 0 1 .159-.146l-.647-.762-.647-.763a3 3 0 0 0-.4.388c-.125.15-.216.3-.3.443zm.483-.573.646.763a.7.7 0 0 1 .262-.125l-.261-.965-.261-.966c-.376.102-.74.282-1.032.53zm.647-.328.264.965-.028.007.025-.004a2 2 0 0 1 .254-.011l-.018-.003.157-.987.158-.988a2.7 2.7 0 0 0-.553-.017c-.14.008-.35.027-.524.074zm.654-.033-.149.988-.032-.005h.001a1 1 0 0 1 .089.028l.02.007.405-.914.406-.914a2.7 2.7 0 0 0-.59-.18zm.334.104-.402.916.05.022.013.006.003.001-.023-.012a1 1 0 0 1-.093-.061q-.012-.01-.004-.004l.012.01.008.007.01.009.052.045.649-.76.649-.762-.077-.066a1.4 1.4 0 0 0-.324-.212l-.12-.054zm.275.178-.646.764c.542.458 1.21.467 1.727.19.45-.24.753-.667.89-1.093l-.952-.306-.952-.306.005-.009a.2.2 0 0 1 .066-.05.47.47 0 0 1 .259-.048c.123.01.21.061.249.095zm1.02-.445.951.307a2.9 2.9 0 0 0 .106-1.303c-.067-.444-.262-.972-.718-1.36l-.648.762-.647.762c-.025-.021.014-.003.035.132a.9.9 0 0 1-.032.394zm-.309-1.594.646-.763c-.928-.786-2.103-.972-3.188-.695l.247.969.247.969c.538-.137 1.026-.035 1.402.283zm-2.295-.49-.247-.968c-1.14.29-2.01 1.131-2.529 2.018l.863.505.863.506c.333-.568.815-.968 1.297-1.091zm-1.913 1.555-.862-.506c-1.182 2.012-1.144 4.691-.096 6.696l.886-.462.887-.464c-.755-1.444-.757-3.387.047-4.757zm-.072 5.727-.885.465c.056.107.194.373.404.602.206.224.67.606 1.335.478l-.189-.982-.189-.982c.15-.029.29 0 .39.048a.5.5 0 0 1 .125.084c.001.001-.01-.012-.033-.049a2 2 0 0 1-.072-.128zm.665.563.193.981c.889-.174 1.403-.78 1.664-1.398.244-.578.293-1.215.293-1.692h-2c0 .375-.045.7-.136.915a.5.5 0 0 1-.104.168.2.2 0 0 1-.102.045zm1.15-2.11h1c0-.896-.059-1.775-.264-2.67l-.974.223-.975.224c.16.696.213 1.413.213 2.224zm-.238-2.447.975-.222c-.386-1.692-1.376-3.553-3.29-4.334l-.378.926-.378.926c1.064.434 1.783 1.556 2.096 2.927zm-2.693-3.63.377-.926c-1.939-.79-3.781.127-4.83 1.574l.81.587.81.587c.665-.919 1.595-1.247 2.455-.896zm-3.643 1.235-.811-.585c-1.272 1.76-1.224 3.974-.997 5.697l.991-.13.992-.131c-.216-1.639-.158-3.168.635-4.265zm-.817 4.981-.992.13c.1.765.256 1.78.85 2.647l.825-.565.825-.565c-.295-.43-.416-1.003-.516-1.776zm.683 2.212-.824.566c.282.411.702.807 1.236 1.016.568.223 1.243.22 1.868-.172l-.532-.847-.531-.847c-.03.019-.039.016-.033.016.003 0-.009.001-.042-.011a.8.8 0 0 1-.318-.287zm1.748.563.533.846c.607-.382.944-.956 1.126-1.493.18-.533.231-1.088.23-1.55l-1 .003-1 .004c0 .328-.038.646-.124.9-.085.25-.193.378-.297.444zm.889-2.194 1-.003c-.003-.885-.148-1.814-.297-2.622l-.983.18-.984.181c.145.789.261 1.571.264 2.268zm-.28-2.444.983-.181a18.6 18.6 0 0 0-1.588-4.828l-.897.441-.898.441a16.6 16.6 0 0 1 1.416 4.307zm-1.502-4.568.897-.442c-.316-.642-.727-1.443-1.28-2.13-.56-.694-1.325-1.348-2.373-1.584l-.22.976-.22.976c.452.101.859.396 1.255.887.401.498.729 1.119 1.044 1.759zm-2.976-3.18.219-.976c-.989-.221-2.194-.088-3.08.788l.702.712.703.71c.269-.265.706-.377 1.238-.258zm-2.159.523-.704-.71c-.918.91-1.147 2.17-1.21 3.123l.998.066.998.066c.054-.826.241-1.457.622-1.834zm-.916 2.48-.998-.067c-.134 2.02-.123 4.047-.064 6.038l1-.03 1-.03c-.059-1.962-.068-3.918.06-5.846zm-.062 5.94-1 .03c.01.343.098.793.311 1.19.212.395.684.952 1.494.932l-.024-1-.025-1a.45.45 0 0 1 .274.087c.052.039.06.065.043.035a.8.8 0 0 1-.073-.303zm.78 1.152.025 1c.813-.02 1.258-.607 1.448-1.007a2.74 2.74 0 0 0 .251-1.21l-1 .03-.999.029a.7.7 0 0 1-.058.292c-.015.032-.01.007.038-.033a.46.46 0 0 1 .271-.1zm.725-1.188-.145.99.018.002.145-.99.144-.989-.018-.002z" mask="url(#c)"/><path fill="#ffea07" stroke="#ffea07" d="M47.526 60.701c.48 0 .818.284 1.013.607.19.313.273.697.28 1.052.008.354-.06.74-.237 1.057-.184.33-.516.621-.999.621-.48 0-.817-.283-1.013-.604-.19-.312-.276-.696-.285-1.052-.008-.355.058-.742.237-1.06.186-.332.52-.62 1.004-.62Z"/></g><defs><clipPath id="a"><path fill="#fff" d="M0 0h71v80H0z"/></clipPath></defs></svg>