<svg xmlns="http://www.w3.org/2000/svg" width="108" height="133" fill="none" viewBox="0 0 108 133"><path fill="#ffe817" d="M25.745 25.904c21.249-6.19 43.962-6.841 65.602-1.869-.274-1.587-.528-3.192-.782-4.796a450 450 0 0 0-40.134 24.034c-1.172.776-2.011 2.345-1.015 3.58C64.512 65.862 82.089 83.125 101.893 98.2c.898-1.481 1.797-2.945 2.695-4.426A402.6 402.6 0 0 0 43.361 79.28c-1.64-.264-3.828.794-3.574 2.593 2.305 16.17 4.629 32.339 6.933 48.509 1.64-.635 3.262-1.287 4.902-1.922-15.545-11.391-31.111-22.782-46.657-34.191l-3.398 4.18a4213 4213 0 0 0 40.27 23.169c1.466.829 3.946-.053 4.2-1.675 1.816-12.167.86-24.404-3.027-36.184-.918 1.111-1.817 2.222-2.735 3.316 21.25-.195 42.459 1.075 63.473 3.879 2.852.37 4.707-2.433 2.695-4.426a96132 96132 0 0 1-43.18-42.726c-.489-.494-1.817-1.252-1.66-2.01.097-.53 2.323-2.063 2.675-2.38 1.875-1.64 3.75-3.28 5.644-4.92 3.75-3.28 7.52-6.56 11.269-9.84 7.675-6.718 15.37-13.419 23.045-20.137 1.953-1.693-.156-5.36-2.871-4.338C81.269 7.812 60.548 14.002 39.377 18.71c-3.633.81-2.05 5.837 1.563 5.025A446.5 446.5 0 0 0 102.928 5.22L100.057.882C91.522 8.342 82.987 15.8 74.433 23.26c-4.277 3.72-8.534 7.46-12.811 11.18-2.656 2.327-7.324 5.237-5.762 9.151.703 1.746 2.48 3.104 3.828 4.444 1.934 1.922 3.887 3.844 5.82 5.766 4.2 4.162 8.418 8.323 12.617 12.485 8.085 8.005 16.17 15.993 24.256 23.999a978 978 0 0 0 2.695-4.426 462 462 0 0 0-64.937-4.02c-1.836 0-3.262 1.71-2.735 3.315 3.594 10.88 4.668 22.253 2.97 33.521 1.405-.565 2.792-1.111 4.198-1.676a3982 3982 0 0 1-40.251-23.17c-2.715-1.587-5.938 2.31-3.399 4.18 15.546 11.39 31.112 22.799 46.658 34.19 1.718 1.252 5.253.547 4.902-1.922-2.324-16.17-4.629-32.34-6.933-48.51l-3.575 2.593a402.6 402.6 0 0 1 61.227 14.495c2.695.864 4.824-2.804 2.695-4.426C86.503 79.65 69.18 62.81 54.376 44.172c-.332 1.2-.683 2.38-1.015 3.58 12.89-8.676 26.287-16.681 40.134-24.034 2.187-1.164 1.64-4.232-.781-4.797-22.538-5.184-46.384-4.531-68.531 1.922-3.555 1.023-1.992 6.066 1.562 5.026"/></svg>