<svg xmlns="http://www.w3.org/2000/svg" width="108" height="133" fill="none" viewBox="0 0 108 133"><path fill="#ffe817" d="M81.543 106.937c-21.249 6.189-43.962 6.841-65.602 1.869.274 1.587.528 3.191.781 4.796a450 450 0 0 0 40.135-24.034c1.172-.776 2.011-2.346 1.015-3.58C42.776 66.979 25.2 49.716 5.395 34.64c-.898 1.48-1.797 2.944-2.695 4.426A402.6 402.6 0 0 0 63.927 53.56c1.64.265 3.827-.793 3.574-2.574-2.305-16.17-4.629-32.34-6.934-48.51-1.64.635-3.261 1.287-4.902 1.922l46.658 34.192 3.398-4.18A4209 4209 0 0 0 65.45 11.24c-1.465-.829-3.945.053-4.199 1.675-1.816 12.167-.86 24.405 3.027 36.184.918-1.11 1.816-2.222 2.734-3.315-21.248.194-42.458-1.076-63.472-3.88-2.852-.37-4.707 2.434-2.695 4.426a96132 96132 0 0 1 43.18 42.726c.489.494 1.817 1.252 1.66 2.01-.097.53-2.324 2.064-2.675 2.381-1.875 1.64-3.75 3.28-5.644 4.92-3.75 3.28-7.52 6.559-11.27 9.839-7.674 6.718-15.37 13.419-23.045 20.137-1.953 1.693.157 5.361 2.871 4.338 20.097-7.635 40.818-13.824 61.989-18.532 3.632-.812 2.05-5.837-1.563-5.026A446.6 446.6 0 0 0 4.36 127.638l2.87 4.338c8.535-7.459 17.07-14.918 25.624-22.377 4.277-3.72 8.535-7.459 12.812-11.18 2.656-2.327 7.324-5.236 5.742-9.151-.703-1.746-2.48-3.104-3.828-4.444-1.933-1.922-3.886-3.844-5.82-5.766-4.199-4.161-8.417-8.323-12.616-12.484-8.086-8.006-16.171-15.994-24.257-24a977 977 0 0 0-2.695 4.427 462 462 0 0 0 64.938 4.02c1.835 0 3.261-1.71 2.734-3.315-3.594-10.88-4.668-22.253-2.969-33.521-1.406.564-2.793 1.11-4.199 1.675a4205 4205 0 0 1 40.271 23.17c2.715 1.587 5.937-2.31 3.398-4.179C90.8 23.407 75.255 12.016 59.708.607 57.99-.645 54.455.06 54.806 2.53c2.305 16.17 4.629 32.34 6.933 48.51l3.574-2.593A402.6 402.6 0 0 1 4.086 33.953c-2.695-.864-4.823 2.804-2.695 4.426 19.394 14.777 36.717 31.617 51.501 50.255.332-1.199.684-2.38 1.016-3.58-12.89 8.676-26.288 16.682-40.135 24.035-2.187 1.164-1.64 4.232.782 4.796 22.537 5.184 46.384 4.532 68.53-1.922 3.555-1.023 1.993-6.066-1.562-5.025"/></svg>