<svg xmlns="http://www.w3.org/2000/svg" width="196" height="256" fill="none" viewBox="0 0 196 256"><g clip-path="url(#a)"><path fill="#f6f6f6" d="M0 0h196v256H0z"/><path fill="#ffc29e" fill-rule="evenodd" d="M35.37 255.13h46.906v-56.295c0-2.806-1.985-5.09-4.422-5.09H27.018c-2.438 0-4.423 2.284-4.423 5.09v41.569c0 8.135 5.708 14.726 12.776 14.726" clip-rule="evenodd"/><path fill="#e0840b" fill-opacity=".29" fill-rule="evenodd" d="M52.625 186.916s-1.587-14.857-1.058-21.622 3.27-30.823 9.184-43.178c5.915-12.355 15.761-5.155 15.761-5.155s8.467 5.025 4.838 16.618c-3.628 11.573-13.852 36.196-16.687 40.677-2.816 4.481-9.26 13.377-12.038 12.66m-4.064-22.406s1.078-23.274-3.59-34.477-12.378-20.099-18.993-14.443.548 22.644 4.366 29.126c3.836 6.482 18.217 19.794 18.217 19.794m3.1 27.473c-3.118-.021-18.728-2.001-22.11-14.269-3.289-11.942 6.67-18.663 12.945-12.725 6.255 5.917 9.165 26.994 9.165 26.994m4.781-1.566c2.306-3.937 10.186-14.987 18.18-14.008s7.654 8.831 1.833 12.051c-5.801 3.241-20.013 1.957-20.013 1.957" clip-rule="evenodd"/><path fill="#fff" fill-rule="evenodd" d="M27.547 226.83c.019-3.437-.321-7.265-1.002-10.702 4.82-2.523 7.087-7.961 4.8-10.354-1.266-1.327-4.233 2.175-6.085 5.569-.775-2.132-1.72-3.829-2.872-4.786-4.026-3.328-4.309 4.459-3.704 11.311-.473-.435-1.059-.848-1.682-1.022-1.682-.457-3.024 2.023-2.514 4.089.416 1.719 2.892 2.241 4.687.979.17 1.175.36 2.241.53 3.045.037.218.094.436.15.631-.812-.435-1.587-.696-2.097-.522-.926.283-2.93 1.588-2.608 3.328.321 1.762 1.266 2.893 3.307 2.371.907-.239 1.757-.805 2.419-1.392 1.38 4.546 3.27 8.614 4.611 7.483 1.172-1.001 1.852-4.09 2.022-7.983.34.196.832.478 1.53.805 1.72.826 2.325-2.154 1.532-3.154-.7-.805-1.852-.653-3.024.304" clip-rule="evenodd"/><path fill="#000091" fill-rule="evenodd" d="M28.05 206.398c-.876.9-1.805 2.143-2.63 3.491l-.066.108-.002-.007c-.759-1.793-1.63-3.129-2.633-3.962-2.232-1.845-3.835-.831-4.471 2.215l-.023.11c-.39 1.962-.443 4.785-.224 8.066l.012.171-.082-.047a3.7 3.7 0 0 0-.796-.331c-2.116-.575-3.825 2.338-3.192 4.902l.017.065c.505 1.892 2.79 2.572 4.732 1.729l.055-.025.004.026c.083.523.17 1.023.258 1.482l.026.137-.003-.001c-.526-.175-.984-.218-1.375-.104l-.06.02c-.608.185-1.399.663-1.984 1.251-.802.806-1.213 1.779-1.018 2.838.421 2.31 1.786 3.435 3.985 2.872l.105-.029c.633-.183 1.261-.509 1.858-.938l.05-.037.011.034c.676 2.1 1.408 3.909 2.116 5.166.459.816.91 1.407 1.363 1.75.585.443 1.206.484 1.739.034l.044-.038c1.168-1.047 1.885-3.677 2.145-7.312l.01-.149.073.039.173.089c.174.088.355.176.56.271 1.093.526 2.032-.061 2.447-1.253.35-1.006.264-2.253-.285-2.945l-.018-.022-.043-.048c-.705-.77-1.702-.851-2.744-.346l-.077.038-.001-.104a56.6 56.6 0 0 0-.895-9.03l-.015-.081.03-.016c4.73-2.738 7.153-8.411 4.5-11.186-.888-.931-2.149-.425-3.576 1.005zm2.914-.142c1.953 2.044-.255 6.975-4.653 9.278-.245.128-.378.437-.318.739.658 3.324 1.006 7.097.987 10.553-.003.531.518.844.895.536l.058-.047c.946-.75 1.756-.841 2.21-.358l.016.018-.007-.01c.221.279.271 1.001.07 1.58-.191.548-.483.743-.922.551l-.041-.019c-.559-.26-.922-.456-1.496-.786-.366-.211-.8.081-.82.551l-.013.266c-.188 3.751-.862 6.441-1.78 7.226-.253.212-.764-.175-1.478-1.444-.744-1.321-1.542-3.362-2.26-5.73-.128-.421-.576-.574-.882-.302-.699.621-1.465 1.079-2.2 1.273-1.553.397-2.329-.242-2.625-1.869-.18-.978.984-2.166 2.143-2.546l.055-.017c.313-.107.923.06 1.713.483.451.241.935-.255.777-.798a6 6 0 0 1-.12-.482l-.018-.097a50 50 0 0 1-.52-2.998c-.067-.456-.512-.691-.855-.45-1.51 1.061-3.547.634-3.845-.597-.422-1.709.683-3.593 1.837-3.279.47.131.971.449 1.458.897.392.361.969 0 .918-.576-.34-3.854-.331-7.175.103-9.255l.031-.145c.467-2.103 1.21-2.526 2.675-1.315 1 .83 1.899 2.356 2.68 4.507.178.488.76.543 1.004.096l.118-.215c1.948-3.487 4.42-5.936 5.105-5.219" clip-rule="evenodd"/><path fill="#fff" fill-rule="evenodd" d="M46.162 225.83c-.813-.544-2.306-.675-3.723-.196 2.23-4.851 3.798-10.289 1.436-10.637-2.59-.217-4.592 2.066-6.066 4.807-.737-1.414-2.117-2.697-3.156-2.871-1.909-.305-3.043.87-2.552 2.806.378 1.436 2.382 3.415 4.101 3.676-.661 1.718-1.134 3.306-1.455 4.329-1.058 3.371-1.342 9.331-1.342 9.331s1.361-.261 4.063-2.675c.605-.522 1.985-3.198 2.854-4.655.51.217 1.247.413 2.287.544 5.083.674 4.932-3.546 3.553-4.459" clip-rule="evenodd"/><path fill="#000091" fill-rule="evenodd" d="m37.79 218.642-.044-.063c-.853-1.19-2.031-2.128-3.012-2.292-2.311-.369-3.788 1.227-3.177 3.635l.018.064c.436 1.527 2.162 3.263 3.809 3.877l.029.011-.083.231q-.217.604-.428 1.247l-.086.259-.202.632-.4 1.279c-.31.985-.57 2.217-.787 3.646a60 60 0 0 0-.462 4.035l-.028.354-.049.665-.025.391-.024.427c-.02.417.302.748.66.679l.052-.011q.102-.025.281-.089.354-.129.833-.385c.858-.465 1.87-1.185 3.034-2.215l.117-.104c.38-.327.862-1.087 1.732-2.62l.782-1.387.223-.39.04.013q.749.244 1.819.389l.135.017c2.497.332 4.162-.441 4.779-2.014.523-1.336.104-3.006-.882-3.659l-.06-.039c-.71-.448-1.746-.622-2.818-.502l-.091.01.06-.141c.92-2.165 1.594-4.202 1.898-5.828l.031-.171c.418-2.409.003-4.019-1.517-4.243l-.03-.004c-2.328-.195-4.326 1.343-6.047 4.164zm5.97-2.999.057.004-.014-.002c.657.096.868.989.521 2.845-.34 1.823-1.208 4.276-2.387 6.839-.234.51.18 1.094.661.931 1.232-.416 2.583-.331 3.278.134.47.31.706 1.253.416 1.993-.379.965-1.526 1.51-3.524 1.266l-.095-.012c-.934-.118-1.65-.293-2.154-.508-.244-.104-.518-.004-.665.243l-.104.176-.192.332-1.007 1.782c-.72 1.263-1.178 1.986-1.408 2.198l-.015.014c-1.158 1.034-2.138 1.737-2.946 2.175l-.11.058-.04.021.009-.127q.023-.326.053-.678c.11-1.342.259-2.684.45-3.933.198-1.304.432-2.428.7-3.314l.306-.981c.12-.383.222-.704.328-1.029.277-.851.55-1.629.842-2.39.154-.399-.069-.855-.444-.912-1.425-.216-3.3-1.953-3.632-3.218-.36-1.418.38-2.218 1.93-1.97.834.139 2.082 1.282 2.748 2.56.219.419.745.423.968.008 1.623-3.017 3.442-4.634 5.47-4.505" clip-rule="evenodd"/><path fill="#000091" fill-rule="evenodd" d="M23.956 255.304h10.338c7.219 0 13.077-6.744 13.077-15.053v-.565c0-3.154-2.211-5.699-4.951-5.699H15.83c-2.74 0-4.951 2.545-4.951 5.699v.565c0 8.309 5.858 15.053 13.077 15.053" clip-rule="evenodd"/><path fill="#ff8d7e" fill-rule="evenodd" d="M212.635 132.666c40.839-2.393 46.66 22.47 45.148 41.351-1.55 19.337-6.558 81.396-6.558 81.396.246.261-97.25.261-96.966 0 0 0 5.008-62.059 6.557-81.396 1.512-18.881 11.358-43.744 51.819-41.351" clip-rule="evenodd"/><path fill="#6a6af4" fill-rule="evenodd" d="M228.699 228.766c-5.575-8.114-10.735-11.115-15.61-11.398-1.814-9.267-3.95-18.577-6.274-25.82-15.591-48.703-79.788-22.948-87.196-19.381-10.13 4.872-20.694 14.9-29.047 33.15-2.721 0-5.783.348-9.07.935-12.133 2.132-20.58 15.118-18.993 27.082 2.286 23.013 13.38 22.252 24.151 21.447.51.37 1.115.588 1.777.588h126.976c.132 0 .284-.022.416-.022h8.995c7.824-7.679 9.657-18.772 3.875-26.581" clip-rule="evenodd"/><path fill="#fff" fill-rule="evenodd" d="m137.421 151.981.642 16.445s-1.474 13.029 9.279 13.877c13.437 1.044 16.063-10.81 16.063-10.81l.945-16.293z" clip-rule="evenodd"/><path fill="#000091" fill-rule="evenodd" d="m136.854 152.01.64 16.39-.009.102q-.01.12-.022.297c-.132 2.09.045 4.5.778 6.811 1.347 4.248 4.262 6.966 9.062 7.344 6.266.487 10.792-1.677 13.819-5.589a16.5 16.5 0 0 0 2.692-5.192l.049-.168q.067-.236.092-.351a1 1 0 0 0 .016-.118l.945-16.292c.02-.35-.204-.656-.507-.693l-26.93-3.219c-.345-.041-.641.28-.625.678m1.162.698 25.732 3.076-.904 15.599-.012.046q-.035.135-.089.317c-.106.351-.243.745-.415 1.17a15.2 15.2 0 0 1-2.052 3.58c-2.796 3.614-6.982 5.616-12.896 5.156-4.335-.342-6.875-2.71-8.074-6.49-.669-2.11-.833-4.347-.711-6.268l.013-.186.017-.198q.007-.057.005-.114z" clip-rule="evenodd"/><path fill="#fff" fill-rule="evenodd" d="M135.701 128.772s-9.714-4.96-9.979 5.438c-.283 10.375 8.523 9.048 8.523 9.048" clip-rule="evenodd"/><path fill="#000091" fill-rule="evenodd" d="M130.69 126.943c1.194-.047 2.458.19 3.712.611.399.134.769.278 1.1.423l.096.042q.229.102.333.156c.286.146.415.532.288.861-.123.318-.438.467-.717.347l-.122-.059-.102-.048-.177-.079a13 13 0 0 0-1.017-.39c-1.148-.386-2.298-.601-3.356-.56-2.727.107-4.334 1.841-4.439 5.983-.118 4.317 1.345 6.743 3.889 7.828 1.226.523 2.529.665 3.659.586l.112-.009.127-.012.096-.012c.31-.046.595.205.636.563.04.357-.178.685-.489.732l-.099.012-.188.019c-1.303.109-2.804-.039-4.248-.655-2.995-1.278-4.762-4.208-4.628-9.091.123-4.85 2.224-7.119 5.534-7.248" clip-rule="evenodd"/><path fill="#fff" fill-rule="evenodd" d="M173.1 136.994s10.734-1.588 8.504 8.331-10.545 5.851-10.545 5.851" clip-rule="evenodd"/><path fill="#000091" fill-rule="evenodd" d="M173.49 136.296c1.31-.112 2.758-.054 4.138.3 1.649.424 2.972 1.227 3.83 2.505 1.04 1.551 1.305 3.677.695 6.387-.894 3.98-2.81 6.198-5.417 6.916-1.537.423-3.16.29-4.72-.184a10 10 0 0 1-.754-.261l-.096-.038a6 6 0 0 1-.329-.144c-.288-.141-.422-.524-.3-.856.119-.32.432-.475.713-.359l.092.042.074.032.083.035.045.019q.338.138.761.268c1.395.424 2.839.542 4.167.176 2.194-.604 3.793-2.455 4.583-5.973.965-4.292-.5-6.476-3.674-7.291-1.254-.322-2.599-.375-3.808-.272l-.13.012-.118.012-.131.016-.022.003c-.31.046-.594-.207-.634-.564s.179-.684.49-.73l.079-.011q.124-.017.33-.035z" clip-rule="evenodd"/><path fill="#fff" fill-rule="evenodd" d="M172.288 147.108c-5.462 19.294-14.911 25.102-25.456 22.013-10.526-3.088-17.575-15.618-13.626-33.389 3.95-17.771 13.418-30.692 26.212-26.581 16.404 5.264 17.821 20.512 12.87 37.957" clip-rule="evenodd"/><path fill="#000091" fill-rule="evenodd" d="M142.603 113.765c-4.442 4.917-7.897 12.585-9.946 21.805-1.923 8.652-1.355 16.476 1.43 22.663 2.628 5.837 7.119 9.911 12.605 11.521 11.653 3.413 20.903-3.96 26.135-22.443 2.681-9.446 3.305-17.503 1.576-23.942-1.923-7.161-6.721-12.174-14.593-14.769l-.239-.077c-6.324-2.032-12.138-.106-16.968 5.242m16.663-3.985c7.658 2.457 12.23 7.185 14.053 13.974 1.649 6.139 1.045 13.939-1.57 23.152-5.061 17.879-13.758 24.811-24.777 21.583-5.174-1.518-9.4-5.352-11.878-10.856-2.651-5.89-3.195-13.385-1.338-21.739 2-9.002 5.36-16.457 9.633-21.188 4.551-5.039 9.955-6.829 15.877-4.926" clip-rule="evenodd"/><path fill="#000091" fill-rule="evenodd" d="M150.59 134.093c.108-.338.434-.511.727-.387.284.12.434.473.347.801l-.01.037-4.269 13.355 4.149.94c.296.068.492.389.452.729l-.006.038c-.058.341-.337.567-.633.52l-.032-.006-4.801-1.088c-.331-.075-.529-.462-.433-.829l.011-.036zm8.576-5.599c2.07-.973 3.908-.18 5.411 1.676.356.44.667.91.931 1.38l.066.119c.125.229.214.411.265.528.141.322.029.715-.251.877-.269.156-.595.042-.745-.254l-.054-.116-.026-.053a8.6 8.6 0 0 0-1.016-1.591c-1.214-1.499-2.589-2.093-4.153-1.358-.29.136-.62-.024-.739-.357-.118-.334.021-.715.311-.851m-2.939 27.179c.16-.31.507-.413.777-.23.269.183.359.583.2.894-.746 1.454-1.842 2.257-3.165 2.493-1.014.181-2.077.022-3.113-.35l-.152-.056a6 6 0 0 1-.827-.376c-.282-.158-.398-.549-.26-.873.137-.323.477-.457.758-.299l.028.015q.059.032.182.091.272.129.608.252c.885.318 1.784.452 2.602.306.999-.178 1.796-.762 2.362-1.867m-13.684-30.546c1.428-.516 2.915-.11 4.345.856.342.23.654.477.931.725l.118.107c.109.1.191.182.243.237.23.244.245.657.032.922a.515.515 0 0 1-.774.064l-.094-.095-.08-.076-.139-.128a8 8 0 0 0-.811-.631c-1.181-.797-2.366-1.121-3.432-.736-.455.164-.886.457-1.295.897a.516.516 0 0 1-.801-.031.724.724 0 0 1 .027-.923c.531-.572 1.111-.965 1.73-1.188m17.951 15.455c.201-1.447-.296-2.742-1.11-2.892s-1.637.902-1.838 2.35.296 2.742 1.11 2.891 1.637-.901 1.838-2.349m-16.052-2.63c.201-1.447-.296-2.742-1.11-2.892s-1.637.902-1.838 2.35.296 2.742 1.11 2.892 1.637-.902 1.838-2.35" clip-rule="evenodd"/><path fill="#000091" fill-rule="evenodd" d="M191.715 176.648c-1.739-23.732-2.325-49.399-5.953-57.186-7.162-15.379-18.18-14.4-18.18-14.4-5.613-10.115-32.373-13.53-42.767 15.988-.623 1.783.227 3.697 1.72 4.263-6.709 18.772-3.401 65.583-3.401 65.583l16.724 2.893-.737-17.424c-1.53-3.763-1.058-7.918-1.058-7.918l-.208-5.264c-3.893-4.633-6.161-11.463-5.707-19.925-2.589-.304-6.652-1.935-6.463-9.048.245-8.962 7.502-6.504 9.487-5.656a55 55 0 0 1 1.512-4.002c5.007-1.371 10.771-4.438 16.101-10.833l-4.876 9.005s8.882 1.414 15.156-3.523c1.569 6.699 5.481 14.508 11.377 17.314l-.057.392c.321 0 .681 0 1.059.022a9.7 9.7 0 0 0 2.967.609c2.286.913 4.214 3.023 3.137 7.765-2.23 9.919-10.546 5.851-10.546 5.851l.019-.174c-2.022 5.852-4.46 10.202-7.219 13.269l-.415 7.244s-.133.587-.473 1.457c-.113 3.633-.453 16.727.038 20.817 14.495-.152 29.5-7.091 28.763-17.119" clip-rule="evenodd"/><path fill="#fff" d="M172.68 223.867q-1.764.29-2.904-.692-1.128-1-1.388-3.092a6.3 6.3 0 0 1 .097-2.184 3.9 3.9 0 0 1 .923-1.829q.688-.756 1.888-.953 1.114-.183 1.954.289a3.43 3.43 0 0 1 1.347 1.338q.523.879.661 1.992a.8.8 0 0 1-.122.562.61.61 0 0 1-.45.294l-4.902.804q.254 1.093.961 1.671.704.562 1.875.37.651-.106 1.083-.313.43-.222.805-.521a.53.53 0 0 1 .252-.109.53.53 0 0 1 .428.116.63.63 0 0 1 .231.436.64.64 0 0 1-.07.384.9.9 0 0 1-.229.292 5.7 5.7 0 0 1-.975.702q-.525.29-1.465.443m-3.049-4.7 4.266-.699q-.151-.857-.564-1.331-.399-.476-.907-.647a2 2 0 0 0-.971-.095 2.1 2.1 0 0 0-.909.403 2.26 2.26 0 0 0-.712.913q-.267.586-.203 1.456m-4.489 5.937a3.7 3.7 0 0 1-1.972-.202q-.95-.386-1.606-1.278-.659-.908-.83-2.286-.174-1.394.24-2.462.413-1.066 1.231-1.726a3.8 3.8 0 0 1 1.842-.844q.854-.14 1.451.033.609.154 1.006.377.316.168.361.534a.78.78 0 0 1-.103.474.5.5 0 0 1-.364.28.6.6 0 0 1-.33-.048q-.405-.17-.785-.261-.38-.09-.944.003-1.258.206-1.864 1.152-.59.945-.425 2.272.165 1.328.963 2.044.812.714 2.069.508.565-.093.907-.301.34-.226.69-.503a.63.63 0 0 1 .306-.152.46.46 0 0 1 .417.152.72.72 0 0 1 .215.422.72.72 0 0 1-.217.628q-.328.325-.874.686-.53.358-1.384.498m-11.583 1.815a.58.58 0 0 1-.49-.14.76.76 0 0 1-.254-.501l-.886-7.121a.84.84 0 0 1 .12-.579.63.63 0 0 1 .436-.291.57.57 0 0 1 .489.14.74.74 0 0 1 .271.514l.085.681q.39-.657.954-1.224.576-.586 1.545-.745.825-.135 1.459.219.632.336 1.028 1.034.395.68.506 1.577l.587 4.714a.78.78 0 0 1-.136.564.63.63 0 0 1-.436.292.58.58 0 0 1-.49-.14.76.76 0 0 1-.254-.5l-.566-4.549q-.117-.945-.56-1.415-.43-.489-1.282-.349-.781.128-1.3.704a6 6 0 0 0-.874 1.278l.62 4.98a.78.78 0 0 1-.136.565.63.63 0 0 1-.436.292m-6.88 1.212a2.4 2.4 0 0 1-1.209-.106 2.24 2.24 0 0 1-.973-.705q-.388-.512-.485-1.292-.147-1.179.57-2.058.729-.9 2.421-1.177l1.75-.287-.017-.132q-.139-1.113-.673-1.499-.537-.404-1.521-.242a4 4 0 0 0-1.053.308 10 10 0 0 0-.82.406.8.8 0 0 1-.184.064.47.47 0 0 1-.399-.121.64.64 0 0 1-.215-.422q-.056-.448.298-.693a6.6 6.6 0 0 1 1.062-.597 5 5 0 0 1 1.365-.411q1.055-.173 1.781.2.725.372 1.136 1.067t.512 1.508l.585 4.698a.78.78 0 0 1-.137.564.62.62 0 0 1-.435.292.58.58 0 0 1-.49-.14.76.76 0 0 1-.254-.5l-.054-.432q-.332.529-.933 1.034-.602.505-1.628.673m.326-1.408a2.4 2.4 0 0 0 1.225-.591q.546-.479.847-1.019l-.173-1.395-1.577.259q-1.012.166-1.567.562-.541.393-.453 1.107.066.531.434.878.382.343 1.264.199m-10.378 2.973a.57.57 0 0 1-.489-.14.76.76 0 0 1-.254-.501l-.886-7.121a.84.84 0 0 1 .119-.579.63.63 0 0 1 .436-.291.57.57 0 0 1 .49.14.74.74 0 0 1 .271.514l.084.681q.39-.657.955-1.224.576-.586 1.545-.744.823-.136 1.458.218.632.336 1.029 1.034.395.68.506 1.577l.587 4.714a.78.78 0 0 1-.137.564.62.62 0 0 1-.436.292.57.57 0 0 1-.489-.14.76.76 0 0 1-.254-.5l-.566-4.549q-.118-.945-.56-1.415-.43-.489-1.283-.349-.78.128-1.299.704a6 6 0 0 0-.874 1.279l.62 4.98a.78.78 0 0 1-.137.564.62.62 0 0 1-.436.292m-5.535.907a.57.57 0 0 1-.489-.14.76.76 0 0 1-.255-.5l-.886-7.122a.82.82 0 0 1 .122-.562.61.61 0 0 1 .434-.308.56.56 0 0 1 .492.157.72.72 0 0 1 .268.498l.089.713q.316-.661.82-1.235a2.07 2.07 0 0 1 1.256-.697l.072-.012a.53.53 0 0 1 .475.142.76.76 0 0 1 .255.501.75.75 0 0 1-.124.545.66.66 0 0 1-.453.277l-.072.012a2.27 2.27 0 0 0-1.235.626q-.53.493-.825 1.203l.628 5.046a.78.78 0 0 1-.136.564.62.62 0 0 1-.436.292m-5.534.992q-1.764.29-2.904-.692-1.128-1-1.388-3.093a6.3 6.3 0 0 1 .097-2.184 3.9 3.9 0 0 1 .923-1.828q.688-.756 1.888-.953 1.114-.183 1.954.289a3.43 3.43 0 0 1 1.347 1.337q.523.88.661 1.992a.8.8 0 0 1-.122.562.62.62 0 0 1-.45.295l-4.902.803q.254 1.094.961 1.672.704.562 1.875.37.651-.106 1.083-.313.43-.222.805-.522a.55.55 0 0 1 .252-.109.53.53 0 0 1 .428.117.62.62 0 0 1 .231.436.65.65 0 0 1-.07.384.9.9 0 0 1-.229.292 5.7 5.7 0 0 1-.975.702q-.525.289-1.465.443m-3.049-4.7 4.266-.7q-.151-.856-.564-1.33-.399-.476-.907-.647a2 2 0 0 0-.971-.095q-.462.076-.909.403a2.26 2.26 0 0 0-.712.913q-.267.585-.203 1.456m-3.126 5.712a3.5 3.5 0 0 1-.63.036 1.9 1.9 0 0 1-.725-.135q-.359-.162-.646-.572t-.382-1.174l-.641-5.146-1.026.169q-.275.045-.314-.271a.38.38 0 0 1 .095-.303l1.691-2.53a1 1 0 0 1 .077-.098.24.24 0 0 1 .151-.092.21.21 0 0 1 .2.069.33.33 0 0 1 .116.218l.165 1.328 1.634-.268a.5.5 0 0 1 .428.116.67.67 0 0 1 .217.439.75.75 0 0 1-.102.491.54.54 0 0 1-.382.249l-1.634.268.624 5.013q.06.481.246.671.186.189.409.204.235-.005.409-.033.347-.057.498-.15a.9.9 0 0 1 .351-.142.47.47 0 0 1 .382.107q.18.14.213.405a.67.67 0 0 1-.261.636 3 3 0 0 1-.537.308 2.4 2.4 0 0 1-.626.187m-5.505.819a.58.58 0 0 1-.49-.14.76.76 0 0 1-.254-.5l-1.34-10.774a.83.83 0 0 1 .12-.578.62.62 0 0 1 .435-.292.59.59 0 0 1 .504.137.78.78 0 0 1 .257.517l1.34 10.774a.8.8 0 0 1-.122.562.64.64 0 0 1-.45.294m-6.88 1.213a2.4 2.4 0 0 1-1.208-.107 2.2 2.2 0 0 1-.973-.704q-.389-.513-.486-1.292-.147-1.179.57-2.059.729-.899 2.421-1.176l1.75-.287-.017-.133q-.138-1.112-.673-1.499-.537-.402-1.52-.241a4 4 0 0 0-1.054.308 9 9 0 0 0-.82.405.7.7 0 0 1-.184.064.47.47 0 0 1-.399-.121.64.64 0 0 1-.214-.422q-.056-.447.297-.692a6.6 6.6 0 0 1 1.062-.598 5.1 5.1 0 0 1 1.365-.41q1.056-.173 1.781.199t1.136 1.067.512 1.509l.585 4.697a.78.78 0 0 1-.136.565.63.63 0 0 1-.436.291.58.58 0 0 1-.49-.139.76.76 0 0 1-.254-.501l-.054-.431a4.5 4.5 0 0 1-.933 1.034q-.602.505-1.628.673m.326-1.409a2.4 2.4 0 0 0 1.225-.59q.546-.478.847-1.02l-.173-1.394-1.576.258q-1.013.166-1.568.562-.541.394-.453 1.108.066.53.434.877.382.344 1.264.199"/><path fill="#fff" fill-rule="evenodd" d="m181.227 219.761-.095-12.268-2.721 2.153s-.17.218.095 4.264c.359 5.329-4.631 4.872-5.008 3.545-.378-1.327.51-9.092 1.738-11.463.756-1.501 4.592-4.764 7.352-7.004 1.776-1.436 4.119-1.654 6.066-.522 4.101 2.349 12.132 10.136 13.228 13.943.473 1.609 2.779 10.941 2.779 10.941l2.664 6.852-14.041 6.743-3.95-10.158c-5.877 1.283-8.032-6.722-8.032-6.722" clip-rule="evenodd"/><path fill="#000091" fill-rule="evenodd" d="M182.262 198.454c1.954-1.58 4.522-1.806 6.644-.573 4.693 2.689 12.446 10.614 13.513 14.319l.051.177c.135.478.361 1.343.665 2.53l.677 2.673.473 1.89.909 3.656 2.648 6.809c.126.323.005.7-.268.853l-.031.016-14.041 6.743c-.273.131-.586-.002-.721-.3l-.015-.035-3.772-9.702-.029.005c-2.722.399-4.893-.998-6.525-3.548l-.057-.089a14.7 14.7 0 0 1-1.233-2.474l-.063-.165c-.162-.43-.269-.769-.326-.981a.7.7 0 0 1-.024-.148l-.001-.023-.002-.002a.7.7 0 0 1-.073-.28l-.001-.038-.085-11.041-1.643 1.299-.005.126c-.018.549.012 1.623.121 3.36l.023.348c.18 2.682-.883 4.405-2.646 4.95-1.448.447-3.149-.035-3.466-1.151-.486-1.705.577-9.543 1.751-11.923l.035-.07c.698-1.386 3.431-3.894 7.517-7.211m6.137.594c-1.751-1.017-3.872-.831-5.484.473l-.573.467c-3.531 2.895-6.019 5.202-6.601 6.303l-.018.035c-.506.976-1.022 3.188-1.38 5.755l-.047.351c-.299 2.263-.4 4.325-.26 4.82l.006.008a.6.6 0 0 0 .104.096c.115.086.281.164.48.221a2.73 2.73 0 0 0 1.505-.029c1.218-.376 1.926-1.499 1.815-3.495l-.05-.801c-.116-1.942-.13-3.035-.077-3.533l.003-.028c.025-.209.062-.346.168-.482a1 1 0 0 1 .064-.07l.036-.031 2.721-2.153c.366-.29.861-.005.887.496l.001.036.095 12.252.013.028q.015.033.026.069l.035.12q.02.07.056.178.105.334.262.736a13.3 13.3 0 0 0 1.116 2.243c1.498 2.381 3.438 3.576 5.927 3.032.246-.053.493.086.608.34l.015.035 3.724 9.578 12.994-6.241-2.427-6.241-.015-.043-.032-.123-.413-1.667-.487-1.953-.819-3.258c-.496-1.959-.851-3.327-1.014-3.895l-.018-.063c-.953-3.307-8.495-11.016-12.946-13.566" clip-rule="evenodd"/><path fill="#fff" fill-rule="evenodd" d="M183.816 202.881s-6.331 4.307-6.407 9.266c-.075 4.96 1.059 9.723 3.572 9.854s1.739-2.284 1.739-2.284" clip-rule="evenodd"/><path fill="#000091" fill-rule="evenodd" d="M183.527 202.319c.27-.183.617-.08.777.23.153.299.076.681-.171.873l-.164.116-.08.058-.043.032a21.3 21.3 0 0 0-2.848 2.535c-1.871 2.003-2.992 4.057-3.022 5.996-.08 5.226 1.165 9.094 3.031 9.19.86.045 1.163-.19 1.239-.618.034-.19.022-.417-.023-.639l-.012-.059-.02-.079-.003-.011c-.109-.338.041-.713.335-.838s.62.048.728.386l.018.058q.028.098.06.251c.077.388.099.793.028 1.192-.194 1.097-1.013 1.733-2.402 1.661-2.755-.143-4.202-4.639-4.113-10.517.037-2.378 1.308-4.707 3.384-6.929a22.5 22.5 0 0 1 2.262-2.1l.199-.16q.245-.192.462-.355l.164-.12q.147-.107.214-.153" clip-rule="evenodd"/><path fill="#fff" fill-rule="evenodd" d="M185.422 206.383s-5.461 4.198-4.611 7.091c.832 2.894 2.722 9.18 3.837 9.963 1.984 1.414 2.967-1.523 2.967-1.523" clip-rule="evenodd"/><path fill="#000091" fill-rule="evenodd" d="M185.107 205.841c.261-.2.613-.12.787.18.167.289.108.675-.129.882l-.033.027-.109.086-.076.061a22 22 0 0 0-2.089 1.945c-.838.896-1.479 1.766-1.844 2.554q-.466 1.011-.265 1.694l.175.602c1.394 4.781 2.735 8.528 3.422 9.01.726.518 1.25.316 1.74-.413a4 4 0 0 0 .304-.555l.031-.07.053-.132.011-.032c.113-.337.441-.504.733-.375.292.13.438.508.325.844l-.021.06a5 5 0 0 1-.539 1.058c-.811 1.207-1.945 1.643-3.231.727-1.085-.762-2.432-4.585-4.078-10.31-.247-.841-.106-1.758.339-2.721.435-.939 1.151-1.911 2.073-2.897a23 23 0 0 1 1.66-1.595l.166-.143q.163-.138.309-.258l.272-.218z" clip-rule="evenodd"/><path fill="#fff" fill-rule="evenodd" d="M188.465 209.646s-5.783 1.044-3.534 7.918c1.474 4.502 2.815 6.134 4.441 6.786 1.625.653 3.061-2.175 1.663-4.067l-1.607-2.785s2.004 2.698 2.741-.369c0 0-.964 5.808 1.379 7.874" clip-rule="evenodd"/><path fill="#000091" fill-rule="evenodd" d="M188.377 209.001c.309-.055.599.188.648.544.046.343-.149.666-.44.739l-.073.015-.07.017-.029.007a5.2 5.2 0 0 0-1.678.779c-1.67 1.181-2.293 3.116-1.274 6.232l.086.259c1.286 3.848 2.457 5.517 4.011 6.141 1.098.441 2.047-1.672 1.045-3.028l-.021-.031-.02-.031-1.606-2.784c-.388-.672.416-1.386.882-.813l.054.07.078.093q.145.168.315.325c.263.239.513.386.699.405.241.025.447-.189.638-.985.19-.792 1.205-.533 1.109.256l-.023.155-.01.073-.022.167q-.022.175-.043.376c-.113 1.114-.135 2.28-.011 3.358.167 1.451.584 2.539 1.271 3.145.248.219.296.629.105.915-.19.286-.546.34-.795.121-.569-.502-.987-1.189-1.277-2.027l-.024-.07-.032.079-.029.068c-.535 1.19-1.597 1.821-2.656 1.396-1.968-.79-3.358-2.815-4.785-7.173-1.215-3.715-.382-6.302 1.741-7.804a6.3 6.3 0 0 1 1.523-.786l.121-.042c.256-.086.46-.137.592-.161m3.038 10.188-.027.008a1 1 0 0 1-.2.041l-.071.007.287.499.001-.069q0-.206.007-.412z" clip-rule="evenodd"/><path fill="#6a6af4" fill-rule="evenodd" d="M209.253 208.558c-.152 1.305 2.645 9.114-19.087 26.559l2.834 3.698 19.654-5.481z" clip-rule="evenodd"/><path fill="#fff" fill-rule="evenodd" d="M104.103 247.56s7.805-.522.511 2.218c-10.47 2.067-19.692-5.503-23.188-10.832-2.344-3.567-2.627-8.375-.737-12.29 3.742-9.027 9.543-5.982 9.543-5.982s9.884 5.482 14.722 5.656" clip-rule="evenodd"/><path fill="#000091" fill-rule="evenodd" d="M83.57 221.255c2.035-1.777 4.206-2.054 6.165-1.459.338.103.587.208.743.29l.322.176.12.064q.484.26 1.08.568l.132.069a86 86 0 0 0 4.003 1.933c1.017.458 2.002.873 2.941 1.237l.286.109c2.317.878 4.237 1.386 5.61 1.436.313.011.558.312.549.672s-.272.643-.585.632c-1.565-.056-3.678-.63-6.22-1.612a61 61 0 0 1-2.994-1.258 85 85 0 0 1-4.052-1.958l-.268-.138a76 76 0 0 1-.851-.448l-.397-.214-.157-.086-.036-.018-.065-.028-.028-.012a4 4 0 0 0-.422-.152c-1.65-.501-3.466-.269-5.19 1.237-1.12.977-2.129 2.451-2.994 4.495l-.061.147-.017.036c-1.782 3.693-1.512 8.221.694 11.58 1.899 2.894 5.127 5.925 8.778 7.997 4.376 2.486 9.064 3.488 13.702 2.616l.12-.023.277-.106a18 18 0 0 0 1.705-.739l.139-.073-.028-.003a8 8 0 0 0-.474-.034l-.196-.008a20 20 0 0 0-1.391.012l-.275.013-.099.006c-.312.021-.58-.253-.598-.613-.018-.347.203-.647.499-.686l.048-.005.261-.014.122-.005c.488-.021.991-.027 1.464-.013l.203.008c.431.02.8.06 1.098.124.593.128.958.329 1.049.863.159.931-.844 1.534-3.492 2.529l-.08.023c-4.942.975-9.925-.072-14.556-2.701-3.806-2.161-7.174-5.323-9.18-8.381-2.453-3.734-2.775-8.755-.84-12.876l.05-.107.057-.134c.92-2.173 2.01-3.786 3.243-4.892z" clip-rule="evenodd"/><path fill="#fff" fill-rule="evenodd" d="M90.516 244.014s6.614 6.156 17.064 2.524c4.914-1.719 1.361-3.546 1.361-3.546" clip-rule="evenodd"/><path fill="#000091" fill-rule="evenodd" d="M108.424 242.726c.128-.329.463-.477.749-.33.191.098.458.267.731.504.584.507.932 1.108.83 1.84-.119.853-.847 1.533-2.204 2.118q-.36.156-.785.304c-5.568 1.936-10.515 1.384-14.66-.715a16 16 0 0 1-2.153-1.307l-.12-.089a8 8 0 0 1-.653-.529.72.72 0 0 1-.084-.918c.19-.269.526-.32.769-.122l.085.075.072.062.029.024q.213.178.508.393c.568.414 1.238.828 2.004 1.216 3.909 1.98 8.581 2.501 13.874.661q.391-.136.716-.277c.568-.244.972-.49 1.224-.725.174-.163.246-.289.258-.378.018-.125-.11-.345-.393-.591a3 3 0 0 0-.358-.264l-.074-.046-.068-.038-.011-.006c-.286-.147-.414-.533-.286-.862" clip-rule="evenodd"/><path fill="#fff" fill-rule="evenodd" d="M91.99 239.011c2.305 1.349 4.252 3.981 8.409 4.025 6.123.065 9.241.239 10.772-1.11 1.531-1.348 1.701-2.893-3.288-4.198" clip-rule="evenodd"/><path fill="#000091" fill-rule="evenodd" d="M107.33 237.583c.069-.351.373-.571.679-.491l.23.061c2.35.638 3.704 1.374 4.214 2.312.56 1.032.122 2.046-.937 2.979-.778.686-1.861 1.031-3.516 1.182l-.349.029c-.943.072-1.836.089-3.918.071l-3.339-.038c-2.438-.026-4.113-.764-6.328-2.419l-.3-.225-.686-.524a22 22 0 0 0-.44-.326 11 11 0 0 0-.907-.601c-.28-.163-.39-.556-.249-.877.142-.322.483-.45.763-.286.315.184.635.397.997.659l.217.159.24.179.867.662c2.071 1.563 3.556 2.246 5.716 2.292l3.457.04c2.217.019 3.064-.001 4.064-.087l.203-.018c1.398-.137 2.265-.42 2.819-.908.653-.576.821-.964.664-1.251-.312-.575-1.523-1.214-3.734-1.793-.305-.08-.496-.429-.427-.781" clip-rule="evenodd"/><path fill="#fff" fill-rule="evenodd" d="M95.013 228.679s5.046 3.894 10.583 3.872c5.537-.021 9.128 2.698 6.841 4.003-2.286 1.283-10.299 2.066-13.909.718-3.61-1.349-5.461-3.176-5.461-3.176" clip-rule="evenodd"/><path fill="#000091" fill-rule="evenodd" d="M94.542 228.316c.168-.288.501-.373.758-.2l.153.113.086.062q.268.193.624.425a23 23 0 0 0 2.274 1.3c2.381 1.186 4.817 1.892 7.157 1.883 2.667-.011 5.111.605 6.634 1.586 1.694 1.092 2.074 2.732.458 3.655-2.659 1.492-10.851 2.053-14.333.752a21 21 0 0 1-2.071-.904 18 18 0 0 1-2.658-1.628l-.125-.095a9 9 0 0 1-.801-.674.72.72 0 0 1-.062-.92c.204-.274.562-.305.8-.071l.04.038q.05.047.15.134l.118.101q.217.182.498.392c.694.519 1.526 1.04 2.494 1.528q.93.468 1.967.858c3.207 1.198 11.095.658 13.482-.682.336-.192.405-.316.379-.426-.053-.23-.358-.576-.89-.919-1.314-.846-3.512-1.41-5.943-1.42h-.133c-2.516.01-5.099-.739-7.611-1.99-.87-.433-1.67-.897-2.383-1.362l-.182-.12a20 20 0 0 1-.409-.28l-.207-.15q-.072-.052-.108-.081c-.26-.2-.33-.606-.156-.905" clip-rule="evenodd"/></g><defs><clipPath id="a"><path fill="#fff" d="M0 0h196v256H0z"/></clipPath></defs></svg>