<svg xmlns="http://www.w3.org/2000/svg" width="196" height="256" fill="none" viewBox="0 0 196 256"><g clip-path="url(#a)"><path fill="#f6f6f6" d="M0 0h196v256H0z"/><path fill="#6a6af4" fill-rule="evenodd" d="M84.163 255.229H24.448c-2.056.005-3.912-1.418-4.699-3.604L5.654 212.447c-.648-1.803-.47-3.86.473-5.481.944-1.621 2.53-2.592 4.226-2.588h59.716c2.056-.004 3.91 1.418 4.698 3.603l14.096 39.181c.648 1.803.47 3.859-.475 5.48-.944 1.62-2.53 2.591-4.226 2.587" clip-rule="evenodd"/><path fill="#fff" fill-rule="evenodd" d="M52.335 224.033s2.378 3.315-.895 4.394c.006 0-2.379-2.523.895-4.394" clip-rule="evenodd"/><path fill="#fff" fill-rule="evenodd" d="M54.776 229.405c-1.088-.432-3.488-.571-4.616-.613-.79-1.106-2.501-1.703-3.922-1.346a2.35 2.35 0 0 0-1.119.618c-1.048-1.416-2.39-2.504-3.902-3.163-3.52-1.588-6.961-.656-7.684 2.074s1.544 6.234 5.064 7.82c3.52 1.585 6.963.656 7.685-2.075a4.2 4.2 0 0 0 .121-1.287c.803.364 1.68.454 2.526.258.835-.214 1.376-.721 1.546-1.336 1.258.062 3.086.211 3.844.515a.6.6 0 0 0 .224.043c.33.005.614-.267.67-.641.055-.375-.134-.74-.446-.862z" clip-rule="evenodd"/><path fill="#fff" fill-rule="evenodd" d="M79.952 255.229H.3l13.38-20.503h57.888z" clip-rule="evenodd"/><path fill="#000091" fill-rule="evenodd" d="M71.568 233.953H13.68a.65.65 0 0 0-.537.308l-13.38 20.504C-.569 255.274-.253 256 .3 256h79.652c.492 0 .817-.588.607-1.101l-8.384-20.503c-.11-.27-.347-.443-.607-.443m-.426 1.544 7.752 18.959H1.644l12.372-18.959z" clip-rule="evenodd"/><path fill="#000091" fill-rule="evenodd" d="m75.088 251.73-4.057-9.173-1.286.721-5.97 9.129s1.092-.46 1.15-.216c.059.245 9.002-.749 9.132-.682q.51.141 1.03.221" clip-rule="evenodd"/><path fill="#000091" fill-rule="evenodd" d="M70.812 236.102c.102-.41.473-.647.83-.529.356.117.562.545.46.955-.438 1.758-.571 4.742-.108 6.319l.08.271.083.271.085.273.087.273.089.274.09.273.092.272.094.271.141.402.144.397.097.261.096.257.097.253.097.248.097.243.048.119.097.234.095.228.094.221.094.213.092.206.091.197.09.189.087.179.085.17.084.16c.136.257.264.469.377.627q.049.067.126.156l.083.094.096.103.107.111.118.12.128.126.137.132.145.138.152.143.24.222.252.228.349.31.177.156.27.233.268.229.178.15.176.146.258.212.084.068.244.195.155.122.149.114.14.106.133.097.123.087.112.077q.135.09.23.141c.337.18.483.639.326 1.026s-.555.554-.891.375l-.087-.049-.096-.058-.105-.068-.113-.076-.121-.085-.129-.092-.135-.1-.214-.162-.15-.116-.232-.184-.242-.194-.164-.134-.251-.209-.254-.214-.256-.219-.085-.073-.19-.166-.245-.216-.24-.215-.234-.213-.226-.208-.145-.137-.209-.198-.132-.129-.125-.124-.12-.12-.056-.058-.108-.112-.1-.106-.091-.101-.082-.093-.073-.087-.062-.08-.027-.036a8.6 8.6 0 0 1-.636-1.096l-.099-.2-.1-.209-.05-.108-.102-.222-.052-.114-.103-.234-.105-.241-.104-.248-.105-.255-.106-.26-.052-.132-.106-.269-.052-.136-.105-.275-.104-.279-.104-.283-.102-.286-.102-.288-.1-.29-.099-.292-.097-.293-.096-.293-.093-.293-.091-.293-.09-.293-.086-.29c-.564-1.92-.417-5.206.09-7.24" clip-rule="evenodd"/><path fill="#000091" fill-rule="evenodd" d="M70.39 239.876c.127-.401.512-.607.86-.461.349.147.528.59.4.99a22 22 0 0 1-1.332 3.275l-.088.162-.096.171-.104.179-.113.188-.12.195-.127.202-.134.21-.142.216-.073.11-.15.226-.157.23-.163.236-.168.241-.262.369-.18.25-.186.254-.189.257-.193.26-.197.262-.2.264-.204.264-.206.266-.208.267-.211.267-.213.266-.322.399-.217.264-.217.262-.218.261-.218.258-.218.256-.218.252-.218.249-.109.122-.216.243-.215.238-.214.233-.212.227-.105.112-.208.219-.207.212-.203.206c-.28.28-.704.246-.947-.076s-.214-.81.066-1.089l.194-.196.196-.203.2-.209.2-.214.204-.22.205-.225.206-.229.207-.234.209-.238.208-.241.21-.244.208-.246.209-.25.208-.251.207-.252.309-.381.204-.255.302-.382.2-.255.293-.38.192-.252.19-.25.185-.248.182-.246.265-.363.171-.237.167-.234.162-.23.156-.224.225-.328.142-.212.136-.206.13-.199.122-.193.116-.185.108-.178.1-.17.094-.162.043-.078.081-.149c.484-.962.894-1.971 1.226-3.015" clip-rule="evenodd"/><path fill="#000091" fill-rule="evenodd" d="m69.604 250.95.596-.056.31-.027.3-.024.29-.021.418-.027.267-.014.258-.012.249-.009.24-.006q.352-.007.666-.001l.204.006.196.009a7.9 7.9 0 0 1 2.584.511c.352.134.543.57.427.975-.115.405-.495.626-.847.493a6.7 6.7 0 0 0-2.211-.436l-.185-.008-.193-.006-.202-.002h-.211l-.22.003-.23.006-.237.009-.248.011-.256.015-.266.016-.416.03-.29.024-.298.025-.559.052-.655.067-.572.062-2.073.235-.434.045-.314.031-.208.018-.243.018-.16.008-.142.005q-.347.01-.87.155l-.164.048a8 8 0 0 0-.26.082l-.184.063-.19.068-.197.075-.204.08-.212.085-.217.092-.224.096q-.404.177-.843.385l-.279.133-.528.262-1.888.95-.177.086-.025.011c-.349.144-.733-.066-.858-.467-.12-.387.044-.812.37-.971l.105-.049 1.962-.988.234-.117.274-.135.117-.056q.554-.266 1.058-.487l.13-.056.254-.108.124-.052.243-.098.236-.091c.85-.323 1.554-.509 2.11-.537l.157-.005.137-.007.216-.015.187-.016.446-.043 1.084-.12 1.168-.133.489-.054.454-.048zm-7.614-37.435c-.685 1.379.051 3.265 1.526 4.27s3.24.82 3.924-.558-.052-3.265-1.527-4.27-3.24-.82-3.924.558m1.184.807c.285-.574 1.216-.671 2.097-.072s1.27 1.596.985 2.17-1.217.671-2.098.071c-.88-.599-1.27-1.595-.984-2.169" clip-rule="evenodd"/><path fill="#000091" fill-rule="evenodd" d="M68.01 207.636c2.296-.006 4.371 1.562 5.283 3.981l.037.1 14.362 40.043c.141.395-.022.846-.364 1.009-.331.156-.708-.012-.86-.378l-.017-.042-14.362-40.042c-.672-1.866-2.241-3.091-3.992-3.126l-.087-.001H8.302a3.93 3.93 0 0 0-2.133.625c-.325.206-.733.07-.912-.304-.18-.373-.061-.843.263-1.049a5.15 5.15 0 0 1 2.664-.815l.122-.001z" clip-rule="evenodd"/><ellipse cx=".768" cy=".943" fill="#000091" rx=".768" ry=".943" transform="matrix(.4516 -.89222 .83086 .55649 64.705 215.228)"/><path fill="#000091" fill-rule="evenodd" d="M48.7 100.317c.274-1.69 4.996-1.801 4.996-1.801l10.048 17.962c2.657-4.759 2.446-10.921-.53-15.425-2.974-4.503-8.08-6.388-12.777-4.718-4.698 1.67-7.987 6.54-8.234 12.19s2.601 10.873 7.13 13.078c-.37-5.874-.857-19.803-.634-21.286" clip-rule="evenodd"/><path fill="#fff" fill-rule="evenodd" d="M114.591 131.687s-16.663 6.823-21.704 16.859c-5.51 0-10.782 6.949-13.678 13.505-1.208-2.574-7.83-16.748-11.516-21.363s-5.976-15.067-5.676-16.915 2.633-5.699 2.633-5.699l-10.937-19.56s-4.72.097-4.996 1.801c-.275 1.704.41 19.592.783 23.254s3.82 47.22 16.676 59.015c0 2.819 3.623 6.162 8.214 4.989s20.077.056 32.016-15.554c7.142-7.16 10.203-7.16 10.203-7.16z" clip-rule="evenodd"/><path fill="#000091" fill-rule="evenodd" d="m53.701 97.74-.23.01-.223.012q-.174.01-.365.026c-.61.05-1.219.13-1.792.249l-.095.02-.184.04-.18.043-.173.045c-1.372.37-2.235.952-2.402 1.988a8 8 0 0 0-.052.824l-.007.275-.002.15-.003.321-.002.35v.376l.002.402.006.649.006.46.011.729.015.77.024 1.083.014.563.032 1.161.026.895.039 1.218.042 1.236.057 1.551.049 1.232.05 1.213.053 1.181.054 1.14.054 1.085.041.771.042.73.04.684.041.633.027.391.027.364.026.337q.008.08.013.158l.026.293.231 2.429.123 1.252.023.234q.093.918.193 1.852l.102.939.107.949.112.96q.142 1.207.3 2.455c.881 6.957 2.006 13.764 3.426 20.142l.092.412c2.987 13.265 6.892 23.006 11.928 27.871l.077.074.007.07c.165 1.57 1.173 3.135 2.682 4.197 1.734 1.22 3.933 1.666 6.198 1.123l.237-.058.117-.027.122-.026.196-.039.213-.038.23-.038.165-.025.265-.038.288-.039.7-.087 1.726-.202.803-.098.447-.058.434-.058.287-.04a51 51 0 0 0 5.037-.948c4.224-1.032 8.139-2.655 11.841-5.112l.219-.146c3.274-2.207 6.282-5.019 8.993-8.517l.15-.195.123-.122.306-.304.303-.296.3-.289.296-.282.292-.274.144-.134.287-.264.283-.256.279-.249.139-.122.274-.239.135-.116.269-.228.133-.112.263-.217.13-.107.257-.207.254-.201.251-.194.247-.187.243-.181q.181-.133.358-.259l.235-.164.116-.08.229-.155.113-.075.224-.145q.5-.32.963-.577c.695-.386 1.279-.638 1.753-.782q.212-.064.366-.094l.082-.015.05-.007.034-.003.011-.001h-.012c.389 0 .696-.379.669-.826l-2.018-33.171c-.031-.51-.476-.845-.895-.674l-.214.09-.311.135-.384.17-.276.124-.354.162-.18.083-.369.173-.378.181-.389.188-.397.195-.406.203c-2.735 1.377-5.471 2.96-8.028 4.728l-.187.13-.387.272c-4.355 3.091-7.67 6.403-9.566 9.919l-.04.072-.085.005c-4.787.321-9.728 5.462-13.147 12.496l-.063.131-.186-.393-.353-.743-.359-.752-.182-.38-.37-.769a276 276 0 0 0-3.462-6.931q-.362-.699-.716-1.368l-.351-.66-.174-.324-.273-.505-.199-.365-.294-.535-.289-.519-.19-.338-.187-.331-.185-.324-.183-.317-.18-.31-.266-.451-.174-.292-.172-.285-.17-.277-.166-.27-.165-.263-.162-.255-.238-.368-.155-.236-.153-.228-.15-.221-.075-.107-.146-.209-.144-.201-.21-.287-.137-.181-.068-.087-.133-.169c-1.587-1.988-3.063-5.348-4.19-9.218l-.074-.256-.072-.256-.07-.255-.102-.38-.099-.378-.063-.25-.09-.371-.088-.365-.082-.359-.052-.236-.05-.231-.048-.228-.068-.334-.062-.324-.04-.209-.053-.305-.049-.292-.03-.187-.026-.18-.024-.174-.022-.167-.019-.159-.016-.153-.014-.144-.01-.136-.009-.128-.005-.119-.003-.111v-.101q.003-.144.02-.245c.038-.24.127-.547.258-.908l.064-.171.07-.178.076-.185.081-.192.044-.099.09-.201.095-.208q.203-.434.441-.902c.286-.559.592-1.122.899-1.66l.125-.217.116-.2.165-.277a.87.87 0 0 0 .014-.86l-10.937-19.56a.65.65 0 0 0-.577-.355m-.345 1.561 10.49 18.761-.173.301a42 42 0 0 0-.934 1.725 29 29 0 0 0-.58 1.201l-.107.24-.051.118-.097.23c-.28.68-.468 1.266-.547 1.753q-.043.272-.034.685l.005.153.009.163.011.17.015.178.018.185.022.192.024.2.027.206.015.106.032.216.034.221.038.228.04.233.043.238.046.243.049.247.05.252.054.257.057.259.058.264.093.401.065.271.101.412.07.277.073.279.075.28.076.282.04.142.08.283.081.284c1.16 3.986 2.68 7.469 4.384 9.656l.091.116.126.16.128.167.065.087.133.18.136.188.138.197.142.204.144.212.073.109.148.224.151.232.154.239.236.373.16.259.163.265.25.413.17.284.171.292.175.298.266.462.18.316.276.487.28.503.286.518.29.533.099.181q.51.944 1.044 1.961l.357.686a263 263 0 0 1 2.978 5.937l.463.953.369.766.36.753.355.744.48 1.017.474 1.008c.257.548.944.538 1.19-.017 3.323-7.527 8.47-13.083 13.078-13.083.24 0 .462-.147.582-.386 1.79-3.563 5.254-7.004 9.902-10.217 2.503-1.73 5.189-3.284 7.875-4.636l.2-.101.395-.196.385-.188.377-.181.184-.087.362-.17.352-.162.483-.219 1.913 31.435-.017.005-.145.042c-.56.171-1.222.457-1.992.884l-.22.124-.223.131-.227.136-.23.143-.233.149q-.294.19-.599.401l-.245.172-.249.179q-.251.181-.508.376l-.26.198-.13.102-.265.209-.268.215-.271.222-.275.229-.279.237a52 52 0 0 0-.567.493l-.289.258-.146.131-.294.268-.148.137-.3.279-.151.143-.305.29-.154.148-.31.301-.314.309-.318.316a1 1 0 0 0-.063.072c-2.72 3.557-5.748 6.386-9.055 8.58-3.572 2.37-7.356 3.939-11.45 4.939-1.487.363-2.97.642-4.575.877l-.487.069-.57.077-.441.056-.628.077-2.175.256-.546.07-.295.041-.273.041-.17.027-.24.04-.151.028-.213.042-.135.03-.065.014-.127.031-.061.015c-1.969.503-3.862.133-5.333-.902-1.287-.905-2.064-2.213-2.064-3.332a.82.82 0 0 0-.253-.604c-4.944-4.536-8.877-14.308-11.87-27.753-1.406-6.32-2.522-13.076-3.397-19.982a277 277 0 0 1-.463-3.867l-.104-.938q-.102-.933-.196-1.848l-.095-.952-.327-3.414-.025-.284-.025-.313-.026-.342-.04-.564-.026-.407-.04-.655-.04-.702-.053-1.003-.054-1.069-.04-.837-.039-.863-.038-.884-.05-1.202-.036-.913-.046-1.224-.044-1.221-.03-.907-.038-1.187-.033-1.154-.022-.835-.02-.804-.017-.769-.018-.962-.01-.667-.004-.416-.003-.392-.002-.366.002-.498v-.152l.004-.28.003-.128.006-.232c.01-.252.022-.435.038-.539.015-.09.159-.248.478-.419.36-.193.866-.355 1.473-.48a14 14 0 0 1 1.651-.228l.23-.018z" clip-rule="evenodd"/><ellipse cx="66.069" cy="106.324" fill="#000091" rx="13.06" ry="15.023"/><path fill="#000091" fill-rule="evenodd" d="m107.721 255.228 3.307-22.102s54.306-8.236 54.666-7.191c.361 1.045 9.686 2.934 11.561 5.858 3.026 4.721 2.793 23.422 2.793 23.422" clip-rule="evenodd"/><path fill="#ff8d7e" fill-rule="evenodd" d="m169.124 195.829 2.801-18.954-5.061-19.344 11.369-23.332-4.542-17.502s-38.415-1.202-55.774 11.464l-2.163 1.029s-12.85-.257-21.86 16.431c0 0 8.106 12.738 12.784 27.432l3.932-2.252c2.051 6.926 5.128 8.447 5.128 8.447s.826 25.522-3.213 37.349c-1.056 3.434-.092 8.924.047 10.192s-2.71 10.085-2.71 10.085l4.359 2.054c8.465 3.945 17.777 4.82 26.686 2.506l36.447-9.479-8.055-13.461z" clip-rule="evenodd"/><path fill="#fff" fill-rule="evenodd" d="M109.872 139.518c.113-.406.491-.63.844-.5s.548.565.435.971a55.7 55.7 0 0 0-2.039 14.963c0 3.817.382 7.35 1.018 10.51.208 1.029.428 1.949.649 2.748l.078.277.059.204.057.19.054.174.053.167.053.159c.14.395-.025.845-.368 1.006-.344.161-.735-.029-.875-.424l-.039-.114-.058-.18-.057-.181-.06-.195-.062-.211-.064-.225a41 41 0 0 1-.728-3.047c-.658-3.269-1.052-6.918-1.052-10.858 0-5.063.657-10.239 2.102-15.434m52.933 34.048c.3-.25.72-.173.937.172s.151.828-.149 1.078c-2.169 1.812-4.901 2.956-8.061 3.535-3.487.639-7.198.555-10.729.031a37 37 0 0 1-1.353-.227l-.3-.059-.242-.049-.248-.054-.126-.03c-.363-.088-.595-.497-.518-.915.076-.417.432-.684.795-.596l.204.047.285.06.08.016q.21.042.439.084l.312.056.162.027.334.055.348.053c3.414.507 7.004.588 10.346-.024 2.967-.544 5.504-1.606 7.484-3.26m-4.48 12.581c.357.017.637.352.643.758v.045l-.936 26.276 11.513 20.482c.194.345.118.801-.166 1.041l-.033.027c-.3.223-.697.136-.905-.19l-.024-.039-11.628-20.689a.86.86 0 0 1-.107-.391v-.059l.944-26.521c.015-.411.306-.734.659-.741z" clip-rule="evenodd"/><path fill="#fff" fill-rule="evenodd" d="m161.936 186.203.039.001c.357.018.637.353.643.759l-.001.045-.932 25.148 12.234 20.396c.203.338.139.796-.138 1.046l-.033.028c-.294.233-.693.16-.91-.159l-.024-.038-12.362-20.609a.84.84 0 0 1-.118-.415v-.056l.942-25.406c.015-.411.307-.733.66-.74M149.833 118.7l-4.922-14.226c-.421-3.244-1.946-6.163-4.24-8.112-2.293-1.95-5.166-2.77-7.986-2.28-2.819.485-5.355 2.24-7.049 4.877s-2.406 5.941-1.981 9.183l2.027 16.609-4.788 2.401s-2.685 16.02 13.154 30.812c7.86-5.393 24.064-16.584 24.064-39.918z" clip-rule="evenodd"/><path fill="#000091" fill-rule="evenodd" d="m132.729 93.294-.144.023c-2.995.516-5.689 2.38-7.489 5.182l-.082.13c-1.741 2.781-2.468 6.236-2.024 9.628l1.956 16.02-4.321 2.167a.76.76 0 0 0-.391.562l-.011.072-.019.134-.021.167-.022.199-.022.23c-.252 2.811-.041 6.374.983 10.409 1.499 5.905 4.503 11.711 9.349 17.129a50 50 0 0 0 3.153 3.217.6.6 0 0 0 .767.063l.681-.468.64-.443.603-.421.571-.402.409-.291.524-.378.379-.276.37-.273.361-.27.356-.27.468-.36.349-.272.232-.184.35-.28.471-.382.36-.296c3.016-2.496 5.679-5.151 8.009-8.109 5.937-7.534 9.259-16.466 9.259-27.205l-.002-.046c-.021-.425-.341-.754-.716-.724l-7.79.615-4.713-13.622.012.091c-.447-3.447-2.067-6.548-4.504-8.62-2.396-2.037-5.39-2.914-8.341-2.447m7.543 3.689c2.15 1.827 3.58 4.564 3.974 7.605a1 1 0 0 0 .041.172l4.922 14.225.017.044c.117.286.376.463.653.441l7.554-.597-.001.098c-.185 9.922-3.351 18.198-8.902 25.243-2.262 2.871-4.855 5.456-7.799 7.892l-.246.203-.38.31-.375.302-.249.198-.372.292-.374.29-.379.288-.384.289-.261.194-.265.195-.271.198-.417.301-.432.309-.451.319-.633.443-.501.349-.633.436-.178-.17a48 48 0 0 1-2.523-2.614c-4.678-5.229-7.561-10.803-8.996-16.454-.972-3.83-1.172-7.195-.936-9.817l.009-.097.018-.181 4.448-2.23c.276-.139.438-.472.396-.815l-2.027-16.609c-.399-3.048.269-6.145 1.857-8.618 1.562-2.432 3.887-4.063 6.478-4.549l.127-.023.136-.022c2.599-.412 5.241.362 7.355 2.16m-26.447-23.738s13.915 12.702 5.704 21.96c0 0-3.639 3.845-6.23 2.671 0 0 2.303-3.359.224-5.513 0 0-1.723 10.733-9.218 7.562 0 0 3.282-4.437 3.074-10.275-.447-12.176 2.64-19.069 6.446-16.405" clip-rule="evenodd"/><path fill="#fff" fill-rule="evenodd" d="M145.105 88.015s2.014-21.384-16.819-24.022c-1.752-.257-13.767-1.65-15.47 9.85-1.137 7.68-1.069 15.958-.626 22.346 0 .039.671 12.097 5.101 18.575 4.43 6.479 13.584 5.351 18.305 1.779s5.542-5.336 6.739-9.328 2.761-19.157 2.761-19.157z" clip-rule="evenodd"/><path fill="#000091" fill-rule="evenodd" d="M125.364 63.034c-1.719.016-3.413.24-5.005.73-4.413 1.357-7.403 4.54-8.204 9.95l-.053.364c-.957 6.701-1.101 14.336-.609 21.767l.027.403.005.1.021.294.038.473.044.48.033.344.037.352c.167 1.565.405 3.233.725 4.934.921 4.888 2.326 9.071 4.341 12.017 2.198 3.214 5.611 4.859 9.557 4.953 3.463.082 7.088-1.073 9.644-3.007l.263-.2.255-.196.248-.193.241-.19.233-.186.226-.183.111-.091.215-.18.21-.177.203-.175.099-.087.193-.172q.096-.086.187-.171l.182-.169.176-.168c.836-.811 1.479-1.591 2.014-2.451l.109-.179q.294-.495.553-1.038l.093-.199.091-.204.046-.104.089-.21.087-.214.044-.109.086-.222.085-.227.042-.116.084-.235.083-.24.042-.123.083-.249.082-.256.083-.262.083-.269.084-.276.049-.169.025-.089.05-.187.05-.198.051-.21.026-.109.051-.227.052-.238.053-.25.053-.26.053-.272.082-.428.082-.453.055-.316.06-.348.09-.542.061-.376.061-.387.062-.397.093-.615.094-.638.063-.438.127-.906.096-.703.064-.48c.18-1.358.358-2.775.53-4.214l.128-1.083.064-.544.179-1.578.128-1.154.157-1.466a1 1 0 0 0 .014-.094l.012-.15.014-.222.008-.136c.184-3.589-.252-7.889-1.831-12.03-2.542-6.666-7.498-11.121-15.369-12.299l-.24-.034a19.6 19.6 0 0 0-3.003-.193m.01 1.545c1.04-.01 1.952.059 2.703.163l.124.017c7.533 1.055 12.164 5.178 14.546 11.422 1.454 3.813 1.877 7.809 1.728 11.14l-.013.252-.008.136-.013.18.002-.007-.014.085-.113 1.069-.147 1.34-.143 1.268-.125 1.083-.192 1.614-.131 1.064q-.131 1.059-.265 2.083l-.099.748-.127.934-.095.675-.093.654-.093.631-.092.608-.061.392-.09.568-.089.543-.059.348-.081.461-.051.282-.075.404-.074.381-.048.24-.048.23-.047.22-.047.208-.046.198-.022.095-.045.181-.023.086-.043.164-.022.078-.043.147-.077.256-.077.249-.077.243-.076.237-.076.231-.076.224-.076.219-.077.214-.039.105-.077.206-.04.101-.079.199-.08.195-.081.19-.083.186a10.5 10.5 0 0 1-1.346 2.226l-.123.153q-.342.416-.753.832l-.153.153-.158.153q-.12.115-.246.232l-.172.157-.177.158-.183.16-.094.08-.193.163-.199.166-.205.168-.212.171-.219.175-.227.177-.233.181-.364.279-.125.095c-2.325 1.759-5.683 2.829-8.879 2.753-3.571-.085-6.603-1.546-8.53-4.364-1.8-2.632-3.11-6.441-3.992-10.915l-.091-.474a61 61 0 0 1-.705-4.795l-.046-.45-.041-.43-.034-.386-.038-.478-.01-.149v-.02l-.002-.062c-.526-7.575-.383-15.386.619-22.155.704-4.758 3.285-7.505 7.228-8.718 1.472-.453 3.055-.661 4.668-.676" clip-rule="evenodd"/><path fill="#000091" fill-rule="evenodd" d="M118.503 88.839c.357.017.637.352.643.758l-.001.046-.458 12.489 2.458-.044c.357-.006.654.31.68.715l.001.045c.006.411-.269.752-.621.782l-.039.002-3.169.057c-.372.006-.675-.336-.681-.759v-.046l.488-13.307c.015-.41.307-.733.659-.74z" clip-rule="evenodd"/><ellipse cx=".935" cy="1.671" fill="#000091" rx=".935" ry="1.671" transform="matrix(.9619 -.27342 .21002 .9777 113.61 91.525)"/><ellipse cx=".921" cy="1.697" fill="#000091" rx=".921" ry="1.697" transform="matrix(.89893 -.43808 .3456 .93838 122.977 89.206)"/><path fill="#000091" fill-rule="evenodd" d="M122.327 81.641c1.802-.7 3.446-.346 4.838.663.306.222.576.46.808.7l.047.048.083.09.038.041.065.075.052.065.022.027a.854.854 0 0 1-.061 1.09.61.61 0 0 1-.918-.034l-.052-.065-.035-.04-.047-.052-.057-.062-.033-.034a5 5 0 0 0-.627-.543c-1.074-.778-2.309-1.044-3.693-.506-.351.137-.732-.08-.85-.484-.119-.404.069-.842.42-.979m-7.973 2.209c.7-.072 1.43.029 2.146.238l.148.044.138.045.125.043.113.042.052.02.093.038.079.034c.345.156.515.604.379 1.001-.131.383-.498.578-.833.452l-.127-.053-.058-.022q-.196-.076-.439-.147c-.582-.17-1.17-.251-1.699-.197-.675.068-1.179.345-1.507.876l-.037.062c-.204.356-.62.455-.93.22-.309-.234-.395-.713-.192-1.069.576-1.006 1.469-1.518 2.549-1.628m15.715-9.255s-1.445 29.561 15.179 28.251c0 0 9.729-.515 11.118-4.89 0 0-7.592-2.381-7.607-7.055 0 0 9.507 7.636 14.785-.986 0 0-11.487.751-12.754-10.965-.908-8.395-19.564-11.662-20.721-4.355" clip-rule="evenodd"/><path fill="#6a6af4" fill-rule="evenodd" d="m160.029 75.354-10.084-1.194c-1.356-7.704-5.744-18.599-19.648-19.69-21.725-1.704-21.37 22.516-21.37 22.516l50.433 5.85c1.796.213 3.402-1.289 3.588-3.355s-1.121-3.914-2.917-4.127z" clip-rule="evenodd"/><path fill="#000091" fill-rule="evenodd" d="M127.548 100.375c.369-.043.698.267.735.691.144 1.664-.752 3.155-2.279 4.496-.472.414-.973.784-1.474 1.107l-.126.08-.117.073-.158.096-.094.055-.121.068-.066.036c-.337.178-.736.009-.891-.379-.149-.373-.017-.813.294-1.004l.189-.106q.195-.113.433-.266c.45-.29.9-.622 1.316-.988 1.193-1.047 1.844-2.129 1.758-3.114-.037-.424.232-.803.601-.845" clip-rule="evenodd"/><path fill="#fff" fill-rule="evenodd" d="m166.932 157.788 2.557 10.4 4.399 9.482s13.846 5.92 14.009 5.405 2.555-4.39 2.651-4.874c.097-.484-.872-9.081-.872-9.081l1.051-6.81-1.172-7.765s-11.776-1.918-22.69 2.988" clip-rule="evenodd"/><path fill="#ff8d7e" fill-rule="evenodd" d="M166.552 158.019s6.549-4.609 23.907-2.669c0 0 3.423-28.801-8.881-36.805s-22.983 8.691-22.983 8.691l8.84 11.67z" clip-rule="evenodd"/><path fill="#000091" fill-rule="evenodd" d="M182.308 131.952c-1.417-7.5-5.384-13.579-8.863-13.579a2.7 2.7 0 0 0-.671.082h-.031a2.5 2.5 0 0 0-.383.131l-10.292 3.503c-2.849.806-4.185 6.164-3.09 12.774l-16.186 5.572c-1.878-4.669-4.679-7.914-7.218-7.914q-.34 0-.672.082h-.031q-.194.053-.383.131l-10.292 3.506c-2.949.834-4.276 6.545-2.967 13.471 1.416 7.501 5.384 13.58 8.863 13.58q.258-.002.514-.052h.021q.376-.076.725-.257l10.068-3.415q.178-.048.349-.119l.045-.015c1.958-.85 3.112-3.985 3.132-8.175l18.348-5.343c1.476 2 3.121 3.21 4.672 3.21q.258-.003.514-.052h.02q.377-.077.725-.257l10.069-3.416c.118-.033.224-.072.349-.118l.045-.016c2.703-1.137 3.875-6.666 2.62-13.314" clip-rule="evenodd"/><path fill="#fff" fill-rule="evenodd" d="M187.749 178.036c-5.817-6.061-14.436-5.507-14.436-5.507s-8.95-13.467-9.811-14.496a16.3 16.3 0 0 1-2.482-4.023c.824-.499 2.764-3.84 4.055-6.177-1.343-1.166-2.645-3.037-3.714-5.346-.529 1.119-1.298 2.7-1.397 2.587-.152-.175-2.425-1.264-2.197-2.659s-1.213-10.81-1.213-10.81-1.172-1.174-2.575-1.48-3.408 1.264-3.408 1.264 0-.61-2.309-.873c-2.309-.262-2.685 2.528-2.685 2.528s-.266-.348-2.045 0c-1.778.347-2.423 2.962-2.423 2.962s-2.273-.479-2.499 1.001-.846 8.061-.846 8.061-.329 5.148 3.952 10.978c4.28 5.829 4.81 1.13 6.17 5.552 16.911 42.982 32.11 49.983 35.69 50.063s10.79-2.957 10.1-14.576c4.598-6.367-1.691-22.016-3.803-28.353 1.593-4.02.76-9.623-.26-13.723" clip-rule="evenodd"/><path fill="#000091" fill-rule="evenodd" d="M152.804 129.415c.464-.114.898-.137 1.3-.049.613.134 1.216.412 1.797.79.286.186.549.385.784.585l.09.077.041.036.072.065.06.057.047.046c.103.103.176.24.21.391l.021.125.141.946.043.291c.145.996.291 2.027.427 3.041l.078.592.075.575.092.734.083.688.059.515.041.367.048.461.032.326.028.309.017.196.022.279.018.261.01.164.008.156.006.148.004.141.003.132.001.124-.001.116-.003.108-.005.099-.007.092-.004.043-.009.079-.006.036c-.041.251.231.661.814 1.12l.061.046.076.055.134.094.293.2.05-.091.07-.135.09-.174.143-.285.155-.313.108-.223.229-.479.121-.254c.255-.541.931-.538 1.182.005 1.025 2.213 2.266 3.999 3.526 5.093.28.243.35.691.162 1.03l-.337.608-.165.294-.321.568-.234.409-.228.393-.149.254-.218.367-.212.352-.206.335-.133.214-.131.207-.128.199-.126.192-.122.185-.12.176-.117.169-.114.161-.111.153-.054.074-.107.141-.104.133-.101.125-.098.116-.048.055-.083.092.008.016a15.4 15.4 0 0 0 1.974 3.108l.142.17.077.098.122.162.242.335.39.554.8 1.158 1.233 1.812 1.282 1.9 1.107 1.647 1.661 2.48 2.725 4.086h.017q.567-.012 1.26.025l.281.018q.787.052 1.698.181l.159.023c2.176.327 4.328.957 6.347 1.965a17.3 17.3 0 0 1 4.801 3.508.856.856 0 0 1 .047 1.091c-.249.316-.673.34-.948.053a16 16 0 0 0-4.435-3.236c-1.894-.945-3.926-1.54-5.986-1.85a23 23 0 0 0-.879-.114l-.279-.029a23 23 0 0 0-.535-.046l-.256-.017-.124-.007-.244-.011-.234-.007-.225-.004h-.321l-.202.003-.228.009a.64.64 0 0 1-.543-.262l-.076-.112-1.466-2.202-1.699-2.543-2.606-3.884-1.613-2.385-.948-1.391-.541-.784-.42-.599-.174-.242-.135-.184-.079-.103-.03-.038a17 17 0 0 1-2.601-4.215c-.157-.362-.044-.799.253-1.006l.035-.023q.082-.05.196-.166l.058-.062.031-.033.064-.074.067-.08.035-.044.11-.14.077-.103.081-.11.127-.177.133-.193.092-.137.096-.142.098-.149.152-.235.157-.248.163-.261.226-.367.234-.388.303-.512.188-.321.256-.443.262-.459.272-.484-.035-.035c-.963-.964-1.884-2.248-2.705-3.762l-.076-.141-.087.175-.156.308-.094.182-.086.161-.08.145-.037.067-.071.123-.065.106a2 2 0 0 1-.2.272.8.8 0 0 1-.234.183.6.6 0 0 1-.699-.091l-.016-.014-.29-.186a9 9 0 0 1-.772-.54c-.964-.758-1.523-1.585-1.386-2.609l.014-.093.006-.053.003-.062.003-.071.001-.081-.001-.089-.002-.098-.004-.107-.008-.176-.012-.194-.026-.364-.02-.242-.031-.347-.036-.376-.053-.508-.074-.662-.099-.839-.097-.772-.073-.57-.078-.587c-.108-.805-.222-1.621-.337-2.422l-.15-1.026-.086-.578-.049-.042a7 7 0 0 0-.648-.483c-.463-.301-.933-.518-1.386-.617-.208-.045-.469-.031-.771.042-.375.092-.79.269-1.217.507a8 8 0 0 0-.668.415l-.101.071-.148.108c-.34.267-.773.116-.958-.248l-.021-.044-.024-.015a1 1 0 0 0-.151-.079l-.048-.021a4 4 0 0 0-.67-.196l-.155-.032-.165-.029-.176-.028-.187-.026-.197-.024c-.776-.088-1.273.242-1.621.892a3.3 3.3 0 0 0-.272.697l-.022.088-.018.076-.012.061-.009.046-.002.017c-.075.559-.61.812-.997.554l-.03-.021-.011-.003a1.5 1.5 0 0 0-.301-.03h-.049c-.3 0-.699.044-1.208.143-.526.103-.976.503-1.351 1.137a5.3 5.3 0 0 0-.493 1.117l-.028.095-.018.063c-.091.368-.401.602-.727.556l-.123-.022-.101-.014a3.3 3.3 0 0 0-.87-.007c-.436.063-.631.204-.663.411l-.033.232-.038.298-.053.442-.071.626-.117 1.087-.119 1.156-.07.695-.143 1.44-.194 2.026-.001.022-.002.117v.13l.003.143.002.077.007.163.018.268.016.194c.065.705.194 1.481.402 2.314.574 2.298 1.648 4.659 3.351 6.977.995 1.356 1.817 2.179 2.524 2.614.431.265.698.35 1.222.42l.165.021c.761.091 1.158.268 1.588.894.256.372.484.888.72 1.618l.061.192.215.545c7.378 18.631 14.925 31.753 22.251 40.061l.224.253c2.858 3.204 5.553 5.518 7.984 7.002.789.482 1.53.862 2.194 1.14l.198.081c.811.323 1.5.489 2.015.501 2.005.044 4.408-.892 6.193-2.708 2.317-2.357 3.523-6 3.224-11.043a.85.85 0 0 1 .153-.546c1.349-1.868 1.751-4.784 1.336-8.607l-.036-.321-.041-.325-.044-.329-.048-.333-.051-.338-.055-.341-.059-.346-.063-.349a47 47 0 0 0-.209-1.073l-.077-.366a51 51 0 0 0-.165-.743 76 76 0 0 0-1.522-5.577l-.188-.6-.097-.304-.249-.772-.181-.546-.294-.872-.487-1.43-1.384-4.012a.88.88 0 0 1 .016-.596c.846-2.134 1.02-4.891.664-8.033l-.04-.338a36 36 0 0 0-.092-.685l-.052-.346q-.081-.522-.179-1.056l-.068-.357a42 42 0 0 0-.146-.721l-.078-.364-.041-.183-.084-.367-.087-.37-.091-.371c-.102-.41.104-.838.461-.955.356-.118.728.12.83.53l.096.394.093.393q.32 1.371.541 2.686l.062.374c.61 3.851.549 7.286-.423 10.025l-.028.078 1.109 3.213.684 2.002.333.992.175.532c.853 2.627 1.531 4.993 2.045 7.243l.045.194.085.387.082.383.04.189.077.378q.28 1.406.455 2.706l.044.344.041.341c.469 4.119.064 7.369-1.427 9.644l-.026.039.003.057c.245 5.269-1.081 9.232-3.607 11.86l-.086.088c-2.047 2.083-4.778 3.146-7.108 3.095-1.203-.027-2.984-.664-5.011-1.902-2.547-1.556-5.345-3.958-8.291-7.261-7.601-8.523-15.397-22.063-22.987-41.354l-.021-.061-.029-.095-.058-.179-.029-.085-.056-.161a7 7 0 0 0-.108-.287l-.052-.125a3 3 0 0 0-.247-.469c-.122-.178-.199-.239-.435-.282l-.085-.014-.047-.006-.106-.014a5 5 0 0 1-.219-.029l-.142-.023-.071-.013-.139-.029c-1.061-.229-1.958-.772-3.103-2.08l-.15-.175-.154-.184-.078-.096-.159-.197a24 24 0 0 1-.328-.424l-.17-.227-.086-.117c-1.827-2.489-2.99-5.045-3.615-7.548a17 17 0 0 1-.447-2.578 11 11 0 0 1-.052-1.24l.004-.127.006-.09.159-1.651.107-1.095.142-1.414.135-1.31.086-.8.056-.5.06-.518.053-.426.038-.281.014-.093c.157-1.028.866-1.54 1.819-1.676.262-.038.529-.045.793-.032l.102.007.03-.081a7 7 0 0 1 .41-.879l.082-.142c.563-.949 1.3-1.605 2.235-1.788.7-.137 1.241-.185 1.655-.159l.035.002.021-.063q.101-.298.243-.583l.059-.114c.602-1.123 1.573-1.768 2.896-1.618l.12.015.232.03c.641.091 1.141.217 1.521.375q.241.1.427.223l.037.026.087-.057q.19-.123.392-.24l.136-.078c.517-.287 1.029-.506 1.523-.626" clip-rule="evenodd"/><path fill="#000091" fill-rule="evenodd" d="M150.667 130.617c.357.022.633.361.635.767l-.001.045-.396 8.512c-.02.426-.336.753-.706.73-.357-.022-.634-.361-.636-.767l.001-.046.396-8.511c.02-.411.314-.729.667-.731zm-5.036 1.654c.358 0 .65.321.67.727l.002.045v8.131c0 .426-.301.772-.672.772-.357 0-.649-.321-.67-.727l-.001-.045v-8.131c0-.426.301-.772.671-.772m-4.468 2.962c.358 0 .65.322.67.727l.002.045v7.791c0 .427-.301.772-.672.772-.357 0-.649-.321-.67-.726l-.001-.046v-7.791c0-.426.301-.772.671-.772" clip-rule="evenodd"/></g><defs><clipPath id="a"><path fill="#fff" d="M0 0h196v256H0z"/></clipPath></defs></svg>