<svg preserveAspectRatio="none" width="100%" height="100%" overflow="visible" style="display: block;" viewBox="0 0 62 58" fill="none" xmlns="http://www.w3.org/2000/svg">
<g id="&#240;&#159;&#142;&#168; Mineure (indice -main)">
<path fill-rule="evenodd" clip-rule="evenodd" d="M56.5 3C56.5 3.61061 56.3176 4.17861 56.0043 4.65248C57.193 5.33957 58 6.52567 58 8C58 8.55228 57.5523 9 57 9C56.4477 9 56 8.55228 56 8C56 6.9985 55.0917 6 53.5 6C51.9297 6 51 7.07358 51 8C51 8.55228 50.5523 9 50 9C49.4477 9 49 8.55228 49 8C49 6.58721 49.8083 5.37828 51.0074 4.67002C50.687 4.19266 50.5 3.61816 50.5 3C50.5 1.34315 51.8431 0 53.5 0C55.1569 0 56.5 1.34315 56.5 3ZM52.5 3C52.5 2.44772 52.9477 2 53.5 2C54.0523 2 54.5 2.44772 54.5 3C54.5 3.55228 54.0523 4 53.5 4C52.9477 4 52.5 3.55228 52.5 3Z" fill="#6A6AF4"/>
<path fill-rule="evenodd" clip-rule="evenodd" d="M17.5 8C17.5 8.61061 17.3176 9.17861 17.0043 9.65248C18.1929 10.3396 19 11.5257 19 13C19 13.5523 18.5523 14 18 14C17.4477 14 17 13.5523 17 13C17 11.9985 16.0917 11 14.5 11C12.9297 11 12 12.0736 12 13C12 13.5523 11.5523 14 11 14C10.4477 14 10 13.5523 10 13C10 11.5872 10.8083 10.3783 12.0074 9.67002C11.687 9.19266 11.5 8.61816 11.5 8C11.5 6.34315 12.8431 5 14.5 5C16.1569 5 17.5 6.34315 17.5 8ZM13.5 8C13.5 7.44772 13.9477 7 14.5 7C15.0523 7 15.5 7.44772 15.5 8C15.5 8.55228 15.0523 9 14.5 9C13.9477 9 13.5 8.55228 13.5 8Z" fill="#6A6AF4"/>
<path fill-rule="evenodd" clip-rule="evenodd" d="M28 25C28 26.0248 28.3854 26.9596 29.0191 27.6674C26.9327 28.6632 25.5 30.6722 25.5 33C25.5 33.5523 25.9477 34 26.5 34C27.0523 34 27.5 33.5523 27.5 33C27.5 30.9252 29.3764 29 32 29C34.6371 29 36.5 30.8376 36.5 33C36.5 33.5523 36.9477 34 37.5 34C38.0523 34 38.5 33.5523 38.5 33C38.5 30.6003 37.0688 28.6271 34.9925 27.6543C35.6193 26.9482 36 26.0185 36 25C36 22.7909 34.2091 21 32 21C29.7909 21 28 22.7909 28 25ZM32 23C30.8954 23 30 23.8954 30 25C30 26.1046 30.8954 27 32 27L32.0035 27C33.1065 26.9981 34 26.1034 34 25C34 23.8954 33.1046 23 32 23Z" fill="#6A6AF4"/>
<path fill-rule="evenodd" clip-rule="evenodd" d="M37.5 52C37.5 52.6106 37.3176 53.1786 37.0043 53.6525C38.193 54.3396 39 55.5257 39 57C39 57.5523 38.5523 58 38 58C37.4477 58 37 57.5523 37 57C37 55.9992 36.093 55.0015 34.5036 55L34.5 55L34.4965 55C32.9284 55.0016 32 56.0743 32 57C32 57.5523 31.5523 58 31 58C30.4477 58 30 57.5523 30 57C30 55.5872 30.8083 54.3783 32.0074 53.67C31.687 53.1927 31.5 52.6182 31.5 52C31.5 50.3431 32.8431 49 34.5 49C36.1569 49 37.5 50.3431 37.5 52ZM33.5 52C33.5 51.4477 33.9477 51 34.5 51C35.0523 51 35.5 51.4477 35.5 52C35.5 52.5523 35.0523 53 34.5 53L34.4975 53C33.9463 52.9986 33.5 52.5514 33.5 52Z" fill="#6A6AF4"/>
<path fill-rule="evenodd" clip-rule="evenodd" d="M57.5 30C55.8431 30 54.5 31.3431 54.5 33C54.5 33.6182 54.687 34.1927 55.0074 34.67C53.8083 35.3783 53 36.5872 53 38C53 38.5523 53.4477 39 54 39C54.5523 39 55 38.5523 55 38C55 37.0736 55.9298 36 57.5 36C59.0917 36 60 36.9985 60 38C60 38.5523 60.4477 39 61 39C61.5523 39 62 38.5523 62 38C62 36.5257 61.193 35.3396 60.0043 34.6525C60.3176 34.1786 60.5 33.6106 60.5 33C60.5 31.3431 59.1569 30 57.5 30ZM56.5 33C56.5 32.4477 56.9477 32 57.5 32C58.0523 32 58.5 32.4477 58.5 33C58.5 33.5523 58.0523 34 57.5 34C56.9477 34 56.5 33.5523 56.5 33Z" fill="#6A6AF4"/>
<path fill-rule="evenodd" clip-rule="evenodd" d="M7.5 47C7.5 47.6106 7.31758 48.1786 7.00426 48.6525C8.19295 49.3396 9 50.5257 9 52C9 52.5523 8.55228 53 8 53C7.44772 53 7 52.5523 7 52C7 50.9985 6.09166 50 4.5 50C2.92975 50 2 51.0736 2 52C2 52.5523 1.55228 53 1 53C0.447715 53 0 52.5523 0 52C0 50.5872 0.808252 49.3783 2.00743 48.67C1.68697 48.1927 1.5 47.6182 1.5 47C1.5 45.3431 2.84315 44 4.5 44C6.15685 44 7.5 45.3431 7.5 47ZM3.5 47C3.5 46.4477 3.94772 46 4.5 46C5.05228 46 5.5 46.4477 5.5 47C5.5 47.5523 5.05228 48 4.5 48C3.94772 48 3.5 47.5523 3.5 47Z" fill="#6A6AF4"/>
<path d="M2.5 15C3.05228 15 3.5 14.5523 3.5 14C3.5 13.4477 3.05228 13 2.5 13C1.94772 13 1.5 13.4477 1.5 14C1.5 14.5523 1.94772 15 2.5 15Z" fill="#6A6AF4"/>
</g>
</svg>
