<svg preserveAspectRatio="none" width="100%" height="100%" overflow="visible" style="display: block;" viewBox="0 0 71 67" fill="none" xmlns="http://www.w3.org/2000/svg">
<g id="Majeure">
<path fill-rule="evenodd" clip-rule="evenodd" d="M62 32C58.134 32 55 35.134 55 39C55 42.866 58.134 46 62 46C65.866 46 69 42.866 69 39C69 35.134 65.866 32 62 32ZM53 39C53 34.0294 57.0294 30 62 30C66.9706 30 71 34.0294 71 39C71 43.9706 66.9706 48 62 48C57.0294 48 53 43.9706 53 39Z" fill="#000091"/>
<path fill-rule="evenodd" clip-rule="evenodd" d="M8.43347 20.176C8.88858 19.8631 9.51116 19.9784 9.82404 20.4335C10.7999 21.8528 12.2464 22.9552 13.9472 23.8056C14.4412 24.0526 14.6414 24.6532 14.3944 25.1472C14.1474 25.6412 13.5468 25.8414 13.0528 25.5944C11.1536 24.6448 9.40015 23.3472 8.17596 21.5665C7.86307 21.1114 7.97836 20.4888 8.43347 20.176Z" fill="#000091"/>
<path fill-rule="evenodd" clip-rule="evenodd" d="M19 7C15.134 7 12 10.134 12 14C12 17.866 15.134 21 19 21C22.866 21 26 17.866 26 14C26 10.134 22.866 7 19 7ZM10 14C10 9.02944 14.0294 5 19 5C23.9706 5 28 9.02944 28 14C28 18.9706 23.9706 23 19 23C14.0294 23 10 18.9706 10 14Z" fill="#000091"/>
<path fill-rule="evenodd" clip-rule="evenodd" d="M9 46C5.13401 46 2 49.134 2 53C2 56.866 5.13401 60 9 60C12.866 60 16 56.866 16 53C16 49.134 12.866 46 9 46ZM0 53C0 48.0294 4.02944 44 9 44C13.9706 44 18 48.0294 18 53C18 57.9706 13.9706 62 9 62C4.02944 62 0 57.9706 0 53Z" fill="#000091"/>
<path fill-rule="evenodd" clip-rule="evenodd" d="M49 9C49 4.04772 53.0477 0 58 0C59.3592 0 60.7119 0.337932 61.8472 0.905573C62.3412 1.15256 62.5414 1.75324 62.2944 2.24721C62.0474 2.74119 61.4468 2.94142 60.9528 2.69443C60.0881 2.26207 59.0408 2 58 2C54.1523 2 51 5.15228 51 9C51 12.8477 54.1523 16 58 16C61.8477 16 65 12.8477 65 9C65 8.44772 65.4477 8 66 8C66.5523 8 67 8.44772 67 9C67 13.9523 62.9523 18 58 18C53.0477 18 49 13.9523 49 9Z" fill="#000091"/>
<path fill-rule="evenodd" clip-rule="evenodd" d="M63.2 3.19999C63.5314 2.75816 64.1582 2.66862 64.6 2.99998C64.701 3.07574 64.7838 3.15621 64.8429 3.21712C64.8999 3.27594 64.9541 3.33684 64.9926 3.3802C64.9942 3.38204 64.9958 3.38385 64.9974 3.38563C65.042 3.43577 65.069 3.46594 65.0929 3.49056C65.1015 3.49939 65.1071 3.50481 65.11 3.50755C65.5432 3.84082 65.6289 4.46149 65.3 4.89998C64.9686 5.34181 64.3418 5.43136 63.9 5.09999C63.799 5.02423 63.7162 4.94376 63.6571 4.88285C63.6001 4.82404 63.5459 4.76313 63.5074 4.71978C63.5058 4.71793 63.5042 4.71613 63.5026 4.71435C63.458 4.6642 63.431 4.63404 63.4071 4.60941C63.3985 4.60058 63.3929 4.59516 63.39 4.59242C62.9568 4.25915 62.8711 3.63848 63.2 3.19999Z" fill="#000091"/>
<path fill-rule="evenodd" clip-rule="evenodd" d="M30 58C30 53.0477 34.0477 49 39 49C43.9523 49 48 53.0477 48 58C48 62.9523 43.9523 67 39 67C37.6408 67 36.2881 66.6621 35.1528 66.0944C34.6588 65.8474 34.4586 65.2468 34.7056 64.7528C34.9526 64.2588 35.5532 64.0586 36.0472 64.3056C36.9119 64.7379 37.9592 65 39 65C42.8477 65 46 61.8477 46 58C46 54.1523 42.8477 51 39 51C35.1523 51 32 54.1523 32 58C32 58.5523 31.5523 59 31 59C30.4477 59 30 58.5523 30 58Z" fill="#000091"/>
<path fill-rule="evenodd" clip-rule="evenodd" d="M32.2 62.4C32.5314 61.9582 33.1582 61.8686 33.6 62.2C33.701 62.2758 33.7838 62.3562 33.8429 62.4171C33.8999 62.4759 33.9541 62.5369 33.9926 62.5802C33.9942 62.582 33.9958 62.5839 33.9974 62.5856C34.042 62.6358 34.069 62.6659 34.0929 62.6906C34.1015 62.6994 34.1071 62.7048 34.11 62.7076C34.5432 63.0408 34.6289 63.6615 34.3 64.1C33.9686 64.5418 33.3418 64.6314 32.9 64.3C32.799 64.2242 32.7162 64.1438 32.6571 64.0829C32.6001 64.024 32.5459 63.9631 32.5074 63.9198C32.5058 63.9179 32.5042 63.9161 32.5026 63.9144C32.458 63.8642 32.431 63.8341 32.4071 63.8094C32.3985 63.8006 32.3929 63.7952 32.39 63.7924C31.9568 63.4592 31.8711 62.8385 32.2 62.4Z" fill="#000091"/>
<path fill-rule="evenodd" clip-rule="evenodd" d="M36.5 23C31.2533 23 27 27.2533 27 32.5C27 37.7467 31.2533 42 36.5 42C41.7467 42 46 37.7467 46 32.5C46 27.2533 41.7467 23 36.5 23ZM25 32.5C25 26.1487 30.1487 21 36.5 21C42.8513 21 48 26.1487 48 32.5C48 38.8513 42.8513 44 36.5 44C30.1487 44 25 38.8513 25 32.5Z" fill="#000091"/>
<path fill-rule="evenodd" clip-rule="evenodd" d="M52.7071 14.2929C53.0976 14.6834 53.0976 15.3166 52.7071 15.7071L43.7071 24.7071C43.3166 25.0976 42.6834 25.0976 42.2929 24.7071C41.9024 24.3166 41.9024 23.6834 42.2929 23.2929L51.2929 14.2929C51.6834 13.9024 52.3166 13.9024 52.7071 14.2929Z" fill="#000091"/>
<path fill-rule="evenodd" clip-rule="evenodd" d="M46.0256 35.7751C46.1498 35.237 46.6867 34.9014 47.2249 35.0256L53.7249 36.5256C54.263 36.6498 54.5986 37.1867 54.4744 37.7249C54.3502 38.263 53.8133 38.5986 53.2752 38.4744L46.7752 36.9744C46.237 36.8502 45.9014 36.3133 46.0256 35.7751Z" fill="#000091"/>
<path fill-rule="evenodd" clip-rule="evenodd" d="M37.9169 42.5034C38.4673 42.4576 38.9507 42.8666 38.9965 43.4169L39.4966 49.4169C39.5424 49.9673 39.1334 50.4507 38.5831 50.4965C38.0327 50.5424 37.5493 50.1334 37.5035 49.583L37.0034 43.583C36.9576 43.0327 37.3666 42.5493 37.9169 42.5034Z" fill="#000091"/>
<path fill-rule="evenodd" clip-rule="evenodd" d="M23.7929 19.7929C24.1834 19.4024 24.8166 19.4024 25.2071 19.7929L29.7071 24.2929C30.0976 24.6834 30.0976 25.3166 29.7071 25.7071C29.3166 26.0976 28.6834 26.0976 28.2929 25.7071L23.7929 21.2071C23.4024 20.8166 23.4024 20.1834 23.7929 19.7929Z" fill="#000091"/>
<path fill-rule="evenodd" clip-rule="evenodd" d="M28.3042 38.9056C28.6324 39.3498 28.5385 39.9759 28.0944 40.3042L16.5944 48.8042C16.1503 49.1325 15.5241 49.0385 15.1958 48.5944C14.8676 48.1503 14.9615 47.5241 15.4056 47.1958L26.9056 38.6958C27.3497 38.3676 27.9759 38.4615 28.3042 38.9056Z" fill="#000091"/>
</g>
</svg>
