<svg xmlns="http://www.w3.org/2000/svg" width="80" height="80" viewBox="0 0 80 80" fill="none">
  <!-- Decorative layer (background dots) -->
  <svg x="14" y="8" width="55" height="68" viewBox="0 0 41.25 51" overflow="visible">
    <path fill-rule="evenodd" clip-rule="evenodd" d="M40.5 3.75C40.0864 3.75 39.75 3.41355 39.75 3C39.75 2.58641 40.0864 2.25 40.5 2.25C40.9136 2.25 41.25 2.58641 41.25 3C41.25 3.41355 40.9136 3.75 40.5 3.75Z" fill="#ECECFE"/>
    <path fill-rule="evenodd" clip-rule="evenodd" d="M20.25 51C19.8364 51 19.5 50.6636 19.5 50.25C19.5 49.8364 19.8364 49.5 20.25 49.5C20.6636 49.5 21 49.8364 21 50.25C21 50.6636 20.6636 51 20.25 51Z" fill="#ECECFE"/>
    <path fill-rule="evenodd" clip-rule="evenodd" d="M0.75 1.5C0.33645 1.5 0 1.16355 0 0.75C0 0.336415 0.33645 0 0.75 0C1.16355 0 1.5 0.336415 1.5 0.75C1.5 1.16355 1.16355 1.5 0.75 1.5Z" fill="#ECECFE"/>
  </svg>
  <!-- Major layer (circle outline) -->
  <svg x="11" y="11" width="62" height="58" viewBox="0 0 46.5036 43.506" overflow="visible">
    <path d="M0.334068 25.5292C-1.75183 13.6995 6.14709 2.41867 17.9768 0.332771C25.4925 -0.99246 33.0255 1.70347 38.0089 7.29701C38.2844 7.60628 38.2571 8.08037 37.9478 8.35591C37.6385 8.63145 37.1644 8.6041 36.8889 8.29482C32.248 3.08565 25.2355 0.576002 18.2373 1.80998C7.2234 3.75202 -0.130761 14.2549 1.81128 25.2687C3.75332 36.2826 14.2562 43.6367 25.27 41.6947C36.2839 39.7527 43.638 29.2498 41.696 18.236C41.6241 17.828 41.8964 17.439 42.3044 17.3671C42.7123 17.2952 43.1013 17.5676 43.1732 17.9755C45.2591 29.8052 37.3602 41.086 25.5305 43.1719C13.7008 45.2578 2.41996 37.3589 0.334068 25.5292Z" fill="#000091"/>
    <path d="M44.4216 26.9456C44.5138 26.5417 44.9158 26.2891 45.3197 26.3812C45.7235 26.4733 45.9762 26.8754 45.8841 27.2792C44.8753 31.7014 42.6654 35.7401 39.5233 38.9803C39.2349 39.2777 38.7601 39.285 38.4627 38.9966C38.1654 38.7083 38.1581 38.2335 38.4464 37.9361C41.3986 34.8916 43.4743 31.0983 44.4216 26.9456Z" fill="#000091"/>
    <path d="M45.7536 23.2523C45.3394 23.2523 45.0036 23.5881 45.0036 24.0023C45.0036 24.4166 45.3394 24.7523 45.7536 24.7523C46.1678 24.7523 46.5036 24.4166 46.5036 24.0023C46.5036 23.5881 46.1678 23.2523 45.7536 23.2523Z" fill="#000091"/>
  </svg>
  <!-- Minor layer (checkmark) -->
  <svg x="27.5" y="27.5" width="29" height="24.46" viewBox="0 0 21.748 18.3421" overflow="visible">
    <path fill-rule="evenodd" clip-rule="evenodd" d="M7.37925 14.3093L2.59264 8.65096L2.50078 8.55213C1.92876 7.99947 1.06107 7.98938 0.490029 8.52266C-0.112683 9.08552 -0.166497 10.0467 0.367909 10.6783L6.51495 17.9437C6.55413 17.99 6.59699 18.0331 6.64311 18.0725C7.11553 18.476 7.82565 18.4202 8.2292 17.9478L21.3774 2.55536L21.4605 2.44844C21.9092 1.80292 21.8241 0.926085 21.2652 0.39916C20.6546 -0.176541 19.7086 -0.122818 19.162 0.51708L7.37925 14.3093Z" fill="#6A6AF4"/>
  </svg>
</svg>
