<svg preserveAspectRatio="none" width="100%" height="100%" overflow="visible" style="display: block;" viewBox="0 0 67 70" fill="none" xmlns="http://www.w3.org/2000/svg">
<g id="&#240;&#159;&#145;&#129;&#239;&#184;&#143; Masquer si besoin - D&#195;&#169;corative">
<path id="Path" fill-rule="evenodd" clip-rule="evenodd" d="M66 29C65.4486 29 65 28.5514 65 28C65 27.4486 65.4486 27 66 27C66.5514 27 67 27.4486 67 28C67 28.5514 66.5514 29 66 29Z" fill="var(--fill-0, #ECECFE)"/>
<path id="Path_2" fill-rule="evenodd" clip-rule="evenodd" d="M5 39C4.4486 39 4 38.5514 4 38C4 37.4486 4.4486 37 5 37C5.5514 37 6 37.4486 6 38C6 38.5514 5.5514 39 5 39Z" fill="var(--fill-0, #ECECFE)"/>
<path id="Path_3" fill-rule="evenodd" clip-rule="evenodd" d="M1 2C0.4486 2 0 1.5514 0 1C0 0.448553 0.4486 0 1 0C1.5514 0 2 0.448553 2 1C2 1.5514 1.5514 2 1 2Z" fill="var(--fill-0, #ECECFE)"/>
<path id="Path_4" fill-rule="evenodd" clip-rule="evenodd" d="M16 70C15.4486 70 15 69.5514 15 69C15 68.4486 15.4486 68 16 68C16.5514 68 17 68.4486 17 69C17 69.5514 16.5514 70 16 70Z" fill="var(--fill-0, #ECECFE)"/>
<path id="Path_5" fill-rule="evenodd" clip-rule="evenodd" d="M37 4C36.4486 4 36 3.5514 36 3C36 2.44855 36.4486 2 37 2C37.5514 2 38 2.44855 38 3C38 3.5514 37.5514 4 37 4Z" fill="var(--fill-0, #ECECFE)"/>
<path id="Path_6" fill-rule="evenodd" clip-rule="evenodd" d="M64 68C63.4486 68 63 67.5514 63 67C63 66.4486 63.4486 66 64 66C64.5514 66 65 66.4486 65 67C65 67.5514 64.5514 68 64 68Z" fill="var(--fill-0, #ECECFE)"/>
</g>
</svg>
