<svg preserveAspectRatio="none" width="100%" height="100%" overflow="visible" style="display: block;" viewBox="0 0 35.4453 30.2235" fill="none" xmlns="http://www.w3.org/2000/svg">
<g id="Calque_1-2">
<path id="Vector (Stroke)" d="M34.2451 8.35824C34.2451 7.77462 33.7611 7.28305 33.1416 7.28305H2.30371C1.68425 7.28305 1.19922 7.77462 1.19922 8.35824V27.9491C1.1993 28.5326 1.6843 29.0233 2.30371 29.0233H33.1416C33.761 29.0233 34.245 28.5326 34.2451 27.9491V8.35824ZM35.4453 27.9491C35.4452 29.2149 34.404 30.2235 33.1416 30.2235H2.30371C1.04128 30.2235 7.83702e-05 29.2149 0 27.9491V8.35824C0 7.09232 1.04123 6.08383 2.30371 6.08383H33.1416C34.4041 6.08383 35.4453 7.09232 35.4453 8.35824V27.9491Z" fill="var(--fill-0, #000091)"/>
<path id="Vector (Stroke)_2" d="M0 14.2739V8.35788H1.19922V14.2739C1.19922 17.0026 3.47721 19.2553 6.2793 19.2553H29.166C31.9681 19.2553 34.2451 17.0026 34.2451 14.2739V8.35788H35.4453V14.2739C35.4453 17.6849 32.6111 20.4555 29.166 20.4555H6.2793C2.8342 20.4555 0 17.6849 0 14.2739Z" fill="var(--fill-0, #000091)"/>
<path id="Vector (Stroke)_3" d="M3.63474 28.1166V19.5209H4.83395V28.1166C4.83407 28.6125 5.23734 29.0237 5.76755 29.0238H29.6777C30.2079 29.0237 30.6112 28.6125 30.6113 28.1166V19.6322H31.8105V28.1166C31.8104 29.2948 30.8509 30.2229 29.6777 30.223H5.76755C4.59431 30.2229 3.63485 29.2948 3.63474 28.1166Z" fill="var(--fill-0, #000091)"/>
<path id="Vector (Stroke)_4" d="M10.8788 16.298C11.2102 16.298 11.4784 16.5662 11.4784 16.8976V22.8702C11.4782 23.2014 11.2101 23.4698 10.8788 23.4698H7.92571C7.59449 23.4698 7.32635 23.2014 7.3261 22.8702V16.8976C7.3261 16.5662 7.59434 16.298 7.92571 16.298H10.8788ZM8.52532 22.2696H10.2792V17.4972H8.52532V22.2696Z" fill="var(--fill-0, #6A6AF4)"/>
<path id="Vector (Stroke)_5" d="M27.4055 16.298C27.7369 16.298 28.0051 16.5662 28.0051 16.8976V22.8702C28.0049 23.2014 27.7367 23.4698 27.4055 23.4698H24.4524C24.1212 23.4698 23.853 23.2014 23.8528 22.8702V16.8976C23.8528 16.5662 24.121 16.298 24.4524 16.298H27.4055ZM25.052 22.2696H26.8059V17.4972H25.052V22.2696Z" fill="var(--fill-0, #6A6AF4)"/>
<path id="Vector (Stroke)_6" d="M25.3293 2.27441C25.3293 1.66671 24.8687 1.19922 24.2248 1.19922H11.1632C10.5193 1.19922 10.0587 1.66671 10.0587 2.27441V5.97168H25.3293V2.27441ZM26.5294 7.17188H8.85953V2.27441C8.85953 0.98441 9.87626 0 11.1632 0H24.2248C25.5117 0 26.5294 0.98441 26.5294 2.27441V7.17188Z" fill="var(--fill-0, #000091)"/>
<path id="Vector (Stroke)_7" d="M12.0465 5.97193H23.4547V3.09693H12.0465V5.97193ZM24.6549 7.17212H10.8473V2.77661C10.8473 2.55338 10.9252 2.32158 11.1041 2.14575C11.2667 1.98593 11.4734 1.9144 11.6744 1.90259V1.89771H23.7711C23.9893 1.89776 24.2192 1.97112 24.3971 2.14575C24.576 2.32158 24.6549 2.55338 24.6549 2.77661V7.17212Z" fill="var(--fill-0, #000091)"/>
</g>
</svg>
