<svg preserveAspectRatio="none" width="100%" height="100%" overflow="visible" style="display: block;" viewBox="0 0 52.7 68.2" fill="none" xmlns="http://www.w3.org/2000/svg">
<g id="&#240;&#159;&#145;&#129;&#239;&#184;&#143; Masquer si besoin - D&#195;&#169;corative">
<path id="Vector" d="M0.999999 2C1.55228 2 2 1.55228 2 1C2 0.447715 1.55228 0 0.999999 0C0.447714 0 0 0.447715 0 1C0 1.55228 0.447714 2 0.999999 2Z" fill="var(--fill-0, #ECECFE)"/>
<path id="Vector_2" d="M51.7 5C52.2523 5 52.7 4.55228 52.7 4C52.7 3.44772 52.2523 3 51.7 3C51.1477 3 50.7 3.44772 50.7 4C50.7 4.55228 51.1477 5 51.7 5Z" fill="var(--fill-0, #ECECFE)"/>
<path id="Vector_3" d="M49.7 65.7C50.2523 65.7 50.7 65.2523 50.7 64.7C50.7 64.1477 50.2523 63.7 49.7 63.7C49.1477 63.7 48.7 64.1477 48.7 64.7C48.7 65.2523 49.1477 65.7 49.7 65.7Z" fill="var(--fill-0, #ECECFE)"/>
<path id="Vector_4" d="M7.90002 68.2C8.45231 68.2 8.90002 67.7523 8.90002 67.2C8.90002 66.6477 8.45231 66.2 7.90002 66.2C7.34774 66.2 6.90002 66.6477 6.90002 67.2C6.90002 67.7523 7.34774 68.2 7.90002 68.2Z" fill="var(--fill-0, #ECECFE)"/>
</g>
</svg>
