<svg preserveAspectRatio="none" width="100%" height="100%" overflow="visible" style="display: block;" viewBox="0 0 64 58.1" fill="none" xmlns="http://www.w3.org/2000/svg">
<g id="Majeure">
<path d="M34.6247 1.78091C35.0559 1.4359 35.1259 0.806604 34.7808 0.375342C34.4358 -0.0559201 33.8065 -0.125842 33.3753 0.219168L18.3753 12.2192C17.944 12.5642 17.8741 13.1935 18.2191 13.6247C18.5641 14.056 19.1934 14.1259 19.6247 13.7809L34.6247 1.78091Z" fill="#000091"/>
<path d="M39.9866 2.83611C39.9548 2.64294 39.8676 2.46843 39.7418 2.32942C39.5663 2.13533 39.3156 2.01046 39.0356 2.00065C38.959 1.99789 38.882 2.00389 38.8062 2.01881C38.7383 2.03213 38.6729 2.05232 38.6108 2.07862C38.5235 2.11553 38.4425 2.16448 38.37 2.22339L28.3753 10.2192C27.944 10.5642 27.8741 11.1935 28.2191 11.6247C28.5641 12.056 29.1934 12.1259 29.6247 11.7809L38 5.08064V56H5C4.44771 56 4 56.4477 4 57C4 57.5523 4.44771 58 5 58H39C39.5523 58 40 57.5523 40 57" fill="#000091"/>
<path d="M50 18C49.4477 18 49 18.4477 49 19C49 19.5523 49.4477 20 50 20H58C58.5523 20 59 19.5523 59 19C59 18.4477 58.5523 18 58 18H50Z" fill="#000091"/>
<path d="M42 23C42 22.4477 42.4477 22 43 22H63C63.5523 22 64 22.4477 64 23V57C64 57.5523 63.5523 58 63 58H43C42.4477 58 42 57.5523 42 57C42 56.4477 42.4477 56 43 56H62V24H43C42.4477 24 42 23.5523 42 23Z" fill="#000091"/>
<path d="M2 57.1C2 57.6523 1.55228 58.1 1 58.1C0.447716 58.1 0 57.6523 0 57.1C0 56.5478 0.447716 56.1 1 56.1C1.55228 56.1 2 56.5478 2 57.1Z" fill="#000091"/>
<path fill-rule="evenodd" clip-rule="evenodd" d="M8 53C8 52.4477 8.44771 52 9 52H12V37C12 36.4477 12.4477 36 13 36H27C27.5523 36 28 36.4477 28 37V52H31C31.5523 52 32 52.4477 32 53C32 53.5523 31.5523 54 31 54H9C8.44771 54 8 53.5523 8 53ZM21 52V43C21 42.4477 20.5523 42 20 42C19.4477 42 19 42.4477 19 43V52H14V38H26V52H21Z" fill="#000091"/>
<path d="M14 33C14 32.4477 14.4477 32 15 32H25C25.5523 32 26 32.4477 26 33C26 33.5523 25.5523 34 25 34H15C14.4477 34 14 33.5523 14 33Z" fill="#000091"/>
<path d="M25.7682 13.8598C26.1218 14.2841 26.0645 14.9147 25.6402 15.2682L22.6402 17.7682C22.4605 17.918 22.2339 18 22 18H2V53C2 53.5523 1.55228 54 1 54C0.447716 54 0 53.5523 0 53V17C0 16.4477 0.447716 16 1 16H21.638L24.3598 13.7318C24.7841 13.3782 25.4147 13.4356 25.7682 13.8598Z" fill="#000091"/>
</g>
</svg>
