<svg preserveAspectRatio="none" width="100%" height="100%" overflow="visible" style="display: block;" viewBox="0 0 58.0002 44" fill="none" xmlns="http://www.w3.org/2000/svg">
<g id="Majeure">
<path fill-rule="evenodd" clip-rule="evenodd" d="M24.662 0L23.994 0.0120161C23.8836 0.0150137 23.7737 0.0185071 23.6643 0.0224937L23.0142 0.052311L22.3775 0.0938422C22.0627 0.117516 21.7533 0.145536 21.45 0.177833L20.8516 0.248111C20.7533 0.260768 20.6557 0.273894 20.5588 0.287489L19.9868 0.374646C16.4228 0.961915 14 2.21697 14 3.99925V8.57162L14.0049 8.71984C14.0073 8.75616 14.0106 8.79229 14.0147 8.82822C14.005 8.88404 14 8.94145 14 9.00003V13.5716L14.0049 13.7198C14.0073 13.7562 14.0106 13.7923 14.0147 13.8282C14.005 13.884 14 13.9415 14 14V18.5716L14.0049 18.7198C14.0073 18.756 14.0105 18.7919 14.0146 18.8277C14.005 18.8834 14 18.9407 14 18.9991V23.5707L14.0049 23.719C14.0141 23.8591 14.0365 23.9965 14.0715 24.1309C13.9231 24.1175 13.7734 24.1052 13.6225 24.0938L12.9858 24.0523L12.3357 24.0225C12.2263 24.0185 12.1164 24.015 12.006 24.012L11.338 24H10.662L9.99397 24.012C9.88358 24.015 9.77368 24.0185 9.66429 24.0225L9.01423 24.0523L8.37754 24.0938C8.06272 24.1175 7.75333 24.1455 7.45 24.1778L6.85162 24.2481C6.7533 24.2608 6.6557 24.2739 6.55884 24.2875L5.9868 24.3746C2.4228 24.9619 0 26.217 0 27.9992V32.571L0.00487182 32.7193C0.00727271 32.7556 0.0105568 32.7918 0.0147148 32.8277C0.00504161 32.8836 0 32.941 0 32.9996V37.5712L0.00487182 37.7194C0.134482 39.6818 2.83799 41.0857 6.65116 41.6817L7.23127 41.765C7.42729 41.7907 7.62591 41.8144 7.82693 41.836L8.43704 41.8945C9.25966 41.9641 10.1179 41.9999 11 41.9999C11.8821 41.9999 12.7403 41.9641 13.563 41.8945L14.1731 41.836C14.3741 41.8144 14.5727 41.7907 14.7687 41.765L15.3488 41.6817C19.0866 41.0975 21.7582 39.737 21.9844 37.8352C22.9383 37.944 23.9343 38 24.9499 38C27.4401 38 30.4907 37.6817 32.184 37.2037C34.1223 41.2251 38.2371 44 43 44C49.6274 44 55 38.6272 55 31.9996C55 25.3719 49.6274 19.9992 43 19.9992C40.3876 19.9992 37.9702 20.834 36 22.2513V18.9991L35.9933 18.8825C35.9922 18.8732 35.991 18.8639 35.9896 18.8547C35.9883 18.8457 35.9869 18.8367 35.9854 18.8277C35.9951 18.7434 36 18.658 36 18.5716V14L35.9933 13.8834C35.9911 13.8649 35.9885 13.8464 35.9853 13.8282C35.9951 13.7437 36 13.6582 36 13.5716V9.00003L35.9933 8.88341C35.9911 8.86485 35.9885 8.84645 35.9853 8.82822C35.9951 8.74374 36 8.65821 36 8.57162V4.00003C36 2.26466 33.703 1.02834 30.2922 0.422394L29.7295 0.329672C29.5388 0.300618 29.345 0.273424 29.1484 0.248111L28.55 0.177833C28.2467 0.145536 27.9373 0.117516 27.6225 0.0938422L26.9858 0.052311L26.3357 0.0224937C26.2263 0.0185071 26.1164 0.0150137 26.006 0.0120161L25.338 0H24.662ZM32.0601 27.0607C31.2475 27.3188 30.3353 27.527 29.3488 27.6812L28.7687 27.7645C28.5727 27.7902 28.3741 27.8139 28.1731 27.8355L27.563 27.894C26.7403 27.9636 25.8821 27.9995 25 27.9995C24.1179 27.9995 23.2597 27.9636 22.437 27.894L21.9944 27.8516C21.9981 27.9004 22 27.9496 22 27.9992V30.593C22.9538 30.7117 23.96 30.7733 24.99 30.7733C27.0254 30.7733 29.4511 30.5396 31.137 30.1804C31.3036 29.0848 31.6183 28.0379 32.0601 27.0607ZM31.009 32.4676C29.235 32.7979 26.9505 33 24.99 33C23.9608 33 22.9516 32.9425 21.9858 32.8309L21.9889 32.8501L21.9916 32.8695L21.9933 32.883L22 32.9996V35.6052C22.9418 35.7208 23.9342 35.7807 24.9499 35.7807C27.1511 35.7807 29.8479 35.5125 31.4115 35.1269C31.182 34.2742 31.0441 33.3841 31.009 32.4676ZM16 8.57162V6.44554C16.9631 6.93339 18.2311 7.31375 19.7078 7.5761L20.2705 7.66882C20.4612 7.69787 20.655 7.72507 20.8516 7.75038L21.45 7.82066C21.7533 7.85296 22.0627 7.88098 22.3775 7.90465L23.0142 7.94618L23.6643 7.976C23.7737 7.97998 23.8836 7.98348 23.994 7.98648L24.662 7.99849C24.7742 7.9995 24.8869 8 25 8L25.338 7.99849L26.006 7.98648C26.1164 7.98348 26.2263 7.97998 26.3357 7.976L26.9858 7.94618L27.6225 7.90465C27.9373 7.88098 28.2467 7.85296 28.55 7.82066L29.1484 7.75038C29.2467 7.73772 29.3443 7.7246 29.4412 7.711L30.0132 7.62385C31.6094 7.36082 32.9767 6.96385 34 6.44554V8.57162L33.993 8.63272C33.9138 8.99188 33.1613 9.56507 31.7467 10.0501C29.9954 10.6506 27.584 11.0003 25 11.0003C22.416 11.0003 20.0046 10.6506 18.2533 10.0501C16.7555 9.53654 16 8.92414 16 8.57162ZM16.7727 4.67193C16.2764 4.43793 16 4.20428 16 4.00038C16 3.79647 16.2764 3.56282 16.7727 3.32882L17.0389 3.21193C17.1336 3.17305 17.2341 3.13429 17.3402 3.09579L17.6749 2.98123C17.7919 2.9434 17.9143 2.90596 18.0417 2.86906L18.4387 2.7601C18.5073 2.74225 18.5772 2.72457 18.6481 2.70708L19.0878 2.60446C19.2389 2.57108 19.3943 2.53858 19.5539 2.50709L20.0449 2.41579L20.5591 2.33136C20.6467 2.31791 20.7352 2.30478 20.8245 2.29199L21.3708 2.21942L21.9364 2.15578L22.5198 2.10188C22.7171 2.08562 22.917 2.07113 23.1194 2.05853L23.7337 2.02656L24.3611 2.00678C24.4667 2.00454 24.5727 2.00285 24.6792 2.00171L25 2C25.2147 2 25.4278 2.0023 25.6389 2.00678L26.2663 2.02656L26.8806 2.05853C27.083 2.07113 27.2829 2.08562 27.4802 2.10188L28.0636 2.15578L28.6292 2.21942L29.1755 2.29199L29.7008 2.37266C29.7865 2.38674 29.8713 2.40112 29.9551 2.41579L30.4461 2.50709C30.5259 2.52283 30.6046 2.53883 30.6823 2.55507L31.1354 2.65516C31.282 2.68938 31.424 2.72441 31.5613 2.7601L31.9583 2.86906C32.022 2.88751 32.0845 2.9061 32.1456 2.9248L32.4965 3.03827C32.664 3.09556 32.8191 3.1536 32.9611 3.21193L33.2273 3.32882C33.7236 3.56282 34 3.79647 34 4.00038C34 4.20428 33.7236 4.43793 33.2273 4.67193L32.9611 4.78883C32.8664 4.82771 32.7659 4.86647 32.6598 4.90496L32.3251 5.01952C32.2081 5.05735 32.0857 5.09479 31.9583 5.13169L31.5613 5.24065C31.4927 5.2585 31.4228 5.27618 31.3519 5.29368L30.9122 5.39629C30.7611 5.42967 30.6057 5.46217 30.4461 5.49366L29.9551 5.58497L29.4409 5.66939C29.3533 5.68284 29.2648 5.69597 29.1755 5.70877L28.6292 5.78133L28.0636 5.84498L27.4802 5.89888C27.2829 5.91513 27.083 5.92963 26.8806 5.94222L26.2663 5.9742L25.6389 5.99398C25.4278 5.99845 25.2147 6.00075 25 6.00075C24.7853 6.00075 24.5722 5.99845 24.3611 5.99398L23.7337 5.9742L23.1194 5.94222C22.917 5.92963 22.7171 5.91513 22.5198 5.89888L21.9364 5.84498L21.3708 5.78133L20.8245 5.70877L20.2992 5.62809C20.2135 5.61402 20.1287 5.59964 20.0449 5.58497L19.5539 5.49366C19.4741 5.47792 19.3954 5.46192 19.3177 5.44569L18.8646 5.34559C18.718 5.31137 18.576 5.27635 18.4387 5.24065L18.0417 5.13169C17.978 5.11324 17.9155 5.09466 17.8544 5.07596L17.5035 4.96249C17.336 4.90519 17.1809 4.84715 17.0389 4.78883L16.7727 4.67193ZM16 13.5716V11.2437C17.1647 11.8992 18.7734 12.3886 20.6512 12.6821L21.2313 12.7654C21.4273 12.7911 21.6259 12.8148 21.8269 12.8364L22.437 12.8949C23.2597 12.9645 24.1179 13.0003 25 13.0003C25.8821 13.0003 26.7403 12.9645 27.563 12.8949L28.1731 12.8364C28.3741 12.8148 28.5727 12.7911 28.7687 12.7654L29.3488 12.6821C31.2266 12.3886 32.8353 11.8992 34 11.2437V13.5716L33.993 13.6327C33.9138 13.9919 33.1613 14.5651 31.7467 15.0501C29.9954 15.6506 27.584 16.0003 25 16.0003C22.416 16.0003 20.0046 15.6506 18.2533 15.0501C16.7555 14.5365 16 13.9241 16 13.5716ZM20 35.2431C18.8353 35.8986 17.2266 36.388 15.3488 36.6815L14.7687 36.7648C14.5727 36.7906 14.3741 36.8142 14.1731 36.8358L13.563 36.8943C12.7403 36.964 11.8821 36.9998 11 36.9998C10.1179 36.9998 9.25966 36.964 8.43704 36.8943L7.82693 36.8358C7.62591 36.8142 7.42729 36.7906 7.23127 36.7648L6.65116 36.6815C4.7734 36.388 3.16473 35.8986 2 35.2431V37.5712C2 37.9237 2.75547 38.5361 4.25326 39.0497C6.00461 39.6502 8.41597 39.9999 11 39.9999C13.584 39.9999 15.9954 39.6502 17.7467 39.0497C19.1613 38.5647 19.9138 37.9915 19.993 37.6323L20 37.5712V35.2431ZM16 16.2437C17.1647 16.8992 18.7734 17.3886 20.6512 17.6821L21.2313 17.7654C21.4273 17.7911 21.6259 17.8148 21.8269 17.8364L22.437 17.8949C23.2597 17.9645 24.1179 18.0003 25 18.0003C25.8821 18.0003 26.7403 17.9645 27.563 17.8949L28.1731 17.8364C28.3741 17.8148 28.5727 17.7911 28.7687 17.7654L29.3488 17.6821C31.2266 17.3886 32.8353 16.8992 34 16.2437V18.5716L33.993 18.6327C33.9138 18.9919 33.1613 19.5651 31.7467 20.0501C29.9954 20.6506 27.584 21.0003 25 21.0003C22.416 21.0003 20.0046 20.6506 18.2533 20.0501C16.7555 19.5365 16 18.9241 16 18.5716V16.2437ZM34 23.5707V21.2437C32.8353 21.8992 31.2266 22.3886 29.3488 22.6821L28.7687 22.7654C28.5727 22.7911 28.3741 22.8148 28.1731 22.8364L27.563 22.8949C26.7403 22.9645 25.8821 23.0003 25 23.0003C24.1179 23.0003 23.2597 22.9645 22.437 22.8949L21.8269 22.8364C21.6259 22.8148 21.4273 22.7911 21.2313 22.7654L20.6512 22.6821C18.7734 22.3886 17.1647 21.8992 16 21.2437V23.5707C16 23.8227 16.386 24.2075 17.1534 24.5941C18.2099 24.8292 19.1345 25.1314 19.8851 25.4959C21.3812 25.8194 23.1462 25.9994 25 25.9994C27.584 25.9994 29.9954 25.6497 31.7467 25.0492C33.1613 24.5642 33.9138 23.991 33.993 23.6318L34 23.5707ZM19.4988 27.4692C18.3806 27.2305 17.3864 26.9149 16.5615 26.5302C16.5233 26.5224 16.4848 26.5147 16.4461 26.5071L15.9551 26.4158C15.8713 26.4011 15.7865 26.3867 15.7008 26.3727L15.1755 26.292L14.6292 26.2194L14.0636 26.1558L13.4802 26.1019C13.2829 26.0856 13.083 26.0711 12.8806 26.0585L12.2663 26.0266L11.6389 26.0068C11.4278 26.0023 11.2147 26 11 26L10.6792 26.0017C10.5727 26.0028 10.4667 26.0045 10.3611 26.0068L9.73373 26.0266L9.11944 26.0585C8.91703 26.0711 8.71706 26.0856 8.5198 26.1019L7.93639 26.1558L7.37077 26.2194L6.82452 26.292C6.73517 26.3048 6.64671 26.3179 6.55914 26.3314L6.04488 26.4158L5.55392 26.5071C5.39432 26.5386 5.23887 26.5711 5.08782 26.6045L4.64815 26.7071C4.57716 26.7246 4.50734 26.7423 4.43872 26.7601L4.04165 26.8691C3.91427 26.906 3.79194 26.9434 3.67494 26.9812L3.34017 27.0958C3.23407 27.1343 3.13356 27.173 3.03889 27.2119L2.77269 27.3288C2.27641 27.5628 2 27.7965 2 28.0004C2 28.2043 2.27641 28.4379 2.77269 28.6719L3.03889 28.7888C3.18089 28.8472 3.33604 28.9052 3.50346 28.9625L3.8544 29.076C3.91553 29.0947 3.97796 29.1132 4.04165 29.1317L4.43872 29.2407C4.57596 29.2763 4.718 29.3114 4.86458 29.3456L5.31766 29.4457C5.39536 29.4619 5.47412 29.4779 5.55392 29.4937L6.04488 29.585C6.1287 29.5996 6.21348 29.614 6.2992 29.6281L6.82452 29.7088L7.37077 29.7813L7.93639 29.845L8.5198 29.8989C8.71706 29.9151 8.91703 29.9296 9.11944 29.9422L9.73373 29.9742L10.3611 29.994C10.5722 29.9984 10.7853 30.0008 11 30.0008C11.2147 30.0008 11.4278 29.9984 11.6389 29.994L12.2663 29.9742L12.8806 29.9422C13.083 29.9296 13.2829 29.9151 13.4802 29.8989L14.0636 29.845L14.6292 29.7813L15.1755 29.7088C15.2648 29.696 15.3533 29.6828 15.4409 29.6694L15.9551 29.585L16.4461 29.4937C16.6057 29.4622 16.7611 29.4297 16.9122 29.3963L17.3519 29.2937C17.4228 29.2762 17.4927 29.2585 17.5613 29.2407L17.9583 29.1317C18.0857 29.0948 18.2081 29.0574 18.3251 29.0195L18.6598 28.905C18.7659 28.8665 18.8664 28.8277 18.9611 28.7888L19.2273 28.6719C19.7236 28.4379 20 28.2043 20 28.0004C20 27.8373 19.8233 27.6553 19.4988 27.4692ZM20 32.571V30.4455C18.9767 30.9638 17.6094 31.3608 16.0132 31.6238L15.4412 31.711C15.3443 31.7246 15.2467 31.7377 15.1484 31.7504L14.55 31.8207C14.2467 31.853 13.9373 31.881 13.6225 31.9046L12.9858 31.9462L12.3357 31.976C12.2263 31.98 12.1164 31.9835 12.006 31.9865L11.338 31.9985L11 32C10.8869 32 10.7742 31.9995 10.662 31.9985L9.99397 31.9865C9.88358 31.9835 9.77368 31.98 9.66429 31.976L9.01423 31.9462L8.37754 31.9046C8.06272 31.881 7.75333 31.853 7.45 31.8207L6.85162 31.7504C6.65497 31.7251 6.46121 31.6979 6.27052 31.6688L5.70783 31.5761C4.23108 31.3138 2.96313 30.9334 2 30.4455V32.571C2 32.9236 2.75547 33.536 4.25326 34.0495C6.00461 34.65 8.41597 34.9997 11 34.9997C13.584 34.9997 15.9954 34.65 17.7467 34.0495C19.1613 33.5645 19.9138 32.9913 19.993 32.6321L20 32.571ZM43 21.9992C48.5229 21.9992 53 26.4766 53 31.9996C53 37.5226 48.5229 41.9999 43 41.9999C37.4772 41.9999 33 37.5226 33 31.9996C33 26.4766 37.4772 21.9992 43 21.9992Z" fill="var(--fill-0, #000091)"/>
<path d="M49.4214 18.0933C48.9205 17.8606 48.3259 18.0781 48.0933 18.5791C47.8606 19.08 48.0781 19.6747 48.5791 19.9073C53.0635 21.9899 56.0002 26.355 56.0002 31.0007C56.0002 31.553 56.448 32.0007 57.0002 32.0007C57.5525 32.0007 58.0002 31.553 58.0002 31.0007C58.0002 25.5569 54.5954 20.4961 49.4214 18.0933Z" fill="var(--fill-0, #000091)"/>
</g>
</svg>
