<svg width="196" height="256" viewBox="0 0 196 256" fill="none" xmlns="http://www.w3.org/2000/svg">
<g clip-path="url(#clip0_18_235)">
<rect width="196" height="256" fill="#F6F6F6"/>
<path fill-rule="evenodd" clip-rule="evenodd" d="M84.1625 255.229H24.4488C22.3926 255.234 20.537 253.811 19.7501 251.625L5.654 212.447C5.00562 210.644 5.18312 208.587 6.12707 206.966C7.07102 205.345 8.65658 204.374 10.3527 204.378H70.0687C72.1247 204.374 73.9799 205.796 74.7673 207.981L88.8634 247.162C89.511 248.965 89.3328 251.021 88.3884 252.642C87.444 254.262 85.8584 255.233 84.1625 255.229Z" fill="#6A6AF4"/>
<path fill-rule="evenodd" clip-rule="evenodd" d="M52.3347 224.033C52.3347 224.033 54.7131 227.348 51.4397 228.427C51.4464 228.427 49.0613 225.904 52.3347 224.033Z" fill="white"/>
<path fill-rule="evenodd" clip-rule="evenodd" d="M54.7759 229.405C53.6885 228.973 51.2877 228.834 50.16 228.792C49.3702 227.686 47.6585 227.089 46.2377 227.446C45.8251 227.539 45.4399 227.752 45.119 228.064C44.071 226.648 42.7287 225.56 41.2168 224.901C37.6973 223.313 34.256 224.245 33.5333 226.975C32.8106 229.706 35.0772 233.209 38.5967 234.795C42.1163 236.38 45.5598 235.451 46.2825 232.72C46.3885 232.303 46.4294 231.867 46.4033 231.433C47.2061 231.797 48.0834 231.887 48.9294 231.691C49.764 231.477 50.3054 230.97 50.4755 230.355C51.7329 230.417 53.561 230.566 54.3195 230.87C54.3912 230.899 54.467 230.914 54.5432 230.913C54.8731 230.918 55.1567 230.646 55.2124 230.272C55.2681 229.897 55.0793 229.532 54.767 229.41L54.7759 229.405Z" fill="white"/>
<path fill-rule="evenodd" clip-rule="evenodd" d="M79.9521 255.229H0.300232L13.6803 234.726H71.5683L79.9521 255.229V255.229Z" fill="white"/>
<path fill-rule="evenodd" clip-rule="evenodd" d="M71.568 233.953H13.6801C13.4689 233.953 13.27 234.067 13.1432 234.261L-0.236852 254.765C-0.56901 255.274 -0.253307 256 0.299964 256H79.9518C80.4438 256 80.7686 255.412 80.5592 254.899L72.1754 234.396C72.0647 234.126 71.8281 233.953 71.568 233.953ZM71.1418 235.497L78.8944 254.456H1.64311L14.0157 235.497H71.1418Z" fill="#000091"/>
<path fill-rule="evenodd" clip-rule="evenodd" d="M75.0879 251.73L71.0314 242.557L69.7449 243.278L63.7753 252.407C63.7753 252.407 64.8672 251.947 64.9253 252.191C64.9835 252.436 73.9267 251.442 74.0565 251.509C74.3968 251.603 74.7411 251.677 75.0879 251.73V251.73Z" fill="#000091"/>
<path fill-rule="evenodd" clip-rule="evenodd" d="M70.8115 236.102C70.9136 235.692 71.2854 235.455 71.6417 235.573C71.9981 235.69 72.2041 236.118 72.1019 236.528C71.6636 238.286 71.5308 241.27 71.9942 242.847L72.0745 243.118L72.1572 243.389L72.2422 243.662L72.3291 243.935L72.4179 244.209L72.5084 244.482L72.6003 244.754L72.6936 245.025L72.8354 245.427L72.979 245.824L73.0755 246.085L73.1724 246.342L73.2694 246.595L73.3663 246.843L73.4631 247.086C73.4792 247.126 73.4953 247.165 73.5114 247.205L73.6075 247.439L73.7029 247.667L73.7974 247.888L73.891 248.101L73.9832 248.307L74.0741 248.504L74.1633 248.693L74.2508 248.872L74.3362 249.042L74.4195 249.202C74.5565 249.459 74.6836 249.671 74.797 249.829C74.8293 249.874 74.8717 249.926 74.9229 249.985L75.0062 250.079L75.1019 250.182L75.2092 250.293L75.3272 250.413L75.4551 250.539L75.5919 250.671L75.7369 250.809L75.8892 250.952L76.1293 251.174L76.381 251.402L76.7296 251.712L76.9075 251.868L77.1765 252.101L77.4455 252.33L77.6234 252.48L77.7991 252.626L78.0568 252.838C78.0849 252.861 78.1129 252.883 78.1407 252.906L78.3848 253.101L78.5402 253.223L78.6888 253.337L78.8296 253.443L78.9619 253.54L79.0847 253.627L79.1972 253.704C79.2864 253.763 79.364 253.811 79.4277 253.845C79.7639 254.025 79.9096 254.484 79.7533 254.871C79.597 255.258 79.1977 255.425 78.8616 255.246C78.8345 255.231 78.8057 255.215 78.7753 255.197L78.6794 255.139L78.5745 255.071L78.4611 254.995L78.3398 254.91L78.2113 254.818L78.076 254.718L77.8619 254.556L77.7124 254.44L77.4797 254.256L77.2384 254.062L77.0739 253.928L76.8228 253.719L76.5685 253.505L76.3128 253.286C76.2844 253.262 76.256 253.237 76.2277 253.213L76.0373 253.047L75.7929 252.831L75.5528 252.616L75.319 252.403L75.0932 252.195L74.9479 252.058L74.7394 251.86L74.6074 251.731L74.4817 251.607L74.3626 251.487C74.3434 251.468 74.3244 251.448 74.3058 251.429L74.1979 251.317L74.0981 251.211L74.0068 251.11C73.9779 251.078 73.9505 251.047 73.9248 251.017L73.8523 250.93L73.7901 250.85C73.7807 250.838 73.7716 250.826 73.763 250.814C73.5713 250.547 73.3559 250.172 73.1272 249.718L73.0285 249.518L72.9283 249.309C72.9114 249.274 72.8946 249.238 72.8777 249.201L72.7756 248.979C72.7585 248.942 72.7414 248.904 72.7242 248.865L72.6207 248.631L72.5165 248.39L72.4118 248.142L72.3067 247.887L72.2014 247.627C72.1838 247.583 72.1663 247.539 72.1487 247.495L72.0435 247.226C72.0259 247.181 72.0084 247.136 71.9909 247.09L71.8862 246.815L71.7819 246.536L71.6784 246.253L71.5758 245.967L71.4743 245.679L71.374 245.389L71.2751 245.097L71.1779 244.804L71.0825 244.511L70.989 244.218L70.8977 243.925L70.8088 243.632L70.7223 243.342C70.1583 241.422 70.3045 238.136 70.8115 236.102Z" fill="#000091"/>
<path fill-rule="evenodd" clip-rule="evenodd" d="M70.3899 239.876C70.517 239.475 70.9024 239.269 71.2506 239.415C71.5989 239.562 71.778 240.005 71.6509 240.405C71.2925 241.534 70.8492 242.625 70.3181 243.68C70.2903 243.732 70.261 243.786 70.2304 243.842L70.1342 244.013C70.1007 244.071 70.0659 244.131 70.0297 244.192L69.9174 244.38L69.7974 244.575L69.6701 244.777L69.5357 244.987L69.3945 245.203C69.3704 245.24 69.3461 245.276 69.3215 245.313L69.1707 245.539L69.0138 245.769L68.8512 246.005L68.683 246.246L68.4211 246.615L68.2405 246.865L68.0554 247.119L67.8661 247.376L67.6728 247.636L67.4759 247.898L67.2756 248.162L67.0723 248.426L66.8662 248.692L66.6576 248.959L66.4468 249.226L66.234 249.492L65.9119 249.891L65.6955 250.155L65.4783 250.417L65.2604 250.678L65.0421 250.936L64.8238 251.192L64.6056 251.444L64.388 251.693C64.3518 251.734 64.3156 251.775 64.2795 251.815L64.0631 252.058L63.848 252.296L63.6343 252.529L63.4224 252.756C63.3873 252.794 63.3522 252.831 63.3172 252.868L63.1086 253.087C63.0394 253.159 62.9707 253.229 62.9024 253.299L62.699 253.505C62.4193 253.785 61.9953 253.751 61.752 253.429C61.5087 253.107 61.5381 252.619 61.8178 252.34C61.882 252.275 61.9466 252.21 62.0117 252.144L62.2083 251.941L62.4074 251.732L62.6087 251.518L62.812 251.298L63.0168 251.073L63.223 250.844L63.4304 250.61L63.6385 250.372L63.8472 250.131L64.0562 249.887L64.2651 249.641L64.4738 249.391L64.6819 249.14L64.8891 248.888L65.1979 248.507L65.4019 248.252L65.7044 247.87L65.9033 247.615L66.1971 247.235L66.3893 246.983L66.5784 246.733L66.764 246.485L66.9459 246.239L67.2111 245.876L67.3825 245.639L67.5492 245.405L67.7109 245.175L67.8674 244.951L68.0917 244.623L68.2338 244.411L68.3698 244.205L68.4993 244.006L68.622 243.813L68.7377 243.628L68.8461 243.45L68.9469 243.28L69.0399 243.118C69.0547 243.091 69.0692 243.066 69.0834 243.04L69.164 242.891C69.6481 241.929 70.0583 240.92 70.3899 239.876Z" fill="#000091"/>
<path fill-rule="evenodd" clip-rule="evenodd" d="M69.6038 250.95L70.2001 250.894L70.5097 250.867L70.8097 250.843L71.1001 250.822L71.5181 250.795L71.7852 250.781L72.043 250.769L72.2918 250.76L72.5315 250.754C72.7668 250.749 72.9886 250.749 73.1975 250.753L73.4021 250.759L73.5981 250.768C74.4764 250.791 75.3469 250.964 76.1815 251.279C76.5337 251.413 76.7253 251.849 76.6095 252.254C76.4938 252.659 76.1144 252.88 75.7623 252.747C75.0528 252.478 74.3129 252.332 73.551 252.311L73.3663 252.303L73.173 252.297L72.9708 252.295L72.7597 252.295L72.5397 252.298L72.3107 252.304L72.0725 252.313L71.8253 252.324L71.5688 252.339L71.303 252.355L70.8868 252.385L70.5974 252.409L70.2986 252.434L69.7402 252.486L69.0849 252.553L68.5125 252.615L66.4396 252.85L66.0057 252.895L65.6918 252.926L65.4841 252.944L65.2407 252.962L65.0811 252.97L64.9393 252.975C64.7095 252.981 64.4171 253.034 64.0696 253.13L63.9053 253.178C63.8213 253.203 63.7343 253.23 63.6446 253.26L63.4615 253.323L63.2712 253.391C63.2066 253.415 63.1407 253.44 63.0738 253.466L62.8695 253.546L62.6584 253.631L62.4407 253.723L62.2166 253.819C61.9471 253.937 61.6668 254.065 61.3743 254.204L61.0953 254.337L60.567 254.599L58.6793 255.549L58.5019 255.635L58.4771 255.646C58.128 255.79 57.7439 255.58 57.619 255.179C57.4987 254.792 57.6634 254.367 57.9883 254.208L58.0936 254.159L60.0555 253.171L60.2896 253.054L60.5643 252.919L60.6808 252.863C61.0502 252.686 61.402 252.523 61.7394 252.376L61.8691 252.32L62.123 252.212C62.1647 252.194 62.2061 252.177 62.2472 252.16L62.4901 252.062L62.7257 251.971C63.5764 251.648 64.28 251.462 64.8367 251.434L64.9926 251.429L65.1301 251.422L65.3456 251.407L65.5329 251.391L65.9789 251.348L67.0632 251.228L68.2309 251.095L68.7196 251.041L69.1741 250.993L69.6038 250.95Z" fill="#000091"/>
<path fill-rule="evenodd" clip-rule="evenodd" d="M61.9894 213.515C61.3053 214.894 62.0413 216.78 63.5164 217.785C64.9914 218.789 66.7556 218.605 67.4397 217.227C68.1238 215.848 67.3878 213.962 65.9127 212.957C64.4377 211.953 62.6735 212.137 61.9894 213.515ZM63.1736 214.322C63.4587 213.748 64.3901 213.651 65.2712 214.25C66.1522 214.85 66.5408 215.846 66.2558 216.42C65.9708 216.993 65.0393 217.091 64.1583 216.491C63.2772 215.892 62.8886 214.896 63.1736 214.322Z" fill="#000091"/>
<path fill-rule="evenodd" clip-rule="evenodd" d="M68.0091 207.636C70.3058 207.63 72.3814 209.198 73.2928 211.617L73.3296 211.717L87.692 251.76C87.8334 252.155 87.6702 252.606 87.3275 252.769C86.997 252.925 86.6203 252.757 86.4671 252.391L86.451 252.349L72.089 212.307C71.4172 210.441 69.8478 209.216 68.0967 209.181L68.0104 209.18L8.30212 209.18C7.5562 209.175 6.82171 209.391 6.16857 209.805C5.84393 210.011 5.43565 209.875 5.25665 209.501C5.07765 209.128 5.19572 208.658 5.52036 208.452C6.33857 207.934 7.25441 207.654 8.18432 207.637L8.30568 207.636L68.0091 207.636Z" fill="#000091"/>
<ellipse cx="0.767831" cy="0.94253" rx="0.767831" ry="0.94253" transform="matrix(0.451606 -0.892218 0.830858 0.556485 64.705 215.228)" fill="#000091"/>
<path fill-rule="evenodd" clip-rule="evenodd" d="M48.6993 100.317C48.9745 98.6262 53.6956 98.5155 53.6956 98.5155L63.7441 116.478C66.4014 111.719 66.1899 105.557 63.2147 101.053C60.2396 96.5496 55.1349 94.6648 50.437 96.3353C45.7391 98.0058 42.4495 102.875 42.2025 108.525C41.9556 114.174 44.804 119.398 49.3325 121.603C48.9633 115.729 48.4756 101.8 48.6993 100.317Z" fill="#000091"/>
<path fill-rule="evenodd" clip-rule="evenodd" d="M114.591 131.687C114.591 131.687 97.9281 138.51 92.887 148.546C87.3761 148.546 82.1046 155.495 79.2093 162.051C78.0011 159.477 71.3782 145.303 67.6931 140.688C64.0079 136.073 61.7168 125.621 62.0166 123.773C62.3164 121.925 64.6501 118.074 64.6501 118.074L53.7133 98.5132C53.7133 98.5132 48.9922 98.611 48.717 100.315C48.4418 102.019 49.1265 119.907 49.5001 123.569C49.8738 127.232 53.3195 170.789 66.176 182.584C66.176 185.403 69.7985 188.746 74.3898 187.573C78.9811 186.399 94.4667 187.629 106.406 172.019C113.548 164.859 116.609 164.859 116.609 164.859L114.591 131.687Z" fill="white"/>
<path fill-rule="evenodd" clip-rule="evenodd" d="M53.7012 97.7408L53.4706 97.7495L53.248 97.7616C53.1323 97.7687 53.0102 97.7774 52.8827 97.7879C52.2739 97.8381 51.6643 97.9185 51.0906 98.0367L50.9964 98.0564L50.8119 98.0974L50.6326 98.1403L50.4585 98.1854C49.0867 98.5548 48.2245 99.1371 48.0571 100.173C48.0325 100.325 48.0153 100.607 48.0046 100.997L47.9984 101.272C47.9976 101.321 47.9968 101.371 47.9961 101.422L47.9927 101.743L47.9911 102.093L47.9912 102.469L47.9931 102.871L47.9989 103.52L48.0047 103.98L48.0162 104.709L48.0309 105.479L48.0552 106.562L48.0692 107.125L48.1007 108.286L48.1272 109.181L48.1659 110.399L48.2081 111.635L48.2652 113.186L48.3138 114.418L48.3645 115.631L48.4169 116.812L48.4706 117.952L48.5251 119.037L48.5663 119.808L48.6076 120.538L48.6487 121.222L48.6895 121.855L48.7164 122.246L48.7431 122.61L48.7694 122.947C48.7738 123.001 48.7781 123.053 48.7824 123.105L48.8082 123.398L49.0394 125.827L49.1616 127.079L49.185 127.313C49.2469 127.925 49.3111 128.542 49.3781 129.165L49.4805 130.104C49.5154 130.419 49.551 130.735 49.5873 131.053L49.6987 132.013C49.7935 132.818 49.8934 133.635 49.9989 134.468C50.8805 141.425 52.0049 148.232 53.4247 154.61L53.5168 155.022C56.5044 168.287 60.409 178.028 65.4445 182.893L65.522 182.967L65.5288 183.037C65.694 184.607 66.702 186.172 68.2108 187.234C69.945 188.454 72.1444 188.9 74.4095 188.357L74.6462 188.299L74.7625 188.272L74.8849 188.246L75.081 188.207L75.2936 188.169L75.5243 188.131L75.6891 188.106L75.9541 188.068L76.2417 188.029L76.9413 187.942L78.668 187.74L79.4707 187.642L79.918 187.584L80.3521 187.526L80.6391 187.486C82.4135 187.237 84.0409 186.937 85.6756 186.538C89.8997 185.506 93.815 183.883 97.5172 181.426L97.7359 181.28C101.01 179.073 104.018 176.261 106.729 172.763L106.879 172.568L107.002 172.446L107.308 172.142L107.611 171.846L107.911 171.557L108.207 171.275L108.499 171.001C108.547 170.956 108.595 170.911 108.643 170.867L108.93 170.603C109.025 170.517 109.119 170.431 109.213 170.347L109.492 170.098C109.539 170.057 109.585 170.016 109.631 169.976L109.905 169.737C109.95 169.698 109.995 169.659 110.04 169.621L110.309 169.393C110.353 169.355 110.397 169.318 110.442 169.281L110.705 169.064C110.748 169.028 110.792 168.992 110.835 168.957L111.092 168.75L111.346 168.549L111.597 168.355L111.844 168.168L112.087 167.987C112.208 167.898 112.327 167.812 112.445 167.728L112.68 167.564C112.719 167.537 112.757 167.51 112.796 167.484L113.025 167.329C113.063 167.304 113.101 167.279 113.138 167.254L113.362 167.109C113.695 166.895 114.016 166.703 114.325 166.532C115.02 166.146 115.604 165.894 116.078 165.75C116.219 165.707 116.341 165.676 116.444 165.656L116.526 165.641L116.576 165.634L116.61 165.631C116.614 165.631 116.618 165.63 116.621 165.63L116.609 165.63C116.998 165.63 117.305 165.251 117.278 164.804L115.26 131.633C115.229 131.123 114.784 130.788 114.365 130.959L114.151 131.049L113.84 131.184L113.456 131.354L113.18 131.478L112.826 131.64C112.767 131.667 112.707 131.695 112.646 131.723L112.277 131.896L111.899 132.077L111.51 132.265L111.113 132.46C110.979 132.527 110.844 132.594 110.707 132.663C107.972 134.04 105.236 135.623 102.679 137.391L102.492 137.521L102.105 137.793C97.7505 140.884 94.4345 144.196 92.5387 147.712L92.4999 147.784L92.4141 147.789C87.6271 148.11 82.6864 153.251 79.2669 160.285L79.2037 160.416L79.0184 160.023C78.9015 159.777 78.784 159.529 78.6654 159.28L78.3065 158.528C78.2461 158.402 78.1854 158.275 78.1244 158.148L77.7539 157.379C76.5903 154.972 75.4286 152.638 74.2925 150.448C74.0506 149.982 73.8116 149.526 73.5758 149.08L73.2246 148.42C73.1664 148.311 73.1085 148.203 73.0508 148.096L72.778 147.591L72.5792 147.226L72.2852 146.691L71.9964 146.172L71.8066 145.834L71.6193 145.503L71.4342 145.179L71.2515 144.862L71.0712 144.552L70.8052 144.101L70.6309 143.809L70.4591 143.524L70.2897 143.247L70.1228 142.977L69.9584 142.714L69.7965 142.459L69.5584 142.091L69.4029 141.855L69.25 141.627L69.0997 141.406C69.0749 141.37 69.0501 141.334 69.0255 141.299L68.8791 141.09L68.7354 140.889C68.6642 140.79 68.594 140.695 68.5248 140.602L68.3878 140.421C68.3652 140.392 68.3427 140.363 68.3203 140.334L68.1874 140.165C66.5999 138.177 65.1236 134.817 63.9969 130.947L63.9232 130.691L63.8511 130.435L63.7808 130.18L63.6785 129.8L63.5804 129.422L63.5172 129.172L63.4261 128.801L63.3394 128.436L63.2572 128.077L63.205 127.841L63.155 127.61L63.107 127.382L63.0393 127.048L62.9766 126.724L62.9377 126.515L62.8837 126.21L62.8352 125.918L62.8059 125.731L62.7791 125.551L62.7548 125.377L62.7332 125.21L62.7141 125.051L62.6978 124.898L62.6841 124.754L62.6731 124.618L62.665 124.49L62.6596 124.371L62.6571 124.26L62.6575 124.159C62.6593 124.063 62.6656 123.981 62.6764 123.914C62.7153 123.674 62.8035 123.367 62.9353 123.006L62.9991 122.835L63.069 122.657L63.1449 122.472L63.2265 122.28C63.2406 122.247 63.2549 122.214 63.2695 122.181L63.3596 121.98L63.4552 121.772C63.5899 121.483 63.7376 121.181 63.8964 120.87C64.1817 120.311 64.4883 119.748 64.7949 119.21L64.9197 118.993L65.0361 118.793L65.2007 118.516C65.3563 118.259 65.3618 117.919 65.2146 117.656L54.2778 98.0952C54.152 97.8701 53.9338 97.736 53.7012 97.7408ZM53.3564 99.3011L63.8459 118.062L63.6728 118.363C63.3548 118.92 63.0367 119.504 62.739 120.088C62.5719 120.415 62.4157 120.734 62.2724 121.042C62.2335 121.125 62.1956 121.208 62.1588 121.289L62.0519 121.529C62.0346 121.569 62.0176 121.608 62.0009 121.647L61.904 121.877C61.6236 122.557 61.4361 123.143 61.3571 123.63C61.328 123.81 61.3171 124.041 61.3233 124.315L61.3283 124.468L61.3367 124.631C61.3401 124.686 61.3439 124.743 61.3484 124.801L61.3632 124.979C61.3687 125.039 61.3747 125.101 61.3813 125.164L61.4025 125.356L61.4267 125.556L61.454 125.762C61.4588 125.797 61.4637 125.832 61.4688 125.868L61.5005 126.084L61.5352 126.305L61.5728 126.533L61.6131 126.766L61.6562 127.004L61.7021 127.247L61.7506 127.494L61.8017 127.746L61.8554 128.003L61.9117 128.262L61.9704 128.526L62.063 128.927L62.1277 129.198L62.2291 129.61L62.2994 129.887L62.372 130.166L62.4467 130.446L62.5235 130.728C62.5365 130.775 62.5495 130.822 62.5627 130.87L62.6425 131.153L62.7244 131.437C63.8849 135.423 65.4047 138.906 67.1077 141.093L67.1991 141.209C67.2404 141.261 67.2822 141.314 67.3245 141.369L67.4529 141.536C67.4745 141.565 67.4963 141.594 67.5181 141.623L67.6509 141.803L67.7866 141.991L67.9251 142.188L68.0665 142.392L68.2107 142.604C68.235 142.64 68.2593 142.676 68.2838 142.713L68.4322 142.937L68.5833 143.169L68.7371 143.408L68.9729 143.781L69.1333 144.04L69.2964 144.305L69.5459 144.718L69.7153 145.002L69.8873 145.294L70.0618 145.592L70.3281 146.054L70.5086 146.37L70.7839 146.857L71.0644 147.36L71.3501 147.878L71.6409 148.411L71.7389 148.592C72.0792 149.221 72.4274 149.875 72.7826 150.553L73.1402 151.239C74.118 153.124 75.1161 155.118 76.1182 157.176L76.5809 158.129L76.9497 158.895L77.3105 159.648L77.6647 160.392L78.1455 161.409L78.6191 162.417C78.8764 162.965 79.5629 162.955 79.8082 162.4C83.1323 154.873 88.2794 149.317 92.8874 149.317C93.1271 149.317 93.3487 149.17 93.4686 148.931C95.2585 145.368 98.7233 141.927 103.371 138.714C105.874 136.984 108.56 135.43 111.246 134.078L111.446 133.977L111.841 133.781L112.226 133.593L112.603 133.412C112.665 133.383 112.726 133.353 112.787 133.325L113.149 133.155L113.501 132.993L113.984 132.774L115.897 164.209L115.88 164.214C115.834 164.227 115.785 164.241 115.735 164.256C115.175 164.427 114.513 164.713 113.743 165.14C113.67 165.181 113.597 165.222 113.523 165.264L113.3 165.395C113.225 165.439 113.149 165.485 113.073 165.531L112.843 165.674L112.61 165.823C112.414 165.95 112.214 166.084 112.011 166.224L111.766 166.396L111.517 166.575C111.35 166.696 111.18 166.821 111.009 166.951L110.749 167.149C110.706 167.183 110.662 167.217 110.619 167.251L110.354 167.46L110.086 167.675L109.815 167.897L109.54 168.126L109.261 168.363C109.075 168.522 108.886 168.687 108.694 168.856L108.405 169.114C108.357 169.157 108.308 169.201 108.259 169.245L107.965 169.513C107.916 169.559 107.866 169.604 107.817 169.65L107.517 169.929C107.467 169.976 107.416 170.024 107.366 170.072L107.061 170.362C107.01 170.411 106.958 170.46 106.907 170.51L106.597 170.811L106.283 171.12L105.965 171.436C105.943 171.458 105.922 171.483 105.902 171.508C103.182 175.065 100.154 177.894 96.8469 180.088C93.2755 182.458 89.4912 184.027 85.3972 185.027C83.9104 185.39 82.4265 185.669 80.8222 185.904L80.3351 185.973L79.7656 186.05L79.3239 186.106L78.6963 186.183L76.5211 186.439L75.9752 186.509L75.6803 186.55L75.4075 186.591L75.237 186.618L74.9967 186.658L74.8459 186.686L74.6326 186.728L74.498 186.758C74.4761 186.762 74.4543 186.767 74.4328 186.772L74.3062 186.803L74.2446 186.818C72.2762 187.321 70.3827 186.951 68.9119 185.916C67.6254 185.011 66.8477 183.703 66.8477 182.584C66.8477 182.349 66.7547 182.127 66.595 181.98C61.6513 177.444 57.7183 167.672 54.7256 154.227C53.3189 147.907 52.203 141.151 51.3278 134.245C51.16 132.921 51.0067 131.636 50.8652 130.378L50.7612 129.44C50.6933 128.818 50.6282 128.202 50.5655 127.592L50.4698 126.64L50.1428 123.226L50.118 122.942L50.0927 122.629L50.067 122.287L50.0279 121.723L50.0015 121.316L49.9615 120.661L49.9213 119.959L49.8675 118.956L49.8139 117.887L49.7742 117.05L49.735 116.187L49.6965 115.303L49.6466 114.101L49.6105 113.188L49.5645 111.964L49.5212 110.743L49.4908 109.836L49.4534 108.649L49.4199 107.495L49.3976 106.66L49.3779 105.856L49.361 105.087L49.3432 104.125L49.3335 103.458L49.3289 103.042L49.3259 102.65L49.3245 102.284L49.3255 101.786C49.3258 101.734 49.3262 101.684 49.3267 101.634L49.3304 101.354C49.3312 101.31 49.332 101.267 49.3329 101.226L49.3394 100.994C49.3481 100.742 49.3606 100.559 49.3774 100.455C49.392 100.365 49.5356 100.207 49.8546 100.036C50.2155 99.8431 50.7207 99.6813 51.3276 99.5564C51.8496 99.4488 52.4139 99.3744 52.9791 99.3278L53.2099 99.3104L53.3564 99.3011Z" fill="#000091"/>
<ellipse cx="66.0689" cy="106.324" rx="13.0601" ry="15.0234" fill="#000091"/>
<path fill-rule="evenodd" clip-rule="evenodd" d="M107.721 255.228L111.028 233.126C111.028 233.126 165.334 224.89 165.694 225.935C166.055 226.98 175.38 228.869 177.255 231.793C180.281 236.514 180.048 255.215 180.048 255.215" fill="#000091"/>
<path fill-rule="evenodd" clip-rule="evenodd" d="M169.124 195.829L171.925 176.875L166.864 157.531L178.233 134.199L173.691 116.697C173.691 116.697 135.276 115.495 117.917 128.161L115.754 129.19C115.754 129.19 102.904 128.933 93.8936 145.621C93.8936 145.621 102 158.359 106.678 173.053L110.61 170.801C112.661 177.727 115.738 179.248 115.738 179.248C115.738 179.248 116.564 204.77 112.525 216.597C111.469 220.031 112.433 225.521 112.572 226.789C112.711 228.058 109.862 236.874 109.862 236.874L114.221 238.928C122.686 242.873 131.998 243.748 140.907 241.434L177.354 231.955L169.299 218.494L169.124 195.829Z" fill="#FF8D7E"/>
<path fill-rule="evenodd" clip-rule="evenodd" d="M109.872 139.518C109.985 139.112 110.363 138.888 110.716 139.018C111.069 139.148 111.264 139.583 111.151 139.989C109.749 145.027 109.112 150.044 109.112 154.952C109.112 158.769 109.494 162.302 110.13 165.462C110.338 166.491 110.558 167.411 110.779 168.21L110.857 168.487L110.916 168.691L110.973 168.881L111.027 169.055L111.08 169.222L111.133 169.381C111.273 169.776 111.108 170.226 110.765 170.387C110.421 170.548 110.03 170.358 109.89 169.963L109.851 169.849L109.793 169.669L109.736 169.488L109.676 169.293L109.614 169.082L109.55 168.857C109.301 167.977 109.053 166.958 108.822 165.81C108.164 162.541 107.77 158.892 107.77 154.952C107.77 149.889 108.427 144.713 109.872 139.518Z" fill="white"/>
<path fill-rule="evenodd" clip-rule="evenodd" d="M162.805 173.566C163.105 173.316 163.525 173.393 163.742 173.738C163.96 174.083 163.893 174.566 163.593 174.816C161.424 176.628 158.692 177.772 155.532 178.351C152.045 178.99 148.334 178.906 144.803 178.382C144.314 178.309 143.861 178.232 143.45 178.155L143.15 178.096L142.908 178.047L142.66 177.993L142.534 177.963C142.171 177.875 141.939 177.466 142.016 177.048C142.092 176.631 142.448 176.364 142.811 176.452L143.015 176.499L143.3 176.559L143.38 176.575C143.52 176.603 143.667 176.631 143.819 176.659L144.131 176.715C144.184 176.724 144.238 176.733 144.293 176.742L144.627 176.797C144.74 176.815 144.857 176.833 144.975 176.85C148.389 177.357 151.979 177.438 155.321 176.826C158.288 176.282 160.825 175.22 162.805 173.566Z" fill="white"/>
<path fill-rule="evenodd" clip-rule="evenodd" d="M158.325 186.147C158.682 186.164 158.962 186.499 158.968 186.905L158.968 186.95L158.032 213.226L169.545 233.708C169.739 234.053 169.663 234.509 169.379 234.749L169.346 234.776C169.046 234.999 168.649 234.912 168.441 234.586L168.417 234.547L156.789 213.858C156.723 213.741 156.687 213.606 156.682 213.467L156.682 213.408L157.626 186.887C157.641 186.476 157.932 186.153 158.285 186.146L158.325 186.147Z" fill="white"/>
<path fill-rule="evenodd" clip-rule="evenodd" d="M161.936 186.203L161.975 186.204C162.332 186.222 162.612 186.557 162.618 186.963L162.617 187.008L161.685 212.156L173.919 232.552C174.122 232.89 174.058 233.348 173.781 233.598L173.748 233.626C173.454 233.859 173.055 233.786 172.838 233.467L172.814 233.429L160.452 212.82C160.378 212.697 160.337 212.553 160.334 212.405L160.334 212.349L161.276 186.943C161.291 186.532 161.583 186.21 161.936 186.203Z" fill="white"/>
<path fill-rule="evenodd" clip-rule="evenodd" d="M149.833 118.7L144.911 104.474C144.49 101.23 142.965 98.3113 140.671 96.3617C138.378 94.4121 135.505 93.5917 132.685 94.0814V94.0814C129.866 94.5666 127.33 96.3212 125.636 98.9586C123.942 101.596 123.23 104.9 123.655 108.142L125.682 124.751L120.894 127.152C120.894 127.152 118.209 143.172 134.048 157.964C141.908 152.571 158.112 141.38 158.112 118.046L149.833 118.7Z" fill="white"/>
<path fill-rule="evenodd" clip-rule="evenodd" d="M132.729 93.2935L132.585 93.3174C129.59 93.833 126.896 95.6972 125.096 98.4994L125.014 98.6293C123.273 101.41 122.546 104.865 122.99 108.257L124.946 124.277L120.625 126.444C120.422 126.546 120.276 126.756 120.234 127.006L120.223 127.078L120.204 127.212L120.183 127.379L120.161 127.578L120.139 127.808C119.887 130.619 120.098 134.182 121.122 138.217C122.621 144.122 125.625 149.928 130.471 155.346C131.451 156.441 132.501 157.514 133.624 158.563C133.843 158.767 134.149 158.792 134.391 158.626L135.072 158.158L135.712 157.715L136.315 157.294L136.886 156.892L137.295 156.601L137.819 156.223L138.198 155.947L138.568 155.674L138.929 155.404L139.285 155.134L139.753 154.774L140.102 154.502L140.334 154.318L140.684 154.038L141.155 153.656L141.515 153.36C144.531 150.864 147.194 148.209 149.524 145.251C155.461 137.717 158.783 128.785 158.783 118.046L158.781 118C158.76 117.575 158.44 117.246 158.065 117.276L150.275 117.891L145.562 104.269L145.574 104.36C145.127 100.913 143.507 97.8118 141.07 95.7404C138.674 93.7033 135.68 92.8255 132.729 93.2935ZM140.272 96.9825C142.422 98.8103 143.852 101.547 144.246 104.588C144.254 104.647 144.268 104.705 144.287 104.76L149.209 118.985L149.226 119.029C149.343 119.315 149.602 119.492 149.879 119.47L157.433 118.873L157.432 118.971C157.247 128.893 154.081 137.169 148.53 144.214C146.268 147.085 143.675 149.67 140.731 152.106L140.485 152.309L140.105 152.619L139.73 152.921L139.481 153.119L139.109 153.411L138.735 153.701L138.356 153.989L137.972 154.278L137.711 154.472L137.446 154.667L137.175 154.865L136.758 155.166L136.326 155.475L135.875 155.794L135.242 156.237L134.741 156.586L134.108 157.022L133.93 156.852C133.04 155.996 132.199 155.125 131.407 154.238C126.729 149.009 123.846 143.435 122.411 137.784C121.439 133.954 121.239 130.589 121.475 127.967L121.484 127.87C121.49 127.807 121.496 127.747 121.502 127.689L125.95 125.459C126.226 125.32 126.388 124.987 126.346 124.644L124.319 108.035C123.92 104.987 124.588 101.89 126.176 99.4172C127.738 96.9852 130.063 95.3539 132.654 94.8682L132.781 94.8454L132.917 94.8228C135.516 94.4105 138.158 95.1851 140.272 96.9825Z" fill="#000091"/>
<path fill-rule="evenodd" clip-rule="evenodd" d="M113.825 73.2439C113.825 73.2439 127.74 85.9457 119.529 95.2037C119.529 95.2037 115.89 99.049 113.299 97.8753C113.299 97.8753 115.602 94.5165 113.523 92.3622C113.523 92.3622 111.8 103.095 104.305 99.9241C104.305 99.9241 107.587 95.4868 107.379 89.6494C106.932 77.4727 110.019 70.58 113.825 73.2439Z" fill="#000091"/>
<path fill-rule="evenodd" clip-rule="evenodd" d="M145.105 88.0147C145.105 88.0147 147.119 66.6314 128.286 63.9932C126.534 63.7358 114.519 62.3434 112.816 73.8432C111.679 81.5235 111.747 89.8009 112.19 96.1891C112.19 96.2277 112.861 108.286 117.291 114.764C121.721 121.243 130.875 120.115 135.596 116.543C140.317 112.97 141.138 111.207 142.335 107.215C143.532 103.223 145.096 88.0584 145.096 88.0584L145.105 88.0147Z" fill="white"/>
<path fill-rule="evenodd" clip-rule="evenodd" d="M125.364 63.0344C123.645 63.0503 121.951 63.2735 120.359 63.7633C115.946 65.1213 112.956 68.3039 112.155 73.7136L112.102 74.0782C111.145 80.779 111.001 88.4143 111.493 95.8454L111.52 96.2483L111.525 96.3473L111.546 96.642L111.584 97.1146L111.628 97.5955L111.661 97.9392L111.698 98.291C111.865 99.8563 112.103 101.524 112.423 103.225C113.344 108.113 114.749 112.296 116.764 115.242C118.962 118.456 122.375 120.101 126.321 120.195C129.784 120.277 133.409 119.122 135.965 117.188L136.228 116.988L136.483 116.792L136.731 116.599L136.972 116.409L137.205 116.223L137.431 116.04C137.468 116.009 137.505 115.979 137.542 115.949L137.757 115.769L137.967 115.592L138.17 115.417C138.203 115.388 138.236 115.359 138.269 115.33L138.462 115.158C138.526 115.101 138.588 115.044 138.649 114.987L138.831 114.818L139.007 114.65C139.843 113.839 140.486 113.059 141.021 112.199L141.13 112.02C141.327 111.689 141.51 111.345 141.683 110.982L141.776 110.783L141.867 110.579C141.883 110.544 141.898 110.51 141.913 110.475L142.002 110.265L142.089 110.051C142.104 110.014 142.118 109.978 142.133 109.942L142.219 109.72L142.304 109.493C142.318 109.454 142.332 109.416 142.346 109.377L142.43 109.142L142.513 108.902C142.527 108.861 142.541 108.82 142.555 108.779L142.638 108.53L142.72 108.274L142.803 108.012L142.886 107.743L142.97 107.467L143.019 107.298C143.027 107.269 143.036 107.239 143.044 107.209L143.094 107.022L143.144 106.824L143.195 106.614C143.204 106.578 143.212 106.542 143.221 106.505L143.272 106.278L143.324 106.04L143.377 105.79L143.43 105.53L143.483 105.258L143.565 104.83L143.647 104.377L143.702 104.061L143.762 103.713L143.852 103.171L143.913 102.795L143.974 102.408L144.036 102.011L144.129 101.396L144.223 100.758L144.286 100.32L144.413 99.4144L144.509 98.7108L144.573 98.2304C144.753 96.8729 144.931 95.4562 145.103 94.0168L145.231 92.9336C145.253 92.7525 145.274 92.5713 145.295 92.3899L145.474 90.8116L145.602 89.658L145.759 88.1915C145.765 88.1606 145.77 88.1294 145.773 88.0978L145.785 87.9473L145.799 87.7261L145.807 87.5898C145.991 84.0011 145.555 79.7011 143.976 75.5608C141.434 68.8941 136.478 64.4386 128.607 63.2614L128.367 63.2267C127.541 63.1053 126.527 63.0236 125.364 63.0344ZM125.374 64.5787C126.414 64.5691 127.326 64.6376 128.077 64.7415L128.201 64.7592C135.734 65.8145 140.365 69.9369 142.747 76.1812C144.201 79.994 144.624 83.9899 144.475 87.3211L144.462 87.5728L144.454 87.7088L144.441 87.8886L144.443 87.8816C144.437 87.91 144.432 87.9386 144.429 87.9675L144.316 89.036L144.169 90.3767L144.026 91.6437L143.901 92.7271C143.837 93.2677 143.773 93.8064 143.709 94.3413L143.578 95.4052C143.491 96.1102 143.402 96.8061 143.313 97.4881L143.214 98.236L143.087 99.1696L142.992 99.845L142.899 100.499L142.806 101.13L142.714 101.738L142.653 102.13L142.563 102.698L142.474 103.241L142.415 103.589L142.334 104.05L142.283 104.332L142.208 104.736L142.134 105.117L142.086 105.357L142.038 105.587L141.991 105.807L141.944 106.015L141.898 106.213C141.891 106.245 141.883 106.277 141.876 106.308L141.831 106.489C141.823 106.518 141.816 106.547 141.808 106.575L141.765 106.739C141.757 106.765 141.75 106.791 141.743 106.817L141.7 106.964L141.623 107.22L141.546 107.469L141.469 107.712L141.393 107.949L141.317 108.18L141.241 108.404L141.165 108.623L141.088 108.837C141.075 108.872 141.062 108.907 141.049 108.942L140.972 109.148C140.959 109.182 140.945 109.216 140.932 109.249L140.853 109.448L140.773 109.643L140.692 109.833L140.609 110.019C140.233 110.847 139.807 111.558 139.263 112.245L139.14 112.398C138.911 112.676 138.662 112.952 138.387 113.23L138.234 113.383L138.076 113.536C137.996 113.613 137.914 113.69 137.83 113.768L137.658 113.925L137.481 114.083L137.298 114.243C137.267 114.269 137.235 114.296 137.204 114.323L137.011 114.486L136.812 114.652L136.607 114.82L136.395 114.991L136.176 115.166L135.949 115.343L135.716 115.524L135.352 115.803C135.31 115.834 135.269 115.866 135.227 115.898C132.902 117.657 129.544 118.727 126.348 118.651C122.777 118.566 119.745 117.105 117.818 114.287C116.018 111.655 114.708 107.846 113.826 103.372L113.735 102.898C113.423 101.246 113.192 99.6237 113.03 98.1027L112.984 97.6526L112.943 97.2226L112.909 96.8369L112.871 96.3588L112.861 96.2103L112.861 96.1892C112.861 96.1687 112.86 96.1482 112.859 96.1278C112.333 88.5528 112.476 80.7417 113.478 73.9729C114.182 69.2153 116.763 66.4684 120.706 65.2552C122.178 64.8023 123.761 64.5936 125.374 64.5787Z" fill="#000091"/>
<path fill-rule="evenodd" clip-rule="evenodd" d="M118.503 88.8385C118.86 88.8558 119.14 89.1911 119.146 89.5971L119.145 89.6425L118.687 102.132L121.145 102.088C121.502 102.082 121.799 102.398 121.825 102.803L121.826 102.848C121.832 103.259 121.557 103.6 121.205 103.63L121.166 103.632L117.997 103.689C117.625 103.695 117.322 103.353 117.316 102.93L117.316 102.884L117.804 89.5774C117.819 89.1666 118.111 88.8443 118.463 88.8379L118.503 88.8385Z" fill="#000091"/>
<ellipse cx="0.934888" cy="1.6714" rx="0.934888" ry="1.6714" transform="matrix(0.961895 -0.27342 0.210021 0.977697 113.61 91.5247)" fill="#000091"/>
<ellipse cx="0.92132" cy="1.69716" rx="0.92132" ry="1.69716" transform="matrix(0.898934 -0.438084 0.345596 0.938384 122.977 89.2058)" fill="#000091"/>
<path fill-rule="evenodd" clip-rule="evenodd" d="M122.327 81.6412C124.129 80.9405 125.773 81.2946 127.165 82.3039C127.471 82.5257 127.741 82.7637 127.973 83.0032L128.02 83.0516L128.103 83.1417C128.116 83.1559 128.129 83.1697 128.141 83.1832L128.206 83.2584L128.258 83.3227C128.266 83.3324 128.273 83.3417 128.28 83.3504C128.525 83.6706 128.498 84.1585 128.219 84.4401C127.952 84.7109 127.549 84.6925 127.301 84.406L127.249 84.3412L127.214 84.3004L127.167 84.2487L127.11 84.1872C127.1 84.1762 127.089 84.1648 127.077 84.1531C126.899 83.9692 126.689 83.7838 126.45 83.6105C125.376 82.8321 124.141 82.5661 122.757 83.1042C122.406 83.2407 122.025 83.024 121.907 82.62C121.788 82.216 121.976 81.7778 122.327 81.6412Z" fill="#000091"/>
<path fill-rule="evenodd" clip-rule="evenodd" d="M114.354 83.8493C115.054 83.7783 115.784 83.8788 116.5 84.0876L116.648 84.1325L116.786 84.177L116.911 84.2204L117.024 84.2621C117.042 84.2688 117.059 84.2755 117.076 84.282L117.169 84.3198L117.248 84.3542C117.593 84.5102 117.763 84.9584 117.627 85.3553C117.496 85.738 117.129 85.9332 116.794 85.8068L116.667 85.7543L116.609 85.7316C116.479 85.6818 116.331 85.6315 116.17 85.5845C115.588 85.4148 115 85.334 114.471 85.3876C113.796 85.456 113.292 85.7334 112.964 86.2636L112.927 86.3259C112.723 86.6822 112.307 86.781 111.997 86.5467C111.688 86.3123 111.602 85.8335 111.805 85.4772C112.381 84.4711 113.274 83.9586 114.354 83.8493Z" fill="#000091"/>
<path fill-rule="evenodd" clip-rule="evenodd" d="M130.069 74.5944C130.069 74.5944 128.624 104.155 145.248 102.845C145.248 102.845 154.977 102.33 156.366 97.9544C156.366 97.9544 148.774 95.5736 148.759 90.8995C148.759 90.8995 158.266 98.5361 163.544 89.9138C163.544 89.9138 152.057 90.6653 150.79 78.9493C149.882 70.5535 131.226 67.2873 130.069 74.5944Z" fill="#000091"/>
<path fill-rule="evenodd" clip-rule="evenodd" d="M160.029 75.3539L149.945 74.1596C148.589 66.4562 144.201 55.5612 130.297 54.4699C108.572 52.766 108.927 76.9857 108.927 76.9857L159.36 82.836C161.156 83.0492 162.762 81.5471 162.948 79.481C163.133 77.4149 161.827 75.5671 160.031 75.3539H160.029Z" fill="#6A6AF4"/>
<path fill-rule="evenodd" clip-rule="evenodd" d="M127.548 100.375C127.917 100.332 128.246 100.642 128.283 101.066C128.427 102.73 127.531 104.221 126.004 105.562C125.532 105.976 125.031 106.346 124.53 106.669L124.404 106.749L124.287 106.822L124.129 106.918L124.035 106.973L123.914 107.041L123.848 107.077C123.511 107.255 123.112 107.086 122.957 106.698C122.808 106.325 122.94 105.885 123.251 105.694L123.44 105.588C123.57 105.513 123.715 105.424 123.873 105.322C124.323 105.032 124.773 104.7 125.189 104.334C126.382 103.287 127.033 102.205 126.947 101.22C126.91 100.796 127.179 100.417 127.548 100.375Z" fill="#000091"/>
<path fill-rule="evenodd" clip-rule="evenodd" d="M166.932 157.788L169.489 168.188L173.888 177.67C173.888 177.67 187.734 183.59 187.897 183.075C188.06 182.561 190.452 178.685 190.548 178.201C190.645 177.717 189.676 169.12 189.676 169.12L190.727 162.31L189.555 154.545C189.555 154.545 177.779 152.627 166.865 157.533" fill="white"/>
<path fill-rule="evenodd" clip-rule="evenodd" d="M166.552 158.019C166.552 158.019 173.101 153.41 190.459 155.35C190.459 155.35 193.882 126.549 181.578 118.545C169.275 110.54 158.595 127.236 158.595 127.236L167.435 138.906L166.552 158.019Z" fill="#FF8D7E"/>
<path fill-rule="evenodd" clip-rule="evenodd" d="M182.308 131.952C180.891 124.452 176.924 118.373 173.445 118.373C173.219 118.372 172.994 118.4 172.774 118.455V118.455H172.743C172.612 118.488 172.484 118.532 172.36 118.586L162.068 122.089V122.089C159.219 122.895 157.883 128.253 158.978 134.863L142.792 140.435C140.914 135.766 138.113 132.521 135.574 132.521C135.348 132.521 135.123 132.548 134.902 132.603V132.603H134.871C134.741 132.638 134.614 132.682 134.488 132.734L124.196 136.24V136.24C121.247 137.074 119.92 142.785 121.229 149.711C122.645 157.212 126.613 163.291 130.092 163.291C130.264 163.29 130.436 163.272 130.606 163.239V163.239H130.627C130.877 163.189 131.12 163.102 131.352 162.982L141.42 159.567C141.538 159.535 141.655 159.495 141.769 159.448L141.814 159.433V159.433C143.772 158.583 144.926 155.448 144.946 151.258L163.294 145.915C164.77 147.915 166.415 149.125 167.966 149.125C168.138 149.123 168.31 149.106 168.48 149.073V149.073H168.5C168.75 149.022 168.994 148.936 169.225 148.816L179.294 145.4C179.412 145.367 179.518 145.328 179.643 145.282L179.688 145.266V145.266C182.391 144.129 183.563 138.6 182.308 131.952Z" fill="#000091"/>
<path fill-rule="evenodd" clip-rule="evenodd" d="M187.749 178.036C181.932 171.975 173.313 172.529 173.313 172.529C173.313 172.529 164.363 159.062 163.502 158.033C162.5 156.846 161.663 155.489 161.02 154.01C161.844 153.511 163.784 150.17 165.075 147.833C163.732 146.667 162.43 144.796 161.361 142.487C160.832 143.606 160.063 145.187 159.964 145.074C159.812 144.899 157.539 143.81 157.767 142.415C157.995 141.02 156.554 131.605 156.554 131.605C156.554 131.605 155.382 130.431 153.979 130.125C152.576 129.819 150.571 131.389 150.571 131.389C150.571 131.389 150.571 130.779 148.262 130.516C145.953 130.254 145.577 133.044 145.577 133.044C145.577 133.044 145.311 132.696 143.532 133.044C141.754 133.391 141.109 136.006 141.109 136.006C141.109 136.006 138.836 135.527 138.61 137.007C138.384 138.487 137.764 145.068 137.764 145.068C137.764 145.068 137.435 150.216 141.716 156.046C145.996 161.875 146.526 157.176 147.886 161.598C164.797 204.58 179.996 211.581 183.576 211.661C187.156 211.741 194.366 208.704 193.676 197.085C198.274 190.718 191.985 175.069 189.873 168.732C191.466 164.712 190.633 159.109 189.613 155.009" fill="white"/>
<path fill-rule="evenodd" clip-rule="evenodd" d="M152.804 129.415C153.268 129.301 153.702 129.278 154.104 129.366C154.717 129.5 155.32 129.778 155.901 130.156C156.187 130.342 156.45 130.541 156.685 130.741L156.775 130.818C156.789 130.831 156.803 130.842 156.816 130.854L156.888 130.919L156.948 130.976L156.995 131.022C157.098 131.125 157.171 131.262 157.205 131.413L157.226 131.538L157.367 132.484L157.41 132.775C157.555 133.771 157.701 134.802 157.837 135.816L157.915 136.408L157.99 136.983L158.082 137.717L158.165 138.405L158.224 138.92L158.265 139.287L158.313 139.748L158.345 140.074L158.373 140.383L158.39 140.579L158.412 140.858L158.43 141.119L158.44 141.283L158.448 141.439L158.454 141.587L158.458 141.728L158.461 141.86L158.462 141.984L158.461 142.1L158.458 142.208L158.453 142.307L158.446 142.399C158.445 142.414 158.444 142.428 158.442 142.442L158.433 142.521C158.431 142.533 158.429 142.545 158.427 142.557C158.386 142.808 158.658 143.218 159.241 143.677L159.302 143.723L159.378 143.778L159.512 143.872L159.805 144.072L159.855 143.981L159.925 143.846L160.015 143.672L160.158 143.387L160.313 143.074L160.421 142.851L160.65 142.372L160.771 142.118C161.026 141.577 161.702 141.58 161.953 142.123C162.978 144.336 164.219 146.122 165.479 147.216C165.759 147.459 165.829 147.907 165.641 148.246L165.304 148.854L165.139 149.148L164.818 149.716L164.584 150.125L164.356 150.518L164.207 150.772L163.989 151.139L163.777 151.491L163.571 151.826L163.438 152.04L163.307 152.247L163.179 152.446L163.053 152.638L162.931 152.823L162.811 152.999L162.694 153.168L162.58 153.329L162.469 153.482C162.451 153.507 162.433 153.532 162.415 153.556L162.308 153.697C162.273 153.742 162.238 153.787 162.204 153.83L162.103 153.955L162.005 154.071C161.988 154.09 161.972 154.108 161.957 154.126L161.874 154.218L161.882 154.234C162.423 155.36 163.086 156.404 163.856 157.342L163.998 157.512L164.075 157.61L164.197 157.772L164.439 158.107L164.829 158.661L165.629 159.819L166.862 161.631L168.144 163.531L169.251 165.178L170.912 167.658L173.637 171.744L173.654 171.744C174.031 171.737 174.453 171.744 174.914 171.769L175.195 171.787C175.719 171.822 176.287 171.881 176.893 171.968L177.052 171.991C179.228 172.318 181.38 172.948 183.399 173.956C185.188 174.849 186.804 176.009 188.2 177.464C188.475 177.75 188.496 178.238 188.247 178.555C187.998 178.871 187.574 178.895 187.299 178.608C186.016 177.272 184.525 176.201 182.864 175.372C180.97 174.427 178.938 173.832 176.878 173.522C176.575 173.477 176.282 173.439 175.999 173.408L175.72 173.379C175.537 173.361 175.358 173.346 175.185 173.333L174.929 173.316C174.887 173.314 174.846 173.312 174.805 173.309L174.561 173.298L174.327 173.291L174.102 173.287C173.991 173.286 173.884 173.286 173.781 173.287L173.579 173.29L173.351 173.299C173.144 173.312 172.944 173.215 172.808 173.037L172.732 172.925L171.266 170.723L169.567 168.18L166.961 164.296L165.348 161.911L164.4 160.52L163.859 159.736L163.439 159.137L163.265 158.895L163.13 158.711L163.051 158.608L163.021 158.57C161.971 157.327 161.094 155.905 160.42 154.355C160.263 153.993 160.376 153.556 160.673 153.349L160.708 153.326C160.763 153.293 160.828 153.237 160.904 153.16L160.962 153.098C160.972 153.088 160.983 153.076 160.993 153.065L161.057 152.991L161.124 152.911C161.136 152.896 161.147 152.882 161.159 152.867L161.269 152.727L161.346 152.624L161.427 152.514L161.554 152.337L161.687 152.144L161.779 152.007L161.875 151.865L161.973 151.716L162.125 151.481L162.282 151.233L162.445 150.972L162.671 150.605L162.905 150.217L163.208 149.705L163.396 149.384L163.652 148.941L163.914 148.482L164.186 147.998L164.151 147.963C163.188 146.999 162.267 145.715 161.446 144.201L161.37 144.06L161.283 144.235L161.127 144.543L161.033 144.725L160.947 144.886L160.867 145.031C160.854 145.054 160.842 145.077 160.83 145.098L160.759 145.221C160.736 145.259 160.714 145.294 160.694 145.327C160.623 145.439 160.561 145.526 160.494 145.599C160.427 145.673 160.356 145.734 160.26 145.782C160.043 145.892 159.779 145.886 159.561 145.691L159.545 145.677L159.255 145.491C158.959 145.302 158.723 145.14 158.483 144.951C157.519 144.193 156.96 143.366 157.097 142.342L157.111 142.249L157.117 142.196L157.12 142.134L157.123 142.063L157.124 141.982L157.123 141.893L157.121 141.795L157.117 141.688L157.109 141.512L157.097 141.318L157.071 140.954L157.051 140.712L157.02 140.365L156.984 139.989L156.931 139.481L156.857 138.819L156.758 137.98L156.661 137.208L156.588 136.638L156.51 136.051C156.402 135.246 156.288 134.43 156.173 133.629L156.023 132.603L155.937 132.025L155.888 131.983C155.694 131.819 155.476 131.654 155.24 131.5C154.777 131.199 154.307 130.982 153.854 130.883C153.646 130.838 153.385 130.852 153.083 130.925C152.708 131.017 152.293 131.194 151.866 131.432C151.629 131.564 151.403 131.705 151.198 131.847L151.097 131.918L150.949 132.026C150.609 132.293 150.176 132.142 149.991 131.778L149.97 131.734L149.946 131.719C149.907 131.694 149.857 131.668 149.795 131.64L149.747 131.619C149.574 131.548 149.352 131.481 149.077 131.423L148.922 131.391C148.869 131.381 148.814 131.372 148.757 131.362L148.581 131.334L148.394 131.308L148.197 131.284C147.421 131.196 146.924 131.526 146.576 132.176C146.459 132.394 146.369 132.634 146.304 132.873L146.282 132.961L146.264 133.037L146.252 133.098L146.243 133.144L146.241 133.161C146.166 133.72 145.631 133.973 145.244 133.715L145.214 133.694L145.203 133.691C145.142 133.676 145.043 133.664 144.902 133.661L144.853 133.661C144.553 133.661 144.154 133.705 143.645 133.804C143.119 133.907 142.669 134.307 142.294 134.941C142.127 135.222 141.988 135.528 141.877 135.834C141.848 135.914 141.823 135.989 141.801 136.058L141.773 136.153L141.755 136.216C141.664 136.584 141.354 136.818 141.028 136.772L140.905 136.75L140.804 136.736C140.512 136.698 140.206 136.69 139.934 136.729C139.498 136.792 139.303 136.933 139.271 137.14L139.238 137.372L139.2 137.67L139.147 138.112L139.076 138.738L138.959 139.825L138.84 140.981L138.77 141.676L138.627 143.116L138.433 145.142L138.432 145.164C138.431 145.201 138.43 145.24 138.43 145.281L138.43 145.411L138.433 145.554C138.433 145.579 138.434 145.605 138.435 145.631L138.442 145.794C138.447 145.878 138.453 145.968 138.46 146.062L138.476 146.256C138.541 146.961 138.67 147.737 138.878 148.57C139.452 150.868 140.526 153.229 142.229 155.547C143.224 156.903 144.046 157.726 144.753 158.161C145.184 158.426 145.451 158.511 145.975 158.581L146.14 158.602C146.901 158.693 147.298 158.87 147.728 159.496C147.984 159.868 148.212 160.384 148.448 161.114L148.509 161.306L148.724 161.851C156.102 180.482 163.649 193.604 170.975 201.912L171.199 202.165C174.057 205.369 176.752 207.683 179.183 209.167C179.972 209.649 180.713 210.029 181.377 210.307L181.575 210.388C182.386 210.711 183.075 210.877 183.59 210.889C185.595 210.933 187.998 209.997 189.783 208.181C192.1 205.824 193.306 202.181 193.007 197.138C192.995 196.94 193.05 196.744 193.16 196.592C194.509 194.724 194.911 191.808 194.496 187.985L194.46 187.664C194.447 187.556 194.433 187.448 194.419 187.339L194.375 187.01L194.327 186.677C194.311 186.565 194.294 186.453 194.276 186.339L194.221 185.998C194.202 185.883 194.182 185.768 194.162 185.652L194.099 185.303C194.035 184.951 193.965 184.594 193.89 184.23L193.813 183.864C193.76 183.619 193.706 183.371 193.648 183.121C193.247 181.366 192.741 179.53 192.126 177.544L191.938 176.944C191.906 176.843 191.874 176.741 191.841 176.64L191.592 175.868L191.411 175.322L191.117 174.45L190.63 173.02L189.246 169.008C189.182 168.815 189.187 168.6 189.262 168.412C190.108 166.278 190.282 163.521 189.926 160.379L189.886 160.041C189.858 159.815 189.827 159.586 189.794 159.356L189.742 159.01C189.688 158.662 189.628 158.31 189.563 157.954L189.495 157.597C189.449 157.358 189.4 157.118 189.349 156.876L189.271 156.512C189.258 156.451 189.244 156.39 189.23 156.329L189.146 155.962L189.059 155.592C189.029 155.469 188.999 155.345 188.968 155.221C188.866 154.811 189.072 154.383 189.429 154.266C189.785 154.148 190.157 154.386 190.259 154.796C190.291 154.928 190.324 155.059 190.355 155.19L190.448 155.583C190.661 156.497 190.842 157.393 190.989 158.269L191.051 158.643C191.661 162.494 191.6 165.929 190.628 168.668L190.6 168.746L191.709 171.959L192.393 173.961L192.726 174.953L192.901 175.485C193.754 178.112 194.432 180.478 194.946 182.728L194.991 182.922L195.076 183.309L195.158 183.692C195.172 183.755 195.185 183.818 195.198 183.881L195.275 184.259C195.462 185.196 195.614 186.099 195.73 186.965L195.774 187.309L195.815 187.65C196.284 191.769 195.879 195.019 194.388 197.294L194.362 197.333L194.365 197.39C194.61 202.659 193.284 206.622 190.758 209.25L190.672 209.338C188.625 211.421 185.894 212.484 183.564 212.433C182.361 212.406 180.58 211.769 178.553 210.531C176.006 208.975 173.208 206.573 170.262 203.27C162.661 194.747 154.865 181.207 147.275 161.916C147.267 161.896 147.26 161.875 147.254 161.855L147.225 161.76L147.167 161.581C147.157 161.552 147.148 161.524 147.138 161.496L147.082 161.335C147.046 161.231 147.009 161.136 146.974 161.048L146.922 160.923C146.835 160.722 146.753 160.568 146.675 160.454C146.553 160.276 146.476 160.215 146.24 160.172L146.155 160.158C146.14 160.156 146.124 160.154 146.108 160.152L146.002 160.138C145.928 160.13 145.855 160.12 145.783 160.109L145.641 160.086C145.617 160.081 145.594 160.077 145.57 160.073L145.431 160.044C144.37 159.815 143.473 159.272 142.328 157.964L142.178 157.789L142.024 157.605C141.998 157.573 141.972 157.542 141.946 157.509L141.787 157.312C141.68 157.177 141.571 157.036 141.459 156.888L141.289 156.661C141.261 156.622 141.232 156.583 141.203 156.544C139.376 154.055 138.213 151.499 137.588 148.996C137.358 148.075 137.214 147.211 137.141 146.418C137.095 145.914 137.082 145.497 137.089 145.178L137.093 145.051L137.099 144.961L137.258 143.31L137.365 142.215L137.507 140.801L137.642 139.491L137.728 138.691L137.784 138.191L137.844 137.673L137.897 137.247L137.935 136.966L137.949 136.873C138.106 135.845 138.815 135.333 139.768 135.197C140.03 135.159 140.297 135.152 140.561 135.165L140.663 135.172L140.693 135.091C140.808 134.793 140.944 134.497 141.103 134.212L141.185 134.07C141.748 133.121 142.485 132.465 143.42 132.282C144.12 132.145 144.661 132.097 145.075 132.123L145.11 132.125L145.131 132.062C145.199 131.864 145.279 131.669 145.374 131.479L145.433 131.365C146.035 130.242 147.006 129.597 148.329 129.747L148.449 129.762L148.681 129.792C149.322 129.883 149.822 130.009 150.202 130.167C150.363 130.233 150.505 130.308 150.629 130.39L150.666 130.416L150.753 130.359C150.879 130.277 151.01 130.197 151.145 130.119L151.281 130.041C151.798 129.754 152.31 129.535 152.804 129.415Z" fill="#000091"/>
<path fill-rule="evenodd" clip-rule="evenodd" d="M150.667 130.617C151.024 130.639 151.3 130.978 151.302 131.384L151.301 131.429L150.905 139.941C150.885 140.367 150.569 140.694 150.199 140.671C149.842 140.649 149.565 140.31 149.563 139.904L149.564 139.858L149.96 131.347C149.98 130.936 150.274 130.618 150.627 130.616L150.667 130.617Z" fill="#000091"/>
<path fill-rule="evenodd" clip-rule="evenodd" d="M145.631 132.271C145.989 132.271 146.281 132.592 146.301 132.998L146.303 133.043V141.174C146.303 141.6 146.002 141.946 145.631 141.946C145.274 141.946 144.982 141.625 144.961 141.219L144.96 141.174V133.043C144.96 132.617 145.261 132.271 145.631 132.271Z" fill="#000091"/>
<path fill-rule="evenodd" clip-rule="evenodd" d="M141.163 135.233C141.521 135.233 141.813 135.555 141.833 135.96L141.835 136.005V143.796C141.835 144.223 141.534 144.568 141.163 144.568C140.806 144.568 140.514 144.247 140.493 143.842L140.492 143.796V136.005C140.492 135.579 140.793 135.233 141.163 135.233Z" fill="#000091"/>
</g>
<defs>
<clipPath id="clip0_18_235">
<rect width="196" height="256" fill="white"/>
</clipPath>
</defs>
</svg>
