<svg width="80" height="80" viewBox="0 0 80 80" fill="none" xmlns="http://www.w3.org/2000/svg">
<path d="M65.4193 29.6104C65.4193 28.7125 64.6746 27.9562 63.7215 27.9562H16.2786C15.3256 27.9562 14.5794 28.7125 14.5794 29.6104V59.7501C14.5795 60.6479 15.3257 61.4028 16.2786 61.4028H63.7215C64.6745 61.4028 65.4191 60.6479 65.4193 59.7501V29.6104ZM67.2657 59.7501C67.2656 61.6976 65.6637 63.2492 63.7215 63.2492H16.2786C14.3364 63.2492 12.7346 61.6976 12.7345 59.7501V29.6104C12.7345 27.6628 14.3364 26.1113 16.2786 26.1113H63.7215C65.6638 26.1113 67.2657 27.6628 67.2657 29.6104V59.7501Z" fill="#000091"/>
<path d="M12.7345 38.7114V29.6098H14.5794V38.7114C14.5794 42.9093 18.084 46.3752 22.3949 46.3752H57.6053C61.9162 46.3752 65.4193 42.9093 65.4193 38.7114V29.6098H67.2657V38.7114C67.2657 43.959 62.9054 48.2216 57.6053 48.2216H22.3949C17.0948 48.2216 12.7345 43.959 12.7345 38.7114Z" fill="#000091"/>
<path d="M18.3264 60.0078V46.7837H20.1713V60.0078C20.1715 60.7708 20.7919 61.4034 21.6076 61.4036H58.3925C59.2081 61.4033 59.8286 60.7707 59.8288 60.0078V46.9549H61.6737V60.0078C61.6735 61.8204 60.1974 63.2483 58.3925 63.2485H21.6076C19.8026 63.2483 18.3265 61.8205 18.3264 60.0078Z" fill="#000091"/>
<path d="M29.4711 41.8253C29.9809 41.8253 30.3936 42.238 30.3936 42.7478V51.9365C30.3932 52.446 29.9807 52.859 29.4711 52.859H24.9279C24.4183 52.859 24.0058 52.446 24.0054 51.9365V42.7478C24.0054 42.238 24.4181 41.8253 24.9279 41.8253H29.4711ZM25.8504 51.0125H28.5487V43.6703H25.8504V51.0125Z" fill="#6A6AF4"/>
<path d="M54.8968 41.8253C55.4066 41.8253 55.8193 42.238 55.8193 42.7478V51.9365C55.8189 52.446 55.4063 52.859 54.8968 52.859H50.3535C49.8439 52.859 49.4314 52.446 49.431 51.9365V42.7478C49.431 42.238 49.8437 41.8253 50.3535 41.8253H54.8968ZM51.276 51.0125H53.9743V43.6703H51.276V51.0125Z" fill="#6A6AF4"/>
<path d="M51.7025 20.2507C51.7025 19.3157 50.994 18.5965 50.0033 18.5965H29.9087C28.918 18.5965 28.2095 19.3157 28.2095 20.2507V25.9388H51.7025V20.2507ZM53.549 27.7852H26.3645V20.2507C26.3645 18.266 27.9287 16.7516 29.9087 16.7516H50.0033C51.9833 16.7516 53.549 18.266 53.549 20.2507V27.7852Z" fill="#000091"/>
<path d="M31.2675 25.9391H48.8186V21.5161H31.2675V25.9391ZM50.665 27.7856H29.4225V21.0233C29.4225 20.6798 29.5424 20.3232 29.8177 20.0527C30.0679 19.8068 30.3858 19.6968 30.6951 19.6786V19.6711H49.3054C49.6411 19.6712 49.9948 19.7841 50.2684 20.0527C50.5436 20.3232 50.665 20.6798 50.665 21.0233V27.7856Z" fill="#000091"/>
<path fill-rule="evenodd" clip-rule="evenodd" d="M9.937 70.6045C9.32101 70.6045 8.81985 70.1034 8.81985 69.4874C8.81985 68.8713 9.32101 68.3702 9.937 68.3702C10.553 68.3702 11.0541 68.8713 11.0541 69.4874C11.0541 70.1034 10.553 70.6045 9.937 70.6045Z" fill="#CACAFB"/>
<path fill-rule="evenodd" clip-rule="evenodd" d="M7.70293 15.597C7.08694 15.597 6.58578 15.0958 6.58578 14.4798C6.58578 13.8638 7.08694 13.3627 7.70293 13.3627C8.31893 13.3627 8.82008 13.8638 8.82008 14.4798C8.82008 15.0958 8.31893 15.597 7.70293 15.597Z" fill="#CACAFB"/>
<path fill-rule="evenodd" clip-rule="evenodd" d="M72.2419 18.7912C71.6259 18.7912 71.1248 18.29 71.1248 17.674C71.1248 17.058 71.6259 16.5569 72.2419 16.5569C72.8579 16.5569 73.3591 17.058 73.3591 17.674C73.3591 18.29 72.8579 18.7912 72.2419 18.7912Z" fill="#CACAFB"/>
</svg>
