<svg width="52" height="52" viewBox="0 0 52 52" fill="none" xmlns="http://www.w3.org/2000/svg">
<path d="M42.3717 42.5001H9.62835C9.28276 42.5001 9 42.2092 9 41.8537V21.9309C9 21.724 9.10054 21.5301 9.26391 21.4073L25.2303 9.62294C25.4439 9.46133 25.733 9.46133 25.9529 9.61648L42.7298 21.4008C42.8995 21.5236 43.0063 21.724 43.0063 21.9373V41.8602C43.0063 42.2157 42.7235 42.5066 42.3779 42.5066L42.3717 42.5001ZM10.2567 41.2073H41.7433V22.2735L25.601 10.9352L10.2567 22.267V41.2073Z" fill="#000091"/>
<path d="M31.0174 39.3584H14.2656C13.92 39.3584 13.6372 39.0675 13.6372 38.7119V35.4281C13.6372 35.0726 13.92 34.7817 14.2656 34.7817H31.0174C31.363 34.7817 31.6457 35.0726 31.6457 35.4281V38.7119C31.6457 39.0675 31.363 39.3584 31.0174 39.3584ZM14.8939 38.0655H30.389V36.0745H14.8939V38.0655Z" fill="#6A6AF4"/>
<path d="M29.9115 36.0745C29.5659 36.0745 29.2832 35.7836 29.2832 35.4281V30.6316H15.9999V35.4281C15.9999 35.7836 15.7171 36.0745 15.3715 36.0745C15.0259 36.0745 14.7432 35.7836 14.7432 35.4281V29.9852C14.7432 29.6297 15.0259 29.3388 15.3715 29.3388H29.9052C30.2508 29.3388 30.5336 29.6297 30.5336 29.9852V35.4281C30.5336 35.7836 30.2508 36.0745 29.9052 36.0745H29.9115Z" fill="#6A6AF4"/>
<path d="M21.4851 35.9905H17.9789C17.6333 35.9905 17.3506 35.6996 17.3506 35.3441V32.6356C17.3506 32.28 17.6333 31.9891 17.9789 31.9891H21.4851C21.8307 31.9891 22.1135 32.28 22.1135 32.6356V35.3441C22.1135 35.6996 21.8307 35.9905 21.4851 35.9905ZM18.6073 34.6977H20.8568V33.282H18.6073V34.6977Z" fill="#6A6AF4"/>
<path d="M27.304 35.9905H23.7978C23.4522 35.9905 23.1694 35.6996 23.1694 35.3441V32.6356C23.1694 32.28 23.4522 31.9891 23.7978 31.9891H27.304C27.6496 31.9891 27.9323 32.28 27.9323 32.6356V35.3441C27.9323 35.6996 27.6496 35.9905 27.304 35.9905ZM24.4261 34.6977H26.6756V33.282H24.4261V34.6977Z" fill="#6A6AF4"/>
<path d="M35.4784 39.1451C35.1329 39.1451 34.8501 38.8542 34.8501 38.4986V27.4706C34.8501 27.1151 35.1329 26.8242 35.4784 26.8242C35.824 26.8242 36.1068 27.1151 36.1068 27.4706V38.4986C36.1068 38.8542 35.824 39.1451 35.4784 39.1451Z" fill="#000091"/>
<path d="M36.9929 39.1451H33.9643C33.6187 39.1451 33.3359 38.8542 33.3359 38.4986C33.3359 38.1431 33.6187 37.8522 33.9643 37.8522H36.9929C37.3385 37.8522 37.6213 38.1431 37.6213 38.4986C37.6213 38.8542 37.3385 39.1451 36.9929 39.1451Z" fill="#000091"/>
<path d="M37.7282 27.8908H33.2166C33.0156 27.8908 32.8208 27.7874 32.7077 27.6193C32.5946 27.4512 32.5569 27.2314 32.626 27.0311L33.8827 23.3076C33.9707 23.0491 34.2094 22.8745 34.4733 22.8745H36.4652C36.7354 22.8745 36.9742 23.0491 37.0559 23.3076L38.3126 27.0311C38.3817 27.2314 38.3503 27.4448 38.2309 27.6193C38.1115 27.7938 37.923 27.8908 37.7219 27.8908H37.7282ZM34.1026 26.598H36.8422L36.0191 24.1674H34.9195L34.0963 26.598H34.1026Z" fill="#000091"/>
<path fill-rule="evenodd" clip-rule="evenodd" d="M5.54646 25.4787C5.14606 25.4787 4.82031 25.153 4.82031 24.7526C4.82031 24.3521 5.14606 24.0264 5.54646 24.0264C5.94685 24.0264 6.2726 24.3521 6.2726 24.7526C6.2726 25.153 5.94685 25.4787 5.54646 25.4787Z" fill="#CACAFB"/>
<path fill-rule="evenodd" clip-rule="evenodd" d="M40.7774 11.5556C40.377 11.5556 40.0513 11.2298 40.0513 10.8294C40.0513 10.429 40.377 10.1033 40.7774 10.1033C41.1778 10.1033 41.5036 10.429 41.5036 10.8294C41.5036 11.2298 41.1778 11.5556 40.7774 11.5556Z" fill="#CACAFB"/>
<path fill-rule="evenodd" clip-rule="evenodd" d="M27.9322 46.0173C27.5318 46.0173 27.2061 45.6915 27.2061 45.2911C27.2061 44.8907 27.5318 44.565 27.9322 44.565C28.3326 44.565 28.6583 44.8907 28.6583 45.2911C28.6583 45.6915 28.3326 46.0173 27.9322 46.0173Z" fill="#CACAFB"/>
</svg>
