<svg width="52" height="52" viewBox="0 0 52 52" fill="none" xmlns="http://www.w3.org/2000/svg">
<path d="M42.3717 41.9999H9.62835C9.28276 41.9999 9 41.7178 9 41.3731V17.054C9 16.8534 9.10054 16.6653 9.26391 16.5462L25.2303 5.119C25.4439 4.96229 25.733 4.96229 25.9529 5.11273L42.7298 16.54C42.8995 16.6591 43.0063 16.8534 43.0063 17.0602V41.3793C43.0063 41.7241 42.7235 42.0062 42.3779 42.0062L42.3717 41.9999ZM10.2567 40.7462H41.7433V17.3862L25.601 6.39148L10.2567 17.3799V40.7462Z" fill="#000091"/>
<path d="M28.9564 39.361H12.2109C11.8653 39.361 11.5825 39.0789 11.5825 38.7342V35.5498C11.5825 35.2051 11.8653 34.923 12.2109 34.923H28.9627C29.3083 34.923 29.591 35.2051 29.591 35.5498V38.7342C29.591 39.0789 29.3083 39.361 28.9627 39.361H28.9564ZM12.8392 38.1073H28.3343V36.1767H12.8392V38.1073Z" fill="#6A6AF4"/>
<path d="M27.8506 36.1767C27.505 36.1767 27.2222 35.8946 27.2222 35.5498V30.8925H13.9452V35.5498C13.9452 35.8946 13.6624 36.1767 13.3168 36.1767C12.9712 36.1767 12.6885 35.8946 12.6885 35.5498V30.2656C12.6885 29.9209 12.9712 29.6388 13.3168 29.6388H27.8506C28.1961 29.6388 28.4789 29.9209 28.4789 30.2656V35.5498C28.4789 35.8946 28.1961 36.1767 27.8506 36.1767Z" fill="#6A6AF4"/>
<path d="M19.4304 36.0889H15.9242C15.5787 36.0889 15.2959 35.8069 15.2959 35.4621V32.8357C15.2959 32.4909 15.5787 32.2088 15.9242 32.2088H19.4304C19.776 32.2088 20.0588 32.4909 20.0588 32.8357V35.4621C20.0588 35.8069 19.776 36.0889 19.4304 36.0889ZM16.5526 34.8353H18.8021V33.4625H16.5526V34.8353Z" fill="#6A6AF4"/>
<path d="M25.2493 36.0889H21.7431C21.3975 36.0889 21.1147 35.8069 21.1147 35.4621V32.8357C21.1147 32.4909 21.3975 32.2088 21.7431 32.2088H25.2493C25.5949 32.2088 25.8776 32.4909 25.8776 32.8357V35.4621C25.8776 35.8069 25.5949 36.0889 25.2493 36.0889ZM22.3652 34.8353H24.6147V33.4625H22.3652V34.8353Z" fill="#6A6AF4"/>
<path d="M41.7874 37.3614H37.8854C37.5398 37.3614 37.257 37.0793 37.257 36.7346V34.5344H34.9698C34.6242 34.5344 34.3415 34.2523 34.3415 33.9075V31.7512H32.1799C31.8344 31.7512 31.5516 31.4691 31.5516 31.1244V28.9681H29.4089C29.0633 28.9681 28.7806 28.686 28.7806 28.3412V26.0407H10.5019C10.1563 26.0407 9.87354 25.7587 9.87354 25.4139C9.87354 25.0691 10.1563 24.7871 10.5019 24.7871H29.4089C29.7545 24.7871 30.0373 25.0691 30.0373 25.4139V27.7144H32.1799C32.5255 27.7144 32.8083 27.9965 32.8083 28.3412V30.4975H34.9698C35.3154 30.4975 35.5982 30.7796 35.5982 31.1244V33.2807H37.8854C38.231 33.2807 38.5137 33.5628 38.5137 33.9075V36.1077H41.7874C42.133 36.1077 42.4158 36.3898 42.4158 36.7346C42.4158 37.0793 42.133 37.3614 41.7874 37.3614Z" fill="#000091"/>
<path d="M25.7202 20.7159C23.4016 20.7159 21.5103 18.8354 21.5103 16.5161C21.5103 14.1968 23.3953 12.3163 25.7202 12.3163C28.0451 12.3163 29.9301 14.1968 29.9301 16.5161C29.9301 18.8354 28.0451 20.7159 25.7202 20.7159ZM25.7202 13.5763C24.0928 13.5763 22.767 14.8989 22.767 16.5224C22.767 18.1459 24.0928 19.4685 25.7202 19.4685C27.3476 19.4685 28.6734 18.1459 28.6734 16.5224C28.6734 14.8989 27.3476 13.5763 25.7202 13.5763Z" fill="#6A6AF4"/>
<path d="M25.7201 20.3774C25.3746 20.3774 25.0918 20.0954 25.0918 19.7506V13.2942C25.0918 12.9494 25.3746 12.6674 25.7201 12.6674C26.0657 12.6674 26.3485 12.9494 26.3485 13.2942V19.7506C26.3485 20.0954 26.0657 20.3774 25.7201 20.3774Z" fill="#6A6AF4"/>
<path d="M29.0257 17.1492H22.4155C22.0699 17.1492 21.7871 16.8672 21.7871 16.5224C21.7871 16.1776 22.0699 15.8956 22.4155 15.8956H29.0257C29.3713 15.8956 29.654 16.1776 29.654 16.5224C29.654 16.8672 29.3713 17.1492 29.0257 17.1492Z" fill="#6A6AF4"/>
<path fill-rule="evenodd" clip-rule="evenodd" d="M5.54646 25.4787C5.14606 25.4787 4.82031 25.153 4.82031 24.7526C4.82031 24.3521 5.14606 24.0264 5.54646 24.0264C5.94685 24.0264 6.2726 24.3521 6.2726 24.7526C6.2726 25.153 5.94685 25.4787 5.54646 25.4787Z" fill="#CACAFB"/>
<path fill-rule="evenodd" clip-rule="evenodd" d="M40.7774 11.5556C40.377 11.5556 40.0513 11.2298 40.0513 10.8294C40.0513 10.429 40.377 10.1033 40.7774 10.1033C41.1778 10.1033 41.5036 10.429 41.5036 10.8294C41.5036 11.2298 41.1778 11.5556 40.7774 11.5556Z" fill="#CACAFB"/>
<path fill-rule="evenodd" clip-rule="evenodd" d="M27.9322 46.0173C27.5318 46.0173 27.2061 45.6915 27.2061 45.2911C27.2061 44.8907 27.5318 44.565 27.9322 44.565C28.3326 44.565 28.6583 44.8907 28.6583 45.2911C28.6583 45.6915 28.3326 46.0173 27.9322 46.0173Z" fill="#CACAFB"/>
</svg>
