<svg width="52" height="52" viewBox="0 0 52 52" fill="none" xmlns="http://www.w3.org/2000/svg">
<path fill-rule="evenodd" clip-rule="evenodd" d="M6.04109 41.6195C5.64069 41.6195 5.31494 41.2937 5.31494 40.8934C5.31494 40.4929 5.64069 40.1672 6.04109 40.1672C6.44148 40.1672 6.76723 40.4929 6.76723 40.8934C6.76723 41.2937 6.44148 41.6195 6.04109 41.6195Z" fill="#CACAFB"/>
<path fill-rule="evenodd" clip-rule="evenodd" d="M6.04109 9.61257C5.64069 9.61257 5.31494 9.28682 5.31494 8.88642C5.31494 8.48599 5.64069 8.16028 6.04109 8.16028C6.44148 8.16028 6.76723 8.48599 6.76723 8.88642C6.76723 9.28682 6.44148 9.61257 6.04109 9.61257Z" fill="#CACAFB"/>
<path fill-rule="evenodd" clip-rule="evenodd" d="M46.9664 8.16027C46.566 8.16027 46.2402 7.83452 46.2402 7.43412C46.2402 7.03369 46.566 6.70798 46.9664 6.70798C47.3668 6.70798 47.6925 7.03369 47.6925 7.43412C47.6925 7.83452 47.3668 8.16027 46.9664 8.16027Z" fill="#CACAFB"/>
<path fill-rule="evenodd" clip-rule="evenodd" d="M43.9903 31.0596C43.5899 31.0596 43.2642 30.7338 43.2642 30.3334C43.2642 29.933 43.5899 29.6073 43.9903 29.6073C44.3907 29.6073 44.7165 29.933 44.7165 30.3334C44.7165 30.7338 44.3907 31.0596 43.9903 31.0596Z" fill="#CACAFB"/>
<path fill-rule="evenodd" clip-rule="evenodd" d="M18.9405 44.2974C18.5401 44.2974 18.2144 43.9717 18.2144 43.5713C18.2144 43.1709 18.5401 42.8452 18.9405 42.8452C19.3409 42.8452 19.6666 43.1709 19.6666 43.5713C19.6666 43.9717 19.3409 44.2974 18.9405 44.2974Z" fill="#CACAFB"/>
<path d="M25.7435 36.8135C25.7087 36.8135 25.667 36.8135 25.6322 36.8065C25.2565 36.7439 24.999 36.3891 25.0616 36.0064L26.9681 24.4283C27.0307 24.0456 27.3856 23.7882 27.7683 23.8578C28.144 23.9204 28.4015 24.2752 28.3388 24.6579L26.4324 36.236C26.3767 36.5769 26.0845 36.8204 25.7435 36.8204V36.8135Z" fill="#6A6AF4"/>
<path d="M40.2232 40.1672L14.2978 39.9933C14.103 39.9933 13.9221 39.9098 13.7899 39.7706L3.81217 28.9301C3.6243 28.7283 3.5756 28.4361 3.68692 28.1786C3.79825 27.9282 4.04874 27.7612 4.32706 27.7612H10.2204C10.4222 27.7612 10.6101 27.8447 10.7423 27.9977L17.1575 35.3453L44.0292 35.6167C44.3214 35.6167 44.5789 35.8046 44.6763 36.0829C44.7737 36.3612 44.6902 36.6674 44.4675 36.8483L40.6615 40.0072C40.5363 40.1116 40.3763 40.1672 40.2162 40.1672H40.2232ZM14.604 38.6086L39.9727 38.7756L42.1227 36.9944L16.8375 36.7369C16.6426 36.7369 16.4478 36.6465 16.3226 36.5004L9.90734 29.1597H5.91347L14.604 38.6086Z" fill="#000091"/>
<path d="M13.5043 46.7633C13.4069 46.7633 13.3094 46.7425 13.212 46.7007C12.8641 46.5407 12.7111 46.1232 12.8711 45.7753L15.9396 39.1792C16.0996 38.8313 16.5171 38.6782 16.865 38.8382C17.2129 38.9983 17.3659 39.4157 17.2059 39.7636L14.1374 46.3598C14.0192 46.6103 13.7687 46.7633 13.5043 46.7633Z" fill="#000091"/>
<path d="M37.8502 46.7633C37.5858 46.7633 37.3353 46.6172 37.217 46.3598L34.1486 39.7636C33.9885 39.4157 34.1347 38.9983 34.4895 38.8382C34.8374 38.6782 35.2549 38.8243 35.4149 39.1792L38.4834 45.7753C38.6434 46.1232 38.4973 46.5407 38.1425 46.7007C38.045 46.7425 37.9476 46.7633 37.8502 46.7633Z" fill="#000091"/>
<path d="M41.4339 43.9662C41.1695 43.9662 40.912 43.8132 40.8007 43.5557L39.1378 39.8193C38.9847 39.4714 39.1378 39.0539 39.4926 38.9009C39.8475 38.7478 40.258 38.9009 40.4111 39.2557L42.074 42.9921C42.2271 43.34 42.074 43.7575 41.7192 43.9106C41.6287 43.9523 41.5313 43.9732 41.4339 43.9732V43.9662Z" fill="#000091"/>
<path d="M18.897 43.9663C18.7996 43.9663 18.7091 43.9454 18.6117 43.9037C18.2638 43.7506 18.1038 43.3331 18.2568 42.9852L19.9198 39.2488C20.0729 38.8939 20.4834 38.7409 20.8382 38.8939C21.1861 39.047 21.3462 39.4645 21.1931 39.8124L19.5301 43.5488C19.4119 43.8062 19.1614 43.9593 18.897 43.9593V43.9663Z" fill="#000091"/>
<path d="M39.8124 25.8964C36.73 25.8964 32.757 25.6668 28.1369 24.8806C16.9903 22.995 10.9786 19.189 10.7281 19.0289C10.4915 18.8758 10.3732 18.5975 10.4219 18.3262C11.1456 14.214 13.7687 10.6933 17.8113 8.41803C21.8052 6.17061 26.7175 5.41219 31.6437 6.27498C36.57 7.13776 40.9326 9.5313 43.9245 13.0033C46.9512 16.5171 48.2176 20.7197 47.494 24.8319C47.4453 25.1171 47.2226 25.3467 46.9373 25.3955C46.7564 25.4302 44.1611 25.8895 39.8124 25.8895V25.8964ZM11.8831 18.0966C13.393 18.9593 19.1124 21.9443 28.3735 23.5098C37.6624 25.0754 44.3907 24.3587 46.1998 24.1082C46.666 20.5666 45.497 16.9694 42.8669 13.9148C40.0837 10.6794 36.0133 8.45978 31.4002 7.64569C26.7871 6.83161 22.2018 7.54133 18.4862 9.62871C14.9724 11.6048 12.6415 14.5967 11.8762 18.0966H11.8831Z" fill="#6A6AF4"/>
<path d="M36.7164 25.5833C36.6747 25.5833 36.633 25.5833 36.5982 25.5764C36.2224 25.5068 35.965 25.1519 36.0346 24.7693C36.7234 20.8589 36.6121 16.7119 35.7284 13.3791C34.8378 10.0114 33.3001 7.97969 31.4145 7.64571C29.4732 7.29781 27.1214 8.64766 24.9575 11.3404C22.724 14.1166 21.068 17.8739 20.407 21.6382C20.3374 22.0139 19.9826 22.2644 19.5999 22.2018C19.2241 22.1322 18.9667 21.7773 19.0363 21.3946C19.739 17.4008 21.4994 13.4208 23.8721 10.4637C26.3491 7.37435 29.1949 5.85056 31.6441 6.27499C34.1003 6.70639 36.0276 9.09992 37.0643 13.0242C37.9967 16.538 38.115 20.9076 37.3983 25.0058C37.3357 25.3468 37.0435 25.5833 36.7164 25.5833Z" fill="#6A6AF4"/>
</svg>
