<svg width="52" height="52" viewBox="0 0 52 52" fill="none" xmlns="http://www.w3.org/2000/svg">
<path fill-rule="evenodd" clip-rule="evenodd" d="M15.5631 18.9462C15.1627 18.9462 14.8369 18.6204 14.8369 18.22C14.8369 17.8196 15.1627 17.4939 15.5631 17.4939C15.9635 17.4939 16.2892 17.8196 16.2892 18.22C16.2892 18.6204 15.9635 18.9462 15.5631 18.9462Z" fill="#CACAFB"/>
<path fill-rule="evenodd" clip-rule="evenodd" d="M31.8653 12.3377C31.4649 12.3377 31.1392 12.012 31.1392 11.6116C31.1392 11.2112 31.4649 10.8854 31.8653 10.8854C32.2657 10.8854 32.5915 11.2112 32.5915 11.6116C32.5915 12.012 32.2657 12.3377 31.8653 12.3377Z" fill="#CACAFB"/>
<path fill-rule="evenodd" clip-rule="evenodd" d="M42.8653 38.3377C42.4649 38.3377 42.1392 38.012 42.1392 37.6116C42.1392 37.2112 42.4649 36.8854 42.8653 36.8854C43.2657 36.8854 43.5915 37.2112 43.5915 37.6116C43.5915 38.012 43.2657 38.3377 42.8653 38.3377Z" fill="#CACAFB"/>
<path d="M18.188 42.3181C18.1294 42.3181 18.0415 42.4613 17.9829 42.4441C14.2204 41.298 10.8917 39.1375 8.34824 36.1977C8.20758 36.0315 8.17242 35.8023 8.26033 35.6017C8.34824 35.4011 8.54163 35.2693 8.76433 35.2579L41.3604 33.4986C41.5948 33.4814 41.8058 33.6075 41.9113 33.808C42.0168 34.0086 41.9933 34.2493 41.8527 34.4269L40.8388 35.6762C38.7349 38.2837 35.9746 40.3582 32.8568 41.682C32.5579 41.808 32.2122 41.6762 32.0832 41.384C31.9543 41.0917 32.0891 40.7536 32.388 40.6275C35.3241 39.3782 37.9261 37.4183 39.9128 34.9599L40.118 34.7077L10.0419 36.3352C12.3216 38.6619 15.164 40.3868 18.3228 41.3496C18.6334 41.4413 18.8034 41.7622 18.7096 42.0659C18.6334 42.3123 18.4283 42.3123 18.1821 42.3123L18.188 42.3181Z" fill="#000091"/>
<path d="M21.3294 35.2693C21.0422 35.2693 20.7902 35.0573 20.7492 34.7708L17.3677 9.64756C17.3266 9.33237 17.5493 9.04584 17.8717 9.00572C18.1881 8.95988 18.487 9.18337 18.528 9.49856L21.9095 34.6218C21.9506 34.937 21.7279 35.2235 21.4055 35.2636C21.3821 35.2636 21.3528 35.2636 21.3294 35.2636V35.2693Z" fill="#000091"/>
<path d="M22.9469 33.9456C22.8121 33.9456 22.6773 33.8997 22.5718 33.8138C22.4136 33.6877 22.3374 33.4928 22.3667 33.298C24.0428 20.6275 19.5478 10.7364 19.5009 10.639C19.4071 10.4441 19.4423 10.2092 19.5771 10.043C19.7177 9.87679 19.9404 9.79656 20.1573 9.84241C29.0125 11.7679 33.7653 16.639 36.1916 20.3868C38.8229 24.4556 39.3504 28.0258 39.3738 28.1805C39.4148 28.4556 39.2449 28.7135 38.9753 28.7994L23.1344 33.9112C23.0758 33.9284 23.0113 33.9398 22.9527 33.9398L22.9469 33.9456ZM21.0012 11.2178C22.0854 14.0659 24.7753 22.3754 23.6443 32.5415L38.1255 27.8653C37.604 25.4871 34.5272 14.6734 21.0012 11.212V11.2178Z" fill="#000091"/>
<path d="M11.4136 38.8166C11.103 38.8166 10.8451 38.5759 10.8275 38.2722C10.8099 37.957 11.0619 37.6877 11.3843 37.6705L38.8348 36.2951C39.163 36.2951 39.4326 36.5243 39.4502 36.8395C39.4677 37.1547 39.2157 37.424 38.8934 37.4412L11.4429 38.8166C11.4429 38.8166 11.4253 38.8166 11.4136 38.8166Z" fill="#000091"/>
<path d="M9.39158 43C9.32126 43 9.25093 43 9.17475 43C7.08841 42.9026 5.70533 41.4355 5.64673 41.3725C5.42989 41.1375 5.44747 40.7765 5.68775 40.5645C5.92803 40.3524 6.29724 40.3696 6.51408 40.6046C6.61957 40.7192 9.18647 43.3725 12.3218 40.5702C12.5621 40.3581 12.9313 40.3696 13.1482 40.6046C13.365 40.8395 13.3474 41.2006 13.113 41.4126C11.9292 42.4728 10.6809 43.0057 9.38572 43.0057L9.39158 43Z" fill="#6A6AF4"/>
<path d="M16.0317 43C15.9614 43 15.8911 43 15.8149 43C13.7285 42.9026 12.3455 41.4355 12.2869 41.3725C12.07 41.1375 12.0876 40.7765 12.3279 40.5645C12.5682 40.3524 12.9374 40.3696 13.1542 40.6046C13.2656 40.7249 15.8266 43.3725 18.962 40.5702C19.2022 40.3581 19.5715 40.3696 19.7883 40.6046C20.0051 40.8395 19.9876 41.2006 19.7531 41.4126C18.5693 42.4728 17.321 43.0057 16.0259 43.0057L16.0317 43Z" fill="#6A6AF4"/>
<path d="M22.6714 43C22.601 43 22.5307 43 22.4545 43C20.3682 42.9026 18.9851 41.4355 18.9265 41.3725C18.7097 41.1375 18.7273 40.7765 18.9675 40.5645C19.2078 40.3524 19.577 40.3696 19.7939 40.6046C19.8994 40.7192 22.4663 43.3725 25.6016 40.5702C25.8419 40.3581 26.2111 40.3696 26.4279 40.6046C26.6448 40.8395 26.6272 41.2006 26.3928 41.4126C25.209 42.4728 23.9607 43.0057 22.6655 43.0057L22.6714 43Z" fill="#6A6AF4"/>
<path d="M29.3115 43C29.2412 43 29.1709 43 29.0947 43C27.0083 42.9026 25.6253 41.4355 25.5667 41.3725C25.3498 41.1375 25.3674 40.7765 25.6077 40.5645C25.848 40.3524 26.2172 40.3696 26.434 40.6046C26.5454 40.7249 29.1064 43.3725 32.2418 40.5702C32.482 40.3581 32.8512 40.3696 33.0681 40.6046C33.2849 40.8395 33.2673 41.2006 33.0329 41.4126C31.8491 42.4728 30.6008 43.0057 29.3056 43.0057L29.3115 43Z" fill="#6A6AF4"/>
<path d="M35.9453 43C35.875 43 35.8046 43 35.7285 43C33.6421 42.9026 32.259 41.4355 32.2004 41.3725C31.9836 41.1375 32.0012 40.7765 32.2415 40.5645C32.4817 40.3524 32.851 40.3696 33.0678 40.6046C33.1791 40.7249 35.7402 43.3725 38.8755 40.5702C39.1158 40.3581 39.485 40.3753 39.7019 40.6046C39.9187 40.8395 39.9011 41.2006 39.6667 41.4126C38.4829 42.4728 37.2346 43.0057 35.9394 43.0057L35.9453 43Z" fill="#6A6AF4"/>
<path d="M42.5854 43C42.5151 43 42.4448 43 42.3686 43C40.2823 42.9026 38.8992 41.4355 38.8406 41.3725C38.6237 41.1375 38.6413 40.7765 38.8816 40.5645C39.1219 40.3524 39.4911 40.3696 39.7079 40.6046C39.8134 40.7192 42.3803 43.3725 45.5157 40.5702C45.756 40.3581 46.1252 40.3696 46.342 40.6046C46.5588 40.8395 46.5413 41.2006 46.3068 41.4126C45.123 42.4728 43.8747 43.0057 42.5796 43.0057L42.5854 43Z" fill="#6A6AF4"/>
<path fill-rule="evenodd" clip-rule="evenodd" d="M8.93855 32.5409C8.53815 32.5409 8.2124 32.2151 8.2124 31.8147C8.2124 31.4143 8.53815 31.0886 8.93855 31.0886C9.33894 31.0886 9.66469 31.4143 9.66469 31.8147C9.66469 32.2151 9.33894 32.5409 8.93855 32.5409Z" fill="#CACAFB"/>
</svg>
