<svg width="52" height="52" viewBox="0 0 52 52" fill="none" xmlns="http://www.w3.org/2000/svg">
<path d="M43.5648 45.3088H9.81391C9.46672 45.3088 9.18652 45.0438 9.18652 44.7156V25.5267C9.18652 25.1985 9.46672 24.9336 9.81391 24.9336H43.5648C43.912 24.9336 44.1922 25.1985 44.1922 25.5267V44.7156C44.1922 45.0438 43.912 45.3088 43.5648 45.3088ZM10.4413 44.1224H42.9374V26.1199H10.4413V44.1224Z" fill="#000091"/>
<path d="M43.5773 26.1199H9.83246C9.48527 26.1199 9.20508 25.855 9.20508 25.5268V21.0578C9.20508 20.7295 9.48527 20.4646 9.83246 20.4646H43.5834C43.9306 20.4646 44.2108 20.7295 44.2108 21.0578V25.5268C44.2108 25.855 43.9306 26.1199 43.5834 26.1199H43.5773ZM10.4598 24.9393H42.956V21.651H10.4598V24.9393Z" fill="#000091"/>
<path d="M17.6957 25.9644C17.5374 25.9644 17.3729 25.9069 17.2511 25.7917C17.0074 25.5613 17.0074 25.187 17.2511 24.9566L21.6854 20.7641C21.9291 20.5337 22.325 20.5337 22.5686 20.7641C22.8123 20.9945 22.8123 21.3688 22.5686 21.5992L18.1343 25.7917C18.0125 25.9069 17.8541 25.9644 17.6897 25.9644H17.6957Z" fill="#000091"/>
<path d="M31.2182 25.9356C31.0598 25.9356 30.8954 25.878 30.7736 25.7628C30.5299 25.5325 30.5299 25.1581 30.7736 24.9278L35.2688 20.6777C35.5124 20.4473 35.9084 20.4473 36.152 20.6777C36.3957 20.908 36.3957 21.2824 36.152 21.5127L31.6568 25.7628C31.5349 25.878 31.3766 25.9356 31.2121 25.9356H31.2182Z" fill="#000091"/>
<path d="M9.78338 21.3804C9.51537 21.3804 9.26563 21.2134 9.18644 20.96L7.81594 16.6811C7.76721 16.5314 7.78549 16.3701 7.86467 16.2319C7.94386 16.0937 8.07786 15.99 8.23623 15.944L40.5435 6.71811C40.8725 6.62021 41.2257 6.79874 41.3232 7.11548L42.6876 11.3944C42.7364 11.5441 42.7181 11.7054 42.6389 11.8436C42.5597 11.9818 42.4257 12.0855 42.2673 12.1315L9.96611 21.3516C9.9052 21.3689 9.84429 21.3747 9.78338 21.3747V21.3804ZM9.19863 16.8999L10.2037 20.0443L41.311 11.164L40.306 8.01964L9.19863 16.8999Z" fill="#000091"/>
<path d="M17.2632 19.0767C17.1658 19.0767 17.0622 19.0537 16.9709 19.0076C16.6663 18.8521 16.5506 18.4951 16.715 18.2071L19.6814 12.978C19.8459 12.69 20.2235 12.5806 20.5281 12.7361C20.8326 12.8916 20.9484 13.2487 20.7839 13.5366L17.8175 18.7657C17.7018 18.9673 17.4886 19.0767 17.2632 19.0767Z" fill="#000091"/>
<path d="M30.2007 15.3507C30.1033 15.3507 29.9997 15.3276 29.9084 15.2816C29.6038 15.1261 29.4881 14.769 29.6525 14.4811L32.6555 9.18283C32.8199 8.89488 33.1976 8.78546 33.5021 8.94096C33.8067 9.09645 33.9224 9.4535 33.7579 9.74145L30.755 15.0397C30.6393 15.2413 30.4261 15.3507 30.2007 15.3507Z" fill="#000091"/>
<path d="M26.9667 41.577C23.0927 41.577 19.9375 38.5938 19.9375 34.9311C19.9375 31.2684 23.0927 28.2853 26.9667 28.2853C30.8406 28.2853 33.9958 31.2684 33.9958 34.9311C33.9958 38.5938 30.8406 41.577 26.9667 41.577ZM26.9667 29.4659C23.781 29.4659 21.1923 31.9134 21.1923 34.9254C21.1923 37.9373 23.781 40.3848 26.9667 40.3848C30.1523 40.3848 32.741 37.9373 32.741 34.9254C32.741 31.9134 30.1523 29.4659 26.9667 29.4659Z" fill="#6A6AF4"/>
<path d="M25.6874 38.5478C25.59 38.5478 25.4864 38.5247 25.3951 38.4787C25.188 38.375 25.0601 38.1734 25.0601 37.9546V32.3281C25.0601 32.1092 25.188 31.9077 25.3951 31.804C25.6022 31.7004 25.8519 31.7176 26.0407 31.8443L30.3411 34.6547C30.5116 34.7641 30.6091 34.9484 30.6091 35.1385C30.6091 35.3343 30.5055 35.5128 30.3411 35.6222L26.0407 38.4326C25.9311 38.5017 25.8093 38.5362 25.6874 38.5362V38.5478ZM26.3087 33.4626V36.8316L28.8792 35.15L26.3087 33.4684V33.4626Z" fill="#6A6AF4"/>
<path fill-rule="evenodd" clip-rule="evenodd" d="M45.6651 16.5972C45.2647 16.5972 44.939 16.2714 44.939 15.871C44.939 15.4706 45.2647 15.1449 45.6651 15.1449C46.0655 15.1449 46.3913 15.4706 46.3913 15.871C46.3913 16.2714 46.0655 16.5972 45.6651 16.5972Z" fill="#CACAFB"/>
<path fill-rule="evenodd" clip-rule="evenodd" d="M3.69929 39.2739C3.29889 39.2739 2.97314 38.9482 2.97314 38.5478C2.97314 38.1473 3.29889 37.8216 3.69929 37.8216C4.09969 37.8216 4.42544 38.1473 4.42544 38.5478C4.42544 38.9482 4.09969 39.2739 3.69929 39.2739Z" fill="#CACAFB"/>
<path fill-rule="evenodd" clip-rule="evenodd" d="M39.817 16.803C39.4166 16.803 39.0908 16.4772 39.0908 16.0768C39.0908 15.6764 39.4166 15.3507 39.817 15.3507C40.2174 15.3507 40.5431 15.6764 40.5431 16.0768C40.5431 16.4772 40.2174 16.803 39.817 16.803Z" fill="#CACAFB"/>
<path fill-rule="evenodd" clip-rule="evenodd" d="M48.2501 12.1104C47.8497 12.1104 47.5239 11.7847 47.5239 11.3843C47.5239 10.9838 47.8497 10.6581 48.2501 10.6581C48.6505 10.6581 48.9762 10.9838 48.9762 11.3843C48.9762 11.7847 48.6505 12.1104 48.2501 12.1104Z" fill="#CACAFB"/>
</svg>
