<svg width="52" height="52" viewBox="0 0 52 52" fill="none" xmlns="http://www.w3.org/2000/svg">
<path d="M29.4807 38.5122H22.1785C21.8035 38.5122 21.4967 38.2061 21.4967 37.832C21.4967 35.5466 20.5149 33.2951 18.8104 31.6694C16.4104 29.3772 15.299 26.1667 15.7763 22.8541C16.4172 18.3784 20.1603 14.7666 24.6739 14.27C27.6057 13.9503 30.4284 14.8414 32.6102 16.7868C34.7647 18.7117 35.9987 21.4597 35.9987 24.3437C35.9987 27.2278 34.8874 29.7309 32.8692 31.6626C31.1579 33.3019 30.1693 35.5534 30.1693 37.832C30.1693 38.2061 29.8625 38.5122 29.4875 38.5122H29.4807ZM22.833 37.1518H28.8261C29.0034 34.7371 30.1079 32.4109 31.9215 30.6764C33.667 29.0031 34.6283 26.7584 34.6283 24.3437C34.6283 21.929 33.5579 19.4667 31.6965 17.8002C29.8079 16.1134 27.3671 15.3379 24.8239 15.6168C20.9171 16.0453 17.6785 19.1742 17.1263 23.0446C16.7172 25.915 17.6717 28.7038 19.7512 30.6832C21.558 32.404 22.6626 34.7303 22.833 37.145V37.1518Z" fill="#000091"/>
<path d="M25.9013 44.0422C24.2377 44.0422 22.8809 42.6886 22.8809 41.0289V37.9613C22.8809 37.5872 23.1877 37.2811 23.5627 37.2811H28.2467C28.6217 37.2811 28.9285 37.5872 28.9285 37.9613V41.0289C28.9285 42.6886 27.5717 44.0422 25.9081 44.0422H25.9013ZM24.2377 38.6415V41.0289C24.2377 41.9404 24.9808 42.6818 25.8945 42.6818C26.8081 42.6818 27.5512 41.9404 27.5512 41.0289V38.6415H24.2308H24.2377Z" fill="#000091"/>
<path d="M24.7489 30.8668C24.6194 30.8668 24.4967 30.8328 24.3808 30.758C24.0671 30.5539 23.9717 30.1322 24.1762 29.8193L26.8557 25.6769H23.3376C23.0921 25.6769 22.8603 25.5409 22.7444 25.33C22.6217 25.1123 22.6285 24.8471 22.7649 24.643L26.1535 19.2219C26.3512 18.9022 26.7739 18.8069 27.0944 19.0042C27.4148 19.2014 27.5103 19.6232 27.3125 19.9429L24.5717 24.3233H28.1103C28.3625 24.3233 28.5875 24.4594 28.7103 24.677C28.8262 24.8947 28.8193 25.16 28.683 25.3708L25.3217 30.5607C25.1921 30.7648 24.9739 30.8736 24.7489 30.8736V30.8668Z" fill="#6A6AF4"/>
<path d="M23.5692 40.7976H22.0693C21.6943 40.7976 21.3875 40.4916 21.3875 40.1175C21.3875 39.7433 21.6943 39.4373 22.0693 39.4373H23.5692C23.9442 39.4373 24.251 39.7433 24.251 40.1175C24.251 40.4916 23.9442 40.7976 23.5692 40.7976Z" fill="#000091"/>
<path d="M29.7875 40.7976H28.2875C27.9125 40.7976 27.6057 40.4916 27.6057 40.1175C27.6057 39.7433 27.9125 39.4373 28.2875 39.4373H29.7875C30.1625 39.4373 30.4693 39.7433 30.4693 40.1175C30.4693 40.4916 30.1625 40.7976 29.7875 40.7976Z" fill="#000091"/>
<path d="M26.024 12.2022C25.6558 12.2022 25.349 11.903 25.3422 11.5357L25.3013 8.65162C25.3013 8.27752 25.5944 7.96463 25.9694 7.95782H25.9831C26.3513 7.95782 26.6581 8.25711 26.6649 8.62442L26.7058 11.5084C26.7058 11.8826 26.4126 12.1954 26.0376 12.2022H26.024Z" fill="#6A6AF4"/>
<path d="M19.4377 13.9231C19.2059 13.9231 18.9741 13.8007 18.8513 13.5898L17.3855 11.1071C17.1945 10.7806 17.3036 10.3657 17.6241 10.1753C17.9514 9.98481 18.3673 10.0936 18.5582 10.4133L20.0241 12.8961C20.215 13.2225 20.1059 13.6375 19.7854 13.8279C19.6763 13.8891 19.5604 13.9231 19.4377 13.9231Z" fill="#6A6AF4"/>
<path d="M14.5149 18.7661C14.399 18.7661 14.2899 18.7389 14.1808 18.6777L11.6649 17.2629C11.3377 17.0793 11.2217 16.6643 11.4058 16.3378C11.5899 16.0113 12.0058 15.8957 12.3331 16.0794L14.849 17.4942C15.1762 17.6778 15.2921 18.0927 15.1081 18.4192C14.9853 18.6437 14.7535 18.7661 14.5149 18.7661Z" fill="#6A6AF4"/>
<path d="M40.001 33.6012C39.8851 33.6012 39.776 33.574 39.6669 33.5128L37.151 32.098C36.8237 31.9143 36.7078 31.4994 36.8919 31.1729C37.076 30.8464 37.4919 30.7308 37.8192 30.9144L40.3351 32.3292C40.6623 32.5129 40.7782 32.9278 40.5941 33.2543C40.4714 33.4788 40.2396 33.6012 40.001 33.6012Z" fill="#6A6AF4"/>
<path d="M32.6987 14.0047C32.5828 14.0047 32.4737 13.9775 32.3646 13.9163C32.0374 13.7327 31.9215 13.3177 32.1055 12.9912L33.5169 10.4745C33.701 10.148 34.1169 10.0324 34.4441 10.2161C34.7714 10.3997 34.8873 10.8146 34.7032 11.1411L33.2919 13.6578C33.1692 13.8823 32.9373 14.0047 32.6987 14.0047Z" fill="#6A6AF4"/>
<path d="M37.6282 19.011C37.3896 19.011 37.1646 18.8886 37.0351 18.6709C36.8442 18.3444 36.9601 17.9295 37.2805 17.739L39.7828 16.297C40.11 16.1066 40.5259 16.2222 40.7168 16.5419C40.9077 16.8684 40.7918 17.2833 40.4714 17.4738L37.9691 18.9158C37.8601 18.977 37.7441 19.0042 37.6282 19.0042V19.011Z" fill="#6A6AF4"/>
<path d="M11.8763 33.3835C11.6377 33.3835 11.4127 33.2611 11.2831 33.0434C11.0922 32.7169 11.2081 32.302 11.5286 32.1116L14.0308 30.6695C14.3581 30.4791 14.774 30.5947 14.9649 30.9144C15.1558 31.2409 15.0399 31.6558 14.7194 31.8463L12.2172 33.2883C12.1081 33.3495 11.9922 33.3767 11.8763 33.3767V33.3835Z" fill="#6A6AF4"/>
<path d="M39.3056 25.5545C38.9306 25.5545 38.6306 25.2552 38.6238 24.8811C38.6238 24.507 38.9238 24.2009 39.2988 24.1941L42.1896 24.1601H42.1965C42.5714 24.1601 42.8714 24.4594 42.8783 24.8335C42.8783 25.2076 42.5783 25.5137 42.2033 25.5205L39.3124 25.5545H39.3056Z" fill="#6A6AF4"/>
<path d="M9.80363 25.4321C9.42864 25.4321 9.12183 25.1328 9.12183 24.7587C9.12183 24.3846 9.42182 24.0717 9.79682 24.0717L12.6877 24.0377H12.6945C13.0695 24.0377 13.3695 24.3369 13.3763 24.7111C13.3763 25.0852 13.0763 25.398 12.7013 25.398L9.81045 25.4321H9.80363Z" fill="#6A6AF4"/>
<path fill-rule="evenodd" clip-rule="evenodd" d="M8.83091 46.8C8.4725 46.8 8.18091 46.5084 8.18091 46.15C8.18091 45.7916 8.4725 45.5 8.83091 45.5C9.18932 45.5 9.48091 45.7916 9.48091 46.15C9.48091 46.5084 9.18932 46.8 8.83091 46.8Z" fill="#CACAFB"/>
<path fill-rule="evenodd" clip-rule="evenodd" d="M4.2811 9.10002C3.92269 9.10002 3.6311 8.80843 3.6311 8.45002C3.6311 8.09158 3.92269 7.80002 4.2811 7.80002C4.63951 7.80002 4.9311 8.09158 4.9311 8.45002C4.9311 8.80843 4.63951 9.10002 4.2811 9.10002Z" fill="#CACAFB"/>
<path fill-rule="evenodd" clip-rule="evenodd" d="M38.7308 47.45C38.3724 47.45 38.0808 47.1584 38.0808 46.8C38.0808 46.4416 38.3724 46.15 38.7308 46.15C39.0892 46.15 39.3808 46.4416 39.3808 46.8C39.3808 47.1584 39.0892 47.45 38.7308 47.45Z" fill="#CACAFB"/>
<path fill-rule="evenodd" clip-rule="evenodd" d="M41.3309 5.85002C40.9725 5.85002 40.6809 5.55843 40.6809 5.20002C40.6809 4.84158 40.9725 4.55002 41.3309 4.55002C41.6893 4.55002 41.9809 4.84158 41.9809 5.20002C41.9809 5.55843 41.6893 5.85002 41.3309 5.85002Z" fill="#CACAFB"/>
<path fill-rule="evenodd" clip-rule="evenodd" d="M49.1307 33.15C48.7723 33.15 48.4807 32.8584 48.4807 32.5C48.4807 32.1416 48.7723 31.85 49.1307 31.85C49.4891 31.85 49.7807 32.1416 49.7807 32.5C49.7807 32.8584 49.4891 33.15 49.1307 33.15Z" fill="#CACAFB"/>
</svg>
