<svg width="52" height="52" viewBox="0 0 52 52" fill="none" xmlns="http://www.w3.org/2000/svg">
<path d="M26.6828 34.2271C22.5875 34.2271 19.251 30.8656 19.251 26.7259C19.251 22.5863 22.5815 19.2308 26.6828 19.2308C30.7842 19.2308 34.1147 22.5924 34.1147 26.7259C34.1147 30.8595 30.7842 34.2271 26.6828 34.2271ZM26.6828 20.4466C23.25 20.4466 20.4555 23.2671 20.4555 26.7259C20.4555 30.1848 23.25 33.0114 26.6828 33.0114C30.1157 33.0114 32.9102 30.1908 32.9102 26.7259C32.9102 23.261 30.1157 20.4466 26.6828 20.4466Z" fill="#000091"/>
<path d="M26.6831 38.4276C20.2931 38.4276 15.0896 33.1816 15.0896 26.726C15.0896 20.2703 20.2931 15.0304 26.6831 15.0304C33.073 15.0304 38.2765 20.2764 38.2765 26.732C38.2765 33.1877 33.079 38.4337 26.6831 38.4337V38.4276ZM26.6831 16.2462C20.9556 16.2462 16.2941 20.9511 16.2941 26.732C16.2941 32.513 20.9556 37.2179 26.6831 37.2179C32.4105 37.2179 37.072 32.513 37.072 26.732C37.072 20.9511 32.4105 16.2462 26.6831 16.2462Z" fill="#000091"/>
<path d="M11.0848 37.7468C10.0971 37.7468 9.29614 36.9383 9.29614 35.9414V23.024C7.94106 22.3431 7.06177 20.9329 7.06177 19.3889V14.1793C7.06177 13.845 7.33278 13.5715 7.66403 13.5715C7.99527 13.5715 8.26628 13.845 8.26628 14.1793V19.3949C8.26628 20.5742 9.00706 21.6502 10.1092 22.0574C10.3441 22.1486 10.5007 22.3735 10.5007 22.6289V35.9414C10.5007 36.2696 10.7657 36.531 11.0848 36.531C11.404 36.531 11.669 36.2696 11.669 35.9414V22.6289C11.669 22.3735 11.8256 22.1486 12.0605 22.0574C13.1626 21.6441 13.9034 20.5742 13.9034 19.3949V14.1793C13.9034 13.845 14.1744 13.5715 14.5057 13.5715C14.8369 13.5715 15.1079 13.845 15.1079 14.1793V19.3949C15.1079 20.939 14.2226 22.3492 12.8736 23.0301V35.9475C12.8736 36.9444 12.0726 37.7528 11.0848 37.7528V37.7468Z" fill="#000091"/>
<path d="M9.89816 19.2126C9.56691 19.2126 9.2959 18.939 9.2959 18.6047V14.3617C9.2959 14.0274 9.56691 13.7538 9.89816 13.7538C10.2294 13.7538 10.5004 14.0274 10.5004 14.3617V18.6047C10.5004 18.939 10.2294 19.2126 9.89816 19.2126Z" fill="#000091"/>
<path d="M12.271 19.2126C11.9397 19.2126 11.6687 18.939 11.6687 18.6047V14.3617C11.6687 14.0274 11.9397 13.7538 12.271 13.7538C12.6022 13.7538 12.8732 14.0274 12.8732 14.3617V18.6047C12.8732 18.939 12.6022 19.2126 12.271 19.2126Z" fill="#000091"/>
<path d="M42.1732 38.0872C41.1855 38.0872 40.3845 37.2787 40.3845 36.2818V28.118C40.3845 27.7836 40.6555 27.5101 40.9868 27.5101C41.318 27.5101 41.589 27.7836 41.589 28.118V36.2818C41.589 36.61 41.848 36.8714 42.1732 36.8714C42.4984 36.8714 42.7574 36.61 42.7574 36.2818V28.1848C42.7574 27.8505 43.0284 27.577 43.3597 27.577C43.6909 27.577 43.9619 27.8505 43.9619 28.1848V36.2818C43.9619 37.2787 43.1609 38.0872 42.1732 38.0872Z" fill="#000091"/>
<path d="M42.9499 28.659H40.2337C40.0711 28.659 39.9085 28.5921 39.8001 28.4705C39.6857 28.349 39.6255 28.1848 39.6375 28.0207C39.6435 27.8627 39.8423 24.112 41.0649 20.1001C42.2995 16.0516 43.8111 14.076 43.8714 13.997C44.028 13.7903 44.299 13.7113 44.5399 13.7964C44.7808 13.8815 44.9434 14.1125 44.9434 14.3738V26.653C44.9434 27.7593 44.0521 28.6651 42.9499 28.6651V28.659ZM40.8782 27.4432H42.9499C43.3835 27.4432 43.7389 27.0846 43.7389 26.6469V16.5744C43.2691 17.5044 42.715 18.7992 42.2091 20.4587C41.3178 23.3765 40.9926 26.2153 40.8842 27.4432H40.8782Z" fill="#000091"/>
<path fill-rule="evenodd" clip-rule="evenodd" d="M40.45 48.05C40.0916 48.05 39.8 47.7584 39.8 47.4C39.8 47.0416 40.0916 46.75 40.45 46.75C40.8085 46.75 41.1 47.0416 41.1 47.4C41.1 47.7584 40.8085 48.05 40.45 48.05Z" fill="#CACAFB"/>
<path fill-rule="evenodd" clip-rule="evenodd" d="M43.0499 11.25C42.6915 11.25 42.3999 10.9584 42.3999 10.6C42.3999 10.2416 42.6915 9.95001 43.0499 9.95001C43.4083 9.95001 43.6999 10.2416 43.6999 10.6C43.6999 10.9584 43.4083 11.25 43.0499 11.25Z" fill="#CACAFB"/>
<path fill-rule="evenodd" clip-rule="evenodd" d="M7.69858 12.55C7.34017 12.55 7.04858 12.2584 7.04858 11.9C7.04858 11.5416 7.34017 11.25 7.69858 11.25C8.05699 11.25 8.34858 11.5416 8.34858 11.9C8.34858 12.2584 8.05699 12.55 7.69858 12.55Z" fill="#CACAFB"/>
<path fill-rule="evenodd" clip-rule="evenodd" d="M20.95 48.05C20.5916 48.05 20.3 47.7584 20.3 47.4C20.3 47.0416 20.5916 46.75 20.95 46.75C21.3085 46.75 21.6 47.0416 21.6 47.4C21.6 47.7584 21.3085 48.05 20.95 48.05Z" fill="#CACAFB"/>
</svg>
