<svg width="52" height="52" viewBox="0 0 52 52" fill="none" xmlns="http://www.w3.org/2000/svg">
<path fill-rule="evenodd" clip-rule="evenodd" d="M8.83091 46.8C8.4725 46.8 8.18091 46.5084 8.18091 46.15C8.18091 45.7916 8.4725 45.5 8.83091 45.5C9.18932 45.5 9.48091 45.7916 9.48091 46.15C9.48091 46.5084 9.18932 46.8 8.83091 46.8Z" fill="#CACAFB"/>
<path fill-rule="evenodd" clip-rule="evenodd" d="M4.2811 9.10002C3.92269 9.10002 3.6311 8.80843 3.6311 8.45002C3.6311 8.09158 3.92269 7.80002 4.2811 7.80002C4.63951 7.80002 4.9311 8.09158 4.9311 8.45002C4.9311 8.80843 4.63951 9.10002 4.2811 9.10002Z" fill="#CACAFB"/>
<path fill-rule="evenodd" clip-rule="evenodd" d="M38.7308 47.45C38.3724 47.45 38.0808 47.1584 38.0808 46.8C38.0808 46.4416 38.3724 46.15 38.7308 46.15C39.0892 46.15 39.3808 46.4416 39.3808 46.8C39.3808 47.1584 39.0892 47.45 38.7308 47.45Z" fill="#CACAFB"/>
<path fill-rule="evenodd" clip-rule="evenodd" d="M41.3309 5.85002C40.9725 5.85002 40.6809 5.55843 40.6809 5.20002C40.6809 4.84158 40.9725 4.55002 41.3309 4.55002C41.6893 4.55002 41.9809 4.84158 41.9809 5.20002C41.9809 5.55843 41.6893 5.85002 41.3309 5.85002Z" fill="#CACAFB"/>
<path fill-rule="evenodd" clip-rule="evenodd" d="M49.1307 33.15C48.7723 33.15 48.4807 32.8584 48.4807 32.5C48.4807 32.1416 48.7723 31.85 49.1307 31.85C49.4891 31.85 49.7807 32.1416 49.7807 32.5C49.7807 32.8584 49.4891 33.15 49.1307 33.15Z" fill="#CACAFB"/>
<path d="M39.5698 30.4817C39.4189 30.4817 39.268 30.4251 39.1486 30.3182C38.9851 30.1736 38.9159 29.9536 38.9537 29.7398L39.0354 29.2934L36.1998 28.6144C35.9608 28.5578 35.7785 28.3629 35.7282 28.1239L35.6276 27.6021L34.7914 27.8913C34.6153 27.9542 34.4204 27.929 34.2569 27.8347C34.0998 27.7341 33.9866 27.5706 33.9614 27.3883L33.8671 26.7218L33.0246 28.0233C32.8423 28.3063 32.465 28.3943 32.1758 28.2182L24.2914 23.4712C24.1216 23.3706 24.0147 23.1946 23.9896 22.9997L23.4677 18.2967C23.4363 18.0389 23.5683 17.7937 23.7947 17.6742L29.4911 14.6374C29.5477 14.606 29.6043 14.5871 29.6608 14.5745L33.6974 13.7697C33.8294 13.7446 33.9677 13.7635 34.0935 13.82L41.2171 17.2404C41.3869 17.3221 41.5126 17.4793 41.5566 17.6617L42.9336 23.4587C42.9336 23.4587 42.9462 23.5215 42.9462 23.553L43.3737 28.9224C43.3989 29.2242 43.204 29.4946 42.921 29.5763L39.7396 30.4754C39.683 30.4943 39.6264 30.5006 39.5698 30.5006V30.4817ZM36.8788 27.4826L39.8968 28.2057C40.2174 28.2811 40.4249 28.6018 40.3683 28.9287V28.9727L42.0785 28.4823L41.695 23.6787L40.3998 18.2212L33.7351 15.0209L29.9941 15.7691L24.7504 18.5671L25.1905 22.5344L32.289 26.8099L33.7162 24.6156C33.8608 24.3955 34.1249 24.2886 34.3764 24.3452C34.6342 24.4018 34.8291 24.6093 34.8605 24.867L35.0869 26.4389L35.8854 26.1623C36.0552 26.0994 36.2438 26.1182 36.4072 26.2126C36.5644 26.3069 36.6776 26.4578 36.709 26.6401L36.8725 27.4763L36.8788 27.4826Z" fill="#000091"/>
<path d="M40.0603 35.2036C39.7208 35.2036 39.4379 34.9332 39.4316 34.5874L39.3373 29.8341C39.331 29.4883 39.6076 29.1991 39.9534 29.1928C40.2992 29.2054 40.5885 29.4632 40.5947 29.809L40.6765 33.9335L42.0094 33.9084L41.695 29.3626C41.6699 29.0168 41.934 28.715 42.2798 28.6898C42.6193 28.671 42.9274 28.9287 42.9525 29.2745L43.3172 34.4805C43.3298 34.6503 43.2669 34.8201 43.1537 34.9521C43.0406 35.0841 42.8771 35.1533 42.701 35.1533L40.0792 35.2036H40.0666H40.0603Z" fill="#000091"/>
<path d="M42.1478 39.9129C42.1478 39.9129 42.1352 39.9129 42.1289 39.9129L40.5759 39.8626C40.2427 39.85 39.9786 39.5859 39.9661 39.2527L39.8215 34.644C39.8089 34.2982 40.0855 34.009 40.4313 33.9964C40.7709 33.9712 41.0664 34.2605 41.0789 34.6063L41.2047 38.6239L41.5442 38.6365L41.714 34.6503C41.7265 34.3045 42.0409 34.0215 42.3679 34.0467C42.7137 34.0593 42.984 34.3548 42.9715 34.7006L42.7765 39.3093C42.764 39.6488 42.4873 39.9129 42.1478 39.9129Z" fill="#000091"/>
<path d="M40.1672 43.0377C40.1169 43.0377 40.0603 43.0314 40.01 43.0188C39.8025 42.9622 39.6328 42.8051 39.5699 42.5976L39.0354 40.9063C38.9726 40.7113 39.0103 40.5039 39.1298 40.3404L40.2426 38.844C40.4501 38.5673 40.8462 38.5107 41.1229 38.7119C41.2298 38.7937 41.3052 38.9006 41.3429 39.02C41.4561 38.7622 41.739 38.6113 42.022 38.6554C42.3615 38.7119 42.5941 39.0389 42.5375 39.3847L42.2295 41.1703C42.2043 41.3024 42.1414 41.4281 42.0408 41.5224L40.601 42.8679C40.4816 42.9748 40.3307 43.0377 40.1735 43.0377H40.1672ZM40.3244 40.8371L40.4627 41.2709L41.0223 40.7491L41.2109 39.6425L40.3244 40.8371Z" fill="#000091"/>
<path d="M39.9159 42.8239C39.853 42.8239 39.7901 42.8176 39.7272 42.7925L37.6147 42.1197C37.3569 42.038 37.1808 41.7991 37.1746 41.535L37.1368 39.5607C37.1305 39.2275 37.3883 38.9446 37.7216 38.9194L39.0293 38.8251C39.3123 38.8 39.5764 38.976 39.6707 39.2464L40.1674 40.6673C40.2805 40.9943 40.1108 41.3527 39.7838 41.4721C39.7713 41.4721 39.7524 41.4847 39.7398 41.4847L40.1108 41.6041C40.444 41.711 40.6263 42.0631 40.5195 42.3964C40.4314 42.6604 40.1862 42.8365 39.9222 42.8365L39.9159 42.8239ZM38.4258 41.0634L39.0859 41.2709C39.0419 41.2143 39.0042 41.1515 38.979 41.0823L38.6395 40.114L38.4069 40.1329L38.4258 41.0634Z" fill="#000091"/>
<path d="M30.3212 37.1087C30.3212 37.1087 30.2772 37.1087 30.2521 37.1087L26.0269 36.6434C25.7377 36.612 25.5051 36.3793 25.4736 36.0901L25.0587 32.3742L23.5811 29.5197C23.4239 29.2117 23.5434 28.8344 23.8515 28.6709C24.1596 28.5138 24.5368 28.6332 24.7003 28.9413L26.2281 31.9027C26.2658 31.9718 26.2847 32.0473 26.2973 32.1227L26.6682 35.4551L29.8182 35.8009L30.5916 31.7392L30.5539 29.2305C30.5539 28.8847 30.8242 28.5955 31.17 28.5892C31.5284 28.5892 31.8051 28.8596 31.8113 29.2054L31.8491 31.7769C31.8491 31.8209 31.8491 31.8649 31.8365 31.9027L30.9437 36.5994C30.8871 36.9012 30.623 37.1087 30.3275 37.1087H30.3212Z" fill="#000091"/>
<path d="M28.8876 41.3338C28.8499 41.3338 28.8059 41.3338 28.7682 41.3212L25.5805 40.7114C25.2472 40.6485 25.0272 40.3341 25.0775 40.0009L25.6496 36.241C25.6999 35.8952 26.0206 35.6626 26.3664 35.7129C26.7122 35.7632 26.9448 36.0838 26.8945 36.4296L26.4104 39.5922L28.4098 39.9757L29.2397 36.4108C29.3152 36.0712 29.6547 35.8575 29.9942 35.9392C30.3337 36.0146 30.5412 36.3542 30.4658 36.6937L29.4975 40.8497C29.4284 41.1389 29.1706 41.3338 28.8876 41.3338Z" fill="#000091"/>
<path d="M24.9139 44.5215C24.7253 44.5215 24.5492 44.4398 24.4298 44.2952C24.3103 44.1506 24.26 43.9557 24.2977 43.767L25.0836 39.9694C25.1528 39.6299 25.486 39.4099 25.8256 39.479C26.1651 39.5482 26.3851 39.8814 26.316 40.2209L25.6872 43.2515L27.6992 43.2137C27.6866 43.1572 27.6866 43.1006 27.6992 43.0377L27.9507 40.6736C27.9884 40.3278 28.2965 40.0763 28.6423 40.114C28.9881 40.1518 29.2396 40.4599 29.2019 40.8057L28.9881 42.8176L29.642 43.3143C29.8558 43.4778 29.9438 43.7545 29.8621 44.0122C29.7804 44.27 29.5414 44.4398 29.2774 44.4461L24.939 44.5278H24.9265L24.9139 44.5215Z" fill="#000091"/>
<path d="M31.1071 31.4122C30.9436 31.4122 31.0002 31.5883 30.8744 31.4688C30.6292 31.2236 30.7235 30.2554 30.6606 30.3434L33.71 27.294C33.9553 27.0488 34.3514 27.0488 34.5966 27.294C34.8418 27.5392 34.8418 27.9353 34.5966 28.1805L31.5472 31.2299C31.4214 31.3557 31.2642 31.4122 31.1008 31.4122H31.1071Z" fill="#000091"/>
<path d="M26.3725 16.75C26.0833 16.75 25.8255 16.5488 25.7564 16.2596C25.6809 15.9201 25.8947 15.5868 26.2342 15.5114L27.8941 15.1404C28.2336 15.065 28.5668 15.2787 28.6423 15.6183C28.7177 15.9578 28.504 16.291 28.1644 16.3665L26.5046 16.7374C26.4605 16.75 26.4102 16.75 26.3662 16.75H26.3725Z" fill="#000091"/>
<path d="M14.1875 39.6362C14.1875 39.6362 14.1498 39.6362 14.1247 39.6362L10.1196 39.2527C9.83664 39.2275 9.61029 39.0137 9.55999 38.7308L8.74263 33.9084L6.14592 26.1748C6.09562 26.0302 6.10191 25.8793 6.1585 25.741L8.92496 18.8437C8.98784 18.6865 9.11359 18.5608 9.27077 18.4979L13.1375 16.9009C13.4582 16.7688 13.8292 16.9197 13.9612 17.2404C14.0932 17.5611 13.9423 17.9257 13.6217 18.0641L10.0001 19.5605L7.42227 25.9988L9.96239 33.5625C9.96239 33.5625 9.98125 33.6254 9.98754 33.6569L10.7295 38.0518L13.5148 38.3221L13.2696 34.7006C13.257 34.5119 13.3262 34.3296 13.4645 34.2039C13.6028 34.0781 13.7914 34.0152 13.9738 34.0341L19.5256 34.7069L25.1717 33.506C25.5112 33.4305 25.8444 33.6506 25.9199 33.9901C25.9953 34.3296 25.7753 34.6628 25.4357 34.7383L19.689 35.9581C19.6199 35.9706 19.5507 35.9769 19.4815 35.9643L14.5774 35.3733L14.8226 38.976C14.8351 39.1584 14.766 39.3407 14.6339 39.4727C14.5145 39.5859 14.3573 39.6488 14.1938 39.6488L14.1875 39.6362Z" fill="#000091"/>
<path d="M14.7597 44.597H14.7534L10.7923 44.5467C10.6226 44.5467 10.4591 44.4712 10.3459 44.3518C10.2265 44.2323 10.1636 44.0626 10.1699 43.8991L10.2327 42.1575C10.2453 41.8117 10.5282 41.5224 10.8803 41.5539C11.2262 41.5665 11.4965 41.8557 11.4839 42.2015L11.4462 43.3018L13.3764 43.3269C13.3387 43.2515 13.3136 43.1635 13.3136 43.0754L13.257 41.8682C13.2381 41.5224 13.5085 41.2269 13.8543 41.2081C14.1938 41.1829 14.4956 41.4596 14.5145 41.8054L14.5648 42.7925L15.2375 43.5533C15.401 43.7419 15.4387 44.006 15.3381 44.2323C15.2375 44.4587 15.0112 44.597 14.766 44.597H14.7597Z" fill="#000091"/>
<path d="M32.4713 37.5362C32.2575 37.5362 32.05 37.423 31.9306 37.2344L30.2644 34.4742C30.0821 34.1787 30.1827 33.7889 30.4782 33.6129C30.7737 33.4305 31.1635 33.5311 31.3396 33.8266L32.7417 36.1467L35.527 35.147L33.3264 28.0862C33.2258 27.753 33.4081 27.4009 33.7414 27.3003C34.0746 27.1997 34.4267 27.382 34.5273 27.7153L36.9102 35.3482C37.0108 35.6689 36.8411 36.0147 36.5204 36.1278L32.6788 37.5048C32.6096 37.5299 32.5405 37.5425 32.465 37.5425L32.4713 37.5362Z" fill="#000091"/>
<path d="M32.5909 40.7617C32.4211 40.7617 32.264 40.6925 32.1445 40.5793C32.025 40.4599 31.9622 40.2964 31.9622 40.1266L31.9999 36.7503C31.9999 36.4045 32.2828 36.1278 32.6286 36.1278L36.3634 36.109C36.552 36.0901 36.6966 36.1781 36.8098 36.2913C36.9292 36.4108 36.9921 36.5742 36.9921 36.744L36.9544 40.1203C36.9544 40.4662 36.6714 40.7428 36.3256 40.7428L32.5909 40.7617ZM33.2511 37.379L33.2259 39.4979L35.7032 39.4853L35.7283 37.3665L33.2511 37.379Z" fill="#000091"/>
<path d="M32.6914 44.4084C32.5342 44.4084 32.377 44.3518 32.2638 44.2386C32.1255 44.1129 32.0501 43.9242 32.0626 43.7419L32.2827 40.3027C32.3078 39.9569 32.6034 39.6991 32.9492 39.718C33.295 39.7431 33.559 40.0386 33.5402 40.3844L33.3704 43.0566L35.4013 42.7799L35.439 40.6925C35.439 40.3467 35.7093 40.0826 36.0803 40.0763C36.4261 40.0763 36.7028 40.3656 36.6965 40.7177L36.6713 42.3021L37.6522 42.5159C37.9477 42.5787 38.1551 42.8491 38.1426 43.1572C38.13 43.459 37.9036 43.7105 37.5956 43.7545L32.7794 44.4084C32.7794 44.4084 32.7228 44.4084 32.6977 44.4084H32.6914Z" fill="#000091"/>
<path d="M14.3573 42.1889H10.4654C10.1384 42.1889 9.86805 41.9437 9.83661 41.623L9.55368 38.6868C9.52224 38.341 9.77374 38.0329 10.1195 38.0015C10.4716 37.9575 10.7734 38.2215 10.8049 38.5673L11.0312 40.9314H13.6782L13.5525 39.0578C13.5273 38.712 13.7914 38.4102 14.1372 38.385C14.4893 38.3724 14.7848 38.6239 14.8037 38.9697L14.9734 41.5161C14.986 41.6922 14.9231 41.862 14.8037 41.9877C14.6842 42.1134 14.5207 42.1889 14.3447 42.1889H14.3573Z" fill="#000091"/>
<path d="M9.78644 36.656C9.72985 36.656 9.66698 36.6497 9.61039 36.6308L6.5044 35.7254C6.18375 35.6311 5.99512 35.3104 6.06428 34.9835L7.30291 29.4569C7.37836 29.1173 7.71788 28.9036 8.05111 28.979C8.39063 29.0545 8.6044 29.394 8.52895 29.7272L7.41608 34.6817L9.94991 35.4173C10.2831 35.5116 10.4781 35.8637 10.3775 36.197C10.2957 36.4736 10.0442 36.6497 9.77386 36.6497L9.78644 36.656Z" fill="#000091"/>
<path d="M8.66091 40.6045C8.61061 40.6045 8.56031 40.6045 8.51001 40.5856L5.35372 39.7934C5.17767 39.7494 5.03306 39.6362 4.95133 39.4727C4.86959 39.3156 4.85702 39.1269 4.91989 38.9572L6.27169 35.4048C6.39743 35.0778 6.75582 34.9144 7.08276 35.0401C7.40971 35.1659 7.57318 35.5242 7.44743 35.8512L6.34714 38.7434L8.27109 39.2212L9.15133 36.8194C9.27079 36.4925 9.63546 36.329 9.95612 36.4422C10.2831 36.5617 10.4528 36.92 10.3334 37.247L9.25821 40.1832C9.1639 40.4347 8.92498 40.5982 8.66719 40.5982L8.66091 40.6045Z" fill="#000091"/>
<path d="M6.68662 43.4275C6.52944 43.4275 6.37854 43.3709 6.25908 43.2578L3.83213 41.0006C3.58064 40.7616 3.56178 40.3718 3.79441 40.114L5.03303 38.7622C5.26567 38.5045 5.66806 38.4919 5.91956 38.7245C6.17734 38.9572 6.18992 39.3595 5.95728 39.611L5.13992 40.5039L6.10818 41.403C6.14591 41.3212 6.20249 41.2458 6.27165 41.1892L8.2459 39.4979C8.50998 39.2715 8.90608 39.303 9.13243 39.567C9.35878 39.8311 9.32734 40.2272 9.06327 40.4536L7.30908 41.9563V42.7925C7.30908 43.044 7.15818 43.2703 6.93183 43.3709C6.8501 43.4086 6.76836 43.4212 6.68034 43.4212L6.68662 43.4275Z" fill="#000091"/>
<path d="M34.7098 22.2704C34.6721 22.2704 34.6406 22.2704 34.6029 22.2641C34.2634 22.2075 34.0308 21.8805 34.0873 21.541L34.5652 18.7494C34.6155 18.4476 34.8796 18.2275 35.1876 18.2275H38.696C39.0418 18.2275 39.3248 18.5105 39.3248 18.8563C39.3248 19.2021 39.0418 19.485 38.696 19.485H35.7221L35.3322 21.7548C35.2819 22.0629 35.0116 22.2766 34.7161 22.2766L34.7098 22.2704Z" fill="#000091"/>
<path d="M38.935 22.8299C38.6773 22.8299 38.432 22.6728 38.344 22.415L37.9479 21.3021C37.8285 20.9751 38.0045 20.6168 38.3314 20.4973C38.6584 20.3778 39.0168 20.5476 39.1362 20.8808L39.5323 21.9937C39.6518 22.3207 39.4758 22.679 39.1488 22.7985C39.0796 22.8236 39.0105 22.8362 38.935 22.8362V22.8299Z" fill="#000091"/>
<path d="M26.1084 27.9227H8.97518C8.62937 27.9227 8.34644 27.6398 8.34644 27.294V24.4206C8.34644 24.0748 8.62937 23.7919 8.97518 23.7919H26.1147C26.4605 23.7919 26.7434 24.0748 26.7434 24.4206V27.294C26.7434 27.6398 26.4605 27.9227 26.1147 27.9227H26.1084ZM9.60392 26.6653H25.4859V25.0494H9.60392V26.6653Z" fill="#6A6AF4"/>
<path d="M25.5175 17.8817L8.93123 17.9572C8.58542 17.9572 8.30249 17.6742 8.30249 17.3284V15.2662C8.30249 14.9204 8.58542 14.6374 8.93123 14.6374H26.0707C26.4166 14.6374 26.6995 14.9204 26.6995 15.2662V17.3284C26.6995 17.6742 25.8695 17.8817 25.5237 17.8817H25.5175ZM9.55997 16.6997H25.442V15.8949H9.55997V16.6997Z" fill="#6A6AF4"/>
<path d="M6.56722 8.0985C6.22141 8.0985 5.93848 7.81556 5.93848 7.46976C5.93848 7.12395 6.21512 6.84101 6.56722 6.84101L28.4223 6.75299C28.7681 6.75299 29.051 7.03592 29.051 7.38173C29.051 7.72754 28.7744 8.01047 28.4223 8.01047L6.56722 8.0985Z" fill="#6A6AF4"/>
<path d="M16.1429 25.0243H12.2699C11.924 25.0243 11.6411 24.7413 11.6411 24.3955V20.4156C11.6411 20.0698 11.924 19.7868 12.2699 19.7868H16.1429C16.4887 19.7868 16.7716 20.0698 16.7716 20.4156V24.3955C16.7716 24.7413 16.4887 25.0243 16.1429 25.0243ZM12.8923 23.7668H15.5079V21.0443H12.8923V23.7668Z" fill="#6A6AF4"/>
<path d="M16.0862 20.8871C15.8661 20.8871 15.6586 20.774 15.5392 20.5728L14.1559 18.1772L12.8733 20.4973C12.7035 20.7991 12.32 20.9123 12.0182 20.7425C11.7164 20.5728 11.6032 20.1892 11.773 19.8874L13.5901 16.5928C13.6969 16.3916 13.9107 16.2722 14.1371 16.2659C14.3697 16.2847 14.5772 16.3853 14.6904 16.5802L16.6269 19.9377C16.8029 20.2395 16.696 20.6231 16.3943 20.7991C16.2937 20.8557 16.1868 20.8808 16.0799 20.8808L16.0862 20.8871Z" fill="#6A6AF4"/>
<path d="M22.732 25.0243H18.859C18.5132 25.0243 18.2302 24.7413 18.2302 24.3955V20.4156C18.2302 20.0698 18.5132 19.7868 18.859 19.7868H22.732C23.0778 19.7868 23.3608 20.0698 23.3608 20.4156V24.3955C23.3608 24.7413 23.0778 25.0243 22.732 25.0243ZM19.4877 23.7668H22.1033V21.0443H19.4877V23.7668Z" fill="#6A6AF4"/>
<path d="M22.6064 20.8871C22.3864 20.8871 22.1789 20.774 22.0594 20.5728L20.6762 18.1772L19.3936 20.4973C19.2238 20.7991 18.8466 20.9123 18.5385 20.7425C18.2367 20.5728 18.1235 20.1892 18.2933 19.8874L20.1103 16.5928C20.2172 16.3916 20.431 16.2722 20.6573 16.2659C20.8837 16.2659 21.0912 16.3853 21.2043 16.5802L23.1409 19.9377C23.3169 20.2395 23.21 20.6231 22.9082 20.7991C22.8076 20.8557 22.7007 20.8808 22.5939 20.8808L22.6064 20.8871Z" fill="#6A6AF4"/>
<path d="M10.327 15.4045C9.98118 15.4045 9.69824 15.1216 9.69824 14.7757V7.57036C9.69824 7.22455 9.98118 6.94162 10.327 6.94162C10.6728 6.94162 10.9557 7.22455 10.9557 7.57036V14.782C10.9557 15.1278 10.6728 15.4108 10.327 15.4108V15.4045Z" fill="#6A6AF4"/>
<path d="M24.7506 15.4045C24.4048 15.4045 24.1218 15.1216 24.1218 14.7757V7.57036C24.1218 7.22455 24.4048 6.94162 24.7506 6.94162C25.0964 6.94162 25.3793 7.22455 25.3793 7.57036V14.782C25.3793 15.1278 25.0964 15.4108 24.7506 15.4108V15.4045Z" fill="#6A6AF4"/>
<path d="M38.7649 35.9769C38.5134 35.9769 38.2745 35.8198 38.1739 35.5683L37.1742 32.9212C37.1553 32.8772 37.1427 32.8269 37.1365 32.7829L36.5643 28.4949C36.5203 28.1491 36.7592 27.8347 37.105 27.7907C37.4508 27.7467 37.7652 27.9856 37.8092 28.3314L38.3688 32.5503L39.3433 35.1281C39.4691 35.4551 39.3056 35.8135 38.9787 35.9392C38.9032 35.9644 38.8278 35.9769 38.7586 35.9769H38.7649Z" fill="#000091"/>
<path d="M44.9834 34.6943C44.7885 34.6943 44.5999 34.6063 44.4741 34.4365L43.2607 32.7955C43.2167 32.7389 43.1852 32.6697 43.1601 32.6006L42.1415 29.1299C42.0409 28.7967 42.2358 28.4446 42.5691 28.3503C42.9023 28.2497 43.2544 28.4446 43.3487 28.7778L44.3358 32.1416L45.4864 33.6946C45.6939 33.9712 45.631 34.3673 45.3544 34.5748C45.2412 34.6566 45.1092 34.7006 44.9834 34.7006V34.6943Z" fill="#000091"/>
</svg>
