<svg width="52" height="52" viewBox="0 0 52 52" fill="none" xmlns="http://www.w3.org/2000/svg">
<path fill-rule="evenodd" clip-rule="evenodd" d="M34.45 50.05C34.0916 50.05 33.8 49.7584 33.8 49.4C33.8 49.0416 34.0916 48.75 34.45 48.75C34.8085 48.75 35.1 49.0416 35.1 49.4C35.1 49.7584 34.8085 50.05 34.45 50.05Z" fill="#CACAFB"/>
<path fill-rule="evenodd" clip-rule="evenodd" d="M37.0499 3.25001C36.6915 3.25001 36.3999 2.95842 36.3999 2.60001C36.3999 2.24157 36.6915 1.95001 37.0499 1.95001C37.4083 1.95001 37.6999 2.24157 37.6999 2.60001C37.6999 2.95842 37.4083 3.25001 37.0499 3.25001Z" fill="#CACAFB"/>
<path fill-rule="evenodd" clip-rule="evenodd" d="M14.95 50.05C14.5916 50.05 14.3 49.7584 14.3 49.4C14.3 49.0416 14.5916 48.75 14.95 48.75C15.3085 48.75 15.6 49.0416 15.6 49.4C15.6 49.7584 15.3085 50.05 14.95 50.05Z" fill="#CACAFB"/>
<path d="M18.1999 11.05C18.1999 11.409 17.9089 11.7 17.5499 11.7C17.2166 11.7 16.9418 11.4491 16.9043 11.1258L16.8999 11.05V9.75001C16.8999 9.39102 17.1909 9.10001 17.5499 9.10001C17.8832 9.10001 18.158 9.35093 18.1955 9.6742L18.1999 9.75001V11.05Z" fill="#6A6AF4"/>
<path fill-rule="evenodd" clip-rule="evenodd" d="M15.5999 16.25C15.5999 15.1731 16.4729 14.3 17.5499 14.3C18.6269 14.3 19.4999 15.1731 19.4999 16.25C19.4999 17.327 18.6269 18.2 17.5499 18.2C16.4729 18.2 15.5999 17.327 15.5999 16.25ZM18.1999 16.25C18.1999 15.891 17.9089 15.6 17.5499 15.6C17.1909 15.6 16.8999 15.891 16.8999 16.25C16.8999 16.609 17.1909 16.9 17.5499 16.9C17.9089 16.9 18.1999 16.609 18.1999 16.25Z" fill="#6A6AF4"/>
<path d="M12.3499 15.6C12.7089 15.6 12.9999 15.891 12.9999 16.25C12.9999 16.5833 12.749 16.8581 12.4257 16.8956L12.3499 16.9H11.0499C10.6909 16.9 10.3999 16.609 10.3999 16.25C10.3999 15.9167 10.6508 15.6419 10.9741 15.6044L11.0499 15.6H12.3499Z" fill="#6A6AF4"/>
<path d="M24.6999 16.25C24.6999 15.891 24.4089 15.6 24.0499 15.6H22.7499L22.6741 15.6044C22.3508 15.6419 22.0999 15.9167 22.0999 16.25C22.0999 16.609 22.3909 16.9 22.7499 16.9H24.0499L24.1257 16.8956C24.449 16.8581 24.6999 16.5833 24.6999 16.25Z" fill="#6A6AF4"/>
<path d="M17.5499 23.4C17.9089 23.4 18.1999 23.109 18.1999 22.75V21.45L18.1955 21.3742C18.158 21.0509 17.8832 20.8 17.5499 20.8C17.1909 20.8 16.8999 21.091 16.8999 21.45V22.75L16.9043 22.8258C16.9418 23.1491 17.2166 23.4 17.5499 23.4Z" fill="#6A6AF4"/>
<path d="M14.3326 12.1134C14.5864 12.3673 14.5864 12.7788 14.3326 13.0327C14.0969 13.2684 13.7252 13.2852 13.47 13.0832L13.4133 13.0327L12.4941 12.1134C12.2402 11.8596 12.2402 11.448 12.4941 11.1942C12.7298 10.9585 13.1015 10.9416 13.3566 11.1437L13.4133 11.1942L14.3326 12.1134Z" fill="#6A6AF4"/>
<path d="M22.6057 21.3058C22.8596 21.052 22.8596 20.6404 22.6057 20.3866L21.6865 19.4673L21.6298 19.4168C21.3746 19.2148 21.0029 19.2316 20.7672 19.4673C20.5134 19.7212 20.5134 20.1327 20.7672 20.3866L21.6865 21.3058L21.7432 21.3563C21.9983 21.5584 22.37 21.5415 22.6057 21.3058Z" fill="#6A6AF4"/>
<path d="M21.6865 13.0327C21.4326 13.2865 21.0211 13.2865 20.7672 13.0327C20.5315 12.797 20.5147 12.4253 20.7167 12.1701L20.7672 12.1134L21.6865 11.1942C21.9403 10.9404 22.3519 10.9404 22.6057 11.1942C22.8414 11.4299 22.8583 11.8016 22.6562 12.0567L22.6057 12.1134L21.6865 13.0327Z" fill="#6A6AF4"/>
<path d="M12.4941 21.3058C12.7479 21.5597 13.1595 21.5597 13.4133 21.3058L14.3326 20.3866L14.3831 20.3299C14.5851 20.0747 14.5683 19.7031 14.3326 19.4673C14.0787 19.2135 13.6672 19.2135 13.4133 19.4673L12.4941 20.3866L12.4436 20.4433C12.2415 20.6984 12.2584 21.0701 12.4941 21.3058Z" fill="#6A6AF4"/>
<path d="M30.387 15.8192C30.1167 15.5117 29.6194 15.5267 29.3722 15.8706L20.9605 27.5739L20.917 27.6431C20.7625 27.9267 20.8398 28.2877 21.1089 28.4811L21.1781 28.5245C21.4617 28.679 21.8227 28.6017 22.0161 28.3326L29.8844 17.3849L32.2018 20.8H29.25L29.1742 20.8044C28.8509 20.8419 28.6 21.1167 28.6 21.45C28.6 21.809 28.891 22.1 29.25 22.1H33.084L33.9661 23.4H27.95L27.8742 23.4044C27.5509 23.4419 27.3 23.7167 27.3 24.05C27.3 24.409 27.591 24.7 27.95 24.7H34.8483L41.7121 34.815L41.7583 34.8753C41.9709 35.1217 42.3391 35.175 42.615 34.9879C42.912 34.7863 42.9894 34.3821 42.7879 34.085L30.4379 15.885L30.387 15.8192Z" fill="#000091"/>
<path d="M16.3644 26.2818C16.6065 25.9296 17.1092 25.9076 17.3839 26.2157L17.4356 26.2818L24.3919 36.4H33.15C33.509 36.4 33.8 36.691 33.8 37.05C33.8 37.3833 33.5491 37.6581 33.2258 37.6956L33.15 37.7H24.0596C24.0412 37.7003 24.0228 37.6997 24.0045 37.6984C23.9125 37.6921 23.8257 37.6665 23.7481 37.6258C23.6802 37.5903 23.6178 37.5423 23.5647 37.4826L23.5641 37.4818C23.5442 37.4593 23.5257 37.4355 23.509 37.4104L16.9 27.7973L10.9857 36.4H16.25C16.609 36.4 16.9 36.691 16.9 37.05C16.9 37.3833 16.6491 37.6581 16.3258 37.6956L16.25 37.7H9.75838C9.75241 37.7001 9.74644 37.7001 9.74046 37.7H7.15C6.79101 37.7 6.5 37.409 6.5 37.05C6.5 36.7167 6.75093 36.4419 7.0742 36.4044L7.15 36.4H9.40808L16.3644 26.2818Z" fill="#000091"/>
<path d="M45.5 39.65C45.5 39.291 45.209 39 44.85 39H11.05L10.9742 39.0044C10.6509 39.0419 10.4 39.3167 10.4 39.65C10.4 40.009 10.691 40.3 11.05 40.3H44.85L44.9258 40.2956C45.2491 40.2581 45.5 39.9833 45.5 39.65Z" fill="#000091"/>
<path d="M39 42.25C39 41.891 38.709 41.6 38.35 41.6H18.85L18.7742 41.6044C18.4509 41.6419 18.2 41.9167 18.2 42.25C18.2 42.609 18.491 42.9 18.85 42.9H38.35L38.4258 42.8956C38.7491 42.8581 39 42.5833 39 42.25Z" fill="#000091"/>
</svg>
