<svg width="52" height="52" viewBox="0 0 52 52" fill="none" xmlns="http://www.w3.org/2000/svg">
<path d="M23.49 45.1359C23.0834 45.1359 22.6767 45.1173 22.2701 45.0862C14.6109 44.5028 8.42653 38.4138 7.56472 30.6116C7.37051 28.8799 7.44334 27.1481 7.77714 25.4661C7.9228 24.7212 8.39619 24.113 9.06379 23.7902C9.74959 23.4612 10.5386 23.4923 11.2122 23.8709C12.2561 24.4543 13.4396 24.6778 14.6413 24.5164C17.075 24.1874 19.0778 22.1391 19.3994 19.6502C19.5572 18.4212 19.3387 17.2108 18.7682 16.1494C18.398 15.4543 18.3677 14.6536 18.6894 13.9522C18.9989 13.2694 19.5997 12.7853 20.328 12.6363C21.9727 12.2949 23.666 12.2204 25.3593 12.4191C28.2906 12.7604 31.0763 13.9336 33.4129 15.8205C33.6861 16.0377 33.7285 16.4412 33.5161 16.7143C33.3037 16.9936 32.9092 17.037 32.6422 16.8198C30.4816 15.0818 27.9144 13.9956 25.2197 13.6853C23.6539 13.5053 22.0941 13.5736 20.5768 13.8839C20.237 13.9522 19.9699 14.1694 19.8243 14.486C19.6725 14.8212 19.6908 15.1998 19.8668 15.535C20.5647 16.8384 20.8317 18.3219 20.6375 19.8177C20.243 22.8716 17.7911 25.3792 14.8051 25.7826C13.3425 25.9812 11.892 25.7081 10.6175 24.9943C10.2897 24.8143 9.91953 24.7957 9.5918 24.9509C9.28227 25.0999 9.06986 25.373 9.0031 25.7205C8.69357 27.2723 8.62681 28.8737 8.80888 30.4689C9.60393 37.6565 15.3089 43.2738 22.3672 43.8138C26.6945 44.1428 30.9307 42.5476 33.9834 39.4255C37.0362 36.3034 38.602 31.9772 38.2743 27.5516C38.0437 24.4357 36.8784 21.4998 34.8938 19.0667C34.6753 18.7936 34.7117 18.3964 34.9727 18.1667C35.2397 17.9432 35.6282 17.9805 35.8527 18.2474C38.0012 20.8853 39.2696 24.0695 39.5184 27.4523C39.8704 32.2503 38.1772 36.9427 34.8635 40.3255C31.8411 43.4166 27.7505 45.1297 23.4961 45.1297L23.49 45.1359Z" fill="#000091"/>
<path d="M24.9831 21.2577C23.484 21.2577 22.2642 20.0101 22.2642 18.477C22.2642 16.9439 23.484 15.6963 24.9831 15.6963C26.4822 15.6963 27.7021 16.9439 27.7021 18.477C27.7021 20.0101 26.4822 21.2577 24.9831 21.2577ZM24.9831 16.9687C24.1699 16.9687 23.5083 17.6453 23.5083 18.477C23.5083 19.3088 24.1699 19.9853 24.9831 19.9853C25.7964 19.9853 26.4579 19.3088 26.4579 18.477C26.4579 17.6453 25.7964 16.9687 24.9831 16.9687Z" fill="#6A6AF4"/>
<path d="M33.322 30.202C31.8229 30.202 30.603 28.9544 30.603 27.4212C30.603 25.8881 31.8229 24.6405 33.322 24.6405C34.821 24.6405 36.0409 25.8881 36.0409 27.4212C36.0409 28.9544 34.821 30.202 33.322 30.202ZM33.322 25.913C32.5087 25.913 31.8472 26.5895 31.8472 27.4212C31.8472 28.253 32.5087 28.9295 33.322 28.9295C34.1352 28.9295 34.7968 28.253 34.7968 27.4212C34.7968 26.5895 34.1352 25.913 33.322 25.913Z" fill="#6A6AF4"/>
<path d="M29.5593 38.3889C28.0602 38.3889 26.8403 37.1413 26.8403 35.6082C26.8403 34.0751 28.0602 32.8275 29.5593 32.8275C31.0583 32.8275 32.2782 34.0751 32.2782 35.6082C32.2782 37.1413 31.0583 38.3889 29.5593 38.3889ZM29.5593 34.0999C28.746 34.0999 28.0845 34.7765 28.0845 35.6082C28.0845 36.44 28.746 37.1165 29.5593 37.1165C30.3725 37.1165 31.0341 36.44 31.0341 35.6082C31.0341 34.7765 30.3725 34.0999 29.5593 34.0999Z" fill="#6A6AF4"/>
<path d="M20.5588 40.7165C19.0597 40.7165 17.8398 39.4689 17.8398 37.9358C17.8398 36.4027 19.0597 35.1551 20.5588 35.1551C22.0579 35.1551 23.2777 36.4027 23.2777 37.9358C23.2777 39.4689 22.0579 40.7165 20.5588 40.7165ZM20.5588 36.4275C19.7455 36.4275 19.084 37.1041 19.084 37.9358C19.084 38.7675 19.7455 39.4441 20.5588 39.4441C21.372 39.4441 22.0336 38.7675 22.0336 37.9358C22.0336 37.1041 21.372 36.4275 20.5588 36.4275Z" fill="#6A6AF4"/>
<path d="M14.2834 34.1061C12.7843 34.1061 11.5645 32.8585 11.5645 31.3254C11.5645 29.7923 12.7843 28.5447 14.2834 28.5447C15.7825 28.5447 17.0024 29.7923 17.0024 31.3254C17.0024 32.8585 15.7825 34.1061 14.2834 34.1061ZM14.2834 29.8171C13.4701 29.8171 12.8086 30.4937 12.8086 31.3254C12.8086 32.1572 13.4701 32.8337 14.2834 32.8337C15.0967 32.8337 15.7582 32.1572 15.7582 31.3254C15.7582 30.4937 15.0967 29.8171 14.2834 29.8171Z" fill="#6A6AF4"/>
<path d="M26.251 27.6819C26.1053 27.6819 26.1296 27.4461 26.0143 27.3406L24.8794 26.3164C24.6366 26.093 24.4242 25.8943 24.6245 25.6274C25.0736 25.0316 35.7613 10.9108 43.645 6.93212C43.8392 6.83281 44.0698 6.84522 44.2519 6.96315C44.434 7.08109 44.5432 7.29212 44.5432 7.50937C44.5432 7.93764 43.9849 12.1211 26.6637 27.5268C26.5484 27.6323 26.4027 27.6819 26.2571 27.6819H26.251ZM25.9718 25.9378L26.2571 26.1985C37.3756 16.2674 41.2416 11.2522 42.5829 9.00524C35.9555 13.288 27.7683 23.6164 25.9658 25.9378H25.9718Z" fill="#6A6AF4"/>
<path d="M19.7877 33.3303C19.6238 33.3303 19.466 33.262 19.3446 33.1441C19.2172 33.0137 19.1504 32.8399 19.1625 32.6599C19.1929 32.1323 19.4781 27.4709 20.8558 26.0557C22.3488 24.5288 24.7764 24.5288 26.2694 26.0557C27.7624 27.5826 27.7624 30.0654 26.2694 31.5923C24.8857 33.0013 20.3278 33.2992 19.8119 33.3241C19.7998 33.3241 19.7877 33.3241 19.7755 33.3241L19.7877 33.3303ZM21.748 26.9619C21.0561 27.6695 20.6252 30.1834 20.4674 32.0082C22.2517 31.8468 24.7097 31.4061 25.4016 30.6985C26.409 29.6682 26.409 27.9923 25.4016 26.9619C24.3941 25.9316 22.7554 25.9316 21.748 26.9619Z" fill="#6A6AF4"/>
<path fill-rule="evenodd" clip-rule="evenodd" d="M4.61579 38.3889C4.2154 38.3889 3.88965 38.0632 3.88965 37.6628C3.88965 37.2624 4.2154 36.9366 4.61579 36.9366C5.01619 36.9366 5.34194 37.2624 5.34194 37.6628C5.34194 38.0632 5.01619 38.3889 4.61579 38.3889Z" fill="#CACAFB"/>
<path fill-rule="evenodd" clip-rule="evenodd" d="M42.1978 45.862C41.7974 45.862 41.4717 45.5363 41.4717 45.1359C41.4717 44.7354 41.7974 44.4097 42.1978 44.4097C42.5982 44.4097 42.924 44.7354 42.924 45.1359C42.924 45.5363 42.5982 45.862 42.1978 45.862Z" fill="#CACAFB"/>
<path fill-rule="evenodd" clip-rule="evenodd" d="M36.7672 6.86535C36.3668 6.86535 36.041 6.5396 36.041 6.1392C36.041 5.73877 36.3668 5.41306 36.7672 5.41306C37.1676 5.41306 37.4933 5.73877 37.4933 6.1392C37.4933 6.5396 37.1676 6.86535 36.7672 6.86535Z" fill="#CACAFB"/>
</svg>
