<svg width="52" height="52" viewBox="0 0 52 52" fill="none" xmlns="http://www.w3.org/2000/svg">
<path fill-rule="evenodd" clip-rule="evenodd" d="M40.45 48.05C40.0916 48.05 39.8 47.7584 39.8 47.4C39.8 47.0416 40.0916 46.75 40.45 46.75C40.8085 46.75 41.1 47.0416 41.1 47.4C41.1 47.7584 40.8085 48.05 40.45 48.05Z" fill="#CACAFB"/>
<path fill-rule="evenodd" clip-rule="evenodd" d="M43.0499 11.25C42.6915 11.25 42.3999 10.9584 42.3999 10.6C42.3999 10.2416 42.6915 9.95001 43.0499 9.95001C43.4083 9.95001 43.6999 10.2416 43.6999 10.6C43.6999 10.9584 43.4083 11.25 43.0499 11.25Z" fill="#CACAFB"/>
<path fill-rule="evenodd" clip-rule="evenodd" d="M7.69858 12.55C7.34017 12.55 7.04858 12.2584 7.04858 11.9C7.04858 11.5416 7.34017 11.25 7.69858 11.25C8.05699 11.25 8.34858 11.5416 8.34858 11.9C8.34858 12.2584 8.05699 12.55 7.69858 12.55Z" fill="#CACAFB"/>
<path fill-rule="evenodd" clip-rule="evenodd" d="M20.95 48.05C20.5916 48.05 20.3 47.7584 20.3 47.4C20.3 47.0416 20.5916 46.75 20.95 46.75C21.3085 46.75 21.6 47.0416 21.6 47.4C21.6 47.7584 21.3085 48.05 20.95 48.05Z" fill="#CACAFB"/>
<path d="M29.3383 28.1008C25.3616 28.1008 22.1262 24.8737 22.1262 20.9071C22.1262 16.9406 25.3616 13.7134 29.3383 13.7134C33.315 13.7134 36.5504 16.9406 36.5504 20.9071C36.5504 24.8737 33.315 28.1008 29.3383 28.1008ZM29.3383 14.8598C25.9937 14.8598 23.2756 17.5711 23.2756 20.9071C23.2756 24.2432 25.9937 26.9544 29.3383 26.9544C32.6829 26.9544 35.4011 24.2432 35.4011 20.9071C35.4011 17.5711 32.6829 14.8598 29.3383 14.8598Z" fill="#000091"/>
<path d="M34.2231 25.6017C34.1369 25.6017 34.0565 25.5845 33.976 25.5443C32.2233 24.7017 30.3269 23.3146 28.6488 21.6351C26.9421 19.9327 25.5399 18.0239 24.7009 16.2527C24.5629 15.9661 24.6894 15.6222 24.971 15.4904C25.2583 15.3528 25.6031 15.4789 25.7353 15.7598C26.5226 17.4163 27.8443 19.2104 29.4591 20.8211C31.0509 22.4089 32.8324 23.7158 34.476 24.5068C34.7633 24.6444 34.884 24.9883 34.7461 25.2692C34.6484 25.4755 34.4415 25.5959 34.2289 25.5959L34.2231 25.6017Z" fill="#000091"/>
<path d="M32.66 27.1608C32.5738 27.1608 32.4934 27.1436 32.4129 27.1035C30.6545 26.2608 28.7638 24.8737 27.08 23.1942C25.3675 21.4861 23.9596 19.5601 23.1148 17.7832C22.9769 17.4966 23.1033 17.1527 23.3906 17.0208C23.678 16.8832 24.0228 17.0094 24.155 17.296C24.9422 18.9582 26.2697 20.7638 27.8903 22.386C29.4821 23.9738 31.2693 25.2864 32.9129 26.0717C33.2002 26.2093 33.3209 26.5532 33.183 26.834C33.0853 27.0404 32.8784 27.1608 32.6658 27.1608H32.66Z" fill="#000091"/>
<path d="M16.5864 37.5415C15.8796 37.5415 15.1785 37.2663 14.6383 36.7275L13.3798 35.4722C12.3626 34.4576 12.2936 32.8584 13.2188 31.7578L22.2929 20.9931C22.494 20.7524 22.8618 20.718 23.1031 20.9243C23.3445 21.1307 23.379 21.4918 23.1721 21.7325L14.0981 32.4973C13.5579 33.1393 13.5981 34.0679 14.19 34.664L15.4486 35.9193C16.0405 36.5097 16.9772 36.5556 17.6208 36.011L28.3269 27.0289C28.5682 26.8283 28.9303 26.857 29.1372 27.0977C29.3383 27.3385 29.3096 27.6996 29.0682 27.9059L18.3621 36.888C17.8449 37.3236 17.2128 37.5357 16.5864 37.5357V37.5415Z" fill="#000091"/>
<path d="M21.247 27.1091C21.0976 27.1091 20.9539 27.0518 20.839 26.9429C20.6149 26.7194 20.6149 26.3583 20.839 26.1347L21.8676 25.1087C22.0918 24.8851 22.4538 24.8851 22.6779 25.1087C22.902 25.3322 22.902 25.6933 22.6779 25.9169L21.6493 26.9429C21.5343 27.0576 21.3907 27.1091 21.2413 27.1091H21.247Z" fill="#000091"/>
<path d="M19.9885 28.3301C19.839 28.3301 19.6954 28.2728 19.5804 28.1638C19.3563 27.9403 19.3563 27.5792 19.5804 27.3556L19.931 27.006C20.1551 26.7824 20.5172 26.7824 20.7413 27.006C20.9654 27.2295 20.9654 27.5906 20.7413 27.8142L20.3907 28.1638C20.2758 28.2785 20.1321 28.3301 19.9827 28.3301H19.9885Z" fill="#000091"/>
<path d="M21.0803 43.6231C20.9022 43.6231 20.7298 43.5429 20.6149 43.3881C20.4252 43.1359 20.4827 42.7748 20.7355 42.5856C21.2068 42.236 22.4481 41.0896 22.5055 40.0005C22.5285 39.5133 22.3216 39.0776 21.8619 38.6592C20.9482 37.8281 19.0805 39.112 17.276 40.3502C15.3107 41.7029 13.2763 43.0958 11.8224 42.0583C11.265 41.6571 10.9489 41.1011 10.9087 40.4419C10.7823 38.321 13.5694 35.7015 13.8912 35.4149C14.1269 35.1971 14.4889 35.2143 14.7015 35.4493C14.9142 35.6843 14.9027 36.0454 14.667 36.2575C13.9142 36.9511 11.9776 39.0375 12.058 40.3731C12.0753 40.6883 12.2132 40.9291 12.4948 41.1297C13.2878 41.7029 15.0636 40.482 16.6209 39.4101C18.7932 37.914 21.0401 36.3721 22.632 37.8166C23.3503 38.4701 23.6951 39.2267 23.6491 40.0693C23.5514 41.9322 21.4999 43.4569 21.4137 43.52C21.3102 43.5945 21.1895 43.6289 21.0746 43.6289L21.0803 43.6231Z" fill="#000091"/>
<path d="M32.9587 42.4309C32.6426 42.4309 32.384 42.1729 32.384 41.8577V32.4686C32.384 32.2107 32.5564 31.9871 32.8093 31.9183L40.3719 29.8491C40.5443 29.8032 40.7282 29.8376 40.8719 29.9465C41.0156 30.0554 41.096 30.2217 41.096 30.3993V40.9807C41.096 41.2959 40.8374 41.5539 40.5213 41.5539C40.2053 41.5539 39.9467 41.2959 39.9467 40.9807V31.1502L33.5334 32.9042V41.8577C33.5334 42.1729 33.2748 42.4309 32.9587 42.4309Z" fill="#6A6AF4"/>
<path d="M32.9587 35.8505C32.7059 35.8505 32.476 35.6843 32.407 35.4263C32.3208 35.1225 32.5047 34.8073 32.8093 34.7213L40.3719 32.652C40.6765 32.5718 40.9926 32.7495 41.0788 33.0533C41.165 33.3571 40.9811 33.6723 40.6765 33.7583L33.1139 35.8276C33.0622 35.839 33.0104 35.8505 32.9587 35.8505Z" fill="#6A6AF4"/>
<path d="M30.9703 44.5804C29.5394 44.5804 28.3728 43.5945 28.3728 42.385C28.3728 41.1756 29.5394 40.1897 30.9703 40.1897C32.4012 40.1897 33.5678 41.1756 33.5678 42.385C33.5678 43.5945 32.4012 44.5804 30.9703 44.5804ZM30.9703 41.3303C30.183 41.3303 29.5221 41.8118 29.5221 42.3793C29.5221 42.9468 30.183 43.4283 30.9703 43.4283C31.7576 43.4283 32.4185 42.9468 32.4185 42.3793C32.4185 41.8118 31.7576 41.3303 30.9703 41.3303Z" fill="#6A6AF4"/>
<path d="M38.4986 43.1531C37.0677 43.1531 35.9011 42.1672 35.9011 40.9578C35.9011 39.7483 37.0677 38.7624 38.4986 38.7624C39.9296 38.7624 41.0961 39.7483 41.0961 40.9578C41.0961 42.1672 39.9296 43.1531 38.4986 43.1531ZM38.4986 39.9031C37.7113 39.9031 37.0505 40.3846 37.0505 40.952C37.0505 41.5195 37.7113 42.001 38.4986 42.001C39.2859 42.001 39.9468 41.5195 39.9468 40.952C39.9468 40.3846 39.2859 39.9031 38.4986 39.9031Z" fill="#6A6AF4"/>
<path d="M16.0175 19.4512C15.7015 19.4512 15.4429 19.1932 15.4429 18.878V12.3091C15.4429 12.3091 15.4429 12.2919 15.4429 12.2804V9.48892C15.4429 9.24818 15.5923 9.03609 15.8222 8.95011L19.9253 7.45405C20.1034 7.391 20.2988 7.41393 20.454 7.52284C20.6091 7.63174 20.7011 7.8037 20.7011 7.99286V10.8016C20.7011 11.0423 20.5517 11.2544 20.3218 11.3404L16.598 12.6989V18.878C16.598 19.1932 16.3394 19.4512 16.0233 19.4512H16.0175ZM16.5922 9.89016V11.4779L19.546 10.4003V8.81254L16.5922 9.89016Z" fill="#6A6AF4"/>
<path d="M14.035 21.6007C12.6041 21.6007 11.4375 20.6148 11.4375 19.4053C11.4375 18.1959 12.6041 17.21 14.035 17.21C15.4659 17.21 16.6325 18.1959 16.6325 19.4053C16.6325 20.6148 15.4659 21.6007 14.035 21.6007ZM14.035 18.3564C13.2477 18.3564 12.5868 18.8379 12.5868 19.4053C12.5868 19.9728 13.2477 20.4543 14.035 20.4543C14.8223 20.4543 15.4832 19.9728 15.4832 19.4053C15.4832 18.8379 14.8223 18.3564 14.035 18.3564Z" fill="#6A6AF4"/>
</svg>
