<svg width="52" height="52" viewBox="0 0 52 52" fill="none" xmlns="http://www.w3.org/2000/svg">
<path fill-rule="evenodd" clip-rule="evenodd" d="M12.5675 27.038C12.1671 27.038 11.8413 26.7123 11.8413 26.3119C11.8413 25.9114 12.1671 25.5857 12.5675 25.5857C12.9679 25.5857 13.2936 25.9114 13.2936 26.3119C13.2936 26.7123 12.9679 27.038 12.5675 27.038Z" fill="#CACAFB"/>
<path fill-rule="evenodd" clip-rule="evenodd" d="M31.8653 12.3377C31.4649 12.3377 31.1392 12.012 31.1392 11.6116C31.1392 11.2112 31.4649 10.8854 31.8653 10.8854C32.2657 10.8854 32.5915 11.2112 32.5915 11.6116C32.5915 12.012 32.2657 12.3377 31.8653 12.3377Z" fill="#CACAFB"/>
<path fill-rule="evenodd" clip-rule="evenodd" d="M40.6451 46.3573C40.2447 46.3573 39.9189 46.0315 39.9189 45.6311C39.9189 45.2307 40.2447 44.905 40.6451 44.905C41.0455 44.905 41.3712 45.2307 41.3712 45.6311C41.3712 46.0315 41.0455 46.3573 40.6451 46.3573Z" fill="#CACAFB"/>
<path fill-rule="evenodd" clip-rule="evenodd" d="M18.9405 44.2974C18.5401 44.2974 18.2144 43.9717 18.2144 43.5713C18.2144 43.1709 18.5401 42.8452 18.9405 42.8452C19.3409 42.8452 19.6666 43.1709 19.6666 43.5713C19.6666 43.9717 19.3409 44.2974 18.9405 44.2974Z" fill="#CACAFB"/>
<path d="M23.5792 37.0076H5.7566C5.44172 37.0076 5.18408 36.7495 5.18408 36.4341C5.18408 36.1186 5.44172 35.8606 5.7566 35.8606H23.5792C23.8883 35.8606 24.1403 35.6082 24.1403 35.2985C24.1403 34.9888 23.8883 34.7364 23.5792 34.7364H5.7566C5.44172 34.7364 5.18408 34.4784 5.18408 34.1629C5.18408 33.8475 5.44172 33.5894 5.7566 33.5894H23.5792C24.5181 33.5894 25.2853 34.3579 25.2853 35.2985C25.2853 36.2391 24.5181 37.0076 23.5792 37.0076Z" fill="#000091"/>
<path d="M10.3997 41.1198C10.0848 41.1198 9.82715 40.8617 9.82715 40.5463V37.0191C9.82715 36.7036 10.0848 36.4456 10.3997 36.4456C10.7146 36.4456 10.9722 36.7036 10.9722 37.0191V40.5463C10.9722 40.8617 10.7146 41.1198 10.3997 41.1198Z" fill="#000091"/>
<path d="M8.49928 41.2804C8.18439 41.2804 7.92676 41.0223 7.92676 40.7069V37.0191C7.92676 36.7036 8.18439 36.4456 8.49928 36.4456C8.81417 36.4456 9.0718 36.7036 9.0718 37.0191V40.7069C9.0718 41.0223 8.81417 41.2804 8.49928 41.2804Z" fill="#000091"/>
<path d="M16.1878 41.3779C15.8729 41.3779 15.6152 41.1198 15.6152 40.8044V37.0191C15.6152 36.7036 15.8729 36.4456 16.1878 36.4456C16.5026 36.4456 16.7603 36.7036 16.7603 37.0191V40.8044C16.7603 41.1198 16.5026 41.3779 16.1878 41.3779Z" fill="#000091"/>
<path d="M14.2874 42.1235C13.9725 42.1235 13.7148 41.8654 13.7148 41.55V37.0191C13.7148 36.7036 13.9725 36.4456 14.2874 36.4456C14.6023 36.4456 14.8599 36.7036 14.8599 37.0191V41.55C14.8599 41.8654 14.6023 42.1235 14.2874 42.1235Z" fill="#000091"/>
<path d="M21.9763 42.026C21.6614 42.026 21.4038 41.7679 21.4038 41.4525V37.0191C21.4038 36.7036 21.6614 36.4456 21.9763 36.4456C22.2912 36.4456 22.5489 36.7036 22.5489 37.0191V41.4525C22.5489 41.7679 22.2912 42.026 21.9763 42.026Z" fill="#000091"/>
<path d="M20.0755 41.6704C19.7606 41.6704 19.5029 41.4123 19.5029 41.0969V37.0191C19.5029 36.7036 19.7606 36.4456 20.0755 36.4456C20.3903 36.4456 20.648 36.7036 20.648 37.0191V41.0969C20.648 41.4123 20.3903 41.6704 20.0755 41.6704Z" fill="#000091"/>
<path d="M46.257 42.8347C46.1654 42.8347 46.0738 42.8117 45.9822 42.7659L44.0757 41.7335C43.0222 41.16 41.7512 41.137 40.6806 41.6647L40.3657 41.8195C38.9802 42.502 37.3428 42.4791 35.9745 41.7622L35.8772 41.7106C34.818 41.1542 33.5527 41.1428 32.4821 41.6876L32.2703 41.7966C30.8962 42.4963 29.2588 42.4963 27.8848 41.7966L27.6787 41.6934C26.6138 41.1485 25.3428 41.16 24.2836 41.7163L24.1748 41.7736C22.8065 42.4906 21.1691 42.5135 19.7836 41.8253L19.4802 41.6761C18.4038 41.1485 17.1386 41.1714 16.0851 41.7392C14.7282 42.4734 13.0851 42.5192 11.6882 41.8482L11.2874 41.6589C10.2053 41.1428 8.9286 41.1829 7.88089 41.7679L6.0889 42.7716C5.81409 42.9264 5.46485 42.8289 5.31027 42.5536C5.15569 42.2784 5.25302 41.9285 5.52783 41.7736L7.31982 40.77C8.69387 40.0014 10.3599 39.9498 11.774 40.6266L12.1748 40.8159C13.2397 41.3263 14.4935 41.2919 15.5298 40.7298C16.9095 39.9842 18.5699 39.9498 19.9783 40.6438L20.2817 40.7929C21.3351 41.3148 22.589 41.2976 23.6309 40.7528L23.7397 40.6954C25.1252 39.967 26.7855 39.9556 28.1825 40.6667L28.3886 40.77C29.4363 41.3034 30.6901 41.3034 31.7378 40.77L31.9497 40.661C33.3466 39.9498 35.0069 39.9613 36.3924 40.6897L36.4898 40.7413C37.5317 41.2919 38.7856 41.3034 39.8447 40.7872L40.1596 40.6323C41.568 39.9384 43.2283 39.9728 44.6081 40.7241L46.5146 41.7564C46.7951 41.9056 46.8982 42.2554 46.7436 42.5364C46.6405 42.7257 46.4402 42.8347 46.2398 42.8347H46.257Z" fill="#000091"/>
<path d="M30.9534 41.9686C30.8275 41.9686 30.7015 41.9285 30.5985 41.8425C28.4229 40.1047 27.1748 37.4722 27.1748 34.6217C27.1748 34.5759 27.1805 34.5242 27.192 34.4784C27.2569 34.2336 30.1118 33.3064 35.7569 31.6967C35.8599 31.6681 35.963 31.6681 36.0661 31.6967C41.7874 33.295 44.6481 34.27 44.6481 34.6217C44.6481 36.87 43.7207 39.1583 42.1004 40.8961C41.8829 41.1313 41.5222 41.1428 41.2932 40.9248C41.0642 40.7069 41.047 40.3455 41.2645 40.1161C42.5928 38.6938 43.3886 36.8528 43.4917 35.0232C42.318 34.6561 38.4706 33.5664 35.9115 32.8495C33.2607 33.6066 29.5164 34.6791 28.3256 35.0404C28.4401 37.3804 29.5107 39.5139 31.3084 40.9478C31.5546 41.1428 31.5947 41.5041 31.4 41.7564C31.2855 41.8998 31.1195 41.9744 30.9534 41.9744V41.9686Z" fill="#000091"/>
<path d="M28.2452 37.7647C27.999 37.7647 27.77 37.6041 27.6955 37.3575C27.6039 37.0535 27.7757 36.7323 28.0791 36.6406C29.8368 36.1129 35.6937 34.444 35.7566 34.4268C35.8597 34.3981 35.9627 34.3981 36.0658 34.4268C36.123 34.444 41.6479 35.9867 43.5773 36.5775C43.8807 36.6692 44.0525 36.9904 43.9609 37.2944C43.8693 37.5984 43.5486 37.7704 43.2452 37.6787C41.5105 37.151 36.8272 35.8376 35.9112 35.5795C34.9666 35.8491 29.9971 37.2715 28.4055 37.7475C28.3482 37.7647 28.2967 37.7704 28.2394 37.7704L28.2452 37.7647Z" fill="#000091"/>
<path d="M29.8196 34.3809C29.5047 34.3809 29.2471 34.1228 29.2471 33.8073V29.3969C29.2471 29.0815 29.5047 28.8234 29.8196 28.8234H42.0028C42.3177 28.8234 42.5754 29.0815 42.5754 29.3969V33.6467C42.5754 33.9622 42.3177 34.2203 42.0028 34.2203C41.688 34.2203 41.4303 33.9622 41.4303 33.6467V29.9704H30.3921V33.8073C30.3921 34.1228 30.1345 34.3809 29.8196 34.3809Z" fill="#000091"/>
<path d="M39.3466 29.8328H32.4763C32.1614 29.8328 31.9038 29.5747 31.9038 29.2593V27.4469C31.9038 27.1315 32.1614 26.8734 32.4763 26.8734H39.3466C39.6615 26.8734 39.9191 27.1315 39.9191 27.4469V29.2593C39.9191 29.5747 39.6615 29.8328 39.3466 29.8328ZM33.0489 28.6857H38.7741V28.0204H33.0489V28.6857Z" fill="#000091"/>
<path d="M35.9456 27.7681C35.6307 27.7681 35.373 27.51 35.373 27.1945V21.7747C35.373 21.4593 35.6307 21.2012 35.9456 21.2012C36.2605 21.2012 36.5181 21.4593 36.5181 21.7747V27.1945C36.5181 27.51 36.2605 27.7681 35.9456 27.7681Z" fill="#000091"/>
<path d="M22.0907 34.4095H20.0525C19.7376 34.4095 19.48 34.1514 19.48 33.836V30.9913C19.48 30.1138 20.1956 29.3969 21.0716 29.3969C21.9475 29.3969 22.6632 30.1138 22.6632 30.9913V33.836C22.6632 34.1514 22.4056 34.4095 22.0907 34.4095ZM20.6193 33.2625H21.5124V30.9913C21.5124 30.7447 21.312 30.5439 21.0659 30.5439C20.8197 30.5439 20.6193 30.7447 20.6193 30.9913V33.2625Z" fill="#000091"/>
<path d="M28.3486 39.5082C27.9135 39.5082 27.0604 39.4164 26.3791 38.7569C25.6463 38.0457 25.3486 36.9216 25.5032 35.4132C25.5948 34.5128 25.4059 33.8073 24.9364 33.3141C24.0204 32.3448 22.3085 32.4137 22.2913 32.4079H19.3772C19.0623 32.4079 18.8047 32.1498 18.8047 31.8344C18.8047 31.519 19.0623 31.2609 19.3772 31.2609H22.2684C22.3314 31.2609 24.4841 31.1691 25.7665 32.5169C26.4765 33.2625 26.7685 34.2719 26.6425 35.5222C26.528 36.6406 26.7112 37.4722 27.1692 37.9195C27.6959 38.4357 28.4746 38.3497 28.4803 38.3497C28.7837 38.3095 29.0757 38.5332 29.1158 38.8487C29.1559 39.1584 28.9383 39.4451 28.6291 39.491C28.612 39.491 28.5089 39.5082 28.3486 39.5082Z" fill="#000091"/>
<path d="M15.661 18.0445C14.1839 18.0445 12.9873 16.8401 12.9873 15.3661C12.9873 13.8922 14.1896 12.6877 15.661 12.6877C17.1324 12.6877 18.3347 13.8922 18.3347 15.3661C18.3347 16.8401 17.1324 18.0445 15.661 18.0445ZM15.661 13.8291C14.8194 13.8291 14.1323 14.5173 14.1323 15.3604C14.1323 16.2035 14.8194 16.8917 15.661 16.8917C16.5026 16.8917 17.1896 16.2035 17.1896 15.3604C17.1896 14.5173 16.5026 13.8291 15.661 13.8291Z" fill="#6A6AF4"/>
<path d="M15.6609 12.3207C15.346 12.3207 15.0884 12.0626 15.0884 11.7472V9.72834C15.0884 9.4129 15.346 9.15482 15.6609 9.15482C15.9758 9.15482 16.2334 9.4129 16.2334 9.72834V11.7472C16.2334 12.0626 15.9758 12.3207 15.6609 12.3207Z" fill="#6A6AF4"/>
<path d="M15.6609 21.5717C15.346 21.5717 15.0884 21.3136 15.0884 20.9982V18.9794C15.0884 18.6639 15.346 18.4058 15.6609 18.4058C15.9758 18.4058 16.2334 18.6639 16.2334 18.9794V20.9982C16.2334 21.3136 15.9758 21.5717 15.6609 21.5717Z" fill="#6A6AF4"/>
<path d="M21.2836 15.9397H19.2683C18.9534 15.9397 18.6958 15.6816 18.6958 15.3661C18.6958 15.0507 18.9534 14.7926 19.2683 14.7926H21.2836C21.5985 14.7926 21.8561 15.0507 21.8561 15.3661C21.8561 15.6816 21.5985 15.9397 21.2836 15.9397Z" fill="#6A6AF4"/>
<path d="M12.0482 15.9397H10.033C9.71808 15.9397 9.46045 15.6816 9.46045 15.3661C9.46045 15.0507 9.71808 14.7926 10.033 14.7926H12.0482C12.3631 14.7926 12.6208 15.0507 12.6208 15.3661C12.6208 15.6816 12.3631 15.9397 12.0482 15.9397Z" fill="#6A6AF4"/>
<path d="M17.4587 12.8025C17.3614 12.8025 17.2641 12.7795 17.1724 12.7279C16.8976 12.5673 16.806 12.2175 16.9606 11.9422L17.9683 10.1929C18.1286 9.91762 18.4778 9.82585 18.7526 9.98071C19.0274 10.1413 19.119 10.4911 18.9644 10.7664L17.9568 12.5157C17.848 12.6992 17.6591 12.8025 17.4587 12.8025Z" fill="#6A6AF4"/>
<path d="M12.8503 20.8204C12.753 20.8204 12.6557 20.7974 12.564 20.7458C12.2892 20.5852 12.1976 20.2354 12.3522 19.9601L13.3599 18.2108C13.5202 17.9355 13.8694 17.8438 14.1442 17.9986C14.419 18.1592 14.5106 18.5091 14.356 18.7844L13.3484 20.5336C13.2396 20.7171 13.0507 20.8204 12.8503 20.8204Z" fill="#6A6AF4"/>
<path d="M20.5335 18.7499C20.4362 18.7499 20.3389 18.727 20.2473 18.6754L18.5011 17.666C18.2263 17.5054 18.1346 17.1555 18.2892 16.8802C18.4495 16.6049 18.7988 16.5132 19.0736 16.668L20.8198 17.6774C21.0946 17.838 21.1862 18.1879 21.0316 18.4632C20.9228 18.6467 20.7339 18.7499 20.5335 18.7499Z" fill="#6A6AF4"/>
<path d="M12.5296 14.133C12.4323 14.133 12.3349 14.1101 12.2433 14.0585L10.4972 13.0491C10.2223 12.8885 10.1307 12.5386 10.2853 12.2633C10.4456 11.9881 10.7949 11.8963 11.0697 12.0511L12.8159 13.0606C13.0907 13.2211 13.1823 13.571 13.0277 13.8463C12.9189 14.0298 12.73 14.133 12.5296 14.133Z" fill="#6A6AF4"/>
<path d="M18.8213 14.1961C18.6209 14.1961 18.4206 14.0872 18.3175 13.8979C18.1629 13.6226 18.266 13.2727 18.5465 13.1179L20.3156 12.1429C20.5961 11.9938 20.9396 12.0913 21.0942 12.3666C21.2488 12.6419 21.1458 12.9917 20.8652 13.1466L19.0961 14.1216C19.0102 14.1675 18.9129 14.1904 18.8213 14.1904V14.1961Z" fill="#6A6AF4"/>
<path d="M10.7321 18.6524C10.5318 18.6524 10.3314 18.5435 10.2283 18.3542C10.0737 18.0789 10.1768 17.7291 10.4516 17.5742L12.2207 16.5992C12.5012 16.4444 12.8447 16.5476 12.9993 16.8229C13.1539 17.0982 13.0509 17.448 12.776 17.6029L11.007 18.5779C10.9211 18.6238 10.8237 18.6467 10.7321 18.6467V18.6524Z" fill="#6A6AF4"/>
<path d="M18.3693 20.8777C18.1689 20.8777 17.9685 20.7687 17.8655 20.5795L16.8922 18.8073C16.7376 18.532 16.8407 18.1821 17.1212 18.0273C17.4017 17.8724 17.7453 17.9757 17.8998 18.251L18.8731 20.0232C19.0277 20.2985 18.9247 20.6483 18.6441 20.8032C18.5582 20.849 18.4609 20.872 18.3693 20.872V20.8777Z" fill="#6A6AF4"/>
<path d="M13.9206 12.768C13.7202 12.768 13.5198 12.6591 13.4168 12.4698L12.4435 10.6976C12.2889 10.4223 12.3919 10.0725 12.6725 9.9176C12.953 9.76275 13.2965 9.86598 13.4511 10.1413L14.4244 11.9135C14.579 12.1888 14.4759 12.5386 14.1954 12.6935C14.1095 12.7394 14.0122 12.7623 13.9206 12.7623V12.768Z" fill="#6A6AF4"/>
</svg>
