<svg width="52" height="52" viewBox="0 0 52 52" fill="none" xmlns="http://www.w3.org/2000/svg">
<path fill-rule="evenodd" clip-rule="evenodd" d="M44.1998 8.44999C43.8414 8.44999 43.5498 8.1584 43.5498 7.79999C43.5498 7.44155 43.8414 7.14999 44.1998 7.14999C44.5582 7.14999 44.8498 7.44155 44.8498 7.79999C44.8498 8.1584 44.5582 8.44999 44.1998 8.44999Z" fill="#6A6AF4"/>
<path fill-rule="evenodd" clip-rule="evenodd" d="M9.1002 44.85C8.74179 44.85 8.4502 44.5584 8.4502 44.2C8.4502 43.8415 8.74179 43.55 9.1002 43.55C9.45861 43.55 9.7502 43.8415 9.7502 44.2C9.7502 44.5584 9.45861 44.85 9.1002 44.85Z" fill="#6A6AF4"/>
<path fill-rule="evenodd" clip-rule="evenodd" d="M6.5001 11.05C6.14169 11.05 5.8501 10.7584 5.8501 10.4C5.8501 10.0416 6.14169 9.75 6.5001 9.75C6.85851 9.75 7.1501 10.0416 7.1501 10.4C7.1501 10.7584 6.85851 11.05 6.5001 11.05Z" fill="#6A6AF4"/>
<path d="M28.6 17.55C28.6 17.191 28.309 16.9 27.95 16.9C25.5029 16.9 23.9304 17.9483 23.4194 19.9923C23.3323 20.3406 23.5441 20.6935 23.8924 20.7806C24.2406 20.8677 24.5935 20.6559 24.6806 20.3076C25.0363 18.885 26.0637 18.2 27.95 18.2C28.309 18.2 28.6 17.909 28.6 17.55Z" fill="#6A6AF4"/>
<path d="M29.25 23.4C29.609 23.4 29.9 23.691 29.9 24.05C29.9 26.125 28.6517 27.2173 26.7306 27.4575C26.0905 27.5375 25.4231 27.5193 24.7696 27.4358L24.622 27.4144L24.6098 27.4742C24.2406 29.0453 22.7502 29.8567 20.3469 29.8983L20.15 29.9C19.791 29.9 19.5 29.609 19.5 29.25C19.5 28.891 19.791 28.6 20.15 28.6C22.4334 28.6 23.4 27.9556 23.4 26.65C23.4 26.2271 23.7974 25.9168 24.2076 26.0194L24.362 26.0535L24.5968 26.0965C24.6269 26.1016 24.6584 26.1067 24.6911 26.1118C25.3226 26.2104 25.975 26.2418 26.5694 26.1675C27.8983 26.0014 28.6 25.3874 28.6 24.05C28.6 23.691 28.891 23.4 29.25 23.4Z" fill="#6A6AF4"/>
<path d="M36.66 26.13C36.9472 25.9146 37.3546 25.9728 37.57 26.26C39.0699 28.2599 39.0699 29.9846 37.4106 31.0908C35.7817 32.1768 34.1162 31.6216 32.63 29.64C32.4146 29.3528 32.4728 28.9454 32.76 28.73C33.0472 28.5146 33.4546 28.5728 33.67 28.86C34.7838 30.345 35.7183 30.6566 36.6894 30.0092C37.6301 29.3821 37.6301 28.5068 36.53 27.04C36.3146 26.7528 36.3728 26.3454 36.66 26.13Z" fill="#6A6AF4"/>
<path d="M25.3501 5.20001C27.1463 5.20001 28.5598 6.02648 29.5336 7.62057L29.6063 7.74346L29.6254 7.74131C31.7535 7.49225 33.4845 7.95741 34.7688 9.15438L34.9097 9.29039C36.1609 10.5416 36.6796 12.2412 36.4835 14.3399L36.4716 14.4534L36.6318 14.5006C38.5368 15.0793 39.5854 16.2756 39.6472 18.0336L39.6501 18.2C39.6501 20.5674 38.4218 22.1 35.7501 22.1C33.6577 22.1 32.5001 20.9423 32.5001 18.85C32.5001 18.491 32.7911 18.2 33.1501 18.2C33.509 18.2 33.8001 18.491 33.8001 18.85C33.8001 20.2244 34.3757 20.8 35.7501 20.8C37.6327 20.8 38.3501 19.9048 38.3501 18.2C38.3501 16.8065 37.508 15.9645 35.6226 15.5874C35.2796 15.5188 35.0524 15.1911 35.1084 14.8459C35.4401 12.8015 35.0594 11.2786 33.9904 10.2096C32.9214 9.14064 31.3986 8.75993 29.3541 9.09162C29.0735 9.13716 28.7958 8.995 28.6687 8.7407C27.9085 7.22029 26.828 6.50001 25.3501 6.50001C22.3189 6.50001 20.8001 7.38599 20.8001 9.75001C20.8001 11.574 21.8505 12.6244 24.1569 13.0089C24.511 13.0679 24.7502 13.4028 24.6912 13.7569C24.6322 14.111 24.2973 14.3502 23.9432 14.2912C21.8968 13.9501 20.5226 13.0752 19.8934 11.7045C18.0925 11.7694 17.2005 12.5284 16.8806 13.8077C16.7239 14.4345 16.7239 15.1237 16.8206 15.7684L16.8482 15.9358L16.8716 16.0536C16.875 16.0688 16.878 16.0818 16.8806 16.0924C16.9832 16.5026 16.6729 16.9 16.2501 16.9C13.5194 16.9 12.0694 17.9875 11.695 20.2306C11.3074 23.3314 12.3339 24.7 14.9501 24.7C17.7198 24.7 19.1744 23.9727 19.5195 22.5924C19.6065 22.2441 19.9594 22.0324 20.3077 22.1194C20.656 22.2065 20.8677 22.5594 20.7806 22.9077C20.2591 24.994 18.247 26 14.9501 26C11.4996 26 9.926 23.9019 10.4089 20.0432C10.8558 17.3619 12.5818 15.8677 15.4271 15.6328L15.4935 15.628L15.4781 15.4759C15.4301 14.904 15.4491 14.315 15.5642 13.7386L15.6195 13.4924C16.0582 11.7374 17.3388 10.5981 19.5399 10.4235C19.5134 10.2073 19.5001 9.98278 19.5001 9.75001C19.5001 6.4807 21.6955 5.20001 25.3501 5.20001Z" fill="#000091"/>
<path d="M11.3407 27.3686C11.0197 27.2081 10.6292 27.3382 10.4687 27.6593C9.0404 30.5159 9.29518 32.8089 11.3101 34.32L11.4501 34.422C13.1317 35.6121 14.8713 35.5662 16.5348 34.3279L16.5985 34.2791L16.6452 34.3935C17.7234 36.9656 19.669 37.8955 22.3056 37.0167C23.0078 36.7826 23.5897 36.4837 24.0501 36.1251V41.6C24.0501 42.541 23.6911 42.9 22.7501 42.9H14.9501L14.8742 42.9044C14.551 42.9419 14.3001 43.2167 14.3001 43.55C14.3001 43.909 14.5911 44.2 14.9501 44.2H26.6501L26.7259 44.1956C27.0491 44.1581 27.3001 43.8834 27.3001 43.55C27.3001 43.191 27.009 42.9 26.6501 42.9H25.0989C25.2477 42.5727 25.332 42.1875 25.3475 41.7488L25.3501 41.6V33.8C25.3501 33.766 25.3474 33.7326 25.3424 33.7C25.3824 32.8764 25.147 31.9406 24.6314 30.9093C24.4709 30.5882 24.0805 30.4581 23.7594 30.6186C23.4383 30.7792 23.3081 31.1696 23.4687 31.4907C24.5963 33.7459 24.109 35.0452 21.8945 35.7834C19.6677 36.5256 18.2955 35.668 17.525 32.9714C17.3889 32.4949 16.7909 32.3399 16.4404 32.6904C14.9261 34.2047 13.552 34.3765 12.0901 33.28C10.6383 32.1912 10.4597 30.5842 11.6314 28.2407C11.792 27.9196 11.6618 27.5292 11.3407 27.3686Z" fill="#000091"/>
<path d="M40.6156 20.8926C40.9235 20.7079 41.3227 20.8078 41.5074 21.1156C42.6726 23.0575 42.7102 24.7896 42.0284 26.1893L41.9578 26.3282L41.9264 26.3848L41.9488 26.3992C43.099 27.175 43.8157 28.8432 43.7219 30.5966L43.7103 30.7665C43.499 33.3019 41.7199 35.4177 38.5368 36.3726C35.5732 37.2617 33.1217 36.5045 31.2001 34.6441V41.6C31.2001 42.5366 31.3915 42.8684 31.7889 42.8978L31.8501 42.9H40.9501C41.309 42.9 41.6001 43.191 41.6001 43.55C41.6001 43.8834 41.3491 44.1581 41.0259 44.1956L40.9501 44.2H31.8501C30.5988 44.2 29.9445 43.2811 29.9022 41.7595L29.9001 41.6V33.15C29.9001 33.1445 29.9001 33.139 29.9003 33.1336C29.9005 33.1254 29.9008 33.1173 29.9013 33.1091C29.6488 32.7476 29.4214 32.3774 29.2182 32.0052L29.0928 31.7681L29.026 31.822C28.467 32.2466 27.7271 32.471 26.8313 32.4974L26.6501 32.5C26.2911 32.5 26.0001 32.209 26.0001 31.85C26.0001 31.491 26.2911 31.2 26.6501 31.2C27.7226 31.2 28.3569 30.8828 28.6687 30.2593C28.9117 29.7732 29.5963 29.7888 29.8294 30.2546L29.9439 30.5327C30.019 30.7085 30.111 30.9058 30.2201 31.1192C30.5328 31.7305 30.918 32.3421 31.3766 32.9102C33.0988 35.0436 35.314 35.9822 38.1633 35.1274C40.8431 34.3235 42.2487 32.652 42.4148 30.6585C42.5468 29.0748 41.8099 27.6193 40.8854 27.3079L40.7924 27.2806C40.3022 27.1581 40.1332 26.5477 40.4904 26.1904L40.5175 26.1615L40.5857 26.0775L40.6683 25.9593C40.7125 25.8918 40.7603 25.8119 40.8089 25.72C41.3554 24.6878 41.3554 23.3889 40.3927 21.7844C40.208 21.4766 40.3078 21.0773 40.6156 20.8926Z" fill="#000091"/>
<path d="M44.0097 44.0096C43.7558 44.2635 43.3443 44.2635 43.0904 44.0096C42.8366 43.7558 42.8366 43.3442 43.0904 43.0904C43.3443 42.8366 43.7558 42.8366 44.0097 43.0904C44.2635 43.3442 44.2635 43.7558 44.0097 44.0096Z" fill="#000091"/>
</svg>
