<svg width="52" height="52" viewBox="0 0 52 52" fill="none" xmlns="http://www.w3.org/2000/svg">
<path fill-rule="evenodd" clip-rule="evenodd" d="M8.83091 46.8C8.4725 46.8 8.18091 46.5084 8.18091 46.15C8.18091 45.7916 8.4725 45.5 8.83091 45.5C9.18932 45.5 9.48091 45.7916 9.48091 46.15C9.48091 46.5084 9.18932 46.8 8.83091 46.8Z" fill="#CACAFB"/>
<path fill-rule="evenodd" clip-rule="evenodd" d="M4.2811 9.10002C3.92269 9.10002 3.6311 8.80843 3.6311 8.45002C3.6311 8.09158 3.92269 7.80002 4.2811 7.80002C4.63951 7.80002 4.9311 8.09158 4.9311 8.45002C4.9311 8.80843 4.63951 9.10002 4.2811 9.10002Z" fill="#CACAFB"/>
<path fill-rule="evenodd" clip-rule="evenodd" d="M38.7308 47.45C38.3724 47.45 38.0808 47.1584 38.0808 46.8C38.0808 46.4416 38.3724 46.15 38.7308 46.15C39.0892 46.15 39.3808 46.4416 39.3808 46.8C39.3808 47.1584 39.0892 47.45 38.7308 47.45Z" fill="#CACAFB"/>
<path fill-rule="evenodd" clip-rule="evenodd" d="M41.3309 5.85002C40.9725 5.85002 40.6809 5.55843 40.6809 5.20002C40.6809 4.84158 40.9725 4.55002 41.3309 4.55002C41.6893 4.55002 41.9809 4.84158 41.9809 5.20002C41.9809 5.55843 41.6893 5.85002 41.3309 5.85002Z" fill="#CACAFB"/>
<path fill-rule="evenodd" clip-rule="evenodd" d="M49.1307 33.15C48.7723 33.15 48.4807 32.8584 48.4807 32.5C48.4807 32.1416 48.7723 31.85 49.1307 31.85C49.4891 31.85 49.7807 32.1416 49.7807 32.5C49.7807 32.8584 49.4891 33.15 49.1307 33.15Z" fill="#CACAFB"/>
<path d="M9.90569 33.0277C9.26684 33.5846 8.63971 33.8282 8.03603 33.7586C7.06896 33.6484 6.41253 32.7725 6.39495 32.7493C6.20739 32.4882 5.84401 32.4302 5.58027 32.61C5.31652 32.7957 5.25205 33.1553 5.4396 33.4164C5.48063 33.4686 6.39495 34.7273 7.8895 34.9072C8.00672 34.9188 8.12394 34.9304 8.24116 34.9304C9.06757 34.9304 9.88811 34.5823 10.6793 33.8978C10.9255 33.689 10.949 33.3177 10.7321 33.0799C10.5211 32.8363 10.146 32.8131 9.90569 33.0277Z" fill="#6A6AF4"/>
<path d="M46.8534 33.0799C46.6424 32.8363 46.2732 32.8131 46.027 33.0277C45.3882 33.5846 44.7552 33.8282 44.1574 33.7586C43.1903 33.6484 42.5339 32.7725 42.5163 32.7493C42.3287 32.4882 41.9653 32.4302 41.7016 32.61C41.4379 32.7957 41.3734 33.1553 41.5609 33.4164C41.602 33.4686 42.5163 34.7273 44.0108 34.9072C44.1281 34.9188 44.2453 34.9304 44.3625 34.9304C45.1889 34.9304 46.0094 34.5823 46.8007 33.8978C47.0468 33.689 47.0703 33.3177 46.8534 33.0799Z" fill="#6A6AF4"/>
<path d="M37.1653 33.0277C36.5264 33.5846 35.8934 33.8224 35.2956 33.7586C34.3227 33.6484 33.6604 32.7609 33.6545 32.7493C33.467 32.4882 33.1036 32.4302 32.8398 32.6101C32.705 32.7029 32.623 32.8421 32.5995 32.9871C32.5819 32.9987 32.5585 33.0045 32.5351 33.0219C31.8962 33.5788 31.2632 33.8166 30.6654 33.7528C29.6925 33.6426 29.0302 32.7551 29.0243 32.7435C28.8368 32.4824 28.4734 32.4244 28.2096 32.6042C28.0748 32.6971 27.9928 32.8363 27.9693 32.9813C27.9517 32.9929 27.9283 32.9987 27.9049 33.0161C27.266 33.573 26.633 33.8108 26.0352 33.747C25.0623 33.6368 24.4 32.7493 24.3941 32.7377C24.2066 32.4766 23.8432 32.4186 23.5794 32.5984C23.4446 32.6913 23.3626 32.8305 23.3391 32.9755C23.3215 32.9871 23.2981 32.9929 23.2747 33.0103C22.6358 33.5672 22.0028 33.805 21.405 33.7412C20.4321 33.631 19.7698 32.7435 19.7639 32.7319C19.5764 32.4708 19.213 32.4128 18.9492 32.5926C18.8144 32.6855 18.7324 32.8247 18.7089 32.9697C18.6913 32.9813 18.6679 32.9871 18.6445 33.0045C18.0056 33.5614 17.3726 33.7992 16.7748 33.7354C15.8019 33.6252 15.1396 32.7377 15.1337 32.7261C14.9462 32.465 14.5828 32.407 14.319 32.5868C14.0553 32.7725 13.9908 33.1321 14.1784 33.3932C14.2194 33.4454 15.1337 34.7042 16.6283 34.884C16.7455 34.8956 16.8627 34.9072 16.9799 34.9072C17.777 34.9072 18.5624 34.5823 19.3185 33.95C19.7405 34.3329 20.3969 34.7854 21.2526 34.8898C21.3698 34.9014 21.4871 34.913 21.6043 34.913C22.4014 34.913 23.1867 34.5881 23.9428 33.9558C24.3648 34.3387 25.0212 34.7912 25.8769 34.8956C25.9942 34.9072 26.1114 34.9188 26.2286 34.9188C27.0257 34.9188 27.8111 34.5939 28.5671 33.9616C28.9891 34.3445 29.6456 34.797 30.5013 34.9014C30.6185 34.913 30.7357 34.9246 30.8529 34.9246C31.65 34.9246 32.4354 34.5997 33.1915 33.9674C33.6135 34.3503 34.2699 34.8028 35.1256 34.9072C35.2428 34.9188 35.3601 34.9304 35.4773 34.9304C36.3037 34.9304 37.1242 34.5823 37.9155 33.8978C38.1616 33.689 38.1851 33.3178 37.9682 33.0799C37.7572 32.8363 37.3821 32.8131 37.1418 33.0277H37.1653Z" fill="#6A6AF4"/>
<path d="M46.2088 20.3587H5.5861C5.26375 20.3587 5 20.0976 5 19.7786C5 19.4596 5.26375 19.1985 5.5861 19.1985H46.2088C46.5311 19.1985 46.7949 19.4596 46.7949 19.7786C46.7949 20.0976 46.5311 20.3587 46.2088 20.3587Z" fill="#000091"/>
<path d="M46.2088 18.1602H5.5861C5.26375 18.1602 5 17.8991 5 17.5801C5 17.261 5.26375 17 5.5861 17H46.2088C46.5311 17 46.7949 17.261 46.7949 17.5801C46.7949 17.8991 46.5311 18.1602 46.2088 18.1602Z" fill="#000091"/>
<path d="M37.9623 32.4708C37.64 32.4708 37.3762 32.2098 37.3762 31.8908C37.3762 28.0216 32.3182 24.8717 26.1055 24.8717C19.8929 24.8717 14.8348 28.0216 14.8348 31.8908C14.8348 32.2098 14.5711 32.4708 14.2487 32.4708C13.9263 32.4708 13.6626 32.2098 13.6626 31.8908C13.6626 27.3835 19.2481 23.7116 26.1055 23.7116C32.9629 23.7116 38.5484 27.3777 38.5484 31.8908C38.5484 32.2098 38.2847 32.4708 37.9623 32.4708Z" fill="#000091"/>
<path d="M10.902 32.4708C10.5797 32.4708 10.3159 32.2098 10.3159 31.8908C10.3159 29.5994 8.49314 27.4415 5.43956 26.1247C5.14064 25.9971 5.00584 25.6549 5.13478 25.359C5.26373 25.0632 5.60952 24.9298 5.90844 25.0574C9.4016 26.5714 11.4881 29.1238 11.4881 31.8908C11.4881 32.2098 11.2244 32.4708 10.902 32.4708Z" fill="#000091"/>
<path d="M41.3031 32.4708C40.9808 32.4708 40.717 32.2098 40.717 31.8908C40.717 29.1876 42.7274 26.67 46.0916 25.1502C46.3846 25.0226 46.7363 25.1502 46.8711 25.4402C47.0059 25.7303 46.8711 26.0783 46.5839 26.2117C43.6475 27.5401 41.8951 29.6632 41.8951 31.8966C41.8951 32.2156 41.6314 32.4766 41.309 32.4766L41.3031 32.4708Z" fill="#000091"/>
<path d="M14.3132 35H10.7555C10.4332 35 10.1694 34.739 10.1694 34.4199V31.885C10.1694 31.5659 10.4332 31.3049 10.7555 31.3049H14.3132C14.6355 31.3049 14.8993 31.5659 14.8993 31.885V34.4199C14.8993 34.739 14.6355 35 14.3132 35ZM11.3416 33.8398H13.7271V32.465H11.3416V33.8398Z" fill="#000091"/>
<path d="M41.4496 35H37.892C37.5697 35 37.3059 34.739 37.3059 34.4199V31.885C37.3059 31.5659 37.5697 31.3049 37.892 31.3049H41.4496C41.772 31.3049 42.0357 31.5659 42.0357 31.885V34.4199C42.0357 34.739 41.772 35 41.4496 35ZM38.4781 33.8398H40.8635V32.465H38.4781V33.8398Z" fill="#000091"/>
<path d="M13.7093 28.6771H11.2536C10.9312 28.6771 10.6675 28.4161 10.6675 28.097V22.5862C10.6675 21.5943 11.4822 20.7938 12.4785 20.7938C13.4749 20.7938 14.2896 21.6001 14.2896 22.5862V28.097C14.2896 28.4161 14.0258 28.6771 13.7035 28.6771H13.7093ZM11.8397 27.5169H13.1232V22.5862C13.1232 22.2382 12.8361 21.9539 12.4844 21.9539C12.1327 21.9539 11.8455 22.2382 11.8455 22.5862V27.5169H11.8397Z" fill="#000091"/>
<path d="M16.3351 25.243C16.0128 25.243 15.749 24.9819 15.749 24.6629V21.6465C15.749 21.3274 16.0128 21.0664 16.3351 21.0664C16.6575 21.0664 16.9212 21.3274 16.9212 21.6465V24.6629C16.9212 24.9819 16.6575 25.243 16.3351 25.243Z" fill="#000091"/>
<path d="M8.68083 25.243C8.35847 25.243 8.09473 24.9819 8.09473 24.6629V21.6465C8.09473 21.3274 8.35847 21.0664 8.68083 21.0664C9.00318 21.0664 9.26693 21.3274 9.26693 21.6465V24.6629C9.26693 24.9819 9.00318 25.243 8.68083 25.243Z" fill="#000091"/>
<path d="M18.9667 24.1466C18.6444 24.1466 18.3806 23.8856 18.3806 23.5665V21.6465C18.3806 21.3274 18.6444 21.0664 18.9667 21.0664C19.2891 21.0664 19.5528 21.3274 19.5528 21.6465V23.5665C19.5528 23.8856 19.2891 24.1466 18.9667 24.1466Z" fill="#000091"/>
<path d="M5.93766 24.1466C5.61531 24.1466 5.35156 23.8856 5.35156 23.5665V21.6465C5.35156 21.3274 5.61531 21.0664 5.93766 21.0664C6.26002 21.0664 6.52376 21.3274 6.52376 21.6465V23.5665C6.52376 23.8856 6.26002 24.1466 5.93766 24.1466Z" fill="#000091"/>
<path d="M40.8107 28.6771H38.3549C38.0325 28.6771 37.7688 28.4161 37.7688 28.097V22.5862C37.7688 21.5943 38.5835 20.7938 39.5799 20.7938C40.5762 20.7938 41.3909 21.6001 41.3909 22.5862V28.097C41.3909 28.4161 41.1272 28.6771 40.8048 28.6771H40.8107ZM38.9469 27.5169H40.2304V22.5862C40.2304 22.2382 39.9432 21.9539 39.5916 21.9539C39.2399 21.9539 38.9527 22.2382 38.9527 22.5862V27.5169H38.9469Z" fill="#000091"/>
<path d="M43.4423 25.243C43.1199 25.243 42.8562 24.9819 42.8562 24.6629V21.6465C42.8562 21.3274 43.1199 21.0664 43.4423 21.0664C43.7647 21.0664 44.0284 21.3274 44.0284 21.6465V24.6629C44.0284 24.9819 43.7647 25.243 43.4423 25.243Z" fill="#000091"/>
<path d="M35.788 25.243C35.4656 25.243 35.2019 24.9819 35.2019 24.6629V21.6465C35.2019 21.3274 35.4656 21.0664 35.788 21.0664C36.1104 21.0664 36.3741 21.3274 36.3741 21.6465V24.6629C36.3741 24.9819 36.1104 25.243 35.788 25.243Z" fill="#000091"/>
<path d="M46.068 24.1466C45.7457 24.1466 45.4819 23.8856 45.4819 23.5665V21.6465C45.4819 21.3274 45.7457 21.0664 46.068 21.0664C46.3904 21.0664 46.6541 21.3274 46.6541 21.6465V23.5665C46.6541 23.8856 46.3904 24.1466 46.068 24.1466Z" fill="#000091"/>
<path d="M33.0448 24.1466C32.7225 24.1466 32.4587 23.8856 32.4587 23.5665V21.6465C32.4587 21.3274 32.7225 21.0664 33.0448 21.0664C33.3672 21.0664 33.6309 21.3274 33.6309 21.6465V23.5665C33.6309 23.8856 33.3672 24.1466 33.0448 24.1466Z" fill="#000091"/>
<path d="M30.6477 22.708H21.5924C21.2701 22.708 21.0063 22.447 21.0063 22.1279C21.0063 21.8089 21.2701 21.5479 21.5924 21.5479H30.6477C30.9701 21.5479 31.2338 21.8089 31.2338 22.1279C31.2338 22.447 30.9701 22.708 30.6477 22.708Z" fill="#000091"/>
</svg>
