<svg width="52" height="52" viewBox="0 0 52 52" fill="none" xmlns="http://www.w3.org/2000/svg">
<path fill-rule="evenodd" clip-rule="evenodd" d="M12.5675 27.038C12.1671 27.038 11.8413 26.7123 11.8413 26.3119C11.8413 25.9114 12.1671 25.5857 12.5675 25.5857C12.9679 25.5857 13.2936 25.9114 13.2936 26.3119C13.2936 26.7123 12.9679 27.038 12.5675 27.038Z" fill="#CACAFB"/>
<path fill-rule="evenodd" clip-rule="evenodd" d="M31.8653 12.3377C31.4649 12.3377 31.1392 12.012 31.1392 11.6116C31.1392 11.2112 31.4649 10.8854 31.8653 10.8854C32.2657 10.8854 32.5915 11.2112 32.5915 11.6116C32.5915 12.012 32.2657 12.3377 31.8653 12.3377Z" fill="#CACAFB"/>
<path fill-rule="evenodd" clip-rule="evenodd" d="M40.6451 46.3573C40.2447 46.3573 39.9189 46.0315 39.9189 45.6311C39.9189 45.2307 40.2447 44.905 40.6451 44.905C41.0455 44.905 41.3712 45.2307 41.3712 45.6311C41.3712 46.0315 41.0455 46.3573 40.6451 46.3573Z" fill="#CACAFB"/>
<path fill-rule="evenodd" clip-rule="evenodd" d="M18.9405 44.2974C18.5401 44.2974 18.2144 43.9717 18.2144 43.5713C18.2144 43.1709 18.5401 42.8452 18.9405 42.8452C19.3409 42.8452 19.6666 43.1709 19.6666 43.5713C19.6666 43.9717 19.3409 44.2974 18.9405 44.2974Z" fill="#CACAFB"/>
<path d="M16.262 40.4963C15.6254 40.4963 15.0581 40.4837 14.5728 40.4585C12.9151 40.3828 11.6104 39.0781 11.5347 37.4204C11.3582 33.418 11.5915 23.4719 17.5352 17.5282C23.4789 11.5908 33.425 11.3576 37.4274 11.5341C39.085 11.6034 40.3898 12.9144 40.4654 14.5721C40.6419 18.5745 40.4024 28.5206 34.465 34.4643C29.2398 39.6895 20.9136 40.5026 16.262 40.5026V40.4963ZM35.7256 12.7569C31.263 12.7569 23.3339 13.5195 18.4302 18.4232C12.8457 24.0077 12.6314 33.5315 12.8016 37.3637C12.8457 38.3659 13.6336 39.1537 14.6358 39.1979C18.468 39.3617 27.9918 39.1537 33.5762 33.5693C39.1607 27.9849 39.375 18.4611 39.2048 14.6289C39.1607 13.6456 38.3539 12.8388 37.3706 12.7947C36.9042 12.7758 36.3432 12.7569 35.7256 12.7569Z" fill="#000091"/>
<path d="M25.5841 39.2798C25.4896 39.2798 25.3951 39.2609 25.3005 39.2105C22.7604 37.9436 20.2581 36.1157 18.071 33.9223C15.9154 31.7667 14.1064 29.3085 12.8458 26.8125C12.6883 26.5037 12.8143 26.1255 13.1232 25.9679C13.432 25.8104 13.8102 25.9364 13.9678 26.2453C15.1716 28.6278 16.8986 30.9725 18.9597 33.0336C21.0586 35.1325 23.4411 36.8784 25.8615 38.0823C26.1703 38.2398 26.2964 38.618 26.1451 38.9269C26.038 39.1475 25.8111 39.2735 25.5778 39.2735L25.5841 39.2798Z" fill="#000091"/>
<path d="M38.5052 25.9112C38.2783 25.9112 38.0577 25.7851 37.9442 25.5708C36.7467 23.2513 35.0511 20.9696 33.0405 18.959C30.9353 16.8538 28.5402 15.1079 26.1135 13.8977C25.8047 13.7401 25.6723 13.3619 25.8299 13.0531C25.9875 12.7443 26.3593 12.6119 26.6745 12.7695C29.2209 14.0364 31.7295 15.8705 33.9292 18.0703C36.0281 20.1692 37.8056 22.5643 39.0598 24.9972C39.2174 25.3061 39.0977 25.6843 38.7888 25.8481C38.6943 25.8986 38.5997 25.9175 38.4989 25.9175L38.5052 25.9112Z" fill="#000091"/>
<path d="M20.9136 32.0818C20.7497 32.0818 20.5922 32.0188 20.4661 31.899C20.2203 31.6532 20.2203 31.2561 20.4661 31.0103L31.1623 20.3078C31.4081 20.062 31.8052 20.062 32.051 20.3078C32.2968 20.5537 32.2968 20.9507 32.051 21.1966L21.3548 31.8927C21.2288 32.0188 21.0712 32.0755 20.9073 32.0755L20.9136 32.0818Z" fill="#6A6AF4"/>
<path d="M23.756 31.4263C23.5921 31.4263 23.4346 31.3632 23.3085 31.2435L21.1214 29.0564C20.8756 28.8105 20.8756 28.4135 21.1214 28.1676C21.3672 27.9218 21.7643 27.9218 22.0101 28.1676L24.1972 30.3548C24.443 30.6006 24.443 30.9977 24.1972 31.2435C24.0712 31.3696 23.9136 31.4263 23.7497 31.4263H23.756Z" fill="#6A6AF4"/>
<path d="M26.1515 29.0248C25.9876 29.0248 25.8301 28.9618 25.704 28.8421L23.5169 26.6549C23.2711 26.4091 23.2711 26.012 23.5169 25.7662C23.7627 25.5204 24.1598 25.5204 24.4056 25.7662L26.5927 27.9533C26.8386 28.1992 26.8386 28.5962 26.5927 28.8421C26.4667 28.9681 26.3091 29.0248 26.1452 29.0248H26.1515Z" fill="#6A6AF4"/>
<path d="M28.5529 26.6297C28.389 26.6297 28.2314 26.5667 28.1054 26.447L25.9182 24.2598C25.6724 24.014 25.6724 23.6169 25.9182 23.3711C26.1641 23.1253 26.5612 23.1253 26.807 23.3711L28.9941 25.5582C29.2399 25.804 29.2399 26.2011 28.9941 26.447C28.868 26.573 28.7105 26.6297 28.5466 26.6297H28.5529Z" fill="#6A6AF4"/>
<path d="M30.9479 24.2283C30.784 24.2283 30.6265 24.1653 30.5004 24.0455L28.3133 21.8584C28.0675 21.6125 28.0675 21.2155 28.3133 20.9696C28.5591 20.7238 28.9562 20.7238 29.202 20.9696L31.3891 23.1568C31.6349 23.4026 31.6349 23.7997 31.3891 24.0455C31.2631 24.1716 31.1055 24.2283 30.9416 24.2283H30.9479Z" fill="#6A6AF4"/>
</svg>
