<svg width="52" height="52" viewBox="0 0 52 52" fill="none" xmlns="http://www.w3.org/2000/svg">
<path fill-rule="evenodd" clip-rule="evenodd" d="M6.04109 41.6195C5.64069 41.6195 5.31494 41.2937 5.31494 40.8934C5.31494 40.4929 5.64069 40.1672 6.04109 40.1672C6.44148 40.1672 6.76723 40.4929 6.76723 40.8934C6.76723 41.2937 6.44148 41.6195 6.04109 41.6195Z" fill="#CACAFB"/>
<path fill-rule="evenodd" clip-rule="evenodd" d="M6.04109 9.61257C5.64069 9.61257 5.31494 9.28682 5.31494 8.88642C5.31494 8.48599 5.64069 8.16028 6.04109 8.16028C6.44148 8.16028 6.76723 8.48599 6.76723 8.88642C6.76723 9.28682 6.44148 9.61257 6.04109 9.61257Z" fill="#CACAFB"/>
<path fill-rule="evenodd" clip-rule="evenodd" d="M46.9664 8.16027C46.566 8.16027 46.2402 7.83452 46.2402 7.43412C46.2402 7.03369 46.566 6.70798 46.9664 6.70798C47.3668 6.70798 47.6925 7.03369 47.6925 7.43412C47.6925 7.83452 47.3668 8.16027 46.9664 8.16027Z" fill="#CACAFB"/>
<path fill-rule="evenodd" clip-rule="evenodd" d="M43.9903 31.0596C43.5899 31.0596 43.2642 30.7338 43.2642 30.3334C43.2642 29.933 43.5899 29.6073 43.9903 29.6073C44.3907 29.6073 44.7165 29.933 44.7165 30.3334C44.7165 30.7338 44.3907 31.0596 43.9903 31.0596Z" fill="#CACAFB"/>
<path d="M40.6476 44.2975H13.5199C13.3385 44.2975 13.1635 44.2194 13.0404 44.0828C12.9173 43.9463 12.8589 43.7707 12.8719 43.5886L13.6301 35.2319C13.6625 34.8742 13.9801 34.6141 14.3365 34.6401C14.6929 34.6726 14.9586 34.9913 14.9262 35.349L14.2328 42.9968H39.9541L38.1072 18.9413H16.0668L15.5484 25.6721C15.5224 26.0298 15.1984 26.2964 14.8549 26.2704C14.4985 26.2444 14.2328 25.9323 14.2587 25.5746L14.8225 18.2454C14.8485 17.9073 15.1271 17.6471 15.4706 17.6471H38.7099C39.0469 17.6471 39.332 17.9073 39.3579 18.2454L41.3021 43.6016C41.3151 43.7837 41.2567 43.9593 41.1336 44.0958C41.0105 44.2259 40.8355 44.304 40.6605 44.304L40.6476 44.2975Z" fill="#000091"/>
<path d="M31.2572 23.2399C30.9008 23.2399 30.6092 22.9473 30.6092 22.5896V16.1384C30.6092 14.1874 29.0279 12.6006 27.0837 12.6006C25.1396 12.6006 23.5583 14.1874 23.5583 16.1384V22.5896C23.5583 22.9473 23.2667 23.2399 22.9103 23.2399C22.5538 23.2399 22.2622 22.9473 22.2622 22.5896V16.1384C22.2622 13.472 24.4267 11.3 27.0837 11.3C29.7408 11.3 31.9053 13.472 31.9053 16.1384V22.5896C31.9053 22.9473 31.6137 23.2399 31.2572 23.2399Z" fill="#000091"/>
<path d="M32.9487 39.9923H21.2189C20.8624 39.9923 20.5708 39.6997 20.5708 39.342C20.5708 38.9843 20.8624 38.6917 21.2189 38.6917H32.9487C33.3051 38.6917 33.5967 38.9843 33.5967 39.342C33.5967 39.6997 33.3051 39.9923 32.9487 39.9923Z" fill="#000091"/>
<path d="M40.3105 15.9563C40.0836 15.9563 39.8698 15.8392 39.7531 15.6441L38.2043 13.0558L35.2491 12.4835C35.0223 12.438 34.8344 12.2754 34.7566 12.0543C34.6789 11.8332 34.7307 11.5926 34.8798 11.417L36.8498 9.14087L36.4805 6.14287C36.4545 5.91526 36.5453 5.68114 36.7332 5.54458C36.9211 5.4015 37.1609 5.37549 37.3748 5.46654L40.142 6.64363L42.8768 5.35598C43.0906 5.25843 43.3304 5.27794 43.5248 5.41451C43.7128 5.54458 43.8164 5.77219 43.797 6.00631L43.5378 9.01081L45.5921 11.2154C45.7477 11.3845 45.806 11.6251 45.7412 11.8462C45.6764 12.0673 45.4949 12.2364 45.2681 12.2884L42.3389 12.9713L40.8808 15.6116C40.7706 15.8132 40.5567 15.9433 40.3234 15.9498H40.3105V15.9563ZM36.5971 11.417L38.7292 11.8332C38.9107 11.8657 39.0662 11.9763 39.1634 12.1389L40.2845 14.0118L41.3344 12.0999C41.4251 11.9373 41.5742 11.8202 41.7556 11.7812L43.8748 11.2869L42.3907 9.69365C42.2676 9.55708 42.2028 9.37499 42.2157 9.1929L42.4037 7.02081L40.4336 7.94428C40.2651 8.02231 40.0772 8.02231 39.9087 7.95078L37.9062 7.09885L38.1719 9.26444C38.1978 9.44653 38.1395 9.62862 38.0163 9.77169L36.5906 11.417H36.5971Z" fill="#6A6AF4"/>
<path d="M12.5672 37.3065C12.5219 37.3065 12.4765 37.3065 12.4311 37.2935C12.2043 37.2479 12.0229 37.0789 11.9516 36.8577L10.7332 33.1249L7.14948 31.5381C6.93562 31.447 6.79305 31.2454 6.76713 31.0113C6.7412 30.7772 6.84489 30.5561 7.02635 30.413L10.1889 28.0979L10.5842 24.1894C10.6101 23.9553 10.7527 23.7537 10.9665 23.6627C11.1804 23.5651 11.4266 23.5911 11.6146 23.7277L14.7901 26.0298L18.6136 25.2039C18.8404 25.1584 19.0737 25.2299 19.2292 25.4055C19.3848 25.5746 19.4366 25.8217 19.3653 26.0428L18.1664 29.7822L20.1365 33.1769C20.2532 33.3785 20.2532 33.6256 20.1365 33.8272C20.0199 34.0288 19.806 34.1524 19.5727 34.1524H15.6585L13.0468 37.0854C12.9237 37.2219 12.7487 37.3 12.5607 37.3L12.5672 37.3065ZM8.70481 30.8032L11.5239 32.0518C11.6923 32.1299 11.822 32.2665 11.8803 32.442L12.8394 35.3815L14.8937 33.0794C15.0169 32.9428 15.1919 32.8648 15.3733 32.8648H18.4516L16.9027 30.1854C16.812 30.0228 16.7925 29.8342 16.8444 29.6586L17.7906 26.7192L14.7771 27.3695C14.5956 27.4085 14.4077 27.3695 14.2587 27.2589L11.7636 25.4445L11.4526 28.5206C11.4331 28.7027 11.3359 28.8718 11.1869 28.9823L8.69833 30.8032H8.70481Z" fill="#6A6AF4"/>
</svg>
