<svg width="52" height="52" viewBox="0 0 52 52" fill="none" xmlns="http://www.w3.org/2000/svg">
<path fill-rule="evenodd" clip-rule="evenodd" d="M6.04109 41.6195C5.64069 41.6195 5.31494 41.2937 5.31494 40.8934C5.31494 40.4929 5.64069 40.1672 6.04109 40.1672C6.44148 40.1672 6.76723 40.4929 6.76723 40.8934C6.76723 41.2937 6.44148 41.6195 6.04109 41.6195Z" fill="#CACAFB"/>
<path fill-rule="evenodd" clip-rule="evenodd" d="M16.0411 29.6126C15.6407 29.6126 15.3149 29.2868 15.3149 28.8864C15.3149 28.486 15.6407 28.1603 16.0411 28.1603C16.4415 28.1603 16.7672 28.486 16.7672 28.8864C16.7672 29.2868 16.4415 29.6126 16.0411 29.6126Z" fill="#CACAFB"/>
<path fill-rule="evenodd" clip-rule="evenodd" d="M46.9664 8.16027C46.566 8.16027 46.2402 7.83452 46.2402 7.43412C46.2402 7.03369 46.566 6.70798 46.9664 6.70798C47.3668 6.70798 47.6925 7.03369 47.6925 7.43412C47.6925 7.83452 47.3668 8.16027 46.9664 8.16027Z" fill="#CACAFB"/>
<path fill-rule="evenodd" clip-rule="evenodd" d="M43.9903 21.0596C43.5899 21.0596 43.2642 20.7338 43.2642 20.3334C43.2642 19.933 43.5899 19.6073 43.9903 19.6073C44.3907 19.6073 44.7165 19.933 44.7165 20.3334C44.7165 20.7338 44.3907 21.0596 43.9903 21.0596Z" fill="#CACAFB"/>
<path d="M14.1648 16.4969H10.7465C10.3821 16.4969 10.084 16.1988 10.084 15.8344V10.1173C10.084 8.81224 11.1506 7.74567 12.4556 7.74567C13.7607 7.74567 14.8273 8.81224 14.8273 10.1173V15.8344C14.8273 16.1988 14.5292 16.4969 14.1648 16.4969ZM11.4089 15.1719H13.5023V10.1173C13.5023 9.54096 13.032 9.07061 12.4556 9.07061C11.8793 9.07061 11.4089 9.54096 11.4089 10.1173V15.1719Z" fill="#000091"/>
<path d="M12.4554 44.2544C12.0911 44.2544 11.793 43.9563 11.793 43.5919V16.0133C11.793 15.6489 12.0911 15.3508 12.4554 15.3508C12.8198 15.3508 13.1179 15.6489 13.1179 16.0133V43.5919C13.1179 43.9563 12.8198 44.2544 12.4554 44.2544Z" fill="#000091"/>
<path d="M14.695 42.2537H10.2167C9.85231 42.2537 9.5542 41.9556 9.5542 41.5912C9.5542 41.2269 9.85231 40.9287 10.2167 40.9287H14.695C15.0593 40.9287 15.3574 41.2269 15.3574 41.5912C15.3574 41.9556 15.0593 42.2537 14.695 42.2537Z" fill="#000091"/>
<path d="M41.2532 16.4969H37.8348C37.4705 16.4969 37.1724 16.1988 37.1724 15.8344V10.1173C37.1724 8.81224 38.2389 7.74567 39.544 7.74567C40.8491 7.74567 41.9156 8.81224 41.9156 10.1173V15.8344C41.9156 16.1988 41.6175 16.4969 41.2532 16.4969ZM38.4973 15.1719H40.5907V10.1173C40.5907 9.54096 40.1204 9.07061 39.544 9.07061C38.9677 9.07061 38.4973 9.54096 38.4973 10.1173V15.1719Z" fill="#000091"/>
<path d="M39.5443 44.2544C39.1799 44.2544 38.8818 43.9563 38.8818 43.5919V16.0133C38.8818 15.6489 39.1799 15.3508 39.5443 15.3508C39.9087 15.3508 40.2068 15.6489 40.2068 16.0133V43.5919C40.2068 43.9563 39.9087 44.2544 39.5443 44.2544Z" fill="#000091"/>
<path d="M41.7833 42.2537H37.305C36.9407 42.2537 36.6426 41.9556 36.6426 41.5912C36.6426 41.2269 36.9407 40.9287 37.305 40.9287H41.7833C42.1477 40.9287 42.4458 41.2269 42.4458 41.5912C42.4458 41.9556 42.1477 42.2537 41.7833 42.2537Z" fill="#000091"/>
<path d="M23.8175 17.4972C23.7115 17.4972 23.6121 17.4707 23.5127 17.4244L21.3332 16.2849L19.1537 17.4244C18.8291 17.5966 18.4316 17.4707 18.2594 17.1461C18.0871 16.8215 18.213 16.424 18.5376 16.2518L21.0219 14.9533C21.214 14.854 21.4458 14.854 21.6379 14.9533L24.1222 16.2518C24.4468 16.424 24.5727 16.8215 24.4004 17.1461C24.2812 17.3714 24.0493 17.5038 23.8108 17.5038L23.8175 17.4972Z" fill="#6A6AF4"/>
<path d="M23.8175 20.5048C23.7115 20.5048 23.6121 20.4783 23.5127 20.432L21.3332 19.2925L19.1537 20.432C18.8291 20.5976 18.4316 20.4783 18.2594 20.1537C18.0871 19.8291 18.213 19.4316 18.5376 19.2594L21.0219 17.9609C21.214 17.8616 21.4458 17.8616 21.6379 17.9609L24.1222 19.2594C24.4468 19.4316 24.5727 19.8291 24.4004 20.1537C24.2812 20.379 24.0493 20.5114 23.8108 20.5114L23.8175 20.5048Z" fill="#6A6AF4"/>
<path d="M33.191 17.4972C33.085 17.4972 32.9856 17.4707 32.8863 17.4244L30.7067 16.2849L28.5272 17.4244C28.2026 17.5966 27.8051 17.4707 27.6329 17.1461C27.4606 16.8215 27.5865 16.424 27.9111 16.2518L30.3954 14.9533C30.5875 14.854 30.8194 14.854 31.0115 14.9533L33.4957 16.2518C33.8204 16.424 33.9462 16.8215 33.774 17.1461C33.6547 17.3714 33.4229 17.5038 33.1844 17.5038L33.191 17.4972Z" fill="#6A6AF4"/>
<path d="M33.191 20.5048C33.085 20.5048 32.9856 20.4783 32.8863 20.432L30.7067 19.2925L28.5272 20.432C28.2026 20.5976 27.8051 20.4783 27.6329 20.1537C27.4606 19.8291 27.5865 19.4316 27.9111 19.2594L30.3954 17.9609C30.5875 17.8616 30.8194 17.8616 31.0115 17.9609L33.4957 19.2594C33.8204 19.4316 33.9462 19.8291 33.774 20.1537C33.6547 20.379 33.4229 20.5114 33.1844 20.5114L33.191 20.5048Z" fill="#6A6AF4"/>
<path d="M21.3461 30.2497C20.9817 30.2497 20.6836 29.9516 20.6836 29.5873V24.2809C20.6836 23.9165 20.9817 23.6184 21.3461 23.6184C21.7104 23.6184 22.0085 23.9165 22.0085 24.2809V29.5873C22.0085 29.9516 21.7104 30.2497 21.3461 30.2497Z" fill="#6A6AF4"/>
<path d="M30.5477 30.2497C30.1834 30.2497 29.8853 29.9516 29.8853 29.5873V24.2809C29.8853 23.9165 30.1834 23.6184 30.5477 23.6184C30.9121 23.6184 31.2102 23.9165 31.2102 24.2809V29.5873C31.2102 29.9516 30.9121 30.2497 30.5477 30.2497Z" fill="#6A6AF4"/>
<path d="M21.3729 43.7774C19.9089 43.7774 18.7231 42.6313 18.6701 41.1739L17.5439 11.8331C17.5041 10.7798 17.8817 9.78606 18.6104 9.03085C19.3392 8.27563 20.3196 7.85165 21.3729 7.85165C22.4263 7.85165 23.4067 8.26901 24.1354 9.02422C24.8641 9.77944 25.2418 10.7798 25.202 11.8265L24.0758 41.1672C24.0228 42.6247 22.8304 43.7707 21.3729 43.7707V43.7774ZM21.3729 9.17659C20.684 9.17659 20.0414 9.4482 19.5644 9.94506C19.0874 10.4419 18.8423 11.0911 18.8688 11.7801L19.995 41.1209C20.0215 41.8628 20.631 42.4524 21.3796 42.4524C22.1281 42.4524 22.731 41.8695 22.7641 41.1209L23.8903 11.7801C23.9168 11.0911 23.6717 10.4419 23.1881 9.94506C22.7045 9.4482 22.0685 9.17659 21.3796 9.17659H21.3729Z" fill="#000091"/>
<path d="M30.6273 43.7774C29.1633 43.7774 27.9775 42.6313 27.9245 41.1739L26.7983 11.8331C26.7585 10.7798 27.1361 9.78606 27.8648 9.03085C28.5935 8.27563 29.5806 7.85165 30.6273 7.85165C31.674 7.85165 32.6611 8.26901 33.3898 9.02422C34.1185 9.77944 34.4961 10.7798 34.4564 11.8265L33.3302 41.1672C33.2772 42.6247 32.0848 43.7707 30.6273 43.7707V43.7774ZM30.6273 9.17659C29.9384 9.17659 29.2958 9.4482 28.8188 9.94506C28.3418 10.4419 28.0967 11.0911 28.1232 11.7801L29.2494 41.1209C29.2759 41.8628 29.8854 42.4524 30.634 42.4524C31.3825 42.4524 31.9854 41.8695 32.0185 41.1209L33.1447 11.7801C33.1712 11.0911 32.9261 10.4419 32.4425 9.94506C31.9589 9.4482 31.3229 9.17659 30.634 9.17659H30.6273Z" fill="#000091"/>
</svg>
