<svg width="52" height="52" viewBox="0 0 52 52" fill="none" xmlns="http://www.w3.org/2000/svg">
<path d="M31.3976 42.1206C31.0747 42.1206 30.7518 42.051 30.4605 41.9053L9.34504 31.5787C8.7942 31.3064 8.38266 30.8189 8.22437 30.2238C8.05975 29.6349 8.16105 29.0018 8.49662 28.4889L12.8527 21.8219C12.9476 21.6763 13.0933 21.5813 13.2642 21.5433C13.4352 21.5053 13.6061 21.5433 13.7517 21.6509C13.7771 21.6699 16.4426 23.5124 19.8869 23.1072C20.9886 22.9806 22.008 23.7023 22.2549 24.7977C22.5462 26.102 23.2426 27.8874 24.8698 28.9955C25.3383 29.3184 25.9525 29.6603 26.6616 30.0528C30.0426 31.9333 35.1458 34.7824 33.4553 40.5821C33.278 41.1835 32.8475 41.6774 32.2713 41.9307C31.9927 42.051 31.6951 42.1143 31.4039 42.1143L31.3976 42.1206ZM9.55398 29.1791C9.41469 29.3943 9.3767 29.6413 9.44634 29.8882C9.51599 30.1351 9.67428 30.3314 9.90221 30.439L31.0114 40.7593C31.2456 40.8733 31.5115 40.8796 31.7521 40.772C31.9864 40.6707 32.1637 40.4681 32.2333 40.2212C33.6452 35.3902 29.2512 32.94 26.0411 31.1545C25.332 30.7619 24.6609 30.3884 24.148 30.0338C22.1853 28.6915 21.3622 26.5895 21.0139 25.0699C20.9126 24.6077 20.4884 24.3038 20.0262 24.3608C17.0378 24.7154 14.6192 23.6137 13.5681 23.0249L9.54765 29.1791H9.55398Z" fill="#000091"/>
<path d="M32.4044 40.8796C32.3347 40.8796 32.2651 40.867 32.1954 40.8417C31.8662 40.7277 24.0975 37.9608 20.1783 34.5988C16.4237 31.3761 9.6237 28.5143 9.55406 28.4889C9.23115 28.356 9.0792 27.9824 9.21216 27.6595C9.34512 27.3366 9.71868 27.1847 10.0416 27.3176C10.3265 27.4379 17.0948 30.2808 21.0014 33.6364C24.7433 36.8465 32.5373 39.6197 32.6133 39.645C32.9425 39.759 33.1135 40.1262 32.9995 40.4554C32.9045 40.715 32.6639 40.8796 32.4044 40.8796Z" fill="#000091"/>
<path d="M20.2227 29.407C19.9948 29.407 19.7795 29.2867 19.6656 29.0715C19.5009 28.7612 19.6149 28.3813 19.9252 28.2167L22.3248 26.9251C22.635 26.7605 23.0149 26.8744 23.1795 27.1847C23.3442 27.4949 23.2302 27.8748 22.9199 28.0394L20.5203 29.331C20.4253 29.3817 20.324 29.407 20.2227 29.407Z" fill="#000091"/>
<path d="M22.2109 30.3757C21.9893 30.3757 21.7677 30.2554 21.6537 30.0465C21.4828 29.7426 21.5967 29.3564 21.907 29.1854L23.3759 28.3813C23.6798 28.2104 24.066 28.3243 24.237 28.6346C24.4079 28.9385 24.294 29.3247 23.9837 29.4957L22.5148 30.2998C22.4198 30.3504 22.3122 30.3757 22.2109 30.3757Z" fill="#000091"/>
<path d="M15.4929 29.4387C15.151 29.4387 14.8091 29.3627 14.4862 29.2044C13.3529 28.6472 12.878 27.2733 13.4352 26.14C13.7011 25.5891 14.1697 25.1776 14.7522 24.9813C15.3283 24.7787 15.9551 24.823 16.4996 25.089C17.0505 25.3549 17.462 25.8234 17.6583 26.4059C17.8546 26.9821 17.8166 27.6089 17.5507 28.1534C17.2847 28.7042 16.8162 29.1158 16.2337 29.312C15.9931 29.3944 15.7399 29.4387 15.4866 29.4387H15.4929ZM15.4929 26.121C15.379 26.121 15.2713 26.14 15.1574 26.178C14.8978 26.2666 14.6888 26.4502 14.5685 26.6971C14.3216 27.2037 14.5306 27.8178 15.0371 28.0711C15.284 28.1914 15.5626 28.2104 15.8222 28.1217C16.0818 28.0331 16.2907 27.8495 16.411 27.6025C16.5313 27.3556 16.5503 27.077 16.4617 26.8174C16.373 26.5579 16.1894 26.3489 15.9425 26.2286C15.7968 26.159 15.6449 26.121 15.4929 26.121Z" fill="#000091"/>
<path d="M33.7909 30.0465C33.2084 30.0465 32.6196 29.9958 32.0371 29.8945C31.7015 29.8376 31.4736 29.5273 31.5179 29.1917L31.5812 28.6726L29.8654 27.3683L28.2572 28.0457C28.0483 28.1344 27.8077 28.1027 27.624 27.9634C26.2311 26.8998 25.1421 25.4815 24.4646 23.8733C24.1164 23.0502 23.8821 22.1575 23.7618 21.2331C23.7302 20.9798 23.8505 20.7329 24.0721 20.6063C24.2937 20.4796 24.5659 20.4986 24.7685 20.6506L25.1104 20.9102L27.0985 20.0744L27.3708 17.9344L25.655 16.6301L25.3574 16.7567C25.1168 16.858 24.8445 16.801 24.6609 16.6174C24.4773 16.4338 24.4266 16.1552 24.5343 15.921C25.446 13.8506 27.0352 12.1284 29.0233 11.0711C29.2386 10.9571 29.5045 10.9761 29.7008 11.128L31.3786 12.4007L33.3667 11.5649L33.506 10.4506C33.544 10.1213 33.8352 9.85542 34.1581 9.89974C36.4438 9.99471 38.6598 10.8685 40.3883 12.3753C40.5466 12.5146 40.6289 12.7236 40.6036 12.9325L40.5276 13.5277L42.484 15.0092C42.56 15.0662 42.617 15.1359 42.6613 15.2182C42.8259 15.5221 42.9589 15.8007 43.0665 16.0666C45.2192 21.1951 42.8006 27.1214 37.6721 29.2741C36.4311 29.7932 35.1142 30.0592 33.7846 30.0592L33.7909 30.0465ZM32.8538 28.7295C34.3291 28.8878 35.817 28.6726 37.1909 28.0964C41.6736 26.2096 43.7883 21.0305 41.9079 16.5415C41.8192 16.3262 41.7179 16.1236 41.6166 15.921L39.4829 14.3001C39.3056 14.1608 39.2106 13.9392 39.236 13.7176L39.3119 13.1035C37.995 12.0398 36.3805 11.375 34.6963 11.1914L34.5823 12.0714C34.557 12.293 34.4051 12.4893 34.2024 12.578L31.5369 13.6986C31.328 13.7873 31.0874 13.7556 30.9101 13.6226L29.2702 12.3817C28.0103 13.1288 26.9529 14.1925 26.1995 15.4524L28.4345 17.1493C28.6118 17.2886 28.7067 17.5102 28.6814 17.7318L28.3205 20.5999C28.2952 20.8215 28.1432 21.0178 27.9406 21.1065L25.2751 22.2271C25.2751 22.2271 25.2561 22.2335 25.2497 22.2398C25.351 22.6387 25.484 23.0249 25.6423 23.3921C26.1868 24.6837 27.0415 25.8361 28.1242 26.7415L29.7198 26.0703C29.9287 25.9817 30.1693 26.0133 30.3466 26.1463L32.6449 27.8938C32.8222 28.0331 32.9172 28.2547 32.8918 28.4763L32.8602 28.7422L32.8538 28.7295ZM35.8106 24.0506C35.6777 24.0506 35.5384 24.0063 35.4308 23.924L33.1324 22.1765C32.9551 22.0372 32.8602 21.8156 32.8855 21.594L33.2464 18.7258C33.2717 18.5042 33.4237 18.3079 33.6263 18.2193L36.2918 17.0986C36.5008 17.01 36.7414 17.0416 36.9186 17.1746L39.217 18.9221C39.3943 19.0614 39.4892 19.283 39.4639 19.5046L39.103 22.3727C39.0777 22.5943 38.9257 22.7906 38.7231 22.8793L36.0576 23.9999C35.9816 24.0316 35.8929 24.0506 35.8106 24.0506ZM34.1835 21.385L35.8993 22.6893L37.8874 21.8536L38.1596 19.7135L36.4438 18.4092L34.4557 19.245L34.1835 21.385Z" fill="#6A6AF4"/>
<path d="M35.811 24.0506C35.6781 24.0506 35.5388 24.0063 35.4311 23.924L33.1328 22.1765C32.9555 22.0372 32.8606 21.8156 32.8859 21.594L33.2468 18.7258C33.2721 18.5042 33.4241 18.3079 33.6267 18.2193L36.2922 17.0986C36.5012 17.01 36.7417 17.0416 36.919 17.1746L39.2174 18.9221C39.3946 19.0614 39.4896 19.283 39.4643 19.5046L39.1034 22.3727C39.0781 22.5943 38.9261 22.7906 38.7235 22.8793L36.058 23.9999C35.982 24.0316 35.8933 24.0506 35.811 24.0506ZM34.1838 21.385L35.8997 22.6893L37.8877 21.8536L38.16 19.7135L36.4442 18.4092L34.4561 19.245L34.1838 21.385Z" fill="#6A6AF4"/>
<path d="M25.0281 22.2651C24.8952 22.2651 24.7559 22.2208 24.6483 22.1385L24.0151 21.6573C23.8821 21.556 23.7935 21.404 23.7682 21.2331C23.5402 19.4286 23.8062 17.5861 24.5406 15.9146C24.6039 15.7627 24.7242 15.6487 24.8762 15.5854L25.5093 15.3195C25.7183 15.2308 25.9589 15.2625 26.1362 15.3955L28.4345 17.1429C28.6118 17.2822 28.7067 17.5038 28.6814 17.7254L28.3205 20.5936C28.2952 20.8152 28.1432 21.0115 27.9406 21.1001L25.2751 22.2208C25.1991 22.2524 25.1105 22.2714 25.0281 22.2714V22.2651ZM24.9965 20.8152L25.1231 20.9102L27.1112 20.0744L27.3835 17.9344L25.6676 16.6301L25.6106 16.6554C25.0725 17.9724 24.8699 19.4033 25.0028 20.8152H24.9965Z" fill="#6A6AF4"/>
<path d="M32.1448 29.9008C32.1068 29.9008 32.0688 29.9008 32.0371 29.8945C30.4416 29.6159 28.9157 28.9448 27.6304 27.9571C27.4531 27.8178 27.3582 27.5962 27.3898 27.3746C27.4215 27.153 27.5671 26.9567 27.7697 26.8744L29.7135 26.0576C29.9224 25.969 30.163 26.0007 30.3403 26.1336L32.6386 27.8811C32.8159 28.0204 32.9109 28.242 32.8855 28.4636L32.7716 29.35C32.7526 29.521 32.6576 29.6792 32.5183 29.7805C32.4107 29.8629 32.2777 29.9072 32.1448 29.9072V29.9008ZM29.3399 27.5835C29.9351 27.9254 30.5682 28.204 31.233 28.4003L29.8654 27.3619L29.3462 27.5835H29.3399Z" fill="#6A6AF4"/>
<path d="M31.2897 13.7493C31.1567 13.7493 31.0175 13.705 30.9098 13.6227L28.9407 12.1284C28.7698 11.9955 28.6748 11.7865 28.6938 11.5713C28.7128 11.356 28.8394 11.166 29.0294 11.0647C29.3016 10.9191 29.5739 10.7862 29.8651 10.6659C31.2201 10.0897 32.67 9.8301 34.1642 9.88709C34.3415 9.89342 34.5061 9.97573 34.6201 10.1087C34.734 10.2416 34.7847 10.4189 34.7657 10.5962L34.5821 12.0714C34.5567 12.293 34.4048 12.4893 34.2022 12.578L31.5366 13.6986C31.4607 13.7303 31.372 13.7493 31.2897 13.7493ZM30.5426 11.7485L31.3847 12.388L33.3728 11.5523L33.4234 11.1534C32.4294 11.1914 31.4607 11.3876 30.5426 11.7485Z" fill="#6A6AF4"/>
<path d="M42.1041 16.1362C41.9712 16.1362 41.8319 16.0919 41.7242 16.0096L39.4766 14.3064C39.2993 14.1671 39.2043 13.9455 39.2296 13.7239L39.3499 12.7679C39.3816 12.5336 39.5335 12.3373 39.7551 12.255C39.9704 12.1727 40.2173 12.217 40.3946 12.369C41.3253 13.1794 42.0915 14.1355 42.6613 15.2118C42.8006 15.4778 42.7373 15.8007 42.5157 15.9906C42.3954 16.0919 42.2497 16.1426 42.1041 16.1426V16.1362Z" fill="#6A6AF4"/>
<path fill-rule="evenodd" clip-rule="evenodd" d="M41.7066 9.36016C41.3062 9.36016 40.9805 9.03441 40.9805 8.63401C40.9805 8.23358 41.3062 7.90787 41.7066 7.90787C42.107 7.90787 42.4328 8.23358 42.4328 8.63401C42.4328 9.03441 42.107 9.36016 41.7066 9.36016Z" fill="#CACAFB"/>
<path fill-rule="evenodd" clip-rule="evenodd" d="M36.9014 36.2288C36.501 36.2288 36.1753 35.903 36.1753 35.5026C36.1753 35.1022 36.501 34.7765 36.9014 34.7765C37.3018 34.7765 37.6276 35.1022 37.6276 35.5026C37.6276 35.903 37.3018 36.2288 36.9014 36.2288Z" fill="#CACAFB"/>
<path fill-rule="evenodd" clip-rule="evenodd" d="M8.14704 23.7237C7.74665 23.7237 7.4209 23.398 7.4209 22.9976C7.4209 22.5972 7.74665 22.2715 8.14704 22.2715C8.54744 22.2715 8.87319 22.5972 8.87319 22.9976C8.87319 23.398 8.54744 23.7237 8.14704 23.7237Z" fill="#CACAFB"/>
</svg>
