<svg width="52" height="52" viewBox="0 0 52 52" fill="none" xmlns="http://www.w3.org/2000/svg">
<path fill-rule="evenodd" clip-rule="evenodd" d="M10.4 47.45C10.0416 47.45 9.75 47.1584 9.75 46.8C9.75 46.4416 10.0416 46.15 10.4 46.15C10.7584 46.15 11.05 46.4416 11.05 46.8C11.05 47.1584 10.7584 47.45 10.4 47.45Z" fill="#CACAFB"/>
<path fill-rule="evenodd" clip-rule="evenodd" d="M5.8502 9.75001C5.49179 9.75001 5.2002 9.45842 5.2002 9.10001C5.2002 8.74157 5.49179 8.45001 5.8502 8.45001C6.20861 8.45001 6.5002 8.74157 6.5002 9.10001C6.5002 9.45842 6.20861 9.75001 5.8502 9.75001Z" fill="#CACAFB"/>
<path fill-rule="evenodd" clip-rule="evenodd" d="M40.2999 48.1C39.9415 48.1 39.6499 47.8084 39.6499 47.45C39.6499 47.0915 39.9415 46.8 40.2999 46.8C40.6583 46.8 40.9499 47.0915 40.9499 47.45C40.9499 47.8084 40.6583 48.1 40.2999 48.1Z" fill="#CACAFB"/>
<path fill-rule="evenodd" clip-rule="evenodd" d="M42.9 6.50001C42.5416 6.50001 42.25 6.20842 42.25 5.85001C42.25 5.49157 42.5416 5.20001 42.9 5.20001C43.2584 5.20001 43.55 5.49157 43.55 5.85001C43.55 6.20842 43.2584 6.50001 42.9 6.50001Z" fill="#CACAFB"/>
<path fill-rule="evenodd" clip-rule="evenodd" d="M50.6998 33.8C50.3414 33.8 50.0498 33.5084 50.0498 33.15C50.0498 32.7916 50.3414 32.5 50.6998 32.5C51.0582 32.5 51.3498 32.7916 51.3498 33.15C51.3498 33.5084 51.0582 33.8 50.6998 33.8Z" fill="#CACAFB"/>
<path d="M17.5592 20.5205C12.5758 21.467 8.21531 24.1175 4.49284 28.4518C4.32064 28.6524 4.28699 28.9372 4.40774 29.1723L4.74415 29.8017L5.13536 30.5047L5.46455 31.0787C5.52144 31.1767 5.57933 31.2758 5.63821 31.3759L6.00321 31.9888C7.25925 34.0721 8.64116 36.1104 10.1099 37.9529C10.2422 38.1189 10.3745 38.2824 10.5066 38.4434L10.9027 38.9184C14.9253 43.6678 18.8292 45.9732 22.4292 44.6629C26.4483 43.2 28.3516 38.9027 28.2197 31.9317C28.2129 31.5728 27.9164 31.2873 27.5575 31.2941C27.1985 31.3009 26.9131 31.5974 26.9199 31.9563C27.0425 38.4341 25.3706 42.2088 21.9846 43.4413C19.0722 44.5013 15.5887 42.4342 11.8938 38.0765L11.5108 37.6176C11.3829 37.4619 11.2548 37.3036 11.1264 37.1425C9.6967 35.349 8.34545 33.3559 7.11652 31.3176C6.99356 31.1136 6.87437 30.9134 6.75908 30.7174L6.42502 30.1422L6.11509 29.5947L5.96939 29.3322L5.76934 28.9657L5.98813 28.7216C9.40765 24.9471 13.3412 22.6449 17.8018 21.7976C18.1545 21.7307 18.3861 21.3905 18.3191 21.0378C18.2521 20.6851 17.9119 20.4535 17.5592 20.5205Z" fill="#6A6AF4"/>
<path d="M29.9855 35.3132C29.6273 35.2903 29.3183 35.5622 29.2954 35.9204C29.1308 38.4938 28.5565 40.4981 27.5882 41.9388C27.388 42.2368 27.4671 42.6406 27.7651 42.8409C28.063 43.0412 28.4669 42.962 28.6671 42.664C29.7779 41.0114 30.4146 38.7894 30.5927 36.0034C30.6156 35.6451 30.3438 35.3361 29.9855 35.3132Z" fill="#6A6AF4"/>
<path d="M17.0792 31.6474C17.3542 31.8782 17.3901 32.2882 17.1594 32.5632C16.9286 32.8382 16.5186 32.8741 16.2436 32.6433C14.8686 31.4895 12.8187 31.6689 11.6649 33.0439C11.4342 33.3189 11.0242 33.3548 10.7492 33.124C10.4742 32.8932 10.4383 32.4833 10.6691 32.2083C12.2843 30.2833 15.1542 30.0322 17.0792 31.6474Z" fill="#6A6AF4"/>
<path d="M20.5143 21.3327C20.8517 21.2099 21.0256 20.8369 20.9028 20.4995C20.78 20.1622 20.407 19.9883 20.0697 20.1111C19.7324 20.2338 19.5584 20.6068 19.6812 20.9442C19.804 21.2815 20.177 21.4554 20.5143 21.3327Z" fill="#6A6AF4"/>
<path d="M18.9555 30.9645C18.8932 31.3181 19.1292 31.6552 19.4827 31.7175C19.8363 31.7799 20.1734 31.5438 20.2357 31.1903C20.5474 29.4226 22.2331 28.2423 24.0007 28.554C24.3543 28.6164 24.6914 28.3803 24.7537 28.0268C24.8161 27.6732 24.58 27.3361 24.2265 27.2738C21.7517 26.8374 19.3919 28.4898 18.9555 30.9645Z" fill="#6A6AF4"/>
<path d="M22.7909 35.8832C23.1018 36.0627 23.2083 36.4602 23.0288 36.7711C21.7724 38.9473 18.9896 39.693 16.8134 38.4365C16.5025 38.257 16.396 37.8595 16.5755 37.5486C16.755 37.2377 17.1525 37.1312 17.4634 37.3107C19.0178 38.2081 21.0055 37.6755 21.903 36.1211C22.0825 35.8102 22.48 35.7037 22.7909 35.8832Z" fill="#6A6AF4"/>
<path d="M42.9208 10.3111C38.092 7.10654 32.503 5.98152 26.1864 6.93326C25.921 6.97326 25.7074 7.17235 25.6489 7.43437L25.5084 8.11751L25.4193 8.5853L25.3083 9.20371L25.1983 9.85841C25.162 10.0824 25.1261 10.3121 25.0907 10.547C24.7368 12.8972 24.5092 15.2942 24.4737 17.6011C24.4705 17.809 24.4688 18.0148 24.4687 18.2187L24.4731 18.8243C24.5652 24.9193 26.1229 29.1238 29.7393 30.44C33.6541 31.8649 37.1996 30.7571 40.9327 26.6558L41.2779 26.2687C41.8541 25.6094 42.4351 24.8788 43.023 24.0754L43.3766 23.5846C43.4947 23.4181 43.6132 23.2486 43.7319 23.0762L44.0891 22.5502C44.1488 22.461 44.2086 22.3712 44.2684 22.2805L44.6285 21.7279L44.9908 21.1574L45.3552 20.569L45.7218 19.9625L46.0909 19.338L46.4624 18.6953L46.8366 18.0344L47.2133 17.3551C47.3862 17.0404 47.2712 16.6453 46.9565 16.4724C46.6419 16.2996 46.2467 16.4146 46.0739 16.7292C46.0136 16.839 45.9534 16.9481 45.8934 17.0564L45.5349 17.6971L45.1796 18.3198C45.1206 18.4221 45.0618 18.5236 45.0031 18.6244L44.6525 19.2203L44.3048 19.7985L43.9601 20.3591C43.9029 20.451 43.8458 20.5423 43.7888 20.6328L43.4482 21.1671L43.1102 21.6841L42.7749 22.1839C42.7192 22.2657 42.6636 22.3469 42.6081 22.4273L42.2764 22.9014L41.9469 23.3586C41.8922 23.4333 41.8376 23.5074 41.783 23.5808L41.4569 24.0127L41.1328 24.4278L40.8107 24.8264L40.4905 25.2085L40.1721 25.5742L39.8553 25.9237C36.5377 29.5078 33.4822 30.4189 30.1839 29.2184C27.0402 28.0742 25.6774 23.8655 25.7735 17.6211C25.808 15.3785 26.0303 13.0374 26.3762 10.7406C26.4108 10.5107 26.446 10.2861 26.4815 10.067L26.5889 9.42701L26.6974 8.82295L26.8257 8.15499L27.127 8.11586C32.8238 7.40545 37.8393 8.49908 42.202 11.3943C42.5011 11.5928 42.9045 11.5112 43.103 11.2121C43.3015 10.913 43.2199 10.5096 42.9208 10.3111Z" fill="#000091"/>
<path d="M23.8349 9.6304C23.9008 9.27752 23.6682 8.938 23.3154 8.87205C22.9625 8.8061 22.623 9.0387 22.557 9.39158L22.5268 9.55998L22.3824 10.4523L22.2971 11.0374L22.2542 11.3488C22.0505 12.8595 21.8905 14.4724 21.8022 16.1226C21.783 16.481 22.0581 16.7872 22.4166 16.8063C22.775 16.8255 23.0812 16.5505 23.1004 16.192C23.1866 14.5792 23.3433 13.0005 23.5426 11.5226L23.6262 10.9269C23.64 10.8317 23.6539 10.7387 23.6676 10.6479L23.7491 10.1299L23.8349 9.6304Z" fill="#000091"/>
<path d="M34.2365 16.6646C34.2988 17.0181 34.0628 17.3552 33.7092 17.4176C33.3557 17.4799 33.0186 17.2438 32.9562 16.8903C32.6445 15.1226 30.9589 13.9423 29.1913 14.254C28.8377 14.3164 28.5006 14.0803 28.4383 13.7268C28.3759 13.3732 28.612 13.0361 28.9655 12.9738C31.4402 12.5374 33.8001 14.1898 34.2365 16.6646Z" fill="#000091"/>
<path d="M44.4333 13.0489C44.7706 13.1717 45.1436 12.9977 45.2664 12.6604C45.3891 12.3231 45.2152 11.9501 44.8779 11.8273C44.5405 11.7045 44.1675 11.8784 44.0448 12.2158C43.922 12.5531 44.0959 12.9261 44.4333 13.0489Z" fill="#000091"/>
<path d="M36.1127 17.3475C35.8377 17.5782 35.8019 17.9882 36.0326 18.2632C36.2634 18.5382 36.6734 18.5741 36.9484 18.3433C38.3234 17.1896 40.3733 17.3689 41.5271 18.7439C41.7578 19.0189 42.1678 19.0548 42.4428 18.824C42.7178 18.5933 42.7537 18.1833 42.5229 17.9083C40.9077 15.9833 38.0377 15.7322 36.1127 17.3475Z" fill="#000091"/>
<path d="M35.8892 23.5807C36.012 23.918 35.838 24.291 35.5007 24.4138C33.1393 25.2733 30.5284 24.0557 29.6689 21.6944C29.5461 21.3571 29.7201 20.9841 30.0574 20.8613C30.3947 20.7385 30.7677 20.9124 30.8905 21.2498C31.5044 22.9365 33.3694 23.8061 35.0561 23.1922C35.3934 23.0694 35.7664 23.2434 35.8892 23.5807Z" fill="#000091"/>
</svg>
