<svg width="52" height="52" viewBox="0 0 52 52" fill="none" xmlns="http://www.w3.org/2000/svg">
<path d="M23.6883 26.0946C23.4936 26.0946 23.305 26.0031 23.1894 25.8322L12.397 10.1546C12.2084 9.87392 12.2754 9.49556 12.5491 9.30638C12.829 9.1172 13.2061 9.18433 13.3947 9.45895L24.1811 25.1304C24.3696 25.4111 24.3027 25.7895 24.029 25.9787C23.9255 26.0519 23.8039 26.0885 23.6822 26.0885L23.6883 26.0946Z" fill="#6A6AF4"/>
<path d="M35.6366 20.2666C35.2168 20.2666 34.797 20.2239 34.3955 20.1446C34.067 20.0774 33.854 19.7601 33.9149 19.4245C33.9818 19.0949 34.3042 18.8752 34.6327 18.9424C34.9613 19.0095 35.2959 19.04 35.6366 19.04C38.4776 19.04 40.7833 16.721 40.7833 13.8772C40.7833 11.0334 38.4715 8.71441 35.6366 8.71441C32.8016 8.71441 30.5871 10.9052 30.4898 13.7002C30.4776 14.0359 30.2039 14.3227 29.8632 14.2861C29.5286 14.2739 29.267 13.9932 29.2731 13.6575C29.3886 10.2034 32.1871 7.4939 35.6366 7.4939C39.086 7.4939 42 10.356 42 13.8772C42 17.3984 39.1468 20.2605 35.6366 20.2605V20.2666Z" fill="#6A6AF4"/>
<path d="M35.5937 12.2234C35.2591 12.2234 34.9854 11.9488 34.9854 11.6132V10.4842C34.9854 10.1485 35.2591 9.87393 35.5937 9.87393C35.9283 9.87393 36.2021 10.1485 36.2021 10.4842V11.6132C36.2021 11.9488 35.9283 12.2234 35.5937 12.2234Z" fill="#6A6AF4"/>
<path d="M39.0312 14.5424H37.9057C37.5711 14.5424 37.2974 14.2678 37.2974 13.9321C37.2974 13.5965 37.5711 13.3219 37.9057 13.3219H39.0312C39.3658 13.3219 39.6396 13.5965 39.6396 13.9321C39.6396 14.2678 39.3658 14.5424 39.0312 14.5424Z" fill="#6A6AF4"/>
<path d="M38.0274 16.9834C37.8693 16.9834 37.7172 16.9224 37.5955 16.8065L36.7986 16.007C36.5613 15.769 36.5613 15.3845 36.7986 15.1465C37.0358 14.9085 37.4191 14.9085 37.6563 15.1465L38.4533 15.946C38.6906 16.184 38.6906 16.5685 38.4533 16.8065C38.3316 16.9285 38.1795 16.9834 38.0214 16.9834H38.0274Z" fill="#6A6AF4"/>
<path d="M33.9576 12.9008C33.7995 12.9008 33.6474 12.8398 33.5257 12.7238L32.7287 11.9244C32.4915 11.6864 32.4915 11.3019 32.7287 11.0639C32.966 10.8259 33.3493 10.8259 33.5865 11.0639L34.3835 11.8634C34.6207 12.1014 34.6207 12.4858 34.3835 12.7238C34.2618 12.8459 34.1097 12.9008 33.9515 12.9008H33.9576Z" fill="#6A6AF4"/>
<path d="M37.2486 12.9008C37.0904 12.9008 36.9383 12.8398 36.8166 12.7238C36.5794 12.4858 36.5794 12.1014 36.8166 11.8634L37.6136 11.0639C37.8508 10.8259 38.2341 10.8259 38.4714 11.0639C38.7086 11.3019 38.7086 11.6864 38.4714 11.9244L37.6744 12.7238C37.5527 12.8459 37.4006 12.9008 37.2425 12.9008H37.2486Z" fill="#6A6AF4"/>
<path d="M23.676 29.329H22.7574C22.7574 29.329 22.7148 29.329 22.6905 29.329C20.543 29.091 18.8335 27.3761 18.5536 25.2585C12.9567 23.2752 10 19.4916 10 14.2983C10 13.7063 10.4806 13.2303 11.0646 13.2303H35.3627C35.9529 13.2303 36.4274 13.7125 36.4274 14.2983C36.4274 16.2389 36.0015 18.0087 35.1681 19.5587L34.6388 20.4253C33.1787 22.5612 30.9095 24.1723 27.8798 25.2463C27.6 27.3578 25.8844 29.0727 23.7369 29.3168C23.7125 29.3168 23.6943 29.3168 23.67 29.3168L23.676 29.329ZM22.7939 28.1085H23.6395C25.3186 27.9071 26.6327 26.4791 26.7057 24.7825C26.7179 24.5262 26.8821 24.3065 27.1194 24.2272C30.0821 23.2386 32.2722 21.7435 33.6228 19.7723L34.1156 18.9607C34.8213 17.6547 35.1924 16.1352 35.2167 14.457H11.2167C11.2776 19.1132 14.07 22.488 19.3141 24.2333C19.5574 24.3126 19.7217 24.5323 19.7278 24.7887C19.7947 26.4852 21.1148 27.9132 22.7939 28.1146V28.1085Z" fill="#000091"/>
<path d="M23.0923 43.9935C22.7577 43.9935 22.4839 43.7189 22.4839 43.3832V28.914C22.4839 28.5784 22.7577 28.3037 23.0923 28.3037C23.4269 28.3037 23.7006 28.5784 23.7006 28.914V43.3832C23.7006 43.7189 23.4269 43.9935 23.0923 43.9935Z" fill="#000091"/>
<path d="M27.5695 44.5H18.5048C18.1702 44.5 17.8965 44.2254 17.8965 43.8897C17.8965 43.5541 18.1702 43.2795 18.5048 43.2795H27.5695C27.9041 43.2795 28.1779 43.5541 28.1779 43.8897C28.1779 44.2254 27.9041 44.5 27.5695 44.5Z" fill="#000091"/>
<path d="M34.0915 20.5901H12.5493C12.2147 20.5901 11.9409 20.3154 11.9409 19.9798C11.9409 19.6442 12.2147 19.3695 12.5493 19.3695H34.0854C34.42 19.3695 34.6938 19.6442 34.6938 19.9798C34.6938 20.3154 34.42 20.5901 34.0854 20.5901H34.0915Z" fill="#000091"/>
<path fill-rule="evenodd" clip-rule="evenodd" d="M23.3175 6.52691C22.9171 6.52691 22.5913 6.20116 22.5913 5.80076C22.5913 5.40033 22.9171 5.07462 23.3175 5.07462C23.7179 5.07462 24.0436 5.40033 24.0436 5.80076C24.0436 6.20116 23.7179 6.52691 23.3175 6.52691Z" fill="#CACAFB"/>
<path fill-rule="evenodd" clip-rule="evenodd" d="M19.5631 8.94619C19.1627 8.94619 18.8369 8.62044 18.8369 8.22004C18.8369 7.81961 19.1627 7.4939 19.5631 7.4939C19.9635 7.4939 20.2892 7.81961 20.2892 8.22004C20.2892 8.62044 19.9635 8.94619 19.5631 8.94619Z" fill="#CACAFB"/>
<path fill-rule="evenodd" clip-rule="evenodd" d="M21.8653 12.3377C21.4649 12.3377 21.1392 12.012 21.1392 11.6116C21.1392 11.2112 21.4649 10.8854 21.8653 10.8854C22.2657 10.8854 22.5915 11.2112 22.5915 11.6116C22.5915 12.012 22.2657 12.3377 21.8653 12.3377Z" fill="#CACAFB"/>
</svg>
