<svg xmlns="http://www.w3.org/2000/svg" width="168" height="140" fill="none" viewBox="0 0 168 140"><g clip-path="url(#a)"><path fill="#b6cffb" d="M162.253 0h-61.202c-2.757 0-4.991 2.216-4.991 4.949v60.673c0 2.734 2.235 4.949 4.991 4.949h12.016c-1.644 6.018-8.289 10.486-8.289 10.486 7.52 0 14.034-4.264 17.219-10.486h40.256c2.757 0 4.991-2.217 4.991-4.949V4.95c0-2.734-2.235-4.949-4.991-4.949"/><path fill="#6a6af2" d="m83.718 139.385-75.357.005-5.493-43.426C1.494 85.107 9.306 76.306 20.315 76.306l55.424-.003 7.98 63.084z"/><path fill="#ff8b7e" d="M88.135 82.294c-1.127-6.74-4.935-19.556-36.222-14.966-12.905 1.79-14.493 7.03-11.654 12.654-20.713 4.01-29.734 35.535-24.344 50.493 1.534 4.258 2.768 8.509 7.328 8.551 4.42.039 7.76.102 10.031.192 7.802.309 93.234.418 93.234.418s-3.037-30.737-38.373-57.34z"/><path fill="#fff" d="M49.895 75.549 47.4 78.563s17.052 11.635 27.19 38.444c6.587 17.419 5.902 19.318 5.902 19.318l9.113-.117s-10.864-28.964-9.482-37.94-3.578-19.31-6.07-21.051c-2.49-1.74-24.158-1.668-24.158-1.668"/><path fill="#fff" stroke="#2e186a" stroke-linecap="round" stroke-linejoin="round" stroke-width="1.5" d="m51.744 66.817.816 5.808-2.286 3.193s9.762 5.612 19.953 15.224c0 0 5.416-6.772 4.412-17.76L56.573 68.43l-4.83-1.614z"/><path stroke="#2e186a" stroke-linecap="round" stroke-linejoin="round" stroke-width="1.5" d="M60.402 95.435s6.74 9.948 8.719 16.603M82.711 96.743s-.343 9.251 1.701 15.902"/><path fill="#2e186a" d="M88.14 82.33c.1.603.18 1.159.256 1.648.878 5.643-1.435 9.248-2.671 11.844 3.333-2.337 5.582-6.785 6.72-10.176a163 163 0 0 0-4.305-3.316M40.249 79.962c-2.333.472-5.824 1.391-8.587 3.288 2.319 1.252 15.645 9.19 23.739 11.844-4.803-3.29-12.275-9.411-15.154-15.132z"/><path fill="#fff" d="M46.882 57.16s-5.304 1.425-3.156 5.917c2.147 4.492 7.347.297 7.347.297l-2.484-6.527-1.705.313z"/><path fill="#2e186a" d="M46.734 65.58q-.422 0-.838-.09c-1.11-.25-1.97-.999-2.559-2.229-.656-1.373-.73-2.629-.218-3.73.944-2.032 3.54-2.75 3.65-2.78q.018-.005.035-.007l1.705-.313a.43.43 0 0 1 .479.267l2.484 6.528a.42.42 0 0 1-.13.48c-.105.085-2.353 1.875-4.608 1.875zm.247-8.004c-.199.058-2.341.712-3.083 2.314-.4.86-.326 1.872.216 3.005.476.997 1.12 1.573 1.97 1.765 1.72.387 3.777-.936 4.475-1.433l-2.244-5.897z"/><path fill="#fff" d="M58.305 38.489c1.376-.464 10.85-3.451 13.912 4.248 3.062 7.7 4.142 16.769 4.265 21.003s-18.771 6.945-19.905 6.846c-1.132-.1-2.681-1.002-2.681-1.002l-5.611-11.598s-4.756-14.512 10.02-19.496z"/><path fill="#2e186a" d="M56.61 71.011q-.044 0-.071-.003c-1.215-.106-2.795-1.02-2.862-1.058a.4.4 0 0 1-.169-.183l-5.61-11.598a.4.4 0 0 1-.022-.052c-.05-.152-1.212-3.774-.547-8.075.619-3.995 3-9.312 10.838-11.956 1.864-.63 11.32-3.367 14.447 4.495 3.136 7.888 4.176 17.004 4.294 21.148.019.637-.293 1.26-.926 1.852-3.727 3.48-17.94 5.432-19.373 5.432zm-2.387-1.731c.362.198 1.532.807 2.391.882.945.082 15.358-2.003 18.782-5.2.447-.419.667-.825.656-1.21-.117-4.088-1.142-13.08-4.236-20.86-1.22-3.07-3.646-4.724-7.211-4.916-2.685-.146-5.203.592-6.162.915-5.954 2.008-9.406 5.793-10.262 11.25-.616 3.926.401 7.362.501 7.688l5.54 11.45"/><path fill="#9489b2" d="M50.012 57.448c1.11.656 4.774 5.122 5.952 7.335 0 0 5.41-3.448 13.844-5.667 0 0 4.639-1.051 6.617-.963 0 0 1.708 8.448-.943 13.699-2.652 5.25-10.87 6.004-15.237 4.325-4.367-1.68-5.293-2.766-6.854-5.336-1.56-2.569-6.447-12.374-6.447-12.374l3.068-1.017z"/><path fill="#2e186a" d="M48.05 59.83s-3.473-3.222-5.447-6.975c-1.855-3.528-1.088-7.9 1.993-10.452 2.578-2.136 5.033-1.572 5.033-1.572s-4.44-4.484-.94-10.284a8.77 8.77 0 0 1 5.63-4.02c5.746-1.249 8.716 3.095 8.716 3.095s3.302-12.64 17.484-9.16c1.43.351 3.319 1.849 4.315 2.926 6.043 6.528-5.33 18.859-12.247 21.326-7.595 2.71-12.48 2.56-15.465 1.294 2.147.649 2.965 12.727-9.073 13.822zM71.907 63.475h-.003l-2.752-.014a.57.57 0 0 1-.569-.57.57.57 0 0 1 .572-.564h.003l1.92.01-2.385-6.295a.572.572 0 0 1 1.07-.398l2.678 7.066a.564.564 0 0 1-.535.765M72.394 56.424c.415-.103.621-.703.46-1.34s-.627-1.07-1.042-.967-.621.703-.46 1.34.627 1.07 1.042.967M65.126 58.093c.415-.103.62-.703.46-1.34s-.627-1.07-1.042-.967c-.415.102-.622.702-.461 1.34.16.636.627 1.07 1.043.967"/><path fill="#2e186a" d="M60.092 53.006a.564.564 0 0 1-.535-.767c.035-.09.871-2.2 3.421-2.445a.57.57 0 0 1 .625.51.57.57 0 0 1-.514.62 2.96 2.96 0 0 0-2.463 1.722.57.57 0 0 1-.534.36M72.804 49.6a.57.57 0 0 1-.49-.275c-.64-1.053-1.984-.38-2.136-.3a.574.574 0 0 1-.773-.23.564.564 0 0 1 .228-.766c.84-.455 2.688-.89 3.661.711a.564.564 0 0 1-.489.859z"/><path fill="#fff" stroke="#2e186a" stroke-linecap="round" stroke-linejoin="round" stroke-width="1.5" d="m45.233 55.165-6.984 5.446a2.48 2.48 0 0 0-.422 3.507l12.355 15.57a2.533 2.533 0 0 0 3.537.42l6.983-5.447a2.483 2.483 0 0 0 .423-3.506L48.77 55.584a2.533 2.533 0 0 0-3.537-.419"/><path fill="#6a6af2" d="M154.485 99.624H98.907c-.729 0-1.362.498-1.53 1.201l-7.727 32.426H69.503s-1.116 5.716 5.394 5.716h70.954c.729 0 1.363-.497 1.531-1.2l8.633-36.224a1.563 1.563 0 0 0-1.531-1.917z"/><path fill="#fff" d="m37.904 81.318 10.801 6.225 5.406-12.672c5.216.008 5.193-2.8 4.103-2.897-1.09-.098-6.337.633-6.337.633s.17-.378 4.427-1.18c4.257-.803 3.46-3.156 2.544-3.22s-7.687 1.618-7.687 1.618l5.818-2.059c2.071-.652 2.145-2.641 1.062-2.923-.71-.185-4.526.956-7.542 2.002 0 0 3.625-1.842 5.345-2.956s.517-2.567-.486-2.476c-1.004.09-7.988 4.72-9.317 5.866-1.33 1.148-8.135 14.036-8.135 14.036z"/><path fill="#2e186a" d="M48.705 87.968a.44.44 0 0 1-.215-.058l-10.801-6.225a.423.423 0 0 1-.165-.564c.7-1.326 6.883-12.994 8.234-14.16 1.12-.966 8.312-5.857 9.56-5.969.728-.065 1.49.437 1.737 1.144.264.755-.1 1.544-.977 2.111-.376.244-.839.52-1.333.804 1.504-.425 2.916-.746 3.406-.618.596.154.994.686 1.01 1.355.02.724-.422 1.598-1.43 2.128.539-.093.952-.144 1.15-.132.588.042 1.081.607 1.121 1.289.026.423-.105 1.721-2.446 2.48.295-.015.535-.016.697 0 .593.052 1.002.565.972 1.218-.053 1.138-1.354 2.462-4.828 2.526L49.102 87.71a.43.43 0 0 1-.394.26zm-10.23-6.813L48.5 86.934l5.216-12.227a.43.43 0 0 1 .394-.26h.022c1.85 0 2.871-.368 3.403-.677.505-.293.815-.681.83-1.038.008-.152-.05-.32-.191-.333-.855-.076-4.793.429-6.24.63a.43.43 0 0 1-.401-.166.42.42 0 0 1-.049-.429c.085-.188.262-.581 4.739-1.424 1.383-.26 2.979-.911 2.922-1.888-.018-.29-.202-.48-.328-.49-.616-.045-4.961.962-7.553 1.607a.43.43 0 0 1-.515-.29.426.426 0 0 1 .266-.523l5.818-2.06.014-.004c1.024-.323 1.468-1.012 1.454-1.553-.003-.108-.037-.468-.37-.554-.444-.103-3.358.628-7.291 1.992a.43.43 0 0 1-.537-.233.423.423 0 0 1 .2-.546c.035-.018 3.624-1.845 5.305-2.933.313-.203.812-.618.636-1.121-.118-.338-.514-.605-.849-.576-.817.094-7.53 4.432-9.074 5.764-.909.785-5.116 8.397-7.846 13.553"/><path fill="#ff8b7e" d="M57.892 136.893c9.605-5.156-2.438-47.437-2.606-48.735-.33-2.56-2.736-2.125-3.26-4.038-.525-1.914-1.104-2.608-1.104-2.608-5.006 1.322-12.168-2.477-12.168-2.477s-.316.548-1.14 2.276-3.104.65-3.844 3.064c-.491 1.602-3.196 24.741-3.196 24.741"/><path fill="#2e186a" d="M57.892 137.318a.43.43 0 0 1-.377-.223.42.42 0 0 1 .173-.576c3.407-1.83 4.337-9.326 2.687-21.682-1.35-10.111-4.057-20.79-5.074-24.81-.298-1.173-.42-1.656-.44-1.815-.156-1.207-.811-1.615-1.57-2.087-.656-.408-1.4-.872-1.68-1.894-.333-1.217-.689-1.914-.88-2.236-4.465.995-10.255-1.632-11.799-2.392-.174.335-.474.928-.932 1.89-.452.946-1.266 1.2-1.985 1.426-.802.251-1.496.468-1.836 1.579-.38 1.239-2.247 16.676-3.18 24.666a.43.43 0 0 1-.476.373.424.424 0 0 1-.376-.472c.11-.947 2.716-23.194 3.212-24.815.471-1.54 1.54-1.874 2.398-2.143.658-.205 1.178-.368 1.468-.979.82-1.723 1.142-2.283 1.155-2.306.116-.2.37-.272.575-.164.07.037 7.073 3.704 11.856 2.442a.43.43 0 0 1 .44.14c.026.031.645.79 1.186 2.768.192.701.71 1.023 1.308 1.395.784.488 1.757 1.094 1.964 2.7.016.12.195.823.42 1.716 1.023 4.033 3.739 14.747 5.094 24.906 1.724 12.917.67 20.5-3.13 22.54a.4.4 0 0 1-.204.051z"/><path fill="#2e186a" d="M52.4 83.89c-.547-2.066-.797-2.96-.797-2.96-5.31 1.452-13.246-2.48-13.246-2.48s-.337.596-1.218 2.468c-.354.754-.956 1.016-1.602 1.233 2.003 5.59 13.933 6.047 18.657 4.217-.882-1.164-1.38-.912-1.795-2.478zM34.05 106.853c-.12 0-.24-.05-.324-.148a.423.423 0 0 1 .044-.599 17.8 17.8 0 0 1 3.793-2.388c2.891-1.314 5.301-1.189 6.97.36.172.16.181.429.02.601a.43.43 0 0 1-.606.02c-3.417-3.173-9.555 1.999-9.616 2.052a.43.43 0 0 1-.28.103z"/><path stroke="#2e186a" stroke-linecap="round" stroke-linejoin="round" stroke-width="6" d="M.429 139.322h155.666"/><path fill="#2e186a" d="M70.446 67.21 63.18 65.33s-.572 4.284 4.002 5.26z"/><path fill="#6a6af2" d="M132.08 11.054h-.715v8.219h.715zM137.655 11.054h-5.575v3.542h5.575z"/><path fill="#ff8b7e" d="M152.379 32.735h-41.454l4.717-8.36h32.019z"/><path fill="#ff8b7e" d="m137.312 24.374-5.661-5.611-5.66 5.61 5.66 5.612z"/><path fill="#fff" d="M149.234 32.735h-35.165v20.123h35.165z"/><path fill="#fff" d="m137.312 32.735-5.661-5.612-5.66 5.612 5.66 5.611z"/><path fill="#6a6af2" d="M135.654 41.805h-7.862v11.053h7.862z"/><path stroke="#2e186a" stroke-linecap="round" stroke-linejoin="round" stroke-width="1.5" d="M119.787 33.869h-3.717v6.377h3.717zM126.362 33.869h-3.716v6.377h3.716zM119.787 41.805h-3.717v6.377h3.717zM126.362 41.805h-3.716v6.377h3.716zM140.657 33.869h-3.717v6.377h3.717zM147.232 33.869h-3.716v6.377h3.716zM140.657 41.805h-3.717v6.377h3.717zM147.232 41.805h-3.716v6.377h3.716z"/><path fill="#6a6af2" d="M131.652 38.545c1.973 0 3.573-1.586 3.573-3.543 0-1.956-1.6-3.542-3.573-3.542-1.974 0-3.574 1.586-3.574 3.542 0 1.957 1.6 3.543 3.574 3.543"/></g><defs><clipPath id="a"><path fill="#fff" d="M0 0h167.244v139.747H0z"/></clipPath></defs></svg>