<svg xmlns="http://www.w3.org/2000/svg" width="284" height="159" fill="none" viewBox="0 0 284 159"><g clip-path="url(#a)"><path fill="#f6f6f6" d="M1 0h282v158.625H1z"/><path stroke="#ececfe" stroke-dasharray="4 10" stroke-linecap="round" stroke-linejoin="round" stroke-width="5" d="M-61.436 68.714c4.343 14.004 20.846 41.798 52.116 40.936 39.087-1.077 49.944-62.482 121.604-63.559s160.691 81.872 188.92 40.936"/><path stroke="#d3dffc" stroke-width="11" d="M37.977 55.505c8.73 0 15.735 7.012 15.735 15.57s-7.004 15.569-15.735 15.569-15.736-7.011-15.736-15.57c0-8.557 7.005-15.569 15.736-15.569Z"/><ellipse cx="212.482" cy="89.322" fill="#fde2b5" rx="24.269" ry="24.079"/><ellipse cx="198.109" cy="24.274" fill="#fdc6ba" rx="16.988" ry="16.855"/><path fill="#fff" d="m139.384 91.805 5.788 28.263-2.911 14.6-12.371-.174s-6.149-27.998-5.786-28.914 7.353-14.488 7.353-14.488z"/><path fill="#2e186a" d="M142.261 135.166h-.008l-12.371-.174a.5.5 0 0 1-.483-.392c-.016-.07-1.555-7.083-3.03-14.118-3.013-14.372-2.839-14.819-2.734-15.083.367-.931 7.088-13.979 7.375-14.534a.5.5 0 0 1 .491-.27l7.927.714a.5.5 0 0 1 .446.396l5.788 28.263a.5.5 0 0 1 0 .196l-2.911 14.599a.5.5 0 0 1-.492.401zm-11.965-1.164 11.554.162 2.811-14.096-5.694-27.801-7.217-.65c-2.01 3.902-6.735 13.112-7.16 14.1-.06 1.387 3.336 17.476 5.706 28.285"/><path fill="#6a6af0" d="M84.796 45.946c-30.592-1.753-34.957 16.51-33.818 30.383l4.913 59.805c-.186.197 72.846.197 72.629 0l-4.913-59.805c-1.139-13.873-8.508-32.136-38.811-30.383"/><path fill="#2e186a" d="M66.465 135.122a.5.5 0 0 1-.5-.458c-.036-.441-3.61-44.248-4.763-58.296-.612-7.453.5-13.74 3.302-18.69 3.712-6.553 10.319-10.543 19.638-11.86a.503.503 0 0 1 .568.423.5.5 0 0 1-.426.563c-11.05 1.562-23.85 7.944-22.08 29.485 1.153 14.048 4.726 57.855 4.762 58.295a.5.5 0 0 1-.46.536h-.04z"/><path fill="#2e186a" d="m136.977 136.53-5.403-25.682s3.094-3.836 2.855-9.244a14 14 0 0 0-.092-1.087c.03-.074 6.526-2.173 6.895-2.946-.246-4.402-3.858-16.108-10.221-18.828-2.043-.939-6.99-2.345-7.985-2.68-4.701-1.589-14.594-4.156-23.195-2.463 0 0-13.129 2.129-16.076 3.858-1.597.938-9.542 6.045-11.059 20.174-.024.216 13.735 5.012 13.735 5.012l2.127 33.739"/><path fill="#fff" d="M114.802 67.11v7.077l2.684.504c.463.661 5.678 8.804-5.812 9.798-7.494.647-15.756-3.717-20.201-8.89l7.357-1.993 2.215-13.973 13.757 7.48z"/><path fill="#2e186a" d="M110.163 85.05c-3.182 0-6.589-.808-9.947-2.374-3.572-1.663-6.812-4.061-9.127-6.756a.5.5 0 0 1-.098-.47.5.5 0 0 1 .347-.335l7.044-1.91 2.163-13.653a.502.502 0 0 1 .736-.358l13.757 7.478a.5.5 0 0 1 .261.437v6.664l2.275.426a.5.5 0 0 1 .319.205c.11.158 2.678 3.888 1.224 6.966-.971 2.055-3.463 3.27-7.405 3.61q-.768.066-1.553.066zm-17.78-9.182c4.28 4.595 12.044 8.746 19.246 8.125 3.559-.309 5.774-1.333 6.583-3.044 1.057-2.238-.582-5.097-1.031-5.808l-2.476-.464a.5.5 0 0 1-.409-.49v-6.782l-12.869-6.997-2.102 13.273a.5.5 0 0 1-.363.403l-6.579 1.782z"/><path fill="#fd7624" d="m95.595 30.375 3.128-1.443-2.56-5.468-3.127 1.443z"/><path fill="#2e186a" d="M92.233 26.014c3.354 0 6.073-2.7 6.073-6.029 0-3.33-2.719-6.029-6.073-6.029s-6.073 2.7-6.073 6.03 2.72 6.028 6.073 6.028M97.333 26.197c5.14-1.812 10.776-2.734 16.026-.878 16.002 6.45 17.306 17.862 11.472 23.224-.652-8.09-2.211-11.126-5.214-12.899-2.522 4.918-12.865 10.69-21.899 11.025 0 0-.002.004-.002.002-.008-.032.285 8.066 1.063 7.979.159.474 1.9 4.748 1.9 4.748l-.929 8.66-19.48-2.589c-1.22.004-2.191-1.163-1.93-2.318 1.627-7.212 2.495-30.877 18.993-36.954"/><path fill="#fff" d="m100.669 56.998-1.192.273s-6.976 1.004-7.29-5.44c-.24-4.887 4.634-4.716 7.001-4.347"/><path fill="#2e186a" d="M98.47 57.827c-1.214 0-3.212-.22-4.743-1.472-1.258-1.03-1.946-2.543-2.04-4.501-.08-1.636.371-2.902 1.338-3.767 1.631-1.456 4.295-1.4 6.243-1.097a.497.497 0 1 1-.156.984c-1.418-.221-4.008-.403-5.417.854-.732.653-1.071 1.655-1.007 2.978.082 1.663.644 2.934 1.673 3.776 1.882 1.544 4.771 1.23 5.028 1.197l1.168-.269a.497.497 0 1 1 .226.97l-1.192.273q-.02.006-.042.008c-.048.006-.463.064-1.079.064z"/><path fill="#fff" d="M124.833 48.544c-.652-8.091-2.164-10.82-5.168-12.594-2.481 4.841-11.642 10.474-21.722 10.717-.194 1.122-.046.122-.066 1.35.062 1.273.153 2.715.273 3.928.778 4.586 2.53 7.454 2.53 7.454v.006c2.48 4.467 6.546 7.851 11.961 8.337 9.448.85 11.982-12.365 12.196-15.299.107-1.454 0-3.901 0-3.901z"/><path fill="#2e186a" d="M113.5 68.28q-.446 0-.905-.042c-5.146-.462-9.534-3.516-12.355-8.593l-.018-.035c-.244-.415-1.827-3.225-2.566-7.58 0-.011-.004-.021-.004-.033a83 83 0 0 1-.275-3.952v-.034c.008-.452-.01-.555-.012-.565-.04-.15-.028-.215.029-.536l.056-.325a.5.5 0 0 1 .481-.414c9.65-.235 18.797-5.59 21.287-10.447a.5.5 0 0 1 .307-.253.5.5 0 0 1 .395.05c3.417 2.018 4.785 5.28 5.407 12.919a1 1 0 0 1 .01.08c.004.101.108 2.493 0 3.961-.175 2.368-1.657 9.957-6.047 13.656-1.691 1.424-3.635 2.143-5.79 2.145zm-12.357-9.07c2.657 4.754 6.753 7.608 11.542 8.038 2.241.201 4.244-.428 5.955-1.87 4.127-3.478 5.529-10.71 5.696-12.969.094-1.282.016-3.396 0-3.782l-.006-.042c-.626-7.748-2.069-10.333-4.484-11.93-1.427 2.416-4.292 4.877-7.959 6.82-4.159 2.2-8.944 3.5-13.522 3.68l-.018.104c.022.113.036.296.03.755.076 1.54.166 2.842.268 3.87.753 4.415 2.446 7.232 2.462 7.262q.018.032.034.065z"/><path fill="#2e186a" d="M119.537 56.351h-2.729a.5.5 0 1 1 0-.998h2.133l-1.762-10.096a.5.5 0 0 1 .41-.576.5.5 0 0 1 .579.407l1.864 10.681a.5.5 0 0 1-.493.584zM112.478 48.852c-1.667 0-2.783-.377-2.839-.396a.498.498 0 1 1 .329-.94c.026.007 1.573.52 3.688.272a.5.5 0 0 1 .558.437.5.5 0 0 1-.44.553 11 11 0 0 1-1.294.076zM124.594 45.92a.5.5 0 0 1-.405-.205c-1.024-1.398-2.942-.267-3.022-.22a.503.503 0 0 1-.688-.167.494.494 0 0 1 .167-.683c.959-.583 3.101-1.233 4.357.482a.497.497 0 0 1-.405.791zM112.89 50.65c.027-.767-.356-1.403-.856-1.42-.499-.018-.926.59-.952 1.358-.027.767.356 1.403.855 1.42.5.017.926-.59.953-1.358M122.503 50.924c.027-.767-.356-1.403-.855-1.42-.5-.017-.926.59-.953 1.358-.027.767.356 1.403.856 1.42.499.018.926-.59.952-1.358"/><path fill="#fd7624" d="M110.496 56.064q-.076 0-.153-.002c-3.44-.103-6.131-3.782-5.994-8.2.064-2.115.76-4.09 1.956-5.56 1.228-1.509 2.839-2.312 4.532-2.262 3.441.104 6.131 3.783 5.997 8.2-.064 2.116-.761 4.09-1.956 5.56-1.192 1.463-2.743 2.264-4.38 2.264zm-5.146-8.17c-.119 3.868 2.135 7.087 5.024 7.174 1.372.042 2.694-.631 3.721-1.892 1.059-1.303 1.675-3.065 1.734-4.964.118-3.868-2.135-7.086-5.024-7.174-1.376-.046-2.695.632-3.722 1.892-1.059 1.303-1.675 3.066-1.733 4.964M125.733 57.064q-.076 0-.152-.002c-3.441-.104-6.131-3.782-5.997-8.2.064-2.116.76-4.09 1.956-5.56 1.228-1.509 2.841-2.31 4.532-2.262 3.441.104 6.131 3.782 5.995 8.2-.064 2.115-.76 4.09-1.956 5.56-1.192 1.463-2.743 2.264-4.38 2.264zm-5.146-8.17c-.118 3.868 2.135 7.086 5.024 7.174 1.372.04 2.694-.631 3.721-1.892 1.06-1.303 1.676-3.065 1.734-4.964.118-3.868-2.135-7.086-5.024-7.174-1.376-.046-2.694.631-3.722 1.892-1.059 1.303-1.675 3.066-1.733 4.964"/><path fill="#fd7624" d="M116.302 48.28a.498.498 0 1 1-.002-.996l3.606-.01a.498.498 0 1 1 .002.996zM97.182 47.88a.5.5 0 0 1-.497-.444.5.5 0 0 1 .445-.548l7.728-.822c.275-.03.522.169.552.442a.5.5 0 0 1-.446.547l-7.728.823z"/><path fill="#fff" d="M121.835 116.174s6.075.102 10.081 2.356c2.39 1.347 5.488 3.195 5.648 4.01.299 1.523-3.471.008-4.069-.181"/><path fill="#2e186a" d="M136.795 123.711c-.776 0-1.855-.313-3.163-.777a8 8 0 0 0-.291-.102.496.496 0 0 1-.325-.625.5.5 0 0 1 .63-.323c.07.022.18.062.321.112 2.325.827 2.949.759 3.109.689a.2.2 0 0 0-.008-.05c-.056-.175-.616-.976-5.403-3.671-3.846-2.165-9.782-2.29-9.84-2.292a.5.5 0 0 1-.494-.506.5.5 0 0 1 .502-.49h.008c.252.004 6.249.129 10.32 2.422 4.98 2.802 5.774 3.747 5.892 4.346.107.544-.14.849-.295.982-.23.197-.555.283-.965.283z"/><path fill="#fff" d="M136.907 125.362c-.155-.685-6.041-6.628-8.188-7.662-1.39-.669-4.562-2.024-7.421-2.032l-.11-.014.006.004c-10.449-.978-30.87-3.671-30.87-3.671l1.504-13.263s-18.285-5.473-18.277-5.447c-1.407 10.229-1.116 21.603.112 25.7.742 2.477 3.487 4.65 6.049 5.116 21.309 3.874 44.282 1.355 44.282 1.355.103.014 4.912 1.438 4.912 1.438 2.959 1.316 2.837-.076 1.926-1.151.142.135.275.275.387.418 1.025.93 2.632.568 2.883.217.249-.349-.879-1.36-2.372-2.972l.179.132c2.468 2.826 5.413 3.659 5 1.832z"/><path fill="#2e186a" d="M130.757 127.924c-.634 0-1.404-.293-2.028-.57a529 529 0 0 0-4.775-1.4c-1.625.167-23.881 2.35-44.335-1.369-2.847-.518-5.674-2.918-6.438-5.465-1.222-4.073-1.565-15.456-.128-25.91a.5.5 0 0 1 .144-.286q.215-.21 1.286.106c.502.147 1.216.36 2.075.615a25873.413 25873.413 0 0 1 15.414 4.605c.233.07.381.293.353.532l-1.45 12.777c3.16.414 20.861 2.713 30.3 3.599q.034-.001.068.004l.087.01c2.887.016 6.004 1.309 7.607 2.08 2.079.999 8.236 7.009 8.459 8.001.214.952-.301 1.324-.534 1.44-.528.265-1.33.123-2.229-.325a.7.7 0 0 1-.126.291c-.307.428-1.072.54-1.298.563-.462.05-.913.002-1.322-.127a.9.9 0 0 1-.177.424c-.223.293-.562.405-.953.405m-6.765-2.972q.033-.001.066.004c.05.006.143.02 4.988 1.454q.031.01.062.022c1.242.553 1.681.506 1.791.478-.002-.114-.096-.434-.453-.857a.496.496 0 0 1 .04-.683.506.506 0 0 1 .69 0c.159.149.291.293.408.438.644.558 1.573.472 1.97.327-.213-.315-.773-.9-1.276-1.428a84 84 0 0 1-.919-.974.494.494 0 0 1-.004-.669.505.505 0 0 1 .672-.068l.179.131q.044.033.08.074c1.834 2.099 3.687 2.82 4.125 2.601.04-.02.044-.151.012-.308-.367-.747-5.847-6.348-7.923-7.348-1.234-.594-4.406-1.974-7.205-1.982q-.03.001-.058-.004l-.05-.006q-.021 0-.042-.002c-10.338-.968-30.686-3.647-30.89-3.675a.5.5 0 0 1-.434-.549l1.459-12.85a5864 5864 0 0 0-17.312-5.164c-1.33 10.164-.998 21.019.172 24.919.654 2.181 3.192 4.322 5.658 4.77 20.987 3.817 43.907 1.373 44.138 1.349q.027-.003.054-.004z"/><path fill="#fff" d="M131.217 126.153c-1.322-1.697-5.088-2.824-5.088-2.824.421.041 3.009.906 4.267 1.969"/><path fill="#2e186a" d="M131.216 126.651a.5.5 0 0 1-.397-.193c-1.208-1.55-4.801-2.642-4.837-2.652a.496.496 0 0 1-.347-.573.504.504 0 0 1 .541-.399c.486.048 3.172.927 4.545 2.086q.086.073.13.171c.293.237.554.49.762.759a.497.497 0 0 1-.397.803z"/><path fill="#fff" d="M127.728 121.159s2.455.568 3.964 2.201Z"/><path fill="#2e186a" d="M131.694 123.858a.5.5 0 0 1-.369-.161c-1.382-1.496-3.686-2.048-3.71-2.054a.496.496 0 0 1-.373-.597.504.504 0 0 1 .602-.373c.106.024 2.626.624 4.221 2.351a.494.494 0 0 1-.03.703.5.5 0 0 1-.339.131z"/><path fill="#ff897e" d="M215.58 88.235h-64.433c-.845 0-1.579.634-1.773 1.532l-9.322 43.034H99.875s-1.108 5.685 5.357 5.685h49.075l-.028-.07h51.292c.845 0 1.579-.633 1.774-1.531l10.007-46.206c.271-1.249-.598-2.446-1.774-2.446z"/><path fill="#fff" d="M182.704 112.595c-.004-.944.706-1.839 1.587-2 .881-.159 1.601.476 1.605 1.418.002.534-.229 1.046-.584 1.424.289.092.564.215.815.379 1.651 1.075 1.691 3.322.086 5.019-1.603 1.697-4.243 2.199-5.895 1.123s-1.691-3.322-.086-5.019a5.5 5.5 0 0 1 2.689-1.546 1.6 1.6 0 0 1-.219-.8zM181.488 108.197s2.538-.612 2.701 1.567c0 0-2.025.805-2.701-1.567"/><path fill="#fff" d="M184.614 111.559a.424.424 0 0 1-.409-.544c.068-.229.69-2.254 1.28-2.947a.43.43 0 0 1 .6-.05.42.42 0 0 1 .05.595c-.403.472-.941 2.068-1.114 2.643a.43.43 0 0 1-.407.303"/><path fill="#2e186a" d="M147.919 138.309c-.973 0-1.72-.311-2.219-.925-.903-1.111-.688-2.896-.48-3.86l9.484-43.44c.245-1.134 1.176-1.924 2.265-1.924a.5.5 0 0 1 .502.498.5.5 0 0 1-.502.498c-.61 0-1.137.468-1.284 1.137l-9.484 43.44c-.138.638-.387 2.207.279 3.026.303.372.775.554 1.439.554a.5.5 0 0 1 .501.498.5.5 0 0 1-.501.498"/><path fill="#b6b6ce" d="M167.785 70.999h35.495a2.01 2.01 0 0 0 2.016-2.002V19.406a2.01 2.01 0 0 0-2.016-2.002 2.01 2.01 0 0 0-2.017 2.002v44.587a2.01 2.01 0 0 1-2.016 2.002h-31.462a2.01 2.01 0 0 0-2.016 2.002v.996c0 1.105.902 2.002 2.016 2.002z"/><path fill="#fff" d="M202.504 16.37h-38.093v51.736h38.093z"/><path fill="#2e186a" d="M202.504 68.604h-38.093a.5.5 0 0 1-.502-.498V16.37a.5.5 0 0 1 .502-.498h38.093a.5.5 0 0 1 .501.498v51.736a.5.5 0 0 1-.501.498m-37.592-.996h37.09v-50.74h-37.09z"/><path fill="#2e186a" d="M193.901 21.08h-5.225a.5.5 0 0 1-.501-.497.5.5 0 0 1 .501-.498h5.225a.5.5 0 0 1 .501.498.5.5 0 0 1-.501.498M196.68 23.116h-7.937a.5.5 0 0 1-.502-.498.5.5 0 0 1 .502-.498h7.937a.5.5 0 0 1 .501.498.5.5 0 0 1-.501.498M196.68 25.226h-7.937a.5.5 0 0 1-.502-.498.5.5 0 0 1 .502-.498h7.937a.5.5 0 0 1 .501.498.5.5 0 0 1-.501.498M187.978 30.667h-19.773a.5.5 0 0 1-.502-.498.5.5 0 0 1 .502-.498h19.773a.5.5 0 0 1 .502.498.5.5 0 0 1-.502.498M197.971 35.06h-29.684a.5.5 0 0 1-.502-.497.5.5 0 0 1 .502-.498h29.684a.5.5 0 0 1 .502.498.5.5 0 0 1-.502.498M197.971 37.523h-29.684a.5.5 0 0 1-.502-.498.5.5 0 0 1 .502-.498h29.684a.5.5 0 0 1 .502.498.5.5 0 0 1-.502.498M197.971 39.983h-29.684a.5.5 0 0 1-.502-.498.5.5 0 0 1 .502-.498h29.684a.5.5 0 0 1 .502.498.5.5 0 0 1-.502.498M197.971 42.444h-29.684a.5.5 0 0 1-.502-.498.5.5 0 0 1 .502-.497h29.684a.5.5 0 0 1 .502.497.5.5 0 0 1-.502.498M197.971 44.906h-29.684a.5.5 0 0 1-.502-.498.5.5 0 0 1 .502-.498h29.684a.5.5 0 0 1 .502.498.5.5 0 0 1-.502.498M197.971 47.366h-29.684a.5.5 0 0 1-.502-.498.5.5 0 0 1 .502-.498h29.684a.5.5 0 0 1 .502.498.5.5 0 0 1-.502.498M197.971 49.828h-29.684a.5.5 0 0 1-.502-.498.5.5 0 0 1 .502-.498h29.684a.5.5 0 0 1 .502.498.5.5 0 0 1-.502.498M197.971 52.288h-29.684a.5.5 0 0 1-.502-.498.5.5 0 0 1 .502-.498h29.684a.5.5 0 0 1 .502.498.5.5 0 0 1-.502.498M197.795 56.684h-9.853a.5.5 0 0 1-.502-.498.5.5 0 0 1 .502-.498h9.853a.5.5 0 0 1 .501.498.5.5 0 0 1-.501.498"/><path fill="#fff" d="M188.031 63.501c-.36-1.3-.315-2.74.124-4.011.229-.663.732-1.372 1.346-1.227.231.056.428.227.598.414 1.089 1.187 1.429 3.175.813 4.739-.032.083-.073.171-.145.215-.182.107-.363-.145-.437-.363-.319-.942-.375-2-.155-2.98.229-1.02.991-2.075 1.9-1.87.648.148 1.076.923 1.104 1.674s-.259 1.471-.596 2.117c.104-1.044.538-2.042 1.206-2.769.186-.203.413-.396.672-.4.423-.008.724.468.864.922.231.743.247 1.57.045 2.322.034-.394.182-.776.417-1.07.221.08.221.423.273.678s.421.446.467.19"/><path fill="#2e186a" d="M190.679 64.155a.7.7 0 0 1-.237-.042c-.377-.138-.546-.56-.588-.685a6.1 6.1 0 0 1-.17-3.247 4 4 0 0 1 .299-.85 3 3 0 0 0-.257-.317q-.216-.234-.343-.265c-.223-.054-.568.36-.755.904a6.4 6.4 0 0 0-.114 3.717.496.496 0 0 1-.351.611.5.5 0 0 1-.616-.348 7.33 7.33 0 0 1 .134-4.304c.39-1.128 1.15-1.737 1.938-1.55.386.092.671.365.853.564q.058.062.112.127c.119-.117.249-.225.39-.312a1.6 1.6 0 0 1 1.213-.226c.592.134 1.02.594 1.262 1.142.219-.233.554-.522 1.004-.532.591-.008 1.101.464 1.354 1.273a4.7 4.7 0 0 1 .188.944c.39.161.48.551.526.824q.049-.002.1.008c.273.05.454.31.404.58a.63.63 0 0 1-.616.53.83.83 0 0 1-.566-.24.5.5 0 0 1-.554.312.5.5 0 0 1-.413-.534 2.6 2.6 0 0 1 .106-.54 3.7 3.7 0 0 0-.13-1.591c-.117-.377-.305-.572-.373-.572-.016 0-.107.014-.313.239-.183.197-.345.42-.486.66-.056.776-.367 1.467-.646 2a.504.504 0 0 1-.588.25.5.5 0 0 1-.357-.526c.07-.71.275-1.392.596-2v-.05c-.022-.581-.343-1.12-.714-1.207a.58.58 0 0 0-.454.096 1.5 1.5 0 0 0-.357.337c.646 1.28.759 2.916.229 4.262-.038.098-.128.327-.355.46a.7.7 0 0 1-.345.096zm-.079-3.424a5.1 5.1 0 0 0 .047 1.794 4.4 4.4 0 0 0-.047-1.794M228.571 135.42H37.976v6.374H228.57zM114.515 60.729a.6.6 0 0 1-.128-.016l-3.812-.996a.496.496 0 0 1-.357-.607.5.5 0 0 1 .612-.355l3.812.996a.497.497 0 0 1-.129.978z"/><path fill="#b6b6ce" d="M190.853 70.09s3.009 9.362-.201 14.142c0 0 8.226-2.191 6.42-13.942z"/><path fill="#fff" d="M202.504 16.37h-38.093v51.736h38.093z"/><path fill="#2e186a" d="M202.504 68.604h-38.093a.5.5 0 0 1-.502-.498V16.37a.5.5 0 0 1 .502-.498h38.093a.5.5 0 0 1 .501.498v51.736a.5.5 0 0 1-.501.498m-37.592-.996h37.09v-50.74h-37.09z"/><path fill="#2e186a" d="M196.68 23.116h-7.937a.5.5 0 0 1-.502-.498.5.5 0 0 1 .502-.498h7.937a.5.5 0 0 1 .501.498.5.5 0 0 1-.501.498M196.68 25.226h-7.937a.5.5 0 0 1-.502-.498.5.5 0 0 1 .502-.498h7.937a.5.5 0 0 1 .501.498.5.5 0 0 1-.501.498M187.978 30.667h-19.773a.5.5 0 0 1-.502-.498.5.5 0 0 1 .502-.498h19.773a.5.5 0 0 1 .502.498.5.5 0 0 1-.502.498M197.971 35.06h-29.684a.5.5 0 0 1-.502-.497.5.5 0 0 1 .502-.498h29.684a.5.5 0 0 1 .502.498.5.5 0 0 1-.502.498M197.971 37.523h-29.684a.5.5 0 0 1-.502-.498.5.5 0 0 1 .502-.498h29.684a.5.5 0 0 1 .502.498.5.5 0 0 1-.502.498M197.971 39.983h-29.684a.5.5 0 0 1-.502-.498.5.5 0 0 1 .502-.498h29.684a.5.5 0 0 1 .502.498.5.5 0 0 1-.502.498M197.971 42.444h-29.684a.5.5 0 0 1-.502-.498.5.5 0 0 1 .502-.497h29.684a.5.5 0 0 1 .502.497.5.5 0 0 1-.502.498M197.971 44.906h-29.684a.5.5 0 0 1-.502-.498.5.5 0 0 1 .502-.498h29.684a.5.5 0 0 1 .502.498.5.5 0 0 1-.502.498M197.971 47.366h-29.684a.5.5 0 0 1-.502-.498.5.5 0 0 1 .502-.498h29.684a.5.5 0 0 1 .502.498.5.5 0 0 1-.502.498M197.971 49.828h-29.684a.5.5 0 0 1-.502-.498.5.5 0 0 1 .502-.498h29.684a.5.5 0 0 1 .502.498.5.5 0 0 1-.502.498M197.971 52.288h-29.684a.5.5 0 0 1-.502-.498.5.5 0 0 1 .502-.498h29.684a.5.5 0 0 1 .502.498.5.5 0 0 1-.502.498M197.795 56.684h-9.853a.5.5 0 0 1-.502-.498.5.5 0 0 1 .502-.498h9.853a.5.5 0 0 1 .501.498.5.5 0 0 1-.501.498"/><path fill="#fff" d="M188.031 63.501c-.36-1.3-.315-2.74.124-4.011.229-.663.732-1.372 1.346-1.227.231.056.428.227.598.414 1.089 1.187 1.429 3.175.813 4.739-.032.083-.073.171-.145.215-.182.107-.363-.145-.437-.363-.319-.942-.375-2-.155-2.98.229-1.02.991-2.075 1.9-1.87.648.148 1.076.923 1.104 1.674s-.259 1.471-.596 2.117c.104-1.044.538-2.042 1.206-2.769.186-.203.413-.396.672-.4.423-.008.724.468.864.922.231.743.247 1.57.045 2.322.034-.394.182-.776.417-1.07.221.08.221.423.273.678s.421.446.467.19"/><path fill="#2e186a" d="M190.679 64.155a.7.7 0 0 1-.237-.042c-.377-.138-.546-.56-.588-.685a6.1 6.1 0 0 1-.17-3.247 4 4 0 0 1 .299-.85 3 3 0 0 0-.257-.317q-.216-.234-.343-.265c-.223-.054-.568.36-.755.904a6.4 6.4 0 0 0-.114 3.717.496.496 0 0 1-.351.611.5.5 0 0 1-.616-.348 7.33 7.33 0 0 1 .134-4.304c.39-1.128 1.15-1.737 1.938-1.55.386.092.671.365.853.564q.058.062.112.127c.119-.117.249-.225.39-.312a1.6 1.6 0 0 1 1.213-.226c.592.134 1.02.594 1.262 1.142.219-.233.554-.522 1.004-.532.591-.008 1.101.464 1.354 1.273a4.7 4.7 0 0 1 .188.944c.39.161.48.551.526.824q.049-.002.1.008c.273.05.454.31.404.58a.63.63 0 0 1-.616.53.83.83 0 0 1-.566-.24.5.5 0 0 1-.554.312.5.5 0 0 1-.413-.534 2.6 2.6 0 0 1 .106-.54 3.7 3.7 0 0 0-.13-1.591c-.117-.377-.305-.572-.373-.572-.016 0-.107.014-.313.239-.183.197-.345.42-.486.66-.056.776-.367 1.467-.646 2a.504.504 0 0 1-.588.25.5.5 0 0 1-.357-.526c.07-.71.275-1.392.596-2v-.05c-.022-.581-.343-1.12-.714-1.207a.58.58 0 0 0-.454.096 1.5 1.5 0 0 0-.357.337c.646 1.28.759 2.916.229 4.262-.038.098-.128.327-.355.46a.7.7 0 0 1-.345.096zm-.079-3.424a5.1 5.1 0 0 0 .047 1.794 4.4 4.4 0 0 0-.047-1.794"/></g><defs><clipPath id="a"><path fill="#fff" d="M0 0h284v158.625H0z"/></clipPath></defs></svg>