<svg width="288" height="159" viewBox="0 0 288 159" fill="none" xmlns="http://www.w3.org/2000/svg">
<g clip-path="url(#clip0_887_7448)">
<rect x="3" width="282" height="158.625" fill="#F6F6F6"/>
<path fill-rule="evenodd" clip-rule="evenodd" d="M140.292 32.2997C138.507 32.3232 136.77 32.4877 135.08 32.7932L140.626 63.8367L129.986 93.5643C133.509 94.7863 137.222 95.3973 140.959 95.3738C158.477 95.1858 172.734 80.8038 172.567 63.5077C172.377 46.2117 157.81 32.1117 140.292 32.2997Z" fill="#000091"/>
<path fill-rule="evenodd" clip-rule="evenodd" d="M102.02 64.9647C102.162 78.1483 110.66 89.8983 123.227 94.3398L133.961 64.6357L102.02 64.9647Z" fill="#FF8D7E"/>
<path fill-rule="evenodd" clip-rule="evenodd" d="M126.702 27.0596C119.252 28.3521 112.516 32.2296 107.684 37.9636C102.853 43.7211 100.234 50.9591 100.33 58.4321L132.271 58.1031L126.702 27.0596Z" fill="#6A6AF4"/>
<path fill-rule="evenodd" clip-rule="evenodd" d="M159 33.0761C160.63 33.0761 161.952 31.7714 161.952 30.162C161.952 28.5527 160.63 27.248 159 27.248C157.37 27.248 156.049 28.5527 156.049 30.162C156.049 31.7714 157.37 33.0761 159 33.0761Z" fill="#000091"/>
<path fill-rule="evenodd" clip-rule="evenodd" d="M103.995 90.3221C105.625 90.3221 106.947 89.0175 106.947 87.4081C106.947 85.7988 105.625 84.4941 103.995 84.4941C102.365 84.4941 101.044 85.7988 101.044 87.4081C101.044 89.0175 102.365 90.3221 103.995 90.3221Z" fill="#FF8D7E"/>
<path fill-rule="evenodd" clip-rule="evenodd" d="M101.044 39.0917C102.674 39.0917 103.996 37.787 103.996 36.1777C103.996 34.5683 102.674 33.2637 101.044 33.2637C99.4142 33.2637 98.0928 34.5683 98.0928 36.1777C98.0928 37.787 99.4142 39.0917 101.044 39.0917Z" fill="#6A6AF4"/>
<path fill-rule="evenodd" clip-rule="evenodd" d="M190.014 27.6475C190.409 27.6475 190.728 27.9631 190.728 28.3525C190.728 28.7279 190.431 29.0348 190.056 29.0563L190.014 29.0575L164.57 29.0575C164.176 29.0575 163.856 28.7418 163.856 28.3525C163.856 27.977 164.154 27.6701 164.529 27.6487L164.57 27.6475L190.014 27.6475Z" fill="#000091"/>
<path fill-rule="evenodd" clip-rule="evenodd" d="M172.163 31.2432C172.558 31.2432 172.877 31.5588 172.877 31.9482C172.877 32.3236 172.58 32.6305 172.205 32.652L172.163 32.6532H164.57C164.176 32.6532 163.856 32.3375 163.856 31.9482C163.856 31.5727 164.154 31.2658 164.529 31.2444L164.57 31.2432H172.163Z" fill="#000091"/>
<path fill-rule="evenodd" clip-rule="evenodd" d="M305.642 97.9835C294.598 81.1105 282.554 73.6845 277.96 71.3109C277.913 66.7754 274.081 62.7099 262.918 60.7594C237.926 56.2004 231.595 62.8979 230.143 69.4779L211.578 69.1019L187.848 60.1719L176.613 71.8984C174.495 74.7185 174.709 82.967 182.135 89.9935C187.324 94.905 205.889 107.007 216.648 113.893L217.695 161.645L296.549 162.115L292.836 143.033C294.836 142.939 294.265 142.892 294.86 142.869C312.282 142.328 319.613 119.392 305.642 97.9835Z" fill="#6A6AF4"/>
<path fill-rule="evenodd" clip-rule="evenodd" d="M229.905 77.2095C229.834 75.3295 229.501 72.4155 230.143 69.478L220.908 69.29C221.003 72.674 222.122 82.8261 231.857 84.9411C230.881 82.9201 230.048 80.429 229.905 77.2095Z" fill="#4747D0"/>
<path fill-rule="evenodd" clip-rule="evenodd" d="M287.41 77.5851C283.316 74.3185 279.936 72.3445 277.961 71.3105C278.032 77.9376 270.035 85.6221 265.013 89.4056C265.275 89.4526 265.536 89.4761 265.822 89.4996C272.248 89.9226 287.505 81.4156 290.1 79.9586C289.267 79.2771 288.362 78.4546 287.41 77.5851Z" fill="#4747D0"/>
<path fill-rule="evenodd" clip-rule="evenodd" d="M289.778 103.344C292.447 102.916 295.327 103.383 298.392 104.896C298.745 105.07 298.888 105.494 298.712 105.842C298.535 106.19 298.106 106.331 297.754 106.157C294.952 104.774 292.374 104.356 290.007 104.735C288.121 105.037 286.443 105.832 284.978 106.97C284.308 107.491 283.727 108.05 283.241 108.607C283.096 108.773 282.969 108.928 282.86 109.069L282.76 109.202C282.746 109.221 282.733 109.239 282.722 109.254L282.675 109.321C282.458 109.647 282.016 109.737 281.686 109.523C281.357 109.309 281.265 108.872 281.482 108.547L281.532 108.473C281.661 108.289 281.87 108.018 282.159 107.687C282.703 107.064 283.348 106.442 284.095 105.862C285.739 104.584 287.636 103.687 289.778 103.344Z" fill="#2E186A"/>
<path fill-rule="evenodd" clip-rule="evenodd" d="M272.431 98.2567C272.764 98.0776 273.179 98.1882 273.377 98.5021L273.517 98.745C273.535 98.7765 273.555 98.8096 273.575 98.8443C273.723 99.0942 273.894 99.3733 274.088 99.6742C274.643 100.534 275.261 101.394 275.926 102.194C277.801 104.451 279.655 105.759 281.245 105.699L281.32 105.696L281.356 105.692L281.464 105.546C281.561 105.417 281.676 105.27 281.809 105.11L281.869 105.038C282.442 104.357 283.129 103.678 283.933 103.044C287.304 100.385 291.584 99.3233 296.723 100.784C297.102 100.891 297.321 101.282 297.212 101.656C297.103 102.03 296.707 102.246 296.328 102.139C291.662 100.813 287.852 101.758 284.824 104.146C284.1 104.717 283.481 105.328 282.968 105.939C282.815 106.12 282.682 106.29 282.569 106.444L282.513 106.52C282.459 106.596 282.42 106.653 282.395 106.69L282.376 106.72C282.27 106.888 282.098 107.005 281.901 107.042C281.739 107.072 281.577 107.092 281.413 107.103C279.204 107.245 276.996 105.705 274.822 103.088C274.117 102.241 273.466 101.336 272.883 100.431L272.735 100.198C272.614 100.007 272.503 99.8257 272.401 99.6556L272.256 99.4092C272.206 99.3223 272.168 99.2561 272.145 99.2129C271.956 98.8708 272.084 98.4428 272.431 98.2567Z" fill="#2E186A"/>
<path fill-rule="evenodd" clip-rule="evenodd" d="M236.071 87.7848C236.567 87.6722 237.062 87.9651 237.2 88.4435L237.215 88.5014L237.286 88.8191L237.376 89.2419C237.4 89.3549 237.425 89.4732 237.45 89.5967L237.475 89.7219C237.671 90.6871 237.867 91.7514 238.049 92.8845C238.453 95.3916 238.734 97.8693 238.84 100.193C238.924 102.038 238.893 103.726 238.73 105.227C238.675 105.744 238.205 106.117 237.683 106.062C237.16 106.007 236.781 105.544 236.837 105.028C236.988 103.63 237.018 102.033 236.938 100.278C236.836 98.0319 236.562 95.622 236.168 93.1796C235.99 92.0724 235.799 91.0325 235.608 90.0908L235.536 89.7362C235.504 89.5856 235.474 89.4443 235.446 89.3129L235.356 88.9115C235.239 88.4055 235.559 87.9011 236.071 87.7848Z" fill="#2E186A"/>
<path fill-rule="evenodd" clip-rule="evenodd" d="M262.068 88.3936C262.527 88.6113 262.729 89.1451 262.534 89.6037L262.279 90.1443L262.103 90.5253C261.961 90.8336 261.81 91.1691 261.65 91.5292C260.998 93 260.346 94.5752 259.738 96.1898C259.11 97.8577 258.565 99.4735 258.128 101C257.571 102.944 257.204 104.689 257.058 106.181C257.007 106.698 256.542 107.076 256.019 107.026C255.495 106.976 255.112 106.517 255.163 106C255.321 104.382 255.71 102.532 256.295 100.488C256.748 98.9095 257.308 97.2469 257.953 95.5346C258.575 93.8843 259.24 92.2769 259.906 90.7755L260.111 90.3161C260.244 90.0192 260.372 89.7413 260.491 89.4842L260.699 89.0403L260.798 88.8342C261.025 88.3662 261.594 88.1689 262.068 88.3936Z" fill="#2E186A"/>
<path fill-rule="evenodd" clip-rule="evenodd" d="M266.655 69.3835L269.844 72.603C269.844 72.603 254.706 83.977 249.779 111.355C246.59 129.144 247.661 131.142 247.661 131.142L238.283 130.648C238.283 130.648 243.52 101.062 240.259 91.685C236.998 82.332 239.973 71.804 242.187 70.112C244.4 68.42 266.655 69.3835 266.655 69.3835Z" fill="white"/>
<path fill-rule="evenodd" clip-rule="evenodd" d="M262.442 58.9258L263.322 66.2343L266.321 69.6418C266.321 69.6418 257.443 75.0703 248.946 84.6113C248.946 84.6113 241.996 77.3733 240.782 66.0228L257.063 68.0203L258.348 61.7458L262.442 58.9258Z" fill="white"/>
<path fill-rule="evenodd" clip-rule="evenodd" d="M257.94 61.1683L257.9 61.1979C257.771 61.3008 257.681 61.4452 257.648 61.6068L256.494 67.2406L240.871 65.3239C240.414 65.2679 240.024 65.6461 240.072 66.0975C240.57 70.7468 242.027 75.0523 244.146 78.9427C245.076 80.652 246.074 82.1669 247.073 83.4721C247.389 83.8848 247.685 84.2503 247.956 84.5671L248.131 84.769C248.266 84.9236 248.367 85.0333 248.428 85.0971C248.717 85.398 249.205 85.3889 249.483 85.0776C249.826 84.6925 250.173 84.3104 250.523 83.9312C254.065 80.103 257.862 76.7123 261.658 73.7973C262.986 72.7777 264.218 71.8908 265.323 71.1413L265.694 70.8916C265.892 70.7597 266.076 70.6389 266.245 70.5294L266.514 70.3568L266.698 70.2419L266.735 70.2173C267.077 69.9785 267.139 69.4967 266.861 69.1801L264.005 65.9361L263.151 58.8432C263.087 58.3145 262.476 58.0437 262.033 58.3483L257.94 61.1683ZM261.874 60.1774L262.614 66.3183L262.622 66.3705C262.646 66.4913 262.701 66.6041 262.784 66.6974L265.243 69.4921L265.132 69.5656C264.94 69.6922 264.734 69.8301 264.514 69.9792C263.387 70.744 262.132 71.6472 260.782 72.6843C256.925 75.6457 253.069 79.0891 249.469 82.9802L249.113 83.367L248.952 83.5449L248.874 83.4517C248.667 83.2037 248.446 82.9269 248.212 82.6219C247.256 81.3723 246.298 79.9178 245.404 78.2751L245.291 78.067C243.466 74.6621 242.168 70.9329 241.614 66.9341L241.6 66.8343L256.975 68.7206L257.017 68.7246C257.371 68.7472 257.692 68.5082 257.763 68.1608L258.991 62.1629L261.874 60.1774Z" fill="#2E186A"/>
<path fill-rule="evenodd" clip-rule="evenodd" d="M265.084 48.915C265.084 48.915 270.749 49.0325 269.725 54.0145C268.702 58.9965 262.466 56.1295 262.466 56.1295L263.299 49.009L265.084 48.915Z" fill="white"/>
<path fill-rule="evenodd" clip-rule="evenodd" d="M265.099 48.21L265.046 48.2108L263.261 48.3048C262.913 48.3231 262.63 48.5864 262.59 48.9279L261.757 56.0484C261.721 56.3501 261.886 56.6402 262.165 56.7684L262.26 56.8111C262.516 56.9226 262.9 57.0685 263.375 57.2134C264.32 57.5012 265.271 57.6693 266.178 57.6543C268.363 57.6182 269.941 56.513 270.425 54.1545C270.976 51.4724 269.863 49.6993 267.749 48.7993C267.168 48.5519 266.553 48.3897 265.94 48.2942L265.787 48.2716C265.489 48.2305 265.253 48.2131 265.099 48.21ZM263.939 49.6809L265.091 49.6203L265.198 49.6268L265.232 49.6294C265.377 49.6408 265.541 49.6594 265.717 49.6869C266.221 49.7653 266.723 49.8978 267.184 50.0941C268.713 50.7452 269.433 51.8917 269.026 53.8742C268.684 55.5359 267.709 56.2188 266.155 56.2445C265.418 56.2566 264.609 56.1136 263.796 55.8661L263.66 55.8236C263.526 55.7807 263.397 55.7366 263.274 55.692L263.237 55.6783L263.939 49.6809Z" fill="#2E186A"/>
<path fill-rule="evenodd" clip-rule="evenodd" d="M248.947 33.1703C247.447 33.0528 237.236 32.4183 236.118 40.8313C234.999 49.2443 236.213 58.5503 237.141 62.7803C238.069 67.0103 257.658 65.0598 258.753 64.6838C259.848 64.3078 261.181 63.0153 261.181 63.0153L263.87 50.0903C263.87 50.0903 264.965 34.4863 248.947 33.1703Z" fill="white"/>
<path fill-rule="evenodd" clip-rule="evenodd" d="M246.433 32.4305C244.963 32.4992 243.525 32.7176 242.179 33.1282C238.429 34.2718 235.944 36.7212 235.41 40.7395C234.457 47.9019 235.092 56.7737 236.443 62.9296C236.957 65.2708 240.972 66.1373 247.484 66.1637L247.885 66.1643C252.251 66.1593 258.061 65.6677 258.988 65.3497C259.186 65.2816 259.39 65.1901 259.601 65.0778C259.91 64.913 260.229 64.7054 260.555 64.4644C260.778 64.2993 260.995 64.1256 261.2 63.9502L261.353 63.8185C261.503 63.6859 261.616 63.5813 261.681 63.5183C261.782 63.4201 261.852 63.2944 261.88 63.1572L264.57 50.2322C264.576 50.2014 264.58 50.1703 264.583 50.139L264.589 50.0354C264.596 49.8909 264.601 49.6818 264.6 49.4151C264.598 48.8569 264.569 48.2347 264.502 47.5627C264.311 45.6426 263.86 43.7002 263.074 41.8509C260.813 36.5343 256.288 33.066 249.006 32.4677C248.245 32.4081 247.418 32.3844 246.433 32.4305ZM248.89 33.8731C255.621 34.4261 259.696 37.5495 261.757 42.3967C262.483 44.1047 262.902 45.912 263.08 47.7006C263.143 48.3265 263.17 48.9044 263.172 49.4194L263.172 49.5909C263.171 49.6456 263.17 49.698 263.169 49.7478L263.164 49.9215C263.163 49.9516 263.162 49.9768 263.161 49.9979L260.527 62.6546L260.513 62.667C260.479 62.6983 260.442 62.7312 260.403 62.7652C260.181 62.9603 259.942 63.1554 259.698 63.3361C259.425 63.5383 259.163 63.7089 258.922 63.8371C258.775 63.9157 258.639 63.9764 258.518 64.0179L258.469 64.0332C257.565 64.2862 252.008 64.7496 247.884 64.7543L247.533 64.7538C241.847 64.7291 238.127 63.9427 237.839 62.631C236.52 56.6227 235.897 47.909 236.826 40.9231C237.28 37.5035 239.345 35.4681 242.6 34.4754C243.821 34.1032 245.143 33.9024 246.501 33.8389C247.418 33.796 248.187 33.818 248.89 33.8731Z" fill="#2E186A"/>
<path fill-rule="evenodd" clip-rule="evenodd" d="M261.99 49.9727C261.038 50.8892 258.467 56.2472 257.848 58.7382C257.848 58.7382 251.517 56.6467 242.449 56.5057C242.449 56.5057 237.498 56.5997 235.522 57.1872C235.522 57.1872 235.951 66.0232 239.973 70.5822C243.996 75.1412 252.469 73.8722 256.444 71.1227C260.419 68.3732 261.085 67.0572 261.99 64.1197C262.918 61.1822 265.346 50.2077 265.346 50.2077L261.99 49.9727Z" fill="#968BB4"/>
<path fill-rule="evenodd" clip-rule="evenodd" d="M264.584 51.8762C264.584 51.8762 267.25 47.8107 268.274 43.5807C269.249 39.6092 267.369 35.4497 263.656 33.6637C260.538 32.1832 258.229 33.3347 258.229 33.3347C258.229 33.3347 261.538 27.7887 256.563 22.8771C254.826 21.1381 252.398 20.1981 249.923 20.2686C243.853 20.4331 241.997 25.5091 241.997 25.5091C241.997 25.5091 235.523 13.7356 222.218 20.7151C220.885 21.4201 219.361 23.3706 218.647 24.6866C214.244 32.6767 228.739 42.1472 236.26 42.8992C244.543 43.7217 249.375 42.3587 252.041 40.3612C250.042 41.5362 252.279 53.7562 264.584 51.8762Z" fill="#2E186A"/>
<path fill-rule="evenodd" clip-rule="evenodd" d="M241.691 53.043C241.735 52.6561 242.089 52.3779 242.481 52.4215C242.858 52.4636 243.134 52.7896 243.114 53.1598L243.11 53.2011L242.346 59.8887L244.077 59.4429C244.445 59.3481 244.821 59.5546 244.936 59.9073L244.948 59.9471C245.044 60.3104 244.835 60.6815 244.478 60.7956L244.437 60.8072L241.7 61.5122C241.229 61.6337 240.78 61.2643 240.807 60.7918L240.81 60.751L241.691 53.043Z" fill="#2E186A"/>
<path fill-rule="evenodd" clip-rule="evenodd" d="M239.378 54.485C239.825 54.485 240.187 53.9379 240.187 53.263C240.187 52.5881 239.825 52.041 239.378 52.041C238.931 52.041 238.568 52.5881 238.568 53.263C238.568 53.9379 238.931 54.485 239.378 54.485Z" fill="#2E186A"/>
<path fill-rule="evenodd" clip-rule="evenodd" d="M247.066 54.3434C247.513 54.3434 247.875 53.7963 247.875 53.1214C247.875 52.4465 247.513 51.8994 247.066 51.8994C246.619 51.8994 246.257 52.4465 246.257 53.1214C246.257 53.7963 246.619 54.3434 247.066 54.3434Z" fill="#2E186A"/>
<path fill-rule="evenodd" clip-rule="evenodd" d="M247.098 45.4455C248.378 45.2481 249.484 45.5685 250.382 46.2191C250.631 46.3995 250.846 46.593 251.028 46.7881C251.141 46.9103 251.222 47.011 251.27 47.0795C251.495 47.3993 251.415 47.8386 251.091 48.0607C250.779 48.2745 250.355 48.209 250.123 47.9183L250.077 47.859C250.05 47.8249 250.016 47.7852 249.975 47.7414C249.854 47.6112 249.708 47.4794 249.538 47.3562C248.929 46.9151 248.197 46.7031 247.319 46.8386C246.929 46.8987 246.564 46.6356 246.503 46.2509C246.442 45.8662 246.708 45.5056 247.098 45.4455Z" fill="#2E186A"/>
<path fill-rule="evenodd" clip-rule="evenodd" d="M238.267 45.3298C238.769 45.2085 239.283 45.2111 239.767 45.2853L239.869 45.3022C239.948 45.3163 240.011 45.3301 240.056 45.3416C240.438 45.4389 240.668 45.8234 240.569 46.2004C240.474 46.5639 240.108 46.7878 239.74 46.7161L239.656 46.6974C239.629 46.6921 239.592 46.6855 239.547 46.6786C239.234 46.6305 238.899 46.6288 238.606 46.6995C238.212 46.7946 237.955 47.0003 237.818 47.3954L237.8 47.4504C237.686 47.8231 237.287 48.0338 236.91 47.921C236.532 47.8082 236.319 47.4147 236.433 47.042C236.721 46.1039 237.39 45.5417 238.267 45.3298Z" fill="#2E186A"/>
<path fill-rule="evenodd" clip-rule="evenodd" d="M247.709 62.6627C247.161 63.1797 246.304 63.8377 245.114 64.3782C245.114 64.3782 245.257 66.7282 247.994 65.9527C249.684 65.4827 249.47 64.0022 249.065 62.9447C248.827 62.4042 248.137 62.2632 247.709 62.6627Z" fill="#2E186A"/>
<path fill-rule="evenodd" clip-rule="evenodd" d="M191.08 73.9573C193.636 68.2189 192.187 62.0379 187.843 60.1515C183.499 58.2652 177.905 61.388 175.349 67.1263C172.793 72.8647 174.242 79.0458 178.586 80.9321C182.93 82.8184 188.524 79.6956 191.08 73.9573Z" fill="#4747D0"/>
<path fill-rule="evenodd" clip-rule="evenodd" d="M164.784 62.4275C160.428 60.477 159.81 62.7095 161.071 63.8375C162.666 65.224 170.258 69.1485 170.258 69.1485C170.258 69.1485 164.118 68.702 162.547 72.1095C160.976 75.517 162.618 75.799 164.974 74.295C167.307 72.791 174.519 74.7415 174.519 74.7415L176.685 76.8565C176.685 76.8565 184.135 79.512 186.372 71.334C188.038 66.6575 185.015 63.3205 185.015 63.3205C184.159 62.2865 181.16 57.939 170.877 55.3305C170.877 55.3305 166.046 54.649 169.64 57.093C170.568 57.7275 171.544 58.2445 172.472 58.691" fill="white"/>
<path fill-rule="evenodd" clip-rule="evenodd" d="M169.59 54.5383C169.901 54.5367 170.229 54.5545 170.556 54.585L170.729 54.6024C170.835 54.6137 170.919 54.6243 170.978 54.6326C171.004 54.6363 171.029 54.6413 171.055 54.6477C174.379 55.4911 177.159 56.5633 179.461 57.8189C181.232 58.7854 182.648 59.8188 183.794 60.9037C184.177 61.2656 184.513 61.6178 184.827 61.9771L184.944 62.1122C185.015 62.1955 185.12 62.3229 185.225 62.4501L185.569 62.8747L185.618 62.932C185.671 62.9954 185.736 63.0769 185.81 63.176L185.887 63.2809C186.125 63.6103 186.361 63.991 186.581 64.4198C187.645 66.4925 187.964 68.8766 187.092 71.4355L187.054 71.5427L187.023 71.6559C186.138 74.7656 184.445 76.6607 182.182 77.4949L182.082 77.531C180.508 78.0858 178.854 78.0833 177.303 77.7514C176.909 77.6672 176.615 77.5812 176.442 77.5197C176.361 77.4907 176.286 77.4476 176.221 77.3924L176.183 77.3578L174.152 75.3751L173.913 75.3154L173.717 75.268C173.229 75.1512 172.694 75.0344 172.132 74.9253C171.158 74.7366 170.207 74.5919 169.32 74.5086C167.443 74.3324 166.033 74.4546 165.362 74.8871C163.94 75.7949 162.732 76.1405 161.914 75.6449C160.935 75.0513 161.018 73.7235 161.897 71.8175C162.6 70.2911 164.072 69.3408 166.042 68.8363C166.507 68.7173 166.976 68.6275 167.442 68.5626L167.596 68.5418L167.327 68.3972C166.712 68.0661 166.104 67.7347 165.517 67.4091L164.957 67.0968L164.299 66.7249C162.465 65.6803 161.188 64.8784 160.591 64.3601C159.656 63.5232 159.454 62.201 160.358 61.4414C161.256 60.6864 162.89 60.8053 165.079 61.7855C165.438 61.9463 165.597 62.3641 165.434 62.7187C165.271 63.0733 164.848 63.2304 164.489 63.0696C162.751 62.2915 161.645 62.211 161.284 62.5148C161.134 62.6413 161.187 62.9899 161.543 63.3084C162.057 63.7557 163.383 64.5813 165.257 65.6424L165.662 65.8708L165.87 65.9871C166.673 66.4351 167.52 66.8972 168.378 67.3568L169.115 67.7498C169.454 67.9297 169.772 68.0971 170.062 68.2492L170.589 68.524C171.263 68.8724 170.989 69.8706 170.247 69.8536L170.043 69.8433C168.947 69.7995 167.636 69.8848 166.4 70.2011C164.807 70.6092 163.69 71.3304 163.196 72.4016C162.849 73.1557 162.669 73.7443 162.644 74.1435C162.63 74.3758 162.655 74.4393 162.661 74.4433C162.835 74.5487 163.561 74.3449 164.512 73.7501L164.584 73.7048C165.608 73.0441 167.272 72.9 169.455 73.1049C170.394 73.1931 171.391 73.3447 172.407 73.5417C172.918 73.6408 173.406 73.746 173.861 73.8521L174.053 73.8976C174.196 73.9317 174.327 73.9638 174.445 73.9936L174.707 74.0616C174.809 74.089 174.903 74.1382 174.982 74.2053L175.021 74.2403L177.066 76.2371L177.091 76.2448C177.216 76.281 177.356 76.3175 177.511 76.3526L177.605 76.3734C178.918 76.6543 180.316 76.6564 181.602 76.2031C183.467 75.5461 184.871 74.0016 185.646 71.2807L185.683 71.1502L185.698 71.1001C186.487 68.8867 186.225 66.8454 185.307 65.057C185.121 64.6938 184.922 64.3731 184.724 64.0992L184.645 63.9927C184.62 63.9594 184.596 63.9282 184.573 63.8992L184.522 63.8368L184.463 63.7669C184.436 63.7328 184.053 63.2579 183.872 63.0445L183.853 63.0219C183.536 62.6517 183.198 62.2928 182.806 61.9216C181.748 60.9205 180.432 59.96 178.77 59.053C176.635 57.8879 174.05 56.882 170.952 56.0781L170.74 56.0235L170.684 56.0167C170.605 56.0072 170.517 55.9976 170.421 55.9887C170.138 55.9623 169.856 55.9469 169.597 55.9483C169.519 55.9486 169.444 55.9506 169.375 55.9541L169.314 55.9575L169.356 55.9949C169.513 56.1304 169.717 56.2863 169.969 56.4606L170.046 56.5134C170.843 57.0582 171.718 57.5444 172.785 58.0572C173.139 58.2278 173.286 58.6498 173.114 58.9998C172.941 59.3498 172.514 59.4954 172.159 59.3248C171.033 58.7832 170.098 58.2637 169.234 57.6736L169.088 57.5726C167.845 56.7044 167.327 56.0192 167.7 55.275C167.995 54.6875 168.62 54.5432 169.59 54.5383Z" fill="#2E186A"/>
<path fill-rule="evenodd" clip-rule="evenodd" d="M171.591 65.2951C170.068 64.5666 163.665 62.5926 162.166 60.8066C160.666 59.0206 162.594 57.9631 168.068 60.4541" fill="white"/>
<path fill-rule="evenodd" clip-rule="evenodd" d="M162.374 58.3327C163.636 58.1054 165.712 58.6052 168.367 59.8136C168.725 59.9765 168.882 60.3953 168.717 60.7489C168.552 61.1025 168.128 61.2571 167.77 61.0941C165.358 59.9968 163.533 59.5572 162.63 59.7198C162.525 59.7387 162.45 59.7634 162.404 59.7874L162.39 59.7954L162.391 59.7999C162.394 59.8194 162.402 59.8471 162.415 59.8829L162.426 59.9113C162.477 60.0357 162.573 60.1875 162.715 60.3564C162.86 60.5289 163.089 60.7258 163.396 60.9381C164.159 61.466 165.317 62.0387 166.854 62.6771L167.246 62.8376C168.217 63.2274 171.467 64.4521 171.902 64.6604C172.257 64.8301 172.406 65.2518 172.234 65.6022C172.068 65.9396 171.666 66.0879 171.319 65.9469L171.205 65.8959C170.599 65.6351 167.666 64.5287 166.704 64.142L166.611 64.1046C164.833 63.3792 163.497 62.7293 162.577 62.0929C162.174 61.814 161.853 61.5381 161.616 61.2563C160.547 59.9834 160.79 58.6178 162.374 58.3327Z" fill="#2E186A"/>
<path fill-rule="evenodd" clip-rule="evenodd" d="M174.019 62.6157C173.852 62.4042 163.356 59.3257 164.07 57.8452C164.641 56.6467 166.165 56.2942 171.972 58.4562L176.613 60.4772" fill="white"/>
<path fill-rule="evenodd" clip-rule="evenodd" d="M163.424 57.5453C164.305 55.6967 166.56 55.7211 171.893 57.6748L172.224 57.7968L172.26 57.8115L176.901 59.8325C177.262 59.9896 177.426 60.4057 177.267 60.762C177.113 61.1055 176.716 61.2679 176.364 61.1382L176.325 61.1226L171.705 59.1108L171.31 58.965C167.056 57.4106 165.378 57.2828 164.824 57.9733L164.811 57.9896L164.835 58.0131C164.883 58.0585 164.944 58.1106 165.019 58.1673L165.065 58.2019C165.457 58.489 166.088 58.8281 166.92 59.2032C167.503 59.4662 168.175 59.7424 168.929 60.0327L169.49 60.2454C170.175 60.5021 170.832 60.7373 171.679 61.0312L173.725 61.7366L173.953 61.8187C174 61.8364 174.044 61.8527 174.082 61.8677L174.154 61.896C174.209 61.9185 174.255 61.9388 174.297 61.9591C174.418 62.0194 174.488 62.0631 174.583 62.1832C174.825 62.4905 174.769 62.9335 174.457 63.1725C174.218 63.3564 173.897 63.3661 173.652 63.2208L173.634 63.2099L173.555 63.1781C173.503 63.158 173.437 63.1336 173.357 63.1047L172.386 62.7676L171.332 62.4051C170.325 62.0565 169.584 61.791 168.773 61.4846L168.408 61.3456C167.631 61.0466 166.937 60.7607 166.327 60.4858C165.412 60.0732 164.704 59.6925 164.215 59.3346C163.473 58.7916 163.1 58.2156 163.424 57.5453Z" fill="#2E186A"/>
<path fill-rule="evenodd" clip-rule="evenodd" d="M282.268 162.28L189.632 162.233L188.966 98.148L281.602 97.208L282.268 162.28Z" fill="white"/>
<path fill-rule="evenodd" clip-rule="evenodd" d="M281.594 96.503L188.959 97.443C188.564 97.447 188.248 97.7658 188.252 98.1552L188.918 162.24C188.922 162.626 189.241 162.937 189.632 162.937L282.268 162.984C282.665 162.985 282.986 162.665 282.982 162.272L282.316 97.2008C282.312 96.8114 281.989 96.499 281.594 96.503ZM280.895 97.92L281.547 161.574L190.339 161.528L189.687 98.8454L280.895 97.92Z" fill="#2E186A"/>
<path fill-rule="evenodd" clip-rule="evenodd" d="M275.865 144.396H198.367C197.963 144.396 197.653 144.091 197.653 143.691C197.653 143.292 197.963 142.986 198.367 142.986H275.865C276.27 142.986 276.579 143.292 276.579 143.691C276.579 144.091 276.27 144.396 275.865 144.396Z" fill="#968BB4"/>
<path fill-rule="evenodd" clip-rule="evenodd" d="M275.865 135.255H198.367C197.963 135.255 197.653 134.949 197.653 134.55C197.653 134.15 197.963 133.845 198.367 133.845H275.865C276.27 133.845 276.579 134.15 276.579 134.55C276.579 134.949 276.27 135.255 275.865 135.255Z" fill="#968BB4"/>
<path fill-rule="evenodd" clip-rule="evenodd" d="M275.865 126.113L198.367 126.113C197.963 126.113 197.653 125.808 197.653 125.408C197.653 125.009 197.963 124.703 198.367 124.703L275.865 124.703C276.27 124.703 276.579 125.009 276.579 125.408C276.579 125.808 276.27 126.113 275.865 126.113Z" fill="#968BB4"/>
<path fill-rule="evenodd" clip-rule="evenodd" d="M275.865 116.972L198.367 116.972C197.963 116.972 197.653 116.666 197.653 116.267C197.653 115.867 197.963 115.562 198.367 115.562L275.865 115.562C276.27 115.562 276.579 115.867 276.579 116.267C276.579 116.666 276.27 116.972 275.865 116.972Z" fill="#968BB4"/>
<rect width="10.853" height="41.7341" transform="matrix(0.999949 -0.0100958 0.0103566 0.999946 241.074 110.514)" fill="#000091"/>
<rect width="10.9244" height="26.7653" transform="matrix(0.999949 -0.0100958 0.0103566 0.999946 259.573 125.482)" fill="#6A6AF4"/>
<rect width="10.9244" height="26.7653" transform="matrix(0.999949 -0.0100958 0.0103566 0.999946 222.897 125.482)" fill="#6A6AF4"/>
<path fill-rule="evenodd" clip-rule="evenodd" d="M215.909 152.104L205.055 152.222L204.889 139.391L215.742 139.273L215.909 152.104Z" fill="#6A6AF4"/>
<path fill-rule="evenodd" clip-rule="evenodd" d="M198.367 106.561C198.748 106.561 199.058 106.854 199.08 107.224L199.081 107.266L199.081 151.516H275.865C276.246 151.516 276.556 151.81 276.578 152.18L276.579 152.221C276.579 152.597 276.282 152.903 275.907 152.925L275.865 152.926H198.367C197.987 152.926 197.676 152.633 197.655 152.263L197.653 152.221V107.266C197.653 106.876 197.973 106.561 198.367 106.561Z" fill="#2E186A"/>
<path fill-rule="evenodd" clip-rule="evenodd" d="M213.053 154.172C213.447 154.172 213.767 154.488 213.767 154.877C213.767 155.252 213.47 155.559 213.095 155.581L213.053 155.582H206.674C206.28 155.582 205.96 155.266 205.96 154.877C205.96 154.501 206.257 154.195 206.632 154.173L206.674 154.172H213.053Z" fill="#6A6AF4"/>
<path fill-rule="evenodd" clip-rule="evenodd" d="M231.737 154.172C232.132 154.172 232.451 154.488 232.451 154.877C232.451 155.252 232.154 155.559 231.779 155.581L231.737 155.582H225.359C224.964 155.582 224.645 155.266 224.645 154.877C224.645 154.501 224.942 154.195 225.317 154.173L225.359 154.172H231.737Z" fill="#6A6AF4"/>
<path fill-rule="evenodd" clip-rule="evenodd" d="M250.065 154.172C250.459 154.172 250.779 154.488 250.779 154.877C250.779 155.252 250.482 155.559 250.107 155.581L250.065 155.582H243.662C243.268 155.582 242.948 155.266 242.948 154.877C242.948 154.501 243.246 154.195 243.62 154.173L243.662 154.172H250.065Z" fill="#000091"/>
<path fill-rule="evenodd" clip-rule="evenodd" d="M268.415 154.172C268.809 154.172 269.129 154.488 269.129 154.877C269.129 155.252 268.832 155.559 268.457 155.581L268.415 155.582H262.036C261.642 155.582 261.322 155.266 261.322 154.877C261.322 154.501 261.62 154.195 261.994 154.173L262.036 154.172H268.415Z" fill="#6A6AF4"/>
<path fill-rule="evenodd" clip-rule="evenodd" d="M195.178 117.841C194.773 117.841 194.464 117.535 194.464 117.136V116.031C194.464 115.632 194.773 115.326 195.178 115.326C195.583 115.326 195.892 115.632 195.892 116.031V117.136C195.892 117.512 195.583 117.841 195.178 117.841Z" fill="#968BB4"/>
<path fill-rule="evenodd" clip-rule="evenodd" d="M195.178 126.653C194.773 126.653 194.464 126.348 194.464 125.948V124.844C194.464 124.444 194.773 124.139 195.178 124.139C195.583 124.139 195.892 124.444 195.892 124.844V125.948C195.892 126.348 195.583 126.653 195.178 126.653Z" fill="#968BB4"/>
<path fill-rule="evenodd" clip-rule="evenodd" d="M195.178 136.359C194.773 136.359 194.464 136.054 194.464 135.654V134.55C194.464 134.15 194.773 133.845 195.178 133.845C195.583 133.845 195.892 134.15 195.892 134.55V135.654C195.892 136.03 195.583 136.359 195.178 136.359Z" fill="#968BB4"/>
<path fill-rule="evenodd" clip-rule="evenodd" d="M195.178 145.5C194.773 145.5 194.464 145.194 194.464 144.795V143.69C194.464 143.291 194.773 142.985 195.178 142.985C195.583 142.985 195.892 143.291 195.892 143.69V144.795C195.892 145.171 195.583 145.5 195.178 145.5Z" fill="#968BB4"/>
<path fill-rule="evenodd" clip-rule="evenodd" d="M293.931 134.385C299.058 134.385 303.214 129.303 303.214 123.034C303.214 116.765 299.058 111.684 293.931 111.684C288.804 111.684 284.648 116.765 284.648 123.034C284.648 129.303 288.804 134.385 293.931 134.385Z" fill="#2E186A"/>
<path fill-rule="evenodd" clip-rule="evenodd" d="M271.891 124.562C267.106 124.609 267.463 122.306 269.058 121.813C271.081 121.178 279.626 120.614 279.626 120.614C279.626 120.614 273.818 118.57 273.771 114.833C273.723 111.097 275.342 111.496 276.865 113.799C278.388 116.102 285.791 117.183 285.791 117.183L288.647 116.102C288.647 116.102 296.549 116.643 295.264 124.985C294.883 129.92 290.765 131.777 290.765 131.777C289.551 132.388 285.053 135.161 274.556 133.469C274.556 133.469 269.867 132.153 274.128 131.354C275.247 131.142 276.341 131.048 277.365 131.025" fill="white"/>
<path fill-rule="evenodd" clip-rule="evenodd" d="M290.396 131.172L290.533 131.103C290.557 131.091 290.585 131.076 290.618 131.058C290.756 130.985 290.911 130.893 291.079 130.783C291.565 130.466 292.052 130.069 292.507 129.588C293.634 128.396 294.37 126.902 294.541 125.063L294.554 124.905L294.558 124.879C295.111 121.291 293.956 119.062 291.673 117.779C290.998 117.4 290.269 117.134 289.539 116.964C289.284 116.905 289.048 116.862 288.838 116.833L288.743 116.82L286.046 117.841C285.948 117.878 285.843 117.893 285.739 117.886L285.686 117.88L285.405 117.836L285.276 117.814C284.955 117.76 284.597 117.695 284.213 117.619C283.114 117.401 282.014 117.137 280.983 116.825L280.715 116.742C278.558 116.064 277.024 115.266 276.31 114.247L276.267 114.184C275.629 113.219 275.03 112.722 274.826 112.749L274.821 112.752C274.807 112.765 274.761 112.825 274.69 113.015C274.55 113.389 274.475 113.997 274.485 114.824C274.502 116.172 275.462 117.426 277.101 118.53C277.706 118.938 278.359 119.293 279.012 119.593C279.203 119.681 279.382 119.758 279.545 119.825L279.782 119.918L279.866 119.95C280.596 120.206 280.447 121.266 279.674 121.317L278.916 121.37C278.62 121.391 278.301 121.415 277.964 121.441L277.109 121.509C276.115 121.59 275.131 121.677 274.201 121.769L273.8 121.81C271.566 122.039 269.949 122.273 269.272 122.485C268.825 122.623 268.641 122.91 268.725 123.083C268.933 123.506 269.977 123.875 271.884 123.857C272.278 123.853 272.601 124.165 272.605 124.555C272.609 124.944 272.292 125.263 271.898 125.267C269.497 125.29 267.953 124.745 267.44 123.697C266.922 122.64 267.649 121.509 268.842 121.14L268.942 121.11C269.828 120.855 271.6 120.61 274.058 120.366L274.757 120.299C275.346 120.243 275.951 120.19 276.563 120.139L276.949 120.107L276.858 120.053C276.731 119.976 276.606 119.898 276.481 119.817L276.296 119.695C274.311 118.358 273.081 116.751 273.057 114.841C273.03 112.752 273.496 111.505 274.633 111.352C275.582 111.224 276.543 112.021 277.463 113.413C277.94 114.135 279.367 114.861 281.401 115.477C282.382 115.774 283.438 116.027 284.494 116.236C284.864 116.31 285.208 116.372 285.516 116.424L285.713 116.457L288.391 115.443C288.472 115.413 288.558 115.397 288.645 115.397L288.696 115.398L288.79 115.406C289.041 115.429 289.412 115.486 289.867 115.592C290.721 115.791 291.576 116.102 292.379 116.553C295.138 118.103 296.583 120.856 295.989 124.962L295.974 125.063L295.964 125.18C295.77 127.306 294.925 129.06 293.637 130.458L293.551 130.551C293.015 131.117 292.442 131.584 291.867 131.959L291.73 132.047C291.487 132.2 291.285 132.311 291.137 132.382L291.082 132.409L290.502 132.707L290.211 132.852C289.731 133.084 289.234 133.296 288.68 133.496C285.162 134.767 280.561 135.15 274.441 134.164C274.414 134.16 274.388 134.154 274.361 134.146L274.184 134.093C274.14 134.08 274.091 134.064 274.038 134.047L273.984 134.029C273.706 133.938 273.428 133.835 273.165 133.723C272.77 133.555 272.442 133.379 272.191 133.184C271.753 132.844 271.508 132.421 271.671 131.902C271.875 131.255 272.616 130.919 273.994 130.661C275.083 130.455 276.201 130.346 277.348 130.319C277.743 130.31 278.07 130.618 278.079 131.008C278.088 131.397 277.776 131.72 277.382 131.729C276.31 131.754 275.27 131.855 274.261 132.046C273.931 132.108 273.659 132.173 273.444 132.239L273.374 132.261L273.402 132.275C273.48 132.315 273.566 132.356 273.66 132.398L273.731 132.429C273.953 132.523 274.194 132.612 274.436 132.692L274.558 132.731L274.713 132.779L274.881 132.806C280.588 133.701 284.842 133.352 288.071 132.214L288.189 132.172C288.631 132.012 289.033 131.845 289.419 131.664L289.583 131.586C289.787 131.487 290.247 131.249 290.396 131.172Z" fill="#2E186A"/>
<path fill-rule="evenodd" clip-rule="evenodd" d="M279.317 124.656C277.627 124.703 270.963 123.998 268.868 125.008C266.774 126.019 268.106 127.781 274.128 127.664" fill="white"/>
<path fill-rule="evenodd" clip-rule="evenodd" d="M268.555 124.375C269.582 123.879 271.378 123.72 273.984 123.761L274.368 123.768C274.927 123.781 275.507 123.801 276.196 123.832L278.742 123.949C279.057 123.961 279.105 123.956 279.297 123.951C279.692 123.94 280.02 124.247 280.031 124.636C280.042 125.025 279.732 125.35 279.338 125.361L279.017 125.367C278.85 125.367 278.592 125.356 277.878 125.323L276.292 125.248C275.542 125.214 274.927 125.191 274.338 125.178L273.961 125.171C271.593 125.134 269.93 125.281 269.182 125.642C268.986 125.737 268.837 125.834 268.741 125.925C268.719 125.947 268.701 125.966 268.688 125.981L268.666 126.009L268.676 126.023C268.704 126.058 268.751 126.101 268.82 126.151L268.856 126.176C269.619 126.687 271.468 127.011 274.115 126.959C274.509 126.951 274.835 127.261 274.843 127.65C274.85 128.039 274.537 128.361 274.143 128.369C271.226 128.426 269.12 128.057 268.054 127.342C266.722 126.45 267.056 125.098 268.555 124.375Z" fill="#2E186A"/>
<path fill-rule="evenodd" clip-rule="evenodd" d="M280.436 128.064C280.198 128.205 269.344 126.842 269.392 128.463C269.439 129.803 270.677 130.719 276.865 131.025H281.959" fill="white"/>
<path fill-rule="evenodd" clip-rule="evenodd" d="M271.035 127.031C272.02 126.935 273.332 126.935 274.949 127.009L275.344 127.028C275.875 127.056 276.429 127.09 277.027 127.132L278.123 127.213L279.577 127.326C279.814 127.344 279.991 127.355 280.123 127.362L280.233 127.367L280.313 127.369L280.346 127.364C280.605 127.332 280.87 127.442 281.025 127.665L281.048 127.701C281.251 128.035 281.141 128.468 280.803 128.668C280.687 128.737 280.601 128.758 280.493 128.771C280.452 128.775 280.411 128.778 280.367 128.779C280.329 128.779 280.287 128.779 280.239 128.778L280.135 128.774C280.05 128.771 279.948 128.765 279.826 128.757L277.377 128.571L276.758 128.527C276.222 128.49 275.721 128.459 275.24 128.435L274.883 128.417C273.385 128.349 272.165 128.347 271.272 128.425L271.175 128.434C270.725 128.478 270.38 128.542 270.162 128.62L270.132 128.631L270.136 128.645C270.371 129.526 272.002 130.069 276.746 130.313L276.887 130.32H281.959C282.34 130.32 282.65 130.613 282.672 130.983L282.673 131.025C282.673 131.4 282.376 131.707 282.001 131.729L281.959 131.73H276.866L276.83 131.729L276.478 131.711C270.805 131.401 268.751 130.54 268.678 128.484C268.662 127.922 269.032 127.548 269.589 127.327C269.953 127.183 270.432 127.089 271.035 127.031Z" fill="#2E186A"/>
<path fill-rule="evenodd" clip-rule="evenodd" d="M153.811 111.308C158.357 109.545 156.858 107.947 155.072 108.182C152.835 108.464 144.457 111.237 144.457 111.237C144.457 111.237 148.884 107.524 147.004 104.704C145.123 101.884 143.79 102.777 143.529 105.104C143.267 107.43 136.483 110.72 136.483 110.72L133.675 111.425C133.675 111.425 127.82 116.102 133.461 121.906C136.483 125.549 140.72 124.773 140.72 124.773C142.005 124.585 146.837 124.233 155.858 119.016C155.858 119.016 159.618 116.266 155.168 117.277C154.025 117.535 152.906 117.888 151.931 118.24" fill="white"/>
<path fill-rule="evenodd" clip-rule="evenodd" d="M144.472 102.294C145.506 102.016 146.56 102.756 147.6 104.317C148.033 104.966 148.219 105.687 148.177 106.449C148.12 107.517 147.634 108.599 146.852 109.674L146.804 109.738L146.845 109.725C147.412 109.545 147.98 109.368 148.541 109.195L149.346 108.95L150.241 108.681C152.492 108.015 154.131 107.59 154.978 107.483C156.253 107.316 157.474 107.865 157.529 108.961C157.585 110.062 156.383 111.068 154.072 111.964C153.705 112.106 153.291 111.928 153.146 111.565C153.002 111.203 153.183 110.794 153.55 110.651C154.559 110.26 155.28 109.869 155.715 109.505C155.885 109.363 155.999 109.235 156.06 109.13C156.095 109.071 156.103 109.04 156.103 109.031C156.1 108.975 155.727 108.807 155.163 108.882L155.071 108.894C154.29 109.009 152.727 109.417 150.634 110.037L150.244 110.153C150.007 110.224 149.766 110.297 149.52 110.372C148.602 110.651 147.655 110.948 146.718 111.247L146.011 111.473L144.684 111.906C143.952 112.148 143.414 111.235 143.965 110.726L144.106 110.602L144.227 110.492C144.29 110.434 144.356 110.37 144.426 110.302C144.759 109.977 145.093 109.615 145.403 109.228C146.21 108.221 146.705 107.233 146.751 106.374C146.777 105.905 146.668 105.483 146.407 105.092C145.996 104.475 145.616 104.053 145.29 103.824C145.069 103.668 144.928 103.632 144.847 103.654C144.768 103.675 144.663 103.774 144.553 103.986C144.416 104.249 144.31 104.624 144.251 105.082L144.238 105.182C144.161 105.87 143.729 106.557 143.011 107.278C142.359 107.933 141.471 108.612 140.403 109.307C139.613 109.82 138.771 110.313 137.928 110.768L137.681 110.9C137.52 110.986 137.366 111.066 137.221 111.141L136.84 111.332C136.822 111.342 136.808 111.348 136.798 111.353C136.769 111.367 136.738 111.38 136.707 111.39L136.659 111.403L134.015 112.067L133.987 112.093C133.936 112.139 133.881 112.19 133.824 112.246L133.766 112.304C133.479 112.589 133.192 112.921 132.924 113.294C132.186 114.322 131.741 115.452 131.723 116.649C131.699 118.193 132.387 119.783 133.976 121.418L133.995 121.438L134.013 121.459C134.596 122.161 135.25 122.714 135.966 123.134C137.427 123.991 138.967 124.229 140.279 124.116L140.382 124.106C140.45 124.1 140.503 124.093 140.54 124.088L140.616 124.076C140.708 124.062 141.151 124.004 141.27 123.988C141.594 123.943 141.899 123.895 142.23 123.835C143.128 123.671 144.093 123.439 145.177 123.107C148.071 122.221 151.41 120.753 155.274 118.536L155.462 118.427L155.607 118.316L155.643 118.288C155.804 118.16 155.965 118.024 156.114 117.887L156.186 117.82L156.209 117.797L156.2 117.799C155.982 117.829 155.725 117.876 155.428 117.941L155.327 117.964C154.312 118.194 153.248 118.515 152.176 118.902C151.806 119.036 151.396 118.848 151.26 118.482C151.125 118.117 151.315 117.712 151.685 117.578C152.81 117.172 153.93 116.833 155.008 116.59L155.199 116.547C156.513 116.264 157.28 116.262 157.731 116.658C158.088 116.97 158.13 117.407 157.965 117.814C157.872 118.042 157.716 118.265 157.503 118.502C157.381 118.638 157.241 118.778 157.087 118.92C156.954 119.041 156.816 119.16 156.677 119.274L156.537 119.387C156.425 119.476 156.337 119.543 156.283 119.582C156.262 119.597 156.241 119.611 156.219 119.624C152.168 121.967 148.657 123.518 145.6 124.454C144.461 124.802 143.441 125.048 142.489 125.221C142.206 125.273 141.942 125.316 141.673 125.355L141.279 125.41L140.831 125.47L140.758 125.481C140.71 125.488 140.65 125.496 140.581 125.503L140.528 125.509C138.915 125.672 137.036 125.402 135.236 124.346C134.424 123.87 133.68 123.252 133.018 122.483L132.927 122.375L132.846 122.291C131.109 120.465 130.296 118.594 130.294 116.733L130.295 116.627C130.318 115.114 130.867 113.722 131.759 112.479C132.075 112.039 132.412 111.649 132.751 111.311L132.851 111.213C133.011 111.058 133.14 110.946 133.226 110.877C133.293 110.824 133.368 110.783 133.45 110.756L133.499 110.742L136.234 110.055L136.46 109.942L136.668 109.835C136.848 109.742 137.04 109.64 137.243 109.531C138.054 109.093 138.864 108.62 139.617 108.13C140.608 107.485 141.423 106.862 141.992 106.289C142.506 105.773 142.785 105.331 142.819 105.026C142.982 103.58 143.519 102.55 144.472 102.294Z" fill="#2E186A"/>
<path fill-rule="evenodd" clip-rule="evenodd" d="M146.838 114.152C148.48 113.564 154.407 110.509 156.906 110.486C159.405 110.462 159.048 112.272 153.312 114.457" fill="white"/>
<path fill-rule="evenodd" clip-rule="evenodd" d="M156.899 109.781C157.677 109.773 158.286 109.917 158.679 110.262C159.212 110.73 159.213 111.416 158.788 112.037C158.136 112.992 156.348 114.056 153.568 115.115C153.2 115.255 152.787 115.074 152.645 114.711C152.503 114.348 152.686 113.939 153.054 113.799L153.308 113.702C155.643 112.79 157.125 111.905 157.581 111.282L157.596 111.261L157.573 111.254L157.538 111.245C157.379 111.208 157.167 111.188 156.912 111.19C156.043 111.199 154.529 111.656 152.49 112.483C152.205 112.599 151.91 112.721 151.601 112.852L151.141 113.05C150.556 113.307 147.554 114.645 147.081 114.814C146.71 114.947 146.3 114.758 146.166 114.392C146.036 114.039 146.21 113.65 146.555 113.504L146.681 113.455C147.362 113.185 150.36 111.847 150.654 111.721L151.038 111.556C151.353 111.423 151.655 111.297 151.948 111.178L152.232 111.064C154.296 110.241 155.833 109.791 156.899 109.781Z" fill="#2E186A"/>
<path fill-rule="evenodd" clip-rule="evenodd" d="M147.527 117.159C147.837 117.159 157.381 112.06 158.19 113.305C158.833 114.316 158.143 115.491 152.454 118.052L147.646 119.956" fill="white"/>
<path fill-rule="evenodd" clip-rule="evenodd" d="M156.109 112.681L156.276 112.634C157.564 112.275 158.363 112.265 158.795 112.931C159.893 114.656 158.332 116.149 153.077 118.546L152.751 118.694L152.72 118.707L147.912 120.61C147.546 120.755 147.131 120.58 146.984 120.218C146.842 119.87 147.002 119.476 147.342 119.318L147.381 119.302L152.174 117.404L152.572 117.223C154.946 116.135 156.424 115.287 157.167 114.62L157.21 114.582L157.301 114.496C157.63 114.178 157.714 114.004 157.659 113.828L157.654 113.815L157.609 113.815L157.575 113.816C157.33 113.828 156.968 113.901 156.513 114.034L156.319 114.092C155.526 114.337 154.517 114.731 153.323 115.251L153.173 115.317C152.91 115.432 152.64 115.553 152.362 115.679L151.699 115.983C151.259 116.186 150.84 116.384 150.29 116.647L148.16 117.671C147.64 117.916 147.699 117.865 147.528 117.865C147.133 117.865 146.813 117.549 146.813 117.16C146.813 116.84 147.029 116.57 147.325 116.483L147.361 116.474L147.385 116.464C147.419 116.45 147.461 116.432 147.513 116.408L147.891 116.232L149.851 115.291C150.495 114.983 150.968 114.762 151.552 114.495L151.977 114.302C152.186 114.208 152.391 114.116 152.592 114.028L152.903 113.893C154.179 113.341 155.253 112.931 156.109 112.681Z" fill="#2E186A"/>
<path fill-rule="evenodd" clip-rule="evenodd" d="M45.752 75.6109C49.4412 73.3079 61.8418 74.3889 71.5053 77.9139L67.6018 85.2929L47.8941 82.2144L45.752 75.6109Z" fill="#2E186A"/>
<path fill-rule="evenodd" clip-rule="evenodd" d="M48.418 81.9798V62.4043L65.8169 72.7678L65.4123 83.2723L48.418 81.9798Z" fill="white"/>
<path fill-rule="evenodd" clip-rule="evenodd" d="M47.7041 62.4043V81.9799C47.7041 82.3482 47.9913 82.6545 48.3633 82.6828L65.3576 83.9753C65.7617 84.006 66.1106 83.699 66.126 83.2992L66.5306 72.7946C66.5405 72.5382 66.4085 72.2967 66.1859 72.1642L48.787 61.8007C48.3111 61.5172 47.7041 61.8556 47.7041 62.4043ZM49.1322 63.6529L65.0876 73.1565L64.7272 82.5128L49.1322 81.3268V63.6529Z" fill="#2E186A"/>
<path fill-rule="evenodd" clip-rule="evenodd" d="M71.4582 41.442C64.3653 36.601 57.9865 34.815 47.9898 47.4581L46.6331 55.7771C42.4441 54.5316 40.2305 56.5526 41.135 60.1716C42.1108 64.0726 44.3958 65.8116 48.204 64.8011C47.9898 64.3076 48.204 64.8011 48.204 64.8011C50.0368 68.8901 53.4642 73.5666 59.8668 74.9531C69.8873 77.0916 72.2198 70.9816 73.3385 68.5611C74.4572 66.1406 78.5511 46.2831 71.4582 41.442Z" fill="white"/>
<path fill-rule="evenodd" clip-rule="evenodd" d="M60.7117 37.1957C56.5446 37.7863 52.2896 40.8747 47.4272 47.0243L47.397 47.0654C47.3397 47.1497 47.3015 47.2454 47.2851 47.346L46.0531 54.9003L46.0277 54.8949C41.8949 54.0196 39.4441 56.3478 40.4419 60.3405L40.4749 60.4697C41.5237 64.4953 43.9895 66.3408 47.6756 65.6446L47.798 65.6206L47.8513 65.7322C50.3089 70.8363 54.1456 74.4359 59.7141 75.6418C65.9335 76.9691 69.895 75.4253 72.3504 71.9104C72.7188 71.383 73.0401 70.8305 73.3487 70.2172L73.4487 70.0156C73.4984 69.9139 73.5481 69.8101 73.5994 69.7009L73.9883 68.8538C74.8042 67.0885 75.9523 61.0111 76.1912 55.9421L76.2099 55.5054C76.4848 48.4101 75.2125 43.1473 71.8644 40.8622L71.5639 40.6587C67.3796 37.8494 64.1835 36.7037 60.7117 37.1957ZM71.0524 42.022C73.8965 43.9632 75.0645 48.9146 74.7739 55.6712L74.7646 55.8765C74.5358 60.7326 73.4386 66.5766 72.711 68.2199L72.4047 68.8908L72.3049 69.1054C72.2241 69.2774 72.1481 69.4341 72.0698 69.5898C71.7895 70.1469 71.5012 70.6426 71.1748 71.1099C69.0483 74.154 65.6704 75.4704 60.0179 74.264C54.7232 73.1175 51.1299 69.5865 48.8572 64.5158C48.7154 64.1994 48.362 64.0314 48.023 64.1192L47.9092 64.1487C44.6768 64.9663 42.7317 63.6134 41.8284 60.0026C41.0439 56.8636 42.8257 55.3813 46.4275 56.4522L46.4689 56.4632C46.8692 56.5573 47.2719 56.2962 47.3383 55.8892L48.6655 47.7497L48.8315 47.5421C53.3686 41.8878 57.2543 39.1102 60.9146 38.5914C64.0313 38.1497 66.988 39.248 71.0524 42.022Z" fill="#2E186A"/>
<path fill-rule="evenodd" clip-rule="evenodd" d="M68.0454 55.9694C68.4233 55.9271 68.7656 56.1843 68.8293 56.5496L68.8353 56.5906L69.6921 64.0636C69.7393 64.4751 69.4195 64.8347 69.0061 64.8476L68.9645 64.8477L66.1559 64.7772C65.7616 64.7673 65.4502 64.4437 65.4602 64.0545C65.4699 63.6792 65.7749 63.3798 66.1502 63.3678L66.1922 63.3676L68.1807 63.4172L67.4162 56.7492C67.3735 56.3761 67.6339 56.0382 68.0039 55.9752L68.0454 55.9694Z" fill="#2E186A"/>
<path fill-rule="evenodd" clip-rule="evenodd" d="M72.0293 57.7979C72.4894 57.7979 72.8624 57.2192 72.8624 56.5054C72.8624 55.7916 72.4894 55.2129 72.0293 55.2129C71.5693 55.2129 71.1963 55.7916 71.1963 56.5054C71.1963 57.2192 71.5693 57.7979 72.0293 57.7979Z" fill="#2E186A"/>
<path fill-rule="evenodd" clip-rule="evenodd" d="M63.9366 57.6563C64.3967 57.6563 64.7696 57.0776 64.7696 56.3638C64.7696 55.65 64.3967 55.0713 63.9366 55.0713C63.4765 55.0713 63.1035 55.65 63.1035 56.3638C63.1035 57.0776 63.4765 57.6563 63.9366 57.6563Z" fill="#2E186A"/>
<path fill-rule="evenodd" clip-rule="evenodd" d="M59.7398 49.4254C60.675 48.7548 61.8187 48.4215 63.1384 48.617C63.5284 48.6747 63.7972 49.0337 63.7387 49.4188C63.6802 49.8038 63.3166 50.0691 62.9266 50.0114C62.0039 49.8747 61.2282 50.1008 60.579 50.5663C60.3959 50.6976 60.2382 50.838 60.1075 50.9767L60.0368 51.0544C60.0173 51.0767 60.002 51.0952 59.9908 51.1092L59.974 51.1311C59.7464 51.449 59.3008 51.5246 58.9788 51.2999C58.6567 51.0752 58.5801 50.6353 58.8077 50.3173C58.858 50.2471 58.9426 50.1431 59.0618 50.0164C59.2527 49.8138 59.4784 49.6128 59.7398 49.4254Z" fill="white"/>
<path fill-rule="evenodd" clip-rule="evenodd" d="M70.913 48.4329C71.4239 48.3556 71.9667 48.3546 72.4968 48.4854C73.4029 48.7091 74.0948 49.2895 74.4005 50.2554C74.5181 50.6271 74.3084 51.0225 73.9319 51.1386C73.569 51.2506 73.1836 51.062 73.0511 50.7152L73.0374 50.676C72.8893 50.2081 72.5981 49.9638 72.1504 49.8533C71.8315 49.7746 71.4686 49.7753 71.1294 49.8266L71.0647 49.8371C71.0165 49.8454 70.9833 49.8524 70.9679 49.8563C70.5857 49.9526 70.197 49.7247 70.0995 49.3475C70.002 48.9702 70.2327 48.5863 70.6149 48.4901L70.6792 48.4751C70.74 48.4619 70.8188 48.4471 70.913 48.4329Z" fill="#2E186A"/>
<path fill-rule="evenodd" clip-rule="evenodd" d="M62.4662 64.974C62.8416 64.914 63.196 65.1547 63.2773 65.5166L63.2922 65.593C63.3017 65.6373 63.3193 65.7065 63.3462 65.7931C63.4073 65.9898 63.4914 66.1862 63.5992 66.3645C63.9357 66.9209 64.3985 67.1743 65.1454 67.0438C65.5338 66.9759 65.9043 67.2316 65.9731 67.615C66.0418 67.9984 65.7828 68.3643 65.3945 68.4322C64.0153 68.6733 62.9938 68.1139 62.373 67.0872C62.2015 66.8036 62.0736 66.505 61.9809 66.2068L61.9467 66.0911C61.9106 65.9626 61.8878 65.8574 61.8755 65.7826C61.8125 65.3983 62.077 65.0362 62.4662 64.974Z" fill="#2E186A"/>
<path fill-rule="evenodd" clip-rule="evenodd" d="M34.5181 32.4886C30.0196 23.7936 22.7602 23.0416 14.4296 24.6631C6.09906 26.2846 1.41015 37.4001 1.12453 38.4106C-2.2791 50.3956 2.2194 63.2266 12.2399 70.7936C13.3585 71.6396 14.4534 72.4856 15.5245 73.3081C21.4035 77.8671 8.36021 81.7446 8.36021 81.7446C33.3519 83.7186 27.9013 59.0436 27.3777 56.8346C35.375 53.8736 38.7072 40.5961 34.5181 32.4886Z" fill="#2E186A"/>
<path fill-rule="evenodd" clip-rule="evenodd" d="M47.9899 49.7379C47.2045 51.7589 44.8957 52.7459 42.8488 51.9704L28.3774 46.4009C26.3305 45.6254 25.3308 43.3459 26.1163 41.3249C26.9017 39.3039 29.2105 38.3169 31.2574 39.0924L45.7288 44.6619C47.7757 45.4374 48.7754 47.7169 47.9899 49.7379Z" fill="#6A6AF4"/>
<path fill-rule="evenodd" clip-rule="evenodd" d="M78.4798 49.949C78.3845 43.886 76.9088 38.5985 73.2196 35.097C72.7198 34.5095 72.0295 33.9455 71.1489 33.4755C68.1261 31.5485 64.0322 30.5145 58.5816 30.7025C58.4864 30.7025 58.3674 30.7495 58.2484 30.7965C57.3916 30.867 56.5347 31.008 55.7016 31.1725C55.2732 31.243 54.821 31.337 54.345 31.478C52.7978 31.8775 51.3222 32.4415 49.9655 33.0525C37.7553 38.246 32.9711 47.599 38.4217 60.5005C41.2303 67.151 44.8957 69.2895 48.4184 69.313L48.4184 65.271C48.1089 64.6365 47.6091 64.8715 47.6091 64.8715C43.8009 65.882 42.1109 64.0725 41.1351 60.195C40.659 58.315 41.0399 56.858 42.0871 56.0825C42.1109 56.059 42.1347 56.0355 42.1585 56.012C42.2061 55.9885 42.2538 55.965 42.3014 55.918C42.3252 55.8945 42.349 55.8945 42.3966 55.871C42.4442 55.8475 42.4918 55.824 42.5394 55.8005C42.5632 55.777 42.587 55.777 42.6346 55.7535C42.6822 55.73 42.7298 55.7065 42.8012 55.683C42.825 55.683 42.8488 55.6595 42.8726 55.6595C42.944 55.636 42.9916 55.6125 43.063 55.589C43.0868 55.589 43.1106 55.589 43.1106 55.5655C43.42 55.4715 43.7771 55.4245 44.1579 55.401H44.1817C44.2769 55.401 44.3721 55.401 44.4435 55.401C44.4673 55.401 44.4911 55.401 44.4911 55.401C44.5863 55.401 44.6815 55.401 44.7767 55.4245C44.8005 55.4245 44.8243 55.4245 44.8243 55.4245C44.9195 55.4245 45.0147 55.448 45.1099 55.448C45.1337 55.448 45.1337 55.448 45.1575 55.448C45.6098 55.495 46.0858 55.6125 46.6094 55.7535C46.9427 55.8475 46.7046 55.9885 47.0379 56.1295L47.9185 56.059C48.2279 56.059 48.5374 56.0355 48.8468 55.9885C56.5585 55.072 68.5069 49.6435 72.7912 42.6405C75.7902 46.236 76.1234 53.333 75.576 59.3255C77.4325 56.5995 78.5274 53.4035 78.4798 49.949Z" fill="#2E186A"/>
<path fill-rule="evenodd" clip-rule="evenodd" d="M60.3579 47.8512C61.2932 47.1806 62.4368 46.8473 63.7566 47.0428C64.1466 47.1005 64.4153 47.4595 64.3568 47.8445C64.2983 48.2296 63.9347 48.4949 63.5447 48.4372C62.622 48.3005 61.8464 48.5266 61.1971 48.9921C61.0141 49.1233 60.8564 49.2637 60.7257 49.4025L60.655 49.4802C60.6355 49.5025 60.6201 49.5209 60.609 49.5349L60.5922 49.5568C60.3646 49.8748 59.919 49.9504 59.5969 49.7257C59.2749 49.501 59.1983 49.0611 59.4259 48.7431C59.4761 48.6729 59.5607 48.5688 59.68 48.4422C59.8709 48.2396 60.0966 48.0386 60.3579 47.8512Z" fill="white"/>
<path fill-rule="evenodd" clip-rule="evenodd" d="M138.626 122.517C138.626 113.07 137.555 104.234 120.989 105.762C120.465 105.856 119.989 105.95 119.537 106.067L100.234 110.156L85.239 88.8184C83.3349 85.4814 79.8837 83.2724 76.0278 82.9434L71.0533 82.5204L71.5055 77.8909C71.5055 77.8909 70.8153 79.5594 65.3409 80.5699C57.9386 81.9329 45.7522 75.5879 45.7522 75.5879C45.7522 75.5879 45.7522 82.5204 45.7522 82.8494C45.7522 82.9434 36.5886 83.3899 32.3757 85.9984C28.1628 88.5834 26.3777 93.6594 23.4025 100.756C20.4273 107.877 11.0733 133.116 10.8591 134.784C10.6449 136.476 8.57414 146.393 14.0723 152.268C18.7374 157.25 28.4247 165.569 38.4689 162.209L87.2146 161.504C84.1441 154.172 83.0969 144.631 82.8827 135.56C83.9537 136.1 85.0962 136.617 86.3339 137.064C130.795 147.639 134.413 135.56 134.413 135.56C136.984 132.481 138.626 127.781 138.626 122.517Z" fill="#FF8D7E"/>
<path fill-rule="evenodd" clip-rule="evenodd" d="M42.5 103.013L42.5419 103.015C42.9212 103.041 43.2101 103.356 43.205 103.727L43.2032 103.768L41.8941 121.84C41.8586 122.33 41.3386 122.635 40.8856 122.431C37.2997 120.816 33.9018 121.229 30.8685 122.904C30.2804 123.229 29.7574 123.577 29.3071 123.923C29.1772 124.023 29.0617 124.117 28.9612 124.202L28.9026 124.252C28.8375 124.309 28.7959 124.347 28.7786 124.363C28.4956 124.634 28.0436 124.628 27.7689 124.348C27.4943 124.069 27.5012 123.622 27.7842 123.351L27.8374 123.301C27.9639 123.185 28.1625 123.016 28.4293 122.811C28.9344 122.422 29.517 122.035 30.1714 121.674C33.2723 119.961 36.758 119.42 40.4158 120.72L40.54 120.765L41.7787 103.667C41.8059 103.293 42.1246 103.008 42.5 103.013Z" fill="white"/>
<path fill-rule="evenodd" clip-rule="evenodd" d="M47.0694 129.86L47.0706 129.843C47.0854 129.662 47.0732 129.398 47.0091 129.064C46.911 128.552 46.7104 127.992 46.3805 127.394C45.4682 125.739 43.7391 124.072 40.9768 122.487L40.8272 122.402C40.485 122.208 40.3663 121.777 40.5622 121.44C40.7509 121.114 41.1624 120.993 41.5001 121.159L41.5378 121.178L41.6971 121.269C44.6204 122.947 46.5223 124.761 47.5781 126.618L47.6348 126.72C48.3473 128.012 48.5615 129.13 48.494 129.956L48.4874 130.025C48.4851 130.044 48.4828 130.062 48.4806 130.076C48.4201 130.461 48.0552 130.724 47.6655 130.664C47.2758 130.605 47.0089 130.244 47.0694 129.86Z" fill="white"/>
<path fill-rule="evenodd" clip-rule="evenodd" d="M78.9473 96.6552C79.1779 96.3393 79.6242 96.2678 79.9441 96.4954L79.9888 96.5282C80.0388 96.5659 80.1045 96.6181 80.1843 96.6854L80.2254 96.7202C80.4273 96.8929 80.6496 97.1027 80.8871 97.3514C81.5553 98.0511 82.2196 98.9249 82.8368 99.9852C84.2405 102.397 85.1976 105.413 85.5123 109.083C85.8986 113.588 85.2898 118.832 83.5051 124.868L83.4612 125.015L84.4517 138.706C84.4788 139.081 84.2044 139.408 83.8321 139.455L83.7904 139.46C83.411 139.486 83.0798 139.215 83.0314 138.848L83.0272 138.807L82.0276 124.989C82.0215 124.904 82.0308 124.819 82.0552 124.738C83.8535 118.751 84.4657 113.592 84.0893 109.202C83.7923 105.738 82.8983 102.921 81.5986 100.688C81.0384 99.7253 80.4412 98.9398 79.8481 98.3187C79.6695 98.1318 79.5035 97.9728 79.3536 97.8408L79.2324 97.737C79.197 97.7076 79.1682 97.6844 79.1463 97.6674L79.1091 97.6393C78.7892 97.4116 78.7167 96.971 78.9473 96.6552Z" fill="white"/>
<path fill-rule="evenodd" clip-rule="evenodd" d="M60.1757 135.654C58.3192 129.944 52.1546 129.474 52.1546 129.474C52.1546 129.474 49.108 128.769 45.5854 128.604C44.3953 130.132 41.3487 133.398 39.1113 139.885L40.3014 141.483C40.3014 141.483 44.1097 143.034 45.8472 143.715C48.0607 144.585 50.3695 144.655 52.3926 143.198C52.464 143.151 52.5592 143.081 52.6306 143.034L53.9397 136.101C53.0829 134.879 53.4399 133.234 55.4392 134.197C57.4623 135.161 55.8438 137.652 58.4858 137.864C61.1516 138.099 60.1757 135.654 60.1757 135.654Z" fill="white"/>
<path fill-rule="evenodd" clip-rule="evenodd" d="M45.6193 127.9C45.386 127.889 45.162 127.992 45.0196 128.175L44.8016 128.449L44.2505 129.129C43.8623 129.611 43.5385 130.026 43.203 130.479C42.2888 131.714 41.4547 133.016 40.6661 134.498C39.8304 136.069 39.0834 137.779 38.4356 139.657C38.3603 139.875 38.3979 140.116 38.5362 140.302L39.7263 141.9C39.794 141.991 39.8827 142.064 39.9848 142.114L40.0997 142.163L41.9533 142.915L44.409 143.904C44.8715 144.089 45.2669 144.246 45.5837 144.37L45.7035 144.416C48.2556 145.386 50.6699 145.261 52.7179 143.835L52.7889 143.785L53.0269 143.62C53.1872 143.515 53.2975 143.35 53.3328 143.163L54.6418 136.23C54.6768 136.045 54.6354 135.854 54.527 135.7C54.2379 135.287 54.157 134.837 54.253 134.653C54.266 134.628 54.2735 134.623 54.3312 134.616C54.4935 134.596 54.7637 134.656 55.1262 134.831C55.5758 135.045 55.7609 135.326 55.9141 135.94L55.9759 136.208L55.992 136.28C56.1491 136.992 56.2635 137.328 56.5603 137.704C56.9638 138.214 57.5772 138.498 58.4283 138.566C60.0128 138.706 60.9308 138.011 61.0513 136.838C61.0882 136.478 61.0461 136.115 60.9553 135.761L60.94 135.703L60.9095 135.597C60.8994 135.564 60.8896 135.533 60.88 135.505L60.8493 135.419L60.8558 135.439C60.1159 133.163 58.6934 131.486 56.8012 130.335C55.8009 129.727 54.7339 129.305 53.6673 129.035C53.2934 128.94 52.9451 128.871 52.6307 128.823L52.4542 128.798C52.4189 128.793 52.3862 128.789 52.3562 128.786L52.2674 128.776L52.1312 128.746C52.0083 128.72 51.8692 128.691 51.7151 128.66L51.6207 128.641C51.0735 128.534 50.4622 128.426 49.8012 128.325C48.4202 128.115 47.0092 127.965 45.6193 127.9ZM45.9183 129.328L46.2827 129.351C47.3819 129.426 48.4922 129.553 49.5839 129.719C50.1522 129.805 50.6821 129.897 51.1631 129.989L51.5178 130.059C51.6025 130.077 51.6818 130.093 51.7553 130.109L51.9918 130.16C52.0155 130.166 52.0394 130.17 52.0635 130.173L52.1681 130.183C52.2164 130.189 52.2818 130.197 52.3627 130.209L52.4131 130.216C52.6827 130.257 52.9853 130.318 53.3122 130.401C54.2481 130.638 55.1837 131.008 56.0523 131.536C57.6671 132.518 58.8656 133.931 59.496 135.87L59.5222 135.942C59.5347 135.978 59.5524 136.035 59.5709 136.107C59.6242 136.314 59.6483 136.522 59.6305 136.696C59.5924 137.066 59.3942 137.226 58.6175 137.167L58.5495 137.161C57.7827 137.1 57.6174 136.951 57.4284 136.16L57.3216 135.689C57.0764 134.652 56.6751 134.003 55.7496 133.562C54.5243 132.972 53.455 133.106 52.9842 134.006L52.9537 134.067C52.6625 134.688 52.7702 135.502 53.1752 136.221L53.1871 136.241L51.982 142.621L51.972 142.628C50.3332 143.809 48.3906 143.925 46.2236 143.103L46.1113 143.06C45.8213 142.946 45.464 142.804 45.0487 142.638L43.7156 142.103L42.1819 141.484L40.7583 140.906L39.9089 139.765L39.9988 139.515C40.5717 137.94 41.2179 136.493 41.9304 135.154C42.6848 133.736 43.4815 132.493 44.3561 131.311C44.6068 130.972 44.8516 130.655 45.1253 130.31L45.4082 129.957L45.9183 129.328Z" fill="#2E186A"/>
<path opacity="0.5" fill-rule="evenodd" clip-rule="evenodd" d="M162.975 110.532C133.247 133.703 115.134 119.157 101.329 121.225C87.5238 123.293 85.4055 130.061 72.9334 134.902C65.2217 137.886 52.8449 137.463 48.1084 136.711L48.1084 156.71H162.975V110.532Z" fill="white"/>
<path fill-rule="evenodd" clip-rule="evenodd" d="M168.687 155.229C169.082 155.229 169.401 155.545 169.401 155.934C169.401 156.31 169.104 156.617 168.729 156.638L168.687 156.639L48.1086 156.639C47.7142 156.639 47.3945 156.324 47.3945 155.934C47.3945 155.559 47.6918 155.252 48.0666 155.231L48.1086 155.229L168.687 155.229Z" fill="#6A6AF4"/>
<path fill-rule="evenodd" clip-rule="evenodd" d="M64.9357 136.194C65.316 136.194 65.6268 136.488 65.6486 136.858L65.6498 136.899V138.309C65.6498 138.699 65.3301 139.014 64.9357 139.014C64.5555 139.014 64.2446 138.721 64.2229 138.351L64.2217 138.309V136.899C64.2217 136.51 64.5414 136.194 64.9357 136.194Z" fill="#6A6AF4"/>
<path fill-rule="evenodd" clip-rule="evenodd" d="M64.2217 141.553V144.795C64.2217 145.184 64.5414 145.5 64.9357 145.5C65.3301 145.5 65.6498 145.184 65.6498 144.795V141.553C65.6498 141.163 65.3301 140.848 64.9357 140.848C64.5414 140.848 64.2217 141.163 64.2217 141.553ZM64.2217 148.037V151.28C64.2217 151.669 64.5414 151.985 64.9357 151.985C65.3301 151.985 65.6498 151.669 65.6498 151.28V148.037C65.6498 147.648 65.3301 147.332 64.9357 147.332C64.5414 147.332 64.2217 147.648 64.2217 148.037Z" fill="#6A6AF4"/>
<path fill-rule="evenodd" clip-rule="evenodd" d="M64.9357 153.819C65.316 153.819 65.6268 154.113 65.6486 154.483L65.6498 154.524V155.934C65.6498 156.324 65.3301 156.639 64.9357 156.639C64.5555 156.639 64.2446 156.346 64.2229 155.976L64.2217 155.934V154.524C64.2217 154.135 64.5414 153.819 64.9357 153.819Z" fill="#6A6AF4"/>
<path fill-rule="evenodd" clip-rule="evenodd" d="M101.328 120.825C101.709 120.825 102.019 121.119 102.041 121.489L102.042 121.53V122.94C102.042 123.33 101.723 123.645 101.328 123.645C100.948 123.645 100.637 123.352 100.615 122.982L100.614 122.94V121.53C100.614 121.141 100.934 120.825 101.328 120.825Z" fill="#6A6AF4"/>
<path fill-rule="evenodd" clip-rule="evenodd" d="M100.614 125.808V128.679C100.614 129.068 100.934 129.384 101.328 129.384C101.723 129.384 102.042 129.068 102.042 128.679V125.808C102.042 125.418 101.723 125.103 101.328 125.103C100.934 125.103 100.614 125.418 100.614 125.808ZM100.614 131.551V134.422C100.614 134.812 100.934 135.127 101.328 135.127C101.723 135.127 102.042 134.812 102.042 134.422V131.551C102.042 131.161 101.723 130.846 101.328 130.846C100.934 130.846 100.614 131.161 100.614 131.551ZM100.614 137.294V140.165C100.614 140.555 100.934 140.87 101.328 140.87C101.723 140.87 102.042 140.555 102.042 140.165V137.294C102.042 136.905 101.723 136.589 101.328 136.589C100.934 136.589 100.614 136.905 100.614 137.294ZM100.614 143.037V145.909C100.614 146.298 100.934 146.614 101.328 146.614C101.723 146.614 102.042 146.298 102.042 145.909V143.037C102.042 142.648 101.723 142.332 101.328 142.332C100.934 142.332 100.614 142.648 100.614 143.037ZM100.614 148.78V151.652C100.614 152.041 100.934 152.357 101.328 152.357C101.723 152.357 102.042 152.041 102.042 151.652V148.78C102.042 148.391 101.723 148.075 101.328 148.075C100.934 148.075 100.614 148.391 100.614 148.78Z" fill="#6A6AF4"/>
<path fill-rule="evenodd" clip-rule="evenodd" d="M101.328 153.819C101.709 153.819 102.019 154.113 102.041 154.483L102.042 154.524V155.934C102.042 156.324 101.723 156.639 101.328 156.639C100.948 156.639 100.637 156.346 100.615 155.976L100.614 155.934V154.524C100.614 154.135 100.934 153.819 101.328 153.819Z" fill="#6A6AF4"/>
<path fill-rule="evenodd" clip-rule="evenodd" d="M136.935 122.329C137.315 122.329 137.626 122.623 137.648 122.993L137.649 123.034V124.444C137.649 124.833 137.329 125.149 136.935 125.149C136.554 125.149 136.244 124.856 136.222 124.486L136.221 124.444V123.034C136.221 122.645 136.54 122.329 136.935 122.329Z" fill="#6A6AF4"/>
<path fill-rule="evenodd" clip-rule="evenodd" d="M136.221 127.17V129.905C136.221 130.294 136.54 130.61 136.935 130.61C137.329 130.61 137.649 130.294 137.649 129.905V127.17C137.649 126.78 137.329 126.465 136.935 126.465C136.54 126.465 136.221 126.78 136.221 127.17ZM136.221 132.64V135.375C136.221 135.764 136.54 136.08 136.935 136.08C137.329 136.08 137.649 135.764 137.649 135.375V132.64C137.649 132.25 137.329 131.935 136.935 131.935C136.54 131.935 136.221 132.25 136.221 132.64ZM136.221 138.11V140.845C136.221 141.234 136.54 141.55 136.935 141.55C137.329 141.55 137.649 141.234 137.649 140.845V138.11C137.649 137.72 137.329 137.405 136.935 137.405C136.54 137.405 136.221 137.72 136.221 138.11ZM136.221 143.58V146.315C136.221 146.704 136.54 147.02 136.935 147.02C137.329 147.02 137.649 146.704 137.649 146.315V143.58C137.649 143.19 137.329 142.875 136.935 142.875C136.54 142.875 136.221 143.19 136.221 143.58ZM136.221 149.05V151.785C136.221 152.174 136.54 152.49 136.935 152.49C137.329 152.49 137.649 152.174 137.649 151.785V149.05C137.649 148.66 137.329 148.345 136.935 148.345C136.54 148.345 136.221 148.66 136.221 149.05Z" fill="#6A6AF4"/>
<path fill-rule="evenodd" clip-rule="evenodd" d="M136.935 153.819C137.315 153.819 137.626 154.113 137.648 154.483L137.649 154.524V155.934C137.649 156.324 137.329 156.639 136.935 156.639C136.554 156.639 136.244 156.346 136.222 155.976L136.221 155.934V154.524C136.221 154.135 136.54 153.819 136.935 153.819Z" fill="#6A6AF4"/>
<path fill-rule="evenodd" clip-rule="evenodd" d="M162.385 109.772C162.797 109.45 163.396 109.519 163.722 109.927C164.048 110.334 163.978 110.925 163.565 111.247C153.938 118.758 144.957 122.822 136.062 124.216C132.469 124.779 128.93 124.904 125.236 124.666L124.889 124.643C122.001 124.439 119.416 124.074 115.47 123.382L112.318 122.828C109.765 122.382 109.297 122.321 107.881 122.16C105.384 121.874 103.337 121.852 101.472 122.131C95.4868 123.028 91.8821 124.599 86.8402 127.998L85.9607 128.599L84.4261 129.656C83.5855 130.234 82.9223 130.68 82.2524 131.115C79.3128 133.025 76.578 134.474 73.2835 135.753C66.5766 138.369 59.415 138.726 52.6648 137.616C52.1462 137.53 51.7958 137.046 51.8822 136.534C51.9687 136.022 52.4592 135.676 52.9779 135.761C59.4139 136.82 66.2379 136.48 72.5854 134.004C75.6533 132.813 78.2105 131.471 80.9486 129.711L81.2058 129.545C81.6674 129.245 82.1274 128.938 82.6493 128.584L85.3996 126.694L85.7648 126.447C91.0267 122.899 94.8832 121.217 101.186 120.273C103.178 119.974 105.315 119.988 107.86 120.265L108.675 120.359C109.627 120.471 110.262 120.564 111.967 120.858L116.236 121.606C119.879 122.239 122.323 122.577 125.025 122.767C128.706 123.027 132.209 122.916 135.763 122.359C144.325 121.017 153.005 117.09 162.385 109.772Z" fill="#FF8D7E"/>
<path fill-rule="evenodd" clip-rule="evenodd" d="M136.936 124.609C137.816 124.609 138.53 123.904 138.53 123.034C138.53 122.165 137.816 121.46 136.936 121.46C136.055 121.46 135.341 122.165 135.341 123.034C135.341 123.904 136.055 124.609 136.936 124.609Z" fill="#6A6AF4"/>
<path fill-rule="evenodd" clip-rule="evenodd" d="M101.328 122.964C102.209 122.964 102.923 122.26 102.923 121.39C102.923 120.52 102.209 119.815 101.328 119.815C100.447 119.815 99.7334 120.52 99.7334 121.39C99.7334 122.26 100.447 122.964 101.328 122.964Z" fill="#6A6AF4"/>
<path fill-rule="evenodd" clip-rule="evenodd" d="M64.9355 138.474C65.8163 138.474 66.5302 137.769 66.5302 136.9C66.5302 136.03 65.8163 135.325 64.9355 135.325C64.0548 135.325 63.3408 136.03 63.3408 136.9C63.3408 137.769 64.0548 138.474 64.9355 138.474Z" fill="#6A6AF4"/>
<path fill-rule="evenodd" clip-rule="evenodd" d="M49.0127 137.346C49.0127 137.346 54.5823 142.751 56.7006 141.576C58.8189 140.401 59.9138 139.414 59.9138 138.051C59.9138 136.688 57.7003 135.795 56.6054 138.051C56.6054 138.051 52.7971 135.96 52.4163 134.573" fill="white"/>
<path fill-rule="evenodd" clip-rule="evenodd" d="M52.2296 133.893C52.5966 133.795 52.9744 133.998 53.0935 134.349L53.1057 134.389C53.1537 134.564 53.3715 134.857 53.7368 135.203C54.048 135.498 54.4475 135.817 54.9134 136.149C55.2951 136.421 55.7021 136.688 56.113 136.941L56.3588 137.09L56.3896 137.05C57.0075 136.251 57.8488 135.873 58.7188 135.989L58.7858 135.998C59.8248 136.167 60.628 137.025 60.628 138.051C60.628 139.669 59.5365 140.812 57.0505 142.191C56.0061 142.77 54.613 142.365 52.8828 141.306C52.3262 140.965 51.7446 140.559 51.1466 140.102C50.5021 139.61 49.8719 139.083 49.2808 138.557L49.0805 138.377C49.0159 138.319 48.9537 138.262 48.8938 138.207L48.6027 137.935L48.5123 137.849C48.2311 137.576 48.2272 137.13 48.5036 136.852C48.769 136.586 49.1963 136.571 49.4789 136.812L49.5134 136.844C49.5457 136.875 49.61 136.936 49.7032 137.023L49.8673 137.175C49.9815 137.28 50.1051 137.392 50.2372 137.51C50.8035 138.014 51.4071 138.518 52.0209 138.987C52.5823 139.417 53.1245 139.795 53.6355 140.108C54.9441 140.909 55.9296 141.195 56.351 140.962L56.5542 140.848C58.4766 139.757 59.1999 138.968 59.1999 138.051C59.1999 137.742 58.9269 137.45 58.5549 137.39C58.0981 137.316 57.6172 137.598 57.2495 138.356C57.0717 138.722 56.618 138.865 56.2585 138.667L56.0661 138.559L55.8798 138.451C55.7829 138.394 55.6807 138.334 55.5739 138.269C55.065 137.962 54.5558 137.633 54.0781 137.293C53.5622 136.926 53.1129 136.567 52.7474 136.22C52.2112 135.711 51.8592 135.238 51.7273 134.758C51.6241 134.382 51.849 133.995 52.2296 133.893Z" fill="#2E186A"/>
<path fill-rule="evenodd" clip-rule="evenodd" d="M45.8711 139.108C45.8711 139.108 50.8932 144.02 53.1782 143.409C53.1782 143.409 55.1299 142.868 55.4631 141.693" fill="white"/>
<path fill-rule="evenodd" clip-rule="evenodd" d="M45.363 138.612C45.6405 138.336 46.0926 138.333 46.3728 138.607L46.4958 138.725L46.559 138.785C46.713 138.93 46.889 139.092 47.0837 139.267C47.6403 139.765 48.2338 140.264 48.8379 140.729C49.4 141.16 49.9428 141.54 50.4539 141.852C51.5993 142.553 52.5066 142.858 52.9845 142.73L53.0548 142.709C53.1127 142.69 53.1919 142.663 53.2866 142.627C53.5256 142.537 53.7641 142.428 53.9821 142.301C54.399 142.059 54.6709 141.794 54.7613 141.545L54.7747 141.503C54.8811 141.128 55.2751 140.909 55.6549 141.014C56.0346 141.119 56.2563 141.508 56.1499 141.883C55.9562 142.567 55.4336 143.094 54.7057 143.517C54.4133 143.686 54.1051 143.828 53.7972 143.944C53.6112 144.014 53.4631 144.062 53.364 144.089C52.3782 144.353 51.1625 143.944 49.7022 143.051C49.1439 142.71 48.5605 142.302 47.9608 141.841C47.3257 141.353 46.7053 140.832 46.1237 140.31L45.9266 140.132C45.8632 140.075 45.8019 140.018 45.743 139.964L45.532 139.766L45.3678 139.609C45.0876 139.335 45.0855 138.889 45.363 138.612Z" fill="#2E186A"/>
<path fill-rule="evenodd" clip-rule="evenodd" d="M39.4678 140.354C39.4678 140.354 44.6803 147.146 46.632 147.663C48.5838 148.156 48.0363 145.712 44.2519 140.848" fill="white"/>
<path fill-rule="evenodd" clip-rule="evenodd" d="M39.0367 139.793C39.339 139.566 39.7647 139.614 40.0087 139.894L40.278 140.238C40.4728 140.486 40.693 140.763 40.9339 141.062C41.6218 141.914 42.3366 142.766 43.0403 143.56C43.3481 143.907 43.6475 144.236 43.9366 144.543L44.0912 144.707C45.3438 146.022 46.3419 146.856 46.8094 146.98C46.8768 146.997 46.9352 147.008 46.9839 147.014L47.0207 147.018C47.0189 146.899 46.9904 146.739 46.9322 146.542L46.9117 146.475C46.5589 145.359 45.4544 143.551 43.6858 141.277C43.4456 140.969 43.5044 140.526 43.8171 140.289C44.1299 140.052 44.5782 140.11 44.8184 140.418L45.0225 140.683C46.7674 142.955 47.8757 144.792 48.2749 146.055C48.7892 147.681 48.0467 148.748 46.4472 148.344C45.584 148.115 44.4189 147.129 42.8898 145.503C42.5909 145.185 42.2822 144.846 41.9657 144.489C41.246 143.677 40.5177 142.809 39.8171 141.941L39.6122 141.686C39.5457 141.603 39.481 141.522 39.4182 141.443L38.8989 140.78C38.6607 140.47 38.7224 140.028 39.0367 139.793Z" fill="#2E186A"/>
</g>
<defs>
<clipPath id="clip0_887_7448">
<rect width="287.25" height="158.625" fill="white"/>
</clipPath>
</defs>
</svg>
