<svg xmlns="http://www.w3.org/2000/svg" width="196" height="223" fill="none" viewBox="0 0 196 223"><g clip-path="url(#a)"><path fill="#f6f6f6" d="M0 0h196v223H0z"/><path fill="#000091" fill-rule="evenodd" d="M155.166 40.695a41 41 0 0 0-6.87.663l7.309 41.676-14.022 39.909a42.6 42.6 0 0 0 14.461 2.429c23.089-.252 41.879-19.56 41.659-42.78-.251-23.22-19.449-42.15-42.537-41.897" clip-rule="evenodd"/><path fill="#ff8d7e" fill-rule="evenodd" d="M104.724 84.547c.188 17.699 11.387 33.474 27.95 39.436l14.148-39.877z" clip-rule="evenodd"/><path fill="#6a6af4" fill-rule="evenodd" d="M137.254 33.66c-9.819 1.735-18.696 6.94-25.064 14.638-6.368 7.73-9.819 17.447-9.694 27.48l42.099-.443z" clip-rule="evenodd"/><path fill="#000091" fill-rule="evenodd" d="M179.822 41.737c2.149 0 3.89-1.752 3.89-3.913s-1.741-3.912-3.89-3.912-3.889 1.752-3.889 3.912 1.741 3.913 3.889 3.913" clip-rule="evenodd"/><path fill="#ff8d7e" fill-rule="evenodd" d="M107.327 118.589c2.149 0 3.89-1.752 3.89-3.912s-1.741-3.912-3.89-3.912-3.889 1.751-3.889 3.912 1.741 3.912 3.889 3.912" clip-rule="evenodd"/><path fill="#6a6af4" fill-rule="evenodd" d="M103.437 49.812c2.148 0 3.89-1.752 3.89-3.912s-1.742-3.912-3.89-3.912-3.89 1.751-3.89 3.912 1.741 3.912 3.89 3.912" clip-rule="evenodd"/><path fill="#000091" fill-rule="evenodd" d="M220.697 34.448c.52 0 .941.424.941.947a.944.944 0 0 1-.886.944l-.055.002h-33.534a.944.944 0 0 1-.941-.947c0-.504.391-.916.885-.944l.056-.002zM197.17 39.275c.519 0 .941.424.941.947a.944.944 0 0 1-.886.944l-.055.002h-10.007a.944.944 0 0 1-.941-.946c0-.504.391-.916.885-.945l.056-.002z" clip-rule="evenodd"/><path fill="#4747d0" fill-rule="evenodd" d="M222.103 96.62c3.369-7.704 1.459-16.002-4.266-18.535-5.725-2.532-13.098 1.66-16.466 9.364s-1.459 16.002 4.266 18.534 13.097-1.66 16.466-9.364" clip-rule="evenodd"/><path fill="#fff" fill-rule="evenodd" d="M187.445 81.14c-5.74-2.619-6.556.379-4.893 1.893 2.101 1.861 12.108 7.13 12.108 7.13s-8.093-.6-10.163 3.975.094 4.953 3.199 2.934c3.075-2.019 12.58.6 12.58.6l2.854 2.839s9.819 3.565 12.768-7.414c2.196-6.278-1.788-10.758-1.788-10.758-1.13-1.388-5.082-7.225-18.634-10.727 0 0-6.368-.915-1.631 2.366 1.223.852 2.509 1.546 3.733 2.146" clip-rule="evenodd"/><path fill="#2e186a" fill-rule="evenodd" d="M193.78 70.55c.41-.003.843.02 1.273.062l.228.023q.21.024.328.04a1 1 0 0 1 .102.021c4.381 1.132 8.045 2.572 11.078 4.257 2.335 1.298 4.201 2.685 5.712 4.142.504.486.947.958 1.361 1.44l.154.182c.094.112.233.283.37.454l.454.57.065.077q.106.127.253.327l.101.141c.313.442.625.953.915 1.529 1.402 2.783 1.823 5.983.673 9.419l-.05.144-.041.151c-1.166 4.175-3.398 6.72-6.38 7.839l-.132.049c-2.074.745-4.255.741-6.299.296a10 10 0 0 1-1.134-.311 1 1 0 0 1-.292-.171l-.05-.047-2.676-2.661-.315-.08-.258-.064a49 49 0 0 0-2.09-.46 38 38 0 0 0-3.706-.56c-2.473-.236-4.332-.072-5.216.509-1.875 1.218-3.467 1.682-4.545 1.017-1.29-.797-1.181-2.58-.023-5.139.928-2.049 2.867-3.325 5.464-4.002.612-.16 1.231-.28 1.845-.367l.203-.028-.355-.194c-.81-.445-1.611-.89-2.385-1.327l-.738-.419-.868-.5c-2.417-1.402-4.1-2.478-4.886-3.174-1.233-1.124-1.498-2.899-.307-3.918 1.183-1.014 3.337-.854 6.221.462a.95.95 0 0 1 .469 1.252.94.94 0 0 1-1.246.471c-2.29-1.044-3.748-1.152-4.224-.744-.198.17-.128.637.341 1.065.678.6 2.425 1.709 4.895 3.133l.535.307.273.156c1.058.602 2.175 1.222 3.306 1.839l.971.528c.447.241.866.466 1.249.67l.694.369c.889.468.527 1.808-.45 1.785l-.27-.014c-1.445-.059-3.173.056-4.801.48-2.1.548-3.572 1.517-4.222 2.955-.459 1.012-.695 1.802-.728 2.338-.019.312.014.397.022.403.229.141 1.185-.132 2.44-.931l.094-.06c1.35-.888 3.544-1.081 6.42-.806a40 40 0 0 1 3.891.586 52 52 0 0 1 1.916.417l.254.061q.282.069.515.129l.347.091a.94.94 0 0 1 .362.193l.051.047 2.695 2.68.034.011q.245.074.553.145l.124.028c1.73.377 3.572.38 5.268-.229 2.457-.882 4.309-2.955 5.33-6.608l.048-.175.02-.068c1.04-2.971.694-5.712-.515-8.112a10 10 0 0 0-.769-1.286l-.103-.143-.096-.126-.067-.084-.078-.093a66 66 0 0 0-.779-.97l-.025-.03a19 19 0 0 0-1.38-1.478c-1.394-1.344-3.128-2.633-5.319-3.85-2.814-1.565-6.221-2.916-10.304-3.995l-.28-.073-.073-.01q-.156-.019-.346-.037a11 11 0 0 0-1.086-.054q-.156 0-.294.008l-.08.004.056.05q.309.275.807.626l.102.07c1.05.732 2.204 1.385 3.609 2.073a.95.95 0 0 1 .434 1.266.94.94 0 0 1-1.258.436c-1.484-.727-2.717-1.425-3.855-2.217l-.193-.135c-1.638-1.166-2.32-2.086-1.829-3.085.389-.788 1.213-.982 2.491-.989" clip-rule="evenodd"/><path fill="#fff" fill-rule="evenodd" d="M196.418 84.99c-2.008-.978-10.446-3.628-12.423-6.026-1.976-2.397.565-3.817 7.78-.473" clip-rule="evenodd"/><path fill="#2e186a" fill-rule="evenodd" d="M184.269 75.642c1.664-.305 4.399.366 7.899 1.989a.95.95 0 0 1 .461 1.255.94.94 0 0 1-1.249.464c-3.178-1.473-5.584-2.063-6.773-1.845a1 1 0 0 0-.298.09l-.019.011.001.006a1 1 0 0 0 .032.112l.015.038a2.4 2.4 0 0 0 .381.597c.191.232.493.496.898.781 1.005.709 2.532 1.478 4.557 2.335l.516.215c1.281.524 5.563 2.168 6.137 2.447a.95.95 0 0 1 .437 1.265.94.94 0 0 1-1.205.463l-.151-.069c-.798-.35-4.664-1.835-5.932-2.355l-.122-.05c-2.344-.974-4.105-1.846-5.317-2.7-.532-.375-.955-.745-1.267-1.124-1.408-1.708-1.088-3.542.999-3.925" clip-rule="evenodd"/><path fill="#fff" fill-rule="evenodd" d="M199.617 81.393c-.219-.284-14.053-4.416-13.112-6.404.753-1.609 2.76-2.082 10.415.82l6.117 2.713" clip-rule="evenodd"/><path fill="#2e186a" fill-rule="evenodd" d="M185.654 74.585c1.162-2.482 4.134-2.45 11.163.174l.436.164.047.02 6.117 2.713c.476.21.692.77.482 1.247a.94.94 0 0 1-1.19.505l-.051-.02-6.089-2.701-.52-.196c-5.608-2.087-7.82-2.258-8.549-1.332l-.017.022.031.032q.094.09.243.207l.061.046c.517.386 1.348.841 2.445 1.345a51 51 0 0 0 2.647 1.113l.739.286c.903.345 1.769.66 2.886 1.055l2.696.947.3.11.171.066.094.038q.108.044.188.084a.9.9 0 0 1 .377.301.95.95 0 0 1-.165 1.328.94.94 0 0 1-1.062.065l-.022-.014-.105-.043-.261-.099-1.279-.452-1.39-.487a120 120 0 0 1-3.373-1.236l-.48-.186a53 53 0 0 1-2.743-1.154c-1.206-.554-2.14-1.065-2.784-1.546-.978-.729-1.469-1.502-1.043-2.402" clip-rule="evenodd"/><path fill="#fff" fill-rule="evenodd" d="M172.984 146.763c5.992-2.366 4.016-4.512 1.663-4.196-2.949.378-13.991 4.101-13.991 4.101s5.835-4.985 3.357-8.77c-2.479-3.786-4.235-2.587-4.58.536s-9.286 7.54-9.286 7.54l-3.701.947s-7.717 6.278-.283 14.07c3.984 4.89 9.568 3.849 9.568 3.849 1.694-.252 8.062-.725 19.951-7.729 0 0 4.957-3.691-.91-2.335-1.505.347-2.98.82-4.266 1.294" clip-rule="evenodd"/><path fill="#2e186a" fill-rule="evenodd" d="M160.675 134.662c1.363-.374 2.752.621 4.123 2.715.571.872.816 1.84.761 2.863-.076 1.434-.716 2.886-1.747 4.329l-.063.087.054-.018c.748-.241 1.497-.479 2.236-.711l1.06-.33 1.18-.36c2.966-.895 5.127-1.465 6.243-1.608 1.681-.226 3.29.512 3.362 1.983.074 1.479-1.511 2.829-4.556 4.032a.94.94 0 0 1-1.22-.535.95.95 0 0 1 .532-1.227c1.33-.525 2.281-1.051 2.854-1.539.224-.191.373-.363.455-.504a.4.4 0 0 0 .056-.133c-.004-.074-.496-.3-1.239-.2l-.121.016c-1.03.154-3.09.703-5.848 1.535l-.514.156-.955.293c-1.21.376-2.458.774-3.693 1.175l-.931.304-1.749.581c-.965.325-1.673-.901-.948-1.584l.186-.166.159-.148q.125-.118.263-.255c.439-.436.879-.922 1.288-1.442 1.063-1.352 1.715-2.679 1.777-3.832a2.77 2.77 0 0 0-.454-1.721c-.541-.828-1.043-1.395-1.472-1.702-.292-.209-.478-.257-.584-.228-.104.029-.243.161-.388.445-.181.353-.32.857-.398 1.472l-.016.133c-.102.925-.672 1.847-1.618 2.815-.86.879-2.03 1.791-3.438 2.724a47 47 0 0 1-3.261 1.961l-.326.178q-.319.173-.606.323l-.502.257-.055.028a1 1 0 0 1-.121.049l-.062.018-3.485.891-.038.035q-.1.093-.214.206l-.077.077c-.378.383-.756.829-1.109 1.33-.973 1.38-1.56 2.896-1.584 4.503-.031 2.073.876 4.209 2.97 6.403l.025.027.024.028a9.8 9.8 0 0 0 2.573 2.248 9.46 9.46 0 0 0 5.685 1.319l.136-.013q.134-.014.208-.025l.1-.016c.122-.018.706-.096.863-.118.426-.061.828-.125 1.264-.206a33 33 0 0 0 3.885-.977c3.815-1.189 8.215-3.159 13.307-6.136l.249-.146.191-.15.046-.037c.213-.172.425-.355.621-.538l.095-.09.031-.031-.012.002q-.431.06-1.018.192l-.133.03c-1.338.308-2.74.74-4.153 1.26a.94.94 0 0 1-1.207-.564.95.95 0 0 1 .561-1.214 36 36 0 0 1 4.378-1.327l.253-.057c1.731-.381 2.742-.383 3.337.148.471.42.526 1.006.308 1.552-.122.306-.328.606-.609.924q-.242.274-.549.561a12 12 0 0 1-.54.476l-.184.151c-.148.12-.264.21-.335.262a1 1 0 0 1-.084.057c-5.339 3.144-9.967 5.228-13.996 6.483a35 35 0 0 1-4.101 1.031c-.371.069-.719.126-1.075.179l-.519.074-.59.08-.096.016q-.096.014-.233.03l-.071.007a11.28 11.28 0 0 1-6.974-1.561 11.7 11.7 0 0 1-2.924-2.502l-.119-.144-.107-.113c-2.29-2.451-3.361-4.963-3.364-7.462l.001-.142c.031-2.031.754-3.9 1.93-5.569.416-.59.861-1.114 1.308-1.567l.131-.132c.211-.208.381-.359.494-.451a1 1 0 0 1 .295-.163l.065-.019 3.605-.921.297-.153.276-.144a49 49 0 0 0 3.886-2.289c1.306-.865 2.379-1.702 3.13-2.47.678-.693 1.045-1.287 1.09-1.697.214-1.941.922-3.323 2.178-3.667" clip-rule="evenodd"/><path fill="#fff" fill-rule="evenodd" d="M163.793 150.58c2.164-.788 9.976-4.89 13.269-4.921 3.294-.032 2.824 2.397-4.736 5.332" clip-rule="evenodd"/><path fill="#2e186a" fill-rule="evenodd" d="M177.054 144.712c1.026-.01 1.829.183 2.347.646.702.628.704 1.549.144 2.383-.86 1.282-3.216 2.71-6.88 4.132a.94.94 0 0 1-1.217-.542.95.95 0 0 1 .54-1.224l.334-.131c3.078-1.224 5.031-2.413 5.632-3.249l.019-.028-.029-.009-.047-.012a3.5 3.5 0 0 0-.825-.073c-1.146.011-3.141.624-5.827 1.734q-.564.234-1.172.496l-.607.266c-.771.346-4.728 2.141-5.352 2.369a.94.94 0 0 1-1.205-.568.95.95 0 0 1 .513-1.192l.167-.065c.896-.362 4.848-2.159 5.235-2.328l.506-.221q.621-.268 1.199-.508l.375-.153c2.72-1.105 4.746-1.71 6.15-1.723" clip-rule="evenodd"/><path fill="#fff" fill-rule="evenodd" d="M164.703 154.619c.408 0 12.987-6.846 14.054-5.174.847 1.357-.063 2.934-7.56 6.373l-6.337 2.556" clip-rule="evenodd"/><path fill="#2e186a" fill-rule="evenodd" d="m176.012 148.607.221-.064c1.698-.481 2.751-.495 3.32.399 1.447 2.316-.61 4.32-7.536 7.538l-.43.199-.04.017-6.337 2.556a.94.94 0 0 1-1.224-.527.95.95 0 0 1 .473-1.208l.05-.022 6.317-2.548.526-.243c3.128-1.46 5.076-2.6 6.056-3.494l.055-.052.121-.115c.434-.426.544-.66.472-.897l-.006-.018-.061.001-.043.001c-.324.016-.801.114-1.401.292l-.256.079c-1.045.329-2.374.857-3.948 1.556l-.198.088a73 73 0 0 0-1.068.486l-.874.408c-.58.273-1.132.538-1.857.892l-2.807 1.375c-.686.328-.608.259-.834.259a.943.943 0 0 1-.941-.946c0-.43.284-.792.674-.908l.048-.013.031-.013q.066-.027.169-.075l.498-.236 2.583-1.264c.849-.413 1.472-.71 2.242-1.069l.56-.258q.414-.19.811-.368l.409-.181c1.682-.741 3.097-1.293 4.225-1.627M30.566 98.84c4.863-3.092 21.206-1.641 33.942 3.091l-5.144 9.907-25.974-4.133z" clip-rule="evenodd"/><path fill="#fff" fill-rule="evenodd" d="M34.08 107.39V81.11l22.93 13.913-.533 14.102z" clip-rule="evenodd"/><path fill="#2e186a" fill-rule="evenodd" d="M33.139 81.11v26.28c0 .495.378.906.868.944l22.399 1.735a.943.943 0 0 0 1.012-.908l.533-14.102a.95.95 0 0 0-.454-.846L34.566 80.3a.941.941 0 0 0-1.427.81m1.882 1.677L56.05 95.545l-.475 12.561-20.554-1.592z" clip-rule="evenodd"/><path fill="#fff" fill-rule="evenodd" d="M64.445 52.968c-9.348-6.5-17.755-8.897-30.93 8.076l-1.789 11.169c-5.52-1.672-8.438 1.04-7.246 5.9 1.286 5.236 4.298 7.571 9.317 6.214-.283-.662 0 0 0 0 2.415 5.49 6.933 11.768 15.37 13.63 13.208 2.87 16.282-5.332 17.756-8.582s6.87-29.908-2.478-36.407" clip-rule="evenodd"/><path fill="#2e186a" fill-rule="evenodd" d="M50.281 47.267c-5.492.793-11.1 4.939-17.508 13.195l-.04.055a.95.95 0 0 0-.148.377l-1.623 10.141-.034-.007c-5.447-1.175-8.677 1.95-7.362 7.31l.044.174c1.382 5.405 4.632 7.882 9.49 6.948l.161-.033.07.15c3.24 6.853 8.296 11.685 15.635 13.304 8.197 1.782 13.419-.29 16.655-5.01.485-.708.909-1.45 1.315-2.273l.132-.27q.098-.204.199-.423l.512-1.137c1.076-2.37 2.589-10.529 2.904-17.334l.024-.586c.363-9.526-1.314-16.591-5.727-19.659l-.396-.273c-5.515-3.771-9.727-5.31-14.303-4.65m13.629 6.479c3.748 2.606 5.288 9.253 4.905 18.324l-.013.276c-.301 6.519-1.747 14.364-2.706 16.57l-.404.901-.131.288c-.107.231-.207.442-.31.65-.37.749-.75 1.414-1.18 2.041-2.802 4.087-7.254 5.854-14.704 4.235-6.978-1.54-11.714-6.28-14.71-13.087a.94.94 0 0 0-1.1-.533l-.15.04c-4.26 1.098-6.823-.719-8.013-5.566-1.034-4.214 1.314-6.204 6.061-4.767l.055.015a.94.94 0 0 0 1.146-.77l1.749-10.928.218-.278c5.98-7.591 11.102-11.32 15.926-12.017 4.107-.593 8.004.882 13.36 4.606" clip-rule="evenodd"/><path fill="#2e186a" fill-rule="evenodd" d="M59.948 72.472a.94.94 0 0 1 1.033.779l.008.055 1.129 10.032a.945.945 0 0 1-.904 1.053h-.055l-3.702-.095a.944.944 0 0 1-.917-.97.944.944 0 0 1 .91-.922h.055l2.62.067-1.007-8.952a.946.946 0 0 1 .775-1.04zM65.198 74.926c.606 0 1.098-.777 1.098-1.735s-.492-1.735-1.099-1.735c-.606 0-1.097.776-1.097 1.735 0 .958.491 1.735 1.098 1.735M54.532 74.738c.606 0 1.098-.777 1.098-1.736 0-.958-.492-1.735-1.099-1.735-.606 0-1.097.777-1.097 1.735s.491 1.736 1.098 1.736" clip-rule="evenodd"/><path fill="#fff" fill-rule="evenodd" d="M49 63.687c1.233-.9 2.74-1.347 4.48-1.085.514.078.868.56.791 1.076a.94.94 0 0 1-1.07.796c-1.216-.183-2.239.12-3.094.745a4.3 4.3 0 0 0-.622.551l-.093.104q-.039.045-.06.074l-.023.03a.94.94 0 0 1-1.311.226.95.95 0 0 1-.226-1.32c.067-.094.178-.233.335-.403.252-.272.55-.542.894-.794" clip-rule="evenodd"/><path fill="#2e186a" fill-rule="evenodd" d="M63.727 62.354c.673-.104 1.388-.105 2.087.07 1.194.301 2.106 1.08 2.509 2.377a.947.947 0 0 1-.617 1.186.94.94 0 0 1-1.161-.569l-.019-.053c-.195-.628-.578-.956-1.168-1.104-.42-.106-.9-.105-1.346-.036l-.086.014q-.096.017-.127.026a.947.947 0 0 1-.465-1.834l.084-.02q.12-.028.309-.057M52.595 84.561a.94.94 0 0 1 1.069.729l.02.102a3.533 3.533 0 0 0 .405 1.036c.442.747 1.052 1.087 2.037.912a.94.94 0 0 1 1.09.767.946.946 0 0 1-.762 1.097c-1.818.324-3.164-.427-3.982-1.806a5.4 5.4 0 0 1-.517-1.182l-.045-.155a4 4 0 0 1-.094-.414.946.946 0 0 1 .778-1.086M15.76 40.948C9.832 29.275.264 28.266-10.716 30.443s-17.159 17.1-17.535 18.456c-4.486 16.09 1.443 33.315 14.65 43.474 1.474 1.136 2.917 2.271 4.328 3.376 7.749 6.12-9.442 11.326-9.442 11.326C14.223 109.725 7.04 76.599 6.35 73.633c10.54-3.975 14.932-21.8 9.41-32.685" clip-rule="evenodd"/><path fill="#6a6af4" fill-rule="evenodd" d="M33.515 64.105c-1.036 2.714-4.079 4.039-6.776 2.998L7.666 59.625c-2.698-1.04-4.015-4.1-2.98-6.814 1.035-2.713 4.078-4.038 6.776-2.997l19.072 7.477c2.698 1.04 4.016 4.101 2.98 6.814" clip-rule="evenodd"/><path fill="#2e186a" fill-rule="evenodd" d="M73.7 64.389c-.126-8.14-2.07-15.238-6.933-19.94-.659-.788-1.569-1.545-2.73-2.176-3.983-2.587-9.379-3.975-16.563-3.723-.125 0-.282.063-.439.126-1.13.095-2.258.284-3.356.505-.565.095-1.161.22-1.788.41-2.04.536-3.984 1.294-5.772 2.114-16.093 6.972-22.398 19.529-15.215 36.849 3.702 8.928 8.533 11.8 13.176 11.83V84.96c-.408-.852-1.067-.537-1.067-.537-5.02 1.357-7.246-1.072-8.533-6.278-.627-2.524-.125-4.48 1.255-5.521l.094-.095a.7.7 0 0 0 .188-.126c.032-.031.063-.031.126-.063l.188-.095c.032-.031.063-.031.126-.063.062-.031.125-.063.22-.094.03 0 .062-.032.093-.032.095-.032.157-.063.251-.095.032 0 .063 0 .063-.031.408-.126.878-.19 1.38-.221h.44c.125 0 .25 0 .376.032h.063c.125 0 .25.031.376.031h.063c.596.063 1.223.22 1.913.41.44.126.126.316.565.505l1.16-.095a8 8 0 0 0 1.224-.094c10.164-1.23 25.912-8.519 31.558-17.92 3.953 4.827 4.392 14.355 3.67 22.4 2.447-3.66 3.89-7.95 3.828-12.588" clip-rule="evenodd"/><path fill="#fff" fill-rule="evenodd" d="M49.816 61.572c1.233-.9 2.74-1.348 4.48-1.085.513.077.868.56.79 1.076a.94.94 0 0 1-1.07.796c-1.216-.184-2.238.12-3.094.745-.241.176-.449.364-.621.55l-.093.105-.061.074-.022.029a.94.94 0 0 1-1.312.227.95.95 0 0 1-.225-1.32c.066-.094.177-.233.334-.403.252-.272.55-.542.894-.794" clip-rule="evenodd"/><path fill="#ff8d7e" fill-rule="evenodd" d="M152.97 161.811c0-12.682-1.411-24.545-23.245-22.494-.69.126-1.317.252-1.913.41l-25.441 5.49-19.763-28.647c-2.51-4.48-7.058-7.445-12.14-7.887l-6.556-.568.596-6.215s-.91 2.24-8.125 3.597c-9.756 1.83-25.817-6.689-25.817-6.689v9.749c0 .126-12.078.726-17.63 4.227-5.553 3.471-7.905 10.285-11.827 19.813-3.92 9.559-16.249 43.443-16.531 45.683-.283 2.271-3.012 15.585 4.235 23.472 6.148 6.689 18.915 17.857 32.153 13.345l64.246-.946c-4.047-9.843-5.427-22.652-5.71-34.83a40 40 0 0 0 4.549 2.019c58.599 14.197 63.367-2.019 63.367-2.019 3.388-4.133 5.552-10.443 5.552-17.51" clip-rule="evenodd"/><path fill="#fff" fill-rule="evenodd" d="m26.28 135.627.056.002c.5.036.88.459.874.956l-.003.056-1.725 24.261a.942.942 0 0 1-1.33.794c-4.726-2.168-9.204-1.613-13.202.636a16 16 0 0 0-2.057 1.367q-.258.202-.456.375l-.078.067q-.128.115-.163.149a.937.937 0 0 1-1.33-.02.95.95 0 0 1 .02-1.338l.07-.067c.166-.156.428-.383.78-.659a18.4 18.4 0 0 1 2.296-1.527c4.086-2.298 8.68-3.025 13.502-1.28l.163.06 1.633-22.953a.943.943 0 0 1 .95-.879" clip-rule="evenodd"/><path fill="#fff" fill-rule="evenodd" d="m32.303 171.668.002-.022c.02-.243.003-.597-.081-1.046-.13-.687-.394-1.439-.829-2.242-1.202-2.221-3.481-4.459-7.122-6.588l-.197-.114a.95.95 0 0 1-.349-1.292.94.94 0 0 1 1.236-.377l.05.027.21.122c3.853 2.252 6.36 4.687 7.75 7.181l.075.136c.94 1.735 1.222 3.236 1.133 4.345l-.009.092-.009.069a.94.94 0 0 1-1.074.79.946.946 0 0 1-.786-1.081M74.316 127.091a.94.94 0 0 1 1.314-.215l.059.045q.1.075.258.21l.054.047q.4.347.872.848c.88.939 1.756 2.112 2.57 3.536 1.85 3.237 3.111 7.286 3.526 12.213.509 6.049-.293 13.089-2.646 21.192l-.057.197 1.305 18.381a.945.945 0 0 1-.817 1.005l-.055.006a.943.943 0 0 1-1-.821l-.005-.056-1.318-18.55a1 1 0 0 1 .036-.337c2.37-8.038 3.177-14.964 2.681-20.857-.391-4.651-1.57-8.432-3.282-11.43-.739-1.292-1.526-2.347-2.308-3.181a11 11 0 0 0-.651-.641l-.16-.14-.113-.093-.05-.038a.95.95 0 0 1-.213-1.321" clip-rule="evenodd"/><path fill="#fff" fill-rule="evenodd" d="M49.575 179.447c-2.447-7.667-10.572-8.298-10.572-8.298s-4.015-.946-8.658-1.167c-1.568 2.051-5.584 6.436-8.532 15.144l1.568 2.145s5.02 2.082 7.31 2.997c2.917 1.167 5.96 1.262 8.626-.694.094-.063.22-.158.313-.221l1.726-9.307c-1.13-1.64-.659-3.849 1.976-2.555 2.667 1.293.533 4.637 4.015 4.921 3.514.316 2.228-2.965 2.228-2.965" clip-rule="evenodd"/><path fill="#2e186a" fill-rule="evenodd" d="M30.39 169.036a.94.94 0 0 0-.79.369l-.288.368-.726.913a54 54 0 0 0-1.38 1.813 42.6 42.6 0 0 0-3.344 5.395 48.6 48.6 0 0 0-2.94 6.926c-.099.293-.05.616.133.866l1.569 2.145c.089.122.206.221.34.288l.152.065 2.443 1.01 3.236 1.327c.61.249 1.13.459 1.548.626l.158.062c3.364 1.302 6.546 1.134 9.245-.78l.093-.068.314-.221a.95.95 0 0 0 .403-.614l1.726-9.307a.95.95 0 0 0-.152-.712c-.38-.553-.487-1.159-.36-1.405.016-.033.026-.04.102-.05.214-.027.57.054 1.048.289.593.287.837.665 1.038 1.488l.082.36.021.097c.207.956.358 1.407.75 1.911.53.686 1.34 1.067 2.461 1.158 2.088.188 3.298-.746 3.457-2.32a4.2 4.2 0 0 0-.126-1.446l-.02-.078-.04-.142-.04-.124-.04-.114.008.026c-.975-3.056-2.85-5.307-5.343-6.852a15 15 0 0 0-4.13-1.746c-.493-.127-.953-.22-1.367-.284l-.233-.034-.129-.016-.117-.013-.18-.04-.548-.116-.124-.025a55 55 0 0 0-2.398-.424 53 53 0 0 0-5.512-.571m.395 1.917.48.031a53 53 0 0 1 4.351.494c.75.116 1.447.24 2.081.363l.468.094.313.066.312.07q.045.01.094.017l.138.014q.096.01.256.034l.067.01c.355.055.754.136 1.185.247a13 13 0 0 1 3.611 1.524c2.129 1.318 3.708 3.216 4.539 5.819l.034.096q.026.075.065.222c.07.279.102.558.078.791-.05.497-.311.711-1.335.632l-.09-.007c-1.01-.083-1.228-.282-1.477-1.345l-.14-.632c-.324-1.392-.853-2.263-2.073-2.855-1.615-.793-3.024-.612-3.645.596l-.04.082c-.383.834-.242 1.926.292 2.891l.016.027-1.588 8.566-.014.009c-2.16 1.585-4.72 1.741-7.576.638l-.148-.058a252 252 0 0 1-1.4-.566l-1.757-.719-2.022-.832-1.876-.776-1.12-1.53.12-.336a46 46 0 0 1 2.545-5.855 41 41 0 0 1 3.197-5.159c.33-.455.653-.882 1.014-1.344l.373-.474z" clip-rule="evenodd"/><path fill="#fff" fill-rule="evenodd" d="M185.061 145.721c-39.181 31.108-63.053 11.579-81.247 14.355s-20.987 11.863-37.424 18.362c-10.164 4.006-26.476 3.438-32.72 2.429v26.848h151.391z" clip-rule="evenodd" opacity=".5"/><path fill="#6a6af4" fill-rule="evenodd" d="M192.591 205.727c.519 0 .941.424.941.946a.945.945 0 0 1-.886.945l-.055.002H33.671a.944.944 0 0 1-.94-.947c0-.504.391-.916.885-.945l.056-.001zM55.85 180.172c.5 0 .91.394.939.891l.001.056v1.893a.944.944 0 0 1-.94.946.943.943 0 0 1-.94-.891l-.002-.055v-1.893c0-.523.422-.947.941-.947M54.908 187.365v4.353c0 .523.422.947.941.947.52 0 .941-.424.941-.947v-4.353a.944.944 0 0 0-.94-.946.944.944 0 0 0-.942.946m0 8.706v4.353c0 .522.422.946.941.946.52 0 .942-.424.942-.946v-4.353a.944.944 0 0 0-.941-.947.944.944 0 0 0-.942.947" clip-rule="evenodd"/><path fill="#6a6af4" fill-rule="evenodd" d="M55.85 203.834c.5 0 .91.394.939.891l.001.055v1.893a.944.944 0 0 1-.94.947.943.943 0 0 1-.94-.891l-.002-.056v-1.893c0-.522.422-.946.941-.946M103.814 159.539c.501 0 .911.394.94.891l.001.056v1.892a.944.944 0 0 1-.941.947.943.943 0 0 1-.939-.891l-.002-.056v-1.892c0-.523.421-.947.941-.947M102.873 166.228v3.855c0 .523.421.946.941.946s.941-.423.941-.946v-3.855a.944.944 0 0 0-.941-.947.944.944 0 0 0-.941.947m0 7.71v3.855c0 .523.421.947.941.947s.941-.424.941-.947v-3.855a.944.944 0 0 0-.941-.946.944.944 0 0 0-.941.946m0 7.71v3.855c0 .523.421.947.941.947s.941-.424.941-.947v-3.855a.943.943 0 0 0-.941-.946.943.943 0 0 0-.941.946m0 7.711v3.855c0 .523.421.946.941.946s.941-.423.941-.946v-3.855a.944.944 0 0 0-.941-.947.944.944 0 0 0-.941.947m0 7.709v3.856c0 .522.421.946.941.946s.941-.424.941-.946v-3.856a.944.944 0 0 0-.941-.946.944.944 0 0 0-.941.946M103.814 203.834c.501 0 .911.394.94.891l.001.055v1.893a.944.944 0 0 1-.941.947.943.943 0 0 1-.939-.891l-.002-.056v-1.893c0-.523.421-.946.941-.946M150.742 161.557c.501 0 .911.394.939.891l.002.056v1.893a.944.944 0 0 1-.941.946.944.944 0 0 1-.94-.891l-.001-.055v-1.893c0-.523.421-.947.941-.947M149.801 168.057v3.672c0 .522.421.946.941.946s.941-.424.941-.946v-3.672a.944.944 0 0 0-.941-.947.944.944 0 0 0-.941.947m0 7.343v3.671c0 .523.421.947.941.947s.941-.424.941-.947V175.4a.944.944 0 0 0-.941-.947.944.944 0 0 0-.941.947m0 7.344v3.671c0 .523.421.947.941.947s.941-.424.941-.947v-3.671a.944.944 0 0 0-.941-.947.944.944 0 0 0-.941.947m0 7.344v3.671c0 .523.421.947.941.947s.941-.424.941-.947v-3.671a.944.944 0 0 0-.941-.947.944.944 0 0 0-.941.947m0 7.343v3.671c0 .523.421.947.941.947s.941-.424.941-.947v-3.671a.944.944 0 0 0-.941-.947.944.944 0 0 0-.941.947M150.742 203.833c.501 0 .911.395.939.891l.002.056v1.893a.943.943 0 0 1-.941.946.944.944 0 0 1-.94-.89l-.001-.056v-1.893c0-.523.421-.947.941-.947" clip-rule="evenodd"/><path fill="#ff8d7e" fill-rule="evenodd" d="M184.284 144.699a1.25 1.25 0 0 1 1.763.208c.429.547.337 1.34-.207 1.773-12.689 10.084-24.525 15.539-36.249 17.41-4.735.756-9.399.925-14.268.605l-.457-.031c-3.806-.274-7.214-.763-12.414-1.693l-4.154-.744c-3.365-.598-3.982-.68-5.849-.897-3.29-.383-5.988-.413-8.446-.038-7.888 1.204-12.64 3.312-19.284 7.876l-1.16.807-2.022 1.419a127 127 0 0 1-2.865 1.959c-3.874 2.564-7.478 4.51-11.82 6.226-8.84 3.512-18.279 3.992-27.175 2.501a1.26 1.26 0 0 1-1.032-1.453 1.256 1.256 0 0 1 1.444-1.037c8.483 1.422 17.477.965 25.842-2.359 4.044-1.598 7.414-3.4 11.023-5.763l.339-.223c.608-.403 1.214-.814 1.902-1.29l3.625-2.537.481-.333c6.935-4.763 12.018-7.021 20.325-8.288 2.625-.401 5.441-.383 8.796-.01l1.074.125c1.255.152 2.092.276 4.339.67l5.626 1.005c4.801.85 8.023 1.304 11.584 1.559 4.851.348 9.469.199 14.153-.549 11.284-1.801 22.724-7.073 35.086-16.898" clip-rule="evenodd"/><path fill="#6a6af4" fill-rule="evenodd" d="M150.743 164.619a2.11 2.11 0 0 0 2.102-2.114 2.11 2.11 0 0 0-2.102-2.114c-1.16 0-2.101.946-2.101 2.114s.941 2.114 2.101 2.114M103.815 162.411c1.16 0 2.101-.946 2.101-2.114a2.11 2.11 0 0 0-2.101-2.114 2.11 2.11 0 0 0-2.102 2.114c0 1.168.941 2.114 2.102 2.114M55.85 183.233c1.16 0 2.102-.946 2.102-2.113a2.11 2.11 0 0 0-2.102-2.114c-1.161 0-2.102.946-2.102 2.114s.941 2.113 2.102 2.113" clip-rule="evenodd"/><path fill="#fff" fill-rule="evenodd" d="M34.863 181.719s7.34 7.256 10.133 5.678c2.792-1.577 4.235-2.902 4.235-4.732s-2.918-3.029-4.36 0c0 0-5.02-2.808-5.522-4.669" clip-rule="evenodd"/><path fill="#2e186a" fill-rule="evenodd" d="M39.103 177.082a.94.94 0 0 1 1.138.613l.016.053c.064.235.35.628.832 1.093.41.397.937.825 1.55 1.27.504.365 1.04.723 1.582 1.063l.324.201.04-.054c.815-1.073 1.923-1.58 3.07-1.425l.088.013c1.37.226 2.428 1.379 2.428 2.756 0 2.172-1.438 3.706-4.715 5.557-1.376.778-3.212.234-5.493-1.188a27 27 0 0 1-2.288-1.615 44 44 0 0 1-2.459-2.075l-.264-.242-.246-.228-.384-.365-.119-.115a.95.95 0 0 1-.011-1.339.937.937 0 0 1 1.285-.054l.046.043q.064.064.25.241l.216.204q.226.212.488.449a41 41 0 0 0 2.35 1.984c.74.576 1.455 1.084 2.128 1.504 1.725 1.075 3.024 1.46 3.58 1.146l.267-.153c2.534-1.465 3.487-2.523 3.487-3.754 0-.415-.36-.807-.85-.888-.602-.099-1.236.28-1.72 1.297a.94.94 0 0 1-1.307.418l-.253-.145-.246-.145-.403-.244a32 32 0 0 1-1.971-1.311 16 16 0 0 1-1.754-1.441c-.707-.682-1.17-1.318-1.344-1.963a.947.947 0 0 1 .661-1.161" clip-rule="evenodd"/><path fill="#fff" fill-rule="evenodd" d="M30.723 184.085s6.619 6.594 9.63 5.774c0 0 2.572-.726 3.012-2.303" clip-rule="evenodd"/><path fill="#2e186a" fill-rule="evenodd" d="M30.055 183.419a.937.937 0 0 1 1.33-.007l.163.159.083.08a40.143 40.143 0 0 0 3.004 2.609c.74.58 1.456 1.089 2.13 1.509 1.509.939 2.705 1.349 3.335 1.178l.092-.029q.116-.036.306-.109c.315-.121.63-.268.916-.438.55-.325.908-.681 1.027-1.016l.018-.055a.94.94 0 0 1 1.16-.656c.5.141.793.663.653 1.166-.256.917-.945 1.626-1.904 2.193a8 8 0 0 1-1.768.769c-1.3.354-2.902-.196-4.826-1.394a27 27 0 0 1-2.295-1.624 43 43 0 0 1-2.422-2.055l-.26-.24-.241-.226-.279-.265-.216-.211a.95.95 0 0 1-.006-1.338" clip-rule="evenodd"/><path fill="#fff" fill-rule="evenodd" d="M22.283 185.756s6.87 9.118 9.442 9.812c2.573.663 1.851-2.619-3.137-9.149" clip-rule="evenodd"/><path fill="#2e186a" fill-rule="evenodd" d="M21.717 185.003a.937.937 0 0 1 1.28.136l.355.462c.257.333.547.705.865 1.106a95 95 0 0 0 2.776 3.353q.61.701 1.181 1.321l.204.219c1.651 1.766 2.967 2.886 3.583 3.052q.134.034.23.046l.048.005a2.6 2.6 0 0 0-.117-.639l-.027-.09c-.464-1.498-1.92-3.926-4.251-6.978a.95.95 0 0 1 .173-1.327.94.94 0 0 1 1.32.174l.269.355c2.3 3.05 3.76 5.517 4.286 7.212.678 2.183-.3 3.616-2.409 3.073-1.137-.307-2.673-1.631-4.688-3.814q-.592-.641-1.218-1.362a98 98 0 0 1-2.832-3.42l-.27-.343-.256-.326-.684-.889a.95.95 0 0 1 .181-1.326" clip-rule="evenodd"/></g><defs><clipPath id="a"><path fill="#fff" d="M0 0h196v223H0z"/></clipPath></defs></svg>