<svg xmlns="http://www.w3.org/2000/svg" width="288" height="159" fill="none" viewBox="0 0 288 159"><g clip-path="url(#a)"><path fill="#f6f6f6" d="M3 0h282v158.625H3z"/><path fill="#000091" fill-rule="evenodd" d="M140.292 32.3a31.6 31.6 0 0 0-5.212.493l5.546 31.044-10.64 29.727a32.9 32.9 0 0 0 10.973 1.81c17.518-.188 31.775-14.57 31.608-31.866-.19-17.296-14.757-31.396-32.275-31.208" clip-rule="evenodd"/><path fill="#ff8d7e" fill-rule="evenodd" d="M102.02 64.965c.142 13.183 8.64 24.933 21.207 29.375l10.734-29.704z" clip-rule="evenodd"/><path fill="#6a6af4" fill-rule="evenodd" d="M126.702 27.06a32.04 32.04 0 0 0-19.018 10.904c-4.831 5.757-7.45 12.995-7.354 20.468l31.941-.329z" clip-rule="evenodd"/><path fill="#000091" fill-rule="evenodd" d="M159 33.076c1.63 0 2.952-1.305 2.952-2.914s-1.322-2.914-2.952-2.914-2.951 1.305-2.951 2.914 1.321 2.914 2.951 2.914" clip-rule="evenodd"/><path fill="#ff8d7e" fill-rule="evenodd" d="M103.995 90.322c1.63 0 2.952-1.305 2.952-2.914s-1.322-2.914-2.952-2.914-2.951 1.305-2.951 2.914 1.321 2.914 2.951 2.914" clip-rule="evenodd"/><path fill="#6a6af4" fill-rule="evenodd" d="M101.044 39.092c1.63 0 2.952-1.305 2.952-2.914s-1.322-2.914-2.952-2.914-2.951 1.304-2.951 2.914c0 1.609 1.321 2.914 2.951 2.914" clip-rule="evenodd"/><path fill="#000091" fill-rule="evenodd" d="M190.014 27.648a.71.71 0 0 1 .714.704.71.71 0 0 1-.672.704l-.042.002H164.57a.71.71 0 0 1-.714-.706.71.71 0 0 1 .673-.703l.041-.002zM172.163 31.243a.71.71 0 0 1 .714.705.71.71 0 0 1-.672.704l-.042.001h-7.593a.71.71 0 0 1-.714-.705.71.71 0 0 1 .673-.704h7.634" clip-rule="evenodd"/><path fill="#6a6af4" fill-rule="evenodd" d="M305.642 97.984c-11.044-16.873-23.088-24.3-27.682-26.673-.047-4.536-3.879-8.601-15.042-10.552-24.992-4.559-31.323 2.139-32.775 8.719l-18.565-.376-23.73-8.93-11.235 11.726c-2.118 2.82-1.904 11.069 5.522 18.096 5.189 4.911 23.754 17.013 34.513 23.899l1.047 47.752 78.854.47-3.713-19.082c2-.094 1.429-.141 2.024-.164 17.422-.541 24.753-23.477 10.782-44.885" clip-rule="evenodd"/><path fill="#4747d0" fill-rule="evenodd" d="M229.905 77.21c-.071-1.88-.404-4.794.238-7.732l-9.235-.188c.095 3.384 1.214 13.536 10.949 15.651a19.3 19.3 0 0 1-1.952-7.731M287.41 77.585c-4.094-3.266-7.474-5.24-9.449-6.274.071 6.627-7.926 14.311-12.948 18.095.262.047.523.07.809.094 6.426.423 21.683-8.084 24.278-9.541-.833-.682-1.738-1.504-2.69-2.374" clip-rule="evenodd"/><path fill="#2e186a" fill-rule="evenodd" d="M289.778 103.344c2.669-.428 5.549.039 8.614 1.552a.7.7 0 0 1 .32.946.72.72 0 0 1-.958.315c-2.802-1.383-5.38-1.801-7.747-1.422-1.886.302-3.564 1.097-5.029 2.235-.67.521-1.251 1.08-1.737 1.637q-.217.25-.381.462l-.1.133-.038.052-.047.067a.72.72 0 0 1-.989.202.7.7 0 0 1-.204-.976l.05-.074c.129-.184.338-.455.627-.786a14 14 0 0 1 1.936-1.825c1.644-1.278 3.541-2.175 5.683-2.518" clip-rule="evenodd"/><path fill="#2e186a" fill-rule="evenodd" d="M272.431 98.257a.72.72 0 0 1 .946.245l.14.243.058.1q.222.376.513.83a26 26 0 0 0 1.838 2.519c1.875 2.257 3.729 3.565 5.319 3.505l.075-.003.036-.004.108-.146q.146-.195.345-.436l.06-.072c.573-.681 1.26-1.36 2.064-1.994 3.371-2.659 7.651-3.72 12.79-2.26a.703.703 0 0 1 .489.872.717.717 0 0 1-.884.483c-4.666-1.326-8.476-.381-11.504 2.007a12.7 12.7 0 0 0-1.856 1.793 9 9 0 0 0-.399.505l-.056.076-.118.17-.019.03a.72.72 0 0 1-.475.322q-.243.045-.488.061c-2.209.142-4.417-1.398-6.591-4.015a27 27 0 0 1-1.939-2.657l-.148-.233a26 26 0 0 1-.334-.542l-.145-.247-.111-.196a.7.7 0 0 1 .286-.956M236.071 87.785a.954.954 0 0 1 1.129.659l.015.057.071.318.09.423.074.355.025.125c.196.965.392 2.03.574 3.163.404 2.507.685 4.984.791 7.308.084 1.845.053 3.533-.11 5.034a.95.95 0 0 1-1.047.835.943.943 0 0 1-.846-1.034c.151-1.398.181-2.995.101-4.75-.102-2.246-.376-4.656-.77-7.098a78 78 0 0 0-.56-3.09l-.072-.354-.09-.423-.09-.401a.94.94 0 0 1 .715-1.127M262.068 88.394a.935.935 0 0 1 .466 1.21l-.255.54-.176.381q-.213.464-.453 1.004a89 89 0 0 0-1.912 4.66 63 63 0 0 0-1.61 4.811c-.557 1.944-.924 3.689-1.07 5.181a.95.95 0 0 1-1.039.845.94.94 0 0 1-.856-1.026c.158-1.618.547-3.468 1.132-5.512a65 65 0 0 1 1.658-4.953 91 91 0 0 1 1.953-4.76l.205-.459q.2-.446.38-.832l.208-.444.099-.206a.957.957 0 0 1 1.27-.44" clip-rule="evenodd"/><path fill="#fff" fill-rule="evenodd" d="m266.655 69.384 3.189 3.219s-15.138 11.374-20.065 38.752c-3.189 17.789-2.118 19.787-2.118 19.787l-9.378-.494s5.237-29.586 1.976-38.963c-3.261-9.353-.286-19.881 1.928-21.573s24.468-.728 24.468-.728" clip-rule="evenodd"/><path fill="#fff" fill-rule="evenodd" d="m262.442 58.926.88 7.308 2.999 3.408s-8.878 5.428-17.375 14.97c0 0-6.95-7.239-8.164-18.59l16.281 1.998 1.285-6.274z" clip-rule="evenodd"/><path fill="#2e186a" fill-rule="evenodd" d="m257.94 61.168-.04.03a.7.7 0 0 0-.252.409l-1.154 5.634-15.623-1.917a.71.71 0 0 0-.799.773c.498 4.65 1.955 8.955 4.074 12.846a35 35 0 0 0 2.927 4.53q.475.618.883 1.094l.175.202q.204.232.297.328a.72.72 0 0 0 1.055-.02q.515-.578 1.04-1.146a89.4 89.4 0 0 1 11.135-10.134 78 78 0 0 1 3.665-2.656l.371-.25.551-.362.269-.172.184-.115.037-.025a.7.7 0 0 0 .126-1.037l-2.856-3.244-.854-7.093a.716.716 0 0 0-1.118-.495zm3.934-.99.74 6.14.008.053c.024.12.079.233.162.326l2.459 2.795-.111.074a59 59 0 0 0-.618.413 79 79 0 0 0-3.732 2.705 91 91 0 0 0-11.313 10.296l-.356.387-.161.178-.078-.093a26 26 0 0 1-.662-.83 33.6 33.6 0 0 1-2.808-4.347l-.113-.208c-1.825-3.405-3.123-7.134-3.677-11.133l-.014-.1 15.375 1.887.042.004a.71.71 0 0 0 .746-.564l1.228-5.998z" clip-rule="evenodd"/><path fill="#fff" fill-rule="evenodd" d="M265.084 48.915s5.665.117 4.641 5.1c-1.023 4.981-7.259 2.114-7.259 2.114l.833-7.12z" clip-rule="evenodd"/><path fill="#2e186a" fill-rule="evenodd" d="M265.099 48.21h-.053l-1.785.095a.71.71 0 0 0-.671.623l-.833 7.12a.7.7 0 0 0 .408.72l.095.043c.256.112.64.258 1.115.402.945.288 1.896.456 2.803.441 2.185-.036 3.763-1.141 4.247-3.5.551-2.682-.562-4.455-2.676-5.355a7.6 7.6 0 0 0-1.809-.505l-.153-.022a6 6 0 0 0-.688-.062m-1.16 1.47 1.152-.06.107.007.034.002q.22.017.485.058a6.2 6.2 0 0 1 1.467.407c1.529.651 2.249 1.798 1.842 3.78-.342 1.662-1.317 2.345-2.871 2.37-.737.013-1.546-.13-2.359-.378l-.136-.042a11 11 0 0 1-.386-.132l-.037-.014z" clip-rule="evenodd"/><path fill="#fff" fill-rule="evenodd" d="M248.947 33.17c-1.5-.117-11.711-.752-12.829 7.661s.095 17.72 1.023 21.95 20.517 2.279 21.612 1.903 2.428-1.669 2.428-1.669l2.689-12.925s1.095-15.604-14.923-16.92" clip-rule="evenodd"/><path fill="#2e186a" fill-rule="evenodd" d="M246.433 32.43c-1.47.07-2.908.288-4.254.698-3.75 1.144-6.235 3.593-6.769 7.611-.953 7.163-.318 16.035 1.033 22.19.514 2.342 4.529 3.208 11.041 3.235h.401c4.366-.005 10.176-.496 11.103-.814q.297-.103.613-.272a8 8 0 0 0 .954-.614q.336-.249.645-.514l.153-.132c.15-.132.263-.237.328-.3a.7.7 0 0 0 .199-.36l2.69-12.926a1 1 0 0 0 .013-.093l.006-.104q.012-.218.011-.62a19 19 0 0 0-.098-1.852c-.191-1.92-.642-3.863-1.428-5.712-2.261-5.317-6.786-8.785-14.068-9.383a20 20 0 0 0-2.573-.038m2.457 1.443c6.731.553 10.806 3.677 12.867 8.524.726 1.708 1.145 3.515 1.323 5.304.063.626.09 1.203.092 1.718v.172l-.003.157-.005.174-.003.076-2.634 12.657-.014.012-.11.098c-.222.195-.461.39-.705.571a6 6 0 0 1-.776.501q-.221.12-.404.18l-.049.016c-.904.253-6.461.717-10.585.721h-.351c-5.686-.025-9.406-.811-9.694-2.123-1.319-6.008-1.942-14.722-1.013-21.708.454-3.42 2.519-5.455 5.774-6.448 1.221-.372 2.543-.573 3.901-.636.917-.043 1.686-.021 2.389.034" clip-rule="evenodd"/><path fill="#968bb4" fill-rule="evenodd" d="M261.99 49.973c-.952.916-3.523 6.274-4.142 8.765 0 0-6.331-2.091-15.399-2.232 0 0-4.951.094-6.927.681 0 0 .429 8.836 4.451 13.395 4.023 4.56 12.496 3.29 16.471.54s4.641-4.065 5.546-7.002c.928-2.938 3.356-13.912 3.356-13.912z" clip-rule="evenodd"/><path fill="#2e186a" fill-rule="evenodd" d="M264.584 51.876s2.666-4.065 3.69-8.295c.975-3.972-.905-8.131-4.618-9.917-3.118-1.48-5.427-.33-5.427-.33s3.309-5.545-1.666-10.457c-1.737-1.739-4.165-2.679-6.64-2.608-6.07.164-7.926 5.24-7.926 5.24s-6.474-11.773-19.779-4.794c-1.333.705-2.857 2.656-3.571 3.972-4.403 7.99 10.092 17.46 17.613 18.212 8.283.823 13.115-.54 15.781-2.538-1.999 1.175.238 13.395 12.543 11.515M241.691 53.043a.71.71 0 0 1 .79-.621.71.71 0 0 1 .633.738l-.004.041-.764 6.688 1.731-.446a.715.715 0 0 1 .859.464l.012.04a.704.704 0 0 1-.47.849l-.041.011-2.737.705a.71.71 0 0 1-.893-.72l.003-.041zM239.378 54.485c.447 0 .809-.547.809-1.222s-.362-1.222-.809-1.222-.81.547-.81 1.222.363 1.222.81 1.222M247.066 54.343c.447 0 .809-.547.809-1.222s-.362-1.222-.809-1.222-.809.547-.809 1.222.362 1.222.809 1.222" clip-rule="evenodd"/><path fill="#2e186a" fill-rule="evenodd" d="M247.098 45.446c1.28-.198 2.386.123 3.284.773.249.18.464.374.646.57.113.121.194.222.242.29a.7.7 0 0 1-.179.982.72.72 0 0 1-.968-.143l-.046-.059a3.006 3.006 0 0 0-.539-.503c-.609-.44-1.341-.653-2.219-.517a.713.713 0 0 1-.816-.588.706.706 0 0 1 .595-.805M238.267 45.33a3.9 3.9 0 0 1 1.5-.045l.102.017q.119.022.187.04a.704.704 0 0 1 .513.858.715.715 0 0 1-.829.516l-.084-.019-.109-.018a2.5 2.5 0 0 0-.941.02c-.394.096-.651.301-.788.696l-.018.055a.715.715 0 0 1-.89.471.704.704 0 0 1-.477-.879c.288-.938.957-1.5 1.834-1.712M247.709 62.663a9.5 9.5 0 0 1-2.595 1.715s.143 2.35 2.88 1.575c1.69-.47 1.476-1.95 1.071-3.008a.847.847 0 0 0-1.356-.282" clip-rule="evenodd"/><path fill="#4747d0" fill-rule="evenodd" d="M191.08 73.957c2.556-5.738 1.107-11.92-3.237-13.805-4.344-1.887-9.938 1.236-12.494 6.974s-1.107 11.92 3.237 13.806 9.938-1.236 12.494-6.975" clip-rule="evenodd"/><path fill="#fff" fill-rule="evenodd" d="M164.784 62.428c-4.356-1.951-4.974.282-3.713 1.41 1.595 1.386 9.187 5.31 9.187 5.31s-6.14-.446-7.711 2.962c-1.571 3.407.071 3.689 2.427 2.185 2.333-1.504 9.545.447 9.545.447l2.166 2.114s7.45 2.656 9.687-5.522c1.666-4.677-1.357-8.014-1.357-8.014-.856-1.034-3.855-5.381-14.138-7.99 0 0-4.831-.681-1.237 1.763.928.634 1.904 1.151 2.832 1.598" clip-rule="evenodd"/><path fill="#2e186a" fill-rule="evenodd" d="M169.59 54.538c.311-.001.639.017.966.047l.173.017.249.03.077.016c3.324.843 6.104 1.915 8.406 3.17 1.771.967 3.187 2 4.333 3.086.383.362.719.714 1.033 1.073l.117.135c.071.084.176.21.281.338l.344.425.049.057q.08.095.192.244l.077.105c.238.33.474.71.694 1.139 1.064 2.073 1.383 4.457.511 7.016l-.038.107-.031.113c-.885 3.11-2.578 5.005-4.841 5.839l-.1.036c-1.574.555-3.228.552-4.779.22a7 7 0 0 1-.861-.231.7.7 0 0 1-.221-.128l-.038-.034-2.031-1.983-.239-.06-.196-.047a38 38 0 0 0-1.585-.343 29 29 0 0 0-2.812-.416c-1.877-.177-3.287-.054-3.958.378-1.422.908-2.63 1.254-3.448.758-.979-.594-.896-1.921-.017-3.828.703-1.526 2.175-2.476 4.145-2.98q.7-.179 1.4-.274l.154-.021-.269-.145a165 165 0 0 1-1.81-.988l-.56-.312-.658-.372c-1.834-1.045-3.111-1.847-3.708-2.365-.935-.837-1.137-2.159-.233-2.919.898-.755 2.532-.636 4.721.344.359.161.518.58.355.934a.72.72 0 0 1-.945.35c-1.738-.778-2.844-.858-3.205-.554-.15.126-.097.475.259.793.514.448 1.84 1.273 3.714 2.334l.405.229.208.116c.803.448 1.65.91 2.508 1.37l.737.393.947.5.527.274c.674.348.4 1.347-.342 1.33l-.204-.01c-1.096-.044-2.407.04-3.643.357-1.593.408-2.71 1.13-3.204 2.2-.347.755-.527 1.343-.552 1.743-.014.232.011.295.017.3.174.105.9-.1 1.851-.694l.072-.045c1.024-.66 2.688-.805 4.871-.6.939.088 1.936.24 2.952.437.511.099.999.204 1.454.31l.192.046q.215.051.392.096l.262.068a.7.7 0 0 1 .275.143l.039.035 2.045 1.997.025.008q.188.054.42.108l.094.02c1.313.281 2.711.283 3.997-.17 1.865-.657 3.269-2.201 4.044-4.922l.037-.13.015-.05c.789-2.214.527-4.256-.391-6.044a7.4 7.4 0 0 0-.583-.958l-.079-.106-.072-.094-.051-.062-.059-.07a50 50 0 0 0-.591-.723l-.019-.022c-.317-.37-.655-.73-1.047-1.1-1.058-1.001-2.374-1.962-4.036-2.869-2.135-1.165-4.72-2.171-7.818-2.975l-.212-.055-.056-.006a10 10 0 0 0-1.087-.069q-.118 0-.222.006l-.061.004.042.037q.235.203.613.466l.077.052c.797.545 1.672 1.031 2.739 1.544.354.17.501.593.329.943a.72.72 0 0 1-.955.325c-1.126-.542-2.061-1.061-2.925-1.651l-.146-.101c-1.243-.869-1.761-1.554-1.388-2.298.295-.587.92-.732 1.89-.737" clip-rule="evenodd"/><path fill="#fff" fill-rule="evenodd" d="M171.591 65.295c-1.523-.728-7.926-2.702-9.425-4.488s.428-2.844 5.902-.353" clip-rule="evenodd"/><path fill="#2e186a" fill-rule="evenodd" d="M162.374 58.333c1.262-.228 3.338.272 5.993 1.48a.7.7 0 0 1 .35.936.72.72 0 0 1-.947.345c-2.412-1.097-4.237-1.537-5.14-1.374a.8.8 0 0 0-.226.067l-.014.008.001.005q.004.03.024.083l.011.028q.076.19.289.445c.145.173.374.37.681.582.763.528 1.921 1.1 3.458 1.74l.392.16c.971.39 4.221 1.614 4.656 1.822.355.17.504.592.332.942a.72.72 0 0 1-.915.345l-.114-.051c-.606-.26-3.539-1.367-4.501-1.754l-.093-.037c-1.778-.726-3.114-1.376-4.034-2.012-.403-.279-.724-.555-.961-.837-1.069-1.273-.826-2.638.758-2.923" clip-rule="evenodd"/><path fill="#fff" fill-rule="evenodd" d="M174.019 62.616c-.167-.212-10.663-3.29-9.949-4.77.571-1.2 2.095-1.552 7.902.61l4.641 2.021" clip-rule="evenodd"/><path fill="#2e186a" fill-rule="evenodd" d="M163.424 57.545c.881-1.848 3.136-1.824 8.469.13l.331.122.036.015 4.641 2.02a.7.7 0 0 1 .366.93.72.72 0 0 1-.903.376l-.039-.015-4.62-2.012-.395-.146c-4.254-1.554-5.932-1.682-6.486-.992l-.013.017.024.023q.072.07.184.154l.046.035c.392.287 1.023.626 1.855 1.001q.876.395 2.009.83l.561.212c.685.257 1.342.492 2.189.786l2.046.706.228.082.129.049.072.028q.081.034.143.063c.121.06.191.104.286.224a.7.7 0 0 1-.126.99.72.72 0 0 1-.805.048l-.018-.011-.079-.032-.198-.073-.971-.337-1.054-.363a92 92 0 0 1-2.559-.92l-.365-.14a41 41 0 0 1-2.081-.86c-.915-.412-1.623-.792-2.112-1.15-.742-.543-1.115-1.12-.791-1.79" clip-rule="evenodd"/><path fill="#fff" fill-rule="evenodd" d="m282.268 162.28-92.636-.047-.666-64.085 92.636-.94z" clip-rule="evenodd"/><path fill="#2e186a" fill-rule="evenodd" d="m281.594 96.503-92.635.94a.71.71 0 0 0-.707.712l.666 64.085a.71.71 0 0 0 .714.697l92.636.047a.71.71 0 0 0 .714-.712l-.666-65.071a.71.71 0 0 0-.722-.698m-.699 1.417.652 63.654-91.208-.046-.652-62.683z" clip-rule="evenodd"/><path fill="#968bb4" fill-rule="evenodd" d="M275.865 144.396h-77.498a.697.697 0 0 1-.714-.705c0-.399.31-.705.714-.705h77.498c.405 0 .714.306.714.705 0 .4-.309.705-.714.705M275.865 135.255h-77.498a.7.7 0 0 1-.714-.705c0-.4.31-.705.714-.705h77.498c.405 0 .714.305.714.705a.697.697 0 0 1-.714.705M275.865 126.113h-77.498a.697.697 0 0 1-.714-.705c0-.399.31-.705.714-.705h77.498c.405 0 .714.306.714.705 0 .4-.309.705-.714.705M275.865 116.972h-77.498a.7.7 0 0 1-.714-.705c0-.4.31-.705.714-.705h77.498c.405 0 .714.305.714.705a.697.697 0 0 1-.714.705" clip-rule="evenodd"/><path fill="#000091" d="m241.074 110.514 10.852-.11.433 41.732-10.853.11z"/><path fill="#6a6af4" d="m259.573 125.482 10.923-.11.278 26.763-10.924.11zM222.897 125.482l10.923-.11.278 26.763-10.924.11z"/><path fill="#6a6af4" fill-rule="evenodd" d="m215.909 152.104-10.854.118-.166-12.831 10.853-.118z" clip-rule="evenodd"/><path fill="#2e186a" fill-rule="evenodd" d="M198.367 106.561a.71.71 0 0 1 .713.663l.001.042v44.25h76.784a.71.71 0 0 1 .713.664l.001.041a.71.71 0 0 1-.672.704l-.042.001h-77.498a.71.71 0 0 1-.712-.663l-.002-.042v-44.955c0-.39.32-.705.714-.705" clip-rule="evenodd"/><path fill="#6a6af4" fill-rule="evenodd" d="M213.053 154.172a.71.71 0 0 1 .714.705.71.71 0 0 1-.672.704l-.042.001h-6.379a.71.71 0 0 1-.714-.705c0-.376.297-.682.672-.704l.042-.001zM231.737 154.172a.71.71 0 0 1 .714.705.71.71 0 0 1-.672.704l-.042.001h-6.378a.71.71 0 0 1-.714-.705c0-.376.297-.682.672-.704l.042-.001z" clip-rule="evenodd"/><path fill="#000091" fill-rule="evenodd" d="M250.065 154.172a.71.71 0 0 1 .714.705.71.71 0 0 1-.672.704l-.042.001h-6.403a.71.71 0 0 1-.714-.705.71.71 0 0 1 .672-.704l.042-.001z" clip-rule="evenodd"/><path fill="#6a6af4" fill-rule="evenodd" d="M268.415 154.172a.71.71 0 0 1 .714.705.71.71 0 0 1-.672.704l-.042.001h-6.379a.71.71 0 0 1-.714-.705.71.71 0 0 1 .672-.704l.042-.001z" clip-rule="evenodd"/><path fill="#968bb4" fill-rule="evenodd" d="M195.178 117.841a.697.697 0 0 1-.714-.705v-1.105c0-.399.309-.705.714-.705s.714.306.714.705v1.105a.71.71 0 0 1-.714.705M195.178 126.653a.696.696 0 0 1-.714-.705v-1.104c0-.4.309-.705.714-.705s.714.305.714.705v1.104c0 .4-.309.705-.714.705M195.178 136.359a.696.696 0 0 1-.714-.705v-1.104c0-.4.309-.705.714-.705s.714.305.714.705v1.104a.71.71 0 0 1-.714.705M195.178 145.5a.697.697 0 0 1-.714-.705v-1.105c0-.399.309-.705.714-.705s.714.306.714.705v1.105a.71.71 0 0 1-.714.705" clip-rule="evenodd"/><path fill="#2e186a" fill-rule="evenodd" d="M293.931 134.385c5.127 0 9.283-5.082 9.283-11.351s-4.156-11.35-9.283-11.35-9.283 5.081-9.283 11.35 4.156 11.351 9.283 11.351" clip-rule="evenodd"/><path fill="#fff" fill-rule="evenodd" d="M271.891 124.562c-4.785.047-4.428-2.256-2.833-2.749 2.023-.635 10.568-1.199 10.568-1.199s-5.808-2.044-5.855-5.781 1.571-3.337 3.094-1.034 8.926 3.384 8.926 3.384l2.856-1.081s7.902.541 6.617 8.883c-.381 4.935-4.499 6.792-4.499 6.792-1.214.611-5.712 3.384-16.209 1.692 0 0-4.689-1.316-.428-2.115a20 20 0 0 1 3.237-.329" clip-rule="evenodd"/><path fill="#2e186a" fill-rule="evenodd" d="m290.396 131.172.137-.069.085-.045q.208-.11.461-.275a8 8 0 0 0 1.428-1.195c1.127-1.192 1.863-2.686 2.034-4.525l.013-.158.004-.026c.553-3.588-.602-5.817-2.885-7.1a8.1 8.1 0 0 0-2.134-.815 8 8 0 0 0-.701-.131l-.095-.013-2.697 1.021a.7.7 0 0 1-.307.045l-.053-.006-.281-.044-.129-.022a38 38 0 0 1-1.063-.195 34 34 0 0 1-3.23-.794l-.268-.083c-2.157-.678-3.691-1.476-4.405-2.495l-.043-.063c-.638-.965-1.237-1.462-1.441-1.435l-.005.003c-.014.013-.06.073-.131.263-.14.374-.215.982-.205 1.809.017 1.348.977 2.602 2.616 3.706.605.408 1.258.763 1.911 1.063q.287.132.533.232l.237.093.084.032c.73.256.581 1.316-.192 1.367l-.758.053q-.445.032-.952.071l-.855.068c-.994.081-1.978.168-2.908.26l-.401.041c-2.234.229-3.851.463-4.528.675-.447.138-.631.425-.547.598.208.423 1.252.792 3.159.774a.71.71 0 0 1 .721.698.71.71 0 0 1-.707.712c-2.401.023-3.945-.522-4.458-1.57-.518-1.057.209-2.188 1.402-2.557l.1-.03c.886-.255 2.658-.5 5.116-.744l.699-.067c.589-.056 1.194-.109 1.806-.16l.386-.032-.091-.054a15 15 0 0 1-.377-.236l-.185-.122c-1.985-1.337-3.215-2.944-3.239-4.854-.027-2.089.439-3.336 1.576-3.489.949-.128 1.91.669 2.83 2.061.477.722 1.904 1.448 3.938 2.064.981.297 2.037.55 3.093.759.37.074.714.136 1.022.188l.197.033 2.678-1.014a.7.7 0 0 1 .254-.046l.051.001.094.008c.251.023.622.08 1.077.186.854.199 1.709.51 2.512.961 2.759 1.55 4.204 4.303 3.61 8.409l-.015.101-.01.117c-.194 2.126-1.039 3.88-2.327 5.278l-.086.093a9.4 9.4 0 0 1-1.684 1.408l-.137.088a6 6 0 0 1-.593.335l-.055.027-.58.298-.291.145c-.48.232-.977.444-1.531.644-3.518 1.271-8.119 1.654-14.239.668a1 1 0 0 1-.08-.018l-.177-.053-.146-.046-.054-.018a10 10 0 0 1-.819-.306c-.395-.168-.723-.344-.974-.539-.438-.34-.683-.763-.52-1.282.204-.647.945-.983 2.323-1.241a20.6 20.6 0 0 1 3.354-.342.71.71 0 0 1 .731.689.71.71 0 0 1-.697.721 19 19 0 0 0-3.121.317q-.495.094-.817.193l-.07.022.028.014q.117.06.258.123l.071.031c.222.094.463.183.705.263l.122.039.155.048.168.027c5.707.895 9.961.546 13.19-.592l.118-.042c.442-.16.844-.327 1.23-.508l.164-.078c.204-.099.664-.337.813-.414" clip-rule="evenodd"/><path fill="#fff" fill-rule="evenodd" d="M279.317 124.656c-1.69.047-8.354-.658-10.449.352-2.094 1.011-.762 2.773 5.26 2.656" clip-rule="evenodd"/><path fill="#2e186a" fill-rule="evenodd" d="M268.555 124.375c1.027-.496 2.823-.655 5.429-.614l.384.007a83 83 0 0 1 1.828.064l2.546.117c.315.012.363.007.555.002a.71.71 0 0 1 .734.685.71.71 0 0 1-.693.725l-.321.006c-.167 0-.425-.011-1.139-.044l-1.586-.075a83 83 0 0 0-1.954-.07l-.377-.007c-2.368-.037-4.031.11-4.779.471a1.8 1.8 0 0 0-.441.283l-.053.056-.022.028.01.014a.8.8 0 0 0 .144.128l.036.025c.763.511 2.612.835 5.259.783a.71.71 0 0 1 .728.691.71.71 0 0 1-.7.719c-2.917.057-5.023-.312-6.089-1.027-1.332-.892-.998-2.244.501-2.967" clip-rule="evenodd"/><path fill="#fff" fill-rule="evenodd" d="M280.436 128.064c-.238.141-11.092-1.222-11.044.399.047 1.34 1.285 2.256 7.473 2.562h5.094" clip-rule="evenodd"/><path fill="#2e186a" fill-rule="evenodd" d="M271.035 127.031c.985-.096 2.297-.096 3.914-.022l.395.019c.531.028 1.085.062 1.683.104l1.096.081 1.454.113c.237.018.414.029.546.036l.11.005.08.002.033-.005a.72.72 0 0 1 .679.301l.023.036a.7.7 0 0 1-.245.967.7.7 0 0 1-.31.103 2 2 0 0 1-.126.008l-.128-.001-.104-.004a11 11 0 0 1-.309-.017l-2.449-.186-.619-.044a80 80 0 0 0-1.518-.092l-.357-.018c-1.498-.068-2.718-.07-3.611.008l-.097.009c-.45.044-.795.108-1.013.186l-.03.011.004.014c.235.881 1.866 1.424 6.61 1.668l.141.007h5.072a.71.71 0 0 1 .713.663l.001.042a.71.71 0 0 1-.672.704l-.042.001h-5.093l-.036-.001-.352-.018c-5.673-.31-7.727-1.171-7.8-3.227-.016-.562.354-.936.911-1.157.364-.144.843-.238 1.446-.296" clip-rule="evenodd"/><path fill="#fff" fill-rule="evenodd" d="M153.811 111.308c4.546-1.763 3.047-3.361 1.261-3.126-2.237.282-10.615 3.055-10.615 3.055s4.427-3.713 2.547-6.533c-1.881-2.82-3.214-1.927-3.475.4s-7.046 5.616-7.046 5.616l-2.808.705s-5.855 4.677-.214 10.481c3.022 3.643 7.259 2.867 7.259 2.867 1.285-.188 6.117-.54 15.138-5.757 0 0 3.76-2.75-.69-1.739a28 28 0 0 0-3.237.963" clip-rule="evenodd"/><path fill="#2e186a" fill-rule="evenodd" d="M144.472 102.294c1.034-.278 2.088.462 3.128 2.023.433.649.619 1.37.577 2.132-.057 1.068-.543 2.15-1.325 3.225l-.048.064.041-.013q.852-.27 1.696-.53l.805-.245.895-.269c2.251-.666 3.89-1.091 4.737-1.198 1.275-.167 2.496.382 2.551 1.478.056 1.101-1.146 2.107-3.457 3.003a.72.72 0 0 1-.926-.399.703.703 0 0 1 .404-.914c1.009-.391 1.73-.782 2.165-1.146.17-.142.284-.27.345-.375a.3.3 0 0 0 .043-.099c-.003-.056-.376-.224-.94-.149l-.092.012c-.781.115-2.344.523-4.437 1.143l-.39.116-.724.219c-.918.279-1.865.576-2.802.875l-.707.226-1.327.433c-.732.242-1.27-.671-.719-1.18l.141-.124.121-.11q.094-.088.199-.19c.333-.325.667-.687.977-1.074.807-1.007 1.302-1.995 1.348-2.854a2.03 2.03 0 0 0-.344-1.282c-.411-.617-.791-1.039-1.117-1.268-.221-.156-.362-.192-.443-.17-.079.021-.184.12-.294.332-.137.263-.243.638-.302 1.096l-.013.1c-.077.688-.509 1.375-1.227 2.096-.652.655-1.54 1.334-2.608 2.029a36 36 0 0 1-2.475 1.461l-.247.132q-.242.129-.46.241l-.381.191-.042.021a1 1 0 0 1-.091.037l-.048.013-2.644.664-.028.026a5 5 0 0 0-.163.153l-.058.058a8 8 0 0 0-.842.99c-.738 1.028-1.183 2.158-1.201 3.355-.024 1.544.664 3.134 2.253 4.769l.019.02.018.021a7.291 7.291 0 0 0 6.266 2.657l.103-.01.158-.018.076-.012c.092-.014.535-.072.654-.088.324-.045.629-.093.96-.153a26 26 0 0 0 2.947-.728c2.894-.886 6.233-2.354 10.097-4.571l.188-.109.145-.111.036-.028a9 9 0 0 0 .471-.401l.072-.067.023-.023-.009.002q-.327.045-.772.142l-.101.023c-1.015.23-2.079.551-3.151.938a.717.717 0 0 1-.916-.42.703.703 0 0 1 .425-.904 28 28 0 0 1 3.323-.988l.191-.043c1.314-.283 2.081-.285 2.532.111.357.312.399.749.234 1.156-.093.228-.249.451-.462.688a6 6 0 0 1-.416.418q-.2.182-.41.354l-.14.113c-.112.089-.2.156-.254.195l-.064.042c-4.051 2.343-7.562 3.894-10.619 4.83a27 27 0 0 1-3.111.767c-.283.052-.547.095-.816.134l-.394.055-.448.06-.073.011-.177.022-.053.006a8.7 8.7 0 0 1-5.292-1.163 8.8 8.8 0 0 1-2.218-1.863l-.091-.108-.081-.084c-1.737-1.826-2.55-3.697-2.552-5.558l.001-.106c.023-1.513.572-2.905 1.464-4.148.316-.44.653-.83.992-1.168l.1-.098c.16-.155.289-.267.375-.336a.7.7 0 0 1 .224-.121l.049-.014 2.735-.687.226-.113.208-.107q.27-.14.575-.304a34 34 0 0 0 2.374-1.401c.991-.645 1.806-1.268 2.375-1.841.514-.516.793-.958.827-1.263.163-1.446.7-2.476 1.653-2.732" clip-rule="evenodd"/><path fill="#fff" fill-rule="evenodd" d="M146.838 114.152c1.642-.588 7.569-3.643 10.068-3.666s2.142 1.786-3.594 3.971" clip-rule="evenodd"/><path fill="#2e186a" fill-rule="evenodd" d="M156.899 109.781c.778-.008 1.387.136 1.78.481.533.468.534 1.154.109 1.775-.652.955-2.44 2.019-5.22 3.078a.717.717 0 0 1-.923-.404.703.703 0 0 1 .409-.912l.254-.097c2.335-.912 3.817-1.797 4.273-2.42l.015-.021-.023-.007-.035-.009a2.8 2.8 0 0 0-.626-.055c-.869.009-2.383.466-4.422 1.293q-.427.173-.889.369l-.46.198c-.585.257-3.587 1.595-4.06 1.764a.716.716 0 0 1-.915-.422.7.7 0 0 1 .389-.888l.126-.049c.681-.27 3.679-1.608 3.973-1.734l.384-.165q.471-.2.91-.378l.284-.114c2.064-.823 3.601-1.273 4.667-1.283" clip-rule="evenodd"/><path fill="#fff" fill-rule="evenodd" d="M147.527 117.159c.31 0 9.854-5.099 10.663-3.854.643 1.011-.047 2.186-5.736 4.747l-4.808 1.904" clip-rule="evenodd"/><path fill="#2e186a" fill-rule="evenodd" d="m156.109 112.681.167-.047c1.288-.359 2.087-.369 2.519.297 1.098 1.725-.463 3.218-5.718 5.615l-.326.148-.031.013-4.808 1.903a.716.716 0 0 1-.928-.392.7.7 0 0 1 .358-.9l.039-.016 4.793-1.898.398-.181c2.374-1.088 3.852-1.936 4.595-2.603l.043-.038.091-.086c.329-.318.413-.492.358-.668l-.005-.013h-.045l-.034.001c-.245.012-.607.085-1.062.218l-.194.058c-.793.245-1.802.639-2.996 1.159l-.15.066q-.394.173-.811.362l-.663.304c-.44.203-.859.401-1.409.664l-2.13 1.024c-.52.245-.461.194-.632.194a.71.71 0 0 1-.715-.705c0-.32.216-.59.512-.677l.036-.009.024-.01q.05-.02.128-.056l.378-.176 1.96-.941c.644-.308 1.117-.529 1.701-.796l.425-.193q.314-.142.615-.274l.311-.135c1.276-.552 2.35-.962 3.206-1.212M45.752 75.61c3.69-2.302 16.09-1.221 25.753 2.304l-3.903 7.379-19.708-3.079z" clip-rule="evenodd"/><path fill="#fff" fill-rule="evenodd" d="M48.418 81.98V62.404l17.399 10.364-.405 10.504z" clip-rule="evenodd"/><path fill="#2e186a" fill-rule="evenodd" d="M47.704 62.404V81.98c0 .368.287.674.66.703l16.994 1.292a.71.71 0 0 0 .768-.676l.405-10.504a.7.7 0 0 0-.345-.63L48.787 61.8c-.476-.284-1.083.055-1.083.603m1.428 1.249 15.956 9.503-.36 9.357-15.596-1.186z" clip-rule="evenodd"/><path fill="#fff" fill-rule="evenodd" d="M71.458 41.442c-7.093-4.841-13.471-6.627-23.468 6.016l-1.357 8.32c-4.189-1.246-6.403.775-5.498 4.394.976 3.9 3.26 5.64 7.069 4.63-.214-.494 0 0 0 0 1.833 4.088 5.26 8.765 11.663 10.151 10.02 2.139 12.353-3.971 13.471-6.392 1.12-2.42 5.213-22.278-1.88-27.119" clip-rule="evenodd"/><path fill="#2e186a" fill-rule="evenodd" d="M60.712 37.196c-4.167.59-8.422 3.679-13.285 9.828l-.03.041a.7.7 0 0 0-.112.281L46.053 54.9l-.025-.005c-4.133-.875-6.584 1.453-5.586 5.445l.033.13c1.049 4.025 3.514 5.87 7.2 5.175l.123-.024.053.111c2.458 5.104 6.295 8.704 11.863 9.91 6.22 1.327 10.181-.217 12.636-3.732.369-.527.69-1.08.999-1.693l.1-.201q.075-.152.15-.315l.39-.847c.815-1.766 1.963-7.843 2.202-12.912l.019-.437c.275-7.095-.997-12.358-4.346-14.643l-.3-.203c-4.184-2.81-7.38-3.955-10.852-3.463m10.34 4.826c2.844 1.941 4.012 6.893 3.722 13.65l-.01.205c-.228 4.856-1.325 10.7-2.053 12.343l-.306.67-.1.215c-.08.172-.157.33-.235.485-.28.557-.569 1.053-.895 1.52-2.127 3.044-5.505 4.36-11.157 3.154-5.295-1.146-8.888-4.677-11.16-9.748a.72.72 0 0 0-.835-.397l-.114.03c-3.232.817-5.177-.536-6.08-4.146-.785-3.14.997-4.622 4.599-3.55l.04.01c.401.094.804-.167.87-.574l1.328-8.14.166-.207c4.537-5.654 8.422-8.432 12.083-8.95 3.116-.442 6.073.656 10.137 3.43" clip-rule="evenodd"/><path fill="#2e186a" fill-rule="evenodd" d="M68.045 55.97a.713.713 0 0 1 .784.58l.006.04.857 7.474a.71.71 0 0 1-.686.784h-.041l-2.81-.07a.71.71 0 0 1-.695-.724.71.71 0 0 1 .69-.686h.042l1.989.05-.765-6.669a.707.707 0 0 1 .588-.774zM72.03 57.798c.46 0 .832-.579.832-1.293 0-.713-.373-1.292-.833-1.292s-.833.579-.833 1.292.373 1.293.833 1.293M63.937 57.656c.46 0 .833-.578.833-1.292s-.373-1.293-.833-1.293-.834.579-.834 1.293.373 1.292.834 1.292" clip-rule="evenodd"/><path fill="#fff" fill-rule="evenodd" d="M59.74 49.425c.935-.67 2.079-1.003 3.398-.808.39.058.66.417.6.802a.713.713 0 0 1-.811.592c-.923-.136-1.699.09-2.348.555a3.3 3.3 0 0 0-.471.41l-.071.078-.046.055-.017.022a.72.72 0 0 1-.995.169.7.7 0 0 1-.171-.983c.05-.07.135-.174.254-.3.19-.203.416-.404.678-.592" clip-rule="evenodd"/><path fill="#2e186a" fill-rule="evenodd" d="M70.913 48.433a4.1 4.1 0 0 1 1.584.052c.906.224 1.598.804 1.903 1.77a.703.703 0 0 1-.468.884.716.716 0 0 1-.88-.424l-.015-.039c-.148-.468-.439-.712-.887-.823a2.7 2.7 0 0 0-1.02-.026l-.065.01-.097.02a.715.715 0 0 1-.868-.51.704.704 0 0 1 .515-.857l.064-.015q.092-.02.234-.042M62.466 64.974c.376-.06.73.18.811.543l.015.076a2.605 2.605 0 0 0 .307.772c.337.556.8.81 1.546.679a.713.713 0 0 1 .828.571.706.706 0 0 1-.579.817c-1.379.241-2.4-.318-3.021-1.345a4 4 0 0 1-.392-.88l-.034-.116a3 3 0 0 1-.072-.308.706.706 0 0 1 .591-.809M34.518 32.489c-4.498-8.695-11.758-9.447-20.088-7.826C6.1 26.285 1.41 37.4 1.125 38.411-2.28 50.396 2.219 63.227 12.24 70.794c1.118.846 2.213 1.692 3.284 2.514 5.88 4.56-7.164 8.437-7.164 8.437 24.992 1.974 19.541-22.701 19.018-24.91 7.997-2.961 11.33-16.239 7.14-24.346" clip-rule="evenodd"/><path fill="#6a6af4" fill-rule="evenodd" d="M47.99 49.738c-.785 2.02-3.094 3.008-5.141 2.232L28.377 46.4a3.907 3.907 0 0 1-2.26-5.075c.785-2.021 3.093-3.008 5.14-2.233l14.472 5.57a3.907 3.907 0 0 1 2.26 5.076" clip-rule="evenodd"/><path fill="#2e186a" fill-rule="evenodd" d="M78.48 49.949c-.096-6.063-1.571-11.35-5.26-14.852-.5-.587-1.19-1.151-2.071-1.622-3.023-1.927-7.117-2.96-12.567-2.773-.096 0-.215.047-.334.095-.856.07-1.713.211-2.546.375-.429.071-.881.165-1.357.306-1.547.4-3.023.963-4.38 1.575-12.21 5.193-16.994 14.546-11.543 27.448 2.808 6.65 6.474 8.789 9.996 8.812v-4.042c-.31-.635-.809-.4-.809-.4-3.808 1.011-5.498-.798-6.474-4.676-.476-1.88-.095-3.337.952-4.112l.071-.071c.048-.023.096-.047.143-.094.024-.023.048-.023.096-.047l.142-.07c.024-.024.048-.024.096-.047.047-.024.095-.047.166-.071.024 0 .048-.023.072-.023.071-.024.119-.047.19-.071.024 0 .048 0 .048-.023.309-.095.666-.142 1.047-.165h.333c.095 0 .19 0 .286.023h.047c.096 0 .19.024.286.024h.047c.453.047.929.164 1.452.306.334.093.096.235.429.376l.88-.071q.465 0 .929-.07c7.712-.917 19.66-6.345 23.944-13.348 3 3.595 3.332 10.692 2.785 16.685 1.857-2.727 2.951-5.922 2.904-9.377" clip-rule="evenodd"/><path fill="#fff" fill-rule="evenodd" d="M60.358 47.851c.935-.67 2.079-1.004 3.399-.808.39.057.658.416.6.801a.713.713 0 0 1-.812.593c-.923-.136-1.699.09-2.348.555-.183.131-.34.272-.471.41l-.071.078q-.03.034-.046.055l-.017.022a.72.72 0 0 1-.995.169.7.7 0 0 1-.171-.983c.05-.07.135-.174.254-.3.19-.203.417-.404.678-.592" clip-rule="evenodd"/><path fill="#ff8d7e" fill-rule="evenodd" d="M138.626 122.517c0-9.447-1.071-18.283-17.637-16.755-.524.094-1 .188-1.452.305l-19.303 4.089-14.995-21.338a11.77 11.77 0 0 0-9.211-5.875l-4.975-.423.453-4.63s-.69 1.67-6.165 2.68c-7.402 1.363-19.589-4.982-19.589-4.982v7.261c0 .094-9.163.54-13.376 3.15-4.213 2.584-5.998 7.66-8.973 14.757-2.976 7.121-12.33 32.36-12.544 34.028-.214 1.692-2.285 11.609 3.213 17.484 4.665 4.982 14.353 13.301 24.397 9.941l48.746-.705c-3.07-7.332-4.118-16.873-4.332-25.944a31 31 0 0 0 3.45 1.504c44.462 10.575 48.08-1.504 48.08-1.504 2.571-3.079 4.213-7.779 4.213-13.043" clip-rule="evenodd"/><path fill="#fff" fill-rule="evenodd" d="m42.5 103.013.042.002c.38.026.668.341.663.712l-.002.041-1.309 18.072a.714.714 0 0 1-1.008.591c-3.586-1.615-6.984-1.202-10.018.473a12.5 12.5 0 0 0-1.56 1.019q-.195.15-.347.279l-.058.05-.124.111a.72.72 0 0 1-1.01-.015.7.7 0 0 1 .015-.997l.053-.05c.127-.116.326-.285.592-.49a14 14 0 0 1 1.742-1.137c3.101-1.713 6.587-2.254 10.245-.954l.124.045 1.239-17.098a.71.71 0 0 1 .721-.654" clip-rule="evenodd"/><path fill="#fff" fill-rule="evenodd" d="M47.07 129.86v-.017a3 3 0 0 0-.06-.779 5.7 5.7 0 0 0-.63-1.67c-.912-1.655-2.64-3.322-5.403-4.907l-.15-.085a.7.7 0 0 1-.265-.962.72.72 0 0 1 .938-.281l.038.019.16.091c2.922 1.678 4.824 3.492 5.88 5.349l.057.102c.712 1.292.927 2.41.859 3.236l-.007.069-.006.051a.71.71 0 0 1-.816.588.706.706 0 0 1-.596-.804M78.947 96.655a.72.72 0 0 1 .997-.16l.045.033q.075.057.195.157l.041.035q.305.26.662.631c.668.7 1.333 1.574 1.95 2.634 1.403 2.412 2.36 5.428 2.675 9.098.387 4.505-.222 9.749-2.007 15.785l-.044.147.99 13.691a.706.706 0 0 1-.619.749l-.042.005a.713.713 0 0 1-.759-.612l-.004-.041-1-13.818a.7.7 0 0 1 .028-.251c1.798-5.987 2.41-11.146 2.034-15.536-.297-3.464-1.19-6.281-2.49-8.514a12.6 12.6 0 0 0-1.75-2.37 8 8 0 0 0-.495-.477l-.122-.104-.086-.07-.037-.028a.7.7 0 0 1-.162-.984" clip-rule="evenodd"/><path fill="#fff" fill-rule="evenodd" d="M60.176 135.654c-1.857-5.71-8.021-6.18-8.021-6.18s-3.047-.705-6.57-.87c-1.19 1.528-4.236 4.794-6.474 11.281l1.19 1.598s3.809 1.551 5.546 2.232c2.214.87 4.523.94 6.546-.517.071-.047.166-.117.238-.164l1.309-6.933c-.857-1.222-.5-2.867 1.5-1.904 2.022.964.404 3.455 3.046 3.667 2.666.235 1.69-2.21 1.69-2.21" clip-rule="evenodd"/><path fill="#2e186a" fill-rule="evenodd" d="M45.62 127.9a.72.72 0 0 0-.6.275l-.218.274-.551.68c-.389.482-.712.897-1.048 1.35a32 32 0 0 0-2.537 4.019 36 36 0 0 0-2.23 5.159.7.7 0 0 0 .1.645l1.19 1.598a.7.7 0 0 0 .259.214l.115.049 1.853.752 2.456.989c.462.185.858.342 1.175.466l.12.046c2.552.97 4.966.845 7.014-.581l.07-.05.239-.165c.16-.105.27-.27.306-.457l1.309-6.933a.7.7 0 0 0-.115-.53c-.29-.413-.37-.863-.274-1.047.013-.025.02-.03.078-.037.162-.02.433.04.795.215.45.214.635.495.788 1.109l.062.268.016.072c.157.712.272 1.048.568 1.424.404.51 1.017.794 1.868.862 1.585.14 2.503-.555 2.623-1.728a3.1 3.1 0 0 0-.096-1.077l-.015-.058-.03-.106-.03-.092-.03-.086.006.02c-.74-2.276-2.163-3.953-4.055-5.104-1-.608-2.067-1.03-3.134-1.3a11 11 0 0 0-1.036-.212l-.177-.025-.098-.012-.089-.01-.136-.03-.416-.086-.094-.019a45 45 0 0 0-1.82-.316 41 41 0 0 0-4.182-.425m.298 1.428.365.023c1.099.075 2.21.202 3.3.368.57.086 1.1.178 1.58.27l.355.07.237.05.237.051q.035.009.072.013l.104.01q.073.009.195.026l.05.007q.407.061.9.185c.935.237 1.87.607 2.74 1.135 1.614.982 2.813 2.395 3.443 4.334l.026.072q.02.055.049.165c.053.207.077.415.06.589-.039.37-.237.53-1.014.471l-.067-.006c-.767-.061-.933-.21-1.122-1.001l-.106-.471c-.246-1.037-.647-1.686-1.572-2.127-1.226-.59-2.295-.456-2.766.444l-.03.061c-.291.621-.184 1.435.221 2.154l.012.02-1.205 6.38-.01.007c-1.639 1.181-3.581 1.297-5.748.475l-.113-.043c-.29-.114-.647-.256-1.062-.422l-1.333-.535-1.534-.619-1.424-.578-.85-1.141.09-.25a34 34 0 0 1 1.932-4.361 30 30 0 0 1 2.426-3.843c.25-.339.496-.656.77-1.001l.282-.353z" clip-rule="evenodd"/><path fill="#fff" fill-rule="evenodd" d="M162.975 110.532c-29.728 23.171-47.841 8.625-61.646 10.693s-15.923 8.836-28.396 13.677c-7.711 2.984-20.088 2.561-24.825 1.809v19.999h114.867z" clip-rule="evenodd" opacity=".5"/><path fill="#6a6af4" fill-rule="evenodd" d="M168.687 155.229a.71.71 0 0 1 .714.705.71.71 0 0 1-.672.704l-.042.001H48.109a.71.71 0 0 1-.715-.705c0-.375.298-.682.673-.703l.042-.002zM64.936 136.194a.71.71 0 0 1 .713.664v1.451a.71.71 0 0 1-.713.705.71.71 0 0 1-.713-.663l-.001-.042v-1.41a.71.71 0 0 1 .714-.705M64.222 141.553v3.242c0 .389.32.705.714.705a.71.71 0 0 0 .714-.705v-3.242a.71.71 0 0 0-.714-.705.71.71 0 0 0-.714.705m0 6.484v3.243c0 .389.32.705.714.705a.71.71 0 0 0 .714-.705v-3.243a.71.71 0 0 0-.714-.705.71.71 0 0 0-.714.705" clip-rule="evenodd"/><path fill="#6a6af4" fill-rule="evenodd" d="M64.936 153.819a.71.71 0 0 1 .713.664v1.451a.71.71 0 0 1-.713.705.71.71 0 0 1-.713-.663l-.001-.042v-1.41a.71.71 0 0 1 .714-.705M101.328 120.825a.71.71 0 0 1 .713.664l.001.041v1.41c0 .39-.319.705-.714.705a.71.71 0 0 1-.713-.663l-.001-.042v-1.41a.71.71 0 0 1 .714-.705M100.614 125.808v2.871c0 .389.32.705.714.705a.71.71 0 0 0 .714-.705v-2.871a.71.71 0 0 0-.714-.705.71.71 0 0 0-.714.705m0 5.743v2.871c0 .39.32.705.714.705a.71.71 0 0 0 .714-.705v-2.871a.71.71 0 0 0-.714-.705.71.71 0 0 0-.714.705m0 5.743v2.871c0 .39.32.705.714.705a.71.71 0 0 0 .714-.705v-2.871a.71.71 0 0 0-.714-.705.71.71 0 0 0-.714.705m0 5.743v2.872c0 .389.32.705.714.705a.71.71 0 0 0 .714-.705v-2.872a.71.71 0 0 0-.714-.705.71.71 0 0 0-.714.705m0 5.743v2.872c0 .389.32.705.714.705a.71.71 0 0 0 .714-.705v-2.872a.71.71 0 0 0-.714-.705.71.71 0 0 0-.714.705M101.328 153.819a.71.71 0 0 1 .713.664l.001.041v1.41c0 .39-.319.705-.714.705a.71.71 0 0 1-.713-.663l-.001-.042v-1.41a.71.71 0 0 1 .714-.705M136.935 122.329c.38 0 .691.294.713.664l.001.041v1.41a.71.71 0 0 1-.714.705.71.71 0 0 1-.713-.663l-.001-.042v-1.41a.71.71 0 0 1 .714-.705M136.221 127.17v2.735a.71.71 0 0 0 .714.705.71.71 0 0 0 .714-.705v-2.735a.71.71 0 0 0-.714-.705.71.71 0 0 0-.714.705m0 5.47v2.735a.71.71 0 0 0 .714.705.71.71 0 0 0 .714-.705v-2.735a.71.71 0 0 0-.714-.705.71.71 0 0 0-.714.705m0 5.47v2.735a.71.71 0 0 0 .714.705.71.71 0 0 0 .714-.705v-2.735a.71.71 0 0 0-.714-.705.71.71 0 0 0-.714.705m0 5.47v2.735a.71.71 0 0 0 .714.705.71.71 0 0 0 .714-.705v-2.735a.71.71 0 0 0-.714-.705.71.71 0 0 0-.714.705m0 5.47v2.735a.71.71 0 0 0 .714.705.71.71 0 0 0 .714-.705v-2.735a.71.71 0 0 0-.714-.705.71.71 0 0 0-.714.705M136.935 153.819c.38 0 .691.294.713.664l.001.041v1.41a.71.71 0 0 1-.714.705.71.71 0 0 1-.713-.663l-.001-.042v-1.41a.71.71 0 0 1 .714-.705" clip-rule="evenodd"/><path fill="#ff8d7e" fill-rule="evenodd" d="M162.385 109.772a.96.96 0 0 1 1.337.155.93.93 0 0 1-.157 1.32c-9.627 7.511-18.608 11.575-27.503 12.969-3.593.563-7.132.688-10.826.45l-.347-.023c-2.888-.204-5.473-.569-9.419-1.261l-3.152-.554c-2.553-.446-3.021-.507-4.437-.668-2.497-.286-4.544-.308-6.409-.029-5.985.897-9.59 2.468-14.632 5.867l-.88.601-1.534 1.057a96 96 0 0 1-2.174 1.459c-2.94 1.91-5.674 3.359-8.968 4.638-6.707 2.616-13.869 2.973-20.62 1.863a.94.94 0 0 1-.782-1.082.95.95 0 0 1 1.096-.773c6.436 1.059 13.26.719 19.607-1.757 3.068-1.191 5.626-2.533 8.364-4.293l.257-.166c.461-.3.921-.607 1.443-.961l2.75-1.89.366-.247c5.262-3.548 9.118-5.23 15.421-6.174 1.992-.299 4.129-.285 6.674-.008l.815.094c.952.112 1.587.205 3.292.499l4.269.748c3.643.633 6.087.971 8.789 1.161 3.681.26 7.184.149 10.738-.408 8.562-1.342 17.242-5.269 26.622-12.587" clip-rule="evenodd"/><path fill="#6a6af4" fill-rule="evenodd" d="M136.936 124.609c.88 0 1.594-.705 1.594-1.575 0-.869-.714-1.574-1.594-1.574s-1.595.705-1.595 1.574.714 1.575 1.595 1.575M101.328 122.964c.881 0 1.595-.704 1.595-1.574s-.714-1.575-1.595-1.575-1.595.705-1.595 1.575.714 1.574 1.595 1.574M64.936 138.474c.88 0 1.594-.705 1.594-1.574s-.714-1.575-1.594-1.575-1.595.705-1.595 1.575c0 .869.714 1.574 1.595 1.574" clip-rule="evenodd"/><path fill="#fff" fill-rule="evenodd" d="M49.013 137.346s5.57 5.405 7.688 4.23 3.213-2.162 3.213-3.525-2.214-2.256-3.309 0c0 0-3.808-2.091-4.189-3.478" clip-rule="evenodd"/><path fill="#2e186a" fill-rule="evenodd" d="M52.23 133.893a.716.716 0 0 1 .864.456l.012.04c.048.175.265.468.63.814.312.295.712.614 1.177.946.382.272.79.539 1.2.792l.246.149.03-.04c.618-.799 1.46-1.177 2.33-1.061l.067.009c1.039.169 1.842 1.027 1.842 2.053 0 1.618-1.092 2.761-3.578 4.14-1.044.579-2.437.174-4.167-.885a21 21 0 0 1-1.736-1.204 33 33 0 0 1-1.866-1.545l-.2-.18-.187-.17-.291-.272-.09-.086a.7.7 0 0 1-.01-.997.72.72 0 0 1 .976-.04l.034.032.19.179.164.152q.171.158.37.335c.566.504 1.17 1.008 1.784 1.477.561.43 1.103.808 1.614 1.121 1.31.801 2.295 1.087 2.716.854l.203-.114c1.923-1.091 2.646-1.88 2.646-2.797 0-.309-.273-.601-.645-.661-.457-.074-.938.208-1.306.966a.72.72 0 0 1-.99.311l-.193-.108-.186-.108q-.146-.085-.306-.182a24 24 0 0 1-1.496-.976 12 12 0 0 1-1.33-1.073c-.537-.509-.889-.982-1.02-1.462a.704.704 0 0 1 .502-.865" clip-rule="evenodd"/><path fill="#fff" fill-rule="evenodd" d="M45.871 139.108s5.022 4.912 7.307 4.301c0 0 1.952-.541 2.285-1.716" clip-rule="evenodd"/><path fill="#2e186a" fill-rule="evenodd" d="M45.363 138.612a.72.72 0 0 1 1.01-.005l.123.118.063.06a31 31 0 0 0 2.279 1.944c.562.431 1.105.811 1.616 1.123 1.145.701 2.053 1.006 2.53.878l.07-.021a5.3 5.3 0 0 0 .928-.408c.417-.242.689-.507.78-.756l.013-.042a.715.715 0 0 1 .88-.489c.38.105.601.494.495.869-.194.684-.716 1.211-1.444 1.634a6.2 6.2 0 0 1-1.342.572c-.986.264-2.201-.145-3.662-1.038a20 20 0 0 1-1.741-1.21 32 32 0 0 1-1.837-1.531l-.197-.178q-.096-.086-.184-.168l-.211-.198-.164-.157a.7.7 0 0 1-.005-.997" clip-rule="evenodd"/><path fill="#fff" fill-rule="evenodd" d="M39.468 140.354s5.212 6.792 7.164 7.309c1.952.493 1.404-1.951-2.38-6.815" clip-rule="evenodd"/><path fill="#2e186a" fill-rule="evenodd" d="M39.037 139.793a.72.72 0 0 1 .972.101l.269.344q.294.374.656.824a72 72 0 0 0 2.106 2.498q.463.522.897.983l.154.164c1.253 1.315 2.25 2.149 2.718 2.273q.102.025.175.034l.037.004a1.9 1.9 0 0 0-.089-.476l-.02-.067c-.353-1.116-1.458-2.924-3.226-5.198a.7.7 0 0 1 .131-.988.72.72 0 0 1 1.001.129l.205.265c1.744 2.272 2.853 4.109 3.252 5.372.514 1.626-.228 2.693-1.828 2.289-.863-.229-2.028-1.215-3.557-2.841a47 47 0 0 1-.924-1.014 73 73 0 0 1-2.149-2.548l-.205-.255-.194-.243-.52-.663a.7.7 0 0 1 .139-.987" clip-rule="evenodd"/></g><defs><clipPath id="a"><path fill="#fff" d="M0 0h287.25v158.625H0z"/></clipPath></defs></svg>