<svg width="196" height="223" viewBox="0 0 196 223" fill="none" xmlns="http://www.w3.org/2000/svg">
<g clip-path="url(#clip0_460_6043)">
<rect width="196" height="223" fill="#F6F6F6"/>
<path fill-rule="evenodd" clip-rule="evenodd" d="M155.166 40.6951C152.813 40.7267 150.523 40.9475 148.296 41.3576L155.605 83.0337L141.583 122.943C146.226 124.584 151.119 125.404 156.044 125.372C179.133 125.12 197.923 105.812 197.703 82.592C197.452 59.372 178.254 40.4427 155.166 40.6951Z" fill="#000091"/>
<path fill-rule="evenodd" clip-rule="evenodd" d="M104.724 84.5472C104.912 102.246 116.111 118.021 132.674 123.983L146.822 84.1055L104.724 84.5472Z" fill="#FF8D7E"/>
<path fill-rule="evenodd" clip-rule="evenodd" d="M137.254 33.6594C127.435 35.3946 118.558 40.6002 112.19 48.2981C105.822 56.0276 102.371 65.7446 102.496 75.7772L144.595 75.3355L137.254 33.6594Z" fill="#6A6AF4"/>
<path fill-rule="evenodd" clip-rule="evenodd" d="M179.822 41.7365C181.971 41.7365 183.712 39.985 183.712 37.8244C183.712 35.6638 181.971 33.9124 179.822 33.9124C177.674 33.9124 175.933 35.6638 175.933 37.8244C175.933 39.985 177.674 41.7365 179.822 41.7365Z" fill="#000091"/>
<path fill-rule="evenodd" clip-rule="evenodd" d="M107.327 118.589C109.476 118.589 111.217 116.837 111.217 114.677C111.217 112.516 109.476 110.765 107.327 110.765C105.179 110.765 103.438 112.516 103.438 114.677C103.438 116.837 105.179 118.589 107.327 118.589Z" fill="#FF8D7E"/>
<path fill-rule="evenodd" clip-rule="evenodd" d="M103.437 49.8119C105.585 49.8119 107.327 48.0604 107.327 45.8999C107.327 43.7393 105.585 41.9878 103.437 41.9878C101.288 41.9878 99.5469 43.7393 99.5469 45.8999C99.5469 48.0604 101.288 49.8119 103.437 49.8119Z" fill="#6A6AF4"/>
<path fill-rule="evenodd" clip-rule="evenodd" d="M220.697 34.448C221.217 34.448 221.638 34.8717 221.638 35.3945C221.638 35.8985 221.246 36.3105 220.752 36.3393L220.697 36.3409H187.163C186.643 36.3409 186.222 35.9172 186.222 35.3945C186.222 34.8904 186.613 34.4784 187.107 34.4496L187.163 34.448H220.697Z" fill="#000091"/>
<path fill-rule="evenodd" clip-rule="evenodd" d="M197.17 39.2751C197.689 39.2751 198.111 39.6989 198.111 40.2216C198.111 40.7257 197.719 41.1377 197.225 41.1665L197.17 41.1681H187.163C186.643 41.1681 186.222 40.7443 186.222 40.2216C186.222 39.7176 186.613 39.3055 187.107 39.2768L187.163 39.2751H197.17Z" fill="#000091"/>
<path fill-rule="evenodd" clip-rule="evenodd" d="M222.103 96.6195C225.472 88.9157 223.562 80.6177 217.837 78.0853C212.112 75.5529 204.739 79.7452 201.371 87.449C198.002 95.1528 199.912 103.451 205.637 105.983C211.362 108.516 218.734 104.323 222.103 96.6195Z" fill="#4747D0"/>
<path fill-rule="evenodd" clip-rule="evenodd" d="M187.445 81.1399C181.705 78.5214 180.889 81.5185 182.552 83.0328C184.653 84.8942 194.66 90.1629 194.66 90.1629C194.66 90.1629 186.567 89.5635 184.497 94.138C182.426 98.7126 184.591 99.0912 187.696 97.0721C190.771 95.053 200.276 97.6715 200.276 97.6715L203.13 100.511C203.13 100.511 212.949 104.076 215.898 93.0969C218.094 86.8187 214.11 82.3388 214.11 82.3388C212.98 80.9506 209.028 75.1141 195.476 71.6121C195.476 71.6121 189.108 70.6972 193.845 73.9783C195.068 74.8301 196.354 75.5242 197.578 76.1236" fill="white"/>
<path fill-rule="evenodd" clip-rule="evenodd" d="M193.78 70.5491C194.19 70.547 194.623 70.5708 195.053 70.6118L195.281 70.6351C195.42 70.6504 195.532 70.6646 195.609 70.6757C195.644 70.6806 195.677 70.6874 195.711 70.696C200.092 71.8283 203.756 73.2677 206.789 74.9534C209.124 76.2508 210.99 77.6382 212.501 79.0947C213.005 79.5805 213.448 80.0534 213.862 80.5357L214.016 80.7171C214.11 80.8289 214.249 81 214.386 81.1707L214.84 81.7407L214.905 81.8177C214.975 81.9028 215.06 82.0123 215.158 82.1453L215.259 82.2861C215.572 82.7283 215.884 83.2393 216.174 83.815C217.576 86.5977 217.997 89.7984 216.847 93.2336L216.797 93.3776L216.756 93.5295C215.59 97.7043 213.358 100.249 210.376 101.368L210.244 101.417C208.17 102.162 205.989 102.158 203.945 101.713C203.427 101.6 203.039 101.484 202.811 101.402C202.704 101.363 202.605 101.305 202.519 101.231L202.469 101.184L199.793 98.5226L199.478 98.4425L199.22 98.3788C198.576 98.2221 197.871 98.0652 197.13 97.9188C195.847 97.6654 194.594 97.4711 193.424 97.3593C190.951 97.1227 189.092 97.2868 188.208 97.8675C186.333 99.0862 184.741 99.5502 183.663 98.8848C182.373 98.0879 182.482 96.3053 183.64 93.7465C184.568 91.6974 186.507 90.4215 189.104 89.7442C189.716 89.5845 190.335 89.464 190.949 89.3768L191.152 89.3488L190.797 89.1547C189.987 88.7102 189.186 88.2653 188.412 87.8282L187.674 87.409L186.806 86.9096C184.389 85.5073 182.706 84.4308 181.92 83.7349C180.687 82.6114 180.422 80.8364 181.613 79.8165C182.796 78.803 184.95 78.9626 187.834 80.2785C188.308 80.4944 188.517 81.0553 188.303 81.5314C188.088 82.0074 187.53 82.2183 187.057 82.0024C184.767 80.9578 183.309 80.8497 182.833 81.2576C182.635 81.4274 182.705 81.8954 183.174 82.3231C183.852 82.9235 185.599 84.0318 188.069 85.4564L188.604 85.763L188.877 85.9191C189.935 86.5206 191.052 87.141 192.183 87.758L193.154 88.2855C193.601 88.5271 194.02 88.7519 194.403 88.9561L195.097 89.3249C195.986 89.7927 195.624 91.1328 194.647 91.11L194.377 91.0962C192.932 91.0374 191.204 91.1519 189.576 91.5765C187.476 92.1243 186.004 93.0925 185.354 94.5307C184.895 95.5431 184.659 96.3332 184.626 96.8691C184.607 97.181 184.64 97.2663 184.648 97.2717C184.877 97.4131 185.833 97.1396 187.088 96.341L187.182 96.2802C188.532 95.3933 190.726 95.1997 193.602 95.4748C194.84 95.5932 196.153 95.7967 197.493 96.0613C198.166 96.1943 198.81 96.3356 199.409 96.4779L199.663 96.539C199.851 96.5848 200.023 96.628 200.178 96.6679L200.525 96.7592C200.658 96.796 200.782 96.862 200.887 96.9521L200.938 96.9991L203.633 99.6798L203.667 99.6901C203.83 99.7387 204.015 99.7878 204.22 99.8348L204.344 99.8628C206.074 100.24 207.916 100.243 209.612 99.6341C212.069 98.7521 213.921 96.6787 214.942 93.0258L214.99 92.8507L215.01 92.7834C216.05 89.812 215.704 87.0715 214.495 84.6705C214.249 84.1829 213.987 83.7523 213.726 83.3846L213.623 83.2417C213.589 83.197 213.557 83.1551 213.527 83.1161L213.46 83.0324L213.382 82.9386C213.346 82.8928 212.842 82.2552 212.603 81.9687L212.578 81.9383C212.161 81.4414 211.715 80.9595 211.198 80.4612C209.804 79.1172 208.07 77.8277 205.879 76.6102C203.065 75.046 199.658 73.6955 195.575 72.6163L195.295 72.5431L195.222 72.5338C195.118 72.5211 195.002 72.5083 194.876 72.4963C194.503 72.4608 194.13 72.4402 193.79 72.442C193.686 72.4425 193.588 72.4452 193.496 72.4498L193.416 72.4544L193.472 72.5046C193.678 72.6866 193.947 72.8958 194.279 73.1298L194.381 73.2007C195.431 73.9321 196.585 74.5848 197.99 75.2733C198.458 75.5022 198.652 76.0688 198.424 76.5387C198.197 77.0086 197.633 77.204 197.166 76.975C195.682 76.2478 194.449 75.5504 193.311 74.7583L193.118 74.6227C191.48 73.4571 190.798 72.5373 191.289 71.5382C191.678 70.7495 192.502 70.5557 193.78 70.5491Z" fill="#2E186A"/>
<path fill-rule="evenodd" clip-rule="evenodd" d="M196.418 84.99C194.41 84.012 185.972 81.3619 183.995 78.9642C182.019 76.5665 184.56 75.1468 191.775 78.491" fill="white"/>
<path fill-rule="evenodd" clip-rule="evenodd" d="M184.269 75.6424C185.933 75.3373 188.668 76.0083 192.168 77.6306C192.64 77.8494 192.847 78.4116 192.629 78.8863C192.412 79.361 191.853 79.5685 191.38 79.3497C188.202 77.8766 185.796 77.2865 184.607 77.5047C184.468 77.53 184.37 77.5633 184.309 77.5955L184.29 77.6061L184.291 77.6122C184.296 77.6384 184.306 77.6756 184.323 77.7236L184.338 77.7617C184.405 77.9288 184.532 78.1325 184.719 78.3593C184.91 78.5909 185.212 78.8552 185.617 79.1403C186.622 79.8489 188.149 80.6178 190.174 81.4749L190.69 81.6904C191.971 82.2137 196.253 83.8577 196.827 84.1374C197.295 84.3653 197.491 84.9314 197.264 85.4018C197.046 85.8548 196.516 86.0539 196.059 85.8646L195.908 85.7961C195.11 85.446 191.244 83.9606 189.976 83.4415L189.854 83.3913C187.51 82.4175 185.749 81.5449 184.537 80.6905C184.005 80.3162 183.582 79.9458 183.27 79.5674C181.862 77.8586 182.182 76.0252 184.269 75.6424Z" fill="#2E186A"/>
<path fill-rule="evenodd" clip-rule="evenodd" d="M199.617 81.3934C199.398 81.1095 185.564 76.9766 186.505 74.989C187.258 73.38 189.265 72.9068 196.92 75.8093L203.037 78.5225" fill="white"/>
<path fill-rule="evenodd" clip-rule="evenodd" d="M185.654 74.585C186.816 72.1032 189.788 72.1359 196.817 74.7588L197.253 74.9226L197.3 74.9423L203.417 77.6555C203.893 77.8664 204.109 78.4251 203.899 78.9034C203.697 79.3646 203.173 79.5825 202.709 79.4084L202.658 79.3874L196.569 76.6866L196.049 76.4909C190.441 74.4042 188.229 74.2325 187.5 75.1595L187.483 75.1814L187.514 75.213C187.577 75.2739 187.658 75.3438 187.757 75.42L187.818 75.4664C188.335 75.8518 189.166 76.3071 190.263 76.8107C191.031 77.1637 191.916 77.5345 192.91 77.9243L193.649 78.2099C194.552 78.5545 195.418 78.8701 196.535 79.2647L199.231 80.2118L199.531 80.322C199.594 80.3458 199.651 80.3676 199.702 80.3877L199.796 80.4258C199.869 80.456 199.93 80.4832 199.984 80.5105C200.145 80.5915 200.237 80.6501 200.361 80.8113C200.68 81.2239 200.606 81.8186 200.196 82.1395C199.881 82.3863 199.458 82.3993 199.134 82.2044L199.112 82.1896L199.007 82.147C198.939 82.1201 198.852 82.0873 198.746 82.0485L197.467 81.5958L196.077 81.1092C194.75 80.6412 193.773 80.2848 192.704 79.8734L192.224 79.6869C191.2 79.2854 190.284 78.9016 189.481 78.5325C188.275 77.9786 187.341 77.4676 186.697 76.987C185.719 76.2581 185.228 75.4848 185.654 74.585Z" fill="#2E186A"/>
<path fill-rule="evenodd" clip-rule="evenodd" d="M172.984 146.763C178.976 144.397 177 142.251 174.647 142.567C171.698 142.945 160.656 146.668 160.656 146.668C160.656 146.668 166.491 141.683 164.013 137.898C161.534 134.112 159.778 135.311 159.433 138.434C159.088 141.557 150.147 145.974 150.147 145.974L146.446 146.921C146.446 146.921 138.729 153.199 146.163 160.991C150.147 165.881 155.731 164.84 155.731 164.84C157.425 164.588 163.793 164.115 175.682 157.111C175.682 157.111 180.639 153.42 174.772 154.776C173.267 155.123 171.792 155.596 170.506 156.07" fill="white"/>
<path fill-rule="evenodd" clip-rule="evenodd" d="M160.675 134.662C162.038 134.288 163.427 135.283 164.798 137.377C165.369 138.249 165.614 139.217 165.559 140.24C165.483 141.674 164.843 143.126 163.812 144.569L163.749 144.656L163.803 144.638C164.551 144.397 165.3 144.159 166.039 143.927L167.099 143.597L168.279 143.237C171.245 142.342 173.406 141.772 174.522 141.629C176.203 141.403 177.812 142.141 177.884 143.612C177.958 145.091 176.373 146.441 173.328 147.644C172.844 147.835 172.298 147.595 172.108 147.109C171.918 146.622 172.156 146.073 172.64 145.882C173.97 145.357 174.921 144.831 175.494 144.343C175.718 144.152 175.867 143.98 175.949 143.839C175.994 143.76 176.005 143.718 176.005 143.706C176.001 143.632 175.509 143.406 174.766 143.506L174.645 143.522C173.615 143.676 171.555 144.225 168.797 145.057L168.283 145.213C167.971 145.308 167.653 145.406 167.328 145.506C166.118 145.882 164.87 146.28 163.635 146.681L162.704 146.985L160.955 147.566C159.99 147.891 159.282 146.665 160.007 145.982L160.193 145.816L160.352 145.668C160.435 145.59 160.523 145.504 160.615 145.413C161.054 144.977 161.494 144.491 161.903 143.971C162.966 142.619 163.618 141.292 163.68 140.139C163.713 139.51 163.57 138.943 163.226 138.418C162.685 137.59 162.183 137.023 161.754 136.716C161.462 136.507 161.276 136.459 161.17 136.488C161.066 136.517 160.927 136.649 160.782 136.933C160.601 137.286 160.462 137.79 160.384 138.405L160.368 138.538C160.266 139.463 159.696 140.385 158.75 141.353C157.89 142.232 156.72 143.144 155.312 144.077C154.272 144.766 153.161 145.427 152.051 146.038L151.725 146.216C151.513 146.331 151.31 146.439 151.119 146.539L150.617 146.796C150.593 146.808 150.574 146.817 150.562 146.824C150.523 146.843 150.483 146.859 150.441 146.873L150.379 146.891L146.894 147.782L146.856 147.817C146.789 147.879 146.718 147.947 146.642 148.023L146.565 148.1C146.187 148.483 145.809 148.929 145.456 149.43C144.483 150.81 143.896 152.326 143.872 153.933C143.841 156.006 144.748 158.142 146.842 160.336L146.867 160.363L146.891 160.391C147.659 161.334 148.522 162.076 149.464 162.639C151.391 163.791 153.42 164.11 155.149 163.958L155.285 163.945C155.374 163.936 155.444 163.927 155.493 163.92L155.593 163.904C155.715 163.886 156.299 163.808 156.456 163.786C156.882 163.725 157.284 163.661 157.72 163.58C158.904 163.361 160.176 163.049 161.605 162.603C165.42 161.414 169.82 159.444 174.912 156.467L175.161 156.321L175.352 156.171L175.398 156.134C175.611 155.962 175.823 155.779 176.019 155.596L176.114 155.506L176.145 155.475L176.133 155.477C175.846 155.518 175.506 155.581 175.115 155.669L174.982 155.699C173.644 156.007 172.242 156.439 170.829 156.959C170.341 157.138 169.801 156.886 169.622 156.395C169.444 155.904 169.694 155.36 170.183 155.181C171.665 154.635 173.141 154.181 174.561 153.854L174.814 153.797C176.545 153.416 177.556 153.414 178.151 153.945C178.622 154.365 178.677 154.951 178.459 155.497C178.337 155.803 178.131 156.103 177.85 156.421C177.689 156.604 177.505 156.791 177.301 156.982C177.127 157.145 176.945 157.305 176.761 157.458L176.577 157.609C176.429 157.729 176.313 157.819 176.242 157.871C176.215 157.892 176.187 157.91 176.158 157.928C170.819 161.072 166.191 163.156 162.162 164.411C160.661 164.879 159.317 165.209 158.061 165.442C157.69 165.511 157.342 165.568 156.986 165.621L156.467 165.695L155.877 165.775L155.781 165.791C155.717 165.8 155.639 165.811 155.548 165.821L155.477 165.828C153.352 166.047 150.876 165.685 148.503 164.267C147.433 163.627 146.452 162.798 145.579 161.765L145.46 161.621L145.353 161.508C143.063 159.057 141.992 156.545 141.989 154.046L141.99 153.904C142.021 151.873 142.744 150.004 143.92 148.335C144.336 147.745 144.781 147.221 145.228 146.768L145.359 146.636C145.57 146.428 145.74 146.277 145.853 146.185C145.941 146.113 146.041 146.058 146.148 146.022L146.213 146.003L149.818 145.082L150.115 144.929L150.391 144.785C150.627 144.661 150.88 144.524 151.148 144.377C152.216 143.789 153.284 143.154 154.277 142.496C155.583 141.631 156.656 140.794 157.407 140.026C158.085 139.333 158.452 138.739 158.497 138.329C158.711 136.388 159.419 135.006 160.675 134.662Z" fill="#2E186A"/>
<path fill-rule="evenodd" clip-rule="evenodd" d="M163.793 150.58C165.957 149.792 173.769 145.69 177.062 145.659C180.356 145.627 179.886 148.056 172.326 150.991" fill="white"/>
<path fill-rule="evenodd" clip-rule="evenodd" d="M177.054 144.712C178.08 144.702 178.883 144.895 179.401 145.358C180.103 145.986 180.105 146.907 179.545 147.741C178.685 149.023 176.329 150.451 172.665 151.873C172.18 152.061 171.636 151.818 171.448 151.331C171.261 150.843 171.503 150.295 171.988 150.107L172.322 149.976C175.4 148.752 177.353 147.563 177.954 146.727L177.973 146.699L177.944 146.69L177.897 146.678C177.687 146.628 177.408 146.601 177.072 146.605C175.926 146.616 173.931 147.229 171.245 148.339C170.868 148.495 170.479 148.66 170.073 148.835L169.466 149.101C168.695 149.447 164.738 151.242 164.114 151.47C163.626 151.648 163.086 151.394 162.909 150.902C162.738 150.428 162.967 149.907 163.422 149.71L163.589 149.645C164.485 149.283 168.437 147.486 168.824 147.317L169.33 147.096C169.745 146.917 170.143 146.748 170.529 146.588L170.904 146.435C173.624 145.33 175.65 144.725 177.054 144.712Z" fill="#2E186A"/>
<path fill-rule="evenodd" clip-rule="evenodd" d="M164.703 154.619C165.111 154.619 177.69 147.773 178.757 149.445C179.604 150.802 178.694 152.379 171.197 155.818L164.86 158.374" fill="white"/>
<path fill-rule="evenodd" clip-rule="evenodd" d="M176.012 148.607L176.233 148.543C177.931 148.062 178.984 148.048 179.553 148.942C181 151.258 178.943 153.262 172.017 156.48L171.587 156.679L171.547 156.696L165.21 159.252C164.728 159.446 164.18 159.211 163.986 158.725C163.8 158.258 164.011 157.728 164.459 157.517L164.509 157.495L170.826 154.947L171.352 154.704C174.48 153.244 176.428 152.104 177.408 151.21L177.463 151.158L177.584 151.043C178.018 150.617 178.128 150.383 178.056 150.146L178.05 150.128L177.989 150.129L177.946 150.13C177.622 150.146 177.145 150.244 176.545 150.422L176.289 150.501C175.244 150.83 173.915 151.358 172.341 152.057L172.143 152.145C171.797 152.299 171.441 152.461 171.075 152.631L170.201 153.039C169.621 153.312 169.069 153.577 168.344 153.931L165.537 155.306C164.851 155.634 164.929 155.565 164.703 155.565C164.183 155.565 163.762 155.142 163.762 154.619C163.762 154.189 164.046 153.827 164.436 153.711L164.484 153.698L164.515 153.685C164.559 153.667 164.615 153.642 164.684 153.61L165.182 153.374L167.765 152.11C168.614 151.697 169.237 151.4 170.007 151.041L170.567 150.783C170.843 150.656 171.113 150.534 171.378 150.415L171.787 150.234C173.469 149.493 174.884 148.941 176.012 148.607Z" fill="#2E186A"/>
<path fill-rule="evenodd" clip-rule="evenodd" d="M30.5664 98.8395C35.4287 95.7477 51.7723 97.1989 64.5084 101.931L59.3638 111.838L33.3897 107.705L30.5664 98.8395Z" fill="#2E186A"/>
<path fill-rule="evenodd" clip-rule="evenodd" d="M34.0791 107.39V81.1096L57.0104 95.0227L56.4771 109.125L34.0791 107.39Z" fill="white"/>
<path fill-rule="evenodd" clip-rule="evenodd" d="M33.1387 81.11V107.39C33.1387 107.885 33.5172 108.296 34.0075 108.334L56.4055 110.069C56.938 110.11 57.3979 109.698 57.4182 109.161L57.9514 95.0591C57.9645 94.7148 57.7905 94.3906 57.4972 94.2127L34.5659 80.2996C33.9387 79.9191 33.1387 80.3733 33.1387 81.11ZM35.0213 82.7866L56.05 95.5453L55.575 108.106L35.0213 106.514V82.7866Z" fill="#2E186A"/>
<path fill-rule="evenodd" clip-rule="evenodd" d="M64.445 52.9678C55.0968 46.4687 46.6897 44.071 33.5144 61.0443L31.7264 72.2126C26.2053 70.5405 23.2879 73.2537 24.4799 78.1123C25.7661 83.3494 28.7776 85.684 33.7968 84.3274C33.5144 83.6649 33.7968 84.3274 33.7968 84.3274C36.2122 89.8169 40.7295 96.0951 49.1679 97.9565C62.3746 100.827 65.4488 92.6247 66.9232 89.3752C68.3976 86.1257 73.7932 59.4669 64.445 52.9678Z" fill="white"/>
<path fill-rule="evenodd" clip-rule="evenodd" d="M50.2812 47.2669C44.7891 48.0597 39.1812 52.2059 32.7727 60.4617L32.7329 60.517C32.6574 60.6302 32.607 60.7586 32.5853 60.8937L30.9616 71.0354L30.9282 71.0281C25.4812 69.853 22.2512 72.9787 23.5663 78.3388L23.6098 78.5122C24.992 83.9167 28.2419 86.3943 33.1 85.4597L33.2613 85.4273L33.3316 85.5772C36.5706 92.4295 41.6273 97.2619 48.9663 98.8808C57.1634 100.663 62.3846 98.5903 65.6206 93.8714C66.1062 93.1634 66.5297 92.4217 66.9364 91.5983L67.0682 91.3277C67.1337 91.1911 67.1992 91.0518 67.2668 90.9052L67.7794 89.7679C68.8547 87.398 70.3679 79.2391 70.6827 72.4339L70.7074 71.8476C71.0697 62.3222 69.3928 55.2568 64.9802 52.1891L64.584 51.9159C59.0692 48.1445 54.857 46.6063 50.2812 47.2669ZM63.9099 53.7458C67.6584 56.3519 69.1978 62.9992 68.8147 72.0699L68.8025 72.3455C68.5009 78.8649 67.0549 86.7105 66.096 88.9166L65.6922 89.8173L65.5607 90.1054C65.4542 90.3363 65.3541 90.5467 65.2508 90.7556C64.8813 91.5035 64.5014 92.169 64.0712 92.7963C61.2686 96.8832 56.8166 98.6503 49.3668 97.0308C42.3886 95.4916 37.6527 90.7512 34.6574 83.9438C34.4705 83.519 34.0046 83.2934 33.5579 83.4114L33.4079 83.451C29.1477 84.5486 26.5841 82.7323 25.3936 77.8848C24.3597 73.6707 26.7081 71.6807 31.455 73.1183L31.5096 73.1331C32.0373 73.2595 32.568 72.9089 32.6555 72.3625L34.4047 61.4353L34.6235 61.1566C40.6032 53.5656 45.7245 49.8366 50.5486 49.1402C54.6563 48.5472 58.5532 50.0217 63.9099 53.7458Z" fill="#2E186A"/>
<path fill-rule="evenodd" clip-rule="evenodd" d="M59.9476 72.4719C60.4456 72.4152 60.8968 72.7604 60.9808 73.2508L60.9886 73.3059L62.1179 83.3384C62.1801 83.8909 61.7586 84.3736 61.2137 84.3909L61.1588 84.3911L57.4572 84.2964C56.9376 84.2831 56.5271 83.8488 56.5403 83.3262C56.5531 82.8223 56.9552 82.4204 57.4497 82.4043L57.5051 82.4041L60.1259 82.4707L59.1183 73.5188C59.062 73.018 59.4052 72.5643 59.8928 72.4798L59.9476 72.4719Z" fill="#2E186A"/>
<path fill-rule="evenodd" clip-rule="evenodd" d="M65.1975 74.9259C65.8039 74.9259 66.2955 74.1491 66.2955 73.1908C66.2955 72.2324 65.8039 71.4556 65.1975 71.4556C64.5912 71.4556 64.0996 72.2324 64.0996 73.1908C64.0996 74.1491 64.5912 74.9259 65.1975 74.9259Z" fill="#2E186A"/>
<path fill-rule="evenodd" clip-rule="evenodd" d="M54.5315 74.7375C55.1379 74.7375 55.6295 73.9606 55.6295 73.0023C55.6295 72.044 55.1379 71.2671 54.5315 71.2671C53.9252 71.2671 53.4336 72.044 53.4336 73.0023C53.4336 73.9606 53.9252 74.7375 54.5315 74.7375Z" fill="#2E186A"/>
<path fill-rule="evenodd" clip-rule="evenodd" d="M49.0006 63.6874C50.2333 62.7871 51.7406 62.3396 53.4799 62.602C53.9939 62.6796 54.3481 63.1615 54.271 63.6784C54.1939 64.1954 53.7147 64.5516 53.2007 64.474C51.9846 64.2906 50.9623 64.594 50.1066 65.219C49.8654 65.3952 49.6576 65.5837 49.4853 65.77L49.3921 65.8744C49.3665 65.9042 49.3462 65.929 49.3315 65.9478L49.3093 65.9772C49.0094 66.4041 48.4221 66.5056 47.9977 66.2039C47.5732 65.9023 47.4723 65.3116 47.7722 64.8848C47.8385 64.7905 47.9499 64.6508 48.1071 64.4808C48.3587 64.2088 48.6562 63.939 49.0006 63.6874Z" fill="white"/>
<path fill-rule="evenodd" clip-rule="evenodd" d="M63.7267 62.3541C64.3999 62.2503 65.1154 62.249 65.814 62.4246C67.0083 62.725 67.9201 63.5041 68.323 64.8009C68.4781 65.2998 68.2016 65.8306 67.7055 65.9866C67.2271 66.1369 66.7192 65.8837 66.5446 65.4181L66.5265 65.3655C66.3314 64.7374 65.9476 64.4094 65.3575 64.261C64.9372 64.1554 64.4589 64.1563 64.0118 64.2252L63.9265 64.2392C63.8631 64.2504 63.8193 64.2599 63.7989 64.2651C63.2953 64.3943 62.7829 64.0884 62.6544 63.5819C62.526 63.0754 62.8301 62.5601 63.3337 62.4309L63.4184 62.4108C63.4987 62.3931 63.6025 62.3733 63.7267 62.3541Z" fill="#2E186A"/>
<path fill-rule="evenodd" clip-rule="evenodd" d="M52.5945 84.5614C53.0893 84.4808 53.5563 84.8039 53.6635 85.2898L53.6831 85.3924C53.6957 85.4519 53.7188 85.5447 53.7543 85.661C53.8349 85.9251 53.9457 86.1887 54.0878 86.4281C54.5312 87.1751 55.1412 87.5153 56.1256 87.34C56.6374 87.2489 57.1258 87.5922 57.2164 88.1069C57.307 88.6217 56.9656 89.1128 56.4538 89.2039C54.6362 89.5277 53.2898 88.7767 52.4717 87.3983C52.2456 87.0175 52.0771 86.6167 51.9549 86.2164L51.9098 86.0611C51.8622 85.8886 51.8321 85.7473 51.8159 85.6469C51.7329 85.1309 52.0815 84.6449 52.5945 84.5614Z" fill="#2E186A"/>
<path fill-rule="evenodd" clip-rule="evenodd" d="M15.7604 40.9484C9.83154 29.2753 0.263771 28.2657 -10.7156 30.4426C-21.695 32.6195 -27.8749 47.5421 -28.2513 48.8987C-32.7372 64.9886 -26.8083 82.2143 -13.6016 92.373C-12.1273 93.5088 -10.6843 94.6445 -9.27262 95.7487C-1.5243 101.869 -18.7149 107.075 -18.7149 107.075C14.2233 109.725 7.03963 76.5986 6.3495 73.633C16.8897 69.6578 21.2815 51.8327 15.7604 40.9484Z" fill="#2E186A"/>
<path fill-rule="evenodd" clip-rule="evenodd" d="M33.5145 64.1054C32.4793 66.8186 29.4365 68.1436 26.7387 67.1025L7.66588 59.6254C4.96808 58.5843 3.65056 55.5241 4.68576 52.8109C5.72096 50.0977 8.76382 48.7726 11.4616 49.8137L30.5344 57.2908C33.2322 58.3319 34.5497 61.3922 33.5145 64.1054Z" fill="#6A6AF4"/>
<path fill-rule="evenodd" clip-rule="evenodd" d="M73.6995 64.3886C73.574 56.249 71.6291 49.1505 66.7668 44.4497C66.108 43.661 65.1983 42.9038 64.0376 42.2728C60.0537 39.6858 54.6581 38.2977 47.4744 38.5501C47.3489 38.5501 47.1921 38.6132 47.0352 38.6763C45.9059 38.7709 44.7766 38.9602 43.6787 39.1811C43.114 39.2757 42.518 39.4019 41.8906 39.5912C39.8516 40.1275 37.9066 40.8847 36.1186 41.705C20.0259 48.6773 13.7206 61.2337 20.9043 78.554C24.6059 87.4824 29.4368 90.3533 34.0795 90.3849V84.9585C33.6717 84.1066 33.013 84.4221 33.013 84.4221C27.9938 85.7787 25.7666 83.3495 24.4804 78.1439C23.853 75.62 24.3549 73.664 25.7352 72.6229C25.7666 72.5913 25.7979 72.5598 25.8293 72.5282C25.892 72.4967 25.9548 72.4651 26.0175 72.402C26.0489 72.3705 26.0803 72.3705 26.143 72.3389C26.2057 72.3074 26.2685 72.2758 26.3312 72.2443C26.3626 72.2127 26.394 72.2127 26.4567 72.1812C26.5194 72.1496 26.5822 72.1181 26.6763 72.0865C26.7077 72.0865 26.739 72.055 26.7704 72.055C26.8645 72.0234 26.9272 71.9919 27.0213 71.9603C27.0527 71.9603 27.0841 71.9603 27.0841 71.9288C27.4919 71.8026 27.9624 71.7395 28.4644 71.7079H28.4957C28.6212 71.7079 28.7467 71.7079 28.8408 71.7079C28.8722 71.7079 28.9035 71.7079 28.9035 71.7079C29.029 71.7079 29.1545 71.7079 29.28 71.7395C29.3113 71.7395 29.3427 71.7395 29.3427 71.7395C29.4682 71.7395 29.5937 71.771 29.7191 71.771C29.7505 71.771 29.7505 71.771 29.7819 71.771C30.3779 71.8341 31.0053 71.9919 31.6954 72.1812C32.1346 72.3074 31.8209 72.4967 32.2601 72.686L33.4208 72.5913C33.8286 72.5913 34.2364 72.5598 34.6442 72.4967C44.808 71.2663 60.5556 63.9785 66.2021 54.5769C70.1547 59.4039 70.5939 68.9316 69.8724 76.9766C72.3192 73.3169 73.7622 69.0263 73.6995 64.3886Z" fill="#2E186A"/>
<path fill-rule="evenodd" clip-rule="evenodd" d="M49.8161 61.5722C51.0487 60.6719 52.556 60.2244 54.2954 60.4868C54.8094 60.5644 55.1636 61.0463 55.0865 61.5632C55.0094 62.0801 54.5302 62.4363 54.0162 62.3588C52.8001 62.1753 51.7778 62.4788 50.9221 63.1038C50.6809 63.28 50.473 63.4685 50.3007 63.6548L50.2075 63.7591C50.1819 63.789 50.1616 63.8138 50.1469 63.8326L50.1248 63.862C49.8248 64.2888 49.2376 64.3904 48.8131 64.0887C48.3886 63.787 48.2877 63.1964 48.5877 62.7695C48.6539 62.6753 48.7653 62.5356 48.9225 62.3656C49.1741 62.0936 49.4716 61.8238 49.8161 61.5722Z" fill="white"/>
<path fill-rule="evenodd" clip-rule="evenodd" d="M152.97 161.811C152.97 149.129 151.559 137.266 129.725 139.317C129.035 139.443 128.408 139.569 127.812 139.727L102.371 145.217L82.608 116.57C80.0984 112.09 75.5498 109.125 70.4679 108.683L63.9117 108.115L64.5077 101.9C64.5077 101.9 63.598 104.14 56.3829 105.497C46.6269 107.327 30.5656 98.8083 30.5656 98.8083C30.5656 98.8083 30.5656 108.115 30.5656 108.557C30.5656 108.683 18.4883 109.283 12.9359 112.784C7.38342 116.255 5.03069 123.069 1.10948 132.597C-2.81174 142.156 -15.14 176.04 -15.4224 178.28C-15.7047 180.551 -18.4339 193.865 -11.1875 201.752C-5.03899 208.441 7.72849 219.609 20.9665 215.097L85.2117 214.151C81.165 204.308 79.7847 191.499 79.5024 179.321C80.914 180.047 82.4198 180.741 84.051 181.34C142.65 195.537 147.418 179.321 147.418 179.321C150.806 175.188 152.97 168.878 152.97 161.811Z" fill="#FF8D7E"/>
<path fill-rule="evenodd" clip-rule="evenodd" d="M26.2803 135.627L26.3356 135.629C26.8355 135.665 27.2162 136.088 27.2095 136.585L27.2071 136.641L25.4818 160.902C25.435 161.56 24.7496 161.969 24.1526 161.696C19.4264 159.528 14.9482 160.083 10.9503 162.332C10.1752 162.768 9.48594 163.234 8.89255 163.699C8.72127 163.834 8.56903 163.959 8.43656 164.074L8.35945 164.141C8.27363 164.217 8.21875 164.268 8.19602 164.29C7.82299 164.654 7.22719 164.645 6.86527 164.27C6.50334 163.895 6.51235 163.296 6.88539 162.932L6.95551 162.865C7.12214 162.709 7.38394 162.482 7.73554 162.206C8.40124 161.685 9.16919 161.165 10.0316 160.679C14.1185 158.381 18.7125 157.654 23.5335 159.399L23.6971 159.459L25.3297 136.506C25.3655 136.003 25.7855 135.62 26.2803 135.627Z" fill="white"/>
<path fill-rule="evenodd" clip-rule="evenodd" d="M32.3032 171.668L32.3048 171.646C32.3243 171.403 32.3082 171.049 32.2238 170.6C32.0945 169.913 31.8301 169.161 31.3953 168.358C30.193 166.137 27.914 163.899 24.2734 161.77L24.0763 161.656C23.6252 161.396 23.4688 160.818 23.727 160.364C23.9757 159.928 24.518 159.766 24.9632 159.987L25.0128 160.014L25.2228 160.136C29.0755 162.388 31.5823 164.823 32.9737 167.317L33.0485 167.453C33.9875 169.188 34.2698 170.689 34.1809 171.798L34.1722 171.89C34.1692 171.917 34.1661 171.94 34.1632 171.959C34.0835 172.475 33.6025 172.829 33.0889 172.749C32.5753 172.669 32.2235 172.185 32.3032 171.668Z" fill="white"/>
<path fill-rule="evenodd" clip-rule="evenodd" d="M74.3164 127.091C74.6202 126.667 75.2084 126.571 75.6301 126.876L75.689 126.921C75.7549 126.971 75.8415 127.041 75.9467 127.131L76.0008 127.178C76.2669 127.41 76.5599 127.692 76.8729 128.026C77.7536 128.965 78.6292 130.138 79.4425 131.562C81.2926 134.799 82.554 138.848 82.9688 143.775C83.4779 149.824 82.6756 156.864 80.3234 164.967L80.2656 165.164L81.571 183.545C81.6067 184.047 81.2451 184.486 80.7544 184.55L80.6993 184.556C80.1994 184.592 79.7629 184.228 79.6991 183.735L79.6936 183.679L78.376 165.129C78.368 165.015 78.3803 164.901 78.4125 164.792C80.7826 156.754 81.5894 149.828 81.0933 143.935C80.7018 139.284 79.5237 135.503 77.8106 132.505C77.0723 131.213 76.2853 130.158 75.5035 129.324C75.2682 129.073 75.0495 128.86 74.8518 128.683L74.6921 128.543C74.6455 128.504 74.6075 128.473 74.5786 128.45L74.5296 128.412C74.1079 128.107 74.0125 127.515 74.3164 127.091Z" fill="white"/>
<path fill-rule="evenodd" clip-rule="evenodd" d="M49.5747 179.447C47.1279 171.78 39.0031 171.149 39.0031 171.149C39.0031 171.149 34.9878 170.203 30.3451 169.982C28.7766 172.033 24.7613 176.418 21.8125 185.126L23.381 187.271C23.381 187.271 28.4001 189.353 30.6901 190.268C33.6075 191.435 36.6504 191.53 39.3168 189.574C39.4109 189.511 39.5364 189.416 39.6305 189.353L41.3558 180.046C40.2265 178.406 40.6971 176.197 43.3321 177.491C45.9986 178.784 43.8654 182.128 47.3475 182.412C50.8609 182.728 49.5747 179.447 49.5747 179.447Z" fill="white"/>
<path fill-rule="evenodd" clip-rule="evenodd" d="M30.3902 169.036C30.0827 169.022 29.7875 169.159 29.5998 169.405L29.3125 169.773L28.5862 170.686C28.0746 171.333 27.6477 171.89 27.2057 172.499C26.0007 174.157 24.9015 175.904 23.8621 177.894C22.7607 180.003 21.7761 182.299 20.9223 184.82C20.8231 185.113 20.8726 185.436 21.055 185.686L22.6235 187.831C22.7127 187.953 22.8296 188.052 22.9641 188.119L23.1156 188.184L25.5586 189.194L28.7951 190.521C29.4046 190.77 29.9257 190.98 30.3434 191.147L30.5012 191.209C33.8648 192.511 37.0468 192.343 39.7459 190.429L39.8395 190.361L40.1532 190.14C40.3644 189.999 40.5098 189.777 40.5563 189.526L42.2817 180.219C42.3277 179.971 42.2732 179.715 42.1303 179.507C41.7493 178.954 41.6427 178.348 41.7691 178.102C41.7863 178.069 41.7962 178.062 41.8722 178.052C42.0861 178.025 42.4422 178.106 42.92 178.341C43.5126 178.628 43.7565 179.006 43.9584 179.829L44.04 180.189L44.0611 180.286C44.2681 181.242 44.419 181.693 44.8101 182.197C45.3419 182.883 46.1503 183.264 47.2721 183.355C49.3604 183.543 50.5703 182.609 50.7291 181.035C50.7778 180.552 50.7222 180.064 50.6026 179.589L50.5824 179.511L50.5422 179.369C50.5289 179.324 50.5159 179.283 50.5034 179.245L50.4628 179.131L50.4714 179.157C49.4962 176.101 47.6215 173.85 45.1276 172.305C43.8092 171.489 42.403 170.922 40.9973 170.559C40.5045 170.432 40.0455 170.339 39.631 170.275L39.3984 170.241C39.3519 170.235 39.3088 170.23 39.2692 170.225L39.1522 170.212L38.9727 170.172C38.8107 170.137 38.6275 170.098 38.4242 170.056L38.2999 170.031C37.5787 169.886 36.7731 169.742 35.9019 169.607C34.0817 169.325 32.2221 169.123 30.3902 169.036ZM30.7849 170.953L31.2652 170.984C32.714 171.085 34.1773 171.256 35.6161 171.478C36.3651 171.594 37.0634 171.718 37.6974 171.841L38.1649 171.935C38.2766 171.958 38.381 171.98 38.4779 172.001L38.7897 172.071C38.8209 172.078 38.8524 172.084 38.8842 172.088L39.022 172.102C39.0856 172.109 39.1718 172.12 39.2784 172.136L39.3449 172.146C39.7002 172.201 40.099 172.282 40.5299 172.393C41.7633 172.712 42.9964 173.208 44.1413 173.917C46.2695 175.235 47.8491 177.133 48.6799 179.736L48.7144 179.832C48.7309 179.881 48.7543 179.957 48.7786 180.054C48.8488 180.333 48.8806 180.612 48.8571 180.845C48.807 181.342 48.5458 181.556 47.5221 181.477L47.4325 181.47C46.4218 181.387 46.204 181.188 45.9549 180.125L45.8141 179.493C45.4909 178.101 44.962 177.23 43.7423 176.638C42.1274 175.845 40.718 176.026 40.0975 177.234L40.0574 177.316C39.6736 178.15 39.8155 179.242 40.3493 180.207L40.3649 180.234L38.7767 188.8L38.7635 188.809C36.6036 190.394 34.0434 190.55 31.1873 189.447L31.0393 189.389C30.6571 189.236 30.1862 189.046 29.6388 188.823L27.8818 188.104L25.8605 187.272L23.9843 186.496L22.8647 184.966L22.9832 184.63C23.7382 182.515 24.59 180.573 25.529 178.775C26.5232 176.871 27.5734 175.202 28.726 173.616C29.0565 173.161 29.379 172.734 29.7398 172.272L30.1127 171.798L30.7849 170.953Z" fill="#2E186A"/>
<path opacity="0.5" fill-rule="evenodd" clip-rule="evenodd" d="M185.061 145.721C145.88 176.829 122.008 157.3 103.814 160.076C85.6192 162.852 82.8273 171.939 66.3895 178.438C56.2257 182.444 39.9135 181.876 33.6709 180.867V207.715H185.061V145.721Z" fill="white"/>
<path fill-rule="evenodd" clip-rule="evenodd" d="M192.591 205.727C193.11 205.727 193.532 206.151 193.532 206.673C193.532 207.177 193.14 207.589 192.646 207.618L192.591 207.62H33.6716C33.1518 207.62 32.7305 207.196 32.7305 206.673C32.7305 206.169 33.1223 205.757 33.6163 205.728L33.6716 205.727H192.591Z" fill="#6A6AF4"/>
<path fill-rule="evenodd" clip-rule="evenodd" d="M55.8493 180.172C56.3505 180.172 56.7602 180.566 56.7888 181.063L56.7904 181.119V183.012C56.7904 183.534 56.369 183.958 55.8493 183.958C55.3481 183.958 54.9384 183.564 54.9098 183.067L54.9082 183.012V181.119C54.9082 180.596 55.3295 180.172 55.8493 180.172Z" fill="#6A6AF4"/>
<path fill-rule="evenodd" clip-rule="evenodd" d="M54.9082 187.365V191.718C54.9082 192.241 55.3295 192.665 55.8493 192.665C56.369 192.665 56.7904 192.241 56.7904 191.718V187.365C56.7904 186.843 56.369 186.419 55.8493 186.419C55.3295 186.419 54.9082 186.843 54.9082 187.365ZM54.9084 196.071V200.424C54.9084 200.946 55.3298 201.37 55.8495 201.37C56.3693 201.37 56.7906 200.946 56.7906 200.424V196.071C56.7906 195.548 56.3693 195.124 55.8495 195.124C55.3298 195.124 54.9084 195.548 54.9084 196.071Z" fill="#6A6AF4"/>
<path fill-rule="evenodd" clip-rule="evenodd" d="M55.8493 203.834C56.3505 203.834 56.7602 204.228 56.7888 204.725L56.7904 204.78V206.673C56.7904 207.196 56.369 207.62 55.8493 207.62C55.3481 207.62 54.9384 207.226 54.9098 206.729L54.9082 206.673V204.78C54.9082 204.258 55.3295 203.834 55.8493 203.834Z" fill="#6A6AF4"/>
<path fill-rule="evenodd" clip-rule="evenodd" d="M103.814 159.539C104.315 159.539 104.725 159.933 104.754 160.43L104.755 160.486V162.378C104.755 162.901 104.334 163.325 103.814 163.325C103.313 163.325 102.903 162.931 102.875 162.434L102.873 162.378V160.486C102.873 159.963 103.294 159.539 103.814 159.539Z" fill="#6A6AF4"/>
<path fill-rule="evenodd" clip-rule="evenodd" d="M102.873 166.228V170.083C102.873 170.606 103.294 171.029 103.814 171.029C104.334 171.029 104.755 170.606 104.755 170.083V166.228C104.755 165.705 104.334 165.281 103.814 165.281C103.294 165.281 102.873 165.705 102.873 166.228ZM102.873 173.938V177.793C102.873 178.316 103.294 178.74 103.814 178.74C104.334 178.74 104.755 178.316 104.755 177.793V173.938C104.755 173.416 104.334 172.992 103.814 172.992C103.294 172.992 102.873 173.416 102.873 173.938ZM102.873 181.648V185.503C102.873 186.026 103.294 186.45 103.814 186.45C104.334 186.45 104.755 186.026 104.755 185.503V181.648C104.755 181.125 104.334 180.702 103.814 180.702C103.294 180.702 102.873 181.125 102.873 181.648ZM102.873 189.359V193.214C102.873 193.737 103.294 194.16 103.814 194.16C104.334 194.16 104.755 193.737 104.755 193.214V189.359C104.755 188.836 104.334 188.412 103.814 188.412C103.294 188.412 102.873 188.836 102.873 189.359ZM102.873 197.068V200.924C102.873 201.446 103.294 201.87 103.814 201.87C104.334 201.87 104.755 201.446 104.755 200.924V197.068C104.755 196.546 104.334 196.122 103.814 196.122C103.294 196.122 102.873 196.546 102.873 197.068Z" fill="#6A6AF4"/>
<path fill-rule="evenodd" clip-rule="evenodd" d="M103.814 203.834C104.315 203.834 104.725 204.228 104.754 204.725L104.755 204.78V206.673C104.755 207.196 104.334 207.62 103.814 207.62C103.313 207.62 102.903 207.226 102.875 206.729L102.873 206.673V204.78C102.873 204.257 103.294 203.834 103.814 203.834Z" fill="#6A6AF4"/>
<path fill-rule="evenodd" clip-rule="evenodd" d="M150.742 161.557C151.243 161.557 151.653 161.951 151.681 162.448L151.683 162.504V164.397C151.683 164.919 151.262 165.343 150.742 165.343C150.241 165.343 149.831 164.949 149.802 164.452L149.801 164.397V162.504C149.801 161.981 150.222 161.557 150.742 161.557Z" fill="#6A6AF4"/>
<path fill-rule="evenodd" clip-rule="evenodd" d="M149.801 168.057V171.729C149.801 172.251 150.222 172.675 150.742 172.675C151.262 172.675 151.683 172.251 151.683 171.729V168.057C151.683 167.534 151.262 167.11 150.742 167.11C150.222 167.11 149.801 167.534 149.801 168.057ZM149.801 175.4V179.071C149.801 179.594 150.222 180.018 150.742 180.018C151.262 180.018 151.683 179.594 151.683 179.071V175.4C151.683 174.877 151.262 174.453 150.742 174.453C150.222 174.453 149.801 174.877 149.801 175.4ZM149.801 182.744V186.415C149.801 186.938 150.222 187.362 150.742 187.362C151.262 187.362 151.683 186.938 151.683 186.415V182.744C151.683 182.221 151.262 181.797 150.742 181.797C150.222 181.797 149.801 182.221 149.801 182.744ZM149.801 190.088V193.759C149.801 194.282 150.222 194.706 150.742 194.706C151.262 194.706 151.683 194.282 151.683 193.759V190.088C151.683 189.565 151.262 189.141 150.742 189.141C150.222 189.141 149.801 189.565 149.801 190.088ZM149.801 197.431V201.102C149.801 201.625 150.222 202.049 150.742 202.049C151.262 202.049 151.683 201.625 151.683 201.102V197.431C151.683 196.908 151.262 196.484 150.742 196.484C150.222 196.484 149.801 196.908 149.801 197.431Z" fill="#6A6AF4"/>
<path fill-rule="evenodd" clip-rule="evenodd" d="M150.742 203.833C151.243 203.833 151.653 204.228 151.681 204.724L151.683 204.78V206.673C151.683 207.196 151.262 207.619 150.742 207.619C150.241 207.619 149.831 207.225 149.802 206.729L149.801 206.673V204.78C149.801 204.257 150.222 203.833 150.742 203.833Z" fill="#6A6AF4"/>
<path fill-rule="evenodd" clip-rule="evenodd" d="M184.284 144.699C184.828 144.267 185.617 144.36 186.047 144.907C186.476 145.454 186.384 146.247 185.84 146.68C173.151 156.764 161.315 162.219 149.591 164.09C144.856 164.846 140.192 165.015 135.323 164.695L134.866 164.664C131.06 164.39 127.652 163.901 122.452 162.971L118.298 162.227C114.933 161.629 114.316 161.547 112.449 161.33C109.159 160.947 106.461 160.917 104.003 161.292C96.1146 162.496 91.3637 164.604 84.7186 169.168L83.5595 169.975L81.537 171.394C80.4291 172.17 79.555 172.769 78.6722 173.353C74.7978 175.917 71.1935 177.863 66.8514 179.579C58.0119 183.091 48.5731 183.571 39.6766 182.08C38.9931 181.965 38.5313 181.315 38.6452 180.627C38.7591 179.94 39.4056 179.476 40.0892 179.59C48.5717 181.012 57.5655 180.555 65.9312 177.231C69.9747 175.633 73.345 173.831 76.9537 171.468L77.2927 171.245C77.9011 170.842 78.5073 170.431 79.1952 169.955L82.82 167.418L83.3013 167.085C90.2364 162.322 95.3191 160.064 103.626 158.797C106.251 158.396 109.067 158.414 112.422 158.787L113.496 158.912C114.751 159.064 115.588 159.188 117.835 159.582L123.461 160.587C128.262 161.437 131.484 161.891 135.045 162.146C139.896 162.494 144.514 162.345 149.198 161.597C160.482 159.796 171.922 154.524 184.284 144.699Z" fill="#FF8D7E"/>
<path fill-rule="evenodd" clip-rule="evenodd" d="M150.743 164.619C151.904 164.619 152.845 163.672 152.845 162.505C152.845 161.337 151.904 160.391 150.743 160.391C149.583 160.391 148.642 161.337 148.642 162.505C148.642 163.672 149.583 164.619 150.743 164.619Z" fill="#6A6AF4"/>
<path fill-rule="evenodd" clip-rule="evenodd" d="M103.815 162.411C104.975 162.411 105.916 161.465 105.916 160.297C105.916 159.13 104.975 158.183 103.815 158.183C102.654 158.183 101.713 159.13 101.713 160.297C101.713 161.465 102.654 162.411 103.815 162.411Z" fill="#6A6AF4"/>
<path fill-rule="evenodd" clip-rule="evenodd" d="M55.8498 183.233C57.0106 183.233 57.9516 182.287 57.9516 181.12C57.9516 179.952 57.0106 179.006 55.8498 179.006C54.689 179.006 53.748 179.952 53.748 181.12C53.748 182.287 54.689 183.233 55.8498 183.233Z" fill="#6A6AF4"/>
<path fill-rule="evenodd" clip-rule="evenodd" d="M34.8633 181.719C34.8633 181.719 42.2038 188.975 44.9957 187.397C47.7876 185.82 49.2306 184.495 49.2306 182.665C49.2306 180.835 46.3132 179.636 44.8702 182.665C44.8702 182.665 39.8511 179.857 39.3492 177.996" fill="white"/>
<path fill-rule="evenodd" clip-rule="evenodd" d="M39.1025 177.082C39.5862 176.95 40.0842 177.223 40.2411 177.695L40.2571 177.748C40.3205 177.983 40.6074 178.376 41.0889 178.841C41.499 179.238 42.0257 179.666 42.6396 180.111C43.1427 180.476 43.6792 180.834 44.2207 181.174L44.5446 181.375L44.5853 181.321C45.3996 180.248 46.5084 179.741 47.6551 179.896L47.7433 179.909C49.1127 180.135 50.1714 181.288 50.1714 182.665C50.1714 184.837 48.7328 186.371 45.4563 188.222C44.0798 189 42.2437 188.456 39.9634 187.034C39.2298 186.577 38.4633 186.032 37.6752 185.419C36.8257 184.757 35.9951 184.05 35.2161 183.344L34.952 183.102C34.867 183.024 34.7849 182.948 34.706 182.874L34.3223 182.509L34.2033 182.394C33.8326 182.027 33.8275 181.428 34.1918 181.055C34.5416 180.697 35.1047 180.678 35.4771 181.001L35.5227 181.044C35.5652 181.086 35.65 181.168 35.7728 181.285L35.9891 181.489C36.1396 181.63 36.3025 181.78 36.4766 181.938C37.223 182.615 38.0184 183.292 38.8274 183.922C39.5673 184.498 40.282 185.006 40.9554 185.426C42.6802 186.501 43.979 186.886 44.5344 186.572L44.8022 186.419C47.3359 184.954 48.2892 183.896 48.2892 182.665C48.2892 182.25 47.9293 181.858 47.4391 181.777C46.837 181.678 46.2031 182.057 45.7186 183.074C45.4843 183.566 44.8863 183.757 44.4124 183.492L44.1589 183.347L43.9134 183.202C43.7857 183.126 43.6509 183.044 43.5102 182.958C42.8395 182.545 42.1684 182.103 41.5388 181.647C40.8588 181.154 40.2666 180.672 39.7849 180.206C39.0782 179.524 38.6143 178.888 38.4406 178.243C38.3045 177.739 38.6009 177.219 39.1025 177.082Z" fill="#2E186A"/>
<path fill-rule="evenodd" clip-rule="evenodd" d="M30.7227 184.085C30.7227 184.085 37.3417 190.679 40.3532 189.859C40.3532 189.859 42.9255 189.133 43.3647 187.556" fill="white"/>
<path fill-rule="evenodd" clip-rule="evenodd" d="M30.0547 183.419C30.4205 183.047 31.0163 183.044 31.3856 183.412L31.5477 183.571L31.631 183.651C31.834 183.845 32.0659 184.063 32.3226 184.297C33.0561 184.967 33.8384 185.637 34.6346 186.26C35.3753 186.84 36.0908 187.349 36.7643 187.769C38.274 188.708 39.4698 189.118 40.0997 188.947L40.1923 188.918C40.2686 188.894 40.3729 188.857 40.4978 188.809C40.8127 188.688 41.1271 188.541 41.4145 188.371C41.9638 188.046 42.3222 187.69 42.4414 187.355L42.4591 187.3C42.5992 186.796 43.1186 186.503 43.6191 186.644C44.1196 186.785 44.4117 187.307 44.2716 187.81C44.0162 188.727 43.3274 189.436 42.3681 190.003C41.9828 190.231 41.5765 190.421 41.1708 190.577C40.9256 190.671 40.7304 190.735 40.5998 190.772C39.3006 191.126 37.6983 190.576 35.7736 189.378C35.0379 188.92 34.269 188.372 33.4786 187.754C32.6415 187.098 31.8238 186.398 31.0573 185.699L30.7976 185.459C30.7139 185.382 30.6332 185.306 30.5556 185.233L30.2775 184.968L30.061 184.757C29.6918 184.389 29.6889 183.79 30.0547 183.419Z" fill="#2E186A"/>
<path fill-rule="evenodd" clip-rule="evenodd" d="M22.2832 185.756C22.2832 185.756 29.1532 194.874 31.7255 195.568C34.2978 196.231 33.5763 192.949 28.5885 186.419" fill="white"/>
<path fill-rule="evenodd" clip-rule="evenodd" d="M21.7165 185.003C22.1148 184.699 22.6759 184.763 22.9975 185.139L23.3524 185.601C23.6092 185.934 23.8994 186.306 24.2169 186.707C25.1235 187.851 26.0656 188.995 26.993 190.06C27.3987 190.527 27.7933 190.968 28.1743 191.381L28.3781 191.6C30.0291 193.366 31.3445 194.486 31.9607 194.652C32.0495 194.675 32.1265 194.69 32.1907 194.698L32.2391 194.703C32.2367 194.544 32.1992 194.328 32.1224 194.064L32.0954 193.974C31.6305 192.476 30.1748 190.048 27.8439 186.996C27.5273 186.582 27.6047 185.987 28.0169 185.669C28.4291 185.351 29.0199 185.429 29.3365 185.843L29.6056 186.198C31.9053 189.248 33.366 191.715 33.8921 193.41C34.5699 195.593 33.5914 197.026 31.4833 196.483C30.3456 196.176 28.81 194.852 26.7947 192.669C26.4007 192.242 25.994 191.787 25.5767 191.307C24.6283 190.217 23.6684 189.052 22.745 187.887L22.4749 187.544C22.3873 187.433 22.302 187.324 22.2192 187.218L21.5348 186.329C21.2209 185.912 21.3023 185.318 21.7165 185.003Z" fill="#2E186A"/>
</g>
<defs>
<clipPath id="clip0_460_6043">
<rect width="196" height="223" fill="white"/>
</clipPath>
</defs>
</svg>
