<svg xmlns="http://www.w3.org/2000/svg" width="284" height="159" fill="none" viewBox="0 0 284 159"><g clip-path="url(#a)"><path fill="#f6f6f6" d="M1 0h282v158.625H1z"/><path stroke="#ececfe" stroke-dasharray="4 10" stroke-linecap="round" stroke-linejoin="round" stroke-width="5" d="M-61.436 68.714c4.343 14.004 20.846 41.798 52.116 40.936 39.087-1.077 49.944-62.482 121.604-63.559s160.691 81.872 188.92 40.936"/><g clip-path="url(#b)"><path fill="#fff" d="m125.563 114.747 3.143 43.969 7.501-.805 1.105-42.403z"/><path fill="#2e186a" d="M128.705 159.219a.505.505 0 0 1-.505-.466l-3.142-43.969a.5.5 0 0 1 .537-.538l11.748.759a.506.506 0 0 1 .475.515l-1.105 42.405a.504.504 0 0 1-.452.487l-7.501.805zm-2.595-43.932 3.063 42.874 6.538-.702 1.081-41.482z"/><path fill="#6a6af0" d="m136.703 138.658-26.953 6.677 5.271 15.092 20.679-1.61z"/><path fill="#fff" d="m228.928 100.627 2.555-3.874 2.118-2.922c5.338-2.618 10.923-12.118 10.678-15.255.633-2.68-2.431-1.294-2.431-1.294 1.336-2.344-1.388-2.31-1.388-2.31.204-1.942-2.65-.76-2.65-.76s-1.456-4.184-3.68.054c-2.175 4.143-7.361 9.62-7.361 9.62s-.399-1.444.754-4.903c1.154-3.46-2.479-1.554-3.483.837-1.001 2.39-2.424 9.228-2.424 9.228l-4.035 5.003-10.211 12.343-4.939-4.236s-7.071 6.434-7.858 17.912c.025.008 5.496 6.828 9.553 6.447 10.745-1.006 24.806-25.892 24.806-25.892z"/><path fill="#2e186a" d="M203.79 127.038c-3.605 0-7.848-4.557-9.547-6.572l-.044-.052a.5.5 0 0 1-.134-.376c.79-11.547 7.726-17.98 8.022-18.248a.51.51 0 0 1 .673-.01l4.545 3.898 9.883-11.945 3.956-4.904c.2-.95 1.48-6.94 2.428-9.202.702-1.675 2.753-3.413 3.97-2.963.523.194 1.028.781.462 2.477-.533 1.598-.72 2.745-.774 3.496 1.544-1.719 4.853-5.556 6.453-8.603.798-1.521 1.621-2.23 2.513-2.165.972.07 1.6 1.08 1.898 1.707.639-.2 1.709-.417 2.368.07.205.15.43.414.497.86.49.072 1.206.28 1.563.88q.283.479.174 1.097c.562-.11 1.22-.118 1.683.26.462.376.6 1.006.411 1.871.171 3.431-5.52 12.901-10.848 15.61l-2.039 2.813-2.539 3.85c-.2.352-3.695 6.463-8.403 12.611-6.536 8.54-12.184 13.088-16.788 13.52a4 4 0 0 1-.381.018zm-8.699-7.133c2.562 3.018 6.126 6.127 8.703 6.127q.142 0 .282-.012c10.357-.97 24.271-25.391 24.411-25.637l.018-.03 2.554-3.873.012-.019 2.119-2.921a.5.5 0 0 1 .186-.157c5.306-2.604 10.613-11.992 10.397-14.767a.5.5 0 0 1 .012-.153c.111-.47.093-.823-.049-.937-.276-.226-1.151-.019-1.677.217a.51.51 0 0 1-.583-.119.5.5 0 0 1-.067-.587c.288-.508.373-.91.239-1.135-.195-.326-.888-.433-1.182-.425a.52.52 0 0 1-.381-.163.5.5 0 0 1-.13-.392q.037-.362-.101-.465c-.308-.228-1.273-.018-1.849.221a.5.5 0 0 1-.404-.006.5.5 0 0 1-.271-.296c-.167-.473-.681-1.465-1.213-1.503-.194-.014-.746.115-1.538 1.626-2.182 4.157-7.228 9.506-7.443 9.732a.506.506 0 0 1-.857-.214c-.045-.163-.406-1.692.76-5.195.284-.856.191-1.178.15-1.218-.014-.008-.115-.03-.328.038-.761.244-1.886 1.254-2.354 2.367-.971 2.318-2.382 9.07-2.396 9.138a.5.5 0 0 1-.102.213l-4.034 5.003-10.216 12.347a.51.51 0 0 1-.723.061l-4.582-3.931c-1.359 1.405-6.636 7.436-7.363 17.057z"/><path fill="#fff" d="M231.491 82.816s5.419-5.276 6.317-8.6Z"/><path fill="#2e186a" d="M231.492 83.32a.5.5 0 0 1-.363-.152.5.5 0 0 1 .006-.712c.052-.053 5.332-5.218 6.183-8.373a.51.51 0 0 1 .62-.357c.27.073.43.349.359.616-.922 3.42-6.228 8.61-6.453 8.83a.5.5 0 0 1-.355.143z"/><path fill="#fff" d="M233.607 84.486c.509-.704 5.028-4.598 6.413-9.556Z"/><path fill="#2e186a" d="M233.607 84.987a.502.502 0 0 1-.411-.797c.113-.159.34-.394.685-.75 1.362-1.413 4.553-4.721 5.65-8.65a.507.507 0 0 1 .977.27c-1.166 4.172-4.48 7.609-5.895 9.076-.28.29-.521.541-.594.64a.51.51 0 0 1-.412.21z"/><path fill="#fff" d="M235.759 86.251c1.076-1.449 4.346-3.121 6.203-8.808Z"/><path fill="#2e186a" d="M235.756 86.754a.502.502 0 0 1-.407-.803c.3-.404.738-.807 1.243-1.274 1.409-1.3 3.539-3.266 4.887-7.389a.51.51 0 0 1 .639-.324c.266.087.412.37.326.634-1.429 4.37-3.675 6.444-5.161 7.816-.468.433-.872.805-1.117 1.135a.51.51 0 0 1-.408.205zM194.565 124.392l-5.048-4.717 3.181 38.826-56.998.117 1.419-39.643-15.61-.402 4.91-22.995c1.861-4.739 4.596-9.607 9.573-10.822 11.594-2.834 30.022-5.262 43.835-5.679a11.96 11.96 0 0 1 9.721 4.484l14.724 17.199s-10.242 7.723-9.707 23.634z"/><path fill="#ff897e" d="M147.306 84.436c1.847-3.187 1.062-7.073-1.752-8.68s-6.594-.327-8.44 2.86c-1.847 3.187-1.063 7.073 1.752 8.68s6.593.327 8.44-2.86"/><path fill="#2e186a" d="M141.507 88.487a5.8 5.8 0 0 1-2.893-.759c-3.054-1.742-3.923-5.944-1.939-9.367s6.08-4.79 9.134-3.047c3.053 1.743 3.922 5.945 1.938 9.368-1.399 2.412-3.848 3.803-6.24 3.803zm1.402-12.923c-2.039 0-4.143 1.211-5.356 3.3-1.705 2.942-1.001 6.528 1.565 7.993 2.569 1.467 6.044.266 7.749-2.677s1.001-6.528-1.565-7.992a4.8 4.8 0 0 0-2.393-.626z"/><path fill="#ff897e" d="M147.123 84.522c1.352-2.33.778-5.174-1.28-6.35-2.059-1.174-4.823-.237-6.174 2.094s-.778 5.174 1.281 6.35c2.058 1.175 4.822.238 6.173-2.094"/><path fill="#2e186a" d="M142.885 87.626a4.4 4.4 0 0 1-2.187-.576c-1.123-.642-1.892-1.735-2.163-3.079-.266-1.318-.019-2.725.695-3.958.716-1.234 1.814-2.151 3.098-2.586 1.305-.443 2.645-.332 3.769.308 1.123.642 1.893 1.735 2.163 3.079.265 1.318.018 2.725-.696 3.958-.715 1.234-1.814 2.151-3.097 2.586a4.9 4.9 0 0 1-1.582.267m1.02-9.46c-.412 0-.833.07-1.251.213-1.05.356-1.954 1.115-2.546 2.137s-.799 2.18-.58 3.258c.213 1.054.809 1.91 1.675 2.405.867.495 1.909.575 2.935.229 1.05-.356 1.954-1.115 2.546-2.137s.799-2.18.58-3.258c-.213-1.054-.809-1.91-1.674-2.405a3.37 3.37 0 0 0-1.685-.44z"/><path fill="#fff" d="m167.082 80.655-4.719-11.965-14.372 9.09 1.296 8.934c5.376 14.945 18.833-3.431 17.795-6.061z"/><path fill="#2e186a" d="M155.235 93.009c-.339 0-.625-.03-.848-.069-2.402-.41-4.279-2.447-5.577-6.053a.4.4 0 0 1-.024-.097l-1.295-8.934a.5.5 0 0 1 .229-.495l14.371-9.09c.128-.08.286-.1.43-.054a.5.5 0 0 1 .314.296l4.72 11.965c.381.964-.62 3.626-3.268 6.85-3.99 4.857-7.276 5.686-9.052 5.686zm-5.454-6.414c1.164 3.21 2.772 5.01 4.777 5.353 2.536.435 5.879-1.533 8.942-5.262 2.437-2.966 3.307-5.347 3.11-5.846l-4.494-11.396-13.575 8.587z"/><path fill="#ff897e" d="M171.91 88.668c2.619-2.6 2.881-6.555.585-8.833-2.296-2.28-6.28-2.02-8.899.58s-2.881 6.554-.585 8.834 6.28 2.019 8.899-.581"/><path fill="#2e186a" d="M166.924 91.3c-1.593 0-3.126-.56-4.271-1.696-2.49-2.472-2.228-6.754.586-9.545 1.354-1.344 3.091-2.149 4.896-2.266 1.826-.118 3.505.48 4.719 1.687 2.49 2.47 2.228 6.753-.586 9.544-1.518 1.507-3.474 2.276-5.344 2.276m1.663-12.515q-.191 0-.387.013c-1.559.1-3.066.802-4.246 1.974-2.416 2.398-2.68 6.043-.585 8.121 2.094 2.079 5.765 1.82 8.182-.581 2.416-2.399 2.68-6.043.586-8.122-.921-.913-2.17-1.405-3.55-1.405"/><path fill="#ff897e" d="M172.009 88.566c1.916-1.902 2.108-4.794.429-6.461s-4.594-1.477-6.51.425-2.108 4.795-.429 6.462 4.594 1.476 6.51-.426"/><path fill="#2e186a" d="M168.358 90.63c-1.243 0-2.374-.449-3.216-1.284-1.875-1.861-1.682-5.08.428-7.174 1.014-1.006 2.317-1.608 3.67-1.696 1.378-.09 2.641.362 3.557 1.272 1.876 1.86 1.683 5.079-.427 7.173-1.014 1.006-2.318 1.608-3.67 1.697a5 5 0 0 1-.342.012m1.222-9.158q-.135 0-.274.008c-1.106.072-2.179.571-3.018 1.404-1.715 1.703-1.908 4.283-.428 5.752s4.077 1.278 5.794-.425c1.715-1.702 1.908-4.282.428-5.751-.647-.642-1.529-.988-2.502-.988"/><path fill="#ff897e" d="M145.555 75.753s10.724-11.615 22.077-8.395 9.529 12.275 2.636 19.116l-1.622-1.81s11.556-11.672-2.636-15.294c0 0-9.325-3.421-18.246 7.244z"/><path fill="#2e186a" d="M170.266 86.978h-.014a.5.5 0 0 1-.363-.17l-1.622-1.81a.5.5 0 0 1 .016-.687c.053-.054 5.32-5.445 4.111-9.753-.61-2.172-2.799-3.753-6.511-4.701l-.049-.016c-.022-.008-2.295-.813-5.589-.342-3.041.432-7.607 2.074-12.091 7.437a.51.51 0 0 1-.576.147l-2.21-.861a.5.5 0 0 1-.188-.807c.111-.12 2.775-2.984 6.889-5.494 5.488-3.348 10.917-4.4 15.699-3.044 4.578 1.297 7.44 3.674 8.276 6.872.999 3.831-1.026 8.723-5.419 13.084a.5.5 0 0 1-.359.147zm-.937-2.307.955 1.067c3.876-4.004 5.66-8.363 4.778-11.74-.352-1.35-1.125-2.545-2.294-3.548-1.29-1.104-3.064-1.982-5.278-2.61-9.528-2.702-18.773 5.514-21.039 7.722l1.158.45c4.636-5.41 9.372-7.079 12.551-7.52 3.375-.468 5.709.294 5.996.395 4.075 1.044 6.502 2.861 7.214 5.4.577 2.068.01 4.508-1.687 7.26a22 22 0 0 1-2.354 3.122zM139.246 47.559s12.928 6.364 7.771 14.094c0 0-2.323 3.25-4.555 2.88 0 0 1.334-2.691-.643-3.816 0 0 .215 7.649-6.21 6.737 0 0 1.955-3.594.927-7.56-2.143-8.277-.708-13.52 2.708-12.335z"/><path fill="#fff" d="M165.662 57.026s.839-15.056-14.53-16.112c-1.431-.099-11.231-.576-12.19 7.546-.641 5.425-.282 11.21.314 15.672.004.026.995 8.437 4.823 12.79 3.828 4.35 11.217 3.175 14.917.477s4.3-3.97 5.125-6.814 1.535-13.528 1.535-13.528z"/><path fill="#2e186a" d="M151.149 80.323c-2.758 0-5.505-.857-7.451-3.069-3.852-4.38-4.902-12.706-4.944-13.058-.432-3.232-1.046-9.586-.315-15.792.988-8.37 10.776-8.124 12.728-7.99 8.192.564 11.839 5.072 13.457 8.754 1.74 3.96 1.551 7.73 1.543 7.889a.4.4 0 0 1-.008.066c-.051.757-.734 10.788-1.551 13.603-.856 2.95-1.537 4.325-5.312 7.08-1.984 1.448-5.072 2.517-8.149 2.517zm-1.192-38.942c-3.017 0-9.754.728-10.51 7.14-.72 6.097-.114 12.357.312 15.546.043.349 1.054 8.376 4.704 12.525 3.58 4.07 10.704 2.978 14.235.403 3.554-2.594 4.118-3.725 4.937-6.549.801-2.76 1.508-13.315 1.516-13.422q.001-.027.006-.054c.015-.362.1-3.87-1.475-7.434-2.194-4.964-6.429-7.695-12.584-8.12a16 16 0 0 0-1.141-.035"/><path fill="#2e186a" d="M144.379 68.156a.52.52 0 0 1-.328-.118.5.5 0 0 1-.176-.435l.754-7.421a.507.507 0 0 1 1.009.1l-.681 6.695 1.912-.513a.504.504 0 1 1 .265.972l-2.621.704a.5.5 0 0 1-.132.018zM143.703 58.91c.013-.65-.319-1.182-.741-1.19s-.774.51-.787 1.16c-.013.648.318 1.18.741 1.19.422.007.774-.512.787-1.16M150.444 60.342c.416-.07.665-.646.555-1.286s-.535-1.102-.952-1.031c-.416.07-.664.645-.555 1.285.11.64.536 1.102.952 1.032M152.726 54.89a.5.5 0 0 1-.393-.186 3 3 0 0 0-2.899-.89.505.505 0 0 1-.604-.382.5.5 0 0 1 .385-.6c2.433-.537 3.846 1.166 3.906 1.238a.5.5 0 0 1-.077.709.5.5 0 0 1-.318.11M138.892 54.692a.5.5 0 0 1-.436-.757c1.186-2.014 4.2-1.042 4.328-1a.5.5 0 0 1 .32.636.506.506 0 0 1-.64.318c-.039-.012-2.364-.753-3.133.553a.51.51 0 0 1-.437.25z"/><path fill="#2e186a" d="M152.699 47.152s-3.71 20.429 9.808 21.151c0 0 7.891.592 9.387-2.304 0 0-5.916-2.402-5.529-5.656 0 0 7.011 6.248 12.01.766 0 0-9.327-.608-9.34-8.884-.008-5.934-14.771-10.041-16.334-5.073zM148.395 71.145q-.209 0-.431-.012a.504.504 0 0 1-.477-.532.51.51 0 0 1 .535-.472c3.244.185 4.015-2.029 4.045-2.124a.51.51 0 0 1 .636-.323.5.5 0 0 1 .329.627c-.01.03-.941 2.836-4.637 2.836"/><path fill="#2e186a" d="M152.729 47.536s-.202 4.025 7.501 3.824l5.069-1.61 3.614 1.622s4.988-15.12-13.345-17.72c-21.287-3.02-20.067 18.786-20.067 18.786l3.331-.32s.925-6.192 6.601-7.802"/><path fill="#2e186a" d="M156.733 43.08s-10.083 13.31-19.004 13.512c0 0-4.662-9.66 3.041-13.684 7.704-4.025 15.963.173 15.963.173"/><path fill="#9287b0" d="M42.434 119.671h59.542V48.589H97.08l.186 66.639-54.832.34z"/><path fill="#fff" d="M97.181 45.216H39.636v69.924H97.18z"/><path fill="#2e186a" d="M97.181 115.643H39.636a.506.506 0 0 1-.507-.503V45.216c0-.278.227-.503.507-.503H97.18c.28 0 .507.225.507.503v69.924a.505.505 0 0 1-.507.503m-57.038-1.006h56.531V45.719H40.143z"/><path fill="#2e186a" d="M85.048 59.504H62.342a.505.505 0 0 1-.507-.504c0-.277.227-.503.507-.503h22.706c.28 0 .507.226.507.503a.505.505 0 0 1-.507.504"/><path fill="#fff" d="M54.54 55.076h-4.063c-1.117 0-2.023.9-2.023 2.009v4.032c0 1.11.906 2.009 2.023 2.009h4.063c1.117 0 2.023-.9 2.023-2.009v-4.032c0-1.11-.906-2.009-2.023-2.009"/><path fill="#2e186a" d="M54.54 63.629h-4.065a2.524 2.524 0 0 1-2.53-2.512v-4.034a2.524 2.524 0 0 1 2.53-2.512h4.065a2.524 2.524 0 0 1 2.53 2.512v4.034a2.524 2.524 0 0 1-2.53 2.512m-4.063-8.05c-.835 0-1.516.675-1.516 1.506v4.034c0 .83.68 1.506 1.516 1.506h4.065c.835 0 1.517-.675 1.517-1.506v-4.034c0-.83-.68-1.505-1.517-1.505z"/><path fill="#6a6af0" d="M51.8 61.818h-.04a1.42 1.42 0 0 1-1.005-.455l-4.662-5.031a1.4 1.4 0 0 1 .083-1.99 1.427 1.427 0 0 1 2.005.082l3.675 3.965 6.455-6.235a1.426 1.426 0 0 1 2.007.029 1.4 1.4 0 0 1-.026 1.992l-7.501 7.244c-.266.256-.62.399-.99.399z"/><path fill="#2e186a" d="M85.048 73.388H62.342a.505.505 0 0 1-.507-.503c0-.278.227-.503.507-.503h22.706c.28 0 .507.225.507.503a.505.505 0 0 1-.507.503"/><path fill="#fff" d="M54.54 68.961h-4.063c-1.117 0-2.023.9-2.023 2.008v4.033c0 1.11.906 2.008 2.023 2.008h4.063c1.117 0 2.023-.899 2.023-2.008V70.97c0-1.11-.906-2.009-2.023-2.009"/><path fill="#2e186a" d="M54.54 77.514h-4.065a2.524 2.524 0 0 1-2.53-2.512v-4.035a2.524 2.524 0 0 1 2.53-2.51h4.065a2.524 2.524 0 0 1 2.53 2.51v4.035a2.524 2.524 0 0 1-2.53 2.511m-4.063-8.05c-.835 0-1.516.674-1.516 1.505v4.035c0 .83.68 1.505 1.516 1.505h4.065c.835 0 1.517-.674 1.517-1.505V70.97c0-.829-.68-1.505-1.517-1.505z"/><path fill="#6a6af0" d="M51.8 75.703h-.04a1.42 1.42 0 0 1-1.005-.455l-4.662-5.031a1.4 1.4 0 0 1 .083-1.99 1.427 1.427 0 0 1 2.005.082l3.675 3.965 6.455-6.234a1.426 1.426 0 0 1 2.007.028 1.4 1.4 0 0 1-.026 1.992l-7.501 7.244c-.266.256-.62.399-.99.399z"/><path fill="#2e186a" d="M85.048 87.273H62.342a.505.505 0 0 1-.507-.503c0-.277.227-.503.507-.503h22.706c.28 0 .507.226.507.503a.505.505 0 0 1-.507.503"/><path fill="#fff" d="M54.54 82.846h-4.063c-1.117 0-2.023.9-2.023 2.008v4.033c0 1.11.906 2.008 2.023 2.008h4.063c1.117 0 2.023-.899 2.023-2.008v-4.032c0-1.11-.906-2.009-2.023-2.009"/><path fill="#2e186a" d="M54.54 91.399h-4.065a2.524 2.524 0 0 1-2.53-2.512v-4.035a2.524 2.524 0 0 1 2.53-2.51h4.065a2.524 2.524 0 0 1 2.53 2.51v4.035a2.524 2.524 0 0 1-2.53 2.511m-4.063-8.05c-.835 0-1.516.674-1.516 1.505v4.035c0 .83.68 1.505 1.516 1.505h4.065c.835 0 1.517-.674 1.517-1.505v-4.035c0-.829-.68-1.505-1.517-1.505z"/><path fill="#6a6af0" d="M51.8 89.587h-.04a1.42 1.42 0 0 1-1.005-.454l-4.662-5.031a1.4 1.4 0 0 1 .083-1.99 1.427 1.427 0 0 1 2.005.082l3.675 3.964 6.455-6.234a1.425 1.425 0 0 1 2.007.028 1.4 1.4 0 0 1-.026 1.993l-7.501 7.244c-.266.256-.62.398-.99.398z"/><path fill="#2e186a" d="M85.048 101.158H62.342a.505.505 0 0 1-.507-.503c0-.278.227-.503.507-.503h22.706c.28 0 .507.225.507.503a.505.505 0 0 1-.507.503"/><path fill="#fff" d="M54.54 96.731h-4.063c-1.117 0-2.023.9-2.023 2.009v4.032c0 1.109.906 2.008 2.023 2.008h4.063a2.016 2.016 0 0 0 2.023-2.008V98.74c0-1.11-.906-2.009-2.023-2.009"/><path fill="#2e186a" d="M54.54 105.283h-4.065a2.523 2.523 0 0 1-2.53-2.511v-4.035a2.524 2.524 0 0 1 2.53-2.51h4.065a2.524 2.524 0 0 1 2.53 2.51v4.035a2.523 2.523 0 0 1-2.53 2.511m-4.063-8.049c-.835 0-1.516.674-1.516 1.505v4.035c0 .829.68 1.505 1.516 1.505h4.065c.835 0 1.517-.674 1.517-1.505v-4.035c0-.829-.68-1.505-1.517-1.505z"/><path fill="#6a6af0" d="M51.8 103.472h-.04a1.43 1.43 0 0 1-1.005-.454l-4.662-5.031a1.4 1.4 0 0 1 .083-1.99 1.427 1.427 0 0 1 2.005.082l3.675 3.964 6.455-6.234a1.426 1.426 0 0 1 2.007.028 1.4 1.4 0 0 1-.026 1.993l-7.501 7.244a1.43 1.43 0 0 1-.99.398zM103.843 67.7c15.017-.182 27.134-12.32 27.134-27.267 0-14.948-12.302-27.273-27.476-27.273-15.175 0-27.475 12.21-27.475 27.27v27.324H103.9l-.057-.056z"/><path fill="#fff" d="M94.765 55.336a1.445 1.445 0 0 1-1.721-1.24c-.073-.615-.142-.992-.136-1.286.008-.404.655-1.086 1.403-1.907q.59-.643.772-1.131t.05-1.133q-.16-.794-.761-1.15a1.83 1.83 0 0 0-1.326-.208q-1.436.286-1.622 1.895a1.49 1.49 0 0 1-1.401 1.3 1.477 1.477 0 0 1-1.543-1.734q.23-1.274.955-2.2 1.2-1.536 3.299-1.956 2.14-.428 3.837.505 1.697.934 2.078 2.811.472 2.33-1.62 4.377-.909.896-1.052 1.328-.047.146-.057.36a1.44 1.44 0 0 1-1.16 1.367zm1.044 4.157-.13.026a1.66 1.66 0 0 1-1.96-1.293 1.65 1.65 0 0 1 1.303-1.946l.13-.026a1.66 1.66 0 0 1 1.96 1.293 1.65 1.65 0 0 1-1.303 1.946M105.956 39.235a1.954 1.954 0 0 1-1.336-2.553c.292-.795.438-1.294.626-1.65.258-.49 1.468-.93 2.885-1.475q1.115-.426 1.638-.912t.76-1.35q.292-1.066-.223-1.864-.514-.795-1.488-1.058-1.928-.52-3.142 1.328c-.539.82-1.602 1.123-2.506.737a2.002 2.002 0 0 1-.815-3.051q1.065-1.413 2.518-2.105 2.41-1.145 5.227-.384 2.872.775 4.369 2.942 1.495 2.168.804 4.688-.856 3.128-4.669 4.357-1.659.542-2.1.98a1.8 1.8 0 0 0-.29.407 1.99 1.99 0 0 1-2.254.965zm-1.285 5.703-.175-.046a2.25 2.25 0 0 1-1.595-2.767 2.27 2.27 0 0 1 2.787-1.584l.175.047a2.25 2.25 0 0 1 1.595 2.767 2.27 2.27 0 0 1-2.787 1.583"/></g></g><defs><clipPath id="a"><path fill="#fff" d="M0 0h284v158.625H0z"/></clipPath><clipPath id="b"><path fill="#fff" d="M39.129 13.16H244.87v147.267H39.129z"/></clipPath></defs></svg>