<svg width="284" height="159" viewBox="0 0 284 159" fill="none" xmlns="http://www.w3.org/2000/svg">
<g clip-path="url(#clip0_460_1425)">
<rect x="1" width="282" height="158.625" fill="#F6F6F6"/>
<path d="M-61.4365 68.7138C-57.0934 82.7183 -40.5898 110.512 -9.32028 109.65C29.7667 108.573 40.6242 47.1685 112.284 46.0912C183.943 45.014 272.975 127.963 301.204 87.0273" stroke="#ECECFE" stroke-width="5" stroke-linecap="round" stroke-linejoin="round" stroke-dasharray="4 10"/>
<path d="M37.9766 55.5054C46.7076 55.5054 53.7119 62.5166 53.7119 71.0747C53.7119 79.6328 46.7076 86.644 37.9766 86.644C29.2455 86.644 22.2412 79.6328 22.2412 71.0747C22.2412 62.5166 29.2455 55.5054 37.9766 55.5054Z" stroke="#D3DFFC" stroke-width="11"/>
<ellipse cx="212.482" cy="89.3216" rx="24.2689" ry="24.0792" fill="#FDE2B5"/>
<ellipse cx="198.109" cy="24.2741" rx="16.9882" ry="16.8554" fill="#FDC6BA"/>
<path d="M139.384 91.8046L145.172 120.068L142.261 134.668L129.89 134.494C129.89 134.494 123.741 106.496 124.104 105.58C124.467 104.664 131.457 91.0916 131.457 91.0916L139.384 91.8046Z" fill="white"/>
<path d="M142.261 135.166H142.253L129.882 134.992C129.65 134.988 129.449 134.827 129.399 134.6C129.383 134.53 127.844 127.517 126.369 120.482C123.356 106.11 123.53 105.663 123.635 105.399C124.002 104.468 130.723 91.4203 131.01 90.8646C131.102 90.6834 131.299 90.5778 131.501 90.5957L139.428 91.3088C139.649 91.3287 139.829 91.49 139.874 91.7051L145.662 119.968C145.676 120.032 145.676 120.1 145.662 120.164L142.751 134.763C142.704 134.996 142.498 135.164 142.259 135.164L142.261 135.166ZM130.296 134.002L141.85 134.164L144.661 120.068L138.967 92.2668L131.75 91.6175C129.74 95.5194 125.015 104.729 124.59 105.717C124.53 107.104 127.926 123.193 130.296 134.002Z" fill="#2E186A"/>
<path d="M84.7958 45.9461C54.2043 44.1933 49.8386 62.4559 50.9782 76.3287C52.1458 90.538 55.8915 136.134 55.8915 136.134C55.7049 136.331 128.737 136.331 128.52 136.134C128.52 136.134 124.775 90.538 123.607 76.3287C122.468 62.4559 115.099 44.1933 84.7958 45.9461Z" fill="#6A6AF0"/>
<path d="M66.4646 135.122C66.2058 135.122 65.9871 134.925 65.9651 134.664C65.929 134.223 62.3558 90.4164 61.2022 76.3684C60.5903 68.9152 61.7018 62.6271 64.5045 57.6776C68.2161 51.1246 74.8228 47.1351 84.1419 45.8185C84.4167 45.7807 84.6695 45.9699 84.7096 46.2408C84.7478 46.5137 84.5572 46.7646 84.2843 46.8045C73.2338 48.366 60.4338 54.7477 62.2033 76.2887C63.3569 90.3367 66.9301 134.144 66.9662 134.584C66.9883 134.859 66.7836 135.098 66.5068 135.12C66.4927 135.12 66.4787 135.12 66.4666 135.12L66.4646 135.122Z" fill="#2E186A"/>
<path d="M136.977 136.53L131.574 110.848C131.574 110.848 134.668 107.012 134.429 101.604C134.413 101.248 134.383 100.885 134.337 100.517C134.367 100.443 140.863 98.3436 141.232 97.5708C140.986 93.169 137.374 81.4633 131.011 78.7425C128.968 77.8044 124.021 76.3982 123.026 76.0636C118.325 74.4741 108.432 71.9067 99.8311 73.5998C99.8311 73.5998 86.7021 75.729 83.7549 77.4578C82.1579 78.396 74.2131 83.5029 72.6963 97.6325C72.6722 97.8476 86.4312 102.644 86.4312 102.644L88.5579 136.383" fill="#2E186A"/>
<path d="M114.802 67.1104V74.1872L117.486 74.6911C117.949 75.3524 123.164 83.4948 111.674 84.4887C104.18 85.136 95.9185 80.772 91.4727 75.5994L98.8296 73.6056L101.045 59.6333L114.802 67.1124V67.1104Z" fill="white"/>
<path d="M110.163 85.0504C106.981 85.0504 103.574 84.2418 100.216 82.6762C96.6445 81.0131 93.4044 78.615 91.0892 75.9201C90.9768 75.7907 90.9407 75.6134 90.9909 75.4501C91.041 75.2867 91.1734 75.1613 91.338 75.1155L98.382 73.2053L100.545 59.5517C100.571 59.3924 100.673 59.253 100.82 59.1832C100.966 59.1115 101.139 59.1155 101.281 59.1932L115.038 66.6723C115.199 66.76 115.299 66.9273 115.299 67.1085V73.773L117.574 74.1992C117.702 74.2231 117.819 74.2968 117.893 74.4044C118.003 74.5617 120.571 78.2923 119.117 81.3696C118.146 83.4251 115.654 84.6401 111.712 84.9807C111.2 85.0245 110.682 85.0464 110.159 85.0464L110.163 85.0504ZM92.3832 75.8683C96.6626 80.4634 104.427 84.6142 111.629 83.9928C115.188 83.6841 117.403 82.6603 118.212 80.9494C119.269 78.7106 117.63 75.8524 117.181 75.1413L114.705 74.6773C114.468 74.6334 114.296 74.4283 114.296 74.1873V67.4053L101.427 60.4082L99.3249 73.6814C99.2948 73.8746 99.1524 74.0319 98.9618 74.0837L92.3832 75.8664V75.8683Z" fill="#2E186A"/>
<path d="M95.595 30.3748L98.7227 28.9321L96.1638 23.4644L93.0361 24.907L95.595 30.3748Z" fill="#FD7624"/>
<path d="M92.2331 26.0143C95.5871 26.0143 98.3061 23.3149 98.3061 19.9852C98.3061 16.6554 95.5871 13.9561 92.2331 13.9561C88.8791 13.9561 86.1602 16.6554 86.1602 19.9852C86.1602 23.3149 88.8791 26.0143 92.2331 26.0143Z" fill="#2E186A"/>
<path d="M97.3329 26.1974C102.473 24.3849 108.109 23.4627 113.359 25.319C129.361 31.7684 130.665 43.1813 124.831 48.5431C124.179 40.4525 122.62 37.4171 119.617 35.6444C117.095 40.5621 106.752 46.3342 97.7181 46.6689C97.7181 46.6689 97.7161 46.6728 97.7161 46.6708C97.7081 46.639 98.001 54.7375 98.7794 54.6499C98.9379 55.1239 100.679 59.3983 100.679 59.3983L99.7504 68.0585L80.2696 65.4692C79.0498 65.4732 78.0787 64.306 78.3395 63.1508C79.9666 55.9386 80.8353 32.2743 97.3329 26.1974Z" fill="#2E186A"/>
<path d="M100.669 56.9983L99.477 57.2712C99.477 57.2712 92.5012 58.2751 92.1862 51.8317C91.9475 46.9439 96.8207 47.1151 99.1881 47.4836" fill="white"/>
<path d="M98.47 57.827C97.2562 57.827 95.258 57.6079 93.7272 56.3551C92.4693 55.3253 91.7811 53.8116 91.6868 51.8537C91.6066 50.2184 92.058 48.9516 93.025 48.0872C94.6561 46.6312 97.3204 46.687 99.2685 46.9897C99.5414 47.0316 99.73 47.2865 99.6858 47.5594C99.6437 47.8303 99.3869 48.0175 99.112 47.9737C97.6936 47.7526 95.1035 47.5713 93.6951 48.8282C92.9628 49.4815 92.6238 50.4833 92.688 51.8059C92.7702 53.469 93.332 54.7397 94.3612 55.5823C96.2431 57.1259 99.1321 56.8112 99.3889 56.7793L100.557 56.5104C100.825 56.4487 101.096 56.616 101.158 56.8829C101.221 57.1518 101.052 57.4187 100.783 57.4804L99.5915 57.7533C99.5775 57.7573 99.5634 57.7593 99.5494 57.7613C99.5012 57.7672 99.0859 57.825 98.47 57.825V57.827Z" fill="#2E186A"/>
<path d="M124.833 48.5435C124.181 40.4529 122.669 37.7241 119.665 35.9495C117.184 40.7915 108.023 46.4242 97.9434 46.6672C97.7488 47.7886 97.8973 46.7887 97.8772 48.0176C97.9394 49.2904 98.0297 50.7324 98.1501 51.9454C98.9285 56.5305 100.68 59.3986 100.68 59.3986V59.4046C103.16 63.8722 107.226 67.2562 112.641 67.7422C122.089 68.5927 124.623 55.3772 124.837 52.4434C124.944 50.9894 124.837 48.5415 124.837 48.5415C124.837 48.5415 124.837 48.5415 124.833 48.5435Z" fill="white"/>
<path d="M113.5 68.2798C113.203 68.2798 112.9 68.2659 112.595 68.238C107.449 67.7759 103.061 64.7225 100.24 59.6455C100.234 59.6335 100.228 59.6216 100.222 59.6096C99.9776 59.1954 98.3946 56.385 97.6563 52.0309C97.6563 52.019 97.6523 52.009 97.6523 51.9971C97.548 50.9474 97.4557 49.6169 97.3775 48.0454C97.3775 48.0354 97.3775 48.0235 97.3775 48.0115C97.3855 47.5594 97.3674 47.4558 97.3654 47.4459C97.3253 47.2965 97.3373 47.2308 97.3935 46.9101L97.4497 46.5854C97.4898 46.3504 97.6924 46.1771 97.9312 46.1711C107.581 45.9361 116.728 40.5802 119.218 35.7243C119.28 35.6008 119.392 35.5092 119.525 35.4713C119.659 35.4335 119.802 35.4514 119.92 35.5211C123.337 37.5388 124.705 40.8013 125.327 48.4398C125.333 48.4657 125.335 48.4916 125.337 48.5194C125.341 48.621 125.445 51.0131 125.337 52.4811C125.162 54.8493 123.68 62.438 119.29 66.1367C117.599 67.5608 115.655 68.2798 113.5 68.2818V68.2798ZM101.143 59.2093C103.8 63.9637 107.896 66.8179 112.685 67.2481C114.926 67.4493 116.929 66.8199 118.64 65.3778C122.767 61.9002 124.169 54.6681 124.336 52.4094C124.43 51.1267 124.352 49.0134 124.336 48.627C124.334 48.6131 124.332 48.5991 124.33 48.5852C123.704 40.8372 122.261 38.2518 119.846 36.6544C118.419 39.0705 115.554 41.5323 111.887 43.4743C107.728 45.6752 102.943 46.9758 98.3645 47.1551C98.3565 47.1989 98.3505 47.2328 98.3465 47.2587C98.3686 47.3722 98.3826 47.5554 98.3766 48.0135C98.4528 49.5532 98.5431 50.8558 98.6454 51.8836C99.3978 56.2993 101.091 59.1157 101.107 59.1456C101.119 59.1675 101.131 59.1894 101.141 59.2113L101.143 59.2093Z" fill="#2E186A"/>
<path d="M119.537 56.351H116.808C116.531 56.351 116.307 56.1259 116.307 55.851C116.307 55.5762 116.531 55.3531 116.808 55.3531H118.941L117.179 45.2568C117.131 44.9859 117.316 44.729 117.589 44.6812C117.864 44.6353 118.12 44.8166 118.168 45.0875L120.032 55.7694C120.058 55.9148 120.016 56.0622 119.922 56.1757C119.828 56.2872 119.687 56.353 119.539 56.353L119.537 56.351Z" fill="#2E186A"/>
<path d="M112.478 48.8519C110.811 48.8519 109.695 48.4755 109.639 48.4556C109.378 48.3659 109.24 48.0811 109.33 47.8222C109.421 47.5632 109.706 47.4258 109.968 47.5154C109.994 47.5234 111.541 48.0353 113.656 47.7883C113.931 47.7545 114.179 47.9516 114.214 48.2245C114.246 48.4974 114.049 48.7444 113.774 48.7782C113.317 48.832 112.881 48.8539 112.48 48.8539L112.478 48.8519Z" fill="#2E186A"/>
<path d="M124.594 45.92C124.439 45.92 124.285 45.8483 124.189 45.7148C123.165 44.3166 121.247 45.4479 121.167 45.4957C120.93 45.6372 120.621 45.5635 120.479 45.3284C120.335 45.0934 120.409 44.7887 120.646 44.6453C121.605 44.0617 123.747 43.4123 125.003 45.1273C125.166 45.3503 125.115 45.6611 124.893 45.8224C124.805 45.8861 124.7 45.918 124.598 45.918L124.594 45.92Z" fill="#2E186A"/>
<path d="M112.89 50.6499C112.917 49.8826 112.534 49.2466 112.034 49.2295C111.535 49.2123 111.108 49.8205 111.082 50.5879C111.055 51.3552 111.438 51.9912 111.937 52.0083C112.437 52.0255 112.863 51.4173 112.89 50.6499Z" fill="#2E186A"/>
<path d="M122.503 50.9241C122.53 50.1568 122.147 49.5208 121.648 49.5036C121.148 49.4865 120.722 50.0947 120.695 50.862C120.668 51.6294 121.051 52.2654 121.551 52.2825C122.05 52.2996 122.477 51.6915 122.503 50.9241Z" fill="#2E186A"/>
<path d="M110.496 56.0641C110.446 56.0641 110.394 56.0641 110.343 56.0621C106.903 55.9585 104.212 52.2797 104.349 47.862C104.413 45.7467 105.109 43.7729 106.305 42.3029C107.533 40.7932 109.144 39.9905 110.837 40.0403C114.278 40.1438 116.968 43.8227 116.834 48.2404C116.77 50.3557 116.073 52.3295 114.878 53.7995C113.686 55.2634 112.135 56.0641 110.498 56.0641H110.496ZM105.35 47.8938C105.231 51.7619 107.485 54.9806 110.374 55.0682C111.746 55.11 113.068 54.4368 114.095 53.176C115.154 51.8734 115.77 50.1107 115.829 48.2125C115.947 44.3445 113.694 41.1258 110.805 41.0381C109.429 40.9923 108.11 41.6695 107.083 42.9303C106.024 44.233 105.408 45.9957 105.35 47.8938Z" fill="#FD7624"/>
<path d="M125.733 57.0639C125.683 57.0639 125.631 57.0639 125.581 57.0619C122.14 56.9584 119.45 53.2796 119.584 48.8618C119.648 46.7465 120.344 44.7727 121.54 43.3028C122.768 41.793 124.381 40.9923 126.072 41.0401C129.513 41.1437 132.203 44.8225 132.067 49.2402C132.003 51.3555 131.307 53.3294 130.111 54.7993C128.919 56.2632 127.368 57.0639 125.731 57.0639H125.733ZM120.587 48.8937C120.469 52.7617 122.722 55.9804 125.611 56.0681C126.983 56.1079 128.305 55.4367 129.332 54.1759C130.392 52.8732 131.008 51.1105 131.066 49.2124C131.184 45.3443 128.931 42.1256 126.042 42.038C124.666 41.9922 123.348 42.6694 122.32 43.9302C121.261 45.2328 120.645 46.9955 120.587 48.8937Z" fill="#FD7624"/>
<path d="M116.302 48.2803C116.025 48.2803 115.801 48.0592 115.801 47.7843C115.801 47.5094 116.023 47.2864 116.3 47.2844L119.906 47.2744C120.182 47.2744 120.407 47.4955 120.407 47.7704C120.407 48.0452 120.184 48.2683 119.908 48.2703L116.302 48.2803Z" fill="#FD7624"/>
<path d="M97.1822 47.88C96.9294 47.88 96.7107 47.6908 96.6846 47.4358C96.6545 47.1629 96.8552 46.9179 97.13 46.8881L104.858 46.0655C105.133 46.0356 105.38 46.2348 105.41 46.5076C105.44 46.7805 105.239 47.0255 104.964 47.0554L97.2364 47.878C97.2183 47.878 97.2002 47.88 97.1822 47.88Z" fill="#FD7624"/>
<path d="M121.835 116.174C121.835 116.174 127.91 116.276 131.916 118.53C134.306 119.877 137.404 121.725 137.564 122.54C137.863 124.063 134.093 122.548 133.495 122.359" fill="white"/>
<path d="M136.795 123.711C136.019 123.711 134.94 123.398 133.632 122.934C133.505 122.888 133.405 122.852 133.341 122.832C133.078 122.749 132.931 122.468 133.016 122.207C133.1 121.944 133.383 121.801 133.646 121.884C133.716 121.906 133.826 121.946 133.967 121.996C136.292 122.823 136.916 122.755 137.076 122.685C137.076 122.673 137.074 122.657 137.068 122.635C137.012 122.46 136.452 121.659 131.665 118.964C127.819 116.799 121.883 116.674 121.825 116.672C121.548 116.668 121.327 116.441 121.331 116.166C121.335 115.893 121.56 115.676 121.833 115.676H121.841C122.093 115.68 128.09 115.805 132.161 118.098C137.141 120.9 137.935 121.845 138.053 122.444C138.16 122.988 137.913 123.293 137.758 123.426C137.528 123.623 137.203 123.709 136.793 123.709L136.795 123.711Z" fill="#2E186A"/>
<path d="M136.907 125.362C136.752 124.677 130.866 118.734 128.719 117.7C127.329 117.031 124.157 115.676 121.298 115.668C121.26 115.664 121.224 115.658 121.188 115.654L121.194 115.658C110.745 114.68 90.3231 111.987 90.3231 111.987L91.8278 98.7242C91.8278 98.7242 73.5427 93.2508 73.5507 93.2767C72.1443 103.506 72.4352 114.88 73.663 118.977C74.4054 121.454 77.1499 123.627 79.7119 124.093C101.021 127.967 123.994 125.448 123.994 125.448C124.097 125.462 128.906 126.886 128.906 126.886C131.865 128.202 131.743 126.81 130.832 125.735C130.974 125.87 131.107 126.01 131.219 126.153C132.244 127.083 133.851 126.721 134.102 126.37C134.351 126.021 133.223 125.01 131.73 123.398L131.909 123.53C134.377 126.356 137.322 127.189 136.909 125.362H136.907Z" fill="white"/>
<path d="M130.757 127.924C130.123 127.924 129.353 127.631 128.729 127.354C126.995 126.84 124.435 126.085 123.954 125.954C122.329 126.121 100.073 128.304 79.6193 124.585C76.7724 124.067 73.9455 121.667 73.1811 119.12C71.9593 115.047 71.6162 103.664 73.0527 93.2109C73.0668 93.1013 73.1189 92.9998 73.1972 92.9241C73.3403 92.7846 73.769 92.8198 74.4832 93.0296C74.9848 93.177 75.699 93.3901 76.5577 93.6451C78.273 94.155 80.5562 94.8362 82.8393 95.5194C87.4056 96.8837 91.9719 98.2501 91.9719 98.2501C92.2046 98.3198 92.353 98.5429 92.325 98.7819L90.8744 111.559C94.0343 111.973 111.736 114.272 121.175 115.158C121.197 115.158 121.221 115.158 121.243 115.162L121.33 115.172C124.217 115.188 127.334 116.481 128.937 117.252C131.016 118.251 137.173 124.261 137.396 125.253C137.61 126.205 137.095 126.577 136.862 126.693C136.334 126.958 135.532 126.816 134.633 126.368C134.617 126.468 134.575 126.565 134.507 126.659C134.2 127.087 133.435 127.199 133.209 127.222C132.747 127.272 132.296 127.224 131.887 127.095C131.862 127.252 131.804 127.396 131.71 127.519C131.487 127.812 131.148 127.924 130.757 127.924ZM123.992 124.952C124.014 124.952 124.036 124.952 124.058 124.956C124.108 124.962 124.201 124.976 129.046 126.41C129.066 126.416 129.088 126.424 129.108 126.432C130.35 126.985 130.789 126.938 130.899 126.91C130.897 126.796 130.803 126.476 130.446 126.053C130.276 125.85 130.292 125.551 130.486 125.37C130.681 125.189 130.982 125.189 131.176 125.37C131.335 125.519 131.467 125.663 131.584 125.808C132.228 126.366 133.157 126.28 133.554 126.135C133.341 125.82 132.781 125.235 132.278 124.707C131.995 124.412 131.686 124.085 131.359 123.733C131.184 123.544 131.182 123.253 131.355 123.064C131.527 122.872 131.818 122.845 132.027 122.996L132.206 123.127C132.236 123.149 132.262 123.173 132.286 123.201C134.12 125.3 135.973 126.021 136.411 125.802C136.451 125.782 136.455 125.651 136.423 125.494C136.056 124.747 130.576 119.146 128.5 118.146C127.266 117.552 124.094 116.172 121.295 116.164C121.275 116.164 121.255 116.164 121.237 116.16L121.187 116.154C121.173 116.154 121.159 116.154 121.145 116.152C110.807 115.184 90.4591 112.505 90.2545 112.477C89.9836 112.441 89.791 112.196 89.8211 111.928L91.2797 99.0787C85.7584 97.4255 76.3209 94.6031 73.9676 93.914C72.6374 104.078 72.9705 114.933 74.1401 118.833C74.7942 121.014 77.3321 123.155 79.7978 123.603C100.785 127.42 123.705 124.976 123.936 124.952C123.954 124.95 123.972 124.948 123.99 124.948L123.992 124.952Z" fill="#2E186A"/>
<path d="M131.217 126.153C129.895 124.456 126.129 123.329 126.129 123.329C126.55 123.37 129.138 124.235 130.396 125.298" fill="white"/>
<path d="M131.216 126.651C131.066 126.651 130.917 126.585 130.819 126.458C129.611 124.908 126.018 123.816 125.982 123.806C125.735 123.733 125.584 123.484 125.635 123.233C125.685 122.982 125.92 122.811 126.176 122.834C126.662 122.882 129.348 123.761 130.721 124.92C130.779 124.968 130.821 125.027 130.851 125.091C131.144 125.328 131.405 125.581 131.613 125.85C131.782 126.067 131.742 126.38 131.523 126.549C131.431 126.619 131.324 126.653 131.216 126.653V126.651Z" fill="#2E186A"/>
<path d="M127.728 121.159C127.728 121.159 130.183 121.727 131.692 123.36Z" fill="white"/>
<path d="M131.694 123.858C131.558 123.858 131.423 123.805 131.325 123.697C129.943 122.201 127.639 121.649 127.615 121.643C127.346 121.58 127.178 121.313 127.242 121.046C127.304 120.779 127.575 120.612 127.844 120.673C127.95 120.697 130.47 121.297 132.065 123.024C132.252 123.227 132.24 123.542 132.035 123.727C131.939 123.814 131.816 123.858 131.696 123.858H131.694Z" fill="#2E186A"/>
<path d="M215.58 88.2354L151.147 88.2354C150.302 88.2354 149.568 88.8688 149.374 89.7671L140.052 132.801H99.8749C99.8749 132.801 98.7674 138.486 105.232 138.486H154.307L154.279 138.416H205.571C206.416 138.416 207.15 137.783 207.345 136.885L217.352 90.6793C217.623 89.4305 216.754 88.2334 215.578 88.2334L215.58 88.2354Z" fill="#FF897E"/>
<path d="M182.704 112.595C182.7 111.651 183.41 110.756 184.291 110.595C185.172 110.436 185.892 111.071 185.896 112.013C185.898 112.547 185.667 113.059 185.312 113.437C185.601 113.529 185.876 113.652 186.127 113.816C187.778 114.891 187.818 117.138 186.213 118.835C184.61 120.532 181.97 121.034 180.318 119.958C178.667 118.883 178.627 116.636 180.232 114.939C180.974 114.154 181.935 113.63 182.921 113.393C182.788 113.168 182.704 112.9 182.702 112.593L182.704 112.595Z" fill="white"/>
<path d="M181.488 108.197C181.488 108.197 184.026 107.585 184.189 109.764C184.189 109.764 182.164 110.569 181.488 108.197Z" fill="white"/>
<path d="M184.614 111.559C184.574 111.559 184.532 111.553 184.492 111.541C184.267 111.474 184.139 111.238 184.205 111.015C184.273 110.786 184.895 108.761 185.485 108.068C185.637 107.89 185.906 107.868 186.085 108.018C186.263 108.169 186.287 108.436 186.135 108.613C185.732 109.085 185.194 110.681 185.021 111.256C184.965 111.44 184.797 111.559 184.614 111.559Z" fill="white"/>
<path d="M147.919 138.309C146.946 138.309 146.199 137.998 145.7 137.384C144.797 136.273 145.012 134.488 145.22 133.524L154.704 90.0837C154.949 88.9504 155.88 88.1597 156.969 88.1597C157.246 88.1597 157.471 88.3827 157.471 88.6576C157.471 88.9325 157.246 89.1556 156.969 89.1556C156.359 89.1556 155.832 89.6236 155.685 90.2929L146.201 133.733C146.063 134.371 145.814 135.94 146.48 136.759C146.783 137.131 147.255 137.313 147.919 137.313C148.196 137.313 148.42 137.536 148.42 137.811C148.42 138.086 148.196 138.309 147.919 138.309Z" fill="#2E186A"/>
<path d="M167.785 70.9985H203.28C204.393 70.9985 205.296 70.1022 205.296 68.9968V19.4055C205.296 18.3001 204.393 17.4038 203.28 17.4038C202.166 17.4038 201.263 18.3001 201.263 19.4055V63.9934C201.263 65.0989 200.361 65.9952 199.247 65.9952H167.785C166.671 65.9952 165.769 66.8915 165.769 67.9969V68.9928C165.769 70.0982 166.671 70.9945 167.785 70.9945V70.9985Z" fill="#B6B6CE"/>
<path d="M202.504 16.3701L164.411 16.3701V68.1065H202.504V16.3701Z" fill="white"/>
<path d="M202.504 68.6043H164.411C164.134 68.6043 163.909 68.3812 163.909 68.1064V16.37C163.909 16.0951 164.134 15.8721 164.411 15.8721L202.504 15.8721C202.781 15.8721 203.005 16.0951 203.005 16.37V68.1064C203.005 68.3812 202.781 68.6043 202.504 68.6043ZM164.912 67.6084H202.002V16.868L164.912 16.868V67.6084Z" fill="#2E186A"/>
<path d="M193.901 21.0806H188.676C188.4 21.0806 188.175 20.8575 188.175 20.5827C188.175 20.3078 188.4 20.0847 188.676 20.0847H193.901C194.178 20.0847 194.402 20.3078 194.402 20.5827C194.402 20.8575 194.178 21.0806 193.901 21.0806Z" fill="#2E186A"/>
<path d="M196.68 23.1162H188.743C188.466 23.1162 188.241 22.8932 188.241 22.6183C188.241 22.3434 188.466 22.1204 188.743 22.1204H196.68C196.956 22.1204 197.181 22.3434 197.181 22.6183C197.181 22.8932 196.956 23.1162 196.68 23.1162Z" fill="#2E186A"/>
<path d="M196.68 25.2256H188.743C188.466 25.2256 188.241 25.0025 188.241 24.7277C188.241 24.4528 188.466 24.2297 188.743 24.2297H196.68C196.956 24.2297 197.181 24.4528 197.181 24.7277C197.181 25.0025 196.956 25.2256 196.68 25.2256Z" fill="#2E186A"/>
<path d="M187.978 30.667L168.205 30.667C167.928 30.667 167.703 30.444 167.703 30.1691C167.703 29.8942 167.928 29.6711 168.205 29.6711L187.978 29.6711C188.255 29.6711 188.48 29.8942 188.48 30.1691C188.48 30.444 188.255 30.667 187.978 30.667Z" fill="#2E186A"/>
<path d="M197.971 35.0608L168.287 35.0608C168.01 35.0608 167.785 34.8378 167.785 34.5629C167.785 34.288 168.01 34.0649 168.287 34.0649L197.971 34.0649C198.248 34.0649 198.473 34.288 198.473 34.5629C198.473 34.8378 198.248 35.0608 197.971 35.0608Z" fill="#2E186A"/>
<path d="M197.971 37.5227L168.287 37.5227C168.01 37.5227 167.785 37.2997 167.785 37.0248C167.785 36.7499 168.01 36.5269 168.287 36.5269L197.971 36.5269C198.248 36.5269 198.473 36.7499 198.473 37.0248C198.473 37.2997 198.248 37.5227 197.971 37.5227Z" fill="#2E186A"/>
<path d="M197.971 39.9827L168.287 39.9827C168.01 39.9827 167.785 39.7596 167.785 39.4848C167.785 39.2099 168.01 38.9868 168.287 38.9868L197.971 38.9868C198.248 38.9868 198.473 39.2099 198.473 39.4848C198.473 39.7596 198.248 39.9827 197.971 39.9827Z" fill="#2E186A"/>
<path d="M197.971 42.4444L168.287 42.4444C168.01 42.4444 167.785 42.2213 167.785 41.9464C167.785 41.6716 168.01 41.4485 168.287 41.4485L197.971 41.4485C198.248 41.4485 198.473 41.6716 198.473 41.9464C198.473 42.2213 198.248 42.4444 197.971 42.4444Z" fill="#2E186A"/>
<path d="M197.971 44.9063L168.287 44.9063C168.01 44.9063 167.785 44.6832 167.785 44.4083C167.785 44.1335 168.01 43.9104 168.287 43.9104L197.971 43.9104C198.248 43.9104 198.473 44.1335 198.473 44.4083C198.473 44.6832 198.248 44.9063 197.971 44.9063Z" fill="#2E186A"/>
<path d="M197.971 47.366L168.287 47.366C168.01 47.366 167.785 47.1429 167.785 46.8681C167.785 46.5932 168.01 46.3701 168.287 46.3701L197.971 46.3701C198.248 46.3701 198.473 46.5932 198.473 46.8681C198.473 47.1429 198.248 47.366 197.971 47.366Z" fill="#2E186A"/>
<path d="M197.971 49.8279L168.287 49.8279C168.01 49.8279 167.785 49.6048 167.785 49.33C167.785 49.0551 168.01 48.832 168.287 48.832L197.971 48.832C198.248 48.832 198.473 49.0551 198.473 49.33C198.473 49.6048 198.248 49.8279 197.971 49.8279Z" fill="#2E186A"/>
<path d="M197.971 52.2879L168.287 52.2879C168.01 52.2879 167.785 52.0648 167.785 51.7899C167.785 51.5151 168.01 51.292 168.287 51.292L197.971 51.292C198.248 51.292 198.473 51.5151 198.473 51.7899C198.473 52.0648 198.248 52.2879 197.971 52.2879Z" fill="#2E186A"/>
<path d="M197.795 56.6836H187.942C187.665 56.6836 187.44 56.4606 187.44 56.1857C187.44 55.9108 187.665 55.6877 187.942 55.6877H197.795C198.072 55.6877 198.296 55.9108 198.296 56.1857C198.296 56.4606 198.072 56.6836 197.795 56.6836Z" fill="#2E186A"/>
<path d="M188.031 63.5014C187.671 62.2008 187.716 60.7607 188.155 59.49C188.384 58.8267 188.887 58.1176 189.501 58.263C189.732 58.3188 189.929 58.4901 190.099 58.6773C191.188 59.8644 191.528 61.8522 190.912 63.4158C190.88 63.4994 190.839 63.5871 190.767 63.6309C190.585 63.7384 190.404 63.4855 190.33 63.2684C190.011 62.3263 189.955 61.2686 190.175 60.2887C190.404 59.2689 191.166 58.2133 192.075 58.4184C192.723 58.5658 193.151 59.3406 193.179 60.0915C193.207 60.8424 192.92 61.5634 192.583 62.2088C192.687 61.1651 193.121 60.1672 193.789 59.4402C193.975 59.237 194.202 59.0438 194.461 59.0398C194.884 59.0319 195.185 59.5079 195.325 59.962C195.556 60.705 195.572 61.5315 195.37 62.2844C195.404 61.8901 195.552 61.5076 195.787 61.2149C196.008 61.2945 196.008 61.6371 196.06 61.8921C196.112 62.147 196.481 62.3382 196.527 62.0813" fill="white"/>
<path d="M190.679 64.1547C190.6 64.1547 190.52 64.1408 190.442 64.1129C190.065 63.9755 189.896 63.5532 189.854 63.4277C189.505 62.4 189.445 61.2468 189.684 60.1812C189.744 59.9162 189.842 59.6195 189.983 59.3307C189.904 59.2191 189.818 59.1136 189.726 59.014C189.583 58.8586 189.467 58.769 189.383 58.7491C189.16 58.6953 188.815 59.1096 188.628 59.6533C188.225 60.8205 188.183 62.1749 188.514 63.37C188.588 63.6349 188.43 63.9098 188.163 63.9815C187.896 64.0552 187.619 63.8978 187.547 63.6329C187.16 62.2287 187.206 60.699 187.681 59.3287C188.071 58.2013 188.831 57.5918 189.619 57.7791C190.005 57.8707 190.29 58.1436 190.472 58.3427C190.51 58.3846 190.548 58.4264 190.584 58.4702C190.703 58.3527 190.833 58.2451 190.974 58.1575C191.357 57.9165 191.776 57.8408 192.187 57.9324C192.779 58.0659 193.207 58.526 193.449 59.0737C193.668 58.8407 194.003 58.5519 194.453 58.5419C195.044 58.534 195.554 59.006 195.807 59.8147C195.901 60.1194 195.965 60.4381 195.995 60.7588C196.385 60.9201 196.475 61.3105 196.521 61.5834C196.553 61.5834 196.587 61.5834 196.621 61.5913C196.894 61.6411 197.075 61.9001 197.025 62.1709C196.966 62.4836 196.72 62.6968 196.409 62.7007C196.198 62.6988 195.999 62.6111 195.843 62.4617C195.759 62.6808 195.528 62.8143 195.289 62.7725C195.032 62.7286 194.854 62.4956 194.876 62.2387C194.892 62.0554 194.928 61.8722 194.982 61.6989C195.054 61.1671 195.01 60.6154 194.852 60.1075C194.735 59.731 194.547 59.5358 194.479 59.5358C194.463 59.5358 194.372 59.5498 194.166 59.7748C193.983 59.972 193.821 60.1951 193.68 60.4341C193.624 61.2109 193.313 61.902 193.034 62.4358C192.924 62.647 192.677 62.7525 192.446 62.6848C192.216 62.6171 192.065 62.396 192.089 62.159C192.159 61.4499 192.364 60.7667 192.685 60.1592C192.685 60.1433 192.685 60.1254 192.685 60.1094C192.663 59.5278 192.342 58.9881 191.971 58.9024C191.82 58.8686 191.672 58.9004 191.517 58.998C191.393 59.0757 191.271 59.1932 191.16 59.3346C191.806 60.6154 191.919 62.2506 191.389 63.597C191.351 63.6946 191.261 63.9237 191.034 64.0571C190.926 64.1209 190.809 64.1528 190.689 64.1528L190.679 64.1547ZM190.6 60.7309C190.51 61.3244 190.526 61.9379 190.647 62.5255C190.755 61.9359 190.737 61.3145 190.6 60.7309Z" fill="#2E186A"/>
<path d="M228.571 135.42L37.9756 135.42V141.794L228.571 141.794V135.42Z" fill="#2E186A"/>
<path d="M114.515 60.729C114.473 60.729 114.431 60.723 114.387 60.7131L110.575 59.7172C110.306 59.6475 110.148 59.3746 110.218 59.1097C110.288 58.8448 110.563 58.6854 110.83 58.7551L114.642 59.751C114.91 59.8207 115.069 60.0936 114.999 60.3585C114.941 60.5816 114.736 60.729 114.513 60.729H114.515Z" fill="#2E186A"/>
<path d="M190.853 70.0903C190.853 70.0903 193.862 79.4517 190.652 84.2319C190.652 84.2319 198.878 82.041 197.072 70.2895L190.853 70.0903Z" fill="#B6B6CE"/>
<path d="M202.504 16.3701L164.411 16.3701V68.1065H202.504V16.3701Z" fill="white"/>
<path d="M202.504 68.6043H164.411C164.134 68.6043 163.909 68.3812 163.909 68.1064V16.37C163.909 16.0951 164.134 15.8721 164.411 15.8721L202.504 15.8721C202.781 15.8721 203.005 16.0951 203.005 16.37V68.1064C203.005 68.3812 202.781 68.6043 202.504 68.6043ZM164.912 67.6084H202.002V16.868L164.912 16.868V67.6084Z" fill="#2E186A"/>
<path d="M196.68 23.1162H188.743C188.466 23.1162 188.241 22.8932 188.241 22.6183C188.241 22.3434 188.466 22.1204 188.743 22.1204H196.68C196.956 22.1204 197.181 22.3434 197.181 22.6183C197.181 22.8932 196.956 23.1162 196.68 23.1162Z" fill="#2E186A"/>
<path d="M196.68 25.2256H188.743C188.466 25.2256 188.241 25.0025 188.241 24.7277C188.241 24.4528 188.466 24.2297 188.743 24.2297H196.68C196.956 24.2297 197.181 24.4528 197.181 24.7277C197.181 25.0025 196.956 25.2256 196.68 25.2256Z" fill="#2E186A"/>
<path d="M187.978 30.667L168.205 30.667C167.928 30.667 167.703 30.444 167.703 30.1691C167.703 29.8942 167.928 29.6711 168.205 29.6711L187.978 29.6711C188.255 29.6711 188.48 29.8942 188.48 30.1691C188.48 30.444 188.255 30.667 187.978 30.667Z" fill="#2E186A"/>
<path d="M197.971 35.0608L168.287 35.0608C168.01 35.0608 167.785 34.8378 167.785 34.5629C167.785 34.288 168.01 34.0649 168.287 34.0649L197.971 34.0649C198.248 34.0649 198.473 34.288 198.473 34.5629C198.473 34.8378 198.248 35.0608 197.971 35.0608Z" fill="#2E186A"/>
<path d="M197.971 37.5227L168.287 37.5227C168.01 37.5227 167.785 37.2997 167.785 37.0248C167.785 36.7499 168.01 36.5269 168.287 36.5269L197.971 36.5269C198.248 36.5269 198.473 36.7499 198.473 37.0248C198.473 37.2997 198.248 37.5227 197.971 37.5227Z" fill="#2E186A"/>
<path d="M197.971 39.9827L168.287 39.9827C168.01 39.9827 167.785 39.7596 167.785 39.4848C167.785 39.2099 168.01 38.9868 168.287 38.9868L197.971 38.9868C198.248 38.9868 198.473 39.2099 198.473 39.4848C198.473 39.7596 198.248 39.9827 197.971 39.9827Z" fill="#2E186A"/>
<path d="M197.971 42.4444L168.287 42.4444C168.01 42.4444 167.785 42.2213 167.785 41.9464C167.785 41.6716 168.01 41.4485 168.287 41.4485L197.971 41.4485C198.248 41.4485 198.473 41.6716 198.473 41.9464C198.473 42.2213 198.248 42.4444 197.971 42.4444Z" fill="#2E186A"/>
<path d="M197.971 44.9063L168.287 44.9063C168.01 44.9063 167.785 44.6832 167.785 44.4083C167.785 44.1335 168.01 43.9104 168.287 43.9104L197.971 43.9104C198.248 43.9104 198.473 44.1335 198.473 44.4083C198.473 44.6832 198.248 44.9063 197.971 44.9063Z" fill="#2E186A"/>
<path d="M197.971 47.366L168.287 47.366C168.01 47.366 167.785 47.1429 167.785 46.8681C167.785 46.5932 168.01 46.3701 168.287 46.3701L197.971 46.3701C198.248 46.3701 198.473 46.5932 198.473 46.8681C198.473 47.1429 198.248 47.366 197.971 47.366Z" fill="#2E186A"/>
<path d="M197.971 49.8279L168.287 49.8279C168.01 49.8279 167.785 49.6048 167.785 49.33C167.785 49.0551 168.01 48.832 168.287 48.832L197.971 48.832C198.248 48.832 198.473 49.0551 198.473 49.33C198.473 49.6048 198.248 49.8279 197.971 49.8279Z" fill="#2E186A"/>
<path d="M197.971 52.2879L168.287 52.2879C168.01 52.2879 167.785 52.0648 167.785 51.7899C167.785 51.5151 168.01 51.292 168.287 51.292L197.971 51.292C198.248 51.292 198.473 51.5151 198.473 51.7899C198.473 52.0648 198.248 52.2879 197.971 52.2879Z" fill="#2E186A"/>
<path d="M197.795 56.6836H187.942C187.665 56.6836 187.44 56.4606 187.44 56.1857C187.44 55.9108 187.665 55.6877 187.942 55.6877H197.795C198.072 55.6877 198.296 55.9108 198.296 56.1857C198.296 56.4606 198.072 56.6836 197.795 56.6836Z" fill="#2E186A"/>
<path d="M188.031 63.5014C187.671 62.2008 187.716 60.7607 188.155 59.49C188.384 58.8267 188.887 58.1176 189.501 58.263C189.732 58.3188 189.929 58.4901 190.099 58.6773C191.188 59.8644 191.528 61.8522 190.912 63.4158C190.88 63.4994 190.839 63.5871 190.767 63.6309C190.585 63.7384 190.404 63.4855 190.33 63.2684C190.011 62.3263 189.955 61.2686 190.175 60.2887C190.404 59.2689 191.166 58.2133 192.075 58.4184C192.723 58.5658 193.151 59.3406 193.179 60.0915C193.207 60.8424 192.92 61.5634 192.583 62.2088C192.687 61.1651 193.121 60.1672 193.789 59.4402C193.975 59.237 194.202 59.0438 194.461 59.0398C194.884 59.0319 195.185 59.5079 195.325 59.962C195.556 60.705 195.572 61.5315 195.37 62.2844C195.404 61.8901 195.552 61.5076 195.787 61.2149C196.008 61.2945 196.008 61.6371 196.06 61.8921C196.112 62.147 196.481 62.3382 196.527 62.0813" fill="white"/>
<path d="M190.679 64.1547C190.6 64.1547 190.52 64.1408 190.442 64.1129C190.065 63.9755 189.896 63.5532 189.854 63.4277C189.505 62.4 189.445 61.2468 189.684 60.1812C189.744 59.9162 189.842 59.6195 189.983 59.3307C189.904 59.2191 189.818 59.1136 189.726 59.014C189.583 58.8586 189.467 58.769 189.383 58.7491C189.16 58.6953 188.815 59.1096 188.628 59.6533C188.225 60.8205 188.183 62.1749 188.514 63.37C188.588 63.6349 188.43 63.9098 188.163 63.9815C187.896 64.0552 187.619 63.8978 187.547 63.6329C187.16 62.2287 187.206 60.699 187.681 59.3287C188.071 58.2013 188.831 57.5918 189.619 57.7791C190.005 57.8707 190.29 58.1436 190.472 58.3427C190.51 58.3846 190.548 58.4264 190.584 58.4702C190.703 58.3527 190.833 58.2451 190.974 58.1575C191.357 57.9165 191.776 57.8408 192.187 57.9324C192.779 58.0659 193.207 58.526 193.449 59.0737C193.668 58.8407 194.003 58.5519 194.453 58.5419C195.044 58.534 195.554 59.006 195.807 59.8147C195.901 60.1194 195.965 60.4381 195.995 60.7588C196.385 60.9201 196.475 61.3105 196.521 61.5834C196.553 61.5834 196.587 61.5834 196.621 61.5913C196.894 61.6411 197.075 61.9001 197.025 62.1709C196.966 62.4836 196.72 62.6968 196.409 62.7007C196.198 62.6988 195.999 62.6111 195.843 62.4617C195.759 62.6808 195.528 62.8143 195.289 62.7725C195.032 62.7286 194.854 62.4956 194.876 62.2387C194.892 62.0554 194.928 61.8722 194.982 61.6989C195.054 61.1671 195.01 60.6154 194.852 60.1075C194.735 59.731 194.547 59.5358 194.479 59.5358C194.463 59.5358 194.372 59.5498 194.166 59.7748C193.983 59.972 193.821 60.1951 193.68 60.4341C193.624 61.2109 193.313 61.902 193.034 62.4358C192.924 62.647 192.677 62.7525 192.446 62.6848C192.216 62.6171 192.065 62.396 192.089 62.159C192.159 61.4499 192.364 60.7667 192.685 60.1592C192.685 60.1433 192.685 60.1254 192.685 60.1094C192.663 59.5278 192.342 58.9881 191.971 58.9024C191.82 58.8686 191.672 58.9004 191.517 58.998C191.393 59.0757 191.271 59.1932 191.16 59.3346C191.806 60.6154 191.919 62.2506 191.389 63.597C191.351 63.6946 191.261 63.9237 191.034 64.0571C190.926 64.1209 190.809 64.1528 190.689 64.1528L190.679 64.1547ZM190.6 60.7309C190.51 61.3244 190.526 61.9379 190.647 62.5255C190.755 61.9359 190.737 61.3145 190.6 60.7309Z" fill="#2E186A"/>
</g>
<defs>
<clipPath id="clip0_460_1425">
<rect width="284" height="158.625" fill="white"/>
</clipPath>
</defs>
</svg>
