<svg xmlns="http://www.w3.org/2000/svg" width="284" height="159" fill="none" viewBox="0 0 284 159"><g clip-path="url(#a)"><path fill="#f6f6f6" d="M1 0h282v158.625H1z"/><path stroke="#ececfe" stroke-dasharray="4 10" stroke-linecap="round" stroke-linejoin="round" stroke-width="5" d="M-61.437 68.686c4.343 14.004 20.846 41.797 52.116 40.936 39.087-1.078 49.944-62.482 121.604-63.56C183.942 44.987 272.974 127.936 301.204 87"/><path stroke="#d3dffc" stroke-width="11" d="M37.976 55.477c8.73 0 15.735 7.011 15.735 15.57 0 8.557-7.004 15.569-15.735 15.569S22.24 79.605 22.24 71.046c0-8.558 7.005-15.569 15.736-15.569Z"/><ellipse cx="244.037" cy="89.293" fill="#fde2b5" rx="24.269" ry="24.079"/><ellipse cx="198.109" cy="24.245" fill="#fdc6ba" rx="16.988" ry="16.855"/><path fill="#000091" fill-rule="evenodd" d="M96.68 129.011c1.811-12.54 5.741-39.892-6.047-52.778C78.845 63.346 76.967 66.395 74.915 55.8c-2.052-10.594-12.923-14.897-18.403-8.735s1.114 17.946 3.231 20.52c2.118 2.572.218 18.42 7.139 29.383 6.92 10.962 18.031 3.113 17.551 12.649.633 18.724 12.247 19.394 12.247 19.394" clip-rule="evenodd"/><path fill="#fff" fill-rule="evenodd" d="M56.02 46.637c-2.629 2.956-2.883 7.241-1.369 12.22 1.056 3.472 3.03 7.21 4.518 9.057l.066.08c.446.543.726 1.994 1.033 5.16l.308 3.332.069.707c.099.995.196 1.885.305 2.766.344 2.777.78 5.254 1.375 7.611.935 3.697 2.233 6.941 4 9.742 1.75 2.77 3.861 4.569 6.395 5.68l.231.1c1.441.614 2.487.873 4.96 1.303l1.059.181c1.984.344 2.9.626 3.615 1.186.886.694 1.293 1.847 1.193 3.822v.054c.276 8.163 2.6 13.666 6.328 16.965 1.411 1.249 2.927 2.089 4.446 2.595.535.178 1.034.303 1.485.382l.123.021c.216.034.379.052.48.058a.654.654 0 0 0 .687-.556l.284-1.98c.56-3.951.885-6.553 1.197-9.775.502-5.182.723-10.023.602-14.613-.311-11.78-2.85-20.989-8.293-26.938l-.41-.447a104 104 0 0 0-7.012-6.95l-.378-.34c-.722-.644-2.192-1.938-2.347-2.076l-.287-.257a27 27 0 0 1-1.514-1.452l-.057-.061c-1.74-1.854-2.57-3.706-3.42-7.855l-.03-.148q-.052-.259-.105-.533c-1.008-5.207-4.171-9.286-8.29-11.12-4.077-1.816-8.414-1.108-11.247 2.078m18.251 9.286.072.365.036.178c.893 4.418 1.805 6.508 3.707 8.56l.067.071c.467.498.993 1 1.74 1.672l2.7 2.39.406.367c2.352 2.13 4.555 4.308 7.148 7.142 5.187 5.67 7.65 14.602 7.954 26.101.116 4.399-.086 9.041-.553 14.003l-.06.62-.052.523c-.317 3.164-.665 5.846-1.273 10.089l-.04.272-.073-.015a10 10 0 0 1-1.08-.292c-1.357-.453-2.718-1.207-3.991-2.334l-.103-.092c-3.352-3.029-5.484-8.097-5.78-15.714l-.008-.209-.001.029c.118-2.36-.432-3.919-1.689-4.904l-.105-.08c-.898-.669-1.93-.985-3.962-1.343l-1.17-.201c-2.508-.436-3.468-.682-4.91-1.315-2.296-1.007-4.205-2.633-5.815-5.182-1.688-2.675-2.936-5.795-3.84-9.369-.56-2.215-.976-4.546-1.307-7.152l-.038-.302c-.116-.937-.22-1.886-.325-2.966l-.128-1.358-.202-2.194-.06-.625c-.321-3.215-.613-4.64-1.261-5.453l-.025-.03c-1.386-1.685-3.322-5.33-4.344-8.691-1.398-4.595-1.17-8.44 1.097-10.99 5.247-5.9 15.366-1.393 17.268 8.429" clip-rule="evenodd"/><path fill="#000091" fill-rule="evenodd" d="M103.032 31.216c-11.526-1.081-13.905 10.465-14.276 20.26-.371 9.794 1.462 13.318-4.17 18.53-5.632 5.21 3.537 12.258 2.75 17.426-.785 5.168-6.177 19.006 14.823 49.622.764 1.102 1.856 10.054 1.856 10.054l4.54-1.211s-2.925-7.265.393-16.065c3.319-8.8 8.907-12.951 9.453-23.957s-7.422-8.886-5.96-16.13c1.463-7.243 8.929-12.259 8.339-19.524-.567-7.265-14.364-12.562-11.308-20.951s3.537-17.124-6.44-18.054" clip-rule="evenodd"/><path fill="#fff" fill-rule="evenodd" d="M91.13 36.968c-1.873 3.578-2.777 8.34-3.019 14.249l-.019.5a88 88 0 0 0-.03 4.728l.036 2.18c.026 2 0 2.853-.119 3.893-.177 1.546-.567 2.788-1.289 3.995-.568.95-1.355 1.895-2.426 2.901l-.124.117c-1.449 1.34-2.096 2.883-2.045 4.636.04 1.375.486 2.803 1.337 4.594l.07.147c.214.443.423.854.739 1.455l.738 1.402c.635 1.217.912 1.802 1.195 2.533l.02.05c.453 1.183.623 2.15.496 2.987l-.025.147c-.115.664-.482 2.504-.526 2.737l-.067.37c-.882 4.98-.871 9.747.587 16.007 2.045 8.775 6.804 18.932 14.959 30.822.039.056.111.232.19.493.086.281.179.648.276 1.091l.047.22c.158.75.325 1.678.497 2.743l.026.161c.158.996.313 2.056.458 3.123l.109.81.123.957.021.169a.655.655 0 0 0 .821.549l4.54-1.211a.647.647 0 0 0 .452-.83l-.057-.152-.04-.111-.087-.262c-.134-.416-.269-.9-.395-1.448-.948-4.117-.862-8.819.964-13.661l.111-.293c.824-2.131 1.759-3.984 3.269-6.628l1.228-2.137.288-.506c1.369-2.422 2.207-4.128 2.921-6.083.959-2.626 1.52-5.367 1.676-8.505.226-4.569-.806-7.136-3.16-9.602l-.163-.168c-.295-.3-.931-.932-1.039-1.042-1.627-1.66-2.09-2.845-1.61-5.222l.039-.188c.502-2.336 1.48-4.227 3.747-7.714l.835-1.278.199-.308c2.722-4.222 3.798-6.907 3.53-10.216-.203-2.59-1.652-4.735-4.964-8.162l-1.628-1.668c-2.189-2.255-3.22-3.481-4.061-4.955-1.152-2.018-1.417-3.903-.692-5.894 1.748-4.8 2.408-8.961 1.691-12.184-.871-3.912-3.734-6.275-8.686-6.736-5.61-.526-9.544 1.777-11.964 6.398m11.841-5.107c4.4.41 6.785 2.378 7.53 5.724.652 2.934.028 6.875-1.644 11.465-.865 2.373-.545 4.644.783 6.972l.088.151c.936 1.602 2.077 2.924 4.488 5.392l1.198 1.225.214.222c3.031 3.15 4.331 5.094 4.5 7.26.234 2.88-.703 5.3-3.15 9.138l-.428.663-.786 1.203c-2.411 3.71-3.433 5.711-3.964 8.342-.566 2.802.033 4.394 1.878 6.302l.159.162c.232.233.798.795 1.011 1.014l.024.025c2.169 2.243 3.086 4.474 2.875 8.722-.149 3.008-.684 5.622-1.599 8.127-.701 1.92-1.533 3.604-2.927 6.06l-.573 1-.741 1.286-.21.368c-1.546 2.72-2.501 4.638-3.362 6.921-1.924 5.103-2.014 10.057-1.013 14.404l.037.157q.15.626.308 1.144l.043.141-3.139.837-.051-.397-.061-.457a149 149 0 0 0-.512-3.51l-.078-.485a54 54 0 0 0-.505-2.712l-.044-.197c-.211-.929-.401-1.528-.62-1.843-8.068-11.762-12.76-21.775-14.765-30.383-1.415-6.075-1.427-10.668-.574-15.484l.073-.402c.07-.361.477-2.404.55-2.89.167-1.091-.04-2.268-.567-3.641l-.062-.16c-.323-.822-.648-1.488-1.44-2.991l-.596-1.131a41 41 0 0 1-.635-1.257c-1.728-3.582-1.809-5.826.285-7.809l.065-.06c1.22-1.13 2.126-2.205 2.783-3.305.796-1.33 1.239-2.702 1.444-4.35l.02-.16c.135-1.184.157-2.113.12-4.49l-.026-1.58c-.032-2.034-.028-3.353.03-4.963l.006-.132c.221-5.842 1.092-10.516 2.882-13.933 2.182-4.167 5.617-6.18 10.678-5.705" clip-rule="evenodd"/><path fill="#000091" fill-rule="evenodd" d="M102.357 127.995c-3.951-9.903-12.574-31.482-26.523-36.13-13.95-4.627-14.015-1.643-19.953-8.562-5.938-6.92-15.609-5.644-16.984 1.08-1.397 6.725 8.34 12.67 10.937 13.687 2.62 1.016 7.88 13.384 17.486 18.573 9.605 5.211 14.364-5.038 18.01 2.119 8.339 13.47 17.027 9.233 17.027 9.233" clip-rule="evenodd"/><path fill="#fff" fill-rule="evenodd" d="M45.62 78.08c-3.723.33-6.586 2.6-7.343 6.07l-.022.103c-.68 3.268.948 6.534 4.158 9.583 2.225 2.112 5.226 4.047 7.086 4.8l.094.037c.512.2 1.308 1.118 2.762 3.167l1.86 2.646c.189.268.357.507.482.681l.051.071a73 73 0 0 0 2.755 3.627c3.027 3.715 6.089 6.503 9.502 8.348 2.19 1.187 4.276 1.684 6.357 1.617 1.544-.05 2.88-.363 4.732-1.004l1.24-.433c1.722-.595 2.044-.654 2.729-.619l.03.002c1.01.054 1.812.666 2.606 2.191l.045.087.027.047q.486.787.985 1.51c2.963 4.305 6.154 6.879 9.439 8.011 2.38.821 4.57.818 6.427.314.48-.13.826-.263 1.024-.36a.645.645 0 0 0 .319-.82l-.524-1.307c-3.268-8.119-5.632-13.235-9.036-18.825-5.178-8.502-10.896-14.219-17.363-16.374a93 93 0 0 0-6.906-2.016l-.646-.158c-1.336-.318-4.242-.952-4.447-1-1.645-.387-2.605-.732-3.56-1.32-1.123-.69-2.274-1.762-3.913-3.652l-.19-.222c-2.94-3.424-6.974-5.136-10.76-4.801m9.761 5.642.2.233c1.717 1.979 2.955 3.13 4.21 3.903 1.067.656 2.12 1.042 3.803 1.445l.267.062c.636.142 3.37.74 4.487 1.012a90 90 0 0 1 7.277 2.103c6.11 2.036 11.625 7.551 16.658 15.814l.32.529c3.223 5.369 5.532 10.417 8.725 18.362l.174.434-.033.011-.127.037-.065.018c-1.616.438-3.538.441-5.652-.288-3.005-1.036-5.975-3.431-8.787-7.517l-.16-.234a36 36 0 0 1-.634-.972l-.144-.231.014.027c-1.005-1.972-2.203-2.906-3.749-2.99-.636-.034-1.308.073-2.125.31l-.162.048c-.245.074-.508.161-.819.269l-1.232.436c-1.825.641-3.08.944-4.507.99-1.847.06-3.7-.382-5.686-1.459-3.242-1.751-6.183-4.431-9.111-8.024a71 71 0 0 1-2.54-3.331l-.52-.73-1.893-2.694c-1.722-2.44-2.584-3.455-3.46-3.814l-.038-.015c-1.69-.661-4.612-2.534-6.752-4.567-2.886-2.741-4.319-5.582-3.8-8.294l.018-.093c1.297-6.338 10.391-7.142 15.843-.79" clip-rule="evenodd"/><path fill="#000091" fill-rule="evenodd" d="M97.247 130.503c.24-11.438.764-36.368 13.076-46.206 12.291-9.837 13.491-6.854 16.853-16.021s13.578-11.46 17.53-5.211c3.951 6.249-3.602 15.827-5.851 17.838-2.248 2.01-2.881 16.389-10.587 25.189s-16.351.259-17.333 8.8c-3.34 16.649-13.688 15.611-13.688 15.611" clip-rule="evenodd"/><path fill="#ff8d7e" fill-rule="evenodd" d="m113.555 147.973 5.501-25.081c.458-1.902-1.026-3.719-3.034-3.719h-34.23c-2.008 0-3.493 1.795-3.056 3.676l5.632 24.93" clip-rule="evenodd"/><path fill="#fff" d="M98.852 11.044h93.959v136.519H98.852z"/><path fill="#2e186a" fill-rule="evenodd" d="M192.811 10.395h-93.97a.65.65 0 0 0-.654.648v136.519c0 .359.293.649.654.649h93.97c.361 0 .655-.29.655-.649V11.043a.65.65 0 0 0-.655-.648m-.655 1.297v135.222H99.178V11.692z" clip-rule="evenodd"/><path fill="#fff" fill-rule="evenodd" d="M179.493 136.384s-4.694-.259-9.671.606c-2.969.519-8.011 1.362-8.514 2.119-1.2 1.794 3.362 2.681 5.502 1.211" clip-rule="evenodd"/><path fill="#2e186a" fill-rule="evenodd" d="m178.829 135.712.297.008.332.013.072.004a.65.65 0 0 1 .617.684.65.65 0 0 1-.651.612l-.274-.011-.214-.007c-2.604-.079-5.726.055-8.814.57l-1.78.31-.8.143-.587.107-.282.053c-2.037.384-3.499.723-4.35 1.034a3.4 3.4 0 0 0-.463.201l-.067.04-.026.018-.005.009c-.092.145-.089.21-.01.301l.018.02c.178.19.574.373 1.1.483 1.21.252 2.66.057 3.495-.517a.66.66 0 0 1 .911.163.645.645 0 0 1-.164.903c-1.16.797-2.973 1.041-4.512.72-.767-.16-1.399-.451-1.791-.87-.517-.552-.569-1.278-.119-1.95.205-.31.584-.521 1.18-.738l.135-.048c.902-.313 2.272-.632 4.133-.988l.575-.109c.336-.062.686-.125 1.066-.193l1.859-.326c3.187-.554 6.406-.709 9.119-.639" clip-rule="evenodd"/><path fill="#fff" fill-rule="evenodd" d="M166.505 143.066c-2.772.67-4.082.497-3.362-.973.524-1.06 7.532-4.649 8.907-5.038 1.375-.411 13.382-2.119 13.382-2.119l3.078 12.627h-17.377c-4.213.26-2.991-2.097-1.266-2.703 1.724-.627 4.89-2.075 5.37-1.967 0 0-4.519 1.275-6.549 2.53-1.441.562-3.056-.411-3.209-.865s1.157-1.687 3.362-2.79 5.043-2.075 5.043-2.075" clip-rule="evenodd"/><path fill="#2e186a" fill-rule="evenodd" d="m186.057 134.747.01.037 3.078 12.627a.65.65 0 0 1-.598.799l-.038.002-17.355-.001-.075.005c-2.138.114-3.414-.437-3.46-1.623l-.001-.052a1.5 1.5 0 0 1 .023-.277l.008-.038-.063-.002c-1.222-.06-2.43-.684-2.714-1.42l-.015-.041c-.074-.22-.049-.462.061-.717l.007-.015-.052.007c-.599.072-1.081.069-1.461-.014l-.056-.013c-1.051-.257-1.321-1.144-.802-2.204.329-.665 1.924-1.707 4.408-3.054l.406-.218c1.831-.976 3.662-1.841 4.413-2.078l.129-.038c.64-.176 2.719-.527 5.942-1.021l.725-.11c.941-.143 1.925-.29 2.924-.437l2.609-.381 1.228-.176a.654.654 0 0 1 .719.453m1.62 12.167-2.743-11.252-1.519.22-1.72.252c-.713.105-1.418.21-2.105.313l-2.04.311c-2.834.437-4.744.762-5.278.908l-.043.013c-1.611.455-8.154 4.003-8.497 4.697l-.039.082a1.3 1.3 0 0 0-.089.256l-.003.017.004.002.041.013.025.006c.432.106 1.344.006 2.678-.316a1 1 0 0 1 .113-.018h.008l.028-.02a15 15 0 0 1 1.958-1.164l.089-.045q.591-.294 1.276-.598a50 50 0 0 1 2.644-1.074l.264-.099.373-.137.3-.108.267-.093a.657.657 0 0 1 .833.401.647.647 0 0 1-.369.811l-.354.126-.227.081-.622.23a49 49 0 0 0-2.574 1.046 29 29 0 0 0-1.221.572c-.998.5-1.851 1.05-2.43 1.549a3.7 3.7 0 0 0-.483.484l-.026.034.04.032c.157.117.367.232.599.32.53.202 1.078.239 1.549.076l.014-.005.056-.034c.663-.394 1.563-.801 2.647-1.218l.143-.054a41 41 0 0 1 1.435-.515l.31-.104.304-.121c1.288-.507 1.707-.61 2.07-.535l.018.004c.661.149.687 1.072.035 1.257l-.19.054-.349.104-.488.15-.129.04-.579.186-.224.074-.711.286-1.503.612c-.454.183-.747.297-1.041.406l-.117.043c-.643.225-1.16.761-1.158 1.058.001.064.046.123.248.21.357.154.966.226 1.817.181l.1-.005.04-.002z" clip-rule="evenodd"/><path fill="#6a6af4" fill-rule="evenodd" d="m238.019 100.817.655 38.724c.065 4.324-3.449 7.892-7.837 7.892h-44.839s-2.751-12.216-5.239-12.692l12.639-2.292.022-64.562 36.566 19.438c5.108 2.573 8.229 7.849 8.033 13.492" clip-rule="evenodd"/><path fill="#fff" fill-rule="evenodd" d="M215.203 110.937a.654.654 0 0 1 .697.562l.004.038 1.135 15.373a.65.65 0 0 1-.483.674l-.038.009-26 5.297a.648.648 0 0 1-.301-1.262l.038-.009 25.436-5.182-1.093-14.805a.65.65 0 0 1 .567-.691zM211.103 93.12l-1.07-.238c-4.409-.973-7.203-5.298-6.221-9.665l2.096-9.406c.982-4.367 5.348-7.135 9.758-6.162l1.069.238c4.41.973 7.204 5.297 6.222 9.665l-2.096 9.405c-.96 4.368-5.348 7.135-9.758 6.162" clip-rule="evenodd"/><path fill="#2e186a" fill-rule="evenodd" d="m205.268 73.67-2.096 9.407c-1.06 4.712 1.953 9.386 6.719 10.438l1.069.237c4.766 1.052 9.503-1.939 10.541-6.657l2.095-9.403c1.06-4.713-1.952-9.386-6.718-10.438l-1.07-.238c-4.759-1.05-9.478 1.933-10.54 6.654m10.255-5.388 1.069.238c4.062.897 6.628 4.878 5.726 8.891l-2.096 9.407c-.883 4.016-4.919 6.564-8.976 5.669l-1.069-.238c-4.062-.896-6.628-4.878-5.726-8.891l2.096-9.407c.905-4.021 4.925-6.562 8.976-5.668" clip-rule="evenodd"/><path fill="#fff" fill-rule="evenodd" d="M229.811 63.13s6.986-13.47-6.702-20.67c-1.266-.67-10.085-5.082-14.32 1.989-2.816 4.713-4.89 10.162-6.178 14.508 0 .021-2.576 8.151-.851 13.686 1.724 5.535 8.994 7.46 13.512 6.487s5.589-1.903 7.532-4.173 6.985-11.784 6.985-11.784z" clip-rule="evenodd"/><path fill="#2e186a" fill-rule="evenodd" d="m208.226 44.119-.144.243c-2.493 4.231-4.599 9.351-6.099 14.413l-.004.014.001-.007-.001.008-.059.198-.053.184-.056.199-.058.214a39 39 0 0 0-.506 2.115c-.472 2.252-.751 4.504-.736 6.618.012 1.672.21 3.19.623 4.517.866 2.78 3.073 4.873 6.087 6.093 2.641 1.069 5.724 1.367 8.191.836l.263-.057c4.019-.886 5.356-1.69 7.558-4.247l.071-.083c.691-.808 1.753-2.463 3.109-4.783l.316-.543.244-.424a211 211 0 0 0 2.146-3.836l.394-.724q.133-.243.257-.474l.6-1.118.035-.068c.091-.18.214-.447.358-.793.22-.53.436-1.122.633-1.766.548-1.794.868-3.69.853-5.615-.044-5.461-2.728-10.135-8.832-13.346l-.222-.116c-.57-.29-1.244-.593-2.032-.885-1.324-.491-2.682-.838-4.031-.98-3.717-.388-6.828.823-8.845 4.112zm8.768-2.922c1.23.128 2.482.449 3.71.904.833.31 1.529.63 2.097.931 5.668 2.982 8.098 7.213 8.138 12.211.014 1.784-.284 3.552-.797 5.229a18 18 0 0 1-.59 1.648l-.074.174q-.054.126-.105.237l-.074.16-.051.105-.066.13-.405.756-.506.934-.09.166a222 222 0 0 1-2.346 4.204l-.243.42-.237.41c-1.327 2.275-2.377 3.92-3.016 4.681l-.169.197c-2.019 2.332-3.134 2.962-7.036 3.802-2.204.475-5.017.203-7.417-.769-2.676-1.083-4.591-2.9-5.331-5.275-.372-1.194-.554-2.588-.565-4.143-.014-1.933.233-4.01.657-6.094l.065-.312.037-.17a74 74 0 0 1 .64-2.599l.02.006c1.472-4.967 3.539-9.991 5.972-14.123l.141-.237c1.729-2.886 4.36-3.927 7.641-3.583" clip-rule="evenodd"/><path fill="#2e186a" fill-rule="evenodd" d="M202.611 58.935c1.288-4.324 3.34-9.794 6.178-14.508.131-.216.262-.432.415-.627-2.292-1.773-6.025 1.881-8.601 9.427-1.332 3.892-4.956 5.86-4.956 5.86 2.773 2.4 5.283 1.362 6.921 0 .021-.087.043-.152.043-.152M208.486 56.209a.657.657 0 0 1 .851-.363.647.647 0 0 1 .379.807l-.013.036-2.699 6.711 1.793.657c.328.12.5.47.4.797l-.012.036a.657.657 0 0 1-.805.396l-.036-.012-2.424-.887a.647.647 0 0 1-.395-.812l.014-.036zM207.113 55.932c.262-.603.159-1.226-.229-1.39-.387-.166-.914.19-1.175.794-.262.603-.159 1.226.229 1.39.387.166.914-.19 1.175-.794M213.848 58.81c.143-.642-.076-1.235-.488-1.325s-.862.357-1.005.998.076 1.234.488 1.324.862-.357 1.005-.998M215.7 53.965a.655.655 0 0 1 .771-.509c.998.198 1.783.678 2.365 1.35.274.315.484.652.641.99.097.21.156.379.185.49.09.347-.12.701-.471.79a.656.656 0 0 1-.787-.428l-.02-.068a2.93 2.93 0 0 0-.542-.93c-.398-.459-.928-.783-1.628-.922a.65.65 0 0 1-.514-.763" clip-rule="evenodd"/><path fill="#2e186a" fill-rule="evenodd" d="M207.072 49.262c.783-.056 1.573.206 2.343.667.406.243.719.486.908.658a.644.644 0 0 1 .04.917.66.66 0 0 1-.926.039l-.027-.024a5.308 5.308 0 0 0-.672-.48c-.56-.335-1.107-.516-1.571-.483a1.3 1.3 0 0 0-.605.199l-.055.037a.66.66 0 0 1-.914-.15.645.645 0 0 1 .151-.904c.403-.286.851-.441 1.328-.476" clip-rule="evenodd"/><path fill="#ff8d7e" fill-rule="evenodd" d="m244.438 59.152-7.401-3.72c.939-5.448.35-13.88-9.976-18.637-16.154-7.438-22.048 8.584-22.048 8.584l37.002 18.486c1.309.67 2.925.13 3.602-1.168.654-1.297.131-2.875-1.179-3.545" clip-rule="evenodd"/><path fill="#2e186a" fill-rule="evenodd" d="m236.164 60.947-15.609-7.806c-1.812 5.6-4.082 16.822 5.589 19.784 0 0 7.553 2.486 9.736.022 0 0-5.196-3.763-4.017-6.855 0 0 5.305 7.784 11.548 3.654 0 0-7.378-2.335-7.247-8.8" clip-rule="evenodd"/><path stroke="#000091" stroke-linecap="round" stroke-width="2" d="M110.298 56.595h61.989M157.795 22.676h21.964M110.298 27.021h21.964M110.298 60.94h34.533M110.298 73.974h68.85M110.298 78.59h68.85M110.298 83.206h68.85M110.298 87.823h68.85M110.298 92.439h68.85M110.298 97.055h68.85M110.298 101.672h68.85M110.298 106.288h68.85M110.298 110.904h68.85M110.298 115.521h68.85M110.298 120.137h68.85M157.795 27.021h21.964M110.298 31.366h21.964M157.795 31.366h21.964M110.298 35.71h21.964M157.795 35.71h21.964M117 137.376l.001-1.624c.002-1.63.004-4.893.18-6.475.177-1.582.526-1.384.986-.982s1.019 1.002 1.462 1.549c.442.547.751 1.023 1.138 1.833a24 24 0 0 1 1.176 3.004 21 21 0 0 1 .645 2.705c.171 1.004.159 1.575.117 1.969-.034.32-.297.527-.584.678-.304.16-.703.15-1.112.101-.457-.055-.867-.638-1.239-1.486-.449-1.02-.364-2.344-.288-3.63.073-1.26.505-2.351.889-3.181.287-.623.679-.927 1.003-1.098.313-.165.666-.11.983.032.379.169.666.684 1.13 1.567.8 1.522 1.251 3.036 1.427 3.695.046.174-.003.027-.113-.806a88 88 0 0 1-.366-3.382c-.129-1.547-.016-2.162.126-2.272.063-.05.157.001.266.077.257.18.996 1.179 2.069 2.777.487.725.741 1.349.894 1.602.152.253.166.135.194-.014.114-.594.361-.977.841-1.328a1.7 1.7 0 0 1 .518-.122c.213-.021.475-.026.745-.03M167.177 129.912c.006 0-.956.017-2.635.114-1.162.067-1.958.6-2.662 1.113-.688.502-1.118 1.275-1.484 2.003-.336.67-.359 1.403-.369 2.07-.011.634.451 1.365 1.136 2.049.463.462 1.02.507 1.484.568.44.057.88-.125 1.331-.525.591-.522.933-1.423 1.248-2.311.694-1.958.352-3.543.299-3.585-.807-.641.084 2.197.571 3.142.124.239.54-.779.786-1.706.083-.31.197-.256.363-.062.441.513.727.948.87 1.024.169.088.467-.703.738-1.641.085-.295.133-.201.182.057.128.677.232 1.215.354 1.349.07.036.158.005.292-.13s.309-.373.621-.735"/><path stroke="#000" stroke-linecap="round" stroke-width="2" d="m208.027 70.09 5.691-.737"/><path stroke="#000091" stroke-linecap="round" stroke-width="2" d="M110.298 22.676h21.964"/></g><defs><clipPath id="a"><path fill="#fff" d="M0 0h284v158.625H0z"/></clipPath></defs></svg>