<svg xmlns="http://www.w3.org/2000/svg" width="284" height="159" fill="none" viewBox="0 0 284 159"><g clip-path="url(#a)"><path fill="#f6f6f6" d="M1 0h282v158.625H1z"/><path stroke="#ececfe" stroke-dasharray="4 10" stroke-linecap="round" stroke-linejoin="round" stroke-width="5" d="M-61.436 68.714c4.343 14.004 20.846 41.798 52.116 40.936 39.087-1.077 49.944-62.482 121.604-63.559s160.691 81.872 188.92 40.936"/><g clip-path="url(#b)"><path fill="#2e186a" d="M211.223 114.645c-.2 0-.38-.135-.43-.335-3.219-13.071-.919-22.297 1.576-27.735 2.716-5.919 6.16-8.696 6.305-8.812a.443.443 0 0 1 .62.069.435.435 0 0 1-.069.616c-.051.04-3.456 2.805-6.075 8.538-2.424 5.306-4.652 14.318-1.499 27.115a.438.438 0 0 1-.43.542z"/><path fill="#ff897e" d="M213.824 107.954a1.42 1.42 0 0 1-.488-1.235c.997-9.03 5.101-18.33 11.501-21.74 6.579-3.507 11.067 6.224 1.947 15.267-6.864 6.805-10.527 7.912-11.922 8.043a1.4 1.4 0 0 1-1.04-.335z"/><path fill="#2e186a" d="M207.347 114.364a.445.445 0 0 1-.426-.321c-.019-.068-1.971-6.803-7.596-7.285a.44.44 0 0 1-.403-.475.443.443 0 0 1 .479-.4c2.594.222 4.868 1.67 6.574 4.187 1.272 1.875 1.777 3.663 1.799 3.737a.436.436 0 0 1-.427.554zM214.054 108.061a.438.438 0 0 1-.403-.614c2.399-5.415 6.682-11.104 9.85-14.921 3.429-4.13 6.332-7.024 6.362-7.052a.444.444 0 0 1 .626 0 .436.436 0 0 1 0 .62c-.028.029-2.909 2.9-6.311 6.998-3.131 3.774-7.358 9.387-9.717 14.71a.44.44 0 0 1-.405.261z"/><path fill="#2e186a" d="M218.302 100.685a.437.437 0 0 1-.177-.84c5.133-2.227 9.828-2.092 10.024-2.086.244.008.435.21.426.452a.443.443 0 0 1-.456.423c-.048 0-4.7-.13-9.64 2.012a.45.45 0 0 1-.177.037z"/><path fill="#2e186a" d="M217.276 102.002a.443.443 0 0 1-.441-.396c-.433-4.488 5.156-14.483 5.393-14.906a.442.442 0 0 1 .771.428c-.056.102-5.691 10.178-5.285 14.395a.44.44 0 0 1-.398.479l-.042.002zM215.23 105.807a.45.45 0 0 1-.377-.207.436.436 0 0 1 .141-.603c2.893-1.786 7.197-1.648 7.379-1.641a.438.438 0 1 1-.034.876c-.042 0-4.217-.135-6.878 1.508a.43.43 0 0 1-.233.067z"/><path fill="#ff897e" d="M205.692 99.692c-.493.338-1.053.396-1.497.154-8.586-4.687-15.83-13.436-15.945-22.88-.119-9.709 12.02-11.745 16.401 3.296 3.297 11.318 2.511 16.407 1.92 18.233a2.34 2.34 0 0 1-.877 1.199z"/><path fill="#2e186a" d="M205.139 100.416a.44.44 0 0 1-.437-.375c-.035-.235-3.58-23.502-13.323-28.726a.437.437 0 0 1-.178-.595.443.443 0 0 1 .599-.177c4.274 2.291 7.891 7.942 10.756 16.797 2.118 6.547 3.013 12.513 3.021 12.573a.438.438 0 0 1-.438.503"/><path fill="#2e186a" d="M201.772 86.738c-.12 0-.24-.049-.327-.143-2.914-3.18-10.594-6.753-12.879-7.772a.437.437 0 0 1-.221-.58.444.444 0 0 1 .585-.22c2.324 1.037 10.142 4.677 13.171 7.98a.437.437 0 0 1-.327.734zM203.383 91.55a.437.437 0 0 1-.352-.702c.948-1.245 1.196-5.129.679-10.656a.44.44 0 0 1 .4-.478.44.44 0 0 1 .481.397c.385 4.12.55 9.422-.854 11.266a.44.44 0 0 1-.354.173M203.85 95.166a.4.4 0 0 1-.143-.025c-.318-.109-7.851-2.69-11.348-5.498a.437.437 0 0 1-.065-.617.445.445 0 0 1 .622-.065c3.375 2.71 11.003 5.324 11.079 5.35a.436.436 0 0 1 .274.558.44.44 0 0 1-.417.297z"/><path fill="#fe7624" d="M200.337 103.909c.179-1.31-.024-2.42-.455-2.478s-.925.958-1.104 2.268c-.18 1.311.024 2.42.455 2.478.43.058.925-.957 1.104-2.268"/><path fill="#fe7624" d="M199.22 106.172c.255-.307-.298-1.178-1.236-1.946s-1.905-1.141-2.16-.834.298 1.179 1.235 1.946c.938.768 1.906 1.141 2.161.834"/><path fill="#fe7624" d="M201.713 105.71c1.169-.608 1.952-1.414 1.749-1.799-.204-.385-1.317-.205-2.486.404-1.17.608-1.953 1.413-1.749 1.798s1.316.205 2.486-.403M197.646 107.837c1.063-.578 1.768-1.331 1.575-1.681s-1.213-.165-2.276.414-1.769 1.331-1.575 1.681 1.212.165 2.276-.414"/><path fill="#fe7624" d="M201.061 110.169c.364-.164.247-1.191-.26-2.294s-1.212-1.863-1.576-1.699c-.363.165-.247 1.192.26 2.295s1.213 1.863 1.576 1.698M220.811 76.89c.877-1.518.983-3.093.237-3.517-.745-.424-2.061.464-2.938 1.983s-.983 3.095-.237 3.518c.745.424 2.061-.464 2.938-1.983"/><path fill="#fe7624" d="M220.862 80.357c1.749-.035 3.152-.76 3.135-1.62s-1.45-1.53-3.198-1.495c-1.749.035-3.152.761-3.134 1.621.017.86 1.449 1.53 3.197 1.494"/><path fill="#fe7624" d="M217.651 78.912c.617-.455.356-1.84-.583-3.094s-2.201-1.9-2.817-1.446c-.617.455-.356 1.84.583 3.094s2.2 1.9 2.817 1.446"/><path fill="#fe7624" d="M218.801 81.392c.642-1.43.596-2.839-.104-3.149s-1.789.598-2.431 2.027-.596 2.838.104 3.148 1.789-.597 2.431-2.026"/><path fill="#fe7624" d="M216.578 80.107c1.402-.15 2.478-.83 2.403-1.518s-1.272-1.126-2.674-.976-2.478.83-2.403 1.519c.075.688 1.272 1.125 2.674.975"/><path fill="#fff" d="m224.097 115.48-5.807 26.1h-18.448l-5.807-26.1c-.332-1.493.607-2.956 1.896-2.956h26.272c1.289 0 2.226 1.463 1.895 2.956z"/><path fill="#2e186a" d="M218.29 142.019h-18.449a.44.44 0 0 1-.431-.344l-5.807-26.1c-.208-.935.007-1.912.577-2.614.456-.565 1.078-.875 1.75-.875h26.273c.672 0 1.292.31 1.75.875.569.702.783 1.679.576 2.614l-5.806 26.1a.44.44 0 0 1-.431.344zm-18.093-.878h17.739l5.731-25.756c.15-.677 0-1.378-.402-1.875-.286-.352-.663-.547-1.061-.547h-26.272c-.398 0-.774.195-1.061.547-.403.497-.553 1.198-.401 1.875l5.73 25.756z"/><path fill="#fff" d="M182.511 128.597c3.564 2.093 10.738 2.514 9.967 4.848-.145.439-.861 1.528-3.034.871l.207.177q.095.099.157.207c.893 1.547-.775 2.514-3.695 1.487l-.771-.475c1.994.668.944 3.024-1.059 2.387-1.357-.431-4.143-1.296-4.613-1.394-3.809-.598-7.816-2.302-8.125-4.98-.858-7.41 11.088-5.863 11.088-5.863 1.535 1.007 3.998 1.766 7.124 2.589 1.969.518 1.732 2.486.408 2.691l-.677-.1c1.955.625 3.356 1.3 2.993 2.4-.145.439-.861 1.528-3.034.87"/><path fill="#2e186a" d="M184.947 138.648a2.7 2.7 0 0 1-.799-.129c-1.641-.521-4.121-1.286-4.56-1.381-2.093-.33-4.049-.954-5.508-1.758-1.787-.984-2.816-2.231-2.975-3.603-.204-1.756.253-3.193 1.356-4.272 1.289-1.259 3.411-1.991 6.307-2.173 2.118-.133 3.847.086 3.92.095q.101.012.185.068c1.461.958 3.851 1.703 6.993 2.531 1.363.358 1.804 1.313 1.766 2.02a1.61 1.61 0 0 1-.532 1.119c.633.275 1.174.596 1.508.995q.12.14.2.292c.188.353.218.732.087 1.128-.207.625-.95 1.479-2.498 1.365.171.534.095 1.035-.23 1.421-.577.686-1.809.858-3.321.497.011.193-.017.384-.076.561-.221.667-.898 1.224-1.826 1.224zm-4.79-12.478c-2.215 0-5.396.32-7.076 1.962-.912.891-1.271 2.05-1.098 3.545.276 2.377 4.094 4.023 7.755 4.598l.022.003c.558.116 3.817 1.139 4.659 1.407.795.253 1.365-.077 1.515-.533a.65.65 0 0 0-.11-.624l-.714-.441a.435.435 0 0 1-.166-.559.44.44 0 0 1 .541-.228c.375.126.665.303.877.512 1.672.565 2.792.398 3.131-.004.218-.258.083-.624-.069-.887a1 1 0 0 0-.081-.109l-.182-.156a.478.478 0 0 1-.131-.183.4.4 0 0 1-.021-.226.43.43 0 0 1 .245-.324.43.43 0 0 1 .317-.023c2.024.612 2.445-.463 2.486-.588a.53.53 0 0 0-.005-.389l-.02-.042-.005-.011-.004-.005c-.201-.369-.815-.698-1.489-.972-.841-.34-1.923-.651-2.986-.958-1.876-.542-3.817-1.102-5.262-1.951a.436.436 0 0 1-.155-.6.443.443 0 0 1 .604-.154c1.349.793 3.236 1.337 5.059 1.863.626.181 1.229.354 1.789.533l.57.084a.74.74 0 0 0 .597-.696c.021-.398-.26-.902-1.11-1.126-3.165-.833-5.6-1.595-7.165-2.589a22 22 0 0 0-2.319-.118z"/><path fill="#2e186a" d="M185.177 136.098a.4.4 0 0 1-.141-.023 81 81 0 0 0-2.368-.751 47 47 0 0 1-2.27-.735.439.439 0 1 1 .299-.826c.822.293 1.475.491 2.231.723.66.201 1.408.428 2.393.758a.438.438 0 0 1-.142.854zM189.808 135.138a.44.44 0 0 1-.384-.221c-.288-.5-1.676-.905-3.147-1.335-1.284-.375-2.882-.84-4.454-1.545a.437.437 0 0 1-.221-.581.443.443 0 0 1 .585-.219c1.515.679 3.015 1.116 4.339 1.503 1.858.542 3.2.934 3.665 1.741a.435.435 0 0 1-.164.598.46.46 0 0 1-.219.058z"/><path fill="#fff" d="m172.354 133.547-13.271-1.205s-2.157-4.951 2.475-10.35l9.276 2.37c1.094-.66 3.497-.969 4.991-1.574 1.747-.707 7.032-.512 8.328-1.158 2.033-1.01 3.515 2.737-1.321 3.974l-.262.075s-2.859.056-4.213 2.377c-1.353 2.323-2.79 2.044-2.79 2.044"/><path fill="#2e186a" d="M172.355 133.986q-.021 0-.041-.002l-13.272-1.205a.45.45 0 0 1-.366-.263c-.091-.213-2.211-5.265 2.545-10.808a.44.44 0 0 1 .447-.141l9.104 2.326c.674-.354 1.639-.598 2.659-.854.791-.198 1.606-.405 2.228-.656.951-.384 2.774-.514 4.539-.638 1.572-.111 3.198-.227 3.759-.506.651-.322 1.347-.28 1.867.113.552.419.799 1.143.645 1.891-.122.598-.712 2.068-3.523 2.785l-.25.072a.5.5 0 0 1-.115.018c-.024 0-2.631.086-3.838 2.159-1.494 2.565-3.186 2.269-3.259 2.255a.439.439 0 1 1 .17-.86c.039.005 1.169.149 2.323-1.831 1.363-2.341 4.067-2.572 4.525-2.595l.21-.06c1.629-.415 2.704-1.205 2.891-2.115.085-.416-.035-.807-.316-1.019-.252-.192-.582-.2-.934-.025-.718.356-2.283.467-4.091.595-1.616.114-3.446.243-4.267.575-.679.275-1.526.488-2.344.695-.996.251-2.023.508-2.585.847a.45.45 0 0 1-.34.049l-9.007-2.301c-3.633 4.396-2.645 8.441-2.316 9.444l12.992 1.179a.44.44 0 0 1-.04.876"/><path fill="#5d21cf" d="m86.207 129.63-.672 17.588 46.325.877-1.862-19.875s-2.132-2.005 1.768-16.49c.76-2.823-3.801-6.937-3.853-9.945l16.163 6.096-2.126-5.544c-3.829-9.985-11.581-26.406-21.942-27.35l-9.175-.084-.235 3.048-21.77 1.662-.13-.535c-.972.24-4.43.965-7.841 1.668-4.138.853-7.246 4.175-7.865 8.242l13.215 40.64zm-.028-16.257.026-.21v.216z"/><path fill="#5d21cf" d="m142.726 104.362 5.304 13.683 21.394 4.561-2.121 11.052s-29.088.223-32.003-2.456c-4.774-4.386-9.902-28.265-9.902-28.265l3.36-4.21z"/><path fill="#2e186a" d="m56.784 141.543 164.415.514.503 6.389H56.534zM125.243 96.617a.44.44 0 0 1-.398-.246l-3.23-6.522a.437.437 0 0 1 .201-.588.445.445 0 0 1 .593.2l3.23 6.522a.437.437 0 0 1-.396.634"/><path fill="#fe7624" d="M89.626 75.437c-1.982 0-4.038-2.031-4.9-4.982-.486-1.668-.5-3.4-.038-4.754a.443.443 0 0 1 .838.281c-.405 1.188-.386 2.73.051 4.228.815 2.793 2.845 4.717 4.528 4.289.237-.06.478.08.538.316a.437.437 0 0 1-.319.533q-.345.088-.698.088zM116.498 71.038c-1.982 0-4.038-2.032-4.899-4.982-.486-1.669-.501-3.4-.039-4.754a.443.443 0 0 1 .838.28c-.405 1.188-.386 2.73.051 4.228.815 2.793 2.845 4.717 4.528 4.29a.437.437 0 1 1 .22.85 2.9 2.9 0 0 1-.699.086z"/><path fill="#2e186a" d="M83.876 43.19c3.763-3.578 4.44-19.889-8.227-29.15-12.822-9.372-20.885 2.914-22.617 6.104-1.733 3.187-2.28 11.41 8.575 17.725 10.856 6.313 17.973 9.406 22.27 5.32"/><path fill="#5d21cf" d="m90.83 49.482-.237.198c-1.412 1.186-3.6 1.037-4.883-.334l-3.586-3.826c-1.283-1.37-1.177-3.442.235-4.63l.237-.197c1.413-1.186 3.6-1.037 4.884.333l3.585 3.826c1.284 1.37 1.178 3.442-.235 4.63"/><path fill="#2e186a" d="M97.513 54.202c4.576 4.593 10.66 6.174 13.59 3.532s1.595-8.507-2.981-13.1c-4.576-4.592-10.66-6.173-13.59-3.53-2.93 2.641-1.594 8.506 2.981 13.098"/><path fill="#2e186a" d="M100.088 54.395c-3.747 5.198-8.786 7.675-13.042 7.572-4.52-.11-7.815-9.822-4.068-15.018 3.747-5.198 13.97-8.603 17.501-6.242 3.531 2.363 3.356 8.49-.391 13.688"/><path fill="#fff" d="M90.514 63.099c.634-1.92-.501-4.01-2.535-4.672s-4.197.358-4.83 2.277c-.634 1.919.5 4.01 2.535 4.671 2.034.662 4.197-.358 4.83-2.276"/><path fill="#2e186a" d="M86.948 66.012a4.5 4.5 0 0 1-1.402-.225 4.38 4.38 0 0 1-2.52-2.073 3.95 3.95 0 0 1-.299-3.152c.71-2.146 3.124-3.293 5.388-2.558 2.261.735 3.525 3.079 2.818 5.224-.345 1.044-1.098 1.884-2.12 2.366a4.36 4.36 0 0 1-1.865.416zm-.23-7.352c-1.415 0-2.709.84-3.151 2.177a3.09 3.09 0 0 0 .237 2.463 3.5 3.5 0 0 0 2.017 1.656 3.54 3.54 0 0 0 2.614-.15 3.13 3.13 0 0 0 1.66-1.848c.557-1.686-.454-3.533-2.253-4.12a3.6 3.6 0 0 0-1.12-.178z"/><path fill="#fff" d="M116.743 58.494c.633-1.919-.502-4.01-2.536-4.672-2.034-.66-4.197.359-4.83 2.277-.634 1.919.501 4.01 2.536 4.672 2.034.66 4.196-.358 4.83-2.277"/><path fill="#2e186a" d="M113.166 61.407c-.461 0-.931-.072-1.395-.223-2.263-.735-3.527-3.078-2.818-5.224.345-1.044 1.098-1.884 2.12-2.366a4.43 4.43 0 0 1 3.267-.193 4.38 4.38 0 0 1 2.52 2.073c.538.99.644 2.109.299 3.153-.562 1.705-2.205 2.78-3.993 2.78m-.228-7.354c-.512 0-1.018.11-1.485.332a3.13 3.13 0 0 0-1.66 1.847c-.557 1.686.454 3.533 2.252 4.119 1.799.584 3.715-.312 4.272-1.998a3.09 3.09 0 0 0-.237-2.463 3.5 3.5 0 0 0-2.015-1.656 3.6 3.6 0 0 0-1.128-.18z"/><path fill="#fff" d="m104.887 70.464 1.731 5.186 4.708-.304c.458.642 4.335 12.94-7.509 14.67-7.771 1.134-13.2-4.502-16.972-10l6.471-1.379-4.27-14.769 15.842 6.598z"/><path fill="#2e186a" d="M101.845 90.598c-2.885 0-5.657-.918-8.267-2.739-2.433-1.698-4.755-4.183-7.097-7.6a.44.44 0 0 1-.045-.41.44.44 0 0 1 .319-.266l6.008-1.28-4.141-14.319a.44.44 0 0 1 .13-.45.45.45 0 0 1 .466-.076l15.842 6.597c.118.05.209.146.249.267l1.625 4.865 4.367-.283c.152-.01.301.06.389.184.384.537 2.02 5.732.207 9.935-1.298 3.01-3.994 4.835-8.013 5.42q-1.027.15-2.037.15zM87.584 80.305c2.153 3.051 4.284 5.291 6.501 6.839 3.027 2.112 6.279 2.931 9.668 2.438 3.581-.523 6.01-2.09 7.219-4.654 1.719-3.645.485-8.077.084-9.122l-4.408.284a.444.444 0 0 1-.449-.3l-1.67-4.996-14.806-6.166 4.017 13.89a.43.43 0 0 1-.045.346.45.45 0 0 1-.287.203l-5.824 1.24z"/><path fill="#fff" d="M112.028 56.402c2.077 8.357-1.623 16.203-8.268 17.523-6.644 1.321-13.715-4.382-15.794-12.739-2.078-8.357 1.623-16.202 8.267-17.523 6.645-1.321 13.716 4.382 15.795 12.74"/><path fill="#2e186a" d="M101.835 74.553c-6.225 0-12.373-5.527-14.297-13.262-1.195-4.806-.569-9.615 1.72-13.192 1.677-2.62 4.06-4.303 6.891-4.866 6.862-1.365 14.179 4.496 16.311 13.064 1.195 4.807.569 9.615-1.72 13.192-1.677 2.62-4.06 4.303-6.891 4.866-.668.133-1.342.197-2.012.197zm-3.661-30.641q-.929 0-1.852.18c-2.588.514-4.774 2.064-6.317 4.477-2.16 3.377-2.746 7.937-1.607 12.514 2.019 8.118 8.872 13.686 15.278 12.414 2.588-.514 4.774-2.063 6.317-4.477 2.159-3.375 2.746-7.937 1.608-12.513-1.825-7.34-7.603-12.595-13.427-12.595"/><path fill="#2e186a" d="M101.574 62.767a.438.438 0 0 1-.069-.872l2.22-.36-2.447-5.963a.437.437 0 0 1 .242-.571.443.443 0 0 1 .577.24l2.479 6.041a.8.8 0 0 1-.044.702.82.82 0 0 1-.582.404l-2.304.372a1 1 0 0 1-.072.005zM93.71 55.092l-.404-.178-.41-.16c.054-.14.63-1.367 3.813-1.822a.438.438 0 1 1 .126.868c-2.644.378-3.12 1.283-3.124 1.292M107.835 53.397a.44.44 0 0 1-.251-.077c-1.746-1.193-3.362-.509-3.378-.502a.443.443 0 0 1-.583-.224.437.437 0 0 1 .226-.58c.085-.036 2.088-.887 4.235.581.202.137.251.41.113.61a.44.44 0 0 1-.364.19zM97.537 59.435c.513-.049.87-.704.796-1.464s-.55-1.337-1.063-1.288c-.513.05-.87.705-.796 1.465s.55 1.336 1.063 1.287M106.354 58.635c.503-.101.786-.793.632-1.544-.154-.75-.687-1.277-1.19-1.175s-.786.792-.632 1.543.686 1.278 1.19 1.176M90.494 44.98s4.884 2.004 4.588 5.077l20.808-1.35s2.164-15.67-22.724-8.172z"/><path fill="#2e186a" d="M91.944 45.679s1.648 10.267-5.035 13.074l-.117-9.09z"/><path fill="#fe7624" d="M117.087 70.964a.437.437 0 0 1-.11-.863l.055-.014c1.669-.479 2.39-3.245 1.575-6.042-.412-1.412-1.138-2.636-2.047-3.445-.851-.76-1.752-1.053-2.536-.828a.44.44 0 1 1-.245-.844c1.087-.312 2.286.05 3.371 1.018 1.029.917 1.848 2.287 2.306 3.854.981 3.365.023 6.494-2.18 7.127l-.08.021a.5.5 0 0 1-.111.014zM90.213 75.364a.437.437 0 0 1-.11-.863l.055-.014c1.669-.48 2.39-3.246 1.575-6.042-.412-1.412-1.138-2.637-2.047-3.445-.85-.76-1.752-1.053-2.536-.828a.44.44 0 1 1-.246-.844c1.088-.312 2.287.049 3.372 1.017 1.03.918 1.848 2.288 2.306 3.855.981 3.364.023 6.494-2.18 7.127l-.08.021a.5.5 0 0 1-.11.014z"/><path fill="#2e186a" d="M101.016 67.48c-.85 0-1.971-.161-3.281-.73a.437.437 0 0 1-.228-.577.443.443 0 0 1 .581-.226c2.6 1.128 4.339.453 4.357.446a.444.444 0 0 1 .576.238.44.44 0 0 1-.236.572c-.046.02-.692.277-1.767.277z"/><path fill="#fff" d="m120.19 124.044 2.778-6.748c.845-1.406-.431-2.635-1.812-1.584a7 7 0 0 0-1.834 2.027c-1.835 3.013-5.903 9.338-5.682 9.095.219-.244 6.552-2.788 6.552-2.788z"/><path fill="#2e186a" d="M113.627 127.274a.44.44 0 0 1-.262-.086c-.325-.244-.134-.558.036-.837.101-.165.247-.403.433-.696.366-.584.877-1.393 1.448-2.297 1.218-1.926 2.734-4.322 3.664-5.847a7.5 7.5 0 0 1 1.943-2.149c.792-.601 1.692-.649 2.293-.119.495.437.741 1.298.186 2.246l-2.766 6.72a.44.44 0 0 1-.244.241c-2.281.915-6.017 2.452-6.429 2.712a.46.46 0 0 1-.302.11zm8.56-11.52c-.23 0-.495.103-.761.305-.52.395-1.13.93-1.724 1.905a505 505 0 0 1-3.67 5.861 525 525 0 0 0-1.25 1.979c.937-.411 2.489-1.06 5.072-2.098l2.707-6.579a.4.4 0 0 1 .03-.059c.319-.53.232-.97.004-1.17a.6.6 0 0 0-.407-.146z"/><path fill="#fff" d="m98.631 121.643 14.649 3.207 7.182-3.639 9.585-2.898c1.172-.342 2.039 1.126 1.139 1.946-.472.428-7.686 2.831-7.686 2.831l9.181-1.023c.946-.1 1.56.988.962 1.721-.597.734-1.681.797-3.128 1.119-.882.197-6.55.865-6.55.865l8.092.556c2 .223 1.936 3.067-1.867 2.59-1.977-.248-4.388-.234-6.063-.691l5.487 1.561c1.796 1.093-.055 3.108-7.775.793-4.698 3.749-7.162 4.449-11.395 1.98-.023-.012-14.2-2.308-14.2-2.308l2.385-8.612z"/><path fill="#2e186a" d="M114.841 134.454c-1.388 0-2.815-.468-4.551-1.472-.874-.147-9.504-1.547-14.115-2.294a.44.44 0 0 1-.355-.549l2.385-8.612a.443.443 0 0 1 .521-.312l14.495 3.171 7.041-3.568a1 1 0 0 1 .073-.029l9.584-2.899a1.6 1.6 0 0 1 1.869.757c.372.652.25 1.429-.302 1.933-.281.256-2.125.949-4.054 1.629l5.203-.58a1.53 1.53 0 0 1 1.503.784c.297.54.241 1.174-.148 1.649-.584.716-1.457.888-2.566 1.105-.254.051-.525.104-.808.167-.3.066-1.114.184-2.074.31l3.549.244h.019c.734.083 1.323.476 1.574 1.051.217.502.143 1.07-.198 1.521-.338.445-1.222 1.154-3.347.888q-.353-.044-.727-.079l.325.093a.4.4 0 0 1 .11.047c.861.523.955 1.181.755 1.621-.759 1.675-5.089 1.077-8.666.033-2.528 2-4.243 2.949-5.882 3.267a6.3 6.3 0 0 1-1.213.117zm-18.04-4.554q13.773 2.232 13.865 2.286c3.883 2.265 6.123 1.865 10.896-1.944a.45.45 0 0 1 .404-.079c5.31 1.593 7.598 1.019 7.826.514.051-.116-.095-.31-.362-.482l-5.425-1.544a.44.44 0 0 1-.304-.54.44.44 0 0 1 .543-.304c1.032.283 2.408.381 3.739.477.759.055 1.542.111 2.264.202 1.211.151 2.155-.052 2.528-.544.154-.203.187-.433.094-.647-.122-.281-.441-.477-.851-.526l-8.084-.555a.44.44 0 0 1-.412-.426.44.44 0 0 1 .389-.445c1.952-.23 5.826-.706 6.507-.857q.438-.094.831-.171c.967-.19 1.667-.328 2.049-.797a.6.6 0 0 0 .059-.679.63.63 0 0 0-.63-.331l-9.18 1.022a.437.437 0 0 1-.189-.85c3.363-1.121 7.148-2.465 7.539-2.749.288-.263.253-.611.119-.846-.135-.235-.435-.467-.845-.347l-9.545 2.886-7.148 3.62a.44.44 0 0 1-.297.037l-14.239-3.117-2.145 7.738z"/><path fill="#5d21cf" d="M88.574 92.592 73.406 87.01l-7.747 36.333c-.514 3.799 1.997 7.355 5.772 8.173l39.084 5.48a2.267 2.267 0 0 0 2.404-1.809l.027-11.906c.258-1.289-.647-2.522-1.963-2.677l-25.57-2.512 3.161-25.498z"/><path fill="#2e186a" d="M80.977 120.155q-.025 0-.05-.003a.44.44 0 0 1-.389-.485c.41-3.612 5.665-3.585 5.89-3.585a.3.3 0 0 1 .07.007l11.682 2.029a.439.439 0 1 1-.152.864l-11.645-2.023c-.418.003-4.66.107-4.968 2.807a.44.44 0 0 1-.438.389"/><path fill="#2e186a" d="M79.696 117.49a.44.44 0 0 1-.272-.093.435.435 0 0 1-.076-.615c.886-1.125 1.955-1.769 3.175-1.913 1.448-.17 2.75.406 3.48.828l2.688-18.591a.442.442 0 0 1 .875.125l-2.787 19.275a.44.44 0 0 1-.274.346.45.45 0 0 1-.438-.063c-.016-.013-1.643-1.263-3.446-1.048-.976.118-1.845.649-2.578 1.583a.44.44 0 0 1-.349.168z"/><path fill="#ff897e" d="M190.75 103.42h-49.958c-.656 0-1.226.491-1.376 1.186l-7.226 33.346h-31.153s-.859 4.405 4.154 4.405h38.051l-.021-.054h39.769c.655 0 1.225-.491 1.375-1.186l7.759-35.803c.21-.966-.464-1.894-1.376-1.894z"/><path fill="#fff" d="M165.259 122.294c-.003-.732.548-1.425 1.231-1.549.684-.125 1.241.368 1.245 1.1.001.414-.177.81-.453 1.103.225.072.438.167.631.293 1.28.833 1.31 2.575.067 3.889s-3.288 1.705-4.57.872c-1.28-.833-1.31-2.575-.067-3.889a4.26 4.26 0 0 1 2.084-1.198 1.24 1.24 0 0 1-.17-.621zM164.316 118.887s1.968-.474 2.094 1.216c0 0-1.57.624-2.094-1.216"/><path fill="#fff" d="M166.739 121.492a.327.327 0 0 1-.318-.421c.053-.177.534-1.747.992-2.284a.328.328 0 1 1 .504.423c-.313.366-.729 1.601-.863 2.047a.33.33 0 0 1-.317.233z"/><path fill="#2e186a" d="M136.843 141.943c-.41 0-.799-.21-1.122-.607-.52-.638-.791-1.679-.63-2.419l7.379-33.78c.189-.873.91-1.484 1.752-1.484a.44.44 0 0 1 .442.439.44.44 0 0 1-.442.438c-.421 0-.787.326-.888.793l-7.378 33.78c-.105.482.102 1.253.452 1.682.085.106.255.281.435.281a.44.44 0 0 1 .442.439.44.44 0 0 1-.442.438"/><path fill="#4d4190" d="M141.327 64.65a1.26 1.26 0 0 1-1.694-.745c-.175-.512-.302-.82-.351-1.072-.068-.345.358-1.045.846-1.878q.385-.655.451-1.104.067-.45-.164-.975-.283-.648-.861-.842a1.6 1.6 0 0 0-1.169.06q-1.171.502-1.036 1.908a1.29 1.29 0 0 1-.957 1.36 1.292 1.292 0 0 1-1.633-1.2q-.037-1.127.412-2.048.742-1.525 2.456-2.263 1.747-.75 3.366-.261t2.288 2.023q.83 1.9-.58 4.024-.611.93-.654 1.32-.016.134.018.318c.1.574-.2 1.144-.738 1.376m1.652 3.358-.106.046a1.457 1.457 0 0 1-1.91-.75 1.437 1.437 0 0 1 .755-1.894l.106-.045a1.46 1.46 0 0 1 1.91.749c.318.73-.02 1.579-.755 1.894M147.923 48.905a1.71 1.71 0 0 1-1.608-1.937c.103-.732.136-1.183.232-1.52.131-.462 1.082-1.057 2.191-1.778q.873-.566 1.228-1.074.357-.508.4-1.287.053-.962-.53-1.548-.585-.584-1.463-.635-1.738-.094-2.438 1.7c-.309.795-1.16 1.246-2.003 1.079a1.748 1.748 0 0 1-1.254-2.454q.649-1.397 1.763-2.25 1.846-1.41 4.387-1.271 2.594.142 4.266 1.72 1.673 1.58 1.546 3.853-.158 2.82-3.185 4.558-1.317.762-1.612 1.215a1.6 1.6 0 0 0-.174.399 1.725 1.725 0 0 1-1.746 1.23m-.052 5.094-.157-.009a1.97 1.97 0 0 1-1.869-2.072 1.976 1.976 0 0 1 2.088-1.854l.157.009a1.97 1.97 0 0 1 1.869 2.072 1.976 1.976 0 0 1-2.088 1.854"/></g></g><defs><clipPath id="a"><path fill="#fff" d="M0 0h284v158.625H0z"/></clipPath><clipPath id="b"><path fill="#fff" d="M52.066 10.58h179.867v137.866H52.066z"/></clipPath></defs></svg>