<svg xmlns="http://www.w3.org/2000/svg" width="288" height="159" fill="none" viewBox="0 0 288 159"><g clip-path="url(#a)"><path fill="#f6f6f6" d="M3 0h282v158.625H3z"/><path fill="#6a6af4" fill-rule="evenodd" d="M133.667 158.709H81.056c-1.812.003-3.447-1.069-4.14-2.715l-12.42-29.519a4.34 4.34 0 0 1 .418-4.13 4.49 4.49 0 0 1 3.723-1.95h52.612c1.812-.003 3.446 1.069 4.14 2.715l12.42 29.521a4.34 4.34 0 0 1-.419 4.129 4.49 4.49 0 0 1-3.723 1.949" clip-rule="evenodd"/><path fill="#fff" fill-rule="evenodd" d="M105.625 135.206s2.095 2.497-.789 3.31c.006 0-2.095-1.901.789-3.31" clip-rule="evenodd"/><path fill="#fff" fill-rule="evenodd" d="M107.775 139.252c-.959-.325-3.074-.43-4.067-.461-.696-.834-2.204-1.284-3.456-1.014-.364.069-.703.23-.986.465a8.44 8.44 0 0 0-3.438-2.383c-3.1-1.197-6.133-.495-6.77 1.563s1.361 4.697 4.462 5.891c3.1 1.195 6.135.495 6.771-1.563.094-.314.13-.643.107-.969.707.274 1.48.341 2.225.193.736-.16 1.213-.543 1.363-1.006 1.108.047 2.718.159 3.386.388a.6.6 0 0 0 .198.033.58.58 0 0 0 .197-1.133z" clip-rule="evenodd"/><path fill="#fff" fill-rule="evenodd" d="M129.957 158.709H59.779l11.789-15.448h51.002z" clip-rule="evenodd"/><path fill="#000091" fill-rule="evenodd" d="M122.57 142.679H71.568a.6.6 0 0 0-.473.232l-11.789 15.448a.581.581 0 0 0 .473.931h70.177c.434 0 .72-.443.536-.829l-7.387-15.448a.59.59 0 0 0-.535-.334m-.376 1.163 6.831 14.285H60.962l10.901-14.285z" clip-rule="evenodd"/><path fill="#000091" fill-rule="evenodd" d="m125.671 156.074-3.574-6.912-1.133.543-5.26 6.879s.962-.348 1.013-.163c.052.184 7.931-.565 8.045-.514q.45.106.909.167" clip-rule="evenodd"/><path fill="#000091" fill-rule="evenodd" d="M121.903 144.299a.594.594 0 0 1 .732-.399.58.58 0 0 1 .405.72c-.386 1.325-.503 3.573-.095 4.761l.071.204.073.204.075.206.076.206.079.206.079.206.081.205.082.204.125.303.127.299.085.197.085.193.086.191.085.186.085.183.043.09.085.177.084.171.083.167.082.161.082.155.08.148.078.143.077.135.076.128.073.12q.182.292.333.472.042.052.111.118l.073.071.084.077.095.084.104.09.112.095.121.1.128.104.134.108.212.167.221.172.307.233.157.118.237.175.237.173.157.113.155.11.227.159.074.052.215.147.137.091.131.086.124.08.116.073.108.066.099.058q.118.068.204.107a.576.576 0 0 1 .286.772.595.595 0 0 1-.785.283l-.076-.037-.085-.044-.092-.051-.1-.057-.107-.064-.113-.07-.119-.075-.189-.122-.132-.087-.205-.139-.212-.146-.145-.102-.222-.156-.224-.162-.225-.165-.075-.055-.168-.125-.215-.163-.211-.162-.206-.16-.199-.157-.128-.103-.184-.15-.116-.096-.111-.094-.105-.09-.05-.044-.095-.084-.088-.08-.081-.076-.072-.071-.064-.065-.054-.06-.024-.028a6 6 0 0 1-.56-.825l-.087-.151-.089-.157-.044-.081-.09-.168-.046-.086-.091-.176-.092-.182-.092-.187-.092-.191-.093-.197-.047-.099-.092-.203-.047-.102-.092-.208-.092-.21-.091-.213-.09-.215-.09-.217-.088-.219-.087-.22-.086-.22-.084-.221-.082-.221-.081-.221-.078-.22-.076-.219c-.497-1.447-.368-3.923.078-5.455" clip-rule="evenodd"/><path fill="#000091" fill-rule="evenodd" d="M121.532 147.142a.594.594 0 0 1 .758-.347c.307.11.465.444.353.746q-.473 1.275-1.174 2.467l-.078.122-.084.129-.092.135-.099.141-.106.147-.112.153-.119.158-.124.163-.064.083-.133.169-.138.174-.144.178-.148.181-.231.278-.159.189-.163.191-.167.194-.17.196-.173.197-.177.199-.179.199-.182.201-.183.2-.186.201-.188.201-.283.3-.191.2-.191.197-.192.197-.193.194-.192.193-.192.19-.192.187-.096.093-.19.182-.19.18-.188.175-.187.172-.092.084-.184.165-.182.16-.179.154a.597.597 0 0 1-.834-.057.573.573 0 0 1 .058-.82l.17-.148.174-.153.175-.157.177-.161.179-.166.181-.17.182-.172.182-.177.184-.178.184-.182.184-.184.184-.186.184-.188.183-.189.183-.19.272-.287.179-.192.267-.288.175-.192.259-.287.169-.189.167-.189.163-.187.161-.185.233-.273.151-.179.147-.176.143-.173.138-.17.197-.247.125-.159.12-.155.114-.15.108-.146.102-.139.096-.134.089-.129.082-.122.038-.058.071-.112c.426-.725.788-1.486 1.08-2.272" clip-rule="evenodd"/><path fill="#000091" fill-rule="evenodd" d="m120.839 155.486.525-.042.273-.021.264-.018.256-.016.369-.02.235-.011.227-.009.219-.007.211-.004q.312-.006.587-.001l.18.005.173.006a8 8 0 0 1 2.276.386c.311.1.479.429.377.734a.593.593 0 0 1-.746.371 6.8 6.8 0 0 0-1.948-.328l-.163-.006-.17-.004-.178-.002h-.186l-.194.003-.202.004-.21.007-.218.008-.226.011-.234.012-.367.023-.255.018-.263.019-.492.039-.577.051-.504.046-1.827.177-.382.034-.277.023-.183.014-.214.013-.141.007-.125.004c-.202.004-.46.044-.766.116l-.145.036-.229.062-.162.047-.167.052-.174.056-.18.06-.186.065-.192.069-.197.073q-.357.132-.743.289l-.245.101-.466.197-1.663.716-.156.065-.022.008a.595.595 0 0 1-.756-.352.58.58 0 0 1 .325-.731l.093-.037 1.729-.745.206-.088.242-.102.102-.042q.488-.2.933-.367l.114-.042.224-.082.109-.039.214-.073.208-.069c.75-.243 1.369-.384 1.86-.404l.137-.005.121-.005.19-.011.165-.012.393-.033.956-.09 1.028-.1.431-.041.4-.036zM114.189 127.34c-.635 1.073-.038 2.493 1.231 3.217 1.268.724 2.821.531 3.456-.542.636-1.073.038-2.493-1.23-3.217s-2.821-.531-3.457.542m1.014.579c.266-.449 1.088-.551 1.848-.117s1.077 1.186.811 1.634c-.266.449-1.088.551-1.848.117s-1.077-1.186-.811-1.634" clip-rule="evenodd"/><path fill="#000091" fill-rule="evenodd" d="M119.435 122.85c2.024-.004 3.852 1.177 4.655 3l.033.075 12.654 30.171a.58.58 0 0 1-.321.76.597.597 0 0 1-.759-.285l-.014-.031-12.653-30.17a3.88 3.88 0 0 0-3.518-2.356H66.83a3.9 3.9 0 0 0-1.88.47.596.596 0 0 1-.803-.228.58.58 0 0 1 .232-.791 5.1 5.1 0 0 1 2.347-.614l.107-.001z" clip-rule="evenodd"/><ellipse cx=".6" cy=".795" fill="#000091" rx=".6" ry=".795" transform="matrix(.50935 -.86056 .86774 .49702 116.523 128.57)"/><path fill="#000091" fill-rule="evenodd" d="M102.421 41.99c.242-1.273 4.402-1.357 4.402-1.357l8.853 13.534a10.01 10.01 0 0 0-.466-11.622c-2.622-3.393-7.119-4.813-11.258-3.554-4.14 1.258-7.038 4.927-7.255 9.184-.218 4.256 2.292 8.193 6.282 9.854-.326-4.426-.755-14.921-.558-16.038" clip-rule="evenodd"/><path fill="#fff" fill-rule="evenodd" d="M160.475 65.627s-14.681 5.14-19.122 12.702c-4.855 0-9.5 5.236-12.051 10.175-1.064-1.94-6.899-12.619-10.146-16.096s-5.266-11.352-5.002-12.744c.265-1.393 2.321-4.294 2.321-4.294l-9.636-14.738s-4.16.074-4.402 1.357c-.243 1.284.361 14.762.69 17.521s3.365 35.578 14.692 44.466c0 2.123 3.192 4.642 7.237 3.758s17.689.042 28.208-11.72c6.292-5.394 8.989-5.394 8.989-5.394z" clip-rule="evenodd"/><path fill="#000091" fill-rule="evenodd" d="m106.828 40.05-.203.006-.197.009q-.152.008-.321.02a15 15 0 0 0-1.579.187l-.083.015-.163.031-.158.032-.153.034c-1.209.279-1.969.717-2.116 1.498a5 5 0 0 0-.046.62l-.006.208-.002.113-.003.242-.001.263v.284l.002.303.005.489.005.346.01.55.013.58.021.816.013.424.027.875.024.674.034.918.037.93.05 1.17.043.928.045.914.046.89.047.858.048.818.037.581.036.55.036.515.036.477.024.294.023.275.024.254.011.119.023.22.203 1.831.108.943.021.177q.081.69.17 1.395l.09.707.094.715.098.724q.126.908.265 1.85c.777 5.241 1.767 10.37 3.018 15.176l.081.31c2.633 9.994 6.073 17.334 10.509 21l.069.055.005.053c.146 1.183 1.034 2.362 2.363 3.162 1.528.92 3.466 1.256 5.462.846l.208-.044.103-.02.108-.019.173-.03.187-.028.203-.029.145-.019.234-.029.253-.029.617-.065 1.521-.153.707-.074.394-.043.383-.044.253-.03a51 51 0 0 0 4.437-.714c3.722-.778 7.171-2.001 10.433-3.852l.193-.11c2.885-1.663 5.534-3.782 7.923-6.417l.132-.147.108-.092.27-.229.268-.223.263-.218.261-.212.257-.206.128-.102.252-.198.25-.193.246-.188.122-.092.241-.18.119-.088.237-.171.117-.084.232-.164.114-.08.227-.157.224-.151.221-.146.217-.141.215-.137.316-.195.206-.124.102-.06.202-.116q.05-.03.1-.057l.197-.11q.44-.24.849-.434a9 9 0 0 1 1.544-.59q.186-.048.323-.07l.071-.01.044-.006.03-.003h.01-.01a.586.586 0 0 0 .589-.622l-1.778-24.993a.59.59 0 0 0-.788-.508l-.188.068-.275.101-.338.128-.244.094-.311.122-.159.063-.325.13-.333.136-.342.142-.35.147q-.178.074-.358.153c-2.41 1.037-4.82 2.23-7.073 3.562l-.165.098-.341.205c-3.837 2.33-6.758 4.824-8.428 7.473l-.035.055-.075.003c-4.218.242-8.571 4.115-11.584 9.416l-.055.098-.163-.296-.311-.56-.317-.566-.16-.286-.327-.58a197 197 0 0 0-3.049-5.222q-.32-.527-.632-1.03l-.309-.498-.153-.244-.241-.38-.175-.276-.259-.403-.254-.391-.167-.255-.165-.25-.164-.243-.16-.24-.159-.233-.235-.34-.153-.22-.152-.214-.149-.21-.147-.203-.145-.197-.142-.192-.21-.278-.137-.178-.135-.172-.132-.166-.066-.08-.129-.158-.126-.152-.186-.215-.121-.137-.059-.066-.117-.127c-1.399-1.498-2.7-4.03-3.692-6.945l-.065-.193-.064-.193-.062-.192-.09-.287-.086-.285-.056-.188-.08-.28-.076-.275-.073-.27-.046-.177-.044-.175-.042-.172-.06-.251-.055-.244-.034-.158-.048-.23-.043-.22-.026-.14-.023-.136-.022-.131-.019-.126-.016-.12-.015-.115-.012-.108-.009-.103-.008-.096-.004-.09-.003-.083.001-.077q.002-.108.016-.184c.035-.181.112-.413.228-.685l.057-.128.061-.134.067-.14.072-.145.038-.074.079-.152.085-.157q.178-.327.388-.679c.252-.421.522-.845.792-1.25l.11-.164.102-.15.145-.21a.57.57 0 0 0 .013-.647l-9.636-14.739a.6.6 0 0 0-.508-.267m-.304 1.175 9.241 14.136-.152.226c-.28.42-.56.86-.823 1.3q-.221.37-.411.719l-.1.186-.094.181-.045.089-.085.173c-.248.513-.413.954-.482 1.321a2.5 2.5 0 0 0-.03.516l.004.116.008.122.01.128.013.134.016.14.019.145.021.15.024.156.013.08.028.162.031.167.033.171.035.176.038.18.041.182.042.187.045.19.048.193.049.195.052.199.082.302.057.205.089.31.062.208.064.21.066.212.067.212.035.107.07.213.072.214c1.023 3.004 2.362 5.628 3.862 7.276l.081.087.11.12.113.127.058.065.117.136.119.142.122.147.125.154.127.16.065.082.13.169.133.174.136.18.208.282.141.195.144.2.219.31.15.215.151.22.154.225.235.347.159.239.242.367.247.379.252.39.256.401.087.136q.449.712.919 1.479l.315.516c.862 1.42 1.741 2.923 2.624 4.473l.408.719.325.576.318.568.312.56.423.767.417.759a.596.596 0 0 0 1.048-.013c2.929-5.67 7.464-9.857 11.524-9.857.211 0 .406-.11.512-.29 1.577-2.685 4.629-5.278 8.724-7.699 2.205-1.304 4.572-2.474 6.938-3.493l.177-.076.347-.147.34-.142.332-.136.162-.067.319-.127.31-.123.426-.164 1.685 23.685-.014.003-.129.032c-.493.129-1.077.344-1.755.666l-.194.094-.196.098-.2.103-.203.107-.205.113q-.26.143-.528.302l-.216.13-.219.134q-.22.136-.448.284l-.228.149-.115.076-.233.158-.236.162-.24.167-.242.173-.245.178q-.247.18-.5.372l-.255.194-.128.099-.259.202-.131.103-.264.21-.133.108-.269.218-.136.112-.273.227-.277.232-.279.239a1 1 0 0 0-.056.054c-2.397 2.68-5.064 4.811-7.978 6.465-3.147 1.785-6.481 2.967-10.088 3.721-1.31.273-2.617.484-4.031.66l-.429.052-.501.058-.39.043-.553.058-1.916.193-.481.053-.26.03-.24.031-.15.02-.212.031-.133.021-.188.032-.118.022-.058.011-.111.023-.055.011c-1.734.379-3.402.101-4.698-.679-1.134-.683-1.819-1.668-1.819-2.511a.58.58 0 0 0-.222-.455c-4.356-3.417-7.821-10.78-10.458-20.91-1.239-4.762-2.223-9.853-2.994-15.056a182 182 0 0 1-.407-2.913l-.092-.707q-.09-.703-.172-1.393l-.085-.717-.288-2.572-.022-.214-.022-.236-.022-.258-.035-.425-.023-.306-.035-.494-.036-.529-.047-.756-.047-.805-.035-.63-.035-.65-.034-.667-.044-.905-.032-.689-.04-.922-.038-.92-.027-.683-.033-.895-.03-.869-.019-.629-.018-.606-.014-.58-.016-.724-.009-.502-.004-.314-.002-.296-.002-.276.001-.375.001-.114.004-.21.002-.097.006-.175c.007-.19.018-.328.033-.406.013-.068.139-.187.42-.316.318-.145.764-.267 1.298-.361.46-.081.957-.137 1.455-.172l.204-.014z" clip-rule="evenodd"/><ellipse cx="117.724" cy="46.517" fill="#000091" rx="11.507" ry="11.319"/><path fill="#000091" fill-rule="evenodd" d="m154.423 158.709 2.913-16.653s47.847-6.205 48.164-5.418 8.534 2.211 10.186 4.414c2.665 3.556 2.46 17.647 2.46 17.647" clip-rule="evenodd"/><path fill="#ff8d7e" fill-rule="evenodd" d="m208.522 113.955 2.468-14.28-4.459-14.576 10.017-17.58-4.002-13.186s-33.846-.906-49.14 8.637l-1.906.776s-11.321-.194-19.26 12.38c0 0 7.142 9.597 11.264 20.668l3.464-1.696c1.808 5.218 4.518 6.364 4.518 6.364s.728 19.23-2.83 28.141c-.931 2.587-.081 6.723.041 7.679s-2.387 7.598-2.387 7.598l3.84 1.548a40.07 40.07 0 0 0 23.512 1.888l32.111-7.142-7.097-10.142z" clip-rule="evenodd"/><path fill="#fff" fill-rule="evenodd" d="M156.318 71.527a.594.594 0 0 1 .744-.377.58.58 0 0 1 .383.732 36.3 36.3 0 0 0-1.796 11.274c0 2.876.336 5.538.896 7.919.183.775.377 1.468.572 2.07l.069.209.052.154.05.142.047.132.047.126.047.12a.58.58 0 0 1-.325.757.594.594 0 0 1-.77-.32l-.035-.085-.051-.136-.05-.136-.053-.147-.054-.159-.057-.17a28 28 0 0 1-.641-2.295 35.8 35.8 0 0 1-.927-8.18c0-3.816.579-7.715 1.852-11.63M202.954 97.18a.6.6 0 0 1 .826.13.576.576 0 0 1-.131.813c-1.912 1.364-4.318 2.226-7.102 2.662-3.073.482-6.342.419-9.453.024a38 38 0 0 1-1.193-.171l-.264-.044-.213-.038-.218-.04-.112-.022a.58.58 0 0 1-.456-.69.59.59 0 0 1 .701-.449l.18.035.25.045.071.012q.186.033.387.064l.274.042.143.02.294.042.307.04c3.008.382 6.171.443 9.116-.019 2.613-.41 4.849-1.21 6.593-2.455M199.007 106.66a.586.586 0 0 1 .567.57l-.001.035-.824 19.797 10.143 15.433a.575.575 0 0 1-.146.784l-.029.02a.6.6 0 0 1-.798-.143l-.02-.03-10.245-15.587a.57.57 0 0 1-.094-.295v-.045l.832-19.982a.586.586 0 0 1 .58-.558z" clip-rule="evenodd"/><path fill="#fff" fill-rule="evenodd" d="m202.188 106.702.035.001a.587.587 0 0 1 .566.571l-.001.035-.821 18.947 10.779 15.367c.178.255.122.6-.122.789l-.029.021a.6.6 0 0 1-.801-.12l-.022-.029-10.891-15.527a.6.6 0 0 1-.105-.314l.001-.042.83-19.142a.587.587 0 0 1 .581-.557M191.525 55.84l-4.337-10.718a9.29 9.29 0 0 0-3.735-6.112 9.58 9.58 0 0 0-7.036-1.718 9.5 9.5 0 0 0-6.211 3.675 9.2 9.2 0 0 0-1.746 6.919l1.786 12.514-4.218 1.81s-2.366 12.07 11.589 23.214c6.925-4.063 21.202-12.495 21.202-30.076z" clip-rule="evenodd"/><path fill="#000091" fill-rule="evenodd" d="m176.455 36.699-.127.018a10.08 10.08 0 0 0-6.598 3.904l-.073.098a9.77 9.77 0 0 0-1.782 7.254l1.722 12.07-3.806 1.633a.58.58 0 0 0-.345.423l-.01.054-.016.102-.019.126-.019.15-.019.173c-.223 2.118-.036 4.803.866 7.842 1.32 4.45 3.967 8.824 8.236 12.906a41 41 0 0 0 2.779 2.424.6.6 0 0 0 .675.048l.601-.353.563-.334.532-.317.502-.303.361-.22.461-.284.335-.208.325-.206.319-.203.313-.203.412-.271.308-.206.204-.138.308-.21.416-.29.317-.222c2.657-1.881 5.004-3.881 7.056-6.11 5.231-5.677 8.157-12.406 8.157-20.498l-.001-.034a.587.587 0 0 0-.63-.546l-6.864.463-4.153-10.263.011.069a9.86 9.86 0 0 0-3.968-6.495 10.18 10.18 0 0 0-7.349-1.843m6.646 2.779a8.7 8.7 0 0 1 3.501 5.73.6.6 0 0 0 .036.13l4.337 10.718.014.033a.59.59 0 0 0 .576.332l6.655-.45-.001.075c-.163 7.475-2.952 13.71-7.843 19.02-1.992 2.162-4.277 4.11-6.871 5.945l-.217.153-.334.234-.331.227-.219.149-.328.22-.33.219-.333.217-.339.217-.229.146-.234.148-.239.148-.367.228-.381.233-.397.24-.558.334-.442.262-.557.329-.157-.128a40 40 0 0 1-2.223-1.97c-4.122-3.94-6.662-8.139-7.926-12.397-.856-2.886-1.032-5.42-.825-7.397l.008-.072.017-.137 3.918-1.68a.58.58 0 0 0 .349-.615l-1.786-12.514a8.62 8.62 0 0 1 1.636-6.492 8.9 8.9 0 0 1 5.708-3.428l.111-.017.121-.017a8.98 8.98 0 0 1 6.48 1.627M159.8 21.592s12.26 9.57 5.025 16.546c0 0-3.205 2.897-5.488 2.013 0 0 2.028-2.531.197-4.154 0 0-1.518 8.086-8.122 5.697 0 0 2.892-3.343 2.709-7.741-.395-9.175 2.326-14.368 5.679-12.361" clip-rule="evenodd"/><path fill="#fff" fill-rule="evenodd" d="M187.359 32.721s1.774-16.111-14.819-18.099c-1.543-.194-12.129-1.243-13.629 7.422-1.002 5.787-.943 12.023-.552 16.836 0 .03.591 9.115 4.494 13.996s11.968 4.032 16.128 1.34c4.159-2.692 4.883-4.02 5.937-7.028s2.433-14.434 2.433-14.434z" clip-rule="evenodd"/><path fill="#000091" fill-rule="evenodd" d="M169.966 13.9c-1.515.012-3.007.18-4.409.55-3.888 1.023-6.523 3.42-7.229 7.496l-.047.275c-.843 5.049-.969 10.802-.536 16.4l.024.304.005.075.018.222.033.356.039.362.029.26.032.264c.148 1.18.357 2.437.64 3.718.811 3.682 2.049 6.835 3.824 9.054 1.936 2.422 4.943 3.661 8.42 3.732 3.051.061 6.245-.808 8.497-2.266l.232-.15.225-.148.218-.146.212-.142.206-.14.199-.139.097-.068.19-.136.185-.133.178-.132.088-.065.17-.13.165-.129.16-.127.155-.127c.737-.611 1.303-1.198 1.774-1.847l.096-.135q.26-.373.488-.781l.082-.15.08-.154.04-.078.079-.159.077-.161.038-.083.076-.167.075-.17.037-.088.074-.177.073-.181.037-.092.073-.188.073-.193.073-.198.073-.202.074-.208.043-.127.022-.068.044-.14.044-.15.045-.158.023-.082.045-.171.046-.18.046-.187.047-.197.047-.204.072-.323.072-.341.049-.238.053-.262.079-.41.054-.282.054-.291.054-.3.082-.463.083-.481.055-.33.112-.682.084-.53.057-.362c.159-1.023.316-2.09.467-3.175l.113-.816.056-.41.158-1.19.112-.868.139-1.105.012-.07.011-.114.012-.167.007-.102c.162-2.704-.221-5.944-1.612-9.064-2.24-5.023-6.607-8.38-13.542-9.267l-.211-.026a20 20 0 0 0-2.646-.145m.01 1.164c.916-.008 1.719.044 2.381.123l.109.013c6.637.795 10.717 3.9 12.815 8.606 1.281 2.872 1.655 5.883 1.523 8.393l-.011.19-.007.102-.012.136.002-.006-.012.065-.1.805-.13 1.01-.126.955-.11.816q-.084.612-.169 1.217l-.115.801a185 185 0 0 1-.234 1.57l-.087.563-.112.703-.083.51-.082.492-.082.475-.081.458-.054.296-.079.428-.079.409-.052.262-.071.348-.045.212-.066.304-.065.287-.043.181-.042.174-.042.165-.041.157-.04.15-.02.07-.04.137-.019.065-.039.123-.019.06-.037.11-.069.193-.067.188-.068.183-.067.178-.067.174-.067.17-.067.164-.068.161-.034.08-.069.155-.034.076-.07.15-.07.146-.072.143-.073.14a7.8 7.8 0 0 1-1.186 1.678l-.108.115q-.302.313-.664.628l-.134.114-.139.116-.218.175-.151.118-.156.119-.161.12-.083.061-.17.123-.175.125-.181.126-.187.13-.193.13-.199.134-.206.137-.321.21-.11.071c-2.048 1.326-5.006 2.132-7.823 2.075-3.146-.064-5.817-1.165-7.515-3.288-1.586-1.984-2.74-4.854-3.517-8.225l-.08-.356a40 40 0 0 1-.622-3.614l-.04-.339-.036-.324-.03-.29-.034-.36-.008-.112-.001-.016q0-.023-.002-.047c-.462-5.707-.337-11.592.546-16.692.621-3.585 2.895-5.654 6.368-6.568 1.297-.342 2.692-.499 4.114-.51" clip-rule="evenodd"/><path fill="#000091" fill-rule="evenodd" d="M163.921 33.342a.585.585 0 0 1 .566.572v.034l-.403 9.41 2.165-.033a.59.59 0 0 1 .599.539l.001.034a.585.585 0 0 1-.547.589l-.035.002-2.791.042a.587.587 0 0 1-.601-.572v-.034l.43-10.026a.587.587 0 0 1 .581-.557z" clip-rule="evenodd"/><ellipse cx=".815" cy="1.269" fill="#000091" rx=".815" ry="1.269" transform="matrix(.9717 -.2362 .24362 .96987 159.61 35.366)"/><ellipse cx=".791" cy="1.306" fill="#000091" rx=".791" ry="1.306" transform="matrix(.92305 -.38469 .39554 .91845 167.863 33.619)"/><path fill="#000091" fill-rule="evenodd" d="M167.291 27.92c1.587-.529 3.035-.262 4.262.499.27.167.508.346.712.526l.041.037.074.068.033.031.057.057.046.048.019.021a.575.575 0 0 1-.053.821.6.6 0 0 1-.809-.026l-.046-.048-.031-.031-.041-.04-.05-.045-.029-.026a4 4 0 0 0-.553-.409c-.947-.586-2.034-.787-3.253-.381a.594.594 0 0 1-.75-.365.58.58 0 0 1 .371-.738M160.265 29.583c.617-.053 1.26.022 1.891.18l.131.033.121.034.111.033.099.031.046.015.082.029.069.025a.58.58 0 0 1 .334.755.594.594 0 0 1-.734.34l-.111-.04-.052-.017a6 6 0 0 0-.387-.11c-.512-.128-1.03-.19-1.496-.149-.595.052-1.039.26-1.328.66l-.033.047a.597.597 0 0 1-.819.166.576.576 0 0 1-.169-.805c.507-.758 1.294-1.145 2.245-1.227M174.112 22.61s-1.274 22.272 13.373 21.285c0 0 8.572-.388 9.796-3.684 0 0-6.689-1.794-6.703-5.316 0 0 8.377 5.754 13.027-.742 0 0-10.121.566-11.237-8.262-.8-6.325-17.237-8.786-18.256-3.28" clip-rule="evenodd"/><path fill="#6a6af4" fill-rule="evenodd" d="m200.508 23.182-8.885-.9c-1.195-5.804-5.06-14.013-17.31-14.835-19.142-1.284-18.828 16.965-18.828 16.965l44.433 4.408c1.583.16 2.998-.972 3.162-2.528s-.988-2.95-2.57-3.11z" clip-rule="evenodd"/><path fill="#000091" fill-rule="evenodd" d="M171.89 42.034a.59.59 0 0 1 .647.521c.128 1.254-.662 2.377-2.008 3.388-.415.311-.857.59-1.298.834l-.111.06-.103.055-.14.072-.082.041-.107.052-.058.027a.596.596 0 0 1-.785-.285.58.58 0 0 1 .259-.757l.166-.08q.173-.084.382-.2a10 10 0 0 0 1.16-.745c1.051-.788 1.624-1.604 1.548-2.346a.585.585 0 0 1 .53-.637" clip-rule="evenodd"/><path fill="#fff" fill-rule="evenodd" d="m206.59 85.292 2.254 7.837 3.875 7.144s12.199 4.46 12.343 4.073c.144-.388 2.251-3.309 2.336-3.673.085-.365-.769-6.842-.769-6.842l.926-5.131-1.032-5.851s-10.376-1.445-19.992 2.251" clip-rule="evenodd"/><path fill="#ff8d7e" fill-rule="evenodd" d="M206.255 85.467s5.77-3.473 21.064-2.01c0 0 3.016-21.701-7.824-27.732s-20.25 6.549-20.25 6.549l7.789 8.792z" clip-rule="evenodd"/><path fill="#000091" fill-rule="evenodd" d="M220.138 65.826c-1.248-5.65-4.743-10.231-7.809-10.231q-.3 0-.591.062h-.028a2.4 2.4 0 0 0-.337.099l-9.068 2.639c-2.51.607-3.687 4.644-2.723 9.624l-14.26 4.199c-1.654-3.518-4.122-5.963-6.36-5.963q-.299 0-.591.062h-.028q-.17.04-.337.099l-9.068 2.641c-2.598.628-3.767 4.932-2.614 10.15 1.248 5.651 4.743 10.232 7.809 10.232q.228-.001.453-.04h.018q.332-.057.638-.193l8.871-2.574q.157-.035.308-.089l.039-.011c1.725-.64 2.743-3.002 2.76-6.16l16.165-4.025c1.301 1.507 2.75 2.418 4.116 2.418q.228-.002.454-.039h.017q.332-.057.639-.194l8.871-2.573c.105-.025.197-.055.308-.09l.039-.011c2.381-.857 3.414-5.023 2.309-10.032" clip-rule="evenodd"/><path fill="#fff" fill-rule="evenodd" d="M224.931 100.548c-5.125-4.567-12.719-4.15-12.719-4.15s-7.885-10.146-8.644-10.921a12.1 12.1 0 0 1-2.186-3.032c.725-.376 2.434-2.893 3.572-4.654-1.183-.878-2.33-2.288-3.272-4.028-.466.844-1.144 2.035-1.231 1.95-.134-.132-2.137-.953-1.935-2.004.201-1.05-1.069-8.145-1.069-8.145s-1.033-.884-2.269-1.115-3.002.953-3.002.953 0-.46-2.035-.658c-2.034-.198-2.365 1.904-2.365 1.904s-.235-.261-1.802 0c-1.567.262-2.135 2.233-2.135 2.233s-2.003-.361-2.202.754-.745 6.074-.745 6.074-.29 3.878 3.481 8.27c3.771 4.393 4.239.852 5.437 4.183 14.899 32.386 28.291 37.661 31.445 37.721s9.506-2.228 8.898-10.982c4.052-4.798-1.49-16.588-3.351-21.363 1.404-3.03.67-7.25-.229-10.34" clip-rule="evenodd"/><path fill="#000091" fill-rule="evenodd" d="M194.142 63.914a3 3 0 0 1 1.146-.036c.54.1 1.071.31 1.583.595.252.14.484.29.691.44l.079.059.036.027.064.05.052.041.042.035c.091.078.155.181.185.295l.018.094.125.713.037.22c.129.75.257 1.527.376 2.29l.07.446.065.434.081.553.073.518.053.388.035.276.043.348.028.246.025.232.015.148.019.21.016.197.009.124.007.117.005.112.004.106.003.1v.093l-.001.087-.002.081-.004.076-.006.068-.004.033-.008.06-.005.027c-.037.189.203.498.717.843l.054.035.066.041.119.071.258.151.043-.069.063-.101.079-.131.126-.215.136-.236.096-.168.202-.36.106-.192a.595.595 0 0 1 1.041.004c.903 1.667 1.997 3.013 3.107 3.837.246.183.308.52.143.776l-.297.458-.145.221-.284.429-.206.308-.201.296-.131.191-.192.277-.187.265-.181.252-.118.162-.115.156-.113.15-.11.144-.108.14-.106.132-.103.127-.1.122-.098.115-.048.055-.094.107-.092.1-.089.094-.086.088-.043.041-.072.07.006.012a11.6 11.6 0 0 0 1.74 2.341l.125.129.068.073.107.122.214.252.343.418.705.873 1.086 1.365 1.13 1.431.975 1.241 1.464 1.87 2.401 3.078h.015q.5-.01 1.11.019l.247.013q.693.038 1.496.136l.14.018c1.917.246 3.814.72 5.592 1.48 1.577.673 3 1.547 4.23 2.643a.576.576 0 0 1 .042.822.6.6 0 0 1-.836.041c-1.13-1.007-2.444-1.814-3.907-2.439-1.669-.712-3.46-1.16-5.274-1.394a23 23 0 0 0-.774-.086l-.246-.022a22 22 0 0 0-.472-.034l-.225-.013-.11-.005-.214-.008-.207-.006-.198-.003h-.283l-.178.003-.201.006a.6.6 0 0 1-.478-.198l-.067-.084-1.292-1.658-1.497-1.917-2.296-2.926-1.42-1.797-.836-1.048-.477-.59-.37-.453-.153-.182-.118-.138-.071-.078-.026-.028a12.7 12.7 0 0 1-2.291-3.177.575.575 0 0 1 .222-.757l.031-.017a1 1 0 0 0 .173-.126l.051-.046.027-.025.057-.056.059-.06.031-.033.097-.106.068-.078.071-.082.111-.134.118-.145.081-.103.084-.108.087-.112.133-.177.139-.187.144-.196.199-.277.206-.292.267-.385.165-.242.226-.334.231-.347.24-.364-.031-.026c-.849-.727-1.66-1.694-2.384-2.835l-.066-.106-.077.132-.138.232-.083.137-.075.121-.07.11-.034.05-.062.092q-.03.044-.057.08c-.062.085-.117.15-.176.206a.7.7 0 0 1-.207.138.6.6 0 0 1-.616-.069l-.013-.01-.256-.14a8 8 0 0 1-.68-.408c-.849-.571-1.342-1.194-1.221-1.966l.012-.07.005-.04.003-.046.003-.054v-.128l-.002-.074-.003-.08-.008-.133-.01-.146-.023-.275-.017-.181-.028-.262-.032-.284-.046-.382-.065-.499-.088-.632-.085-.582-.065-.43-.069-.441c-.095-.607-.195-1.222-.297-1.826l-.131-.772-.076-.436-.044-.031a6 6 0 0 0-.57-.364 4.1 4.1 0 0 0-1.221-.465 1.8 1.8 0 0 0-.68.032 5 5 0 0 0-1.072.381q-.315.151-.589.313l-.088.053-.131.082c-.3.201-.681.087-.844-.187l-.018-.033-.021-.012a1 1 0 0 0-.134-.059l-.042-.015a4 4 0 0 0-.59-.149l-.136-.023-.146-.022-.155-.021-.165-.02-.174-.018c-.683-.066-1.121.182-1.428.672a2.3 2.3 0 0 0-.239.525l-.02.067-.015.056-.011.047-.008.035-.002.012c-.066.421-.538.612-.878.417l-.026-.015-.01-.003a1.5 1.5 0 0 0-.266-.022h-.043a7 7 0 0 0-1.064.108c-.463.077-.86.379-1.191.856a3.8 3.8 0 0 0-.434.842l-.025.071-.015.048a.59.59 0 0 1-.641.419l-.108-.016-.089-.011a3.4 3.4 0 0 0-.767-.005c-.384.046-.556.153-.584.31l-.029.174-.033.224-.047.333-.063.472-.103.82-.105.87-.061.524-.126 1.084-.171 1.527-.001.017-.002.088v.098l.002.108.003.057.006.123q.006.096.016.202l.014.146c.057.532.171 1.116.354 1.744.505 1.731 1.452 3.51 2.952 5.257.877 1.022 1.601 1.642 2.224 1.969.38.2.615.264 1.076.317l.146.016c.671.068 1.02.202 1.399.673.225.28.427.67.635 1.22l.053.144.19.41c6.5 14.038 13.149 23.925 19.604 30.184l.198.191c2.517 2.414 4.892 4.158 7.033 5.276a16 16 0 0 0 1.934.859l.174.061c.715.244 1.322.368 1.775.377 1.767.034 3.884-.671 5.457-2.04 2.041-1.776 3.104-4.521 2.84-8.321a.58.58 0 0 1 .135-.411c1.189-1.407 1.543-3.604 1.177-6.485l-.032-.242-.035-.244-.039-.248-.042-.251-.046-.255-.048-.257-.052-.26-.055-.264a31 31 0 0 0-.185-.808l-.067-.276-.146-.56a51 51 0 0 0-1.341-4.201l-.166-.453-.085-.229-.219-.581-.16-.412-.258-.657-.43-1.077-1.219-3.023a.57.57 0 0 1 .014-.45c.745-1.607.898-3.684.585-6.051l-.035-.255q-.037-.256-.082-.516l-.045-.261a29 29 0 0 0-.158-.795l-.06-.27a24 24 0 0 0-.128-.543l-.069-.274-.036-.138-.074-.277-.077-.278-.08-.28a.58.58 0 0 1 .406-.72.59.59 0 0 1 .731.4l.085.297.082.296q.281 1.034.477 2.024l.054.281c.537 2.902.484 5.49-.373 7.554l-.025.058.978 2.422.602 1.508.294.747.154.4c.752 1.98 1.348 3.763 1.802 5.458l.039.147.076.291.072.288.035.144.067.284q.248 1.06.401 2.039l.04.259.035.257c.414 3.103.057 5.552-1.257 7.267l-.023.029.003.042c.216 3.97-.953 6.957-3.178 8.936l-.076.067c-1.803 1.569-4.21 2.371-6.263 2.331-1.06-.02-2.629-.5-4.414-1.432-2.245-1.173-4.71-2.982-7.305-5.471-6.697-6.422-13.566-16.624-20.253-31.159l-.018-.046-.026-.07-.051-.136-.025-.064-.05-.121a5 5 0 0 0-.095-.216l-.046-.095a2 2 0 0 0-.218-.353c-.107-.134-.175-.18-.383-.212l-.075-.01-.041-.006-.094-.01-.192-.022-.126-.018-.062-.01-.123-.02c-.935-.174-1.725-.582-2.733-1.568l-.133-.132-.135-.139-.069-.072-.14-.148a22 22 0 0 1-.289-.32l-.15-.17-.076-.09c-1.609-1.874-2.634-3.8-3.185-5.686a11 11 0 0 1-.393-1.942 7 7 0 0 1-.047-.935l.004-.096.006-.067.139-1.244.095-.825.125-1.065.119-.987.076-.603.049-.377.053-.39.047-.321.033-.212.012-.07c.139-.775.763-1.16 1.603-1.263q.348-.04.699-.024l.09.005.026-.06q.152-.339.361-.663l.072-.107c.497-.715 1.146-1.21 1.97-1.347.616-.103 1.093-.14 1.458-.12l.03.002.019-.048q.09-.224.214-.44l.052-.085c.531-.846 1.386-1.332 2.551-1.219l.107.01.204.024c.565.068 1.006.163 1.34.282q.213.076.376.168l.033.02.076-.043q.167-.093.346-.181l.12-.058a6 6 0 0 1 1.341-.473" clip-rule="evenodd"/><path fill="#000091" fill-rule="evenodd" d="M192.258 64.82a.586.586 0 0 1 .56.578l-.001.034-.349 6.413a.59.59 0 0 1-.622.55.586.586 0 0 1-.56-.578l.001-.034.349-6.413a.587.587 0 0 1 .587-.55zM187.823 66.066c.315 0 .572.243.59.548l.001.034v6.126a.587.587 0 0 1-.591.582.59.59 0 0 1-.591-.547l-.001-.035v-6.126c0-.321.265-.582.592-.582M183.885 68.298c.315 0 .573.242.591.548l.001.034v5.87a.587.587 0 0 1-.592.582.587.587 0 0 1-.59-.548l-.001-.034v-5.87c0-.321.265-.582.591-.582" clip-rule="evenodd"/></g><defs><clipPath id="a"><path fill="#fff" d="M0 0h287.25v158.625H0z"/></clipPath></defs></svg>