<svg width="288" height="159" viewBox="0 0 288 159" fill="none" xmlns="http://www.w3.org/2000/svg">
<g clip-path="url(#clip0_460_5891)">
<rect x="3" width="282" height="158.625" fill="#F6F6F6"/>
<path fill-rule="evenodd" clip-rule="evenodd" d="M133.667 158.709H81.056C79.2444 158.712 77.6095 157.64 76.9162 155.994L64.4968 126.475C63.9256 125.116 64.082 123.567 64.9136 122.345C65.7453 121.124 67.1423 120.392 68.6366 120.395H121.249C123.061 120.392 124.695 121.464 125.389 123.11L137.809 152.631C138.379 153.99 138.222 155.539 137.39 156.76C136.558 157.981 135.161 158.712 133.667 158.709Z" fill="#6A6AF4"/>
<path fill-rule="evenodd" clip-rule="evenodd" d="M105.625 135.206C105.625 135.206 107.72 137.703 104.836 138.516C104.842 138.516 102.741 136.615 105.625 135.206Z" fill="white"/>
<path fill-rule="evenodd" clip-rule="evenodd" d="M107.775 139.252C106.816 138.927 104.701 138.822 103.708 138.791C103.012 137.957 101.504 137.507 100.252 137.777C99.8884 137.846 99.549 138.007 99.2663 138.242C98.343 137.175 97.1603 136.355 95.8283 135.859C92.7274 134.662 89.6955 135.364 89.0587 137.422C88.422 139.479 90.419 142.119 93.5199 143.313C96.6208 144.508 99.6546 143.808 100.291 141.75C100.385 141.436 100.421 141.107 100.398 140.781C101.105 141.055 101.878 141.122 102.623 140.974C103.359 140.814 103.836 140.431 103.986 139.968C105.094 140.015 106.704 140.127 107.372 140.356C107.436 140.378 107.502 140.39 107.57 140.389C107.86 140.392 108.11 140.187 108.159 139.905C108.208 139.623 108.042 139.348 107.767 139.256L107.775 139.252Z" fill="white"/>
<path fill-rule="evenodd" clip-rule="evenodd" d="M129.957 158.709H59.7793L71.5679 143.261H122.57L129.957 158.709V158.709Z" fill="white"/>
<path fill-rule="evenodd" clip-rule="evenodd" d="M122.57 142.679H71.5676C71.3815 142.679 71.2063 142.765 71.0946 142.911L59.306 158.359C59.0134 158.743 59.2915 159.29 59.779 159.29H129.956C130.39 159.29 130.676 158.847 130.492 158.461L123.105 143.013C123.007 142.809 122.799 142.679 122.57 142.679ZM122.194 143.842L129.025 158.127L60.9624 158.127L71.8633 143.842H122.194Z" fill="#000091"/>
<path fill-rule="evenodd" clip-rule="evenodd" d="M125.671 156.074L122.097 149.162L120.964 149.705L115.704 156.584C115.704 156.584 116.666 156.236 116.717 156.421C116.769 156.605 124.648 155.856 124.762 155.907C125.062 155.978 125.366 156.033 125.671 156.074V156.074Z" fill="#000091"/>
<path fill-rule="evenodd" clip-rule="evenodd" d="M121.903 144.299C121.993 143.99 122.321 143.812 122.635 143.9C122.949 143.989 123.13 144.311 123.04 144.62C122.654 145.945 122.537 148.193 122.945 149.381L123.016 149.585L123.089 149.789L123.164 149.995L123.24 150.201L123.319 150.407L123.398 150.613L123.479 150.818L123.561 151.022L123.686 151.325L123.813 151.624L123.898 151.821L123.983 152.014L124.069 152.205L124.154 152.391L124.239 152.574C124.254 152.605 124.268 152.635 124.282 152.664L124.367 152.841L124.451 153.012L124.534 153.179L124.616 153.34L124.698 153.495L124.778 153.643L124.856 153.786L124.933 153.921L125.009 154.049L125.082 154.169C125.203 154.362 125.315 154.522 125.415 154.641C125.443 154.675 125.48 154.715 125.526 154.759L125.599 154.83L125.683 154.907L125.778 154.991L125.882 155.081L125.994 155.176L126.115 155.276L126.243 155.38L126.377 155.488L126.589 155.655L126.81 155.827L127.117 156.06L127.274 156.178L127.511 156.353L127.748 156.526L127.905 156.639L128.06 156.749L128.287 156.908C128.312 156.926 128.336 156.943 128.361 156.96L128.576 157.107L128.713 157.198L128.844 157.284L128.968 157.364L129.084 157.437L129.192 157.503L129.291 157.561C129.37 157.606 129.438 157.642 129.495 157.668C129.791 157.803 129.919 158.149 129.781 158.44C129.644 158.732 129.292 158.858 128.996 158.723C128.972 158.712 128.947 158.699 128.92 158.686L128.835 158.642L128.743 158.591L128.643 158.534L128.536 158.47L128.423 158.4L128.304 158.325L128.115 158.203L127.983 158.116L127.778 157.977L127.566 157.831L127.421 157.729L127.199 157.573L126.975 157.411L126.75 157.246C126.725 157.228 126.7 157.209 126.675 157.191L126.507 157.066L126.292 156.903L126.081 156.741L125.875 156.581L125.676 156.424L125.548 156.321L125.364 156.171L125.248 156.075L125.137 155.981L125.032 155.891C125.015 155.876 124.998 155.862 124.982 155.847L124.887 155.763L124.799 155.683L124.718 155.607C124.693 155.583 124.669 155.559 124.646 155.536L124.582 155.471L124.528 155.411C124.519 155.402 124.511 155.392 124.504 155.383C124.335 155.182 124.145 154.9 123.944 154.558L123.857 154.407L123.768 154.25C123.753 154.223 123.739 154.196 123.724 154.169L123.634 154.001C123.619 153.973 123.604 153.944 123.588 153.915L123.497 153.739L123.405 153.557L123.313 153.37L123.221 153.179L123.128 152.982C123.112 152.949 123.097 152.916 123.081 152.883L122.989 152.68C122.973 152.646 122.958 152.612 122.942 152.578L122.85 152.37L122.758 152.16L122.667 151.947L122.577 151.732L122.487 151.515L122.399 151.296L122.312 151.076L122.226 150.856L122.142 150.635L122.06 150.414L121.979 150.193L121.901 149.973L121.825 149.754C121.328 148.307 121.457 145.831 121.903 144.299Z" fill="#000091"/>
<path fill-rule="evenodd" clip-rule="evenodd" d="M121.532 147.142C121.644 146.84 121.984 146.685 122.29 146.795C122.597 146.905 122.755 147.239 122.643 147.541C122.327 148.391 121.937 149.213 121.469 150.008C121.444 150.048 121.419 150.088 121.391 150.13L121.307 150.259C121.277 150.303 121.247 150.348 121.215 150.394L121.116 150.535L121.01 150.682L120.898 150.835L120.779 150.993L120.655 151.156C120.634 151.183 120.612 151.211 120.591 151.239L120.458 151.408L120.32 151.582L120.176 151.76L120.028 151.941L119.797 152.219L119.638 152.408L119.475 152.599L119.308 152.793L119.138 152.989L118.965 153.186L118.788 153.385L118.609 153.584L118.427 153.785L118.244 153.985L118.058 154.186L117.87 154.387L117.587 154.687L117.396 154.887L117.205 155.084L117.013 155.281L116.82 155.475L116.628 155.668L116.436 155.858L116.244 156.045C116.212 156.076 116.18 156.107 116.148 156.138L115.958 156.32L115.768 156.5L115.58 156.675L115.393 156.847C115.362 156.875 115.331 156.903 115.301 156.931L115.117 157.096C115.056 157.15 114.995 157.203 114.935 157.256L114.756 157.41C114.51 157.621 114.136 157.596 113.922 157.353C113.707 157.111 113.733 156.744 113.98 156.533C114.036 156.484 114.093 156.435 114.15 156.385L114.324 156.232L114.499 156.075L114.676 155.914L114.855 155.748L115.036 155.578L115.218 155.406L115.4 155.229L115.584 155.051L115.768 154.869L115.952 154.685L116.136 154.499L116.32 154.311L116.503 154.122L116.686 153.932L116.958 153.645L117.137 153.453L117.404 153.165L117.579 152.973L117.838 152.686L118.007 152.497L118.174 152.308L118.337 152.121L118.498 151.936L118.731 151.663L118.882 151.484L119.029 151.308L119.172 151.135L119.31 150.965L119.507 150.718L119.632 150.559L119.752 150.404L119.866 150.254L119.974 150.108L120.076 149.969L120.172 149.835L120.261 149.706L120.343 149.584C120.356 149.565 120.368 149.545 120.381 149.526L120.452 149.414C120.878 148.689 121.24 147.928 121.532 147.142Z" fill="#000091"/>
<path fill-rule="evenodd" clip-rule="evenodd" d="M120.839 155.486L121.364 155.444L121.637 155.423L121.901 155.405L122.157 155.389L122.526 155.369L122.761 155.358L122.988 155.349L123.207 155.342L123.418 155.338C123.626 155.334 123.821 155.334 124.005 155.337L124.185 155.342L124.358 155.348C125.132 155.366 125.899 155.496 126.634 155.734C126.945 155.834 127.113 156.163 127.011 156.468C126.909 156.773 126.575 156.94 126.265 156.839C125.64 156.637 124.988 156.527 124.317 156.511L124.154 156.505L123.984 156.501L123.806 156.499L123.62 156.499L123.426 156.502L123.224 156.506L123.014 156.513L122.796 156.521L122.57 156.532L122.336 156.544L121.969 156.567L121.714 156.585L121.451 156.604L120.959 156.643L120.382 156.694L119.878 156.74L118.051 156.917L117.669 156.951L117.392 156.974L117.209 156.988L116.995 157.001L116.854 157.008L116.729 157.012C116.527 157.016 116.269 157.056 115.963 157.128L115.818 157.164C115.744 157.183 115.668 157.204 115.589 157.226L115.427 157.273L115.26 157.325C115.203 157.343 115.145 157.362 115.086 157.381L114.906 157.441L114.72 157.506L114.528 157.575L114.331 157.648C114.093 157.736 113.846 157.833 113.588 157.937L113.343 158.038L112.877 158.235L111.214 158.951L111.058 159.016L111.036 159.024C110.728 159.132 110.39 158.974 110.28 158.672C110.174 158.38 110.319 158.06 110.605 157.941L110.698 157.904L112.427 157.159L112.633 157.071L112.875 156.969L112.977 156.927C113.303 156.793 113.613 156.671 113.91 156.56L114.024 156.518L114.248 156.436C114.285 156.423 114.321 156.41 114.357 156.397L114.571 156.324L114.779 156.255C115.529 156.012 116.148 155.871 116.639 155.851L116.776 155.846L116.897 155.841L117.087 155.83L117.252 155.818L117.645 155.785L118.601 155.695L119.629 155.595L120.06 155.554L120.46 155.518L120.839 155.486Z" fill="#000091"/>
<path fill-rule="evenodd" clip-rule="evenodd" d="M114.189 127.34C113.554 128.413 114.151 129.833 115.42 130.557C116.688 131.281 118.241 131.088 118.876 130.015C119.512 128.942 118.914 127.522 117.646 126.798C116.377 126.074 114.825 126.267 114.189 127.34ZM115.203 127.919C115.469 127.47 116.291 127.368 117.051 127.802C117.811 128.236 118.128 128.988 117.862 129.436C117.596 129.885 116.774 129.987 116.014 129.553C115.254 129.119 114.937 128.367 115.203 127.919Z" fill="#000091"/>
<path fill-rule="evenodd" clip-rule="evenodd" d="M119.435 122.85C121.459 122.846 123.287 124.027 124.09 125.85L124.123 125.925L136.777 156.096C136.901 156.393 136.757 156.733 136.456 156.856C136.164 156.974 135.832 156.846 135.697 156.571L135.683 156.54L123.03 126.37C122.438 124.964 121.055 124.041 119.512 124.014L119.436 124.014L66.8301 124.014C66.1729 124.01 65.5258 124.172 64.9503 124.484C64.6643 124.64 64.3046 124.537 64.1469 124.256C63.9892 123.974 64.0932 123.621 64.3792 123.465C65.1001 123.074 65.907 122.864 66.7263 122.851L66.8332 122.85L119.435 122.85Z" fill="#000091"/>
<ellipse cx="0.599806" cy="0.795121" rx="0.599806" ry="0.795121" transform="matrix(0.509349 -0.86056 0.867741 0.497017 116.523 128.57)" fill="#000091"/>
<path fill-rule="evenodd" clip-rule="evenodd" d="M102.421 41.9909C102.663 40.7168 106.823 40.6334 106.823 40.6334L115.676 54.1674C118.017 50.5815 117.831 45.9386 115.21 42.5454C112.588 39.1522 108.091 37.7321 103.952 38.9907C99.8126 40.2494 96.9143 43.9184 96.6967 48.1748C96.4791 52.4312 98.9887 56.3678 102.979 58.0285C102.653 53.6031 102.224 43.1079 102.421 41.9909Z" fill="#000091"/>
<path fill-rule="evenodd" clip-rule="evenodd" d="M160.475 65.6268C160.475 65.6268 145.794 70.7678 141.353 78.3289C136.498 78.3289 131.853 83.5649 129.302 88.5042C128.238 86.5649 122.403 75.8855 119.156 72.4084C115.909 68.9313 113.89 61.056 114.154 59.6636C114.419 58.2713 116.475 55.3701 116.475 55.3701L106.839 40.6318C106.839 40.6318 102.679 40.7055 102.437 41.9893C102.194 43.2731 102.798 56.7509 103.127 59.5104C103.456 62.27 106.492 95.0879 117.819 103.976C117.819 106.099 121.011 108.618 125.056 107.734C129.101 106.849 142.745 107.776 153.264 96.0149C159.556 90.6199 162.253 90.6199 162.253 90.6199L160.475 65.6268Z" fill="white"/>
<path fill-rule="evenodd" clip-rule="evenodd" d="M106.828 40.0494L106.625 40.0559L106.428 40.065C106.327 40.0704 106.219 40.0769 106.107 40.0849C105.57 40.1227 105.033 40.1833 104.528 40.2723L104.445 40.2872L104.282 40.318L104.124 40.3504L103.971 40.3844C102.762 40.6626 102.002 41.1014 101.855 41.8823C101.833 41.9967 101.818 42.2089 101.809 42.5026L101.803 42.7103C101.803 42.7469 101.802 42.7844 101.801 42.8229L101.798 43.0648L101.797 43.3282L101.797 43.612L101.799 43.9151L101.804 44.4036L101.809 44.7503L101.819 45.2992L101.832 45.8796L101.853 46.696L101.866 47.12L101.893 47.9945L101.917 48.6692L101.951 49.587L101.988 50.5178L102.038 51.6864L102.081 52.615L102.126 53.5287L102.172 54.419L102.219 55.2772L102.267 56.0948L102.304 56.6761L102.34 57.2262L102.376 57.7413L102.412 58.218L102.436 58.5125L102.459 58.7873L102.483 59.0412C102.486 59.0817 102.49 59.1213 102.494 59.1599L102.517 59.3805L102.72 61.2112L102.828 62.1543L102.849 62.3306C102.903 62.7919 102.96 63.2567 103.019 63.726L103.109 64.4335C103.14 64.6705 103.171 64.9088 103.203 65.1485L103.301 65.8718C103.385 66.4782 103.473 67.0941 103.566 67.7215C104.343 72.963 105.333 78.092 106.584 82.8978L106.665 83.2078C109.298 93.2022 112.738 100.542 117.174 104.208L117.243 104.263L117.248 104.316C117.394 105.499 118.282 106.678 119.611 107.478C121.139 108.398 123.077 108.734 125.073 108.324L125.281 108.28L125.384 108.26L125.492 108.241L125.665 108.211L125.852 108.183L126.055 108.154L126.2 108.135L126.434 108.106L126.687 108.077L127.304 108.012L128.825 107.859L129.532 107.785L129.926 107.742L130.309 107.698L130.562 107.668C132.125 107.48 133.559 107.255 134.999 106.954C138.721 106.176 142.17 104.953 145.432 103.102L145.625 102.992C148.51 101.329 151.159 99.2104 153.548 96.5749L153.68 96.4284L153.788 96.3362L154.058 96.1073L154.326 95.8841L154.589 95.6664L154.85 95.4542L155.107 95.2476C155.15 95.2136 155.192 95.1798 155.235 95.1463L155.487 94.9478C155.571 94.8825 155.654 94.8182 155.737 94.7547L155.983 94.567C156.023 94.5362 156.064 94.5056 156.105 94.4752L156.346 94.2954C156.386 94.2659 156.426 94.2366 156.465 94.2075L156.702 94.0357C156.741 94.0075 156.78 93.9795 156.819 93.9517L157.051 93.7876C157.089 93.7607 157.127 93.734 157.165 93.7075L157.392 93.5512L157.616 93.4L157.837 93.2538L158.054 93.1126L158.269 92.9764C158.375 92.9096 158.48 92.8446 158.585 92.7814L158.791 92.6575C158.825 92.6373 158.859 92.6172 158.893 92.5974L159.095 92.4807C159.128 92.4617 159.162 92.4428 159.195 92.4242L159.392 92.3147C159.685 92.1541 159.968 92.0094 160.241 91.8801C160.853 91.5896 161.367 91.3997 161.785 91.2907C161.909 91.2583 162.017 91.2353 162.108 91.2201L162.179 91.2093L162.223 91.204L162.253 91.2013C162.257 91.2011 162.26 91.2009 162.263 91.2008L162.253 91.2009C162.595 91.2009 162.866 90.915 162.842 90.5785L161.064 65.5855C161.037 65.2014 160.645 64.9489 160.276 65.078L160.088 65.1457L159.813 65.247L159.475 65.3751L159.231 65.4688L158.92 65.5906C158.868 65.6114 158.815 65.6324 158.761 65.6536L158.436 65.784L158.103 65.92L157.761 66.0616L157.411 66.2089C157.293 66.2589 157.173 66.3099 157.053 66.3617C154.643 67.3993 152.233 68.5919 149.98 69.9238L149.815 70.0218L149.474 70.2269C145.637 72.5561 142.716 75.051 141.046 77.7001L141.011 77.7546L140.936 77.7584C136.718 78.0002 132.365 81.8733 129.352 87.1735L129.297 87.272L129.134 86.9763C129.031 86.7904 128.927 86.6038 128.823 86.4161L128.506 85.8497C128.453 85.7547 128.4 85.6593 128.346 85.5636L128.019 84.9842C126.994 83.1703 125.971 81.4118 124.97 79.762C124.757 79.4106 124.546 79.0668 124.338 78.7311L124.029 78.2336C123.978 78.1518 123.927 78.0704 123.876 77.9895L123.635 77.6092L123.46 77.3342L123.201 76.9312L122.947 76.5397L122.78 76.2851L122.615 76.0358L122.451 75.7917L122.291 75.5529L122.132 75.3194L121.897 74.9793L121.744 74.7593L121.592 74.5449L121.443 74.3359L121.296 74.1325L121.151 73.9348L121.009 73.7426L120.799 73.4651L120.662 73.2873L120.527 73.1153L120.395 72.9491C120.373 72.9219 120.351 72.8949 120.329 72.8682L120.2 72.7109L120.074 72.5594C120.011 72.4852 119.949 72.4133 119.888 72.3436L119.767 72.2072C119.748 72.185 119.728 72.163 119.708 72.1413L119.591 72.0141C118.192 70.5162 116.891 67.9845 115.899 65.0688L115.834 64.8759L115.77 64.6832L115.708 64.4911L115.618 64.2041L115.532 63.9194L115.476 63.7311L115.396 63.4517L115.32 63.1764L115.247 62.9059L115.201 62.7287L115.157 62.5541L115.115 62.3824L115.055 62.1308L115 61.887L114.966 61.729L114.918 61.4996L114.875 61.2798L114.849 61.139L114.826 61.003L114.804 60.872L114.785 60.7463L114.769 60.626L114.754 60.5114L114.742 60.4026L114.733 60.3L114.725 60.2036L114.721 60.1138L114.718 60.0306L114.719 59.9544C114.72 59.8818 114.726 59.8199 114.735 59.7696C114.77 59.5888 114.847 59.3575 114.963 59.0852L115.02 58.9567L115.081 58.8226L115.148 58.6831L115.22 58.5384C115.232 58.5139 115.245 58.4891 115.258 58.4642L115.337 58.3121L115.422 58.1554C115.54 57.9377 115.67 57.7104 115.81 57.476C116.062 57.0547 116.332 56.6307 116.602 56.2257L116.712 56.0618L116.814 55.9111L116.959 55.7021C117.097 55.5087 117.101 55.253 116.972 55.0547L107.336 40.3164C107.225 40.1468 107.033 40.0458 106.828 40.0494ZM106.524 41.2254L115.765 55.3608L115.613 55.5874C115.333 56.0076 115.053 56.4476 114.79 56.8871C114.643 57.1339 114.505 57.3741 114.379 57.6058C114.345 57.6688 114.311 57.7309 114.279 57.7921L114.185 57.9733C114.17 58.003 114.155 58.0326 114.14 58.0619L114.055 58.2353C113.807 58.7476 113.642 59.1893 113.573 59.5562C113.547 59.6917 113.537 59.8655 113.543 60.072L113.547 60.1878L113.555 60.3099C113.558 60.3516 113.561 60.3944 113.565 60.4381L113.578 60.5721C113.583 60.6177 113.588 60.6643 113.594 60.7118L113.613 60.8569L113.634 61.0072L113.658 61.1626C113.662 61.1889 113.667 61.2154 113.671 61.2421L113.699 61.4047L113.73 61.5718L113.763 61.7432L113.798 61.9187L113.836 62.0981L113.877 62.2812L113.919 62.4677L113.964 62.6576L114.012 62.8506L114.061 63.0464L114.113 63.2449L114.195 63.5472L114.252 63.7515L114.341 64.0614L114.403 64.2702L114.467 64.4804L114.533 64.6918L114.6 64.9042C114.612 64.9397 114.623 64.9752 114.635 65.0107L114.705 65.2243L114.777 65.4384C115.8 68.4417 117.139 71.066 118.639 72.714L118.72 72.8013C118.756 72.8403 118.793 72.8803 118.83 72.9213L118.943 73.0477C118.962 73.0692 118.982 73.0911 119.001 73.1131L119.118 73.2487L119.237 73.3905L119.359 73.5383L119.484 73.6921L119.611 73.852C119.632 73.8791 119.654 73.9065 119.676 73.9341L119.806 74.1028L119.939 74.2774L120.075 74.4578L120.283 74.7391L120.424 74.9338L120.568 75.1341L120.787 75.4449L120.937 75.6591L121.088 75.8787L121.242 76.1037L121.477 76.4512L121.636 76.6895L121.878 77.0567L122.125 77.4355L122.377 77.8257L122.633 78.2272L122.72 78.3634C123.019 78.8374 123.326 79.3306 123.639 79.8416L123.954 80.3584C124.816 81.7785 125.695 83.2811 126.578 84.8311L126.986 85.5496L127.311 86.1264L127.629 86.6941L127.941 87.2546L128.364 88.0206L128.781 88.78C129.008 89.1929 129.613 89.1854 129.829 88.767C132.758 83.0961 137.293 78.91 141.353 78.91C141.564 78.91 141.759 78.7992 141.865 78.6193C143.442 75.9347 146.494 73.3421 150.589 70.9212C152.794 69.6174 155.161 68.4466 157.527 67.4278L157.704 67.352L158.051 67.2046L158.391 67.0628L158.723 66.9265C158.777 66.9043 158.832 66.8822 158.885 66.8605L159.204 66.7326L159.514 66.6104L159.94 66.4457L161.625 90.1306L161.611 90.134C161.569 90.1438 161.526 90.1545 161.482 90.1661C160.989 90.2945 160.405 90.5104 159.727 90.8321C159.663 90.8625 159.599 90.8937 159.533 90.9256L159.337 91.0238C159.271 91.0573 159.204 91.0916 159.137 91.1267L158.934 91.2343L158.729 91.3467C158.556 91.4424 158.38 91.5431 158.201 91.6489L157.985 91.7783L157.766 91.9127C157.619 92.0039 157.47 92.0985 157.318 92.1965L157.09 92.3459C157.052 92.3712 157.013 92.3968 156.975 92.4225L156.742 92.5796L156.506 92.7419L156.266 92.9093L156.024 93.082L155.779 93.26C155.614 93.3804 155.448 93.5043 155.279 93.6318L155.024 93.8258C154.982 93.8585 154.939 93.8916 154.896 93.9248L154.637 94.1269C154.593 94.161 154.55 94.1954 154.506 94.23L154.242 94.4403C154.198 94.4758 154.153 94.5116 154.109 94.5476L153.84 94.7662C153.795 94.8031 153.75 94.8402 153.704 94.8776L153.431 95.1046L153.154 95.3373L152.875 95.5757C152.855 95.5925 152.837 95.6107 152.819 95.63C150.422 98.3102 147.755 100.441 144.841 102.095C141.694 103.88 138.36 105.062 134.753 105.816C133.443 106.089 132.136 106.3 130.722 106.476L130.293 106.528L129.792 106.586L129.402 106.629L128.849 106.687L126.933 106.88L126.452 106.933L126.192 106.963L125.952 106.994L125.802 107.014L125.59 107.045L125.457 107.066L125.269 107.098L125.151 107.12C125.131 107.123 125.112 107.127 125.093 107.131L124.982 107.154L124.927 107.165C123.193 107.544 121.525 107.266 120.229 106.486C119.095 105.803 118.41 104.818 118.41 103.975C118.41 103.798 118.328 103.63 118.188 103.52C113.832 100.103 110.367 92.7394 107.73 82.6093C106.491 77.8476 105.507 72.7575 104.736 67.5538C104.589 66.5562 104.453 65.5879 104.329 64.6406L104.237 63.9339C104.177 63.4652 104.12 63.0012 104.065 62.5409L103.98 61.8242L103.692 59.2518L103.67 59.0381L103.648 58.8017L103.626 58.5439L103.591 58.1193L103.568 57.8125L103.533 57.3194L103.497 56.7901L103.45 56.0344L103.403 55.2293L103.368 54.5984L103.333 53.9482L103.299 53.2823L103.255 52.3766L103.223 51.6885L103.183 50.7662L103.145 49.8463L103.118 49.1632L103.085 48.2682L103.055 47.3994L103.036 46.7701L103.018 46.164L103.004 45.5846L102.988 44.8601L102.979 44.3575L102.975 44.0438L102.973 43.7484L102.971 43.4725L102.972 43.0975C102.973 43.0585 102.973 43.0205 102.973 42.9834L102.977 42.7723C102.977 42.7391 102.978 42.7069 102.979 42.6756L102.985 42.5006C102.992 42.311 103.003 42.1732 103.018 42.0949C103.031 42.0268 103.157 41.9081 103.438 41.7794C103.756 41.6337 104.202 41.5119 104.736 41.4177C105.196 41.3367 105.693 41.2806 106.191 41.2455L106.395 41.2324L106.524 41.2254Z" fill="#000091"/>
<ellipse cx="117.724" cy="46.5172" rx="11.5067" ry="11.3194" fill="#000091"/>
<path fill-rule="evenodd" clip-rule="evenodd" d="M154.423 158.709L157.336 142.056C157.336 142.056 205.183 135.851 205.5 136.638C205.817 137.425 214.034 138.849 215.686 141.052C218.351 144.608 218.146 158.699 218.146 158.699" fill="#000091"/>
<path fill-rule="evenodd" clip-rule="evenodd" d="M208.522 113.955L210.99 99.6742L206.531 85.0988L216.548 67.5195L212.546 54.3326C212.546 54.3326 178.7 53.427 163.406 62.97L161.5 63.7457C161.5 63.7457 150.179 63.5518 142.24 76.1259C142.24 76.1259 149.382 85.7233 153.504 96.7945L156.968 95.0976C158.776 100.316 161.486 101.462 161.486 101.462C161.486 101.462 162.214 120.692 158.656 129.603C157.725 132.19 158.575 136.326 158.697 137.282C158.819 138.238 156.31 144.88 156.31 144.88L160.15 146.428C167.608 149.401 175.812 150.06 183.662 148.316L215.773 141.174L208.676 131.032L208.522 113.955Z" fill="#FF8D7E"/>
<path fill-rule="evenodd" clip-rule="evenodd" d="M156.318 71.5272C156.418 71.2212 156.751 71.0525 157.062 71.1504C157.373 71.2483 157.544 71.5758 157.445 71.8818C156.21 75.6777 155.649 79.4575 155.649 83.1561C155.649 86.032 155.985 88.6939 156.545 91.0747C156.728 91.8503 156.922 92.5427 157.117 93.1453L157.186 93.354L157.238 93.5077L157.288 93.6503L157.335 93.7818L157.382 93.9076L157.429 94.0271C157.552 94.3247 157.407 94.6642 157.104 94.7852C156.802 94.9063 156.457 94.7632 156.334 94.4656L156.299 94.3797L156.248 94.2442L156.198 94.1082L156.145 93.9608L156.091 93.8022L156.034 93.6325C155.815 92.9695 155.597 92.2016 155.393 91.3371C154.813 88.8737 154.466 86.1245 154.466 83.1561C154.466 79.3408 155.045 75.4416 156.318 71.5272Z" fill="white"/>
<path fill-rule="evenodd" clip-rule="evenodd" d="M202.954 97.1808C203.218 96.9921 203.588 97.0499 203.78 97.3099C203.972 97.57 203.913 97.9338 203.649 98.1225C201.737 99.4874 199.331 100.349 196.547 100.785C193.474 101.267 190.205 101.204 187.094 100.809C186.662 100.754 186.263 100.696 185.901 100.638L185.637 100.594L185.424 100.556L185.206 100.516L185.094 100.494C184.775 100.427 184.57 100.119 184.638 99.8043C184.705 99.4899 185.019 99.2889 185.339 99.3552L185.519 99.3901L185.769 99.4353L185.84 99.4474C185.964 99.4686 186.093 99.4898 186.227 99.5109L186.501 99.5529C186.548 99.5598 186.596 99.5668 186.644 99.5737L186.938 99.6148C187.038 99.6283 187.141 99.6417 187.245 99.655C190.253 100.037 193.416 100.098 196.361 99.6364C198.974 99.2269 201.21 98.4263 202.954 97.1808Z" fill="white"/>
<path fill-rule="evenodd" clip-rule="evenodd" d="M199.007 106.66C199.321 106.672 199.569 106.925 199.574 107.23L199.573 107.265L198.749 127.062L208.892 142.495C209.063 142.755 208.996 143.098 208.746 143.279L208.717 143.299C208.453 143.467 208.103 143.402 207.919 143.156L207.899 143.126L197.654 127.539C197.596 127.45 197.563 127.349 197.56 127.244L197.56 127.199L198.392 107.217C198.404 106.908 198.661 106.664 198.972 106.659L199.007 106.66Z" fill="white"/>
<path fill-rule="evenodd" clip-rule="evenodd" d="M202.188 106.702L202.223 106.703C202.537 106.716 202.784 106.969 202.789 107.274L202.788 107.309L201.967 126.256L212.746 141.623C212.924 141.878 212.868 142.223 212.624 142.412L212.595 142.433C212.336 142.608 211.985 142.553 211.794 142.313L211.772 142.284L200.881 126.757C200.816 126.664 200.78 126.555 200.776 126.443L200.777 126.401L201.607 107.259C201.62 106.95 201.877 106.707 202.188 106.702Z" fill="white"/>
<path fill-rule="evenodd" clip-rule="evenodd" d="M191.525 55.8408L187.188 45.1225C186.817 42.678 185.473 40.4789 183.453 39.0099C181.432 37.541 178.901 36.9229 176.417 37.2918V37.2918C173.933 37.6574 171.699 38.9794 170.206 40.9666C168.714 42.9537 168.086 45.443 168.46 47.886L170.246 60.4L166.028 62.2093C166.028 62.2093 163.662 74.2792 177.617 85.424C184.542 81.3613 198.819 72.9294 198.819 55.3482L191.525 55.8408Z" fill="white"/>
<path fill-rule="evenodd" clip-rule="evenodd" d="M176.455 36.6987L176.328 36.7167C173.689 37.1052 171.315 38.5098 169.73 40.6211L169.657 40.7189C168.124 42.8138 167.483 45.4172 167.875 47.973L169.597 60.0434L165.791 61.6762C165.612 61.7528 165.483 61.9111 165.446 62.0994L165.436 62.1533L165.42 62.2548L165.401 62.3806L165.382 62.5303L165.363 62.7036C165.14 64.8217 165.327 67.5065 166.229 70.5464C167.549 74.9952 170.196 79.3701 174.465 83.4521C175.329 84.2775 176.254 85.0859 177.244 85.8759C177.436 86.0298 177.706 86.049 177.919 85.9239L178.52 85.5709L179.083 85.2371L179.615 84.9201L180.117 84.6172L180.478 84.3977L180.939 84.1134L181.274 83.905L181.599 83.6995L181.918 83.4958L182.231 83.2929L182.643 83.0216L182.951 82.8162L183.155 82.6778L183.463 82.4671L183.879 82.1788L184.196 81.9556C186.853 80.075 189.2 78.0746 191.252 75.8465C196.483 70.1695 199.409 63.4399 199.409 55.3484L199.408 55.3138C199.389 54.9934 199.108 54.7457 198.778 54.768L191.914 55.2315L187.761 44.9684L187.772 45.0369C187.378 42.4396 185.951 40.1031 183.804 38.5423C181.692 37.0075 179.055 36.3461 176.455 36.6987ZM183.101 39.478C184.995 40.8552 186.255 42.9169 186.602 45.2086C186.609 45.2529 186.621 45.2963 186.638 45.3379L190.975 56.0562L190.989 56.0891C191.092 56.3048 191.32 56.4379 191.565 56.4214L198.22 55.9717L198.219 56.0456C198.056 63.5213 195.267 69.7564 190.376 75.0651C188.384 77.2277 186.099 79.1754 183.505 81.0111L183.288 81.1642L182.954 81.3976L182.623 81.6251L182.404 81.774L182.076 81.9945L181.746 82.2127L181.413 82.4299L181.074 82.6475L180.845 82.7935L180.611 82.9407L180.372 83.0895L180.005 83.3165L179.624 83.5495L179.227 83.7897L178.669 84.1237L178.227 84.3862L177.67 84.7149L177.513 84.587C176.729 83.942 175.988 83.2854 175.29 82.6177C171.168 78.6772 168.628 74.478 167.364 70.2203C166.508 67.3342 166.332 64.7993 166.539 62.8233L166.547 62.7506C166.553 62.7032 166.558 62.658 166.564 62.614L170.482 60.9335C170.725 60.8291 170.868 60.5779 170.831 60.3193L169.045 47.8053C168.693 45.5091 169.282 43.1754 170.681 41.3125C172.057 39.4801 174.106 38.251 176.389 37.885L176.5 37.8679L176.621 37.8508C178.911 37.5402 181.238 38.1238 183.101 39.478Z" fill="#000091"/>
<path fill-rule="evenodd" clip-rule="evenodd" d="M159.8 21.5919C159.8 21.5919 172.06 31.1621 164.825 38.1375C164.825 38.1375 161.62 41.0348 159.337 40.1505C159.337 40.1505 161.365 37.6198 159.534 35.9966C159.534 35.9966 158.016 44.0833 151.412 41.6941C151.412 41.6941 154.304 38.3509 154.121 33.9526C153.726 24.778 156.447 19.5847 159.8 21.5919Z" fill="#000091"/>
<path fill-rule="evenodd" clip-rule="evenodd" d="M187.359 32.7213C187.359 32.7213 189.133 16.61 172.54 14.6223C170.997 14.4283 160.411 13.3792 158.911 22.0438C157.909 27.8305 157.968 34.0671 158.359 38.8804C158.359 38.9094 158.95 47.9948 162.853 52.8759C166.756 57.757 174.821 56.9076 178.981 54.216C183.14 51.5243 183.864 50.1959 184.918 47.1881C185.973 44.1803 187.351 32.7543 187.351 32.7543L187.359 32.7213Z" fill="white"/>
<path fill-rule="evenodd" clip-rule="evenodd" d="M169.966 13.9001C168.451 13.9121 166.959 14.0803 165.557 14.4493C161.669 15.4725 159.034 17.8705 158.328 21.9464L158.281 22.2211C157.438 27.2698 157.312 33.0227 157.745 38.6217L157.769 38.9252L157.774 38.9998L157.792 39.2219L157.825 39.5779L157.864 39.9403L157.893 40.1992L157.925 40.4643C158.073 41.6436 158.282 42.9006 158.565 44.1822C159.376 47.8644 160.614 51.0167 162.389 53.2359C164.325 55.6576 167.332 56.8972 170.809 56.9677C173.86 57.0295 177.054 56.1596 179.306 54.7023L179.538 54.5515L179.763 54.4036L179.981 54.2583L180.193 54.1156L180.399 53.9752L180.598 53.837C180.63 53.8141 180.663 53.7914 180.695 53.7687L180.885 53.6334L181.07 53.4999L181.248 53.3681C181.278 53.3462 181.307 53.3244 181.336 53.3027L181.506 53.1729C181.562 53.1298 181.617 53.0869 181.671 53.0442L181.831 52.9166L181.986 52.7898C182.723 52.1789 183.289 51.5916 183.76 50.9432L183.856 50.8081C184.03 50.5588 184.191 50.2998 184.344 50.0266L184.426 49.8761L184.506 49.7226C184.52 49.6967 184.533 49.6708 184.546 49.6446L184.625 49.4863L184.702 49.3246C184.715 49.2974 184.728 49.27 184.74 49.2424L184.816 49.0752L184.891 48.9042C184.903 48.8754 184.916 48.8464 184.928 48.8173L185.002 48.6402L185.075 48.4589C185.088 48.4283 185.1 48.3975 185.112 48.3666L185.185 48.1785L185.258 47.9859L185.331 47.7883L185.404 47.5858L185.478 47.3781L185.521 47.2505C185.528 47.2285 185.536 47.2061 185.543 47.1834L185.587 47.0427L185.631 46.8932L185.676 46.7351C185.684 46.7081 185.691 46.6807 185.699 46.6529L185.744 46.4819L185.79 46.3025L185.836 46.1145L185.883 45.9182L185.93 45.7135L186.002 45.3908L186.074 45.0496L186.123 44.8119L186.176 44.5498L186.255 44.1408L186.309 43.8578L186.363 43.5666L186.417 43.2673L186.499 42.8037L186.582 42.3227L186.637 41.9927L186.749 41.3107L186.833 40.7806L186.89 40.4186C187.049 39.3958 187.206 38.3284 187.357 37.2439L187.47 36.4277C187.489 36.2913 187.507 36.1548 187.526 36.0181L187.684 34.8289L187.796 33.9597L187.935 32.8548C187.94 32.8316 187.944 32.808 187.947 32.7842L187.958 32.6708L187.97 32.5042L187.977 32.4015C188.139 29.6976 187.756 26.4577 186.365 23.3382C184.125 18.3151 179.758 14.9582 172.823 14.0712L172.612 14.045C171.884 13.9536 170.991 13.892 169.966 13.9001ZM169.976 15.0638C170.892 15.0565 171.695 15.1082 172.357 15.1865L172.466 15.1998C179.103 15.9949 183.183 19.1009 185.281 23.8057C186.562 26.6784 186.936 29.6892 186.804 32.1991L186.793 32.3888L186.786 32.4912L186.774 32.6267L186.776 32.6214C186.771 32.6428 186.767 32.6644 186.764 32.6861L186.664 33.4912L186.534 34.5014L186.408 35.456L186.298 36.2722C186.242 36.6796 186.186 37.0855 186.129 37.4885L186.014 38.2901C185.937 38.8213 185.859 39.3456 185.78 39.8594L185.693 40.423L185.581 41.1264L185.498 41.6353L185.416 42.1277L185.334 42.6032L185.253 43.0613L185.199 43.3568L185.12 43.7847L185.041 44.1939L184.989 44.456L184.918 44.8038L184.873 45.0161L184.807 45.3204L184.742 45.6072L184.699 45.7885L184.657 45.9619L184.615 46.1272L184.574 46.2843L184.534 46.4332C184.527 46.4574 184.521 46.4811 184.514 46.5046L184.474 46.6409C184.468 46.6629 184.461 46.6846 184.455 46.7059L184.416 46.8295C184.41 46.8494 184.404 46.869 184.397 46.8881L184.36 46.9988L184.291 47.1919L184.224 47.3799L184.156 47.5629L184.089 47.7412L184.022 47.915L183.955 48.0843L183.888 48.2494L183.82 48.4105C183.809 48.437 183.797 48.4633 183.786 48.4895L183.717 48.6447C183.706 48.6703 183.695 48.6957 183.683 48.721L183.613 48.8708L183.543 49.0172L183.471 49.1604L183.398 49.3006C183.066 49.9246 182.692 50.4608 182.212 50.9783L182.104 51.093C181.902 51.3029 181.682 51.5105 181.44 51.7206L181.306 51.8354L181.167 51.9509C181.096 52.0088 181.024 52.0671 180.949 52.1257L180.798 52.2436L180.642 52.3627L180.481 52.4831C180.453 52.5034 180.426 52.5236 180.398 52.544L180.228 52.6669L180.053 52.7917L179.872 52.9184L179.685 53.0473L179.492 53.1786L179.293 53.3123L179.087 53.4488L178.766 53.6588C178.73 53.6825 178.693 53.7063 178.656 53.7303C176.608 55.0559 173.65 55.8616 170.833 55.8045C167.687 55.7407 165.016 54.6398 163.318 52.5166C161.732 50.5333 160.578 47.6634 159.801 44.2925L159.721 43.9358C159.446 42.691 159.242 41.4685 159.099 40.3225L159.059 39.9834L159.023 39.6594L158.993 39.3688L158.959 39.0086L158.951 38.8966L158.95 38.8808C158.95 38.8653 158.95 38.8499 158.948 38.8345C158.486 33.1271 158.611 27.2418 159.494 22.1419C160.115 18.5572 162.389 16.4876 165.862 15.5735C167.159 15.2322 168.554 15.075 169.976 15.0638Z" fill="#000091"/>
<path fill-rule="evenodd" clip-rule="evenodd" d="M163.921 33.3423C164.236 33.3553 164.483 33.608 164.487 33.9138L164.487 33.948L164.084 43.3582L166.249 43.3251C166.563 43.3203 166.825 43.5585 166.848 43.8636L166.849 43.8977C166.854 44.2075 166.612 44.4645 166.302 44.487L166.267 44.4885L163.476 44.5311C163.147 44.5362 162.88 44.2779 162.875 43.9593L162.875 43.9249L163.305 33.899C163.318 33.5894 163.575 33.3466 163.886 33.3418L163.921 33.3423Z" fill="#000091"/>
<ellipse cx="0.81537" cy="1.26949" rx="0.81537" ry="1.26949" transform="matrix(0.971703 -0.236205 0.243623 0.96987 159.61 35.3662)" fill="#000091"/>
<ellipse cx="0.790526" cy="1.30648" rx="0.790526" ry="1.30648" transform="matrix(0.923047 -0.384687 0.395538 0.918449 167.863 33.6187)" fill="#000091"/>
<path fill-rule="evenodd" clip-rule="evenodd" d="M167.291 27.9193C168.878 27.3914 170.326 27.6582 171.553 28.4186C171.823 28.5858 172.061 28.765 172.265 28.9455L172.306 28.9819L172.38 29.0498C172.391 29.0606 172.402 29.071 172.413 29.0811L172.47 29.1378L172.516 29.1862C172.523 29.1936 172.529 29.2005 172.535 29.2071C172.751 29.4483 172.727 29.8159 172.482 30.0282C172.246 30.2322 171.891 30.2183 171.673 30.0024L171.627 29.9536L171.596 29.9228L171.555 29.8839L171.505 29.8376C171.495 29.8293 171.486 29.8207 171.476 29.8119C171.319 29.6733 171.133 29.5336 170.923 29.4031C169.976 28.8166 168.889 28.6161 167.67 29.0216C167.36 29.1245 167.025 28.9611 166.92 28.6568C166.815 28.3524 166.981 28.0222 167.291 27.9193Z" fill="#000091"/>
<path fill-rule="evenodd" clip-rule="evenodd" d="M160.265 29.583C160.882 29.5295 161.525 29.6052 162.156 29.7625L162.287 29.7964L162.408 29.8299L162.519 29.8626L162.618 29.894C162.634 29.8991 162.649 29.9041 162.664 29.909L162.746 29.9375L162.815 29.9634C163.119 30.0809 163.269 30.4186 163.149 30.7177C163.034 31.006 162.711 31.1531 162.415 31.0578L162.304 31.0183L162.252 31.0012C162.138 30.9636 162.007 30.9258 161.865 30.8904C161.353 30.7625 160.835 30.7016 160.369 30.742C159.774 30.7935 159.33 31.0026 159.041 31.402L159.008 31.449C158.829 31.7174 158.462 31.7919 158.189 31.6153C157.916 31.4387 157.841 31.078 158.02 30.8095C158.527 30.0515 159.314 29.6653 160.265 29.583Z" fill="#000091"/>
<path fill-rule="evenodd" clip-rule="evenodd" d="M174.112 22.6101C174.112 22.6101 172.838 44.8824 187.485 43.8953C187.485 43.8953 196.057 43.5075 197.281 40.2107C197.281 40.2107 190.592 38.4169 190.578 34.8952C190.578 34.8952 198.955 40.649 203.605 34.1525C203.605 34.1525 193.484 34.7188 192.368 25.8913C191.568 19.5655 175.131 17.1046 174.112 22.6101Z" fill="#000091"/>
<path fill-rule="evenodd" clip-rule="evenodd" d="M200.508 23.1821L191.623 22.2823C190.428 16.4781 186.563 8.26926 174.313 7.44702C155.171 6.16323 155.485 24.4116 155.485 24.4116L199.918 28.8195C201.501 28.9802 202.916 27.8484 203.08 26.2917C203.243 24.735 202.092 23.3428 200.51 23.1821H200.508Z" fill="#6A6AF4"/>
<path fill-rule="evenodd" clip-rule="evenodd" d="M171.89 42.0342C172.215 42.0022 172.505 42.2354 172.537 42.5551C172.665 43.8088 171.875 44.9325 170.529 45.9426C170.114 46.2541 169.672 46.5331 169.231 46.7768L169.12 46.8371L169.017 46.892L168.877 46.9643L168.795 47.0055L168.688 47.0569L168.63 47.0841C168.333 47.2184 167.982 47.0906 167.845 46.7987C167.714 46.5172 167.83 46.1859 168.104 46.0422L168.27 45.9622C168.385 45.9055 168.513 45.8386 168.652 45.762C169.048 45.5433 169.445 45.2931 169.812 45.0175C170.863 44.2286 171.436 43.4135 171.36 42.6711C171.328 42.3514 171.565 42.0662 171.89 42.0342Z" fill="#000091"/>
<path fill-rule="evenodd" clip-rule="evenodd" d="M206.59 85.2924L208.844 93.1289L212.719 100.273C212.719 100.273 224.918 104.733 225.062 104.346C225.206 103.958 227.313 101.037 227.398 100.673C227.483 100.308 226.629 93.8309 226.629 93.8309L227.555 88.6996L226.523 82.8489C226.523 82.8489 216.147 81.4042 206.531 85.1004" fill="white"/>
<path fill-rule="evenodd" clip-rule="evenodd" d="M206.255 85.4672C206.255 85.4672 212.025 81.994 227.319 83.4562C227.319 83.4562 230.335 61.756 219.495 55.7249C208.654 49.6938 199.245 62.2737 199.245 62.2737L207.034 71.0663L206.255 85.4672Z" fill="#FF8D7E"/>
<path fill-rule="evenodd" clip-rule="evenodd" d="M220.138 65.8262C218.89 60.1752 215.395 55.5947 212.329 55.5947C212.13 55.5945 211.932 55.6153 211.738 55.6568V55.6568H211.71C211.595 55.6815 211.483 55.7146 211.373 55.7557L202.305 58.395V58.395C199.795 59.002 198.618 63.0395 199.582 68.0195L185.322 72.218C183.668 68.7002 181.2 66.2548 178.962 66.2548C178.764 66.2546 178.565 66.2754 178.371 66.3168V66.3168H178.343C178.229 66.3434 178.117 66.3764 178.006 66.4157L168.938 69.057V69.057C166.34 69.6853 165.171 73.9885 166.324 79.2071C167.572 84.858 171.067 89.4385 174.133 89.4385C174.285 89.4375 174.436 89.4245 174.586 89.3998V89.3998H174.604C174.824 89.3615 175.039 89.2964 175.242 89.2058L184.113 86.6324C184.218 86.6086 184.32 86.5788 184.421 86.5432L184.46 86.5316V86.5316C186.185 85.8916 187.203 83.5296 187.22 80.3725L203.385 76.3467C204.686 77.8535 206.135 78.7649 207.501 78.7649C207.653 78.7639 207.805 78.7509 207.955 78.7261V78.7261H207.972C208.193 78.6879 208.407 78.6228 208.611 78.5322L217.482 75.9588C217.587 75.9336 217.679 75.9045 217.79 75.8696L217.829 75.858V75.858C220.21 75.0008 221.243 70.8353 220.138 65.8262Z" fill="#000091"/>
<path fill-rule="evenodd" clip-rule="evenodd" d="M224.931 100.548C219.806 95.9815 212.212 96.3984 212.212 96.3984C212.212 96.3984 204.327 86.2523 203.568 85.4766C202.685 84.5827 201.948 83.5603 201.382 82.4455C202.107 82.0693 203.816 79.5522 204.954 77.7913C203.771 76.9129 202.624 75.503 201.682 73.7635C201.216 74.6071 200.538 75.7978 200.451 75.7125C200.317 75.5806 198.314 74.7603 198.516 73.7092C198.717 72.6581 197.447 65.5644 197.447 65.5644C197.447 65.5644 196.414 64.6801 195.178 64.4493C193.942 64.2185 192.176 65.4015 192.176 65.4015C192.176 65.4015 192.176 64.9419 190.141 64.7441C188.107 64.5462 187.776 66.6484 187.776 66.6484C187.776 66.6484 187.541 66.3866 185.974 66.6484C184.407 66.9102 183.839 68.8805 183.839 68.8805C183.839 68.8805 181.836 68.5198 181.637 69.6348C181.438 70.7499 180.892 75.7086 180.892 75.7086C180.892 75.7086 180.602 79.5871 184.373 83.9795C188.144 88.3719 188.612 84.8308 189.81 88.1624C204.709 120.548 218.101 125.823 221.255 125.883C224.409 125.943 230.761 123.655 230.153 114.901C234.205 110.103 228.663 98.3125 226.802 93.538C228.206 90.5089 227.472 86.2872 226.573 83.198" fill="white"/>
<path fill-rule="evenodd" clip-rule="evenodd" d="M194.142 63.9144C194.551 63.8291 194.934 63.8115 195.288 63.8776C195.828 63.9784 196.359 64.188 196.871 64.4731C197.123 64.6133 197.355 64.7631 197.562 64.9134L197.641 64.9719C197.653 64.9811 197.665 64.9902 197.677 64.9989L197.741 65.0482L197.793 65.0905L197.835 65.1254C197.926 65.2031 197.99 65.306 198.02 65.4201L198.038 65.5142L198.163 66.2271L198.2 66.4465C198.329 67.1965 198.457 67.9737 198.576 68.7373L198.646 69.1832L198.711 69.6169L198.792 70.1701L198.865 70.6878L198.918 71.0762L198.953 71.3524L198.996 71.7003L199.024 71.9459L199.049 72.1783L199.064 72.3258L199.083 72.536L199.099 72.7328L199.108 72.8566L199.115 72.9743L199.12 73.086L199.124 73.1916L199.127 73.2912L199.127 73.3847L199.126 73.4721L199.124 73.5534L199.12 73.6285L199.114 73.6974C199.112 73.7084 199.111 73.7191 199.11 73.7296L199.102 73.7892C199.1 73.7986 199.098 73.8078 199.097 73.8167C199.06 74.0057 199.3 74.3146 199.814 74.66L199.868 74.6952L199.934 74.7364L200.053 74.8072L200.311 74.9582L200.354 74.8892L200.417 74.7877L200.496 74.6568L200.622 74.442L200.758 74.2061L200.854 74.0379L201.056 73.6774L201.162 73.486C201.386 73.0785 201.982 73.0806 202.203 73.4898C203.106 75.1568 204.2 76.5025 205.31 77.3269C205.556 77.5096 205.618 77.8474 205.453 78.1033L205.156 78.5609L205.011 78.7824L204.727 79.2106L204.521 79.5185L204.32 79.815L204.189 80.0061L203.997 80.2829L203.81 80.5476L203.629 80.8001L203.511 80.9616L203.396 81.1175L203.283 81.2678L203.173 81.4124L203.065 81.5512L202.959 81.6843L202.856 81.8115L202.756 81.9327L202.658 82.0481C202.642 82.0668 202.626 82.0853 202.61 82.1035L202.516 82.2098C202.485 82.2442 202.454 82.2776 202.424 82.31L202.335 82.404L202.249 82.4918C202.234 82.5059 202.22 82.5198 202.206 82.5334L202.134 82.6023L202.14 82.6146C202.617 83.4629 203.201 84.2492 203.88 84.956L204.005 85.0846L204.073 85.158L204.18 85.2804L204.394 85.5325L204.737 85.9498L205.442 86.8228L206.528 88.1877L207.658 89.6191L208.633 90.8602L210.097 92.7292L212.498 95.8078L212.513 95.8077C212.845 95.8025 213.217 95.8077 213.623 95.8266L213.87 95.8396C214.331 95.8665 214.832 95.9107 215.366 95.9761L215.506 95.9937C217.423 96.2399 219.32 96.7145 221.098 97.4738C222.675 98.147 224.098 99.0209 225.328 100.117C225.57 100.333 225.589 100.701 225.37 100.939C225.15 101.177 224.776 101.195 224.534 100.98C223.404 99.9727 222.09 99.1659 220.627 98.5412C218.958 97.8287 217.167 97.3805 215.353 97.1475C215.086 97.1132 214.828 97.0846 214.579 97.061L214.333 97.039C214.171 97.0255 214.014 97.0142 213.861 97.0048L213.636 96.9922C213.599 96.9904 213.562 96.9887 213.526 96.987L213.312 96.9787L213.105 96.9731L212.907 96.97C212.809 96.9691 212.715 96.9691 212.624 96.9699L212.446 96.9727L212.245 96.9792C212.063 96.9892 211.886 96.9157 211.767 96.7814L211.7 96.6972L210.408 95.0386L208.911 93.1219L206.615 90.1956L205.195 88.3985L204.359 87.3511L203.882 86.7601L203.512 86.3084L203.359 86.1262L203.241 85.988L203.17 85.9099L203.144 85.8818C202.219 84.9451 201.446 83.8737 200.853 82.7054C200.714 82.4329 200.813 82.1037 201.075 81.948L201.106 81.9308C201.154 81.9056 201.212 81.8635 201.279 81.8055L201.33 81.759C201.339 81.7508 201.348 81.7423 201.357 81.7335L201.414 81.6783L201.473 81.6174C201.483 81.6068 201.493 81.5959 201.504 81.5848L201.601 81.4788L201.669 81.4014L201.74 81.3187L201.851 81.1849L201.969 81.0398L202.05 80.937L202.134 80.8294L202.221 80.7171L202.354 80.5401L202.493 80.3531L202.637 80.1566L202.836 79.8802L203.042 79.5882L203.309 79.2025L203.474 78.9606L203.7 78.6267L203.931 78.2804L204.171 77.9157L204.14 77.8896C203.291 77.163 202.48 76.1958 201.756 75.0554L201.69 74.9489L201.613 75.0809L201.475 75.3129L201.392 75.4498L201.317 75.5711L201.247 75.6808C201.235 75.6981 201.224 75.7149 201.213 75.7312L201.151 75.8233C201.131 75.8521 201.112 75.8789 201.094 75.9037C201.032 75.9877 200.977 76.0536 200.918 76.1087C200.859 76.1646 200.796 76.2102 200.711 76.2467C200.521 76.3289 200.288 76.3247 200.095 76.178L200.082 76.1671L199.826 76.0273C199.565 75.8848 199.357 75.7625 199.146 75.6204C198.297 75.0489 197.804 74.4263 197.925 73.6544L197.937 73.5844L197.942 73.5447L197.945 73.4979L197.948 73.4441L197.948 73.3835L197.948 73.3162L197.946 73.2423L197.943 73.1618L197.935 73.0292L197.925 72.8827L197.902 72.6084L197.885 72.4265L197.857 72.1646L197.825 71.8813L197.779 71.4987L197.714 71L197.626 70.3677L197.541 69.786L197.476 69.3565L197.407 68.9146C197.312 68.3082 197.212 67.6928 197.11 67.0894L196.979 66.3167L196.903 65.8813L196.859 65.8496C196.689 65.7258 196.497 65.6015 196.289 65.4858C195.881 65.2588 195.467 65.0953 195.068 65.0208C194.884 64.9865 194.654 64.997 194.388 65.0526C194.058 65.1215 193.692 65.2549 193.316 65.4341C193.107 65.5334 192.908 65.6403 192.727 65.7469L192.639 65.8002L192.508 65.8823C192.208 66.0832 191.827 65.969 191.664 65.6954L191.646 65.662L191.625 65.6503C191.59 65.6317 191.546 65.6118 191.491 65.5912L191.449 65.5756C191.296 65.5215 191.101 65.4715 190.859 65.4273L190.723 65.4038C190.676 65.3962 190.627 65.3888 190.577 65.3816L190.422 65.3606L190.257 65.341L190.083 65.3229C189.4 65.2565 188.962 65.5054 188.655 65.9949C188.552 66.1594 188.473 66.3398 188.416 66.5204L188.396 66.5866L188.381 66.6434L188.37 66.6898L188.362 66.7246L188.36 66.7374C188.294 67.1583 187.822 67.3486 187.482 67.1544L187.456 67.1387L187.446 67.1364C187.392 67.1249 187.304 67.1157 187.18 67.114L187.137 67.1137C186.873 67.1137 186.521 67.147 186.073 67.2219C185.61 67.2992 185.213 67.6009 184.882 68.0779C184.735 68.2898 184.613 68.5202 184.515 68.7508C184.49 68.8111 184.467 68.8679 184.448 68.9201L184.423 68.9911L184.408 69.039C184.328 69.3165 184.054 69.4927 183.767 69.4578L183.659 69.4416L183.57 69.4307C183.313 69.4022 183.043 69.3963 182.803 69.4256C182.419 69.4725 182.247 69.5788 182.219 69.7354L182.19 69.9096L182.157 70.1342L182.11 70.4673L182.047 70.9391L181.944 71.7581L181.839 72.6287L181.778 73.1526L181.652 74.2375L181.481 75.7641L181.48 75.7811C181.479 75.8086 181.478 75.8379 181.478 75.8688L181.478 75.9667L181.48 76.0747C181.481 76.0935 181.482 76.1128 181.483 76.1324L181.489 76.2551C181.493 76.3189 181.498 76.3862 181.505 76.4571L181.519 76.6034C181.576 77.1346 181.69 77.7193 181.873 78.3468C182.378 80.0782 183.325 81.8572 184.825 83.604C185.702 84.6257 186.426 85.2456 187.049 85.573C187.429 85.7729 187.664 85.8371 188.125 85.8902L188.271 85.9059C188.942 85.9742 189.291 86.1077 189.67 86.5792C189.895 86.8592 190.097 87.2485 190.305 87.7984L190.358 87.9432L190.548 88.3535C197.048 102.391 203.697 112.278 210.152 118.537L210.35 118.728C212.867 121.142 215.242 122.886 217.383 124.004C218.079 124.367 218.731 124.653 219.317 124.863L219.491 124.924C220.206 125.168 220.813 125.292 221.266 125.301C223.033 125.335 225.15 124.63 226.723 123.261C228.764 121.485 229.827 118.74 229.563 114.94C229.553 114.791 229.601 114.644 229.698 114.529C230.887 113.122 231.241 110.925 230.875 108.044L230.843 107.802C230.832 107.721 230.82 107.64 230.808 107.558L230.769 107.31L230.727 107.059C230.712 106.974 230.697 106.89 230.681 106.804L230.633 106.547C230.616 106.461 230.599 106.374 230.581 106.287L230.526 106.023C230.469 105.759 230.408 105.489 230.341 105.215L230.274 104.939C230.227 104.755 230.179 104.568 230.128 104.379C229.774 103.057 229.329 101.674 228.787 100.178L228.621 99.7251C228.593 99.6491 228.565 99.5728 228.536 99.4962L228.317 98.915L228.157 98.503L227.899 97.8461L227.469 96.7692L226.25 93.7462C226.193 93.6006 226.198 93.4386 226.264 93.2966C227.009 91.6888 227.162 89.612 226.849 87.2446L226.814 86.9899C226.789 86.8193 226.762 86.6473 226.732 86.4739L226.687 86.2128C226.639 85.9507 226.586 85.6855 226.529 85.4175L226.469 85.1485C226.429 84.9686 226.386 84.7875 226.341 84.6052L226.272 84.3309C226.26 84.2851 226.248 84.2391 226.236 84.1932L226.162 83.9164L226.085 83.6379C226.059 83.5449 226.032 83.4515 226.005 83.358C225.915 83.0491 226.097 82.727 226.411 82.6386C226.725 82.5501 227.052 82.7289 227.142 83.0378C227.171 83.1372 227.199 83.2363 227.227 83.3352L227.309 83.6311C227.496 84.3197 227.656 84.995 227.786 85.6547L227.84 85.9365C228.377 88.8379 228.324 91.4258 227.467 93.4902L227.442 93.5484L228.42 95.9696L229.022 97.4781L229.316 98.2253L229.47 98.6258C230.222 100.605 230.818 102.388 231.272 104.083L231.311 104.23L231.387 104.521L231.459 104.809C231.471 104.857 231.482 104.905 231.494 104.953L231.561 105.237C231.726 105.943 231.86 106.623 231.962 107.276L232.002 107.535L232.037 107.792C232.451 110.895 232.094 113.344 230.78 115.059L230.757 115.088L230.76 115.13C230.976 119.1 229.807 122.087 227.582 124.066L227.506 124.133C225.703 125.702 223.296 126.504 221.243 126.464C220.183 126.444 218.614 125.964 216.829 125.032C214.584 123.859 212.119 122.05 209.524 119.561C202.827 113.139 195.958 102.937 189.271 88.4022C189.264 88.3872 189.258 88.372 189.253 88.3564L189.227 88.2853L189.176 88.15C189.167 88.1283 189.159 88.1069 189.151 88.0859L189.101 87.9646C189.069 87.8868 189.037 87.815 189.006 87.7489L188.96 87.6541C188.884 87.503 188.812 87.3867 188.742 87.3007C188.635 87.167 188.567 87.1211 188.359 87.0887L188.284 87.0783C188.271 87.0766 188.257 87.0749 188.243 87.0733L188.149 87.0632C188.084 87.0566 188.02 87.0492 187.957 87.041L187.831 87.0234C187.81 87.0203 187.79 87.0171 187.769 87.0138L187.646 86.9925C186.711 86.8194 185.921 86.4106 184.913 85.4248L184.78 85.2929L184.645 85.1543C184.622 85.1306 184.599 85.1067 184.576 85.0824L184.436 84.9335C184.342 84.8318 184.246 84.7254 184.147 84.6139L183.997 84.4431C183.972 84.414 183.947 84.3845 183.921 84.3548C182.312 82.48 181.287 80.5541 180.736 78.668C180.533 77.9739 180.407 77.3228 180.343 76.7257C180.302 76.3461 180.29 76.0318 180.296 75.7913L180.3 75.6952L180.306 75.6276L180.445 74.3838L180.54 73.5588L180.665 72.4937L180.784 71.5067L180.86 70.9038L180.909 70.5269L180.962 70.1363L181.009 69.8158L181.042 69.6042L181.054 69.5341C181.193 68.7592 181.817 68.3737 182.657 68.271C182.888 68.2428 183.123 68.2369 183.356 68.2473L183.446 68.2523L183.472 68.1913C183.574 67.967 183.693 67.7438 183.833 67.5289L183.905 67.4221C184.402 66.7066 185.051 66.2123 185.875 66.0747C186.491 65.9718 186.968 65.9352 187.333 65.9547L187.363 65.9566L187.382 65.9087C187.442 65.7601 187.513 65.613 187.596 65.4697L187.648 65.3842C188.179 64.5379 189.034 64.0517 190.199 64.165L190.306 64.1757L190.51 64.1988C191.075 64.2674 191.516 64.3623 191.85 64.481C191.992 64.5311 192.117 64.5876 192.226 64.6494L192.259 64.6685L192.335 64.6257C192.446 64.5645 192.562 64.5039 192.681 64.445L192.801 64.3866C193.257 64.1698 193.708 64.0052 194.142 63.9144Z" fill="#000091"/>
<path fill-rule="evenodd" clip-rule="evenodd" d="M192.258 64.8202C192.573 64.8367 192.816 65.0921 192.818 65.398L192.817 65.4322L192.468 71.8453C192.451 72.1662 192.172 72.4123 191.846 72.3952C191.531 72.3786 191.288 72.1232 191.286 71.8173L191.287 71.7831L191.636 65.37C191.653 65.0606 191.912 64.8207 192.223 64.8193L192.258 64.8202Z" fill="#000091"/>
<path fill-rule="evenodd" clip-rule="evenodd" d="M187.823 66.0664C188.138 66.0664 188.395 66.3086 188.413 66.614L188.414 66.6482V72.7743C188.414 73.0956 188.149 73.3561 187.823 73.3561C187.508 73.3561 187.25 73.1139 187.232 72.8085L187.231 72.7743V66.6482C187.231 66.3269 187.496 66.0664 187.823 66.0664Z" fill="#000091"/>
<path fill-rule="evenodd" clip-rule="evenodd" d="M183.885 68.2983C184.2 68.2983 184.458 68.5405 184.476 68.8459L184.477 68.8801V74.7502C184.477 75.0715 184.212 75.332 183.885 75.332C183.57 75.332 183.313 75.0898 183.295 74.7844L183.294 74.7502V68.8801C183.294 68.5588 183.559 68.2983 183.885 68.2983Z" fill="#000091"/>
</g>
<defs>
<clipPath id="clip0_460_5891">
<rect width="287.25" height="158.625" fill="white"/>
</clipPath>
</defs>
</svg>
