<svg width="284" height="159" viewBox="0 0 284 159" fill="none" xmlns="http://www.w3.org/2000/svg">
<g clip-path="url(#clip0_460_5706)">
<rect x="1" width="282" height="158.625" fill="#E8EDFF"/>
<g clip-path="url(#clip1_460_5706)">
<path d="M134.758 138.625C132.909 145.153 132.423 145.499 132.423 145.499C132.415 145.614 132.407 145.726 132.4 145.834C132.692 147.228 133.92 150.662 133.92 150.662C134.912 153.747 133.041 153.239 131.93 152.12C132.111 152.326 132.299 152.514 132.49 152.675C133.407 153.785 132.593 155.208 132.103 155.381C131.618 155.552 130.622 154.332 128.973 152.673L129.094 152.861C132.024 155.634 132.38 158.503 130.219 157.805C130.061 157.754 129.702 157.464 129.222 157.015C129.346 157.842 129.212 158.507 128.351 158.337C127.344 158.137 125.276 155.112 123.783 152.786C121.279 148.886 121.645 143.173 121.645 143.173C121.645 143.173 121.755 142.045 121.805 141.61C121.805 141.6 121.805 141.59 121.807 141.58L121.933 139.827C122.336 134.259 126.282 129.505 131.754 128.232C132.093 128.154 132.437 128.089 132.783 128.04L134.758 138.63V138.625Z" fill="#C1C1FB"/>
<path d="M132.671 127.265C133.09 127.205 133.481 127.485 133.558 127.898L135.526 138.454C135.539 138.509 135.546 138.566 135.546 138.625V138.63C135.546 138.717 135.531 138.8 135.505 138.878C134.585 142.125 133.997 143.86 133.632 144.793C133.45 145.26 133.317 145.543 133.219 145.72C133.212 145.734 133.203 145.747 133.195 145.761C133.195 145.765 133.194 145.768 133.194 145.772C133.344 146.433 133.689 147.536 134.018 148.526C134.189 149.038 134.35 149.507 134.469 149.848C134.529 150.019 134.577 150.157 134.611 150.253C134.628 150.3 134.641 150.338 134.65 150.363C134.654 150.375 134.658 150.385 134.66 150.391L134.664 150.4L134.672 150.425C134.932 151.235 135.043 151.917 134.964 152.461C134.924 152.742 134.827 153.024 134.638 153.261C134.441 153.507 134.182 153.66 133.903 153.728C133.833 153.745 133.763 153.757 133.693 153.764C133.699 154.059 133.656 154.342 133.582 154.597C133.481 154.945 133.32 155.258 133.133 155.508C132.963 155.735 132.705 156.001 132.367 156.12C132.331 156.132 132.294 156.142 132.258 156.151C132.291 156.267 132.32 156.38 132.341 156.49C132.45 157.066 132.43 157.79 131.914 158.282C131.373 158.798 130.617 158.757 129.975 158.55C129.918 158.531 129.864 158.508 129.815 158.483C129.673 158.723 129.457 158.931 129.156 159.048C128.879 159.156 128.588 159.165 128.314 159.125L128.196 159.105C127.922 159.05 127.677 158.917 127.48 158.782C127.274 158.642 127.07 158.465 126.871 158.273C126.474 157.887 126.049 157.385 125.624 156.836C124.773 155.736 123.867 154.375 123.118 153.208C121.772 151.112 121.218 148.571 120.991 146.606C120.876 145.615 120.843 144.751 120.838 144.133C120.835 143.823 120.84 143.575 120.845 143.401C120.848 143.315 120.851 143.247 120.853 143.2C120.854 143.177 120.855 143.159 120.856 143.146C120.856 143.139 120.857 143.134 120.857 143.13C120.857 143.128 120.857 143.127 120.857 143.125V143.124C120.858 143.115 120.858 143.105 120.859 143.097C120.859 143.096 120.86 143.095 120.86 143.094C120.86 143.091 120.86 143.088 120.86 143.084C120.861 143.075 120.863 143.063 120.864 143.047C120.867 143.015 120.872 142.969 120.878 142.913C120.889 142.8 120.904 142.645 120.921 142.477C120.953 142.158 120.992 141.784 121.017 141.556C121.018 141.541 121.019 141.522 121.021 141.5L121.146 139.771C121.573 133.874 125.753 128.824 131.574 127.47L131.575 127.469C131.936 127.386 132.302 127.317 132.671 127.265ZM131.933 128.995L131.932 128.995C126.809 130.187 123.099 134.645 122.72 139.883L122.594 141.636C122.593 141.642 122.591 141.648 122.59 141.654C122.59 141.668 122.59 141.683 122.589 141.697C122.565 141.909 122.525 142.295 122.491 142.632C122.474 142.8 122.459 142.954 122.447 143.066C122.442 143.122 122.438 143.168 122.435 143.2C122.434 143.208 122.433 143.216 122.432 143.222V143.223C122.432 143.225 122.432 143.229 122.431 143.233C122.431 143.242 122.43 143.256 122.429 143.275C122.427 143.314 122.425 143.373 122.422 143.45C122.417 143.604 122.413 143.833 122.415 144.12C122.42 144.695 122.451 145.503 122.558 146.428C122.774 148.294 123.29 150.561 124.449 152.366C125.193 153.525 126.068 154.838 126.875 155.882C127.28 156.405 127.653 156.841 127.973 157.152C128.133 157.307 128.268 157.418 128.374 157.49C128.416 157.519 128.449 157.538 128.471 157.55C128.476 157.442 128.468 157.302 128.442 157.131C128.392 156.8 128.559 156.475 128.857 156.32C129.154 156.166 129.519 156.216 129.763 156.445C129.996 156.662 130.188 156.831 130.335 156.948C130.409 157.007 130.462 157.046 130.498 157.069C130.499 157.07 130.5 157.07 130.501 157.071C130.66 157.119 130.756 157.129 130.81 157.128C130.819 157.072 130.826 156.965 130.791 156.78C130.648 156.028 129.952 154.756 128.55 153.428C128.503 153.384 128.462 153.335 128.428 153.281L128.307 153.093C128.091 152.755 128.166 152.309 128.482 152.06C128.797 151.81 129.251 151.838 129.535 152.123C130.397 152.991 131.009 153.661 131.52 154.148C131.683 154.303 131.814 154.417 131.917 154.497C131.974 154.406 132.029 154.292 132.066 154.163C132.158 153.847 132.139 153.512 131.912 153.212C131.709 153.035 131.516 152.84 131.336 152.636C131.055 152.317 131.08 151.834 131.393 151.546C131.705 151.258 132.192 151.268 132.491 151.57C132.717 151.798 132.974 151.985 133.202 152.098C133.288 152.14 133.357 152.164 133.408 152.179C133.423 151.966 133.382 151.566 133.168 150.901C133.167 150.896 133.164 150.891 133.162 150.885C133.153 150.859 133.139 150.82 133.122 150.772C133.088 150.674 133.038 150.533 132.978 150.36C132.857 150.014 132.694 149.538 132.521 149.017C132.18 147.992 131.784 146.742 131.627 145.994C131.612 145.923 131.607 145.85 131.613 145.777C131.621 145.671 131.628 145.56 131.636 145.445L131.647 145.359C131.671 145.223 131.732 145.097 131.822 144.992C131.826 144.985 131.83 144.976 131.836 144.965C131.887 144.873 131.992 144.662 132.162 144.227C132.495 143.375 133.055 141.729 133.947 138.588L132.15 128.947C132.077 128.962 132.005 128.979 131.933 128.995ZM131.906 144.907C131.923 144.892 131.941 144.878 131.96 144.865L131.955 144.868C131.953 144.87 131.95 144.872 131.947 144.875C131.941 144.879 131.936 144.882 131.931 144.886C131.922 144.893 131.914 144.9 131.906 144.907ZM122.591 141.644C122.591 141.64 122.593 141.637 122.593 141.634L122.594 141.61L122.591 141.644Z" fill="#000091"/>
<path d="M132.537 152.681C130.742 151.165 129.334 147.409 129.334 147.409C129.289 147.805 130.643 150.425 131.668 151.773" fill="#C1C1FB"/>
<path d="M129.24 146.631C129.602 146.587 129.947 146.796 130.074 147.136L130.075 147.137C130.075 147.138 130.076 147.14 130.077 147.143C130.079 147.15 130.083 147.159 130.088 147.172C130.098 147.197 130.113 147.236 130.133 147.286C130.172 147.387 130.232 147.533 130.309 147.714C130.464 148.078 130.689 148.578 130.967 149.122C131.538 150.241 132.28 151.435 133.049 152.084C133.381 152.364 133.421 152.858 133.139 153.188C132.857 153.518 132.359 153.558 132.027 153.277C131.717 153.016 131.423 152.702 131.147 152.36C131.108 152.326 131.072 152.288 131.04 152.245C130.491 151.524 129.873 150.49 129.402 149.598C129.165 149.15 128.957 148.722 128.809 148.372C128.736 148.199 128.672 148.032 128.626 147.885C128.604 147.812 128.582 147.732 128.566 147.651C128.554 147.581 128.535 147.459 128.551 147.32L128.562 147.254C128.628 146.926 128.9 146.672 129.24 146.631Z" fill="#000091"/>
<path d="M125.979 148.07C125.979 148.07 127.307 150.961 128.981 152.639L125.979 148.07Z" fill="white"/>
<path d="M125.652 147.357C126.049 147.177 126.517 147.351 126.698 147.745V147.745C126.698 147.746 126.699 147.748 126.7 147.75C126.702 147.755 126.705 147.762 126.71 147.772C126.719 147.791 126.733 147.821 126.752 147.86C126.789 147.938 126.845 148.053 126.918 148.196C127.063 148.483 127.274 148.883 127.536 149.334C128.066 150.248 128.777 151.321 129.542 152.088C129.849 152.395 129.846 152.891 129.536 153.196C129.227 153.5 128.728 153.498 128.421 153.191C127.512 152.279 126.721 151.068 126.169 150.116C125.889 149.635 125.664 149.207 125.508 148.9C125.43 148.746 125.37 148.622 125.328 148.535C125.307 148.492 125.291 148.457 125.28 148.433C125.275 148.422 125.27 148.412 125.267 148.406L125.262 148.396V148.395L125.262 148.395C125.081 148.001 125.256 147.536 125.652 147.357Z" fill="#000091"/>
<path d="M130.249 157.809C129.437 157.548 123.438 151.072 122.65 148.907C122.042 147.234 121.536 144.796 121.838 141.582" fill="#C1C1FB"/>
<path d="M121.911 140.803C122.345 140.843 122.664 141.224 122.623 141.655C122.333 144.748 122.82 147.07 123.391 148.641L123.463 148.813C123.662 149.246 124.086 149.903 124.688 150.708C125.358 151.601 126.192 152.605 127.033 153.556C127.873 154.506 128.711 155.394 129.385 156.056C129.722 156.388 130.011 156.656 130.234 156.845C130.346 156.94 130.432 157.007 130.494 157.051C130.521 157.07 130.538 157.079 130.545 157.084C130.925 157.237 131.128 157.657 130.999 158.051C130.865 158.462 130.42 158.688 130.006 158.554C129.834 158.499 129.68 158.398 129.583 158.33C129.467 158.249 129.34 158.148 129.209 158.037C128.945 157.813 128.626 157.515 128.275 157.17C127.57 156.477 126.707 155.561 125.847 154.589C124.988 153.618 124.125 152.58 123.422 151.643C122.739 150.731 122.148 149.836 121.907 149.173C121.262 147.399 120.739 144.845 121.052 141.51C121.093 141.079 121.477 140.763 121.911 140.803Z" fill="#000091"/>
<path d="M127.056 164.218L53.5918 164.414L57.344 123.817L54.6779 91.948C54.6779 91.948 47.2723 98.1258 45.1 108.912C42.1911 123.357 63.3672 129.995 63.3672 129.995L60.01 149.607C60.01 149.607 25.3516 137.154 26.5365 109.697C27.7214 82.2401 47.4737 70.6259 53.888 66.4525C65.3421 58.9999 79.4049 60.1374 79.4049 60.1374L108.761 60.9945C108.761 60.9945 124.166 62.9772 130.687 69.4511C130.687 69.4511 154.607 93.9092 156.581 116.267C158.556 138.624 133.673 146.077 133.673 146.077L131.106 122.935C131.106 122.935 144.337 119.601 137.031 107.441C129.724 95.282 124.885 93.0267 124.885 93.0267L127.058 164.218H127.056Z" fill="#FF8D7E"/>
<path d="M87.6124 45.9424L85.9772 56.1739L80.8525 60.2944L101.482 77.2391C101.482 77.2391 105.718 70.3436 107.406 67.4332C109.029 64.6345 109.922 63.5696 110.234 58.8725C110.392 56.4995 87.6124 45.9424 87.6124 45.9424Z" fill="#C1C1FB"/>
<path d="M87.9452 45.2324L87.9465 45.233C87.9472 45.2333 87.9488 45.2335 87.9502 45.2342C87.953 45.2355 87.957 45.2378 87.9625 45.2403C87.9736 45.2455 87.9902 45.2529 88.0118 45.263C88.0552 45.2832 88.1197 45.3132 88.2035 45.3523C88.371 45.4305 88.6163 45.5456 88.9283 45.6926C89.5525 45.9867 90.4443 46.4094 91.5131 46.9239C93.6502 47.9526 96.4999 49.3502 99.3465 50.8228C102.189 52.2934 105.045 53.8477 107.187 55.1887C108.254 55.8569 109.169 56.4874 109.82 57.0399C110.143 57.3145 110.428 57.5917 110.635 57.8636C110.82 58.1068 111.05 58.4821 111.021 58.9242C110.862 61.3169 110.551 62.8428 110.048 64.1456C109.554 65.4233 108.875 66.4686 108.089 67.8242C107.24 69.2876 105.755 71.746 104.485 73.8326C103.85 74.8772 103.267 75.8306 102.844 76.5229C102.632 76.8691 102.459 77.1504 102.34 77.3448C102.28 77.4418 102.234 77.5175 102.203 77.5688C102.187 77.5943 102.175 77.6138 102.167 77.6269C102.163 77.6334 102.16 77.6383 102.158 77.6416C102.157 77.6433 102.156 77.645 102.156 77.6459L102.154 77.6471L101.681 78.4194L79.6064 60.2877L85.2445 55.7541L86.9967 44.793L87.9452 45.2324ZM86.7083 56.5932L86.4735 56.7829L82.0976 60.3005L101.281 76.0584C101.347 75.9513 101.418 75.8348 101.495 75.7096C101.918 75.0181 102.5 74.0655 103.135 73.0224C104.406 70.9337 105.883 68.4891 106.722 67.0421C107.559 65.5992 108.138 64.7123 108.575 63.5838C108.996 62.4933 109.286 61.1567 109.44 58.9016C109.428 58.881 109.408 58.8501 109.377 58.8085C109.267 58.6651 109.079 58.4719 108.795 58.2308C108.23 57.7518 107.391 57.1687 106.345 56.5136C104.26 55.2077 101.45 53.6773 98.6174 52.212C95.789 50.7488 92.9539 49.3588 90.8247 48.3339C89.7604 47.8216 88.8731 47.4006 88.2522 47.1081C88.2433 47.1039 88.2344 47.1 88.2257 47.0958L86.7083 56.5932Z" fill="#000091"/>
<path d="M115.328 24.5574C113.736 15.7673 102.766 16.9127 101.167 17.1107C86.4224 18.9386 85.7293 31.2372 85.828 34.6909L85.1862 34.7694C85.1862 34.7694 85.2593 35.3577 85.3837 36.3109C83.476 36.7717 80.0398 38.2681 81.1615 42.9946C82.0126 46.5777 84.7102 46.9013 86.9379 46.4836C87.2361 48.0682 87.5402 49.4214 87.8226 50.2197C88.9581 53.4341 89.7303 54.8559 94.15 57.7153C98.5696 60.5748 107.768 61.5946 111.866 56.3425C115.66 51.4787 115.966 42.7142 115.992 41.4453C116.361 36.5776 116.379 30.3449 115.33 24.5574H115.328Z" fill="#C1C1FB"/>
<path d="M101.069 16.3334C101.892 16.2314 105.155 15.8798 108.443 16.7043C111.61 17.4983 114.913 19.4265 115.966 23.7739H115.989L116.106 24.4189C117.17 30.2877 117.15 36.5847 116.779 41.4888C116.764 42.1873 116.674 44.7139 116.117 47.6888C115.556 50.6839 114.503 54.2405 112.49 56.822H112.489C110.239 59.7055 106.639 60.8078 103.139 60.8537C99.6386 60.8996 96.0762 59.8964 93.7191 58.3715C91.4864 56.927 90.1029 55.8015 89.1355 54.5864C88.1614 53.3629 87.6493 52.0976 87.0776 50.4794L86.963 50.1312C86.7434 49.4203 86.5218 48.4527 86.3054 47.3657C85.3049 47.4678 84.2099 47.4037 83.2072 46.9526C81.8899 46.3598 80.8651 45.1616 80.393 43.1742C79.779 40.587 80.4018 38.7551 81.5585 37.5196C82.4408 36.5773 83.5761 36.0442 84.5144 35.7417C84.4914 35.563 84.4714 35.4084 84.4552 35.2809C84.4383 35.1474 84.4252 35.0435 84.4164 34.9731C84.412 34.938 84.4088 34.9111 84.4065 34.8929C84.4054 34.8839 84.404 34.8768 84.4034 34.8721C84.4032 34.87 84.403 34.8684 84.4028 34.8672V34.8654L84.3061 34.0876L85.0321 33.9988C85.0492 31.976 85.3819 28.3758 87.2348 24.9226C89.3588 20.9643 93.4408 17.2791 101.069 16.3334ZM108.057 18.2232C105.063 17.4726 102.041 17.7916 101.264 17.8879C94.1482 18.77 90.5111 22.1481 88.6271 25.6594C86.7165 29.2203 86.5683 33 86.616 34.6689L86.6364 35.3813L86.0675 35.4504C86.0951 35.6658 86.1278 35.9211 86.1655 36.2099L86.2561 36.9063L85.5695 37.0722C84.6768 37.2879 83.5175 37.7282 82.7141 38.5862C81.9562 39.3957 81.4212 40.6758 81.9289 42.815C82.308 44.4104 83.0576 45.1657 83.8586 45.5261C84.7064 45.9075 85.7505 45.9091 86.7911 45.714L87.5676 45.5683L87.7131 46.3394C87.9744 47.7283 88.2328 48.8964 88.4674 49.6588L88.5667 49.9599V49.9605C89.1304 51.5563 89.5725 52.609 90.3731 53.6146C91.1806 54.6289 92.3933 55.644 94.5801 57.0588C96.6427 58.3933 99.8896 59.33 103.118 59.2877C106.346 59.2453 109.394 58.2315 111.242 55.863C113.022 53.5808 114.019 50.3227 114.566 47.4024C115.109 44.5031 115.19 42.0416 115.203 41.4295V41.4081L115.205 41.3867C115.565 36.6352 115.585 30.5936 114.601 24.9709L114.551 24.6961C113.83 20.7105 111.02 18.9663 108.057 18.2232Z" fill="#000091"/>
<path d="M107.32 36.7003C107.75 36.6323 108.154 36.9236 108.223 37.3508L109.233 43.6401C109.489 45.2392 108.052 46.5979 106.457 46.2655C106.432 46.2604 106.408 46.254 106.384 46.2466L104.219 45.5758C103.803 45.4469 103.571 45.0078 103.701 44.5948C103.831 44.1819 104.273 43.952 104.689 44.0808L106.802 44.735C107.275 44.8202 107.699 44.4474 107.684 43.9822L107.674 43.8868L106.665 37.5968C106.597 37.1697 106.89 36.7683 107.32 36.7003Z" fill="#000091"/>
<path d="M118.664 35.4167C118.664 34.4683 117.89 33.6996 116.935 33.6995H110.319C109.365 33.6996 108.59 34.4683 108.59 35.4167V39.4374C108.591 40.3857 109.365 41.1539 110.319 41.154H116.935C117.89 41.1539 118.664 40.3857 118.664 39.4374V35.4167ZM120.242 39.4374C120.242 41.2507 118.762 42.7205 116.935 42.7207H110.319C108.493 42.7205 107.013 41.2507 107.013 39.4374V35.4167C107.013 33.6033 108.493 32.1329 110.319 32.1328H116.935C118.762 32.1329 120.242 33.6032 120.242 35.4167V39.4374Z" fill="#6A6AF4"/>
<path d="M113.568 39.1445C114.054 39.1234 114.422 38.5018 114.389 37.7563C114.356 37.0107 113.935 36.4234 113.449 36.4446C112.963 36.4658 112.596 37.0873 112.629 37.8329C112.662 38.5784 113.082 39.1657 113.568 39.1445Z" fill="#000091"/>
<path d="M102.975 39.1055C103.461 39.0843 103.828 38.4628 103.795 37.7172C103.762 36.9716 103.341 36.3844 102.856 36.4055C102.37 36.4267 102.002 37.0482 102.035 37.7938C102.068 38.5394 102.489 39.1266 102.975 39.1055Z" fill="#000091"/>
<path d="M98.8268 31.3914C99.6451 30.9758 100.835 30.6589 102.288 31.0407C102.709 31.1514 102.96 31.5803 102.849 31.9985C102.737 32.4167 102.306 32.6661 101.884 32.5554C100.883 32.2921 100.093 32.508 99.5455 32.7861C99.2677 32.9272 99.0522 33.0847 98.9088 33.2047C98.8376 33.2643 98.7855 33.3138 98.7535 33.3455C98.7375 33.3613 98.7263 33.3727 98.7208 33.3785L98.719 33.3803C98.7185 33.3809 98.7181 33.3818 98.7177 33.3822C98.7172 33.3828 98.7165 33.3828 98.7165 33.3828L98.6647 33.436C98.3726 33.7072 97.9154 33.7199 97.6078 33.4532C97.2797 33.1686 97.246 32.6737 97.5326 32.3479L98.0139 32.7653C97.5629 32.374 97.5347 32.3491 97.5332 32.3473L97.5338 32.3467C97.5342 32.3463 97.5346 32.3454 97.535 32.3449C97.5359 32.3439 97.5371 32.3429 97.5381 32.3418C97.5402 32.3395 97.5427 32.3364 97.5455 32.3332C97.5512 32.327 97.5584 32.3192 97.5671 32.31C97.5848 32.2911 97.6092 32.2662 97.6392 32.2365C97.6991 32.1772 97.7837 32.0976 97.8919 32.0071C98.1074 31.8266 98.4217 31.5971 98.8268 31.3914Z" fill="#000091"/>
<path d="M109.846 30.1017C110.125 30.0565 110.517 30.0176 110.947 30.0552C111.825 30.1319 112.951 30.5514 113.437 31.915C113.583 32.3227 113.368 32.7704 112.957 32.915C112.546 33.0595 112.096 32.846 111.95 32.4382C111.74 31.8488 111.311 31.6596 110.809 31.6157C110.549 31.593 110.295 31.6159 110.1 31.6475C110.004 31.663 109.928 31.68 109.877 31.6922L109.816 31.7075C109.4 31.8339 108.959 31.6023 108.831 31.1892C108.703 30.7756 108.937 30.3371 109.354 30.21L109.52 30.7473C109.362 30.2373 109.354 30.2114 109.354 30.21H109.355L109.36 30.2082C109.363 30.2073 109.367 30.2063 109.371 30.2051C109.379 30.2028 109.389 30.2 109.402 30.1965C109.427 30.1896 109.461 30.1804 109.503 30.1702C109.587 30.1499 109.705 30.1246 109.846 30.1017Z" fill="#000091"/>
<path d="M118.262 21.649C117.411 19.831 116.364 19.3113 115.44 19.3171C115.405 18.9877 115.349 18.6562 115.276 18.3287C114.634 15.4379 112.786 12.9648 110.248 11.4567H110.254C110.254 11.4567 107.142 8.14813 97.3151 8.85024C87.4903 9.55235 87.2356 15.1437 87.2356 15.1437C82.7744 18.1365 79.5436 21.8843 79.3046 25.0929C78.6312 34.0771 82.4367 36.2579 84.0087 36.7737C84.1785 36.6992 84.3464 36.6345 84.5123 36.5757C84.5636 36.7247 84.615 36.8463 84.6643 36.9287C90.8574 36.5109 91.1853 27.8523 93.1443 23.6886C93.3536 23.2454 93.8987 23.0767 94.3272 23.318C97.0762 24.8634 100.82 25.3674 105.256 24.7575C110.051 24.0985 112.196 21.8804 113.151 20.1251C113.183 20.1565 113.213 20.1899 113.244 20.2212C113.288 20.2683 113.331 20.3173 113.375 20.3664C113.394 20.3899 113.414 20.4115 113.434 20.435C113.471 20.4782 113.507 20.5233 113.542 20.5664C113.568 20.5978 113.594 20.6272 113.617 20.6586C113.649 20.6998 113.681 20.741 113.712 20.7822C113.74 20.8194 113.768 20.8547 113.795 20.892C113.823 20.9312 113.85 20.9704 113.88 21.0096C113.91 21.0508 113.939 21.094 113.969 21.1371C113.995 21.1744 114.018 21.2097 114.042 21.247C114.074 21.294 114.105 21.3431 114.135 21.3921C114.157 21.4254 114.176 21.4607 114.198 21.4941C114.232 21.549 114.263 21.6019 114.295 21.6588C114.313 21.6902 114.33 21.7216 114.348 21.7529C114.382 21.8137 114.415 21.8765 114.447 21.9373C114.461 21.9648 114.476 21.9922 114.49 22.0216C114.526 22.0903 114.559 22.1609 114.593 22.2315C114.917 22.9179 115.168 23.6886 115.326 24.5614C115.843 27.4228 116.102 30.39 116.185 33.2495C116.301 33.2632 116.42 33.2279 116.538 33.1338C118.495 31.5785 120.286 25.9715 118.26 21.651L118.262 21.649Z" fill="#000D59"/>
<path d="M85.1889 36.5347C85.1889 36.5347 83.139 38.1723 81.8534 36.7131C80.5678 35.254 81.3024 33.6125 81.3024 33.6125C81.3024 33.6125 80.0168 34.1597 79.0985 32.7005C78.1802 31.2414 79.6495 29.7823 79.6495 29.7823C79.6495 29.7823 77.2619 29.9647 77.6292 27.776C77.9966 25.5873 79.4658 25.5873 79.4658 25.5873C79.4658 25.5873 77.8129 24.6753 78.5475 23.2162C79.2822 21.7571 80.5678 22.1219 80.5678 22.1219C80.5678 22.1219 78.7806 21.5668 79.4658 19.7508C80.0168 18.2916 81.8534 19.0212 81.8534 19.0212C81.8534 19.0212 80.7515 18.474 81.4861 17.1973C82.2207 15.9206 83.8737 16.6501 83.8737 16.6501C83.8737 16.6501 83.139 15.7382 83.69 14.6438C84.241 13.5495 85.8939 14.4614 85.8939 14.4614C85.8939 14.4614 84.6083 13.1847 85.7103 12.2727C86.8122 11.3608 87.9142 12.2727 87.9142 12.2727C87.9142 12.2727 86.9959 11.1784 88.4652 10.2664C89.9344 9.35447 90.6632 10.6391 90.6632 10.6391C90.6632 10.6391 90.4854 8.62491 92.322 8.26012C94.1586 7.89534 94.5259 9.71925 94.5259 9.71925C94.5259 9.71925 94.1586 8.07773 95.4442 7.89534C96.7298 7.71295 97.2808 8.8073 97.2808 8.8073C97.2808 8.8073 96.7299 7.16578 98.5665 7.16578C100.403 7.16578 100.403 9.17208 100.403 9.17208C100.403 9.17208 99.6684 7.16578 101.138 7.16578C102.607 7.16578 102.607 8.44251 102.607 8.44251C102.607 8.44251 102.607 6.80099 104.995 6.98338C107.382 7.16578 106.464 8.98969 106.464 8.98969C106.464 8.98969 107.198 7.71295 109.035 8.07773C110.872 8.44251 109.219 10.084 109.219 10.084C109.219 10.084 111.239 9.17208 112.708 10.4488C113.982 11.5569 112.501 13.6652 112.501 13.6652C112.501 13.6652 113.627 11.9079 115.83 13.3671C118.034 14.8262 115.83 16.4677 115.83 16.4677C115.83 16.4677 117.667 15.7382 118.953 17.3797C120.238 19.0212 117.851 20.1156 117.851 20.1156C117.851 20.1156 119.32 20.1156 119.871 21.3923C120.422 22.669 118.402 23.9458 118.402 23.9458C118.402 23.9458 120.238 23.581 120.422 25.4049C120.606 27.2288 118.218 27.5936 118.218 27.5936C118.218 27.5936 120.055 28.1408 119.504 29.5999C118.953 31.059 116.932 30.8766 116.932 30.8766L114.594 22.2297L110.872 17.0149L104.26 16.4677L98.1991 19.7508L91.9547 21.3923L89.3835 24.6753L87.9142 31.7886L85.1889 36.5347Z" fill="#000D59"/>
<path d="M84.792 35.9816C84.792 35.9816 85.5266 37.9879 87.1796 37.2583C88.8325 36.5288 87.9142 34.8873 87.9142 34.8873C87.9142 34.8873 88.6488 35.7992 89.7508 34.7049C90.8528 33.6105 89.7508 32.6986 89.7508 32.6986C89.7508 32.6986 90.6691 33.4281 91.5874 31.6042C92.5057 29.7803 91.0364 29.2331 91.0364 29.2331C91.0364 29.2331 91.9547 29.9627 92.873 28.5036C93.7913 27.0444 91.9547 25.9501 91.9547 25.9501C91.9547 25.9501 92.873 26.3149 93.7913 25.2205C94.7096 24.1262 93.7913 23.0318 93.7913 23.0318C93.7913 23.0318 93.424 24.491 95.0769 24.6734C96.7299 24.8558 98.0155 23.9438 98.0155 23.9438C98.0155 23.9438 97.4645 25.4029 98.9338 25.7677C100.403 26.1325 100.954 24.6734 100.954 24.6734C100.954 24.6734 100.954 26.1325 102.423 26.1325C103.893 26.1325 103.709 24.491 103.709 24.491C103.709 24.491 104.444 26.1325 105.729 25.7677C107.015 25.4029 106.647 24.1262 106.647 24.1262C106.647 24.1262 107.015 25.5853 108.484 25.0381C109.953 24.491 109.402 23.2142 109.402 23.2142C109.402 23.2142 109.953 24.3086 111.055 23.7614C112.157 23.2142 111.423 21.9375 111.423 21.9375C111.423 21.9375 112.157 23.0318 113.076 22.4847C113.994 21.9375 114.545 21.0255 114.545 21.0255L113.076 19.5664L107.198 19.9312L91.0364 20.296L88.0979 29.4155L84.792 35.9816Z" fill="#000D59"/>
<path d="M113.629 23.2142C114.18 23.9438 114.914 23.7614 114.914 23.7614C114.914 23.7614 114.18 24.1262 114.18 25.2205C114.18 26.3149 115.465 26.6797 115.465 26.6797C115.465 26.6797 114.73 27.0444 114.73 27.9564C114.73 28.8684 115.832 29.7803 115.832 29.7803C115.832 29.7803 114.73 29.7803 114.914 31.2394C115.098 32.6986 116.188 33.2457 116.188 33.2457L118.532 29.8391L117.302 25.2205L115.649 21.5727L114.18 19.5664L111.976 19.9312L113.629 23.2142Z" fill="#000D59"/>
<path d="M105.037 35.4167C105.037 34.4683 104.263 33.6996 103.308 33.6995H96.6923C95.7376 33.6996 94.9635 34.4683 94.9635 35.4167V39.4374C94.9637 40.3857 95.7377 41.1539 96.6923 41.154H103.308C104.263 41.1539 105.037 40.3857 105.037 39.4374V35.4167ZM106.615 39.4374C106.615 41.2507 105.135 42.7205 103.308 42.7207H96.6923C94.8661 42.7205 93.3859 41.2507 93.3857 39.4374V35.4167C93.3857 33.6033 94.866 32.1329 96.6923 32.1328H103.308C105.135 32.1329 106.615 33.6032 106.615 35.4167V39.4374Z" fill="#6A6AF4"/>
<path d="M107.603 35.6631C108.039 35.6631 108.392 36.0138 108.392 36.4464C108.392 36.879 108.039 37.2298 107.603 37.2298H106.023C105.588 37.2298 105.234 36.879 105.234 36.4464C105.234 36.0138 105.588 35.6631 106.023 35.6631H107.603Z" fill="#6A6AF4"/>
<path d="M94.3718 35.4668C94.8075 35.4668 95.1607 35.8175 95.1607 36.2501C95.1607 36.6827 94.8075 37.0335 94.3718 37.0335H86.4725C86.0368 37.0335 85.6836 36.6828 85.6836 36.2501C85.6836 35.8175 86.0368 35.4668 86.4725 35.4668H94.3718Z" fill="#6A6AF4"/>
<path d="M107.801 50.1744C107.801 50.1744 103.062 49.7822 100.297 48.6055C100.297 48.6055 100.648 53.1162 104.642 53.1162C107.406 53.1162 107.801 50.1744 107.801 50.1744Z" fill="white"/>
<path d="M99.8374 47.9684C100.062 47.8089 100.354 47.7778 100.607 47.8857C101.896 48.4342 103.692 48.8143 105.211 49.0577C105.962 49.1779 106.628 49.2624 107.106 49.3165C107.345 49.3436 107.537 49.3626 107.668 49.3753C107.734 49.3816 107.784 49.3864 107.818 49.3894C107.834 49.3909 107.847 49.3923 107.855 49.393C107.859 49.3934 107.863 49.3935 107.864 49.3937C107.865 49.3937 107.866 49.3936 107.866 49.3937C108.081 49.4115 108.28 49.5162 108.415 49.6831C108.551 49.8502 108.612 50.0654 108.583 50.278L107.801 50.1745C108.573 50.2767 108.583 50.2782 108.583 50.2786V50.2792L108.582 50.281C108.582 50.2823 108.582 50.2843 108.582 50.2859C108.581 50.2891 108.581 50.293 108.58 50.2975C108.579 50.307 108.577 50.3194 108.574 50.3343C108.569 50.3641 108.562 50.4047 108.552 50.4542C108.532 50.5531 108.501 50.6898 108.454 50.8514C108.361 51.1718 108.201 51.6068 107.935 52.0484C107.389 52.9517 106.372 53.8997 104.641 53.8997C102.263 53.8996 100.948 52.5221 100.271 51.2204C99.9372 50.5797 99.7491 49.9475 99.6439 49.4812C99.591 49.2464 99.5585 49.049 99.5385 48.9077C99.5286 48.8372 99.5214 48.7804 99.5169 48.7394C99.5147 48.719 99.5132 48.7022 99.512 48.6899C99.5115 48.6837 99.5111 48.6786 99.5108 48.6746C99.5106 48.6726 99.5103 48.6705 99.5102 48.6691V48.6666C99.5101 48.6663 99.5101 48.6659 100.297 48.6054L99.5102 48.666C99.4889 48.3928 99.613 48.1279 99.8374 47.9684ZM101.379 49.819C101.457 50.0395 101.553 50.2716 101.672 50.5013C102.169 51.4548 103.026 52.3329 104.641 52.333C105.675 52.333 106.238 51.81 106.581 51.2424C106.66 51.1123 106.724 50.98 106.779 50.8538C106.297 50.7976 105.664 50.7176 104.96 50.6048C103.868 50.4299 102.569 50.1751 101.379 49.819Z" fill="#000091"/>
<path d="M85.1051 142.689C89.9059 142.734 89.5544 140.423 87.937 139.91C85.9148 139.268 77.3381 138.696 77.3381 138.696C77.3381 138.696 83.154 136.644 83.1994 132.867C83.2448 129.092 81.6235 129.492 80.087 131.822C78.5506 134.151 71.1391 135.232 71.1391 135.232L68.2775 134.151C68.2775 134.151 60.3486 134.687 61.644 143.124C62.0212 148.105 66.1565 149.976 66.1565 149.976C67.3711 150.584 71.8954 153.391 82.4075 151.681C82.4075 151.681 87.1214 150.361 82.834 149.551C81.7242 149.341 80.6143 149.243 79.5795 149.211" fill="#C1C1FB"/>
<path d="M80.7207 129.87C81.141 129.52 81.7107 129.192 82.3435 129.278C83.0517 129.375 83.47 129.924 83.6883 130.512C83.9066 131.1 83.9997 131.894 83.9878 132.876C83.9602 135.176 82.1937 136.834 80.6949 137.845C80.5458 137.946 80.3964 138.041 80.2493 138.132C80.7826 138.176 81.3599 138.226 81.9528 138.282C83.1558 138.394 84.4289 138.527 85.5317 138.673C86.4776 138.798 87.3478 138.938 87.9403 139.095L88.177 139.163C88.728 139.338 89.2174 139.68 89.5169 140.145C89.826 140.626 89.9299 141.25 89.6376 141.849C89.3593 142.42 88.7912 142.826 88.0648 143.083C87.331 143.343 86.3525 143.484 85.0972 143.472C84.6618 143.468 84.3124 143.113 84.3163 142.681C84.3205 142.248 84.677 141.901 85.1126 141.905C86.2575 141.916 87.0354 141.785 87.5354 141.608C88.0428 141.428 88.1859 141.232 88.2176 141.167C88.2354 141.131 88.2483 141.084 88.1868 140.988C88.1155 140.877 87.9539 140.737 87.6962 140.655V140.655C87.2667 140.519 86.4187 140.37 85.3234 140.225C84.2495 140.083 82.9993 139.953 81.8055 139.841C80.6128 139.73 79.4821 139.639 78.6493 139.576C78.233 139.544 77.8912 139.519 77.6539 139.502C77.5355 139.494 77.443 139.488 77.3803 139.483L77.2909 139.477C77.2891 139.477 77.2876 139.477 77.2866 139.477H77.2848C76.9117 139.452 76.6074 139.17 76.5563 138.802C76.5052 138.435 76.7212 138.082 77.0734 137.957L77.0746 137.957C77.0762 137.956 77.0795 137.955 77.0838 137.954C77.0925 137.95 77.1064 137.945 77.1251 137.938C77.1628 137.924 77.2201 137.902 77.294 137.873C77.4421 137.814 77.6564 137.724 77.9153 137.605C78.4352 137.365 79.1237 137.011 79.808 136.55C81.2284 135.591 82.3929 134.335 82.4107 132.857C82.4216 131.952 82.3289 131.379 82.2079 131.053C82.1652 130.938 82.1279 130.875 82.1031 130.842C82.049 130.859 81.9286 130.909 81.7352 131.071C81.4478 131.31 81.1066 131.705 80.7466 132.25C80.2386 133.021 79.32 133.602 78.3787 134.045C77.4103 134.501 76.2915 134.868 75.2472 135.155C74.1989 135.443 73.2029 135.655 72.4707 135.796C72.1041 135.866 71.8019 135.919 71.5906 135.954C71.4849 135.971 71.4013 135.984 71.3441 135.993C71.3156 135.997 71.2933 136.001 71.2781 136.003C71.2707 136.004 71.265 136.005 71.2609 136.006C71.2589 136.006 71.2571 136.006 71.2559 136.006L71.2541 136.007H71.2535C71.1203 136.026 70.9842 136.011 70.8584 135.964L68.1743 134.95C68.1393 134.954 68.0988 134.959 68.0535 134.966C67.8619 134.994 67.5838 135.043 67.2523 135.126C66.5852 135.294 65.7235 135.596 64.9084 136.128C64.0986 136.657 63.3415 137.408 62.853 138.484C62.3954 139.493 62.1504 140.837 62.3729 142.639L62.4241 143.005L62.4308 143.065C62.6025 145.332 63.6234 146.879 64.604 147.868C65.0966 148.365 65.578 148.72 65.9334 148.948C66.1105 149.062 66.2549 149.144 66.3519 149.196C66.4003 149.222 66.4372 149.241 66.4597 149.252C66.4708 149.257 66.4785 149.261 66.4825 149.263H66.4838C66.4931 149.267 66.5023 149.272 66.5115 149.276C67.1332 149.588 68.4803 150.393 70.9638 150.932C73.446 151.471 77.0894 151.746 82.2326 150.915C82.2333 150.914 82.2343 150.914 82.235 150.914C82.2648 150.905 82.309 150.892 82.3645 150.875C82.4763 150.84 82.6322 150.789 82.8057 150.726C83.0066 150.653 83.2112 150.569 83.395 150.483C83.2078 150.43 82.9742 150.374 82.6862 150.32C81.6257 150.119 80.5583 150.025 79.5553 149.994C79.1198 149.981 78.7777 149.619 78.791 149.187C78.8044 148.755 79.168 148.415 79.6034 148.428C80.6698 148.46 81.8222 148.561 82.9814 148.781L83.382 148.863C83.7624 148.949 84.0818 149.043 84.3435 149.149C84.6686 149.28 85.0163 149.472 85.2303 149.788C85.3483 149.962 85.4236 150.171 85.4239 150.402C85.4241 150.627 85.3538 150.819 85.2692 150.967C85.112 151.242 84.8638 151.438 84.6701 151.568C84.2651 151.84 83.7338 152.056 83.3481 152.197C83.1467 152.27 82.9676 152.329 82.8384 152.369C82.7736 152.39 82.7209 152.405 82.6837 152.416C82.6652 152.422 82.6505 152.426 82.64 152.429C82.6347 152.431 82.6301 152.431 82.627 152.432C82.6255 152.433 82.6243 152.433 82.6233 152.434L82.6221 152.434H82.6215C82.593 152.442 82.5638 152.448 82.5346 152.453C77.1908 153.322 73.3306 153.05 70.6267 152.463C67.9417 151.88 66.4226 150.989 65.8181 150.684C65.8148 150.682 65.8109 150.681 65.8064 150.678C65.7948 150.673 65.7793 150.665 65.7602 150.656C65.722 150.637 65.669 150.611 65.6037 150.576C65.4731 150.506 65.2917 150.403 65.0755 150.263C64.6437 149.986 64.0676 149.561 63.4792 148.967C62.302 147.78 61.0724 145.91 60.8605 143.21C60.525 140.994 60.7833 139.231 61.4145 137.84C62.0484 136.444 63.0308 135.479 64.0413 134.819C65.0463 134.163 66.0856 133.803 66.8646 133.607C67.2562 133.509 67.5879 133.45 67.8249 133.416C67.9433 133.398 68.0388 133.387 68.1065 133.38C68.1404 133.377 68.1676 133.374 68.1873 133.372L68.2193 133.37H68.223C68.2236 133.372 68.2268 133.412 68.2699 134.041L68.2236 133.37C68.3372 133.362 68.4513 133.379 68.5577 133.419L71.2226 134.425C71.2549 134.42 71.291 134.415 71.3305 134.408C71.5305 134.375 71.8197 134.325 72.1718 134.257C72.8772 134.122 73.83 133.919 74.8263 133.645C75.8269 133.37 76.8494 133.031 77.7026 132.629C78.583 132.215 79.1669 131.786 79.4271 131.392C79.8353 130.773 80.2735 130.243 80.7207 129.87Z" fill="#000091"/>
<path d="M77.6611 142.767C79.3595 142.824 86.0483 142.092 88.1515 143.124C90.2547 144.155 88.9058 145.916 82.8787 145.803" fill="#C1C1FB"/>
<path d="M82.7378 141.797C83.8225 141.773 84.9401 141.779 85.9291 141.86C86.8917 141.938 87.8329 142.094 88.5016 142.422C89.0868 142.709 89.6697 143.152 89.8298 143.809C90.0165 144.575 89.5494 145.178 89.0064 145.542C88.461 145.908 87.6689 146.175 86.6791 146.349C85.6749 146.525 84.4071 146.615 82.8641 146.586C82.4286 146.578 82.0824 146.22 82.0906 145.787C82.0991 145.355 82.4588 145.011 82.8943 145.019C84.3649 145.047 85.5262 144.96 86.4043 144.806C87.2967 144.649 87.8408 144.433 88.1232 144.243C88.189 144.199 88.231 144.163 88.2582 144.137C88.2041 144.076 88.0802 143.962 87.8027 143.826C87.4198 143.638 86.7362 143.498 85.8003 143.422C84.8906 143.347 83.8349 143.34 82.7723 143.363C81.7117 143.386 80.662 143.439 79.761 143.484C78.8798 143.528 78.1014 143.565 77.6353 143.549C77.1999 143.535 76.8589 143.173 76.8735 142.74C76.8882 142.308 77.2529 141.97 77.6883 141.984C78.0713 141.997 78.7659 141.964 79.6821 141.919C80.5785 141.875 81.6511 141.82 82.7378 141.797Z" fill="#000091"/>
<path d="M76.5303 146.22C76.7732 146.356 87.6644 144.979 87.615 146.624C87.5755 147.974 86.3294 148.903 80.1185 149.215H75.0215" fill="#C1C1FB"/>
<path d="M82.1472 145.074C83.5272 145.013 84.94 144.997 86.0189 145.107C86.5491 145.162 87.0624 145.252 87.463 145.416C87.8112 145.559 88.4244 145.913 88.4028 146.647C88.3893 147.111 88.2677 147.593 87.9246 148.034C87.5918 148.461 87.1026 148.783 86.4775 149.035C85.2513 149.529 83.27 149.841 80.1583 149.998C80.1451 149.998 80.1316 149.999 80.1183 149.999H75.0213C74.5857 149.999 74.2325 149.648 74.2324 149.216C74.2324 148.783 74.5856 148.432 75.0213 148.432H80.0899C83.1819 148.276 84.9262 147.969 85.8846 147.583C86.3522 147.395 86.5699 147.212 86.6759 147.075C86.7303 147.006 86.7689 146.93 86.7936 146.839C86.5991 146.772 86.2896 146.71 85.8568 146.665C84.9 146.567 83.5843 146.579 82.2175 146.639C80.8597 146.699 79.4896 146.806 78.4351 146.89C77.9115 146.932 77.4586 146.969 77.131 146.991C76.9684 147.002 76.8251 147.01 76.7143 147.012C76.6605 147.014 76.6001 147.014 76.543 147.011C76.5152 147.01 76.4735 147.007 76.4265 147C76.4048 146.996 76.2786 146.979 76.1442 146.904C75.7643 146.692 75.6291 146.215 75.8422 145.837C76.0072 145.546 76.3319 145.4 76.6465 145.447C76.6542 145.447 76.6641 145.447 76.6761 145.446C76.7515 145.445 76.8669 145.439 77.025 145.428C77.3393 145.407 77.7774 145.371 78.3081 145.329C79.3625 145.245 80.7581 145.135 82.1472 145.074Z" fill="#000091"/>
<path d="M103.338 76.0683L99.1261 76.3017C98.1722 76.3547 97.4277 77.1431 97.4336 78.0923L97.4672 82.4971C97.4751 83.5268 98.3579 84.3348 99.3927 84.2583L103.68 83.9386C104.632 83.868 105.361 83.0678 105.337 82.1186L105.228 77.8001C105.203 76.7959 104.348 76.0115 103.336 76.0683H103.338Z" fill="#000091"/>
<path d="M99.3569 83.5148L97.1846 134.114L102.714 141.566L107.651 133.721L104.096 82.5342L99.3569 83.5148Z" fill="#000091"/>
<path d="M77.4521 60.1844C77.4521 60.1844 92.2002 81.5536 93.1876 80.9652C94.1751 80.3769 101.482 77.2389 101.482 77.2389C101.482 77.2389 104.247 77.4351 109.381 80.573C109.381 79.2001 111.455 62.3201 111.455 62.3201L110.29 59.8098L101.877 75.4739L81.9311 58.8037L77.4521 60.1844Z" fill="#FF8D7E"/>
<path d="M81.7939 58.0323C82.0222 57.9924 82.2587 58.0546 82.4386 58.2049L101.639 74.2516L109.594 59.4417L109.653 59.3481C109.805 59.1417 110.05 59.0199 110.312 59.0274C110.612 59.0361 110.881 59.212 111.006 59.4821L112.171 61.9925C112.217 62.0915 112.241 62.1988 112.243 62.307L112.238 62.4153V62.4184C112.237 62.4204 112.237 62.4235 112.236 62.4276C112.235 62.4357 112.234 62.4478 112.232 62.4637C112.228 62.4956 112.222 62.5431 112.214 62.6051C112.199 62.7289 112.177 62.911 112.149 63.143C112.092 63.607 112.011 64.2716 111.914 65.0732C111.72 66.6766 111.461 68.8288 111.202 71.0235C110.943 73.2185 110.683 75.4549 110.489 77.2271C110.292 79.0322 110.17 80.285 110.17 80.5734C110.17 80.857 110.016 81.1185 109.766 81.257C109.517 81.3954 109.211 81.3892 108.967 81.2405C106.448 79.7008 104.528 78.8934 103.257 78.4725C102.621 78.262 102.146 78.1479 101.839 78.0869C101.74 78.0673 101.659 78.0535 101.595 78.0435C101.561 78.0583 101.522 78.0754 101.48 78.0937C101.278 78.1804 100.989 78.3051 100.64 78.4566C99.9402 78.7595 98.9978 79.1698 98.0247 79.5979C97.051 80.0263 96.049 80.4718 95.2303 80.8463C94.3907 81.2305 93.7949 81.517 93.5934 81.637C93.2295 81.8538 92.8731 81.7301 92.7558 81.6823C92.6035 81.6202 92.4692 81.5285 92.3663 81.4497C92.1526 81.2862 91.9088 81.0496 91.652 80.7772C91.1303 80.2238 90.4561 79.4156 89.6921 78.451C88.1596 76.5165 86.2152 73.8894 84.3085 71.2529C82.4002 68.6143 80.5233 65.9577 79.124 63.9618C78.4244 62.9638 77.8441 62.1302 77.4384 61.5463C77.2356 61.2544 77.076 61.0249 76.9675 60.8683C76.9134 60.79 76.8717 60.7301 76.8437 60.6896C76.8296 60.6693 76.8194 60.6534 76.8122 60.6431C76.8087 60.6379 76.806 60.634 76.8042 60.6314C76.8033 60.6301 76.8022 60.629 76.8017 60.6284L76.8011 60.6278C76.6595 60.4226 76.6246 60.1626 76.7068 59.9276C76.789 59.6928 76.9787 59.5107 77.2178 59.4368L81.6972 58.0562L81.7939 58.0323ZM78.7093 60.6173C78.7184 60.6304 78.7277 60.6438 78.737 60.6571C79.1417 61.2395 79.7213 62.0711 80.4195 63.0671C81.8163 65.0595 83.6884 67.7086 85.5905 70.3386C87.4941 72.9708 89.4217 75.5756 90.9321 77.4823C91.6895 78.4384 92.33 79.2036 92.8039 79.7062C92.9556 79.8671 93.0814 79.9905 93.1811 80.0814C93.5324 79.9047 94.0233 79.6734 94.5696 79.4235C95.3987 79.0442 96.4092 78.5955 97.3856 78.1659C98.3625 77.7361 99.308 77.3246 100.009 77.0209C100.36 76.869 100.65 76.7438 100.852 76.6567C100.953 76.6132 101.032 76.5789 101.086 76.5557C101.113 76.5442 101.134 76.5354 101.148 76.5294C101.154 76.5265 101.159 76.5242 101.163 76.5227C101.165 76.5219 101.166 76.5213 101.167 76.5209L101.169 76.5203C101.285 76.4703 101.411 76.4489 101.538 76.4578L101.482 77.2393C101.538 76.458 101.539 76.4578 101.539 76.4578H101.54C101.54 76.4579 101.541 76.4584 101.541 76.4584C101.543 76.4585 101.545 76.4583 101.546 76.4584C101.55 76.4587 101.554 76.4593 101.559 76.4597C101.568 76.4605 101.58 76.4618 101.595 76.4633C101.625 76.4664 101.665 76.4706 101.716 76.4774C101.819 76.4911 101.963 76.514 102.149 76.5509C102.52 76.6247 103.058 76.7559 103.755 76.9866C104.947 77.3811 106.602 78.0668 108.691 79.2552C108.749 78.6545 108.828 77.8995 108.921 77.0576C109.115 75.2788 109.375 73.0375 109.634 70.8411C109.894 68.6442 110.153 66.4903 110.347 64.8859C110.445 64.0837 110.525 63.4183 110.582 62.9539C110.608 62.74 110.629 62.5686 110.644 62.4459L110.238 61.5708L102.573 75.8428C102.461 76.0512 102.26 76.1988 102.026 76.2436C101.793 76.2884 101.551 76.2257 101.369 76.0735L81.7526 59.6786L78.7093 60.6173ZM101.424 78.0208H101.425V78.0202C101.424 78.0201 101.424 78.0203 101.423 78.0202L101.424 78.0208Z" fill="#000091"/>
<path d="M161.627 113.454L165.292 164.773L174.043 163.833L175.332 114.341L161.627 113.454Z" fill="white"/>
<path d="M161.678 112.673L175.384 113.559C175.806 113.586 176.132 113.941 176.121 114.361L174.832 163.854C174.821 164.246 174.52 164.57 174.128 164.612L165.377 165.551C165.164 165.574 164.951 165.51 164.786 165.374C164.622 165.237 164.52 165.04 164.505 164.828L160.84 113.51C160.824 113.284 160.907 113.062 161.067 112.902C161.228 112.742 161.451 112.658 161.678 112.673ZM166.021 163.906L173.271 163.128L174.524 115.073L162.477 114.294L166.021 163.906Z" fill="#000091"/>
<path d="M174.621 141.36L143.18 149.154L149.329 166.767L173.452 164.888L174.621 141.36Z" fill="#6A6AF4"/>
<path d="M236.322 119.134L236.232 119.204L239.942 164.52L173.45 164.655L175.104 118.387L156.895 117.916L162.624 91.0769C164.796 85.5444 167.985 79.8648 173.791 78.4449C187.317 75.1383 208.815 72.3044 224.926 71.816C229.328 71.6827 233.534 73.6184 236.265 77.0485L256.932 108.153C256.932 108.153 245.877 114.294 236.32 119.132L236.322 119.134Z" fill="#000091"/>
<path d="M210.061 73.6634L204.555 59.6997L187.791 70.3098L189.302 80.7394C195.574 98.1842 211.272 76.7346 210.061 73.6654V73.6634Z" fill="white"/>
<path d="M204.208 58.9966C204.391 58.9073 204.603 58.8915 204.799 58.955C205.024 59.0276 205.204 59.1959 205.29 59.414L210.796 73.3781C210.805 73.4032 210.814 73.4288 210.821 73.4546C210.942 73.8149 210.931 74.2088 210.876 74.5617C210.814 74.9557 210.686 75.3911 210.511 75.8456C210.16 76.7565 209.593 77.8267 208.875 78.941C207.438 81.1687 205.337 83.6633 202.976 85.5106C200.641 87.337 197.899 88.6487 195.229 88.1978C192.489 87.7351 190.171 85.4879 188.559 81.0028C188.541 80.9535 188.528 80.9028 188.521 80.851L187.01 70.4216C186.966 70.117 187.106 69.8148 187.367 69.6493L204.131 59.0394L204.208 58.9966ZM188.644 70.6983L190.07 80.5444C191.59 84.7305 193.574 86.329 195.494 86.6532C197.494 86.991 199.776 86.0189 201.999 84.2799C204.195 82.5618 206.184 80.2086 207.546 78.0965C208.227 77.041 208.737 76.0678 209.037 75.2863C209.188 74.895 209.278 74.5718 209.316 74.323C209.336 74.1998 209.34 74.1061 209.337 74.0391C209.335 73.9807 209.327 73.9543 209.326 73.9509C209.325 73.9465 209.323 73.9419 209.321 73.9375L204.17 60.8717L188.644 70.6983Z" fill="#000091"/>
<path d="M177.59 35.0337C177.59 35.0337 192.671 42.4607 186.654 51.4842C186.654 51.4842 183.943 55.2771 181.34 54.8457C181.34 54.8457 182.896 51.7058 180.591 50.3918C180.591 50.3918 180.842 59.3191 173.348 58.2542C173.348 58.2542 175.629 54.0592 174.43 49.4288C171.93 39.7699 173.604 33.6491 177.59 35.0317V35.0337Z" fill="#000D59"/>
<path d="M208.403 46.0849C208.403 46.0849 209.382 28.5126 191.453 27.281C189.784 27.1653 178.352 26.6083 177.234 36.0887C176.488 42.4214 176.906 49.1738 177.599 54.3788C177.603 54.4082 178.761 64.2279 183.226 69.3074C187.691 74.3869 196.313 73.0121 200.628 69.8624C204.943 66.7128 205.642 65.2301 206.606 61.9098C207.57 58.5895 208.395 46.1202 208.395 46.1202L208.401 46.0849H208.403Z" fill="white"/>
<path d="M183.894 27.3412C187.249 26.2621 190.648 26.4402 191.508 26.4998C196.125 26.817 199.576 28.1919 202.14 30.1135C204.701 32.032 206.334 34.4637 207.374 36.8324C208.413 39.1979 208.866 41.5142 209.06 43.2331C209.157 44.0943 209.19 44.8105 209.199 45.3145C209.203 45.5666 209.201 45.7661 209.198 45.9044C209.196 45.9736 209.194 46.0277 209.193 46.0654C209.192 46.0841 209.192 46.0989 209.191 46.1094C209.191 46.1147 209.191 46.1191 209.19 46.1223V46.1278L208.403 46.0856L209.19 46.1284C209.189 46.1612 209.184 46.1935 209.178 46.2251C209.177 46.2478 209.175 46.2778 209.173 46.3144C209.166 46.4071 209.157 46.5435 209.144 46.7177C209.12 47.0664 209.084 47.5679 209.038 48.1798C208.945 49.4034 208.811 51.0702 208.647 52.8418C208.323 56.3449 207.871 60.3794 207.364 62.1274C206.879 63.7988 206.434 65.1077 205.519 66.4008C204.61 67.685 203.274 68.903 201.095 70.4938C198.8 72.1691 195.409 73.3467 192.008 73.4539C188.601 73.5612 185.066 72.593 182.631 69.823C180.278 67.1455 178.834 63.2785 177.978 60.1556C177.547 58.581 177.257 57.168 177.075 56.1465C176.984 55.6354 176.92 55.221 176.878 54.9323C176.839 54.6603 176.818 54.4895 176.817 54.4825V54.4819C176.119 49.2397 175.694 42.4176 176.45 35.9983V35.9977C177.057 30.8554 180.502 28.4322 183.894 27.3412ZM191.398 28.0628C190.589 28.0066 187.438 27.8485 184.38 28.832C181.359 29.8037 178.529 31.8422 178.018 36.1801C177.281 42.4257 177.693 49.1081 178.381 54.2757L178.439 54.7065C178.559 55.5332 178.876 57.4636 179.501 59.7437C180.34 62.8078 181.708 66.3905 183.82 68.7925C185.85 71.1018 188.86 71.9861 191.958 71.8885C195.063 71.7906 198.141 70.7061 200.161 69.2319C202.296 67.6731 203.467 66.5747 204.228 65.5C204.982 64.4344 205.369 63.3421 205.848 61.6935C206.304 60.1212 206.746 56.2602 207.076 52.6986C207.239 50.9381 207.372 49.2803 207.464 48.0623C207.51 47.4534 207.546 46.9544 207.57 46.6082C207.582 46.4351 207.592 46.3002 207.598 46.2086C207.601 46.1629 207.604 46.128 207.605 46.1045C207.606 46.0928 207.607 46.0835 207.607 46.0776C207.607 46.0749 207.608 46.0729 207.608 46.0715V46.069L207.616 45.9919V45.9889C207.617 45.9604 207.62 45.9208 207.621 45.8708C207.623 45.7511 207.625 45.5715 207.621 45.3408C207.613 44.879 207.583 44.2127 207.492 43.4075C207.31 41.7933 206.886 39.6398 205.928 37.4585C204.972 35.2803 203.489 33.0871 201.19 31.3644C198.967 29.6986 195.941 28.4423 191.802 28.094L191.398 28.0628Z" fill="#000091"/>
<path d="M183.152 49.0455C183.586 49.0888 183.901 49.4731 183.858 49.9035L183.094 57.4345L185.046 56.91C185.466 56.7971 185.899 57.0439 186.013 57.4614C186.127 57.8789 185.878 58.3091 185.458 58.4222L182.4 59.2441C182.15 59.3113 181.882 59.2517 181.684 59.085C181.486 58.9183 181.383 58.6657 181.409 58.4094L182.288 49.7468C182.332 49.3164 182.719 49.0022 183.152 49.0455Z" fill="#000091"/>
<path d="M180.418 48.4783C180.433 47.7214 180.045 47.0999 179.552 47.0902C179.059 47.0806 178.648 47.6864 178.633 48.4434C178.618 49.2003 179.005 49.8218 179.498 49.8314C179.991 49.8411 180.403 49.2353 180.418 48.4783Z" fill="#000091"/>
<path d="M187.492 49.953C187.978 49.871 188.268 49.1995 188.141 48.4531C188.013 47.7066 187.515 47.168 187.029 47.25C186.543 47.332 186.253 48.0035 186.381 48.75C186.508 49.4964 187.006 50.035 187.492 49.953Z" fill="#000091"/>
<path d="M189.174 40.9999C190.658 40.6721 191.848 41.04 192.658 41.4932C193.059 41.7177 193.368 41.963 193.579 42.1541C193.684 42.2499 193.766 42.3336 193.824 42.3959C193.853 42.4271 193.877 42.4532 193.894 42.473C193.902 42.4827 193.909 42.4909 193.915 42.4975C193.918 42.5008 193.92 42.5042 193.922 42.5066L193.927 42.5109V42.5121C193.924 42.515 193.884 42.5466 193.395 42.9375L193.927 42.5128C194.2 42.8497 194.147 43.3424 193.808 43.6137C193.468 43.885 192.972 43.8324 192.698 43.4956H192.699L192.699 43.4962L192.7 43.4974C192.701 43.498 192.701 43.4983 192.701 43.4987C192.702 43.4994 192.702 43.4999 192.702 43.4999C192.702 43.4998 192.701 43.4979 192.698 43.495C192.693 43.4887 192.682 43.4763 192.666 43.4595C192.635 43.4259 192.584 43.3736 192.514 43.3102C192.373 43.1822 192.161 43.0133 191.884 42.8585C191.338 42.5533 190.545 42.3022 189.517 42.5293C189.092 42.6232 188.67 42.3567 188.576 41.9344C188.481 41.5121 188.749 41.0939 189.174 40.9999Z" fill="#000091"/>
<path d="M179.802 40.7996C180.339 40.8105 180.828 40.891 181.178 40.9666C181.354 41.0047 181.499 41.0424 181.602 41.0713C181.654 41.0857 181.695 41.0977 181.724 41.1068C181.739 41.1113 181.751 41.115 181.76 41.1178C181.764 41.1191 181.768 41.1205 181.77 41.1215C181.772 41.1219 181.774 41.1223 181.775 41.1227L181.776 41.1233H181.777C181.777 41.1234 181.775 41.13 181.574 41.7255L181.777 41.1239C182.19 41.2611 182.413 41.7045 182.275 42.1147C182.137 42.5246 181.691 42.7459 181.279 42.6098C181.278 42.6097 181.277 42.6096 181.276 42.6092C181.273 42.6081 181.267 42.6064 181.258 42.6037C181.24 42.5982 181.211 42.5893 181.173 42.5786C181.097 42.5572 180.983 42.5276 180.842 42.4972C180.557 42.4357 180.175 42.3744 179.769 42.3662C178.918 42.349 178.213 42.561 177.855 43.1685C177.635 43.5418 177.152 43.6674 176.776 43.4488C176.4 43.2302 176.274 42.7499 176.494 42.3766C177.295 41.0193 178.767 40.7786 179.802 40.7996Z" fill="#000091"/>
<path d="M193.282 34.559C193.282 34.559 188.955 58.4012 204.724 59.2445C204.724 59.2445 213.928 59.9349 215.672 56.5557C215.672 56.5557 208.77 53.7512 209.222 49.9524C209.222 49.9524 217.4 57.2441 223.232 50.8487C223.232 50.8487 212.351 50.1407 212.337 40.4798C212.327 33.5529 195.106 28.7597 193.282 34.559Z" fill="#000D59"/>
<path d="M189.783 59.2051C190.15 59.2338 190.448 59.5102 190.502 59.8715L189.722 59.986C190.474 59.8759 190.501 59.872 190.502 59.8721V59.8727L190.503 59.8746C190.503 59.8757 190.503 59.8772 190.503 59.8789C190.504 59.8825 190.504 59.8874 190.505 59.8935C190.507 59.9058 190.509 59.9231 190.512 59.945C190.517 59.9886 190.525 60.0509 190.534 60.1292C190.551 60.2855 190.572 60.507 190.587 60.7742C190.618 61.3055 190.628 62.0326 190.544 62.7937C190.46 63.5467 190.278 64.3846 189.889 65.1058C189.491 65.8431 188.857 66.489 187.892 66.744C187.471 66.8553 187.039 66.6069 186.927 66.189C186.815 65.7709 187.065 65.3413 187.486 65.23C187.928 65.1133 188.251 64.8234 188.498 64.3659C188.753 63.8922 188.903 63.2761 188.976 62.6218C188.988 62.5102 188.997 62.3989 189.005 62.2888C188.047 63.1026 186.564 63.7777 184.362 63.6529C183.927 63.6283 183.595 63.2581 183.619 62.8262C183.644 62.3943 184.017 62.0641 184.452 62.0887C186.394 62.1988 187.509 61.5577 188.14 60.9553C188.465 60.6448 188.678 60.329 188.808 60.0943C188.873 59.9774 188.916 59.8823 188.941 59.8207C188.954 59.79 188.963 59.7679 188.967 59.7559C188.969 59.7499 188.97 59.7462 188.97 59.7454C188.97 59.7451 188.971 59.7457 188.97 59.7467C189.082 59.401 189.418 59.1766 189.783 59.2051Z" fill="#000091"/>
<path d="M193.319 35.0082C193.319 35.0082 193.082 39.7053 202.069 39.4699L207.982 37.5911L212.2 39.4837C212.2 39.4837 218.018 21.8368 196.631 18.8029C171.799 15.2806 173.221 40.729 173.221 40.729L177.106 40.3564C177.106 40.3564 178.184 33.1294 184.805 31.2506" fill="#000D59"/>
<path d="M197.987 29.8073C197.987 29.8073 186.223 45.3419 175.818 45.5773C175.818 45.5773 170.379 34.3043 179.364 29.6073C188.352 24.9102 197.987 29.8093 197.987 29.8093V29.8073Z" fill="#000D59"/>
<path d="M205.905 152.129C207.793 151.53 215.797 150.995 215.797 150.995C215.797 150.995 210.368 149.079 210.326 145.555C210.285 142.03 211.798 142.405 213.231 144.58C214.665 146.755 221.936 147.496 221.936 147.496L224.255 146.755C224.255 146.755 225.831 146.863 227.409 147.749C231.593 145.231 239.58 134.923 240.82 131.228C242.882 125.088 238.197 116.9 238.197 116.9L251.126 109.83C251.126 109.83 258.433 118.202 256.747 129.926C255.06 141.648 235.03 155.516 229.867 157.591C228.696 160.409 226.236 161.525 226.236 161.525C225.102 162.092 220.878 164.712 211.067 163.115C211.067 163.115 206.667 161.884 210.67 161.129C211.707 160.932 212.742 160.84 213.707 160.813L208.549 154.721C204.068 154.763 204.396 152.607 205.907 152.129H205.905Z" fill="white"/>
<path d="M250.746 109.144C251.072 108.965 251.479 109.038 251.723 109.317L251.127 109.83C251.723 109.317 251.723 109.317 251.723 109.317L251.726 109.32C251.727 109.321 251.729 109.324 251.731 109.327L251.818 109.429C251.875 109.499 251.958 109.6 252.06 109.732C252.266 109.996 252.556 110.383 252.896 110.882C253.575 111.88 254.459 113.332 255.288 115.159C256.946 118.811 258.398 123.988 257.528 130.037C257.08 133.147 255.43 136.334 253.198 139.364C250.959 142.404 248.094 145.342 245.135 147.961C239.449 152.995 233.315 156.942 230.464 158.189C229.819 159.585 228.895 160.571 228.118 161.216C227.701 161.561 227.323 161.812 227.045 161.978C226.905 162.061 226.791 162.123 226.708 162.166C226.667 162.187 226.633 162.204 226.609 162.216C226.599 162.22 226.591 162.224 226.584 162.227C226.028 162.506 224.602 163.347 222.074 163.896C219.543 164.446 215.933 164.701 210.94 163.888L210.853 163.869H210.852L210.851 163.869C210.85 163.868 210.849 163.868 210.847 163.867C210.844 163.867 210.84 163.866 210.835 163.864C210.826 163.862 210.812 163.857 210.794 163.852C210.759 163.842 210.709 163.827 210.649 163.808C210.527 163.77 210.359 163.715 210.17 163.646C209.81 163.515 209.309 163.311 208.925 163.054C208.743 162.931 208.503 162.743 208.35 162.476C208.268 162.332 208.199 162.144 208.199 161.923C208.2 161.695 208.274 161.49 208.389 161.32C208.598 161.012 208.935 160.828 209.241 160.705C209.571 160.572 209.996 160.458 210.522 160.359L210.929 160.287C211.323 160.222 211.714 160.171 212.1 160.132L208.179 155.502C207.182 155.484 206.385 155.357 205.769 155.139C205.084 154.896 204.539 154.511 204.271 153.961C203.989 153.383 204.09 152.781 204.387 152.319C204.675 151.874 205.141 151.549 205.665 151.382L205.887 151.318C206.444 151.171 207.26 151.04 208.143 150.923C209.173 150.787 210.362 150.662 211.485 150.557C211.981 150.511 212.466 150.469 212.919 150.431C212.824 150.371 212.729 150.309 212.633 150.244C211.232 149.298 209.563 147.737 209.537 145.564C209.527 144.644 209.614 143.896 209.821 143.339C210.028 142.781 210.43 142.247 211.119 142.154C211.732 142.071 212.278 142.389 212.674 142.719C213.097 143.072 213.509 143.571 213.891 144.151C214.115 144.491 214.652 144.87 215.507 145.233C216.329 145.583 217.322 145.867 218.298 146.091C219.27 146.313 220.202 146.47 220.893 146.572C221.238 146.622 221.521 146.659 221.717 146.682C221.77 146.689 221.817 146.694 221.857 146.698L224.013 146.009C224.108 145.979 224.209 145.967 224.309 145.974L224.255 146.755C224.305 146.024 224.309 145.977 224.309 145.974H224.313C224.315 145.974 224.317 145.974 224.32 145.974C224.325 145.975 224.332 145.976 224.34 145.976C224.356 145.978 224.378 145.98 224.406 145.982C224.461 145.988 224.538 145.996 224.635 146.01C224.828 146.037 225.098 146.082 225.42 146.157C225.955 146.282 226.645 146.493 227.366 146.844C228.264 146.236 229.353 145.275 230.531 144.078C231.865 142.723 233.276 141.104 234.6 139.444C235.924 137.784 237.154 136.091 238.126 134.59C239.109 133.073 239.794 131.805 240.071 130.98C241.02 128.153 240.43 124.771 239.531 122.001C239.087 120.633 238.579 119.449 238.182 118.607C237.984 118.187 237.815 117.853 237.695 117.626C237.636 117.513 237.588 117.426 237.557 117.369C237.541 117.34 237.529 117.319 237.521 117.305C237.518 117.298 237.515 117.293 237.513 117.29C237.512 117.288 237.511 117.287 237.511 117.287C237.407 117.104 237.381 116.888 237.438 116.687C237.496 116.485 237.632 116.315 237.817 116.214L250.746 109.144ZM239.255 117.216C239.358 117.419 239.479 117.663 239.611 117.943C240.029 118.829 240.563 120.075 241.033 121.521C241.931 124.29 242.635 127.927 241.667 131.164L241.568 131.476C241.225 132.498 240.447 133.904 239.453 135.438C238.448 136.988 237.188 138.723 235.837 140.416C234.487 142.11 233.039 143.771 231.659 145.173C230.289 146.564 228.95 147.738 227.817 148.419C227.573 148.566 227.268 148.57 227.02 148.431C226.314 148.034 225.601 147.809 225.059 147.682C224.79 147.62 224.568 147.582 224.416 147.561C224.387 147.557 224.361 147.554 224.337 147.551L222.178 148.242C222.074 148.275 221.964 148.286 221.856 148.275L221.937 147.496L221.855 148.275H221.853C221.852 148.275 221.851 148.275 221.849 148.275C221.845 148.274 221.839 148.274 221.831 148.273C221.816 148.271 221.794 148.269 221.766 148.266C221.71 148.26 221.629 148.25 221.525 148.237C221.318 148.212 221.021 148.174 220.662 148.121C219.945 148.016 218.969 147.852 217.944 147.617C216.924 147.383 215.83 147.074 214.886 146.673C213.974 146.286 213.064 145.757 212.571 145.009C212.237 144.502 211.922 144.138 211.659 143.919C211.52 143.802 211.425 143.751 211.37 143.728C211.352 143.759 211.328 143.808 211.301 143.881C211.192 144.176 211.105 144.703 211.115 145.545C211.131 146.896 212.197 148.055 213.521 148.949C214.156 149.378 214.796 149.707 215.28 149.93C215.52 150.041 215.72 150.124 215.857 150.179C215.926 150.207 215.979 150.227 216.014 150.24C216.031 150.246 216.044 150.251 216.052 150.254C216.056 150.255 216.058 150.256 216.06 150.257H216.061C216.413 150.381 216.629 150.734 216.578 151.102C216.527 151.47 216.223 151.751 215.85 151.777H215.849C215.848 151.777 215.846 151.777 215.844 151.777C215.841 151.777 215.835 151.778 215.828 151.778C215.813 151.779 215.79 151.781 215.761 151.783C215.703 151.787 215.616 151.793 215.505 151.8C215.284 151.816 214.965 151.839 214.577 151.869C213.8 151.928 212.745 152.014 211.632 152.117C210.519 152.221 209.352 152.343 208.351 152.475C207.329 152.611 206.543 152.75 206.146 152.875C205.915 152.948 205.775 153.073 205.716 153.164C205.668 153.239 205.684 153.263 205.691 153.278C205.712 153.322 205.832 153.498 206.298 153.663C206.757 153.826 207.477 153.948 208.541 153.938C208.777 153.936 209.001 154.038 209.153 154.217L214.311 160.309C214.506 160.539 214.551 160.859 214.427 161.133C214.304 161.407 214.032 161.587 213.73 161.596C212.797 161.622 211.805 161.711 210.818 161.898H210.817C210.618 161.936 210.448 161.974 210.302 162.011C210.435 162.069 210.575 162.125 210.713 162.175C210.874 162.234 211.019 162.281 211.123 162.314C211.172 162.329 211.212 162.341 211.239 162.349C216.033 163.124 219.427 162.868 221.737 162.366C224.048 161.865 225.299 161.116 225.881 160.825L225.906 160.812V160.813C225.908 160.812 225.912 160.81 225.918 160.808C225.93 160.802 225.951 160.792 225.979 160.777C226.036 160.748 226.122 160.7 226.232 160.635C226.452 160.504 226.762 160.299 227.107 160.013C227.798 159.44 228.614 158.554 229.138 157.292L229.172 157.221C229.258 157.06 229.4 156.934 229.572 156.865C232.033 155.875 238.253 151.955 244.085 146.791C246.991 144.219 249.772 141.362 251.925 138.44C254.084 135.508 255.57 132.565 255.966 129.815C256.782 124.14 255.423 119.268 253.85 115.803C253.063 114.072 252.227 112.698 251.588 111.76C251.327 111.376 251.098 111.066 250.921 110.835L239.255 117.216Z" fill="#000091"/>
<path d="M215.496 154.794C213.911 154.847 207.668 154.164 205.705 155.127C203.742 156.09 205 157.734 210.626 157.628" fill="white"/>
<path d="M210.759 153.836C211.774 153.858 212.776 153.909 213.612 153.95C214.469 153.993 215.115 154.023 215.47 154.011C215.905 153.997 216.27 154.335 216.285 154.767C216.299 155.2 215.958 155.562 215.523 155.576C215.085 155.591 214.355 155.556 213.534 155.515C212.693 155.474 211.714 155.424 210.725 155.403C209.734 155.381 208.751 155.388 207.904 155.457C207.032 155.528 206.402 155.659 206.054 155.83C205.85 155.93 205.738 156.015 205.68 156.07C205.7 156.086 205.727 156.106 205.761 156.129C206.016 156.3 206.515 156.5 207.345 156.646C208.16 156.789 209.241 156.87 210.611 156.844C211.047 156.836 211.407 157.181 211.415 157.613C211.423 158.046 211.076 158.403 210.641 158.411C209.198 158.438 208.011 158.354 207.07 158.188C206.143 158.026 205.395 157.775 204.878 157.428C204.362 157.082 203.906 156.5 204.088 155.754C204.243 155.119 204.805 154.695 205.355 154.425C205.989 154.114 206.876 153.969 207.775 153.895C208.701 153.82 209.746 153.814 210.759 153.836Z" fill="#000091"/>
<path d="M216.552 158.018C216.325 158.144 206.161 156.859 206.208 158.397C206.246 159.656 207.407 160.523 213.205 160.815H217.962" fill="white"/>
<path d="M207.692 156.927C208.703 156.823 210.024 156.839 211.313 156.896C212.61 156.953 213.913 157.054 214.897 157.133C215.393 157.173 215.801 157.206 216.094 157.226C216.242 157.236 216.349 157.242 216.418 157.243C216.427 157.243 216.435 157.244 216.441 157.244C216.755 157.199 217.079 157.346 217.242 157.637C217.454 158.015 217.317 158.492 216.936 158.703C216.803 158.777 216.677 158.794 216.656 158.797C216.61 158.804 216.569 158.807 216.543 158.809C216.488 158.811 216.429 158.811 216.379 158.809C216.274 158.807 216.14 158.799 215.988 158.789C215.682 158.769 215.259 158.734 214.771 158.695C213.787 158.616 212.508 158.516 211.242 158.461C209.967 158.404 208.742 158.394 207.854 158.486C207.487 158.523 207.219 158.576 207.041 158.631C207.062 158.688 207.09 158.739 207.126 158.785C207.217 158.903 207.412 159.069 207.843 159.243C208.728 159.599 210.344 159.885 213.223 160.031H217.963C218.398 160.031 218.751 160.382 218.752 160.815C218.752 161.247 218.398 161.598 217.963 161.598H213.205C213.192 161.598 213.179 161.598 213.165 161.598C210.26 161.451 208.403 161.158 207.25 160.694C206.662 160.457 206.196 160.152 205.878 159.744C205.549 159.322 205.433 158.861 205.42 158.42L205.421 158.42C205.399 157.699 206 157.355 206.329 157.22C206.71 157.064 207.196 156.979 207.692 156.927ZM216.274 157.287C216.268 157.289 216.261 157.291 216.254 157.293C216.261 157.291 216.267 157.289 216.274 157.287Z" fill="#000091"/>
</g>
</g>
<defs>
<clipPath id="clip0_460_5706">
<rect width="284" height="158.625" fill="white"/>
</clipPath>
<clipPath id="clip1_460_5706">
<rect width="230.987" height="159.8" fill="white" transform="translate(26.5068 6.96729)"/>
</clipPath>
</defs>
</svg>
