<svg xmlns="http://www.w3.org/2000/svg" width="284" height="159" fill="none" viewBox="0 0 284 159"><g clip-path="url(#a)"><path fill="#e8edff" d="M1 0h282v158.625H1z"/><g clip-path="url(#b)"><path fill="#c1c1fb" d="M134.758 138.625c-1.849 6.528-2.335 6.874-2.335 6.874l-.023.335c.292 1.394 1.52 4.828 1.52 4.828.992 3.085-.879 2.577-1.99 1.458.181.206.369.394.56.555.917 1.11.103 2.533-.387 2.706-.485.171-1.481-1.049-3.13-2.708l.121.188c2.93 2.773 3.286 5.642 1.125 4.944-.158-.051-.517-.341-.997-.79.124.827-.01 1.492-.871 1.322-1.007-.2-3.075-3.225-4.568-5.551-2.504-3.9-2.138-9.613-2.138-9.613s.11-1.128.16-1.563q0-.015.002-.03l.126-1.753c.403-5.568 4.349-10.322 9.821-11.595q.51-.118 1.029-.192l1.975 10.59z"/><path fill="#000091" d="M132.671 127.265c.419-.06.81.22.887.633l1.968 10.556q.02.082.02.171v.005q-.001.13-.041.248c-.92 3.247-1.508 4.982-1.873 5.915-.182.467-.315.75-.413.927q-.011.02-.024.041l-.001.011c.15.661.495 1.764.824 2.754.171.512.332.981.451 1.322l.142.405.039.11.01.028.004.009.008.025c.26.81.371 1.492.292 2.036-.04.281-.137.563-.326.8a1.34 1.34 0 0 1-.735.467q-.105.025-.21.036a2.873 2.873 0 0 1-.56 1.744c-.17.227-.428.493-.766.612a2 2 0 0 1-.109.031q.05.174.083.339c.109.576.089 1.3-.427 1.792-.541.516-1.297.475-1.939.268a1 1 0 0 1-.16-.067c-.142.24-.358.448-.659.565a1.65 1.65 0 0 1-.842.077l-.118-.02a2 2 0 0 1-.716-.323 5 5 0 0 1-.609-.509c-.397-.386-.822-.888-1.247-1.437-.851-1.1-1.757-2.461-2.506-3.628-1.346-2.096-1.9-4.637-2.127-6.602a23 23 0 0 1-.146-3.205l.008-.201.003-.054.001-.016v-.006l.002-.027.001-.003v-.01l.004-.037.014-.134.043-.436c.032-.319.071-.693.096-.921l.004-.056.125-1.729c.427-5.897 4.607-10.947 10.428-12.301l.001-.001q.542-.125 1.096-.204m-.738 1.73h-.001c-5.123 1.192-8.833 5.65-9.212 10.888l-.126 1.753-.004.018-.001.043c-.024.212-.064.598-.098.935l-.044.434-.012.134-.003.022v.001l-.001.01-.002.042-.007.175c-.005.154-.009.383-.007.67.005.575.036 1.383.143 2.308.216 1.866.732 4.133 1.891 5.938.744 1.159 1.619 2.472 2.426 3.516.405.523.778.959 1.098 1.27q.241.231.401.338.064.043.097.06a2 2 0 0 0-.029-.419.78.78 0 0 1 .415-.811.79.79 0 0 1 .906.125q.35.327.572.503.11.088.163.121l.003.002c.159.048.255.058.309.057a1 1 0 0 0-.019-.348c-.143-.752-.839-2.024-2.241-3.352a.8.8 0 0 1-.122-.147l-.121-.188a.78.78 0 0 1 .175-1.033.793.793 0 0 1 1.053.063c.862.868 1.474 1.538 1.985 2.025q.244.23.397.349c.057-.091.112-.205.149-.334.092-.316.073-.651-.154-.951a6 6 0 0 1-.576-.576.78.78 0 0 1 .057-1.09.79.79 0 0 1 1.098.024c.226.228.483.415.711.528a1.3 1.3 0 0 0 .206.081c.015-.213-.026-.613-.24-1.278l-.006-.016-.04-.113-.144-.412a93 93 0 0 1-.457-1.343c-.341-1.025-.737-2.275-.894-3.023a.8.8 0 0 1-.014-.217l.023-.332.011-.086a.77.77 0 0 1 .175-.367l.014-.027c.051-.092.156-.303.326-.738.333-.852.893-2.498 1.785-5.639l-1.797-9.641q-.11.023-.217.048m-.027 15.912a1 1 0 0 1 .054-.042l-.005.003-.008.007-.016.011zm-9.315-3.263.002-.01.001-.024z"/><path fill="#c1c1fb" d="M132.537 152.681c-1.795-1.516-3.203-5.272-3.203-5.272-.045.396 1.309 3.016 2.334 4.364"/><path fill="#000091" d="M129.24 146.631a.79.79 0 0 1 .834.505l.001.001.002.006.011.029.045.114a22.618 22.618 0 0 0 .834 1.836c.571 1.119 1.313 2.313 2.082 2.962a.78.78 0 0 1 .09 1.104.79.79 0 0 1-1.112.089 6.7 6.7 0 0 1-.88-.917.7.7 0 0 1-.107-.115c-.549-.721-1.167-1.755-1.638-2.647a16 16 0 0 1-.593-1.226 6 6 0 0 1-.183-.487 3 3 0 0 1-.06-.234 1.2 1.2 0 0 1-.015-.331l.011-.066a.79.79 0 0 1 .678-.623"/><path fill="#fff" d="M125.979 148.07s1.328 2.891 3.002 4.569z"/><path fill="#000091" d="M125.652 147.357a.79.79 0 0 1 1.046.388l.002.005.01.022.042.088a22.467 22.467 0 0 0 .784 1.474c.53.914 1.241 1.987 2.006 2.754a.78.78 0 0 1-.006 1.108.793.793 0 0 1-1.115-.005c-.909-.912-1.7-2.123-2.252-3.075a24 24 0 0 1-.841-1.581l-.048-.102-.013-.027-.005-.01v-.001a.78.78 0 0 1 .39-1.038"/><path fill="#c1c1fb" d="M130.249 157.809c-.812-.261-6.811-6.737-7.599-8.902-.608-1.673-1.114-4.111-.812-7.325"/><path fill="#000091" d="M121.911 140.803c.434.04.753.421.712.852-.29 3.093.197 5.415.768 6.986l.072.172c.199.433.623 1.09 1.225 1.895.67.893 1.504 1.897 2.345 2.848.84.95 1.678 1.838 2.352 2.5.337.332.626.6.849.789q.167.141.26.206.04.027.051.033c.38.153.583.573.454.967a.79.79 0 0 1-.993.503 1.6 1.6 0 0 1-.423-.224 5 5 0 0 1-.374-.293 18 18 0 0 1-.934-.867 53 53 0 0 1-2.428-2.581 49 49 0 0 1-2.425-2.946c-.683-.912-1.274-1.807-1.515-2.47-.645-1.774-1.168-4.328-.855-7.663a.79.79 0 0 1 .859-.707"/><path fill="#ff8d7e" d="m127.056 164.218-73.464.196 3.752-40.597-2.666-31.869s-7.406 6.178-9.578 16.964c-2.909 14.445 18.267 21.083 18.267 21.083l-3.357 19.612s-34.658-12.453-33.473-39.91C27.72 82.24 47.474 70.626 53.887 66.453 65.342 59 79.405 60.137 79.405 60.137l29.356.858s15.405 1.982 21.926 8.456c0 0 23.92 24.458 25.894 46.816 1.975 22.357-22.908 29.81-22.908 29.81l-2.567-23.142s13.231-3.334 5.925-15.494c-7.307-12.159-12.146-14.414-12.146-14.414l2.173 71.191z"/><path fill="#c1c1fb" d="m87.612 45.942-1.635 10.232-5.124 4.12 20.629 16.945s4.236-6.895 5.924-9.806c1.623-2.799 2.516-3.863 2.828-8.56.158-2.373-22.622-12.93-22.622-12.93"/><path fill="#000091" d="m87.945 45.232.002.001.003.001.013.006.049.023.192.09.724.34a312.506 312.506 0 0 1 10.418 5.13c2.843 1.47 5.699 3.025 7.841 4.366 1.067.668 1.982 1.298 2.633 1.85.323.276.608.553.815.825.185.243.415.618.386 1.06-.159 2.393-.47 3.919-.973 5.222-.494 1.277-1.173 2.323-1.959 3.678-.849 1.464-2.334 3.922-3.604 6.009-.635 1.044-1.218 1.998-1.641 2.69l-.504.822-.184.3-.002.002-.473.772-22.075-18.131 5.639-4.534 1.752-10.961zm-1.237 11.361-.234.19-4.376 3.517 19.183 15.758.214-.348c.423-.692 1.005-1.644 1.64-2.688 1.271-2.088 2.748-4.533 3.587-5.98.837-1.443 1.416-2.33 1.853-3.458.421-1.09.711-2.427.865-4.682a1 1 0 0 0-.063-.093 4 4 0 0 0-.582-.578c-.565-.48-1.404-1.062-2.45-1.717-2.085-1.306-4.895-2.837-7.728-4.302a311 311 0 0 0-7.792-3.878 346 346 0 0 0-2.573-1.226l-.026-.012z"/><path fill="#c1c1fb" d="M115.328 24.557c-1.592-8.79-12.562-7.644-14.161-7.446-14.745 1.828-15.438 14.126-15.339 17.58l-.642.078s.073.589.198 1.542c-1.908.46-5.344 1.957-4.222 6.684.85 3.583 3.548 3.906 5.776 3.489.298 1.584.602 2.937.885 3.736 1.135 3.214 1.907 4.636 6.327 7.495s13.618 3.88 17.716-1.373c3.794-4.863 4.1-13.628 4.126-14.897.369-4.867.387-11.1-.662-16.888z"/><path fill="#000091" d="M101.069 16.333c.823-.102 4.086-.453 7.374.371 3.167.794 6.47 2.723 7.523 7.07h.023l.117.645c1.064 5.869 1.044 12.166.673 17.07a40 40 0 0 1-.662 6.2c-.561 2.995-1.614 6.551-3.627 9.133h-.001c-2.25 2.883-5.85 3.986-9.35 4.032s-7.063-.958-9.42-2.483c-2.233-1.444-3.616-2.57-4.584-3.785-.974-1.223-1.486-2.488-2.057-4.107l-.115-.348c-.22-.71-.441-1.678-.658-2.765-1 .102-2.095.038-3.098-.413-1.317-.593-2.342-1.791-2.814-3.779-.614-2.587.009-4.419 1.165-5.654.883-.943 2.018-1.476 2.956-1.778l-.059-.461-.039-.308-.01-.08q0-.014-.003-.02v-.008l-.097-.777.726-.09c.017-2.022.35-5.622 2.203-9.075 2.124-3.959 6.206-7.644 13.834-8.59m6.988 1.89c-2.994-.75-6.016-.431-6.793-.335-7.116.882-10.753 4.26-12.637 7.771-1.91 3.561-2.059 7.341-2.011 9.01l.02.712-.569.07q.041.324.099.759l.09.696-.686.166c-.893.216-2.052.656-2.856 1.514-.758.81-1.293 2.09-.785 4.229.379 1.595 1.129 2.35 1.93 2.711.847.381 1.892.383 2.932.188l.777-.146.145.771c.261 1.39.52 2.557.754 3.32l.1.3v.002c.563 1.595 1.006 2.648 1.806 3.654.808 1.014 2.02 2.029 4.207 3.444 2.063 1.334 5.31 2.271 8.538 2.229 3.228-.043 6.276-1.056 8.124-3.425 1.78-2.282 2.777-5.54 3.324-8.46.543-2.9.624-5.361.637-5.974v-.02l.002-.022c.36-4.752.38-10.793-.604-16.416l-.05-.275c-.721-3.986-3.531-5.73-6.494-6.473"/><path fill="#000091" d="M107.32 36.7a.79.79 0 0 1 .903.65l1.01 6.29c.256 1.6-1.181 2.958-2.776 2.626l-.073-.02-2.165-.67a.78.78 0 0 1-.518-.981.79.79 0 0 1 .988-.514l2.113.654a.747.747 0 0 0 .882-.753l-.01-.095-1.009-6.29a.784.784 0 0 1 .655-.897"/><path fill="#6a6af4" d="M118.664 35.417c0-.949-.774-1.717-1.729-1.718h-6.616c-.954 0-1.729.77-1.729 1.718v4.02a1.724 1.724 0 0 0 1.729 1.717h6.616c.955 0 1.729-.768 1.729-1.717zm1.578 4.02c0 1.814-1.48 3.284-3.307 3.284h-6.616c-1.826 0-3.306-1.47-3.306-3.284v-4.02c0-1.814 1.48-3.284 3.306-3.284h6.616c1.827 0 3.307 1.47 3.307 3.284z"/><path fill="#000091" d="M113.568 39.145c.486-.022.854-.643.821-1.389-.033-.745-.454-1.333-.94-1.311-.486.02-.853.642-.82 1.388s.453 1.333.939 1.312M102.975 39.106c.486-.022.853-.643.82-1.389-.033-.745-.454-1.333-.939-1.311-.486.02-.854.642-.821 1.388s.454 1.333.94 1.312M98.827 31.391c.818-.415 2.008-.732 3.461-.35a.784.784 0 1 1-.404 1.514c-1.001-.263-1.791-.047-2.338.231a3.4 3.4 0 0 0-.793.56l-.032.033-.002.001-.001.002h-.002l-.051.054a.793.793 0 0 1-1.057.017.78.78 0 0 1-.075-1.105l.48.417-.48-.418.002-.002.003-.003.008-.009a2 2 0 0 1 .093-.096c.06-.06.145-.14.253-.23.215-.18.53-.41.935-.616M109.846 30.102a4.5 4.5 0 0 1 1.101-.047c.878.077 2.004.496 2.49 1.86a.78.78 0 0 1-.48 1 .79.79 0 0 1-1.007-.477c-.21-.59-.639-.778-1.141-.822a3 3 0 0 0-.932.076l-.061.015a.783.783 0 1 1-.462-1.497l.166.537-.166-.537h.001l.005-.002.011-.003a2 2 0 0 1 .132-.035c.084-.02.202-.045.343-.068"/><path fill="#000d59" d="M118.262 21.649c-.851-1.818-1.898-2.338-2.822-2.332a9 9 0 0 0-.164-.988c-.642-2.891-2.49-5.364-5.028-6.872h.006s-3.112-3.309-12.939-2.607c-9.825.702-10.08 6.294-10.08 6.294-4.46 2.993-7.691 6.74-7.93 9.949-.674 8.984 3.132 11.165 4.704 11.68q.255-.11.503-.197c.052.149.103.27.152.353 6.193-.418 6.521-9.077 8.48-13.24a.847.847 0 0 1 1.183-.371c2.75 1.545 6.493 2.05 10.929 1.44 4.795-.66 6.94-2.878 7.895-4.633l.093.096q.065.071.131.145.029.035.059.069.055.066.108.131.04.047.075.093l.095.123.083.11.085.118q.045.061.089.127.038.055.073.11.048.071.093.145.032.051.063.102.05.081.097.165l.053.094q.051.091.099.184.021.041.043.085.053.103.103.21c.324.686.575 1.457.733 2.33.517 2.86.776 5.828.859 8.687a.47.47 0 0 0 .353-.115c1.957-1.556 3.748-7.163 1.722-11.483z"/><path fill="#000d59" d="M85.189 36.535s-2.05 1.637-3.336.178c-1.285-1.459-.55-3.1-.55-3.1s-1.286.547-2.204-.913.55-2.918.55-2.918-2.387.183-2.02-2.006c.368-2.189 1.837-2.189 1.837-2.189s-1.653-.912-.918-2.37c.734-1.46 2.02-1.095 2.02-1.095s-1.787-.555-1.102-2.371c.55-1.46 2.387-.73 2.387-.73s-1.102-.547-.367-1.824c.735-1.276 2.388-.547 2.388-.547s-.735-.912-.184-2.006 2.204-.183 2.204-.183-1.286-1.276-.184-2.188 2.204 0 2.204 0-.918-1.095.551-2.007 2.198.373 2.198.373-.178-2.014 1.659-2.379 2.204 1.46 2.204 1.46-.367-1.642.918-1.825c1.286-.182 1.837.912 1.837.912s-.551-1.641 1.285-1.641c1.837 0 1.837 2.006 1.837 2.006s-.735-2.006.735-2.006 1.469 1.277 1.469 1.277 0-1.642 2.388-1.46c2.387.183 1.469 2.007 1.469 2.007s.734-1.277 2.571-.912.184 2.006.184 2.006 2.02-.912 3.489.365c1.274 1.108-.207 3.216-.207 3.216s1.126-1.757 3.329-.298c2.204 1.46 0 3.1 0 3.1s1.837-.729 3.123.913c1.285 1.641-1.102 2.736-1.102 2.736s1.469 0 2.02 1.276-1.469 2.554-1.469 2.554 1.836-.365 2.02 1.459-2.204 2.189-2.204 2.189 1.837.547 1.286 2.006-2.572 1.277-2.572 1.277l-2.338-8.647-3.722-5.215-6.612-.547-6.06 3.283-6.245 1.641-2.572 3.283-1.469 7.114z"/><path fill="#000d59" d="M84.792 35.982s.735 2.006 2.388 1.276c1.652-.73.734-2.37.734-2.37s.735.911 1.837-.183 0-2.006 0-2.006.918.73 1.836-1.095c.919-1.824-.55-2.37-.55-2.37s.918.729 1.836-.73-.918-2.554-.918-2.554.918.365 1.836-.73c.919-1.094 0-2.188 0-2.188s-.367 1.459 1.286 1.641c1.653.183 2.939-.73 2.939-.73s-.552 1.46.918 1.825c1.469.364 2.02-1.095 2.02-1.095s0 1.46 1.469 1.46 1.286-1.642 1.286-1.642.735 1.642 2.02 1.277.918-1.642.918-1.642.368 1.46 1.837.912.918-1.824.918-1.824.551 1.095 1.653.547.368-1.823.368-1.823.734 1.094 1.653.547c.918-.547 1.469-1.46 1.469-1.46l-1.469-1.459-5.878.365-16.162.365-2.938 9.12z"/><path fill="#000d59" d="M113.629 23.214c.551.73 1.285.547 1.285.547s-.734.365-.734 1.46 1.285 1.459 1.285 1.459-.735.364-.735 1.276 1.102 1.824 1.102 1.824-1.102 0-.918 1.46 1.274 2.006 1.274 2.006l2.344-3.407-1.23-4.618-1.653-3.648-1.469-2.007-2.204.365z"/><path fill="#6a6af4" d="M105.037 35.417c0-.949-.774-1.717-1.729-1.718h-6.616c-.954 0-1.728.77-1.728 1.718v4.02c0 .949.774 1.717 1.728 1.717h6.616c.955 0 1.729-.768 1.729-1.717zm1.578 4.02c0 1.814-1.48 3.284-3.307 3.284h-6.616c-1.826 0-3.306-1.47-3.306-3.284v-4.02c0-1.814 1.48-3.284 3.306-3.284h6.616c1.827 0 3.307 1.47 3.307 3.284z"/><path fill="#6a6af4" d="M107.603 35.663c.436 0 .789.35.789.783a.786.786 0 0 1-.789.784h-1.58a.787.787 0 0 1-.789-.784c0-.432.354-.783.789-.783zM94.372 35.467c.436 0 .789.35.789.783a.786.786 0 0 1-.79.783h-7.898a.786.786 0 0 1-.79-.783c0-.432.354-.783.79-.783z"/><path fill="#fff" d="M107.801 50.174s-4.739-.392-7.504-1.569c0 0 .351 4.511 4.345 4.511 2.764 0 3.159-2.942 3.159-2.942"/><path fill="#000091" d="M99.837 47.968a.79.79 0 0 1 .77-.082c1.289.548 3.085.928 4.604 1.172a42 42 0 0 0 2.457.317l.15.014.037.004h.011a.8.8 0 0 1 .549.29.78.78 0 0 1 .168.595l-.782-.103.782.104-.001.002v.005l-.002.011-.006.037-.022.12a5.1 5.1 0 0 1-.617 1.594c-.546.904-1.563 1.852-3.294 1.852-2.378 0-3.693-1.378-4.37-2.68a7.3 7.3 0 0 1-.754-2.48l-.005-.05-.001-.015v-.008l.786-.062-.787.061a.78.78 0 0 1 .327-.698m1.542 1.851c.078.22.174.453.293.682.497.954 1.354 1.832 2.969 1.832 1.034 0 1.597-.523 1.94-1.09.079-.13.143-.263.198-.39a43 43 0 0 1-1.819-.248c-1.092-.175-2.391-.43-3.581-.786"/><path fill="#c1c1fb" d="M85.105 142.689c4.8.045 4.45-2.266 2.832-2.779-2.022-.642-10.599-1.214-10.599-1.214s5.816-2.052 5.861-5.829c.046-3.775-1.575-3.375-3.112-1.045-1.536 2.329-8.948 3.41-8.948 3.41l-2.861-1.081s-7.93.536-6.634 8.973c.377 4.981 4.512 6.852 4.512 6.852 1.215.608 5.74 3.415 16.251 1.705 0 0 4.714-1.32.427-2.13a21 21 0 0 0-3.255-.34"/><path fill="#000091" d="M80.72 129.87c.421-.35.99-.678 1.624-.592.708.097 1.126.646 1.344 1.234s.312 1.382.3 2.364c-.028 2.3-1.794 3.958-3.293 4.969q-.225.151-.446.287c.534.044 1.11.094 1.704.15 1.203.112 2.476.245 3.579.391.946.125 1.816.265 2.408.422l.237.068c.551.175 1.04.517 1.34.982.309.481.413 1.105.12 1.704-.278.571-.846.977-1.572 1.234-.734.26-1.712.401-2.968.389a.786.786 0 0 1-.78-.791.786.786 0 0 1 .796-.776c1.144.011 1.922-.12 2.422-.297.508-.18.65-.376.683-.441.017-.036.03-.083-.031-.179-.072-.111-.233-.251-.49-.333-.43-.136-1.278-.285-2.374-.43a97 97 0 0 0-3.517-.384 187 187 0 0 0-4.152-.339l-.274-.019-.09-.006h-.005a.784.784 0 0 1-.211-1.52l.01-.003.041-.016a11 11 0 0 0 .79-.333c.52-.24 1.209-.594 1.893-1.055 1.42-.959 2.585-2.215 2.603-3.693.01-.905-.082-1.478-.203-1.804a.9.9 0 0 0-.105-.211c-.054.017-.174.067-.368.229-.287.239-.628.634-.988 1.179-.508.771-1.427 1.352-2.368 1.795-.969.456-2.088.823-3.132 1.11a37 37 0 0 1-3.656.799l-.247.039-.066.01-.017.003h-.005l-.002.001a.8.8 0 0 1-.396-.043l-2.684-1.014-.12.016c-.192.028-.47.077-.802.16-.667.168-1.528.47-2.344 1.002-.81.529-1.566 1.28-2.055 2.356-.458 1.009-.703 2.353-.48 4.155l.051.366.007.06c.172 2.267 1.192 3.814 2.173 4.803.493.497.974.852 1.33 1.08a6 6 0 0 0 .526.304l.023.011.028.013c.622.312 1.97 1.117 4.453 1.656 2.482.539 6.125.814 11.269-.017l.002-.001.13-.039c.111-.035.267-.086.44-.149.202-.073.406-.157.59-.243a8 8 0 0 0-.709-.163 20 20 0 0 0-3.13-.326.786.786 0 0 1-.765-.807.787.787 0 0 1 .812-.759c1.067.032 2.22.133 3.378.353l.401.082q.57.128.962.286c.325.131.672.323.886.639a1.09 1.09 0 0 1 .04 1.179c-.158.275-.406.471-.6.601-.405.272-.936.488-1.322.629-.201.073-.38.132-.51.172q-.097.031-.154.047l-.044.013-.013.003-.004.002h-.002a1 1 0 0 1-.086.019c-5.344.869-9.204.597-11.908.01-2.685-.583-4.204-1.474-4.809-1.779l-.012-.006-.046-.022q-.058-.028-.156-.08a8 8 0 0 1-.528-.313 9.5 9.5 0 0 1-1.597-1.296c-1.177-1.187-2.407-3.057-2.618-5.757-.336-2.216-.078-3.979.553-5.37.634-1.396 1.617-2.361 2.627-3.021 1.005-.656 2.045-1.016 2.824-1.212a10 10 0 0 1 1.242-.227l.08-.008.032-.002h.004c0 .002.004.042.047.671l-.046-.671a.8.8 0 0 1 .334.049l2.665 1.006.108-.017a35.039 35.039 0 0 0 3.496-.763c1-.275 2.022-.614 2.876-1.016.88-.414 1.464-.843 1.724-1.237.408-.619.846-1.149 1.294-1.522"/><path fill="#c1c1fb" d="M77.661 142.767c1.698.057 8.387-.675 10.49.357 2.104 1.031.755 2.792-5.272 2.679"/><path fill="#000091" d="M82.738 141.797c1.085-.024 2.202-.018 3.191.063.963.078 1.904.234 2.573.562.585.287 1.168.73 1.328 1.387.186.766-.28 1.369-.824 1.733-.545.366-1.337.633-2.327.807-1.004.176-2.272.266-3.815.237a.786.786 0 0 1-.773-.799.787.787 0 0 1 .803-.768c1.47.028 2.632-.059 3.51-.213.893-.157 1.437-.373 1.72-.563a1 1 0 0 0 .134-.106c-.054-.061-.178-.175-.455-.311-.383-.188-1.067-.328-2.003-.404-.91-.075-1.965-.082-3.028-.059-1.06.023-2.11.076-3.011.121-.881.044-1.66.081-2.126.065a.785.785 0 0 1-.761-.809.787.787 0 0 1 .814-.756c.383.013 1.078-.02 1.994-.065.897-.044 1.97-.099 3.056-.122"/><path fill="#c1c1fb" d="M76.53 146.22c.243.136 11.134-1.241 11.085.404-.04 1.35-1.286 2.279-7.496 2.591h-5.097"/><path fill="#000091" d="M82.147 145.074c1.38-.061 2.793-.077 3.872.033.53.055 1.043.145 1.444.309.348.143.961.497.94 1.231a2.3 2.3 0 0 1-.478 1.387c-.333.427-.822.749-1.447 1.001-1.227.494-3.208.806-6.32.963l-.04.001h-5.097a.786.786 0 0 1-.789-.783c0-.433.354-.784.79-.784h5.068c3.092-.156 4.836-.463 5.795-.849.467-.188.685-.371.79-.508a.64.64 0 0 0 .119-.236c-.195-.067-.504-.129-.937-.174-.957-.098-2.273-.086-3.64-.026-1.357.06-2.727.167-3.782.251-.523.042-.976.079-1.304.101a9 9 0 0 1-.417.021 2 2 0 0 1-.287-.012c-.022-.004-.148-.021-.283-.096a.781.781 0 0 1 .502-1.457l.03-.001a7 7 0 0 0 .349-.018c.314-.021.752-.057 1.283-.099 1.054-.084 2.45-.194 3.84-.255M103.338 76.068l-4.212.234a1.787 1.787 0 0 0-1.692 1.79l.033 4.405a1.787 1.787 0 0 0 1.926 1.761l4.287-.32a1.784 1.784 0 0 0 1.657-1.82l-.109-4.318a1.785 1.785 0 0 0-1.892-1.732z"/><path fill="#000091" d="m99.357 83.515-2.172 50.599 5.529 7.452 4.937-7.845-3.555-51.187z"/><path fill="#ff8d7e" d="M77.452 60.184S92.2 81.554 93.188 80.965c.987-.588 8.294-3.726 8.294-3.726s2.765.196 7.899 3.334c0-1.373 2.074-18.253 2.074-18.253l-1.165-2.51-8.413 15.664-19.946-16.67z"/><path fill="#000091" d="M81.794 58.032a.8.8 0 0 1 .645.173l19.2 16.047 7.955-14.81.059-.094a.79.79 0 0 1 1.353.134l1.165 2.51a.8.8 0 0 1 .072.315l-.005.108v.003l-.002.01-.004.036-.018.141-.065.538-.235 1.93c-.194 1.604-.453 3.756-.712 5.95a795 795 0 0 0-.713 6.204c-.197 1.805-.319 3.058-.319 3.346a.78.78 0 0 1-.404.684.8.8 0 0 1-.799-.017c-2.519-1.54-4.439-2.347-5.71-2.767a12 12 0 0 0-1.418-.386 6 6 0 0 0-.244-.044l-.115.05-.84.364c-.7.303-1.642.713-2.615 1.14-.974.43-1.976.875-2.795 1.25-.84.384-1.435.67-1.637.79-.364.217-.72.093-.837.045a1.7 1.7 0 0 1-.39-.232 6.4 6.4 0 0 1-.714-.673c-.522-.553-1.196-1.361-1.96-2.326-1.532-1.934-3.477-4.562-5.383-7.198a627 627 0 0 1-6.87-9.707l-.471-.678-.124-.178-.032-.047-.008-.012-.002-.003a.78.78 0 0 1 .416-1.191l4.48-1.38zm-3.085 2.585.028.04c.405.583.984 1.414 1.683 2.41a625 625 0 0 0 5.17 7.272c1.904 2.632 3.832 5.237 5.342 7.143.757.956 1.398 1.722 1.872 2.224q.228.24.377.375c.351-.176.842-.408 1.389-.657.829-.38 1.84-.829 2.816-1.258a521 521 0 0 1 3.466-1.51l.234-.1.062-.027.015-.006.004-.002h.002a.8.8 0 0 1 .369-.063l-.056.781.057-.781h.007l.013.002.036.003.121.014q.154.02.433.074c.371.074.909.205 1.606.436 1.192.394 2.847 1.08 4.936 2.268.058-.6.137-1.355.23-2.197.194-1.78.454-4.02.713-6.217.26-2.197.519-4.35.713-5.955l.235-1.932.062-.508-.406-.875-7.665 14.272a.79.79 0 0 1-1.204.23L81.753 59.68zm22.715 17.404zh-.002z"/><path fill="#fff" d="m161.627 113.454 3.665 51.319 8.751-.94 1.289-49.492z"/><path fill="#000091" d="m161.678 112.673 13.706.886a.786.786 0 0 1 .737.802l-1.289 49.493a.79.79 0 0 1-.704.758l-8.751.939a.785.785 0 0 1-.872-.723l-3.665-51.318a.782.782 0 0 1 .838-.837m4.343 51.233 7.25-.778 1.253-48.055-12.047-.779z"/><path fill="#6a6af4" d="m174.621 141.36-31.441 7.794 6.149 17.613 24.123-1.879z"/><path fill="#000091" d="m236.322 119.134-.09.07 3.71 45.316-66.492.135 1.654-46.268-18.209-.471 5.729-26.84c2.172-5.532 5.361-11.211 11.167-12.631 13.526-3.307 35.024-6.14 51.135-6.629a13.95 13.95 0 0 1 11.339 5.233l20.667 31.104s-11.055 6.141-20.612 10.979z"/><path fill="#fff" d="M210.061 73.663 204.555 59.7l-16.764 10.61 1.511 10.43c6.272 17.444 21.97-4.005 20.759-7.075z"/><path fill="#000091" d="M204.208 58.997a.79.79 0 0 1 1.082.417l5.506 13.964q.014.037.025.077c.121.36.11.754.055 1.107-.062.394-.19.83-.365 1.284-.351.91-.918 1.98-1.636 3.095-1.437 2.228-3.538 4.722-5.899 6.57-2.335 1.826-5.077 3.138-7.747 2.687-2.74-.463-5.058-2.71-6.67-7.195a.7.7 0 0 1-.038-.152l-1.511-10.43a.78.78 0 0 1 .357-.772l16.764-10.61zm-15.564 11.701 1.426 9.846c1.52 4.187 3.504 5.785 5.424 6.11 2 .337 4.282-.635 6.505-2.374 2.196-1.718 4.185-4.071 5.547-6.183.681-1.056 1.191-2.03 1.491-2.81.151-.392.241-.715.279-.964.02-.123.024-.217.021-.284-.002-.058-.01-.085-.011-.088l-.005-.013-5.151-13.066z"/><path fill="#000d59" d="M177.59 35.034s15.081 7.427 9.064 16.45c0 0-2.711 3.793-5.314 3.362 0 0 1.556-3.14-.749-4.454 0 0 .251 8.927-7.243 7.862 0 0 2.281-4.195 1.082-8.825-2.5-9.66-.826-15.78 3.16-14.397z"/><path fill="#fff" d="M208.403 46.085s.979-17.572-16.95-18.804c-1.669-.116-13.101-.673-14.219 8.808-.746 6.332-.328 13.085.365 18.29.004.03 1.162 9.849 5.627 14.928s13.087 3.705 17.402.555 5.014-4.632 5.978-7.952 1.789-15.79 1.789-15.79l.006-.035z"/><path fill="#000091" d="M183.894 27.341c3.355-1.079 6.754-.9 7.614-.841 4.617.317 8.068 1.692 10.632 3.613 2.561 1.919 4.194 4.35 5.234 6.72 1.039 2.365 1.492 4.681 1.686 6.4.097.861.13 1.578.139 2.082q.005.38-.001.59l-.005.16-.002.044-.001.013v.006l-.787-.042.787.042a1 1 0 0 1-.012.097l-.005.09-.029.403a290.106 290.106 0 0 1-.497 6.124c-.324 3.503-.776 7.537-1.283 9.285-.485 1.672-.93 2.98-1.845 4.274-.909 1.284-2.245 2.502-4.424 4.093-2.295 1.675-5.686 2.853-9.087 2.96-3.407.107-6.942-.861-9.377-3.631-2.353-2.677-3.797-6.544-4.653-9.667a46 46 0 0 1-.903-4.01 39 39 0 0 1-.197-1.214c-.039-.272-.06-.443-.061-.45-.698-5.242-1.123-12.064-.367-18.484.607-5.143 4.052-7.566 7.444-8.657m7.504.722c-.809-.056-3.96-.214-7.018.769-3.021.972-5.851 3.01-6.362 7.348-.737 6.246-.325 12.928.363 18.096l.058.43c.12.827.437 2.758 1.062 5.038.839 3.064 2.207 6.647 4.319 9.049 2.03 2.309 5.04 3.193 8.138 3.095 3.105-.097 6.183-1.182 8.203-2.656 2.135-1.559 3.306-2.657 4.067-3.732.754-1.066 1.141-2.158 1.62-3.806.456-1.573.898-5.434 1.228-8.995a281 281 0 0 0 .494-6.09l.028-.4.007-.105.002-.026.001-.007v-.002l.008-.077v-.003q.003-.043.005-.118c.002-.12.004-.3 0-.53a21 21 0 0 0-.129-1.934c-.182-1.614-.606-3.767-1.564-5.948-.956-2.179-2.439-4.372-4.738-6.095-2.223-1.665-5.249-2.922-9.388-3.27z"/><path fill="#000091" d="M183.152 49.046a.785.785 0 0 1 .706.858l-.764 7.53 1.952-.524a.783.783 0 1 1 .412 1.512l-3.058.822a.8.8 0 0 1-.716-.159.78.78 0 0 1-.275-.676l.879-8.662a.79.79 0 0 1 .864-.702M180.418 48.478c.015-.757-.373-1.378-.866-1.388s-.904.596-.919 1.353.372 1.379.865 1.388c.493.01.905-.596.92-1.353M187.492 49.953c.486-.082.776-.754.649-1.5-.128-.746-.626-1.285-1.112-1.203s-.776.754-.648 1.5c.127.746.625 1.285 1.111 1.203M189.174 41c1.484-.328 2.674.04 3.484.493.401.225.71.47.921.661a4 4 0 0 1 .336.343l.007.01.005.004v.001l-.532.425.532-.424a.78.78 0 0 1-.119 1.1.794.794 0 0 1-1.11-.117h.001l.001.001.001.002h.001l-.004-.004-.032-.035a3.445 3.445 0 0 0-.782-.601c-.546-.306-1.339-.557-2.367-.33a.783.783 0 1 1-.343-1.53M179.802 40.8a7.3 7.3 0 0 1 1.973.323h.002l-.203.602.203-.601c.413.137.636.58.498.99a.79.79 0 0 1-.996.496h-.003l-.018-.006q-.028-.01-.085-.025a5.741 5.741 0 0 0-1.404-.212c-.851-.018-1.556.194-1.914.802a.79.79 0 0 1-1.079.28.78.78 0 0 1-.282-1.072c.801-1.358 2.273-1.598 3.308-1.577"/><path fill="#000d59" d="M193.282 34.559s-4.327 23.842 11.442 24.686c0 0 9.204.69 10.948-2.69 0 0-6.902-2.804-6.45-6.603 0 0 8.178 7.292 14.01.897 0 0-10.881-.708-10.895-10.37-.01-6.926-17.231-11.72-19.055-5.92"/><path fill="#000091" d="M189.783 59.205a.79.79 0 0 1 .719.666l-.78.115.78-.114.001.003v.004l.002.015.007.051.022.184c.017.157.038.378.053.645.031.532.041 1.259-.043 2.02-.084.753-.266 1.59-.655 2.312-.398.737-1.032 1.383-1.997 1.638a.783.783 0 1 1-.406-1.514c.442-.117.765-.407 1.012-.864.255-.474.405-1.09.478-1.744q.017-.168.029-.333c-.958.814-2.441 1.489-4.643 1.364a.786.786 0 0 1-.743-.827.787.787 0 0 1 .833-.737c1.942.11 3.057-.531 3.688-1.134.325-.31.538-.626.668-.86a2.6 2.6 0 0 0 .162-.348.79.79 0 0 1 .813-.542"/><path fill="#000d59" d="M193.319 35.008s-.237 4.697 8.75 4.462l5.913-1.879 4.218 1.893s5.818-17.647-15.569-20.681c-24.832-3.522-23.41 21.926-23.41 21.926l3.885-.373s1.078-7.227 7.699-9.105"/><path fill="#000d59" d="M197.987 29.807s-11.764 15.535-22.169 15.77c0 0-5.439-11.273 3.546-15.97 8.988-4.697 18.623.202 18.623.202z"/><path fill="#fff" d="M205.905 152.129c1.888-.599 9.892-1.134 9.892-1.134s-5.429-1.916-5.471-5.44 1.472-3.15 2.905-.975c1.434 2.175 8.705 2.916 8.705 2.916l2.319-.741s1.576.108 3.154.994c4.184-2.518 12.171-12.826 13.411-16.521 2.062-6.14-2.623-14.328-2.623-14.328l12.929-7.07s7.307 8.372 5.621 20.096c-1.687 11.722-21.717 25.59-26.88 27.665-1.171 2.818-3.631 3.934-3.631 3.934-1.134.567-5.358 3.187-15.169 1.59 0 0-4.4-1.231-.397-1.986a19 19 0 0 1 3.037-.316l-5.158-6.092c-4.481.042-4.153-2.114-2.642-2.592z"/><path fill="#000091" d="M250.746 109.144a.79.79 0 0 1 .977.173l-.596.513.596-.513.003.003.005.007.087.102q.087.105.242.303c.206.264.496.651.836 1.15.679.998 1.563 2.45 2.392 4.277 1.658 3.652 3.11 8.829 2.24 14.878-.448 3.11-2.098 6.297-4.33 9.327-2.239 3.04-5.104 5.978-8.063 8.597-5.686 5.034-11.82 8.981-14.671 10.228a8.7 8.7 0 0 1-2.346 3.027 9 9 0 0 1-1.073.762q-.211.124-.337.188l-.099.05-.025.011c-.556.279-1.982 1.12-4.51 1.669-2.531.55-6.141.805-11.134-.008l-.087-.019h-.002l-.004-.002-.012-.003-.041-.012-.145-.044c-.122-.038-.29-.093-.479-.162-.36-.131-.861-.335-1.245-.592-.182-.123-.422-.311-.575-.578a1.1 1.1 0 0 1-.151-.553 1.1 1.1 0 0 1 .19-.603c.209-.308.546-.492.852-.615q.494-.199 1.281-.346l.407-.072q.592-.097 1.171-.155l-3.921-4.63c-.997-.018-1.794-.145-2.41-.363-.685-.243-1.23-.628-1.498-1.178-.282-.578-.181-1.18.116-1.642.288-.445.754-.77 1.278-.937l.222-.064c.557-.147 1.373-.278 2.256-.395a92 92 0 0 1 3.342-.366c.496-.046.981-.088 1.434-.126a11 11 0 0 1-.286-.187c-1.401-.946-3.07-2.507-3.096-4.68-.01-.92.077-1.668.284-2.225s.609-1.092 1.298-1.185c.613-.083 1.159.235 1.555.565.423.353.835.852 1.217 1.432.224.34.761.719 1.616 1.082.822.35 1.815.634 2.791.858a35 35 0 0 0 3.559.607l2.156-.689a.8.8 0 0 1 .296-.035l-.054.781.054-.781h.011l.02.002.066.006q.083.008.229.028a9.34 9.34 0 0 1 2.731.834c.898-.608 1.987-1.569 3.165-2.766 1.334-1.355 2.745-2.974 4.069-4.634s2.554-3.353 3.526-4.854c.983-1.517 1.668-2.785 1.945-3.61.949-2.827.359-6.209-.54-8.979a29 29 0 0 0-1.836-4.375q-.09-.17-.138-.257l-.044-.079-.002-.003a.78.78 0 0 1 .306-1.073zm-11.491 8.072q.156.306.356.727c.418.886.952 2.132 1.422 3.578.898 2.769 1.602 6.406.634 9.643l-.099.312c-.343 1.022-1.121 2.428-2.115 3.962a64 64 0 0 1-3.616 4.978c-1.35 1.694-2.798 3.355-4.178 4.757-1.37 1.391-2.709 2.565-3.842 3.246a.8.8 0 0 1-.797.012 7.6 7.6 0 0 0-2.604-.87l-.079-.01-2.159.691a.8.8 0 0 1-.322.033l.081-.779-.082.779h-.006l-.018-.002-.065-.007-.241-.029a35.277 35.277 0 0 1-3.581-.62c-1.02-.234-2.114-.543-3.058-.944-.912-.387-1.822-.916-2.315-1.664-.334-.507-.649-.871-.912-1.09a1.2 1.2 0 0 0-.289-.191q-.028.045-.069.153c-.109.295-.196.822-.186 1.664.016 1.351 1.082 2.51 2.406 3.404a12.6 12.6 0 0 0 2.493 1.291l.038.014.008.003h.001a.783.783 0 0 1-.211 1.52h-.006l-.016.001-.067.005-.256.017c-.221.016-.54.039-.928.069-.777.059-1.832.145-2.945.248s-2.28.226-3.281.358c-1.022.136-1.808.275-2.205.4-.231.073-.371.198-.43.289-.048.075-.032.099-.025.114.021.044.141.22.607.385.459.163 1.179.285 2.243.275.236-.002.46.1.612.279l5.158 6.092c.195.23.24.55.116.824a.79.79 0 0 1-.697.463c-.933.026-1.925.115-2.912.302h-.001a9 9 0 0 0-.515.113c.133.058.273.114.411.164a10 10 0 0 0 .526.174c4.794.775 8.188.519 10.498.017 2.311-.501 3.562-1.25 4.144-1.541l.025-.013v.001l.012-.005.061-.031q.087-.044.253-.142c.22-.131.53-.336.875-.622a7.1 7.1 0 0 0 2.031-2.721l.034-.071a.78.78 0 0 1 .4-.356c2.461-.99 8.681-4.91 14.513-10.074 2.906-2.572 5.687-5.429 7.84-8.351 2.159-2.932 3.645-5.875 4.041-8.625.816-5.675-.543-10.547-2.116-14.012a27.4 27.4 0 0 0-2.262-4.043c-.261-.384-.49-.694-.667-.925z"/><path fill="#fff" d="M215.496 154.794c-1.585.053-7.828-.63-9.791.333s-.705 2.607 4.921 2.501"/><path fill="#000091" d="M210.759 153.836c1.015.022 2.017.073 2.853.114.857.043 1.503.073 1.858.061.435-.014.8.324.815.756a.786.786 0 0 1-.762.809c-.438.015-1.168-.02-1.989-.061-.841-.041-1.82-.091-2.809-.112-.991-.022-1.974-.015-2.821.054-.872.071-1.502.202-1.85.373-.204.1-.316.185-.374.24q.03.024.081.059c.255.171.754.371 1.584.517.815.143 1.896.224 3.266.198a.787.787 0 0 1 .804.769.786.786 0 0 1-.774.798c-1.443.027-2.63-.057-3.571-.223-.927-.162-1.675-.413-2.192-.76-.516-.346-.972-.928-.79-1.674.155-.635.717-1.059 1.267-1.329.634-.311 1.521-.456 2.42-.53.926-.075 1.971-.081 2.984-.059"/><path fill="#fff" d="M216.552 158.018c-.227.126-10.391-1.159-10.344.379.038 1.259 1.199 2.126 6.997 2.418h4.757"/><path fill="#000091" d="M207.692 156.927c1.011-.104 2.332-.088 3.621-.031 1.297.057 2.6.158 3.584.237.496.04.904.073 1.197.093q.221.015.324.017l.023.001a.781.781 0 0 1 .495 1.459c-.133.074-.259.091-.28.094-.046.007-.087.01-.113.012a2 2 0 0 1-.164 0 9 9 0 0 1-.391-.02c-.306-.02-.729-.055-1.217-.094a98 98 0 0 0-3.529-.234c-1.275-.057-2.5-.067-3.388.025-.367.037-.635.09-.813.145a.6.6 0 0 0 .085.154c.091.118.286.284.717.458.885.356 2.501.642 5.38.788h4.74c.435 0 .788.351.789.784a.787.787 0 0 1-.789.783h-4.798c-2.905-.147-4.762-.44-5.915-.904-.588-.237-1.054-.542-1.372-.95a2.2 2.2 0 0 1-.458-1.324h.001c-.022-.721.579-1.065.908-1.2.381-.156.867-.241 1.363-.293m8.582.36-.02.006z"/></g></g><defs><clipPath id="a"><path fill="#fff" d="M0 0h284v158.625H0z"/></clipPath><clipPath id="b"><path fill="#fff" d="M26.507 6.967h230.987v159.8H26.507z"/></clipPath></defs></svg>