<svg width="284" height="159" viewBox="0 0 284 159" fill="none" xmlns="http://www.w3.org/2000/svg">
<g clip-path="url(#clip0_460_4061)">
<rect x="1" width="282" height="158.625" fill="#E8EDFF"/>
<g clip-path="url(#clip1_460_4061)">
<path d="M209.802 137.854C213.53 140.17 221.292 141.034 220.295 143.323C220.108 143.753 219.255 144.8 216.941 144.006L217.152 144.198C217.216 144.268 217.269 144.339 217.309 144.414C218.173 146.018 216.298 146.882 213.195 145.675L212.391 145.152C214.51 145.944 213.211 148.238 211.078 147.477C209.635 146.962 206.666 145.922 206.162 145.796C202.068 144.96 197.831 143.01 197.678 140.309C197.252 132.839 210.119 135.126 210.119 135.126C211.717 136.229 214.341 137.141 217.679 138.157C219.782 138.797 219.392 140.752 217.939 140.877L217.211 140.735C219.291 141.482 220.767 142.245 220.297 143.323C220.109 143.753 219.257 144.8 216.943 144.006" fill="white"/>
<path d="M209.802 137.854C213.53 140.17 221.292 141.034 220.295 143.323C220.108 143.753 219.255 144.8 216.941 144.006L217.152 144.198C217.216 144.268 217.269 144.339 217.309 144.414C218.173 146.018 216.298 146.882 213.195 145.675L212.391 145.152C214.51 145.944 213.211 148.238 211.078 147.477C209.635 146.962 206.666 145.922 206.162 145.796C202.068 144.96 197.831 143.01 197.678 140.309C197.252 132.839 210.119 135.126 210.119 135.126C211.717 136.229 214.341 137.141 217.679 138.157C219.782 138.797 219.392 140.752 217.939 140.877L217.211 140.735C219.291 141.482 220.767 142.245 220.297 143.323C220.109 143.753 219.257 144.8 216.943 144.006" stroke="#2E186A" stroke-width="5" stroke-linecap="round" stroke-linejoin="round"/>
<path d="M207.285 143.315C208.951 143.972 209.996 144.259 212.214 145.087" stroke="#2E186A" stroke-width="5" stroke-linecap="round" stroke-linejoin="round"/>
<path d="M209.044 140.867C212.808 142.686 216.666 143.221 217.309 144.413" stroke="#2E186A" stroke-width="5" stroke-linecap="round" stroke-linejoin="round"/>
<path d="M198.432 142.18L186.578 144.366C186.578 144.366 180.512 138.412 185.913 133.296L197.406 132.895C198.64 132.302 201.271 132.143 202.935 131.629C204.88 131.029 210.605 131.552 212.057 130.986C214.335 130.1 215.689 133.943 210.352 134.882L210.062 134.941C210.062 134.941 206.954 134.82 205.325 137.06C203.696 139.3 202.155 138.933 202.155 138.933" fill="white"/>
<path d="M198.432 142.18L186.578 144.366C186.578 144.366 180.512 138.412 185.913 133.296L197.406 132.895C198.64 132.302 201.271 132.143 202.935 131.629C204.88 131.029 210.605 131.552 212.057 130.986C214.335 130.1 215.689 133.943 210.352 134.882L210.062 134.941C210.062 134.941 206.954 134.82 205.325 137.06C203.696 139.3 202.155 138.933 202.155 138.933" stroke="#2E186A" stroke-width="5" stroke-linecap="round" stroke-linejoin="round"/>
<path d="M149.74 114.316C149.74 114.316 150.782 128.061 155.7 136.843C162.988 149.86 193.416 144.798 193.416 144.798L192.505 129.793C192.505 129.793 169.642 135.612 167.002 121.162C165.322 111.971 165.135 111.678 163.648 103.968C159.823 84.1318 148.002 79.6483 148.002 79.6483L134.442 77.4066L136.095 80.5052L118.448 77.0613L110.8 77.9236C109.663 78.2057 104.951 79.5037 100.962 80.3245C96.123 81.3224 92.488 85.2075 91.7646 89.9639L102.281 109.313L106.434 158.095H150.434L149.738 131.908C149.738 131.908 149.002 126.083 153.563 109.14C154.452 105.837 149.103 104.206 149.042 100.688M107.19 118.483L107.221 118.235V118.488L107.19 118.483Z" fill="#2E186A"/>
<path d="M109.608 60.9706C109.746 60.6529 110.117 60.5066 110.437 60.6438C110.757 60.7811 110.904 61.1499 110.766 61.4675C110.221 62.7199 110.044 64.4647 110.426 66.3334C110.778 68.0557 111.526 69.501 112.421 70.4563C113.324 71.4197 114.304 71.8187 115.162 71.6729C115.505 71.6145 115.832 71.8435 115.89 72.1845C115.949 72.5256 115.719 72.8494 115.375 72.9079C113.946 73.1508 112.567 72.4515 111.497 71.3106C110.42 70.1616 109.58 68.4962 109.189 66.5831C108.766 64.5107 108.943 62.4987 109.608 60.9706Z" fill="#E0840B"/>
<path d="M141.356 58.3835C141.494 58.0658 141.865 57.9194 142.185 58.0567C142.505 58.194 142.652 58.5628 142.514 58.8804C141.969 60.1327 141.792 61.8776 142.174 63.7462C142.526 65.4686 143.274 66.9138 144.169 67.8691C145.072 68.8326 146.052 69.2316 146.91 69.0858C147.253 69.0274 147.58 69.2563 147.638 69.5974C147.697 69.9384 147.467 70.2622 147.123 70.3207C145.694 70.5636 144.315 69.8644 143.245 68.7235C142.168 67.5745 141.328 65.9091 140.937 63.9959C140.514 61.9236 140.691 59.9116 141.356 58.3835Z" fill="#E0840B"/>
<path d="M110.93 34.6942C115.659 30.8796 118.016 11.9297 104.142 -0.0618348C90.0954 -12.2016 79.5166 1.36095 77.1899 4.91338C74.8631 8.46581 73.4365 17.9986 85.4838 26.3871C97.5312 34.7755 105.53 39.0529 110.93 34.696V34.6942Z" fill="#2E186A"/>
<path d="M118.431 42.6885L118.136 42.8982C116.374 44.1474 113.84 43.766 112.475 42.0485L108.663 37.2487C107.299 35.5294 107.621 33.1231 109.383 31.8739L109.678 31.6642C111.44 30.415 113.975 30.7964 115.339 32.5139L119.151 37.3137C120.516 39.033 120.193 41.4393 118.431 42.6885Z" fill="#5D21CF"/>
<path d="M125.769 48.8242C130.662 54.6094 137.604 57.0283 141.271 54.2261C144.941 51.4239 143.948 44.4619 139.056 38.6749C134.164 32.8898 127.222 30.4709 123.554 33.2731C119.884 36.0753 120.877 43.0373 125.769 48.8242Z" fill="#2E186A"/>
<path d="M128.752 49.2926C123.886 54.9964 117.773 57.4099 112.822 56.8838C107.564 56.327 104.656 44.6952 109.523 38.9915C114.389 33.2877 126.633 30.283 130.523 33.3727C134.412 36.4605 133.619 43.5888 128.752 49.2926Z" fill="#2E186A"/>
<path d="M116.754 58.5239C117.677 56.3463 116.555 53.8003 114.247 52.8372C111.939 51.8742 109.32 52.8588 108.397 55.0364C107.474 57.214 108.596 59.7599 110.904 60.723C113.212 61.686 115.831 60.7015 116.754 58.5239Z" fill="white"/>
<path d="M114.002 53.4151C111.987 52.5744 109.754 53.4479 108.978 55.2792C108.202 57.1105 109.134 59.3047 111.149 60.1454C113.164 60.9859 115.396 60.1122 116.172 58.2811C116.948 56.4499 116.016 54.2559 114.002 53.4151ZM114.491 52.2599C117.092 53.3454 118.405 56.2429 117.336 58.7667C116.266 61.2904 113.26 62.3858 110.659 61.3006C108.058 60.2153 106.745 57.3175 107.814 54.7936C108.884 52.2697 111.89 51.1746 114.491 52.2599Z" fill="#2E186A"/>
<path d="M147.767 55.6369C148.69 53.4593 147.567 50.9133 145.26 49.9503C142.952 48.9872 140.333 49.9718 139.41 52.1494C138.487 54.327 139.609 56.873 141.917 57.836C144.225 58.7991 146.844 57.8145 147.767 55.6369Z" fill="white"/>
<path d="M145.015 50.5281C143.001 49.6874 140.768 50.5609 139.992 52.3922C139.216 54.2235 140.148 56.4178 142.163 57.2585C144.177 58.099 146.409 57.2253 147.186 55.3941C147.962 53.5629 147.03 51.369 145.015 50.5281ZM145.505 49.373C148.106 50.4584 149.419 53.3559 148.349 55.8797C147.279 58.4034 144.274 59.4988 141.673 58.4137C139.072 57.3283 137.758 54.4305 138.828 51.9067C139.898 49.3828 142.904 48.2876 145.505 49.373Z" fill="#2E186A"/>
<path d="M132.801 68.4774L134.397 77.4859L139.903 78.2434C140.375 79.0353 143.649 90.2711 129.676 91.166C120.508 91.7535 114.721 84.6685 110.853 77.9036L118.527 76.9092L114.969 59.2881L132.801 68.4774Z" fill="white"/>
<path d="M114.589 58.7876C114.783 58.6427 115.044 58.6209 115.259 58.732L133.092 67.9214L133.155 67.9588C133.295 68.0533 133.392 68.2008 133.422 68.3688L134.938 76.9279L139.99 77.6232L140.06 77.6366C140.221 77.6776 140.361 77.7805 140.446 77.9243C140.551 78.1007 140.672 78.4337 140.78 78.822C140.895 79.234 141.014 79.7704 141.095 80.3899C141.258 81.6248 141.279 83.2225 140.814 84.8384C140.346 86.4646 139.386 88.1035 137.606 89.3879C135.834 90.6673 133.294 91.5626 129.717 91.7917C120.142 92.4053 114.179 84.9899 110.304 78.2131C110.2 78.0317 110.194 77.8111 110.288 77.6244C110.382 77.4377 110.563 77.3093 110.771 77.2823L117.775 76.3741L114.349 59.4113C114.302 59.1749 114.395 58.9325 114.589 58.7876ZM119.146 76.786C119.18 76.9561 119.142 77.1332 119.04 77.2743C118.939 77.4154 118.782 77.5082 118.609 77.5307L111.874 78.4028C115.717 84.875 121.223 91.0799 129.635 90.5408C133.045 90.3225 135.335 89.4774 136.864 88.3738C138.386 87.2751 139.198 85.8874 139.599 84.4939C140.003 83.0901 139.991 81.6746 139.844 80.5521C139.77 79.9929 139.664 79.5143 139.564 79.1568C139.527 79.0233 139.489 78.9091 139.457 78.8147L134.31 78.1066C134.039 78.0692 133.823 77.8623 133.775 77.5944L132.233 68.8908L115.845 60.4461L119.146 76.786Z" fill="#2E186A"/>
<path d="M142.477 52.7618C144.097 62.6996 139.028 71.4966 131.155 72.4077C123.282 73.3189 115.587 66.0007 113.969 56.0629C112.35 46.1251 117.419 37.3281 125.292 36.417C133.165 35.5058 140.859 42.824 142.477 52.7618Z" fill="white"/>
<path d="M125.219 35.7945C133.553 34.8299 141.452 42.534 143.1 52.6619C144.751 62.7911 139.603 72.0612 131.228 73.0304C123.024 73.9799 115.242 66.5296 113.428 56.6361L113.346 56.163C111.695 46.0338 116.844 36.7638 125.219 35.7945ZM141.854 52.862C140.267 43.1143 132.776 36.1816 125.365 37.0393C117.993 37.8925 113.004 46.2168 114.593 55.9629L114.672 56.4176C116.414 65.9253 123.787 72.63 131.082 71.7856C138.454 70.9324 143.443 62.6081 141.854 52.862Z" fill="#2E186A"/>
<path d="M130.324 50.0235C130.656 49.9195 131.011 50.1029 131.116 50.4329L133.425 57.7069L133.457 57.8293C133.577 58.4408 133.133 59.0361 132.491 59.0863L129.772 59.3036C129.424 59.3313 129.12 59.0739 129.092 58.7289C129.064 58.3841 129.323 58.0823 129.671 58.0545L132.149 57.8563L129.912 50.8099C129.807 50.4798 129.991 50.1276 130.324 50.0235Z" fill="#2E186A"/>
<path d="M121.359 49.5395L121.332 49.5903C121.162 49.8592 120.811 49.962 120.518 49.8186C120.205 49.6653 120.077 49.2893 120.231 48.9789L120.721 49.2195C120.231 48.979 120.232 48.9783 120.232 48.9777L120.234 48.9741C120.235 48.9723 120.236 48.9705 120.237 48.9685C120.239 48.9648 120.241 48.9606 120.243 48.9563C120.248 48.9475 120.254 48.9374 120.26 48.9263C120.273 48.9042 120.29 48.8775 120.311 48.8474C120.353 48.787 120.411 48.7123 120.49 48.6283C120.649 48.4595 120.888 48.2565 121.242 48.0555C121.949 47.6539 123.096 47.2668 124.947 47.154C125.295 47.1329 125.595 47.3956 125.616 47.7409C125.637 48.0864 125.372 48.3837 125.024 48.4049C123.314 48.5091 122.367 48.8603 121.87 49.143C121.621 49.284 121.481 49.4102 121.412 49.4844C121.377 49.5217 121.358 49.5473 121.351 49.5567C121.348 49.5611 121.348 49.5619 121.35 49.5585C121.351 49.5567 121.353 49.5539 121.355 49.5499C121.356 49.5479 121.357 49.5452 121.359 49.5426C121.359 49.5417 121.359 49.5404 121.359 49.5395Z" fill="#2E186A"/>
<path d="M134.938 46.5689C135.876 46.601 137.112 46.8845 138.32 47.8638C138.589 48.0828 138.629 48.4771 138.409 48.7451C138.188 49.0132 137.791 49.0534 137.521 48.8344C136.564 48.0585 135.608 47.846 134.895 47.8216C134.535 47.8093 134.236 47.8453 134.031 47.8828C133.929 47.9015 133.851 47.9202 133.801 47.9336C133.777 47.9403 133.759 47.9459 133.749 47.9489C133.746 47.9498 133.744 47.9496 133.742 47.9501C133.413 48.063 133.055 47.8905 132.94 47.564C132.826 47.237 133 46.8794 133.329 46.766L133.522 47.3173C133.334 46.7778 133.33 46.7663 133.33 46.766H133.33L133.345 46.7611C133.353 46.7586 133.363 46.7555 133.375 46.7519C133.399 46.7446 133.431 46.7351 133.471 46.7243C133.551 46.7028 133.663 46.6752 133.803 46.6497C134.081 46.5987 134.473 46.553 134.938 46.5689Z" fill="#2E186A"/>
<path d="M125.289 54.9321C125.891 54.9237 126.37 54.1933 126.357 53.3008C126.344 52.4082 125.845 51.6916 125.243 51.7C124.64 51.7085 124.162 52.4389 124.174 53.3314C124.187 54.2239 124.686 54.9406 125.289 54.9321Z" fill="#2E186A"/>
<path d="M135.645 54.8326C136.242 54.7618 136.638 53.9827 136.531 53.0924C136.424 52.2022 135.853 51.5379 135.257 51.6086C134.66 51.6794 134.264 52.4585 134.371 53.3488C134.478 54.239 135.049 54.9034 135.645 54.8326Z" fill="#2E186A"/>
<path d="M118.474 37.4095C118.474 37.4095 123.973 40.208 123.333 43.7623L147.717 44.1564C147.717 44.1564 151.746 26.0959 122.014 32.4813L118.474 37.4095Z" fill="#2E186A"/>
<path d="M120.096 38.3606C120.096 38.3606 121.03 50.4859 112.97 53.1253L113.708 42.5169L120.098 38.3606H120.096Z" fill="#2E186A"/>
<path d="M144.252 55.7598C145.698 55.469 147.102 56.1563 148.191 57.2989C149.218 58.3775 150.034 59.9231 150.458 61.7058L150.537 62.065V62.0656C150.932 64.0004 150.805 65.8796 150.247 67.3623C149.693 68.8352 148.668 70.0102 147.223 70.301L147.221 70.3016C147.205 70.3048 147.154 70.3155 147.101 70.3224C146.756 70.3681 146.438 70.1274 146.392 69.7845C146.346 69.4415 146.589 69.126 146.934 69.0801C146.935 69.08 146.937 69.0801 146.94 69.0795C146.944 69.0789 146.948 69.0776 146.954 69.0764L146.972 69.0728C147.836 68.899 148.597 68.1642 149.064 66.9241C149.527 65.6939 149.656 64.0568 149.3 62.3147L149.229 61.9916C148.849 60.393 148.126 59.0551 147.274 58.16C146.357 57.1974 145.366 56.8143 144.503 56.988C144.161 57.0566 143.828 56.8376 143.759 56.4984C143.69 56.1593 143.911 55.8285 144.252 55.7598Z" fill="#E0840B"/>
<path d="M112.503 58.3467C113.949 58.0559 115.353 58.7432 116.442 59.8858C117.538 61.0362 118.393 62.7179 118.788 64.6519C119.183 66.586 119.056 68.4656 118.498 69.9486C117.944 71.4216 116.919 72.5971 115.474 72.8879L115.472 72.8885C115.456 72.8918 115.405 72.9024 115.352 72.9094C115.007 72.955 114.689 72.7143 114.643 72.3714C114.597 72.0284 114.84 71.7129 115.185 71.667C115.186 71.6669 115.188 71.6671 115.191 71.6664C115.195 71.6658 115.199 71.6645 115.205 71.6634L115.223 71.6597C116.087 71.4859 116.848 70.7504 117.315 69.5098C117.778 68.2793 117.907 66.6426 117.551 64.9016C117.195 63.1604 116.434 61.7017 115.525 60.7469C114.608 59.7843 113.617 59.4012 112.754 59.5749C112.412 59.6435 112.079 59.4245 112.01 59.0853C111.941 58.7462 112.162 58.4154 112.503 58.3467Z" fill="#E0840B"/>
<path d="M124.508 62.7228C124.673 62.4181 125.056 62.3038 125.363 62.4676C126.861 63.2682 128.123 63.4883 128.994 63.5153C129.431 63.5289 129.772 63.4939 129.997 63.4578C130.11 63.4397 130.194 63.421 130.246 63.4082C130.272 63.4018 130.291 63.397 130.301 63.3941C130.303 63.3936 130.304 63.3927 130.306 63.3923C130.637 63.2854 130.993 63.4655 131.101 63.7944C131.209 64.1234 131.028 64.4772 130.696 64.5844L130.501 63.9884C130.683 64.5438 130.695 64.5818 130.696 64.5844L130.695 64.5851L130.69 64.5869C130.687 64.5878 130.683 64.5887 130.679 64.59C130.671 64.5923 130.661 64.595 130.649 64.5985C130.624 64.6055 130.591 64.6146 130.549 64.6248C130.465 64.6454 130.348 64.6708 130.199 64.6946C129.902 64.7423 129.48 64.7843 128.955 64.768C127.902 64.7354 126.446 64.4701 124.765 63.5716C124.458 63.4076 124.343 63.0275 124.508 62.7228Z" fill="#2E186A"/>
<path d="M91.7665 89.964L85.1616 135.272C83.9445 155.453 86.5518 158.095 86.5518 158.095H100.111C100.111 158.095 95.7659 135.099 104.457 111.297L91.7665 89.9622V89.964Z" fill="#5D21CF"/>
<path d="M39.5922 149.532C38.3586 153.085 37.3547 156.502 36.8463 158.094H114.403C112.179 154.439 103.008 137.631 103.396 114.825C103.604 102.624 96.2759 83.7736 90.4654 80.241C82.2207 79.1256 51.88 82.3526 51.88 82.3526C51.88 82.3526 45.0619 84.4678 39.6559 86.2485C39.6559 86.2485 34.1224 97.8423 31.8102 105.343C28.5305 115.975 25.6262 119.475 27.6869 129.887C28.7893 135.457 34.5087 143.373 39.5903 149.532H39.5922Z" fill="#4D4190"/>
<path d="M92.1143 107.023C92.4628 107.023 92.7454 107.304 92.7454 107.65C92.7454 107.996 92.4628 108.277 92.1143 108.277H87.9036C87.555 108.277 87.2725 107.996 87.2725 107.65C87.2725 107.304 87.555 107.023 87.9036 107.023H92.1143Z" fill="white"/>
<path d="M92.5322 110.113C92.8808 110.113 93.1633 110.393 93.1633 110.739C93.1633 111.086 92.8808 111.366 92.5322 111.366H88.3215C87.973 111.366 87.6904 111.086 87.6904 110.739C87.6904 110.393 87.973 110.113 88.3215 110.113H92.5322Z" fill="white"/>
<path d="M95.7824 91.1175C96.117 91.0206 96.4675 91.2113 96.5652 91.5435C97.8375 95.874 98.03 100.499 98.5676 104.767C98.5729 104.809 98.5742 104.852 98.5707 104.895C98.21 109.279 98.069 113.997 97.3349 118.503C96.6024 123 95.2691 127.374 92.4913 131.173C91.4278 133.968 92.2231 136.947 93.3739 139.981L93.6105 140.593L93.6185 140.616C95.4541 145.898 97.7957 153.111 100.784 157.757C100.971 158.049 100.885 158.436 100.592 158.623C100.298 158.809 99.9077 158.723 99.7201 158.432C96.63 153.627 94.2339 146.229 92.4253 141.025H92.4247C91.1587 137.792 89.9697 134.148 91.3406 130.65L91.3757 130.576C91.3889 130.552 91.4033 130.529 91.4195 130.507C94.071 126.911 95.3683 122.726 96.0887 118.303C96.8088 113.882 96.9432 109.313 97.3072 104.859C96.7578 100.469 96.5823 96.0772 95.3535 91.8947C95.2559 91.5625 95.4479 91.2145 95.7824 91.1175Z" fill="white"/>
<path d="M81.9218 97.8363C82.2518 97.7252 82.6098 97.9009 82.7218 98.2286C86.3342 108.809 88.4615 121.964 80.018 131.285C80.0147 131.297 80.0091 131.318 80.0045 131.35C79.991 131.443 79.9888 131.558 79.9884 131.717C80.8969 135.875 81.6693 140.453 82.4081 144.971C83.152 149.521 83.8613 154.007 84.6441 157.974C84.7109 158.314 84.4881 158.643 84.1461 158.709C83.8041 158.776 83.4723 158.554 83.4053 158.215C82.6175 154.222 81.9038 149.709 81.1619 145.172C80.4189 140.627 79.6468 136.054 78.7398 131.914C78.7302 131.871 78.7256 131.826 78.7256 131.781C78.7256 131.612 78.7242 131.383 78.7546 131.173C78.7828 130.976 78.8526 130.69 79.0714 130.458L79.0701 130.458C87.0129 121.701 85.1318 109.191 81.5268 98.6312C81.4149 98.3035 81.5917 97.9474 81.9218 97.8363Z" fill="white"/>
<path d="M58.521 61.7468L59.6744 81.3385L49.2979 83.5116C49.2979 83.5116 62.3747 97.7303 71.6142 96.1665C84.6127 93.9646 81.7539 79.2215 81.7539 79.2215L76.4171 79.7314L75.4241 68.3871L58.5229 61.7486L58.521 61.7468Z" fill="white"/>
<path d="M58.2625 61.1752C58.4219 61.1042 58.5993 61.1049 58.755 61.1667L58.7556 61.1661L75.6563 67.8042C75.8787 67.8915 76.0325 68.0964 76.0532 68.333L76.9906 79.0469L81.6938 78.5977C82.0178 78.5667 82.3126 78.7858 82.3742 79.1032L81.7542 79.2213C82.3739 79.1028 82.3741 79.1034 82.3742 79.1038V79.105C82.3743 79.1058 82.3746 79.1069 82.3748 79.1081C82.3753 79.1105 82.3759 79.1138 82.3767 79.1179C82.3782 79.1264 82.3807 79.1385 82.3834 79.154C82.389 79.1849 82.3968 79.2299 82.4062 79.2874C82.425 79.4023 82.4504 79.5686 82.4777 79.7794C82.5324 80.2013 82.5948 80.8031 82.6281 81.5309C82.6947 82.9834 82.6454 84.9551 82.1739 87.0075C81.7022 89.0602 80.8023 91.2189 79.1484 93.0129C77.4869 94.8148 75.0979 96.2124 71.7205 96.7845C69.2365 97.2049 66.5523 96.5584 63.9734 95.4216C61.3863 94.2812 58.8418 92.6194 56.6083 90.9236C54.372 89.2256 52.4303 87.48 51.0485 86.1605C50.3573 85.5004 49.8047 84.9458 49.4245 84.5553C49.2344 84.36 49.087 84.2053 48.9869 84.0994C48.9371 84.0467 48.8989 84.0061 48.8729 83.9782C48.86 83.9643 48.8501 83.9531 48.8433 83.9458C48.8399 83.9421 48.8371 83.9392 48.8353 83.9372C48.8345 83.9363 48.8333 83.9359 48.8329 83.9354L48.8322 83.9348C48.8321 83.9346 48.8323 83.9343 49.2982 83.5119L48.8322 83.9342C48.6796 83.7682 48.628 83.5337 48.6973 83.3197C48.7666 83.1057 48.9466 82.9451 49.1681 82.8987L59.0126 80.8363L57.8915 61.7835C57.8762 61.524 58.0237 61.2818 58.2625 61.1752ZM60.305 81.302C60.3232 81.6115 60.1106 81.8879 59.8052 81.952L50.5376 83.8919C50.8927 84.2526 51.36 84.7196 51.9231 85.2573C53.282 86.5549 55.1873 88.2667 57.375 89.9279C59.5655 91.5911 62.0224 93.1903 64.4855 94.276C66.957 95.3654 69.3728 95.9104 71.5085 95.5489L71.7981 95.4969C74.7625 94.94 76.8044 93.6987 78.2171 92.1665C79.6827 90.5769 80.5053 88.6372 80.9437 86.7291C81.3822 84.8205 81.4304 82.9685 81.3671 81.5878C81.3356 80.8993 81.2769 80.3321 81.226 79.9391C81.2243 79.9265 81.2221 79.9141 81.2204 79.9018L76.4779 80.3553C76.3103 80.3713 76.1432 80.3202 76.0138 80.2133C75.8843 80.1064 75.8034 79.9521 75.7888 79.7855L74.8292 68.8274L59.2086 62.6917L60.305 81.302Z" fill="#2E186A"/>
<path d="M81.4823 50.7262C81.4823 50.7262 87.5643 47.4196 88.2111 53.3006C88.7541 58.2215 84.9734 58.2812 81.3311 58.2902C77.6907 58.2993 81.4805 50.7262 81.4805 50.7262H81.4823Z" fill="white"/>
<path d="M84.5679 49.1823C85.4571 49.1315 86.452 49.2799 87.2773 49.9252C88.1107 50.5771 88.6646 51.6519 88.8384 53.2323L88.8618 53.4735C88.9642 54.6664 88.8232 55.6409 88.4471 56.4244C88.04 57.2722 87.3868 57.836 86.6123 58.2028C85.8514 58.5632 84.9715 58.7352 84.0804 58.8222C83.1876 58.9093 82.2386 58.9148 81.3323 58.917C80.7646 58.9184 80.2686 58.7699 79.8839 58.4458C79.5039 58.1256 79.3005 57.6909 79.2023 57.2463C79.012 56.3854 79.179 55.3179 79.4297 54.3547C79.6864 53.3684 80.0586 52.3917 80.3628 51.6681C80.5156 51.3047 80.6524 51.0011 80.7517 50.7881C80.8013 50.6816 80.8419 50.5977 80.87 50.5396C80.8841 50.5106 80.895 50.4878 80.9027 50.4723C80.9064 50.4647 80.9092 50.4588 80.9113 50.4546C80.9123 50.4526 80.9132 50.4509 80.9138 50.4497L80.915 50.4478C80.9169 50.4486 80.9473 50.4633 81.4629 50.7177L80.915 50.4472C80.9739 50.3296 81.0675 50.2365 81.1794 50.1761H81.18C81.1805 50.1759 81.1812 50.1753 81.1819 50.1749C81.1832 50.1742 81.1849 50.1735 81.1868 50.1724C81.1909 50.1703 81.1965 50.1669 81.2035 50.1633C81.2175 50.1559 81.2376 50.1454 81.2626 50.1327C81.3127 50.1072 81.3841 50.0716 81.474 50.0292C81.6541 49.9444 81.9103 49.8314 82.2192 49.7153C82.8304 49.4856 83.6782 49.2331 84.5679 49.1823ZM84.6401 50.4338C83.9285 50.4745 83.2153 50.6808 82.666 50.8872C82.3945 50.9893 82.1702 51.089 82.0152 51.162C81.9941 51.1719 81.9744 51.1813 81.956 51.1902C81.9386 51.2268 81.919 51.2687 81.8974 51.315C81.8037 51.5161 81.6732 51.8047 81.5276 52.151C81.2351 52.8469 80.8869 53.7624 80.6512 54.6681C80.4095 55.597 80.3119 56.4212 80.4349 56.9777C80.4933 57.2418 80.5911 57.3977 80.7005 57.4899C80.8053 57.5781 80.9871 57.6645 81.3292 57.6637C82.244 57.6614 83.1337 57.6553 83.9572 57.575C84.7824 57.4944 85.497 57.3427 86.0687 57.0719C86.6267 56.8076 87.0446 56.4329 87.3075 55.8853C87.5763 55.3255 87.7112 54.5257 87.5836 53.3688C87.434 52.009 86.9851 51.2914 86.4964 50.9093C85.9994 50.5207 85.3522 50.3931 84.6401 50.4338Z" fill="#2E186A"/>
<path d="M82.752 43.2037C80.7113 34.2928 75.2325 32.7995 67.937 33.8011C62.2868 34.5767 58.1909 44.1131 57.4566 52.5395C55.8058 52.6787 51.2252 52.9933 51.555 56.9633C51.8994 61.1033 54.7308 63.8784 58.7029 62.7864C61.4414 69.9148 67.8149 74.6622 74.1465 73.7944C81.442 72.7929 87.2197 62.7051 82.7538 43.2055L82.752 43.2037Z" fill="white"/>
<path d="M67.851 33.18C71.5412 32.6734 74.8998 32.7759 77.6153 34.2338C80.3583 35.7065 82.3154 38.4893 83.3625 43.0457C83.3644 43.0528 83.3677 43.0594 83.3693 43.0665C85.6181 52.8857 85.3069 60.4112 83.4562 65.6443C81.6607 70.7214 78.3894 73.6845 74.6015 74.3571L74.233 74.4152C67.6739 75.3141 61.2289 70.5437 58.3178 63.5201C56.3715 63.9033 54.6528 63.4282 53.3552 62.3102C52.042 61.1788 51.2164 59.4404 50.9682 57.4224L50.9262 57.0148C50.8332 55.8942 51.0863 54.983 51.5863 54.2615C52.0794 53.55 52.7787 53.0713 53.5018 52.7444C54.6658 52.2182 55.9922 52.0456 56.878 51.9623C57.3022 47.8331 58.5035 43.4849 60.2918 40.0158C62.1351 36.4403 64.7032 33.6121 67.851 33.18ZM77.015 35.3366C74.6572 34.0707 71.6287 33.9268 68.0236 34.4217C65.5212 34.7652 63.2162 37.0936 61.4154 40.5868C59.6355 44.0395 58.4465 48.4495 58.0854 52.5932C58.0589 52.897 57.8163 53.1377 57.5104 53.1636C56.6642 53.2349 55.2184 53.3454 54.0245 53.8851C53.4375 54.1505 52.9506 54.5036 52.6261 54.972C52.3084 55.4303 52.1124 56.0471 52.1842 56.9114L52.2211 57.2724C52.4402 59.0533 53.1566 60.4798 54.1823 61.3635C55.2577 62.2901 56.7364 62.6767 58.5347 62.1823L58.5939 62.1689C58.8888 62.1172 59.1841 62.28 59.2928 62.563C61.9648 69.5182 68.1141 73.9885 74.0604 73.1735C77.4122 72.7133 80.5227 70.1568 82.2655 65.2288C84.0101 60.2953 84.3547 53.0323 82.1416 43.3597C82.1401 43.354 82.138 43.3483 82.1367 43.3425C81.1421 38.9996 79.3417 36.5859 77.015 35.3366Z" fill="#2E186A"/>
<path d="M73.1366 48.7507C73.464 48.6322 73.8264 48.7996 73.9458 49.1247L77.8361 59.7168C77.9128 59.9259 77.8718 60.1598 77.7288 60.3312C77.5859 60.5026 77.362 60.5863 77.1408 60.5503L74.3588 60.0981C74.0149 60.0422 73.7817 59.7199 73.838 59.3784C73.8943 59.0369 74.2189 58.8054 74.5628 58.8613L76.2805 59.1403L72.76 49.5543C72.6406 49.2292 72.8092 48.8694 73.1366 48.7507Z" fill="#2E186A"/>
<path d="M65.1391 50.3424C66.0512 49.7113 67.4235 49.2044 68.9966 49.9513C69.3109 50.1007 69.4439 50.4745 69.2937 50.7867C69.1433 51.0989 68.7662 51.231 68.4518 51.0817C67.4323 50.5977 66.5524 50.8921 65.8608 51.3705C65.5125 51.6114 65.2292 51.8901 65.0318 52.1116C64.934 52.2213 64.8596 52.3148 64.8106 52.3791C64.7861 52.4111 64.768 52.4358 64.7569 52.4513C64.7515 52.4589 64.7473 52.4642 64.7452 52.4672L64.744 52.4678L64.7446 52.4684L64.744 52.469L64.7434 52.4703C64.5491 52.7565 64.1579 52.8332 63.8688 52.641C63.5792 52.4485 63.5018 52.059 63.6956 51.7714L63.6963 51.7708V51.7701L63.6975 51.7689C63.6981 51.7681 63.6986 51.767 63.6993 51.7659C63.7011 51.7634 63.7034 51.7599 63.7061 51.7561C63.7114 51.7484 63.7187 51.7381 63.7277 51.7255C63.7458 51.7001 63.7713 51.665 63.8041 51.622C63.8697 51.5361 63.9647 51.4178 64.0864 51.2812C64.3283 51.0097 64.6854 50.6563 65.1391 50.3424Z" fill="#2E186A"/>
<path d="M77.4656 47.112C78.444 46.8138 79.7784 46.7923 80.9534 47.9559C81.1999 48.2003 81.2007 48.5971 80.9546 48.8421C80.7085 49.087 80.309 49.0874 80.0622 48.8433C79.3112 48.0996 78.5107 48.1046 77.836 48.3103C77.4896 48.4159 77.1866 48.5742 76.9676 48.7093C76.8594 48.776 76.7746 48.8352 76.7186 48.8763C76.6907 48.8969 76.6701 48.913 76.6576 48.9228C76.6516 48.9276 76.6474 48.9309 76.6453 48.9326H76.6441L76.6447 48.9332L76.6441 48.9339H76.6434L76.5941 48.9718C76.33 49.151 75.9666 49.1054 75.7559 48.8574C75.5314 48.5928 75.5653 48.1973 75.8318 47.9743L76.0407 48.2203C75.8518 47.9978 75.8339 47.9764 75.8324 47.9743V47.9737L75.8336 47.9724C75.8345 47.9717 75.8355 47.9709 75.8367 47.97C75.8389 47.9681 75.8419 47.966 75.8453 47.9633C75.8522 47.9577 75.8617 47.9502 75.873 47.9412C75.8958 47.9233 75.9275 47.899 75.9673 47.8696C76.047 47.811 76.16 47.7317 76.3014 47.6444C76.582 47.4713 76.9855 47.2584 77.4656 47.112Z" fill="#2E186A"/>
<path d="M69.5153 56.913C70.1464 56.7627 70.4809 55.9082 70.2624 55.0043C70.0438 54.1004 69.355 53.4894 68.7238 53.6396C68.0927 53.7898 67.7582 54.6444 67.9768 55.5483C68.1953 56.4522 68.8841 57.0632 69.5153 56.913Z" fill="#2E186A"/>
<path d="M79.9274 54.383C80.5351 54.1626 80.7659 53.2731 80.4428 52.3963C80.1198 51.5195 79.3653 50.9874 78.7576 51.2078C78.1499 51.4282 77.9191 52.3177 78.2421 53.1945C78.5652 54.0713 79.3197 54.6034 79.9274 54.383Z" fill="#2E186A"/>
<path d="M70.1458 61.6807C70.2928 61.6807 70.4274 61.7316 70.5347 61.8153C70.5555 61.8229 70.5839 61.8338 70.6216 61.8459C70.7789 61.8964 71.0171 61.9611 71.3205 62.0356C71.9229 62.1835 72.7323 62.3592 73.5491 62.5289C74.3641 62.6982 75.18 62.8598 75.7925 62.9793C76.0984 63.039 76.3536 63.0883 76.5321 63.1225C76.6212 63.1396 76.6915 63.1532 76.7391 63.1623C76.7628 63.1668 76.7811 63.1703 76.7934 63.1727C76.7995 63.1738 76.8045 63.1745 76.8076 63.1751C76.8091 63.1754 76.8105 63.1756 76.8113 63.1757H76.8119C77.0075 63.2127 77.1746 63.3394 77.2618 63.5172C77.3489 63.695 77.3463 63.9033 77.255 64.079L76.3256 65.8672C75.8317 66.818 75.014 67.6015 73.9768 67.9945C73.9588 68.0013 73.9404 68.0077 73.9219 68.0128C72.8578 68.3993 71.9562 68.2359 71.265 67.6707C70.6157 67.1398 70.2314 66.318 69.9935 65.5545C69.7506 64.7748 69.6322 63.9624 69.5738 63.3557C69.5444 63.0501 69.5295 62.7914 69.522 62.6078C69.5183 62.5159 69.5168 62.4423 69.5159 62.3912C69.5154 62.3656 69.5148 62.3453 69.5146 62.3312V62.3079L69.5153 62.3073H69.5146C69.5146 61.9612 69.7972 61.6807 70.1458 61.6807ZM70.8305 63.2363C70.8847 63.7991 70.9915 64.5181 71.199 65.1842C71.4116 65.8665 71.7031 66.4053 72.0674 66.7032C72.3786 66.9576 72.8099 67.0942 73.525 66.8237L73.5349 66.8201C74.25 66.5466 74.8393 65.9941 75.2039 65.292L75.7469 64.2473C75.6838 64.2351 75.6175 64.2227 75.549 64.2094C74.9338 64.0893 74.1126 63.9266 73.2908 63.7559C72.4706 63.5855 71.6426 63.4058 71.0172 63.2522C70.9521 63.2362 70.889 63.2189 70.8274 63.2033C70.8284 63.2142 70.8294 63.2252 70.8305 63.2363Z" fill="#2E186A"/>
<path d="M88.8472 42.0159C83.8585 37.6608 88.4409 36.8418 84.3176 32.051C80.1943 27.2602 73.42 30.583 73.42 30.583C72.6128 30.1853 71.7382 29.9087 70.8327 29.7713C66.7258 29.1476 63.2093 29.4422 60.1792 30.3552C59.4158 29.9918 58.5977 29.7008 57.7322 29.4965C57.7031 29.4892 57.6757 29.4856 57.6466 29.4784C56.4659 26.208 53.4832 23.4962 49.5476 22.5706C43.6405 21.1804 37.8282 24.3387 36.5655 29.6212C36.2849 30.7945 36.254 31.9732 36.438 33.1122C33.5373 33.0471 30.9646 34.7447 30.3433 37.3462C29.9205 39.1125 30.4927 40.9058 31.7207 42.2617C28.6214 42.9758 26.1271 45.138 25.4128 48.1264C24.6621 51.2685 26.0851 54.4702 28.7818 56.4787C26.7775 57.2181 25.2233 58.7747 24.7332 60.8248C23.9042 64.2941 26.4404 67.8628 30.3961 68.792C30.4927 68.8155 30.5892 68.8336 30.6858 68.8535C29.7201 69.6652 29.015 70.7391 28.7144 72.0009C27.8853 75.4702 30.4216 79.0389 34.3773 79.9681C37.8628 80.7889 41.2883 79.2866 42.6202 76.5459C43.8337 77.5077 45.2877 78.2308 46.9184 78.6141C52.5448 79.9374 58.1294 76.7267 59.3921 71.4441C59.6435 70.3919 59.7018 69.338 59.5943 68.3129C60.2612 68.2044 60.908 68.0363 61.5293 67.8194C60.3833 66.3405 59.4176 64.643 58.7034 62.7809C54.8825 63.8312 52.1185 61.3039 51.6065 57.426C52.3809 56.4877 53.9405 55.479 57.0817 54.8336C57.4844 56.3196 58.1987 58.4474 59.1334 59.1634L60.857 53.9821C66.8278 51.941 67.1321 47.0779 68.3656 44.4547C69.7631 41.4844 75.0835 43.464 77.2445 38.7129C77.5506 38.0404 77.6909 37.3896 77.7091 36.7677C78.5727 38.7889 80.096 41.2765 82.6778 42.8873L82.6833 42.8945C83.4795 46.3095 83.9642 49.4371 84.1828 52.2809L84.5581 52.2537C85.7206 52.1724 86.6863 51.3335 86.9213 50.2018C90.4452 48.0107 90.7604 44.0931 88.8509 42.0123L88.8472 42.0159Z" fill="#2E186A"/>
<path d="M73.601 30.8506C73.8635 30.623 74.2623 30.6494 74.4916 30.9099L74.0651 31.2802C74.4631 30.9351 74.4901 30.9124 74.4922 30.9111L74.4946 30.9136C74.4957 30.9148 74.4969 30.9162 74.4983 30.9179C74.5014 30.9214 74.5055 30.9259 74.51 30.9313C74.5192 30.9422 74.5313 30.9567 74.5458 30.9748C74.5748 31.011 74.6137 31.0619 74.6592 31.1253C74.7496 31.2515 74.8675 31.4321 74.9803 31.6535C75.201 32.0865 75.4307 32.7317 75.3341 33.4545C75.2332 34.2086 74.7918 34.9424 73.8685 35.5444C72.9661 36.1328 71.5958 36.6038 69.5813 36.8945C65.6517 37.4624 63.5999 38.3956 62.6742 39.6527C61.7774 40.8707 61.7946 42.6056 62.6582 45.2462C62.6738 45.2936 62.684 45.3433 62.6878 45.393C62.8072 46.9652 61.9798 48.3117 60.8746 49.0533C59.7752 49.7909 58.2669 50.0008 57.091 49.0612C56.8195 48.8443 56.7764 48.4496 56.9949 48.18C57.2134 47.9104 57.6108 47.8676 57.8824 48.0845C58.5029 48.5803 59.3804 48.5429 60.1677 48.0148C60.9344 47.5003 61.4864 46.5877 61.4305 45.5473C60.5724 42.8887 60.3831 40.64 61.6549 38.9128C62.9116 37.2059 65.449 36.225 69.3995 35.654L69.7514 35.6001C71.4688 35.322 72.5335 34.9155 73.1757 34.4967C73.8395 34.0639 74.0373 33.6309 74.0829 33.2893C74.1327 32.9165 74.0162 32.5366 73.8543 32.2189C73.7758 32.065 73.6928 31.9386 73.6306 31.8518C73.5998 31.8088 73.5747 31.7765 73.5584 31.7563C73.5504 31.7462 73.5443 31.7391 73.5412 31.7355L73.5406 31.7349L73.5011 31.6841C73.3162 31.425 73.355 31.064 73.601 30.8506Z" fill="#9186AF"/>
<path d="M59.5689 30.5079C59.9092 30.433 60.2467 30.6467 60.322 30.9846C60.3972 31.3224 60.1821 31.657 59.8419 31.7318C53.267 33.1777 49.7272 36.8958 47.3867 40.9703C45.4683 44.3082 45.2591 49.3925 46.3007 53.6401C46.8193 55.7544 47.6346 57.6015 48.6471 58.8835C49.6597 60.1656 50.8058 60.8122 52.0159 60.7415C52.3638 60.7212 52.6622 60.9847 52.6827 61.3302C52.7032 61.6757 52.4378 61.972 52.0898 61.9924C50.3156 62.096 48.8113 61.123 47.6536 59.6571C46.4956 58.1909 45.6198 56.161 45.0743 53.9363C43.9879 49.5058 44.1565 44.0617 46.2903 40.3491C48.7599 36.0498 52.5627 32.0486 59.5689 30.5079Z" fill="#9186AF"/>
<path d="M55.947 64.229C57.3286 64.229 58.4486 63.1177 58.4486 61.7468C58.4486 60.376 57.3286 59.2646 55.947 59.2646C54.5653 59.2646 53.4453 60.376 53.4453 61.7468C53.4453 63.1177 54.5653 64.229 55.947 64.229Z" fill="#FF8D7E"/>
<path d="M87.8913 59.0098C89.2729 59.0098 90.393 57.8985 90.393 56.5276C90.393 55.1567 89.2729 54.0454 87.8913 54.0454C86.5097 54.0454 85.3896 55.1567 85.3896 56.5276C85.3896 57.8985 86.5097 59.0098 87.8913 59.0098Z" fill="#FF8D7E"/>
<path d="M49.7981 107.453C49.9077 107.125 50.2648 106.947 50.5957 107.055C50.9265 107.164 51.1058 107.519 50.9963 107.847C48.7995 114.435 46.8362 121.015 47.1874 127.926C47.3691 129.187 47.5436 130.36 48.0459 131.527L48.1803 131.82C48.8622 133.276 49.7019 134.595 50.7072 135.925C53.6177 139.536 56.5129 143.515 59.4411 147.275C62.3902 151.062 65.4044 154.669 68.6205 157.636C68.8759 157.871 68.8908 158.267 68.6538 158.521C68.4167 158.775 68.0174 158.789 67.762 158.554C64.468 155.516 61.4028 151.843 58.4426 148.041C55.4657 144.219 52.6252 140.309 49.7094 136.693C49.7053 136.688 49.7016 136.682 49.6977 136.677C48.5836 135.203 47.6448 133.717 46.8922 132.036L46.8891 132.028C46.3047 130.676 46.114 129.33 45.9332 128.074C45.9305 128.055 45.9286 128.036 45.9277 128.017C45.5566 120.837 47.5994 114.047 49.7981 107.453Z" fill="white"/>
<path d="M222.113 65.1729L244.517 74.5701C250.355 77.0179 255.066 81.5321 257.736 87.2341C257.736 87.2341 279.019 115.249 271.7 130.733C266.505 130.733 150.396 130.733 150.396 130.733L167.851 83.8335C168.92 80.9626 171.085 78.6233 173.88 77.3252L195.438 67.7508L222.113 65.1729Z" fill="#4D4190"/>
<path d="M194.126 158.095H212.009C211.882 152.035 211.838 121.482 211.969 121.225C209.28 94.498 228.513 67.8593 228.513 67.8593L223.625 65.6428L196.391 67.297L190.529 69.9311L194.177 121.175L194.122 158.095H194.126Z" fill="white"/>
<path d="M193.315 110.857C196.923 111.434 200.318 111.493 203.173 111.333C206.722 111.134 209.83 110.588 212.133 110.063C212.041 110.854 211.96 111.649 211.898 112.446C209.612 112.933 206.693 113.404 203.375 113.594C202.369 113.652 201.374 113.681 200.389 113.681C198.016 113.681 195.708 113.513 193.476 113.182L193.315 110.857Z" fill="#9388B1"/>
<path d="M200.563 107.958C198.04 107.958 195.567 107.802 193.156 107.497L192.996 105.168C198.247 105.882 203.132 105.756 207.11 105.342C209.163 105.128 211.082 104.828 212.824 104.494C212.676 105.284 212.541 106.081 212.421 106.882C210.872 107.158 209.198 107.404 207.421 107.591C205.104 107.835 202.815 107.956 200.563 107.956V107.958Z" fill="#9388B1"/>
<path d="M209.095 98.5801C210.972 98.4029 212.74 98.1571 214.368 97.8787C214.146 98.6723 213.935 99.475 213.736 100.287C212.37 100.5 210.914 100.688 209.383 100.834C207.164 101.046 204.97 101.153 202.811 101.153C199.47 101.153 196.21 100.9 193.067 100.393C192.932 100.372 192.799 100.346 192.664 100.325L192.504 97.9745C198.684 99.0809 204.484 99.0176 209.095 98.5819V98.5801Z" fill="#9388B1"/>
<path d="M202.483 95.2628C199.28 95.2628 195.816 94.9735 192.245 94.2178L192.083 91.855C198.897 93.4061 205.351 93.1404 210.28 92.4172C212.574 92.0809 214.682 91.629 216.538 91.1499C216.231 91.9906 215.932 92.8439 215.642 93.7116C214.119 94.0642 212.461 94.3896 210.688 94.6517C208.263 95.0097 205.488 95.2628 202.483 95.2628Z" fill="#9388B1"/>
<path d="M209.095 123.55C210.972 123.373 212.74 123.127 214.368 122.849C214.146 123.643 213.935 124.445 213.736 125.257C212.37 125.47 210.914 125.658 209.383 125.805C207.164 126.016 204.97 126.123 202.811 126.123C199.47 126.123 196.21 125.87 193.067 125.364C192.932 125.342 192.799 125.317 192.664 125.295L192.504 122.945C198.684 124.051 204.484 123.988 209.095 123.552V123.55Z" fill="#9388B1"/>
<path d="M209.095 130.422C210.972 130.245 212.74 129.999 214.368 129.72C214.146 130.514 213.935 131.317 213.736 132.129C212.37 132.342 210.914 132.53 209.383 132.676C207.164 132.888 204.97 132.994 202.811 132.994C199.47 132.994 196.21 132.741 193.067 132.235C192.932 132.213 192.799 132.188 192.664 132.166L192.504 129.816C198.684 130.923 204.484 130.859 209.095 130.424V130.422Z" fill="#9388B1"/>
<path d="M209.095 137.292C210.972 137.115 212.74 136.869 214.368 136.59C214.146 137.384 213.935 138.187 213.736 138.998C212.37 139.212 210.914 139.4 209.383 139.546C207.164 139.758 204.97 139.864 202.811 139.864C199.47 139.864 196.21 139.611 193.067 139.105C192.932 139.083 192.799 139.058 192.664 139.036L192.504 136.686C198.684 137.793 204.484 137.729 209.095 137.294V137.292Z" fill="#9388B1"/>
<path d="M209.095 144.163C210.972 143.986 212.74 143.74 214.368 143.462C214.146 144.256 213.935 145.058 213.736 145.87C212.37 146.083 210.914 146.271 209.383 146.418C207.164 146.629 204.97 146.736 202.811 146.736C199.47 146.736 196.21 146.483 193.067 145.977C192.932 145.955 192.799 145.93 192.664 145.908L192.504 143.558C198.684 144.664 204.484 144.601 209.095 144.165V144.163Z" fill="#9388B1"/>
<path d="M209.095 151.033C210.972 150.856 212.74 150.61 214.368 150.332C214.146 151.125 213.935 151.928 213.736 152.74C212.37 152.953 210.914 153.141 209.383 153.288C207.164 153.499 204.97 153.606 202.811 153.606C199.47 153.606 196.21 153.353 193.067 152.847C192.932 152.825 192.799 152.8 192.664 152.778L192.504 150.428C198.684 151.534 204.484 151.471 209.095 151.035V151.033Z" fill="#9388B1"/>
<path d="M202.483 120.233C199.28 120.233 195.816 119.943 192.245 119.188L192.083 116.825C198.897 118.376 205.351 118.11 210.28 117.387C212.574 117.051 214.682 116.599 216.538 116.12C216.231 116.961 215.932 117.814 215.642 118.682C214.119 119.034 212.461 119.36 210.688 119.622C208.263 119.98 205.488 120.233 202.483 120.233Z" fill="#9388B1"/>
<path d="M191.633 85.2833C199.052 87.0984 206.397 86.8073 211.992 86.0227C214.623 85.6539 217.05 85.1567 219.184 84.6343C218.809 85.4749 218.437 86.3391 218.071 87.2249C216.296 87.619 214.365 87.9824 212.313 88.2699C209.234 88.7019 206.226 88.9171 203.308 88.9171C201.056 88.9171 198.861 88.7887 196.735 88.5302C195.045 88.3259 193.4 88.0367 191.799 87.6679L191.635 85.2815L191.633 85.2833Z" fill="#9388B1"/>
<path d="M191.23 79.4332C199.155 81.2917 206.993 80.865 212.927 79.9448C216.591 79.3754 219.853 78.5853 222.508 77.8152C222.048 78.683 221.578 79.5977 221.103 80.5559C218.953 81.1181 216.462 81.6768 213.745 82.1161C210.028 82.7163 206.399 83.0182 202.901 83.0182C201.002 83.0182 199.14 82.9296 197.325 82.7524C195.292 82.5536 193.313 82.2408 191.394 81.8178L191.23 79.435V79.4332Z" fill="#9388B1"/>
<path d="M190.946 75.2787L190.782 72.8887C205.094 77.0414 219.632 73.3986 226.328 71.1731C225.807 72.0083 225.213 72.9864 224.57 74.0964C221.992 74.8467 218.55 75.6982 214.616 76.2875C211.739 76.7178 208.421 77.0305 204.847 77.0305C200.481 77.0305 195.735 76.5641 190.948 75.2787H190.946Z" fill="#9388B1"/>
<path d="M217.294 52.4077L218.861 62.2045L223.771 66.1492C223.771 66.1492 216.95 76.2913 207.677 78.6017C204.534 79.3845 199.586 78.533 197.969 75.7471C196.413 73.0679 195.918 69.284 195.619 64.7879C195.468 62.5154 217.296 52.4095 217.296 52.4095L217.294 52.4077Z" fill="white"/>
<path d="M217.007 51.8494C217.25 51.7261 217.547 51.7726 217.74 51.9645L217.742 51.9663C217.842 52.0659 217.903 52.1948 217.92 52.331L219.446 61.8681L224.168 65.6618C224.422 65.8656 224.477 66.2278 224.296 66.4971L223.771 66.1489L224.296 66.4978L224.295 66.4984C224.295 66.4988 224.294 66.4995 224.294 66.5002C224.293 66.5017 224.291 66.5037 224.29 66.5063C224.286 66.5119 224.28 66.5204 224.273 66.5308C224.259 66.5515 224.238 66.5813 224.211 66.6202C224.156 66.6981 224.076 66.8119 223.972 66.9561C223.762 67.2445 223.454 67.6569 223.056 68.1581C222.259 69.1601 221.1 70.5198 219.646 71.9536C216.75 74.8089 212.628 78.0137 207.83 79.2092C206.147 79.6284 204.017 79.606 202.095 79.1198C200.245 78.6522 198.466 77.7229 197.512 76.208L197.422 76.0599C195.783 73.2373 195.286 69.3106 194.988 64.8289C194.963 64.4519 195.161 64.1234 195.334 63.8962C195.524 63.646 195.79 63.3872 196.097 63.127C196.714 62.6038 197.584 62.0033 198.605 61.3645C200.653 60.0835 203.386 58.5981 206.109 57.1908C208.835 55.7818 211.565 54.4446 213.612 53.4601C214.636 52.9678 215.49 52.5629 216.088 52.2815C216.386 52.1408 216.622 52.0313 216.782 51.9565C216.862 51.9191 216.924 51.8901 216.965 51.8708C216.975 51.8663 216.984 51.8627 216.991 51.8592C216.996 51.8563 217.001 51.8522 217.007 51.8494ZM216.628 53.4142C216.033 53.6944 215.182 54.0974 214.162 54.588C212.121 55.5694 209.403 56.9007 206.692 58.3021C203.977 59.7053 201.281 61.1721 199.278 62.425C198.274 63.0532 197.464 63.6154 196.916 64.0798C196.641 64.3133 196.452 64.5052 196.34 64.6526C196.284 64.7263 196.261 64.7712 196.251 64.7909C196.551 69.2809 197.048 72.9064 198.516 75.4339L198.582 75.544C199.293 76.6696 200.705 77.4751 202.406 77.9051C204.147 78.3454 206.064 78.3573 207.523 77.9938C211.997 76.8789 215.923 73.8576 218.756 71.0644C220.167 69.6738 221.292 68.3533 222.065 67.3815C222.43 66.9215 222.716 66.5399 222.915 66.267L218.463 62.6912C218.342 62.5939 218.262 62.4555 218.237 62.3026L216.802 53.3322C216.747 53.3582 216.689 53.3857 216.628 53.4142Z" fill="#2E186A"/>
<path d="M189.79 31.9354C191.315 23.5216 201.826 24.6154 203.359 24.8052C217.487 26.5552 218.152 38.3298 218.055 41.6363L218.671 41.7123C218.671 41.7123 218.602 42.2763 218.483 43.1875C220.311 43.6286 223.605 45.0604 222.53 49.5873C221.716 53.0168 219.128 53.3277 216.995 52.9282C216.709 54.445 216.417 55.7412 216.147 56.5041C215.06 59.5829 214.32 60.9424 210.086 63.6795C205.851 66.4166 197.036 67.3928 193.111 62.3652C189.475 57.7082 189.183 49.3179 189.159 48.103C188.806 43.4424 188.788 37.4765 189.793 31.9354H189.79Z" fill="white"/>
<path d="M196.417 24.5363C199.544 23.7524 202.651 24.0865 203.436 24.1838C210.705 25.0841 214.582 28.588 216.598 32.3427C218.394 35.6871 218.687 39.1793 218.692 41.083L218.749 41.0903C219.072 41.1303 219.308 41.4073 219.302 41.7243L219.297 41.7886V41.7898C219.297 41.7909 219.297 41.7931 219.297 41.7953C219.296 41.7997 219.295 41.8064 219.294 41.8149C219.292 41.8322 219.289 41.8578 219.284 41.8914C219.276 41.9588 219.263 42.0586 219.247 42.1864C219.229 42.332 219.205 42.5146 219.178 42.7292C220.083 43.0087 221.199 43.5136 222.057 44.4287C223.134 45.578 223.724 47.2888 223.144 49.7315C222.7 51.6034 221.739 52.7152 220.517 53.2644C219.545 53.7016 218.474 53.7506 217.5 53.6377C217.249 54.9053 216.992 56.0063 216.743 56.7117C216.196 58.26 215.711 59.4548 214.791 60.6088C213.877 61.7559 212.565 62.8245 210.43 64.2048C208.195 65.6494 204.806 66.6046 201.474 66.5609C198.142 66.5172 194.736 65.4692 192.613 62.7495C190.701 60.3013 189.696 56.9198 189.16 54.0582C188.624 51.2 188.542 48.775 188.529 48.1287C188.176 43.4595 188.156 37.4765 189.16 31.8935C189.161 31.8705 189.164 31.8472 189.169 31.8243C189.991 27.2899 193.265 25.3264 196.417 24.5363ZM203.28 25.4273C202.533 25.3347 199.618 25.0266 196.726 25.7517C193.868 26.4681 191.134 28.1553 190.419 32.0049C190.417 32.0187 190.417 32.0327 190.414 32.0465C189.483 37.1754 189.439 42.6894 189.727 47.1734L189.789 48.0565L189.79 48.0914C189.802 48.6811 189.879 51.0444 190.401 53.8287C190.925 56.6302 191.885 59.7727 193.61 61.9815L193.782 62.1938C195.597 64.3494 198.473 65.268 201.491 65.3076C204.606 65.3484 207.742 64.447 209.741 63.1546C211.84 61.798 213.015 60.8181 213.802 59.8316C214.582 58.852 215.011 57.8272 215.552 56.2968C215.804 55.5845 216.088 54.3316 216.374 52.8128C216.405 52.6494 216.5 52.5052 216.639 52.4113C216.777 52.3175 216.947 52.282 217.111 52.3128C218.119 52.5016 219.15 52.5036 219.997 52.1231C220.806 51.7594 221.546 51.0011 221.915 49.4438C222.41 47.3598 221.891 46.0909 221.133 45.2824C220.338 44.4349 219.199 44.0053 218.334 43.7965C218.021 43.721 217.816 43.4242 217.857 43.1074C217.9 42.7733 217.936 42.4859 217.965 42.2561C217.649 42.2111 217.415 41.9375 217.424 41.6185C217.471 40.0118 217.33 36.3685 215.484 32.932C213.66 29.5353 210.14 26.277 203.28 25.4273Z" fill="#2E186A"/>
<path d="M195.586 44.2009C195.641 43.8591 195.964 43.6263 196.308 43.6808C196.653 43.7352 196.887 44.0563 196.832 44.398L195.674 51.6181L197.706 51.194C198.047 51.1229 198.382 51.34 198.454 51.6787C198.525 52.0174 198.307 52.3499 197.966 52.421L195.036 53.0318C194.833 53.0741 194.622 53.0147 194.471 52.8727C194.321 52.7305 194.251 52.5237 194.283 52.3201L195.586 44.2009Z" fill="#2E186A"/>
<path d="M193.44 44.6537C193.472 43.9395 193.12 43.3441 192.654 43.3238C192.189 43.3036 191.786 43.8662 191.754 44.5804C191.723 45.2946 192.075 45.8899 192.54 45.9102C193.006 45.9304 193.408 45.3679 193.44 44.6537Z" fill="#2E186A"/>
<path d="M201.699 44.6144C201.73 43.9002 201.379 43.3048 200.913 43.2845C200.448 43.2643 200.045 43.8268 200.013 44.5411C199.982 45.2553 200.333 45.8506 200.799 45.8709C201.264 45.8911 201.667 45.3286 201.699 44.6144Z" fill="#2E186A"/>
<path d="M202.316 38.261C203.672 37.9045 204.781 38.1996 205.544 38.5866C205.922 38.7785 206.216 38.9926 206.417 39.1606C206.517 39.2449 206.596 39.319 206.651 39.3736C206.679 39.4008 206.701 39.4233 206.717 39.4403C206.725 39.4489 206.731 39.4561 206.736 39.4617C206.739 39.4645 206.741 39.4671 206.743 39.4691C206.744 39.47 206.745 39.4708 206.746 39.4715L206.746 39.4728L206.747 39.4734C206.747 39.4736 206.747 39.4737 206.431 39.7488L206.748 39.474C206.977 39.7345 206.95 40.1305 206.688 40.3583C206.425 40.586 206.027 40.5598 205.797 40.2995H205.798L205.8 40.3014V40.302C205.799 40.3014 205.797 40.2991 205.794 40.2959C205.788 40.2892 205.776 40.2771 205.76 40.261C205.727 40.2285 205.675 40.1791 205.604 40.1196C205.46 39.9999 205.246 39.8431 204.969 39.7029C204.423 39.4256 203.634 39.211 202.638 39.4728C202.302 39.5613 201.956 39.3618 201.867 39.0272C201.778 38.6927 201.979 38.3496 202.316 38.261Z" fill="#2E186A"/>
<path d="M194 37.322C194.398 37.2871 194.764 37.3227 195.024 37.3648C195.156 37.3861 195.265 37.4097 195.343 37.4285C195.382 37.4379 195.413 37.4467 195.436 37.453C195.447 37.4561 195.457 37.4588 195.464 37.4609C195.468 37.4619 195.471 37.4626 195.473 37.4634C195.475 37.4637 195.476 37.4643 195.477 37.4646H195.478L195.478 37.4652C195.478 37.4681 195.466 37.5059 195.314 38.0001L195.479 37.4652C195.812 37.5667 196 37.9171 195.898 38.2479C195.795 38.5785 195.443 38.7643 195.11 38.6635L195.11 38.6641L195.099 38.661C195.088 38.6579 195.069 38.6525 195.044 38.6463C194.993 38.634 194.916 38.6176 194.821 38.6023C194.627 38.571 194.373 38.5475 194.111 38.5704C193.6 38.6152 193.134 38.8147 192.911 39.4394C192.795 39.7657 192.434 39.9363 192.106 39.8207C191.777 39.7051 191.606 39.347 191.722 39.0209C192.166 37.7765 193.189 37.393 194 37.322Z" fill="#2E186A"/>
<path d="M197.836 55.6292C200.396 58.406 201.819 55.9239 203.034 54.1106C203.344 53.6478 202.919 53.0512 202.38 53.1922C200.086 53.7906 196.972 54.6927 197.836 55.6292Z" fill="white"/>
<path d="M202.323 52.5635C203.385 52.3722 204.165 53.5548 203.56 54.4576H203.56C203.267 54.8949 202.932 55.4187 202.57 55.8854C202.209 56.3515 201.78 56.8168 201.268 57.1265C200.735 57.4483 200.106 57.6036 199.402 57.4257C198.809 57.2759 198.222 56.9047 197.626 56.3174L197.371 56.0524C197.179 55.8449 197.04 55.5693 197.059 55.2428C197.078 54.9332 197.234 54.689 197.392 54.5164C197.695 54.1857 198.182 53.9232 198.671 53.7104C199.68 53.2703 201.079 52.8839 202.22 52.5862L202.323 52.5635ZM202.473 53.8163C201.337 54.1135 200.065 54.4709 199.178 54.8579C198.783 55.0302 198.527 55.1822 198.391 55.2979C198.946 55.8779 199.383 56.1276 199.713 56.2109C200.034 56.2919 200.317 56.2342 200.611 56.0561C200.926 55.8657 201.242 55.5435 201.57 55.121C201.884 54.7151 202.172 54.2675 202.473 53.8163Z" fill="#2E186A"/>
<path d="M186.979 29.1496C187.795 27.4104 188.797 26.9115 189.684 26.9169C189.717 26.6023 189.772 26.2842 189.841 25.9696C190.455 23.2018 192.228 20.8335 194.659 19.3908H194.653C194.653 19.3908 197.636 16.2234 207.05 16.896C216.465 17.5667 216.709 22.9215 216.709 22.9215C220.985 25.787 224.079 29.3756 224.309 32.4471C224.954 41.0471 221.308 43.137 219.801 43.6305C219.637 43.5582 219.477 43.4967 219.318 43.4407C219.269 43.5835 219.22 43.6992 219.172 43.7788C213.24 43.3792 212.925 35.0884 211.048 31.1039C210.848 30.679 210.325 30.5181 209.915 30.7496C207.28 32.2284 203.694 32.7111 199.443 32.1271C194.85 31.4962 192.795 29.3738 191.878 27.6925C191.849 27.7232 191.818 27.7539 191.789 27.7847C191.747 27.8299 191.705 27.8769 191.663 27.9239C191.643 27.9456 191.625 27.9673 191.605 27.989C191.57 28.0305 191.536 28.0721 191.499 28.1155C191.476 28.1444 191.45 28.1734 191.426 28.2041C191.395 28.2421 191.364 28.2818 191.335 28.3216C191.308 28.356 191.282 28.3903 191.255 28.4265C191.228 28.4626 191.2 28.5006 191.175 28.5385C191.146 28.5783 191.118 28.6199 191.089 28.6597C191.066 28.694 191.042 28.7302 191.018 28.7645C190.987 28.8097 190.958 28.8567 190.929 28.9037C190.909 28.9363 190.889 28.9688 190.869 29.0032C190.838 29.0556 190.807 29.108 190.776 29.1604C190.759 29.1894 190.741 29.2201 190.725 29.2508C190.692 29.3087 190.661 29.3683 190.63 29.428C190.616 29.4551 190.603 29.4804 190.588 29.5076C190.555 29.5744 190.523 29.6413 190.49 29.7082C190.18 30.3645 189.94 31.1039 189.788 31.9373C189.291 34.6762 189.045 37.5182 188.965 40.2552C188.852 40.2679 188.739 40.2335 188.626 40.145C186.749 38.6571 185.035 33.2878 186.975 29.1514L186.979 29.1496Z" fill="#2E186A"/>
<path d="M211.055 39.8264C211.231 39.8197 211.402 39.8865 211.526 40.0106C211.651 40.1348 211.717 40.305 211.709 40.48C211.613 42.678 211.275 44.865 210.312 46.5276C209.317 48.2454 207.678 49.36 205.157 49.4026C205.151 49.4027 205.145 49.4027 205.139 49.4026C202.727 49.3759 200.976 48.8552 199.724 48.0349C198.465 47.2105 197.759 46.1157 197.384 45.0356C197.012 43.9651 196.964 42.9117 197.004 42.1378C197.024 41.7485 197.068 41.4232 197.106 41.1929C197.126 41.0777 197.144 40.9854 197.158 40.9206C197.164 40.8883 197.17 40.8625 197.175 40.8441C197.177 40.835 197.178 40.8276 197.18 40.8221C197.18 40.8194 197.181 40.8172 197.182 40.8153C197.182 40.8145 197.182 40.8136 197.182 40.8129V40.8117C197.182 40.8113 197.19 40.8129 197.795 40.9641L197.183 40.8111C197.251 40.5414 197.49 40.3488 197.77 40.338L211.055 39.8264ZM198.327 41.5705C198.303 41.7431 198.278 41.9575 198.265 42.2027C198.23 42.8773 198.275 43.7574 198.577 44.6268C198.876 45.4867 199.427 46.3384 200.419 46.9884C201.416 47.6414 202.908 48.1225 205.143 48.1487C207.213 48.1116 208.443 47.2386 209.217 45.9027C209.938 44.6586 210.277 42.9811 210.409 41.1048L198.327 41.5705Z" fill="#E0840B"/>
<path d="M210.488 40.2321C210.61 39.9082 210.974 39.7439 211.301 39.8655L217.984 42.3606C218.31 42.4824 218.475 42.8438 218.352 43.1678C218.23 43.4917 217.866 43.6555 217.54 43.5337L210.857 41.0393C210.531 40.9176 210.365 40.556 210.488 40.2321Z" fill="#E0840B"/>
<path d="M197.666 43.4593C198.014 43.4648 198.292 43.7498 198.287 44.0957C198.281 44.4418 197.994 44.718 197.646 44.7126L195.787 44.6838C195.439 44.6784 195.161 44.3934 195.166 44.0474C195.172 43.7013 195.459 43.4251 195.807 43.4305L197.666 43.4593Z" fill="#E0840B"/>
<path d="M184.995 41.3018C185.09 42.124 185.138 42.8912 185.198 43.5551C185.278 44.4422 185.378 45.1387 185.606 45.6946C185.821 46.2198 186.151 46.6217 186.73 46.9168C187.336 47.2254 188.251 47.435 189.662 47.4749C192.231 47.5475 193.665 46.0193 194.493 44.3562C194.909 43.5223 195.158 42.6761 195.303 42.0332C195.334 41.8926 195.359 41.7619 195.381 41.6445L184.995 41.3018ZM196.111 41.0436C196.71 41.0967 196.738 41.0995 196.739 41.0999V41.1023C196.739 41.1039 196.739 41.1061 196.739 41.1085C196.738 41.1133 196.738 41.1198 196.737 41.128C196.735 41.1444 196.732 41.1674 196.729 41.1966C196.722 41.2553 196.712 41.3393 196.696 41.4444C196.665 41.6547 196.614 41.9517 196.535 42.3061C196.376 43.0121 196.099 43.961 195.625 44.9119C194.675 46.8189 192.875 48.8195 189.626 48.7276C188.129 48.6852 186.999 48.462 186.155 48.0318C185.283 47.588 184.756 46.9451 184.437 46.1671C184.131 45.4198 184.02 44.5539 183.941 43.6659C183.859 42.7513 183.808 41.7968 183.649 40.7443C183.621 40.5604 183.677 40.3735 183.801 40.2345C183.926 40.0956 184.107 40.0191 184.294 40.0252L196.132 40.4157C196.472 40.4269 196.742 40.7038 196.742 41.0417V41.0436C196.742 41.0622 196.741 41.0808 196.739 41.0993L196.111 41.0436Z" fill="#E0840B"/>
<path d="M162.982 158.095L180.301 119.708L152.861 125.147L138.303 158.095H162.982Z" fill="#4D4190"/>
<path d="M194.054 158.095L194.099 121.225L192.596 100.222L166.539 121.064V158.095H194.054Z" fill="#4D4190"/>
<path d="M211.747 158.095H249.722V122.634L213.888 99.1858C213.888 99.1858 212.656 103.901 211.776 110.362C210.896 116.823 211.616 122.635 211.616 122.635L211.747 158.097V158.095Z" fill="#4D4190"/>
<path d="M259.042 158.095L271.7 130.735L246.967 126.736L239.51 158.095H259.042Z" fill="#4D4190"/>
<path d="M253.177 117.708C253.512 117.613 253.861 117.806 253.957 118.139C255.158 122.321 253.598 127.146 249.973 129.898C249.696 130.108 249.299 130.056 249.088 129.781C248.876 129.506 248.929 129.113 249.206 128.903C252.42 126.463 253.801 122.169 252.743 118.483C252.647 118.15 252.842 117.803 253.177 117.708Z" fill="#2E186A"/>
<path d="M238.314 72.4286C238.41 72.0964 238.76 71.9049 239.095 72.0008C239.43 72.0971 239.623 72.445 239.526 72.7774C239.114 74.189 238.581 75.5426 238.044 76.8685C237.503 78.2028 236.96 79.5038 236.508 80.8495C236.503 80.8661 236.497 80.8829 236.49 80.899C236.363 81.1922 236.255 81.5017 236.144 81.8335C236.034 82.1583 235.92 82.512 235.787 82.858C235.52 83.5577 235.159 84.2896 234.518 84.9259C234.47 84.9734 234.414 85.0127 234.354 85.0427C233.961 85.2374 233.33 85.4607 232.828 85.473C230.87 85.6118 228.949 85.7492 227.086 86.0556C227.743 86.3853 228.399 86.7148 229.056 87.0445C230.255 87.647 231.455 88.2491 232.655 88.8511C232.814 88.9313 232.932 89.0755 232.979 89.247C233.025 89.4185 232.997 89.6015 232.9 89.7507C231.452 91.9739 230.019 93.9238 228.74 96.0957C227.075 99.2163 225.407 101.791 223.576 104.7C223.574 104.702 223.572 104.705 223.571 104.707C221.628 107.686 220.912 110.831 219.992 114.13C219.808 119.213 219.625 124.298 219.431 129.302C219.418 129.647 219.125 129.917 218.777 129.904C218.429 129.891 218.157 129.599 218.17 129.253C218.365 124.229 218.549 119.121 218.733 114.013L218.74 113.94C218.744 113.916 218.749 113.891 218.756 113.868C219.662 110.627 220.423 107.227 222.511 104.026C224.353 101.102 225.991 98.5719 227.63 95.499L227.643 95.4764C228.821 93.4751 230.17 91.5895 231.455 89.6528C230.465 89.1561 229.476 88.6595 228.486 88.1626C227.287 87.5601 226.087 86.958 224.888 86.356H224.887L224.886 86.3554C224.651 86.2364 224.514 85.9835 224.546 85.7226C224.577 85.4619 224.769 85.2481 225.026 85.1872C227.55 84.5894 230.175 84.4046 232.74 84.2227L232.785 84.2209C232.988 84.2208 233.375 84.1099 233.694 83.9663C234.114 83.5238 234.381 83.0041 234.607 82.4131C234.728 82.0977 234.831 81.7785 234.946 81.4363C235.055 81.1115 235.173 80.7711 235.316 80.4364C235.782 79.0511 236.341 77.7121 236.873 76.401C237.41 75.0764 237.921 73.7739 238.314 72.4286Z" fill="#2E186A"/>
<path d="M177.74 75.4133C178.084 75.36 178.407 75.5941 178.461 75.936C178.99 79.3057 179.352 82.3659 180.081 85.623C180.091 85.6676 180.096 85.7132 180.096 85.7589C180.096 85.8405 180.117 85.9388 180.16 86.0367C180.173 86.0676 180.187 86.0951 180.201 86.1193C181.632 86.4879 183.013 86.9753 184.353 87.473C185.769 87.9994 187.126 88.531 188.49 88.9681L188.489 88.9687C188.498 88.9715 188.506 88.9733 188.513 88.976C188.766 89.0683 188.932 89.31 188.927 89.5776C188.921 89.8452 188.745 90.0799 188.488 90.1614C187.183 90.5754 185.858 90.9027 184.557 91.2257C183.487 91.4914 182.433 91.7552 181.398 92.0647V92.0659C181.395 92.1172 181.386 92.1927 181.356 92.2764C181.352 92.2861 181.347 92.2964 181.342 92.3083C181.724 93.5766 182.257 94.8217 182.819 96.1276C183.488 97.6823 184.196 99.3185 184.669 101.102L184.772 101.468C185.159 102.806 185.626 104.068 186.121 105.321L186.668 106.689L186.681 106.723C186.791 107.051 186.844 107.372 186.889 107.639C186.936 107.919 186.975 108.145 187.049 108.365C188.147 111.275 189.083 114.052 189.462 117.03L189.53 117.429C190.197 121.54 190.03 125.51 190.158 129.269C190.17 129.615 189.898 129.904 189.549 129.916C189.201 129.928 188.909 129.657 188.897 129.312C188.76 125.306 188.945 121.384 188.219 117.245C188.217 117.235 188.216 117.226 188.214 117.216C187.856 114.373 186.959 111.695 185.859 108.783C185.857 108.776 185.854 108.769 185.851 108.761C185.741 108.434 185.689 108.112 185.644 107.846C185.597 107.57 185.558 107.347 185.486 107.13C184.755 105.317 184.011 103.469 183.451 101.432L183.449 101.426V101.426C183.004 99.7438 182.333 98.1895 181.658 96.6203C180.989 95.0654 180.311 93.4887 179.903 91.8303C179.824 91.512 180.006 91.1872 180.32 91.0855C181.623 90.6637 182.949 90.333 184.251 90.0097C184.915 89.8448 185.572 89.6811 186.223 89.5085C185.45 89.2255 184.677 88.9318 183.91 88.6468C182.512 88.1273 181.115 87.6358 179.68 87.2796C179.569 87.2521 179.467 87.1952 179.386 87.115C179.106 86.8369 178.858 86.351 178.835 85.8372C178.104 82.5493 177.731 79.4221 177.214 76.1294C177.16 75.7874 177.396 75.4667 177.74 75.4133ZM180.531 91.4974C180.489 91.5124 180.447 91.5321 180.406 91.5586C180.292 91.6314 180.229 91.7236 180.195 91.7905L180.516 91.6816L180.531 91.4974Z" fill="#2E186A"/>
</g>
</g>
<defs>
<clipPath id="clip0_460_4061">
<rect width="284" height="158.625" fill="white"/>
</clipPath>
<clipPath id="clip1_460_4061">
<rect width="248.658" height="163.56" fill="white" transform="translate(24.5752 -5.01343)"/>
</clipPath>
</defs>
</svg>
