<svg xmlns="http://www.w3.org/2000/svg" width="284" height="159" fill="none" viewBox="0 0 284 159"><g clip-path="url(#a)"><path fill="#e8edff" d="M1 0h282v158.625H1z"/><g clip-path="url(#b)"><path fill="#fff" d="M209.802 137.854c3.728 2.316 11.49 3.18 10.493 5.469-.187.43-1.04 1.477-3.354.683l.211.192q.096.104.157.216c.864 1.604-1.011 2.468-4.114 1.261l-.804-.523c2.119.792.82 3.086-1.313 2.325-1.443-.515-4.412-1.555-4.916-1.681-4.094-.836-8.331-2.786-8.484-5.487-.426-7.47 12.441-5.183 12.441-5.183 1.598 1.103 4.222 2.015 7.56 3.031 2.103.64 1.713 2.595.26 2.72l-.728-.142c2.08.747 3.556 1.51 3.086 2.588-.188.43-1.04 1.477-3.354.683"/><path stroke="#2e186a" stroke-linecap="round" stroke-linejoin="round" stroke-width="5" d="M209.802 137.854c3.728 2.316 11.49 3.18 10.493 5.469-.187.43-1.04 1.477-3.354.683l.211.192q.096.104.157.216c.864 1.604-1.011 2.468-4.114 1.261l-.804-.523c2.119.792.82 3.086-1.313 2.325-1.443-.515-4.412-1.555-4.916-1.681-4.094-.836-8.331-2.786-8.484-5.487-.426-7.47 12.441-5.183 12.441-5.183 1.598 1.103 4.222 2.015 7.56 3.031 2.103.64 1.713 2.595.26 2.72l-.728-.142c2.08.747 3.556 1.51 3.086 2.588-.188.43-1.04 1.477-3.354.683"/><path stroke="#2e186a" stroke-linecap="round" stroke-linejoin="round" stroke-width="5" d="M207.285 143.315c1.666.657 2.711.944 4.929 1.772M209.044 140.867c3.764 1.819 7.622 2.354 8.265 3.546"/><path fill="#fff" d="m198.432 142.18-11.854 2.186s-6.066-5.954-.665-11.07l11.493-.401c1.234-.593 3.865-.752 5.529-1.266 1.945-.6 7.67-.077 9.122-.643 2.278-.886 3.632 2.957-1.705 3.896l-.29.059s-3.108-.121-4.737 2.119-3.17 1.873-3.17 1.873"/><path stroke="#2e186a" stroke-linecap="round" stroke-linejoin="round" stroke-width="5" d="m198.432 142.18-11.854 2.186s-6.066-5.954-.665-11.07l11.493-.401c1.234-.593 3.865-.752 5.529-1.266 1.945-.6 7.67-.077 9.122-.643 2.278-.886 3.632 2.957-1.705 3.896l-.29.059s-3.108-.121-4.737 2.119-3.17 1.873-3.17 1.873"/><path fill="#2e186a" d="M149.74 114.316s1.042 13.745 5.96 22.527c7.288 13.017 37.716 7.955 37.716 7.955l-.911-15.005s-22.863 5.819-25.503-8.631c-1.68-9.191-1.867-9.484-3.354-17.194-3.825-19.836-15.646-24.32-15.646-24.32l-13.56-2.241 1.653 3.098-17.647-3.444-7.648.863c-1.137.282-5.849 1.58-9.838 2.4-4.839.998-8.474 4.883-9.197 9.64l10.516 19.349 4.153 48.782h44l-.696-26.187s-.736-5.825 3.825-22.768c.889-3.303-4.46-4.934-4.521-8.452m-41.852 17.795.031-.248v.253z"/><path fill="#e0840b" d="M109.608 60.97a.63.63 0 0 1 .829-.326c.32.137.467.506.329.824-.545 1.252-.722 2.997-.34 4.865.352 1.723 1.1 3.168 1.995 4.123.903.964 1.883 1.363 2.741 1.217a.626.626 0 1 1 .213 1.235c-1.429.243-2.808-.457-3.878-1.597-1.077-1.15-1.917-2.815-2.308-4.728-.423-2.072-.246-4.084.419-5.612M141.356 58.384a.63.63 0 0 1 .829-.327c.32.137.467.506.329.823-.545 1.253-.722 2.998-.34 4.866.352 1.723 1.1 3.168 1.995 4.123.903.964 1.883 1.363 2.741 1.217a.626.626 0 1 1 .213 1.235c-1.429.243-2.808-.457-3.878-1.597-1.077-1.15-1.917-2.815-2.308-4.728-.423-2.072-.246-4.084.419-5.613"/><path fill="#2e186a" d="M110.93 34.694c4.729-3.814 7.086-22.764-6.788-34.756-14.047-12.14-24.625 1.423-26.952 4.975C74.863 8.466 73.436 18 85.484 26.387s20.046 12.666 25.446 8.309z"/><path fill="#5d21cf" d="m118.431 42.689-.295.21c-1.762 1.248-4.296.867-5.661-.85l-3.812-4.8c-1.364-1.72-1.042-4.126.72-5.375l.295-.21c1.762-1.249 4.297-.868 5.661.85l3.812 4.8c1.365 1.719 1.042 4.125-.72 5.374"/><path fill="#2e186a" d="M125.769 48.824c4.893 5.785 11.835 8.204 15.502 5.402 3.67-2.802 2.677-9.764-2.215-15.551-4.892-5.785-11.834-8.204-15.502-5.402-3.67 2.802-2.677 9.764 2.215 15.551"/><path fill="#2e186a" d="M128.752 49.293c-4.866 5.703-10.979 8.117-15.93 7.59-5.258-.556-8.166-12.188-3.299-17.891 4.866-5.704 17.11-8.709 21-5.62 3.889 3.089 3.096 10.217-1.771 15.92"/><path fill="#fff" d="M116.754 58.524c.923-2.178-.199-4.724-2.507-5.687s-4.927.022-5.85 2.2c-.923 2.177.199 4.723 2.507 5.686s4.927-.021 5.85-2.2"/><path fill="#2e186a" d="M114.002 53.415c-2.015-.84-4.248.033-5.024 1.864s.156 4.026 2.171 4.866 4.247-.033 5.023-1.864-.156-4.025-2.17-4.866m.489-1.155c2.601 1.085 3.914 3.983 2.845 6.507-1.07 2.523-4.076 3.619-6.677 2.534s-3.914-3.983-2.845-6.507c1.07-2.524 4.076-3.62 6.677-2.534"/><path fill="#fff" d="M147.767 55.637c.923-2.178-.2-4.724-2.507-5.687s-4.927.022-5.85 2.2c-.923 2.177.199 4.723 2.507 5.686s4.927-.021 5.85-2.2"/><path fill="#2e186a" d="M145.015 50.528c-2.014-.84-4.247.033-5.023 1.864s.156 4.026 2.171 4.866c2.014.841 4.246-.033 5.023-1.864s-.156-4.025-2.171-4.866m.49-1.155c2.601 1.085 3.914 3.983 2.844 6.507s-4.075 3.619-6.676 2.534-3.915-3.983-2.845-6.507 4.076-3.62 6.677-2.534"/><path fill="#fff" d="m132.801 68.477 1.596 9.009 5.506.757c.472.792 3.746 12.028-10.227 12.923-9.168.588-14.955-6.498-18.823-13.262l7.674-.995-3.558-17.62z"/><path fill="#2e186a" d="M114.589 58.788a.64.64 0 0 1 .67-.056l17.833 9.19.063.037c.14.094.237.242.267.41l1.516 8.559 5.052.695.07.014a.63.63 0 0 1 .386.287c.105.177.226.51.334.898.115.412.234.948.315 1.568.163 1.235.184 2.832-.281 4.448a8.35 8.35 0 0 1-3.208 4.55c-1.772 1.28-4.312 2.175-7.889 2.404-9.575.613-15.538-6.802-19.413-13.579a.62.62 0 0 1-.016-.589.63.63 0 0 1 .483-.342l7.004-.908-3.426-16.963a.63.63 0 0 1 .24-.623m4.557 17.998a.625.625 0 0 1-.537.745l-6.735.872c3.843 6.472 9.349 12.677 17.761 12.138 3.41-.218 5.7-1.064 7.229-2.167a7.1 7.1 0 0 0 2.735-3.88c.404-1.404.392-2.82.245-3.942-.074-.56-.18-1.038-.28-1.395a6 6 0 0 0-.107-.342l-5.147-.708a.63.63 0 0 1-.535-.513l-1.542-8.703-16.388-8.445z"/><path fill="#fff" d="M142.477 52.762c1.62 9.938-3.449 18.735-11.322 19.646-7.873.91-15.568-6.407-17.186-16.345s3.45-18.735 11.323-19.646 15.567 6.407 17.185 16.345"/><path fill="#2e186a" d="M125.219 35.795c8.334-.965 16.233 6.739 17.881 16.867 1.651 10.13-3.497 19.4-11.872 20.368-8.204.95-15.986-6.5-17.8-16.394l-.082-.473c-1.651-10.13 3.498-19.4 11.873-20.368m16.635 17.067c-1.587-9.748-9.078-16.68-16.489-15.823-7.372.853-12.361 9.178-10.772 18.924l.079.455c1.742 9.507 9.115 16.212 16.41 15.368 7.372-.854 12.361-9.178 10.772-18.924"/><path fill="#2e186a" d="M130.324 50.024a.633.633 0 0 1 .792.409l2.309 7.274.032.122a1.063 1.063 0 0 1-.966 1.257l-2.719.218a.63.63 0 0 1-.68-.575.63.63 0 0 1 .579-.675l2.478-.198-2.237-7.046a.625.625 0 0 1 .412-.787M121.359 49.54l-.027.05a.634.634 0 0 1-.814.229.625.625 0 0 1-.287-.84l.49.24c-.49-.24-.489-.24-.489-.241l.002-.004.003-.005.006-.013.017-.03.051-.079q.062-.091.179-.219c.159-.169.398-.371.752-.572.707-.402 1.854-.79 3.705-.902a.63.63 0 0 1 .669.587.63.63 0 0 1-.592.664c-1.71.104-2.657.455-3.154.738a1.9 1.9 0 0 0-.458.341q-.052.057-.061.073l-.001.002.005-.01.004-.006zM134.938 46.569c.938.032 2.174.316 3.382 1.295a.624.624 0 0 1 .089.881.634.634 0 0 1-.888.09c-.957-.776-1.913-.989-2.626-1.013a4 4 0 0 0-.864.06 3 3 0 0 0-.23.052l-.052.015-.007.001a.626.626 0 1 1-.413-1.184l.193.551-.192-.551.015-.005.126-.037c.08-.021.192-.049.332-.074.278-.051.67-.097 1.135-.081M125.289 54.932c.602-.008 1.081-.739 1.068-1.631-.013-.893-.512-1.61-1.114-1.601-.603.008-1.081.739-1.069 1.631.013.893.512 1.61 1.115 1.601M135.645 54.833c.597-.071.993-.85.886-1.74s-.678-1.555-1.274-1.484c-.597.07-.993.85-.886 1.74s.678 1.554 1.274 1.484M118.474 37.41s5.499 2.798 4.859 6.352l24.384.394s4.029-18.06-25.703-11.675z"/><path fill="#2e186a" d="M120.096 38.36s.934 12.126-7.126 14.765l.738-10.608 6.39-4.156z"/><path fill="#e0840b" d="M144.252 55.76c1.446-.291 2.85.396 3.939 1.539 1.027 1.078 1.843 2.624 2.267 4.407l.079.359c.395 1.935.268 3.815-.29 5.297-.554 1.473-1.579 2.648-3.024 2.939h-.002c-.016.004-.067.014-.12.021a.63.63 0 0 1-.709-.538.63.63 0 0 1 .542-.704h.006l.014-.004.018-.003c.864-.174 1.625-.909 2.092-2.149.463-1.23.592-2.867.236-4.61l-.071-.322c-.38-1.599-1.103-2.937-1.955-3.832-.917-.963-1.908-1.346-2.771-1.172a.627.627 0 1 1-.251-1.228M112.503 58.347c1.446-.291 2.85.396 3.939 1.539 1.096 1.15 1.951 2.832 2.346 4.766s.268 3.814-.29 5.297c-.554 1.473-1.579 2.648-3.024 2.939h-.002c-.016.004-.067.014-.12.021a.63.63 0 0 1-.709-.538.63.63 0 0 1 .542-.704h.006l.014-.004.018-.003c.864-.174 1.625-.91 2.092-2.15.463-1.23.592-2.867.236-4.608-.356-1.742-1.117-3.2-2.026-4.155-.917-.963-1.908-1.346-2.771-1.172a.627.627 0 1 1-.251-1.228"/><path fill="#2e186a" d="M124.508 62.723a.634.634 0 0 1 .855-.255c1.498.8 2.76 1.02 3.631 1.047.437.014.778-.021 1.003-.057a3 3 0 0 0 .304-.064l.005-.002a.63.63 0 0 1 .795.402.626.626 0 0 1-.405.79l-.195-.596.195.596-.001.001-.005.002-.011.003-.03.008-.1.027c-.084.02-.201.046-.35.07-.297.047-.719.09-1.244.073-1.053-.033-2.509-.298-4.19-1.196a.625.625 0 0 1-.257-.85"/><path fill="#5d21cf" d="m91.767 89.964-6.605 45.308c-1.218 20.181 1.39 22.823 1.39 22.823h13.559s-4.345-22.996 4.346-46.798l-12.69-21.335z"/><path fill="#4d4190" d="M39.592 149.532c-1.233 3.553-2.237 6.97-2.746 8.562h77.557c-2.224-3.655-11.395-20.463-11.007-43.269.208-12.201-7.12-31.051-12.93-34.584-8.245-1.115-38.586 2.112-38.586 2.112s-6.818 2.115-12.224 3.896c0 0-5.534 11.593-7.846 19.094-3.28 10.632-6.184 14.132-4.123 24.544 1.102 5.57 6.822 13.486 11.903 19.645z"/><path fill="#fff" d="M92.114 107.023a.63.63 0 0 1 .631.627.63.63 0 0 1-.63.627h-4.211a.63.63 0 0 1-.632-.627.63.63 0 0 1 .632-.627zM92.532 110.113c.349 0 .631.28.631.626a.63.63 0 0 1-.63.627H88.32a.63.63 0 0 1-.63-.627c0-.346.282-.626.63-.626z"/><path fill="#fff" d="M95.782 91.118a.63.63 0 0 1 .783.425c1.273 4.331 1.465 8.956 2.003 13.224a.6.6 0 0 1 .003.128c-.361 4.384-.502 9.102-1.236 13.608-.733 4.497-2.066 8.871-4.844 12.67-1.063 2.795-.268 5.774.883 8.808l.237.612.007.023c1.836 5.282 4.178 12.495 7.166 17.141a.626.626 0 0 1-.192.866.635.635 0 0 1-.872-.191c-3.09-4.805-5.486-12.203-7.295-17.407-1.266-3.233-2.455-6.877-1.084-10.375l.035-.074a1 1 0 0 1 .043-.069c2.652-3.596 3.95-7.781 4.67-12.204.72-4.421.854-8.99 1.218-13.444-.55-4.39-.725-8.782-1.954-12.964a.626.626 0 0 1 .43-.777M81.922 97.836a.63.63 0 0 1 .8.393c3.612 10.58 5.74 23.735-2.704 33.056a1 1 0 0 0-.014.065 3 3 0 0 0-.016.367c.909 4.158 1.681 8.736 2.42 13.254.744 4.55 1.453 9.036 2.236 13.003a.63.63 0 0 1-1.239.241c-.787-3.993-1.501-8.506-2.243-13.043-.743-4.545-1.515-9.118-2.422-13.258a.6.6 0 0 1-.014-.133c0-.169-.002-.398.029-.608.028-.197.098-.483.316-.715 7.942-8.757 6.06-21.267 2.456-31.827a.626.626 0 0 1 .395-.795M58.521 61.747l1.153 19.591-10.376 2.174S62.375 97.73 71.614 96.166c12.999-2.201 10.14-16.944 10.14-16.944l-5.337.51-.993-11.345-16.901-6.638z"/><path fill="#2e186a" d="M58.263 61.175a.63.63 0 0 1 .492-.008l16.901 6.637a.63.63 0 0 1 .397.529l.938 10.714 4.703-.45a.63.63 0 0 1 .68.506l-.62.118.62-.117v.004l.003.01.006.036.023.133c.019.115.044.282.072.492.054.422.117 1.024.15 1.752.067 1.452.017 3.424-.454 5.476s-1.372 4.212-3.026 6.006c-1.661 1.802-4.05 3.2-7.427 3.771-2.484.42-5.169-.226-7.748-1.362-2.587-1.14-5.131-2.803-7.365-4.498a66 66 0 0 1-5.56-4.764 64 64 0 0 1-2.061-2.06l-.114-.122-.03-.032-.008-.009-.002-.002.465-.423-.466.422a.624.624 0 0 1 .336-1.035l9.845-2.063-1.121-19.053a.63.63 0 0 1 .37-.608m2.042 20.127a.63.63 0 0 1-.5.65l-9.267 1.94a64.815 64.815 0 0 0 6.837 6.036c2.19 1.663 4.647 3.262 7.11 4.348 2.472 1.09 4.888 1.634 7.023 1.273l.29-.052c2.965-.557 5.006-1.798 6.42-3.33 1.465-1.59 2.287-3.53 2.726-5.438.438-1.909.486-3.76.423-5.141a20 20 0 0 0-.141-1.649l-.006-.037-4.742.453a.626.626 0 0 1-.69-.57l-.959-10.958-15.62-6.135z"/><path fill="#fff" d="M81.482 50.726s6.082-3.306 6.73 2.575c.542 4.92-3.239 4.98-6.88 4.99-3.641.008.149-7.565.149-7.565z"/><path fill="#2e186a" d="M84.568 49.182c.89-.05 1.884.098 2.71.743.833.652 1.387 1.727 1.56 3.307l.024.242c.102 1.192-.039 2.167-.415 2.95-.407.848-1.06 1.412-1.835 1.779-.76.36-1.64.532-2.532.62-.892.086-1.841.092-2.748.094-.567.001-1.063-.147-1.448-.471-.38-.32-.584-.755-.682-1.2-.19-.86-.023-1.928.228-2.891a20.5 20.5 0 0 1 .933-2.687c.153-.363.29-.667.389-.88l.118-.248.033-.068.008-.017.003-.005.001-.002.548.27-.548-.27a.63.63 0 0 1 .264-.272h.001l.002-.001.005-.003.017-.009.059-.03q.075-.04.211-.104c.18-.085.436-.198.745-.314.611-.23 1.46-.482 2.349-.533m.072 1.252c-.712.04-1.425.247-1.974.453a9 9 0 0 0-.71.303l-.059.125c-.093.201-.224.49-.37.836-.292.696-.64 1.611-.876 2.517-.242.929-.34 1.753-.216 2.31.058.264.156.42.266.512.104.088.286.174.628.174.915-.003 1.805-.009 2.628-.089.825-.08 1.54-.232 2.112-.503.558-.264.976-.64 1.239-1.187.268-.56.403-1.36.276-2.516-.15-1.36-.599-2.078-1.088-2.46-.497-.388-1.144-.516-1.856-.475"/><path fill="#fff" d="M82.752 43.204c-2.04-8.911-7.52-10.404-14.815-9.403-5.65.776-9.746 10.312-10.48 18.738-1.651.14-6.232.454-5.902 4.424.344 4.14 3.176 6.915 7.148 5.823 2.738 7.129 9.112 11.876 15.444 11.008 7.295-1.001 13.073-11.089 8.607-30.588z"/><path fill="#2e186a" d="M67.851 33.18c3.69-.507 7.049-.404 9.764 1.054 2.743 1.472 4.7 4.255 5.748 8.812q.003.01.006.02c2.25 9.82 1.938 17.345.087 22.578-1.795 5.077-5.067 8.04-8.855 8.713l-.368.058c-6.56.9-13.004-3.871-15.915-10.895-1.947.383-3.665-.092-4.963-1.21-1.313-1.131-2.139-2.87-2.387-4.888l-.042-.407c-.093-1.12.16-2.032.66-2.754.493-.711 1.193-1.19 1.916-1.517 1.164-.526 2.49-.698 3.376-.782.424-4.129 1.626-8.477 3.414-11.946 1.843-3.576 4.411-6.404 7.559-6.836m9.164 2.157c-2.358-1.266-5.386-1.41-8.991-.915-2.503.343-4.808 2.672-6.609 6.165-1.78 3.452-2.968 7.862-3.33 12.006a.63.63 0 0 1-.575.57c-.846.072-2.292.182-3.485.722-.587.266-1.074.619-1.399 1.087-.318.458-.514 1.075-.442 1.94l.037.36c.22 1.781.936 3.208 1.961 4.092 1.076.926 2.554 1.313 4.353.818l.059-.013a.63.63 0 0 1 .699.394c2.672 6.955 8.821 11.426 14.767 10.61 3.352-.46 6.463-3.016 8.206-7.944 1.744-4.934 2.089-12.197-.124-21.87q-.003-.007-.005-.017c-.995-4.342-2.795-6.756-5.122-8.005"/><path fill="#2e186a" d="M73.137 48.75a.633.633 0 0 1 .809.375l3.89 10.592a.62.62 0 0 1-.107.614.63.63 0 0 1-.588.22l-2.782-.453a.627.627 0 1 1 .204-1.237l1.718.28-3.521-9.587a.626.626 0 0 1 .377-.803M65.14 50.342c.911-.63 2.284-1.138 3.857-.39.314.149.447.523.297.835a.633.633 0 0 1-.842.295c-1.02-.484-1.9-.19-2.591.288a4.8 4.8 0 0 0-1.104 1.081l-.012.016h-.001v.003a.634.634 0 0 1-.875.171.624.624 0 0 1-.173-.87l.002-.002.001-.003.007-.01a2 2 0 0 1 .098-.134 6.027 6.027 0 0 1 1.335-1.28M77.466 47.112c.978-.298 2.312-.32 3.487.844a.624.624 0 0 1 .002.886.635.635 0 0 1-.893.001c-.75-.743-1.551-.738-2.226-.533a3.8 3.8 0 0 0-1.178.613l-.013.01h-.002l-.049.039a.635.635 0 0 1-.838-.115.624.624 0 0 1 .076-.883l.209.246-.209-.246.002-.002.003-.002.008-.007.028-.022.094-.071a5.063 5.063 0 0 1 1.498-.758M69.515 56.913c.631-.15.966-1.005.747-1.909s-.907-1.515-1.538-1.364-.966 1.004-.747 1.908.907 1.515 1.538 1.365M79.927 54.383c.608-.22.839-1.11.516-1.987-.323-.876-1.078-1.409-1.685-1.188-.608.22-.839 1.11-.516 1.986.323.877 1.078 1.41 1.685 1.189M70.146 61.68a.63.63 0 0 1 .389.135q.03.013.087.03c.157.051.395.116.698.19.603.149 1.412.324 2.23.494a194 194 0 0 0 2.982.593l.207.04.054.01.015.003h.003a.623.623 0 0 1 .443.903l-.928 1.79c-.494.95-1.312 1.734-2.35 2.127l-.054.018c-1.064.386-1.966.223-2.657-.342-.65-.531-1.034-1.353-1.272-2.117-.242-.78-.36-1.592-.42-2.198a14 14 0 0 1-.057-.965l-.001-.06v-.023c0-.347.282-.627.63-.627m.684 1.556c.055.563.162 1.282.369 1.948.213.683.504 1.221.868 1.52.312.254.743.39 1.458.12l.01-.004c.715-.273 1.304-.826 1.669-1.528l.543-1.045-.198-.038c-.615-.12-1.436-.282-2.258-.453-.82-.17-1.648-.35-2.274-.504l-.19-.049z"/><path fill="#2e186a" d="M88.847 42.016c-4.988-4.355-.406-5.174-4.53-9.965-4.123-4.79-10.897-1.468-10.897-1.468a8.9 8.9 0 0 0-2.587-.812c-4.107-.623-7.624-.329-10.654.584a12.2 12.2 0 0 0-2.447-.858c-.029-.008-.056-.011-.085-.019-1.181-3.27-4.164-5.982-8.1-6.907-5.906-1.39-11.719 1.768-12.981 7.05a8.9 8.9 0 0 0-.128 3.491c-2.9-.065-5.473 1.633-6.095 4.234-.422 1.767.15 3.56 1.378 4.916-3.1.714-5.594 2.876-6.308 5.864-.75 3.143.672 6.344 3.369 8.353-2.005.74-3.559 2.296-4.049 4.346-.829 3.47 1.707 7.038 5.663 7.967q.145.034.29.061c-.966.812-1.671 1.886-1.972 3.148-.829 3.47 1.708 7.038 5.663 7.967 3.486.82 6.911-.681 8.243-3.422a10.9 10.9 0 0 0 4.298 2.068c5.627 1.323 11.211-1.887 12.474-7.17a9.3 9.3 0 0 0 .202-3.131 11.5 11.5 0 0 0 1.935-.494 19.8 19.8 0 0 1-2.826-5.038c-3.82 1.05-6.585-1.477-7.097-5.355.775-.938 2.334-1.947 5.476-2.592.402 1.486 1.117 3.613 2.051 4.33l1.724-5.182c5.97-2.041 6.275-6.904 7.509-9.527 1.397-2.97 6.718-.991 8.879-5.742a5 5 0 0 0 .464-1.945c.864 2.02 2.387 4.508 4.969 6.12l.005.007c.796 3.414 1.281 6.542 1.5 9.386l.375-.027a2.59 2.59 0 0 0 2.363-2.052c3.524-2.191 3.84-6.109 1.93-8.19z"/><path fill="#9186af" d="M73.601 30.85a.635.635 0 0 1 .89.06l-.426.37.427-.369.003.003.003.004.012.013.036.044q.044.055.113.15c.09.127.209.307.321.529.221.433.45 1.078.354 1.8-.1.755-.542 1.488-1.466 2.09-.902.589-2.272 1.06-4.287 1.35-3.93.568-5.981 1.502-6.907 2.759-.897 1.218-.88 2.953-.016 5.593a.6.6 0 0 1 .03.147c.12 1.572-.708 2.919-1.813 3.66-1.1.738-2.608.948-3.784.008a.624.624 0 0 1-.096-.881.634.634 0 0 1 .887-.096c.62.496 1.498.459 2.286-.07.766-.514 1.318-1.426 1.263-2.467-.859-2.658-1.048-4.907.224-6.634 1.257-1.707 3.794-2.688 7.745-3.259l.351-.054c1.718-.278 2.782-.684 3.425-1.103.663-.433.861-.866.907-1.208.05-.373-.067-.752-.229-1.07a3 3 0 0 0-.313-.484l-.04-.05a.623.623 0 0 1 .1-.834M59.569 30.508a.627.627 0 1 1 .273 1.224c-6.575 1.446-10.115 5.164-12.455 9.238-1.919 3.338-2.128 8.423-1.086 12.67.518 2.114 1.334 3.962 2.346 5.243 1.013 1.283 2.159 1.93 3.369 1.858a.63.63 0 0 1 .667.59.63.63 0 0 1-.593.661c-1.774.104-3.279-.869-4.436-2.335s-2.034-3.496-2.58-5.72c-1.086-4.431-.917-9.875 1.216-13.588 2.47-4.3 6.273-8.3 13.279-9.841"/><path fill="#ff8d7e" d="M55.947 64.229a2.49 2.49 0 0 0 2.502-2.482c0-1.371-1.12-2.482-2.502-2.482a2.49 2.49 0 0 0-2.502 2.482c0 1.37 1.12 2.482 2.502 2.482M87.891 59.01a2.49 2.49 0 0 0 2.502-2.482c0-1.371-1.12-2.483-2.502-2.483a2.49 2.49 0 0 0-2.501 2.483c0 1.37 1.12 2.482 2.501 2.482"/><path fill="#fff" d="M49.798 107.453a.633.633 0 0 1 .798-.398c.33.109.51.464.4.792-2.197 6.588-4.16 13.168-3.809 20.079.182 1.261.357 2.434.859 3.601l.134.293c.682 1.456 1.522 2.775 2.527 4.105 2.91 3.611 5.806 7.59 8.734 11.35 2.95 3.787 5.963 7.394 9.18 10.361.255.235.27.631.033.885a.634.634 0 0 1-.892.033c-3.294-3.038-6.36-6.711-9.32-10.513-2.976-3.822-5.817-7.732-8.733-11.348l-.011-.016c-1.114-1.474-2.053-2.96-2.806-4.641l-.003-.008c-.584-1.352-.775-2.698-.956-3.954l-.005-.057c-.371-7.18 1.671-13.97 3.87-20.564"/><path fill="#4d4190" d="m222.113 65.173 22.404 9.397a25.45 25.45 0 0 1 13.219 12.664s21.283 28.015 13.964 43.499H150.396l17.455-46.9a11.67 11.67 0 0 1 6.029-6.508l21.558-9.574z"/><path fill="#fff" d="M194.126 158.095h17.883c-.127-6.06-.171-36.613-.04-36.87-2.689-26.727 16.544-53.366 16.544-53.366l-4.888-2.216-27.234 1.654-5.862 2.634 3.648 51.244-.055 36.92z"/><path fill="#9388b1" d="M193.315 110.857c3.608.577 7.003.636 9.858.476a54.4 54.4 0 0 0 8.96-1.27 63 63 0 0 0-.235 2.383 57 57 0 0 1-8.523 1.148 52 52 0 0 1-2.986.087c-2.373 0-4.681-.168-6.913-.499zM200.563 107.958c-2.523 0-4.996-.156-7.407-.461l-.16-2.329c5.251.714 10.136.588 14.114.174a68 68 0 0 0 5.714-.848 66 66 0 0 0-.403 2.388 71 71 0 0 1-5 .709 66 66 0 0 1-6.858.365zM209.095 98.58a71 71 0 0 0 5.273-.701 77 77 0 0 0-.632 2.408 74 74 0 0 1-4.353.547 69 69 0 0 1-6.572.319 61 61 0 0 1-9.744-.76c-.135-.021-.268-.047-.403-.068l-.16-2.35c6.18 1.106 11.98 1.043 16.591.607zM202.483 95.263c-3.203 0-6.667-.29-10.238-1.045l-.162-2.363c6.814 1.551 13.268 1.285 18.197.562a60 60 0 0 0 6.258-1.267q-.46 1.26-.896 2.562a63 63 0 0 1-4.954.94c-2.425.358-5.2.61-8.205.61M209.095 123.55a71 71 0 0 0 5.273-.701 77 77 0 0 0-.632 2.408 75 75 0 0 1-4.353.548 70 70 0 0 1-6.572.318c-3.341 0-6.601-.253-9.744-.759q-.201-.035-.403-.069l-.16-2.35c6.18 1.106 11.98 1.043 16.591.607zM209.095 130.422a70 70 0 0 0 5.273-.702 77 77 0 0 0-.632 2.409 74 74 0 0 1-4.353.547 69 69 0 0 1-6.572.318c-3.341 0-6.601-.253-9.744-.759q-.201-.034-.403-.069l-.16-2.35c6.18 1.107 11.98 1.043 16.591.608zM209.095 137.292a70 70 0 0 0 5.273-.702 78 78 0 0 0-.632 2.408 73 73 0 0 1-4.353.548 69 69 0 0 1-6.572.318c-3.341 0-6.601-.253-9.744-.759q-.201-.035-.403-.069l-.16-2.35c6.18 1.107 11.98 1.043 16.591.608zM209.095 144.163a71 71 0 0 0 5.273-.701 77 77 0 0 0-.632 2.408 75 75 0 0 1-4.353.548 70 70 0 0 1-6.572.318c-3.341 0-6.601-.253-9.744-.759q-.201-.035-.403-.069l-.16-2.35c6.18 1.106 11.98 1.043 16.591.607zM209.095 151.033a71 71 0 0 0 5.273-.701 76 76 0 0 0-.632 2.408 75 75 0 0 1-4.353.548 70 70 0 0 1-6.572.318c-3.341 0-6.601-.253-9.744-.759q-.201-.035-.403-.069l-.16-2.35c6.18 1.106 11.98 1.043 16.591.607zM202.483 120.233c-3.203 0-6.667-.29-10.238-1.045l-.162-2.363c6.814 1.551 13.268 1.285 18.197.562a60 60 0 0 0 6.258-1.267 98 98 0 0 0-.896 2.562 63 63 0 0 1-4.954.94c-2.425.358-5.2.611-8.205.611M191.633 85.283c7.419 1.815 14.764 1.524 20.359.74a73 73 0 0 0 7.192-1.389q-.563 1.261-1.113 2.59a74 74 0 0 1-5.758 1.046 65 65 0 0 1-9.005.647 55 55 0 0 1-6.573-.387 47 47 0 0 1-4.936-.862l-.164-2.387zM191.23 79.433c7.925 1.859 15.763 1.432 21.697.512a77 77 0 0 0 9.581-2.13q-.691 1.303-1.405 2.74a79 79 0 0 1-7.358 1.561c-3.717.6-7.346.902-10.844.902-1.899 0-3.761-.088-5.576-.266a50 50 0 0 1-5.931-.934l-.164-2.383zM190.946 75.279l-.164-2.39c14.312 4.152 28.85.51 35.546-1.716-.521.835-1.115 1.813-1.758 2.923a77 77 0 0 1-9.954 2.191c-2.877.43-6.195.743-9.769.743-4.366 0-9.112-.466-13.899-1.751z"/><path fill="#fff" d="m217.294 52.408 1.567 9.797 4.91 3.944s-6.821 10.142-16.094 12.453c-3.143.782-8.091-.069-9.708-2.855-1.556-2.68-2.051-6.463-2.35-10.96-.151-2.272 21.677-12.378 21.677-12.378z"/><path fill="#2e186a" d="M217.007 51.85a.635.635 0 0 1 .733.114l.002.002c.1.1.161.229.178.365l1.526 9.537 4.722 3.794a.624.624 0 0 1 .128.835l-.525-.348.525.349h-.001l-.001.002-.004.006-.017.025-.062.09-.239.335c-.21.288-.518.7-.916 1.202a43 43 0 0 1-3.41 3.796c-2.896 2.855-7.018 6.06-11.816 7.255-1.683.42-3.813.397-5.735-.09-1.85-.467-3.629-1.396-4.583-2.911l-.09-.148c-1.639-2.823-2.136-6.75-2.434-11.231-.025-.377.173-.706.346-.933.19-.25.456-.509.763-.769.617-.523 1.487-1.124 2.508-1.763 2.048-1.28 4.781-2.766 7.504-4.173a299 299 0 0 1 7.503-3.73c1.024-.493 1.878-.898 2.476-1.18l.694-.325.183-.085.026-.012zm-.379 1.564c-.595.28-1.446.683-2.466 1.174a297 297 0 0 0-7.47 3.714c-2.715 1.403-5.411 2.87-7.414 4.123-1.004.628-1.814 1.19-2.362 1.655a4 4 0 0 0-.576.573 1 1 0 0 0-.089.138c.3 4.49.797 8.115 2.265 10.643l.066.11c.711 1.126 2.123 1.931 3.824 2.361 1.741.44 3.658.452 5.117.089 4.474-1.115 8.4-4.136 11.233-6.93a42 42 0 0 0 3.309-3.682c.365-.46.651-.842.85-1.115l-4.452-3.576a.63.63 0 0 1-.226-.388l-1.435-8.97z"/><path fill="#fff" d="M189.79 31.935c1.525-8.413 12.036-7.32 13.569-7.13 14.128 1.75 14.793 13.525 14.696 16.831l.616.076s-.069.564-.188 1.475c1.828.442 5.122 1.873 4.047 6.4-.814 3.43-3.402 3.74-5.535 3.341-.286 1.517-.578 2.813-.848 3.576-1.087 3.079-1.827 4.438-6.061 7.176-4.235 2.737-13.05 3.713-16.975-1.315-3.636-4.657-3.928-13.047-3.952-14.262-.353-4.66-.371-10.626.634-16.168z"/><path fill="#2e186a" d="M196.417 24.536c3.127-.784 6.234-.45 7.019-.352 7.269.9 11.146 4.404 13.162 8.159 1.796 3.344 2.089 6.836 2.094 8.74l.057.007a.63.63 0 0 1 .553.634l-.005.065v.006l-.003.02-.01.076-.037.295-.069.543c.905.28 2.021.785 2.879 1.7 1.077 1.149 1.667 2.86 1.087 5.302-.444 1.872-1.405 2.984-2.627 3.533-.972.438-2.043.487-3.017.374-.251 1.267-.508 2.368-.757 3.074-.547 1.548-1.032 2.743-1.952 3.897-.914 1.147-2.226 2.215-4.361 3.596-2.235 1.444-5.624 2.4-8.956 2.356s-6.738-1.092-8.861-3.812c-1.912-2.448-2.917-5.83-3.453-8.69a38 38 0 0 1-.631-5.93c-.353-4.67-.373-10.652.631-16.235a.4.4 0 0 1 .009-.07c.822-4.534 4.096-6.498 7.248-7.288m6.863.891c-.747-.092-3.662-.4-6.554.325-2.858.716-5.592 2.403-6.307 6.253q-.002.021-.005.041c-.931 5.13-.975 10.643-.687 15.127l.062.883.001.035c.012.59.089 2.953.611 5.738.524 2.801 1.484 5.944 3.209 8.152l.172.213c1.815 2.155 4.691 3.074 7.709 3.114 3.115.04 6.251-.861 8.25-2.153 2.099-1.357 3.274-2.337 4.061-3.323.78-.98 1.209-2.005 1.75-3.535.252-.712.536-1.965.822-3.484a.633.633 0 0 1 .737-.5c1.008.189 2.039.19 2.886-.19.809-.364 1.549-1.122 1.918-2.68.495-2.083-.024-3.352-.782-4.16-.795-.848-1.934-1.278-2.799-1.486a.627.627 0 0 1-.477-.69l.108-.85a.63.63 0 0 1-.541-.639c.047-1.606-.094-5.25-1.94-8.686-1.824-3.397-5.344-6.655-12.204-7.505"/><path fill="#2e186a" d="M195.586 44.2a.63.63 0 0 1 .722-.52.626.626 0 0 1 .524.718l-1.158 7.22 2.032-.424a.63.63 0 0 1 .748.485.63.63 0 0 1-.488.742l-2.93.61a.627.627 0 0 1-.753-.712zM193.44 44.654c.032-.715-.32-1.31-.786-1.33-.465-.02-.868.542-.9 1.256-.031.715.321 1.31.786 1.33.466.02.868-.542.9-1.256M201.699 44.614c.031-.714-.32-1.31-.786-1.33-.465-.02-.868.543-.9 1.257-.031.714.32 1.31.786 1.33.465.02.868-.542.9-1.257M202.316 38.261c1.356-.357 2.465-.061 3.228.326.378.191.672.406.873.574a4 4 0 0 1 .3.28l.019.02.007.008.003.002v.002h.001l-.316.276.317-.275a.624.624 0 0 1-.06.884.635.635 0 0 1-.891-.058h.001l.002.001v.001l-.006-.006-.034-.035a3 3 0 0 0-.156-.141 3.4 3.4 0 0 0-.635-.417c-.546-.277-1.335-.492-2.331-.23a.627.627 0 1 1-.322-1.212M194 37.322a4.2 4.2 0 0 1 1.343.106l.093.025.028.008.009.002.004.002h.001l-.164.535.165-.535a.626.626 0 1 1-.369 1.198v.001l-.011-.003-.055-.015a2.94 2.94 0 0 0-.933-.076c-.511.045-.977.245-1.2.87a.632.632 0 0 1-1.189-.42c.444-1.244 1.467-1.627 2.278-1.698"/><path fill="#fff" d="M197.836 55.63c2.56 2.776 3.983.294 5.198-1.52a.602.602 0 0 0-.654-.918c-2.294.599-5.408 1.5-4.544 2.437"/><path fill="#2e186a" d="M202.323 52.564c1.062-.192 1.842.99 1.237 1.894-.293.437-.628.96-.99 1.427-.361.467-.79.932-1.302 1.242-.533.321-1.162.477-1.866.299-.593-.15-1.18-.521-1.776-1.109l-.255-.265a1.1 1.1 0 0 1-.312-.81 1.2 1.2 0 0 1 .333-.726c.303-.33.79-.593 1.279-.806 1.009-.44 2.408-.826 3.549-1.124zm.15 1.252c-1.136.297-2.408.655-3.295 1.042-.395.172-.651.324-.787.44.555.58.992.83 1.322.913.321.08.604.023.898-.155.315-.19.631-.512.959-.935.314-.406.602-.854.903-1.305M186.979 29.15c.816-1.74 1.818-2.238 2.705-2.233a9 9 0 0 1 .157-.947c.614-2.768 2.387-5.136 4.818-6.58h-.006s2.983-3.167 12.397-2.494c9.415.67 9.659 6.026 9.659 6.026 4.276 2.865 7.37 6.454 7.6 9.525.645 8.6-3.001 10.69-4.508 11.183a7 7 0 0 0-.483-.19 2 2 0 0 1-.146.339c-5.932-.4-6.247-8.69-8.124-12.675a.81.81 0 0 0-1.133-.354c-2.635 1.478-6.221 1.961-10.472 1.377-4.593-.63-6.648-2.753-7.565-4.435l-.089.093-.126.139-.058.065-.106.127q-.036.042-.073.088a3 3 0 0 0-.091.118 5 5 0 0 0-.16.216l-.086.122-.071.105q-.046.068-.089.139l-.06.1-.093.156-.051.09-.095.178-.042.08-.098.2a9 9 0 0 0-.702 2.23c-.497 2.738-.743 5.58-.823 8.317a.46.46 0 0 1-.339-.11c-1.877-1.488-3.591-6.857-1.651-10.994z"/><path fill="#e0840b" d="M211.055 39.826a.63.63 0 0 1 .654.654c-.096 2.198-.434 4.385-1.397 6.048-.995 1.717-2.634 2.832-5.155 2.875h-.018c-2.412-.027-4.163-.548-5.415-1.368a5.8 5.8 0 0 1-2.34-3c-.372-1.07-.42-2.123-.38-2.897a8.5 8.5 0 0 1 .154-1.217l.017-.077.005-.022.002-.007v-.003s.008 0 .613.152l-.612-.153a.63.63 0 0 1 .587-.473zm-12.728 1.745a7 7 0 0 0-.062.632c-.035.674.01 1.554.312 2.424.299.86.85 1.711 1.842 2.361.997.653 2.489 1.135 4.724 1.16 2.07-.036 3.3-.91 4.074-2.245.721-1.244 1.06-2.922 1.192-4.798z"/><path fill="#e0840b" d="M210.488 40.232a.633.633 0 0 1 .813-.367l6.683 2.496a.625.625 0 0 1 .368.807.63.63 0 0 1-.812.366l-6.683-2.495a.626.626 0 0 1-.369-.807M197.666 43.46a.63.63 0 0 1 .621.636.63.63 0 0 1-.641.617l-1.859-.03a.63.63 0 0 1-.621-.636.63.63 0 0 1 .641-.616z"/><path fill="#e0840b" d="M184.995 41.302c.095.822.143 1.59.203 2.253.08.887.18 1.584.408 2.14.215.525.545.927 1.124 1.222.606.308 1.521.518 2.932.558 2.569.072 4.003-1.456 4.831-3.119a10.4 10.4 0 0 0 .888-2.712zm11.116-.258.628.056v.009l-.002.019-.008.069q-.01.088-.033.247c-.031.21-.082.508-.161.862a11.7 11.7 0 0 1-.91 2.606c-.95 1.907-2.75 3.907-5.999 3.816-1.497-.043-2.627-.266-3.471-.696a3.5 3.5 0 0 1-1.718-1.865c-.306-.747-.417-1.613-.496-2.501-.082-.915-.133-1.87-.292-2.922a.625.625 0 0 1 .645-.719l11.838.39c.34.012.61.289.61.627v.002l-.003.055z"/><path fill="#4d4190" d="m162.982 158.095 17.319-38.387-27.44 5.439-14.558 32.948z"/><path fill="#4d4190" d="m194.054 158.095.045-36.87-1.503-21.003-26.057 20.842v37.031zM211.747 158.095h37.975v-35.461l-35.834-23.448s-1.232 4.715-2.112 11.176-.16 12.273-.16 12.273l.131 35.462z"/><path fill="#4d4190" d="m259.042 158.095 12.658-27.36-24.733-3.999-7.457 31.359z"/><path fill="#2e186a" d="M253.177 117.708a.63.63 0 0 1 .78.431c1.201 4.182-.359 9.007-3.984 11.759a.634.634 0 0 1-.885-.117.623.623 0 0 1 .118-.878c3.214-2.44 4.595-6.734 3.537-10.42a.626.626 0 0 1 .434-.775M238.314 72.429a.631.631 0 0 1 1.212.348c-.412 1.412-.945 2.766-1.482 4.091-.541 1.335-1.084 2.636-1.536 3.982l-.018.049c-.127.293-.235.603-.346.934-.11.325-.224.679-.357 1.025-.267.7-.628 1.432-1.269 2.068a.6.6 0 0 1-.164.117c-.393.194-1.024.418-1.526.43-1.958.139-3.879.276-5.742.583l1.97.989 3.599 1.806a.626.626 0 0 1 .245.9c-1.448 2.223-2.881 4.173-4.16 6.345-1.665 3.12-3.333 5.695-5.164 8.604l-.005.007c-1.943 2.979-2.659 6.124-3.579 9.423-.184 5.083-.367 10.168-.561 15.172a.63.63 0 0 1-.654.602.63.63 0 0 1-.607-.651c.195-5.024.379-10.132.563-15.24l.007-.073a1 1 0 0 1 .016-.072c.906-3.241 1.667-6.641 3.755-9.842 1.842-2.924 3.48-5.454 5.119-8.527l.013-.023c1.178-2 2.527-3.886 3.812-5.823l-2.969-1.49-3.598-1.807h-.002a.626.626 0 0 1 .14-1.169c2.524-.598 5.149-.782 7.714-.964l.045-.002c.203 0 .59-.111.909-.255.42-.442.687-.962.913-1.553.121-.315.224-.635.339-.977.109-.325.227-.665.37-1 .466-1.385 1.025-2.724 1.557-4.035.537-1.325 1.048-2.627 1.441-3.972M177.74 75.413a.63.63 0 0 1 .721.523c.529 3.37.891 6.43 1.62 9.687q.015.067.015.136c0 .082.021.18.064.278a1 1 0 0 0 .041.082c1.431.369 2.812.856 4.152 1.354 1.416.526 2.773 1.058 4.137 1.495h-.001l.024.008a.63.63 0 0 1 .414.602.63.63 0 0 1-.439.583c-1.305.414-2.63.742-3.931 1.065-1.07.265-2.124.53-3.159.839a.8.8 0 0 1-.042.211l-.014.032c.382 1.269.915 2.514 1.477 3.82.669 1.554 1.377 3.19 1.85 4.974l.103.366c.387 1.338.854 2.6 1.349 3.853l.547 1.368.013.034c.11.328.163.649.208.916.047.28.086.506.16.726 1.098 2.91 2.034 5.687 2.413 8.665l.068.399c.667 4.111.5 8.081.628 11.84a.627.627 0 0 1-.609.647.63.63 0 0 1-.652-.604c-.137-4.006.048-7.928-.678-12.067l-.005-.029c-.358-2.843-1.255-5.521-2.355-8.433l-.008-.022c-.11-.327-.162-.649-.207-.915a5 5 0 0 0-.158-.716c-.731-1.813-1.475-3.661-2.035-5.698l-.002-.006c-.445-1.682-1.116-3.237-1.791-4.806-.669-1.555-1.347-3.131-1.755-4.79a.625.625 0 0 1 .417-.745c1.303-.421 2.629-.752 3.931-1.075.664-.165 1.321-.329 1.972-.502-.773-.282-1.546-.576-2.313-.861-1.398-.52-2.795-1.011-4.23-1.367a.64.64 0 0 1-.294-.165 2 2 0 0 1-.551-1.278c-.731-3.288-1.104-6.415-1.621-9.708a.627.627 0 0 1 .526-.716m2.791 16.084a.6.6 0 0 0-.336.293l.321-.108z"/></g></g><defs><clipPath id="a"><path fill="#fff" d="M0 0h284v158.625H0z"/></clipPath><clipPath id="b"><path fill="#fff" d="M24.575-5.013h248.658v163.56H24.575z"/></clipPath></defs></svg>