<svg xmlns="http://www.w3.org/2000/svg" width="222" height="175" fill="none" viewBox="0 0 222 175"><g clip-path="url(#a)"><path fill="#f5f5fe" d="M23.896 173.806s-61.605-58.385 13.02-135.44c50.693-52.347 151.747-49.952 176.47 0 24.72 49.95-11.62 136.264-11.62 136.264l-177.867-.824z"/><path fill="#fff" d="M58.355 173.896V25.628c0-.435.193-.789.434-.789h126.269c.239 0 .435.354.435.789v148.268"/><path stroke="#2e186a" stroke-linecap="round" stroke-linejoin="round" d="M58.355 173.896V25.628c0-.435.193-.789.434-.789h126.269c.239 0 .435.354.435.789v148.268"/><path fill="#dfdfef" d="M102.547 36.989h-32.48v10.53h32.48zM138.517 36.989h-32.481v10.53h32.481zM174.487 36.989h-32.48v10.53h32.48zM102.547 50.758h-32.48v10.53h32.48zM138.517 50.758h-32.481v10.53h32.481z"/><path fill="#e0840b" d="M174.487 50.758h-32.48v10.53h32.48z"/><path fill="#dfdfef" d="M102.547 64.528h-32.48v10.53h32.48zM138.517 64.528h-32.481v10.53h32.481z"/><path fill="#6a6af4" d="M174.487 64.528h-32.48v10.53h32.48z"/><path fill="#dfdfef" d="M102.547 78.297h-32.48v10.53h32.48zM138.517 78.297h-32.481v10.53h32.481z"/><path fill="#e0840b" d="M174.487 78.297h-32.48v10.53h32.48z"/><path fill="#dfdfef" d="M102.547 92.067h-32.48v10.53h32.48zM138.517 92.067h-32.481v10.53h32.481zM174.487 92.067h-32.48v10.53h32.48zM102.547 105.836h-32.48v10.53h32.48zM138.517 105.836h-32.481v10.53h32.481z"/><path fill="#e0840b" d="M174.487 105.836h-32.48v10.53h32.48z"/><path fill="#dfdfef" d="M102.547 119.606h-32.48v10.53h32.48zM139.859 120.956h-32.48v10.53h32.48z"/><path fill="#e0840b" d="M174.487 119.606h-32.48v10.53h32.48z"/><path fill="#dfdfef" d="M102.547 133.375h-32.48v10.53h32.48zM138.517 133.375h-32.481v10.53h32.481z"/><path fill="#6a6af4" d="M174.487 133.375h-32.48v10.53h32.48z"/><path fill="#dfdfef" d="M102.547 147.145h-32.48v10.53h32.48zM138.517 147.145h-32.481v10.53h32.481zM174.487 147.145h-32.48v10.53h32.48z"/><path fill="#ff8d7e" d="M196.555 148.662a1.1 1.1 0 0 1-.376-.95c.765-6.95 3.916-14.104 8.834-16.729 5.052-2.697 8.501 4.79 1.495 11.748-5.272 5.235-8.085 6.088-9.156 6.188a1.07 1.07 0 0 1-.797-.257"/><path stroke="#2e186a" stroke-linecap="round" stroke-linejoin="round" d="M209.112 131.602s-8.843 8.807-12.381 16.804"/><path stroke="#2e186a" stroke-linecap="round" stroke-linejoin="round" d="M207.544 141.157s-3.634-.125-7.551 1.576M203.306 132.471s-4.426 7.886-4.101 11.272M203.11 145.46s-3.315-.124-5.476 1.212"/><path fill="#ff8d7e" d="M190.308 142.307c-.378.259-.81.305-1.151.119-6.596-3.608-12.158-10.338-12.246-17.607-.091-7.47 9.231-9.036 12.597 2.538 2.532 8.71 1.928 12.625 1.474 14.029-.123.381-.368.71-.674.921"/><path stroke="#2e186a" stroke-linecap="round" stroke-linejoin="round" d="M189.885 142.525s-2.687-18.202-10.407-22.352"/><path stroke="#2e186a" stroke-linecap="round" stroke-linejoin="round" d="M177.295 125.94c1.691.756 7.709 3.553 10.004 6.061M189.125 127.268c.239 2.565.478 7.033-.588 8.435M188.893 138.484s-5.943-2.025-8.614-4.174M191.58 153.258s-1.516-5.457-6.131-5.851"/><path fill="#e0840b" d="M186.191 145.55c.137-1.008-.019-1.862-.349-1.907-.331-.046-.71.733-.848 1.741-.138 1.007.018 1.861.348 1.907.331.046.711-.734.849-1.741"/><path fill="#e0840b" d="M185.343 147.298c.194-.24-.234-.912-.955-1.502s-1.463-.874-1.657-.634c-.193.239.235.912.956 1.501.721.59 1.463.874 1.656.635"/><path fill="#e0840b" d="M187.248 146.919c.899-.467 1.503-1.087 1.35-1.385s-1.006-.161-1.904.305c-.898.467-1.503 1.087-1.349 1.385s1.005.162 1.903-.305M184.118 148.597c.818-.444 1.363-1.025 1.217-1.296s-.927-.132-1.745.313c-.818.444-1.362 1.025-1.217 1.296s.928.132 1.745-.313"/><path fill="#e0840b" d="M186.749 150.369c.279-.13.188-.923-.202-1.771-.391-.849-.933-1.431-1.212-1.302-.278.13-.187.923.203 1.771.391.849.933 1.431 1.211 1.302"/><path stroke="#2e186a" stroke-linecap="round" stroke-linejoin="round" d="M200.493 125.697s-10.679 8.491-5.936 27.779"/><path fill="#e0840b" d="M201.919 124.783c.677-1.167.765-2.383.197-2.717s-1.579.341-2.256 1.508-.765 2.383-.197 2.717 1.578-.341 2.256-1.508"/><path fill="#e0840b" d="M201.961 127.422c1.343-.027 2.421-.585 2.408-1.247s-1.112-1.177-2.455-1.15-2.421.585-2.408 1.247 1.112 1.177 2.455 1.15"/><path fill="#e0840b" d="M199.5 126.299c.468-.357.261-1.426-.464-2.387-.724-.962-1.691-1.452-2.158-1.095-.468.356-.261 1.425.464 2.386.724.962 1.691 1.452 2.158 1.096"/><path fill="#e0840b" d="M200.366 128.23c.497-1.098.466-2.187-.068-2.431-.535-.244-1.371.448-1.867 1.546s-.466 2.186.069 2.431c.534.244 1.37-.448 1.866-1.546"/><path fill="#e0840b" d="M198.675 127.214c1.077-.115 1.904-.638 1.848-1.169s-.974-.868-2.05-.754c-1.076.115-1.903.638-1.847 1.169.055.531.973.868 2.049.754"/><path fill="#fff" stroke="#2e186a" stroke-linecap="round" stroke-linejoin="round" d="m204.444 154.454-4.458 20.084h-14.171l-4.459-20.084c-.255-1.148.465-2.276 1.455-2.276h20.179c.99 0 1.709 1.125 1.454 2.276"/><path fill="#6a6af4" d="m22.895 120.254 67.844.499a2.81 2.81 0 0 1 2.52 1.618l21.88 45.123 42.936.041s.958 6.323-7.052 6.714l-32.657-.105.094.192-74.705-.262-23.421-49.786c-.886-1.885.491-4.05 2.563-4.037z"/><path stroke="#fff" stroke-linecap="round" stroke-linejoin="round" d="m48.624 173.396-23.07-49.108c-.885-1.885.492-4.05 2.564-4.037"/><path fill="#fff" d="m108.001 165.353-56.105-.286a5.17 5.17 0 0 1-4.622-2.921l-16.898-36.004c-.725-1.476.402-3.175 2.099-3.161l55.603.41a2.32 2.32 0 0 1 2.067 1.269l19.558 37.972c.615 1.261-.303 2.732-1.699 2.724z"/><path fill="#e0840b" d="M62.123 174.212H30.225v-1.094c0-3.207 2.59-5.813 5.78-5.813h20.339c3.189 0 5.779 2.606 5.779 5.813z"/><path stroke="#2e186a" stroke-linecap="round" stroke-linejoin="round" d="M20.809 174.279h180.924"/></g><defs><clipPath id="a"><path fill="#fff" d="M0 0h222v175H0z"/></clipPath></defs></svg>