<?xml version="1.0" encoding="UTF-8"?>
<svg id="Calque_1" xmlns="http://www.w3.org/2000/svg" version="1.1" viewBox="0 0 1120.8 498.2">
  <!-- Generator: Adobe Illustrator 29.7.1, SVG Export Plug-In . SVG Version: 2.1.1 Build 8)  -->
  <path d="M48.9,0l-.2,109.8c17-32.3,55.6-44.6,90.1-35.8,31.2,7.9,42.7,34.4,44.1,64.3v131.2h-47.3l-.7-1.7v-120.9c-1.5-25.4-15.7-34.9-40.4-30.8-27.8,4.7-44.1,30.4-45.5,57.1s1.3,63.4,0,94.5l-.7,1.7H1.2l-.7-.7V20.9C.5,13,7.4,4,14.7,1.6l5.4-1.6h28.8Z"/>
  <path d="M534,0v210.3c1,9.5,3.3,18.2,13.8,20.3s8.4.3,13.1.1v42.2c-17.5,2.1-36,1.6-51.7-7.1-18.2-10.2-21.9-30.9-23.2-50.2V20.9c.7-7.9,5-14.4,11.9-18.4l7.8-2.5h28.3Z"/>
  <path d="M444.3,0v207.9c.7,7.2,1.4,15.8,8,20.3s12.5,2.7,18.9,2.5v42.2c-18.3,2.1-38.5,1.6-54.4-8.7s-19.8-34.7-20.5-53.4c.4-64.4-.8-128.9.6-193.2,1.5-7.3,6.7-13.5,13.7-16.1l5.4-1.6h28.3Z"/>
  <path d="M562.8,303.1l-59.7,193.3-49-.5-33.6-109.8-34,109.8-49.7.3-51.1-166.7c-3.3-12.3,5.6-25.2,18.3-26.4,7.9-.7,16.7.5,24.7,0l33.1,110.7,32.7-110.7h51.7s33.1,110.7,33.1,110.7l32.6-110.8h50.9Z"/>
  <path d="M987.9,227.3v143.4l54-67.6h59.3l-60.9,77.9,80,115.4h-58.3l-53.7-75.8-20.4,25.7v50.1h-48.5v-249.6c0-7.9,10.5-19.4,18.5-19.4h30Z"/>
  <path d="M380.5,181.7h-133.4c2,27.9,22.7,47.7,50.1,50.8,16.7,1.9,38.2-4,52.5-12.7,1.5-.9,11-8.3,11.5-7.9l18,34.5c-14.6,12-32.6,20.6-51.2,24.6-76.7,16.4-139.9-36.8-129.4-115.9,7.6-57.2,57.2-91.3,113.8-82.7,36.3,5.5,60.7,33.2,67.2,68.5,2.5,13.6,2,27.1.7,40.8ZM333,148.7c.5-17.8-9.9-34.9-27.9-39-10.9-2.5-24-1-33.8,4.4s-20.3,20.4-22.7,34.6h84.4Z"/>
  <path d="M793.1,269.5h-47.5c.3-26.1-17.5-49.8-42.5-57s-27.7-3.4-39.9.8c-23.6,8.1-40.1,31.2-39.9,56.2h-47.5c-.4-53.2,39.7-99,92.4-105.9s37.9-.9,55.6,5.7c41.1,15.2,70.2,56,69.3,100.2Z"/>
  <path d="M623.3,390.8c-.2,27.1,19.2,51.8,45.7,57.7,17.9,4,36.8,1.3,51.9-9.4,15.3-10.8,25-29.4,24.8-48.3h47.5c.9,47.6-32.8,90.9-78.5,103.1-24.2,6.4-51.9,4.8-74.9-5.2-38.5-16.7-64.4-55.8-64-97.9h47.5Z"/>
  <path d="M924.6,301.1v47.5c-23.1-4.2-45,5.2-57.3,25s-9.7,23.9-10.8,37.1v85.6h-48.5v-173.4c0-8.2,10.5-19.9,19-19.9h27.6c-.2,15.4.7,30.9-1,46.3l1,.7c5.6-18.8,19.3-36.7,37.6-44.7,10.3-4.5,21.3-6,32.5-4.2Z"/>
</svg>