<?xml version="1.0" encoding="UTF-8"?>
<svg id="Calque_1" xmlns="http://www.w3.org/2000/svg" version="1.1" viewBox="0 0 500 269">
  <!-- Generator: Adobe Illustrator 29.7.1, SVG Export Plug-In . SVG Version: 2.1.1 Build 8)  -->
  <defs>
    <style>
      .st0 {
        fill: #fc0;
      }

      .st1 {
        fill-rule: evenodd;
      }

      .st1, .st2 {
        fill: #00b5dd;
      }
    </style>
  </defs>
  <path class="st2" d="M0,82.9h19.4c3.8,0,7.1,2.6,8.1,6.3l11.4,45.3h.3l11.4-45.3c1-3.7,4.3-6.3,8.1-6.3h19.4v120.3h-17.8v-91.2l-14,50.2h-14.4l-14-50.2v91.2H0v-120.3Z"/>
  <path class="st1" d="M253,185.7h-32.6v-36.9h16.6c5.2,0,9.3-4.1,9.3-9.3v-7.8h-25.9v-31.7h23.3c5.1,0,9.3-4.1,9.3-9.3v-7.8h-51.4v115.3c1.6,1.5,3.1,3.2,4.3,5h37.8c5.2,0,9.3-4.5,9.3-9.6v-7.8Z"/>
  <path class="st0" d="M204.6,227.3c.8-2.4,1.2-4.9,1.2-7.4,0-12.4-10.1-22.4-22.6-22.4s-10.8,2.1-14.8,5.6c-3.4-8.7-11.8-14.4-21.1-14.4-12.4,0-22.6,10.1-22.6,22.4s.2,2.2.3,3.3h-.3c-12.5,0-22.6,10-22.6,22.4s10.1,22.4,22.6,22.4,8-1.1,11.4-3.1c3.8,7.1,11.3,11.9,20,11.9s13.6-3.4,17.7-8.6c4.1,5.2,10.6,8.6,17.7,8.6,12.5,0,22.6-10,22.6-22.4s-3.9-14.3-9.6-18.4h0ZM388.4,57.9c0,3.4.4,6.7,1.2,9.8h76.5c.8-3.2,1.2-6.5,1.2-9.8,0-21.8-17.6-39.4-39.4-39.4s-39.5,17.6-39.5,39.4ZM430.2,13.4h-4.9V0h4.9v13.4ZM408.6,17.7l-5.1-12.4,4.5-1.9,5.1,12.3-4.5,1.9ZM394.6,28.1l-9.5-9.5,3.4-3.4,9.5,9.4-3.4,3.5ZM385.7,43l-12.3-5.1,1.9-4.5,12.3,5.1-1.9,4.5h0ZM369.8,60.3v-4.9h13.4v4.8h-13.4ZM447,17.7l-4.5-1.9,5.1-12.3,4.6,1.9-5.2,12.4ZM460.9,28.1l-3.4-3.5,9.5-9.4,3.4,3.4-9.5,9.5h0ZM469.8,43l-1.9-4.5,12.3-5.1,1.9,4.5-12.3,5.1ZM485.7,60.3h-13.4v-4.9h13.4v4.9Z"/>
  <path class="st2" d="M356.7,67.9v-17.2h-9.5c-5.1,0-9.3,4.2-9.3,9.3v7.8h18.9Z"/>
  <path class="st2" d="M337.8,82.9v124.9c0,3.9-.9,6.8-2.7,8.6-1.8,1.9-4.6,2.8-8.4,2.8s-4.4-.2-6.2-.7v17.2c2.4.5,5.3.7,8.7.7,9.3,0,16.2-2.4,20.6-7.2,4.5-4.8,6.8-12.1,6.8-22v-124.3h-18.9Z"/>
  <path class="st1" d="M133.7,185.7h-19.3v-36.9h16.6c5.1,0,9.3-4.1,9.3-9.3v-7.8h-25.9v-31.7h23.3c5.1,0,9.3-4.1,9.3-9.3h0v-7.8h-51.4v120.3h25.4c1.6-7.4,6.4-13.8,12.8-17.5Z"/>
  <path class="st1" d="M164.8,189.1v-121.2h-25.3v-7.8c0-5.1,4.2-9.3,9.3-9.3h60.1c0,0,0,7.8,0,7.8,0,5.2-4.1,9.3-9.3,9.3h-16v123.4c-5.1,0-9.8,1.5-13.9,3.9-1.4-2.3-3.1-4.3-5-6.1h0Z"/>
  <path class="st2" d="M316.7,89.8c-4.9-5.2-12-7.8-21.3-7.8s-16.3,2.6-21.3,7.8c-4.9,5.2-7.4,12.7-7.4,22.3v61.6c0,9.6,2.5,17,7.4,22.3,4.9,5.2,12,7.8,21.3,7.8s16.4-2.6,21.3-7.8c4.9-5.3,7.4-12.7,7.4-22.3v-61.6c0-9.6-2.5-17.1-7.4-22.3ZM305.2,174.9c0,7.9-3.3,11.8-9.8,11.8s-9.8-3.9-9.8-11.8v-64c0-7.9,3.3-11.8,9.8-11.8s9.8,3.9,9.8,11.8v64Z"/>
  <path class="st2" d="M420.4,89.8c-4.9-5.2-12-7.8-21.3-7.8s-16.3,2.6-21.3,7.8c-4.9,5.2-7.3,12.7-7.3,22.3v61.6c0,9.6,2.4,17,7.3,22.3,4.9,5.2,12,7.8,21.3,7.8s16.4-2.6,21.3-7.8c4.9-5.3,7.4-12.7,7.4-22.3v-61.6c0-9.6-2.5-17.1-7.4-22.3ZM399.1,186.7c-6.5,0-9.7-3.9-9.7-11.8v-64c0-7.9,3.2-11.8,9.7-11.8s9.8,3.9,9.8,11.8v64h0c0,7.9-3.3,11.8-9.8,11.8Z"/>
  <path class="st2" d="M485.8,139.2v-.4c4.1-1.7,7.2-4.5,9.2-8.4,2-3.9,3-8.9,3-15.1v-4.8c0-9.4-2.2-16.3-6.7-20.8-4.5-4.5-11.6-6.8-21.3-6.8h-21.9c-3.6,0-6.5,2.9-6.5,6.5v113.5h29.6c9.3,0,16.5-2.4,21.3-7.3,4.9-4.9,7.3-11.9,7.3-21.2v-10.3c0-13.5-4.7-21.8-14.1-25ZM460.5,100.2h9.1c3.3,0,5.7,1,7.2,2.9,1.5,1.9,2.3,5.1,2.3,9.4v6.7c0,4.5-.9,7.8-2.8,9.8-1.9,1.9-4.7,2.9-8.5,2.9h-7.3v-31.7ZM481,174.1c0,4.4-.8,7.4-2.4,9.2-1.6,1.8-4,2.6-7.3,2.6h0s-10.8,0-10.8,0v-36.9h8.4c4.3,0,7.5,1.1,9.3,3.2,1.9,2.1,2.8,5.9,2.8,11.4v10.5Z"/>
</svg>