<svg width="100" height="30" viewBox="0 0 100 30" fill="none" xmlns="http://www.w3.org/2000/svg">
<g clip-path="url(#clip0_7230_4933)">
<path d="M50.2505 13.561C51.127 13.5826 51.9987 13.4269 52.813 13.1033C53.6273 12.7797 54.3673 12.295 54.9883 11.6785C55.6092 11.062 56.0982 10.3264 56.4256 9.51633C56.7531 8.70622 56.9122 7.83837 56.8934 6.96526C56.8068 5.26843 56.0692 3.66957 54.8329 2.49907C53.5966 1.32856 51.9562 0.675873 50.2505 0.675873C48.5449 0.675873 46.9045 1.32856 45.6682 2.49907C44.4319 3.66957 43.6942 5.26843 43.6077 6.96526C43.5901 7.83805 43.75 8.70535 44.0779 9.51491C44.4058 10.3245 44.8948 11.0595 45.5155 11.6758C46.1362 12.2921 46.8757 12.7768 47.6895 13.1008C48.5032 13.4248 49.3744 13.5814 50.2505 13.561ZM50.2505 3.02915C52.4191 3.02915 53.992 4.68129 53.992 6.96526C53.992 9.24923 52.4191 10.8971 50.2505 10.8971C48.082 10.8971 46.5134 9.24496 46.5134 6.96526C46.5134 4.68556 48.0734 3.02915 50.2505 3.02915Z" fill="black"/>
<path d="M61.7363 4.88194L66.9134 13.2152H70.3634V0.711029H67.5305V9.04431L62.3577 0.711029H58.9077V13.2152H61.7363V4.88194Z" fill="black"/>
<path d="M48.6777 16.5152L43.942 29.0194H46.942L48.1077 25.8603H52.7405L53.9062 29.0194H56.9062L52.162 16.5152H48.6777ZM51.8362 23.4184H49.0034L50.422 19.5506L51.8362 23.4184Z" fill="black"/>
<path d="M61.8863 18.6754C62.6705 18.6754 63.4205 19.1536 64.1834 20.1354L64.3034 20.2849L66.382 18.4107L66.2705 18.2955C65.7485 17.6293 65.0806 17.0908 64.3178 16.7209C63.555 16.3509 62.7175 16.1594 61.8691 16.1609C59.5205 16.1609 57.7505 17.749 57.7505 19.8622C57.7505 22.3426 59.692 23.1921 61.252 23.8752C62.3448 24.3533 63.292 24.7717 63.292 25.5828C63.292 26.3513 62.7863 26.7952 61.9034 26.7952C61.394 26.7688 60.8974 26.6265 60.4517 26.3793C60.006 26.1322 59.623 25.7867 59.332 25.3694L59.212 25.2157L57.1505 27.1112L57.2577 27.2435C57.8145 27.9409 58.5293 28.4968 59.3436 28.8656C60.1579 29.2344 61.0484 29.4057 61.942 29.3652C64.402 29.3652 66.1463 27.7857 66.1805 25.5231C66.1805 22.9957 64.222 22.1462 62.6534 21.4631C61.5734 20.9935 60.6391 20.6093 60.6391 19.7555C60.6472 19.6021 60.6861 19.4518 60.7537 19.3138C60.8213 19.1757 60.9161 19.0526 61.0325 18.9518C61.1489 18.851 61.2845 18.7745 61.4312 18.7271C61.5778 18.6796 61.7326 18.662 61.8863 18.6754Z" fill="black"/>
<path d="M67.0591 19.1109H70.822V29.0194H73.6505V19.1109H77.4134V16.5152H67.0591V19.1109Z" fill="black"/>
<path d="M79.2348 29.0194H86.7005V26.6159H82.0677V23.8453H86.0063V21.4461H82.0677V18.9187H86.7005V16.5152H79.2348V29.0194Z" fill="black"/>
<path d="M95.7648 23.5294C96.3554 23.2318 96.8469 22.7704 97.18 22.2007C97.513 21.631 97.6735 20.9775 97.642 20.319C97.642 17.971 95.9277 16.5152 93.1291 16.5152H89.2205V29.0194H92.0534V24.1057H93.0477L96.3091 29.0194H99.6563L95.7648 23.5294ZM94.7448 20.2849C94.7448 21.1856 94.2048 21.7022 93.2663 21.7022H92.0534V18.9187H93.2663C94.1791 18.9187 94.7448 19.4438 94.7448 20.2849Z" fill="black"/>
<path d="M0.65625 15.4821V19.3286L13.2905 24.0075V20.8612L4.09339 17.4075L13.2905 13.9495V10.8074L0.65625 15.4821Z" fill="#34CB6A"/>
<path d="M0.65625 10.4488V14.2953L13.2905 18.97V15.8279L4.09339 12.3699L13.2905 8.91624V5.76991L0.65625 10.4488Z" fill="black"/>
<path d="M0.65625 20.5026V24.349L13.2905 29.028V25.8816L4.09339 22.4237L13.2905 18.97V15.8279L0.65625 20.5026Z" fill="black"/>
<path d="M0.65625 5.42839V9.27485L13.2905 13.9495V10.8075L4.09339 7.34948L13.2905 3.89578V0.753723L0.65625 5.42839Z" fill="#34CB6A"/>
<path d="M38.2934 0.693954H34.4362L31.3162 9.04858L28.2005 0.693954H24.3434L19.6462 13.2793H22.8048L26.272 4.11777L29.7391 13.275V13.2793H32.8977L36.3648 4.11777L39.832 13.2793H42.9905L38.2934 0.693954Z" fill="black"/>
<path d="M38.2934 16.4982H34.4362L31.3162 24.8485L28.2005 16.4982H24.3434L19.6462 29.0792H22.8048L26.272 19.922L29.7391 29.0792H32.8977L36.3648 19.922L39.832 29.0792H42.9905L38.2934 16.4982Z" fill="black"/>
</g>
<defs>
<clipPath id="clip0_7230_4933">
<rect width="99" height="29" fill="white" transform="translate(0.65625 0.365234)"/>
</clipPath>
</defs>
</svg>
