<svg width="132" height="20" viewBox="0 0 132 20" fill="none" xmlns="http://www.w3.org/2000/svg">
<g clip-path="url(#clip0_7230_4948)">
<path d="M100.254 4.4875C99.6237 4.20884 99.1782 3.889 99.1782 3.36334C99.1782 2.83767 99.528 2.43867 100.254 2.36584C100.327 2.3595 100.396 2.35 100.475 2.35C101.333 2.35 102.056 2.89784 102.627 3.57234L104.471 2.01117C103.679 0.978837 102.142 0.196671 100.452 0.196671C100.383 0.196671 100.32 0.203004 100.254 0.203004C98.0529 0.282171 96.4986 1.66284 96.4986 3.48367C96.4986 5.884 98.6898 6.454 100.254 7.04617C101.119 7.3755 101.795 7.71117 101.795 8.373C101.795 9.03484 101.333 9.50984 100.432 9.50984C100.373 9.50984 100.313 9.50034 100.254 9.49717C99.2871 9.43384 98.5248 8.87334 97.8846 8.0975L96.0399 9.69984C97.053 10.8557 98.3961 11.5935 100.257 11.6505C100.333 11.6505 100.403 11.66 100.478 11.66C102.564 11.66 104.432 10.4377 104.478 8.202C104.478 5.59584 101.805 5.15884 100.257 4.478L100.254 4.4875Z" fill="#000091"/>
<path d="M22.275 14.1585H24.3111V14.5733H22.7832V15.7387H24.0933V16.1503H22.7832V17.3822H24.3111V17.797H22.275V14.1553V14.1585Z" fill="#000091"/>
<path d="M25.1262 15.1782H25.5882V15.4758C25.8093 15.2415 26.0931 15.0768 26.499 15.0768C27.1128 15.0768 27.5682 15.4727 27.5682 16.2168V17.8033H27.1062V16.2327C27.1062 15.764 26.829 15.4948 26.4066 15.4948C26.0106 15.4948 25.7631 15.7133 25.5882 15.9888V17.8033H25.1262V15.1813V15.1782Z" fill="#000091"/>
<path d="M28.5945 15.5772H28.0797V15.1782H28.5945V14.5227H29.0598V15.1782H30.0069V15.5772H29.0598V16.9198C29.0598 17.3315 29.2776 17.4455 29.6076 17.4455C29.7858 17.4455 29.9112 17.4233 30.0135 17.3822V17.778C29.8848 17.8287 29.7363 17.8508 29.5416 17.8508C28.9344 17.8508 28.5945 17.5595 28.5945 16.9198V15.5772Z" fill="#000091"/>
<path d="M30.6603 15.1782H31.1223V15.5043C31.3236 15.2763 31.5711 15.1243 31.9176 15.1243C32.0034 15.1243 32.0859 15.1338 32.1519 15.156V15.5867C32.0694 15.5645 31.9902 15.555 31.8813 15.555C31.5249 15.555 31.2906 15.7323 31.1223 15.9983V17.797H30.6603V15.175V15.1782Z" fill="#000091"/>
<path d="M33.8514 17.9015C32.9307 17.9015 32.3598 17.2523 32.3598 16.486C32.3598 15.7197 32.8911 15.0705 33.7359 15.0705C34.4784 15.0705 34.9602 15.555 34.9602 16.2105C34.9602 16.315 34.9437 16.4195 34.9272 16.4923H32.8284C32.8449 17.1225 33.2607 17.5025 33.8481 17.5025C34.2012 17.5025 34.4982 17.3473 34.6764 17.113L35.0163 17.3663C34.7622 17.6925 34.3563 17.9015 33.8448 17.9015H33.8514ZM32.8647 16.1535H34.5015C34.485 15.7672 34.1913 15.4473 33.7359 15.4473C33.2805 15.4473 32.9604 15.7007 32.8647 16.1535Z" fill="#000091"/>
<path d="M35.4453 17.398L37.0557 15.5772H35.4849V15.1782H37.62V15.5772L36.0063 17.398H37.6596V17.797H35.4486V17.398H35.4453Z" fill="#000091"/>
<path d="M40.9266 15.0737C41.3325 15.0737 41.6526 15.2257 41.8968 15.4885V13.8957H42.3588V17.797H41.8968V17.4835C41.6526 17.7495 41.3325 17.8983 40.9266 17.8983C40.0719 17.8983 39.5241 17.2492 39.5241 16.4828C39.5241 15.7165 40.0719 15.0673 40.9266 15.0673V15.0737ZM40.9794 17.4867C41.3589 17.4867 41.6955 17.3093 41.8968 17.0022V15.973C41.6856 15.6595 41.3556 15.4885 40.9794 15.4885C40.3986 15.4885 40.0092 15.9318 40.0092 16.486C40.0092 17.0402 40.3986 17.4835 40.9794 17.4835V17.4867Z" fill="#000091"/>
<path d="M43.1178 17.1384C43.1178 16.7425 43.4313 16.4607 44.0121 16.3689L44.9328 16.2232V16.0427C44.9328 15.6785 44.6622 15.4695 44.2728 15.4695C43.9593 15.4695 43.7052 15.6089 43.5369 15.8337L43.1904 15.5772C43.428 15.2669 43.8141 15.0737 44.2893 15.0737C44.9823 15.0737 45.3948 15.4632 45.3948 16.0395V17.797H44.9328V17.4709C44.7282 17.7242 44.3817 17.8699 44.0154 17.8699C43.4775 17.8699 43.1145 17.5849 43.1145 17.1352L43.1178 17.1384ZM44.0946 17.5089C44.4576 17.5089 44.7546 17.341 44.9361 17.0624V16.5462L44.1276 16.676C43.7547 16.7394 43.5864 16.9009 43.5864 17.1225C43.5864 17.3442 43.7745 17.5089 44.0946 17.5089Z" fill="#000091"/>
<path d="M46.266 15.1782H46.728V15.4758C46.9491 15.2415 47.2329 15.0768 47.6388 15.0768C48.2526 15.0768 48.708 15.4727 48.708 16.2168V17.8033H48.246V16.2327C48.246 15.764 47.9688 15.4948 47.5464 15.4948C47.1504 15.4948 46.9029 15.7133 46.728 15.9888V17.8033H46.266V15.1813V15.1782Z" fill="#000091"/>
<path d="M49.6089 17.1732C49.797 17.4012 50.0247 17.531 50.3019 17.531C50.6055 17.531 50.7804 17.3537 50.7804 17.1257C50.7804 16.5367 49.4142 16.7457 49.4142 15.821C49.4142 15.4094 49.7772 15.0737 50.3019 15.0737C50.6913 15.0737 51.0279 15.251 51.2193 15.5044L50.8992 15.764C50.754 15.5677 50.5461 15.441 50.3085 15.441C50.0148 15.441 49.8597 15.6089 49.8597 15.8115C49.8597 16.4005 51.2292 16.2105 51.2292 17.1067C51.2226 17.5944 50.8167 17.9015 50.3085 17.9015C49.8762 17.9015 49.533 17.7337 49.2855 17.4392L49.6122 17.1732H49.6089Z" fill="#000091"/>
<path d="M53.3313 13.8988H53.7933V17.8002H53.3313V13.8988Z" fill="#000091"/>
<path d="M55.473 14.1585L55.011 15.5518H54.4863L55.044 14.1585H55.473Z" fill="#000091"/>
<path d="M57.1197 17.9015C56.199 17.9015 55.6281 17.2523 55.6281 16.486C55.6281 15.7197 56.1594 15.0705 57.0042 15.0705C57.7467 15.0705 58.2285 15.555 58.2285 16.2105C58.2285 16.315 58.212 16.4195 58.1955 16.4923H56.0967C56.1132 17.1225 56.529 17.5025 57.1164 17.5025C57.4695 17.5025 57.7665 17.3473 57.9447 17.113L58.2846 17.3663C58.0305 17.6925 57.6246 17.9015 57.1131 17.9015H57.1197ZM56.133 16.1535H57.7698C57.7533 15.7672 57.4596 15.4473 57.0042 15.4473C56.5488 15.4473 56.2287 15.7007 56.133 16.1535Z" fill="#000091"/>
<path d="M58.9545 15.1782H59.4165V15.4758C59.6376 15.2415 59.9214 15.0768 60.3273 15.0768C60.9411 15.0768 61.3965 15.4727 61.3965 16.2168V17.8033H60.9345V16.2327C60.9345 15.764 60.6573 15.4948 60.2349 15.4948C59.8389 15.4948 59.5914 15.7133 59.4165 15.9888V17.8033H58.9545V15.1813V15.1782Z" fill="#000091"/>
<path d="M62.3007 17.1732C62.4888 17.4012 62.7165 17.531 62.9937 17.531C63.2973 17.531 63.4722 17.3537 63.4722 17.1257C63.4722 16.5367 62.106 16.7457 62.106 15.821C62.106 15.4094 62.469 15.0737 62.9937 15.0737C63.3831 15.0737 63.7197 15.251 63.9111 15.5044L63.591 15.764C63.4458 15.5677 63.2379 15.441 63.0003 15.441C62.7066 15.441 62.5515 15.6089 62.5515 15.8115C62.5515 16.4005 63.921 16.2105 63.921 17.1067C63.9144 17.5944 63.5085 17.9015 63.0003 17.9015C62.568 17.9015 62.2248 17.7337 61.9773 17.4392L62.304 17.1732H62.3007Z" fill="#000091"/>
<path d="M65.8383 17.9015C64.9176 17.9015 64.3467 17.2523 64.3467 16.486C64.3467 15.7197 64.878 15.0705 65.7228 15.0705C66.4653 15.0705 66.9471 15.555 66.9471 16.2105C66.9471 16.315 66.9306 16.4195 66.9141 16.4923H64.8153C64.8318 17.1225 65.2476 17.5025 65.835 17.5025C66.1881 17.5025 66.4851 17.3473 66.6633 17.113L67.0032 17.3663C66.7491 17.6925 66.3432 17.9015 65.8317 17.9015H65.8383ZM64.8516 16.1535H66.4884C66.4719 15.7672 66.1782 15.4473 65.7228 15.4473C65.2674 15.4473 64.9473 15.7007 64.8516 16.1535Z" fill="#000091"/>
<path d="M67.5807 14.1838C67.5807 14.016 67.7259 13.8767 67.9074 13.8767C68.0889 13.8767 68.2275 14.016 68.2275 14.1838C68.2275 14.3517 68.0856 14.4942 67.9074 14.4942C67.7292 14.4942 67.5807 14.3548 67.5807 14.1838ZM67.6731 15.1782H68.1351V17.8002H67.6731V15.1782Z" fill="#000091"/>
<path d="M69.1482 17.6102C69.0228 17.5152 68.9601 17.3758 68.9601 17.2365C68.9601 17.0275 69.0723 16.8565 69.2868 16.7267C69.0492 16.5557 68.9073 16.2897 68.9073 15.9983C68.9073 15.4948 69.3198 15.0673 69.9699 15.0673C70.1712 15.0673 70.3494 15.1085 70.4946 15.175H71.5077V15.5613H70.917C70.9929 15.6912 71.0292 15.8432 71.0292 15.9983C71.0292 16.4987 70.6233 16.923 69.9666 16.923C69.8313 16.923 69.7026 16.9008 69.5871 16.8723C69.4749 16.9515 69.4089 17.0433 69.4089 17.1415C69.4089 17.2523 69.4683 17.3283 69.6366 17.3283H70.4154C71.1348 17.3283 71.4714 17.6672 71.4714 18.1358C71.4714 18.6868 70.8972 19.0985 70.0788 19.0985C69.2604 19.0985 68.739 18.7977 68.739 18.272C68.739 18.006 68.8743 17.7938 69.1449 17.6102H69.1482ZM70.0755 18.728C70.6497 18.728 71.0127 18.5095 71.0127 18.1675C71.0127 17.9173 70.8675 17.721 70.3791 17.721H69.5376C69.3033 17.8572 69.1911 18.0123 69.1911 18.2213C69.1911 18.538 69.531 18.7312 70.0755 18.7312V18.728ZM70.5969 15.9983C70.5969 15.6753 70.3692 15.4157 69.9732 15.4157C69.5772 15.4157 69.3429 15.6753 69.3429 15.9983C69.3429 16.3213 69.564 16.5747 69.9732 16.5747C70.3824 16.5747 70.5969 16.315 70.5969 15.9983Z" fill="#000091"/>
<path d="M72.0159 15.1782H72.4779V15.4758C72.699 15.2415 72.9828 15.0768 73.3887 15.0768C74.0025 15.0768 74.4579 15.4727 74.4579 16.2168V17.8033H73.9959V16.2327C73.9959 15.764 73.7187 15.4948 73.2963 15.4948C72.9003 15.4948 72.6528 15.7133 72.4779 15.9888V17.8033H72.0159V15.1813V15.1782Z" fill="#000091"/>
<path d="M76.5831 17.9015C75.6624 17.9015 75.0915 17.2523 75.0915 16.486C75.0915 15.7197 75.6228 15.0705 76.4676 15.0705C77.2101 15.0705 77.6919 15.555 77.6919 16.2105C77.6919 16.315 77.6754 16.4195 77.6589 16.4923H75.5601C75.5766 17.1225 75.9924 17.5025 76.5798 17.5025C76.9329 17.5025 77.2299 17.3473 77.4081 17.113L77.748 17.3663C77.4939 17.6925 77.088 17.9015 76.5765 17.9015H76.5831ZM75.5964 16.1535H77.2332C77.2167 15.7672 76.923 15.4473 76.4676 15.4473C76.0122 15.4473 75.6921 15.7007 75.5964 16.1535Z" fill="#000091"/>
<path d="M78.4212 15.1782H78.8832V15.4632C79.0878 15.2352 79.3617 15.0737 79.7379 15.0737C80.1141 15.0737 80.4573 15.2447 80.6256 15.5772C80.8434 15.2922 81.1305 15.0737 81.6024 15.0737C82.1865 15.0737 82.6155 15.4474 82.6155 16.1599V17.797H82.1535V16.1757C82.1535 15.7387 81.8994 15.4885 81.51 15.4885C81.1635 15.4885 80.9193 15.6754 80.7411 15.9825C80.7477 16.0395 80.751 16.0965 80.751 16.1599V17.797H80.289V16.1757C80.289 15.7387 80.0382 15.4885 79.6455 15.4885C79.2726 15.4885 79.0383 15.7134 78.8799 15.9825V17.797H78.4179V15.175L78.4212 15.1782Z" fill="#000091"/>
<path d="M84.744 17.9015C83.8233 17.9015 83.2524 17.2523 83.2524 16.486C83.2524 15.7197 83.7837 15.0705 84.6285 15.0705C85.371 15.0705 85.8528 15.555 85.8528 16.2105C85.8528 16.315 85.8363 16.4195 85.8198 16.4923H83.721C83.7375 17.1225 84.1533 17.5025 84.7407 17.5025C85.0938 17.5025 85.3908 17.3473 85.569 17.113L85.9089 17.3663C85.6548 17.6925 85.2489 17.9015 84.7374 17.9015H84.744ZM83.7573 16.1535H85.3941C85.3776 15.7672 85.0839 15.4473 84.6285 15.4473C84.1731 15.4473 83.853 15.7007 83.7573 16.1535Z" fill="#000091"/>
<path d="M86.5788 15.1782H87.0408V15.4758C87.2619 15.2415 87.5457 15.0768 87.9516 15.0768C88.5654 15.0768 89.0208 15.4727 89.0208 16.2168V17.8033H88.5588V16.2327C88.5588 15.764 88.2816 15.4948 87.8592 15.4948C87.4632 15.4948 87.2157 15.7133 87.0408 15.9888V17.8033H86.5788V15.1813V15.1782Z" fill="#000091"/>
<path d="M90.0471 15.5772H89.5323V15.1782H90.0471V14.5227H90.5124V15.1782H91.4595V15.5772H90.5124V16.9198C90.5124 17.3315 90.7302 17.4455 91.0602 17.4455C91.2384 17.4455 91.3638 17.4233 91.4661 17.3822V17.778C91.3374 17.8287 91.1889 17.8508 90.9942 17.8508C90.387 17.8508 90.0471 17.5595 90.0471 16.9198V15.5772Z" fill="#000091"/>
<path d="M93.555 17.1732C93.7431 17.4012 93.9708 17.531 94.248 17.531C94.5516 17.531 94.7265 17.3537 94.7265 17.1257C94.7265 16.5367 93.3603 16.7457 93.3603 15.821C93.3603 15.4094 93.7233 15.0737 94.248 15.0737C94.6374 15.0737 94.974 15.251 95.1654 15.5044L94.8453 15.764C94.7001 15.5677 94.4922 15.441 94.2546 15.441C93.9609 15.441 93.8058 15.6089 93.8058 15.8115C93.8058 16.4005 95.1753 16.2105 95.1753 17.1067C95.1687 17.5944 94.7628 17.9015 94.2546 17.9015C93.8223 17.9015 93.4791 17.7337 93.2316 17.4392L93.5583 17.1732H93.555Z" fill="#000091"/>
<path d="M97.7691 15.1782H98.2311V16.6602C98.2311 17.4455 97.7592 17.9015 97.0167 17.9015C96.2742 17.9015 95.8089 17.4455 95.8089 16.6602V15.1782H96.2709V16.676C96.2709 17.1922 96.558 17.4867 97.0233 17.4867C97.4886 17.4867 97.7724 17.189 97.7724 16.676V15.1782H97.7691Z" fill="#000091"/>
<path d="M99.0858 15.1782H99.5478V15.4917C99.792 15.2257 100.112 15.0768 100.518 15.0768C101.373 15.0768 101.92 15.726 101.92 16.4923C101.92 17.2587 101.373 17.9078 100.518 17.9078C100.112 17.9078 99.792 17.7558 99.5478 17.493V19.0858H99.0858V15.1845V15.1782ZM99.5478 15.9793V16.999C99.759 17.3157 100.089 17.4867 100.465 17.4867C101.046 17.4867 101.442 17.0433 101.442 16.4892C101.442 15.935 101.046 15.4917 100.465 15.4917C100.086 15.4917 99.7557 15.669 99.5478 15.9793Z" fill="#000091"/>
<path d="M103.894 17.9015C102.973 17.9015 102.402 17.2523 102.402 16.486C102.402 15.7197 102.934 15.0705 103.778 15.0705C104.521 15.0705 105.003 15.555 105.003 16.2105C105.003 16.315 104.986 16.4195 104.97 16.4923H102.871C102.887 17.1225 103.303 17.5025 103.891 17.5025C104.244 17.5025 104.541 17.3473 104.719 17.113L105.059 17.3663C104.805 17.6925 104.399 17.9015 103.887 17.9015H103.894ZM102.907 16.1535H104.544C104.527 15.7672 104.234 15.4473 103.778 15.4473C103.323 15.4473 103.003 15.7007 102.907 16.1535ZM103.574 14.7602L104.138 13.8957H104.659L104.026 14.7602H103.577H103.574Z" fill="#000091"/>
<path d="M105.729 15.1782H106.191V15.5043C106.392 15.2763 106.639 15.1243 106.986 15.1243C107.072 15.1243 107.154 15.1338 107.22 15.156V15.5867C107.138 15.5645 107.059 15.555 106.95 15.555C106.593 15.555 106.359 15.7323 106.191 15.9983V17.797H105.729V15.175V15.1782Z" fill="#000091"/>
<path d="M107.735 14.1838C107.735 14.016 107.88 13.8767 108.062 13.8767C108.243 13.8767 108.382 14.016 108.382 14.1838C108.382 14.3517 108.24 14.4942 108.062 14.4942C107.884 14.4942 107.735 14.3548 107.735 14.1838ZM107.828 15.1782H108.29V17.8002H107.828V15.1782Z" fill="#000091"/>
<path d="M110.464 17.9015C109.543 17.9015 108.973 17.2523 108.973 16.486C108.973 15.7197 109.504 15.0705 110.349 15.0705C111.091 15.0705 111.573 15.555 111.573 16.2105C111.573 16.315 111.556 16.4195 111.54 16.4923H109.441C109.458 17.1225 109.873 17.5025 110.461 17.5025C110.814 17.5025 111.111 17.3473 111.289 17.113L111.629 17.3663C111.375 17.6925 110.969 17.9015 110.458 17.9015H110.464ZM109.477 16.1535H111.114C111.098 15.7672 110.804 15.4473 110.349 15.4473C109.893 15.4473 109.573 15.7007 109.477 16.1535Z" fill="#000091"/>
<path d="M114.16 15.1782H114.622V16.6602C114.622 17.4455 114.15 17.9015 113.408 17.9015C112.665 17.9015 112.2 17.4455 112.2 16.6602V15.1782H112.662V16.676C112.662 17.1922 112.949 17.4867 113.414 17.4867C113.88 17.4867 114.163 17.189 114.163 16.676V15.1782H114.16Z" fill="#000091"/>
<path d="M115.477 15.1782H115.939V15.5043C116.14 15.2763 116.388 15.1243 116.734 15.1243C116.82 15.1243 116.903 15.1338 116.969 15.156V15.5867C116.886 15.5645 116.807 15.555 116.698 15.555C116.342 15.555 116.107 15.7323 115.939 15.9983V17.797H115.477V15.175V15.1782Z" fill="#000091"/>
<path d="M15.8796 1.22267L18.6681 1.48867C19.5261 0.668503 20.6019 0.203003 22.1166 0.203003C25.6311 0.203003 27.7398 2.83767 27.7398 5.93784C27.7398 9.038 25.6311 11.6727 22.1166 11.6727C20.6019 11.6727 19.5261 11.2103 18.6681 10.387V16.4353H15.8796V1.22267ZM18.6681 4.27217V7.6035C19.4139 8.61684 20.4468 9.1425 21.7206 9.1425C23.6082 9.1425 24.8391 7.7935 24.8391 5.93784C24.8391 4.08217 23.6082 2.73317 21.7206 2.73317C20.4237 2.73317 19.371 3.281 18.6681 4.27217Z" fill="#000091"/>
<path d="M29.1918 8.38251C29.1918 6.78018 30.4887 5.58001 32.8614 5.20001L36.2439 4.65218V4.37668C36.2439 3.25884 35.3661 2.54318 34.0923 2.54318C33.0165 2.54318 32.1816 3.02768 31.5876 3.80668L29.5449 2.30884C30.5349 1.00101 32.1585 0.199844 34.1814 0.199844C37.389 0.199844 39.0357 2.03334 39.0357 4.37351V11.2452H36.2472V10.2128C35.5443 11.0362 34.2276 11.5618 32.9307 11.5618C30.7131 11.5618 29.1951 10.3395 29.1951 8.37934L29.1918 8.38251ZM33.4983 9.43701C34.7721 9.43701 35.6961 8.86701 36.2439 8.02468V6.52684L33.6072 6.94801C32.4423 7.13801 31.9605 7.60034 31.9605 8.25584C31.9605 8.97151 32.5545 9.43701 33.4983 9.43701Z" fill="#000091"/>
<path d="M41.9991 0.624176H44.7876V1.67868C45.5136 0.96301 46.4574 0.415176 47.7081 0.415176C48.081 0.415176 48.411 0.47851 48.675 0.56401V3.19551C48.3219 3.11001 47.949 3.04668 47.4441 3.04668C46.0812 3.04668 45.2034 3.76234 44.7876 4.43684V11.2452H41.9991V0.624176Z" fill="#000091"/>
<path d="M58.0569 7.917L60.2316 9.51934C59.1987 10.8272 57.5751 11.6695 55.5522 11.6695C51.7308 11.6695 49.4439 9.03484 49.4439 5.93467C49.4439 2.8345 51.7308 0.203003 55.5522 0.203003C57.5718 0.203003 59.1987 1.04534 60.2316 2.35317L58.0569 3.9555C57.5289 3.21767 56.6511 2.73317 55.5093 2.73317C53.6877 2.73317 52.3446 4.08217 52.3446 5.93784C52.3446 7.7935 53.6844 9.1425 55.5522 9.1425C56.6511 9.1425 57.5289 8.658 58.0569 7.92017V7.917Z" fill="#000091"/>
<path d="M72.996 5.93784C72.996 9.12034 70.5342 11.6727 66.9339 11.6727C63.3336 11.6727 60.8718 9.1235 60.8718 5.93784C60.8718 2.75217 63.3303 0.203003 66.9306 0.203003C70.5309 0.203003 72.9927 2.75217 72.9927 5.93784H72.996ZM70.0953 5.93784C70.0953 4.08217 68.7555 2.73317 66.9768 2.73317C65.1981 2.73317 63.7692 4.08217 63.7692 5.93784C63.7692 7.7935 65.1321 9.1425 66.9768 9.1425C68.8215 9.1425 70.0953 7.77134 70.0953 5.93784Z" fill="#000091"/>
<path d="M82.6155 0.624176H85.4271V6.52684C85.4271 9.70934 83.4933 11.6695 80.2428 11.6695C76.9923 11.6695 75.0816 9.70934 75.0816 6.52684V0.624176H77.8932V6.65351C77.8932 8.19251 78.7281 9.13934 80.2659 9.13934C81.8037 9.13934 82.6155 8.18934 82.6155 6.65351V0.624176Z" fill="#000091"/>
<path d="M88.3047 0.624176H91.0932V1.67868C91.8192 0.96301 92.763 0.415176 94.0137 0.415176C94.3866 0.415176 94.7166 0.47851 94.9806 0.56401V3.19551C94.6275 3.11001 94.2546 3.04668 93.7497 3.04668C92.3868 3.04668 91.509 3.76234 91.0932 4.43684V11.2452H88.3047V0.624176Z" fill="#000091"/>
<path d="M114.117 0.624176H116.929V6.52684C116.929 9.70934 114.995 11.6695 111.745 11.6695C108.494 11.6695 106.583 9.70934 106.583 6.52684V0.624176H109.395V6.65351C109.395 8.19251 110.23 9.13934 111.768 9.13934C113.306 9.13934 114.117 8.18934 114.117 6.65351V0.624176Z" fill="#000091"/>
<path d="M119.806 0.62417H122.595V1.48867C123.453 0.665336 124.529 0.203003 126.043 0.203003C129.558 0.203003 131.667 2.83767 131.667 5.93784C131.667 9.038 129.558 11.6727 126.043 11.6727C124.529 11.6727 123.453 11.2103 122.595 10.387V16.4353H119.806V0.62417ZM122.595 4.27217V7.6035C123.341 8.61684 124.374 9.1425 125.647 9.1425C127.535 9.1425 128.766 7.7935 128.766 5.93784C128.766 4.08217 127.535 2.73317 125.647 2.73317C124.351 2.73317 123.298 3.281 122.595 4.27217Z" fill="#000091"/>
<path d="M6.1248 9.21535H1.3992C0.627 9.21535 0 9.81701 0 10.558C0 11.299 0.627 11.9007 1.3992 11.9007H4.7289V15.0958C4.7289 15.8368 5.3559 16.4353 6.1281 16.4385C6.5142 16.4385 6.864 16.2897 7.1148 16.0458C7.3689 15.802 7.524 15.4663 7.524 15.0958V10.558C7.524 10.1875 7.3689 9.85185 7.1148 9.60801C6.8607 9.36418 6.5142 9.21535 6.1248 9.21535Z" fill="#E1000F"/>
<path d="M11.6985 4.69017H6.9795C6.2073 4.69017 5.5836 5.28867 5.5836 6.02967C5.5836 6.77067 6.2073 7.36917 6.9795 7.36917H10.3026V10.558C10.3026 11.299 10.9263 11.8975 11.6985 11.8975C12.0846 11.8975 12.4311 11.7487 12.6852 11.5048C12.9393 11.261 13.0944 10.9285 13.0944 10.558V6.02967C13.0944 5.65917 12.9393 5.3235 12.6852 5.08284C12.4311 4.839 12.0846 4.69017 11.6985 4.69017Z" fill="#000091"/>
<path d="M17.2788 0.152344H12.5499C11.7777 0.152344 11.1507 0.75401 11.1507 1.49501C11.1507 2.23601 11.7777 2.83768 12.5499 2.83768H15.8796V6.03284C15.8796 6.77384 16.5066 7.37551 17.2788 7.37551C17.6649 7.37551 18.0147 7.22351 18.2655 6.98284C18.5196 6.73901 18.6747 6.40334 18.6747 6.03284V1.49501C18.6747 1.12451 18.5163 0.788844 18.2655 0.54501C18.0114 0.301177 17.6649 0.152344 17.2788 0.152344Z" fill="#E1000F"/>
</g>
<defs>
<clipPath id="clip0_7230_4948">
<rect width="132" height="19" fill="white" transform="translate(0 0.152344)"/>
</clipPath>
</defs>
</svg>
