<svg width="147" height="35" viewBox="0 0 147 35" fill="none" xmlns="http://www.w3.org/2000/svg">
<path d="M1.89225 15.5176V7.11758H3.59625V13.9696H6.78825V15.5176H1.89225ZM13.687 14.5336C13.123 15.2896 12.187 15.7576 11.047 15.7576C8.89903 15.7576 7.68703 14.2576 7.68703 12.4936C7.68703 10.7056 8.81503 9.22958 10.795 9.22958C12.475 9.22958 13.579 10.3696 13.579 11.9536C13.579 12.2896 13.531 12.6016 13.483 12.8056H9.24703C9.39103 13.9336 10.087 14.3896 11.035 14.3896C11.695 14.3896 12.271 14.1016 12.595 13.6696L13.687 14.5336ZM10.759 10.4776C9.97903 10.4776 9.46303 10.9096 9.29503 11.7016H12.079C12.055 11.0896 11.611 10.4776 10.759 10.4776ZM18.3026 18.4696V9.46958H19.8266V9.96158C20.2946 9.49358 20.8826 9.22958 21.7106 9.22958C23.6306 9.22958 24.7826 10.7296 24.7826 12.4936C24.7826 14.2576 23.6306 15.7576 21.7106 15.7576C20.8826 15.7576 20.2946 15.4936 19.8266 15.0256V18.4696H18.3026ZM21.4946 10.6696C20.7866 10.6696 20.2106 10.9816 19.8266 11.5456V13.4416C20.2346 14.0176 20.7986 14.3176 21.4946 14.3176C22.5266 14.3176 23.1986 13.5496 23.1986 12.4936C23.1986 11.4376 22.5266 10.6696 21.4946 10.6696ZM29.1162 9.22958C31.0842 9.22958 32.4282 10.6816 32.4282 12.4936C32.4282 14.3056 31.0842 15.7576 29.1162 15.7576C27.1482 15.7576 25.8042 14.3056 25.8042 12.4936C25.8042 10.6816 27.1482 9.22958 29.1162 9.22958ZM29.1402 14.3176C30.1122 14.3176 30.8442 13.5376 30.8442 12.4936C30.8442 11.4376 30.1122 10.6696 29.1402 10.6696C28.1322 10.6696 27.3882 11.4376 27.3882 12.4936C27.3882 13.5496 28.1322 14.3176 29.1402 14.3176ZM33.8183 15.5176V9.46958H35.3423V10.0696C35.7383 9.66158 36.2543 9.34958 36.9383 9.34958C37.1423 9.34958 37.3223 9.38558 37.4663 9.43358V10.9336C37.2743 10.8856 37.0703 10.8496 36.7943 10.8496C36.0503 10.8496 35.5703 11.2576 35.3423 11.6416V15.5176H33.8183ZM39.4757 13.3096V10.8376H38.3477V9.46958H39.4757V7.95758H41.0117V9.46958H42.8597V10.8376H41.0117V13.3096C41.0117 13.9816 41.3717 14.2456 41.9717 14.2456C42.3917 14.2456 42.6677 14.1976 42.8717 14.1136V15.4456C42.5717 15.5776 42.2117 15.6376 41.7077 15.6376C40.1957 15.6376 39.4757 14.7856 39.4757 13.3096ZM45.9285 15.6976C44.7165 15.6976 43.8885 15.0016 43.8885 13.8856C43.8885 12.9736 44.5965 12.2896 45.8925 12.0736L47.7405 11.7616V11.6056C47.7405 10.9696 47.2605 10.5616 46.5645 10.5616C45.9765 10.5616 45.5205 10.8376 45.1965 11.2816L44.0805 10.4296C44.6205 9.68558 45.5085 9.22958 46.6125 9.22958C48.3645 9.22958 49.2645 10.2736 49.2645 11.6056V15.5176H47.7405V14.9296C47.3565 15.3976 46.6365 15.6976 45.9285 15.6976ZM45.4005 13.8136C45.4005 14.2216 45.7245 14.4856 46.2405 14.4856C46.9365 14.4856 47.4405 14.1616 47.7405 13.6816V12.8296L46.3005 13.0696C45.6645 13.1776 45.4005 13.4416 45.4005 13.8136ZM51.7777 8.41358C51.2377 8.41358 50.7817 7.95758 50.7817 7.41758C50.7817 6.87758 51.2377 6.42158 51.7777 6.42158C52.3177 6.42158 52.7617 6.87758 52.7617 7.41758C52.7617 7.95758 52.3177 8.41358 51.7777 8.41358ZM51.0097 15.5176V9.46958H52.5337V15.5176H51.0097ZM54.3612 15.5176V6.51758H55.8852V15.5176H54.3612ZM60.5152 12.4936C60.5152 10.7296 61.6792 9.22958 63.5872 9.22958C64.4032 9.22958 64.9912 9.48158 65.4592 9.94958V6.51758H66.9952V15.5176H65.4592V15.0376C64.9912 15.5056 64.4032 15.7576 63.5872 15.7576C61.6792 15.7576 60.5152 14.2576 60.5152 12.4936ZM62.1112 12.4936C62.1112 13.5496 62.7712 14.3176 63.8032 14.3176C64.4872 14.3176 65.0512 14.0296 65.4592 13.4776V11.5096C65.0512 10.9576 64.4872 10.6696 63.8032 10.6696C62.7712 10.6696 62.1112 11.4376 62.1112 12.4936ZM74.3902 14.5336C73.8262 15.2896 72.8902 15.7576 71.7502 15.7576C69.6022 15.7576 68.3902 14.2576 68.3902 12.4936C68.3902 10.7056 69.5182 9.22958 71.4982 9.22958C73.1782 9.22958 74.2822 10.3696 74.2822 11.9536C74.2822 12.2896 74.2342 12.6016 74.1862 12.8056H69.9502C70.0942 13.9336 70.7902 14.3896 71.7382 14.3896C72.3982 14.3896 72.9742 14.1016 73.2982 13.6696L74.3902 14.5336ZM71.4622 10.4776C70.6822 10.4776 70.1662 10.9096 69.9982 11.7016H72.7822C72.7582 11.0896 72.3142 10.4776 71.4622 10.4776ZM79.0058 15.5176V6.51758H80.5298V15.5176H79.0058ZM83.1711 10.5736H81.7551L82.8351 7.11758H84.5631L83.1711 10.5736ZM86.909 15.6976C85.697 15.6976 84.869 15.0016 84.869 13.8856C84.869 12.9736 85.577 12.2896 86.873 12.0736L88.721 11.7616V11.6056C88.721 10.9696 88.241 10.5616 87.545 10.5616C86.957 10.5616 86.501 10.8376 86.177 11.2816L85.061 10.4296C85.601 9.68558 86.489 9.22958 87.593 9.22958C89.345 9.22958 90.245 10.2736 90.245 11.6056V15.5176H88.721V14.9296C88.337 15.3976 87.617 15.6976 86.909 15.6976ZM86.381 13.8136C86.381 14.2216 86.705 14.4856 87.221 14.4856C87.917 14.4856 88.421 14.1616 88.721 13.6816V12.8296L87.281 13.0696C86.645 13.1776 86.381 13.4416 86.381 13.8136ZM91.9901 15.5176V6.51758H93.5141V15.5176H91.9901ZM95.7257 13.3096V10.8376H94.5977V9.46958H95.7257V7.95758H97.2617V9.46958H99.1097V10.8376H97.2617V13.3096C97.2617 13.9816 97.6217 14.2456 98.2217 14.2456C98.6417 14.2456 98.9177 14.1976 99.1217 14.1136V15.4456C98.8217 15.5776 98.4617 15.6376 97.9577 15.6376C96.4457 15.6376 95.7257 14.7856 95.7257 13.3096ZM105.925 14.5336C105.361 15.2896 104.425 15.7576 103.285 15.7576C101.137 15.7576 99.9253 14.2576 99.9253 12.4936C99.9253 10.7056 101.053 9.22958 103.033 9.22958C104.713 9.22958 105.817 10.3696 105.817 11.9536C105.817 12.2896 105.769 12.6016 105.721 12.8056H101.485C101.629 13.9336 102.325 14.3896 103.273 14.3896C103.933 14.3896 104.509 14.1016 104.833 13.6696L105.925 14.5336ZM102.997 10.4776C102.217 10.4776 101.701 10.9096 101.533 11.7016H104.317C104.293 11.0896 103.849 10.4776 102.997 10.4776ZM107.307 15.5176V9.46958H108.831V10.0696C109.227 9.66158 109.743 9.34958 110.427 9.34958C110.631 9.34958 110.811 9.38558 110.955 9.43358V10.9336C110.763 10.8856 110.559 10.8496 110.283 10.8496C109.539 10.8496 109.059 11.2576 108.831 11.6416V15.5176H107.307ZM112.182 15.5176V9.46958H113.706V9.94958C114.126 9.54158 114.69 9.22958 115.494 9.22958C116.802 9.22958 117.846 10.1296 117.846 11.9176V15.5176H116.31V11.9776C116.31 11.1736 115.854 10.6696 115.11 10.6696C114.342 10.6696 113.934 11.1856 113.706 11.5696V15.5176H112.182ZM121.28 15.6976C120.068 15.6976 119.24 15.0016 119.24 13.8856C119.24 12.9736 119.948 12.2896 121.244 12.0736L123.092 11.7616V11.6056C123.092 10.9696 122.612 10.5616 121.916 10.5616C121.328 10.5616 120.872 10.8376 120.548 11.2816L119.432 10.4296C119.972 9.68558 120.86 9.22958 121.964 9.22958C123.716 9.22958 124.616 10.2736 124.616 11.6056V15.5176H123.092V14.9296C122.708 15.3976 121.988 15.6976 121.28 15.6976ZM120.752 13.8136C120.752 14.2216 121.076 14.4856 121.592 14.4856C122.288 14.4856 122.792 14.1616 123.092 13.6816V12.8296L121.652 13.0696C121.016 13.1776 120.752 13.4416 120.752 13.8136ZM126.361 15.5176V9.46958H127.885V9.94958C128.305 9.54158 128.869 9.22958 129.673 9.22958C130.981 9.22958 132.025 10.1296 132.025 11.9176V15.5176H130.489V11.9776C130.489 11.1736 130.033 10.6696 129.289 10.6696C128.521 10.6696 128.113 11.1856 127.885 11.5696V15.5176H126.361ZM136.66 14.3176C137.26 14.3176 137.74 14.0416 138.028 13.6216L139.216 14.5336C138.652 15.2776 137.764 15.7576 136.66 15.7576C134.572 15.7576 133.324 14.2576 133.324 12.4936C133.324 10.7296 134.572 9.22958 136.66 9.22958C137.764 9.22958 138.652 9.70958 139.216 10.4536L138.028 11.3656C137.74 10.9456 137.26 10.6696 136.636 10.6696C135.64 10.6696 134.908 11.4376 134.908 12.4936C134.908 13.5616 135.64 14.3176 136.66 14.3176ZM145.687 14.5336C145.123 15.2896 144.187 15.7576 143.047 15.7576C140.899 15.7576 139.687 14.2576 139.687 12.4936C139.687 10.7056 140.815 9.22958 142.795 9.22958C144.475 9.22958 145.579 10.3696 145.579 11.9536C145.579 12.2896 145.531 12.6016 145.483 12.8056H141.247C141.391 13.9336 142.087 14.3896 143.035 14.3896C143.695 14.3896 144.271 14.1016 144.595 13.6696L145.687 14.5336ZM142.759 10.4776C141.979 10.4776 141.463 10.9096 141.295 11.7016H144.079C144.055 11.0896 143.611 10.4776 142.759 10.4776Z" fill="black"/>
<path d="M2.47225 28.6296C1.68025 28.6296 1.14425 28.1896 1.14425 27.5016C1.14425 26.8936 1.60825 26.4616 2.46425 26.3176L3.82425 26.0936V25.8136C3.82425 25.2536 3.42425 24.9336 2.84825 24.9336C2.38425 24.9336 2.00825 25.1496 1.76025 25.4936L1.24825 25.1016C1.60025 24.6216 2.16825 24.3256 2.87225 24.3256C3.89625 24.3256 4.50425 24.9256 4.50425 25.8136V28.5176H3.82425V28.0056C3.52025 28.3976 2.99225 28.6296 2.47225 28.6296ZM1.83225 27.4776C1.83225 27.8216 2.11225 28.0696 2.58425 28.0696C3.12025 28.0696 3.56025 27.8136 3.82425 27.3816V26.5896L2.63225 26.7896C2.08025 26.8856 1.83225 27.1336 1.83225 27.4776ZM5.86844 28.5176V22.5176H6.54844V28.5176H5.86844ZM8.21763 27.1656V25.1016H7.45763V24.4856H8.21763V23.4776H8.90563V24.4856H10.3056V25.1016H8.90563V27.1656C8.90563 27.7976 9.22563 27.9736 9.71363 27.9736C9.97763 27.9736 10.1616 27.9416 10.3136 27.8776V28.4856C10.1216 28.5656 9.90563 28.5976 9.61762 28.5976C8.72163 28.5976 8.21763 28.1496 8.21763 27.1656ZM14.8509 27.8536C14.4749 28.3576 13.8749 28.6776 13.1229 28.6776C11.7629 28.6776 10.9229 27.6776 10.9229 26.5016C10.9229 25.2776 11.7069 24.3256 12.9549 24.3256C14.0509 24.3256 14.7629 25.0936 14.7629 26.0856C14.7629 26.2456 14.7389 26.3976 14.7149 26.5096H11.6189C11.6429 27.4776 12.2589 28.0616 13.1229 28.0616C13.6429 28.0616 14.0829 27.8216 14.3469 27.4616L14.8509 27.8536ZM12.9389 24.9016C12.2749 24.9016 11.8109 25.2936 11.6669 25.9896H14.0829C14.0589 25.3976 13.6509 24.9016 12.9389 24.9016ZM15.9153 28.5176V24.4856H16.5953V24.9896C16.8913 24.6376 17.2593 24.4056 17.7713 24.4056C17.8993 24.4056 18.0193 24.4216 18.1153 24.4536V25.1176C17.9953 25.0856 17.8753 25.0696 17.7153 25.0696C17.1873 25.0696 16.8433 25.3416 16.5953 25.7496V28.5176H15.9153ZM19.095 28.5176V24.4856H19.775V24.9416C20.103 24.5816 20.519 24.3256 21.119 24.3256C22.023 24.3256 22.695 24.9336 22.695 26.0776V28.5176H22.015V26.1016C22.015 25.3816 21.607 24.9656 20.983 24.9656C20.399 24.9656 20.031 25.3016 19.775 25.7256V28.5176H19.095ZM25.1598 28.6296C24.3678 28.6296 23.8318 28.1896 23.8318 27.5016C23.8318 26.8936 24.2958 26.4616 25.1518 26.3176L26.5118 26.0936V25.8136C26.5118 25.2536 26.1118 24.9336 25.5358 24.9336C25.0718 24.9336 24.6958 25.1496 24.4478 25.4936L23.9358 25.1016C24.2878 24.6216 24.8558 24.3256 25.5598 24.3256C26.5838 24.3256 27.1918 24.9256 27.1918 25.8136V28.5176H26.5118V28.0056C26.2078 28.3976 25.6798 28.6296 25.1598 28.6296ZM24.5197 27.4776C24.5197 27.8216 24.7998 28.0696 25.2718 28.0696C25.8078 28.0696 26.2478 27.8136 26.5118 27.3816V26.5896L25.3198 26.7896C24.7678 26.8856 24.5197 27.1336 24.5197 27.4776ZM28.5559 28.5176V24.4856H29.2359V24.9416C29.5639 24.5816 29.9799 24.3256 30.5799 24.3256C31.4839 24.3256 32.1559 24.9336 32.1559 26.0776V28.5176H31.4759V26.1016C31.4759 25.3816 31.0679 24.9656 30.4439 24.9656C29.8599 24.9656 29.4919 25.3016 29.2359 25.7256V28.5176H28.5559ZM35.3807 28.0376C35.8767 28.0376 36.2847 27.7976 36.5327 27.4456L37.0687 27.8536C36.6927 28.3576 36.1087 28.6776 35.3727 28.6776C34.0367 28.6776 33.1807 27.6776 33.1807 26.5016C33.1807 25.3256 34.0367 24.3256 35.3727 24.3256C36.1007 24.3256 36.6927 24.6536 37.0687 25.1496L36.5327 25.5576C36.2847 25.2056 35.8767 24.9656 35.3727 24.9656C34.5087 24.9656 33.8927 25.6456 33.8927 26.5016C33.8927 27.3656 34.5087 28.0376 35.3807 28.0376ZM41.429 27.8536C41.053 28.3576 40.453 28.6776 39.701 28.6776C38.341 28.6776 37.501 27.6776 37.501 26.5016C37.501 25.2776 38.285 24.3256 39.533 24.3256C40.629 24.3256 41.341 25.0936 41.341 26.0856C41.341 26.2456 41.317 26.3976 41.293 26.5096H38.197C38.221 27.4776 38.837 28.0616 39.701 28.0616C40.221 28.0616 40.661 27.8216 40.925 27.4616L41.429 27.8536ZM39.517 24.9016C38.853 24.9016 38.389 25.2936 38.245 25.9896H40.661C40.637 25.3976 40.229 24.9016 39.517 24.9016ZM42.8146 28.6056C42.5266 28.6056 42.2946 28.3816 42.2946 28.1016C42.2946 27.8216 42.5266 27.5896 42.8146 27.5896C43.1026 27.5896 43.3266 27.8216 43.3266 28.1016C43.3266 28.3816 43.1026 28.6056 42.8146 28.6056ZM47.9212 27.8536C47.5452 28.3576 46.9452 28.6776 46.1932 28.6776C44.8332 28.6776 43.9932 27.6776 43.9932 26.5016C43.9932 25.2776 44.7772 24.3256 46.0252 24.3256C47.1212 24.3256 47.8332 25.0936 47.8332 26.0856C47.8332 26.2456 47.8092 26.3976 47.7852 26.5096H44.6892C44.7132 27.4776 45.3292 28.0616 46.1932 28.0616C46.7132 28.0616 47.1532 27.8216 47.4172 27.4616L47.9212 27.8536ZM46.0092 24.9016C45.3452 24.9016 44.8812 25.2936 44.7372 25.9896H47.1532C47.1292 25.3976 46.7212 24.9016 46.0092 24.9016ZM48.9856 28.5176V24.4856H49.6656V24.9256C49.9696 24.5736 50.3696 24.3256 50.9296 24.3256C51.5136 24.3256 51.9936 24.5896 52.2416 25.1016C52.5616 24.6616 52.9856 24.3256 53.6816 24.3256C54.5456 24.3256 55.1776 24.9016 55.1776 25.9976V28.5176H54.4976V26.0216C54.4976 25.3496 54.1216 24.9656 53.5456 24.9656C53.0336 24.9656 52.6736 25.2536 52.4096 25.7256C52.4176 25.8136 52.4256 25.9016 52.4256 25.9976V28.5176H51.7456V26.0216C51.7456 25.3496 51.3776 24.9656 50.7936 24.9656C50.2416 24.9656 49.8976 25.3096 49.6656 25.7256V28.5176H48.9856ZM56.5481 30.4856V24.4856H57.2281V24.9656C57.5881 24.5576 58.0601 24.3256 58.6601 24.3256C59.9241 24.3256 60.7321 25.3256 60.7321 26.5016C60.7321 27.6776 59.9241 28.6776 58.6601 28.6776C58.0601 28.6776 57.5881 28.4456 57.2281 28.0376V30.4856H56.5481ZM58.5801 24.9656C58.0201 24.9656 57.5321 25.2376 57.2281 25.7176V27.2856C57.5401 27.7736 58.0281 28.0376 58.5801 28.0376C59.4361 28.0376 60.0201 27.3576 60.0201 26.5016C60.0201 25.6456 59.4361 24.9656 58.5801 24.9656ZM61.8294 28.5176V22.5176H62.5094V28.5176H61.8294ZM65.7866 24.3256C67.0826 24.3256 67.9706 25.3256 67.9706 26.5016C67.9706 27.6776 67.0826 28.6776 65.7866 28.6776C64.4826 28.6776 63.6026 27.6776 63.6026 26.5016C63.6026 25.3256 64.4826 24.3256 65.7866 24.3256ZM65.7946 28.0376C66.6346 28.0376 67.2506 27.3336 67.2506 26.5016C67.2506 25.6616 66.6346 24.9656 65.7946 24.9656C64.9306 24.9656 64.3146 25.6616 64.3146 26.5016C64.3146 27.3416 64.9306 28.0376 65.7946 28.0376ZM69.4078 23.4376C69.1438 23.4376 68.9278 23.2216 68.9278 22.9576C68.9278 22.7016 69.1438 22.4856 69.4078 22.4856C69.6718 22.4856 69.8798 22.7016 69.8798 22.9576C69.8798 23.2216 69.6718 23.4376 69.4078 23.4376ZM69.0638 28.5176V24.4856H69.7438V28.5176H69.0638ZM71.5489 28.6056C71.2609 28.6056 71.0289 28.3816 71.0289 28.1016C71.0289 27.8216 71.2609 27.5896 71.5489 27.5896C71.8369 27.5896 72.0609 27.8216 72.0609 28.1016C72.0609 28.3816 71.8369 28.6056 71.5489 28.6056ZM72.7794 29.2456C72.7794 28.8376 72.9794 28.5096 73.3794 28.2296C73.1954 28.0856 73.0994 27.8696 73.0994 27.6536C73.0994 27.3336 73.2674 27.0696 73.5794 26.8696C73.2274 26.6056 73.0194 26.1976 73.0194 25.7496C73.0194 24.9736 73.6274 24.3176 74.5874 24.3176C74.8834 24.3176 75.1474 24.3816 75.3634 24.4856H76.8594V25.0776H75.9874C76.0994 25.2776 76.1554 25.5096 76.1554 25.7496C76.1554 26.5176 75.5554 27.1736 74.5874 27.1736C74.3874 27.1736 74.1954 27.1416 74.0274 27.0936C73.8594 27.2136 73.7634 27.3576 73.7634 27.5096C73.7634 27.6776 73.8514 27.7976 74.0994 27.7976H75.2514C76.3154 27.7976 76.8114 28.3176 76.8114 29.0376C76.8114 29.8856 75.9634 30.5176 74.7554 30.5176C73.5634 30.5176 72.7794 30.0536 72.7794 29.2456ZM74.5954 26.6376C75.1794 26.6376 75.5154 26.2376 75.5154 25.7496C75.5154 25.2536 75.1794 24.8536 74.5954 24.8536C73.9954 24.8536 73.6674 25.2536 73.6674 25.7496C73.6674 26.2456 73.9954 26.6376 74.5954 26.6376ZM73.4434 29.1656C73.4434 29.6536 73.9474 29.9496 74.7474 29.9496C75.5954 29.9496 76.1314 29.6136 76.1314 29.0856C76.1314 28.7016 75.9154 28.3976 75.1954 28.3976H73.8914C73.6114 28.6056 73.4434 28.8456 73.4434 29.1656ZM79.3491 24.3256C80.6451 24.3256 81.5331 25.3256 81.5331 26.5016C81.5331 27.6776 80.6451 28.6776 79.3491 28.6776C78.0451 28.6776 77.1651 27.6776 77.1651 26.5016C77.1651 25.3256 78.0451 24.3256 79.3491 24.3256ZM79.3571 28.0376C80.1971 28.0376 80.8131 27.3336 80.8131 26.5016C80.8131 25.6616 80.1971 24.9656 79.3571 24.9656C78.4931 24.9656 77.8771 25.6616 77.8771 26.5016C77.8771 27.3416 78.4931 28.0376 79.3571 28.0376ZM85.4343 26.7896V24.4856H86.1143V26.7656C86.1143 27.9736 85.4183 28.6776 84.3223 28.6776C83.2343 28.6776 82.5383 27.9736 82.5383 26.7656V24.4856H83.2183V26.7896C83.2183 27.5816 83.6423 28.0376 84.3303 28.0376C85.0023 28.0376 85.4343 27.5816 85.4343 26.7896ZM86.8776 24.4856H87.6136L88.9016 27.8056L90.1896 24.4856H90.9256L89.3496 28.5176H88.4536L86.8776 24.4856ZM91.5411 28.6056C91.2531 28.6056 91.0211 28.3816 91.0211 28.1016C91.0211 27.8216 91.2531 27.5896 91.5411 27.5896C91.8291 27.5896 92.0531 27.8216 92.0531 28.1016C92.0531 28.3816 91.8291 28.6056 91.5411 28.6056ZM92.8014 24.4856H93.5614V23.9896C93.5614 23.1336 94.1134 22.5176 94.9934 22.5176C95.3614 22.5176 95.6574 22.6216 95.8814 22.7496L95.5774 23.3176C95.4254 23.2056 95.2414 23.1336 95.0094 23.1336C94.5534 23.1336 94.2494 23.4456 94.2494 23.9736V24.4856H95.6494V25.1016H94.2494V28.5176H93.5614V25.1016H92.8014V24.4856ZM96.3059 28.5176V24.4856H96.9859V24.9896C97.2819 24.6376 97.6499 24.4056 98.1619 24.4056C98.2899 24.4056 98.4099 24.4216 98.5059 24.4536V25.1176C98.3859 25.0856 98.2659 25.0696 98.1059 25.0696C97.5779 25.0696 97.2339 25.3416 96.9859 25.7496V28.5176H96.3059Z" fill="#666666"/>
</svg>
