<svg width="287" height="171" viewBox="0 0 287 171" fill="none" xmlns="http://www.w3.org/2000/svg">
<path fill-rule="evenodd" clip-rule="evenodd" d="M75.165 144.905C77.4769 128.648 82.5364 93.1953 67.3957 76.4639C52.2551 59.7325 49.8485 63.7117 47.2146 49.9552C44.5806 36.1987 30.6148 30.6279 23.5846 38.6241C16.5354 46.6014 25.0058 61.8927 27.7345 65.2276C30.4632 68.5625 27.9998 89.1024 36.8871 103.314C45.7744 117.525 60.0433 107.35 59.437 119.704C60.2518 144.053 75.165 144.905 75.165 144.905Z" fill="#FFC29E"/>
<path fill-rule="evenodd" clip-rule="evenodd" d="M30.1796 43.9223C30.4453 43.755 30.7963 43.8347 30.9636 44.1004L31.2108 44.4957L31.7075 45.297C32.0722 45.8877 32.4816 46.5558 32.9326 47.2974L33.3637 48.0078C34.815 50.4045 36.4107 53.0902 38.117 56.0248C43.4795 65.2478 48.842 75.038 53.8476 84.9707C57.9765 93.1638 61.6828 101.106 64.861 108.672C70.8782 122.996 74.8063 135.49 76.2023 145.643C76.2451 145.954 76.0276 146.24 75.7166 146.283C75.4056 146.326 75.1187 146.108 75.076 145.797C73.6958 135.76 69.7949 123.352 63.8128 109.112C60.6454 101.572 56.95 93.6533 52.8323 85.4823C47.8378 75.5716 42.4859 65.8008 37.1341 56.5963L36.4589 55.4382C34.8977 52.7674 33.4369 50.318 32.1035 48.1224L31.4062 46.9783C31.229 46.6887 31.0597 46.4129 30.8985 46.1513L30.1683 44.9725L30.0016 44.7063C29.8342 44.4406 29.914 44.0896 30.1796 43.9223Z" fill="white"/>
<path fill-rule="evenodd" clip-rule="evenodd" d="M83.3322 18.1031C68.5326 16.682 65.4628 31.6891 64.9891 44.3844C64.5154 57.0798 66.8651 61.6464 59.6453 68.392C52.4256 75.1565 64.1743 84.2896 63.1699 90.9973C62.1656 97.705 55.2301 115.63 82.1952 155.346C83.1806 156.786 84.5828 168.382 84.5828 168.382L90.4193 166.81C90.4193 166.81 86.6673 157.392 90.912 145.985C95.1566 134.56 102.357 129.197 103.04 114.91C103.722 100.623 93.508 103.39 95.384 93.9912C97.26 84.5928 106.848 78.0935 106.109 68.6762C105.37 59.2399 87.6526 52.3806 91.5752 41.5232C95.4977 30.6469 96.142 19.3348 83.3322 18.1031Z" fill="#FFC29E"/>
<path fill-rule="evenodd" clip-rule="evenodd" d="M77.7507 23.1532C78.0381 23.2485 78.1986 23.551 78.1211 23.8396L78.0327 24.1178L77.9637 24.3396C77.9154 24.4965 77.8624 24.6713 77.8051 24.864L77.7265 25.1306C77.501 25.9005 77.2533 26.7934 76.9886 27.8065L76.8731 28.2516C76.0652 31.3911 75.2591 35.0301 74.5043 39.1395C71.8742 53.4585 70.4823 69.8677 70.9875 87.9774C71.6476 111.638 75.5219 136.22 83.2694 161.336C83.3619 161.636 83.1937 161.955 82.8937 162.047C82.5937 162.14 82.2755 161.972 82.1829 161.672C74.4043 136.454 70.5138 111.77 69.851 88.0091C69.3435 69.8168 70.7421 53.3286 73.386 38.9342L73.4949 38.3465C74.2595 34.2552 75.0738 30.6363 75.8885 27.519L76.0286 26.9881C76.2439 26.1798 76.4472 25.4534 76.6355 24.8105L76.7153 24.5401C76.7932 24.278 76.8634 24.0477 76.9253 23.8495L77.0323 23.514C77.131 23.216 77.4527 23.0545 77.7507 23.1532Z" fill="white"/>
<path fill-rule="evenodd" clip-rule="evenodd" d="M82.4606 143.617C77.3821 130.789 66.3156 102.783 48.3894 96.7766C30.4632 90.77 30.3874 94.6544 22.7508 85.6729C15.1141 76.6914 2.70225 78.3588 0.920996 87.0751C-0.860254 95.7913 11.6274 103.484 14.9815 104.811C18.3356 106.137 25.1005 122.148 37.4366 128.894C49.7727 135.64 55.8745 122.357 60.5739 131.642C71.2993 149.093 82.4606 143.617 82.4606 143.617Z" fill="#FFC29E"/>
<path fill-rule="evenodd" clip-rule="evenodd" d="M6.91755 86.0923C7.03723 85.8143 7.35245 85.6805 7.6334 85.7826L7.67949 85.8014L7.87187 85.8853C7.99884 85.941 8.14289 86.0047 8.30356 86.0762L8.46975 86.1504C9.12291 86.4426 9.88018 86.7885 10.7329 87.1866L11.4716 87.5333C13.7122 88.5905 16.1721 89.801 18.8008 91.1561C27.1459 95.4579 35.4913 100.328 43.2831 105.672C51.2445 111.131 58.1792 116.788 63.7921 122.593C70.297 129.32 74.8795 136.097 77.237 142.881C77.34 143.177 77.1832 143.501 76.8866 143.604C76.59 143.707 76.2661 143.55 76.163 143.254C71.8342 130.797 59.8731 118.427 42.6401 106.609C34.8911 101.295 26.5856 96.4482 18.2798 92.1666L17.7012 91.8693C15.206 90.5911 12.8705 89.4472 10.7399 88.4454L10.2519 88.2168C9.5107 87.8707 8.84251 87.5646 8.25315 87.2993L7.61552 87.0147L7.21499 86.8392C6.9266 86.7151 6.79343 86.3807 6.91755 86.0923Z" fill="white"/>
<path fill-rule="evenodd" clip-rule="evenodd" d="M75.9043 146.857C76.2075 132.039 76.8897 99.6946 92.6935 86.9424C108.497 74.1902 110.032 78.0746 114.353 66.175C118.673 54.2755 131.805 51.3006 136.865 59.4105C141.924 67.5204 132.241 79.9505 129.361 82.5274C126.48 85.1044 125.666 103.769 115.755 115.194C105.844 126.601 94.7401 115.516 93.4894 126.62C89.1879 148.183 75.9043 146.857 75.9043 146.857Z" fill="#FFC29E"/>
<path fill-rule="evenodd" clip-rule="evenodd" d="M130.568 60.7424C130.784 60.9695 130.776 61.3293 130.549 61.5461L130.227 61.8576L129.83 62.2459C129.461 62.6079 129.048 63.0186 128.593 63.4762L128.134 63.9392C126.572 65.5196 124.849 67.3155 123.004 69.3044C117.339 75.4088 111.674 82.0727 106.388 89.0741C97.5151 100.826 90.6306 112.314 86.5069 123.077C83.6078 130.643 82.1482 137.684 82.29 144.097C82.2969 144.411 82.0481 144.671 81.7342 144.678C81.4203 144.685 81.1602 144.436 81.1533 144.122C81.0079 137.547 82.4969 130.365 85.4452 122.67C89.6125 111.793 96.5488 100.219 105.481 88.3891C110.674 81.5109 116.228 74.9596 121.791 68.9407L122.17 68.5311C124.095 66.4566 125.888 64.5908 127.505 62.9585L128.012 62.4479C128.383 62.0771 128.723 61.7391 129.033 61.4349L129.484 60.9939L129.764 60.7235C129.991 60.5068 130.351 60.5152 130.568 60.7424Z" fill="white"/>
<path fill-rule="evenodd" clip-rule="evenodd" d="M96.8434 169.5L103.912 136.985C104.499 134.522 102.585 132.172 100.008 132.172H56.0452C53.4681 132.172 51.5731 134.503 52.1227 136.947L59.3424 169.292" fill="#E0840B"/>
<rect x="105.957" y="118.177" width="51.4258" height="12.8667" transform="rotate(90 105.957 118.177)" fill="#2E186A"/>
<rect x="102.638" y="122.554" width="23.9507" height="6.91654" transform="rotate(90 102.638 122.554)" fill="white"/>
<rect x="102.637" y="147.507" width="2.2359" height="6.91656" transform="rotate(90 102.637 147.507)" fill="#FF8D7E"/>
<path fill-rule="evenodd" clip-rule="evenodd" d="M99.0604 157.771C97.4069 157.771 96.0664 159.112 96.0664 160.765C96.0664 162.419 97.4069 163.759 99.0604 163.759C100.714 163.759 102.054 162.419 102.054 160.765C102.054 159.112 100.714 157.771 99.0604 157.771ZM99.0604 158.908C100.086 158.908 100.917 159.74 100.917 160.765C100.917 161.791 100.086 162.622 99.0604 162.622C98.0348 162.622 97.2034 161.791 97.2034 160.765C97.2034 159.74 98.0348 158.908 99.0604 158.908Z" fill="white"/>
<path fill-rule="evenodd" clip-rule="evenodd" d="M101.845 127.681C102.159 127.681 102.414 127.936 102.414 128.25C102.414 128.553 102.177 128.8 101.879 128.817L101.845 128.818H96.7101C96.3961 128.818 96.1416 128.564 96.1416 128.25C96.1416 127.947 96.3783 127.7 96.6767 127.682L96.7101 127.681H101.845Z" fill="#FF8D7E"/>
<path fill-rule="evenodd" clip-rule="evenodd" d="M101.845 130.315C102.159 130.315 102.414 130.57 102.414 130.884C102.414 131.186 102.177 131.434 101.879 131.451L101.845 131.452H96.7101C96.3961 131.452 96.1416 131.198 96.1416 130.884C96.1416 130.581 96.3783 130.333 96.6767 130.316L96.7101 130.315H101.845Z" fill="#FF8D7E"/>
<path fill-rule="evenodd" clip-rule="evenodd" d="M101.845 132.949C102.159 132.949 102.414 133.204 102.414 133.517C102.414 133.82 102.177 134.068 101.879 134.085L101.845 134.086H96.7101C96.3961 134.086 96.1416 133.831 96.1416 133.517C96.1416 133.215 96.3783 132.967 96.6767 132.95L96.7101 132.949H101.845Z" fill="#FF8D7E"/>
<rect x="118.789" y="118.222" width="51.4258" height="12.8667" transform="rotate(90 118.789 118.222)" fill="#2E186A"/>
<rect x="115.451" y="122.599" width="23.9507" height="6.91653" transform="rotate(90 115.451 122.599)" fill="white"/>
<rect x="115.469" y="147.552" width="2.23587" height="6.91654" transform="rotate(90 115.469 147.552)" fill="#FF8D7E"/>
<path fill-rule="evenodd" clip-rule="evenodd" d="M111.87 157.828C110.216 157.828 108.876 159.169 108.876 160.822C108.876 162.475 110.216 163.816 111.87 163.816C113.524 163.816 114.864 162.475 114.864 160.822C114.864 159.169 113.524 157.828 111.87 157.828ZM111.87 158.965C112.896 158.965 113.727 159.796 113.727 160.822C113.727 161.848 112.896 162.679 111.87 162.679C110.844 162.679 110.013 161.848 110.013 160.822C110.013 159.796 110.844 158.965 111.87 158.965Z" fill="white"/>
<path fill-rule="evenodd" clip-rule="evenodd" d="M114.598 138.709C114.912 138.709 115.167 138.964 115.167 139.278C115.167 139.58 114.93 139.828 114.632 139.845L114.598 139.846H109.463C109.149 139.846 108.895 139.592 108.895 139.278C108.895 138.975 109.131 138.727 109.43 138.71L109.463 138.709H114.598Z" fill="#FF8D7E"/>
<path fill-rule="evenodd" clip-rule="evenodd" d="M114.598 125.085C114.912 125.085 115.167 125.34 115.167 125.654C115.167 125.957 114.93 126.204 114.632 126.221L114.598 126.222H109.463C109.149 126.222 108.895 125.968 108.895 125.654C108.895 125.351 109.131 125.104 109.43 125.086L109.463 125.085H114.598Z" fill="#FF8D7E"/>
<path fill-rule="evenodd" clip-rule="evenodd" d="M114.598 141.343C114.912 141.343 115.167 141.598 115.167 141.912C115.167 142.214 114.93 142.462 114.632 142.479L114.598 142.48H109.463C109.149 142.48 108.895 142.226 108.895 141.912C108.895 141.609 109.131 141.361 109.43 141.344L109.463 141.343H114.598Z" fill="#FF8D7E"/>
<path fill-rule="evenodd" clip-rule="evenodd" d="M114.598 143.977C114.912 143.977 115.167 144.231 115.167 144.545C115.167 144.848 114.93 145.095 114.632 145.113L114.598 145.114H109.463C109.149 145.114 108.895 144.859 108.895 144.545C108.895 144.243 109.131 143.995 109.43 143.978L109.463 143.977H114.598Z" fill="#FF8D7E"/>
<rect x="157.067" y="118.221" width="51.4257" height="12.8667" transform="rotate(90 157.067 118.221)" fill="#2E186A"/>
<rect x="153.729" y="122.598" width="23.9507" height="6.91654" transform="rotate(90 153.729 122.598)" fill="white"/>
<rect x="153.747" y="147.552" width="2.23592" height="6.91658" transform="rotate(90 153.747 147.552)" fill="#FF8D7E"/>
<path fill-rule="evenodd" clip-rule="evenodd" d="M150.147 157.828C148.494 157.828 147.153 159.168 147.153 160.822C147.153 162.475 148.494 163.816 150.147 163.816C151.801 163.816 153.141 162.475 153.141 160.822C153.141 159.168 151.801 157.828 150.147 157.828ZM150.147 158.965C151.173 158.965 152.004 159.796 152.004 160.822C152.004 161.847 151.173 162.679 150.147 162.679C149.122 162.679 148.29 161.847 148.29 160.822C148.29 159.796 149.122 158.965 150.147 158.965Z" fill="white"/>
<path fill-rule="evenodd" clip-rule="evenodd" d="M152.877 138.709C153.191 138.709 153.445 138.964 153.445 139.278C153.445 139.58 153.208 139.828 152.91 139.845L152.877 139.846H147.741C147.427 139.846 147.173 139.592 147.173 139.278C147.173 138.975 147.41 138.727 147.708 138.71L147.741 138.709H152.877Z" fill="#FF8D7E"/>
<path fill-rule="evenodd" clip-rule="evenodd" d="M152.877 125.085C153.191 125.085 153.445 125.34 153.445 125.654C153.445 125.957 153.208 126.204 152.91 126.221L152.877 126.222H147.741C147.427 126.222 147.173 125.968 147.173 125.654C147.173 125.351 147.41 125.104 147.708 125.086L147.741 125.085H152.877Z" fill="#2E186A"/>
<path fill-rule="evenodd" clip-rule="evenodd" d="M152.877 141.343C153.191 141.343 153.445 141.597 153.445 141.911C153.445 142.214 153.208 142.462 152.91 142.479L152.877 142.48H147.741C147.427 142.48 147.173 142.225 147.173 141.911C147.173 141.609 147.41 141.361 147.708 141.344L147.741 141.343H152.877Z" fill="#FF8D7E"/>
<path fill-rule="evenodd" clip-rule="evenodd" d="M152.877 143.977C153.191 143.977 153.445 144.231 153.445 144.545C153.445 144.848 153.208 145.095 152.91 145.113L152.877 145.114H147.741C147.427 145.114 147.173 144.859 147.173 144.545C147.173 144.242 147.41 143.995 147.708 143.978L147.741 143.977H152.877Z" fill="#FF8D7E"/>
<rect x="93.2822" y="118.224" width="51.4258" height="12.8667" transform="rotate(90 93.2822 118.224)" fill="#2E186A"/>
<rect x="89.9434" y="122.601" width="23.9507" height="6.91654" transform="rotate(90 89.9434 122.601)" fill="white"/>
<rect x="89.9609" y="147.554" width="2.23591" height="6.91657" transform="rotate(90 89.9609 147.554)" fill="#FF8D7E"/>
<path fill-rule="evenodd" clip-rule="evenodd" d="M86.3641 157.828C84.7106 157.828 83.3701 159.168 83.3701 160.822C83.3701 162.475 84.7106 163.816 86.3641 163.816C88.0177 163.816 89.3582 162.475 89.3582 160.822C89.3582 159.168 88.0177 157.828 86.3641 157.828ZM86.3642 158.965C87.3898 158.965 88.2212 159.796 88.2212 160.822C88.2212 161.847 87.3898 162.679 86.3642 162.679C85.3386 162.679 84.5071 161.847 84.5071 160.822C84.5071 159.796 85.3386 158.965 86.3642 158.965Z" fill="white"/>
<path fill-rule="evenodd" clip-rule="evenodd" d="M89.0739 138.709C89.3879 138.709 89.6424 138.964 89.6424 139.278C89.6424 139.58 89.4057 139.828 89.1073 139.845L89.0739 139.846H83.9386C83.6246 139.846 83.3701 139.592 83.3701 139.278C83.3701 138.975 83.6068 138.727 83.9052 138.71L83.9386 138.709H89.0739Z" fill="#FF8D7E"/>
<path fill-rule="evenodd" clip-rule="evenodd" d="M89.0739 125.085C89.3879 125.085 89.6424 125.34 89.6424 125.654C89.6424 125.957 89.4057 126.204 89.1073 126.221L89.0739 126.222H83.9386C83.6246 126.222 83.3701 125.968 83.3701 125.654C83.3701 125.351 83.6068 125.104 83.9052 125.086L83.9386 125.085H89.0739Z" fill="#FF8D7E"/>
<path fill-rule="evenodd" clip-rule="evenodd" d="M89.0739 141.343C89.3879 141.343 89.6424 141.597 89.6424 141.911C89.6424 142.214 89.4057 142.462 89.1073 142.479L89.0739 142.48H83.9386C83.6246 142.48 83.3701 142.225 83.3701 141.911C83.3701 141.609 83.6068 141.361 83.9052 141.344L83.9386 141.343H89.0739Z" fill="#FF8D7E"/>
<path fill-rule="evenodd" clip-rule="evenodd" d="M89.0739 143.977C89.3879 143.977 89.6424 144.231 89.6424 144.545C89.6424 144.848 89.4057 145.096 89.1073 145.113L89.0739 145.114H83.9386C83.6246 145.114 83.3701 144.859 83.3701 144.545C83.3701 144.243 83.6068 143.995 83.9052 143.978L83.9386 143.977H89.0739Z" fill="#FF8D7E"/>
<rect x="131.583" y="118.219" width="51.4258" height="12.8667" transform="rotate(90 131.583 118.219)" fill="#2E186A"/>
<rect x="128.245" y="122.596" width="23.9507" height="6.91658" transform="rotate(90 128.245 122.596)" fill="white"/>
<rect x="128.263" y="147.549" width="2.23587" height="6.91653" transform="rotate(90 128.263 147.549)" fill="#FF8D7E"/>
<path fill-rule="evenodd" clip-rule="evenodd" d="M124.661 157.828C123.007 157.828 121.667 159.169 121.667 160.822C121.667 162.475 123.007 163.816 124.661 163.816C126.315 163.816 127.655 162.475 127.655 160.822C127.655 159.169 126.315 157.828 124.661 157.828ZM124.661 158.965C125.687 158.965 126.518 159.796 126.518 160.822C126.518 161.848 125.687 162.679 124.661 162.679C123.635 162.679 122.804 161.848 122.804 160.822C122.804 159.796 123.635 158.965 124.661 158.965Z" fill="white"/>
<path fill-rule="evenodd" clip-rule="evenodd" d="M127.389 138.709C127.703 138.709 127.958 138.964 127.958 139.278C127.958 139.58 127.721 139.828 127.423 139.845L127.389 139.846H122.254C121.94 139.846 121.686 139.592 121.686 139.278C121.686 138.975 121.922 138.727 122.221 138.71L122.254 138.709H127.389Z" fill="#FF8D7E"/>
<path fill-rule="evenodd" clip-rule="evenodd" d="M127.389 125.086C127.703 125.086 127.958 125.34 127.958 125.654C127.958 125.957 127.721 126.204 127.423 126.221L127.389 126.222H122.254C121.94 126.222 121.686 125.968 121.686 125.654C121.686 125.351 121.922 125.104 122.221 125.086L122.254 125.086H127.389Z" fill="#2E186A"/>
<path fill-rule="evenodd" clip-rule="evenodd" d="M127.389 141.343C127.703 141.343 127.958 141.598 127.958 141.912C127.958 142.214 127.721 142.462 127.423 142.479L127.389 142.48H122.254C121.94 142.48 121.686 142.225 121.686 141.912C121.686 141.609 121.922 141.361 122.221 141.344L122.254 141.343H127.389Z" fill="#FF8D7E"/>
<path fill-rule="evenodd" clip-rule="evenodd" d="M127.389 143.977C127.703 143.977 127.958 144.231 127.958 144.545C127.958 144.848 127.721 145.096 127.423 145.113L127.389 145.114H122.254C121.94 145.114 121.686 144.859 121.686 144.545C121.686 144.243 121.922 143.995 122.221 143.978L122.254 143.977H127.389Z" fill="#FF8D7E"/>
<rect x="144.259" y="118.172" width="51.4258" height="12.8667" transform="rotate(90 144.259 118.172)" fill="#2E186A"/>
<rect x="140.939" y="122.549" width="23.9507" height="6.91656" transform="rotate(90 140.939 122.549)" fill="white"/>
<rect x="140.938" y="147.502" width="2.23591" height="6.91655" transform="rotate(90 140.938 147.502)" fill="#FF8D7E"/>
<path fill-rule="evenodd" clip-rule="evenodd" d="M137.357 157.771C135.704 157.771 134.363 159.112 134.363 160.765C134.363 162.419 135.704 163.759 137.357 163.759C139.011 163.759 140.351 162.419 140.351 160.765C140.351 159.112 139.011 157.771 137.357 157.771ZM137.357 158.908C138.383 158.908 139.214 159.74 139.214 160.765C139.214 161.791 138.383 162.622 137.357 162.622C136.332 162.622 135.5 161.791 135.5 160.765C135.5 159.74 136.332 158.908 137.357 158.908Z" fill="white"/>
<path fill-rule="evenodd" clip-rule="evenodd" d="M140.162 127.681C140.476 127.681 140.73 127.936 140.73 128.25C140.73 128.553 140.494 128.8 140.195 128.817L140.162 128.818H135.026C134.713 128.818 134.458 128.564 134.458 128.25C134.458 127.947 134.695 127.7 134.993 127.682L135.026 127.681H140.162Z" fill="#FF8D7E"/>
<path fill-rule="evenodd" clip-rule="evenodd" d="M140.162 130.315C140.476 130.315 140.73 130.57 140.73 130.884C140.73 131.186 140.494 131.434 140.195 131.451L140.162 131.452H135.026C134.713 131.452 134.458 131.198 134.458 130.884C134.458 130.581 134.695 130.333 134.993 130.316L135.026 130.315H140.162Z" fill="#FF8D7E"/>
<path fill-rule="evenodd" clip-rule="evenodd" d="M140.162 132.949C140.476 132.949 140.73 133.203 140.73 133.517C140.73 133.82 140.494 134.068 140.195 134.085L140.162 134.086H135.026C134.713 134.086 134.458 133.831 134.458 133.517C134.458 133.215 134.695 132.967 134.993 132.95L135.026 132.949H140.162Z" fill="#FF8D7E"/>
<path fill-rule="evenodd" clip-rule="evenodd" d="M252.815 75.1186C252.815 75.1186 260.414 72.2195 264.413 67.5392C266.8 64.7349 269.851 60.9831 269.662 59.8841C269.339 57.8187 265.303 61.4568 264.621 61.9684" fill="white"/>
<path fill-rule="evenodd" clip-rule="evenodd" d="M268.666 58.7177C269.471 58.5725 270.092 58.9523 270.222 59.7875C270.428 60.9847 268.598 63.5005 264.845 67.9084C263.625 69.3368 262.021 70.6809 260.126 71.9374C258.572 72.9687 256.909 73.8841 255.246 74.6745C254.664 74.9511 254.124 75.1926 253.638 75.3975L253.364 75.5114L253.018 75.6496C252.725 75.7615 252.396 75.6145 252.285 75.3211C252.177 75.0383 252.31 74.7227 252.582 74.6002L252.762 74.5289C252.887 74.4789 253.032 74.4192 253.196 74.3499C253.667 74.1514 254.192 73.9169 254.758 73.6478C256.375 72.8789 257.992 71.9888 259.498 70.99C261.311 69.7874 262.837 68.5089 263.98 67.1707L264.455 66.6094C267.375 63.1429 269.169 60.6451 269.103 59.9919L269.093 59.9299C269.072 59.7971 269.059 59.8021 268.868 59.8365C268.532 59.8971 268.027 60.1454 267.415 60.5469C267.203 60.6856 266.981 60.8404 266.75 61.0104L266.574 61.141C266.041 61.5445 264.951 62.4319 264.962 62.4231C264.711 62.6115 264.355 62.5606 264.166 62.3094C263.985 62.0679 264.025 61.7292 264.252 61.5361L264.7 61.1723C265.082 60.8641 265.634 60.4236 265.954 60.1852C266.245 59.9681 266.524 59.7714 266.791 59.5961C267.522 59.1171 268.142 58.8122 268.666 58.7177Z" fill="#2E186A"/>
<path fill-rule="evenodd" clip-rule="evenodd" d="M257.326 68.2025C257.326 68.2025 260.509 65.2466 261.988 62.6507C263.447 60.0547 264.64 58.3494 264.205 57.9704C263.769 57.5915 261.571 57.6104 260.509 59.1263C259.316 61.7601 255.033 65.2845 255.033 65.2845C255.564 65.095 258.387 62.2717 259.714 60.5095C261.021 58.7473 261.23 55.8672 257.288 58.8799C257.288 58.8799 253.119 62.2338 251.508 63.2191C251.508 63.2191 244.402 65.4929 242.507 68.3731C241.238 70.3247 234.056 88.3256 229.527 99.8652C223.387 94.0859 217.551 88.5151 217.551 88.5151L188.104 94.806C188.104 94.806 189.695 96.8903 213.363 119.685C225.301 131.187 233.184 132.002 237.941 128.913C240.575 127.643 243.019 124.157 243.341 121.561L250.694 75.8008C255.014 74.266 257.951 72.5417 259.884 70.9879C262.367 68.9794 268.203 59.3915 268.203 58.4441C268.184 55.924 264.603 57.9136 262.253 62.3664" fill="white"/>
<path fill-rule="evenodd" clip-rule="evenodd" d="M265.802 57.3072C267.376 56.3309 268.758 56.693 268.771 58.444C268.771 59.8257 262.537 69.5719 260.24 71.4309C258.101 73.1501 255.187 74.7494 251.476 76.1216L251.201 76.2221L243.903 121.644L243.894 121.717C243.502 124.529 240.958 128.043 238.269 129.385L238.22 129.409L238.16 129.447C235.481 131.148 232.166 131.516 228.307 130.353L228.177 130.313C223.793 128.957 218.78 125.662 213.139 120.259L212.351 119.5C202.743 110.242 196.127 103.776 191.972 99.6169L191.265 98.9081C190.019 97.6551 189.111 96.724 188.486 96.0664L188.186 95.7472C187.867 95.4058 187.709 95.2264 187.651 95.1509C187.405 94.8285 187.567 94.3638 187.951 94.2581L187.984 94.25L217.432 87.9591C217.603 87.9225 217.782 87.9672 217.915 88.0789L217.971 88.13L221.628 91.6107L223.317 93.2138C225.007 94.8172 226.699 96.4178 228.353 97.9783L229.305 98.875L230.33 96.27C236.219 81.3289 240.903 69.8883 241.998 68.1148L242.032 68.0605C242.818 66.8657 244.387 65.7389 246.522 64.6617C247.576 64.1299 248.702 63.6449 249.827 63.2155L250.085 63.118C250.382 63.0072 250.66 62.9073 250.915 62.8188L251.168 62.7328L251.267 62.6996L251.303 62.6769C251.794 62.3678 252.536 61.8374 253.462 61.1408L253.871 60.8314L254.001 60.7321C254.659 60.2302 255.349 59.6921 256.03 59.1539L256.6 58.702L256.942 58.4282C257.934 57.6702 258.74 57.22 259.378 57.0635C260.103 56.8858 260.7 57.0856 260.979 57.6532C260.998 57.6928 261.016 57.7338 261.031 57.7761L261.053 57.8411L261.106 57.8081C261.496 57.5695 261.932 57.3994 262.393 57.2983L262.48 57.2802C263.329 57.1108 264.178 57.194 264.577 57.5414C264.725 57.6703 264.811 57.822 264.846 57.9928L264.851 58.0196L264.88 57.9942C265.165 57.748 265.448 57.5336 265.726 57.355L265.802 57.3072ZM267.451 57.9174C267.261 57.8675 266.881 57.9756 266.401 58.2733C265.201 59.0176 263.811 60.6305 262.755 62.6316C262.701 62.7344 262.62 62.8137 262.525 62.8654L262.516 62.8696L262.481 62.9318C262.317 63.2197 262.13 63.5173 261.922 63.824C261.508 64.4327 261.015 65.0699 260.459 65.7256C259.858 66.4337 259.216 67.1265 258.574 67.7764L258.408 67.9429C258.273 68.0782 258.144 68.2048 258.024 68.3218L257.841 68.4971L257.712 68.6189C257.482 68.8326 257.123 68.8192 256.909 68.5892C256.695 68.3591 256.709 67.9994 256.939 67.7858L257.091 67.642L257.303 67.4367C257.446 67.2965 257.601 67.1428 257.765 66.9772C258.388 66.3465 259.011 65.6743 259.592 64.9901C260.123 64.3633 260.593 63.7572 260.981 63.185C261.174 62.9022 261.345 62.6298 261.491 62.372L261.687 62.029C262.153 61.2181 263.104 59.5869 263.305 59.2112L263.376 59.0764C263.523 58.7939 263.622 58.5744 263.678 58.4102L263.692 58.3661L263.679 58.3634C263.65 58.3581 263.62 58.3533 263.587 58.3492L263.537 58.3436C263.293 58.3197 263 58.3358 262.702 58.3951C262.01 58.5331 261.406 58.8726 261.016 59.3954L261.002 59.4149L260.982 59.458C260.904 59.6208 260.816 59.7874 260.718 59.9578L260.664 60.0497L260.642 60.092C260.518 60.3308 260.374 60.566 260.212 60.7903L260.167 60.8512C258.828 62.6301 255.926 65.5689 255.224 65.8197C254.634 66.0303 254.195 65.277 254.647 64.8667L254.679 64.8394L254.912 64.6428L255.061 64.5138C255.215 64.3806 255.381 64.2346 255.556 64.0773C256.224 63.4782 256.891 62.8393 257.513 62.1887C258.09 61.584 258.598 60.9996 259.018 60.4483C259.248 60.1455 259.449 59.8561 259.618 59.5824L259.649 59.5311L259.653 59.5225C259.936 58.9571 260.059 58.4109 259.968 58.1764L259.955 58.1469L259.951 58.1458C259.902 58.1293 259.802 58.1301 259.649 58.1677C259.192 58.2797 258.511 58.6601 257.644 59.3227L257.033 59.8098C256.938 59.8858 256.838 59.9646 256.735 60.0458L256.22 60.4517C255.79 60.789 255.36 61.1228 254.941 61.4444L254.559 61.7361L254.139 62.0538C253.129 62.8141 252.331 63.382 251.805 63.7039C251.766 63.7276 251.725 63.7465 251.681 63.7604L251.581 63.7933C251.514 63.8157 251.437 63.8415 251.353 63.8706L251.288 63.893C250.97 64.0031 250.615 64.1318 250.232 64.2777C249.141 64.6942 248.049 65.1643 247.034 65.6767C245.064 66.6708 243.63 67.7009 242.984 68.6829C241.951 70.2705 236.526 83.5858 230.056 100.073C229.909 100.447 229.43 100.555 229.137 100.279L227.613 98.8425C225.564 96.9104 223.458 94.9163 221.367 92.931L217.375 89.1335L189.189 95.1549L189.609 95.5962C190.19 96.2015 190.97 96.9985 191.979 98.0139L192.645 98.6821C196.829 102.873 203.575 109.467 213.448 118.977L213.757 119.276C219.349 124.663 224.276 127.917 228.513 129.227C232.159 130.355 235.199 130.015 237.631 128.436C237.651 128.423 237.672 128.411 237.693 128.401C240.068 127.256 242.421 124.028 242.766 121.568L242.78 121.471L250.132 75.7105C250.165 75.5054 250.307 75.3346 250.503 75.265C254.382 73.887 257.38 72.2707 259.526 70.5459C260.56 69.7095 262.401 67.2653 264.354 64.232L264.495 64.0117C265.325 62.7141 266.103 61.4198 266.687 60.3673L266.754 60.2469C267.044 59.7204 267.274 59.2737 267.431 58.9347L267.479 58.8287C267.531 58.7102 267.572 58.6097 267.6 58.5296L267.628 58.4496C267.632 58.4378 267.634 58.436 267.634 58.4483C267.631 58.0712 267.557 57.9452 267.451 57.9174Z" fill="#2E186A"/>
<path fill-rule="evenodd" clip-rule="evenodd" d="M229.508 99.8461C229.508 99.8461 222.345 112.049 226.438 118.586L229.508 99.8461Z" fill="white"/>
<path fill-rule="evenodd" clip-rule="evenodd" d="M229.795 99.3559C230.056 99.5089 230.149 99.8376 230.014 100.103L229.903 100.299C229.877 100.345 229.849 100.396 229.819 100.451L229.719 100.632C229.617 100.819 229.509 101.024 229.394 101.246L229.336 101.358C228.835 102.334 228.334 103.408 227.867 104.547C226.909 106.881 226.22 109.175 225.914 111.309C225.51 114.137 225.806 116.507 226.919 118.284C227.086 118.55 227.005 118.901 226.739 119.068C226.473 119.234 226.122 119.154 225.956 118.888C224.679 116.848 224.349 114.218 224.789 111.148C225.11 108.909 225.824 106.529 226.815 104.116C227.295 102.945 227.81 101.842 228.324 100.839L228.443 100.61C228.559 100.387 228.67 100.181 228.773 99.9931L228.939 99.6934L229.017 99.5584C229.176 99.2876 229.524 99.197 229.795 99.3559Z" fill="#2E186A"/>
<path fill-rule="evenodd" clip-rule="evenodd" d="M106.147 87.7003C106.147 87.7003 98.2829 85.6729 93.7729 81.4853C91.0821 78.9841 87.6333 75.5924 87.6901 74.4744C87.7849 72.3901 92.2001 75.5355 92.9202 75.9713" fill="white"/>
<path fill-rule="evenodd" clip-rule="evenodd" d="M92.6259 76.4576L92.5463 76.4048C92.2734 76.2277 91.3982 75.6664 90.9522 75.4016L90.9218 75.3836C90.6318 75.2126 90.3557 75.0591 90.0938 74.9244C89.4427 74.5894 88.9069 74.3867 88.5453 74.344L88.5028 74.3397C88.277 74.3203 88.2668 74.3201 88.259 74.4813L88.258 74.5033C88.2242 75.1673 90.5971 77.757 94.1599 81.0687C95.367 82.1896 96.9002 83.2224 98.6832 84.1628C100.346 85.04 102.132 85.7893 103.918 86.4104C104.492 86.6098 105.027 86.7824 105.513 86.9286L105.644 86.9678C105.774 87.0062 105.893 87.0406 106.001 87.071L106.289 87.1499C106.593 87.2283 106.776 87.5382 106.698 87.8422C106.622 88.1354 106.331 88.3159 106.038 88.2582L105.956 88.2379L105.822 88.2015C105.677 88.1615 105.51 88.1137 105.321 88.0578C104.785 87.8988 104.188 87.7077 103.545 87.4843C101.708 86.8457 99.8712 86.0748 98.1527 85.1684C96.2877 84.1847 94.6743 83.0978 93.386 81.9016L93.0205 81.5609C89.1373 77.9301 87.0624 75.6282 87.1224 74.4486C87.1621 73.5753 87.7607 73.135 88.5999 73.207C89.1461 73.2538 89.815 73.5023 90.614 73.9134C90.8562 74.038 91.1074 74.1763 91.368 74.3275L91.4991 74.4041C91.7888 74.5748 92.2652 74.8748 92.6435 75.116L93.2147 75.485C93.4833 75.6476 93.5692 75.9971 93.4066 76.2656C93.2441 76.5342 92.8945 76.6202 92.6259 76.4576Z" fill="#2E186A"/>
<path fill-rule="evenodd" clip-rule="evenodd" d="M100.879 81.3337C100.879 81.3337 97.3738 78.7567 95.6305 76.3503C93.8871 73.9249 92.5228 72.3711 92.9017 71.9543C93.2807 71.5185 95.4789 71.2911 96.6916 72.6932C98.1886 75.1755 102.831 78.1883 102.831 78.1883C102.282 78.0746 99.1551 75.5734 97.6391 73.9628C96.1421 72.3522 95.6115 69.5289 99.8751 72.068C99.8751 72.068 104.404 74.9291 106.11 75.725C106.11 75.725 113.443 77.1651 115.641 79.8178C117.138 81.599 126.291 98.6714 132.108 109.624C137.547 103.181 142.72 96.985 142.72 96.985L172.679 99.903C172.679 99.903 171.334 102.158 150.413 127.473C139.84 140.263 132.127 141.949 127.049 139.429C124.282 138.463 121.459 135.28 120.852 132.74L108.365 88.0982C103.911 87.0561 100.766 85.6918 98.7003 84.3654C96.0095 82.6411 89.1119 73.7922 89.0171 72.8448C88.7518 70.3437 92.5417 71.8974 95.3652 76.066" fill="white"/>
<path fill-rule="evenodd" clip-rule="evenodd" d="M107.907 88.5737L107.834 88.5562C103.853 87.5907 100.671 86.3069 98.3933 84.844C95.89 83.2399 88.588 74.2694 88.4516 72.9048C88.2676 71.1706 89.6011 70.6517 91.2749 71.44C91.5614 71.575 91.8567 71.7433 92.1565 71.9417L92.2699 72.0181L92.2708 72.0109C92.2893 71.8677 92.3444 71.7349 92.4442 71.6139L92.4725 71.5813C92.8246 71.1765 93.6622 70.9938 94.5322 71.0681C95.0482 71.1122 95.5454 71.2426 95.9956 71.4617L96.0075 71.4677L96.0089 71.46C96.0187 71.4097 96.031 71.3607 96.0461 71.3131L96.062 71.266C96.2767 70.6721 96.8477 70.4079 97.5883 70.5025C98.2406 70.5858 99.0931 70.9408 100.179 71.5874L100.627 71.8684C100.786 71.9683 100.958 72.0753 101.14 72.188L101.765 72.5737C102.286 72.894 102.806 73.2098 103.309 73.5101L103.809 73.8072C104.866 74.4312 105.708 74.901 106.251 75.1631L106.289 75.1812L106.596 75.2467L106.668 75.2627C107.021 75.3409 107.413 75.4341 107.836 75.5421C109.043 75.8509 110.251 76.2172 111.382 76.6408C113.555 77.4547 115.187 78.3787 116.076 79.4521C117.285 80.891 122.914 91.1439 131.046 106.415L132.216 108.615L134.049 106.439C135.206 105.065 136.379 103.669 137.551 102.272L140.605 98.6276L142.283 96.6207C142.396 96.486 142.563 96.4114 142.737 96.4168L142.775 96.4192L172.734 99.3373C173.149 99.3777 173.381 99.8363 173.167 100.194L173.127 100.258C173.058 100.362 172.926 100.547 172.704 100.848L172.597 100.991C172.052 101.721 171.208 102.813 170.003 104.337L169.146 105.418C165.397 110.13 159.457 117.422 150.851 127.835C145.794 133.952 141.138 137.852 136.899 139.713C133.153 141.357 129.782 141.383 126.892 139.986L126.827 139.954L126.774 139.935C123.944 138.903 121.019 135.702 120.32 132.956L120.305 132.894L107.907 88.5737ZM89.5781 72.7423L89.5823 72.7827C89.583 72.7717 89.5967 72.8081 89.624 72.865C89.6658 72.9519 89.727 73.0635 89.806 73.1964L89.8364 73.2472C90.0289 73.5658 90.3075 73.983 90.6552 74.4732L90.8161 74.6985C91.4482 75.577 92.2485 76.6211 93.1021 77.6787L93.3258 77.9549C95.6691 80.8336 97.8567 83.1497 99.0073 83.887C101.245 85.3239 104.444 86.5969 108.494 87.5446C108.684 87.5891 108.837 87.7276 108.901 87.9103L108.912 87.945L121.399 132.587L121.405 132.608C121.981 135.021 124.713 138.011 127.236 138.893C127.258 138.9 127.28 138.909 127.301 138.92C129.901 140.21 132.953 140.203 136.442 138.672C140.457 136.909 144.931 133.178 149.826 127.29L152.63 123.894C159.814 115.181 164.91 108.915 168.255 104.711L169.192 103.53C170.133 102.339 170.846 101.421 171.362 100.74L171.64 100.373L142.964 97.5797L139.889 101.253L138.035 103.464C136.18 105.674 134.327 107.876 132.542 109.99C132.283 110.298 131.795 110.245 131.606 109.89L130.045 106.956C122.039 91.9223 116.334 81.5257 115.203 80.1804C114.471 79.2967 112.985 78.4549 110.983 77.7054C109.895 77.2977 108.725 76.9428 107.554 76.6434C107.144 76.5386 106.763 76.4482 106.422 76.3725L106.163 76.3164L106 76.2827C105.955 76.2738 105.911 76.2595 105.869 76.24C105.272 75.9613 104.33 75.4365 103.125 74.7237L102.726 74.4859C102.118 74.1225 101.485 73.7371 100.855 73.3486L100.122 72.8937L99.584 72.5563C98.6335 71.9902 97.9123 71.6899 97.4443 71.6301C97.1872 71.5973 97.144 71.6173 97.1313 71.6524C97.0456 71.8894 97.2439 72.4607 97.6206 73.0245L97.6525 73.0717L97.6867 73.1146C97.7542 73.1981 97.8251 73.283 97.8996 73.369L97.9752 73.4555C98.4872 74.0346 99.1393 74.6528 99.898 75.2924C100.607 75.89 101.368 76.4728 102.13 77.0163L102.327 77.1555C102.455 77.2459 102.578 77.3315 102.695 77.4118L102.955 77.588L103.141 77.7113C103.668 78.0536 103.332 78.8722 102.716 78.7448C101.984 78.5935 98.7718 75.9958 97.2225 74.3497C97.0512 74.1654 96.8927 73.9702 96.7501 73.7693L96.7153 73.7196L96.6472 73.6317C96.5031 73.4431 96.3739 73.2582 96.2602 73.077L96.2336 73.0338L96.2149 73.0128C95.7889 72.5503 95.1824 72.2805 94.5104 72.208L94.4354 72.2008C94.1338 72.175 93.8412 72.1923 93.6042 72.244C93.5541 72.2549 93.5081 72.2671 93.4671 72.2799L93.4586 72.2827L93.4614 72.2889C93.5334 72.4491 93.6619 72.6667 93.8528 72.9509L93.9384 73.0768C94.2204 73.4868 95.7276 75.5117 96.0906 76.0167C96.1915 76.1559 96.3004 76.2983 96.4172 76.4436C96.8901 77.0322 97.4821 77.6589 98.1656 78.3073C98.8327 78.9401 99.5492 79.5586 100.266 80.1364C100.454 80.2881 100.632 80.4287 100.797 80.5569L101.041 80.7444L101.216 80.8756C101.469 81.0615 101.523 81.4173 101.337 81.6703C101.151 81.9232 100.796 81.9775 100.543 81.7916L100.394 81.6806L100.267 81.5836C100.051 81.4183 99.8107 81.2299 99.5521 81.0214C98.8133 80.4257 98.0744 79.7879 97.3831 79.1321C96.6652 78.451 96.0392 77.7884 95.5308 77.1556C95.4346 77.0358 95.3428 76.9174 95.2551 76.7996L95.0775 76.5561L95.0623 76.5473C95.0067 76.5124 94.9565 76.4674 94.9145 76.4128L94.8943 76.3847C93.6273 74.5141 92.0677 73.07 90.7904 72.4684C90.2802 72.2281 89.8905 72.1646 89.706 72.2364C89.6064 72.2752 89.5476 72.3999 89.5781 72.7423Z" fill="#2E186A"/>
<path fill-rule="evenodd" clip-rule="evenodd" d="M132.107 109.624C132.107 109.624 140.597 120.936 137.3 127.89L132.107 109.624Z" fill="white"/>
<path fill-rule="evenodd" clip-rule="evenodd" d="M131.766 109.169C132.017 108.98 132.374 109.031 132.562 109.282L132.634 109.379C132.69 109.456 132.755 109.546 132.827 109.649L132.954 109.83C133.127 110.078 133.314 110.353 133.513 110.654C134.22 111.729 134.926 112.908 135.587 114.157C136.882 116.609 137.838 119.023 138.309 121.298C138.847 123.899 138.726 126.208 137.813 128.133C137.679 128.417 137.34 128.538 137.056 128.403C136.772 128.269 136.652 127.93 136.786 127.646C137.58 125.972 137.688 123.907 137.195 121.529C136.749 119.372 135.831 117.053 134.581 114.688C133.939 113.473 133.251 112.325 132.563 111.28L132.405 111.042C132.25 110.81 132.103 110.596 131.967 110.402L131.82 110.194L131.653 109.965C131.464 109.714 131.515 109.357 131.766 109.169Z" fill="#2E186A"/>
<path fill-rule="evenodd" clip-rule="evenodd" d="M204.571 79.723C214.292 82.6789 226.95 96.587 226.95 96.587L208.398 116.9L216.395 169.273L149.996 169.728L154.241 135.829C154.241 135.829 147.116 129.765 147.211 121.599C147.305 113.432 147.609 113.754 147.609 113.754L137.85 101.779C137.85 101.779 145.6 88.2687 153.824 85.1422C162.048 82.0157 195.248 76.8807 204.571 79.723Z" fill="#FF8D7E"/>
<path fill-rule="evenodd" clip-rule="evenodd" d="M166.197 75.687L166.766 82.1105L162.9 83.0958C161.271 84.1001 160.475 96.3597 172.451 95.128C184.427 93.8964 191.192 86.1465 192.84 79.3251L187.535 79.5714L184.162 63.4275L166.197 75.687Z" fill="white"/>
<path fill-rule="evenodd" clip-rule="evenodd" d="M165.877 75.2175L165.846 75.2402C165.696 75.3584 165.615 75.5451 165.632 75.7372L166.157 81.6789L162.76 82.545C162.705 82.5592 162.651 82.5818 162.602 82.6119C161.336 83.3925 160.985 87.218 162.039 90.1432C163.456 94.0759 166.953 96.265 172.509 95.6935C178.255 95.1027 183.141 93.0049 186.891 89.7522C190.216 86.8685 192.494 83.1807 193.393 79.4587L193.4 79.4253C193.465 79.0695 193.181 78.7403 192.814 78.7573L187.992 78.981L184.718 63.3112C184.636 62.9146 184.176 62.7296 183.841 62.958L165.877 75.2175ZM183.779 64.3767L186.978 79.6878L186.987 79.7215C187.056 79.9766 187.294 80.1518 187.561 80.1394L192.09 79.9289L192.067 80.0069C191.104 83.2193 189.049 86.3758 186.146 88.8934C182.574 91.9922 177.907 93.9956 172.393 94.5627C167.355 95.0808 164.348 93.1983 163.109 89.7578C162.633 88.437 162.465 86.9564 162.587 85.6248C162.64 85.0492 162.746 84.5357 162.887 84.1442L162.905 84.0944C162.991 83.8664 163.082 83.706 163.148 83.6271L163.157 83.6172L166.907 82.6615L166.94 82.6519C167.191 82.5714 167.356 82.3266 167.333 82.0605L166.793 75.9687L183.779 64.3767Z" fill="#2E186A"/>
<path fill-rule="evenodd" clip-rule="evenodd" d="M184.219 57.8188L185.867 58.141C185.867 58.141 195.456 59.2589 194.906 50.4858C194.489 43.816 187.933 44.2329 184.787 44.8013" fill="white"/>
<path fill-rule="evenodd" clip-rule="evenodd" d="M184.686 44.2419C186.979 43.8276 189.173 43.797 191.041 44.3871C193.665 45.2159 195.27 47.1933 195.474 50.4502C195.737 54.6518 193.838 57.1491 190.574 58.2096C189.057 58.7026 187.478 58.8205 186.107 58.7312L185.977 58.7219C185.9 58.7159 185.841 58.7101 185.802 58.7055L185.78 58.7026L185.759 58.6988L184.11 58.3767C183.802 58.3165 183.601 58.0179 183.661 57.7098C183.719 57.4127 183.999 57.2152 184.295 57.2554L184.328 57.2609L185.953 57.5781L186.012 57.5841C186.047 57.5871 186.09 57.5905 186.141 57.5941L186.18 57.5967C187.42 57.6774 188.865 57.5696 190.223 57.1284C193.015 56.2211 194.568 54.1786 194.339 50.5212C194.165 47.7416 192.882 46.1609 190.699 45.4712C189.043 44.948 187.016 44.9762 184.889 45.3607C184.58 45.4165 184.284 45.2113 184.228 44.9024C184.172 44.5934 184.377 44.2977 184.686 44.2419Z" fill="#2E186A"/>
<path fill-rule="evenodd" clip-rule="evenodd" d="M150.034 54.1238C150.337 58.1219 153.843 76.3502 166.691 76.2176C179.539 76.0849 186.758 63.5411 186.683 51.509C186.607 39.4768 180.126 30.211 171.997 30.1163C163.867 30.0216 147.817 25.1139 150.034 54.1238Z" fill="white"/>
<path fill-rule="evenodd" clip-rule="evenodd" d="M163.142 29.2134C158.606 29.4449 155.206 30.8854 152.81 34.1697C149.95 38.0905 148.761 44.4782 149.446 53.8813L149.467 54.1668C149.721 57.5082 151.047 62.7682 153.15 66.974C156.255 73.1847 160.728 76.8476 166.697 76.786C172.964 76.7213 178.258 73.7731 181.992 68.6609C185.408 63.9844 187.29 57.753 187.251 51.5054C187.174 39.2589 180.538 29.6474 172.003 29.5479L171.569 29.5398C171.169 29.529 170.759 29.5076 170.083 29.4626L168.125 29.3259C165.939 29.1771 164.622 29.1379 163.142 29.2134ZM170.022 30.598C170.952 30.6597 171.39 30.6777 171.99 30.6847C179.798 30.7757 186.04 39.817 186.114 51.5126C186.152 57.5237 184.342 63.5169 181.074 67.9903C177.544 72.8232 172.579 75.5883 166.685 75.6492C161.223 75.7056 157.097 72.3262 154.167 66.4655C152.16 62.4524 150.877 57.4138 150.611 54.2046L150.601 54.0805C149.889 44.7655 151.027 38.5436 153.729 34.8396C155.873 31.9005 158.913 30.5914 163.07 30.3559L163.2 30.3489C164.625 30.2762 165.908 30.3144 168.054 30.4606L170.022 30.598Z" fill="#2E186A"/>
<rect width="4.6047" height="8.12889" transform="matrix(0.944406 0.328781 -0.328818 0.944393 186.01 14.2307)" fill="#FF8D7E"/>
<path fill-rule="evenodd" clip-rule="evenodd" d="M190.756 17.1557C195.246 17.1557 198.886 13.5163 198.886 9.02684C198.886 4.53741 195.246 0.89801 190.756 0.89801C186.267 0.89801 182.627 4.53741 182.627 9.02684C182.627 13.5163 186.267 17.1557 190.756 17.1557Z" fill="#2E186A"/>
<path fill-rule="evenodd" clip-rule="evenodd" d="M183.688 19.3726C176.469 17.0799 168.718 16.0188 161.896 18.7284C141.223 28.0699 141.185 43.6644 149.864 50.751C149.541 39.7042 152.232 34.3607 156.022 31.8406C160.172 38.4536 173.569 44.176 185.83 44.3086C185.849 44.4223 185.887 44.536 185.905 44.6307C189.278 44.2139 194.565 44.517 194.925 50.4858C195.437 58.7093 187.061 58.2546 186 58.1598C185.868 58.8041 184.143 64.697 184.143 64.697L186 73.129L213.269 68.8846C214.917 68.8467 216.054 67.2171 215.524 65.6634C212.245 55.905 206.902 27.0656 183.688 19.3726Z" fill="#2E186A"/>
<path fill-rule="evenodd" clip-rule="evenodd" d="M168.469 62.7825L168.405 62.7835L168.266 62.79L168.171 62.7954C167.968 62.8077 167.72 62.8263 167.454 62.8499C166.726 62.9145 165.978 63.0052 165.279 63.1226C164.373 63.275 163.611 63.462 163.033 63.6922C162.207 64.0217 161.707 64.4501 161.707 65.0949C161.707 66.2268 163.35 67.1999 164.997 67.2218C166.983 67.2482 168.54 65.9783 169.03 63.4603C169.037 63.4245 169.041 63.3881 169.041 63.3516L169.003 63.207C168.949 63.0063 168.929 62.9899 168.806 62.8915L168.729 62.8455C168.699 62.8283 168.686 62.824 168.652 62.8123L168.581 62.7934C168.57 62.791 168.562 62.79 168.549 62.7881L168.498 62.7833L168.469 62.7825ZM167.726 63.9675L167.711 64.0145C167.217 65.4527 166.245 66.1014 165.012 66.085C164.433 66.0773 163.844 65.9103 163.395 65.6444L163.35 65.6175C163.046 65.4288 162.875 65.2309 162.848 65.1232L162.846 65.1116L162.855 65.0996C162.867 65.0841 162.886 65.0649 162.912 65.0427C163.021 64.9493 163.205 64.8477 163.454 64.7484C163.943 64.5537 164.635 64.384 165.468 64.2438C166.134 64.1319 166.854 64.0445 167.554 63.9824L167.726 63.9675Z" fill="#2E186A"/>
<path fill-rule="evenodd" clip-rule="evenodd" d="M160.03 43.9304C160.333 43.9461 160.568 44.1952 160.57 44.4941L160.569 44.5275L159.808 59.2177L162.963 58.8273C163.264 58.7902 163.538 58.9946 163.592 59.2886L163.597 59.3217C163.634 59.6221 163.43 59.8968 163.136 59.9506L163.103 59.9556L159.275 60.4293C158.936 60.4714 158.639 60.2068 158.637 59.8697L158.637 59.8358L159.433 44.4687C159.449 44.1664 159.698 43.9315 159.997 43.9297L160.03 43.9304Z" fill="#2E186A"/>
<path fill-rule="evenodd" clip-rule="evenodd" d="M151.764 45.1832C152.418 45.0697 153.098 45.1285 153.756 45.293C154.008 45.3561 154.202 45.4203 154.319 45.4667C154.61 45.5827 154.753 45.9132 154.637 46.2049C154.525 46.4863 154.214 46.6288 153.93 46.5347L153.844 46.5033C153.83 46.4986 153.815 46.4933 153.797 46.4874C153.704 46.4565 153.598 46.4253 153.48 46.396C152.963 46.2667 152.434 46.2209 151.958 46.3034C151.322 46.4137 150.849 46.7398 150.545 47.3621C150.408 47.6443 150.067 47.7615 149.785 47.6239C149.503 47.4863 149.386 47.146 149.523 46.8638C149.995 45.8965 150.784 45.3532 151.764 45.1832Z" fill="#2E186A"/>
<path fill-rule="evenodd" clip-rule="evenodd" d="M171.712 46.8287C171.712 46.8287 167.051 47.5109 166.482 44.4792L171.712 46.8287Z" fill="white"/>
<path fill-rule="evenodd" clip-rule="evenodd" d="M166.378 43.9204C166.686 43.8625 166.984 44.0658 167.041 44.3743C167.227 45.3627 167.973 45.9349 169.186 46.1889C169.894 46.3372 170.661 46.3551 171.36 46.2952L171.47 46.2849L171.566 46.2745C171.6 46.2705 171.621 46.2676 171.63 46.2662C171.941 46.2208 172.23 46.4357 172.275 46.7464C172.321 47.057 172.106 47.3457 171.795 47.3912L171.712 47.4021C171.647 47.41 171.561 47.419 171.457 47.4279C170.657 47.4965 169.786 47.4762 168.953 47.3016C167.335 46.9628 166.208 46.099 165.924 44.5839C165.866 44.2753 166.069 43.9782 166.378 43.9204Z" fill="#2E186A"/>
<path fill-rule="evenodd" clip-rule="evenodd" d="M169.852 52.01C170.545 51.9021 170.971 50.9428 170.803 49.8674C170.636 48.792 169.939 48.0077 169.246 48.1156C168.553 48.2235 168.127 49.1828 168.295 50.2582C168.462 51.3336 169.159 52.1179 169.852 52.01Z" fill="#2E186A"/>
<path fill-rule="evenodd" clip-rule="evenodd" d="M155.755 54.5469C156.447 54.439 156.873 53.4798 156.706 52.4044C156.538 51.329 155.841 50.5447 155.148 50.6526C154.455 50.7605 154.029 51.7197 154.197 52.7951C154.364 53.8705 155.062 54.6548 155.755 54.5469Z" fill="#2E186A"/>
<path fill-rule="evenodd" clip-rule="evenodd" d="M170.219 36.3498C165.451 37.0721 162.415 42.6493 163.341 48.7563C164.266 54.8634 168.818 59.291 173.586 58.5687C178.354 57.8464 181.39 52.2692 180.465 46.1621C179.539 40.0551 174.987 35.6275 170.219 36.3498ZM170.39 37.474C174.458 36.8576 178.501 40.7892 179.341 46.3325C180.181 51.8759 177.484 56.8283 173.416 57.4447C169.347 58.0611 165.305 54.1295 164.465 48.5862C163.625 43.0428 166.321 38.0903 170.39 37.474Z" fill="#FF8D7E"/>
<path fill-rule="evenodd" clip-rule="evenodd" d="M148.331 40.235C143.564 40.9573 140.527 46.5345 141.453 52.6415C142.378 58.7486 146.93 63.1762 151.698 62.4539C156.466 61.7316 159.502 56.1543 158.577 50.0473C157.651 43.9403 153.099 39.5127 148.331 40.235ZM148.502 41.3591C152.571 40.7428 156.613 44.6744 157.453 50.2177C158.293 55.761 155.597 60.7135 151.528 61.3299C147.459 61.9463 143.417 58.0147 142.577 52.4713C141.737 46.928 144.433 41.9755 148.502 41.3591Z" fill="#FF8D7E"/>
<path fill-rule="evenodd" clip-rule="evenodd" d="M163.581 46.9887C163.89 46.935 164.185 47.1422 164.238 47.4516C164.29 47.7498 164.099 48.0341 163.808 48.1022L163.775 48.1088L157.768 49.151C157.459 49.2046 157.165 48.9974 157.111 48.6881C157.059 48.3898 157.25 48.1055 157.541 48.0375L157.574 48.0308L163.581 46.9887Z" fill="#FF8D7E"/>
<path fill-rule="evenodd" clip-rule="evenodd" d="M179.879 43.5708L187.477 44.0635C187.791 44.0838 188.028 44.3542 188.008 44.6675C187.988 44.9696 187.736 45.2012 187.437 45.1992L187.404 45.198L179.805 44.7053C179.492 44.685 179.254 44.4146 179.275 44.1013C179.294 43.7992 179.546 43.5676 179.845 43.5696L179.879 43.5708Z" fill="#FF8D7E"/>
<path fill-rule="evenodd" clip-rule="evenodd" d="M285.542 168.894C285.856 168.894 286.11 169.148 286.11 169.462C286.11 169.765 285.874 170.012 285.575 170.03L285.542 170.031H1.07239C0.758425 170.031 0.503906 169.776 0.503906 169.462C0.503906 169.16 0.74057 168.912 1.03899 168.895L1.07239 168.894H285.542Z" fill="#2E186A"/>
</svg>
