<svg width="16" height="16" fill="none" xmlns="http://www.w3.org/2000/svg"><g clip-path="url(#a)" fill="#D07C75"><path d="M10 4.3a.7.7 0 0 1-.7-.6v-1H6.7v1a.7.7 0 0 1-1.4 0v-1c0-.8.6-1.4 1.4-1.4h2.6c.8 0 1.4.6 1.4 1.4v1c0 .3-.3.6-.7.6Z"/><path d="M12 8.3V9c0 .3-.2.5-.5.5A.5.5 0 0 1 11 9v-.6H5V9c0 .3-.2.5-.5.5A.5.5 0 0 1 4 9v-.6H0v4.5c0 1 .8 1.9 1.8 1.9h12.4c1 0 1.8-.9 1.8-1.9V8.3h-4Zm2.2-5H1.8c-1 0-1.8.9-1.8 1.9v2.1h4v-.8c0-.3.2-.5.5-.5s.5.2.5.5v.8h6v-.8c0-.3.2-.5.5-.5s.5.2.5.5v.8h4V5.2c0-1-.8-1.9-1.8-1.9Z"/></g><defs><clipPath id="a"><path fill="#fff" d="M0 0h16v16H0z"/></clipPath></defs></svg>
