<svg width="207" height="130" viewBox="0 0 207 130" fill="none" xmlns="http://www.w3.org/2000/svg">
<path d="M19.7998 56.5024C27.4015 56.5024 33.5633 62.6639 33.5635 70.2632C33.5635 77.8626 27.4016 84.0249 19.7998 84.0249C12.1983 84.0246 6.03711 77.8625 6.03711 70.2632C6.03727 62.664 12.1984 56.5027 19.7998 56.5024Z" stroke="#D3DFFC" stroke-width="11"/>
<ellipse cx="178.101" cy="86.9443" rx="22.0151" ry="22.0126" fill="#FDE2B5"/>
<ellipse cx="165.063" cy="27.4791" rx="15.4105" ry="15.4088" fill="#FDC6BA"/>
<path d="M169.084 64.0443C168.191 64.694 167.993 65.9448 168.643 66.8381C169.292 67.7314 170.543 67.929 171.437 67.2794L170.26 65.6618L169.084 64.0443ZM120.637 23.1615L121.833 24.7649V24.7649L120.637 23.1615ZM1.4344 42.9091C0.375102 43.2221 -0.229882 44.3346 0.0831242 45.3939L5.18386 62.656C5.49686 63.7153 6.60933 64.3203 7.66862 64.0073C8.72792 63.6943 9.3329 62.5818 9.01989 61.5225L4.48591 46.1784L19.8301 41.6444C20.8894 41.3314 21.4943 40.2189 21.1813 39.1596C20.8683 38.1003 19.7559 37.4954 18.6966 37.8084L1.4344 42.9091ZM2.94216 47.5984C3.91983 48.1124 5.1291 47.7366 5.64314 46.7589C6.15718 45.7813 5.78134 44.572 4.80367 44.058L3.87291 45.8282L2.94216 47.5984ZM14.0359 48.4833C13.0218 48.0454 11.8447 48.5125 11.4069 49.5266C10.969 50.5406 11.4361 51.7177 12.4501 52.1556L13.243 50.3194L14.0359 48.4833ZM16.3925 53.7779C17.4212 54.1802 18.5812 53.6724 18.9835 52.6437C19.3858 51.6149 18.8779 50.4549 17.8492 50.0526L17.1208 51.9153L16.3925 53.7779ZM27.5311 53.3172C26.4679 53.0175 25.3631 53.6363 25.0633 54.6994C24.7636 55.7626 25.3824 56.8674 26.4455 57.1671L26.9883 55.2422L27.5311 53.3172ZM30.5556 58.2302C31.6308 58.4831 32.7074 57.8164 32.9603 56.7411C33.2131 55.6659 32.5464 54.5892 31.4711 54.3364L31.0134 56.2833L30.5556 58.2302ZM41.4923 56.0702C40.3943 55.9503 39.4069 56.7432 39.287 57.8412C39.167 58.9393 39.9599 59.9266 41.058 60.0466L41.2751 58.0584L41.4923 56.0702ZM45.3112 60.3976C46.4141 60.4589 47.3578 59.6146 47.4191 58.5117C47.4804 57.4089 46.6361 56.4651 45.5332 56.4038L45.4222 58.4007L45.3112 60.3976ZM55.6646 56.2568C54.5641 56.3518 53.7491 57.321 53.8441 58.4215C53.9392 59.522 54.9084 60.337 56.0089 60.2419L55.8367 58.2493L55.6646 56.2568ZM60.2634 59.7488C61.3565 59.5896 62.1134 58.5744 61.9542 57.4814C61.795 56.3883 60.7798 55.6313 59.6868 55.7906L59.9751 57.7697L60.2634 59.7488ZM69.5609 53.6091C68.5022 53.9241 67.8993 55.0378 68.2144 56.0965C68.5294 57.1552 69.643 57.758 70.7017 57.443L70.1313 55.526L69.5609 53.6091ZM74.7684 56.1086C75.8081 55.7355 76.3484 54.5902 75.9753 53.5506C75.6022 52.5109 74.457 51.9706 73.4173 52.3437L74.0929 54.2261L74.7684 56.1086ZM82.74 48.2986C81.7556 48.7997 81.3639 50.0039 81.8649 50.9882C82.366 51.9726 83.5702 52.3644 84.5546 51.8633L83.6473 50.0809L82.74 48.2986ZM88.3015 49.8484C89.2626 49.3041 89.6005 48.0837 89.0562 47.1225C88.5119 46.1614 87.2915 45.8235 86.3304 46.3678L87.3159 48.1081L88.3015 49.8484ZM94.9785 40.896C94.0721 41.5273 93.849 42.7738 94.4803 43.6802C95.1115 44.5867 96.3581 44.8097 97.2645 44.1785L96.1215 42.5373L94.9785 40.896ZM100.694 41.713C101.582 41.0556 101.768 39.8031 101.111 38.9154C100.453 38.0278 99.2009 37.8412 98.3132 38.4986L99.5036 40.1058L100.694 41.713ZM106.44 32.1255C105.585 32.8254 105.46 34.0856 106.16 34.94C106.86 35.7945 108.12 35.9198 108.974 35.2198L107.707 33.6727L106.44 32.1255ZM112.203 32.5509C113.052 31.8446 113.168 30.5836 112.462 29.7343C111.756 28.8851 110.495 28.7692 109.645 29.4755L110.924 31.0132L112.203 32.5509ZM117.76 22.8411C116.889 23.5197 116.732 24.7763 117.411 25.6479C118.089 26.5194 119.346 26.6759 120.217 25.9973L118.989 24.4192L117.76 22.8411ZM123.521 23.5324C124.419 22.8901 124.627 21.641 123.985 20.7423C123.343 19.8437 122.094 19.6358 121.195 20.2781L122.358 21.9052L123.521 23.5324ZM130.139 14.6052C129.172 15.1393 128.821 16.356 129.356 17.3229C129.89 18.2898 131.106 18.6407 132.073 18.1067L131.106 16.356L130.139 14.6052ZM135.666 16.2508C136.662 15.7726 137.081 14.5777 136.603 13.5821C136.125 12.5864 134.93 12.1669 133.934 12.6452L134.8 14.448L135.666 16.2508ZM143.963 8.82958C142.898 9.1243 142.274 10.2262 142.569 11.2907C142.864 12.3552 143.966 12.9793 145.03 12.6846L144.497 10.7571L143.963 8.82958ZM148.904 11.7913C149.991 11.5923 150.71 10.5502 150.511 9.4637C150.312 8.3772 149.27 7.65773 148.184 7.85671L148.544 9.82399L148.904 11.7913ZM159.105 7.32709C158.005 7.21977 157.027 8.02396 156.92 9.12331C156.813 10.2226 157.617 11.2008 158.716 11.3082L158.91 9.31763L159.105 7.32709ZM162.542 11.9373C163.617 12.1899 164.694 11.523 164.946 10.4477C165.199 9.37237 164.532 8.29589 163.457 8.04327L162.999 9.99026L162.542 11.9373ZM173.602 12.5037C172.692 11.8769 171.447 12.1061 170.82 13.0156C170.193 13.9251 170.422 15.1705 171.332 15.7973L172.467 14.1505L173.602 12.5037ZM174.323 18.2185C175.126 18.9772 176.392 18.9415 177.151 18.1387C177.909 17.336 177.874 16.0702 177.071 15.3114L175.697 16.765L174.323 18.2185ZM183.566 24.2766C183.091 23.2797 181.897 22.857 180.9 23.3325C179.903 23.808 179.481 25.0017 179.956 25.9987L181.761 25.1377L183.566 24.2766ZM181.377 29.606C181.71 30.6592 182.834 31.2431 183.887 30.9102C184.94 30.5773 185.524 29.4536 185.191 28.4004L183.284 29.0032L181.377 29.606ZM186.712 39.3089C186.742 38.2047 185.87 37.2858 184.766 37.2564C183.662 37.227 182.743 38.0983 182.714 39.2025L184.713 39.2557L186.712 39.3089ZM182.357 43.083C182.184 44.174 182.929 45.1982 184.02 45.3705C185.111 45.5428 186.135 44.798 186.308 43.707L184.332 43.395L182.357 43.083ZM182.879 54.1448C183.386 53.1634 183.001 51.9569 182.02 51.4501C181.039 50.9433 179.832 51.3281 179.325 52.3095L181.102 53.2272L182.879 54.1448ZM177.32 55.6619C176.696 56.5731 176.928 57.8179 177.839 58.4423C178.75 59.0667 179.995 58.8343 180.62 57.9232L178.97 56.7925L177.32 55.6619ZM173.186 65.9354C174.043 65.2393 174.174 63.9798 173.478 63.1221C172.782 62.2645 171.523 62.1335 170.665 62.8296L171.925 64.3825L173.186 65.9354ZM2.00114 44.8271L1.04565 46.5841C1.68064 46.9294 2.31281 47.2675 2.94216 47.5984L3.87291 45.8282L4.80367 44.058C4.19102 43.7358 3.57535 43.4066 2.95664 43.0701L2.00114 44.8271ZM13.243 50.3194L12.4501 52.1556C13.7774 52.7287 15.0915 53.2692 16.3925 53.7779L17.1208 51.9153L17.8492 50.0526C16.5923 49.5611 15.3213 49.0384 14.0359 48.4833L13.243 50.3194ZM26.9883 55.2422L26.4455 57.1671C27.8315 57.5579 29.2014 57.9118 30.5556 58.2302L31.0134 56.2833L31.4711 54.3364C30.1747 54.0316 28.8615 53.6924 27.5311 53.3172L26.9883 55.2422ZM41.2751 58.0584L41.058 60.0466C42.4953 60.2036 43.9129 60.3199 45.3112 60.3976L45.4222 58.4007L45.5332 56.4038C44.2062 56.3301 42.8594 56.2196 41.4923 56.0702L41.2751 58.0584ZM55.8367 58.2493L56.0089 60.2419C57.4503 60.1174 58.8683 59.952 60.2634 59.7488L59.9751 57.7697L59.6868 55.7906C58.3681 55.9827 57.0275 56.139 55.6646 56.2568L55.8367 58.2493ZM70.1313 55.526L70.7017 57.443C72.0829 57.032 73.4383 56.5859 74.7684 56.1086L74.0929 54.2261L73.4173 52.3437C72.1546 52.7968 70.8694 53.2198 69.5609 53.6091L70.1313 55.526ZM83.6473 50.0809L84.5546 51.8633C85.8298 51.2142 87.0785 50.541 88.3015 49.8484L87.3159 48.1081L86.3304 46.3678C85.1562 47.0327 83.9597 47.6777 82.74 48.2986L83.6473 50.0809ZM96.1215 42.5373L97.2645 44.1785C98.434 43.3639 99.5769 42.5403 100.694 41.713L99.5036 40.1058L98.3132 38.4986C97.2244 39.305 96.1132 40.1058 94.9785 40.896L96.1215 42.5373ZM107.707 33.6727L108.974 35.2198C110.079 34.3149 111.156 33.4222 112.203 32.5509L110.924 31.0132L109.645 29.4755C108.6 30.3447 107.533 31.2299 106.44 32.1255L107.707 33.6727ZM118.989 24.4192L120.217 25.9973C120.766 25.5704 121.304 25.1592 121.833 24.7649L120.637 23.1615L119.442 21.5581C118.888 21.9714 118.327 22.3998 117.76 22.8411L118.989 24.4192ZM120.637 23.1615L121.833 24.7649C122.399 24.3431 122.961 23.9323 123.521 23.5324L122.358 21.9052L121.195 20.2781C120.613 20.6938 120.029 21.1204 119.442 21.5581L120.637 23.1615ZM131.106 16.356L132.073 18.1067C133.29 17.4349 134.487 16.817 135.666 16.2508L134.8 14.448L133.934 12.6452C132.685 13.2452 131.42 13.898 130.139 14.6052L131.106 16.356ZM144.497 10.7571L145.03 12.6846C146.354 12.3182 147.645 12.0219 148.904 11.7913L148.544 9.82399L148.184 7.85671C146.804 8.10936 145.397 8.43261 143.963 8.82958L144.497 10.7571ZM158.91 9.31763L158.716 11.3082C160.043 11.4377 161.319 11.6499 162.542 11.9373L162.999 9.99026L163.457 8.04327C162.057 7.71455 160.606 7.47364 159.105 7.32709L158.91 9.31763ZM172.467 14.1505L171.332 15.7973C172.399 16.5326 173.397 17.3427 174.323 18.2185L175.697 16.765L177.071 15.3114C175.997 14.2966 174.84 13.3569 173.602 12.5037L172.467 14.1505ZM181.761 25.1377L179.956 25.9987C180.511 27.1613 180.985 28.367 181.377 29.606L183.284 29.0032L185.191 28.4004C184.744 26.9871 184.202 25.6086 183.566 24.2766L181.761 25.1377ZM184.713 39.2557L182.714 39.2025C182.679 40.492 182.561 41.7885 182.357 43.083L184.332 43.395L186.308 43.707C186.539 42.2405 186.673 40.7711 186.712 39.3089L184.713 39.2557ZM181.102 53.2272L179.325 52.3095C178.737 53.4489 178.069 54.5687 177.32 55.6619L178.97 56.7925L180.62 57.9232C181.463 56.6932 182.215 55.4311 182.879 54.1448L181.102 53.2272ZM171.925 64.3825L170.665 62.8296C170.156 63.2431 169.629 63.6482 169.084 64.0443L170.26 65.6618L171.437 67.2794C172.038 66.842 172.621 66.3938 173.186 65.9354L171.925 64.3825Z" fill="#8BA7F8"/>
<path d="M168.403 38.6288C168.403 32.3051 163.276 27.1775 156.953 27.1741C156.95 27.1741 156.948 27.1741 156.946 27.1741H108.21C101.882 27.1741 96.7539 32.3034 96.7539 38.6322V117.861C96.7539 124.19 101.882 129.319 108.21 129.319H156.946C163.274 129.319 168.403 124.19 168.403 117.861V38.6288Z" fill="#6A6AF4"/>
<path d="M148.275 127.681C148.042 127.681 147.831 127.519 147.779 127.282C147.716 127.007 147.889 126.735 148.163 126.672C154.532 125.229 155.066 119.081 155.066 112.905V54.9642C155.066 54.6818 155.294 54.4539 155.576 54.4539C155.858 54.4539 156.086 54.6818 156.086 54.9642V112.905C156.086 116.074 155.945 119.377 154.918 122.056C153.751 125.101 151.614 126.937 148.388 127.667C148.35 127.675 148.311 127.681 148.274 127.681H148.275Z" fill="#000091"/>
<path d="M145.041 37.4431H108.059C105.512 37.4431 103.447 39.5081 103.447 42.0553V50.2725C103.447 52.8197 105.512 54.8847 108.059 54.8847H145.041C147.588 54.8847 149.652 52.8197 149.652 50.2725V42.0553C149.652 39.5081 147.588 37.4431 145.041 37.4431Z" fill="white"/>
<path d="M111.52 60.5974H104.661C104.004 60.5974 103.471 61.1307 103.471 61.7884V68.3408C103.471 68.9986 104.004 69.5318 104.661 69.5318H111.52C112.178 69.5318 112.711 68.9986 112.711 68.3408V61.7884C112.711 61.1307 112.178 60.5974 111.52 60.5974Z" fill="#000091"/>
<path d="M136.247 60.5974H129.388C128.73 60.5974 128.197 61.1307 128.197 61.7884V68.3408C128.197 68.9986 128.73 69.5318 129.388 69.5318H136.247C136.904 69.5318 137.437 68.9986 137.437 68.3408V61.7884C137.437 61.1307 136.904 60.5974 136.247 60.5974Z" fill="#000091"/>
<path d="M123.883 60.5974H117.025C116.367 60.5974 115.834 61.1307 115.834 61.7884V68.3408C115.834 68.9986 116.367 69.5318 117.025 69.5318H123.883C124.541 69.5318 125.074 68.9986 125.074 68.3408V61.7884C125.074 61.1307 124.541 60.5974 123.883 60.5974Z" fill="#000091"/>
<path d="M111.52 72.0132H104.661C104.004 72.0132 103.471 72.5464 103.471 73.2042V79.7566C103.471 80.4144 104.004 80.9476 104.661 80.9476H111.52C112.178 80.9476 112.711 80.4144 112.711 79.7566V73.2042C112.711 72.5464 112.178 72.0132 111.52 72.0132Z" fill="#000091"/>
<path d="M136.247 72.0132H129.388C128.73 72.0132 128.197 72.5464 128.197 73.2042V79.7566C128.197 80.4144 128.73 80.9476 129.388 80.9476H136.247C136.904 80.9476 137.437 80.4144 137.437 79.7566V73.2042C137.437 72.5464 136.904 72.0132 136.247 72.0132Z" fill="#000091"/>
<path d="M123.883 72.0132H117.025C116.367 72.0132 115.834 72.5464 115.834 73.2042V79.7566C115.834 80.4144 116.367 80.9476 117.025 80.9476H123.883C124.541 80.9476 125.074 80.4144 125.074 79.7566V73.2042C125.074 72.5464 124.541 72.0132 123.883 72.0132Z" fill="#000091"/>
<path d="M111.52 83.9238H104.661C104.004 83.9238 103.471 84.4571 103.471 85.1149V91.6672C103.471 92.325 104.004 92.8583 104.661 92.8583H111.52C112.178 92.8583 112.711 92.325 112.711 91.6672V85.1149C112.711 84.4571 112.178 83.9238 111.52 83.9238Z" fill="#000091"/>
<path d="M136.247 83.9238H129.388C128.73 83.9238 128.197 84.4571 128.197 85.1149V91.6672C128.197 92.325 128.73 92.8583 129.388 92.8583H136.247C136.904 92.8583 137.437 92.325 137.437 91.6672V85.1149C137.437 84.4571 136.904 83.9238 136.247 83.9238Z" fill="#000091"/>
<path d="M123.883 83.9238H117.025C116.367 83.9238 115.834 84.4571 115.834 85.1149V91.6672C115.834 92.325 116.367 92.8583 117.025 92.8583H123.883C124.541 92.8583 125.074 92.325 125.074 91.6672V85.1149C125.074 84.4571 124.541 83.9238 123.883 83.9238Z" fill="#000091"/>
<path d="M111.52 95.7358H104.661C104.004 95.7358 103.471 96.2691 103.471 96.9269V103.479C103.471 104.137 104.004 104.67 104.661 104.67H111.52C112.178 104.67 112.711 104.137 112.711 103.479V96.9269C112.711 96.2691 112.178 95.7358 111.52 95.7358Z" fill="#000091"/>
<path d="M136.247 95.7358H129.388C128.73 95.7358 128.197 96.2691 128.197 96.9269V103.479C128.197 104.137 128.73 104.67 129.388 104.67H136.247C136.904 104.67 137.437 104.137 137.437 103.479V96.9269C137.437 96.2691 136.904 95.7358 136.247 95.7358Z" fill="#000091"/>
<path d="M148.991 81.4569H142.131C141.193 81.4569 140.43 80.693 140.43 79.7556V73.204C140.43 72.2666 141.193 71.5027 142.131 71.5027H148.991C149.928 71.5027 150.692 72.2666 150.692 73.204V79.7556C150.692 80.693 149.928 81.4569 148.991 81.4569ZM142.132 72.5235C141.756 72.5235 141.452 72.828 141.452 73.204V79.7556C141.452 80.1316 141.756 80.4361 142.132 80.4361H148.993C149.369 80.4361 149.673 80.1316 149.673 79.7556V73.204C149.673 72.828 149.369 72.5235 148.993 72.5235H142.132Z" fill="#000091"/>
<path d="M148.991 69.9086H142.131C141.193 69.9086 140.43 69.1447 140.43 68.2073V61.6556C140.43 60.7182 141.193 59.9543 142.131 59.9543H148.991C149.928 59.9543 150.692 60.7182 150.692 61.6556V68.2073C150.692 69.1447 149.928 69.9086 148.991 69.9086ZM142.132 60.9751C141.756 60.9751 141.452 61.2796 141.452 61.6556V68.2073C141.452 68.5833 141.756 68.8878 142.132 68.8878H148.993C149.369 68.8878 149.673 68.5833 149.673 68.2073V61.6556C149.673 61.2796 149.369 60.9751 148.993 60.9751H142.132Z" fill="#000091"/>
<path d="M148.991 93.3675H142.131C141.193 93.3675 140.43 92.6037 140.43 91.6663V85.1146C140.43 84.1772 141.193 83.4133 142.131 83.4133H148.991C149.928 83.4133 150.692 84.1772 150.692 85.1146V91.6663C150.692 92.6037 149.928 93.3675 148.991 93.3675ZM142.132 84.4341C141.756 84.4341 141.452 84.7386 141.452 85.1146V91.6663C141.452 92.0422 141.756 92.3468 142.132 92.3468H148.993C149.369 92.3468 149.673 92.0422 149.673 91.6663V85.1146C149.673 84.7386 149.369 84.4341 148.993 84.4341H142.132Z" fill="#000091"/>
<path d="M148.991 105.18H142.131C141.193 105.18 140.43 104.416 140.43 103.479V96.9269C140.43 95.9895 141.193 95.2256 142.131 95.2256H148.991C149.928 95.2256 150.692 95.9895 150.692 96.9269V103.479C150.692 104.416 149.928 105.18 148.991 105.18ZM142.132 96.2464C141.756 96.2464 141.452 96.5509 141.452 96.9269V103.479C141.452 103.855 141.756 104.159 142.132 104.159H148.993C149.369 104.159 149.673 103.855 149.673 103.479V96.9269C149.673 96.5509 149.369 96.2464 148.993 96.2464H142.132Z" fill="#000091"/>
<path d="M123.883 95.7358H117.025C116.367 95.7358 115.834 96.2691 115.834 96.9269V103.479C115.834 104.137 116.367 104.67 117.025 104.67H123.883C124.541 104.67 125.074 104.137 125.074 103.479V96.9269C125.074 96.2691 124.541 95.7358 123.883 95.7358Z" fill="#000091"/>
<path d="M136.249 117.182H129.389C128.451 117.182 127.688 116.418 127.688 115.481V108.929C127.688 107.992 128.451 107.228 129.389 107.228H136.249C137.186 107.228 137.95 107.992 137.95 108.929V115.481C137.95 116.418 137.186 117.182 136.249 117.182ZM129.389 108.249C129.013 108.249 128.708 108.553 128.708 108.929V115.481C128.708 115.857 129.013 116.161 129.389 116.161H136.249C136.625 116.161 136.929 115.857 136.929 115.481V108.929C136.929 108.553 136.625 108.249 136.249 108.249H129.389Z" fill="#000091"/>
<path d="M142.184 117.182H141.876C141.08 117.182 140.432 116.534 140.432 115.738V108.671C140.432 107.875 141.08 107.226 141.876 107.226H149.25C150.046 107.226 150.694 107.875 150.694 108.671C150.694 113.363 146.877 117.181 142.185 117.181L142.184 117.182ZM141.876 108.249C141.643 108.249 141.452 108.439 141.452 108.672V115.74C141.452 115.973 141.643 116.163 141.876 116.163H142.184C146.312 116.163 149.672 112.803 149.672 108.674C149.672 108.441 149.481 108.25 149.248 108.25H141.874L141.876 108.249Z" fill="#000091"/>
<path d="M123.886 117.182H117.027C116.09 117.182 115.326 116.418 115.326 115.481V108.929C115.326 107.992 116.09 107.228 117.027 107.228H123.886C124.823 107.228 125.587 107.992 125.587 108.929V115.481C125.587 116.418 124.823 117.182 123.886 117.182ZM117.025 108.249C116.65 108.249 116.345 108.553 116.345 108.929V115.481C116.345 115.857 116.65 116.161 117.025 116.161H123.884C124.26 116.161 124.564 115.857 124.564 115.481V108.929C124.564 108.553 124.26 108.249 123.884 108.249H117.025Z" fill="#000091"/>
<path d="M111.895 117.182H111.587C106.895 117.182 103.078 113.365 103.078 108.672C103.078 107.876 103.726 107.228 104.522 107.228H111.896C112.692 107.228 113.34 107.876 113.34 108.672V115.74C113.34 116.536 112.692 117.184 111.896 117.184L111.895 117.182ZM104.521 108.249C104.288 108.249 104.097 108.439 104.097 108.672C104.097 112.803 107.457 116.161 111.585 116.161H111.893C112.126 116.161 112.316 115.971 112.316 115.738V108.671C112.316 108.438 112.126 108.247 111.893 108.247H104.519L104.521 108.249Z" fill="#000091"/>
<path d="M155.576 42.7647C155.294 42.7647 155.066 42.5367 155.066 42.2543C155.066 36.0786 154.533 29.9302 148.163 28.4875C147.887 28.4245 147.716 28.1523 147.779 27.8767C147.842 27.6011 148.115 27.4293 148.389 27.4922C151.616 28.2238 153.753 30.0578 154.92 33.1031C155.945 35.7826 156.088 39.0848 156.088 42.2543C156.088 42.5367 155.86 42.7647 155.578 42.7647H155.576Z" fill="#000091"/>
<path d="M118.178 46.5705H119.363V45.7263H118.178V44.1561H119.525C119.953 41.8159 121.243 40.6743 123.316 40.6743C124.694 40.6743 125.746 41.2517 126.441 42.1702L124.93 43.3119C124.589 42.7935 124.086 42.4239 123.345 42.4239C122.457 42.4239 121.834 42.8395 121.552 44.1561H125.12V45.7263H121.388V46.5705H125.12V48.1408H121.552C121.819 49.488 122.44 49.9036 123.345 49.9036C124.071 49.9036 124.574 49.5186 124.93 49.0156L126.441 50.1419C125.746 51.0605 124.694 51.6532 123.316 51.6532C121.243 51.6532 119.953 50.5115 119.525 48.143H118.178V46.5727V46.5705Z" fill="#000091"/>
<path d="M127.064 46.5705H128.25V45.7263H127.064V44.1561H128.411C128.84 41.8159 130.13 40.6743 132.203 40.6743C133.581 40.6743 134.633 41.2517 135.328 42.1702L133.817 43.3119C133.476 42.7935 132.973 42.4239 132.232 42.4239C131.344 42.4239 130.721 42.8395 130.439 44.1561H134.007V45.7263H130.275V46.5705H134.007V48.1408H130.439C130.705 49.488 131.326 49.9036 132.232 49.9036C132.958 49.9036 133.461 49.5186 133.817 49.0156L135.328 50.1419C134.633 51.0605 133.581 51.6532 132.203 51.6532C130.13 51.6532 128.84 50.5115 128.411 48.143H127.064V46.5727V46.5705Z" fill="#000091"/>
<path d="M135.953 46.5705H137.138V45.7263H135.953V44.1561H137.3C137.729 41.8159 139.019 40.6743 141.092 40.6743C142.469 40.6743 143.521 41.2517 144.217 42.1702L142.706 43.3119C142.365 42.7935 141.862 42.4239 141.12 42.4239C140.232 42.4239 139.609 42.8395 139.327 44.1561H142.896V45.7263H139.163V46.5705H142.896V48.1408H139.327C139.594 49.488 140.215 49.9036 141.12 49.9036C141.846 49.9036 142.349 49.5186 142.706 49.0156L144.217 50.1419C143.521 51.0605 142.469 51.6532 141.092 51.6532C139.019 51.6532 137.729 50.5115 137.3 48.143H135.953V46.5727V46.5705Z" fill="#000091"/>
<path d="M78.3148 97.0134C80.4479 104.899 90.4534 105.333 95.4952 98.6704C100.537 92.0082 108.607 97.568 105.016 103.027C101.427 108.487 93.5866 126.59 69.2688 116.793L40.2527 125.377C39.5808 125.576 38.9003 125.828 38.2114 126.08C34.8706 126.823 28.0682 126.612 22.6743 115.292C22.5041 114.936 22.0653 113.945 22.0006 113.8C17.447 103.118 21.0294 97.5714 23.222 95.3955C29.8679 92.2277 40.5299 87.8094 40.5299 87.8094L50.0404 69.5666C50.0404 69.5666 53.1703 63.903 57.2935 66.4243C61.4168 68.9456 56.705 76.0314 56.705 76.0314C56.8156 76.3547 59.857 71.6983 63.7353 65.3167C66.3294 61.0482 71.6332 61.3442 73.2322 66.3375C73.9313 65.2759 75.9164 62.4977 75.9164 62.4977C75.9164 62.4977 78.7282 57.6695 83.7819 60.5549C88.3288 63.151 82.9739 70.9174 80.0924 75.5143C81.9907 73.927 84.4215 72.9844 86.9901 72.7309C86.9901 72.7309 117.597 61.7117 120.391 62.9571C123.186 64.2024 120.693 72.11 115.863 74.8542C111.034 77.5983 94.0153 83.4116 94.0153 83.4116C94.0153 83.4116 75.4894 86.5709 78.3148 97.0117V97.0134Z" fill="#FCC0B4"/>
<path d="M62.1038 83.4457C62.0069 83.4457 61.9082 83.4184 61.8198 83.3589C61.585 83.2024 61.5238 82.8842 61.6803 82.6512L72.4121 66.6438C72.5686 66.409 72.8866 66.3478 73.1197 66.5043C73.3544 66.6608 73.4157 66.9789 73.2592 67.212L62.5274 83.2194C62.4287 83.3657 62.2671 83.4457 62.1038 83.4457Z" fill="#000091"/>
<path d="M68.939 81.3233C68.7587 81.3233 68.5835 81.2264 68.49 81.0579C68.3556 80.8095 68.4457 80.4998 68.6941 80.3654L80.3699 73.9951C80.6166 73.8607 80.9279 73.9509 81.0622 74.1993C81.1966 74.446 81.1065 74.7574 80.8581 74.8918L69.1823 81.2621C69.104 81.3046 69.0207 81.3251 68.939 81.3251V81.3233Z" fill="#000091"/>
<path d="M50.1056 86.2765C50.012 86.2765 49.9184 86.251 49.8334 86.1983C49.5953 86.0469 49.5238 85.7321 49.6752 85.4939L59.0121 70.7387C59.1635 70.5005 59.4782 70.4291 59.7164 70.5805C59.9545 70.7319 60.0259 71.0466 59.8746 71.2848L50.5376 86.0401C50.4407 86.1932 50.2757 86.2782 50.1056 86.2782V86.2765Z" fill="#000091"/>
</svg>
