<svg width="30" height="30" viewBox="0 0 30 30" fill="none" xmlns="http://www.w3.org/2000/svg">
<circle cx="15" cy="15" r="14" fill="white" stroke="#E7E7E7" stroke-width="2"/>
<path d="M13.7785 14.9998L8.58673 9.80778C8.24887 9.47006 8.24887 8.92401 8.58673 8.5863C8.92445 8.24858 9.47048 8.24858 9.80819 8.5863L15.0001 13.7783L20.1918 8.5863C20.5297 8.24858 21.0756 8.24858 21.4133 8.5863C21.7511 8.92401 21.7511 9.47006 21.4133 9.80778L16.2215 14.9998L21.4133 20.1918C21.7511 20.5295 21.7511 21.0755 21.4133 21.4132C21.245 21.5817 21.0237 21.6663 20.8025 21.6663C20.5814 21.6663 20.3603 21.5817 20.1918 21.4132L15.0001 16.2213L9.80819 21.4132C9.63973 21.5817 9.4186 21.6663 9.19746 21.6663C8.97633 21.6663 8.75519 21.5817 8.58673 21.4132C8.24887 21.0755 8.24887 20.5295 8.58673 20.1918L13.7785 14.9998Z" fill="black"/>
</svg>
