<svg width="110" height="102" viewBox="0 0 110 102" fill="none" xmlns="http://www.w3.org/2000/svg">
<path d="M57.7447 100.736H85.385C87.4453 100.736 90.0574 99.0805 91.2218 97.0353L106.495 70.124C107.654 68.0788 106.925 66.4234 104.865 66.4234H76.0804C74.02 66.4234 71.4079 68.0788 70.2435 70.124L56.1146 97.0353C54.9553 99.0805 55.6843 100.736 57.7447 100.736Z" fill="#2E186A"/>
<path d="M46.0001 54.5624C45.3167 55.1952 44.5877 55.8786 43.8334 56.5924L46.0001 54.5624Z" fill="#FF8B7E"/>
<path d="M71.5244 93.2284C71.5244 93.2284 75.3971 96.4835 77.1689 98.068C77.2702 98.3515 77.422 98.5793 77.6245 98.7362C80.1506 100.695 83.4209 100.741 87.3492 99.5108C89.2729 98.9083 90.8827 97.5921 91.8294 95.8254L106.348 68.7774C106.844 67.851 106.348 66.7018 105.32 66.4285L100.759 65.2034C94.3251 62.7077 89.1717 52.7045 89.1717 52.7045C100.658 48.7761 109.649 38.2566 109.649 38.2566C109.649 38.2566 110.317 33.5436 106.652 22.8672C102.987 12.1857 98.9925 9.98861 96.1627 10.7733C93.3329 11.5579 85.6736 15.3294 88.3364 18.7819C90.9991 22.2344 94.8313 34.1713 94.8313 34.1713C82.8437 36.2115 72.1774 40.6865 72.1774 40.6865L59.2027 45.7894C59.2027 45.7894 53.7101 47.6726 48.2124 52.5425C47.5492 53.1297 46.8 53.8081 45.9951 54.5523L34.2707 52.4767L23.6298 36.581L18.3953 37.9023L23.7614 66.4082C23.7614 66.4082 23.731 75.1357 52.652 72.8424L71.5244 93.2183V93.2284Z" fill="#FF8B7E"/>
<path d="M51.3308 45.4856C49.883 45.4401 48.7186 43.5619 48.7186 41.2485C48.7186 39.993 49.0629 38.8641 49.6045 38.0896" stroke="#FD7624" stroke-width="2" stroke-linecap="round" stroke-linejoin="round"/>
<path d="M71.818 29.7013C71.9547 30.2075 72.0255 30.7644 72.0255 31.3516C72.0255 33.6955 70.8308 35.5938 69.3628 35.5938C69.2413 35.5938 69.1248 35.5837 69.0134 35.5584" stroke="#FD7624" stroke-width="2" stroke-linecap="round" stroke-linejoin="round"/>
<path d="M66.862 38.1047L68.6237 42.595L72.3546 40.6207C72.7292 41.0611 78.7939 48.7457 70.6081 51.7933C65.237 53.7929 59.2938 51.1605 55.7451 47.8143L59.1268 45.7742L55.5325 38.2819L66.862 38.1047Z" fill="white" stroke="#2E186A" stroke-linecap="round" stroke-linejoin="round"/>
<path d="M50.8801 38.2617C52.443 38.2617 53.7099 37.0672 53.7099 35.5938C53.7099 34.1204 52.443 32.926 50.8801 32.926C49.3172 32.926 48.0503 34.1204 48.0503 35.5938C48.0503 37.0672 49.3172 38.2617 50.8801 38.2617Z" fill="white" stroke="#2E186A" stroke-linecap="round" stroke-linejoin="round"/>
<path d="M68.0312 29.1495C69.5941 29.1495 70.8611 27.9551 70.8611 26.4817C70.8611 25.0082 69.5941 23.8138 68.0312 23.8138C66.4684 23.8138 65.2014 25.0082 65.2014 26.4817C65.2014 27.9551 66.4684 29.1495 68.0312 29.1495Z" fill="white" stroke="#2E186A" stroke-linecap="round" stroke-linejoin="round"/>
<path d="M66.1868 39.684C70.1287 36.734 70.2579 30.2452 66.4753 25.1909C62.6928 20.1365 56.4309 18.4305 52.4891 21.3805C48.5472 24.3305 48.418 30.8193 52.2006 35.8736C55.9831 40.928 62.2449 42.634 66.1868 39.684Z" fill="white" stroke="#2E186A" stroke-linecap="round" stroke-linejoin="round"/>
<path d="M64.2952 32.7843C63.703 33.5537 62.4627 34.6472 60.1087 34.8548C59.6784 34.8953 59.4709 35.3964 59.7594 35.7153C60.5795 36.6266 62.1337 37.8415 64.0573 36.9101C66.0063 35.9685 65.6418 34.0498 65.2014 32.9159C65.0546 32.5413 64.5484 32.4603 64.3003 32.7843H64.2952Z" stroke="#2E186A" stroke-linecap="round" stroke-linejoin="round"/>
<path d="M61.2123 32.5666L63.0297 31.6301L59.7037 27.7371" stroke="#2E186A" stroke-linecap="round" stroke-linejoin="round"/>
<path d="M53.8062 28.0459C53.8062 28.0459 54.5857 26.1931 56.2057 26.6639" stroke="#2E186A" stroke-linecap="round" stroke-linejoin="round"/>
<path d="M59.8303 24.7251C59.8303 24.7251 61.2579 23.257 62.5943 24.2441" stroke="#2E186A" stroke-linecap="round" stroke-linejoin="round"/>
<path d="M57.0894 31.2622C57.4314 31.1093 57.5237 30.5715 57.2956 30.061C57.0674 29.5505 56.6052 29.2606 56.2632 29.4134C55.9211 29.5663 55.8287 30.1041 56.0569 30.6146C56.285 31.1251 56.7473 31.415 57.0894 31.2622Z" fill="#2E186A"/>
<path d="M63.5115 28.5557C63.8355 28.3674 63.8692 27.8209 63.5869 27.3351C63.3045 26.8492 62.813 26.6079 62.4891 26.7961C62.1652 26.9843 62.1315 27.5308 62.4138 28.0167C62.6962 28.5026 63.1876 28.7439 63.5115 28.5557Z" fill="#2E186A"/>
<path d="M45.1344 21.2877C47.3619 18.2301 45.6913 6.42473 35.3641 1.42315C24.9104 -3.63917 20.7441 6.23742 19.924 8.7534C19.1039 11.2694 19.7975 17.248 28.4338 20.3664C37.0701 23.4848 42.5931 24.7807 45.1395 21.2827L45.1344 21.2877Z" fill="#2E186A"/>
<path d="M47.5086 25.3629L44.2839 23.2823C43.1297 22.5381 42.8311 21.0498 43.6208 19.9614L43.7524 19.7791C44.5421 18.6907 46.1165 18.4123 47.2707 19.1565L50.4954 21.2371L47.5036 25.3629H47.5086Z" fill="#FF8B7E"/>
<path d="M68.0313 19.8854C68.0313 19.8854 66.1329 9.33556 51.847 18.5338C49.488 19.8399 47.1289 22.5077 46.2177 25.3831C44.8104 29.8329 47.8832 36.5354 51.0471 35.5888C51.3053 35.5128 51.5635 35.4217 51.8166 35.3154C51.7103 35.1585 51.604 35.0015 51.5028 34.8446C51.1383 34.2624 50.8244 33.6702 50.551 33.0728C53.8415 29.6912 51.3509 23.9252 51.0927 23.4038C52.2672 23.6721 53.5732 24.1175 53.8871 25.5148L63.0347 21.8699C64.5838 22.9178 65.9962 24.3454 67.0998 26.0969C67.115 26.1172 67.1251 26.1425 67.1403 26.1627C67.4035 24.5883 66.5632 22.7355 64.928 21.1156L68.0161 19.8854H68.0313Z" fill="#2E186A"/>
<path d="M93.0594 7.89281C92.6545 7.06766 91.6572 4.92123 91.7635 3.89864C91.9002 2.56219 90.8371 1.59528 90.1081 3.27091C89.3791 4.94654 90.0524 6.89554 90.0524 6.89554" fill="white"/>
<path d="M93.0594 7.89281C92.6545 7.06766 91.6572 4.92123 91.7635 3.89864C91.9002 2.56219 90.8371 1.59528 90.1081 3.27091C89.3791 4.94654 90.0524 6.89554 90.0524 6.89554" stroke="#2E186A" stroke-width="2" stroke-linecap="round" stroke-linejoin="round"/>
<path d="M90.346 12.7678L93.0493 17.2429C95.0388 16.7468 97.0789 15.5521 98.2686 13.3348C96.2031 10.7227 92.7304 6.44499 92.0065 6.21719C90.0069 5.58946 86.9593 5.77677 86.3569 5.95901C85.0812 6.34881 85.7545 7.12334 87.096 7.22965C88.3768 7.3309 90.6953 7.53339 90.6953 7.53339C88.6957 7.57389 86.2051 7.72576 85.8254 7.97381C85.2534 8.35349 85.7343 9.45201 87.096 9.3862L90.9637 9.33051C90.9637 9.33051 86.6202 9.79118 86.0937 10.019C85.5723 10.2468 85.6229 11.7199 88.3009 11.2896C90.9738 10.8593 91.161 11.0315 91.161 11.0315C91.161 11.0315 87.9212 11.7098 87.3036 11.9882C86.6859 12.2667 87.2934 13.841 90.3511 12.7577L90.346 12.7678Z" fill="white" stroke="#2E186A" stroke-linecap="round" stroke-linejoin="round"/>
<path d="M51.3814 37.0063C52.8546 37.0063 54.0442 38.9046 54.0442 41.2485C54.0442 43.5923 52.8495 45.4907 51.3814 45.4907C51.3662 45.4907 51.346 45.4907 51.3308 45.4907" stroke="#FD7624" stroke-width="2" stroke-linecap="round" stroke-linejoin="round"/>
<path d="M69.3628 27.1094C70.4664 27.1094 71.413 28.1776 71.818 29.7013" stroke="#FD7624" stroke-width="2" stroke-linecap="round" stroke-linejoin="round"/>
<path d="M62.0629 85.6957L56.1096 97.0353C54.9503 99.0805 55.6793 100.736 57.7397 100.736H85.38C87.4403 100.736 90.0525 99.0805 91.2168 97.0353L106.49 70.124C107.649 68.0788 106.92 66.4234 104.86 66.4234" stroke="#2E186A" stroke-linecap="round" stroke-linejoin="round"/>
<path d="M42.5477 38.0997L7.07596 39.097C7.07596 39.097 12.0573 68.7926 0.5 84.3339L35.1567 84.2681C35.1567 84.2681 45.6256 75.4343 42.5477 38.0997Z" fill="white" stroke="#2E186A" stroke-linecap="round" stroke-linejoin="round"/>
<path d="M16.3906 39.0008C17.9143 41.0612 21.0327 41.7952 21.0327 41.7952C22.1718 44.7111 25.1636 45.0705 24.9763 44.4428C24.7889 43.8151 22.4147 40.3929 22.4147 40.3929C22.4147 40.3929 22.6577 40.4081 24.0448 42.6355C25.4319 44.863 27.634 45.1768 27.4669 44.6504C27.2999 44.1239 24.3637 39.3248 24.3637 39.3248L28.0086 43.4961C28.8692 44.4985 29.9931 44.1239 29.8867 43.4708C29.8159 43.0405 27.0265 39.6842 25.766 38.2009C25.766 38.2009 28.9452 41.1827 30.0133 41.8458C31.0764 42.509 31.5421 41.5168 31.2232 40.9954C30.9043 40.4739 27.4315 35.4217 21.8478 33.2348C21.8478 33.2348 18.9774 31.792 17.0538 34.6928C15.1301 37.5935 16.3855 39.0008 16.3855 39.0008H16.3906Z" fill="white" stroke="#2E186A" stroke-linecap="round" stroke-linejoin="round"/>
<path d="M12.3154 48.5281H26.2166" stroke="#2E186A" stroke-linecap="round" stroke-linejoin="round"/>
<path d="M12.3154 52.1527H37.6979" stroke="#2E186A" stroke-linecap="round" stroke-linejoin="round"/>
<path d="M13.0698 55.6255H38.4523" stroke="#2E186A" stroke-linecap="round" stroke-linejoin="round"/>
<path d="M12.9178 59.1033H38.3004" stroke="#2E186A" stroke-linecap="round" stroke-linejoin="round"/>
<path d="M12.0117 62.576H37.3942" stroke="#2E186A" stroke-linecap="round" stroke-linejoin="round"/>
<path d="M11.1056 66.3576H32.1092" stroke="#2E186A" stroke-linecap="round" stroke-linejoin="round"/>
<path d="M30.5957 88.1106C36.8529 88.1106 41.9253 83.0381 41.9253 76.7809C41.9253 70.5237 36.8529 65.4512 30.5957 65.4512C24.3385 65.4512 19.266 70.5237 19.266 76.7809C19.266 83.0381 24.3385 88.1106 30.5957 88.1106Z" fill="#77B645"/>
<path d="M23.5244 78.2658C24.6743 79.9347 26.5696 81.2446 28.0847 82.5695C29.0112 83.3813 30.2335 83.2002 30.9277 82.2043C32.8351 79.4579 34.7334 76.6511 36.9124 74.113C38.4244 72.3535 35.8742 69.7791 34.3501 71.5507C31.9689 74.3242 29.8834 77.3785 27.798 80.3754C28.7456 80.2547 29.6933 80.1309 30.6409 80.0102C29.986 79.4368 29.3341 78.8573 28.6853 78.2748C28.2175 77.8553 27.7527 77.4358 27.2939 77.0103C27.1189 76.8473 26.2467 75.8574 26.6481 76.4399C25.3352 74.5325 22.1965 76.3403 23.5214 78.2688L23.5244 78.2658Z" fill="white"/>
</svg>
