<svg width="39" height="39" viewBox="0 0 39 39" fill="none" xmlns="http://www.w3.org/2000/svg">
<circle cx="19.5" cy="19.5" r="19.5" fill="#F49979"/>
<path d="M19.5435 9.34372C20.067 9.34317 20.5889 9.40098 21.0996 9.51609H18.002C18.5078 9.4017 19.0248 9.34389 19.5435 9.34372Z" fill="white"/>
<path d="M26.5781 19.5C25.5289 19.5001 24.5054 19.1751 23.6484 18.5698C22.7913 17.9644 22.1429 17.1085 21.7921 16.1196C21.4414 15.1307 21.4056 14.0575 21.6896 13.0474C21.9737 12.0374 22.5636 11.1401 23.3784 10.479L25.7969 17.2974L26.0239 17.9375L26.5781 19.5Z" fill="white"/>
<path d="M26.5781 9.34372C25.5738 9.34372 24.592 9.64155 23.7569 10.1995C22.9218 10.7575 22.2709 11.5506 21.8865 12.4785C21.5022 13.4064 21.4016 14.4275 21.5976 15.4125C21.7935 16.3976 22.2771 17.3024 22.9873 18.0126C23.6975 18.7228 24.6024 19.2065 25.5874 19.4024C26.5725 19.5983 27.5935 19.4978 28.5214 19.1134C29.4493 18.7291 30.2424 18.0782 30.8004 17.2431C31.3584 16.408 31.6562 15.4262 31.6562 14.4218C31.6594 13.7541 31.5303 13.0923 31.2762 12.4748C31.0221 11.8572 30.6482 11.2961 30.176 10.824C29.7038 10.3518 29.1427 9.97785 28.5252 9.72378C27.9076 9.46971 27.2459 9.34054 26.5781 9.34372ZM27.3594 17.9375H26.0239L25.7969 17.2973V16.375H27.3594V17.9375ZM27.3594 15.2031H25.7969V10.9062H27.3594V15.2031Z" fill="white"/>
<path d="M21.1094 9.34374C21.1093 9.40133 21.1061 9.45888 21.0996 9.51611H17.9942C17.9704 9.3048 17.9901 9.09088 18.0519 8.88743C18.1137 8.68398 18.2164 8.49529 18.3537 8.33292C18.491 8.17054 18.6599 8.03789 18.8503 7.94309C19.0406 7.84829 19.2483 7.79333 19.4606 7.78158C19.6729 7.76984 19.8854 7.80155 20.085 7.87477C20.2846 7.948 20.4672 8.0612 20.6215 8.20744C20.7759 8.35368 20.8988 8.52989 20.9827 8.72527C21.0665 8.92066 21.1097 9.13111 21.1094 9.34374Z" fill="white"/>
<path d="M21.8906 28.875C21.8906 29.4966 21.6437 30.0927 21.2042 30.5323C20.7646 30.9718 20.1685 31.2188 19.5469 31.2188C18.9253 31.2188 18.3291 30.9718 17.8896 30.5323C17.4501 30.0927 17.2031 29.4966 17.2031 28.875H21.8906Z" fill="white"/>
<path d="M26.0239 17.9375H25.7969V17.2973L26.0239 17.9375Z" fill="white"/>
<path d="M21.1094 27.3125H12.9062C12.8026 27.3125 12.7033 27.3537 12.63 27.4269C12.5568 27.5002 12.5156 27.5995 12.5156 27.7031C12.5156 27.8067 12.5568 27.9061 12.63 27.9793C12.7033 28.0526 12.8026 28.0938 12.9062 28.0938H21.1094C21.213 28.0938 21.3123 28.0526 21.3856 27.9793C21.4588 27.9061 21.5 27.8067 21.5 27.7031C21.5 27.5995 21.4588 27.5002 21.3856 27.4269C21.3123 27.3537 21.213 27.3125 21.1094 27.3125Z" fill="white"/>
<path d="M23.0625 27.3125H22.2812C22.1776 27.3125 22.0783 27.3537 22.005 27.4269C21.9318 27.5002 21.8906 27.5995 21.8906 27.7031C21.8906 27.8067 21.9318 27.9061 22.005 27.9793C22.0783 28.0526 22.1776 28.0938 22.2812 28.0938H23.0625C23.1661 28.0938 23.2655 28.0526 23.3387 27.9793C23.412 27.9061 23.4531 27.8067 23.4531 27.7031C23.4531 27.5995 23.412 27.5002 23.3387 27.4269C23.2655 27.3537 23.1661 27.3125 23.0625 27.3125Z" fill="white"/>
<path d="M25.7969 15.5938H27.3594C27.463 15.5938 27.5623 15.5526 27.6356 15.4793C27.7088 15.4061 27.75 15.3067 27.75 15.2031V10.9062C27.75 10.8026 27.7088 10.7033 27.6356 10.63C27.5623 10.5568 27.463 10.5156 27.3594 10.5156H25.7969C25.6933 10.5156 25.5939 10.5568 25.5207 10.63C25.4474 10.7033 25.4062 10.8026 25.4062 10.9062V15.2031C25.4062 15.3067 25.4474 15.4061 25.5207 15.4793C25.5939 15.5526 25.6933 15.5938 25.7969 15.5938ZM26.1875 11.2969H26.9688V14.8125H26.1875V11.2969Z" fill="white"/>
<path d="M25.7969 18.3281H27.3594C27.463 18.3281 27.5623 18.287 27.6356 18.2137C27.7088 18.1405 27.75 18.0411 27.75 17.9375V16.375C27.75 16.2714 27.7088 16.172 27.6356 16.0988C27.5623 16.0255 27.463 15.9844 27.3594 15.9844H25.7969C25.6933 15.9844 25.5939 16.0255 25.5207 16.0988C25.4474 16.172 25.4062 16.2714 25.4062 16.375V17.9375C25.4062 18.0411 25.4474 18.1405 25.5207 18.2137C25.5939 18.287 25.6933 18.3281 25.7969 18.3281ZM26.1875 16.7656H26.9688V17.5469H26.1875V16.7656Z" fill="white"/>
<path d="M32.0468 14.4219C32.0475 13.4124 31.7685 12.4225 31.2409 11.5619C30.7133 10.7014 29.9577 10.0037 29.0578 9.54632C28.1579 9.08894 27.149 8.88973 26.1428 8.97075C25.1366 9.05178 24.1725 9.40989 23.3574 10.0054C22.776 9.65694 22.1493 9.39027 21.4951 9.21289C21.462 8.71844 21.2422 8.25505 20.8802 7.91667C20.5182 7.57828 20.041 7.39021 19.5455 7.39058C19.0499 7.39095 18.5731 7.57974 18.2115 7.91867C17.85 8.2576 17.6309 8.72132 17.5986 9.21582C14.4482 10.0815 12.125 12.9936 12.125 16.4424V25.4141C12.125 25.5605 12.0839 25.7039 12.0063 25.8281L11.352 26.875C11.2041 27.1115 11.1221 27.3832 11.1147 27.6621C11.1073 27.9409 11.1747 28.2167 11.3099 28.4607C11.4451 28.7047 11.6432 28.908 11.8835 29.0495C12.1239 29.1911 12.3978 29.2657 12.6767 29.2656H16.8408C16.9347 29.9163 17.2599 30.5115 17.7569 30.9419C18.2539 31.3723 18.8894 31.6092 19.5468 31.6092C20.2043 31.6092 20.8398 31.3723 21.3368 30.9419C21.8338 30.5115 22.159 29.9163 22.2529 29.2656H26.417C26.6959 29.2657 26.9698 29.1911 27.2101 29.0495C27.4505 28.908 27.6486 28.7047 27.7838 28.4607C27.919 28.2167 27.9864 27.9409 27.979 27.6621C27.9716 27.3832 27.8896 27.1115 27.7417 26.875L27.0874 25.8281C27.0098 25.7039 26.9687 25.5605 26.9687 25.4141V19.8765C28.3474 19.7761 29.637 19.1581 30.5789 18.1464C31.5208 17.1347 32.0452 15.8041 32.0468 14.4219ZM19.5468 8.17187C19.8047 8.17223 20.0552 8.25744 20.2597 8.41435C20.4643 8.57125 20.6115 8.79113 20.6787 9.04003C20.3038 8.98235 19.9251 8.9533 19.5459 8.95312H19.5434C19.1656 8.95305 18.7884 8.98211 18.415 9.04003C18.4822 8.79113 18.6294 8.57125 18.834 8.41435C19.0385 8.25744 19.289 8.17223 19.5468 8.17187ZM19.5468 30.8281C19.0968 30.8276 18.6606 30.6719 18.312 30.3872C17.9633 30.1026 17.7234 29.7065 17.6328 29.2656H21.4609C21.3703 29.7065 21.1304 30.1026 20.7817 30.3872C20.4331 30.6719 19.9969 30.8276 19.5468 30.8281ZM27.0796 27.2891C27.1535 27.4073 27.1944 27.5432 27.198 27.6826C27.2017 27.8221 27.168 27.9599 27.1004 28.0819C27.0327 28.2039 26.9337 28.3055 26.8135 28.3763C26.6934 28.4471 26.5564 28.4844 26.417 28.4844H12.6767C12.5373 28.4844 12.4003 28.4471 12.2802 28.3763C12.16 28.3055 12.061 28.2039 11.9933 28.0819C11.9257 27.9599 11.892 27.8221 11.8956 27.6826C11.8993 27.5432 11.9402 27.4073 12.0141 27.2891L12.6684 26.2422C12.824 25.994 12.9064 25.707 12.9062 25.4141V16.4424C12.9062 12.7456 15.8838 9.73632 19.5434 9.73437H19.5459C20.6569 9.73296 21.7505 10.0114 22.7256 10.5439C21.9803 11.2834 21.4637 12.2218 21.2376 13.247C21.0115 14.2723 21.0855 15.3409 21.4506 16.3252C21.8158 17.3096 22.4566 18.1679 23.2966 18.7977C24.1367 19.4274 25.1403 19.8019 26.1875 19.8765V25.4141C26.1873 25.707 26.2697 25.994 26.4253 26.2422L27.0796 27.2891ZM26.5781 19.1094C25.651 19.1094 24.7447 18.8345 23.9739 18.3194C23.203 17.8043 22.6022 17.0722 22.2474 16.2157C21.8926 15.3592 21.7998 14.4167 21.9807 13.5074C22.1615 12.5981 22.608 11.7629 23.2635 11.1073C23.9191 10.4517 24.7543 10.0053 25.6636 9.82444C26.5729 9.64357 27.5154 9.7364 28.3719 10.0912C29.2285 10.446 29.9605 11.0468 30.4756 11.8176C30.9907 12.5885 31.2656 13.4948 31.2656 14.4219C31.2641 15.6646 30.7698 16.856 29.891 17.7348C29.0123 18.6135 27.8208 19.1079 26.5781 19.1094Z" fill="white"/>
</svg>
