<svg width="269" height="213" viewBox="0 0 269 213" fill="none" xmlns="http://www.w3.org/2000/svg">
<ellipse cx="127.6" cy="108.896" rx="111.716" ry="103.185" fill="#EEEEEE"/>
<path d="M263.075 77.3154L131.27 78.274C129.174 78.2895 127.272 79.4939 126.374 81.3757L83.8656 167.926L0.453484 168.006C0.453484 168.006 -1.40616 180.131 14.1543 180.886L77.5989 180.685L77.4176 181.055L222.552 180.55L268.052 85.0531C269.77 81.44 267.099 77.2844 263.075 77.3131V77.3154Z" fill="#6A6AF3"/>
<path d="M213.088 179.914C212.992 179.914 212.895 179.895 212.802 179.85C212.471 179.693 212.331 179.297 212.488 178.965L257.303 84.7697C258.007 83.2908 257.903 81.5838 257.022 80.2001C256.138 78.8075 254.621 77.9795 252.965 77.9795C252.952 77.9795 252.938 77.9795 252.923 77.9795C252.558 77.9795 252.262 77.6851 252.259 77.3198C252.257 76.9523 252.551 76.6534 252.918 76.6512C255.057 76.6379 257.003 77.6961 258.141 79.4872C259.267 81.2584 259.402 83.4458 258.5 85.3409L213.685 179.536C213.572 179.775 213.333 179.914 213.085 179.914H213.088Z" fill="white"/>
<path d="M97.7346 163.819L206.735 163.27C210.558 163.248 214.039 161.076 215.717 157.666L248.547 88.6087C249.958 85.7771 247.767 82.5203 244.47 82.5447L136.444 83.3306C134.726 83.3439 133.167 84.2893 132.431 85.7638L94.4332 158.596C93.2391 161.016 95.0236 163.837 97.7346 163.821V163.819Z" fill="white"/>
<path d="M115.716 147.963H156.166C159.184 147.963 163.008 145.534 164.706 142.536L187.059 103.101C188.757 100.104 187.689 97.6749 184.671 97.6749H142.543C139.524 97.6749 135.701 100.104 134.003 103.101L113.328 142.536C111.63 145.534 112.698 147.963 115.716 147.963Z" fill="#2E186A"/>
<path d="M98.5303 80.3042C97.5286 81.2318 96.465 82.2303 95.3594 83.2797L98.5303 80.3042Z" fill="#FF8C7E"/>
<path d="M135.885 136.957C135.885 136.957 141.55 141.724 144.144 144.051C144.292 144.467 144.511 144.797 144.807 145.027C148.504 147.901 153.289 147.963 159.041 146.163C161.853 145.282 164.213 143.351 165.599 140.765L186.849 101.133C187.579 99.7737 186.845 98.0933 185.348 97.6926L178.672 95.8992C169.259 92.244 161.712 77.5854 161.712 77.5854C178.524 71.8336 191.683 56.4156 191.683 56.4156C191.683 56.4156 192.658 49.5125 187.296 33.8642C181.936 18.216 176.087 14.9947 171.945 16.1459C167.804 17.2972 156.595 22.8188 160.493 27.8821C164.392 32.9454 169.997 50.4335 169.997 50.4335C152.453 53.4245 136.84 59.9822 136.84 59.9822L117.852 67.4632C117.852 67.4632 109.812 70.224 101.77 77.3574C100.799 78.2186 99.7067 79.2127 98.5281 80.3019L81.3711 77.2577L65.7952 53.9625L58.1333 55.9019L65.9876 97.6726C65.9876 97.6726 65.9412 110.458 108.266 107.1L135.882 136.955L135.885 136.957Z" fill="#FF8C7E"/>
<path d="M106.327 67.6647C106.327 67.6647 106.314 67.6647 106.308 67.6647C103.802 67.5894 101.841 64.5696 101.841 60.7881C101.841 58.8908 102.358 57.0643 103.258 55.778C103.468 55.4769 103.882 55.4038 104.183 55.6163C104.483 55.8267 104.554 56.2407 104.344 56.5418C103.597 57.6111 103.165 59.1587 103.165 60.7904C103.165 63.746 104.623 66.2876 106.345 66.3385C106.712 66.3496 107 66.6551 106.989 67.0226C106.978 67.3835 106.683 67.6669 106.325 67.6669L106.327 67.6647Z" fill="#FE7624"/>
<path d="M132.718 53.1699C132.499 53.1699 132.281 53.1478 132.068 53.1013C131.71 53.026 131.48 52.674 131.555 52.3153C131.63 51.9567 131.982 51.7264 132.34 51.8017C132.464 51.8283 132.592 51.8415 132.718 51.8415C134.472 51.8415 135.953 49.2999 135.953 46.2934C135.953 45.5118 135.858 44.7569 135.67 44.0462C135.575 43.692 135.788 43.3289 136.141 43.2337C136.495 43.1385 136.858 43.351 136.953 43.7053C137.172 44.5266 137.282 45.3989 137.282 46.2934C137.282 50.1501 135.279 53.1699 132.721 53.1699H132.718Z" fill="#FE7624"/>
<path d="M129.063 56.1876L131.642 62.763L137.105 59.8694C137.654 60.5114 146.532 71.776 134.551 76.2438C126.691 79.1751 117.989 75.3161 112.795 70.4144L117.742 67.4212L112.483 56.4466L129.063 56.1876Z" fill="white"/>
<path d="M128.791 77.9197C126.737 77.9197 124.61 77.5788 122.471 76.8991C118.801 75.7323 115.203 73.6003 112.339 70.8971C112.189 70.7554 112.114 70.5495 112.134 70.3436C112.156 70.1377 112.273 69.9539 112.45 69.8454L116.881 67.1643L111.882 56.7322C111.784 56.5285 111.798 56.2872 111.915 56.0946C112.032 55.9019 112.242 55.7824 112.468 55.7802L129.047 55.5211C129.315 55.5189 129.574 55.685 129.675 55.9418L131.982 61.8265L136.789 59.2804C137.063 59.1343 137.402 59.2007 137.603 59.4354C137.968 59.8627 139.113 61.3881 140.033 63.3076C141.366 66.0884 141.758 68.6012 141.194 70.7775C140.493 73.4896 138.332 75.5375 134.777 76.8637C132.893 77.5655 130.876 77.9175 128.787 77.9175L128.791 77.9197ZM113.898 70.5207C119.068 75.0527 127.177 78.2828 134.317 75.6194C137.444 74.4527 139.325 72.7125 139.911 70.4454C140.926 66.5223 137.934 62.0745 136.919 60.7151L131.946 63.3497C131.778 63.4382 131.584 63.4515 131.405 63.3851C131.228 63.3187 131.086 63.1814 131.018 63.0043L128.607 56.8562L113.522 57.0908L118.334 67.1311C118.482 67.4389 118.372 67.8108 118.08 67.9879L113.894 70.5185L113.898 70.5207Z" fill="#2E186A"/>
<path d="M105.67 56.4178C107.957 56.4178 109.812 54.6663 109.812 52.5057C109.812 50.3452 107.957 48.5937 105.67 48.5937C103.383 48.5937 101.528 50.3452 101.528 52.5057C101.528 54.6663 103.383 56.4178 105.67 56.4178Z" fill="white"/>
<path d="M105.67 57.082C103.021 57.082 100.865 55.0297 100.865 52.5058C100.865 49.9818 103.021 47.9295 105.67 47.9295C108.319 47.9295 110.475 49.9818 110.475 52.5058C110.475 55.0297 108.319 57.082 105.67 57.082ZM105.67 49.2579C103.75 49.2579 102.191 50.7147 102.191 52.5058C102.191 54.2968 103.753 55.7536 105.67 55.7536C107.587 55.7536 109.148 54.2968 109.148 52.5058C109.148 50.7147 107.587 49.2579 105.67 49.2579Z" fill="#2E186A"/>
<path d="M130.767 43.0698C133.054 43.0698 134.909 41.3184 134.909 39.1578C134.909 36.9972 133.054 35.2457 130.767 35.2457C128.48 35.2457 126.625 36.9972 126.625 39.1578C126.625 41.3184 128.48 43.0698 130.767 43.0698Z" fill="white"/>
<path d="M130.768 43.734C128.119 43.734 125.963 41.6817 125.963 39.1578C125.963 36.6339 128.119 34.5815 130.768 34.5815C133.417 34.5815 135.573 36.6339 135.573 39.1578C135.573 41.6817 133.417 43.734 130.768 43.734ZM130.768 35.9099C128.849 35.9099 127.29 37.3667 127.29 39.1578C127.29 40.9489 128.851 42.4057 130.768 42.4057C132.685 42.4057 134.246 40.9489 134.246 39.1578C134.246 37.3667 132.685 35.9099 130.768 35.9099Z" fill="#2E186A"/>
<path d="M128.033 58.419C133.801 54.0966 133.991 44.5889 128.455 37.1832C122.92 29.7774 113.756 27.2778 107.987 31.6003C102.218 35.9227 102.029 45.4303 107.565 52.8361C113.1 60.2419 122.264 62.7414 128.033 58.419Z" fill="white"/>
<path d="M121.432 61.1845C115.844 61.1845 109.752 57.6842 106.026 51.7619C103.178 47.2344 102.19 42.0913 103.318 37.6524C104.151 34.3668 106.042 31.8186 108.784 30.2799C115.384 26.5759 124.895 30.147 129.985 38.2391C132.833 42.7666 133.819 47.9096 132.694 52.3486C131.86 55.6341 129.97 58.1824 127.228 59.7211C125.459 60.7129 123.48 61.1845 121.432 61.1845ZM114.608 30.1338C112.775 30.1338 111.01 30.5522 109.434 31.4378C107.017 32.7949 105.345 35.0554 104.604 37.98C103.567 42.067 104.494 46.8336 107.15 51.0534C111.871 58.5565 120.587 61.9262 126.58 58.5632C128.997 57.206 130.668 54.9456 131.409 52.0209C132.446 47.934 131.52 43.1673 128.864 38.9475C125.386 33.4193 119.738 30.136 114.608 30.136V30.1338Z" fill="#2E186A"/>
<path d="M122.912 55.5942C121.262 55.5942 119.632 54.7618 118.166 53.1323C117.806 52.7316 117.704 52.1714 117.901 51.6689C118.1 51.1597 118.564 50.8121 119.113 50.7634C122.242 50.4844 123.92 49.0985 124.776 47.9849C125.092 47.5731 125.589 47.3716 126.109 47.4469C126.62 47.5221 127.053 47.8653 127.239 48.3457C128.42 51.4076 127.69 53.8474 125.236 55.0363C124.466 55.4082 123.688 55.5942 122.912 55.5942ZM125.828 48.7952C124.809 50.1191 122.839 51.7663 119.232 52.0873C119.186 52.0917 119.153 52.1139 119.137 52.1537C119.117 52.2024 119.142 52.229 119.155 52.2423C120.375 53.5972 122.321 54.9743 124.659 53.8408C126.489 52.953 126.943 51.2637 126.003 48.8239C125.99 48.7885 125.961 48.7686 125.921 48.7619C125.866 48.7531 125.837 48.7863 125.83 48.7952H125.828Z" fill="#2E186A"/>
<path d="M120.795 48.7353C120.554 48.7353 120.322 48.6047 120.205 48.3745C120.037 48.049 120.165 47.6483 120.492 47.48L122.407 46.4948L118.082 41.4293C117.843 41.1503 117.876 40.7319 118.155 40.4928C118.434 40.2537 118.851 40.2869 119.09 40.5659L123.959 46.269C124.092 46.424 124.145 46.6299 124.105 46.8291C124.066 47.0284 123.937 47.1989 123.758 47.2918L121.096 48.6601C120.999 48.711 120.895 48.7331 120.793 48.7331L120.795 48.7353Z" fill="#2E186A"/>
<path d="M109.949 42.1112C109.863 42.1112 109.776 42.0935 109.692 42.0581C109.354 41.9164 109.197 41.5267 109.339 41.188C109.812 40.0589 111.324 38.104 113.648 38.7836C114 38.8855 114.203 39.2552 114.099 39.6072C113.995 39.9592 113.628 40.1607 113.277 40.0589C112.536 39.8419 111.884 40.0323 111.289 40.6389C110.809 41.1282 110.564 41.6972 110.561 41.7016C110.455 41.9562 110.208 42.109 109.949 42.109V42.1112Z" fill="#2E186A"/>
<path d="M118.772 37.2472C118.606 37.2472 118.438 37.1852 118.31 37.059C118.046 36.8022 118.042 36.3837 118.296 36.1203C119.159 35.2325 121.297 33.9262 123.214 35.341C123.508 35.5579 123.572 35.9741 123.353 36.2708C123.135 36.5675 122.721 36.6273 122.425 36.4103C120.952 35.321 119.263 37.028 119.247 37.0457C119.117 37.1785 118.944 37.2472 118.772 37.2472Z" fill="#2E186A"/>
<path d="M114.734 46.0764C115.237 45.8514 115.374 45.0636 115.041 44.3167C114.707 43.5699 114.03 43.1469 113.527 43.3719C113.024 43.5969 112.886 44.3847 113.22 45.1315C113.553 45.8784 114.231 46.3014 114.734 46.0764Z" fill="#2E186A"/>
<path d="M124.159 42.2121C124.633 41.9363 124.683 41.1367 124.271 40.4263C123.859 39.7159 123.14 39.3635 122.666 39.6394C122.192 39.9152 122.142 40.7147 122.554 41.4252C122.966 42.1356 123.685 42.4879 124.159 42.2121Z" fill="#2E186A"/>
<path d="M97.263 31.5418C100.525 27.0585 98.0768 9.76312 82.963 2.43714C67.6635 -4.97961 61.5671 9.49301 60.3642 13.1793C59.1613 16.8655 60.1785 25.6239 72.8179 30.1957C85.4573 34.7675 93.5393 36.6627 97.2652 31.5418H97.263Z" fill="#2E186A"/>
<path d="M100.735 37.5195L96.0162 34.4731C94.3268 33.3816 93.8934 31.2053 95.0477 29.609L95.2423 29.3411C96.3965 27.7449 98.7028 27.3353 100.392 28.4268L105.111 31.4732L100.735 37.5195Z" fill="#FF8C7E"/>
<path d="M130.767 29.4939C130.767 29.4939 127.99 14.0316 107.085 27.5124C103.629 29.4252 100.179 33.3351 98.8483 37.5482C96.7852 44.0705 101.285 53.8872 105.915 52.5057C106.294 52.3928 106.669 52.2578 107.043 52.1028C106.888 51.8747 106.736 51.6445 106.588 51.4098C106.05 50.5574 105.59 49.6873 105.199 48.8106C110.017 43.858 106.369 35.4029 105.993 34.6457C107.713 35.042 109.621 35.6929 110.086 37.7408L123.477 32.4008C125.746 33.9351 127.813 36.0272 129.427 38.5932C129.447 38.6264 129.467 38.6596 129.487 38.6928C129.874 36.3881 128.642 33.6672 126.252 31.296L130.772 29.4939H130.767Z" fill="#2E186A"/>
<path d="M167.401 11.9151C166.807 10.7063 165.347 7.55802 165.502 6.05917C165.703 4.10425 164.144 2.6851 163.078 5.14038C162.013 7.59565 162.997 10.4539 162.997 10.4539" fill="white"/>
<path d="M167.401 12.5793C167.156 12.5793 166.922 12.4442 166.807 12.2095C166.002 10.5756 164.677 7.59566 164.843 5.99276C164.931 5.12931 164.593 4.5559 164.394 4.50276C164.319 4.48505 164.012 4.65996 163.687 5.40606C162.74 7.5868 163.614 10.2126 163.622 10.2391C163.74 10.5867 163.556 10.9631 163.209 11.0826C162.864 11.2022 162.486 11.0184 162.366 10.6708C162.322 10.5446 161.312 7.5381 162.468 4.87692C163.26 3.05262 164.315 3.11019 164.728 3.21867C165.69 3.47106 166.305 4.72195 166.161 6.13002C166.068 7.0311 166.771 9.13657 167.996 11.6228C168.158 11.9527 168.023 12.349 167.696 12.5129C167.6 12.5593 167.501 12.5815 167.404 12.5815L167.401 12.5793Z" fill="#2E186A"/>
<path d="M163.428 19.064L167.384 25.6239C170.296 24.8955 173.279 23.1487 175.024 19.9009C171.997 16.0751 166.917 9.80744 165.856 9.47313C162.933 8.55213 158.468 8.82887 157.588 9.09676C155.718 9.66575 156.71 10.8037 158.667 10.9565C160.542 11.1048 163.932 11.4059 163.932 11.4059C161.002 11.4635 157.358 11.6871 156.808 12.0546C155.967 12.6125 156.677 14.2176 158.665 14.1247L164.328 14.045C164.328 14.045 157.969 14.7202 157.203 15.0501C156.436 15.38 156.516 17.5452 160.43 16.912C164.346 16.2788 164.613 16.5357 164.613 16.5357C164.613 16.5357 159.872 17.5275 158.966 17.9393C158.059 18.3489 158.95 20.6536 163.426 19.0662L163.428 19.064Z" fill="white"/>
<path d="M167.384 26.2881C167.156 26.2881 166.937 26.1686 166.816 25.9671L163.134 19.8632C159.092 21.1185 158.183 19.1968 158.09 18.9644C157.895 18.4817 157.986 17.9747 158.289 17.6316C156.732 17.3924 156.323 16.498 156.222 16.1526C156.016 15.4419 156.323 14.7047 156.94 14.439C156.945 14.4368 156.951 14.4346 156.958 14.4324C156.398 14.1313 156.031 13.6774 155.881 13.2147C155.662 12.5461 155.881 11.8731 156.44 11.5011C156.571 11.4148 156.792 11.3373 157.082 11.2686C156.412 10.9786 155.994 10.5358 155.936 10.0089C155.892 9.61039 156.025 8.87979 157.398 8.46356C158.342 8.17575 162.917 7.85251 166.059 8.84215C166.446 8.96392 167.479 9.28937 175.548 19.4913C175.711 19.6994 175.738 19.985 175.612 20.2175C173.998 23.224 171.134 25.3738 167.547 26.2704C167.494 26.2837 167.439 26.2903 167.386 26.2903L167.384 26.2881ZM163.426 18.3998C163.654 18.3998 163.87 18.5171 163.994 18.7208L167.693 24.8513C170.542 24.0255 172.835 22.3096 174.228 19.9628C167.174 11.065 165.84 10.186 165.644 10.1019C162.811 9.20966 158.508 9.51076 157.78 9.73216C157.57 9.79636 157.436 9.85835 157.352 9.90706C157.551 10.0421 157.995 10.2392 158.718 10.2945C160.575 10.4406 163.956 10.7395 163.99 10.7439C164.341 10.7749 164.607 11.076 164.593 11.428C164.582 11.7801 164.297 12.0612 163.943 12.0701C160.284 12.1432 157.568 12.411 157.153 12.6192C157.146 12.6258 157.093 12.6612 157.137 12.8029C157.232 13.0907 157.708 13.5047 158.63 13.4605L164.315 13.3808C164.675 13.3741 164.965 13.6509 164.987 14.0051C165.009 14.3593 164.748 14.6671 164.394 14.7047C161.405 15.0235 158.052 15.4574 157.491 15.6501C157.478 15.6833 157.466 15.763 157.531 15.867C157.745 16.2213 158.605 16.5356 160.321 16.2589C164.562 15.5726 164.856 15.8537 165.069 16.0596C165.246 16.2301 165.314 16.4847 165.248 16.7216C165.179 16.9585 164.987 17.1378 164.746 17.1888C163.021 17.5496 160.124 18.2072 159.335 18.5061C159.364 18.5526 159.417 18.6168 159.519 18.6832C159.762 18.847 160.75 19.3119 163.202 18.4419C163.275 18.4153 163.351 18.4042 163.424 18.4042L163.426 18.3998Z" fill="#2E186A"/>
<path d="M106.402 67.6669C106.371 67.6669 106.338 67.6669 106.307 67.6669C105.94 67.6558 105.653 67.3503 105.664 66.9828C105.675 66.6241 105.969 66.3385 106.327 66.3385C106.334 66.3385 106.341 66.3385 106.347 66.3385H106.402C108.156 66.3385 109.637 63.7991 109.637 60.7904C109.637 57.7816 108.156 55.2422 106.402 55.2422C106.035 55.2422 105.739 54.9455 105.739 54.578C105.739 54.2105 106.035 53.9138 106.402 53.9138C108.961 53.9138 110.964 56.9337 110.964 60.7904C110.964 64.6471 108.961 67.6669 106.402 67.6669Z" fill="#FE7624"/>
<path d="M136.309 44.5377C136.015 44.5377 135.748 44.3407 135.668 44.044C135.144 42.0691 133.959 40.743 132.716 40.743C132.349 40.743 132.053 40.4463 132.053 40.0788C132.053 39.7113 132.349 39.4146 132.716 39.4146C134.596 39.4146 136.258 41.0972 136.951 43.703C137.046 44.0573 136.833 44.4204 136.48 44.5156C136.422 44.5311 136.365 44.5377 136.309 44.5377Z" fill="#FE7624"/>
<path d="M156.169 148.627H115.719C114.146 148.627 112.935 148.031 112.307 146.953C111.586 145.713 111.747 143.984 112.753 142.211L121.452 125.617C121.623 125.292 122.023 125.168 122.348 125.338C122.673 125.509 122.797 125.909 122.626 126.235L113.916 142.848C113.14 144.219 112.974 145.465 113.452 146.287C113.832 146.942 114.637 147.301 115.716 147.301H156.166C158.966 147.301 162.539 145.018 164.129 142.211L186.482 102.776C187.247 101.425 187.413 100.179 186.936 99.3575C186.555 98.7021 185.75 98.3435 184.671 98.3435C184.304 98.3435 184.008 98.0468 184.008 97.6793C184.008 97.3118 184.304 97.0151 184.671 97.0151C186.244 97.0151 187.455 97.6107 188.083 98.6889C188.804 99.9287 188.643 101.658 187.637 103.431L165.283 142.866C163.452 146.096 159.448 148.629 156.166 148.629L156.169 148.627Z" fill="#2E186A"/>
<path d="M93.4749 56.1809L41.5596 57.6399C41.5596 57.6399 48.85 101.151 31.9341 123.928L82.6531 123.831C82.6531 123.831 97.9747 110.886 93.4727 56.1809H93.4749Z" fill="white"/>
<path d="M31.9343 124.592C31.6845 124.592 31.4545 124.45 31.3417 124.227C31.2289 124.003 31.2511 123.733 31.4014 123.532C40.0341 111.906 42.1613 94.655 42.4266 82.2281C42.7141 68.723 40.923 57.8591 40.9053 57.7506C40.8743 57.5602 40.9252 57.3676 41.0468 57.2193C41.1684 57.0709 41.3497 56.9824 41.5399 56.9779L93.4552 55.519C93.8068 55.5101 94.1053 55.7758 94.1341 56.1278C95.4232 71.7871 95.819 93.9687 90.3816 110.726C87.0935 120.864 83.2415 124.203 83.0801 124.34C82.9607 124.442 82.8103 124.497 82.6533 124.497L31.9343 124.594V124.592ZM42.3293 58.2842C42.7273 60.9896 44.001 70.6691 43.7534 82.2569C43.5831 90.2714 42.7318 97.624 41.2215 104.113C39.4503 111.718 36.7659 118.152 33.2301 123.262L82.3902 123.166C83.1487 122.411 86.3925 118.818 89.1809 110.128C94.4171 93.816 94.0943 72.283 92.8626 56.8606L42.3293 58.282V58.2842Z" fill="#2E186A"/>
<path d="M73.5524 117.286C77.7045 117.286 81.0706 113.916 81.0706 109.759C81.0706 105.601 77.7045 102.231 73.5524 102.231C69.4002 102.231 66.0342 105.601 66.0342 109.759C66.0342 113.916 69.4002 117.286 73.5524 117.286Z" fill="#6A6AF3"/>
<path d="M55.1952 57.5027C57.4241 60.5225 61.9903 61.6007 61.9903 61.6007C63.6598 65.8737 68.0336 66.3962 67.7638 65.4774C67.4941 64.5564 64.0158 59.544 64.0158 59.544C64.0158 59.544 64.374 59.5661 66.4017 62.8339C68.4316 66.1017 71.6534 66.5578 71.4124 65.7895C71.1714 65.0213 66.8727 57.9876 66.8727 57.9876L72.2062 64.0959C73.4688 65.5681 75.1096 65.0191 74.9526 64.0582C74.8508 63.4295 70.7667 58.5078 68.9203 56.3337C68.9203 56.3337 73.575 60.6997 75.1339 61.676C76.6928 62.6502 77.3716 61.1956 76.9051 60.434C76.4385 59.6724 71.3549 52.2645 63.1822 49.0609C63.1822 49.0609 58.983 46.9466 56.1682 51.1951C53.3533 55.4415 55.1908 57.5049 55.1908 57.5049L55.1952 57.5027Z" fill="white"/>
<path d="M70.9343 66.7769C70.2533 66.7769 69.3312 66.4692 68.3892 65.8471C68.2963 66.1105 68.073 66.3275 67.7546 66.436C66.576 66.8389 63.1066 65.8449 61.5012 62.1586C60.3669 61.8398 56.6852 60.6288 54.6707 57.9123C54.4142 57.5979 52.7094 55.2135 55.6171 50.8254C58.0871 47.0993 61.8042 47.6373 63.4537 48.452C72.2942 51.9302 77.4243 60.0045 77.4729 60.0864C77.8798 60.7506 77.7693 61.6649 77.2164 62.2118C76.9931 62.4354 76.1551 63.0951 74.7863 62.2383C74.6558 62.1564 74.5055 62.0524 74.3396 61.9328C75.1401 63.0022 75.5669 63.6774 75.6111 63.9519C75.715 64.5962 75.3789 65.1984 74.7553 65.4884C73.9637 65.8559 72.7122 65.7032 71.7061 64.5276L71.1931 63.9387C71.6486 64.7423 71.9758 65.36 72.0466 65.5858C72.1837 66.022 71.9847 66.4626 71.5623 66.6552C71.3921 66.7327 71.1798 66.7725 70.9365 66.7725L70.9343 66.7769ZM64.0154 58.8798C64.0287 58.8798 64.0441 58.8798 64.0574 58.8798C64.3692 58.8997 64.7562 58.924 66.9652 62.4819C68.146 64.3814 69.6474 65.143 70.47 65.3689C69.7558 64.056 67.958 61.0362 66.3062 58.3329C66.1271 58.0385 66.2023 57.6554 66.4787 57.4518C66.7573 57.2481 67.1443 57.2901 67.372 57.5492L72.7055 63.6575C73.3004 64.3504 73.9195 64.4102 74.1937 64.2818C74.2711 64.2464 74.2932 64.2132 74.2998 64.1888C74.0057 63.5601 71.5093 60.4052 68.418 56.761C68.1902 56.4931 68.2123 56.0924 68.4666 55.8511C68.7209 55.6075 69.1211 55.6075 69.3776 55.8466C69.4241 55.8909 74.0035 60.1794 75.4895 61.1092C75.7725 61.2863 76.1285 61.4192 76.2833 61.2664C76.3961 61.1535 76.4248 60.9122 76.343 60.7771C76.2966 60.6996 71.2616 52.9353 62.9452 49.6741C62.9253 49.6675 62.9076 49.6586 62.8899 49.6498C62.7417 49.5767 59.1706 47.8676 56.7272 51.556C54.2705 55.2622 55.6415 56.9935 55.7012 57.0665C55.7144 57.082 55.7189 57.0887 55.7321 57.1064C57.7864 59.8893 62.1027 60.941 62.1469 60.952C62.3592 61.0029 62.5339 61.1535 62.6113 61.3572C63.6682 64.0648 65.8949 65.0545 66.9033 65.1895C66.3372 64.1689 64.8557 61.9129 63.4759 59.9225C63.3299 59.7122 63.3189 59.4399 63.4427 59.2163C63.5599 59.006 63.781 58.8775 64.0198 58.8775L64.0154 58.8798Z" fill="#2E186A"/>
<path d="M72.2277 113.522C72.0243 113.522 71.8341 113.429 71.7081 113.27L69.1342 110.018C68.9065 109.73 68.9551 109.311 69.2426 109.086C69.53 108.858 69.948 108.906 70.1735 109.194L72.2255 111.787L76.5706 106.25C76.7961 105.962 77.2141 105.911 77.5015 106.137C77.789 106.362 77.8398 106.781 77.6143 107.069L72.7496 113.268C72.6235 113.427 72.4334 113.52 72.2299 113.522H72.2277Z" fill="white"/>
<path d="M69.5721 72.1214H49.2288C48.8617 72.1214 48.5654 71.8247 48.5654 71.4572C48.5654 71.0897 48.8617 70.793 49.2288 70.793H69.5721C69.9392 70.793 70.2355 71.0897 70.2355 71.4572C70.2355 71.8247 69.9392 72.1214 69.5721 72.1214Z" fill="#2E186A"/>
<path d="M86.3775 77.4349H49.2288C48.8617 77.4349 48.5654 77.1382 48.5654 76.7707C48.5654 76.4032 48.8617 76.1065 49.2288 76.1065H86.3775C86.7446 76.1065 87.0409 76.4032 87.0409 76.7707C87.0409 77.1382 86.7446 77.4349 86.3775 77.4349Z" fill="#2E186A"/>
<path d="M87.483 82.527H50.3343C49.9672 82.527 49.6709 82.2303 49.6709 81.8628C49.6709 81.4953 49.9672 81.1986 50.3343 81.1986H87.483C87.85 81.1986 88.1463 81.4953 88.1463 81.8628C88.1463 82.2303 87.85 82.527 87.483 82.527Z" fill="#2E186A"/>
<path d="M87.2623 87.6191H50.1136C49.7465 87.6191 49.4502 87.3224 49.4502 86.9549C49.4502 86.5874 49.7465 86.2907 50.1136 86.2907H87.2623C87.6293 86.2907 87.9256 86.5874 87.9256 86.9549C87.9256 87.3224 87.6293 87.6191 87.2623 87.6191Z" fill="#2E186A"/>
<path d="M85.9351 92.7112H48.7864C48.4194 92.7112 48.123 92.4145 48.123 92.047C48.123 91.6795 48.4194 91.3828 48.7864 91.3828H85.9351C86.3022 91.3828 86.5985 91.6795 86.5985 92.047C86.5985 92.4145 86.3022 92.7112 85.9351 92.7112Z" fill="#2E186A"/>
<path d="M78.1959 98.2461H47.4598C47.0927 98.2461 46.7964 97.9494 46.7964 97.5819C46.7964 97.2144 47.0927 96.9177 47.4598 96.9177H78.1959C78.5629 96.9177 78.8592 97.2144 78.8592 97.5819C78.8592 97.9494 78.5629 98.2461 78.1959 98.2461Z" fill="#2E186A"/>
<path d="M209.344 119.863L200.508 110.21C199.754 109.385 198.394 109.604 197.938 110.624L191.975 124.005C191.451 125.181 192.521 126.441 193.777 126.124L198.805 124.858L199.362 134.088C199.442 135.398 200.678 136.333 201.972 136.056L205.651 135.272C206.92 135.002 207.666 133.689 207.241 132.472L204.119 123.516L208.577 122.394C209.713 122.108 210.131 120.722 209.344 119.861V119.863Z" fill="#2E186A"/>
</svg>
