<svg width="507" height="353" viewBox="0 0 507 353" fill="none" xmlns="http://www.w3.org/2000/svg">
<path fill-rule="evenodd" clip-rule="evenodd" d="M110.283 177.004H49.1014C44.8429 177.004 41.4072 180.439 41.4072 184.698V206.442C41.4072 210.701 44.8429 214.136 49.1014 214.136H110.283C114.542 214.136 117.978 210.701 117.978 206.442V184.698C117.978 180.439 114.542 177.004 110.283 177.004ZM49.1014 179.234H110.283C113.31 179.234 115.747 181.671 115.747 184.698V206.442C115.747 209.469 113.31 211.906 110.283 211.906H49.1014C46.0746 211.906 43.6374 209.469 43.6374 206.442V184.698C43.6374 181.671 46.0746 179.234 49.1014 179.234Z" fill="#5770BE"/>
<path fill-rule="evenodd" clip-rule="evenodd" d="M105.971 185.516C106.587 185.516 107.086 186.015 107.086 186.631C107.086 187.225 106.622 187.71 106.037 187.744L105.971 187.746H55.4198C54.8039 187.746 54.3047 187.247 54.3047 186.631C54.3047 186.037 54.7689 185.551 55.3543 185.518L55.4198 185.516H105.971Z" fill="#5770BE"/>
<path fill-rule="evenodd" clip-rule="evenodd" d="M95.0803 191.166C95.6961 191.166 96.1954 191.665 96.1954 192.281C96.1954 192.874 95.7311 193.36 95.1458 193.394L95.0803 193.396H55.4198C54.8039 193.396 54.3047 192.896 54.3047 192.281C54.3047 191.687 54.7689 191.201 55.3543 191.167L55.4198 191.166H95.0803Z" fill="#5770BE"/>
<path fill-rule="evenodd" clip-rule="evenodd" d="M105.971 197.373C106.587 197.373 107.086 197.872 107.086 198.488C107.086 199.082 106.622 199.567 106.037 199.601L105.971 199.603H55.4198C54.8039 199.603 54.3047 199.104 54.3047 198.488C54.3047 197.894 54.7689 197.409 55.3543 197.375L55.4198 197.373H105.971Z" fill="#5770BE"/>
<path fill-rule="evenodd" clip-rule="evenodd" d="M95.0803 203.023C95.6961 203.023 96.1954 203.522 96.1954 204.138C96.1954 204.732 95.7311 205.217 95.1458 205.251L95.0803 205.253H55.4198C54.8039 205.253 54.3047 204.754 54.3047 204.138C54.3047 203.544 54.7689 203.059 55.3543 203.025L55.4198 203.023H95.0803Z" fill="#5770BE"/>
<path fill-rule="evenodd" clip-rule="evenodd" d="M44.7523 190.608C49.1659 190.608 52.7439 187.03 52.7439 182.616C52.7439 178.203 49.1659 174.625 44.7523 174.625C40.3387 174.625 36.7607 178.203 36.7607 182.616C36.7607 187.03 40.3387 190.608 44.7523 190.608Z" fill="#FF8D7E"/>
<path fill-rule="evenodd" clip-rule="evenodd" d="M220.642 231.755H212.65V225.102H220.642C221.906 225.102 222.909 226.105 222.909 227.369V229.488C222.909 230.751 221.906 231.755 220.642 231.755Z" fill="#FF8D7E"/>
<path fill-rule="evenodd" clip-rule="evenodd" d="M322.265 231.755H303.383C302.119 231.755 301.115 230.751 301.115 229.488V227.369C301.115 226.105 302.119 225.102 303.383 225.102H322.265C323.529 225.102 324.532 226.105 324.532 227.369V229.488C324.495 230.751 323.492 231.755 322.265 231.755Z" fill="#FF8D7E"/>
<path fill-rule="evenodd" clip-rule="evenodd" d="M292.677 231.755H230.752C229.488 231.755 228.484 230.751 228.484 229.488V227.369C228.484 226.105 229.488 225.102 230.752 225.102H292.677C293.941 225.102 294.944 226.105 294.944 227.369V229.488C294.944 230.751 293.941 231.755 292.677 231.755Z" fill="#FF8D7E"/>
<path fill-rule="evenodd" clip-rule="evenodd" d="M324.272 218.039H213.022C212.425 218.039 211.934 218.51 211.908 219.106L211.865 220.156C211.735 223.47 211.705 226.125 211.787 228.604L211.809 229.238C211.871 230.69 212.11 233.089 212.657 238.011C212.72 238.576 213.197 239.003 213.765 239.003H324.272C327.973 239.003 330.963 236.014 330.963 232.313V224.693C330.963 221.022 327.966 218.039 324.272 218.039ZM214.092 220.269L324.272 220.27C326.737 220.27 328.733 222.256 328.733 224.693V232.313L328.731 232.426C328.671 234.843 326.704 236.773 324.272 236.773H214.764L214.558 234.878C214.201 231.558 214.051 229.849 214.025 228.792C213.94 226.463 213.958 223.986 214.067 220.929L214.092 220.269Z" fill="#5770BE"/>
<path fill-rule="evenodd" clip-rule="evenodd" d="M92.0702 212.055C92.664 212.055 93.1495 212.519 93.1834 213.105L93.1853 213.17V248.556C93.1853 249.172 92.686 249.671 92.0702 249.671C91.4763 249.671 90.9909 249.207 90.957 248.621L90.9551 248.556V213.17C90.9551 212.554 91.4543 212.055 92.0702 212.055Z" fill="#5770BE"/>
<path fill-rule="evenodd" clip-rule="evenodd" d="M92.0702 284.127C92.664 284.127 93.1495 284.592 93.1834 285.177L93.1853 285.243V289.703C93.1853 293.225 96.2385 296.106 100.081 296.169L100.21 296.171H156.226C156.842 296.171 157.341 296.67 157.341 297.286C157.341 297.88 156.877 298.365 156.291 298.399L156.226 298.401H100.21C95.1612 298.401 91.0383 294.611 90.9563 289.848L90.9551 289.703V285.243C90.9551 284.627 91.4543 284.127 92.0702 284.127Z" fill="#5770BE"/>
<path fill-rule="evenodd" clip-rule="evenodd" d="M267.29 296.171C267.906 296.171 268.406 296.67 268.406 297.286C268.406 297.88 267.941 298.365 267.356 298.399L267.29 298.401H222.092C221.476 298.401 220.977 297.902 220.977 297.286C220.977 296.692 221.441 296.206 222.026 296.173L222.092 296.171H267.29Z" fill="#5770BE"/>
<path fill-rule="evenodd" clip-rule="evenodd" d="M419.092 237.479C419.686 237.479 420.172 237.943 420.206 238.529L420.208 238.594V289.703C420.208 294.486 416.135 298.323 411.105 298.4L410.952 298.401H369.582C368.966 298.401 368.467 297.901 368.467 297.286C368.467 296.692 368.931 296.206 369.516 296.172L369.582 296.17H410.952C414.812 296.17 417.908 293.329 417.976 289.821L417.977 289.703V238.594C417.977 237.978 418.477 237.479 419.092 237.479Z" fill="#5770BE"/>
<path fill-rule="evenodd" clip-rule="evenodd" d="M419.093 133.663C419.686 133.663 420.172 134.128 420.206 134.713L420.208 134.778V158.419C420.208 159.034 419.708 159.534 419.093 159.534C418.499 159.534 418.013 159.069 417.979 158.484L417.978 158.419V135.893H93.1849L93.1853 177.784C93.1853 178.378 92.7211 178.863 92.1357 178.897L92.0702 178.899C91.4763 178.899 90.9909 178.435 90.957 177.85L90.9551 177.784V134.778C90.9551 134.185 91.4193 133.699 92.0047 133.665L92.0702 133.663H419.093Z" fill="#5770BE"/>
<path fill-rule="evenodd" clip-rule="evenodd" d="M259.93 98.1289H237.405C238.186 98.7236 238.892 99.467 239.524 100.285C239.524 100.322 239.561 100.322 239.561 100.359L249.523 116.119H263.053C262.83 115.933 262.718 115.636 262.718 115.301V100.694C262.718 99.2812 261.454 98.1289 259.93 98.1289ZM255.321 107.905H253.686V109.54C253.686 110.135 253.165 110.655 252.571 110.655C251.939 110.655 251.456 110.135 251.456 109.54V107.942H249.857C249.225 107.942 248.742 107.459 248.742 106.827C248.742 106.195 249.225 105.712 249.857 105.712H251.493V104.076C251.493 103.481 252.013 102.961 252.608 102.961C253.24 102.961 253.723 103.481 253.723 104.076V105.674H255.321C255.953 105.674 256.436 106.158 256.436 106.79C256.436 107.384 255.916 107.905 255.321 107.905Z" fill="#5770BE"/>
<path fill-rule="evenodd" clip-rule="evenodd" d="M412.179 89.9885L98.947 90.3974C94.4122 90.3974 90.7695 94.3002 90.7695 99.058L90.9554 116.379L146.041 116.119L156.003 100.359C156.003 100.322 156.04 100.322 156.04 100.285C158.085 97.5712 161.17 95.9357 164.329 95.9357H230.901C231.012 95.8986 231.087 95.8986 231.198 95.8986H259.968C262.756 95.8986 264.986 98.0544 264.986 100.693V115.301C264.986 115.636 264.837 115.896 264.651 116.119H420.394V118.349H248.928C248.557 118.349 248.185 118.163 247.999 117.829L237.74 101.586C236.142 99.4669 233.726 98.1659 231.272 98.1659H164.292C161.839 98.1659 159.423 99.4297 157.824 101.586L147.565 117.829C147.38 118.163 147.008 118.349 146.636 118.349L90.9554 118.609L91.1412 137.492H420.394V98.6491C420.357 93.8542 416.677 89.9885 412.179 89.9885ZM104.374 108.834C101.623 108.834 99.3929 106.604 99.3929 103.853C99.3929 101.102 101.623 98.8722 104.374 98.8722C107.124 98.8722 109.355 101.102 109.355 103.853C109.355 106.604 107.124 108.834 104.374 108.834ZM120.766 108.834C118.015 108.834 115.785 106.604 115.785 103.853C115.785 101.102 118.015 98.8722 120.766 98.8722C123.517 98.8722 125.747 101.102 125.747 103.853C125.747 106.604 123.517 108.834 120.766 108.834ZM137.195 108.834C134.444 108.834 132.214 106.604 132.214 103.853C132.214 101.102 134.444 98.8722 137.195 98.8722C139.946 98.8722 142.176 101.102 142.176 103.853C142.176 106.604 139.946 108.834 137.195 108.834ZM402.961 105.526L400.842 107.087H400.991C401.586 107.161 402.032 107.719 401.995 108.313C401.92 108.871 401.437 109.317 400.88 109.317C400.842 109.317 400.805 109.317 400.768 109.317L397.98 109.02C397.943 109.02 397.906 109.02 397.832 109.02C397.497 109.02 397.163 108.871 396.94 108.573C396.754 108.313 396.679 108.016 396.754 107.681L397.311 104.745C397.423 104.15 398.018 103.741 398.612 103.853C399.207 103.964 399.616 104.559 399.504 105.154L399.467 105.34L401.697 103.704C402.181 103.333 402.887 103.444 403.258 103.964C403.63 104.485 403.482 105.154 402.961 105.526ZM410.804 99.7643L410.246 102.515C410.135 103.035 409.689 103.407 409.168 103.407C409.094 103.407 409.02 103.407 408.945 103.37C408.351 103.258 407.942 102.664 408.09 102.069L408.128 101.92L406.009 103.481C405.823 103.63 405.563 103.704 405.34 103.704C405.005 103.704 404.671 103.556 404.448 103.258C404.076 102.775 404.188 102.069 404.708 101.697L406.938 100.062L406.752 100.024C406.158 99.9501 405.712 99.3926 405.786 98.7979C405.86 98.2031 406.418 97.7571 407.013 97.8314L409.986 98.166C410.283 98.2031 410.581 98.3518 410.767 98.612C410.953 98.9837 410.99 99.4297 410.804 99.7643ZM225.177 107.124C224.731 106.715 224.656 106.009 225.065 105.563C225.474 105.117 226.18 105.042 226.626 105.451L228.187 106.789L229.749 105.451C230.232 105.042 230.938 105.117 231.31 105.6C231.719 106.083 231.644 106.789 231.161 107.161L229.86 108.239L231.161 109.354C231.607 109.763 231.681 110.469 231.273 110.915C231.049 111.175 230.752 111.287 230.418 111.287C230.157 111.287 229.897 111.213 229.674 111.027L228.113 109.689L226.552 111.027C226.329 111.213 226.106 111.287 225.846 111.287C225.511 111.287 225.214 111.138 224.991 110.878C224.582 110.395 224.656 109.689 225.139 109.317L226.44 108.239L225.177 107.124ZM116.157 129.017H109.801L111.399 130.467C111.845 130.876 111.882 131.582 111.473 132.028C111.25 132.288 110.953 132.399 110.656 132.399C110.395 132.399 110.135 132.288 109.912 132.102L106.381 128.868C106.009 128.682 105.749 128.311 105.749 127.865V127.828V127.79C105.749 127.493 105.861 127.196 106.121 126.973L109.801 123.553C110.247 123.144 110.953 123.144 111.362 123.627C111.771 124.073 111.734 124.78 111.288 125.189L109.615 126.712H116.157C116.789 126.712 117.272 127.196 117.272 127.828C117.272 128.459 116.752 129.017 116.157 129.017ZM133.701 127.902C133.701 128.348 133.441 128.72 133.069 128.906L129.538 132.139C129.315 132.325 129.055 132.437 128.795 132.437C128.497 132.437 128.2 132.325 127.977 132.065C127.568 131.619 127.605 130.913 128.051 130.504L129.649 129.054H123.293C122.661 129.054 122.178 128.571 122.178 127.939C122.178 127.307 122.661 126.824 123.293 126.824H129.835L128.163 125.3C127.717 124.891 127.679 124.185 128.088 123.739C128.497 123.293 129.203 123.256 129.649 123.665L133.329 127.084C133.552 127.307 133.701 127.605 133.701 127.902C133.701 127.865 133.701 127.828 133.701 127.902C133.701 127.865 133.701 127.865 133.701 127.902ZM370.028 130.058C370.028 131.099 369.211 131.916 368.17 131.916H148.272C147.231 131.916 146.413 131.099 146.413 130.058V126.564C146.413 125.523 147.231 124.705 148.272 124.705H368.17C369.211 124.705 370.028 125.523 370.028 126.564V130.058ZM389.32 126.787L387.387 127.902L388.13 130.244C388.279 130.69 388.13 131.173 387.758 131.47C387.387 131.768 386.903 131.805 386.495 131.582L384.413 130.392L382.294 131.954C382.108 132.102 381.885 132.177 381.625 132.177C381.365 132.177 381.179 132.102 380.956 131.954C380.547 131.656 380.399 131.173 380.547 130.69L381.328 128.274L379.246 126.787C378.837 126.49 378.689 126.006 378.837 125.523C378.986 125.077 379.432 124.743 379.915 124.743H382.48L383.261 122.326C383.409 121.88 383.855 121.546 384.339 121.546C384.822 121.546 385.268 121.843 385.417 122.326L386.197 124.743H388.762C389.282 124.743 389.691 125.077 389.84 125.56C389.989 126.044 389.766 126.564 389.32 126.787ZM407.087 132.139H400.842C400.21 132.139 399.727 131.656 399.727 131.024C399.727 130.392 400.21 129.909 400.842 129.909H407.087C407.719 129.909 408.202 130.392 408.202 131.024C408.202 131.656 407.719 132.139 407.087 132.139ZM407.087 128.682H400.842C400.21 128.682 399.727 128.199 399.727 127.567C399.727 126.935 400.21 126.452 400.842 126.452H407.087C407.719 126.452 408.202 126.935 408.202 127.567C408.202 128.199 407.719 128.682 407.087 128.682ZM407.087 125.189H400.842C400.21 125.189 399.727 124.705 399.727 124.073C399.727 123.442 400.21 122.958 400.842 122.958H407.087C407.719 122.958 408.202 123.442 408.202 124.073C408.202 124.705 407.719 125.189 407.087 125.189Z" fill="#5770BE"/>
<path fill-rule="evenodd" clip-rule="evenodd" d="M323.492 178.676H216.07C215.922 180.274 215.81 181.91 215.699 183.471C215.104 193.544 214.249 202.279 213.654 210.085H323.529C327.097 210.085 329.997 207.185 329.997 203.617V185.106C329.96 181.538 327.06 178.676 323.492 178.676Z" fill="#5770BE"/>
<path fill-rule="evenodd" clip-rule="evenodd" d="M362.26 268.033H274.762C270.057 268.033 266.213 271.877 266.213 276.582V314.57C266.213 319.274 270.057 323.119 274.762 323.119H362.26C366.965 323.119 370.81 319.274 370.81 314.57V276.582C370.81 271.877 366.965 268.033 362.26 268.033ZM274.762 270.263H362.26C365.733 270.263 368.579 273.109 368.579 276.582V314.57C368.579 318.042 365.733 320.888 362.26 320.888H274.762C271.289 320.888 268.443 318.042 268.443 314.57V276.582C268.443 273.109 271.289 270.263 274.762 270.263Z" fill="#5770BE"/>
<path fill-rule="evenodd" clip-rule="evenodd" d="M292.343 279.593C285.877 279.593 280.635 284.835 280.635 291.301C280.635 297.768 285.877 303.01 292.343 303.01C298.81 303.01 304.052 297.768 304.052 291.301C304.052 284.835 298.81 279.593 292.343 279.593ZM292.343 281.823C297.578 281.823 301.822 286.067 301.822 291.301C301.822 296.536 297.578 300.78 292.343 300.78C287.109 300.78 282.865 296.536 282.865 291.301C282.865 286.067 287.109 281.823 292.343 281.823Z" fill="#5770BE"/>
<path fill-rule="evenodd" clip-rule="evenodd" d="M351.666 300.965H338.434C336.48 300.965 334.902 302.543 334.902 304.496V305.835C334.902 307.789 336.48 309.366 338.434 309.366H351.666C353.578 309.366 355.143 307.8 355.197 305.866L355.197 304.496C355.197 302.543 353.62 300.965 351.666 300.965ZM338.434 303.196H351.666C352.388 303.196 352.967 303.774 352.967 304.496V305.835C352.947 306.545 352.356 307.136 351.666 307.136H338.434C337.711 307.136 337.133 306.557 337.133 305.835V304.496C337.133 303.774 337.711 303.196 338.434 303.196Z" fill="#5770BE"/>
<path fill-rule="evenodd" clip-rule="evenodd" d="M269.595 279.741C274.009 279.741 277.587 276.163 277.587 271.75C277.587 267.336 274.009 263.758 269.595 263.758C265.181 263.758 261.604 267.336 261.604 271.75C261.604 276.163 265.181 279.741 269.595 279.741Z" fill="#FF8D7E"/>
<path fill-rule="evenodd" clip-rule="evenodd" d="M309.853 288.551L353.008 288.662C353.624 288.664 354.122 289.164 354.12 289.78C354.118 290.374 353.653 290.858 353.068 290.891L353.002 290.892L309.848 290.781C309.232 290.779 308.734 290.279 308.735 289.663C308.737 289.069 309.202 288.585 309.788 288.553L309.853 288.551Z" fill="#5770BE"/>
<path fill-rule="evenodd" clip-rule="evenodd" d="M310.337 293.978L353.454 294.089C354.07 294.091 354.568 294.591 354.566 295.207C354.565 295.801 354.099 296.285 353.514 296.318L353.448 296.319L310.331 296.208C309.715 296.206 309.217 295.706 309.219 295.09C309.22 294.496 309.686 294.012 310.271 293.979L310.337 293.978Z" fill="#5770BE"/>
<path fill-rule="evenodd" clip-rule="evenodd" d="M450.985 157.527L373.977 157.303C368.896 157.261 364.75 161.369 364.75 166.447L364.564 230.265C364.522 235.34 368.629 239.486 373.708 239.486L450.721 239.709C455.786 239.709 459.9 235.621 459.943 230.575L460.129 166.748C460.171 161.673 456.063 157.527 450.985 157.527ZM373.834 159.534L450.981 159.757C454.782 159.757 457.863 162.825 457.898 166.61L457.712 230.562C457.68 234.379 454.561 237.479 450.724 237.479L373.711 237.256C369.91 237.256 366.83 234.188 366.794 230.403L366.98 166.451C366.98 162.65 370.048 159.569 373.834 159.534Z" fill="#5770BE"/>
<path fill-rule="evenodd" clip-rule="evenodd" d="M442.696 196.778L426.156 196.741C424.388 196.741 422.959 198.169 422.959 199.938L422.922 216.736C422.922 218.507 424.35 219.935 426.119 219.935L442.657 219.972C444.414 220.029 445.856 218.587 445.856 216.776L445.893 199.977C445.893 198.207 444.465 196.778 442.696 196.778ZM426.153 198.971L442.694 199.008C443.233 199.008 443.663 199.438 443.663 199.975L443.626 216.773C443.626 217.321 443.241 217.727 442.754 217.743L426.121 217.705C425.582 217.705 425.152 217.275 425.152 216.738L425.189 199.94C425.189 199.401 425.619 198.971 426.153 198.971Z" fill="#5770BE"/>
<path fill-rule="evenodd" clip-rule="evenodd" d="M439.573 174.811L385.791 174.662C383.422 174.662 381.514 176.539 381.514 178.899L381.477 187.369C381.477 189.74 383.354 191.649 385.714 191.649L439.496 191.797C441.813 191.797 443.723 189.903 443.773 187.584L443.811 179.09C443.811 176.719 441.933 174.811 439.573 174.811ZM385.705 176.894L385.787 176.892L439.57 177.041C440.693 177.041 441.581 177.943 441.581 179.085L441.543 187.555C441.519 188.648 440.593 189.567 439.499 189.567L385.717 189.418C384.594 189.418 383.707 188.516 383.707 187.374L383.744 178.904C383.744 177.807 384.602 176.935 385.705 176.894Z" fill="#5770BE"/>
<path fill-rule="evenodd" clip-rule="evenodd" d="M383.337 215.883L417.348 215.958C417.964 215.959 418.462 216.459 418.461 217.075C418.459 217.669 417.994 218.153 417.409 218.186L417.343 218.188L383.332 218.113C382.717 218.112 382.218 217.612 382.22 216.996C382.221 216.402 382.686 215.918 383.272 215.885L383.337 215.883Z" fill="#5770BE"/>
<path fill-rule="evenodd" clip-rule="evenodd" d="M383.338 207L417.386 207.111C418.002 207.113 418.5 207.614 418.498 208.23C418.496 208.824 418.03 209.308 417.445 209.34L417.379 209.341L383.331 209.23C382.715 209.228 382.218 208.727 382.22 208.111C382.222 207.517 382.687 207.033 383.273 207.001L383.338 207Z" fill="#5770BE"/>
<path fill-rule="evenodd" clip-rule="evenodd" d="M383.376 198.116L417.386 198.228C418.002 198.23 418.5 198.731 418.498 199.346C418.496 199.94 418.03 200.424 417.444 200.456L417.379 200.458L383.368 200.346C382.752 200.344 382.255 199.843 382.257 199.228C382.259 198.634 382.725 198.15 383.31 198.118L383.376 198.116Z" fill="#5770BE"/>
<path fill-rule="evenodd" clip-rule="evenodd" d="M369.545 168.789C373.959 168.789 377.537 165.211 377.537 160.797C377.537 156.384 373.959 152.806 369.545 152.806C365.132 152.806 361.554 156.384 361.554 160.797C361.554 165.211 365.132 168.789 369.545 168.789Z" fill="#FF8D7E"/>
<path fill-rule="evenodd" clip-rule="evenodd" d="M104.671 247.329H11.0764C7.37539 247.329 4.38574 250.319 4.38574 254.02V279.407C4.38574 283.108 7.37539 286.098 11.0764 286.098H104.671C108.372 286.098 111.361 283.108 111.361 279.407V254.02C111.361 250.319 108.372 247.329 104.671 247.329ZM11.0763 249.56H104.671C107.14 249.56 109.131 251.551 109.131 254.02V279.407C109.131 281.876 107.14 283.867 104.671 283.867H11.0763C8.60704 283.867 6.61589 281.876 6.61589 279.407V254.02C6.61589 251.551 8.60704 249.56 11.0763 249.56Z" fill="#5770BE"/>
<path fill-rule="evenodd" clip-rule="evenodd" d="M94.5609 261.417C95.1767 261.417 95.676 261.916 95.676 262.532C95.676 263.126 95.2118 263.611 94.6264 263.645L94.5609 263.647H19.5516C18.9358 263.647 18.4365 263.148 18.4365 262.532C18.4365 261.938 18.9007 261.453 19.4861 261.419L19.5516 261.417H94.5609Z" fill="#5770BE"/>
<path fill-rule="evenodd" clip-rule="evenodd" d="M85.7887 269.483C86.4046 269.483 86.9038 269.982 86.9038 270.598C86.9038 271.192 86.4396 271.677 85.8542 271.711L85.7887 271.713H19.5516C18.9358 271.713 18.4365 271.214 18.4365 270.598C18.4365 270.004 18.9007 269.518 19.4861 269.485L19.5516 269.483H85.7887Z" fill="#5770BE"/>
<path fill-rule="evenodd" clip-rule="evenodd" d="M7.99157 257.811C12.4052 257.811 15.9831 254.233 15.9831 249.82C15.9831 245.406 12.4052 241.828 7.99157 241.828C3.57795 241.828 0 245.406 0 249.82C0 254.233 3.57795 257.811 7.99157 257.811Z" fill="#FF8D7E"/>
<path fill-rule="evenodd" clip-rule="evenodd" d="M305.91 68.8761C302.453 27.6917 266.249 -2.86202 225.065 0.594788C183.88 4.0516 153.326 40.2552 156.783 81.4396C158.865 106.195 172.766 127.084 192.467 139.09L185.33 150.724C190.98 155.222 195.663 160.537 198.228 163.697L200.384 165.815C200.384 162.321 200.979 145.818 211.126 144.48C214.546 144.034 216.404 145.669 217.333 148.68C223.875 149.907 230.64 150.316 237.591 149.721C278.813 146.264 309.366 110.06 305.91 68.8761ZM236.216 132.957C204.324 135.633 176.26 111.956 173.547 80.0643C170.871 48.1724 194.548 20.1091 226.44 17.3957C258.332 14.6823 286.395 38.3967 289.109 70.2886C291.785 102.218 268.108 130.244 236.216 132.957Z" fill="#FF8D7E"/>
<path fill-rule="evenodd" clip-rule="evenodd" d="M163.127 142.135C153.492 144.559 144.571 149.246 137.693 156.041C129.546 164.089 124.562 174.746 123.482 187.952L123.479 188.006C122.957 203.555 129.108 218.079 139.657 231.155C143.189 235.534 146.972 239.431 150.756 242.802C152.082 243.984 153.314 245.015 154.422 245.892L154.566 246.005C154.802 246.192 155.022 246.362 155.224 246.515L155.366 246.623L154.553 351.545C154.548 352.166 155.051 352.671 155.672 352.669L229.454 352.409C230.111 352.407 230.618 351.842 230.561 351.197L230.521 350.908L228.211 335L227 326.597C225.467 315.94 223.949 305.275 222.508 295.021L221.719 289.393C217.028 255.835 214.177 233.749 214.024 228.821C213.907 225.049 214.022 220.901 214.354 215.715L214.455 214.199C214.577 212.45 214.721 210.575 214.906 208.305L215.736 198.419C216.176 193.105 216.496 188.796 216.76 184.421L216.811 183.574C216.9 182.047 217.022 180.443 217.179 178.701L217.285 177.552C217.449 175.834 217.635 174.066 217.921 171.465L218.246 168.476C219.259 159.022 219.449 155.635 219.058 151.779C218.451 145.797 215.917 142.766 210.981 143.411C205.603 144.097 202.282 148.477 200.554 155.182C199.967 157.46 199.6 159.885 199.408 162.336L199.39 162.576L199.358 163.045L199.34 163.328L199.28 163.254C198.968 162.87 198.64 162.472 198.296 162.062C195.938 159.25 193.326 156.439 190.529 153.812C183.67 147.369 176.845 143.073 170.362 141.941C167.854 141.503 165.435 141.554 163.127 142.135ZM169.979 144.138C175.939 145.179 182.432 149.265 189.002 155.438C191.729 157.999 194.282 160.747 196.587 163.495L196.983 163.97C197.501 164.595 197.978 165.187 198.413 165.741L198.73 166.148C198.916 166.387 199.08 166.603 199.224 166.793L199.481 167.14C200.114 168.011 201.477 167.566 201.498 166.514L201.495 166.317C201.48 165.358 201.512 164.046 201.632 162.509C201.814 160.179 202.162 157.879 202.714 155.739C204.239 149.819 207.01 146.166 211.267 145.623C214.676 145.177 216.308 147.078 216.822 151.842L216.863 152.244C217.216 155.962 216.979 159.499 215.888 169.544L215.44 173.658C215.259 175.347 215.125 176.683 214.998 178.058L214.919 178.94C214.791 180.391 214.688 181.751 214.608 183.054L214.508 184.709C214.276 188.499 214 192.27 213.638 196.724L212.789 206.841C212.542 209.825 212.361 212.139 212.214 214.285L212.129 215.575C211.792 220.825 211.676 225.039 211.795 228.89C211.942 233.642 214.463 253.382 218.682 283.756L219.931 292.705L220.528 296.954C221.901 306.71 223.34 316.816 224.792 326.914L227.36 344.678L228.161 350.183L156.791 350.435L157.601 246.074C157.603 245.711 157.43 245.37 157.135 245.159L156.797 244.909L156.457 244.651C156.297 244.528 156.126 244.395 155.944 244.252L155.806 244.143C154.731 243.293 153.532 242.289 152.24 241.137C148.542 237.843 144.843 234.032 141.393 229.755L141.087 229.373C131.135 216.906 125.33 203.154 125.695 188.528L125.707 188.108L125.705 188.134C126.741 175.46 131.492 165.301 139.26 157.627C145.837 151.13 154.403 146.63 163.671 144.297C165.663 143.796 167.768 143.752 169.979 144.138Z" fill="#5770BE"/>
<path fill-rule="evenodd" clip-rule="evenodd" d="M120.877 245.174C119.316 247.701 121.583 251.938 125.969 254.652L128.236 256.064C132.623 258.778 137.417 258.926 138.979 256.399L157.935 225.139L141.097 212.39L120.877 245.174Z" fill="#FF8D7E"/>
<path fill-rule="evenodd" clip-rule="evenodd" d="M149.094 193.205C149.323 192.633 149.972 192.355 150.544 192.583C168.351 199.706 189.161 217.64 187.723 224.657C186.368 231.268 179.432 233.743 169.743 231.693C166.513 230.996 161.532 228.335 155.172 224.153L154.913 223.983C153.635 223.139 152.317 222.244 150.964 221.303C147.959 219.213 144.912 216.988 141.953 214.751L141.148 214.141C140.4 213.572 139.693 213.029 139.035 212.52L137.952 211.676L136.945 210.882C136.464 210.498 136.385 209.797 136.769 209.315C137.138 208.852 137.801 208.762 138.28 209.097L138.382 209.176L139.326 209.92L140.401 210.757C141.054 211.262 141.755 211.801 142.499 212.366C145.684 214.789 148.988 217.212 152.238 219.472C153.409 220.287 154.553 221.066 155.666 221.807L156.142 222.121C162.393 226.248 167.304 228.885 170.209 229.512C178.84 231.338 184.49 229.322 185.538 224.209C186.013 221.895 181.837 216.332 174.873 210.33C167.408 203.898 158.087 198.003 149.716 194.654C149.144 194.425 148.866 193.776 149.094 193.205Z" fill="#5770BE"/>
<path fill-rule="evenodd" clip-rule="evenodd" d="M154.248 173.783C154.498 173.246 155.122 173.001 155.666 173.215L155.745 173.25L156.222 173.477L156.861 173.788C157.09 173.901 157.333 174.021 157.591 174.151L158.188 174.452C159.499 175.118 160.932 175.874 162.459 176.715C167.494 179.486 172.528 182.602 177.232 185.997C182.808 190.022 187.543 194.174 191.176 198.409L191.409 198.682L191.564 198.854C197.012 204.953 199.145 212.156 197.679 217.684L197.633 217.853C196.045 223.522 191.006 225.685 185.508 222.458C184.977 222.146 184.8 221.463 185.111 220.932C185.423 220.401 186.106 220.223 186.637 220.535C190.852 223.008 194.286 221.535 195.486 217.251C196.821 212.485 194.926 205.97 189.908 200.348L189.719 200.137C186.185 195.957 181.493 191.824 175.927 187.806C171.303 184.468 166.344 181.398 161.384 178.669L160.696 178.292C159.335 177.552 158.056 176.883 156.883 176.291L156.224 175.961C155.986 175.843 155.762 175.733 155.554 175.631L154.789 175.265C154.231 175.005 153.988 174.342 154.248 173.783Z" fill="#5770BE"/>
<path fill-rule="evenodd" clip-rule="evenodd" d="M157.022 157.374C157.202 156.808 157.792 156.487 158.36 156.632L158.464 156.663L158.867 156.798L159.284 156.942C159.627 157.062 160.005 157.199 160.418 157.352L161.055 157.591C162.455 158.123 163.983 158.746 165.612 159.462C170.979 161.823 176.347 164.703 181.364 168.124C189.231 173.489 195.489 179.681 199.53 186.746C203.115 193.014 204.633 198.134 204.38 202.238C204.174 205.591 202.805 208.102 200.662 209.835C199.845 210.496 198.973 210.996 198.098 211.359C197.565 211.581 197.137 211.71 196.868 211.769C196.266 211.901 195.672 211.52 195.54 210.918C195.413 210.338 195.763 209.764 196.328 209.606L196.476 209.569C196.507 209.56 196.546 209.549 196.592 209.535C196.786 209.476 197.005 209.398 197.243 209.3C197.93 209.014 198.619 208.619 199.259 208.101C200.93 206.75 201.988 204.81 202.154 202.101C202.377 198.485 200.98 193.774 197.594 187.854C193.741 181.116 187.717 175.156 180.107 169.967C175.214 166.63 169.964 163.812 164.714 161.503C162.999 160.749 161.399 160.101 159.951 159.558L159.643 159.443C159.177 159.27 158.757 159.119 158.387 158.991L157.997 158.858L157.746 158.775C157.159 158.588 156.835 157.961 157.022 157.374Z" fill="#5770BE"/>
<path fill-rule="evenodd" clip-rule="evenodd" d="M199.73 164.803C200.269 164.505 200.948 164.699 201.246 165.237C205.454 172.815 207.485 179.022 207.681 184.012C207.837 187.989 206.826 191.002 205.022 193.14C204.423 193.85 203.776 194.411 203.125 194.84C202.718 195.108 202.387 195.276 202.167 195.362C201.594 195.588 200.947 195.307 200.721 194.734C200.503 194.182 200.757 193.56 201.289 193.313L201.4 193.266C201.499 193.22 201.672 193.126 201.899 192.977C202.378 192.662 202.862 192.241 203.317 191.701C204.758 189.993 205.587 187.526 205.452 184.1C205.271 179.497 203.347 173.615 199.297 166.32C198.998 165.781 199.192 165.102 199.73 164.803Z" fill="#5770BE"/>
</svg>
