<svg width="167" height="107" viewBox="0 0 167 107" fill="none" xmlns="http://www.w3.org/2000/svg">
<path fill-rule="evenodd" clip-rule="evenodd" d="M116.65 75.9513H3.86242C2.23688 75.9513 0.916992 74.7032 0.916992 73.1466V15.9443H119.609V73.1466C119.595 74.7032 118.275 75.9513 116.65 75.9513Z" fill="white"/>
<path fill-rule="evenodd" clip-rule="evenodd" d="M119.61 15.5234H0.917294C0.687098 15.5234 0.500488 15.7118 0.500488 15.9441V73.1464C0.500488 74.9382 2.00925 76.3718 3.86272 76.3718H116.65C118.501 76.3718 120.01 74.9419 120.026 73.1502L120.026 15.9441C120.026 15.7118 119.84 15.5234 119.61 15.5234ZM1.3341 16.3647H119.193V73.1464C119.181 74.4621 118.053 75.5304 116.65 75.5304H3.86272L3.8155 75.53C2.43363 75.5063 1.3341 74.447 1.3341 73.1464V16.3647Z" fill="#2E186A"/>
<path fill-rule="evenodd" clip-rule="evenodd" d="M0.555927 16.9121L0.416992 3.2391C0.416992 1.52822 1.75077 0.153908 3.3902 0.153908L117.067 0.0136719C118.706 0.0136719 120.04 1.40201 120.04 3.09886V16.9121H0.555927Z" fill="#2E186A"/>
<path fill-rule="evenodd" clip-rule="evenodd" d="M51.4339 2.25781C52.6181 2.25781 53.7287 2.82257 54.4481 3.7855L54.4581 3.79946L54.4675 3.81381L58.0821 9.57813H120.04C120.262 9.57813 120.443 9.75327 120.456 9.97412L120.457 9.99884C120.457 10.2229 120.283 10.406 120.065 10.4188L120.04 10.4195H57.8527C57.7193 10.4195 57.5947 10.3552 57.5165 10.2476L57.5005 10.2238L53.7737 4.28058L53.747 4.24545C53.1958 3.53623 52.3719 3.11731 51.4914 3.0998L51.4339 3.09923H27.1341C26.2321 3.09923 25.3842 3.52082 24.821 4.24545L24.7942 4.28058L21.0675 10.2238C20.9965 10.337 20.8768 10.4088 20.7456 10.4184L20.7173 10.4195L0.474472 10.5177C0.244279 10.5188 0.0567749 10.3314 0.055669 10.099C0.0546025 9.87497 0.227248 9.69099 0.44598 9.67713L0.470467 9.6763L20.4851 9.57925L24.1005 3.81381C24.1035 3.80896 24.1067 3.80417 24.1099 3.79946L24.1199 3.7855C24.8264 2.83976 25.9104 2.27811 27.0707 2.25835L27.1341 2.25781H51.4339Z" fill="white"/>
<path fill-rule="evenodd" clip-rule="evenodd" d="M61.8262 2.2998C62.8157 2.2998 63.636 3.06386 63.6596 4.02428L63.6601 4.06678V9.42379C63.6601 9.65614 63.4735 9.8445 63.2433 9.8445C63.0213 9.8445 62.8399 9.66935 62.8272 9.44851L62.8265 9.42379V4.06678C62.8265 3.57389 62.3995 3.15885 61.8607 3.14177L61.8262 3.14122H51.3782C51.148 3.14122 50.9614 2.95286 50.9614 2.72051C50.9614 2.49646 51.1349 2.31331 51.3537 2.30052L51.3782 2.2998H61.8262Z" fill="white"/>
<path fill-rule="evenodd" clip-rule="evenodd" d="M5.37696 6.91371C6.37447 6.91371 7.18311 6.0975 7.18311 5.09065C7.18311 4.08379 6.37447 3.26758 5.37696 3.26758C4.37944 3.26758 3.5708 4.08379 3.5708 5.09065C3.5708 6.0975 4.37944 6.91371 5.37696 6.91371Z" fill="white"/>
<path fill-rule="evenodd" clip-rule="evenodd" d="M11.3232 6.91371C12.3208 6.91371 13.1294 6.0975 13.1294 5.09065C13.1294 4.08379 12.3208 3.26758 11.3232 3.26758C10.3257 3.26758 9.51709 4.08379 9.51709 5.09065C9.51709 6.0975 10.3257 6.91371 11.3232 6.91371Z" fill="white"/>
<path fill-rule="evenodd" clip-rule="evenodd" d="M17.2837 6.91371C18.2812 6.91371 19.0899 6.0975 19.0899 5.09065C19.0899 4.08379 18.2812 3.26758 17.2837 3.26758C16.2862 3.26758 15.4775 4.08379 15.4775 5.09065C15.4775 6.0975 16.2862 6.91371 17.2837 6.91371Z" fill="white"/>
<path fill-rule="evenodd" clip-rule="evenodd" d="M49.1606 5.71125C49.3062 5.54302 49.5553 5.52002 49.7283 5.65443L49.7487 5.67132L51.402 7.12977C51.5754 7.28267 51.5931 7.54845 51.4416 7.7234C51.2959 7.89162 51.0469 7.91462 50.8739 7.78022L50.8535 7.76333L49.2001 6.30488C49.0268 6.15198 49.0091 5.8862 49.1606 5.71125Z" fill="white"/>
<path fill-rule="evenodd" clip-rule="evenodd" d="M50.8748 5.6788C51.0515 5.5299 51.3143 5.5538 51.4619 5.73218C51.6037 5.90369 51.5873 6.15558 51.4287 6.30707L51.409 6.32475L49.7279 7.74113C49.5511 7.89003 49.2883 7.86612 49.1408 7.68775C48.9989 7.51623 49.0154 7.26435 49.174 7.11286L49.1937 7.09518L50.8748 5.6788Z" fill="white"/>
<path fill-rule="evenodd" clip-rule="evenodd" d="M59.1753 5.30079C59.3973 5.30237 59.5775 5.4788 59.5886 5.69973L59.5892 5.72445L59.5753 7.7158C59.5737 7.94815 59.3857 8.13517 59.1556 8.13354C58.9336 8.13196 58.7534 7.95553 58.7422 7.7346L58.7417 7.70988L58.7556 5.71853C58.7572 5.48618 58.9451 5.29916 59.1753 5.30079Z" fill="white"/>
<path fill-rule="evenodd" clip-rule="evenodd" d="M60.159 6.29688C60.3891 6.29688 60.5758 6.48523 60.5758 6.71758C60.5758 6.94164 60.4022 7.12478 60.1834 7.13758L60.159 7.13829H58.1722C57.942 7.13829 57.7554 6.94993 57.7554 6.71758C57.7554 6.49353 57.9289 6.31039 58.1477 6.29759L58.1722 6.29688H60.159Z" fill="white"/>
<path fill-rule="evenodd" clip-rule="evenodd" d="M115.233 11.8359C115.463 11.8359 115.65 12.0243 115.65 12.2566C115.65 12.4807 115.476 12.6638 115.257 12.6766L115.233 12.6774H112.968C112.738 12.6774 112.551 12.489 112.551 12.2566C112.551 12.0326 112.725 11.8494 112.944 11.8367L112.968 11.8359H115.233Z" fill="white"/>
<path fill-rule="evenodd" clip-rule="evenodd" d="M115.233 13.0977C115.463 13.0977 115.65 13.286 115.65 13.5184C115.65 13.7424 115.476 13.9256 115.257 13.9384L115.233 13.9391H112.968C112.738 13.9391 112.551 13.7507 112.551 13.5184C112.551 13.2943 112.725 13.1112 112.944 13.0984L112.968 13.0977H115.233Z" fill="white"/>
<path fill-rule="evenodd" clip-rule="evenodd" d="M115.233 14.374C115.463 14.374 115.65 14.5624 115.65 14.7947C115.65 15.0188 115.476 15.2019 115.257 15.2147L115.233 15.2154H112.968C112.738 15.2154 112.551 15.0271 112.551 14.7947C112.551 14.5707 112.725 14.3875 112.944 14.3747L112.968 14.374H115.233Z" fill="white"/>
<path fill-rule="evenodd" clip-rule="evenodd" d="M108.995 12.7892C108.939 12.6069 108.786 12.4807 108.592 12.4807H107.675L107.397 11.5972C107.341 11.4289 107.175 11.3027 106.994 11.3027C106.813 11.3027 106.647 11.4149 106.591 11.5972L106.313 12.4807H105.396C105.216 12.4807 105.049 12.5929 104.993 12.7752C104.938 12.9435 104.993 13.1398 105.146 13.252L105.882 13.7989L105.605 14.6824C105.549 14.8507 105.605 15.047 105.757 15.1592C105.827 15.2153 105.91 15.2434 106.007 15.2434C106.105 15.2434 106.174 15.2153 106.258 15.1592L107.022 14.5983L107.772 15.033C107.925 15.1172 108.105 15.1031 108.244 14.9909C108.383 14.8787 108.425 14.6964 108.383 14.5282L108.105 13.6867L108.8 13.2801C108.967 13.1679 109.036 12.9715 108.995 12.7892Z" fill="white"/>
<path fill-rule="evenodd" clip-rule="evenodd" d="M101.089 15.1169H21.3265C20.9375 15.1169 20.6318 14.8084 20.6318 14.4157V13.1816C20.6318 12.789 20.9375 12.4805 21.3265 12.4805H101.089C101.478 12.4805 101.784 12.789 101.784 13.1816V14.4157C101.784 14.8084 101.478 15.1169 101.089 15.1169Z" fill="white"/>
<path fill-rule="evenodd" clip-rule="evenodd" d="M7.33181 12.058C7.50143 11.9009 7.76509 11.9123 7.92072 12.0835C8.07036 12.2482 8.06563 12.5006 7.91425 12.6594L7.89539 12.678L6.88377 13.6147L7.93581 14.5811C8.09951 14.7314 8.11729 14.9832 7.98068 15.1551L7.96355 15.1754C7.81458 15.3406 7.56512 15.3586 7.3948 15.2207L7.37475 15.2034L5.9854 13.9272C5.81091 13.767 5.80391 13.4944 5.96482 13.3251L5.98414 13.3061L7.33181 12.058Z" fill="white"/>
<path fill-rule="evenodd" clip-rule="evenodd" d="M9.65594 13.2236C9.88614 13.2236 10.0727 13.412 10.0727 13.6443C10.0727 13.8684 9.89923 14.0515 9.68043 14.0643L9.65594 14.065H6.26593C6.03573 14.065 5.84912 13.8767 5.84912 13.6443C5.84912 13.4203 6.02264 13.2371 6.24144 13.2243L6.26593 13.2236H9.65594Z" fill="white"/>
<path fill-rule="evenodd" clip-rule="evenodd" d="M13.9768 12.082C14.1273 11.9181 14.3769 11.9025 14.5459 12.042L14.5658 12.0595L15.8996 13.3076C16.072 13.4689 16.0772 13.7403 15.9161 13.9083L15.8967 13.9272L14.5074 15.2034C14.3371 15.3598 14.0735 15.3472 13.9186 15.1754C13.7696 15.0101 13.7754 14.7578 13.9274 14.5996L13.9463 14.5811L14.9999 13.6131L13.9991 12.6765C13.8368 12.5246 13.8213 12.2727 13.9595 12.102L13.9768 12.082Z" fill="white"/>
<path fill-rule="evenodd" clip-rule="evenodd" d="M15.6162 13.2236C15.8464 13.2236 16.033 13.412 16.033 13.6443C16.033 13.8684 15.8595 14.0515 15.6407 14.0643L15.6162 14.065H12.24C12.0099 14.065 11.8232 13.8767 11.8232 13.6443C11.8232 13.4203 11.9968 13.2371 12.2156 13.2243L12.24 13.2236H15.6162Z" fill="white"/>
<path fill-rule="evenodd" clip-rule="evenodd" d="M111.67 5.4155C111.715 5.18754 111.934 5.03922 112.16 5.08421C112.377 5.1276 112.522 5.33489 112.492 5.55403L112.488 5.57842L112.367 6.19562L113.029 6.27089C113.249 6.29594 113.41 6.49046 113.398 6.71135L113.396 6.736C113.371 6.95865 113.179 7.12106 112.96 7.10909L112.935 7.10704L111.824 6.98082C111.59 6.95426 111.426 6.73837 111.457 6.50622L111.462 6.48129L111.67 5.4155Z" fill="white"/>
<path fill-rule="evenodd" clip-rule="evenodd" d="M113.251 5.04424C113.437 4.90767 113.698 4.94935 113.833 5.13733C113.963 5.31808 113.93 5.56828 113.762 5.70866L113.741 5.72497L112.115 6.91698C111.929 7.05354 111.669 7.01187 111.533 6.82389C111.403 6.64314 111.436 6.39294 111.605 6.25255L111.625 6.23624L113.251 5.04424Z" fill="white"/>
<path fill-rule="evenodd" clip-rule="evenodd" d="M114.722 3.24593C114.747 3.02339 114.941 2.86182 115.16 2.87475L115.184 2.87691L116.254 3.00312C116.488 3.03072 116.651 3.24748 116.618 3.47958L116.614 3.50449L116.392 4.61236C116.346 4.84009 116.126 4.98731 115.9 4.94118C115.683 4.89671 115.539 4.6887 115.57 4.46971L115.575 4.44534L115.707 3.7856L115.087 3.71263C114.867 3.68662 114.707 3.4914 114.719 3.27057L114.722 3.24593Z" fill="white"/>
<path fill-rule="evenodd" clip-rule="evenodd" d="M115.972 3.0964C116.158 2.95879 116.419 2.999 116.555 3.18622C116.686 3.36623 116.654 3.61661 116.487 3.75794L116.466 3.77437L114.84 4.9804C114.655 5.11801 114.394 5.0778 114.258 4.89058C114.127 4.71057 114.158 4.46018 114.326 4.31885L114.347 4.30243L115.972 3.0964Z" fill="white"/>
<path fill-rule="evenodd" clip-rule="evenodd" d="M38.6378 55.4211H17.0473C16.1998 55.4211 15.519 54.734 15.519 53.8786V41.8463C15.519 40.9909 16.1998 40.3037 17.0473 40.3037H38.6378C39.4853 40.3037 40.1661 40.9909 40.1661 41.8463V53.8786C40.1661 54.734 39.4853 55.4211 38.6378 55.4211Z" fill="#FFC29E"/>
<path fill-rule="evenodd" clip-rule="evenodd" d="M98.3941 36.0545H16.5752C16.1445 36.0545 15.811 35.7039 15.811 35.2832V29.4354C15.811 29.0006 16.1584 28.6641 16.5752 28.6641H98.3941C98.8248 28.6641 99.1582 29.0147 99.1582 29.4354V35.2832C99.1582 35.7039 98.8109 36.0545 98.3941 36.0545Z" fill="white"/>
<path fill-rule="evenodd" clip-rule="evenodd" d="M98.3939 28.2432H16.575C15.9243 28.2432 15.394 28.7717 15.394 29.4352V35.283C15.394 35.9398 15.9177 36.475 16.575 36.475H98.3939C99.0409 36.475 99.5748 35.9361 99.5748 35.283V29.4352C99.5748 28.7784 99.0512 28.2432 98.3939 28.2432ZM16.575 29.0846H98.3939C98.5884 29.0846 98.7412 29.2408 98.7412 29.4352V35.283C98.7412 35.4714 98.5805 35.6336 98.3939 35.6336H16.575C16.3804 35.6336 16.2277 35.4774 16.2277 35.283V29.4352C16.2277 29.2388 16.3824 29.0846 16.575 29.0846Z" fill="#6A6AF4"/>
<rect x="77.8872" y="28.5381" width="21.1876" height="7.50262" fill="#6A6AF4"/>
<path fill-rule="evenodd" clip-rule="evenodd" d="M91.1138 35.7037C91.0444 35.7037 90.9888 35.6757 90.9471 35.6477L89.0298 33.9648C88.7936 34.091 88.5574 34.1892 88.2935 34.2313C88.1267 34.2593 87.9461 34.2874 87.7794 34.2874C86.5568 34.2874 85.5009 33.4179 85.2647 32.2119C85.1257 31.5387 85.2647 30.8376 85.6398 30.2626C86.0149 29.6876 86.5985 29.295 87.2792 29.1547C87.446 29.1267 87.6266 29.0986 87.7933 29.0986C89.0159 29.0986 90.0718 29.9681 90.308 31.1741C90.4609 31.9454 90.2663 32.7448 89.7662 33.3478L91.5723 34.9324C91.6418 35.0026 91.6696 35.1007 91.6418 35.2129C91.6279 35.2971 91.5723 35.3952 91.5029 35.4653L91.4473 35.5355C91.3639 35.6336 91.225 35.7037 91.1138 35.7037ZM87.7794 30.0943C87.6683 30.0943 87.571 30.1083 87.4599 30.1224C87.043 30.2065 86.6957 30.4449 86.4595 30.8095C86.2233 31.1601 86.14 31.5948 86.2233 32.0015C86.3762 32.7448 87.0153 33.2777 87.7655 33.2777C87.8767 33.2777 87.9739 33.2636 88.0851 33.2496C88.5019 33.1655 88.8492 32.9271 89.0854 32.5625C89.3216 32.2119 89.4049 31.7771 89.3216 31.3705C89.1826 30.6272 88.5297 30.0943 87.7794 30.0943Z" fill="white"/>
<path fill-rule="evenodd" clip-rule="evenodd" d="M42.0003 33.9505H19.076C18.7843 33.9505 18.5342 33.7121 18.5342 33.4035V31.2159C18.5342 30.9214 18.7704 30.6689 19.076 30.6689H42.0003C42.2921 30.6689 42.5422 30.9073 42.5422 31.2159V33.4035C42.5422 33.698 42.2921 33.9505 42.0003 33.9505Z" fill="#FF8D7E"/>
<path fill-rule="evenodd" clip-rule="evenodd" d="M39.3188 59.6983H15.9916C15.6998 59.6983 15.4497 59.4599 15.4497 59.1514V58.4502C15.4497 58.1557 15.6859 57.9033 15.9916 57.9033H39.3188C39.6105 57.9033 39.8606 58.1417 39.8606 58.4502V59.1514C39.8467 59.4599 39.6105 59.6983 39.3188 59.6983Z" fill="#FFC29E"/>
<path fill-rule="evenodd" clip-rule="evenodd" d="M68.4254 55.4211H46.8349C45.9874 55.4211 45.3066 54.734 45.3066 53.8786V41.8463C45.3066 40.9909 45.9874 40.3037 46.8349 40.3037H68.4254C69.2729 40.3037 69.9537 40.9909 69.9537 41.8463V53.8786C69.9537 54.734 69.2729 55.4211 68.4254 55.4211Z" fill="#FF8D7E"/>
<path fill-rule="evenodd" clip-rule="evenodd" d="M69.0925 59.6983H45.7792C45.4874 59.6983 45.2373 59.4599 45.2373 59.1514V58.4502C45.2373 58.1557 45.4735 57.9033 45.7792 57.9033H69.0925C69.3842 57.9033 69.6343 58.1417 69.6343 58.4502V59.1514C69.6343 59.4599 69.3981 59.6983 69.0925 59.6983Z" fill="#FF8D7E"/>
<path fill-rule="evenodd" clip-rule="evenodd" d="M98.2133 55.4211H76.6089C75.7613 55.4211 75.0806 54.734 75.0806 53.8786V41.8463C75.0806 40.9909 75.7613 40.3037 76.6089 40.3037H98.1994C99.0469 40.3037 99.7277 40.9909 99.7277 41.8463V53.8786C99.7415 54.734 99.0469 55.4211 98.2133 55.4211Z" fill="#FFC29E"/>
<path fill-rule="evenodd" clip-rule="evenodd" d="M98.8801 59.6983H75.5667C75.275 59.6983 75.0249 59.4599 75.0249 59.1514V58.4502C75.0249 58.1557 75.2611 57.9033 75.5667 57.9033H98.8801C99.1718 57.9033 99.4219 58.1417 99.4219 58.4502V59.1514C99.4219 59.4599 99.1718 59.6983 98.8801 59.6983Z" fill="#FFC29E"/>
<path fill-rule="evenodd" clip-rule="evenodd" d="M40.1661 66.8502V75.5448H15.519V66.8502C15.519 65.9948 16.1998 65.3076 17.0473 65.3076H38.6378C39.4853 65.3076 40.1661 65.9948 40.1661 66.8502Z" fill="#FFC29E"/>
<path fill-rule="evenodd" clip-rule="evenodd" d="M69.9537 66.8502V75.5448H45.3066V66.8502C45.3066 65.9948 45.9874 65.3076 46.8349 65.3076H68.4254C69.2729 65.3076 69.9537 65.9948 69.9537 66.8502Z" fill="#FFC29E"/>
<path fill-rule="evenodd" clip-rule="evenodd" d="M99.7415 66.8502V75.5448H75.0806V66.8502C75.0806 65.9948 75.7613 65.3076 76.6089 65.3076H98.1994C99.0469 65.3076 99.7415 65.9948 99.7415 66.8502Z" fill="#FFC29E"/>
<path fill-rule="evenodd" clip-rule="evenodd" d="M129.904 53.8917C129.626 53.0924 128.195 52.84 122.082 54.5789C113.565 57.005 107.814 58.0287 108.425 59.3609C111.301 60.8334 129.487 56.2898 129.904 53.8917Z" fill="#2E186A"/>
<path fill-rule="evenodd" clip-rule="evenodd" d="M125.013 46.8379L111.314 52.3772C111.314 52.3772 111.926 55.8971 112.551 59.5152C116.802 59.0524 123.068 57.4818 126.792 55.9532C125.944 51.648 125.013 46.8379 125.013 46.8379Z" fill="white"/>
<path fill-rule="evenodd" clip-rule="evenodd" d="M124.859 46.4474L111.16 51.9867C110.985 52.0575 110.88 52.2374 110.901 52.4244L110.932 52.6082L112.141 59.5875C112.178 59.8059 112.378 59.9573 112.596 59.9335C116.877 59.4675 123.182 57.8895 126.949 56.343C127.134 56.267 127.24 56.0691 127.201 55.8713L126.701 53.3219C126.462 52.1001 126.215 50.8346 125.968 49.5654L125.423 46.7573C125.373 46.4983 125.101 46.3493 124.859 46.4474ZM111.784 52.6408L124.701 47.4174L125.217 50.0736C125.464 51.3421 125.71 52.6033 125.948 53.8172L126.316 55.6921L126.27 55.7104C122.709 57.1135 117.108 58.5214 113.067 59.031L112.894 59.0522L111.784 52.6408Z" fill="#2E186A"/>
<path fill-rule="evenodd" clip-rule="evenodd" d="M165.374 98.571C164.735 89.2734 154.523 75.8247 150.758 70.6781C146.285 64.5638 139.268 60.4689 130.863 59.7397C130.39 56.4582 129.904 53.7656 129.904 53.7656C130.099 56.1216 111.342 60.8475 108.411 59.361L108.73 61.6469C107.188 62.0395 105.493 62.5584 103.52 63.2596C93.8783 66.6954 75.1777 90.872 75.1777 90.872C75.1777 90.872 71.3153 79.9897 56.0185 85.7675C45.654 90.3952 53.1426 106.55 53.1426 106.55L158.205 106.326C162.373 106.326 165.666 102.764 165.374 98.571Z" fill="#6A6AF4"/>
<path fill-rule="evenodd" clip-rule="evenodd" d="M139.694 88.5497C141.775 88.3038 143.987 88.2961 146.07 88.6857C148.551 89.1495 150.563 90.1379 151.925 91.7652C152.073 91.9428 152.051 92.2082 151.875 92.3581C151.699 92.508 151.436 92.4856 151.288 92.308C150.067 90.8488 148.226 89.9444 145.919 89.513C143.929 89.141 141.796 89.1485 139.791 89.3854L139.594 89.4095C139.402 89.434 139.224 89.4592 139.061 89.4846L138.887 89.5127L138.721 89.5418C138.71 89.544 138.701 89.5456 138.695 89.5467C138.68 89.5497 138.665 89.5518 138.65 89.5531C136.763 89.7086 132.152 90.7582 125.685 92.4394L125.006 92.6166C124.778 92.6762 124.548 92.7365 124.317 92.7974L123.969 92.8892C121.377 93.573 118.691 94.3023 116.047 95.0348L114.416 95.4887C113.92 95.6271 113.449 95.7593 113.005 95.8844L111.692 96.2559C111.471 96.3191 111.241 96.1891 111.178 95.9656C111.118 95.75 111.235 95.5261 111.442 95.4536L111.534 95.4268L112.781 95.0739C113.522 94.8652 114.339 94.6366 115.217 94.3926C117.856 93.659 120.548 92.9254 123.157 92.2339L123.758 92.0751C124.108 91.9828 124.454 91.8917 124.797 91.8021L125.867 91.5236C132.057 89.92 136.482 88.9141 138.461 88.7252L138.56 88.7163L138.62 88.7053C138.686 88.6935 138.762 88.6804 138.85 88.6664C139.097 88.6265 139.38 88.5868 139.694 88.5497Z" fill="white"/>
<path fill-rule="evenodd" clip-rule="evenodd" d="M133.014 79.9357C133.206 79.8226 133.449 79.8808 133.571 80.0643L133.585 80.0861L138.614 88.7526C138.73 88.9531 138.664 89.2109 138.465 89.3283C138.274 89.4414 138.03 89.3831 137.908 89.1997L137.895 89.1779L132.865 80.5113C132.749 80.3109 132.816 80.0531 133.014 79.9357Z" fill="white"/>
<path fill-rule="evenodd" clip-rule="evenodd" d="M75.1069 90.472C75.3337 90.4324 75.5494 90.5859 75.5886 90.8149L75.5987 90.8782C75.6106 90.9586 75.6249 91.0724 75.6393 91.2169L75.6436 91.2611C75.7221 92.0858 75.7225 93.0587 75.5933 94.1219C75.4123 95.6114 74.9973 97.0721 74.2955 98.4438C72.833 101.302 70.2711 103.506 66.4168 104.791C66.1982 104.864 65.9625 104.744 65.8903 104.523C65.8181 104.303 65.9368 104.065 66.1553 103.992C69.8028 102.776 72.1925 100.721 73.5548 98.0578C74.2085 96.7802 74.5963 95.4149 74.7659 94.0195C74.8872 93.0212 74.8869 92.1087 74.8138 91.3416L74.803 91.2353C74.7976 91.1844 74.792 91.1371 74.7864 91.0934L74.7735 90.9987C74.7707 90.9797 74.7685 90.9661 74.7672 90.9583C74.728 90.7294 74.88 90.5117 75.1069 90.472Z" fill="white"/>
<path fill-rule="evenodd" clip-rule="evenodd" d="M75.774 90.4865C75.8546 90.2688 76.0947 90.1583 76.3104 90.2396L76.4177 90.2816L76.5061 90.3173C76.5525 90.3363 76.6021 90.3568 76.6547 90.3789L76.7083 90.4015C77.0188 90.5333 77.3641 90.6899 77.7357 90.871C78.7972 91.3884 79.8588 91.9994 80.8518 92.7024C84.162 95.0459 85.9601 97.8356 85.3689 101.046C85.3268 101.274 85.1092 101.425 84.8829 101.383C84.6566 101.34 84.5072 101.121 84.5493 100.892C85.0668 98.0821 83.4452 95.5662 80.3731 93.3913C79.4201 92.7166 78.3967 92.1276 77.3732 91.6287C77.0509 91.4716 76.7495 91.3339 76.4755 91.2158L76.2856 91.1353C76.2537 91.122 76.2232 91.1094 76.1941 91.0976L76.0186 91.0278C75.803 90.9465 75.6935 90.7041 75.774 90.4865Z" fill="white"/>
<path fill-rule="evenodd" clip-rule="evenodd" d="M99.8302 80.9162C99.899 80.6944 100.133 80.571 100.353 80.6404C100.572 80.7099 100.694 80.9459 100.626 81.1677L100.581 81.3182C100.507 81.5714 100.402 81.961 100.293 82.4036C100.097 83.1965 99.9052 84.0735 99.7319 85.008C99.2574 87.5671 98.9884 90.1566 99.0157 92.626C99.05 95.7337 99.5544 98.4482 100.61 100.627C101.836 103.157 103.774 104.9 106.531 105.741C106.751 105.809 106.876 106.043 106.809 106.266C106.743 106.488 106.51 106.614 106.29 106.547C103.304 105.636 101.186 103.731 99.8613 100.997C98.7442 98.6912 98.2177 95.858 98.1821 92.6353C98.1542 90.1053 98.4286 87.4626 98.9125 84.8532L98.964 84.5803C99.2638 83.0137 99.6086 81.6299 99.8302 80.9162Z" fill="white"/>
<path fill-rule="evenodd" clip-rule="evenodd" d="M131.112 61.1576C131.311 61.0409 131.566 61.1091 131.682 61.3099C131.717 61.3715 131.761 61.4684 131.802 61.5982C131.983 62.1754 131.948 62.8708 131.561 63.6238C131.043 64.6328 129.952 65.6089 128.177 66.5238C127.972 66.6295 127.721 66.5474 127.616 66.3404C127.511 66.1335 127.593 65.8801 127.798 65.7744C129.43 64.9333 130.392 64.0726 130.821 63.2366C131.101 62.6916 131.125 62.2261 131.007 61.8526C130.998 61.8216 130.988 61.7942 130.978 61.7705L130.961 61.7328C130.846 61.5319 130.913 61.2744 131.112 61.1576Z" fill="white"/>
<path fill-rule="evenodd" clip-rule="evenodd" d="M129.787 60.7138C129.829 60.4855 130.047 60.3353 130.274 60.3785C130.5 60.4216 130.648 60.6417 130.606 60.87C130.593 60.9402 130.562 61.0516 130.508 61.1982C130.422 61.4298 130.299 61.6843 130.132 61.9554C129.666 62.7122 128.948 63.4616 127.93 64.1537C126.078 65.4118 123.427 66.3493 119.847 66.8461C119.619 66.8778 119.408 66.7168 119.377 66.4867C119.346 66.2565 119.505 66.0442 119.733 66.0126C123.195 65.5322 125.725 64.6372 127.464 63.4557C128.385 62.8297 129.021 62.1668 129.424 61.5114C129.561 61.2882 129.66 61.0837 129.727 60.9034L129.746 60.8521C129.77 60.7805 129.783 60.7334 129.787 60.7138Z" fill="white"/>
<path fill-rule="evenodd" clip-rule="evenodd" d="M107.689 100.31C107.689 100.31 104.771 101.151 102.868 102.357C100.964 103.563 98.3799 105.288 98.5049 105.709C98.6161 106.144 100.686 106.634 101.937 106.003C104.757 103.325 108.522 102.736 108.522 102.736C108.119 102.652 104.965 103.998 103.576 104.839C100.964 106.438 100.964 106.48 104.938 106.494L117.331 106.326C117.636 99.4683 111.593 95.8503 111.593 95.8503C111.593 95.8503 105.841 95.682 101.909 98.052C99.5747 99.4683 96.1847 101.936 96.0041 102.806C95.8513 103.549 96.546 103.619 97.4074 103.451C97.4074 103.451 95.49 105.302 98.63 105.176" fill="white"/>
<path fill-rule="evenodd" clip-rule="evenodd" d="M111.47 96.269L111.336 96.2684C111.169 96.2684 110.969 96.2713 110.74 96.2785C110.274 96.2931 109.771 96.323 109.242 96.3719C107.81 96.5043 106.393 96.7543 105.073 97.1489C103.971 97.4783 102.979 97.8973 102.124 98.4127L101.963 98.5108C99.3354 100.124 96.5326 102.312 96.4122 102.892L96.3998 102.955C96.3844 103.043 96.3968 103.051 96.4587 103.072C96.6183 103.126 96.9234 103.117 97.3281 103.038C97.7288 102.96 97.9863 103.447 97.7115 103.739L97.663 103.788C97.652 103.8 97.639 103.814 97.6244 103.83C97.5662 103.894 97.5078 103.965 97.4541 104.039C97.3521 104.18 97.2815 104.314 97.2552 104.42C97.2313 104.515 97.2401 104.542 97.3133 104.59C97.5045 104.713 97.9322 104.783 98.6134 104.756C98.638 104.755 98.6622 104.756 98.6859 104.759L98.6889 104.76L98.7097 104.741C98.9299 104.55 99.2102 104.334 99.5544 104.08L99.6811 103.987C100.456 103.421 101.473 102.744 102.646 102.001C103.123 101.699 103.681 101.405 104.304 101.122C105.02 100.795 105.785 100.498 106.55 100.235L106.747 100.168C106.908 100.114 107.061 100.064 107.204 100.019L107.335 99.9775L107.574 99.9054C107.795 99.8416 108.026 99.9709 108.089 100.194C108.15 100.41 108.033 100.634 107.826 100.707L107.58 100.782L107.536 100.796C107.32 100.863 107.079 100.942 106.819 101.031C106.077 101.286 105.336 101.574 104.647 101.889C104.056 102.158 103.531 102.434 103.089 102.714L102.757 102.925C101.775 103.553 100.917 104.127 100.244 104.615L100.17 104.668C99.7232 104.995 99.3778 105.271 99.1505 105.485C99.1102 105.523 99.0742 105.558 99.0427 105.591L99.0198 105.615L99.0428 105.626L99.0737 105.639C99.2731 105.724 99.549 105.796 99.8519 105.839C100.463 105.927 101.077 105.887 101.545 105.716L101.561 105.71L101.566 105.703C101.637 105.628 101.727 105.55 101.837 105.465L101.879 105.433C101.964 105.369 102.055 105.305 102.165 105.231L102.214 105.198L102.303 105.125C102.64 104.851 102.995 104.594 103.365 104.354L103.489 104.275C104.574 103.59 105.734 103.078 106.894 102.712C107.19 102.619 107.47 102.541 107.732 102.476L107.799 102.459L107.833 102.449C108.181 102.342 108.435 102.296 108.589 102.321L108.607 102.324C109.052 102.417 109.045 103.055 108.612 103.147L108.49 103.169L108.402 103.186C108.371 103.192 108.339 103.199 108.305 103.206L108.155 103.239L108.033 103.268L107.961 103.292L107.908 103.309C107.551 103.431 107.088 103.612 106.581 103.828L106.404 103.904C105.398 104.34 104.394 104.835 103.792 105.199L103.381 105.452C103.152 105.593 102.973 105.705 102.828 105.799L102.709 105.876L102.647 105.928L102.593 105.975L102.537 106.023L102.604 106.028L102.706 106.035C103.052 106.055 103.465 106.065 104.223 106.07L104.932 106.074L116.925 105.911L116.925 105.903C116.947 103.161 115.934 100.771 114.215 98.7374L114.152 98.6631C113.542 97.9513 112.888 97.3368 112.234 96.8219C112.007 96.6423 111.795 96.4882 111.607 96.36L111.532 96.3099L111.47 96.269ZM98.1086 105.84L98.0995 105.807C98.0821 105.74 98.0766 105.674 98.0834 105.607L98.0843 105.598C97.5638 105.577 97.1745 105.485 96.8987 105.32L96.8648 105.299C96.4697 105.044 96.3398 104.642 96.4468 104.214C96.4687 104.126 96.4995 104.04 96.5383 103.953L96.5445 103.94L96.5063 103.936C96.4091 103.926 96.3183 103.908 96.2338 103.882L96.192 103.869C95.7072 103.704 95.4818 103.276 95.5961 102.72C95.7932 101.771 98.7235 99.4941 101.695 97.6909C102.616 97.1361 103.671 96.6903 104.836 96.3421C106.214 95.9303 107.683 95.6711 109.166 95.534L109.364 95.5165C110.209 95.4444 110.931 95.4218 111.472 95.4276L111.605 95.4299C111.675 95.4319 111.744 95.4521 111.805 95.4886L111.89 95.5412C111.938 95.5724 112 95.6127 112.072 95.6621C112.277 95.8011 112.504 95.9666 112.747 96.1587C113.441 96.7056 114.135 97.357 114.782 98.1126C116.754 100.413 117.889 103.164 117.747 106.345C117.737 106.559 117.57 106.731 117.361 106.746L117.336 106.747L104.936 106.915L104.147 106.911C102.234 106.898 101.792 106.855 101.534 106.605L101.525 106.595L101.515 106.598C100.181 106.924 98.3354 106.568 98.1086 105.84Z" fill="#2E186A"/>
<path fill-rule="evenodd" clip-rule="evenodd" d="M106.436 98.2407C106.662 98.2007 106.878 98.3539 106.918 98.5828C106.958 98.8116 106.806 99.0296 106.579 99.0696C105.616 99.2394 103.631 100.19 101.375 101.51L101.292 101.559C100.357 102.108 99.4497 102.678 98.7336 103.165L98.6451 103.225C97.9805 103.681 97.5189 104.048 97.4782 104.121C97.3047 104.431 97.3289 104.532 97.5003 104.602C97.8146 104.729 98.4336 104.674 99.1833 104.402C99.3999 104.323 99.6387 104.436 99.7167 104.655C99.7946 104.874 99.6823 105.115 99.4657 105.193C98.5417 105.529 97.7292 105.602 97.189 105.382C96.5099 105.106 96.3483 104.428 96.7526 103.707C96.9839 103.294 98.6742 102.13 100.736 100.912L101.05 100.728C103.354 99.3854 105.356 98.4311 106.436 98.2407Z" fill="#2E186A"/>
<path fill-rule="evenodd" clip-rule="evenodd" d="M126.625 44.384C121.596 53.864 114.538 55.4486 109.995 54.2566C103.659 52.6299 101.339 41.369 106.369 31.875C111.398 22.395 118.664 20.1933 125.167 23.6992C131.641 27.2051 131.641 34.9041 126.625 44.384Z" fill="white"/>
<path fill-rule="evenodd" clip-rule="evenodd" d="M106.002 31.6762C103.559 36.2863 102.708 41.5517 103.51 46.0897C104.304 50.5827 106.637 53.8283 109.893 54.6642C112.5 55.3483 115.48 55.0695 118.308 53.7015C121.639 52.0908 124.613 49.0682 126.993 44.5825C132.231 34.6831 131.894 27.0151 125.557 23.4352L125.363 23.328C118.275 19.506 110.901 22.4421 106.002 31.6762ZM124.97 24.0698C130.989 27.3291 131.36 34.543 126.258 44.1857C123.959 48.5195 121.111 51.4128 117.948 52.9427C115.298 54.2243 112.52 54.4843 110.1 53.8493C107.204 53.1058 105.073 50.1399 104.331 45.942C103.562 41.5913 104.382 36.5176 106.737 32.0732C111.384 23.3127 118.18 20.5381 124.771 23.9644L124.97 24.0698Z" fill="#2E186A"/>
<path fill-rule="evenodd" clip-rule="evenodd" d="M124.264 39.0687C124.264 39.0687 130.224 38.62 128.71 43.4301C127.195 48.2401 122.722 45.9823 122.722 45.9823" fill="white"/>
<path fill-rule="evenodd" clip-rule="evenodd" d="M124.351 38.6428C125.063 38.6133 125.904 38.6726 126.719 38.8961C128.863 39.484 129.911 41.0033 129.107 43.5574C128.521 45.4185 127.456 46.4695 126.061 46.8115C125.153 47.0343 124.198 46.939 123.278 46.6485L123.169 46.613C122.885 46.5184 122.668 46.4258 122.535 46.3586C122.329 46.2547 122.246 46.002 122.349 45.7941C122.448 45.594 122.684 45.5085 122.885 45.5952L122.958 45.6296C122.985 45.6422 123.021 45.6581 123.065 45.6767C123.202 45.7339 123.357 45.7916 123.527 45.8455C124.315 46.0943 125.125 46.1752 125.864 45.9939C126.968 45.7231 127.813 44.8904 128.312 43.3026C128.959 41.2489 128.222 40.18 126.501 39.708C125.813 39.5196 125.086 39.4622 124.468 39.4805L124.322 39.4865C124.31 39.4872 124.301 39.4878 124.295 39.4882C124.065 39.5055 123.865 39.3317 123.848 39.1C123.831 38.8682 124.003 38.6664 124.233 38.6491L124.307 38.6447C124.32 38.6441 124.335 38.6434 124.351 38.6428Z" fill="#2E186A"/>
<path fill-rule="evenodd" clip-rule="evenodd" d="M108.041 37.3633C108.216 36.6173 107.971 35.9196 107.494 35.805C107.016 35.6903 106.486 36.2021 106.31 36.9481C106.135 37.6941 106.38 38.3918 106.857 38.5064C107.335 38.6211 107.865 38.1093 108.041 37.3633Z" fill="#2E186A"/>
<path fill-rule="evenodd" clip-rule="evenodd" d="M115.394 38.3389C115.57 37.5929 115.325 36.8952 114.847 36.7806C114.369 36.6659 113.84 37.1777 113.664 37.9237C113.488 38.6697 113.733 39.3674 114.211 39.482C114.689 39.5967 115.218 39.0849 115.394 38.3389Z" fill="#2E186A"/>
<path fill-rule="evenodd" clip-rule="evenodd" d="M111.047 34.5045C111.143 34.2932 111.39 34.2004 111.599 34.2971C111.801 34.3903 111.894 34.6258 111.814 34.8319L111.805 34.8547L108.106 43.0102L110.563 43.5087C110.781 43.5528 110.925 43.7606 110.894 43.9796L110.89 44.004C110.846 44.2237 110.64 44.3687 110.423 44.3378L110.399 44.3336L107.426 43.7306C107.171 43.6788 107.026 43.4074 107.119 43.1662L107.129 43.143L111.047 34.5045Z" fill="#2E186A"/>
<path fill-rule="evenodd" clip-rule="evenodd" d="M114.023 33.1237C115.211 32.5405 116.4 32.8919 117.481 33.7959C117.722 33.9971 117.939 34.2118 118.13 34.4269L118.185 34.4899C118.272 34.5909 118.336 34.6716 118.375 34.7246C118.512 34.9115 118.472 35.1749 118.287 35.3129C118.109 35.4457 117.861 35.4142 117.721 35.2454L117.67 35.1794L117.658 35.165C117.616 35.1121 117.566 35.0526 117.509 34.988C117.344 34.8025 117.156 34.6167 116.95 34.444C116.093 33.7279 115.222 33.4705 114.387 33.8804C114.18 33.982 113.931 33.895 113.83 33.686C113.729 33.4771 113.816 33.2253 114.023 33.1237Z" fill="#2E186A"/>
<path fill-rule="evenodd" clip-rule="evenodd" d="M113.191 45.997C112.842 46.4634 112.415 46.7479 111.919 46.8832C111.343 47.0405 110.708 46.9895 110.094 46.8052C109.969 46.7678 109.856 46.7279 109.758 46.6884L109.702 46.6655L109.647 46.6411C109.421 46.532 109.151 46.6476 109.072 46.8876L109.058 46.9312C109.042 46.9879 109.022 47.0652 109.003 47.1598C108.918 47.5838 108.908 48.0316 109.024 48.4648C109.314 49.5408 110.287 50.1615 111.995 50.1056C112.027 50.1046 112.058 50.1001 112.088 50.0921C113.717 49.6605 114.65 48.5073 114.778 47.1933C114.831 46.6506 114.725 46.1461 114.475 45.8465C114.118 45.4192 113.586 45.4918 113.213 45.9673L113.191 45.997ZM113.884 46.4684L113.886 46.4744C113.942 46.6101 113.974 46.8442 113.948 47.111L113.943 47.1579C113.833 48.0934 113.162 48.916 111.938 49.2614L111.921 49.2659L111.845 49.2675C110.586 49.2839 110.004 48.8961 109.829 48.2444L109.814 48.1863C109.774 48.0107 109.765 47.824 109.778 47.637L109.782 47.5888L109.856 47.6118C110.606 47.8366 111.389 47.8995 112.137 47.6954C112.786 47.5181 113.356 47.147 113.812 46.5621L113.872 46.4832L113.884 46.4684Z" fill="#2E186A"/>
<path fill-rule="evenodd" clip-rule="evenodd" d="M105.457 31.3715C106.373 31.0804 107.323 31.3085 108.234 31.8507C108.451 31.9797 108.649 32.1176 108.825 32.256L108.886 32.3046C108.963 32.3664 109.02 32.4163 109.056 32.4499C109.225 32.6078 109.235 32.874 109.078 33.0444C108.928 33.2083 108.678 33.2239 108.509 33.0845L108.461 33.0415L108.449 33.031C108.41 32.998 108.365 32.9606 108.313 32.92C108.164 32.8028 107.995 32.6851 107.811 32.5756C107.083 32.1427 106.356 31.968 105.707 32.1741C105.439 32.2591 105.184 32.4092 104.942 32.6338C104.772 32.7908 104.508 32.7793 104.353 32.608C104.197 32.4367 104.209 32.1706 104.378 32.0136C104.71 31.7067 105.072 31.4939 105.457 31.3715Z" fill="#2E186A"/>
<path fill-rule="evenodd" clip-rule="evenodd" d="M147.341 16.8416C146.465 16.9818 145.562 17.2202 144.687 17.5288C138.185 19.8567 134.434 26.0831 136.309 31.4402C138.171 36.7271 144.812 39.1812 151.245 37.0075C152.245 40.6396 152.426 46.8661 146.146 54.1864C145.062 55.4485 146.41 57.3137 147.924 56.6546C153.982 54.0041 162.151 49.3904 164.86 42.9255C169.07 32.8425 168.598 11.0639 147.341 16.8416Z" fill="#2E186A"/>
<path fill-rule="evenodd" clip-rule="evenodd" d="M133.823 32.5339L133.795 32.4217C133.392 31.0894 134.128 29.673 135.448 29.2523L136.907 28.8036C138.227 28.3969 139.63 29.1401 140.047 30.4724L140.075 30.5846C140.478 31.9168 139.741 33.3332 138.421 33.7539L136.962 34.2027C135.629 34.6093 134.225 33.8661 133.823 32.5339Z" fill="#E0840B"/>
<path fill-rule="evenodd" clip-rule="evenodd" d="M134.739 28.8743C133.628 25.3965 129.696 21.3016 118.22 18.7913C118.095 18.7773 117.956 18.7913 117.803 18.8194C111.982 17.5713 102.604 20.8528 102.784 31.8894C102.826 33.9649 103.34 35.9001 104.201 37.6671C104.646 35.7178 105.355 33.7545 106.355 31.8754C108.828 27.1915 111.857 24.2886 115.066 22.9704C114.358 26.7567 115.816 32.7588 124.097 39.406C124.111 39.4341 124.125 39.4621 124.153 39.5042L124.25 39.0695C124.25 39.0695 127.292 38.8451 128.473 40.4718C128.487 40.4999 128.501 40.5139 128.515 40.5419C128.529 40.556 128.543 40.57 128.543 40.598C128.557 40.6261 128.571 40.6401 128.585 40.6681C128.598 40.6822 128.612 40.7102 128.612 40.7242C128.626 40.7523 128.64 40.7803 128.654 40.7944C128.668 40.8224 128.682 40.8505 128.696 40.8785C128.71 40.9066 128.723 40.9346 128.737 40.9767C128.751 41.0047 128.751 41.0187 128.765 41.0468C128.779 41.0748 128.779 41.0889 128.793 41.1169C128.807 41.145 128.807 41.173 128.821 41.201C128.821 41.2291 128.835 41.2431 128.835 41.2712C128.849 41.2992 128.849 41.3273 128.862 41.3553C128.862 41.3693 128.876 41.3974 128.876 41.4114C128.904 41.5236 128.918 41.6358 128.918 41.762C128.918 41.776 128.918 41.79 128.918 41.8181C128.918 41.8602 128.918 41.8882 128.918 41.9303C128.918 41.9443 128.918 41.9723 128.918 41.9864C128.918 42.0284 128.918 42.0705 128.918 42.1126C128.918 42.1266 128.918 42.1547 128.918 42.1687C128.918 42.2107 128.918 42.2528 128.904 42.2949C128.89 42.4071 128.876 42.5193 128.862 42.6315C128.821 42.8839 128.765 43.1503 128.668 43.4448C127.959 45.6886 126.598 46.3898 125.361 46.502C125.375 46.4459 125.542 49.3067 125.5 49.3488C127.14 48.7878 128.918 47.708 130.821 45.8849C136.393 40.57 137.087 33.7685 134.739 28.8743Z" fill="#2E186A"/>
<path fill-rule="evenodd" clip-rule="evenodd" d="M61.1037 82.276C61.1037 82.276 58.5057 78.9524 60.2701 78.3073C64.2159 76.8628 74.9278 96.5239 63.4518 97.155C62.8821 97.183 57.283 98.2769 53.9625 93.6631C51.4617 89.8066 51.281 85.6977 53.0455 83.4119C54.8239 81.126 61.1037 82.276 61.1037 82.276Z" fill="white"/>
<path fill-rule="evenodd" clip-rule="evenodd" d="M60.1278 77.9117C59.1343 78.2749 59.0338 79.2182 59.5095 80.3964C59.6413 80.723 59.8154 81.0645 60.0215 81.414L60.0927 81.533L60.165 81.6506L60.2101 81.722L60.1367 81.7133C59.0237 81.5835 57.8859 81.5286 56.818 81.5917C54.9083 81.7046 53.4762 82.1768 52.7175 83.152C50.7678 85.6778 51.0994 90.0164 53.6136 93.8934L53.6251 93.9103C54.6291 95.3053 55.8907 96.2871 57.3495 96.9071C59.1315 97.6644 60.9324 97.8202 62.7722 97.6498L62.9424 97.633C63.1101 97.6152 63.3903 97.5828 63.4585 97.5762L63.4742 97.575C66.3401 97.4174 68.1082 96.0982 68.7511 93.8577C69.2943 91.9648 69.0017 89.4867 68.0356 86.8088C66.1695 81.6367 62.3686 77.0915 60.1278 77.9117ZM63.5058 96.7303L63.408 96.7364C63.2971 96.7461 62.9192 96.7901 62.7968 96.8022C61.0457 96.9761 59.3385 96.8394 57.673 96.1316L57.587 96.0945C56.33 95.5435 55.2412 94.6944 54.3593 93.4979L54.3049 93.4232L54.311 93.4326C51.9748 89.83 51.6725 85.8748 53.3741 83.6704C53.9445 82.9373 55.1745 82.5317 56.8667 82.4317C57.88 82.3718 58.9721 82.4245 60.041 82.5492C60.2738 82.5763 60.4892 82.6052 60.6837 82.6342L60.891 82.6664L61.0292 82.6898C61.3992 82.7576 61.6579 82.3373 61.4447 82.0341L61.3742 81.9407L61.3149 81.8603C61.2839 81.8179 61.2512 81.7723 61.2169 81.7237C61.0535 81.4918 60.8899 81.2417 60.7378 80.9838C60.5516 80.6678 60.396 80.3626 60.2815 80.0789L60.2454 79.987C59.9646 79.2501 60.0224 78.8452 60.4119 78.7028C62.0068 78.1189 65.5357 82.3387 67.2523 87.0967C68.1634 89.6221 68.4361 91.9312 67.9504 93.6236C67.415 95.4894 65.9817 96.5738 63.5058 96.7303Z" fill="#2E186A"/>
<path fill-rule="evenodd" clip-rule="evenodd" d="M64.466 72.852L53.9069 57.0754C53.379 56.2901 52.1841 56.5285 51.9896 57.4681L48.4329 75.5725C48.2801 76.3438 49.1414 76.9048 49.7806 76.456L54.5738 73.0483L59.0753 90.9704C59.242 91.6436 59.9228 92.0503 60.5897 91.882L61.3261 91.6997C61.9929 91.5314 62.3959 90.8442 62.2291 90.1711L57.811 72.5575L63.5212 74.1982C64.2993 74.4086 64.9245 73.5251 64.466 72.852Z" fill="#2E186A"/>
<path fill-rule="evenodd" clip-rule="evenodd" d="M54.5736 82.7662C57.6163 81.7005 62.7152 82.5138 63.8961 84.379C65.0771 86.2441 63.9239 85.9075 63.9239 85.9075C63.9239 85.9075 65.2716 86.805 65.2994 87.6324C65.3272 88.4598 65.1466 89.1189 65.1466 89.1189C65.1466 89.1189 66.258 89.175 65.9246 90.4372C65.5912 91.6853 65.4383 92.0779 65.4383 92.0779C65.4383 92.0779 65.6745 94.504 63.7016 94.6583C61.7288 94.8125 57.6996 96.1307 55.9352 94.6863C54.1707 93.2419 51.5309 83.832 54.5736 82.7662Z" fill="white"/>
<path fill-rule="evenodd" clip-rule="evenodd" d="M56.5849 91.2814C58.2089 90.8121 60.2409 90.6122 62.0657 90.703C63.9465 90.7965 65.2832 91.1606 65.6191 91.8386C66.2212 93.09 65.8891 93.7463 64.2703 94.5478C63.6656 94.8387 62.6661 94.9812 61.3524 95.0211C60.5419 95.0457 59.6766 95.0287 58.8329 94.9853L58.6659 94.9763C58.5845 94.9717 58.5065 94.9671 58.4321 94.9624L58.1714 94.9447L58.0833 94.938C57.8539 94.9193 57.6828 94.7165 57.7013 94.4849C57.7198 94.2533 57.9208 94.0806 58.1502 94.0993L58.3442 94.1134L58.558 94.1272C58.6578 94.1332 58.7639 94.1392 58.8754 94.1449C59.6984 94.1873 60.5423 94.2039 61.3273 94.1801L61.4859 94.1747C62.6097 94.1318 63.4648 94.0033 63.9074 93.7903L64.0491 93.7195C65.1555 93.1599 65.2298 92.9556 64.8713 92.2106C64.8224 92.1119 64.5389 91.9546 64.0662 91.8258C63.5379 91.6819 62.8286 91.5833 62.0246 91.5434C60.2867 91.4569 58.3452 91.6479 56.8144 92.0903C56.593 92.1543 56.3623 92.025 56.2989 91.8017C56.2356 91.5783 56.3636 91.3454 56.5849 91.2814Z" fill="#2E186A"/>
<path fill-rule="evenodd" clip-rule="evenodd" d="M56.7913 87.6424C58.1914 87.4289 59.6045 87.3155 60.9289 87.3557C61.6737 87.3782 62.3678 87.4497 63.0022 87.5758L63.1108 87.5981L63.1764 87.6099C64.6639 87.8874 65.8053 88.7112 66.2398 89.7219L66.26 89.7702C66.7123 90.8862 66.1565 91.9057 64.8813 92.075C64.6531 92.1053 64.4438 91.9431 64.4137 91.7128C64.3837 91.4824 64.5444 91.2711 64.7726 91.2408C65.4963 91.1447 65.7372 90.7027 65.4884 90.0888C65.1846 89.3392 64.274 88.6715 63.0299 88.4383L62.949 88.4235C62.3349 88.2932 61.6489 88.2193 60.9039 88.1967C59.6358 88.1582 58.2703 88.2678 56.9159 88.4744C56.5473 88.5306 56.2044 88.5904 55.8941 88.6505L55.7918 88.6705C55.7135 88.6861 55.6413 88.7008 55.5755 88.7147L55.376 88.7582C55.1518 88.8106 54.9279 88.6695 54.876 88.4431C54.826 88.2248 54.9542 88.0069 55.1645 87.9447L55.2111 87.9332L55.3064 87.9121C55.3845 87.8952 55.4729 87.8767 55.571 87.8569L55.6311 87.8449C55.9794 87.7758 56.3692 87.7068 56.7913 87.6424Z" fill="#2E186A"/>
<path fill-rule="evenodd" clip-rule="evenodd" d="M55.3711 84.8083C57.1289 84.39 58.9265 84.2119 60.6163 84.4127C61.4677 84.5139 62.2652 84.7107 62.9987 85.0137C63.5589 85.2459 64.0322 85.4939 64.4239 85.7569C65.8752 86.7315 66.153 87.8657 65.6827 88.8646C65.6069 89.0256 65.5284 89.145 65.468 89.2188C65.3214 89.3979 65.0587 89.4232 64.8812 89.2752C64.7106 89.1329 64.6809 88.8823 64.8092 88.7039L64.8254 88.6829C64.8447 88.6592 64.8859 88.5965 64.9298 88.5034C65.0434 88.2621 65.0849 87.9947 65.0155 87.711C64.9151 87.3013 64.5899 86.879 63.9622 86.4575C63.6186 86.2268 63.1936 86.0041 62.6825 85.7922C62.023 85.5198 61.2985 85.341 60.5188 85.2483C58.9391 85.0606 57.2335 85.2296 55.5624 85.6273C55.1823 85.7177 54.8315 85.814 54.5164 85.9106L54.4229 85.9396C54.3247 85.9704 54.2363 85.9993 54.1583 86.0258L54.0097 86.0779C53.7938 86.1585 53.5541 86.0472 53.4742 85.8293C53.3944 85.6114 53.5047 85.3694 53.7206 85.2888L53.7773 85.2682L53.843 85.2453C53.9388 85.2122 54.0499 85.1755 54.1754 85.1361C54.5321 85.0242 54.9334 84.9125 55.3711 84.8083Z" fill="#2E186A"/>
<path fill-rule="evenodd" clip-rule="evenodd" d="M60.3171 81.9708C60.4073 81.757 60.6521 81.6575 60.8639 81.7486C60.9288 81.7765 60.9927 81.8045 61.0558 81.8326C62.7187 82.5736 63.7487 83.383 64.2499 84.2386C64.6294 84.8865 64.6748 85.4968 64.5116 86.0047C64.4768 86.113 64.4391 86.195 64.4075 86.2488C64.2901 86.4486 64.0344 86.5146 63.8364 86.3961C63.6457 86.282 63.578 86.0385 63.6781 85.8421L63.6904 85.8197C63.6919 85.8171 63.7038 85.7912 63.7186 85.7451C63.8111 85.4574 63.7843 85.097 63.5323 84.6668C63.1309 83.9816 62.2357 83.2782 60.7191 82.6023C60.6594 82.5757 60.5988 82.5492 60.5373 82.5227C60.3255 82.4317 60.2269 82.1846 60.3171 81.9708Z" fill="#2E186A"/>
</svg>
