<svg width="131" height="139" viewBox="0 0 131 139" fill="none" xmlns="http://www.w3.org/2000/svg">
<path fill-rule="evenodd" clip-rule="evenodd" d="M104.693 120.044C97.1452 99.6287 79.0167 101.678 79.0167 101.678V91.2354H51.9596V101.678C51.9596 101.678 33.8311 99.6287 26.2837 120.019C26.2837 120.019 9.68446 116.81 1.66846 137.547H129.333C121.292 116.81 104.693 120.044 104.693 120.044Z" fill="white"/>
<path fill-rule="evenodd" clip-rule="evenodd" d="M51.9591 90.4951L51.9156 90.4964C51.5272 90.5189 51.2191 90.8413 51.2191 91.2357L51.2189 100.89L51.2031 100.889C49.8102 100.84 48.1026 100.939 46.188 101.283C43.0665 101.842 39.99 102.959 37.1099 104.765L36.9548 104.863C32.2086 107.887 28.3922 112.554 25.8354 119.115L25.8007 119.204L25.7073 119.194C24.1232 119.025 22.2164 119.058 20.1105 119.43C17.1203 119.959 14.1856 121.104 11.4381 123.005C7.10135 126.004 3.5294 130.679 0.977795 137.28C0.790195 137.765 1.14798 138.288 1.66788 138.288H129.332C129.852 138.288 130.21 137.764 130.022 137.279C127.467 130.69 123.897 126.022 119.565 123.026C116.815 121.123 113.878 119.977 110.884 119.45C108.775 119.078 106.864 119.047 105.275 119.217L105.174 119.228L105.14 119.139C102.555 112.499 98.6838 107.796 93.8658 104.771C90.9852 102.963 87.9082 101.844 84.7862 101.284L84.5819 101.248C82.8178 100.945 81.2357 100.849 79.9218 100.885L79.7559 100.89L79.7561 91.2357C79.7561 90.8267 79.4248 90.4951 79.0162 90.4951H51.9591ZM52.6991 91.9763H78.2763L78.2765 101.678C78.2765 102.105 78.6356 102.44 79.0558 102.418L79.2784 102.398C79.3208 102.395 79.3695 102.392 79.4243 102.389C80.7792 102.307 82.5292 102.383 84.5253 102.741C87.4697 103.27 90.369 104.324 93.0797 106.026C97.7753 108.974 101.529 113.623 103.998 120.302C104.119 120.628 104.449 120.824 104.789 120.779L104.975 120.748L105.112 120.728C105.208 120.715 105.315 120.702 105.432 120.689C106.891 120.533 108.664 120.563 110.628 120.909C113.419 121.401 116.157 122.469 118.724 124.244L118.865 124.342C122.6 126.97 125.747 130.957 128.118 136.523L128.236 136.806H2.76254L2.78946 136.742C5.19717 130.979 8.42842 126.887 12.2797 124.223C14.8441 122.449 17.5794 121.382 20.368 120.889C22.3281 120.543 24.0978 120.512 25.5515 120.667C25.6961 120.682 25.8252 120.698 25.9381 120.714L26.1147 120.742L26.1431 120.747C26.4986 120.816 26.8516 120.617 26.9773 120.277C29.4462 113.607 33.2002 108.964 37.8957 106.02C40.6061 104.321 43.5051 103.268 46.4492 102.741C48.3809 102.394 50.0823 102.312 51.4184 102.381L51.6524 102.395C51.7614 102.403 51.8367 102.409 51.8763 102.414L51.92 102.418C52.3403 102.44 52.6993 102.105 52.6993 101.678L52.6991 91.9763Z" fill="#2E186A"/>
<path fill-rule="evenodd" clip-rule="evenodd" d="M94.3825 124.389C88.7096 109.059 75.0701 110.589 75.0701 110.589V88.125H54.7464V110.589C54.7464 110.589 41.1069 109.034 35.434 124.389C35.434 124.389 22.9537 121.97 16.9355 137.571H112.906C106.863 121.97 94.3825 124.389 94.3825 124.389Z" fill="white"/>
<path fill-rule="evenodd" clip-rule="evenodd" d="M54.7458 87.3848L54.7024 87.386C54.3139 87.4085 54.0059 87.7309 54.0059 88.1254V109.807L53.9972 109.807C52.971 109.783 51.7388 109.864 50.368 110.109C48.0006 110.532 45.6672 111.379 43.4822 112.748L43.3409 112.837C39.8192 115.087 36.9751 118.531 35.0438 123.342L34.9503 123.578L35.0186 123.585C33.8119 123.457 32.3624 123.481 30.7625 123.764C28.4921 124.164 26.2637 125.033 24.1778 126.475C20.884 128.753 18.1749 132.301 16.2447 137.305C16.0575 137.79 16.4153 138.312 16.935 138.312H112.905C113.425 138.312 113.783 137.789 113.595 137.304C111.661 132.312 108.954 128.768 105.666 126.491C103.575 125.041 101.34 124.168 99.0634 123.765L98.879 123.734C97.4092 123.49 96.071 123.463 94.9374 123.571L94.8646 123.578L94.8514 123.544C92.8936 118.571 89.9691 115.038 86.3333 112.759C84.145 111.387 81.808 110.539 79.4373 110.113L79.2592 110.082C77.9596 109.86 76.7904 109.787 75.8094 109.808V88.1254C75.8094 87.7163 75.4782 87.3848 75.0695 87.3848H54.7458ZM55.4863 88.8659H74.3301V110.59C74.3301 111.031 74.7139 111.375 75.1525 111.326L75.2372 111.318C75.2761 111.315 75.3256 111.311 75.3853 111.308C76.3894 111.248 77.6907 111.305 79.1767 111.571C81.3702 111.965 83.5298 112.749 85.5484 114.014C89.0477 116.208 91.8462 119.668 93.6886 124.647C93.8092 124.972 94.1385 125.169 94.4787 125.124L94.6209 125.1L94.7416 125.083C94.8062 125.075 94.877 125.066 94.9539 125.058C96.0326 124.943 97.3484 124.966 98.8064 125.224C100.881 125.591 102.916 126.386 104.825 127.708L104.956 127.801C107.673 129.723 109.972 132.616 111.723 136.64L111.806 136.831H18.0338L18.1178 136.636C19.8946 132.539 22.2413 129.615 25.0194 127.694C26.9221 126.379 28.9511 125.587 31.0199 125.222C32.474 124.966 33.7864 124.943 34.8626 125.058L35.0082 125.075C35.0311 125.078 35.0533 125.08 35.0748 125.083L35.2247 125.105L35.2933 125.116C35.649 125.185 36.0023 124.986 36.128 124.646C37.9704 119.659 40.7688 116.196 44.268 114.004C46.2831 112.741 48.4389 111.959 50.6288 111.567C52.0572 111.312 53.3162 111.25 54.3064 111.3L54.5438 111.315L54.7064 111.329C55.1269 111.353 55.4863 111.017 55.4863 110.59V88.8659Z" fill="#2E186A"/>
<path fill-rule="evenodd" clip-rule="evenodd" d="M85.3062 128.166C81.3105 117.378 71.7406 118.464 71.7406 118.464V89.2607H57.4598V118.464C57.4598 118.464 47.8653 117.378 43.8943 128.166C43.8943 128.166 35.1136 126.463 30.896 137.423H98.3538C94.0868 126.463 85.3062 128.166 85.3062 128.166Z" fill="white"/>
<path fill-rule="evenodd" clip-rule="evenodd" d="M57.4592 88.5205L57.4157 88.5218C57.0273 88.5443 56.7193 88.8667 56.7193 89.2611V117.692L56.6103 117.693C55.9485 117.698 55.1856 117.761 54.3512 117.911C52.6631 118.212 50.9987 118.815 49.4397 119.789L49.3093 119.872C46.8411 121.454 44.8434 123.858 43.4775 127.194L43.4098 127.361L43.384 127.359C41.0909 127.167 38.423 127.679 35.8699 129.438C33.5111 131.062 31.5762 133.594 30.2049 137.158C30.0182 137.643 30.376 138.164 30.8954 138.164H98.3532C98.8738 138.164 99.2317 137.64 99.0426 137.155C97.6646 133.615 95.7342 131.094 93.3876 129.468L93.2543 129.377C90.7652 127.697 88.1761 127.186 85.9328 127.35L85.7883 127.362L85.7207 127.196C84.3289 123.813 82.2919 121.388 79.7767 119.807C78.214 118.824 76.5457 118.217 74.8535 117.913L74.6976 117.885C73.922 117.754 73.2113 117.698 72.5896 117.693L72.48 117.692V89.2611C72.48 88.8521 72.1487 88.5205 71.74 88.5205H57.4592ZM58.1988 90.0017H70.9998V118.465C70.9998 118.892 71.359 119.228 71.7794 119.204L71.8892 119.195C71.9131 119.193 71.9426 119.191 71.9773 119.189C72.6677 119.147 73.5656 119.186 74.5916 119.37C76.106 119.643 77.5964 120.185 78.9891 121.061C81.4005 122.577 83.3325 124.971 84.6114 128.424C84.7321 128.75 85.0615 128.946 85.4016 128.901L85.5339 128.879C85.5838 128.872 85.65 128.864 85.7317 128.855C87.7706 128.638 90.2115 129.069 92.545 130.686L92.657 130.765C94.4425 132.034 95.9697 133.915 97.1607 136.505L97.2414 136.683H32.0018L32.0092 136.666C33.2313 133.917 34.8279 131.953 36.7085 130.658C38.981 129.093 41.357 128.655 43.3582 128.844L43.5575 128.865C43.599 128.87 43.6348 128.875 43.6647 128.879L43.7526 128.894C44.1087 128.963 44.4623 128.763 44.5877 128.423C45.863 124.958 47.8003 122.561 50.2234 121.046C51.6127 120.177 53.0998 119.638 54.6108 119.369C55.5861 119.194 56.4456 119.151 57.121 119.183L57.2835 119.193L57.4194 119.204C57.8397 119.227 58.1988 118.892 58.1988 118.465V90.0017Z" fill="#2E186A"/>
<path fill-rule="evenodd" clip-rule="evenodd" d="M51.614 100.074L54.3025 110.566C54.4505 111.109 55.2151 111.084 55.3384 110.541L57.7308 105.431C57.7308 105.431 60.8633 116.639 65.3275 116.935C69.7918 117.231 74.1575 105.259 74.1575 105.259L76.18 110.714C76.3526 111.233 77.1172 111.183 77.2159 110.64L79.9537 100.297C79.9537 100.297 82.3461 82.7941 65.0562 84.1271C47.7663 85.4602 51.614 100.074 51.614 100.074Z" fill="#E0840B"/>
<path fill-rule="evenodd" clip-rule="evenodd" d="M44.3381 52.5532C44.3381 52.5532 31.1179 70.4753 32.8197 86.4967H61.998V52.1582L44.3381 52.5532Z" fill="#E0840B"/>
<path fill-rule="evenodd" clip-rule="evenodd" d="M85.8981 52.5532C85.8981 52.5532 99.1184 70.4753 97.4165 86.4967H68.2383V52.1582L85.8981 52.5532Z" fill="#E0840B"/>
<path fill-rule="evenodd" clip-rule="evenodd" d="M77.0184 86.4964C88.2161 66.3525 87.0076 50.3312 83.7272 39.3952C80.4468 28.4592 72.7761 16.2148 65.4754 16.2148C58.1746 16.2148 50.5039 28.4345 47.2235 39.3952C43.9431 50.3558 42.5619 66.3278 53.7597 86.4964L50.6273 93.2357H80.1508L77.0184 86.4964Z" fill="white"/>
<path fill-rule="evenodd" clip-rule="evenodd" d="M65.4762 15.4746C61.7469 15.4746 57.8583 18.3241 54.2459 23.2573C51.0329 27.645 48.2236 33.4761 46.5156 39.183C44.5679 45.6906 43.7391 52.3758 44.3257 59.5536L44.3485 59.824C45.0827 68.3014 47.7885 77.0995 52.7913 86.2706L52.9308 86.5254L49.9572 92.9238C49.7291 93.4147 50.0872 93.9767 50.6281 93.9767H80.1517L80.194 93.9756C80.7111 93.9472 81.0448 93.4017 80.8226 92.9238L77.8487 86.5257L77.992 86.265C83.052 77.0006 85.7951 68.1073 86.5401 59.5575C87.1687 52.3435 86.3677 45.6199 84.4367 39.1826C82.7275 33.4845 79.9176 27.6547 76.7067 23.2668L76.4895 22.9729C72.9371 18.2148 69.1301 15.4746 65.4762 15.4746ZM65.4764 16.9558C71.6859 16.9558 79.3774 27.4667 83.0195 39.6085C84.8988 45.8733 85.6776 52.4105 85.066 59.4288C84.3235 67.9495 81.5415 76.8386 76.3729 86.1367L76.3498 86.1817C76.2569 86.3795 76.2557 86.6094 76.3486 86.8091L78.9911 92.4952H51.7888L54.4316 86.8091C54.5315 86.5942 54.5226 86.3443 54.4075 86.137C49.245 76.8386 46.4978 67.9604 45.8008 59.4328C45.2301 52.4492 46.0363 45.9469 47.9334 39.608C51.5694 27.4593 59.2608 16.9558 65.4764 16.9558Z" fill="#2E186A"/>
<path fill-rule="evenodd" clip-rule="evenodd" d="M65.4758 57.6387C70.08 57.6387 73.8124 53.1957 73.8124 47.7149C73.8124 42.2341 70.08 37.791 65.4758 37.791C60.8716 37.791 57.1392 42.2341 57.1392 47.7149C57.1392 53.1957 60.8716 57.6387 65.4758 57.6387Z" fill="#E0840B"/>
<path fill-rule="evenodd" clip-rule="evenodd" d="M65.475 62.1312C66.2378 62.1312 66.8562 61.3907 66.8562 60.4772C66.8562 59.5638 66.2378 58.8232 65.475 58.8232C64.7121 58.8232 64.0938 59.5638 64.0938 60.4772C64.0938 61.3907 64.7121 62.1312 65.475 62.1312Z" fill="#E0840B"/>
<path fill-rule="evenodd" clip-rule="evenodd" d="M70.828 62.1312C71.5908 62.1312 72.2092 61.3907 72.2092 60.4772C72.2092 59.5638 71.5908 58.8232 70.828 58.8232C70.0652 58.8232 69.4468 59.5638 69.4468 60.4772C69.4468 61.3907 70.0652 62.1312 70.828 62.1312Z" fill="#E0840B"/>
<path fill-rule="evenodd" clip-rule="evenodd" d="M59.704 62.1312C60.4668 62.1312 61.0852 61.3907 61.0852 60.4772C61.0852 59.5638 60.4668 58.8232 59.704 58.8232C58.9411 58.8232 58.3228 59.5638 58.3228 60.4772C58.3228 61.3907 58.9411 62.1312 59.704 62.1312Z" fill="#E0840B"/>
<path fill-rule="evenodd" clip-rule="evenodd" d="M65.4755 54.2563C68.9491 54.2563 71.765 50.8963 71.765 46.7517C71.765 42.607 68.9491 39.2471 65.4755 39.2471C62.0019 39.2471 59.186 42.607 59.186 46.7517C59.186 50.8963 62.0019 54.2563 65.4755 54.2563Z" fill="white"/>
<path fill-rule="evenodd" clip-rule="evenodd" d="M66.9562 15.4252V3.67453C66.9562 3.64984 66.9562 3.60047 66.9562 3.57578C67.1782 3.27955 67.3015 2.90926 67.3015 2.51428C67.3015 1.50214 66.4876 0.6875 65.4763 0.6875C64.4651 0.6875 63.6512 1.50214 63.6512 2.51428C63.6512 2.90926 63.7745 3.27955 63.9965 3.57578C63.9965 3.60047 63.9965 3.64984 63.9965 3.67453V15.4005C60.938 16.0176 57.8796 18.585 55.0679 22.041C58.2249 21.3005 61.9 20.9055 66.1423 21.1523C69.9406 21.3745 73.295 21.8929 76.2548 22.6088C73.3937 18.9059 70.1626 16.1164 66.9562 15.4252Z" fill="#E0840B"/>
<path fill-rule="evenodd" clip-rule="evenodd" d="M78.7869 29.2004C75.2275 27.9661 71.1389 26.9046 65.6314 26.6824C60.0277 26.4602 55.7468 27.7439 52.2595 29.151C50.7203 32.064 49.5178 34.9523 48.5317 38.038C52.7405 35.9397 57.8632 33.718 65.7517 33.8661C73.2553 34.0142 78.4021 35.6929 82.3223 37.4949C81.3603 34.6067 80.2059 31.9406 78.7869 29.2004Z" fill="#E0840B"/>
<path fill-rule="evenodd" clip-rule="evenodd" d="M76.137 86.4226C76.6596 85.4599 77.1346 84.5218 77.586 83.5837C75.1394 82.5469 71.6477 81.7076 65.4245 81.757C59.1299 81.7076 55.6145 82.5716 53.168 83.6331C53.6193 84.5712 54.0943 85.5093 54.6169 86.4473C54.6169 86.4473 60.1513 85.3365 65.4245 85.3858C70.6026 85.3118 76.137 86.4226 76.137 86.4226Z" fill="#E0840B"/>
</svg>
