<svg width="91" height="81" viewBox="0 0 91 81" fill="none" xmlns="http://www.w3.org/2000/svg">
<path fill-rule="evenodd" clip-rule="evenodd" d="M38.474 66.3405C38.5224 66.3606 38.592 66.3879 38.6822 66.4211L38.7289 66.4381C39.0089 66.5391 39.339 66.641 39.716 66.7368C40.7068 66.9883 41.827 67.1495 43.0566 67.1756C43.4759 67.1845 43.8002 67.5062 43.7654 67.8787C43.7542 67.9986 43.7239 68.1891 43.665 68.4282C43.5674 68.8241 43.4212 69.2208 43.2135 69.5969L43.1755 69.6643C42.5212 70.801 41.4277 71.4944 39.8825 71.4425L39.8323 71.4401L39.8702 71.4389C38.0865 71.519 37.2254 70.4583 37.1325 68.8765C37.1026 68.3665 37.1512 67.8333 37.2503 67.3041C37.2699 67.1994 37.2905 67.1005 37.3117 67.0067L37.3439 66.8708L37.3704 66.7666C37.4624 66.3569 37.9559 66.1333 38.378 66.2994L38.474 66.3405ZM38.6415 67.7963L38.6248 67.9169C38.5859 68.225 38.5711 68.5272 38.5876 68.8094C38.6437 69.7633 38.9813 70.1792 39.7967 70.1426L39.8363 70.1417L39.8759 70.1428C40.8534 70.1937 41.4827 69.7911 41.906 69.0243L41.9608 68.9205C42.0313 68.7806 42.0918 68.635 42.1428 68.4868L42.1596 68.4356L41.9743 68.4218C41.0198 68.3449 40.1312 68.1934 39.3167 67.9866C39.1263 67.9383 38.9457 67.8883 38.775 67.8374L38.6415 67.7963Z" fill="#2E186A"/>
<path fill-rule="evenodd" clip-rule="evenodd" d="M9.7913 58.1055C9.7913 58.1055 2.43248 60.833 6.3669 66.2878C10.3013 71.7427 16.9801 65.4436 16.9801 65.4436L12.1714 57.4128L9.7913 58.1055Z" fill="white"/>
<path fill-rule="evenodd" clip-rule="evenodd" d="M12.8154 57.1071L17.6241 65.1379C17.7716 65.3842 17.726 65.6869 17.5109 65.8897L17.3913 65.999C17.2738 66.1038 17.1121 66.2419 16.9105 66.4045C16.4437 66.781 15.9235 67.1571 15.3609 67.509C13.6532 68.5772 11.9233 69.2075 10.2471 69.158C8.48129 69.1059 6.94396 68.2872 5.75524 66.6391C3.51168 63.5285 4.34464 60.8748 7.03576 58.8799C7.57464 58.4805 8.14886 58.1399 8.72332 57.8561L8.86771 57.7858C9.14717 57.6522 9.36957 57.5591 9.51277 57.506C9.53037 57.4995 9.54825 57.4935 9.56637 57.4883L11.9464 56.7956C12.2825 56.6978 12.6489 56.8291 12.8154 57.1071ZM11.8188 58.1987L10.0517 58.713L9.94323 58.7571L9.9094 58.7713C9.76614 58.832 9.60513 58.9055 9.43093 58.9916C8.93155 59.2383 8.43192 59.5346 7.96855 59.8781C5.79513 61.4892 5.1824 63.4413 6.98202 65.9364C7.91813 67.2342 9.02166 67.8219 10.2963 67.8595C11.5945 67.8979 13.0518 67.3669 14.5247 66.4455C15.0348 66.1265 15.509 65.7836 15.9336 65.4411L16.0825 65.3193L11.8188 58.1987Z" fill="#2E186A"/>
<path fill-rule="evenodd" clip-rule="evenodd" d="M22.6628 32.0435C24.9457 31.0478 40.1005 29.7706 43.4763 35.2039C49.3293 44.6417 52.6323 56.1791 53.6037 61.634C54.5752 67.0889 27.9329 73.756 26.2815 73.8209C24.63 73.8858 22.2256 72.9767 22.2256 72.9767L11.9525 58.9282C11.9768 58.9282 2.35933 40.9618 22.6628 32.0435Z" fill="white"/>
<path fill-rule="evenodd" clip-rule="evenodd" d="M32.704 30.5637C38.2308 30.8531 42.3691 32.1853 44.0649 34.809L44.1155 34.8889C49.1072 42.9378 52.9465 53.7913 54.3249 61.5314C54.8344 64.3925 49.9723 67.262 41.453 70.2615L41.1937 70.3525C35.509 72.3386 27.6713 74.4155 26.3152 74.4688C25.885 74.4857 25.4073 74.4482 24.8874 74.3651C24.3912 74.2858 23.8696 74.1672 23.337 74.0198C23.0455 73.9391 22.7649 73.8538 22.5014 73.7675L22.3454 73.7157C22.1591 73.6529 22.0212 73.6034 21.9427 73.5737C21.8093 73.5233 21.6959 73.4386 21.6168 73.3304L11.3437 59.282L11.3222 59.2509C11.3087 59.23 11.2966 59.2089 11.286 59.1875L11.2689 59.1499L11.1903 58.9891C11.1079 58.8175 11.0206 58.628 10.9261 58.4116C10.6517 57.7837 10.3803 57.0778 10.1267 56.2979C8.68235 51.8555 8.4358 47.2013 10.159 42.8191C11.9951 38.1497 15.9431 34.271 22.3423 31.4602C23.8353 30.809 28.5723 30.3474 32.704 30.5637ZM42.991 35.7602L42.8415 35.5178C41.494 33.3489 37.7466 32.1289 32.6196 31.8604C28.7167 31.6561 24.2009 32.0961 22.9857 32.6261C16.9253 35.2881 13.243 38.9057 11.5352 43.2489C9.92729 47.3379 10.16 51.731 11.5273 55.9366C11.7482 56.616 11.983 57.2352 12.2202 57.7906L12.285 57.9404C12.3587 58.1091 12.4273 58.2596 12.4923 58.397L12.5999 58.6195L22.7137 72.45L22.8618 72.501C23.1435 72.596 23.4502 72.691 23.7702 72.7796C24.2493 72.9122 24.7143 73.0179 25.1456 73.0868C25.5673 73.1542 25.9415 73.1837 26.252 73.1715C27.3955 73.1265 35.1251 71.0782 40.6629 69.1434L41.131 68.9786C48.7133 66.2864 53.2213 63.6137 52.8868 61.7351C51.547 54.2123 47.8212 43.6414 42.991 35.7602Z" fill="#2E186A"/>
<path fill-rule="evenodd" clip-rule="evenodd" d="M14.3568 57.9541C16.0811 58.6252 22.2013 63.777 24.3142 66.4395C24.3142 66.4395 31.4301 61.0712 43.1362 56.7852C43.1362 56.7852 49.5964 54.6422 52.4622 54.4258C52.4622 54.4258 56.518 65.0541 53.7008 72.284C50.8836 79.5139 39.2261 81.8733 32.6202 80.423C26.0143 78.9944 24.4842 77.7389 21.7399 74.6867C19.0198 71.6346 10.1309 59.7724 10.1309 59.7724L14.3568 57.9541Z" fill="#968BB4"/>
<path fill-rule="evenodd" clip-rule="evenodd" d="M34.5183 54.7904C34.1642 53.9896 34.3424 53.177 34.9164 52.9753C35.4904 52.7737 36.2428 53.2593 36.5969 54.0601C36.9511 54.8609 36.7728 55.6735 36.1988 55.8751C35.6249 56.0768 34.8725 55.5911 34.5183 54.7904Z" fill="#2E186A"/>
<path fill-rule="evenodd" clip-rule="evenodd" d="M42.3034 52.315C42.0955 52.0079 41.6477 51.9092 41.3032 52.0945C40.9714 52.2729 40.8564 52.6496 41.034 52.9515L41.0558 52.986L45.7925 59.9821L42.6134 61.1642C42.2553 61.2974 42.0793 61.6557 42.2061 61.978L42.2215 62.0136C42.3709 62.3328 42.7729 62.4896 43.1344 62.3766L43.1744 62.3629L47.1331 60.8909C47.5302 60.7433 47.6953 60.3249 47.4981 59.9904L47.4764 59.9561L42.3034 52.315Z" fill="#2E186A"/>
<path fill-rule="evenodd" clip-rule="evenodd" d="M44.6611 52.1643C44.3069 51.3635 44.4852 50.5509 45.0591 50.3492C45.6331 50.1476 46.3855 50.6332 46.7396 51.434C47.0938 52.2348 46.9156 53.0474 46.3416 53.249C45.7676 53.4507 45.0152 52.965 44.6611 52.1643Z" fill="#2E186A"/>
<path fill-rule="evenodd" clip-rule="evenodd" d="M33.1366 46.4428C33.0461 46.0934 32.6549 45.8755 32.2628 45.9561C30.9 46.2364 29.8336 46.848 29.042 47.6866C28.6504 48.1014 28.3519 48.5444 28.1326 48.9887C27.9983 49.2608 27.9184 49.4796 27.8808 49.6197C27.7871 49.9685 28.0284 50.319 28.4198 50.4024C28.7971 50.4829 29.1762 50.2858 29.2868 49.9589L29.3076 49.891C29.3128 49.8752 29.3201 49.8543 29.3295 49.8286C29.3637 49.7347 29.409 49.628 29.4664 49.5117C29.6327 49.175 29.8604 48.837 30.157 48.5228C30.7523 47.8922 31.5474 47.4362 32.5905 47.2216C32.9826 47.141 33.2271 46.7923 33.1366 46.4428Z" fill="#2E186A"/>
<path fill-rule="evenodd" clip-rule="evenodd" d="M44.2016 42.6536C43.3516 42.5024 42.4855 42.662 41.6502 43.0099C41.2874 43.161 41.0084 43.3137 40.8383 43.4243C40.5131 43.6355 40.4417 44.0417 40.6787 44.3316C40.9066 44.6102 41.3368 44.6798 41.6586 44.4969L41.7567 44.4376C41.7785 44.4249 41.8052 44.4099 41.8364 44.3927C41.9641 44.3228 42.1091 44.2523 42.267 44.1866C42.8465 43.9453 43.4216 43.8393 43.9164 43.9273C44.3016 43.9958 44.6415 44.1817 44.9461 44.525C45.1956 44.8063 45.6538 44.854 45.9695 44.6316C46.2851 44.4091 46.3387 44.0008 46.0891 43.7194C45.5703 43.1346 44.9265 42.7826 44.2016 42.6536Z" fill="#2E186A"/>
<path fill-rule="evenodd" clip-rule="evenodd" d="M11.978 61.3523C11.978 61.3523 6.36782 57.7807 2.822 53.2566C-0.505249 49.0139 -0.238098 43.2344 3.69631 39.403C6.99927 36.1993 10.958 35.6798 10.958 35.6798C10.958 35.6798 4.44919 29.9002 9.45221 22.2807C11.2008 19.5966 14.1638 17.67 17.5639 16.9774C25.8699 15.2673 30.2414 20.8954 30.2414 20.8954C30.2414 20.8954 34.8559 4.3792 55.4508 8.73011C57.5394 9.16304 60.2838 11.0896 61.741 12.4966C70.6055 20.9386 54.285 37.1517 44.3033 40.4636C33.3258 44.1002 26.9385 43.1261 22.3969 41.9789C25.6027 42.4334 29.0757 57.9106 11.978 61.3523Z" fill="#2E186A"/>
<circle cx="74.4807" cy="21" r="16" fill="#FF8D7E" fill-opacity="0.3"/>
<path d="M84.8377 22.3337C84.8377 16.5734 80.1443 11.9151 74.3878 12.0015C68.8788 12.0837 64.364 16.595 64.2564 22.1262C64.1811 26.0175 66.2491 29.4291 69.3544 31.2549C70.2969 31.808 70.8952 32.804 70.8952 33.9016V38.0003H78.1989V33.9016C78.1989 32.8062 78.795 31.8102 79.7376 31.257C82.7891 29.4637 84.8399 26.1407 84.8399 22.3337H84.8377Z" fill="#FF8D7E"/>
<path d="M70.9598 37.3348H78.2636V39.3356C78.2636 41.3601 76.6281 43.0022 74.6117 43.0022C72.5953 43.0022 70.9598 41.3601 70.9598 39.3356V37.3348Z" fill="#2E186A"/>
<path d="M72.9055 36V25.1981C72.9055 24.5376 72.3471 24 71.6548 24C70.9653 24 70.4041 24.5349 70.4041 25.1981V25.3291C70.4041 25.9895 70.9625 26.5272 71.6548 26.5272H77.1533C77.8428 26.5272 78.4041 25.9923 78.4041 25.3291V25.1981C78.4041 24.5376 77.8456 24 77.1533 24H77.0964C76.4069 24 75.8456 24.5349 75.8456 25.1981V36" stroke="white" stroke-width="1.4" stroke-linecap="round" stroke-linejoin="round"/>
<path d="M74.6117 7.83373V2.49915" stroke="#FF8D7E" stroke-width="1.4" stroke-linecap="round" stroke-linejoin="round"/>
<path d="M83.6886 10.8867L87.4459 7.11426" stroke="#FF8D7E" stroke-width="1.4" stroke-linecap="round" stroke-linejoin="round"/>
<path d="M62.4402 7.11426L66.1975 10.8867" stroke="#FF8D7E" stroke-width="1.4" stroke-linecap="round" stroke-linejoin="round"/>
</svg>
