<svg xmlns="http://www.w3.org/2000/svg" width="287" height="166" viewBox="0 0 287 166" fill="none">
<path fill-rule="evenodd" clip-rule="evenodd" d="M107.735 109.184C105.492 107.996 103.577 108.555 101.474 110.792C102.432 105.386 102.409 98.8369 98.1103 97.7415C93.6951 96.5996 91.1955 99.3496 88.6025 105.992C88.6959 100.305 87.5746 92.964 82.8558 92.661C77.5529 92.3348 75.7775 96.6928 74.4693 106.364C72.8107 100.958 68.2554 91.4725 62.8824 93.3602C57.6263 95.2013 57.9767 100.258 60.8968 110.559C58.0234 106.108 52.2533 99.4894 48.3988 102.006C44.7312 104.383 45.7357 108.275 49.8004 115.5C47.114 114.335 44.3341 114.218 42.0914 116.409C37.0689 121.35 39.4984 126.034 46.4365 134.727C53.398 143.42 103.366 128.038 105.726 124.123C108.109 120.184 111.823 111.375 107.735 109.184Z" fill="white"/>
<path fill-rule="evenodd" clip-rule="evenodd" d="M76.5086 95.5018C75.5437 97.2518 74.8407 99.6755 74.2366 103.217L74.1946 103.465L74.1892 103.452C73.2261 101.01 71.9866 98.598 70.6386 96.7198C68.1848 93.3012 65.4695 91.71 62.6496 92.7007C59.8217 93.6913 58.3869 95.5982 58.1334 98.6236L58.1183 98.826C57.9861 100.832 58.327 103.332 59.1897 106.868L59.2368 107.061L59.1766 106.986C57.9872 105.511 56.712 104.169 55.4641 103.132C52.6813 100.821 50.1082 100.055 48.015 101.421C45.9697 102.747 45.1653 104.571 45.5058 107.031L45.5191 107.124C45.7863 108.921 46.6427 111.093 48.2124 114.057L48.314 114.248L48.2552 114.233C45.7329 113.609 43.4533 114.1 41.6011 115.909C38.9469 118.52 38.171 121.182 39.1063 124.358L39.1577 124.528C39.9952 127.223 41.9757 130.26 45.8883 135.162C49.2583 139.37 61.4069 138.772 77.9695 134.833C91.5541 131.602 104.964 126.744 106.327 124.483C107.784 122.073 109.183 118.88 109.838 116.162C110.723 112.49 110.291 109.76 108.067 108.568L107.981 108.524C106.07 107.542 104.314 107.676 102.555 108.907L102.457 108.976L102.471 108.861C102.754 106.512 102.767 104.344 102.454 102.531C101.948 99.6011 100.596 97.6532 98.2838 97.0641L98.1445 97.0291C94.2985 96.0897 91.708 97.7815 89.3077 102.624L89.2237 102.795L89.2209 102.754C89.0734 100.653 88.738 98.7096 88.199 97.0875C87.1698 93.9898 85.4246 92.1253 82.9008 91.9633C80.0045 91.7851 77.968 92.9071 76.5534 95.4213L76.5086 95.5018ZM82.8126 93.3588C86.2992 93.5827 88.0204 98.7631 87.9018 105.98C87.8889 106.76 88.9718 106.972 89.2555 106.245C91.8755 99.5343 94.1594 97.4419 97.9344 98.4183C101.135 99.2339 101.962 104.021 100.784 110.671C100.663 111.355 101.509 111.778 101.985 111.271L102.139 111.109C104.004 109.191 105.553 108.82 107.406 109.802C108.893 110.599 109.228 112.712 108.476 115.835C107.857 118.403 106.515 121.466 105.126 123.762C104.675 124.51 101.254 126.168 96.2062 127.997C90.8488 129.938 84.1614 131.923 77.6444 133.473C61.7428 137.255 49.828 137.841 46.984 134.29L46.5136 133.698C42.945 129.182 41.1591 126.368 40.4511 123.964C39.6661 121.298 40.2879 119.165 42.5835 116.907C44.4152 115.117 46.7536 114.941 49.521 116.141C50.1368 116.408 50.7402 115.742 50.4116 115.158C46.2036 107.679 45.7698 104.544 48.7806 102.593C51.5107 100.81 56.3805 104.854 60.3075 110.938C60.7435 111.613 61.7903 111.142 61.5711 110.369C58.4594 99.3923 58.7416 95.5516 63.1146 94.0198C65.1938 93.2894 67.3661 94.5624 69.4989 97.5339C71.2499 99.9734 72.8329 103.419 73.7992 106.569C74.0192 107.286 75.0633 107.201 75.1638 106.458C76.5342 96.3262 78.358 93.0848 82.8126 93.3588Z" fill="#FE7624"/>
<path fill-rule="evenodd" clip-rule="evenodd" d="M108.132 123.936L108.179 123.797L40.9701 124.006L41.0168 124.146C37.4427 124.845 34.8963 128.248 35.4804 132L40.5029 164.347L108.623 164.138L113.645 131.79C114.252 128.061 111.706 124.636 108.132 123.936Z" fill="#FFC29E"/>
<path fill-rule="evenodd" clip-rule="evenodd" d="M218.207 112.284C217.156 112.284 216.105 112.354 215.077 112.47C209.494 104.78 203.093 98.2543 196.365 94.1059C178.845 83.339 154.783 86.4153 132.334 94.7119C116.892 100.398 97.3394 118.763 84.7947 131.767C68.4422 133.002 55.8742 144.095 56.6217 156.797C56.7853 159.57 57.5795 162.18 58.8644 164.581L113.739 164.953C113.832 164.814 113.925 164.65 114.019 164.511L195.407 164.231C195.501 164.348 195.594 164.464 195.688 164.604L240.75 164.534C244.932 159.011 247.432 151.949 247.432 144.235C247.432 126.57 234.35 112.284 218.207 112.284Z" fill="#24348C"/>
<path fill-rule="evenodd" clip-rule="evenodd" d="M197.977 95.1547C177.256 107.972 158.661 108.252 146.607 106.178C135.441 104.267 127.381 99.9788 124.765 98.3009C124.321 98.5572 123.877 98.8136 123.41 99.0699C125.559 100.538 133.969 105.386 146.116 107.506C150.088 108.206 154.082 108.555 158.1 108.555C162.189 108.555 166.277 108.206 170.341 107.483C180.176 105.735 189.871 101.89 199.215 96.0403C198.795 95.714 198.398 95.4344 197.977 95.1547Z" fill="white"/>
<path fill-rule="evenodd" clip-rule="evenodd" d="M195.828 117.178C199.122 112.564 203.186 109.977 207.929 109.464C210.125 109.231 211.97 109.534 213.068 109.79C212.624 109.231 212.18 108.672 211.736 108.136C210.662 107.996 209.33 107.926 207.859 108.089C204.284 108.462 199.098 110.186 194.683 116.386C194.45 116.689 194.543 117.131 194.847 117.364C194.964 117.458 195.104 117.504 195.244 117.504C195.477 117.481 195.688 117.388 195.828 117.178Z" fill="white"/>
<path fill-rule="evenodd" clip-rule="evenodd" d="M196.085 133.561C196.482 133.561 196.786 133.259 196.809 132.886C196.856 130.835 197.673 126.174 200.547 121.792C203.864 116.689 208.77 113.566 215.077 112.447C214.773 112.028 214.47 111.608 214.143 111.189C207.835 112.47 202.743 115.85 199.355 121.023C196.529 125.358 195.454 130.112 195.384 132.839C195.384 133.235 195.688 133.561 196.085 133.561Z" fill="white"/>
<path fill-rule="evenodd" clip-rule="evenodd" d="M97.1057 126.686C94.1389 126.57 91.2889 126.85 89.1865 127.292C88.4856 127.992 87.7848 128.691 87.1074 129.39C89.7004 127.968 104.464 126.197 110.561 133.119C110.702 133.282 110.889 133.352 111.099 133.352C111.262 133.352 111.426 133.305 111.566 133.189C111.846 132.932 111.893 132.489 111.636 132.21C107.688 127.712 100.843 126.826 97.1057 126.686Z" fill="white"/>
<path fill-rule="evenodd" clip-rule="evenodd" d="M84.3275 131.814C84.3275 131.814 84.3508 131.814 84.3742 131.814C84.3508 131.79 84.3275 131.814 84.3275 131.814C84.3275 131.814 84.3041 131.814 84.3275 131.814Z" fill="white"/>
<path fill-rule="evenodd" clip-rule="evenodd" d="M109.113 136.684C100.867 130.462 90.5881 130.089 86.243 130.275C85.7524 130.788 85.2619 131.278 84.7946 131.767C87.2942 131.557 99.2316 130.998 108.272 137.803C108.389 137.896 108.552 137.943 108.693 137.943C108.903 137.943 109.113 137.85 109.253 137.663C109.487 137.36 109.417 136.917 109.113 136.684Z" fill="white"/>
<path fill-rule="evenodd" clip-rule="evenodd" d="M73.4882 164.371C73.4882 164.371 81.1505 141.765 102.712 145.867C124.274 149.968 153.779 158.778 153.779 158.778V164.441L73.4882 164.371Z" fill="white"/>
<path fill-rule="evenodd" clip-rule="evenodd" d="M87.8333 146.797C84.1681 148.503 81.0266 151.133 78.3729 154.432C76.6668 156.553 75.2638 158.823 74.1422 161.093C73.7493 161.888 73.4193 162.627 73.1497 163.292L73.0355 163.579C73 163.67 72.9671 163.755 72.9368 163.836L72.8461 164.084C72.837 164.11 72.8297 164.131 72.8242 164.147C72.6707 164.6 73.0081 165.07 73.4875 165.07L153.778 165.14C154.165 165.14 154.479 164.827 154.479 164.441V158.778C154.479 158.469 154.276 158.196 153.98 158.108L153.047 157.832L151.787 157.463C150.03 156.951 148.043 156.381 145.866 155.766C139.648 154.011 133.159 152.255 126.722 150.617C123.487 149.793 120.341 149.019 117.308 148.303L116.457 148.102C111.514 146.944 106.951 145.961 102.844 145.18C97.2554 144.117 92.2553 144.738 87.8333 146.797ZM102.581 146.553C106.901 147.375 111.732 148.422 116.985 149.663C120.01 150.378 123.148 151.15 126.376 151.972C132.462 153.521 138.596 155.175 144.502 156.835L145.485 157.112C147.46 157.669 149.278 158.191 150.91 158.665L153.078 159.299V163.741L74.5081 163.673L74.5719 163.519C74.8049 162.963 75.0803 162.357 75.3995 161.711C76.4784 159.527 77.8286 157.343 79.4661 155.307C81.9935 152.165 84.9715 149.672 88.4261 148.064C92.5811 146.13 97.282 145.545 102.581 146.553Z" fill="#2E186A"/>
<path fill-rule="evenodd" clip-rule="evenodd" d="M243.741 80.8687C243.741 80.8687 242.012 80.0064 241.802 78.0254C241.591 76.0445 242.923 67.4216 245.072 66.2098C247.245 64.9979 257.126 59.661 258.948 59.7776C260.771 59.8941 261.518 75.7182 243.741 80.8687Z" fill="white"/>
<path fill-rule="evenodd" clip-rule="evenodd" d="M244.792 67.1653C248.483 54.2776 251.496 51.3877 253.248 52.6462C254.837 53.7881 251.613 61.9915 250.679 66.2564" fill="white"/>
<path fill-rule="evenodd" clip-rule="evenodd" d="M249.162 54.2169L249.275 54.0479C250.769 51.8586 252.32 51.1179 253.658 52.079C254.447 52.6461 254.532 53.818 254.217 55.681L254.17 55.9438C253.959 57.0963 253.612 58.4421 253.045 60.399L252.117 63.5569C251.683 65.0486 251.538 65.608 251.363 66.4057C251.281 66.7829 250.907 67.0219 250.529 66.9394C250.151 66.857 249.911 66.4843 249.994 66.1071L250.06 65.8098C250.211 65.1473 250.365 64.5662 250.719 63.3467L251.653 60.1651C252.278 58.0202 252.636 56.6214 252.834 55.4481L252.863 55.2711C253.053 54.0547 252.993 53.3246 252.839 53.2136C252.301 52.8276 251.483 53.2397 250.333 54.985L250.229 55.1453C248.753 57.458 247.14 61.5108 245.466 67.3574C245.359 67.7286 244.971 67.9436 244.599 67.8375C244.227 67.7315 244.012 67.3445 244.118 66.9732L244.238 66.5549C245.945 60.6716 247.6 56.5866 249.162 54.2169Z" fill="#2E186A"/>
<path fill-rule="evenodd" clip-rule="evenodd" d="M261.074 64.3687C262.92 61.3623 265.98 61.5254 264.391 66.6293C262.826 71.6165 261.682 78.0954 258.761 81.0318C255.841 83.9682 254.79 85.2733 254.79 85.2733C254.79 85.2733 248.95 107.017 245.633 125.102C240.844 151.25 231.78 156.284 223.323 153.278C214.867 150.295 213.302 138.456 224.842 115.5C236.382 92.5212 242.479 79.1441 242.479 79.1441" fill="white"/>
<path fill-rule="evenodd" clip-rule="evenodd" d="M260.477 64.0035C261.524 62.297 263.048 61.3397 264.27 61.8043C265.616 62.3157 265.878 64.1395 265.092 66.7339L264.923 67.2837C264.72 67.9484 264.512 68.677 264.237 69.6715L263.729 71.5111C262.244 76.855 261.145 79.5926 259.319 81.4635L258.86 81.9273C257.905 82.8948 257.109 83.7305 256.459 84.4394L256.201 84.7224C255.93 85.0211 255.709 85.2725 255.533 85.4778L255.428 85.601L255.059 86.9984L254.727 88.2672C254.406 89.5044 254.058 90.8595 253.69 92.3157C252.356 97.5859 251.022 103.1 249.778 108.587L249.509 109.779C248.931 112.35 248.388 114.855 247.884 117.277L247.682 118.256C247.249 120.364 246.85 122.394 246.487 124.337L246.322 125.227C244.038 137.702 240.673 146.041 236.363 150.602C232.509 154.682 227.959 155.668 223.09 153.937C218.411 152.286 215.889 148.166 215.883 141.879C215.877 135.335 218.567 126.492 224.048 115.52L225.126 113.372C229.49 104.656 233.344 96.7824 236.674 89.8298L237.969 87.1163C238.769 85.4347 239.494 83.8975 240.145 82.5085L241.169 80.3129L241.841 78.8547C242.001 78.5032 242.417 78.3478 242.769 78.5076C243.109 78.6617 243.266 79.0527 243.133 79.3956L243.045 79.5906L242.317 81.1675L241.317 83.3101C240.558 84.9273 239.701 86.7404 238.746 88.7432L237.766 90.7932C234.241 98.1466 230.137 106.518 225.468 115.813C214.868 136.899 214.88 149.558 223.559 152.619C227.917 154.168 231.879 153.31 235.343 149.643C239.391 145.359 242.637 137.371 244.876 125.342L244.943 124.976C245.405 122.459 245.93 119.792 246.512 116.993C247.095 114.19 247.731 111.277 248.411 108.279C249.589 103.085 250.846 97.868 252.108 92.8558L252.622 90.828C252.86 89.892 253.089 89.003 253.306 88.1658L253.741 86.4971L254.113 85.0924C254.138 84.9986 254.183 84.911 254.244 84.8354L254.34 84.719L254.467 84.5692C254.652 84.354 254.882 84.093 255.161 83.785L255.515 83.3976C256.251 82.5976 257.163 81.647 258.264 80.5394L258.37 80.4301C259.867 78.8613 260.882 76.4137 262.192 71.8029L263.031 68.7751C263.264 67.9428 263.451 67.3001 263.638 66.6932L263.722 66.4219C264.353 64.394 264.203 63.275 263.771 63.111C263.34 62.9471 262.41 63.5313 261.672 64.7338C261.47 65.0631 261.038 65.1665 260.708 64.9649C260.378 64.7632 260.274 64.3328 260.477 64.0035Z" fill="#2E186A"/>
<path fill-rule="evenodd" clip-rule="evenodd" d="M242.689 79.5403C241.007 78.3983 241.218 71.8263 239.325 68.9598C236.989 65.3941 234.7 61.6886 239.022 62.2479C242.736 62.714 243.904 65.9767 244.768 67.142" fill="white"/>
<path fill-rule="evenodd" clip-rule="evenodd" d="M235.997 64.2254C235.511 62.2738 236.652 61.2361 239.109 61.5542C241.172 61.8131 242.666 62.8313 243.876 64.4564L243.932 64.5338C244.374 65.1506 245.215 66.5562 245.326 66.7172L245.332 66.7261C245.562 67.0365 245.497 67.4743 245.185 67.704C244.874 67.9337 244.435 67.8682 244.205 67.5578L244.181 67.5239C243.982 67.2295 243.108 65.7701 242.751 65.2901C241.752 63.9481 240.577 63.1478 238.932 62.9412C238.073 62.8301 237.573 62.909 237.39 63.0758C237.281 63.1744 237.245 63.4034 237.343 63.8292L237.357 63.8884C237.6 64.8649 238.302 66.1144 239.832 68.4553L239.911 68.5752C240.626 69.6593 241.067 71.0936 241.516 73.3873L241.607 73.8606L241.881 75.3398C242.309 77.5958 242.642 78.6352 243.062 78.947L243.084 78.9623C243.404 79.1795 243.487 79.6144 243.269 79.9336C243.051 80.2528 242.615 80.3355 242.295 80.1183C241.419 79.5232 241.042 78.4231 240.53 75.7367L240.214 74.037L240.169 73.7994C239.752 71.642 239.354 70.3064 238.777 69.4007L238.343 68.7336C236.932 66.5502 236.273 65.3366 235.997 64.2254Z" fill="#2E186A"/>
<path fill-rule="evenodd" clip-rule="evenodd" d="M258.925 69.822C258.925 69.822 262.219 61.8517 263.317 58.1462C264.532 54.1144 260.28 53.5318 258.224 59.3348" fill="white"/>
<path fill-rule="evenodd" clip-rule="evenodd" d="M261.952 54.3548C263.774 54.2366 264.661 56.0068 264.011 58.268L263.989 58.3444C263.653 59.4771 263.103 61.0508 262.385 62.9631L262.257 63.3041C262.157 63.5669 262.055 63.8344 261.951 64.1065C261.496 65.2952 261.012 66.525 260.525 67.7409L260.126 68.7322L259.713 69.7487L259.573 70.0886C259.425 70.4455 259.016 70.6156 258.658 70.4684C258.313 70.3265 258.142 69.9414 258.263 69.594L258.827 68.2087C258.888 68.0569 258.951 67.9005 259.016 67.7398C259.501 66.535 259.986 65.3085 260.446 64.1161L260.745 63.3388L260.945 62.8109C261.693 60.8303 262.269 59.1997 262.616 58.0429L262.646 57.945C263.093 56.4598 262.724 55.7059 262.042 55.7501C261.033 55.8156 259.733 57.1732 258.885 59.5677C258.756 59.9318 258.356 60.1226 257.991 59.994C257.626 59.8653 257.435 59.4659 257.563 59.1018C258.579 56.2359 260.276 54.4634 261.952 54.3548Z" fill="#2E186A"/>
<path fill-rule="evenodd" clip-rule="evenodd" d="M255.047 67.7246C255.047 67.7246 261.518 53.1123 258.621 51.8072C255.982 50.6187 253.973 55.9555 250.655 66.2564" fill="white"/>
<path fill-rule="evenodd" clip-rule="evenodd" d="M254.365 54.2151C255.771 51.5042 257.199 50.3997 258.91 51.17C260.669 51.9627 260.335 54.989 258.762 59.9311C258.495 60.7704 258.194 61.6467 257.866 62.5496C257.443 63.7152 256.993 64.8742 256.54 65.9852L256.37 66.3995C256.212 66.784 256.063 67.1375 255.927 67.455L255.688 68.0071C255.532 68.3603 255.118 68.5201 254.764 68.3641C254.41 68.2081 254.25 67.7952 254.406 67.442L254.589 67.0217L254.74 66.6656C254.845 66.4182 254.957 66.1513 255.074 65.8671C255.577 64.6489 256.08 63.3643 256.548 62.0733C256.87 61.1871 257.165 60.3283 257.426 59.5078L257.541 59.1433C258.72 55.3338 258.985 52.7383 258.333 52.4445C257.522 52.0793 256.658 52.7779 255.518 55.0374L255.388 55.3011C254.339 57.4505 253.217 60.5881 251.323 66.4702C251.204 66.8378 250.809 67.0401 250.441 66.922C250.072 66.8039 249.87 66.4101 249.988 66.0425L250.395 64.7839C252.127 59.458 253.19 56.5601 254.232 54.4768L254.365 54.2151Z" fill="#2E186A"/>
<path fill-rule="evenodd" clip-rule="evenodd" d="M149.293 78.3517L150.205 94.8284C150.205 94.8284 148.663 103.731 161.044 102.076C173.378 100.445 171.86 93.1504 171.86 93.1504L168.052 72.6885L149.293 78.3517Z" fill="white"/>
<path fill-rule="evenodd" clip-rule="evenodd" d="M167.849 72.0194L149.09 77.6825C148.781 77.7759 148.576 78.0682 148.594 78.3902L149.501 94.7944L149.491 94.8691C149.486 94.91 149.481 94.9561 149.476 95.0071C149.361 96.191 149.495 97.5406 150.077 98.8403C151.5 102.014 155.045 103.583 161.137 102.769C166.109 102.112 169.343 100.503 171.117 98.1997C172.406 96.5255 172.756 94.7652 172.586 93.2724L172.574 93.1777C172.566 93.1196 172.558 93.0716 172.551 93.0342L168.741 72.5609C168.665 72.1513 168.249 71.8987 167.849 72.0194ZM150.023 78.8616L167.506 73.5837L171.177 93.314C171.182 93.3424 171.187 93.3801 171.193 93.4305C171.326 94.5919 171.046 95.9958 170.005 97.3479C168.479 99.3304 165.582 100.771 160.952 101.383C155.431 102.121 152.503 100.825 151.357 98.2694C150.888 97.2245 150.778 96.1054 150.871 95.142L150.882 95.0436C150.887 94.9972 150.892 94.9647 150.895 94.9474L150.902 94.8952C150.906 94.8602 150.906 94.825 150.904 94.7899L150.023 78.8616Z" fill="#2E186A"/>
<path fill-rule="evenodd" clip-rule="evenodd" d="M172.794 51.9004C172.794 51.9004 182.372 48.3114 182.746 58.2627C183.12 68.214 172.794 65.6271 172.794 65.6271" fill="white"/>
<path fill-rule="evenodd" clip-rule="evenodd" d="M173.722 50.9049C175.106 50.5786 176.533 50.4616 177.888 50.682C181.19 51.2187 183.273 53.6281 183.446 58.2365C183.625 63.0017 181.499 65.6101 177.925 66.3903C176.47 66.7079 174.938 66.6893 173.49 66.4697L173.264 66.4335C172.979 66.3856 172.761 66.3396 172.624 66.3052C172.248 66.2112 172.02 65.8313 172.115 65.4568C172.205 65.0957 172.563 64.8714 172.925 64.9402L173.077 64.9745L173.149 64.9897C173.31 65.0227 173.495 65.056 173.701 65.0872C174.993 65.2833 176.363 65.3 177.625 65.0243C180.55 64.3859 182.199 62.3633 182.046 58.2889L182.035 58.0521C181.832 54.2649 180.246 52.4819 177.663 52.0621C176.516 51.8756 175.263 51.9782 174.044 52.2657C173.808 52.3214 173.59 52.3803 173.394 52.4394L173.298 52.469C173.226 52.4914 173.168 52.5107 173.122 52.5261L173.041 52.5549C172.678 52.6907 172.274 52.5077 172.138 52.1463C172.002 51.7848 172.186 51.3817 172.548 51.2459L172.638 51.2131C172.881 51.1275 173.252 51.0156 173.722 50.9049Z" fill="#2E186A"/>
<path fill-rule="evenodd" clip-rule="evenodd" d="M154.83 83.3623C144.458 83.3623 136.048 74.9725 136.048 64.625V48.2648C136.048 41.6462 141.444 36.2627 148.079 36.2627H164.525C169.547 36.2627 173.635 40.3411 173.635 45.3517V64.6017C173.635 74.9492 165.225 83.3623 154.83 83.3623Z" fill="white"/>
<path fill-rule="evenodd" clip-rule="evenodd" d="M164.525 35.5636H148.079C141.057 35.5636 135.347 41.2601 135.347 48.2648V64.625C135.347 75.3586 144.071 84.0615 154.83 84.0615L155.147 84.0589C165.791 83.8866 174.336 75.2233 174.336 64.6017V45.3517C174.336 39.955 169.934 35.5636 164.525 35.5636ZM148.079 36.9619H164.525C169.16 36.9619 172.934 40.7272 172.934 45.3517V64.6017C172.934 74.4598 165.003 82.5009 155.13 82.6607L154.824 82.6632C144.845 82.6631 136.749 74.5863 136.749 64.625V48.2648C136.749 42.0323 141.831 36.9619 148.079 36.9619Z" fill="#2E186A"/>
<path fill-rule="evenodd" clip-rule="evenodd" d="M178.004 73.4809C177.98 67.1186 177.093 62.4809 176.859 61.3157C176.859 61.2458 176.882 61.1525 176.882 61.0826C176.882 59.6144 175.691 58.4258 174.219 58.4258V61.0826L174.289 63.7394C174.85 63.7161 175.364 63.5297 175.784 63.2267C176.649 68.5869 178.354 84.5742 171.159 98.161C169.851 100.655 168.613 102.962 167.398 105.176C160.623 117.784 156.138 126.127 156.255 133.561C156.255 133.934 156.582 134.261 156.956 134.261C157.353 134.261 157.657 133.934 157.657 133.561C157.563 126.477 161.978 118.273 168.636 105.852C169.828 103.614 171.066 101.331 172.397 98.8136C177.093 89.9343 178.05 80.1462 178.004 73.4809Z" fill="#FE7624"/>
<path fill-rule="evenodd" clip-rule="evenodd" d="M134.226 64.0424C134.553 64.2288 134.903 64.3453 135.3 64.3687V59.0784C134.062 59.1949 133.081 60.1271 132.918 61.339C132.848 61.4555 132.801 61.5953 132.801 61.7352C132.801 62.8072 132.801 87.9068 140.276 99.2331C147.915 110.839 150.275 117.458 150.812 128.691C150.835 129.064 151.139 129.367 151.513 129.367H151.536C151.933 129.343 152.214 129.017 152.214 128.644C151.676 117.085 149.27 110.326 141.444 98.464C135.464 89.4216 134.413 70.5911 134.226 64.0424Z" fill="#FE7624"/>
<path fill-rule="evenodd" clip-rule="evenodd" d="M149.071 52.6696C149.444 52.6633 149.754 52.9491 149.782 53.3157L149.784 53.3568L150.036 68.1518L150.047 68.156C150.097 68.1724 150.154 68.1688 150.231 68.1404L150.265 68.1267C150.626 67.9729 151.1 67.4527 151.645 66.4573C151.831 66.1184 152.256 65.9937 152.596 66.1788C152.936 66.3638 153.061 66.7886 152.875 67.1275C151.595 69.4666 150.217 70.0546 149.117 69.2248C148.953 69.1016 148.838 68.9748 148.765 68.8696C148.695 68.77 148.653 68.6543 148.642 68.534L148.639 68.4822L148.382 53.3805C148.376 52.9944 148.684 52.6762 149.071 52.6696Z" fill="#2E186A"/>
<path fill-rule="evenodd" clip-rule="evenodd" d="M156.455 70.3556C156.846 70.1004 157.373 70.2911 157.509 70.7369L157.526 70.7947C157.543 70.8592 157.562 70.9442 157.58 71.0473C157.724 71.8667 157.646 72.7731 157.176 73.641C156.394 75.0871 154.703 76.0298 151.979 76.2975C151.593 76.3353 151.25 76.0545 151.212 75.6702C151.174 75.2859 151.456 74.9437 151.841 74.9059C154.135 74.6805 155.404 73.9733 155.943 72.9767C156.076 72.731 156.16 72.4762 156.204 72.2219L156.219 72.1232L156.198 72.1348C153.152 73.7715 150.108 73.8807 148.6 72.1975L148.55 72.1401C148.299 71.8463 148.334 71.4051 148.628 71.1545C148.923 70.9039 149.365 70.9389 149.616 71.2327C150.701 72.5009 153.57 72.239 156.455 70.3556Z" fill="#2E186A"/>
<path fill-rule="evenodd" clip-rule="evenodd" d="M155.453 47.215C156.982 46.0547 158.798 45.9308 160.756 47.4846C161.059 47.725 161.109 48.1648 160.868 48.467C160.627 48.7692 160.186 48.8193 159.883 48.579C158.466 47.4545 157.352 47.5306 156.302 48.328C156.16 48.4358 156.033 48.5462 155.896 48.6773L155.638 48.931C155.602 48.9657 155.572 48.9935 155.539 49.02C155.448 49.0931 155.37 49.1422 155.233 49.1762C154.858 49.2698 154.477 49.0421 154.384 48.6675C154.313 48.3865 154.424 48.1028 154.642 47.9389L154.673 47.9171L154.826 47.765C155.036 47.5577 155.227 47.3867 155.453 47.215Z" fill="#2E186A"/>
<path fill-rule="evenodd" clip-rule="evenodd" d="M160.32 59.6144C160.965 59.6144 161.488 58.811 161.488 57.8199C161.488 56.8288 160.965 56.0254 160.32 56.0254C159.675 56.0254 159.152 56.8288 159.152 57.8199C159.152 58.811 159.675 59.6144 160.32 59.6144Z" fill="#2E186A"/>
<path fill-rule="evenodd" clip-rule="evenodd" d="M143.336 60.0572C143.982 60.0572 144.505 59.2538 144.505 58.2627C144.505 57.2716 143.982 56.4682 143.336 56.4682C142.691 56.4682 142.168 57.2716 142.168 58.2627C142.168 59.2538 142.691 60.0572 143.336 60.0572Z" fill="#2E186A"/>
<path fill-rule="evenodd" clip-rule="evenodd" d="M140.079 46.9943C141.828 45.6022 143.746 45.5367 145.431 47.6955C145.669 48.0002 145.614 48.4395 145.309 48.6767C145.003 48.9139 144.563 48.8592 144.325 48.5545C143.188 47.0972 142.153 47.1326 140.953 48.0875C140.791 48.2167 140.644 48.3486 140.482 48.5068L140.206 48.781C140.169 48.8171 140.138 48.8457 140.106 48.8723C140.01 48.9518 139.936 49.0005 139.792 49.0363C139.417 49.13 139.036 48.9022 138.942 48.5276C138.872 48.2467 138.983 47.9629 139.201 47.7991L139.228 47.7799L139.408 47.5995C139.638 47.37 139.842 47.1829 140.079 46.9943Z" fill="#2E186A"/>
<path fill-rule="evenodd" clip-rule="evenodd" d="M159.525 32.1843C154.97 32.2542 151.513 32.464 149.457 32.8602C132.731 36.6589 135.441 49.0106 135.441 49.0106C135.441 49.0106 143.617 50.572 150.275 40.7373C150.275 40.7373 159.409 48.1716 172.934 51.178C173.145 51.1314 173.402 51.0614 173.635 50.9915V51.6674C174.429 51.4576 175.714 51.2246 177.046 51.3178C176.906 46.447 176.018 40.2945 172 36.3326C169.15 33.5127 164.945 32.1144 159.525 32.1843Z" fill="#2E186A"/>
<path fill-rule="evenodd" clip-rule="evenodd" d="M149.828 31.352C152.493 30.9827 156.689 30.7401 160.304 30.7628C167.524 30.839 172.349 33.4931 175.209 38.174C176.335 40.0168 177.12 42.1142 177.649 44.4672C178.039 46.2042 178.248 47.7959 178.445 50.0452C178.479 50.4299 178.193 50.7689 177.808 50.8024C177.422 50.836 177.082 50.5513 177.049 50.1666L177.011 49.7483C176.575 45.0529 175.828 41.8741 174.012 38.9017C171.408 34.6389 167.032 32.2322 160.292 32.161L159.88 32.1596C156.429 32.1573 152.515 32.3914 150.021 32.737C149.637 32.7901 149.283 32.5231 149.23 32.1407C149.177 31.7582 149.444 31.4051 149.828 31.352Z" fill="white"/>
<path fill-rule="evenodd" clip-rule="evenodd" d="M203.42 22.0466C197.65 5.59322 181.298 -3.65889 166.884 1.375C155.04 5.5 148.195 18.0148 149.317 31.4619C151.489 31.089 154.9 30.8559 159.525 30.786C165.342 30.7161 169.874 32.2309 173.004 35.3305C177.443 39.7119 178.354 46.3538 178.471 51.5275C180.62 52.1102 182.606 53.858 182.769 58.2627C182.793 58.7055 182.395 62.1313 182.489 62.108C182.489 63.2034 182.723 64.5784 183.54 65.9301C185.152 68.5169 188.423 70.125 193.282 70.6843C193.305 70.6843 193.328 70.6843 193.375 70.6843C193.725 70.6843 194.029 70.428 194.076 70.0784C194.123 69.7055 193.842 69.3559 193.468 69.3093C189.077 68.7966 186.133 67.4216 184.755 65.2076C184.194 64.322 183.984 63.4131 183.914 62.6208C185.105 64.0191 187.184 65.5339 190.478 65.5339C191.273 65.5339 192.137 65.4407 193.071 65.2542C193.445 65.1843 193.702 64.8114 193.609 64.4385C193.539 64.0657 193.165 63.8093 192.791 63.9025C188.539 64.7881 186.18 63.1801 184.942 61.7352C185.9 61.5254 186.834 61.2691 187.768 60.9428C202.159 55.8856 209.167 38.4767 203.42 22.0466Z" fill="#2E186A"/>
<path fill-rule="evenodd" clip-rule="evenodd" d="M161.324 49.0339C156.215 49.0339 152.073 53.1658 152.073 58.2627C152.073 63.3597 156.215 67.4915 161.324 67.4915C166.433 67.4915 170.575 63.3597 170.575 58.2627C170.575 53.1658 166.433 49.0339 161.324 49.0339ZM161.324 50.4322C165.659 50.4322 169.173 53.9381 169.173 58.2627C169.173 62.5874 165.659 66.0932 161.324 66.0932C156.989 66.0932 153.475 62.5874 153.475 58.2627C153.475 53.9381 156.989 50.4322 161.324 50.4322Z" fill="#2E186A"/>
<path fill-rule="evenodd" clip-rule="evenodd" d="M152.587 57.3538C152.974 57.3538 153.288 57.6668 153.288 58.053C153.288 58.4253 152.996 58.7297 152.629 58.7509L152.587 58.7521H147.028C146.64 58.7521 146.327 58.4391 146.327 58.053C146.327 57.6806 146.618 57.3763 146.986 57.355L147.028 57.3538H152.587Z" fill="#2E186A"/>
<path fill-rule="evenodd" clip-rule="evenodd" d="M173.29 50.8024C173.627 50.6124 174.055 50.7309 174.245 51.067C174.429 51.3907 174.325 51.7982 174.017 51.9976L173.98 52.0197L169.144 54.7464C168.807 54.9364 168.38 54.8179 168.189 54.4817C168.006 54.158 168.109 53.7505 168.418 53.5511L168.455 53.5291L173.29 50.8024Z" fill="#2E186A"/>
<path fill-rule="evenodd" clip-rule="evenodd" d="M138.197 49.0339C133.088 49.0339 128.946 53.1658 128.946 58.2627C128.946 63.3597 133.088 67.4915 138.197 67.4915C143.306 67.4915 147.448 63.3597 147.448 58.2627C147.448 53.1658 143.306 49.0339 138.197 49.0339ZM138.197 50.4322C142.532 50.4322 146.046 53.9381 146.046 58.2627C146.046 62.5874 142.532 66.0932 138.197 66.0932C133.862 66.0932 130.348 62.5874 130.348 58.2627C130.348 53.9381 133.862 50.4322 138.197 50.4322Z" fill="#2E186A"/>
<path fill-rule="evenodd" clip-rule="evenodd" d="M196.996 155.631H192.137L189.754 120.371C189.591 117.9 187.441 115.896 184.965 115.896H117.243C114.766 115.896 112.874 117.9 113.061 120.371L115.701 159.407C115.864 161.877 118.014 163.881 120.49 163.881L196.973 163.788C198.374 163.788 199.495 162.646 199.495 161.271V158.172C199.519 156.773 198.398 155.631 196.996 155.631Z" fill="#FF8D7E"/>
<path fill-rule="evenodd" clip-rule="evenodd" d="M155.881 139.225C154.923 138.199 153.639 137.547 152.284 137.29C152.494 136.987 152.634 136.614 152.681 136.218C152.798 134.96 151.886 133.794 150.672 133.608C150.648 133.608 150.625 133.608 150.602 133.608C150.345 132.653 149.854 131.068 149.293 130.392C149.083 130.136 148.686 130.042 148.406 130.205C148.149 130.369 148.102 130.695 148.312 130.951C148.686 131.394 149.13 132.769 149.41 133.818C148.78 134.144 148.336 134.773 148.266 135.566C148.195 136.288 148.476 136.964 148.92 137.453C148.499 137.593 148.102 137.756 147.728 137.989C145.299 139.504 144.995 142.487 147.051 144.701C149.107 146.892 152.774 147.451 155.204 145.936C157.657 144.422 157.96 141.415 155.881 139.225Z" fill="white"/>
<path fill-rule="evenodd" clip-rule="evenodd" d="M154.853 130.275C154.853 130.275 151.349 129.576 150.882 132.489C150.905 132.489 153.662 133.468 154.853 130.275Z" fill="white"/>
<path fill-rule="evenodd" clip-rule="evenodd" d="M285.977 163.881C286.364 163.881 286.677 164.194 286.677 164.58C286.677 164.953 286.386 165.257 286.018 165.278L285.977 165.28H1.1869C0.799852 165.28 0.486084 164.967 0.486084 164.58C0.486084 164.208 0.77784 163.904 1.14573 163.883L1.1869 163.881H285.977Z" fill="#2E186A"/>
</svg>
