<svg width="161" height="125" viewBox="0 0 161 125" fill="none" xmlns="http://www.w3.org/2000/svg">
<path d="M85.9054 124.173L8.57891 124.177L2.94202 79.2273C1.53243 67.9901 9.54846 58.8799 20.8457 58.8799L77.7177 58.877L85.9054 124.173Z" fill="#2E186A"/>
<path d="M90.438 65.0802C89.2822 58.1041 85.3746 44.8384 53.2694 49.5894C40.0272 51.442 38.3976 56.8662 41.3107 62.6864C20.0568 66.8374 10.7999 99.4677 16.3312 114.95C17.905 119.357 19.1709 123.758 23.8499 123.8C28.3853 123.841 31.8132 123.906 34.1439 124C42.1497 124.32 129.814 124.433 129.814 124.433C129.814 124.433 126.697 92.6178 90.438 65.0817V65.0802Z" fill="#FF8D7E"/>
<path d="M51.1987 58.0991L48.6392 61.2189C48.6392 61.2189 66.1365 73.2613 76.539 101.01C83.298 119.04 82.5954 121.005 82.5954 121.005L91.9462 120.885C91.9462 120.885 80.7986 90.9054 82.217 81.6147C83.6354 72.324 78.5456 61.6267 75.989 59.8255C73.4324 58.0243 51.1987 58.0991 51.1987 58.0991Z" fill="white"/>
<path d="M53.0962 49.0605L53.9338 55.0729L51.5884 58.3776C51.5884 58.3776 61.6051 64.1861 72.0619 74.1354C72.0619 74.1354 77.6196 67.1256 76.5899 55.7521L58.0511 50.7312L53.0948 49.0605H53.0962Z" fill="white"/>
<path fill-rule="evenodd" clip-rule="evenodd" d="M52.6611 48.9889C52.696 48.7762 52.8798 48.6201 53.0954 48.6201H53.0968C53.1534 48.6201 53.2077 48.6309 53.2577 48.6505L58.1796 50.3096L76.7055 55.3269C76.8832 55.3751 77.0121 55.5287 77.0287 55.712C77.5509 61.4797 76.4028 66.145 75.1216 69.3708C74.4811 70.9835 73.8071 72.2369 73.2913 73.0897C73.0334 73.5162 72.8148 73.8428 72.6596 74.0642C72.582 74.1749 72.5201 74.2594 72.4771 74.317C72.4556 74.3457 72.4388 74.3678 72.427 74.3831C72.4211 74.3907 72.4165 74.3966 72.4132 74.4009L72.4092 74.4059L72.408 74.4075L72.4076 74.408C72.4074 74.4082 72.4073 74.4084 72.0625 74.135L72.4073 74.4084C72.3305 74.5052 72.2165 74.5653 72.0932 74.574C71.9699 74.5826 71.8487 74.539 71.7592 74.4538C66.5499 69.4973 61.449 65.5713 57.6503 62.8844C55.7513 61.5412 54.1786 60.5083 53.0816 59.8117C52.5331 59.4635 52.1036 59.1994 51.8118 59.0226C51.6659 58.9343 51.5545 58.8677 51.4797 58.8235C51.4424 58.8014 51.4142 58.7848 51.3955 58.7738L51.3747 58.7616L51.3682 58.7579C51.3682 58.7579 51.3682 58.7579 51.3686 58.7573L51.3682 58.7579C51.2612 58.6958 51.1852 58.5916 51.159 58.4707C51.1327 58.3498 51.1585 58.2234 51.2301 58.1225L53.4744 54.9603L52.666 49.1567C52.6539 49.1029 52.6517 49.0461 52.6611 48.9889ZM53.631 49.7051L54.3702 55.0118C54.3857 55.1229 54.3581 55.2357 54.2932 55.3272L52.2237 58.2432C52.238 58.2519 52.2527 58.2607 52.2678 58.2699C52.5646 58.4496 52.9994 58.717 53.5533 59.0688C54.6613 59.7723 56.2463 60.8133 58.1585 62.1659C61.8937 64.8078 66.8806 68.6406 72.0006 73.4702C72.1401 73.2676 72.3244 72.9878 72.5383 72.6343C73.0323 71.8173 73.6834 70.6075 74.3036 69.046C75.5213 65.9802 76.6191 61.5612 76.1783 56.0959L57.9366 51.1556C57.928 51.1532 57.9195 51.1507 57.9111 51.1478L53.631 49.7051Z" fill="#2E186A"/>
<path fill-rule="evenodd" clip-rule="evenodd" d="M61.6532 78.1954C61.9222 78.0148 62.2867 78.0864 62.4674 78.3553L61.9803 78.6825C62.4674 78.3553 62.4674 78.3554 62.4675 78.3556L62.4728 78.3635L62.4882 78.3865C62.5016 78.4066 62.5215 78.4364 62.5474 78.4754C62.5992 78.5535 62.6751 78.6685 62.7724 78.8171C62.9668 79.1142 63.2465 79.5458 63.5882 80.0849C64.2715 81.1629 65.2038 82.6724 66.2002 84.3986C68.1851 87.8377 70.4528 92.1856 71.4891 95.7016C71.5807 96.0124 71.403 96.3386 71.0922 96.4302C70.7813 96.5218 70.4551 96.3441 70.3635 96.0333C69.3697 92.6612 67.1644 88.4166 65.1839 84.9852C64.1975 83.2763 63.274 81.781 62.5971 80.7131C62.2587 80.1793 61.9822 79.7526 61.7905 79.4597C61.6947 79.3132 61.6201 79.2003 61.5696 79.1242C61.5443 79.0861 61.5251 79.0572 61.5123 79.038L61.4978 79.0164L61.4933 79.0096C61.4933 79.0096 61.4933 79.0096 61.7884 78.8114L61.4933 79.0096C61.3126 78.7407 61.3842 78.3761 61.6532 78.1954Z" fill="#2E186A"/>
<path fill-rule="evenodd" clip-rule="evenodd" d="M84.8947 79.4496C85.2185 79.4615 85.4713 79.7337 85.4594 80.0575L84.8731 80.0359C85.4594 80.0575 85.4594 80.0575 85.4594 80.0575L85.4592 80.0633L85.4586 80.0829C85.458 80.1004 85.4572 80.1269 85.4561 80.162C85.4541 80.2322 85.4514 80.3367 85.4487 80.4726C85.4432 80.7444 85.4377 81.1414 85.4376 81.6398C85.4374 82.6368 85.4587 84.0381 85.5452 85.6527C85.7185 88.8912 86.1518 92.95 87.1798 96.3238C87.2743 96.6338 87.0996 96.9616 86.7896 97.0561C86.4796 97.1505 86.1518 96.9758 86.0574 96.6659C84.9879 93.156 84.5484 88.9854 84.3734 85.7154C84.2856 84.0757 84.2639 82.6529 84.2642 81.6395C84.2643 81.1327 84.2699 80.7278 84.2755 80.449C84.2783 80.3096 84.2811 80.2017 84.2832 80.1283C84.2843 80.0916 84.2851 80.0635 84.2858 80.0444L84.2865 80.0225L84.2868 80.0146C84.2868 80.0145 84.2868 80.0144 84.8714 80.0359L84.2868 80.0144C84.2987 79.6906 84.5708 79.4377 84.8947 79.4496Z" fill="#2E186A"/>
<path d="M90.4437 65.1162C90.5464 65.7411 90.6285 66.316 90.7063 66.8221C91.6069 72.6629 89.2336 76.3944 87.9648 79.0816C91.3854 76.6628 93.6927 72.0586 94.8602 68.5485C93.4521 67.4235 91.9707 66.2544 90.4437 65.1162Z" fill="#2E186A"/>
<path d="M41.3008 62.666C38.907 63.1545 35.3251 64.1064 32.4897 66.069C34.8689 67.3656 48.5438 75.5811 56.8488 78.3284C51.9204 74.924 44.2534 68.5875 41.2993 62.666H41.3008Z" fill="#2E186A"/>
<path d="M48.1076 39.0663C48.1076 39.0663 42.6643 40.5405 44.8689 45.1902C47.072 49.8399 52.4082 45.4982 52.4082 45.4982L49.8589 38.7422L48.109 39.0663H48.1076Z" fill="white" stroke="#2E186A" stroke-width="6" stroke-linecap="round" stroke-linejoin="round"/>
<path d="M59.829 19.7403C61.2401 19.2607 70.962 16.1687 74.1038 24.1378C77.2457 32.1069 78.3546 41.4943 78.4807 45.8771C78.6054 50.2599 59.2188 53.0659 58.0556 52.9632C56.8939 52.8605 55.3039 51.9262 55.3039 51.9262L49.5468 39.9219C49.5468 39.9219 44.6667 24.9005 59.829 19.7418V19.7403Z" fill="white"/>
<path fill-rule="evenodd" clip-rule="evenodd" d="M60.0035 20.1456C59.993 20.1501 59.9823 20.1542 59.9713 20.158C56.2525 21.4232 53.789 23.283 52.1726 25.3425C50.5542 27.4044 49.7664 29.6903 49.4376 31.8327C49.1085 33.9771 49.2408 35.9697 49.457 37.4293C49.565 38.1581 49.6935 38.7513 49.7945 39.1606C49.845 39.3652 49.8885 39.5236 49.9191 39.6298C49.9344 39.6829 49.9464 39.723 49.9545 39.7492C49.9556 39.7529 49.9567 39.7563 49.9577 39.7595L55.6415 51.6109C55.679 51.6316 55.725 51.6567 55.7782 51.6851C55.9393 51.771 56.1657 51.8866 56.4267 52.0051C56.9612 52.2478 57.5923 52.48 58.095 52.5245C58.1258 52.5272 58.2343 52.5259 58.4446 52.5096C58.6426 52.4942 58.9043 52.4679 59.2215 52.4305C59.8554 52.3559 60.7014 52.2385 61.6863 52.0807C63.6563 51.7651 66.1722 51.2893 68.6456 50.6747C71.1243 50.0589 73.5376 49.3091 75.3148 48.4511C76.2049 48.0213 76.9105 47.5761 77.3836 47.1252C77.8584 46.6727 78.052 46.2618 78.0415 45.8894C77.9163 41.5398 76.8126 32.2063 73.695 24.2987C72.2076 20.5259 69.1852 19.367 66.294 19.2097C63.4248 19.0536 60.7448 19.8954 60.0035 20.1456ZM55.3045 51.9258L55.0816 52.3051C55.0061 52.2608 54.9456 52.195 54.9078 52.1161L49.1506 40.1118C49.1421 40.0942 49.1349 40.076 49.1288 40.0575L49.5474 39.9215C49.1288 40.0575 49.1288 40.0572 49.1287 40.0569L49.1274 40.0531L49.1243 40.0432C49.1216 40.0348 49.1179 40.0228 49.1131 40.0074C49.1036 39.9764 49.0901 39.9315 49.0734 39.8733C49.0399 39.757 48.9934 39.5876 48.94 39.3714C48.8334 38.9391 48.6991 38.3184 48.5865 37.5583C48.3615 36.0402 48.2215 33.955 48.5677 31.6992C48.9142 29.4414 49.7492 27.0047 51.4803 24.7992C53.2082 22.5976 55.8106 20.65 59.6548 19.336C59.6656 19.3314 59.6767 19.3271 59.688 19.3233C60.4063 19.0791 63.2553 18.163 66.3418 18.331C69.4499 18.5 72.8594 19.7797 74.5138 23.9759C77.6799 32.0066 78.7941 41.4481 78.9212 45.864C78.9418 46.5873 78.5568 47.2229 77.9908 47.7623C77.423 48.3033 76.6253 48.7956 75.6974 49.2436C73.8383 50.1412 71.3556 50.9082 68.8578 51.5288C66.3548 52.1508 63.8137 52.6312 61.8255 52.9497C60.8312 53.109 59.9728 53.2283 59.3244 53.3046C59.0004 53.3427 58.7264 53.3704 58.5127 53.387C58.3114 53.4026 58.1321 53.4112 58.0175 53.4011C57.3585 53.3429 56.6137 53.0566 56.0628 52.8064C55.781 52.6785 55.5374 52.5541 55.364 52.4616C55.2772 52.4153 55.2076 52.3768 55.1593 52.3496C55.1351 52.336 55.1162 52.3252 55.1031 52.3176C55.0965 52.3139 55.0914 52.3109 55.0878 52.3088L55.0835 52.3063L55.0819 52.3053L55.0816 52.3051C55.0815 52.3051 55.0816 52.3051 55.3045 51.9258Z" fill="#2E186A"/>
<path d="M51.3186 39.3633C52.4583 40.0424 56.2177 44.6643 57.4264 46.9554C57.4264 46.9554 62.9767 43.3867 71.6323 41.0897C71.6323 41.0897 76.392 40.0013 78.4221 40.0923C78.4221 40.0923 80.1749 48.8373 77.454 54.2718C74.7331 59.7063 66.3005 60.4866 61.8194 58.7484C57.3384 57.0103 56.3879 55.8853 54.7861 53.226C53.1844 50.5681 48.1709 40.4179 48.1709 40.4179L51.3186 39.3647V39.3633Z" fill="#968BB4"/>
<path d="M49.3064 41.8292C49.3064 41.8292 45.7421 38.4937 43.7165 34.6097C41.8126 30.9574 42.6003 26.4323 45.7612 23.7906C48.4073 21.5801 50.9258 22.1639 50.9258 22.1639C50.9258 22.1639 46.3699 17.523 49.9621 11.5194C51.2279 9.40282 53.3284 7.88616 55.7383 7.35811C61.6348 6.06586 64.6828 10.5616 64.6828 10.5616C64.6828 10.5616 68.0711 -2.52075 82.6232 1.08023C84.0915 1.444 86.0291 2.9944 87.0515 4.10916C93.2516 10.8667 81.5818 23.6293 74.484 26.1829C66.6909 28.9875 61.6788 28.8334 58.6147 27.5221C60.8178 28.1939 61.6568 40.6954 49.305 41.8292H49.3064Z" fill="#2E186A"/>
<path fill-rule="evenodd" clip-rule="evenodd" d="M70.8301 37.1529C71.1334 37.0389 71.4717 37.1924 71.5857 37.4957L74.3345 44.8091C74.4024 44.9898 74.3771 45.1924 74.2668 45.3508C74.1565 45.5092 73.9753 45.6033 73.7823 45.6023L70.9572 45.5876C70.6332 45.5859 70.3719 45.3219 70.3735 44.9978C70.3752 44.6738 70.6393 44.4125 70.9633 44.4142L72.9363 44.4244L70.4873 37.9085C70.3733 37.6052 70.5268 37.2669 70.8301 37.1529Z" fill="#2E186A"/>
<path d="M74.2873 38.3023C74.7133 38.1958 74.9249 37.5749 74.76 36.9156C74.5951 36.2562 74.1162 35.808 73.6902 35.9146C73.2642 36.0211 73.0526 36.6419 73.2175 37.3013C73.3824 37.9607 73.8614 38.4088 74.2873 38.3023Z" fill="#2E186A"/>
<path d="M66.8298 40.0298C67.2557 39.9233 67.4674 39.3025 67.3025 38.6431C67.1376 37.9837 66.6586 37.5356 66.2327 37.6421C65.8067 37.7486 65.5951 38.3695 65.76 39.0288C65.9249 39.6882 66.4038 40.1364 66.8298 40.0298Z" fill="#2E186A"/>
<path d="M61.6631 34.1806C61.6631 34.1806 62.3979 32.2488 64.6803 32.0273" stroke="#2E186A" stroke-linecap="round" stroke-linejoin="round"/>
<path d="M71.7339 30.1281C71.7339 30.1281 73.7346 29.0368 74.7071 30.6517" stroke="#2E186A" stroke-linecap="round" stroke-linejoin="round"/>
<path d="M46.4167 36.9974L39.2506 42.6345C38.1287 43.517 37.9347 45.1419 38.8172 46.2637L51.4953 62.3806C52.3778 63.5024 54.0027 63.6965 55.1245 62.814L62.2906 57.1768C63.4125 56.2943 63.6065 54.6695 62.724 53.5476L50.0459 37.4308C49.1634 36.3089 47.5385 36.1149 46.4167 36.9974Z" fill="#E0840B"/>
<path fill-rule="evenodd" clip-rule="evenodd" d="M39.5229 42.9809C38.592 43.7132 38.431 45.0614 39.1633 45.9922L51.8414 62.1091C52.5736 63.0399 53.9218 63.2009 54.8527 62.4687L62.0188 56.8315C62.9497 56.0993 63.1107 54.7511 62.3784 53.8202L49.7003 37.7034C48.968 36.7725 47.6198 36.6115 46.689 37.3438L39.5229 42.9809ZM38.4715 46.5364C37.4388 45.2235 37.6659 43.322 38.9787 42.2892L46.1448 36.6521C47.4577 35.6193 49.3592 35.8464 50.392 37.1593L63.0701 53.2761C64.1029 54.589 63.8758 56.4905 62.5629 57.5232L55.3968 63.1604C54.084 64.1931 52.1824 63.9661 51.1497 62.6532L38.4715 46.5364Z" fill="white"/>
<path d="M158.522 83.0176H101.492C100.744 83.0176 100.094 83.5324 99.9209 84.2599L91.9928 117.823H71.3198C71.3198 117.823 70.1743 123.74 76.8541 123.74H149.663C150.411 123.74 151.061 123.225 151.234 122.498L160.092 85.0036C160.331 83.9901 159.562 83.019 158.521 83.019L158.522 83.0176Z" fill="#FFC29E"/>
<path d="M38.8945 64.0697L49.9776 70.5133L55.525 57.3972C60.8774 57.4046 60.8539 54.4988 59.7347 54.3976C58.6156 54.2979 53.2324 55.0533 53.2324 55.0533C53.2324 55.0533 53.407 54.6617 57.7751 53.8314C62.1432 53.0012 61.3262 50.5649 60.386 50.4989C59.4458 50.4329 52.4976 52.174 52.4976 52.174L58.4674 50.0427C60.5928 49.368 60.6691 47.3086 59.5573 47.0167C58.8283 46.826 54.9134 48.0068 51.8185 49.0893C51.8185 49.0893 55.5382 47.1825 57.3028 46.0296C59.0674 44.8767 57.8338 43.3732 56.8041 43.4671C55.7744 43.561 48.6076 48.3515 47.2435 49.5381C45.8794 50.7262 38.896 64.0667 38.896 64.0667L38.8945 64.0697Z" fill="white"/>
<path fill-rule="evenodd" clip-rule="evenodd" d="M58.5248 45.2877C58.3665 45.6977 58.0392 46.0738 57.5437 46.3976C57.1563 46.6507 56.6788 46.938 56.1688 47.2328C56.266 47.205 56.3621 47.1779 56.4569 47.1514C57.1903 46.9467 57.8574 46.7796 58.3919 46.6756C58.6586 46.6237 58.8999 46.586 59.1038 46.568C59.2942 46.5511 59.4996 46.5464 59.6688 46.5907L59.6692 46.5908C60.5309 46.817 60.8348 47.7019 60.6554 48.4842C60.5064 49.1338 60.0386 49.7715 59.2453 50.193C59.4148 50.163 59.5718 50.1371 59.7131 50.1162C59.9881 50.0757 60.2449 50.0475 60.417 50.0596C60.8364 50.089 61.1798 50.3707 61.3729 50.7151C61.5724 51.0708 61.6397 51.5325 61.4915 52.0089C61.2527 52.777 60.4992 53.4886 59.0594 53.9597C59.3525 53.9457 59.6004 53.9435 59.774 53.959L59.7745 53.959C60.2667 54.0035 60.6116 54.3606 60.7273 54.7969C60.8424 55.2309 60.7393 55.736 60.4159 56.1923C59.7931 57.0708 58.3645 57.7868 55.8179 57.8344L50.3831 70.6844C50.3338 70.8008 50.2369 70.8904 50.1171 70.9304C49.9972 70.9704 49.8659 70.9569 49.7566 70.8934L38.6735 64.4497C38.4728 64.333 38.3973 64.0805 38.501 63.8728L38.5025 63.8698C38.5037 63.8673 38.505 63.8648 38.5063 63.8623L38.8962 64.0664C38.5063 63.8623 38.5063 63.8623 38.5064 63.8621L38.5265 63.8237C38.5398 63.7984 38.5596 63.7607 38.5854 63.7116C38.637 63.6134 38.7127 63.4693 38.8097 63.2856C39.0035 62.918 39.2819 62.3917 39.6202 61.7565C40.2968 60.4862 41.2134 58.7797 42.1728 57.0355C43.1319 55.2922 44.1356 53.5079 44.9861 52.0835C45.4111 51.3717 45.8003 50.7456 46.1281 50.2578C46.4447 49.7867 46.7333 49.3987 46.9547 49.206L46.9549 49.2058C47.6639 48.5891 49.8224 47.0788 51.9097 45.7234C52.9586 45.0424 54.001 44.3929 54.8488 43.9064C55.2721 43.6635 55.6525 43.458 55.9637 43.309C56.1192 43.2346 56.2628 43.1716 56.3893 43.1247C56.5085 43.0806 56.6407 43.0398 56.7643 43.0285C57.4841 42.9629 58.2208 43.438 58.5063 44.108C58.6563 44.4601 58.6852 44.8721 58.5248 45.2877ZM39.4803 63.9008C39.5125 63.8395 39.5486 63.7711 39.5881 63.6961C39.7815 63.3295 40.0593 62.8043 40.397 62.1702C41.0725 60.9021 41.987 59.1992 42.9439 57.4597C43.9013 55.7195 44.8992 53.9458 45.7417 52.5347C46.1632 51.8288 46.5434 51.2177 46.8586 50.7486C47.185 50.2629 47.4129 49.974 47.5326 49.8697C48.1878 49.2997 50.2946 47.8215 52.389 46.4615C53.4311 45.7849 54.4586 45.145 55.2868 44.6697C55.7015 44.4318 56.0607 44.2383 56.3438 44.1028C56.4855 44.0349 56.6028 43.9842 56.6951 43.95C56.741 43.933 56.7774 43.9213 56.8051 43.9138C56.8303 43.907 56.8424 43.9052 56.8441 43.905C56.8443 43.905 56.8444 43.9049 56.8441 43.905C57.154 43.8767 57.549 44.1064 57.6966 44.4529C57.7631 44.609 57.7761 44.7832 57.7037 44.9708C57.6292 45.164 57.449 45.4082 57.0623 45.6608C56.1972 46.226 54.841 46.9832 53.6901 47.6042C53.1169 47.9135 52.5986 48.1869 52.2235 48.3831C52.036 48.4811 51.8844 48.5598 51.7797 48.6139C51.7274 48.641 51.6869 48.6619 51.6594 48.676L51.618 48.6973C51.618 48.6973 51.6179 48.6974 51.8186 49.089L51.618 48.6973C51.4122 48.8028 51.323 49.0498 51.4142 49.2624C51.5054 49.475 51.7456 49.5807 51.9639 49.5043C53.5054 48.9652 55.2485 48.4025 56.6936 47.9991C57.417 47.7971 58.0586 47.6371 58.56 47.5395C58.8111 47.4906 59.0195 47.4589 59.1813 47.4446C59.262 47.4375 59.3259 47.4352 59.3745 47.4363C59.4245 47.4374 59.4452 47.4419 59.446 47.4421C59.696 47.5079 59.9096 47.7987 59.7976 48.2875C59.6916 48.7494 59.2715 49.3255 58.3344 49.623C58.3317 49.6238 58.329 49.6247 58.3263 49.6256C58.3241 49.6264 58.3219 49.6272 58.3196 49.628L52.3498 51.7592C52.1288 51.8381 52.0086 52.0766 52.0766 52.3012C52.1447 52.5258 52.377 52.6575 52.6047 52.6005L52.4977 52.1736C52.6047 52.6005 52.6047 52.6005 52.6047 52.6005L52.6824 52.5811C52.7333 52.5684 52.8082 52.5498 52.9039 52.5261C53.0952 52.4787 53.3698 52.4111 53.7022 52.3302C54.3672 52.1682 55.2632 51.9531 56.1881 51.7402C57.1138 51.527 58.0651 51.3168 58.8418 51.1642C59.2305 51.0879 59.5714 51.0267 59.8415 50.9869C60.1264 50.9449 60.2924 50.9331 60.3553 50.9375C60.4061 50.9411 60.5173 50.9886 60.6053 51.1456C60.687 51.2912 60.7273 51.5028 60.6511 51.7476C60.5008 52.231 59.8253 52.9935 57.6931 53.3988C55.5018 53.8153 54.3424 54.1253 53.7235 54.337C53.4149 54.4425 53.2258 54.5286 53.1053 54.5993C53.0445 54.635 52.9927 54.6718 52.9495 54.7117C52.9275 54.7321 52.9058 54.7552 52.8859 54.7813C52.8758 54.7945 52.866 54.8087 52.8567 54.824C52.8521 54.8317 52.8476 54.8397 52.8432 54.848C52.841 54.8521 52.8389 54.8564 52.8368 54.8607C52.8358 54.8628 52.8347 54.865 52.8337 54.8672L52.8322 54.8705C52.8314 54.8721 52.8307 54.8738 53.2326 55.0529L52.8307 54.8738C52.7656 55.0199 52.7849 55.1899 52.8811 55.3177C52.9773 55.4454 53.1353 55.5109 53.2938 55.4887L53.2326 55.0529C53.2938 55.4887 53.2937 55.4887 53.2938 55.4887L53.294 55.4887L53.3538 55.4803C53.3933 55.4749 53.4514 55.4668 53.5258 55.4566C53.6747 55.4363 53.8887 55.4072 54.1491 55.3727C54.67 55.3036 55.3757 55.2126 56.1159 55.1247C56.8568 55.0367 57.6292 54.9523 58.2844 54.8961C58.9542 54.8386 59.461 54.8147 59.6956 54.8356C59.763 54.8418 59.8404 54.886 59.8766 55.0224C59.9135 55.1615 59.8977 55.4014 59.6979 55.6833C59.2976 56.2479 58.1473 56.9604 55.5258 56.9568C55.3488 56.9566 55.1889 57.0624 55.1199 57.2255L49.7671 69.8815L39.4803 63.9008Z" fill="#2E186A"/>
<path d="M59.4054 121.591C69.2608 116.255 56.9031 72.4919 56.7315 71.1483C56.3926 68.4978 53.924 68.9481 53.3857 66.9679C52.8474 64.9878 52.2533 64.269 52.2533 64.269C47.1166 65.6376 39.7665 61.7051 39.7665 61.7051C39.7665 61.7051 39.4424 62.2727 38.5975 64.0608C37.7526 65.8488 35.4116 64.734 34.6533 67.232C34.1487 68.8909 31.3735 92.8407 31.3735 92.8407" fill="#FF8D7E"/>
<path fill-rule="evenodd" clip-rule="evenodd" d="M39.7662 61.7067C39.3841 61.4885 39.384 61.4885 39.384 61.4886L39.3834 61.4896L39.3823 61.4915L39.3787 61.498C39.3756 61.5035 39.3712 61.5113 39.3655 61.5216C39.3541 61.5423 39.3373 61.573 39.3147 61.6151C39.2695 61.6992 39.2012 61.8287 39.1066 62.0139C38.9175 62.384 38.6233 62.9771 38.1993 63.8744C37.9041 64.499 37.4075 64.6581 36.6808 64.8909C36.6081 64.9142 36.5331 64.9382 36.4558 64.9635C36.0533 65.0952 35.5984 65.2658 35.1934 65.5937C34.7788 65.9293 34.4443 66.406 34.2319 67.1057C34.1574 67.3509 34.0542 67.9439 33.9321 68.7439C33.8074 69.5615 33.6571 70.6363 33.4914 71.8765C33.16 74.3576 32.7655 77.5088 32.3871 80.6067C32.0085 83.7049 31.6458 86.7511 31.3777 89.0227C31.2436 90.1585 31.1332 91.1007 31.0563 91.759C31.0179 92.0881 30.9878 92.3462 30.9674 92.5221L30.9361 92.7914C30.9361 92.7916 30.9361 92.7917 31.3732 92.8423L30.9361 92.7917C30.9081 93.0331 31.0811 93.2515 31.3225 93.2794C31.5639 93.3074 31.7823 93.1344 31.8103 92.893L31.3732 92.8423C31.8103 92.893 31.8103 92.8929 31.8103 92.8927L31.8416 92.6238C31.862 92.448 31.8921 92.19 31.9305 91.861C32.0073 91.2031 32.1177 90.2612 32.2517 89.1258C32.5197 86.855 32.8823 83.81 33.2606 80.7134C33.639 77.6165 34.033 74.4692 34.3638 71.9931C34.5292 70.7548 34.6786 69.6863 34.8021 68.8766C34.9284 68.0495 35.0223 67.5314 35.0739 67.3616L35.074 67.3614C35.2407 66.8122 35.4832 66.4914 35.7472 66.2777C36.0209 66.0562 36.3462 65.9254 36.7294 65.8C36.8022 65.7762 36.8781 65.7526 36.9563 65.7283C37.6521 65.5121 38.5274 65.2401 38.995 64.2504C39.4159 63.3596 39.7061 62.7749 39.8904 62.4142C39.9123 62.3712 39.9328 62.3313 39.9518 62.2946C40.1639 62.3992 40.456 62.5393 40.8138 62.7008C41.5936 63.0528 42.688 63.5079 43.9464 63.92C46.3478 64.7065 49.4254 65.3634 52.0584 64.7714C52.1051 64.85 52.1613 64.9508 52.2245 65.0759C52.426 65.4748 52.6988 66.1215 52.9607 67.085C53.251 68.1527 54.0361 68.6419 54.6836 69.0454C54.7562 69.0907 54.8271 69.1349 54.8954 69.1787C55.2504 69.4065 55.5563 69.6287 55.7967 69.9309C56.0308 70.2253 56.2194 70.6174 56.2946 71.2057M52.253 64.2706L52.5922 63.9903C52.4826 63.8578 52.3059 63.8012 52.1397 63.8454C49.7013 64.4951 46.6838 63.8905 44.2203 63.0837C42.9991 62.6837 41.9348 62.2413 41.1759 61.8987C40.7968 61.7275 40.4945 61.5816 40.2879 61.4789C40.1845 61.4276 40.1051 61.3871 40.052 61.3596C40.0254 61.3459 40.0054 61.3354 39.9923 61.3285L39.9778 61.3208L39.9744 61.3191L39.9738 61.3187C39.7637 61.2063 39.5022 61.2816 39.384 61.4886L39.7662 61.7067M51.9128 64.5498C51.9122 64.549 51.9118 64.5485 51.9116 64.5483L51.9123 64.5491L51.9128 64.5498Z" fill="#2E186A"/>
<path d="M53.7696 66.7311C53.2078 64.5925 52.9511 63.667 52.9511 63.667C47.502 65.1705 39.3598 61.1016 39.3598 61.1016C39.3598 61.1016 39.0136 61.7176 38.1101 63.6553C37.7463 64.4356 37.1288 64.7069 36.4658 64.9314C38.5208 70.7164 50.7627 71.1902 55.6104 69.2965C54.7054 68.0908 54.1935 68.3519 53.7681 66.7311H53.7696Z" fill="#2E186A"/>
<path fill-rule="evenodd" clip-rule="evenodd" d="M34.9405 90.0595L34.653 89.7264C34.469 89.8852 34.4486 90.1631 34.6074 90.3471C34.7662 90.531 35.044 90.5514 35.2279 90.3927L35.2281 90.3926L35.2285 90.3923L35.2313 90.3899C35.2339 90.3876 35.2382 90.384 35.2439 90.3791C35.2555 90.3694 35.2731 90.3545 35.2966 90.335C35.3436 90.2961 35.414 90.2386 35.5054 90.1662C35.6883 90.0214 35.9551 89.8175 36.2876 89.5833C36.954 89.1138 37.8769 88.5283 38.9115 88.0542C41.0189 87.0885 43.3878 86.6689 45.095 88.2685C45.2723 88.4346 45.5508 88.4256 45.7169 88.2482C45.8831 88.0709 45.8741 87.7924 45.6967 87.6262C43.5638 85.6278 40.7051 86.2642 38.5448 87.2541C37.4456 87.7579 36.4747 88.375 35.7808 88.8638C35.433 89.1087 35.153 89.3227 34.9592 89.4762C34.8622 89.5529 34.7867 89.6146 34.7349 89.6575C34.709 89.679 34.6891 89.6958 34.6753 89.7074C34.6684 89.7132 34.6631 89.7177 34.6594 89.7209L34.655 89.7247L34.6533 89.7262C34.6531 89.7263 34.653 89.7264 34.9405 90.0595Z" fill="#2E186A"/>
<path fill-rule="evenodd" clip-rule="evenodd" d="M0 124.107C0 123.864 0.197012 123.667 0.440038 123.667H160.174C160.417 123.667 160.614 123.864 160.614 124.107C160.614 124.35 160.417 124.547 160.174 124.547H0.440038C0.197012 124.547 0 124.35 0 124.107Z" fill="#2E186A"/>
<path d="M72.2863 49.4674L64.8321 47.5195C64.8321 47.5195 64.2453 51.9536 68.9391 52.9643L72.2863 49.4674Z" fill="#2E186A"/>
</svg>
