<svg width="190" height="123" viewBox="0 0 190 123" fill="none" xmlns="http://www.w3.org/2000/svg">
<path fill-rule="evenodd" clip-rule="evenodd" d="M41.6613 75.8896C41.9558 75.8896 42.1945 76.1268 42.1945 76.4193C42.1945 76.7014 41.9726 76.932 41.6927 76.9481L41.6613 76.949H22.5547V121.829C22.5547 122.112 22.3327 122.342 22.0528 122.358L22.0215 122.359C21.7375 122.359 21.5054 122.139 21.4892 121.861L21.4883 121.829V76.4193C21.4883 76.1372 21.7103 75.9067 21.9902 75.8905L22.0215 75.8896H41.6613Z" fill="#2E186A"/>
<path fill-rule="evenodd" clip-rule="evenodd" d="M171.76 75.8896C172.044 75.8896 172.276 76.1102 172.292 76.3882L172.293 76.4193V121.829C172.293 122.122 172.054 122.359 171.76 122.359C171.476 122.359 171.244 122.139 171.227 121.861L171.227 121.829V76.949H103.349C103.065 76.949 102.833 76.7285 102.817 76.4504L102.816 76.4193C102.816 76.1372 103.038 75.9067 103.318 75.8905L103.349 75.8896H171.76Z" fill="#2E186A"/>
<path fill-rule="evenodd" clip-rule="evenodd" d="M102.02 75.8896C102.315 75.8896 102.554 76.1268 102.554 76.4193C102.554 76.7014 102.332 76.932 102.052 76.9481L102.02 76.949H32.9522C32.6577 76.949 32.4189 76.7118 32.4189 76.4193C32.4189 76.1372 32.6409 75.9067 32.9208 75.8905L32.9522 75.8896H102.02Z" fill="#2E186A"/>
<path fill-rule="evenodd" clip-rule="evenodd" d="M62.4918 55.6386L62.2963 54.7912H62.2785C57.5152 54.7559 60.8033 47.6054 63.3449 44.2861C62.4918 40.6844 61.4076 36.3411 60.59 33.4632C59.1326 28.3608 55.72 27.1072 53.1784 27.8311L49.5526 28.4314L49.286 28.9964L51.0811 28.608C51.2766 28.9611 53.605 33.9576 47.953 35.2465C44.2383 36.0939 39.9548 33.0925 38.0175 30.3735L38.2486 30.3382L35.0315 30.8855C34.8894 30.8679 34.7649 30.8679 34.6405 30.8502C31.4591 30.7796 26.2158 42.2028 24.9717 48.8412C26.6246 48.3116 30.3393 47.7643 35.0671 48.3822C35.2093 48.0997 35.7069 47.2699 36.3823 46.087C36.4534 46.2282 36.5423 46.3518 36.6134 46.4754C37.0044 47.1287 38.3197 49.2826 38.3197 49.2826L57.8707 51.3837L56.982 53.008L54.2804 55.4797L62.4918 55.6386Z" fill="#2E186A"/>
<path fill-rule="evenodd" clip-rule="evenodd" d="M39.0882 17.7869C39.3324 17.6233 39.6638 17.6873 39.8284 17.9299C39.9931 18.1724 39.9287 18.5016 39.6845 18.6651C38.9613 19.1496 38.6997 19.7913 39.0074 20.7718C39.3183 21.7771 39.8547 22.2219 40.5917 22.3033C41.1303 22.3627 41.7186 22.2248 42.2482 21.9955C42.5181 21.8786 42.8323 22.0012 42.95 22.2694C43.0677 22.5375 42.9442 22.8497 42.6743 22.9665C41.9892 23.2632 41.2348 23.4401 40.4739 23.3561C39.3127 23.228 38.4232 22.4902 37.9886 21.0849C37.535 19.6392 37.9903 18.5224 39.0882 17.7869Z" fill="#2E186A"/>
<path fill-rule="evenodd" clip-rule="evenodd" d="M43.0353 23.9554C43.1483 23.6853 43.4604 23.5573 43.7323 23.6696C43.9946 23.7779 44.1237 24.07 44.0313 24.3329L44.0201 24.362L41.6562 30.0118C41.5914 30.1667 41.4568 30.2813 41.2944 30.322L41.2592 30.3296L38.9904 30.7393L39.0332 30.7905C41.2938 33.4652 44.9501 35.3328 47.7595 34.7503L47.8518 34.7302C50.1105 34.2151 51.089 33.0972 51.196 31.5402C51.2356 30.965 51.1505 30.3581 50.9758 29.7607C50.9292 29.6017 50.8781 29.4496 50.8246 29.3077L50.7895 29.217L49.4176 29.5139C48.9985 29.6045 48.653 29.1932 48.8073 28.8039L48.8186 28.7774L49.8672 26.4822C49.9889 26.2158 50.305 26.0979 50.5731 26.2188C50.8317 26.3354 50.9513 26.6315 50.8504 26.8913L50.8383 26.92L50.2285 28.2541L50.9858 28.0904C51.2055 28.0428 51.4302 28.1374 51.5494 28.324L51.5665 28.3527C51.6856 28.5679 51.8634 28.9988 51.9998 29.4651C52.207 30.1734 52.3089 30.9004 52.26 31.6123C52.1206 33.6391 50.8035 35.144 48.0905 35.7626C44.5323 36.5744 40.0203 34.0756 37.6004 30.6795C37.3814 30.3721 37.5468 29.9461 37.9088 29.859L37.9403 29.8523L40.7827 29.3389L43.0353 23.9554Z" fill="#2E186A"/>
<path fill-rule="evenodd" clip-rule="evenodd" d="M44.8822 9.47254C44.6643 9.57694 44.2337 9.78547 44.1713 9.81532L43.9699 9.91074C43.823 9.97952 43.6971 10.0363 43.5809 10.0859L43.4835 10.1267C40.3661 11.4088 39.3217 15.8815 40.9834 20.3513C42.8316 25.3227 47.4562 28.3513 51.8956 26.6471C54.1024 25.7999 55.2147 23.7868 55.4626 21.0607C55.6239 19.2873 55.3862 17.2668 55.0288 16.0032L55.0053 15.9219C53.6572 11.3794 51.8701 9.06353 49.6028 8.53037C48.2046 8.20156 46.9127 8.51914 45.0596 9.3884L44.8822 9.47254ZM53.9821 16.2205C54.3166 17.3558 54.5524 19.2947 54.4005 20.9654C54.1853 23.331 53.2728 24.9827 51.5112 25.6589C47.7094 27.1184 43.6469 24.458 41.9838 19.9843C40.498 15.9878 41.3987 12.1307 43.8915 11.1055L43.9995 11.0602C44.1458 10.9978 44.3027 10.9266 44.4888 10.8388L45.4178 10.3922C47.1207 9.58394 48.2393 9.29835 49.3572 9.56121C51.1568 9.9844 52.7 11.9652 53.9448 16.0956L53.9821 16.2205Z" fill="#2E186A"/>
<path fill-rule="evenodd" clip-rule="evenodd" d="M49.9261 21.6685C50.8325 21.8274 51.5257 21.5802 51.8989 21.386C52.0767 21.2977 52.2722 21.4036 52.3077 21.5978C52.3966 22.1452 52.3788 23.0986 51.1702 23.381C49.9083 23.6812 49.6417 22.5865 49.5884 21.9686C49.5884 21.792 49.7483 21.6331 49.9261 21.6685Z" fill="#2E186A"/>
<path fill-rule="evenodd" clip-rule="evenodd" d="M49.9933 13.5963C50.2602 13.5002 50.5541 13.6289 50.6647 13.8848L50.6763 13.9138L52.5958 19.1752C52.6994 19.459 52.5434 19.7689 52.258 19.8598L52.2269 19.8687L50.8406 20.2218C50.5553 20.2945 50.2648 20.1237 50.1917 19.8403C50.1211 19.5671 50.2785 19.2889 50.5456 19.2043L50.5757 19.1957L51.393 18.9875L49.6737 14.2747C49.5769 14.0095 49.7065 13.7176 49.9641 13.6077L49.9933 13.5963Z" fill="#2E186A"/>
<path fill-rule="evenodd" clip-rule="evenodd" d="M46.0659 14.9396C46.6153 14.3659 47.3145 14.1155 48.083 14.4591C48.3515 14.5791 48.4713 14.8927 48.3504 15.1594C48.2339 15.4167 47.9362 15.5364 47.6743 15.437L47.6454 15.4251C47.3605 15.2978 47.1082 15.3881 46.8386 15.6697C46.7633 15.7484 46.6956 15.8344 46.6378 15.9202L46.6124 15.959C46.6012 15.9765 46.5923 15.991 46.5859 16.0019L46.5763 16.0188C46.439 16.2776 46.1165 16.3768 45.856 16.2405C45.5955 16.1041 45.4956 15.7837 45.6329 15.5249C45.7158 15.3686 45.8594 15.1553 46.0659 14.9396Z" fill="#2E186A"/>
<path fill-rule="evenodd" clip-rule="evenodd" d="M50.3819 11.9027C51.0125 11.3715 51.7633 11.1962 52.5074 11.6714C52.7552 11.8296 52.8269 12.1573 52.6676 12.4034C52.5143 12.6403 52.2027 12.7152 51.9586 12.5791L51.9308 12.5625C51.6532 12.3852 51.383 12.4483 51.0716 12.7106C50.9966 12.7738 50.9281 12.8425 50.8687 12.9109L50.8322 12.9542C50.8224 12.9662 50.815 12.9756 50.8102 12.982L50.8063 12.9874C50.6364 13.2264 50.3037 13.2833 50.0632 13.1147C49.8226 12.946 49.7652 12.6155 49.935 12.3765C50.0256 12.2491 50.1759 12.0762 50.3819 11.9027Z" fill="#2E186A"/>
<path fill-rule="evenodd" clip-rule="evenodd" d="M49.1216 18.1525C49.3812 18.0994 49.5243 17.7312 49.4412 17.33C49.3581 16.9289 49.0802 16.6467 48.8206 16.6998C48.561 16.7529 48.418 17.1211 48.5011 17.5222C48.5842 17.9234 48.862 18.2055 49.1216 18.1525Z" fill="#2E186A"/>
<path fill-rule="evenodd" clip-rule="evenodd" d="M53.6543 17.254C53.9139 17.2009 54.057 16.8327 53.9739 16.4316C53.8908 16.0304 53.613 15.7483 53.3534 15.8014C53.0937 15.8544 52.9507 16.2227 53.0338 16.6238C53.1169 17.0249 53.3947 17.3071 53.6543 17.254Z" fill="#2E186A"/>
<path fill-rule="evenodd" clip-rule="evenodd" d="M46.4771 12.9577C44.596 13.2736 43.4643 15.4953 43.8744 17.8841C44.2846 20.2729 46.0943 22.0006 47.9754 21.6847C49.8565 21.3689 50.9882 19.1472 50.5781 16.7584C50.1679 14.3696 48.3582 12.6419 46.4771 12.9577ZM46.6117 13.7418C47.9979 13.509 49.4472 14.8927 49.7903 16.8907C50.1333 18.8887 49.2269 20.668 47.8408 20.9007C46.4546 21.1335 45.0053 19.7498 44.6622 17.7518C44.3192 15.7538 45.2256 13.9745 46.6117 13.7418Z" fill="#FF8D7E"/>
<path fill-rule="evenodd" clip-rule="evenodd" d="M54.2627 11.4743C52.3817 11.7902 51.25 14.0119 51.6601 16.4007C52.0702 18.7895 53.88 20.5172 55.7611 20.2013C57.6421 19.8855 58.7738 17.6638 58.3637 15.275C57.9536 12.8862 56.1438 11.1585 54.2627 11.4743ZM54.3974 12.2584C55.7835 12.0256 57.2329 13.4093 57.5759 15.4073C57.9189 17.4053 57.0126 19.1846 55.6264 19.4173C54.2403 19.6501 52.7909 18.2664 52.4479 16.2684C52.1049 14.2704 53.0112 12.4911 54.3974 12.2584Z" fill="#FF8D7E"/>
<path fill-rule="evenodd" clip-rule="evenodd" d="M51.8094 14.9753C52.0266 14.9359 52.2349 15.0789 52.2746 15.2947C52.3126 15.5011 52.1826 15.6994 51.981 15.7508L51.9531 15.7569L50.1047 16.0923C49.8874 16.1317 49.6791 15.9887 49.6394 15.7729C49.6014 15.5665 49.7315 15.3682 49.933 15.3168L49.9609 15.3107L51.8094 14.9753Z" fill="#FF8D7E"/>
<path fill-rule="evenodd" clip-rule="evenodd" d="M44.0039 16.0669C44.2131 15.9967 44.44 16.1083 44.5107 16.3162C44.5783 16.515 44.4784 16.7299 44.2865 16.8096L44.2597 16.8196L40.1007 18.2144C39.8914 18.2846 39.6645 18.173 39.5939 17.9651C39.5263 17.7663 39.6262 17.5514 39.8181 17.4717L39.8449 17.4617L44.0039 16.0669Z" fill="#FF8D7E"/>
<path fill-rule="evenodd" clip-rule="evenodd" d="M39.2264 18.3496C39.2441 18.3496 39.2441 18.332 39.2619 18.332C39.5463 18.4203 39.9018 18.3673 40.3817 18.1554C42.71 17.0961 43.5631 14.4654 43.8831 12.8058L54.9738 9.94558C55.7558 9.75137 56.1646 8.86859 55.8092 8.14472C52.4144 1.22373 46.5669 5.16093 42.6744 9.09812C39.6352 9.04515 35.7783 12.0996 34.9607 14.5537C33.9654 17.5022 34.3208 21.7395 36.3826 24.4585C38.5865 26.8596 40.5949 27.6541 42.3723 27.5305C42.319 27.4776 43.5454 24.4232 43.812 23.9465C43.3676 23.4874 42.9766 22.9577 42.6211 22.4281C42.2657 22.6046 39.4396 23.9288 38.4976 20.945C38.0889 19.6738 38.5332 18.8616 39.2264 18.3496Z" fill="#2E186A"/>
<path fill-rule="evenodd" clip-rule="evenodd" d="M25.4774 48.1869C27.7374 47.6032 31.0637 47.4094 34.5959 47.8203C34.8854 47.854 35.0836 48.1073 35.0664 48.3788L35.0659 48.3847L36.3338 48.5534L36.4826 48.5729C38.0536 48.7788 39.6853 48.9848 41.2928 49.177L41.8786 49.2465C42.2661 49.2922 42.6474 49.3364 43.0217 49.3791L43.7642 49.4627C46.4102 49.7571 48.5491 49.9536 50.0052 50.0243C50.2993 50.0386 50.5261 50.287 50.5117 50.5792C50.4974 50.8713 50.2473 51.0966 49.9531 51.0823L49.6847 51.0684C48.1551 50.9834 45.9886 50.7791 43.3401 50.4813L43.1806 50.4633C42.5293 50.3897 41.8563 50.3113 41.1654 50.2287C39.755 50.0601 38.3264 49.8809 36.9363 49.7005L35.9028 49.5652L34.2829 49.3477C34.0087 49.3099 33.8202 49.0753 33.8227 48.8184L33.8231 48.8035L33.6657 48.789C30.7275 48.5227 28.0018 48.6869 26.0569 49.1361L26.0217 49.1442L26.0169 49.1591C25.5623 50.5251 25.4345 51.5831 25.6407 52.2479L25.6553 52.2926C25.9687 53.2268 27.1204 54.1119 28.1939 54.2664C29.5379 54.4595 30.9583 54.6138 32.4456 54.7318C37.2091 55.1094 42.2923 55.0999 47.116 54.8515L47.541 54.8289C48.168 54.7947 48.7459 54.7586 49.2685 54.722L49.8069 54.6828L50.4108 54.6339C50.7041 54.6075 50.9635 54.8222 50.9901 55.1135C51.0158 55.3945 50.8157 55.644 50.5384 55.6852L50.4987 55.6897L50.1083 55.722C49.9926 55.7312 49.8661 55.7409 49.7292 55.751L49.3437 55.7787C48.8157 55.8157 48.2322 55.8522 47.5994 55.8867C42.6063 56.1591 37.3191 56.1808 32.3608 55.7877C30.8516 55.6681 29.4088 55.5113 28.0411 55.3148C26.583 55.1049 25.0898 53.9574 24.6446 52.6306C24.3078 51.6465 24.4914 50.264 25.1086 48.5235C25.1675 48.3574 25.3057 48.2312 25.4774 48.1869Z" fill="#2E186A"/>
<path fill-rule="evenodd" clip-rule="evenodd" d="M53.6302 50.2862L53.948 50.334L54.5634 50.4298L55.0998 50.5156L55.3932 50.5641C56.4778 50.746 57.2455 50.9057 57.7213 51.0663C58.0353 51.1723 58.2355 51.275 58.3683 51.4541C58.6702 51.854 58.6299 52.3268 58.283 52.6568C58.0548 52.8739 57.7118 53.0159 57.3014 53.0934C56.5012 53.2444 55.5639 53.1331 54.9425 52.7524C54.6918 52.5989 54.6139 52.2725 54.7685 52.0235C54.9173 51.7838 55.2275 51.7032 55.4741 51.8346L55.5022 51.8507C55.8736 52.0782 56.5446 52.1579 57.1024 52.0527C57.1325 52.047 57.1616 52.0408 57.1894 52.0343L57.2324 52.0237L57.2116 52.0175C56.834 51.9083 56.2596 51.7891 55.5038 51.6578L55.2156 51.6087C55.0589 51.5824 54.8971 51.5559 54.7235 51.528L53.6491 51.3598C52.1465 51.1327 50.614 51.0659 49.3267 51.0906L49.1793 51.0938C49.0775 51.0963 49.0075 51.0988 48.9727 51.1004C48.6785 51.1138 48.4291 50.8878 48.4156 50.5956C48.4026 50.3138 48.6137 50.0733 48.8926 50.0445L48.9341 50.0418L49.1526 50.0348C50.4757 50.0019 52.0554 50.0611 53.6302 50.2862Z" fill="#2E186A"/>
<path fill-rule="evenodd" clip-rule="evenodd" d="M48.2391 49.9004L48.3216 49.9047L48.9763 49.9479L49.4289 49.9796C49.8046 50.0065 50.1754 50.0346 50.5284 50.0635L50.9402 50.0983C51.3356 50.1328 51.6804 50.1665 51.9647 50.1991L52.164 50.223C52.4337 50.257 52.6313 50.2895 52.7631 50.3239L52.8198 50.3398C53.2149 50.457 54.1182 50.8397 55.0174 51.267L55.2246 51.3663C56.5398 52.0018 57.3093 52.4491 57.502 52.8046C57.852 53.4338 57.6196 54.0275 56.9209 54.1555C56.527 54.2276 55.952 54.1644 55.1258 53.9842C54.8382 53.9215 54.6562 53.639 54.7193 53.3533C54.7825 53.0676 55.0668 52.8868 55.3545 52.9495C55.6607 53.0163 55.9236 53.0637 56.1398 53.0924L56.2401 53.1047L56.1802 53.0683L56.0673 53.0015L55.9346 52.9257C55.6358 52.7576 55.2651 52.5658 54.8537 52.3653L54.6313 52.258C53.7211 51.823 52.7739 51.4222 52.4917 51.3484C52.408 51.3265 52.2226 51.2972 51.9617 51.2655L51.7716 51.2434C51.4401 51.2065 51.0252 51.1677 50.5449 51.1278L50.441 51.1193C50.0917 51.0907 49.7243 51.0628 49.3518 51.0361L48.7239 50.9926L48.2042 50.9587C47.9103 50.9406 47.6869 50.6892 47.7051 50.3972C47.7228 50.1157 47.9587 49.8992 48.2391 49.9004Z" fill="#2E186A"/>
<path fill-rule="evenodd" clip-rule="evenodd" d="M51.211 51.8475C51.2936 51.5776 51.5734 51.4211 51.846 51.4865L51.884 51.4971L52.046 51.5474L52.3001 51.6289C52.3599 51.6484 52.4216 51.6688 52.4852 51.69C52.9396 51.8415 53.3944 52.0046 53.8206 52.1736C54.0432 52.2619 54.2526 52.3498 54.4497 52.4382L54.5803 52.4985C55.8469 53.0922 56.6133 53.699 56.4039 54.323C56.2711 54.7187 55.7108 55.0301 55.0994 55.1183L55.0593 55.1237L55.0546 55.1431C54.9822 55.4078 54.7573 55.5984 54.4541 55.6996L54.4141 55.7123C54.131 55.7976 53.7434 55.8261 53.249 55.8019L53.1606 55.7971L50.0147 55.6912C49.7203 55.6813 49.4898 55.4362 49.4998 55.1439C49.5094 54.862 49.7392 54.639 50.0194 54.6323L50.0508 54.6325L53.2105 54.739L53.2748 54.7426L53.3891 54.7473L53.1171 54.6517L52.1336 54.2941L51.9501 54.2282L51.8611 54.2017L51.6794 54.1488L51.4971 54.0971C51.3778 54.0636 51.2653 54.0328 51.1616 54.005L50.9323 53.945C50.3903 53.8082 50.3988 53.0404 50.9437 52.9155L50.9783 52.9082C51.1909 52.8676 51.3988 52.9094 52.0513 53.1383L52.3001 53.2266L52.4468 53.2707C52.5919 53.3151 52.7355 53.3603 52.8765 53.4063L53.086 53.4757C53.6394 53.6624 54.1016 53.8451 54.4493 54.0235L54.5087 54.0545L54.518 54.0576C54.695 54.1071 54.9065 54.0978 55.1152 54.0365L55.1288 54.0321L55.1229 54.0277C54.8685 53.8426 54.5097 53.6367 54.0921 53.4412L54.0078 53.4023C53.829 53.3221 53.6339 53.2402 53.4252 53.1575C53.0195 52.9965 52.5828 52.8399 52.1459 52.6942L51.9676 52.6355L51.6639 52.5384C51.619 52.5244 51.586 52.5142 51.5662 52.5083C51.2845 52.4233 51.1254 52.1274 51.211 51.8475Z" fill="#2E186A"/>
<path fill-rule="evenodd" clip-rule="evenodd" d="M85.3623 32.6581C85.7681 32.5495 86.1026 32.4987 86.3814 32.5274C86.9038 32.5812 87.2585 32.9565 87.1511 33.5139C87.0273 34.1286 86.0621 34.7918 83.8394 36.0924C83.2763 36.4179 82.6212 36.6849 81.8919 36.901C81.0592 37.1477 80.1727 37.3166 79.2869 37.4229C78.9775 37.4601 78.6898 37.4868 78.431 37.5048L78.1963 37.5192C78.1552 37.5213 78.1217 37.5226 78.0962 37.5235C77.8019 37.5328 77.5556 37.3034 77.5462 37.011C77.5371 36.7291 77.7515 36.4916 78.0307 36.4666L78.216 36.4571C78.2592 36.4546 78.306 36.4516 78.3564 36.4481C78.598 36.4313 78.868 36.4062 79.159 36.3713C79.9891 36.2716 80.8184 36.1136 81.5871 35.8858C82.2408 35.6922 82.8196 35.4562 83.3005 35.1782L83.7114 34.936C84.3356 34.5649 84.8368 34.2511 85.2496 33.9675C85.3587 33.8925 85.4592 33.8212 85.5507 33.7538L85.6519 33.6776L85.6398 33.681C85.5411 33.7074 85.4371 33.7382 85.3278 33.7729L85.1691 33.8251C84.9457 33.9014 84.574 34.0364 84.5751 34.0361C84.2958 34.1286 83.9938 33.9786 83.9007 33.7011C83.8109 33.4335 83.9481 33.145 84.2085 33.0418L84.5284 32.9262C84.6615 32.8789 84.8111 32.8264 84.9104 32.7938C85.0679 32.7421 85.2182 32.6967 85.3623 32.6581Z" fill="#2E186A"/>
<path fill-rule="evenodd" clip-rule="evenodd" d="M82.0632 30.0389C82.4237 30.02 82.7328 30.1544 82.8908 30.4288L82.9116 30.4677L82.9501 30.4547C83.5698 30.2527 84.256 30.2755 84.5504 30.597L84.574 30.6245L84.5889 30.6438C84.6598 30.7407 84.7029 30.8353 84.7212 30.9323L84.7227 30.942L84.7468 30.9353C84.8126 30.9181 84.8781 30.9037 84.9432 30.8922L85.0081 30.8817C85.9196 30.7473 86.636 31.2646 86.4766 32.1668C86.4105 32.5116 85.7794 33.1195 84.6155 34.0868L84.3375 34.3165C83.1935 35.2561 82.0689 36.0892 81.4962 36.4003C80.5105 36.929 79.1938 37.3569 77.5668 37.6437L77.4959 37.6558L66.0892 53.474C65.3543 54.496 63.6668 55.333 62.3394 55.3041L62.2851 55.3022L62.2172 55.3012C60.6727 55.2645 59.7124 54.5246 59.4243 53.2401L59.4111 53.1785C59.1912 52.1051 59.4377 50.7015 60.0536 49.0895C61.0991 46.3527 63.1844 43.2118 64.4859 42.3339L64.4977 42.3259L64.589 42.2482C66.1395 40.9226 67.9977 39.2055 69.9969 37.2763L70.7444 36.5516C72.1578 35.1743 73.5592 33.7703 74.0664 33.2393C74.5009 32.7841 75.2157 32.4384 76.1475 32.1578C76.6392 32.0097 77.162 31.8895 77.6842 31.7944C77.8363 31.7667 77.9794 31.7428 78.1112 31.7225L78.2823 31.6972L78.3158 31.6925L78.4057 31.6551C78.6302 31.559 78.9469 31.409 79.3302 31.2185L79.5293 31.1189C79.7667 30.9994 80.0134 30.873 80.2595 30.7451L80.8622 30.4287C81.352 30.1854 81.7457 30.0554 82.0632 30.0389ZM81.7262 31.2026L81.7087 31.2094C81.6034 31.2508 81.4842 31.3039 81.3529 31.369L81.1269 31.4886C81.0681 31.5196 81.0059 31.5522 80.9406 31.5864C80.6917 31.7165 80.4397 31.8467 80.1941 31.9714L79.8779 32.1307L79.5833 32.2764C79.1846 32.4713 78.8668 32.6168 78.6462 32.7024C78.6152 32.7144 78.5832 32.7235 78.5505 32.7295L78.3462 32.7585L78.1995 32.7811C78.0982 32.7972 77.9902 32.8156 77.8766 32.8363C77.391 32.9248 76.906 33.0363 76.4569 33.1715C75.6883 33.403 75.115 33.6803 74.8401 33.9683L74.5779 34.2392C73.9095 34.9237 72.6222 36.2078 71.3491 37.4461L70.8979 37.8836C68.7739 39.9374 66.8006 41.7616 65.1668 43.1516C65.1488 43.1669 65.1298 43.181 65.1099 43.1938C64.0386 43.8834 62.035 46.8887 61.0506 49.4654C60.4998 50.9071 60.2848 52.1312 60.4561 52.9672C60.6249 53.7913 61.1582 54.2163 62.2369 54.2421L62.32 54.2436C63.2757 54.2861 64.6307 53.6325 65.1905 52.9L65.2219 52.8576L76.7569 36.8617C76.8395 36.7472 76.9645 36.6701 77.1044 36.6474C78.7549 36.3794 80.0575 35.9681 80.987 35.4695C81.4791 35.2022 82.5649 34.3978 83.6579 33.5001L83.838 33.3513C84.2825 32.9821 84.6821 32.6344 84.9821 32.355L85.0723 32.2702C85.1876 32.1607 85.2827 32.0658 85.3548 31.9884L85.408 31.9294L85.3873 31.9255C85.3291 31.916 85.2534 31.9164 85.1646 31.9295C84.6735 32.0019 84.0547 32.3919 83.545 33.0319C83.5028 33.0849 83.4525 33.1277 83.3972 33.1599L83.3731 33.1729L83.3391 33.2127C83.0724 33.5167 82.716 33.8235 82.2882 34.1333L82.1955 34.1997C81.8615 34.4363 81.506 34.6608 81.1507 34.8671L81.0059 34.95C80.9592 34.9765 80.914 35.0017 80.8706 35.0257L80.6984 35.1188C80.6878 35.1244 80.6787 35.1291 80.6712 35.133C80.4099 35.2679 80.088 35.167 79.9521 34.9074C79.8163 34.6479 79.9179 34.3281 80.1792 34.1931L80.2946 34.1314L80.4147 34.0653C80.4772 34.0303 80.5434 33.9926 80.6127 33.9524C80.942 33.7612 81.2712 33.5533 81.5763 33.3372C82.0084 33.0312 82.3533 32.7354 82.5744 32.4709L82.7481 32.2614C82.9878 31.9699 83.179 31.7261 83.3261 31.5232L83.3946 31.427L83.3811 31.43C83.1788 31.4791 82.9992 31.5639 82.8758 31.6729L82.8716 31.677L82.8635 31.6881C82.8348 31.7262 82.8045 31.7643 82.7726 31.8025L82.7235 31.8596C82.4283 32.1954 82.0094 32.5355 81.4946 32.8807C81.2047 33.0752 80.8987 33.2615 80.5905 33.4359L80.4542 33.5119L80.4206 33.5324C80.1622 33.687 79.946 33.7949 79.8182 33.8228L79.7953 33.8271C79.2038 33.9175 78.9409 33.1263 79.4495 32.8437L79.5951 32.7691L79.7172 32.7051C79.7596 32.6825 79.8036 32.6588 79.8491 32.634L79.9185 32.596L79.978 32.5626L80.0034 32.5465C80.0972 32.4864 80.1989 32.4188 80.3048 32.3462L80.3688 32.3021C80.8397 31.9756 81.3028 31.6148 81.593 31.3422C81.6372 31.3018 81.6796 31.2577 81.7187 31.212L81.7262 31.2026Z" fill="#2E186A"/>
<path fill-rule="evenodd" clip-rule="evenodd" d="M41.4101 29.136C42.7934 26.6869 42.1798 23.7346 40.0396 22.5418C37.8995 21.349 35.0432 22.3674 33.6599 24.8165C32.2766 27.2656 32.8902 30.2179 35.0304 31.4107C37.1705 32.6035 40.0268 31.585 41.4101 29.136Z" fill="#2E186A"/>
<path fill-rule="evenodd" clip-rule="evenodd" d="M46.0612 32.111C46.41 30.1126 45.2735 28.2482 43.5229 27.9468C41.7723 27.6453 40.0705 29.0209 39.7218 31.0193C39.373 33.0177 40.5095 34.8821 42.2601 35.1835C44.0107 35.485 45.7125 34.1093 46.0612 32.111Z" fill="#2E186A"/>
<path fill-rule="evenodd" clip-rule="evenodd" d="M48.4803 38.1166C49.5187 36.6249 49.3001 34.6873 47.9921 33.789C46.6842 32.8906 44.7822 33.3717 43.7438 34.8634C42.7055 36.3552 42.9241 38.2927 44.232 39.191C45.54 40.0894 47.442 39.6084 48.4803 38.1166Z" fill="#2E186A"/>
<path fill-rule="evenodd" clip-rule="evenodd" d="M50.4401 42.6197C51.5981 41.6546 51.8517 40.0607 51.0063 39.0597C50.1609 38.0587 48.5368 38.0296 47.3787 38.9947C46.2206 39.9598 45.9671 41.5537 46.8124 42.5547C47.6578 43.5557 49.282 43.5848 50.4401 42.6197Z" fill="#2E186A"/>
<path fill-rule="evenodd" clip-rule="evenodd" d="M49.4462 46.7744C50.637 47.3924 50.8147 48.2399 50.7259 48.8931C50.6903 49.2109 51.0636 49.4051 51.2946 49.1933C52.6454 47.975 54.7249 45.6268 53.0187 43.7377C52.2188 42.8373 50.7614 42.7313 49.6772 43.5788C48.5753 44.4263 48.3797 46.2095 49.4462 46.7744Z" fill="#2E186A"/>
<path fill-rule="evenodd" clip-rule="evenodd" d="M41.1575 27.8817C41.3744 27.5565 41.8156 27.4676 42.1429 27.683C42.4596 27.8915 42.5537 28.3086 42.3629 28.63L42.3429 28.6618L40.4233 31.5397C40.2064 31.8648 39.7653 31.9537 39.438 31.7383C39.1212 31.5298 39.0271 31.1127 39.218 30.7913L39.238 30.7595L41.1575 27.8817Z" fill="#FF8D7E"/>
<path fill-rule="evenodd" clip-rule="evenodd" d="M45.6897 32.8886C46.0086 32.661 46.4528 32.7333 46.6819 33.05C46.9037 33.3566 46.8427 33.7797 46.5495 34.013L46.5194 34.0357L44.12 35.7483C43.8011 35.9758 43.3569 35.9036 43.1278 35.5868C42.9061 35.2803 42.967 34.8571 43.2602 34.6239L43.2903 34.6012L45.6897 32.8886Z" fill="#FF8D7E"/>
<path fill-rule="evenodd" clip-rule="evenodd" d="M47.9129 37.9453C48.2671 37.777 48.6916 37.9258 48.861 38.2777C49.0251 38.6185 48.8896 39.0249 48.559 39.203L48.5264 39.2195L47.7088 39.6079C47.3546 39.7762 46.9301 39.6274 46.7607 39.2755C46.5965 38.9346 46.732 38.5282 47.0627 38.3502L47.0953 38.3337L47.9129 37.9453Z" fill="#FF8D7E"/>
<path fill-rule="evenodd" clip-rule="evenodd" d="M50.3548 42.312C50.706 42.1376 51.133 42.279 51.3086 42.6278C51.4787 42.9658 51.3505 43.3745 51.023 43.5583L50.9907 43.5753L50.1731 43.9814C49.8219 44.1559 49.3949 44.0145 49.2193 43.6656C49.0491 43.3276 49.1774 42.919 49.5049 42.7352L49.5372 42.7181L50.3548 42.312Z" fill="#FF8D7E"/>
<path fill-rule="evenodd" clip-rule="evenodd" d="M35.9683 100.791L31.3827 121.166C31.3085 121.495 31.5599 121.809 31.9001 121.811L47.9319 121.899C48.2019 121.901 48.4303 121.701 48.4639 121.435C48.8085 118.706 47.5747 116.633 45.349 115.17C44.6727 114.725 43.9515 114.37 43.2304 114.095L43.1626 114.069C43.0285 114.019 42.9038 113.974 42.7899 113.936L46.3295 102.492C46.425 102.184 46.2225 101.863 45.9011 101.813L36.57 100.383C36.2926 100.341 36.0295 100.519 35.9683 100.791ZM36.9001 101.506L45.1289 102.767L41.6132 114.134C41.5232 114.425 41.698 114.731 41.9956 114.804L42.0258 114.812C42.0678 114.823 42.1331 114.841 42.2191 114.867C42.4079 114.924 42.6194 114.996 42.8477 115.083C43.501 115.333 44.1541 115.654 44.7605 116.053L44.8319 116.1C46.5597 117.26 47.535 118.796 47.4487 120.8L47.4468 120.837L32.5676 120.755L36.9001 101.506Z" fill="#2E186A"/>
<path fill-rule="evenodd" clip-rule="evenodd" d="M57.8655 100.28L53.12 121.396C53.0458 121.725 53.2973 122.039 53.6375 122.041L70.2381 122.129C70.5083 122.13 70.7369 121.931 70.7701 121.664C71.1019 119.003 69.9838 116.929 67.9061 115.413C67.1824 114.885 66.3879 114.46 65.574 114.127L65.4652 114.083C65.2851 114.011 65.1112 113.947 64.945 113.89L64.8824 113.868L68.5466 102.052C68.6422 101.743 68.4404 101.422 68.1195 101.372L58.4684 99.8717C58.1906 99.8285 57.9268 100.007 57.8655 100.28ZM58.7972 100.995L67.3459 102.324L63.7061 114.063C63.6195 114.342 63.7767 114.636 64.0531 114.724L64.1442 114.749C64.2131 114.768 64.3065 114.795 64.4205 114.832C64.6507 114.906 64.902 114.997 65.1677 115.106C65.9067 115.409 66.6267 115.794 67.2748 116.266L67.346 116.319C68.9476 117.513 69.8363 119.048 69.7559 121.006L69.7529 121.067L54.3047 120.985L58.7972 100.995Z" fill="#2E186A"/>
<path fill-rule="evenodd" clip-rule="evenodd" d="M62.4916 56.2913L42.1739 57.1158C42.1028 57.363 31.5478 56.2913 29.646 69.939C29.646 75.3768 31.8499 76.2244 31.5478 76.7364C34.1427 77.0719 37.2353 77.1778 40.4524 77.1248L33.805 110.247H50.8322L55.5777 89.7839L52.7517 110.353H69.7611L71.2007 63.1416C71.2007 63.1416 71.2007 55.691 62.4916 56.2913Z" fill="#FF8D7E"/>
<path fill-rule="evenodd" clip-rule="evenodd" d="M118.526 97.8775L118.495 97.8885C118.288 97.9681 118.15 98.168 118.154 98.3909L118.378 112.385L118.29 112.412C117.899 112.527 117.464 112.672 116.996 112.85C115.661 113.356 114.326 114.02 113.076 114.861C110.569 116.549 108.728 118.733 107.852 121.475C107.743 121.816 108 122.165 108.361 122.164L126.846 122.147C127.118 122.147 127.346 121.943 127.375 121.675L130.326 94.9443C130.368 94.5638 130.002 94.2661 129.635 94.3817L118.526 97.8775ZM129.176 95.637L126.367 121.088L109.117 121.104L109.12 121.096C109.992 118.926 111.573 117.153 113.675 115.738C114.85 114.946 116.113 114.319 117.376 113.84C117.818 113.672 118.228 113.535 118.594 113.427L118.716 113.391C118.755 113.38 118.793 113.37 118.828 113.36L118.991 113.317C119.014 113.311 119.03 113.307 119.04 113.305L119.071 113.297C119.299 113.229 119.455 113.019 119.451 112.781L119.227 98.7682L129.176 95.637Z" fill="#2E186A"/>
<path fill-rule="evenodd" clip-rule="evenodd" d="M99.0025 98.5828L98.9699 98.5888C98.7545 98.6352 98.5887 98.8094 98.5558 99.0281L96.4919 112.74L96.3746 112.775C96.0722 112.866 95.7389 112.977 95.3807 113.109C94.3855 113.477 93.367 113.947 92.3749 114.53C89.5566 116.186 87.4633 118.435 86.5245 121.368C86.4151 121.71 86.6721 122.059 87.0332 122.059L104.398 122.041C104.647 122.041 104.862 121.87 104.917 121.629L110.409 97.5816C110.493 97.2174 110.18 96.8844 109.809 96.9409L99.0025 98.5828ZM109.196 98.1055L103.971 120.982L87.791 120.999L87.8272 120.911C88.7805 118.629 90.5678 116.823 92.9179 115.442C93.8519 114.893 94.8137 114.449 95.7527 114.102C96.0519 113.992 96.3319 113.897 96.5882 113.818L96.6833 113.789C96.8271 113.746 96.9433 113.714 97.0287 113.691L97.0949 113.675L97.1277 113.666C97.3215 113.605 97.4651 113.44 97.4954 113.239L99.5523 99.5707L109.196 98.1055Z" fill="#2E186A"/>
<path fill-rule="evenodd" clip-rule="evenodd" d="M158.696 67.644C155.799 68.2973 150.484 63.5833 150.484 63.5833L123.397 57.7393L122.74 61.5882L117.425 61.4469C103.953 60.8466 101.802 70.928 101.802 70.928L90.7295 113.902L107.188 113.972L115.577 83.6223L111.773 113.672L128.516 113.919L131.787 83.0044C135.732 82.1039 148.547 79.1202 151.835 77.3723C155.159 76.154 158.838 71.9696 158.696 67.644Z" fill="#24348C"/>
<path fill-rule="evenodd" clip-rule="evenodd" d="M126.885 21.4117C127.156 21.297 127.469 21.4222 127.585 21.6913C127.7 21.9605 127.574 22.2716 127.303 22.3862C124.943 23.3853 124.148 24.7456 124.126 26.7775C124.124 26.9367 124.051 27.0867 123.925 27.1859C119.678 30.5516 116.72 34.3058 114.89 38.3251C114.74 38.655 114.308 38.7412 114.041 38.4947L113.314 37.8248C110.577 35.3118 108.125 33.1437 107.395 32.6486L107.372 32.6329C106.987 32.3776 106.733 32.3828 106.149 32.6167L105.801 32.7598C105.688 32.8053 105.617 32.8307 105.521 32.8612C105.038 33.0136 104.607 33.0101 104.174 32.7879L103.751 32.5758C103.621 32.5106 103.5 32.451 103.39 32.3967L103.279 32.342L103.237 32.4443L103.211 32.5056C102.976 33.0548 102.679 33.6041 102.314 34.1195C101.703 34.9824 100.964 35.6604 100.084 36.0805L100.029 36.1062C100.121 36.3499 100.257 36.6383 100.444 36.9724L100.489 37.0503C100.733 37.4779 100.769 37.8853 100.666 38.3705L100.652 38.4315C100.642 38.4739 100.634 38.509 100.623 38.5513L100.567 38.7517C100.398 39.3571 100.402 39.5984 100.693 39.9972L100.874 40.2376C101.145 40.5946 101.642 41.2349 102.331 42.1169L105.263 45.8565L107.986 49.3164L109.884 51.7242L109.95 51.7958C110.229 52.1003 110.934 52.9061 111.277 53.2747L111.36 53.363C112.112 54.1445 112.796 54.6737 113.462 54.934C113.736 55.0412 113.87 55.3487 113.763 55.6209C113.655 55.8931 113.345 56.0269 113.071 55.9197C112.26 55.6025 111.492 55.0184 110.674 54.1825L110.589 54.0951C110.247 53.7401 109.359 52.7198 109.139 52.4837L109.082 52.4236L108.92 52.2198L105.308 47.635L101.339 42.5749C100.614 41.6461 100.122 41.0105 99.9037 40.7185L99.8652 40.6668C99.3216 39.9469 99.2869 39.4029 99.5228 38.5308L99.5917 38.2798C99.5999 38.2486 99.6062 38.2228 99.613 38.1934C99.677 37.9181 99.6665 37.7573 99.5617 37.5742C99.289 37.0981 99.1002 36.6872 98.9808 36.3405C98.9031 36.1152 98.8661 35.952 98.8551 35.8503C98.8286 35.6043 98.977 35.3729 99.2126 35.2928C100.091 34.9942 100.832 34.3709 101.442 33.5098C101.76 33.0605 102.022 32.5761 102.229 32.0916C102.301 31.9224 102.361 31.7659 102.41 31.6264L102.437 31.5462L102.463 31.4644C102.552 31.1537 102.898 30.9939 103.194 31.1265L103.324 31.1867L103.522 31.2808C103.805 31.4175 104.18 31.6027 104.66 31.8452C104.805 31.9193 104.943 31.9253 105.152 31.8655L105.198 31.8516C105.285 31.8241 105.35 31.7994 105.507 31.7346L105.621 31.6869C106.585 31.2837 107.179 31.2318 107.964 31.7514L108.039 31.8028C108.848 32.3696 111.091 34.3475 113.689 36.7275L114.231 37.225L114.279 37.1283C116.147 33.3438 118.996 29.8044 122.942 26.6124L123.066 26.5125L123.069 26.4599C123.175 24.2146 124.203 22.5737 126.797 21.4494L126.885 21.4117Z" fill="#2E186A"/>
<path fill-rule="evenodd" clip-rule="evenodd" d="M139.259 20.0283L139.517 20.0502C143.616 20.4133 146.134 21.4031 147.221 23.0033C148.137 24.3537 147.977 26.0056 146.969 27.8425L146.954 27.8697L146.999 27.8989C151.295 30.6779 155.321 34.4582 158.528 39.3326L158.646 39.5137C162.296 45.1341 162.416 50.0213 159.817 53.291L159.789 53.3256L160.455 66.6817C160.463 66.8588 160.383 67.0277 160.241 67.1327L160.211 67.1528C158.609 68.1812 157.363 68.4033 156.072 67.9179L155.981 67.8829C155.32 67.6211 154.729 67.2346 153.59 66.3795L152.853 65.8257C151.629 64.9108 151.088 64.5374 150.117 63.9461C149.866 63.7932 149.787 63.4671 149.941 63.2177C150.095 62.9683 150.423 62.8901 150.674 63.043L150.969 63.2242C151.896 63.7985 152.492 64.2251 153.89 65.2761L154.371 65.6375C155.386 66.395 155.902 66.7215 156.449 66.9272C157.305 67.2491 158.126 67.1471 159.269 66.4853L159.374 66.4234L158.714 53.1746C158.708 53.0532 158.744 52.9338 158.816 52.8362L158.838 52.8076C161.28 49.9211 161.236 45.4557 157.75 40.0881C154.497 35.0844 150.357 31.2513 145.952 28.4901C145.705 28.3355 145.629 28.0126 145.782 27.7655C146.838 26.0532 147.049 24.646 146.336 23.5955C145.453 22.2946 143.132 21.4045 139.173 21.0841C138.879 21.0604 138.66 20.8048 138.684 20.5132C138.707 20.232 138.948 20.0201 139.228 20.0267L139.259 20.0283Z" fill="#2E186A"/>
<path fill-rule="evenodd" clip-rule="evenodd" d="M132.622 52.7251L132.498 55.7442L128.587 56.2915L128.801 51.2773" fill="#FF8D7E"/>
<path fill-rule="evenodd" clip-rule="evenodd" d="M140.851 24.335C140.851 24.335 140.709 24.335 140.442 24.335L140.816 24.7764C140.816 24.7764 136.639 27.3364 132.622 31.8739C132.622 31.8739 130.24 29.3668 129.174 25.2884C128.179 26.6302 127.112 31.15 128.516 35.2461C129.103 36.9234 129.281 41.3902 129.263 46.2808L133.404 45.9807C133.457 45.3627 133.493 44.7448 133.546 44.1269C134.648 30.9911 143.055 25.8887 143.055 25.8887L140.851 24.335Z" fill="#E0840B"/>
<path fill-rule="evenodd" clip-rule="evenodd" d="M93.2765 26.6161C93.5822 27.217 94.3403 27.9035 95.5164 28.6157L95.5743 28.6504L95.5415 28.6989C95.5052 28.7537 95.4695 28.8106 95.4346 28.8694C94.7989 29.9388 94.6403 31.2125 95.2536 32.5988C95.6895 33.5922 98.6321 36.3076 99.6808 36.4255C100.352 36.501 101.594 36.2127 102.502 35.7252C103.784 35.0375 104.429 33.997 103.996 32.7278C103.477 31.1682 102.706 30.2075 101.301 29.1824L100.983 28.9553C100.908 28.9024 100.829 28.8485 100.73 28.7813L99.8537 28.1988L99.4026 27.9161C99.2958 27.8495 99.1848 27.7807 99.0687 27.7089C98.5186 27.3692 97.9647 27.0341 97.43 26.7203L97.0833 26.5183L96.8311 26.3734C95.7054 25.7307 94.8985 25.3273 94.4492 25.2158C93.5004 24.9761 92.8151 25.65 93.2559 26.5743L93.2765 26.6161ZM94.3248 26.2971L94.3141 26.2815L94.3187 26.2832C94.7234 26.4266 95.5191 26.8399 96.547 27.434L96.7726 27.5651C96.8107 27.5873 96.849 27.6097 96.8875 27.6323C97.3267 27.8901 97.78 28.163 98.2335 28.4411L98.5056 28.6086C98.6588 28.7032 98.8029 28.7928 98.9403 28.8786L99.2804 29.0919L100.136 29.6612C100.321 29.7864 100.43 29.8636 100.594 29.9814L100.749 30.0942C101.935 30.9731 102.55 31.7575 102.985 33.064C103.221 33.7579 102.871 34.3235 101.996 34.7932C101.268 35.1836 100.24 35.4223 99.8008 35.3729C99.1837 35.3035 96.5286 32.8535 96.2305 32.1741C95.766 31.1239 95.8807 30.2023 96.3528 29.4081C96.4438 29.2549 96.541 29.1207 96.6371 29.0072L96.6913 28.9452C96.707 28.9279 96.72 28.9141 96.73 28.9039L96.746 28.8882C97.0104 28.6423 96.9563 28.2117 96.6392 28.0378C95.4274 27.3734 94.6452 26.7515 94.3248 26.2971Z" fill="#2E186A"/>
<path fill-rule="evenodd" clip-rule="evenodd" d="M97.4404 28.4891C97.805 28.2718 98.3747 28.4109 99.7257 28.869L99.8015 28.8947C99.9151 28.9334 100.032 28.9737 100.151 29.0155C100.431 29.1141 100.716 29.2178 100.998 29.3228L101.429 29.4853L101.768 29.6161C102.042 29.7238 102.176 30.0316 102.067 30.3036C101.959 30.5755 101.649 30.7087 101.375 30.601L101.047 30.4741C100.999 30.456 100.95 30.4373 100.899 30.418C100.535 30.2803 100.16 30.1425 99.7947 30.0142C99.679 29.9735 99.5659 29.9343 99.4558 29.8968L99.1973 29.8102C98.8352 29.6907 98.5232 29.5967 98.2754 29.5337L98.1731 29.5086L98.1083 29.4938C98.1284 29.5514 98.1561 29.6144 98.1917 29.681L98.2141 29.7214C98.4609 30.1535 98.9333 30.5718 99.5482 30.8426C99.8542 30.9773 99.9588 31.3532 99.7737 31.6238L99.7295 31.6841C99.715 31.7044 99.6962 31.7316 99.674 31.7651C99.6067 31.8667 99.539 31.981 99.476 32.1041C99.2873 32.4731 99.1849 32.8351 99.2047 33.1433C99.2129 33.2715 99.2422 33.3882 99.2943 33.4954L99.318 33.5407C99.4614 33.7962 99.3691 34.1188 99.1119 34.2612C98.8546 34.4037 98.5299 34.312 98.3865 34.0565C98.2396 33.7947 98.1597 33.51 98.1405 33.2109C98.1064 32.6822 98.2578 32.1473 98.5252 31.6243L98.5757 31.5281L98.5711 31.5253C98.0329 31.1939 97.6023 30.7677 97.3236 30.3072L97.2866 30.2442C96.8983 29.5644 96.8667 28.8459 97.4053 28.51L97.4404 28.4891Z" fill="#2E186A"/>
<path fill-rule="evenodd" clip-rule="evenodd" d="M99.7407 37.3292C99.0476 36.2875 98.9409 35.8108 98.9409 35.8108C101.483 35.2458 102.744 31.5205 102.744 31.5205C102.744 31.5205 103.242 31.6441 104.362 32.2797C104.824 32.5269 105.233 32.3327 105.553 32.2797C105.997 35.7755 101.5 38.4945 99.9362 39.2536C99.7585 38.5121 100.274 38.106 99.7407 37.3292Z" fill="#2E186A"/>
<path fill-rule="evenodd" clip-rule="evenodd" d="M119.833 45.7888L119.86 45.7647C120.3 45.3977 121.503 45.3616 124.667 45.3977C125.783 45.413 126.932 45.5116 128.058 45.6665C128.393 45.7125 128.708 45.7611 128.998 45.8104L129.241 45.8527C129.341 45.8705 129.432 45.8874 129.513 45.903L129.693 45.9389C129.982 45.9996 130.166 46.2807 130.104 46.5669C130.046 46.8428 129.78 47.0227 129.503 46.9807L129.366 46.9538C129.276 46.9362 129.171 46.9165 129.052 46.8952C128.711 46.8341 128.328 46.773 127.912 46.7158C126.827 46.5666 125.72 46.4716 124.653 46.457L123.875 46.4499C123.117 46.4453 122.53 46.4499 121.98 46.4678L121.8 46.4742C121.451 46.4881 121.157 46.5077 120.927 46.5334L120.812 46.5472L120.825 46.5539C120.959 46.6186 121.129 46.6777 121.317 46.7206L121.374 46.733C121.662 46.7926 121.847 47.0732 121.787 47.3595C121.727 47.6459 121.444 47.8297 121.156 47.77C120.641 47.6635 120.18 47.4627 119.887 47.198C119.444 46.7986 119.377 46.224 119.833 45.7888Z" fill="#2E186A"/>
<path fill-rule="evenodd" clip-rule="evenodd" d="M125.727 45.6123L125.769 45.609C126.16 45.5842 127.221 45.6632 128.856 45.8202L129.411 45.8744C129.854 45.9184 130.306 45.9648 130.753 46.0118L131.97 46.1428C132.263 46.1753 132.474 46.4373 132.441 46.728C132.409 47.0083 132.163 47.213 131.883 47.1981L131.832 47.1934L131.083 47.1121C130.497 47.0495 129.893 46.9869 129.305 46.9285L128.424 46.8433C127.055 46.7152 126.097 46.6472 125.846 46.6653L125.832 46.6665C125.518 46.6977 124.399 46.9734 123.357 47.2826L123.147 47.3455C122.665 47.4919 122.236 47.6348 121.903 47.7614L121.776 47.8108C121.735 47.8269 121.697 47.8426 121.66 47.8579L121.637 47.8676L121.651 47.8685C121.81 47.878 122.004 47.8806 122.229 47.875L122.381 47.8701C122.676 47.8587 122.923 48.0865 122.935 48.3788C122.946 48.6711 122.717 48.9173 122.423 48.9287L122.259 48.934C121.563 48.9521 121.078 48.9036 120.753 48.7598C120.136 48.4874 120.066 47.8825 120.491 47.3467C120.745 47.0286 121.577 46.7079 122.964 46.2936L123.2 46.224C124.261 45.914 125.34 45.6508 125.727 45.6123Z" fill="#2E186A"/>
<path fill-rule="evenodd" clip-rule="evenodd" d="M127.037 47.3953C127.075 47.6854 126.869 47.9511 126.577 47.9886L126.407 48.0119L126.234 48.0369C126.144 48.0503 126.049 48.0648 125.949 48.0806C125.476 48.1556 125.004 48.2418 124.565 48.3377C124.343 48.3862 124.136 48.436 123.945 48.4869C123.478 48.6114 123.065 48.7605 122.757 48.9087L122.685 48.9448L122.72 48.9633C122.926 49.064 123.139 49.1091 123.328 49.0856L123.34 49.0837L123.359 49.0773C123.718 48.959 124.185 48.8533 124.741 48.7568L124.846 48.7388C125.106 48.6951 125.376 48.6546 125.651 48.6176L125.739 48.6058L126.098 48.5415C126.724 48.4331 126.925 48.4264 127.116 48.4887L127.162 48.505C127.689 48.7064 127.58 49.4769 127.018 49.5269L126.849 49.5432L126.587 49.5707C126.525 49.5774 126.462 49.5846 126.396 49.5921C126.262 49.6076 126.128 49.6238 125.995 49.6409L125.916 49.6512L125.611 49.7075L124.762 49.8666C124.652 49.8867 124.56 49.9032 124.477 49.9175L124.261 49.9533L124.302 49.9594C124.361 49.9679 124.424 49.976 124.49 49.9837L124.557 49.9911L124.592 49.996L132.412 51.3555C132.702 51.4059 132.896 51.6804 132.845 51.9685C132.796 52.2464 132.538 52.4355 132.259 52.4034L132.228 52.399L124.422 51.0419L124.359 51.035C123.863 50.9774 123.485 50.8905 123.215 50.7693L123.171 50.7487C122.861 50.5992 122.65 50.3664 122.62 50.0789L122.618 50.0525L122.588 50.044C122.013 49.8673 121.515 49.4907 121.397 49.1069L121.388 49.0749C121.212 48.3765 122.19 47.8583 123.668 47.4638C123.876 47.4085 124.099 47.3549 124.336 47.3031C124.731 47.2167 125.149 47.1384 125.57 47.0686L125.781 47.0345C125.884 47.0182 125.983 47.003 126.076 46.9892L126.44 46.938C126.732 46.9005 126.999 47.1052 127.037 47.3953Z" fill="#2E186A"/>
<path fill-rule="evenodd" clip-rule="evenodd" d="M132.622 52.7954C131.574 52.407 131.236 52.0892 131.236 52.0892C132.604 49.9705 131.236 46.4571 131.236 46.4571C131.236 46.4571 131.591 46.3688 132.693 46.1393C133.138 46.051 133.351 45.8215 133.529 45.5566C135.804 48.1167 134.435 52.6012 133.831 54.2255C133.298 53.7665 133.422 53.0956 132.622 52.7954Z" fill="#2E186A"/>
<path fill-rule="evenodd" clip-rule="evenodd" d="M147.324 42.1342C147.617 42.1067 147.877 42.3205 147.905 42.6117C147.932 42.8925 147.732 43.1428 147.455 43.185L147.395 43.1926C147.333 43.202 147.224 43.2265 147.084 43.274C146.797 43.3712 146.508 43.5255 146.238 43.7492C145.677 44.213 145.266 44.9142 145.072 45.9216C145.016 46.2089 144.737 46.3971 144.448 46.3421C144.158 46.287 143.969 46.0095 144.024 45.7222C144.265 44.4761 144.804 43.5571 145.555 42.9353C145.931 42.624 146.335 42.4084 146.74 42.2713C146.99 42.1867 147.192 42.1466 147.324 42.1342Z" fill="#2E186A"/>
<path fill-rule="evenodd" clip-rule="evenodd" d="M138.043 33.7446C138.298 33.8664 138.412 34.1643 138.306 34.4217L138.289 34.4582L138.205 34.637L138.114 34.8351C138.043 34.9896 137.967 35.159 137.887 35.3418C137.58 36.0387 137.273 36.7849 136.987 37.5497C136.692 38.3372 136.437 39.1 136.232 39.8204C135.971 40.734 135.799 41.5541 135.73 42.2543C135.701 42.5455 135.44 42.7582 135.147 42.7296C134.854 42.701 134.64 42.4418 134.669 42.1506C134.745 41.3803 134.929 40.5013 135.205 39.5319C135.419 38.7822 135.683 37.9932 135.987 37.1807C136.281 36.3959 136.595 35.6315 136.909 34.9174L137.03 34.6463C137.069 34.5595 137.107 34.4762 137.143 34.3967L137.331 33.9931C137.459 33.7294 137.777 33.6181 138.043 33.7446Z" fill="#2E186A"/>
<path fill-rule="evenodd" clip-rule="evenodd" d="M127.027 33.9006C127.314 33.8343 127.6 34.0116 127.667 34.2965L127.702 34.453L127.745 34.6535C127.76 34.7249 127.776 34.8008 127.793 34.8811L127.855 35.1927C127.927 35.5641 127.998 35.962 128.066 36.3796C128.259 37.5735 128.394 38.7538 128.443 39.8615C128.483 40.7394 128.467 41.5439 128.389 42.2602C128.357 42.551 128.093 42.7609 127.801 42.7291C127.508 42.6974 127.296 42.4359 127.328 42.1451C127.401 41.4879 127.415 40.7362 127.378 39.9088C127.33 38.846 127.2 37.7045 127.013 36.5477C126.938 36.0835 126.858 35.6445 126.778 35.2409L126.717 34.942L126.648 34.6242C126.639 34.583 126.632 34.5536 126.628 34.5365C126.562 34.2516 126.74 33.9669 127.027 33.9006Z" fill="#2E186A"/>
<path fill-rule="evenodd" clip-rule="evenodd" d="M134.885 44.4823L134.928 44.479C135.569 44.4376 137.648 44.6005 140.854 44.917L141.55 44.9864C141.876 45.0191 142.21 45.0531 142.55 45.0881C143.639 45.1999 144.757 45.3185 145.861 45.4381L147.523 45.6203L148.252 45.7018C148.544 45.7349 148.755 45.9973 148.721 46.2879C148.688 46.5786 148.424 46.7874 148.131 46.7543L146.404 46.5629C145.31 46.4433 144.193 46.3236 143.096 46.2095L141.688 46.0651L140.26 45.9234C137.373 45.6431 135.441 45.4963 134.98 45.5374C134.558 45.575 134.409 45.6698 134.18 45.9819L134.109 46.082C133.768 46.5628 133.498 46.7933 132.963 46.9053L132.513 47.0007L132.187 47.0718L132.215 47.1723C132.235 47.2414 132.254 47.3122 132.272 47.3848L132.3 47.4949C132.518 48.3742 132.633 49.2644 132.586 50.1081C132.554 50.7 132.442 51.2448 132.24 51.731L132.197 51.8291L132.248 51.8567C132.424 51.9499 132.638 52.0477 132.896 52.1484L132.975 52.1787C133.47 52.3699 133.695 52.6293 133.941 53.1333L134.009 53.2761L134.045 53.348C134.193 53.6336 134.327 53.7485 134.681 53.8423L134.724 53.8534C135.129 53.954 136.766 54.1244 139.256 54.3333L139.965 54.3919C140.376 54.4254 140.804 54.4597 141.249 54.4946L142.284 54.5747C143.1 54.6371 143.939 54.6995 144.785 54.7611L146.519 54.8851L147.979 54.9865C148.273 55.0063 148.495 55.2591 148.475 55.5509C148.455 55.8428 148.2 56.0632 147.907 56.0433L146.127 55.9194L144.707 55.8176C143.496 55.7296 142.3 55.6397 141.165 55.5507L140.295 55.4815C140.083 55.4645 139.876 55.4476 139.673 55.4309L138.613 55.3419C136.347 55.1473 134.919 54.9938 134.465 54.8811C133.729 54.6984 133.365 54.3683 133.074 53.7876L133.002 53.6399C132.859 53.337 132.792 53.2499 132.617 53.1775L132.592 53.1672C132.133 52.9934 131.772 52.8182 131.495 52.6484C131.312 52.5363 131.193 52.4431 131.125 52.376C130.949 52.2012 130.918 51.9289 131.051 51.7196C131.332 51.2752 131.485 50.7111 131.521 50.0504C131.561 49.3253 131.46 48.5341 131.265 47.7482C131.207 47.513 131.144 47.2964 131.082 47.1039L131.051 47.0101L131.023 46.9289C131.013 46.9004 131.006 46.8819 131.003 46.8742C130.892 46.5803 131.061 46.2548 131.366 46.1749L131.505 46.1406L131.677 46.1005C131.945 46.0389 132.297 45.962 132.743 45.8687C132.934 45.8287 133.02 45.7671 133.183 45.5466L133.285 45.4048C133.693 44.8324 134.097 44.5525 134.885 44.4823Z" fill="#2E186A"/>
<path fill-rule="evenodd" clip-rule="evenodd" d="M114.188 37.9156C114.363 37.6801 114.697 37.63 114.934 37.8036L115.006 37.8576C115.062 37.9 115.127 37.9498 115.2 38.0066C115.407 38.168 115.636 38.3542 115.884 38.563C116.589 39.1591 117.295 39.8188 117.955 40.525C118.571 41.1845 119.117 41.8527 119.574 42.5238C119.738 42.7661 119.674 43.0954 119.43 43.2592C119.186 43.423 118.855 43.3593 118.69 43.1169C118.266 42.4943 117.754 41.8676 117.173 41.2458C116.544 40.5725 115.868 39.9408 115.193 39.3699C114.986 39.1952 114.792 39.0375 114.616 38.8982L114.463 38.7791L114.301 38.6562C114.064 38.4827 114.013 38.1511 114.188 37.9156Z" fill="#2E186A"/>
<path fill-rule="evenodd" clip-rule="evenodd" d="M145.935 27.5303C143.891 30.9201 139.678 34.6984 138.612 35.1751V35.1928C141.669 35.334 148.814 31.4145 150.022 30.7259C148.53 29.6313 146.948 28.2012 145.935 27.5303Z" fill="#2E186A"/>
<path fill-rule="evenodd" clip-rule="evenodd" d="M124.179 28.3609C124.162 27.8665 124.108 27.2839 124.108 26.6836H124.09C123.22 27.3722 121.869 28.0607 121.104 28.767C122.029 30.5502 123.895 33.2515 125.939 34.505C125.352 33.2162 124.322 31.5389 124.179 28.3609Z" fill="#2E186A"/>
<path fill-rule="evenodd" clip-rule="evenodd" d="M140.24 14.4308L140.302 14.4331C140.393 14.4379 140.516 14.4498 140.663 14.4727C140.967 14.5202 141.272 14.6011 141.563 14.7256C142.638 15.1864 143.216 16.1142 142.938 17.483C142.744 18.451 142.171 19.0389 141.35 19.232C140.771 19.3681 140.128 19.3002 139.472 19.1047C139.19 19.0207 139.03 18.7254 139.114 18.4452C139.199 18.165 139.496 18.006 139.778 18.0901C140.935 18.4348 141.695 18.256 141.893 17.2745C142.064 16.4295 141.779 15.9721 141.14 15.6982C140.94 15.6123 140.719 15.5538 140.497 15.5192C140.439 15.5101 140.384 15.5032 140.333 15.4982L140.264 15.4924L140.219 15.4899C139.924 15.484 139.69 15.2422 139.696 14.9497C139.702 14.6573 139.946 14.4249 140.24 14.4308Z" fill="#2E186A"/>
<path fill-rule="evenodd" clip-rule="evenodd" d="M126.068 11.0401C126.108 10.7502 126.376 10.5468 126.668 10.5859C126.96 10.6249 127.164 10.8915 127.125 11.1814C126.806 13.5374 126.868 16.2419 127.197 18.9932C127.232 19.2837 127.023 19.5472 126.731 19.5817C126.438 19.6163 126.173 19.4089 126.138 19.1184C125.799 16.2859 125.735 13.4973 126.068 11.0401Z" fill="#2E186A"/>
<path fill-rule="evenodd" clip-rule="evenodd" d="M139.306 19.886C139.59 19.8769 139.829 20.0899 139.854 20.3673L139.856 20.3983L139.939 22.9449L141.234 24.409C141.445 24.6468 141.398 25.011 141.142 25.1909L141.114 25.2095L140.979 25.2943L140.842 25.3833C140.749 25.4445 140.647 25.5124 140.537 25.587L140.469 25.6326C139.948 25.9877 139.367 26.4084 138.74 26.8928C136.946 28.278 135.152 29.8925 133.479 31.7187C133.332 31.88 133.185 32.0424 133.041 32.206C132.833 32.4401 132.468 32.4467 132.253 32.2201L132.185 32.1475C132.047 31.995 131.846 31.7547 131.6 31.4312C131.124 30.8033 130.648 30.0752 130.205 29.254C129.661 28.2467 129.203 27.1675 128.859 26.0225C128.775 25.7422 128.935 25.4472 129.217 25.3635C129.499 25.2798 129.796 25.4392 129.881 25.7194C130.203 26.7931 130.633 27.8068 131.145 28.7533C131.561 29.5245 132.007 30.2074 132.452 30.7936C132.49 30.8445 132.528 30.8938 132.565 30.9414L132.651 31.0494L132.691 31.0057C134.346 29.1986 136.115 27.5954 137.888 26.2096L138.085 26.0565C138.729 25.5588 139.328 25.1257 139.866 24.759L140.027 24.6498L139.011 23.5017C138.939 23.4197 138.894 23.3177 138.882 23.2098L138.879 23.1691L138.79 20.4325C138.781 20.1401 139.011 19.8955 139.306 19.886Z" fill="#2E186A"/>
<path fill-rule="evenodd" clip-rule="evenodd" d="M138.868 14.9265C138.712 14.9141 138.559 14.9701 138.448 15.0799L138.423 15.1056C137.952 15.6104 137.014 17.5809 136.574 18.9024L136.561 18.9418L136.507 18.9269C136.041 18.7989 135.505 18.6714 134.908 18.5525C133.348 18.2424 131.644 18.0451 129.841 18.0146L129.662 18.0193L129.425 18.028C129.37 18.0302 129.312 18.0327 129.253 18.0354C128.83 18.0547 128.407 18.0815 128.01 18.1173C127.363 18.1756 126.851 18.2513 126.5 18.3539C126.264 18.4227 126.106 18.6427 126.118 18.8866L126.124 18.9909C126.128 19.0552 126.134 19.1372 126.143 19.2355C126.166 19.5053 126.2 19.8051 126.245 20.1276C126.375 21.0506 126.575 21.9744 126.86 22.8418C127.217 23.9296 127.685 24.8529 128.287 25.56C129.261 26.7045 130.774 27.2308 132.503 27.1775C133.993 27.1316 135.538 26.6448 136.574 25.915L136.734 25.7997C138.353 24.626 138.822 23.9682 139.312 22.3944L139.359 22.2393C139.508 21.7351 139.732 20.8325 140.014 19.6191L140.12 19.1594C140.275 18.4844 140.436 17.7669 140.596 17.0447L140.806 16.091L140.893 15.689C140.96 15.3762 140.735 15.0758 140.414 15.0501L138.868 14.9265ZM139.066 16.005L139.722 16.0574L139.614 16.5471C139.475 17.1774 139.335 17.8077 139.197 18.4123L139.025 19.1644L138.869 19.8324C138.628 20.8566 138.437 21.6114 138.315 22.0096L138.272 22.1476C137.847 23.4971 137.487 23.959 135.955 25.0527C135.097 25.6564 133.756 26.0791 132.47 26.1187C131.041 26.1627 129.842 25.7456 129.102 24.876C128.6 24.287 128.192 23.4812 127.873 22.513C127.61 21.7112 127.423 20.8465 127.301 19.981L127.286 19.8683C127.266 19.7194 127.249 19.5762 127.234 19.4397L127.218 19.2803C127.462 19.2396 127.763 19.2033 128.106 19.1723C128.485 19.1381 128.894 19.1122 129.302 19.0936L129.548 19.0833L129.831 19.0739L129.823 19.0738C131.558 19.1031 133.199 19.2931 134.698 19.5912C135.27 19.705 135.781 19.8266 136.223 19.9479L136.409 20.0002C136.467 20.0171 136.522 20.0332 136.573 20.0486L136.751 20.1048C137.049 20.2057 137.369 20.0303 137.442 19.7266C137.668 18.787 138.562 16.7904 139.031 16.0587L139.066 16.005Z" fill="#2E186A"/>
<path fill-rule="evenodd" clip-rule="evenodd" d="M139.998 16.3546C139.998 16.3546 141.242 14.4302 141.74 12.4351C142.202 10.546 141.313 8.58619 139.554 7.73872C138.079 7.0325 136.994 7.57982 136.994 7.57982C136.994 7.57982 138.559 4.94914 136.212 2.61861C135.395 1.80645 134.257 1.34741 133.084 1.38272C130.223 1.471 129.352 3.8545 129.352 3.8545C129.352 3.8545 126.295 -1.72466 120.038 1.57693C119.399 1.91239 118.688 2.83048 118.35 3.46608C116.288 7.24437 123.096 11.7289 126.65 12.0997C130.543 12.4881 132.835 11.8525 134.08 10.8991C133.155 11.4464 134.204 17.2374 139.998 16.3546Z" fill="#2E186A"/>
<path fill-rule="evenodd" clip-rule="evenodd" d="M129.018 16.8957C129.05 16.605 129.314 16.3957 129.607 16.4281C129.889 16.4594 130.095 16.7042 130.08 16.9823L130.077 17.0133L129.755 19.8822L130.282 19.744C130.557 19.672 130.838 19.8264 130.925 20.0911L130.934 20.121C131.007 20.3937 130.851 20.6729 130.585 20.7594L130.555 20.7682L129.275 21.1037C128.923 21.196 128.587 20.9188 128.606 20.5634L128.609 20.5328L129.018 16.8957Z" fill="#2E186A"/>
<path fill-rule="evenodd" clip-rule="evenodd" d="M128.019 17.2727C128.225 17.2727 128.392 17.0118 128.392 16.6901C128.392 16.3683 128.225 16.1074 128.019 16.1074C127.813 16.1074 127.646 16.3683 127.646 16.6901C127.646 17.0118 127.813 17.2727 128.019 17.2727Z" fill="#2E186A"/>
<path fill-rule="evenodd" clip-rule="evenodd" d="M131.485 17.1848C131.691 17.1848 131.858 16.9239 131.858 16.6022C131.858 16.2804 131.691 16.0195 131.485 16.0195C131.278 16.0195 131.111 16.2804 131.111 16.6022C131.111 16.9239 131.278 17.1848 131.485 17.1848Z" fill="#2E186A"/>
<path fill-rule="evenodd" clip-rule="evenodd" d="M131.745 13.1121C132.403 13.0157 132.973 13.182 133.432 13.5159C133.561 13.6094 133.672 13.7098 133.766 13.8116C133.826 13.8766 133.869 13.9315 133.897 13.9713C134.064 14.2122 134.003 14.542 133.76 14.7079C133.526 14.8677 133.21 14.8173 133.038 14.5982L133.018 14.5722C132.993 14.5357 132.919 14.4553 132.803 14.371C132.57 14.2021 132.294 14.1162 131.957 14.1529L131.9 14.1601C131.609 14.2028 131.338 14.0028 131.295 13.7134C131.252 13.4241 131.453 13.1548 131.745 13.1121Z" fill="#2E186A"/>
<path fill-rule="evenodd" clip-rule="evenodd" d="M127.574 13.0631C127.838 12.9999 128.102 13.0012 128.352 13.0391L128.413 13.0493C128.451 13.0562 128.482 13.063 128.506 13.0689C128.791 13.141 128.964 13.4293 128.891 13.7128C128.821 13.9862 128.549 14.1553 128.273 14.1024L128.232 14.0933C128.223 14.0915 128.209 14.089 128.19 14.0862C128.066 14.0674 127.933 14.0667 127.824 14.0929C127.703 14.122 127.638 14.1723 127.597 14.2859L127.589 14.3132C127.506 14.594 127.21 14.7553 126.928 14.6734C126.645 14.5915 126.482 14.2974 126.565 14.0166C126.718 13.4956 127.092 13.1789 127.574 13.0631Z" fill="#2E186A"/>
<path fill-rule="evenodd" clip-rule="evenodd" d="M131.9 21.3744C131.946 21.0855 132.219 20.8885 132.51 20.9344C132.801 20.9802 132.999 21.2516 132.953 21.5405C132.945 21.5926 132.928 21.6675 132.9 21.7586C132.855 21.9071 132.792 22.056 132.706 22.1987C132.385 22.7354 131.838 23.0315 131.119 22.896C130.829 22.8415 130.639 22.5643 130.694 22.2769C130.747 21.9997 131.008 21.8143 131.286 21.8503L131.317 21.8552C131.561 21.9012 131.683 21.8352 131.79 21.6571C131.828 21.594 131.858 21.5223 131.88 21.4504L131.89 21.4139C131.893 21.4034 131.895 21.3946 131.897 21.3879L131.9 21.3744Z" fill="#2E186A"/>
<path fill-rule="evenodd" clip-rule="evenodd" d="M181.771 55.2852H6.13184C5.83736 55.2852 5.59863 55.5223 5.59863 55.8148V121.794C5.59863 122.086 5.83736 122.323 6.13184 122.323H181.771C182.065 122.323 182.304 122.086 182.304 121.794V55.8148C182.304 55.5223 182.065 55.2852 181.771 55.2852ZM181.238 56.3443V121.264H6.66505V56.3443H181.238Z" fill="#2E186A"/>
<rect x="5.62354" y="55.6738" width="176.478" height="8.49233" fill="#2E186A"/>
<path fill-rule="evenodd" clip-rule="evenodd" d="M189.413 121.37C189.708 121.37 189.946 121.607 189.946 121.9C189.946 122.182 189.724 122.412 189.445 122.429L189.413 122.429H0.639654C0.345171 122.429 0.106445 122.192 0.106445 121.9C0.106445 121.618 0.328423 121.387 0.608324 121.371L0.639654 121.37H189.413Z" fill="#2E186A"/>
</svg>
