<svg xmlns="http://www.w3.org/2000/svg" width="299" height="145" fill="none" xmlns:v="https://vecta.io/nano"><style><![CDATA[.B{fill:#fff}.C{fill:#2e186a}.D{fill:#ef7f00}.E{fill-rule:evenodd}]]></style><g class="E"><path d="M162.289 56.684c-2.662 2.359-48.347 33.69-48.347 33.69L85.59 51.327s-4.61-5.947-8.259-6.635c-4.931-.909-18.713 1.868-18.343 8.33-.123 2.04 12.204.246 13.584 10.075l4.191 3.833 17.85 39.293c10.897 23.541 34.097 15.85 40.655 11.181 14.177-10.1 37.574-25.016 37.574-25.016l-10.553-35.705z" class="B"/><path d="M65.782 45.448c-4.752 1.674-7.665 4.237-7.538 7.517l.003.063.002-.049c-.036.594.314 1.021.886 1.312.344.175.783.315 1.423.47l.283.066 2.13.469c.995.231 1.828.465 2.621.75 3.58 1.286 5.727 3.44 6.248 7.155l.009.05c.032.15.11.286.223.391l4.08 3.732 4.478 9.822 3.157 6.934 5.136 11.304 5.016 11.092c5.012 10.827 12.96 16.077 22.589 16.603 7.067.387 14.777-1.996 19.17-5.124l.901-.639 10.338-7.118 1.263-.85.977-.655 1.324-.886 14.515-9.547 2.158-1.399 2.99-1.929 3.076-1.973c.278-.177.404-.515.311-.829l-10.552-35.705a.74.74 0 0 0-1.201-.343l-.074.064c-1.341 1.126-9.746 7.033-22.824 16.086l-3.617 2.501-12.222 8.428-8.943 6.146-27.929-38.464-.078-.1-.128-.16-.049-.06c-.191-.235-.41-.496-.654-.776-.696-.802-1.451-1.604-2.242-2.354-1.164-1.105-2.304-2.003-3.394-2.623-.759-.431-1.484-.722-2.175-.852-2.747-.506-7.597.066-11.539 1.429l-.146.051zm11.413-.03c.511.096 1.088.328 1.714.684.971.552 2.022 1.38 3.107 2.41.753.715 1.477 1.483 2.144 2.251l.194.225.268.318.209.254.173.217 28.338 39.029a.74.74 0 0 0 .98.2l.178-.12 7.435-5.108 5.883-4.05 8.93-6.162 6.999-4.846 18.025-12.695.116-.088 10.087 34.13-2.614 1.677-4.447 2.873-1.412.916-14.49 9.544-.661.442-1.463.982-1.672 1.129-10.378 7.175c-4.128 2.939-11.508 5.22-18.23 4.852-9.088-.496-16.547-5.423-21.324-15.742L91.5 97.54l-3.62-7.977-4.001-8.798-6.443-14.14-.027-.053a.74.74 0 0 0-.146-.185l-3.999-3.658-.022-.131c-.704-4.083-3.222-6.53-7.15-7.942-.797-.287-1.623-.522-2.58-.75l-.301-.07-2.205-.486-.18-.043c-.489-.121-.815-.226-1.019-.33l-.054-.029-.03-.018.002.051c-.143-2.502 2.357-4.694 6.688-6.191 3.717-1.285 8.315-1.827 10.782-1.372z" class="C"/><path d="M64.584 10.707c-.172-.762-1.479-1.229-2.219-1.278-2.096-1.278-6.977-2.826-15.729 1.892-8.506 4.595-14.694 4.349-18.368.688-.69-.688-1.874-.049-1.627.909l2.786 11.549a5.64 5.64 0 0 0 1.381 2.556c2.761 2.949 9.615 4.841 19.502-.491 5.128-2.777 9.837-2.973 13.091-2.482l13.782 62.957 4.043-.835-16.642-75.465z" fill="#ff8d7e"/><path d="M70.007 62.09s-2.17-.762-1.824 2.58c.345 3.317 3.476 5.824 7.47 3.416 3.969-2.408 3.402-3.858 1.307-4.816s-5.818.958-5.818.958" class="B"/><path d="M68.841 61.385c.401-.135.803-.133 1.179-.053.1.021.179.044.234.063.385.135.588.556.452.94a.74.74 0 0 1-.902.464l-.048-.015-.042-.01c-.139-.029-.286-.03-.399.008-.317.107-.523.567-.394 1.813.333 3.2 3.165 4.782 6.35 2.862l.193-.119c1.576-.982 2.324-1.774 2.384-2.29.039-.326-.312-.705-1.195-1.108-.442-.202-1.059-.251-1.806-.151-.626.084-1.309.267-2.007.519l-.988.4-.12.055-.158.075-.091.045a.74.74 0 0 1-.997-.317c-.187-.362-.045-.806.318-.993l.059-.03.38-.179 1.093-.443c.79-.285 1.571-.494 2.314-.594 1.001-.134 1.885-.064 2.62.272 1.4.64 2.181 1.483 2.047 2.621-.133 1.124-1.21 2.241-3.279 3.496-4.149 2.502-8.148.268-8.589-3.971-.192-1.861.318-2.999 1.393-3.361z" class="C"/><path d="M67.296 57.864s-3.106.221-2.515 4.005 4.906 5.48 9.418 2.31c4.487-3.17 3.748-4.792 1.233-5.676s-6.731 1.696-6.731 1.696" class="B"/><path d="M67.244 57.128a.74.74 0 0 1 .79.683.74.74 0 0 1-.642.784l-.043.004a1.79 1.79 0 0 0-.272.053 2.39 2.39 0 0 0-.679.291c-.748.474-1.119 1.322-.886 2.813.535 3.423 4.383 4.546 8.259 1.822 1.967-1.389 2.886-2.466 2.932-3.143.029-.431-.428-.853-1.518-1.236-.526-.185-1.226-.188-2.057-.02-.715.145-1.49.408-2.287.756l-1.27.619-.156.086-.141.079-.186.109a.74.74 0 0 1-1.017-.242c-.214-.347-.105-.801.243-1.014l.06-.036.493-.277 1.381-.673c.885-.387 1.757-.682 2.586-.85 1.071-.217 2.028-.212 2.844.075 1.644.578 2.587 1.45 2.501 2.726-.085 1.257-1.249 2.62-3.554 4.248-4.706 3.307-9.855 1.805-10.575-2.799-.323-2.063.302-3.492 1.554-4.285.353-.224.727-.377 1.101-.473a3.14 3.14 0 0 1 .538-.096z" class="C"/><path d="M69.342 50.909s-7.668 3.219-7.051 7.2c.616 3.956 5.325 5.603 10.01 2.285s3.92-4.988 1.307-5.922-7.026 1.769-7.026 1.769" class="B"/><path d="M69.055 50.23a.74.74 0 0 1 .969.393c.153.362-.006.777-.355.948l-.208.092-.114.052-.775.375a21.1 21.1 0 0 0-2.353 1.385c-2.218 1.521-3.418 3.092-3.196 4.521.554 3.557 4.774 4.684 8.85 1.797 2.063-1.461 3.029-2.589 3.081-3.306.033-.464-.449-.911-1.595-1.321-.555-.199-1.296-.202-2.175-.022-.744.152-1.551.427-2.38.789l-1.328.649-.24.132-.22.127-.047.028a.74.74 0 0 1-1.017-.242c-.214-.347-.105-.801.243-1.014l.139-.083.371-.209.066-.036 1.439-.703c.917-.401 1.819-.708 2.677-.884 1.122-.23 2.123-.225 2.971.078 1.7.607 2.665 1.504 2.572 2.813-.092 1.294-1.302 2.706-3.699 4.404-4.894 3.466-10.427 1.988-11.169-2.774-.336-2.169 1.175-4.148 3.82-5.961a22.57 22.57 0 0 1 2.519-1.484 22.72 22.72 0 0 1 .83-.402l.215-.096.111-.048z" class="C"/><path d="M58.988 53.023c.69 4.472 6.016 6.315 11.316 2.605 5.301-3.735 4.413-5.652 1.455-6.684s-6.829 2.801-6.829 2.801" class="B"/><path d="M69.881 48.096c.748-.121 1.461-.079 2.122.152 1.886.658 2.958 1.644 2.864 3.072s-1.447 3.014-4.137 4.911c-5.492 3.845-11.656 2.197-12.473-3.096-.062-.402.215-.779.619-.841a.74.74 0 0 1 .843.617c.631 4.089 5.485 5.386 10.158 2.115l.224-.159c2.198-1.581 3.236-2.82 3.29-3.643.038-.583-.545-1.12-1.876-1.584-.413-.144-.879-.172-1.396-.088-.898.145-1.901.616-2.926 1.314a14.27 14.27 0 0 0-1.267.973l-.293.26-.172.161c-.299.296-.767.294-1.055.006s-.286-.756.003-1.042l.086-.083c.11-.104.267-.247.465-.417.426-.366.896-.732 1.399-1.074 1.188-.808 2.374-1.365 3.523-1.551z" class="C"/><path d="M72.966 46.24s-6.04-7.053-3.723-11.009c2.318-3.932 3.575 3.17 5.745 3.637s10.601 12.434 10.601 12.434" class="B"/><path d="M68.607 34.858c.747-1.267 1.614-1.806 2.58-1.437.635.243 1.115.791 1.75 1.803l.062.099.134.219.436.729c.748 1.238 1.188 1.772 1.551 1.87l.025.006c1.069.23 2.812 2.016 5.369 5.182l.1.124.93 1.171 2.921 3.859.322.439.815 1.124.593.831c.235.333.154.793-.18 1.027a.74.74 0 0 1-1.03-.18l-.378-.53-.426-.593-.467-.644-.123-.168-3.214-4.26-.737-.931-.35-.434c-2.168-2.674-3.859-4.413-4.436-4.572l-.022-.005c-.928-.2-1.49-.839-2.466-2.447l-.405-.677-.223-.367-.1-.159c-.441-.692-.761-1.056-.983-1.141-.047-.018-.067-.016-.139.029-.169.105-.388.358-.634.776-.534.913-.561 2.136-.125 3.618.337 1.145.933 2.386 1.714 3.66l1.421 2.078.142.186.2.256.124.155.17.206c.265.31.228.775-.082 1.039a.74.74 0 0 1-1.011-.047l-.032-.035-.162-.195-.033-.041-.497-.636-1.502-2.196c-.844-1.375-1.493-2.728-1.872-4.014-.54-1.836-.505-3.459.268-4.778z" class="C"/><path d="M298.135 143.6c-3.895-8.035-32.125-26.932-32.125-26.932L243.624 143.6h54.511z" class="B"/><path d="M265.441 116.198l-22.386 26.932a.74.74 0 0 0 .569 1.208h54.511a.74.74 0 0 0 .666-1.058c-1.342-2.77-5.345-6.781-11.445-11.79l-.186-.152c-1.386-1.134-2.864-2.307-4.422-3.511-3.572-2.76-7.397-5.558-11.222-8.25l-.986-.691-2.287-1.585-1.034-.707-.796-.538a.74.74 0 0 0-.982.142zm-20.243 26.665l20.954-25.21.588.4.89.61 3.043 2.119c3.809 2.68 7.617 5.465 11.169 8.21l4.39 3.485.529.436c4.967 4.102 8.469 7.512 10.093 9.95h-51.656z" class="C"/><path d="M246.854 97.279c-13.757-10.468-59.738-38.482-64.989-41.48-6.706-3.833-24.088-1.474-47.608 12.532l2.761 28.972-35.551 46.296h145.732l20.981-26.932-21.326-19.389z" fill="#ffc29e"/><path d="M201.983 58.724l-10.947 13.048c-5.917 7.053-5.177 17.644 1.849 23.615l.37.295c5.67 4.595 13.165 2.728 17.973.688 2.811-1.18 5.251-3.145 7.051-5.603l10.478-14.351-26.774-17.693z" class="B"/><path d="M201.415 58.251l-10.947 13.048c-6.203 7.394-5.367 18.441 1.937 24.649l.388.31c2.76 2.237 6.089 3.165 9.806 2.993 2.92-.135 5.938-.937 8.918-2.202 2.907-1.22 5.464-3.258 7.359-5.846l10.479-14.352c.248-.339.162-.816-.189-1.048l-26.775-17.693a.74.74 0 0 0-.976.142zm.71 1.452l25.579 16.903-10.024 13.728c-1.738 2.373-4.08 4.241-6.74 5.357-2.834 1.202-5.687 1.961-8.41 2.087-3.32.154-6.25-.646-8.688-2.571l-.496-.396c-6.664-5.664-7.43-15.788-1.743-22.567l10.522-12.543z" class="C"/><path d="M243.008 56.881s7.47 3.096 3.476 9.289-10.774-.958-10.774-.958l4.881-9.117 2.417.786z" class="B"/><path d="M239.939 55.747l-4.882 9.117c-.149.28-.103.623.115.853l.122.124.488.46c.474.427 1.002.854 1.573 1.254 1.733 1.213 3.49 1.928 5.191 1.872 1.793-.059 3.353-.989 4.56-2.86 2.278-3.531 1.432-6.544-1.3-8.808-.547-.454-1.13-.84-1.713-1.162l-.147-.08-.654-.318-.055-.02-2.416-.786a.74.74 0 0 0-.882.354zm1.013 1.24l1.793.584.111.05.034.016.486.25a9.62 9.62 0 0 1 1.484 1.006c2.207 1.829 2.829 4.045 1.002 6.877-.951 1.473-2.071 2.141-3.365 2.183-1.318.043-2.797-.559-4.292-1.605-.518-.362-1-.751-1.431-1.14l-.151-.138 4.329-8.083z" class="C"/><path d="M229.94 27.294c-2.317-1.13-17.701-2.58-21.128 3.588-5.942 10.714-9.295 23.812-10.281 30.004s26.059 13.761 27.736 13.835 4.117-.958 4.117-.958l10.429-15.948c-.025 0 9.738-20.396-10.873-30.52z" class="B"/><path d="M219.748 25.615c-5.61.329-9.811 1.841-11.533 4.819l-.051.091c-5.067 9.137-8.965 21.458-10.364 30.245-.517 3.248 4.419 6.505 13.067 9.911l.263.103c5.771 2.255 13.727 4.612 15.104 4.673.437.019.922-.023 1.449-.118.504-.09 1.034-.225 1.574-.392a17.93 17.93 0 0 0 .849-.286l.158-.059.409-.161c.135-.057.25-.153.331-.276l10.428-15.948.022-.035c.014-.024.026-.048.037-.072l.017-.043.08-.183a20.44 20.44 0 0 0 .268-.656c.279-.713.554-1.514.812-2.4 1.466-5.043 1.716-10.327-.033-15.301-1.864-5.301-5.872-9.704-12.368-12.895-1.516-.739-6.324-1.263-10.519-1.018zm-10.441 5.899l.152-.275c1.368-2.462 5.172-3.847 10.376-4.152 3.962-.232 8.547.268 9.78.869 6.152 3.022 9.891 7.129 11.624 12.059 1.632 4.642 1.396 9.629.008 14.403-.224.771-.462 1.474-.703 2.105l-.066.17-.21.518-.11.253-10.267 15.701-.15.058a16.26 16.26 0 0 1-.922.316c-.486.151-.959.271-1.396.349-.429.077-.808.11-1.124.096-1.16-.051-9.007-2.376-14.629-4.573l-.475-.187c-7.697-3.056-12.273-6.09-11.934-8.223 1.36-8.54 5.142-20.54 10.046-29.487z" class="C"/><path d="M238.373 56.709c-1.75.762-7.963 6.61-10.108 9.633 0 0-7.224-6.094-19.107-10.96 0 0-6.558-2.433-9.468-2.678 0 0-4.117 12.066-1.257 20.273s14.694 10.886 21.4 9.24c6.706-1.622 8.259-3.047 11.045-6.512 2.762-3.465 11.785-16.931 11.785-16.931l-4.29-2.064z" fill="#968bb4"/><path d="M240.789 60.567s5.695-4.055 9.294-9.19c3.378-4.816 3.107-11.377-.887-15.727-3.353-3.637-7.372-4.227-7.372-4.227s6.608-6.561 1.529-15.211c-1.775-3.047-4.783-5.234-8.235-6.02-8.432-1.941-12.869 4.448-12.869 4.448S217.564-4.11 196.657.829c-2.12.491-4.906 2.678-6.385 4.276-8.999 9.584 7.569 27.989 17.702 31.749 11.144 4.128 17.628 3.023 22.238 1.72-3.254.516-6.78 18.086 10.577 21.993zm-30.785-10.26a.74.74 0 0 1 1.015-.25c.337.203.454.63.274.973l-.023.039-4.808 7.942 3.227 1.342c.364.151.542.558.414.924l-.016.041a.74.74 0 0 1-.927.412l-.04-.016-4.019-1.671c-.403-.168-.571-.642-.371-1.022l.022-.039 5.252-8.674zm-2.394-.171c.36-.909.179-1.831-.404-2.06s-1.347.322-1.706 1.231-.179 1.832.404 2.061 1.347-.322 1.706-1.232zm10.296 2.981c.359-.909.178-1.832-.404-2.061s-1.347.322-1.706 1.232-.179 1.831.404 2.06 1.346-.322 1.706-1.231zm1.404-9.475a.74.74 0 0 1 .887-.553c1.383.318 2.466 1.013 3.269 1.965.398.471.701.974.923 1.478a4.38 4.38 0 0 1 .256.716.74.74 0 0 1-.547.889.74.74 0 0 1-.88-.503l-.021-.077-.022-.071c-.035-.107-.081-.228-.14-.36a4.61 4.61 0 0 0-.701-1.123c-.604-.716-1.411-1.234-2.47-1.477-.398-.092-.646-.487-.554-.884zm-11.233-4.303c.863-.172 1.742.01 2.59.404a5.18 5.18 0 0 1 .824.47c.33.24.403.701.162 1.03a.74.74 0 0 1-.995.188l-.099-.067-.081-.051a4.47 4.47 0 0 0-.437-.234c-.589-.274-1.172-.394-1.675-.294-.391.078-.736.289-1.045.678a.74.74 0 0 1-1.039.121c-.32-.253-.375-.716-.121-1.035.526-.664 1.18-1.064 1.916-1.21zm5.814 26.89l-.212.091-.047.019c-.284.115-.619.23-1.002.339-1.006.286-2.143.468-3.391.498a.74.74 0 0 0-.72.798c.011.136.042.352.102.624a5.87 5.87 0 0 0 .458 1.327l.039.076c.664 1.29 1.774 2.078 3.343 2.019l.051-.003-.039-.001c1.811.091 2.685-1.113 2.779-2.909.031-.579-.018-1.184-.119-1.785l-.062-.338-.033-.154-.027-.118a.74.74 0 0 0-1.023-.53l-.097.047zm-.171 1.652l.017.137a6.37 6.37 0 0 1 .038 1.013c-.057 1.083-.4 1.555-1.228 1.513l-.04-.001-.04.001c-.992.058-1.631-.399-2.061-1.27l-.056-.118c-.071-.159-.133-.324-.184-.492l-.017-.058.188-.016a14.67 14.67 0 0 0 2.698-.494l.549-.169.136-.047z" class="C"/><path d="M214.878 128.07l26.577 3.489 5.942 12.041h36.143s-31.237-26.195-41.025-29.046c-10.995-4.152-22.016-.196-23.914 2.04-2.096 2.482-8.827 8.846-12.377 9.362s-7.741-.638-7.667 1.499c.024.983-.419 4.129 4.881 3.711 3.92-.295 7.939-.639 11.44-3.096z" class="B"/><path d="M227.021 112.452c5.095-.875 10.494-.524 15.531 1.329l.2.074.082.025c3.608 1.094 9.967 5.078 18.4 11.251l.785.577 3.556 2.657c3.992 3.021 8.094 6.244 12.104 9.479l.751.606 3.234 2.638 1.318 1.088 1.034.86a.74.74 0 0 1-.433 1.3l-.043.001h-36.143a.74.74 0 0 1-.641-.368l-.023-.044-5.767-11.687-25.904-3.401-.072.049c-1.577 1.046-3.318 1.753-5.313 2.217l-.201.045-.199.044c-1.557.334-2.984.496-5.611.696l-.17.013c-3.173.25-4.924-.687-5.484-2.498-.157-.507-.197-.926-.196-1.579l.002-.329-.001-.014c-.037-1.069.624-1.717 1.731-1.966l.139-.03c.555-.111 1.121-.139 2.292-.13l1.355.014a25.36 25.36 0 0 0 1.443-.021 13.49 13.49 0 0 0 1.34-.121c1.43-.208 3.72-1.602 6.37-3.783l.272-.226c2.048-1.713 4.151-3.767 5.277-5.1 1.21-1.426 4.836-2.954 8.985-3.666zm15.231 2.792c-4.839-1.828-10.057-2.184-14.981-1.339-3.838.658-7.172 2.064-8.105 3.164l-.164.19c-1.239 1.43-3.373 3.496-5.434 5.206l-.14.116c-2.852 2.347-5.313 3.845-7.098 4.105-.406.059-.832.099-1.289.125l-.198.009a25.68 25.68 0 0 1-1.417.024l-1.428-.015c-1.127-.008-1.636.018-2.087.116l-.037.008c-.462.104-.579.205-.579.453l.001.102v.21c-.005.579.02.899.129 1.251.33 1.066 1.385 1.644 3.842 1.47l.436-.033c2.573-.198 3.933-.359 5.45-.697 1.969-.438 3.646-1.115 5.148-2.139l.159-.109.03-.02.04-.023.041-.02.042-.017.042-.015.043-.012.023-.005.064-.011.044-.004.044-.002.057.002.044.005 26.577 3.489a.74.74 0 0 1 .544.362l.023.044 5.739 11.629h33.639l-1.424-1.171-2.086-1.701-.49-.396c-4.235-3.429-8.589-6.857-12.816-10.056l-3.541-2.646-.523-.384c-8.409-6.17-14.786-10.177-18.204-11.216l-.105-.031-.055-.018z" class="C"/><path d="M219.981 119.764s-6.065 6.118-5.893 8.133 2.934 6.193 5.005 6.193 5.177-.147 5.177-.147" class="B"/><path d="M220.5 119.239c.279.275.293.716.04 1.007l-.051.054-.229.235-.176.183-.484.511-2.001 2.245-.772.944-.143.182c-1.209 1.552-1.898 2.774-1.859 3.235.168 1.954 2.837 5.518 4.268 5.518l.41-.002 1.255-.021.541-.014.559-.017 1.019-.036.64-.025.718-.032a.74.74 0 0 1 .774.702c.02.406-.295.752-.703.771l-.522.023-1.299.051-.864.029-.557.015-.611.015-1.36.015c-2.343 0-5.517-4.237-5.742-6.867-.085-.994.699-2.382 2.165-4.264l.95-1.17 2.053-2.303.205-.218.29-.305.328-.34.112-.114a.74.74 0 0 1 1.046-.007z" class="C"/><path d="M224.887 121.435s-4.66 4.915-4.586 6.708c.05 1.794 2.367 5.726 4.734 6.316s6.139-.615 6.139-.615" class="B"/><path d="M225.395 120.899c.297.28.31.746.03 1.042l-.191.205-.244.266-.267.297-1.55 1.832-.767 1.004-.124.171c-.804 1.13-1.257 2.019-1.241 2.407.048 1.777 2.387 5.176 4.173 5.621.517.128 1.165.167 1.911.123.755-.045 1.571-.171 2.399-.354l1.037-.257.184-.052.192-.058c.4-.128.817.086.941.474s-.09.802-.479.927l-.175.053-.206.059-.06.017-1.115.277a16.94 16.94 0 0 1-2.63.385c-.884.053-1.676.006-2.358-.164-2.478-.618-5.227-4.612-5.293-7-.035-.861.56-2.001 1.646-3.495l.807-1.055 1.602-1.894.187-.208.26-.287.285-.306c.281-.296.749-.309 1.046-.03z" class="C"/><path d="M229.867 123.499s-4.758 4.522-2.317 7.028c3.279 2.924 5.794 3.539 7.322 3.539 1.677 0 4.66-2.9 4.66-2.9" class="B"/><g class="C"><path d="M229.358 122.965a.74.74 0 0 1 1.045.025c.282.295.271.762-.025 1.042l-.042.042-.072.071-.121.125-.201.213a14.33 14.33 0 0 0-.985 1.189c-.61.826-1.05 1.629-1.248 2.349-.224.811-.128 1.442.324 1.941l.033.035.101.09c2.579 2.268 4.798 3.212 6.619 3.241h.087c.308 0 .8-.186 1.396-.54.351-.207.725-.464 1.114-.759l1.165-.96.149-.134.135-.124.184-.173a.74.74 0 0 1 1.046.013c.285.292.279.758-.013 1.043l-.142.134-.14.129-.235.212-1.253 1.033a13.46 13.46 0 0 1-1.254.854c-.806.477-1.517.747-2.152.747-2.217 0-4.804-1.078-7.683-3.609l-.133-.118-.037-.036c-.896-.919-1.097-2.105-.738-3.409.254-.923.775-1.874 1.483-2.833.347-.469.717-.911 1.087-1.312l.147-.158.359-.363z"/><path d="M231.868 127.473a.74.74 0 0 1 .915-.505c.351.1.569.436.532.786l-.005.032.002.002.004.011c.026.082.092.192.22.33.446.48 1.365.999 2.877 1.503 1.332.444 3.049.848 5.187 1.2.403.066.676.445.609.847a.74.74 0 0 1-.85.607l-.436-.073c-2.012-.347-3.66-.743-4.979-1.183-3.12-1.04-4.275-2.283-4.101-3.438.006-.044.015-.084.025-.119z"/></g><path d="M173.457 125.956c-7.544-20.322-25.665-18.282-25.665-18.282V97.279h-27.046v10.395s-18.121-2.04-25.665 18.258c0 0-16.592-3.195-24.605 17.447h127.611c-8.038-20.642-24.63-17.423-24.63-17.423z" class="B"/><path d="M120.745 96.542l-.043.001a.74.74 0 0 0-.696.736l-.001 9.61h-.015c-1.393-.05-3.1.05-5.013.391-3.121.557-6.196 1.669-9.075 3.467l-.155.097c-4.744 3.01-8.559 7.656-11.115 14.187l-.035.089-.093-.011c-1.583-.167-3.489-.134-5.594.236a21.83 21.83 0 0 0-8.669 3.558c-4.335 2.986-7.905 7.639-10.456 14.21a.74.74 0 0 0 .69 1.003h127.611a.74.74 0 0 0 .69-1.004c-2.554-6.559-6.123-11.206-10.452-14.188a21.83 21.83 0 0 0-8.678-3.559c-2.109-.37-4.019-.402-5.607-.233l-.101.011-.034-.088c-2.583-6.61-6.453-11.291-11.269-14.302-2.88-1.8-5.955-2.914-9.076-3.472l-.204-.036c-1.764-.301-3.345-.397-4.659-.361l-.165.005v-9.61a.74.74 0 0 0-.74-.737h-27.046zm.74 1.474h25.567v9.658a.74.74 0 0 0 .779.736l.222-.019.146-.01c1.354-.082 3.104-.005 5.099.351 2.943.526 5.841 1.576 8.551 3.27 4.694 2.934 8.446 7.562 10.914 14.21a.74.74 0 0 0 .791.475l.185-.03.137-.02.321-.039c1.457-.155 3.23-.126 5.193.219a20.35 20.35 0 0 1 8.093 3.32l.14.098c3.734 2.616 6.88 6.584 9.249 12.125l.119.282H71.569l.027-.065c2.407-5.736 5.637-9.81 9.486-12.461 2.563-1.766 5.297-2.829 8.085-3.319 1.959-.345 3.728-.375 5.181-.221a10.44 10.44 0 0 1 .386.047l.177.027.028.006a.74.74 0 0 0 .834-.468c2.468-6.64 6.22-11.262 10.914-14.192 2.709-1.691 5.607-2.739 8.55-3.265 1.931-.344 3.631-.426 4.967-.357l.234.014c.109.007.184.014.224.018l.043.004a.74.74 0 0 0 .779-.736v-9.658z" class="C"/><path d="M163.151 130.281c-5.67-15.26-19.304-13.736-19.304-13.736V94.183h-20.315v22.362s-13.634-1.548-19.305 13.736c0 0-12.475-2.408-18.49 13.123h95.931c-6.041-15.531-18.516-13.123-18.516-13.123z" class="B"/><path d="M123.531 93.446l-.043.001a.74.74 0 0 0-.697.736v21.583h-.008c-1.026-.024-2.258.056-3.628.3-2.366.422-4.699 1.264-6.883 2.627l-.141.089c-3.52 2.24-6.363 5.668-8.294 10.457l-.093.235.068.007c-1.206-.128-2.655-.104-4.254.177-2.269.399-4.497 1.264-6.582 2.7-3.292 2.267-6 5.799-7.93 10.78a.74.74 0 0 0 .69 1.003h95.93a.74.74 0 0 0 .69-1.004c-1.933-4.969-4.639-8.497-7.926-10.764-2.09-1.443-4.324-2.312-6.6-2.713l-.184-.032c-1.469-.242-2.807-.269-3.94-.161l-.073.007-.013-.034c-1.957-4.951-4.88-8.467-8.515-10.736-2.187-1.365-4.523-2.21-6.893-2.633l-.178-.031c-1.299-.221-2.468-.295-3.448-.273V94.183a.74.74 0 0 0-.74-.737h-20.315zm.74 1.474h18.836v21.625a.74.74 0 0 0 .822.732l.085-.007.148-.01c1.004-.06 2.304-.004 3.79.262 2.192.392 4.351 1.172 6.369 2.432 3.498 2.183 6.295 5.627 8.137 10.583.12.325.449.52.789.475l.142-.023.121-.017c.065-.009.135-.017.212-.025 1.079-.114 2.394-.092 3.851.165 2.074.365 4.108 1.157 6.016 2.473l.132.092c2.715 1.914 5.013 4.794 6.763 8.798l.083.191H86.834l.084-.194c1.776-4.078 4.122-6.989 6.899-8.901a15.1 15.1 0 0 1 5.998-2.461c1.453-.255 2.765-.277 3.841-.163l.146.017c.022.002.045.005.066.008l.15.022.069.011a.74.74 0 0 0 .834-.468c1.842-4.964 4.639-8.412 8.136-10.594 2.015-1.257 4.17-2.036 6.359-2.425 1.427-.255 2.686-.316 3.676-.266l.237.015.163.014a.74.74 0 0 0 .779-.736V94.92z" class="C"/><path d="M154.079 134.041c-3.994-10.739-13.56-9.657-13.56-9.657V95.313h-14.275v29.071s-9.591-1.082-13.56 9.657c0 0-8.777-1.696-12.993 9.215h67.43c-4.265-10.911-13.042-9.215-13.042-9.215z" class="B"/><path d="M126.243 94.576l-.043.001a.74.74 0 0 0-.696.736v28.302h-.109a13.62 13.62 0 0 0-2.259.217 13.81 13.81 0 0 0-4.909 1.87l-.13.082c-2.467 1.575-4.464 3.968-5.83 7.289l-.067.167-.026-.002c-2.292-.192-4.959.318-7.511 2.068-2.358 1.617-4.292 4.138-5.663 7.685a.74.74 0 0 0 .69 1.002h67.43c.521 0 .878-.521.689-1.005-1.377-3.523-3.307-6.033-5.652-7.651l-.134-.091c-2.488-1.672-5.076-2.181-7.318-2.018l-.144.012-.068-.166c-1.391-3.367-3.427-5.78-5.942-7.354a13.8 13.8 0 0 0-4.921-1.886l-.156-.027c-.775-.13-1.485-.187-2.107-.192h-.109V95.313a.74.74 0 0 0-.74-.737h-14.275zm.74 1.474h12.795v28.333a.74.74 0 0 0 .779.736l.11-.01.088-.006c.69-.041 1.588-.002 2.614.181 1.513.271 3.003.811 4.395 1.683 2.411 1.509 4.342 3.892 5.62 7.329a.74.74 0 0 0 .79.475l.132-.021.198-.025c2.038-.216 4.478.214 6.81 1.823l.112.078c1.785 1.264 3.312 3.136 4.502 5.715l.081.177h-65.213l.008-.017c1.221-2.737 2.817-4.692 4.697-5.981 2.272-1.558 4.647-1.994 6.647-1.805l.199.021.108.014.087.014a.74.74 0 0 0 .835-.469c1.275-3.449 3.211-5.835 5.633-7.343 1.389-.865 2.876-1.401 4.386-1.67.975-.173 1.834-.216 2.509-.184l.163.009.135.012a.74.74 0 0 0 .78-.736V96.051z" class="C"/><g class="D"><path d="M120.4 106.076l2.687 10.444c.148.541.912.516 1.036-.024l2.391-5.087s3.131 11.156 7.594 11.451 8.826-11.623 8.826-11.623l2.022 5.431a.54.54 0 0 0 1.035-.074l2.737-10.296s2.391-17.423-14.892-16.096-13.436 15.874-13.436 15.874z"/><path d="M113.127 58.773s-13.215 17.84-11.513 33.788h29.166V58.38l-17.653.393zm41.543 0s13.215 17.84 11.514 33.788h-29.166V58.38l17.652.393z"/></g><path d="M145.794 92.561c11.193-20.052 9.985-36 6.706-46.886s-10.947-23.074-18.244-23.074-14.965 12.164-18.245 23.074-4.659 26.81 6.534 46.886l-3.131 6.709h29.511l-3.131-6.709z" class="B"/><path d="M134.257 21.864c-3.728 0-7.615 2.837-11.226 7.747-3.212 4.368-6.02 10.172-7.727 15.853-1.947 6.478-2.776 13.133-2.189 20.277l.023.269c.733 8.439 3.438 17.197 8.439 26.326l.139.254-2.972 6.369a.74.74 0 0 0 .671 1.048h29.511l.042-.001a.74.74 0 0 0 .629-1.047l-2.973-6.369.143-.26c5.058-9.222 7.8-18.075 8.545-26.585.628-7.181-.173-13.874-2.103-20.282-1.708-5.672-4.517-11.475-7.727-15.843l-.217-.293c-3.551-4.736-7.356-7.464-11.008-7.464zm0 1.474c6.207 0 13.895 10.463 17.536 22.549 1.878 6.236 2.656 12.744 2.045 19.73-.742 8.482-3.523 17.33-8.689 26.586l-.023.045c-.093.197-.094.426-.002.624l2.642 5.66h-27.191l2.641-5.66c.1-.214.091-.463-.024-.669-5.16-9.256-7.906-18.094-8.603-26.582-.57-6.952.236-13.424 2.132-19.734 3.634-12.093 11.323-22.549 17.536-22.549z" class="C"/><path d="M134.256 63.835c4.603 0 8.333-4.423 8.333-9.878s-3.73-9.879-8.333-9.879-8.333 4.423-8.333 9.879 3.731 9.878 8.333 9.878zm-.001 4.472c.763 0 1.381-.737 1.381-1.647s-.618-1.646-1.381-1.646-1.38.737-1.38 1.646.618 1.647 1.38 1.647zm5.351 0c.762 0 1.381-.737 1.381-1.647s-.619-1.646-1.381-1.646-1.381.737-1.381 1.646.618 1.647 1.381 1.647zm-11.119 0c.762 0 1.38-.737 1.38-1.647s-.618-1.646-1.38-1.646-1.381.737-1.381 1.646.618 1.647 1.381 1.647z" class="D"/><path d="M134.256 60.468c3.472 0 6.287-3.345 6.287-7.47s-2.815-7.47-6.287-7.47-6.287 3.345-6.287 7.47 2.815 7.47 6.287 7.47z" class="B"/><path d="M135.736 21.814V10.117v-.098a1.75 1.75 0 0 0 .345-1.057c0-1.008-.814-1.818-1.824-1.818a1.82 1.82 0 0 0-1.825 1.818 1.75 1.75 0 0 0 .345 1.057v.098V21.79c-3.057.614-6.114 3.17-8.925 6.61 3.156-.737 6.83-1.13 11.07-.885 3.797.221 7.15.737 10.109 1.45-2.86-3.686-6.09-6.463-9.295-7.151zm11.826 13.712c-3.558-1.229-7.645-2.285-13.15-2.507-5.602-.221-9.881 1.057-13.367 2.457a53.51 53.51 0 0 0-3.726 8.846c4.207-2.089 9.328-4.3 17.213-4.153 7.5.147 12.645 1.818 16.564 3.612-.962-2.875-2.116-5.529-3.534-8.257zm-2.649 56.962l1.448-2.826c-2.445-1.032-5.935-1.868-12.156-1.819-6.292-.049-9.806.811-12.252 1.868.452.934.926 1.868 1.449 2.801 0 0 5.532-1.106 10.803-1.057 5.176-.074 10.708 1.032 10.708 1.032z" class="D"/></g><path d="M183.121 131.559h28.574v6.34h-28.574z" class="D"/><g class="C E"><path d="M205.927 130.576c.528 0 .959.414.985.934l.001.049v6.34c0 .543-.442.983-.986.983-.529 0-.96-.414-.985-.934l-.002-.049v-6.34c0-.543.442-.983.987-.983z"/><path d="M166.135 135.614v3.219h-14.078c-.419-.737-1.208-1.253-2.12-1.253-1.332 0-2.416 1.081-2.416 2.408s1.084 2.408 2.416 2.408c.912 0 1.701-.516 2.12-1.253h14.078v2.064h61.537v-7.618h-61.537v.025z"/><path d="M216.701 134.631c.528 0 .959.414.985.934l.001.049v7.618c0 .542-.441.982-.986.982-.528 0-.959-.413-.985-.933l-.001-.049v-7.618c0-.543.441-.983.986-.983z"/><path d="M284.68 142.863c.361 0 .654.33.654.737 0 .393-.272.714-.616.736l-.038.001H.988c-.361 0-.654-.33-.654-.737 0-.393.272-.714.616-.736l.038-.001H284.68z"/></g><circle cx="31" cy="95" r="31" fill="#3a55d1"/><path d="M20.76 110v-4.432l10.355-9.588c1.326-1.269 2.334-2.372 3.026-3.31a5.16 5.16 0 0 0 1.037-3.139c0-1.278-.426-2.287-1.278-3.025-.843-.748-1.903-1.122-3.182-1.122-1.326 0-2.396.403-3.21 1.207-.805.795-1.203 1.889-1.193 3.281h-5.838c0-1.904.431-3.556 1.293-4.957s2.064-2.486 3.608-3.253c1.553-.767 3.348-1.151 5.384-1.151 2.083 0 3.897.369 5.44 1.108 1.553.729 2.761 1.742 3.622 3.04.862 1.288 1.293 2.775 1.293 4.46a8.56 8.56 0 0 1-.653 3.253c-.436 1.07-1.203 2.258-2.301 3.565-1.089 1.297-2.633 2.855-4.631 4.674l-4.247 4.162v.199h12.216V110H20.76z" class="B"/></svg>