<svg width="89" height="77" viewBox="0 0 89 77" fill="none" xmlns="http://www.w3.org/2000/svg">
<path d="M67.6816 0.700553C70.4762 5.12617 72.3718 10.0589 73.26 15.2171C74.1483 20.3753 74.0119 25.6579 72.8586 30.7634C71.7053 35.8688 69.5577 40.6971 66.5384 44.9726C63.5191 49.2481 59.6872 52.887 55.2616 55.6816C50.836 58.4762 45.9033 60.3718 40.7451 61.26C35.5869 62.1483 30.3042 62.0119 25.1988 60.8586C20.0933 59.7053 15.265 57.5576 10.9895 54.5384C6.71404 51.5191 3.07512 47.6872 0.280518 43.2616L12.8443 35.3281C14.5971 38.1038 16.8794 40.5071 19.5609 42.4008C22.2425 44.2944 25.2708 45.6414 28.4729 46.3648C31.675 47.0881 34.9882 47.1737 38.2234 46.6166C41.4586 46.0594 44.5524 44.8706 47.3281 43.1178C50.1038 41.3651 52.5071 39.0828 54.4008 36.4012C56.2945 33.7197 57.6414 30.6914 58.3648 27.4893C59.0881 24.2872 59.1737 20.9739 58.6166 17.7387C58.0594 14.5036 56.8706 11.4098 55.1178 8.63408L67.6816 0.700553Z" fill="#D2CDDB"/>
</svg>
