<svg xmlns="http://www.w3.org/2000/svg" width="286" height="141" fill="none" xmlns:v="https://vecta.io/nano"><style><![CDATA[.B{fill:#2e186a}.C{fill:#fff}]]></style><g fill-rule="evenodd"><path d="M23.487 33.234s-7.739 28.182 25.592 43.145l12.406-9.566s.332-33.015-37.998-33.579z" class="C"/><path d="M23.494 32.736a.5.5 0 0 0-.488.366l-.03.114-.007.028-.091.394-.273 1.48c-.459 2.954-.564 6.351-.094 10.008.642 5.005 2.3 9.898 5.191 14.49 4.363 6.929 11.292 12.782 21.173 17.217a.5.5 0 0 0 .508-.06l12.406-9.565a.5.5 0 0 0 .194-.39v-.169l-.008-.322a25.8 25.8 0 0 0-.066-1.139 36.04 36.04 0 0 0-.526-3.876c-.747-3.938-2.1-7.868-4.214-11.541-2.709-4.706-6.48-8.647-11.461-11.564-5.861-3.433-13.219-5.339-22.213-5.471zm.383 1.003l.131.003c8.588.195 15.604 2.049 21.196 5.325a30.29 30.29 0 0 1 11.101 11.202c2.054 3.568 3.372 7.394 4.099 11.229.257 1.358.422 2.624.512 3.769a25.47 25.47 0 0 1 .06.997l.007.194.003.112-11.973 9.231-.307-.14c-9.397-4.323-15.988-9.953-20.159-16.576A34.41 34.41 0 0 1 23.5 44.999c-.457-3.557-.355-6.862.091-9.728l.039-.244a23.3 23.3 0 0 1 .203-1.081l.034-.155.012-.052z" class="B"/><path d="M53.098 5.135s40.456 21.307 20.51 69.251l-22.171 2.175c0 .017-34.494-30.623 1.661-71.426z" class="C"/><path d="M52.725 4.805c-8.529 9.625-13.603 19.187-15.626 28.602-1.715 7.981-1.198 15.644 1.137 22.901 1.814 5.64 4.613 10.714 7.981 15.139a48.44 48.44 0 0 0 3.449 4.067l.177.184c.29.3.558.569.801.803l.163.156.124.116.182.165.032.026.04.026c.011.006.026.013.07.034l.029.01.105.022.095-.036.004.036 22.171-2.175a.5.5 0 0 0 .411-.304c5.564-13.374 6.808-25.482 4.404-36.346-1.941-8.774-6.166-16.363-11.987-22.802a57.46 57.46 0 0 0-9.029-8.085c-1.027-.739-1.985-1.375-2.852-1.908l-.129-.079-.766-.453-.172-.097-.208-.114a.5.5 0 0 0-.605.11zm.245 1.231l.237-.271.159.092.592.352a46.1 46.1 0 0 1 2.918 1.945c3.024 2.177 6.049 4.822 8.872 7.944 5.711 6.318 9.851 13.755 11.753 22.349l.07.32c2.241 10.47 1.036 22.132-4.258 35.033l-.05.12-21.654 2.125-.118-.111-.087-.083a31.83 31.83 0 0 1-1.017-1.023c-1.077-1.13-2.221-2.462-3.377-3.983-3.303-4.341-6.048-9.317-7.825-14.841-2.283-7.096-2.788-14.583-1.111-22.387 1.946-9.056 6.781-18.273 14.897-27.581z" class="B"/><path d="M108.036 24.017s16.192 24.329-10.762 48.99l-14.781-5.181s-10.695-31.238 25.543-43.809z" class="C"/><path d="M107.873 23.546c-8.572 2.974-14.997 7.136-19.491 12.292-3.812 4.373-6.135 9.341-7.195 14.701-.824 4.163-.845 8.32-.292 12.279.184 1.32.421 2.528.686 3.603l.04.16a25.06 25.06 0 0 0 .259.952l.024.082.069.225.048.147a.5.5 0 0 0 .306.309l14.781 5.181a.5.5 0 0 0 .501-.103c8.99-8.225 13.855-16.96 15.296-25.901 1.083-6.716.177-13.042-1.994-18.688-.535-1.392-1.109-2.632-1.684-3.706-.183-.343-.355-.647-.512-.91l-.113-.187-.153-.241a.5.5 0 0 0-.578-.195zm-.176 1.118l.128-.045.081.137a22.89 22.89 0 0 1 .445.794 32.09 32.09 0 0 1 1.632 3.593c2.112 5.492 2.993 11.645 1.941 18.172l-.043.261c-1.428 8.451-6.015 16.729-14.423 24.583l-.3.279-14.264-5.001-.033-.109-.052-.176c-.07-.242-.144-.514-.22-.816a34.53 34.53 0 0 1-.706-3.657c-.538-3.854-.518-7.902.282-11.947 1.028-5.194 3.276-10.003 6.968-14.239 4.287-4.919 10.402-8.923 18.564-11.829z" class="B"/><path d="M124.643 45.307s-1.727 34.36-36.553 31.304l-7.988-11.608c0-.017 8.403-30.523 44.541-19.696z" class="C"/><path d="M102.327 43.329c-5.471 1.247-10.064 3.809-13.849 7.398-2.889 2.74-5.149 5.918-6.853 9.266l-.091.179c-1.051 2.093-1.931 4.479-1.931 4.831a.5.5 0 0 0 .088.282l7.988 11.608a.5.5 0 0 0 .367.214c8.586.753 15.656-.696 21.337-4.032 4.767-2.8 8.41-6.837 11.069-11.784 1.876-3.49 3.156-7.225 3.951-10.959.278-1.307.475-2.521.606-3.612l.026-.225.071-.703.013-.15.015-.211.006-.098a.5.5 0 0 0-.355-.502c-8.549-2.562-16.012-2.97-22.459-1.501zm21.671 2.307l.119.035-.019.215-.077.715a39.53 39.53 0 0 1-.592 3.524c-.776 3.648-2.026 7.295-3.853 10.695-2.578 4.795-6.098 8.696-10.697 11.397l-.165.096c-5.359 3.096-12.006 4.475-20.084 3.843l-.263-.021-7.72-11.219.033-.105.054-.166a22.57 22.57 0 0 1 .267-.764c.369-1 .841-2.099 1.424-3.261 1.666-3.317 3.888-6.466 6.739-9.169a28.26 28.26 0 0 1 13.385-7.15c6.145-1.401 13.27-1.045 21.449 1.336z" class="B"/><path d="M89.303 7.227s29.794 27.568.98 70.795l-29.595-1.96S42.602 35.343 89.303 7.227z" class="C"/><path d="M89.045 6.801c-10.448 6.29-18.195 13.515-23.509 21.497-5.19 7.795-7.922 16.085-8.616 24.593-.525 6.43.137 12.532 1.563 18.034a45.75 45.75 0 0 0 1.144 3.772l.053.15a29.89 29.89 0 0 0 .364.966l.074.183.072.173.042.098a.5.5 0 0 0 .422.295l29.595 1.96a.5.5 0 0 0 .448-.221c8.814-13.223 12.761-25.821 12.638-37.674-.096-9.25-2.645-17.524-6.833-24.711a47.98 47.98 0 0 0-4.703-6.717c-.563-.669-1.086-1.248-1.556-1.736l-.178-.183-.213-.214-.157-.152-.054-.051a.5.5 0 0 0-.595-.061zm-.103 1.228l.288-.175.179.181.115.119c.455.472.963 1.035 1.511 1.687a46.98 46.98 0 0 1 4.604 6.577c4.106 7.045 6.604 15.153 6.698 24.219l.002.35c.04 11.429-3.776 23.583-12.213 36.369l-.101.152-28.999-1.92-.026-.064c-.115-.286-.244-.625-.383-1.012-.399-1.112-.798-2.396-1.171-3.835-1.399-5.401-2.05-11.392-1.534-17.704.681-8.344 3.36-16.472 8.453-24.121 5.126-7.699 12.564-14.694 22.578-20.821z" class="B"/><path d="M79.703 28.102s-44.508 20.194-19.879 47.18l20.278-.316s24.064-17.354-.398-46.865z" class="C"/><path d="M79.497 27.649l-.123.057-.192.09-.876.429-.3.152-2.815 1.514c-3.221 1.822-6.442 3.932-9.45 6.307-6.403 5.055-10.965 10.602-12.874 16.569-2.39 7.469-.449 15.139 6.589 22.851a.5.5 0 0 0 .376.162l20.278-.316a.5.5 0 0 0 .284-.094l.081-.06.049-.037a14.83 14.83 0 0 0 .348-.275 23.43 23.43 0 0 0 1.225-1.075c1.261-1.183 2.522-2.583 3.698-4.195 3.398-4.657 5.424-10.111 5.384-16.306-.051-7.948-3.528-16.514-11.091-25.638a.5.5 0 0 0-.59-.136zm.067 1.069l.195.239c7.117 8.752 10.373 16.922 10.421 24.472.038 5.965-1.913 11.218-5.193 15.713-1.138 1.56-2.357 2.914-3.575 4.056a22.8 22.8 0 0 1-1.09.962l-.134.109-.144.115-.087.068-.027.02-19.89.309.15.166c-6.806-7.457-8.653-14.759-6.376-21.876 1.838-5.745 6.281-11.147 12.542-16.09 2.965-2.341 6.144-4.424 9.323-6.222l.349-.196a69.93 69.93 0 0 1 2.576-1.372l.147-.074.624-.308.187-.09z" class="B"/><path d="M13.638 52.149s14.133 32.649 48.926 29.162l6.626-5.746c-.017 0-19.564-34.675-55.552-23.416z" class="C"/><path d="M40.174 52.322c6.69 2.124 12.717 5.869 18.063 10.777 3.032 2.783 5.655 5.766 7.863 8.752.771 1.042 1.434 2.008 1.992 2.88l.057.089.309.493.091.148-6.191 5.368.157-.015c-8.453.847-16.11-.404-23.009-3.445-5.773-2.544-10.849-6.265-15.258-10.855-3.065-3.19-5.628-6.609-7.709-10.028-.728-1.196-1.343-2.305-1.849-3.3l-.047-.094-.257-.52-.056-.116.022-.007c9.212-2.772 17.82-2.669 25.822-.129zm29.375 22.868l-.103-.171-.091-.149-.365-.585-.059-.092c-.57-.89-1.246-1.874-2.03-2.935-2.244-3.034-4.909-6.064-7.99-8.893-5.446-5-11.596-8.821-18.435-10.993-8.358-2.654-17.364-2.709-26.986.301a.5.5 0 0 0-.308.673l.04.091.065.143.051.11.111.234.305.618.049.096c.517 1.017 1.144 2.148 1.886 3.366 2.117 3.477 4.723 6.954 7.841 10.2 4.494 4.678 9.675 8.476 15.575 11.076 7.055 3.11 14.885 4.39 23.51 3.525a.5.5 0 0 0 .277-.119l6.626-5.746.021-.019a.5.5 0 0 0-.291-.853l-.026-.002-.03-.001a.57.57 0 0 1 .332.105l.025.019z" class="B"/><path d="M106.027 73.638H35.993a2.41 2.41 0 0 0-2.408 2.408v8.785a2.41 2.41 0 0 0 2.408 2.408h4.002l11.941 52.444h37.882l11.941-52.444h4.285a2.41 2.41 0 0 0 2.408-2.408v-8.785c-.017-1.329-1.096-2.408-2.425-2.408z" fill="#24348c"/><path d="M100.48 86.725a.5.5 0 0 1 .498.498.5.5 0 0 1-.469.497l-.029.001H41.373a.5.5 0 0 1-.498-.498.5.5 0 0 1 .469-.497l.029-.001h59.107zm-43.529 47.363c.199 1.378.947 3.288 2.757 4.916l.365.813 25.277-.232c23.4-7.905 64.504-16.059 64.504-16.059l-43.545-27.252s-26.539 6.028-36.686 11.907c-10.131 5.896-13.635 19.231-12.672 25.907z" class="C"/><path d="M106.198 95.788l-.748.173-1 .237-.773.186-3.83.952c-4.762 1.214-9.523 2.533-13.97 3.913l-.803.251c-6.37 2.006-11.486 3.962-14.924 5.815a27.41 27.41 0 0 0-.778.434c-4.779 2.781-8.421 7.357-10.707 12.902-1.946 4.722-2.736 9.849-2.208 13.507l.014.094c.271 1.716 1.182 3.504 2.731 4.963l.093.086.323.72a.5.5 0 0 0 .459.294l25.277-.233a.48.48 0 0 0 .155-.026l2.12-.702.664-.214c6.02-1.929 13.282-3.959 21.522-6.051 8.57-2.175 17.739-4.304 26.922-6.302l1.895-.411 7.613-1.608 1.691-.347 2.015-.407a.5.5 0 0 0 .167-.911l-43.545-27.252a.5.5 0 0 0-.375-.063zm.021 1.017l42.31 26.478-1.892.387-1.38.285-7.751 1.645-.308.067c-9.194 1.994-18.388 4.121-26.999 6.297l-.629.159c-8.564 2.174-16.077 4.283-22.247 6.284l-.312.101-1.223.404-.522.174-24.871.229-.232-.516a.5.5 0 0 0-.122-.167c-1.505-1.353-2.368-3.034-2.597-4.616-.501-3.471.261-8.42 2.143-12.985 2.207-5.355 5.712-9.759 10.286-12.42a29.14 29.14 0 0 1 .75-.419l.213-.114c3.477-1.84 8.675-3.803 15.136-5.815l.2-.062c4.27-1.326 8.835-2.596 13.412-3.77l.508-.13 4.588-1.134.895-.212.643-.15z" class="B"/><path d="M60.937 139.668c-11.36-1.943-8.121-33.795 10.978-61.927 8.553-13.917 11.027-17.686 17.604-19.845 2.574-.847 5.331-.847 8.254.448 10.413 4.6 21.457 9.383 14.05 11.492S86.944 86.31 86.944 86.31s.166 18.649-.764 25.458c-.615 4.617-1.827 9.267-3.039 12.638" class="C"/><path d="M89.363 57.422c2.804-.923 5.638-.821 8.497.416l2.115.934c6.608 2.926 9.992 4.581 12.295 6.182l.07.048c1.517 1.064 2.34 2 2.393 2.922.061 1.069-.87 1.834-2.694 2.368l-.08.023c-2.393.681-6.075 2.746-10.668 5.858l-3.121 2.177c-2.552 1.825-5.145 3.782-7.643 5.738l-.456.358-1.544 1.225-.545.438-.538.436.004.662.003.716-.102 11.964-.021.895c-.121 4.795-.325 8.548-.632 10.891l-.022.161c-.579 4.347-1.731 9.034-3.064 12.741a.5.5 0 0 1-.637.3.5.5 0 0 1-.3-.637c1.286-3.576 2.404-8.095 2.983-12.308l.052-.386c.311-2.38.518-6.288.636-11.291l.017-.778.094-11.548-.009-1.612a.5.5 0 0 1 .182-.389l.575-.468.315-.254 2.239-1.779.154-.121c2.509-1.965 5.113-3.93 7.678-5.764l3.142-2.191.419-.282c4.39-2.95 7.935-4.928 10.382-5.664l.298-.087c1.372-.411 1.933-.878 1.907-1.333-.029-.514-.689-1.264-1.97-2.163l-.135-.094c-2.139-1.473-5.315-3.041-11.284-5.696l-2.778-1.229c-2.669-1.183-5.286-1.29-7.897-.431-3.234 1.062-5.384 2.505-7.749 5.26l-.088.103c-2.108 2.479-4.052 5.421-9.028 13.505l-.47.765-.012.019c-8.938 13.166-14.925 28.011-16.83 40.579-1.785 11.772.346 19.691 5.524 20.577a.5.5 0 0 1 .407.575.5.5 0 0 1-.575.407c-5.926-1.014-8.199-9.458-6.342-21.708 1.909-12.591 7.851-27.405 16.721-40.591l.265-.393.759-1.234c4.739-7.69 6.669-10.603 8.755-13.069l.067-.079c2.517-2.961 4.836-4.532 8.285-5.664z" class="B"/><path d="M222.18 139.336l-39.244-62.243-76.594 18.733v-.017l-13.734 2.989 9.15 36.519 19.082-4.617 4.551 8.602h96.789v.034z" fill="#ffc29e"/><path d="M160.067 61.2s7.706-.349 6.776 6.626-9.699 3.537-9.699 3.537l.498-9.865 2.425-.299z" class="C"/><path d="M160.055 60.702h-.01l-.039.003-2.424.299a.5.5 0 0 0-.437.469l-.498 9.864c-.011.214.116.411.316.489l.067.026.33.115 1.027.301c1.239.317 2.491.487 3.672.428 2.897-.145 4.856-1.642 5.278-4.805.459-3.442-1.002-5.577-3.666-6.586-.729-.276-1.503-.448-2.284-.538-.484-.056-.903-.073-1.226-.068l-.106.002zm1.218 1.056a8.55 8.55 0 0 1 2.045.48c2.253.854 3.426 2.567 3.032 5.523-.353 2.644-1.891 3.82-4.341 3.942-1.067.053-2.224-.103-3.374-.398l-.116-.03-.746-.219-.112-.037.458-9.076 1.988-.245h.019c.286-.007.682.008 1.147.061z" class="B"/><path d="M136.734 40.907c-2.043-.033-15.993-.017-16.774 11.675-.764 11.691 1.694 24.379 3.355 30.142s28.1 1.329 29.561.714c1.478-.614 3.156-2.491 3.156-2.491l2.491-18.035c.016 0 .116-21.606-21.789-22.004z" class="C"/><path d="M133.305 40.577c-1.955.218-3.854.636-5.609 1.304-4.791 1.823-7.813 5.217-8.222 10.506l-.011.161c-.353 5.396-.05 11.343.771 17.393l.06.434c.658 4.702 1.602 9.221 2.542 12.484.459 1.591 2.352 2.524 5.424 2.97l.099.014c2.523.355 5.815.382 9.646.136l.198-.013c5.877-.39 13.692-1.579 14.866-2.072.171-.071.347-.158.528-.26.437-.247.892-.576 1.357-.967a15.59 15.59 0 0 0 1.032-.953l.109-.111.149-.155.088-.094.071-.078.024-.028c.052-.068.086-.15.098-.235l2.365-17.119.023.073c.116.386.151.764.147.365l-.04-1.677c-.005-.178-.013-.387-.028-.619l-.005-.088c-.049-.751-.142-1.594-.29-2.501-.42-2.583-1.191-5.178-2.402-7.612-1.561-3.139-3.743-5.777-6.634-7.736-3.409-2.311-7.69-3.597-12.918-3.692a26.58 26.58 0 0 0-3.438.169zM120.44 52.894l.017-.28c.331-4.955 3.092-8.089 7.594-9.802 1.668-.635 3.488-1.035 5.365-1.245 1.267-.142 2.34-.179 3.31-.163 5.039.092 9.132 1.321 12.376 3.52 2.74 1.857 4.812 4.362 6.301 7.355 1.162 2.337 1.906 4.838 2.311 7.329a25.46 25.46 0 0 1 .279 2.405l.005.084.013.237.006.146.007.199-.037-1.426c-.013-.697.09 1.159.536 1.159l-.03.001a.5.5 0 0 0-.464.429l-2.469 17.88-.085.089-.196.202a15.08 15.08 0 0 1-.965.892c-.423.355-.83.649-1.207.862a3.94 3.94 0 0 1-.422.208l-.043.017c-.447.157-2.421.539-4.756.896l-.087.013c-3.127.476-6.517.863-9.662 1.072-8.285.55-13.717-.214-14.343-2.389l-.086-.3c-.927-3.293-1.853-7.81-2.486-12.476-.799-5.884-1.102-11.664-.782-16.914z" class="B"/><path d="M157.692 78.089l3.039 11.907c1.976 27.103-35.64 28.829-33.281-3.853l22.187 2.79 1.744-8.785 6.311-2.059z" class="C"/><path d="M151.226 79.675l-.031.011a.5.5 0 0 0-.303.365l-1.653 8.33-21.727-2.732a.5.5 0 0 0-.559.459c-.564 7.812 1.102 14.126 4.589 18.545 3.133 3.972 7.61 6.191 12.39 6.334 4.679.141 9.225-1.73 12.466-5.224 3.539-3.815 5.306-9.271 4.83-15.803a.51.51 0 0 0-.014-.087l-3.039-11.907a.5.5 0 0 0-.638-.35l-6.311 2.059zm6.115-.947l2.896 11.347-.003-.043c.457 6.265-1.222 11.447-4.566 15.052a15.32 15.32 0 0 1-11.706 4.906c-4.488-.134-8.689-2.216-11.638-5.955l-.099-.127c-3.157-4.079-4.723-9.865-4.322-17.052l.009-.154 21.663 2.724.03.003a.5.5 0 0 0 .521-.4l1.687-8.499 5.528-1.804z" class="B"/><path d="M153.242 62.379l-2.043 12.97s-8.719-2.342-20.959-1.727c0 0-6.66.565-9.267 1.528 0 0 1.362 12.123 7.174 18.068s17.123 3.454 22.238-.681 5.879-5.995 6.859-10.13 3.272-19.447 3.272-19.447l-7.274-.581z" fill="#968bb4"/><path d="M160.134 65.153s3.471-7.174 4.484-13.086c.963-5.547-1.96-11.127-7.175-13.236-4.367-1.777-5.796-1.196-5.796-1.196s2.591-4.617-4.152-11.409a12.35 12.35 0 0 0-9.034-3.637c-8.254.216-10.828 7.191-10.828 7.191s-8.802-16.258-26.938-6.693c-1.826.963-3.902 3.654-4.882 5.48-6.012 11.01 13.668 24.13 23.931 25.193 11.277 1.163 18.352-.233 21.789-3.222-2.557 1.793 2.043 18.301 18.601 14.614z" fill="#111c5c"/><path d="M129.641 68.309c.355.017.632.311.632.662l-.001.033-.468 9.716 2.755-.897c.338-.11.7.065.826.394l.011.032c.11.338-.065.7-.394.826l-.032.011-3.67 1.196c-.432.141-.872-.184-.87-.633l.001-.031.514-10.678c.018-.355.311-.632.663-.632l.033.001zm6.255-8.705c1.68-.363 3.156-.007 4.38.806a5.72 5.72 0 0 1 .811.65l.067.067.235.257c.229.287.181.705-.106.934s-.704.181-.933-.105a2.72 2.72 0 0 0-.187-.197 4.4 4.4 0 0 0-.622-.498 4.24 4.24 0 0 0-3.364-.614c-.359.078-.712-.15-.79-.509s.151-.712.509-.79zm-11.009-2.487c.644-.132 1.31-.096 1.949.039l.103.023.378.104c.347.119.532.497.413.844-.115.336-.473.52-.811.423l-.072-.022-.035-.01-.252-.062c-.475-.101-.967-.127-1.406-.037-.624.128-1.065.469-1.319 1.127-.132.342-.517.513-.859.38s-.512-.517-.38-.859c.425-1.101 1.244-1.736 2.291-1.95zm16.796 24.576c-.581-.797-6.244 3.172-4.035 3.537s5.281-1.827 4.035-3.537z" class="B"/><g fill="#ff8d7e"><path d="M117.933 80.962l21.507-7.274s2.873-1.096 2.774-4.833-4.8-5.131-4.8-5.131l-22.935-3.238 3.454 20.476z"/><path d="M94.916 80.962l21.507-7.274s2.873-1.096 2.773-4.833-4.799-5.131-4.799-5.131l-22.935-3.238 3.454 20.476z"/></g><path d="M114.264 81.643c5.861 0 10.612-4.751 10.612-10.612s-4.751-10.612-10.612-10.612-10.612 4.751-10.612 10.612 4.751 10.612 10.612 10.612zm-23.184.15c5.861 0 10.612-4.751 10.612-10.612S96.941 60.569 91.08 60.569 80.467 65.32 80.467 71.181s4.751 10.612 10.612 10.612z" class="B"/><path d="M95.68 59.025c2.624-4.683 14.166-6.244 16.309-5.912 2.142.316.033 4.7-9.184 5.514 0 0-2.824.05-4.268 1.295" class="C"/><path d="M103.885 53.707l.206-.054c3.092-.807 6.576-1.227 7.926-1.039l.044.007c.78.115 1.253.669 1.189 1.416-.056.644-.505 1.355-1.265 2.021-1.745 1.529-4.855 2.668-8.998 3.053l-.139.013-.173.007-.06.003-.551.048c-.569.065-1.137.174-1.662.336-.638.197-1.164.457-1.54.781a.5.5 0 0 1-.703-.052.5.5 0 0 1 .052-.703c.494-.426 1.139-.745 1.897-.979.59-.182 1.217-.302 1.843-.374l.183-.02.342-.028.15-.009.15-.006.12-.011c3.904-.363 6.795-1.41 8.378-2.763l.054-.047c.584-.512.899-1.011.929-1.358.018-.205-.067-.304-.345-.345-1.171-.182-4.639.236-7.67 1.038l-.098.026c-4.003 1.074-6.942 2.657-8.03 4.599a.5.5 0 0 1-.678.191.5.5 0 0 1-.191-.678c1.257-2.244 4.398-3.936 8.64-5.074z" class="B"/><path d="M99.384 57.48c4.85-2.325 15.18 3.072 16.74 4.567 1.578 1.495-2.69 3.853-10.679-.781 0 0-2.341-1.578-4.235-1.395" class="C"/><path d="M99.169 57.031c2.324-1.114 5.865-.686 9.991.833l.199.074c3.018 1.134 6.145 2.825 7.109 3.748.574.544.643 1.27.158 1.843-.416.494-1.194.815-2.2.922-2.308.244-5.506-.615-9.108-2.683l-.121-.07-.111-.071-.091-.057-.156-.094a10.87 10.87 0 0 0-.879-.463c-.656-.308-1.299-.525-1.887-.614-.292-.044-.565-.055-.813-.031a.5.5 0 0 1-.544-.448.5.5 0 0 1 .448-.544 4.31 4.31 0 0 1 1.058.038c.696.105 1.425.352 2.161.697.344.161.667.334.961.506l.124.074.216.135.024.016.106.061c3.394 1.948 6.361 2.757 8.436 2.563l.071-.007c.774-.082 1.319-.307 1.544-.574.132-.156.12-.285-.084-.479l-.059-.055c-.934-.84-3.941-2.451-6.81-3.518l-.096-.035c-3.893-1.433-7.205-1.833-9.216-.869a.5.5 0 0 1-.665-.234.5.5 0 0 1 .234-.665z" class="B"/><path d="M94.202 57.48c4.849-2.325 15.18 3.072 16.741 4.567 1.577 1.495-2.691 3.853-10.679-.781 0 0-2.342-1.578-4.235-1.395" class="C"/><path d="M93.986 57.031c2.323-1.114 5.864-.686 9.991.833l.199.074c3.018 1.134 6.145 2.825 7.109 3.748.574.544.642 1.27.158 1.843-.416.494-1.194.815-2.201.922-2.307.244-5.505-.615-9.107-2.683l-.121-.07-.111-.071-.091-.057-.157-.094c-.268-.158-.564-.316-.878-.463-.656-.308-1.299-.525-1.887-.614a3.33 3.33 0 0 0-.814-.031.5.5 0 0 1-.544-.448.5.5 0 0 1 .448-.544c.335-.032.689-.018 1.058.038.696.105 1.425.352 2.161.697.344.161.667.334.961.506l.124.074.216.135.024.016.106.061c3.394 1.948 6.361 2.757 8.436 2.563l.071-.007c.774-.082 1.319-.307 1.544-.574.132-.156.12-.285-.084-.479l-.059-.055c-.934-.84-3.942-2.451-6.81-3.518l-.096-.035c-3.893-1.433-7.205-1.833-9.216-.869a.5.5 0 0 1-.665-.234.5.5 0 0 1 .234-.665z" class="B"/><path d="M89.933 57.763c4.849-2.325 15.18 3.072 16.741 4.567 1.578 1.495-2.691 3.853-10.679-.781 0 0-2.342-1.578-4.235-1.395" class="C"/><path d="M89.718 57.313c2.323-1.114 5.864-.686 9.991.833l.199.074c3.018 1.134 6.145 2.825 7.109 3.748.574.544.642 1.27.158 1.843-.416.494-1.194.815-2.201.922-2.307.244-5.505-.615-9.107-2.683l-.122-.07-.11-.071-.091-.057-.157-.094a10.7 10.7 0 0 0-.878-.463c-.656-.308-1.299-.525-1.887-.614a3.33 3.33 0 0 0-.814-.031.5.5 0 0 1-.544-.448.5.5 0 0 1 .448-.544c.335-.032.689-.018 1.058.038.696.105 1.425.352 2.161.697a11.68 11.68 0 0 1 .96.506l.124.074a7.37 7.37 0 0 1 .216.135l.025.016.105.061c3.394 1.948 6.361 2.757 8.436 2.563l.071-.007c.774-.082 1.319-.307 1.544-.574.132-.156.12-.285-.084-.479l-.059-.055c-.934-.84-3.942-2.451-6.81-3.518l-.096-.035c-3.893-1.433-7.206-1.833-9.216-.87a.5.5 0 0 1-.665-.234.5.5 0 0 1 .234-.665z" class="B"/><path d="M251.89 27.056c-4.052-1.877-8.968-.349-10.994 3.421L228.69 53.212l7.623-35.323c.896-4.118-1.993-8.137-6.428-8.968s-8.752 1.843-9.649 5.962l-9.067 36.668 1.013-42.547c.133-4.202-3.421-7.706-7.955-7.838-4.518-.133-8.304 3.189-8.437 7.39l-1.362 42.813-7.872-36.469c-.897-4.119-5.215-6.792-9.649-5.962s-7.324 4.833-6.427 8.968l7.623 35.323-12.207-22.735c-2.026-3.77-6.942-5.298-10.994-3.421s-5.696 6.444-3.67 10.213l25.044 46.632 56.2-3.604 23.118-43.029c1.993-3.786.349-8.353-3.704-10.23z" class="C"/><path d="M195.292 8.54l-1.233 38.758-7.016-32.503c-.945-4.343-5.441-7.169-10.087-6.372l-.137.025-.141.027c-4.634.941-7.631 5.17-6.685 9.536l6.878 31.869-10.535-19.622c-2.129-3.961-7.246-5.593-11.514-3.696l-.125.057c-4.313 1.997-6.068 6.877-3.904 10.903l25.044 46.632a.5.5 0 0 0 .471.261l56.2-3.604c.172-.011.326-.11.407-.261l23.118-43.028c2.108-4.005.41-8.826-3.805-10.857l-.125-.059-.129-.059c-4.266-1.896-9.385-.271-11.516 3.694l-10.536 19.622 6.878-31.869c.946-4.348-2.05-8.595-6.683-9.535l-.136-.027-.141-.025c-4.644-.797-9.144 2.023-10.09 6.37l-7.975 32.247.905-38.008c.14-4.433-3.558-8.133-8.295-8.343l-.14-.005c-4.786-.141-8.811 3.386-8.953 7.872zm8.92-6.876l.132.005c4.163.184 7.397 3.381 7.343 7.204l-1.016 42.667c-.014.595.839.709.981.131l9.068-36.668c.842-3.864 4.9-6.373 9.074-5.592l.129.025c4.099.832 6.728 4.558 5.903 8.347l-7.623 35.324c-.122.564.653.849.926.341l12.206-22.735c1.899-3.533 6.528-4.973 10.346-3.205l.118.056.11.054c3.63 1.819 5.065 5.977 3.244 9.436l-22.985 42.781-55.604 3.566-24.893-46.35c-1.887-3.511-.357-7.767 3.441-9.526l.118-.054c3.796-1.687 8.35-.235 10.228 3.259l12.206 22.735c.273.509 1.048.223.926-.341l-7.623-35.323c-.834-3.845 1.857-7.591 6.032-8.373l.129-.023c4.131-.709 8.113 1.794 8.942 5.601l7.871 36.468c.124.574.967.498.985-.089l1.362-42.813c.124-3.921 3.676-7.033 7.924-6.908z" class="B"/><path d="M226.514 81.876l13.137-28.879c1.976-4.351.531-9.848-3.222-12.289s-8.403-.913-10.38 3.438l-7.838 17.205 4.185-19.297c1.046-4.799-1.462-9.782-5.581-11.143s-8.303 1.428-9.333 6.228l-4.152 19.115-2.192-19.031c-.565-4.965-4.451-8.553-8.653-8.021s-7.157 4.982-6.593 9.931l2.259 19.646-4.949-12.771c-1.777-4.584-6.344-6.726-10.197-4.766s-5.547 7.257-3.77 11.841l11.127 28.73" fill="#24348c"/><path d="M238.273 75.399h-70.25a2.41 2.41 0 0 0-2.408 2.408v8.818a2.41 2.41 0 0 0 2.408 2.408h4.318l11.941 50.685h37.981l11.941-50.685h4.036a2.41 2.41 0 0 0 2.408-2.408v-8.818c.033-1.329-1.047-2.408-2.375-2.408z" fill="#ff8d7e"/><path d="M232.261 88.983a.5.5 0 0 1 .498.498.5.5 0 0 1-.469.497l-.029.001h-58.343a.5.5 0 0 1-.498-.498.5.5 0 0 1 .469-.497l.029-.001h58.343z" class="B"/><path d="M218.709 120.121c-2.541-3.138-6.277-8.27-3.753-9.349s2.491 1.644 6.294 4.234c3.82 2.591 7.374 3.089 11.16 7.806" class="C"/><path d="M214.76 110.314c1.119-.479 1.938-.347 2.737.363a6.84 6.84 0 0 1 .599.618l.146.168.718.836c.702.795 1.369 1.427 2.212 2.043l.358.252.159.108c.913.609 1.663 1.024 3.323 1.878l.624.321 1.826.992a18.47 18.47 0 0 1 5.337 4.607.5.5 0 0 1-.077.7.5.5 0 0 1-.7-.076c-1.513-1.885-3.032-3.165-4.941-4.299l-.227-.133-1.759-.949-.825-.425-3.301-1.9-.385-.272c-.868-.634-1.562-1.283-2.273-2.078l-.17-.192-.696-.811-.093-.107-.516-.536c-.511-.453-.919-.519-1.684-.192-.773.33-.719 1.394.223 3.215.786 1.519 2.064 3.316 3.721 5.363a.5.5 0 0 1-.073.701.5.5 0 0 1-.701-.074l-.215-.266c-1.593-1.987-2.828-3.74-3.617-5.266-.529-1.023-.83-1.9-.868-2.631-.047-.914.329-1.613 1.138-1.958z" class="B"/><path d="M216.633 117.63c-6.493-3.537-15.943-3.736-18.202-3.637-3.404.15-1.312 7.025 15.429 8.653 0 0 4.401.548 6.46 2.706" class="C"/><path d="M198.409 113.496l.181-.007c1.783-.062 4.623.077 7.422.466 4.16.577 7.9 1.626 10.859 3.238a.5.5 0 0 1 .2.676.5.5 0 0 1-.676.199c-2.793-1.521-6.352-2.532-10.324-3.099l-.196-.027c-2.836-.394-5.714-.526-7.422-.451-.596.026-.891.283-.904.704-.017.57.441 1.372 1.372 2.197 2.543 2.254 7.648 4.044 15 4.759l.091.013.251.038c.264.044.558.1.875.169.905.198 1.81.464 2.659.809 1.19.484 2.175 1.086 2.883 1.829a.5.5 0 0 1-.016.704.5.5 0 0 1-.705-.017c-.597-.626-1.467-1.158-2.537-1.593-.792-.322-1.644-.572-2.497-.759a15.89 15.89 0 0 0-.73-.142l-.094-.016-.187-.03-.103-.014c-7.53-.733-12.827-2.59-15.551-5.004-1.132-1.003-1.734-2.059-1.707-2.974.03-.977.769-1.621 1.856-1.668z" class="B"/><path d="M219.655 126.83c-3.603-7.639-21.058-10.346-24.446-10.08s-1.046 7.54 13.286 9.815c0 0 4.418.398 6.543 2.491" class="C"/><path d="M195.17 116.254c2.186-.172 7.687.68 12.327 2.096 6.347 1.937 10.924 4.696 12.609 8.268.118.249.011.546-.238.663s-.546.011-.663-.238c-1.531-3.246-5.898-5.879-11.999-7.74l-.273-.083c-4.471-1.333-9.682-2.13-11.685-1.973-1.246.098-1.309 1.532.327 3.321 2.214 2.421 6.616 4.465 12.81 5.475l.173.027.104.011.142.017.085.011c.27.035.571.082.894.142.924.17 1.849.411 2.717.735 1.182.442 2.167 1.005 2.888 1.715a.5.5 0 0 1 .006.704.5.5 0 0 1-.705.006c-.607-.598-1.476-1.095-2.538-1.491-.808-.302-1.678-.529-2.549-.689-.267-.05-.517-.09-.746-.121l-.096-.013-.147-.018-.162-.018-.034-.004c-6.499-1.032-11.171-3.186-13.577-5.817-1.011-1.105-1.539-2.235-1.497-3.186.044-1.024.747-1.716 1.827-1.8z" class="B"/><path d="M221.001 133.075c-3.422-7.722-20.644-11.376-24.048-11.193s-1.694 8.237 12.572 10.861c0 0 4.401.498 6.477 2.64" class="C"/><path d="M196.927 121.384c2.136-.115 7.584.996 12.213 2.661 6.231 2.242 10.718 5.218 12.317 8.828a.5.5 0 0 1-.254.657c-.251.112-.546-.002-.657-.254-1.458-3.291-5.748-6.136-11.743-8.293-4.515-1.624-9.842-2.71-11.823-2.604-1.282.069-1.474 1.724.031 3.717 2.023 2.68 6.272 4.962 12.418 6.122l.171.032.102.013c.04.005.087.012.14.02l.083.012c.266.041.562.094.879.16.91.189 1.82.447 2.674.785 1.187.471 2.171 1.062 2.882 1.796a.5.5 0 0 1-.011.705.5.5 0 0 1-.704-.011c-.6-.619-1.468-1.14-2.535-1.563-.795-.316-1.651-.559-2.508-.737a17.38 17.38 0 0 0-.733-.135l-.095-.015-.188-.027-.117-.015-.034-.005c-6.474-1.191-11.01-3.61-13.219-6.536-.92-1.218-1.353-2.453-1.235-3.468.124-1.073.862-1.787 1.946-1.845z" class="B"/><path d="M223.525 138.738c-3.72-7.108-20.377-12.007-23.582-11.625s-.532 6.128 14.714 10.695" class="C"/><path d="M199.884 126.618c1.859-.222 7.083 1.082 11.846 3.038 5.992 2.46 10.496 5.526 12.237 8.851a.5.5 0 0 1-.211.672.5.5 0 0 1-.672-.21c-1.602-3.061-5.941-6.013-11.732-8.392l-.278-.113c-4.54-1.832-9.462-3.048-11.073-2.857-.557.067-.78.288-.758.667.031.549.527 1.354 1.48 2.255 2.462 2.328 7.273 4.763 14.077 6.801a.5.5 0 0 1 .334.621.5.5 0 0 1-.62.334c-6.94-2.079-11.884-4.582-14.476-7.032-1.12-1.059-1.741-2.068-1.79-2.922-.054-.948.59-1.588 1.636-1.713z" class="B"/><g class="C"><path d="M231.563 121.583c-6.56-3.023-12.638-5.647-15.594-3.073-3.089 2.707-6.544 11.725-1.91 18.351"/><path d="M214.64 137.808c31.355 8.552 29.312-18.6 2.192-20.294l-2.192 20.294z"/></g><g class="B"><path d="M216.864 117.017c6.467.404 11.903 2.267 15.777 5.187 3.535 2.666 5.532 6.073 5.522 9.301-.01 3.326-2.138 6.064-5.969 7.447-4.212 1.52-10.236 1.368-17.685-.664-.265-.072-.422-.346-.349-.611a.5.5 0 0 1 .612-.35c7.267 1.982 13.09 2.129 17.084.688 3.453-1.247 5.301-3.626 5.311-6.513s-1.824-6.012-5.126-8.502c-3.711-2.797-8.959-4.596-15.239-4.989a.5.5 0 0 1-.467-.528.5.5 0 0 1 .499-.467l.03.001z"/><path d="M285.031 139.319a.5.5 0 0 1 .504.498.5.5 0 0 1-.474.498l-.03.001H1.039a.5.5 0 0 1-.504-.499.5.5 0 0 1 .474-.497l.03-.001h283.992z"/></g></g><circle cx="32" cy="93" r="31" fill="#3a55d1"/><path d="M37.229 78.909V108h-6.151V84.747h-.17l-6.662 4.176v-5.454l7.202-4.56h5.781z" class="C"/></svg>