<svg width="285" height="140" viewBox="0 0 285 140" fill="none" xmlns="http://www.w3.org/2000/svg">
<path fill-rule="evenodd" clip-rule="evenodd" d="M29.2825 56.2817C29.2825 56.2817 23.3409 78.0198 48.9533 89.5645L58.4907 82.1898C58.4907 82.1898 58.7406 56.7258 29.2825 56.2817Z" fill="white"/>
<path fill-rule="evenodd" clip-rule="evenodd" d="M29.2909 55.7025C29.0279 55.6985 28.7956 55.8736 28.726 56.1283L28.7075 56.1987C28.6889 56.272 28.6647 56.3734 28.6363 56.5019L28.6254 56.5514C28.553 56.884 28.4809 57.2693 28.4138 57.7032C28.0588 59.9989 27.9782 62.6379 28.3419 65.479C28.8398 69.3681 30.1237 73.1708 32.3633 76.7395C35.7379 82.1164 41.0919 86.6558 48.7168 90.0927C48.9106 90.1801 49.1366 90.1534 49.305 90.0232L58.8424 82.6485C58.9839 82.5391 59.0669 82.3701 59.0673 82.1908L59.0665 82.052C59.0622 81.7299 59.0412 81.2858 58.9937 80.7345C58.912 79.7865 58.7692 78.7512 58.5514 77.6515C57.9448 74.59 56.8687 71.5516 55.2085 68.7228C53.0912 65.1151 50.162 62.0988 46.3131 59.8693C41.8013 57.2558 36.1609 55.806 29.2909 55.7025ZM29.738 56.8699L29.924 56.8747C36.3088 57.0539 41.544 58.4436 45.7374 60.8727C49.4074 62.9986 52.1959 65.87 54.2153 69.3109C55.8047 72.0191 56.8379 74.9362 57.4206 77.8775C57.6299 78.934 57.7669 79.9274 57.8451 80.8345C57.8737 81.1664 57.8927 81.468 57.9038 81.7365L57.9097 81.908L48.8764 88.8932L48.7474 88.8341C41.5614 85.5145 36.5256 81.1974 33.3403 76.122C31.1941 72.7024 29.9644 69.0599 29.487 65.3313C29.1381 62.606 29.2154 60.0748 29.5547 57.881C29.6054 57.5528 29.659 57.2555 29.7129 56.991L29.738 56.8699Z" fill="#2E186A"/>
<path fill-rule="evenodd" clip-rule="evenodd" d="M52.0486 34.6013C52.0486 34.6013 83.1411 51.0303 67.816 88.0391L50.7795 89.7187C50.7603 89.7187 24.2441 66.0887 52.0486 34.6013Z" fill="white"/>
<path fill-rule="evenodd" clip-rule="evenodd" d="M51.6175 34.2172C45.0372 41.6691 41.1184 49.0772 39.5542 56.3754C38.2269 62.5683 38.6265 68.5153 40.4316 74.1453C41.8342 78.5201 43.9978 82.4542 46.6013 85.8856C47.4686 87.0285 48.3279 88.0384 49.143 88.906L49.5243 89.3069C50.249 90.0622 50.5202 90.298 50.78 90.298C50.7989 90.298 50.8177 90.297 50.8364 90.2952L67.8729 88.6156C68.0845 88.5947 68.2675 88.4587 68.3492 88.2615C72.6389 77.9022 73.5986 68.517 71.7419 60.0935C70.2417 53.2876 66.9785 47.4028 62.4835 42.4119C60.2656 39.9493 57.8899 37.8645 55.513 36.1475C54.6799 35.5457 53.9054 35.0325 53.2091 34.6066L53.0306 34.4984C52.8571 34.3941 52.6991 34.3018 52.5576 34.2216L52.3526 34.1075C52.3392 34.1003 52.3276 34.0941 52.3178 34.0889C52.0828 33.9647 51.7937 34.0177 51.6175 34.2172ZM50.8849 89.0268C50.658 88.8092 50.3959 88.5461 50.1068 88.242C49.2824 87.3746 48.406 86.3514 47.5199 85.1836C44.991 81.8506 42.89 78.0303 41.5306 73.7903C39.7856 68.3475 39.3998 62.6059 40.6829 56.619L40.7292 56.4061C42.249 49.5212 45.9397 42.5098 52.0976 35.424L52.1746 35.3355L52.3581 35.4438C52.4114 35.4756 52.4665 35.5088 52.5233 35.5432L52.6098 35.5959C53.2816 36.0067 54.0315 36.5036 54.8401 37.0877C57.1538 38.7591 59.4686 40.7905 61.6285 43.1887C65.9966 48.0388 69.1623 53.7476 70.6162 60.3437L70.6695 60.5896C72.3664 68.5478 71.4811 77.4079 67.5328 87.2093L67.4162 87.4966L50.8134 89.1335L50.8195 89.1301C50.9009 89.0727 50.6157 88.7717 50.6288 88.7801L50.8849 89.0268Z" fill="#2E186A"/>
<path fill-rule="evenodd" clip-rule="evenodd" d="M94.2558 49.177C94.2558 49.177 106.697 67.942 85.9876 86.9773L74.6235 82.981C74.6235 82.981 66.4129 58.8877 94.2558 49.177Z" fill="white"/>
<path fill-rule="evenodd" clip-rule="evenodd" d="M94.0659 48.63C84.4881 51.9704 78.4181 57.213 75.311 63.8397C73.8553 66.9444 73.1086 70.24 72.9484 73.6205C72.8268 76.1887 73.0482 78.6337 73.4923 80.8538C73.6081 81.4331 73.7318 81.9571 73.8564 82.4201L73.9225 82.6597C73.9899 82.8984 74.0433 83.0697 74.077 83.1687C74.1343 83.3367 74.2652 83.4691 74.4321 83.5278L85.7962 87.524C85.9968 87.5945 86.2197 87.5487 86.3764 87.4046C93.3151 81.0268 97.0751 74.2472 98.1894 67.3041C99.0269 62.0854 98.326 57.1709 96.6464 52.7854C96.2322 51.704 95.788 50.74 95.3428 49.9048L95.2399 49.7143C95.1388 49.5293 95.0427 49.3606 94.9529 49.2088L94.8224 48.9931C94.7849 48.9324 94.7556 48.8867 94.7354 48.8562C94.5897 48.6364 94.3143 48.5434 94.0659 48.63ZM94.0076 49.8791L94.0472 49.9473L94.1365 50.1045C94.1973 50.2129 94.2606 50.3286 94.3261 50.4514C94.7494 51.2455 95.1736 52.1661 95.57 53.2011C97.1811 57.4076 97.8532 62.1203 97.0508 67.1198L97.0179 67.3201C95.9283 73.7969 92.4265 80.1454 85.9992 86.1775L85.8509 86.3156L75.0869 82.5303L75.0671 82.4626C75.0466 82.3922 75.0251 82.3164 75.0027 82.2354C74.8739 81.7688 74.7447 81.2296 74.6239 80.6257C74.1975 78.4937 73.9845 76.1422 74.1014 73.6755C74.2546 70.4398 74.9678 67.2923 76.3554 64.333C79.2667 58.1238 84.9203 53.167 93.8915 49.9208L94.0076 49.8791Z" fill="#2E186A"/>
<path fill-rule="evenodd" clip-rule="evenodd" d="M107.023 65.6061C107.023 65.6061 105.696 92.132 78.9302 89.7574L72.7963 80.7996C72.7963 80.7996 79.2571 57.2468 107.023 65.6061Z" fill="white"/>
<path fill-rule="evenodd" clip-rule="evenodd" d="M90.1111 63.8268C85.9067 64.738 82.3582 66.6505 79.4169 69.3514C77.1105 71.4695 75.2984 73.955 73.9218 76.6017C73.4274 77.5523 73.0205 78.4659 72.694 79.3171L72.6257 79.4974C72.4501 79.9666 72.3263 80.3438 72.2494 80.6112L72.2409 80.6413C72.1939 80.8072 72.2231 80.9855 72.3204 81.1277L78.4543 90.0855C78.5518 90.2278 78.7075 90.3191 78.8789 90.3343C85.5182 90.9233 90.994 89.7989 95.3964 87.2031C99.0931 85.0234 101.917 81.88 103.976 78.031C105.426 75.3206 106.415 72.4218 107.029 69.5237C107.243 68.5092 107.396 67.5666 107.497 66.7192L107.522 66.502C107.542 66.3262 107.558 66.1634 107.571 66.0145L107.588 65.8009C107.593 65.7264 107.597 65.6709 107.599 65.6351C107.612 65.3689 107.443 65.1279 107.188 65.0513C100.713 63.1017 95.036 62.7594 90.1111 63.8268ZM106.243 65.9804L106.411 66.0287L106.405 66.0886C106.39 66.2397 106.372 66.4042 106.351 66.5814C106.254 67.3953 106.107 68.3037 105.9 69.2828C105.308 72.0804 104.354 74.8773 102.96 77.4828C100.995 81.1546 98.3138 84.1394 94.8119 86.2043L94.686 86.2779C90.6031 88.6463 85.5332 89.7003 79.3633 89.2126L79.2502 89.2033L73.4282 80.7009L73.4788 80.5458C73.5596 80.3022 73.6566 80.0303 73.7705 79.7334C74.0818 78.9218 74.4709 78.0481 74.9443 77.1378C76.2623 74.6038 77.9958 72.2261 80.1954 70.2062C82.9902 67.6396 86.3563 65.8255 90.3543 64.959C94.9261 63.9682 100.204 64.2452 106.243 65.9804Z" fill="#2E186A"/>
<path fill-rule="evenodd" clip-rule="evenodd" d="M79.8729 36.2229C79.8729 36.2229 102.774 57.4976 80.6228 90.8383L57.8755 89.3325C57.8755 89.3325 43.9733 57.903 79.8729 36.2229Z" fill="white"/>
<path fill-rule="evenodd" clip-rule="evenodd" d="M79.5743 35.7267C71.5067 40.5988 65.5244 46.2006 61.4222 52.3939C57.4229 58.432 55.3182 64.855 54.784 71.4453C54.3802 76.4265 54.8915 81.1523 55.9916 85.4153C56.2858 86.5553 56.6013 87.5743 56.9175 88.459L56.9904 88.6607C57.0741 88.8893 57.1529 89.0944 57.2254 89.2751L57.3177 89.4998C57.3294 89.5274 57.3392 89.55 57.347 89.5676C57.434 89.7643 57.6224 89.8963 57.8363 89.9105L80.5836 91.4163C80.7895 91.4299 80.987 91.3321 81.1014 91.1598C87.8987 80.929 90.9452 71.1732 90.8506 61.9889C90.7767 54.8167 88.8075 48.4005 85.5721 42.8278C84.4168 40.8378 83.1785 39.0979 81.9387 37.6183C81.537 37.1388 81.1611 36.7183 80.819 36.3576L80.7342 36.2687C80.624 36.1539 80.5242 36.0525 80.4353 35.9644L80.2749 35.8086L80.2634 35.7979C80.0751 35.6229 79.7942 35.5939 79.5743 35.7267ZM79.4668 37.1491L79.7872 36.9518L79.904 37.0724C80.2508 37.4339 80.6384 37.8649 81.0566 38.3641C82.2554 39.7948 83.4555 41.481 84.5761 43.4112C87.716 48.8194 89.626 55.0427 89.6977 62.0009L89.6995 62.2694C89.7294 70.9594 86.8655 80.1983 80.5344 89.9212L80.3266 90.2384L58.2707 88.7784L58.2051 88.6102C58.1421 88.4468 58.0749 88.2659 58.0042 88.0679C57.6996 87.2154 57.3944 86.2299 57.1092 85.1249C56.0396 80.9801 55.5421 76.3818 55.9346 71.5393C56.4535 65.1386 58.4964 58.9043 62.3837 53.0354C66.2691 47.1693 71.8973 41.8327 79.4668 37.1491Z" fill="#2E186A"/>
<path fill-rule="evenodd" clip-rule="evenodd" d="M72.4887 52.324C72.4887 52.324 38.2812 67.9036 57.202 88.7343L72.7964 88.5026C72.7964 88.4833 91.2942 75.1045 72.4887 52.324Z" fill="white"/>
<path fill-rule="evenodd" clip-rule="evenodd" d="M73.3736 88.5024L73.3745 88.5115C73.3922 88.5932 73.6669 88.4448 73.958 88.2623L74.0761 88.187L74.1608 88.1108C74.2591 88.0217 74.3596 87.9287 74.4623 87.8319C75.4416 86.9078 76.4172 85.8187 77.3283 84.5645C79.9633 80.937 81.5349 76.6904 81.5041 71.8644C81.4646 65.6834 78.7746 59.0304 72.9333 51.9542C72.7673 51.7532 72.4877 51.6885 72.2508 51.7964L72.0555 51.8878L71.8529 51.9851C71.7211 52.0491 71.5775 52.1198 71.4227 52.1973L71.3285 52.2446C70.6027 52.6101 69.7948 53.0409 68.9253 53.5347C66.4412 54.9452 63.9571 56.5791 61.636 58.4189C56.6877 62.3411 53.1579 66.6497 51.6759 71.2979C49.8161 77.1307 51.3243 83.1221 56.7762 89.1244L56.8027 89.1517C56.9119 89.2571 57.0585 89.3155 57.211 89.3132L71.0589 89.1073L70.9597 89.1856C70.941 89.2012 70.9472 89.1984 70.9721 89.182L71.0826 89.1071L72.8053 89.0815C73.1093 89.077 73.3555 88.8371 73.3727 88.5361L73.3736 88.5024ZM73.2416 88.889L74.6448 87.8103C74.7283 87.7423 74.4924 87.9123 74.2019 88.1046L74.0759 88.1869L74.0633 88.1985C73.9021 88.3427 73.7473 88.4763 73.5995 88.5997L73.5116 88.6725C73.4116 88.7547 73.3233 88.8253 73.2416 88.889ZM72.3295 53.0404L72.3824 53.1056C77.8277 59.8296 80.3138 66.0924 80.3507 71.8718C80.3798 76.43 78.8949 80.4425 76.3965 83.8819C75.5299 85.0748 74.6019 86.1108 73.6725 86.9877C73.3821 87.2617 73.1114 87.5013 72.8629 87.7086L72.7272 87.8205L72.627 87.9013L72.5954 87.9261L57.4553 88.151L57.3226 88.0016C52.3915 82.4154 51.0804 76.9659 52.775 71.651C54.1748 67.2607 57.5667 63.1203 62.3513 59.328C64.622 57.5281 67.0578 55.926 69.4936 54.5429C70.3459 54.0589 71.137 53.637 71.8461 53.2799L72.1126 53.1469L72.3295 53.0404Z" fill="#2E186A"/>
<path fill-rule="evenodd" clip-rule="evenodd" d="M21.7064 70.8766C21.7064 70.8766 32.5705 96.0703 59.2982 93.3869L64.3937 88.9466C64.3937 88.9466 49.3763 62.1891 21.7064 70.8766Z" fill="white"/>
<path fill-rule="evenodd" clip-rule="evenodd" d="M21.5338 70.3238C21.2067 70.4264 21.0404 70.791 21.1766 71.1067L21.2302 71.2272L21.2993 71.3771C21.3988 71.5907 21.5187 71.8375 21.6591 72.1148C22.0586 72.9039 22.5436 73.7817 23.1163 74.7262C24.7508 77.4218 26.7624 80.1165 29.1697 82.6329C32.6398 86.2603 36.6411 89.2056 41.1978 91.2236C46.6482 93.6374 52.6963 94.6317 59.3551 93.9631C59.4737 93.9512 59.5858 93.9027 59.6758 93.8242L64.7714 89.3839C64.9784 89.2036 65.0304 88.9019 64.8958 88.6622L64.8186 88.5285L64.7584 88.4267C64.6474 88.2406 64.5151 88.0255 64.3614 87.7838C63.924 87.0961 63.4022 86.331 62.7966 85.5079C61.0684 83.1587 59.0131 80.8102 56.6351 78.6173C52.4316 74.7412 47.6815 71.7773 42.3953 70.0922C35.9334 68.0324 28.9695 67.9892 21.5338 70.3238ZM42.046 71.1963C47.1588 72.8261 51.7672 75.7017 55.8544 79.4705C58.1747 81.6101 60.1818 83.9035 61.8684 86.1961C62.458 86.9976 62.9651 87.7411 63.3887 88.4073L63.4431 88.4931C63.4965 88.5777 63.5469 88.6584 63.5944 88.7353L63.6504 88.8267L59.0585 92.8282L58.8104 92.8514C52.5216 93.4157 46.8158 92.4458 41.6632 90.1639C37.2529 88.2107 33.3727 85.3545 30.0015 81.8306C27.6563 79.3791 25.6946 76.7511 24.1015 74.1239C23.5794 73.2629 23.1331 72.4602 22.7608 71.7342L22.6432 71.5025L22.5595 71.3342L22.5112 71.2361L22.5253 71.2319C29.4891 69.1704 35.9952 69.2675 42.046 71.1963Z" fill="#2E186A"/>
<path fill-rule="evenodd" clip-rule="evenodd" d="M92.7165 87.46H38.8958C37.8767 87.46 37.0499 88.2901 37.0499 89.3133V96.0895C37.0499 97.1127 37.8767 97.9429 38.8958 97.9429H41.9724L51.1444 138.407H80.2564L89.4284 97.9429H92.7165C93.7356 97.9429 94.5624 97.1127 94.5624 96.0895V89.3133C94.5624 88.2901 93.7356 87.46 92.7165 87.46Z" fill="#FF8D7E"/>
<path fill-rule="evenodd" clip-rule="evenodd" d="M88.4479 97.3638C88.7665 97.3638 89.0248 97.6231 89.0248 97.9429C89.0248 98.2514 88.7846 98.5035 88.4818 98.5211L88.4479 98.5221H43.0302C42.7116 98.5221 42.4533 98.2628 42.4533 97.9429C42.4533 97.6345 42.6935 97.3824 42.9963 97.3648L43.0302 97.3638H88.4479Z" fill="#2E186A"/>
<path fill-rule="evenodd" clip-rule="evenodd" d="M191.436 40.2581C191.11 40.4125 184.591 40.7793 181.438 40.9531C180.419 41.011 179.515 41.6481 179.111 42.594L177.553 46.2814" fill="white"/>
<path fill-rule="evenodd" clip-rule="evenodd" d="M191.19 39.734C191.478 39.5978 191.822 39.722 191.957 40.0114C192.093 40.3008 191.969 40.6459 191.681 40.7821C191.302 40.961 188.203 41.1603 181.469 41.5313C180.689 41.5756 179.993 42.0534 179.665 42.7649L179.641 42.8201L178.083 46.5075C177.959 46.8019 177.62 46.9394 177.327 46.8145C177.044 46.6941 176.907 46.3737 177.009 46.0869L177.021 46.0552L178.58 42.3658C179.07 41.2182 180.166 40.4451 181.405 40.3747L184.139 40.2203C188.054 39.9933 190.997 39.7958 191.184 39.7361L191.19 39.734Z" fill="#2E186A"/>
<path fill-rule="evenodd" clip-rule="evenodd" d="M188.245 43.2311C188.245 43.2311 193.34 40.3159 194.436 41.5901C195.513 42.8643 194.975 44.4087 190.841 45.6636C186.706 46.8992 188.245 43.2311 188.245 43.2311Z" fill="white"/>
<path fill-rule="evenodd" clip-rule="evenodd" d="M191.247 41.1907C190.833 41.341 190.399 41.5198 189.953 41.7212C189.466 41.941 188.989 42.176 188.542 42.4111L188.318 42.5301C188.27 42.5554 188.225 42.5801 188.182 42.6039L187.958 42.7278C187.848 42.7909 187.762 42.8888 187.712 43.0063C187.669 43.1106 187.608 43.2788 187.549 43.4923C187.447 43.8551 187.386 44.221 187.387 44.5759C187.391 46.1959 188.636 46.9266 191.005 46.2186C193.079 45.589 194.417 44.847 195.056 43.9782C195.704 43.0972 195.615 42.1237 194.917 41.2648L194.872 41.2115C194.214 40.4467 192.98 40.5615 191.247 41.1907ZM193.996 41.9648C194.406 42.4493 194.449 42.8547 194.128 43.2899C193.67 43.9132 192.529 44.5459 190.673 45.1092C189.716 45.3953 189.108 45.3972 188.808 45.2208C188.63 45.1164 188.542 44.911 188.541 44.573C188.541 44.3387 188.585 44.0733 188.66 43.805L188.691 43.7007L188.712 43.6326L188.932 43.5142C188.979 43.4893 189.027 43.4637 189.077 43.4375C189.505 43.2124 189.962 42.9873 190.427 42.7777C190.848 42.5876 191.255 42.4197 191.64 42.28L191.787 42.2275C192.954 41.8212 193.773 41.7481 193.987 41.9553L193.996 41.9648Z" fill="#2E186A"/>
<path fill-rule="evenodd" clip-rule="evenodd" d="M187.418 47.1693C187.418 47.1693 192.514 44.2542 193.61 45.5283C194.706 46.8025 194.148 48.3469 190.014 49.6018C185.88 50.8567 187.418 47.1693 187.418 47.1693Z" fill="white"/>
<path fill-rule="evenodd" clip-rule="evenodd" d="M190.421 45.1289C190.007 45.2793 189.573 45.458 189.127 45.6594C188.64 45.8792 188.163 46.1142 187.716 46.3493L187.492 46.4683C187.445 46.4937 187.399 46.5183 187.356 46.5421L187.133 46.6661C187.022 46.7294 186.935 46.8276 186.886 46.9455C186.843 47.0501 186.782 47.219 186.723 47.4332C186.622 47.796 186.561 48.1618 186.561 48.5165C186.563 50.1438 187.809 50.8761 190.181 50.1562L190.408 50.0858C192.353 49.4717 193.619 48.7527 194.236 47.9175C194.902 47.0168 194.794 46.0191 194.046 45.1498C193.388 44.3849 192.154 44.4997 190.421 45.1289ZM193.174 45.9069C193.588 46.3891 193.632 46.792 193.31 47.2271C192.85 47.8501 191.705 48.4835 189.847 49.0474C188.887 49.3389 188.28 49.3427 187.98 49.1668C187.803 49.0627 187.716 48.8558 187.715 48.515C187.715 48.2799 187.759 48.0137 187.834 47.7446L187.855 47.6739L187.875 47.6061L187.887 47.5706L188.106 47.4524C188.153 47.4275 188.201 47.4019 188.251 47.3757C188.679 47.1507 189.136 46.9255 189.601 46.7159C190.022 46.5258 190.429 46.3579 190.814 46.2182L190.961 46.1657C192.128 45.7595 192.947 45.6863 193.161 45.8935L193.174 45.9069Z" fill="#2E186A"/>
<path fill-rule="evenodd" clip-rule="evenodd" d="M185.88 48.463C185.88 48.463 191.648 47.4012 192.264 48.965C192.879 50.5287 191.841 51.8029 187.533 51.6291C183.226 51.4168 185.88 48.463 185.88 48.463Z" fill="white"/>
<path fill-rule="evenodd" clip-rule="evenodd" d="M189.08 47.5385C188.411 47.5589 187.7 47.6211 186.981 47.712C186.715 47.7457 186.463 47.7815 186.23 47.8176L186.008 47.853L185.787 47.8909L185.775 47.893C185.65 47.9161 185.536 47.98 185.451 48.0748L185.396 48.1385C185.279 48.276 185.131 48.4733 184.984 48.7148C184.726 49.1356 184.552 49.5615 184.506 49.989C184.365 51.29 185.388 52.1029 187.505 52.2073L187.743 52.2156C189.781 52.2749 191.211 52.0123 192.068 51.4272C192.993 50.7962 193.22 49.8187 192.8 48.7518C192.41 47.7621 191.098 47.4769 189.08 47.5385ZM191.726 49.1775C191.959 49.7685 191.867 50.1636 191.419 50.4694C190.779 50.9064 189.491 51.1282 187.556 51.0501L187.407 51.0417C186.002 50.9517 185.598 50.6134 185.652 50.1146C185.677 49.8856 185.79 49.6087 185.966 49.3212L186.013 49.2472C186.06 49.1741 186.109 49.1039 186.158 49.0377L186.189 48.9969L186.296 48.9797L186.518 48.9452C186.709 48.9165 186.912 48.8882 187.125 48.8613C187.81 48.7746 188.487 48.7155 189.115 48.6963L189.276 48.6923C190.685 48.6663 191.608 48.877 191.726 49.1775Z" fill="#2E186A"/>
<path fill-rule="evenodd" clip-rule="evenodd" d="M184.436 56.4168C183.437 65.3552 174.015 91.4564 165.17 92.4023C155.651 93.4062 152.306 84.2361 159.632 76.4366C166.939 68.6372 172.188 58.4825 175.264 52.9032C175.264 52.9032 175.111 45.3933 177.495 45.2002C179.841 44.9686 184.436 56.4168 184.436 56.4168Z" fill="white"/>
<path fill-rule="evenodd" clip-rule="evenodd" d="M177.439 44.6238C176.024 44.7383 175.3 46.3444 174.931 48.9277C174.811 49.7702 174.739 50.6702 174.706 51.5756C174.696 51.8539 174.69 52.118 174.688 52.3638L174.686 52.7031L174.687 52.7566L173.06 55.7286L172.713 56.3583C172.109 57.4523 171.567 58.4184 171.013 59.3854C169.295 62.3807 167.634 65.0668 165.889 67.6127C163.723 70.7721 161.511 73.5861 159.212 76.0398C151.586 84.159 155.081 94.0488 165.23 92.9783C169.523 92.5192 174.058 86.7639 178.269 77.6504C181.675 70.2786 184.466 61.3487 185.01 56.4814C185.021 56.3859 185.008 56.2893 184.972 56.2002L184.799 55.7777L184.661 55.4472C184.528 55.1319 184.382 54.7915 184.225 54.4311C183.647 53.1068 183.031 51.7822 182.403 50.5441C181.876 49.5028 181.362 48.569 180.87 47.7681L180.783 47.6281C179.517 45.5973 178.471 44.5219 177.439 44.6238ZM177.543 45.7775C177.936 45.7388 178.797 46.6237 179.807 48.2428C180.305 49.0419 180.832 49.9952 181.376 51.0694C181.993 52.2856 182.599 53.5908 183.169 54.8961L183.299 55.1959C183.405 55.4414 183.505 55.6761 183.599 55.898L183.786 56.3461L183.848 56.4974L183.83 56.6407C183.225 61.4334 180.514 70.0413 177.223 77.163C173.183 85.906 168.832 91.4283 165.11 91.8264C156.123 92.7743 153.104 84.232 160.053 76.834C162.395 74.3336 164.643 71.4744 166.84 68.2694C168.54 65.7907 170.157 63.1844 171.821 60.2976L172.013 59.9633C172.571 58.9905 173.116 58.0193 173.723 56.9204L175.771 53.1837C175.82 53.0946 175.845 52.9942 175.843 52.8925L175.841 52.6977C175.841 52.6373 175.841 52.5685 175.841 52.492L175.844 52.2562C175.847 52.0547 175.852 51.8412 175.86 51.6182C175.892 50.7506 175.96 49.8897 176.074 49.0922L176.102 48.9062C176.4 46.9783 176.937 45.8266 177.543 45.7775Z" fill="#2E186A"/>
<path fill-rule="evenodd" clip-rule="evenodd" d="M177.842 55.1812L186.245 58.4825C186.956 58.7527 187.745 58.4052 188.014 57.7102L195.148 39.4279C195.417 38.7136 195.071 37.9221 194.378 37.6518L185.976 34.3505C185.264 34.0803 184.476 34.4278 184.206 35.1228L177.073 53.4051C176.803 54.1001 177.15 54.8916 177.842 55.1812Z" fill="#2E186A"/>
<path fill-rule="evenodd" clip-rule="evenodd" d="M179.496 53.9455L185.226 56.2043C185.938 56.4746 186.726 56.1271 186.995 55.4321L192.995 40.0648C193.264 39.3505 192.918 38.559 192.225 38.2887L186.495 36.03C185.784 35.7597 184.995 36.1072 184.726 36.8022L178.727 52.1694C178.458 52.8837 178.804 53.6753 179.496 53.9455Z" fill="white"/>
<path fill-rule="evenodd" clip-rule="evenodd" d="M184.188 36.5924L178.187 51.9646C177.807 52.9728 178.296 54.0987 179.287 54.4855L185.015 56.7435C186.026 57.1276 187.148 56.6366 187.533 55.6421L193.531 40.2763C193.914 39.2617 193.425 38.1358 192.434 37.7491L186.706 35.491C185.695 35.1069 184.574 35.5979 184.188 36.5924ZM186.291 36.5718L192.014 38.8279C192.413 38.9835 192.612 39.4424 192.455 39.86L186.458 55.2208C186.303 55.6206 185.846 55.8207 185.43 55.6627L179.707 53.4065L179.67 53.3911C179.308 53.2278 179.126 52.8073 179.253 52.4138L179.265 52.3784L185.263 37.0137C185.418 36.6139 185.875 36.4138 186.291 36.5718Z" fill="#2E186A"/>
<path fill-rule="evenodd" clip-rule="evenodd" d="M178.245 50.4706C178.707 49.5632 179.418 48.54 180.514 47.6713C186.033 47.2852 184.591 45.1423 182.976 44.2349C181.303 43.3082 178.726 43.7329 177.169 45.2388" fill="white"/>
<path fill-rule="evenodd" clip-rule="evenodd" d="M176.769 44.8216C178.493 43.1541 181.342 42.6686 183.257 43.7295C184.384 44.3622 185.161 45.3041 184.988 46.2531C184.784 47.3678 183.414 48.0067 180.865 48.225L180.737 48.2352L180.672 48.2896C179.889 48.9547 179.279 49.7458 178.816 50.6238L178.759 50.734C178.614 51.0189 178.267 51.1319 177.983 50.9864C177.699 50.841 177.587 50.4921 177.732 50.2072C178.31 49.07 179.105 48.0507 180.157 47.2168C180.248 47.1446 180.359 47.1017 180.474 47.0936C182.738 46.9352 183.773 46.4824 183.853 46.0441C183.91 45.7322 183.435 45.1564 182.697 44.7421C181.244 43.937 178.941 44.3293 177.569 45.656C177.339 45.8779 176.974 45.871 176.753 45.6406C176.532 45.4102 176.539 45.0435 176.769 44.8216Z" fill="#2E186A"/>
<path fill-rule="evenodd" clip-rule="evenodd" d="M161.17 95.607L166.516 82.209C166.516 82.209 138.731 56.4361 129.789 54.3897C123.886 53.0383 111.753 52.7101 106.446 55.4129L94.7359 57.7681C90.621 56.3009 85.6408 57.1311 81.8335 61.8802C73.9691 71.6875 66.6622 107.924 66.6622 107.924L81.2759 109.275L82.6219 106.573C82.6219 106.573 77.5456 138.485 85.4677 138.485C86.1984 138.485 130.405 138.118 130.405 138.118L129.328 100.839C129.328 100.839 132.328 89.603 132.655 80.568C146.864 88.5605 161.17 95.607 161.17 95.607Z" fill="#2E186A"/>
<path fill-rule="evenodd" clip-rule="evenodd" d="M114.907 41.2619L113.099 54.3896L117.772 54.1C117.772 54.1 119.868 65.1042 108.158 66.7838C100.005 67.9421 99.5816 55.7024 99.5816 55.7024L99.947 33.9644L114.907 41.2619Z" fill="white"/>
<path fill-rule="evenodd" clip-rule="evenodd" d="M99.3701 33.9546L99.0047 55.6927L99.005 55.7225L99.0116 55.8602L99.0199 55.9961C99.0231 56.044 99.0267 56.0944 99.0307 56.1473L99.037 56.2284C99.0685 56.621 99.1158 57.0575 99.182 57.5272C99.3716 58.8706 99.6758 60.215 100.122 61.4758C101.581 65.5955 104.211 67.9294 108.238 67.3573C113.198 66.6459 116.221 64.2682 117.627 60.7653C118.462 58.6855 118.628 56.5046 118.418 54.5643L118.405 54.4459C118.38 54.2385 118.356 54.0847 118.338 53.9913L118.331 53.9574C118.263 53.6893 118.014 53.5048 117.736 53.522L113.767 53.7678L115.478 41.3412C115.512 41.0928 115.383 40.8505 115.159 40.7409L100.199 33.4434C99.8196 33.2584 99.3772 33.5312 99.3701 33.9546ZM100.508 34.8822L114.278 41.5992L112.528 54.3104L112.524 54.3442C112.496 54.6923 112.782 54.9896 113.135 54.9678L117.273 54.7112L117.271 54.6898C117.463 56.4567 117.31 58.4564 116.557 60.3325C115.305 63.4518 112.628 65.5577 108.076 66.2105C104.696 66.6908 102.505 64.7469 101.209 61.0878C100.791 59.9076 100.504 58.6367 100.324 57.3648C100.262 56.9191 100.217 56.5057 100.187 56.1355L100.176 55.9882C100.171 55.9183 100.167 55.8539 100.164 55.7954L100.158 55.6952L100.508 34.8822Z" fill="#2E186A"/>
<path fill-rule="evenodd" clip-rule="evenodd" d="M101.141 33.8294L99.8715 34.312C99.8715 34.312 92.3916 36.4743 91.7763 29.2347C91.3148 23.7326 96.5834 23.2113 99.1601 23.2886" fill="white"/>
<path fill-rule="evenodd" clip-rule="evenodd" d="M94.0663 23.6531C95.5105 22.9149 97.3018 22.6533 99.1764 22.7095C99.4949 22.719 99.7453 22.986 99.7358 23.3057C99.7263 23.6254 99.4604 23.8769 99.142 23.8673C97.4434 23.8164 95.8283 24.0522 94.5897 24.6853C92.9735 25.5115 92.1613 26.9331 92.3502 29.1853C92.5877 31.979 93.8761 33.4027 95.9307 33.8712C96.9405 34.1015 98.0381 34.0761 99.0802 33.8926C99.2271 33.8667 99.3617 33.8394 99.4824 33.812L99.618 33.7798L99.6899 33.7611L100.935 33.2876C101.223 33.1784 101.543 33.3145 101.666 33.5926L101.679 33.6241C101.788 33.9125 101.652 34.2337 101.375 34.3579L101.344 34.3708L100.075 34.8535C100.06 34.8591 100.045 34.8641 100.03 34.8684L99.9647 34.8866C99.8105 34.928 99.5772 34.9811 99.2796 35.0335C98.0993 35.2414 96.8562 35.2701 95.6752 35.0008C93.1402 34.4228 91.4817 32.5901 91.2006 29.2831C90.9718 26.555 92.0372 24.6903 94.0663 23.6531Z" fill="#2E186A"/>
<path fill-rule="evenodd" clip-rule="evenodd" d="M127.906 26.3388C128.137 29.6593 127.483 44.988 117.253 46.5517C107.024 48.1155 99.7939 38.8102 98.4479 28.9837C97.1019 19.1571 101.159 10.7399 107.601 9.60087C114.062 8.44253 126.252 2.36128 127.906 26.3388Z" fill="white"/>
<path fill-rule="evenodd" clip-rule="evenodd" d="M115.83 7.49446C114.29 7.54641 112.834 7.79772 110.64 8.31759L108.913 8.73136L108.693 8.78225C108.229 8.88837 107.848 8.96814 107.499 9.03078C100.667 10.2389 96.4988 19.0097 97.8758 29.0626C98.5775 34.1852 100.818 39.0497 104.105 42.4429C107.705 46.1591 112.306 47.8938 117.34 47.1243C122.145 46.3897 125.299 42.7874 127.051 37.2803C128.235 33.5586 128.674 29.0753 128.481 26.2988C127.971 18.9059 126.445 13.9185 123.979 10.9419C121.872 8.39811 119.169 7.38182 115.83 7.49446ZM123.093 11.6825C125.355 14.4132 126.807 19.1113 127.316 26.1646L127.331 26.3791C127.514 29.017 127.09 33.3549 125.953 36.9278C124.321 42.0583 121.463 45.3224 117.167 45.9791C112.517 46.6899 108.283 45.0933 104.933 41.6352C101.824 38.4257 99.6887 33.7903 99.0195 28.9047C97.7174 19.3986 101.588 11.2521 107.701 10.1712L107.874 10.1394C108.225 10.0731 108.605 9.99129 109.06 9.88625L110.757 9.48026C112.966 8.95272 114.392 8.70192 115.87 8.65206C118.875 8.55066 121.233 9.43708 123.093 11.6825Z" fill="#2E186A"/>
<path fill-rule="evenodd" clip-rule="evenodd" d="M118.718 19.2259C119.02 19.1662 119.313 19.354 119.388 19.6489L119.396 19.6821L121.838 32.1148C121.904 32.4529 121.664 32.7711 121.328 32.8034L121.294 32.8057L118.217 32.9215C117.899 32.9335 117.631 32.6841 117.619 32.3644C117.608 32.0562 117.838 31.7952 118.14 31.7662L118.174 31.764L120.575 31.6736L118.264 19.9062C118.205 19.6036 118.392 19.3096 118.685 19.2334L118.718 19.2259Z" fill="#2E186A"/>
<path fill-rule="evenodd" clip-rule="evenodd" d="M112.045 20.7338C113.289 19.8153 114.649 19.5535 115.929 20.4327C115.974 20.4634 116.018 20.4954 116.062 20.5287C116.316 20.7214 116.367 21.0846 116.175 21.3399C115.983 21.5952 115.621 21.646 115.367 21.4533C115.337 21.4307 115.308 21.4092 115.278 21.3887C114.482 20.8423 113.621 21.0081 112.729 21.667C112.54 21.8064 112.367 21.9566 112.216 22.1063L112.161 22.1613C112.119 22.2042 112.086 22.2394 112.063 22.2651L112.041 22.2912C111.835 22.5356 111.471 22.5666 111.228 22.3603C110.984 22.154 110.953 21.7886 111.159 21.5442L111.196 21.5007C111.246 21.4446 111.317 21.3695 111.406 21.2808C111.595 21.0942 111.809 20.9082 112.045 20.7338Z" fill="#2E186A"/>
<path fill-rule="evenodd" clip-rule="evenodd" d="M122.417 20.2846C123.32 19.7651 124.26 19.5293 125.179 19.7647C125.676 19.892 126.135 20.1555 126.542 20.5601C126.769 20.785 126.771 21.1517 126.547 21.3791C126.323 21.6065 125.957 21.6085 125.731 21.3835C125.468 21.1226 125.19 20.963 124.894 20.8871C124.319 20.7398 123.658 20.9056 122.99 21.2896C122.81 21.3933 122.644 21.5046 122.498 21.6154L122.445 21.6559C122.405 21.6875 122.373 21.7133 122.351 21.7319L122.329 21.7508C122.092 21.9641 121.727 21.9439 121.515 21.7056C121.302 21.4672 121.323 21.1011 121.56 20.8877L121.597 20.8551C121.647 20.8128 121.716 20.7567 121.803 20.6905C121.986 20.5518 122.192 20.4138 122.417 20.2846Z" fill="#2E186A"/>
<path fill-rule="evenodd" clip-rule="evenodd" d="M116.714 27.7159C116.727 26.8203 116.282 26.0877 115.719 26.0795C115.156 26.0713 114.689 26.7906 114.676 27.6861C114.663 28.5816 115.109 29.3143 115.672 29.3225C116.235 29.3307 116.701 28.6114 116.714 27.7159Z" fill="#2E186A"/>
<path fill-rule="evenodd" clip-rule="evenodd" d="M126.555 28.2095C126.568 27.314 126.123 26.5813 125.56 26.5731C124.997 26.5649 124.53 27.2842 124.517 28.1798C124.504 29.0753 124.95 29.8079 125.513 29.8161C126.076 29.8244 126.542 29.105 126.555 28.2095Z" fill="#2E186A"/>
<path fill-rule="evenodd" clip-rule="evenodd" d="M104.996 25.2853C104.747 30.3674 107.61 34.6824 111.468 34.8743C115.326 35.0662 118.597 31.0564 118.846 25.9742C119.095 20.8921 116.232 16.5771 112.374 16.3852C108.516 16.1933 105.245 20.2031 104.996 25.2853ZM105.859 25.3281C106.087 20.6781 109.016 17.0877 112.33 17.2526C115.644 17.4174 118.209 21.2811 117.981 25.9311C117.753 30.5811 114.824 34.1715 111.509 34.0067C108.195 33.8418 105.631 29.9781 105.859 25.3281Z" fill="#EF7F00"/>
<path fill-rule="evenodd" clip-rule="evenodd" d="M122.164 25.7443C121.915 30.8264 124.778 35.1414 128.636 35.3333C132.494 35.5252 135.765 31.5154 136.014 26.4332C136.263 21.3511 133.4 17.0361 129.542 16.8442C125.684 16.6523 122.413 20.6621 122.164 25.7443ZM123.027 25.7871C123.255 21.1371 126.184 17.5467 129.498 17.7116C132.812 17.8764 135.376 21.7401 135.148 26.3901C134.921 31.0401 131.991 34.6305 128.677 34.4656C125.363 34.3008 122.799 30.4371 123.027 25.7871Z" fill="#EF7F00"/>
<path fill-rule="evenodd" clip-rule="evenodd" d="M118.65 23.0474L122.726 23.1632C122.965 23.17 123.153 23.3699 123.146 23.6097C123.14 23.8395 122.957 24.0226 122.731 24.0314L122.702 24.0316L118.625 23.9158C118.386 23.909 118.198 23.7091 118.205 23.4693C118.211 23.2395 118.395 23.0564 118.62 23.0475L118.65 23.0474Z" fill="#EF7F00"/>
<path fill-rule="evenodd" clip-rule="evenodd" d="M105.802 21.853C106.04 21.8268 106.254 21.999 106.28 22.2375C106.305 22.466 106.148 22.6725 105.926 22.7123L105.897 22.7165L96.4171 23.759C96.1796 23.7852 95.9659 23.613 95.9399 23.3746C95.915 23.146 96.0714 22.9395 96.2935 22.8997L96.3229 22.8955L105.802 21.853Z" fill="#EF7F00"/>
<path fill-rule="evenodd" clip-rule="evenodd" d="M115.157 37.3044C115.157 37.3044 117.022 38.8296 118.887 38.2504L115.157 37.3044Z" fill="white"/>
<path fill-rule="evenodd" clip-rule="evenodd" d="M118.749 37.6878C119.044 37.6148 119.347 37.7845 119.438 38.0791C119.529 38.3738 119.373 38.6859 119.062 38.8002L119.027 38.8121L119.057 38.8036C117.963 39.1433 116.829 38.9204 115.742 38.3577C115.492 38.2284 115.264 38.09 115.061 37.951L114.983 37.8966C114.898 37.8363 114.834 37.7872 114.792 37.7534C114.545 37.5514 114.508 37.1866 114.709 36.9385C114.903 36.7001 115.246 36.6564 115.492 36.833L115.58 36.9012C115.614 36.926 115.658 36.9575 115.711 36.9942C115.877 37.1077 116.065 37.2218 116.27 37.3281C117.089 37.7517 117.91 37.9211 118.675 37.7093L118.749 37.6878Z" fill="#2E186A"/>
<path fill-rule="evenodd" clip-rule="evenodd" d="M134.193 10.9136C130.252 -5.47683 109.254 -0.418776 105.966 6.8015C92.1792 3.63539 86.7183 13.7322 84.0839 20.2575C81.5458 26.5704 82.9879 32.5744 86.0837 39.3507C87.872 43.2504 95.5826 40.5476 99.7552 40.065L99.7744 34.3505C98.9284 34.5629 92.333 36.0301 91.7754 29.2539C91.5638 26.7828 92.5253 25.3155 93.8713 24.4468C94.3712 25.1418 95.3134 25.4507 96.8709 25.1032C102.313 23.9448 105.351 18.6937 106.774 15.296L131.559 14.3886C133.328 14.3307 134.616 12.6511 134.193 10.9136Z" fill="#2E186A"/>
<path fill-rule="evenodd" clip-rule="evenodd" d="M104.219 50.8845C105.404 44.8813 102.143 39.1746 96.9344 38.1383C91.726 37.1019 86.5431 41.1283 85.3581 47.1315C84.1731 53.1347 87.4347 58.8414 92.6431 59.8777C97.8515 60.9141 103.034 56.8877 104.219 50.8845Z" fill="#2E186A"/>
<path fill-rule="evenodd" clip-rule="evenodd" d="M112.203 63.2566C113.965 59.1893 112.536 54.644 109.011 53.1044C105.485 51.5647 101.199 53.6138 99.4369 57.6811C97.6746 61.7484 99.1038 66.2938 102.629 67.8334C106.154 69.373 110.441 67.324 112.203 63.2566Z" fill="#2E186A"/>
<path fill-rule="evenodd" clip-rule="evenodd" d="M117.017 74.0489C119.544 70.9996 119.454 66.7423 116.817 64.5399C114.18 62.3376 109.994 63.0241 107.468 66.0735C104.941 69.1228 105.031 73.3801 107.668 75.5825C110.305 77.7848 114.491 77.0982 117.017 74.0489Z" fill="#2E186A"/>
<path fill-rule="evenodd" clip-rule="evenodd" d="M114.773 83.9852C116.965 85.7999 120.445 85.2208 122.541 82.7111C124.637 80.2013 124.541 76.6877 122.349 74.873C120.157 73.0583 116.599 73.4637 114.503 75.9734C112.407 78.5024 112.581 82.1898 114.773 83.9852Z" fill="#2E186A"/>
<path fill-rule="evenodd" clip-rule="evenodd" d="M117.06 91.4756C119.406 93.1745 119.579 95.0472 119.194 96.4565C119.002 97.1129 119.752 97.6727 120.31 97.2866C123.578 95.0472 128.712 90.549 125.617 85.9543C124.155 83.7727 121.079 83.1163 118.483 84.6415C115.868 86.1666 114.926 89.9505 117.06 91.4756Z" fill="#2E186A"/>
<path fill-rule="evenodd" clip-rule="evenodd" d="M103.689 51.4255C103.908 51.0595 104.38 50.9403 104.744 51.1592C105.097 51.3711 105.22 51.822 105.03 52.1826L105.01 52.2183L101.145 58.705C100.927 59.071 100.454 59.1902 100.09 58.9713C99.737 58.7594 99.6144 58.3085 99.8045 57.9479L99.8245 57.9121L103.689 51.4255Z" fill="#EF7F00"/>
<path fill-rule="evenodd" clip-rule="evenodd" d="M112.213 62.4953C112.544 62.2276 113.028 62.2798 113.294 62.6118C113.552 62.9328 113.512 63.3977 113.211 63.6702L113.178 63.6977L108.217 67.7132C107.887 67.9809 107.403 67.9287 107.136 67.5967C106.878 67.2758 106.918 66.8108 107.22 66.5383L107.252 66.5109L112.213 62.4953Z" fill="#EF7F00"/>
<path fill-rule="evenodd" clip-rule="evenodd" d="M115.73 74.3977C116.109 74.2037 116.572 74.3543 116.765 74.7341C116.952 75.1016 116.818 75.5491 116.466 75.7534L116.43 75.7731L114.661 76.6804C114.283 76.8744 113.819 76.7238 113.626 76.3441C113.439 75.9765 113.574 75.529 113.925 75.3247L113.961 75.3051L115.73 74.3977Z" fill="#EF7F00"/>
<path fill-rule="evenodd" clip-rule="evenodd" d="M120.565 82.8287C120.967 82.6926 121.403 82.9099 121.539 83.3141C121.67 83.7056 121.471 84.1289 121.093 84.2787L121.055 84.2924L119.171 84.9295C118.769 85.0656 118.332 84.8482 118.197 84.444C118.065 84.0525 118.264 83.6292 118.643 83.4794L118.68 83.4658L120.565 82.8287Z" fill="#EF7F00"/>
<path fill-rule="evenodd" clip-rule="evenodd" d="M53.8754 129.315C53.8754 129.315 45.088 134.045 42.646 135.319C40.2039 136.593 40.3001 138.215 40.3001 138.215H43.3766L52.3756 134.315" fill="white"/>
<path fill-rule="evenodd" clip-rule="evenodd" d="M54.3845 129.041C54.5351 129.323 54.4295 129.674 54.1487 129.825L50.5962 131.734L45.6013 134.408C44.3935 135.052 43.476 135.539 42.9127 135.833C42.5352 136.03 42.2129 136.241 41.9414 136.463C41.5002 136.825 41.212 137.199 41.043 137.568L41.0134 137.635H43.2583L52.1477 133.783C52.4298 133.661 52.7555 133.782 52.8916 134.054L52.9059 134.085C53.0277 134.368 52.9067 134.695 52.6356 134.832L52.6049 134.847L43.6059 138.746C43.5482 138.771 43.4869 138.787 43.4244 138.792L43.3773 138.794H40.3008C40.0068 138.794 39.7618 138.572 39.7279 138.283L39.7242 138.234L39.7239 138.226C39.7166 137.983 39.7671 137.649 39.9202 137.259C40.1519 136.669 40.5708 136.092 41.2115 135.566C41.5151 135.317 41.864 135.084 42.2603 134.869L43.34 134.3C44.023 133.938 44.9094 133.466 45.9672 132.901L48.7047 131.436L53.6036 128.804C53.8843 128.653 54.234 128.759 54.3845 129.041Z" fill="#2E186A"/>
<path fill-rule="evenodd" clip-rule="evenodd" d="M67.3175 107.48L61.0297 130.164L56.0688 129.199C54.5497 129.006 53.0307 129.45 51.8385 130.415L42.8011 137.075C42.3204 137.442 42.5703 138.214 43.1664 138.214C48.8581 138.195 62.7603 138.157 65.1446 138.214C68.4135 138.292 70.2594 136.979 73.0091 129.971C74.4512 126.284 77.7393 116.38 80.8351 108.561L67.3175 107.48Z" fill="white"/>
<path fill-rule="evenodd" clip-rule="evenodd" d="M67.3284 106.901C67.0667 106.896 66.8321 107.069 66.7611 107.325L60.6159 129.494L56.1779 128.63L56.1406 128.624L56.0443 128.613C54.4394 128.435 52.8334 128.898 51.5522 129.903L51.4881 129.954L42.4591 136.609C41.5352 137.314 42.0117 138.794 43.1658 138.794L49.1094 138.776C56.6083 138.757 62.6294 138.756 64.7081 138.786L65.1301 138.794C68.945 138.884 70.8778 136.981 73.5452 130.183L73.658 129.887C74.5186 127.592 78.07 117.555 79.039 114.916L79.255 114.329C79.6482 113.264 80.0267 112.254 80.3936 111.292L80.4934 111.03C80.7941 110.245 81.0863 109.493 81.3706 108.775C81.514 108.413 81.2673 108.015 80.8803 107.984L67.3627 106.903L67.3284 106.901ZM67.7458 108.095L80.0122 109.076L79.9741 109.174C79.8646 109.454 79.754 109.739 79.6422 110.029L79.4171 110.615C79.0174 111.66 78.6044 112.76 78.1739 113.927L77.8574 114.788C76.7018 117.957 73.0386 128.311 72.4722 129.759L72.3228 130.137C69.9234 136.155 68.3493 137.679 65.2545 137.637L64.9653 137.631C62.6753 137.589 53.6523 137.6 43.1646 137.635C43.1271 137.635 43.1061 137.57 43.1502 137.536L52.1799 130.882L52.2007 130.866L52.2729 130.808C53.3129 129.996 54.6098 129.622 55.906 129.763L55.9798 129.771L60.9201 130.733C61.2153 130.79 61.5049 130.61 61.5856 130.319L67.7458 108.095Z" fill="#2E186A"/>
<path fill-rule="evenodd" clip-rule="evenodd" d="M45.5313 138.215C45.5313 138.215 52.4536 134.431 53.492 133.967C54.5303 133.504 58.126 134.025 58.126 134.025" fill="white"/>
<path fill-rule="evenodd" clip-rule="evenodd" d="M53.2567 133.438C53.7549 133.216 54.5753 133.163 55.6952 133.213C56.1568 133.234 56.6472 133.273 57.1466 133.324L57.4118 133.353C57.4984 133.362 57.5831 133.372 57.6657 133.382L57.9665 133.419L58.2075 133.452C58.5228 133.498 58.7416 133.791 58.696 134.108C58.6505 134.425 58.358 134.644 58.0427 134.599L57.8724 134.575C57.8375 134.571 57.8004 134.566 57.7611 134.561L57.5292 134.532C57.3701 134.513 57.2025 134.494 57.0289 134.477C56.5499 134.427 56.0808 134.39 55.6433 134.37L55.4755 134.364C54.622 134.334 53.9839 134.381 53.7253 134.497L53.6127 134.549C53.1681 134.761 52.1002 135.322 50.5906 136.131L49.7593 136.578C49.3722 136.787 48.9739 137.002 48.5696 137.221L45.8063 138.723C45.5265 138.876 45.1761 138.772 45.0238 138.492C44.8771 138.221 44.9675 137.885 45.2242 137.724L45.2947 137.684L47.1035 136.699C47.5142 136.476 47.9231 136.255 48.3247 136.037L50.2519 135C51.831 134.154 52.8847 133.604 53.2567 133.438Z" fill="#2E186A"/>
<path fill-rule="evenodd" clip-rule="evenodd" d="M52.3375 137.867C52.3375 137.867 51.7799 135.473 54.0104 135.126C56.2409 134.778 59.2405 134.276 61.298 132.461" fill="white"/>
<path fill-rule="evenodd" clip-rule="evenodd" d="M60.9174 132.026C61.1568 131.815 61.5213 131.839 61.7315 132.079C61.9418 132.32 61.9182 132.686 61.6789 132.897C60.6666 133.789 59.4046 134.431 57.8883 134.898L57.7098 134.951C56.6731 135.259 55.7003 135.449 54.099 135.698C53.4183 135.804 53.0771 136.124 52.9299 136.636C52.8413 136.944 52.8343 137.291 52.8781 137.609L52.8891 137.681C52.8913 137.694 52.8933 137.705 52.895 137.714L52.8994 137.735C52.9719 138.047 52.7793 138.358 52.469 138.431C52.1588 138.504 51.8485 138.31 51.776 137.999L51.7653 137.949C51.7559 137.902 51.7454 137.841 51.7353 137.767C51.6712 137.302 51.6814 136.802 51.8215 136.315C52.0896 135.383 52.7837 134.731 53.9221 134.553L54.1995 134.51C57.5335 133.975 59.3794 133.383 60.9174 132.026Z" fill="#2E186A"/>
<path fill-rule="evenodd" clip-rule="evenodd" d="M229.971 115.955H219.876C214.05 111.09 190.245 91.186 184.438 86.4369C177.612 80.8382 167.344 68.8302 153.268 78.8884C144.75 84.9696 125.56 101.399 112.581 115.974L108.658 120.569C102.428 128.195 98.5825 134.894 99.8324 138.678L229.086 138.504L229.971 115.955Z" fill="#24348C"/>
<path fill-rule="evenodd" clip-rule="evenodd" d="M246.854 132.732L243.816 103.87C243.816 101.495 241.336 99.9509 239.221 101.013C235.298 102.982 230.145 108.214 229.183 121.978C226.011 121.283 222.319 120.839 218.05 120.743L201.302 133.098V138.369H249.047C249.047 138.388 248.835 135.878 246.854 132.732Z" fill="#EF7F00"/>
<path fill-rule="evenodd" clip-rule="evenodd" d="M144.788 85.2593L136.25 85.9929C130.232 86.8037 122.771 88.1551 115.541 89.5451C115.541 89.5451 107.734 80.8383 105.908 82.7109C105.119 83.5218 104.658 88.908 104.812 93.3097L102.581 94.1591C102.581 94.1591 91.5823 86.9002 87.6405 96.9584C87.5251 97.2673 87.8135 97.5762 88.1212 97.4604C89.198 97.055 91.2554 96.6882 92.14 99.5261C92.14 99.5261 91.89 99.3137 90.3325 101.708C88.948 103.851 87.179 115.415 97.6393 119.102C99.0622 119.72 98.0431 119.102 99.7352 119.913C100.274 122.905 102.504 125.222 104.581 125.666C106.965 126.168 109.176 121.052 109.484 119.391C110.945 115.086 112.907 119.141 114.733 119.855C118.368 121.283 120.271 111.496 120.637 106.824L126.944 101.206L128.04 100.472C127.963 100.453 127.886 100.453 127.809 100.433L144.788 85.2593Z" fill="#EF7F00"/>
<path fill-rule="evenodd" clip-rule="evenodd" d="M105.175 84.0237C105.313 83.7354 105.658 83.614 105.945 83.7526L106.013 83.786C106.067 83.8131 106.139 83.8499 106.227 83.8962C106.445 84.0105 106.686 84.1438 106.946 84.2951C107.689 84.7272 108.431 85.2186 109.126 85.7621C111.508 87.6225 112.804 89.6353 112.335 91.7557C112.265 92.068 111.957 92.2648 111.646 92.1954C111.335 92.1261 111.139 91.8167 111.208 91.5044C111.552 89.9508 110.482 88.2888 108.418 86.6762C107.767 86.1678 107.067 85.7046 106.367 85.2971C106.123 85.1545 105.895 85.0293 105.692 84.9226L105.548 84.8478L105.445 84.7966C105.158 84.658 105.037 84.312 105.175 84.0237Z" fill="#2E186A"/>
<path fill-rule="evenodd" clip-rule="evenodd" d="M91.3167 95.0292C93.5926 93.8337 96.5394 93.655 100.106 95.109C100.401 95.2294 100.543 95.5672 100.423 95.8635C100.304 96.1599 99.9671 96.3026 99.6719 96.1823C96.4244 94.8583 93.8314 95.0155 91.8516 96.0555C91.5191 96.2302 91.2356 96.4162 91.0014 96.6002L90.9384 96.6507C90.8599 96.7146 90.8036 96.7649 90.7697 96.7977L90.7485 96.8189C90.5279 97.0497 90.1628 97.0572 89.9329 96.8357C89.7031 96.6142 89.6956 96.2476 89.9162 96.0168L89.956 95.9766C90.0298 95.9042 90.1411 95.8054 90.2901 95.6883C90.5779 95.462 90.9201 95.2376 91.3167 95.0292Z" fill="#2E186A"/>
<path fill-rule="evenodd" clip-rule="evenodd" d="M99.6578 106.959L101.484 107.538C101.754 107.615 102.042 107.461 102.119 107.19L102.657 105.472C102.792 105.067 102.388 104.719 102.004 104.893L99.6385 106.032C99.2155 106.244 99.2347 106.824 99.6578 106.959Z" fill="#2E186A"/>
<path fill-rule="evenodd" clip-rule="evenodd" d="M101.167 107.407C100.955 106.747 101.866 106.339 102.214 106.937C102.521 107.465 102.942 108.006 103.261 108.28L103.287 108.301L103.29 108.273C103.301 108.152 103.304 108.004 103.296 107.829L103.293 107.761C103.277 107.442 103.521 107.169 103.839 107.153C104.157 107.136 104.429 107.381 104.445 107.701C104.485 108.451 104.398 108.96 104.118 109.28C103.754 109.698 103.249 109.663 102.785 109.366C102.714 109.32 102.641 109.266 102.567 109.206L102.51 109.158L102.499 109.233L102.486 109.304C102.277 110.377 101.363 110.612 100.426 109.764C100.189 109.549 100.17 109.183 100.384 108.946C100.597 108.708 100.962 108.689 101.198 108.903C101.248 108.948 101.294 108.987 101.336 109.019L101.362 109.037L101.363 109.032C101.42 108.65 101.346 108.004 101.189 107.478L101.167 107.407Z" fill="#2E186A"/>
<path fill-rule="evenodd" clip-rule="evenodd" d="M115.225 110.358C115.288 110.044 115.592 109.841 115.905 109.905C116.217 109.968 116.419 110.274 116.355 110.588C116.101 111.848 116.198 113.687 116.554 115.804C116.686 116.594 116.849 117.38 117.019 118.088L117.063 118.272C117.108 118.451 117.151 118.617 117.19 118.762L117.24 118.942C117.269 119.043 117.292 119.119 117.304 119.152L117.308 119.161C117.424 119.459 117.278 119.795 116.981 119.912C116.684 120.028 116.35 119.881 116.233 119.584C116.067 119.157 115.667 117.488 115.416 115.996C115.039 113.75 114.936 111.791 115.225 110.358Z" fill="#2E186A"/>
<path fill-rule="evenodd" clip-rule="evenodd" d="M111.641 111.468C111.784 111.182 112.13 111.066 112.415 111.209C112.626 111.315 112.744 111.534 112.733 111.756L112.733 111.759L112.741 111.824L112.754 111.92L112.772 112.03C112.797 112.184 112.832 112.373 112.875 112.581C113.008 113.24 113.192 113.993 113.41 114.746C114.003 116.788 114.75 118.499 115.603 119.546C115.805 119.794 115.768 120.158 115.522 120.361C115.275 120.564 114.912 120.527 114.71 120.28C113.736 119.085 112.935 117.249 112.303 115.07C112.092 114.346 111.913 113.622 111.777 112.973L111.693 112.559C111.558 111.876 111.54 111.67 111.641 111.468Z" fill="#2E186A"/>
<path fill-rule="evenodd" clip-rule="evenodd" d="M118.754 101.544L119.01 101.45C122.469 100.19 126.234 99.5716 128.192 99.901C128.506 99.9539 128.719 100.252 128.666 100.568C128.613 100.883 128.316 101.096 128.002 101.043C126.228 100.745 122.513 101.371 119.158 102.629C115.142 104.135 112.159 106.284 111.049 108.759C108.835 113.732 110.599 117.573 114.945 119.297C115.241 119.415 115.387 119.751 115.27 120.049C115.152 120.346 114.817 120.492 114.521 120.374C109.585 118.416 107.503 113.884 109.996 108.285C111.261 105.465 114.478 103.148 118.754 101.544Z" fill="#2E186A"/>
<path fill-rule="evenodd" clip-rule="evenodd" d="M105.975 116.911C106.288 116.971 106.494 117.274 106.435 117.588L106.408 117.732C106.387 117.851 106.363 117.988 106.338 118.141C106.264 118.58 106.191 119.06 106.123 119.565C106.004 120.442 105.913 121.3 105.86 122.102L105.845 122.348C105.77 123.685 105.817 124.754 106.001 125.436C106.085 125.745 105.904 126.063 105.596 126.147C105.289 126.231 104.972 126.049 104.888 125.74C104.65 124.861 104.606 123.597 104.709 122.026C104.763 121.195 104.857 120.311 104.979 119.409C105.041 118.956 105.106 118.523 105.172 118.12L105.25 117.656L105.301 117.372C105.361 117.058 105.662 116.851 105.975 116.911Z" fill="#2E186A"/>
<path fill-rule="evenodd" clip-rule="evenodd" d="M102.344 116.785C102.663 116.793 102.914 117.059 102.907 117.379L102.905 117.469C102.9 117.877 102.906 118.407 102.931 119.014C102.97 119.913 103.045 120.798 103.166 121.623L103.199 121.835C103.448 123.409 103.85 124.574 104.381 125.13C104.601 125.361 104.594 125.727 104.364 125.949C104.134 126.17 103.768 126.162 103.548 125.931C102.779 125.126 102.304 123.696 102.025 121.792C101.897 120.924 101.819 120 101.779 119.064L101.77 118.831C101.753 118.374 101.748 117.964 101.75 117.62L101.753 117.35C101.761 117.03 102.026 116.777 102.344 116.785Z" fill="#2E186A"/>
<path fill-rule="evenodd" clip-rule="evenodd" d="M105.136 112.487C107.15 112.471 109.476 113.086 110.227 113.742C110.468 113.952 110.493 114.318 110.284 114.559C110.083 114.791 109.738 114.824 109.498 114.639L109.47 114.616C108.968 114.177 106.903 113.632 105.145 113.646C102.825 113.664 101.19 114.505 100.588 116.296C100.363 116.958 100.215 118.287 100.215 119.256C100.215 119.576 99.9569 119.836 99.6383 119.836C99.3198 119.836 99.0615 119.576 99.0615 119.256C99.0615 118.171 99.2224 116.729 99.4956 115.924C100.281 113.587 102.375 112.509 105.136 112.487Z" fill="#2E186A"/>
<path fill-rule="evenodd" clip-rule="evenodd" d="M106.272 100.106C106.59 100.127 106.831 100.403 106.81 100.722C106.806 100.79 106.793 100.891 106.768 101.016C106.727 101.221 106.663 101.428 106.569 101.626C106.108 102.596 105.138 102.961 103.82 102.349C103.531 102.215 103.405 101.871 103.538 101.58C103.672 101.29 104.015 101.164 104.304 101.298C105.043 101.641 105.336 101.531 105.527 101.128C105.577 101.023 105.614 100.905 105.638 100.786L105.648 100.731C105.652 100.706 105.655 100.686 105.657 100.671L105.659 100.647C105.679 100.339 105.935 100.103 106.238 100.105L106.272 100.106Z" fill="#2E186A"/>
<path fill-rule="evenodd" clip-rule="evenodd" d="M98.5026 103.35C98.8206 103.371 99.0616 103.646 99.041 103.965C99.0366 104.033 99.0241 104.134 98.999 104.259C98.9576 104.465 98.8934 104.671 98.7992 104.87C98.3386 105.84 97.3687 106.204 96.0505 105.593C95.7613 105.458 95.6352 105.114 95.7689 104.824C95.9026 104.533 96.2454 104.407 96.5346 104.541C97.2737 104.884 97.5665 104.774 97.7578 104.371C97.8076 104.266 97.8442 104.148 97.8682 104.03L97.8784 103.975C97.8826 103.95 97.8855 103.929 97.8874 103.914L97.8897 103.89C97.9096 103.583 98.1654 103.347 98.4688 103.349L98.5026 103.35Z" fill="#2E186A"/>
<path fill-rule="evenodd" clip-rule="evenodd" d="M92.9842 110.512C93.2597 110.351 93.6127 110.445 93.7729 110.722C93.933 110.998 93.8396 111.353 93.5642 111.514C91.8886 112.492 90.5366 114.067 89.4796 116.082C88.8136 117.352 88.3053 118.718 87.9356 120.084C87.8062 120.562 87.7035 121.006 87.6249 121.403L87.5992 121.535C87.5912 121.578 87.5837 121.618 87.5768 121.657L87.5575 121.767C87.5472 121.828 87.5409 121.869 87.5382 121.887C87.4927 122.204 87.2002 122.424 86.8849 122.378C86.5696 122.332 86.3508 122.039 86.3963 121.722L86.4148 121.603C86.4323 121.498 86.4582 121.354 86.4933 121.177C86.577 120.754 86.6856 120.285 86.8223 119.78C87.2127 118.338 87.7498 116.894 88.4588 115.543C89.609 113.35 91.1002 111.612 92.9842 110.512Z" fill="white"/>
<path fill-rule="evenodd" clip-rule="evenodd" d="M95.1786 111.582C95.4708 111.455 95.8106 111.589 95.9373 111.883C96.0596 112.166 95.9392 112.493 95.6684 112.63L95.6376 112.645C94.9612 112.939 93.7592 114.482 92.9017 116.315C91.8631 118.535 91.445 120.812 91.8742 122.658C91.9466 122.969 91.7538 123.28 91.4436 123.353C91.1333 123.426 90.8231 123.232 90.7507 122.921C90.254 120.785 90.718 118.258 91.8575 115.822C92.8241 113.756 94.179 112.017 95.1786 111.582Z" fill="white"/>
<path fill-rule="evenodd" clip-rule="evenodd" d="M110.043 104.187C111.611 103.926 113.434 103.973 115.167 104.427C117.401 105.012 119.345 106.226 120.823 108.15C121.018 108.403 120.971 108.766 120.719 108.962C120.467 109.157 120.105 109.11 119.91 108.857C118.595 107.146 116.873 106.071 114.876 105.548C113.308 105.137 111.647 105.094 110.231 105.33C109.917 105.382 109.62 105.168 109.568 104.853C109.516 104.537 109.729 104.239 110.043 104.187Z" fill="white"/>
<path fill-rule="evenodd" clip-rule="evenodd" d="M110.347 102.242C111.768 101.335 114.069 101.019 116.455 101.396C119.07 101.809 121.532 102.995 123.338 104.856C123.56 105.085 123.556 105.452 123.327 105.675C123.099 105.898 122.734 105.893 122.512 105.664C120.888 103.992 118.655 102.917 116.276 102.541C114.146 102.204 112.123 102.481 110.967 103.22C110.698 103.391 110.341 103.312 110.17 103.042C109.999 102.772 110.078 102.414 110.347 102.242Z" fill="white"/>
<path fill-rule="evenodd" clip-rule="evenodd" d="M165.343 17.5354H176.938C177.746 17.5354 178.399 18.2111 178.399 19.0605V34.7173L173.362 29.4855L165.324 29.3697C164.517 29.3697 163.882 28.694 163.882 27.8446V19.0605C163.882 18.2304 164.536 17.5354 165.343 17.5354Z" fill="#EF7F00"/>
<path fill-rule="evenodd" clip-rule="evenodd" d="M169.112 24.2923V22.7093C169.112 21.551 170.132 20.605 171.362 20.605C172.593 20.605 173.612 21.551 173.612 22.7093C173.612 22.7286 173.612 22.7286 173.612 22.7479V24.2537C173.612 24.273 173.612 24.273 173.612 24.2923C173.612 25.4507 172.593 26.3966 171.362 26.3966C170.132 26.3966 169.112 25.4507 169.112 24.2923ZM170.228 22.69V24.2731C170.228 24.8522 170.747 25.3349 171.362 25.3349C171.997 25.3349 172.497 24.8522 172.497 24.2731V22.7093V22.6707C172.497 22.0915 171.977 21.6089 171.362 21.6089C170.747 21.6282 170.228 22.1109 170.228 22.69Z" fill="white"/>
<path fill-rule="evenodd" clip-rule="evenodd" d="M284.502 137.886C284.777 137.886 285 138.146 285 138.465C285 138.774 284.793 139.026 284.531 139.044L284.502 139.045H0.49831C0.223101 139.045 0 138.785 0 138.465C0 138.157 0.20745 137.905 0.46903 137.887L0.49831 137.886H284.502Z" fill="#2E186A"/>
<circle cx="31" cy="91" r="31" fill="#3A55D1"/>
<path d="M31.4272 106.398C29.2965 106.398 27.4073 106.033 25.7596 105.304C24.1119 104.575 22.8145 103.562 21.8675 102.264C20.9206 100.967 20.4281 99.4706 20.3903 97.7756H26.5835C26.6403 98.8362 27.1232 99.6932 28.0323 100.347C28.9509 101 30.0872 101.327 31.4414 101.327C32.8524 101.327 34.003 100.967 34.8931 100.247C35.7927 99.518 36.2378 98.5758 36.2283 97.4205C36.2378 96.2462 35.7596 95.2898 34.7937 94.5511C33.8372 93.803 32.5352 93.429 30.8874 93.429H28.1744V88.9119H30.8874C32.2889 88.9119 33.43 88.5616 34.3107 87.8608C35.1914 87.1506 35.627 86.2225 35.6175 85.0767C35.627 83.9782 35.2482 83.0881 34.4812 82.4062C33.7236 81.7244 32.7246 81.3835 31.484 81.3835C30.2246 81.3835 29.1497 81.715 28.2596 82.3778C27.3694 83.0407 26.9054 83.9261 26.8675 85.0341H20.9727C21.0011 83.358 21.4793 81.8807 22.4073 80.6023C23.3353 79.3144 24.5853 78.3106 26.1573 77.5909C27.7388 76.8712 29.5238 76.5114 31.5124 76.5114C33.52 76.5114 35.2766 76.8759 36.7823 77.6051C38.288 78.3343 39.4575 79.3191 40.2908 80.5597C41.1336 81.7907 41.5503 83.1733 41.5408 84.7074C41.5503 86.3362 41.0437 87.6951 40.021 88.7841C39.0077 89.8731 37.6867 90.5644 36.0579 90.858V91.0852C38.198 91.3504 39.8268 92.089 40.9442 93.3011C42.0711 94.5133 42.6299 96.0237 42.6204 97.8324C42.6299 99.4896 42.1516 100.962 41.1857 102.25C40.2293 103.538 38.9083 104.551 37.2227 105.29C35.5371 106.028 33.6052 106.398 31.4272 106.398Z" fill="white"/>
</svg>
