<svg width="299" height="145" viewBox="0 0 299 145" fill="none" xmlns="http://www.w3.org/2000/svg">
<path fill-rule="evenodd" clip-rule="evenodd" d="M162.289 56.6842C159.627 59.0432 113.942 90.3743 113.942 90.3743L85.5897 51.3272C85.5897 51.3272 80.9794 45.3804 77.3305 44.6924C72.3997 43.7832 58.6179 46.56 58.9877 53.0227C58.8644 55.0623 71.1916 53.2685 72.5722 63.0978L76.7635 66.9313C76.7635 66.9313 88.8195 93.3476 94.6133 106.224C105.51 129.765 128.71 122.074 135.268 117.405C149.445 107.305 172.842 92.3893 172.842 92.3893L162.289 56.6842Z" fill="white"/>
<path fill-rule="evenodd" clip-rule="evenodd" d="M65.7821 45.4475C61.0302 47.1215 58.1173 49.6849 58.2436 52.964L58.2465 53.0271L58.2486 52.9783C58.2127 53.5723 58.5629 53.9996 59.1342 54.2905C59.4781 54.4657 59.9171 54.6055 60.5568 54.7601L60.8394 54.8256C61.3579 54.9416 62.588 55.2064 62.9694 55.2949C63.9639 55.526 64.7976 55.7598 65.5904 56.0448C69.17 57.3311 71.317 59.4845 71.8389 63.2L71.8478 63.2504C71.8796 63.4002 71.9575 63.5368 72.0713 63.6409L76.1517 67.373L80.6293 77.1952C81.6913 79.5269 82.7481 81.8481 83.786 84.1296L88.922 95.4339C90.9266 99.8532 92.6218 103.601 93.9376 106.526C98.9495 117.353 106.898 122.603 116.527 123.129C123.594 123.516 131.304 121.133 135.697 118.005L136.598 117.366C139.575 115.259 143.049 112.87 146.936 110.248L148.199 109.398C148.523 109.181 148.848 108.962 149.176 108.743L150.5 107.857C155.158 104.747 160.08 101.513 165.015 98.3103L167.173 96.9117C168.219 96.2355 169.218 95.591 170.163 94.9829L173.239 93.0103C173.517 92.8335 173.643 92.4955 173.55 92.1809L162.998 56.4758C162.845 55.9573 162.203 55.774 161.797 56.1331L161.723 56.1973C160.382 57.3236 151.977 63.2307 138.899 72.2836L135.282 74.7849C131.33 77.5161 127.207 80.3587 123.06 83.2124L114.117 89.3586L86.1881 50.8949L86.1097 50.7945L85.9815 50.6347L85.9326 50.5744C85.7413 50.3397 85.5222 50.0787 85.2785 49.798C84.5825 48.9961 83.827 48.1941 83.0364 47.4436C81.8724 46.3384 80.7325 45.4402 79.6425 44.8204C78.8838 44.3889 78.1585 44.0983 77.4672 43.9679C74.7206 43.4615 69.8705 44.0334 65.9281 45.3965L65.7821 45.4475ZM77.1953 45.4173C77.7061 45.5136 78.2831 45.7448 78.9096 46.1011C79.8806 46.6533 80.9319 47.4816 82.0164 48.5113C82.7694 49.2262 83.4931 49.9944 84.16 50.7627L84.354 50.9882C84.448 51.0984 84.5374 51.2047 84.622 51.3065L84.8305 51.5607L85.0039 51.778L113.342 90.8065C113.569 91.1183 113.996 91.2022 114.322 91.0064L114.5 90.8862L121.935 85.7782L127.818 81.7282C130.852 79.6376 133.849 77.5702 136.748 75.5662L143.747 70.7199C153.026 64.2824 159.323 59.856 161.772 58.0249L161.888 57.9374L171.975 92.0669L169.361 93.7442C167.985 94.6297 166.494 95.5921 164.914 96.6171L163.502 97.5331C158.564 100.742 153.65 103.974 149.012 107.077L148.351 107.519C147.858 107.849 147.371 108.177 146.888 108.501L145.216 109.63C141.285 112.287 137.797 114.697 134.838 116.805C130.71 119.744 123.33 122.025 116.608 121.657C107.52 121.161 100.061 116.234 95.2842 105.915L91.5003 97.5401L87.8808 89.5635L83.8796 80.7656L77.4361 66.626L77.4093 66.5731C77.3708 66.5042 77.3214 66.4417 77.2629 66.3881L73.2639 62.7305L73.2422 62.5997C72.5377 58.5163 70.02 56.0693 66.0924 54.6578C65.2949 54.3713 64.4696 54.1356 63.5125 53.9078L63.2115 53.8376C62.67 53.7147 61.2927 53.4189 61.0063 53.3513L60.8267 53.308C60.3374 53.1871 60.012 53.0818 59.8075 52.9777L59.7532 52.9484L59.723 52.9301L59.7255 52.9808C59.5823 50.4791 62.0823 48.287 66.4131 46.7896C70.1298 45.5045 74.7278 44.9623 77.1953 45.4173Z" fill="#2E186A"/>
<path fill-rule="evenodd" clip-rule="evenodd" d="M64.5838 10.7073C64.4113 9.94554 63.1046 9.47865 62.3649 9.4295C60.2693 8.15169 55.3878 6.60356 46.6355 11.3217C38.1297 15.9169 31.9414 15.6711 28.2679 12.0097C27.5776 11.3217 26.3942 11.9606 26.6408 12.9189L29.4267 24.4684C29.6486 25.4268 30.1417 26.3114 30.8073 27.024C33.5686 29.9728 40.4226 31.865 50.309 26.5326C55.4371 23.7558 60.146 23.5592 63.4004 24.0507L77.1822 87.0077L81.2255 86.1722L64.5838 10.7073Z" fill="#FF8D7E"/>
<path fill-rule="evenodd" clip-rule="evenodd" d="M70.0074 62.0903C70.0074 62.0903 67.8378 61.3285 68.183 64.6705C68.5282 67.9879 71.6593 70.4944 75.6533 68.0862C79.6226 65.678 79.0556 64.2282 76.9599 63.2698C74.8643 62.3115 71.1415 64.2282 71.1415 64.2282" fill="white"/>
<path fill-rule="evenodd" clip-rule="evenodd" d="M68.8411 61.385C69.2422 61.2501 69.6439 61.2523 70.0202 61.3318C70.1198 61.3528 70.1989 61.3756 70.2542 61.395C70.6395 61.5303 70.8418 61.9513 70.706 62.3353C70.5752 62.7056 70.1778 62.9063 69.8041 62.7989L69.7558 62.784C69.7478 62.7819 69.7333 62.7784 69.7135 62.7742C69.5742 62.7448 69.4273 62.7439 69.3142 62.782C68.9975 62.8885 68.7911 63.3493 68.9197 64.5945C69.2527 67.7947 72.0849 69.3768 75.2697 67.4565L75.4629 67.3378C77.0394 66.356 77.7865 65.5642 77.8474 65.0482C77.8859 64.7221 77.5349 64.3434 76.6525 63.9399C76.2101 63.7376 75.5938 63.6889 74.8464 63.7891C74.22 63.8731 73.5372 64.0558 72.8391 64.308C72.4867 64.4353 72.1536 64.5719 71.8514 64.7082L71.731 64.7633C71.6737 64.7898 71.6208 64.8149 71.5727 64.8383L71.482 64.8832C71.1191 65.0701 70.6729 64.9283 70.4854 64.5666C70.2979 64.2048 70.4402 63.7601 70.8031 63.5733L70.8619 63.5435C70.9505 63.4995 71.0788 63.4383 71.2416 63.3649C71.5769 63.2137 71.9447 63.0628 72.335 62.9218C73.1249 62.6364 73.9057 62.4275 74.6492 62.3279C75.6498 62.1937 76.534 62.2635 77.2694 62.5998C78.6693 63.24 79.4508 64.083 79.3166 65.2205C79.1838 66.3449 78.1066 67.4615 76.0371 68.717C71.8877 71.2189 67.8894 68.9854 67.4483 64.746C67.2561 62.8852 67.7662 61.7467 68.8411 61.385Z" fill="#2E186A"/>
<path fill-rule="evenodd" clip-rule="evenodd" d="M67.2955 57.8635C67.2955 57.8635 64.1891 58.0847 64.7808 61.869C65.3725 65.6533 69.687 67.3489 74.1987 64.1789C78.6858 61.0089 77.9462 59.3871 75.4315 58.5024C72.9167 57.6178 68.7008 60.198 68.7008 60.198" fill="white"/>
<path fill-rule="evenodd" clip-rule="evenodd" d="M67.2435 57.1284C67.6509 57.0994 68.0048 57.4051 68.0339 57.8112C68.062 58.2028 67.7778 58.5448 67.3921 58.5947L67.3489 58.599C67.3104 58.6018 67.2126 58.6166 67.0773 58.6516C66.8442 58.7119 66.6113 58.807 66.3981 58.9421C65.6496 59.4162 65.279 60.2641 65.5122 61.7556C66.0474 65.1787 69.8954 66.3011 73.7717 63.5776C75.7382 62.1883 76.6577 61.1116 76.7035 60.4343C76.7326 60.0033 76.2755 59.5811 75.1859 59.1978C74.6598 59.0127 73.9599 59.0094 73.1291 59.1776C72.4145 59.3222 71.6387 59.5854 70.8425 59.9332C70.3917 60.1301 69.9633 60.3415 69.5723 60.5526L69.416 60.6381C69.3663 60.6656 69.3192 60.6922 69.2746 60.7176L69.0885 60.8264C68.7404 61.0394 68.2849 60.9309 68.0712 60.5839C67.8574 60.237 67.9663 59.783 68.3144 59.5699L68.3747 59.5336C68.4863 59.4672 68.6533 59.3719 68.8677 59.2561C69.293 59.0265 69.7578 58.7972 70.2486 58.5828C71.1337 58.1962 72.0051 57.9006 72.8347 57.7327C73.9053 57.516 74.8624 57.5204 75.6783 57.8074C77.322 58.3857 78.2656 59.2574 78.1794 60.5334C78.0945 61.7902 76.9303 63.1533 74.6255 64.7816C69.9195 68.0881 64.7704 66.5862 64.0506 61.9827C63.728 59.9197 64.3527 58.4908 65.6046 57.6978C65.9579 57.474 66.3319 57.3211 66.7057 57.2244C66.9346 57.1653 67.1201 57.1372 67.2435 57.1284Z" fill="#2E186A"/>
<path fill-rule="evenodd" clip-rule="evenodd" d="M69.3421 50.9094C69.3421 50.9094 61.6746 54.1285 62.291 58.1094C62.9073 62.0658 67.6163 63.7122 72.3007 60.3948C76.985 57.0773 76.2207 55.4064 73.6073 54.4726C70.994 53.5388 66.5808 56.2419 66.5808 56.2419" fill="white"/>
<path fill-rule="evenodd" clip-rule="evenodd" d="M69.055 50.2299C69.4315 50.0718 69.8652 50.2479 70.0237 50.6231C70.1767 50.9849 70.0179 51.3998 69.6688 51.5707L69.4605 51.6626L69.3463 51.7144C69.1131 51.8212 68.8523 51.9467 68.571 52.0897C67.7674 52.4983 66.9641 52.9636 66.2181 53.4751C64.0004 54.9956 62.8006 56.5675 63.0218 57.9962C63.576 61.5533 67.7958 62.6805 71.8722 59.7936C73.9348 58.3329 74.9017 57.2042 74.9529 56.4873C74.986 56.0234 74.5042 55.576 73.3577 55.1664C72.8023 54.9679 72.0621 54.9646 71.1828 55.1445C70.4387 55.2967 69.6316 55.5715 68.8033 55.934C68.332 56.1402 67.8839 56.3616 67.4749 56.5826C67.3893 56.6289 67.3094 56.673 67.2354 56.7147L67.0152 56.8415C66.9939 56.8541 66.9781 56.8636 66.9681 56.8698C66.62 57.0829 66.1645 56.9745 65.9507 56.6277C65.7368 56.2808 65.8456 55.8268 66.1936 55.6136L66.3328 55.5307C66.43 55.4741 66.5548 55.4036 66.7042 55.3221L66.7697 55.2865C67.213 55.047 67.6974 54.8077 68.2086 54.5839C69.1252 54.1829 70.0272 53.8758 70.8854 53.7002C72.0074 53.4707 73.0079 53.4751 73.8569 53.7785C75.5564 54.3857 76.5219 55.2822 76.4284 56.592C76.336 57.8857 75.1267 59.2975 72.729 60.9955C67.8352 64.4613 62.3018 62.9832 61.56 58.2217C61.2242 56.0532 62.7354 54.0733 65.3797 52.2603C66.1839 51.709 67.0415 51.2122 67.8988 50.7763C68.1988 50.6238 68.4778 50.4895 68.7289 50.3745L68.9436 50.278C68.9899 50.2576 69.0273 50.2415 69.055 50.2299Z" fill="#2E186A"/>
<path fill-rule="evenodd" clip-rule="evenodd" d="M58.9879 53.0227C59.6782 57.495 65.0036 59.3381 70.3043 55.6275C75.605 51.8923 74.7174 49.9756 71.7589 48.9435C68.8004 47.9114 64.9296 51.7449 64.9296 51.7449" fill="white"/>
<path fill-rule="evenodd" clip-rule="evenodd" d="M69.8808 48.096C70.629 47.9748 71.3416 48.017 72.0029 48.2477C73.8888 48.9056 74.9607 49.8919 74.8665 51.3202C74.7721 52.7517 73.42 54.3346 70.7291 56.2308C65.2368 60.0754 59.0736 58.4282 58.2566 53.1348C58.1944 52.7324 58.4714 52.356 58.8751 52.2941C59.2789 52.2322 59.6565 52.5082 59.7186 52.9106C60.3498 56.9997 65.2036 58.297 69.877 55.0255L70.1006 54.8663C72.2983 53.2858 73.3362 52.0463 73.3904 51.2235C73.4289 50.6408 72.8451 50.1036 71.5142 49.6393C71.1008 49.4951 70.6352 49.4675 70.1181 49.5513C69.2201 49.6967 68.2169 50.1675 67.1921 50.8649C66.738 51.1738 66.311 51.506 65.925 51.8378C65.8174 51.9304 65.7194 52.0174 65.632 52.0974L65.4597 52.2589C65.4562 52.2623 65.4532 52.2653 65.4506 52.2678C65.1609 52.5548 64.6926 52.5533 64.4046 52.2645C64.1167 51.9757 64.1182 51.5089 64.408 51.222L64.4941 51.1386C64.604 51.0342 64.7608 50.8917 64.9588 50.7214C65.3845 50.3553 65.8548 49.9896 66.358 49.6472C67.5461 48.8387 68.7325 48.282 69.8808 48.096Z" fill="#2E186A"/>
<path fill-rule="evenodd" clip-rule="evenodd" d="M72.9663 46.2404C72.9663 46.2404 66.926 39.1879 69.2435 35.2316C71.561 31.2998 72.8184 38.4015 74.988 38.8684C77.1575 39.3353 85.5893 51.3025 85.5893 51.3025" fill="white"/>
<path fill-rule="evenodd" clip-rule="evenodd" d="M68.6065 34.8582C69.3532 33.5915 70.2209 33.0521 71.1862 33.4211C71.8211 33.6638 72.3013 34.2117 72.9363 35.2245L72.9982 35.324C73.0411 35.3934 73.085 35.4652 73.1323 35.5433L73.5683 36.2722C74.3161 37.5101 74.7567 38.0443 75.1196 38.1418L75.1448 38.1479C76.2142 38.378 77.9568 40.1643 80.514 43.3296L80.6141 43.4537C80.9167 43.8294 81.2269 44.2204 81.5438 44.625C82.5083 45.8568 83.4967 47.1667 84.4651 48.4842L84.787 48.9236C85.0784 49.3223 85.3512 49.6988 85.602 50.0476L86.1954 50.879C86.4301 51.2121 86.3495 51.6719 86.0152 51.9059C85.6809 52.1399 85.2196 52.0595 84.9848 51.7263L84.6073 51.1959L84.1812 50.6034C84.0321 50.397 83.8761 50.1821 83.714 49.9598L83.5913 49.7916C82.5298 48.339 81.4381 46.8865 80.3776 45.5321C80.1274 45.2126 79.8815 44.9018 79.6404 44.6007L79.2907 44.1665C77.1226 41.4928 75.4312 39.7535 74.8545 39.5945L74.8326 39.5891C73.9041 39.3893 73.3428 38.7505 72.3668 37.1417L71.9617 36.4645C71.8771 36.3232 71.8064 36.2066 71.7391 36.0979L71.6393 35.9387C71.1988 35.2468 70.8781 34.8825 70.6564 34.7977C70.6098 34.7799 70.5897 34.782 70.5172 34.827C70.3478 34.9323 70.1295 35.1851 69.883 35.6033C69.3485 36.5158 69.3215 37.739 69.7578 39.2216C70.0948 40.3671 70.6907 41.608 71.4719 42.8816C71.9236 43.618 72.4085 44.3188 72.8932 44.9594L73.0352 45.1453C73.1045 45.2353 73.1714 45.3207 73.2354 45.4013L73.3597 45.5562C73.4426 45.6585 73.5006 45.728 73.5296 45.7619C73.7948 46.0715 73.7579 46.5369 73.4473 46.8012C73.1485 47.0554 72.7054 47.0312 72.436 46.7537L72.4045 46.7191C72.3717 46.6809 72.3167 46.615 72.2421 46.5236L72.209 46.4828C72.0586 46.2972 71.8916 46.0844 71.7121 45.8471C71.2001 45.1704 70.6884 44.4308 70.2099 43.6507C69.3663 42.2754 68.7168 40.923 68.3383 39.6365C67.7981 37.8005 67.8338 36.1774 68.6065 34.8582Z" fill="#2E186A"/>
<path fill-rule="evenodd" clip-rule="evenodd" d="M298.135 143.6C294.24 135.565 266.01 116.668 266.01 116.668L243.624 143.6H298.135Z" fill="white"/>
<path fill-rule="evenodd" clip-rule="evenodd" d="M265.441 116.198L243.055 143.13C242.655 143.611 242.998 144.338 243.624 144.338H298.135C298.681 144.338 299.038 143.769 298.801 143.28C297.459 140.51 293.456 136.499 287.356 131.49L287.17 131.338C285.784 130.204 284.306 129.031 282.748 127.827C279.176 125.067 275.351 122.269 271.526 119.577L270.54 118.886C269.735 118.323 268.97 117.793 268.253 117.301L267.219 116.594L266.423 116.056C266.108 115.845 265.683 115.906 265.441 116.198ZM245.198 142.863L266.152 117.653L266.74 118.053L267.63 118.663C268.57 119.31 269.59 120.019 270.673 120.782C274.482 123.462 278.29 126.247 281.842 128.992C283.39 130.188 284.857 131.352 286.232 132.477L286.761 132.913C291.728 137.015 295.23 140.425 296.854 142.863H245.198Z" fill="#2E186A"/>
<path fill-rule="evenodd" clip-rule="evenodd" d="M246.854 97.2794C233.097 86.8111 187.116 58.7975 181.865 55.7995C175.159 51.9661 157.777 54.3251 134.257 68.3319L137.018 97.304L101.467 143.6H247.199L268.18 116.668L246.854 97.2794Z" fill="#FFC29E"/>
<path fill-rule="evenodd" clip-rule="evenodd" d="M201.983 58.7236L191.036 71.7721C185.119 78.8246 185.859 89.4158 192.885 95.3871C193.008 95.4854 193.132 95.5837 193.255 95.682C198.925 100.277 206.42 98.4096 211.228 96.37C214.039 95.1905 216.479 93.2246 218.279 90.7673L228.757 76.4165L201.983 58.7236Z" fill="white"/>
<path fill-rule="evenodd" clip-rule="evenodd" d="M201.415 58.2507L190.468 71.2991C184.265 78.6935 185.101 89.7405 192.405 95.948L192.793 96.2576C195.553 98.4943 198.882 99.4226 202.599 99.2504C205.519 99.1152 208.537 98.3129 211.517 97.0483C214.424 95.8283 216.981 93.79 218.876 91.2019L229.355 76.8502C229.603 76.5108 229.517 76.0339 229.166 75.802L202.391 58.1091C202.077 57.9016 201.657 57.9626 201.415 58.2507ZM202.125 59.7023L227.704 76.6051L217.68 90.3335C215.942 92.7065 213.6 94.5745 210.94 95.6906C208.106 96.8929 205.253 97.6515 202.53 97.7776C199.21 97.9314 196.28 97.132 193.842 95.2071L193.346 94.8114C186.682 89.1471 185.916 79.0233 191.603 72.2449L202.125 59.7023Z" fill="#2E186A"/>
<path fill-rule="evenodd" clip-rule="evenodd" d="M243.008 56.8808C243.008 56.8808 250.478 59.9771 246.484 66.1696C242.49 72.362 235.71 65.2112 235.71 65.2112L240.591 56.0945L243.008 56.8808Z" fill="white"/>
<path fill-rule="evenodd" clip-rule="evenodd" d="M239.939 55.7474L235.057 64.8641C234.908 65.1436 234.954 65.4873 235.172 65.7175L235.294 65.8416C235.413 65.9606 235.577 66.1173 235.782 66.3019C236.256 66.7293 236.784 67.1562 237.355 67.5558C239.088 68.7684 240.845 69.4839 242.546 69.4278C244.339 69.3686 245.899 68.4392 247.106 66.5682C249.384 63.037 248.538 60.0245 245.806 57.7599C245.259 57.3064 244.676 56.9198 244.093 56.5976L243.946 56.5178C243.663 56.3661 243.437 56.2604 243.292 56.2001C243.274 56.1927 243.256 56.186 243.237 56.18L240.821 55.3937C240.48 55.2826 240.108 55.4318 239.939 55.7474ZM240.952 56.987L242.745 57.5709L242.856 57.6209L242.89 57.6371C243.035 57.706 243.199 57.7894 243.376 57.8871C243.883 58.1672 244.39 58.5036 244.86 58.8935C247.067 60.7225 247.689 62.9385 245.862 65.771C244.911 67.2443 243.791 67.9115 242.497 67.9542C241.179 67.9977 239.7 67.395 238.205 66.349C237.687 65.9868 237.205 65.5976 236.774 65.2088L236.623 65.0704L240.952 56.987Z" fill="#2E186A"/>
<path fill-rule="evenodd" clip-rule="evenodd" d="M229.94 27.2943C227.623 26.164 212.239 24.7141 208.812 30.8821C202.87 41.596 199.517 54.6937 198.531 60.8861C197.545 67.0786 224.59 74.6472 226.267 74.721C227.943 74.7947 230.384 73.7626 230.384 73.7626L240.813 57.8145C240.788 57.8145 250.551 37.4186 229.94 27.2943Z" fill="white"/>
<path fill-rule="evenodd" clip-rule="evenodd" d="M219.748 25.6154C214.138 25.944 209.937 27.4564 208.215 30.4348L208.164 30.5255C203.097 39.6628 199.199 51.9839 197.8 60.7706C197.283 64.0186 202.219 67.2761 210.867 70.6813L211.13 70.7845C216.901 73.0391 224.857 75.3969 226.234 75.4575C226.671 75.4767 227.156 75.434 227.683 75.3397C228.187 75.2497 228.717 75.1151 229.257 74.9477C229.553 74.8561 229.838 74.7592 230.106 74.6613L230.264 74.6025C230.453 74.5312 230.593 74.475 230.673 74.4413C230.808 74.3841 230.923 74.2879 231.004 74.1652L241.432 58.217L241.454 58.1818C241.468 58.1581 241.48 58.1341 241.491 58.1098L241.508 58.0671L241.588 57.8845C241.672 57.6898 241.76 57.4746 241.856 57.229C242.135 56.5162 242.41 55.7148 242.668 54.8294C244.134 49.7863 244.384 44.5028 242.635 39.5281C240.771 34.2272 236.763 29.824 230.267 26.6331C228.751 25.8939 223.943 25.3699 219.748 25.6154ZM209.307 31.5145L209.459 31.2393C210.827 28.7771 214.631 27.3921 219.835 27.0873C223.797 26.8554 228.382 27.3549 229.615 27.9566C235.767 30.9786 239.506 35.0853 241.239 40.0157C242.871 44.6577 242.635 49.6448 241.247 54.4191C241.023 55.1904 240.785 55.8933 240.544 56.5238L240.478 56.6939C240.403 56.8854 240.334 57.0563 240.268 57.2123L240.158 57.4649L229.891 73.1655L229.741 73.2234C229.455 73.3312 229.144 73.4391 228.819 73.5397C228.333 73.6902 227.86 73.8103 227.423 73.8885C226.994 73.965 226.615 73.9984 226.299 73.9845C225.139 73.9335 217.292 71.6082 211.67 69.4118L211.195 69.2247C203.498 66.1684 198.922 63.1344 199.261 61.0018C200.621 52.4617 204.403 40.4613 209.307 31.5145Z" fill="#2E186A"/>
<path fill-rule="evenodd" clip-rule="evenodd" d="M238.373 56.7088C236.623 57.4706 230.41 63.3191 228.265 66.3416C228.265 66.3416 221.041 60.2474 209.158 55.3819C209.158 55.3819 202.6 52.9491 199.69 52.7034C199.69 52.7034 195.573 64.7689 198.433 72.9764C201.293 81.1839 213.127 83.8624 219.833 82.216C226.539 80.5942 228.092 79.1689 230.878 75.7041C233.64 72.2392 242.663 58.773 242.663 58.773L238.373 56.7088Z" fill="#968BB4"/>
<path fill-rule="evenodd" clip-rule="evenodd" d="M240.789 60.5667C240.789 60.5667 246.484 56.5121 250.083 51.3763C253.461 46.5599 253.19 39.9988 249.196 35.6493C245.843 32.0125 241.824 31.4227 241.824 31.4227C241.824 31.4227 248.432 24.8616 243.353 16.2118C241.578 13.1647 238.57 10.9776 235.118 10.1913C226.686 8.25 222.249 14.6391 222.249 14.6391C222.249 14.6391 217.564 -4.11041 196.657 0.828842C194.537 1.32031 191.751 3.50734 190.272 5.10461C181.273 14.6882 197.841 33.0937 207.974 36.8534C219.118 40.9817 225.602 39.8759 230.212 38.5736C226.958 39.0896 223.432 56.6596 240.789 60.5667Z" fill="#2E186A"/>
<path fill-rule="evenodd" clip-rule="evenodd" d="M210.004 50.3074C210.215 49.9588 210.669 49.8467 211.019 50.057C211.356 50.2596 211.473 50.6873 211.293 51.03L211.27 51.0691L206.462 59.0112L209.689 60.3533C210.053 60.5044 210.231 60.9112 210.103 61.277L210.087 61.3175C209.935 61.6798 209.527 61.8578 209.16 61.7295L209.12 61.714L205.101 60.043C204.698 59.8754 204.53 59.4005 204.73 59.0207L204.752 58.9818L210.004 50.3074Z" fill="#2E186A"/>
<path fill-rule="evenodd" clip-rule="evenodd" d="M207.61 50.1359C207.97 49.2269 207.789 48.3044 207.206 48.0755C206.623 47.8465 205.859 48.3979 205.5 49.3069C205.14 50.216 205.321 51.1385 205.904 51.3674C206.487 51.5963 207.251 51.045 207.61 50.1359Z" fill="#2E186A"/>
<path fill-rule="evenodd" clip-rule="evenodd" d="M217.906 53.1174C218.265 52.2083 218.084 51.2858 217.502 51.0569C216.919 50.828 216.155 51.3793 215.796 52.2884C215.436 53.1974 215.617 54.1199 216.2 54.3488C216.783 54.5778 217.546 54.0264 217.906 53.1174Z" fill="#2E186A"/>
<path fill-rule="evenodd" clip-rule="evenodd" d="M219.31 43.6419C219.402 43.2452 219.799 42.9978 220.197 43.0894C221.58 43.4076 222.663 44.1019 223.466 45.0539C223.864 45.5247 224.167 46.0277 224.389 46.532C224.526 46.8409 224.607 47.0893 224.645 47.2484C224.74 47.6443 224.495 48.0422 224.098 48.1369C223.715 48.2283 223.33 48.0045 223.218 47.6334L223.197 47.5563C223.191 47.5385 223.184 47.5147 223.175 47.4855C223.14 47.3789 223.094 47.2578 223.035 47.1258C222.867 46.7435 222.636 46.3598 222.334 46.0031C221.73 45.2873 220.923 44.7695 219.864 44.526C219.466 44.4344 219.218 44.0386 219.31 43.6419Z" fill="#2E186A"/>
<path fill-rule="evenodd" clip-rule="evenodd" d="M208.077 39.3392C208.94 39.1676 209.819 39.3487 210.667 39.7436C211.035 39.9151 211.318 40.0885 211.491 40.214C211.821 40.4539 211.894 40.915 211.653 41.244C211.422 41.5604 210.985 41.6394 210.658 41.4318L210.559 41.3644C210.537 41.35 210.51 41.3329 210.478 41.3135C210.348 41.2341 210.201 41.1541 210.041 41.0794C209.452 40.8055 208.869 40.6852 208.366 40.7851C207.975 40.8629 207.63 41.0739 207.321 41.4636C207.068 41.783 206.603 41.8371 206.282 41.5846C205.962 41.3321 205.907 40.8685 206.161 40.5491C206.687 39.8852 207.341 39.4856 208.077 39.3392Z" fill="#2E186A"/>
<path fill-rule="evenodd" clip-rule="evenodd" d="M213.891 66.2293C213.841 66.2521 213.771 66.2831 213.679 66.3207L213.632 66.34C213.348 66.4547 213.013 66.5704 212.63 66.6791C211.624 66.9647 210.487 67.1476 209.239 67.1772C208.813 67.1873 208.484 67.5526 208.519 67.9755C208.53 68.1116 208.561 68.3279 208.621 68.5993C208.72 69.0487 208.869 69.4991 209.079 69.926L209.118 70.0025C209.782 71.2929 210.892 72.0801 212.461 72.0212L212.512 72.0185L212.473 72.0171C214.284 72.1081 215.158 70.9039 215.252 69.1082C215.283 68.5292 215.234 67.9239 215.133 67.3232C215.113 67.2043 215.092 67.092 215.071 66.9856L215.038 66.8312L215.011 66.713C214.918 66.2478 214.417 65.994 213.988 66.1826L213.891 66.2293ZM213.72 67.8811L213.737 68.018C213.776 68.3677 213.791 68.7108 213.775 69.0312C213.718 70.114 213.375 70.5862 212.547 70.5446L212.507 70.5437L212.467 70.5449C211.475 70.6026 210.836 70.1456 210.406 69.2751L210.35 69.1572C210.279 68.9984 210.217 68.8331 210.166 68.6649L210.149 68.6068L210.337 68.5911C211.306 68.5038 212.208 68.3319 213.035 68.0971C213.228 68.0423 213.411 67.9855 213.584 67.9277L213.72 67.8811Z" fill="#2E186A"/>
<path fill-rule="evenodd" clip-rule="evenodd" d="M214.878 128.07L241.455 131.559L247.397 143.6H283.54C283.54 143.6 252.303 117.405 242.515 114.554C231.52 110.402 220.499 114.358 218.601 116.594C216.505 119.076 209.774 125.44 206.224 125.956C202.674 126.473 198.483 125.318 198.557 127.455C198.581 128.438 198.138 131.584 203.438 131.166C207.358 130.871 211.377 130.527 214.878 128.07Z" fill="white"/>
<path fill-rule="evenodd" clip-rule="evenodd" d="M227.021 112.452C232.116 111.577 237.515 111.928 242.552 113.781L242.752 113.855L242.834 113.88C246.442 114.974 252.801 118.958 261.234 125.131L262.019 125.708C263.177 126.561 264.364 127.448 265.575 128.365C269.567 131.386 273.669 134.609 277.679 137.844L278.43 138.45C279.586 139.386 280.669 140.27 281.664 141.088L282.982 142.176L284.016 143.036C284.533 143.47 284.243 144.302 283.583 144.336L283.54 144.337H247.397C247.131 144.337 246.888 144.196 246.756 143.969L246.733 143.925L240.966 132.238L215.062 128.837L214.99 128.886C213.413 129.932 211.672 130.639 209.677 131.103L209.476 131.148L209.277 131.192C207.72 131.526 206.293 131.688 203.666 131.888L203.496 131.901C200.323 132.151 198.572 131.214 198.012 129.403C197.855 128.896 197.815 128.477 197.816 127.824L197.818 127.495L197.817 127.481C197.78 126.412 198.441 125.764 199.548 125.515L199.687 125.485C200.242 125.374 200.808 125.346 201.979 125.355L203.334 125.369C203.934 125.374 204.329 125.368 204.777 125.348C205.264 125.326 205.706 125.287 206.117 125.227C207.547 125.019 209.837 123.625 212.487 121.444L212.759 121.218C214.807 119.505 216.91 117.451 218.036 116.118C219.246 114.692 222.872 113.164 227.021 112.452ZM242.252 115.244C237.413 113.416 232.195 113.06 227.271 113.905C223.433 114.563 220.099 115.969 219.166 117.069L219.002 117.259C217.763 118.689 215.629 120.755 213.568 122.465L213.428 122.581C210.576 124.928 208.115 126.426 206.33 126.686C205.924 126.745 205.498 126.785 205.041 126.811L204.843 126.82C204.391 126.841 203.995 126.847 203.426 126.844L201.998 126.829C200.871 126.821 200.362 126.847 199.911 126.945L199.874 126.953C199.412 127.057 199.295 127.158 199.295 127.406L199.296 127.508L199.296 127.718C199.291 128.297 199.316 128.617 199.425 128.969C199.755 130.035 200.81 130.613 203.267 130.439L203.703 130.406C206.276 130.208 207.636 130.047 209.153 129.709C211.122 129.271 212.799 128.594 214.301 127.57L214.46 127.461L214.49 127.441L214.53 127.418L214.571 127.398L214.613 127.381L214.655 127.366L214.698 127.354L214.721 127.349L214.785 127.338L214.829 127.334L214.873 127.332L214.93 127.334L214.974 127.339L241.551 130.828C241.78 130.858 241.98 130.993 242.095 131.19L242.118 131.234L247.857 142.863H281.496L280.072 141.692C279.41 141.15 278.714 140.582 277.986 139.991L277.496 139.595C273.261 136.166 268.907 132.738 264.68 129.539C263.473 128.626 262.292 127.743 261.139 126.893L260.616 126.509C252.207 120.339 245.83 116.332 242.412 115.293L242.307 115.262C242.289 115.256 242.27 115.25 242.252 115.244Z" fill="#2E186A"/>
<path fill-rule="evenodd" clip-rule="evenodd" d="M219.981 119.764C219.981 119.764 213.916 125.882 214.088 127.897C214.261 129.912 217.022 134.09 219.093 134.09C221.164 134.09 224.27 133.943 224.27 133.943" fill="white"/>
<path fill-rule="evenodd" clip-rule="evenodd" d="M220.5 119.239C220.779 119.514 220.793 119.955 220.54 120.246L220.489 120.3L220.26 120.535L220.084 120.718C219.933 120.876 219.771 121.047 219.6 121.229C218.917 121.958 218.235 122.72 217.599 123.474C217.327 123.797 217.069 124.113 216.827 124.418L216.684 124.6C215.475 126.152 214.786 127.374 214.825 127.835C214.993 129.789 217.662 133.353 219.093 133.353L219.503 133.351C219.882 133.348 220.303 133.341 220.758 133.33L221.299 133.316C221.483 133.311 221.669 133.305 221.858 133.299L222.877 133.263C223.096 133.255 223.31 133.246 223.517 133.238L224.235 133.206C224.643 133.187 224.99 133.501 225.009 133.908C225.029 134.314 224.714 134.66 224.306 134.679L223.784 134.702C223.378 134.72 222.94 134.737 222.485 134.753L221.621 134.782C221.433 134.787 221.247 134.793 221.064 134.797L220.453 134.812C219.952 134.822 219.496 134.827 219.093 134.827C216.75 134.827 213.576 130.59 213.351 127.96C213.266 126.966 214.05 125.578 215.516 123.696C215.81 123.319 216.128 122.928 216.466 122.526C217.12 121.75 217.819 120.97 218.519 120.223L218.724 120.005C218.824 119.898 218.921 119.797 219.014 119.7L219.342 119.36L219.454 119.246C219.742 118.956 220.21 118.953 220.5 119.239Z" fill="#2E186A"/>
<path fill-rule="evenodd" clip-rule="evenodd" d="M224.887 121.435C224.887 121.435 220.227 126.35 220.301 128.143C220.351 129.937 222.668 133.869 225.035 134.459C227.402 135.048 231.174 133.844 231.174 133.844" fill="white"/>
<path fill-rule="evenodd" clip-rule="evenodd" d="M225.395 120.899C225.692 121.179 225.705 121.645 225.425 121.941L225.234 122.146L224.99 122.412C224.905 122.506 224.816 122.605 224.723 122.709C224.194 123.302 223.665 123.924 223.173 124.541C222.896 124.887 222.64 125.223 222.406 125.545L222.282 125.716C221.478 126.846 221.025 127.735 221.041 128.123C221.089 129.9 223.428 133.299 225.214 133.744C225.731 133.872 226.379 133.911 227.125 133.867C227.88 133.822 228.696 133.696 229.524 133.513C229.896 133.431 230.245 133.343 230.561 133.256L230.745 133.204L230.937 133.146C230.942 133.145 230.945 133.143 230.948 133.142C231.337 133.018 231.754 133.232 231.878 133.62C232.003 134.007 231.788 134.422 231.399 134.547L231.224 134.6C231.165 134.617 231.096 134.637 231.018 134.659L230.958 134.676C230.618 134.771 230.243 134.865 229.843 134.953C228.945 135.151 228.054 135.289 227.213 135.338C226.329 135.391 225.537 135.344 224.855 135.174C222.377 134.556 219.628 130.562 219.562 128.174C219.527 127.313 220.122 126.173 221.208 124.679C221.455 124.339 221.725 123.986 222.015 123.624C222.526 122.983 223.072 122.342 223.617 121.73L223.804 121.522C223.895 121.421 223.982 121.326 224.064 121.235L224.349 120.929C224.63 120.633 225.098 120.62 225.395 120.899Z" fill="#2E186A"/>
<path fill-rule="evenodd" clip-rule="evenodd" d="M229.867 123.499C229.867 123.499 225.109 128.021 227.55 130.527C230.829 133.451 233.344 134.066 234.872 134.066C236.549 134.066 239.532 131.166 239.532 131.166" fill="white"/>
<path fill-rule="evenodd" clip-rule="evenodd" d="M229.358 122.965C229.653 122.684 230.121 122.696 230.403 122.99C230.685 123.285 230.674 123.752 230.378 124.032L230.336 124.074L230.264 124.145L230.143 124.27C230.079 124.336 230.012 124.407 229.942 124.483C229.606 124.848 229.269 125.249 228.957 125.672C228.347 126.498 227.907 127.301 227.709 128.021C227.485 128.832 227.581 129.463 228.033 129.962L228.066 129.997L228.167 130.087C230.746 132.355 232.965 133.299 234.786 133.328L234.873 133.328C235.181 133.328 235.673 133.142 236.269 132.788C236.62 132.581 236.994 132.324 237.383 132.029C237.785 131.724 238.179 131.397 238.548 131.069L238.697 130.935C238.744 130.892 238.789 130.851 238.832 130.811L239.016 130.638C239.309 130.354 239.777 130.36 240.062 130.651C240.347 130.943 240.341 131.409 240.049 131.694L239.907 131.828L239.767 131.957C239.694 132.024 239.616 132.095 239.532 132.169C239.137 132.521 238.714 132.873 238.279 133.202C237.848 133.529 237.428 133.817 237.025 134.056C236.219 134.533 235.508 134.803 234.873 134.803C232.656 134.803 230.069 133.725 227.19 131.194L227.057 131.076L227.02 131.04C226.124 130.121 225.923 128.935 226.282 127.631C226.536 126.708 227.057 125.757 227.765 124.798C228.112 124.329 228.482 123.887 228.852 123.486L228.999 123.328C229.154 123.165 229.276 123.042 229.358 122.965Z" fill="#2E186A"/>
<path fill-rule="evenodd" clip-rule="evenodd" d="M231.868 127.473C231.981 127.082 232.391 126.855 232.783 126.968C233.134 127.068 233.352 127.404 233.315 127.754L233.31 127.786L233.312 127.788L233.316 127.799C233.342 127.881 233.408 127.991 233.536 128.129C233.982 128.609 234.901 129.128 236.413 129.632C237.745 130.076 239.462 130.48 241.6 130.832C242.003 130.898 242.276 131.277 242.209 131.679C242.143 132.081 241.762 132.353 241.359 132.286L240.923 132.213C238.911 131.866 237.263 131.47 235.944 131.03C232.824 129.99 231.669 128.747 231.843 127.592C231.849 127.548 231.858 127.508 231.868 127.473Z" fill="#2E186A"/>
<path fill-rule="evenodd" clip-rule="evenodd" d="M173.457 125.956C165.913 105.634 147.792 107.674 147.792 107.674V97.2793H120.746V107.674C120.746 107.674 102.625 105.634 95.0808 125.932C95.0808 125.932 78.4884 122.737 70.4757 143.379H198.087C190.049 122.737 173.457 125.956 173.457 125.956Z" fill="white"/>
<path fill-rule="evenodd" clip-rule="evenodd" d="M120.745 96.542L120.702 96.5432C120.314 96.5657 120.006 96.8866 120.006 97.2792L120.005 106.889L119.99 106.889C118.597 106.839 116.89 106.939 114.977 107.28C111.856 107.837 108.781 108.949 105.902 110.747L105.747 110.844C101.003 113.854 97.1883 118.5 94.6325 125.031L94.5979 125.12L94.5045 125.109C92.921 124.942 91.015 124.975 88.91 125.345C85.921 125.871 82.9876 127.011 80.2412 128.903C75.9063 131.889 72.3358 136.542 69.7852 143.113C69.5977 143.596 69.9554 144.116 70.475 144.116H198.086C198.606 144.116 198.964 143.595 198.776 143.112C196.222 136.553 192.653 131.906 188.324 128.924C185.574 127.03 182.638 125.89 179.646 125.365C177.537 124.995 175.627 124.963 174.039 125.132L173.938 125.143L173.904 125.055C171.321 118.445 167.451 113.764 162.635 110.753C159.755 108.953 156.68 107.839 153.559 107.281L153.355 107.245C151.591 106.944 150.01 106.848 148.696 106.884L148.531 106.889L148.531 97.2792C148.531 96.872 148.2 96.542 147.791 96.542H120.745ZM121.485 98.0164H147.052L147.052 107.674C147.052 108.099 147.411 108.433 147.831 108.41L148.053 108.391C148.096 108.388 148.144 108.384 148.199 108.381C149.553 108.299 151.303 108.376 153.298 108.732C156.241 109.258 159.139 110.308 161.849 112.002C166.543 114.936 170.295 119.564 172.763 126.212C172.884 126.537 173.213 126.732 173.554 126.687L173.739 126.657L173.876 126.637C173.973 126.624 174.08 126.611 174.197 126.598C175.654 126.443 177.427 126.472 179.39 126.817C182.18 127.306 184.917 128.37 187.483 130.137L187.623 130.235C191.357 132.851 194.503 136.819 196.872 142.36L196.991 142.642H71.5692L71.5962 142.577C74.0029 136.841 77.2328 132.767 81.0825 130.116C83.6458 128.35 86.3799 127.287 89.1674 126.797C91.1266 126.452 92.8956 126.422 94.3487 126.576C94.4932 126.591 94.6223 126.607 94.7351 126.623L94.9117 126.65L94.9401 126.656C95.2955 126.724 95.6483 126.526 95.774 126.188C98.2418 119.548 101.994 114.926 106.688 111.996C109.397 110.305 112.295 109.257 115.238 108.731C117.169 108.387 118.869 108.305 120.205 108.374L120.439 108.388C120.548 108.395 120.623 108.402 120.663 108.406L120.706 108.41C121.126 108.433 121.485 108.099 121.485 107.674L121.485 98.0164Z" fill="#2E186A"/>
<path fill-rule="evenodd" clip-rule="evenodd" d="M163.151 130.281C157.481 115.021 143.847 116.545 143.847 116.545V94.1831H123.532V116.545C123.532 116.545 109.898 114.997 104.227 130.281C104.227 130.281 91.7522 127.873 85.7365 143.404H181.667C175.626 127.873 163.151 130.281 163.151 130.281Z" fill="white"/>
<path fill-rule="evenodd" clip-rule="evenodd" d="M123.531 93.4458L123.488 93.4471C123.099 93.4695 122.791 93.7904 122.791 94.183V115.766L122.783 115.766C121.757 115.742 120.525 115.822 119.155 116.066C116.789 116.488 114.456 117.33 112.272 118.693L112.131 118.782C108.611 121.022 105.768 124.45 103.837 129.239L103.744 129.474L103.812 129.481C102.606 129.353 101.157 129.377 99.5576 129.658C97.2881 130.057 95.0607 130.922 92.9756 132.358C89.6832 134.625 86.9752 138.157 85.0458 143.138C84.8587 143.621 85.2164 144.141 85.7358 144.141H181.666C182.186 144.141 182.544 143.62 182.356 143.137C180.423 138.168 177.717 134.64 174.43 132.373C172.34 130.93 170.106 130.061 167.83 129.66L167.646 129.628C166.177 129.386 164.839 129.359 163.706 129.467L163.633 129.474L163.62 129.44C161.663 124.489 158.74 120.973 155.105 118.704C152.918 117.339 150.582 116.494 148.212 116.071L148.034 116.04C146.735 115.819 145.566 115.745 144.586 115.767V94.183C144.586 93.7759 144.255 93.4458 143.846 93.4458H123.531ZM124.271 94.9202H143.107V116.545C143.107 116.984 143.491 117.326 143.929 117.277L144.014 117.27C144.053 117.267 144.102 117.263 144.162 117.26C145.166 117.2 146.466 117.256 147.952 117.522C150.144 117.914 152.303 118.694 154.321 119.954C157.819 122.137 160.616 125.581 162.458 130.537C162.578 130.862 162.907 131.057 163.247 131.012L163.389 130.989L163.51 130.972C163.575 130.963 163.645 130.955 163.722 130.947C164.801 130.833 166.116 130.855 167.573 131.112C169.647 131.477 171.681 132.269 173.589 133.585L173.721 133.677C176.436 135.591 178.734 138.471 180.484 142.475L180.567 142.666H86.8342L86.9182 142.472C88.6943 138.394 91.0399 135.483 93.8169 133.571C95.7188 132.261 97.747 131.474 99.815 131.11C101.268 130.855 102.58 130.833 103.656 130.947L103.802 130.964C103.824 130.966 103.847 130.969 103.868 130.972L104.018 130.994L104.087 131.005C104.442 131.074 104.795 130.876 104.921 130.537C106.763 125.573 109.56 122.125 113.057 119.943C115.072 118.686 117.227 117.907 119.416 117.518C120.843 117.263 122.102 117.202 123.092 117.252L123.329 117.267L123.492 117.281C123.912 117.304 124.271 116.97 124.271 116.545V94.9202Z" fill="#2E186A"/>
<path fill-rule="evenodd" clip-rule="evenodd" d="M154.079 134.041C150.085 123.302 140.519 124.384 140.519 124.384V95.3132H126.244V124.384C126.244 124.384 116.653 123.302 112.684 134.041C112.684 134.041 103.907 132.345 99.6912 143.256H167.121C162.856 132.345 154.079 134.041 154.079 134.041Z" fill="white"/>
<path fill-rule="evenodd" clip-rule="evenodd" d="M126.243 94.5762L126.2 94.5774C125.812 94.5998 125.504 94.9208 125.504 95.3134V123.615L125.395 123.615C124.733 123.62 123.971 123.684 123.136 123.832C121.449 124.132 119.785 124.732 118.227 125.702L118.097 125.784C115.63 127.359 113.633 129.752 112.267 133.073L112.2 133.24L112.174 133.238C109.882 133.046 107.215 133.556 104.663 135.306C102.305 136.923 100.371 139.444 99.0003 142.991C98.8137 143.474 99.1713 143.993 99.6905 143.993H167.12C167.641 143.993 167.998 143.472 167.809 142.988C166.432 139.465 164.502 136.955 162.157 135.337L162.023 135.246C159.535 133.574 156.947 133.065 154.705 133.228L154.561 133.24L154.493 133.074C153.102 129.707 151.066 127.294 148.551 125.72C146.989 124.742 145.322 124.137 143.63 123.834L143.474 123.807C142.699 123.677 141.989 123.62 141.367 123.615L141.258 123.615V95.3134C141.258 94.9062 140.927 94.5762 140.518 94.5762H126.243ZM126.983 96.0506H139.778V124.384C139.778 124.809 140.137 125.143 140.557 125.12L140.667 125.11C140.691 125.108 140.721 125.106 140.755 125.104C141.445 125.063 142.343 125.102 143.369 125.285C144.882 125.556 146.372 126.096 147.764 126.968C150.175 128.477 152.106 130.86 153.384 134.297C153.505 134.621 153.834 134.817 154.174 134.772L154.306 134.751C154.356 134.743 154.422 134.735 154.504 134.726C156.542 134.51 158.982 134.94 161.314 136.549L161.426 136.627C163.211 137.891 164.738 139.763 165.928 142.342L166.009 142.519H100.796L100.804 142.502C102.025 139.765 103.621 137.81 105.501 136.521C107.773 134.963 110.148 134.527 112.148 134.716L112.347 134.737C112.389 134.742 112.425 134.746 112.455 134.751L112.542 134.765C112.898 134.834 113.252 134.635 113.377 134.296C114.652 130.847 116.588 128.461 119.01 126.953C120.399 126.088 121.886 125.552 123.396 125.283C124.371 125.11 125.23 125.067 125.905 125.099L126.068 125.108L126.203 125.12C126.624 125.143 126.983 124.809 126.983 124.384V96.0506Z" fill="#2E186A"/>
<path fill-rule="evenodd" clip-rule="evenodd" d="M120.4 106.076L123.087 116.52C123.235 117.061 123.999 117.036 124.123 116.496L126.514 111.409C126.514 111.409 129.645 122.565 134.108 122.86C138.57 123.155 142.934 111.237 142.934 111.237L144.956 116.668C145.128 117.184 145.892 117.134 145.991 116.594L148.728 106.298C148.728 106.298 151.119 88.875 133.836 90.202C116.554 91.529 120.4 106.076 120.4 106.076Z" fill="#EF7F00"/>
<path fill-rule="evenodd" clip-rule="evenodd" d="M113.127 58.7728C113.127 58.7728 99.9125 76.6131 101.614 92.5612H130.78V58.3796L113.127 58.7728Z" fill="#EF7F00"/>
<path fill-rule="evenodd" clip-rule="evenodd" d="M154.67 58.7728C154.67 58.7728 167.885 76.6131 166.184 92.5612H137.018V58.3796L154.67 58.7728Z" fill="#EF7F00"/>
<path fill-rule="evenodd" clip-rule="evenodd" d="M145.794 92.5612C156.987 72.5094 155.779 56.5612 152.5 45.6752C149.221 34.7892 141.553 22.6008 134.256 22.6008C126.958 22.6008 119.291 34.7647 116.011 45.6752C112.732 56.5858 111.352 72.4848 122.545 92.5612L119.414 99.2698H148.925L145.794 92.5612Z" fill="white"/>
<path fill-rule="evenodd" clip-rule="evenodd" d="M134.257 21.8635C130.529 21.8635 126.642 24.7 123.031 29.6107C119.819 33.9783 117.011 39.7827 115.304 45.4636C113.357 51.9415 112.528 58.5961 113.115 65.741L113.138 66.0103C113.871 74.4489 116.576 83.2068 121.577 92.336L121.716 92.5897L118.744 98.9587C118.516 99.4474 118.874 100.007 119.415 100.007H148.926L148.968 100.006C149.485 99.9775 149.819 99.4346 149.597 98.9587L146.624 92.5899L146.767 92.3304C151.825 83.1084 154.567 74.2557 155.312 65.745C155.94 58.564 155.139 51.871 153.209 45.4632C151.501 39.7912 148.692 33.9879 145.482 29.6201L145.265 29.3276C141.714 24.5911 137.909 21.8635 134.257 21.8635ZM134.257 23.3379C140.464 23.3379 148.152 33.8008 151.793 45.8871C153.671 52.1233 154.449 58.6306 153.838 65.6169C153.096 74.0987 150.315 82.9471 145.149 92.2027L145.126 92.2476C145.033 92.4445 145.032 92.6732 145.124 92.8721L147.766 98.5322H120.575L123.216 92.8721C123.316 92.6581 123.307 92.4093 123.192 92.203C118.032 82.9471 115.286 74.1095 114.589 65.6208C114.019 58.6692 114.825 52.1966 116.721 45.8867C120.355 33.7934 128.044 23.3379 134.257 23.3379Z" fill="#2E186A"/>
<path fill-rule="evenodd" clip-rule="evenodd" d="M134.256 63.8349C138.859 63.8349 142.589 59.4121 142.589 53.9564C142.589 48.5006 138.859 44.0779 134.256 44.0779C129.654 44.0779 125.923 48.5006 125.923 53.9564C125.923 59.4121 129.654 63.8349 134.256 63.8349Z" fill="#EF7F00"/>
<path fill-rule="evenodd" clip-rule="evenodd" d="M134.255 68.3073C135.018 68.3073 135.636 67.5701 135.636 66.6608C135.636 65.7515 135.018 65.0144 134.255 65.0144C133.493 65.0144 132.875 65.7515 132.875 66.6608C132.875 67.5701 133.493 68.3073 134.255 68.3073Z" fill="#EF7F00"/>
<path fill-rule="evenodd" clip-rule="evenodd" d="M139.606 68.3073C140.368 68.3073 140.987 67.5701 140.987 66.6608C140.987 65.7515 140.368 65.0144 139.606 65.0144C138.843 65.0144 138.225 65.7515 138.225 66.6608C138.225 67.5701 138.843 68.3073 139.606 68.3073Z" fill="#EF7F00"/>
<path fill-rule="evenodd" clip-rule="evenodd" d="M128.487 68.3073C129.249 68.3073 129.867 67.5701 129.867 66.6608C129.867 65.7515 129.249 65.0144 128.487 65.0144C127.724 65.0144 127.106 65.7515 127.106 66.6608C127.106 67.5701 127.724 68.3073 128.487 68.3073Z" fill="#EF7F00"/>
<path fill-rule="evenodd" clip-rule="evenodd" d="M134.256 60.4684C137.728 60.4684 140.543 57.1239 140.543 52.9981C140.543 48.8724 137.728 45.5278 134.256 45.5278C130.784 45.5278 127.969 48.8724 127.969 52.9981C127.969 57.1239 130.784 60.4684 134.256 60.4684Z" fill="white"/>
<path fill-rule="evenodd" clip-rule="evenodd" d="M135.736 21.8143V10.1174C135.736 10.0928 135.736 10.0437 135.736 10.0191C135.958 9.72425 136.081 9.35565 136.081 8.96247C136.081 7.95496 135.267 7.14404 134.257 7.14404C133.246 7.14404 132.432 7.95496 132.432 8.96247C132.432 9.35565 132.555 9.72425 132.777 10.0191C132.777 10.0437 132.777 10.0928 132.777 10.1174V21.7898C129.72 22.4041 126.663 24.9597 123.852 28.4C127.008 27.6628 130.682 27.2696 134.922 27.5154C138.719 27.7365 142.072 28.2526 145.031 28.9652C142.171 25.2792 138.941 22.5024 135.736 21.8143Z" fill="#EF7F00"/>
<path fill-rule="evenodd" clip-rule="evenodd" d="M147.562 35.5264C144.004 34.2977 139.917 33.2411 134.412 33.0199C128.81 32.7988 124.531 34.0766 121.045 35.4773C119.507 38.3769 118.305 41.252 117.319 44.3237C121.526 42.2349 126.647 40.0233 134.532 40.1708C142.032 40.3182 147.177 41.9892 151.096 43.7831C150.134 40.908 148.98 38.2541 147.562 35.5264Z" fill="#EF7F00"/>
<path fill-rule="evenodd" clip-rule="evenodd" d="M144.913 92.4875C145.435 91.5291 145.91 90.5953 146.361 89.6616C143.916 88.6295 140.426 87.794 134.205 87.8431C127.913 87.794 124.399 88.654 121.953 89.7107C122.405 90.6445 122.879 91.5783 123.402 92.5121C123.402 92.5121 128.934 91.4063 134.205 91.4554C139.381 91.3817 144.913 92.4875 144.913 92.4875Z" fill="#EF7F00"/>
<rect x="183.121" y="131.559" width="28.5744" height="6.33994" fill="#EF7F00"/>
<path fill-rule="evenodd" clip-rule="evenodd" d="M205.927 130.576C206.455 130.576 206.886 130.99 206.912 131.51L206.913 131.559V137.899C206.913 138.442 206.471 138.882 205.927 138.882C205.398 138.882 204.967 138.468 204.942 137.948L204.94 137.899V131.559C204.94 131.016 205.382 130.576 205.927 130.576Z" fill="#2E186A"/>
<path fill-rule="evenodd" clip-rule="evenodd" d="M166.135 135.614V138.833H152.057C151.638 138.096 150.849 137.58 149.937 137.58C148.605 137.58 147.521 138.661 147.521 139.988C147.521 141.315 148.605 142.396 149.937 142.396C150.849 142.396 151.638 141.88 152.057 141.143H166.135V143.207H227.672V135.589H166.135V135.614Z" fill="#2E186A"/>
<path fill-rule="evenodd" clip-rule="evenodd" d="M216.701 134.631C217.229 134.631 217.66 135.045 217.686 135.565L217.687 135.614V143.232C217.687 143.774 217.246 144.214 216.701 144.214C216.173 144.214 215.742 143.801 215.716 143.281L215.715 143.232V135.614C215.715 135.071 216.156 134.631 216.701 134.631Z" fill="#2E186A"/>
<path fill-rule="evenodd" clip-rule="evenodd" d="M284.68 142.863C285.041 142.863 285.334 143.193 285.334 143.6C285.334 143.993 285.062 144.314 284.718 144.336L284.68 144.337H0.987954C0.626777 144.337 0.333984 144.007 0.333984 143.6C0.333984 143.207 0.606236 142.886 0.949528 142.864L0.987954 142.863H284.68Z" fill="#2E186A"/>
<circle cx="31" cy="95" r="31" fill="#3A55D1"/>
<path d="M20.7603 110V105.568L31.1154 95.9801C32.4412 94.7112 33.4497 93.608 34.141 92.6705C34.8323 91.733 35.1779 90.6866 35.1779 89.5312C35.1779 88.2528 34.7518 87.2443 33.8995 86.5057C33.0567 85.7576 31.9961 85.3835 30.7177 85.3835C29.3919 85.3835 28.3219 85.786 27.5075 86.5909C26.7025 87.3864 26.3048 88.4801 26.3143 89.8722H20.4762C20.4762 87.9687 20.9071 86.3163 21.7688 84.9148C22.6306 83.5133 23.8332 82.429 25.3768 81.6619C26.9298 80.8949 28.7243 80.5114 30.7603 80.5114C32.8436 80.5114 34.6571 80.8807 36.2006 81.6193C37.7537 82.3485 38.9611 83.3617 39.8228 84.6591C40.6845 85.947 41.1154 87.4337 41.1154 89.1193C41.1154 90.2178 40.8976 91.3021 40.462 92.3722C40.0264 93.4422 39.2594 94.6307 38.1609 95.9375C37.0719 97.2348 35.5283 98.7926 33.5302 100.611L29.283 104.773V104.972H41.4989V110H20.7603Z" fill="white"/>
</svg>
