<svg width="286" height="141" viewBox="0 0 286 141" fill="none" xmlns="http://www.w3.org/2000/svg">
<path fill-rule="evenodd" clip-rule="evenodd" d="M23.4868 33.2339C23.4868 33.2339 15.7476 61.4158 49.079 76.3787L61.4849 66.8131C61.4849 66.8131 61.817 33.7985 23.4868 33.2339Z" fill="white"/>
<path fill-rule="evenodd" clip-rule="evenodd" d="M23.4943 32.7357C23.2673 32.7323 23.0667 32.8829 23.0065 33.1019L22.9769 33.2163L22.9699 33.2444C22.9422 33.3562 22.9116 33.4877 22.8787 33.6381C22.7853 34.0649 22.6922 34.5598 22.6055 35.1178C22.1465 38.0717 22.0418 41.4687 22.5111 45.1257C23.1535 50.1308 24.8107 55.0239 27.7025 59.6161C32.0657 66.5448 38.9947 72.3977 48.8752 76.8331C49.0427 76.9083 49.238 76.8853 49.3835 76.7731L61.7894 67.2076C61.9104 67.1143 61.9818 66.9707 61.9834 66.818L61.9825 66.6487C61.9812 66.5604 61.9787 66.4529 61.9744 66.3269C61.9631 65.9924 61.9419 65.6116 61.9087 65.1883C61.8162 64.0088 61.6471 62.7063 61.3828 61.3119C60.6363 57.3737 59.2824 53.4435 57.1688 49.7712C54.4603 45.0651 50.6887 41.1244 45.7075 38.207C39.8463 34.774 32.4886 32.8681 23.4943 32.7357ZM23.8771 33.7392L24.0076 33.7419C32.5951 33.9372 39.6115 35.7912 45.2041 39.0668C50.0301 41.8934 53.6804 45.7074 56.3054 50.2683C58.359 53.8365 59.677 57.6625 60.404 61.4976C60.6613 62.8551 60.8257 64.1217 60.9156 65.2663C60.9444 65.6338 60.9637 65.9671 60.9752 66.2634L60.9818 66.4576L60.9846 66.57L49.012 75.8014L48.7047 75.6611C39.3079 71.3379 32.7167 65.7083 28.5459 59.0852C25.7349 54.6212 24.1243 49.8659 23.4997 44.9989C23.0432 41.4414 23.145 38.1371 23.5904 35.2709L23.6293 35.0272C23.6948 34.6287 23.7632 34.2675 23.8318 33.9462L23.8654 33.7916L23.8771 33.7392Z" fill="#2E186A"/>
<path fill-rule="evenodd" clip-rule="evenodd" d="M53.0978 5.13501C53.0978 5.13501 93.5538 26.4417 73.6081 74.3859L51.437 76.5614C51.437 76.578 16.9431 45.9382 53.0978 5.13501Z" fill="white"/>
<path fill-rule="evenodd" clip-rule="evenodd" d="M52.725 4.80455C44.1965 14.4296 39.122 23.9918 37.0986 33.4068C35.3833 41.3881 35.9008 49.0512 38.2353 56.3081C40.0496 61.9482 42.8483 67.0216 46.2159 71.4476C47.3957 72.9981 48.5634 74.358 49.6649 75.5142L49.8415 75.6983C50.1314 75.9988 50.3998 76.267 50.6421 76.5009L50.8054 76.6571C50.8495 76.6988 50.891 76.7377 50.9296 76.7735L51.1119 76.9389L51.1444 76.9645L51.1842 76.9909C51.1951 76.9972 51.2097 77.004 51.2537 77.0246L51.2829 77.0351L51.3875 77.0571L51.4822 77.021L51.4859 77.0572L73.657 74.8817C73.8397 74.8637 73.9978 74.7467 74.0683 74.5772C79.6322 61.2031 80.8765 49.0953 78.4727 38.2311C76.5313 29.4572 72.3069 21.8684 66.4861 15.4294C63.6132 12.2516 60.5358 9.56072 57.4573 7.34475C56.4302 6.60536 55.4722 5.96981 54.6054 5.43686L54.476 5.35769C54.1915 5.18425 53.9352 5.03329 53.7096 4.90466L53.538 4.80779L53.3301 4.69414C53.1271 4.5872 52.8772 4.63279 52.725 4.80455ZM52.9697 6.03531L53.2064 5.76468L53.3656 5.85629C53.5449 5.96026 53.7426 6.07765 53.9573 6.20852C54.8366 6.74444 55.8177 7.39233 56.875 8.15342C59.899 10.3302 62.9239 12.9751 65.7467 16.0976C71.458 22.4154 75.5981 29.8528 77.4996 38.4464L77.5693 38.7665C79.8103 49.2368 78.6052 60.8989 73.3115 73.7992L73.2617 73.9192L51.6081 76.0439L51.4899 75.933L51.4031 75.8504C51.1057 75.5656 50.7636 75.223 50.3862 74.8269C49.3093 73.6965 48.1655 72.3645 47.0088 70.8443C43.7056 66.5029 40.9608 61.5272 39.1837 56.003C36.901 48.907 36.3955 41.4203 38.0727 33.6162C40.0189 24.5605 44.8533 15.343 52.9697 6.03531Z" fill="#2E186A"/>
<path fill-rule="evenodd" clip-rule="evenodd" d="M108.036 24.0171C108.036 24.0171 124.228 48.3462 97.2739 73.0075L82.4932 67.8262C82.4932 67.8262 71.7979 36.5885 108.036 24.0171Z" fill="white"/>
<path fill-rule="evenodd" clip-rule="evenodd" d="M107.873 23.5464C99.3006 26.5203 92.8756 30.6826 88.3819 35.8385C84.5703 40.2117 82.2474 45.1799 81.1872 50.5392C80.3636 54.7022 80.3427 58.8597 80.8955 62.8177C81.0798 64.1374 81.3168 65.3454 81.582 66.4209L81.622 66.5812C81.7118 66.9372 81.799 67.2553 81.8809 67.5331L81.9053 67.6153C81.9304 67.699 81.9536 67.7741 81.9746 67.8405L82.0225 67.9875C82.0719 68.132 82.1849 68.2458 82.329 68.2963L97.1098 73.4776C97.283 73.5384 97.4755 73.4989 97.6109 73.375C106.601 65.1498 111.466 56.4154 112.907 47.474C113.99 40.7581 113.084 34.4317 110.913 28.7855C110.378 27.3937 109.804 26.1535 109.229 25.0798C109.046 24.7368 108.874 24.433 108.717 24.1697L108.604 23.9823C108.535 23.87 108.483 23.7893 108.451 23.741C108.325 23.552 108.088 23.4719 107.873 23.5464ZM107.697 24.6642L107.825 24.6192L107.906 24.7564C108.043 24.9888 108.192 25.2537 108.351 25.5499C108.906 26.5883 109.463 27.7912 109.983 29.1431C112.095 34.6353 112.976 40.788 111.924 47.3155L111.881 47.5769C110.453 56.0284 105.866 64.3062 97.4579 72.1596L97.1574 72.4383L82.8929 67.4378L82.8599 67.3292L82.8083 67.1536C82.7383 66.9118 82.6644 66.6392 82.5883 66.3374C82.3154 65.256 82.0708 64.0286 81.8825 62.6799C81.3441 58.8255 81.3645 54.7778 82.1648 50.7325C83.1924 45.5384 85.4405 40.7299 89.1332 36.4931C93.4207 31.5738 99.5353 27.5697 107.697 24.6642Z" fill="#2E186A"/>
<path fill-rule="evenodd" clip-rule="evenodd" d="M124.643 45.307C124.643 45.307 122.916 79.6667 88.0898 76.6111L80.1016 65.0028C80.1016 64.9862 88.505 34.4793 124.643 45.307Z" fill="white"/>
<path fill-rule="evenodd" clip-rule="evenodd" d="M102.327 43.3286C96.8563 44.5753 92.2632 47.1377 88.478 50.7269C85.5886 53.4666 83.3292 56.6448 81.6251 59.9927L81.5343 60.1722C80.4833 62.2651 79.6036 64.6509 79.6036 65.0029C79.6036 65.1038 79.6342 65.2023 79.6914 65.2854L87.6797 76.8936C87.7639 77.016 87.8985 77.0945 88.0466 77.1075C96.6322 77.8608 103.703 76.4119 109.384 73.0756C114.151 70.2757 117.794 66.2381 120.453 61.2912C122.329 57.8012 123.609 54.0664 124.404 50.3321C124.682 49.025 124.879 47.8107 125.01 46.7198L125.036 46.4951C125.065 46.239 125.089 46.0041 125.107 45.7916L125.12 45.6413L125.135 45.4303C125.138 45.383 125.14 45.3501 125.141 45.3321C125.152 45.1031 125.006 44.8957 124.786 44.8299C116.237 42.2683 108.774 41.8595 102.327 43.3286ZM123.998 45.6361L124.117 45.6708L124.098 45.8862C124.078 46.103 124.052 46.3417 124.021 46.6012C123.894 47.6633 123.701 48.8481 123.429 50.1248C122.653 53.7725 121.403 57.4196 119.576 60.8194C116.998 65.614 113.478 69.5153 108.879 72.2164L108.714 72.3127C103.355 75.4089 96.7076 76.7877 88.6302 76.1561L88.3671 76.1347L80.6469 64.9161L80.6801 64.8108L80.7339 64.6443C80.809 64.4156 80.898 64.1599 81.0012 63.8801C81.3699 62.88 81.8417 61.7809 82.425 60.6194C84.0906 57.3026 86.3132 54.1529 89.1638 51.4499C92.8235 47.9798 97.2583 45.5057 102.549 44.3001C108.694 42.8996 115.819 43.2551 123.998 45.6361Z" fill="#2E186A"/>
<path fill-rule="evenodd" clip-rule="evenodd" d="M89.3026 7.22729C89.3026 7.22729 119.097 34.7948 90.2824 78.0226L60.6878 76.063C60.6878 76.063 42.6021 35.3428 89.3026 7.22729Z" fill="white"/>
<path fill-rule="evenodd" clip-rule="evenodd" d="M89.0451 6.80064C78.5972 13.0907 70.8502 20.3154 65.5358 28.2973C60.3458 36.0925 57.6142 44.3827 56.9195 52.8898C56.3944 59.3202 57.0565 65.4215 58.4822 70.9242C58.8464 72.3298 59.2358 73.5923 59.6266 74.6965L59.6799 74.8461C59.8104 75.2098 59.9326 75.5323 60.044 75.8118L60.1179 75.9949C60.144 76.0587 60.1681 76.1164 60.1899 76.1678L60.2319 76.2654C60.307 76.4345 60.4697 76.5481 60.6543 76.5603L90.249 78.5199C90.4269 78.5317 90.5976 78.4475 90.6965 78.2991C99.5106 65.0759 103.458 52.4783 103.334 40.6255C103.238 31.3753 100.689 23.1013 96.501 15.9148C95.0054 13.3486 93.4026 11.1052 91.7985 9.19828C91.2359 8.5295 90.7129 7.95012 90.2426 7.46185L90.0643 7.27855C89.9885 7.20148 89.9174 7.1303 89.8512 7.06502L89.6947 6.91291C89.6718 6.89108 89.6537 6.87403 89.6405 6.86178C89.4777 6.71121 89.2351 6.68628 89.0451 6.80064ZM88.9426 8.02837L89.2303 7.85291L89.4093 8.03409C89.4466 8.0723 89.4851 8.11198 89.5247 8.15311C89.9798 8.62558 90.4879 9.18839 91.0357 9.83972C92.6044 11.7045 94.1743 13.9017 95.6399 16.4165C99.7457 23.4615 102.244 31.5697 102.338 40.6359L102.34 40.9855C102.38 52.4146 98.5641 64.5684 90.1269 77.3549L90.0261 77.5065L61.0272 75.5864L61.0011 75.522C60.8857 75.2357 60.7568 74.8975 60.6176 74.5097C60.2189 73.3981 59.8196 72.1138 59.4466 70.6744C58.0473 65.2735 57.397 59.282 57.9124 52.9709C58.5938 44.6271 61.2719 36.4992 66.365 28.8495C71.4908 21.1509 78.9292 14.1557 88.9426 8.02837Z" fill="#2E186A"/>
<path fill-rule="evenodd" clip-rule="evenodd" d="M79.703 28.1023C79.703 28.1023 35.1947 48.2963 59.8237 75.2826L80.1015 74.967C80.1015 74.967 104.166 57.6128 79.703 28.1023Z" fill="white"/>
<path fill-rule="evenodd" clip-rule="evenodd" d="M79.497 27.6485L79.3737 27.7056L79.182 27.796C78.929 27.9165 78.6359 28.0597 78.3061 28.2251L78.0056 28.3769C77.1442 28.815 76.1996 29.3204 75.1908 29.891C71.97 31.7129 68.749 33.8232 65.7406 36.1984C59.338 41.2532 54.7759 46.8002 52.8665 52.7672C50.4765 60.2365 52.4174 67.9065 59.4556 75.6184C59.5519 75.7238 59.6887 75.7829 59.8314 75.7807L80.1092 75.4652C80.2112 75.4636 80.3102 75.4307 80.3929 75.3711L80.4743 75.3107L80.5229 75.2738C80.6237 75.1967 80.74 75.105 80.8705 74.9988C81.2409 74.6973 81.6525 74.3387 82.0951 73.9237C83.3565 72.741 84.6168 71.341 85.7931 69.7286C89.1907 65.0715 91.2168 59.618 91.1773 53.4221C91.1266 45.4739 87.6497 36.9081 80.0865 27.7843C79.9431 27.6113 79.7016 27.5557 79.497 27.6485ZM79.5643 28.7175L79.7598 28.9568C86.8771 37.7093 90.1326 45.8783 90.1808 53.4285C90.2188 59.394 88.2675 64.646 84.9879 69.1413C83.8503 70.7008 82.6313 72.0549 81.4134 73.1969C81.0209 73.5649 80.6549 73.8857 80.3235 74.1587L80.1897 74.2679L80.0454 74.383C80.0152 74.4068 79.9861 74.4294 79.9583 74.4509L79.9315 74.4713L60.0413 74.7808L60.1916 74.9467C53.3859 67.4897 51.5382 60.1878 53.8155 53.0709C55.6538 47.3258 60.0969 41.9235 66.3579 36.9805C69.3229 34.6396 72.5021 32.5566 75.6814 30.7583L76.03 30.5623C76.9525 30.0467 77.8164 29.5885 78.6057 29.1898L78.7529 29.1157C78.9794 29.0021 79.1879 28.8994 79.3773 28.8076L79.5643 28.7175Z" fill="#2E186A"/>
<path fill-rule="evenodd" clip-rule="evenodd" d="M13.6382 52.1491C13.6382 52.1491 27.7713 84.7984 62.5641 81.3109L69.1905 75.5649C69.1739 75.5649 49.6268 40.8896 13.6382 52.1491Z" fill="white"/>
<path fill-rule="evenodd" clip-rule="evenodd" d="M40.1736 52.3223C46.8632 54.4463 52.8906 58.1917 58.2365 63.0995C61.2685 65.883 63.8914 68.8656 66.0998 71.8511C66.8706 72.8932 67.5337 73.8596 68.0921 74.731L68.1492 74.8204C68.2617 74.9969 68.3644 75.1611 68.4583 75.3137L68.5488 75.4621L62.3577 80.8306L62.5146 80.8153C54.0619 81.6626 46.4049 80.411 39.5058 77.3699C33.7331 74.8254 28.6565 71.1047 24.2479 66.5154C21.1833 63.3252 18.6204 59.906 16.5393 56.4875C15.8114 55.2919 15.196 54.1824 14.6905 53.1878L14.643 53.0941C14.5494 52.9087 14.4637 52.7351 14.3857 52.574L14.3299 52.458L14.3519 52.4514C23.564 49.6791 32.1723 49.7819 40.1736 52.3223ZM69.5484 75.1908L69.4459 75.0195L69.3551 74.87C69.2458 74.6911 69.1245 74.4966 68.9898 74.2851L68.9312 74.1934C68.3611 73.3038 67.6854 72.3191 66.901 71.2586C64.6567 68.2246 61.9924 65.1948 58.9105 62.3655C53.4641 57.3655 47.3145 53.544 40.4753 51.3726C32.1171 48.7189 23.1114 48.6635 13.4897 51.6738C13.2073 51.7621 13.0637 52.0756 13.1813 52.3471L13.2216 52.438L13.2867 52.5809C13.3027 52.6156 13.3198 52.6522 13.3379 52.6909L13.4488 52.9248C13.5396 53.114 13.6411 53.3204 13.7535 53.5429L13.8023 53.6392C14.319 54.6559 14.9467 55.7876 15.6882 57.0056C17.8052 60.4829 20.4111 63.9596 23.5293 67.2056C28.0236 71.884 33.2047 75.6813 39.104 78.2817C46.1591 81.3916 53.9887 82.6713 62.6141 81.8067C62.7164 81.7965 62.8131 81.7548 62.8908 81.6874L69.5172 75.9414L69.5383 75.9222C69.8431 75.6287 69.6596 75.1131 69.2471 75.0697L69.2209 75.0676L69.1908 75.0668C69.3379 75.0668 69.4515 75.1206 69.523 75.1716L69.5484 75.1908Z" fill="#2E186A"/>
<path fill-rule="evenodd" clip-rule="evenodd" d="M106.027 73.6384H35.9928C34.6642 73.6384 33.5847 74.7179 33.5847 76.0464V84.8315C33.5847 86.1601 34.6642 87.2395 35.9928 87.2395H39.9952L51.9361 139.684H89.8179L101.759 87.2395H106.044C107.372 87.2395 108.452 86.1601 108.452 84.8315V76.0464C108.435 74.7179 107.356 73.6384 106.027 73.6384Z" fill="#24348C"/>
<path fill-rule="evenodd" clip-rule="evenodd" d="M100.48 86.7249C100.755 86.7249 100.978 86.9479 100.978 87.2231C100.978 87.4884 100.77 87.7053 100.509 87.7204L100.48 87.7213H41.3732C41.098 87.7213 40.875 87.4982 40.875 87.2231C40.875 86.9577 41.0824 86.7409 41.3439 86.7257L41.3732 86.7249H100.48Z" fill="white"/>
<path fill-rule="evenodd" clip-rule="evenodd" d="M56.9514 134.088C57.1507 135.466 57.898 137.376 59.7083 139.004L60.0736 139.817L85.3504 139.585C108.75 131.68 149.854 123.526 149.854 123.526L106.309 96.2739C106.309 96.2739 79.7702 102.302 69.623 108.181C59.4924 114.077 55.9882 127.412 56.9514 134.088Z" fill="white"/>
<path fill-rule="evenodd" clip-rule="evenodd" d="M106.198 95.7883L105.45 95.9618C105.148 96.0324 104.814 96.1115 104.45 96.1987L103.677 96.3846C102.494 96.6708 101.21 96.9891 99.8469 97.3367C95.0852 98.5504 90.3234 99.8699 85.8773 101.25L85.0744 101.501C78.704 103.507 73.5884 105.463 70.1507 107.316C69.8806 107.461 69.6212 107.606 69.3727 107.75C64.5939 110.531 60.9515 115.107 58.6658 120.652C56.7196 125.374 55.9299 130.501 56.4578 134.159L56.4719 134.253C56.743 135.969 57.6538 137.757 59.2031 139.216L59.2957 139.302L59.6186 140.022C59.6996 140.202 59.8798 140.317 60.0777 140.316L85.3544 140.083C85.4071 140.083 85.4594 140.074 85.5093 140.057C86.1959 139.825 86.9028 139.591 87.6297 139.355L88.2934 139.141C94.3132 137.212 101.575 135.182 109.815 133.09C118.385 130.915 127.554 128.786 136.737 126.788L138.632 126.377C141.36 125.789 143.913 125.251 146.245 124.769L147.936 124.422L149.951 124.015C150.393 123.927 150.5 123.343 150.118 123.104L106.573 95.8518C106.461 95.7819 106.327 95.7591 106.198 95.7883ZM106.219 96.8057L148.529 123.284L146.637 123.671L145.257 123.956C142.874 124.451 140.275 125.002 137.506 125.601L137.198 125.668C128.004 127.662 118.81 129.789 110.199 131.965L109.57 132.124C101.006 134.298 93.4928 136.407 87.3225 138.408L87.0106 138.509C86.5963 138.644 86.1885 138.779 85.7874 138.913L85.2658 139.087L60.3943 139.316L60.1625 138.8C60.134 138.736 60.0927 138.68 60.041 138.633C58.5363 137.28 57.6729 135.599 57.4442 134.017C56.9434 130.546 57.7057 125.597 59.5873 121.032C61.7947 115.677 65.2997 111.273 69.8733 108.612C70.1119 108.474 70.3624 108.334 70.6237 108.193L70.8366 108.079C74.3133 106.239 79.5119 104.276 85.9726 102.264L86.1729 102.202C90.4427 100.876 95.0083 99.6061 99.5847 98.4323L100.093 98.3022C101.755 97.8787 103.297 97.4987 104.681 97.1678L105.576 96.9557L106.219 96.8057Z" fill="#2E186A"/>
<path fill-rule="evenodd" clip-rule="evenodd" d="M60.9365 139.668C49.5769 137.725 52.8154 105.873 71.9141 77.7407C80.467 63.8241 82.9415 60.0543 89.5181 57.8954C92.0923 57.0484 94.8492 57.0484 97.7721 58.3438C108.185 62.9439 119.229 67.7267 111.822 69.8358C104.415 71.9449 86.944 86.3099 86.944 86.3099C86.944 86.3099 87.11 104.959 86.18 111.768C85.5655 116.385 84.3532 121.035 83.1408 124.406" fill="white"/>
<path fill-rule="evenodd" clip-rule="evenodd" d="M89.3628 57.4221C92.1672 56.4994 95.001 56.6012 97.8595 57.838L99.9748 58.7723C106.583 61.6983 109.967 63.3532 112.27 64.9539L112.34 65.0024C113.857 66.0666 114.68 67.0027 114.733 67.924C114.794 68.9928 113.863 69.7585 112.039 70.2919L111.959 70.3149C109.566 70.9963 105.884 73.0606 101.291 76.1728C100.282 76.8565 99.2398 77.5839 98.1696 78.3494C95.6175 80.1748 93.0244 82.1312 90.5262 84.0878L90.0703 84.4457C89.5218 84.8773 89.0058 85.2872 88.5267 85.6709L87.9821 86.1087L87.4442 86.5445L87.4483 87.2065L87.4514 87.923C87.4648 91.6559 87.4395 95.8565 87.349 99.8866L87.3277 100.782C87.207 105.577 87.0022 109.33 86.6958 111.673L86.6743 111.834C86.0956 116.181 84.9431 120.868 83.61 124.575C83.5169 124.834 83.2315 124.968 82.9726 124.875C82.7137 124.782 82.5793 124.496 82.6724 124.238C83.9583 120.662 85.0767 116.143 85.6557 111.93L85.7076 111.544C86.0188 109.164 86.2258 105.256 86.3438 100.253L86.3613 99.4745C86.4447 95.574 86.4679 91.5312 86.4549 87.9264L86.4461 86.3143C86.4448 86.1637 86.5116 86.0206 86.6279 85.925L87.2032 85.457L87.5182 85.2028C88.1884 84.6633 88.9395 84.0659 89.7576 83.4242L89.9118 83.3033C92.4206 81.3385 95.0249 79.3736 97.5899 77.5389C98.6667 76.7687 99.7161 76.0365 100.732 75.3479L101.151 75.0656C105.541 72.1154 109.086 70.1373 111.533 69.4014L111.831 69.3143C113.203 68.9035 113.764 68.4363 113.738 67.981C113.709 67.4673 113.049 66.7167 111.768 65.8182L111.633 65.7243C109.494 64.2512 106.318 62.6838 100.349 60.0284L97.5706 58.7993C94.9015 57.6164 92.2844 57.5098 89.6739 58.3687C86.4401 59.4303 84.2896 60.8738 81.9249 63.629L81.8372 63.7316C79.7293 66.2107 77.7851 69.1531 72.8094 77.2366L72.339 78.0015L72.3267 78.0205C63.3888 91.186 57.4016 106.032 55.4964 118.6C53.7119 130.372 55.8429 138.291 61.0209 139.177C61.2921 139.223 61.4744 139.481 61.428 139.752C61.3816 140.023 61.1241 140.205 60.8529 140.159C54.9264 139.145 52.6541 130.701 54.5112 118.451C56.4199 105.86 62.3621 91.0462 71.2326 77.8599L71.4978 77.4671L72.2569 76.2335C76.9956 68.5435 78.9263 65.6304 81.0115 63.1647L81.078 63.0862C83.5955 60.1253 85.9138 58.5543 89.3628 57.4221Z" fill="#2E186A"/>
<path fill-rule="evenodd" clip-rule="evenodd" d="M222.18 139.336L182.936 77.0928L106.342 95.8254V95.8088L92.6076 98.798L101.758 135.317L120.84 130.7C123.464 135.782 125.391 139.302 125.391 139.302H222.18V139.336Z" fill="#FFC29E"/>
<path fill-rule="evenodd" clip-rule="evenodd" d="M160.067 61.2001C160.067 61.2001 167.773 60.8514 166.843 67.8263C165.913 74.8012 157.144 71.3636 157.144 71.3636L157.642 61.4991L160.067 61.2001Z" fill="white"/>
<path fill-rule="evenodd" clip-rule="evenodd" d="M160.055 60.702L160.045 60.7024C160.032 60.703 160.019 60.7041 160.006 60.7056L157.582 61.0046C157.342 61.0342 157.157 61.2322 157.145 61.4739L156.647 71.3384C156.636 71.5523 156.763 71.7492 156.963 71.8274L157.03 71.8531C157.109 71.8824 157.22 71.9218 157.36 71.9686C157.669 72.0714 158.014 72.174 158.387 72.2697C159.626 72.5871 160.878 72.7564 162.059 72.6975C164.956 72.5529 166.915 71.055 167.337 67.8921C167.796 64.45 166.335 62.3155 163.671 61.306C162.942 61.0299 162.168 60.8576 161.387 60.7678C160.903 60.7122 160.484 60.6948 160.161 60.6995L160.055 60.702ZM161.273 61.7577C161.978 61.8387 162.673 61.9935 163.318 62.2378C165.571 63.0916 166.744 64.8047 166.35 67.7604C165.997 70.4049 164.459 71.58 162.009 71.7023C160.942 71.7556 159.785 71.5991 158.635 71.3045L158.519 71.2744C158.252 71.2037 158.002 71.1296 157.773 71.0552L157.661 71.0183L158.119 61.9423L160.107 61.6972L160.126 61.6968C160.412 61.6899 160.808 61.7043 161.273 61.7577Z" fill="#2E186A"/>
<path fill-rule="evenodd" clip-rule="evenodd" d="M136.734 40.9065C134.691 40.8733 120.741 40.8899 119.96 52.5812C119.196 64.2724 121.654 76.9601 123.315 82.7227C124.976 88.4853 151.415 84.0513 152.876 83.4368C154.354 82.8224 156.032 80.9458 156.032 80.9458L158.523 62.9107C158.539 62.9107 158.639 41.305 136.734 40.9065Z" fill="white"/>
<path fill-rule="evenodd" clip-rule="evenodd" d="M133.305 40.5774C131.35 40.7958 129.451 41.2138 127.696 41.8814C122.905 43.7046 119.883 47.0983 119.474 52.3877L119.463 52.5486C119.11 57.9447 119.413 63.8912 120.234 69.9421L120.294 70.3766C120.952 75.0781 121.896 79.5975 122.836 82.8606C123.295 84.4517 125.188 85.3843 128.26 85.8308L128.359 85.8451C130.882 86.2003 134.174 86.2275 138.005 85.9812L138.203 85.9682C144.08 85.5778 151.895 84.3896 153.069 83.896C153.24 83.8252 153.416 83.7379 153.597 83.6358C154.034 83.389 154.489 83.0601 154.954 82.6687C155.316 82.3648 155.664 82.0403 155.986 81.7159L156.095 81.605C156.147 81.551 156.197 81.4992 156.244 81.4499L156.332 81.3558C156.364 81.321 156.388 81.2947 156.403 81.2777L156.427 81.2492C156.479 81.1808 156.513 81.0997 156.525 81.0139L158.89 63.8952L158.913 63.9678C159.029 64.3538 159.064 64.7319 159.06 64.3328L159.02 62.6562C159.015 62.4779 159.007 62.2695 158.992 62.0373L158.987 61.9491C158.938 61.198 158.845 60.3554 158.697 59.4485C158.277 56.8651 157.506 54.2704 156.295 51.8361C154.734 48.697 152.552 46.0595 149.661 44.1003C146.252 41.7896 141.971 40.5034 136.743 40.4083C135.733 40.3919 134.619 40.4306 133.305 40.5774ZM120.44 52.8943L120.457 52.6143C120.788 47.6592 123.549 44.5258 128.051 42.8127C129.719 42.1778 131.539 41.7774 133.416 41.5676C134.683 41.4261 135.756 41.3888 136.726 41.4046C141.765 41.4963 145.858 42.7258 149.102 44.9251C151.842 46.7824 153.914 49.2869 155.403 52.2798C156.565 54.6171 157.309 57.1176 157.714 59.6085C157.856 60.4827 157.946 61.2937 157.993 62.0138L157.998 62.0974L158.011 62.3344C158.013 62.3847 158.015 62.4334 158.017 62.4803L158.024 62.6795L157.987 61.2534C157.974 60.5559 158.077 62.4124 158.523 62.4124L158.493 62.4133C158.258 62.4272 158.062 62.6058 158.029 62.8424L155.56 80.7229L155.475 80.8122C155.415 80.8755 155.349 80.9431 155.279 81.014C154.976 81.3185 154.65 81.623 154.314 81.906C153.891 82.2608 153.484 82.5553 153.107 82.7683C152.959 82.8515 152.819 82.9213 152.685 82.9767L152.642 82.9932C152.195 83.1501 150.221 83.532 147.886 83.889L147.799 83.9022C144.672 84.3778 141.282 84.7651 138.137 84.974C129.852 85.5244 124.42 84.7597 123.794 82.5847L123.708 82.2842C122.781 78.9911 121.855 74.4743 121.222 69.8081C120.423 63.924 120.12 58.1436 120.44 52.8943Z" fill="#2E186A"/>
<path fill-rule="evenodd" clip-rule="evenodd" d="M157.692 78.0894L160.731 89.9965C162.707 117.099 125.091 118.826 127.45 86.1437L149.637 88.9337L151.381 80.1486L157.692 78.0894Z" fill="white"/>
<path fill-rule="evenodd" clip-rule="evenodd" d="M151.226 79.6748L151.195 79.6863C151.04 79.7488 150.925 79.8858 150.892 80.0515L149.239 88.3812L127.512 85.6492C127.228 85.6136 126.973 85.8229 126.953 86.1077C126.389 93.9197 128.055 100.234 131.542 104.653C134.675 108.625 139.152 110.844 143.932 110.987C148.611 111.128 153.157 109.257 156.398 105.763C159.937 101.948 161.704 96.4923 161.228 89.9601C161.226 89.9308 161.221 89.9017 161.214 89.8732L158.175 77.966C158.103 77.6869 157.811 77.5262 157.537 77.6156L151.226 79.6748ZM157.341 78.7277L160.237 90.0751L160.234 90.0326C160.691 96.2973 159.012 101.48 155.668 105.085C152.624 108.367 148.355 110.123 143.962 109.991C139.474 109.857 135.273 107.775 132.324 104.036L132.225 103.909C129.068 99.8304 127.502 94.0436 127.903 86.8572L127.912 86.7037L149.575 89.4278L149.605 89.4307C149.853 89.447 150.077 89.2771 150.126 89.0305L151.813 80.5314L157.341 78.7277Z" fill="#2E186A"/>
<path fill-rule="evenodd" clip-rule="evenodd" d="M153.242 62.3792C153.242 62.3792 151.83 71.8617 151.199 75.3492C151.199 75.3492 142.48 73.0076 130.24 73.622C130.24 73.622 123.58 74.1867 120.973 75.1499C120.973 75.1499 122.335 87.2729 128.147 93.2182C133.96 99.1635 145.27 96.6725 150.385 92.5373C155.5 88.4022 156.264 86.5422 157.244 82.4071C158.224 78.272 160.516 62.9604 160.516 62.9604L153.242 62.3792Z" fill="#968BB4"/>
<path fill-rule="evenodd" clip-rule="evenodd" d="M160.134 65.1525C160.134 65.1525 163.605 57.9783 164.618 52.0662C165.581 46.5195 162.658 40.9396 157.443 38.8305C153.076 37.0536 151.647 37.6348 151.647 37.6348C151.647 37.6348 154.238 33.0181 147.495 26.2259C145.121 23.8345 141.832 22.5059 138.461 22.5889C130.207 22.8048 127.633 29.7797 127.633 29.7797C127.633 29.7797 118.831 13.5216 100.695 23.0871C98.8685 24.0503 96.7925 26.7407 95.8127 28.5674C89.8007 39.5778 109.481 52.6973 119.744 53.7601C131.021 54.9226 138.096 53.5276 141.533 50.5384C138.976 52.3319 143.576 68.8392 160.134 65.1525Z" fill="#111C5C"/>
<path fill-rule="evenodd" clip-rule="evenodd" d="M129.641 68.3086C129.996 68.3258 130.273 68.6191 130.273 68.971L130.272 69.0041L129.804 78.7203L132.559 77.8231C132.897 77.713 133.259 77.8885 133.385 78.2167L133.396 78.2489C133.506 78.5869 133.331 78.9493 133.002 79.0749L132.97 79.0863L129.3 80.282C128.868 80.4229 128.428 80.0979 128.43 79.6492L128.431 79.6184L128.945 68.9402C128.963 68.5848 129.256 68.3082 129.608 68.3079L129.641 68.3086Z" fill="#2E186A"/>
<path fill-rule="evenodd" clip-rule="evenodd" d="M135.896 59.6042C137.576 59.241 139.052 59.5974 140.276 60.4101C140.586 60.6161 140.857 60.8372 141.087 61.0598L141.154 61.1267C141.262 61.2343 141.34 61.3226 141.389 61.3839C141.618 61.6708 141.57 62.0888 141.283 62.3174C140.997 62.5461 140.579 62.4988 140.35 62.2119C140.325 62.1812 140.262 62.1111 140.163 62.0145C139.988 61.8459 139.781 61.6758 139.541 61.5168C138.599 60.891 137.48 60.621 136.177 60.9028C135.818 60.9803 135.465 60.7525 135.387 60.3939C135.31 60.0353 135.538 59.6817 135.896 59.6042Z" fill="#2E186A"/>
<path fill-rule="evenodd" clip-rule="evenodd" d="M124.887 57.1173C125.531 56.9856 126.197 57.0208 126.836 57.1563L126.939 57.1791C127.104 57.2172 127.233 57.2545 127.317 57.2834C127.664 57.4024 127.849 57.7801 127.73 58.1272C127.615 58.4634 127.257 58.6475 126.919 58.5505L126.847 58.5281C126.837 58.525 126.825 58.5216 126.812 58.5177C126.739 58.4969 126.654 58.4758 126.56 58.4559C126.085 58.3551 125.593 58.3291 125.154 58.4189C124.53 58.5465 124.089 58.8882 123.835 59.5461C123.703 59.8884 123.318 60.0587 122.976 59.9265C122.634 59.7943 122.464 59.4097 122.596 59.0675C123.021 57.9661 123.84 57.3317 124.887 57.1173Z" fill="#2E186A"/>
<path fill-rule="evenodd" clip-rule="evenodd" d="M141.683 81.6929C141.102 80.8958 135.439 84.8649 137.648 85.2302C139.856 85.5956 142.929 83.4034 141.683 81.6929Z" fill="#2E186A"/>
<path fill-rule="evenodd" clip-rule="evenodd" d="M117.933 80.9622L139.44 73.6883C139.44 73.6883 142.313 72.5923 142.214 68.8557C142.114 65.1192 137.414 63.7242 137.414 63.7242L114.479 60.4858L117.933 80.9622Z" fill="#FF8D7E"/>
<path fill-rule="evenodd" clip-rule="evenodd" d="M94.916 80.9622L116.423 73.6883C116.423 73.6883 119.296 72.5923 119.196 68.8557C119.097 65.1192 114.397 63.7242 114.397 63.7242L91.4616 60.4858L94.916 80.9622Z" fill="#FF8D7E"/>
<path fill-rule="evenodd" clip-rule="evenodd" d="M114.264 81.6431C120.125 81.6431 124.876 76.892 124.876 71.0313C124.876 65.1705 120.125 60.4194 114.264 60.4194C108.403 60.4194 103.652 65.1705 103.652 71.0313C103.652 76.892 108.403 81.6431 114.264 81.6431Z" fill="#2E186A"/>
<path fill-rule="evenodd" clip-rule="evenodd" d="M91.0795 81.7925C96.9405 81.7925 101.692 77.0414 101.692 71.1807C101.692 65.3199 96.9405 60.5688 91.0795 60.5688C85.2185 60.5688 80.4673 65.3199 80.4673 71.1807C80.4673 77.0414 85.2185 81.7925 91.0795 81.7925Z" fill="#2E186A"/>
<path fill-rule="evenodd" clip-rule="evenodd" d="M95.6801 59.0245C98.3041 54.3414 109.846 52.7803 111.989 53.1125C114.131 53.428 112.022 57.8122 102.805 58.626C102.805 58.626 99.9814 58.6758 98.5366 59.9213" fill="white"/>
<path fill-rule="evenodd" clip-rule="evenodd" d="M103.885 53.7067L104.091 53.6523C107.183 52.8448 110.667 52.4249 112.017 52.6132L112.061 52.6197C112.841 52.7346 113.314 53.289 113.25 54.0356C113.194 54.6795 112.745 55.3909 111.985 56.0571C110.24 57.5859 107.13 58.7251 102.987 59.1098L102.848 59.1223L102.675 59.1297C102.656 59.1306 102.636 59.1318 102.615 59.133C102.449 59.1428 102.264 59.1585 102.064 59.1814C101.495 59.2465 100.927 59.3555 100.402 59.5173C99.7636 59.7138 99.2377 59.9744 98.8615 60.2987C98.653 60.4784 98.3385 60.4551 98.1588 60.2467C97.9791 60.0383 98.0024 59.7237 98.2108 59.5441C98.7049 59.1182 99.3495 58.7987 100.108 58.565C100.698 58.3833 101.325 58.263 101.951 58.1914L102.134 58.1718C102.254 58.16 102.368 58.1506 102.476 58.1434L102.626 58.1345L102.776 58.1282L102.896 58.1176C106.8 57.755 109.691 56.708 111.274 55.3546L111.328 55.3078C111.912 54.7957 112.227 54.2972 112.257 53.9498C112.275 53.745 112.19 53.6458 111.912 53.6049C110.741 53.4233 107.273 53.8406 104.242 54.6427L104.144 54.669C100.141 55.7431 97.2025 57.326 96.1143 59.2681C95.9798 59.5082 95.6762 59.5938 95.4361 59.4593C95.1961 59.3248 95.1105 59.0211 95.245 58.7811C96.5025 56.5368 99.643 54.845 103.885 53.7067Z" fill="#2E186A"/>
<path fill-rule="evenodd" clip-rule="evenodd" d="M99.3835 57.4802C104.233 55.1553 114.563 60.5525 116.124 62.0471C117.702 63.5418 113.434 65.8999 105.445 61.2666C105.445 61.2666 103.104 59.689 101.21 59.8716" fill="white"/>
<path fill-rule="evenodd" clip-rule="evenodd" d="M99.1685 57.031C101.492 55.9171 105.033 56.345 109.159 57.8638L109.358 57.9378C112.376 59.0716 115.503 60.7624 116.467 61.6855C117.041 62.2295 117.11 62.9555 116.625 63.5288C116.209 64.0223 115.431 64.3442 114.425 64.4504C112.117 64.694 108.919 63.8351 105.317 61.7678L105.196 61.6976L105.085 61.6268L104.994 61.5699C104.946 61.5403 104.894 61.5088 104.838 61.4758C104.569 61.3181 104.273 61.1601 103.959 61.0129C103.303 60.7052 102.66 60.4876 102.072 60.3988C101.78 60.3546 101.507 60.3436 101.259 60.3676C100.985 60.394 100.741 60.1934 100.715 59.9195C100.688 59.6457 100.889 59.4022 101.163 59.3758C101.498 59.3434 101.852 59.3577 102.221 59.4135C102.917 59.5186 103.646 59.7656 104.382 60.1107C104.726 60.2719 105.049 60.4443 105.343 60.617L105.467 60.6911C105.556 60.7452 105.629 60.7909 105.683 60.826L105.707 60.8424L105.813 60.9033C109.207 62.8514 112.174 63.6604 114.249 63.4665L114.32 63.4595C115.094 63.3778 115.639 63.152 115.864 62.8859C115.996 62.7295 115.984 62.6006 115.78 62.4071L115.721 62.3522C114.787 61.5124 111.78 59.9013 108.911 58.8343L108.815 58.7989C104.922 57.366 101.61 56.9657 99.5993 57.9295C99.3512 58.0485 99.0536 57.9438 98.9346 57.6957C98.8157 57.4476 98.9204 57.15 99.1685 57.031Z" fill="#2E186A"/>
<path fill-rule="evenodd" clip-rule="evenodd" d="M94.2023 57.4802C99.0517 55.1553 109.382 60.5525 110.943 62.0471C112.52 63.5418 108.252 65.8999 100.264 61.2666C100.264 61.2666 97.9224 59.689 96.0291 59.8716" fill="white"/>
<path fill-rule="evenodd" clip-rule="evenodd" d="M93.9864 57.031C96.3099 55.9171 99.8509 56.345 103.977 57.8638L104.176 57.9378C107.194 59.0716 110.321 60.7624 111.285 61.6855C111.859 62.2295 111.927 62.9555 111.443 63.5288C111.027 64.0223 110.249 64.3442 109.242 64.4504C106.935 64.694 103.737 63.8351 100.135 61.7678L100.014 61.6976L99.9032 61.6268L99.8121 61.5699C99.7638 61.5403 99.7115 61.5088 99.6555 61.4758C99.3872 61.3181 99.0913 61.1601 98.7773 61.0129C98.1211 60.7052 97.4783 60.4876 96.8902 60.3988C96.5977 60.3546 96.3253 60.3436 96.0765 60.3676C95.8026 60.394 95.5591 60.1934 95.5327 59.9195C95.5063 59.6457 95.7069 59.4022 95.9808 59.3758C96.316 59.3434 96.6695 59.3577 97.039 59.4135C97.7347 59.5186 98.4643 59.7656 99.2004 60.1107C99.5441 60.2719 99.867 60.4443 100.161 60.617L100.285 60.6911C100.374 60.7452 100.447 60.7909 100.501 60.826L100.525 60.8424L100.631 60.9033C104.025 62.8514 106.992 63.6604 109.067 63.4665L109.138 63.4595C109.912 63.3778 110.457 63.152 110.682 62.8859C110.814 62.7295 110.802 62.6006 110.598 62.4071L110.539 62.3522C109.605 61.5124 106.597 59.9013 103.729 58.8343L103.633 58.7989C99.74 57.366 96.4276 56.9657 94.4172 57.9295C94.1691 58.0485 93.8715 57.9438 93.7525 57.6957C93.6336 57.4476 93.7383 57.15 93.9864 57.031Z" fill="#2E186A"/>
<path fill-rule="evenodd" clip-rule="evenodd" d="M89.9334 57.7625C94.7828 55.4375 105.113 60.8347 106.674 62.3294C108.252 63.824 103.983 66.1822 95.9952 61.5488C95.9952 61.5488 93.6535 59.9712 91.7603 60.1539" fill="white"/>
<path fill-rule="evenodd" clip-rule="evenodd" d="M89.7184 57.3133C92.0419 56.1993 95.5829 56.6272 99.7093 58.1461L99.9081 58.22C102.926 59.3538 106.053 61.0446 107.017 61.9677C107.591 62.5117 107.659 63.2377 107.175 63.811C106.759 64.3045 105.981 64.6264 104.974 64.7326C102.667 64.9762 99.4692 64.1173 95.8672 62.05L95.7456 61.9798L95.6353 61.909L95.5441 61.8522C95.4958 61.8225 95.4436 61.791 95.3875 61.7581C95.1193 61.6003 94.8233 61.4423 94.5094 61.2951C93.8532 60.9874 93.2103 60.7698 92.6222 60.681C92.3298 60.6368 92.0574 60.6258 91.8085 60.6498C91.5346 60.6762 91.2912 60.4756 91.2647 60.2018C91.2383 59.9279 91.4389 59.6844 91.7128 59.658C92.0481 59.6257 92.4016 59.6399 92.7711 59.6958C93.4667 59.8009 94.1963 60.0478 94.9324 60.393C95.2761 60.5541 95.5991 60.7265 95.8927 60.8992L96.0169 60.9733C96.1064 61.0274 96.1789 61.0732 96.2326 61.1083L96.2573 61.1246L96.3628 61.1856C99.7569 63.1337 102.724 63.9426 104.799 63.7488L104.87 63.7417C105.644 63.66 106.189 63.4343 106.414 63.1681C106.546 63.0117 106.534 62.8828 106.33 62.6893L106.271 62.6344C105.337 61.7946 102.329 60.1835 99.4606 59.1165L99.3651 59.0812C95.4721 57.6482 92.1596 57.2479 90.1492 58.2117C89.9011 58.3307 89.6035 58.226 89.4846 57.9779C89.3656 57.7298 89.4703 57.4322 89.7184 57.3133Z" fill="#2E186A"/>
<path fill-rule="evenodd" clip-rule="evenodd" d="M251.89 27.0562C247.838 25.1796 242.922 26.7074 240.896 30.4772L228.69 53.2121L236.313 17.8891C237.209 13.7706 234.32 9.75174 229.885 8.9214C225.451 8.09105 221.133 10.7648 220.236 14.8833L211.169 51.5514L212.182 9.00443C212.315 4.80288 208.761 1.29882 204.227 1.16596C199.709 1.0331 195.923 4.35449 195.79 8.55604L194.428 51.3687L186.556 14.8999C185.659 10.7814 181.341 8.10766 176.907 8.938C172.473 9.76835 169.583 13.7706 170.48 17.9057L178.103 53.2287L165.896 30.4938C163.87 26.724 158.954 25.1962 154.902 27.0728C150.85 28.9494 149.206 33.5163 151.232 37.286L176.276 83.9183L232.476 80.3146L255.594 37.286C257.587 33.4996 255.943 28.9327 251.89 27.0562Z" fill="white"/>
<path fill-rule="evenodd" clip-rule="evenodd" d="M195.292 8.54034L194.059 47.2979L187.043 14.7948C186.098 10.4516 181.602 7.62588 176.956 8.42316L176.819 8.44767L176.678 8.47517C172.044 9.41593 169.047 13.6455 169.993 18.0114L176.871 49.8799L166.336 30.2582C164.207 26.2973 159.09 24.6652 154.822 26.5623L154.697 26.6191C150.384 28.6162 148.629 33.4959 150.793 37.5219L175.837 84.1541C175.93 84.3258 176.114 84.428 176.308 84.4155L232.508 80.8118C232.68 80.8008 232.834 80.702 232.915 80.5504L256.033 37.5219C258.141 33.5167 256.443 28.6962 252.228 26.6645L252.103 26.6058L251.974 26.5472C247.708 24.6508 242.589 26.2762 240.458 30.2414L229.922 49.8633L236.8 17.9943C237.746 13.6462 234.75 9.39945 230.117 8.45906L229.981 8.43245L229.84 8.4072C225.196 7.61031 220.696 10.43 219.75 14.7773L211.775 47.0244L212.68 9.01634C212.82 4.5836 209.122 0.883208 204.385 0.67328L204.245 0.668134C199.459 0.527354 195.434 4.05442 195.292 8.54034ZM204.212 1.66401L204.344 1.66888C208.507 1.85336 211.741 5.0497 211.687 8.8727L210.671 51.5396C210.657 52.1348 211.51 52.249 211.652 51.671L220.72 15.0029C221.562 11.1389 225.62 8.62961 229.794 9.41114L229.923 9.4363C234.022 10.2685 236.651 13.9939 235.826 17.7832L228.203 53.107C228.081 53.6712 228.856 53.9563 229.129 53.4478L241.335 30.7129C243.234 27.1803 247.863 25.7403 251.681 27.5083L251.799 27.5638L251.909 27.6182C255.539 29.4368 256.974 33.595 255.153 37.054L232.168 79.8352L176.564 83.4007L151.671 37.0504C149.784 33.539 151.314 29.2837 155.112 27.5249L155.23 27.4712C159.026 25.7839 163.58 27.2364 165.458 30.7297L177.664 53.4644C177.937 53.9729 178.712 53.6878 178.59 53.1236L170.967 17.8007C170.133 13.9557 172.824 10.2095 176.999 9.42775L177.128 9.40457C181.259 8.69583 185.241 11.1987 186.07 15.0059L193.941 51.4739C194.065 52.0483 194.908 51.972 194.926 51.3846L196.288 8.57193C196.412 4.65141 199.964 1.53906 204.212 1.66401Z" fill="#2E186A"/>
<path fill-rule="evenodd" clip-rule="evenodd" d="M226.514 81.8756L239.651 52.9962C241.627 48.6451 240.182 43.1482 236.429 40.707C232.676 38.2658 228.026 39.7936 226.049 44.1447L218.211 61.3494L222.396 42.0522C223.442 37.2528 220.934 32.2707 216.815 30.9089C212.697 29.5472 208.512 32.3371 207.482 37.1365L203.33 56.2511L201.138 37.2196C200.573 32.2541 196.687 28.667 192.485 29.1984C188.284 29.7299 185.328 34.1805 185.892 39.1294L188.151 58.7754L183.202 46.0046C181.425 41.4211 176.858 39.2788 173.005 41.2385C169.152 43.1981 167.458 48.4957 169.235 53.0792L180.362 81.8092" fill="#24348C"/>
<path fill-rule="evenodd" clip-rule="evenodd" d="M238.273 75.3989H168.023C166.694 75.3989 165.615 76.4784 165.615 77.8069V86.6252C165.615 87.9538 166.694 89.0332 168.023 89.0332H172.341L184.282 139.718H222.263L234.204 89.0332H238.24C239.568 89.0332 240.648 87.9538 240.648 86.6252V77.8069C240.681 76.4784 239.601 75.3989 238.273 75.3989Z" fill="#FF8D7E"/>
<path fill-rule="evenodd" clip-rule="evenodd" d="M232.261 88.9834C232.536 88.9834 232.759 89.2065 232.759 89.4816C232.759 89.7469 232.552 89.9638 232.29 89.979L232.261 89.9798H173.918C173.643 89.9798 173.42 89.7568 173.42 89.4816C173.42 89.2163 173.628 88.9994 173.889 88.9842L173.918 88.9834H232.261Z" fill="#2E186A"/>
<path fill-rule="evenodd" clip-rule="evenodd" d="M218.709 120.121C216.168 116.983 212.432 111.851 214.956 110.772C217.48 109.692 217.447 112.416 221.25 115.006C225.07 117.597 228.624 118.095 232.41 122.812" fill="white"/>
<path fill-rule="evenodd" clip-rule="evenodd" d="M214.76 110.314C215.879 109.835 216.698 109.967 217.497 110.677C217.682 110.841 217.863 111.03 218.096 111.295L218.242 111.463C218.378 111.622 218.804 112.122 218.96 112.299C219.662 113.094 220.329 113.726 221.172 114.342C221.289 114.427 221.408 114.511 221.53 114.594L221.689 114.702C222.602 115.311 223.352 115.726 225.012 116.58L225.636 116.901C226.437 117.315 226.917 117.574 227.462 117.893C229.53 119.104 231.174 120.476 232.799 122.5C232.971 122.714 232.937 123.028 232.722 123.2C232.508 123.372 232.194 123.338 232.022 123.124C230.509 121.239 228.99 119.959 227.081 118.825L226.854 118.692C226.35 118.4 225.878 118.146 225.095 117.743L224.27 117.318C222.68 116.497 221.946 116.08 220.969 115.418C220.838 115.329 220.71 115.238 220.584 115.146C219.716 114.512 219.022 113.863 218.311 113.068L218.141 112.876C217.905 112.605 217.444 112.063 217.445 112.065L217.352 111.958C217.142 111.719 216.985 111.555 216.836 111.422C216.325 110.969 215.917 110.903 215.152 111.23C214.379 111.56 214.433 112.624 215.375 114.445C216.161 115.964 217.439 117.761 219.096 119.808C219.269 120.022 219.236 120.335 219.023 120.509C218.809 120.682 218.495 120.649 218.322 120.435L218.107 120.169C216.514 118.182 215.279 116.429 214.49 114.903C213.961 113.88 213.66 113.003 213.622 112.272C213.575 111.358 213.951 110.659 214.76 110.314Z" fill="#2E186A"/>
<path fill-rule="evenodd" clip-rule="evenodd" d="M216.633 117.63C210.14 114.093 200.69 113.894 198.431 113.993C195.027 114.143 197.119 121.018 213.86 122.646C213.86 122.646 218.261 123.194 220.32 125.352" fill="white"/>
<path fill-rule="evenodd" clip-rule="evenodd" d="M198.409 113.496L198.59 113.489C200.373 113.427 203.213 113.566 206.012 113.955C210.172 114.532 213.912 115.581 216.871 117.193C217.113 117.324 217.202 117.627 217.071 117.869C216.939 118.11 216.636 118.199 216.395 118.068C213.602 116.547 210.043 115.536 206.071 114.969L205.875 114.942C203.039 114.548 200.161 114.416 198.453 114.491C197.857 114.517 197.562 114.774 197.549 115.195C197.532 115.765 197.99 116.567 198.921 117.392C201.464 119.646 206.569 121.436 213.921 122.151L214.012 122.164C214.076 122.173 214.161 122.186 214.263 122.202C214.527 122.246 214.821 122.302 215.138 122.371C216.043 122.569 216.948 122.835 217.797 123.18C218.987 123.664 219.972 124.266 220.68 125.009C220.87 125.208 220.863 125.523 220.664 125.713C220.465 125.903 220.149 125.896 219.959 125.696C219.362 125.07 218.492 124.538 217.422 124.103C216.63 123.781 215.778 123.531 214.925 123.344C214.664 123.287 214.419 123.24 214.195 123.202L214.101 123.186C214.032 123.174 213.969 123.164 213.914 123.156L213.811 123.142C206.281 122.409 200.984 120.552 198.26 118.138C197.128 117.135 196.526 116.079 196.553 115.164C196.583 114.187 197.322 113.543 198.409 113.496Z" fill="#2E186A"/>
<path fill-rule="evenodd" clip-rule="evenodd" d="M219.655 126.83C216.052 119.191 198.597 116.484 195.209 116.75C191.821 117.016 194.163 124.29 208.495 126.565C208.495 126.565 212.913 126.963 215.038 129.056" fill="white"/>
<path fill-rule="evenodd" clip-rule="evenodd" d="M195.17 116.254C197.356 116.082 202.857 116.934 207.497 118.35C213.844 120.287 218.421 123.046 220.106 126.618C220.224 126.867 220.117 127.164 219.868 127.281C219.619 127.399 219.322 127.292 219.205 127.043C217.674 123.797 213.307 121.164 207.206 119.303L206.933 119.22C202.462 117.887 197.251 117.09 195.248 117.247C194.002 117.345 193.939 118.779 195.575 120.568C197.789 122.989 202.191 125.033 208.385 126.043L208.558 126.07L208.662 126.081C208.703 126.086 208.751 126.092 208.804 126.098L208.889 126.109C209.159 126.144 209.46 126.191 209.783 126.251C210.707 126.421 211.632 126.662 212.5 126.986C213.682 127.428 214.667 127.991 215.388 128.701C215.584 128.894 215.587 129.209 215.394 129.405C215.201 129.602 214.885 129.604 214.689 129.411C214.082 128.813 213.213 128.316 212.151 127.92C211.343 127.618 210.473 127.391 209.602 127.231C209.335 127.181 209.085 127.141 208.856 127.11L208.76 127.097C208.707 127.09 208.658 127.084 208.613 127.079L208.451 127.061L208.417 127.057C201.918 126.025 197.246 123.871 194.84 121.24C193.829 120.135 193.301 119.005 193.343 118.054C193.387 117.03 194.09 116.338 195.17 116.254Z" fill="#2E186A"/>
<path fill-rule="evenodd" clip-rule="evenodd" d="M221.001 133.075C217.579 125.353 200.357 121.699 196.953 121.882C193.548 122.064 195.259 130.119 209.525 132.743C209.525 132.743 213.926 133.241 216.002 135.383" fill="white"/>
<path fill-rule="evenodd" clip-rule="evenodd" d="M196.927 121.384C199.063 121.269 204.511 122.38 209.14 124.045C215.371 126.287 219.858 129.263 221.457 132.873C221.568 133.124 221.455 133.419 221.203 133.53C220.952 133.642 220.657 133.528 220.546 133.276C219.088 129.985 214.798 127.14 208.803 124.983C204.288 123.359 198.961 122.273 196.98 122.379C195.698 122.448 195.506 124.103 197.011 126.096C199.034 128.776 203.283 131.058 209.429 132.218L209.6 132.25L209.702 132.263C209.742 132.268 209.789 132.275 209.842 132.283L209.925 132.295C210.191 132.336 210.487 132.389 210.804 132.455C211.714 132.644 212.624 132.902 213.478 133.24C214.665 133.711 215.649 134.302 216.36 135.036C216.552 135.234 216.547 135.549 216.349 135.741C216.152 135.932 215.836 135.927 215.645 135.73C215.045 135.111 214.177 134.59 213.11 134.167C212.315 133.851 211.459 133.608 210.602 133.43C210.339 133.376 210.093 133.331 209.869 133.295L209.774 133.28C209.704 133.269 209.641 133.26 209.586 133.253L209.469 133.238L209.435 133.233C202.961 132.042 198.425 129.623 196.216 126.697C195.296 125.479 194.863 124.244 194.981 123.229C195.105 122.156 195.843 121.442 196.927 121.384Z" fill="#2E186A"/>
<path fill-rule="evenodd" clip-rule="evenodd" d="M223.525 138.738C219.805 131.63 203.148 126.731 199.943 127.113C196.737 127.495 199.411 133.241 214.657 137.808" fill="white"/>
<path fill-rule="evenodd" clip-rule="evenodd" d="M199.884 126.618C201.743 126.396 206.967 127.7 211.73 129.656C217.722 132.116 222.226 135.182 223.967 138.507C224.094 138.75 224 139.051 223.756 139.179C223.513 139.307 223.211 139.212 223.084 138.969C221.482 135.908 217.143 132.956 211.352 130.577L211.074 130.464C206.534 128.632 201.612 127.416 200.001 127.607C199.444 127.674 199.221 127.895 199.243 128.274C199.274 128.823 199.77 129.628 200.723 130.529C203.185 132.857 207.996 135.292 214.8 137.33C215.063 137.409 215.213 137.687 215.134 137.951C215.055 138.214 214.777 138.364 214.514 138.285C207.574 136.206 202.63 133.703 200.038 131.253C198.918 130.194 198.297 129.185 198.248 128.331C198.194 127.383 198.838 126.743 199.884 126.618Z" fill="#2E186A"/>
<path fill-rule="evenodd" clip-rule="evenodd" d="M231.563 121.583C225.003 118.56 218.925 115.936 215.969 118.51C212.88 121.217 209.425 130.235 214.059 136.861" fill="white"/>
<path fill-rule="evenodd" clip-rule="evenodd" d="M214.64 137.808C245.995 146.36 243.952 119.208 216.832 117.514L214.64 137.808Z" fill="white"/>
<path fill-rule="evenodd" clip-rule="evenodd" d="M216.864 117.017C223.331 117.421 228.767 119.284 232.641 122.204C236.176 124.87 238.173 128.277 238.163 131.505C238.153 134.831 236.025 137.569 232.194 138.952C227.982 140.472 221.958 140.32 214.509 138.288C214.244 138.216 214.087 137.942 214.16 137.677C214.232 137.411 214.506 137.255 214.772 137.327C222.039 139.309 227.862 139.456 231.856 138.015C235.309 136.768 237.157 134.389 237.167 131.502C237.176 128.616 235.343 125.49 232.041 123C228.33 120.203 223.082 118.404 216.802 118.011C216.527 117.994 216.318 117.758 216.335 117.483C216.352 117.218 216.572 117.015 216.834 117.016L216.864 117.017Z" fill="#2E186A"/>
<path fill-rule="evenodd" clip-rule="evenodd" d="M285.031 139.319C285.31 139.319 285.535 139.542 285.535 139.817C285.535 140.083 285.325 140.3 285.061 140.315L285.031 140.316H1.03881C0.760649 140.316 0.535156 140.092 0.535156 139.817C0.535156 139.552 0.74483 139.335 1.00922 139.32L1.03881 139.319H285.031Z" fill="#2E186A"/>
<circle cx="32" cy="93" r="31" fill="#3A55D1"/>
<path d="M37.229 78.9091V108H31.0785V84.7472H30.908L24.2461 88.9233V83.4688L31.4478 78.9091H37.229Z" fill="white"/>
</svg>
