<svg xmlns="http://www.w3.org/2000/svg" width="285" height="140" fill="none" xmlns:v="https://vecta.io/nano"><style><![CDATA[.B{fill:#fff}.C{fill:#2e186a}.D{fill:#ef7f00}]]></style><g fill-rule="evenodd"><path d="M29.283 56.282S23.341 78.02 48.953 89.565l9.537-7.375s.25-25.464-29.208-25.908z" class="B"/><path d="M29.291 55.703c-.263-.004-.495.171-.565.426l-.018.07-.071.303-.011.05-.212 1.152c-.355 2.296-.436 4.935-.072 7.776.498 3.889 1.782 7.692 4.021 11.261 3.375 5.377 8.729 9.916 16.353 13.353.194.087.42.061.588-.069l9.537-7.375a.58.58 0 0 0 .225-.458v-.139c-.004-.322-.025-.766-.073-1.318-.082-.948-.224-1.983-.442-3.083-.607-3.061-1.683-6.1-3.343-8.929-2.117-3.608-5.047-6.624-8.895-8.854-4.512-2.614-10.152-4.063-17.022-4.167zm.447 1.167l.186.005c6.385.179 11.62 1.569 15.813 3.998 3.67 2.126 6.459 4.997 8.478 8.438 1.589 2.708 2.623 5.625 3.205 8.567a27.38 27.38 0 0 1 .425 2.957 20.35 20.35 0 0 1 .059.902l.006.171-9.033 6.985-.129-.059c-7.186-3.32-12.222-7.637-15.407-12.712-2.146-3.42-3.376-7.062-3.853-10.791-.349-2.725-.272-5.256.068-7.45a19 19 0 0 1 .158-.89l.025-.121z" class="C"/><path d="M52.049 34.601S83.141 51.03 67.816 88.039l-17.037 1.68c-.019 0-26.535-23.63 1.269-55.117z" class="B"/><path d="M51.618 34.217c-6.58 7.452-10.499 14.86-12.063 22.158-1.327 6.193-.928 12.14.877 17.77 1.403 4.375 3.566 8.309 6.17 11.74.867 1.143 1.727 2.153 2.542 3.02l.381.401c.725.755.996.991 1.256.991a.59.59 0 0 0 .056-.003l17.037-1.68c.212-.021.395-.157.476-.354 4.29-10.359 5.249-19.745 3.393-28.168-1.5-6.806-4.763-12.691-9.258-17.682-2.218-2.463-4.594-4.547-6.971-6.264-.833-.602-1.608-1.115-2.304-1.541l-.178-.108-.473-.277-.205-.114-.035-.019c-.235-.124-.524-.071-.7.128zm-.733 54.81a24.21 24.21 0 0 1-.778-.785c-.824-.867-1.701-1.891-2.587-3.058-2.529-3.333-4.63-7.153-5.989-11.393a32.85 32.85 0 0 1-.848-17.171l.046-.213c1.52-6.885 5.211-13.896 11.368-20.982l.077-.088.184.108.165.099.087.053a35.19 35.19 0 0 1 2.23 1.492 43.24 43.24 0 0 1 6.788 6.101c4.368 4.85 7.534 10.559 8.988 17.155l.053.246c1.697 7.958.812 16.818-3.137 26.62l-.117.287-16.603 1.637.006-.003c.081-.057-.204-.358-.191-.35l.256.247z" class="C"/><path d="M94.256 49.177s12.441 18.765-8.268 37.8l-11.364-3.996s-8.211-24.093 19.632-33.804z" class="B"/><path d="M94.066 48.63c-9.578 3.34-15.648 8.583-18.755 15.21-1.456 3.105-2.202 6.4-2.363 9.781a29.8 29.8 0 0 0 .544 7.233c.116.579.24 1.103.364 1.566l.066.24c.067.239.121.41.154.509a.58.58 0 0 0 .355.359l11.364 3.996c.201.07.424.025.58-.119 6.939-6.378 10.699-13.157 11.813-20.1.837-5.219.137-10.133-1.543-14.519-.414-1.081-.858-2.045-1.304-2.881l-.103-.191c-.101-.185-.197-.354-.287-.506l-.13-.216-.087-.137c-.146-.22-.421-.313-.669-.226zm-.058 1.249l.04.068.089.157.19.347a24.48 24.48 0 0 1 1.244 2.75c1.611 4.207 2.283 8.919 1.481 13.919l-.033.2c-1.09 6.477-4.591 12.825-11.019 18.857l-.148.138-10.764-3.785-.02-.068-.064-.227c-.129-.467-.258-1.006-.379-1.61-.426-2.132-.639-4.483-.523-6.95.153-3.236.866-6.383 2.254-9.343 2.911-6.209 8.565-11.166 17.536-14.412l.116-.042z" class="C"/><path d="M107.023 65.606s-1.327 26.526-28.093 24.151L72.796 80.8s6.461-23.553 34.227-15.193z" class="B"/><path d="M90.111 63.827c-4.204.911-7.753 2.824-10.694 5.525-2.306 2.118-4.118 4.604-5.495 7.25a26.4 26.4 0 0 0-1.228 2.715l-.068.18c-.176.469-.299.846-.376 1.114l-.008.03a.58.58 0 0 0 .08.486l6.134 8.958c.097.142.253.234.425.249 6.639.589 12.115-.535 16.518-3.131 3.697-2.18 6.521-5.323 8.58-9.172 1.45-2.71 2.439-5.609 3.053-8.507a32.04 32.04 0 0 0 .468-2.805l.025-.217.049-.487.017-.214.011-.166a.58.58 0 0 0-.411-.584c-6.475-1.95-12.152-2.292-17.077-1.224zm16.132 2.154l.168.048-.006.06-.054.493c-.097.814-.244 1.722-.451 2.701-.592 2.798-1.546 5.595-2.94 8.2-1.965 3.672-4.646 6.657-8.148 8.722l-.126.074c-4.083 2.368-9.153 3.422-15.323 2.935l-.113-.009-5.822-8.502.051-.155a18.85 18.85 0 0 1 .292-.812 25.25 25.25 0 0 1 1.174-2.596c1.318-2.534 3.052-4.912 5.251-6.932 2.795-2.567 6.161-4.381 10.159-5.247 4.572-.991 9.85-.714 15.889 1.021z" class="C"/><path d="M79.873 36.223s22.901 21.275.75 54.615l-22.747-1.506s-13.902-31.429 21.997-53.11z" class="B"/><path d="M79.574 35.727c-8.068 4.872-14.05 10.474-18.152 16.667-3.999 6.038-6.104 12.461-6.638 19.051a42.26 42.26 0 0 0 1.208 13.97 35.29 35.29 0 0 0 .926 3.044l.073.202.235.614.092.225.029.068c.087.197.275.329.489.343l22.747 1.506c.206.014.403-.084.518-.257 6.797-10.231 9.844-19.987 9.749-29.171-.074-7.172-2.043-13.588-5.278-19.161-1.155-1.99-2.394-3.73-3.633-5.21-.402-.479-.778-.9-1.12-1.261l-.085-.089-.299-.304-.16-.156-.011-.011c-.188-.175-.469-.204-.689-.071zm-.107 1.422l.32-.197.117.121a25.91 25.91 0 0 1 1.153 1.292c1.199 1.431 2.399 3.117 3.519 5.047 3.14 5.408 5.05 11.632 5.122 18.59l.002.268c.03 8.69-2.834 17.929-9.165 27.652l-.208.317-22.056-1.46-.066-.168-.201-.542c-.305-.852-.61-1.838-.895-2.943a41.11 41.11 0 0 1-1.175-13.586c.519-6.401 2.562-12.635 6.449-18.504s9.514-11.203 17.083-15.886z" class="C"/><path d="M72.489 52.324s-34.207 15.58-15.287 36.41l15.594-.232c0-.019 18.498-13.398-.308-36.179z" class="B"/><path d="M73.374 88.502l.001.009c.018.082.292-.067.584-.249l.118-.075.085-.076.302-.279c.979-.924 1.955-2.013 2.866-3.267 2.635-3.627 4.207-7.874 4.176-12.7-.039-6.181-2.729-12.834-8.571-19.91-.166-.201-.446-.266-.683-.158l-.195.091-.203.097-.43.212-.094.047a54.88 54.88 0 0 0-2.403 1.29c-2.484 1.41-4.968 3.044-7.289 4.884-4.948 3.922-8.478 8.231-9.96 12.879-1.86 5.833-.352 11.824 5.1 17.826l.026.027c.109.105.256.164.408.161l13.848-.206-.099.078c-.019.016-.013.013.012-.004l.111-.075 1.723-.026a.58.58 0 0 0 .567-.545l.001-.034zm-.132.387l1.403-1.079c.084-.068-.152.102-.443.294l-.126.082-.013.012c-.161.144-.316.278-.464.401l-.088.073-.27.216zM72.33 53.04l.053.065c5.445 6.724 7.931 12.987 7.968 18.766.029 4.558-1.456 8.571-3.954 12.01-.867 1.193-1.795 2.229-2.724 3.106a17.8 17.8 0 0 1-.81.721l-.136.112-.1.081-.032.025-15.14.225-.133-.149c-4.931-5.586-6.242-11.036-4.548-16.351 1.4-4.39 4.792-8.531 9.576-12.323 2.271-1.8 4.706-3.402 7.142-4.785.852-.484 1.643-.906 2.353-1.263l.266-.133.217-.107z" class="C"/><path d="M21.706 70.877s10.864 25.194 37.592 22.51l5.095-4.44s-15.017-26.757-42.687-18.07z" class="B"/><path d="M21.534 70.324a.58.58 0 0 0-.357.783l.054.12.069.15.36.738 1.457 2.611c1.635 2.696 3.646 5.39 6.053 7.907 3.47 3.627 7.471 6.573 12.028 8.591 5.45 2.414 11.499 3.408 18.157 2.739.119-.012.231-.06.321-.139l5.096-4.44a.58.58 0 0 0 .124-.722l-.077-.134-.06-.102a26.61 26.61 0 0 0-.397-.643 40.97 40.97 0 0 0-1.565-2.276 48.47 48.47 0 0 0-6.161-6.891c-4.203-3.876-8.954-6.84-14.24-8.525-6.462-2.06-13.426-2.103-20.861.232zm20.512.872c5.113 1.63 9.721 4.505 13.808 8.274a47.32 47.32 0 0 1 6.014 6.726c.59.802 1.097 1.545 1.52 2.211l.054.086.151.242.056.091-4.592 4.001-.248.023c-6.289.564-11.995-.406-17.147-2.687-4.41-1.953-8.291-4.809-11.662-8.333a44.71 44.71 0 0 1-5.9-7.707c-.522-.861-.968-1.664-1.341-2.39l-.118-.232-.084-.168-.048-.098.014-.004c6.964-2.061 13.47-1.964 19.521-.036z" class="C"/><path d="M92.717 87.46H38.896a1.85 1.85 0 0 0-1.846 1.853v6.776a1.85 1.85 0 0 0 1.846 1.853h3.077l9.172 40.464h29.112l9.172-40.464h3.288a1.85 1.85 0 0 0 1.846-1.853v-6.776a1.85 1.85 0 0 0-1.846-1.853z" fill="#ff8d7e"/><path d="M88.448 97.364a.58.58 0 0 1 .577.579.58.58 0 0 1-.543.578l-.034.001H43.03a.58.58 0 0 1-.577-.579.58.58 0 0 1 .543-.578l.034-.001h45.418z" class="C"/><path d="M191.436 40.258c-.326.154-6.845.521-9.998.695-1.019.058-1.923.695-2.327 1.641l-1.558 3.687" class="B"/><path d="M191.19 39.734c.288-.136.632-.012.767.277a.58.58 0 0 1-.276.771c-.379.179-3.478.378-10.212.749-.78.044-1.476.522-1.804 1.234l-.024.055-1.558 3.687c-.124.294-.463.432-.756.307a.58.58 0 0 1-.318-.728l.012-.032 1.559-3.689a3.28 3.28 0 0 1 2.825-1.991l2.734-.154 7.045-.484.006-.002z" class="C"/><path d="M188.245 43.231s5.095-2.915 6.191-1.641c1.077 1.274.539 2.819-3.595 4.074-4.135 1.236-2.596-2.433-2.596-2.433z" class="B"/><path d="M191.247 41.191l-1.294.531-1.411.69-.224.119-.136.074-.224.124c-.11.063-.196.161-.246.279a4.37 4.37 0 0 0-.163.486c-.102.363-.163.729-.162 1.084.004 1.62 1.249 2.351 3.618 1.643 2.074-.63 3.412-1.372 4.051-2.24.648-.881.559-1.855-.139-2.713l-.045-.053c-.658-.765-1.892-.65-3.625-.021zm2.749.774c.41.485.453.89.132 1.325-.458.623-1.599 1.256-3.455 1.819-.957.286-1.565.288-1.865.112-.178-.104-.266-.31-.267-.648a2.93 2.93 0 0 1 .119-.768l.031-.104.021-.068.22-.118.145-.077 1.35-.66 1.213-.498.147-.053c1.167-.406 1.986-.479 2.2-.272l.009.009z" class="C"/><path d="M187.418 47.169s5.096-2.915 6.192-1.641.538 2.819-3.596 4.073-2.596-2.432-2.596-2.432z" class="B"/><path d="M190.421 45.129l-1.294.53-1.411.69-.224.119-.136.074-.223.124c-.111.063-.198.161-.247.279-.043.105-.104.273-.163.488a4.07 4.07 0 0 0-.162 1.083c.002 1.627 1.248 2.36 3.62 1.64l.227-.07c1.945-.614 3.211-1.333 3.828-2.168.666-.901.558-1.898-.19-2.768-.658-.765-1.892-.65-3.625-.021zm2.753.778c.414.482.458.885.136 1.32-.46.623-1.605 1.256-3.463 1.82-.96.291-1.567.295-1.867.119-.177-.104-.264-.311-.265-.652 0-.235.044-.501.119-.77l.021-.071.02-.068.012-.035.219-.118.145-.077 1.35-.66 1.213-.498.147-.053c1.167-.406 1.986-.479 2.2-.272l.013.013z" class="C"/><path d="M185.88 48.463s5.768-1.062 6.384.502-.423 2.838-4.731 2.664c-4.307-.212-1.653-3.166-1.653-3.166z" class="B"/><path d="M189.08 47.539a22.36 22.36 0 0 0-2.099.174l-.751.106-.222.035-.221.038-.012.002c-.125.023-.239.087-.324.182l-.055.064a4.59 4.59 0 0 0-.412.576c-.258.421-.432.847-.478 1.274-.141 1.301.882 2.114 2.999 2.218l.238.008c2.038.059 3.468-.203 4.325-.788.925-.631 1.152-1.608.732-2.675-.39-.99-1.702-1.275-3.72-1.213zm2.646 1.639c.233.591.141.986-.307 1.292-.64.437-1.928.659-3.863.581l-.149-.008c-1.405-.09-1.809-.428-1.755-.927.025-.229.138-.506.314-.793l.047-.074.145-.209.031-.041.107-.017.222-.035.607-.084 1.99-.165.161-.004c1.409-.026 2.332.185 2.45.485z" class="C"/><path d="M184.436 56.417c-.999 8.938-10.421 35.04-19.266 35.985-9.519 1.004-12.864-8.166-5.538-15.966 7.307-7.799 12.556-17.954 15.632-23.533 0 0-.153-7.51 2.231-7.703 2.346-.232 6.941 11.217 6.941 11.217z" class="B"/><g class="C"><path d="M177.439 44.624c-1.415.114-2.139 1.721-2.508 4.304-.12.843-.192 1.742-.225 2.648l-.018.788-.002.339.001.053-1.627 2.972-.347.63-1.7 3.027-5.124 8.227c-2.166 3.159-4.378 5.973-6.677 8.427-7.626 8.119-4.131 18.009 6.018 16.939 4.293-.459 8.828-6.214 13.039-15.328 3.406-7.372 6.197-16.302 6.741-21.169.011-.096-.002-.192-.038-.281l-.173-.422-.138-.331-.436-1.016a75.05 75.05 0 0 0-1.822-3.887c-.527-1.041-1.041-1.975-1.533-2.776l-.087-.14c-1.266-2.031-2.312-3.106-3.344-3.004zm.104 1.154c.393-.039 1.254.846 2.264 2.465.498.799 1.025 1.752 1.569 2.827a74.08 74.08 0 0 1 1.793 3.827l.13.3.3.702.187.448.062.151-.018.143c-.605 4.793-3.316 13.401-6.607 20.522-4.04 8.743-8.391 14.265-12.113 14.663-8.987.948-12.006-7.594-5.057-14.992 2.342-2.5 4.59-5.36 6.787-8.565 1.7-2.479 3.317-5.085 4.981-7.972l.192-.334 1.71-3.043 2.048-3.737a.58.58 0 0 0 .072-.291l-.002-.195v-.206l.003-.236.016-.638c.032-.868.1-1.729.214-2.526l.028-.186c.298-1.928.835-3.08 1.441-3.129z"/><path d="M177.842 55.181l8.403 3.301a1.37 1.37 0 0 0 1.769-.772l7.134-18.282c.269-.714-.077-1.506-.77-1.776l-8.402-3.301a1.37 1.37 0 0 0-1.77.772l-7.133 18.282c-.27.695.077 1.486.769 1.776z"/></g><path d="M179.496 53.946l5.73 2.259c.712.27 1.5-.077 1.769-.772l6-15.367c.269-.714-.077-1.506-.77-1.776l-5.73-2.259a1.37 1.37 0 0 0-1.769.772l-5.999 15.367c-.269.714.077 1.506.769 1.776z" class="B"/><path d="M184.188 36.592l-6.001 15.372c-.38 1.008.109 2.134 1.1 2.521l5.728 2.258c1.011.384 2.133-.107 2.518-1.101l5.998-15.366c.383-1.015-.106-2.14-1.097-2.527l-5.728-2.258c-1.011-.384-2.132.107-2.518 1.101zm2.103-.021l5.723 2.256c.399.156.598.614.441 1.032l-5.997 15.361c-.155.4-.612.6-1.028.442l-5.723-2.256-.037-.015c-.362-.163-.544-.584-.417-.977l.012-.035 5.998-15.365c.155-.4.612-.6 1.028-.442z" class="C"/><path d="M178.245 50.471c.462-.907 1.173-1.931 2.269-2.799 5.519-.386 4.077-2.529 2.462-3.436-1.673-.927-4.25-.502-5.807 1.004" class="B"/><path d="M176.769 44.822c1.724-1.667 4.573-2.153 6.488-1.092 1.127.633 1.904 1.575 1.731 2.524-.204 1.115-1.574 1.754-4.123 1.972l-.128.01-.065.054a7.81 7.81 0 0 0-1.856 2.334l-.057.11c-.145.285-.492.398-.776.252a.58.58 0 0 1-.251-.779 8.94 8.94 0 0 1 2.425-2.99c.091-.072.202-.115.317-.123 2.264-.158 3.299-.611 3.379-1.05.057-.312-.418-.888-1.156-1.302-1.453-.805-3.756-.413-5.128.914-.23.222-.595.215-.816-.015a.58.58 0 0 1 .016-.819zM161.17 95.607l5.346-13.398s-27.785-25.773-36.727-27.819c-5.903-1.351-18.036-1.68-23.343 1.023l-11.71 2.355c-4.115-1.467-9.095-.637-12.902 4.112-7.864 9.807-15.171 46.044-15.171 46.044l14.614 1.351 1.346-2.702s-5.076 31.912 2.846 31.912l44.937-.367-1.077-37.279s3-11.236 3.327-20.271c14.209 7.993 28.515 15.039 28.515 15.039z" class="C"/><path d="M114.907 41.262l-1.808 13.128 4.673-.29s2.096 11.004-9.614 12.684c-8.153 1.158-8.576-11.081-8.576-11.081l.365-21.738 14.96 7.297z" class="B"/><path d="M99.37 33.955l-.365 21.738v.03l.007.138.008.136.011.151.006.081.145 1.299c.19 1.343.494 2.688.94 3.949 1.459 4.12 4.089 6.454 8.116 5.881 4.96-.711 7.983-3.089 9.389-6.592.835-2.08 1.001-4.261.791-6.201l-.013-.118a7.01 7.01 0 0 0-.067-.455l-.007-.034a.58.58 0 0 0-.595-.435l-3.969.246 1.711-12.427a.58.58 0 0 0-.319-.6l-14.96-7.298c-.379-.185-.822.088-.829.511zm1.138.928l13.77 6.717-1.75 12.711-.004.034a.58.58 0 0 0 .611.624l4.138-.257-.002-.021c.192 1.767.039 3.767-.714 5.643-1.252 3.119-3.929 5.225-8.481 5.878-3.38.48-5.571-1.464-6.867-5.123-.418-1.18-.705-2.451-.885-3.723a21.71 21.71 0 0 1-.137-1.229l-.011-.147-.012-.193-.006-.1.35-20.813z" class="C"/><path d="M101.141 33.829l-1.27.483s-7.48 2.162-8.095-5.077c-.462-5.502 4.807-6.023 7.384-5.946" class="B"/><path d="M94.066 23.653c1.444-.738 3.236-1 5.11-.944a.58.58 0 0 1 .559.596.58.58 0 0 1-.594.562c-1.699-.051-3.314.185-4.552.818-1.616.826-2.428 2.248-2.239 4.5.237 2.794 1.526 4.217 3.581 4.686 1.01.23 2.107.205 3.15.021l.402-.081.136-.032.072-.019 1.245-.474c.288-.109.608.027.731.305l.013.032a.58.58 0 0 1-.304.734l-.031.013-1.269.483-.045.015-.065.018a8.28 8.28 0 0 1-.685.147c-1.18.208-2.423.237-3.604-.033-2.535-.578-4.193-2.411-4.475-5.718-.229-2.728.837-4.593 2.866-5.63z" class="C"/><path d="M127.906 26.339c.231 3.321-.423 18.649-10.653 20.213S99.794 38.81 98.448 28.984s2.711-18.244 9.153-19.383c6.461-1.158 18.651-7.24 20.305 16.738z" class="B"/><g class="C"><path d="M115.83 7.494c-1.54.052-2.996.303-5.19.823l-1.727.414-.22.051-1.194.249c-6.832 1.208-11 9.979-9.623 20.032.702 5.123 2.942 9.987 6.229 13.38 3.6 3.716 8.201 5.451 13.235 4.681 4.805-.735 7.959-4.337 9.711-9.844 1.184-3.722 1.623-8.205 1.43-10.981-.51-7.393-2.036-12.38-4.502-15.357-2.107-2.544-4.81-3.56-8.149-3.447zm7.263 4.188c2.262 2.731 3.714 7.429 4.223 14.482l.015.215c.183 2.638-.241 6.976-1.378 10.549-1.632 5.131-4.49 8.395-8.786 9.051-4.65.711-8.884-.886-12.234-4.344-3.109-3.209-5.244-7.845-5.914-12.73-1.302-9.506 2.569-17.653 8.682-18.733l.173-.032c.351-.066.731-.148 1.186-.253l1.697-.406c2.209-.528 3.635-.778 5.113-.828 3.005-.101 5.363.785 7.223 3.03zm-4.375 7.544c.302-.06.595.128.67.423l.008.033 2.442 12.433a.58.58 0 0 1-.51.689l-.034.002-3.077.116a.58.58 0 0 1-.598-.557.58.58 0 0 1 .521-.598l.034-.002 2.401-.09-2.311-11.767a.58.58 0 0 1 .421-.673l.033-.008zm-6.673 1.508c1.244-.918 2.604-1.18 3.884-.301l.133.096a.58.58 0 0 1 .113.811c-.192.255-.554.306-.808.113l-.089-.065c-.796-.546-1.657-.381-2.549.278-.189.139-.362.29-.513.439l-.055.055-.098.104-.022.026c-.206.244-.57.275-.813.069a.58.58 0 0 1-.069-.816l.037-.044.21-.22c.189-.187.403-.373.639-.547z"/><path d="M122.417 20.285c.903-.52 1.843-.755 2.762-.52.497.127.956.391 1.363.795a.58.58 0 0 1 .005.819c-.224.227-.59.229-.816.004-.263-.261-.541-.421-.837-.496-.575-.147-1.236.018-1.904.402a4.7 4.7 0 0 0-.492.326l-.053.04-.094.076-.022.019c-.237.213-.602.193-.814-.045a.58.58 0 0 1 .045-.818l.037-.033.206-.165a5.81 5.81 0 0 1 .614-.406zm-5.703 7.431c.013-.896-.432-1.628-.995-1.636s-1.03.711-1.043 1.607.433 1.628.996 1.636 1.029-.711 1.042-1.607zm9.841.494c.013-.895-.432-1.628-.995-1.636s-1.03.711-1.043 1.607.433 1.628.996 1.636 1.029-.711 1.042-1.607z"/></g><g class="D"><path d="M104.996 25.285c-.249 5.082 2.614 9.397 6.472 9.589s7.129-3.818 7.378-8.9-2.614-9.397-6.472-9.589-7.129 3.818-7.378 8.9zm.863.043c.228-4.65 3.157-8.24 6.471-8.075s5.879 4.028 5.651 8.679-3.157 8.24-6.472 8.076-5.878-4.029-5.65-8.679zm16.305.416c-.249 5.082 2.614 9.397 6.472 9.589s7.129-3.818 7.378-8.9-2.614-9.397-6.472-9.589-7.129 3.818-7.378 8.9zm.863.043c.228-4.65 3.157-8.24 6.471-8.075s5.878 4.029 5.65 8.679-3.157 8.24-6.471 8.076-5.878-4.029-5.65-8.679z"/><path d="M118.65 23.047l4.076.116c.239.007.427.207.42.447-.006.23-.189.413-.415.422h-.029l-4.077-.116c-.239-.007-.427-.207-.42-.447.006-.23.19-.413.415-.422h.03zm-12.848-1.194c.238-.026.452.146.478.384.025.229-.132.435-.354.475l-.029.004-9.48 1.043c-.238.026-.451-.146-.477-.384-.025-.229.132-.435.354-.475l.029-.004 9.479-1.042z"/></g><path d="M115.157 37.304s1.865 1.525 3.73.946l-3.73-.946z" class="B"/><g class="C"><path d="M118.749 37.688c.295-.073.598.097.689.391s-.065.607-.376.721l-.035.012.03-.008c-1.094.34-2.228.117-3.315-.446-.25-.129-.478-.268-.681-.407l-.078-.054-.191-.143a.58.58 0 0 1-.083-.815c.194-.238.537-.282.783-.105l.088.068.131.093a5.26 5.26 0 0 0 .559.334c.819.424 1.64.593 2.405.381l.074-.021zm15.444-26.774c-3.941-16.39-24.939-11.332-28.227-4.112-13.787-3.166-19.248 6.931-21.882 13.456-2.538 6.313-1.096 12.317 2 19.093 1.788 3.9 9.499 1.197 13.672.714l.019-5.715c-.846.212-7.441 1.68-7.999-5.097-.212-2.471.75-3.938 2.096-4.807.5.695 1.442 1.004 3 .656 5.442-1.158 8.48-6.41 9.903-9.807l24.785-.907c1.769-.058 3.057-1.738 2.634-3.475z"/><path d="M104.219 50.885c1.185-6.003-2.076-11.71-7.285-12.746s-10.391 2.99-11.576 8.993 2.077 11.71 7.285 12.746 10.391-2.99 11.576-8.993z"/><path d="M112.203 63.257c1.762-4.067.333-8.613-3.192-10.152s-7.812.509-9.574 4.577-.333 8.613 3.192 10.152 7.812-.509 9.574-4.577z"/><path d="M117.017 74.049c2.527-3.049 2.437-7.307-.2-9.509s-6.823-1.516-9.349 1.534-2.437 7.307.2 9.509 6.823 1.516 9.349-1.534z"/><path d="M114.773 83.985c2.192 1.815 5.672 1.236 7.768-1.274s2-6.023-.192-7.838-5.75-1.409-7.846 1.1c-2.096 2.529-1.922 6.216.27 8.012z"/><path d="M117.06 91.476c2.346 1.699 2.519 3.572 2.134 4.981-.192.656.558 1.216 1.116.83 3.268-2.239 8.402-6.738 5.307-11.332-1.462-2.182-4.538-2.838-7.134-1.313-2.615 1.525-3.557 5.309-1.423 6.834z"/></g><path d="M103.689 51.426a.77.77 0 0 1 1.055-.266c.353.212.476.663.286 1.023l-.02.036-3.865 6.487a.77.77 0 0 1-1.055.266c-.353-.212-.476-.663-.285-1.023l.02-.036 3.864-6.487zm8.524 11.069c.331-.268.815-.215 1.081.117.258.321.218.786-.083 1.058l-.033.027-4.961 4.016c-.33.268-.814.216-1.081-.117-.258-.321-.218-.786.084-1.058l.032-.027 4.961-4.016zm3.517 11.903a.77.77 0 0 1 1.035.336c.187.368.053.815-.299 1.019l-.036.02-1.769.907a.77.77 0 0 1-1.035-.336c-.187-.368-.052-.815.299-1.019l.036-.02 1.769-.907zm4.835 8.431a.77.77 0 0 1 .974.485c.131.392-.068.815-.446.965l-.038.014-1.884.637a.77.77 0 0 1-.974-.486.77.77 0 0 1 .446-.965l.037-.014 1.885-.637z" class="D"/><path d="M53.875 129.315l-11.229 6.004c-2.442 1.274-2.346 2.896-2.346 2.896h3.077l8.999-3.9" class="B"/><path d="M54.385 129.041a.58.58 0 0 1-.236.784l-3.552 1.909-4.995 2.674-2.689 1.425a5.68 5.68 0 0 0-.971.63c-.441.362-.729.736-.898 1.105l-.03.067h2.245l8.889-3.852c.282-.122.608-.001.744.271l.014.031a.58.58 0 0 1-.27.747l-.031.015-8.999 3.899a.57.57 0 0 1-.181.046l-.047.002h-3.076a.58.58 0 0 1-.573-.511l-.004-.049v-.008c-.007-.243.043-.577.196-.967.232-.59.651-1.167 1.291-1.693.304-.249.652-.482 1.049-.697l1.08-.569 2.627-1.399 2.738-1.465 4.899-2.632c.281-.151.63-.045.781.237z" class="C"/><path d="M67.318 107.48l-6.288 22.684-4.961-.965c-1.519-.193-3.038.251-4.23 1.216l-9.037 6.66c-.481.367-.231 1.139.365 1.139h21.978c3.269.078 5.115-1.235 7.865-8.243 1.442-3.687 4.73-13.591 7.826-21.41l-13.518-1.081z" class="B"/><path d="M67.328 106.901a.58.58 0 0 0-.567.424l-6.145 22.169-4.438-.864-.037-.006-.096-.011c-1.605-.178-3.211.285-4.492 1.29l-.064.051-9.029 6.655c-.924.705-.447 2.185.707 2.185l5.944-.018 15.599.01.422.008c3.815.09 5.748-1.813 8.415-8.611l.113-.296 5.381-14.971.216-.587 1.139-3.037.1-.262.877-2.255a.58.58 0 0 0-.49-.791l-13.518-1.081-.034-.002zm.417 1.194l12.266.981-.038.098-.332.855-.225.586-1.243 3.312-.317.861-5.385 14.971-.149.378c-2.399 6.018-3.974 7.542-7.068 7.5l-.289-.006c-2.29-.042-11.313-.031-21.801.004-.038 0-.059-.065-.014-.099l9.03-6.654.021-.016.072-.058c1.04-.812 2.337-1.186 3.633-1.045l.074.008 4.94.962c.295.057.585-.123.666-.414l6.16-22.224z" class="C"/><path d="M45.531 138.215l7.961-4.248c1.038-.463 4.634.058 4.634.058" class="B"/><path d="M53.257 133.438c.498-.222 1.319-.275 2.438-.225l1.451.111.265.029.254.029.301.037.241.033a.58.58 0 0 1 .488.656.58.58 0 0 1-.653.491l-.17-.024-.111-.014-.232-.029-.5-.055-1.386-.107-.168-.006c-.853-.03-1.492.017-1.75.133l-.113.052-3.022 1.582-.831.447-1.19.643-2.763 1.502c-.28.153-.63.049-.782-.231a.58.58 0 0 1 .2-.768l.07-.04 1.809-.985 1.221-.662L50.252 135l3.005-1.562z" class="C"/><path d="M52.338 137.867s-.558-2.394 1.673-2.741 5.23-.85 7.288-2.665" class="B"/><path d="M60.917 132.026c.239-.211.604-.187.814.053a.58.58 0 0 1-.053.818c-1.012.892-2.274 1.534-3.791 2.001l-.178.053c-1.037.308-2.01.498-3.611.747-.681.106-1.022.426-1.169.938-.089.308-.096.655-.052.973l.011.072.006.033.004.021a.58.58 0 0 1-.43.696c-.31.073-.62-.121-.693-.432l-.011-.05-.03-.182c-.064-.465-.054-.965.086-1.452.268-.932.962-1.584 2.101-1.762l.277-.043c3.334-.535 5.18-1.127 6.718-2.484z" class="C"/><path d="M229.971 115.955h-10.095l-35.438-29.518c-6.826-5.599-17.094-17.607-31.17-7.548-8.518 6.081-27.708 22.511-40.687 37.086l-3.923 4.595c-6.23 7.626-10.076 14.325-8.826 18.109l129.254-.174.885-22.549z" fill="#24348c"/><path d="M246.854 132.732l-3.038-28.862c0-2.375-2.48-3.919-4.595-2.857-3.923 1.969-9.076 7.201-10.038 20.965-3.172-.695-6.864-1.139-11.133-1.235l-16.748 12.355v5.271h47.745c0 .019-.212-2.491-2.193-5.637zM144.788 85.259l-8.538.734c-6.018.811-13.479 2.162-20.709 3.552 0 0-7.807-8.707-9.633-6.834-.789.811-1.25 6.197-1.096 10.599l-2.231.849s-10.999-7.259-14.94 2.799c-.115.309.173.618.481.502 1.077-.405 3.134-.772 4.019 2.066 0 0-.25-.212-1.808 2.182-1.385 2.143-3.153 13.707 7.307 17.394 1.423.618.404 0 2.096.811.539 2.992 2.769 5.309 4.846 5.753 2.384.502 4.595-4.614 4.903-6.275 1.461-4.305 3.423-.25 5.249.464 3.635 1.428 5.538-8.359 5.904-13.031l6.307-5.618 1.096-.734c-.077-.019-.154-.019-.231-.039l16.979-15.174z" class="D"/><g class="C"><path d="M105.175 84.024c.138-.288.483-.41.77-.271l.068.033.214.11.719.399c.743.432 1.485.923 2.18 1.467 2.382 1.86 3.678 3.873 3.209 5.994a.58.58 0 0 1-.689.44.58.58 0 0 1-.438-.691c.344-1.554-.726-3.216-2.79-4.828-.651-.508-1.351-.972-2.051-1.379l-.675-.374-.144-.075-.103-.051a.58.58 0 0 1-.27-.773zM91.317 95.029c2.276-1.196 5.223-1.374 8.789.08a.58.58 0 0 1 .317.755c-.119.296-.456.439-.751.319-3.247-1.324-5.84-1.167-7.82-.127-.333.175-.616.361-.85.545l-.063.05-.169.147-.021.021c-.221.231-.586.238-.816.017a.58.58 0 0 1-.017-.819l.04-.04a4.16 4.16 0 0 1 .334-.288c.288-.226.63-.451 1.027-.659zm8.341 11.93l1.826.579c.27.077.558-.077.635-.348l.538-1.718c.135-.405-.269-.753-.653-.579l-2.366 1.139c-.423.212-.404.792.019.927z"/><path d="M101.167 107.407c-.212-.66.699-1.068 1.047-.47.307.528.728 1.069 1.047 1.343l.026.021.003-.028c.011-.121.014-.269.006-.444l-.003-.068a.58.58 0 0 1 .546-.608c.318-.017.59.228.606.548.04.75-.047 1.259-.327 1.579-.364.418-.869.383-1.333.086a2.56 2.56 0 0 1-.218-.16l-.057-.048-.011.075-.013.071c-.209 1.073-1.123 1.308-2.06.46a.58.58 0 0 1-.042-.818c.213-.238.578-.257.814-.043l.138.116.026.018.001-.005c.057-.382-.017-1.028-.174-1.554l-.022-.071zm14.058 2.951c.063-.314.367-.517.68-.453a.58.58 0 0 1 .45.683c-.254 1.26-.157 3.099.199 5.216l.465 2.284.044.184.127.49.05.18.064.21.004.009a.58.58 0 0 1-.327.751.58.58 0 0 1-.748-.328c-.166-.427-.566-2.096-.817-3.588-.377-2.246-.48-4.205-.191-5.638zm-3.584 1.11c.143-.286.489-.402.774-.259a.58.58 0 0 1 .318.547v.003l.008.065.013.096.018.11.103.551.535 2.165c.593 2.042 1.34 3.753 2.193 4.8a.58.58 0 0 1-.081.815c-.247.203-.61.166-.812-.081-.974-1.195-1.775-3.031-2.407-5.21l-.526-2.097-.084-.414c-.135-.683-.153-.889-.052-1.091z"/><path d="M118.754 101.544l.256-.094c3.459-1.26 7.224-1.878 9.182-1.549a.58.58 0 0 1 .474.667c-.053.315-.35.528-.664.475-1.774-.298-5.489.328-8.844 1.586-4.016 1.506-6.999 3.655-8.109 6.13-2.214 4.973-.45 8.814 3.896 10.538a.58.58 0 0 1 .325.752c-.118.297-.453.443-.749.325-4.936-1.958-7.018-6.49-4.525-12.089 1.265-2.82 4.482-5.137 8.758-6.741zm-12.779 15.367a.58.58 0 0 1 .46.677l-.027.144-.07.409-.215 1.424-.263 2.537-.015.246c-.075 1.337-.028 2.406.156 3.088a.58.58 0 0 1-.405.711c-.307.084-.624-.098-.708-.407-.238-.879-.282-2.143-.179-3.714l.27-2.617.193-1.289.078-.464.051-.284c.06-.314.361-.521.674-.461zm-3.631-.126a.58.58 0 0 1 .563.594l-.002.09.026 1.545.235 2.609.033.212c.249 1.574.651 2.739 1.182 3.295a.58.58 0 0 1-.017.819c-.23.221-.596.213-.816-.018-.769-.805-1.244-2.235-1.523-4.139-.128-.868-.206-1.792-.246-2.728l-.009-.233-.02-1.211.003-.27a.58.58 0 0 1 .591-.565z"/><path d="M105.136 112.487c2.014-.016 4.34.599 5.091 1.255a.58.58 0 0 1 .057.817c-.201.232-.546.265-.786.08l-.028-.023c-.502-.439-2.567-.984-4.325-.97-2.32.018-3.955.859-4.557 2.65-.225.662-.373 1.991-.373 2.96a.58.58 0 0 1-.577.58.58.58 0 0 1-.577-.58c0-1.085.161-2.527.434-3.332.785-2.337 2.879-3.415 5.64-3.437zm1.136-12.381a.58.58 0 0 1 .538.616 2.26 2.26 0 0 1-.042.294 2.62 2.62 0 0 1-.199.61c-.461.97-1.431 1.335-2.749.723a.58.58 0 0 1-.282-.769c.134-.29.477-.416.766-.282.739.343 1.032.233 1.223-.17a1.49 1.49 0 0 0 .111-.342l.01-.055.009-.06.002-.024a.58.58 0 0 1 .579-.542l.034.001zm-7.769 3.244a.58.58 0 0 1 .538.615 2.26 2.26 0 0 1-.042.294 2.64 2.64 0 0 1-.2.611c-.461.97-1.43 1.334-2.749.723a.58.58 0 0 1-.282-.769c.134-.291.477-.417.766-.283.739.343 1.032.233 1.223-.17.05-.105.086-.223.11-.341l.01-.055.009-.061.002-.024a.58.58 0 0 1 .579-.541l.034.001z"/></g><path d="M92.984 110.512c.275-.161.629-.067.789.21a.58.58 0 0 1-.209.792c-1.676.978-3.028 2.553-4.085 4.568a19.78 19.78 0 0 0-1.544 4.002l-.311 1.319-.026.132-.022.122-.019.11-.019.12c-.046.317-.338.537-.653.491a.58.58 0 0 1-.489-.656l.019-.119.079-.426.329-1.397c.39-1.442.927-2.886 1.636-4.237 1.15-2.193 2.641-3.931 4.525-5.031zm2.195 1.07c.292-.127.632.007.759.301a.58.58 0 0 1-.269.747l-.031.015c-.676.294-1.878 1.837-2.736 3.67-1.039 2.22-1.457 4.497-1.028 6.343a.58.58 0 0 1-.431.695c-.31.073-.621-.121-.693-.432-.497-2.136-.033-4.663 1.107-7.099.967-2.066 2.322-3.805 3.321-4.24zm14.864-7.395a12.54 12.54 0 0 1 5.124.24c2.234.585 4.178 1.799 5.656 3.723a.58.58 0 0 1-.104.812c-.252.195-.614.148-.809-.105-1.315-1.711-3.037-2.786-5.034-3.309a11.39 11.39 0 0 0-4.645-.218.58.58 0 0 1-.663-.477.58.58 0 0 1 .475-.666zm.304-1.945c1.421-.907 3.722-1.223 6.108-.846 2.615.413 5.077 1.599 6.883 3.46a.58.58 0 0 1-.011.819c-.228.223-.593.218-.815-.011-1.624-1.672-3.857-2.747-6.236-3.123-2.13-.337-4.153-.06-5.309.679-.269.171-.626.092-.797-.178a.58.58 0 0 1 .177-.8z" class="B"/><path d="M165.343 17.535h11.595c.808 0 1.461.676 1.461 1.525v15.657l-5.037-5.232-8.038-.116c-.807 0-1.442-.676-1.442-1.525v-8.784c0-.83.654-1.525 1.461-1.525z" class="D"/><path d="M169.112 24.292v-1.583c0-1.158 1.02-2.104 2.25-2.104s2.25.946 2.25 2.104v.039 1.506.039c0 1.158-1.019 2.104-2.25 2.104s-2.25-.946-2.25-2.104zm1.116-1.602v1.583c0 .579.519 1.062 1.134 1.062.635 0 1.135-.483 1.135-1.062v-1.564-.039c0-.579-.52-1.062-1.135-1.062-.615.019-1.134.502-1.134 1.081z" class="B"/><path d="M284.502 137.886c.275 0 .498.26.498.579 0 .309-.207.561-.469.579l-.029.001H.498c-.275 0-.498-.26-.498-.58 0-.308.207-.56.469-.578l.029-.001h284.004z" class="C"/></g><circle cx="31" cy="91" r="31" fill="#3a55d1"/><path d="M31.427 106.398c-2.131 0-4.02-.365-5.668-1.094s-2.945-1.742-3.892-3.04-1.439-2.793-1.477-4.488h6.193c.057 1.061.54 1.918 1.449 2.571.919.653 2.055.98 3.409.98 1.411 0 2.562-.36 3.452-1.08a3.43 3.43 0 0 0 1.335-2.826c.01-1.174-.469-2.131-1.435-2.869-.956-.748-2.258-1.122-3.906-1.122h-2.713v-4.517h2.713c1.401 0 2.543-.35 3.423-1.051.881-.71 1.316-1.638 1.307-2.784.01-1.099-.369-1.989-1.136-2.671-.758-.682-1.757-1.023-2.997-1.023-1.259 0-2.334.332-3.224.994s-1.354 1.548-1.392 2.656h-5.895c.028-1.676.507-3.153 1.435-4.432.928-1.288 2.178-2.292 3.75-3.011 1.582-.72 3.367-1.08 5.355-1.08 2.008 0 3.764.365 5.27 1.094s2.675 1.714 3.508 2.955c.843 1.231 1.26 2.614 1.25 4.148.01 1.629-.497 2.988-1.52 4.077-1.013 1.089-2.334 1.78-3.963 2.074v.227c2.14.265 3.769 1.004 4.886 2.216 1.127 1.212 1.686 2.723 1.676 4.531.01 1.657-.469 3.13-1.435 4.418-.956 1.288-2.277 2.301-3.963 3.04s-3.617 1.108-5.796 1.108z" class="B"/></svg>