<svg width="142" height="81" viewBox="0 0 142 81" fill="none" xmlns="http://www.w3.org/2000/svg">
<path fill-rule="evenodd" clip-rule="evenodd" d="M117.083 69.1718C115.652 69.9718 113.004 70.9296 110.818 68.7887C108.565 66.5915 106.953 66.6366 106.198 66.8507C105.973 66.8056 105.725 66.907 105.601 67.1211L100.858 75.7408C100.486 76.4169 99.7646 76.8451 98.9871 76.8451H83.5392C83.235 76.8451 82.9871 77.0929 82.9871 77.3972C82.9871 77.7014 83.235 77.9493 83.5392 77.9493H98.9871C100.17 77.9493 101.252 77.307 101.827 76.2704L104.598 71.2225C105.635 71.3577 107.043 71.8197 108.362 73.1155C110.908 75.5944 113.894 74.1972 114.987 73.5324C115.258 73.3746 115.472 73.138 115.629 72.8676L117.489 69.5887C117.658 69.3183 117.353 69.0141 117.083 69.1718Z" fill="#000091"/>
<path fill-rule="evenodd" clip-rule="evenodd" d="M40.4181 59.2C40.3505 59.0535 40.1702 58.9972 40.035 59.0761C39.9899 59.0986 39.5167 59.3916 37.4547 60.4169L36.5082 60.8789C32.0124 63.0423 25.3758 65.7916 22.6829 64.6535C22.5702 64.6085 22.4462 64.631 22.3674 64.7211C22.3561 64.7324 21.3871 65.7803 19.2688 66.7718C17.3195 67.6845 13.9617 68.7211 9.06033 68.4845C8.89131 68.4732 8.74483 68.6197 8.77863 68.8C8.80117 68.9352 8.91385 69.0254 9.04906 69.0366C9.48849 69.0592 9.9054 69.0704 10.3223 69.0704L10.5251 70.4C10.5702 70.693 10.9646 70.7718 11.111 70.5127L11.9674 69.0254C12.5646 68.9916 13.1392 68.9352 13.6913 68.8676L14.0068 70.0169C14.0857 70.2986 14.48 70.3324 14.604 70.0732L15.28 68.6197C15.742 68.5296 16.1702 68.4282 16.5758 68.3268L16.835 69.2845C16.9138 69.5662 17.3082 69.6 17.4322 69.3408L18.1307 67.8535C18.6491 67.6732 19.0998 67.4817 19.5054 67.2901L19.6857 67.9549C19.7646 68.2366 20.1589 68.2704 20.2829 68.0113L20.9815 66.5014C21.8941 65.9493 22.435 65.4648 22.6716 65.2282C23.2462 65.431 23.9448 65.4873 24.7336 65.4423L25.2068 66.6141C25.3195 66.8845 25.6913 66.8732 25.7927 66.6028L26.311 65.2394C26.8068 65.1493 27.3138 65.0366 27.8322 64.8901L28.0462 65.8028C28.1138 66.0958 28.5082 66.1408 28.6322 65.8704L29.3645 64.4282C29.8603 64.2704 30.3561 64.0901 30.8519 63.9099L31.0434 64.7324C31.111 65.0141 31.4829 65.0704 31.6293 64.8225L32.5082 63.2789C32.9476 63.0986 33.3871 62.9183 33.8265 62.7268L34.0406 63.5155C34.1195 63.7972 34.5138 63.831 34.6378 63.5718L35.3364 62.062C35.8096 61.8479 36.2603 61.6338 36.6998 61.4197L36.8688 62.062C36.9476 62.3437 37.342 62.3775 37.466 62.1183L38.1082 60.7437C39.8547 59.8648 40.1814 59.662 40.3505 59.5718C40.4181 59.493 40.4857 59.3352 40.4181 59.2Z" fill="#000091"/>
<path fill-rule="evenodd" clip-rule="evenodd" d="M53.8378 55.2225C53.7251 55.1774 53.6012 55.2 53.5223 55.2901C53.511 55.3014 52.542 56.3493 50.4237 57.3408C48.4744 58.2535 45.1167 59.2901 40.2153 59.0535C40.0462 59.0422 39.8998 59.1887 39.9336 59.369C39.9561 59.5042 40.0688 59.5943 40.204 59.6056C40.6434 59.6282 41.0603 59.6394 41.4772 59.6394L41.6688 60.9465C41.7139 61.2507 42.1195 61.3296 42.2772 61.0591L43.111 59.5943C43.7082 59.5605 44.2829 59.5042 44.835 59.4366L45.1392 60.5634C45.2181 60.8563 45.6237 60.8901 45.7477 60.6197L46.4124 59.1887C46.8744 59.0986 47.3026 58.9972 47.7082 58.8958L48.0688 59.9774C48.1702 60.2704 48.5758 60.2817 48.6885 59.9887L49.2631 58.4225C49.7815 58.2422 50.2322 58.0507 50.6378 57.8591L50.8068 58.5014C50.8857 58.7943 51.2913 58.8282 51.4153 58.5577L52.1026 57.0817C53.0153 56.5296 53.5561 56.0451 53.7927 55.8084" fill="#000091"/>
<path fill-rule="evenodd" clip-rule="evenodd" d="M125.624 61.5324C125.567 61.3859 125.398 61.3071 125.263 61.3747C120.925 63.1887 116.362 62.2761 111.708 58.6817C108.204 55.9775 105.973 52.6761 105.95 52.6535C105.86 52.5296 105.691 52.4958 105.567 52.5747C105.443 52.6648 105.41 52.8338 105.488 52.9578C105.5 52.9803 106.153 53.9493 107.314 55.2676L107.866 57.9155C107.922 58.2085 108.317 58.2648 108.463 58.0169L109.015 57.0817C109.488 57.5437 109.996 58.0056 110.536 58.4563L111.122 60.4958C111.201 60.7662 111.562 60.8113 111.708 60.5747L112.227 59.7634C112.688 60.0901 113.15 60.3831 113.624 60.6648L114.435 62.9521C114.525 63.2113 114.886 63.2451 115.021 63.0085L115.742 61.7465C116.193 61.938 116.632 62.0958 117.083 62.231L118.142 64.0789C118.288 64.3268 118.649 64.2817 118.739 64.0113L119.134 62.693C119.708 62.7718 120.283 62.8169 120.857 62.8169C120.903 62.8169 120.948 62.8169 120.993 62.8169L122.131 64.3042C122.288 64.5183 122.627 64.4507 122.705 64.1916L123.167 62.5803C123.934 62.4225 124.688 62.1972 125.443 61.8817C125.59 61.8254 125.68 61.6676 125.624 61.5324Z" fill="#000091"/>
<path fill-rule="evenodd" clip-rule="evenodd" d="M9.00398 68.4056C9.184 68.4056 9.33116 68.5464 9.34144 68.7238L9.34201 68.7437V79.8761C9.34201 80.0627 9.19067 80.2141 9.00398 80.2141C8.82396 80.2141 8.67681 80.0734 8.66653 79.8959L8.66595 79.8761V68.7437C8.66595 68.557 8.81729 68.4056 9.00398 68.4056Z" fill="#E18B76"/>
<path fill-rule="evenodd" clip-rule="evenodd" d="M22.5589 64.5746C22.7389 64.5746 22.8861 64.7154 22.8964 64.8928L22.8969 64.9127V79.6958C22.8969 79.8825 22.7456 80.0338 22.5589 80.0338C22.3789 80.0338 22.2317 79.8931 22.2215 79.7156L22.2209 79.6958V64.9127C22.2209 64.726 22.3722 64.5746 22.5589 64.5746Z" fill="#E18B76"/>
<path fill-rule="evenodd" clip-rule="evenodd" d="M40.204 58.9634C40.384 58.9634 40.5312 59.1041 40.5414 59.2815L40.542 59.3014V79.6732C40.542 79.8599 40.3907 80.0113 40.204 80.0113C40.024 80.0113 39.8768 79.8705 39.8665 79.6931L39.866 79.6732V59.3014C39.866 59.1147 40.0173 58.9634 40.204 58.9634Z" fill="#E18B76"/>
<path fill-rule="evenodd" clip-rule="evenodd" d="M125.398 61.2394C125.578 61.2394 125.726 61.3802 125.736 61.5576L125.736 61.5775V79.8761C125.736 80.0628 125.585 80.2141 125.398 80.2141C125.218 80.2141 125.071 80.0734 125.061 79.8959L125.06 79.8761V61.5775C125.06 61.3908 125.212 61.2394 125.398 61.2394Z" fill="#E18B76"/>
<path fill-rule="evenodd" clip-rule="evenodd" d="M104.666 51.2225L63.8772 51.4929C63.2237 51.4929 62.6378 51.831 62.3674 52.3493L49.2068 76.2929L15.7646 76.3155C15.7646 76.3155 15.1899 79.6732 20.0012 79.876L92.1139 79.7859L106.198 53.3634C106.739 52.3606 105.905 51.2113 104.666 51.2225Z" fill="#E18B76"/>
<path fill-rule="evenodd" clip-rule="evenodd" d="M53.3984 76.1915L87.8434 76.0451L98.5026 55.2789C98.9195 54.4789 98.3674 53.5099 97.5111 53.5211L66.2096 53.9042L53.3984 76.1915Z" fill="white"/>
<path fill-rule="evenodd" clip-rule="evenodd" d="M101.294 51.245C102.77 51.2318 103.776 52.6098 103.158 53.846L103.139 53.8835L89.1893 79.9454C89.1012 80.11 88.8964 80.172 88.7318 80.0839C88.5733 79.9991 88.5099 79.806 88.5841 79.6448L88.5933 79.6264L102.542 53.5661C102.946 52.8013 102.306 51.912 101.3 51.921C101.113 51.9227 100.961 51.7727 100.959 51.586C100.957 51.3994 101.107 51.2467 101.294 51.245Z" fill="white"/>
<path fill-rule="evenodd" clip-rule="evenodd" d="M55.235 61.8479L59.0096 68.7887C59.2012 69.1155 59.6969 68.9803 59.6969 68.6085L59.449 65.4535C59.449 65.4535 61.6575 73.0479 64.6885 73.2394C67.7195 73.431 70.6265 65.2394 70.6265 65.2394L69.8265 68.6761C69.8265 69.0592 70.3223 69.1831 70.5138 68.8563L74.5476 61.8479" fill="#000091"/>
<path fill-rule="evenodd" clip-rule="evenodd" d="M50.5138 35.0085C50.5138 35.0085 41.511 47.2 42.6716 58.107H62.5364V34.7493L50.5138 35.0085Z" fill="#000091"/>
<path fill-rule="evenodd" clip-rule="evenodd" d="M78.8181 35.0085C78.8181 35.0085 87.8209 47.2 86.6603 58.107H66.7955V34.7493L78.8181 35.0085Z" fill="#000091"/>
<path fill-rule="evenodd" clip-rule="evenodd" d="M72.7673 58.1071C80.3955 44.3944 79.5617 33.5099 77.342 26.0507C75.111 18.5916 69.8828 10.2761 64.9138 10.2761C59.9448 10.2761 54.7166 18.5916 52.4856 26.0507C50.2547 33.5099 49.3195 44.3944 56.9476 58.1071L54.818 62.7042H74.9307L72.7673 58.1071Z" fill="white"/>
<path fill-rule="evenodd" clip-rule="evenodd" d="M64.9138 9.93803C62.4407 9.93803 59.8325 11.848 57.4003 15.1664C55.2228 18.1374 53.3177 22.089 52.1618 25.9538C50.8432 30.3624 50.283 34.896 50.6826 39.7615L50.6976 39.9394C51.1975 45.6946 53.0381 51.6667 56.4419 57.89L56.5687 58.1206L54.5113 62.5622C54.4075 62.7862 54.5711 63.0423 54.818 63.0423H74.9307L74.9501 63.0417C75.1869 63.0287 75.3393 62.7786 75.2366 62.5603L73.1467 58.1194L73.2754 57.8859C76.7166 51.5945 78.5791 45.5626 79.0844 39.7631C79.5095 34.8828 78.9696 30.3349 77.666 25.9543C76.5099 22.089 74.6049 18.1374 72.4273 15.1664C69.9952 11.848 67.3869 9.93803 64.9138 9.93803ZM64.9138 10.6141C67.1201 10.6141 69.5645 12.4041 71.882 15.566C74.0122 18.4723 75.8836 22.3542 77.0181 26.1476C78.2984 30.4496 78.8283 34.9131 78.4109 39.7045C77.9037 45.526 76.0036 51.5941 72.472 57.9427L72.4614 57.9634C72.4188 58.0541 72.4185 58.1596 72.4615 58.251L74.398 62.3662H55.3471L57.2544 58.2491C57.2998 58.1511 57.2956 58.0372 57.243 57.9427C53.715 51.6007 51.8352 45.5362 51.3564 39.7061C50.964 34.9292 51.514 30.4791 52.8095 26.1476C53.9441 22.3542 55.8155 18.4723 57.9456 15.566C60.2631 12.4041 62.7075 10.6141 64.9138 10.6141Z" fill="#000091"/>
<path fill-rule="evenodd" clip-rule="evenodd" d="M64.9138 38.4902C68.0502 38.4902 70.5927 35.4633 70.5927 31.7296C70.5927 27.9958 68.0502 24.969 64.9138 24.969C61.7775 24.969 59.235 27.9958 59.235 31.7296C59.235 35.4633 61.7775 38.4902 64.9138 38.4902Z" fill="#000091"/>
<path fill-rule="evenodd" clip-rule="evenodd" d="M64.9138 41.5324C65.4366 41.5324 65.8603 41.0279 65.8603 40.4056C65.8603 39.7833 65.4366 39.2789 64.9138 39.2789C64.3911 39.2789 63.9673 39.7833 63.9673 40.4056C63.9673 41.0279 64.3911 41.5324 64.9138 41.5324Z" fill="#000091"/>
<path fill-rule="evenodd" clip-rule="evenodd" d="M68.5645 41.5324C69.0872 41.5324 69.511 41.0279 69.511 40.4056C69.511 39.7833 69.0872 39.2789 68.5645 39.2789C68.0418 39.2789 67.618 39.7833 67.618 40.4056C67.618 41.0279 68.0418 41.5324 68.5645 41.5324Z" fill="#000091"/>
<path fill-rule="evenodd" clip-rule="evenodd" d="M60.9815 41.5324C61.5042 41.5324 61.9279 41.0279 61.9279 40.4056C61.9279 39.7833 61.5042 39.2789 60.9815 39.2789C60.4587 39.2789 60.035 39.7833 60.035 40.4056C60.035 41.0279 60.4587 41.5324 60.9815 41.5324Z" fill="#000091"/>
<path fill-rule="evenodd" clip-rule="evenodd" d="M64.9138 36.169C67.2848 36.169 69.2068 33.8838 69.2068 31.0648C69.2068 28.2458 67.2848 25.9606 64.9138 25.9606C62.5429 25.9606 60.6209 28.2458 60.6209 31.0648C60.6209 33.8838 62.5429 36.169 64.9138 36.169Z" fill="white"/>
<path fill-rule="evenodd" clip-rule="evenodd" d="M64.9138 25.6225C62.342 25.6225 60.2828 28.0708 60.2828 31.0648C60.2828 34.0588 62.342 36.507 64.9138 36.507C67.4857 36.507 69.5448 34.0588 69.5448 31.0648C69.5448 28.0708 67.4857 25.6225 64.9138 25.6225ZM64.9138 26.2986C67.0839 26.2986 68.8688 28.4208 68.8688 31.0648C68.8688 33.7088 67.0839 35.831 64.9138 35.831C62.7438 35.831 60.9589 33.7088 60.9589 31.0648C60.9589 28.4208 62.7438 26.2986 64.9138 26.2986Z" fill="#000091"/>
<path fill-rule="evenodd" clip-rule="evenodd" d="M65.9166 10.0845V2.09578C65.9166 2.07324 65.9166 2.05071 65.9166 2.01691C66.0631 1.81409 66.1533 1.55493 66.1533 1.28451C66.1533 0.597187 65.6011 0.0450745 64.9138 0.0450745C64.2265 0.0450745 63.6744 0.597187 63.6744 1.28451C63.6744 1.55493 63.7645 1.81409 63.911 2.01691C63.911 2.03944 63.911 2.06198 63.911 2.09578V10.0732C61.8265 10.5014 59.742 12.2479 57.8378 14.5916C59.9899 14.0958 62.5026 13.8254 65.3871 13.9831C67.9673 14.1296 70.2659 14.4901 72.2828 14.9747C70.311 12.4507 68.1026 10.5577 65.9166 10.0845Z" fill="#000091"/>
<path fill-rule="evenodd" clip-rule="evenodd" d="M74.1645 19.1211C71.6744 18.2873 68.8124 17.5549 64.9702 17.4085C61.0491 17.262 58.0744 18.1408 55.6293 19.0986C54.5589 21.0817 53.7138 23.0423 53.0265 25.1493C55.9561 23.7183 59.5505 22.2085 65.0603 22.3099C70.2998 22.4 73.9054 23.5606 76.6434 24.7775C75.9786 22.8056 75.1674 20.9916 74.1645 19.1211Z" fill="#000091"/>
<path fill-rule="evenodd" clip-rule="evenodd" d="M72.4744 58.0507C72.8349 57.3972 73.1842 56.7549 73.511 56.1127C71.7871 55.4141 69.3082 54.8282 64.9026 54.8733C60.4518 54.8395 57.9617 55.4366 56.2378 56.1465C56.5645 56.7775 56.9026 57.4197 57.2518 58.062C57.2518 58.062 61.1617 57.2958 64.8913 57.3296C68.5645 57.2958 72.4744 58.0507 72.4744 58.0507Z" fill="#000091"/>
<path fill-rule="evenodd" clip-rule="evenodd" d="M93.2519 76.0451H75.5392C75.5392 76.0451 72.9927 73.7578 74.1645 71.8873C75.3364 70.0169 78.4124 69.5662 79.4153 71.4592C79.4153 71.4592 79.8547 67.8423 83.5617 68.1239C87.28 68.4056 86.9871 72.2704 86.9871 72.2704C86.9871 72.2704 91.6857 68.9465 91.5617 74.1408C91.5505 74.1296 91.8434 76.0451 93.2519 76.0451Z" fill="white"/>
<path fill-rule="evenodd" clip-rule="evenodd" d="M75.5392 76.3831H93.2519L93.2748 76.3825C93.6949 76.3604 93.6949 75.7297 93.2748 75.7076L93.2519 75.707C92.7814 75.707 92.4318 75.4287 92.1744 74.933C92.0779 74.747 92.0029 74.5448 91.9494 74.3458C91.9336 74.287 91.9206 74.232 91.9109 74.1844L91.902 74.1374L91.9001 74.1263L91.8996 74.1489C91.9594 71.6464 90.9129 70.6421 89.2186 70.932C88.7418 71.0135 88.242 71.1941 87.7373 71.4436L87.6472 71.4889C87.5578 71.5344 87.4706 71.5811 87.3858 71.6283L87.3145 71.6684L87.3142 71.6632C87.3079 71.5848 87.2998 71.5032 87.2895 71.419C87.2325 70.9522 87.1185 70.4911 86.9333 70.0565C86.3854 68.7713 85.3173 67.9358 83.6472 67.7917L83.5873 67.7869C81.7822 67.6497 80.5222 68.3564 79.7484 69.6057L79.7034 69.6801C79.5262 69.9787 79.3868 70.2909 79.2801 70.6057L79.2546 70.6827L79.2244 70.6533C77.8232 69.323 75.0571 69.8259 73.8781 71.7078C73.6758 72.0306 73.5609 72.3776 73.5281 72.7419C73.4525 73.5804 73.8034 74.4442 74.425 75.2927C74.6182 75.5563 74.8245 75.7994 75.031 76.017L75.0829 76.0711C75.1832 76.1749 75.2627 76.2511 75.3133 76.2965C75.3753 76.3523 75.4558 76.3831 75.5392 76.3831ZM83.5361 68.461C84.979 68.5703 85.8525 69.2453 86.3114 70.3216C86.4697 70.6931 86.5686 71.0935 86.6184 71.501C86.65 71.7594 86.6585 71.9876 86.6533 72.1675L86.6515 72.2171L86.65 72.2449C86.6289 72.5238 86.9347 72.7035 87.1666 72.5569L87.2267 72.516L87.3053 72.4643C87.3395 72.4422 87.3765 72.4188 87.4162 72.3942C87.606 72.2768 87.8152 72.1592 88.0368 72.0497C88.4877 71.8268 88.9289 71.6674 89.3326 71.5983C89.8988 71.5015 90.3408 71.5895 90.6486 71.8849L90.6696 71.9057C91.0318 72.2713 91.2352 72.9543 91.2258 74.0094L91.2241 74.113L91.2236 74.1242L91.224 74.1642L91.2263 74.1893L91.2286 74.2071C91.2308 74.2226 91.2337 74.241 91.2373 74.2612L91.2412 74.2821C91.2544 74.3523 91.2731 74.4341 91.2966 74.5214C91.362 74.7645 91.4535 75.0116 91.5744 75.2445L91.5947 75.283C91.6666 75.4169 91.7457 75.5409 91.8321 75.6537L91.8742 75.7069H75.6739L75.6454 75.6787C75.6066 75.6401 75.5651 75.5977 75.5214 75.5516C75.3335 75.3536 75.1454 75.132 74.9704 74.8931C74.4367 74.1648 74.1437 73.4433 74.2014 72.8025C74.2248 72.5431 74.3058 72.2985 74.451 72.0668C75.5285 70.347 78.2263 70.0461 79.0909 71.5706L79.1165 71.6174C79.2683 71.9039 79.6931 71.8316 79.7479 71.5197L79.7545 71.4738C79.7579 71.4515 79.7634 71.4196 79.7712 71.3791C79.7914 71.2742 79.8192 71.1563 79.8559 71.029C79.9607 70.6643 80.1138 70.2997 80.3232 69.9617C80.9692 68.9185 81.994 68.3438 83.5361 68.461Z" fill="#000091"/>
<path fill-rule="evenodd" clip-rule="evenodd" d="M36.8575 76.0789H54.5702C54.5702 76.0789 57.1166 73.7916 55.9448 71.9211C54.773 70.0507 51.6969 69.6 50.6941 71.493C50.6941 71.493 50.2547 67.8761 46.5476 68.1578C42.8293 68.4394 43.1223 72.3042 43.1223 72.3042C43.1223 72.3042 38.4237 68.9803 38.5476 74.1747C38.5589 74.1634 38.2659 76.0676 36.8575 76.0789Z" fill="white"/>
<path fill-rule="evenodd" clip-rule="evenodd" d="M36.8575 76.4169H54.5702C54.6536 76.4169 54.734 76.3861 54.7961 76.3304L54.8237 76.3051C54.8837 76.2495 54.9713 76.1636 55.0783 76.0508C55.2849 75.8332 55.4912 75.5901 55.6843 75.3265C56.306 74.4781 56.6568 73.6143 56.5813 72.7757C56.5485 72.4114 56.4335 72.0645 56.2313 71.7417L56.1905 71.678C54.9895 69.8485 52.2703 69.372 50.885 70.6871L50.8547 70.7165L50.8293 70.6395C50.7136 70.2984 50.5597 69.9605 50.3609 69.6396C49.5961 68.4045 48.356 67.6998 46.5841 67.8163L46.5221 67.8207C44.8176 67.9498 43.7305 68.7899 43.1761 70.0903C42.9908 70.5249 42.8769 70.986 42.8199 71.4528L42.8125 71.5155C42.8079 71.5569 42.8038 71.5976 42.8002 71.6376L42.7947 71.7022L42.7235 71.6621C42.6105 71.5991 42.4931 71.5373 42.3721 71.4775C41.8673 71.228 41.3675 71.0474 40.8908 70.9658L40.8401 70.9575C39.1924 70.6988 38.1714 71.685 38.2082 74.1081L38.2092 74.1599L38.2039 74.1897C38.1938 74.2428 38.179 74.3074 38.1601 74.3776C38.1066 74.5755 38.0317 74.7768 37.9351 74.9622L37.9156 74.9989C37.6664 75.4588 37.3326 75.7234 36.89 75.7401L36.8548 75.7409C36.4059 75.7445 36.4086 76.4169 36.8575 76.4169ZM49.7862 69.9955C49.9955 70.3335 50.1487 70.6981 50.2535 71.0628C50.2901 71.1901 50.318 71.308 50.3382 71.4129L50.353 71.4957L50.3586 71.5337C50.3977 71.8555 50.8201 71.9402 50.983 71.6686L50.9928 71.6512C51.8283 70.074 54.57 70.3634 55.6584 72.1006C55.8035 72.3323 55.8846 72.5769 55.908 72.8363C55.9657 73.4771 55.6726 74.1986 55.139 74.9269C54.9639 75.1658 54.7758 75.3874 54.5879 75.5854L54.5556 75.6193L54.4936 75.6828C54.4735 75.7031 54.4541 75.7224 54.4353 75.7408L38.231 75.7407L38.2337 75.7376C38.3457 75.6003 38.4459 75.445 38.5348 75.2744C38.6557 75.0422 38.7472 74.7961 38.8127 74.5541C38.8362 74.4671 38.8548 74.3857 38.8681 74.3158L38.8754 74.2755C38.8775 74.2629 38.8793 74.2514 38.8807 74.241L38.883 74.2233L38.8853 74.1981L38.8858 74.1594L38.8851 74.1459L38.8835 74.0432C38.8739 72.9679 39.0854 72.279 39.4608 71.9187C39.7686 71.6233 40.2105 71.5353 40.7768 71.6321C41.1805 71.7012 41.6216 71.8606 42.0725 72.0835C42.2941 72.193 42.5033 72.3106 42.6932 72.428L42.7689 72.4756C42.781 72.4832 42.7927 72.4907 42.8041 72.4981L42.8827 72.5498L42.9271 72.5802C43.1554 72.7417 43.4668 72.5718 43.4603 72.2975L43.4573 72.2392C43.4498 72.0538 43.4571 71.8117 43.4909 71.5348C43.5407 71.1273 43.6397 70.7269 43.798 70.3554C44.2506 69.2938 45.1065 68.6227 46.5143 68.4996L46.5732 68.4948C48.1153 68.3776 49.1401 68.9523 49.7862 69.9955Z" fill="#000091"/>
<path fill-rule="evenodd" clip-rule="evenodd" d="M140.677 79.538C140.864 79.538 141.015 79.6894 141.015 79.8761C141.015 80.0561 140.875 80.2032 140.697 80.2135L140.677 80.2141H0.846237C0.65955 80.2141 0.508209 80.0627 0.508209 79.8761C0.508209 79.696 0.648933 79.5489 0.826376 79.5386L0.846237 79.538H140.677Z" fill="#000091"/>
</svg>
