<svg width="195" height="132" viewBox="0 0 195 132" fill="none" xmlns="http://www.w3.org/2000/svg">
<path d="M190.42 56.0674L95.0791 56.7624C93.5628 56.7736 92.1872 57.6467 91.5378 59.011L60.7893 121.755L0.453442 121.813C0.453442 121.813 -0.891727 130.604 10.3639 131.151L56.2563 131.005L56.1252 131.273L161.107 130.907L194.02 61.6769C195.263 59.0575 193.331 56.0449 190.42 56.0658V56.0674Z" fill="#6A6AF3"/>
<path d="M154.262 130.447C154.193 130.447 154.123 130.432 154.055 130.4C153.815 130.286 153.715 129.999 153.828 129.758L186.245 61.4715C186.754 60.3993 186.679 59.1619 186.042 58.1587C185.402 57.1492 184.305 56.5489 183.107 56.5489C183.097 56.5489 183.088 56.5489 183.076 56.5489C182.813 56.5489 182.598 56.3354 182.597 56.0706C182.595 55.8042 182.808 55.5875 183.073 55.5859C184.62 55.5763 186.028 56.3435 186.851 57.6419C187.665 58.9259 187.763 60.5117 187.11 61.8856L154.694 130.172C154.612 130.345 154.439 130.447 154.26 130.447H154.262Z" fill="white"/>
<path d="M70.8215 118.778L149.667 118.38C152.432 118.364 154.95 116.79 156.164 114.318L179.911 64.2545C180.932 62.2017 179.347 59.8408 176.962 59.8584L98.8221 60.4282C97.5793 60.4378 96.4517 61.1232 95.919 62.1921L68.4335 114.992C67.5697 116.746 68.8605 118.791 70.8215 118.78V118.778Z" fill="white"/>
<path d="M83.8284 107.283H113.088C115.271 107.283 118.037 105.522 119.265 103.349L135.434 74.7609C136.663 72.5877 135.89 70.8271 133.707 70.8271H103.233C101.05 70.8271 98.2846 72.5877 97.0561 74.7609L82.1009 103.349C80.8725 105.522 81.6451 107.283 83.8284 107.283Z" fill="#2E186A"/>
<path d="M71.3971 58.2342C70.6726 58.9067 69.9032 59.6305 69.1035 60.3913L71.3971 58.2342Z" fill="#FF8C7E"/>
<path d="M98.4173 99.3047C98.4173 99.3047 102.515 102.76 104.391 104.447C104.499 104.749 104.657 104.988 104.871 105.155C107.546 107.238 111.007 107.283 115.167 105.978C117.202 105.339 118.908 103.94 119.911 102.065L135.282 73.3341C135.81 72.3486 135.279 71.1304 134.196 70.8399L129.367 69.5398C122.558 66.89 117.099 56.2632 117.099 56.2632C129.26 52.0934 138.779 40.9162 138.779 40.9162C138.779 40.9162 139.484 35.9118 135.605 24.5676C131.728 13.2234 127.498 10.8881 124.502 11.7227C121.506 12.5573 113.398 16.5602 116.218 20.2309C119.038 23.9015 123.093 36.5794 123.093 36.5794C110.402 38.7478 99.1083 43.5018 99.1083 43.5018L85.3735 48.9251C85.3735 48.9251 79.5578 50.9266 73.7404 56.0979C73.0382 56.7223 72.2481 57.4429 71.3956 58.2326L58.9852 56.0257L47.7184 39.1378L42.1761 40.5438L47.8575 70.8255C47.8575 70.8255 47.8239 80.0944 78.4397 77.6596L98.4157 99.3031L98.4173 99.3047Z" fill="#FF8C7E"/>
<path d="M77.0372 49.0712C77.0372 49.0712 77.0276 49.0712 77.0228 49.0712C75.2105 49.0167 73.7918 46.8274 73.7918 44.0861C73.7918 42.7106 74.1661 41.3865 74.8171 40.4539C74.969 40.2357 75.2681 40.1827 75.4857 40.3368C75.7032 40.4893 75.7544 40.7894 75.6024 41.0077C75.0618 41.7829 74.7499 42.9048 74.7499 44.0877C74.7499 46.2304 75.804 48.0729 77.05 48.1098C77.3155 48.1179 77.5234 48.3393 77.5154 48.6058C77.5074 48.8674 77.2947 49.0728 77.0356 49.0728L77.0372 49.0712Z" fill="#FE7624"/>
<path d="M96.1269 38.5632C95.9686 38.5632 95.8102 38.5472 95.6567 38.5135C95.3976 38.4589 95.2312 38.2037 95.2856 37.9437C95.34 37.6837 95.5943 37.5168 95.8534 37.5713C95.943 37.5906 96.0358 37.6002 96.1269 37.6002C97.3953 37.6002 98.467 35.7577 98.467 33.5781C98.467 33.0115 98.3982 32.4642 98.2622 31.949C98.1935 31.6922 98.347 31.429 98.6029 31.36C98.8589 31.2909 99.1212 31.445 99.1899 31.7018C99.3483 32.2973 99.4283 32.9297 99.4283 33.5781C99.4283 36.374 97.9791 38.5632 96.1285 38.5632H96.1269Z" fill="#FE7624"/>
<path d="M93.4831 40.7509L95.3481 45.5177L99.3005 43.42C99.6971 43.8854 106.119 52.0517 97.453 55.2906C91.7669 57.4156 85.4729 54.6181 81.7157 51.0646L85.2937 48.8947L81.4902 40.9386L93.4831 40.7509Z" fill="white"/>
<path d="M93.2862 56.5056C91.8003 56.5056 90.2616 56.2584 88.7149 55.7657C86.0597 54.9198 83.4574 53.3742 81.386 51.4145C81.2773 51.3118 81.2229 51.1625 81.2373 51.0133C81.2533 50.864 81.3381 50.7308 81.466 50.6521L84.6714 48.7085L81.055 41.1457C80.9846 40.998 80.9942 40.8231 81.0789 40.6834C81.1637 40.5438 81.3157 40.4571 81.4788 40.4555L93.4718 40.2677C93.6653 40.2661 93.8524 40.3865 93.926 40.5727L95.5943 44.8388L99.0716 42.993C99.2699 42.8871 99.5146 42.9353 99.6602 43.1054C99.9241 43.4152 100.753 44.521 101.418 45.9126C102.383 47.9284 102.666 49.7501 102.258 51.3278C101.751 53.294 100.188 54.7786 97.616 55.74C96.2533 56.2488 94.7945 56.504 93.283 56.504L93.2862 56.5056ZM82.5137 51.1417C86.2533 54.4271 92.1186 56.7688 97.2833 54.838C99.545 53.9921 100.906 52.7306 101.33 51.0871C102.064 48.243 99.9001 45.0186 99.1659 44.0331L95.5687 45.943C95.4471 46.0072 95.3064 46.0169 95.1768 45.9687C95.0489 45.9206 94.9465 45.8211 94.8969 45.6927L93.1535 41.2356L82.2418 41.4057L85.7223 48.6844C85.8294 48.9075 85.7494 49.1771 85.5383 49.3055L82.5105 51.1401L82.5137 51.1417Z" fill="#2E186A"/>
<path d="M76.5619 40.9178C78.2164 40.9178 79.5577 39.648 79.5577 38.0817C79.5577 36.5154 78.2164 35.2457 76.5619 35.2457C74.9073 35.2457 73.566 36.5154 73.566 38.0817C73.566 39.648 74.9073 40.9178 76.5619 40.9178Z" fill="white"/>
<path d="M76.5617 41.3993C74.6455 41.3993 73.086 39.9114 73.086 38.0817C73.086 36.252 74.6455 34.7642 76.5617 34.7642C78.4779 34.7642 80.0374 36.252 80.0374 38.0817C80.0374 39.9114 78.4779 41.3993 76.5617 41.3993ZM76.5617 35.7272C75.1734 35.7272 74.0457 36.7833 74.0457 38.0817C74.0457 39.3802 75.175 40.4363 76.5617 40.4363C77.9485 40.4363 79.0777 39.3802 79.0777 38.0817C79.0777 36.7833 77.9485 35.7272 76.5617 35.7272Z" fill="#2E186A"/>
<path d="M94.7158 31.2412C96.3703 31.2412 97.7116 29.9714 97.7116 28.4051C97.7116 26.8388 96.3703 25.5691 94.7158 25.5691C93.0612 25.5691 91.7199 26.8388 91.7199 28.4051C91.7199 29.9714 93.0612 31.2412 94.7158 31.2412Z" fill="white"/>
<path d="M94.7162 31.7227C92.8 31.7227 91.2405 30.2348 91.2405 28.4051C91.2405 26.5754 92.8 25.0876 94.7162 25.0876C96.6324 25.0876 98.1918 26.5754 98.1918 28.4051C98.1918 30.2348 96.6324 31.7227 94.7162 31.7227ZM94.7162 26.0506C93.3278 26.0506 92.2002 27.1067 92.2002 28.4051C92.2002 29.7036 93.3294 30.7597 94.7162 30.7597C96.1029 30.7597 97.2322 29.7036 97.2322 28.4051C97.2322 27.1067 96.1029 26.0506 94.7162 26.0506Z" fill="#2E186A"/>
<path d="M92.7376 42.3685C96.9104 39.235 97.0472 32.3424 93.0431 26.9736C89.0391 21.6048 82.4105 19.7927 78.2377 22.9263C74.0649 26.0599 73.9281 32.9524 77.9321 38.3212C81.9362 43.69 88.5648 45.5021 92.7376 42.3685Z" fill="white"/>
<path d="M87.9631 44.3733C83.9212 44.3733 79.5146 41.8358 76.8194 37.5424C74.7593 34.2602 74.0443 30.5318 74.8601 27.3137C75.4631 24.9319 76.8306 23.0846 78.814 21.9691C83.5885 19.2839 90.4679 21.8728 94.1499 27.7391C96.21 31.0213 96.9234 34.7497 96.1092 37.9678C95.5062 40.3496 94.1387 42.197 92.1553 43.3124C90.8757 44.0315 89.4442 44.3733 87.9631 44.3733ZM83.027 21.8631C81.7011 21.8631 80.4247 22.1665 79.2842 22.8085C77.536 23.7924 76.3268 25.4311 75.791 27.5513C75.0408 30.5141 75.711 33.9697 77.632 37.0288C81.0469 42.4682 87.3521 44.911 91.6867 42.473C93.4349 41.4892 94.6441 39.8504 95.1799 37.7302C95.9301 34.7674 95.2599 31.3118 93.3389 28.2527C90.8229 24.245 86.7379 21.8648 83.027 21.8648V21.8631Z" fill="#2E186A"/>
<path d="M89.0335 40.3207C87.8403 40.3207 86.6614 39.7172 85.601 38.536C85.3403 38.2454 85.2667 37.8394 85.409 37.475C85.553 37.1059 85.8889 36.8539 86.2856 36.8186C88.5488 36.6164 89.7628 35.6116 90.3818 34.8043C90.6106 34.5058 90.9704 34.3597 91.3463 34.4143C91.7158 34.4689 92.0293 34.7176 92.1637 35.0659C93.0178 37.2857 92.49 39.0544 90.7145 39.9163C90.1579 40.1859 89.5949 40.3207 89.0335 40.3207ZM91.1432 35.3918C90.4058 36.3515 88.9807 37.5457 86.3719 37.7784C86.3383 37.7816 86.3143 37.7977 86.3031 37.8265C86.2887 37.8619 86.3063 37.8811 86.3159 37.8907C87.1989 38.873 88.6064 39.8713 90.2971 39.0496C91.6214 38.4059 91.9493 37.1813 91.2696 35.4126C91.26 35.3869 91.2392 35.3725 91.2104 35.3677C91.1704 35.3613 91.1496 35.3853 91.1448 35.3918H91.1432Z" fill="#2E186A"/>
<path d="M87.5026 35.3484C87.3283 35.3484 87.1603 35.2537 87.0756 35.0868C86.954 34.8509 87.0468 34.5604 87.2835 34.4384L88.6687 33.7241L85.5401 30.0519C85.3673 29.8497 85.3913 29.5463 85.5928 29.373C85.7944 29.1996 86.0967 29.2237 86.2694 29.4259L89.7915 33.5604C89.8875 33.6728 89.9259 33.8221 89.8971 33.9665C89.8683 34.111 89.7755 34.2345 89.6459 34.3019L87.7202 35.2938C87.6498 35.3308 87.5746 35.3468 87.501 35.3468L87.5026 35.3484Z" fill="#2E186A"/>
<path d="M79.6569 30.5462C79.5945 30.5462 79.5321 30.5334 79.4714 30.5077C79.2266 30.405 79.1131 30.1225 79.2154 29.8769C79.5577 29.0584 80.6518 27.6412 82.3328 28.1339C82.5872 28.2077 82.7343 28.4758 82.6591 28.731C82.584 28.9862 82.3184 29.1322 82.0641 29.0584C81.5283 28.9011 81.0564 29.0391 80.6262 29.4789C80.2791 29.8336 80.1016 30.2461 80.1 30.2493C80.0232 30.4339 79.844 30.5446 79.6569 30.5446V30.5462Z" fill="#2E186A"/>
<path d="M86.0389 27.02C85.9189 27.02 85.7974 26.9751 85.7046 26.8836C85.5142 26.6974 85.511 26.3941 85.695 26.2031C86.3188 25.5595 87.8655 24.6125 89.2522 25.6381C89.465 25.7954 89.5114 26.0971 89.353 26.3122C89.1947 26.5273 88.8956 26.5706 88.6812 26.4133C87.616 25.6237 86.394 26.8611 86.3828 26.874C86.2884 26.9703 86.1636 27.02 86.0389 27.02Z" fill="#2E186A"/>
<path d="M83.1182 33.4207C83.4819 33.2576 83.5813 32.6865 83.3401 32.1451C83.099 31.6037 82.6087 31.297 82.245 31.4601C81.8812 31.6232 81.7818 32.1944 82.023 32.7358C82.2641 33.2772 82.7544 33.5838 83.1182 33.4207Z" fill="#2E186A"/>
<path d="M89.9362 30.6194C90.2792 30.4194 90.3154 29.8398 90.0171 29.3248C89.7189 28.8097 89.1991 28.5543 88.8562 28.7543C88.5132 28.9542 88.477 29.5339 88.7753 30.0489C89.0735 30.5639 89.5933 30.8193 89.9362 30.6194Z" fill="#2E186A"/>
<path d="M70.4807 22.8839C72.8399 19.6338 71.0693 7.09549 60.1368 1.78452C49.07 -3.59225 44.6602 6.89968 43.79 9.57201C42.9199 12.2443 43.6557 18.5937 52.7984 21.9081C61.941 25.2224 67.7871 26.5963 70.4823 22.8839H70.4807Z" fill="#2E186A"/>
<path d="M72.9921 27.2174L69.5787 25.0089C68.3567 24.2177 68.0432 22.64 68.8782 21.4828L69.0189 21.2885C69.8539 20.1313 71.5221 19.8344 72.7441 20.6257L76.1574 22.8342L72.9921 27.2174Z" fill="#FF8C7E"/>
<path d="M94.716 21.3993C94.716 21.3993 92.707 10.1899 77.5855 19.9628C75.0855 21.3495 72.5903 24.184 71.6274 27.2383C70.1351 31.9667 73.39 39.0833 76.7393 38.0817C77.0129 37.9999 77.2848 37.902 77.5551 37.7896C77.4431 37.6243 77.3328 37.4574 77.2256 37.2873C76.8369 36.6693 76.5042 36.0386 76.2211 35.403C79.7064 31.8126 77.0672 25.6831 76.7953 25.1342C78.0397 25.4214 79.4201 25.8933 79.756 27.3779L89.4425 23.5067C91.0835 24.6189 92.5791 26.1357 93.7467 27.9959C93.7611 28.0199 93.7755 28.044 93.7899 28.0681C94.0698 26.3973 93.1789 24.4247 91.4498 22.7058L94.7192 21.3993H94.716Z" fill="#2E186A"/>
<path d="M121.215 8.65554C120.785 7.7792 119.729 5.49689 119.841 4.4103C119.987 2.99308 118.859 1.96427 118.088 3.74422C117.317 5.52417 118.029 7.59623 118.029 7.59623" fill="white"/>
<path d="M121.215 9.13705C121.037 9.13705 120.868 9.03914 120.785 8.86901C120.203 7.68452 119.244 5.52418 119.364 4.36216C119.428 3.7362 119.184 3.32051 119.04 3.28199C118.985 3.26915 118.763 3.39594 118.528 3.93683C117.843 5.51776 118.475 7.4213 118.482 7.44056C118.566 7.69254 118.434 7.96539 118.182 8.05206C117.933 8.13873 117.659 8.00552 117.573 7.75353C117.541 7.66205 116.81 5.48245 117.647 3.55323C118.219 2.23071 118.982 2.27244 119.281 2.35108C119.977 2.53406 120.422 3.44088 120.318 4.46167C120.251 5.1149 120.759 6.64126 121.645 8.44369C121.762 8.68283 121.664 8.97013 121.428 9.0889C121.359 9.1226 121.287 9.13865 121.217 9.13865L121.215 9.13705Z" fill="#2E186A"/>
<path d="M118.341 13.8381L121.202 18.5937C123.309 18.0657 125.466 16.7993 126.728 14.4448C124.539 11.6714 120.865 7.12758 120.097 6.88523C117.982 6.21754 114.753 6.41817 114.116 6.61238C112.763 7.02486 113.481 7.84984 114.897 7.96058C116.253 8.06812 118.705 8.2864 118.705 8.2864C116.586 8.32813 113.95 8.49023 113.552 8.75666C112.944 9.16112 113.457 10.3248 114.895 10.2573L118.992 10.1996C118.992 10.1996 114.392 10.6891 113.838 10.9282C113.283 11.1674 113.341 12.7371 116.172 12.278C119.004 11.819 119.198 12.0052 119.198 12.0052C119.198 12.0052 115.769 12.7242 115.113 13.0228C114.457 13.3197 115.102 14.9905 118.339 13.8397L118.341 13.8381Z" fill="white"/>
<path d="M121.202 19.0752C121.037 19.0752 120.879 18.9886 120.791 18.8425L118.128 14.4175C115.204 15.3275 114.547 13.9344 114.479 13.7659C114.339 13.416 114.404 13.0484 114.623 12.7997C113.497 12.6263 113.201 11.9779 113.128 11.7275C112.979 11.2123 113.201 10.6778 113.648 10.4852C113.651 10.4836 113.656 10.482 113.661 10.4804C113.256 10.2621 112.99 9.93312 112.882 9.59768C112.723 9.11296 112.882 8.62504 113.286 8.3554C113.381 8.29281 113.541 8.23663 113.75 8.18688C113.265 7.97662 112.963 7.65562 112.922 7.27363C112.89 6.98473 112.986 6.45508 113.979 6.15333C114.662 5.94468 117.971 5.71035 120.244 6.42779C120.524 6.51607 121.271 6.752 127.107 14.1479C127.226 14.2987 127.245 14.5058 127.154 14.6743C125.986 16.8539 123.915 18.4124 121.32 19.0624C121.282 19.072 121.242 19.0768 121.204 19.0768L121.202 19.0752ZM118.339 13.3566C118.504 13.3566 118.661 13.4417 118.75 13.5893L121.426 18.0336C123.486 17.4349 125.145 16.191 126.153 14.4897C121.05 8.03922 120.086 7.40203 119.943 7.34104C117.894 6.69422 114.782 6.9125 114.256 7.073C114.104 7.11955 114.006 7.16449 113.945 7.1998C114.089 7.2977 114.411 7.44055 114.934 7.48067C116.277 7.5866 118.723 7.80328 118.747 7.80649C119.001 7.82896 119.193 8.04724 119.184 8.30244C119.176 8.55763 118.969 8.76147 118.713 8.76789C116.066 8.82085 114.102 9.01506 113.801 9.16593C113.797 9.17075 113.758 9.19642 113.79 9.29915C113.859 9.5078 114.203 9.80793 114.87 9.77583L118.982 9.71805C119.243 9.71324 119.452 9.91386 119.468 10.1707C119.484 10.4275 119.296 10.6506 119.04 10.6778C116.877 10.909 114.452 11.2235 114.046 11.3632C114.036 11.3873 114.028 11.445 114.075 11.5205C114.23 11.7773 114.852 12.0052 116.093 11.8046C119.161 11.307 119.374 11.5108 119.527 11.6601C119.655 11.7837 119.705 11.9683 119.657 12.14C119.607 12.3117 119.468 12.4417 119.294 12.4787C118.046 12.7403 115.951 13.217 115.38 13.4336C115.401 13.4673 115.439 13.5139 115.513 13.562C115.689 13.6808 116.404 14.0179 118.178 13.3871C118.23 13.3678 118.285 13.3598 118.337 13.3598L118.339 13.3566Z" fill="#2E186A"/>
<path d="M77.0914 49.0728C77.069 49.0728 77.045 49.0728 77.0226 49.0728C76.7571 49.0648 76.5491 48.8433 76.5571 48.5769C76.5651 48.3169 76.7779 48.1098 77.037 48.1098C77.0418 48.1098 77.0466 48.1098 77.0514 48.1098H77.0914C78.3598 48.1098 79.4314 46.2689 79.4314 44.0877C79.4314 41.9065 78.3598 40.0655 77.0914 40.0655C76.8259 40.0655 76.6115 39.8504 76.6115 39.584C76.6115 39.3176 76.8259 39.1025 77.0914 39.1025C78.942 39.1025 80.3911 41.2917 80.3911 44.0877C80.3911 46.8836 78.942 49.0728 77.0914 49.0728Z" fill="#FE7624"/>
<path d="M98.7245 32.3053C98.5117 32.3053 98.3182 32.1625 98.2606 31.9474C97.8815 30.5157 97.0242 29.5543 96.1253 29.5543C95.8598 29.5543 95.6454 29.3393 95.6454 29.0728C95.6454 28.8064 95.8598 28.5913 96.1253 28.5913C97.4849 28.5913 98.6877 29.8111 99.1883 31.7002C99.2571 31.957 99.1035 32.2203 98.8476 32.2893C98.806 32.3005 98.7644 32.3053 98.7245 32.3053Z" fill="#FE7624"/>
<path d="M113.09 107.765H83.8301C82.6929 107.765 81.8164 107.333 81.3621 106.551C80.8407 105.652 80.9574 104.399 81.6852 103.113L87.9776 91.0838C88.1008 90.8479 88.3903 90.758 88.6254 90.8816C88.8605 91.0052 88.9501 91.2957 88.8269 91.5316L82.5265 103.576C81.9651 104.569 81.8452 105.473 82.1906 106.068C82.4658 106.543 83.048 106.803 83.8285 106.803H113.088C115.113 106.803 117.698 105.148 118.848 103.113L135.017 74.525C135.57 73.5459 135.69 72.6423 135.345 72.0468C135.07 71.5718 134.487 71.3118 133.707 71.3118C133.441 71.3118 133.227 71.0967 133.227 70.8303C133.227 70.5638 133.441 70.3488 133.707 70.3488C134.844 70.3488 135.721 70.7805 136.175 71.5621C136.696 72.4609 136.58 73.7144 135.852 75.0001L119.683 103.588C118.358 105.93 115.462 107.766 113.088 107.766L113.09 107.765Z" fill="#2E186A"/>
<path d="M67.7406 40.7461L30.1879 41.8038C30.1879 41.8038 35.4614 73.3469 23.2253 89.8592L59.9127 89.7886C59.9127 89.7886 70.9956 80.4041 67.739 40.7461H67.7406Z" fill="white"/>
<path d="M23.2254 90.3407C23.0447 90.3407 22.8783 90.238 22.7967 90.0759C22.7152 89.9138 22.7312 89.718 22.8399 89.5719C29.0843 81.144 30.623 68.6378 30.815 59.6289C31.0229 49.8384 29.7273 41.9626 29.7145 41.884C29.6921 41.746 29.7289 41.6063 29.8169 41.4988C29.9049 41.3913 30.036 41.3271 30.1736 41.3238L67.7263 40.2661C67.9807 40.2597 68.1966 40.4523 68.2174 40.7075C69.1499 52.0597 69.4362 68.1403 65.503 80.2886C63.1246 87.6379 60.3383 90.0582 60.2215 90.1578C60.1352 90.2316 60.0264 90.2717 59.9128 90.2717L23.2254 90.3423V90.3407ZM30.7446 42.2708C31.0325 44.2321 31.9538 51.2492 31.7747 59.6498C31.6515 65.4599 31.0357 70.7901 29.9433 75.4944C28.6621 81.0076 26.7203 85.6718 24.1627 89.3761L59.7225 89.3071C60.2711 88.7598 62.6176 86.1549 64.6345 79.8552C68.4221 68.0295 68.1886 52.4193 67.2977 41.2388L30.7446 42.2692V42.2708Z" fill="#2E186A"/>
<path d="M40.0507 41.7042C41.6629 43.8935 44.9659 44.6751 44.9659 44.6751C46.1735 47.7728 49.3373 48.1515 49.1421 47.4855C48.947 46.8178 46.431 43.184 46.431 43.184C46.431 43.184 46.6901 43.2001 48.1569 45.5691C49.6252 47.9381 51.9556 48.2687 51.7813 47.7118C51.6069 47.1548 48.4975 42.0557 48.4975 42.0557L52.3555 46.4839C53.2688 47.5513 54.4556 47.1532 54.3421 46.4566C54.2685 46.0008 51.3142 42.4329 49.9787 40.8568C49.9787 40.8568 53.3456 44.0219 54.4732 44.7297C55.6009 45.4359 56.0919 44.3814 55.7544 43.8293C55.4169 43.2771 51.7397 37.9068 45.828 35.5843C45.828 35.5843 42.7906 34.0516 40.7544 37.1316C38.7183 40.21 40.0475 41.7058 40.0475 41.7058L40.0507 41.7042Z" fill="white"/>
<path d="M51.4356 48.4276C50.943 48.4276 50.276 48.2045 49.5946 47.7535C49.5275 47.9445 49.3659 48.1018 49.1356 48.1804C48.2831 48.4725 45.7735 47.7519 44.6122 45.0795C43.7917 44.8484 41.1286 43.9705 39.6714 42.0011C39.4859 41.7732 38.2527 40.0446 40.356 36.8635C42.1426 34.1623 44.8314 34.5523 46.0246 35.143C52.4193 37.6644 56.1301 43.5179 56.1653 43.5773C56.4596 44.0588 56.3797 44.7216 55.9798 45.1181C55.8182 45.2802 55.212 45.7585 54.222 45.1373C54.1276 45.0779 54.0188 45.0025 53.8989 44.9158C54.4779 45.6911 54.7866 46.1806 54.8186 46.3796C54.8937 46.8467 54.6506 47.2832 54.1996 47.4935C53.6269 47.7599 52.7216 47.6492 51.9939 46.7969L51.6228 46.37C51.9523 46.9526 52.189 47.4004 52.2402 47.5641C52.3394 47.8803 52.1954 48.1997 51.8899 48.3393C51.7667 48.3955 51.6132 48.4244 51.4373 48.4244L51.4356 48.4276ZM46.4309 42.7025C46.4405 42.7025 46.4517 42.7025 46.4613 42.7025C46.6868 42.717 46.9667 42.7346 48.5646 45.3139C49.4187 46.691 50.5048 47.2431 51.0998 47.4068C50.5831 46.455 49.2827 44.2658 48.0879 42.3061C47.9584 42.0926 48.0127 41.815 48.2127 41.6673C48.4142 41.5196 48.6941 41.5501 48.8589 41.7379L52.7168 46.1661C53.1471 46.6685 53.595 46.7118 53.7933 46.6187C53.8493 46.5931 53.8653 46.569 53.8701 46.5513C53.6573 46.0955 51.8515 43.8084 49.6154 41.1665C49.4507 40.9723 49.4667 40.6818 49.6506 40.5069C49.8346 40.3303 50.1241 40.3303 50.3096 40.5037C50.3432 40.5358 53.6557 43.6447 54.7306 44.3188C54.9353 44.4472 55.1928 44.5435 55.3048 44.4327C55.3864 44.3509 55.4072 44.1759 55.348 44.078C55.3144 44.0219 51.6724 38.3931 45.6567 36.0289C45.6423 36.0241 45.6295 36.0177 45.6167 36.0113C45.5096 35.9583 42.9264 34.7192 41.159 37.3932C39.3819 40.08 40.3736 41.3351 40.4168 41.388C40.4264 41.3993 40.4296 41.4041 40.4392 41.4169C41.9251 43.4344 45.0473 44.1968 45.0793 44.2048C45.2328 44.2417 45.3592 44.3509 45.4152 44.4985C46.1797 46.4615 47.7904 47.1789 48.5198 47.2768C48.1103 46.5369 47.0387 44.9014 46.0406 43.4585C45.935 43.306 45.927 43.1086 46.0166 42.9465C46.1014 42.794 46.2613 42.7009 46.4341 42.7009L46.4309 42.7025Z" fill="#2E186A"/>
<path d="M52.3713 82.3157C52.2241 82.3157 52.0865 82.2483 51.9954 82.1327L50.1336 79.775C49.9688 79.5663 50.004 79.263 50.2119 79.0992C50.4199 78.9339 50.7222 78.9692 50.8853 79.1779L52.3697 81.0574L55.5126 77.0432C55.6758 76.8346 55.9781 76.7977 56.186 76.9614C56.394 77.1251 56.4308 77.4284 56.2676 77.6371L52.7487 82.1311C52.6576 82.2467 52.52 82.3141 52.3729 82.3157H52.3713Z" fill="white"/>
<path d="M151.554 86.9124L145.162 79.9146C144.617 79.3159 143.633 79.4748 143.304 80.2147L138.99 89.9154C138.611 90.7677 139.385 91.6809 140.294 91.4514L143.931 90.5333L144.334 97.2246C144.391 98.1748 145.286 98.8521 146.221 98.6514L148.883 98.0833C149.801 97.8875 150.34 96.9357 150.033 96.0529L147.774 89.5607L150.999 88.747C151.821 88.5399 152.123 87.5352 151.554 86.9108V86.9124Z" fill="#2E186A"/>
</svg>
