<?xml version="1.0" encoding="UTF-8"?>
<svg width="60" height="60" viewBox="0 0 211 211" xmlns="http://www.w3.org/2000/svg">
<path d="m105.5 211c58.266 0 105.5-47.234 105.5-105.5s-47.234-105.5-105.5-105.5-105.5 47.234-105.5 105.5 47.234 105.5 105.5 105.5z" fill="#EDEDED"/>
<path d="m134.8 98.4c2.485 0 4.5-2.0147 4.5-4.5s-2.015-4.5-4.5-4.5c-2.195 0-4.5 2.0147-4.5 4.5s2.015 4.5 4.5 4.5z"/>
<path d="m145.1 55.7h-5.8v-4.5c0-2.5-2-4.5-4.5-4.5s-4.5 2-4.5 4.5v4.5h-20.4v-4.5c0-2.5-2-4.5-4.5-4.5s-4.5 2-4.5 4.5v4.5h-20.2v-4.5c0-2.5-2-4.5-4.5-4.5s-4.5 2-4.5 4.5v4.5h-5.6c-9.9 0-18 8.1-18 18v70c0 9.9 8.1 18 18 18h34.3c2.5 0 4.5-2 4.5-4.5s-2-4.5-4.5-4.5h-34.3c-5 0-9-4-9-9v-70c0-5 4-9 9-9h5.6v4.5c0 2.5 2 4.5 4.5 4.5s4.5-2 4.5-4.5v-4.5h20.2v4.5c0 2.5 2 4.5 4.5 4.5s4.5-2 4.5-4.5v-4.5h20.4v4.5c0 2.5 2 4.5 4.5 4.5s4.5-2 4.5-4.5v-4.5h5.8c5 0 9 4 9 9v25.6c0 2.5 2 4.5 4.5 4.5s4.5-2 4.5-4.5v-25.6c0-9.9-8.1-18-18-18z"/>
<path d="m115.3 98.4c2.485 0 4.5-2.0147 4.5-4.5s-2.015-4.5-4.5-4.5-4.5 2.0147-4.5 4.5 2.015 4.5 4.5 4.5z"/>
<path d="m96.1 120.3c3.8108 0 6.9001-3.089 6.9001-6.9s-3.0893-6.9-6.9001-6.9c-3.8107 0-6.8999 3.089-6.8999 6.9s3.0892 6.9 6.8999 6.9z" fill="#4B2CC8"/>
<path d="m76.2 98.4c2.4852 0 4.5-2.0147 4.5-4.5s-2.0148-4.5-4.5-4.5c-2.4853 0-4.5 2.0147-4.5 4.5s2.0147 4.5 4.5 4.5z"/>
<path d="m76.2 117.9c2.4852 0 4.5-2.015 4.5-4.5s-2.0148-4.5-4.5-4.5c-2.4853 0-4.5 2.015-4.5 4.5s2.0147 4.5 4.5 4.5z"/>
<path d="m76.2 137.4c2.4852 0 4.5-2.015 4.5-4.5s-2.0148-4.5-4.5-4.5c-2.4853 0-4.5 2.015-4.5 4.5s2.0147 4.5 4.5 4.5z"/>
<path d="m95.7 137.4c2.4852 0 4.5-2.015 4.5-4.5s-2.0148-4.5-4.5-4.5c-2.4853 0-4.5 2.015-4.5 4.5s2.0147 4.5 4.5 4.5z"/>
<path d="m95.7 98.4c2.4852 0 4.5-2.0147 4.5-4.5s-2.0148-4.5-4.5-4.5c-2.4853 0-4.5 2.0147-4.5 4.5s2.0147 4.5 4.5 4.5z"/>
<path d="m166.2 121.8c-11.6-11.6-30.4-11.6-42 0s-11.6 30.4 0 42 30.4 11.6 42 0c5.6-5.6 8.7-13.1 8.7-21s-3.1-15.4-8.7-21z" fill="#74FAB6"/>
<path d="m160 154.3-1.5 1.5c-1.9 2-4.8 2.8-7.5 2.1s-5.3-1.9-7.6-3.4c-2.2-1.4-4.2-3-6-4.9-1.7-1.7-3.2-3.5-4.5-5.5-1.4-2.1-2.6-4.4-3.4-6.9-0.9-2.9-0.2-6 2-8.1l1.8-1.8c0.5-0.5 1.3-0.5 1.8 0l5.6 5.6c0.5 0.5 0.5 1.3 0 1.8l-3.3 3.3c-0.9 0.9-1.1 2.4-0.3 3.5 1.2 1.6 2.5 3.1 3.9 4.6 1.6 1.6 3.3 3 5.2 4.3 1.1 0.7 2.5 0.6 3.4-0.3l3.2-3.2c0.5-0.5 1.3-0.5 1.8 0l5.6 5.6c0.3 0.5 0.3 1.3-0.2 1.8z"/>
</svg>
