<svg id="PE_Maintenant-H" xmlns="http://www.w3.org/2000/svg" width="156.37" height="61.137" viewBox="0 0 156.37 61.137">
  <rect id="Rectangle_106" data-name="Rectangle 106" width="46.199" height="10.581" transform="translate(69.298 43.64)" fill="#04c0c7"/>
  <g id="Groupe_2714" data-name="Groupe 2714" transform="translate(73.171 45.23)">
    <path id="Tracé_9829" data-name="Tracé 9829" d="M107.114,66H105.8v5.464h.9V69.527h.346a1.8,1.8,0,0,0,2.006-1.8A1.7,1.7,0,0,0,107.114,66Zm-.069,2.836h-.415V66.761h.346a.968.968,0,0,1,1.107,1.037C108.151,68.421,107.806,68.836,107.045,68.836Z" transform="translate(-105.8 -65.585)" fill="#fff"/>
    <path id="Tracé_9830" data-name="Tracé 9830" d="M113.067,68.1a1.664,1.664,0,0,0-1.314.553,2.153,2.153,0,0,0-.553,1.521,1.931,1.931,0,0,0,.622,1.522,1.722,1.722,0,0,0,1.314.484,1.931,1.931,0,0,0,1.383-.553,2.153,2.153,0,0,0,.553-1.522,2.279,2.279,0,0,0-.553-1.521A2.608,2.608,0,0,0,113.067,68.1Zm0,3.458c-.622,0-1.037-.553-1.037-1.383s.346-1.383,1.037-1.383c.622,0,1.037.553,1.037,1.383C114.1,70.936,113.759,71.558,113.067,71.558Z" transform="translate(-107.465 -66.233)" fill="#fff"/>
    <path id="Tracé_9831" data-name="Tracé 9831" d="M113.376,66.353l.484.692h.761l-.83-1.245h-.761l-.83,1.245h.761Z" transform="translate(-107.774 -65.523)" fill="#fff"/>
    <path id="Tracé_9832" data-name="Tracé 9832" d="M119.007,70.587c-.207,0-.277-.069-.277-.415V65.4h-.83v5.118a.732.732,0,0,0,.83.83,1.546,1.546,0,0,0,.692-.207l-.138-.622A.523.523,0,0,1,119.007,70.587Z" transform="translate(-109.532 -65.4)" fill="#fff"/>
    <path id="Tracé_9833" data-name="Tracé 9833" d="M122.229,68.1a1.83,1.83,0,0,0-1.729,2.006,1.921,1.921,0,0,0,1.936,2.075,2.494,2.494,0,0,0,1.383-.415l-.207-.553a1.588,1.588,0,0,1-.968.277,1.11,1.11,0,0,1-1.176-1.107h2.49v-.207C123.889,68.93,123.266,68.1,122.229,68.1Zm-.83,1.66a.84.84,0,1,1,1.66,0Z" transform="translate(-110.334 -66.233)" fill="#fff"/>
    <path id="Tracé_9834" data-name="Tracé 9834" d="M130.929,68.1a1.83,1.83,0,0,0-1.729,2.006,1.921,1.921,0,0,0,1.936,2.075,2.494,2.494,0,0,0,1.383-.415l-.208-.553a1.588,1.588,0,0,1-.968.277,1.11,1.11,0,0,1-1.176-1.107h2.49v-.207C132.589,68.93,131.966,68.1,130.929,68.1Zm-.83,1.66a.84.84,0,1,1,1.66,0Z" transform="translate(-113.017 -66.233)" fill="#fff"/>
    <path id="Tracé_9835" data-name="Tracé 9835" d="M139.865,68.1a2.084,2.084,0,0,0-1.383.622,1.043,1.043,0,0,0-1.037-.622,2.537,2.537,0,0,0-1.383.553l-.069-.415H135.3V72.18h.83V69.414a1.818,1.818,0,0,1,1.037-.484c.484,0,.622.346.622.83V72.18h.83V69.414a1.818,1.818,0,0,1,1.037-.484c.484,0,.553.346.553.83V72.18h.9V69.414A1.149,1.149,0,0,0,139.865,68.1Z" transform="translate(-114.898 -66.233)" fill="#fff"/>
    <path id="Tracé_9836" data-name="Tracé 9836" d="M146.652,68.1a3.859,3.859,0,0,0-1.452.277v5.74h.83V72.111a1.652,1.652,0,0,0,.622.138,2.037,2.037,0,0,0,2.075-2.075A1.925,1.925,0,0,0,146.652,68.1Zm-.069,3.389a1.628,1.628,0,0,1-.553-.138v-2.49a1.357,1.357,0,0,1,1.8,1.245C147.759,71,147.344,71.489,146.583,71.489Z" transform="translate(-117.951 -66.233)" fill="#fff"/>
    <path id="Tracé_9837" data-name="Tracé 9837" d="M152.507,70.587c-.207,0-.277-.069-.277-.415V65.4h-.83v5.118a.732.732,0,0,0,.83.83,1.546,1.546,0,0,0,.692-.207l-.138-.622A.523.523,0,0,1,152.507,70.587Z" transform="translate(-119.863 -65.4)" fill="#fff"/>
    <path id="Tracé_9838" data-name="Tracé 9838" d="M155.967,68.1a1.664,1.664,0,0,0-1.314.553,2.153,2.153,0,0,0-.553,1.521,1.931,1.931,0,0,0,.622,1.522,1.722,1.722,0,0,0,1.314.484,1.931,1.931,0,0,0,1.383-.553,2.153,2.153,0,0,0,.553-1.522,2.279,2.279,0,0,0-.553-1.521A2.608,2.608,0,0,0,155.967,68.1Zm0,3.458c-.622,0-1.037-.553-1.037-1.383s.346-1.383,1.037-1.383c.622,0,1.037.553,1.037,1.383C157,70.936,156.659,71.558,155.967,71.558Z" transform="translate(-120.696 -66.233)" fill="#fff"/>
    <path id="Tracé_9839" data-name="Tracé 9839" d="M161.153,66.807a.6.6,0,0,0,.553-.553.545.545,0,0,0-.553-.553.553.553,0,0,0,0,1.107Z" transform="translate(-122.701 -65.493)" fill="#fff"/>
    <rect id="Rectangle_107" data-name="Rectangle 107" width="0.83" height="3.942" transform="translate(38.038 2.006)" fill="#fff"/>
  </g>
  <path id="Tracé_9840" data-name="Tracé 9840" d="M58.786,32.793A29.393,29.393,0,1,1,29.393,3.4,29.368,29.368,0,0,1,58.786,32.793h0" transform="translate(0 -1.049)" fill="#182227"/>
  <g id="Groupe_2715" data-name="Groupe 2715" transform="translate(69.16 26.212)">
    <path id="Tracé_9841" data-name="Tracé 9841" d="M109.752,50.626V43.572a7.518,7.518,0,0,1,.069-1.245h0c-.138.346-.553.968-.692,1.245l-2.421,3.8h-1.176L102.9,43.5a8.819,8.819,0,0,1-.692-1.176h-.138a7.942,7.942,0,0,1,.069,1.245V50.7H100V38.8h2.006l3.25,4.772a8.635,8.635,0,0,1,.761,1.245h.069c.207-.346.415-.761.761-1.314l3.043-4.7h2.075V50.626Z" transform="translate(-100 -38.178)" fill="#21313b"/>
    <path id="Tracé_9842" data-name="Tracé 9842" d="M125.4,51.983l-.346-.761a3.6,3.6,0,0,1-2.49.968,2.613,2.613,0,0,1-2.766-2.766c0-1.729,1.383-2.7,3.527-2.766l1.521-.069v-.207c0-1.037-.692-1.452-1.591-1.452a4,4,0,0,0-2.213.622l-.692-1.383a5.584,5.584,0,0,1,3.32-.968c2.075,0,3.389.83,3.389,3.112V49.7a11.937,11.937,0,0,0,.138,2.213h-1.8Zm-.553-3.873-1.245.069c-1.176.069-1.66.415-1.66,1.176,0,.692.484,1.176,1.383,1.176a2.081,2.081,0,0,0,1.521-.553Z" transform="translate(-106.106 -39.535)" fill="#21313b"/>
    <path id="Tracé_9843" data-name="Tracé 9843" d="M134.614,40.528a1.272,1.272,0,0,1-1.314-1.314,1.36,1.36,0,0,1,1.314-1.314A1.33,1.33,0,0,1,136,39.214,1.373,1.373,0,0,1,134.614,40.528Zm-1.107,9.821V41.842h2.144v8.507Z" transform="translate(-110.27 -37.9)" fill="#21313b"/>
    <path id="Tracé_9844" data-name="Tracé 9844" d="M145.6,52.014V47.035c0-.9-.138-1.867-1.245-1.867a3.7,3.7,0,0,0-2.144.9v5.948H140V43.507h1.867l.208.9a4.792,4.792,0,0,1,2.974-1.107c1.314,0,2.7.761,2.7,3.043v5.671Z" transform="translate(-112.336 -39.565)" fill="#21313b"/>
    <path id="Tracé_9845" data-name="Tracé 9845" d="M156.6,51.2a1.811,1.811,0,0,1-2.075-2.006V44.15H153V42.559h1.521V40.622L156.665,40v2.628h2.628l-.622,1.591h-2.006v4.288c0,.692.277.968.83.968a3.014,3.014,0,0,0,1.452-.484l.553,1.383A6.221,6.221,0,0,1,156.6,51.2Z" transform="translate(-116.345 -38.548)" fill="#21313b"/>
    <path id="Tracé_9846" data-name="Tracé 9846" d="M165.644,48.38a2.312,2.312,0,0,0,2.421,2.144,4.29,4.29,0,0,0,2.213-.622l.553,1.383a5.323,5.323,0,0,1-3.112.968c-2.974,0-4.219-2.144-4.219-4.426,0-2.421,1.452-4.426,3.873-4.426,2.282,0,3.8,1.729,3.8,4.357v.622h-5.533Zm1.66-3.389a1.773,1.773,0,0,0-1.66,1.867h3.32C168.894,45.959,168.41,44.991,167.3,44.991Z" transform="translate(-119.584 -39.596)" fill="#21313b"/>
    <path id="Tracé_9847" data-name="Tracé 9847" d="M182.533,52.014V47.035c0-.9-.138-1.867-1.245-1.867a3.7,3.7,0,0,0-2.144.9v5.948H177V43.507h1.867l.207.9a4.793,4.793,0,0,1,2.974-1.107c1.314,0,2.7.761,2.7,3.043v5.671Z" transform="translate(-123.747 -39.565)" fill="#21313b"/>
    <path id="Tracé_9848" data-name="Tracé 9848" d="M196,51.983l-.346-.761a3.6,3.6,0,0,1-2.49.968,2.613,2.613,0,0,1-2.766-2.766c0-1.729,1.383-2.7,3.527-2.766l1.522-.069v-.207c0-1.037-.692-1.452-1.591-1.452a4,4,0,0,0-2.213.622l-.692-1.383a5.583,5.583,0,0,1,3.32-.968c2.075,0,3.389.83,3.389,3.112V49.7a11.938,11.938,0,0,0,.138,2.213H196Zm-.553-3.873-1.245.069c-1.176.069-1.66.415-1.66,1.176,0,.692.484,1.176,1.383,1.176a2.081,2.081,0,0,0,1.522-.553Z" transform="translate(-127.88 -39.535)" fill="#21313b"/>
    <path id="Tracé_9849" data-name="Tracé 9849" d="M209.333,52.014V47.035c0-.9-.138-1.867-1.245-1.867a3.7,3.7,0,0,0-2.144.9v5.948H203.8V43.507h1.867l.208.9a4.792,4.792,0,0,1,2.974-1.107c1.314,0,2.7.761,2.7,3.043v5.671Z" transform="translate(-132.012 -39.565)" fill="#21313b"/>
    <path id="Tracé_9850" data-name="Tracé 9850" d="M220.3,51.2a1.811,1.811,0,0,1-2.075-2.006V44.15H216.7V42.559h1.522V40.622L220.365,40v2.628h2.628l-.622,1.591h-2.006v4.288c0,.692.277.968.83.968a3.014,3.014,0,0,0,1.452-.484l.553,1.383A6.009,6.009,0,0,1,220.3,51.2Z" transform="translate(-135.991 -38.548)" fill="#21313b"/>
  </g>
  <path id="Tracé_9851" data-name="Tracé 9851" d="M67.95,39.144a5.361,5.361,0,1,0,0,.069s0-.069,0-.069m-.484-36.1V0H57.507V2.974c0,16.46.277,20.333,1.936,27.249H65.6c1.66-6.916,1.867-10.72,1.867-27.18" transform="translate(-17.671)" fill="#04c0c7"/>
</svg>
