<svg xmlns="http://www.w3.org/2000/svg" viewBox="0 0 352.18 90.35"><defs><style>.cls-1{fill:#a558a0;}.cls-2{fill:#161616;}</style></defs><g id="Calque_2" data-name="Calque 2"><g id="Calque_1-2" data-name="Calque 1"><ellipse class="cls-1" cx="41.4" cy="73.44" rx="41.4" ry="16.92"/><path class="cls-2" d="M41.4,0A28.92,28.92,0,0,0,12.5,28.91c0,18.79,18.34,36.8,25.79,43.36a4.73,4.73,0,0,0,6.23,0C52,65.6,70.31,47.7,70.31,28.91A28.92,28.92,0,0,0,41.4,0Zm0,40.78A13.21,13.21,0,1,1,54.62,27.57,13.2,13.2,0,0,1,41.4,40.78Z"/><path class="cls-2" d="M113.26,5.51h8.45V31.12h12.07v7.64H113.26Z"/><path class="cls-2" d="M138.39,32c0-3.66,2.8-6.46,8-7.32l6.75-1.14c0-1.8-1.62-3.18-3.85-3.18a5.34,5.34,0,0,0-4.56,2.52l-5.51-4.18a12.3,12.3,0,0,1,10.31-4.85c7.6,0,11.11,4.56,11.11,9.79v15.1h-7.5V37a9.45,9.45,0,0,1-6.56,2.52C141.76,39.48,138.39,36.67,138.39,32Zm9.88,1.61a5.56,5.56,0,0,0,4.89-2.56V28.69l-4.7.81c-2,.33-2.62,1.05-2.62,2.14S146.79,33.63,148.27,33.63Z"/><path class="cls-2" d="M193.63,39.71A9.26,9.26,0,0,1,187,37.43v1.33h-7.55V3.14H187v13a9.31,9.31,0,0,1,6.65-2.28c7.65,0,12.06,5.94,12.06,12.92S201.28,39.71,193.63,39.71Zm-6.65-16v6.08a6.77,6.77,0,0,0,5.56,2.81c3.32,0,5.36-2.33,5.36-5.85s-2-5.84-5.36-5.84A6.6,6.6,0,0,0,187,23.75Z"/><path class="cls-2" d="M235.43,26.79c0,7.32-5.37,12.92-13.21,12.92S209,34.11,209,26.79s5.37-12.92,13.25-12.92S235.43,19.48,235.43,26.79Zm-7.79,0c0-3.61-2.33-5.84-5.37-5.84s-5.46,2.28-5.46,5.84,2.33,5.85,5.46,5.85S227.64,30.31,227.64,26.79Z"/><path class="cls-2" d="M240.18,14.82h7.55v1.33a9.4,9.4,0,0,1,6.37-2.28c5.08,0,9.26,3.57,9.26,10.83V38.76h-7.6V25c0-2.43-1.28-4.09-3.71-4.09a5,5,0,0,0-4.32,2.9V38.76h-7.55Z"/><path class="cls-2" d="M269.3,14.82h7.55v1.33a9.39,9.39,0,0,1,6.36-2.28c5.09,0,9.27,3.57,9.27,10.83V38.76h-7.6V25c0-2.43-1.29-4.09-3.71-4.09a5,5,0,0,0-4.32,2.9V38.76H269.3Z"/><path class="cls-2" d="M310.43,39.71c-8.79,0-13.44-5.93-13.44-12.92s4.32-12.92,12.44-12.92c6.8,0,11.26,4.52,11.26,11a16.63,16.63,0,0,1-.47,4H304.73c.71,3.23,2.8,4.09,5.65,4.09a6.83,6.83,0,0,0,5.37-2.28l5.32,4.23C318.79,37.91,315,39.71,310.43,39.71Zm-5.65-16.15h8.59A3.86,3.86,0,0,0,309.24,20,4.17,4.17,0,0,0,304.78,23.56Z"/><path class="cls-2" d="M110.46,80c0-3.66,2.8-6.46,8-7.32l6.74-1.14c0-1.8-1.62-3.18-3.85-3.18a5.34,5.34,0,0,0-4.56,2.52l-5.51-4.18a12.3,12.3,0,0,1,10.31-4.85c7.6,0,11.12,4.56,11.12,9.79v15.1h-7.51V85a9.45,9.45,0,0,1-6.56,2.52C113.83,87.48,110.46,84.67,110.46,80Zm9.88,1.61a5.56,5.56,0,0,0,4.89-2.56V76.69l-4.7.81c-2,.33-2.62,1-2.62,2.14S118.86,81.63,120.34,81.63Z"/><path class="cls-2" d="M138.67,51.14h7.55V86.76h-7.55Z"/><path class="cls-2" d="M154.06,69.57H149.6V62.82h4.46v-6h7.6v6h6.56v6.75h-6.56v7.88a2.65,2.65,0,0,0,3,3,10,10,0,0,0,3.61-.52v6.5a11.73,11.73,0,0,1-5,.86c-6.51,0-9.22-3.9-9.22-9.79Z"/><path class="cls-2" d="M184.56,87.71c-8.79,0-13.45-5.93-13.45-12.92s4.33-12.92,12.45-12.92c6.79,0,11.26,4.52,11.26,11a16.06,16.06,0,0,1-.48,4H178.86c.71,3.23,2.8,4.09,5.65,4.09a6.85,6.85,0,0,0,5.37-2.28l5.32,4.23C192.92,85.91,189.16,87.71,184.56,87.71ZM178.9,71.56h8.6A3.87,3.87,0,0,0,183.37,68,4.18,4.18,0,0,0,178.9,71.56Z"/><path class="cls-2" d="M200,62.82h7.55v1.95a8.21,8.21,0,0,1,5.79-2.42,7.06,7.06,0,0,1,2.19.33v7.46a12.33,12.33,0,0,0-2.95-.33,6.08,6.08,0,0,0-5,2.42V86.76H200Z"/><path class="cls-2" d="M219.52,62.82h7.55v1.33a9.39,9.39,0,0,1,6.36-2.28c5.09,0,9.26,3.57,9.26,10.83V86.76H235.1V73c0-2.43-1.29-4.09-3.71-4.09a5,5,0,0,0-4.32,2.9V86.76h-7.55Z"/><path class="cls-2" d="M247.35,80c0-3.66,2.8-6.46,8-7.32l6.74-1.14c-.05-1.8-1.61-3.18-3.84-3.18a5.36,5.36,0,0,0-4.57,2.52l-5.51-4.18a12.31,12.31,0,0,1,10.31-4.85c7.6,0,11.12,4.56,11.12,9.79v15.1h-7.51V85a9.45,9.45,0,0,1-6.55,2.52C250.72,87.48,247.35,84.67,247.35,80Zm9.88,1.61a5.56,5.56,0,0,0,4.89-2.56V76.69l-4.7.81c-2,.33-2.61,1-2.61,2.14S255.76,81.63,257.23,81.63Z"/><path class="cls-2" d="M275.56,62.82h7.56v1.33a9.37,9.37,0,0,1,6.36-2.28c5.08,0,9.26,3.57,9.26,10.83V86.76h-7.6V73c0-2.43-1.28-4.09-3.7-4.09a5,5,0,0,0-4.32,2.9V86.76h-7.56Z"/><path class="cls-2" d="M320.88,78.45l5.89,4.47a12.47,12.47,0,0,1-10.21,4.79c-8.46,0-13.3-5.93-13.3-12.92s4.84-12.92,13.3-12.92a12.47,12.47,0,0,1,10.21,4.8l-5.89,4.47A5.17,5.17,0,0,0,316.46,69c-3.09,0-5.37,2.33-5.37,5.84s2.28,5.85,5.51,5.85A5.17,5.17,0,0,0,320.88,78.45Z"/><path class="cls-2" d="M341.54,87.71c-8.79,0-13.44-5.93-13.44-12.92s4.32-12.92,12.44-12.92c6.8,0,11.26,4.52,11.26,11a16.63,16.63,0,0,1-.47,4H335.84c.71,3.23,2.8,4.09,5.65,4.09a6.83,6.83,0,0,0,5.37-2.28l5.32,4.23C349.9,85.91,346.15,87.71,341.54,87.71Zm-5.65-16.15h8.6A3.88,3.88,0,0,0,340.35,68,4.17,4.17,0,0,0,335.89,71.56Z"/></g></g></svg>