<svg width="353" height="171" viewBox="0 0 353 171" fill="none" xmlns="http://www.w3.org/2000/svg">
<g clip-path="url(#clip0_28_12766)">
<g clip-path="url(#clip1_28_12766)">
<path d="M41.4 90.36C64.2646 90.36 82.8 82.7847 82.8 73.44C82.8 64.0954 64.2646 56.52 41.4 56.52C18.5354 56.52 0 64.0954 0 73.44C0 82.7847 18.5354 90.36 41.4 90.36Z" fill="#3558A2"/>
<path d="M41.4 0C33.7351 0.00530028 26.3859 3.05319 20.9669 8.474C15.548 13.8948 12.5026 21.2451 12.5 28.91C12.5 47.7 30.84 65.71 38.29 72.27C39.1523 73.0246 40.2592 73.4406 41.405 73.4406C42.5508 73.4406 43.6577 73.0246 44.52 72.27C52 65.6 70.31 47.7 70.31 28.91C70.3073 21.2434 67.2606 13.8916 61.8395 8.47047C56.4184 3.04937 49.0666 0.00265051 41.4 0V0ZM41.4 40.78C38.7877 40.778 36.2347 40.0016 34.0636 38.5489C31.8926 37.0961 30.201 35.0323 29.2027 32.6183C28.2044 30.2043 27.9442 27.5486 28.455 24.9867C28.9659 22.4249 30.2248 20.072 32.0727 18.2256C33.9205 16.3791 36.2743 15.122 38.8365 14.6131C41.3987 14.1042 44.0543 14.3664 46.4676 15.3665C48.8808 16.3666 50.9433 18.0598 52.3944 20.232C53.8455 22.4041 54.62 24.9577 54.62 27.57C54.6213 29.306 54.2802 31.0252 53.6162 32.6291C52.9521 34.2331 51.9783 35.6903 50.7503 36.9174C49.5223 38.1444 48.0643 39.1172 46.4599 39.78C44.8554 40.4428 43.136 40.7826 41.4 40.78Z" fill="#161616"/>
<path d="M121.38 170.17C120.347 170.223 119.313 170.061 118.346 169.695C117.378 169.328 116.497 168.764 115.758 168.04C115.019 167.315 114.439 166.445 114.054 165.485C113.669 164.524 113.487 163.494 113.52 162.46C113.52 158.18 116.24 154.75 120.78 154.75C121.632 154.696 122.485 154.822 123.286 155.118C124.086 155.414 124.815 155.875 125.427 156.471C126.038 157.066 126.518 157.783 126.836 158.575C127.153 159.367 127.301 160.217 127.27 161.07C127.276 161.653 127.208 162.234 127.07 162.8H116.53C116.73 165.92 118.63 167.53 121.38 167.53C122.161 167.548 122.936 167.381 123.64 167.042C124.344 166.703 124.957 166.202 125.43 165.58L127.56 167.28C126.83 168.214 125.889 168.962 124.816 169.464C123.742 169.966 122.565 170.208 121.38 170.17ZM116.67 160.62H124.35C124.348 160.153 124.251 159.691 124.065 159.263C123.88 158.835 123.609 158.448 123.269 158.128C122.93 157.807 122.529 157.559 122.091 157.397C121.653 157.236 121.186 157.166 120.72 157.19C119.737 157.147 118.775 157.477 118.024 158.113C117.273 158.748 116.79 159.644 116.67 160.62Z" fill="black"/>
<path d="M129 169.6L134.16 162.23L129.34 155.31H132.71L136.08 160.22L139.46 155.31H142.83L137.98 162.23L143.14 169.6H139.8L136 164.22L132.32 169.6H129Z" fill="black"/>
<path d="M154.43 149.76H158.54L164.04 159.06L169.6 149.76H173.71V169.6H170.45V154.24L165.26 162.8H162.88L157.67 154.18V169.6H154.43V149.76Z" fill="black"/>
<path d="M178.11 165.89C178.11 163.74 179.78 162.18 182.81 161.66L187.43 160.9V160.16C187.432 159.761 187.35 159.366 187.189 159C187.028 158.635 186.791 158.308 186.495 158.041C186.198 157.773 185.848 157.572 185.468 157.449C185.088 157.327 184.687 157.286 184.29 157.33C183.582 157.318 182.882 157.482 182.253 157.809C181.625 158.135 181.087 158.614 180.69 159.2L178.5 157.53C179.187 156.634 180.078 155.914 181.099 155.431C182.12 154.947 183.241 154.714 184.37 154.75C188.23 154.75 190.37 157.02 190.37 160.16V169.6H187.45V168C186.877 168.64 186.174 169.15 185.387 169.495C184.601 169.84 183.749 170.012 182.89 170C180 170 178.11 168.41 178.11 165.89ZM183.41 167.65C184.212 167.665 185.004 167.469 185.706 167.081C186.408 166.693 186.996 166.127 187.41 165.44V163L183.56 163.65C181.77 163.96 181.04 164.73 181.04 165.81C181.04 166.89 181.93 167.65 183.41 167.65Z" fill="black"/>
<path d="M195.77 158H193.08V155.36H195.77V151.79H198.72V155.36H203.45V158H198.72V164.69C198.72 166.62 199.72 167.24 201.33 167.24C202.05 167.27 202.769 167.165 203.45 166.93V169.51C202.628 169.825 201.75 169.971 200.87 169.94C197.53 169.94 195.77 168.18 195.77 164.69V158Z" fill="black"/>
<path d="M217.06 165.52L219.36 167.28C218.66 168.202 217.751 168.945 216.708 169.447C215.665 169.949 214.517 170.197 213.36 170.17C212.348 170.17 211.345 169.971 210.41 169.583C209.474 169.196 208.624 168.628 207.908 167.912C207.192 167.196 206.624 166.346 206.237 165.411C205.849 164.475 205.65 163.473 205.65 162.46C205.65 161.448 205.849 160.445 206.237 159.51C206.624 158.574 207.192 157.724 207.908 157.008C208.624 156.292 209.474 155.724 210.41 155.337C211.345 154.949 212.348 154.75 213.36 154.75C214.517 154.725 215.664 154.973 216.707 155.475C217.749 155.978 218.659 156.719 219.36 157.64L217.06 159.4C216.637 158.805 216.075 158.321 215.424 157.99C214.772 157.659 214.051 157.491 213.32 157.5C212.113 157.654 211.003 158.242 210.199 159.155C209.395 160.068 208.951 161.243 208.951 162.46C208.951 163.677 209.395 164.852 210.199 165.765C211.003 166.678 212.113 167.266 213.32 167.42C214.051 167.431 214.773 167.264 215.425 166.933C216.077 166.601 216.638 166.117 217.06 165.52Z" fill="black"/>
<path d="M222.42 148.34H225.34V156.7C225.914 156.073 226.614 155.574 227.395 155.238C228.176 154.902 229.02 154.735 229.87 154.75C233.05 154.75 235.43 156.87 235.43 161.01V169.6H232.43V161.13C232.43 158.86 231.19 157.5 229.14 157.5C228.335 157.522 227.552 157.762 226.873 158.195C226.195 158.629 225.648 159.239 225.29 159.96V169.6H222.37L222.42 148.34Z" fill="black"/>
<path d="M239.15 165.89C239.15 163.74 240.82 162.18 243.85 161.66L248.47 160.9V160.16C248.472 159.761 248.39 159.366 248.229 159C248.068 158.635 247.831 158.308 247.535 158.041C247.238 157.773 246.888 157.572 246.508 157.449C246.128 157.327 245.727 157.286 245.33 157.33C244.622 157.318 243.922 157.482 243.293 157.809C242.665 158.135 242.127 158.614 241.73 159.2L239.54 157.53C240.227 156.634 241.118 155.914 242.139 155.431C243.16 154.947 244.281 154.714 245.41 154.75C249.27 154.75 251.41 157.02 251.41 160.16V169.6H248.49V168C247.917 168.64 247.214 169.15 246.427 169.495C245.641 169.84 244.789 170.012 243.93 170C241.07 170 239.15 168.41 239.15 165.89ZM244.45 167.65C245.252 167.664 246.043 167.467 246.745 167.08C247.447 166.692 248.035 166.126 248.45 165.44V163L244.6 163.65C242.81 163.96 242.07 164.73 242.07 165.81C242.07 166.89 243 167.65 244.45 167.65Z" fill="black"/>
<path d="M176.58 104.3H113.3V134.25H176.58V104.3Z" fill="#3558A2"/>
<path d="M133 123L136.81 125.89C135.527 127.529 133.765 128.726 131.769 129.315C129.773 129.905 127.643 129.857 125.676 129.178C123.708 128.5 122.002 127.224 120.794 125.53C119.586 123.835 118.936 121.806 118.936 119.725C118.936 117.644 119.586 115.615 120.794 113.92C122.002 112.226 123.708 110.95 125.676 110.272C127.643 109.593 129.773 109.545 131.769 110.135C133.765 110.724 135.527 111.921 136.81 113.56L133 116.48C132.537 115.791 131.909 115.228 131.174 114.843C130.439 114.457 129.62 114.26 128.79 114.27C127.331 114.27 125.932 114.849 124.901 115.881C123.869 116.912 123.29 118.311 123.29 119.77C123.29 121.229 123.869 122.628 124.901 123.659C125.932 124.691 127.331 125.27 128.79 125.27C129.625 125.273 130.449 125.068 131.184 124.671C131.919 124.274 132.544 123.7 133 123Z" fill="white"/>
<path d="M139.87 110.3H151.53V114.3H144.68V117.62H150.45V121.62H144.68V129.25H139.87V110.3Z" fill="white"/>
<path d="M157.72 110.3H164L170.86 129.19H165.76L164.22 124.74H157.52L156 129.19H150.89L157.72 110.3ZM162.79 120.69L160.85 115.13L158.91 120.69H162.79Z" fill="white"/>
<path d="M113.54 5.51001H120.29V32.64H132.92V38.76H113.54V5.51001Z" fill="#161616"/>
<path d="M137.82 32.3C137.82 28.69 140.62 25.99 145.75 25.13L153.06 23.9V23.28C153.06 20.76 151.16 19.15 148.41 19.15C147.344 19.1448 146.292 19.402 145.349 19.8991C144.406 20.3961 143.599 21.1176 143 22L138.59 18.62C139.753 17.0835 141.269 15.8496 143.01 15.0229C144.75 14.1961 146.664 13.8006 148.59 13.87C155.52 13.87 159.09 18.01 159.09 23.28V38.76H153.09V36.44C152.171 37.4137 151.058 38.1839 149.823 38.7006C148.588 39.2174 147.259 39.4692 145.92 39.44C141.09 39.48 137.82 36.72 137.82 32.3ZM147.13 34.68C148.311 34.722 149.483 34.4498 150.525 33.8911C151.567 33.3325 152.441 32.5073 153.06 31.5V28.12L147.36 29.07C144.85 29.5 143.8 30.55 143.8 32.07C143.8 33.59 145.08 34.68 147.13 34.68Z" fill="#161616"/>
<path d="M192.3 39.71C190.924 39.7738 189.55 39.5498 188.265 39.0521C186.98 38.5545 185.814 37.7942 184.84 36.82V38.76H178.84V3.14001H184.84V16.77C185.813 15.7945 186.98 15.0327 188.264 14.5334C189.549 14.034 190.923 13.8081 192.3 13.87C199.9 13.87 204.46 19.81 204.46 26.79C204.46 33.77 199.9 39.71 192.3 39.71ZM184.84 23V30.6C185.574 31.6691 186.56 32.5406 187.711 33.1372C188.863 33.7337 190.143 34.037 191.44 34.02C195.53 34.02 198.19 31.02 198.19 26.8C198.19 22.58 195.53 19.58 191.44 19.58C190.141 19.5476 188.854 19.8442 187.701 20.4421C186.547 21.04 185.563 21.9199 184.84 23Z" fill="#161616"/>
<path d="M234.48 26.7901C234.48 30.267 233.099 33.6016 230.64 36.0602C228.182 38.5188 224.847 39.9001 221.37 39.9001C217.893 39.9001 214.558 38.5188 212.1 36.0602C209.641 33.6016 208.26 30.267 208.26 26.7901C208.26 23.3131 209.641 19.9785 212.1 17.5199C214.558 15.0613 217.893 13.6801 221.37 13.6801C224.847 13.6801 228.182 15.0613 230.64 17.5199C233.099 19.9785 234.48 23.3131 234.48 26.7901ZM228.21 26.7901C228.21 22.6101 225.31 19.5701 221.46 19.5701C220.522 19.5592 219.592 19.7408 218.727 20.1035C217.862 20.4663 217.081 21.0026 216.431 21.6793C215.782 22.3559 215.278 23.1586 214.951 24.0376C214.624 24.9167 214.481 25.8534 214.53 26.7901C214.482 27.7259 214.627 28.6615 214.954 29.5394C215.282 30.4173 215.786 31.2187 216.435 31.8943C217.085 32.5698 217.865 33.1052 218.73 33.4674C219.594 33.8296 220.523 34.0108 221.46 34.0001C225.31 34.0001 228.21 30.9301 228.21 26.7901Z" fill="#161616"/>
<path d="M240 14.8201H246V16.7201C246.927 15.7924 248.032 15.0617 249.249 14.5719C250.466 14.0821 251.769 13.8434 253.08 13.8701C258.25 13.8701 262.39 17.4401 262.39 24.5101V38.76H256.31V24.7601C256.31 21.5801 254.5 19.5801 251.56 19.5801C250.396 19.6089 249.263 19.9559 248.283 20.5835C247.303 21.2111 246.513 22.0953 246 23.14V38.76H240V14.8201Z" fill="#161616"/>
<path d="M269.25 14.82H275.25V16.72C276.178 15.7932 277.283 15.0632 278.5 14.5735C279.716 14.0838 281.019 13.8445 282.33 13.87C287.5 13.87 291.64 17.44 291.64 24.51V38.76H285.56V24.76C285.56 21.58 283.75 19.58 280.81 19.58C279.645 19.6098 278.511 19.9583 277.531 20.5877C276.551 21.2172 275.762 22.1034 275.25 23.15V38.76H269.25V14.82Z" fill="#161616"/>
<path d="M310.1 39.71C301.59 39.71 296.8 33.78 296.8 26.79C296.8 19.8 301.26 13.87 309.1 13.87C315.75 13.87 320.1 18.39 320.1 24.66C320.098 25.7939 319.971 26.9241 319.72 28.03H303C303.57 32.49 306.33 34.3 310.08 34.3C311.26 34.3295 312.43 34.0879 313.502 33.5938C314.573 33.0997 315.517 32.3662 316.26 31.45L320.58 34.87C319.34 36.4473 317.743 37.7082 315.922 38.5495C314.1 39.3908 312.105 39.7885 310.1 39.71ZM303.16 23.71H314.16C314.147 23.0482 314.003 22.3955 313.736 21.7898C313.469 21.1841 313.084 20.6375 312.604 20.1817C312.124 19.7259 311.558 19.3699 310.94 19.1344C310.321 18.899 309.662 18.7887 309 18.81C305.87 18.81 303.83 20.52 303.16 23.66V23.71Z" fill="#161616"/>
<path d="M110.93 80.3C110.93 76.69 113.74 73.99 118.86 73.13L126.18 71.9V71.28C126.18 68.76 124.28 67.15 121.53 67.15C120.462 67.1423 119.408 67.3984 118.463 67.8955C117.517 68.3927 116.709 69.1155 116.11 70L111.69 66.62C112.853 65.0835 114.369 63.8496 116.11 63.0229C117.85 62.1961 119.764 61.8006 121.69 61.87C128.63 61.87 132.19 66.01 132.19 71.28V86.76H126.19V84.44C125.271 85.4137 124.158 86.1839 122.923 86.7006C121.688 87.2174 120.359 87.4693 119.02 87.44C114.21 87.48 110.93 84.72 110.93 80.3ZM120.24 82.68C121.423 82.7217 122.595 82.4495 123.639 81.8909C124.682 81.3324 125.559 80.5074 126.18 79.5V76.12L120.48 77.07C117.96 77.5 116.92 78.55 116.92 80.07C116.92 81.59 118.2 82.68 120.24 82.68Z" fill="#161616"/>
<path d="M139.1 51.14H145.1V86.76H139.1V51.14Z" fill="#161616"/>
<path d="M153.87 68.2399H149.41V62.8199H153.87V56.8199H160V62.8199H167.32V68.2399H160V77.9999C160 80.6599 161.43 81.7099 163.8 81.7099C165.009 81.7677 166.218 81.5911 167.36 81.1899V86.4599C165.897 87.0329 164.33 87.2918 162.76 87.2199C156.76 87.2199 153.92 83.8499 153.92 77.9999L153.87 68.2399Z" fill="#161616"/>
<path d="M183.8 87.71C175.29 87.71 170.5 81.78 170.5 74.79C170.5 67.8 175 61.87 182.8 61.87C189.45 61.87 193.8 66.39 193.8 72.66C193.798 73.7939 193.671 74.9241 193.42 76.03H176.67C177.24 80.49 180 82.3 183.75 82.3C184.928 82.331 186.098 82.09 187.168 81.5957C188.238 81.1014 189.18 80.3672 189.92 79.45L194.25 82.87C193.012 84.4425 191.421 85.7004 189.605 86.5415C187.789 87.3825 185.8 87.7829 183.8 87.71ZM176.86 71.71H187.86C187.841 71.0472 187.69 70.3948 187.416 69.7909C187.142 69.1869 186.751 68.6434 186.265 68.1921C185.78 67.7407 185.209 67.3905 184.587 67.1618C183.964 66.9331 183.302 66.8305 182.64 66.86C179.57 66.81 177.53 68.52 176.86 71.66V71.71Z" fill="#161616"/>
<path d="M199.71 62.82H205.71V65.2C206.508 64.3119 207.481 63.5998 208.57 63.1091C209.658 62.6184 210.836 62.3599 212.03 62.35C212.74 62.3476 213.445 62.459 214.12 62.68V68.62C213.251 68.396 212.357 68.285 211.46 68.29C210.311 68.2584 209.173 68.5313 208.164 69.081C207.154 69.6307 206.307 70.4376 205.71 71.42V86.76H199.71V62.82Z" fill="#161616"/>
<path d="M219 62.82H225V64.72C225.926 63.7935 227.029 63.0635 228.244 62.5738C229.459 62.0841 230.76 61.8447 232.07 61.87C237.25 61.87 241.38 65.44 241.38 72.51V86.76H235.3V72.76C235.3 69.58 233.5 67.58 230.55 67.58C229.388 67.6084 228.255 67.9554 227.277 68.5832C226.298 69.2109 225.511 70.0953 225 71.14V86.76H219V62.82Z" fill="#161616"/>
<path d="M246.92 80.3C246.92 76.69 249.73 73.99 254.86 73.13L262.17 71.9V71.28C262.17 68.76 260.27 67.15 257.52 67.15C256.452 67.1423 255.398 67.3984 254.453 67.8955C253.507 68.3927 252.699 69.1155 252.1 70L247.68 66.62C248.843 65.0835 250.359 63.8496 252.1 63.0229C253.84 62.1961 255.754 61.8006 257.68 61.87C264.62 61.87 268.18 66.01 268.18 71.28V86.76H262.18V84.44C261.261 85.4137 260.148 86.1839 258.913 86.7006C257.678 87.2174 256.349 87.4693 255.01 87.44C250.2 87.48 246.92 84.72 246.92 80.3ZM256.23 82.68C257.413 82.7217 258.585 82.4495 259.629 81.8909C260.672 81.3324 261.549 80.5074 262.17 79.5V76.12L256.47 77.07C253.95 77.5 252.91 78.55 252.91 80.07C252.91 81.59 254.19 82.68 256.23 82.68Z" fill="#161616"/>
<path d="M275.09 62.82H281.09V64.72C282.018 63.7932 283.123 63.0632 284.34 62.5735C285.556 62.0838 286.859 61.8445 288.17 61.87C293.35 61.87 297.48 65.44 297.48 72.51V86.76H291.4V72.76C291.4 69.58 289.59 67.58 286.65 67.58C285.485 67.6098 284.351 67.9583 283.371 68.5877C282.391 69.2172 281.602 70.1034 281.09 71.15V86.76H275.09V62.82Z" fill="#161616"/>
<path d="M321.26 79.26L325.96 82.87C324.773 84.4165 323.238 85.661 321.48 86.502C319.721 87.3431 317.789 87.757 315.84 87.71C307.58 87.71 302.64 81.78 302.64 74.79C302.64 67.8 307.58 61.87 315.84 61.87C317.797 61.8162 319.738 62.2279 321.504 63.0711C323.271 63.9143 324.811 65.1649 326 66.72L321.3 70.33C320.684 69.4474 319.858 68.7326 318.895 68.2506C317.933 67.7686 316.866 67.5347 315.79 67.57C311.85 67.57 308.95 70.57 308.95 74.79C308.95 79.01 311.85 82.01 315.88 82.01C316.934 82.0301 317.976 81.7896 318.915 81.3099C319.854 80.8301 320.659 80.126 321.26 79.26Z" fill="#161616"/>
<path d="M341.11 87.71C332.61 87.71 327.82 81.78 327.82 74.79C327.82 67.8 332.28 61.87 340.12 61.87C346.77 61.87 351.12 66.39 351.12 72.66C351.118 73.7939 350.991 74.9241 350.74 76.03H334C334.57 80.49 337.33 82.3 341.08 82.3C342.258 82.331 343.428 82.09 344.498 81.5957C345.568 81.1014 346.51 80.3672 347.25 79.45L351.58 82.87C350.34 84.4447 348.745 85.7039 346.925 86.545C345.106 87.3861 343.113 87.7853 341.11 87.71ZM334.18 71.71H345.18C345.167 71.0464 345.022 70.392 344.754 69.785C344.486 69.178 344.099 68.6305 343.617 68.1744C343.135 67.7183 342.567 67.3627 341.946 67.1285C341.325 66.8942 340.663 66.786 340 66.81C336.89 66.81 334.84 68.52 334.18 71.66V71.71Z" fill="#161616"/>
</g>
</g>
<defs>
<clipPath id="clip0_28_12766">
<rect width="352.18" height="170.17" fill="white"/>
</clipPath>
<clipPath id="clip1_28_12766">
<rect width="351.57" height="170.17" fill="white"/>
</clipPath>
</defs>
</svg>
