<?xml version="1.0" encoding="UTF-8"?>
<svg width="50px" height="50px" version="1.1" viewBox="0 0 80 80" xmlns="http://www.w3.org/2000/svg">
<g fill="none" fill-rule="evenodd">
<g fill-rule="nonzero">
<path id="Shape" d="m39.998 80c-22.054 0-39.998-17.944-39.998-40.002 0-22.054 17.944-39.998 39.998-39.998 22.054 0 39.998 17.944 39.998 39.998 4e-3 22.058-17.94 40.002-39.998 40.002zm0-77.801c-20.842 0-37.799 16.957-37.799 37.799s16.957 37.799 37.799 37.799c20.841 0 37.799-16.957 37.799-37.799 4e-3 -20.842-16.953-37.799-37.799-37.799z" fill="#2FAC66"/>
<path id="Shape" d="m39.997 60.362c-11.228 0-20.364-9.1357-20.364-20.364s9.1357-20.364 20.364-20.364 20.364 9.1357 20.364 20.364-9.1361 20.364-20.364 20.364zm0-39.9c-10.773 0-19.537 8.764-19.537 19.537 0 10.772 8.764 19.537 19.537 19.537 10.772 0 19.536-8.7641 19.536-19.537 5e-3 -10.773-8.7638-19.537-19.536-19.537z" fill="#2FAC66"/>
<polygon id="Shape" points="59.954 35.419 53.258 47.016 59.541 50.644 66.237 39.046" fill="#E20E18"/>
<polygon id="Shape" points="53.672 31.79 46.977 43.387 53.26 47.015 59.956 35.417" fill="#fff"/>
<polygon id="Shape" points="47.395 28.163 40.699 39.76 46.982 43.388 53.678 31.791" fill="#253574"/>
<path id="Shape" d="m47.663 29.177 17.564 10.14-5.955 10.312-17.564-10.14 5.9548-10.312zm-0.2743-1.0131-6.6936 11.595 18.851 10.883 6.694-11.595-18.851-10.883z" fill="#253574"/>
<polygon id="Shape" points="47.635 27.333 34.328 50.388 35.041 50.799 48.348 27.744" fill="#253574"/>
<polygon id="Shape" points="32.604 28.114 13.754 38.997 20.45 50.594 39.299 39.711" fill="#253574"/>
<polygon id="Shape" points="28.536 43.895 28.77 43.382 29.31 43.449 28.903 43.086 29.146 42.595 28.673 42.869 28.271 42.515 28.372 43.042 27.894 43.316 28.43 43.36" fill="#FFE910"/>
<polygon id="Shape" points="24.304 36.326 24.539 35.826 25.079 35.879 24.676 35.516 24.915 35.03 24.446 35.3 24.039 34.954 24.145 35.476 23.672 35.746 24.198 35.786" fill="#FFE910"/>
<polygon id="Shape" points="22.481 42.338 22.715 41.838 23.264 41.887 22.861 41.524 23.114 41.042 22.636 41.321 22.22 40.971 22.322 41.498 21.844 41.776 22.37 41.803" fill="#FFE910"/>
<polygon id="Shape" points="30.324 37.795 30.558 37.295 31.103 37.348 30.704 36.976 30.948 36.507 30.474 36.777 30.063 36.428 30.165 36.958 29.691 37.233 30.213 37.259" fill="#FFE910"/>
<polygon id="Shape" points="26.59 35.693 26.829 35.189 27.373 35.238 26.971 34.879 27.214 34.392 26.741 34.667 26.329 34.308 26.431 34.844 25.953 35.122 26.484 35.158" fill="#FFE910"/>
<polygon id="Shape" points="28.786 36.282 29.025 35.777 29.569 35.826 29.162 35.459 29.405 34.976 28.932 35.246 28.525 34.897 28.618 35.432 28.144 35.702 28.68 35.738" fill="#FFE910"/>
<polygon id="Shape" points="30.77 39.967 31.004 39.471 31.553 39.52 31.15 39.157 31.398 38.666 30.92 38.94 30.509 38.591 30.606 39.122 30.133 39.396 30.664 39.44" fill="#FFE910"/>
<polygon id="Shape" points="30.156 42.197 30.395 41.688 30.944 41.745 30.536 41.378 30.784 40.892 30.311 41.166 29.895 40.816 29.997 41.347 29.523 41.622 30.054 41.657" fill="#FFE910"/>
<polygon id="Shape" points="26.348 44.395 26.583 43.887 27.136 43.94 26.729 43.572 26.977 43.086 26.499 43.36 26.088 43.011 26.185 43.542 25.707 43.816 26.238 43.856" fill="#FFE910"/>
<polygon id="Shape" points="24.207 43.772 24.446 43.276 24.986 43.32 24.588 42.962 24.836 42.471 24.358 42.745 23.951 42.4 24.044 42.926 23.57 43.201 24.106 43.241" fill="#FFE910"/>
<polygon id="Shape" points="21.907 40.25 22.142 39.75 22.69 39.799 22.283 39.432 22.535 38.945 22.053 39.219 21.642 38.874 21.739 39.405 21.266 39.675 21.796 39.715" fill="#FFE910"/>
<polygon id="Shape" points="22.454 38.091 22.688 37.591 23.233 37.644 22.83 37.281 23.073 36.799 22.604 37.069 22.184 36.715 22.29 37.25 21.812 37.525 22.343 37.565" fill="#FFE910"/>
<polygon id="Shape" points="32.369 27.33 31.656 27.741 44.966 50.794 45.679 50.382" fill="#253574"/>
<polygon id="Shape" points="9.8633 25.491 12.721 20.492 14.168 21.32 12.305 24.58 14.34 25.744 15.924 22.974 17.371 23.801 15.787 26.571 19.437 28.659 18.442 30.398" fill="#2FAC66"/>
<path id="Shape" d="m16.121 16.471 2.3182-1.9334c1.6679-1.3891 3.4109-1.3935 4.5877 0.0177 0.7654 0.9202 0.8937 1.9732 0.4115 2.9818l5.1761 1.3804-1.8094 1.5086-4.5833-1.3804-0.792 0.6592 2.5571 3.0703-1.5395 1.283-6.3264-7.5872zm2.6058 0 1.6324 1.9642 0.8671-0.7211c0.6504-0.5441 0.7123-1.2387 0.1991-1.8537-0.4778-0.5751-1.1812-0.6503-1.836-0.1061l-0.8626 0.7167z" fill="#2FAC66"/>
<path id="Shape" d="m30.327 8.0429 2.5395-0.66361 6.1096 8.618-2.0616 0.5353-1.5617-2.2474-3.8268 0.9954-0.2655 2.7252-2.0616 0.5353 1.1281-10.498zm3.995 4.747-2.2475-3.2517-0.376 3.933 2.6235-0.6813z" fill="#2FAC66"/>
<polygon id="Shape" points="42.38 6.4237 44.897 6.9457 47.769 14.838 49.224 7.8438 51.188 8.2508 49.176 17.926 46.658 17.404 43.787 9.5117 42.332 16.506 40.367 16.099" fill="#2FAC66"/>
<path id="Shape" d="m58.878 21.222 0.491 1.9333c-1.469 0.407-3.11 0.1195-4.5168-0.991-2.4509-1.9289-2.6411-5.1319-0.8936-7.3483 1.7474-2.2165 4.9014-2.7827 7.3524-0.8539 1.407 1.1061 2.062 2.6456 2.031 4.1498l-2-0.0133c0.053-0.9821-0.305-1.9643-1.19-2.6632-1.464-1.1503-3.402-0.8318-4.574 0.6547-1.1682 1.4865-1.0266 3.4463 0.438 4.601 0.885 0.6946 1.92 0.814 2.862 0.5309z" fill="#2FAC66"/>
<polygon id="Shape" points="67.757 21.275 70.544 26.314 69.088 27.119 67.27 23.837 65.222 24.969 66.766 27.761 65.31 28.566 63.766 25.774 61.545 27.004 63.364 30.291 61.908 31.097 59.121 26.058" fill="#2FAC66"/>
<path id="Shape" d="m17.12 47.483 1.3449 2.7031c0.9689 1.9466 0.5663 3.641-1.075 4.4595-1.0751 0.5353-2.128 0.4114-2.9951-0.292l-2.5394 4.716-1.0485-2.1103 2.4022-4.1409-0.4601-0.9202-3.5746 1.7785-0.8937-1.7962 8.8393-4.3975zm-0.5973 2.5394-2.2872 1.137 0.5044 1.0087c0.376 0.7565 1.0396 0.9777 1.7607 0.6238 0.6681-0.3318 0.9025-0.9998 0.5265-1.7608l-0.5044-1.0087z" fill="#2FAC66"/>
<polygon id="Shape" points="21.537 55.296 25.678 59.296 24.523 60.494 21.824 57.889 20.196 59.574 22.493 61.791 21.338 62.99 19.042 60.778 17.277 62.605 19.975 65.21 18.821 66.409 14.68 62.41" fill="#2FAC66"/>
<polygon id="Shape" points="27.416 60.366 29.217 61.242 25.691 68.489 29.066 70.13 28.27 71.767 23.094 69.25" fill="#2FAC66"/>
<path id="Shape" d="m36.758 63.636 2.6146 0.2168 2.9111 10.153-2.1236-0.177-0.7299-2.6367-3.9374-0.3274-1.1547 2.4819-2.1236-0.177 4.5435-9.5338zm2.1944 5.8043-1.0441-3.8091-1.6546 3.5879 2.6987 0.2212z" fill="#2FAC66"/>
<polygon id="Shape" points="43.934 63.928 46.345 63.043 52.95 68.223 50.49 61.521 52.37 60.831 55.772 70.103 53.361 70.988 46.756 65.803 49.216 72.506 47.336 73.196" fill="#2FAC66"/>
<path id="a" d="m63.98 59.526 1.978-0.2566c0.225 1.5086-0.257 3.1012-1.527 4.3665-2.207 2.1988-5.41 2.0041-7.401 0.0044-1.991-1.9996-2.1724-5.2026 0.035-7.4014 1.27-1.2653 2.876-1.7298 4.362-1.5174l-0.252 1.9864c-0.969-0.1726-1.986 0.0663-2.787 0.8627-1.318 1.3139-1.234 3.2782 0.102 4.6187 1.336 1.3404 3.3 1.4333 4.618 0.1194 0.797-0.8008 1.04-1.8183 0.872-2.7827z" fill="#2FAC66"/>
<polygon points="60.613 52.23 62.98 46.979 64.498 47.66 62.954 51.084 65.09 52.049 66.4 49.142 67.917 49.824 66.608 52.73 68.922 53.774 70.466 50.35 71.983 51.036 69.616 56.283" fill="#2FAC66"/>
</g>
</g>
</svg>
