<?xml version="1.0" encoding="UTF-8"?>
<svg viewBox="0 0 31 38" xmlns="http://www.w3.org/2000/svg">
<path d="m15.692 15.498c2.6324 0.2889 4.8656 0.7732 6.6998 1.4529 1.8342 0.6798 3.3202 1.4955 4.458 2.4471 1.1549 0.9346 1.9871 1.9797 2.4966 3.1353 0.5264 1.1386 0.7897 2.3281 0.7897 3.5686 0 1.4275-0.2293 2.685-0.6879 3.7726-0.4585 1.0876-1.0699 2.0477-1.8341 2.8804-0.7473 0.8157-1.6134 1.5039-2.5984 2.0647-0.968 0.5608-1.97 1.0111-3.006 1.351-1.019 0.3569-2.0295 0.6118-3.0315 0.7647-1.002 0.1699-1.9021 0.2634-2.7003 0.2804h-0.6368c-0.8492-0.017-1.8257-0.0935-2.9296-0.2294-1.0869-0.119-2.2078-0.3144-3.3626-0.5863-1.1379-0.2719-2.2587-0.6203-3.3626-1.0451-1.1039-0.4418-2.0889-0.9856-2.955-1.6314-0.86614-0.6457-1.5624-1.4104-2.0889-2.2941s-0.78971-1.9118-0.78971-3.0843c0-0.6288 0.1019-1.1811 0.30569-1.6569 0.2038-0.4758 0.48402-0.8752 0.84066-1.198 0.35664-0.3399 0.76424-0.6033 1.2228-0.7902 0.47552-0.187 0.98501-0.2974 1.5285-0.3314 0.66234 0 1.2737 0.1444 1.8342 0.4333 0.57742 0.2719 1.0784 0.6628 1.503 1.1726 0.42458 0.4928 0.76424 1.0961 1.019 1.8098 0.27173 0.6967 0.42458 1.4784 0.45854 2.3451 0.03397 0.6967 0.19531 1.4105 0.48402 2.1412s0.71325 1.3934 1.2738 1.9882c0.5604 0.5948 1.2567 1.0791 2.0889 1.453 0.8322 0.3738 1.8087 0.5608 2.9296 0.5608 0.8831 0 1.6813-0.1785 2.3946-0.5353 0.7302-0.3569 1.3501-0.8327 1.8596-1.4275s0.9001-1.283 1.1718-2.0647c0.2718-0.7987 0.4076-1.6314 0.4076-2.4981 0-0.7817-0.1358-1.5549-0.4076-2.3196-0.2717-0.7647-0.6963-1.4444-1.2737-2.0392-0.5774-0.6118-1.3162-1.1131-2.2163-1.5039-0.9001-0.3909-1.9785-0.6118-3.2352-0.6628-2.5645-0.1189-4.7553-0.5013-6.5725-1.147-1.8002-0.6458-3.2777-1.4785-4.4326-2.4981-1.1548-1.0366-2.004-2.2176-2.5474-3.5431-0.52647-1.3255-0.78971-2.719-0.78971-4.1804 0-1.5804 0.23776-2.9654 0.71329-4.1549 0.47552-1.2065 1.1039-2.2431 1.8851-3.1098 0.7982-0.88366 1.7068-1.6144 2.7258-2.1922 1.019-0.59478 2.0719-1.0706 3.1588-1.4275 1.1039-0.35686 2.1908-0.60327 3.2608-0.73922 1.0869-0.15294 2.0889-0.22941 3.006-0.22941h0.3056c0.8492 0.016994 1.7918 0.093464 2.8277 0.22941 1.053 0.11896 2.1144 0.31438 3.1843 0.58628 1.0869 0.27189 2.1314 0.62876 3.1334 1.0706 1.019 0.44183 1.9191 0.98562 2.7003 1.6314 0.7982 0.64575 1.4351 1.4105 1.9106 2.2941 0.4755 0.86667 0.7133 1.8693 0.7133 3.0078 0 0.66275-0.1104 1.2406-0.3312 1.7334s-0.518 0.9091-0.8916 1.249c-0.3566 0.3229-0.7812 0.5693-1.2737 0.7392s-1.002 0.2549-1.5285 0.2549c-0.6454 0-1.2483-0.1444-1.8087-0.4333s-1.0529-0.6883-1.4775-1.1981c-0.4076-0.5098-0.7388-1.113-0.9935-1.8098-0.2378-0.71373-0.3567-1.4954-0.3567-2.3451 0-0.73072-0.0934-1.4529-0.2802-2.1667s-0.5095-1.351-0.968-1.9118c-0.4416-0.57778-1.036-1.0451-1.7832-1.402-0.7473-0.35687-1.6729-0.55229-2.7768-0.58628h-0.2547c-0.8322 0.033987-1.6049 0.28039-2.3182 0.73922-0.6963 0.44183-1.2992 1.0281-1.8087 1.7588-0.5095 0.73072-0.90857 1.5549-1.1973 2.4726-0.27173 0.90066-0.40759 1.8183-0.40759 2.753 0 0.81569 0.11888 1.6059 0.35664 2.3706 0.25475 0.7647 0.64533 1.4614 1.1718 2.0902 0.5435 0.6118 1.2313 1.1301 2.0634 1.5549 0.8322 0.4248 1.8427 0.6967 3.0315 0.8157z" fill="#5222D0"/>
<circle cx="25.356" cy="9.579" r="3.9443" fill="#EC615B"/>
</svg>
