<?xml version="1.0" encoding="UTF-8"?>
<svg viewBox="0 0 77 77" xmlns="http://www.w3.org/2000/svg">
<path d="m29.246 60.487s0.01-0.01 0.04-0.02c-0.05-0.19-1.1396-4.9185 0-10.817 0.7998-4.1688 2.7292-8.9373 6.938-13.086 1.4595-1.4396 3.0091-2.6192 4.5786-3.559-2.5792-10.567-11.557-16.005-11.557-16.005s-12.246 7.4178-12.246 21.754c0 14.316 12.246 21.734 12.246 21.734z" fill="#00FFB0"/>
<path d="m60.926 27.777c-0.4158-0.0979-9.6371-2.1703-18.923 2.3104-3.371-9.6292-11.356-14.574-11.722-14.796-0.6379-0.3868-1.4366-0.3838-2.0714 1e-3 -0.5389 0.3259-13.21 8.1796-13.21 23.46 0 15.269 12.671 23.122 13.211 23.449 0.2169 0.132 0.4528 0.201 0.6928 0.2429 0.4328 0.097 2.6512 0.5579 5.8462 0.5579 5.3824 0 13.47-1.3196 20.185-7.9417 10.948-10.796 7.6257-25.198 7.4788-25.806-0.177-0.7338-0.7518-1.3046-1.4876-1.4776zm-41.928 10.976c0-10.615 7.4668-17.222 10.253-19.317 2.1603 1.6115 7.1028 5.8983 9.2272 12.687-5e-3 3e-3 -9e-3 7e-3 -0.014 0.01-0.5768 0.3959-1.1316 0.8218-1.6765 1.2617-0.1359 0.1099-0.2709 0.2219-0.4049 0.3339-0.5378 0.4528-1.0656 0.9187-1.5665 1.4136-0.3989 0.3928-0.7718 0.7917-1.1337 1.1936-0.1069 0.119-0.2099 0.2389-0.3139 0.3589-0.2609 0.3009-0.5128 0.6038-0.7547 0.9087-0.093 0.117-0.188 0.234-0.278 0.3519-0.3119 0.4079-0.6128 0.8178-0.8917 1.2306-0.025 0.037-0.048 0.075-0.073 0.113-0.032 0.047-0.06 0.094-0.0909 0.142v-9.1773c0-1.1037-0.8958-1.9994-1.9994-1.9994-1.1047 0-1.9995 0.8957-1.9995 1.9994v4.0198l-1.7734-1.7145c-0.7958-0.7678-2.0624-0.7468-2.8272 0.048-0.7688 0.7938-0.7468 2.0594 0.047 2.8272l4.5536 4.4017v4.0777l-1.6575-1.8974c-0.7267-0.8317-1.9884-0.9167-2.8201-0.1899-0.8318 0.7267-0.9167 1.9894-0.191 2.8211l4.5897 5.2545c-4e-3 0.022-8e-3 0.044-0.011 0.066-0.017 0.1019-0.036 0.2049-0.052 0.3059-0.059 0.3778-0.111 0.7497-0.154 1.1156-0.011 0.09-0.019 0.178-0.029 0.2669-0.0309 0.284-0.0589 0.5639-0.0819 0.8408-0.01 0.118-0.019 0.2349-0.027 0.3519-0.019 0.2669-0.034 0.5278-0.046 0.7858-4e-3 0.0869-0.01 0.1749-0.013 0.2599-0.013 0.3299-0.02 0.6508-0.022 0.9637-1e-3 0.091 0 0.1769 0 0.2659 0 0.2309 2e-3 0.4559 7e-3 0.6768 1e-3 0.05 0 0.104 2e-3 0.154-3.313-3.1691-7.7777-8.9664-7.7777-17.212zm33.129 13.461c-6.4941 6.4031-14.726 6.9639-19.176 6.707 1.6295-2.0874 4.1467-5.1605 7.2248-8.4375 1.1677-0.4789 5.1635-1.9904 10.058-2.4243 1.0997-0.098 1.9124-1.0677 1.8145-2.1683-0.097-1.0997-1.0447-1.9115-2.1684-1.8145-1.2996 0.115-2.5342 0.2979-3.6859 0.5148 2.0994-1.8704 4.3177-3.6509 6.5961-5.1834 0.9167-0.6168 1.1596-1.8585 0.5428-2.7752-0.6148-0.9157-1.8605-1.1596-2.7742-0.5418-3.313 2.2293-6.4751 4.9065-9.3382 7.6387-0.013-0.4269-0.036-0.8657-0.082-1.3256-0.1089-1.0977-1.0747-1.9014-2.1873-1.7915-1.0997 0.11-1.9005 1.0887-1.7915 2.1874 0.3009 3.0201-0.3899 5.0825-0.6468 5.7263-2.3133 2.5072-4.2797 4.8565-5.7693 6.721 0-0.032-2e-3 -0.061-2e-3 -0.093 0-0.043 1e-3 -0.089 1e-3 -0.132 0-0.3209 7e-3 -0.6528 0.02-0.9947 2e-3 -0.0459 2e-3 -0.0909 4e-3 -0.1379 0.015-0.3599 0.041-0.7328 0.073-1.1137 6e-3 -0.076 0.013-0.1519 0.021-0.2289 0.036-0.3879 0.08-0.7838 0.1369-1.1897 6e-3 -0.044 0.014-0.0889 0.021-0.1329 0.047-0.3249 0.106-0.6578 0.168-0.9917 0.042-0.138 0.069-0.2809 0.08-0.4299 0.0809-0.3999 0.1749-0.8058 0.2799-1.2156 0.022-0.085 0.045-0.17 0.068-0.255 0.1179-0.4378 0.2469-0.8797 0.3948-1.3256 0.011-0.035 0.025-0.07 0.037-0.1049 0.143-0.4259 0.3039-0.8538 0.4779-1.2837 0.03-0.0749 0.059-0.1499 0.09-0.2259 0.1839-0.4419 0.3868-0.8847 0.6068-1.3286 0.043-0.086 0.088-0.1729 0.1319-0.2589 0.233-0.4559 0.4809-0.9128 0.7548-1.3666 0.011-0.018 0.024-0.036 0.035-0.054 0.2679-0.4409 0.5598-0.8787 0.8687-1.3146 0.056-0.079 0.11-0.159 0.168-0.2379 0.3169-0.4349 0.6558-0.8658 1.0177-1.2927 0.068-0.0799 0.139-0.1599 0.2089-0.2399 0.3839-0.4409 0.7848-0.8787 1.2197-1.3076 0.6358-0.6268 1.3066-1.2156 2.0104-1.7625 0.0829-0.065 0.1709-0.1229 0.2539-0.1859 0.2709-0.205 0.5428-0.4099 0.8227-0.6018 0.3669-0.252 0.7398-0.4929 1.1207-0.7218l1e-3 -1e-3s1e-3 0 1e-3 -1e-3c6.714-4.0618 14.029-3.6389 16.913-3.2571 0.4718 3.449 0.9957 13.242-6.621 20.754z" fill="#333"/>
</svg>
