<?xml version="1.0" standalone="no"?>
<!DOCTYPE svg PUBLIC "-//W3C//DTD SVG 20010904//EN"
 "http://www.w3.org/TR/2001/REC-SVG-20010904/DTD/svg10.dtd">
<svg version="1.0" xmlns="http://www.w3.org/2000/svg"
 width="887.000000pt" height="355.000000pt" viewBox="0 0 887.000000 355.000000"
 preserveAspectRatio="xMidYMid meet">

<g transform="translate(0.000000,355.000000) scale(0.100000,-0.100000)"
fill="#000000" stroke="none">
<path d="M1615 3544 c-423 -49 -770 -208 -1056 -482 -331 -317 -517 -708 -548
-1155 -55 -793 408 -1513 1149 -1790 224 -83 408 -112 675 -104 216 6 317 24
509 88 856 285 1359 1181 1160 2066 -26 117 -69 247 -118 356 l-26 57 -215 0
-215 0 0 -435 c0 -422 -1 -436 -20 -455 -19 -19 -33 -20 -495 -20 l-475 0 0
-434 c0 -412 -1 -435 -19 -457 l-19 -24 -621 -3 -621 -3 2 277 3 278 455 127
c250 70 472 133 493 139 l37 11 0 268 c0 206 3 270 13 273 6 3 225 81 485 173
l472 168 0 243 0 242 170 68 c94 37 170 71 170 75 0 13 -103 96 -203 163 -234
156 -506 254 -789 285 -90 10 -284 13 -353 5z"/>
<path d="M5430 2719 l0 -370 38 -16 c56 -24 177 -29 244 -9 86 25 148 71 181
136 102 202 -26 395 -250 377 l-63 -5 0 129 0 129 -75 0 -75 0 0 -371z m286
-24 c119 -77 55 -272 -86 -263 l-45 3 -3 137 c-2 124 -1 137 15 142 30 8 92
-1 119 -19z"/>
<path d="M4160 2675 l0 -355 200 0 200 0 0 60 0 60 -125 0 -125 0 0 295 0 295
-75 0 -75 0 0 -355z"/>
<path d="M4726 2821 c-32 -11 -63 -24 -68 -29 -6 -6 -2 -25 11 -51 12 -22 23
-41 24 -41 2 0 25 7 51 16 62 21 134 14 158 -16 32 -40 24 -47 -64 -54 -115
-10 -179 -41 -208 -102 -40 -81 -6 -178 73 -214 59 -27 123 -25 182 5 47 23
64 21 65 -7 0 -5 28 -8 63 -8 l62 0 -3 192 c-3 176 -5 197 -25 237 -30 62 -76
84 -181 88 -60 2 -96 -2 -140 -16z m194 -326 l0 -54 -40 -11 c-63 -17 -120 10
-120 55 0 41 39 63 113 64 l47 1 0 -55z"/>
<path d="M6177 2826 c-111 -41 -176 -134 -177 -252 -1 -145 94 -250 235 -262
184 -14 307 110 293 293 -8 96 -53 166 -133 207 -51 27 -165 34 -218 14z m154
-121 c20 -13 49 -89 49 -133 0 -80 -39 -138 -101 -148 -47 -8 -100 29 -117 81
-18 51 -9 141 16 174 32 44 104 56 153 26z"/>
<path d="M6848 2826 c-21 -8 -50 -21 -64 -31 -22 -14 -28 -15 -35 -4 -5 8 -9
20 -9 27 0 8 -20 12 -65 12 l-65 0 0 -255 0 -255 75 0 75 0 0 179 0 179 46 18
c63 24 103 22 126 -5 16 -21 18 -43 18 -197 l0 -174 75 0 75 0 0 189 c0 196
-6 238 -44 280 -44 49 -131 65 -208 37z"/>
<path d="M7448 2826 c-21 -8 -50 -21 -64 -31 -22 -14 -28 -15 -35 -4 -5 8 -9
20 -9 27 0 8 -20 12 -65 12 l-65 0 0 -255 0 -255 75 0 75 0 0 179 0 179 46 18
c63 24 103 22 126 -5 16 -21 18 -43 18 -197 l0 -174 75 0 75 0 0 189 c0 196
-6 238 -44 280 -44 49 -131 65 -208 37z"/>
<path d="M7946 2825 c-189 -67 -208 -384 -28 -483 77 -43 223 -39 300 8 l32
20 -17 42 c-9 24 -17 44 -18 46 -1 1 -18 -5 -38 -13 -20 -8 -64 -15 -98 -15
-58 0 -63 2 -100 39 -68 68 -63 71 127 71 l167 0 -5 68 c-6 80 -33 138 -83
180 -63 51 -158 66 -239 37z m148 -126 c44 -52 37 -59 -64 -59 -102 0 -113 10
-63 62 39 40 92 39 127 -3z"/>
<path d="M4312 2117 c-75 -28 -112 -91 -112 -194 l0 -53 -40 0 -40 0 0 -55 0
-55 40 0 40 0 0 -200 0 -200 75 0 75 0 0 200 0 200 49 0 49 0 16 47 c9 26 16
50 16 55 0 4 -29 8 -65 8 l-65 0 0 51 c0 77 11 91 72 87 l51 -3 13 45 c18 60
19 58 -23 69 -49 14 -109 13 -151 -2z"/>
<path d="M7485 2098 c-31 -18 -44 -40 -44 -73 0 -49 40 -85 94 -85 35 0 85 50
85 85 0 59 -82 103 -135 73z"/>
<path d="M7128 2008 l-68 -21 0 -58 0 -59 -45 0 -45 0 0 -55 0 -55 45 0 45 0
0 -160 c0 -183 8 -212 65 -236 19 -8 56 -14 83 -14 57 0 151 26 158 43 8 21
-22 92 -37 88 -8 -2 -31 -5 -51 -8 -63 -9 -68 1 -68 153 l0 134 59 0 58 0 20
55 21 55 -79 0 -79 0 0 80 c0 44 -3 80 -7 79 -5 0 -38 -10 -75 -21z"/>
<path d="M4707 1866 c-111 -41 -176 -134 -177 -252 -1 -145 94 -250 235 -262
184 -14 307 110 293 293 -8 96 -53 166 -133 207 -51 27 -165 34 -218 14z m154
-121 c20 -13 49 -89 49 -133 0 -80 -39 -138 -101 -148 -47 -8 -100 29 -117 81
-18 51 -9 141 16 174 32 44 104 56 153 26z"/>
<path d="M5361 1870 c-13 -6 -36 -19 -52 -31 l-28 -20 -7 26 c-6 23 -10 25
-70 25 l-64 0 0 -255 0 -255 75 0 75 0 0 181 0 180 43 19 c35 16 51 18 78 10
19 -6 35 -10 37 -10 1 0 14 26 27 57 16 36 22 60 16 66 -14 14 -102 19 -130 7z"/>
<path d="M5743 1850 l-63 -29 -6 24 c-6 23 -11 25 -70 25 l-64 0 0 -255 0
-255 75 0 75 0 0 179 0 179 36 17 c54 25 103 24 125 -4 17 -21 19 -42 19 -197
l0 -174 75 0 75 0 0 179 0 179 36 17 c54 25 103 24 125 -4 17 -21 19 -42 19
-197 l0 -174 76 0 75 0 -3 203 c-3 181 -5 206 -23 236 -29 50 -64 71 -127 78
-61 6 -112 -7 -169 -43 l-37 -23 -18 21 c-50 55 -139 62 -231 18z"/>
<path d="M6546 1861 c-32 -11 -63 -24 -68 -29 -6 -6 -2 -25 11 -51 12 -22 23
-41 24 -41 2 0 25 7 51 16 62 21 134 14 158 -16 32 -40 24 -47 -64 -54 -115
-10 -179 -41 -208 -102 -40 -81 -6 -178 73 -214 59 -27 123 -25 182 5 47 23
64 21 65 -7 0 -5 28 -8 63 -8 l62 0 -3 192 c-3 176 -5 197 -25 237 -30 62 -76
84 -181 88 -60 2 -96 -2 -140 -16z m194 -326 l0 -54 -40 -11 c-63 -17 -120 10
-120 55 0 41 39 63 113 64 l47 1 0 -55z"/>
<path d="M7887 1866 c-111 -41 -176 -134 -177 -252 -1 -145 94 -250 235 -262
184 -14 307 110 293 293 -8 96 -53 166 -133 207 -51 27 -165 34 -218 14z m154
-121 c20 -13 49 -89 49 -133 0 -80 -39 -138 -101 -148 -47 -8 -100 29 -117 81
-18 51 -9 141 16 174 32 44 104 56 153 26z"/>
<path d="M8558 1866 c-21 -8 -50 -21 -64 -31 -22 -14 -28 -15 -35 -4 -5 8 -9
20 -9 27 0 8 -20 12 -65 12 l-65 0 0 -255 0 -255 75 0 75 0 0 179 0 179 46 18
c63 24 103 22 126 -5 16 -21 18 -43 18 -197 l0 -174 75 0 75 0 0 189 c0 196
-6 238 -44 280 -44 49 -131 65 -208 37z"/>
<path d="M7450 1615 l0 -255 75 0 75 0 0 255 0 255 -75 0 -75 0 0 -255z"/>
</g>
</svg>
