<?xml version="1.0" encoding="UTF-8"?>
<svg fill="none" viewBox="0 0 80 64" xmlns="http://www.w3.org/2000/svg">
<path d="m39.916 0.23914c-11.52 0-20.859 9.2847-20.859 20.738s9.339 20.738 20.859 20.738c11.52 0 20.859-9.2847 20.859-20.738 8e-4 -5.5003-2.1966-10.776-6.1086-14.665-3.9121-3.8893-9.2182-6.0739-14.751-6.0731z" fill="url(#b)"/>
<path d="m41.875 1.7833c-0.6572-0.06689-1.3174-0.10007-1.9781-0.09941-6.342 0.00678-12.281 3.094-15.905 8.2682-3.6241 5.1742-4.4765 11.783-2.2828 17.698 3.6938-8.5188 12.981-8.7207 20.094-6.2291 8.5468 1.7491 18.309 1.3515 16.916-4.9709-1.5938-7.3351-8.1406-13.788-16.844-14.667z" fill="url(#a)"/>
<path d="m50.816 7.2668c-1.9021-0.02483-3.792 0.305-5.5718 0.97243-1.5909 0.599-3.0239 1.5498-4.1907 2.7806-1.162 1.2528-2.0458 2.7348-2.5937 4.3495-0.6115 1.7926-0.9147 3.6747-0.8969 5.5674 0 4.2781 1.2125 7.5961 3.6125 10.05s5.7469 3.6815 10.15 3.6847c1.6825 0.027 3.3586-0.2121 4.9656-0.7084 2.6188-0.9165 5.5657-3.5138 6.0688-5.9619 0.3281-1.6031-0.6594-1.9511-1.1938-2.0226-0.1 0-0.2031-0.0186-0.3125-0.0186-0.5073-0.019-1.0037 0.1492-1.3937 0.4722-0.3688 0.3387-1.4406 1.336-1.9906 1.8144-0.5769 0.4998-1.19 0.9567-1.8344 1.367-0.6521 0.4237-1.3641 0.7483-2.1125 0.9631-0.7805 0.2141-1.5873 0.3186-2.3969 0.3107-2.6609 0.0413-5.1023-1.4623-6.25-3.8493-0.6173-1.2337-0.9554-2.5868-0.9906-3.9643-0.0121-0.213 0.0682-0.421 0.2206-0.5712 0.1523-0.1503 0.3621-0.2285 0.5763-0.2148h13.231c1.7844 0 3.125-0.2579 4.0625-0.7301 0.8156-0.4194 1.2781-1.3453 1.2875-3.0292-0.0149-1.8701-0.4994-3.7069-1.4094-5.3436-0.9821-1.787-2.4493-3.2639-4.2343-4.2626-1.875-1.0998-4.1375-1.6559-6.8032-1.6559zm5.6907 11.908h-11.8c-0.4282 0-0.8563-0.3449-0.7907-0.7643 0.275-2.2307 0.9532-3.9829 2.0938-5.2039 1.1755-1.2673 2.8448-1.9674 4.5781-1.92 1.9031 0 3.5094 0.6214 4.6875 1.892 1.1781 1.2707 1.8063 2.9981 2.0094 5.2816-0.0251 0.4059-0.3692 0.7192-0.7781 0.7083v0.0063z" fill="#DA001F"/>
<path d="m41.053 11.02c-1.162 1.2528-2.0458 2.7347-2.5937 4.3495-0.6115 1.7925-0.9147 3.6746-0.8969 5.5673 0 4.2781 1.2125 7.5962 3.6125 10.05 2.4 2.4544 5.7469 3.6816 10.15 3.6847 1.6264 0.0235 3.2469-0.1985 4.8063-0.6586 1.8998-2.3302 3.2677-5.0429 4.0093-7.9503-0.2529 0.0712-0.4866 0.1975-0.6843 0.3697-0.3688 0.3386-1.4407 1.3359-1.9907 1.8143-0.5769 0.4998-1.19 0.9567-1.8343 1.367-0.6521 0.4237-1.3641 0.7483-2.1125 0.9631-0.7805 0.2141-1.5873 0.3187-2.3969 0.3107-2.661 0.0414-5.1023-1.4622-6.25-3.8493-0.6173-1.2337-0.9555-2.5868-0.9906-3.9643-0.0121-0.213 0.0682-0.4209 0.2205-0.5712 0.1524-0.1503 0.3622-0.2285 0.5763-0.2148h13.231c0.9542 0.0164 1.9069-0.0817 2.8375-0.292 0.0156-0.3387 0.025-0.6835 0.025-1.0284 0.0081-4.5755-1.5145-9.0238-4.3281-12.645-1.7803-0.73965-3.696-1.1026-5.625-1.0656-1.9021-0.02483-3.7921 0.30501-5.5719 0.97243-1.5929 0.6013-3.0271 1.5554-4.1938 2.79zm9.5344 0.2609c1.9031 0 3.5094 0.6214 4.6875 1.8921 1.1781 1.2706 1.8063 2.998 2.0094 5.2815-0.0219 0.4122-0.3727 0.7304-0.7875 0.7146h-11.791c-0.4282 0-0.8563-0.3449-0.7907-0.7643 0.275-2.2307 0.9532-3.9829 2.0938-5.2039 1.1755-1.2673 2.8448-1.9674 4.5781-1.92z" fill="#fff"/>
<path d="m60.669 51.548c-2.4376 0-3.6563 1.4591-3.6563 4.3774v7.8012h1.5406v-3.4548h2.1157c2.4479 0 3.6708-1.4498 3.6687-4.3495s-1.225-4.3578-3.6687-4.3743zm1.7312 6.3099c-0.3333 0.4846-0.9104 0.7269-1.7312 0.7269h-2.1157v-2.6625c0-0.8916 0.1313-1.5378 0.4-1.9355 0.325-0.493 0.8969-0.7405 1.7157-0.7425 0.8187-0.0021 1.3958 0.2454 1.7312 0.7425 0.275 0.3977 0.4125 1.0428 0.4125 1.9355 0 0.8824-0.1469 1.5255-0.4125 1.9356zm4.6-0.727v-9.0284h-1.5375v9.0097c0 2.1085 1.3125 3.1627 3.9375 3.1627v-1.6963c-0.9594 0-1.6188-0.1491-1.9844-0.4473-0.2886-0.2503-0.4424-0.6206-0.4156-1.0004zm6.5125-5.5829c-2.4479 0-3.6719 1.4581-3.6719 4.3743 0 2.9163 1.224 4.3661 3.6719 4.3495 2.4375 0 3.6552-1.4498 3.6531-4.3495s-1.2198-4.3578-3.6531-4.3743zm1.7156 6.3099c-0.325 0.4846-0.8968 0.7269-1.7156 0.7269-0.8187 0-1.3917-0.2423-1.7187-0.7269-0.2667-0.3977-0.399-1.0429-0.3969-1.9356s0.1343-1.5378 0.3969-1.9355c0.327-0.493 0.9-0.7405 1.7187-0.7425 0.8188-0.0021 1.3906 0.2454 1.7156 0.7425 0.2646 0.3977 0.3969 1.0428 0.3969 1.9355s-0.1323 1.5379-0.3969 1.9356zm3.0782-6.3099h1.5375v8.7363h-1.5375v-8.7363zm0-3.4455h1.5375v1.6963h-1.5375v-1.6963zm-26.206 3.4455c-1.3 0-2.2615 0.439-2.8844 1.3172-0.625-0.8802-1.5916-1.3193-2.9-1.3172-2.4375 0-3.6562 1.4581-3.6562 4.3743v4.3495h1.5406v-4.3495c0-0.8885 0.1313-1.5316 0.4-1.9262 0.325-0.4929 0.8969-0.7404 1.7156-0.7425 0.8188-0.0021 1.3959 0.2454 1.7313 0.7425 0.2604 0.3894 0.3906 1.0315 0.3906 1.9262v4.3495h1.5625v-4.3495c0-0.8885 0.1333-1.5306 0.4-1.9262 0.325-0.4929 0.8969-0.7404 1.7156-0.7425 0.8188-0.0021 1.3959 0.2454 1.7313 0.7425 0.2666 0.3956 0.4 1.0377 0.4 1.9262v4.3495h1.5406v-4.3495c-0.0104-2.9162-1.2396-4.3743-3.6875-4.3743zm-14.353 0c-2.2281 0-3.6844 1.6155-3.6844 4.4085 0 3.287 1.7313 4.4272 3.9063 4.4272 1.2352 0.0644 2.4327-0.4342 3.2531-1.3546l-1.1125-1.0377c-0.5266 0.6032-1.3042 0.9301-2.1063 0.8855-1.4218 0-2.2093-0.9321-2.2093-2.4202h5.6249v-0.7643c0.0094-2.4419-1.3437-4.1444-3.6718-4.1444zm-1.9531 3.7095c-0.0154-0.4031 0.0605-0.8044 0.2218-1.1744 0.2968-0.6823 0.984-1.1139 1.7313-1.0874 0.7424-0.0258 1.4238 0.4069 1.7125 1.0874 0.1666 0.3689 0.2487 0.77 0.2406 1.1744h-3.9062z" fill="#DA001F"/>
<path d="m18.481 57.131v-9.0284h-1.5375v9.0097c0 2.1085 1.3114 3.1627 3.9343 3.1627v-1.6963c-0.9562 0-1.6166-0.1491-1.9812-0.4473-0.2898-0.2495-0.4439-0.6204-0.4156-1.0004zm10.294-1.4292c0-2.4512-1.3531-4.1537-3.6844-4.1537-2.225 0-3.6812 1.6155-3.6812 4.4085 0 3.287 1.7312 4.4272 3.9062 4.4272 1.2353 0.0644 2.4328-0.4342 3.2532-1.3546l-1.1157-1.0377c-0.5259 0.604-1.304 0.931-2.1062 0.8855-1.4188 0-2.2063-0.9321-2.2063-2.4202h5.625l0.0094-0.755zm-5.625-0.4442c-0.0153-0.4031 0.0605-0.8044 0.2219-1.1744 0.295-0.6824 0.9815-1.1144 1.7281-1.0874 0.7427-0.0267 1.4245 0.4063 1.7125 1.0874 0.1666 0.3689 0.2488 0.77 0.2406 1.1744h-3.9031zm-19.509-3.7095c-2.4271 0-3.6406 1.4581-3.6406 4.3743v7.8012h1.5406v-3.4517h2.1156c2.4479 0 3.6708-1.4498 3.6688-4.3495s-1.2302-4.3578-3.6844-4.3743zm1.7312 6.3099c-0.3375 0.4846-0.9125 0.7269-1.7312 0.7269h-2.1156v-2.6625c0-0.8916 0.13125-1.5378 0.4-1.9355 0.325-0.493 0.89688-0.7405 1.7156-0.7425 0.81875 0 1.3938 0.2485 1.7312 0.7425 0.26666 0.3977 0.4 1.0428 0.4 1.9355 0 0.8823-0.14688 1.5255-0.4 1.9356zm6.675-6.3099c-2.4459 0-3.6688 1.4581-3.6688 4.3743 0 2.9163 1.2229 4.3661 3.6688 4.3495 2.4375 0 3.6562-1.4498 3.6562-4.3495s-1.2187-4.3578-3.6562-4.3743zm1.7031 6.3099c-0.325 0.4846-0.8937 0.7269-1.7062 0.7269s-1.3855-0.2423-1.7188-0.7269c-0.2656-0.4101-0.39687-1.0533-0.39687-1.9356s0.13127-1.5378 0.39687-1.9355c0.3333-0.493 0.9063-0.7405 1.7188-0.7425 0.8125-0.0021 1.3812 0.2454 1.7062 0.7425 0.2625 0.3977 0.3969 1.0439 0.3969 1.9355 0 0.8917-0.1313 1.5534-0.3969 1.9356zm-1.775-8.4226 2.4563 1.3826 0.6937-0.9352-3.15-1.7802-3.1531 1.7802 0.69687 0.9352 2.4562-1.3826z" fill="#003979"/>
<defs>
<linearGradient id="b" x1="40.069" x2="40.069" y1=".23914" y2="41.715" gradientUnits="userSpaceOnUse">
<stop stop-color="#5FC4E4" offset="0"/>
<stop stop-color="#5DC2E3" offset=".01"/>
<stop stop-color="#1B6AA1" offset=".28"/>
<stop stop-color="#004787" offset=".41"/>
<stop stop-color="#003A72" offset=".6"/>
<stop stop-color="#00173D" offset=".99"/>
<stop stop-color="#00163B" offset="1"/>
</linearGradient>
<linearGradient id="a" x1="42.093" x2="40.794" y1="2.5634" y2="30.261" gradientUnits="userSpaceOnUse">
<stop stop-color="#A2DAF4" offset="0"/>
<stop stop-color="#90C8E5" offset=".09"/>
<stop stop-color="#538BB2" offset=".4"/>
<stop stop-color="#265E8D" offset=".67"/>
<stop stop-color="#0A4276" offset=".88"/>
<stop stop-color="#00386E" offset="1"/>
</linearGradient>
</defs>
</svg>
