<?xml version="1.0" encoding="UTF-8"?>
<svg version="1.1" viewBox="0 0 129 67" xmlns="http://www.w3.org/2000/svg">
<g fill="none" fill-rule="evenodd">
<g fill-rule="nonzero">
<path id="Shape" d="m53.568 38.985c-3.257 7.522-11.081 12.857-20.214 12.857-8.374 0-15.648-4.505-19.282-11.079v25.532h114.38v-27.31h-74.889z" fill="#1E4485"/>
<path id="Shape" d="m16.101 16.947c0.466 1.896-0.972 3.792-3.341 5.035-0.253 0-0.379-0.177-0.295-0.354 1.101-0.652 1.859-2.191 1.606-3.14-0.128-0.474-0.169-0.356-0.676-0.534-0.464-0.118-0.848-0.65-0.931-1.066-0.17-0.77 0.295-1.659 1.14-1.835 0.848-0.238 2.118 0.236 2.497 1.894" fill="#1E4485"/>
<path id="Shape" d="m5.321 39.755c-2.412 0-3.85-0.65-4.95-1.303l1.017-2.014c0.76 0.473 2.197 1.185 4.059 1.185 2.07 0 3.553-0.888 3.553-2.486 0-4.089-7.611-2.666-7.611-8.532 0-2.428 1.732-4.443 5.538-4.443 1.776 0 3.131 0.415 4.23 0.89v2.25c-1.187-0.473-2.371-0.947-4.103-0.947s-3.13 0.592-3.13 2.133c0 3.732 7.781 2.785 7.781 8.292 0 3.493-2.92 4.975-6.384 4.975" fill="#1E4485"/>
<path id="Shape" d="m73.442 24.412c-2.284 0-3.806 1.54-3.806 3.85 0 2.37 1.521 4.029 3.806 4.029 2.198 0 3.892-1.422 3.892-3.971-1e-3 -2.368-1.649-3.908-3.892-3.908m-2.538 14.988c-0.93 0.533-2.408 1.48-2.408 3.081 0 1.776 2.112 3.139 5.369 3.139 3.297 0 5.286-1.184 5.286-3.021 0-3.022-6.048-2.608-8.247-3.199m2.791 8.353c-5.073 0-7.906-2.191-7.906-4.976 0-1.838 1.269-3.2 3.17-4.207-0.888-0.472-1.142-1.244-1.142-2.014 0-0.83 0.55-2.074 1.904-3.199-1.733-1.006-2.748-3.021-2.748-5.095 0-3.494 2.833-6.101 6.216-6.101 1.267 0 2.154 0.178 2.959 0.593 0.211 0.118 0.296 0.059 0.425-0.061 0.842-0.77 2.578-1.541 4.691-1.185l-0.761 2.369c-0.888-0.236-1.732-0.296-2.452 0.059 1.27 1.126 1.945 2.606 1.945 4.383 0 3.615-2.663 6.162-6.597 6.162-0.763 0-1.481-0.119-2.113-0.356-0.55 0.594-0.848 1.126-0.848 1.955 0 2.43 11.587-0.057 11.587 6.28 1e-3 2.787-2.493 5.393-8.33 5.393" fill="#1E4485"/>
<path id="Shape" d="m92.089 31.343-3.34 0.06c-3.044 0.119-4.229 1.185-4.229 3.021 0 1.717 1.06 3.08 3.257 3.08 2.198 0 3.51-1.125 4.313-1.897v-4.264h-1e-3zm0.805 8.057-0.678-1.66c-1.015 1.008-2.663 2.015-5.159 2.015-2.707 0-5.115-1.954-5.115-5.154 0-3.317 2.282-5.33 6.723-5.45l3.425-0.119v-0.771c0-2.901-1.523-3.85-3.637-3.85-2.154 0-3.508 0.888-4.397 1.54l-1.057-1.837c2.029-1.48 3.806-1.955 5.919-1.955 3.172 0 5.751 1.422 5.751 5.689v5.093c0 4.74 0.127 5.925 0.339 6.458h-2.114v1e-3z" fill="#1E4485"/>
<path id="Shape" d="m104.01 24.412c-2.24 0-3.805 1.54-3.805 3.85 0 2.37 1.564 4.029 3.805 4.029 2.201 0 3.893-1.422 3.893-3.971-1e-3 -2.368-1.651-3.908-3.893-3.908m-2.535 14.988c-0.932 0.533-2.412 1.48-2.412 3.081 0 1.776 2.113 3.139 5.373 3.139 3.297 0 5.283-1.184 5.283-3.021 0-3.022-6.045-2.608-8.244-3.199m2.789 8.353c-5.074 0-7.908-2.191-7.908-4.976 0-1.838 1.27-3.2 3.217-4.207-0.932-0.472-1.188-1.244-1.188-2.014 0-0.83 0.553-2.074 1.906-3.199-1.734-1.006-2.75-3.021-2.75-5.095 0-3.494 2.832-6.101 6.217-6.101 1.268 0 2.156 0.178 2.961 0.593 0.207 0.118 0.338 0.059 0.422-0.061 0.844-0.77 2.578-1.541 4.693-1.185l-0.762 2.369c-0.889-0.236-1.734-0.296-2.451 0.059 1.268 1.126 1.943 2.606 1.943 4.383 0 3.615-2.662 6.162-6.596 6.162-0.762 0-1.482-0.119-2.113-0.356-0.508 0.594-0.848 1.126-0.848 1.955 0 2.43 11.588-0.057 11.588 6.28 1e-3 2.787-2.453 5.393-8.331 5.393" fill="#1E4485"/>
<path id="Shape" d="m120.34 24.353c-2.492 0-4.059 2.192-4.059 4.857h7.906c9.99e-4 -2.31-1.308-4.857-3.847-4.857zm-4.059 7.05c0 3.198 1.818 6.043 5.541 6.043 1.438 0 3.002-0.535 3.973-1.186l0.803 1.777c-1.223 1.008-3.338 1.718-5.281 1.718-5.246 0-7.826-4.323-7.826-9.123 0-4.857 2.791-8.472 6.809-8.472 4.313 0 6.725 3.437 6.725 8.65v0.593h-10.744z" fill="#1E4485"/>
<path id="Shape" d="m61.686 39.222v-10.307c0-2.133-0.381-4.444-2.918-4.444-2.071 0-3.89 1.422-5.2 2.607v11.909h-2.581v-16.53h2.115l0.339 1.955c1.988-1.422 3.679-2.43 6.003-2.43 2.412 0 4.822 1.778 4.822 5.925v11.314h-2.58v1e-3z" fill="#1E4485"/>
<path id="Shape" d="m77.459 1.131c0.211 0.947-0.465 1.895-1.649 2.487-0.128 0-0.17-0.119-0.128-0.178 0.551-0.355 0.889-1.066 0.762-1.54-0.043-0.238-0.043-0.179-0.296-0.295-0.254-0.061-0.424-0.298-0.466-0.534-0.083-0.356 0.128-0.772 0.551-0.889 0.425-0.119 1.016 0.117 1.226 0.949" fill="#1E4485"/>
<path id="Shape" d="m73.822 14.816c-1.056 0-1.521-0.712-1.521-1.6v-11.433h1.352v10.84c0 0.831 0.169 1.006 0.679 1.006 0.124 0 0.253 0 0.464-0.058l0.17 0.948c-0.382 0.177-0.72 0.297-1.144 0.297" fill="#1E4485"/>
<polygon id="Shape" points="79.573 14.638 79.573 2.67 85.451 2.67 84.945 3.915 80.925 3.915 80.925 7.884 84.903 7.884 84.903 9.127 80.925 9.127 80.925 13.393 85.493 13.393 85.493 14.638" fill="#1E4485"/>
<path id="Shape" d="m93.443 14.638-0.381-0.889c-0.633 0.534-1.607 1.066-2.749 1.066-1.183 0-2.619-0.592-2.619-3.021v-5.746h1.309v5.628c0 1.422 0.593 1.955 1.693 1.955 1.099 0 1.902-0.652 2.282-1.127v-6.456h1.312v4.976c0 2.725 0.042 3.259 0.21 3.614h-1.057z" fill="#08519F"/>
<path id="Shape" d="m100.89 7.351c-0.211-0.06-0.467-0.12-0.846-0.12-0.51 0-1.313 0.416-1.861 1.008v6.398h-1.354v-8.59h1.1l0.17 0.947c1.184-1.066 1.859-1.184 2.451-1.184 0.383 0 0.721 0.177 0.889 0.237l-0.549 1.304z" fill="#08519F"/>
<path id="Shape" d="m105.79 6.936c-1.648 0-2.537 1.304-2.537 3.317 0 2.073 0.932 3.376 2.537 3.376 1.607 0 2.58-1.303 2.58-3.376 0-2.014-0.93-3.317-2.58-3.317m2.707 6.813c-0.678 0.651-1.648 1.067-2.75 1.067-1.057 0-1.988-0.357-2.662-1.067-0.762-0.771-1.186-2.014-1.186-3.436 0-1.421 0.424-2.607 1.186-3.377 0.674-0.711 1.605-1.125 2.705-1.125s2.029 0.414 2.707 1.125c0.76 0.77 1.182 1.956 1.182 3.377s-0.422 2.606-1.182 3.436" fill="#08519F"/>
<path id="Shape" d="m114.42 6.995c-0.637 0-1.1 0.119-1.48 0.239v6.1c0.467 0.18 0.803 0.295 1.395 0.295 1.777 0 3.002-1.243 3.002-3.375-1e-3 -2.252-1.355-3.259-2.917-3.259m-0.041 7.821c-0.637 0-1.102-0.12-1.439-0.296v4.384h-1.311v-12.501c0.549-0.236 1.563-0.592 2.791-0.592 2.621 0 4.27 1.659 4.27 4.444 0 2.961-2.157 4.561-4.311 4.561" fill="#08519F"/>
<path id="Shape" d="m123.64 6.936c-1.27 0-2.072 1.125-2.072 2.487h4.059c-1e-3 -1.184-0.677-2.487-1.987-2.487zm-2.114 3.613c0 1.659 0.971 3.082 2.873 3.082 0.719 0 1.521-0.297 2.031-0.593l0.422 0.889c-0.635 0.532-1.734 0.888-2.705 0.888-2.709 0-4.02-2.192-4.02-4.68 0-2.487 1.398-4.324 3.469-4.324 2.24 0 3.467 1.778 3.467 4.444v0.295h-5.537v-1e-3z" fill="#08519F"/>
<path id="Shape" d="m69.845 55.811c-1.267 0-2.071 1.124-2.071 2.487h4.062c-1e-3 -1.184-0.676-2.487-1.991-2.487zm-2.112 3.612c0 1.658 0.973 3.079 2.877 3.079 0.719 0 1.521-0.234 2.027-0.59l0.382 0.887c-0.593 0.534-1.69 0.889-2.707 0.889-2.661 0-3.975-2.191-3.975-4.619 0-2.488 1.396-4.384 3.469-4.384 2.24 0 3.425 1.777 3.425 4.443v0.296h-5.498v-1e-3z" fill="#fff"/>
<path id="Shape" d="m79.447 63.51v-5.27c0-1.068-0.17-2.253-1.479-2.253-1.059 0-1.987 0.711-2.665 1.304v6.219h-1.313v-8.588h1.059l0.211 1.007c1.016-0.711 1.86-1.246 3.047-1.246 1.226 0 2.494 0.89 2.494 3.082v5.746h-1.354v-1e-3z" fill="#fff"/>
<polygon id="Shape" points="91.625 52.789 87.608 52.789 87.608 56.818 91.583 56.818 91.583 58.06 87.608 58.06 87.608 63.51 86.255 63.51 86.255 51.544 92.133 51.544" fill="#fff"/>
<path id="Shape" d="m96.699 56.224c-0.168-0.059-0.422-0.119-0.803-0.119-0.508 0-1.352 0.415-1.903 1.008v6.396h-1.312v-8.588h1.101l0.169 1.007c1.183-1.126 1.818-1.244 2.452-1.244 0.381 0 0.721 0.175 0.889 0.296l-0.593 1.244z" fill="#fff"/>
<path id="Shape" d="m102.36 59.363-1.734 0.06c-1.521 0.06-2.154 0.593-2.154 1.54 0 0.891 0.549 1.6 1.689 1.6 1.102 0 1.777-0.592 2.199-1.006v-2.194zm0.381 4.147-0.338-0.828c-0.508 0.533-1.355 1.006-2.621 1.006-1.396 0-2.623-1.006-2.623-2.606 0-1.718 1.186-2.726 3.428-2.841h1.773v-0.416c0-1.482-0.762-1.955-1.861-1.955-1.098 0-1.816 0.416-2.281 0.771l-0.51-0.949c1.016-0.769 1.945-1.008 3.002-1.008 1.65 0 2.963 0.712 2.963 2.904v2.666c0 2.43 0.082 2.963 0.168 3.258h-1.1v-2e-3z" fill="#fff"/>
<path id="Shape" d="m110.65 63.51v-5.27c0-1.068-0.17-2.253-1.48-2.253-1.057 0-1.988 0.711-2.662 1.304v6.219h-1.355v-8.588h1.1l0.168 1.007c1.018-0.711 1.902-1.246 3.088-1.246 1.227 0 2.453 0.89 2.453 3.082v5.746h-1.312v-1e-3z" fill="#fff"/>
<path id="Shape" d="m116.7 63.688c-2.623 0-4.016-2.072-4.016-4.383 0-2.37 1.393-4.621 4.268-4.621 0.764 0 1.609 0.237 2.201 0.591v1.244c-0.553-0.354-1.311-0.651-2.244-0.651-1.816 0-2.875 1.422-2.875 3.377 0 1.896 1.059 3.316 2.834 3.316 0.932 0 1.607-0.295 2.158-0.651l0.379 0.948c-0.635 0.416-1.605 0.83-2.705 0.83" fill="#fff"/>
<path id="Shape" d="m123.46 55.811c-1.266 0-2.07 1.124-2.07 2.487h4.059c-1e-3 -1.184-0.677-2.487-1.989-2.487zm-2.113 3.612c0 1.658 0.973 3.079 2.877 3.079 0.719 0 1.521-0.234 2.031-0.59l0.379 0.887c-0.592 0.534-1.691 0.889-2.707 0.889-2.664 0-3.977-2.191-3.977-4.619 0-2.488 1.396-4.384 3.467-4.384 2.244 0 3.469 1.777 3.469 4.443v0.296h-5.539v-1e-3z" fill="#fff"/>
<path id="Shape" d="m70.904 39.4c2.199 0.591 8.247 0.178 8.247 3.199 0 1.837-1.987 3.021-5.286 3.021-3.255 0-5.369-1.362-5.369-3.139 0-1.601 1.478-2.548 2.408-3.081m-5.115 3.377c0 2.785 2.833 4.976 7.906 4.976 5.835 0 8.331-2.606 8.331-5.391 0-1.66-0.762-2.725-1.943-3.378h-11.756c-1.568 0.949-2.538 2.193-2.538 3.793" fill="#fff"/>
<path id="Shape" d="m101.48 39.4c2.197 0.591 8.244 0.178 8.244 3.199 0 1.837-1.986 3.021-5.283 3.021-3.258 0-5.373-1.362-5.373-3.139-1e-3 -1.601 1.48-2.548 2.412-3.081m-5.12 3.377c0 2.785 2.834 4.976 7.908 4.976 5.879 0 8.332-2.606 8.332-5.391 0-1.66-0.762-2.725-1.945-3.378h-11.756c-1.523 0.949-2.539 2.193-2.539 3.793" fill="#fff"/>
<path id="Shape" d="m42.107 13.038c-3.55-1.719-8.836-2.25-13.488-0.948-8.457 2.369-14.04 9.834-14.42 18.128v0.059 0.355 0.06 0.711 0.415 0.059c0 0.475 0.043 0.889 0.084 1.363 0 0.059 0.044 0.059 0.044 0.118v0.236c0.125 0.949 0.294 1.895 0.549 2.844 0.042 0.06 0.042 0.06 0.042 0.119 0.296 1.008 0.632 2.015 1.059 2.902l0.041 0.061c0.463 1.006 1.016 1.954 1.605 2.843 0.045 0.059 0.083 0.119 0.083 0.177h0.046c0.381 0.593 0.803 1.125 1.27 1.66 4.86 5.626 12.769 8.292 20.424 6.16 4.48-1.304 10.273-4.502 14.123-11.375h-2.581c-2.283 4.563-6.89 7.82-12.011 8.948-6.089 1.363-12.936-2.847-16.573-8.412-0.043-0.12 0.042 0 0.042 0s8.881-2.844 13.192-5.214c5.668-3.14 13.109-11.375 12.22-17.239-1.564-1.483-2.494-2.43-5.751-4.03" fill="#1E4485"/>
<polygon id="Shape" points="40.036 22.813 42.954 20.622 45.914 22.813 44.773 19.317 47.774 17.185 44.093 17.185 42.954 13.629 41.811 17.185 38.133 17.185 41.136 19.317" fill="#FCEE23"/>
<polygon id="a" points="16.397 39.52 19.357 37.386 22.318 39.52 21.176 36.082 24.179 33.891 20.5 33.891 19.357 30.396 18.216 33.949 14.537 33.891 17.541 36.082" fill="#FCEE23"/>
<polygon points="22.275 33.12 28.872 28.321 35.469 33.12 32.932 25.36 39.613 20.562 31.41 20.562 28.872 12.684 26.333 20.562 18.089 20.562 24.772 25.36" fill="#FCEE23"/>
</g>
</g>
</svg>
