<svg width="215" height="86" xmlns="http://www.w3.org/2000/svg" xmlns:xlink="http://www.w3.org/1999/xlink"><defs><path d="M5.6 6.7c0 1.2-.8 2.5-2.8 2.5h-.6v2.9h-1V4h1.7c1.6 0 2.7 1 2.7 2.6zm-1.1 0c0-1-.6-1.6-1.7-1.6h-.6v3.2h.6c1.2 0 1.7-.7 1.7-1.6z" id="a"/><path d="M10.9 5.7h-1l-.8-1-.7 1h-1l1.3-1.8h.9l1.3 1.8zM9 6.3c.8 0 1.4.2 1.9.7.5.6.8 1.3.8 2.2 0 1-.3 1.7-.8 2.3-.5.4-1.1.7-2 .7-.7 0-1.3-.2-1.8-.7-.5-.5-.8-1.3-.8-2.3 0-.9.3-1.6.8-2.2.5-.5 1.1-.7 1.9-.7zm0 .8c-1 0-1.6.9-1.6 2.1 0 1.3.6 2.1 1.6 2.1s1.6-.8 1.6-2C10.7 8 10 7 9 7z" id="b"/><path d="M15 12l-.8.2c-.8 0-1-.5-1-1.1V3.6h1v7c0 .5.1.6.4.6h.4v.8z" id="c"/><path d="M20.5 9.5h-3.7c0 1 .7 1.8 1.8 1.8.5 0 1-.2 1.4-.4l.3.7c-.5.4-1.2.6-1.9.6-1.8 0-2.7-1.5-2.7-3 0-1.7 1-3 2.4-3 1.5 0 2.4 1.2 2.4 3v.3zm-1.1-.9c0-.7-.5-1.5-1.3-1.5s-1.3.7-1.3 1.5h2.6z" id="d"/><path d="M29.2 9.5h-3.6c0 1 .6 1.8 1.7 1.8.5 0 1-.2 1.4-.4l.3.7c-.5.4-1.2.6-1.9.6-1.8 0-2.7-1.5-2.7-3 0-1.7 1-3 2.4-3 1.5 0 2.4 1.2 2.4 3v.3zM28 8.6c0-.7-.4-1.5-1.3-1.5-.8 0-1.3.7-1.3 1.5h2.6z" id="e"/><path d="M38.8 12h-1V8.5c0-.7-.2-1.2-1-1.2-.6 0-1.2.4-1.6.8V12h-1V8.5c0-.8-.2-1.3-1-1.3-.6 0-1.2.4-1.6.8v4h-1V6.5h.8l.1.7c.8-.6 1.4-.8 2-.8.7 0 1.3.3 1.5.9.6-.6 1.4-1 2-1 1 0 1.8.5 1.8 1.9v4z" id="f"/><path d="M45.3 9.2c0 1.9-1.4 3-2.9 3-.4 0-.6 0-.9-.2v3h-1V6.5c.4-.1 1-.3 2-.3 1.7 0 2.8 1 2.8 2.9zm-1 0c0-1.4-1-2-2-2l-.8.1v3.8l.9.2c1.1 0 1.8-.8 1.8-2.1z" id="g"/><path d="M48.6 12l-.9.2c-.7 0-1-.5-1-1.1V3.6h1v7c0 .5.1.6.4.6h.4l.1.8z" id="h"/><path d="M52 6.3c.7 0 1.4.2 1.8.7.5.6.8 1.3.8 2.2 0 1-.3 1.7-.8 2.3-.5.4-1.1.7-1.9.7-.7 0-1.4-.2-1.8-.7-.6-.5-.8-1.3-.8-2.3 0-.9.2-1.6.8-2.2.4-.5 1-.7 1.8-.7zm0 .8c-1.1 0-1.7.9-1.7 2.1 0 1.3.6 2.1 1.6 2.1s1.6-.8 1.6-2C53.5 8 53 7 52 7z" id="i"/><path d="M56.5 4c.4 0 .7.2.7.6 0 .4-.3.7-.7.7a.7.7 0 1 1 0-1.4zm.6 8H56V6.5h1v5.7z" id="j"/></defs><g fill="none" fill-rule="evenodd"><path fill="#E94A4F" fill-rule="nonzero" d="M100.5 60.3h66.8v15.3h-66.8z"/><g transform="translate(105 59)"><use fill="#000" xlink:href="#a"/><use fill="#FFF" xlink:href="#a"/></g><g transform="translate(105 59)"><use fill="#000" xlink:href="#b"/><use fill="#FFF" xlink:href="#b"/></g><g transform="translate(105 59)"><use fill="#000" xlink:href="#c"/><use fill="#FFF" xlink:href="#c"/></g><g transform="translate(105 59)"><use fill="#000" xlink:href="#d"/><use fill="#FFF" xlink:href="#d"/></g><g transform="translate(105 59)"><use fill="#000" xlink:href="#e"/><use fill="#FFF" xlink:href="#e"/></g><g transform="translate(105 59)"><use fill="#000" xlink:href="#f"/><use fill="#FFF" xlink:href="#f"/></g><g transform="translate(105 59)"><use fill="#000" xlink:href="#g"/><use fill="#FFF" xlink:href="#g"/></g><g transform="translate(105 59)"><use fill="#000" xlink:href="#h"/><use fill="#FFF" xlink:href="#h"/></g><g transform="translate(105 59)"><use fill="#000" xlink:href="#i"/><use fill="#FFF" xlink:href="#i"/></g><g transform="translate(105 59)"><use fill="#000" xlink:href="#j"/><use fill="#FFF" xlink:href="#j"/></g><path d="M85.3 43a42.5 42.5 0 1 1-85 0 42.5 42.5 0 0 1 85 0" fill="#23333b" fill-rule="nonzero"/><g fill="#000" fill-rule="nonzero"><path d="M100.2 30.1V12.9h3.1v14.5h6.1v2.7h-9.2zM118.9 30.1l-.5-1.1c-.8.7-1.9 1.4-3.6 1.4-2.3 0-4-1.5-4-4s2-3.9 5.1-4l2.2-.1V22c0-1.5-1-2.1-2.3-2.1-1.4 0-2.4.4-3.2.9l-1-2a8 8 0 0 1 4.8-1.4c3 0 4.9 1.2 4.9 4.5v4.9c0 1.8.1 2.7.2 3.2h-2.6v.1zm-.8-5.7l-1.8.1c-1.7.1-2.4.6-2.4 1.7 0 1 .7 1.7 2 1.7a3 3 0 0 0 2.2-.8v-2.7zM134.5 30.3c-1.7 0-3-.3-4.1-.9V11.6h3.1v6.2c.7-.2 1.5-.4 2.4-.4 3 0 5.9 2 5.9 6 0 4.4-3.4 6.9-7.3 6.9zm.8-10.2c-.8 0-1.3.2-1.7.4v7c.5.2.9.2 1.5.2 2.1 0 3.6-1.8 3.6-4.1 0-1.8-1.3-3.5-3.4-3.5zM154.1 28.5a6.1 6.1 0 0 1-4.4 1.8c-1.7 0-3.2-.5-4.2-1.5a6.4 6.4 0 0 1-1.9-4.8c0-1.9.7-3.6 1.8-4.8a6 6 0 0 1 4.4-1.7c1.9 0 3.4.6 4.5 1.8a6.5 6.5 0 0 1 1.6 4.6c0 1.8-.7 3.5-1.8 4.6zm-4.5-8.6c-2 0-2.9 1.7-2.9 4 0 2.4 1.1 4 3 4 2 0 2.9-1.7 2.9-4 0-2.4-1.1-4-3-4zM166.2 30.1v-7.2c0-1.3-.2-2.7-1.8-2.7-1.1 0-2.2.6-3.1 1.3v8.6h-3.1V17.8h2.7l.3 1.3a7 7 0 0 1 4.3-1.6c1.9 0 3.9 1.1 3.9 4.4v8.2h-3.2zM180.3 30.1v-7.2c0-1.3-.2-2.7-1.8-2.7-1.1 0-2.2.6-3.1 1.3v8.6h-3.1V17.8h2.7l.3 1.3a7 7 0 0 1 4.3-1.6c1.9 0 3.9 1.1 3.9 4.4v8.2h-3.2zM188.9 24.7c.1 1.8 1.6 3.1 3.5 3.1 1.2 0 2.1-.3 3.2-.9l.8 2c-1.4 1-3 1.4-4.5 1.4-4.3 0-6.1-3.1-6.1-6.4 0-3.5 2.1-6.4 5.6-6.4 3.3 0 5.5 2.5 5.5 6.3v.9h-8zm2.4-4.9c-1.5 0-2.4 1.4-2.4 2.7h4.8c-.1-1.3-.9-2.7-2.4-2.7z"/></g><g fill="#000" fill-rule="nonzero"><path d="M107.4 53.1l-.5-1.1c-.8.7-1.9 1.4-3.6 1.4-2.3 0-4-1.5-4-4s2-3.9 5.1-4l2.2-.1V45c0-1.5-1-2.1-2.3-2.1-1.4 0-2.4.4-3.2.9l-1-2a8 8 0 0 1 4.8-1.4c3 0 4.9 1.2 4.9 4.5v4.9c0 1.8.1 2.7.2 3.2h-2.6v.1zm-.7-5.7l-1.8.1c-1.7.1-2.4.6-2.4 1.7 0 1 .7 1.7 2 1.7a3 3 0 0 0 2.2-.8v-2.7zM115.5 53.3c-2.1 0-2.8-1.2-2.8-2.7v-16h3.1v14.6c0 .9.2 1.3.8 1.3l.9-.1.4 2.3c-.9.5-1.7.6-2.4.6zM123.3 53.3c-2.2 0-3-1.2-3-2.9v-7.3h-2.2v-2.3h2.2V38l3.1-.9v3.8h3.8l-.9 2.3h-2.9v6.2c0 1 .4 1.4 1.2 1.4.8 0 1.6-.4 2.1-.7l.8 2c-1.3.8-3 1.2-4.2 1.2zM131.5 47.7c.1 1.8 1.6 3.1 3.5 3.1 1.2 0 2.1-.3 3.2-.9l.8 2c-1.4 1-3 1.4-4.5 1.4-4.3 0-6.1-3.1-6.1-6.4 0-3.5 2.1-6.4 5.6-6.4 3.3 0 5.5 2.5 5.5 6.3v.9h-8zm2.3-4.9c-1.5 0-2.4 1.4-2.4 2.7h4.8c-.1-1.3-.8-2.7-2.4-2.7zM148.7 43.7a3 3 0 0 0-1.5-.4c-.7 0-1.5.3-2.4 1.1v8.7h-3.1V40.8h2.6l.3 1.3c1.3-1.1 2.2-1.6 3.4-1.6.6 0 1.2.2 1.7.5l-1 2.7zM159.4 53.1v-7.2c0-1.3-.2-2.7-1.8-2.7-1.1 0-2.2.6-3.1 1.3v8.6h-3.1V40.8h2.7l.3 1.3a7 7 0 0 1 4.3-1.6c1.9 0 3.9 1.1 3.9 4.4v8.2h-3.2zM172.9 53.1l-.5-1.1c-.8.7-1.9 1.4-3.6 1.4-2.3 0-4-1.5-4-4s2-3.9 5.1-4l2.2-.1V45c0-1.5-1-2.1-2.3-2.1-1.4 0-2.4.4-3.2.9l-1-2a8 8 0 0 1 4.8-1.4c3 0 4.9 1.2 4.9 4.5v4.9c0 1.8.1 2.7.2 3.2h-2.6v.1zm-.8-5.7l-1.8.1c-1.7.1-2.4.6-2.4 1.7 0 1 .7 1.7 2 1.7a3 3 0 0 0 2.2-.8v-2.7zM186.3 53.1v-7.2c0-1.3-.2-2.7-1.8-2.7-1.1 0-2.2.6-3.1 1.3v8.6h-3.1V40.8h2.7l.3 1.3a7 7 0 0 1 4.3-1.6c1.9 0 3.9 1.1 3.9 4.4v8.2h-3.2zM197.7 53.3c-4 0-6.1-2.9-6.1-6.3 0-3.7 2.7-6.5 6.4-6.5 1.7 0 2.8.4 3.5.9l-.1 2.5c-.9-.6-1.8-1-3.1-1-2.1 0-3.6 1.7-3.6 4 0 2.1 1.1 4 3.6 4 1.2 0 2.1-.4 2.9-.9l.8 2.1c-.9.6-2.6 1.2-4.3 1.2zM206.4 47.7c.1 1.8 1.6 3.1 3.5 3.1 1.2 0 2.1-.3 3.2-.9l.8 2c-1.4 1-3 1.4-4.5 1.4-4.3 0-6.1-3.1-6.1-6.4 0-3.5 2.1-6.4 5.6-6.4 3.3 0 5.5 2.5 5.5 6.3v.9h-8zm2.3-4.9c-1.5 0-2.4 1.4-2.4 2.7h4.8c-.1-1.3-.8-2.7-2.4-2.7z"/></g><path d="M65.7 31.7c0-16.4-14-22.2-23.2-22.3h-.1-.1C33 9.5 19 15.3 19 31.7l.1 1.5c1.3 15.5 21 35.8 22 36.9l1.1 1.2v.1l.1.1v-.1l1.1-1.2c1.1-1.1 20.8-21.4 22-36.9a5 5 0 0 0 .3-1.6zm-23.4 8.4c-.8 0-1.6-.1-2.4-.4a8.3 8.3 0 0 1-5.7-7.7 8.3 8.3 0 0 1 5.7-7.7c.8-.2 1.6-.4 2.4-.4a8 8 0 0 1 8.1 8.1 8 8 0 0 1-8.1 8.1z" fill="#E94A4F" fill-rule="nonzero"/></g></svg>