<svg width="136" height="36" viewBox="0 0 136 36" fill="none" xmlns="http://www.w3.org/2000/svg">
<g clip-path="url(#clip0_4487_9776)">
<path d="M15.9231 35.2539C24.7171 35.2539 31.8462 32.3403 31.8462 28.7462C31.8462 25.1521 24.7171 22.2385 15.9231 22.2385C7.12901 22.2385 0 25.1521 0 28.7462C0 32.3403 7.12901 35.2539 15.9231 35.2539Z" fill="#A558A0"/>
<path d="M15.923 0.500031C12.975 0.502069 10.1483 1.67433 8.06413 3.75926C5.97992 5.84419 4.80864 8.67124 4.80762 11.6193C4.80762 18.8462 11.8615 25.7731 14.7268 28.2962C15.0585 28.5864 15.4842 28.7464 15.9249 28.7464C16.3656 28.7464 16.7914 28.5864 17.123 28.2962C19.9999 25.7308 27.0422 18.8462 27.0422 11.6193C27.0412 8.67057 25.8694 5.84294 23.7844 3.7579C21.6993 1.67286 18.8717 0.50105 15.923 0.500031V0.500031ZM15.923 16.1846C14.9183 16.1839 13.9363 15.8853 13.1013 15.3265C12.2663 14.7678 11.6157 13.974 11.2317 13.0455C10.8478 12.1171 10.7477 11.0956 10.9442 10.1103C11.1407 9.12499 11.6249 8.22005 12.3356 7.50987C13.0463 6.7997 13.9516 6.31618 14.9371 6.12045C15.9225 5.92472 16.9439 6.02556 17.8721 6.41023C18.8002 6.79489 19.5935 7.44611 20.1516 8.28155C20.7097 9.117 21.0076 10.0992 21.0076 11.1039C21.0081 11.7716 20.8769 12.4328 20.6215 13.0497C20.3661 13.6666 19.9916 14.2271 19.5193 14.699C19.047 15.171 18.4862 15.5451 17.8691 15.8C17.252 16.055 16.5907 16.1857 15.923 16.1846Z" fill="#161616"/>
<path d="M43.6692 2.61926H46.2653V13.0539H51.123V15.4077H43.6692V2.61926Z" fill="#161616"/>
<path d="M53.0078 12.9231C53.0078 11.5347 54.0847 10.4962 56.0578 10.1654L58.8693 9.69235V9.45389C58.8693 8.48465 58.1386 7.86542 57.0809 7.86542C56.6708 7.86344 56.2664 7.96238 55.9036 8.15354C55.5407 8.3447 55.2304 8.6222 55.0001 8.96158L53.304 7.66158C53.7513 7.07062 54.3343 6.59607 55.0038 6.27808C55.6732 5.96008 56.4094 5.80798 57.1501 5.83465C59.8155 5.83465 61.1886 7.42696 61.1886 9.45389V15.4077H58.8809V14.5154C58.5275 14.8899 58.0995 15.1862 57.6245 15.3849C57.1494 15.5837 56.638 15.6805 56.1232 15.6693C54.2655 15.6847 53.0078 14.6231 53.0078 12.9231ZM56.5886 13.8385C57.043 13.8547 57.4935 13.75 57.8942 13.5351C58.2949 13.3202 58.6314 13.0029 58.8693 12.6154V11.3154L56.677 11.6808C55.7117 11.8462 55.3078 12.25 55.3078 12.8347C55.3078 13.4193 55.8001 13.8385 56.5886 13.8385Z" fill="#161616"/>
<path d="M73.9616 15.7731C73.4323 15.7977 72.9038 15.7115 72.4097 15.5201C71.9156 15.3287 71.467 15.0363 71.0924 14.6616V15.4077H68.7847V1.70773H71.0924V6.95004C71.4668 6.57484 71.9153 6.28185 72.4094 6.0898C72.9034 5.89774 73.4321 5.81085 73.9616 5.83466C76.8847 5.83466 78.6385 8.11927 78.6385 10.8039C78.6385 13.4885 76.8847 15.7731 73.9616 15.7731ZM71.0924 9.3462V12.2693C71.3746 12.6805 71.7539 13.0156 72.1967 13.2451C72.6396 13.4746 73.1321 13.5912 73.6308 13.5847C75.2039 13.5847 76.227 12.4308 76.227 10.8077C76.227 9.18466 75.2039 8.03081 73.6308 8.03081C73.1311 8.01835 72.6364 8.13241 72.1926 8.36238C71.7488 8.59235 71.3703 8.93077 71.0924 9.3462Z" fill="#161616"/>
<path d="M90.1847 10.8039C90.1847 12.1412 89.6535 13.4237 88.7079 14.3693C87.7622 15.3149 86.4797 15.8462 85.1424 15.8462C83.8051 15.8462 82.5226 15.3149 81.577 14.3693C80.6313 13.4237 80.1001 12.1412 80.1001 10.8039C80.1001 9.46657 80.6313 8.18404 81.577 7.23842C82.5226 6.29281 83.8051 5.76157 85.1424 5.76157C86.4797 5.76157 87.7622 6.29281 88.7079 7.23842C89.6535 8.18404 90.1847 9.46657 90.1847 10.8039ZM87.7732 10.8039C87.7732 9.19618 86.6578 8.02695 85.177 8.02695C84.8163 8.02277 84.4586 8.0926 84.1259 8.23214C83.7933 8.37167 83.4927 8.57793 83.2429 8.83818C82.9931 9.09843 82.7994 9.40715 82.6736 9.74524C82.5478 10.0833 82.4927 10.4436 82.5116 10.8039C82.4932 11.1638 82.5487 11.5237 82.6748 11.8613C82.8008 12.199 82.9947 12.5072 83.2444 12.767C83.4942 13.0269 83.7945 13.2328 84.1269 13.3721C84.4592 13.5114 84.8167 13.5811 85.177 13.577C86.6578 13.577 87.7732 12.3962 87.7732 10.8039Z" fill="#161616"/>
<path d="M92.3076 6.20002H94.6153V6.93079C94.9719 6.57398 95.3969 6.29295 95.8649 6.10458C96.3328 5.91621 96.834 5.82439 97.3384 5.83463C99.3268 5.83463 100.919 7.20771 100.919 9.92694V15.4077H98.5807V10.0231C98.5807 8.80002 97.8845 8.03079 96.7538 8.03079C96.3062 8.04187 95.8703 8.17535 95.4933 8.41674C95.1163 8.65813 94.8126 8.9982 94.6153 9.40002V15.4077H92.3076V6.20002Z" fill="#161616"/>
<path d="M103.558 6.20002H105.865V6.93079C106.222 6.57434 106.647 6.29354 107.115 6.10519C107.583 5.91685 108.084 5.82483 108.588 5.83463C110.577 5.83463 112.169 7.20771 112.169 9.92694V15.4077H109.831V10.0231C109.831 8.80002 109.135 8.03079 108.004 8.03079C107.556 8.04223 107.12 8.17628 106.743 8.41838C106.366 8.66047 106.062 9.00133 105.865 9.40386V15.4077H103.558V6.20002Z" fill="#161616"/>
<path d="M119.269 15.7731C115.996 15.7731 114.154 13.4923 114.154 10.8039C114.154 8.11543 115.869 5.83466 118.885 5.83466C121.442 5.83466 123.115 7.57312 123.115 9.98466C123.115 10.4208 123.066 10.8555 122.969 11.2808H116.538C116.758 12.9962 117.819 13.6923 119.262 13.6923C119.715 13.7037 120.165 13.6108 120.577 13.4207C120.99 13.2307 121.353 12.9486 121.638 12.5962L123.3 13.9116C122.823 14.5182 122.209 15.0032 121.508 15.3268C120.808 15.6504 120.04 15.8033 119.269 15.7731ZM116.6 9.61927H120.831C120.826 9.36472 120.77 9.11369 120.668 8.88074C120.565 8.64779 120.417 8.43755 120.232 8.26224C120.048 8.08692 119.83 7.95001 119.592 7.85944C119.354 7.76888 119.101 7.72646 118.846 7.73466C117.642 7.73466 116.858 8.39235 116.6 9.60004V9.61927Z" fill="#161616"/>
<path d="M42.6653 31.3846C42.6653 29.9962 43.7461 28.9577 45.7153 28.6269L48.5307 28.1539V27.9154C48.5307 26.9462 47.7999 26.3269 46.7422 26.3269C46.3314 26.324 45.9261 26.4225 45.5625 26.6137C45.1988 26.8049 44.888 27.0829 44.6576 27.4231L42.9576 26.1231C43.4049 25.5321 43.9879 25.0576 44.6574 24.7396C45.3269 24.4216 46.0631 24.2695 46.8037 24.2962C49.473 24.2962 50.8422 25.8885 50.8422 27.9154V33.8692H48.5345V32.9769C48.1811 33.3515 47.7531 33.6477 47.2781 33.8464C46.8031 34.0452 46.2916 34.1421 45.7768 34.1308C43.9268 34.1462 42.6653 33.0846 42.6653 31.3846ZM46.2461 32.3C46.701 32.3161 47.152 32.2114 47.5533 31.9965C47.9546 31.7817 48.2918 31.4644 48.5307 31.0769V29.7769L46.3384 30.1423C45.3691 30.3077 44.9691 30.7116 44.9691 31.2962C44.9691 31.8808 45.4614 32.3 46.2461 32.3Z" fill="#161616"/>
<path d="M53.5 20.1693H55.8077V33.8693H53.5V20.1693Z" fill="#161616"/>
<path d="M59.1807 26.7462H57.4653V24.6616H59.1807V22.3539H61.5384V24.6616H64.3538V26.7462H61.5384V30.5C61.5384 31.5231 62.0884 31.927 62.9999 31.927C63.465 31.9492 63.9299 31.8813 64.3692 31.727V33.7539C63.8064 33.9742 63.2037 34.0738 62.5999 34.0462C60.2923 34.0462 59.1999 32.75 59.1999 30.5L59.1807 26.7462Z" fill="#161616"/>
<path d="M70.6923 34.2346C67.4192 34.2346 65.5769 31.9539 65.5769 29.2654C65.5769 26.5769 67.3077 24.2962 70.3077 24.2962C72.8654 24.2962 74.5384 26.0346 74.5384 28.4462C74.5377 28.8823 74.4886 29.317 74.3923 29.7423H67.95C68.1692 31.4577 69.2308 32.1539 70.6731 32.1539C71.1262 32.1658 71.5761 32.0731 71.9876 31.883C72.3992 31.6929 72.7614 31.4105 73.0461 31.0577L74.7115 32.3731C74.2354 32.9779 73.6233 33.4617 72.9248 33.7852C72.2264 34.1087 71.4615 34.2627 70.6923 34.2346ZM68.0231 28.0808H72.2538C72.2464 27.8259 72.1884 27.5749 72.0831 27.3427C71.9778 27.1104 71.8274 26.9013 71.6405 26.7278C71.4537 26.5542 71.2342 26.4195 70.9948 26.3315C70.7554 26.2435 70.5009 26.2041 70.2461 26.2154C69.0654 26.1962 68.2808 26.8539 68.0231 28.0616V28.0808Z" fill="#161616"/>
<path d="M76.8115 24.6616H79.1192V25.5769C79.426 25.2354 79.8006 24.9615 80.2191 24.7727C80.6376 24.584 81.0909 24.4846 81.55 24.4808C81.823 24.4799 82.0944 24.5227 82.3538 24.6077V26.8923C82.0197 26.8062 81.6758 26.7635 81.3308 26.7654C80.8887 26.7533 80.4513 26.8582 80.0629 27.0696C79.6745 27.2811 79.349 27.5914 79.1192 27.9692V33.8693H76.8115V24.6616Z" fill="#161616"/>
<path d="M84.2307 24.6616H86.5384V25.3923C86.8945 25.036 87.3189 24.7552 87.7862 24.5669C88.2535 24.3785 88.7539 24.2864 89.2576 24.2962C91.2499 24.2962 92.8384 25.6692 92.8384 28.3885V33.8692H90.4999V28.4846C90.4999 27.2616 89.8076 26.4923 88.673 26.4923C88.226 26.5033 87.7905 26.6367 87.4141 26.8782C87.0377 27.1196 86.7348 27.4598 86.5384 27.8616V33.8692H84.2307V24.6616Z" fill="#161616"/>
<path d="M94.9692 31.3846C94.9692 29.9962 96.05 28.9577 98.0231 28.6269L100.835 28.1539V27.9154C100.835 26.9462 100.104 26.3269 99.0462 26.3269C98.6353 26.324 98.2301 26.4225 97.8664 26.6137C97.5028 26.8049 97.192 27.0829 96.9615 27.4231L95.2615 26.1231C95.7088 25.5321 96.2919 25.0576 96.9614 24.7396C97.6308 24.4216 98.367 24.2695 99.1077 24.2962C101.777 24.2962 103.146 25.8885 103.146 27.9154V33.8692H100.838V32.9769C100.485 33.3515 100.057 33.6477 99.582 33.8464C99.107 34.0452 98.5956 34.1421 98.0808 34.1308C96.2308 34.1462 94.9692 33.0846 94.9692 31.3846ZM98.55 32.3C99.0049 32.3161 99.4559 32.2114 99.8572 31.9965C100.259 31.7817 100.596 31.4644 100.835 31.0769V29.7769L98.6423 30.1423C97.6731 30.3077 97.2731 30.7116 97.2731 31.2962C97.2731 31.8808 97.7654 32.3 98.55 32.3Z" fill="#161616"/>
<path d="M105.804 24.6616H108.112V25.3923C108.468 25.0359 108.894 24.7551 109.361 24.5667C109.829 24.3784 110.33 24.2864 110.835 24.2962C112.827 24.2962 114.416 25.6693 114.416 28.3885V33.8693H112.077V28.4846C112.077 27.2616 111.381 26.4923 110.25 26.4923C109.802 26.5038 109.366 26.6378 108.989 26.8799C108.612 27.122 108.308 27.4629 108.112 27.8654V33.8693H105.804V24.6616Z" fill="#161616"/>
<path d="M123.561 30.9846L125.369 32.3731C124.913 32.9679 124.322 33.4465 123.646 33.77C122.97 34.0935 122.226 34.2527 121.477 34.2346C118.3 34.2346 116.4 31.9539 116.4 29.2654C116.4 26.5769 118.3 24.2962 121.477 24.2962C122.229 24.2755 122.976 24.4338 123.655 24.7581C124.335 25.0824 124.927 25.5634 125.385 26.1616L123.577 27.55C123.34 27.2105 123.022 26.9356 122.652 26.7503C122.282 26.5649 121.871 26.4749 121.458 26.4885C119.942 26.4885 118.827 27.6423 118.827 29.2654C118.827 30.8885 119.942 32.0423 121.492 32.0423C121.898 32.0501 122.299 31.9576 122.659 31.773C123.02 31.5885 123.33 31.3177 123.561 30.9846Z" fill="#161616"/>
<path d="M131.196 34.2346C127.927 34.2346 126.085 31.9539 126.085 29.2654C126.085 26.5769 127.8 24.2962 130.815 24.2962C133.373 24.2962 135.046 26.0346 135.046 28.4462C135.045 28.8823 134.996 29.317 134.9 29.7423H128.462C128.681 31.4577 129.742 32.1539 131.185 32.1539C131.638 32.1658 132.088 32.0731 132.499 31.883C132.911 31.6929 133.273 31.4105 133.558 31.0577L135.223 32.3731C134.746 32.9787 134.133 33.463 133.433 33.7866C132.733 34.1101 131.967 34.2636 131.196 34.2346ZM128.531 28.0808H132.762C132.757 27.8256 132.701 27.5739 132.598 27.3404C132.495 27.1069 132.346 26.8964 132.16 26.7209C131.975 26.5455 131.756 26.4088 131.518 26.3187C131.279 26.2286 131.024 26.1869 130.769 26.1962C129.573 26.1962 128.785 26.8539 128.531 28.0616V28.0808Z" fill="#161616"/>
</g>
<defs>
<clipPath id="clip0_4487_9776">
<rect width="135.385" height="35" fill="white" transform="translate(0 0.500031)"/>
</clipPath>
</defs>
</svg>
