<svg width="59" height="59" viewBox="0 0 59 59" fill="none" xmlns="http://www.w3.org/2000/svg">
<circle cx="29.5" cy="29.5" r="29.5" fill="#F7F7F7"/>
<path d="M39.3974 23.9698C39.2718 18.312 34.935 13.7242 29.641 13.6456C24.1087 13.5632 19.5997 18.3323 19.5997 24.227C19.5997 28.1964 22.3406 31.6554 25.3654 33.4663C26.3106 34.0323 26.2049 33.6055 26.2049 34.7636V35.4715H32.7951V34.7635C32.7951 33.6101 32.6818 34.0351 33.6239 33.4727C36.7198 31.6246 39.488 28.0513 39.3974 23.9698Z" fill="#FFF7BF"/>
<path d="M33.6311 38.5487H25.369C24.5724 38.5487 23.9266 37.8614 23.9266 37.0133V37.0068C23.9266 36.1589 24.5724 35.4714 25.369 35.4714H33.6312C34.4277 35.4714 35.0735 36.1588 35.0735 37.0068V37.0133C35.0734 37.8614 34.4277 38.5487 33.6311 38.5487Z" fill="#CCF5FC"/>
<path d="M32.5867 41.626H26.4134C25.6169 41.626 24.9711 40.9386 24.9711 40.0906V40.0841C24.9711 39.2361 25.6168 38.5487 26.4134 38.5487H32.5867C33.3832 38.5487 34.029 39.2361 34.029 40.0841V40.0906C34.0289 40.9386 33.3832 41.626 32.5867 41.626Z" fill="#006AEB"/>
<path d="M29.501 45.3555H29.4989C28.2918 45.3555 27.3132 44.3138 27.3132 43.0288V41.626H31.6866V43.0288C31.6867 44.3138 30.7081 45.3555 29.501 45.3555Z" fill="#FAF7F5"/>
<path d="M39.9224 24.7156C39.8246 24.4618 39.577 24.2996 39.32 24.3194C39.0688 24.3387 38.8508 24.5276 38.7814 24.785C38.7115 25.0442 38.8056 25.3287 39.0111 25.4858C39.2134 25.6407 39.4924 25.6449 39.6996 25.498C39.9369 25.3301 40.0318 24.9953 39.9224 24.7156Z" fill="black"/>
<path d="M38.8614 27.2973C38.5574 27.1488 38.1981 27.2908 38.0587 27.6143C37.1471 29.7295 35.4227 31.6599 33.3277 32.9105C33.1233 33.0325 32.9783 33.1007 32.8617 33.1554C32.2368 33.449 32.1783 33.7573 32.1871 34.4426C32.1883 34.5329 32.1896 34.6387 32.1896 34.7635V34.827H26.8103V34.7637C26.8103 34.6461 26.8114 34.5452 26.8123 34.4584C26.8201 33.7601 26.7607 33.4464 26.1328 33.152C26.015 33.0969 25.8685 33.0281 25.6621 32.9046C23.1448 31.3974 20.2051 28.2205 20.2051 24.2271C20.2051 21.538 21.1936 19.0194 22.9886 17.1352C24.7718 15.2633 27.1314 14.2508 29.6325 14.2901C33.9395 14.3541 37.7098 17.6762 38.5975 22.1893C38.6661 22.5376 38.9865 22.761 39.3143 22.688C39.6415 22.615 39.8513 22.2734 39.7828 21.925C39.3 19.4708 38.0312 17.2259 36.21 15.6038C34.3654 13.961 32.0355 13.0367 29.6494 13.0011C26.8208 12.9592 24.154 14.1012 22.1383 16.2173C20.1107 18.3456 18.9941 21.1902 18.9941 24.2271C18.9941 26.2062 19.6377 28.2129 20.8551 30.0303C21.9192 31.6187 23.4155 33.0385 25.0684 34.0281C25.2993 34.1663 25.477 34.2528 25.6026 34.312C25.6023 34.3543 25.6019 34.3997 25.6014 34.443C25.6003 34.5343 25.5992 34.6402 25.5992 34.7636V34.827H25.3687C24.2396 34.827 23.3209 35.8048 23.3209 37.0068V37.0133C23.3209 37.9324 23.8581 38.7205 24.6157 39.0406C24.4562 39.3507 24.3654 39.7063 24.3654 40.0841V40.0906C24.3654 41.2926 25.2841 42.2705 26.4132 42.2705H26.7076V43.0288C26.7076 44.6671 27.9597 46 29.4987 46H29.5008C31.0398 46 32.2919 44.6671 32.2919 43.0288V42.2705H32.5864C33.7155 42.2705 34.6342 41.2926 34.6342 40.0906V40.0841C34.6342 39.7063 34.5434 39.3507 34.3839 39.0406C35.1415 38.7205 35.6786 37.9324 35.6786 37.0133V37.0068C35.6786 35.8048 34.76 34.827 33.6309 34.827H33.4004V34.7635C33.4004 34.6318 33.3989 34.5202 33.3977 34.4249C33.3972 34.388 33.3967 34.3496 33.3964 34.3131C33.5203 34.2545 33.6944 34.1694 33.9198 34.0349C36.2334 32.6538 38.1431 30.5096 39.159 28.1519C39.2987 27.8283 39.1654 27.4457 38.8614 27.2973ZM31.0812 43.0288C31.0812 43.9564 30.3724 44.7109 29.501 44.7109H29.4989C28.6276 44.7109 27.9187 43.9564 27.9187 43.0288V42.2705H31.0811V43.0288H31.0812ZM33.4235 40.0906C33.4235 40.5819 33.0481 40.9815 32.5866 40.9815H26.4134C25.9519 40.9815 25.5765 40.5819 25.5765 40.0906V40.0841C25.5765 39.5929 25.9519 39.1933 26.4134 39.1933H32.5865C33.048 39.1933 33.4234 39.5929 33.4234 40.0841V40.0906H33.4235ZM34.4679 37.0068V37.0133C34.4679 37.5046 34.0925 37.9042 33.6311 37.9042H25.3689C24.9075 37.9042 24.5321 37.5046 24.5321 37.0133V37.0068C24.5321 36.5156 24.9075 36.116 25.3689 36.116H33.631C34.0925 36.116 34.4679 36.5156 34.4679 37.0068Z" fill="black"/>
<path d="M42.872 24.3228H42.0173C41.683 24.3228 41.4119 24.6113 41.4119 24.9673C41.4119 25.3232 41.683 25.6118 42.0173 25.6118H42.872C43.2063 25.6118 43.4774 25.3232 43.4774 24.9673C43.4774 24.6114 43.2063 24.3228 42.872 24.3228Z" fill="black"/>
<path d="M41.1003 20.8429C41.2564 20.8429 41.4124 20.7791 41.5308 20.6515L41.9538 20.196C42.1889 19.9429 42.1867 19.5347 41.9489 19.2845C41.711 19.0341 41.3276 19.0366 41.0926 19.2898L40.6697 19.7452C40.4346 19.9984 40.4367 20.4065 40.6746 20.6567C40.7926 20.781 40.9465 20.8429 41.1003 20.8429Z" fill="black"/>
<path d="M41.5309 29.2831C41.2958 29.0298 40.9124 29.0277 40.6746 29.2777C40.4367 29.528 40.4346 29.9361 40.6696 30.1892L41.0926 30.6448C41.211 30.7723 41.3671 30.8363 41.5232 30.8363C41.677 30.8363 41.8308 30.7743 41.9488 30.6501C42.1867 30.3999 42.1888 29.9918 41.9538 29.7387L41.5309 29.2831Z" fill="black"/>
<path d="M17.588 24.9673C17.588 24.6113 17.3168 24.3228 16.9825 24.3228H16.1278C15.7935 24.3228 15.5223 24.6113 15.5223 24.9673C15.5223 25.3232 15.7935 25.6118 16.1278 25.6118H16.9825C17.3168 25.6118 17.588 25.3233 17.588 24.9673Z" fill="black"/>
<path d="M17.469 29.2831L17.0461 29.7387C16.811 29.9918 16.8132 30.3999 17.0511 30.6502C17.1691 30.7744 17.3229 30.8363 17.4767 30.8363C17.6328 30.8363 17.7889 30.7724 17.9073 30.6448L18.3303 30.1893C18.5653 29.9361 18.5631 29.528 18.3252 29.2778C18.0874 29.0276 17.7041 29.0298 17.469 29.2831Z" fill="black"/>
<path d="M17.9073 19.2898C17.6722 19.0367 17.2889 19.0343 17.051 19.2846C16.8132 19.5348 16.811 19.9429 17.0461 20.1961L17.4691 20.6516C17.5875 20.7792 17.7436 20.843 17.8997 20.843C18.0534 20.843 18.2073 20.781 18.3253 20.6568C18.5631 20.4066 18.5653 19.9985 18.3302 19.7453L17.9073 19.2898Z" fill="black"/>
<path d="M33.3515 23.6507V23.0983C33.3515 23.0433 33.3924 22.9986 33.4426 22.9986C33.777 22.9986 34.0481 22.71 34.0481 22.3541C34.0481 21.9981 33.777 21.7095 33.4426 21.7095C32.7247 21.7095 32.1406 22.3325 32.1406 23.0983V23.6507C32.1406 24.985 31.2704 26.1061 30.105 26.3995V22.9167C30.3907 22.8649 30.6082 22.6002 30.6082 22.2814C30.6082 21.9254 30.3371 21.6368 30.0027 21.6368H28.9965C28.6622 21.6368 28.3911 21.9254 28.3911 22.2814C28.3911 22.6002 28.6086 22.8649 28.8942 22.9167V26.3995C27.7288 26.1061 26.8587 24.985 26.8587 23.6507V23.0983C26.8587 22.3325 26.2746 21.7095 25.5566 21.7095C25.2223 21.7095 24.9512 21.9981 24.9512 22.3541C24.9512 22.71 25.2223 22.9986 25.5566 22.9986C25.6069 22.9986 25.6478 23.0433 25.6478 23.0983V23.6507C25.6478 25.6986 27.0569 27.4017 28.8942 27.7127V29.7494C28.6086 29.8012 28.3911 30.066 28.3911 30.3847C28.3911 30.7407 28.6622 31.0293 28.9965 31.0293H30.0027C30.3371 31.0293 30.6082 30.7407 30.6082 30.3847C30.6082 30.066 30.3907 29.8012 30.105 29.7494V27.7127C31.9424 27.4017 33.3515 25.6986 33.3515 23.6507Z" fill="black"/>
</svg>
