<?xml version="1.0" encoding="UTF-8"?>
<svg width="88px" height="23px" viewBox="0 0 88 23" version="1.1" xmlns="http://www.w3.org/2000/svg" xmlns:xlink="http://www.w3.org/1999/xlink">
    <title>Logo Avril - decomposed</title>
    <g id="Logo-Avril---decomposed" stroke="none" stroke-width="1" fill="none" fill-rule="evenodd">
        <g id="logo-avril" transform="translate(1.000000, 1.000000)" fill="#18495E">
            <path d="M45.616,19.12 C46.672,19.12 47.416,18.976 47.8,18.712 L42.304,1.936 C41.704,1.744 40.768,1.624 39.52,1.624 C38.272,1.624 37.336,1.744 36.736,1.936 L31.288,18.712 C31.672,18.976 32.392,19.12 33.424,19.12 C34.384,19.12 35.224,19 35.68,18.712 L36.592,15.472 L42.352,15.472 L43.312,18.712 C43.768,19 44.632,19.12 45.616,19.12 Z M41.344,12.016 L37.552,12.016 L38.224,9.664 C38.608,8.296 39.088,6.352 39.352,4.576 L39.568,4.576 C39.808,6.304 40.216,8.152 40.648,9.64 L41.344,12.016 Z M51.304,19.264 C53.272,19.264 55.456,19.12 56.968,18.688 L60.616,7.264 C60.136,6.928 59.272,6.688 58.144,6.688 C57.16,6.688 56.656,6.856 56.392,6.976 L54.928,12.52 C54.664,13.48 54.4,14.728 54.256,15.904 L54.04,15.904 C53.896,14.704 53.656,13.48 53.392,12.52 L51.808,6.976 C51.544,6.856 51.016,6.688 50.032,6.688 C48.88,6.688 47.992,6.928 47.512,7.264 L51.304,19.264 Z M64.36,19.12 C65.488,19.12 66.112,18.976 66.472,18.784 L66.472,12.328 C66.856,11.224 67.72,10.48 68.992,10.48 C69.736,10.48 70.144,10.672 70.528,10.888 C70.672,10.528 70.792,10.048 70.792,9.232 C70.792,8.104 70.6,7.24 70.192,6.616 C69.928,6.472 69.52,6.4 69.04,6.4 C67.096,6.4 66.376,7.648 66.136,8.896 L65.92,8.896 L65.632,6.616 C64.12,6.616 63.04,6.856 62.248,7.288 L62.248,18.784 C62.608,18.976 63.232,19.12 64.36,19.12 Z M74.488,5.512 C75.856,5.512 76.792,4.648 76.792,3.136 C76.792,1.696 75.856,0.88 74.488,0.88 C73.168,0.88 72.184,1.768 72.184,3.136 C72.184,4.672 73,5.512 74.488,5.512 Z M74.488,19.12 C75.616,19.12 76.24,18.976 76.6,18.784 L76.6,7.096 C76.24,6.904 75.616,6.76 74.488,6.76 C73.36,6.76 72.736,6.904 72.376,7.096 L72.376,18.784 C72.736,18.976 73.36,19.12 74.488,19.12 Z M82.984,19.48 C83.968,19.48 84.712,19.288 85.288,18.928 C85.912,18.232 86.296,16.552 86.08,15.448 C85.624,15.736 85.192,15.832 84.712,15.832 C84.016,15.832 83.704,15.592 83.704,14.728 L83.704,0.976 C81.736,0.976 80.416,1.264 79.48,1.816 L79.48,15.328 C79.48,17.656 80.176,19.48 82.984,19.48 Z" id="Avril" fill-rule="nonzero"></path>
            <path d="M22.9742105,0.434050211 C23.6435497,1.68560571 24,2.9319156 24,6.32600267 L24,11.1791352 C24,14.5732223 23.6435497,15.8195322 22.9742105,17.0710877 C22.3048713,18.3226432 21.3226432,19.3048713 20.0710877,19.9742105 C18.8195322,20.6435497 17.5732223,21 14.1791352,21 L9.82086478,21 C6.42677771,21 5.18046782,20.6435497 3.92891232,19.9742105 C2.67735682,19.3048713 1.69512874,18.3226432 1.02578954,17.0710877 C0.356450331,15.8195322 4.1589967e-16,14.5732223 -7.10476783e-16,11.1791352 L-1.86116059e-16,6.32600267 C1.08948821e-16,2.9319156 0.356450331,1.68560571 1.02578954,0.434050211 C1.10245725,0.290694051 1.18323005,0.150871455 1.26804248,0.0146478878 L12,9.84820244 L22.7232126,0.000637588975 C22.8112219,0.141279947 22.894912,0.285774967 22.9742105,0.434050211 Z" id="pitcogram"></path>
        </g>
    </g>
</svg>