<svg width="895" height="524" viewBox="0 0 895 524" fill="none" xmlns="http://www.w3.org/2000/svg">
<path fill-rule="evenodd" clip-rule="evenodd" d="M234.43 450.778C241.666 399.894 257.501 288.935 210.113 236.568C162.726 184.202 155.194 196.656 146.95 153.601C138.706 110.545 94.9956 93.1097 72.9921 118.136C50.9294 143.104 77.4403 190.963 85.9807 201.4C94.5211 211.838 86.811 276.125 114.627 320.603C142.442 365.082 187.102 333.235 185.204 371.902C187.754 448.109 234.43 450.778 234.43 450.778Z" fill="#FFC29E"/>
<path fill-rule="evenodd" clip-rule="evenodd" d="M93.6322 134.719C94.4637 134.196 95.5623 134.445 96.086 135.276L96.8597 136.514L98.4141 139.022C99.5555 140.871 100.837 142.961 102.249 145.283L103.598 147.506C108.14 155.007 113.134 163.413 118.475 172.598C135.259 201.464 152.042 232.106 167.709 263.194C180.632 288.837 192.232 313.694 202.179 337.373C221.012 382.205 233.306 421.31 237.675 453.086C237.809 454.059 237.128 454.957 236.155 455.091C235.181 455.225 234.284 454.544 234.15 453.57C229.83 422.156 217.621 383.322 198.898 338.751C188.985 315.153 177.419 290.369 164.531 264.795C148.899 233.776 132.149 203.195 115.398 174.386L113.285 170.762C108.399 162.403 103.827 154.736 99.6537 147.865L97.4711 144.284C96.9165 143.378 96.3867 142.514 95.8823 141.695L93.5966 138.006L93.0749 137.173C92.5512 136.341 92.8007 135.243 93.6322 134.719Z" fill="white"/>
<path fill-rule="evenodd" clip-rule="evenodd" d="M259.992 53.9087C213.672 49.4609 204.064 96.4304 202.581 136.165C201.099 175.899 208.453 190.191 185.856 211.304C163.26 232.476 200.031 261.061 196.888 282.055C193.744 303.049 172.038 359.151 256.433 483.454C259.518 487.962 263.906 524.256 263.906 524.256L282.173 519.334C282.173 519.334 270.43 489.859 283.715 454.158C297 418.397 319.538 401.614 321.673 356.898C323.808 312.182 291.841 320.84 297.712 291.425C303.584 262.01 333.594 241.668 331.281 212.194C328.968 182.66 273.514 161.191 285.791 127.21C298.068 93.1686 300.085 57.7636 259.992 53.9087Z" fill="#FFC29E"/>
<path fill-rule="evenodd" clip-rule="evenodd" d="M242.522 69.7148C243.421 70.0129 243.924 70.9596 243.681 71.8631L243.404 72.7337L243.188 73.4279C243.037 73.9189 242.871 74.4661 242.692 75.0692L242.446 75.9036C241.74 78.3132 240.965 81.108 240.136 84.2785L239.775 85.6716C237.246 95.4978 234.724 106.887 232.361 119.749C224.129 164.565 219.773 215.923 221.354 272.603C223.42 346.656 235.546 423.595 259.794 502.204C260.084 503.143 259.558 504.139 258.618 504.428C257.679 504.718 256.683 504.192 256.394 503.253C232.048 424.327 219.872 347.069 217.797 272.702C216.209 215.764 220.586 164.158 228.861 119.106L229.202 117.267C231.595 104.462 234.144 93.1356 236.694 83.3789L237.132 81.7173C237.806 79.1874 238.442 76.9138 239.031 74.9017L239.281 74.0554C239.525 73.2352 239.745 72.5144 239.938 71.894L240.273 70.844C240.582 69.9113 241.589 69.4057 242.522 69.7148Z" fill="white"/>
<path fill-rule="evenodd" clip-rule="evenodd" d="M257.264 446.745C241.369 406.596 206.733 318.943 150.627 300.143C94.5212 281.344 94.284 293.501 70.3827 265.391C46.4813 237.28 7.63424 242.499 2.05924 269.779C-3.51576 297.06 35.5686 321.137 46.0662 325.289C56.5638 329.44 77.7369 379.553 116.347 400.665C154.957 421.778 174.054 380.205 188.762 409.265C222.331 463.884 257.264 446.745 257.264 446.745Z" fill="#FFC29E"/>
<path fill-rule="evenodd" clip-rule="evenodd" d="M20.8272 266.703C21.2018 265.833 22.1884 265.414 23.0677 265.734L23.212 265.793L23.8141 266.055C24.2115 266.23 24.6623 266.429 25.1652 266.653L25.6853 266.885C27.7296 267.8 30.0997 268.882 32.7685 270.128L35.0805 271.213C42.0933 274.522 49.7924 278.311 58.0197 282.552C84.1385 296.016 110.258 311.259 134.645 327.983C159.563 345.071 181.267 362.775 198.835 380.943C219.194 401.998 233.536 423.208 240.915 444.441C241.237 445.369 240.746 446.383 239.818 446.705C238.89 447.028 237.876 446.537 237.553 445.609C224.005 406.621 186.569 367.905 132.632 330.918C108.379 314.286 82.3847 299.115 56.3891 285.715L54.5782 284.784C46.7687 280.783 39.459 277.203 32.7906 274.068L31.2631 273.352C28.9433 272.269 26.852 271.311 25.0074 270.481L23.0118 269.59L21.7581 269.041C20.8555 268.652 20.4387 267.606 20.8272 266.703Z" fill="white"/>
<path fill-rule="evenodd" clip-rule="evenodd" d="M236.743 456.886C237.692 410.51 239.827 309.276 289.29 269.364C338.754 229.452 343.558 241.609 357.08 204.366C370.602 167.122 411.703 157.811 427.539 183.194C443.374 208.576 413.067 247.48 404.052 255.546C395.038 263.611 392.487 322.027 361.469 357.788C330.451 393.489 295.696 358.796 291.781 393.548C278.318 461.038 236.743 456.886 236.743 456.886Z" fill="#FFC29E"/>
<path fill-rule="evenodd" clip-rule="evenodd" d="M407.831 187.362C408.509 188.073 408.483 189.2 407.772 189.878L406.763 190.853L405.521 192.068C404.368 193.201 403.074 194.487 401.65 195.919L400.213 197.368C395.326 202.314 389.934 207.935 384.157 214.16C366.427 233.266 348.697 254.123 332.152 276.036C304.382 312.818 282.834 348.772 269.928 382.458C260.854 406.14 256.286 428.176 256.73 448.248C256.751 449.23 255.973 450.044 254.99 450.066C254.008 450.087 253.194 449.309 253.172 448.326C252.717 427.748 257.377 405.269 266.605 381.185C279.648 347.143 301.358 310.918 329.312 273.892C345.566 252.364 362.951 231.86 380.361 213.022L381.548 211.74C387.573 205.247 393.183 199.407 398.244 194.299L399.833 192.701C400.992 191.54 402.058 190.482 403.027 189.53L404.438 188.15L405.315 187.303C406.026 186.625 407.152 186.652 407.831 187.362Z" fill="white"/>
<path fill-rule="evenodd" clip-rule="evenodd" d="M302.279 527.755L324.401 425.987C326.24 418.278 320.249 410.924 312.183 410.924H174.588C166.522 410.924 160.591 418.218 162.311 425.869L184.907 527.102" fill="#7D4E5B"/>
<rect x="330.805" y="367.121" width="160.954" height="40.2704" transform="rotate(90 330.805 367.121)" fill="#484D7A"/>
<rect x="320.416" y="380.82" width="74.9613" height="21.6476" transform="rotate(90 320.416 380.82)" fill="white"/>
<rect x="320.41" y="458.921" width="6.99799" height="21.6476" transform="rotate(90 320.41 458.921)" fill="#FF8D7E"/>
<path fill-rule="evenodd" clip-rule="evenodd" d="M309.218 491.046C304.043 491.046 299.847 495.241 299.847 500.416C299.847 505.591 304.043 509.786 309.218 509.786C314.394 509.786 318.589 505.591 318.589 500.416C318.589 495.241 314.394 491.046 309.218 491.046ZM309.218 494.604C312.428 494.604 315.031 497.206 315.031 500.416C315.031 503.626 312.428 506.228 309.218 506.228C306.008 506.228 303.406 503.626 303.406 500.416C303.406 497.206 306.008 494.604 309.218 494.604Z" fill="white"/>
<path fill-rule="evenodd" clip-rule="evenodd" d="M317.936 396.869C318.919 396.869 319.716 397.666 319.716 398.648C319.716 399.596 318.975 400.37 318.041 400.424L317.936 400.427H301.864C300.881 400.427 300.084 399.631 300.084 398.648C300.084 397.701 300.825 396.926 301.759 396.872L301.864 396.869H317.936Z" fill="#FF8D7E"/>
<path fill-rule="evenodd" clip-rule="evenodd" d="M317.936 405.112C318.919 405.112 319.716 405.909 319.716 406.891C319.716 407.839 318.975 408.613 318.041 408.668L317.936 408.671H301.864C300.881 408.671 300.084 407.874 300.084 406.891C300.084 405.944 300.825 405.169 301.759 405.115L301.864 405.112H317.936Z" fill="#FF8D7E"/>
<path fill-rule="evenodd" clip-rule="evenodd" d="M317.936 413.356C318.919 413.356 319.716 414.153 319.716 415.136C319.716 416.083 318.975 416.858 318.041 416.912L317.936 416.915H301.864C300.881 416.915 300.084 416.118 300.084 415.136C300.084 414.188 300.825 413.414 301.759 413.359L301.864 413.356H317.936Z" fill="#FF8D7E"/>
<rect x="370.969" y="367.262" width="160.954" height="40.2704" transform="rotate(90 370.969 367.262)" fill="#484D7A"/>
<rect x="360.52" y="380.961" width="74.9615" height="21.6475" transform="rotate(90 360.52 380.961)" fill="white"/>
<rect x="360.574" y="459.062" width="6.99789" height="21.6476" transform="rotate(90 360.574 459.062)" fill="#FF8D7E"/>
<path fill-rule="evenodd" clip-rule="evenodd" d="M349.31 491.224C344.135 491.224 339.94 495.419 339.94 500.594C339.94 505.769 344.135 509.964 349.31 509.964C354.486 509.964 358.681 505.769 358.681 500.594C358.681 495.419 354.486 491.224 349.31 491.224ZM349.31 494.782C352.521 494.782 355.123 497.384 355.123 500.594C355.123 503.804 352.521 506.406 349.31 506.406C346.1 506.406 343.498 503.804 343.498 500.594C343.498 497.384 346.1 494.782 349.31 494.782Z" fill="white"/>
<path fill-rule="evenodd" clip-rule="evenodd" d="M357.851 431.385C358.833 431.385 359.63 432.181 359.63 433.164C359.63 434.111 358.889 434.886 357.955 434.94L357.851 434.943H341.778C340.796 434.943 339.999 434.147 339.999 433.164C339.999 432.216 340.74 431.442 341.674 431.388L341.778 431.385H357.851Z" fill="#FF8D7E"/>
<path fill-rule="evenodd" clip-rule="evenodd" d="M357.851 388.744C358.833 388.744 359.63 389.541 359.63 390.523C359.63 391.471 358.889 392.245 357.955 392.299L357.851 392.302H341.778C340.796 392.302 339.999 391.506 339.999 390.523C339.999 389.576 340.74 388.801 341.674 388.747L341.778 388.744H357.851Z" fill="#FF8D7E"/>
<path fill-rule="evenodd" clip-rule="evenodd" d="M357.851 439.628C358.833 439.628 359.63 440.424 359.63 441.407C359.63 442.355 358.889 443.129 357.955 443.183L357.851 443.186H341.778C340.796 443.186 339.999 442.39 339.999 441.407C339.999 440.46 340.74 439.685 341.674 439.631L341.778 439.628H357.851Z" fill="#FF8D7E"/>
<path fill-rule="evenodd" clip-rule="evenodd" d="M357.851 447.871C358.833 447.871 359.63 448.668 359.63 449.65C359.63 450.598 358.889 451.372 357.955 451.426L357.851 451.429H341.778C340.796 451.429 339.999 450.633 339.999 449.65C339.999 448.703 340.74 447.928 341.674 447.874L341.778 447.871H357.851Z" fill="#FF8D7E"/>
<rect x="490.773" y="367.261" width="160.954" height="40.2705" transform="rotate(90 490.773 367.261)" fill="#484D7A"/>
<rect x="480.324" y="380.96" width="74.9615" height="21.6476" transform="rotate(90 480.324 380.96)" fill="white"/>
<rect x="480.378" y="459.061" width="6.99805" height="21.6477" transform="rotate(90 480.378 459.061)" fill="#FF8D7E"/>
<path fill-rule="evenodd" clip-rule="evenodd" d="M469.114 491.223C463.939 491.223 459.743 495.418 459.743 500.593C459.743 505.768 463.939 509.963 469.114 509.963C474.289 509.963 478.485 505.768 478.485 500.593C478.485 495.418 474.289 491.223 469.114 491.223ZM469.114 494.781C472.324 494.781 474.926 497.383 474.926 500.593C474.926 503.803 472.324 506.405 469.114 506.405C465.904 506.405 463.302 503.803 463.302 500.593C463.302 497.383 465.904 494.781 469.114 494.781Z" fill="white"/>
<path fill-rule="evenodd" clip-rule="evenodd" d="M477.654 431.385C478.637 431.385 479.433 432.181 479.433 433.164C479.433 434.111 478.693 434.886 477.759 434.94L477.654 434.943H461.582C460.599 434.943 459.802 434.147 459.802 433.164C459.802 432.216 460.543 431.442 461.477 431.388L461.582 431.385H477.654Z" fill="#FF8D7E"/>
<path fill-rule="evenodd" clip-rule="evenodd" d="M477.654 388.744C478.637 388.744 479.433 389.541 479.433 390.523C479.433 391.471 478.693 392.245 477.759 392.299L477.654 392.302H461.582C460.599 392.302 459.802 391.506 459.802 390.523C459.802 389.576 460.543 388.801 461.477 388.747L461.582 388.744H477.654Z" fill="#484D7A"/>
<path fill-rule="evenodd" clip-rule="evenodd" d="M477.654 439.628C478.637 439.628 479.433 440.425 479.433 441.407C479.433 442.355 478.693 443.129 477.759 443.183L477.654 443.186H461.582C460.599 443.186 459.802 442.39 459.802 441.407C459.802 440.46 460.543 439.685 461.477 439.631L461.582 439.628H477.654Z" fill="#FF8D7E"/>
<path fill-rule="evenodd" clip-rule="evenodd" d="M477.654 447.871C478.637 447.871 479.433 448.668 479.433 449.65C479.433 450.598 478.693 451.372 477.759 451.426L477.654 451.429H461.582C460.599 451.429 459.802 450.633 459.802 449.65C459.802 448.703 460.543 447.928 461.477 447.874L461.582 447.871H477.654Z" fill="#FF8D7E"/>
<rect x="291.133" y="367.268" width="160.954" height="40.2705" transform="rotate(90 291.133 367.268)" fill="#484D7A"/>
<rect x="280.684" y="380.967" width="74.9615" height="21.6476" transform="rotate(90 280.684 380.967)" fill="white"/>
<rect x="280.739" y="459.067" width="6.99802" height="21.6476" transform="rotate(90 280.739 459.067)" fill="#FF8D7E"/>
<path fill-rule="evenodd" clip-rule="evenodd" d="M269.481 491.223C264.306 491.223 260.11 495.418 260.11 500.593C260.11 505.768 264.306 509.963 269.481 509.963C274.657 509.963 278.852 505.768 278.852 500.593C278.852 495.418 274.657 491.223 269.481 491.223ZM269.481 494.781C272.691 494.781 275.294 497.383 275.294 500.593C275.294 503.803 272.691 506.405 269.481 506.405C266.271 506.405 263.669 503.803 263.669 500.593C263.669 497.383 266.271 494.781 269.481 494.781Z" fill="white"/>
<path fill-rule="evenodd" clip-rule="evenodd" d="M277.962 431.385C278.945 431.385 279.742 432.181 279.742 433.164C279.742 434.111 279.001 434.886 278.067 434.94L277.962 434.943H261.89C260.907 434.943 260.11 434.146 260.11 433.164C260.11 432.216 260.851 431.442 261.785 431.388L261.89 431.385H277.962Z" fill="#FF8D7E"/>
<path fill-rule="evenodd" clip-rule="evenodd" d="M277.962 388.744C278.945 388.744 279.742 389.541 279.742 390.523C279.742 391.471 279.001 392.245 278.067 392.299L277.962 392.302H261.89C260.907 392.302 260.11 391.506 260.11 390.523C260.11 389.576 260.851 388.801 261.785 388.747L261.89 388.744H277.962Z" fill="#FF8D7E"/>
<path fill-rule="evenodd" clip-rule="evenodd" d="M277.962 439.627C278.945 439.627 279.742 440.423 279.742 441.406C279.742 442.354 279.001 443.128 278.067 443.182L277.962 443.185H261.89C260.907 443.185 260.11 442.389 260.11 441.406C260.11 440.459 260.851 439.684 261.785 439.63L261.89 439.627H277.962Z" fill="#FF8D7E"/>
<path fill-rule="evenodd" clip-rule="evenodd" d="M277.962 447.871C278.945 447.871 279.742 448.668 279.742 449.65C279.742 450.598 279.001 451.372 278.067 451.426L277.962 451.429H261.89C260.907 451.429 260.11 450.633 260.11 449.65C260.11 448.703 260.851 447.928 261.785 447.874L261.89 447.871H277.962Z" fill="#FF8D7E"/>
<rect x="411.011" y="367.253" width="160.954" height="40.2705" transform="rotate(90 411.011 367.253)" fill="#484D7A"/>
<rect x="400.562" y="380.952" width="74.9615" height="21.6477" transform="rotate(90 400.562 380.952)" fill="white"/>
<rect x="400.617" y="459.053" width="6.99789" height="21.6475" transform="rotate(90 400.617 459.053)" fill="#FF8D7E"/>
<path fill-rule="evenodd" clip-rule="evenodd" d="M389.344 491.224C384.169 491.224 379.973 495.419 379.973 500.594C379.973 505.769 384.169 509.964 389.344 509.964C394.519 509.964 398.715 505.769 398.715 500.594C398.715 495.419 394.519 491.224 389.344 491.224ZM389.344 494.782C392.554 494.782 395.156 497.384 395.156 500.594C395.156 503.804 392.554 506.406 389.344 506.406C386.134 506.406 383.532 503.804 383.532 500.594C383.532 497.384 386.134 494.782 389.344 494.782Z" fill="white"/>
<path fill-rule="evenodd" clip-rule="evenodd" d="M397.884 431.385C398.867 431.385 399.664 432.181 399.664 433.164C399.664 434.111 398.923 434.886 397.989 434.94L397.884 434.943H381.812C380.829 434.943 380.033 434.147 380.033 433.164C380.033 432.216 380.773 431.442 381.707 431.388L381.812 431.385H397.884Z" fill="#FF8D7E"/>
<path fill-rule="evenodd" clip-rule="evenodd" d="M397.884 388.745C398.867 388.745 399.664 389.542 399.664 390.524C399.664 391.472 398.923 392.246 397.989 392.3L397.884 392.303H381.812C380.829 392.303 380.033 391.507 380.033 390.524C380.033 389.577 380.773 388.802 381.707 388.748L381.812 388.745H397.884Z" fill="#484D7A"/>
<path fill-rule="evenodd" clip-rule="evenodd" d="M397.884 439.628C398.867 439.628 399.664 440.424 399.664 441.407C399.664 442.355 398.923 443.129 397.989 443.183L397.884 443.186H381.812C380.829 443.186 380.033 442.39 380.033 441.407C380.033 440.46 380.773 439.685 381.707 439.631L381.812 439.628H397.884Z" fill="#FF8D7E"/>
<path fill-rule="evenodd" clip-rule="evenodd" d="M397.884 447.872C398.867 447.872 399.664 448.669 399.664 449.651C399.664 450.599 398.923 451.373 397.989 451.427L397.884 451.43H381.812C380.829 451.43 380.033 450.634 380.033 449.651C380.033 448.704 380.773 447.929 381.707 447.875L381.812 447.872H397.884Z" fill="#FF8D7E"/>
<rect x="450.683" y="367.105" width="160.954" height="40.2705" transform="rotate(90 450.683 367.105)" fill="#484D7A"/>
<rect x="440.294" y="380.805" width="74.9615" height="21.6476" transform="rotate(90 440.294 380.805)" fill="white"/>
<rect x="440.288" y="458.905" width="6.99802" height="21.6476" transform="rotate(90 440.288 458.905)" fill="#FF8D7E"/>
<path fill-rule="evenodd" clip-rule="evenodd" d="M429.081 491.045C423.905 491.045 419.71 495.24 419.71 500.415C419.71 505.59 423.905 509.785 429.081 509.785C434.256 509.785 438.451 505.59 438.451 500.415C438.451 495.24 434.256 491.045 429.081 491.045ZM429.081 494.603C432.291 494.603 434.893 497.205 434.893 500.415C434.893 503.625 432.291 506.227 429.081 506.227C425.871 506.227 423.268 503.625 423.268 500.415C423.268 497.205 425.871 494.603 429.081 494.603Z" fill="white"/>
<path fill-rule="evenodd" clip-rule="evenodd" d="M437.858 396.869C438.841 396.869 439.637 397.666 439.637 398.648C439.637 399.596 438.897 400.37 437.963 400.424L437.858 400.427H421.785C420.803 400.427 420.006 399.631 420.006 398.648C420.006 397.701 420.747 396.926 421.681 396.872L421.785 396.869H437.858Z" fill="#FF8D7E"/>
<path fill-rule="evenodd" clip-rule="evenodd" d="M437.858 405.112C438.841 405.112 439.637 405.909 439.637 406.891C439.637 407.839 438.897 408.613 437.963 408.668L437.858 408.671H421.785C420.803 408.671 420.006 407.874 420.006 406.891C420.006 405.944 420.747 405.169 421.681 405.115L421.785 405.112H437.858Z" fill="#FF8D7E"/>
<path fill-rule="evenodd" clip-rule="evenodd" d="M437.858 413.355C438.841 413.355 439.637 414.152 439.637 415.135C439.637 416.082 438.897 416.857 437.963 416.911L437.858 416.914H421.785C420.803 416.914 420.006 416.117 420.006 415.135C420.006 414.187 420.747 413.413 421.681 413.358L421.785 413.355H437.858Z" fill="#FF8D7E"/>
<path fill-rule="evenodd" clip-rule="evenodd" d="M790.447 232.357C790.447 232.357 814.23 223.283 826.744 208.635C834.217 199.858 843.766 188.116 843.173 184.676C842.164 178.212 829.532 189.598 827.397 191.199" fill="white"/>
<path fill-rule="evenodd" clip-rule="evenodd" d="M840.056 181.024C842.575 180.57 844.518 181.759 844.926 184.373C845.572 188.12 839.843 195.994 828.097 209.79C824.278 214.261 819.259 218.467 813.329 222.4C808.462 225.628 803.258 228.493 798.055 230.967C796.233 231.832 794.541 232.588 793.021 233.229L792.164 233.586L791.082 234.018C790.164 234.369 789.135 233.908 788.785 232.99C788.447 232.105 788.863 231.118 789.717 230.734L790.278 230.511C790.669 230.354 791.124 230.167 791.638 229.951C793.111 229.329 794.755 228.595 796.527 227.753C801.588 225.347 806.648 222.561 811.362 219.435C817.037 215.671 821.811 211.669 825.389 207.481L826.877 205.724C836.014 194.875 841.63 187.057 841.423 185.012L841.394 184.818C841.326 184.403 841.285 184.419 840.688 184.526C839.636 184.716 838.056 185.493 836.139 186.75C835.477 187.184 834.784 187.668 834.059 188.2L833.509 188.609C831.839 189.872 828.427 192.649 828.464 192.622C827.678 193.211 826.563 193.052 825.973 192.266C825.406 191.51 825.532 190.45 826.241 189.846L827.643 188.707C828.839 187.742 830.567 186.364 831.567 185.618C832.479 184.938 833.351 184.323 834.188 183.774C836.475 182.275 838.415 181.321 840.056 181.024Z" fill="#484D7A"/>
<path fill-rule="evenodd" clip-rule="evenodd" d="M804.563 210.711C804.563 210.711 814.527 201.459 819.153 193.335C823.719 185.21 827.456 179.872 826.092 178.686C824.728 177.5 817.848 177.559 814.527 182.304C810.79 190.547 797.386 201.578 797.386 201.578C799.047 200.985 807.884 192.148 812.036 186.633C816.128 181.118 816.78 172.103 804.444 181.533C804.444 181.533 791.396 192.03 786.355 195.114C786.355 195.114 764.114 202.23 758.184 211.245C754.21 217.353 731.732 273.693 717.557 309.809C698.341 291.721 680.074 274.286 680.074 274.286L587.909 293.975C587.909 293.975 592.891 300.499 666.967 371.842C704.331 407.84 729.004 410.391 743.89 400.724C752.134 396.75 759.785 385.838 760.793 377.714L783.805 234.492C797.327 229.688 806.52 224.292 812.569 219.429C820.339 213.142 838.606 183.134 838.606 180.169C838.547 172.281 827.337 178.508 819.983 192.445" fill="white"/>
<path fill-rule="evenodd" clip-rule="evenodd" d="M831.092 176.61C836.019 173.555 840.344 174.688 840.385 180.168C840.385 184.493 820.875 214.997 813.684 220.815C806.99 226.196 797.869 231.201 786.255 235.496L785.395 235.811L762.553 377.975L762.523 378.201C761.299 387.002 753.336 398 744.92 402.2L744.766 402.276L744.577 402.397C736.192 407.719 725.818 408.872 713.74 405.231L713.332 405.107C699.611 400.862 683.921 390.55 666.268 373.638L663.8 371.262C633.728 342.287 613.022 322.049 600.017 309.032L597.806 306.814C593.906 302.892 591.062 299.978 589.108 297.92L588.167 296.921C587.169 295.852 586.675 295.291 586.495 295.054C585.724 294.046 586.23 292.591 587.432 292.26L587.537 292.235L679.702 272.546C680.24 272.431 680.797 272.571 681.215 272.92L681.389 273.08L692.835 283.974L698.121 288.992C703.412 294.01 708.707 299.02 713.885 303.904L716.862 306.71L720.071 298.557C738.502 251.794 753.163 215.987 756.589 210.436L756.697 210.266C759.158 206.527 764.067 203 770.748 199.629C774.047 197.964 777.571 196.446 781.094 195.102L781.902 194.797C782.83 194.45 783.7 194.138 784.5 193.861L785.289 193.591L785.6 193.488L785.715 193.417C787.251 192.449 789.573 190.789 792.47 188.609L793.75 187.64L794.158 187.33C796.216 185.759 798.378 184.075 800.509 182.39L802.292 180.976L803.364 180.119C806.468 177.746 808.989 176.337 810.986 175.848C813.255 175.291 815.124 175.917 815.997 177.693C816.058 177.817 816.113 177.945 816.161 178.078L816.23 178.281L816.395 178.178C817.617 177.431 818.982 176.899 820.424 176.583L820.695 176.526C823.354 175.996 826.009 176.256 827.259 177.343C827.723 177.747 827.99 178.222 828.102 178.756L828.117 178.84L828.208 178.761C829.098 177.99 829.984 177.319 830.855 176.76L831.092 176.61ZM836.254 178.52C835.658 178.364 834.47 178.702 832.968 179.634C829.212 181.964 824.861 187.012 821.557 193.275C821.387 193.597 821.132 193.845 820.835 194.007L820.808 194.02L820.699 194.214C820.186 195.115 819.601 196.047 818.948 197.007C817.654 198.912 816.11 200.906 814.369 202.958C812.489 205.175 810.479 207.343 808.469 209.377L807.951 209.898C807.527 210.322 807.125 210.718 806.747 211.084L806.177 211.633L805.773 212.014C805.053 212.683 803.928 212.641 803.259 211.921C802.59 211.201 802.632 210.075 803.352 209.407L803.827 208.956L804.492 208.314C804.941 207.875 805.426 207.394 805.938 206.876C807.888 204.902 809.839 202.798 811.655 200.657C813.32 198.695 814.788 196.798 816.005 195.007C816.607 194.122 817.142 193.269 817.602 192.462L818.214 191.389C819.673 188.851 822.649 183.745 823.277 182.57L823.499 182.148C823.958 181.264 824.27 180.576 824.445 180.063L824.49 179.925L824.448 179.916C824.359 179.899 824.262 179.884 824.16 179.872L824.003 179.854C823.241 179.779 822.322 179.83 821.391 180.015C819.224 180.447 817.335 181.51 816.113 183.146L816.068 183.207L816.006 183.342C815.764 183.851 815.488 184.373 815.18 184.906L815.01 185.194L814.944 185.326C814.556 186.074 814.103 186.81 813.597 187.512L813.457 187.702C809.266 193.27 800.182 202.468 797.985 203.253C796.139 203.912 794.764 201.554 796.179 200.27L796.278 200.185L797.008 199.569L797.477 199.166C797.958 198.749 798.477 198.292 799.025 197.8C801.115 195.925 803.203 193.925 805.148 191.889C806.956 189.996 808.546 188.167 809.859 186.442C810.58 185.494 811.208 184.588 811.737 183.731L811.834 183.571L811.849 183.544C812.734 181.774 813.119 180.065 812.834 179.331L812.794 179.239L812.782 179.235C812.626 179.183 812.313 179.186 811.834 179.304C810.405 179.654 808.273 180.845 805.559 182.919L803.648 184.443C803.349 184.681 803.037 184.927 802.716 185.182L801.102 186.452C799.756 187.508 798.411 188.553 797.099 189.559L795.904 190.472L794.591 191.466C791.429 193.846 788.93 195.624 787.284 196.631C787.162 196.705 787.033 196.764 786.897 196.808L786.584 196.911C786.372 196.981 786.133 197.062 785.868 197.153L785.665 197.223C784.67 197.568 783.559 197.97 782.363 198.427C778.946 199.73 775.53 201.202 772.351 202.805C766.185 205.917 761.697 209.141 759.675 212.214C756.442 217.183 739.465 258.858 719.213 310.459C718.753 311.631 717.255 311.968 716.338 311.104L711.566 306.609C705.155 300.561 698.563 294.32 692.019 288.107L679.526 276.221L591.308 295.067L592.623 296.448C594.441 298.343 596.883 300.837 600.041 304.015L602.124 306.107C615.22 319.224 636.332 339.861 667.233 369.628L668.201 370.561C685.704 387.423 701.124 397.605 714.384 401.707C725.795 405.238 735.309 404.174 742.921 399.231C742.984 399.19 743.05 399.153 743.118 399.121C750.551 395.538 757.913 385.436 758.995 377.736L759.036 377.431L782.048 234.209C782.151 233.567 782.596 233.033 783.209 232.815C795.35 228.502 804.735 223.444 811.45 218.045C814.686 215.427 820.448 207.778 826.56 198.284L827.002 197.594C829.6 193.533 832.034 189.482 833.863 186.188L834.072 185.811C834.98 184.163 835.701 182.765 836.19 181.704L836.34 181.372C836.505 181.001 836.633 180.687 836.721 180.436L836.806 180.186C836.82 180.149 836.827 180.143 836.827 180.182C836.818 179.002 836.587 178.607 836.254 178.52Z" fill="#484D7A"/>
<path fill-rule="evenodd" clip-rule="evenodd" d="M717.498 309.75C717.498 309.75 695.079 347.942 707.89 368.403L717.498 309.75Z" fill="white"/>
<path fill-rule="evenodd" clip-rule="evenodd" d="M718.398 308.216C719.214 308.695 719.508 309.723 719.084 310.556L718.737 311.168C718.656 311.312 718.567 311.471 718.472 311.643L718.161 312.21C717.843 312.796 717.502 313.438 717.143 314.132L716.962 314.483C715.394 317.537 713.826 320.899 712.363 324.464C709.366 331.768 707.21 338.947 706.253 345.627C704.986 354.478 705.915 361.895 709.398 367.459C709.919 368.291 709.667 369.389 708.834 369.911C708.001 370.432 706.903 370.18 706.382 369.347C702.385 362.964 701.355 354.732 702.731 345.123C703.734 338.116 705.971 330.667 709.071 323.114C710.574 319.449 712.185 315.997 713.796 312.859L714.166 312.142C714.531 311.444 714.876 310.799 715.199 310.21L715.721 309.272L715.963 308.85C716.461 308.002 717.551 307.718 718.398 308.216Z" fill="#484D7A"/>
<path fill-rule="evenodd" clip-rule="evenodd" d="M331.399 271.736C331.399 271.736 306.786 265.39 292.671 252.283C284.249 244.455 273.455 233.84 273.633 230.341C273.929 223.817 287.748 233.662 290.002 235.026" fill="white"/>
<path fill-rule="evenodd" clip-rule="evenodd" d="M289.081 236.547L288.831 236.382C287.977 235.828 285.238 234.071 283.842 233.242L283.747 233.186C282.839 232.651 281.975 232.17 281.156 231.749C279.118 230.7 277.441 230.066 276.309 229.932L276.176 229.919C275.469 229.858 275.437 229.857 275.413 230.362L275.41 230.431C275.304 232.509 282.731 240.614 293.882 250.979C297.66 254.488 302.458 257.72 308.039 260.663C313.244 263.409 318.833 265.754 324.424 267.698C326.218 268.322 327.894 268.862 329.415 269.32L329.826 269.442C330.232 269.563 330.604 269.67 330.941 269.765L331.844 270.012C332.795 270.258 333.368 271.228 333.122 272.179C332.886 273.097 331.975 273.662 331.057 273.481L330.802 273.418L330.383 273.304C329.929 273.179 329.405 273.029 328.815 272.854C327.136 272.356 325.267 271.758 323.255 271.059C317.507 269.06 311.757 266.648 306.379 263.811C300.542 260.732 295.492 257.33 291.46 253.586L290.316 252.52C278.162 241.156 271.668 233.951 271.855 230.259C271.98 227.526 273.853 226.148 276.48 226.373C278.189 226.52 280.283 227.298 282.784 228.585C283.542 228.975 284.328 229.407 285.144 229.88L285.554 230.12C286.46 230.655 287.952 231.593 289.136 232.348L290.923 233.503C291.764 234.012 292.033 235.106 291.524 235.947C291.015 236.787 289.921 237.056 289.081 236.547Z" fill="#484D7A"/>
<path fill-rule="evenodd" clip-rule="evenodd" d="M314.912 251.81C314.912 251.81 303.94 243.744 298.483 236.212C293.027 228.621 288.757 223.758 289.943 222.454C291.129 221.09 298.009 220.378 301.804 224.766C306.49 232.535 321.02 241.965 321.02 241.965C319.3 241.609 309.515 233.781 304.77 228.74C300.084 223.699 298.424 214.863 311.768 222.809C311.768 222.809 325.943 231.764 331.281 234.255C331.281 234.255 354.233 238.762 361.113 247.065C365.798 252.64 394.444 306.074 412.652 340.352C429.674 320.188 445.865 300.795 445.865 300.795L539.632 309.928C539.632 309.928 535.421 316.986 469.944 396.217C436.85 436.248 412.711 441.526 396.817 433.638C388.158 430.614 379.321 420.651 377.423 412.704L338.338 272.981C324.401 269.72 314.556 265.45 308.091 261.298C299.669 255.902 278.081 228.206 277.785 225.241C276.954 217.413 288.816 222.276 297.653 235.323" fill="white"/>
<path fill-rule="evenodd" clip-rule="evenodd" d="M336.907 274.469L336.679 274.414C324.218 271.392 314.261 267.374 307.131 262.796C299.296 257.775 276.442 229.699 276.015 225.428C275.44 220 279.613 218.376 284.852 220.844C285.749 221.266 286.673 221.793 287.611 222.414L287.966 222.653L287.969 222.63C288.027 222.182 288.199 221.766 288.512 221.388L288.6 221.286C289.702 220.019 292.324 219.447 295.047 219.68C296.662 219.818 298.218 220.226 299.627 220.911L299.664 220.93L299.668 220.906C299.699 220.749 299.738 220.595 299.785 220.446L299.835 220.299C300.507 218.44 302.294 217.613 304.612 217.909C306.653 218.17 309.322 219.281 312.719 221.305L314.121 222.184C314.621 222.497 315.159 222.832 315.728 223.185L317.684 224.392C319.316 225.394 320.944 226.383 322.517 227.323L324.082 228.253C327.391 230.206 330.025 231.676 331.725 232.496L331.844 232.553L332.803 232.758L333.031 232.808C334.134 233.053 335.362 233.344 336.684 233.682C340.463 234.649 344.244 235.795 347.784 237.121C354.586 239.669 359.691 242.56 362.475 245.92C366.26 250.423 383.876 282.513 409.327 330.31L412.989 337.193L418.726 330.385C422.348 326.084 426.018 321.716 429.687 317.344L439.247 305.936L444.499 299.655C444.851 299.233 445.376 299 445.921 299.017L446.037 299.024L539.804 308.157C541.103 308.284 541.828 309.719 541.16 310.839L541.034 311.038C540.819 311.363 540.406 311.945 539.71 312.885L539.377 313.333C537.67 315.619 535.03 319.035 531.258 323.806L528.574 327.19C516.842 341.935 498.25 364.758 471.316 397.35C455.487 416.496 440.915 428.701 427.646 434.526C415.922 439.672 405.372 439.752 396.327 435.379L396.123 435.279L395.959 435.221C387.101 431.99 377.945 421.972 375.757 413.379L375.709 413.183L336.907 274.469ZM279.541 224.919L279.554 225.046C279.556 225.012 279.599 225.125 279.685 225.304C279.816 225.576 280.007 225.925 280.254 226.341L280.35 226.5C280.952 227.497 281.824 228.803 282.912 230.337L283.416 231.042C285.394 233.792 287.899 237.059 290.571 240.37L291.271 241.234C298.605 250.244 305.452 257.493 309.053 259.8C316.056 264.298 326.069 268.282 338.744 271.248C339.339 271.387 339.818 271.821 340.018 272.393L340.052 272.501L379.136 412.224L379.154 412.29C380.957 419.841 389.509 429.2 397.404 431.958C397.473 431.982 397.542 432.011 397.608 432.044C405.744 436.081 415.297 436.06 426.215 431.267C438.782 425.75 452.787 414.072 468.108 395.643L476.883 385.016C499.368 357.746 515.318 338.135 525.787 324.977L528.72 321.278C531.664 317.551 533.896 314.678 535.512 312.549L536.379 311.398L446.628 302.656L437.005 314.154L431.203 321.072C425.396 327.991 419.598 334.881 414.012 341.499C413.199 342.461 411.672 342.298 411.081 341.186L406.197 332.002C381.14 284.95 363.282 252.41 359.743 248.199C357.451 245.434 352.8 242.799 346.536 240.453C343.129 239.177 339.466 238.066 335.802 237.129C334.519 236.801 333.328 236.518 332.26 236.281L331.45 236.106L330.938 236C330.797 235.972 330.659 235.928 330.529 235.867C328.659 234.994 325.711 233.352 321.942 231.121L320.691 230.377C318.788 229.239 316.807 228.033 314.837 226.817L312.542 225.393L310.858 224.337C307.883 222.566 305.626 221.626 304.161 221.439C303.356 221.336 303.221 221.399 303.181 221.508C302.913 222.25 303.534 224.038 304.713 225.803L304.813 225.951L304.92 226.085C305.131 226.346 305.353 226.612 305.586 226.881L305.823 227.152C307.425 228.964 309.466 230.899 311.841 232.901C314.06 234.771 316.443 236.595 318.827 238.297L319.441 238.732C319.843 239.015 320.228 239.283 320.595 239.534L321.407 240.086L321.989 240.472C323.64 241.543 322.587 244.105 320.66 243.706C318.371 243.233 308.316 235.102 303.467 229.95C302.931 229.374 302.434 228.763 301.988 228.134L301.879 227.978L301.666 227.703C301.215 227.113 300.811 226.534 300.455 225.967L300.372 225.832L300.313 225.766C298.98 224.319 297.082 223.474 294.978 223.247L294.744 223.225C293.8 223.144 292.884 223.198 292.142 223.36C291.985 223.394 291.841 223.432 291.713 223.472L291.687 223.481L291.695 223.5C291.921 224.002 292.323 224.683 292.92 225.572L293.188 225.966C294.071 227.25 298.788 233.587 299.924 235.168C300.24 235.603 300.581 236.049 300.946 236.504C302.426 238.346 304.279 240.308 306.418 242.337C308.506 244.317 310.749 246.253 312.992 248.062C313.581 248.536 314.138 248.977 314.655 249.378L315.419 249.965L315.966 250.375C316.757 250.957 316.927 252.071 316.345 252.863C315.763 253.654 314.65 253.824 313.858 253.242L313.394 252.895L312.995 252.591C312.319 252.074 311.567 251.484 310.758 250.832C308.446 248.967 306.133 246.971 303.969 244.918C301.722 242.787 299.763 240.713 298.172 238.732C297.871 238.358 297.584 237.987 297.309 237.618L296.753 236.856L296.706 236.828C296.532 236.719 296.375 236.578 296.243 236.408L296.18 236.32C292.214 230.465 287.333 225.945 283.335 224.062C281.738 223.31 280.519 223.111 279.941 223.336C279.63 223.457 279.446 223.848 279.541 224.919Z" fill="#484D7A"/>
<path fill-rule="evenodd" clip-rule="evenodd" d="M412.652 340.352C412.652 340.352 439.222 375.757 428.902 397.522L412.652 340.352Z" fill="white"/>
<path fill-rule="evenodd" clip-rule="evenodd" d="M411.584 338.928C412.37 338.339 413.485 338.498 414.075 339.284L414.298 339.586C414.474 339.827 414.677 340.109 414.905 340.431L415.302 340.997C415.844 341.773 416.429 342.636 417.049 343.578C419.262 346.94 421.475 350.631 423.541 354.54C427.596 362.214 430.586 369.77 432.06 376.891C433.745 385.032 433.368 392.257 430.51 398.284C430.089 399.171 429.028 399.55 428.14 399.129C427.252 398.708 426.874 397.647 427.295 396.759C429.779 391.521 430.117 385.057 428.576 377.613C427.178 370.863 424.306 363.604 420.395 356.203C418.385 352.401 416.231 348.806 414.077 345.535L413.583 344.791C413.098 344.065 412.639 343.396 412.212 342.787L411.751 342.137L411.229 341.419C410.639 340.633 410.798 339.518 411.584 338.928Z" fill="#484D7A"/>
<path fill-rule="evenodd" clip-rule="evenodd" d="M639.448 246.768C669.873 256.02 709.491 299.55 709.491 299.55L651.428 363.124L676.456 527.043L468.639 528.467L481.924 422.37C481.924 422.37 459.624 403.393 459.921 377.832C460.217 352.272 461.166 353.28 461.166 353.28L430.622 315.799C430.622 315.799 454.88 273.515 480.619 263.729C506.359 253.944 610.268 237.872 639.448 246.768Z" fill="#FF8D7E"/>
<path fill-rule="evenodd" clip-rule="evenodd" d="M519.348 234.136L521.127 254.24L509.028 257.324C503.928 260.467 501.437 298.838 538.92 294.983C576.403 291.128 597.576 266.872 602.736 245.522L586.13 246.293L575.573 195.766L519.348 234.136Z" fill="white"/>
<path fill-rule="evenodd" clip-rule="evenodd" d="M518.345 232.667L518.248 232.738C517.778 233.108 517.523 233.692 517.576 234.293L519.221 252.89L508.589 255.6C508.415 255.645 508.248 255.716 508.095 255.81C504.131 258.253 503.032 270.226 506.331 279.381C510.767 291.69 521.71 298.542 539.102 296.753C557.084 294.904 572.378 288.338 584.115 278.158C594.521 269.132 601.65 257.59 604.465 245.941L604.487 245.836C604.689 244.723 603.802 243.692 602.653 243.746L587.561 244.446L577.314 195.402C577.055 194.161 575.617 193.582 574.57 194.296L518.345 232.667ZM574.375 198.737L584.388 246.658L584.413 246.763C584.631 247.562 585.376 248.11 586.212 248.071L600.387 247.412L600.315 247.657C597.299 257.711 590.868 267.59 581.783 275.47C570.601 285.168 555.996 291.439 538.738 293.214C522.97 294.835 513.56 288.943 509.679 278.175C508.189 274.041 507.665 269.407 508.048 265.24C508.213 263.438 508.544 261.831 508.985 260.606L509.043 260.45C509.313 259.736 509.596 259.234 509.804 258.987L509.831 258.956L521.567 255.965L521.671 255.935C522.458 255.683 522.973 254.917 522.9 254.084L521.212 235.018L574.375 198.737Z" fill="#484D7A"/>
<path fill-rule="evenodd" clip-rule="evenodd" d="M575.751 178.212L580.91 179.22C580.91 179.22 610.921 182.719 609.201 155.261C607.896 134.385 587.375 135.69 577.53 137.469" fill="white"/>
<path fill-rule="evenodd" clip-rule="evenodd" d="M577.213 135.718C584.389 134.421 591.257 134.326 597.104 136.173C605.315 138.767 610.339 144.955 610.976 155.149C611.8 168.299 605.857 176.115 595.641 179.435C590.892 180.978 585.95 181.347 581.659 181.067L581.253 181.038C581.012 181.019 580.827 181.001 580.704 180.987L580.637 180.978L580.569 180.966L575.409 179.958C574.445 179.769 573.816 178.835 574.004 177.87C574.186 176.94 575.062 176.322 575.989 176.448L576.092 176.465L581.177 177.458L581.364 177.477C581.473 177.486 581.607 177.497 581.766 177.508L581.89 177.516C585.77 177.769 590.291 177.432 594.541 176.051C603.281 173.211 608.142 166.818 607.425 155.371C606.881 146.672 602.865 141.724 596.032 139.566C590.848 137.928 584.504 138.017 577.846 139.22C576.879 139.394 575.954 138.752 575.779 137.785C575.604 136.818 576.246 135.893 577.213 135.718Z" fill="#484D7A"/>
<path fill-rule="evenodd" clip-rule="evenodd" d="M468.758 166.647C469.707 179.16 480.679 236.211 520.89 235.796C561.101 235.381 583.698 196.121 583.461 158.463C583.223 120.804 562.94 91.8039 537.497 91.5074C512.053 91.2108 461.819 75.8509 468.758 166.647Z" fill="white"/>
<path fill-rule="evenodd" clip-rule="evenodd" d="M509.783 88.6817C495.586 89.4061 484.944 93.9147 477.446 104.194C468.495 116.466 464.772 136.458 466.917 165.888L466.984 166.782C467.777 177.239 471.927 193.702 478.509 206.866C488.229 226.304 502.227 237.768 520.908 237.576C540.526 237.373 557.093 228.146 568.78 212.145C579.472 197.509 585.363 178.006 585.24 158.452C584.998 120.122 564.23 90.0399 537.517 89.7286L536.159 89.7032C534.905 89.6693 533.623 89.6023 531.508 89.4617L525.378 89.0337C518.539 88.568 514.415 88.4454 509.783 88.6817ZM531.317 93.0152C534.226 93.2084 535.597 93.2648 537.476 93.2867C561.914 93.5715 581.451 121.869 581.681 158.474C581.8 177.288 576.134 196.045 565.907 210.047C554.858 225.173 539.32 233.827 520.872 234.017C503.778 234.194 490.864 223.617 481.692 205.274C475.411 192.714 471.396 176.944 470.563 166.9L470.532 166.511C468.304 137.357 471.865 117.884 480.321 106.291C487.031 97.0917 496.547 92.9946 509.557 92.2574L509.964 92.2354C514.424 92.0079 518.44 92.1276 525.156 92.5851L531.317 93.0152Z" fill="#484D7A"/>
<rect width="14.4119" height="25.442" transform="matrix(0.944406 0.328781 -0.328818 0.944393 581.355 41.7891)" fill="#FF8D7E"/>
<path fill-rule="evenodd" clip-rule="evenodd" d="M596.212 50.9432C610.264 50.9432 621.655 39.5525 621.655 25.5014C621.655 11.4503 610.264 0.0595703 596.212 0.0595703C582.16 0.0595703 570.769 11.4503 570.769 25.5014C570.769 39.5525 582.16 50.9432 596.212 50.9432Z" fill="#484D7A"/>
<path fill-rule="evenodd" clip-rule="evenodd" d="M574.09 57.8822C551.493 50.7063 527.236 47.3853 505.885 55.8659C441.179 85.1032 441.061 133.911 468.224 156.091C467.216 121.516 475.638 104.792 487.499 96.9049C500.488 117.602 542.419 135.512 580.792 135.928C580.851 136.283 580.97 136.639 581.029 136.936C591.586 135.631 608.133 136.58 609.26 155.261C610.861 180.999 584.647 179.576 581.326 179.279C580.91 181.296 575.513 199.74 575.513 199.74L581.326 226.13L666.671 212.846C671.83 212.727 675.389 207.627 673.728 202.764C663.468 172.222 646.743 81.9601 574.09 57.8822Z" fill="#484D7A"/>
<path fill-rule="evenodd" clip-rule="evenodd" d="M526.455 193.747L526.257 193.75L525.819 193.77L525.524 193.787C524.888 193.826 524.112 193.884 523.278 193.958C521 194.16 518.658 194.444 516.473 194.812C513.637 195.289 511.25 195.874 509.443 196.594C506.856 197.625 505.292 198.966 505.292 200.984C505.292 204.527 510.435 207.573 515.588 207.641C521.805 207.724 526.677 203.749 528.212 195.868C528.233 195.756 528.244 195.642 528.244 195.528L528.127 195.076C527.959 194.447 527.895 194.396 527.51 194.088L527.269 193.944C527.174 193.89 527.135 193.877 527.028 193.84L526.805 193.781C526.772 193.774 526.748 193.771 526.705 193.765L526.545 193.75L526.455 193.747ZM524.131 197.456L524.082 197.603C522.537 202.104 519.496 204.135 515.635 204.083C513.824 204.059 511.979 203.536 510.574 202.704L510.436 202.62C509.484 202.03 508.949 201.41 508.863 201.073L508.855 201.037L508.884 200.999C508.923 200.951 508.982 200.89 509.063 200.821C509.404 200.529 509.98 200.211 510.76 199.9C512.289 199.291 514.454 198.76 517.063 198.321C519.147 197.97 521.4 197.697 523.592 197.503L524.131 197.456Z" fill="#484D7A"/>
<path fill-rule="evenodd" clip-rule="evenodd" d="M500.046 134.744C500.993 134.793 501.728 135.572 501.733 136.508L501.731 136.612L499.349 182.59L509.225 181.368C510.165 181.252 511.025 181.892 511.194 182.812L511.209 182.916C511.326 183.856 510.686 184.715 509.766 184.884L509.662 184.9L497.682 186.382C496.619 186.514 495.691 185.686 495.684 184.631L495.686 184.525L498.177 136.428C498.226 135.482 499.006 134.747 499.942 134.741L500.046 134.744Z" fill="#484D7A"/>
<path fill-rule="evenodd" clip-rule="evenodd" d="M474.17 138.664C476.218 138.309 478.347 138.493 480.406 139.008C481.195 139.205 481.801 139.406 482.166 139.552C483.079 139.914 483.526 140.949 483.163 141.862C482.813 142.743 481.838 143.189 480.95 142.894L480.681 142.796C480.639 142.781 480.59 142.765 480.534 142.746C480.243 142.649 479.91 142.552 479.543 142.46C477.925 142.055 476.267 141.912 474.778 142.17C472.789 142.515 471.307 143.536 470.357 145.484C469.926 146.367 468.861 146.734 467.978 146.303C467.095 145.872 466.728 144.807 467.158 143.924C468.635 140.897 471.104 139.196 474.17 138.664Z" fill="#484D7A"/>
<path fill-rule="evenodd" clip-rule="evenodd" d="M536.607 143.815C536.607 143.815 522.017 145.95 520.238 136.461L536.607 143.815Z" fill="white"/>
<path fill-rule="evenodd" clip-rule="evenodd" d="M519.91 134.712C520.876 134.531 521.805 135.167 521.987 136.133C522.567 139.227 524.903 141.017 528.699 141.812C530.914 142.277 533.315 142.333 535.503 142.145L535.847 142.113L536.147 142.08C536.253 142.068 536.321 142.059 536.349 142.055C537.322 141.912 538.225 142.585 538.367 143.557C538.51 144.53 537.837 145.433 536.865 145.575L536.606 145.61C536.4 145.634 536.132 145.663 535.807 145.69C533.303 145.905 530.577 145.841 527.969 145.295C522.906 144.235 519.378 141.531 518.489 136.789C518.308 135.823 518.944 134.894 519.91 134.712Z" fill="#484D7A"/>
<path fill-rule="evenodd" clip-rule="evenodd" d="M530.785 160.031C532.953 159.693 534.286 156.691 533.762 153.325C533.237 149.96 531.055 147.505 528.886 147.843C526.718 148.18 525.385 151.183 525.909 154.548C526.433 157.914 528.616 160.369 530.785 160.031Z" fill="#484D7A"/>
<path fill-rule="evenodd" clip-rule="evenodd" d="M486.663 167.972C488.832 167.634 490.164 164.632 489.64 161.266C489.116 157.9 486.933 155.445 484.765 155.783C482.596 156.121 481.263 159.123 481.788 162.489C482.312 165.855 484.495 168.309 486.663 167.972Z" fill="#484D7A"/>
<path fill-rule="evenodd" clip-rule="evenodd" d="M531.934 111.017C517.011 113.278 507.508 130.734 510.405 149.848C513.301 168.962 527.549 182.819 542.471 180.559C557.393 178.298 566.896 160.842 564 141.728C561.104 122.614 546.856 108.757 531.934 111.017ZM532.467 114.536C545.201 112.606 557.853 124.912 560.482 142.261C563.111 159.611 554.672 175.111 541.938 177.041C529.204 178.97 516.552 166.664 513.923 149.315C511.294 131.965 519.733 116.465 532.467 114.536Z" fill="#FF8D7E"/>
<path fill-rule="evenodd" clip-rule="evenodd" d="M463.429 123.176C448.506 125.437 439.004 142.893 441.9 162.007C444.796 181.121 459.044 194.978 473.966 192.718C488.888 190.457 498.391 173.001 495.495 153.887C492.599 134.773 478.351 120.916 463.429 123.176ZM463.962 126.695C476.696 124.766 489.348 137.071 491.976 154.421C494.605 171.77 486.167 187.271 473.433 189.2C460.699 191.129 448.047 178.824 445.418 161.474C442.789 144.124 451.227 128.624 463.962 126.695Z" fill="#FF8D7E"/>
<path fill-rule="evenodd" clip-rule="evenodd" d="M511.156 144.315C512.124 144.147 513.045 144.795 513.213 145.763C513.375 146.697 512.778 147.587 511.867 147.8L511.764 147.82L492.963 151.082C491.995 151.25 491.074 150.602 490.906 149.633C490.744 148.7 491.342 147.81 492.253 147.597L492.355 147.576L511.156 144.315Z" fill="#FF8D7E"/>
<path fill-rule="evenodd" clip-rule="evenodd" d="M562.165 133.617L585.948 135.159C586.929 135.223 587.672 136.069 587.608 137.05C587.547 137.995 586.758 138.72 585.822 138.714L585.718 138.71L561.935 137.168C560.954 137.104 560.211 136.258 560.275 135.277C560.336 134.332 561.125 133.607 562.061 133.613L562.165 133.617Z" fill="#FF8D7E"/>
</svg>
