<svg width="711" height="290" viewBox="0 0 711 290" fill="none" xmlns="http://www.w3.org/2000/svg">
  <rect x="53.8105" y="16.5723" width="388.202" height="271.185" fill="#3A55D1"/>
  <path fill-rule="evenodd" clip-rule="evenodd" d="M423.829 33.9717H265.747C265.026 33.9717 264.442 34.556 264.442 35.2767V269.529C264.442 270.25 265.026 270.834 265.747 270.834H423.829C424.55 270.834 425.134 270.25 425.134 269.529V35.2767C425.134 34.556 424.55 33.9717 423.829 33.9717ZM422.524 36.5813V268.224H267.052V36.5813H422.524Z" fill="#383838"/>
  <path fill-rule="evenodd" clip-rule="evenodd" d="M294.849 144.202C289.561 144.202 285.235 148.211 285.235 153.207C285.235 158.203 289.561 162.212 294.849 162.212C300.137 162.212 304.462 158.203 304.462 153.207C304.462 148.211 300.137 144.202 294.849 144.202ZM294.849 146.812C298.738 146.812 301.852 149.698 301.852 153.207C301.852 156.715 298.738 159.602 294.849 159.602C290.96 159.602 287.845 156.715 287.845 153.207C287.845 149.698 290.96 146.812 294.849 146.812Z" fill="#383838"/>
  <path fill-rule="evenodd" clip-rule="evenodd" d="M375.325 51.502H311.162C310.539 51.502 310.003 51.9422 309.882 52.5533C307.143 66.3708 294.051 76.602 278.666 76.602L278.453 76.6016L278.228 76.5988L278.161 76.5971C278.027 76.5932 277.912 76.5864 277.813 76.5765L277.741 76.5685C276.962 76.4712 276.274 77.0785 276.274 77.8635V226.506C276.274 227.227 276.858 227.811 277.579 227.811L277.752 227.809C277.81 227.807 277.872 227.805 277.944 227.801L278.509 227.771C278.554 227.769 278.593 227.768 278.63 227.768L278.666 227.768C294.222 227.768 307.396 238.21 309.965 252.233C310.078 252.852 310.619 253.303 311.249 253.303H375.238C375.87 253.303 376.411 252.85 376.523 252.229C379.046 238.224 392.25 227.768 407.821 227.768C409.158 227.768 410.496 227.851 411.835 228.018C412.614 228.116 413.302 227.508 413.302 226.724V77.646C413.302 76.8589 412.61 76.251 411.83 76.3517C410.537 76.5184 409.201 76.602 407.821 76.602C392.393 76.602 379.302 66.3714 376.606 52.5571C376.487 51.9442 375.95 51.502 375.325 51.502ZM374.271 54.1111L374.339 54.4017C377.838 68.7802 391.671 79.2116 407.821 79.2116L408.316 79.2082C408.974 79.1993 409.624 79.1725 410.265 79.1277L410.691 79.0946V225.275L410.231 225.241C409.428 225.185 408.624 225.157 407.821 225.157L407.317 225.16C391.233 225.377 377.533 235.969 374.233 250.402L374.168 250.692H312.315L312.25 250.397C308.908 235.954 295.238 225.377 279.169 225.16L278.884 225.158V79.2098L279.164 79.2083C295.057 78.9961 308.639 68.6335 312.143 54.4053L312.213 54.1111H374.271Z" fill="#383838"/>
  <path fill-rule="evenodd" clip-rule="evenodd" d="M71.7194 270.808L229.802 270.808C230.522 270.808 231.107 270.223 231.107 269.503L231.107 35.2503C231.107 34.5296 230.522 33.9453 229.802 33.9453L71.7194 33.9453C70.9987 33.9453 70.4144 34.5296 70.4144 35.2503L70.4144 269.503C70.4144 270.223 70.9987 270.808 71.7194 270.808ZM73.0249 268.198L73.0249 36.5555L228.497 36.5555L228.497 268.198L73.0249 268.198Z" fill="#383838"/>
  <path fill-rule="evenodd" clip-rule="evenodd" d="M200.713 144.203C195.425 144.203 191.099 148.212 191.099 153.208C191.099 158.204 195.425 162.212 200.713 162.212C206.001 162.212 210.327 158.204 210.327 153.208C210.327 148.212 206.001 144.203 200.713 144.203ZM200.713 146.813C204.602 146.813 207.717 149.699 207.717 153.207C207.717 156.716 204.602 159.602 200.713 159.602C196.824 159.602 193.709 156.716 193.709 153.207C193.709 149.699 196.824 146.813 200.713 146.813Z" fill="#383838"/>
  <path fill-rule="evenodd" clip-rule="evenodd" d="M184.4 51.5029H120.237C119.612 51.5029 119.075 51.9452 118.956 52.558C116.26 66.3724 103.169 76.6029 87.7414 76.6029C86.3609 76.6029 85.0247 76.5194 83.7323 76.3527C82.9517 76.2519 82.2603 76.8599 82.2603 77.647V226.725C82.2603 227.509 82.9482 228.117 83.7271 228.019C85.0656 227.852 86.4036 227.769 87.7414 227.769C103.297 227.769 116.471 238.211 119.04 252.234C119.153 252.853 119.693 253.304 120.324 253.304H184.313C184.943 253.304 185.483 252.853 185.597 252.234C188.14 238.351 201.077 227.978 216.43 227.772L216.896 227.769C216.945 227.769 216.993 227.769 217.053 227.772L217.687 227.805C217.797 227.81 217.883 227.812 217.983 227.812C218.704 227.812 219.288 227.228 219.288 226.507V77.8645C219.288 77.1057 218.645 76.5128 217.899 76.5621L217.821 76.5695C217.752 76.5781 217.675 76.5849 217.588 76.59L217.401 76.5981C217.264 76.6021 217.149 76.6029 216.896 76.6029C201.511 76.6029 188.419 66.3718 185.68 52.5543C185.559 51.9432 185.023 51.5029 184.4 51.5029ZM183.348 54.1125L183.419 54.4066C186.923 68.6349 200.505 78.9975 216.398 79.2096L216.677 79.2112V225.16L216.392 225.162C200.324 225.378 186.654 235.955 183.312 250.398L183.246 250.693H121.39L121.324 250.398C117.948 235.805 104.027 225.158 87.7412 225.158L87.2592 225.162C86.6164 225.171 85.9737 225.197 85.331 225.242L84.8697 225.277V79.0959L85.2966 79.1291C86.0982 79.185 86.9131 79.2129 87.7412 79.2129L88.24 79.2096C104.175 78.9974 117.76 68.6334 121.223 54.403L121.29 54.1125H183.348Z" fill="#383838"/>
  <path fill-rule="evenodd" clip-rule="evenodd" d="M248.956 16.876V287.626H246.345V16.876H248.956Z" fill="#383838"/>
  <path fill-rule="evenodd" clip-rule="evenodd" d="M313.989 187.358L284.191 170.479C282.234 169.348 279.972 168.739 277.666 168.739H253.523C252.958 168.739 252.784 169.522 253.262 169.783L286.453 187.227H284.539V287.236H313.38V187.358H313.989Z" fill="white"/>
  <path fill-rule="evenodd" clip-rule="evenodd" d="M286.497 187.183L253.306 169.739C252.784 169.478 253.001 168.695 253.567 168.695H252.566C248.433 168.695 247.085 174.22 250.739 176.134L271.75 187.183H179.05V287.192H286.453L286.497 187.183Z" fill="#FFC29E"/>
  <path fill-rule="evenodd" clip-rule="evenodd" d="M238.472 254.392C240.125 250.303 241.125 245.562 241.125 240.472C241.125 235.383 240.168 230.641 238.515 226.552L242.866 215.764C243.518 214.111 241.995 212.414 240.125 212.719L228.075 214.502C226.901 213.98 225.726 213.632 224.465 213.415V209.63C224.465 207.411 222.681 205.628 220.463 205.628H218.897C216.678 205.628 214.894 207.411 214.894 209.63V215.633C208.413 219.853 203.845 229.379 203.845 240.385C203.845 251.434 208.369 260.961 214.894 265.181V269.966C214.894 272.184 216.678 273.968 218.897 273.968H220.463C222.681 273.968 224.465 272.184 224.465 269.966V267.356C225.683 267.182 226.901 266.79 228.032 266.312L240.081 268.139C241.995 268.443 243.518 266.747 242.866 265.094L238.472 254.392Z" fill="#FF8D7E"/>
  <path fill-rule="evenodd" clip-rule="evenodd" d="M638.81 197.058C636.853 187.922 635.461 178.222 634.504 169.261C634.286 161.213 633.982 152.73 633.851 143.856C633.808 141.899 633.503 140.115 632.938 138.462C650.643 106.663 649.599 60.3779 632.416 32.6243C611.84 -0.653887 561.683 -8.83206 540.411 9.74282C519.096 28.3177 523.403 60.3779 532.494 65.598C541.586 70.8181 539.237 59.6818 539.237 59.6818C539.237 59.6818 528.753 9.09031 585.696 23.0541C640.724 36.5394 611.796 105.053 572.472 121.366C537.453 122.976 497.389 131.328 481.12 134.895C478.336 131.067 474.508 127.587 469.461 124.585C474.986 114.841 486.47 93.0035 478.684 93.2645C474.464 93.395 425.613 96.2661 411.997 120.279C404.471 122.106 397.859 124.629 392.247 127.282C381.851 124.15 344.179 115.276 320.949 143.117C316.643 151.73 335.74 150.773 350.53 161.691C344.657 175.655 341.83 199.668 370.41 214.589C382.634 220.983 395.901 222.549 408.647 221.331C408.734 221.549 408.908 221.81 409.082 222.027C409.082 232.511 412.345 232.859 414.302 234.599C414.215 237.47 413.432 240.341 412.78 243.734C411.344 251.477 409.735 262.309 409.735 262.309C405.776 262.309 392.943 271.183 390.855 275.664C389.681 278.187 390.681 286.321 390.681 286.321C390.681 286.321 435.313 287.452 439.054 286.365C442.752 285.321 442.665 283.32 442.926 279.666C443.187 275.751 449.538 260.264 457.629 244.387C462.458 245.561 467.634 246.692 473.203 247.693C471.985 254.74 470.854 262.352 470.854 262.352C466.895 262.352 454.062 271.227 451.974 275.707C450.8 278.23 451.8 286.365 451.8 286.365C451.8 286.365 496.432 287.496 500.173 286.408C503.871 285.364 503.784 283.363 504.045 279.709C504.262 276.447 508.699 265.224 514.789 252.434C527.144 253.13 540.759 253.435 555.767 253.174C558.203 253.13 560.509 253.043 562.814 252.956C562.814 254.87 561.77 256.784 559.769 258.22L548.111 266.529L530.102 265.441C513.832 264.789 513.876 287.104 513.876 287.104H574.69C574.69 287.104 581.911 280.971 590.22 275.359C598.529 269.748 609.36 263.223 608.577 257.35C608.316 255.61 606.794 250.738 604.793 244.778C605.706 244.387 606.576 243.952 607.403 243.56C615.146 245.213 622.237 246.779 627.413 247.91C632.329 248.998 635.591 252.608 635.243 256.61L634.33 267.747C634.33 267.747 627.326 264.136 617.582 268.747C607.881 273.358 612.188 287.409 612.188 287.409L662.91 287.714C663.562 281.71 672.785 253.13 674.96 238.296C677.135 223.289 645.075 225.942 638.81 197.058Z" fill="#FF8D7E"/>
  <path fill-rule="evenodd" clip-rule="evenodd" d="M401.123 170.621C403.508 170.331 405.07 167.041 404.611 163.273C404.152 159.505 401.847 156.685 399.462 156.975C397.077 157.266 395.516 160.556 395.974 164.324C396.433 168.092 398.738 170.912 401.123 170.621Z" fill="#383838"/>
  <path fill-rule="evenodd" clip-rule="evenodd" d="M372.022 175.541C374.407 175.251 375.968 171.961 375.51 168.193C375.051 164.425 372.746 161.605 370.361 161.895C367.976 162.186 366.415 165.476 366.873 169.244C367.332 173.012 369.637 175.832 372.022 175.541Z" fill="#383838"/>
  <path fill-rule="evenodd" clip-rule="evenodd" d="M400.6 190.576C399.295 188.966 396.38 188.705 393.596 188.488C392.421 188.401 390.638 188.227 390.116 187.966C390.116 187.922 390.072 187.879 390.072 187.835L389.724 185.791C389.985 185.66 390.203 185.443 390.42 185.225L395.031 179.483C396.119 178.091 394.988 176.395 393.161 176.656L381.981 178.352C380.067 178.657 379.284 180.832 380.807 181.789L387.332 185.791L387.767 188.401C387.419 188.792 385.896 189.445 384.983 189.836C382.286 190.968 378.632 192.49 379.893 195.622C380.067 196.101 380.546 196.362 381.024 196.362C381.155 196.362 381.329 196.318 381.459 196.275C382.068 196.014 382.373 195.318 382.112 194.709C381.764 193.839 383.634 192.969 385.896 192.012C387.245 191.446 388.55 190.881 389.376 190.141C390.42 190.533 391.856 190.663 393.422 190.794C395.292 190.968 398.12 191.185 398.773 192.012C398.86 192.099 398.903 192.229 398.86 192.49C398.773 193.143 399.208 193.752 399.904 193.839C399.947 193.839 400.034 193.839 400.078 193.839C400.687 193.839 401.165 193.404 401.252 192.795C401.296 192.012 401.078 191.229 400.6 190.576Z" fill="#383838"/>
  <path fill-rule="evenodd" clip-rule="evenodd" d="M367.438 184.665C368.084 184.345 368.867 184.609 369.187 185.255C369.495 185.877 369.262 186.626 368.667 186.966L368.243 187.187L367.971 187.333C367.735 187.462 367.473 187.607 367.188 187.77C366.04 188.424 364.758 189.213 363.376 190.138C359.42 192.784 355.462 195.979 351.772 199.726C346.137 205.446 341.647 211.93 338.715 219.183C335.194 227.895 334.057 237.405 335.723 247.746C335.838 248.458 335.354 249.128 334.642 249.242C333.931 249.357 333.261 248.873 333.146 248.162C331.403 237.344 332.598 227.353 336.295 218.205C339.365 210.611 344.05 203.846 349.912 197.894C353.735 194.013 357.829 190.707 361.925 187.968C363.36 187.008 364.695 186.186 365.895 185.502L366.246 185.304C366.472 185.178 366.683 185.062 366.878 184.958L367.275 184.748C367.345 184.712 367.399 184.685 367.438 184.665Z" fill="white"/>
  <path fill-rule="evenodd" clip-rule="evenodd" d="M369.646 189.779C370.23 189.357 371.046 189.489 371.468 190.073C371.874 190.635 371.768 191.411 371.24 191.845L370.952 192.062L370.748 192.22C370.605 192.332 370.447 192.457 370.277 192.595C369.539 193.194 368.714 193.909 367.823 194.737C365.272 197.111 362.718 199.913 360.335 203.124C355.703 209.364 352.294 216.362 350.614 224.066C348.541 233.571 349.211 243.696 353.147 254.421C353.396 255.098 353.048 255.847 352.372 256.096C351.695 256.344 350.945 255.997 350.697 255.32C346.59 244.128 345.886 233.498 348.064 223.51C349.828 215.419 353.399 208.089 358.24 201.568C360.723 198.223 363.383 195.304 366.045 192.827C366.902 192.029 367.704 191.33 368.435 190.73L368.92 190.337C369.249 190.075 369.494 189.889 369.646 189.779Z" fill="white"/>
  <path fill-rule="evenodd" clip-rule="evenodd" d="M421.993 174.842C426.407 174.353 431.408 174.193 436.749 174.557C443.975 175.051 451.036 176.464 457.68 178.998C470.008 183.699 480.04 191.916 486.914 204.253C487.265 204.882 487.039 205.677 486.41 206.028C485.78 206.379 484.985 206.153 484.634 205.523C478.072 193.746 468.527 185.928 456.749 181.436C450.364 179.001 443.554 177.638 436.571 177.161C431.396 176.808 426.548 176.963 422.281 177.437L421.745 177.498C421.047 177.581 420.417 177.668 419.86 177.754L419.585 177.798C419.499 177.812 419.418 177.825 419.342 177.838L419.031 177.894C418.324 178.031 417.639 177.568 417.502 176.861C417.365 176.153 417.827 175.468 418.535 175.331L418.893 175.267C419.048 175.241 419.237 175.21 419.46 175.175L419.913 175.107C420.536 175.016 421.231 174.927 421.993 174.842Z" fill="#383838"/>
  <path fill-rule="evenodd" clip-rule="evenodd" d="M422.782 180.96L423.18 180.954C423.974 180.948 425.009 180.975 426.253 181.057C428.35 181.195 430.623 181.465 433.025 181.897C439.619 183.085 446.166 185.294 452.29 188.778C463.896 195.38 472.721 205.829 477.618 220.795C477.843 221.48 477.469 222.217 476.784 222.441C476.099 222.665 475.362 222.292 475.138 221.607C470.447 207.273 462.054 197.335 451 191.047C445.152 187.72 438.882 185.604 432.562 184.466C430.26 184.052 428.084 183.793 426.082 183.661L425.622 183.633C424.577 183.573 423.716 183.556 423.065 183.565L422.794 183.571C422.073 183.6 421.466 183.04 421.438 182.319C421.41 181.625 421.93 181.036 422.613 180.969L422.69 180.963C422.711 180.963 422.742 180.962 422.782 180.96Z" fill="#383838"/>
  <path fill-rule="evenodd" clip-rule="evenodd" d="M463.999 100.611C469.407 98.7254 473.954 98.1444 477.225 98.2833L477.561 98.3006C477.652 98.3064 477.721 98.312 477.769 98.3168C478.486 98.388 479.009 99.0271 478.938 99.7443C478.87 100.436 478.273 100.948 477.587 100.919L477.334 100.902L477.275 100.899C476.262 100.846 474.866 100.889 473.139 101.101C470.584 101.415 467.806 102.048 464.858 103.076C456.785 105.891 448.669 111.191 440.928 119.596C440.44 120.127 439.614 120.16 439.084 119.672C438.554 119.184 438.52 118.358 439.008 117.828C447.041 109.106 455.522 103.567 463.999 100.611Z" fill="#383838"/>
  <path fill-rule="evenodd" clip-rule="evenodd" d="M530.221 180.571C530.942 180.589 531.511 181.188 531.493 181.908C530.776 210.473 541.058 231.026 557.482 235.248L558.105 235.404C563.741 236.792 568.451 237.249 577.997 237.62L581.808 237.765C586.703 237.96 589.356 238.141 592.464 238.526L592.64 238.548C597.481 239.155 601.738 240.169 605.796 241.781C606.466 242.047 606.794 242.806 606.528 243.476C606.262 244.146 605.503 244.473 604.833 244.207C600.996 242.683 596.95 241.719 592.315 241.137L591.803 241.074C588.808 240.715 586.134 240.545 581.128 240.35L577.525 240.214C567.699 239.824 562.912 239.327 556.834 237.776C538.999 233.191 528.14 211.485 528.884 181.843C528.902 181.122 529.501 180.553 530.221 180.571Z" fill="#383838"/>
  <path fill-rule="evenodd" clip-rule="evenodd" d="M480.154 136.103C480.832 135.859 481.58 136.21 481.825 136.887C489.317 157.634 484.648 177.413 469.828 193.499C456.173 208.322 434.661 218.998 410.736 223.053C410.025 223.173 409.351 222.695 409.231 221.984C409.111 221.273 409.589 220.6 410.3 220.479C433.683 216.517 454.67 206.101 467.909 191.731C482.09 176.337 486.52 157.572 479.37 137.774C479.125 137.096 479.476 136.348 480.154 136.103Z" fill="#383838"/>
  <path fill-rule="evenodd" clip-rule="evenodd" d="M445.125 221.945C445.603 221.405 446.427 221.355 446.967 221.833C447.506 222.311 447.556 223.136 447.078 223.675C443.917 227.243 440.044 229.986 435.622 231.995C431.602 233.823 427.313 234.966 422.978 235.56C420.32 235.925 418.007 236.04 416.214 236.011L415.81 236.001C415.658 235.997 415.55 235.992 415.489 235.989C414.77 235.948 414.22 235.331 414.261 234.611C414.301 233.917 414.875 233.381 415.562 233.381L415.888 233.392L416.263 233.401C417.928 233.428 420.108 233.319 422.624 232.974C426.723 232.413 430.771 231.333 434.542 229.619C438.645 227.755 442.219 225.224 445.125 221.945Z" fill="#383838"/>
  <path fill-rule="evenodd" clip-rule="evenodd" d="M468.02 266.073C468.656 265.734 469.447 265.974 469.786 266.61C470.126 267.245 469.885 268.036 469.249 268.375C466.461 269.865 464.184 271.512 462.374 273.287C459.901 275.714 458.387 278.281 457.634 280.874C457.151 282.538 457.035 283.995 457.129 285.131L457.142 285.277C457.153 285.39 457.164 285.466 457.169 285.501L457.172 285.515C457.305 286.223 456.838 286.905 456.13 287.038C455.422 287.171 454.739 286.705 454.606 285.996L454.59 285.9C454.576 285.808 454.56 285.687 454.545 285.538C454.397 284.068 454.524 282.224 455.127 280.146C456.003 277.128 457.749 274.168 460.547 271.424C462.538 269.47 465.017 267.677 468.02 266.073Z" fill="#383838"/>
  <path fill-rule="evenodd" clip-rule="evenodd" d="M471.767 270.021C472.361 269.612 473.174 269.763 473.582 270.357C473.99 270.951 473.84 271.763 473.246 272.172C471.375 273.458 469.879 274.922 468.719 276.531C467.345 278.437 466.489 280.474 466.053 282.538C465.778 283.838 465.701 284.97 465.737 285.838L465.756 286.133C465.836 286.849 465.32 287.495 464.604 287.575C463.887 287.655 463.242 287.139 463.162 286.423L463.149 286.28C463.146 286.24 463.143 286.194 463.14 286.144C463.074 285.037 463.156 283.618 463.499 281.998C464.008 279.593 465.004 277.221 466.602 275.004C467.937 273.153 469.648 271.477 471.767 270.021Z" fill="#383838"/>
  <path fill-rule="evenodd" clip-rule="evenodd" d="M406.902 266.073C407.537 265.734 408.328 265.974 408.667 266.61C409.007 267.245 408.767 268.036 408.131 268.375C405.342 269.865 403.065 271.512 401.256 273.287C398.782 275.714 397.268 278.281 396.515 280.874C396.033 282.538 395.916 283.995 396.01 285.131L396.023 285.277C396.035 285.39 396.045 285.466 396.051 285.501L396.053 285.515C396.186 286.223 395.72 286.905 395.011 287.038C394.303 287.171 393.621 286.705 393.488 285.996L393.471 285.9C393.457 285.808 393.441 285.687 393.426 285.538C393.278 284.068 393.406 282.224 394.009 280.146C394.885 277.128 396.631 274.168 399.428 271.424C401.42 269.47 403.898 267.677 406.902 266.073Z" fill="#383838"/>
  <path fill-rule="evenodd" clip-rule="evenodd" d="M410.648 270.021C411.242 269.612 412.055 269.763 412.463 270.357C412.872 270.951 412.721 271.763 412.127 272.172C410.256 273.458 408.76 274.922 407.601 276.531C406.226 278.437 405.37 280.474 404.934 282.538C404.659 283.838 404.582 284.97 404.619 285.838L404.637 286.133C404.717 286.849 404.201 287.495 403.485 287.575C402.769 287.655 402.123 287.139 402.043 286.423L402.03 286.28C402.027 286.24 402.024 286.194 402.021 286.144C401.955 285.037 402.038 283.618 402.38 281.998C402.889 279.593 403.886 277.221 405.483 275.004C406.818 273.153 408.53 271.477 410.648 270.021Z" fill="#383838"/>
  <path fill-rule="evenodd" clip-rule="evenodd" d="M534.303 268.364C535.019 268.282 535.666 268.796 535.748 269.512C535.83 270.228 535.317 270.875 534.601 270.957C529.73 271.517 526.657 274.252 524.933 278.571C524.286 280.192 523.874 281.941 523.655 283.711C523.575 284.366 523.525 284.989 523.501 285.565L523.491 285.846C523.485 286.068 523.484 286.262 523.485 286.422L523.488 286.575C523.517 287.295 522.956 287.902 522.236 287.93C521.541 287.957 520.952 287.437 520.886 286.754L520.879 286.633L520.877 286.568C520.861 285.769 520.907 284.677 521.065 283.392C521.309 281.413 521.771 279.45 522.509 277.603C524.566 272.452 528.395 269.043 534.303 268.364Z" fill="#383838"/>
  <path fill-rule="evenodd" clip-rule="evenodd" d="M538.321 272.259C539 272.018 539.746 272.373 539.988 273.052C540.23 273.731 539.875 274.477 539.196 274.719C535.883 275.897 533.509 277.763 531.903 280.137C530.911 281.602 530.269 283.177 529.91 284.75C529.8 285.23 529.724 285.678 529.677 286.084L529.658 286.256C529.641 286.428 529.631 286.563 529.627 286.656L529.623 286.763C529.62 287.483 529.033 288.065 528.312 288.062C527.592 288.058 527.01 287.472 527.013 286.751L527.016 286.632C527.021 286.477 527.034 286.262 527.061 285.994C527.117 285.44 527.215 284.826 527.365 284.169C527.793 282.297 528.556 280.425 529.741 278.674C531.656 275.845 534.478 273.626 538.321 272.259Z" fill="#383838"/>
  <path fill-rule="evenodd" clip-rule="evenodd" d="M618.444 271.288C622.142 268.706 625.96 267.944 629.069 268.161L629.21 268.172C629.295 268.179 629.362 268.187 629.409 268.193C630.124 268.286 630.627 268.941 630.534 269.656C630.444 270.345 629.832 270.838 629.148 270.789L628.935 270.768L628.887 270.765C628.015 270.704 626.875 270.758 625.568 271.019C623.636 271.404 621.73 272.177 619.939 273.428C618.478 274.448 617.61 276.41 617.293 279.093C617.071 280.968 617.137 283.003 617.382 284.959L617.432 285.335C617.457 285.516 617.483 285.687 617.509 285.848L617.569 286.205C617.582 286.28 617.593 286.334 617.6 286.367C617.743 287.074 617.286 287.762 616.579 287.905C615.873 288.048 615.184 287.591 615.041 286.885L614.975 286.525L614.932 286.264L614.875 285.892C614.847 285.7 614.819 285.497 614.792 285.284C614.523 283.135 614.451 280.901 614.701 278.787C615.096 275.436 616.256 272.816 618.444 271.288Z" fill="#383838"/>
  <path fill-rule="evenodd" clip-rule="evenodd" d="M627.996 274.418C628.709 274.308 629.376 274.795 629.486 275.508C629.596 276.22 629.108 276.887 628.396 276.997C625.409 277.46 623.972 278.962 623.542 281.322C623.316 282.561 623.394 283.93 623.667 285.252C623.712 285.468 623.759 285.668 623.806 285.849L623.872 286.088L623.91 286.215C624.137 286.899 623.767 287.638 623.083 287.865C622.399 288.092 621.66 287.721 621.433 287.037L621.388 286.894C621.308 286.631 621.208 286.252 621.111 285.779C620.776 284.156 620.679 282.47 620.974 280.854C621.597 277.435 623.872 275.057 627.996 274.418Z" fill="#383838"/>
  <path fill-rule="evenodd" clip-rule="evenodd" d="M340.656 286.974C343.995 286.974 346.702 284.267 346.702 280.927C346.702 277.588 343.995 274.881 340.656 274.881C337.316 274.881 334.609 277.588 334.609 280.927C334.609 284.267 337.316 286.974 340.656 286.974Z" fill="#FF8D7E"/>
  <path fill-rule="evenodd" clip-rule="evenodd" d="M709.195 286.408C709.916 286.408 710.5 286.992 710.5 287.713C710.5 288.408 709.957 288.976 709.272 289.016L709.195 289.018H1.30503C0.58428 289.018 0 288.434 0 287.713C0 287.018 0.543291 286.45 1.22835 286.41L1.30503 286.408H709.195Z" fill="#383838"/>
</svg>
