<svg width="56" height="56" viewBox="0 0 56 56" fill="none" xmlns="http://www.w3.org/2000/svg">
  <g clip-path="url(#clip0)">
  <path d="M27.8527 31.9068L20.1877 28.7008C19.7187 28.5094 19.1843 28.5584 18.7597 28.8384C18.3373 29.1184 18.083 29.5944 18.083 30.1031V41.7464C18.083 42.3741 18.468 42.9364 19.0537 43.1628C19.231 43.2328 19.4177 43.2654 19.602 43.2654C20.022 43.2654 20.4327 43.0904 20.7267 42.7661L28.3917 34.3288C28.723 33.9648 28.8583 33.4608 28.7487 32.9778C28.6413 32.4971 28.3077 32.0981 27.8527 31.9068Z" fill="#7F7FC8"/>
  <path d="M55.44 0.466511C54.95 0.0115109 54.2407 -0.123823 53.6153 0.118844L1.11534 20.5355C0.441009 20.7968 -0.00232417 21.4478 9.16616e-06 22.1735C0.0023425 22.8992 0.450343 23.5455 1.12701 23.8022L42.5437 39.5522C42.7443 39.6268 42.9567 39.6665 43.1667 39.6665C43.4303 39.6665 43.694 39.6082 43.9367 39.4892C44.373 39.2745 44.6997 38.8918 44.842 38.4298L55.9253 2.26318C56.119 1.62151 55.9323 0.923844 55.44 0.466511Z" fill="#F07F87"/>
  <path d="M18.083 30.3327L44.333 11.666L24.6933 33.443L18.083 30.3327Z" fill="#F7BFC3"/>
  <path d="M43.1667 39.6674C42.9567 39.6674 42.7443 39.6278 42.5437 39.5531L1.12701 23.8031C0.450343 23.5464 0.00234255 22.8978 9.21427e-06 22.1744C-0.00232412 21.4511 0.438676 20.7978 1.11768 20.5364L53.6177 0.11976C54.2407 -0.120573 54.95 0.012427 55.4423 0.467427C55.9323 0.92476 56.1213 1.62243 55.923 2.26409L44.8397 38.4307C44.6973 38.8927 44.3707 39.2754 43.9367 39.4901C43.694 39.6091 43.4303 39.6674 43.1667 39.6674ZM6.62668 22.1488L42.042 35.6168L51.5177 4.69076L6.62668 22.1488Z" fill="#383838"/>
  <path d="M19.833 44.3325C19.6207 44.3325 19.406 44.2929 19.2007 44.2135C18.5263 43.9545 18.083 43.3059 18.083 42.5825V29.1659C18.083 28.6315 18.3257 28.1299 18.741 27.7962L53.1577 0.379535C53.916 -0.217798 55.0173 -0.0987979 55.6193 0.657202C56.2213 1.4132 56.0953 2.51454 55.3417 3.11887L21.583 30.0082V38.0535L27.372 31.6835C28.0207 30.9649 29.129 30.9159 29.843 31.5645C30.5593 32.2132 30.613 33.3215 29.962 34.0355L21.128 43.7585C20.7897 44.1319 20.316 44.3325 19.833 44.3325Z" fill="#383838"/>
  <path d="M18.6338 46.3258C18.3001 46.3258 17.9664 46.2324 17.6678 46.0341C16.8628 45.4998 16.6458 44.4148 17.1778 43.6074C17.8638 42.5761 18.2558 41.8201 18.2768 41.7828C18.7154 40.9241 19.7654 40.5811 20.6311 41.0291C21.4898 41.4678 21.8304 42.5224 21.3918 43.3811C21.3918 43.3811 20.9274 44.2911 20.0944 45.5464C19.7584 46.0504 19.2008 46.3258 18.6338 46.3258Z" fill="#383838"/>
  <path d="M6.54965 52.7559C6.40032 52.7559 6.24398 52.7349 6.09232 52.6952C3.89198 52.0979 2.27965 50.7725 1.30199 48.7519C0.881985 47.8816 1.24832 46.8362 2.11865 46.4139C2.99598 45.9939 4.03665 46.3626 4.45665 47.2306C4.99098 48.3436 5.77965 48.9852 7.00932 49.3212C7.94032 49.5732 8.49332 50.5369 8.23898 51.4679C8.02432 52.2449 7.32198 52.7559 6.54965 52.7559ZM11.4007 52.7442C10.6633 52.7442 9.97732 52.2752 9.73465 51.5332C9.43832 50.6116 9.94232 49.6269 10.8593 49.3282C11.977 48.9689 13.1367 48.2176 14.3033 47.1022C15.001 46.4349 16.107 46.4559 16.779 47.1559C17.4463 47.8559 17.4207 48.9619 16.7253 49.6316C15.1737 51.1156 13.566 52.1329 11.942 52.6602C11.76 52.7185 11.578 52.7442 11.4007 52.7442Z" fill="#383838"/>
  <path d="M1.81767 44.9197C0.903 44.9197 0.133 44.208 0.0746667 43.284C0.0256667 42.521 0 41.702 0 40.834C0 39.868 0.784 39.084 1.75 39.084C2.716 39.084 3.5 39.868 3.5 40.834C3.5 41.6203 3.521 42.36 3.56533 43.0553C3.62833 44.019 2.90033 44.8543 1.93433 44.915C1.89467 44.9173 1.85733 44.9197 1.81767 44.9197Z" fill="#383838"/>
  </g>
  <defs>
  <clipPath id="clip0">
  <rect width="56" height="56" fill="white"/>
  </clipPath>
  </defs>
</svg>
