<svg width="200" height="136" viewBox="0 0 200 136" fill="none" xmlns="http://www.w3.org/2000/svg">
<path d="M160.845 36.177C196.098 34.1429 201.13 55.3411 199.817 71.4454C198.47 87.9399 194.893 133.002 194.893 133.002C195.107 133.23 111.157 133.23 111.408 133.002C111.408 133.002 114.773 87.9399 116.12 71.4454C117.433 55.3411 125.923 34.1429 160.845 36.177Z" fill="#FF8D7E"/>
<path d="M117.874 37.7687L115.783 38.5665L117.238 53.2124L118.637 53.7725C118.637 53.7725 115.955 40.6932 117.875 37.7687H117.874Z" fill="#6A6AF4"/>
<path d="M182.629 133.707C182.613 133.707 182.598 133.707 182.581 133.707C182.262 133.682 182.024 133.402 182.049 133.083C182.766 124.296 183.854 110.241 184.814 97.8397C185.646 87.0745 186.434 76.9062 186.882 71.399C187.568 62.9828 186.338 55.9051 183.222 50.3651C179.131 43.0885 171.802 38.6515 161.438 37.1776C161.122 37.1332 160.901 36.8396 160.946 36.5228C160.99 36.206 161.286 35.9877 161.601 36.0302C172.339 37.5581 179.953 42.1903 184.232 49.7972C187.464 55.5439 188.744 62.8437 188.038 71.4937C187.589 76.9989 186.801 87.1653 185.969 97.9286C185.009 110.33 183.921 124.387 183.204 133.176C183.179 133.479 182.926 133.709 182.627 133.709L182.629 133.707Z" fill="#2E186A"/>
<path d="M116.118 92.5295C116.127 92.4986 97.1158 95.4966 97.1158 95.4966L95.0953 114.469L95.812 129.359C99.911 129.45 104.338 129.158 109.019 128.3C111.97 127.759 115.133 125.235 115.988 122.36C117.404 117.606 117.738 104.404 116.118 92.5295Z" fill="white"/>
<path d="M97.228 129.956C96.7508 129.956 96.2737 129.95 95.7966 129.94C95.4933 129.932 95.2461 129.693 95.2306 129.39L94.514 114.5C94.514 114.471 94.514 114.44 94.5159 114.411L96.5364 95.4386C96.5635 95.1779 96.7644 94.9692 97.0232 94.9267C97.0232 94.9267 101.767 94.1772 106.515 93.4336C108.889 93.0607 111.263 92.6899 113.046 92.4117C113.939 92.2726 114.683 92.1587 115.204 92.0795C115.467 92.0389 115.672 92.008 115.814 91.9887C116.108 91.9462 116.34 91.9114 116.549 92.149C116.624 92.234 116.674 92.3422 116.69 92.4542C118.026 102.252 118.285 116.673 116.541 122.53C115.66 125.488 112.401 128.273 109.119 128.874C105.19 129.594 101.198 129.958 97.226 129.958L97.228 129.956ZM96.3626 128.791C100.547 128.849 104.767 128.491 108.911 127.732C111.75 127.213 114.675 124.729 115.43 122.196C116.782 117.659 117.165 105.008 115.619 93.1863C113.072 93.5707 102.463 95.2397 97.6433 96.0007L95.673 114.489L96.3626 128.791Z" fill="#2E186A"/>
<path d="M103.121 133.715L106.94 111.512C106.94 111.512 103.375 107.06 103.651 100.782C103.668 100.368 103.703 99.9472 103.757 99.5203C103.722 99.4353 96.237 96.9994 95.8101 96.0993C96.0941 90.99 100.257 77.4007 107.589 74.2425C109.942 73.1549 115.644 71.5227 116.79 71.1325C122.208 69.2877 133.607 66.3072 143.518 68.2736C143.518 68.2736 158.649 70.7442 162.043 72.7531C163.884 73.8426 173.04 79.7709 174.786 96.1708C174.813 96.4219 158.958 101.987 158.958 101.987L157.376 133.713" fill="#6A6AF4"/>
<path d="M126.269 60.7439L126.118 69.4789L123.022 70.0623C122.489 70.8311 116.632 79.7612 129.871 80.9144C138.508 81.6658 148.029 76.601 153.152 70.5955L144.674 68.2794L142.122 52.0611L126.269 60.742V60.7439Z" fill="white"/>
<path d="M131.612 81.5693C131.007 81.5693 130.41 81.5442 129.821 81.492C125.191 81.0883 122.282 79.6917 121.179 77.337C119.645 74.0648 122.243 70.1647 122.544 69.7301C122.631 69.6045 122.763 69.5195 122.913 69.4906L125.546 68.9941L125.689 60.7305C125.693 60.5218 125.807 60.3325 125.991 60.2321L141.844 51.5512C142.01 51.4604 142.209 51.4565 142.377 51.5396C142.547 51.6226 142.665 51.783 142.694 51.9703L145.187 67.8177L153.304 70.0353C153.496 70.0874 153.646 70.2343 153.706 70.4236C153.766 70.6129 153.722 70.8195 153.594 70.9702C150.926 74.0976 147.193 76.8831 143.076 78.8128C139.205 80.6286 135.28 81.5674 131.614 81.5674L131.612 81.5693ZM123.367 70.5858C122.825 71.4261 121.092 74.4221 122.228 76.8444C123.143 78.7954 125.732 79.9718 129.921 80.3369C138.216 81.0593 147.165 76.2417 152.097 70.9084L144.519 68.8396C144.299 68.7797 144.135 68.5962 144.1 68.3702L141.678 52.9651L126.842 61.0897L126.698 69.4886C126.694 69.7629 126.495 69.9967 126.226 70.0488L123.369 70.5878L123.367 70.5858Z" fill="#2E186A"/>
<path d="M155.422 14.4879L151.907 12.6302L148.636 18.8174L152.151 20.6752L155.422 14.4879Z" fill="#E0840B"/>
<path d="M156.727 14.7625C160.593 14.7625 163.728 11.6283 163.728 7.76215C163.728 3.89595 160.593 0.76178 156.727 0.76178C152.861 0.76178 149.727 3.89595 149.727 7.76215C149.727 11.6283 152.861 14.7625 156.727 14.7625Z" fill="#2E186A"/>
<path d="M150.391 15.7361C144.583 13.3311 138.152 11.9288 131.998 13.7696C113.197 20.3006 111.016 33.4514 117.41 40.0133C118.644 30.6737 120.618 27.2469 124.18 25.3693C126.788 31.2203 138.347 38.522 148.726 39.4454C148.726 39.4454 148.728 39.4492 148.73 39.4473C148.74 39.4125 147.921 48.7831 147.03 48.6343C146.822 49.1752 142.78 56.4788 142.78 56.4788L143.939 63.4657L171.139 61.6171C172.542 61.6943 173.732 60.3982 173.5 59.0441C172.057 50.5872 169.016 23.7583 150.393 15.738L150.391 15.7361Z" fill="#2E186A"/>
<g clip-path="url(#clip0_1076_20866)">
<path d="M86.7066 36.0268C86.7066 28.7215 80.7504 22.8133 73.4438 22.9233C66.4511 23.029 60.7204 28.749 60.5834 35.7647C60.4865 40.7005 63.1117 45.0275 67.0536 47.3421C68.2503 48.0439 69.0088 49.308 69.0088 50.6989V55.8968H78.2791V50.6968C78.2791 49.308 79.0354 48.0439 80.2321 47.3421C84.1046 45.0677 86.7066 40.8527 86.7066 36.0247V36.0268Z" fill="#FFC29E"/>
<path d="M69.0931 55.0512H78.3633V57.5878C78.3633 60.154 76.286 62.2382 73.7282 62.2382C71.1705 62.2382 69.0931 60.154 69.0931 57.5878V55.0512Z" fill="#2E186A"/>
<path d="M75.0261 52.726C74.6763 52.726 74.394 52.4428 74.394 52.0919V43.2138H72.8391V52.0919C72.8391 52.4428 72.5568 52.726 72.2071 52.726C71.8573 52.726 71.575 52.4428 71.575 52.0919V43.2138H71.0082C69.9991 43.2138 69.1774 42.3894 69.1774 41.3769V41.2458C69.1774 40.2333 69.9991 39.4089 71.0082 39.4089C72.0174 39.4089 72.8391 40.2333 72.8391 41.2458V41.9455H74.394V41.2458C74.394 40.2333 75.2157 39.4089 76.2249 39.4089H76.2796C77.2888 39.4089 78.1105 40.2333 78.1105 41.2458V41.3769C78.1105 42.3894 77.2888 43.2138 76.2796 43.2138H75.6581V52.0919C75.6581 52.4428 75.3758 52.726 75.0261 52.726ZM75.6581 41.9455H76.2796C76.5915 41.9455 76.8464 41.6897 76.8464 41.3769V41.2458C76.8464 40.933 76.5915 40.6772 76.2796 40.6772H76.2249C75.9131 40.6772 75.6581 40.933 75.6581 41.2458V41.9455ZM71.0082 40.6772C70.6964 40.6772 70.4415 40.933 70.4415 41.2458V41.3769C70.4415 41.6897 70.6964 41.9455 71.0082 41.9455H71.575V41.2458C71.575 40.933 71.3201 40.6772 71.0082 40.6772Z" fill="white"/>
<path d="M73.7282 18.2707C73.3785 18.2707 73.0961 17.9875 73.0961 17.6366V10.8724C73.0961 10.5215 73.3785 10.2382 73.7282 10.2382C74.0779 10.2382 74.3603 10.5215 74.3603 10.8724V17.6366C74.3603 17.9875 74.0779 18.2707 73.7282 18.2707Z" fill="#FFC29E"/>
<path d="M85.2507 22.1411C85.0885 22.1411 84.9262 22.0798 84.804 21.9551C84.5575 21.7078 84.5575 21.3062 84.804 21.0588L89.5719 16.2753C89.8184 16.028 90.2187 16.028 90.4652 16.2753C90.7117 16.5226 90.7117 16.9242 90.4652 17.1715L85.6974 21.9551C85.5731 22.0798 85.4129 22.1411 85.2507 22.1411Z" fill="#FFC29E"/>
<path d="M63.0505 22.1411C62.8883 22.1411 62.7261 22.0798 62.6039 21.9551L57.836 17.1737C57.5895 16.9264 57.5895 16.5247 57.836 16.2774C58.0825 16.0301 58.4828 16.0301 58.7293 16.2774L63.4972 21.061C63.7437 21.3083 63.7437 21.7099 63.4972 21.9572C63.3729 22.082 63.2128 22.1433 63.0505 22.1433V22.1411Z" fill="#FFC29E"/>
</g>
<path d="M144.718 51.244L146.072 51.6322C146.072 51.6322 154.04 53.2085 154.788 45.758C155.354 40.106 149.735 40.0171 146.988 40.303" fill="white"/>
<path d="M147.791 52.3528C146.762 52.3528 146.03 52.2137 145.96 52.2002C145.945 52.1963 145.929 52.1924 145.914 52.1886L144.56 51.8003C144.252 51.7115 144.075 51.3908 144.162 51.0837C144.251 50.7765 144.571 50.5969 144.878 50.6857L146.207 51.0663C146.497 51.1184 149.804 51.6554 152.064 49.9768C153.298 49.0593 154.021 47.6202 154.214 45.6982C154.367 44.1702 154.036 42.99 153.233 42.1883C151.687 40.6488 148.695 40.7067 147.05 40.8767C146.731 40.9096 146.447 40.6797 146.414 40.361C146.381 40.0422 146.611 39.7583 146.93 39.7255C151.023 39.2986 153.063 40.3822 154.05 41.3674C155.112 42.4259 155.557 43.923 155.365 45.8141C155.139 48.078 154.259 49.7914 152.748 50.9117C151.152 52.0939 149.196 52.3528 147.793 52.3528H147.791Z" fill="#2E186A"/>
<path d="M117.412 40.0133C118.646 30.6737 120.549 27.5985 124.111 25.7209C126.678 31.4792 136.887 38.551 148.471 39.4319C148.628 40.7435 148.516 39.5748 148.467 41.0023C148.319 42.4742 148.131 44.1393 147.919 45.5379C146.75 50.8055 144.562 54.0276 144.562 54.0276V54.0333C141.44 59.0653 136.559 62.7471 130.3 62.9905C119.377 63.4174 117.248 47.9467 117.174 44.5334C117.138 42.8413 117.408 40.0094 117.408 40.0094C117.408 40.0094 117.408 40.0094 117.412 40.0133Z" fill="white"/>
<path d="M129.86 63.5796C127.14 63.5796 124.746 62.6235 122.741 60.7362C117.91 56.1891 116.655 47.3015 116.595 44.5469C116.558 42.8393 116.819 40.0712 116.831 39.9553C116.832 39.9244 116.838 39.8954 116.846 39.8645C118.018 31.0465 119.786 27.3454 123.841 25.207C123.982 25.1317 124.15 25.1201 124.3 25.1723C124.451 25.2244 124.575 25.3384 124.64 25.4833C127.215 31.259 137.424 38.0101 148.514 38.8523C148.79 38.8736 149.012 39.0861 149.045 39.3623L149.091 39.7428C149.138 40.1176 149.147 40.1948 149.091 40.3648C149.087 40.3784 149.062 40.4962 149.045 41.0216C149.045 41.0351 149.045 41.0467 149.043 41.0602C148.86 42.8799 148.674 44.4155 148.492 45.6248C148.491 45.6383 148.489 45.6518 148.485 45.6634C147.374 50.6703 145.383 53.8363 145.079 54.298C145.072 54.3115 145.064 54.325 145.056 54.3385C141.508 60.0601 136.275 63.3382 130.323 63.57C130.169 63.5758 130.014 63.5796 129.862 63.5796H129.86ZM117.978 40.1369C117.937 40.585 117.721 43.0305 117.754 44.5218C117.81 47.1508 118.994 55.6154 123.535 59.8921C125.419 61.6653 127.688 62.5153 130.277 62.4129C135.815 62.1966 140.7 59.1291 144.04 53.7764C144.052 53.7513 144.067 53.7262 144.082 53.703C144.104 53.6721 146.219 50.5061 147.349 45.4316C147.527 44.2475 147.708 42.7446 147.888 40.9617C147.907 40.4286 147.936 40.2161 147.967 40.0886C147.963 40.0596 147.959 40.021 147.954 39.9688C142.696 39.4917 137.268 37.7011 132.612 34.9021C128.507 32.4334 125.357 29.4123 123.858 26.5264C120.982 28.2359 119.168 31.1469 117.988 40.0886C117.986 40.1041 117.982 40.1195 117.98 40.1369H117.978Z" fill="#2E186A"/>
<path d="M111.714 45.0646C111.849 41.9681 113.802 39.5033 116.409 38.2323C116.651 38.5877 116.902 38.8891 117.161 39.1247C117.097 43.386 117.435 51.1339 117.802 53.3901C117.611 53.338 117.424 53.2781 117.238 53.2143C117.395 54.5839 117.818 56.162 118.841 57.3056C119.724 58.2907 120.945 58.8413 122.542 58.9765C122.892 58.6694 123.348 58.482 123.848 58.482C124.942 58.482 125.826 59.3686 125.826 60.46C125.826 61.5533 124.94 62.438 123.848 62.438C123.311 62.438 122.824 62.2236 122.467 61.8759C120.043 61.704 118.1 60.8212 116.682 59.2392C114.497 56.8014 114.211 53.3515 114.254 51.387C112.596 49.8011 111.603 47.5371 111.712 45.0646H111.714Z" fill="#6A6AF4"/>
<path d="M126.213 49.5383C126.203 49.5383 126.193 49.5383 126.182 49.5383L123.041 49.378C122.871 49.3703 122.712 49.2853 122.608 49.1501C122.506 49.0129 122.467 48.8391 122.506 48.671L125.287 36.3991C125.359 36.0862 125.668 35.8911 125.981 35.9626C126.294 36.034 126.489 36.3431 126.417 36.656L123.788 48.2557L126.24 48.3813C126.558 48.3967 126.806 48.6691 126.788 48.9897C126.773 49.2988 126.516 49.5403 126.211 49.5403L126.213 49.5383Z" fill="#2E186A"/>
<path d="M134.302 37.9561C134.119 37.9561 133.939 37.8691 133.827 37.7088C133.762 37.6142 132.265 35.5318 130.538 36.544C130.261 36.7063 129.906 36.6136 129.746 36.3373C129.583 36.0611 129.676 35.7057 129.952 35.5454C132.077 34.3014 134.038 35.9838 134.778 37.0463C134.961 37.309 134.896 37.6702 134.633 37.8537C134.532 37.9232 134.416 37.958 134.302 37.958V37.9561Z" fill="#2E186A"/>
<path d="M128.206 57.3635C127.938 57.3635 127.696 57.1742 127.64 56.9019C127.574 56.5889 127.777 56.2818 128.09 56.2181C128.807 56.0693 129.292 55.7622 129.572 55.2754C129.827 54.835 129.877 54.3076 129.854 53.8576C128.351 54.9277 126.213 54.6283 126.104 54.6128C125.788 54.5665 125.569 54.2709 125.616 53.9541C125.662 53.6374 125.956 53.4191 126.273 53.4654C126.305 53.4693 128.797 53.8093 129.734 52.3315C129.854 52.1422 130.07 52.0399 130.292 52.0669C130.514 52.094 130.7 52.2446 130.771 52.4571C130.798 52.5363 131.411 54.3926 130.576 55.8491C130.128 56.6314 129.369 57.1375 128.322 57.3558C128.283 57.3635 128.243 57.3674 128.204 57.3674L128.206 57.3635Z" fill="#2E186A"/>
<path d="M117.874 36.9883C117.746 36.9883 117.617 36.9458 117.511 36.8589C117.261 36.658 117.223 36.2929 117.424 36.0437C118.971 34.1294 121.399 35.0083 122.469 35.7404C122.734 35.922 122.799 36.2813 122.62 36.5459C122.438 36.8086 122.079 36.8763 121.814 36.6966C121.722 36.6329 119.585 35.2131 118.326 36.77C118.212 36.911 118.044 36.9844 117.874 36.9844V36.9883Z" fill="#2E186A"/>
<path d="M133.901 40.7263C133.916 39.8356 133.462 39.1058 132.886 39.0961C132.31 39.0865 131.83 39.8007 131.816 40.6914C131.801 41.582 132.255 42.3119 132.831 42.3216C133.407 42.3312 133.887 41.617 133.901 40.7263Z" fill="#2E186A"/>
<path d="M123.006 40.878C123.021 39.9873 122.566 39.2574 121.99 39.2478C121.414 39.2381 120.935 39.9523 120.92 40.843C120.905 41.7337 121.36 42.4636 121.936 42.4732C122.512 42.4829 122.991 41.7687 123.006 40.878Z" fill="#2E186A"/>
<path d="M133.76 49.5905C133.719 49.5905 133.679 49.5905 133.64 49.5905C129.672 49.5074 126.531 45.2674 126.638 40.1388C126.744 35.0605 129.995 30.9866 133.91 30.9866C133.949 30.9866 133.99 30.9866 134.028 30.9866C135.981 31.0271 137.785 32.0548 139.11 33.8783C140.399 35.6535 141.081 37.9831 141.03 40.4382C140.978 42.8934 140.2 45.194 138.838 46.9132C137.468 48.644 135.668 49.5905 133.76 49.5905ZM133.908 32.1436C130.621 32.1436 127.889 35.7134 127.797 40.162C127.702 44.6531 130.335 48.3619 133.665 48.4315C135.245 48.4662 136.761 47.6704 137.93 46.1946C139.136 44.6724 139.825 42.6191 139.871 40.415C139.918 38.211 139.313 36.1306 138.174 34.5602C137.067 33.0361 135.587 32.1803 134.005 32.1456C133.974 32.1456 133.941 32.1456 133.91 32.1456L133.908 32.1436Z" fill="#E0840B"/>
<path d="M116.16 49.8474C116.122 49.8474 116.081 49.8474 116.042 49.8474C114.09 49.8068 112.285 48.7792 110.96 46.9557C109.672 45.1805 108.99 42.8509 109.04 40.3957C109.146 35.2672 112.459 31.1662 116.431 31.2435C120.398 31.3266 123.539 35.5666 123.433 40.6952C123.327 45.7735 120.076 49.8474 116.16 49.8474ZM116.311 32.4006C113.023 32.4006 110.292 35.9703 110.199 40.4189C110.153 42.623 110.757 44.7034 111.897 46.2738C113.004 47.7979 114.484 48.6536 116.066 48.6884C119.394 48.7618 122.179 45.1612 122.274 40.672C122.369 36.1809 119.736 32.472 116.408 32.4025C116.377 32.4025 116.344 32.4025 116.313 32.4025L116.311 32.4006Z" fill="#E0840B"/>
<path d="M127.275 40.2161C127.265 40.2161 127.254 40.2161 127.242 40.2161L123.095 39.9901C122.776 39.9727 122.531 39.7003 122.548 39.3797C122.566 39.059 122.838 38.8156 123.159 38.833L127.306 39.059C127.625 39.0764 127.87 39.3488 127.853 39.6694C127.835 39.9785 127.58 40.218 127.275 40.218V40.2161Z" fill="#E0840B"/>
<path d="M149.304 40.8825C149.273 40.8825 149.242 40.8806 149.211 40.8748L140.366 39.4647C140.049 39.4145 139.835 39.117 139.885 38.8021C139.935 38.4853 140.233 38.2709 140.548 38.3211L149.393 39.7313C149.71 39.7815 149.924 40.079 149.874 40.3938C149.827 40.6797 149.582 40.8825 149.302 40.8825H149.304Z" fill="#E0840B"/>
<path d="M152.744 97.4418L154.479 112.837C154.479 112.837 128.805 116.248 117.368 117.237C116.854 117.282 107.203 123.369 108.262 123.873C114.466 126.817 107.479 129.567 115.673 128.462C115.673 128.462 142.149 131.389 166.704 126.892C169.656 126.351 172.818 123.826 173.674 120.952C175.09 116.198 175.424 102.995 173.803 91.1213C173.813 91.0885 152.74 97.4437 152.74 97.4437L152.744 97.4418Z" fill="white"/>
<path d="M135.948 129.963C124.764 129.963 116.539 129.135 115.683 129.044C112.88 129.419 111.725 129.372 111.122 128.864C110.67 128.482 110.651 127.956 110.634 127.491C110.603 126.651 110.566 125.605 108.014 124.394C107.711 124.251 107.555 123.942 107.615 123.61C107.671 123.299 107.788 122.65 112.347 119.602C112.39 119.573 116.67 116.716 117.317 116.66C127.673 115.764 150.007 112.841 153.837 112.337L152.167 97.5074C152.136 97.2293 152.308 96.9685 152.574 96.8874C152.574 96.8874 157.834 95.3015 163.098 93.7175C165.729 92.9255 168.362 92.1355 170.338 91.5424C171.327 91.2469 172.15 90.9996 172.729 90.8296C173.019 90.7427 173.247 90.677 173.403 90.6307C173.732 90.536 173.967 90.4665 174.213 90.706C174.303 90.7968 174.363 90.9146 174.381 91.0402C175.717 100.838 175.976 115.259 174.232 121.116C173.351 124.074 170.091 126.859 166.811 127.462C156.152 129.415 145.066 129.965 135.948 129.965V129.963ZM115.675 127.881C115.697 127.881 115.718 127.881 115.739 127.885C116.004 127.914 142.415 130.75 166.602 126.32C169.441 125.801 172.366 123.316 173.121 120.784C174.784 115.202 174.564 101.512 173.32 91.8612C170.606 92.6628 159.735 95.937 153.374 97.8551L155.054 112.77C155.089 113.082 154.867 113.366 154.554 113.409C154.297 113.444 128.82 116.822 117.474 117.807C116.436 118.209 110.29 122.215 108.969 123.575C111.704 125.02 111.758 126.527 111.791 127.446C111.799 127.67 111.808 127.925 111.868 127.976C112.059 128.138 112.863 128.252 115.596 127.883C115.621 127.879 115.648 127.877 115.673 127.877L115.675 127.881Z" fill="#2E186A"/>
<path d="M106.556 126.233C103.711 129.515 100.319 130.479 100.794 128.36C100.971 127.564 107.755 120.666 110.23 119.467C112.142 118.541 114.992 117.537 118.911 117.093" fill="white"/>
<path d="M101.568 130.062C101.296 130.062 101.053 130.012 100.844 129.907C100.576 129.772 99.9806 129.339 100.228 128.233C100.487 127.081 107.582 120.104 109.977 118.945C112.523 117.713 115.507 116.896 118.845 116.517C119.164 116.48 119.45 116.71 119.487 117.027C119.523 117.346 119.293 117.632 118.977 117.668C115.768 118.031 112.911 118.812 110.483 119.986C108.092 121.145 101.777 127.647 101.354 128.515C101.317 128.698 101.321 128.849 101.368 128.872C101.872 129.125 104.006 128.292 106.119 125.853C106.33 125.611 106.695 125.584 106.937 125.795C107.178 126.005 107.205 126.37 106.995 126.612C105.181 128.706 102.986 130.06 101.568 130.06V130.062Z" fill="#2E186A"/>
<path d="M111.37 123.483C111.37 123.483 108.54 124.143 106.801 126.038C105.063 127.933 103.74 129.125 104.029 129.533C104.319 129.94 106.17 130.359 107.352 129.279C108.874 127.309 113.216 126.001 113.216 126.001C112.731 126.05 109.747 127.054 108.298 128.289C106.861 129.511 106.116 131.881 110.016 130.131C110.016 130.131 114.026 128.943 115.558 128.433" fill="white"/>
<path d="M107.883 131.329C107.408 131.329 106.981 131.19 106.732 130.794C106.662 130.684 106.61 130.541 106.587 130.371C106.112 130.525 105.588 130.58 105.055 130.522C104.794 130.495 103.913 130.365 103.558 129.867C103.058 129.164 103.757 128.424 105.289 126.807C105.621 126.455 105.988 126.069 106.376 125.646C108.215 123.641 111.119 122.946 111.24 122.919C111.551 122.845 111.864 123.04 111.936 123.351C112.009 123.662 111.814 123.973 111.503 124.047C111.476 124.052 108.822 124.694 107.228 126.43C106.836 126.857 106.465 127.249 106.129 127.605C105.55 128.217 104.906 128.897 104.661 129.262C105.117 129.428 106.185 129.529 106.927 128.882C107.041 128.739 107.166 128.6 107.302 128.466C107.472 128.263 107.676 128.057 107.922 127.848C109.502 126.502 112.598 125.482 113.158 125.426C113.454 125.397 113.726 125.598 113.784 125.889C113.842 126.181 113.668 126.471 113.382 126.558C113.344 126.569 109.88 127.628 108.223 129.185C107.87 129.61 107.715 130.002 107.715 130.158C107.839 130.191 108.347 130.245 109.778 129.604C109.801 129.594 109.826 129.585 109.851 129.577C109.892 129.565 113.869 128.387 115.374 127.885C115.677 127.784 116.006 127.947 116.108 128.252C116.209 128.555 116.046 128.884 115.741 128.986C114.279 129.475 110.651 130.551 110.217 130.68C109.749 130.889 108.735 131.335 107.883 131.335V131.329Z" fill="#2E186A"/>
<path d="M23.1079 87.2594H89.4897C90.3609 87.2594 91.1181 87.8582 91.3171 88.7062L100.292 126.7H126.914C126.914 126.7 128.453 134.659 119.469 134.659H33.4173C32.5461 134.659 31.7889 134.06 31.5899 133.212L21.2806 89.5697C21.0024 88.3914 21.8968 87.2594 23.1079 87.2594Z" fill="#2E186A"/>
<path d="M97.2553 135.238C96.9945 135.238 96.7569 135.06 96.6932 134.796L85.6344 89.2548C85.4953 88.6715 84.9757 88.2658 84.3691 88.2658C84.0485 88.2658 83.7896 88.007 83.7896 87.6863C83.7896 87.3657 84.0485 87.1068 84.3691 87.1068C85.5127 87.1068 86.4978 87.8795 86.7605 88.9844L97.8194 134.523C97.8947 134.834 97.7035 135.147 97.3925 135.223C97.3461 135.234 97.2997 135.238 97.2553 135.238Z" fill="white"/>
<path d="M57.7661 116.325C60.3329 116.325 62.4137 114.244 62.4137 111.678C62.4137 109.111 60.3329 107.03 57.7661 107.03C55.1993 107.03 53.1185 109.111 53.1185 111.678C53.1185 114.244 55.1993 116.325 57.7661 116.325Z" fill="white"/>
<defs>
<clipPath id="clip0_1076_20866">
<rect width="33" height="52" fill="white" transform="translate(57.6506 10.2382)"/>
</clipPath>
</defs>
</svg>
