<svg width="100" height="108" viewBox="0 0 100 108" fill="none" xmlns="http://www.w3.org/2000/svg">
<path d="M98.1844 34.4055C91.4419 1.88364 -2.75866 -34.396 0.0620852 63.4314C2.06154 132.758 115.486 117.847 98.1844 34.4055Z" fill="#DBDBEB"/>
<path d="M58.9173 51.9762C59.0909 52.1058 59.3486 51.9349 59.3899 51.5284C59.4326 51.1219 57.5641 49.0232 57.5641 49.0232L57.3863 48.8027C57.3863 48.8027 57.3533 48.873 58.5301 48.6498C59.7069 48.4279 59.5222 47.3944 58.8539 47.6687C58.1856 47.9429 56.8158 47.8092 56.8158 47.8092L52.6764 48.3494C50.4564 48.9419 51.6718 50.7581 51.6718 50.7581L54.6317 51.2914L57.2389 53.0511L58.9173 51.9749V51.9762Z" fill="white"/>
<path d="M57.2389 53.3267C57.1851 53.3267 57.1314 53.3115 57.0846 53.2798L54.5256 51.5532L51.6236 51.0309C51.5506 51.0171 51.4844 50.9758 51.4431 50.9124C51.4183 50.8752 50.845 50.0043 51.1565 49.1762C51.3521 48.6553 51.8399 48.2874 52.6047 48.0834C52.6157 48.0807 52.6281 48.0779 52.6405 48.0765L56.78 47.5364C56.8007 47.5336 56.8214 47.5336 56.842 47.5364C57.2044 47.5708 58.2545 47.6177 58.7492 47.4151C59.0206 47.3035 59.2824 47.3324 59.4657 47.495C59.638 47.648 59.7014 47.8933 59.6338 48.1385C59.5263 48.5257 59.1336 48.8179 58.581 48.9226C58.3192 48.9722 58.1098 49.0094 57.9403 49.0356C58.7822 49.9933 59.7055 51.1494 59.6628 51.5587C59.6283 51.8935 59.4698 52.1526 59.2397 52.2532C59.1446 52.2945 59.0413 52.3056 58.9448 52.2863L57.385 53.2853C57.3395 53.3143 57.2885 53.3294 57.2361 53.3294L57.2389 53.3267ZM51.8454 50.51L54.6813 51.0213C54.7186 51.0282 54.7544 51.0433 54.7861 51.064L57.243 52.7217L58.7685 51.7433C58.8511 51.691 58.9531 51.6855 59.0385 51.7282C59.0633 51.6993 59.0992 51.6331 59.1143 51.516C59.0537 51.239 58.1621 50.1091 57.3588 49.2065L57.2072 49.0191C57.1948 49.0053 57.1824 48.9901 57.17 48.9736C57.1066 48.8923 57.0942 48.7793 57.1369 48.6856C57.1769 48.5988 57.2596 48.5395 57.3533 48.5285C57.3891 48.5244 57.4263 48.5271 57.4607 48.5368C57.5296 48.534 57.7667 48.5133 58.4805 48.3783C58.8828 48.3025 59.0675 48.1206 59.1047 47.9883C59.1185 47.9401 59.1074 47.9098 59.1019 47.9043C59.095 47.8988 59.0523 47.885 58.96 47.9222C58.2875 48.1964 57.0432 48.1041 56.8227 48.0848L52.7315 48.6194C52.1596 48.7752 51.8041 49.026 51.6746 49.3677C51.5092 49.8031 51.7352 50.3034 51.8468 50.5087L51.8454 50.51Z" fill="#293173"/>
<path d="M57.6771 50.4246C57.7419 50.4687 60.0638 52.8871 58.6486 53.2192L57.6771 50.4246Z" fill="white"/>
<path d="M58.6472 53.4961C58.5218 53.4961 58.4088 53.4107 58.3785 53.2839C58.344 53.1351 58.435 52.9877 58.5838 52.9532C58.7891 52.905 58.8098 52.8209 58.8194 52.7851C58.9517 52.2739 57.797 50.911 57.5021 50.6396C57.3918 50.55 57.367 50.3902 57.4483 50.2717C57.5338 50.1463 57.706 50.1132 57.8314 50.1986C57.8493 50.211 59.5498 51.8743 59.3651 52.8692C59.3307 53.0511 59.2011 53.3735 58.7106 53.4893C58.6899 53.4948 58.6678 53.4961 58.6472 53.4961Z" fill="#293173"/>
<path d="M57.1135 50.9882C57.1135 50.9882 58.7712 52.9091 58.6293 53.3611C58.4874 53.8131 58.1525 53.9123 57.7047 53.1434" fill="white"/>
<path d="M58.3027 53.9853C58.0174 53.9853 57.7432 53.7538 57.4676 53.2798C57.3905 53.1489 57.4359 52.9794 57.5668 52.9036C57.6978 52.8278 57.8672 52.8719 57.943 53.0028C58.1304 53.3239 58.2531 53.408 58.2944 53.4286C58.3096 53.4107 58.3358 53.3721 58.3619 53.2908C58.3537 53.0208 57.6054 51.9804 56.904 51.1674C56.8048 51.0516 56.8172 50.878 56.933 50.7788C57.0487 50.6796 57.2223 50.692 57.3216 50.8077C58.1235 51.7365 59.0468 52.9477 58.8925 53.4424C58.7574 53.8751 58.5025 53.9661 58.3619 53.9826C58.3413 53.9853 58.322 53.9853 58.3013 53.9853H58.3027Z" fill="#293173"/>
<path d="M56.3845 51.4126C56.3845 51.4126 57.8397 52.657 57.819 53.7221C57.4263 54.2816 56.08 52.7465 55.8429 52.278C55.8429 52.278 55.0258 52.0741 54.385 50.7856" fill="white"/>
<path d="M57.5834 54.1176C57.5668 54.1176 57.5517 54.1176 57.5352 54.1163C56.8806 54.068 55.9477 52.9767 55.6556 52.5026C55.3786 52.3896 54.6882 52.0134 54.1384 50.9083C54.0709 50.7719 54.126 50.6065 54.2624 50.539C54.3989 50.4715 54.5642 50.5266 54.6317 50.663C55.1981 51.8026 55.8843 52.0024 55.9133 52.0107C55.9877 52.0314 56.0538 52.0837 56.0896 52.1526C56.3611 52.6914 57.2361 53.4962 57.5352 53.5637C57.4359 52.8223 56.5595 51.9225 56.2068 51.6207C56.091 51.5215 56.0772 51.3479 56.1765 51.2321C56.2757 51.1164 56.4493 51.1026 56.565 51.2018C56.6284 51.2556 58.1194 52.544 58.096 53.7263C58.096 53.7814 58.0781 53.8338 58.0464 53.8792C57.9375 54.0336 57.7749 54.1176 57.5861 54.1176H57.5834Z" fill="#293173"/>
<path d="M48.0698 90.8754L49.0068 93.5501C49.2741 94.3121 49.7729 94.9308 50.4426 95.3015C51.6208 95.6653 52.3718 95.4255 52.9657 95.4186C53.5087 95.4131 53.9028 95.8527 53.8725 96.4328L48.3192 97.7805C48.3192 97.7805 47.3256 94.9777 46.6036 95.2078C45.8815 95.4379 47.2981 98.165 47.2981 98.165L45.1222 98.6927C45.1222 98.6927 44.2197 92.879 45.227 91.3453C46.2357 89.8116 48.0698 90.8754 48.0698 90.8754Z" fill="#4D4192"/>
<path d="M21.3203 95.1072L21.0088 97.9238C20.9206 98.7258 21.1025 99.5003 21.5462 100.123C22.4516 100.961 23.2315 101.068 23.7703 101.321C24.2623 101.549 24.4276 102.117 24.1493 102.628L18.5588 101.442C18.5588 101.442 18.8743 98.4847 18.1247 98.38C17.3751 98.2752 17.6631 101.388 17.6631 101.388L15.4721 100.922C15.4721 100.922 16.981 95.2492 18.5546 94.3025C20.1269 93.3558 21.3216 95.1072 21.3216 95.1072H21.3203Z" fill="#4D4192"/>
<path d="M15.0573 96.51L21.7736 76.4975L22.2463 58.3825L38.399 59.0136C38.399 59.0136 45.4943 71.6567 45.9325 74.9363C46.2109 77.0239 50.783 92.7261 50.783 92.7261L42.934 92.7964L39.4684 76.069L31.7985 64.3382L30.6189 65.1402L29.4049 77.232L23.2302 98.1168L15.0559 96.51H15.0573Z" fill="white"/>
<path d="M23.2315 98.3924C23.2136 98.3924 23.1957 98.391 23.1778 98.3868L15.0036 96.7801C14.9264 96.7649 14.8589 96.7167 14.8189 96.6478C14.779 96.5789 14.7707 96.4962 14.7955 96.4218L21.498 76.4479L21.9693 58.3742C21.9707 58.3012 22.0024 58.2309 22.0561 58.1799C22.1099 58.1289 22.1801 58.1028 22.2559 58.1055L38.4087 58.7366C38.5038 58.7408 38.592 58.7931 38.6388 58.8772C38.9296 59.3953 45.7658 71.6043 46.2053 74.8977C46.4782 76.9412 51.0021 92.4904 51.0476 92.6475C51.0724 92.7302 51.0559 92.8198 51.0049 92.8887C50.9539 92.9576 50.8726 92.9989 50.7858 93.0003L42.9368 93.0706C42.8114 93.0706 42.6915 92.9796 42.6639 92.8515L39.2093 76.1751L31.7213 64.7226L30.8808 65.2945L29.6791 77.2582C29.6778 77.2747 29.6736 77.2926 29.6695 77.3091L23.4947 98.1939C23.4589 98.3124 23.35 98.391 23.2302 98.391L23.2315 98.3924ZM15.4184 96.3006L23.0372 97.7984L29.1335 77.1796L30.3447 65.114C30.353 65.0327 30.3971 64.9596 30.4632 64.9141L31.6428 64.1122C31.7034 64.0708 31.7792 64.0557 31.8522 64.0694C31.9253 64.0832 31.9887 64.1273 32.0286 64.1893L39.6985 75.9201C39.7178 75.9491 39.7302 75.9808 39.7371 76.0152L43.1572 92.5207L50.4165 92.456C49.7234 90.0707 45.9174 76.9095 45.6597 74.9748C45.2573 71.9639 38.9957 60.652 38.2337 59.2851L22.5136 58.6705L22.0479 76.5058C22.0479 76.5333 22.0423 76.5609 22.0341 76.5857L15.417 96.3006H15.4184Z" fill="#293173"/>
<path d="M22.0354 50.9041L20.2537 59.1789L39.7164 59.2189L39.9534 59.0673L39.4711 56.8033L37.9856 49.9891C37.9856 49.9891 35.2407 48.4127 36.6297 43.2136C36.8998 42.2008 37.0031 41.1218 36.9852 40.0428L42.6405 43.0978L41.884 41.108C40.5211 37.5253 37.7597 31.6316 34.0722 31.2926L30.805 31.2623L30.7209 32.3564L22.9697 32.9531L22.9242 32.7615C22.5784 32.8484 21.3464 33.1074 20.1324 33.3596C18.6594 33.6655 17.5528 34.8575 17.3324 36.3168L22.0382 50.9014L22.0354 50.9041ZM22.0258 45.0697L22.0354 44.9939V45.0711L22.0258 45.0697Z" fill="#5C64AA"/>
<path d="M42.6391 43.0992L43.4122 44.5792L54.0929 47.8354V51.7213L42.307 49.4683C39.0246 48.8413 36.5953 46.0509 36.4244 42.7134L36.2659 39.6102L42.6377 43.0979L42.6391 43.0992Z" fill="#5C64AA"/>
<path d="M35.9338 39.1747C35.8319 39.1747 35.734 39.1182 35.6858 39.0204L34.5352 36.6792C34.4676 36.5428 34.5241 36.3774 34.6606 36.3099C34.797 36.2424 34.9623 36.2989 35.0299 36.4353L36.1805 38.7765C36.248 38.9129 36.1915 39.0782 36.0551 39.1458C36.0165 39.1651 35.9752 39.1747 35.9338 39.1747Z" fill="#293173"/>
<path d="M23.255 31.5737C22.4957 31.5737 21.7158 30.8117 21.3947 29.7011C21.2128 29.0713 21.2087 28.4402 21.3823 27.9248C21.4305 27.7801 21.5876 27.703 21.7323 27.7526C21.877 27.8008 21.9542 27.9579 21.9045 28.1026C21.7681 28.5063 21.775 29.0341 21.9238 29.5495C22.1912 30.4755 22.8636 31.1424 23.3928 31.0074C23.5402 30.9702 23.6904 31.0584 23.7276 31.2058C23.7648 31.3533 23.6766 31.5035 23.5292 31.5407C23.4382 31.5641 23.3459 31.5751 23.2536 31.5751L23.255 31.5737Z" fill="#ED762F"/>
<path d="M32.8237 29.9946C32.0644 29.9946 31.2845 29.2326 30.9634 28.1219C30.7815 27.4922 30.7774 26.861 30.951 26.3457C30.9992 26.201 31.1563 26.1238 31.301 26.1734C31.4457 26.2217 31.5229 26.3787 31.4733 26.5234C31.3368 26.9272 31.3437 27.4549 31.4926 27.9703C31.7599 28.8963 32.4323 29.5633 32.9615 29.4282C33.1089 29.3896 33.2591 29.4792 33.2963 29.6267C33.3336 29.7741 33.2454 29.9243 33.0979 29.9615C33.007 29.9849 32.9146 29.996 32.8223 29.996L32.8237 29.9946Z" fill="#ED762F"/>
<path d="M21.2059 19.8829C22.5453 18.5986 22.7865 12.7463 18.2763 9.4226C13.7662 6.0989 10.8393 10.4685 10.2234 11.6122C9.60604 12.756 9.41174 15.7076 13.277 17.973C17.1422 20.2384 19.6764 21.3491 21.2059 19.8829Z" fill="#293173"/>
<path d="M23.6821 22.1414L23.5981 22.2131C23.0951 22.6389 22.3166 22.5851 21.8591 22.0932L20.5831 20.7193C20.1256 20.2274 20.1641 19.4833 20.6671 19.0575L20.7512 18.9858C21.2541 18.56 22.0327 18.6138 22.4902 19.1057L23.7662 20.4796C24.2237 20.9715 24.1851 21.7156 23.6821 22.1414Z" fill="#F0887F"/>
<path d="M30.9742 25.0316C31.9508 24.0174 31.3885 21.8913 29.7182 20.2828C28.0478 18.6743 25.9021 18.1925 24.9255 19.2066C23.9489 20.2208 24.5112 22.3469 26.1815 23.9554C27.8519 25.5639 29.9976 26.0457 30.9742 25.0316Z" fill="#293173"/>
<path d="M26.9783 23.9052C25.6444 25.771 23.8502 26.6598 22.3345 26.6226C20.725 26.5827 19.5523 23.0977 20.8862 21.2333C22.2201 19.3675 25.8607 18.1452 27.1174 18.9941C28.3742 19.8416 28.3122 22.0408 26.9783 23.9066V23.9052Z" fill="#293173"/>
<path d="M23.5688 27.0286C23.7943 26.3401 23.3903 25.5897 22.6664 25.3525C21.9424 25.1153 21.1727 25.4812 20.9471 26.1697C20.7216 26.8582 21.1256 27.6086 21.8495 27.8458C22.5735 28.083 23.3432 27.7171 23.5688 27.0286Z" fill="white"/>
<path d="M22.2959 28.1908C22.1195 28.1908 21.9404 28.1632 21.7626 28.1054C21.3451 27.9689 21.002 27.6837 20.798 27.3048C20.5913 26.9203 20.5514 26.4862 20.6836 26.0811C20.9565 25.2488 21.8839 24.8037 22.7506 25.0876C23.6174 25.3714 24.1024 26.2795 23.8296 27.1118C23.6132 27.7733 22.9821 28.1908 22.2959 28.1908ZM22.216 25.5533C21.7626 25.5533 21.3478 25.8234 21.2073 26.2534C21.1218 26.5138 21.1494 26.7949 21.2831 27.0443C21.4195 27.2979 21.651 27.4894 21.9335 27.5817C22.5122 27.7719 23.1282 27.4839 23.306 26.941C23.4837 26.398 23.1571 25.8014 22.5798 25.6126C22.4585 25.5726 22.3372 25.5547 22.2173 25.5547L22.216 25.5533Z" fill="#293173"/>
<path d="M32.9082 25.3757C33.1337 24.6872 32.7297 23.9368 32.0058 23.6996C31.2818 23.4624 30.5121 23.8283 30.2865 24.5168C30.061 25.2053 30.465 25.9557 31.1889 26.1929C31.9129 26.4301 32.6826 26.0642 32.9082 25.3757Z" fill="white"/>
<path d="M31.6345 26.5386C31.4581 26.5386 31.279 26.511 31.1012 26.4531C30.6837 26.3167 30.3406 26.0315 30.1366 25.6525C29.9299 25.2681 29.89 24.834 30.0223 24.4289C30.1546 24.0237 30.4453 23.6971 30.838 23.5097C31.2266 23.3251 31.6717 23.2989 32.0892 23.4353C32.956 23.7192 33.4411 24.6273 33.1682 25.4596C32.9519 26.121 32.3208 26.5386 31.6345 26.5386ZM31.5532 23.8997C31.3879 23.8997 31.2253 23.9355 31.075 24.0072C30.8187 24.1285 30.6313 24.3393 30.5459 24.5997C30.4605 24.8602 30.488 25.1413 30.6217 25.3907C30.7581 25.6442 30.9896 25.8358 31.2721 25.9281C31.8509 26.1183 32.4668 25.8303 32.6446 25.2873C32.8223 24.7444 32.4958 24.1477 31.9184 23.959C31.7985 23.919 31.6759 23.8997 31.5532 23.8997Z" fill="#293173"/>
<path d="M28.687 29.6708L29.3029 31.531L30.9799 31.4222C31.1425 31.6523 32.5233 36.066 28.3066 36.6861C25.5396 37.0926 23.6063 35.0711 22.2628 33.0978L24.5668 32.6031L23.0455 27.3034L28.6856 29.6708H28.687Z" fill="white"/>
<path d="M27.5943 37.0154C25.5783 37.0154 23.7538 35.778 22.0355 33.2535C21.9845 33.1777 21.9734 33.0813 22.0079 32.9958C22.0423 32.9104 22.1168 32.8484 22.2063 32.8291L24.2223 32.3964L22.7837 27.3792C22.7548 27.2772 22.7865 27.167 22.865 27.0967C22.9435 27.0264 23.0565 27.0071 23.1544 27.0485L28.7945 29.4158C28.8675 29.4462 28.924 29.5082 28.9488 29.584L29.4986 31.243L30.9621 31.148C31.0571 31.1425 31.1495 31.1852 31.2046 31.2637C31.352 31.4718 31.9666 33.3651 31.29 34.9443C30.8105 36.0646 29.8197 36.744 28.3453 36.9603C28.0917 36.9975 27.8409 37.0168 27.5929 37.0168L27.5943 37.0154ZM22.7272 33.2811C24.4745 35.716 26.2411 36.7123 28.2667 36.4146C29.4711 36.2369 30.2965 35.7188 30.7181 34.8713C31.3134 33.678 30.9621 32.1842 30.8036 31.7102L29.3222 31.8066C29.1968 31.8149 29.0825 31.7377 29.0425 31.6179L28.4651 29.8761L23.4699 27.7788L24.8314 32.526C24.8521 32.599 24.8424 32.6775 24.8024 32.7437C24.7639 32.8098 24.6991 32.8553 24.6233 32.8718L22.7244 33.2797L22.7272 33.2811Z" fill="#293173"/>
<path d="M28.6525 30.8191C30.945 30.0848 32.0384 27.1012 31.0947 24.155C30.1511 21.2088 27.5277 19.4157 25.2352 20.15C22.9428 20.8842 21.8494 23.8678 22.793 26.814C23.7367 29.7602 26.36 31.5534 28.6525 30.8191Z" fill="white"/>
<path d="M27.6011 31.2568C25.3302 31.2568 23.0923 29.2367 22.3937 26.4077C21.961 24.6521 22.1884 22.8924 23.0207 21.582C23.6352 20.6132 24.5103 19.9918 25.5507 19.7837C28.0545 19.2821 30.7222 21.4249 31.4953 24.5598C31.928 26.3153 31.7006 28.075 30.8683 29.3855C30.2537 30.3542 29.3787 30.9757 28.3383 31.1838C28.093 31.2334 27.8464 31.2568 27.5997 31.2568H27.6011ZM26.2975 20.2605C26.0839 20.2605 25.8717 20.2811 25.6595 20.3238C24.7693 20.5016 24.0183 21.039 23.4864 21.8782C22.734 23.0633 22.5315 24.6659 22.9283 26.2768C23.565 28.8577 25.5727 30.707 27.5928 30.707C27.8064 30.707 28.0186 30.6863 28.2308 30.6436C29.121 30.4658 29.872 29.9284 30.4039 29.0892C31.1563 27.9042 31.3589 26.3016 30.962 24.6907C30.3254 22.1097 28.3177 20.2605 26.2975 20.2605Z" fill="#293173"/>
<path d="M27.5074 27.0264C27.3752 27.0264 27.258 26.9299 27.236 26.7949C27.2112 26.6447 27.3132 26.5027 27.4634 26.4779L28.1069 26.3732L27.2911 24.371C27.2332 24.2304 27.3008 24.0692 27.4427 24.0113C27.5832 23.9535 27.7445 24.021 27.8023 24.1629L28.6856 26.3305C28.7325 26.4462 28.7242 26.5758 28.6636 26.6846C28.6029 26.7935 28.4968 26.8679 28.3728 26.8886L27.5529 27.0222C27.5378 27.025 27.5226 27.0264 27.5088 27.0264H27.5074Z" fill="#293173"/>
<path d="M24.7666 23.7909C24.7032 23.7909 24.6385 23.7688 24.5861 23.7233C24.4704 23.6241 24.458 23.4505 24.5572 23.3347C24.8355 23.0109 25.548 22.5272 26.2452 23.0068C26.3706 23.0936 26.4023 23.2645 26.3169 23.3899C26.2314 23.5153 26.0592 23.547 25.9338 23.4615C25.4639 23.1391 24.994 23.6723 24.9747 23.6958C24.9196 23.7592 24.8438 23.7909 24.7653 23.7909H24.7666Z" fill="#293173"/>
<path d="M29.4215 23.3499C29.3347 23.3499 29.2492 23.3086 29.1955 23.2328C28.8703 22.7725 28.2006 23.1198 28.1951 23.1239C28.06 23.1956 27.8933 23.1432 27.823 23.0096C27.7514 22.8745 27.8037 22.7078 27.9374 22.6375C28.3177 22.4363 29.1666 22.2351 29.6461 22.9158C29.7343 23.0399 29.704 23.2121 29.5799 23.3003C29.5317 23.3348 29.4766 23.3513 29.4215 23.3513V23.3499Z" fill="#293173"/>
<path d="M26.0699 25.7128C26.2525 25.6952 26.3793 25.4599 26.3531 25.1872C26.3268 24.9145 26.1576 24.7076 25.975 24.7252C25.7925 24.7427 25.6657 24.978 25.6919 25.2508C25.7181 25.5235 25.8874 25.7303 26.0699 25.7128Z" fill="#293173"/>
<path d="M29.2096 25.4251C29.3886 25.3887 29.4893 25.1409 29.4345 24.8717C29.3798 24.6025 29.1903 24.4138 29.0113 24.4502C28.8323 24.4866 28.7316 24.7344 28.7864 25.0036C28.8412 25.2728 29.0307 25.4615 29.2096 25.4251Z" fill="#293173"/>
<path d="M23.5623 20.5264C23.5623 20.5264 25.3013 21.2457 25.1952 22.3481L32.6046 21.8631C32.6046 21.8631 33.3749 16.2395 24.5131 18.9307L23.5623 20.5264Z" fill="#293173"/>
<path d="M24.0776 20.7758C24.0776 20.7758 24.6646 24.4606 22.2849 25.4679L22.2435 22.2048L24.079 20.7758H24.0776Z" fill="#293173"/>
<path d="M33.0304 29.9684C32.9078 29.9684 32.7961 29.8857 32.7631 29.7617C32.7259 29.6142 32.8141 29.464 32.9615 29.4268L32.9767 29.4227C33.5099 29.2684 33.7304 28.3424 33.4576 27.4012C33.1847 26.46 32.504 25.7945 31.9721 25.9488C31.826 25.9915 31.6731 25.9075 31.6304 25.76C31.5876 25.6139 31.6717 25.461 31.8192 25.4183C32.668 25.173 33.6188 25.9764 33.9867 27.2482C34.3546 28.5187 33.9785 29.7066 33.1296 29.9519L33.0979 29.9601C33.0745 29.9656 33.0525 29.9684 33.029 29.9684H33.0304Z" fill="#ED762F"/>
<path d="M23.4617 31.5476C23.339 31.5476 23.2274 31.4649 23.1943 31.3409C23.1557 31.1934 23.2453 31.0432 23.3928 31.0046L23.4079 31.0005C23.7304 30.9068 23.8751 30.5526 23.9329 30.3487C24.0459 29.9518 24.0294 29.4654 23.8888 28.979C23.616 28.0378 22.9353 27.3723 22.4034 27.5266C22.2573 27.5693 22.1043 27.4852 22.0616 27.3378C22.0189 27.1917 22.103 27.0388 22.2504 26.9961C23.0979 26.7508 24.0501 27.5541 24.418 28.826C24.5861 29.4103 24.6026 30.0042 24.4621 30.4989C24.3091 31.0405 23.9894 31.407 23.5609 31.5296L23.5292 31.5379C23.5058 31.5434 23.4823 31.5462 23.4603 31.5462L23.4617 31.5476Z" fill="#ED762F"/>
<path d="M27.5116 28.6579C26.7881 28.6579 25.7836 28.3851 25.4611 27.324C25.417 27.178 25.4997 27.025 25.6444 26.9809C25.7905 26.9368 25.9434 27.0195 25.9889 27.1642C26.3361 28.3065 27.772 28.093 27.8326 28.0833C27.9828 28.0599 28.1234 28.1619 28.1482 28.3121C28.173 28.4623 28.071 28.6028 27.9208 28.6276C27.8023 28.6469 27.6631 28.6593 27.5116 28.6593V28.6579Z" fill="#293173"/>
<path d="M34.1355 48.8992L35.1249 46.4767C35.4253 45.9723 34.9719 45.5314 34.48 45.9089C34.2898 46.055 34.0528 46.2631 33.8268 46.6365C33.1737 47.7169 31.7254 49.9878 31.8026 49.8996C31.8797 49.8114 34.1355 48.8992 34.1355 48.8992Z" fill="white"/>
<path d="M31.7984 50.1765C31.7406 50.1765 31.6827 50.1586 31.6345 50.1228C31.4278 49.9685 31.5077 49.8403 31.7723 49.4159C31.9032 49.2064 32.0851 48.9157 32.289 48.5905C32.7217 47.9001 33.2619 47.0402 33.5912 46.4946C33.842 46.0798 34.1079 45.8469 34.3119 45.6912C34.6867 45.4046 35.067 45.4652 35.2792 45.654C35.4901 45.8414 35.5989 46.2052 35.3729 46.6007L34.3918 49.0053C34.3642 49.0742 34.3091 49.1293 34.2402 49.1568C33.2412 49.5606 32.1347 50.0263 31.9748 50.1173C31.9238 50.1572 31.8618 50.1779 31.7998 50.1779L31.7984 50.1765ZM34.8438 46.0426C34.7942 46.0426 34.7253 46.0674 34.6467 46.1266C34.4704 46.2617 34.2637 46.4449 34.0625 46.7784C33.7304 47.3282 33.1888 48.1895 32.7548 48.8826C32.6721 49.0135 32.5894 49.1458 32.5109 49.2712C32.8416 49.1306 33.2963 48.9419 33.9247 48.6869L34.87 46.3719C34.8755 46.3595 34.881 46.3471 34.8879 46.3347C34.9664 46.2038 34.9554 46.1018 34.9113 46.0632C34.8962 46.0495 34.8727 46.0412 34.8438 46.0412V46.0426Z" fill="#293173"/>
<path d="M26.4588 48.0379L31.6744 49.1885L34.232 47.8822L37.6453 46.8418C38.0628 46.7192 38.3715 47.2456 38.0504 47.5405C37.8823 47.6948 35.3137 48.5574 35.3137 48.5574L38.5837 48.1909C38.9199 48.155 39.139 48.545 38.9254 48.8082C38.7118 49.0714 38.326 49.0948 37.812 49.2106C37.4978 49.2809 35.4791 49.5206 35.4791 49.5206L38.3604 49.7204C39.0729 49.8004 39.0494 50.8201 37.6949 50.6492C36.9907 50.561 36.1322 50.5651 35.5356 50.4012L37.4882 50.962C38.1276 51.3533 37.4689 52.0782 34.7198 51.2472C33.0469 52.5922 32.1691 52.8443 30.6616 51.9583C30.6534 51.9541 25.6058 51.1301 25.6058 51.1301L26.4546 48.0393L26.4588 48.0379Z" fill="white"/>
<path d="M32.2449 52.752C31.7351 52.752 31.199 52.5839 30.5693 52.2201C30.1655 52.1526 27.1739 51.6634 25.5658 51.4002C25.4886 51.3878 25.4211 51.3423 25.3784 51.2776C25.3357 51.2114 25.3233 51.1315 25.3453 51.0557L26.1942 47.9649C26.2328 47.8229 26.3761 47.7375 26.5194 47.7692L31.6386 48.8991L34.108 47.6383C34.1217 47.6314 34.1369 47.6245 34.1534 47.6204L37.5667 46.58C37.885 46.4863 38.2061 46.6172 38.3687 46.9066C38.5285 47.1904 38.4762 47.5267 38.2378 47.7458C38.1813 47.7981 37.9884 47.8891 37.6632 48.0172L38.5533 47.9166C38.8221 47.8877 39.077 48.0227 39.2051 48.2584C39.3347 48.4954 39.3099 48.7724 39.1404 48.9805C38.9061 49.2712 38.5589 49.3387 38.1579 49.4187C38.1455 49.4214 38.1344 49.4228 38.122 49.4255L38.3797 49.4435C38.6953 49.4793 38.9406 49.646 39.0467 49.8927C39.1417 50.1118 39.11 50.3598 38.9612 50.5569C38.8386 50.7209 38.5396 50.9716 37.8767 50.9413C38.0132 51.1246 38.0104 51.3189 37.9484 51.4567C37.6949 52.0217 36.5153 52.0547 34.7804 51.5504C33.8172 52.3138 33.0648 52.7506 32.2435 52.7506L32.2449 52.752ZM25.9572 50.9055C29.1541 51.4273 30.77 51.6983 30.8049 51.7185C32.1471 52.5081 32.8829 52.3731 34.5503 51.0309C34.6206 50.9744 34.7156 50.9551 34.8025 50.9813C36.5305 51.5035 37.2539 51.3492 37.4193 51.25C37.4082 51.2404 37.3945 51.2279 37.3752 51.2142L35.4611 50.6657C35.3151 50.6244 35.231 50.4728 35.2724 50.3267C35.3137 50.1807 35.4653 50.0952 35.6113 50.1352C35.9682 50.233 36.4519 50.2689 36.9204 50.3019C37.1919 50.3212 37.473 50.3419 37.7321 50.375C38.1896 50.4329 38.4403 50.3364 38.523 50.2262C38.552 50.1876 38.5589 50.149 38.5423 50.1118C38.5161 50.0498 38.4362 50.0057 38.3315 49.9933L35.4611 49.7948C35.3192 49.7852 35.2076 49.6694 35.2048 49.5261C35.2007 49.3842 35.3068 49.2629 35.4474 49.245C36.0054 49.1789 37.5061 48.9956 37.7514 48.9391C37.8561 48.9157 37.9567 48.8964 38.0504 48.8771C38.4031 48.8068 38.6071 48.7614 38.7104 48.6332C38.7449 48.5905 38.7339 48.5478 38.7201 48.5202C38.7091 48.5009 38.6774 48.4554 38.6126 48.4623L35.3454 48.8289C35.2062 48.844 35.0753 48.7517 35.045 48.6139C35.0147 48.4761 35.0932 48.3383 35.2269 48.2928C36.3871 47.9029 37.6797 47.4399 37.874 47.3255C37.9291 47.2676 37.9071 47.2056 37.8892 47.1725C37.8726 47.1422 37.8216 47.0747 37.7252 47.1036L34.3381 48.1357L31.8026 49.4311C31.7461 49.46 31.6799 49.4683 31.6179 49.4545L26.6572 48.3604L25.9585 50.9027L25.9572 50.9055Z" fill="#293173"/>
<path d="M22.8788 37.6121L17.4784 35.6085L14.7211 48.647C14.5378 50.0098 15.4321 51.2859 16.7757 51.5794L30.6919 53.5457C31.1012 53.5774 31.4691 53.2991 31.5477 52.8967L31.5573 48.6236C31.6497 48.1606 31.3272 47.7182 30.8587 47.6631L21.7543 46.7619L22.8801 37.6107L22.8788 37.6121Z" fill="#5C64AA"/>
<path d="M31.5559 48.9005C31.5339 48.9005 31.5104 48.8978 31.487 48.8923L22.0781 46.4767C21.8604 46.4808 20.5417 46.5428 20.4466 47.3779C20.43 47.5294 20.2936 47.6383 20.142 47.6204C19.9905 47.6038 19.8816 47.4674 19.8995 47.3158C19.9464 46.8997 20.1958 46.3457 21.1135 46.0701C21.6165 45.9186 22.096 45.9227 22.1167 45.9241C22.1387 45.9241 22.1608 45.9268 22.1815 45.9323L31.6248 48.3576C31.7723 48.3948 31.8604 48.545 31.8232 48.6925C31.7915 48.8165 31.6799 48.8992 31.5559 48.8992V48.9005Z" fill="#293173"/>
<path d="M19.7176 46.6655C19.6584 46.6655 19.5991 46.6462 19.5481 46.6076C19.4283 46.5139 19.4076 46.3402 19.5013 46.2204C19.8375 45.7904 20.244 45.5451 20.7112 45.4886C21.1673 45.4335 21.5848 45.5768 21.8714 45.7188L22.8043 39.2147C22.8264 39.0645 22.9642 38.9597 23.1158 38.9804C23.266 39.0025 23.3707 39.1416 23.35 39.2918L22.3579 46.2093C22.3441 46.3072 22.2793 46.3899 22.187 46.4257C22.0947 46.4629 21.9913 46.4464 21.9141 46.3857C21.797 46.2948 20.747 45.5217 19.9354 46.558C19.8816 46.6269 19.8003 46.6641 19.7176 46.6641V46.6655Z" fill="#293173"/>
<path d="M78.0713 92.806L77.8012 96.6464C77.8012 96.6464 81.8538 98.6569 81.4887 100.728L72.9438 100.698L73.0926 93.2938L78.0713 92.806Z" fill="#293173"/>
<path d="M64.5367 92.806L64.8068 96.6464C64.8068 96.6464 60.7541 98.6569 61.1193 100.728L69.6642 100.698L69.5153 93.2938L64.5367 92.806Z" fill="#293173"/>
<path d="M61.4679 58.9654V75.8457L62.6364 97.323H71.315L70.072 75.103V65.7106H71.049L71.3577 75.2587L72.2451 97.323H80.1892L80.7942 73.3543L80.8052 57.8836L61.4679 58.9654Z" fill="#F0877F"/>
<path d="M42.7962 50.6837C41.607 51.6965 38.9681 52.3139 39.4049 53.1393C39.4876 53.295 39.8239 53.656 40.5886 53.2702L40.5239 53.3501C40.5046 53.379 40.4894 53.408 40.4784 53.4369C40.2469 54.0735 40.929 54.3285 41.9473 53.758L42.2036 53.5306C41.5064 53.9082 42.0479 54.724 42.7521 54.3574C43.2275 54.1094 44.2086 53.6064 44.3767 53.5389C45.7533 53.0704 47.1327 52.1761 47.0748 51.1522C46.915 48.3218 42.5743 49.6667 42.5743 49.6667C42.0686 50.1421 41.2032 50.5845 40.0939 51.093C39.3953 51.414 39.6103 52.1347 40.116 52.1278L40.3613 52.0465C39.675 52.4062 39.1983 52.7493 39.4036 53.1379C39.4863 53.2936 39.8225 53.6546 40.5873 53.2688" fill="white"/>
<path d="M42.3993 54.6978C42.0865 54.6978 41.833 54.5283 41.7117 54.3009C41.6897 54.2596 41.6717 54.2155 41.658 54.1686C41.1247 54.3795 40.67 54.3753 40.3985 54.1452C40.2579 54.0253 40.1849 53.8586 40.1863 53.667C39.6365 53.7635 39.3085 53.4824 39.1859 53.2536C39.1032 53.0965 39.0866 52.9271 39.139 52.7645C39.2079 52.555 39.3815 52.3703 39.631 52.194C39.5276 52.1003 39.4518 51.9749 39.4187 51.8302C39.3526 51.538 39.4628 51.1122 39.9892 50.8711C41.0958 50.3626 41.9308 49.9341 42.4035 49.489C42.431 49.4628 42.4641 49.4449 42.4985 49.4339C42.606 49.4008 45.1498 48.6277 46.503 49.5661C47.0032 49.9134 47.2774 50.4425 47.3174 51.1398C47.3615 51.9253 46.6339 53.029 44.4594 53.7718C44.3037 53.8351 43.4218 54.2858 42.8637 54.5779C42.7011 54.6633 42.5426 54.6991 42.3979 54.6991L42.3993 54.6978ZM42.1416 53.9151C42.1182 53.9661 42.1196 54.0198 42.1472 54.0694C42.2023 54.1714 42.3773 54.2747 42.6377 54.1383C42.934 53.984 44.0819 53.3901 44.2858 53.3088C44.2899 53.3074 44.2927 53.306 44.2968 53.3046C45.5921 52.8637 46.8764 52.0314 46.8282 51.1646C46.7979 50.6203 46.6008 50.229 46.2246 49.9685C45.1636 49.2313 43.0539 49.7852 42.697 49.8858C42.1706 50.3612 41.3149 50.8022 40.1959 51.3162C39.9369 51.4347 39.8735 51.6028 39.8997 51.7199C39.9148 51.7888 39.9713 51.8688 40.0802 51.8798L40.2634 51.8192C40.4577 51.7186 40.6686 51.6152 40.8918 51.5063C41.5312 51.1949 42.1926 50.8711 42.635 50.4949C42.7383 50.4067 42.894 50.4191 42.9822 50.5225C43.0704 50.6258 43.058 50.7815 42.9547 50.8697C42.4641 51.2872 41.7751 51.6235 41.1082 51.9487C40.7237 52.1361 40.3089 52.3387 40.0113 52.5302C39.8225 52.6528 39.6461 52.7961 39.6075 52.9174C39.5993 52.9422 39.5965 52.9725 39.6213 53.0208C39.6365 53.0497 39.7591 53.2536 40.1284 53.1765C40.2166 53.1572 40.3199 53.1227 40.4385 53.0662C40.4385 53.0662 40.4398 53.0662 40.4412 53.0662C40.444 53.0662 40.4467 53.0635 40.4495 53.0621C40.4495 53.0621 40.4509 53.0621 40.4522 53.0621L40.4605 53.058C40.4605 53.058 40.4701 53.0538 40.4743 53.0511C40.5322 53.0221 40.5942 53.018 40.652 53.0345C40.67 53.04 40.6865 53.0469 40.703 53.0552C40.7402 53.0745 40.7719 53.1048 40.7953 53.142C40.805 53.1572 40.8119 53.1723 40.8174 53.1889C40.8326 53.2316 40.8353 53.2743 40.827 53.317C40.8229 53.3418 40.8133 53.3653 40.8022 53.3887C40.794 53.4038 40.7843 53.4176 40.7733 53.4314L40.7196 53.4962C40.714 53.5058 40.7099 53.5141 40.7058 53.5223C40.681 53.5912 40.6479 53.7153 40.714 53.7718C40.8188 53.8613 41.1963 53.882 41.771 53.5733C41.8426 53.4782 41.9446 53.3901 42.081 53.3156C42.1913 53.2564 42.3277 53.2881 42.3993 53.3901C42.471 53.492 42.4544 53.6326 42.3607 53.7153L42.1348 53.9151H42.1416Z" fill="#2E2765"/>
<path d="M42.2615 53.7456C42.1747 53.7456 42.0893 53.6987 42.0452 53.616C41.9804 53.4962 42.0245 53.3473 42.1444 53.2826C42.4903 53.0952 42.7535 52.9615 42.9864 52.8444C43.2509 52.7107 43.481 52.5936 43.7649 52.4324C43.8834 52.3648 44.0336 52.4062 44.0998 52.5247C44.1673 52.6432 44.1259 52.7934 44.0074 52.8595C43.7125 53.0263 43.4783 53.1448 43.2082 53.2826C42.9781 53.3983 42.7176 53.5306 42.3787 53.7153C42.3415 53.7359 42.3015 53.7456 42.2615 53.7456Z" fill="#2E2765"/>
<path d="M40.4784 53.6836C40.4509 53.6836 40.4219 53.6794 40.3944 53.6684C40.2662 53.6216 40.2014 53.481 40.2469 53.3529C40.3778 52.9918 40.8643 52.7521 41.5353 52.4213C41.9997 52.1926 42.5261 51.9335 43.0415 51.5849C43.1545 51.5091 43.3074 51.538 43.3832 51.651C43.459 51.764 43.4301 51.917 43.3171 51.9928C42.7741 52.3607 42.2078 52.6391 41.7517 52.8623C41.2694 53.0993 40.7719 53.3446 40.7085 53.5196C40.6727 53.6202 40.5776 53.6822 40.477 53.6822L40.4784 53.6836Z" fill="#2E2765"/>
<path d="M46.8902 51.8866L51.0641 52.2642C51.0641 52.2642 52.9092 49.7935 50.8381 48.0682L46.8612 48.3493C46.412 48.173 45.4984 48.2116 44.9045 48.0806C44.21 47.9277 42.2588 48.3397 41.7337 48.1812C40.9125 47.9332 40.6038 49.4324 42.482 49.5854L42.584 49.5964C42.584 49.5964 43.6505 49.4338 44.3037 50.2165C44.9569 50.9992 45.4722 50.8022 45.4722 50.8022" fill="white"/>
<path d="M51.0655 52.5095C51.0586 52.5095 51.0503 52.5095 51.0434 52.5095L46.8695 52.132C46.7345 52.1196 46.6339 51.9997 46.6463 51.8646C46.6587 51.7296 46.7786 51.6304 46.9136 51.6414L50.9456 52.0066C51.2556 51.5339 52.3015 49.6902 50.7568 48.3204L46.8805 48.5947C46.8433 48.5974 46.8075 48.5919 46.7731 48.5781C46.554 48.4913 46.1612 48.461 45.7809 48.4321C45.4612 48.4073 45.1291 48.3811 44.8535 48.3204C44.5393 48.2515 43.8572 48.3204 43.2551 48.3797C42.5661 48.4486 41.9694 48.5079 41.6649 48.4169C41.5863 48.3935 41.4761 48.3825 41.4003 48.4638C41.33 48.5395 41.3162 48.6622 41.3645 48.7835C41.4816 49.0839 41.9074 49.2906 42.5027 49.3402L42.5826 49.3484C42.7893 49.325 43.8214 49.2533 44.4925 50.0595C45.0092 50.6782 45.3772 50.5762 45.3923 50.5707L45.4722 50.8036L45.5604 51.0337C45.4902 51.0599 44.859 51.268 44.1149 50.375C43.5568 49.7067 42.6308 49.839 42.6212 49.8404C42.6005 49.8431 42.5785 49.8445 42.5564 49.8404L42.4544 49.8293C41.3259 49.737 40.9938 49.1927 40.9042 48.9626C40.7885 48.6636 40.8394 48.3453 41.0379 48.1303C41.2267 47.9263 41.5133 47.8574 41.8054 47.9456C42.0162 48.009 42.6474 47.9456 43.2041 47.8905C43.8738 47.823 44.5655 47.7541 44.9569 47.8395C45.1994 47.8933 45.5136 47.9167 45.8167 47.9401C46.2246 47.9718 46.6118 48.0021 46.8957 48.0986L50.8202 47.8216C50.8836 47.8175 50.9456 47.8368 50.9952 47.8781C53.2193 49.7315 51.2805 52.3841 51.2612 52.4103C51.2143 52.4723 51.1413 52.5095 51.0641 52.5095H51.0655Z" fill="#2E2765"/>
<path d="M75.4228 27.7774L81.7381 30.4479C83.3834 31.1438 84.7118 32.4267 85.4642 34.0459C85.4642 34.0459 91.4639 42.0051 89.4011 46.405C87.9363 46.405 55.2049 46.405 55.2049 46.405L60.1257 33.0799C60.4275 32.2641 61.038 31.5999 61.8248 31.2306L67.9017 28.5105L75.4214 27.7774H75.4228Z" fill="#293173"/>
<path d="M75.8486 27.9097L77.2266 28.5394C77.2266 28.5394 71.8042 36.1087 72.5621 43.7014C72.4077 44.0032 73.1009 62.854 72.806 62.9794C71.8772 63.3749 68.4116 63.2978 67.4484 62.9794L67.5476 43.6862L66.5196 29.1278L68.1718 28.3796L75.8486 27.9097Z" fill="white"/>
<path d="M67.3051 40.7567C68.322 40.9206 69.2783 40.9372 70.0845 40.8917C71.0849 40.8352 71.9613 40.6795 72.6103 40.5307C72.5841 40.7553 72.5621 40.9813 72.5442 41.2073C71.8993 41.3451 71.0766 41.4787 70.141 41.5338C69.8571 41.5504 69.5774 41.5586 69.299 41.5586C68.6307 41.5586 67.9789 41.5104 67.3505 41.4167L67.3051 40.7553V40.7567Z" fill="#9489B2"/>
<path d="M69.3473 39.9326C68.6362 39.9326 67.939 39.8885 67.2596 39.8017L67.2142 39.1403C68.6941 39.3429 70.0721 39.307 71.1924 39.1899C71.7712 39.1293 72.3127 39.0438 72.8033 38.9488C72.7619 39.1734 72.7234 39.3994 72.6903 39.6267C72.2535 39.7053 71.7822 39.7756 71.2806 39.8279C70.6274 39.8968 69.9825 39.9313 69.3473 39.9313V39.9326Z" fill="#9489B2"/>
<path d="M71.7532 37.2676C72.2824 37.2166 72.7798 37.1477 73.2401 37.0678C73.1781 37.2938 73.1174 37.5212 73.0623 37.7513C72.6765 37.8119 72.2672 37.8657 71.8359 37.907C71.2103 37.9676 70.5916 37.998 69.9839 37.998C69.0414 37.998 68.1222 37.9263 67.2376 37.7816C67.199 37.7761 67.1618 37.7678 67.1246 37.7623L67.0791 37.0954C68.8209 37.4096 70.4565 37.3916 71.756 37.2676H71.7532Z" fill="#9489B2"/>
<path d="M69.8888 36.3251C68.9862 36.3251 68.0093 36.2424 67.0019 36.0274L66.9565 35.3564C68.8774 35.7973 70.6963 35.7215 72.0867 35.5162C72.733 35.4211 73.3269 35.293 73.8505 35.1566C73.7637 35.3949 73.6797 35.6375 73.5984 35.8841C73.1684 35.9847 72.7013 36.0771 72.2025 36.1515C71.519 36.2534 70.7363 36.3251 69.8888 36.3251Z" fill="#9489B2"/>
<path d="M71.7532 44.3629C72.2824 44.3119 72.7798 44.243 73.2401 44.1631C73.1781 44.3891 73.1174 44.6164 73.0623 44.8466C72.6765 44.9072 72.2672 44.9609 71.8359 45.0023C71.2103 45.0629 70.5916 45.0932 69.9839 45.0932C69.0414 45.0932 68.1222 45.0216 67.2376 44.8769C67.199 44.8714 67.1618 44.8631 67.1246 44.8576L67.0791 44.1906C68.8209 44.5048 70.4565 44.4869 71.756 44.3629H71.7532Z" fill="#9489B2"/>
<path d="M69.8888 43.4203C68.9862 43.4203 68.0093 43.3377 67.0019 43.1227L66.9565 42.4516C68.8774 42.8926 70.6963 42.8168 72.0867 42.6115C72.733 42.5164 73.3269 42.3882 73.8505 42.2518C73.7637 42.4902 73.6797 42.7327 73.5984 42.9794C73.1684 43.08 72.7013 43.1723 72.2025 43.2467C71.519 43.3487 70.7363 43.4203 69.8888 43.4203Z" fill="#9489B2"/>
<path d="M71.7532 47.9842C72.2824 47.9332 72.7798 47.8643 73.2401 47.7844C73.1781 48.0104 73.1174 48.2378 73.0623 48.4679C72.6765 48.5285 72.2672 48.5823 71.8359 48.6236C71.2103 48.6842 70.5916 48.7146 69.9839 48.7146C69.0414 48.7146 68.1222 48.6429 67.2376 48.4982C67.199 48.4927 67.1618 48.4844 67.1246 48.4789L67.0791 47.812C68.8209 48.1262 70.4565 48.1083 71.756 47.9842H71.7532Z" fill="#9489B2"/>
<path d="M69.8888 47.0417C68.9862 47.0417 68.0093 46.959 67.0019 46.744L66.9565 46.0729C68.8774 46.5139 70.6963 46.4381 72.0867 46.2328C72.733 46.1377 73.3269 46.0096 73.8505 45.8731C73.7637 46.1115 73.6797 46.3541 73.5984 46.6007C73.1684 46.7013 72.7013 46.7936 72.2025 46.868C71.519 46.97 70.7363 47.0417 69.8888 47.0417Z" fill="#9489B2"/>
<path d="M71.7532 51.4568C72.2824 51.4058 72.7798 51.3369 73.2401 51.257C73.1781 51.4829 73.1174 51.7103 73.0623 51.9404C72.6765 52.0011 72.2672 52.0548 71.8359 52.0962C71.2103 52.1568 70.5916 52.1871 69.9839 52.1871C69.0414 52.1871 68.1222 52.1154 67.2376 51.9708C67.199 51.9652 67.1618 51.957 67.1246 51.9515L67.0791 51.2845C68.8209 51.5987 70.4565 51.5808 71.756 51.4568H71.7532Z" fill="#9489B2"/>
<path d="M69.8888 50.5142C68.9862 50.5142 68.0093 50.4316 67.0019 50.2166L66.9565 49.5455C68.8774 49.9865 70.6963 49.9107 72.0867 49.7054C72.733 49.6103 73.3269 49.4821 73.8505 49.3457C73.7637 49.5841 73.6797 49.8266 73.5984 50.0733C73.1684 50.1739 72.7013 50.2662 72.2025 50.3406C71.519 50.4426 70.7363 50.5142 69.8888 50.5142Z" fill="#9489B2"/>
<path d="M71.7532 55.1277C72.2824 55.0767 72.7798 55.0078 73.2401 54.9279C73.1781 55.1539 73.1174 55.3813 73.0623 55.6114C72.6765 55.672 72.2672 55.7258 71.8359 55.7671C71.2103 55.8277 70.5916 55.8581 69.9839 55.8581C69.0414 55.8581 68.1222 55.7864 67.2376 55.6417C67.199 55.6362 67.1618 55.6279 67.1246 55.6224L67.0791 54.9555C68.8209 55.2697 70.4565 55.2517 71.756 55.1277H71.7532Z" fill="#9489B2"/>
<path d="M69.8888 54.1852C68.9862 54.1852 68.0093 54.1025 67.0019 53.8876L66.9565 53.2165C68.8774 53.6574 70.6963 53.5816 72.0867 53.3763C72.733 53.2812 73.3269 53.1531 73.8505 53.0167C73.7637 53.2551 73.6797 53.4976 73.5984 53.7442C73.1684 53.8448 72.7013 53.9372 72.2025 54.0116C71.519 54.1135 70.7363 54.1852 69.8888 54.1852Z" fill="#9489B2"/>
<path d="M71.7532 58.5506C72.2824 58.4997 72.7798 58.4308 73.2401 58.3508C73.1781 58.5768 73.1174 58.8042 73.0623 59.0343C72.6765 59.0949 72.2672 59.1487 71.8359 59.19C71.2103 59.2507 70.5916 59.281 69.9839 59.281C69.0414 59.281 68.1222 59.2093 67.2376 59.0646C67.199 59.0591 67.1618 59.0508 67.1246 59.0453L67.0791 58.3784C68.8209 58.6926 70.4565 58.6747 71.756 58.5506H71.7532Z" fill="#9489B2"/>
<path d="M71.7532 60.783C72.2824 60.732 72.7798 60.6631 73.2401 60.5832C73.1781 60.8092 73.1174 61.0365 73.0623 61.2667C72.6765 61.3273 72.2672 61.381 71.8359 61.4224C71.2103 61.483 70.5916 61.5133 69.9839 61.5133C69.0414 61.5133 68.1222 61.4417 67.2376 61.297C67.199 61.2915 67.1618 61.2832 67.1246 61.2777L67.0791 60.6108C68.8209 60.9249 70.4565 60.907 71.756 60.783H71.7532Z" fill="#9489B2"/>
<path d="M69.8888 57.6081C68.9862 57.6081 68.0093 57.5254 67.0019 57.3105L66.9565 56.6394C68.8774 57.0803 70.6963 57.0046 72.0867 56.7992C72.733 56.7042 73.3269 56.576 73.8505 56.4396C73.7637 56.678 73.6797 56.9205 73.5984 57.1672C73.1684 57.2677 72.7013 57.3601 72.2025 57.4345C71.519 57.5365 70.7363 57.6081 69.8888 57.6081Z" fill="#9489B2"/>
<path d="M66.8297 33.4906C68.9215 34.0059 70.9912 33.9232 72.569 33.7C73.3104 33.5953 73.9952 33.4547 74.596 33.3059C74.4899 33.5443 74.3852 33.791 74.2818 34.0418C73.7816 34.1534 73.2373 34.2567 72.6586 34.3394C71.7904 34.462 70.9416 34.524 70.1203 34.524C69.4851 34.524 68.8663 34.4868 68.2669 34.4138C67.7915 34.3559 67.3271 34.2733 66.8752 34.1685L66.8297 33.4906Z" fill="#9489B2"/>
<path d="M66.7167 31.8287C68.9504 32.3565 71.1607 32.2352 72.8336 31.9734C73.8657 31.8122 74.7862 31.5876 75.5344 31.3685C75.4049 31.6151 75.2726 31.8756 75.139 32.147C74.5326 32.3069 73.8312 32.4653 73.0651 32.5907C72.0164 32.7616 70.994 32.847 70.0073 32.847C69.4727 32.847 68.9477 32.8222 68.435 32.7713C67.8618 32.7148 67.3037 32.6266 66.7635 32.5053L66.7181 31.8287H66.7167Z" fill="#9489B2"/>
<path d="M66.6367 30.6478L66.5899 29.9684C70.6246 31.148 74.7228 30.1131 76.6106 29.4806C76.4632 29.7176 76.2964 29.996 76.1145 30.3115C75.3883 30.5251 74.4182 30.7663 73.309 30.9344C72.4987 31.057 71.563 31.1452 70.5544 31.1452C69.3238 31.1452 67.9858 31.0129 66.6367 30.6478Z" fill="#9489B2"/>
<path d="M74.0641 24.1505L74.5064 26.9341L75.8899 28.0544C75.8899 28.0544 73.9676 30.9358 71.3522 31.5917C70.4661 31.8135 69.0716 31.5724 68.6155 30.7814C68.1773 30.0208 68.0367 28.9446 67.9527 27.6672C67.91 27.0209 74.0641 24.1505 74.0641 24.1505Z" fill="white"/>
<path d="M70.6687 31.9169C69.7703 31.9169 68.7892 31.5751 68.4019 30.904C67.95 30.1186 67.797 29.0493 67.7074 27.6837C67.6923 27.4591 67.6702 27.1201 70.8782 25.4486C72.3981 24.6562 73.9442 23.9342 73.9594 23.9273C74.0296 23.8942 74.1109 23.897 74.1785 23.9328C74.2474 23.9686 74.2942 24.0348 74.3066 24.1119L74.7338 26.8018L76.0443 27.8628C76.1435 27.9427 76.1641 28.0847 76.0939 28.1908C76.0126 28.312 74.0875 31.159 71.4115 31.83C71.1813 31.8879 70.9278 31.9169 70.6674 31.9169H70.6687ZM68.2008 27.6823C68.2862 28.9638 68.4267 29.9615 68.8291 30.6588C69.2012 31.305 70.4593 31.5627 71.293 31.3533C72.5855 31.0294 73.7072 30.1172 74.421 29.4103C74.9667 28.8688 75.3635 28.3617 75.5551 28.0998L74.3507 27.1242C74.3039 27.0856 74.2722 27.0319 74.2625 26.9713L73.8726 24.5116C70.5378 26.0825 68.3992 27.3378 68.2008 27.6823Z" fill="#2E2964"/>
<path d="M66.3101 18.3327C66.7401 15.9419 69.7027 16.2533 70.1354 16.307C74.1178 16.8045 74.3052 20.1489 74.279 21.0886L74.4526 21.1093C74.4526 21.1093 74.4334 21.2692 74.3989 21.5282C74.9143 21.6536 75.843 22.0601 75.5399 23.3458C75.3098 24.32 74.5808 24.4082 73.98 24.2952C73.9001 24.7265 73.8174 25.0945 73.7416 25.3108C73.4343 26.1858 73.2262 26.5717 72.0329 27.3502C70.8396 28.1274 68.3551 28.4058 67.2472 26.9768C66.2219 25.6539 66.1393 23.27 66.1324 22.9241C66.0331 21.5999 66.0276 19.905 66.3115 18.3313L66.3101 18.3327Z" fill="white"/>
<path d="M69.6752 28.2335C68.6693 28.2335 67.6647 27.9207 67.0515 27.1297C65.9974 25.7697 65.8954 23.4161 65.8857 22.9393C65.7975 21.7666 65.759 20.0111 66.0676 18.2913C66.2647 17.1972 66.9881 16.4627 68.1608 16.1665C69.0027 15.9543 69.8419 16.0245 70.1644 16.0645C71.9475 16.2864 73.2125 17.0787 73.9263 18.4181C74.4155 19.3372 74.5188 20.2867 74.5243 20.8778C74.6346 20.9123 74.709 21.0225 74.6938 21.1424C74.6938 21.1424 74.6842 21.2196 74.6677 21.3546C75.5964 21.6646 76.0098 22.4184 75.7769 23.4078C75.5799 24.2456 75.0135 24.6535 74.1743 24.5763C74.0999 24.9498 74.0324 25.2198 73.9704 25.3976C73.6452 26.325 73.4054 26.7522 72.1639 27.561C71.541 27.9676 70.6067 28.2363 69.6738 28.2363L69.6752 28.2335ZM69.4341 16.5123C68.4543 16.5123 66.8434 16.7645 66.5527 18.3768C66.2357 20.1378 66.3074 21.9719 66.3777 22.9076C66.3777 22.9117 66.3777 22.9172 66.3777 22.9214C66.3832 23.1873 66.4562 25.5575 67.4401 26.828C68.4378 28.115 70.7831 27.8711 71.8965 27.1463C73.0678 26.3829 73.2277 26.0287 73.5074 25.2323C73.5722 25.0462 73.6493 24.7169 73.7361 24.2525C73.7485 24.1877 73.7857 24.1312 73.8395 24.094C73.8932 24.0568 73.9594 24.043 74.0241 24.0555C74.7297 24.1891 75.1472 23.9383 75.3002 23.292C75.5372 22.2847 74.9088 21.9085 74.3411 21.7694C74.2198 21.7391 74.1385 21.6233 74.155 21.4993C74.1633 21.4304 74.1716 21.3684 74.1785 21.3146C74.0889 21.2747 74.0296 21.1851 74.0324 21.0831C74.06 20.1392 73.8574 17.0208 70.1051 16.5523C69.9811 16.5372 69.7372 16.5123 69.4341 16.5123Z" fill="#2E2964"/>
<path d="M67.7529 24.3986C67.6909 24.3986 67.6289 24.3752 67.5834 24.3311C67.5242 24.2746 67.498 24.1946 67.5104 24.1147L67.8783 21.808C67.9004 21.6743 68.0271 21.582 68.1594 21.604C68.2931 21.6247 68.3854 21.7515 68.3634 21.8851L68.0519 23.8391L68.5287 23.7385C68.661 23.711 68.7919 23.7964 68.8195 23.9287C68.847 24.061 68.7616 24.1919 68.6293 24.2194L67.8025 24.3931C67.786 24.3972 67.7695 24.3986 67.7515 24.3986H67.7529Z" fill="#2E2964"/>
<path d="M67.3423 21.9477C67.3512 21.7447 67.2518 21.5755 67.1203 21.5697C66.9887 21.564 66.8749 21.7239 66.866 21.9269C66.8571 22.1299 66.9565 22.2991 67.088 22.3049C67.2196 22.3106 67.3334 22.1507 67.3423 21.9477Z" fill="#2E2964"/>
<path d="M69.6697 21.9357C69.6786 21.7327 69.5792 21.5634 69.4477 21.5577C69.3161 21.5519 69.2023 21.7118 69.1934 21.9148C69.1845 22.1178 69.2839 22.287 69.4155 22.2928C69.547 22.2986 69.6608 22.1387 69.6697 21.9357Z" fill="#2E2964"/>
<path d="M70.9567 20.8379C70.8892 20.8379 70.8217 20.8103 70.7721 20.7552C70.7569 20.7386 70.4469 20.4079 69.9494 20.5402C69.8171 20.5747 69.6835 20.4961 69.649 20.3652C69.6146 20.2343 69.6931 20.0993 69.824 20.0648C70.626 19.8526 71.1207 20.4066 71.1414 20.43C71.231 20.5319 71.2199 20.6877 71.118 20.7772C71.0711 20.8186 71.0132 20.8379 70.9567 20.8379Z" fill="#2E2964"/>
<path d="M67.0226 20.6518C66.995 20.6518 66.9675 20.6477 66.9399 20.638C66.8117 20.5926 66.7442 20.452 66.7897 20.3239C67.0005 19.7286 67.6303 19.7465 67.9334 19.8388C68.063 19.8788 68.136 20.0166 68.096 20.1461C68.0561 20.2756 67.9196 20.3487 67.7901 20.3101C67.7446 20.2963 67.3588 20.1929 67.2541 20.4878C67.2183 20.5884 67.1232 20.6518 67.0226 20.6518Z" fill="#2E2964"/>
<path d="M68.5783 25.0655C69.3004 25.8551 69.7014 25.1496 70.0445 24.6342C70.1313 24.5033 70.0128 24.3338 69.8599 24.3738C69.2136 24.5432 68.3358 24.7995 68.5783 25.0669V25.0655Z" fill="#2E2964"/>
<path d="M65.5178 17.5417C65.7479 17.047 66.0304 16.9064 66.2798 16.9078C66.2895 16.8183 66.3047 16.7287 66.3239 16.6391C66.4976 15.8523 66.9964 15.1798 67.6826 14.7692C67.6826 14.7692 68.5232 13.8694 71.1772 14.0609C73.8312 14.2511 73.9001 15.7724 73.9001 15.7724C75.1059 16.5868 75.9781 17.6065 76.0429 18.4787C76.2248 20.9219 75.1968 21.5158 74.7724 21.6564C74.7269 21.6357 74.6814 21.6192 74.636 21.6026C74.6222 21.6426 74.6084 21.6757 74.5946 21.6991C72.9218 21.5861 72.8336 19.2297 72.3044 18.0984C72.2479 17.9771 72.1005 17.9317 71.9847 17.9978C71.242 18.4181 70.2305 18.5559 69.0331 18.3892C67.7378 18.21 67.159 17.6065 66.8999 17.1297C66.8917 17.1379 66.8834 17.1476 66.8751 17.1559C66.8627 17.1683 66.8517 17.182 66.8393 17.1958C66.8338 17.2013 66.8283 17.2082 66.8228 17.2137C66.8131 17.2248 66.8035 17.2372 66.7938 17.2496C66.7869 17.2578 66.7801 17.2661 66.7732 17.2744C66.7649 17.2854 66.7553 17.2964 66.747 17.3074C66.7401 17.3171 66.7318 17.3267 66.7249 17.3378C66.7167 17.3488 66.7098 17.3584 66.7029 17.3694C66.6946 17.3805 66.6864 17.3929 66.6795 17.4039C66.6726 17.4135 66.6657 17.4232 66.6602 17.4342C66.6519 17.4466 66.6436 17.4604 66.6354 17.4742C66.6299 17.4838 66.6243 17.4935 66.6188 17.5017C66.6106 17.5169 66.6009 17.5307 66.5927 17.5458C66.5885 17.5541 66.583 17.5624 66.5789 17.572C66.5692 17.5885 66.561 17.6051 66.5513 17.623C66.5472 17.6299 66.543 17.6382 66.5403 17.6464C66.5306 17.6657 66.521 17.6836 66.5127 17.7029C66.4259 17.8889 66.357 18.0998 66.3143 18.3368C66.1737 19.1154 66.1048 19.9229 66.0828 20.7C66.0511 20.7042 66.0194 20.6945 65.9877 20.6684C65.4586 20.2453 64.9749 18.7199 65.522 17.5445L65.5178 17.5417Z" fill="#2E2964"/>
<path d="M70.6439 23.3637C69.7152 23.3541 69.0482 23.0881 68.6541 22.5769C68.0864 21.8397 68.3193 20.8792 68.3289 20.8392C68.3551 20.7331 68.4488 20.6574 68.5577 20.6532L72.303 20.5072C72.3719 20.5044 72.4381 20.5306 72.4877 20.5788C72.5359 20.627 72.5621 20.6946 72.5593 20.7635C72.5318 21.3987 72.4463 23.3334 70.6453 23.3637H70.6439ZM68.7781 21.1369C68.7506 21.3973 68.7478 21.8934 69.0468 22.2792C69.3459 22.6637 69.8833 22.8635 70.6439 22.8718C71.5176 22.8566 71.9475 22.2958 72.0509 21.0087L68.7781 21.1355V21.1369Z" fill="#ED762F"/>
<path d="M74.1964 21.7087C74.1675 21.7087 74.1385 21.7032 74.1096 21.6922L72.2259 20.9825C72.0991 20.9343 72.0343 20.7924 72.0826 20.6656C72.1308 20.5388 72.2727 20.4741 72.3995 20.5223L74.2832 21.232C74.41 21.2802 74.4748 21.4221 74.4265 21.5489C74.3893 21.6481 74.2956 21.7087 74.1964 21.7087Z" fill="#ED762F"/>
<path d="M68.5287 22.0312C68.5287 22.0312 68.526 22.0312 68.5246 22.0312L68.001 22.0229C67.8645 22.0201 67.7571 21.9085 67.7584 21.7735C67.7612 21.6371 67.8742 21.5296 68.0079 21.531L68.5315 21.5392C68.6679 21.542 68.7754 21.6536 68.774 21.7886C68.7713 21.9237 68.6624 22.0312 68.5287 22.0312Z" fill="#ED762F"/>
<path d="M66.3239 23.1736C66.3033 23.1736 66.284 23.1736 66.2633 23.1736C64.7089 23.1295 64.6483 22.3633 64.578 21.4759C64.5615 21.2761 64.5463 21.0694 64.5133 20.8475C64.5022 20.7759 64.5243 20.7014 64.5725 20.6477C64.6208 20.5926 64.691 20.5623 64.7641 20.565L68.1015 20.6766C68.1691 20.6794 68.2325 20.7083 68.2779 20.7593C68.322 20.8103 68.3441 20.8764 68.3386 20.944C68.2697 21.7225 67.7584 23.1749 66.3253 23.1749L66.3239 23.1736ZM65.0355 21.0652C65.0493 21.1961 65.059 21.3202 65.0686 21.4345C65.1361 22.293 65.1651 22.6485 66.2771 22.6802C66.8558 22.6968 67.2899 22.4115 67.5765 21.8314C67.6992 21.5847 67.7681 21.3353 67.8053 21.1576L65.0355 21.0652Z" fill="#ED762F"/>
<path d="M55.8995 44.8162L54.7489 46.9121L47.6054 48.1027L47.9099 52.6997L59.6903 52.289L63.6355 43.2715L55.8995 44.8162Z" fill="#293173"/>
<path d="M59.7565 43.656V62.9808H67.4429L67.5256 43.7014L67.1011 37.7347L59.7565 43.656Z" fill="#293173"/>
<path d="M66.5196 58.7394C66.386 58.7394 66.2771 58.6333 66.2744 58.4996L65.905 42.9986C65.8293 42.0148 64.2776 37.5969 63.466 35.3935C63.4426 35.3288 63.4467 35.2571 63.4784 35.1965C63.5101 35.1358 63.5652 35.0904 63.6327 35.0725L65.0783 34.6756L63.3544 34.0514C63.2703 34.0211 63.2097 33.948 63.1959 33.8612L62.6999 30.904C62.6778 30.7704 62.7674 30.6436 62.9024 30.6202C63.0361 30.5981 63.1629 30.6877 63.1863 30.8227L63.6589 33.638L65.9767 34.4772C66.0773 34.5144 66.1434 34.6108 66.1393 34.7183C66.1352 34.8258 66.0621 34.9181 65.9588 34.9457L64.0241 35.4762C64.4678 36.693 66.3157 41.8163 66.3997 42.9697C66.3997 42.9738 66.3997 42.978 66.3997 42.9821L66.769 58.49C66.7718 58.6264 66.6643 58.738 66.5293 58.7422C66.5279 58.7422 66.5251 58.7422 66.5238 58.7422L66.5196 58.7394Z" fill="white"/>
<path d="M72.5635 43.7014L72.8046 62.9795H83.3063V43.7014L73.2042 37.0388C73.2042 37.0388 72.857 38.3782 72.609 40.2137C72.3609 42.0492 72.5635 43.7014 72.5635 43.7014Z" fill="#293173"/>
<path d="M74.1964 59.8583C74.1964 59.8583 74.1923 59.8583 74.1909 59.8583C74.0545 59.8556 73.947 59.7426 73.9511 59.6062L74.3521 42.0768C74.3521 42.0589 74.3549 42.041 74.359 42.0244L74.8427 40.0443C74.8468 40.0263 74.8537 40.0084 74.862 39.9919C75.737 38.2556 77.4471 35.5589 77.9597 34.7597L76.1738 33.8557C76.0787 33.8075 76.025 33.7028 76.0415 33.5967C76.0581 33.4906 76.1421 33.4079 76.2482 33.3927L78.6873 33.0331L79.9316 29.7989C79.9798 29.6722 80.1231 29.6088 80.2499 29.657C80.3767 29.7052 80.4401 29.8485 80.3918 29.9753L79.0965 33.3431C79.0648 33.4258 78.9904 33.485 78.9022 33.4988L77.0888 33.7661L78.4268 34.4427C78.4888 34.4744 78.5357 34.5309 78.5536 34.5985C78.5715 34.666 78.5605 34.7376 78.5219 34.7969C78.4998 34.83 76.3392 38.1619 75.3153 40.1876L74.844 42.1154L74.4444 59.6186C74.4417 59.7522 74.3314 59.8583 74.1991 59.8583H74.1964Z" fill="white"/>
<path d="M84.213 45.0932L82.5305 47.0114L75.0135 48.7146V52.6473L81.6803 52.628C84.5368 52.6198 87.1426 50.9924 88.4035 48.4293L89.3997 46.4037L84.2116 45.0932H84.213Z" fill="#293173"/>
<path d="M75.963 48.5629C75.8445 48.5629 75.7397 48.4775 75.7205 48.3562C75.6984 48.2226 75.7894 48.0958 75.923 48.0737L81.5287 47.1532C81.7395 46.992 82.6407 46.2824 83.4923 45.3123C84.3894 44.2884 83.9967 42.9587 83.9925 42.9449C83.9526 42.8153 84.0256 42.6775 84.1551 42.6376C84.2847 42.5976 84.4224 42.6707 84.4624 42.8002C84.4817 42.8649 84.9378 44.4083 83.8616 45.6361C82.8571 46.7826 81.8167 47.5515 81.7726 47.5846C81.7409 47.608 81.7051 47.6231 81.6665 47.6287L76.0002 48.5588C75.9864 48.5616 75.974 48.5615 75.9602 48.5615L75.963 48.5629Z" fill="white"/>
<path d="M71.5658 50.5734C70.2898 50.5858 70.3835 49.9671 70.8134 49.8307C71.3509 49.6598 73.6301 49.5055 73.6301 49.5055C73.6301 49.5055 72.0853 48.957 72.0729 47.9456C72.0605 46.9355 72.4918 47.043 72.8997 47.6659C73.3076 48.2887 75.2781 48.5781 75.2781 48.5781L76.0388 48.2887C76.0388 48.2887 78.1457 48.432 77.8012 50.6892C77.7006 52.0217 76.6024 52.5233 76.6024 52.5233C76.2799 52.6859 75.0769 53.4369 72.2838 52.9794C72.2838 52.9794 71.0312 52.6266 72.1708 52.4103C72.4656 52.3538 72.7605 52.3276 73.0361 52.3193" fill="white"/>
<path d="M73.9525 53.3707C73.4592 53.3707 72.8928 53.328 72.2424 53.2219C72.2328 53.2205 72.2245 53.2178 72.2148 53.2164C71.6926 53.069 71.4335 52.8705 71.4445 52.6239C71.4583 52.2945 71.9075 52.2091 72.1225 52.1678C72.4036 52.114 72.7068 52.0823 73.0265 52.0727C73.1615 52.0672 73.2759 52.176 73.28 52.3111C73.2842 52.4475 73.1767 52.5605 73.0416 52.5646C72.7481 52.5729 72.4711 52.6018 72.2148 52.6514C72.1845 52.6569 72.157 52.6625 72.1322 52.668C72.1969 52.6942 72.2672 52.719 72.3361 52.7382C74.8771 53.1516 76.0388 52.5398 76.4218 52.3386C76.448 52.3249 76.4701 52.3124 76.4907 52.3028C76.4935 52.3014 76.4962 52.3 76.499 52.2987C76.5376 52.2808 77.4677 51.8343 77.5545 50.6699C77.5545 50.663 77.5545 50.6575 77.5573 50.6506C77.6524 50.0277 77.5545 49.5275 77.2652 49.1637C76.8793 48.6787 76.2496 48.5616 76.0704 48.5381L75.3649 48.8068C75.3263 48.822 75.2836 48.8261 75.2423 48.8206C75.0301 48.7889 73.1491 48.4954 72.6944 47.7995C72.5483 47.5763 72.4353 47.4812 72.3802 47.4495C72.3568 47.5019 72.3154 47.6356 72.3196 47.9415C72.3292 48.7572 73.6989 49.2671 73.7127 49.2726C73.8229 49.3112 73.8905 49.4228 73.8739 49.5386C73.8574 49.6543 73.7637 49.7425 73.6466 49.7508C73.021 49.7935 71.3054 49.9313 70.8878 50.065C70.8093 50.0898 70.7721 50.1366 70.7707 50.1518C70.7817 50.1862 70.9581 50.3323 71.5631 50.3268C71.6967 50.324 71.8097 50.4343 71.8111 50.5707C71.8111 50.7071 71.7036 50.8173 71.5672 50.8187C71.5534 50.8187 71.541 50.8187 71.5286 50.8187C70.5296 50.8187 70.3201 50.4494 70.2843 50.2262C70.2416 49.9575 70.4317 49.6915 70.7376 49.5937C71.0821 49.4834 72.0274 49.3856 72.7454 49.325C72.3003 49.0273 71.8331 48.5685 71.8262 47.947C71.8235 47.7348 71.8166 47.0885 72.2286 46.9617C72.4202 46.9038 72.7288 46.9548 73.105 47.5295C73.3503 47.9043 74.5243 48.2102 75.2505 48.3232L75.9506 48.0572C75.9836 48.0448 76.0195 48.0393 76.0553 48.0421C76.0966 48.0448 77.0571 48.1179 77.6469 48.8537C78.0258 49.3264 78.1609 49.9533 78.0465 50.7167C77.9349 52.1361 76.8104 52.6969 76.7098 52.7438C76.6933 52.752 76.674 52.7617 76.652 52.7741C76.3336 52.9422 75.5193 53.3707 73.9539 53.3707H73.9525Z" fill="#2E2765"/>
<path d="M73.5432 50.5941C73.0912 50.6093 71.315 50.4136 70.7556 50.6892C70.1961 50.9648 70.5544 51.4361 72.157 51.4057" fill="white"/>
<path d="M72.0178 51.6538C71.3619 51.6538 70.3987 51.5656 70.2746 51.0585C70.2485 50.9496 70.2305 50.674 70.6467 50.4687C71.0808 50.2537 71.9971 50.2799 72.9769 50.3295C73.218 50.3419 73.4275 50.3516 73.535 50.3488C73.6686 50.3447 73.7844 50.4508 73.7885 50.5858C73.7926 50.7223 73.6865 50.8353 73.5515 50.8394C73.4233 50.8435 73.2153 50.8339 72.9521 50.8201C72.3471 50.7898 71.2199 50.7333 70.8644 50.9097C70.8272 50.9276 70.801 50.9455 70.7817 50.9593C70.8975 51.0392 71.2792 51.1756 72.1514 51.1605C72.1528 51.1605 72.1542 51.1605 72.1556 51.1605C72.2893 51.1605 72.3995 51.2679 72.4009 51.4016C72.4036 51.538 72.2961 51.6496 72.1597 51.6524C72.1142 51.6524 72.066 51.6538 72.015 51.6538H72.0178Z" fill="#2E2765"/>
<path d="M73.845 51.5187C73.7802 51.5546 70.8864 51.1867 70.9002 51.6276C70.9112 51.9886 71.242 52.2367 72.8928 52.3207H74.2474" fill="white"/>
<path d="M74.246 52.566H72.8914C72.8914 52.566 72.8832 52.566 72.879 52.566C71.4845 52.4957 70.6742 52.3207 70.6536 51.6345C70.6508 51.5353 70.6908 51.4416 70.7652 51.3699C71.0091 51.137 71.6802 51.1067 73.4261 51.2473C73.5887 51.2597 73.7554 51.2734 73.8092 51.2748C73.907 51.2597 74.0076 51.3065 74.06 51.3975C74.1261 51.516 74.0848 51.6662 73.9649 51.7323C73.885 51.7778 73.8657 51.7764 73.3861 51.7378C72.1694 51.64 71.4239 51.6276 71.1662 51.7034C71.2365 51.8233 71.5424 52.0051 72.8969 52.074H74.2446C74.381 52.074 74.4913 52.1843 74.4913 52.3207C74.4913 52.4571 74.381 52.5674 74.2446 52.5674L74.246 52.566Z" fill="#2E2765"/>
</svg>
