<svg width="135" height="54" viewBox="0 0 135 54" fill="none" xmlns="http://www.w3.org/2000/svg">
<path d="M63.1807 37.707H105.301V47.3544H63.1807V37.707Z" fill="#3A55D1"/>
<path d="M69.5496 41.1117C69.5496 41.8683 69.0451 42.688 67.784 42.688H67.4057V44.5166H66.7752V39.4092H67.8471C68.856 39.4092 69.5496 40.0397 69.5496 41.0486V41.1117ZM68.856 41.1117C68.856 40.4811 68.4776 40.1028 67.784 40.1028H67.4057V42.1205H67.784C68.5407 42.1205 68.856 41.6791 68.856 41.1117Z" fill="black"/>
<path d="M69.5496 41.1117C69.5496 41.8683 69.0451 42.688 67.784 42.688H67.4057V44.5166H66.7752V39.4092H67.8471C68.856 39.4092 69.5496 40.0397 69.5496 41.0486V41.1117ZM68.856 41.1117C68.856 40.4811 68.4776 40.1028 67.784 40.1028H67.4057V42.1205H67.784C68.5407 42.1205 68.856 41.6791 68.856 41.1117Z" fill="white"/>
<path d="M72.8915 40.4807H72.2609L71.7565 39.8501L71.3151 40.4807H70.6846L71.5043 39.3457H72.0718L72.8915 40.4807ZM71.6934 40.859C72.1979 40.859 72.5762 40.9851 72.8915 41.3004C73.2067 41.6787 73.3959 42.1201 73.3959 42.6876C73.3959 43.3181 73.2067 43.7595 72.8915 44.1379C72.5762 44.3901 72.1979 44.5792 71.6304 44.5792C71.189 44.5792 70.8107 44.4531 70.4954 44.1379C70.1801 43.8226 69.991 43.3181 69.991 42.6876C69.991 42.1201 70.1801 41.6787 70.4954 41.3004C70.8107 40.9851 71.189 40.859 71.6934 40.859ZM71.6934 41.3635C71.0629 41.3635 70.6846 41.9309 70.6846 42.6876C70.6846 43.5073 71.0629 44.0117 71.6934 44.0117C72.324 44.0117 72.7023 43.5073 72.7023 42.7507C72.7654 41.9309 72.324 41.3004 71.6934 41.3004V41.3635Z" fill="black"/>
<path d="M72.8915 40.4807H72.2609L71.7565 39.8501L71.3151 40.4807H70.6846L71.5043 39.3457H72.0718L72.8915 40.4807ZM71.6934 40.859C72.1979 40.859 72.5762 40.9851 72.8915 41.3004C73.2067 41.6787 73.3959 42.1201 73.3959 42.6876C73.3959 43.3181 73.2067 43.7595 72.8915 44.1379C72.5762 44.3901 72.1979 44.5792 71.6304 44.5792C71.189 44.5792 70.8107 44.4531 70.4954 44.1379C70.1801 43.8226 69.991 43.3181 69.991 42.6876C69.991 42.1201 70.1801 41.6787 70.4954 41.3004C70.8107 40.9851 71.189 40.859 71.6934 40.859ZM71.6934 41.3635C71.0629 41.3635 70.6846 41.9309 70.6846 42.6876C70.6846 43.5073 71.0629 44.0117 71.6934 44.0117C72.324 44.0117 72.7023 43.5073 72.7023 42.7507C72.7654 41.9309 72.324 41.3004 71.6934 41.3004V41.3635Z" fill="white"/>
<path d="M75.4763 44.4538L74.9719 44.5799C74.4674 44.5799 74.3413 44.2647 74.3413 43.8863V39.1572H74.9719V43.5711C74.9719 43.8863 75.0349 43.9494 75.2241 43.9494H75.4763V44.4538Z" fill="black"/>
<path d="M75.4763 44.4538L74.9719 44.5799C74.4674 44.5799 74.3413 44.2647 74.3413 43.8863V39.1572H74.9719V43.5711C74.9719 43.8863 75.0349 43.9494 75.2241 43.9494H75.4763V44.4538Z" fill="white"/>
<path d="M78.9443 42.8767H76.6113C76.6113 43.5072 77.0527 44.0117 77.7463 44.0117C78.0615 44.0117 78.3768 43.8856 78.629 43.7595L78.8182 44.2009C78.5029 44.4531 78.0615 44.5792 77.6202 44.5792C76.4852 44.5792 75.9177 43.6334 75.9177 42.6875C75.9177 41.6156 76.5482 40.7959 77.431 40.7959C78.3768 40.7959 78.9443 41.5526 78.9443 42.6875V42.8767ZM78.2507 42.3092C78.2507 41.8678 77.9354 41.3634 77.431 41.3634C76.9266 41.3634 76.6113 41.8048 76.6113 42.3092H78.2507Z" fill="black"/>
<path d="M78.9443 42.8767H76.6113C76.6113 43.5072 77.0527 44.0117 77.7463 44.0117C78.0615 44.0117 78.3768 43.8856 78.629 43.7595L78.8182 44.2009C78.5029 44.4531 78.0615 44.5792 77.6202 44.5792C76.4852 44.5792 75.9177 43.6334 75.9177 42.6875C75.9177 41.6156 76.5482 40.7959 77.431 40.7959C78.3768 40.7959 78.9443 41.5526 78.9443 42.6875V42.8767ZM78.2507 42.3092C78.2507 41.8678 77.9354 41.3634 77.431 41.3634C76.9266 41.3634 76.6113 41.8048 76.6113 42.3092H78.2507Z" fill="white"/>
<path d="M84.43 42.8767H82.16C82.16 43.5072 82.5383 44.0117 83.2319 44.0117C83.5472 44.0117 83.8625 43.8856 84.1147 43.7595L84.3038 44.2009C83.9886 44.4531 83.5472 44.5792 83.1058 44.5792C81.9708 44.5792 81.4033 43.6334 81.4033 42.6875C81.4033 41.6156 82.0339 40.7959 82.9166 40.7959C83.8625 40.7959 84.43 41.5526 84.43 42.6875V42.8767ZM83.6733 42.3092C83.6733 41.8678 83.4211 41.3634 82.8536 41.3634C82.3491 41.3634 82.0339 41.8048 82.0339 42.3092H83.6733Z" fill="black"/>
<path d="M84.43 42.8767H82.16C82.16 43.5072 82.5383 44.0117 83.2319 44.0117C83.5472 44.0117 83.8625 43.8856 84.1147 43.7595L84.3038 44.2009C83.9886 44.4531 83.5472 44.5792 83.1058 44.5792C81.9708 44.5792 81.4033 43.6334 81.4033 42.6875C81.4033 41.6156 82.0339 40.7959 82.9166 40.7959C83.8625 40.7959 84.43 41.5526 84.43 42.6875V42.8767ZM83.6733 42.3092C83.6733 41.8678 83.4211 41.3634 82.8536 41.3634C82.3491 41.3634 82.0339 41.8048 82.0339 42.3092H83.6733Z" fill="white"/>
<path d="M90.4831 44.4535H89.8526V42.2466C89.8526 41.8052 89.7265 41.4899 89.222 41.4899C88.8437 41.4899 88.4654 41.7421 88.2132 41.9944V44.4535H87.5826V42.2466C87.5826 41.7421 87.4565 41.4269 86.9521 41.4269C86.5737 41.4269 86.1954 41.6791 85.9432 41.9313V44.4535H85.3126V40.9855H85.8171L85.8801 41.4269C86.3846 41.0485 86.7629 40.9224 87.1412 40.9224C87.5826 40.9224 87.9609 41.1116 88.087 41.4899C88.4654 41.1116 88.9698 40.8594 89.3481 40.8594C89.9787 40.8594 90.4831 41.1746 90.4831 42.0574V44.5796V44.4535Z" fill="black"/>
<path d="M90.4831 44.4535H89.8526V42.2466C89.8526 41.8052 89.7265 41.4899 89.222 41.4899C88.8437 41.4899 88.4654 41.7421 88.2132 41.9944V44.4535H87.5826V42.2466C87.5826 41.7421 87.4565 41.4269 86.9521 41.4269C86.5737 41.4269 86.1954 41.6791 85.9432 41.9313V44.4535H85.3126V40.9855H85.8171L85.8801 41.4269C86.3846 41.0485 86.7629 40.9224 87.1412 40.9224C87.5826 40.9224 87.9609 41.1116 88.087 41.4899C88.4654 41.1116 88.9698 40.8594 89.3481 40.8594C89.9787 40.8594 90.4831 41.1746 90.4831 42.0574V44.5796V44.4535Z" fill="white"/>
<path d="M94.5822 42.6875C94.5822 43.8856 93.6995 44.5792 92.7536 44.5792C92.5014 44.5792 92.3753 44.5792 92.1861 44.4531V46.3447H91.5556V40.9851C91.8078 40.922 92.1861 40.7959 92.8167 40.7959C93.8886 40.7959 94.5822 41.4264 94.5822 42.6245V42.6875ZM93.9517 42.6875C93.9517 41.8048 93.3211 41.4264 92.6906 41.4264L92.1861 41.4895V43.8856L92.7536 44.0117C93.4472 44.0117 93.8886 43.5072 93.8886 42.6875H93.9517Z" fill="black"/>
<path d="M94.5822 42.6875C94.5822 43.8856 93.6995 44.5792 92.7536 44.5792C92.5014 44.5792 92.3753 44.5792 92.1861 44.4531V46.3447H91.5556V40.9851C91.8078 40.922 92.1861 40.7959 92.8167 40.7959C93.8886 40.7959 94.5822 41.4264 94.5822 42.6245V42.6875ZM93.9517 42.6875C93.9517 41.8048 93.3211 41.4264 92.6906 41.4264L92.1861 41.4895V43.8856L92.7536 44.0117C93.4472 44.0117 93.8886 43.5072 93.8886 42.6875H93.9517Z" fill="white"/>
<path d="M96.6629 44.4538L96.0955 44.5799C95.6541 44.5799 95.4649 44.2647 95.4649 43.8863V39.1572H96.0955V43.5711C96.0955 43.8863 96.1585 43.9494 96.3477 43.9494H96.5999L96.6629 44.4538Z" fill="black"/>
<path d="M96.6629 44.4538L96.0955 44.5799C95.6541 44.5799 95.4649 44.2647 95.4649 43.8863V39.1572H96.0955V43.5711C96.0955 43.8863 96.1585 43.9494 96.3477 43.9494H96.5999L96.6629 44.4538Z" fill="white"/>
<path d="M98.8068 40.8594C99.2482 40.8594 99.6896 40.9855 99.9418 41.3008C100.257 41.6791 100.446 42.1205 100.446 42.688C100.446 43.3185 100.257 43.7599 99.9418 44.1382C99.6265 44.3904 99.2482 44.5796 98.7438 44.5796C98.3024 44.5796 97.861 44.4535 97.6088 44.1382C97.2305 43.8229 97.1044 43.3185 97.1044 42.688C97.1044 42.1205 97.2305 41.6791 97.6088 41.3008C97.861 40.9855 98.2393 40.8594 98.7438 40.8594H98.8068ZM98.8068 41.3638C98.1132 41.3638 97.7349 41.9313 97.7349 42.688C97.7349 43.5077 98.1132 44.0121 98.7438 44.0121C99.3743 44.0121 99.7527 43.5077 99.7527 42.751C99.7527 41.9313 99.4374 41.3008 98.8068 41.3008V41.3638Z" fill="black"/>
<path d="M98.8068 40.8594C99.2482 40.8594 99.6896 40.9855 99.9418 41.3008C100.257 41.6791 100.446 42.1205 100.446 42.688C100.446 43.3185 100.257 43.7599 99.9418 44.1382C99.6265 44.3904 99.2482 44.5796 98.7438 44.5796C98.3024 44.5796 97.861 44.4535 97.6088 44.1382C97.2305 43.8229 97.1044 43.3185 97.1044 42.688C97.1044 42.1205 97.2305 41.6791 97.6088 41.3008C97.861 40.9855 98.2393 40.8594 98.7438 40.8594H98.8068ZM98.8068 41.3638C98.1132 41.3638 97.7349 41.9313 97.7349 42.688C97.7349 43.5077 98.1132 44.0121 98.7438 44.0121C99.3743 44.0121 99.7527 43.5077 99.7527 42.751C99.7527 41.9313 99.4374 41.3008 98.8068 41.3008V41.3638Z" fill="white"/>
<path d="M101.644 39.4088C101.897 39.4088 102.086 39.5349 102.086 39.7871C102.086 40.0393 101.897 40.2285 101.644 40.2285C101.527 40.2285 101.415 40.182 101.332 40.0992C101.249 40.0164 101.203 39.9041 101.203 39.7871C101.203 39.67 101.249 39.5578 101.332 39.475C101.415 39.3922 101.527 39.3457 101.644 39.3457V39.4088ZM102.023 44.4531H101.329V40.9851H101.96V44.5792L102.023 44.4531Z" fill="black"/>
<path d="M101.644 39.4088C101.897 39.4088 102.086 39.5349 102.086 39.7871C102.086 40.0393 101.897 40.2285 101.644 40.2285C101.527 40.2285 101.415 40.182 101.332 40.0992C101.249 40.0164 101.203 39.9041 101.203 39.7871C101.203 39.67 101.249 39.5578 101.332 39.475C101.415 39.3922 101.527 39.3457 101.644 39.3457V39.4088ZM102.023 44.4531H101.329V40.9851H101.96V44.5792L102.023 44.4531Z" fill="white"/>
<path d="M53.5965 26.7982C53.5965 30.3174 52.9033 33.8022 51.5566 37.0535C50.2098 40.3048 48.2359 43.259 45.7474 45.7474C43.259 48.2359 40.3048 50.2098 37.0535 51.5566C33.8022 52.9033 30.3174 53.5965 26.7982 53.5965C23.279 53.5965 19.7943 52.9033 16.543 51.5566C13.2917 50.2098 10.3375 48.2359 7.84902 45.7474C5.36057 43.259 3.38663 40.3048 2.03989 37.0535C0.693157 33.8022 -5.24401e-08 30.3174 0 26.7982C1.05907e-07 19.6909 2.82338 12.8747 7.84902 7.84902C12.8747 2.82338 19.6909 0 26.7982 0C33.9056 0 40.7218 2.82338 45.7474 7.84902C50.7731 12.8747 53.5965 19.6909 53.5965 26.7982Z" fill="#23333B"/>
<path d="M62.9914 18.6641V7.81873H64.9461V16.9617H68.7924V18.6641H62.9914ZM74.7826 18.6641L74.4673 17.9705C73.9629 18.4119 73.2693 18.8533 72.1974 18.8533C70.7471 18.8533 69.6752 17.9075 69.6752 16.3311C69.6752 14.7547 70.9363 13.872 72.891 13.8089L74.2782 13.7459V13.5567C74.2782 12.6109 73.6476 12.2326 72.8279 12.2326C71.9451 12.2326 71.3146 12.4848 70.8101 12.8001L70.1796 11.539C71.0682 10.9289 72.1289 10.6195 73.2062 10.6562C75.0979 10.6562 76.2959 11.4128 76.2959 13.4937V16.5833C76.2959 17.7183 76.359 18.2858 76.422 18.6011H74.7826V18.6641ZM74.2782 15.07L73.1432 15.1331C72.0712 15.1961 71.6299 15.5114 71.6299 16.205C71.6299 16.8356 72.0712 17.2769 72.891 17.2769C73.1442 17.2901 73.3975 17.2523 73.6358 17.1656C73.8741 17.0789 74.0925 16.9453 74.2782 16.7725V15.07ZM84.6191 18.7902C83.5472 18.7902 82.7275 18.6011 82.0339 18.2228V6.99902H83.9886V10.9084C84.43 10.7823 84.9344 10.6562 85.5019 10.6562C87.3935 10.6562 89.2221 11.9173 89.2221 14.4395C89.2221 17.2139 87.0782 18.7902 84.6191 18.7902ZM85.1236 12.3587C84.6191 12.3587 84.3038 12.4848 84.0516 12.6109V17.0247C84.3669 17.1508 84.6191 17.1508 84.9974 17.1508C86.3216 17.1508 87.2674 16.0158 87.2674 14.5656C87.2674 13.4306 86.4477 12.3587 85.1236 12.3587ZM96.9778 17.6553C96.6149 18.0205 96.1823 18.3092 95.7057 18.5041C95.2292 18.6991 94.7183 18.7964 94.2034 18.7902C93.1315 18.7902 92.1857 18.475 91.5551 17.8444C91.1562 17.4508 90.8437 16.9784 90.6374 16.4573C90.4311 15.9362 90.3357 15.3778 90.3571 14.8178C90.3571 13.6198 90.7985 12.5478 91.4921 11.7912C91.8581 11.4343 92.2927 11.1554 92.7695 10.9711C93.2464 10.7869 93.7556 10.7012 94.2665 10.7192C95.4645 10.7192 96.4103 11.0976 97.1039 11.8542C97.8034 12.6538 98.1651 13.6937 98.1128 14.7547C98.1128 15.8897 97.6714 16.9617 96.9778 17.6553ZM94.1404 12.2326C92.8793 12.2326 92.3118 13.3045 92.3118 14.7547C92.3118 16.2681 93.0054 17.2769 94.2034 17.2769C95.4645 17.2769 96.032 16.205 96.032 14.7547C96.032 13.2414 95.3384 12.2326 94.1404 12.2326ZM104.607 18.6641V14.1242C104.607 13.3045 104.481 12.4217 103.472 12.4217C102.779 12.4217 102.085 12.8001 101.518 13.2414V18.6641H99.5631V10.9084H101.266L101.455 11.7281C102.219 11.0968 103.175 10.7414 104.166 10.7192C105.364 10.7192 106.625 11.4128 106.625 13.4937V18.6641H104.607ZM113.498 18.6641V14.1242C113.498 13.3045 113.372 12.4217 112.363 12.4217C111.67 12.4217 110.976 12.8001 110.408 13.2414V18.6641H108.454V10.9084H110.156L110.345 11.7281C111.11 11.0968 112.065 10.7414 113.057 10.7192C114.255 10.7192 115.516 11.4128 115.516 13.4937V18.6641H113.498ZM118.921 15.2592C118.984 16.3942 119.93 17.2139 121.128 17.2139C121.884 17.2139 122.452 17.0247 123.146 16.6464L123.65 17.9075C122.767 18.538 121.758 18.7902 120.812 18.7902C118.101 18.7902 116.966 16.8355 116.966 14.7547C116.966 12.5478 118.29 10.7192 120.497 10.7192C122.578 10.7192 123.965 12.2956 123.965 14.6917V15.2592H118.921ZM120.434 12.1695C119.488 12.1695 118.921 13.0523 118.921 13.872H121.947C121.884 13.0523 121.38 12.1695 120.434 12.1695Z" fill="black"/>
<path d="M67.5315 33.1671L67.2162 32.4735C66.7118 32.9148 66.0182 33.3562 64.9463 33.3562C63.496 33.3562 62.4241 32.4104 62.4241 30.834C62.4241 29.2577 63.6852 28.3749 65.6399 28.3119L67.0271 28.2488V28.0596C67.0271 27.1138 66.3965 26.7355 65.5768 26.7355C64.694 26.7355 64.0635 26.9877 63.5591 27.303L62.9285 26.0419C63.8172 25.4318 64.8779 25.1225 65.9551 25.1591C67.8468 25.1591 69.0448 25.9158 69.0448 27.9966V31.0863C69.0448 32.2212 69.1079 32.7887 69.1709 33.104H67.5315V33.1671ZM67.0901 29.573L65.9551 29.636C64.8832 29.6991 64.4418 30.0143 64.4418 30.7079C64.4418 31.3385 64.8832 31.7799 65.7029 31.7799C65.9562 31.7931 66.2094 31.7552 66.4478 31.6685C66.6861 31.5819 66.9045 31.4482 67.0901 31.2754V29.573ZM72.6389 33.2932C71.3148 33.2932 70.8734 32.5365 70.8734 31.5907V21.502H72.8281V30.7079C72.8281 31.2754 72.9542 31.5276 73.3325 31.5276L73.9 31.4646L74.1522 32.9148C73.5848 33.2301 73.0803 33.2932 72.6389 33.2932ZM77.5572 33.2932C76.17 33.2932 75.6656 32.5365 75.6656 31.4646V26.8616H74.2784V25.4113H75.6656V23.6458L77.6203 23.0783V25.4744H80.0163L79.4488 26.9247H77.6203V30.834C77.6203 31.4646 77.8725 31.7168 78.3769 31.7168C78.8813 31.7168 79.3858 31.4646 79.7011 31.2754L80.2055 32.5365C79.3858 33.041 78.3139 33.2932 77.5572 33.2932ZM82.7277 29.7621C82.7907 30.8971 83.7366 31.7168 84.9346 31.7168C85.6912 31.7168 86.2587 31.5276 86.9523 31.1493L87.4568 32.4104C86.574 33.041 85.5651 33.2932 84.6193 33.2932C81.908 33.2932 80.773 31.3385 80.773 29.2577C80.773 27.0508 82.0971 25.2222 84.304 25.2222C86.3848 25.2222 87.7721 26.7985 87.7721 29.1946V29.7621H82.7277ZM84.1779 26.6724C83.2321 26.6724 82.6646 27.5552 82.6646 28.3749H85.6912C85.6282 27.5552 85.1868 26.6724 84.1779 26.6724ZM93.5731 27.2399C93.2854 27.0743 92.9592 26.9873 92.6273 26.9877C92.1859 26.9877 91.6814 27.1769 91.1139 27.6813V33.1671H89.1593V25.4113H90.7987L90.9878 26.2311C91.8076 25.5375 92.375 25.2222 93.1317 25.2222C93.51 25.2222 93.8883 25.3483 94.2036 25.5375L93.5731 27.2399ZM100.32 33.1671V28.6271C100.32 27.8074 100.194 26.9247 99.1849 26.9247C98.4913 26.9247 97.7977 27.303 97.2302 27.7444V33.1671H95.2756V25.4113H96.978L97.1672 26.2311C97.932 25.5997 98.8871 25.2443 99.8785 25.2222C101.077 25.2222 102.338 25.9158 102.338 27.9966V33.1671H100.32ZM108.832 33.1671L108.517 32.4735C108.013 32.9148 107.319 33.3562 106.247 33.3562C104.797 33.3562 103.725 32.4104 103.725 30.834C103.725 29.2577 104.986 28.3749 106.941 28.3119L108.328 28.2488V28.0596C108.328 27.1138 107.697 26.7355 106.878 26.7355C105.995 26.7355 105.364 26.9877 104.86 27.303L104.229 26.0419C105.118 25.4318 106.179 25.1225 107.256 25.1591C109.148 25.1591 110.346 25.9158 110.346 27.9966V31.0863C110.346 32.2212 110.409 32.7887 110.472 33.104H108.832V33.1671ZM108.328 29.573L107.193 29.636C106.121 29.6991 105.68 30.0143 105.68 30.7079C105.68 31.3385 106.121 31.7799 106.941 31.7799C107.194 31.7931 107.447 31.7552 107.686 31.6685C107.924 31.5819 108.142 31.4482 108.328 31.2754V29.573ZM117.282 33.1671V28.6271C117.282 27.8074 117.156 26.9247 116.147 26.9247C115.453 26.9247 114.759 27.303 114.192 27.7444V33.1671H112.237V25.4113H113.94L114.129 26.2311C114.894 25.5997 115.849 25.2443 116.84 25.2222C118.038 25.2222 119.299 25.9158 119.299 27.9966V33.1671H117.282ZM124.47 33.2932C121.948 33.2932 120.624 31.4646 120.624 29.3207C120.624 26.9877 122.326 25.2222 124.659 25.2222C125.731 25.2222 126.425 25.4744 126.866 25.7897L126.803 27.366C126.235 26.9877 125.668 26.7355 124.848 26.7355C123.524 26.7355 122.578 27.8074 122.578 29.2577C122.578 30.5818 123.272 31.7799 124.848 31.7799C125.605 31.7799 126.172 31.5276 126.677 31.2124L127.181 32.5365C126.614 32.9148 125.542 33.2932 124.47 33.2932ZM129.956 29.7621C130.019 30.8971 130.964 31.7168 132.163 31.7168C132.919 31.7168 133.487 31.5276 134.18 31.1493L134.685 32.4104C133.802 33.041 132.793 33.2932 131.847 33.2932C129.136 33.2932 128.001 31.3385 128.001 29.2577C128.001 27.0508 129.325 25.2222 131.532 25.2222C133.613 25.2222 135 26.7985 135 29.1946V29.7621H129.956ZM131.406 26.6724C130.46 26.6724 129.893 27.5552 129.893 28.3749H132.919C132.856 27.5552 132.415 26.6724 131.406 26.6724Z" fill="black"/>
<path d="M41.2376 19.6735C41.2376 9.33253 32.4099 5.67536 26.6089 5.6123H26.5458H26.4828C20.6187 5.67536 11.791 9.33253 11.791 19.6735L11.8541 20.6193C12.6738 30.3928 25.0956 43.1929 25.7261 43.8865L26.4197 44.6431V44.7062L26.4828 44.7692V44.7062L27.1764 43.9495C27.87 43.2559 40.2917 30.4558 41.0484 20.6824C41.1661 20.3587 41.23 20.0179 41.2376 19.6735ZM26.4828 24.9701C25.9783 24.9701 25.4739 24.907 24.9695 24.7179C23.9421 24.3793 23.0448 23.7306 22.4012 22.8612C21.7576 21.9917 21.3992 20.9442 21.3753 19.8627C21.3992 18.7812 21.7576 17.7336 22.4012 16.8642C23.0448 15.9947 23.9421 15.3461 24.9695 15.0074C25.4739 14.8813 25.9783 14.7552 26.4828 14.7552C27.1558 14.7468 27.8238 14.8731 28.4473 15.1268C29.0708 15.3804 29.6372 15.7563 30.1131 16.2323C30.5891 16.7083 30.965 17.2747 31.2187 17.8982C31.4723 18.5216 31.5987 19.1896 31.5902 19.8627C31.5987 20.5357 31.4723 21.2037 31.2187 21.8272C30.965 22.4506 30.5891 23.0171 30.1131 23.493C29.6372 23.969 29.0708 24.3449 28.4473 24.5986C27.8238 24.8522 27.1558 24.9785 26.4828 24.9701Z" fill="white"/>
</svg>
