<svg width="14" height="14" viewBox="0 0 14 14" fill="none" xmlns="http://www.w3.org/2000/svg">
  <path d="M12.6125 0.736572L13.2629 1.38747L6.36751 8.28287L5.71707 7.63243L12.6125 0.736572Z" fill="#2A2A2A"/>
  <path d="M13.4 5.19998H12.48V1.51998H8.79999V0.599976H13.4V5.19998Z" fill="#2A2A2A"/>
  <path d="M11.1 13.48H1.89999C1.11799 13.48 0.519989 12.882 0.519989 12.1V2.90002C0.519989 2.11802 1.11799 1.52002 1.89999 1.52002H6.95999V2.44002H1.89999C1.62399 2.44002 1.43999 2.62402 1.43999 2.90002V12.1C1.43999 12.376 1.62399 12.56 1.89999 12.56H11.1C11.376 12.56 11.56 12.376 11.56 12.1V7.04002H12.48V12.1C12.48 12.882 11.882 13.48 11.1 13.48Z" fill="#2A2A2A"/>
</svg>
