<svg width="12" height="12" viewBox="0 0 12 12" fill="none" xmlns="http://www.w3.org/2000/svg">
<path d="M4 2C4 2.55229 3.55229 3 3 3C2.44771 3 2 2.55229 2 2C2 1.44771 2.44771 1 3 1C3.55229 1 4 1.44771 4 2ZM2.5 8V11H1.5V5C1.5 4.17158 2.17158 3.5 3 3.5C3.4103 3.5 3.78212 3.66473 4.05293 3.93166L5.24015 5.05285L6.39655 3.89645L7.10365 4.60356L5.26005 6.44715L4.5 5.72935V11H3.5V8H2.5ZM5 2.5H9.5V7H5V8H7.1827L8.59445 11H9.69965L8.2879 8H10C10.2761 8 10.5 7.77615 10.5 7.5V2C10.5 1.72386 10.2761 1.5 10 1.5H5V2.5Z" fill="#3558A2"/>
</svg>
