<svg width="57" height="58" viewBox="0 0 57 58" fill="none" xmlns="http://www.w3.org/2000/svg">
<path d="M7.02546 57.2792L42.8805 40.655L17.2607 15.0352L0.636407 50.8743C0.398009 51.4464 -0.507902 53.7509 1.95554 55.9442C4.62559 58.3123 6.45331 57.5176 7.02546 57.2792Z" fill="url(#paint0_linear_5716_28200)"/>
<path d="M13.6688 22.7754L10.9988 28.5764C10.1405 30.6584 25.3662 46.0271 33.9644 44.7874L42.8805 40.6552C32.3115 45.5344 12.3656 25.6044 13.6688 22.7754Z" fill="url(#paint1_linear_5716_28200)"/>
<path d="M8.26512 34.4727L7.64528 35.7918L5.54738 40.3055C5.53149 42.0855 14.7019 51.24 20.4393 51.0492L27.7184 47.6799C19.8354 49.0467 7.35921 36.3957 8.26512 34.4727Z" fill="url(#paint2_linear_5716_28200)"/>
<path d="M0.811157 50.524C1.57403 52.0498 5.30893 55.7688 8.4081 56.6429L16.1004 53.0828L16.1481 53.0511C11.4119 55.2284 3.40175 47.1547 3.25871 45.2793L0.811157 50.524Z" fill="url(#paint3_linear_5716_28200)"/>
<path opacity="0.75" d="M7.02546 57.2792L42.8805 40.655L17.2607 15.0352L0.636407 50.8743C0.398009 51.4464 -0.507902 53.7509 1.95554 55.9442C4.62559 58.3123 6.45331 57.5176 7.02546 57.2792Z" fill="url(#paint4_radial_5716_28200)"/>
<path opacity="0.75" d="M7.02546 57.2792L42.8805 40.655L17.2607 15.0352L0.636407 50.8743C0.398009 51.4464 -0.507902 53.7509 1.95554 55.9442C4.62559 58.3123 6.45331 57.5176 7.02546 57.2792Z" fill="url(#paint5_radial_5716_28200)"/>
<path d="M29.5142 15.1615C29.0851 16.0356 28.2428 16.1628 27.6229 15.9721L28.6401 13.9536C28.6401 13.9536 29.7844 14.2079 29.8162 13.4609L29.8639 14.5099L29.5142 15.1615Z" fill="url(#paint6_linear_5716_28200)"/>
<path d="M32.3591 4.03686C32.3591 4.03686 33.0902 3.70311 33.5511 2.74952C34.012 1.79593 31.7393 0 31.7393 0L30.6744 1.8595C30.6744 1.8595 32.4704 3.03559 31.9141 3.43292C31.342 3.83025 32.3591 4.03686 32.3591 4.03686Z" fill="url(#paint7_linear_5716_28200)"/>
<path d="M50.9541 19.3253C51.2879 16.4009 49.3171 15.4315 48.6019 15.5109C48.6019 15.5109 48.4748 14.5573 49.7462 14.2554C50.5886 14.0647 52.7342 15.9718 52.1779 18.1333L50.9541 19.3253Z" fill="url(#paint8_linear_5716_28200)"/>
<path d="M43.1825 40.4317C41.4025 42.2117 34.2187 37.8888 27.1145 30.8004C20.0261 23.7121 15.7032 16.5125 17.4832 14.7324C19.2633 12.9524 26.447 17.2753 33.5512 24.3637C40.6396 31.4679 44.9466 38.6517 43.1825 40.4317Z" fill="url(#paint9_linear_5716_28200)"/>
<path d="M42.5785 39.2551C41.2276 40.606 34.775 36.3467 28.1793 29.7351C21.5836 23.1236 17.3084 16.6868 18.6593 15.3359C20.0102 13.985 26.4628 18.2444 33.0585 24.8559C39.6542 31.4675 43.9294 37.9042 42.5785 39.2551Z" fill="url(#paint10_linear_5716_28200)"/>
<path d="M33.5352 2.75C33.5352 2.75 32.7088 4.51414 32.5975 4.70486C32.1843 5.40416 31.0241 5.64257 28.9421 5.35649C26.8601 5.07041 26.2562 5.18166 26.1608 5.19756C26.0654 5.22934 24.8417 4.24396 24.8417 4.24396L24.9529 3.24269C24.9529 3.24269 25.239 2.86125 26.1926 2.9884C27.8932 3.24269 32.8995 4.08503 33.5352 2.75Z" fill="url(#paint11_linear_5716_28200)"/>
<path d="M37.6676 32.2621C39.3364 30.3549 40.8939 31.8489 41.8793 30.4821L40.1946 28.7656C39.2092 30.1165 37.7789 28.8451 36.0147 30.7046L37.6676 32.2621Z" fill="url(#paint12_linear_5716_28200)"/>
<path d="M19.5652 9.12225C21.8697 10.4891 19.8195 12.3645 21.1227 13.4293L22.9186 11.8241C21.6154 10.7592 23.4908 8.91564 21.1863 7.54883L19.5652 9.12225Z" fill="url(#paint13_linear_5716_28200)"/>
<path d="M43.9611 16.1954C44.0247 16.1795 44.0565 15.7981 44.9942 15.1305C45.9319 14.463 48.0457 15.4961 48.3159 15.655C48.6019 15.814 48.3636 18.4363 48.3636 18.4363C48.3636 18.4363 45.7253 15.6232 44.4061 16.2749C43.087 16.9106 43.9611 16.1954 43.9611 16.1954Z" fill="url(#paint14_linear_5716_28200)"/>
<path d="M44.3108 22.7277C44.3108 22.7277 44.2154 23.7608 43.7387 24.2376C42.8804 25.0799 41.5136 23.8085 39.7812 24.2694C39.7812 24.2694 40.5759 22.2509 40.6554 22.092C40.6554 22.092 41.3547 21.6629 42.0699 22.0761C42.801 22.4734 43.4367 22.6006 43.8817 22.3622C44.3267 22.1238 44.3108 22.7277 44.3108 22.7277Z" fill="url(#paint15_linear_5716_28200)"/>
<path d="M48.9676 18.1816C48.9676 18.1816 47.2671 18.9604 47.0446 19.0716C46.8221 19.1829 46.3135 15.2255 47.5373 14.8282C48.7769 14.4308 49.6193 14.2878 49.7464 14.2719C49.8735 14.2401 47.6167 14.4785 48.9676 18.1816Z" fill="#FFBF00"/>
<path d="M43.7387 24.222C44.438 23.4909 45.3915 22.4102 45.3439 22.1082C45.1214 20.1693 43.5479 15.894 44.9942 15.1152C44.9942 15.1152 43.6433 16.0688 43.2301 16.3549C42.8168 16.641 42.5149 17.4039 42.5467 18.6594C42.6261 20.8527 44.3744 23.5704 43.7387 24.222Z" fill="#FFBF00"/>
<path d="M38.9072 8.53516C37.747 16.6884 29.6573 24.476 29.6573 24.476L30.754 26.1448C30.754 26.1448 39.5588 16.9744 40.6872 8.78944L38.9072 8.53516Z" fill="url(#paint16_linear_5716_28200)"/>
<path d="M23.9834 5.13321C23.7927 5.48286 24.349 6.0709 25.684 7.692C27.019 9.31311 30.4837 13.6043 29.4984 15.1618L30.5632 12.9685C30.5632 12.9685 30.5791 11.2203 29.5301 9.51972C27.8772 6.84966 24.7145 3.97301 24.9529 3.25781L23.9834 5.13321Z" fill="url(#paint17_linear_5716_28200)"/>
<path d="M31.0718 29.9419C31.4317 29.9419 31.7235 29.6502 31.7235 29.2903C31.7235 28.9304 31.4317 28.6387 31.0718 28.6387C30.712 28.6387 30.4202 28.9304 30.4202 29.2903C30.4202 29.6502 30.712 29.9419 31.0718 29.9419Z" fill="url(#paint18_linear_5716_28200)"/>
<path d="M40.1469 2.85988C40.5068 2.85988 40.7985 2.56814 40.7985 2.20826C40.7985 1.84838 40.5068 1.55664 40.1469 1.55664C39.787 1.55664 39.4953 1.84838 39.4953 2.20826C39.4953 2.56814 39.787 2.85988 40.1469 2.85988Z" fill="url(#paint19_linear_5716_28200)"/>
<path d="M34.0281 12.3169C34.388 12.3169 34.6797 12.0252 34.6797 11.6653C34.6797 11.3054 34.388 11.0137 34.0281 11.0137C33.6682 11.0137 33.3765 11.3054 33.3765 11.6653C33.3765 12.0252 33.6682 12.3169 34.0281 12.3169Z" fill="url(#paint20_linear_5716_28200)"/>
<path d="M37.89 24.2525C38.2499 24.2525 38.5416 23.9607 38.5416 23.6008C38.5416 23.241 38.2499 22.9492 37.89 22.9492C37.5301 22.9492 37.2384 23.241 37.2384 23.6008C37.2384 23.9607 37.5301 24.2525 37.89 24.2525Z" fill="url(#paint21_linear_5716_28200)"/>
<path d="M54.6414 22.6646C55.0012 22.6646 55.293 22.3728 55.293 22.013C55.293 21.6531 55.0012 21.3613 54.6414 21.3613C54.2815 21.3613 53.9897 21.6531 53.9897 22.013C53.9897 22.3728 54.2815 22.6646 54.6414 22.6646Z" fill="url(#paint22_linear_5716_28200)"/>
<path d="M50.4932 36.4107C50.8531 36.4107 51.1449 36.1189 51.1449 35.759C51.1449 35.3992 50.8531 35.1074 50.4932 35.1074C50.1334 35.1074 49.8416 35.3992 49.8416 35.759C49.8416 36.1189 50.1334 36.4107 50.4932 36.4107Z" fill="url(#paint23_linear_5716_28200)"/>
<path d="M47.7756 28.02C48.1355 28.02 48.4272 27.7283 48.4272 27.3684C48.4272 27.0085 48.1355 26.7168 47.7756 26.7168C47.4157 26.7168 47.124 27.0085 47.124 27.3684C47.124 27.7283 47.4157 28.02 47.7756 28.02Z" fill="url(#paint24_linear_5716_28200)"/>
<path d="M51.3515 10.315C51.7113 10.315 52.0031 10.0232 52.0031 9.66333C52.0031 9.30346 51.7113 9.01172 51.3515 9.01172C50.9916 9.01172 50.6998 9.30346 50.6998 9.66333C50.6998 10.0232 50.9916 10.315 51.3515 10.315Z" fill="url(#paint25_linear_5716_28200)"/>
<path d="M44.0408 12.4439C44.4007 12.4439 44.6924 12.1521 44.6924 11.7923C44.6924 11.4324 44.4007 11.1406 44.0408 11.1406C43.6809 11.1406 43.3892 11.4324 43.3892 11.7923C43.3892 12.1521 43.6809 12.4439 44.0408 12.4439Z" fill="url(#paint26_linear_5716_28200)"/>
<path d="M38.4621 38.1905C45.1055 32.7391 56.3578 31.6107 56.3578 31.6107L56.7234 29.0996C56.7234 29.0996 43.4049 30.6889 36.3483 36.8078C37.1112 37.3323 37.8105 37.7932 38.4621 38.1905Z" fill="url(#paint27_linear_5716_28200)"/>
<path d="M21.7903 22.4892C22.2354 23.0931 22.728 23.6971 23.2525 24.3328C24.667 21.2177 24.365 18.7702 24.365 18.7702L22.6327 17.6895C22.8075 19.6125 22.2195 21.4561 21.7903 22.4892Z" fill="url(#paint28_linear_5716_28200)"/>
<defs>
<linearGradient id="paint0_linear_5716_28200" x1="-1.46764" y1="20.042" x2="26.8979" y2="53.6567" gradientUnits="userSpaceOnUse">
<stop offset="0.2544" stop-color="#FBE07A"/>
<stop offset="1" stop-color="#FF40BF"/>
</linearGradient>
<linearGradient id="paint1_linear_5716_28200" x1="13.9481" y1="22.5023" x2="37.4875" y2="46.0418" gradientUnits="userSpaceOnUse">
<stop offset="0.2544" stop-color="#9F00E8"/>
<stop offset="1" stop-color="#7000A3"/>
</linearGradient>
<linearGradient id="paint2_linear_5716_28200" x1="7.42338" y1="35.3174" x2="23.7489" y2="51.6429" gradientUnits="userSpaceOnUse">
<stop offset="0.2544" stop-color="#9F00E8"/>
<stop offset="1" stop-color="#7000A3"/>
</linearGradient>
<linearGradient id="paint3_linear_5716_28200" x1="2.48836" y1="46.0277" x2="12.8201" y2="56.3594" gradientUnits="userSpaceOnUse">
<stop offset="0.2544" stop-color="#9F00E8"/>
<stop offset="1" stop-color="#7000A3"/>
</linearGradient>
<radialGradient id="paint4_radial_5716_28200" cx="0" cy="0" r="1" gradientUnits="userSpaceOnUse" gradientTransform="translate(13.9025 31.2896) rotate(119.598) scale(16.284 4.98532)">
<stop stop-color="white" stop-opacity="0.5"/>
<stop offset="1" stop-color="white" stop-opacity="0"/>
</radialGradient>
<radialGradient id="paint5_radial_5716_28200" cx="0" cy="0" r="1" gradientUnits="userSpaceOnUse" gradientTransform="translate(25.3456 45.8871) rotate(151.7) scale(25.8133 8.05086)">
<stop stop-color="#440063" stop-opacity="0.75"/>
<stop offset="1" stop-color="#420061" stop-opacity="0"/>
</radialGradient>
<linearGradient id="paint6_linear_5716_28200" x1="29.6346" y1="14.5678" x2="33.5357" y2="13.3219" gradientUnits="userSpaceOnUse">
<stop stop-color="#BD2719"/>
<stop offset="1" stop-color="#FF4E0D"/>
</linearGradient>
<linearGradient id="paint7_linear_5716_28200" x1="33.2618" y1="4.88874" x2="31.5152" y2="0.549343" gradientUnits="userSpaceOnUse">
<stop stop-color="#BD2719"/>
<stop offset="1" stop-color="#FF4E0D"/>
</linearGradient>
<linearGradient id="paint8_linear_5716_28200" x1="52.6887" y1="18.1411" x2="46.1827" y2="13.9724" gradientUnits="userSpaceOnUse">
<stop stop-color="#FFCB4B"/>
<stop offset="1" stop-color="#E81CA2"/>
</linearGradient>
<linearGradient id="paint9_linear_5716_28200" x1="36.02" y1="9.63955" x2="21.4839" y2="55.4686" gradientUnits="userSpaceOnUse">
<stop offset="0.2544" stop-color="#FBE07A"/>
<stop offset="1" stop-color="#E81CA2"/>
</linearGradient>
<linearGradient id="paint10_linear_5716_28200" x1="40.7923" y1="20.1592" x2="18.4834" y2="35.8057" gradientUnits="userSpaceOnUse">
<stop stop-color="#FBE07A"/>
<stop offset="1" stop-color="white"/>
</linearGradient>
<linearGradient id="paint11_linear_5716_28200" x1="22.8351" y1="4.25817" x2="30.0401" y2="4.14902" gradientUnits="userSpaceOnUse">
<stop stop-color="#BD2719"/>
<stop offset="1" stop-color="#FF4E0D"/>
</linearGradient>
<linearGradient id="paint12_linear_5716_28200" x1="39.7959" y1="29.1036" x2="38.0633" y2="32.2124" gradientUnits="userSpaceOnUse">
<stop stop-color="#FF9214"/>
<stop offset="1" stop-color="#FF4E0D"/>
</linearGradient>
<linearGradient id="paint13_linear_5716_28200" x1="19.5549" y1="5.20651" x2="22.1749" y2="12.7026" gradientUnits="userSpaceOnUse">
<stop stop-color="#80DAFE"/>
<stop offset="1" stop-color="#008EE6"/>
</linearGradient>
<linearGradient id="paint14_linear_5716_28200" x1="46.329" y1="19.7738" x2="45.7293" y2="12.212" gradientUnits="userSpaceOnUse">
<stop stop-color="#FFCB4B"/>
<stop offset="1" stop-color="#E81CA2"/>
</linearGradient>
<linearGradient id="paint15_linear_5716_28200" x1="39.9784" y1="22.9611" x2="44.1565" y2="23.6379" gradientUnits="userSpaceOnUse">
<stop stop-color="#FFCB4B"/>
<stop offset="1" stop-color="#E81CA2"/>
</linearGradient>
<linearGradient id="paint16_linear_5716_28200" x1="37.1069" y1="8.82854" x2="30.9089" y2="34.3358" gradientUnits="userSpaceOnUse">
<stop offset="0.2544" stop-color="#E100FF"/>
<stop offset="1" stop-color="#7000A3"/>
</linearGradient>
<linearGradient id="paint17_linear_5716_28200" x1="24.9165" y1="4.64815" x2="29.5015" y2="12.2898" gradientUnits="userSpaceOnUse">
<stop stop-color="#FF9214"/>
<stop offset="1" stop-color="#FF4E0D"/>
</linearGradient>
<linearGradient id="paint18_linear_5716_28200" x1="29.8255" y1="25.6227" x2="32.3" y2="32.9005" gradientUnits="userSpaceOnUse">
<stop stop-color="#FFCB4B"/>
<stop offset="1" stop-color="#E81CA2"/>
</linearGradient>
<linearGradient id="paint19_linear_5716_28200" x1="38.1589" y1="-1.05076" x2="42.2345" y2="5.64481" gradientUnits="userSpaceOnUse">
<stop stop-color="#FBE07A"/>
<stop offset="1" stop-color="#E81CA2"/>
</linearGradient>
<linearGradient id="paint20_linear_5716_28200" x1="33.9308" y1="11.3047" x2="34.9497" y2="15.1619" gradientUnits="userSpaceOnUse">
<stop stop-color="#80DAFE"/>
<stop offset="1" stop-color="#008EE6"/>
</linearGradient>
<linearGradient id="paint21_linear_5716_28200" x1="37.4509" y1="22.3634" x2="38.0727" y2="24.1427" gradientUnits="userSpaceOnUse">
<stop stop-color="#80DAFE"/>
<stop offset="1" stop-color="#008EE6"/>
</linearGradient>
<linearGradient id="paint22_linear_5716_28200" x1="55.1141" y1="20.4917" x2="53.9496" y2="24.2034" gradientUnits="userSpaceOnUse">
<stop stop-color="#FFCB4B"/>
<stop offset="1" stop-color="#E81CA2"/>
</linearGradient>
<linearGradient id="paint23_linear_5716_28200" x1="50.3012" y1="31.5955" x2="50.6651" y2="39.5284" gradientUnits="userSpaceOnUse">
<stop stop-color="#FFCB4B"/>
<stop offset="1" stop-color="#E81CA2"/>
</linearGradient>
<linearGradient id="paint24_linear_5716_28200" x1="47.3487" y1="26.137" x2="47.9705" y2="27.9162" gradientUnits="userSpaceOnUse">
<stop offset="0.2544" stop-color="#9F00E8"/>
<stop offset="1" stop-color="#7000A3"/>
</linearGradient>
<linearGradient id="paint25_linear_5716_28200" x1="52.6165" y1="7.49186" x2="50.2148" y2="11.6402" gradientUnits="userSpaceOnUse">
<stop stop-color="#80DAFE"/>
<stop offset="1" stop-color="#008EE6"/>
</linearGradient>
<linearGradient id="paint26_linear_5716_28200" x1="43.8727" y1="10.8677" x2="44.6733" y2="15.3071" gradientUnits="userSpaceOnUse">
<stop stop-color="#FF9214"/>
<stop offset="1" stop-color="#FF4E0D"/>
</linearGradient>
<linearGradient id="paint27_linear_5716_28200" x1="31.8444" y1="33.3158" x2="55.0484" y2="33.7926" gradientUnits="userSpaceOnUse">
<stop stop-color="#80DAFE"/>
<stop offset="1" stop-color="#008EE6"/>
</linearGradient>
<linearGradient id="paint28_linear_5716_28200" x1="19.026" y1="30.7361" x2="24.5886" y2="16.909" gradientUnits="userSpaceOnUse">
<stop stop-color="#FBE07A"/>
<stop offset="1" stop-color="#E81CA2"/>
</linearGradient>
</defs>
</svg>
