<svg width="24" height="25" viewBox="0 0 24 25" fill="none" xmlns="http://www.w3.org/2000/svg">
    <path d="M22 15.9434H19V3.94336H22C22.2652 3.94336 22.5196 4.04872 22.7071 4.23625C22.8946 4.42379 23 4.67814 23 4.94336V14.9434C23 15.2086 22.8946 15.4629 22.7071 15.6505C22.5196 15.838 22.2652 15.9434 22 15.9434ZM16.707 17.2364L10.307 23.6364C10.2219 23.7217 10.1089 23.7734 9.98878 23.782C9.86862 23.7907 9.74939 23.7556 9.653 23.6834L8.8 23.0434C8.5631 22.8655 8.38416 22.6215 8.28575 22.3421C8.18733 22.0627 8.17385 21.7604 8.247 21.4734L9.4 16.9434H3C2.46957 16.9434 1.96086 16.7326 1.58579 16.3576C1.21071 15.9825 1 15.4738 1 14.9434V12.8394C0.999731 12.578 1.05069 12.3191 1.15 12.0774L4.246 4.56336C4.32128 4.38011 4.4493 4.22335 4.6138 4.11297C4.77831 4.00259 4.97189 3.94355 5.17 3.94336H16C16.2652 3.94336 16.5196 4.04872 16.7071 4.23625C16.8946 4.42379 17 4.67814 17 4.94336V16.5294C16.9999 16.7946 16.8946 17.0489 16.707 17.2364Z" fill="#3A55D1"/>
</svg>
