<svg width="34" height="39" viewBox="0 0 34 39" fill="none" xmlns="http://www.w3.org/2000/svg">
<path fill-rule="evenodd" clip-rule="evenodd" d="M20.236 31.1041C20.2618 31.1148 20.2989 31.1294 20.347 31.1471L20.3719 31.1561C20.5212 31.21 20.6972 31.2643 20.8982 31.3154C21.4264 31.4495 22.0237 31.5354 22.6793 31.5493C22.9028 31.5541 23.0757 31.7256 23.0572 31.9242C23.0512 31.9882 23.035 32.0897 23.0036 32.2172C22.9516 32.4283 22.8737 32.6398 22.7629 32.8403L22.7427 32.8762C22.3938 33.4823 21.8108 33.852 20.987 33.8243L20.9602 33.823L20.9804 33.8224C20.0294 33.8651 19.5703 33.2996 19.5208 32.4562C19.5048 32.1843 19.5307 31.9 19.5836 31.6179C19.594 31.562 19.605 31.5093 19.6163 31.4593L19.6335 31.3868L19.6476 31.3313C19.6967 31.1128 19.9598 30.9936 20.1848 31.0822L20.236 31.1041ZM20.3252 31.8803L20.3164 31.9446C20.2956 32.1089 20.2877 32.27 20.2965 32.4205C20.3264 32.929 20.5064 33.1508 20.9412 33.1312L20.9623 33.1308L20.9834 33.1314C21.5046 33.1585 21.8401 32.9438 22.0658 32.535L22.095 32.4797C22.1326 32.4051 22.1648 32.3274 22.192 32.2484L22.201 32.2211L22.1022 32.2138C21.5933 32.1728 21.1195 32.092 20.6852 31.9818C20.5838 31.956 20.4874 31.9294 20.3964 31.9022L20.3252 31.8803Z" fill="#2E186A"/>
<path fill-rule="evenodd" clip-rule="evenodd" d="M4.94334 26.715C4.94334 26.715 1.01992 28.1692 3.11759 31.0775C5.21526 33.9858 8.77612 30.6274 8.77612 30.6274L6.2123 26.3457L4.94334 26.715Z" fill="white"/>
<path fill-rule="evenodd" clip-rule="evenodd" d="M6.55576 26.1813L9.11958 30.463C9.1982 30.5943 9.17389 30.7557 9.05921 30.8638L8.99547 30.9221C8.9328 30.978 8.84657 31.0516 8.73908 31.1383C8.49024 31.339 8.21287 31.5395 7.9129 31.7272C7.00246 32.2967 6.08012 32.6327 5.18645 32.6063C4.24499 32.5785 3.42535 32.142 2.79156 31.2633C1.59539 29.6049 2.03949 28.19 3.47429 27.1265C3.7616 26.9135 4.06775 26.732 4.37403 26.5806L4.45101 26.5432C4.60001 26.4719 4.71858 26.4222 4.79493 26.3939C4.80431 26.3905 4.81385 26.3873 4.82351 26.3845L6.09247 26.0152C6.27166 25.963 6.467 26.0331 6.55576 26.1813ZM6.02449 26.7633L5.08235 27.0375L5.02452 27.061L5.00648 27.0686C4.9301 27.1009 4.84426 27.1401 4.75139 27.186C4.48513 27.3176 4.21875 27.4755 3.9717 27.6587C2.81292 28.5176 2.48624 29.5584 3.44572 30.8887C3.94482 31.5807 4.53318 31.894 5.21279 31.914C5.90492 31.9345 6.68187 31.6514 7.46718 31.1602C7.73913 30.99 7.99199 30.8072 8.21836 30.6246L8.29774 30.5597L6.02449 26.7633Z" fill="#2E186A"/>
<path fill-rule="evenodd" clip-rule="evenodd" d="M11.8061 12.8198C13.0232 12.2889 21.1031 11.608 22.903 14.5048C26.0236 19.5366 27.7846 25.6879 28.3025 28.5963C28.8205 31.5046 14.6159 35.0592 13.7354 35.0938C12.8549 35.1284 11.573 34.6437 11.573 34.6437L6.09575 27.1536C6.1087 27.1536 0.981075 17.5747 11.8061 12.8198Z" fill="white"/>
<path fill-rule="evenodd" clip-rule="evenodd" d="M17.16 12.0307C20.1067 12.185 22.313 12.8953 23.2171 14.2941L23.2441 14.3367C25.9055 18.6281 27.9524 24.4147 28.6874 28.5414C28.959 30.0669 26.3667 31.5967 21.8246 33.196L21.6863 33.2445C18.6555 34.3034 14.4767 35.4107 13.7537 35.4392C13.5243 35.4482 13.2697 35.4281 12.9925 35.3839C12.7279 35.3416 12.4498 35.2784 12.1658 35.1998C12.0104 35.1567 11.8609 35.1112 11.7204 35.0653L11.6372 35.0376C11.5378 35.0041 11.4643 34.9777 11.4225 34.9619C11.3514 34.935 11.2909 34.8899 11.2487 34.8322L5.77149 27.3421L5.76006 27.3256C5.75284 27.3144 5.7464 27.3032 5.74074 27.2918L5.73165 27.2717L5.68973 27.186C5.64578 27.0945 5.59928 26.9935 5.54887 26.8781C5.40258 26.5433 5.25784 26.167 5.12265 25.7512C4.35259 23.3826 4.22114 20.9012 5.13985 18.5648C6.1188 16.0752 8.22375 14.0073 11.6355 12.5087C12.4315 12.1615 14.9571 11.9154 17.16 12.0307ZM22.6445 14.8013L22.5648 14.672C21.8463 13.5157 19.8484 12.8652 17.1149 12.7221C15.034 12.6131 12.6263 12.8477 11.9784 13.1303C8.74728 14.5496 6.78402 16.4783 5.87349 18.7939C5.01623 20.974 5.14032 23.3162 5.86932 25.5585C5.98709 25.9207 6.11225 26.2509 6.23874 26.547L6.27326 26.6269C6.31256 26.7168 6.34915 26.7971 6.3838 26.8703L6.44116 26.9889L11.8335 34.3628L11.9124 34.39C12.0626 34.4406 12.2261 34.4913 12.3967 34.5385C12.6521 34.6092 12.9001 34.6656 13.13 34.7023C13.3549 34.7383 13.5544 34.754 13.7199 34.7475C14.3296 34.7235 18.4507 33.6314 21.4032 32.5999L21.6528 32.512C25.6954 31.0766 28.0989 29.6516 27.9205 28.6501C27.2062 24.6392 25.2198 19.0032 22.6445 14.8013Z" fill="#2E186A"/>
<path fill-rule="evenodd" clip-rule="evenodd" d="M7.37778 26.6331C8.29713 26.9909 11.5602 29.7376 12.6867 31.1572C12.6867 31.1572 16.4806 28.295 22.7218 26.0099C22.7218 26.0099 26.1661 24.8674 27.6941 24.752C27.6941 24.752 29.8565 30.4186 28.3544 34.2732C26.8524 38.1279 20.6371 39.3859 17.1151 38.6126C13.5931 37.8509 12.7773 37.1816 11.3141 35.5543C9.8639 33.927 5.12473 27.6026 5.12473 27.6026L7.37778 26.6331Z" fill="#968BB4"/>
<path fill-rule="evenodd" clip-rule="evenodd" d="M18.1269 24.9464C17.9381 24.5195 18.0331 24.0862 18.3392 23.9787C18.6452 23.8712 19.0463 24.1301 19.2352 24.557C19.424 24.984 19.3289 25.4172 19.0229 25.5248C18.7169 25.6323 18.3157 25.3733 18.1269 24.9464Z" fill="#2E186A"/>
<path fill-rule="evenodd" clip-rule="evenodd" d="M22.2777 23.6264C22.1668 23.4627 21.9281 23.41 21.7444 23.5088C21.5675 23.604 21.5062 23.8048 21.6008 23.9658L21.6125 23.9841L24.1379 27.7142L22.4429 28.3445C22.252 28.4155 22.1582 28.6065 22.2258 28.7783L22.234 28.7973C22.3136 28.9675 22.528 29.0511 22.7207 28.9908L22.742 28.9835L24.8527 28.1988C25.0644 28.12 25.1524 27.897 25.0473 27.7186L25.0357 27.7003L22.2777 23.6264Z" fill="#2E186A"/>
<path fill-rule="evenodd" clip-rule="evenodd" d="M23.5347 23.546C23.3458 23.1191 23.4409 22.6858 23.7469 22.5783C24.0529 22.4708 24.4541 22.7297 24.6429 23.1567C24.8317 23.5836 24.7367 24.0168 24.4306 24.1244C24.1246 24.2319 23.7235 23.9729 23.5347 23.546Z" fill="#2E186A"/>
<path fill-rule="evenodd" clip-rule="evenodd" d="M17.3902 20.497C17.3419 20.3106 17.1334 20.1945 16.9243 20.2375C16.1977 20.3869 15.6292 20.713 15.2071 21.1601C14.9984 21.3812 14.8392 21.6175 14.7223 21.8543C14.6506 21.9994 14.608 22.1161 14.588 22.1908C14.5381 22.3767 14.6667 22.5636 14.8754 22.6081C15.0766 22.651 15.2787 22.5459 15.3376 22.3716L15.3487 22.3354C15.3515 22.327 15.3554 22.3158 15.3604 22.3021C15.3786 22.2521 15.4028 22.1952 15.4334 22.1332C15.522 21.9536 15.6434 21.7735 15.8016 21.6059C16.119 21.2697 16.5429 21.0266 17.099 20.9122C17.3081 20.8692 17.4384 20.6833 17.3902 20.497Z" fill="#2E186A"/>
<path fill-rule="evenodd" clip-rule="evenodd" d="M23.2899 18.4757C22.8367 18.3951 22.375 18.4802 21.9296 18.6657C21.7362 18.7462 21.5874 18.8277 21.4967 18.8866C21.3233 18.9993 21.2852 19.2158 21.4116 19.3703C21.5331 19.5189 21.7625 19.556 21.9341 19.4585L21.9864 19.4269C21.998 19.4201 22.0122 19.4121 22.0289 19.403C22.0969 19.3657 22.1743 19.3281 22.2585 19.293C22.5674 19.1644 22.874 19.1079 23.1378 19.1548C23.3432 19.1913 23.5244 19.2904 23.6868 19.4735C23.8199 19.6235 24.0642 19.6489 24.2325 19.5303C24.4008 19.4117 24.4293 19.194 24.2962 19.044C24.0196 18.7322 23.6764 18.5445 23.2899 18.4757Z" fill="#2E186A"/>
<path fill-rule="evenodd" clip-rule="evenodd" d="M6.10945 28.4453C6.10945 28.4453 3.11833 26.5411 1.22784 24.129C-0.546115 21.867 -0.40368 18.7855 1.69399 16.7428C3.45499 15.0347 5.56561 14.7578 5.56561 14.7578C5.56561 14.7578 2.09539 11.6763 4.7628 7.6139C5.6951 6.18283 7.27482 5.15568 9.08762 4.78637C13.516 3.87464 15.8468 6.87528 15.8468 6.87528C15.8468 6.87528 18.307 -1.93046 29.2874 0.389268C30.401 0.620087 31.8642 1.64723 32.6411 2.39739C37.3673 6.89836 28.6659 15.5425 23.344 17.3083C17.4912 19.2472 14.0858 18.7278 11.6644 18.1162C13.3736 18.3585 15.2252 26.6103 6.10945 28.4453Z" fill="#2E186A"/>
</svg>
