<svg width="209" height="95" viewBox="0 0 209 95" fill="none" xmlns="http://www.w3.org/2000/svg">
<path fill-rule="evenodd" clip-rule="evenodd" d="M167.114 33.0831C165.812 33.0831 164.567 33.3353 163.421 33.7836L144.829 40.4098L126.52 36.8515H117.522C117.55 31.6682 115.597 23.7392 94.0202 27.6897C82.9698 29.6369 82.0643 34.47 84.4272 39.121L37.976 35.9129C37.2968 35.7728 35.2311 35.7168 35.2311 35.7168C29.7837 36.053 25.4541 40.69 25.4541 46.3776C25.4541 51.743 29.3168 56.1839 34.3397 56.9404L34.1699 60.8909L72.8674 61.7734L70.6743 94.3442L137.373 93.6718L130.525 55.9457L165.473 54.3347L165.317 52.8217C165.897 52.9198 166.491 52.9758 167.1 52.9758C172.646 52.9758 177.146 48.521 177.146 43.0295C177.174 37.538 172.675 33.0831 167.114 33.0831Z" fill="#FF8D7E"/>
<path fill-rule="evenodd" clip-rule="evenodd" d="M93.8787 37.72L90.8932 38.9247C90.8932 38.9247 100.529 43.8699 101.123 63.7626C102.241 76.5528 101.929 93.9939 101.929 93.9939L108.523 93.9239C108.523 93.9239 106.783 56.8982 109.683 50.4821C112.584 44.066 111.155 41.1241 109.711 39.7793C108.254 38.4344 93.8787 37.72 93.8787 37.72Z" fill="white"/>
<path fill-rule="evenodd" clip-rule="evenodd" d="M93.6099 29.749V36.8375C93.5816 38.0003 94.0768 39.107 94.9823 39.8635C96.6802 41.2784 100.373 43.842 104.278 48.2548C104.278 48.2548 110.376 43.814 109.74 36.8936L93.6099 29.749Z" fill="white"/>
<path fill-rule="evenodd" clip-rule="evenodd" d="M93.1854 29.7491V36.8376C93.1546 38.0999 93.6892 39.3062 94.6564 40.1404L94.7205 40.1946C94.963 40.3919 97.5118 42.3985 98.5273 43.255C100.465 44.8892 102.24 46.5889 103.959 48.5319C104.104 48.696 104.352 48.7228 104.53 48.5935L104.591 48.5477C104.634 48.5151 104.689 48.4721 104.755 48.4188L104.784 48.3954C104.979 48.2374 105.195 48.051 105.428 47.837C106.09 47.2275 106.752 46.517 107.37 45.7112C109.37 43.1042 110.463 40.1274 110.162 36.8555C110.149 36.7042 110.053 36.5721 109.913 36.51L93.7832 29.3655C93.5024 29.2411 93.1854 29.4445 93.1854 29.7491ZM94.0343 30.3976L109.337 37.1754L109.341 37.2382C109.527 40.1577 108.512 42.8327 106.694 45.2028C106.107 45.9678 105.478 46.6431 104.85 47.2213L104.777 47.2875C104.634 47.418 104.497 47.5365 104.37 47.6428L104.329 47.677L104.247 47.586C102.666 45.8367 101.035 44.2789 99.274 42.7813L98.9791 42.5322C97.8716 41.6066 95.388 39.6523 95.2557 39.542C94.4531 38.8715 94.0089 37.8887 94.0342 36.8478L94.0343 30.3976Z" fill="#2E186A"/>
<path fill-rule="evenodd" clip-rule="evenodd" d="M117.564 36.3612V36.8375C117.564 37.8042 117.479 38.6727 117.451 39.3591C117.239 44.1222 114.918 46.6578 113.999 48.549C119.616 47.5264 125.431 41.5025 126.577 36.8375C125.417 35.7869 119.616 35.2545 117.564 36.3612Z" fill="#2E186A"/>
<path fill-rule="evenodd" clip-rule="evenodd" d="M93.3693 49.5997C91.7139 48.8432 86.1533 44.1642 84.0451 38.1824C82.2199 37.2018 77.579 37.7201 76.1075 38.5606C81.8803 50.3842 93.3693 49.6137 93.3693 49.5997Z" fill="#2E186A"/>
<path fill-rule="evenodd" clip-rule="evenodd" d="M95.5973 48.3129C95.9009 48.2391 96.2074 48.423 96.2819 48.7235L96.3704 49.0865L96.5409 49.8017C96.5745 49.9443 96.6091 50.0921 96.6446 50.2448L96.6985 50.4775C97.0105 51.8274 97.3225 53.2506 97.6138 54.6819C97.7947 55.5707 97.9619 56.4353 98.1127 57.2674L98.1574 57.516C98.6163 60.0835 98.8943 62.2104 98.9438 63.7589C98.9537 64.0683 98.7084 64.3269 98.396 64.3367C98.0836 64.3465 97.8223 64.1037 97.8124 63.7943L97.8065 63.6332C97.7465 62.1894 97.4868 60.2149 97.0668 57.8458L97.0428 57.7113C96.8822 56.8125 96.7014 55.8726 96.5042 54.9032C96.2372 53.5916 95.9526 52.286 95.6666 51.0382L95.5416 50.4964C95.4975 50.3069 95.4548 50.125 95.4138 49.9514L95.2451 49.2464L95.1826 48.9907C95.1081 48.6901 95.2938 48.3867 95.5973 48.3129Z" fill="#2E186A"/>
<path fill-rule="evenodd" clip-rule="evenodd" d="M112.348 47.9171C112.654 47.9819 112.849 48.2798 112.783 48.5824L112.708 48.941L112.621 49.3648C112.591 49.5144 112.56 49.6723 112.527 49.8379L112.508 49.9381C112.3 50.9987 112.093 52.1408 111.899 53.3205C111.669 54.725 111.474 56.0885 111.325 57.3748L111.295 57.6392C111.013 60.1796 110.935 62.2565 111.108 63.6966C111.145 64.004 110.923 64.2827 110.613 64.3192C110.303 64.3557 110.021 64.1362 109.984 63.8289C109.793 62.2326 109.885 59.9879 110.201 57.2476C110.351 55.9424 110.549 54.5617 110.782 53.1407C110.977 51.9492 111.187 50.7961 111.396 49.7251L111.474 49.3308C111.506 49.1728 111.536 49.0229 111.565 48.8816L111.677 48.3477C111.742 48.045 112.043 47.8523 112.348 47.9171Z" fill="#2E186A"/>
<path fill-rule="evenodd" clip-rule="evenodd" d="M92.5346 24.7478C92.5346 24.7478 88.5304 24.8319 89.2379 28.3761C89.9595 31.9344 94.3881 29.8751 94.3881 29.8751L93.7938 24.8178L92.5346 24.7478Z" fill="white"/>
<path fill-rule="evenodd" clip-rule="evenodd" d="M92.5583 24.3283L92.5406 24.3276L92.5182 24.3279L92.4697 24.3298C92.417 24.3324 92.3517 24.3371 92.2749 24.3444C92.1192 24.3594 91.9512 24.3825 91.7746 24.4154C91.2795 24.5077 90.7997 24.6607 90.3658 24.8908C89.1024 25.561 88.4797 26.7458 88.8214 28.4577C89.1553 30.104 90.2413 30.8671 91.7577 30.8877C92.3897 30.8963 93.0545 30.7766 93.7153 30.5727C93.9052 30.5142 94.0832 30.452 94.2465 30.3892L94.3908 30.332C94.4709 30.2993 94.531 30.273 94.5685 30.2555C94.7336 30.1787 94.8308 30.006 94.8097 29.8266L94.2154 24.7693C94.1916 24.5663 94.0237 24.4098 93.8176 24.3983L92.5583 24.3283ZM92.5292 25.1684L93.4135 25.2176L93.9295 29.6092L93.8647 29.6338C93.7394 29.6804 93.6048 29.7264 93.4628 29.7703C92.8805 29.9499 92.2997 30.0545 91.7693 30.0472C90.629 30.0317 89.9031 29.5216 89.654 28.2934C89.3876 26.9587 89.8214 26.1331 90.7667 25.6318C91.1163 25.4463 91.5158 25.319 91.9317 25.2414C92.1753 25.196 92.3786 25.175 92.5146 25.1691L92.5292 25.1684Z" fill="#2E186A"/>
<path fill-rule="evenodd" clip-rule="evenodd" d="M103.953 13.5546C105.014 13.4706 112.244 13.0223 113.036 19.0041C113.829 24.9859 112.98 31.5841 112.301 34.596C111.622 37.608 97.7697 36.2211 96.9915 35.9409C96.2133 35.6607 95.2795 34.7642 95.2795 34.7642L93.3835 25.5743C93.3694 25.5883 92.6053 14.4932 103.953 13.5546Z" fill="white"/>
<path fill-rule="evenodd" clip-rule="evenodd" d="M103.919 13.1358C98.7899 13.5601 95.6076 16.0074 94.0162 19.7591C93.4618 21.0659 93.1441 22.4397 93.0107 23.7935C92.9639 24.2694 92.9436 24.7105 92.9437 25.1006C92.9437 25.2212 92.9457 25.3307 92.9492 25.4248L92.954 25.5274L92.958 25.5875L92.9616 25.6234L92.9656 25.6494L94.8636 34.8484C94.8807 34.9313 94.9226 35.0071 94.9839 35.066L95.0288 35.1083C95.0753 35.1514 95.1388 35.2088 95.2168 35.2767C95.3946 35.4315 95.5858 35.5863 95.7838 35.7316C96.0121 35.8991 96.2355 36.0435 96.4508 36.1579C96.587 36.2303 96.7188 36.29 96.8464 36.336C97.4827 36.5651 101.585 36.9189 104.683 36.9234L104.964 36.9231C109.522 36.9056 112.353 36.2928 112.715 34.6878C113.681 30.405 114.134 24.0579 113.457 18.9496C113.083 16.127 111.348 14.4086 108.721 13.6033C107.775 13.3132 106.763 13.1586 105.729 13.1098C105.035 13.077 104.449 13.0938 103.919 13.1358ZM105.688 13.9494C106.656 13.995 107.598 14.1391 108.47 14.4062C110.803 15.1214 112.289 16.5929 112.616 19.0589C113.278 24.0614 112.832 30.3119 111.886 34.5046C111.657 35.5215 108.897 36.0889 104.684 36.0829L104.411 36.0816C101.446 36.0578 97.633 35.7248 97.1365 35.5461C97.0498 35.5148 96.9545 35.4716 96.8524 35.4173C96.6769 35.3241 96.4868 35.2013 96.2892 35.0563C96.1118 34.9261 95.9385 34.7858 95.7773 34.6454L95.7125 34.5884L95.6681 34.5487L93.8033 25.5096L93.7992 25.4335L93.7961 25.35C93.7939 25.2762 93.7926 25.1922 93.7926 25.1004C93.7925 24.7368 93.8116 24.323 93.8557 23.875C93.9812 22.6 94.2803 21.3071 94.7989 20.0845C96.2717 16.6125 99.1868 14.3707 103.988 13.9736C104.484 13.9343 105.035 13.9185 105.688 13.9494Z" fill="#2E186A"/>
<path fill-rule="evenodd" clip-rule="evenodd" d="M94.7276 25.5042C95.4068 26.1626 97.2179 29.959 97.6706 31.7381C97.6706 31.7381 102.17 30.2532 108.622 30.1551C108.622 30.1551 112.131 30.2252 113.546 30.6314C113.546 30.6314 113.249 36.9074 110.391 40.1575C107.547 43.4076 101.519 42.497 98.6894 40.5498C95.8596 38.6025 95.3926 37.6639 94.7418 35.5766C94.0909 33.4892 92.3647 25.7003 92.3647 25.7003L94.7276 25.5042Z" fill="#968BB4"/>
<path fill-rule="evenodd" clip-rule="evenodd" d="M92.8741 26.8491C92.8741 26.8491 90.9923 23.9633 90.2707 20.9654C89.5915 18.1496 90.9074 15.1937 93.5533 13.9189C95.7605 12.8542 97.4018 13.6947 97.4018 13.6947C97.4018 13.6947 95.0531 9.7442 98.5762 6.25598C99.8213 5.02319 101.519 4.35076 103.274 4.4068C107.561 4.53288 108.891 8.11916 108.891 8.11916C108.891 8.11916 113.489 -0.244173 122.898 4.71499C123.846 5.21931 124.922 6.6062 125.431 7.5448C128.544 13.2184 118.286 19.9427 112.952 20.475C107.094 21.0634 103.656 20.0968 101.774 18.6819C103.175 19.4944 101.604 28.18 92.8741 26.8491Z" fill="#2E186A"/>
<path fill-rule="evenodd" clip-rule="evenodd" d="M104.188 33.9447C104.488 33.897 104.77 34.091 104.832 34.3814L104.841 34.4269C104.846 34.4533 104.857 34.4977 104.875 34.5545C104.914 34.6797 104.967 34.8047 105.036 34.9174C105.238 35.2511 105.507 35.4043 105.95 35.3395L105.992 35.3328C106.3 35.2796 106.593 35.4837 106.647 35.7886C106.701 36.0935 106.494 36.3837 106.187 36.4369C105.221 36.6036 104.5 36.2108 104.065 35.4944C103.946 35.2974 103.857 35.0905 103.793 34.8839C103.754 34.7578 103.731 34.6555 103.72 34.587C103.67 34.2815 103.88 33.9939 104.188 33.9447Z" fill="#2E186A"/>
<path fill-rule="evenodd" clip-rule="evenodd" d="M108.515 27.189C108.816 27.1546 109.089 27.3609 109.138 27.6538L109.142 27.6815L109.778 33.145C109.823 33.5264 109.476 33.8353 109.102 33.758L109.076 33.7521L107.138 33.2618C106.835 33.1852 106.652 32.88 106.729 32.5802C106.804 32.2897 107.096 32.1108 107.39 32.1695L107.418 32.176L108.56 32.4648L108.017 27.8099C107.983 27.5118 108.191 27.2414 108.487 27.1929L108.515 27.189Z" fill="#2E186A"/>
<path fill-rule="evenodd" clip-rule="evenodd" d="M110.56 28.3201C110.873 28.3201 111.126 27.9313 111.126 27.4516C111.126 26.9719 110.873 26.583 110.56 26.583C110.248 26.583 109.994 26.9719 109.994 27.4516C109.994 27.9313 110.248 28.3201 110.56 28.3201Z" fill="#2E186A"/>
<path fill-rule="evenodd" clip-rule="evenodd" d="M105.113 28.222C105.426 28.222 105.679 27.8331 105.679 27.3534C105.679 26.8737 105.426 26.4849 105.113 26.4849C104.8 26.4849 104.547 26.8737 104.547 27.3534C104.547 27.8331 104.8 28.222 105.113 28.222Z" fill="#2E186A"/>
<path fill-rule="evenodd" clip-rule="evenodd" d="M102.9 22.7947C103.543 22.3286 104.336 22.0968 105.253 22.2322C105.562 22.2778 105.775 22.563 105.729 22.8691C105.683 23.1752 105.395 23.3863 105.086 23.3406C104.484 23.2517 103.984 23.3978 103.568 23.6992C103.451 23.7841 103.35 23.8749 103.267 23.9643C103.247 23.9867 103.228 24.0075 103.213 24.0262L103.187 24.0585C103.009 24.3128 102.656 24.3758 102.399 24.1994C102.142 24.0229 102.079 23.6737 102.257 23.4195C102.293 23.3687 102.351 23.2951 102.434 23.2062C102.565 23.065 102.72 22.9251 102.9 22.7947Z" fill="#2E186A"/>
<path fill-rule="evenodd" clip-rule="evenodd" d="M110.447 22.1043C110.799 22.0493 111.173 22.0472 111.54 22.1364C112.18 22.2919 112.671 22.7055 112.884 23.3923C112.976 23.6881 112.808 24.0017 112.51 24.0927C112.211 24.1837 111.894 24.0177 111.802 23.7219C111.713 23.4346 111.543 23.2911 111.27 23.2248C111.07 23.1762 110.839 23.1776 110.623 23.2113C110.601 23.2147 110.581 23.2182 110.563 23.2217L110.52 23.2307C110.217 23.309 109.908 23.1296 109.829 22.8302C109.75 22.5308 109.931 22.2246 110.233 22.1464L110.273 22.1367C110.318 22.1266 110.376 22.1152 110.447 22.1043Z" fill="#2E186A"/>
<path fill-rule="evenodd" clip-rule="evenodd" d="M189.427 50.076L192.172 46.6718C192.172 46.6718 193.148 42.0209 193.827 40.3958C194.506 38.7708 196.983 37.468 196.204 39.8215C195.412 42.175 195.695 43.1556 195.695 43.1556C195.695 43.1556 199.232 39.4292 200.718 36.6134C202.232 33.7276 203.222 36.5714 203.222 36.5714C203.222 36.5714 205.175 35.7729 205.033 37.0897C205.033 37.0897 206.887 37.0617 205.981 38.6587C205.981 38.6587 208.075 37.7201 207.637 39.5413C207.807 41.6706 204 48.1288 200.364 49.9219L198.921 51.9112L197.181 54.5449" fill="white"/>
<path fill-rule="evenodd" clip-rule="evenodd" d="M202.037 34.8998C202.548 34.8933 202.946 35.215 203.271 35.7202C203.337 35.8244 203.398 35.9325 203.453 36.0417L203.457 36.0491L203.461 36.0478C203.648 35.9945 203.833 35.9541 204.013 35.9315L204.09 35.9229C204.781 35.8552 205.315 36.0939 205.439 36.676L205.445 36.7061L205.49 36.7142C205.56 36.7275 205.629 36.7438 205.697 36.7636L205.765 36.7846C206.357 36.9786 206.693 37.3943 206.652 37.9769L206.647 38.0259L206.722 38.0152L206.798 38.0066C207.723 37.9168 208.297 38.4513 208.07 39.5475L208.064 39.5754L208.065 39.5928C208.109 40.7701 207.22 42.8843 205.834 45.0094L205.783 45.0872C204.255 47.4105 202.42 49.3197 200.702 50.2223L200.649 50.2498L199.271 52.1492L197.536 54.7751C197.412 54.9621 197.164 55.0195 196.97 54.91L196.948 54.8967C196.759 54.7743 196.701 54.5282 196.812 54.3367L196.825 54.3149L198.566 51.6812L198.576 51.6661L200.019 49.6768C200.06 49.6213 200.113 49.5763 200.175 49.5458C201.775 48.7567 203.574 46.905 205.072 44.6284L205.167 44.4832C206.466 42.4746 207.286 40.4851 207.214 39.5745C207.21 39.5307 207.214 39.4866 207.224 39.4439L207.24 39.376C207.352 38.8746 207.264 38.8059 206.881 38.8432C206.745 38.8563 206.594 38.8902 206.438 38.9388C206.363 38.9621 206.292 38.9871 206.229 39.0119L206.156 39.0417C205.783 39.2091 205.41 38.807 205.611 38.4531L205.65 38.3831C205.931 37.8625 205.847 37.697 205.498 37.5824C205.404 37.5514 205.297 37.5306 205.19 37.5192C205.15 37.515 205.113 37.5124 205.08 37.511L205.04 37.51C204.785 37.5139 204.584 37.2962 204.611 37.0454C204.641 36.7727 204.558 36.7216 204.173 36.7593C204.027 36.7737 203.864 36.8076 203.696 36.8554C203.635 36.873 203.575 36.8917 203.52 36.9105L203.466 36.9293C203.439 36.9391 203.417 36.9471 203.402 36.9529L203.384 36.9599C203.166 37.0491 202.918 36.9449 202.83 36.7317L202.807 36.6706C202.795 36.6394 202.777 36.5968 202.754 36.5458C202.697 36.4171 202.63 36.2887 202.554 36.1712C202.372 35.8872 202.188 35.7385 202.048 35.7402C201.826 35.743 201.494 36.0466 201.094 36.8081C200.808 37.3503 200.439 37.9435 199.998 38.5804C199.657 39.0716 199.277 39.5835 198.864 40.1107C198.239 40.9098 197.569 41.7051 196.9 42.4604C196.743 42.6366 196.595 42.8022 196.455 42.9559L196.212 43.221L196.004 43.4435C195.779 43.6812 195.377 43.5848 195.287 43.2712C195.275 43.2307 195.262 43.1677 195.25 43.0816C195.15 42.3573 195.279 41.2416 195.801 39.6908C195.884 39.4406 195.925 39.2394 195.929 39.0917C195.931 39.0393 195.928 39.0008 195.924 38.9749L195.92 38.9588L195.907 38.9593C195.867 38.9619 195.812 38.9741 195.746 38.9975L195.717 39.0083C195.176 39.2174 194.497 39.8934 194.219 40.5566C194.084 40.8813 193.926 41.3595 193.751 41.9649L193.728 42.0446C193.615 42.4394 193.497 42.8807 193.375 43.3602C193.187 44.1029 192.998 44.8995 192.82 45.6962L192.752 46.0013C192.722 46.1328 192.695 46.2587 192.669 46.3781L192.587 46.7575C192.576 46.8113 192.554 46.8623 192.523 46.9076L192.504 46.9341L189.759 50.3383C189.612 50.5197 189.345 50.5494 189.162 50.4046C188.986 50.2653 188.951 50.0155 189.079 49.8352L189.095 49.8139L191.777 46.4879L191.879 46.0159C191.914 45.8574 191.951 45.6895 191.991 45.5138C192.171 44.7101 192.361 43.9063 192.552 43.1553L192.619 42.8934C192.719 42.5065 192.817 42.1458 192.911 41.8158L192.959 41.6506C193.132 41.0559 193.291 40.5793 193.435 40.2352C193.799 39.3639 194.648 38.5192 195.408 38.2253C195.886 38.0403 196.335 38.0781 196.601 38.4444C196.845 38.7792 196.83 39.2804 196.607 39.9545C196.326 40.7905 196.169 41.4743 196.104 42.0163L196.095 42.0927L196.262 41.9059C196.92 41.1626 197.579 40.3801 198.193 39.5957C198.597 39.0807 198.967 38.5817 199.298 38.1048C199.696 37.5297 200.031 36.995 200.293 36.5101L200.341 36.4198C200.869 35.413 201.423 34.9075 202.037 34.8998Z" fill="#2E186A"/>
<path fill-rule="evenodd" clip-rule="evenodd" d="M198.907 42.4412C198.907 42.4412 202.6 38.8549 203.208 36.5854L198.907 42.4412Z" fill="white"/>
<path fill-rule="evenodd" clip-rule="evenodd" d="M202.798 36.4776C202.858 36.2533 203.09 36.1197 203.317 36.1792C203.544 36.2388 203.678 36.4689 203.618 36.6932C203.452 37.3151 203.079 38.0336 202.534 38.838C202.216 39.3076 201.844 39.799 201.429 40.305C200.942 40.8982 200.422 41.4811 199.901 42.0295L199.702 42.2378C199.638 42.3045 199.575 42.3687 199.515 42.4299L199.366 42.5801L199.204 42.7412C199.037 42.9037 198.768 42.9011 198.604 42.7354C198.446 42.5764 198.442 42.3248 198.59 42.1611L198.793 41.9592L198.907 41.8438C199.024 41.7247 199.15 41.5943 199.283 41.4539C199.79 40.9193 200.297 40.3512 200.77 39.7751C201.17 39.2878 201.527 38.8164 201.829 38.3699C202.326 37.6359 202.66 36.9929 202.798 36.4776Z" fill="#2E186A"/>
<path fill-rule="evenodd" clip-rule="evenodd" d="M200.35 43.5761C200.689 43.0998 203.774 40.4521 204.722 37.0759L200.35 43.5761Z" fill="white"/>
<path fill-rule="evenodd" clip-rule="evenodd" d="M200.681 43.8396C200.541 44.0112 200.289 44.0481 200.105 43.9194C199.914 43.7855 199.868 43.5233 200.003 43.3337L200.026 43.3033C200.07 43.2459 200.129 43.1784 200.221 43.0806L200.751 42.5287C200.791 42.4865 200.83 42.4456 200.869 42.4042C201.408 41.8339 201.873 41.2998 202.32 40.7156C203.269 39.4758 203.959 38.2255 204.313 36.9633C204.376 36.7397 204.61 36.6088 204.836 36.671C205.062 36.7332 205.194 36.9648 205.131 37.1885C204.755 38.5286 204.045 39.833 203.078 41.1161L202.997 41.223C202.265 42.1797 200.696 43.8429 200.695 43.8222L200.696 43.8188L200.681 43.8396Z" fill="#2E186A"/>
<path fill-rule="evenodd" clip-rule="evenodd" d="M201.821 44.7807C202.557 43.8001 204.779 42.6514 206.052 38.7849L201.821 44.7807Z" fill="white"/>
<path fill-rule="evenodd" clip-rule="evenodd" d="M202.553 43.4549L202.639 43.3744C203.162 42.8815 203.548 42.4695 203.939 41.9622C204.642 41.0481 205.213 39.9783 205.649 38.6546C205.721 38.4339 205.961 38.3134 206.184 38.3853C206.407 38.4573 206.528 38.6945 206.456 38.9152C205.99 40.3294 205.374 41.483 204.614 42.4714C204.193 43.019 203.778 43.461 203.226 43.9816L202.431 44.7253C202.242 44.9067 202.256 44.9066 202.162 45.0313C202.022 45.2177 201.757 45.2565 201.568 45.1181C201.38 44.9797 201.341 44.7164 201.481 44.5301C201.582 44.3955 201.704 44.2596 201.866 44.0996L201.97 43.9974L202.553 43.4549Z" fill="#2E186A"/>
<path fill-rule="evenodd" clip-rule="evenodd" d="M115.583 75.3202L127.27 51.1127C128.544 47.8907 130.397 44.5846 133.793 43.758C141.702 41.8248 154.267 40.1858 163.676 39.8916C166.251 39.8075 168.713 40.9422 170.297 42.9455L182.253 56.8844L190.743 46.4057L200.888 52.8218L186.328 72.6165C183.598 75.3622 179.183 75.5583 176.226 73.0647L170.283 67.5172L172.448 93.9241H135.491L135.647 87.2418L115.583 75.3202Z" fill="#2E186A"/>
<path fill-rule="evenodd" clip-rule="evenodd" d="M155.002 40.9703L151.791 32.8311L142 39.009L142.877 45.0889C146.527 55.2594 155.71 42.7634 155.002 40.9703Z" fill="white"/>
<path fill-rule="evenodd" clip-rule="evenodd" d="M151.563 32.4767L141.771 38.6546C141.631 38.7433 141.556 38.9051 141.579 39.0684L142.457 45.1483C142.461 45.176 142.467 45.2033 142.477 45.2296C143.38 47.7473 144.693 49.1239 146.339 49.4025C147.745 49.6403 149.285 49.0557 150.836 47.8461C153.441 45.8154 155.882 42.0436 155.398 40.8173L152.186 32.6781C152.089 32.4315 151.788 32.3344 151.563 32.4767ZM142.458 39.2177L151.583 33.4602L154.607 41.1232C154.644 41.217 154.597 41.5156 154.438 41.9291C154.257 42.3972 153.954 42.9688 153.562 43.5738C152.693 44.9165 151.515 46.2475 150.311 47.1858C148.93 48.2624 147.608 48.7644 146.482 48.5739L146.437 48.5658C145.187 48.3325 144.13 47.2337 143.335 45.1076L143.291 44.9871L142.458 39.2177Z" fill="#2E186A"/>
<path fill-rule="evenodd" clip-rule="evenodd" d="M136.014 18.4578C136.014 18.4578 144.829 22.7865 141.306 28.0399C141.306 28.0399 139.722 30.2533 138.208 30.0011C138.208 30.0011 139.113 28.166 137.769 27.4095C137.769 27.4095 137.91 32.6068 133.538 31.9904C133.538 31.9904 134.868 29.5529 134.175 26.8491C132.704 21.2175 133.694 17.6593 136.014 18.4578Z" fill="#2E186A"/>
<path fill-rule="evenodd" clip-rule="evenodd" d="M154.026 24.902C154.026 24.902 154.592 14.6615 144.122 13.947C143.146 13.877 136.467 13.5548 135.816 19.0743C135.378 22.7586 135.618 26.6951 136.029 29.7351C136.029 29.7491 136.708 35.4787 139.311 38.4346C141.915 41.3905 146.966 40.592 149.484 38.7568C152.003 36.9217 152.413 36.0531 152.979 34.1199C153.545 32.1866 154.026 24.916 154.026 24.916V24.902Z" fill="white"/>
<path fill-rule="evenodd" clip-rule="evenodd" d="M135.373 19.214C135.01 22.4335 135.121 26.0747 135.58 29.5845L135.605 29.771L135.609 29.8221C135.648 30.2669 135.922 31.7558 136.267 33.0285L136.284 33.092C136.918 35.4009 137.801 37.36 138.991 38.7109C140.295 40.1906 142.24 40.8814 144.443 40.8125C146.374 40.7521 148.364 40.0951 149.736 39.0954L149.954 38.9353C152.154 37.3061 152.743 36.4355 153.387 34.237C153.611 33.471 153.83 31.9219 154.045 29.7935C154.143 28.8206 154.234 27.7846 154.317 26.7435L154.359 26.1987C154.372 26.0278 154.384 25.8629 154.396 25.7049L154.45 24.9436L154.453 24.8433C154.468 24.3286 154.436 23.6347 154.319 22.8245C154.14 21.5913 153.798 20.3705 153.252 19.2257C151.687 15.9401 148.747 13.8414 144.151 13.5278C143.68 13.494 143.122 13.4845 142.478 13.523C141.523 13.58 140.589 13.7351 139.716 14.0148C137.292 14.7922 135.704 16.4068 135.395 19.0256L135.373 19.214ZM144.091 14.3663C148.373 14.6584 151.047 16.5671 152.485 19.5843C152.991 20.6473 153.311 21.7886 153.478 22.9439C153.58 23.6447 153.613 24.2497 153.607 24.7078L153.604 24.8366L153.602 24.9005L153.558 25.5274C153.547 25.6812 153.535 25.842 153.522 26.009L153.492 26.395C153.412 27.4312 153.323 28.4673 153.226 29.4448L153.2 29.7099C152.994 31.7499 152.783 33.2568 152.581 33.9691L152.571 34.003C151.959 36.0939 151.463 36.793 149.233 38.4184C148.002 39.3152 146.179 39.9173 144.416 39.9724C142.45 40.0339 140.752 39.4307 139.631 38.1585C138.542 36.9225 137.707 35.0687 137.103 32.8715L137.057 32.6999C136.726 31.4514 136.469 30.0189 136.454 29.7561L136.453 29.7352C136.453 29.7165 136.452 29.6979 136.449 29.6795C135.976 26.1697 135.855 22.5153 136.217 19.3077L136.238 19.1231C136.505 16.8621 137.847 15.4978 139.978 14.8145C140.776 14.5586 141.641 14.415 142.529 14.362C143.132 14.326 143.654 14.3349 144.091 14.3663Z" fill="#2E186A"/>
<path fill-rule="evenodd" clip-rule="evenodd" d="M139.61 27.0455C139.634 26.8145 139.842 26.646 140.075 26.6691C140.3 26.6914 140.466 26.8837 140.457 27.1045L140.455 27.1291L140.007 31.5659L141.196 31.2485C141.414 31.1901 141.638 31.3114 141.709 31.5211L141.716 31.5447C141.775 31.7608 141.652 31.983 141.441 32.0528L141.417 32.06L139.634 32.5363C139.355 32.6108 139.087 32.3941 139.099 32.1129L139.101 32.0887L139.61 27.0455Z" fill="#2E186A"/>
<path fill-rule="evenodd" clip-rule="evenodd" d="M139.067 26.1882C139.076 25.7473 138.849 25.3853 138.56 25.3796C138.271 25.374 138.029 25.7268 138.021 26.1677C138.012 26.6086 138.239 26.9706 138.528 26.9763C138.817 26.982 139.059 26.6291 139.067 26.1882Z" fill="#2E186A"/>
<path fill-rule="evenodd" clip-rule="evenodd" d="M143.651 27.1386C143.936 27.0906 144.107 26.6993 144.032 26.2645C143.958 25.8297 143.666 25.5161 143.381 25.5641C143.096 25.612 142.926 26.0033 143 26.4381C143.075 26.8729 143.366 27.1865 143.651 27.1386Z" fill="#2E186A"/>
<path fill-rule="evenodd" clip-rule="evenodd" d="M142.799 21.9701C143.636 21.7869 144.374 21.962 144.986 22.3637C145.14 22.4649 145.274 22.5735 145.389 22.6831L145.439 22.7322C145.485 22.7788 145.52 22.8177 145.543 22.8463C145.689 23.0276 145.66 23.2921 145.477 23.437C145.301 23.5765 145.047 23.5547 144.897 23.3917L144.87 23.3596C144.856 23.3445 144.833 23.3197 144.799 23.2878C144.72 23.2123 144.626 23.1358 144.517 23.0642C144.086 22.7812 143.577 22.6606 142.983 22.7908C142.754 22.8409 142.527 22.6978 142.476 22.4712C142.426 22.2445 142.57 22.0202 142.799 21.9701Z" fill="#2E186A"/>
<path fill-rule="evenodd" clip-rule="evenodd" d="M136.875 21.886C137.272 21.8387 137.685 21.8725 138.086 21.9566L138.165 21.9738C138.292 22.0025 138.391 22.0305 138.455 22.0517C138.677 22.125 138.798 22.3631 138.723 22.5833C138.652 22.7956 138.426 22.9138 138.21 22.8562L138.136 22.8339L138.119 22.8293C138.058 22.8123 137.988 22.7951 137.911 22.7789C137.593 22.7124 137.268 22.6858 136.977 22.7205C136.584 22.7674 136.304 22.9178 136.14 23.195C136.022 23.3953 135.762 23.4626 135.56 23.3454C135.357 23.2281 135.289 22.9707 135.408 22.7704C135.721 22.241 136.239 21.9618 136.875 21.886Z" fill="#2E186A"/>
<path fill-rule="evenodd" clip-rule="evenodd" d="M145.183 18.1918C145.183 18.1918 142.65 32.0887 151.875 32.579C151.875 32.579 157.252 32.9853 158.271 31.01C158.271 31.01 154.238 29.371 154.507 27.1576C154.507 27.1576 159.29 31.4023 162.699 27.6759C162.699 27.6759 156.347 27.2696 156.332 21.638C156.318 17.6035 146.258 14.8017 145.183 18.1918Z" fill="#2E186A"/>
<path fill-rule="evenodd" clip-rule="evenodd" d="M161.964 18.4439L156.361 18.1637C155.413 14.5354 152.71 9.47816 144.999 9.35208C132.944 9.15596 133.737 20.6853 133.737 20.6853L161.78 22.0302C162.784 22.0862 163.633 21.3157 163.676 20.3351C163.732 19.3405 162.968 18.4999 161.964 18.4439Z" fill="#FF8D7E"/>
<path fill-rule="evenodd" clip-rule="evenodd" d="M144.679 32.3404C144.75 32.119 144.988 31.9961 145.212 32.066C145.435 32.1358 145.559 32.3718 145.489 32.5932C145.464 32.6702 145.416 32.7869 145.337 32.9304C145.211 33.162 145.044 33.3922 144.829 33.6068C144.167 34.2689 143.213 34.6374 141.948 34.5675C141.713 34.5545 141.534 34.3561 141.547 34.1244C141.561 33.8927 141.761 33.7153 141.995 33.7282C143.016 33.7847 143.734 33.5075 144.226 33.0155C144.381 32.8607 144.501 32.6951 144.591 32.5309C144.637 32.4454 144.665 32.3815 144.676 32.3491L144.679 32.3404Z" fill="#2E186A"/>
<path fill-rule="evenodd" clip-rule="evenodd" d="M134.542 65.4789C134.624 65.2614 134.868 65.151 135.088 65.2323C135.299 65.3106 135.411 65.5385 135.345 65.7496L135.337 65.773L128.375 84.2228C128.293 84.4402 128.049 84.5506 127.829 84.4694C127.618 84.3911 127.506 84.1632 127.572 83.952L127.58 83.9286L134.542 65.4789Z" fill="white"/>
<path fill-rule="evenodd" clip-rule="evenodd" d="M181.476 56.87C181.68 56.7545 181.939 56.8241 182.056 57.0254C182.168 57.2193 182.107 57.4646 181.921 57.5857L181.843 57.6325C181.827 57.6422 181.809 57.6537 181.788 57.6669C181.693 57.7276 181.586 57.8004 181.47 57.8849C181.138 58.1274 180.805 58.4135 180.496 58.7399C179.439 59.8547 178.912 61.1389 179.176 62.5811C179.218 62.8095 179.065 63.0282 178.834 63.0696C178.603 63.1109 178.383 62.9593 178.341 62.7309C178.023 60.9915 178.652 59.4566 179.877 58.1646C180.224 57.7985 180.595 57.4796 180.966 57.2084L181.048 57.1492C181.235 57.0167 181.382 56.9233 181.476 56.87Z" fill="white"/>
<path fill-rule="evenodd" clip-rule="evenodd" d="M178.271 56.6475C179.171 56.2481 180.117 56.2326 180.996 56.4421C181.203 56.4914 181.358 56.5419 181.45 56.5787C181.668 56.6656 181.773 56.9105 181.685 57.1258C181.6 57.3333 181.367 57.4374 181.156 57.3667L181.086 57.3414C181.077 57.3382 181.066 57.3347 181.054 57.3308C180.98 57.3067 180.894 57.2823 180.798 57.2593C180.085 57.0895 179.322 57.1021 178.618 57.4145C177.737 57.8059 177.032 58.638 176.573 60.0397C176.501 60.2606 176.262 60.3816 176.039 60.3101C175.815 60.2386 175.693 60.0016 175.765 59.7808C176.295 58.1618 177.16 57.1406 178.271 56.6475Z" fill="white"/>
<path fill-rule="evenodd" clip-rule="evenodd" d="M140.075 88.9929H121.71C121.257 88.9929 120.818 88.7828 120.55 88.4045L107.773 71.1315C107.08 70.1929 107.759 68.8621 108.933 68.8621H127.299C127.751 68.8621 128.19 69.0722 128.459 69.4504L141.235 86.7235C141.929 87.6761 141.25 88.9929 140.075 88.9929Z" fill="#6A6AF4"/>
<path fill-rule="evenodd" clip-rule="evenodd" d="M122.488 78.4861C122.488 78.4861 118.3 81.8622 118.229 81.9183C118.158 81.9743 122.743 86.9195 122.743 86.9195L127.511 82.0584L122.488 78.4861Z" fill="white"/>
<path fill-rule="evenodd" clip-rule="evenodd" d="M123.903 79.4808C124.61 79.2287 126.832 77.8698 127.468 78.108C128.784 78.6123 126.846 79.9291 125.445 81.1339" fill="white"/>
<path fill-rule="evenodd" clip-rule="evenodd" d="M125.479 78.2551L125.604 78.1959C126.591 77.7342 127.188 77.5537 127.622 77.7159C128.445 78.0316 128.523 78.698 128.004 79.3845L127.97 79.4292C127.682 79.7994 127.333 80.1149 126.444 80.8499L126.029 81.1928C125.913 81.2893 125.817 81.3705 125.723 81.4511C125.546 81.6033 125.278 81.5846 125.125 81.4094C124.971 81.2342 124.99 80.9687 125.167 80.8165L125.368 80.645C125.44 80.5848 125.518 80.5202 125.607 80.4465L126.089 80.0476C126.779 79.4726 127.078 79.1966 127.296 78.9184L127.361 78.832C127.54 78.5929 127.527 78.5808 127.318 78.501C127.198 78.4558 126.637 78.6367 125.846 79.0127L125.717 79.0748L125.443 79.2092C125.234 79.3136 124.787 79.5381 124.691 79.586L124.497 79.6804C124.304 79.7728 124.163 79.8348 124.047 79.8762C123.826 79.9548 123.583 79.8415 123.503 79.6231C123.427 79.4125 123.531 79.1811 123.736 79.0943L123.801 79.0697C123.897 79.0322 124.033 78.9704 124.221 78.8785L125.131 78.4242L125.275 78.3531C125.346 78.3189 125.413 78.2863 125.479 78.2551Z" fill="#2E186A"/>
<path fill-rule="evenodd" clip-rule="evenodd" d="M125.643 83.8656C125.643 83.8656 128.133 81.9324 128.897 83.6275C129.209 84.3279 126.492 86.4713 123.917 87.2418C121.455 87.9703 113.447 90.688 113.418 83.2492C113.418 82.0305 113.701 80.4054 114.579 77.6036C115.711 74.0594 117.691 75.5583 117.522 76.8472C117.352 78.136 117.451 80.5876 117.451 80.5876C117.451 80.5876 121.483 77.3795 123.917 77.3235C126.902 77.2394 124.54 79.4108 119.729 82.3107" fill="white"/>
<path fill-rule="evenodd" clip-rule="evenodd" d="M114.174 77.4769C114.735 75.719 115.617 74.8489 116.602 74.9975C117.435 75.123 118.038 76.0016 117.947 76.8606L117.929 77.0143C117.889 77.3639 117.864 77.8144 117.853 78.3404C117.844 78.7682 117.845 79.2196 117.852 79.668L117.853 79.7571L117.879 79.7382C118.362 79.3885 118.876 79.0389 119.405 78.7077L119.582 78.598C120.212 78.2113 120.824 77.876 121.407 77.607C122.357 77.1686 123.196 76.9197 123.905 76.9034C124.789 76.8785 125.348 77.0291 125.576 77.4672C125.807 77.9116 125.588 78.404 125.061 78.9803C124.23 79.8888 122.464 81.154 119.95 82.6696C119.749 82.7903 119.488 82.7274 119.366 82.5292C119.244 82.3309 119.308 82.0724 119.508 81.9517L119.798 81.7758C122.092 80.3784 123.702 79.2137 124.432 78.4159C124.611 78.2207 124.728 78.0557 124.784 77.9309C124.797 77.9009 124.805 77.8762 124.81 77.8571L124.812 77.8468C124.797 77.8392 124.763 77.8239 124.702 77.8062L124.68 77.8002C124.512 77.755 124.26 77.7342 123.927 77.7436C123.354 77.7568 122.618 77.9751 121.766 78.3688C121.216 78.6224 120.633 78.942 120.03 79.3123C119.458 79.6633 118.901 80.04 118.381 80.4166L118.248 80.5136C118.161 80.577 118.079 80.6378 118.003 80.6956L117.862 80.8024L117.717 80.9151C117.445 81.1313 117.041 80.9491 117.027 80.6043L117.019 80.3715C117.017 80.2982 117.014 80.2193 117.012 80.1354C116.997 79.5323 116.992 78.9079 117.005 78.323L117.009 78.1327C117.024 77.6028 117.054 77.15 117.101 76.7928C117.158 76.3548 116.841 75.8837 116.474 75.8285C116.003 75.7574 115.434 76.3189 114.984 77.7281L114.882 78.0563C114.145 80.462 113.843 82.0348 113.843 83.2477C113.856 86.8074 115.702 88.1055 118.995 87.8846C119.947 87.8208 120.954 87.632 122.069 87.3382L122.209 87.3009C122.421 87.244 122.63 87.185 122.855 87.1194L123.794 86.8395C124.951 86.4935 126.23 85.8242 127.234 85.073C127.69 84.7319 128.055 84.3973 128.281 84.1172C128.383 83.9904 128.451 83.8817 128.482 83.8011L128.492 83.7737L128.494 83.7653L128.479 83.7357C128.294 83.3828 127.993 83.2863 127.519 83.3882L127.478 83.3974C127.2 83.4622 126.892 83.5912 126.575 83.7658C126.402 83.861 126.237 83.9634 126.088 84.0656L126.014 84.1168L125.917 84.1874L125.905 84.1964C125.721 84.3396 125.454 84.3076 125.309 84.1249C125.164 83.9423 125.197 83.6781 125.381 83.5349L125.449 83.4837C125.491 83.4534 125.543 83.4161 125.606 83.3736C125.777 83.2569 125.964 83.1403 126.163 83.0311C126.543 82.822 126.919 82.6643 127.283 82.5793C128.17 82.3721 128.911 82.6255 129.286 83.4582C129.558 84.071 128.915 84.8689 127.745 85.7437C126.695 86.5292 125.375 87.2269 124.147 87.6114L123.33 87.8567L123.094 87.9261C122.864 87.9931 122.649 88.0535 122.432 88.112C121.212 88.4404 120.108 88.6524 119.052 88.7232C117.381 88.8354 115.985 88.575 114.934 87.8352C113.675 86.9496 113.002 85.434 112.994 83.2492L112.995 83.131C113.014 81.781 113.362 80.0688 114.174 77.4769Z" fill="#2E186A"/>
<path fill-rule="evenodd" clip-rule="evenodd" d="M121.964 83.6274C121.964 83.6274 124.044 82.3386 125.445 81.1338L125.827 80.7696C125.827 80.7696 127.95 79.2566 129.081 80.0691C130.213 80.8816 127.624 83.039 124.681 84.7621" fill="white"/>
<path fill-rule="evenodd" clip-rule="evenodd" d="M127.719 79.4638C128.339 79.3445 128.89 79.4129 129.331 79.729C129.77 80.0447 129.88 80.5278 129.683 81.05C129.531 81.4513 129.2 81.8909 128.708 82.373C127.843 83.2207 126.472 84.202 124.897 85.124C124.695 85.2421 124.435 85.1759 124.316 84.9762C124.196 84.7764 124.263 84.5186 124.465 84.4005C125.985 83.5107 127.303 82.5673 128.111 81.7756C128.886 81.0158 129.054 80.569 128.832 80.4095C128.61 80.2497 128.29 80.2101 127.881 80.2888C127.553 80.3522 127.19 80.4878 126.817 80.6745C126.625 80.771 126.443 80.8747 126.277 80.9782L126.211 81.02C126.19 81.0334 126.17 81.0464 126.152 81.0588L126.098 81.0951L125.74 81.4366L125.723 81.4512C125.637 81.526 125.546 81.602 125.452 81.6793C125.187 81.8968 124.896 82.1226 124.583 82.3548C124.059 82.7434 123.499 83.1315 122.939 83.5014L122.724 83.6419C122.655 83.6871 122.588 83.7306 122.523 83.7721L122.272 83.9321L122.19 83.9838C121.991 84.1069 121.729 84.0472 121.605 83.8505C121.485 83.661 121.536 83.4135 121.718 83.2855L121.745 83.2674L121.938 83.1459L122.079 83.0554C122.201 82.9773 122.331 82.8926 122.468 82.8021C123.016 82.4402 123.564 82.0605 124.074 81.682C124.376 81.4577 124.657 81.2403 124.91 81.0323C124.969 80.9835 125.027 80.9352 125.084 80.8876L125.16 80.8222L125.533 80.467C125.54 80.46 125.547 80.4534 125.555 80.447L125.579 80.4286L125.632 80.3921C125.68 80.3594 125.745 80.317 125.824 80.2674C126.011 80.1505 126.216 80.0338 126.434 79.9246C126.871 79.7057 127.303 79.5439 127.719 79.4638Z" fill="#2E186A"/>
<path fill-rule="evenodd" clip-rule="evenodd" d="M42.3621 63.3704L30.5618 52.6536C30.5618 52.6536 33.8727 45.9713 43.4799 41.3484C48.7433 38.8127 70.2073 43.954 73.9851 45.523C77.7488 47.092 82.7009 61.4512 82.7009 61.4512L76.2065 63.6786C76.2065 63.6786 73.0937 70.7531 73.3626 71.8178C73.8719 73.8911 74.5228 94.1481 74.5228 94.1481H40.5935L42.3621 63.3704Z" fill="#6A6AF4"/>
<path fill-rule="evenodd" clip-rule="evenodd" d="M72.6213 51.7586C72.8001 51.6085 73.068 51.6304 73.2195 51.8075L73.2678 51.8657C73.2974 51.902 73.3349 51.949 73.3796 52.0067C73.5015 52.1639 73.6367 52.3483 73.7819 52.5589C74.1945 53.1576 74.6063 53.8483 74.9905 54.6228C75.9742 56.6059 76.609 58.7879 76.7279 61.1174C76.8791 64.0789 76.1795 67.0773 74.4671 70.0507C74.351 70.2524 74.0917 70.3226 73.8881 70.2076C73.6844 70.0927 73.6135 69.836 73.7296 69.6344C75.3607 66.802 76.0232 63.963 75.8801 61.1598C75.7674 58.9529 75.1643 56.8798 74.2285 54.9933C73.8629 54.2562 73.4714 53.5996 73.0806 53.0327L72.9915 52.9049C72.9039 52.7809 72.8212 52.6685 72.7442 52.5679L72.6619 52.4619L72.5718 52.3509C72.4203 52.1738 72.4424 51.9086 72.6213 51.7586Z" fill="white"/>
<path fill-rule="evenodd" clip-rule="evenodd" d="M49.3868 58.2176C49.5417 58.0433 49.8099 58.0264 49.9859 58.1797C50.1551 58.3272 50.1774 58.5784 50.0412 58.7524L50.0241 58.7729L44.5201 64.9648C44.3626 65.142 44.0905 65.155 43.9166 64.9987L43.897 64.9799L42.001 63.0467C41.8377 62.8802 41.8416 62.6141 42.0098 62.4524C42.1713 62.2972 42.4254 62.2946 42.5899 62.442L42.61 62.4612L44.1861 64.0683L49.3868 58.2176Z" fill="white"/>
<path fill-rule="evenodd" clip-rule="evenodd" d="M44.6826 87.1018C44.6826 87.1018 42.5036 90.3239 38.9381 91.2625C36.8157 91.8228 34.0001 92.4812 33.4907 92.0189C32.5286 91.1504 35.5848 89.8476 36.0375 89.6094" fill="white"/>
<path fill-rule="evenodd" clip-rule="evenodd" d="M44.9187 86.7525C45.1135 86.8816 45.1657 87.1427 45.0352 87.3355L45.0046 87.3797C44.976 87.4203 44.9362 87.475 44.8855 87.5424C44.7669 87.7001 44.6272 87.8749 44.4668 88.0627C44.0102 88.5976 43.4781 89.132 42.8746 89.6314C41.7175 90.5888 40.4381 91.3024 39.0474 91.6684L38.5502 91.7984C35.4746 92.5933 33.7808 92.8523 33.2047 92.3294C32.7565 91.9248 32.791 91.3982 33.1749 90.9271C33.4463 90.5941 33.8926 90.2682 34.4864 89.9288C34.716 89.7976 34.9538 89.6723 35.2164 89.5416L35.8028 89.256C35.8197 89.2476 35.8321 89.2414 35.8383 89.2382C36.0454 89.1293 36.3024 89.2072 36.4123 89.4121C36.5223 89.6171 36.4437 89.8716 36.2366 89.9805L36.1916 90.0031C36.0684 90.0641 35.7685 90.2084 35.7074 90.2384C35.4137 90.3825 35.1555 90.517 34.9108 90.6568C34.4009 90.9482 34.0246 91.223 33.8356 91.455L33.8036 91.495C33.707 91.6188 33.7114 91.6494 33.7775 91.709C33.8662 91.7896 34.5475 91.7795 35.5371 91.61C36.4253 91.4579 37.5119 91.204 38.829 90.8562C40.089 90.5245 41.2619 89.8703 42.3302 88.9864C42.8938 88.5201 43.3919 88.0199 43.8185 87.5201C43.9487 87.3676 44.0637 87.225 44.163 87.0952L44.247 86.9834C44.2603 86.9654 44.2727 86.9484 44.2842 86.9324L44.3298 86.8679C44.4602 86.675 44.7239 86.6234 44.9187 86.7525Z" fill="#2E186A"/>
<path fill-rule="evenodd" clip-rule="evenodd" d="M36.4054 87.8162C33.4765 87.4099 31.2693 88.6707 32.4578 89.6654C32.8964 90.0436 39.4757 90.4779 41.3009 89.8475C42.7158 89.3712 43.0979 88.9089 45.3476 87.0597L43.2111 85.897L40.8057 86.5974L36.4054 87.8162Z" fill="white"/>
<path fill-rule="evenodd" clip-rule="evenodd" d="M32.7292 89.3419L32.7213 89.3339C32.7195 89.3315 32.7208 89.3311 32.7245 89.3319L32.7426 89.3376C32.7907 89.3534 32.8572 89.3707 32.9397 89.3886L32.976 89.3963C33.1714 89.4369 33.4345 89.4778 33.7501 89.5165L33.8185 89.5248C34.4965 89.6054 35.3614 89.6713 36.2546 89.7097L36.564 89.7218C38.6178 89.7949 40.3722 89.7075 41.1305 89.4609L41.2047 89.4359C41.6622 89.2797 41.9951 89.1276 42.3266 88.9237L42.3972 88.8795C42.6577 88.7137 42.9357 88.5054 43.3335 88.1819L43.5993 87.9627C43.9916 87.6372 44.7593 86.997 45.0764 86.7363C45.2568 86.5881 45.5244 86.6126 45.6742 86.7912C45.8239 86.9698 45.7991 87.2348 45.6187 87.383L43.9289 88.7853L43.8093 88.8826C43.3823 89.2277 43.0791 89.4504 42.7745 89.6377C42.409 89.8625 42.042 90.0336 41.571 90.1994L41.4408 90.2443L41.3873 90.262C39.5725 90.837 32.8523 90.5629 32.1838 89.9863C31.3405 89.2806 31.6505 88.3687 32.6946 87.8411C33.6131 87.377 35.0118 87.1985 36.4643 87.4C36.6964 87.4322 36.8583 87.6446 36.8258 87.8745C36.7932 88.1043 36.5787 88.2646 36.3465 88.2324C35.0569 88.0535 33.8326 88.2098 33.0805 88.5898C32.5218 88.8721 32.439 89.0874 32.7183 89.3327L32.7292 89.3419Z" fill="#2E186A"/>
<path fill-rule="evenodd" clip-rule="evenodd" d="M44.9938 87.4939C45.8428 86.4713 46.3804 85.5747 46.6493 84.7622C46.6493 84.7622 47.2011 83.1231 46.9888 82.3386C45.956 78.5282 44.5977 71.1315 39.7162 64.6453L41.4566 62.53L31.4108 53.4102C30.1657 55.2313 28.9772 56.9544 27.9867 58.4113C26.2888 60.8769 26.4445 64.141 28.3687 66.4385L39.9143 80.2093L39.1786 82.4927C38.0891 82.997 35.3018 84.426 35.3018 84.426C32.288 85.4906 33.9152 86.3732 35.3301 86.2891C36.745 86.2051 38.8815 85.2245 39.1786 85.0003C39.1786 85.0003 36.1507 86.5273 34.3113 86.2471C33.1087 86.2751 32.3305 87.4519 32.3871 87.8161C32.4437 88.1804 33.7737 88.1383 35.6979 88.2644C37.6222 88.3905 39.4899 87.2978 39.4899 87.2978" fill="white"/>
<path fill-rule="evenodd" clip-rule="evenodd" d="M45.9411 79.9506L45.8165 79.4625C45.5305 78.3511 45.2752 77.4231 44.9886 76.4754C44.1497 73.701 43.1664 71.2135 41.9001 68.8578C41.1489 67.4603 40.3113 66.1395 39.3759 64.8966C39.2655 64.7499 39.2642 64.5505 39.3696 64.4029L39.3872 64.38L40.8746 62.572L31.4861 54.049L28.3374 58.6482C26.7622 60.9357 26.8892 63.9558 28.6418 66.1053L28.6954 66.1702L40.241 79.941C40.3272 80.0439 40.3585 80.1808 40.3266 80.3097L40.3187 80.3371L39.583 82.6206C39.547 82.7322 39.4656 82.8239 39.3584 82.8736L39.1111 82.9899C38.8228 83.1274 38.4499 83.3101 38.0086 83.5296L37.5721 83.7476L36.9687 84.0511C36.8322 84.12 36.6945 84.1897 36.5563 84.2597L35.4969 84.7993C35.48 84.808 35.4624 84.8155 35.4444 84.8219L35.3144 84.8688C34.7219 85.0872 34.3262 85.2992 34.126 85.4849C34.0792 85.5283 34.0506 85.563 34.0358 85.587L34.0335 85.5909L34.0349 85.5926C34.0832 85.644 34.2069 85.713 34.3866 85.7688L34.4233 85.7797C34.5433 85.8142 34.6757 85.8399 34.8134 85.8558L34.8613 85.8606L34.9238 85.8592C35.2118 85.8495 35.5335 85.8074 35.8832 85.7349L35.9644 85.7176C36.4574 85.6102 36.9859 85.4487 37.5297 85.2474C37.8985 85.1108 38.252 84.9644 38.5773 84.818L38.6868 84.7682C38.722 84.7521 38.7558 84.7364 38.7881 84.7212L38.9386 84.6493C38.9602 84.6388 38.976 84.631 38.9859 84.626C39.4468 84.3935 39.8472 85.0244 39.4358 85.3347C38.8456 85.78 36.5895 86.6355 35.3555 86.7088C35.2064 86.7176 35.057 86.7176 34.9103 86.709L34.8115 86.7018L34.7451 86.7017C34.5959 86.6998 34.4524 86.6901 34.315 86.6722L34.2898 86.6686L34.2726 86.6694C33.8838 86.6918 33.5174 86.8728 33.218 87.1622L33.181 87.199C33.0491 87.333 32.9415 87.4797 32.8725 87.6129L32.8588 87.6401L32.8756 87.644C32.894 87.648 32.9136 87.6519 32.9345 87.6557L32.9669 87.6615C33.1987 87.701 33.5088 87.7266 34.0746 87.7564L34.9154 87.7985C35.2139 87.8138 35.4704 87.8284 35.726 87.8452C36.5369 87.8983 37.4119 87.7222 38.2772 87.3939C38.5451 87.2922 38.7917 87.1833 39.0108 87.0747L39.0975 87.031C39.1249 87.0169 39.1508 87.0034 39.1752 86.9904L39.2739 86.9361C39.4758 86.818 39.7361 86.8843 39.8553 87.0841C39.9746 87.2839 39.9076 87.5416 39.7058 87.6597L39.6519 87.6904C39.5894 87.725 39.5016 87.7714 39.3908 87.8263C39.1479 87.9467 38.8761 88.0667 38.581 88.1787C37.6107 88.5469 36.6207 88.7462 35.6699 88.6839L35.3306 88.6629C35.2149 88.6562 35.0952 88.6496 34.9682 88.6429L33.9674 88.5925C33.4262 88.5633 33.1112 88.537 32.8515 88.4946L32.8229 88.4898C32.3239 88.4048 32.0264 88.2586 31.9675 87.8801C31.8784 87.3067 32.4779 86.5111 33.2868 86.0988L33.3377 86.0734L33.3307 86.0641C33.3235 86.0543 33.3166 86.0444 33.31 86.0343L33.2907 86.0039C33.0662 85.6315 33.1762 85.2142 33.5456 84.8715C33.8508 84.5883 34.3588 84.3191 35.0834 84.0573L35.1316 84.04L35.7529 83.7231L36.1695 83.5115C36.3775 83.4061 36.5843 83.3016 36.7876 83.1992L37.4952 82.8444C37.9231 82.631 38.2928 82.449 38.5921 82.3048L38.8302 82.1909L39.4392 80.3007L28.042 66.7069C26.0173 64.2895 25.8351 60.8643 27.5811 58.2556L29.7518 55.0825C30.3912 54.1495 30.946 53.3404 31.0593 53.1747C31.1996 52.9695 31.486 52.9297 31.6775 53.0833L31.6977 53.1005L41.7435 62.2203C41.9025 62.3647 41.9259 62.603 41.802 62.7744L41.7857 62.7955L40.2528 64.6585L40.3287 64.7616C41.1365 65.8698 41.8707 67.0357 42.5388 68.2585L42.6495 68.4629C43.9448 70.8725 44.948 73.4104 45.8019 76.2343L45.8803 76.4958C46.1264 77.3229 46.3528 78.1478 46.5998 79.1024L46.8055 79.9079L47.1852 81.4142C47.2671 81.7349 47.334 81.9906 47.3989 82.23C47.4835 82.543 47.4792 82.9371 47.4109 83.406C47.3748 83.6538 47.3216 83.9147 47.2557 84.1814C47.2115 84.3602 47.1642 84.5312 47.1168 84.6889L47.0752 84.8237C47.066 84.8528 47.0584 84.8762 47.0527 84.8931C46.7629 85.7689 46.1938 86.7104 45.3218 87.7609C45.1729 87.9402 44.9054 87.9661 44.7243 87.8187C44.5432 87.6713 44.5171 87.4065 44.6659 87.2272C45.453 86.2791 45.9631 85.4453 46.2242 84.6953L46.2613 84.5841L46.2919 84.4862C46.2956 84.4742 46.2993 84.4619 46.3031 84.4493C46.3467 84.3041 46.3904 84.1462 46.4311 83.9816C46.4909 83.7395 46.5389 83.5045 46.5707 83.286C46.624 82.9202 46.6272 82.6262 46.5789 82.4477L46.5191 82.2246C46.4581 81.9947 46.3926 81.7407 46.3131 81.4272L45.9411 79.9506Z" fill="#2E186A"/>
<path fill-rule="evenodd" clip-rule="evenodd" d="M60.4446 83.6415L65.9344 83.7956L70.6319 61.9416C70.7309 61.4513 71.1271 61.1151 71.594 61.1291L106.302 61.6474C106.938 61.6614 107.405 62.3198 107.264 62.9923L102.863 86.3032C102.552 87.7461 100.713 88.8668 99.3968 88.8388C90.8649 88.6987 65.2835 88.2224 64.279 88.2084C59.6522 88.1243 60.4446 83.6415 60.4446 83.6415Z" fill="#2E186A"/>
<path fill-rule="evenodd" clip-rule="evenodd" d="M93.5816 84.7343C93.5816 84.7343 96.6519 82.8851 97.3027 84.3981C97.9536 85.9111 92.6619 88.2505 92.6619 88.2505" fill="white"/>
<path fill-rule="evenodd" clip-rule="evenodd" d="M95.3963 83.5036C96.4806 83.2269 97.3321 83.3937 97.6933 84.2333C97.9367 84.7992 97.6874 85.388 97.1027 85.9875C96.6618 86.4395 96.0217 86.9066 95.2307 87.3831C94.706 87.6992 94.1457 88.0008 93.5857 88.2783L93.4212 88.3591C93.314 88.4113 93.2118 88.4601 93.1154 88.5054L92.9257 88.5933L92.8349 88.6342C92.6209 88.7288 92.3699 88.6337 92.2743 88.4218C92.1787 88.2098 92.2748 87.9613 92.4888 87.8667L92.5706 87.8297L92.6832 87.7779C92.8407 87.7047 93.0164 87.6205 93.2057 87.5267C93.7463 87.2587 94.2868 86.9679 94.7894 86.6651C95.5238 86.2227 96.1113 85.7939 96.492 85.4036C96.8655 85.0207 96.9864 84.7351 96.9122 84.5626C96.7629 84.2155 96.3359 84.1318 95.6083 84.3176C95.3146 84.3925 94.9967 84.5078 94.6688 84.6524C94.4486 84.7495 94.2373 84.8539 94.0432 84.9581L93.9655 85.0003L93.8627 85.058C93.8321 85.0755 93.8116 85.0875 93.8022 85.0932C93.6019 85.2139 93.3408 85.1509 93.2189 84.9526C93.0971 84.7543 93.1607 84.4957 93.361 84.3751L93.4358 84.3313C93.4885 84.3011 93.5568 84.2631 93.6385 84.2192C93.851 84.1051 94.0816 83.9912 94.3233 83.8846C94.6913 83.7223 95.0521 83.5915 95.3963 83.5036Z" fill="#2E186A"/>
<path fill-rule="evenodd" clip-rule="evenodd" d="M79.9419 88.2506C87.3843 91.6828 91.629 91.2205 93.9636 86.9057C95.7039 83.6837 97.8404 78.6545 96.3972 78.4724C94.8974 78.6685 93.1995 83.7958 93.1995 83.7958C93.1995 83.7958 96.1284 77.6178 94.5578 77.8139C93.3552 77.9821 92.3364 79.6351 91.0913 83.4315C91.0913 83.4315 92.9873 79.2429 92.9448 78.4724C92.8458 76.301 90.9923 75.0822 89.0256 83.2634L90.0726 79.2148C90.398 77.3657 88.6152 78.2342 87.6531 80.1254C86.6202 82.1567 84.7809 85.3788 84.1159 87.34" fill="white"/>
<path fill-rule="evenodd" clip-rule="evenodd" d="M85.3244 83.6536L85.5293 83.257L85.7751 82.7874C85.9597 82.4392 86.9948 80.4833 87.2642 79.9556L87.274 79.9362C87.7713 78.9588 88.5154 78.1618 89.1788 77.881C89.6665 77.6745 90.0604 77.7547 90.2947 78.0453L90.315 78.0716L90.3306 78.0418C90.6952 77.3502 91.0631 76.8874 91.4315 76.6476L91.4606 76.6292C91.9968 76.2974 92.5478 76.4226 92.9083 76.9041C93.1035 77.1649 93.2403 77.5243 93.3128 77.935L93.3211 77.9842L93.3278 77.9781C93.6861 77.6551 94.0597 77.4685 94.4616 77.4034L94.5047 77.3969C94.882 77.3498 95.1927 77.5196 95.3415 77.8509C95.4221 78.0305 95.4526 78.2468 95.4442 78.5044L95.4427 78.5359L95.4753 78.5058C95.5271 78.4589 95.579 78.4154 95.6309 78.3755L95.6699 78.3462C95.8873 78.1865 96.1104 78.0858 96.3416 78.0556C96.3779 78.0509 96.4146 78.0508 96.4509 78.0554C97.0766 78.1343 97.3289 78.6674 97.2946 79.4323C97.269 80.0027 97.0893 80.7617 96.7766 81.6829C96.2401 83.2632 95.3126 85.2992 94.3377 87.1041C91.8608 91.682 87.346 92.1287 79.7627 88.6315C79.5502 88.5335 79.4581 88.2835 79.5571 88.073C79.6561 87.8626 79.9086 87.7715 80.1211 87.8695C87.3469 91.2018 91.373 90.8035 93.5893 86.7074C94.5201 84.9841 95.4078 83.0433 95.9331 81.5279L95.9719 81.4151C96.2614 80.562 96.4252 79.8707 96.4465 79.3951C96.4563 79.1767 96.4348 79.0194 96.394 78.9331L96.3861 78.9171C96.3849 78.9148 96.3838 78.9128 96.3827 78.9109L96.3801 78.907L96.3645 78.9126C96.3166 78.9312 96.2633 78.9601 96.2052 79.0003L96.1757 79.0213C95.7939 79.3016 95.3531 79.9362 94.8982 80.8193L94.8592 80.8952L94.8427 80.9423C94.7572 81.182 94.6646 81.4297 94.5656 81.6838L94.5054 81.837C94.3039 82.3466 94.0883 82.8558 93.8726 83.3408L93.8092 83.4826C93.7783 83.5516 93.7484 83.6177 93.7197 83.6806L93.5838 83.9742C93.3612 84.4437 92.6536 84.1747 92.7889 83.6888L92.8024 83.6462L92.8774 83.4285L92.9281 83.2858C92.9806 83.1393 93.0386 82.9818 93.1016 82.8154C93.3418 82.1812 93.6062 81.5467 93.8877 80.9526C93.9223 80.8796 93.9568 80.8077 93.9914 80.7371L94.0766 80.5648L94.1007 80.496C94.3577 79.7556 94.5241 79.1395 94.5779 78.6966L94.5834 78.6481C94.6017 78.4743 94.5995 78.3405 94.5841 78.2566L94.5798 78.2359L94.5591 78.2398C94.0848 78.3341 93.6112 78.773 93.1099 79.634L93.0892 79.6699L93.0778 79.7035C92.9711 80.0146 92.8365 80.3738 92.6757 80.7814L92.5702 81.0465C92.5191 81.1738 92.4662 81.3041 92.4116 81.437C92.2483 81.8346 92.0758 82.242 91.9015 82.6446L91.7381 83.0194L91.4787 83.6033C91.2593 84.0879 90.522 83.8067 90.6876 83.3016L90.7635 83.0721C91.2928 81.483 91.7868 80.2644 92.286 79.3702L92.3049 79.3365L92.3471 79.209C92.4601 78.8612 92.5218 78.6149 92.5212 78.5036L92.5208 78.4912C92.4993 78.0187 92.385 77.6166 92.2262 77.4046C92.1214 77.2645 92.0587 77.2503 91.9106 77.3419C91.3213 77.7066 90.5995 79.1476 89.8791 81.6743L89.8275 81.8565L89.4368 83.3676C89.2998 83.8973 88.5084 83.7127 88.6072 83.1915L88.6126 83.166C88.7261 82.694 88.8404 82.2475 88.9555 81.8263L89.0094 81.6311L89.6569 79.1272L89.6621 79.0966C89.686 78.9461 89.6923 78.8221 89.6836 78.7269L89.6805 78.6991C89.6764 78.6672 89.6706 78.6412 89.664 78.6211L89.6604 78.6114L89.6536 78.612C89.6248 78.6151 89.5853 78.6251 89.5373 78.6438L89.5126 78.6538C89.0668 78.8425 88.4756 79.4688 88.0622 80.2564L87.7889 80.784C87.34 81.6429 86.54 83.1534 86.5015 83.2257L86.3368 83.5405C86.2837 83.6423 86.2323 83.7414 86.1821 83.8385L86.0334 84.1275C85.2898 85.5797 84.795 86.6574 84.5183 87.4737C84.4437 87.6937 84.203 87.8122 83.9808 87.7383C83.7585 87.6645 83.6389 87.4262 83.7135 87.2062L83.7529 87.0921C84.0579 86.2258 84.5698 85.1223 85.3244 83.6536Z" fill="#2E186A"/>
<rect width="2.40334" height="4.19227" transform="matrix(-0.957493 0.288457 -0.293759 -0.95588 60.5956 11.5208)" fill="#FF8D7E"/>
<path fill-rule="evenodd" clip-rule="evenodd" d="M56.9922 8.93179C59.3287 8.93179 61.2228 7.05646 61.2228 4.74312C61.2228 2.42978 59.3287 0.554443 56.9922 0.554443C54.6557 0.554443 52.7617 2.42978 52.7617 4.74312C52.7617 7.05646 54.6557 8.93179 56.9922 8.93179Z" fill="#2E186A"/>
<path fill-rule="evenodd" clip-rule="evenodd" d="M58.8315 9.85631C62.5527 9.09983 67.4483 9.33798 70.9006 11.1171C81.3143 17.0989 81.2719 24.3836 76.7159 27.5216C77.0555 21.89 76.2773 19.6486 74.3813 18.1356C72.1599 21.2736 64.4628 24.2575 58.1807 23.6271C58.1807 23.5991 57.5864 29.2027 58.1382 29.2307C58.1948 29.5669 58.9872 32.6769 58.9872 32.6769L57.5015 38.5466L42.6451 34.5681C41.7961 34.456 41.2443 33.5594 41.5414 32.7889C43.3525 27.9839 46.8473 12.462 58.8315 9.85631Z" fill="#2E186A"/>
<path fill-rule="evenodd" clip-rule="evenodd" d="M67.6888 38.5186L67.1228 43.4498L68.849 44.0241C69.0896 44.5004 71.3958 51.4208 63.7129 51.0146C58.7042 50.7484 52.5777 45.0328 51.9127 41.5025L53.37 41.4745C55.5348 41.2924 56.9497 39.9896 57.5864 37.9302L59.3126 32.3267L67.6888 38.5186Z" fill="white"/>
<path fill-rule="evenodd" clip-rule="evenodd" d="M57.1804 37.8077L57.1595 37.8742C56.5522 39.7693 55.2729 40.8697 53.3997 41.0499L53.3464 41.0546L51.9044 41.0824C51.6422 41.0875 51.4473 41.3244 51.4954 41.5797C51.8429 43.4242 53.5565 45.8046 55.9075 47.8016C58.4044 49.9226 61.2382 51.304 63.6902 51.4343C67.272 51.6237 69.1893 50.2888 69.6684 47.9334C69.8371 47.1042 69.8118 46.2041 69.6461 45.2995L69.624 45.1838C69.5099 44.6068 69.3402 44.057 69.2287 43.8363L69.2154 43.8119C69.1638 43.7246 69.0818 43.6583 68.9843 43.6258L67.5833 43.1597L68.1106 38.5662C68.1276 38.4177 68.0637 38.2714 67.9428 38.1819L59.5666 31.99C59.331 31.8159 58.9924 31.9258 58.9066 32.2041L57.1804 37.8077ZM59.5424 33.021L67.2396 38.7109L66.7011 43.4024L66.699 43.428C66.689 43.6152 66.8062 43.7878 66.9877 43.8482L68.5279 44.3607L68.5345 44.3792C68.5565 44.4421 68.5813 44.5175 68.6061 44.599C68.6837 44.8547 68.7549 45.1448 68.8108 45.4496C68.9588 46.2575 68.9812 47.0546 68.8362 47.7674C68.4437 49.6967 66.9123 50.763 63.7356 50.595C61.4975 50.4761 58.8274 49.1744 56.4603 47.1637L56.3832 47.0978C54.4359 45.426 52.9719 43.4908 52.4679 41.9537L52.4546 41.9125L53.3783 41.8948L53.406 41.8933C55.6952 41.7008 57.2887 40.3292 57.9923 38.0533L59.5424 33.021Z" fill="#2E186A"/>
<path fill-rule="evenodd" clip-rule="evenodd" d="M59.2136 31.0379L58.3646 31.108C58.3646 31.108 53.4549 31.136 53.8652 26.6671C54.1765 23.277 57.5298 23.8653 59.1287 24.3416" fill="white"/>
<path fill-rule="evenodd" clip-rule="evenodd" d="M55.9295 23.6426C56.9244 23.442 58.0719 23.5879 59.251 23.9392C59.4755 24.0061 59.6027 24.2404 59.5352 24.4627C59.4676 24.685 59.2309 24.8109 59.0064 24.7441C57.9497 24.4293 56.9271 24.2993 56.0988 24.4663C55.0387 24.68 54.4117 25.3577 54.288 26.7052C54.1199 28.5357 54.874 29.6392 56.2722 30.2417C56.7235 30.4362 57.2117 30.5622 57.7017 30.6319C57.8751 30.6566 58.0363 30.6724 58.1811 30.681L58.2529 30.6847L58.3482 30.6875L59.1783 30.6191C59.4036 30.6005 59.6024 30.7597 59.6338 30.9784L59.6366 31.003C59.6554 31.226 59.4946 31.4229 59.2736 31.454L59.2488 31.4567L58.3999 31.5268L58.3835 31.5278L58.3653 31.5282L58.3056 31.5275C58.267 31.5267 58.2197 31.5249 58.1644 31.5219L58.1302 31.52C57.9628 31.5101 57.7784 31.492 57.5809 31.4639C57.0208 31.3842 56.4607 31.2396 55.9334 31.0124C54.2167 30.2727 53.2393 28.8423 53.4425 26.6291C53.6006 24.9081 54.5058 23.9296 55.9295 23.6426Z" fill="#2E186A"/>
<path fill-rule="evenodd" clip-rule="evenodd" d="M76.7159 27.5356C77.0554 21.904 76.2773 19.8727 74.3813 18.3738C72.1882 21.4698 65.3259 24.4677 58.3363 23.6692C58.0958 24.4256 58.2939 23.7532 58.1524 24.5937C58.0675 25.4763 57.9967 26.4709 57.9543 27.3255C58.0392 30.5616 58.973 32.7049 58.973 32.7049C60.2464 36.025 62.7225 38.7428 66.4154 39.5973C72.8532 41.0963 75.8952 32.2286 76.3338 30.2394C76.5602 29.2307 76.7159 27.5356 76.7159 27.5356Z" fill="white"/>
<path fill-rule="evenodd" clip-rule="evenodd" d="M74.0338 18.1326C72.9792 19.6213 70.7648 21.0906 68.0118 22.0873C64.999 23.1781 61.6141 23.6207 58.385 23.2518C58.1828 23.2287 57.9926 23.3509 57.9315 23.5431L57.8202 23.8917L57.8025 23.9518C57.7877 24.0062 57.7816 24.0461 57.7824 24.0969L57.7834 24.1234C57.7838 24.1305 57.7847 24.1417 57.785 24.1443L57.7837 24.1697L57.7786 24.2225C57.7709 24.2903 57.7565 24.3892 57.7337 24.5248L57.7298 24.554C57.6463 25.4221 57.5742 26.4216 57.5304 27.305C57.5298 27.3155 57.5297 27.326 57.53 27.3365C57.5677 28.7731 57.7683 30.1062 58.0769 31.3045C58.177 31.6929 58.2824 32.043 58.3881 32.3516L58.432 32.4776C58.4767 32.6035 58.5154 32.7055 58.5464 32.7826L58.5762 32.8543C59.9942 36.5514 62.6949 39.1681 66.3188 40.0067C69.3774 40.7188 71.9411 39.3236 73.9714 36.4685C75.3111 34.5846 76.3402 32.1064 76.729 30.4159L76.7486 30.3291C76.8498 29.8781 76.9435 29.2737 77.0284 28.5827C77.0522 28.3888 77.074 28.1984 77.0937 28.0162L77.1233 27.7321C77.1299 27.6659 77.1351 27.6126 77.1386 27.574C77.4676 22.1219 76.8096 19.7559 74.6462 18.0455C74.4549 17.8943 74.1744 17.9341 74.0338 18.1326ZM58.633 24.1335L58.6363 24.1233L58.7405 24.1334C61.9665 24.4286 65.31 23.9604 68.3033 22.8767L68.4092 22.8381C71.0167 21.8785 73.1722 20.5061 74.4043 19.0351L74.4475 18.9827L74.4967 19.0279C76.0961 20.5166 76.5834 22.6803 76.2922 27.5107L76.2636 27.7947C76.2454 27.9688 76.2251 28.152 76.2028 28.3396L76.1856 28.4812C76.1075 29.1169 76.0219 29.6756 75.9323 30.0901L75.9195 30.1483C75.5689 31.7385 74.5698 34.167 73.2773 35.9846C71.4266 38.5871 69.1804 39.8095 66.5126 39.1884C63.1822 38.4177 60.6932 36.006 59.3699 32.5559L59.3379 32.4783L59.323 32.4406C59.2968 32.3741 59.2682 32.2977 59.2375 32.2118L59.2188 32.159C59.1113 31.8524 59.0026 31.497 58.8995 31.0968L58.8673 30.9696C58.6026 29.9051 58.4272 28.729 58.3833 27.4666L58.3791 27.3309L58.3887 27.1434C58.4289 26.3928 58.4881 25.5727 58.5562 24.8333L58.5735 24.6484L58.5967 24.5058C58.6242 24.3302 58.6332 24.2373 58.6334 24.1549L58.633 24.1335Z" fill="#2E186A"/>
<path fill-rule="evenodd" clip-rule="evenodd" d="M72.0899 24.1037C72.3159 24.0967 72.5062 24.2658 72.5261 24.4859L72.5276 24.5105L72.7681 32.0473C72.7762 32.2999 72.5596 32.5003 72.309 32.4795L72.2839 32.4766L70.402 32.2105C70.17 32.1776 70.0087 31.9648 70.0419 31.735C70.0738 31.5134 70.2749 31.3571 70.4973 31.3756L70.5221 31.3784L71.9036 31.5738L71.6791 24.5371C71.6719 24.3134 71.8427 24.125 72.065 24.1052L72.0899 24.1037Z" fill="#2E186A"/>
<path fill-rule="evenodd" clip-rule="evenodd" d="M66.8883 23.2111C67.5313 22.817 68.2138 22.6616 68.8805 22.9164C69.0936 22.9978 69.2953 23.1201 69.4831 23.2837C69.6591 23.437 69.6763 23.7025 69.5215 23.8768C69.3667 24.0511 69.0985 24.0681 68.9225 23.9148C68.8089 23.8159 68.6932 23.7458 68.5748 23.7005C68.2037 23.5587 67.7747 23.6564 67.3352 23.9258C67.2261 23.9926 67.126 24.0646 67.038 24.1361L66.988 24.1777C66.9643 24.1979 66.9477 24.213 66.9389 24.2217C66.7714 24.3841 66.5026 24.3814 66.3386 24.2155C66.1745 24.0497 66.1773 23.7837 66.3448 23.6212C66.4564 23.513 66.6426 23.3617 66.8883 23.2111Z" fill="#2E186A"/>
<path fill-rule="evenodd" clip-rule="evenodd" d="M66.8401 33.2878C67.0698 33.2415 67.2939 33.3883 67.3407 33.6158C67.433 34.0645 67.7094 34.3264 68.1501 34.4651C68.4483 34.559 68.7747 34.5815 69.0539 34.5621L69.1077 34.5574C69.3403 34.5286 69.5525 34.692 69.5815 34.9223C69.6106 35.1526 69.4456 35.3627 69.213 35.3915L69.1817 35.3949C69.1631 35.3967 69.1402 35.3987 69.1134 35.4005C68.7364 35.4267 68.3097 35.3974 67.8928 35.2661C67.1787 35.0413 66.6681 34.5574 66.5089 33.7835C66.4621 33.5561 66.6104 33.3342 66.8401 33.2878Z" fill="#2E186A"/>
<path fill-rule="evenodd" clip-rule="evenodd" d="M74.5475 24.2491C74.9685 24.1339 75.4031 24.089 75.824 24.1586C76.4259 24.2581 76.9206 24.5857 77.2324 25.1673C77.3422 25.3723 77.2634 25.6267 77.0564 25.7355C76.8493 25.8443 76.5923 25.7663 76.4825 25.5613C76.3001 25.221 76.0353 25.0457 75.6841 24.9876C75.4029 24.9411 75.0855 24.9739 74.7735 25.0593C74.7138 25.0756 74.6584 25.0928 74.6082 25.11L74.5306 25.1383L74.5087 25.1471C74.2938 25.2399 74.0436 25.1428 73.9499 24.93C73.8561 24.7173 73.9542 24.4696 74.1691 24.3767L74.2131 24.3585C74.2932 24.3266 74.4069 24.2875 74.5475 24.2491Z" fill="#2E186A"/>
<path fill-rule="evenodd" clip-rule="evenodd" d="M68.6896 27.3813C68.783 26.8556 68.578 26.3804 68.2316 26.3201C67.8853 26.2598 67.5288 26.6372 67.4354 27.163C67.3421 27.6888 67.5471 28.1639 67.8934 28.2242C68.2398 28.2845 68.5962 27.9071 68.6896 27.3813Z" fill="#2E186A"/>
<path fill-rule="evenodd" clip-rule="evenodd" d="M75.2938 28.4961C75.3872 27.9703 75.1822 27.4952 74.8358 27.4349C74.4895 27.3746 74.133 27.7519 74.0396 28.2777C73.9462 28.8035 74.1513 29.2786 74.4976 29.3389C74.844 29.3992 75.2004 29.0219 75.2938 28.4961Z" fill="#2E186A"/>
<path fill-rule="evenodd" clip-rule="evenodd" d="M62.5684 25.0917C62.0351 28.1471 63.518 30.9866 65.9536 31.3979C68.3892 31.8092 70.75 29.6187 71.2832 26.5633C71.8165 23.5078 70.3336 20.6683 67.898 20.257C65.4624 19.8458 63.1016 22.0363 62.5684 25.0917ZM63.4039 25.2328C63.8646 22.5934 65.8372 20.7631 67.7532 21.0866C69.6693 21.4102 70.9083 23.7829 70.4477 26.4222C69.9871 29.0615 68.0144 30.8919 66.0984 30.5683C64.1824 30.2448 62.9433 27.8721 63.4039 25.2328Z" fill="#FF8D7E"/>
<path fill-rule="evenodd" clip-rule="evenodd" d="M72.9842 27.2365C72.4509 30.2919 73.9338 33.1314 76.3694 33.5427C78.805 33.9539 81.1658 31.7635 81.6991 28.708C82.2323 25.6526 80.7494 22.8131 78.3138 22.4018C75.8783 21.9906 73.5175 24.181 72.9842 27.2365ZM73.8198 27.3775C74.2804 24.7382 76.253 22.9079 78.1691 23.2314C80.0851 23.5549 81.3242 25.9276 80.8635 28.567C80.4029 31.2063 78.4303 33.0366 76.5142 32.7131C74.5982 32.3895 73.3591 30.0169 73.8198 27.3775Z" fill="#FF8D7E"/>
<path fill-rule="evenodd" clip-rule="evenodd" d="M70.48 26.134C70.5106 25.9123 70.7106 25.7546 70.9331 25.7718L70.9579 25.7744L73.4482 26.1106C73.6805 26.142 73.8431 26.3538 73.8114 26.5838C73.7809 26.8056 73.5808 26.9632 73.3583 26.9461L73.3335 26.9435L70.8432 26.6072C70.611 26.5759 70.4483 26.364 70.48 26.134Z" fill="#FF8D7E"/>
<path fill-rule="evenodd" clip-rule="evenodd" d="M57.7564 23.6554L63.1755 23.8375C63.4098 23.8454 63.5933 24.0398 63.5853 24.2718C63.5777 24.4955 63.3948 24.6724 63.1717 24.6777L63.1467 24.6776L57.7276 24.4954C57.4933 24.4876 57.3099 24.2931 57.3178 24.0612C57.3255 23.8375 57.5084 23.6606 57.7315 23.6553L57.7564 23.6554Z" fill="#FF8D7E"/>
<path fill-rule="evenodd" clip-rule="evenodd" d="M40.8482 55.3155L48.1774 52.878L44.1025 44.8508L35.9244 49.0675L40.8482 55.3155Z" fill="white"/>
<path fill-rule="evenodd" clip-rule="evenodd" d="M44.7533 45.6074C44.7533 45.6074 47.2718 49.1797 48.0642 50.3144C49.3376 52.1496 48.9839 54.2509 46.8615 53.4244" fill="white"/>
<path fill-rule="evenodd" clip-rule="evenodd" d="M44.5103 45.2627C44.6952 45.135 44.9469 45.1731 45.0853 45.3454L45.1075 45.3754L48.414 50.0763C49.1005 51.0656 49.3844 52.1792 49.1433 52.9866C48.8542 53.9546 47.9125 54.2852 46.7061 53.8154C46.488 53.7304 46.3807 53.4865 46.4665 53.2705C46.5523 53.0545 46.7987 52.9482 47.0169 53.0332C47.796 53.3366 48.1954 53.1964 48.3292 52.7483C48.485 52.2267 48.2776 51.3886 47.7514 50.6065L46.1783 48.365L44.4052 45.8479C44.2711 45.6575 44.3181 45.3956 44.5103 45.2627Z" fill="#2E186A"/>
<path fill-rule="evenodd" clip-rule="evenodd" d="M42.8715 48.2129C42.8715 48.2129 47.3992 53.4242 47.7246 54.9232C48.0501 56.4221 46.1682 57.3467 44.6119 55.0072" fill="white"/>
<path fill-rule="evenodd" clip-rule="evenodd" d="M42.5947 47.8944C42.7724 47.743 43.0404 47.763 43.1933 47.9389L43.4048 48.1848L43.5192 48.3189C43.6558 48.4794 43.8033 48.654 43.9594 48.8404C44.5331 49.5254 45.1069 50.2302 45.643 50.9162C45.7626 51.0693 45.8791 51.2199 45.9923 51.3679L46.1045 51.515C47.2813 53.0648 47.9997 54.1904 48.1396 54.835C48.3462 55.7868 47.8404 56.6385 46.9587 56.8165C46.0569 56.9986 45.054 56.4361 44.2573 55.2385C44.1284 55.0447 44.1826 54.784 44.3783 54.6564C44.5741 54.5287 44.8374 54.5823 44.9663 54.7762C45.5897 55.7132 46.2739 56.097 46.7891 55.9929C47.1893 55.9121 47.4206 55.5227 47.3096 55.0116C47.207 54.5387 46.5143 53.4534 45.4259 52.0201C45.2803 51.8284 45.1287 51.6317 44.9715 51.4306C44.442 50.7528 43.874 50.0552 43.3059 49.377L42.9885 49.0001L42.6599 48.6148L42.5497 48.4871C42.3968 48.3111 42.417 48.0458 42.5947 47.8944Z" fill="#2E186A"/>
<path fill-rule="evenodd" clip-rule="evenodd" d="M41.0746 49.5999C41.0746 49.5999 45.3759 54.6291 44.8523 56.3241C44.2864 58.2294 41.5556 54.3769 40.5652 53.2702" fill="white"/>
<path fill-rule="evenodd" clip-rule="evenodd" d="M40.8003 49.2792C40.9723 49.135 41.2266 49.1498 41.3805 49.3086L41.4042 49.3351L41.5396 49.4962L41.7218 49.7172C41.8111 49.8266 41.9058 49.9437 42.0049 50.0679C42.4577 50.6355 42.9106 51.2337 43.3339 51.8358C43.6202 52.2428 43.8832 52.6381 44.1181 53.0175C45.0549 54.5301 45.4965 55.6759 45.2596 56.4428C45.0385 57.1871 44.4638 57.4361 43.7962 57.1478C43.3568 56.9579 42.8607 56.5435 42.271 55.9207C42.0639 55.702 41.8476 55.4598 41.6138 55.1867L41.4087 54.9429C41.0302 54.4887 40.3791 53.696 40.2475 53.549C40.0921 53.3753 40.1083 53.1097 40.2837 52.9558C40.4592 52.8018 40.7274 52.8179 40.8829 52.9916L40.9422 53.0598C41.2123 53.3755 42.0292 54.3721 42.2613 54.6431C42.4616 54.877 42.6476 55.0863 42.8244 55.2757L42.8903 55.3458C43.4059 55.8904 43.8317 56.246 44.1357 56.3773L44.175 56.3939C44.3474 56.4645 44.376 56.4383 44.4465 56.2014C44.5841 55.7558 44.1985 54.7552 43.3944 53.4569C43.1686 53.0923 42.9145 52.7104 42.6372 52.316C42.2245 51.7292 41.7816 51.1441 41.3387 50.5889L41.1692 50.3779C41.0961 50.2877 41.0262 50.2021 40.9599 50.1218L40.7507 49.8716C40.5992 49.6944 40.6214 49.4292 40.8003 49.2792Z" fill="#2E186A"/>
<path fill-rule="evenodd" clip-rule="evenodd" d="M44.7533 45.6074L47.0737 46.7141C47.1303 46.7421 47.2011 46.7701 47.2718 46.7981C48.715 47.2604 49.2527 46.7841 49.4508 46.2097C49.6489 45.6214 49.4508 44.977 48.9839 44.5567C46.2673 42.0631 39.3908 41.3346 39.3908 41.3346C37.7213 41.1385 33.3351 42.9597 34.1274 46.616C34.9197 50.2723 37.5232 54.9233 39.9709 56.2822C42.4046 57.627 42.9988 56.044 40.5794 53.2843C40.5511 53.2422 38.7824 51.0568 38.7824 51.0568" fill="white"/>
<path fill-rule="evenodd" clip-rule="evenodd" d="M35.5827 42.1933C36.7637 41.3241 38.3501 40.8139 39.3813 40.9109L39.5615 40.9311L39.7229 40.951C39.7805 40.9583 39.8419 40.9664 39.9068 40.9751L40.1338 41.0065C40.4429 41.0505 40.7775 41.1028 41.1322 41.164C42.4 41.3828 43.6683 41.6692 44.8553 42.0322C46.77 42.6177 48.2887 43.3454 49.2694 44.2457C49.8657 44.7824 50.1029 45.6018 49.8525 46.3455C49.5252 47.2947 48.6287 47.657 47.1994 47.2162L47.1412 47.1979L47.1142 47.1883L47.0087 47.1459C46.9659 47.1283 46.9352 47.1148 46.9048 47.1001L44.5691 45.9859C44.3579 45.8852 44.2692 45.634 44.3709 45.4249C44.4689 45.2236 44.7078 45.1346 44.9139 45.2183L44.9375 45.2287L47.2823 46.3471C47.2956 46.3532 47.3109 46.3599 47.3306 46.3681L47.4152 46.4022L47.4545 46.4146C48.4498 46.7237 48.8674 46.5652 49.0394 46.1011L49.0481 46.0768C49.1887 45.6593 49.0515 45.1855 48.6953 44.8648C47.8242 44.0652 46.4085 43.3869 44.6048 42.8353C43.4559 42.484 42.2214 42.2052 40.9865 41.9921C40.5972 41.9249 40.2331 41.8687 39.9018 41.8229L39.7926 41.808C39.6879 41.7939 39.5932 41.7818 39.5092 41.7715L39.3408 41.7519C38.5385 41.6577 37.1273 42.1038 36.0892 42.8679C34.8189 43.8029 34.2224 45.0509 34.5425 46.5278C35.3524 50.2655 37.9589 54.6833 40.1778 55.9152C41.139 56.4463 41.6248 56.443 41.6843 56.2167C41.7995 55.7778 41.3148 54.7642 40.2588 53.5597L40.2418 53.539L40.2125 53.5004L39.0461 52.055L38.4512 51.3196C38.3046 51.1385 38.3341 50.874 38.517 50.7288C38.6929 50.5893 38.9467 50.6109 39.0963 50.7738L39.191 50.8895L40.8378 52.9295L40.9047 53.0143L40.9544 53.0712C42.1245 54.4221 42.6932 55.6121 42.5147 56.3924L42.5059 56.4281C42.379 56.9116 41.976 57.1858 41.4358 57.1894C40.9778 57.1925 40.4124 57.0074 39.7634 56.6487C37.2966 55.2793 34.5687 50.6557 33.7124 46.7041C33.3162 44.8759 34.0641 43.311 35.5827 42.1933Z" fill="#2E186A"/>
<path fill-rule="evenodd" clip-rule="evenodd" d="M168.6 50.188L161.143 48.2268L164.695 39.9475L173.113 43.6599L168.6 50.188Z" fill="white"/>
<path fill-rule="evenodd" clip-rule="evenodd" d="M164.086 40.7461C164.086 40.7461 161.794 44.4725 161.086 45.6492C159.926 47.5544 160.421 49.6418 162.487 48.6752" fill="white"/>
<path fill-rule="evenodd" clip-rule="evenodd" d="M164.307 40.3871C164.5 40.5033 164.566 40.7474 164.461 40.9424L164.311 41.1885L163.084 43.1878L161.617 45.589L161.45 45.8661C160.947 46.6929 160.781 47.5703 160.976 48.0942C161.139 48.5348 161.548 48.6497 162.306 48.2951C162.518 48.1959 162.771 48.2856 162.871 48.4955C162.971 48.7053 162.881 48.9559 162.669 49.055C161.495 49.6043 160.531 49.3337 160.179 48.3839C159.89 47.606 160.09 46.5024 160.686 45.4934L161.119 44.778L162.121 43.1388L163.724 40.5274C163.846 40.3292 164.107 40.2663 164.307 40.3871Z" fill="#2E186A"/>
<path fill-rule="evenodd" clip-rule="evenodd" d="M166.138 43.2256C166.138 43.2256 161.95 48.7171 161.723 50.2301C161.497 51.743 163.421 52.5555 164.836 50.118" fill="white"/>
<path fill-rule="evenodd" clip-rule="evenodd" d="M166.394 42.8903C166.581 43.0302 166.618 43.2937 166.476 43.479L166.288 43.7282L166.078 44.0099C166.005 44.1085 165.928 44.2116 165.849 44.3188L165.79 44.4C165.274 45.102 164.758 45.8246 164.277 46.527C164.161 46.697 164.047 46.8641 163.938 47.0278L163.857 47.1499C162.847 48.6685 162.215 49.8104 162.143 50.2918C162.066 50.8087 162.321 51.1834 162.723 51.2394C163.242 51.3116 163.901 50.8857 164.468 49.9087C164.585 49.7075 164.844 49.6381 165.048 49.7537C165.251 49.8694 165.321 50.1263 165.204 50.3275C164.48 51.5745 163.515 52.1983 162.605 52.0718C161.716 51.9482 161.159 51.1298 161.303 50.1686C161.402 49.5123 162.056 48.3296 163.147 46.6878C163.284 46.482 163.427 46.271 163.574 46.0553C164 45.4333 164.452 44.7967 164.908 44.1723L165.103 43.9055C165.205 43.7676 165.302 43.636 165.394 43.5116L165.668 43.1457L165.799 42.9725C165.94 42.7872 166.206 42.7505 166.394 42.8903Z" fill="#2E186A"/>
<path fill-rule="evenodd" clip-rule="evenodd" d="M168.02 44.5144C168.02 44.5144 164.058 49.7958 164.666 51.4628C165.359 53.326 167.836 49.3195 168.741 48.1427" fill="white"/>
<path fill-rule="evenodd" clip-rule="evenodd" d="M168.273 44.1771C168.454 44.3102 168.497 44.5587 168.376 44.7433L168.35 44.7789L168.217 44.9598L168.082 45.147C168.004 45.2559 167.921 45.3726 167.835 45.4965C167.439 46.0628 167.043 46.6598 166.674 47.259C166.423 47.6659 166.193 48.06 165.99 48.4362L165.918 48.571C165.22 49.886 164.907 50.8852 165.065 51.3177L165.083 51.3652C165.158 51.5563 165.193 51.5609 165.356 51.4864C165.628 51.3619 166.006 51.0188 166.456 50.4931C166.648 50.2688 166.85 50.0152 167.068 49.727L167.169 49.5923C167.472 49.1839 168.269 48.0628 168.404 47.8881C168.546 47.7035 168.812 47.6679 168.998 47.8086C169.185 47.9492 169.221 48.2129 169.079 48.3976L168.991 48.5165C168.737 48.8648 168.087 49.7755 167.832 50.1181L167.815 50.1405C167.562 50.4785 167.328 50.7743 167.104 51.0363L167 51.1562C166.519 51.703 166.1 52.072 165.712 52.2494C165.086 52.5358 164.527 52.3054 164.267 51.6058C163.987 50.8383 164.374 49.6416 165.242 48.0392C165.453 47.6484 165.69 47.2409 165.949 46.8213C166.285 46.2753 166.642 45.7325 167.002 45.2121L167.137 45.018C167.243 44.8661 167.344 44.7244 167.437 44.5945L167.619 44.3447L167.679 44.2639C167.819 44.0776 168.084 44.0387 168.273 44.1771Z" fill="#2E186A"/>
<path fill-rule="evenodd" clip-rule="evenodd" d="M164.086 40.7461L161.851 41.9929C161.794 42.0209 161.723 42.0629 161.667 42.091C160.266 42.6513 159.686 42.203 159.459 41.6427C159.219 41.0683 159.389 40.4099 159.813 39.9616C162.374 37.2999 169.18 36.1512 169.18 36.1512C170.835 35.857 175.335 37.398 174.769 41.0963C174.203 44.7947 171.91 49.5998 169.548 51.0987C167.199 52.5837 166.506 51.0427 168.755 48.1428C168.784 48.1008 170.411 45.8033 170.411 45.8033" fill="white"/>
<path fill-rule="evenodd" clip-rule="evenodd" d="M173.038 36.7741C174.626 37.7951 175.471 39.3099 175.188 41.1593C174.574 45.1718 172.152 49.9457 169.776 51.4529C169.15 51.8485 168.597 52.0666 168.139 52.0908C167.6 52.1193 167.18 51.8703 167.024 51.3957C166.775 50.6417 167.249 49.4304 168.318 48.0178L168.412 47.8953L170.063 45.562C170.198 45.372 170.463 45.326 170.654 45.4592C170.839 45.5874 170.889 45.8346 170.773 46.0224L170.5 46.4099L169.108 48.376L169.092 48.3988C168.11 49.6642 167.688 50.7041 167.831 51.1344C167.904 51.357 168.391 51.3312 169.319 50.7449C171.454 49.3903 173.768 44.8293 174.349 41.0334C174.577 39.5401 173.904 38.3329 172.576 37.479C171.511 36.7945 170.106 36.4365 169.296 36.5581L169.141 36.5851L168.991 36.613C168.937 36.6232 168.88 36.6343 168.819 36.6463L168.606 36.6894C168.315 36.7491 167.999 36.8184 167.665 36.8974C166.471 37.1793 165.277 37.5253 164.166 37.937C162.359 38.6063 160.956 39.3829 160.123 40.249C159.794 40.5967 159.685 41.0834 159.854 41.4866C160.043 41.9562 160.477 42.1026 161.456 41.7215L161.49 41.708L161.622 41.6369L161.651 41.6217L163.878 40.3799C164.075 40.2702 164.322 40.3326 164.443 40.5179L164.456 40.5398C164.567 40.7346 164.504 40.9795 164.317 41.099L164.294 41.1123L162.059 42.3591L161.995 42.3926L161.895 42.447C161.882 42.4542 161.87 42.4603 161.856 42.4669C161.846 42.4719 161.836 42.4765 161.826 42.4806C160.402 43.05 159.447 42.7426 159.067 41.8037C158.768 41.0881 158.954 40.2542 159.506 39.6717C160.449 38.6919 161.952 37.8597 163.868 37.1498C165.016 36.7246 166.242 36.3692 167.468 36.0798C167.897 35.9786 168.295 35.8928 168.653 35.8221L168.885 35.7772L169.105 35.7375C170.13 35.5552 171.783 35.967 173.038 36.7741Z" fill="#2E186A"/>
<path fill-rule="evenodd" clip-rule="evenodd" d="M198.199 93.4897C198.434 93.4897 198.624 93.6779 198.624 93.91C198.624 94.1338 198.447 94.3168 198.224 94.3296L198.199 94.3303H0.83481C0.600381 94.3303 0.410339 94.1421 0.410339 93.91C0.410339 93.6862 0.587049 93.5032 0.809869 93.4905L0.83481 93.4897H198.199Z" fill="#2E186A"/>
</svg>
