<svg width="125" height="119" viewBox="0 0 125 119" fill="none" xmlns="http://www.w3.org/2000/svg">
<rect width="33" height="12" transform="translate(12 12.9985)" fill="white"/>
<path d="M22.6562 23.5483C22.6602 23.5483 22.6642 23.5424 22.6642 23.5424C22.696 23.5189 22.7279 23.4895 22.7558 23.4542C22.7518 23.4542 22.7478 23.4542 22.7438 23.4483C22.7159 23.4777 22.6841 23.513 22.6562 23.5483Z" fill="#000091"/>
<path d="M27.0694 22.0614L26.9997 22.1214C27.0396 22.1114 27.0694 22.1014 27.0694 22.0614Z" fill="#000091"/>
<path fill-rule="evenodd" clip-rule="evenodd" d="M25.6426 23.5803C25.7704 23.4517 25.8983 23.3153 26.0261 23.1751H26.0222C26.2624 22.9024 26.4948 22.6413 26.7737 22.4037C26.8589 22.3257 26.9402 22.2595 27.0177 22.205C27.0291 22.1935 27.0349 22.1765 27.0406 22.1598C27.0465 22.1423 27.0523 22.1253 27.0642 22.1153C27.009 22.1364 26.965 22.1697 26.9207 22.2032C26.8749 22.2379 26.8289 22.2728 26.7698 22.2946C26.7466 22.2946 26.7233 22.2712 26.7466 22.2478C26.8279 22.1894 26.9092 22.127 26.9867 22.0647H26.9712C26.948 22.0647 26.948 22.0413 26.948 22.0179C26.6596 21.9721 26.4381 22.1694 26.2399 22.3459L26.2275 22.3569C26.1966 22.3724 26.1675 22.357 26.1446 22.3449C26.133 22.3388 26.123 22.3335 26.1152 22.3335C25.9398 22.3923 25.7885 22.5008 25.6362 22.6099C25.4959 22.7104 25.3548 22.8116 25.1933 22.8751V22.8283C25.1384 22.8472 25.0842 22.8719 25.0298 22.8966C24.9498 22.933 24.8696 22.9695 24.7865 22.9881C24.6349 23.0233 24.4943 23.0187 24.358 23.0143C24.3133 23.0129 24.2689 23.0114 24.2249 23.0114C23.9768 23.036 23.7319 23.0892 23.4872 23.1422L23.4076 23.1595C23.4037 23.1614 23.3998 23.1624 23.3959 23.1634C23.3921 23.1644 23.3882 23.1653 23.3843 23.1673C23.2371 23.2062 23.1016 23.2608 22.966 23.3387L22.9505 23.3465C22.9452 23.3536 22.9398 23.36 22.9349 23.3658C22.929 23.3728 22.9237 23.3791 22.9195 23.3855C22.873 23.44 22.8304 23.4868 22.7646 23.5218C22.6673 23.5707 22.5832 23.6462 22.5005 23.7204C22.4647 23.7525 22.429 23.7846 22.3927 23.814C22.385 23.8218 22.3695 23.8257 22.3578 23.8257C22.2378 23.9426 22.1177 24.0595 21.9937 24.1725C21.986 24.1803 21.9511 24.1842 21.924 24.1803C21.924 24.1803 21.9279 24.1803 21.9279 24.1764L21.9395 24.153L21.9976 24.0595C22.0092 24.042 22.0199 24.0244 22.0305 24.0069C22.0412 23.9894 22.0518 23.9718 22.0634 23.9543C22.0944 23.9076 22.1255 23.8607 22.1603 23.8179C22.168 23.8062 22.168 23.7946 22.1603 23.7868C22.1525 23.779 22.1409 23.7751 22.1293 23.7751C22.2416 23.666 22.3733 23.5725 22.5089 23.4907V23.4868C22.4934 23.4907 22.4702 23.479 22.4818 23.4634C22.4932 23.4491 22.5024 23.4327 22.5112 23.4173L22.5205 23.4011C22.5225 23.3972 22.5234 23.3942 22.5244 23.3913C22.5254 23.3884 22.5263 23.3855 22.5283 23.3816C22.5263 23.3777 22.5234 23.3748 22.5205 23.3718C22.5176 23.3689 22.5147 23.366 22.5128 23.3621L22.4893 23.3776C22.4612 23.396 22.4324 23.4149 22.4082 23.4361C22.3911 23.4509 22.3751 23.471 22.3588 23.4917C22.3232 23.5367 22.2857 23.5842 22.23 23.5842C22.2261 23.5842 22.2068 23.5842 22.1952 23.5803C22.1835 23.5803 22.1758 23.5764 22.1719 23.5725C22.1719 23.5705 22.1719 23.5696 22.1724 23.5691C22.1729 23.5686 22.1738 23.5686 22.1758 23.5686C22.1758 23.5686 22.1797 23.5647 22.1797 23.5608C22.1797 23.5608 22.1797 23.5569 22.1835 23.5569C22.1855 23.553 22.1874 23.5501 22.1893 23.5472C22.1913 23.5442 22.1932 23.5413 22.1952 23.5374C22.1971 23.5335 22.199 23.5306 22.201 23.5277C22.2029 23.5248 22.2048 23.5218 22.2068 23.5179C22.2087 23.516 22.2097 23.5131 22.2106 23.5101C22.2116 23.5072 22.2126 23.5043 22.2145 23.5024L22.2189 23.4943C22.2227 23.4875 22.2273 23.4793 22.23 23.4712C22.2319 23.4673 22.2339 23.4644 22.2358 23.4614C22.2378 23.4585 22.2397 23.4556 22.2416 23.4517C22.2474 23.4439 22.2523 23.4351 22.2571 23.4264C22.262 23.4176 22.2668 23.4088 22.2726 23.4011C22.2765 23.3933 22.2804 23.3855 22.2881 23.3777C22.292 23.3699 22.2959 23.3631 22.2997 23.3562C22.3036 23.3494 22.3075 23.3426 22.3114 23.3348C22.323 23.3153 22.3114 23.2998 22.2959 23.2959C22.3385 23.2413 22.3888 23.1946 22.4508 23.1595H22.4431C22.4965 23.1326 22.5515 23.1011 22.6062 23.0698C22.6384 23.0513 22.671 23.0327 22.7026 23.0153C22.7142 23.0037 22.7258 22.992 22.7413 22.9842C22.6135 23.027 22.4973 23.0855 22.385 23.1634C22.385 23.1634 22.354 23.1751 22.3462 23.1829C22.3462 23.1829 22.323 23.1907 22.292 23.1634C22.2881 23.1595 22.2881 23.1556 22.2881 23.1478C22.3016 23.1207 22.3293 23.1028 22.3594 23.0834C22.3812 23.0693 22.4041 23.0545 22.4237 23.0348C22.4469 23.0348 22.4663 23.0348 22.4663 23.0582C22.9124 22.7084 23.4625 22.6275 24.0144 22.5463C24.3539 22.4963 24.6941 22.4463 25.0112 22.3335C25.0441 22.3102 25.078 22.2877 25.1119 22.2653C25.1458 22.2429 25.1797 22.2205 25.2126 22.1972C25.2691 22.1737 25.3198 22.1334 25.3734 22.0907C25.4263 22.0486 25.4822 22.0041 25.5496 21.9712C25.7278 21.8348 25.8634 21.679 25.9331 21.4491C25.9331 21.4257 25.9099 21.4024 25.9099 21.4024C25.6155 21.7179 25.2785 21.9673 24.9182 22.1504C24.5747 22.3317 24.2067 22.3585 23.8423 22.3851C23.7054 22.3951 23.569 22.405 23.4347 22.4231C23.4579 22.3764 23.5044 22.3764 23.547 22.3764C23.547 22.3211 23.5735 22.2973 23.6075 22.2667C23.6166 22.2586 23.6263 22.2499 23.6361 22.24H23.702C23.7136 22.24 23.7194 22.2283 23.7252 22.2166C23.731 22.205 23.7368 22.1933 23.7484 22.1933C23.7949 22.1933 23.8608 22.1699 23.8375 22.1699C23.802 22.1242 23.7504 22.1423 23.6934 22.1623C23.6386 22.1814 23.5789 22.2024 23.5238 22.1699C23.5443 22.1474 23.5504 22.1204 23.556 22.0959C23.5621 22.0694 23.5675 22.0457 23.5896 22.0335H23.6787C23.6787 21.9868 23.7252 21.9439 23.7252 21.9439C23.9272 21.8225 24.1223 21.7164 24.3137 21.6123C24.4416 21.5428 24.568 21.4741 24.6936 21.4024C24.6682 21.4024 24.6456 21.4128 24.6238 21.423C24.589 21.4391 24.5558 21.4545 24.5154 21.4257C24.5386 21.4257 24.5386 21.4092 24.5386 21.3926C24.5386 21.3761 24.5386 21.3595 24.5619 21.3595C24.7072 21.3207 24.8365 21.2578 24.9686 21.1935C25.0619 21.1481 25.1565 21.1021 25.2591 21.0634C25.2287 21.0634 25.2005 21.0716 25.173 21.0796C25.1201 21.095 25.0699 21.1096 25.0112 21.0634C25.0266 21.0557 25.039 21.0458 25.0513 21.036C25.076 21.0163 25.1002 20.9972 25.1468 20.9972V20.9309C25.1468 20.9076 25.17 20.9076 25.1933 20.9076C25.17 20.9076 25.1468 20.8842 25.1468 20.8842C25.1591 20.8594 25.1833 20.8543 25.2103 20.8487C25.2343 20.8436 25.2605 20.8381 25.2824 20.818C25.2591 20.818 25.2165 20.818 25.2165 20.7946C25.2824 20.705 25.3947 20.6816 25.507 20.6582C25.4954 20.6348 25.4731 20.6348 25.4538 20.6348C25.4344 20.6348 25.4179 20.6348 25.4179 20.6115C25.4179 20.5881 25.4412 20.5881 25.4644 20.5881H25.4179C25.3815 20.5697 25.3879 20.537 25.3924 20.5143C25.3936 20.5081 25.3947 20.5027 25.3947 20.4985C25.4857 20.3913 25.5156 20.2647 25.5454 20.1389C25.5599 20.0773 25.5745 20.0159 25.5961 19.9569C25.5729 19.9569 25.5496 19.9569 25.5496 19.9335C25.3318 20.1753 24.9866 20.2669 24.6587 20.3539L24.6277 20.3621H24.5154C24.4031 20.4089 24.2443 20.4089 24.1319 20.3387C24.0785 20.3107 24.0404 20.2757 23.9993 20.2378C23.9718 20.2126 23.9429 20.186 23.9073 20.1595C23.7252 20.0465 23.547 19.9569 23.3456 19.8868C22.7839 19.7076 22.199 19.6141 21.6141 19.6374C21.7775 19.5476 21.9509 19.5119 22.1266 19.4757C22.2176 19.4569 22.3093 19.4381 22.4004 19.4115C22.458 19.3945 22.515 19.3771 22.5716 19.3597C22.8929 19.2612 23.2046 19.1656 23.547 19.1855C23.5022 19.1696 23.4448 19.1753 23.392 19.1806C23.3672 19.1831 23.3434 19.1855 23.3224 19.1855C23.0634 19.1662 22.8019 19.2239 22.529 19.284C22.4712 19.2968 22.4129 19.3096 22.354 19.3219C22.2471 19.3441 22.1455 19.376 22.0437 19.408C21.9315 19.4433 21.8191 19.4786 21.6993 19.5011C21.6474 19.519 21.6056 19.5495 21.565 19.5792C21.4996 19.6271 21.437 19.6728 21.3391 19.6608V19.5907C21.5638 19.318 21.8349 19.0491 22.1952 19.0258C22.5434 18.9691 22.8717 19.0094 23.2142 19.0516C23.2718 19.0587 23.3297 19.0658 23.3882 19.0725C23.669 19.0951 23.9317 19.1577 24.2148 19.2252L24.2443 19.2323C24.3062 19.2323 24.3411 19.2868 24.3748 19.3396C24.4023 19.3826 24.429 19.4244 24.4689 19.4348C24.5241 19.4539 24.5792 19.4574 24.6344 19.461C24.7148 19.4661 24.7952 19.4713 24.8756 19.5245C24.8756 19.5087 24.873 19.4934 24.8704 19.4783C24.8653 19.4484 24.8602 19.4191 24.8756 19.3881C24.9256 19.3378 24.9829 19.3513 25.0393 19.3646C25.0834 19.375 25.127 19.3852 25.1662 19.3647C25.289 19.2885 25.1738 19.1715 25.0585 19.0543C25.0029 18.9979 24.9472 18.9414 24.9182 18.8894C24.9182 18.866 24.9415 18.8426 24.9415 18.8426C24.9924 18.8882 25.0398 18.9354 25.0867 18.9822C25.2043 19.0993 25.3194 19.2139 25.4799 19.2946C25.5922 19.3413 25.8634 19.4076 25.8169 19.2712C25.7373 19.0946 25.6014 18.9414 25.4642 18.7868C25.4077 18.7232 25.351 18.6592 25.2979 18.5933V18.5037C25.2625 18.5037 25.2541 18.4902 25.2435 18.4735C25.2402 18.4682 25.2367 18.4626 25.232 18.4569V18.3673C25.1752 18.3375 25.1625 18.2903 25.1497 18.2428C25.1424 18.2158 25.1351 18.1887 25.1197 18.1647C25.0808 18.1018 25.0781 18.0244 25.0752 17.9446C25.0729 17.8811 25.0705 17.8161 25.0499 17.7556C25.0035 17.6193 24.9841 17.5063 24.9609 17.3699C24.9356 17.2304 24.9079 17.097 24.8807 16.9664C24.8328 16.736 24.7866 16.5142 24.7594 16.2829C24.7236 15.9524 24.8905 15.6728 25.0612 15.387C25.1118 15.3023 25.1627 15.217 25.2088 15.1297C25.3676 14.857 25.5458 14.5881 25.8401 14.405C25.9044 14.139 26.0791 13.9175 26.253 13.6971L26.2662 13.6803C26.4379 13.4664 26.7245 13.3357 26.9357 13.2393L26.9596 13.2284C27.2734 13.0881 27.5561 12.9985 27.56 12.9985H12V24.9945H23.0396C23.3348 24.7805 23.6283 24.6455 23.9775 24.4847C24.1369 24.4114 24.3079 24.3327 24.496 24.2387C24.5359 24.2187 24.5832 24.1954 24.6357 24.1695C24.951 24.0144 25.4534 23.7673 25.6426 23.5803ZM22.1396 21.9618C22.0958 21.9662 22.0494 21.9709 22.0669 21.9357C22.0832 21.8568 22.1639 21.8332 22.2428 21.8101C22.2765 21.8002 22.31 21.7905 22.3378 21.7765L22.3505 21.7699L22.3598 21.765C22.4035 21.7418 22.457 21.7134 22.4965 21.7299C22.5231 21.7677 22.5561 21.7775 22.5881 21.787C22.612 21.7941 22.6353 21.801 22.6551 21.8192C22.5714 21.9032 22.4737 21.9115 22.3747 21.9199C22.3089 21.9255 22.2425 21.9311 22.1791 21.959C22.1678 21.959 22.1538 21.9604 22.1396 21.9618ZM18.7126 21.4139C18.7126 21.4373 18.7359 21.4607 18.7359 21.4607C19.2782 20.849 19.7701 20.3269 20.4673 19.8945C20.486 19.8867 20.4791 19.8964 20.4698 19.9094C20.4561 19.9287 20.4373 19.9552 20.4906 19.9412C20.7214 19.8886 20.8251 19.6909 20.9259 19.4985C20.952 19.4487 20.9779 19.3994 21.0058 19.3529C21.1115 19.1809 21.2618 19.0707 21.4132 18.9596C21.5223 18.8795 21.6321 18.799 21.7262 18.6945C21.7262 18.7179 21.7262 18.7412 21.703 18.7646C21.7262 18.788 21.7495 18.788 21.7727 18.788C21.8136 18.7572 21.8582 18.7444 21.901 18.7322C21.9555 18.7166 22.007 18.7019 22.0439 18.6516C21.8657 18.5815 21.6372 18.5581 21.459 18.6283C20.9864 18.8542 20.5836 19.2166 20.2001 19.6256C19.9677 19.8711 19.7275 20.101 19.4331 20.2607C19.2317 20.6659 19.007 21.0282 18.7126 21.4139ZM20.6037 19.9649C20.5916 19.9893 20.5794 20.002 20.5678 20.0141C20.5573 20.0251 20.5471 20.0357 20.5379 20.0543C20.5147 20.1009 20.4915 20.1203 20.4489 20.1436C20.4257 20.1436 20.4025 20.1436 20.4025 20.1203C20.4257 20.031 20.4915 19.9416 20.5805 19.9183C20.6037 19.9222 20.6037 19.9455 20.6037 19.9649ZM21.5942 23.4249C21.6136 23.4054 21.6368 23.3821 21.6484 23.3587C21.6677 23.3119 21.5478 23.3236 21.5284 23.3353C21.5109 23.3494 21.4997 23.3636 21.4862 23.3806L21.482 23.3859C21.4659 23.4045 21.447 23.4217 21.4278 23.4392C21.4148 23.451 21.4016 23.463 21.3891 23.4756C21.3349 23.5301 21.2808 23.5846 21.2227 23.6353C21.184 23.6704 21.3078 23.6859 21.3349 23.6626C21.3659 23.6392 21.393 23.6119 21.4201 23.5846C21.4304 23.5846 21.4407 23.5829 21.4476 23.5818L21.4523 23.581L21.4549 23.5808C21.5191 23.5592 21.5668 23.5146 21.6132 23.4711L21.6252 23.46C21.6407 23.4444 21.6213 23.4288 21.5942 23.4249ZM21.244 23.1716C21.2436 23.1716 21.2433 23.1717 21.243 23.172C21.2426 23.1724 21.2426 23.1734 21.2426 23.1754C21.2188 23.1917 21.1953 23.2083 21.1719 23.2248C21.1114 23.2677 21.0512 23.3103 20.9869 23.3468C20.9255 23.3814 20.8625 23.4113 20.7989 23.4415C20.7623 23.4589 20.7255 23.4763 20.6886 23.4948C20.6886 23.4948 20.6886 23.4909 20.6848 23.4909C20.677 23.4793 20.6615 23.4754 20.646 23.4832C20.5608 23.5299 20.4872 23.5922 20.4214 23.6585C20.4097 23.6663 20.3981 23.678 20.3904 23.6896L20.3555 23.7247V23.7286C20.34 23.7442 20.3245 23.7598 20.3052 23.7832C20.3011 23.7872 20.298 23.7913 20.2951 23.7951C20.2895 23.8025 20.2843 23.8092 20.2742 23.8143C20.2587 23.8221 20.2199 23.8221 20.2238 23.7987V23.7948C20.2122 23.8026 20.1967 23.8104 20.1851 23.8143C20.1793 23.8182 20.1735 23.8211 20.1677 23.8241C20.1618 23.827 20.156 23.8299 20.1502 23.8338C20.1463 23.8299 20.1386 23.8299 20.1347 23.8299C20.1309 23.8299 20.1231 23.8299 20.1192 23.8338C20.1102 23.8416 20.1012 23.849 20.0921 23.8563C20.074 23.871 20.056 23.8857 20.0379 23.9039C19.9914 23.9468 19.9488 23.9935 19.9062 24.0442C19.9062 24.0442 19.9062 24.0481 19.9023 24.0481C19.9023 24.05 19.9013 24.051 19.9004 24.052C19.8994 24.053 19.8984 24.0539 19.8984 24.0559L19.8907 24.0637C19.8892 24.0652 19.8883 24.0666 19.8875 24.0679C19.8863 24.07 19.8853 24.0715 19.8829 24.0715L19.8791 24.0754C19.8752 24.0831 19.8713 24.0909 19.8636 24.0987C19.8597 24.1026 19.852 24.1065 19.8442 24.1065C19.8403 24.1026 19.8365 24.0987 19.8365 24.0948C19.8345 24.0929 19.8336 24.0909 19.8326 24.089C19.8316 24.087 19.8307 24.0851 19.8287 24.0831C19.8248 24.0773 19.8219 24.0715 19.819 24.0656C19.8161 24.0598 19.8132 24.0539 19.8094 24.0481V24.0442C19.8094 24.0422 19.8084 24.0403 19.8074 24.0383C19.8064 24.0364 19.8055 24.0344 19.8055 24.0325L19.8752 23.9507L19.8791 23.9468C19.8829 23.9429 19.8868 23.938 19.8907 23.9332C19.8946 23.9283 19.8984 23.9234 19.9023 23.9195C19.9081 23.9117 19.9149 23.9039 19.9217 23.8961C19.9285 23.8884 19.9352 23.8806 19.9411 23.8728C19.943 23.8689 19.9449 23.8659 19.9469 23.863C19.9488 23.8601 19.9507 23.8572 19.9527 23.8533C19.9759 23.8221 19.9992 23.7909 20.0224 23.7559V23.752C20.0263 23.7481 20.0301 23.7442 20.0301 23.7364C20.0418 23.7208 20.0534 23.7052 20.0611 23.6896L20.0844 23.6429V23.639L20.0882 23.6351C20.0882 23.6332 20.0892 23.6322 20.0902 23.6312C20.0912 23.6302 20.0921 23.6293 20.0921 23.6273C20.096 23.6176 20.0999 23.6088 20.1037 23.6001C20.1076 23.5913 20.1115 23.5825 20.1154 23.5728V23.5689L20.1192 23.5533C20.1212 23.5494 20.1221 23.5455 20.1231 23.5416C20.1241 23.5377 20.125 23.5338 20.127 23.5299V23.526C20.1289 23.5202 20.1299 23.5143 20.1309 23.5085C20.1318 23.5026 20.1328 23.4968 20.1347 23.4909C20.1347 23.4871 20.1347 23.4793 20.1309 23.4754C20.1541 23.4325 20.1851 23.3935 20.2199 23.3546C20.218 23.3546 20.2161 23.3556 20.2141 23.3565C20.213 23.3571 20.2119 23.3576 20.2108 23.358C20.21 23.3583 20.2092 23.3585 20.2083 23.3585C20.1911 23.3693 20.1762 23.3838 20.1611 23.3985C20.1491 23.4102 20.1369 23.4221 20.1231 23.4325C20.0999 23.452 20.0534 23.4208 20.0844 23.3974C20.1037 23.3819 20.1192 23.3663 20.1347 23.3507C20.1347 23.3507 20.1347 23.3468 20.1386 23.3468C20.154 23.3328 20.1689 23.317 20.1838 23.301C20.2064 23.2769 20.2292 23.2525 20.2548 23.2338C20.2819 23.2143 20.3013 23.1987 20.3245 23.1793C20.3284 23.1754 20.3323 23.1715 20.3362 23.1715C20.3516 23.152 20.3671 23.1325 20.3865 23.113C20.3865 23.113 20.3904 23.113 20.3904 23.1091C20.5234 22.9801 20.7103 22.9346 20.9011 22.8882C21.0214 22.8589 21.1433 22.8292 21.2542 22.778C21.3168 22.7519 21.3866 22.7622 21.4556 22.7723C21.5104 22.7803 21.5647 22.7883 21.6144 22.778C21.6803 22.778 21.75 22.778 21.8158 22.8247C21.6627 22.9063 21.5165 22.9995 21.3719 23.0918C21.33 23.1185 21.2882 23.1452 21.2464 23.1715C21.2454 23.1715 21.2446 23.1715 21.244 23.1716ZM21.7281 21.5836C21.7099 21.5857 21.6982 21.587 21.7082 21.5972C21.7741 21.6634 21.9097 21.64 22.0026 21.5894C22.0685 21.5426 22.1382 21.5426 22.2273 21.5426C22.2505 21.5426 22.2505 21.4998 22.2505 21.4764C22.3164 21.4998 22.3629 21.4998 22.4287 21.4998C22.9671 21.3868 23.4862 21.2738 23.982 21.0245C23.4803 20.6368 22.8618 20.4641 22.256 20.295C22.1555 20.267 22.0554 20.239 21.9561 20.2102C21.978 20.2102 21.9998 20.2174 22.0217 20.2248C22.066 20.2395 22.1109 20.2545 22.1576 20.2102C22.0961 20.1611 22.0277 20.1518 21.9599 20.1425C21.9038 20.1348 21.8482 20.1272 21.7973 20.0972C21.8026 20.0972 21.809 20.0984 21.8158 20.0997C21.839 20.1042 21.8685 20.1099 21.8864 20.0738C21.7688 20.0146 21.6511 19.9945 21.5323 19.9743C21.4712 19.9638 21.4098 19.9533 21.348 19.9375C21.4603 19.9141 21.5301 19.8245 21.5301 19.7115C21.5301 19.6881 21.4836 19.6881 21.4603 19.6881C21.1931 19.8245 21.011 20.0738 20.8987 20.366C20.9999 20.4256 21.1091 20.4187 21.2161 20.412C21.2769 20.4081 21.3369 20.4043 21.3945 20.4128C21.3437 20.461 21.2703 20.4741 21.1997 20.4867C21.1734 20.4914 21.1475 20.496 21.1233 20.5024C21.0536 20.518 20.9878 20.5686 21.011 20.6154C21.0265 20.6348 21.042 20.6426 21.0614 20.6465C21.011 20.6621 20.9645 20.6855 20.9219 20.7284C20.9857 20.7786 21.0514 20.7689 21.1163 20.7593C21.1421 20.7555 21.1677 20.7517 21.1931 20.7517C21.1931 20.78 21.2116 20.7896 21.2309 20.7996C21.2409 20.8048 21.251 20.81 21.2589 20.818C21.1466 20.8608 21.0575 20.9543 21.0342 21.0206C21.0065 21.088 20.9552 21.1319 20.9044 21.1754C20.8701 21.2047 20.8361 21.2338 20.8096 21.2699V21.34C20.7347 21.4064 20.6578 21.4656 20.582 21.524C20.4262 21.644 20.2748 21.7606 20.155 21.9283C20.1782 21.9283 20.1782 21.9517 20.1782 21.9751C20.1568 22.0074 20.1263 22.0298 20.0974 22.0511C20.0636 22.0759 20.0319 22.0991 20.0194 22.1348C20.0194 22.1582 20.0194 22.1816 20.0426 22.1816C20.1848 22.1346 20.3077 22.0555 20.4283 21.978C20.5377 21.9076 20.6452 21.8385 20.7631 21.7959C20.8595 21.7727 20.9434 21.729 21.0253 21.6863C21.0948 21.6502 21.1628 21.6147 21.2357 21.5933C21.2918 21.5816 21.3538 21.565 21.4158 21.5485C21.4778 21.5319 21.5397 21.5154 21.5959 21.5037C21.5959 21.527 21.5959 21.5504 21.6192 21.5504H21.7973C21.7864 21.5769 21.7518 21.5809 21.7281 21.5836Z" fill="#000091"/>
<path d="M44.9997 12.9985H32.0963C32.0963 12.9985 32.1197 13.0024 32.2172 13.0532C32.3225 13.1078 32.4591 13.1819 32.541 13.2248C32.7087 13.3106 32.8686 13.4199 32.9739 13.5876C33.0208 13.6539 33.0871 13.7905 33.0442 13.8802C32.9974 13.9933 32.9739 14.1767 32.8608 14.2196C32.7243 14.2898 32.5449 14.2898 32.3849 14.2664C32.2952 14.2664 32.2055 14.243 32.1119 14.2196C32.4513 14.3561 32.7711 14.5161 32.9974 14.8321C33.0208 14.8789 33.1105 14.8984 33.2002 14.8984C33.2236 14.8984 33.2236 14.9452 33.2236 14.9647C33.1768 15.0115 33.1339 15.0349 33.1573 15.1013H33.2236C33.3367 15.0545 33.3133 14.8282 33.4732 14.8984C33.5864 14.9647 33.6332 15.1247 33.5629 15.2378C33.4732 15.3275 33.3835 15.3978 33.2899 15.4641C33.2665 15.5109 33.2665 15.5772 33.2899 15.624C33.3562 15.7137 33.3796 15.8035 33.403 15.8971C33.4732 16.0571 33.4927 16.2365 33.5629 16.3965C33.6527 16.7359 33.7424 17.0753 33.7229 17.4186C33.7229 17.598 33.6332 17.758 33.6995 17.9413C33.7463 18.1208 33.8594 18.2573 33.9491 18.4173C34.0388 18.5538 34.1285 18.6435 34.1988 18.7801C34.3353 19.0063 34.5849 19.2326 34.4718 19.5057C34.4055 19.6656 34.1558 19.6422 33.9959 19.732C33.8594 19.8451 33.9725 20.0284 34.0427 20.1416C34.1558 20.3444 33.9062 20.481 33.7463 20.5512C33.7931 20.6214 33.8828 20.598 33.9062 20.6409C33.9296 20.7541 34.0427 20.8204 33.9725 20.9374C33.8828 21.074 33.6098 21.1403 33.7463 21.347C33.836 21.507 33.7775 21.6825 33.7229 21.8464C33.6566 22.0493 33.4732 22.139 33.3133 22.1858C33.1768 22.2326 33.0169 22.2326 32.8842 22.2092C32.8374 22.1858 32.7945 22.1624 32.7477 22.1624C32.3615 22.1156 31.9754 22.0063 31.5931 22.0063C31.48 22.0297 31.3669 22.0493 31.2772 22.0961C31.1757 22.1702 31.0821 22.2521 31.0041 22.3379C31.0041 22.3379 31.0041 22.3379 31.0002 22.3418C30.9846 22.3613 30.9651 22.3769 30.9495 22.3965C30.9417 22.4082 30.93 22.4199 30.9222 22.4316C30.9144 22.4394 30.9105 22.4472 30.9027 22.455C30.8364 22.5369 30.7779 22.6266 30.7233 22.7164C30.7194 22.7242 30.7155 22.7281 30.7116 22.732C30.7077 22.7437 30.6999 22.7515 30.6921 22.7632C30.6179 22.8997 30.5633 23.0401 30.5204 23.1806C30.3644 23.6994 30.4346 24.1442 30.5438 24.2534C30.575 24.2846 31.2928 24.507 31.792 24.7294C32.0261 24.8347 32.1899 24.9127 32.3264 24.9985H44.9958V12.9985H44.9997Z" fill="#E1000F"/>
<path d="M32.8636 17.3733C32.9531 17.3967 33.0893 17.3967 33.0893 17.4434C33.0426 17.6226 32.7741 17.6694 32.638 17.8525H32.5679C32.5018 17.8993 32.5212 18.0123 32.4551 18.0123C32.389 17.9889 32.3189 18.0123 32.2528 18.0356C32.3423 18.1252 32.4551 18.1954 32.5913 18.172C32.6146 18.172 32.6574 18.2187 32.6574 18.2616C32.6574 18.2616 32.6808 18.2616 32.7041 18.2382C32.7274 18.2382 32.7508 18.2382 32.7508 18.2616V18.3512C32.6846 18.4408 32.5679 18.398 32.4785 18.4174C32.6613 18.4642 32.8403 18.4642 32.9998 18.4174C33.1359 18.3707 32.9998 18.1447 33.0893 18.0317C33.0426 18.0317 33.0893 17.9616 33.0426 17.9616C33.0893 17.9149 33.1321 17.8486 33.1787 17.8252C33.2254 17.8252 33.2916 17.8019 33.3149 17.7551C33.3149 17.7084 33.2254 17.6889 33.2449 17.6421C33.381 17.5525 33.4939 17.4162 33.4472 17.2798C33.4238 17.2097 33.2449 17.2097 33.1321 17.1668C33.0192 17.124 32.8831 17.1668 32.7469 17.1902C32.6341 17.1902 32.5212 17.2603 32.4084 17.2798C32.2489 17.3265 32.1127 17.4162 31.9805 17.5058C32.14 17.4395 32.2956 17.4162 32.4785 17.3694C32.6146 17.3733 32.7274 17.3421 32.8636 17.3733Z" fill="#808080"/>
<path d="M13.236 40.9985H14.94V34.9745L16.812 38.1185H18.012L19.884 34.9745V40.9985H21.588V32.5985H19.464L17.412 36.1265L15.36 32.5985H13.236V40.9985ZM23.9324 40.9985H25.6364V32.5985H23.9324V40.9985ZM27.9843 40.9985H29.6883V34.9265L33.4443 40.9985H35.6283V32.5985H33.9243V38.6705L30.1683 32.5985H27.9843V40.9985ZM37.9776 40.9985H39.6816V32.5985H37.9776V40.9985ZM41.2734 39.8345C42.0174 40.7225 42.9654 41.2385 44.3814 41.2385C45.9294 41.2385 47.1534 40.2905 47.1774 38.7065C47.1774 35.8265 43.3614 36.2585 43.3614 34.7345C43.3614 34.2305 43.7574 33.8465 44.3574 33.8465C44.9934 33.8465 45.5454 34.2665 46.0374 34.9025L47.2854 33.7745C46.5654 32.9225 45.6054 32.3585 44.3454 32.3585C42.7374 32.3585 41.6334 33.4625 41.6334 34.7945C41.6334 37.6385 45.4494 37.2185 45.4494 38.7665C45.4494 39.3665 45.0414 39.7265 44.3694 39.7265C43.6854 39.7265 43.0134 39.3425 42.5094 38.6945L41.2734 39.8345ZM48.0415 34.1465H50.6335V40.9985H52.3375V34.1465H54.9295V32.5985H48.0415V34.1465ZM58.1182 31.8785H59.6782L58.3222 30.2585H56.5702L58.1182 31.8785ZM56.4262 40.9985H61.3222V39.5825H58.1302V37.4225H60.8422V36.0065H58.1302V34.0145H61.3222V32.5985H56.4262V40.9985ZM63.3022 40.9985H65.0062V37.6025H65.8823L68.1262 40.9985H70.1303L67.5022 37.2785C68.3663 36.8825 68.8583 36.1265 68.8583 35.1065C68.8583 33.5465 67.7183 32.5985 65.8702 32.5985H63.3022V40.9985ZM65.9663 34.0145C66.6863 34.0145 67.1063 34.4465 67.1063 35.0825C67.1063 35.7665 66.6863 36.1865 65.9663 36.1865H65.0062V34.0145H65.9663ZM71.2096 40.9985H76.1056V39.5825H72.9136V37.4225H75.6256V36.0065H72.9136V34.0145H76.1056V32.5985H71.2096V40.9985ZM13.236 53.9985H16.536C19.2 53.9985 21 52.0665 21 49.7985C21 47.5305 19.2 45.5985 16.536 45.5985H13.236V53.9985ZM16.56 47.1465C18.12 47.1465 19.248 48.2985 19.248 49.7985C19.248 51.2865 18.12 52.4505 16.56 52.4505H14.94V47.1465H16.56ZM27.5971 50.8545C27.5971 51.9825 26.9491 52.6425 25.9051 52.6425C24.8371 52.6425 24.2011 51.9825 24.2011 50.8545V45.5985H22.4971V50.7105C22.4971 52.9185 23.7931 54.2385 25.8931 54.2385C28.0051 54.2385 29.3011 52.9185 29.3011 50.7105V45.5985H27.5971V50.8545ZM33.6682 47.1465H36.2602V53.9985H37.9642V47.1465H40.5562V45.5985H33.6682V47.1465ZM42.0529 53.9985H43.7569V50.6025H44.6329L46.8769 53.9985H48.8809L46.2529 50.2785C47.1169 49.8825 47.6089 49.1265 47.6089 48.1065C47.6089 46.5465 46.4689 45.5985 44.6209 45.5985H42.0529V53.9985ZM44.7169 47.0145C45.4369 47.0145 45.8569 47.4465 45.8569 48.0825C45.8569 48.7665 45.4369 49.1865 44.7169 49.1865H43.7569V47.0145H44.7169ZM49.2675 53.9985H51.0795L51.8835 51.8145H55.2435L56.0475 53.9985H57.8595L54.6795 45.5985H52.4475L49.2675 53.9985ZM52.4115 50.3625L53.5635 47.2065L54.7155 50.3625H52.4115ZM57.3623 45.5985L60.5423 53.9985H62.7743L65.9543 45.5985H64.1423L61.6583 52.1625L59.1743 45.5985H57.3623ZM65.4572 53.9985H67.2692L68.0732 51.8145H71.4332L72.2372 53.9985H74.0492L70.8692 45.5985H68.6372L65.4572 53.9985ZM68.6012 50.3625L69.7532 47.2065L70.9052 50.3625H68.6012ZM75.3463 53.9985H77.0503V45.5985H75.3463V53.9985ZM79.3982 53.9985H84.2942V52.4505H81.1022V45.5985H79.3982V53.9985ZM86.8226 55.9185L88.2146 52.3305H86.4986L85.4066 55.9185H86.8226ZM13.236 66.9985H16.536C19.2 66.9985 21 65.0665 21 62.7985C21 60.5305 19.2 58.5985 16.536 58.5985H13.236V66.9985ZM16.56 60.1465C18.12 60.1465 19.248 61.2985 19.248 62.7985C19.248 64.2865 18.12 65.4505 16.56 65.4505H14.94V60.1465H16.56ZM22.6433 66.9985H27.5393V65.5825H24.3473V63.4225H27.0593V62.0065H24.3473V60.0145H27.5393V58.5985H22.6433V66.9985ZM32.6338 66.9985H37.5298V65.4505H34.3378V58.5985H32.6338V66.9985ZM38.5817 62.0545L39.9737 58.5985H38.2457L37.1657 62.0545H38.5817ZM41.3001 66.9985H46.1961V65.5825H43.0041V63.4225H45.7161V62.0065H43.0041V60.0145H46.1961V58.5985H41.3001V66.9985ZM48.1762 66.9985H49.8802V60.9745L51.7522 64.1185H52.9522L54.8242 60.9745V66.9985H56.5282V58.5985H54.4042L52.3522 62.1265L50.3002 58.5985H48.1762V66.9985ZM58.8726 66.9985H60.5766V63.6025H61.6446C63.4926 63.6025 64.6206 62.6545 64.6206 61.1065C64.6206 59.5465 63.4926 58.5985 61.6446 58.5985H58.8726V66.9985ZM61.7166 60.0145C62.4366 60.0145 62.8686 60.4465 62.8686 61.0825C62.8686 61.7665 62.4366 62.1865 61.7166 62.1865H60.5766V60.0145H61.7166ZM66.0299 66.9985H70.9259V65.4505H67.7339V58.5985H66.0299V66.9985ZM75.8648 58.3585C73.2128 58.3585 71.4008 60.3985 71.4008 62.7985C71.4008 65.1985 73.2128 67.2385 75.8648 67.2385C78.5048 67.2385 80.3168 65.1985 80.3168 62.7985C80.3168 60.3985 78.5048 58.3585 75.8648 58.3585ZM75.8648 65.6425C74.2808 65.6425 73.1528 64.4065 73.1528 62.7985C73.1528 61.1905 74.2808 59.9545 75.8648 59.9545C77.4368 59.9545 78.5648 61.1905 78.5648 62.7985C78.5648 64.4065 77.4368 65.6425 75.8648 65.6425ZM81.9501 66.9985H83.6541V58.5985H81.9501V66.9985ZM13.236 79.9985H18.132V78.5825H14.94V76.4225H17.652V75.0065H14.94V73.0145H18.132V71.5985H13.236V79.9985ZM19.4239 73.1465H22.0159V79.9985H23.7199V73.1465H26.3119V71.5985H19.4239V73.1465ZM30.9229 79.9985H34.2229C36.8869 79.9985 38.6869 78.0665 38.6869 75.7985C38.6869 73.5305 36.8869 71.5985 34.2229 71.5985H30.9229V79.9985ZM34.2469 73.1465C35.8069 73.1465 36.9349 74.2985 36.9349 75.7985C36.9349 77.2865 35.8069 78.4505 34.2469 78.4505H32.6269V73.1465H34.2469ZM40.3302 79.9985H45.2262V78.5825H42.0342V76.4225H44.7462V75.0065H42.0342V73.0145H45.2262V71.5985H40.3302V79.9985ZM50.3207 79.9985H55.2167V78.4505H52.0247V71.5985H50.3207V79.9985ZM56.2686 75.0545L57.6606 71.5985H55.9326L54.8526 75.0545H56.2686ZM58.9869 79.9985H60.6909V71.5985H58.9869V79.9985ZM63.0388 79.9985H64.7428V73.9265L68.4988 79.9985H70.6828V71.5985H68.9788V77.6705L65.2228 71.5985H63.0388V79.9985ZM72.2761 78.8345C73.0201 79.7225 73.9681 80.2385 75.3841 80.2385C76.9321 80.2385 78.1561 79.2905 78.1801 77.7065C78.1801 74.8265 74.3641 75.2585 74.3641 73.7345C74.3641 73.2305 74.7601 72.8465 75.3601 72.8465C75.9961 72.8465 76.5481 73.2665 77.0401 73.9025L78.2881 72.7745C77.5681 71.9225 76.6081 71.3585 75.3481 71.3585C73.7401 71.3585 72.6361 72.4625 72.6361 73.7945C72.6361 76.6385 76.4521 76.2185 76.4521 77.7665C76.4521 78.3665 76.0441 78.7265 75.3721 78.7265C74.6881 78.7265 74.0161 78.3425 73.5121 77.6945L72.2761 78.8345ZM79.9668 79.9985H84.8628V78.5825H81.6708V76.4225H84.3828V75.0065H81.6708V73.0145H84.8628V71.5985H79.9668V79.9985ZM86.8429 79.9985H88.5469V76.6025H89.4229L91.6669 79.9985H93.6709L91.0429 76.2785C91.9069 75.8825 92.3989 75.1265 92.3989 74.1065C92.3989 72.5465 91.2589 71.5985 89.4109 71.5985H86.8429V79.9985ZM89.5069 73.0145C90.2269 73.0145 90.6469 73.4465 90.6469 74.0825C90.6469 74.7665 90.2269 75.1865 89.5069 75.1865H88.5469V73.0145H89.5069ZM93.5112 73.1465H96.1032V79.9985H97.8072V73.1465H100.399V71.5985H93.5112V73.1465ZM101.896 79.9985H103.6V71.5985H101.896V79.9985ZM109.692 71.3585C107.04 71.3585 105.228 73.3985 105.228 75.7985C105.228 78.1985 107.04 80.2385 109.692 80.2385C112.332 80.2385 114.144 78.1985 114.144 75.7985C114.144 73.3985 112.332 71.3585 109.692 71.3585ZM109.692 78.6425C108.108 78.6425 106.98 77.4065 106.98 75.7985C106.98 74.1905 108.108 72.9545 109.692 72.9545C111.264 72.9545 112.392 74.1905 112.392 75.7985C112.392 77.4065 111.264 78.6425 109.692 78.6425ZM115.777 79.9985H117.481V73.9265L121.237 79.9985H123.421V71.5985H121.717V77.6705L117.961 71.5985H115.777V79.9985Z" fill="#1E1E1E"/>
<path fill-rule="evenodd" clip-rule="evenodd" d="M43.18 101.613L42.0638 102.632H41.7758L42.4359 101.469H43.18V101.613ZM42.3759 105.56H42.1359C41.8358 105.92 41.4998 106.208 41.1757 106.208C40.8397 106.208 40.6717 106.004 40.6717 105.56C40.6717 105.38 40.6957 105.188 40.7317 105.02L42.688 104.372C43.072 103.46 42.6159 103.064 42.0759 103.064C41.1517 103.064 40.0956 104.684 40.0956 105.98C40.0956 106.592 40.3836 106.928 40.8397 106.928C41.3678 106.916 41.9198 106.4 42.3759 105.56ZM41.7046 103.592C41.9686 103.592 42.1966 103.796 42.0766 104.264L40.8644 104.588C41.0565 104.012 41.4165 103.592 41.7046 103.592ZM37.8886 103.616H38.5367L37.5045 106.448C37.4085 106.688 37.5405 106.928 37.7925 106.928C38.5247 106.928 39.4008 106.304 39.7368 105.416H39.5568C39.2928 105.788 38.7167 106.196 38.2846 106.268L39.2328 103.616H40.2049L40.3249 103.208H39.3768L39.7368 102.188H39.3648L38.6927 103.208L37.8886 103.316V103.616ZM36.9878 103.077C37.1198 103.077 37.2998 103.221 37.2158 103.485L36.0516 106.305C36.3517 106.257 36.6637 105.969 36.8438 105.705H37.0358C36.7597 106.413 36.1356 106.929 35.5956 106.929C35.4636 106.929 35.2715 106.785 35.3675 106.521L36.4477 103.701C36.1477 103.749 35.8356 104.037 35.6556 104.301H35.4756C35.7516 103.581 36.4237 103.077 36.9878 103.077ZM37.3246 102.356C37.5647 102.356 37.7687 102.164 37.7687 101.913C37.7687 101.673 37.5647 101.469 37.3246 101.469C37.0726 101.469 36.8806 101.673 36.8806 101.913C36.8806 102.152 37.0846 102.356 37.3246 102.356ZM32.0797 104.697C32.3437 104.121 32.2477 103.857 32.0797 103.857C31.9357 103.857 31.7676 104.013 31.5996 104.301H31.4196C31.6956 103.689 32.0557 103.077 32.4517 103.077C32.7878 103.077 32.9078 103.413 32.9078 103.785V104.313C32.9618 104.25 33.0144 104.188 33.0658 104.128L33.0667 104.127L33.0675 104.126C33.5745 103.531 33.9617 103.077 34.408 103.077C34.7561 103.077 34.9361 103.293 34.9361 103.617C34.9361 103.809 34.8761 104.049 34.7441 104.301L33.7479 106.305C34.048 106.257 34.36 105.969 34.54 105.705H34.7201C34.444 106.425 33.7719 106.929 33.2079 106.929C32.9558 106.929 32.8118 106.665 32.9198 106.449L34.072 104.229C34.204 103.977 34.228 103.809 34.024 103.809C33.7479 103.809 33.0998 104.265 32.7518 104.685L31.9957 106.677C31.9117 106.881 31.8277 106.929 31.6356 106.929C31.3236 106.929 31.1676 106.725 31.3116 106.401L32.0797 104.697ZM31.2987 103.928C31.4307 103.472 31.3587 103.064 31.0106 103.064C30.5766 103.064 30.4407 103.351 30.02 104.238L29.9905 104.3V103.772C29.9905 103.4 29.8705 103.064 29.5344 103.064C29.1384 103.064 28.7783 103.676 28.5023 104.288H28.6823C28.8743 104.012 29.0544 103.844 29.1984 103.844C29.3664 103.844 29.4624 104.108 29.1984 104.684L28.4303 106.388C28.2863 106.712 28.4423 106.916 28.7543 106.916C28.9464 106.916 29.0304 106.868 29.1144 106.664L29.8705 104.672C30.0865 104.408 30.2785 104.18 30.5186 103.928H31.2987ZM27.5064 104.264C27.6264 103.796 27.3984 103.592 27.1344 103.592C26.8463 103.592 26.4863 104.012 26.2942 104.588L27.5064 104.264ZM27.8057 105.56H27.5657C27.2656 105.92 26.9296 106.208 26.6055 106.208C26.2695 106.208 26.1015 106.004 26.1015 105.56C26.1015 105.38 26.1255 105.188 26.1615 105.02L28.1178 104.372C28.5018 103.46 28.0458 103.064 27.5057 103.064C26.5815 103.064 25.5254 104.684 25.5254 105.98C25.5254 106.592 25.8134 106.928 26.2695 106.928C26.7976 106.916 27.3497 106.4 27.8057 105.56ZM23.9665 103.616H23.3184V103.316L24.1225 103.208L24.7946 102.188H25.1666L24.8066 103.208H25.7547L25.6347 103.616H24.6626L23.7144 106.268C24.1465 106.196 24.7226 105.788 24.9866 105.416H25.1666C24.8306 106.304 23.9545 106.928 23.2224 106.928C22.9703 106.928 22.8383 106.688 22.9343 106.448L23.9665 103.616ZM19.8865 105.812C19.8865 104.936 20.8586 103.76 21.3987 103.76C21.5187 103.76 21.6387 103.772 21.7347 103.808L21.1707 105.32C20.8466 105.716 20.3425 106.196 20.1025 106.196C19.9705 106.196 19.8865 106.076 19.8865 105.812ZM22.5632 102.884L22.8632 102.908L21.8191 105.308C21.567 105.884 21.675 106.148 21.8191 106.148C21.9631 106.148 22.1431 105.98 22.3351 105.704H22.5152C22.2391 106.316 21.8791 106.928 21.483 106.928C21.147 106.928 20.9429 106.568 21.0029 105.92L21.0269 105.692L20.9616 105.784C20.5317 106.384 20.1427 106.928 19.7428 106.928C19.3947 106.928 19.2147 106.712 19.2147 106.388C19.2147 104.996 20.7389 103.22 22.1671 103.22H22.2271L22.5632 102.884ZM19.814 103.928C19.946 103.472 19.874 103.064 19.526 103.064C19.0919 103.064 18.956 103.351 18.5354 104.238L18.5058 104.3V103.772C18.5058 103.4 18.3858 103.064 18.0498 103.064C17.6537 103.064 17.2937 103.676 17.0176 104.288H17.1976C17.3897 104.012 17.5697 103.844 17.7017 103.844C17.8697 103.844 17.9658 104.108 17.7017 104.684L16.9336 106.4C16.7896 106.724 16.9456 106.928 17.2576 106.928C17.4497 106.928 17.5337 106.88 17.6177 106.676L18.3738 104.684C18.5898 104.42 18.7819 104.192 19.0219 103.94H19.814V103.928ZM14.8684 106.567L14.7964 106.783H12L12.072 106.555C12.9361 106.399 13.0802 106.327 13.4402 105.355L14.2203 103.267C14.5684 102.295 14.4964 102.223 13.7403 102.067L13.8123 101.851H17.4488L17.2328 103.015H16.9687C16.9687 102.319 16.8967 102.139 16.2366 102.139H16.0686C15.4205 102.139 15.3365 102.235 15.1565 102.739L14.6404 104.143H15.3965C15.9006 104.143 16.0926 103.831 16.3206 103.423H16.5847L15.9606 105.127H15.6965C15.7565 104.611 15.7565 104.407 15.2885 104.407H14.5324L14.1843 105.367C13.8081 106.366 13.9156 106.387 14.8115 106.556C14.8301 106.56 14.8491 106.563 14.8684 106.567Z" fill="black"/>
<path fill-rule="evenodd" clip-rule="evenodd" d="M17.2448 92.4326L16.1286 93.237V93.249H15.8405L16.5006 92.2885H17.2448V92.4326ZM25.0472 98.0633L26.8355 93.309L26.7755 93.2369L25.5393 93.381V93.5251L25.7793 93.7052C25.9843 93.8646 25.93 94.0132 25.76 94.479L25.7313 94.5576L24.3631 98.2074C24.2551 98.4235 24.3991 98.6876 24.6511 98.6876C25.2152 98.6876 25.8153 98.1714 26.0914 97.463H25.9114C25.7193 97.7271 25.3353 98.0153 25.0472 98.0633ZM33.2438 94.4015L34.36 93.381V93.2369H33.6159L32.9558 94.4015H33.2438ZM33.315 97.3189H33.5551C33.111 98.1713 32.5589 98.6876 32.0308 98.6876C31.5747 98.6876 31.2867 98.3514 31.2867 97.7391C31.2867 96.4425 32.3429 94.8217 33.267 94.8217C33.7951 94.8217 34.2632 95.2179 33.8791 96.1303L31.9108 96.7787C31.8748 96.9467 31.8508 97.1388 31.8508 97.3189C31.8508 97.7631 32.0188 97.9672 32.3549 97.9672C32.6789 97.9672 33.015 97.6791 33.315 97.3189ZM33.2544 96.0223C33.3745 95.5661 33.1464 95.362 32.8824 95.362C32.6063 95.362 32.2463 95.7822 32.0422 96.3465L33.2544 96.0223ZM29.7258 95.3857H29.0777V95.0856L29.8818 94.9775L30.554 93.957H30.926L30.566 94.9775H31.5141L31.3941 95.3857H30.4219L29.4738 98.039C29.9058 97.967 30.4819 97.5588 30.746 97.1866H30.926C30.59 98.075 29.7138 98.6993 28.9817 98.6993C28.7296 98.6993 28.5976 98.4592 28.6936 98.2191L29.7258 95.3857ZM28.4055 95.2416C28.4775 94.9775 28.3095 94.8334 28.1655 94.8334C27.6014 94.8334 26.9292 95.3497 26.6532 96.058H26.8332C27.0133 95.7939 27.3253 95.5057 27.6254 95.4577L26.5452 98.2791C26.4492 98.5432 26.6412 98.6873 26.7732 98.6873C27.3133 98.6873 27.9374 98.1711 28.2135 97.4627H28.0334C27.8534 97.7268 27.5413 98.015 27.2413 98.063L28.4055 95.2416ZM28.9585 93.6811C28.9585 93.9213 28.7544 94.1254 28.5144 94.1254C28.2744 94.1254 28.0703 93.9213 28.0703 93.6811C28.0703 93.441 28.2624 93.2369 28.5144 93.2369C28.7544 93.2369 28.9585 93.441 28.9585 93.6811ZM22.8987 95.53C22.3586 95.53 21.3864 96.7066 21.3864 97.5831C21.3864 97.8472 21.4704 97.9672 21.6145 97.9672C21.8425 97.9672 22.3466 97.487 22.6706 97.0908L23.2347 95.5781C23.1267 95.5421 23.0187 95.53 22.8987 95.53ZM24.3632 94.6776L24.0632 94.6536L23.7271 94.9898H23.6671C22.2389 94.9898 20.7146 96.7667 20.7146 98.1594C20.7146 98.4835 20.8946 98.6996 21.2427 98.6996C21.6426 98.6996 22.0316 98.1556 22.4616 97.5544L22.5269 97.463L22.5029 97.6911C22.4429 98.3395 22.6469 98.6996 22.983 98.6996C23.3791 98.6996 23.7391 98.0873 24.0152 97.475H23.8351C23.6431 97.7512 23.4631 97.9192 23.3191 97.9192C23.175 97.9192 23.067 97.6551 23.3191 97.0788L24.3632 94.6776ZM18.3135 98.5677C17.7974 98.7718 17.4373 99.0119 17.4373 99.3841C17.4373 99.7322 17.7614 99.8763 18.4335 99.8763C19.3337 99.8763 19.8258 99.6122 19.8258 99.264C19.8258 99.1079 19.6217 99.0359 19.0816 98.8558C18.7336 98.7478 18.4815 98.6517 18.3135 98.5677ZM18.9128 97.0909C18.6728 97.0909 18.5888 96.8868 18.5888 96.6707C18.5888 95.9743 18.9248 95.1099 19.4649 95.1099C19.705 95.1099 19.789 95.314 19.789 95.5301C19.777 96.2385 19.4409 97.0909 18.9128 97.0909ZM19.3701 98.2194C20.0302 98.4235 20.4383 98.5795 20.4383 99.0358C20.4383 99.6241 19.3581 100.32 18.0499 100.308C17.2937 100.308 16.6456 100.104 16.6456 99.612C16.6456 99.1438 17.0777 98.7596 18.1339 98.4475C17.9899 98.3514 17.9299 98.2314 17.9299 98.0633C17.9299 97.7751 18.1939 97.547 18.65 97.3309C18.2059 97.2709 17.9178 96.9347 17.9178 96.4425C17.9178 95.6861 18.542 94.8217 19.5261 94.8217C19.7302 94.8217 19.9102 94.8697 20.0542 94.9658H21.1344L21.0144 95.374H20.3783C20.4143 95.482 20.4383 95.6021 20.4383 95.7341C20.4383 96.4665 19.8502 97.3069 18.914 97.3549C18.674 97.487 18.554 97.6671 18.554 97.8112C18.554 97.9807 18.7503 98.038 19.1842 98.1647C19.2419 98.1815 19.3039 98.1996 19.3701 98.2194ZM15.5646 96.1664C16.0327 96.1664 16.0447 96.3705 15.9727 96.8868H16.2367L16.8609 95.182H16.5968C16.3688 95.5902 16.1767 95.9023 15.6726 95.9023H14.6405L15.1446 94.4976C15.3246 93.9934 15.4086 93.8973 16.0567 93.8973H16.5128C17.1729 93.8973 17.2449 94.0774 17.2449 94.7738H17.509L17.725 93.6092H13.8123L13.7403 93.8253C14.4964 93.9814 14.5684 94.0534 14.2204 95.0259L13.4403 97.1269C13.0802 98.0994 12.9362 98.1714 12.06 98.3275L12 98.5556H16.3448L17.1249 97.319H16.8248C16.3208 97.8112 15.8167 98.2675 14.8325 98.2675C13.75 98.2675 13.7693 98.2145 14.0941 97.3219C14.115 97.2645 14.1372 97.2035 14.1604 97.1389L14.5204 96.1784H15.5646V96.1664Z" fill="black"/>
<path fill-rule="evenodd" clip-rule="evenodd" d="M19.1496 85.8861C19.3896 85.8861 19.5936 85.6822 19.5936 85.4423C19.5936 85.2024 19.3896 84.9985 19.1496 84.9985C18.8977 84.9985 18.7057 85.2024 18.7057 85.4423C18.7057 85.6942 18.8977 85.8861 19.1496 85.8861ZM22.7022 87.3972C22.7022 86.8214 22.5583 86.6055 22.1503 86.6055C21.6464 86.6055 21.1785 87.1453 20.7106 87.793L21.7184 85.0942L21.6584 85.0102L20.4227 85.1542V85.2981L20.6626 85.478C20.8716 85.6405 20.811 85.8029 20.633 86.2803L20.6146 86.3296L19.5229 89.1844C19.4269 89.4243 19.3189 89.7121 19.3189 89.7841C19.3189 90.12 19.7748 90.4438 20.1947 90.4438C21.1305 90.4558 22.7022 88.7286 22.7022 87.3972ZM33.1042 86.1737L34.22 85.1542V85.0102H33.4761L32.8163 86.1737H33.1042ZM33.1765 89.0884H33.4164C32.9605 89.94 32.4086 90.4558 31.8807 90.4438C31.4248 90.4438 31.1369 90.12 31.1369 89.5082C31.1369 88.2128 32.1927 86.5935 33.1165 86.5935C33.6444 86.5935 34.1123 86.9894 33.7284 87.901L31.7727 88.5487C31.7368 88.7166 31.7128 88.9085 31.7128 89.0884C31.7128 89.5322 31.8807 89.7361 32.2167 89.7361C32.5406 89.7361 32.8765 89.4483 33.1765 89.0884ZM33.1153 87.793C33.2353 87.3372 33.0073 87.1333 32.7434 87.1333C32.4555 87.1333 32.0955 87.5531 31.9036 88.1169L33.1153 87.793ZM29.5747 87.158H28.9268V86.8581L29.7306 86.7502L30.4025 85.7306H30.7744L30.4145 86.7502H31.3623L31.2423 87.158H30.2705L29.3227 89.8088C29.7546 89.7369 30.3305 89.329 30.5945 88.9572H30.7744C30.4385 89.8448 29.5627 90.4685 28.8308 90.4685C28.5789 90.4685 28.4469 90.2286 28.5429 89.9887L29.5747 87.158ZM28.5931 87.4698C28.7251 87.014 28.6531 86.6062 28.3052 86.6062C27.8713 86.6062 27.7354 86.8927 27.3149 87.7794L27.2854 87.8417V87.3139C27.2854 86.9421 27.1654 86.6062 26.8295 86.6062C26.4336 86.6062 26.0736 87.218 25.7977 87.8297H25.9776C26.1696 87.5538 26.3496 87.3859 26.4815 87.3859C26.6495 87.3859 26.7455 87.6498 26.4815 88.2255L25.7137 89.9288C25.5697 90.2526 25.7257 90.4565 26.0376 90.4565C26.2296 90.4565 26.3136 90.4085 26.3976 90.2046L27.1534 88.2135C27.3694 87.9496 27.5613 87.7217 27.8013 87.4698H28.5931ZM24.7902 87.793C24.9101 87.3372 24.6822 87.1333 24.4182 87.1333C24.1303 87.1333 23.7823 87.5531 23.5784 88.1169L24.7902 87.793ZM25.0893 89.0884H24.8494C24.5495 89.4483 24.2135 89.7361 23.8896 89.7361C23.5536 89.7361 23.3857 89.5322 23.3857 89.0884C23.3857 88.9085 23.4097 88.7166 23.4457 88.5487L25.4013 87.901C25.7852 86.9894 25.3293 86.5935 24.7894 86.5935C23.8656 86.5935 22.8098 88.2128 22.8098 89.5082C22.8098 90.12 23.0977 90.4438 23.5536 90.4438C24.0815 90.4558 24.6334 89.94 25.0893 89.0884ZM20.0512 89.5446C20.0512 89.7006 20.3272 89.8805 20.5191 89.8805C21.299 89.8805 22.0308 88.4771 22.0188 87.6975C22.0188 87.4336 21.8869 87.3256 21.7069 87.3256C21.419 87.3256 20.8911 87.7574 20.5551 88.1653L20.2432 89.0049C20.1352 89.2808 20.0512 89.4967 20.0512 89.5446ZM18.7917 86.6062C18.9357 86.6062 19.1036 86.7502 19.0316 87.014L17.8799 89.8328C18.1798 89.7848 18.4917 89.4969 18.6717 89.2331H18.8517C18.5757 89.9407 17.9518 90.4565 17.4119 90.4565C17.268 90.4565 17.076 90.3126 17.172 90.0487L18.2518 87.2299C17.9518 87.2779 17.6399 87.5658 17.4599 87.8297H17.28C17.5559 87.122 18.2278 86.6062 18.7917 86.6062ZM13.8116 85.3587H16.3911L16.3192 85.5866C15.4433 85.7426 15.2994 85.8145 14.9394 86.7861L14.1716 88.8972C13.7997 89.9047 13.8956 90.0247 14.5555 90.0247C15.3708 90.0247 15.9053 89.4323 16.3721 88.915C16.4068 88.8765 16.4411 88.8385 16.4751 88.8012H16.7751L15.9232 90.3125H12L12.072 90.0966C12.9358 89.9407 13.0798 89.8687 13.4397 88.8972L14.2196 86.7741C14.5675 85.8025 14.4955 85.7306 13.7397 85.5746L13.8116 85.3587Z" fill="black"/>
</svg>
