<svg width="67" height="80" viewBox="0 0 67 80" fill="none" xmlns="http://www.w3.org/2000/svg">
<g clip-path="url(#clip0_2848_45003)">
<path d="M3.57037 80H66.1001V4.13635H60.9584L61.1543 75.258L3.57037 75.6188V80Z" fill="#9287B0"/>
<path d="M60.5411 1.18121H1.1539V74.5192H60.5411V1.18121Z" fill="white"/>
<path d="M61.0649 75.7004H0.632295C0.338488 75.7004 0.100037 75.4599 0.100037 75.1635V0.536913C0.100037 0.240537 0.338488 0 0.632295 0H61.0649C61.3587 0 61.5971 0.240537 61.5971 0.536913V75.1635C61.5971 75.4599 61.3587 75.7004 61.0649 75.7004ZM1.16455 74.6266H60.5326V1.07383H1.16455V74.6266Z" fill="#2E186A"/>
<path d="M48.3226 15.7853H24.4775C24.1837 15.7853 23.9452 15.5447 23.9452 15.2483C23.9452 14.952 24.1837 14.7114 24.4775 14.7114H48.3226C48.6164 14.7114 48.8549 14.952 48.8549 15.2483C48.8549 15.5447 48.6164 15.7853 48.3226 15.7853Z" fill="#2E186A"/>
<path d="M16.285 11.0604H12.0184C10.8449 11.0604 9.89362 12.02 9.89362 13.2038V17.5077C9.89362 18.6914 10.8449 19.651 12.0184 19.651H16.285C17.4585 19.651 18.4097 18.6914 18.4097 17.5077V13.2038C18.4097 12.02 17.4585 11.0604 16.285 11.0604Z" fill="white"/>
<path d="M16.285 20.1879H12.0163C10.5515 20.1879 9.35922 18.9853 9.35922 17.5077V13.2016C9.35922 11.724 10.5515 10.5214 12.0163 10.5214H16.285C17.7497 10.5214 18.942 11.724 18.942 13.2016V17.5077C18.942 18.9853 17.7497 20.1879 16.285 20.1879ZM12.0163 11.5973C11.1391 11.5973 10.4237 12.3168 10.4237 13.2038V17.5098C10.4237 18.3946 11.137 19.1163 12.0163 19.1163H16.285C17.1621 19.1163 17.8775 18.3968 17.8775 17.5098V13.2038C17.8775 12.3189 17.1643 11.5973 16.285 11.5973H12.0163Z" fill="#2E186A"/>
<path d="M13.4065 18.255C13.3937 18.255 13.3788 18.255 13.366 18.255C12.9637 18.2443 12.5826 18.0682 12.31 17.7697L7.41327 12.4005C6.85547 11.7885 6.89592 10.8392 7.50056 10.2765C8.10521 9.71384 9.04837 9.75464 9.60618 10.3646L13.4661 14.5954L20.245 7.94202C20.8347 7.36216 21.7779 7.37719 22.3527 7.97209C22.9275 8.56699 22.9148 9.5184 22.325 10.0983L14.4476 17.8298C14.1687 18.1026 13.7961 18.255 13.4086 18.255H13.4065Z" fill="#6A6AF0"/>
<path d="M48.3226 30.604H24.4775C24.1837 30.604 23.9452 30.3635 23.9452 30.0671C23.9452 29.7707 24.1837 29.5302 24.4775 29.5302H48.3226C48.6164 29.5302 48.8549 29.7707 48.8549 30.0671C48.8549 30.3635 48.6164 30.604 48.3226 30.604Z" fill="#2E186A"/>
<path d="M16.285 25.8792H12.0184C10.8449 25.8792 9.89362 26.8388 9.89362 28.0226V32.3265C9.89362 33.5102 10.8449 34.4698 12.0184 34.4698H16.285C17.4585 34.4698 18.4097 33.5102 18.4097 32.3265V28.0226C18.4097 26.8388 17.4585 25.8792 16.285 25.8792Z" fill="white"/>
<path d="M16.285 35.0067H12.0163C10.5515 35.0067 9.35922 33.804 9.35922 32.3265V28.0204C9.35922 26.5428 10.5515 25.3401 12.0163 25.3401H16.285C17.7497 25.3401 18.942 26.5428 18.942 28.0204V32.3265C18.942 33.804 17.7497 35.0067 16.285 35.0067ZM12.0163 26.4161C11.1391 26.4161 10.4237 27.1356 10.4237 28.0226V32.3286C10.4237 33.2134 11.137 33.935 12.0163 33.935H16.285C17.1621 33.935 17.8775 33.2156 17.8775 32.3286V28.0226C17.8775 27.1377 17.1643 26.4161 16.285 26.4161H12.0163Z" fill="#2E186A"/>
<path d="M13.4065 33.0738C13.3937 33.0738 13.3788 33.0738 13.366 33.0738C12.9637 33.0631 12.5826 32.887 12.31 32.5885L7.41327 27.2193C6.85547 26.6094 6.89592 25.658 7.50056 25.0953C8.10521 24.5326 9.04837 24.5734 9.60618 25.1834L13.4661 29.4142L20.245 22.7608C20.8347 22.1809 21.7779 22.196 22.3527 22.7909C22.9275 23.3858 22.9148 24.3372 22.325 24.9171L14.4476 32.6486C14.1687 32.9213 13.7961 33.0738 13.4086 33.0738H13.4065Z" fill="#6A6AF0"/>
<path d="M48.3226 45.4228H24.4775C24.1837 45.4228 23.9452 45.1823 23.9452 44.8859C23.9452 44.5895 24.1837 44.349 24.4775 44.349H48.3226C48.6164 44.349 48.8549 44.5895 48.8549 44.8859C48.8549 45.1823 48.6164 45.4228 48.3226 45.4228Z" fill="#2E186A"/>
<path d="M16.285 40.698H12.0184C10.8449 40.698 9.89362 41.6576 9.89362 42.8414V47.1452C9.89362 48.329 10.8449 49.2886 12.0184 49.2886H16.285C17.4585 49.2886 18.4097 48.329 18.4097 47.1452V42.8414C18.4097 41.6576 17.4585 40.698 16.285 40.698Z" fill="white"/>
<path d="M16.285 49.8255H12.0163C10.5515 49.8255 9.35922 48.6228 9.35922 47.1452V42.8392C9.35922 41.3616 10.5515 40.1589 12.0163 40.1589H16.285C17.7497 40.1589 18.942 41.3616 18.942 42.8392V47.1452C18.942 48.6228 17.7497 49.8255 16.285 49.8255ZM12.0163 41.2349C11.1391 41.2349 10.4237 41.9544 10.4237 42.8413V47.1474C10.4237 48.0322 11.137 48.7538 12.0163 48.7538H16.285C17.1621 48.7538 17.8775 48.0344 17.8775 47.1474V42.8413C17.8775 41.9565 17.1643 41.2349 16.285 41.2349H12.0163Z" fill="#2E186A"/>
<path d="M13.4065 47.8926C13.3937 47.8926 13.3788 47.8926 13.366 47.8926C12.9637 47.8819 12.5826 47.7058 12.31 47.4072L7.41327 42.0381C6.85547 41.4282 6.89592 40.4768 7.50056 39.9141C8.10521 39.3514 9.04837 39.3922 9.60618 40.0021L13.4661 44.233L20.245 37.5796C20.8347 36.9997 21.7779 37.0148 22.3527 37.6097C22.9275 38.2046 22.9148 39.156 22.325 39.7358L14.4476 47.4674C14.1687 47.7401 13.7961 47.8926 13.4086 47.8926H13.4065Z" fill="#6A6AF0"/>
<path d="M48.3226 60.2416H24.4775C24.1837 60.2416 23.9452 60.0011 23.9452 59.7047C23.9452 59.4083 24.1837 59.1678 24.4775 59.1678H48.3226C48.6164 59.1678 48.8549 59.4083 48.8549 59.7047C48.8549 60.0011 48.6164 60.2416 48.3226 60.2416Z" fill="#2E186A"/>
<path d="M16.285 55.5168H12.0184C10.8449 55.5168 9.89362 56.4764 9.89362 57.6601V61.964C9.89362 63.1478 10.8449 64.1074 12.0184 64.1074H16.285C17.4585 64.1074 18.4097 63.1478 18.4097 61.964V57.6601C18.4097 56.4764 17.4585 55.5168 16.285 55.5168Z" fill="white"/>
<path d="M16.285 64.6443H12.0163C10.5515 64.6443 9.35922 63.4416 9.35922 61.964V57.658C9.35922 56.1804 10.5515 54.9777 12.0163 54.9777H16.285C17.7497 54.9777 18.942 56.1804 18.942 57.658V61.964C18.942 63.4416 17.7497 64.6443 16.285 64.6443ZM12.0163 56.0537C11.1391 56.0537 10.4237 56.7732 10.4237 57.6601V61.9662C10.4237 62.851 11.137 63.5726 12.0163 63.5726H16.285C17.1621 63.5726 17.8775 62.8532 17.8775 61.9662V57.6601C17.8775 56.7753 17.1643 56.0537 16.285 56.0537H12.0163Z" fill="#2E186A"/>
<path d="M13.4065 62.7114C13.3937 62.7114 13.3788 62.7114 13.366 62.7114C12.9637 62.7007 12.5826 62.5246 12.31 62.226L7.41327 56.8569C6.85547 56.247 6.89592 55.2956 7.50056 54.7329C8.10521 54.1702 9.04837 54.211 9.60618 54.8209L13.4661 59.0518L20.245 52.3984C20.8347 51.8185 21.7779 51.8336 22.3527 52.4285C22.9275 53.0233 22.9148 53.9748 22.325 54.5546L14.4476 62.2862C14.1687 62.5589 13.7961 62.7114 13.4086 62.7114H13.4065Z" fill="#6A6AF0"/>
</g>
<defs>
<clipPath id="clip0_2848_45003">
<rect width="66" height="80" fill="white" transform="translate(0.100037)"/>
</clipPath>
</defs>
</svg>
