<svg width="216" height="162" viewBox="0 0 216 162" fill="none" xmlns="http://www.w3.org/2000/svg">
<path d="M26.2075 70.5271C25.3392 67.3915 21.2388 67.681 21.2388 67.681L21.3353 69.8518C23.699 69.4659 25.1945 72.2156 25.1945 72.2156L26.2075 70.5271Z" fill="#E0E0E0"/>
<path d="M86.3148 34.154C91.0906 35.6012 94.0333 30.1018 94.0333 30.1018L91.1389 28.4617C89.7399 31.8385 84.9641 31.4526 84.9641 31.4526L86.3148 34.154Z" fill="#E0E0E0"/>
<path d="M125.775 63.5805C124.859 60.9756 121.385 61.458 121.385 61.458L121.578 63.2911C123.556 62.8087 124.955 65.076 124.955 65.076L125.775 63.5805Z" fill="#E0E0E0"/>
<path d="M71.2639 2.17075C70.3473 -0.434225 66.874 0.048177 66.874 0.048177L67.067 1.88131C69.0448 1.3989 70.4438 3.66619 70.4438 3.66619L71.2639 2.17075Z" fill="#E0E0E0"/>
<path d="M30.115 35.6977C29.1984 33.0928 25.7251 33.5752 25.7251 33.5752L25.9181 35.4083C27.8959 34.9259 29.2949 37.1932 29.2949 37.1932L30.115 35.6977Z" fill="#EBEBEB"/>
<path d="M21.4799 11.1917C18.7302 11.6258 18.5854 15.0991 18.5854 15.0991L20.4668 15.1956C20.3703 13.1695 22.8306 12.2047 22.8306 12.2047L21.4799 11.1917Z" fill="#EBEBEB"/>
<path d="M1.74965 92.7176C6.52543 94.1648 9.46809 88.6654 9.46809 88.6654L6.57367 87.0253C5.17471 90.4021 0.398926 90.0162 0.398926 90.0162L1.74965 92.7176Z" fill="#EBEBEB"/>
<path d="M137.112 34.4435C137.449 32.2244 134.796 31.3079 134.796 31.3079L134.266 32.7068C135.858 33.0928 136.002 35.2153 136.002 35.2153L137.112 34.4435Z" fill="#E0E0E0"/>
<path d="M121.289 10.2751C119.456 11.4812 120.469 14.0861 120.469 14.0861L121.868 13.5555C121.096 12.1083 122.591 10.5646 122.591 10.5646L121.289 10.2751Z" fill="#EBEBEB"/>
<path d="M201.706 59.5284L195.29 78.4386L214.248 82.2013L215.309 62.2299L201.706 59.5284Z" fill="#F5F5F5"/>
<path d="M213.235 64.7384C213.235 64.7384 213.187 64.9314 213.042 65.269C212.849 65.6067 212.559 66.0409 212.077 66.5233C211.595 67.0057 210.919 67.4881 210.051 67.7775C209.183 68.067 208.17 68.1152 207.157 67.9223C206.144 67.7293 205.227 67.3434 204.503 66.7162C203.78 66.1374 203.394 65.4138 203.153 64.7866C202.911 64.1595 202.863 63.5806 202.815 63.243C202.815 62.857 202.815 62.6641 202.863 62.6641C202.911 62.6641 202.863 63.4842 203.394 64.6902C203.635 65.269 204.069 65.9444 204.745 66.475C205.42 67.0057 206.288 67.3916 207.253 67.5846C208.218 67.7775 209.183 67.7293 210.003 67.4881C210.823 67.2469 211.45 66.8127 211.932 66.3786C212.849 65.5102 213.187 64.7384 213.235 64.7384Z" fill="white"/>
<path d="M124.762 47.1306H7.10425V139.221H124.762V47.1306Z" fill="#FAFAFA"/>
<path d="M124.762 139.221C124.762 138.353 124.714 102.703 124.666 47.1307L124.762 47.2272C91.2352 47.2272 50.7617 47.2272 7.15253 47.2272L7.29725 47.0824C7.29725 80.2717 7.29725 111.676 7.29725 139.173L7.20077 139.077C76.9561 139.173 123.749 139.221 124.762 139.221C123.797 139.221 76.9561 139.269 7.10429 139.318H7.00781V139.221C7.00781 111.724 7.00781 80.3199 7.00781 47.1307V46.986H7.15253C50.7617 46.986 91.2352 46.986 124.762 46.986H124.859V47.0824C124.81 102.655 124.762 138.353 124.762 139.221Z" fill="#263238"/>
<path d="M83.4204 126.679H48.4462C44.4423 126.679 41.2102 123.447 41.2102 119.443C41.2102 115.439 44.4423 112.207 48.4462 112.207H83.4204C87.4243 112.207 90.6564 115.439 90.6564 119.443C90.6564 123.398 87.4243 126.679 83.4204 126.679Z" fill="#206BC4"/>
<path d="M53.9457 119.009C53.7045 118.237 53.1739 117.947 52.4985 117.947C51.2925 117.947 50.8101 118.864 50.8101 119.78C50.8101 120.649 51.2442 121.614 52.4985 121.614C53.3186 121.614 53.801 121.131 53.9457 120.408L54.4281 120.456C54.2351 121.179 53.7527 122.048 52.402 122.048C51.1478 122.048 50.2312 121.179 50.2312 119.78C50.2312 118.478 51.196 117.513 52.4503 117.513C53.8492 117.513 54.2834 118.382 54.3799 118.96L53.9457 119.009Z" fill="white"/>
<path d="M57.3226 117.513C58.625 117.513 59.5416 118.382 59.5416 119.78C59.5416 121.083 58.5768 122.048 57.3226 122.048C56.0201 122.048 55.1035 121.179 55.1035 119.78C55.1035 118.478 56.0683 117.513 57.3226 117.513ZM57.3226 117.947C56.1166 117.947 55.6342 118.864 55.6342 119.78C55.6342 120.504 56.1166 121.614 57.3226 121.614C58.5286 121.614 59.011 120.504 59.011 119.78C59.011 118.912 58.5286 117.947 57.3226 117.947Z" fill="white"/>
<path d="M60.4099 117.61H60.9405L63.4008 121.179V117.61H63.8832V121.951H63.3526L60.8923 118.381V121.951H60.4099V117.61Z" fill="white"/>
<path d="M64.8962 117.61H67.3565V118.044H65.3786V119.491H67.3082V119.925H65.3786V121.951H64.8962V117.61Z" fill="white"/>
<path d="M68.1765 117.61H68.6589V121.951H68.1765V117.61Z" fill="white"/>
<path d="M71.0709 120.118H70.2026V121.999H69.7202V117.658H71.0709C72.2287 117.658 72.5664 118.285 72.5664 118.864C72.5664 119.636 72.0357 120.022 71.5533 120.118L72.7111 122.048H72.1322L71.0709 120.118ZM71.0709 119.636C71.6498 119.636 72.0357 119.346 72.0357 118.864C72.0357 118.237 71.5533 118.044 71.0227 118.044H70.2026V119.636H71.0709Z" fill="white"/>
<path d="M73.29 117.61H73.8689L75.5091 121.276L77.1493 117.61H77.7281V121.951H77.2457V118.478L75.702 121.951H75.4126L73.8689 118.526V121.951H73.3865V117.61H73.29Z" fill="white"/>
<path d="M78.6929 117.61H81.1531V118.044H79.1753V119.491H81.1049V119.925H79.1753V121.517H81.1531V121.951H78.6929V117.61ZM80.0918 116.548H80.719L79.9471 117.368H79.5612L80.0918 116.548Z" fill="white"/>
<path d="M64.2115 101.423C57.4763 101.423 52 95.9467 52 89.2115C52 82.4763 57.4763 77 64.2115 77C70.9467 77 76.423 82.4763 76.423 89.2115C76.423 95.9467 70.9467 101.423 64.2115 101.423ZM64.2115 78.3219C58.1687 78.3219 53.2589 83.2316 53.2589 89.2745C53.2589 95.3173 58.1687 100.227 64.2115 100.227C70.2543 100.227 75.1641 95.3173 75.1641 89.2745C75.1641 83.2316 70.2543 78.3219 64.2115 78.3219Z" fill="#232E3C"/>
<path d="M63.3304 92.9883C63.2045 92.9883 63.0156 92.9254 62.8897 92.8624C61.8197 91.9182 59.9942 90.2816 59.7425 89.9669C59.5536 89.6522 59.6166 89.2745 59.9313 89.0857C60.246 88.8968 60.6237 88.9598 60.8125 89.2745C61.0014 89.4633 62.1344 90.5334 63.3304 91.6035L69.4991 85.7495C69.7508 85.4977 70.1285 85.4977 70.3803 85.7495C70.6321 86.0013 70.6321 86.379 70.3803 86.6308L63.771 92.8624C63.6451 92.9254 63.4563 92.9883 63.3304 92.9883Z" fill="#232E3C"/>
<path d="M124.762 56.1033C124.762 56.1516 98.4712 56.2481 66.102 56.2481C33.6846 56.2481 7.44189 56.1998 7.44189 56.1033C7.44189 56.0069 33.6846 55.9586 66.102 55.9586C98.4712 56.0069 124.762 56.0551 124.762 56.1033Z" fill="#263238"/>
<path d="M11.3011 52.1476C11.6741 52.1476 11.9765 51.8452 11.9765 51.4722C11.9765 51.0992 11.6741 50.7969 11.3011 50.7969C10.9281 50.7969 10.6257 51.0992 10.6257 51.4722C10.6257 51.8452 10.9281 52.1476 11.3011 52.1476Z" fill="#263238"/>
<path d="M13.8096 52.1476C14.1826 52.1476 14.485 51.8452 14.485 51.4722C14.485 51.0992 14.1826 50.7969 13.8096 50.7969C13.4366 50.7969 13.1343 51.0992 13.1343 51.4722C13.1343 51.8452 13.4366 52.1476 13.8096 52.1476Z" fill="#263238"/>
<path d="M17.0416 51.4722C17.0416 51.8582 16.7522 52.1476 16.3663 52.1476C15.9804 52.1476 15.6909 51.8582 15.6909 51.4722C15.6909 51.0863 15.9804 50.7969 16.3663 50.7969C16.704 50.7969 17.0416 51.1346 17.0416 51.4722Z" fill="#263238"/>
<path d="M104.501 76.0265C103.633 72.8909 99.5327 73.1804 99.5327 73.1804L99.6292 75.3512C101.993 74.9653 103.488 77.715 103.488 77.715L104.501 76.0265Z" fill="#206BC4"/>
<path d="M64.1727 39.364C61.9536 39.6052 61.7124 42.3549 61.7124 42.3549L63.2079 42.5479C63.2079 40.9077 65.2339 40.2323 65.2339 40.2323L64.1727 39.364Z" fill="#206BC4"/>
<path d="M84.771 9.93747C86.1217 13.3625 90.7046 12.5907 90.7046 12.5907L90.3186 10.1304C87.7137 10.854 85.7358 7.91138 85.7358 7.91138L84.771 9.93747Z" fill="#206BC4"/>
<path d="M33.347 68.0187C31.1279 68.2599 30.8867 71.0096 30.8867 71.0096L32.3822 71.2025C32.3822 69.5624 34.4083 68.887 34.4083 68.887L33.347 68.0187Z" fill="#206BC4"/>
<path d="M42.4162 20.9363C42.7539 18.7172 40.1007 17.8007 40.1007 17.8007L39.5701 19.1996C41.162 19.5855 41.3067 21.7081 41.3067 21.7081L42.4162 20.9363Z" fill="#206BC4"/>
<path d="M4.64417 54.7044C4.25825 58.1777 8.84107 58.9978 8.84107 58.9978L9.66115 56.7305C6.91146 56.4893 6.52554 53.2572 6.52554 53.2572L4.64417 54.7044Z" fill="#206BC4"/>
<path d="M113.281 38.0616C115.5 38.2063 116.224 35.5048 116.224 35.5048L114.777 35.0707C114.535 36.6626 112.413 37.0003 112.413 37.0003L113.281 38.0616Z" fill="#206BC4"/>
<path d="M125.048 129.755L127.908 139.667L138.384 126.306L135.902 161.315H120.925L116.55 161.513C116.55 161.513 117.181 156.002 117.475 152.87C117.517 152.275 117.728 148.786 118.822 145.535C121.051 138.636 125.048 129.755 125.048 129.755Z" fill="#FAFAFA"/>
<path d="M128.413 145.218C128.455 145.257 126.773 146.566 124.627 148.072C122.482 149.619 120.757 150.808 120.715 150.768C120.673 150.729 122.355 149.42 124.501 147.914C126.604 146.407 128.371 145.178 128.413 145.218Z" fill="#263238"/>
<path d="M154.496 124.918L146.335 121.191L143.137 117.623L138.594 122.063L126.604 161.196H147.176L149.826 154.495L154.496 128.566V124.918Z" fill="#206BC4"/>
<path d="M117.77 161.79L117.223 153.464L142.086 149.499C142.086 149.499 146.335 130.151 148.943 126.98C151.341 124.046 154.496 125.077 154.496 125.077C154.496 125.077 157.315 126.9 156.642 133.918C156.305 137.605 154.875 150.332 154.328 154.931C154.201 156.041 153.823 157.112 153.192 158.024C151.761 160.165 149.279 161.473 146.587 161.473L117.77 161.79Z" fill="#206BC4"/>
<path d="M146.166 154.337C146.124 154.337 146.082 153.98 145.914 153.385C145.746 152.83 145.367 152.037 144.778 151.363C144.147 150.689 143.432 150.213 142.843 149.936C142.296 149.658 141.875 149.579 141.917 149.539C141.917 149.5 142.338 149.579 142.927 149.817C143.516 150.055 144.315 150.491 144.946 151.244C145.577 151.958 145.956 152.751 146.082 153.345C146.208 153.94 146.166 154.337 146.166 154.337Z" fill="#263238"/>
<g opacity="0.2">
<g opacity="0.2">
<g opacity="0.2">
<path opacity="0.2" d="M145.703 121.786C145.451 124.244 144.988 126.663 144.231 129.002C143.6 128.843 142.969 128.645 142.38 128.486C143.137 129.517 143.221 130.905 142.927 132.134C142.632 133.363 141.959 134.473 141.328 135.583C138.215 140.817 135.144 146.05 132.031 151.284L141.37 131.262L141.118 127.574L142.927 127.218L145.703 121.786Z" fill="black"/>
</g>
</g>
</g>
<g opacity="0.2">
<g opacity="0.2">
<g opacity="0.2">
<path opacity="0.2" d="M142.001 149.262C143.137 149.182 144.273 149.499 145.199 150.134C146.124 150.768 146.797 151.68 147.092 152.711C147.176 152.949 147.218 153.226 147.092 153.464C147.008 153.702 146.671 153.861 146.461 153.781C146.25 153.702 146.166 153.504 146.082 153.345C145.283 151.601 143.684 150.174 141.749 149.539" fill="black"/>
</g>
</g>
</g>
<path d="M132.073 151.086C132.073 151.086 132.115 150.967 132.199 150.768C132.284 150.531 132.452 150.253 132.62 149.857C132.999 149.064 133.504 147.914 134.135 146.526C135.439 143.711 137.248 139.865 139.225 135.623C139.94 134.077 140.655 132.57 141.286 131.183V131.222C141.202 129.914 141.118 128.685 141.034 127.535V127.456H141.118C141.749 127.337 142.338 127.218 142.927 127.099L142.885 127.138C143.811 125.354 144.568 123.887 145.115 122.857C145.367 122.381 145.577 121.984 145.746 121.667C145.83 121.548 145.872 121.429 145.914 121.35C145.956 121.271 145.956 121.231 145.998 121.231C145.998 121.231 145.998 121.271 145.956 121.35C145.914 121.429 145.872 121.548 145.788 121.667C145.662 121.945 145.451 122.341 145.199 122.857C144.652 123.887 143.937 125.354 143.011 127.178V127.218H142.969C142.38 127.337 141.791 127.456 141.16 127.575L141.244 127.495C141.328 128.645 141.413 129.874 141.497 131.183V131.222V131.262C140.824 132.649 140.151 134.156 139.435 135.702C137.416 139.945 135.607 143.79 134.303 146.566C133.63 147.953 133.125 149.064 132.746 149.857C132.578 150.213 132.41 150.531 132.326 150.729C132.157 151.006 132.073 151.086 132.073 151.086Z" fill="#263238"/>
<path d="M117.77 161.513C117.77 161.513 117.77 161.473 117.77 161.394C117.77 161.275 117.728 161.156 117.728 160.997C117.685 160.64 117.643 160.085 117.601 159.451C117.517 158.063 117.349 156.121 117.181 153.702V153.623H117.265C121.934 152.83 128.287 151.72 135.27 150.491C137.584 150.094 139.814 149.698 141.917 149.341L141.833 149.42C143.306 144.187 144.568 139.667 145.451 136.416C145.914 134.83 146.293 133.522 146.545 132.649C146.671 132.213 146.755 131.896 146.839 131.658C146.882 131.539 146.882 131.46 146.924 131.381C146.924 131.341 146.966 131.301 146.966 131.301C146.966 131.301 146.966 131.341 146.966 131.381C146.966 131.46 146.924 131.539 146.882 131.658C146.797 131.896 146.713 132.253 146.629 132.689C146.377 133.601 146.04 134.87 145.619 136.495C144.736 139.746 143.474 144.266 142.086 149.5V149.579H142.002C139.898 149.936 137.668 150.332 135.355 150.729C128.371 151.918 122.019 152.989 117.349 153.781L117.433 153.702C117.559 156.121 117.685 158.063 117.77 159.451C117.812 160.125 117.812 160.64 117.854 160.997C117.854 161.156 117.854 161.315 117.854 161.394C117.77 161.473 117.77 161.513 117.77 161.513Z" fill="#263238"/>
<path d="M153.234 124.244C153.234 124.284 152.813 124.323 152.182 124.561C151.551 124.799 150.71 125.196 149.953 125.87C149.196 126.544 148.691 127.297 148.438 127.892C148.144 128.486 148.06 128.883 148.018 128.843C148.018 128.843 148.018 128.724 148.06 128.566C148.102 128.367 148.186 128.129 148.312 127.812C148.564 127.218 149.069 126.385 149.827 125.711C150.626 125.037 151.509 124.601 152.14 124.403C152.477 124.323 152.729 124.244 152.94 124.244C153.15 124.244 153.234 124.244 153.234 124.244Z" fill="#263238"/>
<path d="M106.243 115.442C107 114.174 106.664 108.98 107.799 109.178C109.23 109.416 107.926 114.848 107.799 115.323C107.715 115.799 108.473 115.958 108.515 115.482C108.599 114.848 109.44 108.504 110.87 108.861C111.67 109.059 111.291 110.407 111.291 110.407C111.291 110.407 110.071 116.552 110.744 116.671C111.417 116.83 111.964 113.301 112.259 111.993C112.553 110.764 113.395 110.248 113.731 110.883C114.194 111.834 113.31 114.927 113.016 116.156C112.764 117.385 112.048 120.993 113.899 119.566C115.75 118.178 117.728 117.742 118.317 117.94C118.948 118.178 118.779 119.05 118.106 119.209C117.517 119.367 116.634 119.843 116.003 120.279C115.456 120.636 115.035 121.072 114.615 121.508C114.32 121.826 113.731 122.46 113.31 123.451C112.764 124.601 111.754 125.434 110.492 125.83L109.398 130.667L102.415 129.24L103.971 124.125C104.518 120.755 104.224 116.275 104.224 114.213C104.224 110.922 104.686 110.922 105.065 111.002C105.99 111.279 105.528 116.711 106.243 115.442Z" fill="#FFD1BD"/>
<path d="M106.032 119.843C106.032 119.883 106.411 119.922 106.958 120.24C107.505 120.557 108.178 121.152 108.515 121.984C108.599 122.222 108.683 122.46 108.725 122.658L108.767 122.777L108.851 122.737C109.524 122.381 110.197 122.182 110.66 122.103C111.123 122.024 111.417 122.024 111.417 121.984C111.417 121.984 111.123 121.944 110.618 121.984C110.113 122.063 109.44 122.222 108.767 122.579L108.893 122.618C108.851 122.381 108.767 122.143 108.683 121.905C108.472 121.469 108.22 121.072 107.926 120.795C107.631 120.478 107.295 120.279 107 120.121C106.706 119.962 106.453 119.883 106.285 119.843C106.117 119.843 106.032 119.843 106.032 119.843Z" fill="#CC8F75"/>
<path d="M105.107 124.442C105.065 124.482 105.78 124.917 106.748 125.195C107.715 125.472 108.515 125.512 108.515 125.472C108.515 125.432 107.715 125.353 106.79 125.076C105.822 124.759 105.149 124.403 105.107 124.442Z" fill="#CC8F75"/>
<path d="M130.348 119.685L125.048 129.755L127.908 139.627L135.565 132.015L143.095 118.812L130.348 119.685Z" fill="#FFD1BD"/>
<path d="M125.342 120.636C125.342 120.636 117.77 123.174 117.77 123.649C116.423 124.641 111.964 134.79 110.576 136.693L106.537 142.323L109.945 129.834L102.457 127.773C102.457 127.773 96.062 142.323 95.3047 145.535C94.5475 148.786 95.4309 151.323 95.4309 151.323L95.473 151.284C96.0199 152.83 97.0716 154.099 98.2916 154.852C101.447 156.755 104.434 157.112 107.463 155.011C109.188 153.821 111.123 152.394 112.932 151.006L113.395 161.513H117.517C117.517 160.918 117.391 153.742 117.391 153.742C117.391 153.742 118.275 151.046 118.653 148.548C119.032 146.09 125.174 129.834 125.174 129.834L129.97 121.152L130.096 117.94L125.342 120.636Z" fill="#206BC4"/>
<path d="M113.268 161.434C113.268 161.434 113.268 161.315 113.226 161.116C113.226 160.879 113.184 160.561 113.184 160.165C113.142 159.332 113.058 158.143 112.974 156.676C112.847 153.702 112.637 149.619 112.427 145.02C112.511 144.583 112.595 144.108 112.721 143.672C113.731 138.874 114.614 134.513 115.287 131.341C115.624 129.795 115.876 128.486 116.087 127.614C116.171 127.178 116.255 126.861 116.297 126.583C116.339 126.464 116.339 126.385 116.381 126.306C116.381 126.266 116.423 126.227 116.423 126.227C116.423 126.227 116.423 126.266 116.423 126.306C116.423 126.385 116.381 126.464 116.381 126.583C116.339 126.821 116.255 127.178 116.213 127.614C116.045 128.526 115.792 129.795 115.498 131.381C114.867 134.553 113.983 138.914 112.974 143.751C112.89 144.227 112.763 144.663 112.679 145.099V145.059C112.89 149.658 113.058 153.742 113.184 156.716C113.226 158.183 113.268 159.372 113.31 160.205C113.31 160.601 113.31 160.918 113.352 161.156C113.268 161.315 113.268 161.434 113.268 161.434Z" fill="#263238"/>
<path d="M117.475 152.116C117.475 152.116 117.475 151.998 117.517 151.799C117.559 151.561 117.602 151.244 117.686 150.848C117.812 150.015 118.022 148.826 118.275 147.398C118.822 144.464 119.537 140.5 120.336 136.059C120.883 133.165 121.388 130.469 121.808 128.13C122.86 125.87 123.744 124.006 124.375 122.658C124.669 122.024 124.922 121.508 125.09 121.152C125.174 120.993 125.216 120.874 125.3 120.755C125.342 120.676 125.384 120.636 125.384 120.636C125.384 120.636 125.384 120.676 125.342 120.795C125.3 120.914 125.258 121.033 125.174 121.191C125.006 121.548 124.795 122.103 124.501 122.738C123.912 124.086 123.028 125.949 122.019 128.209V128.169C121.598 130.469 121.093 133.205 120.588 136.099C119.747 140.5 119.032 144.504 118.485 147.438C118.191 148.865 117.98 150.055 117.812 150.848C117.728 151.244 117.686 151.561 117.602 151.76C117.517 151.998 117.475 152.116 117.475 152.116Z" fill="#263238"/>
<path d="M102.961 150.967C102.919 150.927 103.256 150.491 103.719 149.777C104.181 149.024 104.728 147.953 105.233 146.764C105.738 145.535 106.074 144.385 106.285 143.552C106.495 142.72 106.579 142.204 106.621 142.204C106.621 142.204 106.621 142.323 106.579 142.561C106.537 142.799 106.495 143.156 106.411 143.592C106.243 144.425 105.906 145.614 105.401 146.843C104.897 148.072 104.308 149.143 103.803 149.856C103.55 150.213 103.34 150.491 103.172 150.689C103.088 150.848 102.961 150.967 102.961 150.967Z" fill="#263238"/>
<g opacity="0.2">
<g opacity="0.2">
<g opacity="0.2">
<path opacity="0.2" d="M103.55 150.372C103.256 150.411 103.088 150.729 103.214 150.967C103.34 151.204 103.677 151.323 103.929 151.284C104.223 151.244 104.476 151.085 104.644 150.887C105.275 150.332 105.654 149.539 105.948 148.786C106.579 146.883 106.621 144.821 106.663 142.839C106.074 145.455 105.023 147.953 103.55 150.253" fill="black"/>
</g>
</g>
</g>
<g opacity="0.2">
<g opacity="0.2">
<g opacity="0.2">
<path opacity="0.2" d="M112.721 151.284C111.459 149.381 111.039 147.121 111.207 144.861C111.417 141.808 113.016 139.033 114.194 136.178C113.521 139.191 113.142 142.165 112.511 145.02C112.511 145.02 112.848 149.301 112.848 151.205" fill="black"/>
</g>
</g>
</g>
<g opacity="0.2">
<g opacity="0.2">
<g opacity="0.2">
<path opacity="0.2" d="M117.98 149.381C118.317 144.821 118.653 140.222 119.494 135.742C120.336 131.222 122.019 126.583 124.375 122.579C123.786 124.403 121.892 128.169 121.892 128.169C121.892 128.169 119.158 141.649 117.98 148.469" fill="black"/>
</g>
</g>
</g>
<path d="M117.349 154.654L118.022 161.751H114.488C114.404 161.751 112.932 161.711 111.333 161.711C110.155 161.87 108.304 161.87 107.715 161.79C107.631 161.79 107.547 161.751 107.547 161.751C107.547 161.751 107.294 161.711 107 161.632C106.663 161.513 106.369 161.315 106.411 160.997C106.579 159.966 107.21 159.887 107.21 159.887C107.21 159.887 107.337 159.887 107.547 159.848L107.589 159.768C107.084 159.768 106.705 159.768 106.495 159.729C106.411 159.729 106.327 159.689 106.327 159.689C106.327 159.689 105.065 159.53 105.149 158.936C105.317 157.905 105.948 157.826 105.948 157.826C105.948 157.826 106.369 157.786 107 157.746C106.495 157.746 106.074 157.746 105.864 157.707C105.78 157.707 105.696 157.667 105.696 157.667C105.696 157.667 104.434 157.508 104.518 156.914C104.686 155.883 105.317 155.804 105.317 155.804C105.317 155.804 105.654 155.764 106.159 155.764C105.738 155.764 105.401 155.764 105.233 155.724C105.149 155.724 105.065 155.685 105.065 155.685C105.065 155.685 103.803 155.526 103.887 154.931C104.055 153.9 104.686 153.821 104.686 153.821C104.686 153.821 106.663 153.702 108.01 153.623C108.01 153.623 109.566 152.315 110.155 152.354C111.081 152.433 116.339 154.297 116.339 154.297L117.349 154.654Z" fill="#FFD1BD"/>
<path d="M110.702 159.649C110.702 159.689 109.903 159.768 108.935 159.808C107.967 159.847 107.21 159.808 107.21 159.768C107.21 159.728 108.01 159.649 108.977 159.61C109.903 159.57 110.702 159.57 110.702 159.649Z" fill="#CC8F75"/>
<path d="M110.702 157.627C110.702 157.667 109.566 157.786 108.22 157.826C106.832 157.865 105.696 157.865 105.696 157.786C105.696 157.746 106.832 157.627 108.178 157.588C109.566 157.548 110.702 157.588 110.702 157.627Z" fill="#CC8F75"/>
<g opacity="0.78">
<g opacity="0.78">
<g opacity="0.78">
<g opacity="0.78">
<g opacity="0.78">
<g opacity="0.78">
<g opacity="0.78">
<path opacity="0.78" d="M110.534 155.605C110.534 155.645 109.398 155.764 108.052 155.804C106.663 155.843 105.528 155.843 105.528 155.764C105.528 155.724 106.663 155.605 108.01 155.566C109.398 155.526 110.534 155.526 110.534 155.605Z" fill="#CC8F75"/>
</g>
</g>
</g>
</g>
</g>
</g>
</g>
<path d="M107.421 153.663C107.421 153.702 107.715 153.702 108.22 153.702C108.767 153.702 109.44 153.742 110.155 153.742C110.87 153.782 111.501 153.782 112.09 153.821C112.595 153.821 112.89 153.821 112.89 153.821C112.89 153.782 112.595 153.742 112.09 153.702C111.586 153.663 110.912 153.623 110.155 153.583C109.398 153.544 108.725 153.544 108.22 153.583C107.715 153.623 107.421 153.663 107.421 153.663Z" fill="#CC8F75"/>
<path d="M146.587 96.015C147.47 93.9533 150.289 93.0414 152.519 93.7947C154.706 94.548 156.179 96.689 156.473 98.8696C156.599 99.9401 156.473 101.09 155.8 102.002C155.127 102.953 153.907 103.469 152.729 103.627C150.584 103.905 148.312 103.033 147.008 101.407C145.704 99.7815 145.409 97.482 146.25 95.6185" fill="#263238"/>
<path d="M155.548 96.2528C155.548 96.2528 155.506 96.3717 155.379 96.5303C155.253 96.6889 155.085 96.9268 154.833 97.1647C154.328 97.6801 153.444 98.2748 152.35 98.6317C151.257 98.9885 150.163 98.9885 149.448 98.9092C149.069 98.8695 148.775 98.7902 148.564 98.711C148.354 98.6317 148.27 98.592 148.27 98.592C148.27 98.5524 148.733 98.6713 149.448 98.7506C150.163 98.8299 151.215 98.7902 152.266 98.4334C153.318 98.0766 154.159 97.5215 154.706 97.0458C155.253 96.6096 155.506 96.2528 155.548 96.2528Z" fill="#455A64"/>
<path d="M156.473 98.592C156.473 98.592 156.389 98.6713 156.221 98.7903C156.053 98.9092 155.8 99.1075 155.506 99.3057C154.875 99.7022 153.907 100.178 152.771 100.376C152.182 100.495 151.635 100.535 151.131 100.495C150.626 100.455 150.163 100.376 149.784 100.297C149.406 100.178 149.111 100.099 148.943 99.9797C148.733 99.9004 148.648 99.8211 148.648 99.8211C148.648 99.7815 149.111 99.9797 149.826 100.138C150.205 100.218 150.626 100.297 151.131 100.297C151.635 100.297 152.182 100.257 152.729 100.178C153.865 99.9401 154.791 99.5039 155.422 99.1868C156.053 98.8299 156.473 98.592 156.473 98.592Z" fill="#455A64"/>
<path d="M123.828 102.081C118.611 91.2969 131.021 85.8651 137.753 87.6493C144.105 89.3541 146.797 92.3277 147.849 96.3321C148.901 100.337 148.859 104.658 147.176 108.504C146.335 110.367 144.862 112.31 142.717 112.548" fill="#263238"/>
<path d="M130.054 128.764C129.97 123.61 129.886 116.513 129.886 116.552C129.886 116.552 125.174 115.799 124.206 110.05C123.701 107.156 123.87 102.438 124.122 98.5921C124.375 95.1031 126.815 90.8608 130.475 91.2176L141.917 93.9533C143.011 94.0722 143.853 94.9445 143.853 96.015L143.095 118.337" fill="#FFD1BD"/>
<path d="M126.941 102.715C126.941 103.112 127.235 103.429 127.698 103.469C128.119 103.508 128.497 103.191 128.497 102.795C128.497 102.398 128.203 102.081 127.74 102.041C127.319 102.041 126.983 102.319 126.941 102.715Z" fill="#263238"/>
<path d="M135.439 102.715C135.439 103.112 135.733 103.429 136.196 103.469C136.617 103.508 136.995 103.191 136.995 102.795C136.995 102.398 136.701 102.081 136.238 102.041C135.817 102.041 135.481 102.319 135.439 102.715Z" fill="#263238"/>
<path d="M130.348 106.799C130.348 106.759 129.843 106.68 128.96 106.561C128.75 106.522 128.539 106.482 128.497 106.363C128.455 106.204 128.539 106.006 128.623 105.768C128.834 105.292 129.044 104.777 129.254 104.222C130.138 102.002 130.769 100.178 130.685 100.178C130.601 100.138 129.801 101.922 128.918 104.103C128.707 104.658 128.497 105.174 128.287 105.649C128.203 105.887 128.076 106.125 128.161 106.442C128.203 106.601 128.371 106.72 128.497 106.759C128.623 106.799 128.75 106.799 128.876 106.799C129.843 106.839 130.348 106.839 130.348 106.799Z" fill="#263238"/>
<path d="M129.885 116.592C129.885 116.592 134.008 116.83 138.089 114.53C138.089 114.53 136.028 118.535 129.885 118.019V116.592Z" fill="#CC8F75"/>
<path d="M142.717 103.31C142.801 103.27 145.998 101.922 146.04 105.411C146.082 108.861 142.38 108.187 142.38 108.107C142.338 107.988 142.717 103.31 142.717 103.31Z" fill="#FFD1BD"/>
<path d="M143.474 106.759C143.474 106.759 143.558 106.799 143.642 106.839C143.768 106.878 143.937 106.918 144.105 106.839C144.483 106.72 144.82 106.125 144.82 105.491C144.82 105.174 144.736 104.856 144.652 104.619C144.525 104.381 144.357 104.182 144.147 104.143C143.937 104.103 143.81 104.222 143.768 104.301C143.726 104.381 143.726 104.46 143.726 104.46C143.726 104.46 143.642 104.42 143.684 104.262C143.684 104.182 143.726 104.103 143.81 104.024C143.894 103.945 144.021 103.905 144.147 103.945C144.441 103.945 144.694 104.222 144.82 104.46C144.988 104.737 145.072 105.055 145.072 105.411C145.072 106.125 144.694 106.759 144.147 106.918C143.894 106.997 143.684 106.918 143.558 106.839C143.474 106.878 143.432 106.799 143.474 106.759Z" fill="#CC8F75"/>
<path d="M130.601 109.02C130.727 109.297 130.853 109.614 131.063 109.852C131.274 110.09 131.568 110.288 131.905 110.328C132.283 110.328 132.62 110.13 132.788 109.852C132.999 109.575 133.041 109.218 133.041 108.901C133.041 108.584 132.872 108.227 132.536 108.187C132.41 108.187 132.283 108.227 132.157 108.266C131.61 108.465 131.021 108.703 130.474 108.901" fill="#CC8F75"/>
<path d="M131.274 110.328C131.274 110.288 131.652 110.407 132.157 110.209C132.41 110.129 132.704 109.931 132.83 109.614C132.999 109.337 132.999 108.94 132.872 108.583C132.83 108.504 132.788 108.425 132.704 108.345C132.62 108.266 132.662 108.266 132.578 108.306C132.494 108.306 132.41 108.385 132.326 108.425C132.241 108.464 132.157 108.504 132.031 108.544C131.652 108.663 131.358 108.821 131.063 108.9C130.517 109.099 130.18 109.178 130.138 109.178C130.138 109.138 130.432 108.98 130.979 108.742C131.232 108.623 131.568 108.464 131.905 108.345C131.989 108.306 132.073 108.266 132.199 108.226C132.283 108.187 132.368 108.147 132.494 108.107C132.578 108.107 132.662 108.068 132.746 108.107C132.83 108.147 132.872 108.187 132.914 108.266C132.999 108.345 133.041 108.464 133.125 108.583C133.335 109.019 133.293 109.495 133.083 109.852C132.872 110.209 132.536 110.407 132.241 110.486C131.947 110.566 131.694 110.566 131.526 110.526C131.358 110.407 131.274 110.367 131.274 110.328Z" fill="#263238"/>
<path d="M146.84 100.971C146.461 100.931 143.432 101.328 143.684 106.64C143.895 111.596 147.597 110.526 148.775 108.662C149.869 106.839 150.5 101.209 146.84 100.971Z" fill="#455A64"/>
<path d="M148.69 101.566C148.69 101.566 148.69 101.526 148.69 101.407C148.69 101.288 148.69 101.169 148.69 101.011C148.69 100.654 148.648 100.138 148.648 99.5039C148.606 98.1956 148.564 96.3718 148.522 94.2705L148.606 94.3498C148.101 94.3498 147.597 94.3498 147.05 94.3498L147.134 94.2705C147.134 94.6669 147.176 95.1031 147.176 95.4995C147.218 97.4819 147.26 99.3453 147.302 100.892V100.931H147.26C146.545 101.09 145.998 101.486 145.661 101.922C145.325 102.359 145.114 102.834 145.03 103.191C144.904 103.588 144.904 103.905 144.862 104.103C144.862 104.222 144.862 104.301 144.862 104.341C144.862 104.381 144.862 104.42 144.862 104.42C144.862 104.42 144.862 104.381 144.862 104.341C144.862 104.301 144.862 104.222 144.862 104.103C144.862 103.905 144.904 103.588 144.988 103.191C145.072 102.795 145.241 102.319 145.619 101.883C145.956 101.447 146.545 101.011 147.26 100.852L147.218 100.892C147.176 99.3453 147.134 97.4819 147.05 95.4995C147.05 95.0634 147.008 94.6669 147.008 94.2705V94.1912H147.092C147.639 94.1912 148.143 94.1912 148.648 94.1912H148.732V94.2705C148.775 96.3718 148.775 98.1956 148.775 99.5039C148.775 100.138 148.775 100.654 148.775 101.011C148.775 101.169 148.775 101.328 148.775 101.407C148.69 101.526 148.69 101.566 148.69 101.566Z" fill="#455A64"/>
<path d="M146.839 94.3105C146.839 94.3105 145.241 90.8215 141.455 89.077C139.604 88.2444 138.257 87.8083 136.911 87.4911C136.911 87.4911 139.099 87.0154 142.675 88.4823C144.315 89.1563 145.914 90.0286 147.008 91.3766C147.681 92.2092 148.564 93.8744 148.564 94.2709H146.839V94.3105Z" fill="#455A64"/>
<path d="M146.419 110.09C146.419 110.09 146.377 110.09 146.293 110.05C146.208 110.01 146.124 109.971 145.998 109.931C145.746 109.812 145.451 109.535 145.199 109.138C144.946 108.742 144.778 108.187 144.694 107.592C144.652 106.997 144.652 106.323 144.694 105.61C144.736 104.896 144.862 104.262 145.03 103.667C145.199 103.072 145.367 102.557 145.619 102.16C145.872 101.764 146.166 101.486 146.419 101.367C146.545 101.288 146.629 101.248 146.713 101.248C146.797 101.209 146.839 101.209 146.839 101.209C146.839 101.209 146.713 101.248 146.461 101.407C146.25 101.566 145.956 101.803 145.704 102.2C145.451 102.596 145.283 103.112 145.157 103.707C144.988 104.301 144.904 104.936 144.82 105.649C144.778 106.363 144.736 106.997 144.82 107.632C144.862 108.226 145.03 108.742 145.283 109.138C145.535 109.535 145.788 109.812 146.04 109.931C146.293 110.05 146.419 110.09 146.419 110.09Z" fill="#263238"/>
<path d="M134.555 110.843L131.652 111.398C131.274 111.477 130.895 111.24 130.811 110.883L130.769 110.684C130.685 110.328 130.937 109.971 131.316 109.892L134.219 109.336C134.597 109.257 134.976 109.495 135.06 109.852L135.102 110.05C135.228 110.407 134.976 110.764 134.555 110.843Z" fill="#455A64"/>
<path d="M134.723 109.694L147.639 105.888C147.975 105.809 148.312 105.967 148.396 106.245C148.522 106.562 148.312 106.879 147.975 106.958L134.808 110.328L134.723 109.694Z" fill="#455A64"/>
<path d="M144.273 108.028C144.273 108.028 144.441 107.989 144.694 107.87C144.988 107.79 145.409 107.671 145.872 107.513C146.377 107.354 146.966 107.235 147.597 107.037C147.765 106.997 147.891 106.918 148.017 106.799C148.143 106.68 148.186 106.522 148.186 106.363C148.186 106.204 148.059 106.085 147.933 106.006C147.765 105.967 147.597 105.967 147.386 106.006C145.872 106.442 144.526 106.878 143.516 107.196C143.053 107.354 142.632 107.433 142.338 107.552C142.043 107.632 141.917 107.671 141.917 107.671C141.917 107.671 142.043 107.592 142.338 107.513C142.632 107.433 143.011 107.275 143.516 107.116C144.483 106.799 145.872 106.363 147.386 105.887C147.597 105.848 147.807 105.808 148.017 105.887C148.228 105.967 148.396 106.165 148.396 106.363C148.396 106.561 148.312 106.759 148.186 106.878C148.059 106.997 147.891 107.077 147.723 107.156C147.05 107.354 146.461 107.473 145.956 107.632C145.451 107.751 145.072 107.87 144.778 107.949C144.399 107.989 144.273 108.028 144.273 108.028Z" fill="#263238"/>
<path d="M137.5 101.011C137.416 101.169 136.532 100.693 135.439 100.892C134.345 101.05 133.672 101.764 133.546 101.645C133.461 101.605 133.546 101.328 133.84 101.011C134.135 100.693 134.681 100.337 135.355 100.257C136.028 100.138 136.659 100.297 137.037 100.495C137.374 100.733 137.542 100.931 137.5 101.011Z" fill="#CC8F75"/>
<path d="M137.374 101.13C137.374 101.169 137.121 101.05 136.785 100.971C136.406 100.892 135.901 100.852 135.312 100.971C134.765 101.09 134.303 101.328 134.008 101.566C133.714 101.804 133.545 101.962 133.545 101.922C133.503 101.922 133.63 101.685 133.924 101.447C134.219 101.169 134.681 100.892 135.27 100.773C135.859 100.654 136.448 100.733 136.827 100.852C137.163 100.971 137.374 101.13 137.374 101.13Z" fill="#263238"/>
<path d="M137.921 98.8291C137.837 99.1063 136.911 99.0667 135.775 99.1459C134.639 99.1855 133.714 99.2647 133.63 98.9875C133.588 98.8687 133.756 98.6707 134.177 98.4726C134.555 98.2746 135.144 98.1558 135.775 98.1162C136.406 98.0766 136.995 98.1954 137.416 98.3538C137.753 98.4726 137.963 98.6707 137.921 98.8291Z" fill="#263238"/>
<path d="M128.665 101.605C128.581 101.645 128.413 101.486 128.161 101.328C127.908 101.169 127.53 100.971 127.025 100.892C126.057 100.733 125.3 101.169 125.216 101.011C125.174 100.931 125.3 100.733 125.637 100.535C125.973 100.337 126.52 100.178 127.151 100.257C127.782 100.337 128.245 100.693 128.497 100.971C128.75 101.328 128.75 101.566 128.665 101.605Z" fill="#CC8F75"/>
<path d="M128.792 102.041C128.75 102.041 128.623 101.843 128.329 101.605C128.034 101.367 127.572 101.09 126.983 100.971C126.394 100.852 125.847 100.931 125.468 101.05C125.09 101.169 124.879 101.288 124.837 101.249C124.837 101.249 125.005 101.05 125.384 100.892C125.763 100.733 126.352 100.614 126.983 100.773C127.614 100.892 128.119 101.249 128.413 101.526C128.708 101.804 128.792 102.041 128.792 102.041Z" fill="#263238"/>
<path d="M129.17 99.1463C129.128 99.4235 128.203 99.5027 127.151 99.5423C126.099 99.5423 125.174 99.4631 125.132 99.1859C125.09 98.9086 125.973 98.5126 127.151 98.5126C128.329 98.5126 129.213 98.869 129.17 99.1463Z" fill="#263238"/>
<path d="M139.057 90.9796C138.384 91.9312 137.711 92.8827 137.374 93.9532C137.037 95.0237 137.08 96.2924 137.753 97.2043C138.384 98.1162 139.52 98.5524 140.529 99.1074C141.539 99.6625 142.591 100.337 142.801 101.407C142.885 101.724 142.717 102.874 143.011 103.112C143.39 103.429 144.021 103.231 144.273 102.834C144.568 102.438 144.736 101.169 144.736 100.733C144.778 99.3057 144.778 97.8387 144.82 96.4114C144.82 95.1823 144.82 93.9136 144.273 92.8431C143.474 91.2968 141.875 90.8211 139.477 90.94" fill="#263238"/>
<path d="M123.996 99.6229C124.206 98.1559 124.753 96.7286 125.721 95.5788C126.688 94.429 128.119 93.5964 129.633 93.3585C131.19 93.1206 132.746 93.5568 134.303 93.6361C135.859 93.7154 137.626 93.3585 138.468 92.0898C138.72 91.6933 138.846 91.1383 138.51 90.8211C138.384 90.7021 138.215 90.6228 138.047 90.5435C135.986 89.6316 133.63 89.1955 131.358 89.5127C129.086 89.8299 126.941 90.9004 125.51 92.6052C124.08 94.3101 123.449 96.6096 124.038 98.711" fill="#263238"/>
<path d="M123.07 97.482C123.07 97.482 123.028 97.4027 122.986 97.2838C122.944 97.1648 122.902 96.9666 122.86 96.7287C122.776 96.2529 122.776 95.4996 123.07 94.6274C123.365 93.7551 123.954 92.8036 124.921 92.0503C125.889 91.2573 127.193 90.7022 128.623 90.4644C130.054 90.2265 131.484 90.3851 132.704 90.6229C133.335 90.7419 133.882 90.9401 134.387 91.0987C134.892 91.297 135.397 91.4952 135.817 91.5745C136.701 91.7331 137.5 91.852 138.005 91.7727C138.51 91.6934 138.72 91.4159 138.72 91.4555C138.72 91.4555 138.678 91.5348 138.594 91.6141C138.51 91.6934 138.299 91.8124 138.047 91.852C137.5 91.971 136.743 91.8917 135.817 91.7331C135.354 91.6141 134.892 91.4159 134.345 91.2573C133.84 91.0987 133.251 90.9401 132.662 90.7815C131.442 90.5437 130.096 90.4247 128.665 90.6229C127.277 90.8608 126.015 91.3763 125.048 92.1296C124.08 92.8829 123.533 93.7948 123.239 94.6274C122.944 95.46 122.902 96.1736 122.986 96.689C122.986 97.2045 123.112 97.4423 123.07 97.482Z" fill="#455A64"/>
<path d="M129.844 88.3618C129.844 88.3618 129.97 88.3222 130.222 88.2825C130.475 88.2429 130.853 88.2429 131.316 88.2825C132.199 88.3618 133.461 88.679 134.597 89.5116C135.144 89.9081 135.607 90.3442 136.07 90.6614C136.533 90.9786 137.079 91.0975 137.5 91.2165C137.921 91.2958 138.299 91.2958 138.552 91.2958C138.804 91.2561 138.93 91.2165 138.93 91.2165C138.93 91.2165 138.804 91.2958 138.552 91.3751C138.299 91.4147 137.921 91.4544 137.458 91.3751C136.995 91.2958 136.448 91.1768 135.944 90.8596C135.439 90.5425 134.976 90.1063 134.429 89.7099C133.377 88.9169 132.157 88.5601 131.274 88.4808C130.432 88.3222 129.844 88.4015 129.844 88.3618Z" fill="#455A64"/>
<path d="M148.438 98.9886C148.438 98.9886 148.354 98.8697 148.186 98.6318C148.017 98.4335 147.681 98.1164 147.218 97.9181C146.755 97.7199 146.124 97.5613 145.409 97.5613C144.694 97.5613 143.937 97.7199 143.137 97.8388C142.338 97.9974 141.539 98.0767 140.824 97.9974C140.108 97.9181 139.477 97.7595 138.973 97.5613C138.468 97.3631 138.089 97.1648 137.837 97.0062C137.584 96.8476 137.458 96.7287 137.458 96.7287C137.5 96.6891 138.005 97.0855 139.015 97.4424C139.519 97.601 140.15 97.7595 140.824 97.7992C141.539 97.8388 142.296 97.7595 143.095 97.601C143.895 97.4424 144.694 97.3234 145.409 97.3234C146.124 97.3234 146.797 97.482 147.26 97.7199C147.765 97.9578 148.059 98.275 148.228 98.5128C148.312 98.6318 148.354 98.7507 148.396 98.7904C148.438 98.949 148.438 98.9886 148.438 98.9886Z" fill="#455A64"/>
<path d="M147.765 96.2131C147.765 96.2131 147.681 96.0942 147.512 95.8563C147.344 95.6581 147.008 95.3805 146.545 95.2219C146.082 95.0237 145.451 94.9841 144.778 95.0634C144.105 95.1427 143.348 95.3012 142.548 95.4598C141.749 95.6184 140.95 95.6184 140.277 95.4202C139.603 95.2219 139.057 94.8651 138.678 94.5083C138.299 94.1515 138.089 93.7946 137.963 93.5171C137.921 93.3982 137.879 93.2792 137.837 93.1999C137.837 93.1206 137.794 93.081 137.837 93.081C137.879 93.0413 138.047 93.6757 138.762 94.3894C139.141 94.7065 139.646 95.0634 140.319 95.2219C140.95 95.4202 141.749 95.3805 142.506 95.2219C143.306 95.103 144.021 94.9048 144.736 94.8255C145.451 94.7462 146.082 94.8651 146.587 95.0634C147.092 95.2616 147.386 95.5788 147.555 95.8167C147.765 96.0545 147.765 96.2131 147.765 96.2131Z" fill="#455A64"/>
<path d="M131.989 135.861C131.989 135.861 132.031 135.821 132.073 135.781C132.115 135.742 132.199 135.702 132.325 135.623C132.536 135.464 132.83 135.226 133.167 134.909C133.503 134.552 133.924 134.116 134.387 133.601C134.849 133.046 135.312 132.411 135.817 131.698C136.869 130.27 138.047 128.486 139.351 126.464C139.982 125.433 140.655 124.363 141.328 123.213C141.496 122.936 141.665 122.619 141.833 122.341C142.001 122.063 142.169 121.746 142.422 121.469C142.632 121.191 142.969 120.993 143.305 120.874C143.474 120.834 143.684 120.795 143.852 120.834C143.936 120.874 144.063 120.914 144.105 120.993C144.189 121.072 144.231 121.152 144.231 121.27C144.189 121.389 144.147 121.508 144.021 121.588C143.936 121.667 143.768 121.746 143.642 121.746C143.347 121.746 143.137 121.627 142.927 121.508C142.464 121.231 142.254 120.636 142.464 120.16C142.548 119.922 142.758 119.685 143.011 119.566C143.263 119.447 143.558 119.407 143.81 119.447C144.063 119.486 144.357 119.645 144.441 119.922C144.483 120.041 144.441 120.24 144.357 120.359C144.231 120.478 144.105 120.517 143.978 120.557C143.516 120.676 142.969 120.438 142.758 120.041C142.632 119.843 142.632 119.566 142.674 119.367C142.716 119.13 142.885 118.931 143.053 118.812C143.221 118.654 143.474 118.574 143.726 118.574C143.978 118.574 144.189 118.693 144.357 118.892C144.441 118.971 144.441 119.13 144.441 119.248C144.441 119.367 144.357 119.486 144.231 119.566C144.021 119.685 143.768 119.724 143.558 119.645C143.305 119.566 143.179 119.367 143.095 119.169C143.011 118.971 143.011 118.733 143.011 118.535C143.011 118.138 143.095 117.702 143.347 117.345C143.474 117.187 143.642 117.028 143.894 116.989C144.105 116.949 144.357 116.989 144.525 117.107C144.694 117.226 144.862 117.425 144.862 117.663C144.862 117.9 144.652 118.059 144.441 118.138C144.231 118.218 143.978 118.178 143.81 118.059C143.642 117.94 143.516 117.742 143.516 117.544C143.474 117.345 143.516 117.147 143.558 116.989C143.6 116.79 143.684 116.632 143.768 116.473C143.852 116.315 143.978 116.156 144.147 116.077C144.315 115.997 144.483 115.918 144.694 115.918C144.778 115.918 144.904 115.918 144.988 115.958C145.072 115.997 145.156 116.077 145.198 116.156C145.241 116.235 145.283 116.315 145.325 116.394C145.367 116.473 145.325 116.592 145.283 116.671C145.156 116.87 144.946 116.909 144.778 116.87C144.61 116.83 144.441 116.751 144.315 116.632C144.063 116.394 143.936 116.077 143.894 115.72C143.852 115.403 143.978 115.085 144.147 114.808C144.231 114.689 144.357 114.57 144.525 114.491C144.652 114.411 144.82 114.372 144.988 114.372C145.156 114.372 145.325 114.411 145.451 114.491C145.577 114.57 145.661 114.729 145.661 114.887C145.619 115.204 145.325 115.403 145.072 115.442C144.778 115.482 144.525 115.284 144.399 115.085C144.273 114.887 144.189 114.61 144.231 114.372C144.273 113.896 144.525 113.539 144.694 113.143C144.862 112.786 145.03 112.469 145.156 112.152C145.451 111.557 145.661 111.121 145.787 110.804C145.872 110.645 145.914 110.526 145.956 110.447C145.998 110.367 145.998 110.328 145.998 110.328C145.998 110.328 145.998 110.367 145.956 110.447C145.914 110.526 145.872 110.645 145.787 110.804C145.661 111.121 145.451 111.596 145.156 112.191C145.03 112.469 144.862 112.826 144.694 113.182C144.525 113.539 144.315 113.936 144.273 114.372C144.273 114.61 144.315 114.848 144.441 115.006C144.567 115.204 144.82 115.363 145.03 115.323C145.283 115.284 145.535 115.085 145.535 114.848C145.535 114.729 145.493 114.61 145.367 114.53C145.283 114.451 145.114 114.411 144.988 114.411C144.862 114.411 144.694 114.451 144.567 114.53C144.441 114.61 144.315 114.689 144.231 114.808C144.063 115.046 143.978 115.363 143.978 115.641C143.978 115.958 144.147 116.235 144.357 116.473C144.483 116.592 144.61 116.671 144.778 116.671C144.946 116.711 145.114 116.671 145.198 116.552C145.283 116.433 145.198 116.275 145.114 116.156C145.072 116.077 144.988 116.037 144.946 115.997C144.862 115.958 144.778 115.958 144.694 115.958C144.357 115.997 144.021 116.156 143.852 116.473C143.768 116.632 143.726 116.79 143.642 116.989C143.6 117.147 143.558 117.345 143.6 117.504C143.642 117.663 143.726 117.821 143.852 117.94C143.978 118.059 144.189 118.059 144.357 118.019C144.525 117.98 144.652 117.821 144.694 117.663C144.694 117.504 144.61 117.345 144.441 117.266C144.273 117.187 144.105 117.147 143.894 117.187C143.726 117.226 143.558 117.345 143.432 117.504C143.221 117.821 143.137 118.218 143.137 118.614C143.137 118.812 143.179 119.011 143.221 119.209C143.305 119.367 143.432 119.566 143.6 119.605C143.768 119.685 144.021 119.645 144.147 119.526C144.315 119.447 144.357 119.209 144.231 119.05C144.147 118.892 143.936 118.812 143.726 118.812C143.516 118.812 143.305 118.892 143.179 119.011C142.843 119.248 142.716 119.724 142.927 120.081C143.137 120.438 143.6 120.636 144.021 120.557C144.147 120.517 144.273 120.478 144.315 120.398C144.399 120.319 144.399 120.2 144.357 120.121C144.273 119.922 144.063 119.764 143.81 119.724C143.347 119.645 142.801 119.883 142.632 120.319C142.464 120.755 142.632 121.27 143.053 121.508C143.263 121.627 143.474 121.746 143.684 121.707C143.894 121.707 144.063 121.508 144.147 121.31V121.35C144.105 121.191 143.978 121.072 143.852 121.033C143.684 120.993 143.516 121.033 143.347 121.072C143.011 121.191 142.716 121.389 142.506 121.627C142.296 121.865 142.127 122.182 141.959 122.46C141.791 122.737 141.623 123.055 141.454 123.332C140.781 124.482 140.108 125.552 139.477 126.583C138.173 128.605 136.953 130.35 135.901 131.817C135.396 132.53 134.892 133.165 134.471 133.72C134.008 134.275 133.587 134.711 133.251 135.028C132.494 135.583 131.989 135.861 131.989 135.861Z" fill="#263238"/>
</svg>
