<svg width="14" height="14" viewBox="0 0 14 14" fill="none" xmlns="http://www.w3.org/2000/svg">
<path fill-rule="evenodd" clip-rule="evenodd" d="M6.99967 13.6666C3.31767 13.6666 0.333008 10.682 0.333008 6.99998C0.333008 3.31798 3.31767 0.333313 6.99967 0.333313C10.6817 0.333313 13.6663 3.31798 13.6663 6.99998C13.6663 10.682 10.6817 13.6666 6.99967 13.6666ZM6.99967 12.3333C9.94519 12.3333 12.333 9.9455 12.333 6.99998C12.333 4.05446 9.94519 1.66665 6.99967 1.66665C4.05416 1.66665 1.66634 4.05446 1.66634 6.99998C1.66634 9.9455 4.05416 12.3333 6.99967 12.3333ZM6.33301 3.66665H7.66634V4.99998H6.33301V3.66665ZM6.33301 6.33331H7.66634V10.3333H6.33301V6.33331Z" fill="#206BC4"/>
</svg>
