<svg width="750" height="452" viewBox="0 0 750 452" fill="none" xmlns="http://www.w3.org/2000/svg">
<path fill-rule="evenodd" clip-rule="evenodd" d="M330.912 2.69761C398.014 -5.6337 469.532 5.12033 524.935 37.9213C580.716 70.9464 613.667 124.662 630.577 180.114C646.717 233.043 645.537 290.495 616.927 339.583C590.346 385.19 536.707 414.396 481.675 435.597C434.576 453.743 382.508 453.967 330.912 449.775C283.914 445.956 240.092 433.603 199.992 412.709C157.04 390.329 120.912 362.061 93.8494 326.254C58.9023 280.016 4.97006 230.451 22.3695 177.697C39.7303 125.06 120.632 112.028 174.601 81.4182C226.206 52.1489 269.271 10.3509 330.912 2.69761Z" fill="#F2F2F7"/>
<path fill-rule="evenodd" clip-rule="evenodd" d="M475.606 279.157H115.978C110.794 279.157 106.586 275.21 106.586 270.288V89.417H485.041V270.288C484.997 275.21 480.789 279.157 475.606 279.157Z" fill="white"/>
<path fill-rule="evenodd" clip-rule="evenodd" d="M485.042 88.0867H106.587C105.853 88.0867 105.258 88.6823 105.258 89.417V270.288C105.258 275.954 110.069 280.487 115.978 280.487H475.606C481.506 280.487 486.32 275.966 486.371 270.3L486.371 89.417C486.371 88.6823 485.776 88.0867 485.042 88.0867ZM107.916 90.7468H483.713V270.288C483.676 274.449 480.079 277.827 475.606 277.827H115.978L115.828 277.825C111.422 277.751 107.916 274.401 107.916 270.288V90.7468Z" fill="#2E186A"/>
<path fill-rule="evenodd" clip-rule="evenodd" d="M105.434 92.4766L104.991 49.243C104.991 43.8333 109.244 39.4878 114.471 39.4878L476.934 39.0443C482.162 39.0443 486.415 43.4342 486.415 48.7996V92.4766H105.434Z" fill="#98B0B7"/>
<path fill-rule="evenodd" clip-rule="evenodd" d="M267.661 46.1391C271.437 46.1391 274.979 47.9248 277.272 50.9696L277.304 51.0137L277.334 51.0591L288.859 69.2857H486.415C487.123 69.2857 487.701 69.8395 487.742 70.5378L487.744 70.6159C487.744 71.3244 487.191 71.9035 486.493 71.9439L486.415 71.9462H288.128C287.703 71.9462 287.305 71.7428 287.056 71.4024L287.005 71.3274L275.122 52.535L275.037 52.4239C273.279 50.1814 270.652 48.8568 267.845 48.8014L267.661 48.7996H190.181C187.304 48.7996 184.601 50.1327 182.805 52.4239L182.72 52.535L170.837 71.3274C170.611 71.6852 170.229 71.9122 169.811 71.9427L169.72 71.9462L105.175 72.2566C104.441 72.2601 103.843 71.6674 103.84 70.9327C103.836 70.2243 104.387 69.6425 105.084 69.5987L105.162 69.5961L168.98 69.2892L180.508 51.0591C180.517 51.0438 180.527 51.0286 180.538 51.0137L180.57 50.9696C182.823 47.9792 186.279 46.2033 189.979 46.1408L190.181 46.1391H267.661Z" fill="white"/>
<path fill-rule="evenodd" clip-rule="evenodd" d="M300.798 46.2721C303.953 46.2721 306.569 48.688 306.644 51.7249L306.646 51.8592V68.7979C306.646 69.5326 306.05 70.1282 305.317 70.1282C304.609 70.1282 304.03 69.5744 303.99 68.8761L303.988 68.7979V51.8592C303.988 50.3007 302.626 48.9884 300.908 48.9344L300.798 48.9327H267.484C266.75 48.9327 266.155 48.3371 266.155 47.6024C266.155 46.8939 266.709 46.3148 267.406 46.2744L267.484 46.2721H300.798Z" fill="white"/>
<path fill-rule="evenodd" clip-rule="evenodd" d="M120.807 60.8607C123.987 60.8607 126.566 58.2798 126.566 55.0962C126.566 51.9126 123.987 49.3317 120.807 49.3317C117.626 49.3317 115.048 51.9126 115.048 55.0962C115.048 58.2798 117.626 60.8607 120.807 60.8607Z" fill="white"/>
<path fill-rule="evenodd" clip-rule="evenodd" d="M139.768 60.8607C142.948 60.8607 145.527 58.2798 145.527 55.0962C145.527 51.9126 142.948 49.3317 139.768 49.3317C136.587 49.3317 134.009 51.9126 134.009 55.0962C134.009 58.2798 136.587 60.8607 139.768 60.8607Z" fill="white"/>
<path fill-rule="evenodd" clip-rule="evenodd" d="M158.772 60.8607C161.952 60.8607 164.531 58.2798 164.531 55.0962C164.531 51.9126 161.952 49.3317 158.772 49.3317C155.591 49.3317 153.013 51.9126 153.013 55.0962C153.013 58.2798 155.591 60.8607 158.772 60.8607Z" fill="white"/>
<path fill-rule="evenodd" clip-rule="evenodd" d="M260.414 57.0587C260.879 56.5268 261.673 56.4541 262.225 56.8791L262.29 56.9325L267.561 61.544C268.114 62.0275 268.17 62.8679 267.687 63.4211C267.223 63.953 266.429 64.0257 265.877 63.6007L265.812 63.5473L260.54 58.9357C259.988 58.4523 259.931 57.6119 260.414 57.0587Z" fill="white"/>
<path fill-rule="evenodd" clip-rule="evenodd" d="M265.88 56.9572C266.443 56.4864 267.281 56.562 267.752 57.126C268.204 57.6683 268.151 58.4648 267.646 58.9438L267.583 58.9997L262.223 63.4783C261.659 63.949 260.821 63.8735 260.351 63.3095C259.898 62.7671 259.951 61.9707 260.457 61.4917L260.519 61.4358L265.88 56.9572Z" fill="white"/>
<path fill-rule="evenodd" clip-rule="evenodd" d="M292.346 55.7614C293.054 55.7663 293.629 56.3242 293.664 57.0228L293.666 57.101L293.622 63.3975C293.617 64.1322 293.017 64.7236 292.283 64.7184C291.576 64.7134 291.001 64.1555 290.966 63.457L290.964 63.3788L291.008 57.0822C291.013 56.3476 291.613 55.7562 292.346 55.7614Z" fill="white"/>
<path fill-rule="evenodd" clip-rule="evenodd" d="M295.482 58.9096C296.216 58.9096 296.811 59.5052 296.811 60.2399C296.811 60.9483 296.258 61.5274 295.56 61.5679L295.482 61.5701H289.147C288.413 61.5701 287.818 60.9746 287.818 60.2399C287.818 59.5314 288.372 58.9523 289.069 58.9119L289.147 58.9096H295.482Z" fill="white"/>
<path fill-rule="evenodd" clip-rule="evenodd" d="M471.087 76.4247C471.821 76.4247 472.416 77.0203 472.416 77.755C472.416 78.4635 471.863 79.0426 471.165 79.083L471.087 79.0853H463.866C463.132 79.0853 462.537 78.4897 462.537 77.755C462.537 77.0466 463.09 76.4675 463.788 76.427L463.866 76.4247H471.087Z" fill="white"/>
<path fill-rule="evenodd" clip-rule="evenodd" d="M471.087 80.4155C471.821 80.4155 472.416 81.0111 472.416 81.7458C472.416 82.4542 471.863 83.0333 471.165 83.0738L471.087 83.0761H463.866C463.132 83.0761 462.537 82.4805 462.537 81.7458C462.537 81.0373 463.09 80.4582 463.788 80.4178L463.866 80.4155H471.087Z" fill="white"/>
<path fill-rule="evenodd" clip-rule="evenodd" d="M471.087 84.4507C471.821 84.4507 472.416 85.0462 472.416 85.7809C472.416 86.4894 471.863 87.0685 471.165 87.1089L471.087 87.1112H463.866C463.132 87.1112 462.537 86.5156 462.537 85.7809C462.537 85.0725 463.09 84.4934 463.788 84.4529L463.866 84.4507H471.087Z" fill="white"/>
<path fill-rule="evenodd" clip-rule="evenodd" d="M451.197 79.44C451.019 78.8636 450.532 78.4645 449.912 78.4645H446.988L446.102 75.6709C445.925 75.1388 445.393 74.7397 444.817 74.7397C444.242 74.7397 443.71 75.0945 443.533 75.6709L442.647 78.4645H439.723C439.147 78.4645 438.615 78.8192 438.438 79.3957C438.261 79.9278 438.438 80.5486 438.926 80.9033L441.273 82.6326L440.387 85.4262C440.21 85.9583 440.387 86.5791 440.875 86.9338C441.096 87.1112 441.362 87.1999 441.672 87.1999C441.982 87.1999 442.204 87.1112 442.47 86.9338L444.906 85.1601L447.298 86.5348C447.786 86.8008 448.361 86.7565 448.804 86.4017C449.247 86.047 449.38 85.4705 449.247 84.9384L448.361 82.2779L450.576 80.992C451.108 80.6372 451.33 80.0165 451.197 79.44Z" fill="white"/>
<path fill-rule="evenodd" clip-rule="evenodd" d="M425.99 86.8008H171.663C170.423 86.8008 169.448 85.8253 169.448 84.5837V80.6816C169.448 79.44 170.423 78.4645 171.663 78.4645H425.99C427.23 78.4645 428.205 79.44 428.205 80.6816V84.5837C428.205 85.8253 427.23 86.8008 425.99 86.8008Z" fill="white"/>
<path fill-rule="evenodd" clip-rule="evenodd" d="M127.04 77.1296C127.581 76.6329 128.422 76.6691 128.918 77.2104C129.395 77.7309 129.38 78.529 128.897 79.0311L128.837 79.0899L125.612 82.0518L128.966 85.1075C129.488 85.5829 129.545 86.3791 129.109 86.9227L129.054 86.9866C128.579 87.5091 127.784 87.5659 127.241 87.1299L127.177 87.0752L122.747 83.0401C122.191 82.5333 122.168 81.6715 122.681 81.1363L122.743 81.076L127.04 77.1296Z" fill="white"/>
<path fill-rule="evenodd" clip-rule="evenodd" d="M134.451 80.8146C135.185 80.8146 135.78 81.4102 135.78 82.1449C135.78 82.8533 135.226 83.4324 134.529 83.4729L134.451 83.4751H123.642C122.908 83.4751 122.312 82.8796 122.312 82.1449C122.312 81.4364 122.866 80.8573 123.563 80.8169L123.642 80.8146H134.451Z" fill="white"/>
<path fill-rule="evenodd" clip-rule="evenodd" d="M148.228 77.2053C148.708 76.6873 149.504 76.6379 150.043 77.0789L150.106 77.1342L154.359 81.0807C154.909 81.5908 154.925 82.4491 154.411 82.9803L154.35 83.0401L149.92 87.0752C149.377 87.5697 148.536 87.53 148.042 86.9866C147.567 86.4642 147.586 85.6662 148.07 85.166L148.131 85.1075L151.49 82.0469L148.299 79.0853C147.781 78.605 147.732 77.8084 148.173 77.2688L148.228 77.2053Z" fill="white"/>
<path fill-rule="evenodd" clip-rule="evenodd" d="M153.455 80.8146C154.189 80.8146 154.784 81.4102 154.784 82.1449C154.784 82.8533 154.231 83.4324 153.533 83.4729L153.455 83.4751H142.69C141.956 83.4751 141.361 82.8796 141.361 82.1449C141.361 81.4364 141.915 80.8573 142.612 80.8169L142.69 80.8146H153.455Z" fill="white"/>
<path fill-rule="evenodd" clip-rule="evenodd" d="M459.727 56.1245C459.869 55.4038 460.568 54.9348 461.288 55.077C461.983 55.2142 462.443 55.8697 462.348 56.5626L462.335 56.6397L461.95 58.5912L464.059 58.8293C464.762 58.9085 465.275 59.5235 465.238 60.222L465.231 60.2999C465.152 61.0039 464.538 61.5175 463.84 61.4796L463.762 61.4731L460.218 61.074C459.472 60.9901 458.949 60.3074 459.049 59.5734L459.063 59.4945L459.727 56.1245Z" fill="white"/>
<path fill-rule="evenodd" clip-rule="evenodd" d="M464.768 54.9511C465.362 54.5193 466.193 54.6511 466.625 55.2455C467.039 55.817 466.934 56.6081 466.397 57.052L466.33 57.1036L461.147 60.8727C460.554 61.3045 459.722 61.1727 459.291 60.5783C458.876 60.0068 458.982 59.2157 459.519 58.7718L459.585 58.7202L464.768 54.9511Z" fill="white"/>
<path fill-rule="evenodd" clip-rule="evenodd" d="M469.456 49.266C469.539 48.5623 470.155 48.0514 470.853 48.0923L470.931 48.0991L474.342 48.4982C475.088 48.5855 475.608 49.2709 475.504 50.0048L475.49 50.0836L474.781 53.5866C474.636 54.3066 473.934 54.7722 473.215 54.6263C472.521 54.4857 472.064 53.828 472.163 53.1355L472.176 53.0585L472.598 50.9724L470.622 50.7417C469.919 50.6594 469.409 50.0422 469.45 49.3439L469.456 49.266Z" fill="white"/>
<path fill-rule="evenodd" clip-rule="evenodd" d="M473.445 48.792C474.036 48.3568 474.868 48.484 475.303 49.076C475.721 49.6452 475.619 50.4369 475.085 50.8838L475.019 50.9357L469.836 54.7491C469.245 55.1842 468.413 55.0571 467.978 54.4651C467.56 53.8959 467.661 53.1042 468.196 52.6573L468.262 52.6054L473.445 48.792Z" fill="white"/>
<rect x="175" y="222" width="242" height="20" rx="10" fill="#CC144A"/>
<path fill-rule="evenodd" clip-rule="evenodd" d="M408.759 236.831C408.645 236.831 408.553 236.785 408.484 236.739L405.313 233.98C404.923 234.187 404.532 234.348 404.096 234.417C403.82 234.463 403.521 234.509 403.246 234.509C401.224 234.509 399.478 233.083 399.087 231.105C398.858 230.001 399.087 228.852 399.708 227.909C400.328 226.966 401.293 226.322 402.419 226.092C402.694 226.046 402.993 226 403.269 226C405.29 226 407.036 227.426 407.427 229.403C407.68 230.668 407.358 231.979 406.531 232.968L409.518 235.566C409.632 235.681 409.678 235.842 409.632 236.026C409.609 236.164 409.518 236.325 409.403 236.44L409.311 236.555C409.173 236.716 408.943 236.831 408.759 236.831ZM403.245 227.633C403.062 227.633 402.901 227.656 402.717 227.679C402.028 227.817 401.453 228.208 401.063 228.806C400.672 229.38 400.535 230.093 400.672 230.76C400.925 231.979 401.982 232.853 403.223 232.853C403.406 232.853 403.567 232.83 403.751 232.807C404.44 232.669 405.014 232.278 405.405 231.68C405.796 231.105 405.933 230.392 405.796 229.725C405.566 228.507 404.486 227.633 403.245 227.633Z" fill="white"/>
<path fill-rule="evenodd" clip-rule="evenodd" d="M517.869 209.407C516.983 206.879 512.42 206.081 492.928 211.579C465.772 219.251 447.432 222.488 449.381 226.7C458.551 231.356 516.54 216.989 517.869 209.407Z" fill="#2E186A"/>
<path fill-rule="evenodd" clip-rule="evenodd" d="M502.275 187.103L458.595 204.618C458.595 204.618 460.544 215.748 462.537 227.188C476.093 225.725 496.073 220.758 507.945 215.925C505.243 202.312 502.275 187.103 502.275 187.103Z" fill="white"/>
<path fill-rule="evenodd" clip-rule="evenodd" d="M501.78 185.868L458.101 203.383C457.542 203.607 457.207 204.175 457.274 204.767L457.373 205.348L461.228 227.416C461.349 228.107 461.984 228.586 462.68 228.511C476.331 227.037 496.434 222.047 508.446 217.157C509.036 216.917 509.373 216.291 509.248 215.666L507.653 207.605C506.891 203.741 506.104 199.74 505.317 195.727L503.579 186.848C503.419 186.029 502.554 185.557 501.78 185.868ZM460.09 205.451L501.278 188.935L502.924 197.334C503.711 201.345 504.495 205.332 505.253 209.171L506.426 215.099L506.28 215.157C494.925 219.594 477.067 224.045 464.181 225.657L463.631 225.724L460.09 205.451Z" fill="#2E186A"/>
<path fill-rule="evenodd" clip-rule="evenodd" d="M630.967 350.681C628.929 321.282 596.368 278.758 584.363 262.484C570.098 243.151 547.727 230.203 520.925 227.897C519.419 217.521 517.869 209.008 517.869 209.008C518.489 216.457 458.684 231.4 449.336 226.7L450.355 233.928C445.438 235.169 440.033 236.81 433.743 239.027C402.999 249.891 343.371 326.337 343.371 326.337C343.371 326.337 331.055 291.927 282.281 310.196C249.233 324.829 273.111 375.911 273.111 375.911L608.108 375.202C621.398 375.202 631.897 363.939 630.967 350.681Z" fill="#CC144A"/>
<path fill-rule="evenodd" clip-rule="evenodd" d="M549.082 318.992C555.716 318.214 562.771 318.19 569.414 319.422C577.324 320.888 583.74 324.013 588.081 329.159C588.554 329.72 588.483 330.56 587.923 331.034C587.362 331.508 586.523 331.437 586.05 330.875C582.158 326.261 576.286 323.402 568.93 322.038C562.587 320.861 555.784 320.885 549.391 321.634L548.764 321.71C548.151 321.788 547.584 321.868 547.064 321.948L546.51 322.037L545.981 322.129C545.944 322.136 545.916 322.141 545.898 322.144C545.85 322.154 545.802 322.16 545.753 322.164C539.738 322.656 525.034 325.975 504.415 331.291L502.25 331.851C501.522 332.04 500.79 332.23 500.052 332.423L498.942 332.713C490.678 334.875 482.114 337.181 473.684 339.497L468.482 340.932C466.902 341.37 465.399 341.788 463.983 342.184L459.798 343.358C459.092 343.558 458.358 343.147 458.158 342.44C457.965 341.759 458.34 341.051 459.001 340.822L459.292 340.737L463.269 339.621C465.631 338.961 468.236 338.238 471.035 337.467C479.452 335.147 488.036 332.828 496.355 330.641L498.269 330.139C499.385 329.847 500.49 329.559 501.583 329.276L504.993 328.395C524.731 323.325 538.842 320.144 545.152 319.547L545.466 319.518L545.658 319.484C545.868 319.446 546.112 319.405 546.391 319.361C547.18 319.235 548.082 319.109 549.082 318.992Z" fill="white"/>
<path fill-rule="evenodd" clip-rule="evenodd" d="M527.784 291.755C528.394 291.397 529.172 291.582 529.56 292.162L529.603 292.231L545.64 319.634C546.011 320.268 545.798 321.083 545.165 321.454C544.555 321.812 543.777 321.628 543.389 321.047L543.346 320.979L527.309 293.575C526.938 292.941 527.151 292.126 527.784 291.755Z" fill="white"/>
<path fill-rule="evenodd" clip-rule="evenodd" d="M343.144 325.07C343.868 324.945 344.555 325.43 344.68 326.154L344.712 326.355C344.75 326.609 344.796 326.969 344.842 327.425L344.856 327.565C345.106 330.173 345.107 333.249 344.695 336.611C344.118 341.321 342.795 345.939 340.557 350.277C335.894 359.316 327.725 366.283 315.436 370.346C314.739 370.576 313.987 370.197 313.757 369.5C313.527 368.802 313.905 368.05 314.602 367.819C326.232 363.975 333.852 357.476 338.196 349.056C340.28 345.017 341.516 340.7 342.057 336.287C342.444 333.131 342.443 330.245 342.21 327.82L342.176 327.484C342.158 327.323 342.14 327.173 342.122 327.035L342.081 326.736C342.072 326.675 342.066 326.633 342.061 326.608C341.936 325.884 342.421 325.196 343.144 325.07Z" fill="white"/>
<path fill-rule="evenodd" clip-rule="evenodd" d="M345.271 325.117C345.528 324.429 346.293 324.08 346.981 324.337L347.323 324.47L347.605 324.583C347.753 324.642 347.911 324.707 348.079 324.777L348.25 324.849C349.24 325.266 350.341 325.761 351.526 326.333C354.91 327.969 358.295 329.901 361.462 332.124C372.016 339.534 377.75 348.355 375.864 358.506C375.73 359.229 375.037 359.705 374.315 359.571C373.593 359.437 373.117 358.742 373.251 358.02C374.901 349.135 369.731 341.179 359.935 334.302C356.897 332.169 353.634 330.307 350.37 328.729C349.342 328.232 348.381 327.797 347.508 327.424L346.902 327.169C346.8 327.127 346.703 327.087 346.61 327.05L346.051 326.829C345.363 326.572 345.014 325.806 345.271 325.117Z" fill="white"/>
<path fill-rule="evenodd" clip-rule="evenodd" d="M421.976 294.855C422.195 294.154 422.941 293.764 423.641 293.984C424.342 294.203 424.732 294.95 424.512 295.651L424.369 296.127C424.134 296.927 423.8 298.159 423.451 299.559C422.825 302.066 422.215 304.839 421.663 307.794C420.149 315.885 419.292 324.074 419.379 331.881C419.488 341.708 421.097 350.291 424.463 357.181C428.372 365.182 434.552 370.693 443.342 373.352C444.045 373.565 444.442 374.307 444.23 375.01C444.017 375.714 443.276 376.111 442.573 375.899C433.054 373.019 426.3 366.996 422.075 358.349C418.513 351.059 416.834 342.101 416.721 331.911C416.632 323.911 417.507 315.555 419.05 307.304L419.214 306.441C420.17 301.488 421.27 297.112 421.976 294.855Z" fill="white"/>
<path fill-rule="evenodd" clip-rule="evenodd" d="M521.719 232.379C522.354 232.01 523.167 232.225 523.536 232.86C523.649 233.055 523.788 233.361 523.918 233.772C524.497 235.597 524.384 237.796 523.151 240.177C521.499 243.367 518.021 246.454 512.359 249.347C511.706 249.681 510.905 249.421 510.571 248.767C510.238 248.112 510.497 247.311 511.151 246.977C516.356 244.317 519.423 241.596 520.791 238.952C521.684 237.229 521.759 235.757 521.385 234.576C521.354 234.478 521.322 234.392 521.291 234.317L521.238 234.197C520.869 233.562 521.085 232.748 521.719 232.379Z" fill="white"/>
<path fill-rule="evenodd" clip-rule="evenodd" d="M517.493 230.976C517.629 230.254 518.324 229.78 519.046 229.916C519.767 230.052 520.241 230.748 520.105 231.47C520.063 231.692 519.966 232.044 519.793 232.508C519.519 233.24 519.126 234.045 518.595 234.902C517.109 237.295 514.82 239.664 511.572 241.853C505.667 245.831 497.217 248.795 485.799 250.366C485.072 250.466 484.402 249.958 484.302 249.23C484.202 248.502 484.71 247.831 485.437 247.731C496.474 246.212 504.542 243.382 510.088 239.646C513.026 237.667 515.051 235.57 516.337 233.498C516.775 232.792 517.09 232.146 517.303 231.576L517.362 231.413C517.441 231.187 517.481 231.038 517.493 230.976Z" fill="white"/>
<path fill-rule="evenodd" clip-rule="evenodd" d="M447.033 356.179C447.033 356.179 437.73 358.84 431.661 362.653C425.592 366.466 417.352 371.921 417.751 373.251C418.105 374.625 424.706 376.177 428.693 374.182C437.686 365.713 449.691 363.85 449.691 363.85C448.406 363.584 438.35 367.841 433.92 370.502C425.592 375.557 425.592 375.69 438.262 375.734L477.777 375.202C478.752 353.519 459.481 342.078 459.481 342.078C459.481 342.078 441.141 341.546 428.604 349.04C421.162 353.519 410.352 361.323 409.777 364.072C409.289 366.422 411.504 366.644 414.251 366.112C414.251 366.112 408.137 371.965 418.149 371.566" fill="white"/>
<path fill-rule="evenodd" clip-rule="evenodd" d="M459.09 343.402L458.664 343.4C458.13 343.4 457.493 343.409 456.764 343.432C455.277 343.478 453.674 343.573 451.988 343.727C447.421 344.146 442.902 344.936 438.693 346.184C435.179 347.225 432.016 348.55 429.289 350.18L428.777 350.49C420.399 355.593 411.462 362.51 411.078 364.342L411.039 364.543C410.99 364.822 411.029 364.846 411.227 364.912C411.736 365.084 412.708 365.056 413.999 364.806C415.276 364.558 416.097 366.097 415.221 367.021L415.066 367.178C415.031 367.214 414.99 367.258 414.943 367.309C414.758 367.513 414.572 367.737 414.4 367.972C414.075 368.418 413.85 368.84 413.766 369.174C413.69 369.476 413.718 369.562 413.951 369.711C414.561 370.101 415.925 370.323 418.097 370.237C418.175 370.233 418.253 370.237 418.328 370.247L418.337 370.249L418.404 370.191C419.106 369.586 420 368.902 421.097 368.099L421.501 367.806C423.971 366.016 427.215 363.876 430.955 361.526C432.476 360.571 434.255 359.643 436.241 358.745C438.525 357.714 440.964 356.774 443.403 355.942L444.031 355.73C444.544 355.559 445.032 355.401 445.489 355.258L445.907 355.128L446.668 354.9C447.374 354.698 448.109 355.107 448.311 355.814C448.506 356.495 448.132 357.204 447.473 357.435L446.686 357.672L446.546 357.715C445.857 357.928 445.088 358.177 444.26 358.46C441.896 359.267 439.533 360.177 437.335 361.171C435.451 362.022 433.776 362.895 432.368 363.78L431.309 364.448C428.177 366.433 425.441 368.247 423.296 369.79L423.06 369.961C421.635 370.993 420.534 371.865 419.81 372.542C419.681 372.662 419.566 372.775 419.466 372.878L419.393 372.954L419.466 372.988L419.565 373.03C420.2 373.298 421.08 373.526 422.046 373.663C423.995 373.939 425.953 373.813 427.445 373.271L427.494 373.253L427.513 373.233C427.739 372.994 428.023 372.748 428.375 372.48L428.511 372.378C428.782 372.176 429.072 371.972 429.421 371.738L429.576 371.635L429.86 371.404C430.936 370.537 432.067 369.725 433.247 368.967L433.642 368.717C437.103 366.55 440.802 364.93 444.501 363.776C445.443 363.482 446.337 363.234 447.171 363.027L447.386 362.975L447.495 362.941C448.604 362.603 449.414 362.459 449.903 362.537L449.96 362.548C451.382 362.842 451.359 364.858 449.978 365.15L449.59 365.219L449.309 365.273C449.211 365.292 449.107 365.314 448.999 365.336L448.522 365.441L448.132 365.532L447.902 365.607L447.733 365.663C446.596 366.048 445.119 366.621 443.502 367.304L442.936 367.545C439.73 368.922 436.527 370.487 434.61 371.639L433.297 372.438C432.568 372.885 431.998 373.239 431.534 373.536L431.157 373.78L430.959 373.944L430.786 374.091L430.609 374.243L430.821 374.26L431.146 374.281C432.249 374.346 433.565 374.376 435.982 374.393L438.244 374.404L476.483 373.889L476.484 373.865C476.554 365.195 473.324 357.638 467.844 351.207L467.642 350.972C465.697 348.721 463.611 346.778 461.528 345.15C460.801 344.582 460.128 344.095 459.527 343.69L459.289 343.531L459.09 343.402ZM416.487 373.665L416.458 373.562C416.403 373.35 416.385 373.14 416.407 372.927L416.41 372.9C414.75 372.832 413.509 372.544 412.629 372.021L412.521 371.954C411.262 371.149 410.847 369.878 411.189 368.523C411.258 368.247 411.357 367.972 411.48 367.7L411.5 367.657L411.378 367.646C411.068 367.612 410.779 367.556 410.509 367.475L410.376 367.433C408.83 366.91 408.112 365.557 408.476 363.799C409.104 360.799 418.448 353.6 427.923 347.898C430.858 346.144 434.224 344.734 437.938 343.633C442.33 342.331 447.016 341.511 451.745 341.078L452.374 341.022C455.069 340.794 457.371 340.723 459.098 340.742L459.52 340.749C459.745 340.755 459.965 340.819 460.159 340.934L460.429 341.101C460.584 341.199 460.78 341.327 461.012 341.483C461.663 341.922 462.387 342.446 463.164 343.053C465.377 344.782 467.587 346.842 469.652 349.231C475.939 356.505 479.557 365.203 479.105 375.262C479.075 375.939 478.541 376.481 477.873 376.529L477.795 376.532L438.257 377.064L435.742 377.052C429.643 377.011 428.233 376.874 427.41 376.083L427.379 376.053L427.349 376.061C423.096 377.091 417.21 375.966 416.487 373.665Z" fill="#2E186A"/>
<path fill-rule="evenodd" clip-rule="evenodd" d="M443.039 349.636C443.762 349.51 444.451 349.994 444.577 350.718C444.703 351.442 444.219 352.131 443.496 352.257C440.425 352.794 434.095 355.801 426.904 359.973L426.637 360.128C423.656 361.864 420.764 363.668 418.48 365.207L418.198 365.398C416.079 366.838 414.607 368 414.477 368.23C413.924 369.209 414.001 369.53 414.548 369.75C415.55 370.154 417.524 369.978 419.914 369.117C420.605 368.868 421.366 369.227 421.615 369.918C421.864 370.609 421.505 371.371 420.815 371.62C417.868 372.682 415.278 372.912 413.555 372.218C411.39 371.345 410.875 369.201 412.164 366.92C412.901 365.614 418.291 361.934 424.865 358.083L425.867 357.5C433.212 353.256 439.596 350.238 443.039 349.636Z" fill="#2E186A"/>
<path fill-rule="evenodd" clip-rule="evenodd" d="M507.413 179.343C491.377 209.318 468.872 214.329 454.386 210.56C434.185 205.416 426.787 169.809 442.824 139.79C458.86 109.814 482.029 102.853 502.762 113.938C523.406 125.024 523.406 149.368 507.413 179.343Z" fill="white"/>
<path fill-rule="evenodd" clip-rule="evenodd" d="M441.652 139.162C433.865 153.739 431.15 170.387 433.708 184.737C436.24 198.943 443.678 209.206 454.059 211.849C462.373 214.012 471.875 213.13 480.893 208.805C491.511 203.712 500.997 194.155 508.585 179.971C525.285 148.669 524.212 124.423 504.006 113.104L503.388 112.765C480.786 100.68 457.273 109.964 441.652 139.162ZM502.134 115.11C521.326 125.416 522.508 148.226 506.241 178.716C498.91 192.419 489.83 201.568 479.744 206.406C471.295 210.458 462.438 211.28 454.721 209.272C445.488 206.921 438.69 197.543 436.324 184.269C433.872 170.513 436.489 154.47 443.996 140.417C458.816 112.716 480.482 103.943 501.499 114.777L502.134 115.11Z" fill="#2E186A"/>
<path fill-rule="evenodd" clip-rule="evenodd" d="M499.883 162.537C499.883 162.537 518.888 161.118 514.059 176.328C509.23 191.537 494.966 184.398 494.966 184.398" fill="white"/>
<path fill-rule="evenodd" clip-rule="evenodd" d="M500.16 161.19C502.432 161.097 505.114 161.285 507.712 161.991C514.547 163.85 517.889 168.654 515.325 176.73C513.457 182.615 510.06 185.938 505.613 187.02C502.716 187.724 499.673 187.423 496.74 186.504L496.391 186.392C495.488 186.093 494.795 185.8 494.371 185.588C493.714 185.259 493.448 184.46 493.776 183.803C494.092 183.17 494.844 182.9 495.486 183.174L495.718 183.283C495.806 183.322 495.921 183.373 496.062 183.431C496.495 183.613 496.99 183.795 497.534 183.965C500.046 184.752 502.629 185.008 504.986 184.434C508.506 183.578 511.198 180.945 512.792 175.925C514.853 169.431 512.502 166.051 507.015 164.559C504.823 163.963 502.504 163.781 500.535 163.839L500.067 163.858C500.029 163.86 500 163.862 499.981 163.864C499.249 163.918 498.612 163.369 498.557 162.636C498.502 161.903 499.052 161.265 499.783 161.211L500.021 161.197C500.063 161.195 500.109 161.192 500.16 161.19Z" fill="#2E186A"/>
<path fill-rule="evenodd" clip-rule="evenodd" d="M448.154 157.143C448.714 154.784 447.934 152.578 446.41 152.216C444.887 151.853 443.198 153.471 442.637 155.83C442.077 158.189 442.858 160.395 444.381 160.757C445.905 161.12 447.594 159.502 448.154 157.143Z" fill="#2E186A"/>
<path fill-rule="evenodd" clip-rule="evenodd" d="M471.602 160.229C472.162 157.871 471.381 155.665 469.858 155.302C468.334 154.94 466.645 156.558 466.085 158.917C465.524 161.275 466.305 163.481 467.829 163.844C469.352 164.206 471.041 162.588 471.602 160.229Z" fill="#2E186A"/>
<path fill-rule="evenodd" clip-rule="evenodd" d="M457.741 148.104C458.046 147.436 458.835 147.143 459.503 147.448C460.146 147.743 460.442 148.488 460.188 149.14L460.158 149.212L448.363 174.999L456.199 176.575C456.893 176.715 457.351 177.372 457.253 178.064L457.24 178.142C457.1 178.836 456.444 179.295 455.752 179.197L455.675 179.184L446.195 177.277C445.381 177.113 444.921 176.255 445.217 175.493L445.248 175.419L457.741 148.104Z" fill="#2E186A"/>
<path fill-rule="evenodd" clip-rule="evenodd" d="M467.229 143.737C471.017 141.893 474.808 143.004 478.257 145.862C479.025 146.499 479.716 147.178 480.325 147.858L480.5 148.057C480.778 148.376 480.982 148.632 481.105 148.799C481.542 149.39 481.416 150.223 480.826 150.659C480.258 151.079 479.467 150.979 479.02 150.446L478.857 150.237L478.82 150.192C478.686 150.024 478.526 149.836 478.344 149.632C477.819 149.045 477.221 148.458 476.562 147.912C473.83 145.647 471.053 144.834 468.391 146.13C467.731 146.451 466.936 146.176 466.615 145.515C466.294 144.854 466.568 144.058 467.229 143.737Z" fill="#2E186A"/>
<path fill-rule="evenodd" clip-rule="evenodd" d="M464.576 184.442C463.463 185.917 462.101 186.817 460.521 187.244C458.684 187.742 456.66 187.58 454.701 186.998C454.303 186.88 453.943 186.754 453.629 186.628L453.452 186.556L453.277 186.479C452.556 186.134 451.695 186.499 451.442 187.258L451.399 187.396C451.346 187.575 451.284 187.82 451.223 188.119C450.952 189.46 450.919 190.876 451.29 192.245C452.213 195.648 455.317 197.61 460.765 197.434C460.864 197.43 460.963 197.416 461.059 197.391C466.252 196.026 469.228 192.38 469.636 188.225C469.805 186.509 469.469 184.914 468.671 183.966C467.533 182.615 465.835 182.845 464.648 184.348L464.576 184.442ZM466.785 185.933L466.794 185.952C466.972 186.381 467.074 187.121 466.991 187.965L466.975 188.113C466.624 191.071 464.485 193.672 460.581 194.764L460.528 194.778L460.283 194.784C456.269 194.835 454.414 193.609 453.855 191.548L453.81 191.365C453.683 190.81 453.651 190.219 453.693 189.628L453.706 189.475L453.944 189.548C456.335 190.259 458.83 190.458 461.215 189.813C463.286 189.252 465.101 188.079 466.555 186.229L466.747 185.98L466.785 185.933Z" fill="#2E186A"/>
<path fill-rule="evenodd" clip-rule="evenodd" d="M439.916 138.198C442.838 137.277 445.866 137.999 448.772 139.713C449.463 140.121 450.095 140.557 450.657 140.995L450.851 141.148C451.095 141.344 451.277 141.501 451.391 141.608C451.93 142.107 451.961 142.949 451.463 143.487C450.983 144.006 450.187 144.055 449.648 143.614L449.493 143.478L449.455 143.445C449.333 143.341 449.189 143.222 449.024 143.094C448.548 142.723 448.01 142.351 447.422 142.005C445.102 140.636 442.783 140.084 440.714 140.736C439.86 141.004 439.047 141.479 438.273 142.189C437.732 142.686 436.891 142.649 436.395 142.107C435.899 141.566 435.936 140.724 436.477 140.228C437.534 139.258 438.687 138.585 439.916 138.198Z" fill="#2E186A"/>
<path fill-rule="evenodd" clip-rule="evenodd" d="M573.465 92.2549C570.674 92.6983 567.794 93.4521 565.003 94.4276C544.271 101.788 532.31 121.476 538.291 138.415C544.227 155.132 565.402 162.892 585.913 156.019C589.103 167.503 589.679 187.191 569.655 210.338C566.2 214.329 570.497 220.226 575.325 218.142C594.64 209.761 620.689 195.173 629.327 174.731C642.75 142.849 641.244 73.9859 573.465 92.2549Z" fill="#2E186A"/>
<path fill-rule="evenodd" clip-rule="evenodd" d="M530.361 141.874L530.272 141.519C528.987 137.306 531.335 132.828 535.544 131.498L540.195 130.079C544.404 128.793 548.878 131.143 550.207 135.355L550.296 135.71C551.581 139.923 549.233 144.401 545.024 145.731L540.373 147.15C536.12 148.436 531.645 146.086 530.361 141.874Z" fill="#98B0B7"/>
<path fill-rule="evenodd" clip-rule="evenodd" d="M533.285 130.3C529.741 119.304 517.204 106.356 480.612 98.4184C480.214 98.3741 479.771 98.4184 479.283 98.5071C460.722 94.5607 430.819 104.937 431.395 139.834C431.528 146.397 433.167 152.516 435.914 158.103C437.331 151.939 439.59 145.731 442.78 139.79C450.665 124.979 460.323 115.801 470.556 111.632C468.297 123.605 472.948 142.583 499.351 163.601C499.395 163.69 499.44 163.779 499.528 163.912L499.838 162.537C499.838 162.537 509.54 161.828 513.306 166.971C513.35 167.06 513.394 167.104 513.439 167.193C513.483 167.237 513.527 167.282 513.527 167.37C513.571 167.459 513.616 167.503 513.66 167.592C513.704 167.636 513.749 167.725 513.749 167.77C513.793 167.858 513.837 167.947 513.882 167.991C513.926 168.08 513.97 168.169 514.014 168.257C514.059 168.346 514.103 168.435 514.147 168.568C514.192 168.656 514.192 168.701 514.236 168.789C514.28 168.878 514.28 168.922 514.325 169.011C514.369 169.1 514.369 169.188 514.413 169.277C514.413 169.366 514.457 169.41 514.457 169.499C514.502 169.588 514.502 169.676 514.546 169.765C514.546 169.809 514.59 169.898 514.59 169.942C514.679 170.297 514.723 170.652 514.723 171.051C514.723 171.095 514.723 171.139 514.723 171.228C514.723 171.361 514.723 171.45 514.723 171.583C514.723 171.627 514.723 171.716 514.723 171.76C514.723 171.893 514.723 172.026 514.723 172.159C514.723 172.204 514.723 172.292 514.723 172.337C514.723 172.47 514.723 172.603 514.679 172.736C514.635 173.091 514.59 173.445 514.546 173.8C514.413 174.598 514.236 175.441 513.926 176.372C511.667 183.467 507.325 185.684 503.382 186.038C503.427 185.861 503.958 194.907 503.825 195.04C509.053 193.266 514.723 189.852 520.792 184.087C538.557 167.282 540.772 145.776 533.285 130.3Z" fill="#2E186A"/>
<path fill-rule="evenodd" clip-rule="evenodd" d="M298.495 299.155C298.495 299.155 290.211 288.646 295.837 286.606C308.418 282.039 342.574 344.207 305.982 346.202C304.165 346.291 286.313 349.749 275.725 335.161C267.751 322.967 267.175 309.975 272.801 302.747C278.471 295.519 298.495 299.155 298.495 299.155Z" fill="white"/>
<path fill-rule="evenodd" clip-rule="evenodd" d="M295.384 285.356C292.216 286.504 291.896 289.487 293.412 293.212C293.833 294.245 294.388 295.325 295.045 296.43L295.272 296.806L295.503 297.178L295.646 297.404L295.412 297.376C291.863 296.966 288.235 296.792 284.83 296.992C278.741 297.349 274.175 298.842 271.756 301.925C265.539 309.912 266.596 323.63 274.613 335.889L274.65 335.943C277.851 340.354 281.874 343.458 286.525 345.418C292.207 347.813 297.949 348.306 303.816 347.767L304.358 347.714C304.893 347.657 305.787 347.555 306.004 347.534L306.054 347.53C315.192 347.032 320.83 342.861 322.88 335.776C324.612 329.791 323.679 321.955 320.598 313.488C314.648 297.134 302.529 282.762 295.384 285.356ZM306.155 344.859L305.843 344.879C305.489 344.909 304.284 345.049 303.894 345.087C298.311 345.637 292.867 345.205 287.557 342.966L287.282 342.849C283.275 341.107 279.803 338.422 276.991 334.639L276.817 334.403L276.837 334.432C269.388 323.041 268.424 310.535 273.85 303.564C275.668 301.246 279.59 299.964 284.986 299.648C288.217 299.458 291.699 299.625 295.107 300.019C295.849 300.105 296.536 300.196 297.157 300.288L297.817 300.39L298.258 300.464C299.438 300.678 300.263 299.349 299.583 298.391L299.358 298.095L299.169 297.841C299.07 297.707 298.966 297.563 298.857 297.409C298.335 296.676 297.814 295.885 297.329 295.069C296.735 294.07 296.239 293.105 295.874 292.208L295.759 291.918C294.863 289.588 295.048 288.307 296.29 287.857C301.375 286.011 312.627 299.354 318.101 314.398C321.006 322.384 321.875 329.685 320.327 335.036C318.619 340.936 314.049 344.365 306.155 344.859Z" fill="#2E186A"/>
<path fill-rule="evenodd" clip-rule="evenodd" d="M309.215 269.357L275.547 219.472C273.864 216.989 270.054 217.743 269.434 220.714L258.093 277.96C257.606 280.398 260.352 282.172 262.39 280.753L277.674 269.978L292.027 326.647C292.558 328.776 294.729 330.062 296.856 329.529L299.203 328.953C301.33 328.421 302.615 326.248 302.083 324.12L287.996 268.426L306.203 273.614C308.684 274.279 310.677 271.486 309.215 269.357Z" fill="#084355"/>
<path fill-rule="evenodd" clip-rule="evenodd" d="M277.674 300.707C287.376 297.337 303.634 299.909 307.399 305.806C311.165 311.704 307.488 310.64 307.488 310.64C307.488 310.64 311.785 313.478 311.874 316.094C311.962 318.71 311.386 320.794 311.386 320.794C311.386 320.794 314.93 320.971 313.867 324.962C312.804 328.909 312.317 330.15 312.317 330.15C312.317 330.15 313.07 337.821 306.779 338.309C300.489 338.797 287.642 342.965 282.015 338.398C276.389 333.831 267.972 304.077 277.674 300.707Z" fill="white"/>
<path fill-rule="evenodd" clip-rule="evenodd" d="M284.086 327.63C289.264 326.146 295.743 325.514 301.561 325.801C307.558 326.097 311.821 327.248 312.891 329.392C314.811 333.349 313.752 335.424 308.591 337.958C306.663 338.878 303.476 339.328 299.287 339.455C296.703 339.533 293.944 339.479 291.254 339.341L290.721 339.313C290.461 339.298 290.213 339.284 289.975 339.269L289.144 339.213L288.863 339.192C288.132 339.133 287.586 338.491 287.645 337.759C287.704 337.027 288.345 336.481 289.077 336.54L289.695 336.584L290.377 336.628C290.695 336.647 291.033 336.666 291.389 336.684C294.013 336.818 296.704 336.871 299.207 336.795L299.713 336.778C303.296 336.643 306.022 336.236 307.434 335.563L307.885 335.339C311.413 333.569 311.65 332.924 310.507 330.568C310.351 330.256 309.447 329.758 307.94 329.351C306.255 328.896 303.994 328.585 301.43 328.458C295.889 328.185 289.698 328.789 284.817 330.188C284.112 330.39 283.376 329.981 283.174 329.275C282.972 328.569 283.38 327.832 284.086 327.63Z" fill="#2E186A"/>
<path fill-rule="evenodd" clip-rule="evenodd" d="M284.745 316.123C289.209 315.448 293.715 315.089 297.938 315.216C300.313 315.288 302.526 315.514 304.548 315.912L304.895 315.983L305.104 316.02C309.847 316.898 313.486 319.503 314.872 322.699L314.936 322.851C316.378 326.38 314.606 329.603 310.54 330.139C309.813 330.235 309.145 329.722 309.049 328.994C308.954 328.265 309.466 327.597 310.194 327.501C312.501 327.197 313.269 325.8 312.476 323.859C311.507 321.488 308.604 319.377 304.637 318.64L304.379 318.593C302.421 318.181 300.233 317.947 297.858 317.876C293.815 317.754 289.461 318.101 285.142 318.754C283.967 318.932 282.874 319.121 281.884 319.311L281.558 319.374C281.308 319.423 281.078 319.47 280.868 319.514L280.232 319.651C279.517 319.817 278.803 319.371 278.638 318.655C278.479 317.965 278.887 317.276 279.558 317.079L279.706 317.043L280.01 316.976C280.259 316.922 280.541 316.864 280.854 316.801L281.045 316.764C282.156 316.545 283.399 316.327 284.745 316.123Z" fill="#2E186A"/>
<path fill-rule="evenodd" clip-rule="evenodd" d="M280.216 307.163C285.821 305.841 291.553 305.278 296.94 305.912C299.655 306.232 302.198 306.855 304.537 307.813C306.323 308.547 307.832 309.331 309.081 310.163C313.709 313.244 314.595 316.831 313.095 319.989C312.853 320.498 312.603 320.876 312.411 321.109C311.943 321.676 311.105 321.755 310.54 321.288C309.995 320.838 309.901 320.045 310.31 319.481L310.361 319.415C310.423 319.34 310.555 319.142 310.694 318.847C311.057 318.084 311.189 317.239 310.968 316.342C310.647 315.046 309.61 313.711 307.609 312.378C306.514 311.649 305.159 310.945 303.529 310.275C301.426 309.413 299.116 308.848 296.63 308.555C291.593 307.961 286.154 308.495 280.826 309.753C279.614 310.039 278.496 310.343 277.491 310.649L277.193 310.741C276.88 310.838 276.598 310.929 276.349 311.013L275.875 311.178C275.187 311.433 274.422 311.081 274.168 310.392C273.913 309.703 274.265 308.937 274.953 308.683L275.134 308.618L275.344 308.545C275.649 308.44 276.004 308.324 276.404 308.2C277.541 307.846 278.82 307.493 280.216 307.163Z" fill="#2E186A"/>
<path fill-rule="evenodd" clip-rule="evenodd" d="M295.987 298.19C296.275 297.514 297.056 297.2 297.731 297.488C297.938 297.576 298.142 297.664 298.343 297.753C303.645 300.096 306.929 302.656 308.527 305.361C309.737 307.41 309.882 309.34 309.362 310.945C309.251 311.288 309.13 311.547 309.03 311.717C308.655 312.349 307.84 312.558 307.209 312.183C306.601 311.822 306.385 311.052 306.704 310.431L306.743 310.36C306.748 310.352 306.786 310.271 306.833 310.125C307.128 309.215 307.043 308.075 306.239 306.715C304.959 304.548 302.105 302.324 297.269 300.187C297.079 300.103 296.886 300.019 296.689 299.936C296.014 299.648 295.7 298.866 295.987 298.19Z" fill="#2E186A"/>
<path fill-rule="evenodd" clip-rule="evenodd" d="M605.411 374C605.737 374 606 374.672 606 375.5C606 376.299 605.755 376.952 605.446 376.997L605.411 377H273.589C273.263 377 273 376.328 273 375.5C273 374.701 273.245 374.048 273.554 374.003L273.589 374H605.411Z" fill="#2E186A"/>
<rect x="175" y="144" width="242" height="18" rx="9" fill="#98B0B7"/>
<rect x="175" y="170" width="242" height="18" rx="9" fill="#98B0B7"/>
<rect x="175" y="170" width="242" height="18" rx="9" fill="#98B0B7"/>
<rect x="175" y="194" width="242" height="18" rx="9" fill="#98B0B7"/>
<circle cx="189" cy="119" r="14" fill="#F2F2F7"/>
<g clip-path="url(#clip0)">
<path d="M185.509 127.11C185.509 127.11 185.512 127.106 185.524 127.103C185.505 127.028 185.076 125.166 185.524 122.843C185.839 121.202 186.599 119.324 188.256 117.691C188.831 117.124 189.441 116.659 190.059 116.289C189.043 112.129 185.509 109.987 185.509 109.987C185.509 109.987 180.687 112.908 180.687 118.553C180.687 124.19 185.509 127.11 185.509 127.11Z" fill="#00FFB0"/>
<path d="M197.983 114.231C197.819 114.193 194.188 113.377 190.532 115.141C189.205 111.349 186.061 109.402 185.916 109.315C185.665 109.163 185.351 109.164 185.101 109.315C184.889 109.444 179.899 112.536 179.899 118.553C179.899 124.565 184.889 127.657 185.101 127.786C185.187 127.838 185.28 127.865 185.374 127.881C185.545 127.92 186.418 128.101 187.676 128.101C189.795 128.101 192.98 127.582 195.624 124.974C199.935 120.723 198.626 115.052 198.569 114.813C198.499 114.524 198.273 114.299 197.983 114.231ZM181.474 118.553C181.474 114.373 184.414 111.772 185.511 110.947C186.362 111.581 188.308 113.269 189.144 115.942C189.142 115.943 189.141 115.945 189.139 115.946C188.912 116.102 188.693 116.27 188.479 116.443C188.425 116.486 188.372 116.53 188.319 116.574C188.107 116.753 187.9 116.936 187.702 117.131C187.545 117.286 187.399 117.443 187.256 117.601C187.214 117.648 187.173 117.695 187.132 117.742C187.03 117.861 186.93 117.98 186.835 118.1C186.799 118.146 186.761 118.192 186.726 118.239C186.603 118.399 186.484 118.561 186.375 118.723C186.365 118.738 186.356 118.753 186.346 118.768C186.333 118.786 186.322 118.805 186.31 118.824V115.21C186.31 114.775 185.957 114.423 185.523 114.423C185.088 114.423 184.736 114.775 184.736 115.21V116.793L184.037 116.118C183.724 115.815 183.225 115.824 182.924 116.137C182.621 116.449 182.63 116.948 182.943 117.25L184.736 118.983V120.589L184.083 119.842C183.797 119.514 183.3 119.481 182.973 119.767C182.645 120.053 182.612 120.55 182.897 120.878L184.704 122.947C184.703 122.955 184.701 122.964 184.7 122.972C184.693 123.013 184.686 123.053 184.68 123.093C184.656 123.242 184.636 123.388 184.619 123.532C184.615 123.568 184.612 123.602 184.608 123.637C184.595 123.749 184.584 123.859 184.575 123.968C184.571 124.015 184.568 124.061 184.565 124.107C184.557 124.212 184.551 124.315 184.547 124.416C184.545 124.451 184.543 124.485 184.542 124.519C184.536 124.649 184.534 124.775 184.533 124.898C184.532 124.934 184.533 124.968 184.533 125.003C184.533 125.094 184.534 125.182 184.536 125.269C184.536 125.289 184.536 125.31 184.536 125.33C183.232 124.082 181.474 121.799 181.474 118.553ZM194.519 123.853C191.962 126.374 188.72 126.595 186.968 126.494C187.61 125.672 188.601 124.462 189.813 123.172C190.272 122.983 191.846 122.388 193.773 122.217C194.206 122.179 194.526 121.797 194.487 121.363C194.449 120.93 194.076 120.611 193.634 120.649C193.122 120.694 192.636 120.766 192.182 120.852C193.009 120.115 193.882 119.414 194.78 118.811C195.14 118.568 195.236 118.079 194.993 117.718C194.751 117.357 194.261 117.261 193.901 117.505C192.596 118.382 191.351 119.436 190.224 120.512C190.219 120.344 190.21 120.171 190.192 119.99C190.149 119.558 189.769 119.242 189.33 119.285C188.897 119.328 188.582 119.714 188.625 120.146C188.744 121.335 188.472 122.147 188.37 122.401C187.46 123.388 186.685 124.313 186.099 125.047C186.099 125.035 186.098 125.023 186.098 125.011C186.098 124.994 186.098 124.976 186.098 124.959C186.098 124.832 186.101 124.702 186.106 124.567C186.107 124.549 186.107 124.531 186.108 124.513C186.114 124.371 186.124 124.224 186.137 124.074C186.139 124.044 186.142 124.014 186.145 123.984C186.159 123.831 186.176 123.676 186.199 123.516C186.201 123.498 186.204 123.481 186.207 123.463C186.225 123.335 186.249 123.204 186.273 123.073C186.29 123.019 186.3 122.962 186.305 122.904C186.336 122.746 186.373 122.586 186.415 122.425C186.423 122.391 186.433 122.358 186.442 122.325C186.488 122.152 186.539 121.978 186.597 121.803C186.601 121.789 186.607 121.775 186.612 121.761C186.668 121.594 186.731 121.425 186.8 121.256C186.812 121.226 186.823 121.197 186.835 121.167C186.908 120.993 186.988 120.819 187.074 120.644C187.091 120.61 187.109 120.576 187.126 120.542C187.218 120.362 187.315 120.182 187.423 120.004C187.428 119.997 187.433 119.99 187.437 119.982C187.543 119.809 187.658 119.636 187.779 119.465C187.801 119.434 187.822 119.402 187.845 119.371C187.97 119.2 188.104 119.03 188.246 118.862C188.273 118.831 188.301 118.799 188.328 118.768C188.479 118.594 188.637 118.422 188.809 118.253C189.059 118.006 189.323 117.774 189.6 117.559C189.633 117.533 189.667 117.51 189.7 117.486C189.807 117.405 189.914 117.324 190.024 117.249C190.169 117.149 190.315 117.055 190.465 116.964L190.466 116.964C190.466 116.964 190.466 116.964 190.466 116.964C193.11 115.364 195.99 115.531 197.126 115.681C197.311 117.039 197.518 120.895 194.519 123.853Z" fill="#333333"/>
</g>
<defs>
<clipPath id="clip0">
<rect width="18.9" height="18.9" fill="white" transform="translate(179.899 109.2)"/>
</clipPath>
</defs>
</svg>
