<svg width="49" height="53" viewBox="0 0 49 53" fill="none" xmlns="http://www.w3.org/2000/svg">
  <g clip-path="url(#clip0_9563_1903)">
    <g clip-path="url(#clip1_9563_1903)">
      <path d="M24.1121 52.6272C37.4288 52.6272 48.2242 48.2152 48.2242 42.7727C48.2242 37.3302 37.4288 32.9182 24.1121 32.9182C10.7954 32.9182 0 37.3302 0 42.7727C0 48.2152 10.7954 52.6272 24.1121 52.6272Z" fill="#A558A0"/>
      <path d="M24.1121 0C19.648 0.00308698 15.3676 1.77823 12.2116 4.93541C9.05548 8.09259 7.28182 12.3735 7.28027 16.8377C7.28027 27.7813 17.9618 38.2707 22.3008 42.0913C22.803 42.5308 23.4477 42.7731 24.1151 42.7731C24.7824 42.7731 25.4271 42.5308 25.9293 42.0913C30.2858 38.2066 40.9498 27.7813 40.9498 16.8377C40.9483 12.3725 39.1738 8.0907 36.0165 4.93335C32.8591 1.77601 28.5773 0.0015437 24.1121 0V0ZM24.1121 23.751C22.5907 23.7498 21.1038 23.2976 19.8393 22.4515C18.5749 21.6054 17.5896 20.4034 17.0082 18.9975C16.4268 17.5915 16.2753 16.0448 16.5728 14.5527C16.8703 13.0607 17.6035 11.6903 18.6797 10.6149C19.756 9.5395 21.1269 8.80732 22.6191 8.51093C24.1114 8.21453 25.6581 8.36723 27.0636 8.94973C28.4691 9.53222 29.6703 10.5183 30.5155 11.7834C31.3606 13.0485 31.8117 14.5358 31.8117 16.0573C31.8125 17.0683 31.6138 18.0696 31.2271 19.0038C30.8403 19.9379 30.2731 20.7867 29.5579 21.5013C28.8427 22.216 27.9936 22.7825 27.0591 23.1686C26.1246 23.5546 25.1232 23.7525 24.1121 23.751V23.751Z" fill="#161616"/>
    </g>
  </g>
  <defs>
    <clipPath id="clip0_9563_1903">
      <rect width="48.3407" height="53" fill="white"/>
    </clipPath>
    <clipPath id="clip1_9563_1903">
      <rect width="48.3407" height="53" fill="white"/>
    </clipPath>
  </defs>
</svg>
